<?xml version="1.0" encoding="utf-8"?>
<!-- Generator: Adobe Illustrator 27.5.0, SVG Export Plug-In . SVG Version: 6.00 Build 0)  -->
<svg version="1.1" id="레이어_1" xmlns="http://www.w3.org/2000/svg" xmlns:xlink="http://www.w3.org/1999/xlink" x="0px"
	 y="0px" viewBox="0 0 640 1085" style="enable-background:new 0 0 640 1085;" xml:space="preserve">
<style type="text/css">
	.st0{fill:#00FFFF;}
	.st1{fill:none;}
	.st2{fill:#FFFFFF;}
</style>
<rect x="-1346.1" class="st0" width="44" height="41.4"/>
<rect x="-1346.1" y="952" class="st0" width="640" height="254"/>
<text transform="matrix(1 0 0 1 -860.9346 1090.3506)" class="st2" style="font-family:'KiaSignatureRegular'; font-size:25px;"> </text>
<rect x="-1346.1" y="1066" class="st1" width="639.1" height="28.2"/>
<text transform="matrix(1 0 0 1 -1109.0405 1082.554)" class="st2" style="font-family:'KiaSignatureBold'; font-size:20px;">Creative Moment</text>
<rect x="0" class="st1" width="44" height="41.4"/>
<rect x="0" y="952" class="st1" width="640" height="254"/>
<g>
	<path class="st2" d="M237.9,1075.1c0-1.5,0.3-2.8,0.9-4c0.6-1.2,1.5-2.1,2.6-2.8c1.1-0.7,2.5-1,4.1-1c0.9,0,1.7,0.1,2.6,0.4
		c0.8,0.3,1.5,0.6,2.1,1.1v3.1c-0.6-0.7-1.2-1.3-2-1.7s-1.6-0.6-2.5-0.6c-0.9,0-1.7,0.2-2.4,0.7c-0.7,0.5-1.3,1.1-1.7,2
		s-0.6,1.8-0.6,2.9v0.4c0,1.1,0.2,2,0.6,2.9c0.4,0.8,1,1.5,1.7,2c0.7,0.5,1.5,0.7,2.4,0.7c0.9,0,1.8-0.2,2.5-0.6s1.4-1,2-1.7v3.1
		c-0.5,0.4-1.2,0.8-2.1,1.1c-0.8,0.3-1.7,0.4-2.6,0.4c-1.6,0-2.9-0.3-4.1-1c-1.1-0.7-2-1.6-2.6-2.8c-0.6-1.2-0.9-2.5-0.9-4V1075.1z"
		/>
	<path class="st2" d="M252.4,1082.9v-10.9h2.4l0.1,1.8c0.2-0.6,0.6-1.2,1.2-1.5s1.3-0.6,2-0.6c0.3,0,0.6,0,0.9,0.1v2.3
		c-0.3-0.1-0.6-0.2-1-0.2c-0.7,0-1.4,0.2-2,0.7c-0.6,0.4-1,1-1.2,1.7v6.6H252.4z"/>
	<path class="st2" d="M259.7,1077.2c0-1.1,0.2-2,0.6-2.8c0.4-0.8,1-1.5,1.8-2c0.8-0.5,1.7-0.7,2.7-0.7c1.6,0,2.8,0.5,3.7,1.5
		c0.9,1,1.3,2.4,1.3,4.2v1h-7.6c0.1,0.9,0.4,1.6,0.9,2.1c0.5,0.5,1.3,0.8,2.2,0.8c0.7,0,1.4-0.1,2-0.4c0.6-0.3,1.2-0.7,1.8-1.3v2.5
		c-0.5,0.4-1.1,0.7-1.7,0.9c-0.7,0.2-1.4,0.3-2.1,0.3c-1.2,0-2.2-0.2-3-0.7c-0.8-0.5-1.5-1.1-1.9-2s-0.6-1.8-0.6-2.9V1077.2z
		 M267.3,1076.3c0-0.9-0.2-1.5-0.7-2c-0.4-0.5-1-0.7-1.8-0.7c-0.7,0-1.3,0.3-1.8,0.8s-0.8,1.2-0.8,2H267.3z"/>
	<path class="st2" d="M271.8,1077.7c0.4-0.5,0.9-0.8,1.6-1.1c0.7-0.2,1.4-0.4,2.4-0.6l2.3-0.4c-0.1-1.4-1-2.1-2.6-2.1
		c-0.6,0-1.2,0.2-1.8,0.5c-0.6,0.3-1.1,0.8-1.5,1.3v-2.5c1-0.8,2.3-1.3,3.9-1.3c1.4,0,2.5,0.4,3.4,1.1c0.9,0.7,1.3,1.9,1.3,3.4v6.7
		h-2.2l-0.2-1.3c-0.5,0.5-1.1,0.9-1.7,1.2c-0.6,0.3-1.2,0.4-2,0.4c-1.1,0-1.9-0.3-2.6-0.9s-0.9-1.4-0.9-2.5
		C271.1,1079,271.4,1078.3,271.8,1077.7z M274.1,1080.7c0.3,0.3,0.6,0.4,1,0.4c0.7,0,1.3-0.2,1.8-0.6c0.6-0.4,1-0.9,1.2-1.5v-1.5
		l-1.3,0.2c-0.9,0.1-1.5,0.3-1.9,0.4c-0.4,0.2-0.7,0.3-0.9,0.5c-0.3,0.3-0.4,0.6-0.4,1C273.7,1080.1,273.8,1080.5,274.1,1080.7z"/>
	<path class="st2" d="M284.3,1073.9h-2.4v-2h2.4v-3.3h2.6v3.3h2.4v2h-2.4v8.9h-2.6V1073.9z"/>
	<path class="st2" d="M293.3,1070.3h-2.6v-2.7h2.6V1070.3z M293.3,1082.9h-2.6v-10.9h2.6V1082.9z"/>
	<path class="st2" d="M298.8,1082.9l-4.1-10.9h2.8l2.9,8.2l2.9-8.2h2.4l-4.1,10.9H298.8z"/>
	<path class="st2" d="M306.3,1077.2c0-1.1,0.2-2,0.6-2.8c0.4-0.8,1-1.5,1.8-2c0.8-0.5,1.7-0.7,2.7-0.7c1.6,0,2.8,0.5,3.7,1.5
		c0.9,1,1.3,2.4,1.3,4.2v1h-7.6c0.1,0.9,0.4,1.6,0.9,2.1c0.5,0.5,1.3,0.8,2.2,0.8c0.7,0,1.4-0.1,2-0.4c0.6-0.3,1.2-0.7,1.8-1.3v2.5
		c-0.5,0.4-1.1,0.7-1.7,0.9c-0.7,0.2-1.4,0.3-2.1,0.3c-1.2,0-2.2-0.2-3-0.7c-0.8-0.5-1.5-1.1-1.9-2s-0.6-1.8-0.6-2.9V1077.2z
		 M313.9,1076.3c0-0.9-0.2-1.5-0.7-2c-0.4-0.5-1-0.7-1.8-0.7c-0.7,0-1.3,0.3-1.8,0.8s-0.8,1.2-0.8,2H313.9z"/>
	<path class="st2" d="M326.3,1082.9h-2.6v-15.2h3.6l4.2,10.5l4.3-10.5h3.2v15.2h-2.6v-11l-4.5,11h-1.1l-4.5-11V1082.9z"/>
	<path class="st2" d="M341.1,1077.2c0-1,0.2-2,0.7-2.8c0.5-0.9,1.1-1.5,2-2c0.8-0.5,1.8-0.7,2.8-0.7c1,0,2,0.2,2.8,0.7
		c0.8,0.5,1.5,1.2,2,2c0.5,0.9,0.7,1.8,0.7,2.8v0.3c0,1.1-0.2,2-0.7,2.9c-0.5,0.8-1.1,1.5-2,2c-0.8,0.5-1.8,0.7-2.8,0.7
		c-1,0-2-0.2-2.8-0.7s-1.5-1.2-2-2c-0.5-0.9-0.7-1.8-0.7-2.9V1077.2z M343.8,1077.6c0,1,0.2,1.9,0.7,2.6c0.5,0.7,1.2,1,2.1,1
		c0.9,0,1.6-0.3,2.1-1c0.5-0.7,0.7-1.5,0.7-2.6v-0.3c0-1-0.2-1.9-0.7-2.6c-0.5-0.7-1.2-1-2.1-1c-0.9,0-1.6,0.3-2.1,1
		c-0.5,0.7-0.7,1.5-0.7,2.6V1077.6z"/>
	<path class="st2" d="M354,1082.9v-10.9h2.3l0.1,1.4c0.5-0.5,0.9-1,1.5-1.3c0.5-0.3,1.1-0.5,1.8-0.5c0.6,0,1.2,0.2,1.8,0.5
		c0.5,0.3,0.9,0.8,1.2,1.5c0.5-0.7,1-1.1,1.5-1.5c0.6-0.3,1.2-0.5,2-0.5c0.6,0,1.2,0.1,1.7,0.4c0.5,0.3,0.9,0.7,1.2,1.3
		c0.3,0.6,0.5,1.3,0.5,2.1v7.5H367v-7.5c0-1.2-0.5-1.8-1.4-1.8c-0.5,0-1,0.2-1.5,0.6c-0.5,0.4-0.8,1-1,1.6v7.1h-2.6l0-7.6
		c0-0.6-0.1-1-0.4-1.3c-0.3-0.3-0.6-0.4-1.1-0.4c-0.5,0-1,0.2-1.4,0.6c-0.4,0.4-0.8,0.9-1,1.6v7.1H354z"/>
	<path class="st2" d="M371.2,1077.2c0-1.1,0.2-2,0.7-2.8c0.4-0.8,1-1.5,1.8-2c0.8-0.5,1.7-0.7,2.7-0.7c1.6,0,2.8,0.5,3.7,1.5
		c0.9,1,1.3,2.4,1.3,4.2v1h-7.6c0.1,0.9,0.4,1.6,0.9,2.1c0.5,0.5,1.3,0.8,2.2,0.8c0.7,0,1.4-0.1,2-0.4c0.6-0.3,1.2-0.7,1.8-1.3v2.5
		c-0.5,0.4-1.1,0.7-1.7,0.9c-0.7,0.2-1.4,0.3-2.2,0.3c-1.2,0-2.2-0.2-3-0.7c-0.8-0.5-1.5-1.1-1.9-2s-0.6-1.8-0.6-2.9V1077.2z
		 M378.8,1076.3c0-0.9-0.2-1.5-0.7-2c-0.4-0.5-1-0.7-1.8-0.7c-0.7,0-1.3,0.3-1.8,0.8c-0.5,0.5-0.8,1.2-0.8,2H378.8z"/>
	<path class="st2" d="M383.3,1082.9v-10.9h2.4l0.2,1.6c0.4-0.5,0.9-1,1.5-1.3c0.6-0.4,1.3-0.5,2-0.5c1.2,0,2.2,0.4,2.8,1.1
		c0.7,0.7,1,1.7,1,3v7.1h-2.6v-7.1c0-1.4-0.6-2.1-1.7-2.1c-0.7,0-1.3,0.2-1.8,0.8s-1,1.1-1.2,1.8v6.7H383.3z"/>
	<path class="st2" d="M396.8,1073.9h-2.4v-2h2.4v-3.3h2.6v3.3h2.4v2h-2.4v8.9h-2.6V1073.9z"/>
</g>
</svg>
