<?xml version="1.0" encoding="utf-8"?>
<!-- Generator: Adobe Illustrator 27.5.0, SVG Export Plug-In . SVG Version: 6.00 Build 0)  -->
<svg version="1.1" id="레이어_1" xmlns="http://www.w3.org/2000/svg" xmlns:xlink="http://www.w3.org/1999/xlink" x="0px"
	 y="0px" viewBox="0 0 640 1085" style="enable-background:new 0 0 640 1085;" xml:space="preserve">
<style type="text/css">
	.st0{fill:#00FFFF;}
	.st1{fill:none;}
	.st2{fill:#FFFFFF;}
</style>
<rect x="-1346.1" class="st0" width="44" height="41.4"/>
<rect x="-1346.1" y="952" class="st0" width="640" height="254"/>
<text transform="matrix(1 0 0 1 -860.9346 1090.3506)" class="st2" style="font-family:'KiaSignatureRegular'; font-size:25px;"> </text>
<rect x="-1346.1" y="1066" class="st1" width="639.1" height="28.2"/>
<text transform="matrix(1 0 0 1 -1078.481 1082.554)" class="st2" style="font-family:'KiaSignatureBold'; font-size:20px;">Meditation</text>
<rect class="st1" width="44" height="41.4"/>
<rect y="952" class="st1" width="640" height="254"/>
<g>
	<path class="st2" d="M271.8,1082.9h-2.6v-15.2h3.6l4.2,10.5l4.3-10.5h3.2v15.2H282v-11l-4.5,11h-1.1l-4.5-11v11H271.8z"/>
	<path class="st2" d="M286.5,1077.2c0-1.1,0.2-2,0.6-2.8s1-1.5,1.8-2s1.7-0.7,2.7-0.7c1.6,0,2.8,0.5,3.7,1.5c0.9,1,1.3,2.4,1.3,4.2
		v1H289c0.1,0.9,0.4,1.6,0.9,2.1s1.3,0.8,2.2,0.8c0.7,0,1.4-0.1,2-0.4c0.6-0.3,1.2-0.7,1.8-1.3v2.5c-0.5,0.4-1.1,0.7-1.7,0.9
		c-0.7,0.2-1.4,0.3-2.1,0.3c-1.2,0-2.2-0.2-3-0.7s-1.5-1.1-1.9-2s-0.6-1.8-0.6-2.9L286.5,1077.2L286.5,1077.2z M294.1,1076.3
		c0-0.9-0.2-1.5-0.7-2c-0.4-0.5-1-0.7-1.8-0.7c-0.7,0-1.3,0.3-1.8,0.8s-0.8,1.2-0.8,2L294.1,1076.3L294.1,1076.3z"/>
	<path class="st2" d="M298.6,1074.3c0.4-0.9,1-1.5,1.8-2c0.7-0.5,1.6-0.7,2.5-0.7c0.6,0,1.2,0.1,1.8,0.4c0.6,0.3,1.1,0.6,1.4,1.1
		v-5.6h2.6v15.3h-2.4l-0.2-1.3c-0.3,0.5-0.8,0.9-1.4,1.2c-0.6,0.3-1.2,0.5-1.9,0.5c-0.9,0-1.7-0.2-2.5-0.7c-0.7-0.5-1.3-1.1-1.8-2
		s-0.7-1.9-0.7-3.1C297.9,1076.2,298.1,1075.2,298.6,1074.3z M301,1079.5c0.3,0.6,0.6,1,1,1.3c0.4,0.3,0.9,0.4,1.4,0.4
		s1.1-0.2,1.6-0.5c0.5-0.3,0.9-0.7,1.1-1.3v-4.1c-0.3-0.5-0.6-1-1.1-1.3c-0.5-0.3-1-0.5-1.5-0.5s-0.9,0.1-1.4,0.4
		c-0.4,0.3-0.8,0.7-1.1,1.3c-0.3,0.6-0.4,1.3-0.4,2.1C300.6,1078.2,300.7,1078.9,301,1079.5z"/>
	<path class="st2" d="M313.9,1070.3h-2.6v-2.7h2.6V1070.3z M313.9,1082.9h-2.6V1072h2.6V1082.9z"/>
	<path class="st2" d="M317.6,1073.9h-2.4v-2h2.4v-3.3h2.6v3.3h2.4v2h-2.4v8.9h-2.6V1073.9z"/>
	<path class="st2" d="M324.1,1077.7c0.4-0.5,0.9-0.8,1.6-1.1c0.7-0.2,1.4-0.4,2.4-0.6l2.3-0.4c-0.1-1.4-1-2.1-2.6-2.1
		c-0.6,0-1.2,0.2-1.8,0.5c-0.6,0.3-1.1,0.8-1.5,1.3v-2.5c1-0.8,2.3-1.3,3.9-1.3c1.4,0,2.5,0.4,3.4,1.1s1.3,1.9,1.3,3.4v6.7h-2.2
		l-0.2-1.3c-0.5,0.5-1.1,0.9-1.7,1.2s-1.2,0.4-2,0.4c-1.1,0-1.9-0.3-2.6-0.9s-0.9-1.4-0.9-2.5C323.4,1079,323.6,1078.3,324.1,1077.7
		z M326.3,1080.7c0.3,0.3,0.6,0.4,1,0.4c0.7,0,1.3-0.2,1.8-0.6c0.6-0.4,1-0.9,1.2-1.5v-1.5l-1.3,0.2c-0.9,0.1-1.5,0.3-1.9,0.4
		c-0.4,0.2-0.7,0.3-0.9,0.5c-0.3,0.3-0.4,0.6-0.4,1C325.9,1080.1,326.1,1080.5,326.3,1080.7z"/>
	<path class="st2" d="M336.5,1073.9h-2.4v-2h2.4v-3.3h2.6v3.3h2.4v2h-2.4v8.9h-2.6V1073.9z"/>
	<path class="st2" d="M345.5,1070.3h-2.6v-2.7h2.6V1070.3z M345.5,1082.9h-2.6V1072h2.6V1082.9z"/>
	<path class="st2" d="M347.4,1077.2c0-1,0.2-2,0.7-2.8s1.1-1.5,2-2c0.8-0.5,1.8-0.7,2.8-0.7s2,0.2,2.8,0.7s1.5,1.2,2,2
		s0.7,1.8,0.7,2.8v0.3c0,1.1-0.2,2-0.7,2.9s-1.1,1.5-2,2s-1.8,0.7-2.8,0.7s-2-0.2-2.8-0.7s-1.5-1.2-2-2s-0.7-1.8-0.7-2.9V1077.2z
		 M350.1,1077.6c0,1,0.2,1.9,0.7,2.6s1.2,1,2.1,1s1.6-0.3,2.1-1s0.7-1.5,0.7-2.6v-0.3c0-1-0.2-1.9-0.7-2.6s-1.2-1-2.1-1
		s-1.6,0.3-2.1,1c-0.5,0.7-0.7,1.5-0.7,2.6V1077.6z"/>
	<path class="st2" d="M360.3,1082.9V1072h2.4l0.2,1.6c0.4-0.5,0.9-1,1.5-1.3c0.6-0.4,1.3-0.5,2-0.5c1.2,0,2.2,0.4,2.8,1.1
		c0.7,0.7,1,1.7,1,3v7.1h-2.6v-7.1c0-1.4-0.6-2.1-1.7-2.1c-0.7,0-1.3,0.2-1.8,0.8s-1,1.1-1.2,1.8v6.7h-2.6V1082.9z"/>
</g>
</svg>
