<?xml version="1.0" encoding="utf-8"?>
<!-- Generator: Adobe Illustrator 27.5.0, SVG Export Plug-In . SVG Version: 6.00 Build 0)  -->
<svg version="1.1" id="레이어_1" xmlns="http://www.w3.org/2000/svg" xmlns:xlink="http://www.w3.org/1999/xlink" x="0px"
	 y="0px" viewBox="0 0 640 1085" style="enable-background:new 0 0 640 1085;" xml:space="preserve">
<style type="text/css">
	.st0{fill:#00FFFF;}
	.st1{fill:none;}
	.st2{fill:#FFFFFF;}
</style>
<rect x="-1346.1" class="st0" width="44" height="41.4"/>
<rect x="-1346.1" y="948" class="st0" width="640" height="254"/>
<text transform="matrix(1 0 0 1 -860.9346 1086.3506)" class="st2" style="font-family:'KiaSignatureRegular'; font-size:25px;"> </text>
<rect x="-1346.1" y="1062" class="st1" width="639.1" height="28.2"/>
<text transform="matrix(1 0 0 1 -1099.1509 1078.554)" class="st2" style="font-family:'KiaSignatureBold'; font-size:20px;">Wonderful Day</text>
<rect class="st1" width="44" height="41.4"/>
<rect y="948" class="st1" width="640" height="254"/>
<g>
	<path class="st2" d="M252.9,1075.3l2.8-11.7h3.2l2.8,11.7l2.9-11.7h2.4l-3.9,15.2h-3.2l-2.9-11.4l-2.7,11.4h-3.2l-3.9-15.2h2.9
		L252.9,1075.3z"/>
	<path class="st2" d="M267.9,1073.2c0-1,0.2-2,0.7-2.8s1.1-1.5,2-2c0.8-0.5,1.8-0.7,2.8-0.7s2,0.2,2.8,0.7s1.5,1.2,2,2
		s0.7,1.8,0.7,2.8v0.3c0,1.1-0.2,2-0.7,2.9s-1.1,1.5-2,2s-1.8,0.7-2.8,0.7s-2-0.2-2.8-0.7s-1.5-1.2-2-2s-0.7-1.8-0.7-2.9V1073.2z
		 M270.6,1073.6c0,1,0.2,1.9,0.7,2.6s1.2,1,2.1,1s1.6-0.3,2.1-1s0.7-1.5,0.7-2.6v-0.3c0-1-0.2-1.9-0.7-2.6s-1.2-1-2.1-1
		s-1.6,0.3-2.1,1c-0.5,0.7-0.7,1.5-0.7,2.6V1073.6z"/>
	<path class="st2" d="M280.8,1078.9V1068h2.4l0.2,1.6c0.4-0.5,0.9-1,1.5-1.3c0.6-0.3,1.3-0.5,2-0.5c1.2,0,2.2,0.4,2.8,1.1
		c0.7,0.7,1,1.7,1,3v7.1h-2.6v-7.1c0-1.4-0.6-2.1-1.7-2.1c-0.7,0-1.3,0.2-1.9,0.8s-1,1.1-1.2,1.8v6.7h-2.5V1078.9z"/>
	<path class="st2" d="M293.1,1070.3c0.4-0.9,1-1.5,1.8-2c0.7-0.5,1.6-0.7,2.5-0.7c0.6,0,1.2,0.1,1.8,0.4c0.6,0.3,1.1,0.6,1.4,1.1
		v-5.6h2.6v15.3h-2.4l-0.2-1.3c-0.3,0.5-0.8,0.9-1.4,1.2c-0.6,0.3-1.2,0.5-1.9,0.5c-0.9,0-1.7-0.2-2.5-0.7c-0.7-0.5-1.3-1.1-1.8-2
		s-0.7-1.9-0.7-3.1C292.4,1072.2,292.7,1071.2,293.1,1070.3z M295.5,1075.5c0.3,0.6,0.6,1,1,1.3c0.4,0.3,0.9,0.4,1.4,0.4
		s1.1-0.2,1.6-0.5c0.5-0.3,0.9-0.7,1.1-1.3v-4.1c-0.3-0.5-0.6-1-1.1-1.3c-0.5-0.3-1-0.5-1.5-0.5s-0.9,0.1-1.4,0.4
		c-0.4,0.3-0.8,0.7-1.1,1.3c-0.3,0.6-0.4,1.3-0.4,2.1C295.1,1074.2,295.2,1074.9,295.5,1075.5z"/>
	<path class="st2" d="M305,1073.2c0-1.1,0.2-2,0.6-2.8s1-1.5,1.8-2s1.7-0.7,2.7-0.7c1.6,0,2.8,0.5,3.7,1.5c0.9,1,1.3,2.4,1.3,4.2v1
		h-7.6c0.1,0.9,0.4,1.6,0.9,2.1s1.3,0.8,2.2,0.8c0.7,0,1.4-0.1,2-0.4c0.6-0.3,1.2-0.7,1.8-1.3v2.5c-0.5,0.4-1.1,0.7-1.7,0.9
		c-0.7,0.2-1.4,0.3-2.1,0.3c-1.2,0-2.2-0.2-3-0.7s-1.5-1.1-1.9-2s-0.6-1.8-0.6-2.9L305,1073.2L305,1073.2z M312.6,1072.3
		c0-0.9-0.2-1.5-0.7-2c-0.4-0.5-1-0.7-1.8-0.7c-0.7,0-1.3,0.3-1.8,0.8s-0.8,1.2-0.8,2L312.6,1072.3L312.6,1072.3z"/>
	<path class="st2" d="M317.1,1078.9V1068h2.4l0.1,1.8c0.2-0.6,0.6-1.2,1.2-1.5c0.6-0.4,1.3-0.6,2-0.6c0.3,0,0.6,0,0.9,0.1v2.3
		c-0.3-0.1-0.6-0.2-1-0.2c-0.7,0-1.4,0.2-2,0.7c-0.6,0.4-1,1-1.2,1.7v6.6L317.1,1078.9L317.1,1078.9z"/>
	<path class="st2" d="M324,1069.9v-2h2.2v-0.9c0-0.7,0.1-1.3,0.4-1.9s0.7-1.1,1.3-1.4c0.6-0.4,1.3-0.5,2.1-0.5c0.3,0,0.6,0,0.9,0.1
		s0.6,0.2,0.8,0.3v2.3c-0.2-0.2-0.4-0.3-0.6-0.4c-0.3-0.1-0.5-0.2-0.8-0.2c-0.5,0-0.8,0.2-1.1,0.5c-0.3,0.3-0.5,0.8-0.5,1.3v0.9h2.5
		v2h-2.5v8.9h-2.6v-8.9L324,1069.9L324,1069.9z"/>
	<path class="st2" d="M333,1067.9h2.6v7.1c0,1.4,0.6,2.1,1.7,2.1c0.7,0,1.3-0.2,1.9-0.8c0.6-0.6,1-1.1,1.2-1.8v-6.7h2.6v10.9h-2.4
		l-0.2-1.6c-0.4,0.5-0.9,1-1.5,1.3c-0.6,0.4-1.3,0.5-2,0.5c-1.2,0-2.2-0.4-2.8-1.1c-0.7-0.7-1-1.7-1-3v-6.9H333z"/>
	<path class="st2" d="M348.1,1078.9h-2.6v-15.3h2.6V1078.9z"/>
	<path class="st2" d="M356,1078.9v-15.2h5.3c1.5,0,2.8,0.3,3.9,0.9c1.1,0.6,2,1.4,2.6,2.5c0.6,1.1,0.9,2.4,0.9,3.9v0.4
		c0,1.5-0.3,2.8-0.9,4c-0.6,1.1-1.5,2-2.6,2.6c-1.1,0.6-2.4,0.9-3.9,0.9L356,1078.9L356,1078.9z M361.2,1076.7
		c0.8,0,1.6-0.2,2.3-0.5c0.7-0.4,1.3-0.9,1.7-1.7c0.4-0.8,0.7-1.8,0.7-3v-0.5c0-1.2-0.2-2.2-0.7-2.9c-0.4-0.8-1-1.3-1.7-1.7
		c-0.7-0.4-1.5-0.5-2.3-0.5h-2.4v10.8H361.2L361.2,1076.7z"/>
	<path class="st2" d="M370.8,1073.7c0.4-0.5,0.9-0.8,1.6-1.1c0.7-0.2,1.4-0.4,2.4-0.6l2.3-0.4c-0.1-1.4-1-2.1-2.6-2.1
		c-0.6,0-1.2,0.2-1.8,0.5c-0.6,0.3-1.1,0.8-1.5,1.3v-2.5c1-0.8,2.3-1.3,3.9-1.3c1.4,0,2.5,0.4,3.4,1.1s1.3,1.9,1.3,3.4v6.7h-2.2
		l-0.2-1.3c-0.5,0.5-1.1,0.9-1.7,1.2s-1.2,0.4-2,0.4c-1.1,0-1.9-0.3-2.6-0.9s-0.9-1.4-0.9-2.5C370.1,1075,370.3,1074.3,370.8,1073.7
		z M373,1076.7c0.3,0.3,0.6,0.4,1,0.4c0.7,0,1.3-0.2,1.8-0.6c0.6-0.4,1-0.9,1.2-1.5v-1.5l-1.3,0.2c-0.9,0.1-1.5,0.3-1.9,0.4
		c-0.4,0.2-0.7,0.3-0.9,0.5c-0.3,0.3-0.4,0.6-0.4,1C372.6,1076.1,372.7,1076.5,373,1076.7z"/>
	<path class="st2" d="M385.2,1078.8l-4.3-10.9h2.8l2.9,7.8l2.9-7.8h2.5l-6.1,15.3h-2.6L385.2,1078.8z"/>
</g>
</svg>
