<?xml version="1.0" encoding="utf-8"?>
<!-- Generator: Adobe Illustrator 27.5.0, SVG Export Plug-In . SVG Version: 6.00 Build 0)  -->
<svg version="1.1" id="레이어_1" xmlns="http://www.w3.org/2000/svg" xmlns:xlink="http://www.w3.org/1999/xlink" x="0px"
	 y="0px" viewBox="0 0 640 1085" style="enable-background:new 0 0 640 1085;" xml:space="preserve">
<style type="text/css">
	.st0{fill:#00FFFF;}
	.st1{fill:none;}
	.st2{fill:#FFFFFF;}
</style>
<rect x="-1346.1" class="st0" width="44" height="41.4"/>
<rect x="-1346.1" y="948" class="st0" width="640" height="254"/>
<text transform="matrix(1 0 0 1 -860.9346 1086.3506)" class="st2" style="font-family:'KiaSignatureRegular'; font-size:25px;"> </text>
<rect x="-1346.1" y="1062" class="st1" width="639.1" height="28.2"/>
<text transform="matrix(1 0 0 1 -1096.5103 1078.554)" class="st2" style="font-family:'KiaSignatureBold'; font-size:20px;">Healing Forest</text>
<rect class="st1" width="44" height="41.4"/>
<rect y="948" class="st1" width="640" height="254"/>
<g>
	<path class="st2" d="M253.9,1078.9h-2.7v-15.2h2.7v6.2h7.7v-6.2h2.7v15.2h-2.7v-6.8h-7.7L253.9,1078.9L253.9,1078.9z"/>
	<path class="st2" d="M266.3,1073.2c0-1.1,0.2-2,0.6-2.8s1-1.5,1.8-2s1.7-0.7,2.7-0.7c1.6,0,2.8,0.5,3.7,1.5c0.9,1,1.3,2.4,1.3,4.2
		v1h-7.6c0.1,0.9,0.4,1.6,0.9,2.1s1.3,0.8,2.2,0.8c0.7,0,1.4-0.1,2-0.4c0.6-0.3,1.2-0.7,1.8-1.3v2.5c-0.5,0.4-1.1,0.7-1.7,0.9
		c-0.7,0.2-1.4,0.3-2.1,0.3c-1.2,0-2.2-0.2-3-0.7s-1.5-1.1-1.9-2s-0.6-1.8-0.6-2.9L266.3,1073.2L266.3,1073.2z M273.9,1072.3
		c0-0.9-0.2-1.5-0.7-2c-0.4-0.5-1-0.7-1.8-0.7c-0.7,0-1.3,0.3-1.8,0.8s-0.8,1.2-0.8,2L273.9,1072.3L273.9,1072.3z"/>
	<path class="st2" d="M278.4,1073.7c0.4-0.5,0.9-0.8,1.6-1.1c0.7-0.2,1.4-0.4,2.4-0.6l2.3-0.4c-0.1-1.4-1-2.1-2.6-2.1
		c-0.6,0-1.2,0.2-1.8,0.5c-0.6,0.3-1.1,0.8-1.5,1.3v-2.5c1-0.8,2.3-1.3,3.9-1.3c1.4,0,2.5,0.4,3.4,1.1s1.3,1.9,1.3,3.4v6.7h-2.2
		l-0.2-1.3c-0.5,0.5-1.1,0.9-1.7,1.2s-1.2,0.4-2,0.4c-1.1,0-1.9-0.3-2.6-0.9s-0.9-1.4-0.9-2.5C277.7,1075,277.9,1074.3,278.4,1073.7
		z M280.6,1076.7c0.3,0.3,0.6,0.4,1,0.4c0.7,0,1.3-0.2,1.8-0.6c0.6-0.4,1-0.9,1.2-1.5v-1.5l-1.3,0.2c-0.9,0.1-1.5,0.3-1.9,0.4
		c-0.4,0.2-0.7,0.3-0.9,0.5c-0.3,0.3-0.4,0.6-0.4,1C280.2,1076.1,280.3,1076.5,280.6,1076.7z"/>
	<path class="st2" d="M292.2,1078.9h-2.6v-15.3h2.6V1078.9z"/>
	<path class="st2" d="M297.4,1066.3h-2.6v-2.7h2.6V1066.3z M297.4,1078.9h-2.6V1068h2.6V1078.9z"/>
	<path class="st2" d="M300.1,1078.9V1068h2.4l0.2,1.6c0.4-0.5,0.9-1,1.5-1.3c0.6-0.3,1.3-0.5,2-0.5c1.2,0,2.2,0.4,2.8,1.1
		c0.7,0.7,1,1.7,1,3v7.1h-2.6v-7.1c0-1.4-0.6-2.1-1.7-2.1c-0.7,0-1.3,0.2-1.9,0.8s-1,1.1-1.2,1.8v6.7h-2.5V1078.9z"/>
	<path class="st2" d="M312.3,1070.3c0.4-0.8,1-1.5,1.8-1.9c0.8-0.5,1.6-0.7,2.5-0.7c0.7,0,1.3,0.1,1.9,0.4c0.6,0.3,1,0.7,1.4,1.1
		l0.2-1.3h2.4v10.3c0,1.7-0.5,3-1.6,3.9s-2.6,1.4-4.4,1.4c-0.8,0-1.5-0.1-2.1-0.3c-0.6-0.2-1.1-0.4-1.6-0.8v-2.4
		c0.5,0.4,1.1,0.7,1.7,1c0.6,0.2,1.3,0.3,2.1,0.3c1,0,1.8-0.3,2.5-0.8c0.6-0.5,1-1.3,1-2.2v-0.9c-0.3,0.5-0.8,0.8-1.4,1.1
		c-0.6,0.3-1.2,0.4-1.9,0.4c-0.9,0-1.8-0.2-2.5-0.7c-0.8-0.5-1.3-1.1-1.8-2c-0.4-0.8-0.7-1.8-0.7-2.9
		C311.7,1072.1,311.9,1071.1,312.3,1070.3z M314.8,1075.1c0.3,0.5,0.6,1,1.1,1.2c0.4,0.3,0.9,0.4,1.3,0.4c0.6,0,1.1-0.2,1.5-0.5
		c0.4-0.3,0.8-0.7,1.1-1.3v-3.7c-0.3-0.5-0.6-1-1.1-1.3s-1-0.5-1.6-0.5c-0.5,0-0.9,0.1-1.3,0.4s-0.8,0.7-1.1,1.2
		c-0.3,0.5-0.4,1.2-0.4,2C314.3,1073.8,314.5,1074.6,314.8,1075.1z"/>
	<path class="st2" d="M333.1,1078.9h-2.7v-15.2h9.8v2.2h-7.1v4.2h5.8v2.3h-5.8L333.1,1078.9L333.1,1078.9z"/>
	<path class="st2" d="M341.4,1073.2c0-1,0.2-2,0.7-2.8c0.5-0.9,1.1-1.5,2-2c0.8-0.5,1.8-0.7,2.8-0.7s2,0.2,2.8,0.7s1.5,1.2,2,2
		c0.5,0.9,0.7,1.8,0.7,2.8v0.3c0,1.1-0.2,2-0.7,2.9c-0.5,0.8-1.1,1.5-2,2c-0.8,0.5-1.8,0.7-2.8,0.7s-2-0.2-2.8-0.7s-1.5-1.2-2-2
		c-0.5-0.9-0.7-1.8-0.7-2.9V1073.2z M344.1,1073.6c0,1,0.2,1.9,0.7,2.6s1.2,1,2.1,1s1.6-0.3,2.1-1s0.7-1.5,0.7-2.6v-0.3
		c0-1-0.2-1.9-0.7-2.6s-1.2-1-2.1-1s-1.6,0.3-2.1,1c-0.5,0.7-0.7,1.5-0.7,2.6V1073.6z"/>
	<path class="st2" d="M354.3,1078.9V1068h2.4l0.1,1.8c0.2-0.6,0.6-1.2,1.2-1.5c0.6-0.4,1.3-0.6,2.1-0.6c0.3,0,0.6,0,0.9,0.1v2.3
		c-0.3-0.1-0.6-0.2-1-0.2c-0.7,0-1.4,0.2-2,0.7c-0.6,0.4-1,1-1.2,1.7v6.6L354.3,1078.9L354.3,1078.9z"/>
	<path class="st2" d="M361.6,1073.2c0-1.1,0.2-2,0.6-2.8s1-1.5,1.8-2s1.7-0.7,2.7-0.7c1.6,0,2.8,0.5,3.7,1.5c0.9,1,1.3,2.4,1.3,4.2
		v1h-7.6c0.1,0.9,0.4,1.6,0.9,2.1s1.3,0.8,2.2,0.8c0.7,0,1.4-0.1,2-0.4c0.6-0.3,1.2-0.7,1.8-1.3v2.5c-0.5,0.4-1.1,0.7-1.7,0.9
		c-0.7,0.2-1.4,0.3-2.2,0.3c-1.2,0-2.2-0.2-3-0.7s-1.5-1.1-1.9-2s-0.6-1.8-0.6-2.9L361.6,1073.2L361.6,1073.2z M369.2,1072.3
		c0-0.9-0.2-1.5-0.7-2c-0.4-0.5-1-0.7-1.8-0.7c-0.7,0-1.3,0.3-1.8,0.8s-0.8,1.2-0.8,2L369.2,1072.3L369.2,1072.3z"/>
	<path class="st2" d="M373.4,1075.4c0.4,0.5,0.9,1,1.5,1.3c0.6,0.3,1.2,0.4,1.9,0.4c0.7,0,1.1-0.1,1.4-0.3s0.5-0.5,0.5-0.9
		c0-0.3-0.1-0.5-0.3-0.7c-0.2-0.2-0.6-0.4-1.1-0.6l-1.1-0.4c-0.9-0.4-1.7-0.8-2.1-1.3c-0.5-0.5-0.7-1.2-0.7-2c0-0.6,0.1-1.1,0.4-1.6
		s0.7-0.9,1.3-1.2c0.6-0.3,1.3-0.4,2.2-0.4c0.6,0,1.3,0.1,1.9,0.3s1.1,0.5,1.5,0.8v2.5c-0.5-0.5-1.1-1-1.6-1.2
		c-0.6-0.3-1.1-0.4-1.7-0.4c-0.5,0-0.9,0.1-1.2,0.3c-0.2,0.2-0.3,0.4-0.3,0.7s0.1,0.5,0.3,0.7c0.2,0.2,0.6,0.4,1.2,0.6l1.1,0.4
		c1,0.4,1.7,0.8,2.1,1.3s0.7,1.2,0.7,2c0,1.1-0.4,2-1.2,2.6s-1.9,0.9-3.2,0.9c-0.7,0-1.3-0.1-1.9-0.3c-0.6-0.2-1.1-0.5-1.5-0.9
		L373.4,1075.4L373.4,1075.4z"/>
	<path class="st2" d="M384.3,1069.9h-2.4v-2h2.4v-3.3h2.6v3.3h2.4v2h-2.4v8.9h-2.6V1069.9z"/>
</g>
</svg>
