<?xml version="1.0" standalone="no"?><!DOCTYPE svg PUBLIC "-//W3C//DTD SVG 1.1//EN" "http://www.w3.org/Graphics/SVG/1.1/DTD/svg11.dtd"><svg xmlns="http://www.w3.org/2000/svg" version="1.1" width="517px" height="65.7px" viewBox="0 -7 517 65.7" style="top:-7px"><desc>텍스트 B</desc><defs/><g id="Polygon11368"><path d="m.8 16.8v-1.9S5.66 9.96 5.7 10c.6-.7 1.1-1.3 1.4-1.9c.3-.5.4-1.1.4-1.7c0-.8-.2-1.4-.7-1.8c-.4-.5-1-.7-1.8-.7c-.8 0-1.5.2-2.1.5c-.6.4-1.1.9-1.6 1.6v-3c.5-.4 1.1-.7 1.7-1c.7-.2 1.5-.4 2.3-.4c1.1 0 2 .2 2.7.6c.8.5 1.4 1 1.8 1.7c.4.7.6 1.5.6 2.4c0 1-.3 2-.8 2.8c-.4.7-1.1 1.6-2.1 2.6c.02-.04-2.9 2.9-2.9 2.9h6.2v2.2h-10zm11.7-7.7c0-2.2.5-4.1 1.4-5.4c1-1.4 2.5-2.1 4.5-2.1c1.9 0 3.4.7 4.4 2.1c1 1.3 1.5 3.2 1.5 5.4v.4c0 2.3-.5 4.1-1.5 5.5c-1 1.3-2.5 2-4.4 2c-2 0-3.5-.7-4.5-2c-.9-1.4-1.4-3.2-1.4-5.5v-.4zm2.8.4c0 1.7.3 3 .8 3.9c.5 1 1.3 1.5 2.3 1.5c1 0 1.8-.5 2.3-1.5c.5-.9.7-2.2.7-3.9v-.4c0-1.6-.2-2.9-.7-3.9c-.5-.9-1.3-1.4-2.3-1.4c-1 0-1.8.5-2.3 1.4c-.5 1-.8 2.3-.8 3.9v.4zm16.9 1.6h-6V8.8h6v2.3zm4.9-6.9h-2.6V1.5h2.6v2.7zm0 12.6h-2.6V5.9h2.6v10.9zm2.6 0V5.9h2.4l.2 1.6c.4-.6.9-1 1.5-1.4c.6-.3 1.2-.5 2-.5c1.2 0 2.1.4 2.8 1.1c.7.7 1 1.7 1 3c.02-.02 0 7.1 0 7.1H47s.04-7.12 0-7.1c0-1.4-.5-2.1-1.6-2.1c-.7 0-1.3.3-1.9.8c-.6.5-1 1.1-1.2 1.8v6.6h-2.6zm11.6-5.6c0-1 .3-2 .7-2.8c.5-.9 1.2-1.5 2.1-2c.9-.5 1.9-.8 3-.8c.6 0 1.2.1 1.8.3c.5.2 1 .4 1.4.7v2.6c-.4-.5-.8-.9-1.4-1.2c-.5-.2-1-.4-1.6-.4c-.6 0-1.1.2-1.6.5c-.5.3-.9.7-1.2 1.2c-.3.6-.5 1.2-.5 1.9v.4c0 .6.2 1.2.5 1.8c.3.5.7.9 1.2 1.2c.5.3 1 .5 1.6.5c1.1 0 2.1-.5 3-1.5v2.5c-.4.3-.9.6-1.4.7c-.5.2-1.2.3-1.9.3c-1.1 0-2.1-.2-2.9-.7c-.9-.5-1.6-1.2-2.1-2c-.4-.9-.7-1.8-.7-2.8v-.4zm11 5.6V1.5h2.6s-.04 5.98 0 6c.3-.6.8-1 1.4-1.4c.6-.3 1.3-.5 2-.5c1.3 0 2.2.4 2.9 1.1c.6.7 1 1.7 1 3c-.02-.02 0 7.1 0 7.1h-2.6V9.7c0-1.4-.6-2.1-1.7-2.1c-.6 0-1.3.3-1.8.8c-.6.5-1 1.1-1.2 1.8c-.04-.04 0 6.6 0 6.6h-2.6zm18.9 0h-2.6l5.8-15.2h3l5.8 15.2h-2.9l-1.6-4.1h-5.9l-1.6 4.1zm4.5-12.2l-2.1 5.9h4.3l-2.2-5.9zm11.5 12.2h-2.6V1.5h2.6v15.3zm5.1 0h-2.5V1.5h2.5v15.3zm1.9-5.6c0-1.1.3-2 .7-2.9c.5-.8 1.2-1.5 2-2c.8-.5 1.8-.7 2.8-.7c1.1 0 2 .2 2.8.7c.9.5 1.5 1.2 2 2c.5.9.7 1.8.7 2.9v.3c0 1.1-.2 2-.7 2.9c-.5.8-1.1 1.5-2 2c-.8.5-1.7.7-2.8.7c-1 0-2-.2-2.8-.7c-.8-.5-1.5-1.2-2-2c-.4-.9-.7-1.8-.7-2.9v-.3zm2.7.3c0 1.1.3 1.9.8 2.6c.5.7 1.1 1 2 1c.9 0 1.6-.3 2.1-1c.5-.7.7-1.5.7-2.6v-.3c0-1-.2-1.9-.7-2.6c-.5-.7-1.2-1-2.1-1c-.9 0-1.5.3-2 1c-.5.7-.8 1.6-.8 2.6v.3zm13.1 5.3l-4.3-10.9h2.8l2.8 7.8l3-7.8h2.4l-6.1 15.3H118l2-4.4zm15.1-15.2h-2.9l3.9 15.2h3.2l2.8-11.4l2.9 11.4h3.2L152 1.6h-2.4l-2.9 11.7l-2.8-11.7h-3.2l-2.9 11.7l-2.7-11.7zm18.4 15.2V1.5h2.6v6c.4-.6.9-1 1.5-1.4c.6-.3 1.2-.5 2-.5c1.2 0 2.1.4 2.8 1.1c.7.7 1 1.7 1 3c.02-.02 0 7.1 0 7.1h-2.6s.04-7.12 0-7.1c0-1.4-.5-2.1-1.6-2.1c-.7 0-1.3.3-1.9.8c-.6.5-1 1.1-1.2 1.8v6.6h-2.6zm11.5-5.7c0-1 .2-2 .7-2.8c.4-.9 1-1.5 1.8-2c.8-.5 1.7-.7 2.7-.7c1.6 0 2.8.5 3.7 1.5c.8 1 1.3 2.4 1.3 4.2c-.02-.04 0 1 0 1c0 0-7.64-.04-7.6 0c.1.9.4 1.6.9 2.1c.5.5 1.3.7 2.2.7c.7 0 1.3-.1 1.9-.3c.7-.3 1.3-.7 1.8-1.3v2.4c-.4.4-1 .7-1.7.9c-.7.2-1.4.3-2.1.3c-1.2 0-2.2-.2-3.1-.7c-.8-.5-1.4-1.1-1.8-2c-.5-.8-.7-1.8-.7-2.9v-.4zm7.6-.8c0-.9-.2-1.5-.7-2c-.4-.5-1-.8-1.7-.8c-.7 0-1.3.3-1.8.8c-.5.5-.8 1.2-.8 2h5zm3.7.8c0-1 .2-2 .6-2.8c.5-.9 1.1-1.5 1.8-2c.8-.5 1.7-.7 2.7-.7c1.6 0 2.9.5 3.7 1.5c.9 1 1.3 2.4 1.3 4.2c.04-.04 0 1 0 1c0 0-7.58-.04-7.6 0c.1.9.4 1.6 1 2.1c.5.5 1.2.7 2.1.7c.7 0 1.4-.1 2-.3c.6-.3 1.2-.7 1.8-1.3v2.4c-.5.4-1.1.7-1.7.9c-.7.2-1.4.3-2.2.3c-1.2 0-2.2-.2-3-.7c-.8-.5-1.5-1.1-1.9-2c-.4-.8-.6-1.8-.6-2.9v-.4zm7.6-.8c0-.9-.2-1.5-.7-2c-.4-.5-1-.8-1.8-.8c-.7 0-1.3.3-1.8.8c-.4.5-.7 1.2-.8 2h5.1zm7 6.5h-2.6V1.5h2.6v15.3zm2.3-3.4c.5.5 1 1 1.6 1.3c.6.3 1.2.4 1.9.4c.6 0 1.1-.1 1.4-.3c.3-.3.5-.6.5-.9c0-.3-.1-.6-.3-.8c-.2-.2-.6-.4-1.1-.6l-1.1-.4c-1-.3-1.7-.8-2.2-1.3c-.4-.5-.7-1.2-.7-2c0-.6.2-1.1.5-1.6c.3-.5.7-.9 1.3-1.2c.6-.3 1.3-.4 2.2-.4c.6 0 1.2.1 1.8.3c.6.3 1.1.5 1.5.8v2.5c-.5-.5-1-.9-1.6-1.2c-.6-.3-1.1-.4-1.7-.4c-.5 0-.9.1-1.2.3c-.2.2-.3.5-.3.7c0 .3.1.5.3.7c.2.2.6.3 1.2.6l1.1.4c.9.3 1.6.8 2.1 1.3c.4.6.7 1.2.7 2c0 1.1-.4 2-1.3 2.6c-.8.6-1.8.9-3.2.9c-.6 0-1.3-.1-1.9-.3c-.6-.2-1.1-.5-1.5-.9v-2.5z" stroke="none" fill="#fff"/></g></svg>