<?xml version="1.0" standalone="no"?><!DOCTYPE svg PUBLIC "-//W3C//DTD SVG 1.1//EN" "http://www.w3.org/Graphics/SVG/1.1/DTD/svg11.dtd"><svg xmlns="http://www.w3.org/2000/svg" version="1.1" width="215px" height="36.5px" viewBox="0 -1 215 36.5" style="top:-1px"><desc>텍스트 B</desc><defs/><g id="Polygon11673"><path d="m55.1 20.7h-1.4V9.3h6.9v1.1h-5.5v4h4.6v1.1h-4.6v5.2zm9.6 0V9.3s4.09-.04 4.1 0c.7 0 1.4.1 2 .4c.5.2 1 .6 1.3 1.1c.3.5.5 1 .5 1.6v.3c0 .8-.3 1.5-.9 2.1c-.6.6-1.3.9-2.3 1l3.8 4.9h-1.8l-3.7-4.9H66v4.9h-1.3zm3.9-6c.8 0 1.4-.2 1.9-.6c.4-.3.6-.8.6-1.5v-.2c0-.6-.2-1.1-.6-1.5c-.5-.3-1.1-.5-1.9-.5c.04-.02-2.6 0-2.6 0v4.3h2.6zm7.9.1c0-1.1.2-2.1.6-3c.4-.9 1.1-1.5 1.9-2c.8-.5 1.7-.8 2.7-.8c1.1 0 2 .3 2.8.8c.8.5 1.4 1.1 1.8 2c.5.9.7 1.9.7 3v.3c0 1.1-.2 2.1-.7 3c-.4.9-1 1.5-1.8 2c-.8.5-1.7.8-2.8.8c-1 0-1.9-.3-2.7-.8c-.8-.5-1.5-1.1-1.9-2c-.4-.9-.6-1.9-.6-3v-.3zm1.4.3c0 .9.2 1.7.5 2.4c.3.7.7 1.3 1.3 1.7c.6.4 1.2.6 2 .6c.8 0 1.4-.2 2-.6c.6-.4 1-1 1.3-1.7c.3-.7.5-1.5.5-2.4v-.3c0-.9-.2-1.7-.5-2.4c-.3-.7-.7-1.3-1.3-1.7c-.6-.3-1.2-.5-2-.5c-.8 0-1.4.2-2 .5c-.6.4-1 1-1.3 1.7c-.3.7-.5 1.5-.5 2.4v.3zm12.7 2.8c.4.6.9 1 1.5 1.3c.5.4 1.2.6 1.8.6c.5 0 .9-.1 1.3-.3c.4-.2.6-.4.8-.7c.2-.3.3-.7.3-1c0-.4-.2-.8-.4-1.2c-.3-.3-.8-.6-1.3-.9l-1.6-.9c-.7-.3-1.3-.7-1.6-1.2c-.4-.5-.6-1-.6-1.7c0-.5.1-1 .4-1.5c.3-.4.7-.7 1.2-1c.5-.2 1.1-.4 1.8-.4c.5 0 1.1.2 1.7.4c.5.2 1 .5 1.4.9v1.6c-.4-.5-.9-.9-1.5-1.3c-.5-.3-1.1-.4-1.6-.4c-.6 0-1.1.1-1.4.4c-.4.3-.6.7-.6 1.2c0 .4.2.7.4 1c.3.3.7.6 1.3.9l1.5.8c.8.4 1.4.9 1.8 1.4c.3.5.5 1.1.5 1.9c0 .6-.1 1.1-.4 1.6c-.3.5-.8.8-1.4 1.1c-.5.3-1.2.4-2 .4c-.7 0-1.3-.1-1.9-.4c-.6-.2-1-.5-1.4-.9v-1.7zm13.8-7.5h-3.5V9.3h8.3v1.1h-3.4v10.3h-1.4V10.4zm20.7 4.3c.7.2 1.2.5 1.6 1c.4.4.7 1 .7 1.7v.2c0 .6-.2 1.2-.5 1.6c-.3.5-.8.9-1.3 1.1c-.6.2-1.2.4-1.9.4c-.02-.04-4.3 0-4.3 0V9.3s4.07-.04 4.1 0c.6 0 1.2.1 1.7.3c.6.3 1 .6 1.2 1.1c.3.4.5.9.5 1.5v.1c0 .6-.2 1.1-.5 1.5c-.3.4-.7.7-1.3.9zm-4.3-4.3v3.8s2.47.02 2.5 0c.6 0 1.1-.1 1.5-.5c.4-.3.6-.8.6-1.3v-.2c0-.5-.2-.9-.6-1.3c-.4-.3-.9-.5-1.5-.5h-2.5zm5.1 7c0-.7-.2-1.1-.7-1.5c-.5-.4-1-.5-1.7-.5c-.02-.04-2.7 0-2.7 0v4.1s2.68.02 2.7 0c.7 0 1.2-.2 1.7-.5c.5-.3.7-.8.7-1.4v-.2zm12.3 3.3h-6.7V9.3h1.4v10.2h5.3v1.2zm3.2-11.4h1.4v7.1c0 1.1.3 1.9.8 2.5c.5.6 1.3.8 2.3.8c.9 0 1.7-.2 2.2-.8c.5-.6.8-1.4.8-2.5c-.02.04 0-7.1 0-7.1h1.3s-.02 7.2 0 7.2c0 .9-.2 1.6-.5 2.3c-.4.6-.9 1.1-1.6 1.5c-.6.4-1.4.6-2.3.6c-.9 0-1.7-.2-2.4-.6c-.6-.4-1.1-.9-1.5-1.5c-.3-.7-.5-1.4-.5-2.3c-.01 0 0-7.2 0-7.2zm20.3 11.4h-6.9V9.3h6.8v1.1h-5.4v3.8h4.6v1.2h-4.6v4.1h5.5v1.2z" stroke="none" fill="#05141f"/></g></svg>