<?xml version="1.0" standalone="no"?><!DOCTYPE svg PUBLIC "-//W3C//DTD SVG 1.1//EN" "http://www.w3.org/Graphics/SVG/1.1/DTD/svg11.dtd"><svg xmlns="http://www.w3.org/2000/svg" version="1.1" width="517px" height="133.2px" viewBox="0 -6 517 133.2" style="top:-6px"><desc>텍스트 B</desc><defs/><g id="Polygon12861"><path d="m1.1 108.7c.8 1 1.8 1.5 3.1 1.5c.7 0 1.2-.2 1.6-.4c.3-.3.5-.7.5-1.1c0-.4-.1-.7-.3-.9c-.2-.3-.6-.5-1.1-.7l-1.4-.6c-.8-.3-1.4-.7-1.7-1.1c-.4-.5-.6-1-.6-1.7c0-.4.1-.9.4-1.3c.2-.4.6-.7 1.1-.9c.5-.3 1.1-.4 1.8-.4c.6 0 1.1.1 1.7.3c.5.2.9.5 1.3.8v1.7c-.4-.5-.9-.9-1.4-1.2c-.6-.2-1.1-.3-1.6-.3c-.6 0-1 .1-1.3.4c-.3.2-.5.5-.5.9c0 .3.2.6.4.8c.2.2.6.4 1.2.6l1.3.5c.8.4 1.4.8 1.7 1.2c.4.5.6 1.1.6 1.8c0 .9-.3 1.6-1 2.1c-.7.5-1.6.8-2.7.8c-.7 0-1.3-.1-1.8-.3c-.5-.2-1-.5-1.3-.8v-1.7zm9.7-6.1H8.6v-1.2h2.2v-3h1.5v3h2.2v1.2h-2.2v8.6h-1.5v-8.6zm4.4 6c0-.7.2-1.2.5-1.7c.3-.4.8-.7 1.3-.9c.6-.3 1.4-.5 2.3-.7l2.5-.4c0-.9-.2-1.5-.7-1.9c-.4-.5-1-.7-1.9-.7c-.6 0-1.2.2-1.8.5c-.5.3-1 .6-1.4 1.1v-1.5c.4-.4.9-.7 1.4-.9c.6-.3 1.3-.4 1.9-.4c1.3 0 2.3.3 3 .9c.7.7 1.1 1.6 1.1 2.9c-.02-.04 0 6.3 0 6.3h-1.3s-.25-1.52-.2-1.5c-.5.5-1 1-1.7 1.3c-.6.3-1.3.5-2 .5c-.9 0-1.6-.3-2.2-.8c-.5-.5-.8-1.2-.8-2.1zm1.6-.1c0 .6.2 1 .5 1.2c.3.3.7.5 1.2.5c.6 0 1.2-.2 1.9-.6c.6-.4 1.1-.9 1.4-1.6c.02.01 0-1.9 0-1.9c0 0-1.62.32-1.6.3c-.9.2-1.6.3-2.1.5c-.4.1-.7.3-1 .6c-.2.3-.3.6-.3 1zm10-5.9h-2.2v-1.2h2.2v-3h1.6v3h2.2v1.2h-2.2v8.6h-1.6v-8.6zm4.4 3.4c0-.9.2-1.8.6-2.5c.4-.8.9-1.4 1.5-1.8c.7-.4 1.5-.6 2.3-.6c1.4 0 2.4.4 3.1 1.3c.8.9 1.2 2.1 1.2 3.8c-.03-.05 0 .6 0 .6h-7.1c.1 1 .4 1.8.9 2.4c.5.7 1.2 1 2.1 1c1.4 0 2.6-.5 3.5-1.5v1.6c-.4.4-.9.7-1.5.9c-.5.2-1.2.3-2 .3c-.9 0-1.7-.2-2.4-.7c-.7-.4-1.3-1-1.6-1.7c-.4-.8-.6-1.7-.6-2.7v-.4zm7.1-.4c0-1.1-.3-1.9-.8-2.4c-.4-.6-1.1-.8-1.8-.8c-.5 0-1 .1-1.4.3c-.4.3-.8.7-1 1.2c-.3.4-.4 1-.5 1.7h5.5zm9.8 5.6l-2.8-9.8h1.6l2.2 8l2.2-8h2l2.1 8l2.3-8h1.4l-2.8 9.8h-1.9l-2.2-8.1l-2.2 8.1h-1.9zm12.5 0V97.4h1.6s-.03 5.91 0 5.9c.3-.6.8-1.1 1.4-1.6c.6-.4 1.3-.6 2-.6c1.1 0 1.9.3 2.4.9c.6.7.9 1.6.9 2.7c-.03.03 0 6.5 0 6.5h-1.6s-.02-6.34 0-6.3c0-.9-.2-1.5-.4-1.9c-.3-.4-.8-.6-1.5-.6c-.4 0-.9.1-1.3.4c-.5.3-.9.6-1.2 1.1c-.4.4-.6.9-.7 1.4c-.03.04 0 5.9 0 5.9h-1.6zm10-5.2c0-.9.1-1.8.5-2.5c.4-.8.9-1.4 1.6-1.8c.6-.4 1.4-.6 2.3-.6c1.3 0 2.3.4 3.1 1.3c.7.9 1.1 2.1 1.1 3.8v.6h-7.1c.1 1 .4 1.8.9 2.4c.6.7 1.3 1 2.2 1c1.3 0 2.5-.5 3.4-1.5v1.6c-.4.4-.9.7-1.4.9c-.6.2-1.3.3-2 .3c-1 0-1.8-.2-2.5-.7c-.7-.4-1.2-1-1.6-1.7c-.4-.8-.5-1.7-.5-2.7v-.4zm7-.4c0-1.1-.2-1.9-.7-2.4c-.5-.6-1.1-.8-1.9-.8c-.5 0-1 .1-1.4.3c-.4.3-.7.7-1 1.2c-.3.4-.4 1-.4 1.7h5.4zm3.5 5.6v-9.8h1.4s.17 1.94.2 1.9c.3-.6.8-1.1 1.4-1.5c.6-.5 1.3-.7 2.1-.7c1 0 1.8.3 2.4.9c.5.7.8 1.6.8 2.7v6.5h-1.6v-6.3c0-.9-.1-1.5-.4-1.9c-.3-.4-.8-.6-1.5-.6c-.4 0-.9.1-1.3.4c-.5.3-.9.7-1.2 1.1c-.3.5-.6 1-.7 1.5v5.8h-1.6zm16.3-8.6h-2.1v-1.2h2.1v-3h1.6v3h2.2v1.2H99v8.6h-1.6v-8.6zm4.4 3.5c0-.9.2-1.8.6-2.6c.3-.8.9-1.4 1.6-1.8c.7-.4 1.5-.6 2.4-.6c.9 0 1.7.2 2.4.6c.7.4 1.2 1 1.6 1.8c.4.8.6 1.7.6 2.6v.3c0 1-.2 1.9-.6 2.7c-.4.7-.9 1.3-1.6 1.7c-.7.5-1.5.7-2.4.7c-.9 0-1.7-.2-2.4-.7c-.7-.4-1.3-1-1.6-1.7c-.4-.8-.6-1.7-.6-2.7v-.3zm1.6.3c0 1.2.3 2.1.8 2.8c.5.7 1.3 1 2.2 1c.9 0 1.6-.3 2.2-1c.5-.7.7-1.6.7-2.8v-.3c0-1.1-.2-2-.7-2.7c-.6-.7-1.3-1-2.2-1c-.9 0-1.7.3-2.2 1c-.5.7-.8 1.6-.8 2.7v.3zm9.3 1.4c0 1.2.3 2.1.8 2.7c.6.6 1.4 1 2.4 1c.8 0 1.5-.3 2.1-.7c.6-.4 1.1-1 1.4-1.6c.03.01.2 2 .2 2h1.4v-9.8h-1.6v5.8c-.1.5-.4 1-.7 1.4c-.3.5-.7.9-1.2 1.2c-.4.2-.9.4-1.3.4c-.7 0-1.2-.2-1.5-.6c-.3-.5-.4-1.1-.4-1.9v-6.3h-1.6v6.4zm10.2-1.7c0-1 .2-1.8.6-2.6c.4-.7 1-1.3 1.7-1.8c.7-.4 1.6-.6 2.5-.6c.5 0 1.1.1 1.6.3c.5.2.9.5 1.3.8v1.7c-.4-.5-.8-.9-1.3-1.2c-.5-.2-1-.3-1.6-.3c-.6 0-1.1.1-1.6.4c-.5.4-.9.8-1.1 1.4c-.3.5-.5 1.2-.5 1.9v.3c0 .7.2 1.4.5 2c.2.5.6 1 1.1 1.3c.5.3 1 .5 1.6.5c1.1 0 2.1-.5 2.9-1.5v1.7c-.4.3-.8.6-1.3.8c-.5.2-1.1.3-1.6.3c-.9 0-1.8-.3-2.5-.7c-.7-.4-1.3-1-1.7-1.8c-.4-.8-.6-1.6-.6-2.6v-.3zm9.7 5.1V97.4h1.6s-.05 5.91 0 5.9c.3-.6.8-1.1 1.4-1.6c.6-.4 1.3-.6 2-.6c1.1 0 1.9.3 2.4.9c.6.7.8 1.6.8 2.7c.05.03 0 6.5 0 6.5h-1.5s-.04-6.34 0-6.3c0-.9-.2-1.5-.5-1.9c-.3-.4-.7-.6-1.4-.6c-.5 0-.9.1-1.3.4c-.5.3-.9.6-1.2 1.1c-.4.4-.6.9-.7 1.4c-.05.04 0 5.9 0 5.9h-1.6zm9.9-5.2c0-.9.2-1.8.6-2.5c.4-.8.9-1.4 1.6-1.8c.6-.4 1.4-.6 2.3-.6c1.3 0 2.3.4 3.1 1.3c.7.9 1.1 2.1 1.1 3.8c-.02-.05 0 .6 0 .6h-7.1c.1 1 .4 1.8.9 2.4c.5.7 1.2 1 2.1 1c1.4 0 2.6-.5 3.5-1.5v1.6c-.4.4-.9.7-1.4.9c-.6.2-1.3.3-2.1.3c-.9 0-1.7-.2-2.4-.7c-.7-.4-1.2-1-1.6-1.7c-.4-.8-.6-1.7-.6-2.7v-.4zm7.1-.4c0-1.1-.3-1.9-.7-2.4c-.5-.6-1.2-.8-1.9-.8c-.5 0-1 .1-1.4.3c-.4.3-.8.7-1 1.2c-.3.4-.4 1-.5 1.7h5.5zm2.8.7c0-1.1.2-2 .5-2.8c.4-.7.9-1.3 1.6-1.8c.7-.4 1.4-.6 2.2-.6c.6 0 1.2.2 1.8.5c.5.3 1 .7 1.4 1.2c-.04.02 0-5.4 0-5.4h1.5v13.8H160s-.13-1.54-.1-1.5c-.4.5-.8.9-1.4 1.3c-.5.3-1.1.5-1.8.5c-.8 0-1.5-.3-2.2-.7c-.7-.4-1.2-1-1.6-1.8c-.3-.8-.5-1.7-.5-2.7zm1.6 0c0 .8.2 1.5.4 2.1c.3.6.6 1 1.1 1.3c.4.3.9.5 1.5.5c.6 0 1.1-.2 1.7-.7c.5-.4.9-1 1.2-1.6v-3.2c-.3-.7-.7-1.3-1.2-1.7c-.6-.4-1.1-.6-1.7-.6c-.6 0-1.1.1-1.5.4c-.5.3-.8.8-1.1 1.4c-.2.6-.4 1.3-.4 2.1zm11.8 4.9h-2.1v-2.3h2.1v2.3z" stroke="none" fill="#fff"/></g><g id="Polygon12860"><path d="m3.1 79.2H1.5V65.4h1.6v8.3l4.5-4.3h2l-5 4.7l5.4 5.1H7.7l-4.6-4.5v4.5zM10 74c0-.9.2-1.8.6-2.5c.3-.8.9-1.4 1.5-1.8c.7-.4 1.5-.6 2.3-.6c1.3 0 2.4.4 3.1 1.3c.8.9 1.1 2.1 1.1 3.8c.05-.05 0 .6 0 .6h-7c.1 1 .3 1.8.9 2.4c.5.7 1.2 1 2.1 1c1.4 0 2.6-.5 3.5-1.5v1.6c-.4.4-.9.7-1.5.9c-.5.2-1.2.3-2 .3c-.9 0-1.8-.2-2.5-.7c-.6-.4-1.2-1-1.5-1.7c-.4-.8-.6-1.7-.6-2.7v-.4zm7.1-.4c0-1.1-.3-1.9-.8-2.4c-.5-.6-1.1-.8-1.9-.8c-.5 0-.9.1-1.3.3c-.5.3-.8.7-1 1.2c-.3.4-.5 1-.5 1.7h5.5zm6.2 5.6l-3.9-9.8h1.7l3 7.8l3-7.8h1.7l-5.5 13.8h-1.7l1.7-4zm6.4 2.2h-1.3l.8-4.6h2.1l-1.6 4.6zm8.1-4.7c.8 1 1.8 1.5 3.1 1.5c.7 0 1.2-.2 1.6-.4c.3-.3.5-.7.5-1.1c0-.4-.1-.7-.3-.9c-.2-.3-.6-.5-1.1-.7l-1.4-.6c-.8-.3-1.4-.7-1.7-1.1c-.4-.5-.6-1-.6-1.7c0-.4.1-.9.4-1.3c.2-.4.6-.7 1.1-.9c.5-.3 1.1-.4 1.8-.4c.6 0 1.1.1 1.7.3c.5.2.9.5 1.3.8v1.7c-.4-.5-.9-.9-1.4-1.2c-.5-.2-1.1-.3-1.6-.3c-.6 0-1 .1-1.3.4c-.3.2-.5.5-.5.9c0 .3.2.6.4.8c.2.2.6.4 1.2.6l1.3.5c.8.4 1.4.8 1.7 1.2c.4.5.6 1.1.6 1.8c0 .9-.3 1.6-1 2.1c-.7.5-1.6.8-2.7.8c-.7 0-1.3-.1-1.8-.3c-.5-.2-1-.5-1.3-.8v-1.7zm8.7 2.5v-9.8h1.4s.14 1.75.1 1.7c.4-.6.9-1.1 1.4-1.4c.5-.4 1.2-.6 1.9-.6c.7 0 1.2.2 1.7.6c.5.3.8.9 1 1.6c.4-.7.9-1.2 1.4-1.6c.6-.4 1.2-.6 1.9-.6c.9 0 1.7.3 2.2.9c.5.6.8 1.4.8 2.5c-.02.01 0 6.7 0 6.7h-1.6v-6.6c0-.7-.1-1.3-.4-1.7c-.2-.4-.7-.5-1.3-.5c-.3 0-.7.1-1.1.3c-.4.3-.8.6-1.1 1c-.3.4-.5.8-.6 1.3c-.02-.02 0 6.2 0 6.2h-1.6v-6.6c0-.8-.1-1.3-.4-1.7c-.2-.4-.7-.5-1.3-.5c-.3 0-.7.1-1.1.3c-.4.3-.7.6-1 1c-.3.4-.6.8-.7 1.3v6.2h-1.6zM62 76.6c0-.7.2-1.2.5-1.7c.3-.4.7-.7 1.3-.9c.6-.3 1.3-.5 2.3-.7l2.5-.4c0-.9-.3-1.5-.7-1.9c-.4-.5-1.1-.7-1.9-.7c-.7 0-1.2.2-1.8.5c-.6.3-1 .6-1.4 1.1v-1.5c.4-.4.8-.7 1.4-.9c.6-.3 1.2-.4 1.9-.4c1.3 0 2.3.3 3 .9c.7.7 1.1 1.6 1.1 2.9c-.04-.04 0 6.3 0 6.3h-1.3s-.27-1.52-.3-1.5c-.4.5-1 1-1.6 1.3c-.6.3-1.3.5-2 .5c-.9 0-1.6-.3-2.2-.8c-.5-.5-.8-1.2-.8-2.1zm1.6-.1c0 .6.1 1 .5 1.2c.3.3.7.5 1.2.5c.6 0 1.2-.2 1.8-.6c.7-.4 1.1-.9 1.5-1.6v-1.9s-1.64.32-1.6.3c-.9.2-1.6.3-2.1.5c-.4.1-.8.3-1 .6c-.2.3-.3.6-.3 1zm9 2.7v-9.8h1.5s.08 1.67.1 1.7c.3-.6.6-1.1 1.1-1.5c.5-.3 1.1-.5 1.8-.5h.5c.2.1.3.1.4.1v1.4c-.2-.1-.6-.1-1-.1c-.6 0-1.2.2-1.7.6c-.5.4-.9 1-1.1 1.7v6.4h-1.6zm8.3-8.6h-2.2v-1.2h2.2v-3h1.6v3h2.2v1.2h-2.2v8.6h-1.6v-8.6zm7.2 8.6l-2.8-9.8h1.6l2.2 8l2.1-8h2l2.2 8l2.2-8h1.5l-2.8 9.8h-1.9l-2.2-8.1l-2.2 8.1h-1.9zm11.7-2.6c0-.7.2-1.2.6-1.7c.3-.4.7-.7 1.3-.9c.5-.3 1.3-.5 2.3-.7l2.4-.4c0-.9-.2-1.5-.6-1.9c-.5-.5-1.1-.7-2-.7c-.6 0-1.2.2-1.8.5c-.5.3-1 .6-1.4 1.1v-1.5c.4-.4.9-.7 1.5-.9c.5-.3 1.2-.4 1.9-.4c1.2 0 2.2.3 2.9.9c.8.7 1.1 1.6 1.1 2.9c.02-.04 0 6.3 0 6.3h-1.2l-.3-1.5c-.5.5-1 1-1.6 1.3c-.6.3-1.3.5-2 .5c-1 0-1.7-.3-2.2-.8c-.6-.5-.9-1.2-.9-2.1zm1.6-.1c0 .6.2 1 .5 1.2c.3.3.7.5 1.3.5c.6 0 1.2-.2 1.8-.6c.6-.4 1.1-.9 1.5-1.6c-.05.01 0-1.9 0-1.9c0 0-1.69.32-1.7.3c-.9.2-1.6.3-2 .5c-.5.1-.8.3-1 .6c-.2.3-.4.6-.4 1zm10-5.9h-2.1v-1.2h2.1v-3h1.6v3h2.2v1.2H113v8.6h-1.6v-8.6zm4.5 3.5c0-1 .2-1.8.6-2.6c.4-.7 1-1.3 1.7-1.8c.7-.4 1.6-.6 2.5-.6c.5 0 1.1.1 1.6.3c.5.2.9.5 1.3.8v1.7c-.4-.5-.8-.9-1.3-1.2c-.5-.2-1-.3-1.6-.3c-.6 0-1.1.1-1.6.4c-.5.4-.9.8-1.1 1.4c-.3.5-.5 1.2-.5 1.9v.3c0 .7.2 1.4.5 2c.2.5.6 1 1.1 1.3c.5.3 1 .5 1.6.5c1.1 0 2.1-.5 2.9-1.5v1.7c-.4.3-.8.6-1.3.8c-.5.2-1.1.3-1.6.3c-.9 0-1.8-.3-2.5-.7c-.7-.4-1.3-1-1.7-1.8c-.4-.8-.6-1.6-.6-2.6v-.3zm9.7 5.1V65.4h1.6s-.05 5.91 0 5.9c.3-.6.8-1.1 1.4-1.6c.6-.4 1.3-.6 2-.6c1.1 0 1.9.3 2.4.9c.6.7.8 1.6.8 2.7c.05.03 0 6.5 0 6.5h-1.5s-.04-6.34 0-6.3c0-.9-.2-1.5-.5-1.9c-.3-.4-.7-.6-1.4-.6c-.5 0-.9.1-1.4.4c-.4.3-.8.6-1.1 1.1c-.4.4-.6.9-.7 1.4c-.05.04 0 5.9 0 5.9h-1.6zm14.6-5.1c0-.9.2-1.8.6-2.6c.4-.8 1-1.4 1.7-1.8c.7-.4 1.5-.6 2.3-.6c.9 0 1.7.2 2.4.6c.7.4 1.3 1 1.7 1.8c.4.8.6 1.7.6 2.6v.3c0 1-.2 1.9-.6 2.7c-.4.7-1 1.3-1.7 1.7c-.7.5-1.5.7-2.4.7c-.8 0-1.6-.2-2.3-.7c-.7-.4-1.3-1-1.7-1.7c-.4-.8-.6-1.7-.6-2.7v-.3zm1.7.3c0 1.2.3 2.1.8 2.8c.5.7 1.2 1 2.1 1c1 0 1.7-.3 2.2-1c.6-.7.8-1.6.8-2.8v-.3c0-1.1-.2-2-.8-2.7c-.5-.7-1.2-1-2.2-1c-.9 0-1.6.3-2.1 1c-.5.7-.8 1.6-.8 2.7v.3zm9.5 4.8v-9.8h1.4s.11 1.67.1 1.7c.3-.6.7-1.1 1.2-1.5c.5-.3 1.1-.5 1.7-.5h.6c.1.1.3.1.4.1v1.4c-.3-.1-.6-.1-1-.1c-.7 0-1.2.2-1.8.6c-.5.4-.8 1-1.1 1.7c.04 0 0 6.4 0 6.4h-1.5zm11-2.5c.8 1 1.9 1.5 3.1 1.5c.7 0 1.2-.2 1.6-.4c.4-.3.6-.7.6-1.1c0-.4-.1-.7-.3-.9c-.2-.3-.6-.5-1.2-.7l-1.3-.6c-.8-.3-1.4-.7-1.8-1.1c-.4-.5-.6-1-.6-1.7c0-.4.1-.9.4-1.3c.3-.4.6-.7 1.1-.9c.5-.3 1.1-.4 1.8-.4c.6 0 1.2.1 1.7.3c.6.2 1 .5 1.4.8v1.7c-.5-.5-1-.9-1.5-1.2c-.5-.2-1-.3-1.6-.3c-.5 0-1 .1-1.3.4c-.3.2-.4.5-.4.9c0 .3.1.6.3.8c.3.2.7.4 1.2.6l1.3.5c.8.4 1.4.8 1.8 1.2c.4.5.6 1.1.6 1.8c0 .9-.4 1.6-1.1 2.1c-.7.5-1.6.8-2.7.8c-.6 0-1.2-.1-1.8-.3c-.5-.2-.9-.5-1.3-.8v-1.7zm8.8 2.5v-9.8h1.4s.09 1.75.1 1.7c.4-.6.8-1.1 1.3-1.4c.6-.4 1.2-.6 1.9-.6c.7 0 1.3.2 1.8.6c.5.3.8.9.9 1.6c.4-.7.9-1.2 1.5-1.6c.5-.4 1.2-.6 1.9-.6c.9 0 1.6.3 2.1.9c.6.6.8 1.4.8 2.5c.03.01 0 6.7 0 6.7h-1.6s.05-6.56 0-6.6c0-.7-.1-1.3-.3-1.7c-.3-.4-.7-.5-1.3-.5c-.4 0-.8.1-1.2.3c-.4.3-.7.6-1 1c-.3.4-.5.8-.7 1.3c.03-.02 0 6.2 0 6.2h-1.6s.04-6.6 0-6.6c0-.8-.1-1.3-.3-1.7c-.3-.4-.7-.5-1.3-.5c-.4 0-.7.1-1.1.3c-.4.3-.8.6-1.1 1c-.3.4-.5.8-.7 1.3c.04-.02 0 6.2 0 6.2h-1.5zm15.4-2.6c0-.7.2-1.2.6-1.7c.3-.4.7-.7 1.3-.9c.5-.3 1.3-.5 2.3-.7l2.4-.4c0-.9-.2-1.5-.6-1.9c-.5-.5-1.1-.7-2-.7c-.6 0-1.2.2-1.8.5c-.5.3-1 .6-1.4 1.1v-1.5c.4-.4.9-.7 1.5-.9c.5-.3 1.2-.4 1.9-.4c1.2 0 2.2.3 2.9.9c.8.7 1.1 1.6 1.1 2.9v6.3h-1.2s-.32-1.52-.3-1.5c-.5.5-1 1-1.6 1.3c-.6.3-1.3.5-2.1.5c-.9 0-1.6-.3-2.1-.8c-.6-.5-.9-1.2-.9-2.1zm1.6-.1c0 .6.2 1 .5 1.2c.3.3.7.5 1.3.5c.6 0 1.2-.2 1.8-.6c.6-.4 1.1-.9 1.4-1.6c.05.01 0-1.9 0-1.9c0 0-1.59.32-1.6.3c-.9.2-1.6.3-2 .5c-.5.1-.8.3-1 .6c-.3.3-.4.6-.4 1zm9.1 2.7v-9.8h1.4s.13 1.67.1 1.7c.3-.6.7-1.1 1.2-1.5c.5-.3 1.1-.5 1.8-.5h.5c.2.1.3.1.4.1v1.4c-.3-.1-.6-.1-1-.1c-.7 0-1.2.2-1.7.6c-.6.4-.9 1-1.1 1.7c-.04 0 0 6.4 0 6.4h-1.6zm8.3-8.6h-2.2v-1.2h2.2v-3h1.5v3h2.2v1.2h-2.2v8.6h-1.5v-8.6zm5.1 12.6V69.4h1.4s.17 1.55.2 1.5c.3-.5.8-1 1.3-1.3c.6-.3 1.2-.5 1.9-.5c.8 0 1.5.2 2.2.6c.6.5 1.1 1.1 1.5 1.8c.4.8.6 1.7.6 2.8c0 1-.2 1.9-.6 2.7c-.4.8-.9 1.4-1.5 1.8c-.7.4-1.4.7-2.2.7c-.7 0-1.3-.2-1.8-.5c-.6-.3-1.1-.8-1.4-1.3v5.5h-1.6zm1.6-7.4c.2.7.6 1.3 1.2 1.7c.5.5 1.1.7 1.7.7c.5 0 1-.2 1.5-.5c.4-.3.8-.8 1-1.4c.3-.6.4-1.2.4-2c0-.8-.1-1.5-.4-2.1c-.2-.6-.6-1.1-1-1.4c-.4-.3-.9-.4-1.5-.4c-.6 0-1.2.2-1.7.6c-.6.5-1 1-1.2 1.7v3.1zm9.4 3.4V65.4h1.6s-.05 5.91 0 5.9c.3-.6.8-1.1 1.4-1.6c.6-.4 1.3-.6 2-.6c1.1 0 1.9.3 2.4.9c.6.7.8 1.6.8 2.7c.05.03 0 6.5 0 6.5h-1.5s-.04-6.34 0-6.3c0-.9-.2-1.5-.5-1.9c-.3-.4-.7-.6-1.4-.6c-.5 0-.9.1-1.3.4c-.5.3-.9.6-1.2 1.1c-.4.4-.6.9-.7 1.4c-.05.04 0 5.9 0 5.9h-1.6zm10-5.1c0-.9.2-1.8.5-2.6c.4-.8 1-1.4 1.7-1.8c.7-.4 1.5-.6 2.4-.6c.9 0 1.7.2 2.4.6c.7.4 1.2 1 1.6 1.8c.4.8.6 1.7.6 2.6v.3c0 1-.2 1.9-.6 2.7c-.4.7-.9 1.3-1.6 1.7c-.7.5-1.5.7-2.4.7c-.9 0-1.7-.2-2.4-.7c-.7-.4-1.3-1-1.7-1.7c-.3-.8-.5-1.7-.5-2.7v-.3zm1.6.3c0 1.2.3 2.1.8 2.8c.5.7 1.3 1 2.2 1c.9 0 1.6-.3 2.1-1c.6-.7.8-1.6.8-2.8v-.3c0-1.1-.2-2-.8-2.7c-.5-.7-1.2-1-2.1-1c-.9 0-1.7.3-2.2 1c-.5.7-.8 1.6-.8 2.7v.3zm9.5 4.8v-9.8h1.4s.15 1.94.1 1.9c.4-.6.9-1.1 1.5-1.5c.6-.5 1.3-.7 2.1-.7c1 0 1.8.3 2.3.9c.6.7.9 1.6.9 2.7c-.02.03 0 6.5 0 6.5h-1.6s-.02-6.34 0-6.3c0-.9-.2-1.5-.5-1.9c-.2-.4-.7-.6-1.4-.6c-.4 0-.9.1-1.3.4c-.5.3-.9.7-1.2 1.1c-.4.5-.6 1-.7 1.5c-.04 0 0 5.8 0 5.8h-1.6zm10-5.2c0-.9.1-1.8.5-2.5c.4-.8.9-1.4 1.6-1.8c.6-.4 1.4-.6 2.3-.6c1.3 0 2.3.4 3.1 1.3c.7.9 1.1 2.1 1.1 3.8v.6h-7.1c.1 1 .4 1.8.9 2.4c.5.7 1.3 1 2.2 1c1.3 0 2.5-.5 3.4-1.5v1.6c-.4.4-.9.7-1.4.9c-.6.2-1.3.3-2 .3c-1 0-1.8-.2-2.5-.7c-.7-.4-1.2-1-1.6-1.7c-.4-.8-.5-1.7-.5-2.7v-.4zm7-.4c0-1.1-.2-1.9-.7-2.4c-.5-.6-1.1-.8-1.9-.8c-.5 0-1 .1-1.4.3c-.4.3-.7.7-1 1.2c-.3.4-.4 1-.4 1.7h5.4zm3.9 7.8h-1.3l.8-4.6h2.1l-1.6 4.6zm7.8-4.8c0-.7.1-1.2.5-1.7c.3-.4.7-.7 1.3-.9c.5-.3 1.3-.5 2.3-.7l2.4-.4c0-.9-.2-1.5-.6-1.9c-.4-.5-1.1-.7-2-.7c-.6 0-1.2.2-1.7.5c-.6.3-1.1.6-1.5 1.1v-1.5c.4-.4.9-.7 1.5-.9c.6-.3 1.2-.4 1.9-.4c1.2 0 2.2.3 2.9.9c.8.7 1.1 1.6 1.1 2.9c.03-.04 0 6.3 0 6.3h-1.2l-.3-1.5c-.5.5-1 1-1.6 1.3c-.6.3-1.3.5-2 .5c-1 0-1.7-.3-2.2-.8c-.6-.5-.8-1.2-.8-2.1zm1.6-.1c0 .6.1 1 .4 1.2c.3.3.8.5 1.3.5c.6 0 1.2-.2 1.8-.6c.6-.4 1.1-.9 1.5-1.6c-.04.01 0-1.9 0-1.9c0 0-1.68.32-1.7.3c-.9.2-1.6.3-2 .5c-.5.1-.8.3-1 .6c-.2.3-.3.6-.3 1zm9 2.7v-9.8h1.4s.16 1.94.2 1.9c.3-.6.8-1.1 1.4-1.5c.6-.5 1.3-.7 2.1-.7c1 0 1.8.3 2.4.9c.5.7.8 1.6.8 2.7v6.5h-1.6v-6.3c0-.9-.2-1.5-.4-1.9c-.3-.4-.8-.6-1.5-.6c-.4 0-.9.1-1.3.4c-.5.3-.9.7-1.2 1.1c-.4.5-.6 1-.7 1.5c-.02 0 0 5.8 0 5.8h-1.6zm10-4.9c0-1.1.2-2 .5-2.8c.4-.7.9-1.3 1.6-1.8c.6-.4 1.4-.6 2.2-.6c.6 0 1.2.2 1.8.5c.5.3 1 .7 1.4 1.2c-.05.02 0-5.4 0-5.4h1.5v13.8h-1.4s-.13-1.54-.1-1.5c-.4.5-.8.9-1.4 1.3c-.5.3-1.1.5-1.8.5c-.8 0-1.6-.3-2.2-.7c-.7-.4-1.2-1-1.6-1.8c-.3-.8-.5-1.7-.5-2.7zm1.6 0c0 .8.2 1.5.4 2.1c.3.6.6 1 1.1 1.3c.4.3.9.5 1.5.5c.6 0 1.1-.2 1.7-.7c.5-.4.9-1 1.2-1.6v-3.2c-.3-.7-.7-1.3-1.2-1.7c-.6-.4-1.1-.6-1.7-.6c-.6 0-1.1.1-1.5.4c-.5.3-.8.8-1.1 1.4c-.2.6-.4 1.3-.4 2.1zm14.7 4.9v-9.8h1.4s.16 1.67.2 1.7c.2-.6.6-1.1 1.1-1.5c.5-.3 1.1-.5 1.8-.5h.5c.2.1.3.1.4.1v1.4c-.3-.1-.6-.1-1-.1c-.6 0-1.2.2-1.7.6c-.5.4-.9 1-1.1 1.7v6.4h-1.6zm6.1-5.2c0-.9.2-1.8.5-2.5c.4-.8.9-1.4 1.6-1.8c.7-.4 1.4-.6 2.3-.6c1.3 0 2.3.4 3.1 1.3c.7.9 1.1 2.1 1.1 3.8v.6h-7c0 1 .3 1.8.8 2.4c.6.7 1.3 1 2.2 1c1.4 0 2.5-.5 3.5-1.5v1.6c-.5.4-1 .7-1.5.9c-.6.2-1.2.3-2 .3c-1 0-1.8-.2-2.5-.7c-.7-.4-1.2-1-1.6-1.7c-.3-.8-.5-1.7-.5-2.7v-.4zm7-.4c0-1.1-.2-1.9-.7-2.4c-.5-.6-1.1-.8-1.9-.8c-.5 0-1 .1-1.4.3c-.4.3-.7.7-1 1.2c-.2.4-.4 1-.4 1.7h5.4zm4.5-3h-2.2v-1.2h2.2v-3h1.6v3h2.1v1.2h-2.1v8.6H326v-8.6zm4.9 5.2c0 1.2.3 2.1.9 2.7c.5.6 1.3 1 2.3 1c.8 0 1.5-.3 2.1-.7c.6-.4 1.1-1 1.5-1.6c-.04.01.1 2 .1 2h1.4v-9.8h-1.6s.04 5.76 0 5.8c-.1.5-.3 1-.7 1.4c-.3.5-.7.9-1.1 1.2c-.5.2-.9.4-1.4.4c-.7 0-1.2-.2-1.4-.6c-.3-.5-.5-1.1-.5-1.9c.03 0 0-6.3 0-6.3h-1.6s.04 6.43 0 6.4zm10.9 3.4v-9.8h1.5s.06 1.67.1 1.7c.2-.6.6-1.1 1.1-1.5c.5-.3 1.1-.5 1.8-.5h.5c.2.1.3.1.4.1v1.4c-.2-.1-.6-.1-1-.1c-.6 0-1.2.2-1.7.6c-.5.4-.9 1-1.1 1.7v6.4h-1.6zm6.8 0v-9.8h1.4s.17 1.94.2 1.9c.3-.6.8-1.1 1.4-1.5c.6-.5 1.3-.7 2.1-.7c1 0 1.8.3 2.4.9c.5.7.8 1.6.8 2.7v6.5h-1.6v-6.3c0-.9-.1-1.5-.4-1.9c-.3-.4-.8-.6-1.5-.6c-.4 0-.9.1-1.3.4c-.5.3-.9.7-1.2 1.1c-.3.5-.6 1-.7 1.5v5.8h-1.6zm16.3-8.6h-2.1v-1.2h2.1v-3h1.6v3h2.2v1.2h-2.2v8.6h-1.6v-8.6zm4.4 3.5c0-.9.2-1.8.6-2.6c.3-.8.9-1.4 1.6-1.8c.7-.4 1.5-.6 2.4-.6c.9 0 1.7.2 2.4.6c.7.4 1.2 1 1.6 1.8c.4.8.6 1.7.6 2.6v.3c0 1-.2 1.9-.6 2.7c-.4.7-.9 1.3-1.6 1.7c-.7.5-1.5.7-2.4.7c-.9 0-1.7-.2-2.4-.7c-.7-.4-1.3-1-1.6-1.7c-.4-.8-.6-1.7-.6-2.7v-.3zm1.6.3c0 1.2.3 2.1.8 2.8c.5.7 1.3 1 2.2 1c.9 0 1.6-.3 2.2-1c.5-.7.7-1.6.7-2.8v-.3c0-1.1-.2-2-.7-2.7c-.6-.7-1.3-1-2.2-1c-.9 0-1.7.3-2.2 1c-.5.7-.8 1.6-.8 2.7v.3zm15.1-3.8h-2.1v-1.2h2.1v-3h1.6v3h2.2v1.2h-2.2v8.6H386v-8.6zm5.2 8.6V65.4h1.6s-.04 5.91 0 5.9c.3-.6.8-1.1 1.4-1.6c.6-.4 1.3-.6 2-.6c1.1 0 1.9.3 2.4.9c.6.7.9 1.6.9 2.7c-.05.03 0 6.5 0 6.5h-1.6s-.03-6.34 0-6.3c0-.9-.2-1.5-.5-1.9c-.3-.4-.7-.6-1.4-.6c-.4 0-.9.1-1.3.4c-.5.3-.9.6-1.2 1.1c-.4.4-.6.9-.7 1.4c-.04.04 0 5.9 0 5.9h-1.6zm9.9-5.2c0-.9.2-1.8.6-2.5c.4-.8.9-1.4 1.6-1.8c.6-.4 1.4-.6 2.3-.6c1.3 0 2.3.4 3.1 1.3c.7.9 1.1 2.1 1.1 3.8c-.02-.05 0 .6 0 .6h-7.1c.1 1 .4 1.8.9 2.4c.5.7 1.3 1 2.2 1c1.3 0 2.5-.5 3.4-1.5v1.6c-.4.4-.9.7-1.4.9c-.6.2-1.3.3-2 .3c-1 0-1.8-.2-2.5-.7c-.7-.4-1.2-1-1.6-1.7c-.4-.8-.6-1.7-.6-2.7v-.4zm7.1-.4c0-1.1-.3-1.9-.7-2.4c-.5-.6-1.1-.8-1.9-.8c-.5 0-1 .1-1.4.3c-.4.3-.8.7-1 1.2c-.3.4-.4 1-.5 1.7h5.5zm5.1-5.9h-1.6v-2h1.6v2zm0 11.5h-1.6v-9.8h1.6v9.8zm2.6 0v-9.8h1.4s.12 1.67.1 1.7c.3-.6.7-1.1 1.2-1.5c.5-.3 1.1-.5 1.7-.5h.6c.2.1.3.1.4.1v1.4c-.3-.1-.6-.1-1-.1c-.7 0-1.2.2-1.8.6c-.5.4-.8 1-1 1.7c-.05 0 0 6.4 0 6.4h-1.6zm10.2-8.6v-1.2h2v-1c0-.6.1-1.2.3-1.7c.3-.5.6-.9 1.1-1.2c.4-.3 1-.5 1.7-.5c.4 0 .8.1 1.2.3v1.4c-.3-.2-.7-.3-1.1-.3c-.5 0-.9.1-1.2.5c-.3.3-.4.8-.4 1.5v1h2.3v1.2h-2.3v8.6h-1.6v-8.6h-2zm9.6 8.6h-1.6V65.4h1.6v13.8zm2.4-3.4c0 1.2.3 2.1.8 2.7c.6.6 1.4 1 2.4 1c.8 0 1.5-.3 2.1-.7c.6-.4 1.1-1 1.4-1.6c.03.01.2 2 .2 2h1.4v-9.8h-1.6v5.8c-.1.5-.4 1-.7 1.4c-.3.5-.7.9-1.2 1.2c-.4.2-.9.4-1.3.4c-.7 0-1.2-.2-1.5-.6c-.3-.5-.4-1.1-.4-1.9v-6.3h-1.6s.02 6.43 0 6.4zm10.5.9c.8 1 1.8 1.5 3.1 1.5c.7 0 1.2-.2 1.6-.4c.3-.3.5-.7.5-1.1c0-.4-.1-.7-.3-.9c-.2-.3-.5-.5-1.1-.7l-1.3-.6c-.8-.3-1.4-.7-1.8-1.1c-.4-.5-.6-1-.6-1.7c0-.4.1-.9.4-1.3c.2-.4.6-.7 1.1-.9c.5-.3 1.1-.4 1.8-.4c.6 0 1.2.1 1.7.3c.5.2 1 .5 1.3.8v1.7c-.4-.5-.9-.9-1.4-1.2c-.5-.2-1.1-.3-1.6-.3c-.6 0-1 .1-1.3.4c-.3.2-.5.5-.5.9c0 .3.2.6.4.8c.2.2.6.4 1.2.6l1.3.5c.8.4 1.4.8 1.8 1.2c.3.5.5 1.1.5 1.8c0 .9-.3 1.6-1 2.1c-.7.5-1.6.8-2.7.8c-.7 0-1.3-.1-1.8-.3c-.5-.2-1-.5-1.3-.8v-1.7zm8.7 2.5V65.4h1.6v5.9c.4-.6.8-1.1 1.5-1.6c.6-.4 1.2-.6 2-.6c1 0 1.8.3 2.4.9c.5.7.8 1.6.8 2.7v6.5H464s.02-6.34 0-6.3c0-.9-.1-1.5-.4-1.9c-.3-.4-.8-.6-1.5-.6c-.4 0-.8.1-1.3.4c-.4.3-.8.6-1.2 1.1c-.3.4-.6.9-.7 1.4v5.9h-1.6z" stroke="none" fill="#fff"/></g><g id="Polygon12859"><path d="m4.8 34.9H.6v-1.4h10v1.4H6.4v12.3H4.8V34.9zm7.5 12.3V33.4h1.6v5.9c.4-.6.9-1.1 1.5-1.6c.6-.4 1.2-.6 2-.6c1 0 1.8.3 2.4.9c.5.7.8 1.6.8 2.7v6.5H19s.03-6.34 0-6.3c0-.9-.1-1.5-.4-1.9c-.3-.4-.8-.6-1.4-.6c-.5 0-.9.1-1.4.4c-.4.3-.8.6-1.2 1.1c-.3.4-.6.9-.7 1.4v5.9h-1.6zm10-5.2c0-.9.2-1.8.6-2.5c.3-.8.9-1.4 1.5-1.8c.7-.4 1.4-.6 2.3-.6c1.3 0 2.4.4 3.1 1.3c.8.9 1.1 2.1 1.1 3.8c.04-.05 0 .6 0 .6h-7c0 1 .3 1.8.9 2.4c.5.7 1.2 1 2.1 1c1.4 0 2.5-.5 3.5-1.5v1.6c-.4.4-.9.7-1.5.9c-.5.2-1.2.3-2 .3c-1 0-1.8-.2-2.5-.7c-.7-.4-1.2-1-1.5-1.7c-.4-.8-.6-1.7-.6-2.7v-.4zm7.1-.4c-.1-1.1-.3-1.9-.8-2.4c-.5-.6-1.1-.8-1.9-.8c-.5 0-.9.1-1.3.3c-.5.3-.8.7-1.1 1.2c-.2.4-.4 1-.4 1.7h5.5zm6.2 5.6l-3.9-9.8h1.7l3 7.8l3-7.8h1.7l-5.5 13.8h-1.7l1.7-4zm11.6 4V37.4h1.4s.16 1.55.2 1.5c.3-.5.7-1 1.3-1.3c.6-.3 1.2-.5 1.8-.5c.9 0 1.6.2 2.3.6c.6.5 1.1 1.1 1.5 1.8c.4.8.5 1.7.5 2.8c0 1-.1 1.9-.5 2.7c-.4.8-.9 1.4-1.5 1.8c-.7.4-1.4.7-2.3.7c-.6 0-1.2-.2-1.7-.5c-.6-.3-1.1-.8-1.4-1.3c-.02.02 0 5.5 0 5.5h-1.6zm1.6-7.4c.2.7.6 1.3 1.1 1.7c.6.5 1.2.7 1.8.7c.5 0 1-.2 1.5-.5c.4-.3.8-.8 1-1.4c.3-.6.4-1.2.4-2c0-.8-.1-1.5-.4-2.1c-.2-.6-.6-1.1-1-1.4c-.5-.3-1-.4-1.5-.4c-.6 0-1.2.2-1.8.6c-.5.5-.9 1-1.1 1.7v3.1zm9.4 3.4v-9.8h1.4s.11 1.67.1 1.7c.3-.6.7-1.1 1.2-1.5c.5-.3 1.1-.5 1.7-.5h.6c.1.1.3.1.4.1v1.4c-.3-.1-.6-.1-1.1-.1c-.6 0-1.1.2-1.7.6c-.5.4-.8 1-1.1 1.7c.04 0 0 6.4 0 6.4h-1.5zm6-5.1c0-.9.2-1.8.6-2.6c.4-.8 1-1.4 1.7-1.8c.7-.4 1.5-.6 2.3-.6c.9 0 1.7.2 2.4.6c.7.4 1.3 1 1.7 1.8c.4.8.6 1.7.6 2.6v.3c0 1-.2 1.9-.6 2.7c-.4.7-1 1.3-1.7 1.7c-.7.5-1.5.7-2.4.7c-.8 0-1.6-.2-2.3-.7c-.7-.4-1.3-1-1.7-1.7c-.4-.8-.6-1.7-.6-2.7v-.3zm1.7.3c0 1.2.3 2.1.8 2.8c.5.7 1.2 1 2.1 1c1 0 1.7-.3 2.2-1c.6-.7.8-1.6.8-2.8v-.3c0-1.1-.2-2-.8-2.7c-.5-.7-1.2-1-2.2-1c-.9 0-1.6.3-2.1 1c-.5.7-.8 1.6-.8 2.7v.3zm10.3-3.8h-2.1v-1.2h2.1v-3h1.6v3h2.2v1.2h-2.2v8.6h-1.6v-8.6zm5.2 8.6v-9.8h1.4s.13 1.67.1 1.7c.3-.6.7-1.1 1.2-1.5c.5-.3 1.1-.5 1.8-.5h.5c.2.1.3.1.4.1v1.4c-.3-.1-.6-.1-1-.1c-.7 0-1.2.2-1.7.6c-.6.4-.9 1-1.1 1.7c-.04 0 0 6.4 0 6.4h-1.6zm6.1-2.6c0-.7.1-1.2.5-1.7c.3-.4.7-.7 1.3-.9c.5-.3 1.3-.5 2.3-.7l2.4-.4c0-.9-.2-1.5-.6-1.9c-.4-.5-1.1-.7-2-.7c-.6 0-1.2.2-1.7.5c-.6.3-1.1.6-1.4 1.1v-1.5c.3-.4.8-.7 1.4-.9c.6-.3 1.2-.4 1.9-.4c1.2 0 2.2.3 3 .9c.7.7 1 1.6 1 2.9c.03-.04 0 6.3 0 6.3h-1.2l-.3-1.5c-.5.5-1 1-1.6 1.3c-.6.3-1.3.5-2 .5c-.9 0-1.7-.3-2.2-.8c-.6-.5-.8-1.2-.8-2.1zm1.6-.1c0 .6.1 1 .4 1.2c.3.3.8.5 1.3.5c.6 0 1.2-.2 1.8-.6c.6-.4 1.1-.9 1.5-1.6c-.03.01 0-1.9 0-1.9c0 0-1.67.32-1.7.3c-.9.2-1.5.3-2 .5c-.5.1-.8.3-1 .6c-.2.3-.3.6-.3 1zm8.3-2.4c0-1 .2-1.8.6-2.6c.4-.7 1-1.3 1.7-1.8c.8-.4 1.6-.6 2.5-.6c.6 0 1.1.1 1.6.3c.5.2.9.5 1.3.8v1.7c-.4-.5-.8-.9-1.3-1.2c-.5-.2-1-.3-1.6-.3c-.6 0-1.1.1-1.6.4c-.5.4-.9.8-1.1 1.4c-.3.5-.4 1.2-.4 1.9v.3c0 .7.1 1.4.4 2c.3.5.6 1 1.1 1.3c.5.3 1 .5 1.6.5c1.1 0 2.1-.5 2.9-1.5v1.7c-.4.3-.8.6-1.3.8c-.5.2-1.1.3-1.6.3c-.9 0-1.7-.3-2.5-.7c-.7-.4-1.3-1-1.7-1.8c-.4-.8-.6-1.6-.6-2.6v-.3zm10.9-3.5h-2.1v-1.2h2.1v-3h1.6v3h2.2v1.2h-2.2v8.6h-1.6v-8.6zm9.2 6c0-.7.1-1.2.5-1.7c.3-.4.7-.7 1.3-.9c.5-.3 1.3-.5 2.3-.7l2.5-.4c-.1-.9-.3-1.5-.7-1.9c-.4-.5-1.1-.7-2-.7c-.6 0-1.2.2-1.7.5c-.6.3-1.1.6-1.4 1.1v-1.5c.3-.4.8-.7 1.4-.9c.6-.3 1.2-.4 1.9-.4c1.3 0 2.2.3 3 .9c.7.7 1 1.6 1 2.9c.04-.04 0 6.3 0 6.3h-1.2s-.29-1.52-.3-1.5c-.4.5-1 1-1.6 1.3c-.6.3-1.3.5-2 .5c-.9 0-1.7-.3-2.2-.8c-.6-.5-.8-1.2-.8-2.1zm1.6-.1c0 .6.1 1 .4 1.2c.3.3.8.5 1.3.5c.6 0 1.2-.2 1.8-.6c.6-.4 1.1-.9 1.5-1.6c-.03.01 0-1.9 0-1.9c0 0-1.67.32-1.7.3c-.9.2-1.5.3-2 .5c-.5.1-.8.3-1 .6c-.2.3-.3.6-.3 1zm8.8-.7c0 1.2.3 2.1.9 2.7c.5.6 1.3 1 2.3 1c.8 0 1.5-.3 2.1-.7c.6-.4 1.1-1 1.4-1.6c.04.01.2 2 .2 2h1.4v-9.8h-1.6s.02 5.76 0 5.8c-.1.5-.3 1-.7 1.4c-.3.5-.7.9-1.2 1.2c-.4.2-.9.4-1.3.4c-.7 0-1.2-.2-1.5-.6c-.2-.5-.4-1.1-.4-1.9v-6.3h-1.6s.02 6.43 0 6.4zm11.9-5.2h-2.2v-1.2h2.2v-3h1.5v3h2.2v1.2h-2.2v8.6h-1.5v-8.6zm4.3 3.5c0-.9.2-1.8.6-2.6c.4-.8.9-1.4 1.6-1.8c.7-.4 1.5-.6 2.4-.6c.9 0 1.7.2 2.4.6c.7.4 1.2 1 1.6 1.8c.4.8.6 1.7.6 2.6v.3c0 1-.2 1.9-.6 2.7c-.4.7-.9 1.3-1.6 1.7c-.7.5-1.5.7-2.4.7c-.9 0-1.7-.2-2.4-.7c-.7-.4-1.2-1-1.6-1.7c-.4-.8-.6-1.7-.6-2.7v-.3zm1.6.3c0 1.2.3 2.1.8 2.8c.6.7 1.3 1 2.2 1c.9 0 1.6-.3 2.2-1c.5-.7.8-1.6.8-2.8v-.3c0-1.1-.3-2-.8-2.7c-.6-.7-1.3-1-2.2-1c-.9 0-1.6.3-2.2 1c-.5.7-.8 1.6-.8 2.7v.3zm9.5 4.8v-9.8h1.4s.14 1.75.1 1.7c.4-.6.9-1.1 1.4-1.4c.5-.4 1.2-.6 1.9-.6c.7 0 1.2.2 1.7.6c.5.3.8.9 1 1.6c.4-.7.9-1.2 1.4-1.6c.6-.4 1.2-.6 1.9-.6c.9 0 1.7.3 2.2.9c.5.6.8 1.4.8 2.5c-.02.01 0 6.7 0 6.7h-1.6v-6.6c0-.7-.1-1.3-.4-1.7c-.2-.4-.7-.5-1.3-.5c-.3 0-.7.1-1.1.3c-.4.3-.8.6-1.1 1c-.3.4-.5.8-.6 1.3c-.02-.02 0 6.2 0 6.2h-1.6v-6.6c0-.8-.1-1.3-.4-1.7c-.2-.4-.7-.5-1.3-.5c-.3 0-.7.1-1.1.3c-.4.3-.7.6-1 1c-.3.4-.6.8-.7 1.3v6.2h-1.6zm15.5-2.6c0-.7.2-1.2.5-1.7c.3-.4.7-.7 1.3-.9c.6-.3 1.3-.5 2.3-.7l2.5-.4c0-.9-.3-1.5-.7-1.9c-.4-.5-1.1-.7-1.9-.7c-.7 0-1.2.2-1.8.5c-.6.3-1 .6-1.4 1.1v-1.5c.4-.4.8-.7 1.4-.9c.6-.3 1.2-.4 1.9-.4c1.3 0 2.3.3 3 .9c.7.7 1.1 1.6 1.1 2.9c-.04-.04 0 6.3 0 6.3h-1.3s-.27-1.52-.3-1.5c-.4.5-1 1-1.6 1.3c-.6.3-1.3.5-2 .5c-.9 0-1.6-.3-2.2-.8c-.5-.5-.8-1.2-.8-2.1zm1.6-.1c0 .6.2 1 .5 1.2c.3.3.7.5 1.2.5c.6 0 1.2-.2 1.8-.6c.7-.4 1.2-.9 1.5-1.6v-1.9s-1.64.32-1.6.3c-.9.2-1.6.3-2.1.5c-.4.1-.8.3-1 .6c-.2.3-.3.6-.3 1zm10-5.9h-2.2v-1.2h2.2v-3h1.6v3h2.1v1.2h-2.1v8.6h-1.6v-8.6zm6.7-2.9h-1.6v-2h1.6v2zm0 11.5h-1.6v-9.8h1.6v9.8zm1.9-5.1c0-1 .2-1.8.6-2.6c.4-.7 1-1.3 1.7-1.8c.8-.4 1.6-.6 2.5-.6c.6 0 1.1.1 1.6.3c.5.2.9.5 1.3.8v1.7c-.4-.5-.8-.9-1.3-1.2c-.5-.2-1-.3-1.6-.3c-.6 0-1.1.1-1.6.4c-.5.4-.8.8-1.1 1.4c-.3.5-.4 1.2-.4 1.9v.3c0 .7.1 1.4.4 2c.3.5.6 1 1.1 1.3c.5.3 1 .5 1.6.5c1.1 0 2.1-.5 2.9-1.5v1.7c-.4.3-.8.6-1.3.8c-.5.2-1.1.3-1.6.3c-.9 0-1.7-.3-2.5-.7c-.7-.4-1.3-1-1.7-1.8c-.4-.8-.6-1.6-.6-2.6v-.3zm9 2.5c0-.7.2-1.2.5-1.7c.3-.4.7-.7 1.3-.9c.6-.3 1.3-.5 2.3-.7l2.5-.4c0-.9-.3-1.5-.7-1.9c-.4-.5-1.1-.7-1.9-.7c-.7 0-1.2.2-1.8.5c-.6.3-1 .6-1.4 1.1v-1.5c.4-.4.8-.7 1.4-.9c.6-.3 1.2-.4 1.9-.4c1.3 0 2.3.3 3 .9c.7.7 1.1 1.6 1.1 2.9c-.04-.04 0 6.3 0 6.3h-1.3s-.27-1.52-.3-1.5c-.4.5-1 1-1.6 1.3c-.6.3-1.3.5-2 .5c-.9 0-1.6-.3-2.2-.8c-.5-.5-.8-1.2-.8-2.1zm1.6-.1c0 .6.1 1 .5 1.2c.3.3.7.5 1.2.5c.6 0 1.2-.2 1.8-.6c.7-.4 1.1-.9 1.5-1.6v-1.9s-1.64.32-1.6.3c-.9.2-1.6.3-2.1.5c-.4.1-.8.3-1 .6c-.2.3-.3.6-.3 1zm10.6 2.7h-1.6V33.4h1.6v13.8zm4.2 0h-1.6V33.4h1.6v13.8zm5.3 0l-3.9-9.8h1.8l3 7.8l3-7.8h1.6l-5.5 13.8h-1.7l1.7-4zm13.3 0l-2.8-9.8h1.6l2.2 8l2.1-8h2l2.2 8l2.2-8h1.5l-2.8 9.8h-1.9l-2.2-8.1l-2.2 8.1h-1.9zm12.5 0V33.4h1.5s.04 5.91 0 5.9c.4-.6.9-1.1 1.5-1.6c.6-.4 1.3-.6 2-.6c1.1 0 1.9.3 2.4.9c.6.7.8 1.6.8 2.7c.03.03 0 6.5 0 6.5H254s.05-6.34 0-6.3c0-.9-.1-1.5-.4-1.9c-.3-.4-.8-.6-1.4-.6c-.5 0-.9.1-1.4.4c-.4.3-.8.6-1.2 1.1c-.3.4-.5.9-.7 1.4c.04.04 0 5.9 0 5.9h-1.5zm9.9-5.2c0-.9.2-1.8.6-2.5c.4-.8.9-1.4 1.5-1.8c.7-.4 1.5-.6 2.3-.6c1.4 0 2.4.4 3.1 1.3c.8.9 1.2 2.1 1.2 3.8c-.03-.05 0 .6 0 .6h-7.1c.1 1 .4 1.8.9 2.4c.5.7 1.2 1 2.1 1c1.4 0 2.6-.5 3.5-1.5v1.6c-.4.4-.9.7-1.5.9c-.5.2-1.2.3-2 .3c-.9 0-1.8-.2-2.4-.7c-.7-.4-1.3-1-1.6-1.7c-.4-.8-.6-1.7-.6-2.7v-.4zm7.1-.4c0-1.1-.3-1.9-.8-2.4c-.4-.6-1.1-.8-1.8-.8c-.6 0-1 .1-1.4.3c-.4.3-.8.7-1 1.2c-.3.4-.4 1-.5 1.7h5.5zm3.5 5.6v-9.8h1.4s.14 1.94.1 1.9c.4-.6.9-1.1 1.5-1.5c.6-.5 1.3-.7 2-.7c1.1 0 1.9.3 2.4.9c.6.7.9 1.6.9 2.7c-.03.03 0 6.5 0 6.5h-1.6s-.03-6.34 0-6.3c0-.9-.2-1.5-.5-1.9c-.3-.4-.7-.6-1.4-.6c-.4 0-.9.1-1.3.4c-.5.3-.9.7-1.2 1.1c-.4.5-.6 1-.7 1.5c-.04 0 0 5.8 0 5.8h-1.6zm14.6-2.6c0-.7.2-1.2.6-1.7c.3-.4.7-.7 1.3-.9c.5-.3 1.3-.5 2.3-.7l2.4-.4c0-.9-.2-1.5-.6-1.9c-.5-.5-1.1-.7-2-.7c-.6 0-1.2.2-1.8.5c-.5.3-1 .6-1.4 1.1v-1.5c.4-.4.9-.7 1.5-.9c.5-.3 1.2-.4 1.9-.4c1.2 0 2.2.3 2.9.9c.8.7 1.1 1.6 1.1 2.9c.02-.04 0 6.3 0 6.3h-1.2l-.3-1.5c-.5.5-1 1-1.6 1.3c-.6.3-1.3.5-2.1.5c-.9 0-1.6-.3-2.1-.8c-.6-.5-.9-1.2-.9-2.1zm1.6-.1c0 .6.2 1 .5 1.2c.3.3.7.5 1.3.5c.6 0 1.2-.2 1.8-.6c.6-.4 1.1-.9 1.4-1.6c.05.01 0-1.9 0-1.9c0 0-1.59.32-1.6.3c-.9.2-1.6.3-2 .5c-.5.1-.8.3-1 .6c-.2.3-.4.6-.4 1zm9.1 6.7V37.4h1.4s.15 1.55.1 1.5c.4-.5.8-1 1.4-1.3c.6-.3 1.2-.5 1.8-.5c.8 0 1.6.2 2.2.6c.7.5 1.2 1.1 1.6 1.8c.3.8.5 1.7.5 2.8c0 1-.2 1.9-.5 2.7c-.4.8-.9 1.4-1.6 1.8c-.6.4-1.4.7-2.2.7c-.6 0-1.2-.2-1.8-.5c-.5-.3-1-.8-1.3-1.3c-.03.02 0 5.5 0 5.5h-1.6zm1.6-7.4c.2.7.6 1.3 1.1 1.7c.6.5 1.2.7 1.8.7c.5 0 1-.2 1.5-.5c.4-.3.8-.8 1-1.4c.3-.6.4-1.2.4-2c0-.8-.1-1.5-.4-2.1c-.2-.6-.6-1.1-1-1.4c-.5-.3-1-.4-1.5-.4c-.6 0-1.2.2-1.8.6c-.5.5-.9 1-1.1 1.7v3.1zm9.3 7.4V37.4h1.5l.1 1.5c.3-.5.8-1 1.4-1.3c.5-.3 1.1-.5 1.8-.5c.8 0 1.5.2 2.2.6c.7.5 1.2 1.1 1.5 1.8c.4.8.6 1.7.6 2.8c0 1-.2 1.9-.6 2.7c-.3.8-.8 1.4-1.5 1.8c-.7.4-1.4.7-2.2.7c-.6 0-1.2-.2-1.8-.5c-.6-.3-1-.8-1.4-1.3c.03.02 0 5.5 0 5.5h-1.6zm1.6-7.4c.3.7.7 1.3 1.2 1.7c.5.5 1.1.7 1.7.7c.6 0 1.1-.2 1.5-.5c.5-.3.8-.8 1.1-1.4c.2-.6.4-1.2.4-2c0-.8-.2-1.5-.4-2.1c-.3-.6-.6-1.1-1.1-1.4c-.4-.3-.9-.4-1.5-.4c-.6 0-1.2.2-1.7.6c-.5.5-.9 1-1.2 1.7v3.1zm9.4 3.4v-9.8h1.4s.15 1.67.2 1.7c.2-.6.6-1.1 1.1-1.5c.5-.3 1.1-.5 1.8-.5h.5c.2.1.3.1.4.1v1.4c-.3-.1-.6-.1-1-.1c-.6 0-1.2.2-1.7.6c-.5.4-.9 1-1.1 1.7v6.4h-1.6zm6.1-5.1c0-.9.2-1.8.6-2.6c.4-.8.9-1.4 1.6-1.8c.7-.4 1.5-.6 2.4-.6c.9 0 1.7.2 2.4.6c.7.4 1.2 1 1.6 1.8c.4.8.6 1.7.6 2.6v.3c0 1-.2 1.9-.6 2.7c-.4.7-.9 1.3-1.6 1.7c-.7.5-1.5.7-2.4.7c-.9 0-1.7-.2-2.4-.7c-.7-.4-1.2-1-1.6-1.7c-.4-.8-.6-1.7-.6-2.7v-.3zm1.6.3c0 1.2.3 2.1.8 2.8c.6.7 1.3 1 2.2 1c.9 0 1.6-.3 2.2-1c.5-.7.8-1.6.8-2.8v-.3c0-1.1-.3-2-.8-2.7c-.6-.7-1.3-1-2.2-1c-.9 0-1.6.3-2.2 1c-.5.7-.8 1.6-.8 2.7v.3zm8.8 2.2c0-.7.2-1.2.6-1.7c.2-.4.7-.7 1.2-.9c.6-.3 1.4-.5 2.4-.7l2.4-.4c0-.9-.2-1.5-.7-1.9c-.4-.5-1-.7-1.9-.7c-.6 0-1.2.2-1.8.5c-.5.3-1 .6-1.4 1.1v-1.5c.4-.4.9-.7 1.4-.9c.6-.3 1.3-.4 2-.4c1.2 0 2.2.3 2.9.9c.7.7 1.1 1.6 1.1 2.9c-.02-.04 0 6.3 0 6.3h-1.3s-.25-1.52-.2-1.5c-.5.5-1 1-1.7 1.3c-.6.3-1.3.5-2 .5c-.9 0-1.6-.3-2.2-.8c-.5-.5-.8-1.2-.8-2.1zm1.6-.1c0 .6.2 1 .5 1.2c.3.3.7.5 1.2.5c.6 0 1.2-.2 1.9-.6c.6-.4 1.1-.9 1.4-1.6c.02.01 0-1.9 0-1.9c0 0-1.62.32-1.6.3c-.9.2-1.6.3-2.1.5c-.4.1-.7.3-1 .6c-.2.3-.3.6-.3 1zm8.3-2.4c0-1 .3-1.8.7-2.6c.4-.7.9-1.3 1.7-1.8c.7-.4 1.5-.6 2.5-.6c.5 0 1 .1 1.5.3c.6.2 1 .5 1.4.8v1.7c-.4-.5-.9-.9-1.4-1.2c-.5-.2-1-.3-1.5-.3c-.6 0-1.2.1-1.6.4c-.5.4-.9.8-1.2 1.4c-.3.5-.4 1.2-.4 1.9v.3c0 .7.1 1.4.4 2c.3.5.7 1 1.2 1.3c.4.3 1 .5 1.6.5c1.1 0 2-.5 2.9-1.5v1.7c-.4.3-.8.6-1.4.8c-.5.2-1 .3-1.6.3c-.9 0-1.7-.3-2.4-.7c-.8-.4-1.3-1-1.7-1.8c-.4-.8-.7-1.6-.7-2.6v-.3zm9.7 5.1V33.4h1.6v5.9c.4-.6.9-1.1 1.5-1.6c.6-.4 1.2-.6 2-.6c1 0 1.8.3 2.4.9c.5.7.8 1.6.8 2.7v6.5h-1.6s.03-6.34 0-6.3c0-.9-.1-1.5-.4-1.9c-.3-.4-.8-.6-1.4-.6c-.5 0-.9.1-1.4.4c-.4.3-.8.6-1.2 1.1c-.3.4-.6.9-.7 1.4v5.9h-1.6zm10-5.2c0-.9.2-1.8.6-2.5c.3-.8.9-1.4 1.5-1.8c.7-.4 1.4-.6 2.3-.6c1.3 0 2.4.4 3.1 1.3c.8.9 1.1 2.1 1.1 3.8c.04-.05 0 .6 0 .6h-7c0 1 .3 1.8.9 2.4c.5.7 1.2 1 2.1 1c1.4 0 2.5-.5 3.5-1.5v1.6c-.4.4-.9.7-1.5.9c-.5.2-1.2.3-2 .3c-.9 0-1.8-.2-2.5-.7c-.7-.4-1.2-1-1.5-1.7c-.4-.8-.6-1.7-.6-2.7v-.4zm7.1-.4c-.1-1.1-.3-1.9-.8-2.4c-.5-.6-1.1-.8-1.9-.8c-.5 0-.9.1-1.3.3c-.5.3-.8.7-1.1 1.2c-.2.4-.4 1-.4 1.7h5.5zm2.7.7c0-1.1.2-2 .6-2.8c.4-.7.9-1.3 1.6-1.8c.6-.4 1.4-.6 2.2-.6c.6 0 1.2.2 1.7.5c.6.3 1.1.7 1.4 1.2c.02.02 0-5.4 0-5.4h1.6v13.8h-1.4s-.16-1.54-.2-1.5c-.3.5-.8.9-1.3 1.3c-.6.3-1.2.5-1.8.5c-.8 0-1.6-.3-2.2-.7c-.7-.4-1.2-1-1.6-1.8c-.4-.8-.6-1.7-.6-2.7zm1.7 0c0 .8.1 1.5.4 2.1c.2.6.6 1 1 1.3c.5.3 1 .5 1.5.5c.6 0 1.2-.2 1.7-.7c.6-.4 1-1 1.2-1.6v-3.2c-.2-.7-.6-1.3-1.2-1.7c-.5-.4-1.1-.6-1.7-.6c-.5 0-1 .1-1.5.4c-.4.3-.8.8-1 1.4c-.3.6-.4 1.3-.4 2.1zm16.4 4.9l-2.9-9.8h1.7l2.2 8l2.1-8h2l2.2 8l2.2-8h1.5l-2.9 9.8h-1.9l-2.2-8.1l-2.1 8.1h-1.9zm14-11.5h-1.6v-2h1.6v2zm0 11.5h-1.6v-9.8h1.6v9.8zm3.5-8.6h-2.1v-1.2h2.1v-3h1.6v3h2.2v1.2h-2.2v8.6h-1.6v-8.6zm5.2 8.6V33.4h1.6s-.03 5.91 0 5.9c.3-.6.8-1.1 1.4-1.6c.6-.4 1.3-.6 2-.6c1.1 0 1.9.3 2.4.9c.6.7.9 1.6.9 2.7c-.04.03 0 6.5 0 6.5h-1.6s-.02-6.34 0-6.3c0-.9-.2-1.5-.5-1.9c-.2-.4-.7-.6-1.4-.6c-.4 0-.9.1-1.3.4c-.5.3-.9.6-1.2 1.1c-.4.4-.6.9-.7 1.4c-.03.04 0 5.9 0 5.9h-1.6zm14.7-2.6c0-.7.1-1.2.5-1.7c.3-.4.7-.7 1.3-.9c.5-.3 1.3-.5 2.3-.7l2.4-.4c0-.9-.2-1.5-.6-1.9c-.4-.5-1.1-.7-2-.7c-.6 0-1.2.2-1.7.5c-.6.3-1.1.6-1.5 1.1v-1.5c.4-.4.9-.7 1.5-.9c.6-.3 1.2-.4 1.9-.4c1.2 0 2.2.3 2.9.9c.8.7 1.1 1.6 1.1 2.9c.02-.04 0 6.3 0 6.3h-1.2l-.3-1.5c-.5.5-1 1-1.6 1.3c-.6.3-1.3.5-2 .5c-1 0-1.7-.3-2.2-.8c-.6-.5-.8-1.2-.8-2.1zm1.6-.1c0 .6.1 1 .4 1.2c.3.3.7.5 1.3.5c.6 0 1.2-.2 1.8-.6c.6-.4 1.1-.9 1.5-1.6c-.04.01 0-1.9 0-1.9c0 0-1.68.32-1.7.3c-.9.2-1.6.3-2 .5c-.5.1-.8.3-1 .6c-.2.3-.3.6-.3 1zm13.3.2c.8 1 1.8 1.5 3.1 1.5c.6 0 1.2-.2 1.5-.4c.4-.3.6-.7.6-1.1c0-.4-.1-.7-.3-.9c-.2-.3-.6-.5-1.1-.7l-1.4-.6c-.8-.3-1.4-.7-1.8-1.1c-.3-.5-.5-1-.5-1.7c0-.4.1-.9.4-1.3c.2-.4.6-.7 1.1-.9c.5-.3 1.1-.4 1.8-.4c.6 0 1.1.1 1.7.3c.5.2.9.5 1.3.8v1.7c-.4-.5-.9-.9-1.4-1.2c-.6-.2-1.1-.3-1.6-.3c-.6 0-1 .1-1.3.4c-.3.2-.5.5-.5.9c0 .3.1.6.4.8c.2.2.6.4 1.2.6l1.3.5c.8.4 1.4.8 1.7 1.2c.4.5.6 1.1.6 1.8c0 .9-.3 1.6-1 2.1c-.7.5-1.6.8-2.7.8c-.7 0-1.3-.1-1.8-.3c-.6-.2-1-.5-1.3-.8v-1.7zm8.7 2.5v-9.8h1.4s.13 1.75.1 1.7c.4-.6.9-1.1 1.4-1.4c.5-.4 1.1-.6 1.9-.6c.7 0 1.2.2 1.7.6c.5.3.8.9 1 1.6c.4-.7.9-1.2 1.4-1.6c.6-.4 1.2-.6 1.9-.6c.9 0 1.7.3 2.2.9c.5.6.8 1.4.8 2.5c-.03.01 0 6.7 0 6.7h-1.6s-.01-6.56 0-6.6c0-.7-.1-1.3-.4-1.7c-.3-.4-.7-.5-1.3-.5c-.3 0-.7.1-1.1.3c-.4.3-.8.6-1.1 1c-.3.4-.5.8-.6 1.3c-.03-.02 0 6.2 0 6.2h-1.6s-.01-6.6 0-6.6c0-.8-.1-1.3-.4-1.7c-.3-.4-.7-.5-1.3-.5c-.3 0-.7.1-1.1.3c-.4.3-.7.6-1 1c-.3.4-.6.8-.7 1.3v6.2h-1.6zm15.5-2.6c0-.7.2-1.2.5-1.7c.3-.4.7-.7 1.3-.9c.6-.3 1.3-.5 2.3-.7l2.5-.4c-.1-.9-.3-1.5-.7-1.9c-.4-.5-1.1-.7-1.9-.7c-.7 0-1.3.2-1.8.5c-.6.3-1 .6-1.4 1.1v-1.5c.3-.4.8-.7 1.4-.9c.6-.3 1.2-.4 1.9-.4c1.3 0 2.3.3 3 .9c.7.7 1.1 1.6 1.1 2.9c-.04-.04 0 6.3 0 6.3h-1.3s-.27-1.52-.3-1.5c-.4.5-1 1-1.6 1.3c-.6.3-1.3.5-2 .5c-.9 0-1.7-.3-2.2-.8c-.5-.5-.8-1.2-.8-2.1zm1.6-.1c0 .6.1 1 .5 1.2c.3.3.7.5 1.2.5c.6 0 1.2-.2 1.8-.6c.7-.4 1.1-.9 1.5-1.6v-1.9s-1.65.32-1.6.3c-.9.2-1.6.3-2.1.5c-.4.1-.8.3-1 .6c-.2.3-.3.6-.3 1zm9 2.7v-9.8h1.5s.07 1.67.1 1.7c.2-.6.6-1.1 1.1-1.5c.5-.3 1.1-.5 1.8-.5h.5c.2.1.3.1.4.1v1.4c-.2-.1-.6-.1-1-.1c-.6 0-1.2.2-1.7.6c-.5.4-.9 1-1.1 1.7v6.4h-1.6zm8.3-8.6h-2.2v-1.2h2.2v-3h1.6v3h2.2v1.2h-2.2v8.6h-1.6v-8.6z" stroke="none" fill="#fff"/></g><g id="Polygon12858"><path d="m1.2 11.9c.5.7 1 1.2 1.7 1.6c.7.4 1.5.6 2.2.6c.6 0 1.2-.1 1.6-.3c.4-.2.7-.5.9-.9c.3-.4.4-.7.4-1.1c0-.6-.2-1-.5-1.4c-.4-.4-.9-.8-1.6-1.2L4 8.2c-.8-.4-1.5-.9-1.9-1.5c-.5-.5-.7-1.2-.7-2c0-.7.2-1.3.5-1.8c.3-.5.8-.9 1.4-1.2c.6-.3 1.3-.5 2.2-.5c.6 0 1.3.2 2 .5c.7.2 1.2.6 1.7 1.1v1.9c-.5-.6-1.1-1.1-1.7-1.5c-.7-.4-1.4-.6-2-.6c-.7 0-1.3.2-1.7.6c-.5.3-.7.8-.7 1.4c0 .4.2.8.5 1.2c.3.3.8.7 1.5 1l1.9 1c.9.5 1.6 1.1 2 1.7c.5.6.7 1.3.7 2.2c0 .7-.2 1.4-.5 2c-.4.5-.9 1-1.6 1.3c-.7.3-1.5.5-2.5.5c-.8 0-1.6-.2-2.3-.5c-.7-.3-1.2-.6-1.6-1.1v-2zm12.2 3.3h-1.6V1.4h1.6v13.8zm1.9-5.2c0-.9.1-1.8.5-2.5c.4-.8.9-1.4 1.6-1.8c.6-.4 1.4-.6 2.3-.6c1.3 0 2.3.4 3.1 1.3c.7.9 1.1 2.1 1.1 3.8v.6h-7.1c.1 1 .4 1.8.9 2.4c.6.7 1.3 1 2.2 1c1.4 0 2.5-.5 3.4-1.5v1.6c-.4.4-.9.7-1.4.9c-.6.2-1.2.3-2 .3c-1 0-1.8-.2-2.5-.7c-.7-.4-1.2-1-1.6-1.7c-.4-.8-.5-1.7-.5-2.7v-.4zm7-.4c0-1.1-.2-1.9-.7-2.4c-.5-.6-1.1-.8-1.9-.8c-.5 0-1 .1-1.4.3c-.4.3-.7.7-1 1.2c-.3.4-.4 1-.4 1.7h5.4zm2.8.4c0-.9.2-1.8.5-2.5c.4-.8.9-1.4 1.6-1.8c.7-.4 1.4-.6 2.3-.6c1.3 0 2.4.4 3.1 1.3c.8.9 1.1 2.1 1.1 3.8c.03-.05 0 .6 0 .6h-7c0 1 .3 1.8.9 2.4c.5.7 1.2 1 2.1 1c1.4 0 2.5-.5 3.5-1.5v1.6c-.4.4-.9.7-1.5.9c-.6.2-1.2.3-2 .3c-1 0-1.8-.2-2.5-.7c-.7-.4-1.2-1-1.6-1.7c-.3-.8-.5-1.7-.5-2.7v-.4zm7-.4c0-1.1-.2-1.9-.7-2.4c-.5-.6-1.1-.8-1.9-.8c-.5 0-.9.1-1.4.3c-.4.3-.7.7-1 1.2c-.2.4-.4 1-.4 1.7h5.4zm5.1 5.6h-1.6V1.4h1.6v8.3l4.5-4.3h2l-4.9 4.7l5.3 5.1h-2.2l-4.7-4.5v4.5zm8.7 2.2h-1.3l.8-4.6h2l-1.5 4.6zm8.4-2.2V1.4h1.6v5.9c.4-.6.9-1.1 1.5-1.6c.6-.4 1.2-.6 2-.6c1 0 1.8.3 2.4.9c.5.7.8 1.6.8 2.7v6.5H61s.02-6.34 0-6.3c0-.9-.1-1.5-.4-1.9c-.3-.4-.8-.6-1.5-.6c-.4 0-.8.1-1.3.4c-.4.3-.8.6-1.2 1.1c-.3.4-.6.9-.7 1.4v5.9h-1.6zm10-5.1c0-.9.2-1.8.6-2.6c.4-.8.9-1.4 1.6-1.8c.7-.4 1.5-.6 2.4-.6c.9 0 1.7.2 2.4.6c.7.4 1.3 1 1.6 1.8c.4.8.6 1.7.6 2.6v.3c0 1-.2 1.9-.6 2.7c-.3.7-.9 1.3-1.6 1.7c-.7.5-1.5.7-2.4.7c-.9 0-1.7-.2-2.4-.7c-.7-.4-1.2-1-1.6-1.7c-.4-.8-.6-1.7-.6-2.7v-.3zm1.7.3c0 1.2.2 2.1.8 2.8c.5.7 1.2 1 2.1 1c.9 0 1.7-.3 2.2-1c.5-.7.8-1.6.8-2.8v-.3c0-1.1-.3-2-.8-2.7c-.5-.7-1.3-1-2.2-1c-.9 0-1.6.3-2.1 1c-.6.7-.8 1.6-.8 2.7v.3zm9.4 4.8V5.4h1.5l.1 1.7c.3-.6.6-1.1 1.1-1.5c.5-.3 1.1-.5 1.8-.5h.5c.2.1.4.1.4.1v1.4c-.2-.1-.6-.1-1-.1c-.6 0-1.2.2-1.7.6c-.5.4-.9 1-1.1 1.7c.02 0 0 6.4 0 6.4h-1.6zm8.4-11.5h-1.6v-2h1.6v2zm0 11.5h-1.6V5.4h1.6v9.8zm9.5 0h-7.5v-1l5.4-7.5H86V5.4h7.3v.9l-5.4 7.6h5.4v1.3zm1.2-5.1c0-.9.2-1.8.6-2.6c.4-.8.9-1.4 1.6-1.8c.7-.4 1.5-.6 2.4-.6c.9 0 1.7.2 2.4.6c.7.4 1.2 1 1.6 1.8c.4.8.6 1.7.6 2.6v.3c0 1-.2 1.9-.6 2.7c-.4.7-.9 1.3-1.6 1.7c-.7.5-1.5.7-2.4.7c-.9 0-1.7-.2-2.4-.7c-.7-.4-1.2-1-1.6-1.7c-.4-.8-.6-1.7-.6-2.7v-.3zm1.7.3c0 1.2.2 2.1.7 2.8c.6.7 1.3 1 2.2 1c.9 0 1.7-.3 2.2-1c.5-.7.8-1.6.8-2.8v-.3c0-1.1-.3-2-.8-2.7c-.5-.7-1.3-1-2.2-1c-.9 0-1.6.3-2.2 1c-.5.7-.7 1.6-.7 2.7v.3zm9.4 4.8V5.4h1.5s.09 1.94.1 1.9c.3-.6.8-1.1 1.4-1.5c.6-.5 1.3-.7 2.1-.7c1 0 1.8.3 2.4.9c.5.7.8 1.6.8 2.7c.02.03 0 6.5 0 6.5h-1.6s.02-6.34 0-6.3c0-.9-.1-1.5-.4-1.9c-.3-.4-.8-.6-1.5-.6c-.4 0-.8.1-1.3.4c-.4.3-.8.7-1.2 1.1c-.3.5-.6 1-.7 1.5v5.8h-1.6zm11.7-8.6h-2.2V5.4h2.2v-3h1.6v3h2.1v1.2h-2.1v8.6h-1.6V6.6zm4.4 6c0-.7.2-1.2.6-1.7c.2-.4.7-.7 1.2-.9c.6-.3 1.4-.5 2.4-.7l2.4-.4c0-.9-.2-1.5-.7-1.9c-.4-.5-1-.7-1.9-.7c-.6 0-1.2.2-1.8.5c-.5.3-1 .6-1.4 1.1V6.4c.4-.4.9-.7 1.4-.9c.6-.3 1.3-.4 2-.4c1.2 0 2.2.3 2.9.9c.7.7 1.1 1.6 1.1 2.9v6.3h-1.3s-.24-1.52-.2-1.5c-.5.5-1 1-1.7 1.3c-.6.3-1.2.5-2 .5c-.9 0-1.6-.3-2.2-.8c-.5-.5-.8-1.2-.8-2.1zm1.6-.1c0 .6.2 1 .5 1.2c.3.3.7.5 1.2.5c.6 0 1.3-.2 1.9-.6c.6-.4 1.1-.9 1.4-1.6c.02.01 0-1.9 0-1.9c0 0-1.62.32-1.6.3c-.9.2-1.6.3-2.1.5c-.4.1-.7.3-1 .6c-.2.3-.3.6-.3 1zm10.6 2.7h-1.5V1.4h1.5v13.8zm7.3 0V1.4h1.6v5.9c.4-.6.8-1.1 1.4-1.6c.6-.4 1.3-.6 2.1-.6c1 0 1.8.3 2.4.9c.5.7.8 1.6.8 2.7v6.5h-1.6V8.9c0-.9-.1-1.5-.4-1.9c-.3-.4-.8-.6-1.5-.6c-.4 0-.9.1-1.3.4c-.5.3-.9.6-1.2 1.1c-.3.4-.6.9-.7 1.4v5.9h-1.6zm10-2.6c0-.7.2-1.2.5-1.7c.3-.4.8-.7 1.3-.9c.6-.3 1.4-.5 2.3-.7l2.5-.4c0-.9-.3-1.5-.7-1.9c-.4-.5-1-.7-1.9-.7c-.6 0-1.2.2-1.8.5c-.6.3-1 .6-1.4 1.1V6.4c.4-.4.8-.7 1.4-.9c.6-.3 1.2-.4 1.9-.4c1.3 0 2.3.3 3 .9c.7.7 1.1 1.6 1.1 2.9c-.03-.04 0 6.3 0 6.3h-1.3s-.26-1.52-.3-1.5c-.4.5-1 1-1.6 1.3c-.6.3-1.3.5-2 .5c-.9 0-1.6-.3-2.2-.8c-.5-.5-.8-1.2-.8-2.1zm1.6-.1c0 .6.2 1 .5 1.2c.3.3.7.5 1.2.5c.6 0 1.2-.2 1.9-.6c.6-.4 1.1-.9 1.4-1.6v-1.9s-1.63.32-1.6.3c-.9.2-1.6.3-2.1.5c-.4.1-.8.3-1 .6c-.2.3-.3.6-.3 1zm9 2.7V5.4h1.5l.1 1.9c.4-.6.8-1.1 1.5-1.5c.6-.5 1.2-.7 2-.7c1 0 1.8.3 2.4.9c.6.7.8 1.6.8 2.7c.03.03 0 6.5 0 6.5h-1.6s.03-6.34 0-6.3c0-.9-.1-1.5-.4-1.9c-.3-.4-.8-.6-1.4-.6c-.5 0-.9.1-1.4.4c-.4.3-.8.7-1.2 1.1c-.3.5-.5 1-.7 1.5c.02 0 0 5.8 0 5.8h-1.6zm10-4.9c0-1.1.2-2 .6-2.8c.4-.7.9-1.3 1.5-1.8c.7-.4 1.4-.6 2.2-.6c.7 0 1.3.2 1.8.5c.6.3 1 .7 1.4 1.2V1.4h1.6v13.8h-1.5s-.09-1.54-.1-1.5c-.3.5-.8.9-1.3 1.3c-.6.3-1.2.5-1.9.5c-.8 0-1.5-.3-2.2-.7c-.6-.4-1.1-1-1.5-1.8c-.4-.8-.6-1.7-.6-2.7zm1.7 0c0 .8.1 1.5.4 2.1c.2.6.6 1 1 1.3c.4.3.9.5 1.5.5c.6 0 1.2-.2 1.7-.7c.6-.4.9-1 1.2-1.6V8.7c-.3-.7-.6-1.3-1.2-1.7c-.5-.4-1.1-.6-1.7-.6c-.5 0-1 .1-1.5.4c-.4.3-.8.8-1 1.4c-.3.6-.4 1.3-.4 2.1zm11.6 4.9h-1.6V1.4h1.6v13.8zm1.8-5.2c0-.9.2-1.8.6-2.5c.4-.8.9-1.4 1.5-1.8c.7-.4 1.5-.6 2.3-.6c1.4 0 2.4.4 3.1 1.3c.8.9 1.2 2.1 1.2 3.8c-.03-.05 0 .6 0 .6h-7.1c.1 1 .4 1.8.9 2.4c.5.7 1.2 1 2.1 1c1.4 0 2.6-.5 3.5-1.5v1.6c-.4.4-.9.7-1.5.9c-.5.2-1.2.3-2 .3c-.9 0-1.7-.2-2.4-.7c-.7-.4-1.3-1-1.6-1.7c-.4-.8-.6-1.7-.6-2.7v-.4zm7.1-.4c0-1.1-.3-1.9-.8-2.4c-.4-.6-1.1-.8-1.8-.8c-.5 0-1 .1-1.4.3c-.4.3-.8.7-1 1.2c-.3.4-.4 1-.5 1.7h5.5zm3.1 3.1c.8 1 1.8 1.5 3.1 1.5c.7 0 1.2-.2 1.6-.4c.3-.3.5-.7.5-1.1c0-.4-.1-.7-.3-.9c-.2-.3-.6-.5-1.1-.7l-1.4-.6c-.8-.3-1.4-.7-1.7-1.1c-.4-.5-.6-1-.6-1.7c0-.4.1-.9.4-1.3c.2-.4.6-.7 1.1-.9c.5-.3 1.1-.4 1.8-.4c.6 0 1.1.1 1.7.3c.5.2.9.5 1.3.8v1.7c-.4-.5-.9-.9-1.4-1.2c-.5-.2-1.1-.3-1.6-.3c-.6 0-1 .1-1.3.4c-.3.2-.5.5-.5.9c0 .3.2.6.4.8c.2.2.6.4 1.2.6l1.3.5c.8.4 1.4.8 1.7 1.2c.4.5.6 1.1.6 1.8c0 .9-.3 1.6-1 2.1c-.7.5-1.6.8-2.7.8c-.7 0-1.3-.1-1.8-.3c-.5-.2-1-.5-1.3-.8v-1.7zm13 0c.8 1 1.8 1.5 3.1 1.5c.7 0 1.2-.2 1.6-.4c.3-.3.5-.7.5-1.1c0-.4-.1-.7-.3-.9c-.2-.3-.5-.5-1.1-.7l-1.3-.6c-.8-.3-1.4-.7-1.8-1.1c-.4-.5-.6-1-.6-1.7c0-.4.1-.9.4-1.3c.2-.4.6-.7 1.1-.9c.5-.3 1.1-.4 1.8-.4c.6 0 1.2.1 1.7.3c.5.2 1 .5 1.3.8v1.7c-.4-.5-.9-.9-1.4-1.2c-.5-.2-1.1-.3-1.6-.3c-.6 0-1 .1-1.3.4c-.3.2-.5.5-.5.9c0 .3.2.6.4.8c.2.2.6.4 1.2.6l1.3.5c.8.4 1.4.8 1.8 1.2c.3.5.5 1.1.5 1.8c0 .9-.3 1.6-1 2.1c-.7.5-1.6.8-2.7.8c-.7 0-1.3-.1-1.8-.3c-.5-.2-1-.5-1.3-.8v-1.7zm10.3-9h-1.6v-2h1.6v2zm0 11.5h-1.6V5.4h1.6v9.8zm3.6-8.6h-2.2V5.4h2.2v-3h1.5v3h2.2v1.2h-2.2v8.6H224V6.6zm8.6 0V5.4h1.9s.04-1.01 0-1c0-.6.2-1.2.4-1.7c.2-.5.6-.9 1-1.2c.5-.3 1-.5 1.7-.5c.5 0 .9.1 1.2.3v1.4c-.2-.2-.6-.3-1.1-.3c-.5 0-.9.1-1.1.5c-.3.3-.5.8-.5 1.5c.04.01 0 1 0 1h2.4v1.2h-2.4v8.6h-1.6V6.6h-1.9zm9.6 8.6h-1.6V1.4h1.6v13.8zm2.4-3.4c0 1.2.2 2.1.8 2.7c.5.6 1.3 1 2.4 1c.7 0 1.4-.3 2-.7c.6-.4 1.1-1 1.5-1.6c-.02.01.1 2 .1 2h1.5V5.4h-1.6s-.04 5.76 0 5.8c-.2.5-.4 1-.7 1.4c-.4.5-.8.9-1.2 1.2c-.5.2-.9.4-1.4.4c-.7 0-1.1-.2-1.4-.6c-.3-.5-.5-1.1-.5-1.9c.05 0 0-6.3 0-6.3h-1.5s-.04 6.43 0 6.4zm10.4.9c.8 1 1.9 1.5 3.2 1.5c.6 0 1.1-.2 1.5-.4c.4-.3.6-.7.6-1.1c0-.4-.1-.7-.3-.9c-.2-.3-.6-.5-1.2-.7l-1.3-.6c-.8-.3-1.4-.7-1.8-1.1c-.4-.5-.6-1-.6-1.7c0-.4.2-.9.4-1.3c.3-.4.7-.7 1.2-.9c.4-.3 1.1-.4 1.8-.4c.5 0 1.1.1 1.6.3c.6.2 1 .5 1.4.8v1.7c-.5-.5-1-.9-1.5-1.2c-.5-.2-1-.3-1.5-.3c-.6 0-1.1.1-1.4.4c-.3.2-.4.5-.4.9c0 .3.1.6.3.8c.3.2.7.4 1.2.6l1.3.5c.8.4 1.4.8 1.8 1.2c.4.5.6 1.1.6 1.8c0 .9-.4 1.6-1.1 2.1c-.7.5-1.6.8-2.6.8c-.7 0-1.3-.1-1.9-.3c-.5-.2-.9-.5-1.3-.8v-1.7zm8.8 2.5V1.4h1.6s-.05 5.91 0 5.9c.3-.6.8-1.1 1.4-1.6c.6-.4 1.3-.6 2-.6c1.1 0 1.9.3 2.4.9c.6.7.8 1.6.8 2.7c.05.03 0 6.5 0 6.5h-1.5s-.03-6.34 0-6.3c0-.9-.2-1.5-.5-1.9c-.3-.4-.7-.6-1.4-.6c-.5 0-.9.1-1.3.4c-.5.3-.9.6-1.2 1.1c-.4.4-.6.9-.7 1.4c-.05.04 0 5.9 0 5.9h-1.6zm14.6-2.6c0-.7.2-1.2.6-1.7c.3-.4.7-.7 1.3-.9c.5-.3 1.3-.5 2.3-.7l2.4-.4c0-.9-.2-1.5-.6-1.9c-.5-.5-1.1-.7-2-.7c-.6 0-1.2.2-1.8.5c-.5.3-1 .6-1.4 1.1V6.4c.4-.4.9-.7 1.5-.9c.5-.3 1.2-.4 1.9-.4c1.2 0 2.2.3 2.9.9c.8.7 1.1 1.6 1.1 2.9v6.3h-1.2s-.32-1.52-.3-1.5c-.5.5-1 1-1.6 1.3c-.6.3-1.3.5-2.1.5c-.9 0-1.6-.3-2.1-.8c-.6-.5-.9-1.2-.9-2.1zm1.6-.1c0 .6.2 1 .5 1.2c.3.3.7.5 1.3.5c.6 0 1.2-.2 1.8-.6c.6-.4 1.1-.9 1.4-1.6c.05.01 0-1.9 0-1.9c0 0-1.59.32-1.6.3c-.9.2-1.6.3-2 .5c-.5.1-.8.3-1 .6c-.3.3-.4.6-.4 1zm8.4-2.5c0-1 .2-1.8.5-2.6c.4-.7.9-1.3 1.5-1.7c.7-.4 1.4-.6 2.3-.6c.6 0 1.2.2 1.7.5c.6.3 1 .7 1.4 1.3c-.03-.04.1-1.5.1-1.5h1.4s.04 9.43 0 9.4c0 .9-.2 1.7-.5 2.4c-.4.7-1 1.2-1.7 1.6c-.8.3-1.6.5-2.6.5c-.7 0-1.3 0-1.8-.2c-.5-.1-1-.4-1.4-.7v-1.5c.9.7 2 1.1 3.2 1.1c1 0 1.8-.3 2.4-.8c.6-.6.9-1.4.9-2.4v-1.5c-.4.5-.8.9-1.4 1.2c-.5.3-1.1.5-1.7.5c-.9 0-1.6-.2-2.3-.6c-.6-.4-1.1-1-1.5-1.7c-.3-.8-.5-1.7-.5-2.7zm1.6 0c0 .8.2 1.4.4 2c.3.5.6 1 1.1 1.3c.4.3.9.4 1.4.4c.6 0 1.2-.2 1.7-.6c.5-.5.9-1 1.2-1.7V8.6c-.3-.6-.7-1.2-1.2-1.6c-.5-.4-1.1-.6-1.7-.6c-.5 0-1 .1-1.5.4c-.4.3-.7.7-1 1.3c-.2.5-.4 1.2-.4 1.9zm9.2 2.6c0-.7.2-1.2.6-1.7c.3-.4.7-.7 1.2-.9c.6-.3 1.4-.5 2.4-.7l2.4-.4c0-.9-.2-1.5-.6-1.9c-.5-.5-1.1-.7-2-.7c-.6 0-1.2.2-1.8.5c-.5.3-1 .6-1.4 1.1V6.4c.4-.4.9-.7 1.5-.9c.5-.3 1.2-.4 1.9-.4c1.2 0 2.2.3 2.9.9c.7.7 1.1 1.6 1.1 2.9v6.3h-1.2s-.33-1.52-.3-1.5c-.5.5-1 1-1.6 1.3c-.7.3-1.3.5-2.1.5c-.9 0-1.6-.3-2.2-.8c-.5-.5-.8-1.2-.8-2.1zm1.6-.1c0 .6.2 1 .5 1.2c.3.3.7.5 1.2.5c.7 0 1.3-.2 1.9-.6c.6-.4 1.1-.9 1.4-1.6c.03.01 0-1.9 0-1.9c0 0-1.6.32-1.6.3c-.9.2-1.6.3-2 .5c-.5.1-.8.3-1 .6c-.3.3-.4.6-.4 1zm10.7-8.8h-1.6v-2h1.6v2zm0 11.5h-1.6V5.4h1.6v9.8zm2.5 0V5.4h1.5l.1 1.9c.4-.6.9-1.1 1.5-1.5c.6-.5 1.3-.7 2-.7c1.1 0 1.8.3 2.4.9c.6.7.8 1.6.8 2.7c.04.03 0 6.5 0 6.5h-1.6s.04-6.34 0-6.3c0-.9-.1-1.5-.4-1.9c-.3-.4-.8-.6-1.4-.6c-.5 0-.9.1-1.4.4c-.4.3-.8.7-1.2 1.1c-.3.5-.5 1-.7 1.5c.03 0 0 5.8 0 5.8H314zm10.3-2.5c.8 1 1.9 1.5 3.2 1.5c.6 0 1.1-.2 1.5-.4c.4-.3.6-.7.6-1.1c0-.4-.1-.7-.3-.9c-.2-.3-.6-.5-1.2-.7l-1.3-.6c-.8-.3-1.4-.7-1.8-1.1c-.4-.5-.6-1-.6-1.7c0-.4.2-.9.4-1.3c.3-.4.7-.7 1.1-.9c.5-.3 1.2-.4 1.9-.4c.5 0 1.1.1 1.6.3c.6.2 1 .5 1.4.8v1.7c-.5-.5-1-.9-1.5-1.2c-.5-.2-1-.3-1.5-.3c-.6 0-1.1.1-1.4.4c-.3.2-.4.5-.4.9c0 .3.1.6.3.8c.3.2.7.4 1.2.6l1.3.5c.8.4 1.4.8 1.8 1.2c.4.5.6 1.1.6 1.8c0 .9-.4 1.6-1.1 2.1c-.7.5-1.6.8-2.6.8c-.7 0-1.3-.1-1.9-.3c-.5-.2-.9-.5-1.3-.8v-1.7zm9.7-6.1h-2.1V5.4h2.1v-3h1.6v3h2.2v1.2h-2.2v8.6H334V6.6zm10.8 0h-2.2V5.4h2.2v-3h1.6v3h2.2v1.2h-2.2v8.6h-1.6V6.6zm5.2 8.6V1.4h1.5s.04 5.91 0 5.9c.4-.6.9-1.1 1.5-1.6c.6-.4 1.3-.6 2-.6c1.1 0 1.9.3 2.4.9c.6.7.8 1.6.8 2.7c.03.03 0 6.5 0 6.5h-1.6s.05-6.34 0-6.3c0-.9-.1-1.5-.4-1.9c-.3-.4-.8-.6-1.4-.6c-.5 0-.9.1-1.4.4c-.4.3-.8.6-1.2 1.1c-.3.4-.5.9-.7 1.4c.04.04 0 5.9 0 5.9H350zm9.9-5.2c0-.9.2-1.8.6-2.5c.4-.8.9-1.4 1.5-1.8c.7-.4 1.5-.6 2.3-.6c1.4 0 2.4.4 3.1 1.3c.8.9 1.2 2.1 1.2 3.8c-.04-.05 0 .6 0 .6h-7.1c.1 1 .4 1.8.9 2.4c.5.7 1.2 1 2.1 1c1.4 0 2.6-.5 3.5-1.5v1.6c-.4.4-.9.7-1.5.9c-.5.2-1.2.3-2 .3c-.9 0-1.8-.2-2.4-.7c-.7-.4-1.3-1-1.6-1.7c-.4-.8-.6-1.7-.6-2.7v-.4zm7.1-.4c0-1.1-.3-1.9-.8-2.4c-.4-.6-1.1-.8-1.8-.8c-.6 0-1 .1-1.4.3c-.4.3-.8.7-1 1.2c-.3.4-.4 1-.5 1.7h5.5zm7.4.7c0-1.1.2-2 .6-2.8c.4-.7.9-1.3 1.6-1.8c.6-.4 1.4-.6 2.2-.6c.6 0 1.2.2 1.7.5c.6.3 1.1.7 1.4 1.2c.02.02 0-5.4 0-5.4h1.6v13.8h-1.4s-.16-1.54-.2-1.5c-.3.5-.8.9-1.3 1.3c-.6.3-1.2.5-1.8.5c-.8 0-1.6-.3-2.2-.7c-.7-.4-1.2-1-1.6-1.8c-.4-.8-.6-1.7-.6-2.7zm1.7 0c0 .8.1 1.5.4 2.1c.2.6.6 1 1 1.3c.5.3 1 .5 1.5.5c.6 0 1.2-.2 1.7-.7c.6-.4 1-1 1.2-1.6V8.7c-.2-.7-.6-1.3-1.2-1.7c-.5-.4-1.1-.6-1.7-.6c-.5 0-1 .1-1.5.4c-.4.3-.7.8-1 1.4c-.3.6-.4 1.3-.4 2.1zm9.3-.2c0-.9.2-1.8.6-2.6c.4-.8.9-1.4 1.6-1.8c.7-.4 1.5-.6 2.4-.6c.9 0 1.7.2 2.4.6c.7.4 1.2 1 1.6 1.8c.4.8.6 1.7.6 2.6v.3c0 1-.2 1.9-.6 2.7c-.4.7-.9 1.3-1.6 1.7c-.7.5-1.5.7-2.4.7c-.9 0-1.7-.2-2.4-.7c-.7-.4-1.2-1-1.6-1.7c-.4-.8-.6-1.7-.6-2.7v-.3zm1.6.3c0 1.2.3 2.1.8 2.8c.6.7 1.3 1 2.2 1c.9 0 1.7-.3 2.2-1c.5-.7.8-1.6.8-2.8v-.3c0-1.1-.3-2-.8-2.7c-.5-.7-1.3-1-2.2-1c-.9 0-1.6.3-2.2 1c-.5.7-.8 1.6-.8 2.7v.3zm9-.3c0-.9.2-1.8.6-2.6c.4-.8.9-1.4 1.6-1.8c.7-.4 1.5-.6 2.4-.6c.9 0 1.7.2 2.4.6c.7.4 1.2 1 1.6 1.8c.4.8.6 1.7.6 2.6v.3c0 1-.2 1.9-.6 2.7c-.4.7-.9 1.3-1.6 1.7c-.7.5-1.5.7-2.4.7c-.9 0-1.7-.2-2.4-.7c-.7-.4-1.2-1-1.6-1.7c-.4-.8-.6-1.7-.6-2.7v-.3zm1.7.3c0 1.2.2 2.1.7 2.8c.6.7 1.3 1 2.2 1c.9 0 1.7-.3 2.2-1c.5-.7.8-1.6.8-2.8v-.3c0-1.1-.3-2-.8-2.7c-.5-.7-1.3-1-2.2-1c-.9 0-1.6.3-2.2 1c-.5.7-.7 1.6-.7 2.7v.3zm9.4 4.8V5.4h1.5s.07 1.67.1 1.7c.2-.6.6-1.1 1.1-1.5c.5-.3 1.1-.5 1.8-.5h.5c.2.1.3.1.4.1v1.4c-.2-.1-.6-.1-1-.1c-.6 0-1.2.2-1.7.6c-.5.4-.9 1-1.1 1.7v6.4h-1.6zm11.5 4V5.4h1.4s.15 1.55.2 1.5c.3-.5.7-1 1.3-1.3c.6-.3 1.2-.5 1.8-.5c.9 0 1.6.2 2.2.6c.7.5 1.2 1.1 1.6 1.8c.4.8.5 1.7.5 2.8c0 1-.1 1.9-.5 2.7c-.4.8-.9 1.4-1.6 1.8c-.6.4-1.3.7-2.2.7c-.6 0-1.2-.2-1.8-.5c-.5-.3-1-.8-1.3-1.3c-.03.02 0 5.5 0 5.5h-1.6zm1.6-7.4c.2.7.6 1.3 1.1 1.7c.6.5 1.2.7 1.8.7c.5 0 1-.2 1.5-.5c.4-.3.8-.8 1-1.4c.3-.6.4-1.2.4-2c0-.8-.1-1.5-.4-2.1c-.2-.6-.6-1.1-1-1.4c-.5-.3-1-.4-1.5-.4c-.6 0-1.2.2-1.8.6c-.5.5-.9 1-1.1 1.7v3.1zm8.6.8c0-.7.2-1.2.6-1.7c.3-.4.7-.7 1.3-.9c.5-.3 1.3-.5 2.3-.7l2.4-.4c0-.9-.2-1.5-.6-1.9c-.5-.5-1.1-.7-2-.7c-.6 0-1.2.2-1.7.5c-.6.3-1.1.6-1.5 1.1V6.4c.4-.4.9-.7 1.5-.9c.6-.3 1.2-.4 1.9-.4c1.2 0 2.2.3 2.9.9c.8.7 1.1 1.6 1.1 2.9c.02-.04 0 6.3 0 6.3h-1.2l-.3-1.5c-.5.5-1 1-1.6 1.3c-.6.3-1.3.5-2 .5c-1 0-1.7-.3-2.2-.8c-.6-.5-.9-1.2-.9-2.1zm1.6-.1c0 .6.2 1 .5 1.2c.3.3.7.5 1.3.5c.6 0 1.2-.2 1.8-.6c.6-.4 1.1-.9 1.5-1.6c-.05.01 0-1.9 0-1.9c0 0-1.69.32-1.7.3c-.9.2-1.6.3-2 .5c-.5.1-.8.3-1 .6c-.2.3-.4.6-.4 1zm9.1 2.7V5.4h1.4s.15 1.94.1 1.9c.4-.6.9-1.1 1.5-1.5c.6-.5 1.3-.7 2.1-.7c1 0 1.8.3 2.3.9c.6.7.9 1.6.9 2.7c-.02.03 0 6.5 0 6.5h-1.6s-.02-6.34 0-6.3c0-.9-.2-1.5-.5-1.9c-.2-.4-.7-.6-1.4-.6c-.4 0-.9.1-1.3.4c-.5.3-.9.7-1.2 1.1c-.4.5-.6 1-.7 1.5c-.03 0 0 5.8 0 5.8h-1.6zm10-5.2c0-.9.1-1.8.5-2.5c.4-.8.9-1.4 1.6-1.8c.6-.4 1.4-.6 2.3-.6c1.3 0 2.3.4 3.1 1.3c.7.9 1.1 2.1 1.1 3.8v.6H451c.1 1 .4 1.8.9 2.4c.5.7 1.3 1 2.2 1c1.3 0 2.5-.5 3.4-1.5v1.6c-.4.4-.9.7-1.4.9c-.6.2-1.3.3-2 .3c-1 0-1.8-.2-2.5-.7c-.7-.4-1.2-1-1.6-1.7c-.4-.8-.5-1.7-.5-2.7v-.4zm7-.4c0-1.1-.2-1.9-.7-2.4c-.5-.6-1.1-.8-1.9-.8c-.5 0-1 .1-1.4.3c-.4.3-.7.7-1 1.2c-.3.4-.4 1-.4 1.7h5.4zm5.1 5.6H460V1.4h1.6v13.8zm4.3 0h-2v-2.3h2v2.3z" stroke="none" fill="#fff"/></g></svg>