<?xml version="1.0" standalone="no"?><!DOCTYPE svg PUBLIC "-//W3C//DTD SVG 1.1//EN" "http://www.w3.org/Graphics/SVG/1.1/DTD/svg11.dtd"><svg xmlns="http://www.w3.org/2000/svg" version="1.1" width="517px" height="133.2px" viewBox="0 -6 517 133.2" style="top:-6px"><desc>텍스트 B</desc><defs/><g id="Polygon12571"><path d="m4.1 79.2L.3 69.4h1.7l3 8.1l3-8.1h1.6l-3.8 9.8H4.1zm8.5-11.5h-1.5v-2h1.5v2zm0 11.5h-1.5v-9.8h1.5v9.8zm2.2-2.5c.8 1 1.9 1.5 3.1 1.5c.7 0 1.2-.2 1.6-.4c.4-.3.6-.7.6-1.1c0-.4-.1-.7-.3-.9c-.2-.3-.6-.5-1.2-.7l-1.3-.6c-.8-.3-1.4-.7-1.8-1.1c-.4-.5-.6-1-.6-1.7c0-.4.2-.9.4-1.3c.3-.4.6-.7 1.1-.9c.5-.3 1.1-.4 1.9-.4c.5 0 1.1.1 1.6.3c.6.2 1 .5 1.4.8v1.7c-.5-.5-1-.9-1.5-1.2c-.5-.2-1-.3-1.5-.3c-.6 0-1.1.1-1.4.4c-.3.2-.4.5-.4.9c0 .3.1.6.3.8c.3.2.7.4 1.2.6l1.3.5c.8.4 1.4.8 1.8 1.2c.4.5.6 1.1.6 1.8c0 .9-.4 1.6-1.1 2.1c-.7.5-1.6.8-2.7.8c-.6 0-1.2-.1-1.8-.3c-.5-.2-.9-.5-1.3-.8v-1.7zm10.3-9h-1.5v-2h1.5v2zm0 11.5h-1.5v-9.8h1.5v9.8zm2.6 0V65.4h1.6s.02 5.42 0 5.4c.4-.5.8-.9 1.4-1.2c.6-.3 1.1-.5 1.8-.5c.8 0 1.5.2 2.2.6c.6.5 1.2 1.1 1.5 1.8c.4.8.6 1.7.6 2.8c0 1-.2 1.9-.6 2.7c-.3.8-.9 1.4-1.5 1.8c-.7.4-1.4.7-2.2.7c-.7 0-1.3-.2-1.8-.5c-.6-.4-1-.8-1.4-1.3l-.1 1.5h-1.5zm1.6-3.3c.3.6.7 1.2 1.2 1.6c.5.5 1.1.7 1.7.7c.6 0 1.1-.2 1.5-.5c.5-.3.8-.7 1.1-1.3c.2-.6.3-1.3.3-2.1c0-.8-.1-1.5-.4-2.1c-.2-.6-.6-1.1-1-1.4c-.4-.3-.9-.4-1.5-.4c-.6 0-1.2.2-1.7.6c-.5.4-.9 1-1.2 1.7v3.2zm11-8.2h-1.6v-2h1.6v2zm0 11.5h-1.6v-9.8h1.6v9.8zm4.1 0h-1.5V65.4h1.5v13.8zm4.2-11.5H47v-2h1.6v2zm0 11.5H47v-9.8h1.6v9.8zm3.6-8.6H50v-1.2h2.2v-3h1.5v3h2.2v1.2h-2.2v8.6h-1.5v-8.6zm8.2 8.6l-3.9-9.8h1.7l3.1 7.8l3-7.8h1.6l-5.5 13.8h-1.7l1.7-4zm11.6 0V65.4h1.6v5.4c.4-.5.8-.9 1.4-1.2c.5-.3 1.1-.5 1.8-.5c.8 0 1.5.2 2.2.6c.6.5 1.1 1.1 1.5 1.8c.4.8.6 1.7.6 2.8c0 1-.2 1.9-.6 2.7c-.4.8-.9 1.4-1.5 1.8c-.7.4-1.4.7-2.2.7c-.7 0-1.3-.2-1.9-.5c-.5-.4-1-.8-1.3-1.3c-.02-.04-.1 1.5-.1 1.5H72zm1.6-3.3c.3.6.6 1.2 1.2 1.6c.5.5 1.1.7 1.7.7c.6 0 1-.2 1.5-.5c.4-.3.8-.7 1-1.3c.3-.6.4-1.3.4-2.1c0-.8-.1-1.5-.4-2.1c-.2-.6-.6-1.1-1-1.4c-.5-.3-1-.4-1.5-.4c-.6 0-1.2.2-1.7.6c-.6.4-.9 1-1.2 1.7v3.2zm8.8-1.9c0-.9.2-1.8.6-2.5c.4-.8.9-1.4 1.5-1.8c.7-.4 1.5-.6 2.3-.6c1.4 0 2.4.4 3.1 1.3c.8.9 1.2 2.1 1.2 3.8c-.04-.05 0 .6 0 .6H84c.1 1 .4 1.8.9 2.4c.5.7 1.2 1 2.1 1c1.4 0 2.6-.5 3.5-1.5v1.6c-.4.4-.9.7-1.5.9c-.5.2-1.2.3-2 .3c-.9 0-1.8-.2-2.4-.7c-.7-.4-1.3-1-1.6-1.7c-.4-.8-.6-1.7-.6-2.7v-.4zm7.1-.4c0-1.1-.3-1.9-.8-2.4c-.4-.6-1.1-.8-1.9-.8c-.5 0-.9.1-1.3.3c-.4.3-.8.7-1 1.2c-.3.4-.4 1-.5 1.7h5.5zm3.5 5.6v-9.8h1.4s.13 1.94.1 1.9c.4-.6.9-1.1 1.5-1.5c.6-.5 1.3-.7 2-.7c1.1 0 1.9.3 2.4.9c.6.7.9 1.6.9 2.7c-.03.03 0 6.5 0 6.5h-1.6s-.04-6.34 0-6.3c0-.9-.2-1.5-.5-1.9c-.3-.4-.7-.6-1.4-.6c-.5 0-.9.1-1.3.4c-.5.3-.9.7-1.2 1.1c-.4.5-.6 1-.7 1.5c-.05 0 0 5.8 0 5.8H93zm9.9-5.2c0-.9.2-1.8.6-2.5c.4-.8.9-1.4 1.6-1.8c.6-.4 1.4-.6 2.3-.6c1.3 0 2.3.4 3.1 1.3c.7.9 1.1 2.1 1.1 3.8c-.02-.05 0 .6 0 .6h-7.1c.1 1 .4 1.8.9 2.4c.5.7 1.2 1 2.1 1c1.4 0 2.6-.5 3.5-1.5v1.6c-.4.4-.9.7-1.4.9c-.6.2-1.3.3-2.1.3c-.9 0-1.7-.2-2.4-.7c-.7-.4-1.2-1-1.6-1.7c-.4-.8-.6-1.7-.6-2.7v-.4zm7.1-.4c0-1.1-.3-1.9-.7-2.4c-.5-.6-1.2-.8-1.9-.8c-.5 0-1 .1-1.4.3c-.4.3-.8.7-1 1.2c-.3.4-.4 1-.5 1.7h5.5zm2.3-3v-1.2h1.9s.04-1.01 0-1c0-.6.2-1.2.4-1.7c.2-.5.6-.9 1-1.2c.5-.3 1.1-.5 1.7-.5c.5 0 .9.1 1.2.3v1.4c-.2-.2-.6-.3-1.1-.3c-.5 0-.8.1-1.1.5c-.3.3-.5.8-.5 1.5c.05.01 0 1 0 1h2.4v1.2h-2.4v8.6h-1.6v-8.6h-1.9zm9.6-2.9h-1.6v-2h1.6v2zm0 11.5h-1.6v-9.8h1.6v9.8zm3.5-8.6h-2.2v-1.2h2.2v-3h1.6v3h2.2v1.2H127v8.6h-1.6v-8.6zm4.8 6.1c.8 1 1.8 1.5 3.1 1.5c.6 0 1.1-.2 1.5-.4c.4-.3.6-.7.6-1.1c0-.4-.1-.7-.3-.9c-.2-.3-.6-.5-1.1-.7l-1.4-.6c-.8-.3-1.4-.7-1.8-1.1c-.4-.5-.6-1-.6-1.7c0-.4.2-.9.4-1.3c.3-.4.7-.7 1.2-.9c.5-.3 1.1-.4 1.8-.4c.6 0 1.1.1 1.7.3c.5.2.9.5 1.3.8v1.7c-.5-.5-.9-.9-1.5-1.2c-.5-.2-1-.3-1.5-.3c-.6 0-1.1.1-1.3.4c-.3.2-.5.5-.5.9c0 .3.1.6.4.8c.2.2.6.4 1.1.6l1.3.5c.9.4 1.4.8 1.8 1.2c.4.5.6 1.1.6 1.8c0 .9-.4 1.6-1.1 2.1c-.6.5-1.5.8-2.6.8c-.7 0-1.3-.1-1.8-.3c-.6-.2-1-.5-1.3-.8v-1.7zm10.4 2.5h-2v-2.3h2v2.3z" stroke="none" fill="#fff"/></g><g id="Polygon12570"><path d="m3.1 47.2H1.5V33.4h1.6v13.8zM4.9 42c0-.9.2-1.8.6-2.5c.4-.8.9-1.4 1.5-1.8c.7-.4 1.5-.6 2.3-.6c1.4 0 2.4.4 3.1 1.3c.8.9 1.2 2.1 1.2 3.8c-.03-.05 0 .6 0 .6H6.5c.1 1 .4 1.8.9 2.4c.5.7 1.2 1 2.1 1c1.4 0 2.6-.5 3.5-1.5v1.6c-.4.4-.9.7-1.5.9c-.5.2-1.2.3-2 .3c-.9 0-1.7-.2-2.4-.7c-.7-.4-1.3-1-1.6-1.7c-.4-.8-.6-1.7-.6-2.7v-.4zm7.1-.4c0-1.1-.3-1.9-.8-2.4c-.4-.6-1.1-.8-1.8-.8c-.5 0-1 .1-1.4.3c-.4.3-.8.7-1 1.2c-.3.4-.4 1-.5 1.7h5.5zm3.5 5.6v-9.8h1.4s.15 1.94.1 1.9c.4-.6.9-1.1 1.5-1.5c.6-.5 1.3-.7 2.1-.7c1 0 1.8.3 2.3.9c.6.7.9 1.6.9 2.7c-.02.03 0 6.5 0 6.5h-1.6s-.02-6.34 0-6.3c0-.9-.2-1.5-.5-1.9c-.2-.4-.7-.6-1.4-.6c-.4 0-.9.1-1.3.4c-.5.3-.9.7-1.2 1.1c-.4.5-.6 1-.7 1.5c-.04 0 0 5.8 0 5.8h-1.6zm10.3-2.5c.8 1 1.8 1.5 3.1 1.5c.6 0 1.2-.2 1.5-.4c.4-.3.6-.7.6-1.1c0-.4-.1-.7-.3-.9c-.2-.3-.6-.5-1.1-.7l-1.4-.6c-.8-.3-1.4-.7-1.7-1.1c-.4-.5-.6-1-.6-1.7c0-.4.1-.9.4-1.3c.2-.4.6-.7 1.1-.9c.5-.3 1.1-.4 1.8-.4c.6 0 1.1.1 1.7.3c.5.2.9.5 1.3.8v1.7c-.4-.5-.9-.9-1.4-1.2c-.6-.2-1.1-.3-1.6-.3c-.6 0-1 .1-1.3.4c-.3.2-.5.5-.5.9c0 .3.1.6.4.8c.2.2.6.4 1.2.6l1.3.5c.8.4 1.4.8 1.7 1.2c.4.5.6 1.1.6 1.8c0 .9-.3 1.6-1 2.1c-.7.5-1.6.8-2.7.8c-.7 0-1.3-.1-1.8-.3c-.6-.2-1-.5-1.3-.8v-1.7zm14.3-6.1H38v-1.2h2.1v-3h1.6v3h2.2v1.2h-2.2v8.6h-1.6v-8.6zm5.2 8.6V33.4h1.6s-.03 5.91 0 5.9c.3-.6.8-1.1 1.4-1.6c.6-.4 1.3-.6 2-.6c1.1 0 1.9.3 2.4.9c.6.7.9 1.6.9 2.7c-.03.03 0 6.5 0 6.5H52s-.02-6.34 0-6.3c0-.9-.2-1.5-.4-1.9c-.3-.4-.8-.6-1.5-.6c-.4 0-.9.1-1.3.4c-.5.3-.9.6-1.2 1.1c-.4.4-.6.9-.7 1.4c-.03.04 0 5.9 0 5.9h-1.6zm10-2.6c0-.7.2-1.2.5-1.7c.3-.4.7-.7 1.3-.9c.6-.3 1.3-.5 2.3-.7l2.5-.4c-.1-.9-.3-1.5-.7-1.9c-.4-.5-1.1-.7-1.9-.7c-.7 0-1.3.2-1.8.5c-.6.3-1 .6-1.4 1.1v-1.5c.3-.4.8-.7 1.4-.9c.6-.3 1.2-.4 1.9-.4c1.3 0 2.2.3 3 .9c.7.7 1 1.6 1 2.9c.05-.04 0 6.3 0 6.3h-1.2s-.28-1.52-.3-1.5c-.4.5-1 1-1.6 1.3c-.6.3-1.3.5-2 .5c-.9 0-1.7-.3-2.2-.8c-.5-.5-.8-1.2-.8-2.1zm1.6-.1c0 .6.1 1 .4 1.2c.4.3.8.5 1.3.5c.6 0 1.2-.2 1.8-.6c.7-.4 1.1-.9 1.5-1.6c-.02.01 0-1.9 0-1.9c0 0-1.65.32-1.7.3c-.9.2-1.5.3-2 .5c-.4.1-.8.3-1 .6c-.2.3-.3.6-.3 1zm10-5.9h-2.2v-1.2h2.2v-3h1.6v3h2.1v1.2h-2.1v8.6h-1.6v-8.6zm9.1 3.5c0-1 .2-1.8.6-2.6c.4-.7 1-1.3 1.7-1.8c.7-.4 1.6-.6 2.5-.6c.6 0 1.1.1 1.6.3c.5.2.9.5 1.3.8v1.7c-.4-.5-.8-.9-1.3-1.2c-.5-.2-1-.3-1.6-.3c-.6 0-1.1.1-1.6.4c-.5.4-.9.8-1.1 1.4c-.3.5-.4 1.2-.4 1.9v.3c0 .7.1 1.4.4 2c.3.5.6 1 1.1 1.3c.5.3 1 .5 1.6.5c1.1 0 2.1-.5 2.9-1.5v1.7c-.4.3-.8.6-1.3.8c-.5.2-1.1.3-1.6.3c-.9 0-1.8-.3-2.5-.7c-.7-.4-1.3-1-1.7-1.8c-.4-.8-.6-1.6-.6-2.6v-.3zm9 0c0-.9.2-1.8.6-2.6c.4-.8.9-1.4 1.6-1.8c.7-.4 1.5-.6 2.4-.6c.9 0 1.7.2 2.4.6c.7.4 1.2 1 1.6 1.8c.4.8.6 1.7.6 2.6v.3c0 1-.2 1.9-.6 2.7c-.4.7-.9 1.3-1.6 1.7c-.7.5-1.5.7-2.4.7c-.9 0-1.7-.2-2.4-.7c-.7-.4-1.2-1-1.6-1.7c-.4-.8-.6-1.7-.6-2.7v-.3zm1.6.3c0 1.2.3 2.1.8 2.8c.6.7 1.3 1 2.2 1c.9 0 1.6-.3 2.2-1c.5-.7.8-1.6.8-2.8v-.3c0-1.1-.3-2-.8-2.7c-.6-.7-1.3-1-2.2-1c-.9 0-1.6.3-2.2 1c-.5.7-.8 1.6-.8 2.7v.3zm9.5 4.8v-9.8h1.4s.17 1.94.2 1.9c.3-.6.8-1.1 1.4-1.5c.6-.5 1.3-.7 2.1-.7c1 0 1.8.3 2.4.9c.5.7.8 1.6.8 2.7v6.5h-1.6v-6.3c0-.9-.1-1.5-.4-1.9c-.3-.4-.8-.6-1.5-.6c-.4 0-.9.1-1.3.4c-.5.3-.9.7-1.2 1.1c-.3.5-.6 1-.7 1.5v5.8h-1.6zm11.6-8.6h-2.1v-1.2h2.1v-3h1.6v3h2.2v1.2h-2.2v8.6h-1.6v-8.6zm5.2 8.6v-9.8h1.4s.14 1.67.1 1.7c.3-.6.7-1.1 1.2-1.5c.5-.3 1.1-.5 1.8-.5h.5c.2.1.3.1.4.1v1.4c-.3-.1-.6-.1-1-.1c-.6 0-1.2.2-1.7.6c-.5.4-.9 1-1.1 1.7c-.02 0 0 6.4 0 6.4h-1.6zm6.1-5.1c0-.9.2-1.8.6-2.6c.4-.8.9-1.4 1.6-1.8c.7-.4 1.5-.6 2.4-.6c.9 0 1.7.2 2.4.6c.7.4 1.2 1 1.6 1.8c.4.8.6 1.7.6 2.6v.3c0 1-.2 1.9-.6 2.7c-.4.7-.9 1.3-1.6 1.7c-.7.5-1.5.7-2.4.7c-.9 0-1.7-.2-2.4-.7c-.7-.4-1.2-1-1.6-1.7c-.4-.8-.6-1.7-.6-2.7v-.3zm1.6.3c0 1.2.3 2.1.8 2.8c.6.7 1.3 1 2.2 1c.9 0 1.6-.3 2.2-1c.5-.7.8-1.6.8-2.8v-.3c0-1.1-.3-2-.8-2.7c-.6-.7-1.3-1-2.2-1c-.9 0-1.6.3-2.2 1c-.5.7-.8 1.6-.8 2.7v.3zm11.1 4.8h-1.6V33.4h1.6v13.8zm2.2-2.5c.8 1 1.8 1.5 3.1 1.5c.7 0 1.2-.2 1.6-.4c.3-.3.5-.7.5-1.1c0-.4-.1-.7-.3-.9c-.2-.3-.6-.5-1.1-.7l-1.4-.6c-.8-.3-1.4-.7-1.7-1.1c-.4-.5-.6-1-.6-1.7c0-.4.1-.9.4-1.3c.2-.4.6-.7 1.1-.9c.5-.3 1.1-.4 1.8-.4c.6 0 1.1.1 1.7.3c.5.2.9.5 1.3.8v1.7c-.4-.5-.9-.9-1.4-1.2c-.5-.2-1.1-.3-1.6-.3c-.6 0-1 .1-1.3.4c-.3.2-.5.5-.5.9c0 .3.2.6.4.8c.2.2.6.4 1.2.6l1.3.5c.8.4 1.4.8 1.7 1.2c.4.5.6 1.1.6 1.8c0 .9-.3 1.6-1 2.1c-.7.5-1.6.8-2.7.8c-.7 0-1.3-.1-1.8-.3c-.5-.2-1-.5-1.3-.8v-1.7zm14.3-6.1h-2.1v-1.2h2.1v-3h1.6v3h2.2v1.2h-2.2v8.6h-1.6v-8.6zm5.2 8.6V33.4h1.6s-.02 5.91 0 5.9c.3-.6.8-1.1 1.4-1.6c.6-.4 1.3-.6 2.1-.6c1 0 1.8.3 2.3.9c.6.7.9 1.6.9 2.7c-.03.03 0 6.5 0 6.5h-1.6v-6.3c0-.9-.2-1.5-.4-1.9c-.3-.4-.8-.6-1.5-.6c-.4 0-.9.1-1.3.4c-.5.3-.9.6-1.2 1.1c-.4.4-.6.9-.7 1.4c-.02.04 0 5.9 0 5.9h-1.6zm10-5.2c0-.9.2-1.8.5-2.5c.4-.8.9-1.4 1.6-1.8c.6-.4 1.4-.6 2.3-.6c1.3 0 2.3.4 3.1 1.3c.7.9 1.1 2.1 1.1 3.8v.6h-7c0 1 .3 1.8.8 2.4c.6.7 1.3 1 2.2 1c1.4 0 2.5-.5 3.4-1.5v1.6c-.4.4-.9.7-1.4.9c-.6.2-1.2.3-2 .3c-1 0-1.8-.2-2.5-.7c-.7-.4-1.2-1-1.6-1.7c-.4-.8-.5-1.7-.5-2.7v-.4zm7-.4c0-1.1-.2-1.9-.7-2.4c-.5-.6-1.1-.8-1.9-.8c-.5 0-1 .1-1.4.3c-.4.3-.7.7-1 1.2c-.2.4-.4 1-.4 1.7h5.4zm8.2 5.6V33.4h1.6s-.02 5.42 0 5.4c.3-.5.8-.9 1.4-1.2c.5-.3 1.1-.5 1.7-.5c.8 0 1.6.2 2.2.6c.7.5 1.2 1.1 1.6 1.8c.4.8.5 1.7.5 2.8c0 1-.1 1.9-.5 2.7c-.4.8-.9 1.4-1.6 1.8c-.6.4-1.4.7-2.2.7c-.6 0-1.2-.2-1.8-.5c-.5-.4-1-.8-1.3-1.3c-.04-.04-.2 1.5-.2 1.5h-1.4zm1.6-3.3c.2.6.6 1.2 1.2 1.6c.5.5 1.1.7 1.7.7c.5 0 1-.2 1.5-.5c.4-.3.8-.7 1-1.3c.3-.6.4-1.3.4-2.1c0-.8-.1-1.5-.4-2.1c-.3-.6-.6-1.1-1-1.4c-.5-.3-1-.4-1.5-.4c-.6 0-1.2.2-1.7.6c-.6.4-1 1-1.2 1.7v3.2zM189 42c0-.9.2-1.8.6-2.5c.3-.8.8-1.4 1.5-1.8c.7-.4 1.4-.6 2.3-.6c1.3 0 2.4.4 3.1 1.3c.8.9 1.1 2.1 1.1 3.8c.04-.05 0 .6 0 .6h-7c0 1 .3 1.8.9 2.4c.5.7 1.2 1 2.1 1c1.4 0 2.5-.5 3.5-1.5v1.6c-.4.4-.9.7-1.5.9c-.5.2-1.2.3-2 .3c-1 0-1.8-.2-2.5-.7c-.7-.4-1.2-1-1.6-1.7c-.3-.8-.5-1.7-.5-2.7v-.4zm7.1-.4c-.1-1.1-.3-1.9-.8-2.4c-.5-.6-1.1-.8-1.9-.8c-.5 0-.9.1-1.4.3c-.4.3-.7.7-1 1.2c-.2.4-.4 1-.4 1.7h5.5zm2.7 3c0-.7.2-1.2.6-1.7c.3-.4.7-.7 1.3-.9c.5-.3 1.3-.5 2.3-.7l2.4-.4c0-.9-.2-1.5-.6-1.9c-.5-.5-1.1-.7-2-.7c-.6 0-1.2.2-1.8.5c-.5.3-1 .6-1.4 1.1v-1.5c.4-.4.9-.7 1.5-.9c.5-.3 1.2-.4 1.9-.4c1.2 0 2.2.3 2.9.9c.8.7 1.1 1.6 1.1 2.9c.02-.04 0 6.3 0 6.3h-1.2l-.3-1.5c-.5.5-1 1-1.6 1.3c-.6.3-1.3.5-2.1.5c-.9 0-1.6-.3-2.1-.8c-.6-.5-.9-1.2-.9-2.1zm1.6-.1c0 .6.2 1 .5 1.2c.3.3.7.5 1.3.5c.6 0 1.2-.2 1.8-.6c.6-.4 1.1-.9 1.4-1.6c.05.01 0-1.9 0-1.9c0 0-1.59.32-1.6.3c-.9.2-1.6.3-2 .5c-.5.1-.8.3-1 .6c-.2.3-.4.6-.4 1zm9.1 2.7v-9.8h1.4l.1 1.7c.4-.6.8-1.1 1.4-1.4c.5-.4 1.1-.6 1.8-.6c.7 0 1.3.2 1.8.6c.5.3.8.9 1 1.6c.4-.7.8-1.2 1.4-1.6c.6-.4 1.2-.6 1.9-.6c.9 0 1.6.3 2.2.9c.5.6.8 1.4.8 2.5c-.05.01 0 6.7 0 6.7h-1.6s-.03-6.56 0-6.6c0-.7-.2-1.3-.4-1.7c-.3-.4-.7-.5-1.3-.5c-.4 0-.7.1-1.1.3c-.4.3-.8.6-1.1 1c-.3.4-.5.8-.7 1.3c.05-.02 0 6.2 0 6.2h-1.5s-.03-6.6 0-6.6c0-.8-.2-1.3-.4-1.7c-.3-.4-.7-.5-1.3-.5c-.4 0-.7.1-1.1.3c-.4.3-.8.6-1.1 1c-.3.4-.5.8-.6 1.3c-.03-.02 0 6.2 0 6.2h-1.6zm15.4-9.2l-.4-4.5h1.8L226 38h-1.1zm3.2 6.7c.8 1 1.8 1.5 3.1 1.5c.7 0 1.2-.2 1.6-.4c.3-.3.5-.7.5-1.1c0-.4-.1-.7-.3-.9c-.2-.3-.5-.5-1.1-.7l-1.3-.6c-.8-.3-1.4-.7-1.8-1.1c-.4-.5-.6-1-.6-1.7c0-.4.1-.9.4-1.3c.2-.4.6-.7 1.1-.9c.5-.3 1.1-.4 1.8-.4c.6 0 1.2.1 1.7.3c.5.2 1 .5 1.3.8v1.7c-.4-.5-.9-.9-1.4-1.2c-.5-.2-1.1-.3-1.6-.3c-.6 0-1 .1-1.3.4c-.3.2-.5.5-.5.9c0 .3.2.6.4.8c.2.2.6.4 1.2.6l1.3.5c.8.4 1.4.8 1.8 1.2c.3.5.5 1.1.5 1.8c0 .9-.3 1.6-1 2.1c-.7.5-1.6.8-2.7.8c-.7 0-1.3-.1-1.8-.3c-.5-.2-1-.5-1.3-.8v-1.7zm13.4 2.5V33.4h1.6v5.4c.3-.5.8-.9 1.4-1.2c.5-.3 1.1-.5 1.7-.5c.9 0 1.6.2 2.3.6c.6.5 1.1 1.1 1.5 1.8c.4.8.6 1.7.6 2.8c0 1-.2 1.9-.6 2.7c-.4.8-.9 1.4-1.5 1.8c-.7.4-1.4.7-2.3.7c-.6 0-1.2-.2-1.8-.5c-.5-.4-1-.8-1.3-1.3c-.03-.04-.2 1.5-.2 1.5h-1.4zm1.6-3.3c.2.6.6 1.2 1.2 1.6c.5.5 1.1.7 1.7.7c.5 0 1-.2 1.5-.5c.4-.3.8-.7 1-1.3c.3-.6.4-1.3.4-2.1c0-.8-.1-1.5-.4-2.1c-.2-.6-.6-1.1-1-1.4c-.5-.3-1-.4-1.5-.4c-.6 0-1.2.2-1.7.6c-.6.4-1 1-1.2 1.7v3.2zm9.3 3.3v-9.8h1.5l.1 1.7c.3-.6.7-1.1 1.2-1.5c.5-.3 1-.5 1.7-.5h.6c.1.1.3.1.3.1v1.4c-.2-.1-.6-.1-1-.1c-.6 0-1.2.2-1.7.6c-.5.4-.9 1-1.1 1.7c.03 0 0 6.4 0 6.4h-1.6zm6.1-5.2c0-.9.2-1.8.6-2.5c.3-.8.9-1.4 1.5-1.8c.7-.4 1.5-.6 2.3-.6c1.3 0 2.4.4 3.1 1.3c.8.9 1.2 2.1 1.2 3.8c-.05-.05 0 .6 0 .6h-7.1c.1 1 .4 1.8.9 2.4c.5.7 1.2 1 2.1 1c1.4 0 2.6-.5 3.5-1.5v1.6c-.4.4-.9.7-1.5.9c-.5.2-1.2.3-2 .3c-.9 0-1.8-.2-2.5-.7c-.6-.4-1.2-1-1.5-1.7c-.4-.8-.6-1.7-.6-2.7v-.4zm7.1-.4c0-1.1-.3-1.9-.8-2.4c-.4-.6-1.1-.8-1.9-.8c-.5 0-.9.1-1.3.3c-.5.3-.8.7-1 1.2c-.3.4-.4 1-.5 1.7h5.5zm2.8 3c0-.7.1-1.2.5-1.7c.3-.4.7-.7 1.3-.9c.5-.3 1.3-.5 2.3-.7l2.4-.4c0-.9-.2-1.5-.6-1.9c-.4-.5-1.1-.7-2-.7c-.6 0-1.2.2-1.7.5c-.6.3-1.1.6-1.4 1.1v-1.5c.3-.4.8-.7 1.4-.9c.6-.3 1.2-.4 1.9-.4c1.2 0 2.2.3 3 .9c.7.7 1 1.6 1 2.9c.03-.04 0 6.3 0 6.3h-1.2l-.3-1.5c-.5.5-1 1-1.6 1.3c-.6.3-1.3.5-2 .5c-.9 0-1.7-.3-2.2-.8c-.6-.5-.8-1.2-.8-2.1zm1.6-.1c0 .6.1 1 .4 1.2c.3.3.8.5 1.3.5c.6 0 1.2-.2 1.8-.6c.6-.4 1.1-.9 1.5-1.6c-.04.01 0-1.9 0-1.9c0 0-1.67.32-1.7.3c-.9.2-1.6.3-2 .5c-.5.1-.8.3-1 .6c-.2.3-.3.6-.3 1zm8.3-2.2c0-1.1.2-2 .6-2.8c.3-.7.8-1.3 1.5-1.8c.7-.4 1.4-.6 2.2-.6c.6 0 1.2.2 1.8.5c.5.3 1 .7 1.4 1.2c-.04.02 0-5.4 0-5.4h1.5v13.8h-1.4s-.12-1.54-.1-1.5c-.4.5-.8.9-1.4 1.3c-.5.3-1.1.5-1.8.5c-.8 0-1.5-.3-2.2-.7c-.7-.4-1.2-1-1.5-1.8c-.4-.8-.6-1.7-.6-2.7zm1.7 0c0 .8.1 1.5.3 2.1c.3.6.6 1 1.1 1.3c.4.3.9.5 1.5.5c.6 0 1.2-.2 1.7-.7c.5-.4.9-1 1.2-1.6v-3.2c-.3-.7-.7-1.3-1.2-1.7c-.5-.4-1.1-.6-1.7-.6c-.6 0-1.1.1-1.5.4c-.5.3-.8.8-1.1 1.4c-.2.6-.3 1.3-.3 2.1zm10.9-3.7h-2.2v-1.2h2.2v-3h1.6v3h2.2v1.2h-2.2v8.6h-1.6v-8.6zm5.1 8.6V33.4h1.6s.03 5.91 0 5.9c.4-.6.9-1.1 1.5-1.6c.6-.4 1.3-.6 2-.6c1 0 1.8.3 2.4.9c.5.7.8 1.6.8 2.7c.02.03 0 6.5 0 6.5h-1.6s.04-6.34 0-6.3c0-.9-.1-1.5-.4-1.9c-.3-.4-.8-.6-1.4-.6c-.5 0-.9.1-1.4.4c-.4.3-.8.6-1.2 1.1c-.3.4-.5.9-.7 1.4c.03.04 0 5.9 0 5.9H296zm17.1 0l-2.8-9.8h1.6l2.2 8l2.1-8h2l2.2 8l2.2-8h1.5l-2.8 9.8h-1.9l-2.2-8.1l-2.2 8.1h-1.9zm12.4 0V33.4h1.6s.03 5.91 0 5.9c.4-.6.9-1.1 1.5-1.6c.6-.4 1.3-.6 2-.6c1 0 1.8.3 2.4.9c.5.7.8 1.6.8 2.7c.02.03 0 6.5 0 6.5h-1.6s.04-6.34 0-6.3c0-.9-.1-1.5-.4-1.9c-.3-.4-.8-.6-1.4-.6c-.5 0-.9.1-1.4.4c-.4.3-.8.6-1.2 1.1c-.3.4-.5.9-.7 1.4c.03.04 0 5.9 0 5.9h-1.6zm12.3-11.5h-1.6v-2h1.6v2zm0 11.5h-1.6v-9.8h1.6v9.8zm4.2 0h-1.6V33.4h1.6v13.8zm1.9-5.2c0-.9.2-1.8.5-2.5c.4-.8.9-1.4 1.6-1.8c.6-.4 1.4-.6 2.3-.6c1.3 0 2.3.4 3.1 1.3c.7.9 1.1 2.1 1.1 3.8v.6h-7c0 1 .3 1.8.8 2.4c.6.7 1.3 1 2.2 1c1.4 0 2.5-.5 3.4-1.5v1.6c-.4.4-.9.7-1.4.9c-.6.2-1.2.3-2 .3c-1 0-1.8-.2-2.5-.7c-.7-.4-1.2-1-1.6-1.7c-.3-.8-.5-1.7-.5-2.7v-.4zm7-.4c0-1.1-.2-1.9-.7-2.4c-.5-.6-1.1-.8-1.9-.8c-.5 0-1 .1-1.4.3c-.4.3-.7.7-1 1.2c-.2.4-.4 1-.4 1.7h5.4zm7.5.5c0-.9.2-1.8.6-2.6c.4-.8.9-1.4 1.6-1.8c.7-.4 1.5-.6 2.4-.6c.9 0 1.7.2 2.4.6c.7.4 1.2 1 1.6 1.8c.4.8.6 1.7.6 2.6v.3c0 1-.2 1.9-.6 2.7c-.4.7-.9 1.3-1.6 1.7c-.7.5-1.5.7-2.4.7c-.9 0-1.7-.2-2.4-.7c-.7-.4-1.2-1-1.6-1.7c-.4-.8-.6-1.7-.6-2.7v-.3zm1.6.3c0 1.2.3 2.1.8 2.8c.6.7 1.3 1 2.2 1c.9 0 1.7-.3 2.2-1c.5-.7.8-1.6.8-2.8v-.3c0-1.1-.3-2-.8-2.7c-.5-.7-1.3-1-2.2-1c-.9 0-1.6.3-2.2 1c-.5.7-.8 1.6-.8 2.7v.3zm8.3-3.8v-1.2h2s-.03-1.01 0-1c0-.6.1-1.2.3-1.7c.2-.5.6-.9 1.1-1.2c.4-.3 1-.5 1.7-.5c.4 0 .8.1 1.2.3v1.4c-.3-.2-.7-.3-1.1-.3c-.5 0-.9.1-1.2.5c-.3.3-.4.8-.4 1.5c-.02.01 0 1 0 1h2.3v1.2h-2.3v8.6h-1.6v-8.6h-2zm6.4 0v-1.2h2v-1c0-.6.1-1.2.3-1.7c.3-.5.6-.9 1.1-1.2c.4-.3 1-.5 1.7-.5c.4 0 .9.1 1.2.3v1.4c-.3-.2-.7-.3-1.1-.3c-.5 0-.9.1-1.2.5c-.3.3-.4.8-.4 1.5v1h2.3v1.2h-2.3v8.6h-1.6v-8.6h-2zm6.7 3.4c0-.9.2-1.8.6-2.5c.3-.8.9-1.4 1.5-1.8c.7-.4 1.5-.6 2.3-.6c1.3 0 2.4.4 3.1 1.3c.8.9 1.2 2.1 1.2 3.8c-.04-.05 0 .6 0 .6H383c.1 1 .4 1.8.9 2.4c.5.7 1.2 1 2.1 1c1.4 0 2.6-.5 3.5-1.5v1.6c-.4.4-.9.7-1.5.9c-.5.2-1.2.3-2 .3c-.9 0-1.8-.2-2.5-.7c-.6-.4-1.2-1-1.5-1.7c-.4-.8-.6-1.7-.6-2.7v-.4zm7.1-.4c0-1.1-.3-1.9-.8-2.4c-.4-.6-1.1-.8-1.9-.8c-.5 0-.9.1-1.3.3c-.4.3-.8.7-1 1.2c-.3.4-.4 1-.5 1.7h5.5zm3.5 5.6v-9.8h1.4s.11 1.67.1 1.7c.3-.6.7-1.1 1.2-1.5c.5-.3 1.1-.5 1.7-.5h.6c.1.1.3.1.4.1v1.4c-.3-.1-.6-.1-1-.1c-.7 0-1.2.2-1.8.6c-.5.4-.8 1-1.1 1.7c.05 0 0 6.4 0 6.4H392zm8.3-11.5h-1.6v-2h1.6v2zm0 11.5h-1.6v-9.8h1.6v9.8zm2.6 0v-9.8h1.5s.09 1.94.1 1.9c.4-.6.8-1.1 1.4-1.5c.6-.5 1.3-.7 2.1-.7c1 0 1.8.3 2.4.9c.5.7.8 1.6.8 2.7c.02.03 0 6.5 0 6.5h-1.6s.02-6.34 0-6.3c0-.9-.1-1.5-.4-1.9c-.3-.4-.8-.6-1.5-.6c-.4 0-.8.1-1.3.4c-.4.3-.8.7-1.2 1.1c-.3.5-.6 1-.7 1.5v5.8h-1.6zm10-5.2c0-1 .2-1.8.6-2.6c.3-.7.8-1.3 1.5-1.7c.6-.4 1.4-.6 2.2-.6c.6 0 1.2.2 1.8.5c.5.3 1 .7 1.3 1.3l.1-1.5h1.5s-.02 9.43 0 9.4c0 .9-.2 1.7-.6 2.4c-.4.7-.9 1.2-1.7 1.6c-.7.3-1.6.5-2.6.5c-.7 0-1.2 0-1.8-.2c-.5-.1-.9-.4-1.4-.7v-1.5c.9.7 2 1.1 3.2 1.1c1 0 1.8-.3 2.4-.8c.6-.6.9-1.4.9-2.4v-1.5c-.4.5-.8.9-1.3 1.2c-.6.3-1.2.5-1.8.5c-.8 0-1.6-.2-2.2-.6c-.7-.4-1.2-1-1.5-1.7c-.4-.8-.6-1.7-.6-2.7zm1.7 0c0 .8.1 1.4.4 2c.2.5.6 1 1 1.3c.4.3.9.4 1.5.4c.6 0 1.1-.2 1.6-.6c.6-.5.9-1 1.2-1.7v-2.8c-.3-.6-.6-1.2-1.2-1.6c-.5-.4-1.1-.6-1.7-.6c-.5 0-1 .1-1.4.4c-.5.3-.8.7-1.1 1.3c-.2.5-.3 1.2-.3 1.9zm14.4 1.8c0 1.2.2 2.1.8 2.7c.6.6 1.3 1 2.4 1c.7 0 1.4-.3 2-.7c.6-.4 1.1-1 1.5-1.6c-.01.01.1 2 .1 2h1.5v-9.8h-1.6s-.03 5.76 0 5.8c-.2.5-.4 1-.7 1.4c-.4.5-.8.9-1.2 1.2c-.5.2-.9.4-1.4.4c-.6 0-1.1-.2-1.4-.6c-.3-.5-.4-1.1-.4-1.9c-.04 0 0-6.3 0-6.3H429s-.03 6.43 0 6.4zm10.8 3.4v-9.8h1.5l.1 1.9c.4-.6.9-1.1 1.5-1.5c.6-.5 1.3-.7 2-.7c1.1 0 1.8.3 2.4.9c.6.7.8 1.6.8 2.7c.04.03 0 6.5 0 6.5h-1.6s.04-6.34 0-6.3c0-.9-.1-1.5-.4-1.9c-.3-.4-.8-.6-1.4-.6c-.5 0-.9.1-1.4.4c-.4.3-.8.7-1.2 1.1c-.3.5-.5 1-.7 1.5c.03 0 0 5.8 0 5.8h-1.6zm12.3-11.5h-1.6v-2h1.6v2zm0 11.5h-1.6v-9.8h1.6v9.8zm1.9-4.9c0-1.1.2-2 .6-2.8c.3-.7.9-1.3 1.5-1.8c.7-.4 1.4-.6 2.2-.6c.7 0 1.3.2 1.9.5c.5.3 1 .8 1.3 1.3c.02.05.1-1.5.1-1.5h1.5v13.8h-1.6v-5.5c-.4.5-.8 1-1.4 1.3c-.6.3-1.1.5-1.8.5c-.8 0-1.5-.3-2.2-.7c-.6-.4-1.2-1-1.5-1.8c-.4-.8-.6-1.7-.6-2.7zm1.7 0c0 .8.1 1.5.4 2.1c.2.6.6 1 1 1.3c.4.3.9.5 1.5.5c.6 0 1.2-.2 1.7-.7c.6-.4 1-1 1.2-1.7v-3.1c-.2-.7-.6-1.2-1.2-1.7c-.5-.4-1.1-.6-1.7-.6c-.6 0-1.1.1-1.5.4c-.5.3-.8.8-1.1 1.4c-.2.6-.3 1.3-.3 2.1zm9.8 1.5c0 1.2.3 2.1.8 2.7c.6.6 1.4 1 2.4 1c.8 0 1.5-.3 2.1-.7c.6-.4 1-1 1.4-1.6l.1 2h1.5v-9.8h-1.6v5.8c-.1.5-.4 1-.7 1.4c-.3.5-.7.9-1.2 1.2c-.4.2-.9.4-1.4.4c-.6 0-1.1-.2-1.4-.6c-.3-.5-.4-1.1-.4-1.9c-.02 0 0-6.3 0-6.3h-1.6v6.4zm10.1-1.8c0-.9.2-1.8.6-2.5c.4-.8.9-1.4 1.6-1.8c.6-.4 1.4-.6 2.3-.6c1.3 0 2.3.4 3.1 1.3c.7.9 1.1 2.1 1.1 3.8v.6h-7.1c.1 1 .4 1.8.9 2.4c.5.7 1.3 1 2.2 1c1.3 0 2.5-.5 3.4-1.5v1.6c-.4.4-.9.7-1.4.9c-.6.2-1.3.3-2 .3c-1 0-1.8-.2-2.5-.7c-.7-.4-1.2-1-1.6-1.7c-.4-.8-.6-1.7-.6-2.7v-.4zm7.1-.4c0-1.1-.3-1.9-.7-2.4c-.5-.6-1.1-.8-1.9-.8c-.5 0-1 .1-1.4.3c-.4.3-.8.7-1 1.2c-.3.4-.4 1-.5 1.7h5.5z" stroke="none" fill="#fff"/></g><g id="Polygon12569"><path d="m5.5 15.2L.4 1.5h1.8l4.3 11.7l4.1-11.7h1.7l-5 13.7H5.5zm6.7-5.2c0-.9.2-1.8.5-2.5c.4-.8.9-1.4 1.6-1.8c.7-.4 1.4-.6 2.3-.6c1.3 0 2.4.4 3.1 1.3c.8.9 1.1 2.1 1.1 3.8c.03-.05 0 .6 0 .6h-7c0 1 .3 1.8.9 2.4c.5.7 1.2 1 2.1 1c1.4 0 2.5-.5 3.5-1.5v1.6c-.5.4-.9.7-1.5.9c-.6.2-1.2.3-2 .3c-1 0-1.8-.2-2.5-.7c-.7-.4-1.2-1-1.6-1.7c-.3-.8-.5-1.7-.5-2.7v-.4zm7-.4c0-1.1-.2-1.9-.7-2.4c-.5-.6-1.1-.8-1.9-.8c-.5 0-.9.1-1.4.3c-.4.3-.7.7-1 1.2c-.2.4-.4 1-.4 1.7h5.4zm3.5 5.6V5.4h1.5s.08 1.67.1 1.7c.3-.6.6-1.1 1.1-1.5c.5-.3 1.1-.5 1.8-.5h.5c.2.1.3.1.4.1v1.4c-.2-.1-.6-.1-1-.1c-.6 0-1.2.2-1.7.6c-.5.4-.9 1-1.1 1.7c.02 0 0 6.4 0 6.4h-1.6zM31 6.6h-2.1V5.4h2.1v-3h1.6v3h2.2v1.2h-2.2v8.6H31V6.6zm6.7-2.9h-1.5v-2h1.5v2zm0 11.5h-1.5V5.4h1.5v9.8zm1.9-5.1c0-1 .2-1.8.6-2.6c.5-.7 1-1.3 1.8-1.8c.7-.4 1.5-.6 2.5-.6c.5 0 1 .1 1.5.3c.5.2 1 .5 1.3.8v1.7c-.3-.5-.8-.9-1.3-1.2c-.5-.2-1-.3-1.6-.3c-.5 0-1.1.1-1.6.4c-.4.4-.8.8-1.1 1.4c-.3.5-.4 1.2-.4 1.9v.3c0 .7.1 1.4.4 2c.3.5.7 1 1.2 1.3c.4.3 1 .5 1.5.5c1.2 0 2.1-.5 2.9-1.5v1.7c-.3.3-.8.6-1.3.8c-.5.2-1 .3-1.6.3c-.9 0-1.7-.3-2.4-.7c-.8-.4-1.3-1-1.8-1.8c-.4-.8-.6-1.6-.6-2.6v-.3zm9 2.5c0-.7.2-1.2.6-1.7c.2-.4.7-.7 1.2-.9c.6-.3 1.4-.5 2.4-.7l2.4-.4c0-.9-.2-1.5-.7-1.9c-.4-.5-1-.7-1.9-.7c-.6 0-1.2.2-1.8.5c-.5.3-1 .6-1.4 1.1V6.4c.4-.4.9-.7 1.4-.9c.6-.3 1.3-.4 2-.4c1.2 0 2.2.3 2.9.9c.7.7 1.1 1.6 1.1 2.9v6.3h-1.3s-.24-1.52-.2-1.5c-.5.5-1 1-1.7 1.3c-.6.3-1.2.5-2 .5c-.9 0-1.6-.3-2.2-.8c-.5-.5-.8-1.2-.8-2.1zm1.6-.1c0 .6.2 1 .5 1.2c.3.3.7.5 1.2.5c.6 0 1.3-.2 1.9-.6c.6-.4 1.1-.9 1.4-1.6c.02.01 0-1.9 0-1.9c0 0-1.61.32-1.6.3c-.9.2-1.6.3-2 .5c-.5.1-.8.3-1.1.6c-.2.3-.3.6-.3 1zm10.6 2.7h-1.5V1.4h1.5v13.8zm4.2 0h-1.6V1.4h1.6v13.8zm5.3 0l-3.8-9.8h1.7l3 7.8l3-7.8h1.6l-5.5 13.8h-1.6l1.6-4zm11-5.1c0-.9.1-1.8.5-2.6c.4-.8 1-1.4 1.7-1.8c.7-.4 1.5-.6 2.4-.6c.9 0 1.7.2 2.4.6c.6.4 1.2 1 1.6 1.8c.4.8.6 1.7.6 2.6v.3c0 1-.2 1.9-.6 2.7c-.4.7-1 1.3-1.6 1.7c-.7.5-1.5.7-2.4.7c-.9 0-1.7-.2-2.4-.7c-.7-.4-1.3-1-1.7-1.7c-.4-.8-.5-1.7-.5-2.7v-.3zm1.6.3c0 1.2.3 2.1.8 2.8c.5.7 1.2 1 2.2 1c.9 0 1.6-.3 2.1-1c.6-.7.8-1.6.8-2.8v-.3c0-1.1-.2-2-.8-2.7c-.5-.7-1.2-1-2.1-1c-1 0-1.7.3-2.2 1c-.5.7-.8 1.6-.8 2.7v.3zm9.5 4.8V5.4h1.4s.12 1.67.1 1.7c.3-.6.7-1.1 1.2-1.5c.5-.3 1.1-.5 1.8-.5h.5c.2.1.3.1.4.1v1.4c-.3-.1-.6-.1-1-.1c-.7 0-1.2.2-1.7.6c-.6.4-.9 1-1.1 1.7c-.04 0 0 6.4 0 6.4h-1.6zm8.3-11.5h-1.5v-2h1.5v2zm0 11.5h-1.5V5.4h1.5v9.8zm1.9-5.2c0-.9.2-1.8.6-2.5c.3-.8.9-1.4 1.5-1.8c.7-.4 1.5-.6 2.3-.6c1.3 0 2.4.4 3.1 1.3c.8.9 1.2 2.1 1.2 3.8c-.04-.05 0 .6 0 .6h-7.1c.1 1 .4 1.8.9 2.4c.5.7 1.2 1 2.1 1c1.4 0 2.6-.5 3.5-1.5v1.6c-.4.4-.9.7-1.5.9c-.5.2-1.2.3-2 .3c-.9 0-1.8-.2-2.5-.7c-.6-.4-1.2-1-1.5-1.7c-.4-.8-.6-1.7-.6-2.7v-.4zm7.1-.4c0-1.1-.3-1.9-.8-2.4c-.4-.6-1.1-.8-1.9-.8c-.5 0-.9.1-1.3.3c-.4.3-.8.7-1 1.2c-.3.4-.4 1-.5 1.7h5.5zm3.5 5.6V5.4h1.4s.13 1.94.1 1.9c.4-.6.9-1.1 1.5-1.5c.6-.5 1.3-.7 2-.7c1.1 0 1.9.3 2.4.9c.6.7.9 1.6.9 2.7c-.04.03 0 6.5 0 6.5h-1.6s-.04-6.34 0-6.3c0-.9-.2-1.5-.5-1.9c-.3-.4-.7-.6-1.4-.6c-.5 0-.9.1-1.4.4c-.4.3-.8.7-1.1 1.1c-.4.5-.6 1-.8 1.5c.05 0 0 5.8 0 5.8h-1.5zm11.6-8.6h-2.1V5.4h2.1v-3h1.6v3h2.2v1.2h-2.2v8.6h-1.6V6.6zm4.4 3.4c0-.9.2-1.8.6-2.5c.4-.8.9-1.4 1.6-1.8c.6-.4 1.4-.6 2.2-.6c1.4 0 2.4.4 3.2 1.3c.7.9 1.1 2.1 1.1 3.8c-.02-.05 0 .6 0 .6h-7.1c.1 1 .4 1.8.9 2.4c.5.7 1.2 1 2.1 1c1.4 0 2.6-.5 3.5-1.5v1.6c-.4.4-.9.7-1.4.9c-.6.2-1.3.3-2.1.3c-.9 0-1.7-.2-2.4-.7c-.7-.4-1.2-1-1.6-1.7c-.4-.8-.6-1.7-.6-2.7v-.4zm7.1-.4c0-1.1-.3-1.9-.7-2.4c-.5-.6-1.2-.8-1.9-.8c-.5 0-1 .1-1.4.3c-.4.3-.8.7-1 1.2c-.3.4-.4 1-.5 1.7h5.5zm2.8.7c0-1.1.2-2 .5-2.8c.4-.7.9-1.3 1.6-1.8c.7-.4 1.4-.6 2.2-.6c.6 0 1.2.2 1.8.5c.5.3 1 .7 1.4 1.2c-.05.02 0-5.4 0-5.4h1.5v13.8h-1.4s-.13-1.54-.1-1.5c-.4.5-.8.9-1.4 1.3c-.5.3-1.1.5-1.8.5c-.8 0-1.5-.3-2.2-.7c-.7-.4-1.2-1-1.6-1.8c-.3-.8-.5-1.7-.5-2.7zm1.6 0c0 .8.2 1.5.4 2.1c.3.6.6 1 1.1 1.3c.4.3.9.5 1.5.5c.6 0 1.1-.2 1.7-.7c.5-.4.9-1 1.2-1.6V8.7c-.3-.7-.7-1.3-1.2-1.7c-.6-.4-1.1-.6-1.7-.6c-.6 0-1.1.1-1.5.4c-.5.3-.8.8-1.1 1.4c-.2.6-.4 1.3-.4 2.1zm22.8 4.9h-8V1.5h1.7v12.3h6.3v1.4zm10 0h-8.2V1.5h8.1v1.4h-6.5v4.6h5.5v1.3h-5.5v5h6.6v1.4zm2.3 0V1.5h4.2c1.3 0 2.4.3 3.4.9c1 .6 1.8 1.4 2.4 2.4c.5 1 .8 2.1.8 3.4v.3c0 1.3-.3 2.4-.8 3.4c-.6 1-1.4 1.8-2.4 2.4c-1 .6-2.1.9-3.4.9h-4.2zm4.1-1.4c1 0 1.8-.2 2.6-.6c.7-.5 1.3-1.1 1.7-1.9c.4-.8.6-1.8.6-2.8v-.3c0-1.1-.2-2-.6-2.8c-.4-.8-1-1.4-1.7-1.9c-.8-.4-1.6-.6-2.6-.6c.04-.02-2.4 0-2.4 0v10.9s2.44.02 2.4 0zm8.3-1.1c.8 1 1.8 1.5 3.1 1.5c.6 0 1.2-.2 1.5-.4c.4-.3.6-.7.6-1.1c0-.4-.1-.7-.3-.9c-.2-.3-.6-.5-1.1-.7l-1.4-.6c-.8-.3-1.4-.7-1.8-1.1c-.3-.5-.5-1-.5-1.7c0-.4.1-.9.3-1.3c.3-.4.7-.7 1.2-.9c.5-.3 1.1-.4 1.8-.4c.6 0 1.1.1 1.7.3c.5.2.9.5 1.3.8v1.7c-.4-.5-.9-.9-1.4-1.2c-.6-.2-1.1-.3-1.6-.3c-.6 0-1 .1-1.3.4c-.3.2-.5.5-.5.9c0 .3.1.6.4.8c.2.2.6.4 1.2.6l1.3.5c.8.4 1.4.8 1.7 1.2c.4.5.6 1.1.6 1.8c0 .9-.4 1.6-1 2.1c-.7.5-1.6.8-2.7.8c-.7 0-1.3-.1-1.8-.3c-.6-.2-1-.5-1.3-.8v-1.7zm12.7-.1c0-.7.2-1.2.5-1.7c.3-.4.7-.7 1.3-.9c.6-.3 1.3-.5 2.3-.7l2.5-.4c-.1-.9-.3-1.5-.7-1.9c-.4-.5-1.1-.7-1.9-.7c-.7 0-1.3.2-1.8.5c-.6.3-1 .6-1.4 1.1V6.4c.3-.4.8-.7 1.4-.9c.6-.3 1.2-.4 1.9-.4c1.3 0 2.2.3 3 .9c.7.7 1 1.6 1 2.9c.05-.04 0 6.3 0 6.3h-1.2s-.28-1.52-.3-1.5c-.4.5-1 1-1.6 1.3c-.6.3-1.3.5-2 .5c-.9 0-1.7-.3-2.2-.8c-.5-.5-.8-1.2-.8-2.1zm1.6-.1c0 .6.1 1 .4 1.2c.4.3.8.5 1.3.5c.6 0 1.2-.2 1.8-.6c.7-.4 1.1-.9 1.5-1.6c-.02.01 0-1.9 0-1.9c0 0-1.65.32-1.7.3c-.9.2-1.5.3-2 .5c-.4.1-.8.3-1 .6c-.2.3-.3.6-.3 1zm9 2.7V5.4h1.5s.06 1.67.1 1.7c.2-.6.6-1.1 1.1-1.5c.5-.3 1.1-.5 1.8-.5h.5c.2.1.3.1.4.1v1.4c-.2-.1-.6-.1-1-.1c-.6 0-1.2.2-1.7.6c-.5.4-.9 1-1.1 1.7v6.4h-1.6zm6.1-5.2c0-.9.2-1.8.5-2.5c.4-.8.9-1.4 1.6-1.8c.7-.4 1.4-.6 2.3-.6c1.3 0 2.3.4 3.1 1.3c.7.9 1.1 2.1 1.1 3.8c.02-.05 0 .6 0 .6h-7c0 1 .3 1.8.8 2.4c.6.7 1.3 1 2.2 1c1.4 0 2.5-.5 3.5-1.5v1.6c-.5.4-.9.7-1.5.9c-.6.2-1.2.3-2 .3c-1 0-1.8-.2-2.5-.7c-.7-.4-1.2-1-1.6-1.7c-.3-.8-.5-1.7-.5-2.7v-.4zm7-.4c0-1.1-.2-1.9-.7-2.4c-.5-.6-1.1-.8-1.9-.8c-.5 0-1 .1-1.4.3c-.4.3-.7.7-1 1.2c-.2.4-.4 1-.4 1.7h5.4zm7.5.7c0-1.1.2-2 .6-2.8c.3-.7.9-1.3 1.5-1.8c.7-.4 1.4-.6 2.2-.6c.7 0 1.2.2 1.8.5c.6.3 1 .7 1.4 1.2c-.02.02 0-5.4 0-5.4h1.6v13.8h-1.5l-.1-1.5c-.4.5-.8.9-1.4 1.3c-.5.3-1.1.5-1.8.5c-.8 0-1.5-.3-2.2-.7c-.6-.4-1.2-1-1.5-1.8c-.4-.8-.6-1.7-.6-2.7zm1.7 0c0 .8.1 1.5.3 2.1c.3.6.6 1 1.1 1.3c.4.3.9.5 1.5.5c.6 0 1.2-.2 1.7-.7c.5-.4.9-1 1.2-1.6V8.7c-.3-.7-.7-1.3-1.2-1.7c-.5-.4-1.1-.6-1.7-.6c-.6 0-1.1.1-1.5.4c-.4.3-.8.8-1.1 1.4c-.2.6-.3 1.3-.3 2.1zm11.5-6.6h-1.5v-2h1.5v2zm0 11.5h-1.5V5.4h1.5v9.8zm4.2-11.5h-1.6v-2h1.6v2zm0 11.5h-1.6V5.4h1.6v9.8zm2.6 0V5.4h1.4s.15 1.67.2 1.7c.2-.6.6-1.1 1.1-1.5c.5-.3 1.1-.5 1.8-.5h.5c.2.1.3.1.4.1v1.4c-.3-.1-.6-.1-1-.1c-.6 0-1.2.2-1.7.6c-.5.4-.9 1-1.1 1.7v6.4h-1.6zm6.1-5.2c0-.9.2-1.8.5-2.5c.4-.8.9-1.4 1.6-1.8c.7-.4 1.4-.6 2.3-.6c1.3 0 2.3.4 3.1 1.3c.7.9 1.1 2.1 1.1 3.8v.6h-7c0 1 .3 1.8.8 2.4c.6.7 1.3 1 2.2 1c1.4 0 2.5-.5 3.5-1.5v1.6c-.5.4-1 .7-1.5.9c-.6.2-1.2.3-2 .3c-1 0-1.8-.2-2.5-.7c-.7-.4-1.2-1-1.6-1.7c-.3-.8-.5-1.7-.5-2.7v-.4zm7-.4c0-1.1-.2-1.9-.7-2.4c-.5-.6-1.1-.8-1.9-.8c-.5 0-1 .1-1.4.3c-.4.3-.7.7-1 1.2c-.2.4-.4 1-.4 1.7h5.4zm2.8.5c0-1 .2-1.8.6-2.6c.4-.7 1-1.3 1.7-1.8c.8-.4 1.6-.6 2.5-.6c.6 0 1.1.1 1.6.3c.5.2 1 .5 1.3.8v1.7c-.4-.5-.8-.9-1.3-1.2c-.5-.2-1-.3-1.6-.3c-.6 0-1.1.1-1.6.4c-.5.4-.8.8-1.1 1.4c-.3.5-.4 1.2-.4 1.9v.3c0 .7.1 1.4.4 2c.3.5.7 1 1.1 1.3c.5.3 1 .5 1.6.5c1.1 0 2.1-.5 2.9-1.5v1.7c-.3.3-.8.6-1.3.8c-.5.2-1 .3-1.6.3c-.9 0-1.7-.3-2.5-.7c-.7-.4-1.3-1-1.7-1.8c-.4-.8-.6-1.6-.6-2.6v-.3zm11-3.5h-2.2V5.4h2.2v-3h1.5v3h2.2v1.2h-2.2v8.6H279V6.6zm4.4 3.4c0-.9.2-1.8.5-2.5c.4-.8.9-1.4 1.6-1.8c.7-.4 1.4-.6 2.3-.6c1.3 0 2.4.4 3.1 1.3c.8.9 1.1 2.1 1.1 3.8c.03-.05 0 .6 0 .6h-7c0 1 .3 1.8.9 2.4c.5.7 1.2 1 2.1 1c1.4 0 2.5-.5 3.5-1.5v1.6c-.5.4-.9.7-1.5.9c-.6.2-1.2.3-2 .3c-1 0-1.8-.2-2.5-.7c-.7-.4-1.2-1-1.6-1.7c-.3-.8-.5-1.7-.5-2.7v-.4zm7-.4c0-1.1-.2-1.9-.7-2.4c-.5-.6-1.1-.8-1.9-.8c-.5 0-.9.1-1.4.3c-.4.3-.7.7-1 1.2c-.2.4-.4 1-.4 1.7h5.4zm2.8.7c0-1.1.2-2 .6-2.8c.4-.7.9-1.3 1.5-1.8c.7-.4 1.4-.6 2.3-.6c.6 0 1.2.2 1.7.5c.6.3 1 .7 1.4 1.2V1.4h1.6v13.8h-1.5s-.08-1.54-.1-1.5c-.3.5-.8.9-1.3 1.3c-.6.3-1.2.5-1.8.5c-.9 0-1.6-.3-2.3-.7c-.6-.4-1.1-1-1.5-1.8c-.4-.8-.6-1.7-.6-2.7zm1.7 0c0 .8.1 1.5.4 2.1c.2.6.6 1 1 1.3c.5.3 1 .5 1.5.5c.6 0 1.2-.2 1.7-.7c.6-.4 1-1 1.2-1.6V8.7c-.2-.7-.6-1.3-1.2-1.7c-.5-.4-1.1-.6-1.7-.6c-.5 0-1 .1-1.5.4c-.4.3-.8.8-1 1.4c-.3.6-.4 1.3-.4 2.1zm15.6-3.7h-2.1V5.4h2.1v-3h1.6v3h2.2v1.2h-2.2v8.6h-1.6V6.6zm5.2 8.6V1.4h1.5s.05 5.91 0 5.9c.4-.6.9-1.1 1.5-1.6c.6-.4 1.3-.6 2-.6c1.1 0 1.9.3 2.4.9c.6.7.8 1.6.8 2.7c.04.03 0 6.5 0 6.5h-1.5s-.04-6.34 0-6.3c0-.9-.2-1.5-.5-1.9c-.3-.4-.7-.6-1.4-.6c-.5 0-.9.1-1.4.4c-.4.3-.8.6-1.1 1.1c-.4.4-.6.9-.8 1.4c.05.04 0 5.9 0 5.9h-1.5zm10.7 0V5.4h1.4l.1 1.7c.3-.6.7-1.1 1.2-1.5c.5-.3 1.1-.5 1.7-.5h.6c.1.1.3.1.4.1v1.4c-.3-.1-.6-.1-1.1-.1c-.6 0-1.1.2-1.7.6c-.5.4-.8 1-1.1 1.7c.04 0 0 6.4 0 6.4h-1.5zm6-5.1c0-.9.2-1.8.6-2.6c.4-.8 1-1.4 1.7-1.8c.7-.4 1.5-.6 2.3-.6c.9 0 1.7.2 2.4.6c.7.4 1.3 1 1.7 1.8c.4.8.6 1.7.6 2.6v.3c0 1-.2 1.9-.6 2.7c-.4.7-1 1.3-1.7 1.7c-.7.5-1.5.7-2.4.7c-.8 0-1.6-.2-2.3-.7c-.7-.4-1.3-1-1.7-1.7c-.4-.8-.6-1.7-.6-2.7v-.3zm1.7.3c0 1.2.3 2.1.8 2.8c.5.7 1.2 1 2.1 1c1 0 1.7-.3 2.2-1c.6-.7.8-1.6.8-2.8v-.3c0-1.1-.2-2-.8-2.7c-.5-.7-1.2-1-2.2-1c-.9 0-1.6.3-2.1 1c-.5.7-.8 1.6-.8 2.7v.3zm9.3 1.4c0 1.2.3 2.1.8 2.7c.6.6 1.4 1 2.4 1c.8 0 1.4-.3 2-.7c.7-.4 1.1-1 1.5-1.6l.1 2h1.5V5.4h-1.6s-.02 5.76 0 5.8c-.2.5-.4 1-.7 1.4c-.4.5-.8.9-1.2 1.2c-.5.2-.9.4-1.4.4c-.6 0-1.1-.2-1.4-.6c-.3-.5-.4-1.1-.4-1.9c-.03 0 0-6.3 0-6.3h-1.6s-.02 6.43 0 6.4zm10.2-1.8c0-1 .1-1.8.5-2.6c.4-.7.9-1.3 1.5-1.7c.7-.4 1.4-.6 2.2-.6c.7 0 1.3.2 1.8.5c.6.3 1 .7 1.3 1.3c.05-.04.2-1.5.2-1.5h1.4s.02 9.43 0 9.4c0 .9-.2 1.7-.6 2.4c-.3.7-.9 1.2-1.6 1.6c-.8.3-1.7.5-2.7.5c-.6 0-1.2 0-1.7-.2c-.5-.1-1-.4-1.4-.7v-1.5c.9.7 1.9 1.1 3.2 1.1c1 0 1.7-.3 2.3-.8c.6-.6.9-1.4.9-2.4v-1.5c-.3.5-.8.9-1.3 1.2c-.6.3-1.1.5-1.8.5c-.8 0-1.5-.2-2.2-.6c-.6-.4-1.1-1-1.5-1.7c-.4-.8-.5-1.7-.5-2.7zm1.6 0c0 .8.1 1.4.4 2c.3.5.6 1 1 1.3c.5.3 1 .4 1.5.4c.6 0 1.1-.2 1.7-.6c.5-.5.9-1 1.1-1.7V8.6c-.2-.6-.6-1.2-1.1-1.6c-.6-.4-1.1-.6-1.7-.6c-.6 0-1 .1-1.5.4c-.4.3-.8.7-1 1.3c-.3.5-.4 1.2-.4 1.9zm9.9 5.2V1.4h1.6v5.9c.4-.6.8-1.1 1.4-1.6c.6-.4 1.3-.6 2.1-.6c1 0 1.8.3 2.4.9c.5.7.8 1.6.8 2.7v6.5h-1.6V8.9c0-.9-.1-1.5-.4-1.9c-.3-.4-.8-.6-1.5-.6c-.4 0-.9.1-1.3.4c-.5.3-.9.6-1.2 1.1c-.3.4-.6.9-.7 1.4v5.9h-1.6zm14.7-2.6c0-.7.2-1.2.5-1.7c.3-.4.7-.7 1.3-.9c.6-.3 1.3-.5 2.3-.7l2.5-.4c-.1-.9-.3-1.5-.7-1.9c-.4-.5-1.1-.7-1.9-.7c-.7 0-1.3.2-1.8.5c-.6.3-1 .6-1.4 1.1V6.4c.3-.4.8-.7 1.4-.9c.6-.3 1.2-.4 1.9-.4c1.3 0 2.2.3 3 .9c.7.7 1 1.6 1 2.9c.05-.04 0 6.3 0 6.3h-1.2s-.28-1.52-.3-1.5c-.4.5-1 1-1.6 1.3c-.6.3-1.3.5-2 .5c-.9 0-1.7-.3-2.2-.8c-.6-.5-.8-1.2-.8-2.1zm1.6-.1c0 .6.1 1 .4 1.2c.4.3.8.5 1.3.5c.6 0 1.2-.2 1.8-.6c.7-.4 1.1-.9 1.5-1.6c-.02.01 0-1.9 0-1.9c0 0-1.65.32-1.7.3c-.9.2-1.5.3-2 .5c-.4.1-.8.3-1 .6c-.2.3-.3.6-.3 1zm13.7 2.7V5.4h1.4s.16 1.94.2 1.9c.3-.6.8-1.1 1.4-1.5c.6-.5 1.3-.7 2.1-.7c1 0 1.8.3 2.4.9c.5.7.8 1.6.8 2.7v6.5h-1.6V8.9c0-.9-.2-1.5-.4-1.9c-.3-.4-.8-.6-1.5-.6c-.4 0-.9.1-1.3.4c-.5.3-.9.7-1.2 1.1c-.4.5-.6 1-.7 1.5c-.02 0 0 5.8 0 5.8h-1.6zm10-2.6c0-.7.2-1.2.5-1.7c.3-.4.7-.7 1.3-.9c.6-.3 1.3-.5 2.3-.7l2.5-.4c-.1-.9-.3-1.5-.7-1.9c-.4-.5-1.1-.7-1.9-.7c-.7 0-1.3.2-1.8.5c-.6.3-1 .6-1.4 1.1V6.4c.3-.4.8-.7 1.4-.9c.6-.3 1.2-.4 1.9-.4c1.3 0 2.3.3 3 .9c.7.7 1.1 1.6 1.1 2.9c-.04-.04 0 6.3 0 6.3H412s-.27-1.52-.3-1.5c-.4.5-1 1-1.6 1.3c-.6.3-1.3.5-2 .5c-.9 0-1.7-.3-2.2-.8c-.5-.5-.8-1.2-.8-2.1zm1.6-.1c0 .6.1 1 .5 1.2c.3.3.7.5 1.2.5c.6 0 1.2-.2 1.8-.6c.7-.4 1.1-.9 1.5-1.6v-1.9s-1.65.32-1.6.3c-.9.2-1.6.3-2.1.5c-.4.1-.8.3-1 .6c-.2.3-.3.6-.3 1zm9 2.7V5.4h1.5s.07 1.67.1 1.7c.2-.6.6-1.1 1.1-1.5c.5-.3 1.1-.5 1.8-.5h.5c.2.1.3.1.4.1v1.4c-.2-.1-.6-.1-1-.1c-.6 0-1.2.2-1.7.6c-.5.4-.9 1-1.1 1.7v6.4h-1.6zm6.8 0V5.4h1.4s.16 1.67.2 1.7c.2-.6.6-1.1 1.1-1.5c.5-.3 1.1-.5 1.8-.5h.5c.2.1.3.1.4.1v1.4c-.3-.1-.6-.1-1-.1c-.6 0-1.2.2-1.7.6c-.5.4-.9 1-1.1 1.7v6.4h-1.6zm6.1-5.1c0-.9.2-1.8.6-2.6c.4-.8.9-1.4 1.6-1.8c.7-.4 1.5-.6 2.4-.6c.9 0 1.7.2 2.4.6c.7.4 1.2 1 1.6 1.8c.4.8.6 1.7.6 2.6v.3c0 1-.2 1.9-.6 2.7c-.4.7-.9 1.3-1.6 1.7c-.7.5-1.5.7-2.4.7c-.9 0-1.7-.2-2.4-.7c-.7-.4-1.2-1-1.6-1.7c-.4-.8-.6-1.7-.6-2.7v-.3zm1.6.3c0 1.2.3 2.1.8 2.8c.6.7 1.3 1 2.2 1c.9 0 1.7-.3 2.2-1c.5-.7.8-1.6.8-2.8v-.3c0-1.1-.3-2-.8-2.7c-.5-.7-1.3-1-2.2-1c-.9 0-1.6.3-2.2 1c-.5.7-.8 1.6-.8 2.7v.3zm11 4.8l-2.8-9.8h1.6l2.2 8l2.2-8h2l2.1 8l2.3-8h1.4l-2.8 9.8h-1.9l-2.2-8.1l-2.2 8.1h-1.9z" stroke="none" fill="#fff"/></g></svg>