<?xml version="1.0" encoding="utf-8"?>
<!-- Generator: Adobe Illustrator 27.5.0, SVG Export Plug-In . SVG Version: 6.00 Build 0)  -->
<svg version="1.1" id="레이어_1" xmlns="http://www.w3.org/2000/svg" xmlns:xlink="http://www.w3.org/1999/xlink" x="0px"
	 y="0px" viewBox="0 0 1920 1080" style="enable-background:new 0 0 1920 1080;" xml:space="preserve">
<style type="text/css">
	.st0{clip-path:url(#SVGID_00000093156655838426851360000005646953644350158232_);}
	.st1{opacity:0;clip-path:url(#SVGID_00000037671328640128506570000013054107163777073067_);}
	.st2{clip-path:url(#SVGID_00000143582727648742926150000007963085105880152230_);fill:#FFFFFF;}
	.st3{fill:#FFFFFF;}
	.st4{clip-path:url(#SVGID_00000047759450424964547890000003800801015651632021_);fill:#FFFFFF;}
</style>
<g>
	<defs>
		<rect id="SVGID_1_" y="470.5" width="1920" height="146"/>
	</defs>
	<clipPath id="SVGID_00000045601767895824966050000002809917436693917328_">
		<use xlink:href="#SVGID_1_"  style="overflow:visible;"/>
	</clipPath>
	<g style="clip-path:url(#SVGID_00000045601767895824966050000002809917436693917328_);">
		<defs>
			<rect id="SVGID_00000131327905270847355310000007453802957717367186_" y="470.5" width="1920" height="146"/>
		</defs>
		<clipPath id="SVGID_00000136404504740566824270000013624963791402045364_">
			<use xlink:href="#SVGID_00000131327905270847355310000007453802957717367186_"  style="overflow:visible;"/>
		</clipPath>
		<g style="opacity:0;clip-path:url(#SVGID_00000136404504740566824270000013624963791402045364_);">
			<g>
				<defs>
					<rect id="SVGID_00000111900538983607986980000004518450562014893241_" x="-9" y="463.5" width="1938" height="154"/>
				</defs>
				<clipPath id="SVGID_00000181803782297393896040000014760511503105554592_">
					<use xlink:href="#SVGID_00000111900538983607986980000004518450562014893241_"  style="overflow:visible;"/>
				</clipPath>
				
					<rect y="470.5" style="clip-path:url(#SVGID_00000181803782297393896040000014760511503105554592_);fill:#FFFFFF;" width="1920" height="146"/>
			</g>
		</g>
	</g>
	<g style="clip-path:url(#SVGID_00000045601767895824966050000002809917436693917328_);">
		<path class="st3" d="M915.1,576.9l0.9-0.9c0.4,0.7,1.2,1.3,2.3,1.3c0.9,0,1.4-0.5,1.4-1c0-0.5-0.3-0.8-1.2-1l-0.6-0.1
			c-1.3-0.2-2.2-1-2.2-2.1c0-1.3,1-2.3,2.7-2.3c1.2,0,2.1,0.5,2.6,1.2l-0.9,0.9c-0.5-0.6-1.1-0.9-1.8-0.9c-0.7,0-1.2,0.4-1.2,0.8
			c0,0.4,0.3,0.8,1,0.9l0.6,0.1c1.5,0.2,2.4,1,2.4,2.3c0,1.4-1.2,2.4-2.9,2.4C916.5,578.6,915.6,577.7,915.1,576.9z"/>
		<path class="st3" d="M921.9,574.7c0-2.2,1.6-3.9,3.8-3.9c1.6,0,2.7,0.7,3.4,1.8l-1.1,0.8c-0.5-0.8-1.2-1.3-2.3-1.3
			c-1.5,0-2.4,1.1-2.4,2.6s0.9,2.6,2.4,2.6c1.1,0,1.8-0.5,2.3-1.3l1.1,0.8c-0.6,1.1-1.8,1.8-3.4,1.8
			C923.5,578.6,921.9,576.9,921.9,574.7z"/>
		<path class="st3" d="M932.7,575.4h-1.2v3h-1.4v-7.5h3.3c1.4,0,2.5,0.8,2.5,2.2c0,1.1-0.6,1.9-1.6,2.1l2.4,3.1v0H935L932.7,575.4z
			 M933.3,574.1c0.8,0,1.2-0.4,1.2-1s-0.4-1-1.2-1h-1.7v2H933.3z"/>
		<path class="st3" d="M937,574.7c0-2.2,1.6-3.9,3.8-3.9c2.2,0,3.8,1.7,3.8,3.9s-1.6,3.9-3.8,3.9C938.6,578.6,937,576.9,937,574.7z
			 M938.5,574.7c0,1.5,0.9,2.6,2.3,2.6c1.4,0,2.3-1.1,2.3-2.6s-0.9-2.6-2.3-2.6C939.4,572.1,938.5,573.2,938.5,574.7z"/>
		<path class="st3" d="M945.8,570.9h1.4v6.2h3.6v1.3h-5V570.9z"/>
		<path class="st3" d="M951.9,570.9h1.4v6.2h3.6v1.3h-5V570.9z"/>
	</g>
	<g style="clip-path:url(#SVGID_00000045601767895824966050000002809917436693917328_);">
		<defs>
			<rect id="SVGID_00000166664628786120419040000010323267913722017193_" y="470.5" width="1920" height="146"/>
		</defs>
		<clipPath id="SVGID_00000183207286198712357360000018213036542373907845_">
			<use xlink:href="#SVGID_00000166664628786120419040000010323267913722017193_"  style="overflow:visible;"/>
		</clipPath>
		<path style="clip-path:url(#SVGID_00000183207286198712357360000018213036542373907845_);fill:#FFFFFF;" d="M931.4,548.9l-1.3,1.3
			l5.9,5.9l5.9-5.9l-1.3-1.3l-4.6,4.6L931.4,548.9z M931.4,543.8l-1.3,1.3l5.9,5.9l5.9-5.9l-1.3-1.3l-4.6,4.6L931.4,543.8z
			 M937.3,519.3c0,0.7-0.6,1.3-1.3,1.3c-0.7,0-1.3-0.6-1.3-1.3v-4c0-0.7,0.6-1.3,1.3-1.3c0.7,0,1.3,0.6,1.3,1.3V519.3L937.3,519.3z
			 M939.2,519.3v-4c0-1.8-1.4-3.2-3.2-3.2s-3.2,1.4-3.2,3.2v4c0,1.8,1.4,3.2,3.2,3.2C937.8,522.4,939.2,521,939.2,519.3
			 M946.1,530.2c0,5.6-4.5,10.1-10.1,10.1h0c-5.6,0-10.1-4.5-10.1-10.1v-12c0-5.6,4.5-10.1,10.1-10.1h0c5.6,0,10.1,4.5,10.1,10.1
			V530.2z M948,530.2v-12c0-6.6-5.4-12-12-12h0c-6.6,0-12,5.4-12,12v12c0,6.6,5.4,12,12,12h0C942.6,542.2,948,536.8,948,530.2"/>
	</g>
</g>
</svg>
