<?xml version="1.0" encoding="utf-8"?>
<!-- Generator: Adobe Illustrator 27.5.0, SVG Export Plug-In . SVG Version: 6.00 Build 0)  -->
<svg version="1.1" id="레이어_1" xmlns="http://www.w3.org/2000/svg" xmlns:xlink="http://www.w3.org/1999/xlink" x="0px"
	 y="0px" viewBox="0 0 1920 1080" style="enable-background:new 0 0 1920 1080;" xml:space="preserve">
<style type="text/css">
	.st0{clip-path:url(#SVGID_00000105412007422203419550000012449692750631066016_);}
	.st1{opacity:0;clip-path:url(#SVGID_00000104663825341429728500000002271110919784389509_);}
	.st2{clip-path:url(#SVGID_00000040548763469465912510000000765458990863765150_);fill:#FFFFFF;}
	.st3{fill:#FFFFFF;}
</style>
<g>
	<defs>
		<rect id="SVGID_1_" y="470.5" width="1920" height="146"/>
	</defs>
	<clipPath id="SVGID_00000062883334066622861560000014234616800646459533_">
		<use xlink:href="#SVGID_1_"  style="overflow:visible;"/>
	</clipPath>
	<g style="clip-path:url(#SVGID_00000062883334066622861560000014234616800646459533_);">
		<defs>
			<rect id="SVGID_00000085930157577597484640000011002654807315502233_" y="470.5" width="1920" height="146"/>
		</defs>
		<clipPath id="SVGID_00000176751441989142431650000011716729091804604323_">
			<use xlink:href="#SVGID_00000085930157577597484640000011002654807315502233_"  style="overflow:visible;"/>
		</clipPath>
		<g style="opacity:0;clip-path:url(#SVGID_00000176751441989142431650000011716729091804604323_);">
			<g>
				<defs>
					<rect id="SVGID_00000072247043660072966450000017272618799284734353_" x="-9" y="463.5" width="1938" height="154"/>
				</defs>
				<clipPath id="SVGID_00000054223524858311128830000007565104648303513490_">
					<use xlink:href="#SVGID_00000072247043660072966450000017272618799284734353_"  style="overflow:visible;"/>
				</clipPath>
				
					<rect y="470.5" style="clip-path:url(#SVGID_00000054223524858311128830000007565104648303513490_);fill:#FFFFFF;" width="1920" height="146"/>
			</g>
		</g>
	</g>
	<g style="clip-path:url(#SVGID_00000062883334066622861560000014234616800646459533_);">
		<path class="st3" d="M624.7,509.3h14v49H667v12.1h-42.3V509.3z"/>
		<path class="st3" d="M672.9,503.7h13.8v13.4h-13.8V503.7z M672.9,523.3h13.8v47.2h-13.8V523.3z"/>
		<path class="st3" d="M700.6,534.2h-6.9v-10.9h6.9v-1.3c0-9.2,5.6-16.4,17.3-16.4c1.7,0,3.8,0.1,5,0.3v11h-2.4
			c-3.3,0-6.1,1.3-6.1,5.2v1.2h8.5v10.9h-8.5v36.3h-13.8V534.2z"/>
		<path class="st3" d="M725.6,547.1c0-14.9,10.3-24.9,24.1-24.9s22.7,9.2,22.7,22.9c0,1.7-0.3,4.3-0.5,5.7h-32.8
			c1.1,5.4,4.9,9.3,12.7,9.3c5.4,0,9.7-3.2,12.1-6.1l7.3,9.1c-4.2,4.7-11.1,8.7-20.1,8.7C735.3,571.8,725.6,560.6,725.6,547.1z
			 M739.6,540.8h19.4c-0.5-4.9-4-7.6-9.4-7.6C744.7,533.2,741.2,535.8,739.6,540.8z"/>
		<path class="st3" d="M775.9,563.1l7.1-8.7c3.1,3.6,8.3,6.5,13.4,6.5c4.3,0,7-1.6,7-4c0-2.6-2.2-3.4-5.9-4l-4.3-0.7
			c-9-1.5-14.1-6.8-14.1-14.6c0-8.6,7.4-15.3,19.5-15.3c7.6,0,13.2,3.1,16.6,6.8l-6.8,8.7c-3-2.9-6.4-4.6-10.4-4.6
			c-3.4,0-5.2,1.4-5.2,3.5c0,1.7,1.2,2.8,3.9,3.2l4.3,0.7c11.1,1.7,16.2,6.9,16.2,15.3c0,8.6-7.4,15.9-21.2,15.9
			C787.2,571.8,780.4,568.1,775.9,563.1z"/>
		<path class="st3" d="M827.1,551.4v-17.2h-7.6v-10.9h8.1v-11.9h13.3v11.9h10.3v10.9h-10.3v18c0,5.4,2.7,7.4,7.7,7.4h2.6v10.9
			c-1.8,0.4-4.1,0.6-6,0.6C833.2,571.1,827.1,565.2,827.1,551.4z"/>
		<path class="st3" d="M871.8,563.9l-18.4-40.6h14.7l11,25.4l10.2-25.4H904l-27.1,62.1h-14.8L871.8,563.9z"/>
		<path class="st3" d="M908.4,506.6h13.8v63.9h-13.8V506.6z"/>
		<path class="st3" d="M929.4,547.1c0-14.9,10.3-24.9,24.1-24.9s22.7,9.2,22.7,22.9c0,1.7-0.3,4.3-0.4,5.7H943
			c1.1,5.4,4.9,9.3,12.7,9.3c5.4,0,9.7-3.2,12.1-6.1l7.3,9.1c-4.2,4.7-11.1,8.7-20.1,8.7C939.2,571.8,929.4,560.6,929.4,547.1z
			 M943.5,540.8h19.4c-0.5-4.9-4-7.6-9.4-7.6C948.5,533.2,945,535.8,943.5,540.8z"/>
		<path class="st3" d="M996.8,523.3h14.7l11.1,30.4l11.1-30.4h14.7l-18.8,47.2h-13.9L996.8,523.3z"/>
		<path class="st3" d="M1048.8,547.1c0-14.9,10.3-24.9,24.1-24.9s22.7,9.2,22.7,22.9c0,1.7-0.3,4.3-0.4,5.7h-32.8
			c1.1,5.4,4.9,9.3,12.7,9.3c5.4,0,9.7-3.2,12.1-6.1l7.3,9.1c-4.2,4.7-11.1,8.7-20.1,8.7C1058.5,571.8,1048.8,560.6,1048.8,547.1z
			 M1062.8,540.8h19.4c-0.5-4.9-4-7.6-9.4-7.6C1067.9,533.2,1064.4,535.8,1062.8,540.8z"/>
		<path class="st3" d="M1102.9,506.6h13.8v22.9c2.5-4.2,7.5-7.3,14.5-7.3c12.3,0,17.5,8.8,17.5,20.4v27.9h-13.8V544
			c0-6.4-2.9-9.8-9-9.8c-5,0-8.2,3.6-9.2,7.3v29h-13.8V506.6z"/>
		<path class="st3" d="M1157.8,503.7h13.8v13.4h-13.8V503.7z M1157.8,523.3h13.8v47.2h-13.8V523.3z"/>
		<path class="st3" d="M1178.7,546.9c0-12.4,8.5-24.7,24.9-24.7c9.5,0,16.2,4.3,21.1,11.6l-9.5,7.5c-2.4-3.9-5.8-7-10.8-7
			c-7.5,0-11.8,5-11.8,12.7s4.3,12.7,11.8,12.7c5,0,8.4-3.1,10.8-7l9.5,7.5c-4.9,7.3-11.5,11.6-21.1,11.6
			C1187.3,571.7,1178.7,559.3,1178.7,546.9z"/>
		<path class="st3" d="M1231,506.6h13.8v63.9H1231V506.6z"/>
		<path class="st3" d="M1252.1,547.1c0-14.9,10.3-24.9,24.1-24.9s22.7,9.2,22.7,22.9c0,1.7-0.3,4.3-0.4,5.7h-32.8
			c1.1,5.4,4.9,9.3,12.7,9.3c5.4,0,9.7-3.2,12.1-6.1l7.3,9.1c-4.2,4.7-11.1,8.7-20.1,8.7C1261.8,571.8,1252.1,560.6,1252.1,547.1z
			 M1266.1,540.8h19.4c-0.5-4.9-4-7.6-9.4-7.6C1271.2,533.2,1267.7,535.8,1266.1,540.8z"/>
	</g>
</g>
</svg>
