<?xml version="1.0" encoding="utf-8"?>
<!-- Generator: Adobe Illustrator 27.5.0, SVG Export Plug-In . SVG Version: 6.00 Build 0)  -->
<svg version="1.1" id="레이어_1" xmlns="http://www.w3.org/2000/svg" xmlns:xlink="http://www.w3.org/1999/xlink" x="0px"
	 y="0px" viewBox="0 0 1920 1080" style="enable-background:new 0 0 1920 1080;" xml:space="preserve">
<style type="text/css">
	.st0{clip-path:url(#SVGID_00000105388098965492555620000004822873027953990534_);}
	.st1{opacity:0;clip-path:url(#SVGID_00000005983190668952506840000002681784329890248861_);}
	.st2{clip-path:url(#SVGID_00000105386542673904569040000010915210343212129664_);fill:#FFFFFF;}
	.st3{fill:#FFFFFF;}
</style>
<g>
	<defs>
		<rect id="SVGID_1_" y="398.5" width="1920" height="284"/>
	</defs>
	<clipPath id="SVGID_00000075145624342863267380000002630081973637646512_">
		<use xlink:href="#SVGID_1_"  style="overflow:visible;"/>
	</clipPath>
	<g style="clip-path:url(#SVGID_00000075145624342863267380000002630081973637646512_);">
		<defs>
			<rect id="SVGID_00000054982660299968321770000014801694992765787834_" y="398.5" width="1920" height="284"/>
		</defs>
		<clipPath id="SVGID_00000064318112984108468290000013676350712008376194_">
			<use xlink:href="#SVGID_00000054982660299968321770000014801694992765787834_"  style="overflow:visible;"/>
		</clipPath>
		<g style="opacity:0;clip-path:url(#SVGID_00000064318112984108468290000013676350712008376194_);">
			<g>
				<defs>
					<rect id="SVGID_00000155143307463670085620000000129930016732760505_" x="-9" y="460.5" width="1938" height="154"/>
				</defs>
				<clipPath id="SVGID_00000013178593154593928900000004811020916591042946_">
					<use xlink:href="#SVGID_00000155143307463670085620000000129930016732760505_"  style="overflow:visible;"/>
				</clipPath>
				
					<rect y="467.5" style="clip-path:url(#SVGID_00000013178593154593928900000004811020916591042946_);fill:#FFFFFF;" width="1920" height="146"/>
			</g>
		</g>
	</g>
	<g style="clip-path:url(#SVGID_00000075145624342863267380000002630081973637646512_);">
		<path class="st3" d="M363.8,505h-29.1v-19.6h80.9V505h-29.1v79h-22.6V505z"/>
		<path class="st3" d="M425.2,481h22.2v36.8c4.1-6.8,12-11.7,23.3-11.7c19.9,0,28.1,14.2,28.1,32.9v45h-22.2v-42.6
			c0-10.3-4.6-15.8-14.5-15.8c-8.1,0-13.2,5.8-14.8,11.7V584h-22.2V481z"/>
		<path class="st3" d="M509.7,546.3c0-24.1,16.5-40.2,38.9-40.2s36.5,14.8,36.5,37c0,2.8-0.4,7-0.7,9.1h-52.8
			c1.7,8.7,7.8,14.9,20.4,14.9c8.7,0,15.7-5.1,19.4-9.9l11.7,14.6c-6.8,7.5-17.8,14.1-32.3,14.1C525.4,586,509.7,568,509.7,546.3z
			 M532.3,536.1h31.3c-0.9-8-6.4-12.2-15.1-12.2C540.5,524,534.8,528,532.3,536.1z"/>
		<path class="st3" d="M681.1,576.2c-5.4,5.7-13.2,9.7-22.6,9.7c-21,0-36.3-15.5-36.3-39.9s15.2-39.9,36.3-39.9
			c9.4,0,17.3,4.1,22.6,9.9v-8h22.2v76h-22.2V576.2z M681.1,556.7v-21.3c-3.2-6.4-10.1-9.9-17.1-9.9c-11,0-19.3,7.2-19.3,20.4
			s8.3,20.4,19.3,20.4C670.9,566.5,677.9,563,681.1,556.7z"/>
		<path class="st3" d="M718.9,481h22.2v103h-22.2V481z"/>
		<path class="st3" d="M756.8,481H779v103h-22.2V481z"/>
		<path class="st3" d="M793.9,531.2H837v17.7h-43.1V531.2z"/>
		<path class="st3" d="M851.9,508h22.2v9.9c4.1-6.8,12-11.7,23.3-11.7c19.9,0,28.1,14.2,28.1,32.9v45h-22.2v-42.6
			c0-10.3-4.6-15.8-14.5-15.8c-8.1,0-13.2,5.8-14.8,11.7V584h-22.2V508z"/>
		<path class="st3" d="M936.4,546.3c0-24.1,16.5-40.2,38.9-40.2c22.3,0,36.5,14.8,36.5,37c0,2.8-0.4,7-0.7,9.1h-52.8
			c1.7,8.7,7.8,14.9,20.4,14.9c8.7,0,15.7-5.1,19.4-9.9L1010,572c-6.8,7.5-17.8,14.1-32.3,14.1C952.1,586,936.4,568,936.4,546.3z
			 M959.1,536.1h31.3c-0.9-8-6.4-12.2-15.1-12.2C967.2,524,961.5,528,959.1,536.1z"/>
		<path class="st3" d="M1014.4,508h23.6l13.3,46.3l15.1-46.3h23.8l15.1,46.3l13.3-46.3h23.6l-24.5,76h-22.3l-17.1-48.9l-17.1,48.9
			h-22.3L1014.4,508z"/>
		<path class="st3" d="M1181,485.4h22.6v42.8l34.9-42.8h27v0.4l-35.4,41.3l37.4,56.4v0.4h-26.2l-25.8-39.6l-11.9,13.9V584H1181
			V485.4z"/>
		<path class="st3" d="M1270.7,534.7c0-29.9,21.2-51.5,50.8-51.5s50.8,21.6,50.8,51.5c0,29.9-21.2,51.5-50.8,51.5
			S1270.7,564.6,1270.7,534.7z M1348.8,534.7c0-17.4-10.2-30.6-27.4-30.6s-27.4,13.2-27.4,30.6s10.1,30.6,27.4,30.6
			S1348.8,552.1,1348.8,534.7z"/>
		<path class="st3" d="M1386.1,485.4h19.7l49.2,61.2v-61.2h22.6V584H1458l-49.3-61.2V584h-22.6V485.4z"/>
		<path class="st3" d="M1523.7,485.4h27l37.6,98.6h-23.3l-7-18.9h-41.5l-7,18.9h-23.3L1523.7,485.4z M1523.7,545.6h27l-13.5-36.5
			L1523.7,545.6z"/>
	</g>
</g>
</svg>
