<?xml version="1.0" encoding="utf-8"?>
<!-- Generator: Adobe Illustrator 27.5.0, SVG Export Plug-In . SVG Version: 6.00 Build 0)  -->
<svg version="1.1" id="레이어_1" xmlns="http://www.w3.org/2000/svg" xmlns:xlink="http://www.w3.org/1999/xlink" x="0px"
	 y="0px" viewBox="0 0 1920 1080" style="enable-background:new 0 0 1920 1080;" xml:space="preserve">
<style type="text/css">
	.st0{clip-path:url(#SVGID_00000140701984911900259130000014098538604609818020_);}
	.st1{opacity:0;clip-path:url(#SVGID_00000013901461718233099320000009929146262972872382_);}
	.st2{clip-path:url(#SVGID_00000011738752359416854620000011421525995819976835_);fill:#FFFFFF;}
	.st3{fill:#FFFFFF;}
</style>
<g>
	<defs>
		<rect id="SVGID_1_" y="317.7" width="1920" height="445.5"/>
	</defs>
	<clipPath id="SVGID_00000015336841433660636090000011744153887917514629_">
		<use xlink:href="#SVGID_1_"  style="overflow:visible;"/>
	</clipPath>
	<g style="clip-path:url(#SVGID_00000015336841433660636090000011744153887917514629_);">
		<defs>
			<rect id="SVGID_00000055665017598895854110000014804063063893701793_" y="317.7" width="1920" height="445.5"/>
		</defs>
		<clipPath id="SVGID_00000137101162321963289520000012371155812264015529_">
			<use xlink:href="#SVGID_00000055665017598895854110000014804063063893701793_"  style="overflow:visible;"/>
		</clipPath>
		<g style="opacity:0;clip-path:url(#SVGID_00000137101162321963289520000012371155812264015529_);">
			<g>
				<defs>
					<rect id="SVGID_00000171720532200179982140000003557218820800888762_" x="-9" y="460.5" width="1938" height="154"/>
				</defs>
				<clipPath id="SVGID_00000080176932875950708580000018024711525137824948_">
					<use xlink:href="#SVGID_00000171720532200179982140000003557218820800888762_"  style="overflow:visible;"/>
				</clipPath>
				
					<rect y="467.5" style="clip-path:url(#SVGID_00000080176932875950708580000018024711525137824948_);fill:#FFFFFF;" width="1920" height="146"/>
			</g>
		</g>
	</g>
	<g style="clip-path:url(#SVGID_00000015336841433660636090000011744153887917514629_);">
		<path class="st3" d="M503.3,574.5l20.5-21c8.1,12,21.6,23.7,42.1,23.7c14.5,0,22.2-6.8,22.2-15.8c0-6.4-3.5-12.7-19.7-14.9
			l-11.2-1.7c-26.1-3.7-43.4-18.9-43.4-41.3c0-25.7,20.3-45,52.5-45c22,0,40.5,9.3,51.3,22.4l-19.9,21.6c-8.7-9.5-19.9-15.4-32-15.4
			c-11.6,0-18.5,6.2-18.5,12.9c0,6.2,4.8,11.6,15.8,13.3l11.2,1.7c29.9,4.4,47.3,19.5,47.3,44.2c0,28.2-23.7,46.7-56.2,46.7
			C531.7,605.9,513.7,589.3,503.3,574.5z"/>
		<path class="st3" d="M677.4,461.6H716l53.7,141.1h-33.4l-10-27H667l-10,27h-33.4L677.4,461.6z M677.4,547.8H716l-19.3-52.3
			L677.4,547.8z"/>
		<path class="st3" d="M782,461.6h28.2l70.3,87.6v-87.6h32.4v141.1h-28l-70.6-87.6v87.6H782V461.6z"/>
		<path class="st3" d="M970.8,489.7h-41.7v-28h115.8v28h-41.7v113.1h-32.4V489.7z"/>
		<path class="st3" d="M1085.5,461.6h38.6l53.7,141.1h-33.4l-10-27h-59.3l-10,27h-33.4L1085.5,461.6z M1085.5,547.8h38.6l-19.3-52.3
			L1085.5,547.8z"/>
		<path class="st3" d="M1190.1,461.6h99.6v28h-67.2v28.8h59.1v28h-59.1v56.2h-32.4V461.6z"/>
		<path class="st3" d="M1309.2,461.6h101.7v28h-69.3v27.8h59.1v28h-59.1v29.3h69.3v28h-101.7V461.6z"/>
	</g>
</g>
</svg>
