<?xml version="1.0" encoding="utf-8"?>
<!-- Generator: Adobe Illustrator 27.5.0, SVG Export Plug-In . SVG Version: 6.00 Build 0)  -->
<svg version="1.1" id="레이어_1" xmlns="http://www.w3.org/2000/svg" xmlns:xlink="http://www.w3.org/1999/xlink" x="0px"
	 y="0px" viewBox="0 0 1920 1080" style="enable-background:new 0 0 1920 1080;" xml:space="preserve">
<style type="text/css">
	.st0{clip-path:url(#SVGID_00000116933585792185724080000008015584230169511840_);}
	.st1{opacity:0;clip-path:url(#SVGID_00000072973443784148373400000015122252727772533642_);}
	.st2{clip-path:url(#SVGID_00000129884949351081875440000014846508982516769923_);fill:#FFFFFF;}
	.st3{fill:#FFFFFF;}
</style>
<g>
	<defs>
		<rect id="SVGID_1_" y="470.5" width="1920" height="146"/>
	</defs>
	<clipPath id="SVGID_00000155125926806330035320000006712547644157060496_">
		<use xlink:href="#SVGID_1_"  style="overflow:visible;"/>
	</clipPath>
	<g style="clip-path:url(#SVGID_00000155125926806330035320000006712547644157060496_);">
		<defs>
			<rect id="SVGID_00000127760213144747110650000005325355743156892083_" y="470.5" width="1920" height="146"/>
		</defs>
		<clipPath id="SVGID_00000124883582329644042280000010987472903890336389_">
			<use xlink:href="#SVGID_00000127760213144747110650000005325355743156892083_"  style="overflow:visible;"/>
		</clipPath>
		<g style="opacity:0;clip-path:url(#SVGID_00000124883582329644042280000010987472903890336389_);">
			<g>
				<defs>
					<rect id="SVGID_00000152986020490386005860000013803272159362751408_" x="-9" y="463.5" width="1938" height="154"/>
				</defs>
				<clipPath id="SVGID_00000023978103343247429720000000163493672887071130_">
					<use xlink:href="#SVGID_00000152986020490386005860000013803272159362751408_"  style="overflow:visible;"/>
				</clipPath>
				
					<rect y="470.5" style="clip-path:url(#SVGID_00000023978103343247429720000000163493672887071130_);fill:#FFFFFF;" width="1920" height="146"/>
			</g>
		</g>
	</g>
	<g style="clip-path:url(#SVGID_00000155125926806330035320000006712547644157060496_);">
		<path class="st3" d="M550.8,544.1v-34.8h14v34c0,9.2,3.2,15.6,12.6,15.6c9.4,0,12.6-6.4,12.6-15.6v-34h14v34.8
			c0,15.8-8.5,27.7-26.6,27.7S550.8,559.9,550.8,544.1z"/>
		<path class="st3" d="M614.2,523.3H628v6.1c2.5-4.2,7.5-7.3,14.5-7.3c12.3,0,17.5,8.8,17.5,20.4v27.9h-13.8V544
			c0-6.4-2.9-9.8-9-9.8c-5,0-8.2,3.6-9.2,7.3v29h-13.8V523.3z"/>
		<path class="st3" d="M669.1,503.7h13.8v13.4h-13.8V503.7z M669.1,523.3h13.8v47.2h-13.8V523.3z"/>
		<path class="st3" d="M740.4,585.4h-13.8v-19.8c-3.2,3.5-8.2,6-14,6c-13,0-22.5-9.6-22.5-24.7s9.4-24.7,22.5-24.7
			c5.8,0,10.8,2.5,14,6.1v-5h13.8V585.4z M726.7,553.6v-13.2c-1.9-4-6.3-6.1-10.6-6.1c-6.8,0-12,4.5-12,12.7s5.1,12.7,12,12.7
			C720.4,559.6,724.8,557.5,726.7,553.6z"/>
		<path class="st3" d="M795.3,570.5h-13.8v-6.1c-2.5,4.2-7.5,7.3-14.5,7.3c-12.3,0-17.5-8.8-17.5-20.4v-27.9h13.8v26.5
			c0,6.4,2.9,9.8,9,9.8c5,0,8.2-3.6,9.2-7.3v-29h13.8V570.5z"/>
		<path class="st3" d="M802.6,547.1c0-14.9,10.3-24.9,24.1-24.9s22.7,9.2,22.7,22.9c0,1.7-0.3,4.3-0.5,5.7h-32.8
			c1.1,5.4,4.9,9.3,12.7,9.3c5.4,0,9.7-3.2,12.1-6.1l7.3,9.1c-4.2,4.7-11.1,8.7-20.1,8.7C812.4,571.8,802.6,560.6,802.6,547.1z
			 M816.7,540.8h19.4c-0.5-4.9-4-7.6-9.4-7.6C821.7,533.2,818.2,535.8,816.7,540.8z"/>
		<path class="st3" d="M876,509.3h24.7c13,0,22.5,5.9,22.5,19.7s-9.5,19.7-22.5,19.7H890v21.8h-14V509.3z M898.8,536.6
			c5.7,0,9.9-1.5,9.9-7.6s-4.2-7.6-9.9-7.6H890v15.1H898.8z"/>
		<path class="st3" d="M929.8,523.3h13.8v6.8c2.7-5,7-7.9,12.6-7.9h1.6v13c-6.5,0-12.1,1.3-14.2,8.3v27.1h-13.8V523.3z"/>
		<path class="st3" d="M960.9,547c0-12.5,8.2-24.8,25.5-24.8s25.5,12.3,25.5,24.8c0,12.5-8.2,24.8-25.5,24.8S960.9,559.5,960.9,547z
			 M997.8,547c0-7.7-4.8-12.8-11.5-12.8c-6.8,0-11.5,5-11.5,12.8c0,7.7,4.8,12.8,11.5,12.8C993.1,559.8,997.8,554.8,997.8,547z"/>
		<path class="st3" d="M1019,523.3h13.8v5c3.2-3.6,8.2-6.1,14-6.1c13,0,22.5,9.6,22.5,24.7s-9.5,24.7-22.5,24.7
			c-5.8,0-10.8-2.5-14-6v19.8H1019V523.3z M1055.4,546.9c0-8.2-5.1-12.7-12-12.7c-4.3,0-8.7,2.2-10.6,6.1v13.2c1.9,3.9,6.3,6,10.6,6
			C1050.2,559.6,1055.4,555.1,1055.4,546.9z"/>
		<path class="st3" d="M1074.1,547c0-12.5,8.2-24.8,25.5-24.8s25.5,12.3,25.5,24.8c0,12.5-8.2,24.8-25.5,24.8
			S1074.1,559.5,1074.1,547z M1111.1,547c0-7.7-4.8-12.8-11.5-12.8c-6.7,0-11.5,5-11.5,12.8c0,7.7,4.8,12.8,11.5,12.8
			C1106.3,559.8,1111.1,554.8,1111.1,547z"/>
		<path class="st3" d="M1132.2,523.3h13.8v6.8c2.7-5,7-7.9,12.6-7.9h1.6v13c-6.5,0-12.1,1.3-14.2,8.3v27.1h-13.8V523.3z"/>
		<path class="st3" d="M1169.5,551.4v-17.2h-7.6v-10.9h8.1v-11.9h13.3v11.9h10.3v10.9h-10.3v18c0,5.4,2.7,7.4,7.7,7.4h2.6v10.9
			c-1.8,0.4-4.1,0.6-6,0.6C1175.6,571.1,1169.5,565.2,1169.5,551.4z"/>
		<path class="st3" d="M1200.7,503.7h13.8v13.4h-13.8V503.7z M1200.7,523.3h13.8v47.2h-13.8V523.3z"/>
		<path class="st3" d="M1221.7,547c0-12.5,8.2-24.8,25.5-24.8s25.5,12.3,25.5,24.8c0,12.5-8.2,24.8-25.5,24.8
			S1221.7,559.5,1221.7,547z M1258.7,547c0-7.7-4.8-12.8-11.5-12.8c-6.7,0-11.5,5-11.5,12.8c0,7.7,4.8,12.8,11.5,12.8
			C1253.9,559.8,1258.7,554.8,1258.7,547z"/>
		<path class="st3" d="M1279.8,523.3h13.8v6.1c2.5-4.2,7.5-7.3,14.5-7.3c12.3,0,17.5,8.8,17.5,20.4v27.9h-13.8V544
			c0-6.4-2.9-9.8-9-9.8c-5,0-8.2,3.6-9.2,7.3v29h-13.8V523.3z"/>
		<path class="st3" d="M1330.9,563.1l7.1-8.7c3.2,3.6,8.3,6.5,13.4,6.5c4.3,0,7-1.6,7-4c0-2.6-2.2-3.4-5.9-4l-4.3-0.7
			c-9-1.5-14.1-6.8-14.1-14.6c0-8.6,7.4-15.3,19.5-15.3c7.6,0,13.2,3.1,16.6,6.8l-6.8,8.7c-3-2.9-6.4-4.6-10.4-4.6
			c-3.4,0-5.2,1.4-5.2,3.5c0,1.7,1.2,2.8,3.9,3.2l4.3,0.7c11.1,1.7,16.2,6.9,16.2,15.3c0,8.6-7.4,15.9-21.2,15.9
			C1342.2,571.8,1335.4,568.1,1330.9,563.1z"/>
	</g>
</g>
</svg>
