<?xml version="1.0" standalone="no"?><!DOCTYPE svg PUBLIC "-//W3C//DTD SVG 1.1//EN" "http://www.w3.org/Graphics/SVG/1.1/DTD/svg11.dtd"><svg xmlns="http://www.w3.org/2000/svg" version="1.1" width="1816px" height="31.2px" viewBox="0 -6 1816 31.2" style="top:-6px"><desc>텍스트 B</desc><defs/><g id="Polygon52852"><path d="m865.7 15.1H857V1.5h8.7v1.9h-6.3v3.7h5.2v2h-5.2v4h6.3v2zm6.4 0l-5-13.6h2.7l3.8 10.8l3.8-10.8h2.4l-5 13.6h-2.7zm9.2-3.7c.4.6.9 1.1 1.6 1.5c.6.3 1.3.5 2 .5c.6 0 1.1-.1 1.5-.4c.4-.2.7-.5.9-.9c.3-.4.4-.9.4-1.3c0-.7-.2-1.3-.7-1.7c-.4-.4-1-.6-1.7-.6c-.4 0-.8 0-1.1.2c-.4.2-.6.3-.8.5c.02.03-1.6 0-1.6 0l.7-7.6h7.2v2h-5s-.29 3.35-.3 3.3c.2-.1.4-.2.7-.2c.3-.1.7-.2 1-.2c.8 0 1.5.2 2.1.5c.7.3 1.2.8 1.5 1.5c.4.6.6 1.4.6 2.3c0 .9-.3 1.7-.7 2.4c-.5.7-1.1 1.2-1.9 1.6c-.8.3-1.7.5-2.7.5c-1.5 0-2.7-.4-3.7-1.2v-2.7zm15.9-3.3c0-1.3.3-2.5.8-3.5c.6-1.1 1.4-1.9 2.4-2.5c1-.6 2.2-.9 3.6-.9c.8 0 1.6.1 2.4.4c.7.2 1.4.5 1.8.9v2.8c-.5-.7-1.1-1.2-1.8-1.6c-.7-.4-1.4-.5-2.3-.5c-.8 0-1.5.2-2.1.6c-.7.4-1.2 1-1.6 1.7c-.4.8-.6 1.7-.6 2.6v.4c0 .9.2 1.7.5 2.5c.3.8.8 1.4 1.4 1.8c.6.4 1.3.6 2.1.6c.7 0 1.4-.1 2-.5c.5-.3 1-.8 1.3-1.4c.3-.6.4-1.3.4-2c.02-.05-3.5 0-3.5 0v-2h5.9s.04 1.63 0 1.6c0 1.2-.2 2.2-.7 3.2c-.5.9-1.2 1.7-2.1 2.3c-.9.5-2 .8-3.3.8c-1.4 0-2.5-.3-3.5-.9c-1-.6-1.8-1.4-2.3-2.4c-.5-1.1-.8-2.3-.8-3.6v-.4zm17.6-4.7h-4.2V1.5h10.7v1.9h-4.1v11.7h-2.4V3.4zm12.6 6.6H922v-2h5.4v2zm4.8 5.1h-2.4V1.4h2.4v13.7zm5-11.3h-2.3V1.4h2.3v2.4zm0 11.3h-2.3V5.3h2.3v9.8zm2.7 0V5.3h2.2l.1 1.4c.4-.4.8-.8 1.3-1.2c.6-.3 1.2-.5 1.8-.5c1.1 0 2 .4 2.6 1c.6.6.9 1.5.9 2.7v6.4h-2.3s-.03-6.39 0-6.4c0-1.2-.5-1.9-1.5-1.9c-.6 0-1.2.3-1.7.7c-.5.5-.9 1-1.1 1.6v6h-2.3zm10.7-5.1c0-.9.2-1.8.6-2.5c.4-.8.9-1.4 1.6-1.8c.7-.4 1.5-.7 2.4-.7c1.5 0 2.6.5 3.4 1.4c.7.9 1.1 2.2 1.1 3.7c.04.03 0 .9 0 .9c0 0-6.82.03-6.8 0c.1.9.3 1.5.8 2c.5.4 1.2.6 2 .6c.6 0 1.2-.1 1.8-.3c.5-.2 1-.6 1.6-1.2v2.2c-.5.4-1 .6-1.6.8c-.6.2-1.2.3-1.9.3c-1.1 0-2-.2-2.7-.6c-.8-.5-1.3-1-1.7-1.8c-.4-.8-.6-1.6-.6-2.6v-.4zm6.8-.7c0-.8-.2-1.4-.6-1.9c-.4-.4-.9-.6-1.6-.6c-.6 0-1.1.2-1.6.7c-.4.4-.7 1-.7 1.8h4.5z" stroke="none" fill="#fff"/></g></svg>