<?xml version="1.0" standalone="no"?><!DOCTYPE svg PUBLIC "-//W3C//DTD SVG 1.1//EN" "http://www.w3.org/Graphics/SVG/1.1/DTD/svg11.dtd"><svg xmlns="http://www.w3.org/2000/svg" version="1.1" width="1082px" height="31.2px" viewBox="0 -6 1082 31.2" style="top:-6px"><desc>텍스트 B</desc><defs/><g id="Polygon52993"><path d="m8.9 8c.8.2 1.5.6 1.9 1.1c.5.5.8 1.2.8 2v.3c0 .8-.2 1.4-.6 2c-.4.6-.9 1-1.6 1.3c-.7.3-1.4.4-2.3.4c.05.04-5.6 0-5.6 0V1.5s5.39-.04 5.4 0c.8 0 1.5.1 2.1.4c.6.3 1.1.7 1.5 1.2c.3.6.5 1.2.5 1.9v.1c0 .7-.2 1.3-.6 1.7c-.4.5-.9.9-1.5 1.2zm-5-4.6v3.7h2.3c.7 0 1.2-.2 1.6-.4c.4-.3.6-.8.6-1.3v-.2c0-.6-.2-1.1-.6-1.3c-.4-.3-.9-.5-1.6-.5c.01.02-2.3 0-2.3 0zM9 11.1c0-.7-.3-1.3-.7-1.6c-.5-.3-1.1-.4-1.8-.4c-.02-.05-2.6 0-2.6 0v4.1s2.58-.02 2.6 0c.7 0 1.3-.2 1.8-.5c.4-.3.7-.8.7-1.5v-.1zm4.6 4V5.3h2.2l.1 1.6c.2-.5.6-1 1.1-1.3c.6-.4 1.2-.6 1.9-.6c.3 0 .5.1.7.1v2.1c-.2-.1-.5-.1-.8-.1c-.7 0-1.3.2-1.8.5c-.5.4-.9 1-1.1 1.6c.05 0 0 5.9 0 5.9h-2.3zm10-11.3h-2.3V1.4h2.3v2.4zm0 11.3h-2.3V5.3h2.3v9.8zm2-4.9c0-1 .2-1.9.6-2.7c.4-.8 1-1.4 1.6-1.8c.7-.4 1.5-.7 2.3-.7c.5 0 1.1.2 1.6.4c.5.2.9.5 1.3 1c-.01-.05 0-5 0-5h2.3v13.7h-2.2L33 14c-.3.4-.7.7-1.2 1c-.6.3-1.1.4-1.7.4c-.8 0-1.6-.2-2.3-.6c-.6-.4-1.2-1-1.6-1.8c-.4-.8-.6-1.7-.6-2.8zm2.5 0c0 .8.1 1.4.3 1.9c.3.5.6.9 1 1.1c.3.3.8.4 1.2.4c.5 0 1-.1 1.4-.4c.4-.3.8-.7 1-1.1V8.4c-.2-.5-.6-.9-1-1.2c-.4-.2-.9-.4-1.4-.4c-.4 0-.8.1-1.2.4c-.4.3-.7.6-1 1.2c-.2.5-.3 1.1-.3 1.8zm9.3-.2c0-1 .2-1.8.6-2.6c.4-.8.9-1.3 1.6-1.7c.7-.5 1.4-.7 2.2-.7c.6 0 1.2.2 1.7.4c.5.3.9.6 1.2 1.1c.05-.04.2-1.2.2-1.2h2.2s-.05 9.28 0 9.3c0 1.5-.5 2.7-1.5 3.5c-1 .8-2.3 1.2-4 1.2c-.7 0-1.4-.1-1.9-.3c-.5-.1-1-.3-1.5-.6v-2.3c.5.4 1 .7 1.6.9c.5.2 1.1.3 1.8.3c.9 0 1.7-.2 2.3-.7c.5-.5.8-1.1.8-2v-.8c-.3.4-.7.7-1.2.9c-.5.2-1.1.3-1.7.3c-.8 0-1.5-.2-2.2-.6c-.7-.4-1.2-1-1.6-1.7c-.4-.8-.6-1.7-.6-2.7zm2.4 0c0 .7.1 1.3.4 1.8c.2.5.6.8 1 1.1c.4.2.8.4 1.2.4c.5 0 .9-.2 1.3-.4c.5-.3.8-.7 1-1.2V8.4c-.2-.5-.5-.9-1-1.2c-.4-.2-.9-.4-1.4-.4c-.4 0-.8.1-1.2.4c-.4.2-.7.6-.9 1.1c-.3.5-.4 1-.4 1.7zm9.2 0c0-.9.2-1.8.6-2.5c.4-.8 1-1.4 1.7-1.8c.7-.4 1.5-.7 2.4-.7c1.4 0 2.5.5 3.3 1.4c.8.9 1.2 2.2 1.2 3.7c-.02.03 0 .9 0 .9c0 0-6.88.03-6.9 0c.1.9.4 1.5.9 2c.4.4 1.1.6 1.9.6c.6 0 1.2-.1 1.8-.3c.5-.2 1.1-.6 1.6-1.2v2.2c-.4.4-.9.6-1.5.8c-.7.2-1.3.3-2 .3c-1 0-1.9-.2-2.7-.6c-.7-.5-1.3-1-1.7-1.8c-.4-.8-.6-1.6-.6-2.6v-.4zm6.9-.7c0-.8-.2-1.4-.6-1.9c-.4-.4-1-.6-1.6-.6c-.7 0-1.2.2-1.6.7c-.5.4-.7 1-.8 1.8h4.6zm10.4-2.2h-2.1V5.3h2.1v-3h2.4v3h2.1v1.8h-2.1v8h-2.4v-8zm9.3 8l-3.9-9.8h2.5l2.6 7l2.6-7h2.3l-5.5 13.8h-2.4l1.8-4zm7.7 4V5.3h2.2l.1 1.2c.3-.4.7-.8 1.2-1c.6-.3 1.1-.5 1.7-.5c.8 0 1.6.3 2.3.7c.6.4 1.2 1 1.6 1.8c.4.8.6 1.7.6 2.7c0 1.1-.2 2-.6 2.8c-.4.8-1 1.4-1.6 1.8c-.7.4-1.5.6-2.3.6c-.5 0-1.1-.1-1.6-.3c-.5-.3-.9-.6-1.3-1c.01-.01 0 5 0 5h-2.3zm2.3-7c.2.5.6.8 1 1.1c.4.3.9.4 1.4.4c.4 0 .8-.1 1.2-.4c.4-.2.7-.6 1-1.1c.2-.5.3-1.1.3-1.9c0-.7-.1-1.3-.3-1.8c-.3-.6-.6-.9-1-1.2c-.3-.3-.8-.4-1.2-.4c-.5 0-1 .2-1.4.4c-.4.3-.8.7-1 1.2v3.7zm8.9-2.1c0-.9.2-1.8.6-2.5c.4-.8.9-1.4 1.6-1.8c.7-.4 1.5-.7 2.4-.7c1.5 0 2.6.5 3.3 1.4c.8.9 1.2 2.2 1.2 3.7c.02.03 0 .9 0 .9c0 0-6.83.03-6.8 0c.1.9.3 1.5.8 2c.5.4 1.1.6 2 .6c.6 0 1.2-.1 1.7-.3c.6-.2 1.1-.6 1.7-1.2v2.2c-.5.4-1 .6-1.6.8c-.6.2-1.2.3-1.9.3c-1.1 0-2-.2-2.7-.6c-.8-.5-1.4-1-1.7-1.8c-.4-.8-.6-1.6-.6-2.6v-.4zm6.8-.7c0-.8-.2-1.4-.6-1.9c-.4-.4-.9-.6-1.6-.6c-.6 0-1.1.2-1.6.7c-.4.4-.7 1-.7 1.8h4.5zm9.4 5.8V5.3h2.2s.12 1.63.1 1.6c.2-.5.6-1 1.1-1.3c.6-.4 1.2-.6 1.9-.6c.3 0 .5.1.7.1v2.1c-.2-.1-.5-.1-.8-.1c-.7 0-1.3.2-1.8.5c-.5.4-.9 1-1 1.6c-.04 0 0 5.9 0 5.9h-2.4zm7-5c0-1 .2-1.8.7-2.6c.4-.8 1-1.4 1.7-1.8c.8-.4 1.6-.7 2.6-.7c.9 0 1.7.3 2.5.7c.7.4 1.3 1 1.8 1.8c.4.8.6 1.6.6 2.6v.3c0 .9-.2 1.8-.6 2.6c-.5.7-1.1 1.3-1.8 1.8c-.8.4-1.6.6-2.5.6c-1 0-1.8-.2-2.6-.6c-.7-.5-1.3-1.1-1.7-1.9c-.5-.7-.7-1.6-.7-2.5v-.3zm2.4.3c0 .9.3 1.7.7 2.3c.5.6 1.1.9 1.9.9c.8 0 1.4-.3 1.8-.9c.5-.6.7-1.4.7-2.3v-.3c0-1-.2-1.7-.7-2.4c-.4-.6-1-.9-1.8-.9c-.8 0-1.4.3-1.9.9c-.4.7-.7 1.4-.7 2.4v.3zm9.1-.3c0-1 .2-1.8.7-2.6c.4-.8 1-1.4 1.7-1.8c.8-.4 1.6-.7 2.6-.7c.9 0 1.7.3 2.5.7c.7.4 1.3 1 1.7 1.8c.5.8.7 1.6.7 2.6v.3c0 .9-.2 1.8-.7 2.6c-.4.7-1 1.3-1.7 1.8c-.8.4-1.6.6-2.5.6c-1 0-1.8-.2-2.6-.6c-.7-.5-1.3-1.1-1.7-1.9c-.5-.7-.7-1.6-.7-2.5v-.3zm2.4.3c0 .9.3 1.7.7 2.3c.4.6 1.1.9 1.9.9c.7 0 1.4-.3 1.8-.9c.4-.6.7-1.4.7-2.3v-.3c0-1-.3-1.7-.7-2.4c-.4-.6-1.1-.9-1.8-.9c-.8 0-1.5.3-1.9.9c-.4.7-.7 1.4-.7 2.4v.3zm8.5-3.3V5.3h1.9s.02-.84 0-.8c0-.6.1-1.2.4-1.7c.3-.6.7-1 1.2-1.3c.5-.3 1.1-.5 1.9-.5c.3 0 .5 0 .8.1c.3.1.5.1.8.3v2c-.2-.1-.4-.3-.6-.4c-.2-.1-.5-.1-.7-.1c-.4 0-.8.1-1.1.4c-.2.3-.4.7-.4 1.2c.04.02 0 .8 0 .8h2.3v1.8h-2.3v8H142v-8h-1.9zm13.6 8V5.3h2.2l.1 1.6c.2-.5.6-1 1.1-1.3c.5-.4 1.2-.6 1.9-.6c.3 0 .5.1.7.1v2.1c-.2-.1-.5-.1-.8-.1c-.7 0-1.3.2-1.8.5c-.5.4-.9 1-1.1 1.6c.04 0 0 5.9 0 5.9h-2.3zm7-2.7c0-.8.2-1.4.7-1.9c.3-.4.8-.7 1.4-1c.6-.2 1.3-.3 2.1-.5l2.1-.3c-.1-1.3-.9-1.9-2.4-1.9c-.5 0-1.1.1-1.6.4c-.6.3-1 .7-1.4 1.2V6.2c1-.8 2.1-1.2 3.5-1.2c1.3 0 2.3.4 3.1 1c.7.7 1.1 1.7 1.1 3.1c.04.01 0 6 0 6h-1.9s-.22-1.1-.2-1.1c-.5.5-1 .8-1.5 1.1c-.5.2-1.1.3-1.8.3c-1 0-1.8-.3-2.3-.8c-.6-.5-.9-1.3-.9-2.2zm2.3-.1c0 .4.1.7.4.9c.2.2.5.4.9.4c.6 0 1.2-.2 1.6-.6c.5-.3.9-.8 1.2-1.3c-.04 0 0-1.4 0-1.4c0 0-1.21.23-1.2.2c-.8.2-1.4.3-1.7.4c-.4.2-.6.3-.8.5c-.3.2-.4.5-.4.9zm8.2-2.3c0-.9.2-1.7.7-2.5c.4-.7 1-1.3 1.8-1.8c.8-.4 1.7-.7 2.8-.7c.5 0 1 .1 1.5.3c.5.1.9.4 1.3.6v2.4c-.3-.5-.7-.8-1.2-1.1c-.5-.2-1-.3-1.5-.3c-.5 0-1 .1-1.5.4c-.4.2-.8.6-1 1.1c-.3.5-.4 1-.4 1.6v.4c0 .6.1 1.1.4 1.6c.3.5.6.9 1.1 1.1c.4.3.9.5 1.4.5c1 0 1.9-.5 2.7-1.4v2.3c-.3.3-.8.5-1.2.7c-.5.1-1.1.2-1.7.2c-1 0-1.9-.2-2.7-.7c-.8-.4-1.4-1-1.8-1.8c-.5-.7-.7-1.6-.7-2.5v-.4zm12.6 5.1h-2.3V1.4h2.3v7.9l3.8-4h2.7l-4.6 4.7l5 5.1h-3.1l-3.8-4.1v4.1z" stroke="none" fill="#fff"/></g></svg>