<?xml version="1.0" standalone="no"?><!DOCTYPE svg PUBLIC "-//W3C//DTD SVG 1.1//EN" "http://www.w3.org/Graphics/SVG/1.1/DTD/svg11.dtd"><svg xmlns="http://www.w3.org/2000/svg" version="1.1" width="239px" height="198.2px" viewBox="0 -35 239 198.2" style="top:-35px"><desc>텍스트 B</desc><defs/><g id="Polygon52820"><path d="m68 100.9H9.8V9.7h57.6v13.2H26v24.5h34.7v13.2H26v27h42v13.3zm42.2 0L76.8 9.7h18.1l25.3 72.5l25.5-72.5h15.9l-33.2 91.2h-18.2zm61.5-24.7c2.8 4.1 6.3 7.3 10.5 9.5c4.2 2.3 8.8 3.5 13.8 3.5c3.6 0 6.8-.8 9.6-2.4c2.8-1.5 4.9-3.6 6.4-6.3c1.6-2.6 2.3-5.5 2.3-8.7c0-4.8-1.5-8.5-4.5-11.3c-3-2.7-6.7-4.1-11.1-4.1c-2.8 0-5.4.5-7.7 1.6c-2.4 1.1-4.1 2.3-5.1 3.6c-.02-.04-10.7 0-10.7 0l4.3-50.7h48.1v13.3h-33.3s-1.82 22.12-1.8 22.1c.9-.7 2.5-1.4 4.6-2c2.1-.6 4.4-.9 6.9-.9c5.1 0 9.8 1.1 14 3.3c4.2 2.2 7.5 5.5 9.9 9.8c2.4 4.2 3.6 9.3 3.6 15.3c0 6.3-1.6 11.7-4.7 16.3c-3.1 4.5-7.3 8-12.6 10.4c-5.3 2.4-11.2 3.6-17.6 3.6c-9.9 0-18.2-2.7-24.9-8V76.2z" stroke="none" fill="#fff"/></g></svg>