<?xml version="1.0" standalone="no"?><!DOCTYPE svg PUBLIC "-//W3C//DTD SVG 1.1//EN" "http://www.w3.org/Graphics/SVG/1.1/DTD/svg11.dtd"><svg xmlns="http://www.w3.org/2000/svg" version="1.1" width="427.2px" height="198.2px" viewBox="0 -35 427.2 198.2" style="top:-35px"><desc>텍스트 B</desc><defs/><g id="Polygon52869"><path d="m5.4 54.2c0-8.8 1.8-16.7 5.5-23.7c3.7-7.1 9-12.6 15.9-16.6c6.8-4 15-6 24.3-6c5.3 0 10.5.9 15.5 2.5c5 1.7 9.2 3.8 12.5 6.4v18.4c-3.4-4.4-7.4-7.9-12.1-10.4c-4.7-2.5-9.8-3.8-15.3-3.8c-5.3 0-10.2 1.4-14.6 4.1c-4.3 2.8-7.8 6.7-10.3 11.7c-2.6 5.1-3.9 10.9-3.9 17.4v2.2c0 6.2 1.1 11.9 3.3 16.9c2.2 5.1 5.3 9 9.3 12c4 2.9 8.6 4.3 13.7 4.3c5 0 9.5-1.1 13.3-3.5c3.8-2.4 6.7-5.6 8.7-9.6c2-4 3-8.5 3.1-13.5H50.6V49.9h39.8s-.04 10.94 0 10.9c0 7.6-1.6 14.6-4.8 21c-3.1 6.3-7.8 11.4-14 15.2c-6.2 3.8-13.7 5.7-22.4 5.7c-8.8 0-16.5-2-23.2-5.9c-6.6-4-11.7-9.5-15.3-16.5c-3.5-7-5.3-14.9-5.3-23.9v-2.2zm117.1-31.3H94.6V9.7h71.8v13.2h-27.7v78h-16.2v-78zm84.4 43.9h-36.3V53h36.3v13.8zm31.7 34.1h-15.5V9h15.5v91.9zM272 25.4h-15.4V9H272v16.4zm0 75.5h-15.4V35.4H272v65.5zm18 0V35.4h14.6s.92 9.48.9 9.5c2.3-3.2 5.3-5.9 8.9-8.1c3.6-2.1 7.6-3.2 12-3.2c7.3 0 12.9 2.1 17 6.4c4 4.2 6 10.2 6 18.1c.04-.02 0 42.8 0 42.8H334s-.04-42.82 0-42.8c0-8.3-3.4-12.5-10.1-12.5c-3.9 0-7.6 1.5-11.1 4.5c-3.5 3-5.9 6.6-7.3 10.9c.02-.04 0 39.9 0 39.9H290zm71.4-34.1c0-6.3 1.3-12 3.9-17.1c2.6-5 6.3-9 11-11.8c4.6-2.9 10-4.3 16.1-4.3c9.5 0 16.9 3 22.1 9.1c5.3 6 7.9 14.3 7.9 24.9v6s-45.72-.04-45.7 0c.5 5.5 2.4 9.7 5.6 12.7c3.2 3 7.5 4.5 13 4.5c4.2 0 8.2-.7 11.9-2.2c3.6-1.6 7.2-4.1 10.8-7.7v14.7c-2.9 2.3-6.4 4-10.4 5.3c-4.1 1.2-8.4 1.8-12.9 1.8c-7.1 0-13.1-1.4-18.1-4.2c-5-2.9-8.8-6.8-11.3-11.9c-2.6-5-3.9-10.8-3.9-17.4v-2.4zm45.6-5c0-5.2-1.3-9.3-4-12.2c-2.7-2.9-6.2-4.4-10.7-4.4c-4.2 0-7.7 1.6-10.6 4.6c-3 3-4.6 7-4.9 12H407z" stroke="none" fill="#fff"/></g></svg>