<?xml version="1.0" standalone="no"?><!DOCTYPE svg PUBLIC "-//W3C//DTD SVG 1.1//EN" "http://www.w3.org/Graphics/SVG/1.1/DTD/svg11.dtd"><svg xmlns="http://www.w3.org/2000/svg" version="1.1" width="1082px" height="31.2px" viewBox="0 -6 1082 31.2" style="top:-6px"><desc>텍스트 B</desc><defs/><g id="Polygon53045"><path d="m.8 8.1c0-1.3.3-2.5.8-3.5C2.2 3.5 3 2.7 4 2.1c1-.6 2.3-.9 3.7-.9c.8 0 1.5.1 2.3.4c.7.2 1.4.5 1.9.9v2.8c-.5-.7-1.1-1.2-1.8-1.6c-.7-.4-1.5-.5-2.3-.5c-.8 0-1.6.2-2.2.6c-.7.4-1.2 1-1.6 1.7c-.4.8-.6 1.7-.6 2.6v.4c0 .9.2 1.7.5 2.5c.4.8.8 1.4 1.4 1.8c.6.4 1.3.6 2.1.6c.7 0 1.4-.1 2-.5c.5-.3 1-.8 1.3-1.4c.3-.6.4-1.3.4-2c.04-.05-3.5 0-3.5 0v-2h6s-.05 1.63 0 1.6c0 1.2-.3 2.2-.8 3.2c-.4.9-1.1 1.7-2.1 2.3c-.9.5-2 .8-3.3.8c-1.3 0-2.5-.3-3.5-.9c-1-.6-1.8-1.4-2.3-2.4C1.1 11 .8 9.8.8 8.5v-.4zm17.6-4.7h-4.2V1.5H25v1.9h-4.2v11.7h-2.4V3.4zM31 10h-5.4v-2h5.4v2zm4.8 5.1h-2.3V1.4h2.3v13.7zm5-11.3h-2.3V1.4h2.3v2.4zm0 11.3h-2.3V5.3h2.3v9.8zm2.7 0V5.3h2.2s.13 1.43.1 1.4c.4-.4.8-.8 1.4-1.2c.5-.3 1.1-.5 1.8-.5c1.1 0 1.9.4 2.5 1c.6.6.9 1.5.9 2.7c.02.01 0 6.4 0 6.4h-2.3V8.7c0-1.2-.5-1.9-1.5-1.9c-.6 0-1.2.3-1.7.7c-.5.5-.9 1-1.1 1.6c.03.04 0 6 0 6h-2.3zM54.2 10c0-.9.2-1.8.6-2.5c.4-.8.9-1.4 1.6-1.8c.7-.4 1.5-.7 2.5-.7c1.4 0 2.5.5 3.3 1.4c.8.9 1.2 2.2 1.2 3.7c-.04.03 0 .9 0 .9c0 0-6.9.03-6.9 0c.1.9.4 1.5.8 2c.5.4 1.2.6 2 .6c.6 0 1.2-.1 1.8-.3c.5-.2 1.1-.6 1.6-1.2v2.2c-.4.4-1 .6-1.6.8c-.6.2-1.2.3-1.9.3c-1.1 0-2-.2-2.7-.6c-.8-.5-1.3-1-1.7-1.8c-.4-.8-.6-1.6-.6-2.6v-.4zm6.9-.7c0-.8-.2-1.4-.6-1.9c-.4-.4-1-.6-1.7-.6c-.6 0-1.1.2-1.6.7c-.4.4-.6 1-.7 1.8h4.6zm11.7-5.5h-2.3V1.4h2.3v2.4zm0 11.3h-2.3V5.3h2.3v9.8zm2.7 0V5.3h2.2l.1 1.4c.4-.4.8-.8 1.3-1.2c.6-.3 1.2-.5 1.8-.5c1.1 0 2 .4 2.6 1c.6.6.9 1.5.9 2.7v6.4h-2.3s-.02-6.39 0-6.4c0-1.2-.5-1.9-1.5-1.9c-.6 0-1.2.3-1.7.7c-.5.5-.9 1-1.1 1.6v6h-2.3zm12.5-8h-2.2V5.3h2.2v-3h2.3v3h2.2v1.8h-2.2v8H88v-8zm5.4 2.9c0-.9.2-1.8.6-2.5c.3-.8.9-1.4 1.6-1.8c.7-.4 1.5-.7 2.4-.7c1.4 0 2.5.5 3.3 1.4c.8.9 1.2 2.2 1.2 3.7c.01.03 0 .9 0 .9c0 0-6.85.03-6.8 0c0 .9.3 1.5.8 2c.5.4 1.1.6 1.9.6c.7 0 1.3-.1 1.8-.3c.6-.2 1.1-.6 1.6-1.2v2.2c-.4.4-.9.6-1.5.8c-.6.2-1.3.3-1.9.3c-1.1 0-2-.2-2.8-.6c-.7-.5-1.3-1-1.7-1.8c-.3-.8-.5-1.6-.5-2.6v-.4zm6.8-.7c0-.8-.2-1.4-.6-1.9c-.4-.4-.9-.6-1.6-.6c-.6 0-1.2.2-1.6.7c-.4.4-.7 1-.7 1.8h4.5zm4.4 5.8V5.3h2.2s.06 1.63.1 1.6c.2-.5.5-1 1.1-1.3c.5-.4 1.1-.6 1.8-.6c.3 0 .6.1.8.1v2.1c-.3-.1-.6-.1-.9-.1c-.6 0-1.2.2-1.8.5c-.5.4-.8 1-1 1.6v5.9h-2.3zm9.9-11.3h-2.3V1.4h2.3v2.4zm0 11.3h-2.3V5.3h2.3v9.8zm2.1-5c0-1 .2-1.8.6-2.6c.5-.8 1.1-1.4 1.8-1.8c.8-.4 1.6-.7 2.5-.7c1 0 1.8.3 2.6.7c.7.4 1.3 1 1.7 1.8c.5.8.7 1.6.7 2.6v.3c0 .9-.2 1.8-.7 2.6c-.4.7-1 1.3-1.7 1.8c-.8.4-1.6.6-2.6.6c-.9 0-1.7-.2-2.5-.6c-.7-.5-1.3-1.1-1.8-1.9c-.4-.7-.6-1.6-.6-2.5v-.3zm2.4.3c0 .9.2 1.7.7 2.3c.4.6 1 .9 1.8.9c.8 0 1.4-.3 1.9-.9c.4-.6.7-1.4.7-2.3v-.3c0-1-.3-1.7-.7-2.4c-.5-.6-1.1-.9-1.9-.9c-.8 0-1.4.3-1.8.9c-.5.7-.7 1.4-.7 2.4v.3zm9.5 4.7V5.3h2.2s.12 1.63.1 1.6c.2-.5.6-1 1.1-1.3c.6-.4 1.2-.6 1.9-.6c.3 0 .5.1.7.1v2.1c-.2-.1-.5-.1-.8-.1c-.7 0-1.3.2-1.8.5c-.5.4-.9 1-1 1.6c-.04 0 0 5.9 0 5.9h-2.4zm7.4-3c.4.5.9.8 1.4 1.1c.5.3 1.1.4 1.7.4c.6 0 1-.1 1.3-.3c.3-.2.4-.5.4-.8c0-.3-.1-.5-.3-.7c-.1-.2-.5-.3-.9-.5l-1-.4c-.9-.3-1.5-.7-2-1.2c-.4-.5-.6-1.1-.6-1.8c0-.5.1-1 .4-1.4c.3-.5.7-.8 1.2-1.1c.5-.2 1.2-.4 1.9-.4c.6 0 1.2.1 1.7.3c.6.2 1 .5 1.4.7v2.3c-.5-.5-1-.9-1.5-1.1c-.5-.2-1-.4-1.5-.4c-.5 0-.9.1-1.1.3c-.2.2-.3.4-.3.6c0 .3.1.5.3.6c.2.2.6.4 1.1.6l.9.3c.9.4 1.5.8 2 1.2c.4.5.6 1.1.6 1.9c0 1-.4 1.7-1.1 2.3c-.8.5-1.7.8-2.9.8c-.6 0-1.2-.1-1.8-.3c-.5-.2-1-.5-1.3-.8v-2.2z" stroke="none" fill="#fff"/></g></svg>