<?xml version="1.0" standalone="no"?><!DOCTYPE svg PUBLIC "-//W3C//DTD SVG 1.1//EN" "http://www.w3.org/Graphics/SVG/1.1/DTD/svg11.dtd"><svg xmlns="http://www.w3.org/2000/svg" version="1.1" width="376.4px" height="63.9px" viewBox="0 -12 376.4 63.9" style="top:-12px"><desc>텍스트 B</desc><defs/><g id="Polygon51952"><path d="m99 32H80.6V3.1h18.2v4.2H85.7v7.7h11v4.2h-11v8.5H99v4.3zm13.3 0L101.8 3.1h5.7l8 22.9l8.1-22.9h5L118.1 32h-5.8zm19.5-7.9c.9 1.3 2 2.3 3.4 3.1c1.3.7 2.7 1 4.3 1c1.1 0 2.2-.2 3-.7c.9-.5 1.6-1.2 2.1-2c.5-.8.7-1.8.7-2.8c0-1.5-.5-2.7-1.4-3.5c-1-.9-2.1-1.3-3.5-1.3c-.9 0-1.7.1-2.5.5c-.7.3-1.3.7-1.6 1.1c.01-.01-3.4 0-3.4 0l1.4-16h15.2v4.2H139l-.6 7c.3-.3.8-.5 1.5-.7c.6-.1 1.4-.2 2.1-.2c1.7 0 3.1.3 4.5 1c1.3.7 2.4 1.7 3.1 3.1c.8 1.3 1.2 2.9 1.2 4.8c0 2-.5 3.7-1.5 5.2c-1 1.4-2.3 2.5-4 3.3c-1.7.8-3.6 1.1-5.6 1.1c-3.1 0-5.7-.8-7.9-2.5v-5.7zm33.6-6.9c0-2.8.6-5.3 1.7-7.5c1.2-2.3 2.9-4 5-5.3c2.2-1.3 4.8-1.9 7.8-1.9c1.6 0 3.3.3 4.9.8c1.6.5 2.9 1.2 3.9 2v5.8c-1.1-1.4-2.3-2.5-3.8-3.3c-1.5-.8-3.1-1.1-4.9-1.1c-1.6 0-3.2.4-4.6 1.3c-1.3.8-2.4 2.1-3.3 3.7c-.8 1.6-1.2 3.4-1.2 5.5v.7c0 1.9.4 3.7 1.1 5.3c.7 1.6 1.7 2.9 2.9 3.8c1.3.9 2.7 1.4 4.4 1.4c1.5 0 2.9-.4 4.2-1.1c1.2-.8 2.1-1.8 2.7-3.1c.6-1.3 1-2.7 1-4.2c-.01-.05-7.5 0-7.5 0v-4.2h12.6v3.5c0 2.4-.5 4.6-1.5 6.6c-1 2-2.5 3.6-4.5 4.8c-1.9 1.2-4.3 1.8-7 1.8c-2.8 0-5.3-.6-7.4-1.9c-2.1-1.2-3.7-2.9-4.8-5.2c-1.2-2.2-1.7-4.7-1.7-7.5v-.7zm37.1-9.9h-8.9V3.1h22.8v4.2h-8.8V32h-5.1V7.3zm26.7 13.9h-11.5v-4.4h11.5v4.4zm10 10.8h-4.9V2.9h4.9V32zm10.6-23.9h-4.9V2.9h4.9v5.2zm0 23.9h-4.9V11.2h4.9V32zm5.7 0V11.2h4.6s.32 3.01.3 3c.8-1 1.7-1.8 2.8-2.5c1.2-.7 2.4-1.1 3.8-1.1c2.3 0 4.1.7 5.4 2.1c1.3 1.3 1.9 3.2 1.9 5.7c.03-.01 0 13.6 0 13.6h-4.9s.02-13.61 0-13.6c0-2.6-1-4-3.2-4c-1.2 0-2.4.5-3.5 1.5c-1.1.9-1.9 2.1-2.3 3.4c.02 0 0 12.7 0 12.7h-4.9zm22.6-10.8c0-2 .4-3.8 1.3-5.4c.8-1.7 1.9-2.9 3.4-3.8c1.5-.9 3.2-1.4 5.1-1.4c3 0 5.4 1 7 2.9c1.7 1.9 2.5 4.6 2.5 7.9c.03-.01 0 1.9 0 1.9c0 0-14.45-.01-14.4 0c.1 1.7.7 3.1 1.7 4c1.1 1 2.4 1.5 4.1 1.5c1.4 0 2.6-.3 3.8-.8c1.2-.4 2.3-1.2 3.4-2.4v4.7c-.9.7-2 1.2-3.3 1.6c-1.2.4-2.6.6-4 .6c-2.3 0-4.2-.4-5.8-1.3c-1.6-.9-2.7-2.2-3.6-3.8c-.8-1.6-1.2-3.4-1.2-5.5v-.7zm14.5-1.6c0-1.7-.5-3-1.3-3.9c-.9-.9-2-1.4-3.4-1.4c-1.3 0-2.4.5-3.4 1.5c-.9.9-1.4 2.2-1.5 3.8h9.6z" stroke="none" fill="#fff"/></g></svg>