<?xml version="1.0" standalone="no"?><!DOCTYPE svg PUBLIC "-//W3C//DTD SVG 1.1//EN" "http://www.w3.org/Graphics/SVG/1.1/DTD/svg11.dtd"><svg xmlns="http://www.w3.org/2000/svg" version="1.1" width="409.3px" height="26.8px" viewBox="0 -3 409.3 26.8" style="top:-3px"><desc>기아 챌린지 Key 아카데미</desc><defs/><g id="Polygon127682"><path d="m11.8.9h1.7v15.4h-1.7V.9zM1.7 2.5s7.31.03 7.3 0c0 1.2-.1 2.3-.4 3.3c-.2 1.1-.6 2.1-1.2 3c-.5.9-1.3 1.8-2.2 2.6c-.9.8-2 1.5-3.3 2.1L1 12.1c2-.9 3.5-2.1 4.5-3.5c1-1.3 1.6-2.9 1.7-4.6c.01-.04-5.5 0-5.5 0V2.5zm29 4.4v1.5h-2.4v7.9h-1.7V.9h1.7v6h2.4zM20.5 2c.6 0 1.1.2 1.6.4c.5.3.9.6 1.2 1.1c.4.5.7 1.1.8 1.7c.2.7.3 1.4.3 2.3c0 .8-.1 1.5-.3 2.2c-.1.7-.4 1.2-.8 1.7c-.3.5-.7.8-1.2 1.1c-.5.2-1 .4-1.6.4c-.6 0-1.1-.2-1.6-.4c-.5-.3-.9-.6-1.2-1.1c-.4-.5-.6-1-.8-1.7c-.2-.7-.3-1.4-.3-2.2c0-.9.1-1.6.3-2.3c.2-.6.4-1.2.8-1.7c.3-.5.7-.8 1.2-1.1c.5-.2 1-.4 1.6-.4zm0 9.3c.7 0 1.2-.3 1.6-1c.5-.7.7-1.6.7-2.8c0-1.2-.2-2.2-.7-2.9c-.4-.6-.9-1-1.6-1c-.7 0-1.2.4-1.6 1c-.5.7-.7 1.7-.7 2.9c0 1.2.2 2.1.7 2.8c.4.7.9 1 1.6 1zm24.9-5.6v3.2h-1.6V1.2h1.6v3.1h1.6V.9h1.7v8.2H47V5.7h-1.6zm-2.1 1.7l-.7 1.3c-.7-.2-1.4-.6-1.9-1c-.5-.5-.9-1-1.1-1.6c-.3.6-.7 1.2-1.2 1.7c-.5.5-1.1.9-1.9 1.2l-.8-1.3c.5-.2.9-.4 1.3-.7c.4-.3.7-.6.9-.9c.3-.4.5-.7.6-1.1c.1-.3.2-.7.2-1.1h-2.6V2.5h2.6V1h1.7v1.5h2.5v1.4s-2.53.01-2.5 0c0 .4 0 .7.2 1.1c.1.3.3.6.6 1c.2.3.5.5.9.8c.4.2.8.5 1.2.6zm-3.1 7.4h9v1.3H38.5v-3.9h8.5V11h-8.6V9.7h10.3v3.7h-8.5v1.4zM63.9.9v11.3h-1.8V.9h1.8zm-3.3 7.3l.2 1.5c-.6.1-1.2.1-1.8.2c-.5.1-1.1.1-1.7.2h-1.8c-.7.1-1.4.1-2.2.1c.03-.03-1.3 0-1.3 0V5.3h5.3V3.4H52V2h7v4.6h-5.2s-.03 2.14 0 2.1h1.9c.6 0 1.2 0 1.7-.1c.6 0 1.1 0 1.6-.1c.5-.1 1-.2 1.6-.3zm-5.1 6.4h8.8v1.4H53.8v-4.7h1.7v3.3zM77.7.9h1.7v15.4h-1.7V.9zm-5.2 3s-.03 1.46 0 1.5c0 .6.1 1.2.3 1.9c.1.6.4 1.2.8 1.7c.3.6.7 1.1 1.2 1.5c.5.5 1 .8 1.6 1.1l-.9 1.4c-.9-.4-1.7-1-2.4-1.8c-.6-.8-1.1-1.7-1.5-2.7c-.3 1.1-.8 2-1.5 2.9c-.7.9-1.4 1.5-2.4 1.9l-1-1.3c.6-.3 1.2-.7 1.7-1.2c.4-.4.9-1 1.2-1.6c.4-.6.6-1.2.8-1.9c.2-.6.3-1.3.3-1.9V3.9h-3.4V2.4h8.6v1.5h-3.4zM86.9 15V2.4h1.9v6h.1l4.7-6h2.2L92 7.3l4.5 7.7h-2.2l-3.6-6.2l-1.9 2.4v3.8h-1.9zm14.9.2c-.7 0-1.3-.1-1.8-.4c-.6-.2-1.1-.5-1.5-.9c-.4-.4-.7-.9-.9-1.5c-.3-.6-.4-1.3-.4-2.1c0-.8.1-1.5.4-2.1c.2-.6.5-1.1.9-1.5c.4-.4.9-.8 1.4-1c.5-.2 1-.3 1.6-.3c.6 0 1.1.1 1.6.3c.5.2.9.5 1.2.9c.3.4.6.8.7 1.4c.2.5.3 1.1.3 1.8v.6c-.1.1-.1.3-.1.4h-6.1c.1.9.4 1.6.9 2.1c.5.5 1.2.8 2 .8c.4 0 .8-.1 1.2-.2c.4-.1.7-.3 1-.5l.7 1.2c-.4.3-.9.5-1.4.7c-.6.2-1.1.3-1.7.3zm-2.7-5.7h4.5c0-.9-.2-1.5-.5-1.9c-.4-.5-.9-.7-1.6-.7c-.3 0-.6.1-.8.2c-.3.1-.5.2-.8.5c-.2.2-.4.4-.5.8c-.1.3-.2.6-.3 1.1zM115 5.6l-4.6 13.3h-1.9l1.4-4l-3.8-9.3h2.1s1.69 4.82 1.7 4.8c.1.4.3.9.4 1.3c.1.5.3.9.4 1.4c.04-.04.1 0 .1 0l.8-2.7l1.4-4.8h2zm.9 3.8V8h5.8v1.4h-5.8zm21.7-2.5v1.5h-2.4v7.9h-1.7V.9h1.7v6h2.4zM127.4 2c.6 0 1.1.2 1.6.4c.5.3.9.6 1.3 1.1c.3.5.6 1.1.8 1.7c.2.7.3 1.4.3 2.3c0 .8-.1 1.5-.3 2.2c-.2.7-.5 1.2-.8 1.7c-.4.5-.8.8-1.3 1.1c-.5.2-1 .4-1.6.4c-.5 0-1.1-.2-1.6-.4c-.4-.3-.9-.6-1.2-1.1c-.3-.5-.6-1-.8-1.7c-.2-.7-.3-1.4-.3-2.2c0-.9.1-1.6.3-2.3c.2-.6.5-1.2.8-1.7c.3-.5.8-.8 1.2-1.1c.5-.2 1.1-.4 1.6-.4zm0 9.3c.7 0 1.3-.3 1.7-1c.4-.7.6-1.6.6-2.8c0-1.2-.2-2.2-.6-2.9c-.4-.6-1-1-1.7-1c-.6 0-1.2.4-1.6 1c-.4.7-.6 1.7-.6 2.9c0 1.2.2 2.1.6 2.8c.4.7 1 1 1.6 1zM153.1 7v1.4h-2.3v7.9H149V.9h1.8v6.1h2.3zm-13.3-4.6s7.03.05 7 0c0 1.2-.1 2.3-.3 3.4c-.2 1-.5 2.1-1 3c-.6 1-1.3 1.9-2.2 2.7c-.9.9-2 1.7-3.4 2.4l-.9-1.4c1.3-.7 2.4-1.4 3.2-2.2c.9-.8 1.5-1.7 2-2.6c-.04-.03-4.9.4-4.9.4l-.2-1.5s5.59-.33 5.6-.3c.2-.8.3-1.6.4-2.4c-.01-.02-5.3 0-5.3 0V2.4zM165.9.9h1.7v15.4h-1.7V.9zm-3.1 5.8V1.2h1.6v14.3h-1.6V8.1h-3.1V6.7h3.1zm-6.1-2.6s.01 7.15 0 7.2c.9 0 1.8-.1 2.5-.1c.7-.1 1.5-.2 2.2-.4l.2 1.5c-.4.1-.9.1-1.3.2c-.4 0-.8.1-1.3.1c-.4 0-.9.1-1.4.1H155v-10h5.8v1.4h-4.1zM180.9.9h1.7v15.4h-1.7V.9zm-10.1 1.5h7.2v10.1h-7.2V2.4zm5.5 1.4h-3.8v7.3h3.8V3.8z" stroke="none" fill="#111111"/></g></svg>