<?xml version="1.0" standalone="no"?><!DOCTYPE svg PUBLIC "-//W3C//DTD SVG 1.1//EN" "http://www.w3.org/Graphics/SVG/1.1/DTD/svg11.dtd"><svg xmlns="http://www.w3.org/2000/svg" version="1.1" width="162px" height="19.6px" viewBox="0 -2 162 19.6" style="top:-2px"><desc>기아 챌린지 콘서트</desc><defs/><g id="Polygon113983"><path d="m8.1.5h1.6v11.1H8.1V.5zm-7 1.2s5.33-.02 5.3 0c0 .8 0 1.6-.2 2.4c-.2.8-.4 1.5-.8 2.2c-.4.6-.9 1.3-1.6 1.8c-.6.6-1.4 1.1-2.4 1.6L.5 8.5c.7-.4 1.4-.7 1.9-1.1c.5-.4.9-.8 1.2-1.3c.4-.4.7-.9.8-1.5c.2-.5.4-1.1.4-1.7c.01.04-3.7 0-3.7 0V1.7zm20.7 3v1.3h-1.7v5.6h-1.5V.5h1.5v4.2h1.7zm-7.3-3.4c.4 0 .8.1 1.1.3c.4.2.7.4.9.8c.3.3.5.7.6 1.2c.2.5.3 1 .3 1.6c0 .7-.1 1.2-.3 1.7c-.1.5-.3.9-.6 1.2c-.2.4-.5.6-.9.8c-.3.2-.7.3-1.1.3c-.5 0-.8-.1-1.2-.3c-.4-.2-.7-.4-.9-.8c-.3-.3-.5-.7-.6-1.2c-.2-.5-.2-1-.2-1.7c0-.6 0-1.1.2-1.6c.1-.5.3-.9.6-1.2c.2-.4.5-.6.9-.8c.4-.2.7-.3 1.2-.3zm0 6.5c.4 0 .7-.2 1-.7c.2-.4.3-1 .3-1.9c0-.8-.1-1.4-.3-1.8c-.3-.5-.6-.7-1-.7c-.5 0-.8.2-1 .7c-.3.4-.4 1-.4 1.8c0 .9.1 1.5.4 1.9c.2.5.5.7 1 .7zm17.7-3.7v2.2h-1.4V.7h1.4v2.1h.9V.5h1.5v5.8h-1.5V4.1h-.9zm-1.6.9L30 6.2c-.6-.2-1-.4-1.3-.7c-.3-.3-.6-.6-.8-1c-.2.4-.5.8-.8 1.1c-.4.3-.8.6-1.3.7l-.7-1.1c.7-.3 1.2-.6 1.5-1c.3-.5.5-.9.5-1.4c.02.01-1.7 0-1.7 0V1.6h1.7v-1h1.5v1h1.7v1.2s-1.68.01-1.7 0c.1.4.2.9.6 1.3c.3.4.8.7 1.4.9zm-2 5.3h6.3v1.2h-7.8v-3h5.9v-.6h-6V6.7h7.6v2.9h-6v.7zM45.3.5v8.2h-1.6V.5h1.6zm-2.5 5.2l.2 1.2c-.4.1-.8.2-1.2.2c-.4.1-.8.1-1.2.1c-.4 0-.9.1-1.3.1h-2.6V3.6h3.5V2.5h-3.5V1.3h5.1v3.5h-3.6s.04 1.22 0 1.2h1.4c.4 0 .8 0 1.1-.1c.4 0 .8 0 1.1-.1c.3 0 .7-.1 1-.1zm-3.3 4.4h6.1v1.3h-7.7V8h1.6v2.1zM54.7.5h1.6v11.1h-1.6V.5zm-3.3 2.4s-.03.62 0 .6c0 .5 0 .9.1 1.4c.2.4.3.8.5 1.2c.3.4.6.8.9 1.1c.3.3.7.6 1.2.8l-.9 1.2c-.6-.2-1.1-.6-1.6-1.1c-.4-.5-.8-1.1-1-1.8c-.3.7-.6 1.4-1 1.9c-.5.6-1 1-1.7 1.3L47 8.3c.5-.3.9-.5 1.2-.9c.4-.3.7-.7.9-1.1c.2-.4.4-.9.5-1.4c.1-.4.2-.9.2-1.4c-.04.02 0-.6 0-.6h-2.3V1.6h6.2v1.3h-2.3zm10.2.3s6.42-.18 6.4-.2v-.4c.03.02 0-.4 0-.4h-6.1V1h7.7v2.7c-.1.6-.2 1.2-.3 1.9l-1.6-.1c.1-.2.1-.4.2-.7v-.6l-6.1.3l-.2-1.3zm4.4 3h4.7v1.3h-9.9V6.2h3.7V4.9h1.5v1.3zm-2.5 1.9v2.1h6.3v1.2h-7.9V8.1h1.6zM79.4.5h1.6v11.1h-1.6V5.3h-2.1V4h2.1V.5zm-3.5.9s-.02 1.59 0 1.6c0 .5 0 1 .1 1.5c.1.5.3 1 .5 1.4c.2.5.5.9.8 1.2c.4.3.7.6 1.2.8l-.9 1.3C77 8.9 76.5 8.5 76 8c-.4-.5-.7-1.1-.9-1.8c-.2.7-.6 1.3-1 1.9c-.4.5-.9 1-1.5 1.3l-1-1.3c.4-.2.8-.5 1.2-.9c.3-.3.6-.7.8-1.2c.3-.4.4-.9.5-1.4c.1-.6.2-1.1.2-1.6c-.02-.01 0-1.6 0-1.6h1.6zm15.7 4.8v1.3h-7.7V1.3h7.7v1.3h-6.1v1.2h5.8v1.2h-5.8v1.2h6.1zM82.7 9h10v1.3h-10V9z" stroke="none" fill="#fff"/></g></svg>