<?xml version="1.0" standalone="no"?><!DOCTYPE svg PUBLIC "-//W3C//DTD SVG 1.1//EN" "http://www.w3.org/Graphics/SVG/1.1/DTD/svg11.dtd"><svg xmlns="http://www.w3.org/2000/svg" version="1.1" width="409.3px" height="26.8px" viewBox="0 -3 409.3 26.8" style="top:-3px"><desc>Bike KIA</desc><defs/><g id="Polygon117447"><path d="m1.6 15V2.4s3.93.05 3.9 0c.7 0 1.3.1 1.8.2c.5.1 1 .3 1.4.5c.4.3.7.6.9 1c.2.4.3.9.3 1.4c0 .6-.1 1.2-.4 1.7c-.3.5-.8.8-1.3 1v.1c.7.2 1.3.5 1.7 1c.5.5.7 1.1.7 2c0 .6-.1 1.2-.3 1.6c-.3.5-.6.9-1 1.2c-.5.3-1 .5-1.5.6c-.6.2-1.3.3-2 .3c.03-.04-4.2 0-4.2 0zm2-7.3s1.7-.03 1.7 0c1 0 1.7-.2 2.1-.5c.4-.4.6-.8.6-1.4c0-.7-.2-1.1-.7-1.4c-.4-.3-1.1-.4-1.9-.4c-.04-.02-1.8 0-1.8 0v3.7zm0 5.7h2c1 0 1.8-.2 2.3-.5c.5-.4.8-.9.8-1.7c0-.7-.3-1.2-.8-1.6c-.5-.3-1.3-.4-2.3-.4c.01-.04-2 0-2 0v4.2zm8.9-11.8h2v2.2h-2V1.6zM14.4 15h-1.9V5.6h1.9v9.4zm2.6 0V1.4h1.9v8.7h.1l3.6-4.5h2.2l-3.2 3.8l3.6 5.6H23l-2.5-4.3l-1.6 1.8v2.5H17zm13.6.2c-.6 0-1.2-.1-1.8-.4c-.5-.2-1-.5-1.4-.9c-.4-.4-.8-.9-1-1.5c-.2-.6-.4-1.3-.4-2.1c0-.8.2-1.5.4-2.1c.2-.6.6-1.1 1-1.5c.3-.4.8-.8 1.3-1c.5-.2 1.1-.3 1.6-.3c.6 0 1.2.1 1.7.3c.4.2.8.5 1.1.9c.4.4.6.8.8 1.4c.1.5.2 1.1.2 1.8v.6c0 .1 0 .3-.1.4h-6c0 .9.3 1.6.9 2.1c.5.5 1.1.8 2 .8c.4 0 .8-.1 1.1-.2c.4-.1.7-.3 1.1-.5l.7 1.2c-.5.3-1 .5-1.5.7c-.5.2-1.1.3-1.7.3zm-2.7-5.7h4.5c0-.9-.1-1.5-.5-1.9c-.4-.5-.9-.7-1.6-.7c-.2 0-.5.1-.8.2c-.3.1-.5.2-.7.5c-.2.2-.4.4-.6.8c-.1.3-.2.6-.3 1.1zM40.1 15V2.4h2v6l4.8-6h2.2l-3.9 4.9l4.5 7.7h-2.2L44 8.8l-1.9 2.4v3.8h-2zm11.2 0V2.4h2V15h-2zm12 0l-1-3.6h-4.4L56.8 15h-2L59 2.4h2.3L65.4 15h-2.1zm-4.9-5.2h3.4l-.5-1.6l-.6-2.1l-.6-2.1h-.1c-.2.7-.3 1.4-.5 2.1l-.6 2.1c-.03-.04-.5 1.6-.5 1.6z" stroke="none" fill="#111111"/></g></svg>