<?xml version="1.0" standalone="no"?><!DOCTYPE svg PUBLIC "-//W3C//DTD SVG 1.1//EN" "http://www.w3.org/Graphics/SVG/1.1/DTD/svg11.dtd"><svg xmlns="http://www.w3.org/2000/svg" version="1.1" width="30px" height="76.1px" viewBox="0 -7 30 76.1" style="top:-7px"><desc>9</desc><defs/><g id="Polygon122838"><path d="m13.3 44h-7l11.3-14.5l1.8-2.4c-1 .7-2 1.2-3.1 1.5c-1.1.3-2.2.5-3.4.5c-1.5 0-2.9-.3-4.1-.8c-1.3-.5-2.4-1.3-3.3-2.2c-.9-1-1.6-2.1-2.1-3.4c-.5-1.3-.7-2.7-.7-4.2c0-1.8.3-3.4.9-4.8c.7-1.5 1.6-2.7 2.7-3.7c1.1-1.1 2.4-1.9 3.9-2.5c1.5-.6 3.2-.8 4.9-.8c1.8 0 3.4.2 4.9.8c1.5.6 2.7 1.4 3.8 2.4c1.1 1 1.9 2.3 2.5 3.8c.6 1.5.8 3.1.8 5c0 2.3-.3 4.3-1.1 6.1c-.8 1.8-1.8 3.6-3.1 5.5c0-.05-9.6 13.7-9.6 13.7zM8.2 18.1c0 2.1.5 3.7 1.7 4.9c1.2 1.2 2.8 1.9 5 1.9c2 0 3.7-.7 5-1.9c1.3-1.3 2-2.9 2-4.9c0-2-.7-3.7-1.9-5c-1.2-1.3-2.9-1.9-5-1.9c-2 0-3.6.6-4.9 1.9c-1.3 1.2-1.9 2.9-1.9 5z" stroke="none" fill="#949596"/></g></svg>