<?xml version="1.0" standalone="no"?><!DOCTYPE svg PUBLIC "-//W3C//DTD SVG 1.1//EN" "http://www.w3.org/Graphics/SVG/1.1/DTD/svg11.dtd"><svg xmlns="http://www.w3.org/2000/svg" version="1.1" width="409.3px" height="26.8px" viewBox="0 -3 409.3 26.8" style="top:-3px"><desc>초록여행</desc><defs/><g id="Polygon115894"><path d="m2.1 10.3l-.6-1.4c.8-.2 1.5-.3 2.2-.6c.6-.3 1.2-.6 1.7-1c.4-.3.8-.7 1.1-1.2c.3-.5.4-1 .4-1.5H2.1V3.2h4.8v-2h1.8v2h4.8v1.4H8.7c0 .5.2 1 .4 1.5c.3.5.7.9 1.2 1.2c.4.4 1 .7 1.7 1c.6.3 1.3.4 2.1.6l-.6 1.4c-1.3-.2-2.5-.6-3.4-1.2c-1-.6-1.8-1.3-2.3-2.2c-.5.9-1.2 1.6-2.2 2.2c-1 .6-2.2 1-3.5 1.2zM8.7 13h6.1v1.4H.9V13h6V9.7h1.8v3.3zm15.5-3.7h6.1v1.4H16.4V9.3h6.1V7.9h-4.3v-4h8.6V2.6h-8.6V1.3h10.4v3.9h-8.7v1.3h9v1.4h-4.7v1.4zM18 13.1v-1.4h10.7v4.5h-1.8v-3.1H18zM43 .9h1.7v15.4H43v-5.8s-3.58-.03-3.6 0c-.3.7-.8 1.3-1.3 1.7c-.6.5-1.2.7-2 .7c-.6 0-1.1-.2-1.6-.4c-.4-.3-.8-.6-1.2-1.1c-.3-.5-.6-1-.8-1.7c-.2-.7-.3-1.4-.3-2.3c0-.8.1-1.5.3-2.2c.2-.7.5-1.2.8-1.7c.4-.5.8-.8 1.2-1.1c.5-.2 1-.4 1.6-.4c.7 0 1.4.2 1.9.6c.5.4 1 .9 1.3 1.6c.04.02 3.7 0 3.7 0V.9zm-6.9 10.4c.7 0 1.2-.3 1.6-1c.4-.7.6-1.6.6-2.9c0-1.2-.2-2.1-.6-2.8c-.4-.6-.9-1-1.6-1c-.6 0-1.2.4-1.6 1c-.4.7-.6 1.6-.6 2.8c0 1.3.2 2.2.6 2.9c.4.7 1 1 1.6 1zM39.9 9c-.04.03 3.1 0 3.1 0V5.7s-3.19-.04-3.2 0c.1.2.1.5.1.8c.1.3.1.6.1.9v.9c-.1.2-.1.5-.1.7zm17.4-2.6v3.7h-1.7V1.2h1.7v3.7h1.6v-4h1.6v9.7h-1.6V6.4h-1.6zm-2.2-3.8v1.4h-7.7V2.6h3V1.1h1.7v1.5h3zm-.5 4.7c0 .4-.1.8-.3 1.1c-.1.3-.4.6-.6.9c-.3.2-.7.4-1.1.5c-.4.1-.8.2-1.3.2c-.5 0-.9-.1-1.3-.2c-.4-.1-.8-.3-1.1-.5c-.3-.3-.5-.6-.6-.9c-.2-.3-.3-.7-.3-1.1c0-.4.1-.7.3-1.1c.1-.3.3-.6.6-.8c.3-.2.7-.4 1.1-.5c.4-.2.8-.2 1.3-.2c.5 0 .9 0 1.3.2c.4.1.8.3 1.1.5c.2.2.5.5.6.8c.2.4.3.7.3 1.1zm-5 0c0 .4.1.8.4 1c.4.3.8.4 1.3.4c.5 0 .9-.1 1.2-.4c.4-.2.5-.6.5-1c0-.4-.1-.7-.5-1c-.3-.2-.7-.3-1.2-.3c-.5 0-.9.1-1.3.3c-.3.3-.4.6-.4 1zm5.8 3.5c1.7 0 3 .2 3.9.7c.9.5 1.3 1.1 1.3 2c0 .9-.4 1.6-1.3 2.1c-.9.4-2.2.7-3.9.7c-1.7 0-2.9-.3-3.8-.7c-.9-.5-1.4-1.2-1.4-2.1c0-.9.5-1.5 1.4-2c.9-.5 2.1-.7 3.8-.7zm0 4.1c2.3 0 3.5-.4 3.5-1.4c0-.9-1.2-1.4-3.5-1.4c-1.1 0-1.9.2-2.5.4c-.6.2-.9.6-.9 1c0 .5.3.9.9 1.1c.6.2 1.4.3 2.5.3z" stroke="none" fill="#111111"/></g></svg>