<?xml version="1.0" standalone="no"?><!DOCTYPE svg PUBLIC "-//W3C//DTD SVG 1.1//EN" "http://www.w3.org/Graphics/SVG/1.1/DTD/svg11.dtd"><svg xmlns="http://www.w3.org/2000/svg" version="1.1" width="162px" height="19.6px" viewBox="0 -2 162 19.6" style="top:-2px"><desc>기아 가원</desc><defs/><g id="Polygon114572"><path d="m8.1.5h1.6v11.1H8.1V.5zm-7 1.2s5.33-.02 5.3 0c0 .8 0 1.6-.2 2.4c-.2.8-.4 1.5-.8 2.2c-.4.6-.9 1.3-1.6 1.8c-.6.6-1.4 1.1-2.4 1.6L.5 8.5c.7-.4 1.4-.7 1.9-1.1c.5-.4.9-.8 1.2-1.3c.4-.4.7-.9.8-1.5c.2-.5.4-1.1.4-1.7c.01.04-3.7 0-3.7 0V1.7zm20.7 3v1.3h-1.7v5.6h-1.5V.5h1.5v4.2h1.7zm-7.3-3.4c.4 0 .8.1 1.1.3c.4.2.7.4.9.8c.3.3.5.7.6 1.2c.2.5.3 1 .3 1.6c0 .7-.1 1.2-.3 1.7c-.1.5-.3.9-.6 1.2c-.2.4-.5.6-.9.8c-.3.2-.7.3-1.1.3c-.5 0-.8-.1-1.2-.3c-.4-.2-.7-.4-.9-.8c-.3-.3-.5-.7-.6-1.2c-.2-.5-.2-1-.2-1.7c0-.6 0-1.1.2-1.6c.1-.5.3-.9.6-1.2c.2-.4.5-.6.9-.8c.4-.2.7-.3 1.2-.3zm0 6.5c.4 0 .7-.2 1-.7c.2-.4.3-1 .3-1.9c0-.8-.1-1.4-.3-1.8c-.3-.5-.6-.7-1-.7c-.5 0-.8.2-1 .7c-.3.4-.4 1-.4 1.8c0 .9.1 1.5.4 1.9c.2.5.5.7 1 .7zm20.8-3v1.3h-1.5v5.5h-1.6V.5h1.6v4.3h1.5zm-9.7-3.1s5.25-.03 5.3 0c0 .8-.1 1.6-.3 2.4c-.2.7-.4 1.4-.8 2.1c-.4.7-.9 1.3-1.6 1.9c-.6.6-1.4 1.1-2.3 1.6L25 8.5c1.3-.7 2.3-1.5 3-2.4c.7-.9 1.1-1.9 1.3-3.1c-.04-.05-3.7 0-3.7 0V1.7zM41.8 7h2V.5h1.6v8.4h-1.6v-.9h-2v-1zm-2.2-2.1c-.4 0-.7-.1-1.1-.2c-.3-.1-.6-.2-.9-.4c-.2-.2-.4-.4-.5-.6c-.2-.2-.2-.5-.2-.8c0-.3 0-.6.2-.8c.1-.3.3-.5.5-.6c.3-.2.6-.3.9-.4c.4-.1.7-.2 1.1-.2c.4 0 .8.1 1.1.2c.4.1.7.2.9.4c.3.1.4.3.6.6c.1.2.2.5.2.8c0 .3-.1.6-.2.8c-.2.2-.3.4-.6.6c-.2.2-.5.3-.9.4c-.3.1-.7.2-1.1.2zm0-2.8c-.3 0-.7 0-.9.2c-.2.1-.3.3-.3.6c0 .3.1.5.3.6c.2.1.6.2.9.2c.4 0 .7-.1.9-.2c.3-.1.4-.3.4-.6c0-.3-.1-.5-.4-.6c-.2-.2-.5-.2-.9-.2zm-.6 8h6.7v1.3h-8.2V8.1h1.5V6.6c-.5.1-1 .1-1.4.1h-1.3l-.2-1.3h3.4c.6 0 1.2-.1 1.8-.1c.6-.1 1.2-.1 1.8-.2l.1 1.1c-.4.1-.9.2-1.3.2c-.4.1-.9.1-1.3.1c-.03.04 0 2.1 0 2.1H39v1.5z" stroke="none" fill="#fff"/></g></svg>