<?xml version="1.0" standalone="no"?><!DOCTYPE svg PUBLIC "-//W3C//DTD SVG 1.1//EN" "http://www.w3.org/Graphics/SVG/1.1/DTD/svg11.dtd"><svg xmlns="http://www.w3.org/2000/svg" version="1.1" width="390px" height="91.3px" viewBox="0 -2 390 91.3" style="top:-2px"><desc>오토랜드 광주는 매년 유명 인사를 초청해 ‘찾아가는 드림 토크 콘서트’를 개최, 관내 지역 중고생에게 꿈과 비전을 제시하고 있다. 2021년에는 COVID 19로 더욱 위축된 학생들을 응원하고자 온라인 콘서트를...</desc><defs/><g id="Polygon124014"><path d="m7.2 81.4v-4h-2v-.7h2v-2.1h.9v6.8h-.9zm-1.3-2.2l-.5.7c-.5-.2-.9-.5-1.3-.9c-.4-.4-.6-.8-.8-1.3c-.2.5-.5 1-.9 1.4c-.4.4-.9.8-1.4 1l-.4-.7c.3-.1.6-.3.9-.5c.3-.2.5-.5.7-.7c.2-.3.4-.6.5-1c.1-.3.1-.6.1-1c.04.02 0-1.1 0-1.1h.9s-.03 1.15 0 1.2c0 .3 0 .6.1.9c.1.3.3.6.5.8c.2.3.4.5.7.7c.3.2.6.4.9.5zM3 82.8h5.3v.7H2.2v-2.9h.8v2.2zm15.3-4.5v.6h-1.5v4.8h-.9v-9.1h.9v3.7h1.5zm-5.5-3s-.01 1.68 0 1.7c0 .4.1.8.2 1.2c.1.4.3.7.5 1.1c.2.3.4.7.7.9c.3.3.6.5.9.7l-.5.7c-.5-.3-.9-.7-1.3-1.2c-.4-.5-.7-1-.9-1.7c-.2.7-.5 1.3-.9 1.8c-.4.5-.9 1-1.4 1.2l-.5-.6c.3-.2.6-.4.9-.7c.3-.3.6-.6.8-1c.2-.4.4-.8.5-1.2c.1-.4.2-.8.2-1.2c-.04-.02 0-1.7 0-1.7h.8zm11.9 2.4v2.4h-.8v-5.4h.8v2.4h1.1v-2.5h.8v5.6h-.8v-2.5h-1.1zm-1.2-2.1v.7h-4.7v-.7h2v-1h.8v1h1.9zm-2.3 4.2c-.3 0-.6 0-.8-.1c-.2 0-.5-.1-.6-.3c-.2-.1-.3-.3-.4-.5c-.1-.2-.2-.4-.2-.6c0-.3.1-.5.2-.7c.1-.2.2-.3.4-.5c.1-.1.4-.2.6-.3c.2 0 .5-.1.8-.1c.3 0 .5.1.8.1l.6.3c.2.2.3.3.4.5c.1.2.1.4.1.7c0 .2 0 .4-.1.6c-.1.2-.2.4-.4.5c-.2.2-.4.3-.6.3c-.3.1-.5.1-.8.1zm0-2.5c-.4 0-.7.1-.9.3c-.2.2-.3.4-.3.7c0 .3.1.5.3.7c.2.1.5.2.9.2c.4 0 .6-.1.9-.2c.2-.2.3-.4.3-.7c0-.3-.1-.5-.3-.7c-.3-.2-.5-.3-.9-.3zm4.3 3.2v.3c0 .2 0 .4.1.7c.1.2.2.4.4.6c.1.2.3.3.6.5c.2.1.5.3.7.4l-.4.6c-.4-.2-.8-.4-1.1-.7c-.3-.3-.6-.6-.7-1c-.2.4-.4.7-.6 1c-.3.3-.7.6-1.1.8c-.4-.2-.8-.4-1.1-.7c-.2-.3-.4-.7-.6-1.1c-.2.4-.4.7-.7 1c-.3.3-.7.5-1.1.7l-.4-.6c.3-.1.5-.3.8-.4c.2-.2.4-.4.5-.6c.2-.2.3-.4.4-.6c.1-.2.1-.4.1-.6c.02-.01 0-.3 0-.3h.8s.02.29 0 .3c0 .4.1.8.3 1.1c.2.4.6.7 1 1c.2-.2.4-.3.6-.5c.1-.2.2-.3.4-.5c.1-.2.1-.4.2-.6c0-.2.1-.3.1-.5c-.03-.01 0-.3 0-.3h.8zm6.7-5.4c.5 0 .9.1 1.3.2c.4.1.8.3 1.1.5c.3.2.5.5.7.8c.2.3.2.7.2 1c0 .4 0 .8-.2 1.1c-.2.3-.4.6-.7.8c-.3.2-.7.4-1.1.5c-.4.1-.8.2-1.3.2c-.5 0-.9-.1-1.3-.2c-.4-.1-.8-.3-1.1-.5c-.3-.2-.5-.5-.7-.8c-.1-.3-.2-.7-.2-1.1c0-.3.1-.7.2-1c.2-.3.4-.6.7-.8c.3-.2.7-.4 1.1-.5c.4-.1.8-.2 1.3-.2zm0 .7c-.3 0-.7 0-1 .1c-.3.1-.6.2-.8.4c-.2.2-.4.4-.5.6c-.2.2-.2.5-.2.7c0 .3 0 .6.2.8c.1.2.3.4.5.6c.2.1.5.3.8.4c.3 0 .7.1 1 .1c.4 0 .7-.1 1-.1c.3-.1.6-.3.8-.4c.2-.2.4-.4.5-.6c.2-.2.2-.5.2-.8c0-.2 0-.5-.2-.7c-.1-.2-.3-.4-.5-.6c-.2-.2-.5-.3-.8-.4c-.3-.1-.6-.1-1-.1zm-4.1 6h8.3v.7h-8.3v-.7zM44 74.5h.8v9.2h-.8v-3.8h-2.2v1.5h-4.2v-6h4.2v1.3h2.2v-2.2zm-3 6.2v-4.6h-2.6v4.6h2.6zm.8-1.4h2.2v-1.9h-2.2v1.9zm11.3 2.5h3.7v.7h-8.3v-.7h3.7s.03-1.88 0-1.9c-.4 0-.8-.1-1.1-.2c-.4-.1-.7-.3-1-.5c-.2-.2-.4-.5-.6-.7c-.1-.3-.2-.6-.2-1c0-.3.1-.7.3-1c.1-.2.4-.5.7-.7c.3-.2.6-.4 1-.5c.4-.1.9-.2 1.4-.2c.4 0 .9.1 1.3.2c.4.1.7.3 1 .5c.3.2.6.5.7.7c.2.3.3.7.3 1c0 .4-.1.7-.2 1c-.2.2-.4.5-.6.7c-.3.2-.6.4-.9.5c-.4.1-.8.2-1.2.2c-.02.02 0 1.9 0 1.9zm-3-4.3c0 .3.1.5.2.8c.1.2.3.3.5.5c.3.2.5.3.8.4c.4 0 .7.1 1.1.1c.3 0 .7-.1 1-.1c.3-.1.5-.2.8-.4c.2-.2.4-.3.5-.5c.1-.3.2-.5.2-.8c0-.2-.1-.5-.2-.7c-.1-.2-.3-.4-.5-.5c-.3-.2-.5-.3-.8-.4c-.3-.1-.7-.1-1-.1c-.4 0-.7 0-1.1.1c-.3.1-.5.2-.8.4c-.2.1-.4.3-.5.5c-.1.2-.2.5-.2.7zm14.3-3h.8v9.2h-.8v-9.2zm-5.3 1.6s.02 4.62 0 4.6h2.3c.3-.1.7-.1 1-.1c.3-.1.6-.1 1-.2l.1.7c-.4.1-.7.1-1.1.2c-.3 0-.6 0-1 .1H59c.03.04-.7 0-.7 0v-6h4.3v.7h-3.5zm14.5 5.3v-2.9h-1.9v-.7h1.9v-1.2h-1.9v-.7h1.9v-1.4h.8v6.9h-.8zm-1.4-2.1l-.4.7c-.5-.2-1-.5-1.3-.9c-.4-.4-.7-.8-.9-1.4c-.2.6-.5 1.1-.9 1.5c-.4.4-.8.7-1.4 1l-.4-.7c.3-.1.6-.3.9-.5c.3-.3.5-.5.7-.8c.2-.3.4-.6.5-.9c.1-.4.2-.7.2-1.1c-.02.02 0-1.1 0-1.1h.8s.01 1.12 0 1.1c0 .4.1.7.2 1c.1.3.2.6.4.9c.2.3.4.5.7.7c.3.2.6.4.9.5zm-2.8 3.5h5.2v.7h-6.1v-2.8h.9v2.1zm10.8-4.9c-1 0-1.8-.2-2.4-.4c-.5-.3-.8-.7-.8-1.2c0-.5.3-.9.8-1.2c.6-.3 1.4-.4 2.4-.4c1 0 1.8.1 2.4.4c.5.3.8.7.8 1.2c0 .5-.3.9-.8 1.2c-.6.2-1.4.4-2.4.4zm0-2.6c-.8 0-1.4.1-1.8.3c-.4.1-.6.4-.6.7c0 .3.2.5.6.7c.4.2 1 .2 1.8.2c.8 0 1.3 0 1.7-.2c.4-.2.6-.4.6-.7c0-.3-.2-.6-.6-.7c-.4-.2-.9-.3-1.7-.3zm-4.1 3.2h8.2v.7h-8.2v-.7zm1.8 3.5v.9h5.6v.7h-6.4v-2.2h5.3v-.8h-5.3v-.7h6.2v2.1h-5.4zM94 74.6h.8v9.1h-.8v-4.8h-2.1v-.7h2.1v-3.6zm-6.3.9s4.19.03 4.2 0c0 .7-.1 1.3-.2 1.9c-.2.6-.4 1.2-.7 1.8c-.4.5-.8 1-1.3 1.5c-.5.4-1.2.9-1.9 1.2l-.5-.6c1.2-.6 2.2-1.3 2.7-2.2c.6-.9 1-1.8 1.1-2.9h-3.4v-.7zm15.5-1h.8v9.2h-.8V80h-1.9v-.7h1.9v-1.2h-1.9v-.7h1.9v-2.9zm-3.5 2.3s-.04.71 0 .7c0 .4 0 .8.1 1.1c.2.4.3.7.5 1.1c.2.3.5.6.8.8c.3.3.6.5.9.6l-.5.7c-.5-.3-.9-.6-1.3-1.1c-.4-.4-.7-1-.9-1.6c-.2.6-.5 1.2-.9 1.7c-.4.5-.9.9-1.4 1.1l-.5-.6c.4-.2.7-.4.9-.7c.3-.2.6-.5.8-.9c.2-.3.3-.6.5-1c.1-.4.1-.8.1-1.2c.04.01 0-.7 0-.7h-2v-.7h2v-1.4h.9v1.4h2v.7h-2zm14.8 4.6v-4h-2v-.7h2v-2.1h.8v6.8h-.8zm-1.4-2.2l-.4.7c-.5-.2-1-.5-1.4-.9c-.3-.4-.6-.8-.8-1.3c-.2.5-.5 1-.9 1.4c-.4.4-.9.8-1.4 1l-.4-.7c.3-.1.6-.3.9-.5c.3-.2.5-.5.7-.7c.2-.3.4-.6.5-1c.1-.3.2-.6.2-1c-.04.02 0-1.1 0-1.1h.8v1.2c0 .3 0 .6.2.9c.1.3.2.6.4.8c.2.3.4.5.7.7c.3.2.6.4.9.5zm-2.8 3.6h5.2v.7h-6.1v-2.9h.9v2.2zm13.7-6.3h1.4v.7H124v2.1h-.8v-4.7h.8v1.9zm-2.4-1.6v4h-4.3v-4h.8v1.3h2.6v-1.3h.9zm-.9 3.3v-1.3h-2.6v1.3h2.6zm-1.6 3.7v1h5.3v.7h-6.1v-2.3h4.9v-.9h-5v-.7h5.8v2.2h-4.9zm14.5-7.4v6.9h-.8v-6.9h.8zm-1.6 4.8l.1.6c-.5.1-1 .1-1.5.2c-.5 0-1 0-1.5.1h-2.8l-.1-.7h2.5c.04.01 0-1.3 0-1.3H127v-3.1h4.3v.7h-3.5v1.7h3.6v.7h-1.8s-.02 1.28 0 1.3c.4 0 .8-.1 1.2-.1c.4 0 .8-.1 1.2-.1zm-3.5 3.5h5.4v.7h-6.2v-2.6h.8v1.9zm10-5.2l-.9-.1c0-.4.1-.7.3-.9c.1-.3.3-.5.5-.7c.2-.2.4-.3.7-.4c.3-.1.6-.2.9-.2c.4 0 .6.1.9.2c.3.1.5.2.7.4c.2.1.4.4.5.6c.1.2.1.5.1.8c0 .5-.1.8-.3 1.1c-.2.3-.6.5-1 .6c1 .3 1.5.9 1.5 1.8c0 .4-.1.7-.2 1c-.1.2-.3.5-.5.7c-.3.2-.5.3-.8.4c-.3.1-.7.2-1 .2c-.4 0-.8-.1-1-.2c-.3-.1-.6-.2-.8-.4c-.2-.2-.3-.4-.4-.6c-.2-.3-.3-.5-.4-.8l.9-.3c0 .1 0 .2.1.4c.2.3.4.6.6.8c.3.2.6.3 1 .3c.2 0 .5-.1.7-.2c.2-.1.3-.2.5-.3c.1-.1.2-.3.3-.5c0-.1.1-.3.1-.5c0-.2-.1-.3-.1-.5c-.1-.2-.2-.3-.3-.5c-.1-.1-.3-.2-.6-.2c-.2-.1-.6-.2-1-.2v-.6c.4 0 .6-.1.9-.1c.2-.1.4-.2.5-.3c.2-.1.3-.3.3-.4c.1-.2.1-.4.1-.6c0-.4-.1-.7-.4-.9c-.2-.2-.5-.3-.9-.3c-.2 0-.4 0-.6.1c-.2 0-.4.1-.5.3c-.1.1-.2.3-.3.4c-.1.2-.1.4-.1.6zm10 1.6c0 .7 0 1.2-.2 1.7c-.1.5-.3.9-.6 1.2c-.2.4-.5.6-.8.7c-.4.2-.7.3-1.1.3c-.4 0-.8-.1-1.1-.3c-.3-.1-.6-.3-.9-.7c-.2-.3-.4-.7-.6-1.2c-.1-.5-.2-1-.2-1.7c0-.7.1-1.2.2-1.7c.2-.5.4-.9.6-1.2c.3-.3.6-.6.9-.7c.3-.2.7-.3 1.1-.3c.4 0 .7.1 1.1.3c.3.1.6.4.8.7c.3.3.5.7.6 1.2c.2.5.2 1 .2 1.7zm-.9 0c0-.6-.1-1.1-.2-1.5c-.1-.4-.2-.7-.4-.9c-.1-.3-.3-.4-.5-.5c-.3-.1-.5-.2-.7-.2c-.3 0-.5.1-.7.2c-.2.1-.4.2-.6.5c-.1.2-.3.5-.4.9c-.1.4-.1.9-.1 1.5c0 .6 0 1.1.1 1.5c.1.4.3.7.4.9c.2.3.4.5.6.6c.2.1.4.1.7.1c.2 0 .4 0 .7-.1c.2-.1.4-.3.5-.6c.2-.2.3-.5.4-.9c.1-.4.2-.9.2-1.5zm6.1-.7v.8h-4.1v-4.1h4.1v.8h2.1v-1.4h.9v5.4h-.9v-1.5h-2.1zm-.8.1v-2.7h-2.5v2.7h2.5zm2.9-1.9h-2.1v1.1h2.1v-1.1zm-2.2 3.5c1 0 1.7.2 2.3.5c.5.3.8.7.8 1.3c0 .2-.1.5-.2.7c-.2.2-.4.4-.6.5c-.3.2-.6.3-1 .4c-.4 0-.8.1-1.3.1c-.4 0-.8-.1-1.2-.1c-.4-.1-.7-.2-1-.4c-.2-.1-.4-.3-.6-.5c-.1-.2-.2-.5-.2-.7c0-.3.1-.6.2-.8c.2-.2.4-.4.6-.5c.3-.2.6-.3 1-.4c.4 0 .8-.1 1.2-.1zm0 2.8c.7 0 1.3-.1 1.7-.2c.4-.2.6-.5.6-.8c0-.4-.2-.7-.6-.8c-.4-.2-1-.3-1.7-.3c-.7 0-1.2.1-1.6.3c-.4.1-.6.4-.6.8c0 .3.2.6.6.8c.4.1.9.2 1.6.2zm11.3-8.5h.9v9.2h-.9v-9.2zm-3.6.7c.3 0 .7.1 1 .2c.3.1.5.2.7.4c.3.2.4.4.5.7c.2.3.2.5.2.9c0 .3 0 .6-.2.8c-.1.3-.2.5-.5.7c-.2.2-.4.4-.7.5c-.3.1-.7.1-1 .1c-.4 0-.7 0-1-.1c-.3-.1-.6-.3-.8-.5c-.2-.2-.4-.4-.5-.7c-.1-.2-.2-.5-.2-.8c0-.4.1-.6.2-.9c.1-.3.3-.5.5-.7c.2-.2.5-.3.8-.4c.3-.1.6-.2 1-.2zm0 .7c-.3 0-.5.1-.7.1c-.2.1-.3.2-.5.3c-.1.2-.2.3-.3.5c-.1.2-.2.3-.2.6c0 .2.1.4.2.5c.1.2.2.4.3.5c.2.1.3.2.5.3c.2.1.4.1.7.1c.2 0 .4 0 .6-.1l.6-.3c.1-.1.2-.3.3-.5c.1-.1.1-.3.1-.5c0-.3 0-.4-.1-.6c-.1-.2-.2-.3-.3-.5l-.6-.3c-.2 0-.4-.1-.6-.1zm-2.8 5.8l-.1-.7h1.3c.5 0 1 0 1.5-.1h1.6c.5-.1 1-.1 1.5-.2l.1.6c-.5.1-1 .2-1.6.2c-.5.1-1 .1-1.5.1c-.5.1-1 .1-1.5.1h-1.3zm18.1-7.2h.8v9.2h-.8v-4.8h-1.2v4.3h-.8v-8.5h.8v3.5h1.2v-3.7zm-4.3 1.8s-.02.72 0 .7c0 .4 0 .8.1 1.2c.1.4.2.8.4 1.1c.1.3.3.6.6.9c.2.3.5.5.8.6l-.5.7c-.4-.3-.8-.6-1.1-1c-.3-.4-.5-.9-.7-1.5c-.3 1.3-1 2.2-1.9 2.8l-.5-.6c.3-.2.6-.4.8-.7c.3-.3.5-.6.7-1c.1-.3.3-.7.3-1.2c.1-.4.2-.8.2-1.3c-.03.02 0-.7 0-.7h-1.8v-.7h4.2v.7h-1.6zm13.8.8v.7h-6.2v-3.1h.8v2.4h5.4zm-7.3 1.7h8.2v.7h-8.2v-.7zm4.1 1.5c1 0 1.7.2 2.3.5c.5.3.8.7.8 1.2c0 .5-.3.9-.8 1.2c-.6.3-1.3.5-2.3.5c-1 0-1.8-.2-2.3-.5c-.6-.3-.8-.7-.8-1.2c0-.5.2-.9.8-1.2c.5-.3 1.3-.5 2.3-.5zm0 2.7c.7 0 1.3-.1 1.7-.3c.4-.1.6-.4.6-.7c0-.3-.2-.6-.6-.8c-.4-.1-1-.2-1.7-.2c-.7 0-1.3.1-1.7.2c-.4.2-.6.5-.6.8c0 .3.2.6.6.7c.4.2 1 .3 1.7.3zm14.6-8.4v5.2h-.8v-5.2h.8zm-4.9 4.7c-.3 0-.7 0-.9-.1c-.3-.1-.6-.3-.8-.4c-.2-.2-.4-.5-.5-.7c-.1-.3-.2-.6-.2-.9c0-.3.1-.6.2-.9c.1-.2.3-.4.5-.6c.2-.2.5-.4.8-.5c.2-.1.6-.1.9-.1c.4 0 .7 0 1 .1c.3.1.5.3.7.5c.2.2.4.4.5.6c.1.3.2.6.2.9c0 .3-.1.6-.2.9c-.1.2-.3.5-.5.7c-.2.1-.4.3-.7.4c-.3.1-.6.1-1 .1zm0-3.5c-.2 0-.4 0-.6.1c-.2.1-.4.2-.5.3c-.2.1-.3.3-.3.4c-.1.2-.2.4-.2.6c0 .2.1.4.2.6c0 .2.1.3.3.4c.1.2.3.3.5.3c.2.1.4.2.6.2c.2 0 .4-.1.6-.2c.2 0 .4-.1.5-.3c.2-.1.3-.2.4-.4c0-.2.1-.4.1-.6c0-.2-.1-.4-.1-.6c-.1-.1-.2-.3-.4-.4c-.1-.1-.3-.2-.5-.3c-.2-.1-.4-.1-.6-.1zm3.9 4.4v.5c0 .2 0 .4.1.7c.1.2.2.4.4.6c.1.2.3.4.6.6c.2.1.4.2.7.3l-.4.7c-.4-.2-.8-.4-1.1-.7c-.3-.3-.6-.7-.7-1.1c-.2.4-.4.8-.6 1.1c-.3.3-.7.6-1.1.7c-.5-.1-.8-.4-1.1-.7c-.3-.3-.5-.6-.6-1c-.2.3-.4.7-.7 1c-.3.3-.7.5-1.1.7l-.4-.7c.2-.1.5-.2.7-.4c.3-.1.5-.3.6-.5c.2-.2.3-.4.4-.7c.1-.2.1-.4.1-.6v-.5h.8v.5c0 .4.1.8.3 1.2c.2.4.5.7 1 .9c.2-.1.4-.3.5-.4c.2-.2.4-.4.5-.6c.1-.2.2-.4.2-.6c.1-.2.1-.4.1-.5v-.5h.8zm10-2.9v.7h-6.2v-3.1h.8v2.4h5.4zm-7.3 1.9h8.3v.7h-8.3v-.7zm1.9 1.6v2h5.5v.7h-6.4v-2.7h.9zm16.1-6.3h.8v9.2h-.8v-5h-2c-.1.5-.1.9-.2 1.2c-.2.4-.3.7-.5.9c-.2.3-.4.5-.7.6c-.3.2-.6.2-.9.2c-.3 0-.6 0-.9-.2c-.3-.1-.5-.4-.7-.6c-.2-.3-.4-.7-.5-1c-.1-.4-.2-.9-.2-1.4c0-.5.1-.9.2-1.3c.1-.4.3-.7.5-1c.2-.3.4-.5.7-.6c.3-.2.6-.3.9-.3c.3 0 .6.1.9.2l.6.6c.2.2.4.5.5.9c.2.3.2.7.3 1.1c-.03.03 2 0 2 0v-3.5zm-4.3 6.4c.2 0 .4-.1.6-.2c.2-.1.3-.3.5-.5c.1-.2.2-.5.3-.8c0-.3.1-.6.1-1c0-.3-.1-.7-.1-1c-.1-.3-.2-.5-.3-.7c-.2-.2-.3-.4-.5-.5c-.2-.1-.4-.2-.6-.2c-.2 0-.4.1-.6.2c-.2.1-.3.3-.5.5c-.1.2-.2.4-.3.7c0 .3-.1.7-.1 1c0 .4.1.7.1 1c.1.3.2.6.3.8c.2.2.3.4.5.5c.2.1.4.2.6.2zm14.2-6.3v6.7h-.8v-6.7h.8zm-1.9 4.4l.1.7c-.4 0-.7.1-1.1.1c-.3.1-.7.1-1 .1c-.4 0-.7.1-1.1.1h-2v-2.8h3.3v-1.3h-3.3v-.7h4.1v2.6h-3.3s.03 1.5 0 1.5h1.2c.4 0 .7 0 1.1-.1h1c.3-.1.7-.1 1-.2zm-3.2 3.8h5.4v.7h-6.2v-2.7h.8v2zm13.5-8.3h.8v9.2h-.8v-9.2zm-4 .7c.3 0 .6.1.9.3c.3.1.5.3.8.6c.2.3.3.6.4 1c.1.4.2.8.2 1.3c0 .5-.1 1-.2 1.4c-.1.3-.2.7-.4 1c-.3.2-.5.5-.8.6c-.3.2-.6.2-.9.2c-.4 0-.7 0-1-.2c-.2-.1-.5-.4-.7-.6c-.2-.3-.4-.7-.5-1c-.1-.4-.1-.9-.1-1.4c0-.5 0-.9.1-1.3c.1-.4.3-.7.5-1c.2-.3.5-.5.7-.6c.3-.2.6-.3 1-.3zm0 .8c-.2 0-.5.1-.6.2c-.2.1-.4.3-.5.5c-.2.2-.3.4-.3.7c-.1.3-.2.7-.2 1c0 .4.1.7.2 1c0 .3.1.6.3.8c.1.2.3.4.5.5c.1.1.4.2.6.2c.2 0 .4-.1.6-.2c.2-.1.3-.3.5-.5c.1-.2.2-.5.3-.8c.1-.3.1-.6.1-1c0-.3 0-.7-.1-1c-.1-.3-.2-.5-.3-.7c-.2-.2-.3-.4-.5-.5c-.2-.1-.4-.2-.6-.2zm13.5-1.5h.8v9.2h-.8v-9.2zm-1.8 3.6v-3.4h.8v8.5h-.8v-4.4s-1.2-.02-1.2 0c0 .4-.1.8-.2 1.2c-.1.3-.2.7-.4.9c-.1.3-.3.4-.6.6c-.2.1-.5.2-.7.2c-.3 0-.6-.1-.8-.2c-.3-.2-.5-.4-.7-.7c-.1-.3-.3-.6-.4-1c0-.4-.1-.8-.1-1.3c0-.5.1-1 .1-1.3c.1-.4.3-.8.4-1c.2-.3.4-.5.7-.7c.2-.1.5-.2.8-.2c.2 0 .5.1.7.2c.2.1.4.3.6.6c.2.2.3.5.4.8c.1.4.2.8.2 1.2h1.2zm-3.1 2.8c.3 0 .6-.2.8-.6c.2-.5.3-1.1.3-1.8v-1c-.1-.3-.2-.6-.3-.8c-.1-.2-.2-.3-.3-.5c-.2-.1-.4-.1-.5-.1c-.4 0-.7.2-.9.6c-.2.5-.3 1-.3 1.8c0 .7.1 1.3.3 1.8c.2.4.5.6.9.6zm14.1-6.4h.7v9.2h-.7v-9.2zm-2 3.8v-3.5h.8v8.4h-.8V79s-1.83-.04-1.8 0c-.3.5-.7 1-1.1 1.4c-.4.5-1 .9-1.6 1.3l-.5-.6c1-.6 1.7-1.3 2.2-2.1c.5-.8.8-1.6.9-2.6h-2.7v-.7h3.5c0 .5 0 .9-.1 1.3c-.1.5-.2.9-.3 1.3c-.04-.02 1.5 0 1.5 0zm13.2-3.8h.8v9.2h-.8v-9.2zm-1.8 2.3v-2.1h.8v8.5h-.8v-3s-1.4.03-1.4 0c-.2.5-.4.9-.7 1.1c-.3.3-.6.4-1 .4c-.3 0-.6-.1-.8-.2c-.2-.2-.5-.4-.6-.7c-.2-.3-.3-.6-.4-1c-.1-.4-.2-.8-.2-1.3c0-.5.1-.9.2-1.3c.1-.4.2-.8.4-1c.1-.3.4-.5.6-.7c.2-.1.5-.2.8-.2c.4 0 .8.1 1 .4c.3.2.5.6.7 1.1c0-.05 1.4 0 1.4 0zm-3.1 4.1c.4 0 .7-.2.9-.6c.2-.5.3-1.1.3-1.8c0-.8-.1-1.3-.3-1.8c-.2-.4-.5-.6-.9-.6c-.4 0-.7.2-.9.6c-.2.5-.3 1-.3 1.8c0 .7.1 1.3.3 1.8c.2.4.5.6.9.6zm1.9-1.4c-.03.04 1.2 0 1.2 0v-2.1s-1.23.04-1.2 0v.5c0 .2.1.4.1.6c0 .2-.1.4-.1.5v.5zm13-2.4l-.2.7c-.4-.1-.8-.2-1.1-.3c-.4-.1-.7-.2-1-.4c-.3-.1-.5-.3-.8-.5c-.2-.2-.4-.4-.6-.7c-.1.3-.3.5-.5.7c-.3.2-.5.4-.8.5c-.3.2-.6.3-1 .4c-.3.1-.7.2-1.1.3l-.2-.7c.4 0 .8-.1 1.2-.2c.4-.2.7-.3 1-.5c.3-.2.6-.4.8-.7c.1-.2.2-.5.2-.8c.03.03 0-.3 0-.3h.9v.3c0 .3.1.6.3.8c.1.3.4.5.7.7c.3.2.6.3 1 .5c.4.1.8.2 1.2.2zm.5 1.9h-3.7v.9h2.6v2.1h-5.3v.9h5.6v.7h-6.5v-2.2h5.4v-.8h-5.4v-.7h2.7v-.9h-3.7v-.6h8.3v.6zm7.4-2.5c-.04-.03 0-.4 0-.4h-5.6v-.6h6.4v2.8c-.1.3-.1.7-.1 1c-.1.4-.1.8-.2 1.2l-.9-.1c.2-.7.3-1.3.3-1.9c0-.7.1-1.3.1-2zm-1.4 5.2h3.2v.7h-8.3v-.7h2v-3h.9v3h1.4v-3h.8v3zm8.2-3.4c-.5 0-.9-.1-1.3-.2c-.4 0-.8-.2-1-.3c-.3-.2-.5-.3-.7-.6c-.1-.2-.2-.4-.2-.7c0-.3.1-.5.2-.7c.2-.2.4-.4.7-.6c.2-.1.6-.2 1-.3c.4-.1.8-.1 1.3-.1c.5 0 .9 0 1.3.1c.4.1.8.2 1.1.3l.6.6c.1.2.2.4.2.7c0 .3-.1.5-.2.7c-.2.3-.4.4-.6.6c-.3.1-.7.3-1.1.3c-.4.1-.8.2-1.3.2zm0-2.9c-.7 0-1.3.1-1.7.3c-.4.2-.6.5-.6.8c0 .4.2.6.6.8c.4.2 1 .3 1.7.3c.7 0 1.3-.1 1.7-.3c.5-.2.7-.4.7-.8c0-.3-.2-.6-.7-.8c-.4-.2-1-.3-1.7-.3zm4.1 4.2h-2.1v1.2h1.1v2.9h-.8v-2.2h-5.5v-.7h1.3v-1.2H286v-.7h8.2v.7zm-3 1.2v-1.2H289v1.2h2.2zm8.1-2.9c-1 0-1.8-.2-2.4-.4c-.5-.3-.8-.7-.8-1.2c0-.5.3-.9.8-1.2c.6-.3 1.4-.4 2.4-.4c1 0 1.8.1 2.3.4c.6.3.9.7.9 1.2c0 .5-.3.9-.9 1.2c-.5.2-1.3.4-2.3.4zm0-2.6c-.8 0-1.4.1-1.8.3c-.4.1-.6.4-.6.7c0 .3.2.5.6.7c.4.2 1 .2 1.8.2c.7 0 1.3 0 1.7-.2c.4-.2.6-.4.6-.7c0-.3-.2-.6-.6-.7c-.4-.2-1-.3-1.7-.3zm-4.2 3.2h8.3v.7h-8.3v-.7zM297 82v.9h5.6v.7h-6.4v-2.2h5.3v-.8h-5.4v-.7h6.3v2.1H297zm16.1-7.4h.8v9.1h-.8v-9.1zm-3.4 1.6s-.02 1.14 0 1.1c0 .4 0 .8.2 1.2c.1.4.3.7.5 1.1c.2.3.5.6.8.8c.3.3.6.5.9.6l-.4.7c-.6-.2-1-.6-1.5-1.1c-.4-.5-.7-1.1-.9-1.7c-.1.3-.3.7-.4 1c-.2.3-.4.6-.6.8c-.2.3-.4.5-.6.7c-.3.2-.5.4-.8.5l-.5-.6c.3-.2.7-.4 1-.7c.2-.3.5-.6.7-.9l.6-1.2c.1-.4.1-.8.1-1.2c.04.04 0-1.1 0-1.1h-2.1v-.7h5.1v.7h-2.1zm10.7 3.7h1.8v-5.4h.9v7h-.9v-.9h-1.8v-.7zm-1.9-1.8c-.3 0-.6 0-.9-.1c-.3-.1-.5-.2-.7-.3c-.2-.2-.4-.3-.5-.5c-.1-.2-.1-.5-.1-.7c0-.2 0-.5.1-.7c.1-.2.3-.3.5-.5c.2-.1.4-.2.7-.3c.3-.1.6-.1.9-.1c.4 0 .7 0 .9.1c.3.1.6.2.8.3c.2.2.3.3.4.5c.1.2.2.5.2.7c0 .2-.1.5-.2.7c-.1.2-.2.3-.4.5c-.2.1-.5.2-.8.3c-.2.1-.5.1-.9.1zm0-2.6c-.4 0-.8.1-1 .3c-.3.2-.4.4-.4.7c0 .3.1.5.4.7c.2.2.6.3 1 .3c.5 0 .8-.1 1.1-.3c.2-.2.4-.4.4-.7c0-.3-.2-.5-.4-.7c-.3-.2-.6-.3-1.1-.3zm-.3 5.7v-1.8c-.5 0-.9.1-1.3.1h-1.2l-.2-.7h1.4c.5 0 1 0 1.5-.1h1.5c.6-.1 1.1-.1 1.5-.2l.1.6c-.4.1-.8.1-1.2.2c-.4 0-.9 0-1.3.1c.03-.02 0 1.8 0 1.8h-.8zm-.5 1.6h5.6v.7h-6.4v-2.7h.8v2zm12.8-5.1v2.4h-.7v-5.4h.7v2.4h1.2v-2.5h.8v5.6h-.8v-2.5h-1.2zm-1.1-2.1v.7h-4.7v-.7h1.9v-1h.9v1h1.9zm-2.3 4.2c-.3 0-.6 0-.8-.1c-.3 0-.5-.1-.7-.3c-.1-.1-.3-.3-.4-.5c0-.2-.1-.4-.1-.6c0-.3.1-.5.1-.7c.1-.2.3-.3.4-.5c.2-.1.4-.2.7-.3c.2 0 .5-.1.8-.1c.2 0 .5.1.8.1l.6.3c.1.2.3.3.4.5c.1.2.1.4.1.7c0 .2 0 .4-.1.6c-.1.2-.3.4-.4.5c-.2.2-.4.3-.6.3c-.3.1-.6.1-.8.1zm0-2.5c-.4 0-.7.1-.9.3c-.2.2-.3.4-.3.7c0 .3.1.5.3.7c.2.1.5.2.9.2c.3 0 .6-.1.8-.2c.3-.2.4-.4.4-.7c0-.3-.1-.5-.4-.7c-.2-.2-.5-.3-.8-.3zm4.3 3.2s-.02.29 0 .3c0 .2 0 .4.1.7c.1.2.2.4.4.6c.1.2.3.3.5.5c.3.1.5.3.8.4l-.4.6c-.4-.2-.8-.4-1.1-.7c-.4-.3-.6-.6-.7-1c-.2.4-.4.7-.7 1c-.2.3-.6.6-1 .8c-.5-.2-.8-.4-1.1-.7c-.3-.3-.5-.7-.6-1.1c-.2.4-.4.7-.7 1c-.3.3-.7.5-1.2.7l-.3-.6c.2-.1.5-.3.7-.4c.3-.2.4-.4.6-.6c.2-.2.3-.4.4-.6c.1-.2.1-.4.1-.6v-.3h.8v.3c0 .4.1.8.3 1.1c.2.4.5.7 1 1c.2-.2.4-.3.5-.5c.2-.2.3-.3.4-.5l.3-.6c0-.2.1-.3.1-.5c-.05-.01 0-.3 0-.3h.8zm11.1-2.3v.6H341v4.9h-.8v-9.2h.8v3.7h1.5zm-7.3-2.1s-.02 4.61 0 4.6h2.2c.3-.1.6-.1.9-.1c.4-.1.7-.1 1-.2l.1.7c-.4.1-.7.1-1 .2c-.4 0-.7 0-1 .1h-2.3c-.03.03-.8 0-.8 0v-6h4.3v.7h-3.4zm7.8 7v-1h1v1h-1z" stroke="none" fill="#111111"/></g><g id="Polygon124013"><path d="m8.2 60.3v.7H4.9v-4.1h3.2v.7H5.7v2.7h2.5zM4.4 60l.1.7c-.5.1-1 .2-1.4.2c-.4 0-.9.1-1.3.1c-.04-.04-.5 0-.5 0v-4.1h3v.7H2.1v2.7c.4 0 .8-.1 1.1-.1c.4 0 .8-.1 1.2-.2zm.7 3.3h3.7v.7H.5v-.7h3.8v-1.9h.8v1.9zm10-6.1v.6H9.8v-.6h2.2v-1.1h.9v1.1h2.2zm1.7 1.9h1.4v.7h-1.4v3.1h-.8v-6.8h.8v3zm-2.2.9c0 .3 0 .5-.1.7c-.1.3-.3.4-.5.6c-.2.1-.4.2-.7.3c-.2.1-.5.1-.9.1c-.3 0-.6 0-.8-.1c-.3-.1-.5-.2-.7-.3c-.2-.2-.4-.3-.5-.6c-.1-.2-.1-.4-.1-.7c0-.2 0-.5.1-.7c.1-.2.3-.3.5-.5c.2-.1.4-.3.7-.3c.2-.1.5-.2.8-.2c.4 0 .7.1.9.2c.3 0 .5.2.7.3c.2.2.4.3.5.5c.1.2.1.5.1.7zm-3.5 0c0 .4.1.6.3.8c.3.2.6.3 1 .3c.5 0 .8-.1 1.1-.3c.2-.2.3-.4.3-.8c0-.3-.1-.5-.3-.7c-.3-.2-.6-.3-1.1-.3c-.4 0-.7.1-1 .3c-.2.2-.3.4-.3.7zm.9 2.4v1.9h5.2v.7h-6.1v-2.6h.9zm16.2-5.9v3.2H22v-3.2h6.2zm-.8 2.5v-1.9h-4.5v1.9h4.5zM21 60.7h8.3v.7h-3.7v1.8h-.8v-1.8H21v-.7zm1.9 1.7v1.9h5.4v.7H22v-2.6h.9zm15.7-2.5v.7h-1.4v4.6h-.8V56h.8v3.9h1.4zm-2.9-2.7v.6h-5.5v-.6h2.3v-1.1h.9v1.1h2.3zm-2.3 4.5v1c.4 0 .8-.1 1.2-.1c.4 0 .8-.1 1.2-.1l.1.6c-.5.1-1 .1-1.5.2c-.5 0-1 .1-1.5.1c-.5 0-1 0-1.4.1h-1.3l-.1-.7c.3 0 .7 0 1.1-.1h1.3v-1c-.5 0-.9-.2-1.2-.5c-.3-.3-.5-.7-.5-1.2c0-.2 0-.4.2-.6c.1-.3.2-.4.4-.6c.2-.1.4-.2.7-.3c.2-.1.5-.1.9-.1c.3 0 .6 0 .8.1c.3.1.5.2.7.3c.2.2.4.3.5.6c.1.2.1.4.1.6c0 .5-.1.9-.5 1.2c-.3.3-.7.5-1.2.5zM31.6 60c0 .4.1.6.4.8c.2.2.5.3 1 .3c.4 0 .7-.1.9-.3c.3-.2.4-.4.4-.8c0-.3-.1-.5-.4-.7c-.2-.2-.5-.3-.9-.3c-.5 0-.8.1-1 .3c-.3.2-.4.4-.4.7zm14.7-4h.8v9.2h-.8V56zm-1.8 2.3v-2.1h.8v8.5h-.8v-3s-1.39.03-1.4 0c-.2.5-.4.9-.7 1.1c-.2.3-.6.4-1 .4c-.3 0-.6-.1-.8-.2c-.2-.2-.4-.4-.6-.7c-.2-.3-.3-.6-.4-1c-.1-.4-.1-.8-.1-1.3c0-.5 0-.9.1-1.3c.1-.4.2-.8.4-1c.2-.3.4-.5.6-.7c.2-.1.5-.2.8-.2c.4 0 .8.1 1 .4c.3.2.5.6.7 1.1c.01-.05 1.4 0 1.4 0zm-3.1 4.1c.4 0 .7-.2.9-.6c.2-.5.3-1.1.3-1.8c0-.8-.1-1.3-.3-1.8c-.2-.4-.5-.6-.9-.6c-.4 0-.7.2-.9.6c-.2.5-.3 1-.3 1.8c0 .7.1 1.3.3 1.8c.2.4.5.6.9.6zm1.9-1.4c-.02.04 1.2 0 1.2 0v-2.1s-1.22.04-1.2 0v.5c.1.2.1.4.1.6c0 .2 0 .4-.1.5v.5zm13-2.4l-.2.7c-.4-.1-.8-.2-1.1-.3c-.3-.1-.7-.2-1-.4c-.3-.1-.5-.3-.8-.5c-.2-.2-.4-.4-.5-.7c-.2.3-.4.5-.6.7c-.2.2-.5.4-.8.5c-.3.2-.6.3-1 .4c-.3.1-.7.2-1.1.3l-.2-.7c.4 0 .8-.1 1.2-.2c.4-.2.7-.3 1-.5c.3-.2.6-.4.8-.7c.1-.2.2-.5.2-.8c.03.03 0-.3 0-.3h.9v.3c0 .3.1.6.3.8c.1.3.4.5.7.7c.3.2.6.3 1 .5c.4.1.8.2 1.2.2zm.5 1.9h-3.7v.9h2.6v2.1h-5.3v.9h5.6v.7h-6.5v-2.2h5.4v-.8h-5.4v-.7h2.7v-.9h-3.7v-.6h8.3v.6zm7.4-2.5c-.03-.03 0-.4 0-.4h-5.6v-.6h6.4v2.8c-.1.3-.1.7-.1 1c-.1.4-.1.8-.2 1.2l-.8-.1c.1-.7.2-1.3.2-1.9c0-.7.1-1.3.1-2zm-1.4 5.2h3.2v.7h-8.3v-.7h2v-3h.9v3h1.4v-3h.8v3zm8.2-3.4c-.5 0-.9-.1-1.3-.2c-.4 0-.8-.2-1-.3c-.3-.2-.5-.3-.7-.6c-.1-.2-.2-.4-.2-.7c0-.3.1-.5.2-.7c.2-.2.4-.4.7-.6c.2-.1.6-.2 1-.3c.4-.1.8-.1 1.3-.1c.5 0 1 0 1.3.1c.4.1.8.2 1.1.3c.2.2.5.4.6.6c.2.2.2.4.2.7c0 .3 0 .5-.2.7c-.1.3-.4.4-.6.6c-.3.1-.7.3-1.1.3c-.3.1-.8.2-1.3.2zm0-2.9c-.7 0-1.3.1-1.7.3c-.4.2-.6.5-.6.8c0 .4.2.6.6.8c.4.2 1 .3 1.7.3c.8 0 1.3-.1 1.7-.3c.5-.2.7-.4.7-.8c0-.3-.2-.6-.7-.8c-.4-.2-.9-.3-1.7-.3zm4.2 4.2H73v1.2h1.1v2.9h-.8V63h-5.5v-.7h1.3v-1.2h-2.2v-.7h8.3v.7zm-3.1 1.2v-1.2h-2.2v1.2h2.2zM85.6 56v5.3h-.8V56h.8zm-2.7.6v3.8h-4.3v-3.8h4.3zm-.8 3.1v-2.4h-2.7v2.4h2.7zm3.8 2.9s-2.73-.04-2.7 0c0 .2.1.4.2.6c.2.2.4.4.7.6c.3.2.6.3.9.5c.4.1.8.2 1.2.2l-.3.7c-.4-.1-.7-.2-1-.3l-.9-.3c-.3-.2-.5-.3-.7-.5c-.2-.2-.4-.4-.5-.6l-.6.6c-.2.2-.5.3-.7.5l-.9.3c-.4.1-.7.2-1 .3l-.3-.7c.4 0 .7-.1 1.1-.2c.4-.2.7-.3 1-.5c.3-.2.5-.4.7-.6c.1-.2.2-.4.2-.6c.01-.04-2.7 0-2.7 0v-.7h2.7v-.9h.9v.9h2.7v.7zm9.9-5.3v-.1h-5.4v-.7h6.2s.02.78 0 .8v1.1c0 .4-.1.8-.2 1.3l-.8-.1c.1-.5.1-.9.2-1.2v-1.1zm-2.2 3h4.1v.7h-8.3v-.7h3.4v-1.8h.8v1.8zm-.1 1.5c.5 0 .9.1 1.3.1c.4.1.7.2 1 .4c.3.1.5.3.7.5c.1.2.2.4.2.7c0 .3-.1.5-.2.7c-.2.2-.4.4-.7.5c-.3.2-.6.3-1 .4c-.4 0-.8.1-1.3.1c-.5 0-.9-.1-1.3-.1c-.4-.1-.7-.2-1-.4c-.3-.1-.5-.3-.7-.5c-.1-.2-.2-.4-.2-.7c0-.3.1-.5.2-.7c.2-.2.4-.4.7-.5c.3-.2.6-.3 1-.4c.4 0 .8-.1 1.3-.1zm0 2.7c.7 0 1.3-.1 1.7-.2c.4-.2.7-.5.7-.8c0-.3-.3-.6-.7-.8c-.4-.1-1-.2-1.7-.2c-.7 0-1.3.1-1.7.2c-.4.2-.6.5-.6.8c0 .3.2.6.6.8c.4.1 1 .2 1.7.2zm11.8-4.2s-2.34.04-2.3 0c-.3.3-.5.5-.8.7c-.4.1-.7.2-1.1.2c-.4 0-.7 0-1-.2c-.2-.1-.5-.2-.7-.4c-.2-.2-.4-.5-.5-.8c-.1-.2-.2-.5-.2-.9c0-.3.1-.6.2-.9c.1-.3.3-.5.5-.7c.2-.2.5-.4.7-.5c.3-.1.6-.2 1-.2c.4 0 .7.1 1 .3c.4.1.6.3.8.6c.05-.02 2.4 0 2.4 0v-1.4h.8v6.7h-.8v-2.5zm-5.8-1.4c0 .2.1.5.1.6c.1.2.2.4.4.5c.1.2.3.3.5.4c.1 0 .4.1.6.1c.2 0 .4-.1.6-.1c.2-.1.3-.2.5-.4c.1-.1.2-.3.3-.5c.1-.1.1-.4.1-.6c0-.2 0-.4-.1-.6c-.1-.2-.2-.4-.3-.5c-.2-.1-.3-.2-.5-.3c-.2-.1-.4-.1-.6-.1c-.2 0-.5 0-.6.1c-.2.1-.4.2-.5.3c-.2.1-.3.3-.4.5c0 .2-.1.4-.1.6zm5.8-.7s-1.99-.05-2 0c.1.2.1.4.1.7c0 .3 0 .5-.1.8c.01-.03 2 0 2 0v-1.5zm-4.2 6.1h5.3v.7h-6.1v-2.9h.8v2.2zM117 59h1.3v.7H117v3.2h-.9V56h.9v3zm-2.4.9h-.8c.1-.6.2-1 .2-1.4c.1-.4.1-.8.1-1.1c-.03.04-3.8 0-3.8 0v-.6h4.6s-.02.43 0 .4v1.2c-.1.4-.1.9-.3 1.5zm.9.6l.1.6c-.5.1-1 .2-1.5.2c-.5.1-1 .1-1.5.1c-.5 0-1 .1-1.4.1h-1.3l-.1-.7h1.9c.02-.03 0-2 0-2h.8s.05 1.94 0 1.9h1.6c.5-.1.9-.1 1.4-.2zm-3.5 1.8v2h5.3v.7h-6.1v-2.7h.8zm15.5-3.9v.7h-1.4v2.4h-.8v-5.4h.8v2.3h1.4zm-3.1 1.6l.1.7c-.4.1-.7.1-1.1.2c-.3 0-.6 0-1 .1h-2.3c.05.02-.7 0-.7 0v-2.6h3.3v-1.2h-3.3v-.7h4.1v2.5h-3.3s.05 1.33 0 1.3h2.2c.3 0 .7-.1 1-.1c.3-.1.7-.1 1-.2zm-4 5.1v-3.2h5.7v3.2h-5.7zm.8-2.5v1.8h4.1v-1.8h-4.1zm11.1-3.2c-1 0-1.8-.2-2.3-.4c-.6-.3-.9-.7-.9-1.2c0-.5.3-.9.9-1.2c.5-.3 1.3-.4 2.3-.4c1 0 1.8.1 2.4.4c.6.3.8.7.8 1.2c0 .5-.2.9-.8 1.2c-.6.2-1.4.4-2.4.4zm0-2.6c-.7 0-1.3.1-1.7.3c-.4.1-.6.4-.6.7c0 .3.2.5.6.7c.4.2 1 .2 1.7.2c.8 0 1.4 0 1.8-.2c.4-.2.6-.4.6-.7c0-.3-.2-.6-.6-.7c-.4-.2-1-.3-1.8-.3zm-4.1 3.2h8.3v.7h-8.3v-.7zm1.8 3.5v.9h5.7v.7h-6.5v-2.2h5.4v-.8h-5.4v-.7h6.2v2.1H130zm14-2.6h3.7v.7h-8.2v-.7h3.7v-.9h-2.7v-3.7h6.2v.7h-5.3v.8h5.1v.6h-5.1v.9h5.4v.7H144v.9zm-.4 1.4c1 0 1.8.1 2.3.3c.6.3.8.6.8 1.1c0 .5-.2.9-.8 1.1c-.5.3-1.3.4-2.3.4c-1 0-1.8-.1-2.3-.4c-.6-.2-.8-.6-.8-1.1c0-.5.2-.8.8-1.1c.5-.2 1.3-.3 2.3-.3zm0 2.2c.7 0 1.3 0 1.7-.2c.4-.1.6-.3.6-.6c0-.3-.2-.5-.6-.6c-.4-.2-1-.2-1.7-.2c-.7 0-1.3 0-1.7.2c-.4.1-.6.3-.6.6c0 .3.2.5.6.6c.4.2 1 .2 1.7.2zm12-8.5h.8v9.2h-.8v-4.6h-1.2v4.1h-.8v-8.5h.8v3.7h1.2V56zm-4.3.3v1.3h1.9v.7h-4.6v-.7h1.9v-1.3h.8zm-.4 2.6c.3 0 .6 0 .8.1c.2.2.4.3.6.5c.2.2.3.4.4.6c.1.3.2.6.2.9c0 .3-.1.6-.2.8c-.1.3-.2.5-.4.7c-.2.2-.4.3-.6.4c-.2.1-.5.2-.8.2c-.3 0-.5-.1-.8-.2c-.2-.1-.4-.2-.6-.4c-.2-.2-.3-.4-.4-.7c-.1-.2-.1-.5-.1-.8c0-.3 0-.6.1-.9c.1-.2.2-.4.4-.6c.2-.2.4-.3.6-.5c.3-.1.5-.1.8-.1zm0 3.5c.4 0 .7-.2.9-.4c.2-.3.3-.6.3-1c0-.2 0-.4-.1-.6c0-.1-.1-.3-.2-.4c-.1-.1-.3-.2-.4-.3c-.2-.1-.3-.1-.5-.1c-.4 0-.7.1-.9.4c-.2.2-.3.6-.3 1c0 .4.1.7.3 1c.3.2.6.4.9.4zm17.4-4.3H167v1.3h1.3v.7H167v1.4h-.8v-5.4h.8v1.3h1.3v.7zm-3.4.7c0 .3-.1.6-.2.8c-.1.3-.3.5-.5.7c-.2.2-.5.4-.8.5c-.3.1-.6.1-.9.1c-.4 0-.7 0-1-.1c-.3-.1-.5-.3-.7-.5c-.3-.2-.4-.4-.5-.7c-.2-.2-.2-.5-.2-.8c0-.4 0-.7.2-.9c.1-.3.2-.5.5-.7c.2-.2.4-.3.7-.5c.3-.1.6-.1 1-.1c.3 0 .6 0 .9.1c.3.2.6.3.8.5c.2.2.4.4.5.7c.1.2.2.5.2.9zm-4 0c0 .2 0 .4.1.5c.1.2.2.4.3.5c.2.1.3.2.5.3c.2.1.4.1.7.1c.2 0 .4 0 .6-.1c.2-.1.4-.2.5-.3c.1-.1.2-.3.3-.5c.1-.1.1-.3.1-.5c0-.3 0-.5-.1-.6c-.1-.2-.2-.4-.3-.5c-.1-.1-.3-.2-.5-.3c-.2-.1-.4-.1-.6-.1c-.3 0-.5 0-.7.1c-.2.1-.3.2-.5.3c-.1.1-.2.3-.3.5c-.1.1-.1.3-.1.6zm.2 3.8v-.7h5.9v3.3h-.8v-2.6h-5.1zm11.2-3.5l-1-.1c.1-.4.2-.7.3-.9c.2-.3.4-.5.6-.7c.2-.2.4-.3.7-.4c.3-.1.6-.2.9-.2c.3 0 .6.1.9.2c.3.1.5.2.7.4c.2.1.3.4.5.6c.1.2.1.5.1.8c0 .5-.1.8-.3 1.1c-.3.3-.6.5-1 .6c1 .3 1.5.9 1.5 1.8c0 .4-.1.7-.2 1c-.1.2-.3.5-.5.7c-.3.2-.5.3-.9.4c-.3.1-.6.2-.9.2c-.4 0-.8-.1-1.1-.2c-.2-.1-.5-.2-.7-.4c-.2-.2-.3-.4-.5-.6c-.1-.3-.2-.5-.3-.8l.9-.3c0 .1 0 .2.1.4c.2.3.4.6.6.8c.3.2.6.3 1 .3c.2 0 .5-.1.7-.2c.2-.1.3-.2.5-.3c.1-.1.2-.3.2-.5c.1-.1.1-.3.1-.5v-.5c-.1-.2-.2-.3-.3-.5c-.2-.1-.4-.2-.6-.2c-.3-.1-.6-.2-1-.2v-.6c.3 0 .6-.1.8-.1c.3-.1.5-.2.6-.3c.1-.1.2-.3.3-.4c.1-.2.1-.4.1-.6c0-.4-.1-.7-.4-.9c-.2-.2-.5-.3-.9-.3c-.3 0-.5 0-.6.1c-.2 0-.4.1-.5.3c-.1.1-.2.3-.3.4c-.1.2-.1.4-.1.6zm4.4 6.1l.4-2.1h.9l-.6 2.1h-.7zm7.3-4.5c0 .7 0 1.2-.2 1.7c-.1.5-.3.9-.6 1.2c-.2.4-.5.6-.8.7c-.4.2-.7.3-1.1.3c-.4 0-.8-.1-1.1-.3c-.3-.1-.6-.3-.9-.7c-.2-.3-.4-.7-.6-1.2c-.1-.5-.2-1-.2-1.7c0-.7.1-1.2.2-1.7c.2-.5.4-.9.6-1.2c.3-.3.6-.6.9-.7c.3-.2.7-.3 1.1-.3c.4 0 .7.1 1.1.3c.3.1.6.4.8.7c.3.3.5.7.6 1.2c.2.5.2 1 .2 1.7zm-.9 0c0-.6-.1-1.1-.2-1.5c-.1-.4-.2-.7-.4-.9c-.1-.3-.3-.4-.5-.5c-.3-.1-.5-.2-.7-.2c-.3 0-.5.1-.7.2c-.2.1-.4.2-.6.5c-.1.2-.3.5-.4.9c-.1.4-.1.9-.1 1.5c0 .6 0 1.1.1 1.5c.1.4.3.7.4.9c.2.3.4.5.6.6c.2.1.4.1.7.1c.2 0 .4 0 .7-.1c.2-.1.4-.3.5-.6c.2-.2.3-.5.4-.9c.1-.4.2-.9.2-1.5zm4.9 3h1.5v.7h-4.1v-.7h1.7V58c0 .04-1.4 1.3-1.4 1.3l-.5-.6l2.1-1.8h.7v6.8zm6.8-2h1.1v.7h-1.1v2h-.9v-2h-3.7v-.6l3.7-4.9h.9v4.8zm-3.6 0h2.7s.03-3.11 0-3.1v-.3c0-.1.1-.2.1-.3c-.03-.04-2.8 3.7-2.8 3.7zM201 60v.8h-4.2v-4.1h4.2v.8h2.1v-1.4h.8v5.4h-.8V60H201zm-.8.1v-2.7h-2.6v2.7h2.6zm2.9-1.9H201v1.1h2.1v-1.1zm-2.2 3.5c.9 0 1.7.2 2.2.5c.6.3.8.7.8 1.3c0 .2 0 .5-.2.7c-.1.2-.3.4-.6.5c-.2.2-.6.3-.9.4c-.4 0-.8.1-1.3.1c-.5 0-.9-.1-1.3-.1c-.3-.1-.7-.2-.9-.4c-.3-.1-.5-.3-.6-.5c-.2-.2-.2-.5-.2-.7c0-.3 0-.6.2-.8c.1-.2.3-.4.6-.5c.2-.2.6-.3.9-.4c.4 0 .8-.1 1.3-.1zm0 2.8c.7 0 1.2-.1 1.6-.2c.4-.2.6-.5.6-.8c0-.4-.2-.7-.6-.8c-.4-.2-.9-.3-1.6-.3c-.7 0-1.2.1-1.6.3c-.4.1-.6.4-.6.8c0 .3.2.6.6.8c.4.1.9.2 1.6.2zm11.3-8.5h.8v9.2h-.8V56zm-3.7.7c.4 0 .7.1 1 .2c.3.1.6.2.8.4c.2.2.4.4.5.7c.1.3.2.5.2.9c0 .3-.1.6-.2.8c-.1.3-.3.5-.5.7c-.2.2-.5.4-.8.5c-.3.1-.6.1-1 .1c-.3 0-.6 0-.9-.1c-.3-.1-.6-.3-.8-.5c-.2-.2-.4-.4-.5-.7c-.1-.2-.2-.5-.2-.8c0-.4.1-.6.2-.9c.1-.3.3-.5.5-.7c.2-.2.5-.3.8-.4c.3-.1.6-.2.9-.2zm0 .7c-.2 0-.4.1-.6.1c-.2.1-.4.2-.5.3c-.2.2-.3.3-.4.5c-.1.2-.1.3-.1.6c0 .2 0 .4.1.5c.1.2.2.4.4.5c.1.1.3.2.5.3c.2.1.4.1.6.1c.3 0 .5 0 .7-.1c.2-.1.4-.2.5-.3c.2-.1.3-.3.3-.5c.1-.1.2-.3.2-.5c0-.3-.1-.4-.2-.6c0-.2-.1-.3-.3-.5c-.1-.1-.3-.2-.5-.3c-.2 0-.4-.1-.7-.1zm-2.8 5.8l-.1-.7h1.4c.5 0 1 0 1.5-.1h1.5c.6-.1 1.1-.1 1.6-.2l.1.6c-.6.1-1.1.2-1.6.2c-.5.1-1.1.1-1.6.1c-.5.1-1 .1-1.4.1h-1.4zm19.7-3.5v.7h-1.5v4.8h-.9v-9.1h.9v3.6h1.5zm-6.1-3c.3 0 .6.1.9.3c.3.1.5.3.7.6c.2.3.4.6.5 1c.1.4.2.8.2 1.3c0 .5-.1 1-.2 1.4c-.1.3-.3.7-.5 1c-.2.2-.4.5-.7.6c-.3.2-.6.2-.9.2c-.4 0-.7 0-1-.2c-.2-.1-.5-.4-.7-.6c-.2-.3-.4-.7-.5-1c-.1-.4-.1-.9-.1-1.4c0-.5 0-.9.1-1.3c.1-.4.3-.7.5-1c.2-.3.5-.5.7-.6c.3-.2.6-.3 1-.3zm0 5.7c.2 0 .4-.1.6-.2c.2-.1.3-.3.4-.5c.2-.2.3-.5.4-.8c0-.3.1-.6.1-1c0-.3-.1-.7-.1-1c-.1-.3-.2-.5-.4-.7c-.1-.2-.2-.4-.4-.5c-.2-.1-.4-.2-.6-.2c-.3 0-.5.1-.6.2c-.2.1-.4.3-.5.5c-.2.2-.3.4-.3.7c-.1.3-.1.7-.1 1c0 .4 0 .7.1 1c0 .3.1.6.3.8c.1.2.3.4.5.5c.1.1.3.2.6.2zm13.4-6.4h.8v9.2h-.8V56zm-4 .7c.3 0 .6.1.9.3c.3.1.5.3.7.6c.2.3.4.6.5 1c.1.4.2.8.2 1.3c0 .5-.1 1-.2 1.4c-.1.3-.3.7-.5 1c-.2.2-.4.5-.7.6c-.3.2-.6.2-.9.2c-.4 0-.7 0-1-.2c-.3-.1-.5-.4-.7-.6c-.2-.3-.4-.7-.5-1c-.1-.4-.2-.9-.2-1.4c0-.5.1-.9.2-1.3c.1-.4.3-.7.5-1c.2-.3.4-.5.7-.6c.3-.2.6-.3 1-.3zm0 .8c-.3 0-.5.1-.6.2c-.2.1-.4.3-.5.5c-.2.2-.3.4-.3.7c-.1.3-.2.7-.2 1c0 .4.1.7.2 1c0 .3.1.6.3.8c.1.2.3.4.5.5c.1.1.3.2.6.2c.2 0 .4-.1.6-.2c.2-.1.3-.3.5-.5c.1-.2.2-.5.3-.8c.1-.3.1-.6.1-1c0-.3 0-.7-.1-1c-.1-.3-.2-.5-.3-.7c-.2-.2-.3-.4-.5-.5c-.2-.1-.4-.2-.6-.2zm13.8.9v.7h-6.2v-2.8h6.1v.7h-5.3v1.4h5.4zm-7.3 1.5h8.3v.6h-8.3v-.6zm1.8 3.6v.9h5.7v.7h-6.5v-2.2h5.4v-.9h-5.4v-.7h6.2v2.2H237zm14.3-7.5h.8v9.2h-.8V56zm-1.8 3.6v-3.4h.8v8.5h-.8v-4.4s-1.12-.02-1.1 0c0 .4-.1.8-.2 1.2c-.1.3-.2.7-.4.9c-.2.3-.4.4-.6.6c-.2.1-.5.2-.8.2c-.3 0-.5-.1-.8-.2c-.2-.2-.4-.4-.6-.7c-.2-.3-.3-.6-.4-1c-.1-.4-.1-.8-.1-1.3c0-.5 0-1 .1-1.3c.1-.4.2-.8.4-1c.2-.3.4-.5.6-.7c.3-.1.5-.2.8-.2c.3 0 .6.1.8.2c.2.1.4.3.6.6c.1.2.3.5.4.8c.1.4.2.8.2 1.2h1.1zm-3.1 2.8c.4 0 .7-.2.9-.6c.2-.5.3-1.1.3-1.8c0-.4 0-.7-.1-1c0-.3-.1-.6-.2-.8c-.1-.2-.2-.3-.4-.5c-.1-.1-.3-.1-.5-.1c-.3 0-.6.2-.8.6c-.2.5-.4 1-.4 1.8c0 .7.2 1.3.4 1.8c.2.4.5.6.8.6zm14.1-6.4h.8v9.2h-.8V56zm-1.9 3.8v-3.5h.8v8.4h-.8v-4.2s-1.86-.04-1.9 0c-.2.5-.6 1-1 1.4c-.5.5-1 .9-1.6 1.3l-.5-.6c1-.6 1.7-1.3 2.2-2.1c.5-.8.8-1.6.9-2.6h-2.8v-.7h3.6c0 .5-.1.9-.1 1.3c-.1.5-.2.9-.4 1.3c.04-.02 1.6 0 1.6 0zm13.4-3.3v3.2h-6.1v-3.2h6.1zm-.8 2.5v-1.9h-4.5v1.9h4.5zm-6.4 1.7h8.3v.7h-3.7v1.8h-.8v-1.8h-3.8v-.7zm1.9 1.7v1.9h5.5v.7h-6.3v-2.6h.8zm15.8-2.5v.7H281v4.6h-.8V56h.8v3.9h1.5zm-3-2.7v.6H274v-.6h2.4v-1.1h.8v1.1h2.3zm-2.3 4.5v1c.4 0 .8-.1 1.2-.1c.5 0 .9-.1 1.3-.1v.6c-.5.1-1 .1-1.5.2c-.5 0-1 .1-1.5.1c-.5 0-.9 0-1.4.1H274l-.1-.7c.4 0 .7 0 1.2-.1h1.3v-1c-.6 0-1-.2-1.3-.5c-.3-.3-.5-.7-.5-1.2c0-.2.1-.4.2-.6c.1-.3.2-.4.4-.6c.2-.1.4-.2.7-.3c.3-.1.6-.1.9-.1c.3 0 .6 0 .9.1c.2.1.5.2.6.3c.2.2.4.3.5.6c.1.2.1.4.1.6c0 .5-.1.9-.4 1.2c-.3.3-.8.5-1.3.5zm-1.8-1.7c0 .4.1.6.4.8c.2.2.6.3 1 .3c.4 0 .7-.1 1-.3c.2-.2.4-.4.4-.8c0-.3-.2-.5-.4-.7c-.3-.2-.6-.3-1-.3c-.4 0-.8.1-1 .3c-.3.2-.4.4-.4.7zm14.7-4h.8v9.2h-.8V56zm-1.7 2.3v-2.1h.7v8.5h-.7v-3s-1.47.03-1.5 0c-.1.5-.4.9-.6 1.1c-.3.3-.7.4-1.1.4c-.3 0-.5-.1-.8-.2c-.2-.2-.4-.4-.6-.7c-.2-.3-.3-.6-.4-1c-.1-.4-.1-.8-.1-1.3c0-.5 0-.9.1-1.3c.1-.4.2-.8.4-1c.2-.3.4-.5.6-.7c.3-.1.5-.2.8-.2c.4 0 .8.1 1.1.4c.3.2.5.6.6 1.1c.03-.05 1.5 0 1.5 0zm-3.2 4.1c.4 0 .7-.2.9-.6c.2-.5.3-1.1.3-1.8c0-.8-.1-1.3-.3-1.8c-.2-.4-.5-.6-.9-.6c-.3 0-.6.2-.8.6c-.3.5-.4 1-.4 1.8c0 .7.1 1.3.4 1.8c.2.4.5.6.8.6zm1.9-1.4c.01.04 1.3 0 1.3 0v-2.1s-1.29.04-1.3 0c0 .2.1.4.1.5v1.1c0 .2-.1.4-.1.5zm13.1-2.4l-.3.7l-1.1-.3c-.3-.1-.6-.2-.9-.4c-.3-.1-.6-.3-.8-.5c-.3-.2-.5-.4-.6-.7c-.2.3-.3.5-.6.7c-.2.2-.5.4-.8.5c-.3.2-.6.3-1 .4l-1 .3l-.3-.7c.4 0 .8-.1 1.2-.2c.4-.2.7-.3 1.1-.5c.3-.2.5-.4.7-.7c.2-.2.3-.5.3-.8c-.04.03 0-.3 0-.3h.8s.02.33 0 .3c0 .3.1.6.3.8c.2.3.4.5.7.7c.3.2.7.3 1.1.5c.4.1.8.2 1.2.2zm.4 1.9h-3.7v.9h2.7v2.1h-5.4v.9h5.6v.7h-6.4v-2.2h5.3v-.8h-5.4v-.7h2.8v-.9h-3.8v-.6h8.3v.6zm7.6-4.5h.8v9.2h-.8V56zm-3.7.7c.4 0 .7.1 1 .2c.3.1.5.2.8.4c.2.2.3.4.5.7c.1.3.1.5.1.9c0 .3 0 .6-.1.8c-.2.3-.3.5-.5.7c-.3.2-.5.4-.8.5c-.3.1-.6.1-1 .1c-.4 0-.7 0-1-.1c-.3-.1-.5-.3-.8-.5c-.2-.2-.3-.4-.5-.7c-.1-.2-.1-.5-.1-.8c0-.4 0-.6.1-.9c.2-.3.3-.5.5-.7c.3-.2.5-.3.8-.4c.3-.1.6-.2 1-.2zm0 .7c-.2 0-.5.1-.7.1c-.2.1-.3.2-.5.3c-.1.2-.2.3-.3.5c-.1.2-.1.3-.1.6c0 .2 0 .4.1.5c.1.2.2.4.3.5c.2.1.3.2.5.3c.2.1.5.1.7.1c.2 0 .5 0 .7-.1c.2-.1.3-.2.5-.3c.1-.1.2-.3.3-.5c.1-.1.1-.3.1-.5c0-.3 0-.4-.1-.6c-.1-.2-.2-.3-.3-.5c-.2-.1-.3-.2-.5-.3c-.2 0-.5-.1-.7-.1zm-2.8 5.8l-.1-.7h1.3c.5 0 1 0 1.5-.1h1.6c.5-.1 1-.1 1.5-.2l.1.6c-.5.1-1 .2-1.5.2c-.6.1-1.1.1-1.6.1c-.5.1-1 .1-1.5.1h-1.3zm11.8-3.7l-.3-.7c.4 0 .8-.1 1.2-.2c.4-.1.7-.2 1-.4c.3-.1.5-.3.7-.5c.2-.2.3-.4.3-.6c.03-.05-2.9 0-2.9 0v-.7h6.8v.7s-2.88-.05-2.9 0c0 .2.1.4.3.6c.2.2.5.4.7.5c.3.2.7.3 1 .4c.4.1.8.2 1.2.2l-.2.7c-.4-.1-.8-.1-1.1-.2c-.4-.1-.7-.2-1-.4c-.3-.1-.6-.3-.8-.4c-.2-.2-.4-.4-.6-.7c-.1.3-.3.5-.5.7c-.3.1-.5.3-.8.4c-.3.2-.6.3-1 .4c-.4.1-.7.1-1.1.2zm-.7.4h8.3v.7h-8.3v-.7zm1.8 3.6v.9h5.7v.7h-6.5v-2.2h5.4v-.8h-5.4v-.7h6.2v2.1h-5.4zm14.1-7.4h.8v9.1h-.8v-4.8h-2.2v-.7h2.2v-3.6zm-6.3.9s4.14.03 4.1 0c0 .7 0 1.3-.2 1.9c-.1.6-.4 1.2-.7 1.8c-.3.5-.7 1-1.3 1.5c-.5.4-1.1.9-1.9 1.2l-.4-.6c1.2-.6 2.1-1.3 2.7-2.2c.6-.9.9-1.8 1-2.9h-3.3v-.7zm12.9 2.6c-.5 0-1 0-1.3-.1c-.4 0-.8-.2-1.1-.3c-.2-.1-.5-.3-.6-.5c-.2-.2-.2-.5-.2-.8c0-.2 0-.5.2-.7c.1-.2.4-.4.6-.5c.3-.2.7-.3 1.1-.4c.3 0 .8-.1 1.3-.1c.5 0 .9.1 1.3.1c.4.1.8.2 1 .4c.3.1.5.3.7.5c.1.2.2.5.2.7c0 .3-.1.6-.2.8c-.2.2-.4.4-.7.5c-.2.1-.6.3-1 .3c-.4.1-.8.1-1.3.1zm0-2.7c-.7 0-1.3.1-1.7.2c-.5.2-.7.5-.7.8c0 .4.2.6.7.8c.4.2 1 .3 1.7.3c.7 0 1.3-.1 1.7-.3c.4-.2.6-.4.6-.8c0-.3-.2-.6-.6-.8c-.4-.1-1-.2-1.7-.2zm4.1 4.1h-3.7v1.1h2.7v3h-6.2v-3h2.7V61h-3.7v-.7h8.2v.7zm-1.8 3.4v-1.7H333v1.7h4.6zm6.9-5c-1 0-1.8-.2-2.4-.4c-.6-.3-.9-.7-.9-1.2c0-.5.3-.9.9-1.2c.6-.3 1.4-.4 2.4-.4c1 0 1.8.1 2.3.4c.6.3.9.7.9 1.2c0 .5-.3.9-.9 1.2c-.5.2-1.3.4-2.3.4zm0-2.6c-.8 0-1.4.1-1.8.3c-.4.1-.6.4-.6.7c0 .3.2.5.6.7c.4.2 1 .2 1.8.2c.7 0 1.3 0 1.7-.2c.4-.2.6-.4.6-.7c0-.3-.2-.6-.6-.7c-.4-.2-1-.3-1.7-.3zm-4.2 3.2h8.3v.7h-8.3v-.7zm1.9 3.5v.9h5.6v.7h-6.4v-2.2h5.3v-.8h-5.4v-.7h6.2v2.1h-5.3z" stroke="none" fill="#111111"/></g><g id="Polygon124012"><path d="m4.7 37.8c.5 0 .9 0 1.3.1c.4.1.7.2 1 .3c.3.2.5.4.7.6c.1.2.2.4.2.7c0 .3-.1.5-.2.7c-.2.3-.4.4-.7.6c-.3.1-.6.3-1 .3c-.4.1-.8.2-1.3.2c-.5 0-1-.1-1.4-.2c-.4 0-.7-.2-1-.3c-.3-.2-.5-.3-.6-.6c-.2-.2-.2-.4-.2-.7c0-.3 0-.5.2-.7c.1-.2.3-.4.6-.6c.3-.1.6-.2 1-.3c.4-.1.9-.1 1.4-.1zm0 .6c-.8 0-1.3.1-1.8.3c-.4.2-.6.5-.6.8c0 .4.2.6.6.8c.5.2 1 .3 1.8.3c.7 0 1.3-.1 1.7-.3c.4-.2.6-.4.6-.8c0-.3-.2-.6-.6-.8c-.4-.2-1-.3-1.7-.3zM.5 42h8.3v.7H.5v-.7zm4.2 1.4c1 0 1.7.2 2.3.4c.5.3.8.7.8 1.3c0 .5-.3.9-.8 1.2c-.6.3-1.3.4-2.3.4c-1 0-1.8-.2-2.3-.4c-.6-.3-.9-.7-.9-1.2c0-.6.3-1 .9-1.3c.5-.2 1.3-.4 2.3-.4zm0 .7c-.7 0-1.3.1-1.7.2c-.4.2-.6.4-.6.8c0 .3.2.5.6.7c.4.2 1 .2 1.7.2c.7 0 1.3 0 1.7-.2c.4-.2.6-.4.6-.7c0-.4-.2-.6-.6-.8c-.4-.1-1-.2-1.7-.2zm9.8-1.2h1.9v-5.4h.8v7h-.8v-.9h-1.9v-.7zm-1.9-1.8c-.3 0-.6 0-.9-.1c-.2-.1-.5-.2-.7-.3c-.2-.2-.3-.3-.4-.5c-.2-.2-.2-.5-.2-.7c0-.2 0-.5.2-.7c.1-.2.2-.3.4-.5c.2-.1.5-.2.7-.3c.3-.1.6-.1.9-.1c.4 0 .7 0 1 .1c.2.1.5.2.7.3c.2.2.3.3.4.5c.1.2.2.5.2.7c0 .2-.1.5-.2.7c-.1.2-.2.3-.4.5c-.2.1-.5.2-.7.3c-.3.1-.6.1-1 .1zm0-2.6c-.4 0-.7.1-1 .3c-.3.2-.4.4-.4.7c0 .3.1.5.4.7c.3.2.6.3 1 .3c.5 0 .8-.1 1.1-.3c.3-.2.4-.4.4-.7c0-.3-.1-.5-.4-.7c-.3-.2-.6-.3-1.1-.3zm-.3 5.7s.02-1.78 0-1.8c-.4 0-.9.1-1.3.1H9.8l-.1-.7h1.3c.5 0 1 0 1.5-.1h1.6c.5-.1 1-.1 1.5-.2v.6c-.4.1-.8.1-1.2.2c-.4 0-.8 0-1.2.1c-.04-.02 0 1.8 0 1.8h-.9zm-.5 1.6h5.6v.7H11v-2.7h.8v2zm15.6-4.5v.7h-1.5v4.7h-.8v-9.1h.8v3.7h1.5zM22 37.7v1.3h2.2v.7h-5.4v-.7h2.4v-1.3h.8zm-.4 2.7c.3 0 .6.1.9.2c.3.1.5.2.7.4c.2.2.3.4.5.7c.1.3.1.5.1.8c0 .4 0 .6-.1.9c-.2.3-.3.5-.5.7c-.2.2-.4.3-.7.4c-.3.1-.6.1-.9.1c-.3 0-.6 0-.9-.1c-.3-.1-.5-.2-.7-.4c-.2-.2-.4-.4-.5-.7c-.1-.3-.1-.5-.1-.9c0-.3 0-.5.1-.8c.1-.3.3-.5.5-.7c.2-.2.4-.3.7-.4c.3-.1.6-.2.9-.2zm0 3.6c.2 0 .4-.1.6-.2c.1 0 .3-.1.4-.2c.1-.2.2-.3.3-.5c.1-.2.1-.3.1-.6c0-.2 0-.3-.1-.5c-.1-.2-.2-.3-.3-.5c-.1-.1-.3-.2-.4-.3c-.2 0-.4-.1-.6-.1c-.2 0-.4.1-.6.1c-.2.1-.3.2-.4.3c-.2.2-.3.3-.3.5c-.1.2-.1.3-.1.5c0 .3 0 .4.1.6c0 .2.1.3.3.5c.1.1.2.2.4.2c.2.1.4.2.6.2zm12.9-4.6c.04-.03 0-.3 0-.3H29v-.6h6.4s-.03.87 0 .9v.8c0 .4 0 .7-.1 1c0 .4 0 .7-.1 1.1c0 .4-.1.8-.2 1.3l-.8-.1c.2-.9.3-1.6.3-2.3v-1.8zm-2.4 5.3h4.3v.7h-8.3v-.7h3.2v-3.3h.8v3.3zm13.7-3.5v.7h-1.5v4.8h-.8v-9.1h.8v3.6h1.5zm-5.5-2s.04 1.14 0 1.1c0 .4.1.8.2 1.1c.1.4.3.8.5 1.1c.2.3.5.6.8.9c.3.3.6.5.9.6l-.5.7c-.5-.2-.9-.6-1.3-1.1c-.5-.5-.8-1.1-1-1.7c-.1.3-.2.7-.4 1c-.1.3-.3.6-.5.8c-.2.3-.4.5-.7.7c-.2.2-.4.4-.7.5l-.5-.6c.3-.2.6-.4.9-.7c.3-.3.6-.6.8-1c.2-.3.4-.7.5-1.1c.1-.4.2-.8.2-1.2c.01.04 0-1.1 0-1.1h-2.1v-.7h5v.7h-2.1zm12.8 3.2h3.7v.7h-8.3v-.7h3.7s.04-.95 0-1c-.4 0-.8 0-1.1-.1c-.4-.1-.7-.2-.9-.4c-.3-.1-.4-.3-.6-.5c-.1-.3-.2-.5-.2-.8c0-.2.1-.5.3-.7c.1-.2.3-.4.6-.6c.3-.2.6-.3 1-.4c.4 0 .9-.1 1.4-.1c.5 0 .9.1 1.3.1c.4.1.7.2 1 .4c.3.2.5.4.6.6c.2.2.3.5.3.7c0 .3-.1.5-.2.8c-.2.2-.3.4-.6.5c-.2.2-.5.3-.9.4c-.3.1-.7.1-1.1.1c-.02.05 0 1 0 1zm-2.8-2.8c0 .4.2.7.6.9c.4.2 1 .3 1.8.3c.7 0 1.2-.1 1.7-.3c.4-.2.6-.5.6-.9c0-.3-.2-.6-.6-.8c-.5-.2-1-.3-1.7-.3c-.8 0-1.4.1-1.8.3c-.4.2-.6.5-.6.8zm.1 4.2v2h5.5v.7h-6.3v-2.7h.8zm15.8-2.6v.7h-1.5v4.8h-.8v-9.2h.8v3.7h1.5zm-7.3.5v2.1h1.2c.3 0 .7 0 1-.1c.3 0 .7 0 1-.1c.3 0 .7-.1 1-.1l.1.7c-.4 0-.7.1-1.1.1c-.3.1-.6.1-1 .1c-.3 0-.7.1-1.1.1h-1.9V41h3.3v-1.9H58v-.7h4.2v3.3h-3.3zm15.5-4.1v6.6h-.8v-6.6h.8zm-2.5 2.8c0 .4-.1.7-.2.9c-.1.3-.3.6-.5.8c-.2.2-.5.3-.8.4c-.3.1-.6.2-.9.2c-.4 0-.7-.1-1-.2c-.3-.1-.5-.2-.7-.4c-.2-.2-.4-.5-.5-.8c-.1-.2-.2-.5-.2-.9c0-.3.1-.6.2-.9c.1-.3.3-.5.5-.7c.2-.2.4-.3.7-.5c.3-.1.6-.1 1-.1c.3 0 .6 0 .9.1c.3.2.6.3.8.5c.2.2.4.4.5.7c.1.3.2.6.2.9zm-4 0c0 .3.1.5.1.6c.1.2.2.4.4.5c.1.2.3.3.4.4c.2 0 .4.1.7.1c.2 0 .4-.1.6-.1c.2-.1.4-.2.5-.4c.1-.1.3-.3.3-.5c.1-.1.2-.3.2-.6c0-.2-.1-.4-.2-.6c0-.2-.2-.3-.3-.5c-.1-.1-.3-.2-.5-.3c-.2-.1-.4-.1-.6-.1c-.3 0-.5 0-.7.1c-.1.1-.3.2-.4.3c-.2.2-.3.3-.4.5c0 .2-.1.4-.1.6zm1.4 5.4h5.4v.7h-6.2v-3h.8v2.3zm9.6-6s5.66-.15 5.7-.1v-.3c-.03.02 0-.7 0-.7h-5.5v-.7h6.3v2.1c-.1.5-.1 1.1-.3 1.7l-.8-.1c.1-.2.1-.5.1-.7c.1-.3.1-.5.1-.7c.02-.02-5.5.2-5.5.2l-.1-.7zm3.4 2.6h4.1v.7h-8.2v-.7h3.3v-1.3h.8v1.3zM80 43.9v2h5.6v.6h-6.4v-2.6h.8zm14-6.4h.9v9.2h-.9v-5.4h-2.1v-.7h2.1v-3.1zm-3.5.8s.02 1.67 0 1.7c0 .4.1.8.2 1.2c.1.4.3.8.5 1.1c.2.4.5.7.8 1c.2.3.6.5.9.6l-.5.7c-.5-.3-1-.7-1.4-1.2c-.4-.5-.7-1.1-.9-1.7c-.2.7-.5 1.3-.9 1.8c-.4.6-.9 1-1.4 1.3l-.5-.7c.4-.2.7-.4 1-.7c.2-.3.5-.6.7-1c.2-.4.4-.7.5-1.2c.1-.4.2-.8.2-1.2c-.01-.03 0-1.7 0-1.7h.8zm13.3 4.2v.7h-6.2v-4.9h6.2v.7h-5.4v1.4h5.2v.6h-5.2v1.5h5.4zm-7.3 2.3h8.3v.7h-8.3v-.7zm15.6-5.7v-.7h-5.4v-.6h6.2v1.9h-5.3v.8h5.5v.6h-6.4v-2h5.4zm-6.4 2.7h8.3v.6h-8.3v-.6zm1.8 3.3v.9h5.7v.6h-6.5v-2.1h5.4v-.7h-5.4v-.6h6.2v1.9h-5.4zm18-3.9v.7H124v4.8h-.9v-9.1h.9v3.6h1.5zm-8.2 3.2v-5.9h4.2v5.9h-4.2zm.8-5.3v4.6h2.6v-4.6h-2.6zm14.7 5.2v-2.5H131v-.7h1.8v-1.3H131v-.7h1.8v-1.5h.9v6.7h-.9zm-1.8-2.2v.7c-.2.1-.5.1-.8.1c-.3.1-.6.1-.9.1h-2.1c-.04.05-.7 0-.7 0v-2.8h3.1v-1.3h-3.1v-.7h3.9v2.7h-3.1s.03 1.47 0 1.5h1.1c.4-.1.7-.1.9-.1c.3 0 .6 0 .9-.1c.2 0 .5 0 .8-.1zm-2.4 3.7h5.3v.6h-6.2v-2.6h.9v2zm13.6-8.3h.9v9.2h-.9v-4.6h-1.1v4.1h-.8v-8.5h.8v3.7h1.1v-3.9zm-4.2.3v1.3h1.8v.7h-4.5v-.7h1.8v-1.3h.9zm-.4 2.6c.3 0 .5 0 .8.1c.2.2.4.3.6.5c.1.2.3.4.4.6c.1.3.1.6.1.9c0 .3 0 .6-.1.8c-.1.3-.3.5-.4.7c-.2.2-.4.3-.6.4c-.3.1-.5.2-.8.2c-.3 0-.6-.1-.8-.2c-.3-.1-.5-.2-.6-.4c-.2-.2-.3-.4-.4-.7c-.1-.2-.2-.5-.2-.8c0-.3.1-.6.2-.9c.1-.2.2-.4.4-.6c.1-.2.3-.3.6-.5c.2-.1.5-.1.8-.1zm0 3.5c.3 0 .6-.2.8-.4c.3-.3.4-.6.4-1c0-.2 0-.4-.1-.6c-.1-.1-.2-.3-.3-.4l-.3-.3c-.2-.1-.4-.1-.5-.1c-.4 0-.7.1-.9.4c-.2.2-.3.6-.3 1c0 .4.1.7.3 1c.2.2.5.4.9.4zm14.4-5.7v.6h-5.3v-.6h2.3v-.8h.8v.8h2.2zm1.7 1.7h1.3v.7h-1.3v2.3h-.9v-5.4h.9v2.4zm-1.4 1.9v.6c-.5.1-1 .1-1.5.2c-.5 0-1 .1-1.5.1h-2.7l-.1-.6h2.5v-.6c-.6 0-1-.1-1.3-.3c-.3-.3-.5-.5-.5-.9c0-.4.2-.7.6-.9c.4-.2.9-.3 1.6-.3c.6 0 1.2.1 1.5.3c.4.2.6.5.6.9c0 .4-.1.6-.4.8c-.4.2-.8.4-1.3.4v.5h1.3c.4-.1.8-.1 1.2-.2zm-4.3-1.5c0 .2.2.4.4.5c.2.1.6.2 1 .2c.4 0 .7-.1 1-.2c.2-.1.3-.3.3-.5c0-.2-.1-.3-.3-.5c-.3-.1-.6-.1-1-.1c-.4 0-.8 0-1 .1c-.2.2-.4.3-.4.5zm.6 4.9v.8h5.4v.6h-6.2v-2h5v-.7h-5.1v-.6h6v1.9h-5.1zm14.2-5.7h1.4v.7h-1.4v2.1h-.8v-4.7h.8v1.9zm-2.4-1.6v4h-4.3v-4h.8v1.3h2.6v-1.3h.9zm-.9 3.3v-1.3h-2.6v1.3h2.6zm-1.6 3.7v1h5.3v.7h-6.1v-2.3h4.9v-.9h-5v-.7h5.8v2.2h-4.9zm12.4-6.2v.6H165v-.6h2.2v-1.1h.9v1.1h2.2zm1.7 1.9h1.4v.7H172v3.1h-.8v-6.8h.8v3zm-2.2.9c0 .3 0 .5-.1.7c-.1.3-.3.4-.5.6c-.2.1-.4.2-.7.3c-.2.1-.5.1-.9.1c-.3 0-.6 0-.8-.1c-.3-.1-.5-.2-.7-.3c-.2-.2-.4-.3-.5-.6c-.1-.2-.1-.4-.1-.7c0-.2 0-.5.1-.7c.1-.2.3-.3.5-.5c.2-.1.4-.3.7-.3c.2-.1.5-.2.8-.2c.4 0 .7.1.9.2c.3 0 .5.2.7.3c.2.2.4.3.5.5c.1.2.1.5.1.7zm-3.5 0c0 .4.1.6.3.8c.3.2.6.3 1 .3c.5 0 .8-.1 1.1-.3c.2-.2.3-.4.3-.8c0-.3-.1-.5-.3-.7c-.3-.2-.6-.3-1.1-.3c-.4 0-.7.1-1 .3c-.2.2-.3.4-.3.7zm.9 2.4v1.9h5.2v.7h-6.1v-2.6h.9zm16.9-1.9l-.4.7l-1-.3c-.4-.2-.7-.4-1-.6c-.3-.2-.6-.5-.8-.7c-.3-.3-.5-.6-.6-.9l-.6.9c-.2.2-.5.5-.8.7c-.3.2-.6.4-1 .6l-1 .3l-.4-.7c.4-.1.8-.2 1.2-.4c.4-.2.8-.4 1.1-.7c.3-.3.6-.6.8-.9c.2-.4.3-.8.3-1.1c-.04-.04 0-.7 0-.7h.8s.03.66 0 .7c0 .3.1.7.3 1.1c.2.3.5.6.8.9c.3.3.7.5 1.1.7c.4.2.8.3 1.2.4zm-3.4 2.8h3.8v.7h-8.3v-.7h3.7v-2.2h.8v2.2zm9.2-2.4h3.7v.7h-8.2v-.7h3.7v-.9h-2.7v-3.7h6.2v.7h-5.3v.8h5.1v.6h-5.1v.9h5.4v.7h-2.8v.9zm-.4 1.4c1 0 1.8.1 2.3.3c.6.3.8.6.8 1.1c0 .5-.2.9-.8 1.1c-.5.3-1.3.4-2.3.4c-1 0-1.8-.1-2.3-.4c-.6-.2-.8-.6-.8-1.1c0-.5.2-.8.8-1.1c.5-.2 1.3-.3 2.3-.3zm0 2.2c.7 0 1.3 0 1.7-.2c.4-.1.6-.3.6-.6c0-.3-.2-.5-.6-.6c-.4-.2-1-.2-1.7-.2c-.7 0-1.3 0-1.7.2c-.4.1-.6.3-.6.6c0 .3.2.5.6.6c.4.2 1 .2 1.7.2zm9.2-5.1c-1 0-1.8-.2-2.4-.4c-.6-.3-.8-.7-.8-1.2c0-.5.2-.9.8-1.2c.6-.3 1.4-.4 2.4-.4c1 0 1.8.1 2.3.4c.6.3.9.7.9 1.2c0 .5-.3.9-.9 1.2c-.5.2-1.3.4-2.3.4zm0-2.6c-.8 0-1.4.1-1.8.3c-.4.1-.6.4-.6.7c0 .3.2.5.6.7c.4.2 1 .2 1.8.2c.7 0 1.3 0 1.7-.2c.4-.2.6-.4.6-.7c0-.3-.2-.6-.6-.7c-.4-.2-1-.3-1.7-.3zm-4.2 3.2h8.3v.7h-8.3v-.7zm1.9 3.5v.9h5.6v.7h-6.4v-2.2h5.3v-.8h-5.4v-.7h6.3v2.1h-5.4zm16.1-7.5h.8v9.2h-.8v-9.2zm-4 .7c.3 0 .6.1.9.3c.3.1.5.3.7.6c.2.3.4.6.5 1c.1.4.2.8.2 1.3c0 .5-.1 1-.2 1.4c-.1.3-.3.7-.5 1c-.2.2-.4.5-.7.6c-.3.2-.6.2-.9.2c-.4 0-.7 0-1-.2c-.3-.1-.5-.4-.7-.6c-.2-.3-.4-.7-.5-1c-.1-.4-.2-.9-.2-1.4c0-.5.1-.9.2-1.3c.1-.4.3-.7.5-1c.2-.3.4-.5.7-.6c.3-.2.6-.3 1-.3zm0 .8c-.3 0-.5.1-.7.2c-.1.1-.3.3-.4.5c-.2.2-.3.4-.4.7c0 .3-.1.7-.1 1c0 .4.1.7.1 1c.1.3.2.6.4.8c.1.2.3.4.4.5c.2.1.4.2.7.2c.2 0 .4-.1.6-.2c.2-.1.3-.3.5-.5c.1-.2.2-.5.3-.8c0-.3.1-.6.1-1c0-.3-.1-.7-.1-1c-.1-.3-.2-.5-.3-.7c-.2-.2-.3-.4-.5-.5c-.2-.1-.4-.2-.6-.2zm13.2-1.5h.8v9.2h-.8v-5h-2c0 .5-.1.9-.2 1.2c-.1.4-.3.7-.5.9c-.2.3-.4.5-.7.6c-.3.2-.5.2-.9.2c-.3 0-.6 0-.9-.2c-.3-.1-.5-.4-.7-.6c-.2-.3-.4-.7-.5-1c-.1-.4-.2-.9-.2-1.4c0-.5.1-.9.2-1.3c.1-.4.3-.7.5-1c.2-.3.4-.5.7-.6c.3-.2.6-.3.9-.3c.3 0 .6.1.9.2c.2.2.5.4.7.6c.2.2.3.5.5.9c.1.3.2.7.2 1.1c0 .03 2 0 2 0v-3.5zm-4.3 6.4c.3 0 .4-.1.6-.2c.2-.1.4-.3.5-.5c.1-.2.2-.5.3-.8c.1-.3.1-.6.1-1c0-.3 0-.7-.1-1c-.1-.3-.2-.5-.3-.7c-.1-.2-.3-.4-.5-.5c-.2-.1-.3-.2-.6-.2c-.2 0-.4.1-.6.2c-.2.1-.3.3-.4.5c-.2.2-.3.4-.3.7c-.1.3-.2.7-.2 1c0 .4.1.7.2 1c0 .3.1.6.3.8c.1.2.2.4.4.5c.2.1.4.2.6.2zm13.9-4.1h1.3v.7h-1.3v2.2h-.9v-5.2h.9v2.3zm-6.7-1.7s4.2.02 4.2 0c0 .6-.1 1.1-.3 1.6c-.2.5-.5 1-.8 1.4c-.4.4-.9.7-1.4 1c-.5.3-1.1.6-1.8.8l-.3-.7c1.1-.3 2-.8 2.6-1.4c.6-.5 1-1.2 1.1-2c-.01.01-3.3 0-3.3 0v-.7zm5.9 4.9s.05.67 0 .7c0 .2.1.4.2.7l.3.6l.6.6c.2.2.5.3.8.4l-.4.6c-.5-.2-.9-.4-1.2-.7c-.3-.3-.5-.7-.7-1.1c-.1.4-.3.8-.6 1.1c-.3.3-.6.6-1 .8c-.5-.2-.9-.4-1.1-.8c-.3-.3-.5-.6-.6-1c-.2.4-.4.7-.7 1c-.3.3-.7.5-1.1.7l-.5-.6c.3-.1.6-.3.8-.4l.6-.6c.1-.2.3-.4.4-.6c0-.3.1-.5.1-.7c-.02-.03 0-.7 0-.7h.8s-.02.67 0 .7c0 .4.1.8.3 1.2c.2.4.5.7.9 1c.3-.2.5-.3.6-.5c.2-.2.3-.4.4-.6l.3-.6v-.5c.03-.03 0-.7 0-.7h.8zm11.4-1.8v.6h-1.5v4.9h-.9v-9.2h.9v3.7h1.5zm-7.3-2.1s-.03 4.61 0 4.6h2.1c.4-.1.7-.1 1-.1c.3-.1.7-.1 1-.2l.1.7c-.4.1-.7.1-1 .2c-.4 0-.7 0-1.1.1h-2.2c-.04.03-.8 0-.8 0v-6h4.3v.7h-3.4zm7.8 7v-1h.9v1h-.9z" stroke="none" fill="#111111"/></g><g id="Polygon124011"><path d="m1.3 22.8l-.3-.7c.4 0 .8-.1 1.2-.2c.3-.1.7-.3 1-.5c.2-.1.5-.3.6-.6c.2-.2.3-.4.3-.7c.04.03-2.8 0-2.8 0v-.6h6.8v.6s-2.88.03-2.9 0c0 .3.1.5.3.7c.2.3.4.5.7.6c.3.2.6.4 1 .5c.4.1.8.2 1.2.2l-.3.7c-.4-.1-.8-.2-1.1-.3c-.4-.1-.7-.2-1-.3c-.3-.2-.6-.4-.8-.6c-.2-.2-.4-.4-.5-.7c-.1.3-.3.5-.5.7c-.3.2-.5.4-.8.6c-.3.1-.6.2-1 .3l-1.1.3zM8.8 24H5.1v1c.9 0 1.5.2 2 .4c.5.3.7.7.7 1.2c0 .5-.3.9-.8 1.2c-.6.2-1.3.4-2.3.4c-1 0-1.8-.2-2.3-.4c-.6-.3-.9-.7-.9-1.2c0-.5.3-.9.7-1.2c.5-.2 1.2-.4 2.1-.4c-.05-.02 0-1 0-1H.5v-.7h8.3v.7zM7 26.6c0-.3-.2-.6-.6-.7c-.4-.2-1-.3-1.7-.3c-.7 0-1.3.1-1.7.3c-.4.1-.6.4-.6.7c0 .3.2.5.6.7c.4.2 1 .2 1.7.2c.7 0 1.3 0 1.7-.2c.4-.2.6-.4.6-.7zm9.2-5.7c-.02-.03 0-.3 0-.3h-5.6v-.6h6.4s.01.87 0 .9v1.8c0 .4-.1.7-.1 1.1c-.1.4-.1.8-.2 1.3l-.9-.1c.2-.9.3-1.6.3-2.3c.1-.7.1-1.3.1-1.8zm-2.4 5.3h4.2v.7H9.7v-.7h3.2v-3.3h.9v3.3zm10.9-4v2.2h-.8v-5.2h.8v2.3h1.1v-2.4h.8v5.6h-.8v-2.5h-1.1zm-1.2 1.1l-.5.7c-.4-.2-.8-.4-1.1-.8c-.3-.3-.5-.6-.7-1c-.1.4-.4.8-.7 1.2c-.3.4-.7.6-1.1.8l-.5-.6c.3-.1.6-.3.8-.5c.2-.2.4-.5.6-.7c.2-.2.3-.5.4-.8c.1-.2.1-.5.1-.8c.02.05 0-1.2 0-1.2h.8s.02 1.25 0 1.2c0 .3.1.5.2.8c0 .2.2.5.3.7l.6.6c.2.2.5.3.8.4zm.1 1.6c.5 0 .9 0 1.3.1c.4.1.7.2.9.3c.3.2.5.3.6.5c.2.2.3.5.3.7c0 .3-.1.5-.3.7c-.1.2-.3.4-.6.5c-.2.2-.5.3-.9.4c-.4 0-.8.1-1.3.1c-.5 0-.9-.1-1.3-.1c-.3-.1-.7-.2-.9-.4c-.3-.1-.5-.3-.6-.5c-.2-.2-.2-.4-.2-.7c0-.2 0-.5.2-.7c.1-.2.3-.3.6-.5c.2-.1.6-.2.9-.3c.4-.1.8-.1 1.3-.1zm0 2.6c.7 0 1.3 0 1.6-.2c.4-.2.6-.4.6-.8c0-.3-.2-.5-.6-.7c-.3-.2-.9-.3-1.6-.3c-.7 0-1.2.1-1.6.3c-.4.2-.6.4-.6.7c0 .4.2.6.6.8c.4.2.9.2 1.6.2zM35.1 19h.8v9.2h-.8V19zm-1.9 3.6v-3.4h.8v8.5h-.8v-4.4s-1.11-.02-1.1 0c0 .4-.1.8-.2 1.2c-.1.3-.2.7-.4.9c-.2.3-.4.4-.6.6c-.2.1-.5.2-.7.2c-.3 0-.6-.1-.9-.2c-.2-.2-.4-.4-.6-.7c-.1-.3-.3-.6-.4-1c-.1-.4-.1-.8-.1-1.3c0-.5 0-1 .1-1.3c.1-.4.3-.8.4-1c.2-.3.4-.5.6-.7c.3-.1.6-.2.9-.2c.2 0 .5.1.7.2c.2.1.4.3.6.6c.2.2.3.5.4.8c.1.4.2.8.2 1.2h1.1zm-3 2.8c.3 0 .6-.2.8-.6c.2-.5.3-1.1.3-1.8c0-.4 0-.7-.1-1c0-.3-.1-.6-.2-.8c-.1-.2-.2-.3-.4-.5c-.1-.1-.3-.1-.4-.1c-.4 0-.7.2-.9.6c-.2.5-.3 1-.3 1.8c0 .7.1 1.3.3 1.8c.2.4.5.6.9.6zm14-6.4h.8v9.2h-.8V19zm-1.9 3.8v-3.5h.8v8.4h-.8v-4.2s-1.85-.04-1.8 0c-.3.5-.7 1-1.1 1.4c-.5.5-1 .9-1.6 1.3l-.5-.6c1-.6 1.7-1.3 2.2-2.1c.5-.8.8-1.6.9-2.6h-2.7v-.7h3.5c0 .5 0 .9-.1 1.3c-.1.5-.2.9-.4 1.3c.05-.02 1.6 0 1.6 0zm14.5.5h-3.7v1.5h2.7v3.3h-6.2v-3.3h2.6v-1.5h-3.7v-.7s2.57.03 2.6 0c.1-.5.2-1 .3-1.4v-1c.05-.05-2.1 0-2.1 0v-.7h3s-.05.24 0 .2c0 .3-.1.7-.1 1.2c0 .4-.1 1-.3 1.7h2.8c.1-.5.2-1 .2-1.4c.1-.4.1-.8.1-1c.01-.05-2.1 0-2.1 0v-.7h2.9s.02.34 0 .3v1.2c0 .4-.1 1-.3 1.6c.04.03 1.3 0 1.3 0v.7zm-1.9 4.1v-1.9h-4.5v1.9h4.5zm11.3-4.5v.7h-1.5v4.6h-.8V19h.8v3.9h1.5zm-3.7 1.3l-.9-.1c.2-.8.2-1.4.3-2v-1.4c.01.02-3.8 0-3.8 0v-.7h4.6s.03.54 0 .5v1.5c0 .6-.1 1.3-.2 2.2zm-2.1-1.5s-.03 2.75 0 2.7h1.5c.5-.1 1-.1 1.4-.2l.1.6c-.5.1-1 .2-1.5.2c-.5.1-1 .1-1.5.1c-.5.1-.9.1-1.4.1h-1.3l-.1-.7h1.9c.05-.03 0-2.8 0-2.8h.9zM75.6 19h.8v9.2h-.8V19zm-6.1.8h.8v2.4h2.7v-2.4h.8v6.2h-4.3v-6.2zm.8 3.1v2.4h2.7v-2.4h-2.7zM83 21.6h1.8v-2.5h.9v6.7h-.9v-3.5H83v-.7zm.5 2.1l-.4.7c-.5-.2-.9-.5-1.3-.8c-.4-.4-.7-.8-.9-1.3c-.2.5-.5 1-.9 1.4c-.4.4-.9.7-1.4.9l-.4-.7c.3-.1.6-.3.9-.5c.3-.2.5-.4.7-.7c.2-.2.4-.5.5-.8c.1-.3.2-.6.2-1c-.02.03 0-.4 0-.4h-2.1v-.7h4.9v.7h-2v.4c0 .3.1.6.2.9c.1.3.2.5.4.8l.7.7c.3.2.6.3.9.4zm-2.8 3.6h5.2v.7h-6.1v-2.8h.9v2.1zm10.8-4.9c-1.1 0-1.8-.2-2.4-.4c-.6-.3-.9-.7-.9-1.2c0-.5.3-.9.9-1.2c.6-.3 1.3-.4 2.4-.4c1 0 1.7.1 2.3.4c.6.3.9.7.9 1.2c0 .5-.3.9-.9 1.2c-.6.2-1.3.4-2.3.4zm0-2.6c-.8 0-1.4.1-1.8.3c-.4.1-.6.4-.6.7c0 .3.2.5.6.7c.4.2 1 .2 1.8.2c.7 0 1.3 0 1.7-.2c.4-.2.6-.4.6-.7c0-.3-.2-.6-.6-.7c-.4-.2-1-.3-1.7-.3zM87.3 23h8.3v.7h-8.3v-.7zm1.9 3.5v.9h5.6v.7h-6.5v-2.2h5.4v-.8h-5.4v-.7h6.2v2.1h-5.3zm16.3-7.5h.9v9.2h-.9V19zm-1.8 3.3v-3.1h.8v8.5h-.8V23h-1.5v-.7h1.5zm-2.4-1.5s-.03.82 0 .8c0 .4 0 .8.1 1.2c.1.4.2.8.4 1.1c.1.3.3.7.6.9c.2.3.5.5.8.7l-.5.6c-.4-.2-.8-.6-1.1-1.1c-.3-.4-.6-.9-.7-1.5c-.2.6-.4 1.2-.8 1.7c-.3.5-.7.9-1.1 1.2l-.5-.7c.3-.2.6-.4.8-.7c.3-.3.5-.6.6-1c.2-.3.3-.7.4-1.1c.1-.4.2-.9.2-1.3c-.04.02 0-.8 0-.8h-1.8v-.7h4.2v.7h-1.6zm13.1-1.8h.8v9.2h-.8V19zm-3.4.8s.01 1.68 0 1.7c0 .4.1.8.2 1.2c.1.4.3.8.5 1.2c.2.3.5.6.8.9c.3.3.6.5 1 .6l-.5.7c-.6-.2-1-.6-1.5-1.1c-.4-.5-.7-1.1-.9-1.8c-.2.7-.5 1.3-.9 1.9c-.5.5-.9.9-1.5 1.2l-.5-.7c.4-.2.7-.4 1-.7c.3-.2.5-.6.8-.9c.2-.4.4-.8.5-1.2c.1-.5.2-.9.2-1.3c-.02-.02 0-1.7 0-1.7h.8zm14.5 3v.7H124v4.7h-.8v-9.1h.8v3.7h1.5zm-5.5-3.6v1.3h2.3v.7h-5.4v-.7h2.3v-1.3h.8zm-.4 2.7c.4 0 .7.1.9.2c.3.1.5.2.7.4c.2.2.4.4.5.7c.1.3.2.5.2.8c0 .4-.1.6-.2.9c-.1.3-.3.5-.5.7c-.2.2-.4.3-.7.4c-.2.1-.5.1-.9.1c-.3 0-.6 0-.9-.1c-.2-.1-.5-.2-.7-.4c-.2-.2-.3-.4-.4-.7c-.1-.3-.2-.5-.2-.9c0-.3.1-.5.2-.8c.1-.3.2-.5.4-.7c.2-.2.5-.3.7-.4c.3-.1.6-.2.9-.2zm0 3.6c.2 0 .4-.1.6-.2c.2 0 .3-.1.5-.2c.1-.2.2-.3.3-.5c0-.2.1-.3.1-.6c0-.2-.1-.3-.1-.5c-.1-.2-.2-.3-.3-.5c-.2-.1-.3-.2-.5-.3c-.2 0-.4-.1-.6-.1c-.2 0-.4.1-.5.1c-.2.1-.4.2-.5.3c-.1.2-.2.3-.3.5c-.1.2-.1.3-.1.5c0 .3 0 .4.1.6c.1.2.2.3.3.5c.1.1.3.2.5.2c.1.1.3.2.5.2zm13-4.6c-.02-.03 0-.3 0-.3H127v-.6h6.4s.02.87 0 .9v1.8c0 .4-.1.7-.1 1.1c-.1.4-.1.8-.2 1.3l-.9-.1c.2-.9.3-1.6.3-2.3c.1-.7.1-1.3.1-1.8zm-2.4 5.3h4.2v.7h-8.3v-.7h3.2v-3.3h.9v3.3zm14.7-7.1v5.2h-.8v-5.2h.8zm-4.9 4.7c-.4 0-.7 0-1-.1c-.3-.1-.5-.3-.7-.4c-.2-.2-.4-.5-.5-.7c-.1-.3-.2-.6-.2-.9c0-.3.1-.6.2-.9c.1-.2.3-.4.5-.6c.2-.2.4-.4.7-.5c.3-.1.6-.1 1-.1c.3 0 .6 0 .9.1c.3.1.6.3.8.5c.2.2.4.4.5.6c.1.3.2.6.2.9c0 .3-.1.6-.2.9c-.1.2-.3.5-.5.7c-.2.1-.5.3-.8.4c-.3.1-.6.1-.9.1zm0-3.5c-.3 0-.5 0-.7.1c-.1.1-.3.2-.4.3c-.2.1-.3.3-.4.4c0 .2-.1.4-.1.6c0 .2.1.4.1.6c.1.2.2.3.4.4c.1.2.3.3.4.3c.2.1.4.2.7.2c.2 0 .4-.1.6-.2c.2 0 .4-.1.5-.3c.1-.1.3-.2.3-.4c.1-.2.2-.4.2-.6c0-.2-.1-.4-.2-.6c0-.1-.2-.3-.3-.4c-.1-.1-.3-.2-.5-.3c-.2-.1-.4-.1-.6-.1zm3.9 4.4s-.03.46 0 .5c0 .2 0 .4.1.7l.3.6l.6.6c.3.1.5.2.8.3l-.4.7c-.5-.2-.8-.4-1.1-.7c-.4-.3-.6-.7-.7-1.1c-.2.4-.4.8-.7 1.1c-.3.3-.6.6-1 .7c-.5-.1-.9-.4-1.1-.7c-.3-.3-.5-.6-.6-1c-.2.3-.4.7-.7 1c-.4.3-.7.5-1.1.7l-.5-.7c.3-.1.6-.2.8-.4c.2-.1.4-.3.6-.5c.1-.2.3-.4.3-.7c.1-.2.2-.4.2-.6c-.03-.04 0-.5 0-.5h.8s-.03.46 0 .5c0 .4.1.8.3 1.2c.2.4.5.7.9.9c.3-.1.4-.3.6-.4c.2-.2.3-.4.4-.6l.3-.6c0-.2.1-.4.1-.5c-.05-.04 0-.5 0-.5h.8zm11.2-2v.6h-1.5v4.9h-.8V19h.8v3.7h1.5zm-7.3-2.1v4.6h2.2c.3-.1.6-.1.9-.1c.4-.1.7-.1 1-.2l.1.7c-.3.1-.7.1-1 .2c-.4 0-.7 0-1 .1h-2.3c-.02.03-.7 0-.7 0v-6h4.2v.7h-3.4zm7.8 7v-1h1v1h-1zm6.4-1h3v.8h-5v-.6s2.55-2.5 2.5-2.5l.6-.6c.2-.2.3-.4.4-.6c.1-.1.2-.3.3-.5c.1-.2.1-.4.1-.7c0-.4-.1-.7-.4-.9c-.3-.3-.6-.4-1-.4c-.2 0-.4.1-.6.1c-.1.1-.3.2-.4.3c-.2.2-.3.3-.4.5c0 .2-.1.4-.1.6l-.9-.2l.3-.9c.1-.2.3-.4.5-.6c.3-.2.5-.3.8-.4c.3-.1.6-.2.9-.2c.3 0 .6.1.9.2c.2.1.5.2.7.4c.2.2.4.4.5.6c.1.3.1.6.1.9c0 .3 0 .6-.1.8c-.1.2-.2.5-.3.7c-.2.2-.3.4-.5.6c-.2.2-.4.5-.6.7l-2.1 2c.1 0 .3 0 .4-.1h.4zm9.1-2.9c0 .7-.1 1.2-.2 1.7c-.2.5-.3.9-.6 1.2c-.2.4-.5.6-.9.7c-.3.2-.7.3-1 .3c-.4 0-.8-.1-1.1-.3c-.4-.1-.6-.3-.9-.7c-.2-.3-.4-.7-.6-1.2c-.1-.5-.2-1-.2-1.7c0-.7.1-1.2.2-1.7c.2-.5.4-.9.6-1.2c.3-.3.5-.6.9-.7c.3-.2.7-.3 1.1-.3c.3 0 .7.1 1 .3c.4.1.7.4.9.7c.3.3.4.7.6 1.2c.1.5.2 1 .2 1.7zm-.9 0c0-.6-.1-1.1-.2-1.5c-.1-.4-.2-.7-.4-.9c-.1-.3-.3-.4-.6-.5c-.2-.1-.4-.2-.6-.2c-.3 0-.5.1-.7.2c-.2.1-.4.2-.6.5c-.2.2-.3.5-.4.9c-.1.4-.1.9-.1 1.5c0 .6 0 1.1.1 1.5c.1.4.2.7.4.9c.2.3.4.5.6.6c.2.1.4.1.7.1c.2 0 .4 0 .6-.1c.3-.1.5-.3.6-.6c.2-.2.3-.5.4-.9c.1-.4.2-.9.2-1.5zm3.6 2.9h2.9v.8h-5v-.6l2.6-2.5c.2-.2.4-.4.5-.6c.2-.2.4-.4.5-.6c.1-.1.2-.3.3-.5c0-.2.1-.4.1-.7c-.1-.4-.2-.7-.5-.9c-.2-.3-.5-.4-.9-.4c-.2 0-.4.1-.6.1c-.2.1-.4.2-.5.3c-.1.2-.2.3-.3.5c-.1.2-.1.4-.1.6l-.9-.2c0-.3.1-.6.3-.9c.1-.2.3-.4.5-.6c.2-.2.5-.3.7-.4c.3-.1.6-.2.9-.2c.3 0 .6.1.9.2c.3.1.5.2.7.4c.2.2.4.4.5.6c.1.3.2.6.2.9c0 .3 0 .6-.1.8c-.1.2-.2.5-.4.7c-.1.2-.3.4-.5.6c-.2.2-.4.5-.6.7l-2.1 2c.2 0 .3 0 .5-.1h.4zm7.1.1h1.5v.7h-4v-.7h1.6s.04-5.55 0-5.5v-.2c.05.04-1.3 1.3-1.3 1.3l-.5-.6l2-1.8h.7v6.8zm9.3-.9v-3.1h-2.6v-.7h2.6v-1.1h-2.6v-.7h2.6v-1.1h.8v6.7h-.8zm-1.6-2.4l.1.7c-.7.2-1.4.3-2 .3c-.7 0-1.3.1-2 .1c-.01-.03-.7 0-.7 0v-4.8h.8s.03 4.06 0 4.1c.7 0 1.3-.1 1.9-.1c.6-.1 1.3-.1 1.9-.3zm-2.6 3.9h5.2v.7h-6.1v-2.8h.9v2.1zm13.6-8.3h.8v9.2h-.8V19zm-1.8 3.6v-3.4h.8v8.5h-.8v-4.4s-1.14-.02-1.1 0c-.1.4-.1.8-.2 1.2c-.1.3-.3.7-.4.9c-.2.3-.4.4-.6.6c-.2.1-.5.2-.8.2c-.3 0-.6-.1-.8-.2c-.2-.2-.4-.4-.6-.7c-.2-.3-.3-.6-.4-1c-.1-.4-.1-.8-.1-1.3c0-.5 0-1 .1-1.3c.1-.4.2-.8.4-1c.2-.3.4-.5.6-.7c.2-.1.5-.2.8-.2c.3 0 .5.1.8.2c.2.1.4.3.6.6c.1.2.3.5.4.8c.1.4.1.8.2 1.2h1.1zm-3.1 2.8c.4 0 .7-.2.9-.6c.2-.5.3-1.1.3-1.8c0-.4 0-.7-.1-1c0-.3-.1-.6-.2-.8c-.1-.2-.3-.3-.4-.5c-.1-.1-.3-.1-.5-.1c-.4 0-.6.2-.9.6c-.2.5-.3 1-.3 1.8c0 .7.1 1.3.3 1.8c.3.4.5.6.9.6zm14.5-3.6v.7h-6.3v-3.1h.9v2.4h5.4zm-7.4 1.9h8.3v.7h-8.3v-.7zm1.9 1.6v2h5.5v.7h-6.3v-2.7h.8zm12.7 2.3c-.5 0-.9-.1-1.3-.3c-.4-.2-.7-.4-1-.8c-.3-.3-.5-.7-.7-1.2c-.2-.5-.3-1-.3-1.6c0-.6.1-1.1.3-1.6c.2-.5.4-.9.7-1.2c.3-.4.6-.6 1-.8c.4-.2.9-.3 1.4-.3c.4 0 .8.1 1.2.3c.3.2.6.4.8.6l-.5.7c-.2-.3-.4-.4-.7-.6c-.2-.1-.5-.2-.8-.2c-.4 0-.7.1-1 .3c-.3.1-.5.3-.7.6c-.3.2-.4.5-.5.9c-.1.4-.2.8-.2 1.3c0 .4.1.9.2 1.2c.1.4.2.8.4 1c.2.3.5.5.8.6c.3.2.6.2.9.2c.4 0 .7 0 1-.2c.3-.1.5-.3.8-.6l.5.6c-.3.3-.7.6-1 .8c-.4.2-.8.3-1.3.3zm6.2 0c-.4 0-.9-.1-1.3-.3c-.3-.2-.7-.4-1-.8c-.2-.3-.5-.7-.6-1.2c-.2-.5-.3-1-.3-1.6c0-.6.1-1.2.3-1.6c.1-.5.4-.9.6-1.3c.3-.3.7-.5 1-.7c.4-.2.9-.3 1.3-.3c.5 0 .9.1 1.3.3c.4.2.8.4 1 .7c.3.4.5.8.7 1.3c.1.4.2 1 .2 1.6c0 .6-.1 1.1-.2 1.6c-.2.5-.4.9-.7 1.2c-.2.4-.6.6-1 .8c-.4.2-.8.3-1.3.3zm0-.9c.4 0 .7 0 1-.2c.2-.1.5-.3.7-.6c.1-.3.3-.6.4-1c.1-.3.2-.8.2-1.2c0-.5-.1-.9-.2-1.3c-.1-.4-.3-.7-.4-.9c-.2-.3-.5-.5-.7-.6c-.3-.2-.6-.3-1-.3c-.3 0-.6.1-.9.3c-.3.1-.5.3-.7.6c-.2.2-.3.5-.4.9c-.1.4-.2.8-.2 1.3c0 .4.1.9.2 1.2c.1.4.2.7.4 1c.2.3.4.5.7.6c.3.2.6.2.9.2zm6 .7l-2.4-7.4h1s1.23 4.01 1.2 4c.2.4.3.9.4 1.2c.1.4.2.8.4 1.3c.1-.5.2-.9.4-1.3c.1-.3.2-.7.3-1.2c.02.01 1.2-4 1.2-4h1l-2.4 7.4h-1.1zm4.3 0V20h.9v7.4h-.9zm2.8 0V20s1.86-.04 1.9 0c1.1 0 2 .3 2.6.9c.6.6.9 1.5.9 2.8c0 .6-.1 1.1-.2 1.6c-.2.4-.4.8-.7 1.1c-.3.4-.7.6-1.1.8c-.4.2-.9.2-1.5.2c0 .04-1.9 0-1.9 0zm.9-.7s.88-.04.9 0c.9 0 1.5-.3 2-.8c.4-.5.6-1.3.6-2.2c0-1-.2-1.7-.6-2.2c-.4-.5-1.1-.8-2-.8c-.02.02-.9 0-.9 0v6zM242 24v-.7h3.3v.7H242zm7.5 2.7h1.5v.7h-4v-.7h1.6s.03-5.55 0-5.5v-.2c.04.04-1.3 1.3-1.3 1.3l-.5-.6l2-1.8h.7v6.8zm3.4.7s2.34-2.93 2.3-2.9c.2-.2.2-.3.3-.4c.1-.1.1-.2.2-.2c-.5.3-.9.5-1.5.5c-.3 0-.6-.1-.8-.2c-.3-.1-.5-.2-.7-.4c-.2-.2-.4-.4-.5-.7c-.1-.3-.1-.6-.1-.9c0-.4 0-.7.1-1c.2-.2.4-.5.6-.7c.2-.2.5-.4.8-.5c.3-.2.6-.2 1-.2c.4 0 .7 0 1 .2c.3.1.6.3.8.5c.2.2.3.4.5.7c.1.4.1.7.1 1.1c0 .4 0 .8-.2 1.2c-.2.3-.4.7-.7 1.1c.04.01-2 2.8-2 2.8h-1.2zm.1-5.3c0 .5.1.9.4 1.1c.3.3.6.4 1.1.4c.3 0 .5 0 .7-.1c.2-.1.4-.2.5-.3c.1-.2.3-.3.3-.5c.1-.2.1-.4.1-.6c0-.2 0-.4-.1-.6c-.1-.2-.2-.4-.3-.5c-.1-.1-.3-.2-.5-.3c-.2-.1-.4-.1-.6-.1c-.5 0-.9.1-1.2.4c-.2.3-.4.7-.4 1.1zm9.5 4.3h3.7v.7h-8.3v-.7h3.7v-1.7H259v-2.9h5.4v-1.4h-5.5v-.7h6.3v2.8h-5.4v1.5h5.6v.7h-2.9v1.7zm13.4-7.4h.8v9.2h-.8V23h-2.6v-.6h2.6V19zm-5.4 1.6v4.6h2.1c.3 0 .6-.1.9-.1c.3 0 .6-.1.9-.2l.1.7c-.3.1-.6.2-.9.2c-.4 0-.7.1-1 .1h-2.2c-.04.05-.7 0-.7 0v-6h4.1v.7h-3.3zm12 2.2c-.5 0-.9-.1-1.3-.2c-.4 0-.8-.1-1-.3c-.3-.1-.5-.3-.7-.5c-.1-.3-.2-.5-.2-.8c0-.3.1-.5.2-.7c.2-.2.4-.4.7-.6c.2-.1.6-.2 1-.3c.4-.1.8-.1 1.3-.1c.5 0 .9 0 1.3.1c.4.1.8.2 1.1.3l.6.6c.1.2.2.4.2.7c0 .3-.1.5-.2.8c-.2.2-.4.4-.6.5c-.3.2-.7.3-1.1.3c-.4.1-.8.2-1.3.2zm0-2.9c-.7 0-1.3.1-1.7.3c-.4.2-.6.5-.6.8c0 .4.2.6.6.8c.4.2 1 .3 1.7.3c.7 0 1.3-.1 1.7-.3c.5-.2.7-.4.7-.8c0-.3-.2-.6-.7-.8c-.4-.2-1-.3-1.7-.3zm4.1 4.3h-3.7v1.1h2.7v2.9h-.8v-2.3h-5.5v-.6h2.8v-1.1h-3.7v-.7h8.2v.7zm9.7-5.1h.8v9.1h-.8v-9.1zm-3.7 4.1c-.3 0-.6 0-.9-.1c-.3-.1-.5-.2-.7-.4c-.2-.2-.4-.3-.5-.6c-.1-.2-.2-.5-.2-.7c0-.3.1-.6.2-.8c.1-.2.3-.4.5-.6c.2-.2.4-.3.7-.4c.3-.1.6-.1.9-.1c.4 0 .7 0 1 .1c.3.1.5.2.7.4c.2.2.4.4.5.6c.1.2.2.5.2.8c0 .2-.1.5-.2.7c-.1.3-.3.4-.5.6c-.2.2-.4.3-.7.4c-.3.1-.6.1-1 .1zm0-3c-.4 0-.8.1-1.1.3c-.3.2-.4.5-.4.9c0 .3.1.6.4.8c.3.2.7.3 1.1.3c.5 0 .9-.1 1.1-.3c.3-.2.5-.5.5-.8c0-.4-.2-.7-.5-.9c-.2-.2-.6-.3-1.1-.3zm3 3.5l.1.6c-.9.2-1.7.3-2.6.3v3.3h-.8s-.04-3.24 0-3.2h-2.6l-.1-.7h2.9c.5-.1 1.1-.1 1.6-.1c.5-.1 1-.1 1.5-.2zm4-.6l-.3-.6c.5 0 .9-.1 1.2-.2c.4-.1.7-.3 1-.4c.3-.2.5-.4.7-.6c.2-.2.3-.4.3-.7h-2.8v-.7h2.8v-.9h.9v.9h2.8v.7h-2.8c0 .3.1.5.3.7c.2.2.4.4.7.6c.3.1.6.3 1 .4c.4.1.8.2 1.2.2l-.3.6c-.3 0-.7-.1-1-.2c-.4-.1-.7-.2-1-.3c-.3-.1-.6-.3-.8-.5c-.2-.2-.4-.4-.5-.6l-.6.6c-.2.2-.5.4-.8.5c-.3.1-.6.3-.9.3c-.4.1-.8.2-1.1.2zm7.5 1.2h-3.7v1.1h2.7v2.8h-.9V26h-5.5v-.6h2.8v-1.1h-3.7v-.7h8.3v.7zm8.4-5.3v6.9h-.9V19h.9zm-1.6 4.8l.1.6c-.5.1-1 .1-1.5.2c-.5 0-1 0-1.5.1h-2.8l-.2-.7h2.6c.02.01 0-1.3 0-1.3h-1.7v-3.1h4.3v.7h-3.5v1.7h3.6v.7h-1.8s-.04 1.28 0 1.3c.4 0 .8-.1 1.2-.1c.4 0 .8-.1 1.2-.1zm-3.5 3.5h5.4v.7h-6.2v-2.6h.8v1.9zm14.3-7.3v.7h-5.4v-.7h2.3v-1h.8v1h2.3zm3 1.6v.7h-1.3v2.5h-.9v-5.7h.9v2.5h1.3zm-3.5 1.2c0 .3-.1.5-.2.7c-.1.2-.2.4-.4.5c-.2.2-.5.3-.7.3c-.3.1-.6.2-.9.2c-.3 0-.6-.1-.9-.2c-.3 0-.5-.1-.7-.3c-.2-.1-.3-.3-.4-.5c-.1-.2-.2-.4-.2-.7c0-.2.1-.5.2-.7c.1-.2.2-.4.4-.5c.2-.1.4-.3.7-.3c.3-.1.6-.1.9-.1c.3 0 .6 0 .9.1c.2 0 .5.2.7.3c.2.2.3.3.4.5c.1.2.2.5.2.7zm-3.6 0c0 .3.1.6.4.7c.2.2.6.3 1 .3c.4 0 .7-.1 1-.3c.3-.1.4-.4.4-.7c0-.3-.1-.5-.4-.7c-.3-.2-.6-.3-1-.3c-.4 0-.8.1-1 .3c-.3.2-.4.4-.4.7zm-.2 3.1v-.6h6v2.9h-.9v-2.3h-5.1zm13.8-3.7v2.2h-.8v-5.2h.8v2.3h1.2v-2.4h.8v5.6h-.8v-2.5h-1.2zm-1.2 1.1l-.4.7c-.5-.2-.8-.4-1.1-.8c-.3-.3-.6-.6-.7-1c-.2.4-.4.8-.8 1.2c-.3.4-.7.6-1.1.8l-.5-.6c.3-.1.6-.3.8-.5c.3-.2.5-.5.6-.7c.2-.2.3-.5.4-.8c.1-.2.2-.5.2-.8c-.04.05 0-1.2 0-1.2h.8s-.04 1.25 0 1.2c0 .3 0 .5.1.8c.1.2.2.5.4.7c.1.2.3.4.5.6c.3.2.5.3.8.4zm.1 1.6c.5 0 .9 0 1.3.1c.4.1.7.2 1 .3c.2.2.4.3.6.5c.1.2.2.5.2.7c0 .3-.1.5-.2.7c-.2.2-.4.4-.6.5c-.3.2-.6.3-1 .4c-.4 0-.8.1-1.3.1c-.4 0-.9-.1-1.2-.1c-.4-.1-.7-.2-1-.4c-.3-.1-.5-.3-.6-.5c-.1-.2-.2-.4-.2-.7c0-.2.1-.5.2-.7c.1-.2.3-.3.6-.5c.3-.1.6-.2 1-.3c.3-.1.8-.1 1.2-.1zm0 2.6c.7 0 1.3 0 1.7-.2c.4-.2.6-.4.6-.8c0-.3-.2-.5-.6-.7c-.4-.2-1-.3-1.7-.3c-.7 0-1.2.1-1.6.3c-.4.2-.6.4-.6.7c0 .4.2.6.6.8c.4.2.9.2 1.6.2zm11.8-6.1v.7h-6.2v-2.8h6.1v.7h-5.2v1.4h5.3zm-7.3 1.5h8.3v.6h-8.3v-.6zm1.9 3.6v.9h5.6v.7h-6.5v-2.2h5.4v-.9h-5.4v-.7h6.2v2.2h-5.3zm11.4-4.1c-1 0-1.8-.2-2.3-.4c-.6-.3-.9-.7-.9-1.2c0-.5.3-.9.9-1.2c.5-.3 1.3-.4 2.3-.4c1 0 1.8.1 2.4.4c.6.3.8.7.8 1.2c0 .5-.2.9-.8 1.2c-.6.2-1.4.4-2.4.4zm0-2.6c-.7 0-1.3.1-1.7.3c-.4.1-.6.4-.6.7c0 .3.2.5.6.7c.4.2 1 .2 1.7.2c.8 0 1.4 0 1.8-.2c.4-.2.6-.4.6-.7c0-.3-.2-.6-.6-.7c-.4-.2-1-.3-1.8-.3zm-4.1 3.2h8.3v.7h-8.3v-.7zm1.8 3.5v.9h5.7v.7h-6.5v-2.2h5.4v-.8h-5.4v-.7h6.2v2.1h-5.4z" stroke="none" fill="#111111"/></g><g id="Polygon124010"><path d="m5.1 7.8h3.7v.7H.5v-.7h3.8s-.05-1.88 0-1.9c-.5 0-.9-.1-1.2-.2c-.4-.1-.7-.3-.9-.5c-.3-.2-.5-.5-.6-.7c-.2-.3-.3-.6-.3-1c0-.3.1-.7.3-1c.2-.2.4-.5.7-.7c.3-.2.6-.4 1-.5c.5-.1.9-.2 1.4-.2c.5 0 .9.1 1.3.2c.4.1.8.3 1.1.5c.3.2.5.5.7.7c.1.3.2.7.2 1c0 .4-.1.7-.2 1c-.2.2-.4.5-.6.7c-.3.2-.6.4-.9.5c-.4.1-.8.2-1.2.2v1.9zM2.2 3.5c0 .3 0 .5.1.8c.2.2.3.3.6.5c.2.2.5.3.8.4c.3 0 .6.1 1 .1c.3 0 .7-.1 1-.1c.3-.1.6-.2.8-.4c.2-.2.4-.3.5-.5c.1-.3.2-.5.2-.8c0-.2-.1-.5-.2-.7c-.1-.2-.3-.4-.5-.5c-.2-.2-.5-.3-.8-.4c-.3-.1-.7-.1-1-.1c-.4 0-.7 0-1 .1c-.3.1-.6.2-.8.4c-.3.1-.4.3-.6.5c-.1.2-.1.5-.1.7zm12.1 4.4h3.7v.7H9.7v-.7h3.7V6h-2.6V1.3h6.2v.7h-5.4v1.3h5.2v.6h-5.2v1.4h5.5v.7h-2.8v1.9zM24.6 4v3.1h-.8V.7h.8v2.6h1.2V.6h.8v6.8h-.8V4h-1.2zm-1.3 1l.1.7c-.3.1-.6.1-.9.2h-.8c-.3.1-.6.1-.9.1h-1.5V3.3h2.6V2h-2.6v-.7h3.4v2.6h-2.6s.02 1.41 0 1.4h1.6c.3-.1.5-.1.8-.1c.3-.1.5-.1.8-.2zm-1.8 3.8h5.4v.7h-6.2V6.7h.8v2.1zm13.9-3.9v.7h-6.3V1.4h6.2v.7H30v2.8h5.4zm-7.3 2.9h8.3v.7h-8.3v-.7zM46.5 3h1.3v.7h-1.3v2.5h-.9V.5h.9v2.5zm-2.4 1.1l-.8-.1c.1-.5.2-.9.2-1.3c0-.3.1-.6.1-.9c-.05-.02-3.8 0-3.8 0v-.7h4.6s-.03.5 0 .5c0 .3 0 .6-.1 1.1c0 .4 0 .8-.2 1.4zm.9.6l.1.6c-.5 0-1 .1-1.5.2c-.5 0-1 0-1.5.1h-2.7c-.03.02-.1-.7-.1-.7c0 0 .91.03.9 0h1c.02.01 0-1.8 0-1.8h.8s.04 1.79 0 1.8c.6 0 1.1-.1 1.6-.1c.5 0 .9-.1 1.4-.1zm-1.5 1.7c.5 0 .9 0 1.3.1c.4.1.7.2.9.3c.3.1.5.3.6.5c.2.2.3.4.3.7c0 .3-.1.5-.3.7c-.1.2-.3.4-.6.5c-.2.2-.5.3-.9.4c-.4 0-.8.1-1.3.1c-.5 0-.9-.1-1.3-.1c-.3-.1-.6-.2-.9-.4c-.3-.1-.5-.3-.6-.5c-.2-.2-.2-.4-.2-.7c0-.3 0-.5.2-.7c.1-.2.3-.4.6-.5l.9-.3c.4-.1.8-.1 1.3-.1zm0 2.6c.7 0 1.2-.1 1.6-.2c.4-.2.6-.5.6-.8c0-.3-.2-.5-.6-.7c-.4-.2-.9-.3-1.6-.3c-.7 0-1.2.1-1.6.3c-.4.2-.6.4-.6.7c0 .3.2.6.6.8c.4.1.9.2 1.6.2zm5.8-4l-.3-.7c.4 0 .8-.1 1.2-.3c.4-.1.7-.3 1-.6c.3-.2.5-.4.7-.7c.2-.3.3-.6.3-.9c-.01.04 0 0 0 0h-2.9v-.7h6.7v.7h-2.9s.02.04 0 0c0 .3.1.6.3.9c.2.3.4.5.7.7c.3.3.7.5 1 .6c.4.2.8.3 1.2.3L56 5l-1.1-.3c-.3-.1-.6-.3-.9-.4c-.3-.2-.6-.4-.8-.7c-.2-.2-.4-.4-.5-.7c-.2.3-.4.5-.6.7c-.2.3-.5.5-.8.7c-.3.1-.6.3-.9.4l-1.1.3zm7.5.8v.6h-3.7v3.3h-.9V6.4h-3.7v-.6h8.3zM65 3.3v.7h-6.2V.9h.8v2.4h5.4zm-7.3 1.9h8.3v.7h-8.3v-.7zm1.9 1.6v2h5.5v.7h-6.3V6.8h.8zM75.9.5h.8v9.2h-.8V4.8h-1.2v4.4h-.8V.7h.8v3.5h1.2V.5zm-6.6 6.7V1.6h3.5v5.6h-3.5zm.8-4.9v4.3h1.9V2.3h-1.9zm14.7 5V4.2h-2.5v-.7h2.5V2.4h-2.5v-.7h2.5V.6h.9v6.7h-.9zm-1.5-2.4l.1.7c-.7.2-1.4.3-2.1.3c-.6 0-1.3.1-1.9.1c-.03-.03-.7 0-.7 0V1.2h.8v4.1c.6 0 1.3-.1 1.9-.1c.6-.1 1.2-.1 1.9-.3zm-2.6 3.9h5.2v.7h-6.1V6.7h.9v2.1zm12.8-3.9c-.5 0-.9 0-1.3-.1c-.4-.1-.7-.3-1-.4c-.3-.2-.5-.4-.6-.7c-.2-.2-.3-.5-.3-.8c0-.3.1-.6.3-.8c.1-.3.3-.5.6-.7c.3-.1.6-.3 1-.4c.4 0 .8-.1 1.3-.1c.5 0 .9.1 1.3.1c.4.1.8.3 1 .4c.3.2.5.4.7.7c.1.2.2.5.2.8c0 .3-.1.6-.2.8c-.2.3-.4.5-.7.7c-.2.1-.6.3-1 .4c-.4.1-.8.1-1.3.1zm0-3.3c-.3 0-.6 0-.9.1c-.3 0-.6.1-.8.2c-.2.2-.3.3-.4.5c-.2.1-.2.3-.2.5c0 .2 0 .4.2.5c.1.2.2.4.4.5c.2.1.5.2.8.2c.3.1.6.1.9.1c.4 0 .7 0 1-.1c.3 0 .5-.1.7-.2c.2-.1.4-.3.5-.5c.1-.1.2-.3.2-.5c0-.2-.1-.4-.2-.5c-.1-.2-.3-.3-.5-.5c-.2-.1-.4-.2-.7-.2c-.3-.1-.6-.1-1-.1zm4.2 4.2v.6h-2.2v3.3h-.8V6.4h-2.3v3.3h-.9V6.4h-2.1v-.6h8.3zm5.5-1.3v.8H99V1.2h4.2v.8h2.1V.6h.8v5.4h-.8V4.5h-2.1zm-.8.1V1.9h-2.6v2.7h2.6zm2.9-1.9h-2.1v1.1h2.1V2.7zm-2.2 3.5c.9 0 1.7.2 2.2.5c.6.3.8.7.8 1.3c0 .2 0 .5-.2.7c-.1.2-.3.4-.6.5c-.2.2-.6.3-.9.4c-.4 0-.8.1-1.3.1c-.5 0-.9-.1-1.3-.1c-.3-.1-.7-.2-.9-.4c-.3-.1-.5-.3-.6-.5c-.2-.2-.2-.5-.2-.7c0-.3 0-.6.2-.8c.1-.2.3-.4.6-.5c.2-.2.6-.3.9-.4c.4 0 .8-.1 1.3-.1zm0 2.8c.7 0 1.2-.1 1.6-.2c.4-.2.6-.5.6-.8c0-.4-.2-.7-.6-.8c-.4-.2-.9-.3-1.6-.3c-.7 0-1.3.1-1.6.3c-.4.1-.6.4-.6.8c0 .3.2.6.6.8c.3.1.9.2 1.6.2zM117.4.6v6.6h-.9V.6h.9zm-2.6 2.8c0 .4 0 .7-.2.9c-.1.3-.2.6-.5.8c-.2.2-.4.3-.7.4c-.3.1-.6.2-1 .2c-.3 0-.6-.1-.9-.2c-.3-.1-.5-.2-.8-.4c-.2-.2-.3-.5-.5-.8c-.1-.2-.1-.5-.1-.9c0-.3 0-.6.1-.9c.2-.3.3-.5.5-.7c.3-.2.5-.3.8-.5c.3-.1.6-.1.9-.1c.4 0 .7 0 1 .1c.3.2.5.3.7.5c.3.2.4.4.5.7c.2.3.2.6.2.9zm-3.9 0c0 .3 0 .5.1.6c.1.2.2.4.3.5c.2.2.3.3.5.4c.2 0 .4.1.6.1c.3 0 .5-.1.7-.1c.2-.1.3-.2.5-.4c.1-.1.2-.3.3-.5c.1-.1.1-.3.1-.6c0-.2 0-.4-.1-.6c-.1-.2-.2-.3-.3-.5c-.2-.1-.3-.2-.5-.3c-.2-.1-.4-.1-.7-.1c-.2 0-.4 0-.6.1c-.2.1-.3.2-.5.3c-.1.2-.2.3-.3.5c-.1.2-.1.4-.1.6zm1.4 5.4h5.3v.7h-6.1v-3h.8v2.3zm15.3-4.5v.6h-1.5v4.8h-.9V.6h.9v3.7h1.5zm-5.5-3s-.01 1.68 0 1.7c0 .4.1.8.2 1.2c.1.4.3.7.5 1.1c.2.3.4.7.7.9c.3.3.6.5.9.7l-.5.7c-.5-.3-.9-.7-1.3-1.2c-.4-.5-.7-1-.9-1.7c-.2.7-.5 1.3-.9 1.8c-.4.5-.9 1-1.4 1.2l-.5-.6c.3-.2.6-.4.9-.7c.3-.3.6-.6.8-1c.2-.4.4-.8.5-1.2c.1-.4.2-.8.2-1.2c-.03-.02 0-1.7 0-1.7h.8zm12.5.8v-.7h-5.4v-.6h6.2v1.9h-5.3v.8h5.5v.6h-6.3v-2h5.3zm-6.4 2.7h8.3v.6h-8.3v-.6zm1.8 3.3v.9h5.8v.6h-6.6V7.5h5.4v-.7h-5.4v-.6h6.3v1.9H130zm10.2-2l-.3-.7c.5 0 .9-.2 1.3-.3c.4-.2.7-.4 1-.6c.3-.3.6-.5.7-.8c.2-.4.3-.7.3-1c-.01-.04-3 0-3 0v-.7h3V.7h.8v1.3h3v.7s-2.97-.04-3 0c0 .3.1.6.3 1c.2.3.4.5.7.8c.3.2.6.4 1 .6c.4.1.9.3 1.3.3l-.3.7c-.4-.1-.8-.2-1.1-.3c-.3-.1-.7-.3-.9-.5c-.3-.1-.6-.3-.8-.6c-.3-.2-.4-.5-.6-.7c-.1.2-.3.5-.5.7c-.3.3-.5.5-.8.6c-.3.2-.6.4-1 .5c-.3.1-.7.2-1.1.3zm3.8 1.7h3.8v.7h-8.3v-.7h3.7v-2h.8v2zm10.1-2.7l-.4.6c-.6-.2-1-.4-1.4-.7c-.4-.4-.7-.7-.9-1.2c-.2.5-.5 1-.9 1.3c-.4.4-.9.7-1.4.8l-.4-.6c.3-.1.6-.3.9-.5c.3-.2.5-.4.7-.6c.2-.3.3-.5.5-.8c.1-.3.1-.6.1-.9c.03-.01 0-.2 0-.2h-2v-.7h2V.5h.9v1.1h2v.7h-2s-.03.19 0 .2c0 .3 0 .5.1.8c.1.3.3.5.5.7c.2.3.5.5.7.6c.3.2.6.4 1 .5zm-.6-2h1.8V.5h.9v5.6h-.9V3.8h-1.8v-.7zm-.3 3.2c.9 0 1.7.2 2.2.5c.5.3.8.7.8 1.2c0 .5-.3.9-.8 1.2c-.5.3-1.3.5-2.2.5c-.5 0-.9-.1-1.3-.1c-.4-.1-.7-.2-1-.4c-.2-.1-.4-.3-.6-.5c-.1-.2-.2-.4-.2-.7c0-.3.1-.5.2-.7c.2-.2.4-.4.6-.5c.3-.2.6-.3 1-.4c.4 0 .8-.1 1.3-.1zm0 2.7c.7 0 1.2-.1 1.6-.2c.4-.2.6-.5.6-.8c0-.3-.2-.6-.6-.8c-.4-.1-.9-.2-1.6-.2c-.7 0-1.3.1-1.7.2c-.4.2-.6.5-.6.8c0 .3.2.6.6.8c.4.1 1 .2 1.7.2zM164.8.5h.8v9.2h-.8V5.1h-1.2v4.1h-.8V.7h.8v3.7h1.2V.5zm-4.3.3v1.3h1.9v.7h-4.6v-.7h1.9V.8h.8zm-.4 2.6c.3 0 .5 0 .8.1c.2.2.4.3.6.5c.2.2.3.4.4.6c.1.3.1.6.1.9c0 .3 0 .6-.1.8c-.1.3-.2.5-.4.7c-.2.2-.4.3-.6.4c-.3.1-.5.2-.8.2c-.3 0-.6-.1-.8-.2c-.2-.1-.4-.2-.6-.4c-.2-.2-.3-.4-.4-.7c-.1-.2-.2-.5-.2-.8c0-.3.1-.6.2-.9c.1-.2.2-.4.4-.6c.2-.2.4-.3.6-.5c.2-.1.5-.1.8-.1zm0 3.5c.3 0 .6-.2.9-.4c.2-.3.3-.6.3-1c0-.2 0-.4-.1-.6c-.1-.1-.1-.3-.2-.4c-.1-.1-.3-.2-.4-.3c-.2-.1-.3-.1-.5-.1c-.4 0-.7.1-.9.4c-.2.2-.3.6-.3 1c0 .4.1.7.3 1c.2.2.5.4.9.4zm10.2-5.4v1.1h-1.1s-.01-1.09 0-1.1c0-.4.1-.7.2-.9c.1-.2.2-.3.3-.4c.2-.1.4-.1.6-.1v.4c-.1 0-.2.1-.3.1c-.1.1-.2.2-.2.3c0 .1-.1.2-.1.3v.3h.6zm6.4 3.4l-.4.7c-.5-.2-1-.4-1.4-.7c-.4-.4-.6-.7-.8-1.2c-.2.5-.5.9-.9 1.3c-.4.3-.9.6-1.5.8l-.4-.7c.4-.1.7-.3 1-.4c.2-.2.5-.4.7-.6c.2-.3.3-.5.5-.8c.1-.3.1-.6.1-.9c.02.04 0-.1 0-.1h-2v-.7h2V.5h.9v1.1h2v.7h-2s-.04.14 0 .1c0 .3 0 .6.1.8c.1.3.3.5.5.7c.2.3.4.5.7.6c.3.2.6.3.9.4zm1.7-2.1h1.4v.7h-1.4v2.4h-.8V.6h.8v2.2zm.2 4.2s-2.57.02-2.6 0c.1.3.2.5.3.7c.2.2.4.4.7.6c.3.2.6.3.9.4c.3.2.7.3 1 .3l-.3.7l-.9-.3c-.3-.1-.6-.2-.9-.4c-.3-.1-.5-.3-.7-.5c-.2-.2-.4-.4-.5-.6c-.3.4-.7.8-1.2 1.1c-.6.3-1.2.5-1.8.6l-.3-.6c.3 0 .7-.1 1-.3c.3-.1.6-.2.9-.4c.3-.2.5-.4.7-.6c.1-.2.2-.4.3-.7c-.05.02-2.6 0-2.6 0v-.6h6v.6zm10.5-2.8v.7h-1.5v4.8h-.9V.6h.9v3.6h1.5zm-6.1-3c.3 0 .6.1.9.3c.3.1.5.3.7.6c.2.3.4.6.5 1c.1.4.2.8.2 1.3c0 .5-.1 1-.2 1.4c-.1.3-.3.7-.5 1c-.2.2-.4.5-.7.6c-.3.2-.6.2-.9.2c-.4 0-.7 0-1-.2c-.3-.1-.5-.4-.7-.6c-.2-.3-.4-.7-.5-1c-.1-.4-.1-.9-.1-1.4c0-.5 0-.9.1-1.3c.1-.4.3-.7.5-1c.2-.3.4-.5.7-.6c.3-.2.6-.3 1-.3zm0 5.7c.2 0 .4-.1.6-.2c.1-.1.3-.3.4-.5c.2-.2.3-.5.3-.8c.1-.3.2-.6.2-1c0-.3-.1-.7-.2-1c0-.3-.1-.5-.3-.7c-.1-.2-.3-.4-.4-.5c-.2-.1-.4-.2-.6-.2c-.3 0-.5.1-.7.2c-.1.1-.3.3-.4.5c-.2.2-.3.4-.3.7c-.1.3-.2.7-.2 1c0 .4.1.7.2 1c0 .3.1.6.3.8c.1.2.3.4.4.5c.2.1.4.2.7.2zm15.2-2.6v.6h-1.5v4.8h-.8V.5h.8v3.8h1.5zm-8-2.8s4.17.02 4.2 0c0 .7-.1 1.3-.3 1.9c-.1.6-.4 1.2-.7 1.8c-.3.5-.8 1-1.3 1.5c-.5.5-1.1.9-1.9 1.3l-.4-.7c1.2-.6 2.1-1.3 2.7-2.2c.6-.8.9-1.8 1-2.9c.04.01-3.3 0-3.3 0v-.7zm16 1.8v.7H200V.9h.8v2.4h5.4zm-7.3 1.9h8.3v.7h-8.3v-.7zm1.9 1.6v2h5.5v.7h-6.4V6.8h.9zm16.7-1.9v.7h-6.3V1.4h6.2v.7H212v2.8h5.5zm-7.4 2.9h8.3v.7h-8.3v-.7zM226 .6h.8v5.4h-.8V.6zm-1.1 4l.1.6c-.4.1-.8.1-1.1.2c-.4 0-.7 0-1.1.1h-2.3c.03.03-.7 0-.7 0V2.9h3.3V1.8h-3.3v-.7h4.1v2.5h-3.3v1.2h2.2c.4 0 .7-.1 1-.1c.4 0 .7-.1 1.1-.1zm-4 5V6.5h5.9v3.1h-5.9zm.8-2.5v1.8h4.3V7.1h-4.3zm13.4.8h3.8v.7h-8.3v-.7h3.7V6h-2.7V1.3h6.2v.7h-5.3v1.3h5.1v.6h-5.1v1.4h5.4v.7h-2.8v1.9zm5.4-3.6l5.7-.3v-.7c.01-.01 0-1.1 0-1.1h-5.5v-.7h6.3s.02 1.09 0 1.1v2c0 .4-.1.8-.1 1.2c-.1.4-.2.8-.3 1.3l-.8-.1c.1-.5.2-.9.2-1.3c.1-.3.1-.7.2-1.1c-.04.04-5.6.3-5.6.3l-.1-.6zm-.7 3.4h8.2v.7h-8.2v-.7zm12-4.9s5.64-.15 5.6-.1v-.3c.05.02 0-.7 0-.7H252v-.7h6.3s-.03.76 0 .8c0 .4 0 .8-.1 1.3c0 .5-.1 1.1-.2 1.7l-.8-.1c0-.2.1-.5.1-.7c.1-.3.1-.5.1-.7c0-.02-5.5.2-5.5.2l-.1-.7zm3.4 2.6h4.1v.7H251v-.7h3.4V4.1h.8v1.3zm-2.3 1.5v2h5.6v.6h-6.4V6.9h.8zm14-6.4h.8v9.2h-.8V4.3h-2.1v-.7h2.1V.5zm-3.5.8v1.7c0 .4.1.8.2 1.2c.1.4.3.8.5 1.1c.2.4.5.7.7 1c.3.3.6.5 1 .6l-.5.7c-.5-.3-1-.7-1.4-1.2c-.4-.5-.7-1.1-.9-1.7c-.2.7-.5 1.3-.9 1.8c-.4.6-.9 1-1.4 1.3l-.5-.7c.3-.2.6-.4.9-.7c.3-.3.6-.6.8-1c.2-.4.4-.7.5-1.2c.1-.4.2-.8.2-1.2c-.03-.03 0-1.7 0-1.7h.8zm13.3 4.2v.7h-6.3V1.3h6.2v.7h-5.3v1.4h5.1v.6h-5.1v1.5h5.4zm-7.3 2.3h8.3v.7h-8.3v-.7zm9.3-6.7V0h1.1s.04 1.08 0 1.1v.5c-.1.2-.1.3-.2.5l-.3.3c-.2.1-.4.1-.6.1v-.4c.2 0 .3-.1.3-.1c.1-.1.2-.2.2-.3c.1-.1.1-.2.1-.3v-.3c.03-.02-.6 0-.6 0zm8.5 1v-.7h-5.3v-.6h6.1v1.9h-5.3v.8h5.5v.6h-6.3v-2h5.3zm-6.4 2.7h8.3v.6h-8.3v-.6zm1.9 3.3v.9h5.7v.6h-6.6V7.5h5.5v-.7h-5.5v-.6h6.3v1.9h-5.4zM299 .5h.8v9.2h-.8V4.9h-1.2v4.3h-.8V.8h.8v3.4h1.2V.5zm-6.6 1.2s3.59.02 3.6 0c0 .6-.1 1.2-.2 1.8c-.1.5-.3 1-.5 1.6c-.3.5-.7 1-1.1 1.4c-.4.5-1 .9-1.6 1.2l-.5-.6c.5-.3 1-.6 1.3-.9c.4-.4.7-.8 1-1.2c.2-.4.4-.8.5-1.2c.2-.5.2-.9.3-1.4h-2.8v-.7zM307.9.5h.8v9.2h-.8V.5zM302 5.7l-.4-.7c.3-.1.6-.2.9-.4c.3-.2.5-.4.7-.6c.2-.2.4-.5.5-.7c.1-.3.2-.6.2-.9h-2.1v-.7h2.1V.6h.8v1.1h2.1v.7h-2.1c0 .3.1.6.2.8c.1.3.3.5.5.8c.2.2.4.4.7.5c.3.2.6.3.9.4l-.4.7c-.5-.2-1-.4-1.4-.8c-.4-.3-.7-.7-.9-1.1c-.2.4-.5.9-.9 1.2c-.4.3-.9.6-1.4.8zm2.7-.3v1.6c.4 0 .9 0 1.3-.1c.4 0 .9 0 1.3-.1v.6c-.5.1-1 .2-1.5.2c-.5.1-1.1.1-1.6.2h-2.8l-.1-.7h2.6c-.02-.02 0-1.7 0-1.7h.8zm5.4 4.3l.4-2.1h.9l-.6 2.1h-.7zm11.3-6.2h1.3v.7h-1.3v3.2h-.9V.5h.9v3zm-2.4.9h-.8c.1-.6.2-1 .2-1.4c0-.4.1-.8.1-1.1c-.04.04-3.8 0-3.8 0v-.6h4.6s-.02.43 0 .4c0 .3 0 .7-.1 1.2c0 .4 0 .9-.2 1.5zm.9.6l.1.6c-.5.1-1 .2-1.5.2c-.5.1-1 .1-1.5.1c-.5 0-1 .1-1.4.1h-1.3l-.1-.7h1.9c.02-.03 0-2 0-2h.8s.04 1.94 0 1.9h1.6c.5-.1.9-.1 1.4-.2zm-3.5 1.8v2h5.3v.7h-6.1V6.8h.8zm14-6.3h.8v9.2h-.8V5h-1.3v4.2h-.8V.7h.8v3.6h1.3V.5zm-5.7 1.2v4.9c.5 0 .9 0 1.4-.1c.5 0 1-.1 1.5-.2l.1.7c-.6.1-1.2.2-1.7.3h-2.1V1.7h.8zM341.3.6h.9v9.1h-.9V.6zm-3.4 1.6s.05 1.14 0 1.1c0 .4.1.8.2 1.2c.2.4.3.7.6 1.1c.2.3.4.6.7.8c.3.3.7.5 1 .6l-.5.7c-.5-.2-1-.6-1.4-1.1c-.4-.5-.8-1.1-1-1.7c-.1.3-.2.7-.4 1c-.1.3-.3.6-.5.8c-.2.3-.4.5-.7.7c-.2.2-.5.4-.7.5l-.5-.6c.3-.2.6-.4.9-.7c.3-.3.6-.6.8-.9c.2-.4.4-.8.5-1.2c.1-.4.2-.8.2-1.2c.01.04 0-1.1 0-1.1H335v-.7h5.1v.7h-2.2zM350.6.6l.8-.1v5.4h-.8V4.6s-2.36.02-2.4 0c-.2.3-.4.5-.8.6c-.3.2-.6.3-1.1.3c-.3 0-.6-.1-.9-.2c-.3-.1-.5-.3-.7-.5c-.2-.2-.4-.4-.5-.7c-.1-.2-.2-.5-.2-.9c0-.3.1-.6.2-.8c.1-.3.3-.5.5-.7c.2-.2.4-.4.7-.5c.3-.1.6-.1.9-.1c.5 0 .8 0 1.1.2c.4.1.6.3.8.6h2.4V.6zm-4.3 4.1c.3 0 .5 0 .7-.1c.2 0 .3-.1.5-.3c.1-.1.2-.3.3-.5c.1-.1.1-.3.1-.6c0-.2 0-.4-.1-.6c-.1-.1-.2-.3-.3-.4c-.2-.1-.3-.2-.5-.3c-.2-.1-.4-.1-.7-.1c-.2 0-.4 0-.6.1c-.2.1-.3.2-.5.3c-.1.1-.2.3-.3.4c-.1.2-.1.4-.1.6c0 .3 0 .5.1.6c.1.2.2.4.3.5c.2.2.3.3.5.3c.2.1.4.1.6.1zm2.4-1.5c0 .3 0 .6-.1.7c0 .04 2 0 2 0V2.6s-2-.04-2 0c.1.1.1.4.1.6zm-3.4 3.9v-.7h6.1v3.3h-.8V7.1h-5.3z" stroke="none" fill="#111111"/></g></svg>