<?xml version="1.0" standalone="no"?><!DOCTYPE svg PUBLIC "-//W3C//DTD SVG 1.1//EN" "http://www.w3.org/Graphics/SVG/1.1/DTD/svg11.dtd"><svg xmlns="http://www.w3.org/2000/svg" version="1.1" width="162px" height="19.6px" viewBox="0 -2 162 19.6" style="top:-2px"><desc>초록여행</desc><defs/><g id="Polygon113334"><path d="m1.4 7.3L.8 6c.7 0 1.2-.2 1.7-.3c.5-.2.8-.4 1.2-.7c.3-.2.5-.5.7-.8c.2-.3.3-.6.3-.9H1.4V2h3.3V.7h1.6v1.3h3.4v1.3H6.3l.3.9c.2.3.5.6.8.8c.3.3.7.5 1.2.7c.4.1 1 .3 1.6.3l-.6 1.3c-1-.1-1.9-.4-2.5-.8c-.7-.4-1.2-.8-1.6-1.4c-.3.6-.9 1-1.5 1.4c-.7.4-1.5.7-2.6.8zM6.3 9h4.2v1.3h-10V9h4.2V6.9h1.6v2.1zm11-2.5h4.2v1.2h-10V6.5h4.2v-.8h-3V2.6h6v-.6h-6V.8h7.6v2.9h-6v.8h6.2v1.2h-3.2v.8zm-4.7 3.1V8.3h7.8v3.3h-1.6v-2h-6.2zM30.2.5h1.6v11.1h-1.6V7.5h-2.3c-.2.6-.6 1-1 1.3c-.4.3-.9.4-1.4.4c-.4 0-.8-.1-1.1-.3c-.4-.2-.7-.4-.9-.8c-.3-.3-.5-.7-.6-1.2c-.2-.5-.3-1-.3-1.7c0-.6.1-1.1.3-1.6c.1-.5.3-.9.6-1.2c.2-.4.5-.6.9-.8c.3-.2.7-.3 1.1-.3c.5 0 1 .1 1.3.4c.4.2.8.6 1 1.1h2.4V.5zm-4.7 7.3c.4 0 .7-.2 1-.7c.2-.4.4-1 .4-1.9c0-.8-.2-1.4-.4-1.8c-.3-.5-.6-.7-1-.7c-.4 0-.7.2-1 .7c-.2.4-.4 1-.4 1.8c0 .9.2 1.5.4 1.9c.3.5.6.7 1 .7zm2.9-2.6c0 .4-.1.7-.1 1c-.02.03 1.9 0 1.9 0V4.1s-1.95-.03-2 0c.1.3.2.7.2 1.1zm12.2-.7v2.6h-1.5V.7h1.5v2.6h.8V.5h1.5v7h-1.5v-3h-.8zm-1.8-2.8v1.2h-5.4V1.7h1.9v-1h1.6v1h1.9zm-.3 3.5c0 .3-.1.5-.2.8c-.1.2-.3.4-.5.6c-.2.1-.4.3-.7.4c-.3.1-.6.1-1 .1c-.3 0-.7 0-1-.1c-.3-.1-.5-.3-.7-.4c-.2-.2-.4-.4-.5-.6c-.1-.3-.2-.5-.2-.8c0-.3.1-.6.2-.8c.1-.2.3-.5.5-.6c.2-.2.4-.3.7-.4c.3-.1.7-.1 1-.1c.4 0 .7 0 1 .1c.3.1.5.2.7.4c.2.1.4.4.5.6c.1.2.2.5.2.8zm-3.4 0c0 .2.1.4.3.6c.2.1.4.2.7.2c.3 0 .5-.1.7-.2c.2-.2.3-.4.3-.6c0-.3-.1-.5-.3-.6c-.2-.2-.4-.2-.7-.2c-.3 0-.5 0-.7.2c-.2.1-.3.3-.3.6zm4 2.4c1.3 0 2.2.1 2.9.5c.6.3.9.8.9 1.5c0 .6-.3 1.1-.9 1.5c-.7.3-1.6.5-2.9.5c-1.2 0-2.2-.2-2.8-.5c-.6-.4-1-.9-1-1.5c0-.7.4-1.2 1-1.5c.6-.4 1.6-.5 2.8-.5zm0 2.8c.8 0 1.3 0 1.7-.2c.4-.1.6-.3.6-.6c0-.3-.2-.5-.6-.6c-.4-.2-.9-.2-1.7-.2c-.7 0-1.3 0-1.6.2c-.4.1-.6.3-.6.6c0 .3.2.5.6.6c.3.2.9.2 1.6.2z" stroke="none" fill="#fff"/></g></svg>