<?xml version="1.0" standalone="no"?><!DOCTYPE svg PUBLIC "-//W3C//DTD SVG 1.1//EN" "http://www.w3.org/Graphics/SVG/1.1/DTD/svg11.dtd"><svg xmlns="http://www.w3.org/2000/svg" version="1.1" width="69px" height="17.3px" viewBox="0 -2 69 17.3" style="top:-2px"><desc>처음으로 이동</desc><defs/><g id="Polygon115012"><path d="m18.4.5h1v9.3h-1V5h-1.9v-.8h1.9V.5zm-3.3 2.4s-.02.58 0 .6c0 .3 0 .7.1 1.1c.1.3.3.6.5 1c.2.3.4.6.7.8c.3.3.6.5 1 .7l-.6.8c-.5-.3-1-.6-1.4-1.1c-.3-.4-.6-.9-.8-1.5c-.2.6-.5 1.2-.9 1.6c-.4.5-.8.9-1.4 1.1l-.5-.8l.9-.6c.3-.3.5-.6.7-.9c.2-.4.4-.7.5-1.1c.1-.4.1-.7.1-1.1c.04-.02 0-.6 0-.6h-2v-.8h2V.7h1.1v1.4h1.9v.8h-1.9zm10-2.2c.5 0 1 .1 1.4.2c.4 0 .7.2 1 .3c.3.2.5.3.7.6c.1.2.2.4.2.7c0 .3-.1.5-.2.7c-.2.3-.4.4-.7.6c-.3.2-.6.3-1 .4c-.4 0-.9.1-1.4.1c-.5 0-.9-.1-1.3-.1c-.4-.1-.8-.2-1.1-.4c-.3-.2-.5-.3-.6-.6c-.2-.2-.3-.4-.3-.7c0-.3.1-.5.3-.7c.1-.3.3-.4.6-.6c.3-.1.7-.3 1.1-.3c.4-.1.8-.2 1.3-.2zm0 .9c-.7 0-1.2 0-1.6.2c-.4.2-.6.4-.6.7c0 .3.2.5.6.7c.4.2.9.2 1.6.2c.7 0 1.3 0 1.6-.2c.4-.2.6-.4.6-.7c0-.3-.2-.5-.6-.7c-.3-.2-.9-.2-1.6-.2zM21 4.9h8.3v.9H21v-.9zm1 1.7h6.3v3H22v-3zm5.2.8H23v1.4h4.2V7.4zm7.1-6.3c.5 0 .9 0 1.3.2c.5.1.8.3 1.1.5c.3.2.6.5.7.8c.2.3.3.7.3 1.1c0 .4-.1.7-.3 1c-.1.4-.4.6-.7.9c-.3.2-.6.4-1.1.5c-.4.1-.8.2-1.3.2c-.5 0-.9-.1-1.3-.2c-.4-.1-.8-.3-1.1-.5c-.3-.3-.6-.5-.7-.9c-.2-.3-.3-.6-.3-1c0-.4.1-.8.3-1.1c.1-.3.4-.6.7-.8c.3-.2.7-.4 1.1-.5c.4-.2.8-.2 1.3-.2zm0 .8c-.3 0-.7.1-.9.2c-.3 0-.6.2-.8.3c-.2.2-.4.3-.5.6c-.1.2-.2.4-.2.7c0 .2.1.5.2.7c.1.2.3.4.5.5c.2.2.5.3.8.4c.2.1.6.1.9.1c.3 0 .7 0 .9-.1c.3-.1.6-.2.8-.4c.2-.1.4-.3.5-.5c.1-.2.2-.5.2-.7c0-.3-.1-.5-.2-.7c-.1-.3-.3-.4-.5-.6c-.2-.1-.5-.3-.8-.3c-.2-.1-.6-.2-.9-.2zm-4.2 5.8h8.4v.9h-8.4v-.9zm13.9.1h3.7v.9h-8.4v-.9h3.7V6.2h-2.7V3.3h5.3V2h-5.3v-.8h6.4v2.9h-5.3v1.3h5.5v.8H44v1.6zM57.1.5h1.1v9.3h-1.1V.5zm-3.8.7c.3 0 .6.1.9.3c.3.1.5.3.8.6c.2.3.3.6.5 1c.1.4.1.9.1 1.4c0 .5 0 .9-.1 1.3c-.2.4-.3.8-.5 1c-.3.3-.5.5-.8.7c-.3.1-.6.2-.9.2c-.4 0-.7-.1-1-.2c-.3-.2-.5-.4-.7-.7c-.3-.2-.4-.6-.5-1c-.2-.4-.2-.8-.2-1.3c0-.5 0-1 .2-1.4c.1-.4.2-.7.5-1c.2-.3.4-.5.7-.6c.3-.2.6-.3 1-.3zm0 1c-.5 0-.8.2-1 .6c-.3.4-.4.9-.4 1.7c0 .7.1 1.3.4 1.7c.2.4.5.6 1 .6c.4 0 .7-.2.9-.6c.3-.4.4-1 .4-1.7c0-.8-.1-1.3-.4-1.7c-.2-.4-.5-.6-.9-.6zM64.5 5h3.6v.9h-8.3v-.9h3.6v-.9h-2.6V1h6.3v.8h-5.3v1.4h5.3v.9h-2.6v.9zm-.6 1.4c1 0 1.8.2 2.3.5c.6.2.9.7.9 1.2c0 .5-.3.9-.8 1.2c-.6.3-1.4.5-2.4.5c-.5 0-.9-.1-1.3-.1c-.4-.1-.8-.2-1-.4c-.3-.1-.5-.3-.7-.5c-.1-.2-.2-.4-.2-.7c0-.3.1-.5.2-.7c.2-.2.4-.4.7-.5c.2-.2.6-.3 1-.4c.4 0 .8-.1 1.3-.1zm0 2.6c.7 0 1.2-.1 1.6-.3c.3-.1.5-.3.5-.6c0-.3-.2-.5-.5-.7c-.4-.1-.9-.2-1.6-.2c-.7 0-1.2.1-1.6.2c-.3.2-.5.4-.5.7c0 .3.2.5.5.6c.4.2.9.3 1.6.3z" stroke="none" fill="#cccccc"/></g></svg>