<?xml version="1.0" standalone="no"?><!DOCTYPE svg PUBLIC "-//W3C//DTD SVG 1.1//EN" "http://www.w3.org/Graphics/SVG/1.1/DTD/svg11.dtd"><svg xmlns="http://www.w3.org/2000/svg" version="1.1" width="390px" height="72.3px" viewBox="0 -2 390 72.3" style="top:-2px"><desc>매해 노사합동 사회공헌기금을 마련해 다양한 사회공헌활동을 추진하고 있다. 2021년에는 30억 원의 기금을 출연해 협력업체 직원 자녀 학자금 지원, 북한 이탈주민 지원, 다문화 가정 지원, 사회복지기관 환경개선...</desc><defs/><g id="Polygon128484"><path d="m7.8 59.4v.6H1.6v-3.7h6.2v.6H2.5v.9h5v.6h-5v1h5.3zM.5 60.9h8.3v.6H.5v-.6zm1 2.2v-.7h6.2v2.8h-.8v-2.1H1.5zM16.4 56h.8v9.2h-.8V56zm-6.1 1s4.25.03 4.2 0c0 .7 0 1.3-.2 1.9c-.1.7-.4 1.2-.7 1.8c-.4.5-.8 1-1.4 1.5c-.5.5-1.1.9-1.9 1.3l-.5-.7c1.3-.6 2.2-1.3 2.8-2.2c.7-.8 1-1.8 1.1-2.9h-3.4v-.7zm14.4 2.2v2.2h-.8v-5.2h.8v2.3h1.1v-2.4h.8v5.6h-.8v-2.5h-1.1zm-1.2 1.1l-.5.7c-.4-.2-.8-.4-1.1-.8c-.3-.3-.5-.6-.7-1c-.1.4-.4.8-.7 1.2c-.3.4-.7.6-1.1.8l-.5-.6c.3-.1.6-.3.8-.5c.2-.2.4-.5.6-.7c.2-.2.3-.5.4-.8c.1-.2.1-.5.1-.8c.02.05 0-1.2 0-1.2h.8s.02 1.25 0 1.2c0 .3.1.5.2.8c0 .2.2.5.3.7l.6.6c.2.2.5.3.8.4zm.1 1.6c.5 0 .9 0 1.3.1c.4.1.7.2.9.3c.3.2.5.3.6.5c.2.2.3.5.3.7c0 .3-.1.5-.3.7c-.1.2-.3.4-.6.5c-.2.2-.5.3-.9.4c-.4 0-.8.1-1.3.1c-.5 0-.9-.1-1.3-.1c-.3-.1-.7-.2-.9-.4c-.3-.1-.5-.3-.6-.5c-.2-.2-.2-.4-.2-.7c0-.2 0-.5.2-.7c.1-.2.3-.3.6-.5c.2-.1.6-.2.9-.3c.4-.1.8-.1 1.3-.1zm0 2.6c.7 0 1.3 0 1.6-.2c.4-.2.6-.4.6-.8c0-.3-.2-.5-.6-.7c-.3-.2-.9-.3-1.6-.3c-.7 0-1.2.1-1.6.3c-.4.2-.6.4-.6.7c0 .4.2.6.6.8c.4.2.9.2 1.6.2zm13.2-8.4h.8v9.1h-.8v-9.1zm-3.4 1.6s.03 1.14 0 1.1c0 .4.1.8.2 1.2c.1.4.3.7.5 1.1c.3.3.5.6.8.8c.3.3.6.5 1 .6l-.5.7c-.5-.2-1-.6-1.4-1.1c-.5-.5-.8-1.1-1-1.7c-.1.3-.2.7-.4 1c-.2.3-.3.6-.5.8c-.2.3-.5.5-.7.7c-.2.2-.5.4-.7.5l-.5-.6c.3-.2.6-.4.9-.7c.3-.3.5-.6.8-.9c.2-.4.4-.8.5-1.2c.1-.4.2-.8.2-1.2c-.01.04 0-1.1 0-1.1h-2.1v-.7h5.1v.7h-2.2zm10.7 3.7h1.9V56h.8v7h-.8v-.9h-1.9v-.7zm-1.8-1.8c-.4 0-.7 0-.9-.1c-.3-.1-.6-.2-.8-.3c-.2-.2-.3-.3-.4-.5c-.1-.2-.2-.5-.2-.7c0-.2.1-.5.2-.7c.1-.2.2-.3.4-.5c.2-.1.5-.2.8-.3c.2-.1.5-.1.9-.1c.3 0 .6 0 .9.1c.3.1.5.2.7.3c.2.2.4.3.5.5c.1.2.1.5.1.7c0 .2 0 .5-.1.7c-.1.2-.3.3-.5.5c-.2.1-.4.2-.7.3c-.3.1-.6.1-.9.1zm0-2.6c-.5 0-.8.1-1.1.3c-.3.2-.4.4-.4.7c0 .3.1.5.4.7c.3.2.6.3 1.1.3c.4 0 .8-.1 1-.3c.3-.2.4-.4.4-.7c0-.3-.1-.5-.4-.7c-.2-.2-.6-.3-1-.3zm-.4 5.7s.04-1.78 0-1.8c-.4 0-.9.1-1.3.1h-1.2l-.1-.7h1.4c.4 0 .9 0 1.4-.1h1.6c.5-.1 1-.1 1.5-.2l.1.6c-.5.1-.9.1-1.3.2c-.4 0-.8 0-1.2.1c-.02-.02 0 1.8 0 1.8h-.9zm-.5 1.6h5.7v.7h-6.5v-2.7h.8v2zm16.5-5.5v.7h-6.3v-3.1h6.3v.7h-5.4v1.7h5.4zm-7.3 1.6h8.3v.7h-8.3v-.7zm4.1 1.5c1 0 1.8.1 2.3.4c.6.3.9.7.9 1.2c0 .6-.3 1-.9 1.3c-.5.2-1.3.4-2.3.4c-.9 0-1.7-.2-2.3-.4c-.5-.3-.8-.7-.8-1.3c0-.5.3-.9.8-1.2c.6-.3 1.4-.4 2.3-.4zm0 2.6c.8 0 1.3-.1 1.7-.2c.4-.2.6-.4.6-.8c0-.3-.2-.5-.6-.7c-.4-.2-.9-.3-1.7-.3c-.7 0-1.2.1-1.6.3c-.5.2-.7.4-.7.7c0 .4.2.6.7.8c.4.1.9.2 1.6.2zm15.7-4.7v.6h-1.5v4.8h-.8v-9.1h.8v3.7h1.5zm-5.5-3s.03 1.68 0 1.7c0 .4.1.8.2 1.2c.1.4.3.7.5 1.1c.2.3.5.7.8.9c.2.3.5.5.9.7l-.6.7c-.5-.3-.9-.7-1.3-1.2c-.4-.5-.7-1-.9-1.7c-.2.7-.5 1.3-.9 1.8c-.4.5-.8 1-1.3 1.2l-.5-.6c.3-.2.6-.4.9-.7c.3-.3.5-.6.7-1c.2-.4.4-.8.5-1.2c.1-.4.2-.8.2-1.2c.01-.02 0-1.7 0-1.7h.8zm11.9.4v.6h-5.5v-.6h2.4v-1.1h.8v1.1h2.3zm.9-1.1h.8v9.1h-.8v-9.1zm-3.2 5.6v1c.4 0 .9-.1 1.3-.1c.4 0 .9-.1 1.3-.1v.6c-.5.1-1 .1-1.5.2c-.5 0-1 .1-1.6.1h-1.4c-.5.1-1 .1-1.4.1l-.1-.7c.4 0 .8-.1 1.2-.1h1.4v-1c-.6 0-1-.2-1.4-.5c-.3-.3-.4-.7-.4-1.2c0-.2 0-.4.1-.6c.1-.3.3-.4.5-.6c.2-.1.4-.2.7-.3c.2-.1.5-.1.9-.1c.3 0 .6 0 .9.1c.2.1.5.2.7.3c.2.2.3.3.4.6c.1.2.2.4.2.6c0 .5-.2.9-.5 1.2c-.3.3-.8.5-1.3.5zM72.7 60c0 .4.1.6.3.8c.3.2.6.3 1.1.3c.4 0 .7-.1 1-.3c.2-.2.4-.4.4-.8c0-.3-.2-.5-.4-.7c-.3-.2-.6-.3-1-.3c-.5 0-.8.1-1.1.3c-.2.2-.3.4-.3.7zm14.6-1.2h1.4v.7h-1.4v3.3h-.8V56h.8v2.8zm-2.1.1c0 .4-.1.7-.2 1c-.1.2-.3.5-.5.7c-.2.2-.5.3-.8.4c-.3.1-.6.2-.9.2c-.4 0-.7-.1-1-.2c-.3-.1-.5-.2-.7-.4c-.2-.2-.4-.5-.5-.7c-.1-.3-.2-.6-.2-1c0-.3.1-.6.2-.9c.1-.3.3-.5.5-.7c.2-.2.4-.3.7-.5c.3-.1.6-.1 1-.1c.3 0 .6 0 .9.1c.3.2.6.3.8.5c.2.2.4.4.5.7c.1.3.2.6.2.9zm-4 0c0 .3.1.5.1.7c.1.1.2.3.4.4c.1.2.3.3.5.4c.2 0 .4.1.6.1c.2 0 .4-.1.6-.1c.2-.1.4-.2.5-.4c.1-.1.3-.3.3-.4c.1-.2.2-.4.2-.7c0-.2-.1-.4-.2-.6c0-.2-.2-.3-.3-.5c-.1-.1-.3-.2-.5-.3c-.2-.1-.4-.1-.6-.1c-.2 0-.4 0-.6.1c-.2.1-.4.2-.5.3c-.2.2-.3.3-.4.5c0 .2-.1.4-.1.6zm1.3 3.2v2.2h5.2v.7h-6.1v-2.9h.9zm11.8-3.5h1.8v-2.5h.8v6.7h-.8v-3.5h-1.8v-.7zm.5 2.1l-.4.7c-.5-.2-1-.5-1.4-.8c-.3-.4-.6-.8-.8-1.3c-.2.5-.5 1-.9 1.4c-.4.4-.9.7-1.4.9l-.5-.7c.4-.1.7-.3 1-.5c.2-.2.5-.4.7-.7c.2-.2.4-.5.5-.8c.1-.3.1-.6.1-1c.04.03 0-.4 0-.4h-2v-.7h4.9v.7h-2s-.03.42 0 .4c0 .3 0 .6.1.9c.1.3.3.5.5.8c.2.2.4.5.7.7c.3.2.6.3.9.4zm-2.9 3.6h5.3v.7h-6.1v-2.8h.8v2.1zm13.8-6h1.3v.7h-1.3v2.4h-.9v-5.3h.9v2.2zm-2.5-1.6v4H99v-4h4.2zm-.9 3.3v-2.6h-2.5v2.6h2.5zm.5 1.8c.4 0 .8 0 1.2.1c.4 0 .7.2 1 .3c.2.2.4.3.6.5c.1.3.2.5.2.8c0 .2-.1.5-.2.7c-.2.2-.4.4-.6.5c-.3.2-.6.3-1 .4c-.4.1-.8.1-1.2.1c-.5 0-.9 0-1.3-.1c-.4-.1-.7-.2-.9-.4c-.3-.1-.5-.3-.6-.5c-.2-.2-.2-.5-.2-.7c0-.3 0-.5.2-.8c.1-.2.3-.3.6-.5c.2-.1.5-.3.9-.3c.4-.1.8-.1 1.3-.1zm0 2.7c.6 0 1.2-.1 1.6-.3c.4-.1.5-.4.5-.7c0-.4-.1-.6-.5-.8c-.4-.2-1-.3-1.6-.3c-.7 0-1.2.1-1.6.3c-.4.2-.6.4-.6.8c0 .3.2.6.6.7c.4.2.9.3 1.6.3zm14.1-6.1h1.4v.7h-1.4v2.4h-.8V56h.8v2.4zm-6.6-1.7s4.17.02 4.2 0c0 .6-.1 1.1-.3 1.6c-.2.5-.5 1-.9 1.4c-.3.4-.8.8-1.3 1.1c-.5.3-1.1.5-1.8.7l-.3-.6c1.1-.4 1.9-.8 2.6-1.4c.6-.6 1-1.3 1.1-2.1h-3.3v-.7zm3.8 4.9c.4 0 .8.1 1.2.2c.4 0 .7.2.9.3c.3.2.5.3.6.6c.2.2.3.4.3.7c0 .3-.1.5-.3.7c-.1.3-.3.5-.6.6c-.2.2-.5.3-.9.4c-.4 0-.8.1-1.2.1c-.5 0-.9-.1-1.2-.1c-.4-.1-.7-.2-1-.4c-.3-.1-.5-.3-.6-.6c-.1-.2-.2-.4-.2-.7c0-.3.1-.5.2-.7c.1-.3.3-.4.6-.6c.3-.1.6-.3 1-.3c.3-.1.7-.2 1.2-.2zm0 2.9c.6 0 1.2-.1 1.5-.3c.4-.2.6-.4.6-.8c0-.3-.2-.6-.6-.8c-.3-.2-.9-.3-1.5-.3c-.7 0-1.2.1-1.6.3c-.4.2-.6.5-.6.8c0 .4.2.6.6.8c.4.2.9.3 1.6.3zm13.4-4.6v.7h-1.4v4.6h-.9V56h.9v3.9h1.4zm-3-2.7v.6h-5.4v-.6h2.3v-1.1h.8v1.1h2.3zm-2.3 4.5v1c.5 0 .9-.1 1.3-.1c.4 0 .8-.1 1.2-.1v.6c-.4.1-.9.1-1.4.2c-.6 0-1.1.1-1.5.1c-.5 0-1 0-1.5.1H119l-.1-.7c.4 0 .8 0 1.2-.1h1.3v-1c-.5 0-1-.2-1.3-.5c-.3-.3-.4-.7-.4-1.2c0-.2 0-.4.1-.6c.1-.3.3-.4.5-.6c.1-.1.4-.2.6-.3c.3-.1.6-.1.9-.1c.3 0 .6 0 .9.1c.3.1.5.2.7.3c.2.2.3.3.4.6c.1.2.2.4.2.6c0 .5-.2.9-.5 1.2c-.3.3-.7.5-1.3.5zm-1.7-1.7c0 .4.1.6.3.8c.3.2.6.3 1 .3c.4 0 .8-.1 1-.3c.3-.2.4-.4.4-.8c0-.3-.1-.5-.4-.7c-.2-.2-.6-.3-1-.3c-.4 0-.7.1-1 .3c-.2.2-.3.4-.3.7zm14.1-2.4v-.7h-5.4v-.6h6.2v1.9h-5.3v.8h5.5v.6h-6.3v-2h5.3zm-6.4 2.7h8.3v.6h-8.3v-.6zm1.8 3.3v.9h5.8v.6h-6.6V63h5.4v-.7h-5.4v-.6h6.3v1.9H130zm16.1-7.5h.9v9.1h-.9v-9.1zm-3.6 4.1c-.4 0-.7 0-1-.1c-.3-.1-.5-.2-.7-.4c-.2-.2-.4-.3-.5-.6c-.1-.2-.2-.5-.2-.7c0-.3.1-.6.2-.8c.1-.2.3-.4.5-.6c.2-.2.4-.3.7-.4c.3-.1.6-.1 1-.1c.3 0 .6 0 .9.1c.3.1.5.2.7.4c.2.2.4.4.5.6c.1.2.2.5.2.8c0 .2-.1.5-.2.7c-.1.3-.3.4-.5.6c-.2.2-.4.3-.7.4c-.3.1-.6.1-.9.1zm0-3c-.5 0-.9.1-1.1.3c-.3.2-.5.5-.5.9c0 .3.2.6.5.8c.2.2.6.3 1.1.3c.4 0 .8-.1 1.1-.3c.2-.2.4-.5.4-.8c0-.4-.2-.7-.4-.9c-.3-.2-.7-.3-1.1-.3zm3 3.5v.6c-.8.2-1.7.3-2.6.3c.02.01 0 3.3 0 3.3h-.8v-3.2h-2.5l-.2-.7h2.9c.6-.1 1.1-.1 1.6-.1c.6-.1 1.1-.1 1.6-.2zm10.1-4.7h.8v9.2h-.8v-4.6h-1.2v4.1h-.8v-8.5h.8v3.7h1.2V56zm-4.3.3v1.3h1.9v.7h-4.6v-.7h1.9v-1.3h.8zm-.4 2.6c.3 0 .6 0 .8.1c.2.2.4.3.6.5c.2.2.3.4.4.6c.1.3.2.6.2.9c0 .3-.1.6-.2.8c-.1.3-.2.5-.4.7c-.2.2-.4.3-.6.4c-.2.1-.5.2-.8.2c-.3 0-.5-.1-.8-.2c-.2-.1-.4-.2-.6-.4c-.2-.2-.3-.4-.4-.7c-.1-.2-.1-.5-.1-.8c0-.3 0-.6.1-.9c.1-.2.2-.4.4-.6c.2-.2.4-.3.6-.5c.3-.1.5-.1.8-.1zm0 3.5c.4 0 .7-.2.9-.4c.2-.3.3-.6.3-1c0-.2 0-.4-.1-.6c0-.1-.1-.3-.2-.4c-.1-.1-.3-.2-.4-.3c-.2-.1-.3-.1-.5-.1c-.4 0-.7.1-.9.4c-.2.2-.3.6-.3 1c0 .4.1.7.3 1c.3.2.6.4.9.4zm15.7-6.4h.8v9.2h-.8v-3.5s-2.28-.04-2.3 0c-.2.4-.4.8-.8 1c-.3.3-.7.4-1.1.4c-.4 0-.7 0-1-.2c-.2-.1-.5-.4-.7-.6c-.2-.3-.4-.7-.5-1c-.1-.4-.1-.9-.1-1.4c0-.5 0-.9.1-1.3c.1-.4.3-.7.5-1c.2-.3.5-.5.7-.6c.3-.2.6-.3 1-.3c.4 0 .8.2 1.1.4c.3.2.6.6.8 1h2.3V56zm-4.2 6.4c.2 0 .4-.1.5-.2c.2-.1.4-.3.5-.5c.2-.2.3-.5.3-.8c.1-.3.1-.6.1-1c0-.3 0-.7-.1-1c0-.3-.1-.5-.3-.7c-.1-.2-.3-.4-.5-.5c-.1-.1-.3-.2-.5-.2c-.3 0-.5.1-.6.2c-.2.1-.4.3-.5.5c-.2.2-.3.4-.3.7c-.1.3-.1.7-.1 1c0 .4 0 .7.1 1c0 .3.1.6.3.8c.1.2.3.4.5.5c.1.1.3.2.6.2zm2.2-2.5c0 .5 0 .8-.1 1.1c.03-.02 2.1 0 2.1 0v-2.2s-2.11-.03-2.1 0c0 .2.1.3.1.5v.6zm11.2-3.9h.8v9.2h-.8v-5H174v-.6h1.8V56zm-5.6 4.1s.05 2.2 0 2.2h1.1c.4 0 .7 0 1-.1h1c.3-.1.6-.1.9-.2l.1.7c-.3.1-.7.1-1 .1c-.3.1-.6.1-1 .1c-.3.1-.7.1-1 .1h-1.9v-3.6h3.3v-1.8h-3.3v-.7h4.1v3.2h-3.3zm17.3-3.8v3.7h-6.1v-3.7h.9v1.2h4.4v-1.2h.8zm-.8 3v-1.2h-4.4v1.2h4.4zm-6.4 1.6h8.3v.6H185v1.8h-.9v-1.8h-3.8v-.6zm1.9 1.6v1.8h5.5v.7h-6.3v-2.5h.8zM198 59h-1.4v2.1h1.4v.7h-1.4v3.4h-.9v-9.1h.9v2.2h1.4v.7zm-6-2.3c.3 0 .6.1.9.3c.3.1.5.3.7.6c.2.3.4.6.5 1c.1.4.2.8.2 1.3c0 .5-.1 1-.2 1.4c-.1.3-.3.7-.5 1c-.2.2-.4.5-.7.6c-.3.2-.6.2-.9.2c-.4 0-.7 0-1-.2c-.3-.1-.5-.4-.7-.6c-.2-.3-.4-.7-.5-1c-.1-.4-.1-.9-.1-1.4c0-.5 0-.9.1-1.3c.1-.4.3-.7.5-1c.2-.3.4-.5.7-.6c.3-.2.6-.3 1-.3zm0 5.7c.2 0 .4-.1.6-.2c.1-.1.3-.3.4-.5c.2-.2.3-.5.4-.8c0-.3.1-.6.1-1c0-.3-.1-.7-.1-1c-.1-.3-.2-.5-.4-.7c-.1-.2-.3-.4-.4-.5c-.2-.1-.4-.2-.6-.2c-.3 0-.5.1-.6.2c-.2.1-.4.3-.5.5c-.2.2-.3.4-.3.7c-.1.3-.1.7-.1 1c0 .4 0 .7.1 1c0 .3.1.6.3.8c.1.2.3.4.5.5c.1.1.3.2.6.2zm13.3-6.4h.9v9.2h-.9V56zm-3.6.7c.3 0 .7.1 1 .2c.3.1.5.2.7.4c.2.2.4.4.5.7c.2.3.2.5.2.9c0 .3 0 .6-.2.8c-.1.3-.3.5-.5.7c-.2.2-.4.4-.7.5c-.3.1-.7.1-1 .1c-.4 0-.7 0-1-.1c-.3-.1-.6-.3-.8-.5c-.2-.2-.4-.4-.5-.7c-.1-.2-.2-.5-.2-.8c0-.4.1-.6.2-.9c.1-.3.3-.5.5-.7c.2-.2.5-.3.8-.4c.3-.1.6-.2 1-.2zm0 .7c-.3 0-.5.1-.7.1c-.2.1-.4.2-.5.3c-.1.2-.3.3-.3.5c-.1.2-.2.3-.2.6c0 .2.1.4.2.5c0 .2.2.4.3.5c.1.1.3.2.5.3c.2.1.4.1.7.1c.2 0 .4 0 .6-.1c.2-.1.4-.2.5-.3c.2-.1.3-.3.4-.5c.1-.1.1-.3.1-.5c0-.3 0-.4-.1-.6c-.1-.2-.2-.3-.4-.5c-.1-.1-.3-.2-.5-.3c-.2 0-.4-.1-.6-.1zm-2.8 5.8l-.1-.7h1.3c.5 0 1 0 1.5-.1h1.6c.5-.1 1-.1 1.5-.2l.1.6c-.5.1-1 .2-1.6.2c-.5.1-1 .1-1.5.1c-.5.1-1 .1-1.5.1h-1.3zm19.6-3.4v.6H217v4.8h-.8v-9.1h.8v3.7h1.5zm-5.5-3s.04 1.68 0 1.7c0 .4.1.8.2 1.2c.1.4.3.7.5 1.1c.2.3.5.7.8.9c.2.3.5.5.9.7l-.6.7c-.4-.3-.9-.7-1.3-1.2c-.4-.5-.7-1-.9-1.7c-.2.7-.5 1.3-.9 1.8c-.4.5-.8 1-1.3 1.2l-.5-.6c.3-.2.6-.4.9-.7c.3-.3.5-.6.7-1c.2-.4.4-.8.5-1.2c.1-.4.2-.8.2-1.2c.01-.02 0-1.7 0-1.7h.8zm11.9.4v.6h-5.5v-.6h2.4v-1.1h.8v1.1h2.3zm.9-1.1h.8v9.1h-.8v-9.1zm-3.2 5.6v1c.4 0 .9-.1 1.3-.1c.4 0 .9-.1 1.3-.1v.6c-.5.1-1 .1-1.5.2c-.5 0-1 .1-1.5.1h-1.5c-.5.1-1 .1-1.4.1l-.1-.7c.4 0 .8-.1 1.2-.1h1.4v-1c-.6 0-1-.2-1.3-.5c-.4-.3-.5-.7-.5-1.2c0-.2 0-.4.1-.6c.1-.3.3-.4.5-.6c.2-.1.4-.2.7-.3c.2-.1.5-.1.9-.1c.3 0 .6 0 .9.1c.2.1.5.2.7.3c.2.2.3.3.4.6c.1.2.2.4.2.6c0 .5-.2.9-.5 1.2c-.3.3-.8.5-1.3.5zm-1.8-1.7c0 .4.1.6.4.8c.2.2.5.3 1 .3c.4 0 .7-.1 1-.3c.2-.2.4-.4.4-.8c0-.3-.2-.5-.4-.7c-.3-.2-.6-.3-1-.3c-.5 0-.8.1-1 .3c-.3.2-.4.4-.4.7zm13.9-2.7c.02-.02 0-.1 0-.1h-5.4v-.7h6.2s.05.78 0 .8v1.1c0 .4-.1.8-.2 1.3l-.8-.1c.1-.5.2-.9.2-1.2v-1.1zm-2.1 3h4v.7h-8.3v-.7h3.4v-1.8h.9v1.8zm-.2 1.5c.5 0 1 .1 1.3.1c.4.1.8.2 1.1.4c.2.1.4.3.6.5c.1.2.2.4.2.7c0 .3-.1.5-.2.7c-.2.2-.4.4-.6.5c-.3.2-.7.3-1.1.4c-.3 0-.8.1-1.3.1c-.5 0-.9-.1-1.3-.1c-.4-.1-.7-.2-1-.4c-.3-.1-.5-.3-.6-.5c-.2-.2-.3-.4-.3-.7c0-.3.1-.5.3-.7c.1-.2.3-.4.6-.5c.3-.2.6-.3 1-.4c.4 0 .8-.1 1.3-.1zm0 2.7c.7 0 1.3-.1 1.7-.2c.5-.2.7-.5.7-.8c0-.3-.2-.6-.7-.8c-.4-.1-1-.2-1.7-.2c-.7 0-1.3.1-1.7.2c-.4.2-.6.5-.6.8c0 .3.2.6.6.8c.4.1 1 .2 1.7.2zm10.4-7.3v.6h-5.3v-.6h2.3V56h.8v1.2h2.2zm-.2 2h1.6v-3.1h.8v6.8h-.8v-3h-1.6v-.7zm-.3.8c0 .3-.1.5-.2.7c-.1.2-.2.4-.4.6c-.2.1-.4.2-.7.3c-.2.1-.5.1-.8.1c-.3 0-.6 0-.9-.1c-.2-.1-.5-.2-.7-.3c-.1-.2-.3-.4-.4-.6c-.1-.2-.2-.4-.2-.7c0-.2.1-.4.2-.6c.1-.3.3-.4.4-.6c.2-.1.5-.3.7-.3c.3-.1.6-.2.9-.2c.3 0 .6.1.8.2c.3 0 .5.2.7.3c.2.2.3.3.4.6c.1.2.2.4.2.6zm-3.5 0c0 .4.2.6.4.8c.3.2.6.3 1 .3c.4 0 .7-.1.9-.3c.3-.2.4-.4.4-.8c0-.3-.1-.5-.4-.7c-.2-.2-.5-.3-.9-.3c-.4 0-.7.1-1 .3c-.2.2-.4.4-.4.7zm1.2 4.3h5.3v.7h-6.1v-2.6h.8v1.9zm12.1-7.6v.6h-5.2v-.6h2.2v-.8h.8v.8h2.2zm1.7 1.7h1.3v.7h-1.3v2.3h-.9V56h.9v2.4zm-1.4 1.9v.6c-.4.1-.9.1-1.4.2c-.5 0-1 .1-1.5.1h-2.8l-.1-.6h2.5v-.6c-.5 0-1-.1-1.3-.3c-.3-.3-.4-.5-.4-.9c0-.4.2-.7.5-.9c.4-.2.9-.3 1.6-.3c.7 0 1.2.1 1.6.3c.3.2.5.5.5.9c0 .4-.1.6-.4.8c-.3.2-.8.4-1.3.4v.5h1.3c.4-.1.8-.1 1.2-.2zm-4.2-1.5c0 .2.1.4.3.5c.3.1.6.2 1 .2c.4 0 .7-.1 1-.2c.2-.1.3-.3.3-.5c0-.2-.1-.3-.3-.5c-.3-.1-.6-.1-1-.1c-.4 0-.7 0-1 .1c-.2.2-.3.3-.3.5zm.5 4.9v.8h5.4v.6h-6.2v-2h5v-.7h-5.1v-.6h6v1.9h-5.1zm11.7-3.1h3.7v.6h-8.2v-.6h3.7v-1.1h-2.7v-3h6.2v.6h-5.4v1.7h5.5v.7h-2.8v1.1zm-.4 1.3c1 0 1.7.1 2.3.4c.6.3.8.7.8 1.2c0 .6-.2 1-.8 1.3c-.6.2-1.3.4-2.3.4c-1 0-1.7-.2-2.3-.4c-.6-.3-.8-.7-.8-1.3c0-.5.2-.9.8-1.2c.6-.3 1.3-.4 2.3-.4zm0 2.6c.7 0 1.3 0 1.7-.2c.4-.2.6-.4.6-.8c0-.3-.2-.5-.6-.7c-.4-.2-1-.3-1.7-.3c-.7 0-1.3.1-1.7.3c-.4.2-.6.4-.6.7c0 .4.2.6.6.8c.4.2 1 .2 1.7.2zm9.2-5.1c-1 0-1.8-.2-2.4-.4c-.6-.3-.8-.7-.8-1.2c0-.5.2-.9.8-1.2c.6-.3 1.4-.4 2.4-.4c1 0 1.8.1 2.3.4c.6.3.9.7.9 1.2c0 .5-.3.9-.9 1.2c-.5.2-1.3.4-2.3.4zm0-2.6c-.8 0-1.4.1-1.8.3c-.4.1-.6.4-.6.7c0 .3.2.5.6.7c.4.2 1 .2 1.8.2c.7 0 1.3 0 1.7-.2c.4-.2.6-.4.6-.7c0-.3-.2-.6-.6-.7c-.4-.2-1-.3-1.7-.3zM265 60h8.3v.7H265v-.7zm1.9 3.5v.9h5.6v.7h-6.4v-2.2h5.3v-.8H266v-.7h6.3v2.1h-5.4zm10.2-2.6l-.3-.7l1.2-.3c.4-.1.7-.3 1-.5c.3-.2.6-.5.8-.7c.1-.3.2-.6.2-.9c.02.05-2.9 0-2.9 0v-.6h2.9v-1.1h.9v1.1h2.9v.6s-2.93.05-2.9 0c0 .3.1.6.2.9c.2.2.4.5.7.7c.3.2.7.4 1.1.5c.3.1.7.2 1.1.3l-.2.7l-1.1-.3c-.3-.1-.6-.2-.9-.4c-.3-.2-.6-.3-.8-.5c-.2-.3-.4-.5-.6-.7c-.1.2-.3.4-.5.7c-.2.2-.5.3-.8.5c-.3.2-.6.3-.9.4l-1.1.3zm7.5.7v.7h-3.7v2.9h-.9v-2.9h-3.7v-.7h8.3zm8.4-5.5v6.6h-.8v-6.6h.8zm-1.9 4.7l-.4.6c-.6-.1-1-.4-1.4-.8c-.4-.3-.7-.8-.9-1.2c-.2.5-.5.9-.9 1.3c-.4.4-.9.7-1.5.9l-.4-.6c.4-.2.7-.3 1-.5l.7-.7c.2-.3.3-.6.5-.9c.1-.3.1-.6.1-.9c.02-.02 0-.5 0-.5h-2.1v-.7h5.1v.7h-2.1s-.02.48 0 .5c0 .3 0 .6.1.9c.2.3.3.5.5.8c.2.2.5.4.8.6c.2.2.5.4.9.5zm-3.2 3.5h5.4v.7h-6.2v-2.9h.8v2.2zm12.5-5.1v2.4h-.8v-5.4h.8v2.4h1.2v-2.5h.8v5.6h-.8v-2.5h-1.2zm-1.1-2.1v.7h-4.7v-.7h1.9v-1h.9v1h1.9zm-2.3 4.2c-.3 0-.6 0-.8-.1c-.3 0-.5-.1-.7-.3c-.1-.1-.3-.3-.4-.5c-.1-.2-.1-.4-.1-.6c0-.3 0-.5.1-.7c.1-.2.3-.3.4-.5c.2-.1.4-.2.7-.3c.2 0 .5-.1.8-.1c.2 0 .5.1.7.1c.3.1.5.2.7.3c.1.2.3.3.4.5c.1.2.1.4.1.7c0 .2 0 .4-.1.6c-.1.2-.3.4-.4.5c-.2.2-.4.3-.7.3c-.2.1-.5.1-.7.1zm0-2.5c-.4 0-.7.1-.9.3c-.2.2-.4.4-.4.7c0 .3.2.5.4.7c.2.1.5.2.9.2c.3 0 .6-.1.8-.2c.2-.2.4-.4.4-.7c0-.3-.2-.5-.4-.7c-.2-.2-.5-.3-.8-.3zm4.3 3.2s-.03.29 0 .3c0 .2 0 .4.1.7c.1.2.2.4.4.6c.1.2.3.3.5.5c.3.1.5.3.8.4l-.4.6c-.5-.2-.8-.4-1.2-.7c-.3-.3-.5-.6-.7-1c-.1.4-.3.7-.6 1c-.2.3-.6.6-1 .8c-.5-.2-.8-.4-1.1-.7c-.3-.3-.5-.7-.6-1.1c-.2.4-.4.7-.7 1c-.3.3-.7.5-1.2.7l-.4-.6c.3-.1.6-.3.8-.4l.6-.6c.2-.2.3-.4.4-.6c0-.2.1-.4.1-.6c-.02-.01 0-.3 0-.3h.8v.3c0 .4.1.8.3 1.1c.2.4.5.7 1 1c.2-.2.4-.3.5-.5c.2-.2.3-.3.4-.5l.3-.6v-.5c.04-.01 0-.3 0-.3h.9zm11.1-2.3v.6h-1.5v4.9h-.9V56h.9v3.7h1.5zm-7.3-2.1s-.03 4.61 0 4.6h2.1c.4-.1.7-.1 1-.1c.3-.1.7-.1 1-.2l.1.7c-.4.1-.7.1-1 .2c-.4 0-.7 0-1.1.1H305c-.04.03-.8 0-.8 0v-6h4.3v.7h-3.4zm7.8 7v-1h.9v1h-.9z" stroke="none" fill="#111111"/></g><g id="Polygon128483"><path d="m9.1 41.2v.6H7.6v4.9h-.9v-9.2h.9v3.7h1.5zm-7.3-2.1s-.04 4.61 0 4.6h2.1c.4-.1.7-.1 1-.1c.3-.1.7-.1 1-.2l.1.7c-.4.1-.7.1-1 .2c-.4 0-.7 0-1.1.1H1.7c-.05.03-.8 0-.8 0v-6h4.3v.7H1.8zM16.9 38v3.2h-6.1V38h6.1zm-.8 2.5v-1.9h-4.5v1.9h4.5zm-6.4 1.7h8.3v.7h-3.7v1.8h-.8v-1.8H9.7v-.7zm1.9 1.7v1.9h5.5v.7h-6.3v-2.6h.8zm15.8-2.5v.7h-1.5v4.6h-.8v-9.2h.8v3.9h1.5zm-3-2.7v.6H19v-.6h2.3v-1.1h.8v1.1h2.3zm-2.3 4.5v1c.4 0 .8-.1 1.3-.1c.4 0 .8-.1 1.2-.1v.6c-.5.1-1 .1-1.5.2c-.5 0-1 .1-1.5.1c-.5 0-.9 0-1.4.1h-1.3l-.1-.7c.4 0 .8 0 1.2-.1h1.3v-1c-.6 0-1-.2-1.3-.5c-.3-.3-.5-.7-.5-1.2c0-.2.1-.4.2-.6c.1-.3.2-.4.4-.6c.2-.1.5-.2.7-.3c.3-.1.6-.1.9-.1c.3 0 .6 0 .9.1c.2.1.5.2.7.3c.1.2.3.3.4.6c.1.2.2.4.2.6c0 .5-.2.9-.5 1.2c-.3.3-.8.5-1.3.5zm-1.8-1.7c0 .4.2.6.4.8c.3.2.6.3 1 .3c.4 0 .7-.1 1-.3c.2-.2.4-.4.4-.8c0-.3-.2-.5-.4-.7c-.3-.2-.6-.3-1-.3c-.4 0-.7.1-1 .3c-.2.2-.4.4-.4.7zm18.4-.2v.6h-1.5v4.8h-.8v-9.2h.8v3.8h1.5zm-8-2.8s4.13.02 4.1 0c0 .7 0 1.3-.2 1.9c-.2.6-.4 1.2-.7 1.8c-.4.5-.8 1-1.3 1.5c-.5.5-1.2.9-1.9 1.3l-.5-.7c1.2-.6 2.1-1.3 2.7-2.2c.7-.8 1-1.8 1.1-2.9c.01.01-3.3 0-3.3 0v-.7zm13.5 1.4h1.8v-2.3h.9v5.4h-.9v-2.4h-1.8v-.7zm.5 2.1l-.4.7c-.5-.2-.9-.5-1.3-.9c-.4-.3-.7-.7-.9-1.2c-.2.5-.5 1-.9 1.4c-.4.4-.9.7-1.4.9l-.4-.6c.3-.2.6-.3.9-.5c.3-.3.5-.5.7-.8c.2-.2.4-.5.5-.8c.1-.4.2-.7.2-1c-.02 0 0-.3 0-.3h-2.1v-.7h4.9v.7h-2v.3c0 .3.1.6.2.9c.1.3.2.5.4.8c.2.2.5.4.7.6c.3.2.6.4.9.5zm-.8 1.3c.4 0 .9 0 1.2.1c.4.1.7.2 1 .3c.2.2.5.4.6.6c.1.2.2.4.2.7c0 .3-.1.5-.2.7c-.1.2-.4.4-.6.5c-.3.2-.6.3-1 .4c-.3.1-.8.1-1.2.1c-.5 0-.9 0-1.3-.1c-.4-.1-.7-.2-1-.4c-.2-.1-.4-.3-.6-.5c-.1-.2-.2-.4-.2-.7c0-.3.1-.5.2-.7l.6-.6c.3-.1.6-.2 1-.3c.4-.1.8-.1 1.3-.1zm0 2.7c.7 0 1.2-.1 1.6-.2c.4-.2.6-.5.6-.8c0-.3-.2-.6-.6-.8c-.4-.2-.9-.3-1.6-.3c-.7 0-1.3.1-1.7.3c-.4.2-.6.5-.6.8c0 .3.2.6.6.8c.4.1 1 .2 1.7.2zm13.4-8.4h.8v9.1h-.8v-9.1zm-3.4 1.6s-.03 1.14 0 1.1c0 .4 0 .8.2 1.2c.1.4.3.7.5 1.1c.2.3.5.6.8.8c.3.3.6.5.9.6l-.5.7c-.5-.2-1-.6-1.4-1.1c-.4-.5-.7-1.1-1-1.7l-.3 1c-.2.3-.4.6-.6.8c-.2.3-.4.5-.7.7c-.2.2-.5.4-.7.5l-.5-.6c.3-.2.6-.4.9-.7c.3-.3.6-.6.8-.9c.2-.4.4-.8.5-1.2c.2-.4.2-.8.2-1.2c.03.04 0-1.1 0-1.1h-2.1v-.7h5.1v.7h-2.1zm10.7 3.7h1.8v-5.4h.9v7h-.9v-.9h-1.8v-.7zm-1.9-1.8c-.3 0-.6 0-.9-.1c-.3-.1-.5-.2-.7-.3c-.2-.2-.4-.3-.5-.5c-.1-.2-.1-.5-.1-.7c0-.2 0-.5.1-.7c.1-.2.3-.3.5-.5c.2-.1.4-.2.7-.3c.3-.1.6-.1.9-.1c.3 0 .6 0 .9.1c.3.1.5.2.7.3c.2.2.4.3.5.5c.1.2.2.5.2.7c0 .2-.1.5-.2.7c-.1.2-.3.3-.5.5c-.2.1-.4.2-.7.3c-.3.1-.6.1-.9.1zm0-2.6c-.4 0-.8.1-1 .3c-.3.2-.4.4-.4.7c0 .3.1.5.4.7c.2.2.6.3 1 .3c.4 0 .8-.1 1.1-.3c.2-.2.4-.4.4-.7c0-.3-.2-.5-.4-.7c-.3-.2-.7-.3-1.1-.3zm-.3 5.7s-.02-1.78 0-1.8c-.5 0-.9.1-1.3.1h-1.3l-.1-.7h1.4c.5 0 1 0 1.5-.1h1.5c.5-.1 1-.1 1.5-.2l.1.6c-.4.1-.8.1-1.2.2c-.5 0-.9 0-1.3.1c.02-.02 0 1.8 0 1.8h-.8zm-.5 1.6h5.6v.7H61v-2.7h.9v2zm6.7.9l.4-2.1h.9l-.6 2.1h-.7zm12.7-5.4v.6h-1.5v4.8h-.8v-9.1h.8v3.7h1.5zm-5.5-3s.04 1.68 0 1.7c0 .4.1.8.2 1.2c.1.4.3.7.5 1.1c.2.3.5.7.8.9c.2.3.5.5.9.7l-.6.7c-.4-.3-.9-.7-1.3-1.2c-.4-.5-.7-1-.9-1.7c-.2.7-.5 1.3-.9 1.8c-.4.5-.8 1-1.3 1.2l-.5-.6c.3-.2.6-.4.9-.7c.3-.3.5-.6.7-1c.2-.4.4-.8.5-1.2c.1-.4.2-.8.2-1.2c.01-.02 0-1.7 0-1.7h.8zm12 .4v.6h-5.6v-.6h2.4v-1.1h.8v1.1h2.4zm.8-1.1h.8v9.1h-.8v-9.1zm-3.2 5.6v1c.4 0 .9-.1 1.3-.1c.4 0 .9-.1 1.3-.1v.6c-.5.1-1 .1-1.5.2c-.5 0-1 .1-1.5.1h-1.5c-.5.1-1 .1-1.4.1l-.1-.7c.4 0 .8-.1 1.2-.1h1.4v-1c-.6 0-1-.2-1.3-.5c-.4-.3-.5-.7-.5-1.2c0-.2 0-.4.1-.6c.1-.3.3-.4.5-.6c.2-.1.4-.2.7-.3c.3-.1.5-.1.9-.1c.3 0 .6 0 .9.1c.2.1.5.2.7.3c.2.2.3.3.4.6c.1.2.2.4.2.6c0 .5-.2.9-.5 1.2c-.3.3-.8.5-1.3.5zm-1.8-1.7c0 .4.1.6.4.8c.2.2.5.3 1 .3c.4 0 .7-.1 1-.3c.2-.2.4-.4.4-.8c0-.3-.2-.5-.4-.7c-.3-.2-.6-.3-1-.3c-.5 0-.8.1-1 .3c-.3.2-.4.4-.4.7zm12.1.8h3.7v.6h-8.3v-.6h3.7v-1.1h-2.6v-3.4h.8v1h4.5v-1h.8v3.4h-2.6v1.1zM93 39.4v1.1h4.5v-1.1H93zm-1 5.1v-.7h6.4v2.9h-.9v-2.2H92zm15-6.9h.8v9.1h-.8v-9.1zm-3.4 1.6s-.03 1.14 0 1.1c0 .4 0 .8.2 1.2c.1.4.3.7.5 1.1c.2.3.5.6.8.8c.3.3.6.5.9.6l-.5.7c-.5-.2-1-.6-1.4-1.1c-.4-.5-.7-1.1-.9-1.7c-.1.3-.3.7-.4 1c-.2.3-.4.6-.6.8c-.2.3-.4.5-.7.7c-.2.2-.4.4-.7.5l-.5-.6c.3-.2.6-.4.9-.7c.3-.3.6-.6.8-.9c.2-.4.4-.8.5-1.2c.2-.4.2-.8.2-1.2c.03.04 0-1.1 0-1.1h-2.1v-.7h5.1v.7h-2.1zm12.6-1.7h.8v9.2h-.8v-9.2zm-6.2 1s4.31.03 4.3 0c0 .7-.1 1.3-.2 1.9c-.2.7-.4 1.2-.8 1.8c-.3.5-.8 1-1.3 1.5c-.5.5-1.2.9-1.9 1.3l-.5-.7c1.2-.6 2.2-1.3 2.8-2.2c.6-.8 1-1.8 1.1-2.9H110v-.7zm15.8 2h1.3v.7h-1.3v3.2h-.9v-6.9h.9v3zm-2.3.9h-.9c.2-.6.2-1 .2-1.4c.1-.4.1-.8.1-1.1c-.01.04-3.7 0-3.7 0v-.6h4.5v1.6c0 .4-.1.9-.2 1.5zm.8.6l.1.6c-.5.1-1 .2-1.5.2c-.5.1-1 .1-1.5.1c-.5 0-.9.1-1.4.1h-1.3l-.1-.7h1.9c.04-.03 0-2 0-2h.9s-.03 1.94 0 1.9h1.5c.5-.1 1-.1 1.4-.2zm-3.5 1.8v2h5.3v.7H120v-2.7h.8zm14.6-5.4v.7h-5.3v-.7h2.2v-.9h.9v.9h2.2zm1.6 2.3h1.4v.7H137v3.3h-.8v-7.2h.8v3.2zm-1.4 2l.1.6c-.5 0-1 .1-1.5.2c-.5 0-1 .1-1.5.1h-1.4c-.5 0-.9.1-1.3.1l-.1-.7h1.1c.4 0 .9 0 1.3-.1v-.7c-.5 0-.9-.2-1.2-.4c-.3-.2-.5-.6-.5-1c0-.2.1-.4.2-.5c.1-.2.2-.4.4-.5c.2-.1.4-.2.7-.3c.2 0 .5-.1.8-.1c.4 0 .7.1.9.1c.3.1.5.2.7.3c.2.1.3.3.4.5c.1.1.2.3.2.5c0 .4-.2.8-.5 1c-.3.2-.7.4-1.2.4v.7c.4 0 .8-.1 1.2-.1c.4 0 .8-.1 1.2-.1zm-4.2-1.9c0 .3.1.5.4.6c.2.2.5.3.9.3c.5 0 .8-.1 1-.3c.3-.1.4-.3.4-.6c0-.2-.1-.4-.4-.5c-.2-.2-.5-.3-1-.3c-.4 0-.7.1-.9.3c-.3.1-.4.3-.4.5zm.7 3.4v1.6h5.2v.7h-6.1v-2.3h.9zm13.7-4.3h-2.3c-.6 1.5-1.9 2.5-3.9 3.1l-.4-.6c1.1-.4 2-.8 2.6-1.4c.7-.6 1-1.3 1.1-2.1h-3.2v-.7s4.13.03 4.1 0v.5c0 .2 0 .4-.1.5c.03.02 2.1 0 2.1 0v-1.6h.8v5.4h-.8v-1.2h-2.4v-.7h2.4v-1.2zm-2.1 3.2c.4 0 .8.1 1.2.1c.4.1.7.2 1 .4c.2.1.4.3.6.5c.1.3.2.5.2.8c0 .3-.1.5-.2.7l-.6.6c-.3.1-.6.2-1 .3c-.4.1-.8.1-1.2.1c-.5 0-.9 0-1.3-.1c-.4-.1-.7-.2-1-.3l-.6-.6c-.1-.2-.2-.4-.2-.7c0-.3.1-.5.2-.8c.2-.2.4-.4.6-.5c.3-.2.6-.3 1-.4c.4 0 .8-.1 1.3-.1zm0 2.9c.6 0 1.2-.1 1.6-.3c.4-.2.6-.5.6-.8c0-.4-.2-.6-.6-.8c-.4-.2-1-.3-1.6-.3c-.7 0-1.3.1-1.7.3c-.3.2-.5.4-.5.8c0 .3.2.6.5.8c.4.2 1 .3 1.7.3zm11.5-8.5h.8v9.2h-.8v-4.8H154v4.3h-.8v-8.4h.8v3.4h1.2v-3.7zm-6.6 1.2s3.6.02 3.6 0c0 .6-.1 1.2-.2 1.8c-.1.5-.3 1-.5 1.6c-.3.5-.6 1-1.1 1.4c-.4.5-1 .9-1.6 1.2l-.5-.6c.5-.3 1-.6 1.3-.9c.4-.4.7-.8 1-1.2c.2-.4.4-.8.5-1.2c.2-.5.2-.9.3-1.4h-2.8v-.7zm15.6 5.7v-4h-2v-.7h2v-2.1h.8v6.8h-.8zm-1.4-2.2l-.4.7c-.5-.2-1-.5-1.4-.9c-.3-.4-.6-.8-.8-1.3c-.2.5-.5 1-.9 1.4c-.4.4-.8.8-1.4 1l-.4-.7c.3-.1.6-.3.9-.5c.3-.2.5-.5.7-.7c.2-.3.4-.6.5-1c.1-.3.2-.6.2-1c-.04.02 0-1.1 0-1.1h.8v1.2c0 .3.1.6.2.9c.1.3.2.6.4.8c.2.3.4.5.7.7c.3.2.6.4.9.5zm-2.8 3.6h5.2v.7h-6.1v-2.9h.9v2.2zm16.2-8.3v5.3h-.8v-5.3h.8zm-2.7.6v3.8h-4.3v-3.8h4.3zm-.8 3.1v-2.4H170v2.4h2.7zm3.7 2.9s-2.64-.04-2.6 0c0 .2 0 .4.2.6c.2.2.4.4.7.6c.3.2.6.3.9.5c.4.1.8.2 1.2.2l-.3.7c-.4-.1-.7-.2-1-.3l-.9-.3c-.3-.2-.5-.3-.7-.5c-.3-.2-.4-.4-.6-.6c-.1.2-.3.4-.5.6c-.2.2-.5.3-.7.5l-.9.3l-1.1.3l-.2-.7c.4 0 .7-.1 1.1-.2c.4-.2.7-.3 1-.5c.2-.2.5-.4.6-.6c.2-.2.3-.4.3-.6c0-.04-2.7 0-2.7 0v-.7h2.7v-.9h.9v.9h2.6v.7zm12.1-2.8v.6H187v4.8h-.8v-9.2h.8v3.8h1.5zm-8-2.8s4.16.02 4.2 0c0 .7-.1 1.3-.3 1.9c-.1.6-.4 1.2-.7 1.8c-.3.5-.8 1-1.3 1.5c-.5.5-1.2.9-1.9 1.3l-.5-.7c1.2-.6 2.2-1.3 2.8-2.2c.6-.8.9-1.8 1-2.9c.03.01-3.3 0-3.3 0v-.7zm13.5 1.6h1.9v-2.5h.8v6.7h-.8v-3.5H194v-.7zm.6 2.1l-.5.7c-.5-.2-.9-.5-1.3-.8c-.4-.4-.7-.8-.9-1.3c-.2.5-.5 1-.9 1.4c-.4.4-.8.7-1.4.9l-.4-.7c.3-.1.7-.3.9-.5c.3-.2.6-.4.8-.7c.2-.2.3-.5.4-.8c.1-.3.2-.6.2-1v-.4h-2v-.7h4.9v.7h-2.1s.04.42 0 .4c0 .3.1.6.2.9c.1.3.3.5.5.8c.2.2.4.5.7.7c.2.2.5.3.9.4zm-2.9 3.6h5.3v.7h-6.1v-2.8h.8v2.1zm6.3.9l.4-2.1h.9l-.6 2.1h-.7zm12.7-5.4v.7h-1.5v4.7h-.8v-9.2h.8v3.8h1.5zm-5.5-1.5v.7c0 .4.1.7.2 1.1c.1.4.2.7.4 1c.2.3.5.6.7.9c.3.2.6.5.9.6l-.4.7c-.5-.3-1-.6-1.3-1.1c-.4-.5-.7-1-.9-1.6c-.2.6-.5 1.2-.9 1.7c-.4.5-.8.9-1.4 1.1l-.4-.6l.9-.6c.3-.3.5-.6.7-.9c.2-.4.4-.7.5-1.1c.1-.4.2-.8.2-1.2v-.7h-2.1v-.7h2.1v-1.4h.8v1.4h2v.7h-2zm14.6-.1h-1.4v1.2h1.4v.7h-1.4v1.5h-.8v-5.5h.8v1.4h1.4v.7zm-3.1 1.9l.1.6c-.4.1-.7.2-1.1.2c-.3 0-.6.1-1 .1h-2.2c-.05.04-.8 0-.8 0v-2.6h3.3v-1.1h-3.3v-.7h4.1v2.5h-3.2s-.04 1.26 0 1.3c.4 0 .7 0 1.1-.1h1c.4 0 .7-.1 1-.1c.3 0 .7-.1 1-.1zm-1.2 1.7c.5 0 .9.1 1.3.2c.3 0 .7.1.9.3c.3.1.5.3.6.5c.2.2.2.5.2.7c0 .3 0 .5-.2.7c-.1.2-.3.4-.6.5c-.2.2-.6.3-.9.4c-.4 0-.8.1-1.3.1c-.9 0-1.7-.2-2.2-.5c-.5-.2-.8-.7-.8-1.2c0-.5.3-.9.8-1.2c.5-.3 1.3-.5 2.2-.5zm0 2.7c.7 0 1.3-.1 1.6-.2c.4-.2.6-.5.6-.8c0-.3-.2-.6-.6-.7c-.3-.2-.9-.3-1.6-.3c-.7 0-1.2.1-1.6.3c-.4.1-.6.4-.6.7c0 .3.2.6.6.8c.4.1.9.2 1.6.2zm13.7-8.4h.9v9.1h-.9v-9.1zm-3.3 1.6s-.04 1.14 0 1.1c0 .4 0 .8.2 1.2c.1.4.3.7.5 1.1c.2.3.5.6.8.8c.3.3.6.5.9.6l-.5.7c-.5-.2-1-.6-1.4-1.1c-.4-.5-.7-1.1-1-1.7c-.1.3-.2.7-.4 1c-.1.3-.3.6-.5.8c-.2.3-.4.5-.7.7c-.2.2-.5.4-.7.5l-.5-.6c.3-.2.6-.4.9-.7c.3-.3.6-.6.8-.9c.2-.4.4-.8.5-1.2c.2-.4.2-.8.2-1.2c.02.04 0-1.1 0-1.1h-2.1v-.7h5.1v.7h-2.1zm10.7 3.7h1.8v-5.4h.9v7h-.9v-.9h-1.8v-.7zm-1.9-1.8c-.3 0-.6 0-.9-.1c-.3-.1-.5-.2-.7-.3c-.2-.2-.4-.3-.5-.5c-.1-.2-.2-.5-.2-.7c0-.2.1-.5.2-.7c.1-.2.3-.3.5-.5c.2-.1.4-.2.7-.3c.3-.1.6-.1.9-.1c.3 0 .6 0 .9.1c.3.1.5.2.7.3c.2.2.4.3.5.5c.1.2.2.5.2.7c0 .2-.1.5-.2.7c-.1.2-.3.3-.5.5c-.2.1-.4.2-.7.3c-.3.1-.6.1-.9.1zm0-2.6c-.4 0-.8.1-1.1.3c-.2.2-.4.4-.4.7c0 .3.2.5.4.7c.3.2.7.3 1.1.3c.4 0 .8-.1 1.1-.3c.2-.2.4-.4.4-.7c0-.3-.2-.5-.4-.7c-.3-.2-.7-.3-1.1-.3zm-.3 5.7s-.03-1.78 0-1.8c-.5 0-.9.1-1.3.1h-1.3l-.1-.7h1.4c.5 0 1 0 1.5-.1h1.5c.5-.1 1-.1 1.5-.2l.1.6c-.4.1-.8.1-1.2.2c-.5 0-.9 0-1.3.1c.01-.02 0 1.8 0 1.8h-.8zm-.5 1.6h5.6v.7H233v-2.7h.9v2zm6.7.9l.4-2.1h.9l-.6 2.1h-.7zm10.9-9.2h.8v9.2h-.8v-5.2h-2v-.6h2v-3.4zm-3.6 1.7s.02 1.02 0 1c0 .4.1.8.2 1.2c.1.4.3.7.5 1.1c.2.3.5.6.8.9c.3.3.6.5.9.6l-.5.7c-.2-.1-.5-.3-.7-.5c-.2-.2-.5-.4-.7-.7c-.2-.2-.3-.5-.5-.8c-.2-.3-.3-.6-.4-.9c-.2.7-.5 1.3-.9 1.9c-.4.5-.9.9-1.4 1.2l-.5-.7c.3-.1.6-.4.9-.7c.3-.2.6-.6.8-.9c.2-.4.4-.8.5-1.2c.1-.4.2-.8.2-1.2c-.02.02 0-1 0-1H245v-.7h5v.7h-2.1zm13.9 2.8l-.3.7l-1.1-.3l-.9-.6c-.3-.2-.6-.5-.9-.7l-.6-.9c-.1.3-.3.6-.5.9c-.3.2-.6.5-.9.7l-.9.6l-1.1.3l-.3-.7c.4-.1.8-.2 1.2-.4c.4-.2.7-.4 1-.7c.4-.3.6-.6.8-.9c.2-.4.3-.8.3-1.1v-.7h.9v.7c0 .3.1.7.3 1.1c.2.3.4.6.8.9c.3.3.6.5 1 .7c.4.2.8.3 1.2.4zm-3.3 2.8h3.7v.7h-8.3v-.7h3.7v-2.2h.9v2.2zm12-4.5v.7h-6.3v-3.1h6.2v.7H265v1.7h5.5zm-7.4 1.7h8.3v.7h-8.3v-.7zm.9 2.4v-.6h6.4v2.9h-.9v-2.3H264zm16.8-3.1v.6h-1.5v4.8h-.8v-9.2h.8v3.8h1.5zm-8-2.8s4.17.02 4.2 0c0 .7-.1 1.3-.3 1.9c-.1.6-.4 1.2-.7 1.8c-.3.5-.8 1-1.3 1.5c-.5.5-1.1.9-1.9 1.3l-.4-.7c1.2-.6 2.1-1.3 2.7-2.2c.6-.8.9-1.8 1-2.9c.04.01-3.3 0-3.3 0v-.7zm13.6 1.4h1.8v-2.3h.8v5.4h-.8v-2.4h-1.8v-.7zm.5 2.1l-.4.7c-.6-.2-1-.5-1.4-.9c-.4-.3-.7-.7-.8-1.2c-.2.5-.5 1-.9 1.4c-.4.4-.9.7-1.5.9l-.4-.6c.3-.2.7-.3.9-.5c.3-.3.6-.5.8-.8c.2-.2.3-.5.4-.8c.2-.4.2-.7.2-1v-.3h-2v-.7h4.9v.7h-2s-.05.3 0 .3c0 .3 0 .6.1.9c.1.3.3.5.5.8c.2.2.4.4.7.6c.2.2.5.4.9.5zm-.9 1.3c.5 0 .9 0 1.3.1c.3.1.7.2.9.3c.3.2.5.4.6.6c.2.2.2.4.2.7c0 .3 0 .5-.2.7c-.1.2-.3.4-.6.5c-.2.2-.6.3-.9.4c-.4.1-.8.1-1.3.1c-.5 0-.9 0-1.3-.1c-.4-.1-.7-.2-.9-.4c-.3-.1-.5-.3-.6-.5c-.2-.2-.3-.4-.3-.7c0-.3.1-.5.3-.7c.1-.2.3-.4.6-.6c.2-.1.5-.2.9-.3c.4-.1.8-.1 1.3-.1zm0 2.7c.7 0 1.2-.1 1.6-.2c.4-.2.6-.5.6-.8c0-.3-.2-.6-.6-.8c-.4-.2-.9-.3-1.6-.3c-.7 0-1.2.1-1.6.3c-.4.2-.6.5-.6.8c0 .3.2.6.6.8c.4.1.9.2 1.6.2zm13.4-8.4h.8v5.4h-.8v-5.4zm-1.1 4.2l-.5.7c-.5-.2-1-.5-1.3-.8c-.4-.4-.7-.9-.9-1.4c-.2.6-.5 1.1-.9 1.5c-.4.4-.9.7-1.5.9l-.4-.7c.4-.1.7-.3 1-.5l.7-.7c.2-.3.3-.6.5-.9c.1-.4.1-.7.1-1c.03-.03 0-.9 0-.9h.9s-.04.87 0 .9c0 .3 0 .6.1.9c.1.3.3.6.5.9c.2.2.4.5.7.7c.3.2.6.3 1 .4zm-4.2 2.4v-.7h6.1v3.2h-.8v-2.5h-5.3zm16.3-4.5H309v1.2h1.4v.7H309v1.5h-.8v-5.5h.8v1.4h1.4v.7zm-3.1 1.9l.1.6c-.4.1-.7.2-1.1.2c-.3 0-.6.1-1 .1H303c.04.04-.7 0-.7 0v-2.6h3.3v-1.1h-3.3v-.7h4.1v2.5h-3.3s.04 1.26 0 1.3c.4 0 .8 0 1.2-.1h1c.3 0 .7-.1 1-.1c.3 0 .7-.1 1-.1zm-1.2 1.7c.5 0 .9.1 1.3.2c.3 0 .6.1.9.3c.3.1.5.3.6.5c.1.2.2.5.2.7c0 .3-.1.5-.2.7c-.1.2-.3.4-.6.5c-.3.2-.6.3-.9.4c-.4 0-.8.1-1.3.1c-.9 0-1.7-.2-2.2-.5c-.5-.2-.8-.7-.8-1.2c0-.5.3-.9.8-1.2c.5-.3 1.3-.5 2.2-.5zm0 2.7c.7 0 1.2-.1 1.6-.2c.4-.2.6-.5.6-.8c0-.3-.2-.6-.6-.7c-.4-.2-.9-.3-1.6-.3c-.7 0-1.2.1-1.6.3c-.4.1-.6.4-.6.7c0 .3.2.6.6.8c.4.1.9.2 1.6.2zm13.7-8.4h.9v9.1h-.9v-9.1zm-3.4 1.6s.04 1.14 0 1.1c0 .4.1.8.2 1.2c.2.4.3.7.6 1.1c.2.3.4.6.7.8c.3.3.7.5 1 .6l-.5.7c-.5-.2-1-.6-1.4-1.1c-.4-.5-.8-1.1-1-1.7c-.1.3-.2.7-.4 1c-.1.3-.3.6-.5.8c-.2.3-.4.5-.7.7c-.2.2-.5.4-.7.5l-.5-.6c.3-.2.6-.4.9-.7c.3-.3.6-.6.8-.9c.2-.4.4-.8.5-1.2c.1-.4.2-.8.2-1.2c.01.04 0-1.1 0-1.1h-2.1v-.7h5.1v.7h-2.2zm10.8 3.7h1.8v-5.4h.8v7h-.8v-.9h-1.8v-.7zm-1.9-1.8c-.3 0-.7 0-.9-.1c-.3-.1-.5-.2-.7-.3c-.2-.2-.4-.3-.5-.5c-.1-.2-.2-.5-.2-.7c0-.2.1-.5.2-.7c.1-.2.3-.3.5-.5c.2-.1.4-.2.7-.3c.2-.1.6-.1.9-.1c.3 0 .6 0 .9.1c.3.1.5.2.7.3c.2.2.4.3.5.5c.1.2.1.5.1.7c0 .2 0 .5-.1.7c-.1.2-.3.3-.5.5c-.2.1-.4.2-.7.3c-.3.1-.6.1-.9.1zm0-2.6c-.4 0-.8.1-1.1.3c-.2.2-.4.4-.4.7c0 .3.2.5.4.7c.3.2.7.3 1.1.3c.4 0 .8-.1 1-.3c.3-.2.4-.4.4-.7c0-.3-.1-.5-.4-.7c-.2-.2-.6-.3-1-.3zm-.3 5.7s-.04-1.78 0-1.8c-.5 0-.9.1-1.4.1h-1.2l-.1-.7h1.4c.5 0 1 0 1.5-.1h1.5c.5-.1 1-.1 1.5-.2l.1.6c-.4.1-.8.1-1.3.2c-.4 0-.8 0-1.2.1v1.8h-.8zm-.5 1.6h5.6v.7h-6.5v-2.7h.9v2zm6.7.9l.4-2.1h.9l-.6 2.1h-.7zm11.1-9.2h.8v9.2h-.8v-9.2zm-1.8 2.3v-2.1h.8v8.5h-.8v-3s-1.39.03-1.4 0c-.2.5-.4.9-.7 1.1c-.2.3-.6.4-1 .4c-.3 0-.6-.1-.8-.2c-.2-.2-.4-.4-.6-.7c-.2-.3-.3-.6-.4-1c-.1-.4-.1-.8-.1-1.3c0-.5 0-.9.1-1.3c.1-.4.2-.8.4-1c.2-.3.4-.5.6-.7c.2-.1.5-.2.8-.2c.4 0 .8.1 1 .4c.3.2.6.6.7 1.1c.01-.05 1.4 0 1.4 0zm-3.1 4.1c.4 0 .7-.2.9-.6c.2-.5.3-1.1.3-1.8c0-.8-.1-1.3-.3-1.8c-.2-.4-.5-.6-.9-.6c-.4 0-.7.2-.9.6c-.2.5-.3 1-.3 1.8c0 .7.1 1.3.3 1.8c.2.4.5.6.9.6zm1.9-1.4c-.02.04 1.2 0 1.2 0v-2.1s-1.22.04-1.2 0v.5c.1.2.1.4.1.6c0 .2 0 .4-.1.5v.5zm12.2-5h.8v9.2h-.8v-9.2zm-1.8 3.7v-3.4h.8v8.4h-.8v-4.4h-1.4v-.6h1.4zm-2.5-1.3v.5c0 .3 0 .7.1 1c.1.4.2.7.4 1.1c.2.3.4.6.6.8c.3.3.5.5.9.7l-.5.6c-.5-.2-.9-.6-1.2-1c-.3-.5-.5-1-.7-1.5c-.2.6-.4 1.1-.7 1.6c-.3.5-.7.8-1.2 1.1l-.4-.6c.3-.2.5-.4.8-.7l.6-.9c.2-.4.3-.7.4-1.1c0-.4.1-.8.1-1.1v-.5h-1.7v-.7h1.7v-1.3h.8v1.3h1.7v.7h-1.7zm13.8.2v.7h-6.2v-3.1h.9v2.4h5.3zm-7.3 1.7h8.3v.7h-8.3v-.7zm4.1 1.5c1 0 1.8.2 2.3.5c.6.3.9.7.9 1.2c0 .5-.3.9-.9 1.2c-.5.3-1.3.5-2.3.5c-.9 0-1.7-.2-2.3-.5c-.5-.3-.8-.7-.8-1.2c0-.5.3-.9.8-1.2c.6-.3 1.4-.5 2.3-.5zm0 2.7c.8 0 1.3-.1 1.7-.3c.4-.1.6-.4.6-.7c0-.3-.2-.6-.6-.8c-.4-.1-.9-.2-1.7-.2c-.7 0-1.2.1-1.6.2c-.4.2-.6.5-.6.8c0 .3.2.6.6.7c.4.2.9.3 1.6.3z" stroke="none" fill="#111111"/></g><g id="Polygon128482"><path d="m2.6 26.6h3v.8H.5v-.6s2.62-2.5 2.6-2.5l.6-.6c.1-.2.3-.4.4-.6c.1-.1.2-.3.3-.5c0-.2.1-.4.1-.7c0-.4-.2-.7-.4-.9c-.3-.3-.6-.4-1-.4c-.2 0-.4.1-.6.1c-.2.1-.3.2-.5.3c-.1.2-.2.3-.3.5c-.1.2-.1.4-.1.6l-.9-.2c0-.3.1-.6.3-.9c.1-.2.3-.4.5-.6c.2-.2.5-.3.8-.4c.2-.1.5-.2.9-.2c.3 0 .6.1.8.2c.3.1.6.2.8.4c.2.2.3.4.4.6c.2.3.2.6.2.9c0 .3 0 .6-.1.8c-.1.2-.2.5-.3.7c-.2.2-.4.4-.5.6c-.2.2-.4.5-.6.7l-2.1 2c.1 0 .3 0 .4-.1h.4zm9.1-2.9c0 .7-.1 1.2-.2 1.7c-.2.5-.4.9-.6 1.2c-.3.4-.6.6-.9.7c-.3.2-.7.3-1.1.3c-.4 0-.7-.1-1-.3c-.4-.1-.7-.3-.9-.7c-.3-.3-.5-.7-.6-1.2c-.1-.5-.2-1-.2-1.7c0-.7.1-1.2.2-1.7c.1-.5.3-.9.6-1.2c.2-.3.5-.6.9-.7c.3-.2.6-.3 1-.3c.4 0 .8.1 1.1.3c.3.1.6.4.9.7c.2.3.4.7.6 1.2c.1.5.2 1 .2 1.7zm-1 0c0-.6 0-1.1-.1-1.5c-.1-.4-.2-.7-.4-.9c-.2-.3-.4-.4-.6-.5c-.2-.1-.4-.2-.7-.2c-.2 0-.4.1-.6.2c-.3.1-.5.2-.6.5c-.2.2-.3.5-.4.9c-.1.4-.2.9-.2 1.5c0 .6.1 1.1.2 1.5c.1.4.2.7.4.9c.1.3.3.5.6.6c.2.1.4.1.6.1c.3 0 .5 0 .7-.1c.2-.1.4-.3.6-.6c.2-.2.3-.5.4-.9c.1-.4.1-.9.1-1.5zm3.7 2.9h2.9v.8h-5v-.6s2.57-2.5 2.6-2.5c.2-.2.4-.4.5-.6c.2-.2.3-.4.4-.6c.2-.1.3-.3.3-.5c.1-.2.1-.4.1-.7c0-.4-.1-.7-.4-.9c-.2-.3-.6-.4-.9-.4c-.3 0-.5.1-.6.1c-.2.1-.4.2-.5.3c-.1.2-.3.3-.3.5c-.1.2-.1.4-.1.6l-1-.2l.3-.9l.6-.6c.2-.2.4-.3.7-.4c.3-.1.6-.2.9-.2c.3 0 .6.1.9.2c.3.1.5.2.7.4c.2.2.4.4.5.6c.1.3.2.6.2.9c0 .3-.1.6-.2.8c0 .2-.1.5-.3.7c-.1.2-.3.4-.5.6c-.2.2-.4.5-.6.7l-2.1 2c.2 0 .3 0 .4-.1h.5zm7.1.1h1.5v.7h-4v-.7h1.6V21c.02.04-1.3 1.3-1.3 1.3l-.5-.6l2-1.8h.7v6.8zm9.2-.9v-3.1h-2.5v-.7h2.5v-1.1h-2.5v-.7h2.5v-1.1h.9v6.7h-.9zm-1.5-2.4l.1.7c-.7.2-1.4.3-2.1.3c-.6 0-1.3.1-1.9.1c-.03-.03-.7 0-.7 0v-4.8h.8v4.1c.6 0 1.3-.1 1.9-.1c.6-.1 1.2-.1 1.9-.3zm-2.6 3.9h5.2v.7h-6.1v-2.8h.9v2.1zM40.2 19h.8v9.2h-.8V19zm-1.8 3.6v-3.4h.8v8.5h-.8v-4.4s-1.17-.02-1.2 0c0 .4-.1.8-.1 1.2c-.1.3-.3.7-.4.9c-.2.3-.4.4-.6.6c-.3.1-.5.2-.8.2c-.3 0-.6-.1-.8-.2c-.3-.2-.5-.4-.6-.7c-.2-.3-.3-.6-.4-1c-.1-.4-.2-.8-.2-1.3c0-.5.1-1 .2-1.3c.1-.4.2-.8.4-1c.1-.3.3-.5.6-.7c.2-.1.5-.2.8-.2c.3 0 .5.1.7.2c.3.1.5.3.6.6c.2.2.3.5.4.8c.1.4.2.8.2 1.2h1.2zm-3.1 2.8c.4 0 .6-.2.9-.6c.2-.5.3-1.1.3-1.8c0-.4-.1-.7-.1-1c-.1-.3-.1-.6-.3-.8c-.1-.2-.2-.3-.3-.5c-.2-.1-.3-.1-.5-.1c-.4 0-.7.2-.9.6c-.2.5-.3 1-.3 1.8c0 .7.1 1.3.3 1.8c.2.4.5.6.9.6zm14.4-3.6v.7h-6.2v-3.1h.8v2.4h5.4zm-7.3 1.9h8.3v.7h-8.3v-.7zm1.9 1.6v2h5.5v.7h-6.3v-2.7h.8zm10.5-3.2l-1-.1c.1-.4.2-.7.3-.9c.2-.3.4-.5.6-.7c.2-.2.4-.3.7-.4c.3-.1.6-.2.9-.2c.3 0 .6.1.9.2c.3.1.5.2.7.4c.2.1.3.4.5.6c.1.2.1.5.1.8c0 .5-.1.8-.3 1.1c-.3.3-.6.5-1 .6c1 .3 1.5.9 1.5 1.8c0 .4-.1.7-.2 1c-.1.2-.3.5-.5.7c-.3.2-.5.3-.9.4c-.3.1-.6.2-.9.2c-.4 0-.8-.1-1.1-.2c-.2-.1-.5-.2-.7-.4c-.2-.2-.3-.4-.5-.6c-.1-.3-.2-.5-.3-.8l.8-.3c.1.1.1.2.2.4c.2.3.4.6.6.8c.2.2.6.3 1 .3c.2 0 .4-.1.6-.2c.2-.1.4-.2.5-.3c.2-.1.3-.3.3-.5c.1-.1.1-.3.1-.5v-.5c-.1-.2-.2-.3-.3-.5c-.2-.1-.4-.2-.6-.2c-.3-.1-.6-.2-1-.2v-.6c.3 0 .6-.1.8-.1c.3-.1.4-.2.6-.3c.1-.1.2-.3.3-.4c.1-.2.1-.4.1-.6c0-.4-.1-.7-.4-.9c-.2-.2-.6-.3-.9-.3c-.3 0-.5 0-.6.1c-.2 0-.4.1-.5.3c-.1.1-.2.3-.3.4c-.1.2-.1.4-.1.6zm10 1.6c0 .7-.1 1.2-.2 1.7c-.2.5-.4.9-.6 1.2c-.2.4-.5.6-.9.7c-.3.2-.7.3-1 .3c-.4 0-.8-.1-1.1-.3c-.4-.1-.6-.3-.9-.7c-.2-.3-.4-.7-.6-1.2c-.1-.5-.2-1-.2-1.7c0-.7.1-1.2.2-1.7c.2-.5.4-.9.6-1.2c.3-.3.5-.6.9-.7c.3-.2.7-.3 1.1-.3c.3 0 .7.1 1 .3c.4.1.7.4.9.7c.2.3.4.7.6 1.2c.1.5.2 1 .2 1.7zm-.9 0c0-.6-.1-1.1-.2-1.5c-.1-.4-.2-.7-.4-.9c-.2-.3-.3-.4-.6-.5c-.2-.1-.4-.2-.6-.2c-.3 0-.5.1-.7.2c-.2.1-.4.2-.6.5c-.2.2-.3.5-.4.9c-.1.4-.1.9-.1 1.5c0 .6 0 1.1.1 1.5c.1.4.2.7.4.9c.2.3.4.5.6.6c.2.1.4.1.7.1c.2 0 .4 0 .6-.1c.3-.1.4-.3.6-.6c.2-.2.3-.5.4-.9c.1-.4.2-.9.2-1.5zm8.2-4.6h.8v5.3h-.8v-2.3s-1.86-.02-1.9 0c0 .3-.1.5-.2.7c-.1.3-.3.5-.5.6c-.2.2-.5.3-.7.4c-.3.1-.6.2-.9.2c-.3 0-.6-.1-.9-.2c-.3-.1-.6-.3-.8-.5c-.2-.2-.3-.4-.5-.7c-.1-.2-.1-.5-.1-.9c0-.3 0-.6.1-.8c.2-.3.3-.5.5-.7c.2-.2.5-.4.8-.5c.3-.1.6-.1.9-.1c.3 0 .6 0 .9.1c.2.1.5.2.7.4c.2.1.3.3.5.5c.1.3.2.5.2.8h1.9v-2.3zm-4.2 4.1c.2 0 .4 0 .6-.1c.2 0 .4-.1.5-.3c.2-.1.3-.3.4-.5c0-.1.1-.3.1-.6c0-.2-.1-.4-.1-.6c-.1-.1-.2-.3-.4-.4c-.1-.1-.3-.2-.5-.3c-.2-.1-.4-.1-.6-.1c-.2 0-.4 0-.6.1c-.2.1-.4.2-.5.3c-.1.1-.3.3-.3.4c-.1.2-.1.4-.1.6c0 .3 0 .5.1.6c0 .2.2.4.3.5c.1.2.3.3.5.3c.2.1.4.1.6.1zm-1.1 2.4v-.7h6.1v3.3h-.8v-2.6h-5.3zm14.7-1.2h1.8V19h.9v7h-.9v-.9h-1.8v-.7zm-1.9-1.8c-.3 0-.6 0-.9-.1c-.3-.1-.5-.2-.7-.3c-.2-.2-.4-.3-.5-.5c-.1-.2-.2-.5-.2-.7c0-.2.1-.5.2-.7c.1-.2.3-.3.5-.5c.2-.1.4-.2.7-.3c.3-.1.6-.1.9-.1c.3 0 .6 0 .9.1c.3.1.5.2.7.3c.2.2.4.3.5.5c.1.2.2.5.2.7c0 .2-.1.5-.2.7c-.1.2-.3.3-.5.5c-.2.1-.4.2-.7.3c-.3.1-.6.1-.9.1zm0-2.6c-.4 0-.8.1-1.1.3c-.2.2-.4.4-.4.7c0 .3.2.5.4.7c.3.2.7.3 1.1.3c.4 0 .8-.1 1.1-.3c.2-.2.4-.4.4-.7c0-.3-.2-.5-.4-.7c-.3-.2-.7-.3-1.1-.3zm-.3 5.7s-.03-1.78 0-1.8c-.5 0-.9.1-1.3.1h-1.3l-.1-.7h1.4c.5 0 1 0 1.5-.1h1.5c.5-.1 1-.1 1.5-.2l.1.6c-.4.1-.8.1-1.2.2c-.5 0-.9 0-1.3.1c.01-.02 0 1.8 0 1.8h-.8zm-.5 1.6h5.6v.7h-6.5v-2.7h.9v2zM92.5 19h.8v9.2h-.8V19zm-3.7.7c.4 0 .7.1 1 .2c.3.1.6.2.8.4c.2.2.4.4.5.7c.1.3.2.5.2.9c0 .3-.1.6-.2.8c-.1.3-.3.5-.5.7c-.2.2-.5.4-.8.5c-.3.1-.6.1-1 .1c-.3 0-.7 0-1-.1c-.3-.1-.5-.3-.7-.5c-.3-.2-.4-.4-.5-.7c-.2-.2-.2-.5-.2-.8c0-.4 0-.6.2-.9c.1-.3.2-.5.5-.7c.2-.2.4-.3.7-.4c.3-.1.7-.2 1-.2zm0 .7c-.2 0-.4.1-.6.1l-.6.3c-.1.2-.2.3-.3.5c-.1.2-.1.3-.1.6c0 .2 0 .4.1.5c.1.2.2.4.3.5l.6.3c.2.1.4.1.6.1c.3 0 .5 0 .7-.1c.2-.1.4-.2.5-.3c.1-.1.2-.3.3-.5c.1-.1.2-.3.2-.5c0-.3-.1-.4-.2-.6c-.1-.2-.2-.3-.3-.5c-.1-.1-.3-.2-.5-.3c-.2 0-.4-.1-.7-.1zM86 26.2l-.1-.7h1.4c.5 0 1 0 1.5-.1h1.5c.6-.1 1.1-.1 1.6-.2v.6c-.5.1-1 .2-1.5.2c-.6.1-1.1.1-1.6.1c-.5.1-1 .1-1.4.1H86zm17.8-7.2h.8v9.2h-.8V19zm-6.1 1s4.24.03 4.2 0c0 .7 0 1.3-.2 1.9c-.2.7-.4 1.2-.7 1.8c-.4.5-.8 1-1.4 1.5c-.5.5-1.2.9-1.9 1.3l-.5-.7c1.3-.6 2.2-1.3 2.8-2.2c.6-.8 1-1.8 1.1-2.9h-3.4v-.7zm15.6 2.9h1.3v.7h-8.3v-.7h6.1c.2-.6.2-1.1.3-1.5v-1.2h-5.4v-.7h6.2s.03.7 0 .7v1.2c0 .4-.1.9-.2 1.5zm-6 5.2v-3.3h6.3v3.3h-6.3zm.8-2.6v1.9h4.6v-1.9h-4.6zm11.5-3.1c-1 0-1.8-.2-2.4-.4c-.5-.3-.8-.7-.8-1.2c0-.5.3-.9.8-1.2c.6-.3 1.4-.4 2.4-.4c1 0 1.8.1 2.4.4c.5.3.8.7.8 1.2c0 .5-.3.9-.8 1.2c-.6.2-1.4.4-2.4.4zm0-2.6c-.8 0-1.3.1-1.7.3c-.4.1-.7.4-.7.7c0 .3.3.5.7.7c.4.2.9.2 1.7.2c.8 0 1.3 0 1.8-.2c.4-.2.6-.4.6-.7c0-.3-.2-.6-.6-.7c-.5-.2-1-.3-1.8-.3zm-4.1 3.2h8.2v.7h-8.2v-.7zm1.8 3.5v.9h5.7v.7h-6.5v-2.2h5.4v-.8h-5.4v-.7h6.2v2.1h-5.4zm10.1-3.8l-.2-.6c.4-.1.8-.1 1.2-.2l1-.3c.3-.2.5-.3.7-.5c.2-.2.3-.4.3-.6c.01-.02-2.8 0-2.8 0v-.7h2.9v-.8h.8v.8h2.9v.7s-2.86-.02-2.9 0c.1.2.2.4.4.6c.1.2.4.3.7.5c.3.1.6.2 1 .3c.3.1.7.1 1.2.2l-.3.6c-.4 0-.7-.1-1.1-.2c-.3 0-.7-.1-1-.3c-.3-.1-.5-.2-.8-.4c-.2-.1-.4-.3-.5-.5c-.2.2-.4.4-.6.5c-.2.2-.5.3-.8.4c-.3.2-.6.3-1 .3c-.3.1-.7.2-1.1.2zm7.6 1h-3.7v.9h2.6v2h-5.3v.9h5.6v.6h-6.4V26h5.3v-.8h-5.4v-.6h2.7v-.9h-3.7v-.6h8.3v.6zm7.6-.4s-2.31.04-2.3 0c-.2.3-.5.5-.8.7c-.3.1-.7.2-1.1.2c-.3 0-.6 0-.9-.2c-.3-.1-.6-.2-.8-.4c-.2-.2-.3-.5-.5-.8c-.1-.2-.1-.5-.1-.9c0-.3 0-.6.1-.9c.2-.3.3-.5.5-.7c.2-.2.5-.4.8-.5c.3-.1.6-.2.9-.2c.4 0 .8.1 1.1.3c.3.1.6.3.8.6c-.02-.02 2.3 0 2.3 0v-1.4h.9v6.7h-.9v-2.5zm-5.7-1.4c0 .2 0 .5.1.6c0 .2.2.4.3.5c.1.2.3.3.5.4c.2 0 .4.1.6.1c.2 0 .4-.1.6-.1c.2-.1.4-.2.5-.4c.2-.1.3-.3.3-.5c.1-.1.2-.4.2-.6c0-.2-.1-.4-.2-.6c0-.2-.1-.4-.3-.5c-.1-.1-.3-.2-.5-.3c-.2-.1-.4-.1-.6-.1c-.2 0-.4 0-.6.1c-.2.1-.4.2-.5.3c-.1.1-.3.3-.3.5c-.1.2-.1.4-.1.6zm5.7-.7s-1.96-.05-2 0c.1.2.2.4.2.7c0 .3-.1.5-.2.8c.04-.03 2 0 2 0v-1.5zm-4.2 6.1h5.3v.7h-6.1v-2.9h.8v2.2zM152 19h.8v9.2h-.8v-4.6h-1.1v4.1h-.8v-8.5h.8v3.7h1.1V19zm-4.2.3v1.3h1.8v.7h-4.5v-.7h1.8v-1.3h.9zm-.4 2.6c.2 0 .5 0 .7.1c.3.2.5.3.7.5c.1.2.3.4.4.6c.1.3.1.6.1.9c0 .3 0 .6-.1.8c-.1.3-.3.5-.4.7c-.2.2-.4.3-.7.4c-.2.1-.5.2-.7.2c-.3 0-.6-.1-.8-.2c-.3-.1-.5-.2-.6-.4c-.2-.2-.4-.4-.5-.7c-.1-.2-.1-.5-.1-.8c0-.3 0-.6.1-.9c.1-.2.3-.4.5-.6c.1-.2.3-.3.6-.5c.2-.1.5-.1.8-.1zm0 3.5c.3 0 .6-.2.8-.4c.3-.3.4-.6.4-1c0-.2-.1-.4-.1-.6c-.1-.1-.2-.3-.3-.4c-.1-.1-.2-.2-.4-.3c-.1-.1-.3-.1-.4-.1c-.4 0-.7.1-.9.4c-.2.2-.4.6-.4 1c0 .4.2.7.4 1c.2.2.5.4.9.4zm14.1-5.4v.6h-5.1v-.6h2.2v-1.1h.8v1.1h2.1zm1.5-.9h.9v5.3h-.9v-.8h-1.5v-.6h1.5v-1.1h-1.5v-.7h1.5v-2.1zm-2 3.6c0 .3 0 .5-.1.7c-.1.2-.3.4-.4.5c-.2.2-.4.3-.7.4c-.2 0-.5.1-.8.1c-.3 0-.6-.1-.9-.1c-.2-.1-.4-.2-.6-.4c-.2-.1-.3-.3-.5-.5c-.1-.2-.1-.4-.1-.7c0-.2 0-.4.1-.6c.2-.2.3-.4.5-.6l.6-.3c.3-.1.6-.1.9-.1c.3 0 .6 0 .8.1c.3.1.5.2.7.3c.1.2.3.4.4.6c.1.2.1.4.1.6zm-3.3 0c0 .3.1.6.3.8c.3.2.6.2 1 .2c.4 0 .7 0 .9-.2c.2-.2.4-.5.4-.8c0-.3-.2-.5-.4-.7c-.2-.2-.5-.3-.9-.3c-.4 0-.7.1-1 .3c-.2.2-.3.4-.3.7zm5.4 3.1v-.9h.8v3.2H158v-3.2h.8v.9h4.3zm0 1.6v-1h-4.3v1h4.3zm9.1-8.3h.9v5.6h-.9V23h-1.8v-.7h1.8v-1.2h-1.8v-.7h1.8v-1.3zm-1.8 4.3l.1.6c-.3.1-.6.1-.9.1c-.2.1-.5.1-.8.1h-1c-.4 0-.8.1-1.2.1c-.02-.05-.7 0-.7 0v-2.8h3.1v-1.2h-3.1v-.7h3.9v2.6h-3.1s.04 1.37 0 1.4h1.2c.3 0 .6-.1.9-.1h.8c.2-.1.5-.1.8-.1zm-3.5 2.4v-.6h6.2v3h-.9v-2.4h-5.3zm14.5-6.7h.9v4.9h-.9v-2.1h-1.9c0 .6-.3 1-.7 1.3c-.4.3-.9.5-1.6.5c-.3 0-.6 0-.9-.2c-.3-.1-.6-.2-.8-.4c-.2-.2-.3-.4-.5-.7c-.1-.2-.1-.5-.1-.8c0-.3 0-.6.1-.9c.2-.2.3-.5.5-.6c.2-.2.5-.4.8-.5c.3-.1.6-.1.9-.1c.3 0 .6 0 .9.1c.2.1.5.2.7.4c.2.1.3.3.5.5c.1.2.2.5.2.7c.04.02 1.9 0 1.9 0v-2.1zm-4.2 3.9c.2 0 .4 0 .6-.1c.2-.1.4-.2.5-.3c.2-.1.3-.3.4-.4c0-.2.1-.4.1-.6c0-.2-.1-.4-.1-.6c-.1-.2-.2-.3-.4-.4c-.1-.2-.3-.3-.5-.3c-.2-.1-.4-.1-.6-.1c-.2 0-.4 0-.6.1c-.2 0-.4.1-.5.3c-.1.1-.3.2-.3.4c-.1.2-.1.4-.1.6c0 .2 0 .4.1.6c0 .1.2.3.3.4c.1.1.3.2.5.3c.2.1.4.1.6.1zm4.2 2.6v-1.2h.9v3.7h-5.9v-3.7h.8v1.2h4.2zm0 1.8v-1.2h-4.2v1.2h4.2zm9.5-8.4h.8v9.2h-.8V19zm-1.9 3.7v-3.4h.8v8.4h-.8v-4.4h-1.4v-.6h1.4zm-2.4-1.3s-.04.46 0 .5c0 .3 0 .7.1 1c.1.4.2.7.4 1.1c.1.3.4.6.6.8c.2.3.5.5.8.7l-.5.6c-.4-.2-.8-.6-1.1-1c-.3-.5-.6-1-.7-1.5c-.2.6-.4 1.1-.7 1.6c-.4.5-.7.8-1.2 1.1l-.5-.6c.3-.2.6-.4.8-.7c.3-.3.5-.6.7-.9l.3-1.1c.1-.4.2-.8.2-1.1c-.04-.04 0-.5 0-.5h-1.7v-.7h1.7v-1.3h.8v1.3h1.7v.7h-1.7zm15.2-2.4h.9v5.6h-.9V19zm-1.1 4.5l-.4.7c-.5-.2-1-.5-1.4-.8c-.4-.4-.7-.8-.9-1.3c-.2.5-.5 1-.9 1.4c-.4.4-.8.6-1.4.8l-.4-.6c.3-.1.6-.3.9-.5c.3-.2.6-.4.8-.7c.2-.3.3-.5.4-.8c.1-.3.2-.7.2-1v-.3h-2.1v-.7h5v.7h-2s-.05.32 0 .3c0 .3 0 .6.1.9c.1.3.3.6.5.8c.2.3.4.5.7.7c.3.1.6.3.9.4zm-4.2 2.2v-.6h6.2v3.1h-.9v-2.5h-5.3zm12.6-1.3h1.9V19h.8v7h-.8v-.9h-1.9v-.7zm-1.8-1.8c-.4 0-.7 0-1-.1c-.2-.1-.5-.2-.7-.3c-.2-.2-.3-.3-.4-.5c-.1-.2-.2-.5-.2-.7c0-.2.1-.5.2-.7c.1-.2.2-.3.4-.5c.2-.1.5-.2.7-.3c.3-.1.6-.1 1-.1c.3 0 .6 0 .9.1c.3.1.5.2.7.3l.5.5c.1.2.1.5.1.7c0 .2 0 .5-.1.7l-.5.5c-.2.1-.4.2-.7.3c-.3.1-.6.1-.9.1zm0-2.6c-.5 0-.8.1-1.1.3c-.3.2-.4.4-.4.7c0 .3.1.5.4.7c.3.2.6.3 1.1.3c.4 0 .7-.1 1-.3c.3-.2.4-.4.4-.7c0-.3-.1-.5-.4-.7c-.3-.2-.6-.3-1-.3zm-.4 5.7s.04-1.78 0-1.8c-.4 0-.9.1-1.3.1h-1.2l-.1-.7h1.3c.5 0 1 0 1.5-.1h1.6c.5-.1 1-.1 1.5-.2l.1.6c-.5.1-.9.1-1.3.2c-.4 0-.8 0-1.2.1c-.03-.02 0 1.8 0 1.8h-.9zm-.5 1.6h5.7v.7h-6.5v-2.7h.8v2zm17.7-4.6v.7h-1.5v4.8h-.8v-9.1h.8v3.6h1.5zm-5.4-2s-.02 1.14 0 1.1c0 .4 0 .8.2 1.1c.1.4.3.8.5 1.1c.2.3.4.6.7.9c.3.3.6.5.9.6l-.4.7c-.5-.2-1-.6-1.4-1.1c-.4-.5-.7-1.1-.9-1.7c-.1.3-.3.7-.4 1c-.2.3-.4.6-.6.8c-.2.3-.4.5-.6.7c-.3.2-.5.4-.8.5l-.5-.6c.4-.2.7-.4 1-.7c.3-.3.5-.6.7-1c.3-.3.4-.7.6-1.1c.1-.4.2-.8.2-1.2c-.05.04 0-1.1 0-1.1h-2.1v-.7h4.9v.7h-2zm12.8-1.7h.8v9.2h-.8v-4.3h-2.8v-.6h2.8v-1.4h-2.8v-.7h2.8V19zm-5.4 1.1v5.3h1.1c.3-.1.6-.1.9-.1c.3 0 .6-.1.9-.1c.3 0 .6-.1.9-.2l.1.7c-.3.1-.6.2-.9.2c-.4.1-.7.1-1 .1c-.3 0-.7.1-1 .1H226c-.03-.02-.7 0-.7 0v-6h.8zm15.4-.1v.7h-5.4v-.7h2.2v-1h.9v1h2.3zm3 1.6v.7h-1.4v2.5h-.8v-5.7h.8v2.5h1.4zm-3.5 1.2c0 .3-.1.5-.2.7c-.1.2-.3.4-.5.5c-.1.2-.4.3-.6.3c-.3.1-.6.2-.9.2c-.4 0-.7-.1-.9-.2c-.3 0-.5-.1-.7-.3c-.2-.1-.4-.3-.5-.5c-.1-.2-.1-.4-.1-.7c0-.2 0-.5.1-.7c.1-.2.3-.4.5-.5c.2-.1.4-.3.7-.3c.2-.1.5-.1.9-.1c.3 0 .6 0 .9.1c.2 0 .5.2.6.3c.2.2.4.3.5.5c.1.2.2.5.2.7zm-3.6 0c0 .3.1.6.3.7c.3.2.6.3 1.1.3c.4 0 .7-.1 1-.3c.2-.1.4-.4.4-.7c0-.3-.2-.5-.4-.7c-.3-.2-.6-.3-1-.3c-.5 0-.8.1-1.1.3c-.2.2-.3.4-.3.7zm-.2 3.1v-.6h5.9v2.9h-.8v-2.3h-5.1zm16.6-3.2v.7h-1.5v4.8h-.9v-9.1h.9v3.6h1.5zm-5.5-2v1.1c0 .4.1.8.2 1.1c.1.4.3.8.5 1.1c.2.3.4.6.7.9c.3.3.6.5 1 .6l-.5.7c-.5-.2-1-.6-1.4-1.1c-.4-.5-.7-1.1-.9-1.7c-.1.3-.2.7-.4 1c-.2.3-.3.6-.5.8l-.7.7c-.2.2-.5.4-.7.5l-.5-.6c.3-.2.6-.4.9-.7c.3-.3.5-.6.8-1c.2-.3.3-.7.5-1.1c.1-.4.2-.8.2-1.2c-.03.04 0-1.1 0-1.1h-2.1v-.7h4.9v.7h-2zm13.1 2.2h1.3v.7h-8.3v-.7h6.1c.2-.6.2-1.1.3-1.5v-1.2h-5.4v-.7h6.2s.03.7 0 .7v1.2c0 .4-.1.9-.2 1.5zm-6 5.2v-3.3h6.3v3.3h-6.3zm.8-2.6v1.9h4.6v-1.9h-4.6zm16.1-6.4h.8v9.1h-.8v-9.1zm-3.4 1.6s.02 1.14 0 1.1c0 .4.1.8.2 1.2c.1.4.3.7.5 1.1c.3.3.5.6.8.8c.3.3.6.5 1 .6l-.5.7c-.5-.2-1-.6-1.4-1.1c-.5-.5-.8-1.1-1-1.7c-.1.3-.2.7-.4 1c-.2.3-.3.6-.5.8c-.2.3-.5.5-.7.7c-.2.2-.5.4-.8.5l-.4-.6c.3-.2.6-.4.9-.7c.3-.3.5-.6.8-.9c.2-.4.4-.8.5-1.2c.1-.4.2-.8.2-1.2c-.01.04 0-1.1 0-1.1H266v-.7h5.1v.7h-2.2zm10.7 3.7h1.9V19h.8v7h-.8v-.9h-1.9v-.7zm-1.8-1.8c-.4 0-.7 0-.9-.1c-.3-.1-.6-.2-.8-.3c-.2-.2-.3-.3-.4-.5c-.1-.2-.2-.5-.2-.7c0-.2.1-.5.2-.7c.1-.2.2-.3.4-.5c.2-.1.5-.2.8-.3c.2-.1.5-.1.9-.1c.3 0 .6 0 .9.1c.3.1.5.2.7.3l.5.5c.1.2.1.5.1.7c0 .2 0 .5-.1.7l-.5.5c-.2.1-.4.2-.7.3c-.3.1-.6.1-.9.1zm0-2.6c-.5 0-.8.1-1.1.3c-.3.2-.4.4-.4.7c0 .3.1.5.4.7c.3.2.6.3 1.1.3c.4 0 .8-.1 1-.3c.3-.2.4-.4.4-.7c0-.3-.1-.5-.4-.7c-.2-.2-.6-.3-1-.3zm-.4 5.7s.04-1.78 0-1.8c-.4 0-.9.1-1.3.1h-1.2l-.1-.7h1.3c.5 0 1 0 1.5-.1h1.6c.5-.1 1-.1 1.5-.2l.1.6c-.5.1-.9.1-1.3.2c-.4 0-.8 0-1.2.1c-.03-.02 0 1.8 0 1.8h-.9zm-.5 1.6h5.7v.7h-6.5v-2.7h.8v2zm6.8.9l.3-2.1h1l-.6 2.1h-.7zm11.3-8.9v3.4h-6.1v-3.4h.8v1h4.5v-1h.8zm-.8 2.7v-1.1h-4.5v1.1h4.5zm1.9 2.2h-3.7v1.1h2.7v2.9h-.9v-2.3h-5.5v-.6h2.8v-1.1h-3.7v-.7h8.3v.7zm6.3-4v.6H297v-.6h2.3v-1.1h.8v1.1h2.3zm1.7 1.9h1.4v.7h-1.4v3.1h-.8v-6.8h.8v3zm-2.2.9c0 .3 0 .5-.1.7c-.1.3-.3.4-.5.6c-.2.1-.4.2-.7.3c-.3.1-.5.1-.9.1c-.3 0-.6 0-.9-.1c-.2-.1-.5-.2-.7-.3c-.1-.2-.3-.3-.4-.6c-.1-.2-.2-.4-.2-.7c0-.2.1-.5.2-.7c.1-.2.3-.3.4-.5c.2-.1.5-.3.7-.3c.3-.1.6-.2.9-.2c.4 0 .6.1.9.2c.3 0 .5.2.7.3c.2.2.4.3.5.5c.1.2.1.5.1.7zm-3.6 0c0 .4.2.6.4.8c.3.2.6.3 1 .3c.4 0 .8-.1 1-.3c.3-.2.4-.4.4-.8c0-.3-.1-.5-.4-.7c-.2-.2-.6-.3-1-.3c-.4 0-.7.1-1 .3c-.2.2-.4.4-.4.7zm.9 2.4v1.9h5.3v.7h-6.1v-2.6h.8zm15.7-6.4h.8v9.2h-.8V19zm-4 .7c.4 0 .7.1 1 .3c.2.1.5.3.7.6c.2.3.4.6.5 1c.1.4.2.8.2 1.3c0 .5-.1 1-.2 1.4c-.1.3-.3.7-.5 1c-.2.2-.5.5-.7.6c-.3.2-.6.2-1 .2c-.3 0-.6 0-.9-.2c-.3-.1-.5-.4-.7-.6c-.3-.3-.4-.7-.5-1c-.1-.4-.2-.9-.2-1.4c0-.5.1-.9.2-1.3c.1-.4.2-.7.5-1c.2-.3.4-.5.7-.6c.3-.2.6-.3.9-.3zm0 .8c-.2 0-.4.1-.6.2c-.2.1-.3.3-.5.5c-.1.2-.2.4-.3.7c-.1.3-.1.7-.1 1c0 .4 0 .7.1 1c.1.3.2.6.3.8c.2.2.3.4.5.5c.2.1.4.2.6.2c.2 0 .5-.1.6-.2c.2-.1.4-.3.5-.5c.2-.2.3-.5.3-.8c.1-.3.1-.6.1-1c0-.3 0-.7-.1-1c0-.3-.1-.5-.3-.7c-.1-.2-.3-.4-.5-.5c-.1-.1-.4-.2-.6-.2zm13.6.5h1.4v.7h-1.4v2.1h-.8v-4.7h.8v1.9zm-1.8 1.6v.7c-.3 0-.6.1-.9.1c-.3 0-.6 0-.9.1h-3v-4h4.1v.7h-3.3v.9h3.2v.7h-3.2v1h2.2c.3 0 .6-.1.9-.1c.3 0 .6-.1.9-.1zm-3.1 3.8v1h5.3v.7h-6.1v-2.3h4.9v-.9h-5v-.6h5.8v2.1h-4.9zm7.8-2.9l-.3-.7c.4 0 .8-.1 1.2-.3c.4-.1.7-.3 1-.6c.3-.2.5-.4.7-.7c.2-.3.3-.6.3-.9c-.01.04 0 0 0 0h-2.9v-.7h6.7v.7h-2.9s.02.04 0 0c0 .3.1.6.3.9c.2.3.4.5.7.7c.3.3.7.5 1 .6c.4.2.8.3 1.2.3l-.3.7l-1.1-.3c-.3-.1-.6-.3-.9-.4c-.3-.2-.6-.4-.8-.7c-.2-.2-.4-.4-.5-.7c-.2.3-.4.5-.6.7c-.2.3-.5.5-.8.7c-.3.1-.6.3-.9.4l-1.1.3zm7.5.8v.6h-3.7v3.3h-.9v-3.3h-3.7v-.6h8.3zm8.4-5.2v6.5h-.8v-6.5h.8zm-2.7.7v4.3h-4.3v-4.3h4.3zm-.9 3.6v-2.9h-2.6v2.9h2.6zm-1.4 3.8h5.3v.7h-6.2V25h.9v2.2zm15.4-8.1h.9v9.1h-.9v-9.1zm-3.4 1.6s.03 1.14 0 1.1c0 .4.1.8.2 1.2c.2.4.3.7.5 1.1c.3.3.5.6.8.8c.3.3.6.5 1 .6l-.5.7c-.5-.2-1-.6-1.4-1.1c-.5-.5-.8-1.1-1-1.7c-.1.3-.2.7-.4 1c-.2.3-.3.6-.5.8c-.2.3-.5.5-.7.7c-.2.2-.5.4-.7.5l-.5-.6c.3-.2.6-.4.9-.7c.3-.3.6-.6.8-.9c.2-.4.4-.8.5-1.2c.1-.4.2-.8.2-1.2c-.01.04 0-1.1 0-1.1h-2.1v-.7h5.1v.7h-2.2zm10.7 3.7h1.9V19h.8v7h-.8v-.9H361v-.7zm-1.8-1.8c-.4 0-.7 0-.9-.1c-.3-.1-.6-.2-.8-.3c-.2-.2-.3-.3-.4-.5c-.1-.2-.2-.5-.2-.7c0-.2.1-.5.2-.7c.1-.2.2-.3.4-.5c.2-.1.5-.2.8-.3c.2-.1.5-.1.9-.1c.3 0 .6 0 .9.1c.3.1.5.2.7.3c.2.2.4.3.5.5c.1.2.1.5.1.7c0 .2 0 .5-.1.7c-.1.2-.3.3-.5.5c-.2.1-.4.2-.7.3c-.3.1-.6.1-.9.1zm0-2.6c-.5 0-.8.1-1.1.3c-.3.2-.4.4-.4.7c0 .3.1.5.4.7c.3.2.6.3 1.1.3c.4 0 .8-.1 1-.3c.3-.2.4-.4.4-.7c0-.3-.1-.5-.4-.7c-.2-.2-.6-.3-1-.3zm-.4 5.7s.04-1.78 0-1.8c-.4 0-.9.1-1.3.1h-1.2l-.1-.7h1.4c.4 0 .9 0 1.4-.1h1.6c.5-.1 1-.1 1.5-.2l.1.6c-.4.1-.9.1-1.3.2c-.4 0-.8 0-1.2.1c-.02-.02 0 1.8 0 1.8h-.9zm-.5 1.6h5.7v.7h-6.5v-2.7h.8v2zm6.8.9l.4-2.1h.9l-.6 2.1h-.7z" stroke="none" fill="#111111"/></g><g id="Polygon128481"><path d="m7.5.5h.8v9.2h-.8V4.8H6.3v4.4h-.8V.7h.8v3.5h1.2V.5zM.9 7.2V1.6h3.4v5.6H.9zm.8-4.9v4.3h1.9V2.3H1.7zm15-1.8h.8v9.2h-.8V5.1h-1.2v4.1h-.8V.7h.8v3.7h1.2V.5zm-4.3.3v1.3h1.8v.7H9.7v-.7h1.9V.8h.8zM12 3.4c.3 0 .5 0 .8.1c.2.2.4.3.6.5c.2.2.3.4.4.6c.1.3.1.6.1.9c0 .3 0 .6-.1.8c-.1.3-.2.5-.4.7c-.2.2-.4.3-.6.4c-.3.1-.5.2-.8.2c-.3 0-.6-.1-.8-.2c-.2-.1-.4-.2-.6-.4c-.2-.2-.3-.4-.4-.7c-.1-.2-.2-.5-.2-.8c0-.3.1-.6.2-.9c.1-.2.2-.4.4-.6c.2-.2.4-.3.6-.5c.2-.1.5-.1.8-.1zm0 3.5c.3 0 .6-.2.9-.4c.2-.3.3-.6.3-1c0-.2 0-.4-.1-.6c-.1-.1-.1-.3-.2-.4c-.1-.1-.3-.2-.4-.3c-.2-.1-.3-.1-.5-.1c-.4 0-.7.1-.9.4c-.2.2-.3.6-.3 1c0 .4.1.7.3 1c.2.2.5.4.9.4zm13.5.9h3.8v.7H21v-.7h3.7V5.4H22V1.3h.8v3.4h5.5v.7h-2.8v2.4zm13.2-3.5v.6h-1.5v4.8h-.8V.6h.8v3.7h1.5zm-5.5-3s.03 1.68 0 1.7c0 .4.1.8.2 1.2c.1.4.3.7.5 1.1c.2.3.5.7.8.9c.2.3.5.5.9.7l-.6.7c-.5-.3-.9-.7-1.3-1.2c-.4-.5-.7-1-.9-1.7c-.2.7-.5 1.3-.9 1.8c-.4.5-.8 1-1.4 1.2l-.5-.6c.4-.2.7-.4 1-.7c.3-.3.5-.6.7-1c.2-.4.4-.8.5-1.2c.1-.4.2-.8.2-1.2c.01-.02 0-1.7 0-1.7h.8zm11.6.2v.7h-5.4v-.7h2.2V.4h.9v1.1h2.3zm3 1.4v.7h-1.4v2.3h-.8V.5h.8v2.4h1.4zm-3.5 1.3c0 .2-.1.4-.2.6c-.1.2-.3.4-.4.5c-.2.2-.5.3-.7.4c-.3 0-.6.1-.9.1c-.4 0-.7-.1-.9-.1c-.3-.1-.5-.2-.7-.4c-.2-.1-.4-.3-.5-.5c-.1-.2-.1-.4-.1-.6c0-.3 0-.5.1-.7c.1-.2.3-.3.5-.5c.2-.1.4-.2.7-.3c.2-.1.5-.1.9-.1c.3 0 .6 0 .9.1c.2.1.5.2.7.3c.1.2.3.3.4.5c.1.2.2.4.2.7zm-3.6 0c0 .3.1.5.3.7c.3.2.6.3 1.1.3c.4 0 .7-.1 1-.3c.2-.2.4-.4.4-.7c0-.3-.2-.6-.4-.7c-.3-.2-.6-.3-1-.3c-.5 0-.8.1-1.1.3c-.2.1-.3.4-.3.7zm4.9 3v-.9h.8v3.3h-5.7V6.3h.8v.9h4.1zm0 1.7v-1h-4.1v1h4.1zm7.5-3.8h3.7v.6h-8.3v-.6h3.7V4h-2.6v-3h6.2v.6h-5.4v1.7h5.4v.7h-2.7v1.1zm-.4 1.3c.9 0 1.7.1 2.3.4c.5.3.8.7.8 1.2c0 .6-.3 1-.8 1.3c-.6.2-1.4.4-2.3.4c-1 0-1.8-.2-2.3-.4c-.6-.3-.9-.7-.9-1.3c0-.5.3-.9.9-1.2c.5-.3 1.3-.4 2.3-.4zm0 2.6c.7 0 1.2 0 1.6-.2c.4-.2.6-.4.6-.8c0-.3-.2-.5-.6-.7c-.4-.2-.9-.3-1.6-.3c-.8 0-1.3.1-1.7.3c-.4.2-.6.4-.6.7c0 .4.2.6.6.8c.4.2.9.2 1.7.2zm15.6-4.7v.6h-1.5v4.8h-.8V.6h.8v3.7h1.5zm-5.4-3s-.05 1.68 0 1.7c0 .4 0 .8.1 1.2c.2.4.3.7.5 1.1c.2.3.5.7.8.9c.3.3.6.5.9.7l-.5.7c-.5-.3-1-.7-1.4-1.2c-.4-.5-.7-1-.9-1.7c-.2.7-.5 1.3-.9 1.8c-.4.5-.8 1-1.3 1.2l-.5-.6c.3-.2.6-.4.9-.7c.3-.3.5-.6.7-1c.3-.4.4-.8.5-1.2c.2-.4.2-.8.2-1.2c.03-.02 0-1.7 0-1.7h.9zm11.9.4v.6h-5.6v-.6h2.4V.6h.8v1.1h2.4zm.8-1.1h.8v9.1h-.8V.6zm-3.2 5.6v1c.4 0 .9-.1 1.3-.1c.4 0 .9-.1 1.3-.1l.1.6c-.5.1-1.1.1-1.6.2c-.5 0-1 .1-1.5.1h-1.5c-.5.1-.9.1-1.4.1l-.1-.7c.4 0 .8-.1 1.2-.1h1.4v-1c-.6 0-1-.2-1.3-.5c-.4-.3-.5-.7-.5-1.2c0-.2 0-.4.1-.6c.2-.3.3-.4.5-.6c.2-.1.4-.2.7-.3c.3-.1.6-.1.9-.1c.3 0 .6 0 .9.1c.3.1.5.2.7.3c.2.2.3.3.4.6c.1.2.2.4.2.6c0 .5-.2.9-.5 1.2c-.3.3-.7.5-1.3.5zm-1.8-1.7c0 .4.1.6.4.8c.2.2.6.3 1 .3c.4 0 .7-.1 1-.3c.3-.2.4-.4.4-.8c0-.3-.1-.5-.4-.7c-.3-.2-.6-.3-1-.3c-.4 0-.8.1-1 .3c-.3.2-.4.4-.4.7zm13.9-2.7c.04-.02 0-.1 0-.1h-5.4v-.7h6.3s-.04.78 0 .8c0 .4 0 .7-.1 1.1c0 .4-.1.8-.2 1.3l-.8-.1c.1-.5.2-.9.2-1.2V1.8zm-2.1 3h4v.7h-8.2v-.7h3.3V3h.9v1.8zm-.2 1.5c.5 0 1 .1 1.4.1c.4.1.7.2 1 .4c.2.1.5.3.6.5c.2.2.2.4.2.7c0 .3 0 .5-.2.7c-.1.2-.4.4-.6.5c-.3.2-.6.3-1 .4c-.4 0-.9.1-1.4.1c-.4 0-.9-.1-1.3-.1c-.4-.1-.7-.2-1-.4c-.3-.1-.5-.3-.6-.5c-.2-.2-.2-.4-.2-.7c0-.3 0-.5.2-.7c.1-.2.3-.4.6-.5c.3-.2.6-.3 1-.4c.4 0 .9-.1 1.3-.1zm0 2.7c.8 0 1.3-.1 1.8-.2c.4-.2.6-.5.6-.8c0-.3-.2-.6-.6-.8c-.5-.1-1-.2-1.8-.2c-.7 0-1.2.1-1.7.2c-.4.2-.6.5-.6.8c0 .3.2.6.6.8c.5.1 1 .2 1.7.2zm10.4-7.3v.6h-5.3v-.6h2.3V.5h.8v1.2h2.2zm-.1 2h1.5V.6h.9v6.8h-.9v-3h-1.5v-.7zm-.4.8c0 .3-.1.5-.2.7c-.1.2-.2.4-.4.6c-.2.1-.4.2-.7.3c-.2.1-.5.1-.8.1c-.3 0-.6 0-.9-.1c-.2-.1-.5-.2-.6-.3c-.2-.2-.4-.4-.5-.6c-.1-.2-.1-.4-.1-.7c0-.2 0-.4.1-.6c.1-.3.3-.4.5-.6c.1-.1.4-.3.6-.3c.3-.1.6-.2.9-.2c.3 0 .6.1.8.2c.3 0 .5.2.7.3c.2.2.3.3.4.6c.1.2.2.4.2.6zm-3.4 0c0 .4.1.6.3.8c.3.2.6.3 1 .3c.4 0 .7-.1.9-.3c.3-.2.4-.4.4-.8c0-.3-.1-.5-.4-.7c-.2-.2-.5-.3-.9-.3c-.4 0-.7.1-1 .3c-.2.2-.3.4-.3.7zm1.1 4.3h5.3v.7H89V6.9h.8v1.9zM103.2.5h.8v9.2h-.8V.5zm-6.2 1s4.33.03 4.3 0c0 .7-.1 1.3-.2 1.9c-.2.7-.4 1.2-.8 1.8c-.3.5-.7 1-1.3 1.5c-.5.5-1.2.9-1.9 1.3l-.5-.7c1.3-.6 2.2-1.3 2.8-2.2c.6-.8 1-1.8 1.1-2.9H97v-.7zm15.7 2.9h1.3v.7h-8.3v-.7h6.1c.2-.6.2-1.1.3-1.5V1.7h-5.4v-.7h6.2v1.9c0 .4-.1.9-.2 1.5zm-6 5.2V6.3h6.2v3.3h-6.2zm.8-2.6v1.9h4.6V7h-4.6zM119 3.9c-1 0-1.8-.2-2.4-.4c-.5-.3-.8-.7-.8-1.2c0-.5.3-.9.8-1.2c.6-.3 1.4-.4 2.4-.4c1 0 1.8.1 2.4.4c.5.3.8.7.8 1.2c0 .5-.3.9-.8 1.2c-.6.2-1.4.4-2.4.4zm0-2.6c-.8 0-1.4.1-1.8.3c-.4.1-.6.4-.6.7c0 .3.2.5.6.7c.4.2 1 .2 1.8.2c.8 0 1.3 0 1.7-.2c.4-.2.6-.4.6-.7c0-.3-.2-.6-.6-.7c-.4-.2-.9-.3-1.7-.3zm-4.1 3.2h8.2v.7h-8.2v-.7zm1.8 3.5v.9h5.6v.7h-6.4V7.4h5.3v-.8h-5.3v-.7h6.2v2.1h-5.4zm18-3.8v.7h-1.5v4.8h-.9V.6h.9v3.6h1.5zm-8.2 3.2V1.5h4.2v5.9h-4.2zm.8-5.3v4.6h2.6V2.1h-2.6zM142 7.3V4.8h-1.8v-.7h1.8V2.8h-1.8v-.7h1.8V.6h.8v6.7h-.8zm-1.9-2.2l.1.7c-.3.1-.5.1-.8.1c-.3.1-.6.1-.9.1h-2.2c.04.05-.6 0-.6 0V3.2h3.1V1.9h-3.1v-.7h3.9v2.7h-3.1v1.5h1.1c.3-.1.6-.1.9-.1c.3 0 .6 0 .8-.1c.3 0 .6 0 .8-.1zm-2.3 3.7h5.3v.6h-6.2V6.8h.9v2zM151.4.5h.8v9.2h-.8V5.1h-1.1v4.1h-.8V.7h.8v3.7h1.1V.5zm-4.2.3v1.3h1.8v.7h-4.5v-.7h1.8V.8h.9zm-.5 2.6c.3 0 .6 0 .8.1c.3.2.5.3.6.5c.2.2.4.4.5.6c.1.3.1.6.1.9c0 .3 0 .6-.1.8c-.1.3-.3.5-.5.7c-.1.2-.3.3-.6.4c-.2.1-.5.2-.8.2c-.2 0-.5-.1-.7-.2c-.3-.1-.5-.2-.7-.4c-.1-.2-.3-.4-.4-.7c-.1-.2-.1-.5-.1-.8c0-.3 0-.6.1-.9c.1-.2.3-.4.4-.6c.2-.2.4-.3.7-.5c.2-.1.5-.1.7-.1zm0 3.5c.4 0 .7-.2.9-.4c.2-.3.4-.6.4-1c0-.2-.1-.4-.1-.6c-.1-.1-.2-.3-.3-.4c-.1-.1-.2-.2-.4-.3c-.1-.1-.3-.1-.5-.1c-.3 0-.6.1-.8.4c-.3.2-.4.6-.4 1c0 .4.1.7.4 1c.2.2.5.4.8.4zm17.6-2.7v.6h-1.5v4.9h-.9V.5h.9v3.7h1.5zM157 2.1s-.03 4.61 0 4.6h2.1c.4-.1.7-.1 1-.1c.3-.1.7-.1 1-.2l.1.7c-.4.1-.7.1-1 .2c-.4 0-.7 0-1.1.1h-2.2c-.04.03-.8 0-.8 0v-6h4.3v.7H157zm16.4.5H172v1.3h1.4v.6H172v1.5h-.8V.6h.8v1.3h1.4v.7zm-3.5.6c0 .4-.1.6-.2.9c-.1.3-.3.5-.5.7c-.2.2-.5.3-.8.4c-.3.1-.6.2-.9.2c-.4 0-.7-.1-1-.2c-.3-.1-.5-.2-.7-.4c-.2-.2-.4-.4-.5-.7c-.1-.3-.2-.5-.2-.9c0-.3.1-.6.2-.8c.1-.3.3-.5.5-.7c.2-.2.4-.3.7-.5c.3-.1.6-.1 1-.1c.3 0 .6 0 .9.1c.3.2.6.3.8.5c.2.2.4.4.5.7c.1.2.2.5.2.8zm-4 0c0 .2.1.4.1.6c.1.2.2.4.4.5c.1.1.3.2.5.3c.1.1.4.1.6.1c.2 0 .4 0 .6-.1c.2-.1.4-.2.5-.3c.1-.1.3-.3.3-.5c.1-.2.2-.4.2-.6c0-.2-.1-.4-.2-.6c0-.1-.2-.3-.3-.4c-.1-.1-.3-.2-.5-.3c-.2-.1-.4-.1-.6-.1c-.2 0-.5 0-.6.1c-.2.1-.4.2-.5.3c-.2.1-.3.3-.4.4c0 .2-.1.4-.1.6zm3.2 3.1c.5 0 .9 0 1.3.1c.3 0 .7.2.9.3c.3.1.5.3.6.5c.2.2.2.5.2.8c0 .2 0 .5-.2.7c-.1.2-.3.4-.6.5c-.2.2-.6.3-.9.4c-.4 0-.8.1-1.3.1c-.4 0-.9-.1-1.2-.1c-.4-.1-.7-.2-1-.4c-.3-.1-.5-.3-.6-.5c-.1-.2-.2-.5-.2-.7c0-.3.1-.6.2-.8c.1-.2.3-.4.6-.5c.3-.1.6-.3 1-.3c.3-.1.8-.1 1.2-.1zm0 2.7c.7 0 1.2-.1 1.6-.3c.4-.2.6-.4.6-.7c0-.4-.2-.6-.6-.8c-.4-.2-.9-.3-1.6-.3c-.7 0-1.2.1-1.6.3c-.4.2-.6.4-.6.8c0 .3.2.5.6.7c.4.2.9.3 1.6.3zm10.4-7.3v.6h-5.4v-.6h2.3V.6h.8v1.1h2.3zm1.7 1.9h1.4v.7h-1.4v3.1h-.8V.6h.8v3zm-2.2.9c0 .3 0 .5-.1.7c-.1.3-.3.4-.5.6c-.2.1-.4.2-.7.3c-.2.1-.5.1-.9.1c-.3 0-.6 0-.9-.1c-.2-.1-.5-.2-.6-.3c-.2-.2-.4-.3-.5-.6c-.1-.2-.2-.4-.2-.7c0-.2.1-.5.2-.7c.1-.2.3-.3.5-.5c.1-.1.4-.3.6-.3c.3-.1.6-.2.9-.2c.4 0 .7.1.9.2c.3 0 .5.2.7.3c.2.2.4.3.5.5c.1.2.1.5.1.7zm-3.6 0c0 .4.2.6.4.8c.3.2.6.3 1 .3c.4 0 .8-.1 1-.3c.3-.2.4-.4.4-.8c0-.3-.1-.5-.4-.7c-.2-.2-.6-.3-1-.3c-.4 0-.7.1-1 .3c-.2.2-.4.4-.4.7zm.9 2.4v1.9h5.3v.7h-6.1V6.9h.8zm17.6-2.6v.6h-1.5v4.8h-.8V.6h.8v3.7h1.5zm-5.5-3s.03 1.68 0 1.7c0 .4.1.8.2 1.2c.1.4.3.7.5 1.1c.2.3.5.7.8.9c.2.3.5.5.9.7l-.6.7c-.5-.3-.9-.7-1.3-1.2c-.4-.5-.7-1-.9-1.7c-.2.7-.5 1.3-.9 1.8c-.4.5-.8 1-1.3 1.2l-.5-.6c.3-.2.6-.4.9-.7c.3-.3.5-.6.7-1c.2-.4.4-.8.5-1.2c.1-.4.2-.8.2-1.2c.01-.02 0-1.7 0-1.7h.8zm11.9.4v.6h-5.5v-.6h2.4V.6h.8v1.1h2.3zm.9-1.1h.8v9.1h-.8V.6zM198 6.2v1c.4 0 .9-.1 1.3-.1c.4 0 .9-.1 1.3-.1v.6c-.5.1-1 .1-1.5.2c-.5 0-1 .1-1.6.1h-1.4c-.5.1-1 .1-1.4.1l-.1-.7c.4 0 .8-.1 1.2-.1h1.4v-1c-.6 0-1-.2-1.4-.5c-.3-.3-.4-.7-.4-1.2c0-.2 0-.4.1-.6c.1-.3.3-.4.5-.6c.2-.1.4-.2.7-.3c.2-.1.5-.1.9-.1c.3 0 .6 0 .9.1c.2.1.5.2.7.3c.2.2.3.3.4.6c.1.2.2.4.2.6c0 .5-.2.9-.5 1.2c-.3.3-.8.5-1.3.5zm-1.8-1.7c0 .4.1.6.3.8c.3.2.6.3 1.1.3c.4 0 .7-.1 1-.3c.2-.2.4-.4.4-.8c0-.3-.2-.5-.4-.7c-.3-.2-.6-.3-1-.3c-.5 0-.8.1-1.1.3c-.2.2-.3.4-.3.7zm13.9-2.7c.02-.02 0-.1 0-.1h-5.4v-.7h6.2s.05.78 0 .8v1.1c0 .4-.1.8-.2 1.3l-.8-.1c.1-.5.2-.9.2-1.2V1.8zm-2.1 3h4v.7h-8.3v-.7h3.4V3h.9v1.8zm-.2 1.5c.5 0 1 .1 1.3.1c.4.1.8.2 1 .4c.3.1.5.3.7.5c.1.2.2.4.2.7c0 .3-.1.5-.2.7c-.2.2-.4.4-.7.5c-.2.2-.6.3-1 .4c-.3 0-.8.1-1.3.1c-.5 0-.9-.1-1.3-.1c-.4-.1-.7-.2-1-.4c-.3-.1-.5-.3-.6-.5c-.2-.2-.3-.4-.3-.7c0-.3.1-.5.3-.7c.1-.2.3-.4.6-.5c.3-.2.6-.3 1-.4c.4 0 .8-.1 1.3-.1zm0 2.7c.7 0 1.3-.1 1.7-.2c.5-.2.7-.5.7-.8c0-.3-.2-.6-.7-.8c-.4-.1-1-.2-1.7-.2c-.7 0-1.3.1-1.7.2c-.4.2-.6.5-.6.8c0 .3.2.6.6.8c.4.1 1 .2 1.7.2zm10.4-7.3v.6h-5.3v-.6h2.2V.5h.9v1.2h2.2zm-.2 2h1.6V.6h.8v6.8h-.8v-3H218v-.7zm-.3.8c0 .3-.1.5-.2.7c-.1.2-.2.4-.4.6c-.2.1-.4.2-.7.3c-.2.1-.5.1-.8.1c-.3 0-.6 0-.9-.1c-.2-.1-.5-.2-.7-.3c-.1-.2-.3-.4-.4-.6c-.1-.2-.2-.4-.2-.7c0-.2.1-.4.2-.6c.1-.3.3-.4.4-.6c.2-.1.5-.3.7-.3c.3-.1.6-.2.9-.2c.3 0 .6.1.8.2c.3 0 .5.2.7.3c.2.2.3.3.4.6c.1.2.2.4.2.6zm-3.5 0c0 .4.2.6.4.8c.3.2.6.3 1 .3c.4 0 .7-.1.9-.3c.3-.2.4-.4.4-.8c0-.3-.1-.5-.4-.7c-.2-.2-.5-.3-.9-.3c-.4 0-.7.1-1 .3c-.2.2-.4.4-.4.7zm1.2 4.3h5.3v.7h-6.1V6.9h.8v1.9zm12.1-7.6v.6h-5.2v-.6h2.2v-.8h.8v.8h2.2zm1.7 1.7h1.3v.7h-1.3v2.3h-.9V.5h.9v2.4zm-1.4 1.9v.6c-.4.1-.9.1-1.4.2c-.5 0-1 .1-1.5.1h-2.8l-.1-.6h2.5v-.6c-.5 0-1-.1-1.3-.3c-.3-.3-.4-.5-.4-.9c0-.4.1-.7.5-.9c.4-.2.9-.3 1.6-.3c.7 0 1.2.1 1.6.3c.3.2.5.5.5.9c0 .4-.1.6-.4.8c-.3.2-.8.4-1.3.4v.5h1.3c.4-.1.8-.1 1.2-.2zm-4.2-1.5c0 .2.1.4.3.5c.3.1.6.2 1 .2c.4 0 .7-.1 1-.2c.2-.1.3-.3.3-.5c0-.2-.1-.3-.3-.5c-.3-.1-.6-.1-1-.1c-.4 0-.7 0-1 .1c-.2.2-.3.3-.3.5zm.5 4.9v.8h5.4v.6h-6.2v-2h5v-.7h-5.1v-.6h6v1.9h-5.1zm11.7-3.1h3.7v.6h-8.2v-.6h3.7V4h-2.7v-3h6.2v.6h-5.4v1.7h5.5v.7h-2.8v1.1zm-.4 1.3c1 0 1.7.1 2.3.4c.5.3.8.7.8 1.2c0 .6-.3 1-.8 1.3c-.6.2-1.3.4-2.3.4c-1 0-1.7-.2-2.3-.4c-.6-.3-.8-.7-.8-1.3c0-.5.2-.9.8-1.2c.6-.3 1.3-.4 2.3-.4zm0 2.6c.7 0 1.3 0 1.7-.2c.4-.2.6-.4.6-.8c0-.3-.2-.5-.6-.7c-.4-.2-1-.3-1.7-.3c-.7 0-1.3.1-1.7.3c-.4.2-.6.4-.6.7c0 .4.2.6.6.8c.4.2 1 .2 1.7.2zm9.2-5.1c-1 0-1.8-.2-2.4-.4c-.6-.3-.8-.7-.8-1.2c0-.5.2-.9.8-1.2c.6-.3 1.4-.4 2.4-.4c1 0 1.8.1 2.3.4c.6.3.9.7.9 1.2c0 .5-.3.9-.9 1.2c-.5.2-1.3.4-2.3.4zm0-2.6c-.8 0-1.4.1-1.8.3c-.4.1-.6.4-.6.7c0 .3.2.5.6.7c.4.2 1 .2 1.8.2c.7 0 1.3 0 1.7-.2c.4-.2.6-.4.6-.7c0-.3-.2-.6-.6-.7c-.4-.2-1-.3-1.7-.3zm-4.2 3.2h8.3v.7h-8.3v-.7zm1.9 3.5v.9h5.6v.7h-6.4V7.4h5.3v-.8h-5.4v-.7h6.3v2.1h-5.4zm10.2-2.6l-.3-.7l1.2-.3c.4-.1.7-.3 1-.5c.3-.2.6-.5.8-.7c.1-.3.2-.6.2-.9c.02.05-2.9 0-2.9 0v-.6h2.9V.6h.9v1.1h2.9v.6s-2.94.05-2.9 0c0 .3.1.6.2.9c.2.2.4.5.7.7c.3.2.7.4 1.1.5c.3.1.7.2 1.1.3l-.2.7l-1.1-.3c-.3-.1-.6-.2-.9-.4c-.3-.2-.6-.3-.8-.5c-.2-.3-.4-.5-.6-.7c-.1.2-.3.4-.5.7c-.2.2-.5.3-.8.5c-.3.2-.6.3-.9.4l-1.1.3zm7.5.7v.7h-3.7v2.9h-.9V6.8h-3.7v-.7h8.3zm8.4-5.5v6.6h-.8V.6h.8zm-1.9 4.7l-.4.6c-.6-.1-1-.4-1.4-.8c-.4-.3-.7-.8-.9-1.2c-.2.5-.5.9-.9 1.3c-.4.4-.9.7-1.5.9l-.4-.6c.4-.2.7-.3 1-.5l.7-.7c.2-.3.3-.6.5-.9c.1-.3.1-.6.1-.9c.02-.02 0-.5 0-.5h-2.1v-.7h5v.7h-2s-.02.48 0 .5c0 .3 0 .6.1.9c.2.3.3.5.5.8c.2.2.5.4.8.6c.2.2.5.4.9.5zm-3.2 3.5h5.4v.7h-6.2V6.6h.8v2.2zm15.3-4.5v.7h-1.5v4.7h-.8V.6h.8v3.7h1.5zM273.2.7v1.3h2.2v.7H270v-.7h2.3V.7h.9zm-.5 2.7c.4 0 .7.1.9.2c.3.1.6.2.8.4c.2.2.3.4.4.7c.1.3.2.5.2.8c0 .4-.1.6-.2.9c-.1.3-.2.5-.4.7c-.2.2-.5.3-.8.4c-.2.1-.5.1-.9.1c-.3 0-.6 0-.8-.1c-.3-.1-.5-.2-.7-.4c-.2-.2-.4-.4-.5-.7c-.1-.3-.2-.5-.2-.9c0-.3.1-.5.2-.8c.1-.3.3-.5.5-.7c.2-.2.4-.3.7-.4c.2-.1.5-.2.8-.2zm0 3.6c.3 0 .5-.1.6-.2c.2 0 .4-.1.5-.2c.1-.2.2-.3.3-.5c0-.2.1-.3.1-.6c0-.2-.1-.3-.1-.5c-.1-.2-.2-.3-.3-.5c-.1-.1-.3-.2-.5-.3c-.1 0-.3-.1-.6-.1c-.2 0-.3.1-.5.1c-.2.1-.4.2-.5.3c-.1.2-.2.3-.3.5c0 .2-.1.3-.1.5c0 .3.1.4.1.6c.1.2.2.3.3.5c.1.1.3.2.5.2c.2.1.3.2.5.2zm13-4.6v-.3h-5.6v-.6h6.4s.04.87 0 .9v1.8c0 .4-.1.7-.1 1.1c-.1.4-.1.8-.2 1.3l-.8-.1c.1-.9.2-1.6.3-2.3V2.4zm-2.4 5.3h4.2v.7h-8.2v-.7h3.2V4.4h.8v3.3zM298 .6v5.2h-.8V.6h.8zm-4.9 4.7c-.4 0-.7 0-1-.1c-.2-.1-.5-.3-.7-.4c-.2-.2-.4-.5-.5-.7c-.1-.3-.2-.6-.2-.9c0-.3.1-.6.2-.9c.1-.2.3-.4.5-.6c.2-.2.5-.4.7-.5c.3-.1.6-.1 1-.1c.3 0 .7 0 1 .1c.2.1.5.3.7.5c.2.2.4.4.5.6c.1.3.2.6.2.9c0 .3-.1.6-.2.9c-.1.2-.3.5-.5.7c-.2.1-.5.3-.7.4c-.3.1-.7.1-1 .1zm0-3.5c-.2 0-.4 0-.6.1c-.2.1-.4.2-.5.3c-.2.1-.3.3-.3.4c-.1.2-.2.4-.2.6c0 .2.1.4.2.6c0 .2.1.3.3.4c.1.2.3.3.5.3c.2.1.4.2.6.2c.2 0 .4-.1.6-.2c.2 0 .4-.1.5-.3c.2-.1.3-.2.4-.4c0-.2.1-.4.1-.6c0-.2-.1-.4-.1-.6c-.1-.1-.2-.3-.4-.4c-.1-.1-.3-.2-.5-.3c-.2-.1-.4-.1-.6-.1zm3.9 4.4v.5c0 .2 0 .4.1.7c.1.2.2.4.4.6c.1.2.3.4.5.6c.3.1.5.2.8.3l-.4.7c-.4-.2-.8-.4-1.1-.7c-.3-.3-.6-.7-.7-1.1c-.2.4-.4.8-.7 1.1c-.2.3-.6.6-1 .7c-.5-.1-.8-.4-1.1-.7c-.3-.3-.5-.6-.6-1c-.2.3-.4.7-.7 1c-.3.3-.7.5-1.1.7l-.4-.7c.2-.1.5-.2.7-.4c.3-.1.4-.3.6-.5c.2-.2.3-.4.4-.7c0-.2.1-.4.1-.6v-.5h.8v.5c0 .4.1.8.3 1.2c.2.4.5.7 1 .9c.2-.1.4-.3.5-.4c.2-.2.3-.4.4-.6c.2-.2.2-.4.3-.6c0-.2.1-.4.1-.5c-.02-.04 0-.5 0-.5h.8zm11.2-2v.6h-1.5v4.9h-.8V.5h.8v3.7h1.5zm-7.3-2.1v4.6h2.2c.3-.1.6-.1 1-.1c.3-.1.6-.1.9-.2l.1.7c-.3.1-.7.1-1 .2c-.3 0-.7 0-1 .1h-2.3c0 .03-.7 0-.7 0v-6h4.2v.7h-3.4zm7.9 7v-1h.9v1h-.9z" stroke="none" fill="#111111"/></g></svg>