<?xml version="1.0" standalone="no"?><!DOCTYPE svg PUBLIC "-//W3C//DTD SVG 1.1//EN" "http://www.w3.org/Graphics/SVG/1.1/DTD/svg11.dtd"><svg xmlns="http://www.w3.org/2000/svg" version="1.1" width="162px" height="19.6px" viewBox="0 -2 162 19.6" style="top:-2px"><desc>기아 챌린지 Key 아카데미</desc><defs/><g id="Polygon113680"><path d="m8.1.5h1.6v11.1H8.1V.5zm-7 1.2s5.33-.02 5.3 0c0 .8 0 1.6-.2 2.4c-.2.8-.4 1.5-.8 2.2c-.4.6-.9 1.3-1.6 1.8c-.6.6-1.4 1.1-2.4 1.6L.5 8.5c.7-.4 1.4-.7 1.9-1.1c.5-.4.9-.8 1.2-1.3c.4-.4.7-.9.8-1.5c.2-.5.4-1.1.4-1.7c.01.04-3.7 0-3.7 0V1.7zm20.7 3v1.3h-1.7v5.6h-1.5V.5h1.5v4.2h1.7zm-7.3-3.4c.4 0 .8.1 1.1.3c.4.2.7.4.9.8c.3.3.5.7.6 1.2c.2.5.3 1 .3 1.6c0 .7-.1 1.2-.3 1.7c-.1.5-.3.9-.6 1.2c-.2.4-.5.6-.9.8c-.3.2-.7.3-1.1.3c-.5 0-.8-.1-1.2-.3c-.4-.2-.7-.4-.9-.8c-.3-.3-.5-.7-.6-1.2c-.2-.5-.2-1-.2-1.7c0-.6 0-1.1.2-1.6c.1-.5.3-.9.6-1.2c.2-.4.5-.6.9-.8c.4-.2.7-.3 1.2-.3zm0 6.5c.4 0 .7-.2 1-.7c.2-.4.3-1 .3-1.9c0-.8-.1-1.4-.3-1.8c-.3-.5-.6-.7-1-.7c-.5 0-.8.2-1 .7c-.3.4-.4 1-.4 1.8c0 .9.1 1.5.4 1.9c.2.5.5.7 1 .7zm17.7-3.7v2.2h-1.4V.7h1.4v2.1h.9V.5h1.5v5.8h-1.5V4.1h-.9zm-1.6.9L30 6.2c-.6-.2-1-.4-1.3-.7c-.3-.3-.6-.6-.8-1c-.2.4-.5.8-.8 1.1c-.4.3-.8.6-1.3.7l-.7-1.1c.7-.3 1.2-.6 1.5-1c.3-.5.5-.9.5-1.4c.02.01-1.7 0-1.7 0V1.6h1.7v-1h1.5v1h1.7v1.2s-1.68.01-1.7 0c.1.4.2.9.6 1.3c.3.4.8.7 1.4.9zm-2 5.3h6.3v1.2h-7.8v-3h5.9v-.6h-6V6.7h7.6v2.9h-6v.7zM45.3.5v8.2h-1.6V.5h1.6zm-2.5 5.2l.2 1.2c-.4.1-.8.2-1.2.2c-.4.1-.8.1-1.2.1c-.4 0-.9.1-1.3.1h-2.6V3.6h3.5V2.5h-3.5V1.3h5.1v3.5h-3.6s.04 1.22 0 1.2h1.4c.4 0 .8 0 1.1-.1c.4 0 .8 0 1.1-.1c.3 0 .7-.1 1-.1zm-3.3 4.4h6.1v1.3h-7.7V8h1.6v2.1zM54.7.5h1.6v11.1h-1.6V.5zm-3.3 2.4s-.03.62 0 .6c0 .5 0 .9.1 1.4c.2.4.3.8.5 1.2c.3.4.6.8.9 1.1c.3.3.7.6 1.2.8l-.9 1.2c-.6-.2-1.1-.6-1.6-1.1c-.4-.5-.8-1.1-1-1.8c-.3.7-.6 1.4-1 1.9c-.5.6-1 1-1.7 1.3L47 8.3c.5-.3.9-.5 1.2-.9c.4-.3.7-.7.9-1.1c.2-.4.4-.9.5-1.4c.1-.4.2-.9.2-1.4c-.04.02 0-.6 0-.6h-2.3V1.6h6.2v1.3h-2.3zm9.9 7.7V1.7h1.8v3.8l3-3.8h1.9l-2.7 3.5l3.2 5.4h-1.9l-2.3-4l-1.2 1.5v2.5h-1.8zm11 .1c-.5 0-.9-.1-1.3-.2c-.5-.2-.8-.4-1.1-.7c-.3-.3-.5-.7-.7-1.1c-.2-.4-.3-.9-.3-1.5c0-.5.1-1 .3-1.5c.2-.4.4-.8.7-1.1c.3-.3.6-.5 1-.7c.4-.1.8-.2 1.2-.2c.4 0 .8.1 1.2.2c.3.2.6.4.9.7c.2.3.4.6.5 1c.1.4.2.8.2 1.3c0 .1 0 .3-.1.5v.3h-4.2c.1.5.3 1 .6 1.2c.4.3.8.5 1.3.5c.3 0 .5-.1.8-.1c.2-.1.5-.2.7-.4l.6 1.1c-.3.2-.7.4-1.1.5c-.4.2-.8.2-1.2.2zm-1.7-4.2h2.8c0-.4-.1-.8-.4-1.1c-.2-.2-.5-.4-.9-.4c-.4 0-.7.2-1 .4c-.2.3-.4.6-.5 1.1zm9.1 4.3l-.8 2.5h-1.8l1-2.7l-2.6-6.8h1.7s1.11 3.16 1.1 3.2l.3.9c.1.3.2.6.3 1c.1-.4.2-.7.3-1c.1-.3.1-.6.2-.9l.9-3.2h1.7l-2.3 7zm3-4.1V5.4h4.3v1.3h-4.3zm15.6-2v1.3h-1.6v5.6h-1.6V.5h1.6v4.2h1.6zM91 1.3c.4 0 .8.1 1.1.3c.4.2.7.4 1 .8c.2.3.4.7.6 1.2c.1.5.2 1 .2 1.6c0 .7-.1 1.2-.2 1.7c-.2.5-.4.9-.6 1.2c-.3.4-.6.6-1 .8c-.3.2-.7.3-1.1.3c-.4 0-.8-.1-1.2-.3c-.3-.2-.6-.4-.9-.8c-.3-.3-.5-.7-.6-1.2c-.1-.5-.2-1-.2-1.7c0-.6.1-1.1.2-1.6c.1-.5.3-.9.6-1.2c.3-.4.6-.6.9-.8c.4-.2.8-.3 1.2-.3zm0 6.5c.4 0 .7-.2 1-.7c.2-.4.4-1 .4-1.9c0-.8-.2-1.4-.4-1.8c-.3-.5-.6-.7-1-.7c-.4 0-.8.2-1 .7c-.3.4-.4 1-.4 1.8c0 .9.1 1.5.4 1.9c.2.5.6.7 1 .7zm18.2-3v1.3h-1.5v5.5h-1.6V.5h1.6v4.3h1.5zm-9.6-3.2h5.1c0 .8-.1 1.7-.2 2.4c-.1.8-.4 1.6-.7 2.3c-.4.7-.9 1.3-1.5 1.9c-.6.6-1.5 1.2-2.5 1.7L99 8.7c.9-.4 1.6-.9 2.2-1.4c.5-.5.9-1.1 1.3-1.7c-.04-.02-3.2.3-3.2.3L99 4.5s3.91-.18 3.9-.2c.1-.2.1-.4.2-.7v-.7c.04-.04-3.5 0-3.5 0V1.6zM118 .5h1.5v11.1H118V.5zm-2.3 4.1V.7h1.5v10.4h-1.5V5.9h-1.9V4.6h1.9zM111.9 3s-.04 4.84 0 4.8h1.5l1.5-.3l.1 1.3c-.3.1-.6.2-.9.2c-.3 0-.6.1-.9.1h-2.1c-.04.03-.8 0-.8 0V1.8h4.2v1.2h-2.6zM128.5.5h1.6v11.1h-1.6V.5zm-7 1h5.3v7.5h-5.3V1.5zm3.8 1.3h-2.2v4.9h2.2V2.8z" stroke="none" fill="#fff"/></g></svg>