<?xml version="1.0" standalone="no"?><!DOCTYPE svg PUBLIC "-//W3C//DTD SVG 1.1//EN" "http://www.w3.org/Graphics/SVG/1.1/DTD/svg11.dtd"><svg xmlns="http://www.w3.org/2000/svg" version="1.1" width="162px" height="19.6px" viewBox="0 -2 162 19.6" style="top:-2px"><desc>기아 챌린지 에코 프로젝트</desc><defs/><g id="Polygon114139"><path d="m8.1.5h1.6v11.1H8.1V.5zm-7 1.2s5.33-.02 5.3 0c0 .8 0 1.6-.2 2.4c-.2.8-.4 1.5-.8 2.2c-.4.6-.9 1.3-1.6 1.8c-.6.6-1.4 1.1-2.4 1.6L.5 8.5c.7-.4 1.4-.7 1.9-1.1c.5-.4.9-.8 1.2-1.3c.4-.4.7-.9.8-1.5c.2-.5.4-1.1.4-1.7c.01.04-3.7 0-3.7 0V1.7zm20.7 3v1.3h-1.7v5.6h-1.5V.5h1.5v4.2h1.7zm-7.3-3.4c.4 0 .8.1 1.1.3c.4.2.7.4.9.8c.3.3.5.7.6 1.2c.2.5.3 1 .3 1.6c0 .7-.1 1.2-.3 1.7c-.1.5-.3.9-.6 1.2c-.2.4-.5.6-.9.8c-.3.2-.7.3-1.1.3c-.5 0-.8-.1-1.2-.3c-.4-.2-.7-.4-.9-.8c-.3-.3-.5-.7-.6-1.2c-.2-.5-.2-1-.2-1.7c0-.6 0-1.1.2-1.6c.1-.5.3-.9.6-1.2c.2-.4.5-.6.9-.8c.4-.2.7-.3 1.2-.3zm0 6.5c.4 0 .7-.2 1-.7c.2-.4.3-1 .3-1.9c0-.8-.1-1.4-.3-1.8c-.3-.5-.6-.7-1-.7c-.5 0-.8.2-1 .7c-.3.4-.4 1-.4 1.8c0 .9.1 1.5.4 1.9c.2.5.5.7 1 .7zm17.7-3.7v2.2h-1.4V.7h1.4v2.1h.9V.5h1.5v5.8h-1.5V4.1h-.9zm-1.6.9L30 6.2c-.6-.2-1-.4-1.3-.7c-.3-.3-.6-.6-.8-1c-.2.4-.5.8-.8 1.1c-.4.3-.8.6-1.3.7l-.7-1.1c.7-.3 1.2-.6 1.5-1c.3-.5.5-.9.5-1.4c.02.01-1.7 0-1.7 0V1.6h1.7v-1h1.5v1h1.7v1.2s-1.68.01-1.7 0c.1.4.2.9.6 1.3c.3.4.8.7 1.4.9zm-2 5.3h6.3v1.2h-7.8v-3h5.9v-.6h-6V6.7h7.6v2.9h-6v.7zM45.3.5v8.2h-1.6V.5h1.6zm-2.5 5.2l.2 1.2c-.4.1-.8.2-1.2.2c-.4.1-.8.1-1.2.1c-.4 0-.9.1-1.3.1h-2.6V3.6h3.5V2.5h-3.5V1.3h5.1v3.5h-3.6s.04 1.22 0 1.2h1.4c.4 0 .8 0 1.1-.1c.4 0 .8 0 1.1-.1c.3 0 .7-.1 1-.1zm-3.3 4.4h6.1v1.3h-7.7V8h1.6v2.1zM54.7.5h1.6v11.1h-1.6V.5zm-3.3 2.4s-.03.62 0 .6c0 .5 0 .9.1 1.4c.2.4.3.8.5 1.2c.3.4.6.8.9 1.1c.3.3.7.6 1.2.8l-.9 1.2c-.6-.2-1.1-.6-1.6-1.1c-.4-.5-.8-1.1-1-1.8c-.3.7-.6 1.4-1 1.9c-.5.6-1 1-1.7 1.3L47 8.3c.5-.3.9-.5 1.2-.9c.4-.3.7-.7.9-1.1c.2-.4.4-.9.5-1.4c.1-.4.2-.9.2-1.4c-.04.02 0-.6 0-.6h-2.3V1.6h6.2v1.3h-2.3zM68.7.5h1.5v11.1h-1.5V.5zm-2.2 4.1V.7h1.5v10.4h-1.5V5.9s-.88-.01-.9 0c-.1 1.1-.3 1.9-.7 2.5c-.4.6-1 .9-1.7.9c-.3 0-.7 0-1-.2c-.3-.2-.5-.5-.7-.8c-.2-.4-.4-.8-.5-1.3c-.1-.5-.2-1-.2-1.7c0-.6.1-1.2.2-1.7c.1-.4.3-.9.5-1.2c.2-.4.4-.6.7-.8c.3-.2.7-.3 1-.3c.7 0 1.2.3 1.6.8c.5.6.7 1.4.8 2.5c0 .01.9 0 .9 0zm-3.3 3.3c.3 0 .6-.2.7-.7c.2-.4.3-1 .3-1.9c0-.8-.1-1.5-.3-1.9c-.1-.4-.4-.6-.7-.6c-.3 0-.5.2-.7.6c-.1.4-.2 1.1-.2 1.9c0 .9.1 1.5.2 1.9c.2.5.4.7.7.7zm9.3-3.6s6.65-.17 6.7-.2V2.7c-.01.02-6.3 0-6.3 0V1.5h7.8s.05.94 0 .9v2.3c0 .4-.1.9-.2 1.4c0 .5-.1 1-.3 1.6l-1.5-.2c.1-.4.1-.7.2-1.1c.1-.4.1-.7.2-1.1c-.04.04-6.4.4-6.4.4l-.2-1.4zM76.8 9h4.9v1.3h-10V9h3.6V6.4h1.5v2.6zm10.8-2.9V2.8h-1.5V1.5h8.4v1.3H93v3.3h1.5v1.2h-8.3V6.1h1.4zm3.9 0V2.8h-2.3v3.3h2.3zM85.4 9h10v1.3h-10V9zm16.7.1h4.3v1.3H96.3V9.1h4.2V7.4h-3V3.7h6.2V2.5h-6.2V1.2h7.7v3.7h-6.1v1.3h6.4v1.2h-3.4v1.7zM115.2.5h1.5v6.8h-1.5V.5zm-3.3 2.8h1.2V.7h1.5v6.5h-1.5V4.5h-1.2V3.3zm.9 2.5L112 7c-.5-.2-.9-.4-1.2-.7c-.3-.3-.6-.7-.7-1.1c-.2.4-.5.8-.9 1.2c-.3.3-.7.6-1.2.8l-.8-1.2c.4-.2.7-.4.9-.6c.3-.2.5-.4.7-.7c.2-.3.3-.6.4-.9c0-.3.1-.6.1-.9c-.03-.01 0-.3 0-.3h-1.8V1.3h4.9v1.3h-1.6v.3c0 .3 0 .6.1.9c.1.2.2.5.4.8c.1.2.3.4.6.7c.2.2.5.3.9.5zm-3.7 3.1V7.7h7.6v3.9h-1.5V8.9h-6.1zm18.1-2.7v1.3h-7.7V1.3h7.7v1.3h-6.1v1.2h5.8v1.2h-5.8v1.2h6.1zM118.3 9h10v1.3h-10V9z" stroke="none" fill="#fff"/></g></svg>