<?xml version="1.0" standalone="no"?><!DOCTYPE svg PUBLIC "-//W3C//DTD SVG 1.1//EN" "http://www.w3.org/Graphics/SVG/1.1/DTD/svg11.dtd"><svg xmlns="http://www.w3.org/2000/svg" version="1.1" width="221px" height="17.3px" viewBox="0 -2 221 17.3" style="top:-2px"><desc>greentrip.kr</desc><defs/><g id="Polygon117380"><path d="m2.8 11.5c-.3 0-.6 0-.9-.1c-.3-.1-.6-.2-.8-.3c-.2-.1-.3-.3-.4-.5c-.1-.2-.2-.4-.2-.6c0-.2.1-.5.2-.7l.6-.6c-.1-.1-.2-.2-.3-.4c-.1-.1-.2-.3-.2-.5c0-.2.1-.4.2-.6l.4-.4v-.1c-.1-.1-.3-.3-.5-.6c-.1-.2-.2-.5-.2-.9c0-.3.1-.5.2-.8c.1-.2.3-.4.4-.6c.2-.2.5-.3.7-.4c.3-.1.5-.1.8-.1h.4c.2 0 .3.1.4.1h1.9v.7s-1.12.01-1.1 0c.1.1.2.3.3.5c.1.2.1.4.1.7c0 .2 0 .5-.1.7c-.1.3-.3.5-.5.7c-.2.1-.4.3-.6.3c-.3.1-.5.2-.8.2c-.3 0-.6-.1-.8-.2l-.3.3c0 .1-.1.2-.1.3c0 .2.1.4.2.5c.2.1.4.2.8.2h1.1c.6 0 1.1.1 1.4.3c.3.2.5.5.5 1c0 .2-.1.5-.2.7c-.1.2-.3.4-.6.6c-.2.2-.5.3-.8.4c-.4.1-.8.2-1.2.2zm0-5h.5l.3-.3c.1-.1.2-.3.3-.4c0-.2.1-.4.1-.6c0-.4-.1-.7-.4-.9c-.2-.2-.5-.4-.8-.4c-.3 0-.6.2-.8.4c-.3.2-.4.5-.4.9c0 .2.1.4.1.6c.1.1.2.3.3.4l.3.3h.5zm.1 4.4c.3 0 .5-.1.8-.1c.2-.1.4-.2.5-.3c.2-.1.3-.2.4-.4c.1-.1.1-.2.1-.4c0-.2-.1-.4-.3-.5c-.2-.1-.5-.2-.8-.2H2.3c-.2 0-.3 0-.4-.1c-.2.2-.3.3-.4.5c-.1.1-.2.3-.2.5c0 .3.2.5.4.7c.3.2.7.3 1.2.3zm3.6-2V3.4h.7l.1 1h.1c.2-.3.4-.6.7-.8c.2-.2.5-.3.8-.3h.3c.1 0 .2 0 .3.1l-.2.8c-.1 0-.1-.1-.2-.1h-.3c-.1 0-.2 0-.4.1c-.1 0-.2.1-.3.2c-.2.1-.3.2-.4.4c-.1.1-.2.3-.3.6v3.5h-.9zm6 .2c-.4 0-.7-.1-1.1-.2c-.3-.2-.6-.3-.8-.6c-.3-.2-.4-.5-.6-.9c-.1-.4-.2-.8-.2-1.2c0-.5.1-.9.2-1.2c.2-.4.3-.7.6-1c.2-.2.5-.4.8-.5c.3-.2.6-.2.9-.2c.4 0 .7 0 .9.1c.3.2.6.3.7.6c.2.2.4.5.5.8c.1.3.1.7.1 1.1v.5h-3.8c.1.6.3 1.1.6 1.4c.3.3.7.5 1.3.5c.2 0 .5 0 .7-.1c.2-.1.5-.2.7-.3l.3.6c-.2.2-.5.3-.8.4c-.3.1-.6.2-1 .2zm-1.8-3.4h3c0-.6-.1-1-.4-1.3c-.2-.3-.5-.4-1-.4c-.2 0-.4 0-.5.1c-.2.1-.4.2-.5.4c-.2.1-.3.3-.4.5c-.1.2-.1.5-.2.7zm7.2 3.4c-.4 0-.7-.1-1-.2c-.3-.2-.6-.3-.9-.6c-.2-.2-.4-.5-.5-.9c-.2-.4-.2-.8-.2-1.2c0-.5 0-.9.2-1.2c.1-.4.3-.7.5-1c.3-.2.5-.4.8-.5c.3-.2.6-.2 1-.2c.3 0 .6 0 .9.1c.3.2.5.3.7.6c.2.2.3.5.4.8c.1.3.2.7.2 1.1v.2c-.1.1-.1.2-.1.3h-3.7c0 .6.2 1.1.5 1.4c.4.3.8.5 1.3.5c.3 0 .5 0 .8-.1l.6-.3l.3.6c-.2.2-.5.3-.8.4c-.3.1-.6.2-1 .2zm-1.7-3.4h2.9c0-.6-.1-1-.3-1.3c-.3-.3-.6-.4-1-.4c-.2 0-.4 0-.6.1c-.2.1-.3.2-.5.4c-.1.1-.2.3-.3.5c-.1.2-.2.5-.2.7zm4.9 3.2V3.4h.8l.1.8s0-.01 0 0c.3-.3.5-.5.8-.7c.3-.2.7-.2 1.1-.2c.6 0 1 .1 1.3.5c.2.4.4.9.4 1.6c-.05.03 0 3.5 0 3.5h-1s.02-3.35 0-3.4c0-.5-.1-.9-.2-1.1c-.2-.2-.5-.3-.8-.3c-.3 0-.6 0-.8.2c-.2.1-.5.3-.7.6c-.05.02 0 4 0 4h-1zm7.8.2c-.3 0-.5-.1-.7-.2c-.3-.1-.4-.2-.5-.3c-.2-.2-.2-.4-.3-.6c-.1-.2-.1-.5-.1-.8v-3h-.8v-.8h.9l.1-1.6h.7v1.6h1.5v.8h-1.5s.04 3.04 0 3c0 .4.1.7.2.8c.1.2.4.3.7.3h.3c.1-.1.2-.1.3-.1l.2.7c-.1 0-.3.1-.5.1c-.2 0-.3.1-.5.1zm1.9-.2V3.4h.8v1h.1c.2-.3.4-.6.7-.8c.2-.2.5-.3.8-.3h.4c.1 0 .1 0 .2.1l-.1.8c-.1 0-.2-.1-.3-.1h-.3c-.1 0-.2 0-.3.1c-.2 0-.3.1-.4.2c-.1.1-.3.2-.4.4c-.1.1-.2.3-.3.6c.02-.02 0 3.5 0 3.5h-.9zm4.5-7.6v1h-.9v-1h.9zm0 7.6h-.9V3.4h.9v5.5zm1.5 2.4V3.4h.8v.6s.08.03.1 0c.2-.2.5-.4.8-.5c.3-.2.6-.2.9-.2c.4 0 .7 0 1 .2c.3.1.5.3.7.5c.2.3.3.6.4.9c.1.4.1.8.1 1.2c0 .5 0 .9-.2 1.2c-.1.4-.3.7-.5 1c-.2.2-.5.4-.7.6c-.3.1-.6.2-1 .2c-.2 0-.5-.1-.7-.2c-.3-.1-.5-.3-.8-.5v2.9h-.9zm2.3-3c.5 0 .8-.2 1.1-.6c.3-.4.5-.9.5-1.6c0-.3-.1-.6-.1-.8c-.1-.3-.1-.5-.3-.7c-.1-.2-.2-.3-.4-.4c-.2-.1-.4-.2-.7-.2c-.2 0-.5.1-.7.2c-.2.2-.5.4-.8.6v2.9c.3.2.5.4.8.5c.2.1.4.1.6.1zm3.3.8v-1h.9v1h-.9zm2.7-.2V.8h.9v5.5l2.4-2.9h1l-1.8 2.2l2.1 3.3h-1.1L47 6.3l-1 1.2v1.4h-.9zm5.4 0V3.4h.8v1h.1c.2-.3.4-.6.7-.8c.2-.2.5-.3.8-.3h.4s.1 0 .2.1l-.1.8c-.1 0-.2-.1-.3-.1h-.3c-.1 0-.2 0-.3.1c-.2 0-.3.1-.4.2c-.1.1-.3.2-.4.4c-.1.1-.2.3-.3.6c.02-.02 0 3.5 0 3.5h-.9z" stroke="none" fill="#111111"/></g></svg>