<?xml version="1.0" standalone="no"?><!DOCTYPE svg PUBLIC "-//W3C//DTD SVG 1.1//EN" "http://www.w3.org/Graphics/SVG/1.1/DTD/svg11.dtd"><svg xmlns="http://www.w3.org/2000/svg" version="1.1" width="409.3px" height="26.8px" viewBox="0 -3 409.3 26.8" style="top:-3px"><desc>THINC</desc><defs/><g id="Polygon126932"><path d="m4.2 15V4.1H.5V2.4h9.3v1.7H6.2V15h-2zm7.7 0V2.4h2v5.1h5.4V2.4h1.9V15h-1.9V9.3h-5.4v5.7h-2zm12.5 0V2.4h2V15h-2zm5.2 0V2.4h2l4.2 7.4l1.3 2.6s.06.04.1 0c-.1-.6-.2-1.3-.2-2c-.1-.7-.1-1.4-.1-2.1V2.4h1.9V15h-2l-4.2-7.4L31.3 5s-.09-.04-.1 0c.1.6.1 1.3.2 2c0 .7.1 1.4.1 2.1c-.03-.04 0 5.9 0 5.9h-1.9zm17.3.2c-.8 0-1.5-.2-2.2-.5c-.7-.2-1.3-.7-1.8-1.2c-.5-.6-.9-1.2-1.2-2c-.2-.8-.4-1.7-.4-2.8c0-1 .2-1.9.4-2.7c.3-.8.7-1.5 1.2-2.1c.6-.5 1.1-1 1.8-1.2c.7-.3 1.5-.5 2.3-.5c.7 0 1.4.2 2 .5c.6.3 1.1.7 1.5 1.1L49.4 5c-.3-.3-.7-.5-1.1-.8c-.3-.2-.8-.3-1.3-.3c-.6 0-1.1.1-1.5.4c-.4.2-.8.5-1.2.9c-.3.4-.5.9-.7 1.5c-.2.6-.3 1.2-.3 2c0 .7.1 1.4.3 2c.2.6.4 1.1.7 1.5c.3.4.7.7 1.1.9c.5.3 1 .4 1.5.4c.6 0 1.1-.2 1.6-.4c.4-.2.8-.6 1.2-1l1.1 1.3c-.5.6-1.1 1-1.8 1.3c-.6.3-1.3.5-2.1.5z" stroke="none" fill="#111111"/></g></svg>