<?xml version="1.0" standalone="no"?><!DOCTYPE svg PUBLIC "-//W3C//DTD SVG 1.1//EN" "http://www.w3.org/Graphics/SVG/1.1/DTD/svg11.dtd"><svg xmlns="http://www.w3.org/2000/svg" version="1.1" width="575px" height="233.7px" viewBox="0 -8 575 233.7" style="top:-8px"><desc>텍스트 B</desc><defs/><g id="Polygon10935"><path d="m43.7 165.9H42v-15.3h1.7v15.3zm2.1-5.6c0-1.1.3-2.1.7-3c.4-.8 1-1.5 1.8-1.9c.8-.5 1.7-.7 2.7-.7c1 0 1.8.2 2.6.7c.8.4 1.4 1.1 1.8 1.9c.5.9.7 1.9.7 3v.3c0 1.1-.2 2.1-.7 2.9c-.4.9-1 1.5-1.8 2c-.8.4-1.6.7-2.6.7c-1 0-1.9-.3-2.7-.7c-.8-.5-1.4-1.1-1.8-2c-.4-.8-.7-1.8-.7-2.9v-.3zm1.9.3c0 1.3.3 2.3.9 3c.5.8 1.3 1.2 2.4 1.2c1 0 1.8-.4 2.4-1.2c.6-.7.9-1.7.9-3v-.3c0-1.3-.3-2.3-.9-3.1c-.6-.8-1.4-1.1-2.4-1.1c-1.1 0-1.9.3-2.4 1.1c-.6.8-.9 1.8-.9 3.1v.3zm13.2 5.3L56.7 155h1.9l3.3 9l3.4-9h1.7l-4.1 10.9h-2zm6.9-5.7c0-1.1.2-2 .6-2.9c.4-.8 1-1.5 1.7-1.9c.8-.5 1.6-.7 2.6-.7c1.4 0 2.6.4 3.4 1.4c.9 1 1.3 2.4 1.3 4.2c-.02-.02 0 .7 0 .7h-7.9c.1 1.1.4 2 1 2.7c.6.7 1.4 1.1 2.4 1.1c1.5 0 2.8-.6 3.9-1.7v1.8c-.5.4-1 .7-1.7.9c-.6.3-1.3.4-2.2.4c-1.1 0-2-.3-2.7-.7c-.8-.5-1.4-1.1-1.8-2c-.4-.8-.6-1.8-.6-2.9v-.4zm7.8-.6c0-1.2-.3-2-.8-2.6c-.5-.6-1.2-.9-2.1-.9c-.6 0-1.1.1-1.5.4c-.5.3-.9.7-1.1 1.2c-.3.6-.5 1.2-.5 1.9h6zm3.1.8c0-1.1.2-2.2.6-3c.5-.9 1-1.6 1.8-2c.7-.5 1.5-.7 2.4-.7c.7 0 1.4.1 2 .5c.6.3 1.1.8 1.5 1.4c.02-.02 0-6 0-6h1.8v15.3h-1.6s-.16-1.72-.2-1.7c-.3.6-.8 1.1-1.5 1.4c-.6.4-1.3.6-2 .6c-.9 0-1.7-.3-2.4-.7c-.8-.5-1.3-1.2-1.8-2.1c-.4-.8-.6-1.8-.6-3zm1.9 0c0 .9.1 1.7.4 2.3c.3.7.6 1.2 1.1 1.5c.5.4 1.1.6 1.7.6c.7 0 1.3-.3 1.9-.8c.6-.5 1-1.1 1.3-1.8v-3.6c-.3-.7-.7-1.3-1.3-1.8c-.6-.5-1.2-.7-1.9-.7c-.6 0-1.1.1-1.6.5c-.5.3-.9.8-1.2 1.5c-.3.7-.4 1.4-.4 2.3zm15.5-.1c0-1.1.2-2.1.6-3c.5-.8 1.1-1.5 1.9-1.9c.7-.5 1.6-.7 2.6-.7c1 0 1.9.2 2.7.7c.7.4 1.3 1.1 1.8 1.9c.4.9.6 1.9.6 3v.3c0 1.1-.2 2.1-.6 2.9c-.5.9-1.1 1.5-1.8 2c-.8.4-1.7.7-2.7.7c-1 0-1.9-.3-2.6-.7c-.8-.5-1.4-1.1-1.9-2c-.4-.8-.6-1.8-.6-2.9v-.3zm1.8.3c0 1.3.3 2.3.9 3c.6.8 1.4 1.2 2.4 1.2c1 0 1.8-.4 2.4-1.2c.6-.7.9-1.7.9-3v-.3c0-1.3-.3-2.3-.9-3.1c-.6-.8-1.4-1.1-2.4-1.1c-1 0-1.8.3-2.4 1.1c-.6.8-.9 1.8-.9 3.1v.3zm10.5 5.3V155h1.6s.18 2.16.2 2.2c.4-.7.9-1.3 1.6-1.8c.7-.5 1.4-.7 2.3-.7c1.1 0 2 .3 2.6 1c.7.7 1 1.7 1 3c-.04 0 0 7.2 0 7.2h-1.8s-.02-7.06 0-7.1c0-.9-.2-1.6-.5-2c-.3-.5-.9-.7-1.6-.7c-.5 0-1 .1-1.5.4c-.5.4-.9.8-1.3 1.3c-.4.5-.7 1.1-.8 1.6v6.5h-1.8zm11.1-5.7c0-1.1.2-2 .6-2.9c.5-.8 1-1.5 1.8-1.9c.7-.5 1.6-.7 2.5-.7c1.5 0 2.6.4 3.5 1.4c.8 1 1.2 2.4 1.2 4.2c.02-.02 0 .7 0 .7h-7.8c0 1.1.4 2 1 2.7c.5.7 1.3 1.1 2.3 1.1c1.6 0 2.9-.6 3.9-1.7v1.8c-.5.4-1 .7-1.6.9c-.6.3-1.4.4-2.3.4c-1 0-1.9-.3-2.7-.7c-.8-.5-1.4-1.1-1.8-2c-.4-.8-.6-1.8-.6-2.9v-.4zm7.9-.6c-.1-1.2-.3-2-.9-2.6c-.5-.6-1.2-.9-2.1-.9c-.5 0-1 .1-1.5.4c-.4.3-.8.7-1.1 1.2c-.3.6-.5 1.2-.5 1.9h6.1zm3.4 3.5c.9 1.1 2 1.7 3.5 1.7c.7 0 1.3-.2 1.7-.5c.4-.3.6-.7.6-1.2c0-.4-.1-.7-.3-1c-.2-.3-.7-.5-1.3-.8l-1.5-.6c-.9-.4-1.5-.8-1.9-1.3c-.5-.5-.7-1.1-.7-1.8c0-.5.1-1 .4-1.5c.3-.4.7-.8 1.3-1c.5-.3 1.2-.4 2-.4c.7 0 1.3.1 1.9.3c.5.3 1 .6 1.4.9v1.9c-.5-.6-1-1-1.6-1.3c-.5-.3-1.1-.4-1.7-.4c-.7 0-1.1.1-1.5.4c-.3.3-.5.6-.5 1c0 .4.2.7.4.9c.3.2.7.5 1.3.7l1.5.6c.9.4 1.5.8 2 1.3c.4.6.6 1.2.6 2c0 .9-.4 1.7-1.2 2.3c-.7.6-1.7.9-2.9.9c-.8 0-1.5-.1-2-.4c-.6-.2-1.1-.5-1.5-.8v-1.9zm16.7-9.9h-1.8v-2.3h1.8v2.3zm0 12.7h-1.8V155h1.8v10.9zm2.8 0V155h1.6s.18 2.16.2 2.2c.4-.7.9-1.3 1.6-1.8c.7-.5 1.4-.7 2.3-.7c1.1 0 2 .3 2.6 1c.7.7 1 1.7 1 3c-.04 0 0 7.2 0 7.2h-1.8s-.02-7.06 0-7.1c0-.9-.2-1.6-.5-2c-.3-.5-.9-.7-1.6-.7c-.5 0-1 .1-1.5.4c-.5.4-.9.8-1.3 1.3c-.4.5-.7 1.1-.8 1.6v6.5h-1.8zm18.2-9.5h-2.4V155h2.4v-3.4h1.7v3.4h2.5v1.4h-2.5v9.5h-1.7v-9.5zm5.7 9.5v-15.3h1.8s-.04 6.52 0 6.5c.4-.7.9-1.2 1.6-1.7c.6-.5 1.4-.7 2.2-.7c1.2 0 2.1.3 2.7 1c.6.7.9 1.7.9 3v7.2h-1.8s.04-7.06 0-7.1c0-.9-.1-1.6-.4-2c-.4-.5-.9-.7-1.6-.7c-.5 0-1 .1-1.5.4c-.5.3-1 .8-1.3 1.3c-.4.5-.7 1-.8 1.6c-.04-.02 0 6.5 0 6.5h-1.8zm11.1-5.7c0-1.1.2-2 .6-2.9c.4-.8 1-1.5 1.7-1.9c.8-.5 1.6-.7 2.6-.7c1.4 0 2.6.4 3.4 1.4c.9 1 1.3 2.4 1.3 4.2c-.02-.02 0 .7 0 .7H187c.1 1.1.4 2 1 2.7c.6.7 1.4 1.1 2.4 1.1c1.5 0 2.8-.6 3.9-1.7v1.8c-.5.4-1 .7-1.7.9c-.6.3-1.3.4-2.2.4c-1.1 0-2-.3-2.7-.7c-.8-.5-1.4-1.1-1.8-2c-.4-.8-.6-1.8-.6-2.9v-.4zm7.8-.6c0-1.2-.3-2-.8-2.6c-.5-.6-1.2-.9-2.1-.9c-.6 0-1.1.1-1.5.4c-.5.3-.9.7-1.1 1.2c-.3.6-.5 1.2-.5 1.9h6zm8.5 2.7c.5.7 1 1.3 1.7 1.7c.7.4 1.5.6 2.3.6c1 0 1.8-.3 2.5-.8c.6-.5.9-1.2.9-2.1c0-.8-.2-1.5-.7-2.1c-.6-.5-1.4-.8-2.5-.8c-.04-.04-1.4 0-1.4 0v-1.6s1.32.02 1.3 0c.8 0 1.5-.2 2.1-.7c.6-.4.9-1 .9-1.7c0-.9-.3-1.5-.8-2c-.6-.4-1.2-.6-2-.6c-.8 0-1.5.2-2.1.6c-.6.4-1.1 1-1.6 1.7v-2.2c.4-.5.9-.8 1.6-1.1c.7-.4 1.4-.5 2.3-.5c.9 0 1.7.1 2.4.5c.7.3 1.2.8 1.6 1.4c.3.6.5 1.2.5 2c0 1.6-.9 2.7-2.6 3.3c.9.2 1.7.7 2.2 1.4c.5.7.8 1.5.8 2.5c0 .8-.2 1.6-.7 2.2c-.4.7-1.1 1.2-1.8 1.5c-.8.4-1.7.6-2.8.6c-.9 0-1.7-.2-2.4-.5c-.7-.3-1.3-.6-1.7-1v-2.3zm11.9 3.6V155h1.6l.1 1.9c.3-.7.7-1.3 1.3-1.7c.5-.3 1.2-.5 2-.5h.5c.2 0 .4.1.5.1v1.6c-.3-.1-.7-.2-1.1-.2c-.7 0-1.4.2-1.9.7c-.6.5-1 1.1-1.3 1.9c.04-.02 0 7.1 0 7.1h-1.7zm6.7-5.5c0-1.1.2-2.2.7-3c.4-.9.9-1.6 1.7-2c.7-.5 1.5-.7 2.4-.7c.7 0 1.4.1 2 .5c.6.3 1.1.8 1.5 1.4c.04-.02 0-6 0-6h1.8v15.3h-1.6s-.14-1.72-.1-1.7c-.4.6-.9 1.1-1.5 1.4c-.7.4-1.3.6-2.1.6c-.9 0-1.7-.3-2.4-.7c-.8-.5-1.3-1.2-1.7-2.1c-.5-.8-.7-1.8-.7-3zm1.9 0c0 .9.1 1.7.4 2.3c.3.7.7 1.2 1.2 1.5c.5.4 1 .6 1.6.6c.7 0 1.3-.3 1.9-.8c.6-.5 1.1-1.1 1.3-1.8v-3.6c-.2-.7-.7-1.3-1.3-1.8c-.6-.5-1.2-.7-1.9-.7c-.6 0-1.1.1-1.6.5c-.5.3-.9.8-1.2 1.5c-.3.7-.4 1.4-.4 2.3zm16.3 5.5V155h1.6l.1 1.9c.3-.7.7-1.3 1.3-1.7c.5-.3 1.2-.5 2-.5h.5c.2 0 .4.1.5.1v1.6c-.3-.1-.7-.2-1.1-.2c-.7 0-1.4.2-1.9.7c-.6.5-1 1.1-1.3 1.9c.04-.02 0 7.1 0 7.1h-1.7zm6.7-5.6c0-1.1.3-2.1.7-3c.4-.8 1-1.5 1.8-1.9c.8-.5 1.7-.7 2.7-.7c1 0 1.8.2 2.6.7c.8.4 1.4 1.1 1.8 1.9c.5.9.7 1.9.7 3v.3c0 1.1-.2 2.1-.7 2.9c-.4.9-1 1.5-1.8 2c-.8.4-1.6.7-2.6.7c-1 0-1.9-.3-2.7-.7c-.8-.5-1.4-1.1-1.8-2c-.4-.8-.7-1.8-.7-2.9v-.3zm1.9.3c0 1.3.3 2.3.9 3c.5.8 1.3 1.2 2.4 1.2c1 0 1.8-.4 2.4-1.2c.6-.7.9-1.7.9-3v-.3c0-1.3-.3-2.3-.9-3.1c-.6-.8-1.4-1.1-2.4-1.1c-1.1 0-1.9.3-2.4 1.1c-.6.8-.9 1.8-.9 3.1v.3zm12.2 5.3L256 155h1.8l2.5 8.9l2.4-8.9h2.2l2.4 8.9l2.5-8.9h1.6l-3.1 10.9h-2.2l-2.4-9l-2.4 9h-2.1zm13.2 2.4H271l.9-5.1h2.3l-1.8 5.1zm9.4-2.4v-15.3h1.8v6c.4-.6.9-1.1 1.5-1.4c.7-.4 1.3-.5 2-.5c.9 0 1.7.2 2.5.7c.7.4 1.3 1.1 1.7 2c.4.8.6 1.9.6 3c0 1.2-.2 2.2-.6 3c-.4.9-1 1.6-1.7 2.1c-.8.4-1.6.7-2.5.7c-.7 0-1.4-.2-2-.6c-.6-.3-1.1-.8-1.5-1.4c-.02-.02-.2 1.7-.2 1.7h-1.6zm1.8-3.7c.3.7.7 1.3 1.3 1.8c.6.5 1.2.8 1.9.8c.6 0 1.2-.2 1.7-.6c.5-.3.9-.8 1.1-1.5c.3-.6.5-1.4.5-2.3c0-.9-.2-1.6-.5-2.3c-.3-.7-.6-1.2-1.1-1.5c-.5-.4-1.1-.5-1.7-.5c-.7 0-1.3.2-1.9.7c-.6.5-1 1.1-1.3 1.8v3.6zm10.4 3.7V155h1.6s.12 1.86.1 1.9c.3-.7.8-1.3 1.3-1.7c.6-.3 1.2-.5 2-.5h.6c.2 0 .3.1.4.1v1.6c-.3-.1-.7-.2-1.1-.2c-.7 0-1.3.2-1.9.7c-.6.5-1 1.1-1.2 1.9c-.04-.02 0 7.1 0 7.1H294zm9.3-12.7h-1.8v-2.3h1.8v2.3zm0 12.7h-1.8V155h1.8v10.9zm2.9 0V155h1.6s.12 2.16.1 2.2c.4-.7 1-1.3 1.6-1.8c.7-.5 1.5-.7 2.3-.7c1.2 0 2.1.3 2.7 1c.6.7.9 1.7.9 3v7.2h-1.8s.02-7.06 0-7.1c0-.9-.1-1.6-.5-2c-.3-.5-.8-.7-1.6-.7c-.5 0-.9.1-1.4.4c-.5.4-1 .8-1.4 1.3c-.3.5-.6 1.1-.8 1.6c.04.04 0 6.5 0 6.5h-1.7zm11.1-5.8c0-1.1.2-2 .6-2.9c.4-.8.9-1.4 1.7-1.9c.7-.4 1.5-.6 2.4-.6c.7 0 1.4.1 2 .5c.6.4 1.1.8 1.5 1.4l.1-1.6h1.6s.04 10.48 0 10.5c0 1-.2 1.9-.6 2.6c-.4.8-1 1.3-1.9 1.8c-.8.4-1.8.6-2.9.6c-.7 0-1.4-.1-1.9-.3c-.6-.1-1.1-.4-1.6-.7v-1.8c1 .9 2.2 1.3 3.5 1.3c1.1 0 2-.3 2.7-.9c.7-.6 1-1.5 1-2.6v-1.7c-.4.5-.9 1-1.5 1.3c-.6.4-1.3.5-2 .5c-.9 0-1.7-.2-2.4-.6c-.8-.5-1.3-1.1-1.7-1.9c-.4-.9-.6-1.8-.6-3zm1.8 0c0 .9.2 1.6.5 2.2c.2.6.6 1.1 1.1 1.4c.5.4 1 .5 1.6.5c.7 0 1.3-.2 1.9-.7c.6-.5 1-1.1 1.3-1.8v-3.1c-.3-.7-.7-1.3-1.3-1.8c-.6-.5-1.2-.7-1.9-.7c-.6 0-1.1.1-1.6.4c-.5.4-.9.8-1.2 1.5c-.2.6-.4 1.3-.4 2.1zm12.8-6.9h-1.8v-2.3h1.8v2.3zm0 12.7h-1.8V155h1.8v10.9zm2.9 0V155h1.6l.1 2.2c.4-.7.9-1.3 1.6-1.8c.7-.5 1.4-.7 2.3-.7c1.1 0 2 .3 2.6 1c.7.7 1 1.7 1 3c-.02 0 0 7.2 0 7.2h-1.8v-7.1c0-.9-.2-1.6-.5-2c-.3-.5-.8-.7-1.6-.7c-.5 0-1 .1-1.5.4c-.5.4-.9.8-1.3 1.3c-.4.5-.6 1.1-.8 1.6c.02.04 0 6.5 0 6.5h-1.7zm11.1-5.8c0-1.1.2-2 .6-2.9c.4-.8.9-1.4 1.6-1.9c.8-.4 1.6-.6 2.5-.6c.7 0 1.4.1 2 .5c.6.4 1.1.8 1.5 1.4c-.02.02.1-1.6.1-1.6h1.6s.02 10.48 0 10.5c0 1-.2 1.9-.6 2.6c-.4.8-1.1 1.3-1.9 1.8c-.8.4-1.8.6-2.9.6c-.7 0-1.4-.1-2-.3c-.5-.1-1-.4-1.5-.7v-1.8c1 .9 2.2 1.3 3.5 1.3c1.1 0 2-.3 2.7-.9c.6-.6 1-1.5 1-2.6v-1.7c-.4.5-.9 1-1.5 1.3c-.6.4-1.3.5-2 .5c-.9 0-1.7-.2-2.5-.6c-.7-.5-1.2-1.1-1.6-1.9c-.4-.9-.6-1.8-.6-3zm1.8 0c0 .9.1 1.6.4 2.2c.3.6.7 1.1 1.2 1.4c.5.4 1 .5 1.6.5c.7 0 1.3-.2 1.9-.7c.5-.5 1-1.1 1.3-1.8v-3.1c-.3-.7-.8-1.3-1.3-1.8c-.6-.5-1.3-.7-1.9-.7c-.6 0-1.1.1-1.6.4c-.5.4-.9.8-1.2 1.5c-.3.6-.4 1.3-.4 2.1zm15.4.1c0-1.1.2-2 .6-2.9c.4-.8 1-1.5 1.7-1.9c.8-.5 1.6-.7 2.6-.7c1.5 0 2.6.4 3.4 1.4c.9 1 1.3 2.4 1.3 4.2v.7h-7.8c0 1.1.4 2 .9 2.7c.6.7 1.4 1.1 2.4 1.1c1.6 0 2.8-.6 3.9-1.7v1.8c-.5.4-1 .7-1.7.9c-.6.3-1.3.4-2.2.4c-1 0-2-.3-2.7-.7c-.8-.5-1.4-1.1-1.8-2c-.4-.8-.6-1.8-.6-2.9v-.4zm7.8-.6c0-1.2-.2-2-.8-2.6c-.5-.6-1.2-.9-2.1-.9c-.5 0-1.1.1-1.5.4c-.5.3-.8.7-1.1 1.2c-.3.6-.5 1.2-.5 1.9h6zm6.8 6.3l-4.2-10.9h1.9l3.4 9l3.3-9h1.7l-4.1 10.9h-2zm6.9-5.7c0-1.1.2-2 .6-2.9c.4-.8 1-1.5 1.7-1.9c.8-.5 1.6-.7 2.6-.7c1.5 0 2.6.4 3.4 1.4c.9 1 1.3 2.4 1.3 4.2v.7h-7.8c0 1.1.4 2 .9 2.7c.6.7 1.4 1.1 2.4 1.1c1.6 0 2.8-.6 3.9-1.7v1.8c-.5.4-1 .7-1.7.9c-.6.3-1.3.4-2.2.4c-1 0-2-.3-2.7-.7c-.8-.5-1.4-1.1-1.8-2c-.4-.8-.6-1.8-.6-2.9v-.4zm7.8-.6c0-1.2-.2-2-.8-2.6c-.5-.6-1.2-.9-2.1-.9c-.5 0-1.1.1-1.5.4c-.5.3-.8.7-1.1 1.2c-.3.6-.5 1.2-.5 1.9h6zm3.9 6.3V155h1.6s.14 1.86.1 1.9c.3-.7.8-1.3 1.3-1.7c.6-.3 1.2-.5 2-.5h.6c.2 0 .3.1.4.1v1.6c-.3-.1-.6-.2-1.1-.2c-.7 0-1.3.2-1.9.7c-.6.5-1 1.1-1.2 1.9c-.02-.02 0 7.1 0 7.1h-1.8zm11-.1L403 155h1.9l3.3 8.7l3.4-8.7h1.8l-6.1 15.3h-1.9l1.9-4.5zm6.9-5.5c0-1.1.2-2.1.6-3c.4-.8 1-1.5 1.8-1.9c.8-.5 1.7-.7 2.7-.7c1 0 1.9.2 2.6.7c.8.4 1.4 1.1 1.8 1.9c.5.9.7 1.9.7 3v.3c0 1.1-.2 2.1-.7 2.9c-.4.9-1 1.5-1.8 2c-.7.4-1.6.7-2.6.7c-1 0-1.9-.3-2.7-.7c-.8-.5-1.4-1.1-1.8-2c-.4-.8-.6-1.8-.6-2.9v-.3zm1.8.3c0 1.3.3 2.3.9 3c.6.8 1.4 1.2 2.4 1.2c1 0 1.8-.4 2.4-1.2c.6-.7.9-1.7.9-3v-.3c0-1.3-.3-2.3-.9-3.1c-.6-.8-1.4-1.1-2.4-1.1c-1 0-1.8.3-2.4 1.1c-.6.8-.9 1.8-.9 3.1v.3zm10.5 5.3V155h1.6s.16 2.16.2 2.2c.4-.7.9-1.3 1.6-1.8c.6-.5 1.4-.7 2.3-.7c1.1 0 2 .3 2.6 1c.6.7.9 1.7.9 3c.04 0 0 7.2 0 7.2H434s-.04-7.06 0-7.1c0-.9-.2-1.6-.5-2c-.3-.5-.9-.7-1.6-.7c-.5 0-1 .1-1.5.4c-.5.4-1 .8-1.3 1.3c-.4.5-.7 1.1-.8 1.6c-.02.04 0 6.5 0 6.5h-1.8zm11.1-5.7c0-1.1.2-2 .6-2.9c.4-.8 1-1.5 1.7-1.9c.8-.5 1.6-.7 2.6-.7c1.5 0 2.6.4 3.4 1.4c.9 1 1.3 2.4 1.3 4.2v.7h-7.8c0 1.1.4 2 .9 2.7c.6.7 1.4 1.1 2.4 1.1c1.6 0 2.8-.6 3.9-1.7v1.8c-.5.4-1 .7-1.7.9c-.6.3-1.3.4-2.2.4c-1 0-2-.3-2.7-.7c-.8-.5-1.4-1.1-1.8-2c-.4-.8-.6-1.8-.6-2.9v-.4zm7.8-.6c0-1.2-.2-2-.8-2.6c-.5-.6-1.2-.9-2.1-.9c-.5 0-1.1.1-1.5.4c-.5.3-.8.7-1.1 1.2c-.3.6-.5 1.2-.5 1.9h6zm10.2-3.2h-2.4V155h2.4v-3.4h1.7v3.4h2.5v1.4h-2.5v9.5h-1.7v-9.5zm4.8 3.9c0-1.1.2-2.1.6-3c.5-.8 1.1-1.5 1.9-1.9c.7-.5 1.6-.7 2.6-.7c1 0 1.9.2 2.7.7c.8.4 1.4 1.1 1.8 1.9c.4.9.6 1.9.6 3v.3c0 1.1-.2 2.1-.6 2.9c-.4.9-1 1.5-1.8 2c-.8.4-1.7.7-2.7.7c-1 0-1.9-.3-2.6-.7c-.8-.5-1.4-1.1-1.9-2c-.4-.8-.6-1.8-.6-2.9v-.3zm1.8.3c0 1.3.3 2.3.9 3c.6.8 1.4 1.2 2.4 1.2c1 0 1.9-.4 2.4-1.2c.6-.7.9-1.7.9-3v-.3c0-1.3-.3-2.3-.9-3.1c-.5-.8-1.4-1.1-2.4-1.1c-1 0-1.8.3-2.4 1.1c-.6.8-.9 1.8-.9 3.1v.3zm10-.5c0-1.1.2-2 .6-2.9c.4-.8.9-1.4 1.7-1.9c.7-.4 1.5-.6 2.4-.6c.7 0 1.4.1 2 .5c.6.4 1.1.8 1.5 1.4l.1-1.6h1.6s.04 10.48 0 10.5c0 1-.2 1.9-.6 2.6c-.4.8-1.1 1.3-1.9 1.8c-.8.4-1.8.6-2.9.6c-.7 0-1.4-.1-1.9-.3c-.6-.1-1.1-.4-1.6-.7v-1.8c1 .9 2.2 1.3 3.5 1.3c1.1 0 2-.3 2.7-.9c.6-.6 1-1.5 1-2.6v-1.7c-.4.5-.9 1-1.5 1.3c-.6.4-1.3.5-2 .5c-.9 0-1.7-.2-2.4-.6c-.8-.5-1.3-1.1-1.7-1.9c-.4-.9-.6-1.8-.6-3zm1.8 0c0 .9.2 1.6.4 2.2c.3.6.7 1.1 1.2 1.4c.5.4 1 .5 1.6.5c.7 0 1.3-.2 1.9-.7c.6-.5 1-1.1 1.3-1.8v-3.1c-.3-.7-.7-1.3-1.3-1.8c-.6-.5-1.2-.7-1.9-.7c-.6 0-1.1.1-1.6.4c-.5.4-.9.8-1.2 1.5c-.2.6-.4 1.3-.4 2.1zm10.2.1c0-1.1.2-2 .6-2.9c.5-.8 1-1.5 1.8-1.9c.7-.5 1.6-.7 2.5-.7c1.5 0 2.6.4 3.5 1.4c.8 1 1.2 2.4 1.2 4.2c.02-.02 0 .7 0 .7H486c0 1.1.4 2 1 2.7c.5.7 1.3 1.1 2.3 1.1c1.6 0 2.9-.6 3.9-1.7v1.8c-.5.4-1 .7-1.6.9c-.7.3-1.4.4-2.3.4c-1 0-1.9-.3-2.7-.7c-.8-.5-1.4-1.1-1.8-2c-.4-.8-.6-1.8-.6-2.9v-.4zm7.9-.6c-.1-1.2-.3-2-.9-2.6c-.5-.6-1.2-.9-2.1-.9c-.5 0-1 .1-1.5.4c-.5.3-.8.7-1.1 1.2c-.3.6-.5 1.2-.5 1.9h6.1zm4.9-3.2h-2.4V155h2.4v-3.4h1.8v3.4h2.4v1.4h-2.4v9.5H497v-9.5zm5.7 9.5v-15.3h1.8s-.02 6.52 0 6.5c.4-.7.9-1.2 1.6-1.7c.7-.5 1.4-.7 2.2-.7c1.2 0 2.1.3 2.7 1c.6.7.9 1.7.9 3c.02 0 0 7.2 0 7.2h-1.7s-.04-7.06 0-7.1c0-.9-.2-1.6-.5-2c-.3-.5-.9-.7-1.6-.7c-.5 0-1 .1-1.5.4c-.5.3-1 .8-1.3 1.3c-.4.5-.7 1-.8 1.6c-.02-.02 0 6.5 0 6.5h-1.8zm11.1-5.7c0-1.1.2-2 .6-2.9c.4-.8 1-1.5 1.7-1.9c.8-.5 1.6-.7 2.6-.7c1.5 0 2.6.4 3.4 1.4c.9 1 1.3 2.4 1.3 4.2v.7h-7.8c0 1.1.4 2 .9 2.7c.6.7 1.4 1.1 2.4 1.1c1.6 0 2.8-.6 3.9-1.7v1.8c-.5.4-1 .7-1.7.9c-.6.3-1.3.4-2.2.4c-1 0-2-.3-2.7-.7c-.8-.5-1.4-1.1-1.8-2c-.4-.8-.6-1.8-.6-2.9v-.4zm7.8-.6c0-1.2-.2-2-.8-2.6c-.5-.6-1.2-.9-2.1-.9c-.5 0-1.1.1-1.5.4c-.5.3-.8.7-1.1 1.2c-.3.6-.5 1.2-.5 1.9h6zm3.9 6.3V155h1.6s.14 1.86.1 1.9c.3-.7.8-1.3 1.3-1.7c.6-.3 1.2-.5 2-.5h.6c.2 0 .3.1.4.1v1.6c-.3-.1-.6-.2-1.1-.2c-.7 0-1.3.2-1.9.7c-.6.5-1 1.1-1.2 1.9c-.02-.02 0 7.1 0 7.1h-1.8zm7.9 0h-2.3v-2.6h2.3v2.6z" stroke="none" fill="#fff"/></g><g id="Polygon10934"><path d="m42.8 131.9v-15.2s5.47-.02 5.5 0c1 0 1.8.2 2.6.5c.8.4 1.4.9 1.8 1.5c.4.7.6 1.4.6 2.2v.3c0 1.2-.4 2.1-1.1 2.8c-.8.8-1.8 1.3-3.1 1.4c-.03 0 5 6.5 5 6.5h-2.4l-4.9-6.5h-2.2v6.5h-1.8zm5.3-8c1 0 1.8-.2 2.4-.7c.6-.5.9-1.2.9-2v-.3c0-.8-.3-1.5-.9-2c-.6-.5-1.4-.7-2.4-.7c-.03-.02-3.5 0-3.5 0v5.7s3.47.04 3.5 0zm6.7 2.4c0-1.1.2-2.1.6-3c.5-.8 1.1-1.5 1.9-1.9c.7-.5 1.6-.7 2.6-.7c1 0 1.9.2 2.7.7c.7.4 1.3 1.1 1.8 1.9c.4.9.6 1.9.6 3v.3c0 1.1-.2 2.1-.6 2.9c-.5.9-1.1 1.5-1.8 2c-.8.4-1.7.7-2.7.7c-1 0-1.9-.3-2.6-.7c-.8-.5-1.4-1.1-1.9-2c-.4-.8-.6-1.8-.6-2.9v-.3zm1.8.3c0 1.3.3 2.3.9 3c.6.8 1.4 1.2 2.4 1.2c1 0 1.8-.4 2.4-1.2c.6-.7.9-1.7.9-3v-.3c0-1.3-.3-2.3-.9-3.1c-.6-.8-1.4-1.1-2.4-1.1c-1 0-1.8.3-2.4 1.1c-.6.8-.9 1.8-.9 3.1v.3zm11.5-4.2h-2.4V121h2.4v-3.4h1.8v3.4h2.4v1.4h-2.4v9.5h-1.8v-9.5zm5 6.6c0-.7.2-1.4.6-1.9c.3-.4.7-.8 1.4-1c.6-.3 1.5-.5 2.6-.7l2.7-.5c-.1-1-.3-1.7-.8-2.2c-.4-.4-1.2-.7-2.1-.7c-.7 0-1.4.2-2 .5c-.6.3-1.1.8-1.6 1.3v-1.7c.4-.4 1-.8 1.6-1c.7-.3 1.4-.4 2.2-.4c1.3 0 2.4.3 3.2 1c.8.7 1.2 1.8 1.2 3.1c.03.04 0 7.1 0 7.1h-1.3s-.37-1.7-.4-1.7c-.5.6-1.1 1.1-1.8 1.5c-.6.3-1.4.5-2.2.5c-1 0-1.8-.3-2.4-.9c-.6-.5-.9-1.3-.9-2.3zm1.7-.1c0 .6.2 1.1.6 1.4c.3.3.8.4 1.3.4c.7 0 1.4-.2 2.1-.6c.7-.4 1.2-1 1.6-1.8v-2.1s-1.83.38-1.8.4c-1 .2-1.8.3-2.3.5c-.5.1-.9.4-1.1.7c-.2.3-.4.7-.4 1.1zm11.1-6.5h-2.4V121h2.4v-3.4h1.8v3.4h2.4v1.4h-2.4v9.5h-1.8v-9.5zm7.5-3.2h-1.7v-2.3h1.7v2.3zm0 12.7h-1.7V121h1.7v10.9zm2.9 0V121h1.6s.13 2.16.1 2.2c.4-.7 1-1.3 1.6-1.8c.7-.5 1.5-.7 2.3-.7c1.2 0 2.1.3 2.7 1c.6.7.9 1.7.9 3c.01 0 0 7.2 0 7.2h-1.8s.03-7.06 0-7.1c0-.9-.1-1.6-.4-2c-.4-.5-.9-.7-1.6-.7c-.5 0-1 .1-1.5.4c-.5.4-1 .8-1.4 1.3c-.3.5-.6 1.1-.7 1.6c-.05.04 0 6.5 0 6.5h-1.8zm11.1-5.8c0-1.1.2-2 .6-2.9c.4-.8 1-1.4 1.7-1.9c.7-.4 1.5-.6 2.5-.6c.7 0 1.3.1 1.9.5c.6.4 1.1.8 1.5 1.4c.01.02.2-1.6.2-1.6h1.6s-.05 10.48 0 10.5c0 1-.3 1.9-.7 2.6c-.4.8-1 1.3-1.9 1.8c-.8.4-1.7.6-2.9.6c-.7 0-1.4-.1-1.9-.3c-.6-.1-1.1-.4-1.6-.7v-1.8c1 .9 2.2 1.3 3.6 1.3c1.1 0 1.9-.3 2.6-.9c.7-.6 1-1.5 1-2.6v-1.7c-.4.5-.9 1-1.5 1.3c-.6.4-1.3.5-1.9.5c-1 0-1.8-.2-2.5-.6c-.7-.5-1.3-1.1-1.7-1.9c-.4-.9-.6-1.8-.6-3zm1.8 0c0 .9.2 1.6.5 2.2c.2.6.6 1.1 1.1 1.4c.5.4 1 .5 1.6.5c.7 0 1.3-.2 1.9-.7c.6-.5 1-1.1 1.3-1.8v-3.1c-.3-.7-.7-1.3-1.3-1.8c-.6-.5-1.2-.7-1.9-.7c-.6 0-1.1.1-1.6.4c-.5.4-.9.8-1.1 1.5c-.3.6-.5 1.3-.5 2.1zm15.6-5l-.1-2l3.5-2.2h1.7v15h-1.8v-13l-3.3 2.2zm8.7 6.8c0-.9.3-1.7.8-2.4c.6-.7 1.3-1.2 2.3-1.6c-.8-.3-1.4-.8-1.8-1.4c-.5-.6-.7-1.3-.7-2.1c0-.6.2-1.2.5-1.8c.4-.5.9-1 1.6-1.4c.7-.3 1.5-.5 2.4-.5c1 0 1.8.2 2.5.5c.7.4 1.2.9 1.6 1.4c.3.6.5 1.2.5 1.8c0 .8-.2 1.4-.6 2c-.5.6-1.1 1.1-1.8 1.4c.9.4 1.6.9 2.2 1.6c.5.7.8 1.5.8 2.4c0 .9-.2 1.6-.6 2.2c-.5.7-1.1 1.2-1.8 1.5c-.8.4-1.7.6-2.7.6c-1 0-1.9-.2-2.6-.5c-.8-.4-1.4-.9-1.9-1.5c-.5-.6-.7-1.4-.7-2.2zm2.5-7.4c0 .6.2 1.2.8 1.6c.5.4 1.3.8 2.4 1.2c.7-.3 1.2-.7 1.6-1.2c.3-.4.5-.9.5-1.5c0-.7-.2-1.3-.7-1.8c-.5-.4-1.2-.7-2-.7c-.8 0-1.4.3-1.9.7c-.5.5-.7 1-.7 1.7zm-.6 7.3c0 .8.3 1.5.9 2c.7.5 1.4.8 2.3.8c1 0 1.8-.3 2.4-.8c.6-.5.9-1.2.9-2c0-.7-.3-1.4-.8-1.9c-.6-.5-1.5-.9-2.9-1.4c-.8.4-1.5.8-2 1.4c-.5.6-.8 1.2-.8 1.9zm10.4-3.6c0-1.5.2-2.8.7-3.9c.4-1.1 1.1-2 1.9-2.7c.9-.6 2-.9 3.2-.9c1.3 0 2.3.3 3.2.9c.9.7 1.5 1.6 1.9 2.7c.5 1.1.7 2.4.7 3.9v.4c0 1.5-.2 2.8-.7 3.9c-.4 1.1-1 2-1.9 2.6c-.9.7-1.9 1-3.2 1c-1.2 0-2.3-.3-3.2-1c-.8-.6-1.5-1.5-1.9-2.6c-.5-1.1-.7-2.4-.7-3.9v-.4zm2 .4c0 1.8.3 3.3.9 4.4c.7 1 1.7 1.6 2.9 1.6c1.3 0 2.2-.6 2.9-1.6c.6-1.1 1-2.6 1-4.4v-.4c0-1.8-.4-3.3-1-4.4c-.7-1.1-1.6-1.6-2.9-1.6c-1.3 0-2.2.5-2.9 1.6c-.6 1.1-.9 2.6-.9 4.4v.4zm16.4 1.8c0-1.1.2-2.2.6-3c.4-.9 1-1.6 1.8-2c.7-.5 1.5-.7 2.4-.7c.7 0 1.4.1 2 .5c.6.3 1.1.8 1.5 1.4v-6h1.8v15.3h-1.6s-.17-1.72-.2-1.7c-.4.6-.9 1.1-1.5 1.4c-.6.4-1.3.6-2 .6c-.9 0-1.7-.3-2.4-.7c-.8-.5-1.4-1.2-1.8-2.1c-.4-.8-.6-1.8-.6-3zm1.9 0c0 .9.1 1.7.4 2.3c.3.7.6 1.2 1.1 1.5c.5.4 1.1.6 1.7.6c.7 0 1.3-.3 1.9-.8c.6-.5 1-1.1 1.3-1.8v-3.6c-.3-.7-.7-1.3-1.3-1.8c-.6-.5-1.2-.7-1.9-.7c-.6 0-1.2.1-1.6.5c-.5.3-.9.8-1.2 1.5c-.3.7-.4 1.4-.4 2.3zm10.3-.2c0-1.1.2-2 .6-2.9c.4-.8 1-1.5 1.7-1.9c.7-.5 1.6-.7 2.6-.7c1.4 0 2.6.4 3.4 1.4c.8 1 1.3 2.4 1.3 4.2c-.05-.02 0 .7 0 .7h-7.9c.1 1.1.4 2 1 2.7c.6.7 1.4 1.1 2.4 1.1c1.5 0 2.8-.6 3.8-1.7v1.8c-.4.4-1 .7-1.6.9c-.6.3-1.4.4-2.2.4c-1.1 0-2-.3-2.8-.7c-.7-.5-1.3-1.1-1.7-2c-.4-.8-.6-1.8-.6-2.9v-.4zm7.8-.6c0-1.2-.3-2-.8-2.6c-.6-.6-1.3-.9-2.1-.9c-.6 0-1.1.1-1.6.4c-.4.3-.8.7-1.1 1.2c-.3.6-.4 1.2-.5 1.9h6.1zm3.1.5c0-1.1.2-2 .6-2.9c.4-.8 1-1.4 1.7-1.9c.7-.4 1.5-.6 2.5-.6c.7 0 1.3.1 1.9.5c.6.4 1.1.8 1.5 1.4c.01.02.2-1.6.2-1.6h1.6s-.05 10.48 0 10.5c0 1-.3 1.9-.7 2.6c-.4.8-1 1.3-1.9 1.8c-.8.4-1.7.6-2.9.6c-.7 0-1.4-.1-1.9-.3c-.6-.1-1.1-.4-1.6-.7v-1.8c1 .9 2.2 1.3 3.6 1.3c1.1 0 1.9-.3 2.6-.9c.7-.6 1-1.5 1-2.6v-1.7c-.4.5-.9 1-1.5 1.3c-.6.4-1.3.5-1.9.5c-1 0-1.8-.2-2.5-.6c-.7-.5-1.3-1.1-1.7-1.9c-.4-.9-.6-1.8-.6-3zm1.8 0c0 .9.2 1.6.5 2.2c.2.6.6 1.1 1.1 1.4c.5.4 1 .5 1.6.5c.7 0 1.3-.2 1.9-.7c.6-.5 1-1.1 1.3-1.8v-3.1c-.3-.7-.7-1.3-1.3-1.8c-.6-.5-1.2-.7-1.9-.7c-.6 0-1.1.1-1.6.4c-.5.4-.9.8-1.1 1.5c-.3.6-.5 1.3-.5 2.1zm11 5.8V121h1.6s.15 1.86.2 1.9c.3-.7.7-1.3 1.2-1.7c.6-.3 1.3-.5 2-.5h.6c.2 0 .3.1.4.1v1.6c-.3-.1-.6-.2-1.1-.2c-.7 0-1.3.2-1.9.7c-.6.5-1 1.1-1.2 1.9v7.1h-1.8zm6.8-5.7c0-1.1.2-2 .6-2.9c.4-.8 1-1.5 1.7-1.9c.8-.5 1.6-.7 2.6-.7c1.4 0 2.6.4 3.4 1.4c.9 1 1.3 2.4 1.3 4.2c-.03-.02 0 .7 0 .7h-7.9c.1 1.1.4 2 1 2.7c.6.7 1.4 1.1 2.4 1.1c1.5 0 2.8-.6 3.9-1.7v1.8c-.5.4-1.1.7-1.7.9c-.6.3-1.3.4-2.2.4c-1.1 0-2-.3-2.8-.7c-.7-.5-1.3-1.1-1.7-2c-.4-.8-.6-1.8-.6-2.9v-.4zm7.8-.6c0-1.2-.3-2-.8-2.6c-.5-.6-1.2-.9-2.1-.9c-.6 0-1.1.1-1.5.4c-.5.3-.9.7-1.2 1.2c-.2.6-.4 1.2-.4 1.9h6zm3.1.6c0-1.1.2-2 .6-2.9c.4-.8 1-1.5 1.7-1.9c.8-.5 1.6-.7 2.6-.7c1.5 0 2.6.4 3.4 1.4c.9 1 1.3 2.4 1.3 4.2v.7h-7.8c0 1.1.3 2 .9 2.7c.6.7 1.4 1.1 2.4 1.1c1.5 0 2.8-.6 3.9-1.7v1.8c-.5.4-1 .7-1.7.9c-.6.3-1.3.4-2.2.4c-1.1 0-2-.3-2.7-.7c-.8-.5-1.4-1.1-1.8-2c-.4-.8-.6-1.8-.6-2.9v-.4zm7.8-.6c0-1.2-.3-2-.8-2.6c-.5-.6-1.2-.9-2.1-.9c-.5 0-1.1.1-1.5.4c-.5.3-.9.7-1.1 1.2c-.3.6-.5 1.2-.5 1.9h6zm3.5 3.5c.9 1.1 2 1.7 3.4 1.7c.8 0 1.3-.2 1.8-.5c.4-.3.6-.7.6-1.2c0-.4-.1-.7-.3-1c-.3-.3-.7-.5-1.3-.8l-1.5-.6c-.9-.4-1.5-.8-2-1.3c-.4-.5-.6-1.1-.6-1.8c0-.5.1-1 .4-1.5c.3-.4.7-.8 1.3-1c.5-.3 1.2-.4 2-.4c.6 0 1.2.1 1.8.3c.6.3 1.1.6 1.5.9v1.9c-.5-.6-1-1-1.6-1.3c-.6-.3-1.1-.4-1.7-.4c-.7 0-1.2.1-1.5.4c-.3.3-.5.6-.5 1c0 .4.1.7.4.9c.3.2.7.5 1.3.7l1.5.6c.9.4 1.5.8 1.9 1.3c.4.6.7 1.2.7 2c0 .9-.4 1.7-1.2 2.3c-.8.6-1.8.9-3 .9c-.7 0-1.4-.1-2-.4c-.6-.2-1.1-.5-1.4-.8v-1.9zm10.1 5.2h-1.4l.9-5.1h2.3l-1.8 5.1zm8.6-8.2c0-1.1.2-2 .6-2.9c.4-.8 1-1.4 1.7-1.9c.7-.4 1.6-.6 2.5-.6c.7 0 1.4.1 2 .5c.6.4 1.1.8 1.5 1.4c-.05.02.1-1.6.1-1.6h1.6v10.5c0 1-.2 1.9-.6 2.6c-.5.8-1.1 1.3-1.9 1.8c-.8.4-1.8.6-2.9.6c-.8 0-1.4-.1-2-.3c-.5-.1-1.1-.4-1.5-.7v-1.8c1 .9 2.1 1.3 3.5 1.3c1.1 0 2-.3 2.6-.9c.7-.6 1-1.5 1-2.6v-1.7c-.4.5-.9 1-1.5 1.3c-.6.4-1.2.5-1.9.5c-.9 0-1.8-.2-2.5-.6c-.7-.5-1.3-1.1-1.7-1.9c-.4-.9-.6-1.8-.6-3zm1.9 0c0 .9.1 1.6.4 2.2c.3.6.7 1.1 1.2 1.4c.4.4 1 .5 1.6.5c.6 0 1.3-.2 1.8-.7c.6-.5 1.1-1.1 1.3-1.8v-3.1c-.2-.7-.7-1.3-1.3-1.8c-.6-.5-1.2-.7-1.8-.7c-.6 0-1.2.1-1.7.4c-.4.4-.8.8-1.1 1.5c-.3.6-.4 1.3-.4 2.1zm12.7-6.9h-1.7v-2.3h1.7v2.3zm0 12.7h-1.7V121h1.7v10.9zm5.8 0L264 121h1.9l3.4 9l3.3-9h1.7l-4.1 10.9h-2zm9.5-12.7h-1.8v-2.3h1.8v2.3zm0 12.7h-1.8V121h1.8v10.9zm2.9 0V121h1.6s.13 2.16.1 2.2c.4-.7 1-1.3 1.6-1.8c.7-.5 1.5-.7 2.3-.7c1.2 0 2.1.3 2.7 1c.6.7.9 1.7.9 3c.01 0 0 7.2 0 7.2H288s.03-7.06 0-7.1c0-.9-.1-1.6-.5-2c-.3-.5-.8-.7-1.6-.7c-.4 0-.9.1-1.4.4c-.5.4-1 .8-1.4 1.3c-.3.5-.6 1.1-.8 1.6c.05.04 0 6.5 0 6.5h-1.7zm11.1-5.8c0-1.1.2-2 .6-2.9c.4-.8.9-1.4 1.7-1.9c.7-.4 1.5-.6 2.4-.6c.8 0 1.4.1 2 .5c.6.4 1.1.8 1.5 1.4c.01.02.1-1.6.1-1.6h1.6s.05 10.48 0 10.5c0 1-.2 1.9-.6 2.6c-.4.8-1 1.3-1.9 1.8c-.8.4-1.8.6-2.9.6c-.7 0-1.4-.1-1.9-.3c-.6-.1-1.1-.4-1.6-.7v-1.8c1 .9 2.2 1.3 3.5 1.3c1.2 0 2-.3 2.7-.9c.7-.6 1-1.5 1-2.6v-1.7c-.4.5-.9 1-1.5 1.3c-.6.4-1.3.5-2 .5c-.9 0-1.7-.2-2.4-.6c-.8-.5-1.3-1.1-1.7-1.9c-.4-.9-.6-1.8-.6-3zm1.8 0c0 .9.2 1.6.5 2.2c.2.6.6 1.1 1.1 1.4c.5.4 1 .5 1.6.5c.7 0 1.3-.2 1.9-.7c.6-.5 1-1.1 1.3-1.8v-3.1c-.3-.7-.7-1.3-1.3-1.8c-.6-.5-1.2-.7-1.9-.7c-.6 0-1.1.1-1.6.4c-.5.4-.9.8-1.2 1.5c-.2.6-.4 1.3-.4 2.1zm16 2c0 1.3.3 2.3.9 3c.7.7 1.5 1.1 2.7 1.1c.8 0 1.6-.3 2.3-.8c.7-.4 1.2-1 1.6-1.7l.1 2.2h1.6V121H317s-.03 6.4 0 6.4c-.2.6-.4 1.1-.8 1.6c-.4.6-.8 1-1.3 1.3c-.5.3-1 .5-1.5.5c-.8 0-1.3-.3-1.6-.7c-.4-.5-.5-1.2-.5-2.1v-7h-1.8s.03 7.14 0 7.1zm11.7 1c.9 1.1 2 1.7 3.4 1.7c.8 0 1.3-.2 1.8-.5c.4-.3.6-.7.6-1.2c0-.4-.1-.7-.3-1c-.3-.3-.7-.5-1.3-.8l-1.5-.6c-.9-.4-1.5-.8-2-1.3c-.4-.5-.6-1.1-.6-1.8c0-.5.1-1 .4-1.5c.3-.4.7-.8 1.3-1c.5-.3 1.2-.4 2-.4c.6 0 1.2.1 1.8.3c.6.3 1.1.6 1.5.9v1.9c-.5-.6-1-1-1.6-1.3c-.6-.3-1.1-.4-1.7-.4c-.7 0-1.2.1-1.5.4c-.3.3-.5.6-.5 1c0 .4.1.7.4.9c.3.2.7.5 1.3.7l1.4.6c1 .4 1.6.8 2 1.3c.4.6.6 1.2.6 2c0 .9-.3 1.7-1.1 2.3c-.8.6-1.8.9-3 .9c-.7 0-1.4-.1-2-.4c-.6-.2-1.1-.5-1.4-.8v-1.9zm16.6-9.9h-1.7v-2.3h1.7v2.3zm0 12.7h-1.7V121h1.7v10.9zm2.9 0V121h1.6s.15 2.16.1 2.2c.4-.7 1-1.3 1.7-1.8c.6-.5 1.4-.7 2.2-.7c1.2 0 2.1.3 2.7 1c.6.7.9 1.7.9 3c.03 0 0 7.2 0 7.2h-1.8s.05-7.06 0-7.1c0-.9-.1-1.6-.4-2c-.4-.5-.9-.7-1.6-.7c-.5 0-1 .1-1.5.4c-.5.4-1 .8-1.3 1.3c-.4.5-.7 1.1-.8 1.6c-.03.04 0 6.5 0 6.5h-1.8zm12.9-9.5h-2.4V121h2.4v-3.4h1.8v3.4h2.4v1.4h-2.4v9.5h-1.8v-9.5zm7.5-3.2h-1.7v-2.3h1.7v2.3zm0 12.7h-1.7V121h1.7v10.9zm2.9 0V121h1.6l.1 1.9c.4-.6.9-1.2 1.5-1.6c.6-.4 1.3-.6 2.1-.6c.8 0 1.4.2 1.9.6c.6.4.9 1 1.1 1.8c.5-.8 1-1.4 1.6-1.8c.6-.4 1.3-.6 2.1-.6c1 0 1.8.3 2.4.9c.6.7.9 1.6.9 2.9c.01-.04 0 7.4 0 7.4h-1.8s.05-7.3 0-7.3c0-.9-.1-1.5-.4-1.9c-.3-.4-.7-.6-1.4-.6c-.4 0-.8.1-1.3.4c-.4.2-.8.6-1.1 1c-.4.5-.6 1-.8 1.5c.03-.02 0 6.9 0 6.9h-1.7s-.03-7.34 0-7.3c0-.9-.2-1.5-.5-1.9c-.2-.4-.7-.6-1.4-.6c-.4 0-.8.1-1.2.4c-.5.2-.8.6-1.2 1c-.3.5-.6 1-.7 1.5c-.03-.02 0 6.9 0 6.9H364zm17.2-2.9c0-.7.2-1.4.6-1.9c.3-.4.8-.8 1.4-1c.7-.3 1.5-.5 2.6-.7l2.7-.5c0-1-.2-1.7-.7-2.2c-.5-.4-1.2-.7-2.2-.7c-.7 0-1.3.2-1.9.5c-.7.3-1.2.8-1.6 1.3v-1.7c.4-.4.9-.8 1.6-1c.6-.3 1.3-.4 2.1-.4c1.4 0 2.5.3 3.3 1c.8.7 1.2 1.8 1.2 3.1v7.1h-1.4l-.3-1.7c-.5.6-1.1 1.1-1.8 1.5c-.7.3-1.4.5-2.3.5c-1 0-1.8-.3-2.4-.9c-.6-.5-.9-1.3-.9-2.3zm1.8-.1c0 .6.2 1.1.5 1.4c.4.3.8.4 1.4.4c.7 0 1.4-.2 2-.6c.7-.4 1.3-1 1.6-1.8c.05.04 0-2.1 0-2.1c0 0-1.77.38-1.8.4c-1 .2-1.7.3-2.2.5c-.5.1-.9.4-1.2.7c-.2.3-.3.7-.3 1.1zm11.1-6.5h-2.4V121h2.4v-3.4h1.7v3.4h2.5v1.4h-2.5v9.5h-1.7v-9.5zm4.9 3.8c0-1.1.2-2 .6-2.9c.4-.8 1-1.5 1.8-1.9c.7-.5 1.5-.7 2.5-.7c1.5 0 2.6.4 3.5 1.4c.8 1 1.2 2.4 1.2 4.2v.7h-7.8c0 1.1.4 2 .9 2.7c.6.7 1.4 1.1 2.4 1.1c1.6 0 2.8-.6 3.9-1.7v1.8c-.5.4-1 .7-1.6.9c-.7.3-1.4.4-2.3.4c-1 0-2-.3-2.7-.7c-.8-.5-1.4-1.1-1.8-2c-.4-.8-.6-1.8-.6-2.9v-.4zm7.8-.6c0-1.2-.2-2-.8-2.6c-.5-.6-1.2-.9-2.1-.9c-.5 0-1 .1-1.5.4c-.5.3-.8.7-1.1 1.2c-.3.6-.5 1.2-.5 1.9h6zm10.2-3.2h-2.4V121h2.4v-3.4h1.7v3.4h2.5v1.4h-2.5v9.5H417v-9.5zm7.5-3.2h-1.8v-2.3h1.8v2.3zm0 12.7h-1.8V121h1.8v10.9zm2.8 0V121h1.6s.15 1.94.1 1.9c.5-.6 1-1.2 1.6-1.6c.6-.4 1.2-.6 2-.6c.8 0 1.5.2 2 .6c.5.4.9 1 1.1 1.8c.4-.8.9-1.4 1.6-1.8c.6-.4 1.3-.6 2.1-.6c1 0 1.8.3 2.4.9c.6.7.8 1.6.8 2.9c.05-.04 0 7.4 0 7.4h-1.7v-7.3c0-.9-.2-1.5-.4-1.9c-.3-.4-.8-.6-1.5-.6c-.4 0-.8.1-1.2.4c-.5.2-.9.6-1.2 1c-.3.5-.6 1-.7 1.5c-.03-.02 0 6.9 0 6.9h-1.8v-7.3c0-.9-.1-1.5-.4-1.9c-.3-.4-.8-.6-1.4-.6c-.4 0-.8.1-1.3.4c-.4.2-.8.6-1.1 1c-.4.5-.6 1-.8 1.5v6.9h-1.8zm17.2-5.7c0-1.1.2-2 .6-2.9c.5-.8 1-1.5 1.8-1.9c.7-.5 1.6-.7 2.5-.7c1.5 0 2.6.4 3.5 1.4c.8 1 1.2 2.4 1.2 4.2c.03-.02 0 .7 0 .7h-7.8c.1 1.1.4 2 1 2.7c.6.7 1.3 1.1 2.3 1.1c1.6 0 2.9-.6 3.9-1.7v1.8c-.5.4-1 .7-1.6.9c-.6.3-1.4.4-2.3.4c-1 0-1.9-.3-2.7-.7c-.8-.5-1.4-1.1-1.8-2c-.4-.8-.6-1.8-.6-2.9v-.4zm7.9-.6c0-1.2-.3-2-.9-2.6c-.5-.6-1.2-.9-2.1-.9c-.5 0-1 .1-1.5.4c-.4.3-.8.7-1.1 1.2c-.3.6-.5 1.2-.5 1.9h6.1zm10.9 6.3l-3.1-10.9h1.8l2.4 8.9l2.4-8.9h2.2l2.4 8.9l2.5-8.9h1.6l-3.1 10.9h-2.1l-2.5-9l-2.4 9h-2.1zm15.6-12.7h-1.8v-2.3h1.8v2.3zm0 12.7h-1.8V121h1.8v10.9zm3.9-9.5h-2.4V121h2.4v-3.4h1.8v3.4h2.4v1.4h-2.4v9.5h-1.8v-9.5zm5.8 9.5v-15.3h1.7s.03 6.52 0 6.5c.4-.7 1-1.2 1.6-1.7c.7-.5 1.5-.7 2.3-.7c1.1 0 2 .3 2.6 1c.7.7 1 1.7 1 3c-.03 0 0 7.2 0 7.2H496v-7.1c0-.9-.2-1.6-.5-2c-.3-.5-.8-.7-1.6-.7c-.5 0-1 .1-1.5.4c-.5.3-.9.8-1.3 1.3c-.4.5-.6 1-.8 1.6c.03-.02 0 6.5 0 6.5h-1.7zm18.1-9.5h-2.4V121h2.4v-3.4h1.8v3.4h2.4v1.4h-2.4v9.5h-1.8v-9.5zm5.7 9.5v-15.3h1.8v6.5c.4-.7.9-1.2 1.6-1.7c.7-.5 1.4-.7 2.2-.7c1.2 0 2.1.3 2.7 1c.6.7.9 1.7.9 3c.03 0 0 7.2 0 7.2h-1.7s-.03-7.06 0-7.1c0-.9-.2-1.6-.5-2c-.3-.5-.9-.7-1.6-.7c-.5 0-1 .1-1.5.4c-.5.3-.9.8-1.3 1.3c-.4.5-.7 1-.8 1.6v6.5h-1.8zm11.1-5.7c0-1.1.2-2 .6-2.9c.4-.8 1-1.5 1.8-1.9c.7-.5 1.5-.7 2.5-.7c1.5 0 2.6.4 3.5 1.4c.8 1 1.2 2.4 1.2 4.2v.7h-7.8c0 1.1.4 2 .9 2.7c.6.7 1.4 1.1 2.4 1.1c1.6 0 2.8-.6 3.9-1.7v1.8c-.5.4-1 .7-1.6.9c-.7.3-1.4.4-2.3.4c-1 0-2-.3-2.7-.7c-.8-.5-1.4-1.1-1.8-2c-.4-.8-.6-1.8-.6-2.9v-.4zm7.8-.6c0-1.2-.2-2-.8-2.6c-.5-.6-1.2-.9-2.1-.9c-.5 0-1 .1-1.5.4c-.5.3-.8.7-1.1 1.2c-.3.6-.5 1.2-.5 1.9h6z" stroke="none" fill="#fff"/></g><g id="Polygon10933"><path d="m127.7 92.2c0-1.1.2-2 .7-2.9c.4-.8 1.1-1.5 1.9-1.9c.8-.5 1.7-.7 2.8-.7c.6 0 1.2.1 1.7.3c.6.2 1.1.5 1.5.9v1.8c-.5-.5-.9-.9-1.5-1.2c-.5-.3-1.1-.4-1.7-.4c-.7 0-1.3.2-1.8.5c-.6.3-1 .8-1.3 1.5c-.3.6-.4 1.3-.4 2.1v.4c0 .8.1 1.5.4 2.1c.3.7.8 1.2 1.3 1.5c.5.4 1.1.5 1.8.5c1.2 0 2.3-.5 3.2-1.6v1.9c-.4.3-.9.6-1.5.8c-.6.3-1.2.4-1.8.4c-1 0-1.9-.3-2.7-.8c-.8-.4-1.5-1.1-1.9-2c-.5-.8-.7-1.8-.7-2.8v-.4zm10 .1c0-1.1.2-2.1.6-3c.5-.8 1.1-1.5 1.9-1.9c.7-.5 1.6-.7 2.6-.7c1 0 1.9.2 2.7.7c.7.4 1.3 1.1 1.8 1.9c.4.9.6 1.9.6 3v.3c0 1.1-.2 2.1-.6 2.9c-.5.9-1.1 1.5-1.8 2c-.8.4-1.7.7-2.7.7c-1 0-1.9-.3-2.6-.7c-.8-.5-1.4-1.1-1.9-2c-.4-.8-.6-1.8-.6-2.9v-.3zm1.8.3c0 1.3.3 2.3.9 3c.6.8 1.4 1.2 2.4 1.2c1 0 1.8-.4 2.4-1.2c.6-.7.9-1.7.9-3v-.3c0-1.3-.3-2.3-.9-3.1c-.6-.8-1.4-1.1-2.4-1.1c-1 0-1.8.3-2.4 1.1c-.6.8-.9 1.8-.9 3.1v.3zm10.6 5.3V87h1.5s.15 1.94.2 1.9c.4-.6.9-1.2 1.5-1.6c.6-.4 1.2-.6 2-.6c.8 0 1.5.2 2 .6c.5.4.9 1 1.1 1.8c.4-.8.9-1.4 1.6-1.8c.6-.4 1.3-.6 2.1-.6c1 0 1.8.3 2.4.9c.6.7.9 1.6.9 2.9c-.05-.04 0 7.4 0 7.4h-1.8v-7.3c0-.9-.2-1.5-.4-1.9c-.3-.4-.8-.6-1.4-.6c-.5 0-.9.1-1.3.4c-.5.2-.9.6-1.2 1c-.3.5-.6 1-.7 1.5c-.03-.02 0 6.9 0 6.9h-1.8v-7.3c0-.9-.1-1.5-.4-1.9c-.3-.4-.8-.6-1.4-.6c-.4 0-.8.1-1.3.4c-.4.2-.8.6-1.1 1c-.4.5-.6 1-.8 1.5v6.9h-1.7zm17.1-5.7c0-1.1.2-2 .7-2.9c.4-.8.9-1.5 1.7-1.9c.7-.5 1.6-.7 2.5-.7c1.5 0 2.6.4 3.5 1.4c.8 1 1.2 2.4 1.2 4.2c.03-.02 0 .7 0 .7H169c.1 1.1.4 2 1 2.7c.6.7 1.4 1.1 2.4 1.1c1.5 0 2.8-.6 3.8-1.7v1.8c-.5.4-1 .7-1.6.9c-.6.3-1.4.4-2.2.4c-1.1 0-2-.3-2.8-.7c-.8-.5-1.4-1.1-1.8-2c-.4-.8-.6-1.8-.6-2.9v-.4zm7.9-.6c0-1.2-.3-2-.8-2.6c-.6-.6-1.3-.9-2.1-.9c-.6 0-1.1.1-1.6.4c-.4.3-.8.7-1.1 1.2c-.3.6-.4 1.2-.5 1.9h6.1zm10.9 6.3L182.9 87h1.8l2.4 8.9l2.4-8.9h2.2l2.4 8.9l2.5-8.9h1.7l-3.2 10.9H193l-2.4-9l-2.5 9H186zm15.6-12.7h-1.7v-2.3h1.7v2.3zm0 12.7h-1.7V87h1.7v10.9zm4-9.5h-2.4V87h2.4v-3.4h1.7v3.4h2.4v1.4h-2.4v9.5h-1.7v-9.5zm5.7 9.5V82.6h1.7s.03 6.52 0 6.5c.4-.7 1-1.2 1.6-1.7c.7-.5 1.5-.7 2.3-.7c1.2 0 2 .3 2.7 1c.6.7.9 1.7.9 3c-.03 0 0 7.2 0 7.2h-1.8v-7.1c0-.9-.1-1.6-.5-2c-.3-.5-.8-.7-1.6-.7c-.5 0-1 .1-1.5.4c-.5.3-.9.8-1.3 1.3c-.4.5-.6 1-.8 1.6c.03-.02 0 6.5 0 6.5h-1.7zm16.2 0v-1.3s5.21-5.64 5.2-5.6c.7-.8 1.2-1.4 1.5-2c.3-.5.4-1.2.4-1.9c0-.8-.2-1.5-.7-2.1c-.6-.5-1.2-.8-2.1-.8c-.8 0-1.5.2-2.1.6c-.6.4-1.1 1-1.6 1.7v-2.2c.4-.5.9-.8 1.6-1.2c.7-.3 1.4-.4 2.2-.4c1 0 1.8.2 2.5.6c.7.3 1.2.9 1.6 1.5c.3.7.5 1.4.5 2.3c0 .7-.1 1.3-.3 1.9c-.2.6-.5 1.1-.9 1.6c-.4.5-.9 1.1-1.5 1.7c.03.02-3.7 4.1-3.7 4.1h6.8v1.5h-9.4zm11.6 0V87h1.6s.15 2.16.2 2.2c.4-.7.9-1.3 1.6-1.8c.6-.5 1.4-.7 2.3-.7c1.1 0 2 .3 2.6 1c.6.7.9 1.7.9 3c.03 0 0 7.2 0 7.2h-1.7s-.05-7.06 0-7.1c0-.9-.2-1.6-.5-2c-.3-.5-.9-.7-1.6-.7c-.5 0-1 .1-1.5.4c-.5.4-1 .8-1.3 1.3c-.4.5-.7 1.1-.8 1.6c-.03.04 0 6.5 0 6.5h-1.8zm11.1-5.5c0-1.1.2-2.2.6-3c.4-.9 1-1.6 1.8-2c.7-.5 1.5-.7 2.4-.7c.7 0 1.4.1 2 .5c.6.3 1.1.8 1.5 1.4v-6h1.8v15.3h-1.6s-.17-1.72-.2-1.7c-.4.6-.9 1.1-1.5 1.4c-.6.4-1.3.6-2 .6c-.9 0-1.7-.3-2.4-.7c-.8-.5-1.4-1.2-1.8-2.1c-.4-.8-.6-1.8-.6-3zm1.9 0c0 .9.1 1.7.4 2.3c.3.7.6 1.2 1.1 1.5c.5.4 1.1.6 1.7.6c.7 0 1.3-.3 1.9-.8c.6-.5 1-1.1 1.3-1.8v-3.6c-.3-.7-.7-1.3-1.3-1.8c-.6-.5-1.2-.7-1.9-.7c-.6 0-1.2.1-1.6.5c-.5.3-.9.8-1.2 1.5c-.3.7-.4 1.4-.4 2.3zm16.3 5.5V87h1.6s.07 1.86.1 1.9c.3-.7.7-1.3 1.3-1.7c.5-.3 1.2-.5 1.9-.5h.6c.2 0 .4.1.5.1v1.6c-.3-.1-.7-.2-1.2-.2c-.7 0-1.3.2-1.9.7c-.5.5-.9 1.1-1.2 1.9v7.1h-1.7zm6.7-5.6c0-1.1.2-2.1.7-3c.4-.8 1-1.5 1.8-1.9c.8-.5 1.6-.7 2.6-.7c1 0 1.9.2 2.7.7c.8.4 1.4 1.1 1.8 1.9c.4.9.7 1.9.7 3v.3c0 1.1-.3 2.1-.7 2.9c-.4.9-1 1.5-1.8 2c-.8.4-1.7.7-2.7.7c-1 0-1.8-.3-2.6-.7c-.8-.5-1.4-1.1-1.8-2c-.5-.8-.7-1.8-.7-2.9v-.3zm1.9.3c0 1.3.2 2.3.8 3c.6.8 1.4 1.2 2.4 1.2c1.1 0 1.9-.4 2.5-1.2c.5-.7.8-1.7.8-3v-.3c0-1.3-.3-2.3-.8-3.1c-.6-.8-1.4-1.1-2.5-1.1c-1 0-1.8.3-2.4 1.1c-.6.8-.8 1.8-.8 3.1v.3zm12.2 5.3L286 87h1.8l2.5 8.9l2.3-8.9h2.3l2.4 8.9l2.4-8.9h1.7l-3.2 10.9h-2.1l-2.4-9l-2.4 9h-2.1zm18.5-2.8c.9 1.1 2.1 1.7 3.5 1.7c.7 0 1.3-.2 1.7-.5c.4-.3.7-.7.7-1.2c0-.4-.2-.7-.4-1c-.2-.3-.6-.5-1.2-.8l-1.5-.6c-.9-.4-1.6-.8-2-1.3c-.5-.5-.7-1.1-.7-1.8c0-.5.2-1 .5-1.5c.2-.4.7-.8 1.2-1c.6-.3 1.2-.4 2-.4c.7 0 1.3.1 1.9.3c.6.3 1.1.6 1.5.9v1.9c-.5-.6-1.1-1-1.6-1.3c-.6-.3-1.2-.4-1.8-.4c-.6 0-1.1.1-1.4.4c-.4.3-.5.6-.5 1c0 .4.1.7.4.9c.2.2.7.5 1.3.7l1.4.6c.9.4 1.6.8 2 1.3c.4.6.6 1.2.6 2c0 .9-.4 1.7-1.1 2.3c-.8.6-1.8.9-3 .9c-.8 0-1.4-.1-2-.4c-.6-.2-1.1-.5-1.5-.8v-1.9zm11.6 2.8L316.2 87h1.8l2.4 8.9l2.4-8.9h2.2l2.4 8.9l2.5-8.9h1.6l-3.1 10.9h-2.1l-2.5-9l-2.4 9h-2.1zm15.6-12.7h-1.8v-2.3h1.8v2.3zm0 12.7h-1.8V87h1.8v10.9zm5.8 0L336.5 87h1.9l3.3 9l3.4-9h1.7l-4.2 10.9h-1.9zm6.8-5.7c0-1.1.3-2 .7-2.9c.4-.8 1-1.5 1.7-1.9c.7-.5 1.6-.7 2.5-.7c1.5 0 2.7.4 3.5 1.4c.8 1 1.2 2.4 1.2 4.2c.05-.02 0 .7 0 .7h-7.8c.1 1.1.4 2 1 2.7c.6.7 1.4 1.1 2.4 1.1c1.5 0 2.8-.6 3.8-1.7v1.8c-.4.4-1 .7-1.6.9c-.6.3-1.4.4-2.2.4c-1.1 0-2-.3-2.8-.7c-.7-.5-1.3-1.1-1.7-2c-.4-.8-.7-1.8-.7-2.9v-.4zm7.9-.6c0-1.2-.3-2-.8-2.6c-.6-.6-1.3-.9-2.1-.9c-.6 0-1.1.1-1.6.4c-.4.3-.8.7-1.1 1.2c-.3.6-.4 1.2-.5 1.9h6.1zm5.6 6.3h-1.7V82.6h1.7v15.3zm4.7-12.7h-1.8v-2.3h1.8v2.3zm0 12.7h-1.8V87h1.8v10.9zm2.8 0V87h1.6l.2 2.2c.4-.7.9-1.3 1.6-1.8c.7-.5 1.4-.7 2.3-.7c1.1 0 2 .3 2.6 1c.7.7 1 1.7 1 3c-.03 0 0 7.2 0 7.2H376v-7.1c0-.9-.2-1.6-.5-2c-.3-.5-.8-.7-1.6-.7c-.5 0-1 .1-1.5.4c-.5.4-.9.8-1.3 1.3c-.4.5-.6 1.1-.8 1.6v6.5h-1.8zm11.1-5.8c0-1.1.2-2 .6-2.9c.4-.8 1-1.4 1.7-1.9c.7-.4 1.6-.6 2.5-.6c.7 0 1.4.1 2 .5c.6.4 1.1.8 1.5 1.4c-.03.02.1-1.6.1-1.6h1.6v10.5c0 1-.2 1.9-.6 2.6c-.5.8-1.1 1.3-1.9 1.8c-.8.4-1.8.6-2.9.6c-.7 0-1.4-.1-2-.3c-.5-.1-1.1-.4-1.5-.7v-1.8c1 .9 2.2 1.3 3.5 1.3c1.1 0 2-.3 2.7-.9c.6-.6.9-1.5.9-2.6v-1.7c-.3.5-.8 1-1.4 1.3c-.6.4-1.3.5-2 .5c-.9 0-1.8-.2-2.5-.6c-.7-.5-1.3-1.1-1.7-1.9c-.4-.9-.6-1.8-.6-3zm1.9 0c0 .9.1 1.6.4 2.2c.3.6.7 1.1 1.2 1.4c.5.4 1 .5 1.6.5c.7 0 1.3-.2 1.9-.7c.5-.5 1-1.1 1.2-1.8v-3.1c-.2-.7-.7-1.3-1.3-1.8c-.5-.5-1.2-.7-1.8-.7c-.6 0-1.2.1-1.6.4c-.5.4-.9.8-1.2 1.5c-.3.6-.4 1.3-.4 2.1zm15.7 3c.9 1.1 2.1 1.7 3.5 1.7c.7 0 1.3-.2 1.7-.5c.5-.3.7-.7.7-1.2c0-.4-.1-.7-.4-1c-.2-.3-.6-.5-1.2-.8l-1.5-.6c-.9-.4-1.6-.8-2-1.3c-.4-.5-.7-1.1-.7-1.8c0-.5.2-1 .5-1.5c.3-.4.7-.8 1.2-1c.6-.3 1.3-.4 2-.4c.7 0 1.3.1 1.9.3c.6.3 1.1.6 1.5.9v1.9c-.5-.6-1-1-1.6-1.3c-.6-.3-1.2-.4-1.8-.4c-.6 0-1.1.1-1.4.4c-.3.3-.5.6-.5 1c0 .4.1.7.4.9c.2.2.7.5 1.3.7l1.4.6c.9.4 1.6.8 2 1.3c.4.6.6 1.2.6 2c0 .9-.4 1.7-1.1 2.3c-.8.6-1.8.9-3 .9c-.7 0-1.4-.1-2-.4c-.6-.2-1.1-.5-1.5-.8v-1.9zm8.9-2.9c0-1.1.3-2 .7-2.9c.4-.8 1-1.5 1.7-1.9c.7-.5 1.6-.7 2.5-.7c1.5 0 2.7.4 3.5 1.4c.8 1 1.2 2.4 1.2 4.2c.05-.02 0 .7 0 .7h-7.8c.1 1.1.4 2 1 2.7c.6.7 1.4 1.1 2.4 1.1c1.5 0 2.8-.6 3.8-1.7v1.8c-.4.4-1 .7-1.6.9c-.6.3-1.4.4-2.2.4c-1.1 0-2-.3-2.8-.7c-.7-.5-1.3-1.1-1.7-2c-.4-.8-.7-1.8-.7-2.9v-.4zm7.9-.6c0-1.2-.3-2-.8-2.6c-.6-.6-1.3-.9-2.1-.9c-.6 0-1.1.1-1.6.4c-.4.3-.8.7-1.1 1.2c-.3.6-.4 1.2-.5 1.9h6.1zm3.1 3.4c0-.7.2-1.4.6-1.9c.3-.4.8-.8 1.4-1c.6-.3 1.5-.5 2.6-.7l2.7-.5c0-1-.3-1.7-.7-2.2c-.5-.4-1.2-.7-2.2-.7c-.7 0-1.3.2-2 .5c-.6.3-1.1.8-1.5 1.3v-1.7c.4-.4.9-.8 1.6-1c.6-.3 1.3-.4 2.1-.4c1.4 0 2.5.3 3.3 1c.8.7 1.2 1.8 1.2 3.1c-.03.04 0 7.1 0 7.1h-1.4s-.33-1.7-.3-1.7c-.5.6-1.1 1.1-1.8 1.5c-.7.3-1.5.5-2.3.5c-1 0-1.8-.3-2.4-.9c-.6-.5-.9-1.3-.9-2.3zm1.8-.1c0 .6.1 1.1.5 1.4c.3.3.8.4 1.4.4c.6 0 1.3-.2 2-.6c.7-.4 1.2-1 1.6-1.8c.03.04 0-2.1 0-2.1c0 0-1.79.38-1.8.4c-1 .2-1.7.3-2.3.5c-.5.1-.8.4-1.1.7c-.2.3-.3.7-.3 1.1zm11.1-6.5h-2.4V87h2.4v-3.4h1.7v3.4h2.4v1.4h-2.4v9.5H430v-9.5zm5.2 6.7c.9 1.1 2.1 1.7 3.5 1.7c.7 0 1.3-.2 1.7-.5c.5-.3.7-.7.7-1.2c0-.4-.1-.7-.4-1c-.2-.3-.6-.5-1.2-.8l-1.5-.6c-.9-.4-1.6-.8-2-1.3c-.4-.5-.7-1.1-.7-1.8c0-.5.2-1 .5-1.5c.3-.4.7-.8 1.2-1c.6-.3 1.3-.4 2-.4c.7 0 1.3.1 1.9.3c.6.3 1.1.6 1.5.9v1.9c-.5-.6-1-1-1.6-1.3c-.6-.3-1.2-.4-1.8-.4c-.6 0-1.1.1-1.4.4c-.3.3-.5.6-.5 1c0 .4.1.7.4.9c.2.2.7.5 1.3.7l1.4.6c.9.4 1.6.8 2 1.3c.4.6.6 1.2.6 2c0 .9-.4 1.7-1.1 2.3c-.8.6-1.8.9-3 .9c-.7 0-1.4-.1-2-.4c-.6-.2-1.1-.5-1.5-.8v-1.9zm11.7 2.8h-2.3v-2.6h2.3v2.6z" stroke="none" fill="#fff"/></g><g id="Polygon10932"><path d="m83.6 63.9h-1.8l5.7-15.2h1.8l5.8 15.2h-2l-1.6-4.4h-6.3l-1.6 4.4zm4.8-12.8L85.8 58h5.1l-2.5-6.9zm13.4 12.8V53h1.6s.15 2.16.2 2.2c.4-.7.9-1.3 1.6-1.8c.6-.5 1.4-.7 2.3-.7c1.1 0 2 .3 2.6 1c.6.7.9 1.7.9 3c.03 0 0 7.2 0 7.2h-1.7s-.05-7.06 0-7.1c0-.9-.2-1.6-.5-2c-.3-.5-.9-.7-1.6-.7c-.5 0-1 .1-1.5.4c-.5.4-1 .8-1.3 1.3c-.4.5-.7 1.1-.8 1.6c-.03.04 0 6.5 0 6.5h-1.8zm11.1-5.7c0-1.1.2-2 .6-2.9c.4-.8 1-1.5 1.7-1.9c.8-.5 1.6-.7 2.6-.7c1.5 0 2.6.4 3.4 1.4c.9 1 1.3 2.4 1.3 4.2v.7h-7.8c0 1.1.3 2 .9 2.7c.6.7 1.4 1.1 2.4 1.1c1.5 0 2.8-.6 3.9-1.7v1.8c-.5.4-1 .7-1.7.9c-.6.3-1.3.4-2.2.4c-1.1 0-2-.3-2.7-.7c-.8-.5-1.4-1.1-1.8-2c-.4-.8-.6-1.8-.6-2.9v-.4zm7.8-.6c0-1.2-.3-2-.8-2.6c-.5-.6-1.2-.9-2.1-.9c-.5 0-1.1.1-1.5.4c-.5.3-.9.7-1.1 1.2c-.3.6-.5 1.2-.5 1.9h6zm5.8 6.3L123.3 53h1.9l2.4 8.9L130 53h2.2l2.4 8.9l2.5-8.9h1.6l-3.1 10.9h-2.1l-2.5-9l-2.4 9h-2.1zm20.8 0h-1.8V48.6h1.8v15.3zm4.6-12.7h-1.7v-2.3h1.7v2.3zm0 12.7h-1.7V53h1.7v10.9zm1.5-9.5V53h2.2s.03-1.12 0-1.1c0-.7.2-1.3.4-1.9c.3-.5.6-1 1.2-1.3c.5-.4 1.1-.5 1.9-.5c.5 0 .9.1 1.3.3v1.5c-.3-.2-.7-.4-1.2-.4c-.6 0-1 .2-1.3.6c-.3.4-.5.9-.5 1.7c.01 0 0 1.1 0 1.1h2.6v1.4h-2.6v9.5h-1.8v-9.5h-2.2zm7.5 3.8c0-1.1.2-2 .6-2.9c.4-.8 1-1.5 1.7-1.9c.8-.5 1.6-.7 2.6-.7c1.4 0 2.6.4 3.4 1.4c.9 1 1.3 2.4 1.3 4.2c-.03-.02 0 .7 0 .7h-7.9c.1 1.1.4 2 1 2.7c.6.7 1.4 1.1 2.4 1.1c1.5 0 2.8-.6 3.9-1.7v1.8c-.5.4-1.1.7-1.7.9c-.6.3-1.3.4-2.2.4c-1.1 0-2-.3-2.8-.7c-.7-.5-1.3-1.1-1.7-2c-.4-.8-.6-1.8-.6-2.9v-.4zm7.8-.6c0-1.2-.3-2-.8-2.6c-.5-.6-1.2-.9-2.1-.9c-.6 0-1.1.1-1.5.4c-.5.3-.9.7-1.2 1.2c-.2.6-.4 1.2-.4 1.9h6zm3.5 3.5c.8 1.1 2 1.7 3.4 1.7c.7 0 1.3-.2 1.7-.5c.5-.3.7-.7.7-1.2c0-.4-.1-.7-.4-1c-.2-.3-.6-.5-1.2-.8l-1.5-.6c-.9-.4-1.6-.8-2-1.3c-.4-.5-.6-1.1-.6-1.8c0-.5.1-1 .4-1.5c.3-.4.7-.8 1.2-1c.6-.3 1.3-.4 2.1-.4c.6 0 1.2.1 1.8.3c.6.3 1.1.6 1.5.9v1.9c-.5-.6-1-1-1.6-1.3c-.6-.3-1.2-.4-1.7-.4c-.7 0-1.2.1-1.5.4c-.3.3-.5.6-.5 1c0 .4.1.7.4.9c.2.2.7.5 1.3.7l1.4.6c.9.4 1.6.8 2 1.3c.4.6.6 1.2.6 2c0 .9-.4 1.7-1.1 2.3c-.8.6-1.8.9-3 .9c-.7 0-1.4-.1-2-.4c-.6-.2-1.1-.5-1.4-.8v-1.9zm10.7-6.7h-2.4V53h2.4v-3.4h1.8v3.4h2.4v1.4h-2.4v9.5h-1.8v-9.5zm9.2 9.4L187.8 53h1.9l3.3 8.7l3.4-8.7h1.8l-6.1 15.3h-1.9l1.9-4.5zm9.4.1h-1.7V48.6h1.7v15.3zm2.1-5.7c0-1.1.2-2 .6-2.9c.4-.8 1-1.5 1.8-1.9c.7-.5 1.6-.7 2.5-.7c1.5 0 2.6.4 3.5 1.4c.8 1 1.2 2.4 1.2 4.2v.7h-7.8c0 1.1.4 2 1 2.7c.5.7 1.3 1.1 2.3 1.1c1.6 0 2.9-.6 3.9-1.7v1.8c-.5.4-1 .7-1.6.9c-.7.3-1.4.4-2.3.4c-1 0-2-.3-2.7-.7c-.8-.5-1.4-1.1-1.8-2c-.4-.8-.6-1.8-.6-2.9v-.4zm7.9-.6c-.1-1.2-.3-2-.9-2.6c-.5-.6-1.2-.9-2.1-.9c-.5 0-1 .1-1.5.4c-.5.3-.8.7-1.1 1.2c-.3.6-.5 1.2-.5 1.9h6.1zm8.3 3.4c0-.7.2-1.4.6-1.9c.3-.4.7-.8 1.4-1c.6-.3 1.5-.5 2.6-.7l2.7-.5c-.1-1-.3-1.7-.8-2.2c-.4-.4-1.2-.7-2.1-.7c-.7 0-1.4.2-2 .5c-.6.3-1.1.8-1.6 1.3v-1.7c.4-.4 1-.8 1.6-1c.7-.3 1.4-.4 2.2-.4c1.3 0 2.4.3 3.2 1c.8.7 1.2 1.8 1.2 3.1c.03.04 0 7.1 0 7.1h-1.3s-.37-1.7-.4-1.7c-.5.6-1.1 1.1-1.8 1.5c-.6.3-1.4.5-2.2.5c-1 0-1.8-.3-2.4-.9c-.6-.5-.9-1.3-.9-2.3zm1.7-.1c0 .6.2 1.1.6 1.4c.3.3.8.4 1.3.4c.7 0 1.4-.2 2.1-.6c.7-.4 1.2-1 1.6-1.8v-2.1s-1.83.38-1.8.4c-1 .2-1.8.3-2.3.5c-.5.1-.9.4-1.1.7c-.2.3-.4.7-.4 1.1zm10.1 3V53h1.6s.11 2.16.1 2.2c.4-.7.9-1.3 1.6-1.8c.7-.5 1.5-.7 2.3-.7c1.2 0 2 .3 2.7 1c.6.7.9 1.7.9 3c-.01 0 0 7.2 0 7.2H239v-7.1c0-.9-.1-1.6-.5-2c-.3-.5-.8-.7-1.6-.7c-.5 0-1 .1-1.5.4c-.5.4-.9.8-1.3 1.3c-.4.5-.6 1.1-.8 1.6c.03.04 0 6.5 0 6.5h-1.7zm11.1-5.5c0-1.1.2-2.2.6-3c.4-.9 1-1.6 1.7-2c.7-.5 1.6-.7 2.5-.7c.7 0 1.3.1 1.9.5c.7.3 1.2.8 1.6 1.4c-.03-.02 0-6 0-6h1.7v15.3h-1.6l-.1-1.7c-.4.6-.9 1.1-1.5 1.4c-.6.4-1.3.6-2 .6c-.9 0-1.8-.3-2.5-.7c-.7-.5-1.3-1.2-1.7-2.1c-.4-.8-.6-1.8-.6-3zm1.8 0c0 .9.2 1.7.4 2.3c.3.7.7 1.2 1.2 1.5c.5.4 1 .6 1.7.6c.6 0 1.3-.3 1.9-.8c.6-.5 1-1.1 1.3-1.8v-3.6c-.3-.7-.7-1.3-1.3-1.8c-.6-.5-1.3-.7-1.9-.7c-.6 0-1.2.1-1.7.5c-.5.3-.9.8-1.2 1.5c-.2.7-.4 1.4-.4 2.3zm16.3 5.5V53h1.6l.1 1.9c.4-.6.9-1.2 1.5-1.6c.6-.4 1.3-.6 2.1-.6c.8 0 1.4.2 2 .6c.5.4.8 1 1 1.8c.5-.8 1-1.4 1.6-1.8c.6-.4 1.4-.6 2.2-.6c1 0 1.7.3 2.3.9c.6.7.9 1.6.9 2.9c.01-.04 0 7.4 0 7.4h-1.7s-.05-7.3 0-7.3c0-.9-.2-1.5-.5-1.9c-.3-.4-.7-.6-1.4-.6c-.4 0-.8.1-1.3.4c-.4.2-.8.6-1.1 1c-.4.5-.6 1-.8 1.5c.03-.02 0 6.9 0 6.9h-1.7s-.03-7.34 0-7.3c0-.9-.2-1.5-.5-1.9c-.2-.4-.7-.6-1.4-.6c-.4 0-.8.1-1.2.4c-.5.2-.8.6-1.2 1c-.3.5-.6 1-.7 1.5c-.03-.02 0 6.9 0 6.9h-1.8zm17.2-5.6c0-1.1.2-2.1.7-3c.4-.8 1-1.5 1.8-1.9c.8-.5 1.6-.7 2.6-.7c1 0 1.9.2 2.7.7c.8.4 1.4 1.1 1.8 1.9c.4.9.7 1.9.7 3v.3c0 1.1-.3 2.1-.7 2.9c-.4.9-1 1.5-1.8 2c-.8.4-1.7.7-2.7.7c-1 0-1.8-.3-2.6-.7c-.8-.5-1.4-1.1-1.8-2c-.5-.8-.7-1.8-.7-2.9v-.3zm1.9.3c0 1.3.2 2.3.8 3c.6.8 1.4 1.2 2.4 1.2c1.1 0 1.9-.4 2.5-1.2c.5-.7.8-1.7.8-3v-.3c0-1.3-.3-2.3-.8-3.1c-.6-.8-1.4-1.1-2.5-1.1c-1 0-1.8.3-2.4 1.1c-.6.8-.8 1.8-.8 3.1v.3zm10.5 5.3V53h1.6l.1 1.9c.3-.7.7-1.3 1.3-1.7c.5-.3 1.2-.5 2-.5h.5c.2 0 .4.1.5.1v1.6c-.3-.1-.7-.2-1.1-.2c-.7 0-1.4.2-1.9.7c-.6.5-1 1.1-1.3 1.9c.03-.02 0 7.1 0 7.1h-1.7zm6.7-5.7c0-1.1.2-2 .6-2.9c.4-.8 1-1.5 1.8-1.9c.7-.5 1.6-.7 2.5-.7c1.5 0 2.6.4 3.5 1.4c.8 1 1.2 2.4 1.2 4.2v.7h-7.8c0 1.1.4 2 1 2.7c.5.7 1.3 1.1 2.3 1.1c1.6 0 2.9-.6 3.9-1.7v1.8c-.5.4-1 .7-1.6.9c-.7.3-1.4.4-2.3.4c-1 0-2-.3-2.7-.7c-.8-.5-1.4-1.1-1.8-2c-.4-.8-.6-1.8-.6-2.9v-.4zm7.9-.6c-.1-1.2-.3-2-.9-2.6c-.5-.6-1.2-.9-2.1-.9c-.5 0-1 .1-1.5.4c-.5.3-.8.7-1.1 1.2c-.3.6-.5 1.2-.5 1.9h6.1zm8.2.6c0-1.1.3-2 .7-2.9c.5-.8 1.1-1.5 1.9-1.9c.8-.5 1.8-.7 2.8-.7c.6 0 1.2.1 1.8.3c.5.2 1 .5 1.4.9v1.8c-.4-.5-.9-.9-1.5-1.2c-.5-.3-1.1-.4-1.7-.4c-.7 0-1.3.2-1.8.5c-.5.3-.9.8-1.3 1.5c-.3.6-.4 1.3-.4 2.1v.4c0 .8.1 1.5.5 2.1c.3.7.7 1.2 1.2 1.5c.6.4 1.1.5 1.8.5c1.2 0 2.3-.5 3.2-1.6v1.9c-.4.3-.9.6-1.5.8c-.5.3-1.1.4-1.7.4c-1 0-2-.3-2.8-.8c-.8-.4-1.4-1.1-1.9-2c-.4-.8-.7-1.8-.7-2.8v-.4zm10.8 5.7V48.6h1.8s-.03 6.52 0 6.5c.4-.7.9-1.2 1.6-1.7c.7-.5 1.4-.7 2.2-.7c1.2 0 2.1.3 2.7 1c.6.7.9 1.7.9 3c.01 0 0 7.2 0 7.2h-1.8s.05-7.06 0-7.1c0-.9-.1-1.6-.4-2c-.4-.5-.9-.7-1.6-.7c-.5 0-1 .1-1.5.4c-.5.3-1 .8-1.3 1.3c-.4.5-.7 1-.8 1.6c-.03-.02 0 6.5 0 6.5H324zm11.1-5.7c0-1.1.2-2 .6-2.9c.4-.8 1-1.5 1.7-1.9c.8-.5 1.6-.7 2.6-.7c1.5 0 2.6.4 3.4 1.4c.9 1 1.3 2.4 1.3 4.2v.7h-7.9c.1 1.1.4 2 1 2.7c.6.7 1.4 1.1 2.4 1.1c1.5 0 2.8-.6 3.9-1.7v1.8c-.5.4-1 .7-1.7.9c-.6.3-1.3.4-2.2.4c-1.1 0-2-.3-2.7-.7c-.8-.5-1.4-1.1-1.8-2c-.4-.8-.6-1.8-.6-2.9v-.4zm7.8-.6c0-1.2-.3-2-.8-2.6c-.5-.6-1.2-.9-2.1-.9c-.6 0-1.1.1-1.5.4c-.5.3-.9.7-1.1 1.2c-.3.6-.5 1.2-.5 1.9h6zm3.9 6.3V53h1.6s.13 1.86.1 1.9c.3-.7.8-1.3 1.3-1.7c.6-.3 1.2-.5 2-.5h.6c.2 0 .3.1.4.1v1.6c-.3-.1-.7-.2-1.1-.2c-.7 0-1.3.2-1.9.7c-.6.5-1 1.1-1.2 1.9c-.03-.02 0 7.1 0 7.1h-1.8zm9.3-12.7h-1.8v-2.3h1.8v2.3zm0 12.7h-1.8V53h1.8v10.9zm2.4-2.8c.9 1.1 2.1 1.7 3.5 1.7c.7 0 1.3-.2 1.7-.5c.5-.3.7-.7.7-1.2c0-.4-.1-.7-.4-1c-.2-.3-.6-.5-1.2-.8l-1.5-.6c-.9-.4-1.6-.8-2-1.3c-.4-.5-.7-1.1-.7-1.8c0-.5.2-1 .5-1.5c.3-.4.7-.8 1.2-1c.6-.3 1.3-.4 2-.4c.7 0 1.3.1 1.9.3c.6.3 1.1.6 1.5.9v1.9c-.5-.6-1-1-1.6-1.3c-.6-.3-1.2-.4-1.8-.4c-.6 0-1.1.1-1.4.4c-.3.3-.5.6-.5 1c0 .4.1.7.4.9c.2.2.7.5 1.3.7l1.4.6c.9.4 1.6.8 2 1.3c.4.6.6 1.2.6 2c0 .9-.4 1.7-1.1 2.3c-.8.6-1.8.9-3 .9c-.7 0-1.4-.1-2-.4c-.6-.2-1.1-.5-1.5-.8v-1.9zm9.7 2.8V48.6h1.8v6.5c.4-.7.9-1.2 1.6-1.7c.7-.5 1.4-.7 2.3-.7c1.1 0 2 .3 2.6 1c.6.7.9 1.7.9 3c.05 0 0 7.2 0 7.2h-1.7v-7.1c0-.9-.2-1.6-.5-2c-.3-.5-.8-.7-1.6-.7c-.5 0-1 .1-1.5.4c-.5.3-.9.8-1.3 1.3c-.4.5-.6 1-.8 1.6v6.5h-1.8zm11.1-5.7c0-1.1.2-2 .6-2.9c.5-.8 1-1.5 1.8-1.9c.7-.5 1.6-.7 2.5-.7c1.5 0 2.6.4 3.5 1.4c.8 1 1.2 2.4 1.2 4.2c.03-.02 0 .7 0 .7h-7.8c.1 1.1.4 2 1 2.7c.6.7 1.3 1.1 2.3 1.1c1.6 0 2.9-.6 3.9-1.7v1.8c-.5.4-1 .7-1.6.9c-.6.3-1.4.4-2.3.4c-1 0-1.9-.3-2.7-.7c-.8-.5-1.4-1.1-1.8-2c-.4-.8-.6-1.8-.6-2.9v-.4zm7.9-.6c0-1.2-.3-2-.9-2.6c-.5-.6-1.2-.9-2.1-.9c-.5 0-1 .1-1.5.4c-.4.3-.8.7-1.1 1.2c-.3.6-.5 1.2-.5 1.9h6.1zm3.1.8c0-1.1.2-2.2.6-3c.4-.9 1-1.6 1.7-2c.7-.5 1.6-.7 2.5-.7c.7 0 1.3.1 1.9.5c.7.3 1.2.8 1.6 1.4c-.03-.02 0-6 0-6h1.7v15.3h-1.6l-.1-1.7c-.4.6-.9 1.1-1.5 1.4c-.6.4-1.3.6-2 .6c-.9 0-1.8-.3-2.5-.7c-.7-.5-1.3-1.2-1.7-2.1c-.4-.8-.6-1.8-.6-3zm1.8 0c0 .9.1 1.7.4 2.3c.3.7.7 1.2 1.2 1.5c.5.4 1 .6 1.6.6c.7 0 1.4-.3 2-.8c.6-.5 1-1.1 1.3-1.8v-3.6c-.3-.7-.7-1.3-1.3-1.8c-.6-.5-1.3-.7-1.9-.7c-.6 0-1.2.1-1.7.5c-.5.3-.9.8-1.2 1.5c-.2.7-.4 1.4-.4 2.3zm16.3 5.5V53h1.6l.1 1.9c.4-.6.9-1.2 1.5-1.6c.6-.4 1.3-.6 2.1-.6c.8 0 1.4.2 1.9.6c.6.4.9 1 1.1 1.8c.5-.8 1-1.4 1.6-1.8c.6-.4 1.3-.6 2.1-.6c1 0 1.8.3 2.4.9c.6.7.9 1.6.9 2.9c.01-.04 0 7.4 0 7.4h-1.8s.05-7.3 0-7.3c0-.9-.1-1.5-.4-1.9c-.3-.4-.7-.6-1.4-.6c-.4 0-.8.1-1.3.4c-.4.2-.8.6-1.1 1c-.4.5-.6 1-.8 1.5c.03-.02 0 6.9 0 6.9h-1.7s-.03-7.34 0-7.3c0-.9-.2-1.5-.5-1.9c-.2-.4-.7-.6-1.4-.6c-.4 0-.8.1-1.2.4c-.5.2-.8.6-1.2 1c-.3.5-.6 1-.7 1.5c-.03-.02 0 6.9 0 6.9h-1.8zm17.2-5.6c0-1.1.2-2.1.7-3c.4-.8 1-1.5 1.8-1.9c.8-.5 1.6-.7 2.6-.7c1 0 1.9.2 2.7.7c.8.4 1.4 1.1 1.8 1.9c.4.9.6 1.9.6 3v.3c0 1.1-.2 2.1-.6 2.9c-.4.9-1 1.5-1.8 2c-.8.4-1.7.7-2.7.7c-1 0-1.8-.3-2.6-.7c-.8-.5-1.4-1.1-1.8-2c-.5-.8-.7-1.8-.7-2.9v-.3zm1.8.3c0 1.3.3 2.3.9 3c.6.8 1.4 1.2 2.4 1.2c1.1 0 1.9-.4 2.4-1.2c.6-.7.9-1.7.9-3v-.3c0-1.3-.3-2.3-.9-3.1c-.5-.8-1.3-1.1-2.4-1.1c-1 0-1.8.3-2.4 1.1c-.6.8-.9 1.8-.9 3.1v.3zm10.6 5.3V53h1.5s.17 1.94.2 1.9c.4-.6.9-1.2 1.5-1.6c.6-.4 1.3-.6 2-.6c.8 0 1.5.2 2 .6c.5.4.9 1 1.1 1.8c.4-.8 1-1.4 1.6-1.8c.6-.4 1.3-.6 2.1-.6c1 0 1.8.3 2.4.9c.6.7.9 1.6.9 2.9c-.03-.04 0 7.4 0 7.4h-1.8v-7.3c0-.9-.1-1.5-.4-1.9c-.3-.4-.8-.6-1.4-.6c-.4 0-.9.1-1.3.4c-.5.2-.8.6-1.2 1c-.3.5-.6 1-.7 1.5v6.9h-1.8s.03-7.34 0-7.3c0-.9-.1-1.5-.4-1.9c-.3-.4-.8-.6-1.4-.6c-.4 0-.8.1-1.3.4c-.4.2-.8.6-1.1 1c-.4.5-.6 1-.8 1.5c.03-.02 0 6.9 0 6.9H438zm17.1-5.7c0-1.1.3-2 .7-2.9c.4-.8 1-1.5 1.7-1.9c.7-.5 1.6-.7 2.5-.7c1.5 0 2.7.4 3.5 1.4c.8 1 1.2 2.4 1.2 4.2c.05-.02 0 .7 0 .7h-7.8c.1 1.1.4 2 1 2.7c.6.7 1.4 1.1 2.4 1.1c1.5 0 2.8-.6 3.8-1.7v1.8c-.4.4-1 .7-1.6.9c-.6.3-1.4.4-2.2.4c-1.1 0-2-.3-2.8-.7c-.7-.5-1.3-1.1-1.7-2c-.4-.8-.7-1.8-.7-2.9v-.4zm7.9-.6c0-1.2-.3-2-.8-2.6c-.6-.6-1.3-.9-2.1-.9c-.6 0-1.1.1-1.6.4c-.4.3-.8.7-1.1 1.2c-.3.6-.4 1.2-.5 1.9h6.1zm3.9 6.3V53h1.6s.11 2.16.1 2.2c.4-.7.9-1.3 1.6-1.8c.7-.5 1.5-.7 2.3-.7c1.2 0 2 .3 2.7 1c.6.7.9 1.7.9 3c-.01 0 0 7.2 0 7.2h-1.8v-7.1c0-.9-.2-1.6-.5-2c-.3-.5-.8-.7-1.6-.7c-.5 0-1 .1-1.5.4c-.5.4-.9.8-1.3 1.3c-.4.5-.6 1.1-.8 1.6c.03.04 0 6.5 0 6.5h-1.7zm12.9-9.5h-2.4V53h2.4v-3.4h1.8v3.4h2.4v1.4h-2.4v9.5h-1.8v-9.5zm5.3 6.7c.9 1.1 2 1.7 3.4 1.7c.8 0 1.4-.2 1.8-.5c.4-.3.6-.7.6-1.2c0-.4-.1-.7-.3-1c-.2-.3-.7-.5-1.3-.8l-1.5-.6c-.9-.4-1.5-.8-2-1.3c-.4-.5-.6-1.1-.6-1.8c0-.5.1-1 .4-1.5c.3-.4.7-.8 1.3-1c.5-.3 1.2-.4 2-.4c.6 0 1.3.1 1.8.3c.6.3 1.1.6 1.5.9v1.9c-.5-.6-1-1-1.6-1.3c-.5-.3-1.1-.4-1.7-.4c-.7 0-1.2.1-1.5.4c-.3.3-.5.6-.5 1c0 .4.2.7.4.9c.3.2.7.5 1.3.7l1.5.6c.9.4 1.5.8 1.9 1.3c.5.6.7 1.2.7 2c0 .9-.4 1.7-1.2 2.3c-.7.6-1.7.9-3 .9c-.7 0-1.4-.1-2-.4c-.6-.2-1-.5-1.4-.8v-1.9z" stroke="none" fill="#fff"/></g><g id="Polygon10931"><path d="m151.9 20.2v-2.3s5.81-5.95 5.8-5.9c.8-.9 1.4-1.6 1.7-2.3c.4-.6.6-1.3.6-2.1c0-.9-.3-1.6-.9-2.1c-.5-.6-1.3-.9-2.2-.9c-.9 0-1.7.3-2.5.7c-.7.5-1.4 1.1-1.9 1.9V3.6c.6-.4 1.2-.8 2.1-1.2c.8-.3 1.7-.5 2.7-.5c1.3 0 2.4.3 3.3.8c.9.5 1.6 1.2 2 2c.5.8.7 1.8.7 2.8c0 1.3-.2 2.4-.8 3.4c-.6.9-1.4 2-2.6 3.1c.04-.01-3.5 3.5-3.5 3.5h7.4v2.7h-11.9zm14.4 0V7.1h3s.15 1.88.1 1.9c.5-.7 1.1-1.2 1.8-1.6c.7-.5 1.5-.7 2.4-.7c1.5 0 2.6.4 3.4 1.3c.8.8 1.2 2 1.2 3.6c.03.02 0 8.6 0 8.6h-3.1s.03-8.58 0-8.6c0-1.6-.6-2.5-2-2.5c-.8 0-1.5.3-2.2.9c-.7.6-1.2 1.3-1.5 2.2c.05-.01 0 8 0 8h-3.1zm14-6.6c0-1.4.2-2.6.8-3.6c.5-1.1 1.2-1.9 2.1-2.4c.9-.6 1.9-.9 2.9-.9c.8 0 1.5.2 2.2.5c.7.3 1.3.7 1.8 1.3c-.04-.03 0-6.7 0-6.7h3.1v18.4h-2.9s-.24-1.6-.2-1.6c-.4.6-1 1-1.7 1.4c-.7.4-1.4.5-2.3.5c-1 0-2-.2-2.9-.8c-.9-.6-1.6-1.4-2.1-2.4c-.6-1.1-.8-2.3-.8-3.7zm3.2 0c0 1 .1 1.8.5 2.5c.3.7.7 1.2 1.2 1.6c.5.3 1.1.5 1.7.5c.6 0 1.2-.2 1.8-.6c.6-.4 1.1-.9 1.4-1.5v-4.9c-.3-.7-.8-1.2-1.3-1.6c-.6-.3-1.2-.5-1.9-.5c-.5 0-1.1.2-1.6.5c-.5.3-1 .8-1.3 1.5c-.3.7-.5 1.6-.5 2.5zm19.2 6.6V1.9s7.43.04 7.4 0c1.1 0 2.2.2 3.1.7c.9.4 1.6 1 2.2 1.8c.5.7.8 1.7.8 2.8v.4c0 1.3-.5 2.5-1.4 3.4c-.8.9-2 1.4-3.4 1.7c.02-.03 5.8 7.5 5.8 7.5H213l-5.5-7.4h-1.6v7.4h-3.2zm7-10c.9 0 1.7-.2 2.2-.7c.6-.5.8-1.2.8-2v-.3c0-.8-.2-1.5-.8-1.9c-.5-.5-1.3-.8-2.2-.8c-.01.04-3.8 0-3.8 0v5.7h3.8zm8.2 3.2c0-1.2.3-2.4.9-3.4c.6-1 1.4-1.8 2.4-2.4c1-.6 2.1-.9 3.3-.9c1.3 0 2.4.3 3.4.9c1 .6 1.8 1.4 2.3 2.4c.6 1 .9 2.2.9 3.4v.4c0 1.3-.3 2.5-.9 3.5c-.5 1-1.3 1.8-2.3 2.4c-1 .6-2.1.8-3.4.8c-1.2 0-2.3-.2-3.3-.8c-1-.6-1.8-1.4-2.4-2.4c-.6-1.1-.9-2.2-.9-3.5v-.4zm3.3.4c0 1.3.3 2.3.9 3.1c.5.9 1.4 1.3 2.4 1.3c1.1 0 1.9-.4 2.5-1.3c.6-.8.9-1.8.9-3.1v-.4c0-1.2-.3-2.2-.9-3.1c-.6-.8-1.4-1.2-2.5-1.2c-1 0-1.9.4-2.4 1.2c-.6.9-.9 1.9-.9 3.1v.4zm14.3 6.5l-3.8-13.2h3.1l2.5 9.5l2.6-9.5h3.7l2.6 9.5l2.6-9.5h2.7l-3.8 13.1h-3.4l-2.7-10l-2.6 10l-3.5.1zm23.7-5.5c.6.9 1.4 1.6 2.3 2.2c1 .6 2 .9 3.1.9c1 0 1.8-.2 2.3-.7c.6-.5.8-1.1.8-1.8c0-.5-.1-1-.5-1.4c-.4-.4-1-.8-2-1.3l-2.6-1.4c-1.2-.7-2-1.3-2.6-2c-.5-.7-.8-1.7-.8-2.8c0-.9.2-1.7.7-2.4c.4-.8 1-1.4 1.9-1.8c.9-.5 2-.7 3.3-.7c1.9 0 3.7.6 5.3 1.8v3.6c-.8-.9-1.6-1.6-2.5-2.1c-.9-.5-1.8-.7-2.8-.7c-.7 0-1.3.2-1.8.6c-.4.4-.7.9-.7 1.5c0 .4.2.8.5 1.2c.3.3.8.7 1.6 1.1l2.8 1.5c1.3.6 2.2 1.4 2.8 2.2c.6.8.9 1.8.9 3c0 1.1-.3 2-.8 2.8c-.6.8-1.4 1.4-2.4 1.8c-1 .4-2.1.6-3.4.6c-1.2 0-2.3-.2-3.2-.6c-1-.4-1.7-.8-2.2-1.3v-3.8zm16.8 5.5l-3.9-13.2h3.1l2.6 9.5l2.5-9.5h3.8l2.6 9.5l2.5-9.5h2.7l-3.7 13.1h-3.4l-2.7-10l-2.7 10l-3.4.1zm20.7-15.2h-3.1V1.8h3.1v3.3zm0 15.1h-3.1V7.1h3.1v13.1zm6.6 0l-4.9-13.1h3.3l3.5 9.8l3.4-9.8h3l-5 13.1h-3.3zm8.8-6.8c0-1.3.2-2.4.7-3.5c.6-1 1.3-1.8 2.2-2.3c1-.6 2-.9 3.2-.9c1.9 0 3.4.6 4.5 1.8c1 1.2 1.5 2.9 1.5 5c.04.01 0 1.2 0 1.2c0 0-9.1.01-9.1 0c.1 1.1.5 2 1.1 2.6c.7.6 1.5.9 2.6.9c.9 0 1.7-.2 2.4-.5c.7-.3 1.5-.8 2.2-1.5v2.9c-.6.5-1.3.8-2.1 1.1c-.8.2-1.7.3-2.6.3c-1.4 0-2.6-.2-3.6-.8c-1-.6-1.8-1.4-2.3-2.4c-.5-1-.7-2.1-.7-3.5v-.4zm9.1-1c0-1.1-.3-1.9-.8-2.5c-.6-.6-1.3-.9-2.2-.9c-.8 0-1.5.4-2.1 1c-.6.6-.9 1.4-1 2.4h6.1zm8.4 7.8h-3.1V1.8h3.1v18.4zm6.2-15.1h-3.1V1.8h3.1v3.3zm0 15.1h-3.1V7.1h3.1v13.1zm3.2 0V7.1h2.9s.15 1.88.2 1.9c.4-.7 1-1.2 1.7-1.6c.7-.5 1.5-.7 2.4-.7c1.5 0 2.6.4 3.4 1.3c.8.8 1.2 2 1.2 3.6c.04.02 0 8.6 0 8.6h-3.1s.04-8.58 0-8.6c0-1.6-.6-2.5-2-2.5c-.8 0-1.5.3-2.2.9c-.7.6-1.2 1.3-1.4 2.2c-.05-.01 0 8 0 8H339zm13.9-6.8c0-1.4.2-2.5.8-3.5c.5-1 1.2-1.8 2.1-2.4c.9-.5 1.9-.8 3-.8c.8 0 1.5.2 2.2.5c.7.4 1.3.9 1.7 1.4l.2-1.5h2.9s-.04 12.34 0 12.3c0 2.1-.7 3.6-2 4.7c-1.3 1.1-3.1 1.6-5.3 1.6c-1 0-1.8-.1-2.5-.3c-.8-.2-1.4-.5-2-.9v-3c.7.5 1.3.9 2 1.2c.7.2 1.6.4 2.5.4c1.2 0 2.2-.3 3-1c.8-.6 1.2-1.5 1.2-2.6v-1.2c-.4.6-1 1-1.7 1.3c-.6.3-1.4.5-2.2.5c-1.1 0-2.1-.3-3-.9c-.9-.5-1.6-1.3-2.1-2.3c-.6-1-.8-2.2-.8-3.5zm3.2 0c0 .9.2 1.7.5 2.3c.4.7.8 1.1 1.3 1.5c.5.3 1.1.5 1.6.5c.7 0 1.3-.2 1.9-.6c.5-.3.9-.8 1.3-1.5v-4.4c-.3-.7-.8-1.2-1.4-1.5c-.5-.4-1.2-.6-1.8-.6c-.6 0-1.1.2-1.6.5c-.6.3-1 .8-1.3 1.4c-.3.7-.5 1.5-.5 2.4zm18.8 1.4c.6.9 1.4 1.6 2.3 2.2c1 .6 2 .9 3.1.9c1 0 1.8-.2 2.3-.7c.6-.5.9-1.1.9-1.8c0-.5-.2-1-.6-1.4c-.4-.4-1-.8-2-1.3l-2.6-1.4c-1.2-.7-2-1.3-2.6-2c-.5-.7-.8-1.7-.8-2.8c0-.9.2-1.7.7-2.4c.4-.8 1.1-1.4 1.9-1.8c.9-.5 2-.7 3.3-.7c1.9 0 3.7.6 5.3 1.8v3.6c-.8-.9-1.6-1.6-2.5-2.1c-.9-.5-1.8-.7-2.8-.7c-.7 0-1.3.2-1.8.6c-.4.4-.7.9-.7 1.5c0 .4.2.8.5 1.2c.3.3.8.7 1.6 1.1l2.8 1.5c1.3.6 2.2 1.4 2.8 2.2c.6.8.9 1.8.9 3c0 1.1-.3 2-.8 2.8c-.6.8-1.3 1.4-2.3 1.8c-1 .4-2.2.6-3.5.6c-1.2 0-2.3-.2-3.2-.6c-1-.4-1.7-.8-2.2-1.3v-3.8zm13.4-1.4c0-1.3.3-2.4.8-3.5c.5-1 1.3-1.8 2.2-2.3c.9-.6 2-.9 3.2-.9c1.9 0 3.4.6 4.4 1.8c1.1 1.2 1.6 2.9 1.6 5v1.2s-9.13.01-9.1 0c.1 1.1.5 2 1.1 2.6c.6.6 1.5.9 2.6.9c.8 0 1.6-.2 2.4-.5c.7-.3 1.4-.8 2.1-1.5v2.9c-.5.5-1.2.8-2 1.1c-.9.2-1.7.3-2.6.3c-1.4 0-2.6-.2-3.6-.8c-1-.6-1.8-1.4-2.3-2.4c-.5-1-.8-2.1-.8-3.5v-.4zm9.1-1c0-1.1-.2-1.9-.8-2.5c-.5-.6-1.2-.9-2.1-.9c-.8 0-1.5.4-2.1 1c-.6.6-.9 1.4-1 2.4h6zm4.6 4.1c0-1 .2-1.8.8-2.5c.5-.6 1.1-1 1.9-1.3c.8-.3 1.8-.5 2.9-.7l2.7-.4c-.1-1.7-1.2-2.6-3.1-2.6c-.8 0-1.5.2-2.2.6c-.8.4-1.4.9-1.8 1.6v-3c1.2-1 2.8-1.5 4.6-1.5c1.7 0 3 .5 4.1 1.4c1 .9 1.6 2.2 1.6 4c-.05.04 0 8.1 0 8.1h-2.6s-.33-1.53-.3-1.5c-.7.6-1.4 1.1-2 1.4c-.7.3-1.5.4-2.4.4c-1.4 0-2.4-.3-3.1-1c-.8-.8-1.1-1.7-1.1-3zm3-.1c0 .5.2.9.5 1.2c.3.3.7.5 1.3.5c.7 0 1.5-.3 2.1-.7c.7-.5 1.2-1.1 1.5-1.8v-1.8s-1.56.24-1.6.2c-1 .2-1.8.4-2.3.6c-.4.2-.8.4-1 .6c-.3.3-.5.7-.5 1.2zm12.7-6.9h-2.8V7.1h2.8v-4h3.1v4h2.9v2.4h-2.9v10.7h-3.1V9.5z" stroke="none" fill="#5d7d2b"/></g></svg>