<?xml version="1.0" standalone="no"?><!DOCTYPE svg PUBLIC "-//W3C//DTD SVG 1.1//EN" "http://www.w3.org/Graphics/SVG/1.1/DTD/svg11.dtd"><svg xmlns="http://www.w3.org/2000/svg" version="1.1" width="575px" height="41.6px" viewBox="0 -8 575 41.6" style="top:-8px"><desc>텍스트 B</desc><defs/><g id="Polygon10292"><path d="m1 20.2v-2.3s5.79-5.95 5.8-5.9c.8-.9 1.4-1.6 1.7-2.3c.4-.6.5-1.3.5-2.1c0-.9-.2-1.6-.8-2.1c-.6-.6-1.3-.9-2.2-.9c-.9 0-1.8.3-2.5.7c-.8.5-1.4 1.1-1.9 1.9V3.6c.6-.4 1.2-.8 2-1.2c.8-.3 1.8-.5 2.8-.5c1.2 0 2.3.3 3.2.8c1 .5 1.7 1.2 2.1 2c.5.8.7 1.8.7 2.8c0 1.3-.3 2.4-.8 3.4c-.6.9-1.4 2-2.6 3.1l-3.5 3.5h7.4v2.7H1zm14.4 0V7.1h2.9s.23 1.88.2 1.9c.5-.7 1.1-1.2 1.8-1.6c.7-.5 1.5-.7 2.4-.7c1.5 0 2.6.4 3.4 1.3c.8.8 1.2 2 1.2 3.6v8.6h-3.1s.02-8.58 0-8.6c0-1.6-.7-2.5-2-2.5c-.8 0-1.5.3-2.2.9c-.7.6-1.2 1.3-1.5 2.2c.03-.01 0 8 0 8h-3.1zm14-6.6c0-1.4.2-2.6.7-3.6c.6-1.1 1.3-1.9 2.2-2.4c.9-.6 1.9-.9 2.9-.9c.8 0 1.5.2 2.2.5c.7.3 1.3.7 1.7 1.3c.04-.03 0-6.7 0-6.7h3.1v18.4h-2.9s-.16-1.6-.2-1.6c-.4.6-.9 1-1.6 1.4c-.7.4-1.5.5-2.3.5c-1 0-2-.2-2.9-.8c-.9-.6-1.6-1.4-2.2-2.4c-.5-1.1-.7-2.3-.7-3.7zm3.2 0c0 1 .1 1.8.4 2.5c.4.7.8 1.2 1.3 1.6c.5.3 1.1.5 1.7.5c.6 0 1.2-.2 1.8-.6c.6-.4 1-.9 1.3-1.5v-4.9c-.3-.7-.7-1.2-1.3-1.6c-.5-.3-1.1-.5-1.8-.5c-.6 0-1.1.2-1.6.5c-.6.3-1 .8-1.3 1.5c-.4.7-.5 1.6-.5 2.5zm19.2 6.6V1.9s7.41.04 7.4 0c1.1 0 2.1.2 3.1.7c.9.4 1.6 1 2.2 1.8c.5.7.8 1.7.8 2.8v.4c0 1.3-.5 2.5-1.4 3.4c-.9.9-2 1.4-3.4 1.7c0-.03 5.8 7.5 5.8 7.5h-4.2l-5.5-7.4H55v7.4h-3.2zm7-10c.9 0 1.6-.2 2.2-.7c.5-.5.8-1.2.8-2v-.3c0-.8-.3-1.5-.8-1.9c-.6-.5-1.3-.8-2.2-.8c-.02.04-3.8 0-3.8 0v5.7h3.8zm8.2 3.2c0-1.2.3-2.4.9-3.4c.6-1 1.3-1.8 2.3-2.4c1-.6 2.2-.9 3.4-.9c1.3 0 2.4.3 3.4.9c1 .6 1.8 1.4 2.3 2.4c.6 1 .9 2.2.9 3.4v.4c0 1.3-.3 2.5-.9 3.5c-.5 1-1.3 1.8-2.3 2.4c-1 .6-2.1.8-3.4.8c-1.2 0-2.4-.2-3.4-.8c-1-.6-1.7-1.4-2.3-2.4c-.6-1.1-.9-2.2-.9-3.5v-.4zm3.2.4c0 1.3.3 2.3.9 3.1c.6.9 1.5 1.3 2.5 1.3c1.1 0 1.9-.4 2.5-1.3c.6-.8.9-1.8.9-3.1v-.4c0-1.2-.3-2.2-.9-3.1c-.6-.8-1.4-1.2-2.5-1.2c-1 0-1.9.4-2.5 1.2c-.6.9-.9 1.9-.9 3.1v.4zm14.4 6.5L80.8 7.1h3.1l2.5 9.5L89 7.1h3.7l2.6 9.5l2.5-9.5h2.8l-3.8 13.1h-3.4l-2.7-10l-2.6 10l-3.5.1zm23.7-5.5c.6.9 1.3 1.6 2.3 2.2c1 .6 2 .9 3.1.9c1 0 1.8-.2 2.3-.7c.6-.5.8-1.1.8-1.8c0-.5-.2-1-.5-1.4c-.4-.4-1.1-.8-2-1.3l-2.7-1.4c-1.1-.7-1.9-1.3-2.5-2c-.5-.7-.8-1.7-.8-2.8c0-.9.2-1.7.6-2.4c.5-.8 1.1-1.4 2-1.8c.9-.5 2-.7 3.3-.7c1.9 0 3.7.6 5.3 1.8v3.6c-.8-.9-1.6-1.6-2.5-2.1c-.9-.5-1.8-.7-2.8-.7c-.8 0-1.4.2-1.8.6c-.5.4-.7.9-.7 1.5c0 .4.2.8.5 1.2c.2.3.8.7 1.6 1.1l2.8 1.5c1.2.6 2.2 1.4 2.8 2.2c.6.8.9 1.8.9 3c0 1.1-.3 2-.9 2.8c-.5.8-1.3 1.4-2.3 1.8c-1 .4-2.1.6-3.4.6c-1.2 0-2.3-.2-3.3-.6c-.9-.4-1.7-.8-2.1-1.3v-3.8zm16.8 5.5l-3.9-13.2h3.1l2.5 9.5l2.6-9.5h3.8l2.5 9.5l2.6-9.5h2.7l-3.7 13.1h-3.4l-2.7-10l-2.7 10l-3.4.1zm20.7-15.2h-3.1V1.8h3.1v3.3zm0 15.1h-3.1V7.1h3.1v13.1zm6.6 0l-4.9-13.1h3.3l3.4 9.8l3.5-9.8h3l-5 13.1h-3.3zm8.7-6.8c0-1.3.3-2.4.8-3.5c.5-1 1.3-1.8 2.2-2.3c.9-.6 2-.9 3.2-.9c1.9 0 3.4.6 4.5 1.8c1 1.2 1.5 2.9 1.5 5c.03.01 0 1.2 0 1.2c0 0-9.12.01-9.1 0c.1 1.1.5 2 1.1 2.6c.7.6 1.5.9 2.6.9c.9 0 1.6-.2 2.4-.5c.7-.3 1.4-.8 2.1-1.5v2.9c-.5.5-1.2.8-2 1.1c-.8.2-1.7.3-2.6.3c-1.4 0-2.6-.2-3.6-.8c-1-.6-1.8-1.4-2.3-2.4c-.5-1-.8-2.1-.8-3.5v-.4zm9.2-1c0-1.1-.3-1.9-.8-2.5c-.6-.6-1.3-.9-2.2-.9c-.8 0-1.5.4-2.1 1c-.6.6-.9 1.4-1 2.4h6.1zm8.4 7.8h-3.1V1.8h3.1v18.4zm6.2-15.1h-3.1V1.8h3.1v3.3zm0 15.1h-3.1V7.1h3.1v13.1zm3.1 0V7.1h2.9s.23 1.88.2 1.9c.5-.7 1.1-1.2 1.8-1.6c.7-.5 1.5-.7 2.4-.7c1.5 0 2.6.4 3.4 1.3c.8.8 1.2 2 1.2 3.6c.02.02 0 8.6 0 8.6h-3.1s.02-8.58 0-8.6c0-1.6-.6-2.5-2-2.5c-.8 0-1.5.3-2.2.9c-.7.6-1.2 1.3-1.5 2.2c.03-.01 0 8 0 8H188zm14-6.8c0-1.4.2-2.5.7-3.5c.6-1 1.3-1.8 2.2-2.4c.9-.5 1.9-.8 3-.8c.8 0 1.5.2 2.2.5c.7.4 1.2.9 1.7 1.4c-.03.02.2-1.5.2-1.5h2.8s.05 12.34 0 12.3c0 2.1-.6 3.6-1.9 4.7c-1.3 1.1-3.1 1.6-5.3 1.6c-1 0-1.8-.1-2.6-.3c-.7-.2-1.3-.5-1.9-.9v-3c.6.5 1.3.9 2 1.2c.7.2 1.6.4 2.5.4c1.2 0 2.2-.3 3-1c.8-.6 1.1-1.5 1.1-2.6v-1.2c-.3.6-.9 1-1.6 1.3c-.7.3-1.4.5-2.2.5c-1.1 0-2.1-.3-3-.9c-.9-.5-1.6-1.3-2.2-2.3c-.5-1-.7-2.2-.7-3.5zm3.2 0c0 .9.1 1.7.5 2.3c.3.7.8 1.1 1.3 1.5c.5.3 1.1.5 1.6.5c.7 0 1.3-.2 1.8-.6c.6-.3 1-.8 1.3-1.5v-4.4c-.3-.7-.7-1.2-1.3-1.5c-.6-.4-1.2-.6-1.8-.6c-.6 0-1.1.2-1.7.5c-.5.3-.9.8-1.2 1.4c-.4.7-.5 1.5-.5 2.4zm18.8 1.4c.6.9 1.3 1.6 2.3 2.2c1 .6 2 .9 3.1.9c1 0 1.8-.2 2.3-.7c.6-.5.8-1.1.8-1.8c0-.5-.2-1-.5-1.4c-.4-.4-1.1-.8-2-1.3l-2.7-1.4c-1.1-.7-1.9-1.3-2.5-2c-.5-.7-.8-1.7-.8-2.8c0-.9.2-1.7.6-2.4c.5-.8 1.1-1.4 2-1.8c.9-.5 2-.7 3.3-.7c1.9 0 3.7.6 5.3 1.8v3.6c-.8-.9-1.6-1.6-2.5-2.1c-.9-.5-1.8-.7-2.8-.7c-.8 0-1.4.2-1.8.6c-.5.4-.7.9-.7 1.5c0 .4.2.8.5 1.2c.2.3.8.7 1.6 1.1l2.8 1.5c1.2.6 2.2 1.4 2.8 2.2c.6.8.9 1.8.9 3c0 1.1-.3 2-.9 2.8c-.5.8-1.3 1.4-2.3 1.8c-1 .4-2.1.6-3.4.6c-1.2 0-2.3-.2-3.3-.6c-.9-.4-1.7-.8-2.1-1.3v-3.8zm13.4-1.4c0-1.3.3-2.4.8-3.5c.5-1 1.2-1.8 2.2-2.3c.9-.6 2-.9 3.2-.9c1.9 0 3.4.6 4.4 1.8c1.1 1.2 1.6 2.9 1.6 5v1.2s-9.15.01-9.1 0c.1 1.1.4 2 1.1 2.6c.6.6 1.5.9 2.6.9c.8 0 1.6-.2 2.3-.5c.8-.3 1.5-.8 2.2-1.5v2.9c-.6.5-1.3.8-2.1 1.1c-.8.2-1.6.3-2.5.3c-1.5 0-2.7-.2-3.7-.8c-1-.6-1.7-1.4-2.2-2.4c-.5-1-.8-2.1-.8-3.5v-.4zm9.1-1c0-1.1-.2-1.9-.8-2.5c-.5-.6-1.2-.9-2.1-.9c-.9 0-1.6.4-2.2 1c-.5.6-.9 1.4-.9 2.4h6zm4.5 4.1c0-1 .3-1.8.9-2.5c.5-.6 1.1-1 1.9-1.3c.8-.3 1.7-.5 2.9-.7l2.7-.4c-.1-1.7-1.2-2.6-3.2-2.6c-.7 0-1.4.2-2.2.6c-.7.4-1.3.9-1.8 1.6v-3c1.3-1 2.8-1.5 4.7-1.5c1.7 0 3 .5 4.1 1.4c1 .9 1.5 2.2 1.5 4c.03.04 0 8.1 0 8.1h-2.6s-.25-1.53-.2-1.5c-.7.6-1.4 1.1-2.1 1.4c-.7.3-1.5.4-2.4.4c-1.3 0-2.3-.3-3-1c-.8-.8-1.2-1.7-1.2-3zm3.1-.1c0 .5.2.9.5 1.2c.3.3.7.5 1.2.5c.8 0 1.5-.3 2.2-.7c.7-.5 1.2-1.1 1.5-1.8c-.01 0 0-1.8 0-1.8c0 0-1.57.24-1.6.2c-1.1.2-1.8.4-2.3.6c-.4.2-.8.4-1 .6c-.3.3-.5.7-.5 1.2zm12.7-6.9H264V7.1h2.8v-4h3.1v4h2.9v2.4h-2.9v10.7h-3.1V9.5z" stroke="none" fill="#5d7d2b"/></g></svg>