<?xml version="1.0" standalone="no"?><!DOCTYPE svg PUBLIC "-//W3C//DTD SVG 1.1//EN" "http://www.w3.org/Graphics/SVG/1.1/DTD/svg11.dtd"><svg xmlns="http://www.w3.org/2000/svg" version="1.1" width="575px" height="41.6px" viewBox="0 -8 575 41.6" style="top:-8px"><desc>텍스트 B</desc><defs/><g id="Polygon10189"><path d="m13.6 20.2H2V1.9h3.2v15.6h8.4v2.7zm13.9 0H15.8V1.9h11.5v2.7h-8.2v4.9h6.9v2.6h-6.9v5.4h8.4v2.7zm2.7 0V1.9s6.33.04 6.3 0c1.8 0 3.4.4 4.7 1.1c1.4.7 2.4 1.7 3.2 3.1c.7 1.3 1.1 2.9 1.1 4.7v.4c0 1.8-.4 3.4-1.1 4.8c-.8 1.3-1.8 2.4-3.2 3.1c-1.3.7-2.9 1.1-4.7 1.1c.03-.02-6.3 0-6.3 0zm6.2-2.6c.9 0 1.8-.3 2.7-.7c.8-.4 1.5-1.1 2-2.1c.6-.9.9-2.1.9-3.6v-.4c0-1.5-.3-2.6-.9-3.6c-.5-.9-1.2-1.6-2-2c-.9-.4-1.8-.6-2.7-.6c-.04-.04-2.9 0-2.9 0v13s2.86-.03 2.9 0zm17.9 2.6V1.9s7.4.04 7.4 0c1.1 0 2.1.2 3.1.7c.9.4 1.6 1 2.1 1.8c.6.7.9 1.7.9 2.8v.4c0 1.3-.5 2.5-1.4 3.4c-.9.9-2 1.4-3.4 1.7c0-.03 5.8 7.5 5.8 7.5h-4.2l-5.5-7.4h-1.6v7.4h-3.2zm7-10c.9 0 1.6-.2 2.2-.7c.5-.5.8-1.2.8-2v-.3c0-.8-.3-1.5-.8-1.9c-.6-.5-1.3-.8-2.2-.8c-.03.04-3.8 0-3.8 0v5.7h3.8zm8.1 3.2c0-1.3.3-2.4.8-3.5c.5-1 1.2-1.8 2.2-2.3c.9-.6 2-.9 3.2-.9c1.9 0 3.4.6 4.4 1.8c1.1 1.2 1.6 2.9 1.6 5v1.2s-9.14.01-9.1 0c.1 1.1.4 2 1.1 2.6c.6.6 1.5.9 2.6.9c.8 0 1.6-.2 2.4-.5c.7-.3 1.4-.8 2.1-1.5v2.9c-.6.5-1.3.8-2.1 1.1c-.8.2-1.6.3-2.5.3c-1.5 0-2.7-.2-3.7-.8c-1-.6-1.7-1.4-2.2-2.4c-.5-1-.8-2.1-.8-3.5v-.4zm9.1-1c0-1.1-.2-1.9-.8-2.5c-.5-.6-1.2-.9-2.1-.9c-.9 0-1.6.4-2.1 1c-.6.6-1 1.4-1 2.4h6zm4.5 4.1c0-1 .3-1.8.9-2.5c.5-.6 1.1-1 1.9-1.3c.8-.3 1.7-.5 2.9-.7l2.7-.4C91.3 9.9 90.2 9 88.2 9c-.7 0-1.4.2-2.1.6c-.8.4-1.4.9-1.9 1.6v-3c1.3-1 2.8-1.5 4.7-1.5c1.7 0 3 .5 4.1 1.4c1 .9 1.5 2.2 1.5 4c.04.04 0 8.1 0 8.1h-2.6s-.24-1.53-.2-1.5c-.7.6-1.4 1.1-2.1 1.4c-.6.3-1.4.4-2.4.4c-1.3 0-2.3-.3-3-1c-.8-.8-1.2-1.7-1.2-3zm3.1-.1c0 .5.2.9.5 1.2c.3.3.7.5 1.2.5c.8 0 1.5-.3 2.2-.7c.7-.5 1.2-1.1 1.5-1.8c-.01 0 0-1.8 0-1.8c0 0-1.57.24-1.6.2c-1.1.2-1.8.4-2.3.6c-.4.2-.8.4-1 .6c-.3.3-.5.7-.5 1.2zm11.3 3.8V7.1h2.9s.16 2.14.2 2.1c.2-.7.7-1.3 1.4-1.8c.8-.5 1.6-.7 2.5-.7c.4 0 .8.1 1 .1v2.8c-.3-.1-.7-.2-1.1-.2c-.9 0-1.7.3-2.4.8c-.7.5-1.2 1.2-1.4 2.1v7.9h-3.1zm15.2-9.4c0-1.7.4-3.3 1.1-4.7c.8-1.4 1.8-2.5 3.2-3.3c1.4-.8 3-1.2 4.9-1.2c1 0 2.1.2 3.1.5c1 .3 1.8.7 2.5 1.3v3.6c-.7-.8-1.5-1.5-2.4-2c-1-.5-2-.8-3.1-.8c-1.1 0-2 .3-2.9.8c-.9.6-1.6 1.4-2.1 2.4c-.5 1-.8 2.1-.8 3.4v.5c0 1.3.3 2.4.8 3.4c.5 1 1.2 1.8 2.1 2.4c.9.5 1.8.8 2.9.8c1.1 0 2.1-.2 3.1-.7c.9-.5 1.7-1.2 2.4-2.1v3.7c-.7.5-1.5.9-2.5 1.2c-1 .4-2.1.5-3.1.5c-1.9 0-3.5-.4-4.9-1.2c-1.4-.8-2.4-1.9-3.2-3.3c-.7-1.4-1.1-3-1.1-4.7v-.5zm16.6 2.6c0-1.2.3-2.4.8-3.4c.6-1 1.4-1.8 2.4-2.4c1-.6 2.1-.9 3.3-.9c1.3 0 2.4.3 3.4.9c1 .6 1.8 1.4 2.4 2.4c.5 1 .8 2.2.8 3.4v.4c0 1.3-.3 2.5-.8 3.5c-.6 1-1.4 1.8-2.4 2.4c-1 .6-2.1.8-3.4.8c-1.2 0-2.3-.2-3.3-.8c-1-.6-1.8-1.4-2.4-2.4c-.5-1.1-.8-2.2-.8-3.5v-.4zm3.2.4c0 1.3.3 2.3.9 3.1c.6.9 1.4 1.3 2.4 1.3c1.1 0 1.9-.4 2.5-1.3c.6-.8.9-1.8.9-3.1v-.4c0-1.2-.3-2.2-.9-3.1c-.6-.8-1.4-1.2-2.5-1.2c-1 0-1.8.4-2.4 1.2c-.6.9-.9 1.9-.9 3.1v.4zm12.2 6.4V7.1h2.8s.15 1.71.2 1.7c.5-.6 1.1-1.1 1.7-1.5c.6-.4 1.3-.6 2.1-.6c.8 0 1.5.2 2.2.6c.6.4 1.1 1 1.4 1.8c.6-.8 1.2-1.4 1.9-1.8c.7-.4 1.4-.6 2.3-.6c.7 0 1.4.2 2 .5c.6.4 1.1.9 1.5 1.5c.4.7.6 1.6.6 2.5v9h-3.1v-9c0-1.4-.6-2.2-1.7-2.2c-.6 0-1.2.3-1.8.8c-.6.5-1 1.2-1.2 1.9c-.03-.01 0 8.5 0 8.5h-3.1s.02-9.09 0-9.1c0-.7-.1-1.2-.4-1.5c-.3-.4-.8-.6-1.4-.6c-.5 0-1.1.3-1.6.8c-.6.5-1 1.1-1.3 1.8v8.6h-3.1zm21.6 0V1.8h3.1s-.03 6.67 0 6.7c.4-.6 1-1 1.7-1.3c.7-.3 1.4-.5 2.2-.5c1.1 0 2 .3 2.9.9c.9.5 1.6 1.3 2.2 2.4c.5 1 .8 2.2.8 3.6c0 1.4-.3 2.6-.8 3.7c-.6 1-1.3 1.8-2.2 2.4c-.9.6-1.8.8-2.9.8c-.8 0-1.6-.1-2.3-.5c-.7-.4-1.2-.8-1.6-1.4c-.03 0-.2 1.6-.2 1.6h-2.9zm3.1-4.1c.3.6.7 1.1 1.3 1.5c.6.4 1.2.6 1.9.6c.6 0 1.1-.2 1.6-.5c.5-.4.9-.9 1.3-1.6c.3-.7.4-1.5.4-2.5c0-.9-.1-1.8-.5-2.5c-.3-.7-.7-1.2-1.3-1.5c-.5-.3-1-.5-1.6-.5c-.6 0-1.3.2-1.8.5c-.6.4-1 .9-1.3 1.6v4.9zm15.1-11h-3.1V1.8h3.1v3.3zm0 15.1h-3.1V7.1h3.1v13.1zm6.3-15.1h-3.1V1.8h3.1v3.3zm0 15.1h-3.1V7.1h3.1v13.1zm3.1 0V7.1h2.9s.17 1.88.2 1.9c.4-.7 1-1.2 1.7-1.6c.8-.5 1.6-.7 2.4-.7c1.5 0 2.6.4 3.4 1.3c.8.8 1.3 2 1.3 3.6c-.05.02 0 8.6 0 8.6h-3.1s-.04-8.58 0-8.6c0-1.6-.7-2.5-2.1-2.5c-.7 0-1.5.3-2.2.9c-.7.6-1.2 1.3-1.4 2.2c-.03-.01 0 8 0 8h-3.1zm13.9-3.7c0-1 .3-1.8.9-2.5c.4-.6 1.1-1 1.9-1.3c.7-.3 1.7-.5 2.8-.7l2.8-.4c-.2-1.7-1.2-2.6-3.2-2.6c-.7 0-1.5.2-2.2.6c-.7.4-1.3.9-1.8 1.6v-3c1.2-1 2.8-1.5 4.6-1.5c1.7 0 3.1.5 4.1 1.4c1.1.9 1.6 2.2 1.6 4v8.1h-2.6s-.29-1.53-.3-1.5c-.6.6-1.3 1.1-2 1.4c-.7.3-1.5.4-2.4.4c-1.3 0-2.3-.3-3.1-1c-.7-.8-1.1-1.7-1.1-3zm3.1-.1c0 .5.1.9.4 1.2c.3.3.8.5 1.3.5c.8 0 1.5-.3 2.2-.7c.6-.5 1.1-1.1 1.4-1.8c.04 0 0-1.8 0-1.8c0 0-1.52.24-1.5.2c-1.1.2-1.9.4-2.3.6c-.5.2-.8.4-1.1.6c-.3.3-.4.7-.4 1.2zm12.7-6.9h-2.9V7.1h2.9v-4h3.1v4h2.9v2.4h-2.9v10.7h-3.1V9.5zm10.7-4.4h-3.1V1.8h3.1v3.3zm0 15.1h-3.1V7.1h3.1v13.1zm2.3-6.8c0-1.2.3-2.4.9-3.4c.5-1 1.3-1.8 2.3-2.4c1-.6 2.1-.9 3.4-.9c1.2 0 2.4.3 3.4.9c1 .6 1.7 1.4 2.3 2.4c.6 1 .9 2.2.9 3.4v.4c0 1.3-.3 2.5-.9 3.5c-.6 1-1.3 1.8-2.3 2.4c-1 .6-2.2.8-3.4.8c-1.3 0-2.4-.2-3.4-.8c-1-.6-1.8-1.4-2.3-2.4c-.6-1.1-.9-2.2-.9-3.5v-.4zm3.2.4c0 1.3.3 2.3.9 3.1c.6.9 1.4 1.3 2.5 1.3c1 0 1.9-.4 2.5-1.3c.6-.8.9-1.8.9-3.1v-.4c0-1.2-.3-2.2-.9-3.1c-.6-.8-1.5-1.2-2.5-1.2c-1.1 0-1.9.4-2.5 1.2c-.6.9-.9 1.9-.9 3.1v.4zm12.2 6.4V7.1h3s.15 1.88.1 1.9c.5-.7 1.1-1.2 1.8-1.6c.7-.5 1.5-.7 2.4-.7c1.5 0 2.6.4 3.4 1.3c.8.8 1.2 2 1.2 3.6c.03.02 0 8.6 0 8.6h-3.1s.03-8.58 0-8.6c0-1.6-.6-2.5-2-2.5c-.8 0-1.5.3-2.2.9c-.7.6-1.2 1.3-1.5 2.2c.05-.01 0 8 0 8h-3.1zm32.9 0h-11.7V1.9h3.3v15.6h8.4v2.7zm1.2-3.7c0-1 .2-1.8.8-2.5c.5-.6 1.1-1 1.9-1.3c.8-.3 1.8-.5 2.9-.7l2.7-.4c-.1-1.7-1.2-2.6-3.1-2.6c-.8 0-1.5.2-2.2.6c-.8.4-1.4.9-1.8 1.6v-3c1.2-1 2.8-1.5 4.6-1.5c1.7 0 3 .5 4.1 1.4c1 .9 1.6 2.2 1.6 4c-.05.04 0 8.1 0 8.1h-2.6s-.33-1.53-.3-1.5c-.7.6-1.4 1.1-2 1.4c-.7.3-1.5.4-2.4.4c-1.4 0-2.4-.3-3.1-1c-.8-.8-1.1-1.7-1.1-3zm3-.1c0 .5.2.9.5 1.2c.3.3.7.5 1.3.5c.7 0 1.5-.3 2.1-.7c.7-.5 1.2-1.1 1.5-1.8v-1.8s-1.56.24-1.6.2c-1 .2-1.8.4-2.3.6c-.4.2-.8.4-1 .6c-.3.3-.5.7-.5 1.2zm11.3 3.8V7.1h2.8s.18 1.71.2 1.7c.5-.6 1.1-1.1 1.7-1.5c.6-.4 1.4-.6 2.2-.6c.7 0 1.4.2 2.1.6c.6.4 1.1 1 1.4 1.8c.6-.8 1.2-1.4 1.9-1.8c.7-.4 1.5-.6 2.3-.6c.8 0 1.4.2 2.1.5c.6.4 1.1.9 1.5 1.5c.3.7.5 1.6.5 2.5c.03.03 0 9 0 9h-3.1s.03-8.97 0-9c0-1.4-.5-2.2-1.7-2.2c-.6 0-1.2.3-1.8.8c-.5.5-1 1.2-1.2 1.9v8.5h-3.1s.06-9.09.1-9.1c0-.7-.2-1.2-.5-1.5c-.3-.4-.7-.6-1.3-.6c-.6 0-1.2.3-1.7.8c-.5.5-1 1.1-1.3 1.8c.03.04 0 8.6 0 8.6h-3.1zm21.6 5.3V7.1h2.9l.2 1.6c.4-.6 1-1.1 1.6-1.4c.7-.4 1.5-.6 2.3-.6c1.1 0 2.1.3 3 .9c.9.5 1.6 1.3 2.1 2.4c.5 1 .8 2.2.8 3.6c0 1.4-.3 2.6-.8 3.7c-.5 1-1.2 1.8-2.1 2.4c-.9.6-1.9.8-3 .8c-.8 0-1.5-.1-2.2-.4c-.7-.3-1.2-.8-1.7-1.3v6.7h-3.1zm3.1-9.4c.3.6.7 1.1 1.3 1.5c.6.4 1.2.5 1.8.5c.6 0 1.2-.1 1.7-.5c.5-.3.9-.8 1.3-1.5c.3-.7.5-1.5.5-2.5c0-.9-.2-1.8-.5-2.5c-.3-.7-.7-1.2-1.2-1.5c-.6-.3-1.1-.5-1.7-.5c-.7 0-1.3.2-1.9.6c-.5.3-1 .8-1.3 1.5v4.9z" stroke="none" fill="#5d7d2b"/></g></svg>