<?xml version="1.0" standalone="no"?><!DOCTYPE svg PUBLIC "-//W3C//DTD SVG 1.1//EN" "http://www.w3.org/Graphics/SVG/1.1/DTD/svg11.dtd"><svg xmlns="http://www.w3.org/2000/svg" version="1.1" width="575px" height="41.6px" viewBox="0 -8 575 41.6" style="top:-8px"><desc>텍스트 B</desc><defs/><g id="Polygon10198"><path d="m3.5 20.2H.4L7.3 1.9h3.6l7 18.3h-3.5l-1.9-5H5.4l-1.9 5zM9 5.5l-2.7 7.1h5.3L9 5.5zm10.3 10.1c0 1.6.4 2.8 1.2 3.7c.8.8 2 1.2 3.4 1.2c.9 0 1.7-.2 2.4-.6c.7-.4 1.3-1 1.8-1.6l.2 1.9h2.9V7.1h-3.1v8c-.3.8-.8 1.5-1.4 2.1c-.7.6-1.5.9-2.3.9c-1.3 0-2-.8-2-2.5c.02.05 0-8.5 0-8.5h-3.1s.02 8.55 0 8.5zm16.4-6.1h-2.8V7.1h2.8v-4h3.1v4h2.9v2.4h-2.9v10.7h-3.1V9.5zm6.7 3.9c0-1.2.3-2.4.9-3.4c.5-1 1.3-1.8 2.3-2.4c1-.6 2.1-.9 3.4-.9c1.2 0 2.4.3 3.4.9c1 .6 1.7 1.4 2.3 2.4c.6 1 .9 2.2.9 3.4v.4c0 1.3-.3 2.5-.9 3.5c-.6 1-1.3 1.8-2.3 2.4c-1 .6-2.2.8-3.4.8c-1.3 0-2.4-.2-3.4-.8c-1-.6-1.8-1.4-2.3-2.4c-.6-1.1-.9-2.2-.9-3.5v-.4zm3.2.4c0 1.3.3 2.3.9 3.1c.6.9 1.4 1.3 2.5 1.3c1 0 1.9-.4 2.5-1.3c.5-.8.8-1.8.8-3.1v-.4c0-1.2-.3-2.2-.8-3.1c-.6-.8-1.5-1.2-2.5-1.2c-1.1 0-1.9.4-2.5 1.2c-.6.9-.9 1.9-.9 3.1v.4zm21.9 6.4h-3.3V1.9H76v2.7h-8.5v5h6.9v2.8h-6.9v7.8zm13.8 0h-3.1V1.8h3.1v18.4zm2.9-4.6c0 1.6.4 2.8 1.2 3.7c.8.8 2 1.2 3.4 1.2c.9 0 1.7-.2 2.4-.6c.7-.4 1.3-1 1.8-1.6l.2 1.9h2.9V7.1H93v8c-.3.8-.8 1.5-1.5 2.1c-.6.6-1.4.9-2.2.9c-1.3 0-2-.8-2-2.5c.01.05 0-8.5 0-8.5h-3.1s.01 8.55 0 8.5zm14.7.5c.5.6 1.1 1.1 1.8 1.5c.7.3 1.5.5 2.3.5c.8 0 1.3-.1 1.7-.4c.4-.3.6-.6.6-1c0-.4-.2-.7-.4-.9c-.2-.3-.7-.5-1.3-.8l-1.3-.5c-1.1-.4-2-.9-2.6-1.6c-.6-.6-.8-1.4-.8-2.4c0-.7.1-1.3.5-1.9c.3-.6.9-1 1.6-1.4c.7-.3 1.6-.5 2.6-.5c.8 0 1.5.2 2.2.4c.7.3 1.3.6 1.8 1v2.9c-.6-.6-1.2-1.1-1.9-1.4c-.7-.3-1.4-.5-2.1-.5c-.6 0-1.1.1-1.4.4c-.3.3-.4.5-.4.8c0 .3.1.6.4.8c.3.2.8.5 1.4.7l1.3.5c1.2.4 2 1 2.6 1.6c.5.7.8 1.5.8 2.5c0 1.3-.5 2.3-1.5 3.1c-1 .7-2.2 1-3.8 1c-.9 0-1.6-.1-2.4-.4c-.7-.2-1.3-.6-1.7-1v-3zm11.6 4.1V1.8h3.1s.04 7.18 0 7.2c.5-.7 1.1-1.2 1.8-1.6c.7-.5 1.5-.7 2.4-.7c1.5 0 2.6.4 3.4 1.3c.8.8 1.2 2 1.2 3.6c.02.02 0 8.6 0 8.6h-3.1s.03-8.58 0-8.6c0-1.6-.6-2.5-2-2.5c-.8 0-1.5.3-2.2.9c-.7.6-1.2 1.3-1.5 2.2c.04-.01 0 8 0 8h-3.1zm21.2 0V1.9s6.32.04 6.3 0c1.8 0 3.4.4 4.7 1.1c1.4.7 2.4 1.7 3.1 3.1c.8 1.3 1.2 2.9 1.2 4.7v.4c0 1.8-.4 3.4-1.2 4.8c-.7 1.3-1.7 2.4-3.1 3.1c-1.3.7-2.9 1.1-4.7 1.1c.02-.02-6.3 0-6.3 0zm6.2-2.6c.9 0 1.8-.3 2.7-.7c.8-.4 1.5-1.1 2-2.1c.6-.9.8-2.1.8-3.6v-.4c0-1.5-.2-2.6-.8-3.6c-.5-.9-1.2-1.6-2-2c-.9-.4-1.8-.6-2.7-.6c-.05-.04-2.9 0-2.9 0v13s2.85-.03 2.9 0zm10.6-4.2c0-1.2.3-2.4.9-3.4c.5-1 1.3-1.8 2.3-2.4c1-.6 2.1-.9 3.4-.9c1.2 0 2.4.3 3.4.9c1 .6 1.7 1.4 2.3 2.4c.6 1 .9 2.2.9 3.4v.4c0 1.3-.3 2.5-.9 3.5c-.6 1-1.3 1.8-2.3 2.4c-1 .6-2.2.8-3.4.8c-1.3 0-2.4-.2-3.4-.8c-1-.6-1.8-1.4-2.3-2.4c-.6-1.1-.9-2.2-.9-3.5v-.4zm3.2.4c0 1.3.3 2.3.9 3.1c.6.9 1.4 1.3 2.5 1.3c1 0 1.9-.4 2.5-1.3c.5-.8.8-1.8.8-3.1v-.4c0-1.2-.3-2.2-.8-3.1c-.6-.8-1.5-1.2-2.5-1.2c-1.1 0-1.9.4-2.5 1.2c-.6.9-.9 1.9-.9 3.1v.4zm11.6-.4c0-1.2.3-2.4.9-3.4c.6-1 1.3-1.8 2.3-2.4c1-.6 2.2-.9 3.4-.9c1.3 0 2.4.3 3.4.9c1 .6 1.8 1.4 2.3 2.4c.6 1 .9 2.2.9 3.4v.4c0 1.3-.3 2.5-.9 3.5c-.5 1-1.3 1.8-2.3 2.4c-1 .6-2.1.8-3.4.8c-1.2 0-2.4-.2-3.4-.8c-1-.6-1.7-1.4-2.3-2.4c-.6-1.1-.9-2.2-.9-3.5v-.4zm3.3.4c0 1.3.3 2.3.8 3.1c.6.9 1.5 1.3 2.5 1.3c1.1 0 1.9-.4 2.5-1.3c.6-.8.9-1.8.9-3.1v-.4c0-1.2-.3-2.2-.9-3.1c-.6-.8-1.4-1.2-2.5-1.2c-1 0-1.9.4-2.5 1.2c-.5.9-.8 1.9-.8 3.1v.4zm12.2 6.4V7.1h2.9s.12 2.14.1 2.1c.3-.7.8-1.3 1.5-1.8c.7-.5 1.5-.7 2.5-.7c.4 0 .7.1 1 .1v2.8c-.4-.1-.7-.2-1.2-.2c-.8 0-1.6.3-2.3.8c-.7.5-1.2 1.2-1.4 2.1c-.03-.04 0 7.9 0 7.9h-3.1zm19.3 0h-3.2V1.9h3.2v7.5h9.3V1.9h3.2v18.3h-3.2v-8.1h-9.3v8.1zm14.9-3.7c0-1 .3-1.8.9-2.5c.5-.6 1.1-1 1.9-1.3c.8-.3 1.7-.5 2.9-.7l2.7-.4c-.1-1.7-1.2-2.6-3.1-2.6c-.8 0-1.5.2-2.2.6c-.8.4-1.4.9-1.9 1.6v-3c1.3-1 2.8-1.5 4.7-1.5c1.7 0 3 .5 4.1 1.4c1 .9 1.5 2.2 1.5 4c.04.04 0 8.1 0 8.1h-2.6s-.24-1.53-.2-1.5c-.7.6-1.4 1.1-2.1 1.4c-.6.3-1.4.4-2.4.4c-1.3 0-2.3-.3-3-1c-.8-.8-1.2-1.7-1.2-3zm3.1-.1c0 .5.2.9.5 1.2c.3.3.7.5 1.2.5c.8 0 1.6-.3 2.2-.7c.7-.5 1.2-1.1 1.5-1.8c-.01 0 0-1.8 0-1.8c0 0-1.57.24-1.6.2c-1.1.2-1.8.4-2.3.6c-.4.2-.8.4-1 .6c-.3.3-.5.7-.5 1.2zm11.3 3.8V7.1h2.9s.22 1.88.2 1.9c.5-.7 1.1-1.2 1.8-1.6c.7-.5 1.5-.7 2.4-.7c1.4 0 2.6.4 3.4 1.3c.8.8 1.2 2 1.2 3.6v8.6h-3.1v-8.6c0-1.6-.7-2.5-2-2.5c-.8 0-1.5.3-2.2.9c-.7.6-1.2 1.3-1.5 2.2c.02-.01 0 8 0 8h-3.1zm13.9-6.6c0-1.4.3-2.6.8-3.6c.6-1.1 1.3-1.9 2.2-2.4c.9-.6 1.8-.9 2.9-.9c.8 0 1.5.2 2.2.5c.7.3 1.3.7 1.7 1.3c.03-.03 0-6.7 0-6.7h3.1v18.4h-2.9s-.17-1.6-.2-1.6c-.4.6-.9 1-1.6 1.4c-.7.4-1.5.5-2.3.5c-1.1 0-2-.2-2.9-.8c-.9-.6-1.6-1.4-2.2-2.4c-.5-1.1-.8-2.3-.8-3.7zm3.3 0c0 1 .1 1.8.4 2.5c.4.7.8 1.2 1.3 1.6c.5.3 1 .5 1.6.5c.7 0 1.3-.2 1.9-.6c.6-.4 1-.9 1.3-1.5v-4.9c-.3-.7-.7-1.2-1.3-1.6c-.5-.3-1.2-.5-1.8-.5c-.6 0-1.1.2-1.6.5c-.6.3-1 .8-1.3 1.5c-.4.7-.5 1.6-.5 2.5zm15.8 6.6h-3.1V1.8h3.1v18.4zm2.2-6.8c0-1.3.3-2.4.8-3.5c.5-1 1.2-1.8 2.2-2.3c.9-.6 2-.9 3.2-.9c1.9 0 3.4.6 4.4 1.8c1.1 1.2 1.6 2.9 1.6 5v1.2s-9.15.01-9.1 0c.1 1.1.4 2 1.1 2.6c.6.6 1.5.9 2.6.9c.8 0 1.6-.2 2.3-.5c.8-.3 1.5-.8 2.2-1.5v2.9c-.6.5-1.3.8-2.1 1.1c-.8.2-1.6.3-2.5.3c-1.5 0-2.7-.2-3.7-.8c-1-.6-1.7-1.4-2.2-2.4c-.5-1-.8-2.1-.8-3.5v-.4zm9.1-1c0-1.1-.2-1.9-.8-2.5c-.5-.6-1.2-.9-2.1-.9c-.9 0-1.6.4-2.2 1c-.5.6-.9 1.4-.9 2.4h6z" stroke="none" fill="#5d7d2b"/></g></svg>