<?xml version="1.0" standalone="no"?><!DOCTYPE svg PUBLIC "-//W3C//DTD SVG 1.1//EN" "http://www.w3.org/Graphics/SVG/1.1/DTD/svg11.dtd"><svg xmlns="http://www.w3.org/2000/svg" version="1.1" width="173px" height="57.2px" viewBox="0 -6 173 57.2" style="top:-6px"><desc>텍스트 B</desc><defs/><g id="Polygon10776"><path d="m6.3 32.2c0-1.4.3-2.6.8-3.6c.6-1.1 1.3-1.9 2.3-2.5c1-.6 2.1-.9 3.3-.9c.9 0 1.7.2 2.5.5c.7.3 1.4.7 1.8 1.2v1.9c-.5-.7-1.1-1.2-1.8-1.6c-.7-.4-1.5-.6-2.4-.6c-.9 0-1.7.2-2.4.7c-.7.5-1.3 1.1-1.7 2c-.4.8-.6 1.8-.6 2.9v.3c0 1.1.2 2.1.6 2.9c.4.9 1 1.5 1.7 2c.7.5 1.5.7 2.3.7c.9 0 1.7-.2 2.5-.6c.7-.4 1.3-.9 1.8-1.6v1.9c-.4.5-1.1.9-1.8 1.2c-.8.3-1.6.5-2.5.5c-1.2 0-2.3-.3-3.3-.9c-1-.6-1.7-1.4-2.3-2.5c-.5-1-.8-2.2-.8-3.6v-.3zm12.2 1.9c0-.9.2-1.8.6-2.6c.4-.8.9-1.4 1.6-1.8c.7-.4 1.5-.6 2.4-.6c.9 0 1.7.2 2.4.6c.7.4 1.2 1 1.6 1.8c.4.8.6 1.7.6 2.6v.3c0 1-.2 1.9-.6 2.7c-.4.7-.9 1.3-1.6 1.7c-.7.5-1.5.7-2.4.7c-.9 0-1.7-.2-2.4-.7c-.7-.4-1.2-1-1.6-1.7c-.4-.8-.6-1.7-.6-2.7v-.3zm1.7.3c0 1.2.2 2.1.8 2.8c.5.7 1.2 1 2.1 1c.9 0 1.7-.3 2.2-1c.5-.7.8-1.6.8-2.8v-.3c0-1.1-.3-2-.8-2.7c-.5-.7-1.3-1-2.2-1c-.9 0-1.6.3-2.1 1c-.6.7-.8 1.6-.8 2.7v.3zm9.4 4.8v-9.8h1.5s.06 1.75.1 1.7c.3-.6.8-1.1 1.3-1.4c.6-.4 1.2-.6 1.9-.6c.7 0 1.3.2 1.7.6c.5.3.8.9 1 1.6c.4-.7.9-1.2 1.4-1.6c.6-.4 1.2-.6 2-.6c.9 0 1.6.3 2.1.9c.5.6.8 1.4.8 2.5v6.7h-1.6s.02-6.56 0-6.6c0-.7-.1-1.3-.4-1.7c-.2-.4-.7-.5-1.2-.5c-.4 0-.8.1-1.2.3c-.4.3-.7.6-1 1c-.4.4-.6.8-.7 1.3v6.2h-1.6s.01-6.6 0-6.6c0-.8-.1-1.3-.4-1.7c-.2-.4-.7-.5-1.2-.5c-.4 0-.8.1-1.2.3c-.4.3-.7.6-1 1c-.3.4-.5.8-.7 1.3v6.2h-1.6zm16.2 0V25.4h1.6v5.4c.4-.5.8-.9 1.4-1.2c.5-.3 1.1-.5 1.7-.5c.9 0 1.6.2 2.3.6c.6.5 1.1 1.1 1.5 1.8c.4.8.6 1.7.6 2.8c0 1-.2 1.9-.6 2.7c-.4.8-.9 1.4-1.5 1.8c-.7.4-1.4.7-2.3.7c-.6 0-1.2-.2-1.8-.5c-.5-.4-1-.8-1.3-1.3c-.02-.04-.1 1.5-.1 1.5h-1.5zm1.6-3.3c.2.6.6 1.2 1.2 1.6c.5.5 1.1.7 1.7.7c.5 0 1-.2 1.5-.5c.4-.3.8-.7 1-1.3c.3-.6.4-1.3.4-2.1c0-.8-.1-1.5-.4-2.1c-.2-.6-.6-1.1-1-1.4c-.5-.3-1-.4-1.5-.4c-.6 0-1.2.2-1.7.6c-.6.4-1 1-1.2 1.7v3.2zm10.9-8.2h-1.5v-2h1.5v2zm0 11.5h-1.5v-9.8h1.5v9.8zm4.2-11.5h-1.6v-2h1.6v2zm0 11.5h-1.6v-9.8h1.6v9.8zm2.6 0v-9.8h1.4s.17 1.94.2 1.9c.3-.6.8-1.1 1.4-1.5c.6-.5 1.3-.7 2.1-.7c1 0 1.8.3 2.4.9c.5.7.8 1.6.8 2.7v6.5h-1.6v-6.3c0-.9-.1-1.5-.4-1.9c-.3-.4-.8-.6-1.5-.6c-.4 0-.9.1-1.3.4c-.5.3-.9.7-1.2 1.1c-.3.5-.6 1-.7 1.5v5.8h-1.6zm10-2.6c0-.7.2-1.2.5-1.7c.3-.4.8-.7 1.3-.9c.6-.3 1.4-.5 2.3-.7l2.5-.4c0-.9-.3-1.5-.7-1.9c-.4-.5-1-.7-1.9-.7c-.6 0-1.2.2-1.8.5c-.6.3-1 .6-1.4 1.1v-1.5c.4-.4.8-.7 1.4-.9c.6-.3 1.2-.4 1.9-.4c1.3 0 2.3.3 3 .9c.7.7 1.1 1.6 1.1 2.9c-.03-.04 0 6.3 0 6.3H82s-.26-1.52-.3-1.5c-.4.5-1 1-1.6 1.3c-.6.3-1.3.5-2 .5c-.9 0-1.6-.3-2.2-.8c-.5-.5-.8-1.2-.8-2.1zm1.6-.1c0 .6.2 1 .5 1.2c.3.3.7.5 1.2.5c.6 0 1.2-.2 1.9-.6c.6-.4 1.1-.9 1.4-1.6v-1.9s-1.63.32-1.6.3c-.9.2-1.6.3-2.1.5c-.4.1-.8.3-1 .6c-.2.3-.3.6-.3 1zm10-5.9h-2.2v-1.2h2.2v-3h1.6v3h2.2v1.2h-2.2v8.6h-1.6v-8.6zm6.7-2.9h-1.6v-2h1.6v2zm0 11.5h-1.6v-9.8h1.6v9.8zm1.9-5.1c0-.9.2-1.8.6-2.6c.4-.8.9-1.4 1.6-1.8c.7-.4 1.5-.6 2.4-.6c.9 0 1.7.2 2.4.6c.7.4 1.3 1 1.6 1.8c.4.8.6 1.7.6 2.6v.3c0 1-.2 1.9-.6 2.7c-.3.7-.9 1.3-1.6 1.7c-.7.5-1.5.7-2.4.7c-.9 0-1.7-.2-2.4-.7c-.7-.4-1.2-1-1.6-1.7c-.4-.8-.6-1.7-.6-2.7v-.3zm1.7.3c0 1.2.2 2.1.8 2.8c.5.7 1.2 1 2.1 1c.9 0 1.7-.3 2.2-1c.5-.7.8-1.6.8-2.8v-.3c0-1.1-.3-2-.8-2.7c-.5-.7-1.3-1-2.2-1c-.9 0-1.6.3-2.1 1c-.6.7-.8 1.6-.8 2.7v.3zm9.4 4.8v-9.8h1.5l.1 1.9c.4-.6.8-1.1 1.4-1.5c.7-.5 1.3-.7 2.1-.7c1 0 1.8.3 2.4.9c.6.7.8 1.6.8 2.7c.03.03 0 6.5 0 6.5h-1.6s.03-6.34 0-6.3c0-.9-.1-1.5-.4-1.9c-.3-.4-.8-.6-1.4-.6c-.5 0-.9.1-1.4.4c-.4.3-.8.7-1.2 1.1c-.3.5-.5 1-.7 1.5c.02 0 0 5.8 0 5.8h-1.6zm23.5 0h-8V25.5h1.7v12.3h6.3v1.4zm1-2.6c0-.7.2-1.2.5-1.7c.3-.4.7-.7 1.3-.9c.6-.3 1.3-.5 2.3-.7l2.5-.4c-.1-.9-.3-1.5-.7-1.9c-.4-.5-1.1-.7-1.9-.7c-.7 0-1.3.2-1.8.5c-.6.3-1 .6-1.4 1.1v-1.5c.3-.4.8-.7 1.4-.9c.6-.3 1.2-.4 1.9-.4c1.3 0 2.3.3 3 .9c.7.7 1.1 1.6 1.1 2.9c-.05-.04 0 6.3 0 6.3h-1.3s-.28-1.52-.3-1.5c-.4.5-1 1-1.6 1.3c-.6.3-1.3.5-2 .5c-.9 0-1.7-.3-2.2-.8c-.5-.5-.8-1.2-.8-2.1zm1.6-.1c0 .6.1 1 .4 1.2c.4.3.8.5 1.3.5c.6 0 1.2-.2 1.8-.6c.7-.4 1.1-.9 1.5-1.6c-.02.01 0-1.9 0-1.9c0 0-1.65.32-1.7.3c-.9.2-1.5.3-2 .5c-.4.1-.8.3-1 .6c-.2.3-.3.6-.3 1zm9 2.7v-9.8h1.4s.15 1.75.1 1.7c.4-.6.9-1.1 1.4-1.4c.5-.4 1.2-.6 1.9-.6c.7 0 1.3.2 1.7.6c.5.3.8.9 1 1.6c.4-.7.9-1.2 1.4-1.6c.6-.4 1.2-.6 2-.6c.9 0 1.6.3 2.1.9c.5.6.8 1.4.8 2.5c-.01.01 0 6.7 0 6.7h-1.6v-6.6c0-.7-.1-1.3-.4-1.7c-.2-.4-.7-.5-1.3-.5c-.3 0-.7.1-1.1.3c-.4.3-.8.6-1.1 1c-.3.4-.5.8-.6 1.3c-.02-.02 0 6.2 0 6.2h-1.6v-6.6c0-.8-.1-1.3-.4-1.7c-.2-.4-.7-.5-1.3-.5c-.3 0-.7.1-1.1.3c-.4.3-.7.6-1 1c-.3.4-.6.8-.7 1.3v6.2h-1.6zm16.2 4V29.4h1.4s.16 1.55.2 1.5c.3-.5.8-1 1.3-1.3c.6-.3 1.2-.5 1.9-.5c.8 0 1.5.2 2.2.6c.6.5 1.1 1.1 1.5 1.8c.4.8.6 1.7.6 2.8c0 1-.2 1.9-.6 2.7c-.4.8-.9 1.4-1.5 1.8c-.7.4-1.4.7-2.2.7c-.7 0-1.3-.2-1.8-.5c-.6-.3-1.1-.8-1.4-1.3c-.02.02 0 5.5 0 5.5h-1.6zm1.6-7.4c.2.7.6 1.3 1.2 1.7c.5.5 1.1.7 1.7.7c.5 0 1-.2 1.5-.5c.4-.3.8-.8 1-1.4c.3-.6.4-1.2.4-2c0-.8-.1-1.5-.4-2.1c-.2-.6-.6-1.1-1-1.4c-.5-.3-.9-.4-1.5-.4c-.6 0-1.2.2-1.7.6c-.6.5-1 1-1.2 1.7v3.1z" stroke="none" fill="#939598"/></g><g id="Polygon10775"><path d="m57.9 15.2h-8V1.5h1.7v12.3h6.3v1.4zm10 0h-8.2V1.5h8.1v1.4h-6.5v4.6h5.5v1.3h-5.5v5h6.6v1.4zm2.3 0V1.5h4.2c1.3 0 2.4.3 3.4.9c1 .6 1.8 1.4 2.3 2.4c.6 1 .9 2.1.9 3.4v.3c0 1.3-.3 2.4-.9 3.4c-.5 1-1.3 1.8-2.3 2.4c-1 .6-2.1.9-3.4.9h-4.2zm4.1-1.4c1 0 1.8-.2 2.5-.6c.8-.5 1.4-1.1 1.8-1.9c.4-.8.6-1.8.6-2.8v-.3c0-1.1-.2-2-.6-2.8c-.4-.8-1-1.4-1.8-1.9c-.7-.4-1.5-.6-2.5-.6c.02-.02-2.5 0-2.5 0v10.9s2.52.02 2.5 0zm13.4 1.4V1.5s4.98.01 5 0c.9 0 1.7.2 2.3.5c.7.3 1.3.8 1.7 1.3c.3.6.5 1.3.5 2v.3c0 1-.3 1.9-1 2.5c-.7.7-1.6 1.1-2.8 1.3c0-.04 4.5 5.8 4.5 5.8h-2.1l-4.4-5.8h-2v5.8h-1.7zM92.5 8c.9 0 1.7-.2 2.2-.6c.5-.5.8-1.1.8-1.8v-.3c0-.7-.3-1.3-.8-1.8c-.5-.4-1.3-.6-2.2-.6c0-.04-3.1 0-3.1 0v5.1s3.1.05 3.1 0zm6 2c0-.9.2-1.8.6-2.5c.4-.8.9-1.4 1.5-1.8c.7-.4 1.5-.6 2.3-.6c1.4 0 2.4.4 3.1 1.3c.8.9 1.2 2.1 1.2 3.8c-.03-.05 0 .6 0 .6h-7.1c.1 1 .4 1.8.9 2.4c.5.7 1.2 1 2.1 1c1.4 0 2.6-.5 3.5-1.5v1.6c-.4.4-.9.7-1.5.9c-.5.2-1.2.3-2 .3c-.9 0-1.7-.2-2.4-.7c-.7-.4-1.3-1-1.6-1.7c-.4-.8-.6-1.7-.6-2.7v-.4zm7.1-.4c0-1.1-.3-1.9-.7-2.4c-.5-.6-1.2-.8-1.9-.8c-.5 0-1 .1-1.4.3c-.4.3-.8.7-1 1.2c-.3.4-.4 1-.5 1.7h5.5zm2.8 3c0-.7.2-1.2.5-1.7c.3-.4.7-.7 1.3-.9c.6-.3 1.3-.5 2.3-.7l2.5-.4c-.1-.9-.3-1.5-.7-1.9c-.4-.5-1.1-.7-1.9-.7c-.7 0-1.3.2-1.8.5c-.6.3-1 .6-1.4 1.1V6.4c.3-.4.8-.7 1.4-.9c.6-.3 1.2-.4 1.9-.4c1.3 0 2.3.3 3 .9c.7.7 1.1 1.6 1.1 2.9c-.05-.04 0 6.3 0 6.3h-1.3s-.28-1.52-.3-1.5c-.4.5-1 1-1.6 1.3c-.6.3-1.3.5-2 .5c-.9 0-1.7-.3-2.2-.8c-.5-.5-.8-1.2-.8-2.1zm1.6-.1c0 .6.1 1 .4 1.2c.4.3.8.5 1.3.5c.6 0 1.2-.2 1.8-.6c.7-.4 1.1-.9 1.5-1.6c-.02.01 0-1.9 0-1.9c0 0-1.65.32-1.7.3c-.9.2-1.5.3-2 .5c-.4.1-.8.3-1 .6c-.2.3-.3.6-.3 1zm9 2.7V5.4h1.5s.06 1.67.1 1.7c.2-.6.6-1.1 1.1-1.5c.5-.3 1.1-.5 1.8-.5h.5c.2.1.3.1.4.1v1.4c-.2-.1-.6-.1-1-.1c-.6 0-1.2.2-1.7.6c-.5.4-.9 1-1.1 1.7v6.4H119z" stroke="none" fill="#939598"/></g></svg>