<?xml version="1.0" standalone="no"?><!DOCTYPE svg PUBLIC "-//W3C//DTD SVG 1.1//EN" "http://www.w3.org/Graphics/SVG/1.1/DTD/svg11.dtd"><svg xmlns="http://www.w3.org/2000/svg" version="1.1" width="173px" height="57.2px" viewBox="0 -6 173 57.2" style="top:-6px"><desc>텍스트 B</desc><defs/><g id="Polygon10897"><path d="m54.6 35.9c.4.7 1 1.2 1.7 1.6c.7.4 1.4.6 2.2.6c.6 0 1.1-.1 1.5-.3c.5-.2.8-.5 1-.9c.2-.4.3-.7.3-1.1c0-.6-.1-1-.5-1.4c-.3-.4-.8-.8-1.5-1.2l-2-1c-.8-.4-1.4-.9-1.9-1.5c-.4-.5-.7-1.2-.7-2c0-.7.2-1.3.5-1.8c.4-.5.8-.9 1.4-1.2c.7-.3 1.4-.5 2.2-.5c.7 0 1.4.2 2 .5c.7.2 1.3.6 1.7 1.1v1.9c-.4-.6-1-1.1-1.7-1.5c-.7-.4-1.3-.6-2-.6c-.7 0-1.3.2-1.7.6c-.4.3-.6.8-.6 1.4c0 .4.1.8.4 1.2c.3.3.8.7 1.5 1l1.9 1c1 .5 1.6 1.1 2.1 1.7c.4.6.6 1.3.6 2.2c0 .7-.1 1.4-.5 2c-.4.5-.9 1-1.6 1.3c-.7.3-1.5.5-2.4.5c-.9 0-1.6-.2-2.3-.5c-.7-.3-1.3-.6-1.6-1.1v-2zm10.4-.1c0 1.2.2 2.1.8 2.7c.6.6 1.3 1 2.4 1c.7 0 1.4-.3 2-.7c.6-.4 1.1-1 1.5-1.6c-.01.01.1 2 .1 2h1.5v-9.8h-1.6s-.03 5.76 0 5.8c-.2.5-.4 1-.7 1.4c-.4.5-.8.9-1.2 1.2c-.5.2-.9.4-1.4.4c-.6 0-1.1-.2-1.4-.6c-.3-.5-.4-1.1-.4-1.9c-.04 0 0-6.3 0-6.3H65s-.03 6.43 0 6.4zm10.8 3.4v-9.8h1.5l.1 1.9c.4-.6.9-1.1 1.5-1.5c.6-.5 1.3-.7 2-.7c1.1 0 1.8.3 2.4.9c.6.7.8 1.6.8 2.7c.04.03 0 6.5 0 6.5h-1.6s.04-6.34 0-6.3c0-.9-.1-1.5-.4-1.9c-.3-.4-.8-.6-1.4-.6c-.5 0-.9.1-1.4.4c-.4.3-.8.7-1.2 1.1c-.3.5-.5 1-.7 1.5c.03 0 0 5.8 0 5.8h-1.6zm10.7 0v-9.8h1.5s.08 1.67.1 1.7c.3-.6.6-1.1 1.1-1.5c.5-.3 1.1-.5 1.8-.5h.5c.2.1.4.1.4.1v1.4c-.2-.1-.6-.1-1-.1c-.6 0-1.2.2-1.7.6c-.5.4-.9 1-1.1 1.7c.02 0 0 6.4 0 6.4h-1.6zm6.1-5.1c0-.9.2-1.8.6-2.6c.4-.8.9-1.4 1.6-1.8c.7-.4 1.5-.6 2.4-.6c.9 0 1.7.2 2.4.6c.7.4 1.3 1 1.7 1.8c.3.8.5 1.7.5 2.6v.3c0 1-.2 1.9-.5 2.7c-.4.7-1 1.3-1.7 1.7c-.7.5-1.5.7-2.4.7c-.9 0-1.7-.2-2.4-.7c-.7-.4-1.2-1-1.6-1.7c-.4-.8-.6-1.7-.6-2.7v-.3zm1.7.3c0 1.2.2 2.1.8 2.8c.5.7 1.2 1 2.1 1c1 0 1.7-.3 2.2-1c.5-.7.8-1.6.8-2.8v-.3c0-1.1-.3-2-.8-2.7c-.5-.7-1.2-1-2.2-1c-.9 0-1.6.3-2.1 1c-.6.7-.8 1.6-.8 2.7v.3zm8.9-.3c0-.9.2-1.8.6-2.6c.4-.8.9-1.4 1.6-1.8c.7-.4 1.5-.6 2.4-.6c.9 0 1.7.2 2.4.6c.7.4 1.3 1 1.7 1.8c.3.8.5 1.7.5 2.6v.3c0 1-.2 1.9-.5 2.7c-.4.7-1 1.3-1.7 1.7c-.7.5-1.5.7-2.4.7c-.9 0-1.7-.2-2.4-.7c-.7-.4-1.2-1-1.6-1.7c-.4-.8-.6-1.7-.6-2.7v-.3zm1.7.3c0 1.2.2 2.1.8 2.8c.5.7 1.2 1 2.1 1c1 0 1.7-.3 2.2-1c.5-.7.8-1.6.8-2.8v-.3c0-1.1-.3-2-.8-2.7c-.5-.7-1.2-1-2.2-1c-.9 0-1.6.3-2.1 1c-.6.7-.8 1.6-.8 2.7v.3zm8.2-3.8v-1.2h2v-1c0-.6.1-1.2.3-1.7c.3-.5.6-.9 1.1-1.2c.4-.3 1-.5 1.7-.5c.4 0 .9.1 1.2.3v1.4c-.3-.2-.7-.3-1.1-.3c-.5 0-.9.1-1.2.5c-.3.3-.4.8-.4 1.5v1h2.3v1.2h-2.3v8.6h-1.6v-8.6h-2z" stroke="none" fill="#939598"/></g><g id="Polygon10896"><path d="m69 15.2V1.5h4.2c1.4 0 2.5.3 3.5.9c1 .6 1.8 1.4 2.3 2.4c.6 1 .8 2.1.8 3.4v.3c0 1.3-.2 2.4-.8 3.4c-.5 1-1.3 1.8-2.3 2.4c-1 .6-2.1.9-3.5.9H69zm4.2-1.4c.9 0 1.8-.2 2.5-.6c.8-.5 1.4-1.1 1.8-1.9c.4-.8.6-1.8.6-2.8v-.3c0-1.1-.2-2-.6-2.8c-.4-.8-1-1.4-1.8-1.9c-.7-.4-1.6-.6-2.5-.6c.01-.02-2.5 0-2.5 0v10.9s2.51.02 2.5 0zm8.4-2c0 1.2.3 2.1.9 2.7c.5.6 1.3 1 2.4 1c.7 0 1.4-.3 2-.7c.6-.4 1.1-1 1.5-1.6c-.04.01.1 2 .1 2h1.4V5.4h-1.6s.04 5.76 0 5.8c-.1.5-.3 1-.7 1.4c-.3.5-.7.9-1.1 1.2c-.5.2-.9.4-1.4.4c-.7 0-1.1-.2-1.4-.6c-.3-.5-.5-1.1-.5-1.9c.03 0 0-6.3 0-6.3h-1.6s.05 6.43 0 6.4zm10.2.8c0-.7.2-1.2.6-1.7c.2-.4.7-.7 1.2-.9c.6-.3 1.4-.5 2.4-.7l2.4-.4c0-.9-.2-1.5-.7-1.9c-.4-.5-1-.7-1.9-.7c-.6 0-1.2.2-1.8.5c-.5.3-1 .6-1.4 1.1V6.4c.4-.4.9-.7 1.4-.9c.6-.3 1.3-.4 2-.4c1.2 0 2.2.3 2.9.9c.7.7 1.1 1.6 1.1 2.9v6.3h-1.3s-.24-1.52-.2-1.5c-.5.5-1 1-1.7 1.3c-.6.3-1.2.5-2 .5c-.9 0-1.6-.3-2.2-.8c-.5-.5-.8-1.2-.8-2.1zm1.6-.1c0 .6.2 1 .5 1.2c.3.3.7.5 1.2.5c.6 0 1.3-.2 1.9-.6c.6-.4 1.1-.9 1.4-1.6c.02.01 0-1.9 0-1.9c0 0-1.61.32-1.6.3c-.9.2-1.6.3-2 .5c-.5.1-.8.3-1.1.6c-.2.3-.3.6-.3 1zm10.6 2.7h-1.5V1.4h1.5v13.8z" stroke="none" fill="#939598"/></g></svg>