<?xml version="1.0" standalone="no"?><!DOCTYPE svg PUBLIC "-//W3C//DTD SVG 1.1//EN" "http://www.w3.org/Graphics/SVG/1.1/DTD/svg11.dtd"><svg xmlns="http://www.w3.org/2000/svg" version="1.1" width="575px" height="230.7px" viewBox="0 -5 575 230.7" style="top:-5px"><desc>텍스트 B</desc><defs/><g id="Polygon10045"><path d="m2.7 156.4H.3V155h2.4v-3.4h1.8v3.4h2.4v1.4H4.5v9.5H2.7v-9.5zm5.7 9.5v-15.3h1.8s-.02 6.52 0 6.5c.4-.7.9-1.2 1.6-1.7c.7-.5 1.4-.7 2.2-.7c1.2 0 2.1.3 2.7 1c.6.7.9 1.7.9 3c.02 0 0 7.2 0 7.2h-1.7s-.04-7.06 0-7.1c0-.9-.2-1.6-.5-2c-.3-.5-.9-.7-1.6-.7c-.5 0-1 .1-1.5.4c-.5.3-1 .8-1.3 1.3c-.4.5-.7 1-.8 1.6c-.02-.02 0 6.5 0 6.5H8.4zm11.1-5.7c0-1.1.2-2 .6-2.9c.4-.8 1-1.5 1.7-1.9c.8-.5 1.6-.7 2.6-.7c1.5 0 2.6.4 3.4 1.4c.9 1 1.3 2.4 1.3 4.2v.7h-7.8c0 1.1.4 2 .9 2.7c.6.7 1.4 1.1 2.4 1.1c1.6 0 2.8-.6 3.9-1.7v1.8c-.5.4-1 .7-1.7.9c-.6.3-1.3.4-2.2.4c-1 0-2-.3-2.7-.7c-.8-.5-1.4-1.1-1.8-2c-.4-.8-.6-1.8-.6-2.9v-.4zm7.8-.6c0-1.2-.2-2-.8-2.6c-.5-.6-1.2-.9-2.1-.9c-.5 0-1.1.1-1.5.4c-.5.3-.8.7-1.1 1.2c-.3.6-.5 1.2-.5 1.9h6zm5.7-6.4h-1.8v-2.3h1.8v2.3zm0 12.7h-1.8V155h1.8v10.9zm2.9 0V155h1.6s.08 1.86.1 1.9c.3-.7.7-1.3 1.3-1.7c.5-.3 1.2-.5 1.9-.5h.6c.2 0 .4.1.5.1v1.6c-.3-.1-.7-.2-1.2-.2c-.7 0-1.3.2-1.9.7c-.5.5-.9 1.1-1.2 1.9c.02-.02 0 7.1 0 7.1h-1.7zm12.3-2.8c.9 1.1 2 1.7 3.4 1.7c.8 0 1.3-.2 1.7-.5c.5-.3.7-.7.7-1.2c0-.4-.1-.7-.4-1c-.2-.3-.6-.5-1.2-.8l-1.5-.6c-.9-.4-1.6-.8-2-1.3c-.4-.5-.6-1.1-.6-1.8c0-.5.1-1 .4-1.5c.3-.4.7-.8 1.2-1c.6-.3 1.3-.4 2.1-.4c.6 0 1.2.1 1.8.3c.6.3 1.1.6 1.5.9v1.9c-.5-.6-1-1-1.6-1.3c-.6-.3-1.2-.4-1.7-.4c-.7 0-1.2.1-1.5.4c-.3.3-.5.6-.5 1c0 .4.1.7.4.9c.2.2.7.5 1.3.7l1.4.6c.9.4 1.6.8 2 1.3c.4.6.6 1.2.6 2c0 .9-.3 1.7-1.1 2.3c-.8.6-1.8.9-3 .9c-.7 0-1.4-.1-2-.4c-.6-.2-1.1-.5-1.4-.8v-1.9zm10.7-6.7h-2.4V155h2.4v-3.4h1.8v3.4h2.4v1.4h-2.4v9.5h-1.8v-9.5zm5 6.6c0-.7.2-1.4.6-1.9c.3-.4.8-.8 1.4-1c.6-.3 1.5-.5 2.6-.7l2.7-.5c0-1-.3-1.7-.8-2.2c-.4-.4-1.1-.7-2.1-.7c-.7 0-1.4.2-2 .5c-.6.3-1.1.8-1.6 1.3v-1.7c.5-.4 1-.8 1.6-1c.7-.3 1.4-.4 2.2-.4c1.3 0 2.4.3 3.2 1c.8.7 1.2 1.8 1.2 3.1c.04.04 0 7.1 0 7.1h-1.3s-.36-1.7-.4-1.7c-.5.6-1.1 1.1-1.8 1.5c-.6.3-1.4.5-2.2.5c-1 0-1.8-.3-2.4-.9c-.6-.5-.9-1.3-.9-2.3zm1.7-.1c0 .6.2 1.1.6 1.4c.3.3.8.4 1.3.4c.7 0 1.4-.2 2.1-.6c.7-.4 1.2-1 1.6-1.8v-2.1s-1.82.38-1.8.4c-1 .2-1.8.3-2.3.5c-.5.1-.9.4-1.1.7c-.2.3-.4.7-.4 1.1zm10.1 3V155h1.6l.1 1.9c.3-.7.7-1.3 1.3-1.7c.5-.3 1.2-.5 2-.5h.5c.2 0 .4.1.5.1v1.6c-.3-.1-.7-.2-1.1-.2c-.7 0-1.4.2-1.9.7c-.6.5-1 1.1-1.3 1.9c.04-.02 0 7.1 0 7.1h-1.7zm7.5 0V155h1.6s.14 1.86.1 1.9c.3-.7.8-1.3 1.3-1.7c.6-.3 1.2-.5 2-.5h.6c.2 0 .3.1.4.1v1.6c-.3-.1-.6-.2-1.1-.2c-.7 0-1.3.2-1.9.7c-.6.5-1 1.1-1.2 1.9c-.02-.02 0 7.1 0 7.1h-1.8zm11-.1L89.9 155h1.9l3.3 8.7l3.4-8.7h1.8l-6.1 15.3h-1.9l1.9-4.5zm14.7.1h-1.8v-15.3h1.8v15.3zm2.1-5.6c0-1.1.2-2.1.6-3c.4-.8 1-1.5 1.8-1.9c.8-.5 1.7-.7 2.7-.7c1 0 1.9.2 2.6.7c.8.4 1.4 1.1 1.8 1.9c.5.9.7 1.9.7 3v.3c0 1.1-.2 2.1-.7 2.9c-.4.9-1 1.5-1.8 2c-.7.4-1.6.7-2.6.7c-1 0-1.9-.3-2.7-.7c-.8-.5-1.4-1.1-1.8-2c-.4-.8-.6-1.8-.6-2.9v-.3zm1.8.3c0 1.3.3 2.3.9 3c.6.8 1.4 1.2 2.4 1.2c1 0 1.8-.4 2.4-1.2c.6-.7.9-1.7.9-3v-.3c0-1.3-.3-2.3-.9-3.1c-.6-.8-1.4-1.1-2.4-1.1c-1 0-1.8.3-2.4 1.1c-.6.8-.9 1.8-.9 3.1v.3zm9.9-.3c0-1.1.3-2.1.7-3c.4-.8 1-1.5 1.8-1.9c.8-.5 1.7-.7 2.7-.7c1 0 1.8.2 2.6.7c.8.4 1.4 1.1 1.8 1.9c.5.9.7 1.9.7 3v.3c0 1.1-.2 2.1-.7 2.9c-.4.9-1 1.5-1.8 2c-.8.4-1.6.7-2.6.7c-1 0-1.9-.3-2.7-.7c-.8-.5-1.4-1.1-1.8-2c-.4-.8-.7-1.8-.7-2.9v-.3zm1.9.3c0 1.3.3 2.3.9 3c.5.8 1.3 1.2 2.4 1.2c1 0 1.8-.4 2.4-1.2c.6-.7.9-1.7.9-3v-.3c0-1.3-.3-2.3-.9-3.1c-.6-.8-1.4-1.1-2.4-1.1c-1.1 0-1.9.3-2.4 1.1c-.6.8-.9 1.8-.9 3.1v.3zm12.3 5.3h-1.8v-15.3h1.8v9.2l5-4.8h2.2l-5.5 5.3l5.9 5.6h-2.4l-5.2-5v5zm13.5-2.9c0-.7.2-1.4.6-1.9c.4-.4.8-.8 1.5-1c.6-.3 1.4-.5 2.5-.7l2.8-.5c-.1-1-.3-1.7-.8-2.2c-.4-.4-1.2-.7-2.1-.7c-.7 0-1.4.2-2 .5c-.6.3-1.2.8-1.6 1.3v-1.7c.4-.4 1-.8 1.6-1c.7-.3 1.4-.4 2.1-.4c1.4 0 2.5.3 3.3 1c.8.7 1.2 1.8 1.2 3.1c.02.04 0 7.1 0 7.1h-1.4s-.28-1.7-.3-1.7c-.5.6-1.1 1.1-1.8 1.5c-.7.3-1.4.5-2.2.5c-1 0-1.8-.3-2.5-.9c-.6-.5-.9-1.3-.9-2.3zm1.8-.1c0 .6.2 1.1.5 1.4c.4.3.8.4 1.4.4c.7 0 1.4-.2 2.1-.6c.7-.4 1.2-1 1.6-1.8c-.02.04 0-2.1 0-2.1c0 0-1.84.38-1.8.4c-1 .2-1.8.3-2.3.5c-.5.1-.9.4-1.1.7c-.3.3-.4.7-.4 1.1zm10.1 3V155h1.6l.1 2.2c.4-.7.9-1.3 1.6-1.8c.7-.5 1.4-.7 2.3-.7c1.1 0 2 .3 2.6 1c.7.7 1 1.7 1 3c-.02 0 0 7.2 0 7.2h-1.8v-7.1c0-.9-.2-1.6-.5-2c-.3-.5-.8-.7-1.6-.7c-.5 0-1 .1-1.5.4c-.5.4-.9.8-1.3 1.3c-.4.5-.6 1.1-.8 1.6c.02.04 0 6.5 0 6.5h-1.7zm11.1-5.5c0-1.1.2-2.2.6-3c.4-.9 1-1.6 1.7-2c.7-.5 1.6-.7 2.5-.7c.7 0 1.3.1 1.9.5c.6.3 1.2.8 1.6 1.4c-.04-.02 0-6 0-6h1.7v15.3h-1.6s-.12-1.72-.1-1.7c-.4.6-.9 1.1-1.5 1.4c-.7.4-1.3.6-2 .6c-.9 0-1.8-.3-2.5-.7c-.7-.5-1.3-1.2-1.7-2.1c-.4-.8-.6-1.8-.6-3zm1.8 0c0 .9.1 1.7.4 2.3c.3.7.7 1.2 1.2 1.5c.5.4 1 .6 1.6.6c.7 0 1.4-.3 1.9-.8c.6-.5 1.1-1.1 1.4-1.8v-3.6c-.3-.7-.8-1.3-1.4-1.8c-.5-.5-1.2-.7-1.8-.7c-.7 0-1.2.1-1.7.5c-.5.3-.9.8-1.2 1.5c-.3.7-.4 1.4-.4 2.3zm19.2 5.5l-4.2-10.9h1.9l3.3 9l3.4-9h1.7l-4.1 10.9h-2zm6.9-5.7c0-1.1.2-2 .6-2.9c.4-.8 1-1.5 1.7-1.9c.8-.5 1.6-.7 2.6-.7c1.4 0 2.6.4 3.4 1.4c.9 1 1.3 2.4 1.3 4.2c-.02-.02 0 .7 0 .7H203c.1 1.1.4 2 1 2.7c.6.7 1.4 1.1 2.4 1.1c1.5 0 2.8-.6 3.9-1.7v1.8c-.5.4-1.1.7-1.7.9c-.6.3-1.3.4-2.2.4c-1.1 0-2-.3-2.8-.7c-.7-.5-1.3-1.1-1.7-2c-.4-.8-.6-1.8-.6-2.9v-.4zm7.8-.6c0-1.2-.3-2-.8-2.6c-.5-.6-1.2-.9-2.1-.9c-.6 0-1.1.1-1.5.4c-.5.3-.9.7-1.2 1.2c-.2.6-.4 1.2-.4 1.9h6zm3.9 6.3V155h1.6s.12 1.86.1 1.9c.3-.7.8-1.3 1.3-1.7c.6-.3 1.2-.5 2-.5h.6c.2 0 .3.1.4.1v1.6c-.3-.1-.7-.2-1.1-.2c-.7 0-1.3.2-1.9.7c-.6.5-1 1.1-1.2 1.9c-.04-.02 0 7.1 0 7.1H213zm9.2-9.5h-2.4V155h2.4v-3.4h1.8v3.4h2.4v1.4H224v9.5h-1.8v-9.5zm7.5-3.2h-1.8v-2.3h1.8v2.3zm0 12.7h-1.8V155h1.8v10.9zm2.1-5.7c0-1.1.2-2 .7-2.9c.4-.8 1-1.5 1.9-1.9c.8-.5 1.7-.7 2.7-.7c.6 0 1.2.1 1.8.3c.6.2 1 .5 1.4.9v1.8c-.4-.5-.9-.9-1.4-1.2c-.6-.3-1.2-.4-1.8-.4c-.6 0-1.2.2-1.8.5c-.5.3-.9.8-1.2 1.5c-.3.6-.5 1.3-.5 2.1v.4c0 .8.2 1.5.5 2.1c.3.7.7 1.2 1.3 1.5c.5.4 1.1.5 1.7.5c1.3 0 2.3-.5 3.2-1.6v1.9c-.4.3-.9.6-1.4.8c-.6.3-1.2.4-1.8.4c-1 0-1.9-.3-2.7-.8c-.9-.4-1.5-1.1-1.9-2c-.5-.8-.7-1.8-.7-2.8v-.4zm10 2.8c0-.7.2-1.4.6-1.9c.3-.4.7-.8 1.4-1c.6-.3 1.5-.5 2.6-.7l2.7-.5c-.1-1-.3-1.7-.8-2.2c-.4-.4-1.2-.7-2.1-.7c-.7 0-1.4.2-2 .5c-.6.3-1.1.8-1.6 1.3v-1.7c.4-.4 1-.8 1.6-1c.7-.3 1.4-.4 2.2-.4c1.3 0 2.4.3 3.2 1c.8.7 1.2 1.8 1.2 3.1c.04.04 0 7.1 0 7.1h-1.3s-.36-1.7-.4-1.7c-.5.6-1.1 1.1-1.8 1.5c-.6.3-1.4.5-2.2.5c-1 0-1.8-.3-2.4-.9c-.6-.5-.9-1.3-.9-2.3zm1.7-.1c0 .6.2 1.1.6 1.4c.3.3.8.4 1.3.4c.7 0 1.4-.2 2.1-.6c.7-.4 1.2-1 1.6-1.8v-2.1s-1.82.38-1.8.4c-1 .2-1.8.3-2.3.5c-.5.1-.9.4-1.1.7c-.2.3-.4.7-.4 1.1zm11.8 3h-1.7v-15.3h1.7v15.3zm7.3-2.9c0-.7.2-1.4.6-1.9c.4-.4.8-.8 1.5-1c.6-.3 1.4-.5 2.5-.7l2.8-.5c-.1-1-.3-1.7-.8-2.2c-.5-.4-1.2-.7-2.1-.7c-.7 0-1.4.2-2 .5c-.6.3-1.2.8-1.6 1.3v-1.7c.4-.4 1-.8 1.6-1c.7-.3 1.4-.4 2.1-.4c1.4 0 2.5.3 3.3 1c.8.7 1.2 1.8 1.2 3.1c.02.04 0 7.1 0 7.1h-1.4s-.28-1.7-.3-1.7c-.5.6-1.1 1.1-1.8 1.5c-.7.3-1.4.5-2.2.5c-1 0-1.8-.3-2.5-.9c-.6-.5-.9-1.3-.9-2.3zm1.8-.1c0 .6.2 1.1.5 1.4c.4.3.8.4 1.4.4c.7 0 1.4-.2 2.1-.6c.7-.4 1.2-1 1.6-1.8c-.02.04 0-2.1 0-2.1c0 0-1.84.38-1.8.4c-1 .2-1.8.3-2.3.5c-.5.1-.9.4-1.1.7c-.3.3-.4.7-.4 1.1zm10.1 3V155h1.6s.08 1.86.1 1.9c.3-.7.7-1.3 1.3-1.7c.5-.3 1.2-.5 1.9-.5h.6c.2 0 .4.1.5.1v1.6c-.3-.1-.7-.2-1.2-.2c-.7 0-1.3.2-1.9.7c-.5.5-.9 1.1-1.2 1.9c.02-.02 0 7.1 0 7.1h-1.7zm7.5 0V155h1.6s.12 1.86.1 1.9c.3-.7.8-1.3 1.3-1.7c.6-.3 1.2-.5 2-.5h.6c.2 0 .3.1.4.1v1.6c-.3-.1-.7-.2-1.1-.2c-.7 0-1.4.2-1.9.7c-.6.5-1 1.1-1.2 1.9c-.04-.02 0 7.1 0 7.1H282zm6.8-2.9c0-.7.2-1.4.6-1.9c.3-.4.7-.8 1.4-1c.6-.3 1.5-.5 2.6-.7l2.7-.5c-.1-1-.3-1.7-.8-2.2c-.4-.4-1.2-.7-2.1-.7c-.7 0-1.4.2-2 .5c-.6.3-1.1.8-1.6 1.3v-1.7c.4-.4 1-.8 1.6-1c.7-.3 1.4-.4 2.2-.4c1.3 0 2.4.3 3.2 1c.8.7 1.2 1.8 1.2 3.1c.04.04 0 7.1 0 7.1h-1.3s-.36-1.7-.4-1.7c-.5.6-1.1 1.1-1.8 1.5c-.6.3-1.4.5-2.2.5c-1 0-1.8-.3-2.4-.9c-.6-.5-.9-1.3-.9-2.3zm1.7-.1c0 .6.2 1.1.6 1.4c.3.3.8.4 1.3.4c.7 0 1.4-.2 2.1-.6c.7-.4 1.2-1 1.6-1.8v-2.1s-1.82.38-1.8.4c-1 .2-1.8.3-2.3.5c-.5.1-.9.4-1.1.7c-.2.3-.4.7-.4 1.1zm10.1 3V155h1.6s.12 2.16.1 2.2c.4-.7 1-1.3 1.6-1.8c.7-.5 1.5-.7 2.3-.7c1.2 0 2 .3 2.7 1c.6.7.9 1.7.9 3v7.2H308s.02-7.06 0-7.1c0-.9-.1-1.6-.5-2c-.3-.5-.8-.7-1.6-.7c-.5 0-1 .1-1.5.4c-.5.4-.9.8-1.3 1.3c-.4.5-.6 1.1-.8 1.6c.04.04 0 6.5 0 6.5h-1.7zm11.1-5.8c0-1.1.2-2 .6-2.9c.4-.8.9-1.4 1.7-1.9c.7-.4 1.5-.6 2.4-.6c.7 0 1.4.1 2 .5c.6.4 1.1.8 1.5 1.4l.1-1.6h1.6s.04 10.48 0 10.5c0 1-.2 1.9-.6 2.6c-.4.8-1.1 1.3-1.9 1.8c-.8.4-1.8.6-2.9.6c-.7 0-1.4-.1-1.9-.3c-.6-.1-1.1-.4-1.6-.7v-1.8c1 .9 2.2 1.3 3.5 1.3c1.1 0 2-.3 2.7-.9c.6-.6 1-1.5 1-2.6v-1.7c-.4.5-.9 1-1.5 1.3c-.6.4-1.3.5-2 .5c-.9 0-1.7-.2-2.4-.6c-.8-.5-1.3-1.1-1.7-1.9c-.4-.9-.6-1.8-.6-3zm1.8 0c0 .9.2 1.6.4 2.2c.3.6.7 1.1 1.2 1.4c.5.4 1 .5 1.6.5c.7 0 1.3-.2 1.9-.7c.6-.5 1-1.1 1.3-1.8v-3.1c-.3-.7-.7-1.3-1.3-1.8c-.6-.5-1.2-.7-1.9-.7c-.6 0-1.1.1-1.6.4c-.5.4-.9.8-1.2 1.5c-.2.6-.4 1.3-.4 2.1zm10.2.1c0-1.1.2-2 .6-2.9c.4-.8 1-1.5 1.8-1.9c.7-.5 1.6-.7 2.5-.7c1.5 0 2.6.4 3.5 1.4c.8 1 1.2 2.4 1.2 4.2c.02-.02 0 .7 0 .7h-7.8c0 1.1.4 2 1 2.7c.5.7 1.3 1.1 2.3 1.1c1.6 0 2.9-.6 3.9-1.7v1.8c-.5.4-1 .7-1.6.9c-.7.3-1.4.4-2.3.4c-1 0-1.9-.3-2.7-.7c-.8-.5-1.4-1.1-1.8-2c-.4-.8-.6-1.8-.6-2.9v-.4zm7.9-.6c-.1-1.2-.3-2-.9-2.6c-.5-.6-1.2-.9-2.1-.9c-.5 0-1 .1-1.5.4c-.5.3-.8.7-1.1 1.2c-.3.6-.5 1.2-.5 1.9h6.1zm3.8 6.3V155h1.6s.14 1.94.1 1.9c.4-.6 1-1.2 1.5-1.6c.6-.4 1.3-.6 2.1-.6c.8 0 1.4.2 2 .6c.5.4.9 1 1.1 1.8c.4-.8.9-1.4 1.5-1.8c.7-.4 1.4-.6 2.2-.6c1 0 1.8.3 2.4.9c.5.7.8 1.6.8 2.9c.04-.04 0 7.4 0 7.4H349s-.02-7.3 0-7.3c0-.9-.2-1.5-.5-1.9c-.2-.4-.7-.6-1.4-.6c-.4 0-.8.1-1.2.4c-.5.2-.9.6-1.2 1c-.4.5-.6 1-.7 1.5c-.04-.02 0 6.9 0 6.9h-1.8v-7.3c0-.9-.1-1.5-.4-1.9c-.3-.4-.8-.6-1.4-.6c-.4 0-.9.1-1.3.4c-.4.2-.8.6-1.2 1c-.3.5-.5 1-.7 1.5v6.9h-1.8zm17.2-5.7c0-1.1.2-2 .6-2.9c.4-.8 1-1.5 1.8-1.9c.7-.5 1.6-.7 2.5-.7c1.5 0 2.6.4 3.5 1.4c.8 1 1.2 2.4 1.2 4.2v.7h-7.8c0 1.1.4 2 1 2.7c.5.7 1.3 1.1 2.3 1.1c1.6 0 2.9-.6 3.9-1.7v1.8c-.5.4-1 .7-1.6.9c-.7.3-1.4.4-2.3.4c-1 0-1.9-.3-2.7-.7c-.8-.5-1.4-1.1-1.8-2c-.4-.8-.6-1.8-.6-2.9v-.4zm7.9-.6c-.1-1.2-.3-2-.9-2.6c-.5-.6-1.2-.9-2.1-.9c-.5 0-1 .1-1.5.4c-.5.3-.8.7-1.1 1.2c-.3.6-.5 1.2-.5 1.9h6.1zm3.8 6.3V155h1.6s.17 2.16.2 2.2c.4-.7.9-1.3 1.6-1.8c.7-.5 1.4-.7 2.3-.7c1.1 0 2 .3 2.6 1c.6.7 1 1.7 1 3c-.05 0 0 7.2 0 7.2h-1.8s-.03-7.06 0-7.1c0-.9-.2-1.6-.5-2c-.3-.5-.9-.7-1.6-.7c-.5 0-1 .1-1.5.4c-.5.4-.9.8-1.3 1.3c-.4.5-.7 1.1-.8 1.6v6.5h-1.8zm13-9.5h-2.4V155h2.4v-3.4h1.7v3.4h2.5v1.4H379v9.5h-1.7v-9.5zm7.6 9.5h-2.3v-2.6h2.3v2.6z" stroke="none" fill="#000"/></g><g id="Polygon10044"><path d="m1.7 131.9v-15.2s4.7-.02 4.7 0c1.5 0 2.7.3 3.8.9c1.2.7 2 1.6 2.6 2.7c.6 1.1.9 2.4.9 3.8v.3c0 1.4-.3 2.7-.9 3.8c-.6 1.2-1.4 2-2.6 2.7c-1.1.7-2.3 1-3.8 1c0-.02-4.7 0-4.7 0zm4.7-1.5c1 0 1.9-.3 2.8-.8c.8-.5 1.4-1.2 1.9-2.1c.5-.9.7-1.9.7-3.1v-.3c0-1.2-.2-2.2-.7-3.1c-.5-.9-1.1-1.6-1.9-2.1c-.9-.5-1.8-.7-2.8-.7H3.6v12.2s2.76-.04 2.8 0zm12.8 1.4L14.9 121h1.9l3.4 8.7l3.3-8.7h1.8l-6.1 15.3h-1.8l1.8-4.5zm7.7.1V121h1.6s.18 2.16.2 2.2c.4-.7.9-1.3 1.6-1.8c.7-.5 1.4-.7 2.3-.7c1.1 0 2 .3 2.6 1c.6.7 1 1.7 1 3c-.04 0 0 7.2 0 7.2h-1.8s-.02-7.06 0-7.1c0-.9-.2-1.6-.5-2c-.3-.5-.9-.7-1.6-.7c-.5 0-1 .1-1.5.4c-.5.4-.9.8-1.3 1.3c-.4.5-.7 1.1-.8 1.6v6.5h-1.8zM38 129c0-.7.2-1.4.6-1.9c.4-.4.8-.8 1.5-1c.6-.3 1.4-.5 2.5-.7l2.8-.5c-.1-1-.3-1.7-.8-2.2c-.4-.4-1.2-.7-2.1-.7c-.7 0-1.4.2-2 .5c-.6.3-1.2.8-1.6 1.3v-1.7c.4-.4 1-.8 1.6-1c.7-.3 1.4-.4 2.1-.4c1.4 0 2.5.3 3.3 1c.8.7 1.2 1.8 1.2 3.1c.02.04 0 7.1 0 7.1h-1.4s-.28-1.7-.3-1.7c-.5.6-1.1 1.1-1.8 1.5c-.7.3-1.4.5-2.2.5c-1 0-1.8-.3-2.5-.9c-.6-.5-.9-1.3-.9-2.3zm1.8-.1c0 .6.2 1.1.5 1.4c.4.3.8.4 1.4.4c.7 0 1.4-.2 2.1-.6c.7-.4 1.2-1 1.6-1.8c-.02.04 0-2.1 0-2.1c0 0-1.84.38-1.8.4c-1 .2-1.8.3-2.3.5c-.5.1-.9.4-1.1.7c-.3.3-.4.7-.4 1.1zm10.1 3V121h1.5s.16 1.94.2 1.9c.4-.6.9-1.2 1.5-1.6c.6-.4 1.3-.6 2-.6c.8 0 1.5.2 2 .6c.5.4.9 1 1.1 1.8c.4-.8.9-1.4 1.6-1.8c.6-.4 1.3-.6 2.1-.6c1 0 1.8.3 2.4.9c.6.7.9 1.6.9 2.9c-.04-.04 0 7.4 0 7.4h-1.8v-7.3c0-.9-.1-1.5-.4-1.9c-.3-.4-.8-.6-1.4-.6c-.5 0-.9.1-1.3.4c-.5.2-.9.6-1.2 1c-.3.5-.6 1-.7 1.5c-.02-.02 0 6.9 0 6.9h-1.8s.02-7.34 0-7.3c0-.9-.1-1.5-.4-1.9c-.3-.4-.8-.6-1.4-.6c-.4 0-.8.1-1.3.4c-.4.2-.8.6-1.1 1c-.4.5-.6 1-.8 1.5c.02-.02 0 6.9 0 6.9h-1.7zm19.7-12.7h-1.8v-2.3h1.8v2.3zm0 12.7h-1.8V121h1.8v10.9zm2.1-5.7c0-1.1.2-2 .7-2.9c.4-.8 1.1-1.5 1.9-1.9c.8-.5 1.7-.7 2.8-.7c.6 0 1.1.1 1.7.3c.6.2 1.1.5 1.5.9v1.8c-.5-.5-1-.9-1.5-1.2c-.5-.3-1.1-.4-1.8-.4c-.6 0-1.2.2-1.7.5c-.6.3-1 .8-1.3 1.5c-.3.6-.5 1.3-.5 2.1v.4c0 .8.2 1.5.5 2.1c.3.7.7 1.2 1.3 1.5c.5.4 1.1.5 1.7.5c1.3 0 2.4-.5 3.3-1.6v1.9c-.4.3-.9.6-1.5.8c-.6.3-1.2.4-1.8.4c-1 0-1.9-.3-2.7-.8c-.8-.4-1.5-1.1-1.9-2c-.5-.8-.7-1.8-.7-2.8v-.4zm16.6-9.5h-1.9l3.9 15.2h2.2l3.2-12.7l3.1 12.7h2.2l3.9-15.2h-1.7l-3.2 12.7l-3.1-12.7h-2.3l-3.1 12.8l-3.2-12.8zm16.7 9.5c0-1.1.2-2 .6-2.9c.4-.8 1-1.5 1.7-1.9c.8-.5 1.6-.7 2.6-.7c1.4 0 2.6.4 3.4 1.4c.9 1 1.3 2.4 1.3 4.2c-.02-.02 0 .7 0 .7h-7.9c.1 1.1.4 2 1 2.7c.6.7 1.4 1.1 2.4 1.1c1.5 0 2.8-.6 3.9-1.7v1.8c-.5.4-1.1.7-1.7.9c-.6.3-1.3.4-2.2.4c-1.1 0-2-.3-2.8-.7c-.7-.5-1.3-1.1-1.7-2c-.4-.8-.6-1.8-.6-2.9v-.4zm7.8-.6c0-1.2-.3-2-.8-2.6c-.5-.6-1.2-.9-2.1-.9c-.6 0-1.1.1-1.5.4c-.5.3-.9.7-1.2 1.2c-.2.6-.4 1.2-.4 1.9h6zm5.7 6.3h-1.8v-15.3h1.8v15.3zm2.1-5.7c0-1.1.2-2 .6-2.9c.5-.8 1.1-1.5 1.9-1.9c.9-.5 1.8-.7 2.8-.7c.6 0 1.2.1 1.8.3c.5.2 1 .5 1.4.9v1.8c-.4-.5-.9-.9-1.4-1.2c-.6-.3-1.2-.4-1.8-.4c-.7 0-1.2.2-1.8.5c-.5.3-.9.8-1.2 1.5c-.3.6-.5 1.3-.5 2.1v.4c0 .8.2 1.5.5 2.1c.3.7.7 1.2 1.2 1.5c.6.4 1.2.5 1.8.5c1.2 0 2.3-.5 3.2-1.6v1.9c-.4.3-.9.6-1.4.8c-.6.3-1.2.4-1.8.4c-1 0-1.9-.3-2.8-.8c-.8-.4-1.4-1.1-1.9-2c-.4-.8-.6-1.8-.6-2.8v-.4zm9.9.1c0-1.1.3-2.1.7-3c.4-.8 1-1.5 1.8-1.9c.8-.5 1.7-.7 2.7-.7c1 0 1.8.2 2.6.7c.8.4 1.4 1.1 1.8 1.9c.5.9.7 1.9.7 3v.3c0 1.1-.2 2.1-.7 2.9c-.4.9-1 1.5-1.8 2c-.8.4-1.6.7-2.6.7c-1 0-1.9-.3-2.7-.7c-.8-.5-1.4-1.1-1.8-2c-.4-.8-.7-1.8-.7-2.9v-.3zm1.9.3c0 1.3.3 2.3.9 3c.5.8 1.3 1.2 2.4 1.2c1 0 1.8-.4 2.4-1.2c.6-.7.9-1.7.9-3v-.3c0-1.3-.3-2.3-.9-3.1c-.6-.8-1.4-1.1-2.4-1.1c-1.1 0-1.9.3-2.4 1.1c-.6.8-.9 1.8-.9 3.1v.3zm10.5 5.3V121h1.6l.1 1.9c.4-.6.9-1.2 1.5-1.6c.6-.4 1.3-.6 2.1-.6c.8 0 1.4.2 1.9.6c.6.4.9 1 1.1 1.8c.5-.8 1-1.4 1.6-1.8c.6-.4 1.3-.6 2.1-.6c1 0 1.8.3 2.4.9c.6.7.9 1.6.9 2.9v7.4h-1.8s.04-7.3 0-7.3c0-.9-.1-1.5-.4-1.9c-.3-.4-.7-.6-1.4-.6c-.4 0-.8.1-1.3.4c-.4.2-.8.6-1.2 1c-.3.5-.5 1-.7 1.5c.02-.02 0 6.9 0 6.9h-1.7s-.04-7.34 0-7.3c0-.9-.2-1.5-.5-1.9c-.3-.4-.7-.6-1.4-.6c-.4 0-.8.1-1.2.4c-.5.2-.9.6-1.2 1c-.3.5-.6 1-.7 1.5c-.04-.02 0 6.9 0 6.9h-1.8zm17.2-5.7c0-1.1.2-2 .6-2.9c.4-.8 1-1.5 1.7-1.9c.8-.5 1.6-.7 2.6-.7c1.4 0 2.6.4 3.4 1.4c.9 1 1.3 2.4 1.3 4.2c-.02-.02 0 .7 0 .7h-7.9c.1 1.1.4 2 1 2.7c.6.7 1.4 1.1 2.4 1.1c1.5 0 2.8-.6 3.9-1.7v1.8c-.5.4-1.1.7-1.7.9c-.6.3-1.3.4-2.2.4c-1.1 0-2-.3-2.8-.7c-.7-.5-1.3-1.1-1.7-2c-.4-.8-.6-1.8-.6-2.9v-.4zm7.8-.6c0-1.2-.3-2-.8-2.6c-.5-.6-1.2-.9-2.1-.9c-.6 0-1.1.1-1.5.4c-.5.3-.9.7-1.2 1.2c-.2.6-.4 1.2-.4 1.9h6zm18.1 6.3h-8.9v-15.2h1.9v13.6h7v1.6zm3.6-12.7h-1.7v-2.3h1.7v2.3zm0 12.7h-1.7V121h1.7v10.9zm2.1-5.8c0-1.1.2-2 .6-2.9c.4-.8 1-1.4 1.7-1.9c.7-.4 1.5-.6 2.5-.6c.7 0 1.3.1 1.9.5c.7.4 1.2.8 1.5 1.4c.04.02.2-1.6.2-1.6h1.6s-.02 10.48 0 10.5c0 1-.2 1.9-.7 2.6c-.4.8-1 1.3-1.8 1.8c-.9.4-1.8.6-2.9.6c-.8 0-1.4-.1-2-.3c-.6-.1-1.1-.4-1.6-.7v-1.8c1.1.9 2.2 1.3 3.6 1.3c1.1 0 2-.3 2.6-.9c.7-.6 1-1.5 1-2.6v-1.7c-.4.5-.9 1-1.5 1.3c-.6.4-1.2.5-1.9.5c-1 0-1.8-.2-2.5-.6c-.7-.5-1.3-1.1-1.7-1.9c-.4-.9-.6-1.8-.6-3zm1.9 0c0 .9.1 1.6.4 2.2c.3.6.7 1.1 1.1 1.4c.5.4 1.1.5 1.7.5c.6 0 1.2-.2 1.8-.7c.6-.5 1-1.1 1.3-1.8v-3.1c-.3-.7-.7-1.3-1.3-1.8c-.6-.5-1.2-.7-1.9-.7c-.5 0-1.1.1-1.6.4c-.5.4-.8.8-1.1 1.5c-.3.6-.4 1.3-.4 2.1zm11 5.8v-15.3h1.7s.02 6.52 0 6.5c.4-.7 1-1.2 1.6-1.7c.7-.5 1.5-.7 2.3-.7c1.1 0 2 .3 2.6 1c.7.7 1 1.7 1 3c-.04 0 0 7.2 0 7.2H212v-7.1c0-.9-.2-1.6-.5-2c-.3-.5-.8-.7-1.6-.7c-.5 0-1 .1-1.5.4c-.5.3-.9.8-1.3 1.3c-.4.5-.6 1-.8 1.6c.02-.02 0 6.5 0 6.5h-1.7zm12.9-9.5h-2.4V121h2.4v-3.4h1.8v3.4h2.4v1.4h-2.4v9.5h-1.8v-9.5zm6.2 11.9h-1.5l.9-5.1h2.3l-1.7 5.1zm11.1-15.1h-1.7v-2.3h1.7v2.3zm0 12.7h-1.7V121h1.7v10.9zm2.9 0V121h1.6l.1 1.9c.4-.6.9-1.2 1.5-1.6c.6-.4 1.3-.6 2.1-.6c.8 0 1.4.2 1.9.6c.6.4.9 1 1.1 1.8c.5-.8 1-1.4 1.6-1.8c.6-.4 1.3-.6 2.1-.6c1 0 1.8.3 2.4.9c.6.7.9 1.6.9 2.9v7.4h-1.8s.04-7.3 0-7.3c0-.9-.1-1.5-.4-1.9c-.3-.4-.7-.6-1.4-.6c-.4 0-.8.1-1.3.4c-.4.2-.8.6-1.2 1c-.3.5-.5 1-.7 1.5c.02-.02 0 6.9 0 6.9h-1.7s-.04-7.34 0-7.3c0-.9-.2-1.5-.5-1.9c-.3-.4-.7-.6-1.4-.6c-.4 0-.8.1-1.2.4c-.5.2-.9.6-1.2 1c-.3.5-.6 1-.7 1.5c-.04-.02 0 6.9 0 6.9h-1.8zm18 4.4V121h1.6s.12 1.72.1 1.7c.4-.6.9-1.1 1.5-1.5c.6-.4 1.3-.5 2.1-.5c.9 0 1.7.2 2.4.7c.7.4 1.3 1.1 1.7 2c.4.8.6 1.9.6 3c0 1.2-.2 2.2-.6 3c-.4.9-1 1.6-1.7 2.1c-.7.4-1.5.7-2.4.7c-.7 0-1.4-.2-2-.6c-.7-.3-1.2-.8-1.6-1.4c.04.04 0 6.1 0 6.1h-1.7zm1.7-8.1c.3.7.7 1.3 1.3 1.8c.6.5 1.3.8 2 .8c.6 0 1.1-.2 1.6-.6c.5-.3.9-.8 1.2-1.5c.3-.7.4-1.4.4-2.3c0-.9-.1-1.6-.4-2.3c-.3-.7-.7-1.2-1.2-1.5c-.5-.4-1-.5-1.6-.5c-.7 0-1.4.2-2 .7c-.6.5-1 1.1-1.3 1.9v3.5zm9.9-1.9c0-1.1.2-2.1.6-3c.5-.8 1.1-1.5 1.8-1.9c.8-.5 1.7-.7 2.7-.7c1 0 1.9.2 2.7.7c.7.4 1.3 1.1 1.8 1.9c.4.9.6 1.9.6 3v.3c0 1.1-.2 2.1-.6 2.9c-.5.9-1.1 1.5-1.8 2c-.8.4-1.7.7-2.7.7c-1 0-1.9-.3-2.7-.7c-.7-.5-1.3-1.1-1.8-2c-.4-.8-.6-1.8-.6-2.9v-.3zm1.8.3c0 1.3.3 2.3.9 3c.6.8 1.4 1.2 2.4 1.2c1 0 1.8-.4 2.4-1.2c.6-.7.9-1.7.9-3v-.3c0-1.3-.3-2.3-.9-3.1c-.6-.8-1.4-1.1-2.4-1.1c-1 0-1.8.3-2.4 1.1c-.6.8-.9 1.8-.9 3.1v.3zm10.1 2.5c.9 1.1 2 1.7 3.5 1.7c.7 0 1.3-.2 1.7-.5c.4-.3.6-.7.6-1.2c0-.4-.1-.7-.3-1c-.2-.3-.7-.5-1.3-.8l-1.5-.6c-.9-.4-1.5-.8-2-1.3c-.4-.5-.6-1.1-.6-1.8c0-.5.1-1 .4-1.5c.3-.4.7-.8 1.3-1c.5-.3 1.2-.4 2-.4c.7 0 1.3.1 1.9.3c.5.3 1 .6 1.4.9v1.9c-.5-.6-1-1-1.6-1.3c-.5-.3-1.1-.4-1.7-.4c-.7 0-1.1.1-1.5.4c-.3.3-.5.6-.5 1c0 .4.2.7.4.9c.3.2.7.5 1.3.7l1.5.6c.9.4 1.5.8 2 1.3c.4.6.6 1.2.6 2c0 .9-.4 1.7-1.2 2.3c-.7.6-1.7.9-2.9.9c-.8 0-1.5-.1-2.1-.4c-.5-.2-1-.5-1.4-.8v-1.9zm8.9-2.9c0-1.1.2-2 .6-2.9c.4-.8 1-1.5 1.7-1.9c.8-.5 1.6-.7 2.6-.7c1.5 0 2.6.4 3.4 1.4c.9 1 1.3 2.4 1.3 4.2v.7h-7.8c0 1.1.3 2 .9 2.7c.6.7 1.4 1.1 2.4 1.1c1.5 0 2.8-.6 3.9-1.7v1.8c-.5.4-1 .7-1.7.9c-.6.3-1.3.4-2.2.4c-1.1 0-2-.3-2.7-.7c-.8-.5-1.4-1.1-1.8-2c-.4-.8-.6-1.8-.6-2.9v-.4zm7.8-.6c0-1.2-.3-2-.8-2.6c-.5-.6-1.2-.9-2.1-.9c-.5 0-1.1.1-1.5.4c-.5.3-.8.7-1.1 1.2c-.3.6-.5 1.2-.5 1.9h6zm10.2-3.2h-2.4V121h2.4v-3.4h1.7v3.4h2.5v1.4h-2.5v9.5h-1.7v-9.5zm5.7 9.5v-15.3h1.8s-.04 6.52 0 6.5c.4-.7.9-1.2 1.6-1.7c.6-.5 1.4-.7 2.2-.7c1.2 0 2.1.3 2.7 1c.6.7.9 1.7.9 3v7.2h-1.8s.04-7.06 0-7.1c0-.9-.1-1.6-.4-2c-.4-.5-.9-.7-1.6-.7c-.5 0-1 .1-1.5.4c-.5.3-1 .8-1.4 1.3c-.3.5-.6 1-.7 1.6c-.04-.02 0 6.5 0 6.5h-1.8zm11.1-5.7c0-1.1.2-2 .6-2.9c.4-.8 1-1.5 1.7-1.9c.8-.5 1.6-.7 2.6-.7c1.4 0 2.6.4 3.4 1.4c.9 1 1.3 2.4 1.3 4.2c-.02-.02 0 .7 0 .7h-7.9c.1 1.1.4 2 1 2.7c.6.7 1.4 1.1 2.4 1.1c1.5 0 2.8-.6 3.9-1.7v1.8c-.5.4-1.1.7-1.7.9c-.6.3-1.3.4-2.2.4c-1.1 0-2-.3-2.8-.7c-.7-.5-1.3-1.1-1.7-2c-.4-.8-.6-1.8-.6-2.9v-.4zm7.8-.6c0-1.2-.3-2-.8-2.6c-.5-.6-1.2-.9-2.1-.9c-.6 0-1.1.1-1.5.4c-.5.3-.9.7-1.2 1.2c-.2.6-.4 1.2-.4 1.9h6zm7.7-3.2V121h2.2s.04-1.12 0-1.1c0-.7.2-1.3.4-1.9c.3-.5.7-1 1.2-1.3c.5-.4 1.1-.5 1.9-.5c.5 0 .9.1 1.3.3v1.5c-.3-.2-.7-.4-1.2-.4c-.6 0-1 .2-1.3.6c-.3.4-.5.9-.5 1.7c.02 0 0 1.1 0 1.1h2.6v1.4h-2.6v9.5h-1.8v-9.5h-2.2zm8.3 5.7c0 1.3.3 2.3 1 3c.6.7 1.4 1.1 2.6 1.1c.8 0 1.6-.3 2.3-.8c.7-.4 1.2-1 1.6-1.7l.1 2.2h1.7V121h-1.8s-.02 6.4 0 6.4c-.2.6-.4 1.1-.8 1.6c-.4.6-.8 1-1.3 1.3c-.5.3-1 .5-1.5.5c-.8 0-1.3-.3-1.6-.7c-.3-.5-.5-1.2-.5-2.1v-7h-1.8s.04 7.14 0 7.1zm13.2-5.7h-2.4V121h2.4v-3.4h1.7v3.4h2.5v1.4h-2.5v9.5h-1.7v-9.5zm5.5 5.7c0 1.3.3 2.3.9 3c.6.7 1.5 1.1 2.7 1.1c.8 0 1.6-.3 2.2-.8c.7-.4 1.3-1 1.7-1.7c-.04-.02.1 2.2.1 2.2h1.6V121h-1.8s.04 6.4 0 6.4c-.1.6-.4 1.1-.7 1.6c-.4.6-.9 1-1.4 1.3c-.5.3-1 .5-1.5.5c-.7 0-1.2-.3-1.6-.7c-.3-.5-.4-1.2-.4-2.1c-.04 0 0-7 0-7h-1.8v7.1zm12.1 3.8V121h1.6l.1 1.9c.3-.7.7-1.3 1.3-1.7c.5-.3 1.2-.5 2-.5h.5c.2 0 .4.1.5.1v1.6c-.3-.1-.7-.2-1.1-.2c-.7 0-1.4.2-1.9.7c-.6.5-1 1.1-1.3 1.9c.04-.02 0 7.1 0 7.1h-1.7zm9.3-12.7H385v-2.3h1.8v2.3zm0 12.7H385V121h1.8v10.9zm2.4-2.8c.9 1.1 2.1 1.7 3.5 1.7c.7 0 1.3-.2 1.7-.5c.4-.3.6-.7.6-1.2c0-.4-.1-.7-.3-1c-.2-.3-.6-.5-1.3-.8l-1.4-.6c-.9-.4-1.6-.8-2-1.3c-.5-.5-.7-1.1-.7-1.8c0-.5.2-1 .4-1.5c.3-.4.8-.8 1.3-1c.6-.3 1.2-.4 2-.4c.7 0 1.3.1 1.9.3c.6.3 1.1.6 1.5.9v1.9c-.5-.6-1.1-1-1.6-1.3c-.6-.3-1.2-.4-1.8-.4c-.6 0-1.1.1-1.5.4c-.3.3-.4.6-.4 1c0 .4.1.7.3.9c.3.2.7.5 1.4.7l1.4.6c.9.4 1.6.8 2 1.3c.4.6.6 1.2.6 2c0 .9-.4 1.7-1.2 2.3c-.7.6-1.7.9-2.9.9c-.8 0-1.4-.1-2-.4c-.6-.2-1.1-.5-1.5-.8v-1.9zm10.8-6.7h-2.4V121h2.4v-3.4h1.7v3.4h2.5v1.4h-2.5v9.5H400v-9.5zm7.5-3.2h-1.8v-2.3h1.8v2.3zm0 12.7h-1.8V121h1.8v10.9zm2.1-5.7c0-1.1.2-2 .6-2.9c.5-.8 1.1-1.5 1.9-1.9c.8-.5 1.8-.7 2.8-.7c.6 0 1.2.1 1.8.3c.5.2 1 .5 1.4.9v1.8c-.4-.5-.9-.9-1.4-1.2c-.6-.3-1.2-.4-1.8-.4c-.7 0-1.3.2-1.8.5c-.5.3-.9.8-1.2 1.5c-.4.6-.5 1.3-.5 2.1v.4c0 .8.2 1.5.5 2.1c.3.7.7 1.2 1.2 1.5c.6.4 1.2.5 1.8.5c1.2 0 2.3-.5 3.2-1.6v1.9c-.4.3-.9.6-1.4.8c-.6.3-1.2.4-1.8.4c-1 0-2-.3-2.8-.8c-.8-.4-1.4-1.1-1.9-2c-.4-.8-.6-1.8-.6-2.8v-.4zm17.7-7h-1.8v-2.3h1.8v2.3zm0 12.7h-1.8V121h1.8v10.9zm2.9 0V121h1.5s.16 1.94.2 1.9c.4-.6.9-1.2 1.5-1.6c.6-.4 1.2-.6 2-.6c.8 0 1.5.2 2 .6c.5.4.9 1 1.1 1.8c.4-.8.9-1.4 1.6-1.8c.6-.4 1.3-.6 2.1-.6c1 0 1.8.3 2.4.9c.6.7.9 1.6.9 2.9c-.04-.04 0 7.4 0 7.4h-1.8v-7.3c0-.9-.1-1.5-.4-1.9c-.3-.4-.8-.6-1.4-.6c-.5 0-.9.1-1.3.4c-.5.2-.9.6-1.2 1c-.3.5-.6 1-.7 1.5c-.02-.02 0 6.9 0 6.9h-1.8s.02-7.34 0-7.3c0-.9-.1-1.5-.4-1.9c-.3-.4-.8-.6-1.4-.6c-.4 0-.8.1-1.3.4c-.4.2-.8.6-1.1 1c-.4.5-.6 1-.8 1.5c.02-.02 0 6.9 0 6.9h-1.7zm17.2-2.9c0-.7.2-1.4.6-1.9c.3-.4.7-.8 1.4-1c.6-.3 1.5-.5 2.6-.7l2.7-.5c-.1-1-.3-1.7-.8-2.2c-.4-.4-1.2-.7-2.1-.7c-.7 0-1.4.2-2 .5c-.6.3-1.1.8-1.6 1.3v-1.7c.4-.4 1-.8 1.6-1c.7-.3 1.4-.4 2.2-.4c1.3 0 2.4.3 3.2 1c.8.7 1.2 1.8 1.2 3.1c.04.04 0 7.1 0 7.1h-1.3s-.36-1.7-.4-1.7c-.5.6-1.1 1.1-1.8 1.5c-.6.3-1.4.5-2.2.5c-1 0-1.8-.3-2.4-.9c-.6-.5-.9-1.3-.9-2.3zm1.7-.1c0 .6.2 1.1.6 1.4c.3.3.8.4 1.3.4c.7 0 1.4-.2 2.1-.6c.7-.4 1.2-1 1.6-1.8v-2.1s-1.82.38-1.8.4c-1 .2-1.8.3-2.3.5c-.5.1-.9.4-1.1.7c-.2.3-.4.7-.4 1.1zm9.3-2.8c0-1.1.2-2 .6-2.9c.4-.8 1-1.4 1.7-1.9c.7-.4 1.5-.6 2.5-.6c.7 0 1.3.1 1.9.5c.6.4 1.1.8 1.5 1.4c.01.02.2-1.6.2-1.6h1.6s-.05 10.48 0 10.5c0 1-.3 1.9-.7 2.6c-.4.8-1 1.3-1.9 1.8c-.8.4-1.7.6-2.9.6c-.7 0-1.3-.1-1.9-.3c-.6-.1-1.1-.4-1.6-.7v-1.8c1 .9 2.2 1.3 3.6 1.3c1.1 0 1.9-.3 2.6-.9c.7-.6 1-1.5 1-2.6v-1.7c-.4.5-.9 1-1.5 1.3c-.6.4-1.3.5-1.9.5c-1 0-1.8-.2-2.5-.6c-.7-.5-1.3-1.1-1.7-1.9c-.4-.9-.6-1.8-.6-3zm1.8 0c0 .9.2 1.6.5 2.2c.3.6.6 1.1 1.1 1.4c.5.4 1 .5 1.6.5c.7 0 1.3-.2 1.9-.7c.6-.5 1-1.1 1.3-1.8v-3.1c-.3-.7-.7-1.3-1.3-1.8c-.6-.5-1.2-.7-1.9-.7c-.6 0-1.1.1-1.6.4c-.5.4-.9.8-1.1 1.5c-.3.6-.5 1.3-.5 2.1zm10.2.1c0-1.1.2-2 .7-2.9c.4-.8.9-1.5 1.7-1.9c.7-.5 1.6-.7 2.5-.7c1.5 0 2.7.4 3.5 1.4c.8 1 1.2 2.4 1.2 4.2c.03-.02 0 .7 0 .7h-7.8c.1 1.1.4 2 1 2.7c.6.7 1.4 1.1 2.4 1.1c1.5 0 2.8-.6 3.8-1.7v1.8c-.5.4-1 .7-1.6.9c-.6.3-1.4.4-2.2.4c-1.1 0-2-.3-2.8-.7c-.8-.5-1.3-1.1-1.8-2c-.4-.8-.6-1.8-.6-2.9v-.4zm7.9-.6c0-1.2-.3-2-.8-2.6c-.6-.6-1.3-.9-2.1-.9c-.6 0-1.1.1-1.6.4c-.4.3-.8.7-1.1 1.2c-.3.6-.4 1.2-.5 1.9h6.1zm10.1-3.2H486V121h2.4v-3.4h1.8v3.4h2.4v1.4h-2.4v9.5h-1.8v-9.5zm5.7 9.5v-15.3h1.8v6.5c.4-.7.9-1.2 1.6-1.7c.7-.5 1.4-.7 2.3-.7c1.1 0 2 .3 2.6 1c.6.7.9 1.7.9 3c.03 0 0 7.2 0 7.2h-1.7s-.03-7.06 0-7.1c0-.9-.2-1.6-.5-2c-.3-.5-.9-.7-1.6-.7c-.5 0-1 .1-1.5.4c-.5.3-.9.8-1.3 1.3c-.4.5-.7 1-.8 1.6v6.5h-1.8zm11.9 0V121h1.6s.13 1.86.1 1.9c.3-.7.8-1.3 1.3-1.7c.6-.3 1.2-.5 2-.5h.6c.2 0 .3.1.4.1v1.6c-.3-.1-.7-.2-1.1-.2c-.7 0-1.3.2-1.9.7c-.6.5-1 1.1-1.2 1.9c-.03-.02 0 7.1 0 7.1H506zm6.8-5.6c0-1.1.2-2.1.6-3c.5-.8 1.1-1.5 1.8-1.9c.8-.5 1.7-.7 2.7-.7c1 0 1.9.2 2.7.7c.7.4 1.3 1.1 1.8 1.9c.4.9.6 1.9.6 3v.3c0 1.1-.2 2.1-.6 2.9c-.5.9-1.1 1.5-1.8 2c-.8.4-1.7.7-2.7.7c-1 0-1.9-.3-2.7-.7c-.7-.5-1.3-1.1-1.8-2c-.4-.8-.6-1.8-.6-2.9v-.3zm1.8.3c0 1.3.3 2.3.9 3c.6.8 1.4 1.2 2.4 1.2c1 0 1.8-.4 2.4-1.2c.6-.7.9-1.7.9-3v-.3c0-1.3-.3-2.3-.9-3.1c-.6-.8-1.4-1.1-2.4-1.1c-1 0-1.8.3-2.4 1.1c-.6.8-.9 1.8-.9 3.1v.3zm10.3 1.5c0 1.3.3 2.3 1 3c.6.7 1.4 1.1 2.6 1.1c.8 0 1.6-.3 2.3-.8c.7-.4 1.2-1 1.6-1.7l.1 2.2h1.7V121h-1.8s-.03 6.4 0 6.4c-.2.6-.4 1.1-.8 1.6c-.4.6-.8 1-1.3 1.3c-.5.3-1 .5-1.5.5c-.8 0-1.3-.3-1.6-.7c-.3-.5-.5-1.2-.5-2.1v-7h-1.8s.03 7.14 0 7.1zm11.3-2c0-1.1.2-2 .6-2.9c.4-.8 1-1.4 1.7-1.9c.7-.4 1.6-.6 2.5-.6c.7 0 1.4.1 2 .5c.6.4 1.1.8 1.5 1.4c-.05.02.1-1.6.1-1.6h1.6v10.5c0 1-.2 1.9-.6 2.6c-.5.8-1.1 1.3-1.9 1.8c-.8.4-1.8.6-2.9.6c-.8 0-1.4-.1-2-.3c-.5-.1-1.1-.4-1.5-.7v-1.8c1 .9 2.1 1.3 3.5 1.3c1.1 0 2-.3 2.6-.9c.7-.6 1-1.5 1-2.6v-1.7c-.4.5-.8 1-1.5 1.3c-.6.4-1.2.5-1.9.5c-.9 0-1.8-.2-2.5-.6c-.7-.5-1.3-1.1-1.7-1.9c-.4-.9-.6-1.8-.6-3zm1.9 0c0 .9.1 1.6.4 2.2c.3.6.7 1.1 1.2 1.4c.5.4 1 .5 1.6.5c.6 0 1.3-.2 1.8-.7c.6-.5 1.1-1.1 1.3-1.8v-3.1c-.2-.7-.7-1.3-1.3-1.8c-.6-.5-1.2-.7-1.8-.7c-.6 0-1.2.1-1.7.4c-.4.4-.8.8-1.1 1.5c-.3.6-.4 1.3-.4 2.1zm11 5.8v-15.3h1.7s.03 6.52 0 6.5c.4-.7 1-1.2 1.6-1.7c.7-.5 1.5-.7 2.3-.7c1.2 0 2 .3 2.7 1c.6.7.9 1.7.9 3c-.03 0 0 7.2 0 7.2h-1.8v-7.1c0-.9-.1-1.6-.5-2c-.3-.5-.8-.7-1.6-.7c-.5 0-1 .1-1.5.4c-.5.3-.9.8-1.3 1.3c-.4.5-.6 1-.8 1.6c.03-.02 0 6.5 0 6.5h-1.7z" stroke="none" fill="#000"/></g><g id="Polygon10043"><path d="m1.6 102.3V87h1.6s.18 1.72.2 1.7c.4-.6.9-1.1 1.5-1.5c.6-.4 1.3-.5 2-.5c.9 0 1.7.2 2.5.7c.7.4 1.3 1.1 1.7 2c.4.8.6 1.9.6 3c0 1.2-.2 2.2-.6 3c-.4.9-1 1.6-1.7 2.1c-.8.4-1.6.7-2.5.7c-.7 0-1.4-.2-2-.6c-.6-.3-1.1-.8-1.5-1.4v6.1H1.6zm1.8-8.1c.3.7.7 1.3 1.3 1.8c.6.5 1.2.8 1.9.8c.6 0 1.2-.2 1.7-.6c.5-.3.9-.8 1.1-1.5c.3-.7.5-1.4.5-2.3c0-.9-.2-1.6-.4-2.3c-.3-.7-.7-1.2-1.2-1.5c-.5-.4-1-.5-1.7-.5c-.7 0-1.3.2-1.9.7c-.6.5-1 1.1-1.3 1.9v3.5zm9.6.8c0-.7.2-1.4.6-1.9c.4-.4.8-.8 1.5-1c.6-.3 1.4-.5 2.5-.7l2.8-.5c-.1-1-.3-1.7-.8-2.2c-.4-.4-1.2-.7-2.1-.7c-.7 0-1.4.2-2 .5c-.6.3-1.2.8-1.6 1.3v-1.7c.4-.4 1-.8 1.6-1c.7-.3 1.4-.4 2.1-.4c1.4 0 2.5.3 3.3 1c.8.7 1.2 1.8 1.2 3.1c.02.04 0 7.1 0 7.1h-1.4s-.28-1.7-.3-1.7c-.5.6-1.1 1.1-1.8 1.5c-.7.3-1.4.5-2.2.5c-1 0-1.8-.3-2.5-.9c-.6-.5-.9-1.3-.9-2.3zm1.8-.1c0 .6.2 1.1.5 1.4c.4.3.8.4 1.4.4c.7 0 1.4-.2 2.1-.6c.7-.4 1.2-1 1.6-1.8c-.02.04 0-2.1 0-2.1c0 0-1.84.38-1.8.4c-1 .2-1.8.3-2.3.5c-.5.1-.9.4-1.1.7c-.3.3-.4.7-.4 1.1zm11.1-6.5h-2.4V87h2.4v-3.4h1.8v3.4h2.4v1.4h-2.4v9.5h-1.8v-9.5zm7.2 0h-2.4V87h2.4v-3.4h1.8v3.4h2.4v1.4h-2.4v9.5h-1.8v-9.5zm4.9 3.8c0-1.1.2-2 .6-2.9c.5-.8 1-1.5 1.8-1.9c.7-.5 1.6-.7 2.5-.7c1.5 0 2.6.4 3.5 1.4c.8 1 1.2 2.4 1.2 4.2c.02-.02 0 .7 0 .7h-7.8c0 1.1.4 2 1 2.7c.5.7 1.3 1.1 2.3 1.1c1.6 0 2.9-.6 3.9-1.7v1.8c-.5.4-1 .7-1.6.9c-.7.3-1.4.4-2.3.4c-1 0-1.9-.3-2.7-.7c-.8-.5-1.4-1.1-1.8-2c-.4-.8-.6-1.8-.6-2.9v-.4zm7.9-.6c-.1-1.2-.3-2-.9-2.6c-.5-.6-1.2-.9-2.1-.9c-.5 0-1 .1-1.5.4c-.5.3-.8.7-1.1 1.2c-.3.6-.5 1.2-.5 1.9h6.1zm3.8 6.3V87h1.6s.16 1.86.2 1.9c.3-.7.7-1.3 1.2-1.7c.6-.3 1.3-.5 2-.5h.6c.2 0 .3.1.4.1v1.6c-.3-.1-.6-.2-1.1-.2c-.7 0-1.3.2-1.9.7c-.6.5-1 1.1-1.2 1.9v7.1h-1.8zm7.6 0V87h1.6s.12 2.16.1 2.2c.4-.7 1-1.3 1.6-1.8c.7-.5 1.5-.7 2.3-.7c1.2 0 2 .3 2.7 1c.6.7.9 1.7.9 3v7.2h-1.8s.02-7.06 0-7.1c0-.9-.1-1.6-.5-2c-.3-.5-.8-.7-1.6-.7c-.5 0-1 .1-1.5.4c-.5.4-.9.8-1.3 1.3c-.4.5-.6 1.1-.8 1.6c.04.04 0 6.5 0 6.5h-1.7zm18.8 0h-1.7V82.6h1.7v15.3zm4.7-12.7H79v-2.3h1.8v2.3zm0 12.7H79V87h1.8v10.9zm2.1-5.8c0-1.1.2-2 .6-2.9c.4-.8.9-1.4 1.6-1.9c.8-.4 1.6-.6 2.5-.6c.7 0 1.4.1 2 .5c.6.4 1.1.8 1.5 1.4c-.02.02.1-1.6.1-1.6h1.6s.02 10.48 0 10.5c0 1-.2 1.9-.6 2.6c-.4.8-1.1 1.3-1.9 1.8c-.8.4-1.8.6-2.9.6c-.7 0-1.4-.1-2-.3c-.5-.1-1-.4-1.5-.7v-1.8c1 .9 2.2 1.3 3.5 1.3c1.1 0 2-.3 2.7-.9c.6-.6 1-1.5 1-2.6v-1.7c-.4.5-.9 1-1.5 1.3c-.6.4-1.3.5-2 .5c-.9 0-1.7-.2-2.5-.6c-.7-.5-1.2-1.1-1.6-1.9c-.4-.9-.6-1.8-.6-3zm1.8 0c0 .9.1 1.6.4 2.2c.3.6.7 1.1 1.2 1.4c.5.4 1 .5 1.6.5c.7 0 1.3-.2 1.9-.7c.5-.5 1-1.1 1.3-1.8v-3.1c-.3-.7-.8-1.3-1.3-1.8c-.6-.5-1.3-.7-1.9-.7c-.6 0-1.1.1-1.6.4c-.5.4-.9.8-1.2 1.5c-.3.6-.4 1.3-.4 2.1zm11 5.8V82.6h1.8s-.04 6.52 0 6.5c.4-.7.9-1.2 1.6-1.7c.6-.5 1.4-.7 2.2-.7c1.2 0 2.1.3 2.7 1c.6.7.9 1.7.9 3v7.2h-1.8s.04-7.06 0-7.1c0-.9-.1-1.6-.4-2c-.4-.5-.9-.7-1.6-.7c-.5 0-1 .1-1.5.4c-.5.3-1 .8-1.4 1.3c-.3.5-.6 1-.7 1.6c-.04-.02 0 6.5 0 6.5h-1.8zm12.9-9.5h-2.4V87h2.4v-3.4h1.8v3.4h2.4v1.4h-2.4v9.5h-1.8v-9.5zm7.5-3.2h-1.7v-2.3h1.7v2.3zm0 12.7h-1.7V87h1.7v10.9zm2.9 0V87h1.6s.14 2.16.1 2.2c.4-.7 1-1.3 1.6-1.8c.7-.5 1.5-.7 2.3-.7c1.2 0 2.1.3 2.7 1c.6.7.9 1.7.9 3c.02 0 0 7.2 0 7.2h-1.8s.04-7.06 0-7.1c0-.9-.1-1.6-.4-2c-.4-.5-.9-.7-1.6-.7c-.5 0-1 .1-1.5.4c-.5.4-1 .8-1.4 1.3c-.3.5-.6 1.1-.7 1.6c-.04.04 0 6.5 0 6.5H119zm11.1-5.8c0-1.1.2-2 .6-2.9c.4-.8 1-1.4 1.7-1.9c.7-.4 1.5-.6 2.5-.6c.7 0 1.3.1 1.9.5c.6.4 1.1.8 1.5 1.4c.02.02.2-1.6.2-1.6h1.6s-.04 10.48 0 10.5c0 1-.3 1.9-.7 2.6c-.4.8-1 1.3-1.9 1.8c-.8.4-1.7.6-2.9.6c-.7 0-1.3-.1-1.9-.3c-.6-.1-1.1-.4-1.6-.7v-1.8c1 .9 2.2 1.3 3.6 1.3c1.1 0 1.9-.3 2.6-.9c.7-.6 1-1.5 1-2.6v-1.7c-.4.5-.9 1-1.5 1.3c-.6.4-1.2.5-1.9.5c-1 0-1.8-.2-2.5-.6c-.7-.5-1.3-1.1-1.7-1.9c-.4-.9-.6-1.8-.6-3zm1.8 0c0 .9.2 1.6.5 2.2c.3.6.6 1.1 1.1 1.4c.5.4 1.1.5 1.6.5c.7 0 1.3-.2 1.9-.7c.6-.5 1-1.1 1.3-1.8v-3.1c-.3-.7-.7-1.3-1.3-1.8c-.6-.5-1.2-.7-1.9-.7c-.6 0-1.1.1-1.6.4c-.5.4-.9.8-1.1 1.5c-.3.6-.5 1.3-.5 2.1zm13 5.8h-2.3v-2.6h2.3v2.6zm11.4-13.7h-4.7v-1.5h11.2v1.5h-4.7v13.7h-1.8V84.2zm8.3 13.7V82.6h1.8v6.5c.4-.7.9-1.2 1.6-1.7c.7-.5 1.4-.7 2.3-.7c1.1 0 2 .3 2.6 1c.6.7.9 1.7.9 3c.04 0 0 7.2 0 7.2h-1.7s-.02-7.06 0-7.1c0-.9-.2-1.6-.5-2c-.3-.5-.9-.7-1.6-.7c-.5 0-1 .1-1.5.4c-.5.3-.9.8-1.3 1.3c-.4.5-.7 1-.8 1.6v6.5h-1.8zm11.1-5.7c0-1.1.2-2 .6-2.9c.5-.8 1-1.5 1.8-1.9c.7-.5 1.6-.7 2.5-.7c1.5 0 2.6.4 3.5 1.4c.8 1 1.2 2.4 1.2 4.2c.02-.02 0 .7 0 .7h-7.8c0 1.1.4 2 1 2.7c.5.7 1.3 1.1 2.3 1.1c1.6 0 2.9-.6 3.9-1.7v1.8c-.5.4-1 .7-1.6.9c-.7.3-1.4.4-2.3.4c-1 0-1.9-.3-2.7-.7c-.8-.5-1.4-1.1-1.8-2c-.4-.8-.6-1.8-.6-2.9v-.4zm7.9-.6c-.1-1.2-.3-2-.9-2.6c-.5-.6-1.2-.9-2.1-.9c-.5 0-1 .1-1.5.4c-.5.3-.8.7-1.1 1.2c-.3.6-.5 1.2-.5 1.9h6.1zm8.6 3.5c.9 1.1 2 1.7 3.5 1.7c.7 0 1.3-.2 1.7-.5c.4-.3.6-.7.6-1.2c0-.4-.1-.7-.3-1c-.2-.3-.7-.5-1.3-.8l-1.5-.6c-.9-.4-1.5-.8-2-1.3c-.4-.5-.6-1.1-.6-1.8c0-.5.1-1 .4-1.5c.3-.4.7-.8 1.3-1c.5-.3 1.2-.4 2-.4c.7 0 1.3.1 1.9.3c.5.3 1 .6 1.4.9v1.9c-.5-.6-1-1-1.6-1.3c-.5-.3-1.1-.4-1.7-.4c-.7 0-1.1.1-1.5.4c-.3.3-.5.6-.5 1c0 .4.2.7.4.9c.3.2.7.5 1.3.7l1.5.6c.9.4 1.5.8 2 1.3c.4.6.6 1.2.6 2c0 .9-.4 1.7-1.2 2.3c-.7.6-1.7.9-2.9.9c-.8 0-1.5-.1-2.1-.4c-.5-.2-1-.5-1.4-.8v-1.9zm9.7 2.8V87h1.6l.1 1.9c.4-.6.9-1.2 1.5-1.6c.6-.4 1.3-.6 2.1-.6c.8 0 1.4.2 1.9.6c.6.4.9 1 1.1 1.8c.5-.8 1-1.4 1.6-1.8c.6-.4 1.3-.6 2.1-.6c1 0 1.8.3 2.4.9c.6.7.9 1.6.9 2.9v7.4h-1.8s.04-7.3 0-7.3c0-.9-.1-1.5-.4-1.9c-.3-.4-.7-.6-1.4-.6c-.4 0-.8.1-1.3.4c-.4.2-.8.6-1.2 1c-.3.5-.5 1-.7 1.5c.02-.02 0 6.9 0 6.9h-1.7s-.04-7.34 0-7.3c0-.9-.2-1.5-.5-1.9c-.3-.4-.7-.6-1.4-.6c-.4 0-.8.1-1.2.4c-.5.2-.9.6-1.2 1c-.3.5-.6 1-.7 1.5c-.04-.02 0 6.9 0 6.9h-1.8zm17.2-2.9c0-.7.2-1.4.6-1.9c.3-.4.8-.8 1.4-1c.6-.3 1.5-.5 2.6-.7l2.7-.5c0-1-.3-1.7-.7-2.2c-.5-.4-1.2-.7-2.2-.7c-.7 0-1.3.2-2 .5c-.6.3-1.1.8-1.5 1.3v-1.7c.4-.4.9-.8 1.6-1c.6-.3 1.3-.4 2.1-.4c1.4 0 2.5.3 3.3 1c.8.7 1.2 1.8 1.2 3.1c-.02.04 0 7.1 0 7.1h-1.4s-.32-1.7-.3-1.7c-.5.6-1.1 1.1-1.8 1.5c-.7.3-1.4.5-2.3.5c-1 0-1.8-.3-2.4-.9c-.6-.5-.9-1.3-.9-2.3zm1.8-.1c0 .6.2 1.1.5 1.4c.3.3.8.4 1.4.4c.7 0 1.3-.2 2-.6c.7-.4 1.3-1 1.6-1.8c.04.04 0-2.1 0-2.1c0 0-1.78.38-1.8.4c-1 .2-1.7.3-2.2.5c-.5.1-.9.4-1.2.7c-.2.3-.3.7-.3 1.1zm11.8 3h-1.8V82.6h1.8v15.3zm4.6 0h-1.7V82.6h1.7v15.3zm7.3-5.7c0-1.1.2-2 .7-2.9c.4-.8 1.1-1.5 1.9-1.9c.8-.5 1.7-.7 2.8-.7c.6 0 1.2.1 1.7.3c.6.2 1.1.5 1.5.9v1.8c-.5-.5-.9-.9-1.5-1.2c-.5-.3-1.1-.4-1.7-.4c-.7 0-1.3.2-1.8.5c-.6.3-1 .8-1.3 1.5c-.3.6-.4 1.3-.4 2.1v.4c0 .8.1 1.5.4 2.1c.3.7.8 1.2 1.3 1.5c.5.4 1.1.5 1.8.5c1.2 0 2.3-.5 3.2-1.6v1.9c-.4.3-.9.6-1.5.8c-.6.3-1.2.4-1.8.4c-1 0-1.9-.3-2.7-.8c-.8-.4-1.5-1.1-1.9-2c-.5-.8-.7-1.8-.7-2.8v-.4zm10.6 1.9c0 1.3.3 2.3.9 3c.6.7 1.5 1.1 2.6 1.1c.9 0 1.7-.3 2.3-.8c.7-.4 1.2-1 1.6-1.7c.04-.02.2 2.2.2 2.2h1.6V87h-1.8s.02 6.4 0 6.4c-.1.6-.4 1.1-.8 1.6c-.3.6-.8 1-1.3 1.3c-.5.3-1 .5-1.5.5c-.7 0-1.3-.3-1.6-.7c-.3-.5-.5-1.2-.5-2.1c.04 0 0-7 0-7h-1.7s-.02 7.14 0 7.1zm12.1 3.8V82.6h1.7s.02 5.98 0 6c.4-.6.9-1.1 1.5-1.4c.7-.4 1.3-.5 2-.5c.9 0 1.7.2 2.5.7c.7.4 1.3 1.1 1.7 2c.4.8.6 1.9.6 3c0 1.2-.2 2.2-.6 3c-.4.9-1 1.6-1.7 2.1c-.8.4-1.6.7-2.5.7c-.7 0-1.4-.2-2-.6c-.6-.3-1.1-.8-1.5-1.4l-.1 1.7h-1.6zm1.7-3.7c.3.7.7 1.3 1.3 1.8c.6.5 1.3.8 1.9.8c.6 0 1.2-.2 1.7-.6c.5-.3.9-.8 1.2-1.5c.2-.6.4-1.4.4-2.3c0-.9-.2-1.6-.5-2.3c-.2-.7-.6-1.2-1.1-1.5c-.5-.4-1.1-.5-1.7-.5c-.7 0-1.3.2-1.9.7c-.6.5-1 1.1-1.3 1.8v3.6zm9.8-2c0-1.1.2-2 .6-2.9c.4-.8 1-1.5 1.8-1.9c.7-.5 1.6-.7 2.5-.7c1.5 0 2.6.4 3.5 1.4c.8 1 1.2 2.4 1.2 4.2c.02-.02 0 .7 0 .7h-7.8c0 1.1.4 2 1 2.7c.5.7 1.3 1.1 2.3 1.1c1.6 0 2.9-.6 3.9-1.7v1.8c-.5.4-1 .7-1.6.9c-.7.3-1.4.4-2.3.4c-1 0-1.9-.3-2.7-.7c-.8-.5-1.4-1.1-1.8-2c-.4-.8-.6-1.8-.6-2.9v-.4zm7.9-.6c-.1-1.2-.3-2-.9-2.6c-.5-.6-1.2-.9-2.1-.9c-.5 0-1 .1-1.5.4c-.5.3-.8.7-1.1 1.2c-.3.6-.5 1.2-.5 1.9h6.1zm9 6.3V82.6h1.8v6.5c.4-.7.9-1.2 1.6-1.7c.7-.5 1.4-.7 2.3-.7c1.1 0 2 .3 2.6 1c.6.7.9 1.7.9 3c.04 0 0 7.2 0 7.2h-1.7s-.02-7.06 0-7.1c0-.9-.2-1.6-.5-2c-.3-.5-.9-.7-1.6-.7c-.5 0-1 .1-1.5.4c-.5.3-.9.8-1.3 1.3c-.4.5-.7 1-.8 1.6v6.5h-1.8zm11.1-5.7c0-1.1.2-2 .6-2.9c.4-.8 1-1.5 1.8-1.9c.7-.5 1.6-.7 2.5-.7c1.5 0 2.6.4 3.5 1.4c.8 1 1.2 2.4 1.2 4.2c.02-.02 0 .7 0 .7h-7.8c0 1.1.4 2 1 2.7c.5.7 1.3 1.1 2.3 1.1c1.6 0 2.9-.6 3.9-1.7v1.8c-.5.4-1 .7-1.6.9c-.7.3-1.4.4-2.3.4c-1 0-1.9-.3-2.7-.7c-.8-.5-1.4-1.1-1.8-2c-.4-.8-.6-1.8-.6-2.9v-.4zm7.9-.6c-.1-1.2-.3-2-.9-2.6c-.5-.6-1.2-.9-2.1-.9c-.5 0-1 .1-1.5.4c-.5.3-.8.7-1.1 1.2c-.3.6-.5 1.2-.5 1.9h6.1zm3.1 3.4c0-.7.2-1.4.6-1.9c.3-.4.7-.8 1.4-1c.6-.3 1.5-.5 2.6-.7l2.7-.5c-.1-1-.3-1.7-.8-2.2c-.4-.4-1.2-.7-2.1-.7c-.7 0-1.4.2-2 .5c-.6.3-1.1.8-1.6 1.3v-1.7c.4-.4 1-.8 1.6-1c.7-.3 1.4-.4 2.2-.4c1.3 0 2.4.3 3.2 1c.8.7 1.2 1.8 1.2 3.1c.04.04 0 7.1 0 7.1h-1.3s-.36-1.7-.4-1.7c-.5.6-1.1 1.1-1.8 1.5c-.6.3-1.4.5-2.2.5c-1 0-1.8-.3-2.4-.9c-.6-.5-.9-1.3-.9-2.3zm1.7-.1c0 .6.2 1.1.6 1.4c.3.3.8.4 1.3.4c.7 0 1.4-.2 2.1-.6c.7-.4 1.2-1 1.6-1.8v-2.1s-1.82.38-1.8.4c-1 .2-1.8.3-2.3.5c-.5.1-.9.4-1.1.7c-.2.3-.4.7-.4 1.1zm9.3-2.5c0-1.1.2-2.2.6-3c.4-.9 1-1.6 1.7-2c.8-.5 1.6-.7 2.5-.7c.7 0 1.3.1 2 .5c.6.3 1.1.8 1.5 1.4v-6h1.8v15.3h-1.6s-.18-1.72-.2-1.7c-.4.6-.9 1.1-1.5 1.4c-.6.4-1.3.6-2 .6c-.9 0-1.7-.3-2.5-.7c-.7-.5-1.3-1.2-1.7-2.1c-.4-.8-.6-1.8-.6-3zm1.8 0c0 .9.2 1.7.5 2.3c.2.7.6 1.2 1.1 1.5c.5.4 1.1.6 1.7.6c.7 0 1.3-.3 1.9-.8c.6-.5 1-1.1 1.3-1.8v-3.6c-.3-.7-.7-1.3-1.3-1.8c-.6-.5-1.2-.7-1.9-.7c-.6 0-1.2.1-1.7.5c-.5.3-.8.8-1.1 1.5c-.3.7-.5 1.4-.5 2.3zm12.9 5.5h-1.8V82.6h1.8v15.3zm2.1-2.9c0-.7.2-1.4.6-1.9c.3-.4.8-.8 1.4-1c.6-.3 1.5-.5 2.6-.7l2.7-.5c0-1-.3-1.7-.7-2.2c-.5-.4-1.2-.7-2.2-.7c-.7 0-1.3.2-2 .5c-.6.3-1.1.8-1.5 1.3v-1.7c.4-.4.9-.8 1.6-1c.6-.3 1.3-.4 2.1-.4c1.4 0 2.5.3 3.3 1c.8.7 1.2 1.8 1.2 3.1c-.02.04 0 7.1 0 7.1h-1.4s-.32-1.7-.3-1.7c-.5.6-1.1 1.1-1.8 1.5c-.7.3-1.5.5-2.3.5c-1 0-1.8-.3-2.4-.9c-.6-.5-.9-1.3-.9-2.3zm1.8-.1c0 .6.1 1.1.5 1.4c.3.3.8.4 1.4.4c.7 0 1.3-.2 2-.6c.7-.4 1.2-1 1.6-1.8c.04.04 0-2.1 0-2.1c0 0-1.78.38-1.8.4c-1 .2-1.7.3-2.2.5c-.6.1-.9.4-1.2.7c-.2.3-.3.7-.3 1.1zm10 3V87h1.6s.12 1.94.1 1.9c.4-.6.9-1.2 1.5-1.6c.6-.4 1.3-.6 2.1-.6c.8 0 1.4.2 2 .6c.5.4.8 1 1 1.8c.5-.8 1-1.4 1.6-1.8c.6-.4 1.4-.6 2.2-.6c1 0 1.7.3 2.3.9c.6.7.9 1.6.9 2.9c.02-.04 0 7.4 0 7.4H371s-.04-7.3 0-7.3c0-.9-.2-1.5-.5-1.9c-.3-.4-.7-.6-1.4-.6c-.4 0-.8.1-1.3.4c-.4.2-.8.6-1.1 1c-.4.5-.6 1-.8 1.5c.04-.02 0 6.9 0 6.9h-1.7s-.02-7.34 0-7.3c0-.9-.2-1.5-.5-1.9c-.2-.4-.7-.6-1.4-.6c-.4 0-.8.1-1.2.4c-.4.2-.8.6-1.2 1c-.3.5-.6 1-.7 1.5c-.02-.02 0 6.9 0 6.9h-1.8zm18 4.4V87h1.6s.14 1.72.1 1.7c.4-.6.9-1.1 1.5-1.5c.7-.4 1.3-.5 2.1-.5c.9 0 1.7.2 2.4.7c.8.4 1.3 1.1 1.7 2c.4.8.7 1.9.7 3c0 1.2-.3 2.2-.7 3c-.4.9-.9 1.6-1.7 2.1c-.7.4-1.5.7-2.4.7c-.7 0-1.4-.2-2-.6c-.6-.3-1.1-.8-1.5-1.4c-.04.04 0 6.1 0 6.1h-1.8zm1.8-8.1c.2.7.7 1.3 1.3 1.8c.6.5 1.2.8 1.9.8c.6 0 1.1-.2 1.6-.6c.5-.3.9-.8 1.2-1.5c.3-.7.4-1.4.4-2.3c0-.9-.1-1.6-.4-2.3c-.3-.7-.7-1.2-1.1-1.5c-.5-.4-1.1-.5-1.7-.5c-.7 0-1.3.2-1.9.7c-.6.5-1.1 1.1-1.3 1.9v3.5zm9.9.9c.9 1.1 2.1 1.7 3.5 1.7c.7 0 1.3-.2 1.7-.5c.4-.3.7-.7.7-1.2c0-.4-.2-.7-.4-1c-.2-.3-.6-.5-1.2-.8l-1.5-.6c-.9-.4-1.6-.8-2-1.3c-.4-.5-.7-1.1-.7-1.8c0-.5.2-1 .5-1.5c.3-.4.7-.8 1.2-1c.6-.3 1.2-.4 2-.4c.7 0 1.3.1 1.9.3c.6.3 1.1.6 1.5.9v1.9c-.5-.6-1.1-1-1.6-1.3c-.6-.3-1.2-.4-1.8-.4c-.6 0-1.1.1-1.4.4c-.4.3-.5.6-.5 1c0 .4.1.7.4.9c.2.2.7.5 1.3.7l1.4.6c.9.4 1.6.8 2 1.3c.4.6.6 1.2.6 2c0 .9-.4 1.7-1.1 2.3c-.8.6-1.8.9-3 .9c-.8 0-1.4-.1-2-.4c-.6-.2-1.1-.5-1.5-.8v-1.9zm10.2 5.2h-1.4l.9-5.1h2.2l-1.7 5.1zm8-11.9V87h2.2s.01-1.12 0-1.1c0-.7.1-1.3.4-1.9c.2-.5.6-1 1.1-1.3c.6-.4 1.2-.5 1.9-.5c.6 0 1 .1 1.4.3v1.5c-.3-.2-.7-.4-1.2-.4c-.6 0-1 .2-1.3.6c-.3.4-.5.9-.5 1.7c-.01 0 0 1.1 0 1.1h2.6v1.4h-2.6v9.5h-1.8v-9.5h-2.2zm7.5 3.8c0-1.1.2-2 .6-2.9c.4-.8 1-1.5 1.7-1.9c.7-.5 1.6-.7 2.6-.7c1.4 0 2.6.4 3.4 1.4c.8 1 1.3 2.4 1.3 4.2c-.04-.02 0 .7 0 .7h-7.9c.1 1.1.4 2 1 2.7c.6.7 1.4 1.1 2.4 1.1c1.5 0 2.8-.6 3.8-1.7v1.8c-.4.4-1 .7-1.6.9c-.6.3-1.4.4-2.2.4c-1.1 0-2-.3-2.8-.7c-.7-.5-1.3-1.1-1.7-2c-.4-.8-.6-1.8-.6-2.9v-.4zm7.8-.6c0-1.2-.3-2-.8-2.6c-.6-.6-1.3-.9-2.1-.9c-.6 0-1.1.1-1.6.4c-.4.3-.8.7-1.1 1.2c-.3.6-.4 1.2-.5 1.9h6.1zm3.1 3.4c0-.7.2-1.4.6-1.9c.3-.4.8-.8 1.4-1c.6-.3 1.5-.5 2.6-.7l2.7-.5c0-1-.3-1.7-.7-2.2c-.5-.4-1.2-.7-2.2-.7c-.7 0-1.3.2-2 .5c-.6.3-1.1.8-1.5 1.3v-1.7c.4-.4.9-.8 1.6-1c.6-.3 1.3-.4 2.1-.4c1.4 0 2.5.3 3.3 1c.8.7 1.2 1.8 1.2 3.1c-.02.04 0 7.1 0 7.1h-1.4s-.32-1.7-.3-1.7c-.5.6-1.1 1.1-1.8 1.5c-.7.3-1.5.5-2.3.5c-1 0-1.8-.3-2.4-.9c-.6-.5-.9-1.3-.9-2.3zm1.8-.1c0 .6.1 1.1.5 1.4c.3.3.8.4 1.4.4c.7 0 1.3-.2 2-.6c.7-.4 1.2-1 1.6-1.8c.04.04 0-2.1 0-2.1c0 0-1.78.38-1.8.4c-1 .2-1.7.3-2.2.5c-.6.1-.9.4-1.2.7c-.2.3-.3.7-.3 1.1zm11.1-6.5h-2.4V87h2.4v-3.4h1.7v3.4h2.5v1.4h-2.5v9.5h-1.7v-9.5zm5.5 5.7c0 1.3.3 2.3.9 3c.6.7 1.5 1.1 2.7 1.1c.8 0 1.6-.3 2.2-.8c.7-.4 1.3-1 1.7-1.7c-.05-.02.1 2.2.1 2.2h1.6V87h-1.8s.03 6.4 0 6.4c-.1.6-.4 1.1-.7 1.6c-.4.6-.9 1-1.4 1.3c-.5.3-1 .5-1.5.5c-.7 0-1.2-.3-1.6-.7c-.3-.5-.4-1.2-.4-2.1c-.05 0 0-7 0-7h-1.8v7.1zm12.1 3.8V87h1.6l.1 1.9c.3-.7.7-1.3 1.3-1.7c.5-.3 1.2-.5 2-.5h.5c.2 0 .4.1.5.1v1.6c-.3-.1-.7-.2-1.1-.2c-.7 0-1.4.2-1.9.7c-.6.5-1 1.1-1.3 1.9c.03-.02 0 7.1 0 7.1h-1.7zm9.3-12.7h-1.8v-2.3h1.8v2.3zm0 12.7h-1.8V87h1.8v10.9zm2.9 0V87h1.6l.1 2.2c.4-.7.9-1.3 1.6-1.8c.7-.5 1.4-.7 2.3-.7c1.1 0 2 .3 2.6 1c.7.7 1 1.7 1 3c-.03 0 0 7.2 0 7.2h-1.8v-7.1c0-.9-.2-1.6-.5-2c-.3-.5-.8-.7-1.6-.7c-.5 0-1 .1-1.5.4c-.5.4-.9.8-1.3 1.3c-.4.5-.6 1.1-.8 1.6v6.5h-1.7zm11.1-5.8c0-1.1.2-2 .6-2.9c.4-.8.9-1.4 1.6-1.9c.8-.4 1.6-.6 2.5-.6c.7 0 1.4.1 2 .5c.6.4 1.1.8 1.5 1.4c-.03.02.1-1.6.1-1.6h1.6v10.5c0 1-.2 1.9-.6 2.6c-.5.8-1.1 1.3-1.9 1.8c-.8.4-1.8.6-2.9.6c-.7 0-1.4-.1-2-.3c-.5-.1-1-.4-1.5-.7v-1.8c1 .9 2.2 1.3 3.5 1.3c1.1 0 2-.3 2.7-.9c.6-.6 1-1.5 1-2.6v-1.7c-.4.5-.9 1-1.5 1.3c-.6.4-1.3.5-2 .5c-.9 0-1.7-.2-2.5-.6c-.7-.5-1.2-1.1-1.6-1.9c-.4-.9-.6-1.8-.6-3zm1.8 0c0 .9.1 1.6.4 2.2c.3.6.7 1.1 1.2 1.4c.5.4 1 .5 1.6.5c.7 0 1.3-.2 1.9-.7c.5-.5 1-1.1 1.3-1.8v-3.1c-.3-.7-.8-1.3-1.3-1.8c-.6-.5-1.3-.7-1.9-.7c-.6 0-1.1.1-1.6.4c-.5.4-.9.8-1.2 1.5c-.3.6-.4 1.3-.4 2.1zm17.3-3.7h-2.4V87h2.4v-3.4h1.7v3.4h2.4v1.4h-2.4v9.5h-1.7v-9.5zm5.7 9.5V82.6h1.7s.03 6.52 0 6.5c.4-.7 1-1.2 1.6-1.7c.7-.5 1.5-.7 2.3-.7c1.2 0 2 .3 2.7 1c.6.7.9 1.7.9 3c-.03 0 0 7.2 0 7.2h-1.8v-7.1c0-.9-.1-1.6-.5-2c-.3-.5-.8-.7-1.6-.7c-.5 0-1 .1-1.5.4c-.5.3-.9.8-1.3 1.3c-.4.5-.6 1-.8 1.6c.03-.02 0 6.5 0 6.5h-1.7zm11.1-5.7c0-1.1.2-2 .6-2.9c.4-.8 1-1.5 1.7-1.9c.7-.5 1.6-.7 2.6-.7c1.4 0 2.6.4 3.4 1.4c.8 1 1.3 2.4 1.3 4.2c-.05-.02 0 .7 0 .7h-7.9c.1 1.1.4 2 1 2.7c.6.7 1.4 1.1 2.4 1.1c1.5 0 2.8-.6 3.8-1.7v1.8c-.4.4-1 .7-1.6.9c-.6.3-1.4.4-2.2.4c-1.1 0-2-.3-2.8-.7c-.7-.5-1.3-1.1-1.7-2c-.4-.8-.6-1.8-.6-2.9v-.4zm7.8-.6c0-1.2-.3-2-.8-2.6c-.6-.6-1.3-.9-2.1-.9c-.6 0-1.1.1-1.6.4c-.4.3-.8.7-1.1 1.2c-.3.6-.4 1.2-.5 1.9h6.1z" stroke="none" fill="#000"/></g><g id="Polygon10042"><path d="m10.9 63.9H1.7V48.7h9.1v1.5H3.6v5.1h6.1v1.5H3.6v5.6h7.3v1.5zm3.1 0h-2l4.2-5.8l-3.7-5.1h2.1l2.7 3.8L20 53h1.9l-3.7 5.1l4.1 5.8h-2.1l-3.1-4.4l-3.1 4.4zm9.7-3.8c0 1.3.3 2.3.9 3c.7.7 1.5 1.1 2.7 1.1c.8 0 1.6-.3 2.3-.8c.6-.4 1.2-1 1.6-1.7c-.02-.02.1 2.2.1 2.2h1.6V53h-1.7s-.04 6.4 0 6.4c-.2.6-.4 1.1-.8 1.6c-.4.6-.8 1-1.3 1.3c-.5.3-1 .5-1.5.5c-.8 0-1.3-.3-1.6-.7c-.4-.5-.5-1.2-.5-2.1c-.02 0 0-7 0-7h-1.8s.02 7.14 0 7.1zM35 58.4c0-1.1.2-2.2.6-3c.5-.9 1-1.6 1.8-2c.7-.5 1.5-.7 2.4-.7c.7 0 1.4.1 2 .5c.6.3 1.1.8 1.5 1.4c.02-.02 0-6 0-6h1.8v15.3h-1.6s-.16-1.72-.2-1.7c-.3.6-.9 1.1-1.5 1.4c-.6.4-1.3.6-2 .6c-.9 0-1.7-.3-2.4-.7c-.8-.5-1.3-1.2-1.8-2.1c-.4-.8-.6-1.8-.6-3zm1.9 0c0 .9.1 1.7.4 2.3c.3.7.6 1.2 1.1 1.5c.5.4 1.1.6 1.7.6c.7 0 1.3-.3 1.9-.8c.6-.5 1-1.1 1.3-1.8v-3.6c-.3-.7-.7-1.3-1.3-1.8c-.6-.5-1.2-.7-1.9-.7c-.6 0-1.1.1-1.6.5c-.5.3-.9.8-1.2 1.5c-.3.7-.4 1.4-.4 2.3zm10.3-.2c0-1.1.2-2 .6-2.9c.4-.8 1-1.5 1.7-1.9c.7-.5 1.6-.7 2.6-.7c1.4 0 2.6.4 3.4 1.4c.8 1 1.3 2.4 1.3 4.2c-.04-.02 0 .7 0 .7h-7.9c.1 1.1.4 2 1 2.7c.6.7 1.4 1.1 2.4 1.1c1.5 0 2.8-.6 3.8-1.7v1.8c-.4.4-1 .7-1.6.9c-.6.3-1.4.4-2.2.4c-1.1 0-2-.3-2.8-.7c-.7-.5-1.3-1.1-1.7-2c-.4-.8-.6-1.8-.6-2.9v-.4zm7.8-.6c0-1.2-.3-2-.8-2.6c-.6-.6-1.3-.9-2.1-.9c-.6 0-1.1.1-1.6.4c-.4.3-.8.7-1.1 1.2c-.3.6-.4 1.2-.5 1.9h6.1zm8.3 3.4c0-.7.2-1.4.6-1.9c.3-.4.8-.8 1.4-1c.6-.3 1.5-.5 2.6-.7l2.7-.5c0-1-.3-1.7-.7-2.2c-.5-.4-1.2-.7-2.2-.7c-.7 0-1.3.2-2 .5c-.6.3-1.1.8-1.5 1.3v-1.7c.4-.4.9-.8 1.6-1c.6-.3 1.3-.4 2.1-.4c1.4 0 2.5.3 3.3 1c.8.7 1.2 1.8 1.2 3.1c-.02.04 0 7.1 0 7.1H71s-.32-1.7-.3-1.7c-.5.6-1.1 1.1-1.8 1.5c-.7.3-1.4.5-2.3.5c-1 0-1.8-.3-2.4-.9c-.6-.5-.9-1.3-.9-2.3zm1.8-.1c0 .6.2 1.1.5 1.4c.3.3.8.4 1.4.4c.7 0 1.3-.2 2-.6c.7-.4 1.3-1 1.6-1.8c.04.04 0-2.1 0-2.1c0 0-1.78.38-1.8.4c-1 .2-1.7.3-2.2.5c-.5.1-.9.4-1.2.7c-.2.3-.3.7-.3 1.1zm14.8.2c.9 1.1 2 1.7 3.4 1.7c.8 0 1.3-.2 1.8-.5c.4-.3.6-.7.6-1.2c0-.4-.1-.7-.3-1c-.3-.3-.7-.5-1.3-.8l-1.5-.6c-.9-.4-1.5-.8-2-1.3c-.4-.5-.6-1.1-.6-1.8c0-.5.1-1 .4-1.5c.3-.4.7-.8 1.3-1c.5-.3 1.2-.4 2-.4c.6 0 1.3.1 1.8.3c.6.3 1.1.6 1.5.9v1.9c-.5-.6-1-1-1.6-1.3c-.6-.3-1.1-.4-1.7-.4c-.7 0-1.2.1-1.5.4c-.3.3-.5.6-.5 1c0 .4.1.7.4.9c.3.2.7.5 1.3.7l1.5.6c.9.4 1.5.8 1.9 1.3c.5.6.7 1.2.7 2c0 .9-.4 1.7-1.2 2.3c-.8.6-1.7.9-3 .9c-.7 0-1.4-.1-2-.4c-.6-.2-1-.5-1.4-.8v-1.9zm11.4-9.9h-1.7v-2.3h1.7v2.3zm0 12.7h-1.7V53h1.7v10.9zm2.9 0V53h1.6s.12 1.94.1 1.9c.4-.6.9-1.2 1.5-1.6c.6-.4 1.3-.6 2.1-.6c.8 0 1.4.2 2 .6c.5.4.9 1 1 1.8c.5-.8 1-1.4 1.6-1.8c.6-.4 1.4-.6 2.2-.6c1 0 1.8.3 2.3.9c.6.7.9 1.6.9 2.9c.02-.04 0 7.4 0 7.4h-1.7s-.04-7.3 0-7.3c0-.9-.2-1.5-.5-1.9c-.3-.4-.7-.6-1.4-.6c-.4 0-.8.1-1.3.4c-.4.2-.8.6-1.1 1c-.4.5-.6 1-.8 1.5c.04-.02 0 6.9 0 6.9H101s-.02-7.34 0-7.3c0-.9-.2-1.5-.5-1.9c-.2-.4-.7-.6-1.4-.6c-.4 0-.8.1-1.2.4c-.4.2-.8.6-1.2 1c-.3.5-.6 1-.7 1.5c-.02-.02 0 6.9 0 6.9h-1.8zm18 4.4V53h1.6s.14 1.72.1 1.7c.4-.6.9-1.1 1.5-1.5c.7-.4 1.3-.5 2.1-.5c.9 0 1.7.2 2.4.7c.8.4 1.3 1.1 1.7 2c.5.8.7 1.9.7 3c0 1.2-.2 2.2-.7 3c-.4.9-.9 1.6-1.7 2.1c-.7.4-1.5.7-2.4.7c-.7 0-1.4-.2-2-.6c-.6-.3-1.1-.8-1.5-1.4c-.04.04 0 6.1 0 6.1h-1.8zm1.8-8.1c.2.7.7 1.3 1.3 1.8c.6.5 1.2.8 1.9.8c.6 0 1.1-.2 1.6-.6c.5-.3.9-.8 1.2-1.5c.3-.7.4-1.4.4-2.3c0-.9-.1-1.6-.4-2.3c-.3-.7-.6-1.2-1.1-1.5c-.5-.4-1.1-.5-1.7-.5c-.7 0-1.3.2-1.9.7c-.6.5-1.1 1.1-1.3 1.9v3.5zm12.1 3.7h-1.7V48.6h1.7v15.3zm2.1-5.7c0-1.1.2-2 .6-2.9c.5-.8 1-1.5 1.8-1.9c.7-.5 1.6-.7 2.5-.7c1.5 0 2.6.4 3.5 1.4c.8 1 1.2 2.4 1.2 4.2c.02-.02 0 .7 0 .7H130c0 1.1.4 2 1 2.7c.5.7 1.3 1.1 2.3 1.1c1.6 0 2.9-.6 3.9-1.7v1.8c-.5.4-1 .7-1.6.9c-.7.3-1.4.4-2.3.4c-1 0-1.9-.3-2.7-.7c-.8-.5-1.4-1.1-1.8-2c-.4-.8-.6-1.8-.6-2.9v-.4zm7.9-.6c-.1-1.2-.3-2-.9-2.6c-.5-.6-1.2-.9-2.1-.9c-.5 0-1 .1-1.5.4c-.5.3-.8.7-1.1 1.2c-.3.6-.5 1.2-.5 1.9h6.1zm12.1 6.2L143.9 53h1.9l3.3 8.7l3.4-8.7h1.8l-6.1 15.3h-1.9l1.9-4.5zm6.8-5.6c0-1.1.2-2 .6-2.9c.5-.8 1-1.5 1.8-1.9c.7-.5 1.6-.7 2.5-.7c1.5 0 2.6.4 3.5 1.4c.8 1 1.2 2.4 1.2 4.2c.02-.02 0 .7 0 .7h-7.8c0 1.1.4 2 1 2.7c.5.7 1.3 1.1 2.3 1.1c1.6 0 2.9-.6 3.9-1.7v1.8c-.5.4-1 .7-1.6.9c-.7.3-1.4.4-2.3.4c-1 0-1.9-.3-2.7-.7c-.8-.5-1.4-1.1-1.8-2c-.4-.8-.6-1.8-.6-2.9v-.4zm7.9-.6c-.1-1.2-.3-2-.9-2.6c-.5-.6-1.2-.9-2.1-.9c-.5 0-1 .1-1.5.4c-.5.3-.8.7-1.1 1.2c-.3.6-.5 1.2-.5 1.9h6.1zm4.9-3.2h-2.4V53h2.4v-3.4h1.8v3.4h2.4v1.4h-2.4v9.5h-1.8v-9.5zm10.9 9.5V48.6h1.8s-.02 6.52 0 6.5c.4-.7.9-1.2 1.6-1.7c.7-.5 1.4-.7 2.2-.7c1.2 0 2.1.3 2.7 1c.6.7.9 1.7.9 3c.02 0 0 7.2 0 7.2h-1.7s-.04-7.06 0-7.1c0-.9-.2-1.6-.5-2c-.3-.5-.9-.7-1.6-.7c-.5 0-1 .1-1.5.4c-.5.3-1 .8-1.3 1.3c-.4.5-.7 1-.8 1.6c-.02-.02 0 6.5 0 6.5h-1.8zm13.7-12.7h-1.8v-2.3h1.8v2.3zm0 12.7h-1.8V53h1.8v10.9zm2.1-5.8c0-1.1.2-2 .6-2.9c.4-.8.9-1.4 1.6-1.9c.8-.4 1.6-.6 2.5-.6c.7 0 1.4.1 2 .5c.6.4 1.1.8 1.5 1.4c-.02.02.1-1.6.1-1.6h1.6s.02 10.48 0 10.5c0 1-.2 1.9-.6 2.6c-.4.8-1.1 1.3-1.9 1.8c-.8.4-1.8.6-2.9.6c-.7 0-1.4-.1-2-.3c-.5-.1-1-.4-1.5-.7v-1.8c1 .9 2.2 1.3 3.5 1.3c1.1 0 2-.3 2.7-.9c.6-.6 1-1.5 1-2.6v-1.7c-.4.5-.9 1-1.5 1.3c-.6.4-1.3.5-2 .5c-.9 0-1.7-.2-2.5-.6c-.7-.5-1.2-1.1-1.6-1.9c-.4-.9-.6-1.8-.6-3zm1.8 0c0 .9.1 1.6.4 2.2c.3.6.7 1.1 1.2 1.4c.5.4 1 .5 1.6.5c.7 0 1.3-.2 1.9-.7c.5-.5 1-1.1 1.3-1.8v-3.1c-.3-.7-.8-1.3-1.3-1.8c-.6-.5-1.3-.7-1.9-.7c-.6 0-1.1.1-1.6.4c-.5.4-.9.8-1.2 1.5c-.3.6-.4 1.3-.4 2.1zm11 5.8V48.6h1.8s-.04 6.52 0 6.5c.4-.7.9-1.2 1.6-1.7c.6-.5 1.4-.7 2.2-.7c1.2 0 2.1.3 2.7 1c.6.7.9 1.7.9 3v7.2h-1.8s.04-7.06 0-7.1c0-.9-.1-1.6-.4-2c-.4-.5-.9-.7-1.6-.7c-.5 0-1 .1-1.5.4c-.5.3-1 .8-1.4 1.3c-.3.5-.6 1-.7 1.6c-.04-.02 0 6.5 0 6.5h-1.8zm17.1-6h-5.8v-1.7h5.8v1.7zm3.3-3.5h-2.4V53h2.4v-3.4h1.8v3.4h2.4v1.4h-2.4v9.5h-1.8v-9.5zm5 3.8c0-1.1.2-2 .6-2.9c.4-.8 1-1.5 1.7-1.9c.7-.5 1.6-.7 2.6-.7c1.4 0 2.6.4 3.4 1.4c.8 1 1.3 2.4 1.3 4.2c-.04-.02 0 .7 0 .7h-7.9c.1 1.1.4 2 1 2.7c.6.7 1.4 1.1 2.4 1.1c1.5 0 2.8-.6 3.8-1.7v1.8c-.4.4-1 .7-1.6.9c-.6.3-1.4.4-2.2.4c-1.1 0-2-.3-2.8-.7c-.7-.5-1.3-1.1-1.7-2c-.4-.8-.6-1.8-.6-2.9v-.4zm7.8-.6c0-1.2-.3-2-.8-2.6c-.6-.6-1.3-.9-2.1-.9c-.6 0-1.1.1-1.6.4c-.4.3-.8.7-1.1 1.2c-.3.6-.4 1.2-.5 1.9h6.1zm3.1.6c0-1.1.2-2 .7-2.9c.4-.8 1.1-1.5 1.9-1.9c.8-.5 1.7-.7 2.8-.7c.6 0 1.1.1 1.7.3c.6.2 1.1.5 1.5.9v1.8c-.5-.5-1-.9-1.5-1.2c-.5-.3-1.1-.4-1.8-.4c-.6 0-1.2.2-1.7.5c-.6.3-1 .8-1.3 1.5c-.3.6-.5 1.3-.5 2.1v.4c0 .8.2 1.5.5 2.1c.3.7.7 1.2 1.3 1.5c.5.4 1.1.5 1.7.5c1.3 0 2.4-.5 3.3-1.6v1.9c-.4.3-.9.6-1.5.8c-.6.3-1.2.4-1.8.4c-1 0-1.9-.3-2.7-.8c-.8-.4-1.5-1.1-1.9-2c-.5-.8-.7-1.8-.7-2.8v-.4zm10.8 5.7V48.6h1.7s.02 6.52 0 6.5c.4-.7 1-1.2 1.6-1.7c.7-.5 1.5-.7 2.3-.7c1.1 0 2 .3 2.6 1c.7.7 1 1.7 1 3c-.04 0 0 7.2 0 7.2h-1.8v-7.1c0-.9-.2-1.6-.5-2c-.3-.5-.8-.7-1.6-.7c-.5 0-1 .1-1.5.4c-.5.3-.9.8-1.3 1.3c-.4.5-.6 1-.8 1.6c.02-.02 0 6.5 0 6.5h-1.7zm18.8-12.7h-1.8v-2.3h1.8v2.3zm0 12.7h-1.8V53h1.8v10.9zm2.9 0V53h1.6s.08 1.94.1 1.9c.4-.6.9-1.2 1.5-1.6c.6-.4 1.3-.6 2.1-.6c.7 0 1.4.2 1.9.6c.6.4.9 1 1.1 1.8c.4-.8 1-1.4 1.6-1.8c.6-.4 1.3-.6 2.1-.6c1 0 1.8.3 2.4.9c.6.7.9 1.6.9 2.9c-.02-.04 0 7.4 0 7.4h-1.8s.02-7.3 0-7.3c0-.9-.1-1.5-.4-1.9c-.3-.4-.8-.6-1.4-.6c-.4 0-.9.1-1.3.4c-.4.2-.8.6-1.2 1c-.3.5-.6 1-.7 1.5v6.9h-1.8s.04-7.34 0-7.3c0-.9-.1-1.5-.4-1.9c-.3-.4-.7-.6-1.4-.6c-.4 0-.8.1-1.3.4c-.4.2-.8.6-1.1 1c-.4.5-.6 1-.8 1.5c.04-.02 0 6.9 0 6.9h-1.7zm17.2-2.9c0-.7.2-1.4.6-1.9c.3-.4.8-.8 1.4-1c.6-.3 1.5-.5 2.6-.7l2.7-.5c0-1-.3-1.7-.7-2.2c-.5-.4-1.2-.7-2.2-.7c-.7 0-1.4.2-2 .5c-.6.3-1.1.8-1.5 1.3v-1.7c.4-.4.9-.8 1.5-1c.7-.3 1.4-.4 2.2-.4c1.4 0 2.5.3 3.3 1c.8.7 1.2 1.8 1.2 3.1c-.04.04 0 7.1 0 7.1H301s-.34-1.7-.3-1.7c-.5.6-1.1 1.1-1.8 1.5c-.7.3-1.5.5-2.3.5c-1 0-1.8-.3-2.4-.9c-.6-.5-.9-1.3-.9-2.3zm1.8-.1c0 .6.1 1.1.5 1.4c.3.3.8.4 1.4.4c.6 0 1.3-.2 2-.6c.7-.4 1.2-1 1.6-1.8c.02.04 0-2.1 0-2.1c0 0-1.8.38-1.8.4c-1 .2-1.8.3-2.3.5c-.5.1-.8.4-1.1.7c-.2.3-.3.7-.3 1.1zm9.2-2.8c0-1.1.2-2 .6-2.9c.4-.8 1-1.4 1.7-1.9c.7-.4 1.5-.6 2.5-.6c.7 0 1.3.1 1.9.5c.7.4 1.1.8 1.5 1.4c.04.02.2-1.6.2-1.6h1.6s-.02 10.48 0 10.5c0 1-.2 1.9-.7 2.6c-.4.8-1 1.3-1.8 1.8c-.9.4-1.8.6-2.9.6c-.8 0-1.4-.1-2-.3c-.6-.1-1.1-.4-1.6-.7v-1.8c1 .9 2.2 1.3 3.6 1.3c1.1 0 2-.3 2.6-.9c.7-.6 1-1.5 1-2.6v-1.7c-.4.5-.9 1-1.5 1.3c-.6.4-1.2.5-1.9.5c-1 0-1.8-.2-2.5-.6c-.7-.5-1.3-1.1-1.7-1.9c-.4-.9-.6-1.8-.6-3zm1.9 0c0 .9.1 1.6.4 2.2c.3.6.7 1.1 1.1 1.4c.5.4 1.1.5 1.7.5c.6 0 1.2-.2 1.8-.7c.6-.5 1-1.1 1.3-1.8v-3.1c-.3-.7-.7-1.3-1.3-1.8c-.6-.5-1.2-.7-1.9-.7c-.6 0-1.1.1-1.6.4c-.5.4-.8.8-1.1 1.5c-.3.6-.4 1.3-.4 2.1zm10.2.1c0-1.1.2-2 .6-2.9c.4-.8 1-1.5 1.7-1.9c.7-.5 1.6-.7 2.6-.7c1.4 0 2.6.4 3.4 1.4c.8 1 1.3 2.4 1.3 4.2c-.04-.02 0 .7 0 .7h-7.9c.1 1.1.4 2 1 2.7c.6.7 1.4 1.1 2.4 1.1c1.5 0 2.8-.6 3.8-1.7v1.8c-.4.4-1 .7-1.6.9c-.6.3-1.4.4-2.2.4c-1.1 0-2-.3-2.8-.7c-.7-.5-1.3-1.1-1.7-2c-.4-.8-.6-1.8-.6-2.9v-.4zm7.8-.6c0-1.2-.3-2-.8-2.6c-.6-.6-1.3-.9-2.1-.9c-.6 0-1.1.1-1.6.4c-.4.3-.8.7-1.1 1.2c-.3.6-.4 1.2-.5 1.9h6.1zm11 6.3L332 53h1.8l2.5 8.9l2.3-8.9h2.3l2.4 8.9l2.4-8.9h1.7l-3.2 10.9h-2.1l-2.4-9l-2.4 9h-2.1zm15.5-12.7H349v-2.3h1.7v2.3zm0 12.7H349V53h1.7v10.9zm4-9.5h-2.4V53h2.4v-3.4h1.7v3.4h2.5v1.4h-2.5v9.5h-1.7v-9.5zm5.7 9.5V48.6h1.8s-.04 6.52 0 6.5c.4-.7.9-1.2 1.6-1.7c.6-.5 1.4-.7 2.2-.7c1.2 0 2.1.3 2.7 1c.6.7.9 1.7.9 3v7.2h-1.8s.04-7.06 0-7.1c0-.9-.1-1.6-.4-2c-.4-.5-.9-.7-1.6-.7c-.5 0-1 .1-1.5.4c-.5.3-1 .8-1.4 1.3c-.3.5-.6 1-.7 1.6c-.04-.02 0 6.5 0 6.5h-1.8zm18.1-9.5h-2.4V53h2.4v-3.4h1.8v3.4h2.4v1.4h-2.4v9.5h-1.8v-9.5zm5.8 9.5V48.6h1.7s.02 6.52 0 6.5c.4-.7 1-1.2 1.6-1.7c.7-.5 1.4-.7 2.3-.7c1.1 0 2 .3 2.6 1c.6.7 1 1.7 1 3c-.04 0 0 7.2 0 7.2h-1.8v-7.1c0-.9-.2-1.6-.5-2c-.3-.5-.8-.7-1.6-.7c-.5 0-1 .1-1.5.4c-.5.3-.9.8-1.3 1.3c-.4.5-.6 1-.8 1.6c.02-.02 0 6.5 0 6.5h-1.7zm11-5.7c0-1.1.2-2 .7-2.9c.4-.8.9-1.5 1.7-1.9c.7-.5 1.6-.7 2.5-.7c1.5 0 2.7.4 3.5 1.4c.8 1 1.2 2.4 1.2 4.2c.04-.02 0 .7 0 .7h-7.8c.1 1.1.4 2 1 2.7c.6.7 1.4 1.1 2.4 1.1c1.5 0 2.8-.6 3.8-1.7v1.8c-.5.4-1 .7-1.6.9c-.6.3-1.4.4-2.2.4c-1.1 0-2-.3-2.8-.7c-.8-.5-1.3-1.1-1.8-2c-.4-.8-.6-1.8-.6-2.9v-.4zm7.9-.6c0-1.2-.3-2-.8-2.6c-.6-.6-1.3-.9-2.1-.9c-.6 0-1.1.1-1.6.4c-.4.3-.8.7-1.1 1.2c-.3.6-.4 1.2-.5 1.9h6.1zm8.9 2.5c0 1.3.3 2.3.9 3c.6.7 1.5 1.1 2.6 1.1c.9 0 1.6-.3 2.3-.8c.7-.4 1.2-1 1.6-1.7c.02-.02.2 2.2.2 2.2h1.6V53h-1.8v6.4c-.2.6-.4 1.1-.8 1.6c-.4.6-.8 1-1.3 1.3c-.5.3-1 .5-1.5.5c-.8 0-1.3-.3-1.6-.7c-.3-.5-.5-1.2-.5-2.1c.02 0 0-7 0-7h-1.7s-.04 7.14 0 7.1zm12 3.8V53h1.6s.18 2.16.2 2.2c.4-.7.9-1.3 1.6-1.8c.7-.5 1.4-.7 2.3-.7c1.1 0 2 .3 2.6 1c.6.7 1 1.7 1 3c-.04 0 0 7.2 0 7.2h-1.8s-.02-7.06 0-7.1c0-.9-.2-1.6-.5-2c-.3-.5-.9-.7-1.6-.7c-.5 0-1 .1-1.5.4c-.5.4-.9.8-1.3 1.3c-.4.5-.7 1.1-.8 1.6v6.5h-1.8zm13.7-12.7H436v-2.3h1.8v2.3zm0 12.7H436V53h1.8v10.9zm2.1-5.5c0-1.1.2-2.2.6-3c.4-.9 1-1.6 1.7-2c.7-.5 1.6-.7 2.5-.7c.7 0 1.4.1 2 .5c.6.4 1.1.9 1.5 1.5c.02.02.2-1.7.2-1.7h1.6v15.3h-1.8v-6.1c-.4.6-.9 1.1-1.6 1.4c-.6.4-1.2.6-1.9.6c-.9 0-1.8-.3-2.5-.7c-.7-.5-1.3-1.2-1.7-2.1c-.4-.8-.6-1.8-.6-3zm1.8 0c0 .9.2 1.7.4 2.3c.3.7.7 1.2 1.2 1.5c.5.4 1.1.6 1.7.6c.7 0 1.3-.3 1.9-.8c.6-.5 1-1.1 1.3-1.8v-3.5c-.3-.8-.7-1.4-1.3-1.9c-.6-.5-1.3-.7-1.9-.7c-.7 0-1.2.1-1.7.5c-.5.3-.9.8-1.2 1.5c-.2.7-.4 1.4-.4 2.3zm10.9 1.7c0 1.3.3 2.3 1 3c.6.7 1.4 1.1 2.6 1.1c.8 0 1.6-.3 2.3-.8c.7-.4 1.2-1 1.6-1.7l.1 2.2h1.7V53h-1.8s-.02 6.4 0 6.4c-.2.6-.4 1.1-.8 1.6c-.4.6-.8 1-1.3 1.3c-.5.3-1 .5-1.5.5c-.8 0-1.3-.3-1.6-.7c-.3-.5-.5-1.2-.5-2.1v-7h-1.8s.04 7.14 0 7.1zm11.3-1.9c0-1.1.2-2 .6-2.9c.4-.8 1-1.5 1.8-1.9c.7-.5 1.6-.7 2.5-.7c1.5 0 2.6.4 3.5 1.4c.8 1 1.2 2.4 1.2 4.2c.02-.02 0 .7 0 .7h-7.8c0 1.1.4 2 1 2.7c.5.7 1.3 1.1 2.3 1.1c1.6 0 2.9-.6 3.9-1.7v1.8c-.5.4-1 .7-1.6.9c-.7.3-1.4.4-2.3.4c-1 0-1.9-.3-2.7-.7c-.8-.5-1.4-1.1-1.8-2c-.4-.8-.6-1.8-.6-2.9v-.4zm7.9-.6c-.1-1.2-.3-2-.9-2.6c-.5-.6-1.2-.9-2.1-.9c-.5 0-1 .1-1.5.4c-.5.3-.8.7-1.1 1.2c-.3.6-.5 1.2-.5 1.9h6.1zm8.3.8c0-1.1.2-2.2.6-3c.4-.9 1-1.6 1.7-2c.7-.5 1.5-.7 2.5-.7c.6 0 1.3.1 1.9.5c.6.3 1.2.8 1.6 1.4c-.04-.02 0-6 0-6h1.7v15.3h-1.6s-.12-1.72-.1-1.7c-.4.6-.9 1.1-1.5 1.4c-.7.4-1.3.6-2 .6c-1 0-1.8-.3-2.5-.7c-.7-.5-1.3-1.2-1.7-2.1c-.4-.8-.6-1.8-.6-3zm1.8 0c0 .9.1 1.7.4 2.3c.3.7.7 1.2 1.2 1.5c.5.4 1 .6 1.6.6c.7 0 1.4-.3 1.9-.8c.6-.5 1.1-1.1 1.4-1.8v-3.6c-.3-.7-.8-1.3-1.4-1.8c-.5-.5-1.2-.7-1.8-.7c-.7 0-1.2.1-1.7.5c-.5.3-.9.8-1.2 1.5c-.3.7-.4 1.4-.4 2.3zm12.9-7.2H493v-2.3h1.8v2.3zm0 12.7H493V53h1.8v10.9zm2.1-5.8c0-1.1.2-2 .6-2.9c.4-.8.9-1.4 1.6-1.9c.8-.4 1.6-.6 2.5-.6c.7 0 1.4.1 2 .5c.6.4 1.1.8 1.5 1.4c-.02.02.1-1.6.1-1.6h1.6s.02 10.48 0 10.5c0 1-.2 1.9-.6 2.6c-.5.8-1.1 1.3-1.9 1.8c-.8.4-1.8.6-2.9.6c-.7 0-1.4-.1-2-.3c-.5-.1-1-.4-1.5-.7v-1.8c1 .9 2.2 1.3 3.5 1.3c1.1 0 2-.3 2.7-.9c.6-.6 1-1.5 1-2.6v-1.7c-.4.5-.9 1-1.5 1.3c-.6.4-1.3.5-2 .5c-.9 0-1.7-.2-2.5-.6c-.7-.5-1.2-1.1-1.6-1.9c-.4-.9-.6-1.8-.6-3zm1.8 0c0 .9.1 1.6.4 2.2c.3.6.7 1.1 1.2 1.4c.5.4 1 .5 1.6.5c.7 0 1.3-.2 1.9-.7c.5-.5 1-1.1 1.3-1.8v-3.1c-.3-.7-.8-1.3-1.3-1.8c-.6-.5-1.3-.7-1.9-.7c-.6 0-1.1.1-1.6.4c-.5.4-.9.8-1.2 1.5c-.3.6-.4 1.3-.4 2.1zm12.8-6.9h-1.8v-2.3h1.8v2.3zm0 12.7h-1.8V53h1.8v10.9zm3.9-9.5H513V53h2.4v-3.4h1.8v3.4h2.4v1.4h-2.4v9.5h-1.8v-9.5zm4.9 6.6c0-.7.2-1.4.6-1.9c.4-.4.8-.8 1.5-1c.6-.3 1.4-.5 2.5-.7l2.8-.5c-.1-1-.3-1.7-.8-2.2c-.5-.4-1.2-.7-2.1-.7c-.7 0-1.4.2-2 .5c-.6.3-1.2.8-1.6 1.3v-1.7c.4-.4 1-.8 1.6-1c.7-.3 1.4-.4 2.1-.4c1.4 0 2.5.3 3.3 1c.8.7 1.2 1.8 1.2 3.1v7.1H528l-.3-1.7c-.5.6-1.1 1.1-1.8 1.5c-.7.3-1.4.5-2.2.5c-1 0-1.8-.3-2.5-.9c-.6-.5-.9-1.3-.9-2.3zm1.8-.1c0 .6.2 1.1.5 1.4c.4.3.8.4 1.4.4c.7 0 1.4-.2 2.1-.6c.7-.4 1.2-1 1.6-1.8c-.03.04 0-2.1 0-2.1c0 0-1.85.38-1.8.4c-1 .2-1.8.3-2.3.5c-.5.1-.9.4-1.1.7c-.3.3-.4.7-.4 1.1zm11.8 3h-1.7V48.6h1.7v15.3z" stroke="none" fill="#000"/></g></svg>