<?xml version="1.0" standalone="no"?><!DOCTYPE svg PUBLIC "-//W3C//DTD SVG 1.1//EN" "http://www.w3.org/Graphics/SVG/1.1/DTD/svg11.dtd"><svg xmlns="http://www.w3.org/2000/svg" version="1.1" width="173px" height="57.2px" viewBox="0 -6 173 57.2" style="top:-6px"><desc>텍스트 B</desc><defs/><g id="Polygon10881"><path d="m28.2 35.9c.5.7 1 1.2 1.7 1.6c.7.4 1.5.6 2.2.6c.6 0 1.2-.1 1.6-.3c.4-.2.7-.5 1-.9c.2-.4.3-.7.3-1.1c0-.6-.2-1-.5-1.4c-.4-.4-.9-.8-1.6-1.2l-1.9-1c-.8-.4-1.5-.9-1.9-1.5c-.5-.5-.7-1.2-.7-2c0-.7.2-1.3.5-1.8c.3-.5.8-.9 1.4-1.2c.6-.3 1.3-.5 2.2-.5c.6 0 1.3.2 2 .5c.7.2 1.2.6 1.7 1.1v1.9c-.5-.6-1.1-1.1-1.7-1.5c-.7-.4-1.4-.6-2-.6c-.7 0-1.3.2-1.7.6c-.5.3-.7.8-.7 1.4c0 .4.2.8.5 1.2c.3.3.8.7 1.5 1l1.9 1c.9.5 1.6 1.1 2 1.7c.5.6.7 1.3.7 2.2c0 .7-.2 1.4-.5 2c-.4.5-.9 1-1.6 1.3c-.7.3-1.5.5-2.5.5c-.8 0-1.6-.2-2.3-.5c-.7-.3-1.2-.6-1.6-1.1v-2zm12.2 3.3l-2.9-9.8h1.7l2.2 8l2.1-8h2l2.2 8l2.2-8h1.5l-2.9 9.8h-1.9l-2.2-8.1l-2.1 8.1h-1.9zm14-11.5h-1.6v-2h1.6v2zm0 11.5h-1.6v-9.8h1.6v9.8zm5.2 0l-3.8-9.8h1.7l3 8.1l3.1-8.1h1.5l-3.7 9.8h-1.8zm6.2-5.2c0-.9.2-1.8.5-2.5c.4-.8.9-1.4 1.6-1.8c.7-.4 1.4-.6 2.3-.6c1.3 0 2.4.4 3.1 1.3c.8.9 1.1 2.1 1.1 3.8c.03-.05 0 .6 0 .6h-7c0 1 .3 1.8.9 2.4c.5.7 1.2 1 2.1 1c1.4 0 2.5-.5 3.5-1.5v1.6c-.4.4-.9.7-1.5.9c-.6.2-1.2.3-2 .3c-1 0-1.8-.2-2.5-.7c-.7-.4-1.2-1-1.6-1.7c-.3-.8-.5-1.7-.5-2.7v-.4zm7-.4c0-1.1-.2-1.9-.7-2.4c-.5-.6-1.1-.8-1.9-.8c-.5 0-.9.1-1.4.3c-.4.3-.7.7-1 1.2c-.2.4-.4 1-.4 1.7h5.4zm5.1 5.6h-1.6V25.4h1.6v13.8zm4.2-11.5h-1.6v-2h1.6v2zm0 11.5h-1.6v-9.8h1.6v9.8zm2.6 0v-9.8h1.4s.16 1.94.2 1.9c.3-.6.8-1.1 1.4-1.5c.6-.5 1.3-.7 2.1-.7c1 0 1.8.3 2.4.9c.5.7.8 1.6.8 2.7v6.5h-1.6v-6.3c0-.9-.2-1.5-.4-1.9c-.3-.4-.8-.6-1.5-.6c-.4 0-.9.1-1.3.4c-.5.3-.9.7-1.2 1.1c-.4.5-.6 1-.7 1.5c-.02 0 0 5.8 0 5.8h-1.6zm10-5.2c0-1 .2-1.8.5-2.6c.4-.7.9-1.3 1.5-1.7c.7-.4 1.4-.6 2.3-.6c.6 0 1.2.2 1.7.5c.6.3 1 .7 1.4 1.3c-.02-.04.1-1.5.1-1.5h1.4s.05 9.43 0 9.4c0 .9-.1 1.7-.5 2.4c-.4.7-1 1.2-1.7 1.6c-.8.3-1.6.5-2.6.5c-.7 0-1.3 0-1.8-.2c-.5-.1-1-.4-1.4-.7v-1.5c.9.7 2 1.1 3.2 1.1c1 0 1.8-.3 2.4-.8c.6-.6.9-1.4.9-2.4v-1.5c-.4.5-.8.9-1.4 1.2c-.5.3-1.1.5-1.7.5c-.9 0-1.6-.2-2.3-.6c-.6-.4-1.1-1-1.5-1.7c-.3-.8-.5-1.7-.5-2.7zm1.6 0c0 .8.2 1.4.4 2c.3.5.6 1 1.1 1.3c.4.3.9.4 1.4.4c.6 0 1.2-.2 1.7-.6c.5-.5.9-1 1.2-1.7v-2.8c-.3-.6-.7-1.2-1.2-1.6c-.5-.4-1.1-.6-1.7-.6c-.5 0-1 .1-1.4.4c-.5.3-.8.7-1.1 1.3c-.2.5-.4 1.2-.4 1.9zm14.4 1.9c.4.7 1 1.2 1.7 1.6c.7.4 1.4.6 2.2.6c.6 0 1.1-.1 1.5-.3c.5-.2.8-.5 1-.9c.2-.4.3-.7.3-1.1c0-.6-.2-1-.5-1.4c-.3-.4-.8-.8-1.5-1.2l-2-1c-.8-.4-1.4-.9-1.9-1.5c-.4-.5-.7-1.2-.7-2c0-.7.2-1.3.5-1.8c.4-.5.8-.9 1.4-1.2c.7-.3 1.4-.5 2.2-.5c.7 0 1.4.2 2 .5c.7.2 1.3.6 1.7 1.1v1.9c-.5-.6-1-1.1-1.7-1.5c-.7-.4-1.3-.6-2-.6c-.7 0-1.3.2-1.7.6c-.4.3-.6.8-.6 1.4c0 .4.1.8.4 1.2c.3.3.8.7 1.5 1l1.9 1c.9.5 1.6 1.1 2.1 1.7c.4.6.6 1.3.6 2.2c0 .7-.1 1.4-.5 2c-.4.5-.9 1-1.6 1.3c-.7.3-1.5.5-2.4.5c-.9 0-1.7-.2-2.3-.5c-.7-.3-1.3-.6-1.6-1.1v-2zm9.8-1.9c0-.9.2-1.8.6-2.5c.4-.8.9-1.4 1.5-1.8c.7-.4 1.5-.6 2.3-.6c1.4 0 2.4.4 3.1 1.3c.8.9 1.2 2.1 1.2 3.8c-.03-.05 0 .6 0 .6h-7.1c.1 1 .4 1.8.9 2.4c.5.7 1.2 1 2.1 1c1.4 0 2.6-.5 3.5-1.5v1.6c-.4.4-.9.7-1.5.9c-.5.2-1.2.3-2 .3c-.9 0-1.7-.2-2.4-.7c-.7-.4-1.3-1-1.6-1.7c-.4-.8-.6-1.7-.6-2.7v-.4zm7.1-.4c0-1.1-.3-1.9-.8-2.4c-.4-.6-1.1-.8-1.8-.8c-.5 0-1 .1-1.4.3c-.4.3-.8.7-1 1.2c-.3.4-.4 1-.5 1.7h5.5zm2.8 3c0-.7.2-1.2.5-1.7c.3-.4.7-.7 1.3-.9c.6-.3 1.3-.5 2.3-.7l2.5-.4c-.1-.9-.3-1.5-.7-1.9c-.4-.5-1.1-.7-1.9-.7c-.7 0-1.3.2-1.8.5c-.6.3-1 .6-1.4 1.1v-1.5c.3-.4.8-.7 1.4-.9c.6-.3 1.2-.4 1.9-.4c1.3 0 2.2.3 3 .9c.7.7 1 1.6 1 2.9c.05-.04 0 6.3 0 6.3h-1.2s-.28-1.52-.3-1.5c-.4.5-1 1-1.6 1.3c-.6.3-1.3.5-2 .5c-.9 0-1.7-.3-2.2-.8c-.6-.5-.8-1.2-.8-2.1zm1.6-.1c0 .6.1 1 .4 1.2c.4.3.8.5 1.3.5c.6 0 1.2-.2 1.8-.6c.6-.4 1.1-.9 1.5-1.6c-.02.01 0-1.9 0-1.9c0 0-1.66.32-1.7.3c-.9.2-1.5.3-2 .5c-.4.1-.8.3-1 .6c-.2.3-.3.6-.3 1zm10-5.9h-2.2v-1.2h2.2v-3h1.6v3h2.1v1.2h-2.1v8.6H142v-8.6z" stroke="none" fill="#939598"/></g><g id="Polygon10880"><path d="m51 15.2V14s4.72-5.04 4.7-5c.6-.7 1.1-1.3 1.4-1.8c.2-.5.3-1.1.3-1.7c0-.8-.2-1.4-.7-1.9c-.4-.5-1-.7-1.8-.7c-.7 0-1.3.2-1.9.5c-.5.4-1 .9-1.4 1.6V2.9c.3-.3.8-.7 1.4-1c.6-.2 1.3-.4 2-.4c.9 0 1.6.2 2.2.5c.7.4 1.1.9 1.5 1.5c.3.6.5 1.2.5 2c0 .6-.1 1.2-.3 1.7c-.3.5-.5 1-.8 1.4c-.4.5-.8 1-1.4 1.6c.03-.01-3.4 3.6-3.4 3.6h6.2v1.4H51zm10.5 0V5.4h1.4s.15 1.94.1 1.9c.4-.6.9-1.1 1.5-1.5c.6-.5 1.3-.7 2.1-.7c1 0 1.8.3 2.3.9c.6.7.9 1.6.9 2.7c-.02.03 0 6.5 0 6.5h-1.6s-.02-6.34 0-6.3c0-.9-.2-1.5-.5-1.9c-.2-.4-.7-.6-1.4-.6c-.4 0-.9.1-1.3.4c-.5.3-.9.7-1.2 1.1c-.4.5-.6 1-.7 1.5c-.04 0 0 5.8 0 5.8h-1.6zm10-4.9c0-1.1.2-2 .5-2.8c.4-.7.9-1.3 1.6-1.8c.6-.4 1.4-.6 2.2-.6c.6 0 1.2.2 1.8.5c.5.3 1 .7 1.3 1.2c.04.02 0-5.4 0-5.4h1.6v13.8h-1.4s-.14-1.54-.1-1.5c-.4.5-.8.9-1.4 1.3c-.6.3-1.2.5-1.8.5c-.8 0-1.6-.3-2.2-.7c-.7-.4-1.2-1-1.6-1.8c-.3-.8-.5-1.7-.5-2.7zm1.6 0c0 .8.2 1.5.4 2.1c.3.6.6 1 1 1.3c.5.3 1 .5 1.5.5c.7 0 1.2-.2 1.8-.7c.5-.4.9-1 1.1-1.6V8.7c-.2-.7-.6-1.3-1.1-1.7c-.6-.4-1.1-.6-1.7-.6c-.6 0-1.1.1-1.5.4c-.5.3-.8.8-1.1 1.4c-.2.6-.4 1.3-.4 2.1zm14.8 4.9V1.5s4.95.01 5 0c.8 0 1.6.2 2.3.5c.7.3 1.2.8 1.6 1.3c.4.6.6 1.3.6 2v.3c0 1-.3 1.9-1 2.5c-.7.7-1.7 1.1-2.8 1.3l4.5 5.8H96l-4.4-5.8h-2v5.8h-1.7zM92.7 8c.9 0 1.6-.2 2.2-.6c.5-.5.8-1.1.8-1.8v-.3c0-.7-.3-1.3-.8-1.8c-.6-.4-1.3-.6-2.2-.6c-.03-.04-3.1 0-3.1 0v5.1s3.07.05 3.1 0zm6 2.1c0-.9.2-1.8.6-2.6c.4-.8.9-1.4 1.6-1.8c.7-.4 1.5-.6 2.4-.6c.9 0 1.7.2 2.4.6c.7.4 1.3 1 1.7 1.8c.3.8.5 1.7.5 2.6v.3c0 1-.2 1.9-.5 2.7c-.4.7-1 1.3-1.7 1.7c-.7.5-1.5.7-2.4.7c-.9 0-1.7-.2-2.4-.7c-.7-.4-1.2-1-1.6-1.7c-.4-.8-.6-1.7-.6-2.7v-.3zm1.7.3c0 1.2.2 2.1.8 2.8c.5.7 1.2 1 2.1 1c1 0 1.7-.3 2.2-1c.5-.7.8-1.6.8-2.8v-.3c0-1.1-.3-2-.8-2.7c-.5-.7-1.2-1-2.2-1c-.9 0-1.6.3-2.1 1c-.6.7-.8 1.6-.8 2.7v.3zm11 4.8l-2.9-9.8h1.7l2.1 8l2.2-8h2l2.1 8l2.3-8h1.5l-2.9 9.8h-1.9l-2.2-8.1l-2.2 8.1h-1.8z" stroke="none" fill="#939598"/></g></svg>