<?xml version="1.0" standalone="no"?><!DOCTYPE svg PUBLIC "-//W3C//DTD SVG 1.1//EN" "http://www.w3.org/Graphics/SVG/1.1/DTD/svg11.dtd"><svg xmlns="http://www.w3.org/2000/svg" version="1.1" width="173px" height="57.2px" viewBox="0 -6 173 57.2" style="top:-6px"><desc>텍스트 B</desc><defs/><g id="Polygon10360"><path d="m9.6 39.2h-8V25.5h1.6v12.3h6.4v1.4zm3.2-11.5h-1.6v-2h1.6v2zm0 11.5h-1.6v-9.8h1.6v9.8zm1.9-5.2c0-1 .2-1.8.6-2.6c.3-.7.8-1.3 1.5-1.7c.6-.4 1.4-.6 2.2-.6c.6 0 1.2.2 1.8.5c.5.3 1 .7 1.3 1.3c.02-.04.1-1.5.1-1.5h1.5v9.4c0 .9-.2 1.7-.6 2.4c-.4.7-.9 1.2-1.7 1.6c-.7.3-1.6.5-2.6.5c-.7 0-1.2 0-1.7-.2c-.6-.1-1-.4-1.5-.7v-1.5c1 .7 2 1.1 3.2 1.1c1 0 1.8-.3 2.4-.8c.6-.6.9-1.4.9-2.4v-1.5c-.3.5-.8.9-1.3 1.2c-.6.3-1.2.5-1.8.5c-.8 0-1.6-.2-2.2-.6c-.7-.4-1.2-1-1.5-1.7c-.4-.8-.6-1.7-.6-2.7zm1.7 0c0 .8.1 1.4.4 2c.2.5.6 1 1 1.3c.4.3.9.4 1.5.4c.6 0 1.1-.2 1.6-.6c.6-.5 1-1 1.2-1.7v-2.8c-.2-.6-.6-1.2-1.2-1.6c-.5-.4-1.1-.6-1.7-.6c-.5 0-1 .1-1.4.4c-.4.3-.8.7-1 1.3c-.3.5-.4 1.2-.4 1.9zm9.9 5.2V25.4h1.6s-.04 5.91 0 5.9c.3-.6.8-1.1 1.4-1.6c.6-.4 1.3-.6 2-.6c1.1 0 1.9.3 2.4.9c.6.7.9 1.6.9 2.7c-.04.03 0 6.5 0 6.5H33s-.02-6.34 0-6.3c0-.9-.2-1.5-.5-1.9c-.2-.4-.7-.6-1.4-.6c-.4 0-.9.1-1.3.4c-.5.3-.9.6-1.2 1.1c-.4.4-.6.9-.7 1.4c-.04.04 0 5.9 0 5.9h-1.6zm11.6-8.6h-2.1v-1.2h2.1v-3h1.6v3h2.2v1.2h-2.2v8.6h-1.6v-8.6zm6.8-2.9h-1.6v-2h1.6v2zm0 11.5h-1.6v-9.8h1.6v9.8zm2.5 0v-9.8h1.5s.12 1.94.1 1.9c.4-.6.9-1.1 1.5-1.5c.6-.5 1.3-.7 2-.7c1.1 0 1.9.3 2.4.9c.6.7.8 1.6.8 2.7c.05.03 0 6.5 0 6.5h-1.6s.05-6.34 0-6.3c0-.9-.1-1.5-.4-1.9c-.3-.4-.8-.6-1.4-.6c-.5 0-.9.1-1.4.4c-.4.3-.8.7-1.2 1.1c-.3.5-.5 1-.7 1.5c.03 0 0 5.8 0 5.8h-1.6zm10-5.2c0-1 .2-1.8.6-2.6c.3-.7.8-1.3 1.5-1.7c.6-.4 1.4-.6 2.2-.6c.7 0 1.3.2 1.8.5c.5.3 1 .7 1.3 1.3c.04-.04.2-1.5.2-1.5h1.4v9.4c0 .9-.2 1.7-.6 2.4c-.4.7-.9 1.2-1.7 1.6c-.7.3-1.6.5-2.6.5c-.6 0-1.2 0-1.7-.2c-.5-.1-1-.4-1.4-.7v-1.5c.9.7 1.9 1.1 3.1 1.1c1 0 1.8-.3 2.4-.8c.6-.6.9-1.4.9-2.4v-1.5c-.3.5-.8.9-1.3 1.2c-.6.3-1.2.5-1.8.5c-.8 0-1.6-.2-2.2-.6c-.7-.4-1.2-1-1.5-1.7c-.4-.8-.6-1.7-.6-2.7zm1.7 0c0 .8.1 1.4.4 2c.2.5.6 1 1 1.3c.5.3.9.4 1.5.4c.6 0 1.1-.2 1.7-.6c.5-.5.9-1 1.1-1.7v-2.8c-.2-.6-.6-1.2-1.2-1.6c-.5-.4-1-.6-1.6-.6c-.6 0-1.1.1-1.5.4c-.4.3-.8.7-1 1.3c-.3.5-.4 1.2-.4 1.9z" stroke="none" fill="#939598"/></g><g id="Polygon10359"><path d="m1.6 15.2V1.5h4.2c1.3 0 2.4.3 3.4.9c1 .6 1.8 1.4 2.3 2.4c.6 1 .9 2.1.9 3.4v.3c0 1.3-.3 2.4-.9 3.4c-.5 1-1.3 1.8-2.3 2.4c-1 .6-2.1.9-3.4.9H1.6zm4.1-1.4c1 0 1.8-.2 2.5-.6c.8-.5 1.4-1.1 1.8-1.9c.4-.8.6-1.8.6-2.8v-.3c0-1.1-.2-2-.6-2.8c-.4-.8-1-1.4-1.8-1.9c-.7-.4-1.5-.6-2.5-.6c.02-.02-2.5 0-2.5 0v10.9s2.52.02 2.5 0zM15.9 3.7h-1.6v-2h1.6v2zm0 11.5h-1.6V5.4h1.6v9.8zm1.9-5.2c0-1 .2-1.8.6-2.6c.3-.7.8-1.3 1.5-1.7c.6-.4 1.4-.6 2.2-.6c.6 0 1.2.2 1.8.5c.5.3 1 .7 1.3 1.3c.02-.04.1-1.5.1-1.5h1.5s-.02 9.43 0 9.4c0 .9-.2 1.7-.6 2.4c-.4.7-.9 1.2-1.7 1.6c-.7.3-1.6.5-2.6.5c-.7 0-1.2 0-1.7-.2c-.6-.1-1-.4-1.5-.7v-1.5c.9.7 2 1.1 3.2 1.1c1 0 1.8-.3 2.4-.8c.6-.6.9-1.4.9-2.4v-1.5c-.3.5-.8.9-1.3 1.2c-.6.3-1.2.5-1.8.5c-.8 0-1.6-.2-2.2-.6c-.7-.4-1.2-1-1.5-1.7c-.4-.8-.6-1.7-.6-2.7zm1.7 0c0 .8.1 1.4.4 2c.2.5.6 1 1 1.3c.4.3.9.4 1.5.4c.6 0 1.1-.2 1.6-.6c.6-.5.9-1 1.2-1.7V8.6C24.9 8 24.6 7.4 24 7c-.5-.4-1.1-.6-1.7-.6c-.5 0-1 .1-1.4.4c-.4.3-.8.7-1 1.3c-.3.5-.4 1.2-.4 1.9zM31 3.7h-1.6v-2h1.6v2zm0 11.5h-1.6V5.4h1.6v9.8zm3.5-8.6h-2.2V5.4h2.2v-3h1.6v3h2.2v1.2h-2.2v8.6h-1.6V6.6zm4.5 6c0-.7.1-1.2.5-1.7c.3-.4.7-.7 1.3-.9c.5-.3 1.3-.5 2.3-.7l2.4-.4c0-.9-.2-1.5-.6-1.9c-.4-.5-1.1-.7-2-.7c-.6 0-1.2.2-1.7.5c-.6.3-1.1.6-1.5 1.1V6.4c.4-.4.9-.7 1.5-.9c.6-.3 1.2-.4 1.9-.4c1.2 0 2.2.3 2.9.9c.8.7 1.1 1.6 1.1 2.9c.02-.04 0 6.3 0 6.3h-1.2l-.3-1.5c-.5.5-1 1-1.6 1.3c-.6.3-1.3.5-2 .5c-1 0-1.7-.3-2.2-.8c-.6-.5-.8-1.2-.8-2.1zm1.6-.1c0 .6.1 1 .4 1.2c.3.3.7.5 1.3.5c.6 0 1.2-.2 1.8-.6c.6-.4 1.1-.9 1.5-1.6c-.04.01 0-1.9 0-1.9c0 0-1.68.32-1.7.3c-.9.2-1.6.3-2 .5c-.5.1-.8.3-1 .6c-.2.3-.3.6-.3 1zm10.6 2.7h-1.6V1.4h1.6v13.8zm7.3 0V1.5s4.97.01 5 0c.9 0 1.7.2 2.4.5c.6.3 1.2.8 1.6 1.4c.3.6.5 1.2.5 2v.3c0 .7-.2 1.4-.5 2c-.4.6-1 1-1.6 1.3c-.7.4-1.5.5-2.4.5c-.03.04-3.3 0-3.3 0v5.7h-1.7zm4.8-7c.9 0 1.7-.3 2.2-.7c.5-.5.8-1.1.8-1.8v-.3c0-.8-.3-1.4-.8-1.8c-.5-.5-1.3-.7-2.2-.7c-.01-.04-3.1 0-3.1 0v5.3s3.09-.03 3.1 0zm5.6 4.4c0-.7.2-1.2.5-1.7c.3-.4.7-.7 1.3-.9c.6-.3 1.3-.5 2.3-.7l2.5-.4c-.1-.9-.3-1.5-.7-1.9c-.4-.5-1.1-.7-1.9-.7c-.7 0-1.3.2-1.8.5c-.6.3-1 .6-1.4 1.1V6.4c.3-.4.8-.7 1.4-.9c.6-.3 1.2-.4 1.9-.4c1.3 0 2.3.3 3 .9c.7.7 1.1 1.6 1.1 2.9c-.04-.04 0 6.3 0 6.3h-1.3s-.27-1.52-.3-1.5c-.4.5-1 1-1.6 1.3c-.6.3-1.3.5-2 .5c-.9 0-1.6-.3-2.2-.8c-.5-.5-.8-1.2-.8-2.1zm1.6-.1c0 .6.1 1 .5 1.2c.3.3.7.5 1.2.5c.6 0 1.2-.2 1.8-.6c.7-.4 1.1-.9 1.5-1.6v-1.9s-1.65.32-1.6.3c-.9.2-1.6.3-2.1.5c-.4.1-.8.3-1 .6c-.2.3-.3.6-.3 1zm10-5.9h-2.2V5.4h2.2v-3h1.6v3h2.1v1.2h-2.1v8.6h-1.6V6.6zm6.4 0h-2.1V5.4h2.1v-3h1.6v3h2.2v1.2h-2.2v8.6h-1.6V6.6zm4.5 3.4c0-.9.2-1.8.5-2.5c.4-.8.9-1.4 1.6-1.8c.6-.4 1.4-.6 2.3-.6c1.3 0 2.3.4 3.1 1.3c.7.9 1.1 2.1 1.1 3.8v.6h-7c0 1 .3 1.8.8 2.4c.6.7 1.3 1 2.2 1c1.4 0 2.5-.5 3.4-1.5v1.6c-.4.4-.9.7-1.4.9c-.6.2-1.2.3-2 .3c-1 0-1.8-.2-2.5-.7c-.7-.4-1.2-1-1.6-1.7c-.4-.8-.5-1.7-.5-2.7v-.4zm7-.4c0-1.1-.2-1.9-.7-2.4c-.5-.6-1.1-.8-1.9-.8c-.5 0-1 .1-1.4.3c-.4.3-.7.7-1 1.2c-.2.4-.4 1-.4 1.7h5.4zm3.5 5.6V5.4h1.5s.06 1.67.1 1.7c.2-.6.6-1.1 1.1-1.5c.5-.3 1.1-.5 1.8-.5h.5c.2.1.3.1.4.1v1.4c-.2-.1-.6-.1-1-.1c-.6 0-1.2.2-1.7.6c-.5.4-.9 1-1.1 1.7v6.4h-1.6zm6.8 0V5.4h1.4s.17 1.94.2 1.9c.3-.6.8-1.1 1.4-1.5c.6-.5 1.3-.7 2.1-.7c1 0 1.8.3 2.4.9c.5.7.8 1.6.8 2.7v6.5h-1.6V8.9c0-.9-.1-1.5-.4-1.9c-.3-.4-.8-.6-1.5-.6c-.4 0-.9.1-1.3.4c-.5.3-.9.7-1.2 1.1c-.3.5-.6 1-.7 1.5c-.02 0 0 5.8 0 5.8h-1.6z" stroke="none" fill="#939598"/></g></svg>