<?xml version="1.0" standalone="no"?><!DOCTYPE svg PUBLIC "-//W3C//DTD SVG 1.1//EN" "http://www.w3.org/Graphics/SVG/1.1/DTD/svg11.dtd"><svg xmlns="http://www.w3.org/2000/svg" version="1.1" width="390px" height="72.3px" viewBox="0 -2 390 72.3" style="top:-2px"><desc>65세 이상 고령자에게 안전 운전 및 안전 보행 교육, 운전능력 자가진단 등을 제공하는 활동이다. 2016년부터 전국 199개 노인복지관, 약 16,451명이 교육을 수료했으며, 2021년에는 전국 40개 노인...</desc><defs/><g id="Polygon117205"><path d="m7.5 56h.8v9.2h-.8v-4.8H6.3v4.3h-.8v-8.4h.8v3.4h1.2V56zM.9 57.2s3.56.02 3.6 0c0 .6-.1 1.2-.2 1.8c-.1.5-.3 1-.6 1.6c-.2.5-.6 1-1 1.4c-.5.5-1 .9-1.7 1.2l-.5-.6c.6-.3 1-.6 1.4-.9c.4-.4.7-.8.9-1.2c.3-.4.5-.8.6-1.2c.1-.5.2-.9.2-1.4H.9v-.7zm15.5 5.7v-4h-2v-.7h2v-2.1h.9v6.8h-.9zm-1.3-2.2l-.5.7c-.5-.2-.9-.5-1.3-.9c-.4-.4-.7-.8-.9-1.3c-.2.5-.4 1-.8 1.4c-.4.4-.9.8-1.4 1l-.5-.7c.4-.1.7-.3 1-.5l.7-.7c.2-.3.3-.6.5-1c.1-.3.1-.6.1-1c.02.02 0-1.1 0-1.1h.9s-.05 1.15 0 1.2c0 .3 0 .6.1.9c.1.3.3.6.5.8c.2.3.4.5.7.7c.2.2.5.4.9.5zm-2.9 3.6h5.3v.7h-6.1v-2.9h.8v2.2zM23 59.4c-1 0-1.8-.2-2.3-.4c-.6-.3-.9-.7-.9-1.2c0-.5.3-.9.9-1.2c.5-.3 1.3-.4 2.3-.4c1 0 1.8.1 2.4.4c.6.3.8.7.8 1.2c0 .5-.2.9-.8 1.2c-.6.2-1.4.4-2.4.4zm0-2.6c-.7 0-1.3.1-1.7.3c-.4.1-.6.4-.6.7c0 .3.2.5.6.7c.4.2 1 .2 1.7.2c.8 0 1.4 0 1.8-.2c.4-.2.6-.4.6-.7c0-.3-.2-.6-.6-.7c-.4-.2-1-.3-1.8-.3zM18.9 60h8.3v.7h-8.3v-.7zm1.8 3.5v.9h5.7v.7h-6.5v-2.2h5.4v-.8h-5.4v-.7h6.2v2.1h-5.4zM36.8 56h.8v9.2h-.8V56zm-4 .7c.4 0 .7.1 1 .3c.2.1.5.3.7.6c.2.3.4.6.5 1c.1.4.1.8.1 1.3c0 .5 0 1-.1 1.4c-.1.3-.3.7-.5 1c-.2.2-.5.5-.7.6c-.3.2-.6.2-1 .2c-.3 0-.6 0-.9-.2c-.3-.1-.5-.4-.7-.6c-.3-.3-.4-.7-.5-1c-.1-.4-.2-.9-.2-1.4c0-.5.1-.9.2-1.3c.1-.4.2-.7.5-1c.2-.3.4-.5.7-.6c.3-.2.6-.3.9-.3zm0 .8c-.2 0-.4.1-.6.2c-.2.1-.3.3-.5.5c-.1.2-.2.4-.3.7c-.1.3-.1.7-.1 1c0 .4 0 .7.1 1c.1.3.2.6.3.8c.2.2.3.4.5.5c.2.1.4.2.6.2c.2 0 .5-.1.6-.2c.2-.1.4-.3.5-.5c.2-.2.3-.5.3-.8c.1-.3.1-.6.1-1c0-.3 0-.7-.1-1c0-.3-.1-.5-.3-.7c-.1-.2-.3-.4-.5-.5c-.1-.1-.4-.2-.6-.2zm13.5 1.9h1.3v.7h-8.3v-.7h2.6c.1-.5.2-1 .3-1.4v-.9c.04-.03-2.1 0-2.1 0v-.7h3s-.05.31 0 .3c0 .3-.1.6-.1 1.1c0 .4-.1 1-.3 1.6h2.8c.1-.5.2-1 .2-1.4c0-.3.1-.7.1-.9c-.02-.03-2.1 0-2.1 0v-.7h2.9v1.4c-.1.4-.1 1-.3 1.6zm-5.1 3.9v1.1h5.7v.7h-6.5v-2.4h5.3v-1h-5.4v-.7h6.3v2.3h-5.4zm14-7.3h.9v9.2h-.9v-5h-2c0 .5-.1.9-.2 1.2c-.1.4-.3.7-.4.9c-.2.3-.5.5-.7.6c-.3.2-.6.2-.9.2c-.4 0-.7 0-.9-.2c-.3-.1-.6-.4-.8-.6c-.2-.3-.3-.7-.4-1c-.2-.4-.2-.9-.2-1.4c0-.5 0-.9.2-1.3c.1-.4.2-.7.4-1c.2-.3.5-.5.8-.6c.2-.2.5-.3.9-.3c.3 0 .6.1.8.2c.3.2.5.4.7.6c.2.2.4.5.5.9c.1.3.2.7.2 1.1c.03.03 2 0 2 0V56zM51 62.4c.2 0 .4-.1.6-.2c.1-.1.3-.3.4-.5c.2-.2.3-.5.3-.8c.1-.3.1-.6.1-1c0-.3 0-.7-.1-1c0-.3-.1-.5-.3-.7c-.1-.2-.3-.4-.4-.5c-.2-.1-.4-.2-.6-.2c-.2 0-.4.1-.6.2c-.2.1-.4.3-.5.5c-.1.2-.2.4-.3.7c-.1.3-.1.7-.1 1c0 .4 0 .7.1 1c.1.3.2.6.3.8c.1.2.3.4.5.5c.2.1.4.2.6.2zM63.4 59v2.2h-.8v-5h.8v2.1h1.2v-2.2h.8v5.2h-.8V59h-1.2zm-1.5.7l.1.7c-.6.1-1.2.2-1.7.2c-.5.1-1 .1-1.6.1h-.5v-3.9h.8v3.2c.5 0 .9 0 1.4-.1c.5 0 1-.1 1.5-.2zm2.4 1.9v.6c0 .2 0 .5.1.7c.1.2.2.4.4.6c.1.3.3.4.6.6c.2.2.5.3.7.4l-.4.6c-.4-.2-.8-.4-1.1-.7c-.3-.3-.6-.6-.7-1c-.2.3-.4.7-.6 1c-.3.4-.7.6-1.1.8c-.4-.2-.8-.4-1.1-.7c-.3-.3-.5-.7-.6-1.1c-.2.4-.4.7-.7 1c-.3.3-.7.5-1.1.7l-.4-.6c.3-.1.5-.3.8-.4c.2-.2.4-.4.5-.6c.2-.2.3-.4.4-.6c.1-.3.1-.5.1-.7c.02-.01 0-.6 0-.6h.8s.02.59 0 .6c0 .4.1.8.3 1.2c.2.4.6.7 1 1c.2-.2.4-.3.6-.5c.1-.2.2-.4.4-.6c.1-.2.1-.4.2-.6c0-.2.1-.3.1-.5c-.03-.01 0-.6 0-.6h.8zm6.7-5c.5 0 .9.1 1.3.2c.4.1.8.3 1.1.5c.3.2.5.5.7.8c.2.3.2.7.2 1c0 .4 0 .8-.2 1.1c-.2.3-.4.6-.7.8c-.3.2-.7.4-1.1.5c-.4.1-.8.2-1.3.2c-.5 0-.9-.1-1.3-.2c-.4-.1-.8-.3-1.1-.5c-.3-.2-.5-.5-.7-.8c-.1-.3-.2-.7-.2-1.1c0-.3.1-.7.2-1c.2-.3.4-.6.7-.8c.3-.2.7-.4 1.1-.5c.4-.1.8-.2 1.3-.2zm0 .7c-.3 0-.7 0-1 .1c-.3.1-.6.2-.8.4c-.2.2-.4.4-.5.6c-.2.2-.2.5-.2.7c0 .3 0 .6.2.8c.1.2.3.4.5.6c.2.1.5.3.8.4c.3 0 .7.1 1 .1c.4 0 .7-.1 1-.1c.3-.1.6-.3.8-.4c.2-.2.4-.4.5-.6c.2-.2.2-.5.2-.8c0-.2 0-.5-.2-.7c-.1-.2-.3-.4-.5-.6c-.2-.2-.5-.3-.8-.4c-.3-.1-.6-.1-1-.1zm-4.1 6h8.3v.7h-8.3v-.7zM82.8 56h.8v9.2h-.8v-3.8h-2.2v1.5h-4.2v-6h4.2v1.3h2.2V56zm-3 6.2v-4.6h-2.6v4.6h2.6zm.8-1.4h2.2v-1.9h-2.2v1.9zm4.3 4.4l.4-2.1h.9l-.6 2.1h-.7zm10.6-7.3v-.3h-5.6v-.6h6.4s.04.87 0 .9v1.8c0 .4-.1.7-.1 1.1c-.1.4-.1.8-.2 1.3l-.8-.1c.1-.9.2-1.6.3-2.3v-1.8zm-2.4 5.3h4.2v.7h-8.2v-.7h3.2v-3.3h.8v3.3zm11.8-1.5V60h-1.8v-.7h1.8v-1.1h-1.8v-.7h1.8v-1.4h.9v5.6h-.9zm-1.8-1.4v.7c-.2 0-.5.1-.8.1c-.2 0-.5 0-.8.1h-2.9v-2.7h3.1v-1.3h-3.1v-.6h3.9v2.5h-3.1s.04 1.42 0 1.4h2.1c.3 0 .5-.1.8-.1c.2 0 .5-.1.8-.1zm-.3 1.6c.4 0 .8 0 1.2.1c.4.1.7.2 1 .3c.2.1.4.3.6.5c.1.2.2.5.2.7c0 .3-.1.6-.2.8c-.2.2-.4.4-.6.5c-.3.1-.6.3-1 .3c-.4.1-.8.1-1.2.1c-1 0-1.7-.1-2.3-.4c-.5-.3-.8-.7-.8-1.3c0-.2.1-.5.2-.7c.2-.2.4-.4.6-.5c.3-.1.6-.2 1-.3c.4-.1.8-.1 1.3-.1zm0 2.7c.7 0 1.2-.1 1.6-.3c.4-.2.6-.4.6-.8c0-.3-.2-.5-.6-.7c-.4-.2-.9-.3-1.6-.3c-.7 0-1.3.1-1.7.3c-.4.2-.6.4-.6.7c0 .4.2.6.6.8c.4.2 1 .3 1.7.3zm13.2-4.9v.7h-1.6v4.8h-.8v-9.1h.8v3.6h1.6zm-5.5-2s-.01 1.14 0 1.1c0 .4 0 .8.2 1.1c.1.4.3.8.5 1.1c.2.3.4.6.7.9c.3.3.6.5 1 .6l-.5.7c-.5-.2-1-.6-1.4-1.1c-.4-.5-.7-1.1-.9-1.7c-.1.3-.3.7-.4 1c-.2.3-.4.6-.6.8c-.2.3-.4.5-.6.7c-.3.2-.5.4-.8.5l-.4-.6c.3-.2.6-.4.9-.7c.3-.3.5-.6.7-1c.3-.3.4-.7.6-1.1c.1-.4.2-.8.2-1.2c-.04.04 0-1.1 0-1.1h-2.1v-.7h4.9v.7h-2zm12.9 1.2h2v-2.8h.8v6.7h-.8v-3.3h-2v-.6zm-4.1-2.1s4.12-.05 4.1 0c0 .5-.1 1.1-.3 1.6c-.2.5-.5 1-.8 1.4c-.4.4-.9.8-1.4 1.1c-.5.4-1.1.6-1.7.9l-.4-.7c.5-.2 1-.4 1.4-.6c.5-.3.9-.6 1.2-.9c.3-.3.6-.6.8-1c.2-.4.3-.8.3-1.2c.02.04-3.2 0-3.2 0v-.6zm2 7.5h5.1v.7h-6v-2.9h.9v2.2zm13.6-5.9h1.4v.7h-1.4v2.4h-.8V56h.8v2.4zm-6.6-1.7s4.18.02 4.2 0c0 .6-.1 1.1-.3 1.6c-.2.5-.5 1-.9 1.4c-.3.4-.8.8-1.3 1.1c-.5.3-1.1.5-1.8.7l-.3-.6c1.1-.4 1.9-.8 2.6-1.4c.6-.6 1-1.3 1.1-2.1h-3.3v-.7zm3.8 4.9c.4 0 .8.1 1.2.2c.4 0 .7.2.9.3c.3.2.5.3.6.6c.2.2.3.4.3.7c0 .3-.1.5-.3.7c-.1.3-.3.5-.6.6c-.2.2-.5.3-.9.4c-.4 0-.8.1-1.2.1c-.5 0-.9-.1-1.2-.1c-.4-.1-.7-.2-1-.4c-.3-.1-.5-.3-.6-.6c-.1-.2-.2-.4-.2-.7c0-.3.1-.5.2-.7c.1-.3.3-.4.6-.6c.3-.1.6-.3 1-.3c.3-.1.7-.2 1.2-.2zm0 2.9c.6 0 1.2-.1 1.6-.3c.3-.2.5-.4.5-.8c0-.3-.2-.6-.5-.8c-.4-.2-1-.3-1.6-.3c-.7 0-1.2.1-1.6.3c-.4.2-.6.5-.6.8c0 .4.2.6.6.8c.4.2.9.3 1.6.3zm14.1-6.1h1.4v.7h-1.4v2.5h-.8v-5.5h.8v2.3zm-1.8 1.9l-.4.7c-.5-.2-1-.5-1.4-.8c-.3-.4-.6-.8-.8-1.3c-.2.6-.5 1-.9 1.4c-.4.4-.9.7-1.4 1l-.4-.7c.3-.1.6-.3.9-.5c.3-.2.5-.5.7-.7c.2-.3.4-.6.5-.9c.1-.4.1-.7.1-1.1c.04.05 0-.9 0-.9h.9s-.02 1.02 0 1c0 .3 0 .6.1.9c.1.3.3.6.5.8c.2.3.4.5.7.7c.3.2.6.3.9.4zm-1.1 1.5c.5 0 .9.1 1.2.2c.4 0 .7.1 1 .3c.3.1.5.3.6.5c.1.2.2.5.2.7c0 .3-.1.5-.2.7c-.1.2-.3.4-.6.5c-.3.2-.6.3-1 .4c-.3 0-.7.1-1.2.1c-.9 0-1.7-.2-2.2-.5c-.5-.2-.8-.7-.8-1.2c0-.2 0-.5.2-.7c.1-.2.3-.4.6-.5c.3-.2.6-.3.9-.3c.4-.1.8-.2 1.3-.2zm0 2.7c.7 0 1.2-.1 1.6-.2c.4-.2.6-.5.6-.8c0-.3-.2-.6-.6-.7c-.4-.2-.9-.3-1.6-.3c-.7 0-1.2.1-1.6.3c-.4.1-.6.4-.6.7c0 .3.2.6.6.8c.4.1.9.2 1.6.2zm12-8.5h.8v9.2h-.8v-4.8h-1.2v4.3h-.8v-8.5h.8v3.5h1.2V56zm-5.9 4.2s.05 2.03 0 2h1.7c.3 0 .5-.1.8-.1c.2 0 .4-.1.7-.1l.1.7c-.3 0-.6.1-.8.1c-.3 0-.5.1-.8.1h-1.9c.05.03-.6 0-.6 0v-5.8h3.7v.7h-2.9v1.7h2.7v.7h-2.7zm16.6-.4v.7h-1.5v4.7h-.8V56h.8v3.8h1.5zm-5.4 1.1v1.6c.4-.1.9-.1 1.3-.1c.4-.1.8-.1 1.2-.1l.1.6c-.5 0-1 .1-1.5.2c-.5 0-1 0-1.5.1h-2.7l-.1-.7h2.4v-1.6c-.3 0-.6-.1-.8-.2c-.3-.1-.5-.3-.7-.5c-.1-.2-.3-.4-.4-.6c-.1-.3-.1-.5-.1-.8c0-.3 0-.6.2-.9c.1-.3.2-.5.5-.7c.2-.2.4-.3.7-.4c.3-.1.6-.2 1-.2c.3 0 .7.1 1 .2c.3.1.5.2.7.4c.2.2.4.4.5.7c.2.3.2.6.2.9c0 .3 0 .5-.1.8c-.1.2-.3.4-.4.6c-.2.2-.4.3-.7.5c-.2.1-.5.2-.8.2zm-2-2.1c0 .4.1.8.4 1c.3.3.7.4 1.2.4c.5 0 .9-.1 1.2-.4c.3-.2.4-.6.4-1c0-.2 0-.4-.1-.6c-.1-.2-.2-.3-.3-.5l-.6-.3c-.1 0-.4-.1-.6-.1c-.2 0-.5.1-.7.1c-.1.1-.3.2-.5.3c-.1.2-.2.3-.3.5c-.1.2-.1.4-.1.6zm16.8 1.5s-2.3.04-2.3 0c-.2.3-.5.5-.8.7c-.3.1-.7.2-1.1.2c-.3 0-.6 0-.9-.2c-.3-.1-.5-.2-.8-.4c-.2-.2-.3-.5-.5-.8c-.1-.2-.1-.5-.1-.9c0-.3 0-.6.1-.9c.2-.3.3-.5.5-.7c.3-.2.5-.4.8-.5c.3-.1.6-.2.9-.2c.4 0 .8.1 1.1.3c.3.1.6.3.8.6c-.01-.02 2.3 0 2.3 0v-1.4h.9v6.7h-.9v-2.5zm-5.7-1.4c0 .2 0 .5.1.6c.1.2.2.4.3.5c.1.2.3.3.5.4c.2 0 .4.1.6.1c.3 0 .5-.1.6-.1c.2-.1.4-.2.5-.4c.2-.1.3-.3.4-.5c0-.1.1-.4.1-.6c0-.2-.1-.4-.1-.6c-.1-.2-.2-.4-.4-.5c-.1-.1-.3-.2-.5-.3c-.1-.1-.3-.1-.6-.1c-.2 0-.4 0-.6.1c-.2.1-.4.2-.5.3c-.1.1-.2.3-.3.5c-.1.2-.1.4-.1.6zm5.7-.7s-1.95-.05-1.9 0c0 .2.1.4.1.7c0 .3-.1.5-.1.8c-.05-.03 1.9 0 1.9 0v-1.5zm-4.1 6.1h5.2v.7h-6.1v-2.9h.9v2.2zm13.6-8.3h.8v9.2h-.8V56zm-1.9 2.6v-2.3h.8v8.4h-.8v-3.1h-1.6v-.7h1.6v-1.6s-1.46-.04-1.5 0c-.2.7-.5 1.5-1 2.1c-.5.7-1.2 1.3-2.1 1.8l-.5-.6c1-.6 1.7-1.3 2.2-2.1c.5-.8.8-1.6.9-2.6h-2.7v-.7h3.5c0 .5 0 .9-.1 1.4h1.3zm9.5-1.4v.6h-5.4v-.6h2.3v-1.1h.8v1.1h2.3zm1.7 1.9h1.3v.7h-1.3v3.1h-.8v-6.8h.8v3zm-2.2.9c0 .3 0 .5-.2.7c-.1.3-.2.4-.4.6c-.2.1-.4.2-.7.3c-.3.1-.6.1-.9.1c-.3 0-.6 0-.9-.1c-.2-.1-.5-.2-.7-.3c-.2-.2-.3-.3-.4-.6c-.1-.2-.2-.4-.2-.7c0-.2.1-.5.2-.7c.1-.2.2-.3.4-.5c.2-.1.5-.3.7-.3c.3-.1.6-.2.9-.2c.3 0 .6.1.9.2c.3 0 .5.2.7.3c.2.2.3.3.4.5c.2.2.2.5.2.7zm-3.6 0c0 .4.1.6.4.8c.2.2.6.3 1 .3c.4 0 .8-.1 1-.3c.3-.2.4-.4.4-.8c0-.3-.1-.5-.4-.7c-.2-.2-.6-.3-1-.3c-.4 0-.8.1-1 .3c-.3.2-.4.4-.4.7zm.9 2.4v1.9h5.3v.7h-6.1v-2.6h.8zm16.1-3.6h1.4v.7h-1.4v3.3h-.8V56h.8v2.8zm-2.1.1c0 .4-.1.7-.2 1c-.1.2-.3.5-.5.7c-.2.2-.5.3-.7.4c-.3.1-.7.2-1 .2c-.3 0-.6-.1-.9-.2c-.3-.1-.6-.2-.8-.4c-.2-.2-.4-.5-.5-.7c-.1-.3-.2-.6-.2-1c0-.3.1-.6.2-.9c.1-.3.3-.5.5-.7c.2-.2.5-.3.8-.5c.3-.1.6-.1.9-.1c.3 0 .7 0 1 .1c.2.2.5.3.7.5c.2.2.4.4.5.7c.1.3.2.6.2.9zm-4 0c0 .3.1.5.2.7c0 .1.1.3.3.4c.1.2.3.3.5.4c.2 0 .4.1.6.1c.2 0 .4-.1.6-.1c.2-.1.4-.2.5-.4c.2-.1.3-.3.4-.4c0-.2.1-.4.1-.7c0-.2-.1-.4-.1-.6c-.1-.2-.2-.3-.4-.5c-.1-.1-.3-.2-.5-.3c-.2-.1-.4-.1-.6-.1c-.2 0-.4 0-.6.1c-.2.1-.4.2-.5.3c-.2.2-.3.3-.3.5c-.1.2-.2.4-.2.6zm1.3 3.2v2.2h5.3v.7h-6.1v-2.9h.8zm11.8-3.5h1.8v-2.5h.9v6.7h-.9v-3.5h-1.8v-.7zm.5 2.1l-.4.7c-.5-.2-.9-.5-1.3-.8c-.4-.4-.7-.8-.9-1.3c-.2.5-.5 1-.9 1.4c-.4.4-.9.7-1.4.9l-.4-.7c.3-.1.6-.3.9-.5c.3-.2.5-.4.7-.7c.2-.2.4-.5.5-.8c.1-.3.2-.6.2-1c-.04.03 0-.4 0-.4h-2.1v-.7h4.9v.7h-2v.4c0 .3.1.6.2.9c.1.3.2.5.4.8c.2.2.4.5.7.7c.3.2.6.3.9.4zm-2.8 3.6h5.2v.7h-6.1v-2.8h.9v2.1zm12.8-4.4c-.5 0-.9 0-1.3-.1c-.4-.1-.7-.2-1-.3c-.3-.2-.5-.4-.7-.6c-.1-.2-.2-.5-.2-.8c0-.3.1-.5.2-.8c.2-.2.4-.4.7-.5c.3-.2.6-.3 1-.4c.4-.1.8-.1 1.3-.1c.5 0 .9 0 1.3.1c.4.1.8.2 1 .4c.3.1.5.3.7.5c.1.3.2.5.2.8c0 .3-.1.6-.2.8c-.2.2-.4.4-.7.6c-.2.1-.6.2-1 .3c-.4.1-.8.1-1.3.1zm0-3c-.3 0-.6.1-.9.1c-.3.1-.6.2-.8.3c-.2.1-.3.2-.4.3c-.1.2-.2.3-.2.5c0 .2.1.3.2.5c.1.1.2.3.4.4c.2.1.5.1.8.2c.3 0 .6.1.9.1c.7 0 1.3-.1 1.7-.3c.4-.3.6-.5.6-.9c0-.4-.2-.6-.6-.8c-.4-.2-1-.4-1.7-.4zm-4.1 3.8h8.3v.7h-3.7v1.8h-.8v-1.8h-3.8v-.7zm1.9 1.6v2h5.5v.7h-6.4v-2.7h.9zm12.1-3.7h1.9v-2.5h.8v6.7h-.8v-3.5h-1.9v-.7zm.6 2.1l-.5.7c-.5-.2-.9-.5-1.3-.8c-.4-.4-.7-.8-.9-1.3c-.2.5-.5 1-.9 1.4c-.4.4-.8.7-1.4.9l-.4-.7c.3-.1.7-.3.9-.5c.3-.2.6-.4.8-.7c.2-.2.3-.5.4-.8c.1-.3.2-.6.2-1v-.4h-2v-.7h4.9v.7h-2.1s.04.42 0 .4c0 .3.1.6.2.9c.1.3.3.5.5.8c.2.2.4.5.7.7c.2.2.5.3.9.4zm-2.9 3.6h5.3v.7h-6.1v-2.8h.8v2.1zm15.7-8.3h.8v9.2h-.8v-4.9H245v4.4h-.8v-8.5h.8v3.5h1.2V56zm-6.6 6.7v-5.6h3.4v5.6h-3.4zm.7-4.9v4.3h2v-4.3h-2zm15.4 1.3v.7h-6.2v-3.3h.8v2.6h5.4zm1 2v.7h-2.2v3.4h-.8v-3.4h-2.3v3.4h-.8v-3.4h-2.2v-.7h8.3zm7.6-2.3s-1.88-.05-1.9 0c0 .2-.1.5-.2.7c-.2.2-.3.4-.6.5c-.2.2-.4.3-.7.4c-.2.1-.5.1-.8.1c-.4 0-.7 0-1-.1c-.2-.1-.5-.3-.7-.5c-.2-.2-.4-.4-.5-.6c-.1-.3-.2-.6-.2-.9c0-.3.1-.6.2-.8c.1-.3.3-.5.5-.7c.2-.1.5-.3.7-.4c.3-.1.6-.1 1-.1c.3 0 .6 0 .8.1c.3.1.5.2.7.3c.3.2.4.4.6.6c.1.2.2.4.2.7c.01-.02 1.9 0 1.9 0v-2h.8v4.6h-.8v-1.9zm-5.8-.4c0 .2.1.4.1.6c.1.2.2.3.4.4c.1.2.3.3.5.3c.2.1.4.1.6.1c.2 0 .4 0 .6-.1c.2 0 .4-.1.5-.3c.1-.1.3-.2.3-.4c.1-.2.1-.4.1-.6c0-.2 0-.4-.1-.5c0-.2-.2-.3-.3-.5c-.1-.1-.3-.2-.5-.3c-.2 0-.4-.1-.6-.1c-.2 0-.4.1-.6.1c-.2.1-.4.2-.5.3c-.2.2-.3.3-.4.5c0 .1-.1.3-.1.5zm1.6 6h5.4v.7h-6.3v-2.3h5.1v-.9h-5.1v-.7h5.9v2.2h-5v1zm11.2-1.1h3.8v.7h-8.3v-.7h3.7V61h-2.7v-4.2h6.2v.7h-5.3v2.8h5.4v.7h-2.8v2.3zM285 56h.8v9.2h-.8V56zm-1.8 3.3v-3.1h.8v8.5h-.8V60h-1.5v-.7h1.5zm-2.5-1.5v.8c0 .4.1.8.1 1.2c.1.4.2.8.4 1.1c.2.3.4.7.6.9c.3.3.5.5.9.7l-.5.6c-.5-.2-.9-.6-1.2-1.1c-.3-.4-.5-.9-.7-1.5c-.1.6-.4 1.2-.7 1.7c-.3.5-.7.9-1.2 1.2l-.5-.7c.3-.2.6-.4.9-.7c.2-.3.4-.6.6-1c.2-.3.3-.7.4-1.1c.1-.4.1-.9.1-1.3v-.8h-1.7v-.7h4.1v.7h-1.6zm15 .6v.7h-1.4v2.5h-.8v-5.5h.8v2.3h1.4zm-3.2 2.1l-.4.7c-.5-.2-1-.5-1.3-.8c-.4-.4-.7-.8-.9-1.3c-.2.5-.5 1-.9 1.4c-.4.4-.9.7-1.4.9l-.4-.7c.3-.1.6-.3.9-.5c.3-.2.5-.4.7-.7c.2-.2.4-.5.5-.8c.1-.3.2-.7.2-1c-.04.02 0-.3 0-.3h-2.1v-.7h4.9v.7h-2v.3c0 .3.1.6.2.9c.1.3.2.6.4.8c.2.2.4.5.7.7c.3.1.6.3.9.4zm-4.1 2.2v-.7h5.9v3.2h-.8v-2.5h-5.1zm10.5-2.5v1h-.9v-1h.9zm9.6-4.2h.8v9.2h-.8v-4.9h-1.3v4.4h-.8v-8.5h.8v3.5h1.3V56zm-4 3.1v-2.2h.8v6h-3.5v-6h.8v2.2h1.9zm0 3.1v-2.4h-1.9v2.4h1.9zm10.7 1.2h3.8v.6h-8.3v-.6h3.7v-2.1h-3v-.7h1.4v-3h-1.4v-.7h6.8v.7h-1.4v3h1.4v.7h-3v2.1zm-1.5-5.8v3h2.2v-3h-2.2zm11.9 1.6v2.4h-.8v-5.4h.8v2.4h1.2v-2.5h.8v5.6h-.8v-2.5h-1.2zm-1.1-2.1v.7h-4.7v-.7h1.9v-1h.8v1h2zm-2.4 4.2c-.3 0-.5 0-.8-.1c-.2 0-.4-.1-.6-.3c-.2-.1-.3-.3-.4-.5c-.1-.2-.1-.4-.1-.6c0-.3 0-.5.1-.7c.1-.2.2-.3.4-.5l.6-.3c.3 0 .5-.1.8-.1c.3 0 .6.1.8.1c.3.1.5.2.6.3c.2.2.3.3.4.5c.1.2.2.4.2.7c0 .2-.1.4-.2.6c-.1.2-.2.4-.4.5c-.1.2-.3.3-.6.3c-.2.1-.5.1-.8.1zm0-2.5c-.3 0-.6.1-.8.3c-.3.2-.4.4-.4.7c0 .3.1.5.4.7c.2.1.5.2.8.2c.4 0 .7-.1.9-.2c.2-.2.3-.4.3-.7c0-.3-.1-.5-.3-.7c-.2-.2-.5-.3-.9-.3zm4.3 3.2s.05.29 0 .3c0 .2.1.4.2.7l.3.6c.2.2.4.3.6.5c.2.1.5.3.8.4l-.4.6c-.5-.2-.9-.4-1.2-.7c-.3-.3-.5-.6-.7-1c-.1.4-.3.7-.6 1c-.3.3-.6.6-1 .8c-.5-.2-.9-.4-1.1-.7c-.3-.3-.5-.7-.6-1.1c-.2.4-.4.7-.7 1c-.4.3-.7.5-1.2.7l-.4-.6c.3-.1.6-.3.8-.4l.6-.6c.1-.2.3-.4.3-.6c.1-.2.2-.4.2-.6c-.03-.01 0-.3 0-.3h.8s-.03.29 0 .3c0 .4.1.8.3 1.1c.2.4.5.7.9 1c.3-.2.4-.3.6-.5c.2-.2.3-.3.4-.5c.1-.2.2-.4.2-.6c.1-.2.1-.3.1-.5c.02-.01 0-.3 0-.3h.8zm11.2-2.3v.6h-1.5v4.9h-.9V56h.9v3.7h1.5zm-7.3-2.1s-.05 4.61 0 4.6h2.1c.4-.1.7-.1 1-.1c.3-.1.6-.1 1-.2l.1.7c-.4.1-.7.1-1.1.2c-.3 0-.6 0-1 .1h-2.3c.04.03-.7 0-.7 0v-6h4.3v.7h-3.4zm7.8 7v-1h.9v1h-.9z" stroke="none" fill="#111111"/></g><g id="Polygon117204"><path d="m5.1 44.8h3.7v.7H.5v-.7h3.8v-2.4H1.6v-4.1h.8v3.4h5.5v.7H5.1v2.4zm12.1-7.2v6.6h-.8v-6.6h.8zm-2.5 2.8c0 .4-.1.7-.2.9c-.1.3-.3.6-.5.8c-.2.2-.4.3-.7.4c-.3.1-.6.2-1 .2c-.3 0-.6-.1-.9-.2c-.3-.1-.6-.2-.8-.4c-.2-.2-.4-.5-.5-.8c-.1-.2-.2-.5-.2-.9c0-.3.1-.6.2-.9c.1-.3.3-.5.5-.7c.2-.2.5-.3.8-.5c.3-.1.6-.1.9-.1c.4 0 .7 0 1 .1c.3.2.5.3.7.5c.2.2.4.4.5.7c.1.3.2.6.2.9zm-3.9 0c0 .3 0 .5.1.6c0 .2.2.4.3.5c.1.2.3.3.5.4c.2 0 .4.1.6.1c.2 0 .4-.1.6-.1c.2-.1.4-.2.5-.4c.2-.1.3-.3.4-.5c.1-.1.1-.3.1-.6c0-.2 0-.4-.1-.6c-.1-.2-.2-.3-.4-.5c-.1-.1-.3-.2-.5-.3c-.2-.1-.4-.1-.6-.1c-.2 0-.4 0-.6.1c-.2.1-.4.2-.5.3c-.1.2-.3.3-.3.5c-.1.2-.1.4-.1.6zm1.4 5.4h5.3v.7h-6.2v-3h.9v2.3zm11.3-3.5h3.7v.6h-8.3v-.6h3.7v-1.1H20v-3.4h.8v1h4.5v-1h.8v3.4h-2.6v1.1zm-2.7-2.9v1.1h4.5v-1.1h-4.5zm-1 5.1v-.7h6.4v2.9h-.9v-2.2h-5.5zm14.9-6.9h.9v9.1h-.9v-9.1zm-3.4 1.6s.04 1.14 0 1.1c0 .4.1.8.2 1.2c.2.4.3.7.6 1.1c.2.3.4.6.7.8c.3.3.7.5 1 .6l-.5.7c-.5-.2-1-.6-1.4-1.1c-.4-.5-.8-1.1-1-1.7c-.1.3-.2.7-.4 1c-.1.3-.3.6-.5.8c-.2.3-.4.5-.7.7c-.2.2-.5.4-.7.5l-.5-.6c.3-.2.6-.4.9-.7c.3-.3.6-.6.8-.9c.2-.4.4-.8.5-1.2c.1-.4.2-.8.2-1.2c.01.04 0-1.1 0-1.1h-2.1v-.7h5.1v.7h-2.2zm13.1 1.3h1.3v.7h-1.3v3.2h-.9v-6.9h.9v3zm-2.3.9h-.9c.1-.6.2-1 .2-1.4c.1-.4.1-.8.1-1.1c-.02.04-3.7 0-3.7 0v-.6h4.5v1.6c-.1.4-.1.9-.2 1.5zm.8.6l.1.6c-.5.1-1 .2-1.5.2c-.5.1-1 .1-1.5.1c-.5 0-.9.1-1.4.1h-1.3l-.1-.7h1.9c.04-.03 0-2 0-2h.9s-.04 1.94 0 1.9h1.5c.5-.1 1-.1 1.4-.2zm-3.5 1.8v2h5.3v.7h-6.1v-2.7h.8zm6.7 2.9l.4-2.1h.9l-.6 2.1h-.7zm6.2-1.6h3v.8h-5.1v-.6s2.63-2.5 2.6-2.5l.6-.6c.1-.2.3-.4.4-.6c.1-.1.2-.3.3-.5c0-.2.1-.4.1-.7c0-.4-.2-.7-.4-.9c-.3-.3-.6-.4-1-.4c-.2 0-.4.1-.6.1c-.2.1-.3.2-.5.3c-.1.2-.2.3-.3.5c0 .2-.1.4-.1.6l-.9-.2c0-.3.1-.6.3-.9c.1-.2.3-.4.5-.6c.2-.2.5-.3.8-.4c.2-.1.5-.2.9-.2c.3 0 .6.1.8.2c.3.1.6.2.8.4c.2.2.3.4.4.6c.2.3.2.6.2.9c0 .3 0 .6-.1.8c-.1.2-.2.5-.3.7c-.2.2-.3.4-.5.6c-.2.2-.4.5-.6.7l-2.1 2c.1 0 .3 0 .4-.1h.4zm3.5 1.6l.4-2.1h.9l-.6 2.1h-.7zm5.4-1.5h1.5v.7h-4.1v-.7h1.7v-5.7c0 .04-1.4 1.3-1.4 1.3l-.5-.6l2.1-1.8h.7v6.8zm6.7-6.8s-2.26 2.84-2.3 2.8c-.1.2-.1.3-.2.3c0 .1-.1.2-.1.2l.6-.3c.2 0 .4-.1.7-.1c.3 0 .6.1.8.2c.3.1.5.2.7.4c.2.2.4.5.5.7c.1.3.2.6.2 1c0 .3-.1.7-.2 1c-.1.3-.3.5-.5.8c-.2.2-.5.4-.8.5c-.4.1-.7.2-1.1.2c-.4 0-.7-.1-1-.2c-.3-.1-.6-.3-.8-.5c-.2-.3-.4-.5-.5-.8c-.1-.4-.2-.7-.2-1.1c0-.3.1-.7.2-1.1c.2-.3.4-.7.7-1.2c.04.02 2.1-2.8 2.1-2.8h1.2zm-1.7 6.9c.2 0 .5-.1.7-.1c.2-.1.4-.2.5-.4c.2-.1.3-.3.3-.5c.1-.2.2-.4.2-.6c0-.3-.1-.5-.2-.7c0-.2-.1-.4-.3-.5c-.1-.1-.3-.2-.5-.3c-.2-.1-.4-.1-.6-.1c-.3 0-.5 0-.7.1c-.2.1-.4.2-.5.3c-.2.2-.3.4-.4.5c0 .2-.1.4-.1.7c0 .4.2.8.4 1.1c.3.3.7.5 1.2.5zm5.1-6l-.3 1.9c.3 0 .7-.1 1.1-.1c.4 0 .7.1 1 .2c.3.1.6.3.8.5c.2.2.3.4.4.7c.1.3.2.6.2.9c0 .4-.1.8-.2 1.1c-.1.3-.3.6-.6.8c-.2.2-.5.4-.8.5c-.4.2-.7.2-1.1.2c-.5 0-.9-.1-1.2-.2c-.4-.2-.7-.4-.9-.6l.5-.7c.2.2.5.4.7.5c.3.1.6.2.9.2c.3 0 .5 0 .7-.1c.3-.1.4-.2.6-.4c.2-.1.3-.3.4-.5c.1-.2.1-.5.1-.8c0-.4-.1-.8-.4-1.1c-.3-.3-.8-.4-1.3-.4c-.2 0-.4 0-.6.1c-.2 0-.4.1-.6.1c-.02.04-.6-.1-.6-.1l.6-3.6h3.6v.9h-3zm8.8 2.2v.8h-4.2v-4.1h4.2v.8h2.1v-1.4h.8v5.4h-.8v-1.5h-2.1zm-.9.1v-2.7h-2.5v2.7h2.5zm3-1.9h-2.1v1.1h2.1v-1.1zM80 43.2c.9 0 1.7.2 2.2.5c.6.3.8.7.8 1.3c0 .2 0 .5-.2.7c-.1.2-.3.4-.6.5c-.3.2-.6.3-1 .4c-.3 0-.8.1-1.2.1c-.5 0-.9-.1-1.3-.1c-.4-.1-.7-.2-.9-.4c-.3-.1-.5-.3-.7-.5c-.1-.2-.2-.5-.2-.7c0-.3.1-.6.2-.8c.2-.2.4-.4.7-.5c.2-.2.5-.3.9-.4c.4 0 .8-.1 1.3-.1zm0 2.8c.7 0 1.2-.1 1.6-.2c.4-.2.6-.5.6-.8c0-.4-.2-.7-.6-.8c-.4-.2-.9-.3-1.6-.3c-.7 0-1.3.1-1.6.3c-.4.1-.6.4-.6.8c0 .3.2.6.6.8c.3.1.9.2 1.6.2zm11.3-8.5h.8v9.2h-.8v-9.2zm-4 .7c.4 0 .7.1.9.3c.3.1.6.3.8.6c.2.3.3.6.5 1c.1.4.1.8.1 1.3c0 .5 0 1-.1 1.4c-.2.3-.3.7-.5 1c-.2.2-.5.5-.8.6c-.2.2-.5.2-.9.2c-.3 0-.6 0-.9-.2c-.3-.1-.6-.4-.8-.6c-.2-.3-.3-.7-.4-1c-.2-.4-.2-.9-.2-1.4c0-.5 0-.9.2-1.3c.1-.4.2-.7.4-1c.2-.3.5-.5.8-.6c.3-.2.6-.3.9-.3zm0 .8c-.2 0-.4.1-.6.2c-.2.1-.4.3-.5.5c-.1.2-.2.4-.3.7c-.1.3-.1.7-.1 1c0 .4 0 .7.1 1c.1.3.2.6.3.8c.1.2.3.4.5.5c.2.1.4.2.6.2c.2 0 .4-.1.6-.2c.2-.1.4-.3.5-.5c.1-.2.2-.5.3-.8c.1-.3.1-.6.1-1c0-.3 0-.7-.1-1c-.1-.3-.2-.5-.3-.7c-.1-.2-.3-.4-.5-.5c-.2-.1-.4-.2-.6-.2zm15.3-1.5h.8v9.2h-.8v-9.2zm-6.2.8h.9v2.4h2.6v-2.4h.8v6.2h-4.3v-6.2zm.9 3.1v2.4h2.6v-2.4h-2.6zm14.8-3.9h.8v9.2h-.8v-4.8h-1.3v4.3h-.8v-8.5h.8v3.5h1.3v-3.7zm-5.9 1.8s.04 4.44 0 4.4h1.7c.4-.1.9-.1 1.4-.2l.1.7c-.3 0-.5.1-.8.1c-.2 0-.5.1-.8.1H106c.02.04-.6 0-.6 0v-5.7h3.4v.6h-2.6zm12.7 2.5v.8h-4.2v-4.3h4.2v.9h2.1v-1.6h.8v6.6h-.8v-2.4h-2.1zm-.9.1V39h-2.5v2.9h2.5zm3-2.1h-2.1v1.3h2.1v-1.3zm-4.2 6h5.2v.7h-6.1v-2.9h.9v2.2zm15.2-6.3v-.4h-5.6v-.6h6.4s.03.97 0 1v1.8c0 .3-.1.7-.1 1c0 .4-.1.8-.2 1.2l-.8-.1c.1-.7.2-1.3.2-1.9c.1-.7.1-1.3.1-2zm-1.3 5.2h3.1v.7h-8.3v-.7h2.1v-3h.8v3h1.4v-3h.9v3zm8.1-3.4c-.4 0-.9-.1-1.3-.2c-.4 0-.7-.2-1-.3c-.3-.2-.5-.3-.6-.6c-.2-.2-.3-.4-.3-.7c0-.3.1-.5.3-.7c.1-.2.3-.4.6-.6c.3-.1.6-.2 1-.3c.4-.1.9-.1 1.3-.1c.5 0 1 0 1.4.1c.4.1.7.2 1 .3c.3.2.5.4.6.6c.2.2.3.4.3.7c0 .3-.1.5-.3.7c-.1.3-.3.4-.6.6c-.3.1-.6.3-1 .3c-.4.1-.9.2-1.4.2zm0-2.9c-.7 0-1.3.1-1.7.3c-.4.2-.6.5-.6.8c0 .4.2.6.6.8c.4.2 1 .3 1.7.3c.8 0 1.4-.1 1.8-.3c.4-.2.6-.4.6-.8c0-.3-.2-.6-.6-.8c-.4-.2-1-.3-1.8-.3zm4.2 4.2h-2.2v1.2h1.2v2.9h-.9v-2.2h-5.5v-.7h1.3v-1.2h-2.2v-.7h8.3v.7zm-3 1.2v-1.2h-2.3v1.2h2.3zm8-5.7c.5 0 .9.1 1.3.2c.4.1.8.3 1.1.5c.3.2.5.5.7.8c.2.3.2.7.2 1c0 .4 0 .8-.2 1.1c-.2.3-.4.6-.7.8c-.3.2-.7.4-1.1.5c-.4.1-.8.2-1.3.2c-.5 0-.9-.1-1.3-.2c-.4-.1-.8-.3-1-.5c-.3-.2-.6-.5-.7-.8c-.2-.3-.3-.7-.3-1.1c0-.3.1-.7.3-1c.1-.3.4-.6.7-.8c.2-.2.6-.4 1-.5c.4-.1.8-.2 1.3-.2zm0 .7c-.3 0-.7 0-1 .1c-.3.1-.6.2-.8.4c-.2.2-.4.4-.5.6c-.1.2-.2.5-.2.7c0 .3.1.6.2.8c.1.2.3.4.5.6c.2.1.5.3.8.4c.3 0 .7.1 1 .1c.4 0 .7-.1 1-.1c.3-.1.6-.3.8-.4c.3-.2.4-.4.6-.6c.1-.2.2-.5.2-.8c0-.2-.1-.5-.2-.7c-.2-.2-.3-.4-.6-.6c-.2-.2-.5-.3-.8-.4c-.3-.1-.6-.1-1-.1zm-4.1 6h8.3v.7h-8.3v-.7zm13.7.1h3.8v.7h-8.3v-.7h3.7v-1.7h-2.7v-2.9h5.4v-1.4h-5.4v-.7h6.2v2.8h-5.4v1.5h5.7v.7h-3v1.7zm12.1-2.9l-.4.6c-.5-.2-1-.4-1.4-.7c-.4-.4-.7-.7-.9-1.2c-.2.5-.4.9-.8 1.3c-.4.3-.9.6-1.5.8l-.4-.7c.4-.1.7-.2 1-.4c.2-.2.5-.4.7-.6c.2-.3.3-.5.4-.8c.2-.3.2-.6.2-.9c.02.03 0-.1 0-.1h-2v-.7h2v-1.1h.9v1.1h2v.7h-2s-.05.13 0 .1c0 .3 0 .6.1.8c.1.3.3.5.5.8c.2.2.4.4.7.5c.2.2.6.4.9.5zm3.1-2.1v.6h-1.4v2.5h-.8v-5.5h.8v2.4h1.4zm-7.1 6.7v-3.2h5.7v3.2h-5.7zm.8-2.6v1.9h4.1V44h-4.1zm13.7-6.5h.8v9.2h-.8v-3.5s-2.27-.04-2.3 0c-.2.4-.4.8-.8 1c-.3.3-.7.4-1.1.4c-.4 0-.7 0-1-.2c-.2-.1-.5-.4-.7-.6c-.2-.3-.3-.7-.5-1c-.1-.4-.1-.9-.1-1.4c0-.5 0-.9.1-1.3c.2-.4.3-.7.5-1c.2-.3.5-.5.7-.6c.3-.2.6-.3 1-.3c.4 0 .8.2 1.1.4c.3.2.6.6.8 1h2.3v-2.1zm-4.2 6.4c.2 0 .4-.1.6-.2c.1-.1.3-.3.4-.5c.2-.2.3-.5.3-.8c.1-.3.1-.6.1-1c0-.3 0-.7-.1-1c0-.3-.1-.5-.3-.7c-.1-.2-.3-.4-.4-.5c-.2-.1-.4-.2-.6-.2c-.3 0-.5.1-.6.2c-.2.1-.4.3-.5.5c-.1.2-.3.4-.3.7c-.1.3-.1.7-.1 1c0 .4 0 .7.1 1c0 .3.2.6.3.8c.1.2.3.4.5.5c.1.1.3.2.6.2zm2.2-2.5c0 .5 0 .8-.1 1.1c.03-.02 2.1 0 2.1 0v-2.2s-2.1-.03-2.1 0c0 .2.1.3.1.5v.6zm10.3-.7v2.4h-.8v-5.4h.8v2.4h1.1v-2.5h.8v5.6h-.8v-2.5h-1.1zm-1.2-2.1v.7h-4.7v-.7h2v-1h.8v1h1.9zm-2.3 4.2c-.3 0-.6 0-.8-.1c-.3 0-.5-.1-.6-.3c-.2-.1-.3-.3-.4-.5c-.1-.2-.2-.4-.2-.6c0-.3.1-.5.2-.7c.1-.2.2-.3.4-.5c.1-.1.3-.2.6-.3c.2 0 .5-.1.8-.1c.3 0 .5.1.8.1l.6.3c.2.2.3.3.4.5c.1.2.1.4.1.7c0 .2 0 .4-.1.6c-.1.2-.2.4-.4.5c-.2.2-.4.3-.6.3c-.3.1-.5.1-.8.1zm0-2.5c-.4 0-.7.1-.9.3c-.2.2-.3.4-.3.7c0 .3.1.5.3.7c.2.1.5.2.9.2c.3 0 .6-.1.9-.2c.2-.2.3-.4.3-.7c0-.3-.1-.5-.3-.7c-.3-.2-.6-.3-.9-.3zm4.3 3.2v.3c0 .2 0 .4.1.7c.1.2.2.4.4.6c.1.2.3.3.6.5c.2.1.4.3.7.4l-.4.6c-.4-.2-.8-.4-1.1-.7c-.3-.3-.6-.6-.7-1c-.2.4-.4.7-.6 1c-.3.3-.7.6-1.1.8c-.4-.2-.8-.4-1.1-.7c-.3-.3-.5-.7-.6-1.1c-.2.4-.4.7-.7 1c-.3.3-.7.5-1.1.7l-.4-.6c.3-.1.5-.3.7-.4c.3-.2.5-.4.6-.6c.2-.2.3-.4.4-.6c.1-.2.1-.4.1-.6v-.3h.8v.3c0 .4.1.8.3 1.1c.2.4.6.7 1 1c.2-.2.4-.3.5-.5c.2-.2.3-.3.4-.5l.3-.6c0-.2.1-.3.1-.5c-.04-.01 0-.3 0-.3h.8zm11.1-2.3v.6h-1.5v4.9h-.8v-9.2h.8v3.7h1.5zm-7.3-2.1v4.6h2.2c.3-.1.6-.1.9-.1c.4-.1.7-.1 1-.2l.1.7c-.3.1-.7.1-1 .2c-.3 0-.7 0-1 .1H193c-.02.03-.7 0-.7 0v-6h4.2v.7h-3.4zm7.8 7v-1h1v1h-1zm11-8.5h.9v9.1h-.9v-9.1zm-3.4 1.6s.04 1.14 0 1.1c0 .4.1.8.2 1.2c.2.4.3.7.6 1.1c.2.3.4.6.7.8c.3.3.7.5 1 .6l-.5.7c-.5-.2-1-.6-1.4-1.1c-.4-.5-.8-1.1-1-1.7c-.1.3-.2.7-.4 1c-.1.3-.3.6-.5.8c-.2.3-.5.5-.7.7c-.2.2-.5.4-.7.5l-.5-.6c.3-.2.6-.4.9-.7c.3-.3.6-.6.8-.9c.2-.4.4-.8.5-1.2c.1-.4.2-.8.2-1.2v-1.1h-2.1v-.7h5.1v.7h-2.2zm12.6-1.6l.9-.1v5.4h-.9v-1.3s-2.27.02-2.3 0c-.2.3-.5.5-.8.6c-.3.2-.6.3-1.1.3c-.3 0-.6-.1-.9-.2c-.3-.1-.5-.3-.7-.5c-.2-.2-.4-.4-.5-.7c-.1-.2-.2-.5-.2-.9c0-.3.1-.6.2-.8c.1-.3.3-.5.5-.7c.2-.2.4-.4.7-.5c.3-.1.6-.1.9-.1c.5 0 .8 0 1.1.2c.4.1.6.3.8.6h2.3v-1.3zm-4.2 4.1c.3 0 .5 0 .7-.1c.2 0 .3-.1.5-.3c.1-.1.2-.3.3-.5c.1-.1.1-.3.1-.6c0-.2 0-.4-.1-.6c-.1-.1-.2-.3-.3-.4c-.2-.1-.3-.2-.5-.3c-.2-.1-.4-.1-.7-.1c-.2 0-.4 0-.6.1c-.2.1-.3.2-.5.3c-.1.1-.2.3-.3.4c-.1.2-.1.4-.1.6c0 .3 0 .5.1.6c.1.2.2.4.3.5c.2.2.3.3.5.3c.2.1.4.1.6.1zm2.4-1.5c0 .3 0 .6-.1.7c0 .04 1.9 0 1.9 0v-1.3s-1.9-.04-1.9 0c.1.1.1.4.1.6zm-3.4 3.9v-.7h6.1v3.3h-.9v-2.6h-5.2zm16.3-2.8v.6h-1.5v4.8h-.9v-9.1h.9v3.7h1.5zm-5.5-3v1.7c0 .4.1.8.2 1.2c.1.4.3.7.5 1.1c.2.3.4.7.7.9c.3.3.6.5.9.7l-.5.7c-.5-.3-.9-.7-1.3-1.2c-.4-.5-.7-1-.9-1.7c-.2.7-.5 1.3-.9 1.8c-.4.5-.9 1-1.4 1.2l-.5-.6c.3-.2.7-.4.9-.7c.3-.3.6-.6.8-1c.2-.4.4-.8.5-1.2c.1-.4.2-.8.2-1.2c-.02-.02 0-1.7 0-1.7h.8zm11.9.4v.6h-5.5v-.6h2.3v-1.1h.9v1.1h2.3zm.8-1.1h.9v9.1h-.9v-9.1zm-3.1 5.6v1c.4 0 .8-.1 1.3-.1c.4 0 .8-.1 1.3-.1v.6c-.5.1-1 .1-1.5.2c-.6 0-1.1.1-1.6.1h-1.5c-.4.1-.9.1-1.3.1l-.1-.7c.4 0 .8-.1 1.2-.1h1.3v-1c-.5 0-1-.2-1.3-.5c-.3-.3-.5-.7-.5-1.2c0-.2.1-.4.2-.6c.1-.3.3-.4.4-.6c.2-.1.5-.2.7-.3c.3-.1.6-.1.9-.1c.4 0 .7 0 .9.1c.3.1.5.2.7.3c.2.2.4.3.5.6c.1.2.1.4.1.6c0 .5-.1.9-.4 1.2c-.4.3-.8.5-1.3.5zm-1.9-1.7c0 .4.2.6.4.8c.3.2.6.3 1 .3c.5 0 .8-.1 1.1-.3c.2-.2.3-.4.3-.8c0-.3-.1-.5-.3-.7c-.3-.2-.6-.3-1.1-.3c-.4 0-.7.1-1 .3c-.2.2-.4.4-.4.7zm16.1-2c.04-.03 0-.4 0-.4h-5.6v-.6h6.5s-.02.97 0 1v.9c0 .3 0 .6-.1.9c0 .3 0 .7-.1 1c0 .4-.1.8-.1 1.2l-.9-.1c.2-.7.2-1.3.3-1.9v-2zm-1.3 5.2h3.1v.7h-8.2v-.7h2v-3h.8v3h1.5v-3h.8v3zm8.6-2.3h3.7v.7h-8.3v-.7h3.8v-.9h-2.7v-3.7h6.2v.7h-5.3v.8h5.1v.6h-5.1v.9h5.4v.7h-2.8v.9zm-.4 1.4c1 0 1.8.1 2.3.3c.5.3.8.6.8 1.1c0 .5-.3.9-.8 1.1c-.5.3-1.3.4-2.3.4c-1 0-1.8-.1-2.3-.4c-.6-.2-.8-.6-.8-1.1c0-.5.2-.8.8-1.1c.5-.2 1.3-.3 2.3-.3zm0 2.2c.7 0 1.3 0 1.7-.2c.4-.1.6-.3.6-.6c0-.3-.2-.5-.6-.6c-.4-.2-1-.2-1.7-.2c-.8 0-1.3 0-1.7.2c-.4.1-.6.3-.6.6c0 .3.2.5.6.6c.4.2.9.2 1.7.2zm12.1-5.7h1.4v.7h-1.4v3.3h-.8v-6.8h.8v2.8zm-2.1.1c0 .4-.1.7-.2 1c-.1.2-.3.5-.5.7c-.2.2-.5.3-.8.4c-.2.1-.6.2-.9.2c-.3 0-.7-.1-1-.2c-.2-.1-.5-.2-.7-.4c-.2-.2-.4-.5-.5-.7c-.1-.3-.2-.6-.2-1c0-.3.1-.6.2-.9c.1-.3.3-.5.5-.7c.2-.2.5-.3.7-.5c.3-.1.7-.1 1-.1c.3 0 .7 0 .9.1c.3.2.6.3.8.5c.2.2.4.4.5.7c.1.3.2.6.2.9zm-4 0c0 .3.1.5.1.7c.1.1.2.3.4.4c.1.2.3.3.5.4c.2 0 .4.1.6.1c.2 0 .4-.1.6-.1c.2-.1.4-.2.5-.4c.2-.1.3-.3.3-.4c.1-.2.2-.4.2-.7c0-.2-.1-.4-.2-.6c0-.2-.1-.3-.3-.5c-.1-.1-.3-.2-.5-.3c-.2-.1-.4-.1-.6-.1c-.2 0-.4 0-.6.1c-.2.1-.4.2-.5.3c-.2.2-.3.3-.4.5c0 .2-.1.4-.1.6zm1.3 3.2v2.2h5.2v.7h-6.1v-2.9h.9zm11.8-3.5h1.8v-2.5h.9v6.7h-.9v-3.5h-1.8v-.7zm.5 2.1l-.4.7c-.5-.2-1-.5-1.3-.8c-.4-.4-.7-.8-.9-1.3c-.2.5-.5 1-.9 1.4c-.4.4-.9.7-1.4.9l-.5-.7c.4-.1.7-.3 1-.5c.3-.2.5-.4.7-.7c.2-.2.4-.5.5-.8c.1-.3.2-.6.2-1c-.05.03 0-.4 0-.4h-2.1v-.7h4.9v.7h-2v.4c0 .3 0 .6.1.9c.2.3.3.5.5.8c.2.2.4.5.7.7c.3.2.6.3.9.4zm-2.9 3.6h5.3v.7h-6.1v-2.8h.8v2.1zm13.3-1h3.8v.7h-8.3v-.7h3.7v-2.2h-2.7v-4.3h6.3v4.3h-2.8v2.2zm-2.7-5.8v2.9h4.6V39h-4.6zm14-1.5h.9v9.2h-.9v-9.2zm-5.2.9s-.04 5.21 0 5.2c.7 0 1.4 0 2.1-.1l2.2-.3l.1.7c-.8.2-1.6.3-2.3.3c-.7.1-1.5.1-2.2.1c-.02.02-.8 0-.8 0v-5.9h.9zm14.4-.9h.9v9.2h-.9v-5H306v-.7h1.9v-3.5zm-5.4 4.1s-.01 2.21 0 2.2h2.1c.3-.1.6-.1.9-.1c.3-.1.6-.1.9-.2l.1.7c-.3.1-.6.1-.9.2h-1c-.3.1-.7.1-1 .1h-1.9v-6.1h4.2v.7h-3.4v1.8h3v.7h-3zm15.4-4.1v5.7h-.8v-5.7h.8zm-1.9 4.1l.1.7c-.4.1-.8.1-1.1.2c-.4 0-.7 0-1.1.1h-3V40h3.3v-1.2h-3.3v-.7h4.1v2.5h-3.3v1.3h2.2c.4 0 .7-.1 1-.1c.4 0 .7-.1 1.1-.2zm-1.1 1.8c.5 0 .9 0 1.3.1c.4.1.7.2.9.3c.3.1.5.3.7.5c.1.2.2.5.2.7c0 .5-.3 1-.9 1.2c-.5.3-1.3.5-2.2.5c-1 0-1.7-.2-2.3-.5c-.5-.2-.8-.7-.8-1.2c0-.5.3-.9.8-1.2c.6-.3 1.3-.4 2.3-.4zm0 2.6c.7 0 1.3-.1 1.7-.2c.3-.2.5-.5.5-.8c0-.3-.2-.5-.5-.7c-.4-.2-1-.3-1.7-.3c-.7 0-1.3.1-1.6.3c-.4.2-.6.4-.6.7c0 .3.2.6.6.8c.3.1.9.2 1.6.2zm12.2-7.8v.6h-5.2v-.6h2.2v-.8h.8v.8h2.2zm1.7 1.7h1.3v.7h-1.3v2.3h-.9v-5.4h.9v2.4zm-1.4 1.9v.6c-.5.1-.9.1-1.5.2c-.5 0-1 .1-1.4.1h-2.8l-.1-.6h2.5v-.6c-.6 0-1-.1-1.3-.3c-.3-.3-.5-.5-.5-.9c0-.4.2-.7.6-.9c.4-.2.9-.3 1.6-.3c.7 0 1.2.1 1.6.3c.3.2.5.5.5.9c0 .4-.1.6-.4.8c-.3.2-.8.4-1.3.4v.5h1.3c.4-.1.8-.1 1.2-.2zm-4.3-1.5c0 .2.2.4.4.5c.2.1.6.2 1 .2c.4 0 .7-.1 1-.2c.2-.1.3-.3.3-.5c0-.2-.1-.3-.3-.5c-.3-.1-.6-.1-1-.1c-.4 0-.8 0-1 .1c-.2.2-.4.3-.4.5zm.6 4.9v.8h5.4v.6h-6.2v-2h5v-.7h-5.1v-.6h6v1.9h-5.1zm11.7-3.1h3.7v.6h-8.2v-.6h3.7V41h-2.7v-3h6.2v.6h-5.4v1.7h5.5v.7h-2.8v1.1zm-.4 1.3c1 0 1.7.1 2.3.4c.5.3.8.7.8 1.2c0 .6-.3 1-.8 1.3c-.6.2-1.3.4-2.3.4c-1 0-1.8-.2-2.3-.4c-.6-.3-.8-.7-.8-1.3c0-.5.2-.9.8-1.2c.5-.3 1.3-.4 2.3-.4zm0 2.6c.7 0 1.3 0 1.7-.2c.4-.2.6-.4.6-.8c0-.3-.2-.5-.6-.7c-.4-.2-1-.3-1.7-.3c-.7 0-1.3.1-1.7.3c-.4.2-.6.4-.6.7c0 .4.2.6.6.8c.4.2 1 .2 1.7.2zm9.2-5.1c-1 0-1.8-.2-2.4-.4c-.6-.3-.8-.7-.8-1.2c0-.5.2-.9.8-1.2c.6-.3 1.4-.4 2.4-.4c1 0 1.8.1 2.3.4c.6.3.9.7.9 1.2c0 .5-.3.9-.9 1.2c-.5.2-1.3.4-2.3.4zm0-2.6c-.8 0-1.4.1-1.8.3c-.4.1-.6.4-.6.7c0 .3.2.5.6.7c.4.2 1 .2 1.8.2c.7 0 1.3 0 1.7-.2c.4-.2.6-.4.6-.7c0-.3-.2-.6-.6-.7c-.4-.2-1-.3-1.7-.3zm-4.2 3.2h8.3v.7H340v-.7zm1.9 3.5v.9h5.6v.7h-6.4v-2.2h5.3v-.8H341v-.7h6.2v2.1h-5.3zm13.9-2.6h3.8v.7h-8.3v-.7h3.7v-.9h-2.6v-3.7h6.1v.7h-5.3v.8h5.1v.6h-5.1v.9h5.4v.7h-2.8v.9zm-.4 1.4c1 0 1.8.1 2.4.3c.5.3.8.6.8 1.1c0 .5-.3.9-.8 1.1c-.6.3-1.4.4-2.4.4c-1 0-1.8-.1-2.3-.4c-.5-.2-.8-.6-.8-1.1c0-.5.3-.8.8-1.1c.5-.2 1.3-.3 2.3-.3zm0 2.2c.8 0 1.3 0 1.7-.2c.4-.1.6-.3.6-.6c0-.3-.2-.5-.6-.6c-.4-.2-.9-.2-1.7-.2c-.7 0-1.3 0-1.7.2c-.4.1-.6.3-.6.6c0 .3.2.5.6.6c.4.2 1 .2 1.7.2zm12-8.5h.8v9.2h-.8v-4.6h-1.2v4.1h-.7v-8.5h.7v3.7h1.2v-3.9zm-4.3.3v1.3h1.9v.7h-4.5v-.7h1.8v-1.3h.8zm-.4 2.6c.3 0 .6 0 .8.1c.3.2.5.3.6.5c.2.2.4.4.5.6c0 .3.1.6.1.9c0 .3-.1.6-.1.8c-.1.3-.3.5-.5.7c-.1.2-.3.3-.6.4c-.2.1-.5.2-.8.2c-.2 0-.5-.1-.7-.2c-.3-.1-.5-.2-.7-.4c-.1-.2-.3-.4-.4-.7c-.1-.2-.1-.5-.1-.8c0-.3 0-.6.1-.9c.1-.2.3-.4.4-.6c.2-.2.4-.3.7-.5c.2-.1.5-.1.7-.1zm0 3.5c.4 0 .7-.2.9-.4c.2-.3.4-.6.4-1c0-.2-.1-.4-.1-.6c-.1-.1-.2-.3-.3-.4c-.1-.1-.2-.2-.4-.3c-.1-.1-.3-.1-.5-.1c-.3 0-.6.1-.8.4c-.3.2-.4.6-.4 1c0 .4.1.7.4 1c.2.2.5.4.8.4z" stroke="none" fill="#111111"/></g><g id="Polygon117203"><path d="m2.6 26.6h3v.8H.5v-.6s2.62-2.5 2.6-2.5l.6-.6c.1-.2.3-.4.4-.6c.1-.1.2-.3.3-.5c0-.2.1-.4.1-.7c0-.4-.2-.7-.4-.9c-.3-.3-.6-.4-1-.4c-.2 0-.4.1-.6.1c-.2.1-.3.2-.5.3c-.1.2-.2.3-.3.5c-.1.2-.1.4-.1.6l-.9-.2c0-.3.1-.6.3-.9c.1-.2.3-.4.5-.6c.2-.2.5-.3.8-.4c.2-.1.5-.2.9-.2c.3 0 .6.1.8.2c.3.1.6.2.8.4c.2.2.3.4.4.6c.2.3.2.6.2.9c0 .3 0 .6-.1.8c-.1.2-.2.5-.3.7c-.2.2-.4.4-.5.6c-.2.2-.4.5-.6.7l-2.1 2c.1 0 .3 0 .4-.1h.4zm9.1-2.9c0 .7-.1 1.2-.2 1.7c-.2.5-.4.9-.6 1.2c-.3.4-.6.6-.9.7c-.3.2-.7.3-1.1.3c-.4 0-.7-.1-1-.3c-.4-.1-.7-.3-.9-.7c-.3-.3-.5-.7-.6-1.2c-.1-.5-.2-1-.2-1.7c0-.7.1-1.2.2-1.7c.1-.5.3-.9.6-1.2c.2-.3.5-.6.9-.7c.3-.2.6-.3 1-.3c.4 0 .8.1 1.1.3c.3.1.6.4.9.7c.2.3.4.7.6 1.2c.1.5.2 1 .2 1.7zm-1 0c0-.6 0-1.1-.1-1.5c-.1-.4-.2-.7-.4-.9c-.2-.3-.4-.4-.6-.5c-.2-.1-.4-.2-.7-.2c-.2 0-.4.1-.6.2c-.3.1-.5.2-.6.5c-.2.2-.3.5-.4.9c-.1.4-.2.9-.2 1.5c0 .6.1 1.1.2 1.5c.1.4.2.7.4.9c.1.3.3.5.6.6c.2.1.4.1.6.1c.3 0 .5 0 .7-.1c.2-.1.4-.3.6-.6c.2-.2.3-.5.4-.9c.1-.4.1-.9.1-1.5zm4.9 3h1.5v.7h-4v-.7h1.6s.04-5.55 0-5.5v-.2c.05.04-1.3 1.3-1.3 1.3l-.5-.6l2-1.8h.7v6.8zm6.7-6.8l-2.2 2.8c-.1.2-.2.3-.2.3c-.1.1-.1.2-.2.2l.6-.3c.2 0 .5-.1.7-.1c.3 0 .6.1.9.2c.3.1.5.2.7.4c.2.2.4.5.5.7c.1.3.2.6.2 1c0 .3-.1.7-.2 1c-.2.3-.3.5-.6.8c-.2.2-.5.4-.8.5c-.3.1-.7.2-1 .2c-.4 0-.8-.1-1.1-.2c-.3-.1-.5-.3-.8-.5c-.2-.3-.3-.5-.5-.8c-.1-.4-.1-.7-.1-1.1c0-.3 0-.7.2-1.1c.1-.3.4-.7.7-1.2l2.1-2.8h1.1zm-1.7 6.9c.3 0 .5-.1.7-.1c.2-.1.4-.2.6-.4c.1-.1.2-.3.3-.5c.1-.2.1-.4.1-.6c0-.3 0-.5-.1-.7c-.1-.2-.2-.4-.3-.5l-.6-.3c-.1-.1-.4-.1-.6-.1c-.2 0-.5 0-.7.1c-.2.1-.3.2-.5.3c-.1.2-.2.4-.3.5c-.1.2-.1.4-.1.7c0 .4.1.8.4 1.1c.2.3.6.5 1.1.5zm10.1-1v-3.1h-2.5v-.7h2.5v-1.1h-2.5v-.7h2.5v-1.1h.9v6.7h-.9zm-1.5-2.4l.1.7c-.7.2-1.4.3-2.1.3c-.6 0-1.3.1-1.9.1c-.03-.03-.7 0-.7 0v-4.8h.8v4.1c.6 0 1.3-.1 1.9-.1c.6-.1 1.2-.1 1.9-.3zm-2.6 3.9h5.2v.7h-6.1v-2.8h.9v2.1zm13.9-7.9v4h-6.2v-4h.8v1.3h4.5v-1.3h.9zm-.9 3.3v-1.4h-4.5v1.4h4.5zm1.9 1.8v.6h-3.7v3.1h-.9v-3.1h-3.7v-.6h8.3zm7.6-5.5h.8v9.2h-.8v-5h-1.9v-.7h1.9V19zm-5.4 4.1s-.04 2.21 0 2.2h2.1c.3-.1.6-.1.9-.1c.3-.1.6-.1.9-.2l.1.7c-.3.1-.7.1-1 .2h-.9c-.4.1-.7.1-1.1.1h-1.9v-6.1h4.3v.7h-3.4v1.8h3v.7h-3zm14.8-1.5h1.9v-2.5h.8v6.7h-.8v-3.5h-1.9v-.7zm.6 2.1l-.5.7c-.5-.2-.9-.5-1.3-.8c-.4-.4-.7-.8-.9-1.3c-.2.5-.5 1-.9 1.4c-.4.4-.8.7-1.4.9l-.4-.7c.3-.1.6-.3.9-.5c.3-.2.6-.4.8-.7c.2-.2.3-.5.4-.8c.1-.3.2-.6.2-1v-.4h-2v-.7h4.8v.7h-2s.03.42 0 .4c0 .3.1.6.2.9c.1.3.3.5.5.8c.1.2.4.5.6.7c.3.2.6.3 1 .4zm-2.9 3.6h5.3v.7h-6.2v-2.8h.9v2.1zm14.9-3.9h-3.7v1.7h2.7v3.1h-.8v-2.4h-5.6v-.7h2.9v-1.7h-3.8v-.7s6.2.04 6.2 0c.1-.5.2-1 .2-1.4v-1.1c.05-.05-5.3 0-5.3 0v-.7h6.2s-.03.64 0 .6c0 .4 0 .8-.1 1.2c0 .4 0 .9-.2 1.4c.05.04 1.3 0 1.3 0v.7zm6.4 3.3h1.4v.7h-4v-.7h1.7s-.05-5.55 0-5.5v-.2l-1.4 1.3l-.5-.6l2-1.8h.8v6.8zm3.3.7s2.36-2.93 2.4-2.9c.1-.2.2-.3.2-.4c.1-.1.1-.2.2-.2c-.4.3-.9.5-1.5.5c-.3 0-.5-.1-.8-.2c-.3-.1-.5-.2-.7-.4c-.2-.2-.3-.4-.4-.7c-.2-.3-.2-.6-.2-.9c0-.4 0-.7.2-1c.1-.2.3-.5.5-.7c.2-.2.5-.4.8-.5c.3-.2.6-.2 1-.2c.4 0 .7 0 1 .2c.3.1.6.3.8.5c.2.2.4.4.5.7c.1.4.2.7.2 1.1c0 .4-.1.8-.3 1.2c-.1.3-.4.7-.6 1.1c-.04.01-2.1 2.8-2.1 2.8h-1.2zm.1-5.3c0 .5.2.9.4 1.1c.3.3.7.4 1.1.4c.3 0 .5 0 .7-.1c.2-.1.4-.2.5-.3c.2-.2.3-.3.3-.5c.1-.2.1-.4.1-.6c0-.2 0-.4-.1-.6c0-.2-.2-.4-.3-.5c-.1-.1-.3-.2-.5-.3c-.2-.1-.4-.1-.6-.1c-.5 0-.9.1-1.1.4c-.3.3-.5.7-.5 1.1zm5.8 5.3s2.34-2.93 2.3-2.9c.1-.2.2-.3.3-.4c.1-.1.1-.2.1-.2c-.4.3-.8.5-1.4.5c-.3 0-.6-.1-.8-.2c-.3-.1-.5-.2-.7-.4c-.2-.2-.4-.4-.5-.7c-.1-.3-.1-.6-.1-.9c0-.4 0-.7.1-1c.2-.2.3-.5.6-.7c.2-.2.5-.4.8-.5c.3-.2.6-.2 1-.2c.4 0 .7 0 1 .2c.3.1.5.3.8.5c.2.2.3.4.5.7c.1.4.1.7.1 1.1c0 .4 0 .8-.2 1.2c-.2.3-.4.7-.7 1.1c.03.01-2 2.8-2 2.8h-1.2zm.1-5.3c0 .5.1.9.4 1.1c.3.3.6.4 1.1.4c.3 0 .5 0 .7-.1c.2-.1.4-.2.5-.3c.1-.2.2-.3.3-.5c.1-.2.1-.4.1-.6c0-.2 0-.4-.1-.6c-.1-.2-.2-.4-.3-.5c-.2-.1-.3-.2-.5-.3c-.2-.1-.4-.1-.6-.1c-.5 0-.9.1-1.2.4c-.3.3-.4.7-.4 1.1zM98.7 19h.8v9.2h-.8v-4.8h-1.3v4.3h-.7v-8.4h.7v3.4h1.3V19zm-6.6 1.2s3.54.02 3.5 0c0 .6 0 1.2-.1 1.8c-.1.5-.3 1-.6 1.6c-.3.5-.6 1-1 1.4c-.5.5-1 .9-1.7 1.2l-.5-.6c.6-.3 1-.6 1.4-.9c.4-.4.7-.8.9-1.2c.3-.4.4-.8.6-1.2c.1-.5.2-.9.2-1.4h-2.7v-.7zm15.4 6.1h3.8v.7H103v-.7h3.7v-2.4H104v-4.1h.8v3.4h5.5v.7h-2.8v2.4zm12.2-7.2v6.6h-.9v-6.6h.9zm-2.5 2.8c0 .4-.1.7-.2.9c-.1.3-.3.6-.5.8c-.2.2-.5.3-.8.4c-.3.1-.6.2-.9.2c-.4 0-.7-.1-1-.2c-.3-.1-.5-.2-.7-.4c-.3-.2-.4-.5-.5-.8c-.2-.2-.2-.5-.2-.9c0-.3 0-.6.2-.9c.1-.3.2-.5.5-.7c.2-.2.4-.3.7-.5c.3-.1.6-.1 1-.1c.3 0 .6 0 .9.1c.3.2.6.3.8.5c.2.2.4.4.5.7c.1.3.2.6.2.9zm-4 0c0 .3 0 .5.1.6c.1.2.2.4.3.5c.2.2.3.3.5.4c.2 0 .4.1.7.1c.2 0 .4-.1.6-.1c.2-.1.3-.2.5-.4c.1-.1.2-.3.3-.5c.1-.1.1-.3.1-.6c0-.2 0-.4-.1-.6c-.1-.2-.2-.3-.3-.5c-.2-.1-.3-.2-.5-.3c-.2-.1-.4-.1-.6-.1c-.3 0-.5 0-.7.1c-.2.1-.3.2-.5.3c-.1.2-.2.3-.3.5c-.1.2-.1.4-.1.6zm1.4 5.4h5.4v.7h-6.2v-3h.8v2.3zm11.3-3.5h3.7v.6h-8.3v-.6h3.8v-1.1h-2.7v-3.4h.9v1h4.4v-1h.8v3.4h-2.6v1.1zm-2.6-2.9v1.1h4.4v-1.1h-4.4zm-1 5.1v-.7h6.3v2.9h-.8V26h-5.5zm14.9-6.9h.8v9.1h-.8v-9.1zm-3.4 1.6s-.01 1.14 0 1.1c0 .4.1.8.2 1.2c.1.4.3.7.5 1.1c.2.3.5.6.8.8c.3.3.6.5.9.6l-.4.7c-.6-.2-1-.6-1.5-1.1c-.4-.5-.7-1.1-.9-1.7c-.1.3-.3.7-.4 1c-.2.3-.4.6-.6.8c-.2.3-.4.5-.6.7c-.3.2-.5.4-.8.5l-.5-.6c.4-.2.7-.4 1-.7c.3-.3.5-.6.7-.9c.3-.4.4-.8.6-1.2c.1-.4.2-.8.2-1.2c-.04.04 0-1.1 0-1.1h-2.2v-.7h5.1v.7h-2.1zm13 1.3h1.3v.7h-1.3v3.2h-.8V19h.8v3zm-2.3.9h-.8c.1-.6.2-1 .2-1.4v-1.1c.03.04-3.7 0-3.7 0v-.6h4.5s.05.43 0 .4v1.2c0 .4-.1.9-.2 1.5zm.9.6v.6c-.4.1-.9.2-1.4.2c-.5.1-1 .1-1.5.1c-.5 0-1 .1-1.5.1h-1.3l-.1-.7h2v-2h.8v1.9h1.5c.5-.1 1-.1 1.5-.2zm-3.5 1.8v2h5.2v.7H141v-2.7h.9zm6.7 2.9l.3-2.1h.9l-.6 2.1h-.6zm12.5-7.1h-1.3v1.3h1.3v.7h-1.3v1.4h-.8v-5.4h.8v1.3h1.3v.7zm-3.5.7c0 .3 0 .6-.1.8c-.2.3-.3.5-.5.7c-.3.2-.5.4-.8.5c-.3.1-.6.1-.9.1c-.4 0-.7 0-1-.1c-.3-.1-.5-.3-.8-.5c-.2-.2-.3-.4-.5-.7c-.1-.2-.1-.5-.1-.8c0-.4 0-.7.1-.9c.2-.3.3-.5.5-.7c.3-.2.5-.3.8-.5c.3-.1.6-.1 1-.1c.3 0 .6 0 .9.1c.3.2.5.3.8.5c.2.2.3.4.5.7c.1.2.1.5.1.9zm-3.9 0c0 .2 0 .4.1.5c.1.2.2.4.3.5c.2.1.3.2.5.3c.2.1.4.1.7.1c.2 0 .4 0 .6-.1c.2-.1.3-.2.5-.3c.1-.1.2-.3.3-.5c.1-.1.1-.3.1-.5c0-.3 0-.5-.1-.6c-.1-.2-.2-.4-.3-.5c-.2-.1-.3-.2-.5-.3c-.2-.1-.4-.1-.6-.1c-.3 0-.5 0-.7.1c-.2.1-.3.2-.5.3c-.1.1-.2.3-.3.5c-.1.1-.1.3-.1.6zm.1 3.8v-.7h6v3.3h-.8v-2.6h-5.2zm13.5 1.1h1.5v.7h-4.1v-.7h1.7V21c.01.04-1.3 1.3-1.3 1.3l-.5-.6l2-1.8h.7v6.8zm6.7-6.8s-2.25 2.84-2.3 2.8c0 .2-.1.3-.2.3c0 .1-.1.2-.1.2l.6-.3c.2 0 .4-.1.7-.1c.3 0 .6.1.8.2c.3.1.6.2.8.4c.2.2.3.5.4.7c.2.3.2.6.2 1c0 .3 0 .7-.2 1c-.1.3-.3.5-.5.8c-.2.2-.5.4-.8.5c-.3.1-.7.2-1.1.2c-.4 0-.7-.1-1-.2c-.3-.1-.6-.3-.8-.5c-.2-.3-.4-.5-.5-.8c-.1-.4-.2-.7-.2-1.1c0-.3.1-.7.2-1.1c.2-.3.4-.7.7-1.2c.05.02 2.1-2.8 2.1-2.8h1.2zm-1.7 6.9c.3 0 .5-.1.7-.1c.2-.1.4-.2.5-.4c.2-.1.3-.3.4-.5c0-.2.1-.4.1-.6c0-.3-.1-.5-.1-.7c-.1-.2-.2-.4-.4-.5c-.1-.1-.3-.2-.5-.3c-.2-.1-.4-.1-.6-.1c-.3 0-.5 0-.7.1c-.2.1-.4.2-.5.3c-.2.2-.3.4-.4.5c0 .2-.1.4-.1.7c0 .4.2.8.4 1.1c.3.3.7.5 1.2.5zm3.1 1.4l.3-2.1h1l-.7 2.1h-.6zm6.3-3.5h1.1v.7h-1.1v2h-.9v-2h-3.7v-.6l3.7-4.9h.9v4.8zm-3.6 0h2.7s.04-3.11 0-3.1c0-.1 0-.2.1-.3v-.3c-.01-.04-2.8 3.7-2.8 3.7zm6.9-3.9s-.29 1.94-.3 1.9c.3 0 .7-.1 1.1-.1c.4 0 .7.1 1 .2c.3.1.6.3.8.5c.2.2.3.4.5.7c.1.3.1.6.1.9c0 .4-.1.8-.2 1.1c-.1.3-.3.6-.6.8c-.2.2-.5.4-.8.5c-.4.2-.7.2-1.1.2c-.5 0-.9-.1-1.2-.2c-.4-.2-.7-.4-.9-.6l.5-.7c.2.2.5.4.7.5c.3.1.6.2.9.2c.3 0 .5 0 .8-.1c.2-.1.4-.2.5-.4c.2-.1.3-.3.4-.5c.1-.2.1-.5.1-.8c0-.4-.1-.8-.4-1.1c-.3-.3-.8-.4-1.3-.4c-.2 0-.4 0-.6.1c-.2 0-.4.1-.6.1c-.02.04-.6-.1-.6-.1l.6-3.6h3.6v.9h-3zm7.5 5.9h1.5v.7h-4v-.7h1.6s.03-5.55 0-5.5v-.2c.04.04-1.3 1.3-1.3 1.3l-.5-.6l2-1.8h.7v6.8zm7.1-3.7v.8h-4.1v-4.1h4.1v.8h2.1v-1.4h.9v5.4h-.9V23h-2.1zm-.8.1v-2.7h-2.5v2.7h2.5zm2.9-1.9h-2.1v1.1h2.1v-1.1zm-2.1 3.5c.9 0 1.7.2 2.2.5c.5.3.8.7.8 1.3c0 .2-.1.5-.2.7c-.1.2-.3.4-.6.5c-.3.2-.6.3-1 .4c-.3 0-.8.1-1.2.1c-.5 0-.9-.1-1.3-.1c-.4-.1-.7-.2-1-.4c-.2-.1-.4-.3-.6-.5c-.1-.2-.2-.5-.2-.7c0-.3.1-.6.2-.8c.2-.2.4-.4.6-.5c.3-.2.6-.3 1-.4c.4 0 .8-.1 1.3-.1zm0 2.8c.7 0 1.2-.1 1.6-.2c.4-.2.6-.5.6-.8c0-.4-.2-.7-.6-.8c-.4-.2-.9-.3-1.6-.3c-.7 0-1.3.1-1.7.3c-.3.1-.5.4-.5.8c0 .3.2.6.5.8c.4.1 1 .2 1.7.2zm11.3-8.5h.8v9.2h-.8V19zm-4 .7c.3 0 .6.1.9.3c.3.1.6.3.8.6c.2.3.3.6.4 1c.2.4.2.8.2 1.3c0 .5 0 1-.2 1.4c-.1.3-.2.7-.4 1c-.2.2-.5.5-.8.6c-.3.2-.6.2-.9.2c-.3 0-.7 0-.9-.2c-.3-.1-.6-.4-.8-.6c-.2-.3-.3-.7-.5-1c-.1-.4-.1-.9-.1-1.4c0-.5 0-.9.1-1.3c.2-.4.3-.7.5-1c.2-.3.5-.5.8-.6c.2-.2.6-.3.9-.3zm0 .8c-.2 0-.4.1-.6.2c-.2.1-.4.3-.5.5c-.1.2-.2.4-.3.7c-.1.3-.1.7-.1 1c0 .4 0 .7.1 1c.1.3.2.6.3.8c.1.2.3.4.5.5c.2.1.4.2.6.2c.2 0 .4-.1.6-.2c.2-.1.4-.3.5-.5c.1-.2.2-.5.3-.8c.1-.3.1-.6.1-1c0-.3 0-.7-.1-1c-.1-.3-.2-.5-.3-.7c-.1-.2-.3-.4-.5-.5c-.2-.1-.4-.2-.6-.2zm15.1.5c-.04-.03 0-.4 0-.4h-5.6v-.6h6.4v2.8c-.1.3-.1.7-.1 1c-.1.4-.1.8-.2 1.2l-.9-.1c.2-.7.3-1.3.3-1.9c0-.7.1-1.3.1-2zm-1.4 5.2h3.2v.7h-8.3v-.7h2v-3h.8v3h1.5v-3h.8v3zm8.2-3.4c-.5 0-.9-.1-1.3-.2c-.4 0-.8-.2-1-.3c-.3-.2-.5-.3-.7-.6c-.1-.2-.2-.4-.2-.7c0-.3.1-.5.2-.7c.2-.2.4-.4.7-.6c.2-.1.6-.2 1-.3c.4-.1.8-.1 1.3-.1c.5 0 .9 0 1.3.1c.4.1.8.2 1.1.3l.6.6c.1.2.2.4.2.7c0 .3-.1.5-.2.7c-.2.3-.4.4-.6.6c-.3.1-.7.3-1.1.3c-.4.1-.8.2-1.3.2zm0-2.9c-.7 0-1.3.1-1.7.3c-.4.2-.7.5-.7.8c0 .4.3.6.7.8c.4.2 1 .3 1.7.3c.7 0 1.3-.1 1.7-.3c.5-.2.7-.4.7-.8c0-.3-.2-.6-.7-.8c-.4-.2-1-.3-1.7-.3zm4.1 4.2h-2.1v1.2h1.1v2.9h-.8V26h-5.5v-.7h1.3v-1.2h-2.2v-.7h8.2v.7zm-3 1.2v-1.2h-2.2v1.2h2.2zm8.1-2.9c-1 0-1.8-.2-2.4-.4c-.5-.3-.8-.7-.8-1.2c0-.5.3-.9.8-1.2c.6-.3 1.4-.4 2.4-.4c1 0 1.8.1 2.3.4c.6.3.9.7.9 1.2c0 .5-.3.9-.9 1.2c-.5.2-1.3.4-2.3.4zm0-2.6c-.8 0-1.4.1-1.8.3c-.4.1-.6.4-.6.7c0 .3.2.5.6.7c.4.2 1 .2 1.8.2c.7 0 1.3 0 1.7-.2c.4-.2.6-.4.6-.7c0-.3-.2-.6-.6-.7c-.4-.2-1-.3-1.7-.3zm-4.2 3.2h8.3v.7h-8.3v-.7zm1.9 3.5v.9h5.6v.7h-6.4v-2.2h5.3v-.8h-5.4v-.7h6.3v2.1h-5.4zm17.3-4l-.4.7l-1-.3c-.3-.1-.7-.3-1-.4c-.3-.2-.5-.4-.8-.7c-.2-.2-.4-.5-.5-.7c-.2.2-.4.5-.6.7c-.3.3-.5.5-.8.7c-.3.1-.6.3-1 .4l-1 .3l-.4-.7c.5 0 .9-.1 1.3-.3c.4-.2.7-.4 1-.6c.3-.2.6-.5.7-.8c.2-.3.3-.6.3-.9c.02-.02 0-.5 0-.5h.9v.5c0 .3.1.6.3.9c.2.3.4.6.7.8c.3.2.7.4 1.1.6c.4.2.8.3 1.2.3zm.4 1.7v.7h-3.7v3.3h-.9v-3.3h-3.7v-.7h8.3zm7 2.2h2.2v.7h-8.3v-.7h2.3v-1.8h-1.3v-2.8h5.5v-1.4h-5.5v-.7h6.3v2.8h-5.4v1.5h5.6v.6h-1.4v1.8zm-3-1.8v1.8h2.1v-1.8h-2.1zm11.8-2.4v2.4h-.7v-5.4h.7v2.4h1.2v-2.5h.8v5.6h-.8v-2.5h-1.2zm-1.1-2.1v.7h-4.7v-.7h1.9v-1h.9v1h1.9zm-2.3 4.2c-.3 0-.6 0-.8-.1c-.3 0-.5-.1-.7-.3c-.1-.1-.3-.3-.4-.5c-.1-.2-.1-.4-.1-.6c0-.3 0-.5.1-.7c.1-.2.3-.3.4-.5c.2-.1.4-.2.7-.3c.2 0 .5-.1.8-.1c.2 0 .5.1.7.1c.3.1.5.2.7.3c.1.2.3.3.4.5c.1.2.1.4.1.7c0 .2 0 .4-.1.6c-.1.2-.3.4-.4.5c-.2.2-.4.3-.7.3c-.2.1-.5.1-.7.1zm0-2.5c-.4 0-.7.1-.9.3c-.2.2-.3.4-.3.7c0 .3.1.5.3.7c.2.1.5.2.9.2c.3 0 .6-.1.8-.2c.3-.2.4-.4.4-.7c0-.3-.1-.5-.4-.7c-.2-.2-.5-.3-.8-.3zm4.3 3.2s-.03.29 0 .3c0 .2 0 .4.1.7c.1.2.2.4.4.6c.1.2.3.3.5.5c.3.1.5.3.8.4l-.4.6c-.4-.2-.8-.4-1.1-.7c-.4-.3-.6-.6-.7-1c-.2.4-.4.7-.7 1c-.2.3-.6.6-1 .8c-.5-.2-.8-.4-1.1-.7c-.3-.3-.5-.7-.6-1.1c-.2.4-.4.7-.7 1c-.3.3-.7.5-1.2.7l-.3-.6c.2-.1.5-.3.7-.4c.3-.2.4-.4.6-.6c.2-.2.3-.4.4-.6c0-.2.1-.4.1-.6v-.3h.8v.3c0 .4.1.8.3 1.1c.2.4.5.7 1 1c.2-.2.4-.3.5-.5c.2-.2.3-.3.4-.5l.3-.6v-.5c.05-.01 0-.3 0-.3h.9zm6.7-5.4c.5 0 .9.1 1.3.2c.4.1.8.3 1.1.5c.3.2.5.5.7.8c.1.3.2.7.2 1c0 .4-.1.8-.2 1.1c-.2.3-.4.6-.7.8c-.3.2-.7.4-1.1.5c-.4.1-.8.2-1.3.2c-.5 0-.9-.1-1.3-.2c-.4-.1-.8-.3-1.1-.5c-.3-.2-.5-.5-.7-.8c-.2-.3-.2-.7-.2-1.1c0-.3 0-.7.2-1c.2-.3.4-.6.7-.8c.3-.2.7-.4 1.1-.5c.4-.1.8-.2 1.3-.2zm0 .7c-.4 0-.7 0-1 .1c-.3.1-.6.2-.8.4l-.6.6c-.1.2-.1.5-.1.7c0 .3 0 .6.1.8l.6.6c.2.1.5.3.8.4c.3 0 .6.1 1 .1c.3 0 .7-.1 1-.1c.3-.1.6-.3.8-.4c.2-.2.4-.4.5-.6c.2-.2.2-.5.2-.8c0-.2 0-.5-.2-.7c-.1-.2-.3-.4-.5-.6c-.2-.2-.5-.3-.8-.4c-.3-.1-.7-.1-1-.1zm-4.2 6h8.4v.7h-8.4v-.7zm15.9-7.3h.9v9.2h-.9v-3.8h-2.1v1.5h-4.2v-6h4.2v1.3h2.1V19zm-3 6.2v-4.6H283v4.6h2.5zm.9-1.4h2.1v-1.9h-2.1v1.9zm4.3 4.4l.3-2.1h1l-.6 2.1h-.7zm6.2-1.6h2.9v.8h-5v-.6l2.6-2.5c.2-.2.4-.4.5-.6c.2-.2.4-.4.5-.6c.1-.1.2-.3.3-.5c0-.2.1-.4.1-.7c-.1-.4-.2-.7-.5-.9c-.2-.3-.5-.4-.9-.4c-.2 0-.4.1-.6.1c-.2.1-.4.2-.5.3c-.1.2-.2.3-.3.5c-.1.2-.1.4-.1.6l-.9-.2c0-.3.1-.6.3-.9c.1-.2.3-.4.5-.6c.2-.2.5-.3.7-.4c.3-.1.6-.2.9-.2c.3 0 .6.1.9.2c.3.1.5.2.7.4c.2.2.4.4.5.6c.1.3.2.6.2.9c0 .3 0 .6-.1.8c-.1.2-.2.5-.4.7c-.1.2-.3.4-.5.6c-.2.2-.4.5-.6.7l-2.1 2c.2 0 .3 0 .5-.1h.4zm9.1-2.9c0 .7-.1 1.2-.3 1.7c-.1.5-.3.9-.5 1.2c-.3.4-.6.6-.9.7c-.3.2-.7.3-1.1.3c-.4 0-.7-.1-1.1-.3c-.3-.1-.6-.3-.8-.7c-.3-.3-.5-.7-.6-1.2c-.2-.5-.2-1-.2-1.7c0-.7 0-1.2.2-1.7c.1-.5.3-.9.6-1.2c.2-.3.5-.6.8-.7c.4-.2.7-.3 1.1-.3c.4 0 .8.1 1.1.3c.3.1.6.4.9.7c.2.3.4.7.5 1.2c.2.5.3 1 .3 1.7zm-1 0c0-.6 0-1.1-.1-1.5c-.1-.4-.3-.7-.4-.9c-.2-.3-.4-.4-.6-.5c-.2-.1-.4-.2-.7-.2c-.2 0-.5.1-.7.2c-.2.1-.4.2-.5.5c-.2.2-.3.5-.4.9c-.1.4-.2.9-.2 1.5c0 .6.1 1.1.2 1.5c.1.4.2.7.4.9c.1.3.3.5.5.6c.2.1.5.1.7.1c.3 0 .5 0 .7-.1c.2-.1.4-.3.6-.6c.1-.2.3-.5.4-.9c.1-.4.1-.9.1-1.5zm3.6 2.9h3v.8h-5v-.6s2.55-2.5 2.5-2.5l.6-.6c.2-.2.3-.4.4-.6c.1-.1.2-.3.3-.5c.1-.2.1-.4.1-.7c0-.4-.1-.7-.4-.9c-.3-.3-.6-.4-1-.4c-.2 0-.4.1-.6.1c-.1.1-.3.2-.4.3c-.2.2-.3.3-.3.5c-.1.2-.2.4-.2.6l-.9-.2l.3-.9c.2-.2.3-.4.5-.6c.3-.2.5-.3.8-.4c.3-.1.6-.2.9-.2c.3 0 .6.1.9.2c.2.1.5.2.7.4c.2.2.4.4.5.6c.1.3.1.6.1.9c0 .3 0 .6-.1.8c-.1.2-.2.5-.3.7c-.2.2-.3.4-.5.6c-.2.2-.4.5-.6.7l-2.1 2c.1 0 .3 0 .4-.1h.4zm7.2.1h1.5v.7h-4.1v-.7h1.7V21c0 .04-1.4 1.3-1.4 1.3l-.5-.6l2.1-1.8h.7v6.8zm9.2-.9v-3.1h-2.6v-.7h2.6v-1.1h-2.6v-.7h2.6v-1.1h.9v6.7h-.9zm-1.5-2.4l.1.7c-.7.2-1.4.3-2.1.3c-.6 0-1.3.1-2 .1c.04-.03-.7 0-.7 0v-4.8h.9v4.1c.6 0 1.2-.1 1.9-.1c.6-.1 1.2-.1 1.9-.3zm-2.7 3.9h5.3v.7H320v-2.8h.8v2.1zm13.7-8.3h.8v9.2h-.8V19zm-1.8 3.6v-3.4h.8v8.5h-.8v-4.4s-1.19-.02-1.2 0c0 .4-.1.8-.2 1.2c-.1.3-.2.7-.4.9c-.1.3-.3.4-.6.6c-.2.1-.5.2-.7.2c-.3 0-.6-.1-.8-.2c-.3-.2-.5-.4-.7-.7c-.1-.3-.3-.6-.4-1c0-.4-.1-.8-.1-1.3c0-.5.1-1 .1-1.3c.1-.4.3-.8.4-1c.2-.3.4-.5.7-.7c.2-.1.5-.2.8-.2c.2 0 .5.1.7.2c.2.1.4.3.6.6c.2.2.3.5.4.8c.1.4.2.8.2 1.2h1.2zm-3.1 2.8c.3 0 .6-.2.8-.6c.2-.5.4-1.1.4-1.8c0-.4-.1-.7-.1-1c-.1-.3-.2-.6-.3-.8c-.1-.2-.2-.3-.3-.5c-.2-.1-.4-.1-.5-.1c-.4 0-.7.2-.9.6c-.2.5-.3 1-.3 1.8c0 .7.1 1.3.3 1.8c.2.4.5.6.9.6zm14.4-3.6v.7h-6.2v-3.1h.8v2.4h5.4zm-7.3 1.9h8.3v.7h-8.3v-.7zm1.9 1.6v2h5.5v.7h-6.4v-2.7h.9zm14.2-3.7h1.8v-2.5h.9v6.7h-.9v-3.5h-1.8v-.7zm.5 2.1l-.4.7c-.5-.2-.9-.5-1.3-.8c-.4-.4-.7-.8-.9-1.3c-.2.5-.5 1-.9 1.4c-.4.4-.9.7-1.4.9l-.4-.7c.3-.1.6-.3.9-.5c.3-.2.5-.4.7-.7c.2-.2.4-.5.5-.8c.1-.3.2-.6.2-1c-.02.03 0-.4 0-.4h-2.1v-.7h4.9v.7h-2v.4c0 .3.1.6.2.9c.1.3.2.5.4.8l.7.7c.3.2.6.3.9.4zm-2.8 3.6h5.2v.7h-6.1v-2.8h.9v2.1zm14.9-3.9h-3.7v1.7h2.7v3.1h-.8v-2.4H358v-.7h2.8v-1.7h-3.7v-.7s6.18.04 6.2 0c.1-.5.2-1 .2-1.4v-1.1c.03-.05-5.3 0-5.3 0v-.7h6.2s-.05.64 0 .6c0 .4-.1.8-.1 1.2c0 .4-.1.9-.2 1.4c.03.04 1.3 0 1.3 0v.7zm7.2 1.3h1.2v.7h-1.2v2h-.8v-2h-3.7v-.6l3.6-4.9h.9v4.8zm-3.5 0h2.7V21l-2.7 3.7zm10.4-1c0 .7-.1 1.2-.2 1.7c-.1.5-.3.9-.6 1.2c-.2.4-.5.6-.8.7c-.4.2-.7.3-1.1.3c-.4 0-.8-.1-1.1-.3c-.3-.1-.6-.3-.9-.7c-.2-.3-.4-.7-.6-1.2c-.1-.5-.2-1-.2-1.7c0-.7.1-1.2.2-1.7c.2-.5.4-.9.6-1.2c.3-.3.6-.6.9-.7c.3-.2.7-.3 1.1-.3c.4 0 .7.1 1.1.3c.3.1.6.4.8.7c.3.3.5.7.6 1.2c.1.5.2 1 .2 1.7zm-.9 0c0-.6-.1-1.1-.2-1.5c-.1-.4-.2-.7-.4-.9c-.1-.3-.3-.4-.5-.5c-.3-.1-.5-.2-.7-.2c-.3 0-.5.1-.7.2c-.2.1-.4.2-.6.5c-.1.2-.3.5-.4.9c-.1.4-.1.9-.1 1.5c0 .6 0 1.1.1 1.5c.1.4.3.7.4.9c.2.3.4.5.6.6c.2.1.4.1.7.1c.2 0 .4 0 .7-.1c.2-.1.4-.3.5-.6c.2-.2.3-.5.4-.9c.1-.4.2-.9.2-1.5zm8.5-4.7h.8v9.2h-.8v-4.8h-1.3v4.3h-.7v-8.4h.7v3.4h1.3V19zm-6.6 1.2s3.55.02 3.5 0c0 .6 0 1.2-.1 1.8c-.1.5-.3 1-.6 1.6c-.3.5-.6 1-1 1.4c-.5.5-1 .9-1.7 1.2l-.5-.6c.6-.3 1-.6 1.4-.9c.4-.4.7-.8.9-1.2c.3-.4.4-.8.6-1.2c.1-.5.2-.9.2-1.4h-2.7v-.7z" stroke="none" fill="#111111"/></g><g id="Polygon117202"><path d="m4.7 1.4L2.5 4.2c-.1.2-.2.3-.3.3c0 .1-.1.2-.1.2l.6-.3c.2 0 .4-.1.7-.1c.3 0 .6.1.9.2c.2.1.5.2.7.4c.2.2.3.5.5.7c.1.3.1.6.1 1c0 .3 0 .7-.2 1c-.1.3-.3.5-.5.8c-.2.2-.5.4-.8.5c-.3.1-.7.2-1.1.2c-.3 0-.7-.1-1-.2c-.3-.1-.6-.3-.8-.5c-.2-.3-.4-.5-.5-.8c-.1-.4-.2-.7-.2-1.1c0-.3.1-.7.2-1.1c.2-.3.4-.7.8-1.2c-.04.02 2-2.8 2-2.8h1.2zM3 8.3c.3 0 .5-.1.7-.1c.2-.1.4-.2.5-.4c.2-.1.3-.3.4-.5c.1-.2.1-.4.1-.6c0-.3 0-.5-.1-.7c-.1-.2-.2-.4-.4-.5c-.1-.1-.3-.2-.5-.3c-.2-.1-.4-.1-.6-.1c-.3 0-.5 0-.7.1c-.2.1-.4.2-.5.3c-.2.2-.3.4-.3.5c-.1.2-.2.4-.2.7c0 .4.2.8.4 1.1c.3.3.7.5 1.2.5zm5.2-6s-.38 1.94-.4 1.9c.4 0 .7-.1 1.1-.1c.4 0 .7.1 1 .2c.3.1.6.3.8.5c.2.2.4.4.5.7c.1.3.1.6.1.9c0 .4 0 .8-.2 1.1c-.1.3-.3.6-.6.8c-.2.2-.5.4-.8.5c-.4.2-.7.2-1.1.2c-.4 0-.8-.1-1.2-.2c-.4-.2-.7-.4-.9-.6l.5-.7c.2.2.5.4.8.5c.2.1.5.2.8.2c.3 0 .5 0 .8-.1c.2-.1.4-.2.5-.4c.2-.1.3-.3.4-.5c.1-.2.1-.5.1-.8c0-.4-.1-.8-.4-1.1c-.3-.3-.7-.4-1.3-.4c-.2 0-.4 0-.6.1c-.2 0-.4.1-.6.1c0 .04-.6-.1-.6-.1l.6-3.6h3.6v.9H8.2zM19.3.5h.8v9.2h-.8V.5zm-1.9 3.3V.7h.8v8.5h-.8V4.5h-1.5v-.7h1.5zM15 1.4v1.7c0 .4 0 .8.1 1.1c.1.4.2.7.4 1.1l.6.9c.2.3.5.5.8.7l-.5.6c-.4-.2-.8-.6-1.1-1.1c-.3-.4-.5-.9-.7-1.5c-.2.6-.4 1.2-.7 1.7c-.3.5-.7.8-1.2 1.1l-.5-.6c.3-.2.6-.4.8-.7c.3-.3.5-.6.7-1c.1-.3.3-.7.4-1.1c.1-.4.1-.8.1-1.1V1.4h.8zM30.2.5h.8v9.2h-.8V.5zm-4 .7c.4 0 .7.1 1 .3c.2.1.5.3.7.6c.2.3.4.6.5 1c.1.4.1.8.1 1.3c0 .5 0 1-.1 1.4c-.1.3-.3.7-.5 1c-.2.2-.5.5-.7.6c-.3.2-.6.2-1 .2c-.3 0-.6 0-.9-.2c-.3-.1-.6-.4-.8-.6c-.2-.3-.3-.7-.4-1c-.2-.4-.2-.9-.2-1.4c0-.5 0-.9.2-1.3c.1-.4.2-.7.4-1c.2-.3.5-.5.8-.6c.3-.2.6-.3.9-.3zm0 .8c-.2 0-.4.1-.6.2c-.2.1-.4.3-.5.5c-.1.2-.2.4-.3.7c-.1.3-.1.7-.1 1c0 .4 0 .7.1 1c.1.3.2.6.3.8c.1.2.3.4.5.5c.2.1.4.2.6.2c.2 0 .4-.1.6-.2c.2-.1.4-.3.5-.5c.1-.2.2-.5.3-.8c.1-.3.1-.6.1-1c0-.3 0-.7-.1-1c-.1-.3-.2-.5-.3-.7c-.1-.2-.3-.4-.5-.5c-.2-.1-.4-.2-.6-.2zm13.6.9h1.4v.7h-1.4v2.5h-.8V.6h.8v2.3zM38 4.8l-.4.7c-.5-.2-1-.5-1.3-.8c-.4-.4-.7-.8-.9-1.3c-.2.6-.5 1-.9 1.4c-.4.4-.8.7-1.4 1l-.4-.7c.3-.1.7-.3.9-.5c.3-.2.5-.5.7-.7c.2-.3.4-.6.5-.9c.1-.4.2-.7.2-1.1c-.03.05 0-.9 0-.9h.8v1c0 .3.1.6.2.9c.1.3.2.6.4.8c.2.3.4.5.7.7c.3.2.6.3.9.4zm-1.1 1.5c.5 0 .9.1 1.3.2c.3 0 .7.1.9.3c.3.1.5.3.6.5c.2.2.2.5.2.7c0 .3 0 .5-.2.7c-.1.2-.3.4-.6.5c-.2.2-.6.3-.9.4c-.4 0-.8.1-1.3.1c-.9 0-1.6-.2-2.2-.5c-.5-.2-.8-.7-.8-1.2c0-.2.1-.5.2-.7c.2-.2.4-.4.6-.5c.3-.2.6-.3 1-.3c.3-.1.8-.2 1.2-.2zm0 2.7c.7 0 1.2-.1 1.6-.2c.4-.2.6-.5.6-.8c0-.3-.2-.6-.6-.7c-.4-.2-.9-.3-1.6-.3c-.7 0-1.2.1-1.6.3c-.4.1-.6.4-.6.7c0 .3.2.6.6.8c.4.1.9.2 1.6.2zm13.5-6.6c.05-.03 0-.3 0-.3h-5.5v-.6h6.4s-.01.87 0 .9v.8c0 .4 0 .7-.1 1c0 .4 0 .7-.1 1.1c0 .4-.1.8-.2 1.3l-.8-.1c.2-.9.3-1.6.3-2.3V2.4zm-2.3 5.3h4.2v.7H44v-.7h3.2V4.4h.9v3.3zm11.8-1.5V4.5h-1.8v-.7h1.8V2.7h-1.8v-.7h1.8V.6h.8v5.6h-.8zM58 4.8l.1.7c-.3 0-.6.1-.8.1c-.3 0-.6 0-.9.1h-2.8V3h3.1V1.7h-3.2v-.6h4v2.5h-3.1v1.4h2c.3 0 .6-.1.8-.1c.3 0 .5-.1.8-.1zm-.3 1.6c.5 0 .9 0 1.3.1c.3.1.7.2.9.3c.3.1.5.3.6.5c.2.2.2.5.2.7c0 .3 0 .6-.2.8c-.1.2-.3.4-.6.5c-.2.1-.6.3-.9.3c-.4.1-.8.1-1.3.1c-.9 0-1.7-.1-2.2-.4c-.6-.3-.8-.7-.8-1.3c0-.2 0-.5.2-.7c.1-.2.3-.4.6-.5c.2-.1.6-.2.9-.3c.4-.1.8-.1 1.3-.1zm0 2.7c.7 0 1.2-.1 1.6-.3c.4-.2.6-.4.6-.8c0-.3-.2-.5-.6-.7c-.4-.2-.9-.3-1.6-.3c-.7 0-1.2.1-1.6.3c-.4.2-.6.4-.6.7c0 .4.2.6.6.8c.4.2.9.3 1.6.3zm13.2-4.9v.7h-1.5v4.8h-.8V.6h.8v3.6h1.5zm-5.5-2s.03 1.14 0 1.1c0 .4.1.8.2 1.1c.1.4.3.8.5 1.1c.2.3.5.6.8.9c.3.3.6.5.9.6l-.5.7c-.5-.2-.9-.6-1.4-1.1c-.4-.5-.7-1.1-.9-1.7c-.1.3-.2.7-.4 1c-.1.3-.3.6-.5.8c-.2.3-.4.5-.7.7c-.2.2-.5.4-.7.5l-.5-.6c.3-.2.6-.4.9-.7c.3-.3.6-.6.8-1c.2-.3.4-.7.5-1.1c.1-.4.2-.8.2-1.2c.01.04 0-1.1 0-1.1h-2.1v-.7h5v.7h-2.1zM78.5.5h.8v9.2h-.8V.5zm-1.8 3.6V.7h.8v8.5h-.8V4.8s-1.16-.02-1.2 0c0 .4 0 .8-.1 1.2c-.1.3-.3.7-.4.9c-.2.3-.4.4-.6.6c-.3.1-.5.2-.8.2c-.3 0-.6-.1-.8-.2c-.2-.2-.5-.4-.6-.7c-.2-.3-.3-.6-.4-1c-.1-.4-.2-.8-.2-1.3c0-.5.1-1 .2-1.3c.1-.4.2-.8.4-1c.1-.3.4-.5.6-.7c.2-.1.5-.2.8-.2c.3 0 .5.1.8.2c.2.1.4.3.5.6c.2.2.3.5.4.8c.1.4.2.8.2 1.2h1.2zm-3.1 2.8c.4 0 .7-.2.9-.6c.2-.5.3-1.1.3-1.8c0-.4 0-.7-.1-1c-.1-.3-.1-.6-.2-.8c-.1-.2-.3-.3-.4-.5c-.2-.1-.3-.1-.5-.1c-.4 0-.7.2-.9.6c-.2.5-.3 1-.3 1.8c0 .7.1 1.3.3 1.8c.2.4.5.6.9.6zM87.7.5h.8v9.2h-.8V.5zm-1.9 3.8V.8h.8v8.4h-.8V5s-1.9-.04-1.9 0c-.3.5-.6 1-1.1 1.4c-.4.5-.9.9-1.6 1.3l-.5-.6c1-.6 1.8-1.3 2.3-2.1c.5-.8.7-1.6.8-2.6h-2.7v-.7h3.5c0 .5 0 .9-.1 1.3c0 .5-.1.9-.3 1.3c0-.02 1.6 0 1.6 0zm13.3-1h1.3v.7h-1.3v3.3h-.9V.5h.9v2.8zm-2.2.1c0 .4 0 .7-.2 1c-.1.2-.2.5-.5.7c-.2.2-.4.3-.7.4c-.3.1-.6.2-1 .2c-.3 0-.6-.1-.9-.2c-.3-.1-.6-.2-.8-.4c-.2-.2-.4-.5-.5-.7c-.1-.3-.2-.6-.2-1c0-.3.1-.6.2-.9c.1-.3.3-.5.5-.7c.2-.2.5-.3.8-.5c.3-.1.6-.1.9-.1c.4 0 .7 0 1 .1c.3.2.5.3.7.5c.3.2.4.4.5.7c.2.3.2.6.2.9zm-3.9 0c0 .3 0 .5.1.7c.1.1.2.3.3.4c.2.2.3.3.5.4c.2 0 .4.1.6.1c.3 0 .5-.1.7-.1c.1-.1.3-.2.5-.4c.1-.1.2-.3.3-.4c.1-.2.1-.4.1-.7c0-.2 0-.4-.1-.6c-.1-.2-.2-.3-.3-.5c-.2-.1-.4-.2-.5-.3c-.2-.1-.4-.1-.7-.1c-.2 0-.4 0-.6.1c-.2.1-.3.2-.5.3c-.1.2-.2.3-.3.5c-.1.2-.1.4-.1.6zm1.2 3.2v2.2h5.3v.7h-6.1V6.6h.8zM106 3.1h1.8V.6h.9v6.7h-.9V3.8H106v-.7zm.5 2.1l-.4.7c-.5-.2-.9-.5-1.3-.8c-.4-.4-.7-.8-.9-1.3c-.2.5-.5 1-.9 1.4c-.4.4-.8.7-1.4.9l-.4-.7c.3-.1.6-.3.9-.5c.3-.2.5-.4.7-.7c.3-.2.4-.5.5-.8c.1-.3.2-.6.2-1v-.4h-2.1v-.7h4.9v.7h-2s.03.42 0 .4c0 .3.1.6.2.9c.1.3.2.5.4.8l.7.7c.3.2.6.3.9.4zm-2.8 3.6h5.2v.7h-6.1V6.7h.9v2.1zm12.8-4.4c-.4 0-.9 0-1.3-.1c-.4-.1-.7-.2-1-.3c-.3-.2-.5-.4-.6-.6c-.2-.2-.3-.5-.3-.8c0-.3.1-.5.3-.8c.1-.2.3-.4.6-.5c.3-.2.6-.3 1-.4c.4-.1.9-.1 1.3-.1c.5 0 1 0 1.4.1c.4.1.7.2 1 .4c.2.1.5.3.6.5c.2.3.2.5.2.8c0 .3 0 .6-.2.8c-.1.2-.4.4-.6.6c-.3.1-.6.2-1 .3c-.4.1-.9.1-1.4.1zm0-3c-.3 0-.6.1-.9.1c-.3.1-.5.2-.7.3c-.2.1-.4.2-.5.3c-.1.2-.2.3-.2.5c0 .2.1.3.2.5c.1.1.3.3.5.4c.2.1.4.1.7.2c.3 0 .6.1.9.1c.8 0 1.3-.1 1.7-.3c.5-.3.7-.5.7-.9c0-.4-.2-.6-.7-.8c-.4-.2-.9-.4-1.7-.4zm-4.1 3.8h8.3v.7H117v1.8h-.8V5.9h-3.8v-.7zm1.9 1.6v2h5.5v.7h-6.3V6.8h.8zm12.1-3.7h1.9V.6h.8v6.7h-.8V3.8h-1.9v-.7zm.6 2.1l-.4.7c-.5-.2-1-.5-1.4-.8c-.3-.4-.6-.8-.8-1.3c-.2.5-.5 1-.9 1.4c-.4.4-.9.7-1.4.9l-.5-.7c.4-.1.7-.3 1-.5c.2-.2.5-.4.7-.7c.2-.2.3-.5.5-.8c.1-.3.1-.6.1-1c.03.03 0-.4 0-.4h-2v-.7h4.9v.7h-2s-.03.42 0 .4c0 .3 0 .6.1.9c.1.3.3.5.5.8c.2.2.4.5.7.7c.3.2.6.3.9.4zm-2.9 3.6h5.3v.7h-6.1V6.7h.8v2.1zM140.4.5v5.3h-.9V.5h.9zm-2.8.6v3.8h-4.3V1.1h4.3zm-.8 3.1V1.8h-2.7v2.4h2.7zm3.8 2.9s-2.72-.04-2.7 0c0 .2.1.4.2.6c.2.2.4.4.7.6c.3.2.6.3 1 .5c.3.1.7.2 1.1.2l-.3.7l-1-.3l-.9-.3c-.3-.2-.5-.3-.7-.5c-.2-.2-.4-.4-.5-.6c-.2.2-.3.4-.6.6c-.2.2-.4.3-.7.5l-.9.3l-1 .3l-.3-.7c.4 0 .8-.1 1.1-.2c.4-.2.7-.3 1-.5c.3-.2.5-.4.7-.6c.1-.2.2-.4.2-.6c.03-.04-2.6 0-2.6 0v-.7h2.6v-.9h.9v.9h2.7v.7zm10.6-3.8h1.4v.7h-1.4v3.3h-.8V.5h.8v2.8zm-2.1.1c0 .4-.1.7-.2 1c-.1.2-.3.5-.5.7c-.2.2-.5.3-.8.4c-.3.1-.6.2-.9.2c-.4 0-.7-.1-1-.2c-.3-.1-.5-.2-.7-.4c-.2-.2-.4-.5-.5-.7c-.2-.3-.2-.6-.2-1c0-.3 0-.6.2-.9c.1-.3.3-.5.5-.7c.2-.2.4-.3.7-.5c.3-.1.6-.1 1-.1c.3 0 .6 0 .9.1c.3.2.6.3.8.5c.2.2.4.4.5.7c.1.3.2.6.2.9zm-4 0c0 .3 0 .5.1.7c.1.1.2.3.4.4c.1.2.3.3.5.4c.1 0 .4.1.6.1c.2 0 .4-.1.6-.1c.2-.1.4-.2.5-.4c.1-.1.3-.3.3-.4c.1-.2.1-.4.1-.7c0-.2 0-.4-.1-.6c0-.2-.2-.3-.3-.5c-.1-.1-.3-.2-.5-.3c-.2-.1-.4-.1-.6-.1c-.2 0-.5 0-.6.1c-.2.1-.4.2-.5.3c-.2.2-.3.3-.4.5c-.1.2-.1.4-.1.6zm1.3 3.2v2.2h5.2v.7h-6.1V6.6h.9zm11.8-3.5h1.8V.6h.8v6.7h-.8V3.8h-1.8v-.7zm.5 2.1l-.4.7c-.5-.2-1-.5-1.4-.8c-.3-.4-.6-.8-.8-1.3c-.2.5-.5 1-.9 1.4c-.4.4-.9.7-1.4.9l-.5-.7c.4-.1.7-.3 1-.5c.2-.2.5-.4.7-.7c.2-.2.4-.5.5-.8c.1-.3.1-.6.1-1c.03.03 0-.4 0-.4h-2v-.7h4.9v.7h-2s-.03.42 0 .4c0 .3 0 .6.1.9c.1.3.3.5.5.8c.2.2.4.5.7.7c.3.2.6.3.9.4zm-2.9 3.6h5.3v.7H155V6.7h.8v2.1zm13.3-1h3.7v.7h-8.2v-.7h3.7V5.9h-2.8V1.2h.9v1.6h4.6V1.2h.8v4.7h-2.7v1.9zm-2.7-4.3v1.7h4.6V3.5h-4.6zm13.1.2v2.3h-.8V.7h.8v2.3h1.2V.5h.8v5.8h-.8V3.7h-1.2zm-1.2-2.1v.7h-4.6v-.7h1.9v-1h.8v1h1.9zm-.3 2.7c0 .3-.1.5-.2.7c-.1.2-.2.3-.4.5c-.1.1-.3.2-.6.3c-.2.1-.5.1-.8.1c-.3 0-.5 0-.8-.1l-.6-.3c-.2-.2-.3-.3-.4-.5c-.1-.2-.1-.4-.1-.7c0-.2 0-.4.1-.6c.1-.2.2-.4.4-.5l.6-.3c.3-.1.5-.1.8-.1c.3 0 .6 0 .8.1c.3.1.5.2.6.3c.2.1.3.3.4.5c.1.2.2.4.2.6zm-3.2 0c0 .3.1.6.3.7c.3.2.6.3.9.3c.4 0 .7-.1.9-.3c.2-.1.3-.4.3-.7c0-.3-.1-.5-.3-.6c-.2-.2-.5-.3-.9-.3c-.3 0-.6.1-.9.3c-.2.1-.3.3-.3.6zm3.6 2.2c1 0 1.7.1 2.3.4c.5.3.8.7.8 1.2c0 .5-.3.9-.8 1.2c-.6.2-1.3.4-2.3.4c-.9 0-1.7-.2-2.2-.4c-.5-.3-.8-.7-.8-1.2c0-.5.3-.9.8-1.2c.5-.3 1.3-.4 2.2-.4zm0 2.5c.7 0 1.3 0 1.7-.2c.4-.2.6-.4.6-.7c0-.3-.2-.6-.6-.7c-.4-.2-1-.3-1.7-.3c-.7 0-1.2.1-1.6.3c-.4.1-.6.4-.6.7c0 .3.2.5.6.7c.4.2.9.2 1.6.2zm13.1-6.5c-.04-.03 0-.4 0-.4h-5.6v-.6h6.4v2.8c-.1.3-.1.7-.1 1c-.1.4-.1.8-.2 1.2l-.9-.1c.2-.7.3-1.3.3-1.9c0-.7.1-1.3.1-2zm-1.4 5.2h3.2v.7H185v-.7h2v-3h.9v3h1.4v-3h.8v3zm8.2-3.4c-.5 0-.9-.1-1.3-.2c-.4 0-.8-.2-1-.3c-.3-.2-.5-.3-.7-.6c-.1-.2-.2-.4-.2-.7c0-.3.1-.5.2-.7c.2-.2.4-.4.7-.6c.2-.1.6-.2 1-.3c.4-.1.8-.1 1.3-.1c.5 0 .9 0 1.3.1c.4.1.8.2 1.1.3l.6.6c.1.2.2.4.2.7c0 .3-.1.5-.2.7c-.2.3-.4.4-.6.6c-.3.1-.7.3-1.1.3c-.4.1-.8.2-1.3.2zm0-2.9c-.7 0-1.3.1-1.7.3c-.4.2-.6.5-.6.8c0 .4.2.6.6.8c.4.2 1 .3 1.7.3c.7 0 1.3-.1 1.7-.3c.5-.2.7-.4.7-.8c0-.3-.2-.6-.7-.8c-.4-.2-1-.3-1.7-.3zm4.1 4.2h-2.1v1.2h1.1v2.9h-.8V7.5h-5.5v-.7h1.3V5.6h-2.2v-.7h8.2v.7zm-3 1.2V5.6h-2.2v1.2h2.2zm3.6 2.9l.4-2.1h.9l-.6 2.1h-.7zm8.3-5.3c-.5 0-.9 0-1.3-.1c-.4-.1-.8-.2-1-.3c-.3-.2-.5-.4-.7-.6c-.1-.2-.2-.5-.2-.8c0-.3.1-.5.2-.8c.2-.2.4-.4.7-.5c.2-.2.6-.3 1-.4c.4-.1.8-.1 1.3-.1c.5 0 .9 0 1.3.1c.4.1.7.2 1 .4c.3.1.5.3.7.5c.1.3.2.5.2.8c0 .3-.1.6-.2.8c-.2.2-.4.4-.7.6c-.3.1-.6.2-1 .3c-.4.1-.8.1-1.3.1zm0-3c-.4 0-.7.1-1 .1c-.2.1-.5.2-.7.3c-.2.1-.4.2-.5.3c-.1.2-.1.3-.1.5c0 .2 0 .3.1.5c.1.1.3.3.5.4c.2.1.5.1.7.2c.3 0 .6.1 1 .1c.7 0 1.3-.1 1.7-.3c.4-.3.6-.5.6-.9c0-.4-.2-.6-.6-.8c-.4-.2-1-.4-1.7-.4zm-4.1 3.8h8.2v.7h-3.6v1.8h-.9V5.9h-3.7v-.7zm1.8 1.6v2h5.5v.7h-6.3V6.8h.8zm12.2-3.7h1.8V.6h.9v6.7h-.9V3.8h-1.8v-.7zm.5 2.1l-.4.7c-.5-.2-.9-.5-1.3-.8c-.4-.4-.7-.8-.9-1.3c-.2.5-.5 1-.9 1.4c-.4.4-.9.7-1.4.9l-.4-.7c.3-.1.6-.3.9-.5c.3-.2.5-.4.7-.7c.2-.2.4-.5.5-.8c.1-.3.2-.6.2-1c-.02.03 0-.4 0-.4h-2.1v-.7h4.9v.7h-2v.4c0 .3.1.6.2.9c.1.3.2.5.4.8l.7.7c.3.2.6.3.9.4zm-2.8 3.6h5.2v.7H218V6.7h.9v2.1zm14-5.7v.7h-6.3V.7h.9v2.4h5.4zm-7.4 1.7h8.3v.7h-8.3v-.7zm4.2 1.5c.9 0 1.7.2 2.2.5c.6.3.9.7.9 1.2c0 .5-.3.9-.9 1.2c-.5.3-1.3.5-2.2.5c-1 0-1.8-.2-2.3-.5c-.6-.3-.9-.7-.9-1.2c0-.5.3-.9.9-1.2c.5-.3 1.3-.5 2.3-.5zm0 2.7c.7 0 1.2-.1 1.6-.3c.4-.1.6-.4.6-.7c0-.3-.2-.6-.6-.8c-.4-.1-.9-.2-1.6-.2c-.8 0-1.3.1-1.7.2c-.4.2-.6.5-.6.8c0 .3.2.6.6.7c.4.2.9.3 1.7.3zM241.4.6h.8v5.6h-.8V4.5h-1.8v-.7h1.8V2.6h-1.8v-.7h1.8V.6zm-1.9 4.3l.1.6c-.3.1-.5.1-.8.1c-.3.1-.6.1-.9.1h-.9c-.4 0-.8.1-1.3.1c.04-.05-.6 0-.6 0V3h3.1V1.8h-3.1v-.7h3.9v2.6h-3.1v1.4h1.1c.4 0 .7-.1 1-.1h.8c.2-.1.5-.1.7-.1zm-3.4 2.4v-.6h6.1v3h-.8V7.3h-5.3zm18.4-3.1v.7H253v4.8h-.8V.6h.8v3.6h1.5zm-5.5-2s.04 1.14 0 1.1c0 .4.1.8.2 1.1c.1.4.3.8.5 1.1c.2.3.5.6.8.9c.3.3.6.5.9.6l-.5.7c-.5-.2-.9-.6-1.3-1.1c-.5-.5-.8-1.1-1-1.7c-.1.3-.2.7-.4 1c-.1.3-.3.6-.5.8c-.2.3-.4.5-.7.7c-.2.2-.4.4-.7.5l-.5-.6c.3-.2.6-.4.9-.7c.3-.3.6-.6.8-1c.2-.3.4-.7.5-1.1c.2-.4.2-.8.2-1.2c.02.04 0-1.1 0-1.1h-2.1v-.7h5v.7H249zm14.6 2.1v.6h-1.4v4.8h-.9V.5h.9v3.8h1.4zm-8-2.8s4.21.02 4.2 0c0 .7-.1 1.3-.2 1.9c-.2.6-.4 1.2-.8 1.8c-.3.5-.7 1-1.2 1.5c-.6.5-1.2.9-1.9 1.3l-.5-.7c1.2-.6 2.1-1.3 2.7-2.2c.6-.8 1-1.8 1.1-2.9c-.01.01-3.4 0-3.4 0v-.7zm16.2-.9v6.6h-.8V.6h.8zm-1.9 4.7l-.4.6c-.5-.1-1-.4-1.4-.8c-.4-.3-.7-.8-.9-1.2c-.2.5-.5.9-.9 1.3c-.4.4-.9.7-1.4.9l-.5-.6c.4-.2.7-.3 1-.5c.3-.2.5-.5.7-.7c.2-.3.4-.6.5-.9c.1-.3.2-.6.2-.9c-.04-.02 0-.5 0-.5h-2.1v-.7h5v.7h-2.1s.02.48 0 .5c0 .3.1.6.2.9c.1.3.3.5.5.8c.2.2.4.4.7.6c.3.2.6.4.9.5zm-3.1 3.5h5.3v.7h-6.2V6.6h.9v2.2zm13.8-5.5h1.4v.6h-1.4v3.3h-.8V.5h.8v2.8zm-1.8 1.2l.1.7c-.3.1-.6.1-.9.2c-.3 0-.7 0-1 .1h-2.4c.03.04-.7 0-.7 0V1.3h4.1v.7h-3.2s-.04 2.86 0 2.9c.4 0 .8 0 1.2-.1h1c.3 0 .6-.1.9-.1c.3 0 .6-.1.9-.2zm-3.1 2v2.3h5.3v.7h-6.1v-3h.8zm16.4-3.2v.7h-6.3V.9h6.2v.7h-5.4v1.7h5.5zm-7.3 1.6h8.2v.7h-8.2v-.7zm4.1 1.5c1 0 1.7.1 2.3.4c.5.3.8.7.8 1.2c0 .6-.3 1-.8 1.3c-.6.2-1.3.4-2.3.4c-1 0-1.7-.2-2.3-.4c-.6-.3-.8-.7-.8-1.3c0-.5.2-.9.8-1.2c.6-.3 1.3-.4 2.3-.4zm0 2.6c.7 0 1.3-.1 1.7-.2c.4-.2.6-.4.6-.8c0-.3-.2-.5-.6-.7c-.4-.2-1-.3-1.7-.3c-.7 0-1.3.1-1.7.3c-.4.2-.6.4-.6.7c0 .4.2.6.6.8c.4.1 1 .2 1.7.2zm9.2-5.1c-1 0-1.8-.2-2.4-.4c-.6-.3-.8-.7-.8-1.2c0-.5.2-.9.8-1.2c.6-.3 1.4-.4 2.4-.4c1 0 1.8.1 2.3.4c.6.3.9.7.9 1.2c0 .5-.3.9-.9 1.2c-.5.2-1.3.4-2.3.4zm0-2.6c-.8 0-1.4.1-1.8.3c-.4.1-.6.4-.6.7c0 .3.2.5.6.7c.4.2 1 .2 1.8.2c.7 0 1.3 0 1.7-.2c.4-.2.6-.4.6-.7c0-.3-.2-.6-.6-.7c-.4-.2-1-.3-1.7-.3zm-4.2 3.2h8.3v.7h-8.3v-.7zm1.9 3.5v.9h5.6v.7H295V7.4h5.3v-.8h-5.4v-.7h6.3v2.1h-5.4zM312.2.5h.8v9.2h-.8V.5zm-1.9 3.3V.7h.8v8.5h-.8V4.5h-1.5v-.7h1.5zm-2.4-1.5v.8c0 .4 0 .8.1 1.2c.1.4.2.8.4 1.1c.1.3.4.7.6.9c.2.3.5.5.8.7l-.5.6c-.4-.2-.8-.6-1.1-1.1c-.3-.4-.6-.9-.7-1.5c-.2.6-.4 1.2-.7 1.7c-.4.5-.7.9-1.2 1.2l-.5-.7c.3-.2.6-.4.8-.7c.3-.3.5-.6.7-1c.1-.3.3-.7.4-1.1c0-.4.1-.9.1-1.3c-.02.02 0-.8 0-.8h-1.8v-.7h4.2v.7h-1.6zm12.9-.5c-.02-.02 0-.1 0-.1h-5.4v-.7h6.2v1.9c0 .4-.1.8-.3 1.3l-.8-.1c.2-.5.2-.9.2-1.2c.1-.4.1-.8.1-1.1zm-2.2 3h4v.7h-8.2v-.7h3.4V3h.8v1.8zm-.1 1.5c.5 0 .9.1 1.3.1c.4.1.7.2 1 .4c.3.1.5.3.7.5c.1.2.2.4.2.7c0 .3-.1.5-.2.7c-.2.2-.4.4-.7.5c-.3.2-.6.3-1 .4c-.4 0-.8.1-1.3.1c-.5 0-.9-.1-1.3-.1c-.4-.1-.8-.2-1-.4c-.3-.1-.5-.3-.7-.5c-.1-.2-.2-.4-.2-.7c0-.3.1-.5.2-.7c.2-.2.4-.4.7-.5c.2-.2.6-.3 1-.4c.4 0 .8-.1 1.3-.1zm0 2.7c.7 0 1.3-.1 1.7-.2c.4-.2.6-.5.6-.8c0-.3-.2-.6-.6-.8c-.4-.1-1-.2-1.7-.2c-.7 0-1.3.1-1.7.2c-.5.2-.7.5-.7.8c0 .3.2.6.7.8c.4.1 1 .2 1.7.2zm13.6-4.7v.7h-1.5v4.7h-.8V.6h.8v3.7h1.5zM326.7.7v1.3h2.2v.7h-5.4v-.7h2.3V.7h.9zm-.5 2.7c.4 0 .7.1.9.2c.3.1.6.2.8.4c.2.2.3.4.4.7c.1.3.2.5.2.8c0 .4-.1.6-.2.9c-.1.3-.2.5-.4.7c-.2.2-.5.3-.8.4c-.2.1-.5.1-.9.1c-.3 0-.6 0-.8-.1c-.3-.1-.5-.2-.7-.4c-.2-.2-.4-.4-.5-.7c-.1-.3-.2-.5-.2-.9c0-.3.1-.5.2-.8c.1-.3.3-.5.5-.7c.2-.2.4-.3.7-.4c.2-.1.5-.2.8-.2zm0 3.6c.3 0 .5-.1.6-.2c.2 0 .4-.1.5-.2c.1-.2.2-.3.3-.5c0-.2.1-.3.1-.6c0-.2-.1-.3-.1-.5c-.1-.2-.2-.3-.3-.5c-.1-.1-.3-.2-.5-.3c-.1 0-.3-.1-.6-.1c-.2 0-.3.1-.5.1c-.2.1-.4.2-.5.3c-.1.2-.2.3-.3.5c0 .2-.1.3-.1.5c0 .3.1.4.1.6c.1.2.2.3.3.5c.1.1.3.2.5.2c.2.1.3.2.5.2zm13.9-3.7v.7h-6.2V.9h.8v2.4h5.4zm-7.4 1.9h8.3v.7h-8.3v-.7zm1.9 1.6v2h5.5v.7h-6.3V6.8h.8zm14.8-5.6v.6h-5.2v-.6h2.2v-.8h.8v.8h2.2zm1.7 1.7h1.3v.7h-1.3v2.3h-.8V.5h.8v2.4zm-1.4 1.9l.1.6c-.5.1-1 .1-1.5.2c-.5 0-1 .1-1.5.1h-2.7l-.1-.6h2.4v-.6c-.5 0-.9-.1-1.3-.3c-.3-.3-.4-.5-.4-.9c0-.4.2-.7.6-.9c.3-.2.9-.3 1.5-.3c.7 0 1.2.1 1.6.3c.4.2.6.5.6.9c0 .4-.2.6-.5.8c-.3.2-.7.4-1.3.4v.5h1.3c.4-.1.8-.1 1.2-.2zm-4.2-1.5c0 .2.1.4.3.5c.3.1.6.2 1 .2c.4 0 .8-.1 1-.2c.2-.1.4-.3.4-.5c0-.2-.2-.3-.4-.5c-.2-.1-.6-.1-1-.1c-.4 0-.7 0-1 .1c-.2.2-.3.3-.3.5zm.5 4.9v.8h5.4v.6h-6.2v-2h5.1v-.7h-5.1v-.6h5.9v1.9H346zm11.7-3.1h3.8v.6h-8.3v-.6h3.7V4h-2.7v-3h6.2v.6h-5.3v1.7h5.4v.7h-2.8v1.1zm-.4 1.3c1 0 1.8.1 2.3.4c.6.3.8.7.8 1.2c0 .6-.2 1-.8 1.3c-.5.2-1.3.4-2.3.4c-1 0-1.7-.2-2.3-.4c-.5-.3-.8-.7-.8-1.3c0-.5.3-.9.8-1.2c.6-.3 1.3-.4 2.3-.4zm0 2.6c.7 0 1.3 0 1.7-.2c.4-.2.6-.4.6-.8c0-.3-.2-.5-.6-.7c-.4-.2-1-.3-1.7-.3c-.7 0-1.3.1-1.7.3c-.4.2-.6.4-.6.7c0 .4.2.6.6.8c.4.2 1 .2 1.7.2zM369 .5h.9v9.2h-.9V.5zm-4 .7c.4 0 .7.1 1 .3c.2.1.5.3.7.6c.2.3.4.6.5 1c.1.4.2.8.2 1.3c0 .5-.1 1-.2 1.4c-.1.3-.3.7-.5 1c-.2.2-.5.5-.7.6c-.3.2-.6.2-1 .2c-.3 0-.6 0-.9-.2c-.3-.1-.5-.4-.7-.6c-.3-.3-.4-.7-.5-1c-.1-.4-.2-.9-.2-1.4c0-.5.1-.9.2-1.3c.1-.4.2-.7.5-1c.2-.3.4-.5.7-.6c.3-.2.6-.3.9-.3zm0 .8c-.2 0-.4.1-.6.2c-.2.1-.3.3-.5.5c-.1.2-.2.4-.3.7c-.1.3-.1.7-.1 1c0 .4 0 .7.1 1c.1.3.2.6.3.8c.2.2.3.4.5.5c.2.1.4.2.6.2c.3 0 .5-.1.6-.2c.2-.1.4-.3.5-.5c.2-.2.3-.5.3-.8c.1-.3.1-.6.1-1c0-.3 0-.7-.1-1c0-.3-.1-.5-.3-.7c-.1-.2-.3-.4-.5-.5c-.1-.1-.3-.2-.6-.2zm15.1 2.2v.6h-1.5v4.9h-.9V.5h.9v3.7h1.5zm-7.3-2.1s-.03 4.61 0 4.6h2.1c.4-.1.7-.1 1-.1c.3-.1.7-.1 1-.2l.1.7c-.4.1-.7.1-1 .2c-.4 0-.7 0-1.1.1h-2.2c-.04.03-.8 0-.8 0v-6h4.3v.7h-3.4zm7.8 7v-1h.9v1h-.9z" stroke="none" fill="#111111"/></g></svg>