<?xml version="1.0" standalone="no"?><!DOCTYPE svg PUBLIC "-//W3C//DTD SVG 1.1//EN" "http://www.w3.org/Graphics/SVG/1.1/DTD/svg11.dtd"><svg xmlns="http://www.w3.org/2000/svg" version="1.1" width="199.3px" height="23.3px" viewBox="0 -2 199.3 23.3" style="top:-2px"><desc>CCC라운지 팝업 행사 참가자 및 방문객 (단위: 명)</desc><defs/><g id="Polygon99626"><path d="m3.9 9.1c-.5 0-.9-.1-1.3-.3c-.4-.1-.8-.4-1.1-.7c-.3-.3-.5-.7-.7-1.2c-.1-.5-.2-1-.2-1.7c0-.6.1-1.1.2-1.6c.2-.5.5-.9.8-1.2c.3-.4.6-.6 1-.8c.4-.2.9-.3 1.4-.3c.4 0 .9.1 1.2.3c.4.2.7.4.9.7l-.6.7c-.2-.2-.5-.3-.7-.5c-.2-.1-.5-.1-.8-.1c-.3 0-.6 0-.9.2c-.3.1-.5.3-.7.5c-.2.3-.3.6-.4.9c-.2.4-.2.8-.2 1.2c0 .5 0 .9.1 1.2c.2.4.3.7.5.9c.2.3.4.4.7.6c.2.1.5.2.9.2c.3 0 .6-.1.9-.2c.2-.2.5-.4.7-.6l.7.7c-.4.4-.7.6-1.1.8c-.4.2-.8.3-1.3.3zm6.4 0c-.5 0-.9-.1-1.3-.3c-.4-.1-.8-.4-1.1-.7c-.3-.3-.5-.7-.7-1.2c-.1-.5-.2-1-.2-1.7c0-.6.1-1.1.2-1.6c.2-.5.4-.9.7-1.2c.4-.4.7-.6 1.1-.8c.4-.2.9-.3 1.4-.3c.4 0 .8.1 1.2.3c.4.2.7.4.9.7l-.7.7c-.2-.2-.4-.3-.6-.5c-.2-.1-.5-.1-.8-.1c-.4 0-.7 0-.9.2c-.3.1-.5.3-.7.5c-.2.3-.4.6-.5.9c-.1.4-.1.8-.1 1.2c0 .5 0 .9.1 1.2c.1.4.3.7.5.9c.2.3.4.4.6.6c.3.1.6.2.9.2c.4 0 .7-.1 1-.2c.2-.2.5-.4.7-.6l.6.7c-.3.4-.6.6-1 .8c-.4.2-.8.3-1.3.3zm6.4 0c-.5 0-.9-.1-1.3-.3c-.4-.1-.8-.4-1.1-.7c-.3-.3-.5-.7-.7-1.2c-.2-.5-.2-1-.2-1.7c0-.6 0-1.1.2-1.6c.2-.5.4-.9.7-1.2c.3-.4.7-.6 1.1-.8c.4-.2.9-.3 1.3-.3c.5 0 .9.1 1.3.3c.3.2.6.4.9.7l-.7.7c-.2-.2-.4-.3-.6-.5c-.3-.1-.5-.1-.8-.1c-.4 0-.7 0-.9.2c-.3.1-.5.3-.7.5c-.2.3-.4.6-.5.9c-.1.4-.1.8-.1 1.2c0 .5 0 .9.1 1.2c.1.4.3.7.5.9c.1.3.4.4.6.6c.3.1.6.2.9.2c.4 0 .7-.1 1-.2c.2-.2.5-.4.7-.6l.6.7c-.3.4-.6.6-1 .8c-.4.2-.8.3-1.3.3zm11.5-5v.9h-1.4v4.8h-1V.5h1v3.6h1.4zm-7.1.7s-.02 1.92 0 1.9h2c.4-.1.7-.1 1-.1c.3-.1.6-.1.9-.2l.2.9c-.4 0-.7.1-1.1.1c-.3.1-.7.1-1 .1c-.4 0-.7.1-1.1.1h-2V3.9h3.2V2.2H20v-.8h4.2v3.4h-3.1zM33 4.5c-.5 0-.9 0-1.3-.1c-.4-.1-.8-.2-1.1-.4c-.2-.2-.5-.4-.6-.6c-.2-.2-.2-.5-.2-.8c0-.3 0-.5.2-.7c.1-.3.4-.5.6-.6c.3-.2.7-.3 1.1-.4c.4-.1.8-.1 1.3-.1c.5 0 1 0 1.4.1c.4.1.7.2 1 .4c.3.1.5.3.6.6c.2.2.3.4.3.7c0 .3-.1.6-.3.8c-.1.2-.3.4-.6.6c-.3.2-.6.3-1 .4c-.4.1-.9.1-1.4.1zm0-2.9c-.6 0-1.2.1-1.6.3c-.3.2-.5.4-.5.7c0 .4.2.6.5.8c.4.2 1 .3 1.6.3c.7 0 1.2-.1 1.6-.3c.4-.2.6-.4.6-.8c0-.3-.2-.5-.6-.7c-.4-.2-.9-.3-1.6-.3zm-4.2 3.5h8.4v.9h-3.6v1.7h-1V6h-3.8v-.9zm2.1 1.8v1.8h5.4v.9h-6.4V6.9h1zM44.6.6h1v9.2h-1V.6zm-3.2 1.7s.03.91 0 .9c0 .4.1.8.2 1.2c.1.3.3.7.5 1c.2.4.4.6.7.9c.3.3.7.5 1 .6l-.6.9c-.5-.3-1-.6-1.4-1.1c-.4-.5-.7-1-.9-1.6c-.2.6-.5 1.2-.9 1.7c-.4.6-.9.9-1.4 1.2l-.6-.8c.4-.2.7-.4 1-.7c.3-.3.5-.6.7-1c.2-.3.4-.7.5-1.1c.1-.4.2-.8.2-1.2c-.03.01 0-.9 0-.9h-2.1v-.8h5.2v.8h-2.1zm16.4.3v.9h-1.3v2.2h-1.1V.5h1.1v2.1h1.3zm-3 1.7l.1.7c-.5.1-.9.2-1.4.2c-.5.1-1 .1-1.5.1c-.4.1-.9.1-1.3.1h-1.3l-.1-.9h1.1V2h-.9v-.8h5v.8h-.9s.02 2.39 0 2.4c.2 0 .4 0 .6-.1h.6zM51.4 2s-.02 2.5 0 2.5h1.2V2h-1.2zm4 5v-1h1.1v3.6h-5.9V6h1v1h3.8zm0 1.8v-1h-3.8v1h3.8zM65.1.6h1v4.9h-1v-2s-1.75.03-1.7 0c-.1.3-.2.5-.3.7c-.2.3-.3.4-.5.6c-.2.1-.5.3-.7.3c-.3.1-.6.2-.9.2c-.3 0-.7-.1-1-.2c-.2-.1-.5-.2-.7-.4c-.2-.2-.4-.4-.5-.7c-.1-.3-.2-.6-.2-.9c0-.3.1-.6.2-.9c.1-.2.3-.4.5-.6c.2-.2.5-.4.7-.5c.3-.1.7-.1 1-.1c.3 0 .6 0 .8.1c.3.1.5.2.8.3c.2.2.3.4.5.6c.1.2.2.4.3.7c-.05-.03 1.7 0 1.7 0V.6zM61 4.4c.2 0 .4 0 .6-.1c.1 0 .3-.1.4-.3c.1-.1.2-.2.3-.4c.1-.1.1-.3.1-.5c0-.4-.1-.7-.4-.9c-.3-.3-.6-.4-1-.4c-.4 0-.7.1-1 .4c-.3.2-.4.5-.4.9c0 .4.1.7.4.9c.3.3.6.4 1 .4zM65.1 7V5.9h1v3.7h-6V5.9h1.1v1.1h3.9zm0 1.8v-1h-3.9v1h3.9zm10.5-5v2.2h-1V.7h1v2.2h.9V.5h1v5.9h-1V3.8h-.9zm-1.3-2.2v.8h-4.6v-.8h1.8v-1h1v1h1.8zM74 4.4c0 .2-.1.5-.2.6c-.1.2-.2.4-.4.6l-.6.3c-.2.1-.5.1-.8.1c-.3 0-.6 0-.8-.1l-.6-.3c-.2-.2-.3-.4-.4-.6c-.1-.1-.2-.4-.2-.6c0-.2.1-.5.2-.7c.1-.1.2-.3.4-.5l.6-.3c.2-.1.5-.1.8-.1c.3 0 .6 0 .8.1l.6.3c.2.2.3.4.4.5c.1.2.2.5.2.7zm-3 0c0 .2.1.4.2.6c.2.1.5.2.8.2c.3 0 .5-.1.7-.2c.2-.2.3-.4.3-.6c0-.3-.1-.5-.3-.6c-.2-.2-.4-.2-.7-.2c-.3 0-.6 0-.8.2c-.1.1-.2.3-.2.6zm3.5 2.1c1 0 1.7.1 2.3.4c.5.3.8.7.8 1.2c0 .5-.3 1-.8 1.2c-.6.3-1.3.5-2.3.5c-1 0-1.8-.2-2.3-.5c-.6-.2-.9-.7-.9-1.2c0-.5.3-.9.9-1.2c.5-.3 1.3-.4 2.3-.4zm0 2.5c1.3 0 2-.3 2-.9c0-.5-.7-.8-2-.8c-.7 0-1.2.1-1.6.2c-.3.1-.5.3-.5.6c0 .3.2.5.5.7c.4.1.9.2 1.6.2zm13-4.8v.9H86v4.7h-1V.6h1v3.6h1.5zm-5.4-2.9s.04 1.53 0 1.5c0 .4.1.8.2 1.2c.1.4.3.8.4 1.2c.2.3.5.7.8.9c.2.3.5.5.9.7l-.7.9c-.5-.3-.9-.7-1.2-1.1c-.4-.5-.7-1-.9-1.7c-.2.7-.5 1.2-.8 1.8c-.4.5-.9.9-1.4 1.1l-.6-.8c.3-.2.6-.4.9-.7c.3-.3.6-.7.8-1c.2-.4.3-.8.4-1.2c.1-.4.2-.8.2-1.3V1.3h1zm13.5 3.6l-.5.8c-.5-.2-.9-.4-1.3-.7c-.4-.3-.7-.7-.9-1.1c-.2.5-.5.9-.9 1.2c-.3.3-.8.6-1.4.8l-.5-.9c.4-.1.7-.2 1-.4c.3-.2.5-.4.7-.6c.2-.2.3-.5.4-.7c.1-.3.2-.6.2-.9c-.03.05 0 0 0 0h-2v-.8h2V.5h1v1.1h2v.8h-2s.02.05 0 0c0 .3.1.6.2.8c.1.3.2.5.4.7c.2.2.4.4.7.6c.3.1.6.3.9.4zm3.1-2.1v.9h-1.3v2.3h-1.1V.6h1.1v2.2h1.3zm-7.2 6.8V6.4h5.9v3.2h-5.9zm1-2.4v1.6h3.8V7.2h-3.8zm15.4-3v.9h-1.4v4.7h-1.1V.5h1.1v3.7h1.4zm-8.1-2.7s4.28.02 4.3 0c0 .7-.1 1.3-.2 2c-.2.6-.4 1.2-.8 1.7c-.3.6-.7 1.1-1.3 1.6c-.5.5-1.1.9-1.9 1.3l-.6-.8c2.3-1.2 3.5-2.8 3.7-4.9c.03-.02-3.2 0-3.2 0v-.9zm17.3 2.7v.8h-1.4v4.8h-1.1V.6h1.1v3.6h1.4zm-5.3-1.9s-.04.92 0 .9c0 .4 0 .7.1 1.1c.1.4.3.7.5 1.1c.2.3.4.6.7.9c.3.3.6.5 1 .6l-.6.9c-.5-.3-1-.6-1.4-1.1c-.3-.5-.6-1-.8-1.6c-.3.6-.6 1.2-.9 1.7c-.4.6-.9.9-1.4 1.2l-.6-.8c.3-.2.6-.4.9-.7c.3-.3.6-.6.8-1c.2-.3.3-.7.4-1.1c.2-.4.2-.8.2-1.2c.01.02 0-.9 0-.9h-2v-.8h5v.8h-1.9zM127.4.5v5.3h-1.1V.5h1.1zm-2.8.6v3.8h-4.3V1.1h4.3zm-1 3V2h-2.3v2.1h2.3zm4 3.1s-2.67-.02-2.7 0c0 .2.1.4.3.6c.1.1.3.3.6.5c.3.1.6.3.9.4c.4.1.8.2 1.2.2l-.3.8c-.8 0-1.4-.2-2-.5c-.5-.3-.9-.6-1.2-1c-.3.4-.7.7-1.3 1c-.5.3-1.2.5-1.9.5l-.4-.8c.5 0 .9-.1 1.2-.2c.4-.1.7-.2 1-.4c.2-.2.4-.3.6-.5c.1-.2.2-.4.2-.6c.05-.02-2.6 0-2.6 0v-.8h2.6v-.9h1.1v.9h2.7v.8zm10.7-4.4h1.3v.9h-1.3v2.3h-1.1V.6h1.1v2.2zm-2.6-1.7v4.3h-4.3V1.1h1v1.3h2.3V1.1h1zm-1 3.5V3.2h-2.3v1.4h2.3zm.6 1.7c.5 0 .9 0 1.3.1c.3.1.7.2.9.3c.3.2.5.4.6.6c.2.2.3.4.3.7c0 .3-.1.5-.3.8c-.1.2-.3.4-.6.5c-.2.2-.6.3-.9.4c-.4 0-.8.1-1.3.1c-.5 0-.9-.1-1.3-.1c-.4-.1-.7-.2-1-.4c-.2-.1-.4-.3-.6-.5c-.1-.3-.2-.5-.2-.8c0-.3.1-.5.2-.7l.6-.6c.3-.1.6-.2 1-.3c.4-.1.8-.1 1.3-.1zm0 2.6c.6 0 1.1 0 1.5-.2c.3-.1.5-.4.5-.7c0-.3-.2-.5-.5-.7c-.4-.1-.9-.2-1.5-.2c-.7 0-1.2.1-1.5.2c-.4.2-.5.4-.5.7c0 .3.1.6.5.7c.3.2.8.2 1.5.2zM147.5 1v3.3h-6.2V1h6.2zm-1 2.4V1.8h-4.2v1.6h4.2zm-6.3 1.8h8.4v.8H145v1.8h-1V6h-3.8v-.8zm2.1 1.7v1.8h5.4v.9h-6.5V6.9h1.1zM156.2.6h1v5.4h-1V3.6h-1v2.3h-1V.7h1v2.1h1V.6zm-6.4.6s3.62.01 3.6 0c0 1.2-.3 2.2-.8 2.9c-.6.8-1.5 1.5-2.7 1.9l-.5-.7c.9-.4 1.6-.8 2.1-1.4c.5-.5.7-1.1.8-1.8c.04-.04-2.5 0-2.5 0v-.9zm1.1 6v-.8h6.3v3.4h-1V7.2h-5.3zm12.4 2.9l-.7.4c-.5-.8-.9-1.6-1.1-2.5c-.3-.8-.4-1.8-.4-2.8c0-1 .1-1.9.4-2.8c.2-.8.6-1.6 1.1-2.4l.7.3c-.4.8-.8 1.6-1 2.4c-.2.8-.3 1.6-.3 2.5c0 .9.1 1.8.3 2.6c.2.8.6 1.6 1 2.3zm8-6.9h1.3v.8h-1.3v3.2h-1.1V.5h1.1v2.7zm-1.9 1.3l.1.8c-.3.1-.6.1-.9.2c-.3 0-.6.1-1 .1h-2.4c.02.04-.7 0-.7 0V1.3h4.1v.9h-3.1s.02 2.57 0 2.6h1.2c.4 0 .7-.1 1-.1c.3 0 .6 0 .8-.1c.3 0 .6-.1.9-.1zm-2.9 2v2.2h5.2v.9h-6.2V6.5h1zM179.8.6h1.1v9.2h-1.1V.6zm-3.5 4.2c-.4 0-.7 0-1-.1c-.3-.1-.5-.3-.7-.4c-.2-.2-.4-.4-.5-.6c-.1-.3-.2-.5-.2-.8c0-.3.1-.6.2-.8c.1-.2.3-.4.5-.6c.2-.2.4-.3.7-.4c.3-.1.6-.2 1-.2c.3 0 .6.1.9.2c.3.1.6.2.8.4c.2.2.4.4.5.6c.1.2.2.5.2.8c0 .3-.1.5-.2.8c-.1.2-.3.4-.5.6c-.2.1-.5.3-.8.4c-.3.1-.6.1-.9.1zm0-3c-.4 0-.8.1-1 .3c-.3.2-.4.5-.4.8c0 .3.1.6.4.8c.2.2.6.2 1 .2c.4 0 .7 0 1-.2c.2-.2.3-.5.3-.8c0-.3-.1-.6-.3-.8c-.3-.2-.6-.3-1-.3zm2.9 3.4l.1.7c-.4.1-.8.2-1.2.2c-.4.1-.8.1-1.3.2c.05-.05 0 3.2 0 3.2h-1V6.3h-1.3c-.4.1-.7.1-1.1.1l-.1-.9h1.3c.5 0 1 0 1.5-.1c.6 0 1.1 0 1.6-.1c.5 0 1-.1 1.5-.1zm4.7-2.3v1.3h-1.2V2.9h1.2zm0 4.2v1.3h-1.2V7.1h1.2zm7.8-2.4v.7h-4.3V1.2h4.3v.8h1.9V.6h1v5.4h-1V4.7h-1.9zm-1.1-.2V2.1h-2.2v2.4h2.2zm3-1.7h-1.9v1h1.9v-1zm-2 3.4c.4 0 .9.1 1.3.1c.3.1.7.2.9.4c.3.1.5.3.7.6c.1.2.2.4.2.7c0 .3-.1.5-.2.7c-.2.3-.4.4-.7.6c-.2.2-.6.3-.9.3c-.4.1-.9.2-1.3.2c-.5 0-.9-.1-1.3-.2c-.4 0-.7-.1-1-.3c-.3-.2-.5-.3-.6-.6c-.2-.2-.2-.4-.2-.7c0-.3 0-.5.2-.7c.1-.3.3-.5.6-.6c.3-.2.6-.3 1-.4c.4 0 .8-.1 1.3-.1zm0 2.7c.6 0 1.1 0 1.5-.2c.3-.2.5-.4.5-.7c0-.3-.2-.5-.5-.7c-.4-.2-.9-.2-1.5-.2c-.7 0-1.2 0-1.6.2c-.3.2-.5.4-.5.7c0 .3.2.5.5.7c.4.2.9.2 1.6.2zm5.3 1.6l-.8-.4c.5-.7.8-1.5 1-2.3c.2-.8.3-1.7.3-2.6c0-.9-.1-1.7-.3-2.5c-.2-.8-.5-1.6-1-2.4l.8-.3c.4.8.8 1.6 1.1 2.4c.2.9.4 1.8.4 2.8c0 1-.2 2-.4 2.8c-.3.9-.7 1.7-1.1 2.5z" stroke="none" fill="#949596"/></g></svg>