<?xml version="1.0" standalone="no"?><!DOCTYPE svg PUBLIC "-//W3C//DTD SVG 1.1//EN" "http://www.w3.org/Graphics/SVG/1.1/DTD/svg11.dtd"><svg xmlns="http://www.w3.org/2000/svg" version="1.1" width="409.3px" height="26.8px" viewBox="0 -3 409.3 26.8" style="top:-3px"><desc>그린무브</desc><defs/><g id="Polygon96690"><path d="m11.2 4.1c.02 0 0-.2 0-.2H2.3V2.4H13s-.03 1.7 0 1.7v1.6c0 .5-.1 1.1-.1 1.7c0 .6-.1 1.2-.2 1.9c0 .7-.2 1.4-.3 2.3l-1.8-.2c.2-.8.3-1.5.4-2.2c0-.6.1-1.3.1-1.8c.1-.6.1-1.2.1-1.7V4.1zM.9 12.7h13.9v1.4H.9v-1.4zM29.1.9v11.3h-1.8V.9h1.8zm-3.4 7.3l.2 1.5c-.6.1-1.1.1-1.7.2c-.5.1-1.1.1-1.7.2h-1.9c-.6.1-1.3.1-2.1.1c0-.03-1.3 0-1.3 0V5.3h5.3V3.4h-5.3V2h7v4.6h-5.3s.04 2.14 0 2.1h2c.6 0 1.1 0 1.7-.1c.5 0 1 0 1.6-.1l1.5-.3zm-5 6.4h8.8v1.4H19v-4.7h1.7v3.3zM44.1 1.7v6.1H33.7V1.7h10.4zm-1.7 4.7V3.1h-7v3.3h7zm3.5 3.3v1.4h-6.2v5.2H38v-5.2h-6V9.7h13.9zM49.1 2h1.7v2.7h7.3V2h1.7v8.1H49.1V2zm1.7 4.1v2.6h7.3V6.1h-7.3zm-3.3 6.8h13.9v1.4H47.5v-1.4z" stroke="none" fill="#111111"/></g></svg>