<?xml version="1.0" standalone="no"?><!DOCTYPE svg PUBLIC "-//W3C//DTD SVG 1.1//EN" "http://www.w3.org/Graphics/SVG/1.1/DTD/svg11.dtd"><svg xmlns="http://www.w3.org/2000/svg" version="1.1" width="172px" height="17.3px" viewBox="0 -2 172 17.3" style="top:-2px"><desc>h jumpschool.kr</desc><defs/><g id="Polygon108934"><path d="m.9 8.9V.8h1v2.2s-.06 1.18-.1 1.2c.3-.3.6-.5.9-.7c.2-.2.6-.2 1-.2c.6 0 1 .1 1.3.5c.2.4.4.9.4 1.6c-.03.03 0 3.5 0 3.5h-1s.04-3.35 0-3.4c0-.5 0-.9-.2-1.1c-.2-.2-.4-.3-.8-.3c-.3 0-.6 0-.8.2c-.2.1-.4.3-.7.6c-.03.02 0 4 0 4h-1zm5.6-3.4v-.7h3.4v.7H6.5zm5.6-4.2v1h-1v-1h1zm-1.6 10.1h-.4c-.2-.1-.3-.1-.4-.1l.2-.7h.2c.1 0 .2.1.3.1c.3 0 .5-.1.6-.3c.1-.2.1-.5.1-.8c.02-.03 0-6.2 0-6.2h.9s.05 6.17 0 6.2c0 .5-.1 1-.3 1.3c-.2.3-.6.5-1.2.5zm4.6-2.3c-.6 0-1-.2-1.2-.6c-.3-.3-.4-.9-.4-1.6c-.04.01 0-3.5 0-3.5h.9s-.01 3.39 0 3.4c0 .5.1.9.2 1.1c.2.2.5.4.8.4c.3 0 .6-.1.8-.3c.2-.1.5-.3.7-.7c.03.02 0-3.9 0-3.9h1v5.5h-.8l-.1-.8s-.02-.03 0 0c-.3.3-.5.5-.8.7c-.3.2-.7.3-1.1.3zm4.4-.2V3.4h.8l.1.8c.2-.3.5-.5.8-.7c.3-.2.6-.2.9-.2c.5 0 .8 0 1 .2c.3.2.4.5.6.8c.2-.3.5-.6.8-.8c.3-.1.6-.2 1-.2c.6 0 1 .1 1.3.5c.2.4.4.9.4 1.6c-.04.03 0 3.5 0 3.5h-1s.03-3.35 0-3.4c0-.5 0-.9-.2-1.1c-.2-.2-.4-.3-.8-.3c-.4 0-.9.3-1.4.8v4h-.9s-.02-3.35 0-3.4c0-.5-.1-.9-.3-1.1c-.1-.2-.4-.3-.8-.3c-.4 0-.8.3-1.3.8c-.05.02 0 4 0 4h-1zm9.3 2.4V3.4h.7l.1.6s.04.03 0 0c.3-.2.6-.4.9-.5c.3-.2.6-.2.9-.2c.4 0 .7 0 1 .2c.2.1.5.3.6.5c.2.3.4.6.5.9c.1.4.1.8.1 1.2c0 .5-.1.9-.2 1.2c-.1.4-.3.7-.5 1c-.2.2-.5.4-.8.6c-.3.1-.6.2-.9.2c-.3 0-.5-.1-.8-.2c-.2-.1-.5-.3-.7-.5c-.03.03 0 1 0 1v1.9h-.9zm2.2-3c.5 0 .9-.2 1.2-.6c.3-.4.4-.9.4-1.6v-.8c-.1-.3-.2-.5-.3-.7c-.1-.2-.3-.3-.4-.4c-.2-.1-.5-.2-.7-.2c-.3 0-.5.1-.7.2c-.3.2-.5.4-.8.6v2.9c.2.2.5.4.7.5c.3.1.5.1.6.1zm5.3.8c-.4 0-.7-.1-1.1-.3c-.4-.1-.7-.3-.9-.5l.4-.6c.3.2.5.3.8.5c.2.1.5.1.9.1c.3 0 .6 0 .8-.2c.2-.2.3-.4.3-.6c0-.2-.1-.3-.2-.4c0-.1-.1-.2-.2-.3c-.2 0-.3-.1-.5-.2c-.1 0-.3-.1-.4-.2c-.2 0-.4-.1-.6-.2c-.2-.1-.4-.2-.5-.3c-.2-.2-.3-.3-.4-.5c-.1-.1-.2-.3-.2-.6c0-.2.1-.4.2-.6c0-.2.2-.3.3-.5l.6-.3c.3-.1.5-.1.8-.1c.4 0 .7 0 1 .1c.3.2.6.3.8.5l-.5.6c-.2-.2-.4-.3-.6-.4c-.2-.1-.4-.1-.7-.1c-.3 0-.6.1-.7.2c-.2.2-.3.4-.3.6c0 .1.1.2.1.3l.3.3c.1 0 .3.1.4.2c.2 0 .3.1.5.1l.6.3c.2.1.3.2.5.3c.2.1.3.3.4.5c.1.1.2.4.2.6c0 .2-.1.5-.2.7c-.1.2-.2.3-.4.5c-.1.1-.3.2-.6.3c-.3.1-.5.2-.9.2zm5.3 0c-.3 0-.7-.1-1-.2c-.3-.2-.6-.3-.8-.6c-.3-.2-.4-.5-.6-.9c-.1-.4-.2-.8-.2-1.2c0-.5.1-.9.3-1.3c.1-.3.3-.6.5-.9l.9-.6c.3-.1.7-.1 1-.1c.4 0 .7 0 .9.1c.3.2.5.3.7.5l-.5.6c-.1-.1-.3-.2-.5-.3c-.1-.1-.3-.2-.6-.2c-.2 0-.4.1-.7.2c-.2.1-.3.2-.5.4c-.2.2-.3.4-.4.7c-.1.3-.1.6-.1.9c0 .3 0 .6.1.8c.1.3.2.5.4.7c.1.2.3.3.5.4c.2.1.5.2.7.2c.3 0 .5-.1.7-.2c.2-.1.4-.2.6-.4l.4.7c-.2.2-.5.4-.8.5c-.3.1-.6.2-1 .2zm2.8-.2V.8h1v2.2s-.06 1.18-.1 1.2c.3-.3.6-.5.9-.7c.2-.2.6-.2 1-.2c.6 0 1 .1 1.3.5c.2.4.4.9.4 1.6c-.03.03 0 3.5 0 3.5h-1s.04-3.35 0-3.4c0-.5 0-.9-.2-1.1c-.2-.2-.4-.3-.8-.3c-.3 0-.6 0-.8.2c-.2.1-.4.3-.7.6c-.03.02 0 4 0 4h-1zm8.2.2c-.4 0-.7-.1-1-.2c-.3-.2-.6-.3-.8-.6c-.3-.2-.4-.5-.6-.9c-.1-.4-.2-.8-.2-1.2c0-.5.1-.9.2-1.3c.2-.3.3-.6.6-.9c.2-.2.5-.4.8-.6c.3-.1.6-.1 1-.1c.3 0 .6 0 1 .1c.3.2.5.4.8.6c.2.3.4.6.5.9c.2.4.3.8.3 1.3c0 .4-.1.8-.3 1.2c-.1.4-.3.7-.5.9c-.3.3-.5.4-.8.6c-.4.1-.7.2-1 .2zm0-.8c.2 0 .4-.1.6-.2c.2-.1.4-.2.5-.4c.2-.2.3-.4.4-.7c.1-.2.1-.5.1-.8c0-.3 0-.6-.1-.9c-.1-.3-.2-.5-.4-.7c-.1-.2-.3-.3-.5-.4c-.2-.1-.4-.2-.6-.2c-.3 0-.5.1-.7.2c-.2.1-.3.2-.5.4c-.1.2-.2.4-.3.7c-.1.3-.1.6-.1.9c0 .3 0 .6.1.8c.1.3.2.5.3.7c.2.2.3.3.5.4c.2.1.4.2.7.2zm6 .8c-.4 0-.7-.1-1-.2c-.3-.2-.6-.3-.8-.6c-.3-.2-.5-.5-.6-.9c-.1-.4-.2-.8-.2-1.2c0-.5.1-.9.2-1.3c.1-.3.3-.6.6-.9c.2-.2.5-.4.8-.6c.3-.1.6-.1 1-.1c.3 0 .6 0 .9.1l.9.6c.2.3.4.6.5.9c.2.4.2.8.2 1.3c0 .4 0 .8-.2 1.2c-.1.4-.3.7-.5.9c-.3.3-.6.4-.9.6c-.3.1-.6.2-.9.2zm0-.8c.2 0 .4-.1.6-.2c.2-.1.4-.2.5-.4c.2-.2.3-.4.4-.7c0-.2.1-.5.1-.8c0-.3-.1-.6-.1-.9c-.1-.3-.2-.5-.4-.7c-.1-.2-.3-.3-.5-.4c-.2-.1-.4-.2-.6-.2c-.3 0-.5.1-.7.2c-.2.1-.4.2-.5.4c-.1.2-.2.4-.3.7c-.1.3-.1.6-.1.9c0 .3 0 .6.1.8c.1.3.2.5.3.7c.1.2.3.3.5.4c.2.1.4.2.7.2zm4.7.6h-.9V.8h.9v8.1zm1.2.2v-1h.9v1h-.9zm2.6-.2V.8h.9v5.5l2.4-2.9h1l-1.8 2.2l2.1 3.3h-1l-1.6-2.6L68 7.5v1.4h-.9zm5.4 0V3.4h.8l.1 1s.01.01 0 0c.2-.3.4-.6.7-.8c.3-.2.6-.3.9-.3h.3c.1 0 .2 0 .3.1l-.2.8c-.1 0-.2-.1-.3-.1h-.2c-.2 0-.3 0-.4.1c-.1 0-.3.1-.4.2c-.1.1-.2.2-.3.4c-.2.1-.3.3-.3.6c-.04-.02 0 3.5 0 3.5h-1z" stroke="none" fill="#111111"/></g></svg>