<?xml version="1.0" standalone="no"?><!DOCTYPE svg PUBLIC "-//W3C//DTD SVG 1.1//EN" "http://www.w3.org/Graphics/SVG/1.1/DTD/svg11.dtd"><svg xmlns="http://www.w3.org/2000/svg" version="1.1" width="390px" height="109.3px" viewBox="0 -2 390 109.3" style="top:-2px"><desc>신체적 불편으로 어려움을 겪고 있는 장애인과 노인 등을 위해 현대자동차그룹이 출자하고 여러 공익법인이 함께하는 보조기기 전문 사회적기업이다. 자세 유지기기와 장애 아동용 유모차를 비롯해 복지 차량, 전동스쿠터,...</desc><defs/><g id="Polygon112742"><path d="m5.1 100.3h3.7v.7H.5v-.7h3.8v-1.9H1.5v-4.7h.8v1.6h4.7v-1.6h.8v4.7H5.1v1.9zM2.3 96v1.7h4.7V96H2.3zm8.2 2.4l-.4-.6c.4-.1.8-.2 1.2-.4c.4-.2.8-.4 1.1-.7c.3-.3.5-.6.7-.9c.2-.3.3-.7.3-1c.03-.05 0-.2 0-.2h-3v-.7h6.9v.7h-3v.2c0 .3.1.7.3 1c.2.3.5.6.8.9c.3.3.6.5 1 .7c.4.1.8.3 1.2.3l-.3.7l-1-.3c-.4-.2-.7-.3-1-.6c-.3-.2-.6-.4-.8-.7c-.3-.2-.5-.5-.6-.8l-.6.9c-.3.2-.5.5-.8.7c-.3.2-.7.4-1 .5c-.3.2-.7.3-1 .3zm3.8 1.9h3.7v.7H9.7v-.7h3.8v-2.2h.8v2.2zM25.6 93h.8v9.2h-.8V93zm-6.2 1s4.33.03 4.3 0c0 .7-.1 1.3-.2 1.9c-.2.7-.4 1.2-.8 1.8c-.3.5-.7 1-1.3 1.5c-.5.5-1.2.9-1.9 1.3l-.5-.7c1.3-.6 2.2-1.3 2.8-2.2c.6-.8 1-1.8 1.1-2.9h-3.5v-.7zm15.4-1h.8v9.2h-.8V93zm-6.2 1s4.31.03 4.3 0c0 .7-.1 1.3-.2 1.9c-.2.7-.4 1.2-.8 1.8c-.3.5-.8 1-1.3 1.5c-.5.5-1.2.9-1.9 1.3l-.5-.7c1.2-.6 2.2-1.3 2.8-2.2c.6-.8 1-1.8 1.1-2.9h-3.5v-.7zm15.3-1h.8v9.2h-.8V93zm-3.7.7c.4 0 .7.1 1 .2c.3.1.6.2.8.4c.2.2.4.4.5.7c.1.3.2.5.2.9c0 .3-.1.6-.2.8c-.1.3-.3.5-.5.7c-.2.2-.5.4-.8.5c-.3.1-.6.1-1 .1c-.3 0-.7 0-1-.1c-.2-.1-.5-.3-.7-.5c-.2-.2-.4-.4-.5-.7c-.2-.2-.2-.5-.2-.8c0-.4 0-.6.2-.9c.1-.3.3-.5.5-.7c.2-.2.5-.3.7-.4c.3-.1.7-.2 1-.2zm0 .7c-.2 0-.4.1-.6.1c-.2.1-.4.2-.5.3c-.2.2-.3.3-.4.5c-.1.2-.1.3-.1.6c0 .2 0 .4.1.5c.1.2.2.4.4.5c.1.1.3.2.5.3c.2.1.4.1.6.1c.3 0 .5 0 .7-.1c.2-.1.4-.2.5-.3c.1-.1.3-.3.3-.5c.1-.1.2-.3.2-.5c0-.3-.1-.4-.2-.6c0-.2-.2-.3-.3-.5c-.1-.1-.3-.2-.5-.3c-.2 0-.4-.1-.7-.1zm-2.8 5.8l-.1-.7h1.4c.5 0 1 0 1.5-.1h1.5c.6-.1 1.1-.1 1.6-.2v.6c-.5.1-1 .2-1.5.2c-.5.1-1.1.1-1.6.1c-.5.1-1 .1-1.4.1h-1.4zM55.5 93h.8v9.2h-.8V93zm-1.8 3.6v-3.4h.8v8.5h-.8v-4.4s-1.17-.02-1.2 0c0 .4-.1.8-.1 1.2c-.1.3-.3.7-.4.9c-.2.3-.4.4-.6.6c-.3.1-.5.2-.8.2c-.3 0-.6-.1-.8-.2c-.3-.2-.5-.4-.6-.7c-.2-.3-.3-.6-.4-1c-.1-.4-.2-.8-.2-1.3c0-.5.1-1 .2-1.3c.1-.4.2-.8.4-1c.1-.3.3-.5.6-.7c.2-.1.5-.2.8-.2c.3 0 .5.1.7.2c.3.1.5.3.6.6c.2.2.3.5.4.8c.1.4.2.8.2 1.2h1.2zm-3.1 2.8c.4 0 .6-.2.9-.6c.2-.5.3-1.1.3-1.8c0-.4-.1-.7-.1-1c-.1-.3-.1-.6-.3-.8c-.1-.2-.2-.3-.3-.5c-.2-.1-.3-.1-.5-.1c-.4 0-.7.2-.9.6c-.2.5-.3 1-.3 1.8c0 .7.1 1.3.3 1.8c.2.4.5.6.9.6zM64.4 93h.8v9.2h-.8v-5.4h-2.8v-.7h2.8V93zM59 94.1s.04 5.19 0 5.2c.7 0 1.4 0 2-.1c.6-.1 1.3-.1 2-.3l.1.7c-.7.2-1.4.3-2.1.3c-.7.1-1.4.1-2.1.1h-.7v-5.9h.8zm14.5-1h.9v9.1h-.9v-9.1zm-3.4 1.6s.05 1.14 0 1.1c0 .4.1.8.2 1.2c.2.4.3.7.6 1.1c.2.3.4.6.7.8c.3.3.7.5 1 .6l-.5.7c-.5-.2-1-.6-1.4-1.1c-.4-.5-.8-1.1-1-1.7c-.1.3-.2.7-.4 1c-.1.3-.3.6-.5.8c-.2.3-.4.5-.7.7c-.2.2-.5.4-.7.5l-.5-.6c.3-.2.6-.4.9-.7c.3-.3.6-.6.8-.9c.2-.4.4-.8.5-1.2c.1-.4.2-.8.2-1.2c.01.04 0-1.1 0-1.1h-2.1v-.7h5.1v.7h-2.2zm15.9-.3v.7h-7.5v-.7h3.4v-1.2h.8v1.2h3.3zm-1.8 6.1h2.2v.6h-8.3v-.6h2.2s.02-1.74 0-1.7c-.7-.3-1-.8-1-1.4c0-.3 0-.5.2-.7c.1-.3.3-.4.6-.6c.2-.1.6-.2.9-.3c.4-.1.8-.1 1.3-.1c.4 0 .9 0 1.2.1c.4.1.7.2 1 .3c.2.2.4.3.6.6c.1.2.2.4.2.7c0 .3-.1.6-.3.8c-.2.2-.4.4-.8.6c.02-.04 0 1.7 0 1.7zm-1.9-4.2c-.7 0-1.2.1-1.6.3c-.4.2-.6.5-.6.8c0 .3.2.6.6.8c.4.1.9.2 1.6.2c.6 0 1.2-.1 1.5-.2c.4-.2.6-.5.6-.8c0-.3-.2-.6-.6-.8c-.3-.2-.9-.3-1.5-.3zm0 2.8c-.4 0-.8 0-1.1-.1c-.05 0 0 1.5 0 1.5h2.2V99c-.3.1-.7.1-1.1.1zm9.2-2.8c-1.1 0-1.8-.1-2.4-.4c-.6-.3-.9-.6-.9-1.2c0-.5.3-.9.9-1.1c.6-.3 1.3-.5 2.4-.5c1 0 1.8.2 2.3.5c.6.2.9.6.9 1.1c0 .6-.3.9-.9 1.2c-.5.3-1.3.4-2.3.4zm0-2.5c-.8 0-1.4.1-1.8.2c-.4.2-.6.4-.6.7c0 .3.2.6.6.7c.4.2 1 .3 1.8.3c.7 0 1.3-.1 1.7-.3c.4-.1.6-.4.6-.7c0-.3-.2-.5-.6-.7c-.4-.1-1-.2-1.7-.2zm4.1 3.7h-2.3v.9h1.2v2.1h-5.3v.9h5.6v.7h-6.5v-2.2h5.4v-.8h-5.4v-.7h1.3v-.9h-2.3v-.6h8.3v.6zm-3.1.9v-.9h-2.1v.9h2.1zm13-5.4h.9v9.2h-.9V93zm-1.8 3.3v-3.1h.8v8.5h-.8V97h-1.5v-.7h1.5zm-2.4-1.5s-.03.82 0 .8c0 .4 0 .8.1 1.2c.1.4.2.8.4 1.1c.1.3.3.7.6.9c.2.3.5.5.8.7l-.5.6c-.4-.2-.8-.6-1.1-1.1c-.3-.4-.6-.9-.7-1.5c-.2.6-.4 1.2-.8 1.7c-.3.5-.7.9-1.1 1.2l-.5-.7c.3-.2.6-.4.8-.7c.3-.3.5-.6.6-1c.2-.3.3-.7.4-1.1c.1-.4.2-.9.2-1.3c-.04.02 0-.8 0-.8h-1.8v-.7h4.2v.7h-1.6zm12.9.1c.02-.03 0-.3 0-.3h-5.6v-.6h6.5s-.04.87 0 .9v.8c-.1.4-.1.7-.1 1c0 .4 0 .7-.1 1.1c0 .4-.1.8-.2 1.3l-.8-.1c.1-.9.3-1.6.3-2.3v-1.8zm-2.4 5.3h4.2v.7h-8.2v-.7h3.2v-3.3h.8v3.3zm14.3-4.9h1.4v.7h-1.4v2.5h-.8V93h.8v2.3zm-2.5-1.7v4.2h-4.2v-4.2h.8v1.4h2.6v-1.4h.8zm-.8 3.6v-1.5h-2.6v1.5h2.6zm.4 1.6c.5 0 .9 0 1.3.1c.3.1.7.2.9.3c.3.2.5.4.6.6c.2.2.2.4.2.7c0 .3 0 .5-.2.7c-.1.2-.3.4-.6.5c-.2.2-.6.3-.9.4c-.4.1-.8.1-1.3.1c-.9 0-1.7-.2-2.2-.5c-.5-.2-.8-.7-.8-1.2c0-.6.3-1 .8-1.3c.5-.3 1.3-.4 2.2-.4zm0 2.7c.7 0 1.2-.1 1.6-.2c.4-.2.6-.5.6-.8c0-.3-.2-.6-.6-.8c-.4-.2-.9-.2-1.6-.2c-.7 0-1.2 0-1.6.2c-.4.2-.6.5-.6.8c0 .3.2.6.6.8c.4.1.9.2 1.6.2zm12.1-5.7h1.4v.7h-1.4v3.3h-.8V93h.8v2.8zm-2.1.1c0 .4-.1.7-.2 1c-.1.2-.3.5-.5.7c-.2.2-.5.3-.8.4c-.3.1-.6.2-.9.2c-.4 0-.7-.1-1-.2c-.3-.1-.5-.2-.7-.4c-.3-.2-.4-.5-.5-.7c-.2-.3-.2-.6-.2-1c0-.3 0-.6.2-.9c.1-.3.2-.5.5-.7c.2-.2.4-.3.7-.5c.3-.1.6-.1 1-.1c.3 0 .6 0 .9.1c.3.2.6.3.8.5c.2.2.4.4.5.7c.1.3.2.6.2.9zm-4 0c0 .3 0 .5.1.7c.1.1.2.3.3.4c.2.2.4.3.5.4c.2 0 .4.1.7.1c.2 0 .4-.1.6-.1c.2-.1.3-.2.5-.4c.1-.1.2-.3.3-.4c.1-.2.1-.4.1-.7c0-.2 0-.4-.1-.6c-.1-.2-.2-.3-.3-.5c-.2-.1-.3-.2-.5-.3c-.2-.1-.4-.1-.6-.1c-.3 0-.5 0-.7.1c-.1.1-.3.2-.5.3c-.1.2-.2.3-.3.5c-.1.2-.1.4-.1.6zm1.2 3.2v2.2h5.3v.7h-6.1v-2.9h.8zm11.1-2.7c-1 0-1.8-.2-2.3-.4c-.6-.3-.9-.7-.9-1.2c0-.5.3-.9.9-1.2c.5-.3 1.3-.4 2.3-.4c1 0 1.8.1 2.4.4c.5.3.8.7.8 1.2c0 .5-.3.9-.8 1.2c-.6.2-1.4.4-2.4.4zm0-2.6c-.7 0-1.3.1-1.7.3c-.4.1-.6.4-.6.7c0 .3.2.5.6.7c.4.2 1 .2 1.7.2c.8 0 1.4 0 1.8-.2c.4-.2.6-.4.6-.7c0-.3-.2-.6-.6-.7c-.4-.2-1-.3-1.8-.3zm-4.1 3.2h8.3v.7h-8.3v-.7zm1.8 3.5v.9h5.7v.7h-6.5v-2.2h5.4v-.8h-5.4v-.7h6.2v2.1h-5.4zm14-.2h3.7v.7h-8.3v-.7h3.8v-2.2h-2.8v-4.3h6.3v4.3h-2.7v2.2zm-2.8-5.8v2.9h4.7v-2.9h-4.7zm14.3-1.4h.8v5.5h-.8v-2.5h-1.1v2.4h-.8v-5.3h.8v2.2h1.1v-2.3zm-2.3 4.3l-.4.6c-.5-.2-.8-.4-1.1-.7c-.4-.3-.6-.7-.8-1.1c-.1.4-.4.8-.7 1.2c-.3.4-.7.6-1.1.8l-.5-.6c.3-.1.6-.3.8-.5c.3-.2.5-.5.6-.7c.2-.3.3-.5.4-.8c.1-.3.1-.5.1-.8c.04.02 0-1.2 0-1.2h.8s.05 1.22 0 1.2c0 .3.1.5.2.8c.1.2.2.5.3.7l.6.6c.2.2.5.4.8.5zm-3 2.4v-.7h6.1v3.1h-.8v-2.4h-5.3zm16.2-3v.7h-1.5v4.7h-.9v-9.1h.9v3.7h1.5zm-5.5-3.6v1.3h2.2v.7H167v-.7h2.3v-1.3h.8zm-.4 2.7c.3 0 .6.1.9.2c.3.1.5.2.7.4c.2.2.3.4.5.7c.1.3.1.5.1.8c0 .4 0 .6-.1.9c-.2.3-.3.5-.5.7c-.2.2-.4.3-.7.4c-.3.1-.6.1-.9.1c-.3 0-.6 0-.9-.1c-.3-.1-.5-.2-.7-.4c-.2-.2-.4-.4-.5-.7c-.1-.3-.1-.5-.1-.9c0-.3 0-.5.1-.8c.1-.3.3-.5.5-.7c.2-.2.4-.3.7-.4c.3-.1.6-.2.9-.2zm0 3.6c.2 0 .4-.1.6-.2c.1 0 .3-.1.4-.2c.1-.2.2-.3.3-.5c.1-.2.1-.3.1-.6c0-.2 0-.3-.1-.5c-.1-.2-.2-.3-.3-.5c-.1-.1-.3-.2-.4-.3c-.2 0-.4-.1-.6-.1c-.2 0-.4.1-.6.1c-.2.1-.3.2-.4.3c-.2.2-.3.3-.3.5c-.1.2-.1.3-.1.5c0 .3 0 .4.1.6c0 .2.1.3.3.5c.1.1.2.2.4.2c.2.1.4.2.6.2zm13.8-3.7v.7h-6.2v-3.1h.8v2.4h5.4zm-7.3 1.9h8.3v.7h-8.3v-.7zm1.9 1.6v2h5.5v.7h-6.4v-2.7h.9zm14.8-5.1v.6h-5.4v-.6h2.2v-1.1h.9v1.1h2.3zm1.6 1.9h1.4v.7h-1.4v3.1h-.8v-6.8h.8v3zm-2.1.9c0 .3-.1.5-.2.7c-.1.3-.3.4-.4.6c-.2.1-.5.2-.7.3c-.3.1-.6.1-.9.1c-.4 0-.7 0-.9-.1c-.3-.1-.5-.2-.7-.3c-.2-.2-.4-.3-.5-.6c-.1-.2-.1-.4-.1-.7c0-.2 0-.5.1-.7c.1-.2.3-.3.5-.5c.2-.1.4-.3.7-.3c.2-.1.5-.2.9-.2c.3 0 .6.1.9.2c.2 0 .5.2.7.3c.1.2.3.3.4.5c.1.2.2.5.2.7zm-3.6 0c0 .4.1.6.4.8c.2.2.5.3 1 .3c.4 0 .7-.1 1-.3c.2-.2.4-.4.4-.8c0-.3-.2-.5-.4-.7c-.3-.2-.6-.3-1-.3c-.5 0-.8.1-1 .3c-.3.2-.4.4-.4.7zm.9 2.4v1.9h5.3v.7h-6.1v-2.6h.8zm13.6.4v-2.6h-1.5v-.7h1.5v-1h-1.5v-.7h1.5v-1.7h.9v6.7h-.9zm-1.3-2.3l.1.7c-.5 0-.9.1-1.4.1c-.5.1-.9.1-1.4.1c-.5 0-.9.1-1.3.1h-1.3c.05-.03 0-.7 0-.7c0 0 .81-.03.8 0h.3c.01-.04 0-3.3 0-3.3h-.9v-.7h4.8v.7h-.9v3.2c.2-.1.4-.1.6-.1c.2 0 .4 0 .6-.1zm-3.4-3s.01 3.25 0 3.3c.2-.1.5-.1.7-.1h.7v-3.2h-1.4zm.5 6.8h5.3v.7h-6.1v-2.7h.8v2zm6.4.9l.3-2.1h1l-.7 2.1h-.6zm11.6-9.1v6.7h-.8v-6.7h.8zm-1.9 4.8l-.4.6c-.5-.1-1-.4-1.4-.7c-.4-.4-.7-.8-.9-1.3c-.2.5-.5 1-.9 1.4c-.4.3-.8.6-1.4.8l-.4-.7c.3-.1.7-.2.9-.4c.3-.2.6-.4.8-.7c.2-.2.3-.5.4-.8c.1-.3.2-.6.2-.9v-.3H210v-.6h2.1v-1.2h.8v1.2h2.1v.6h-2.1s.02.27 0 .3c0 .3.1.6.2.8c.1.3.3.6.5.8c.2.3.4.5.7.6c.3.2.6.4.9.5zm-3.1 3.4h5.3v.7h-6.2v-2.8h.9v2.1zm12.1-7.4v.7H219v-.7h2.2v-.9h.8v.9h2.2zm1.7 2.3h1.3v.7h-1.3v3.3h-.9V93h.9v3.2zm-1.4 2l.1.6c-.5 0-1 .1-1.5.2c-.5 0-1 .1-1.5.1h-1.5c-.4 0-.9.1-1.3.1l-.1-.7h1.2c.4 0 .8 0 1.3-.1v-.7c-.5 0-1-.2-1.3-.4c-.3-.2-.4-.6-.4-1c0-.2 0-.4.1-.5c.1-.2.3-.4.4-.5c.2-.1.5-.2.7-.3c.3 0 .6-.1.9-.1c.3 0 .6.1.9.1c.2.1.5.2.6.3c.2.1.4.3.5.5c.1.1.1.3.1.5c0 .4-.1.8-.4 1c-.3.2-.7.4-1.3.4v.7c.5 0 .9-.1 1.3-.1c.4 0 .8-.1 1.2-.1zm-4.2-1.9c0 .3.1.5.3.6c.3.2.6.3 1 .3c.4 0 .7-.1 1-.3c.2-.1.3-.3.3-.6c0-.2-.1-.4-.3-.5c-.3-.2-.6-.3-1-.3c-.4 0-.7.1-1 .3c-.2.1-.3.3-.3.5zm.6 3.4v1.6h5.3v.7h-6.1v-2.3h.8zm13.8-4.3h-2.3c-.6 1.5-2 2.5-4 3.1l-.3-.6c1.1-.4 2-.8 2.6-1.4c.6-.6 1-1.3 1.1-2.1h-3.2v-.7s4.09.03 4.1 0v.5c-.1.2-.1.4-.1.5c-.01.02 2.1 0 2.1 0v-1.6h.8v5.4h-.8v-1.2h-2.4v-.7h2.4v-1.2zm-2.2 3.2c.5 0 .9.1 1.3.1c.3.1.7.2.9.4c.3.1.5.3.6.5c.2.3.2.5.2.8c0 .3 0 .5-.2.7c-.1.2-.3.4-.6.6c-.2.1-.6.2-.9.3c-.4.1-.8.1-1.3.1c-.4 0-.9 0-1.2-.1c-.4-.1-.7-.2-1-.3c-.3-.2-.5-.4-.6-.6c-.1-.2-.2-.4-.2-.7c0-.3.1-.5.2-.8c.1-.2.3-.4.6-.5c.3-.2.6-.3 1-.4c.3 0 .8-.1 1.2-.1zm0 2.9c.7 0 1.2-.1 1.6-.3c.4-.2.6-.5.6-.8c0-.4-.2-.6-.6-.8c-.4-.2-.9-.3-1.6-.3c-.7 0-1.2.1-1.6.3c-.4.2-.6.4-.6.8c0 .3.2.6.6.8c.4.2.9.3 1.6.3zm11.3-1.2h3.7v.7h-8.3v-.7h3.7v-2.2h-2.7v-4.3h6.3v4.3h-2.7v2.2zm-2.8-5.8v2.9h4.7v-2.9H241zm14.9-1.4v4.7h-.8v-4.7h.8zm-2.7.3v4h-4.3v-4h.8v1.3h2.6v-1.3h.9zm-.9 3.3v-1.3h-2.6v1.3h2.6zm-1.5 4.7h5.4v.7H250v-2.3h5.1v-.9H250v-.6h5.9v2.2h-5.1v.9zm13.5-8.4h.8v9.2h-.8V93zm-5.3 4.2s-.04 2.09 0 2.1c.7 0 1.4 0 2.1-.1c.8 0 1.5-.1 2.3-.2l.1.7c-.4 0-.8.1-1.2.1c-.4.1-.8.1-1.2.1c-.3 0-.7.1-1.1.1h-1.9v-3.5h3.4v-1.9h-3.4v-.7h4.2v3.3H259zm14.4-4.2h.9v9.2h-.9V93zm-5.2 4.1s-.02 2.2 0 2.2h1.1c.4 0 .8 0 1.1-.1h1c.3-.1.6-.1 1-.2l.1.7c-.4 0-.7.1-1.1.1c-.3.1-.7.1-1 .1c-.4 0-.7.1-1.1.1h-1.9v-6.1h4.4v.7h-3.6v1.8h3.3v.7h-3.3zm16.9-1.3h1.4v.7h-1.4v3.3h-.8V93h.8v2.8zm-1.7 1.8l-.5.7c-.5-.2-.9-.5-1.3-.8c-.4-.4-.7-.8-.9-1.3c-.2.6-.5 1-.9 1.4c-.4.4-.8.7-1.4.9l-.4-.6c.3-.2.7-.3.9-.5c.3-.2.6-.5.8-.8c.2-.2.3-.5.4-.9c.1-.3.2-.6.2-1c-.03.02 0-1.1 0-1.1h.8s.01 1.14 0 1.1c0 .4.1.7.2 1c.1.3.2.5.4.8l.7.7c.3.2.6.3 1 .4zm-3.1 1.6v2.1h5.2v.7h-6v-2.8h.8zm13.6-6.1h.8v4.9h-.8v-2.1H292c0 .6-.3 1-.7 1.3c-.4.3-1 .5-1.6.5c-.3 0-.6 0-.9-.2c-.3-.1-.6-.2-.8-.4c-.2-.2-.3-.4-.5-.7c-.1-.2-.1-.5-.1-.8c0-.3 0-.6.1-.9c.2-.2.3-.5.5-.6c.2-.2.5-.4.8-.5c.3-.1.6-.1.9-.1c.3 0 .6 0 .9.1c.2.1.5.2.7.4c.2.1.3.3.5.5c.1.2.2.5.2.7c.04.02 1.9 0 1.9 0v-2.1zm-4.2 3.9c.2 0 .4 0 .6-.1c.2-.1.4-.2.5-.3c.2-.1.3-.3.4-.4c0-.2.1-.4.1-.6c0-.2-.1-.4-.1-.6c-.1-.2-.2-.3-.4-.4c-.1-.2-.3-.3-.5-.3c-.2-.1-.4-.1-.6-.1c-.2 0-.4 0-.6.1c-.2 0-.4.1-.5.3c-.1.1-.3.2-.3.4c-.1.2-.2.4-.2.6c0 .2.1.4.2.6c0 .1.2.3.3.4c.1.1.3.2.5.3c.2.1.4.1.6.1zm4.2 2.6v-1.2h.8v3.7h-5.8v-3.7h.8v1.2h4.2zm0 1.8v-1.2h-4.2v1.2h4.2zM303 93h.8v9.2h-.8V93zm-3.6.7c.3 0 .6.1.9.2c.3.1.6.2.8.4c.2.2.4.4.5.7c.1.3.2.5.2.9c0 .3-.1.6-.2.8c-.1.3-.3.5-.5.7c-.2.2-.5.4-.8.5c-.3.1-.6.1-.9.1c-.4 0-.7 0-1-.1c-.3-.1-.6-.3-.8-.5c-.2-.2-.4-.4-.5-.7c-.1-.2-.2-.5-.2-.8c0-.4.1-.6.2-.9c.1-.3.3-.5.5-.7c.2-.2.5-.3.8-.4c.3-.1.6-.2 1-.2zm0 .7c-.3 0-.5.1-.7.1c-.2.1-.4.2-.5.3c-.2.2-.3.3-.4.5c0 .2-.1.3-.1.6c0 .2.1.4.1.5c.1.2.2.4.4.5c.1.1.3.2.5.3c.2.1.4.1.7.1c.2 0 .4 0 .6-.1c.2-.1.4-.2.5-.3c.2-.1.3-.3.4-.5c0-.1.1-.3.1-.5c0-.3-.1-.4-.1-.6c-.1-.2-.2-.3-.4-.5c-.1-.1-.3-.2-.5-.3c-.2 0-.4-.1-.6-.1zm-2.8 5.8l-.1-.7h1.3c.5 0 1 0 1.5-.1h1.6c.5-.1 1-.1 1.5-.2l.1.6c-.5.1-1.1.2-1.6.2c-.5.1-1 .1-1.5.1c-.5.1-1 .1-1.5.1h-1.3zm17.7-1.7v-2.8h-1.9v-.7h1.9v-1.9h.9v5.4h-.9zm-1.3-1.1l-.4.6c-.5-.2-1-.4-1.4-.8c-.3-.3-.6-.7-.8-1.2c-.2.5-.5 1-.9 1.4c-.4.4-.9.7-1.4.9l-.5-.7c.4-.1.7-.3 1-.5c.3-.2.5-.4.7-.7c.2-.3.4-.6.5-.9c.1-.3.2-.7.2-1c-.04 0 0-.9 0-.9h.8s-.01.87 0 .9c0 .3 0 .6.2.9c.1.3.2.6.4.8c.2.3.4.5.7.7c.3.2.6.4.9.5zm-.8 1.3c.4 0 .9.1 1.2.1c.4.1.7.2 1 .4c.3.1.5.3.6.5c.1.2.2.5.2.8c0 .2-.1.5-.2.7c-.1.2-.3.4-.6.5c-.3.2-.6.3-1 .4c-.3 0-.8.1-1.2.1c-.5 0-.9-.1-1.3-.1c-.4-.1-.7-.2-1-.4c-.2-.1-.4-.3-.6-.5c-.1-.2-.2-.5-.2-.7c0-.3.1-.6.2-.8c.2-.2.4-.4.6-.5c.3-.2.6-.3 1-.4c.4 0 .8-.1 1.3-.1zm0 2.8c.7 0 1.2-.1 1.6-.3c.4-.2.6-.4.6-.7c0-.4-.2-.7-.6-.8c-.4-.2-.9-.3-1.6-.3c-.7 0-1.3.1-1.7.3c-.3.1-.5.4-.5.8c0 .3.2.5.5.7c.4.2 1 .3 1.7.3zm11.7-6.1h1.4v.7h-1.4v2.5h-.8v-5.5h.8v2.3zm-1.8 2.1l-.4.6c-.5-.1-.9-.4-1.3-.7c-.4-.4-.7-.8-.9-1.2c-.2.5-.5.9-.9 1.3c-.4.4-.8.7-1.4.9l-.4-.7c.3-.1.7-.3.9-.5c.3-.2.6-.4.8-.6c.2-.3.3-.6.4-.9c.1-.3.2-.6.2-.9v-.4H317v-.7h4.9v.7h-2s.02.35 0 .4c0 .3.1.5.2.8c.1.3.2.6.4.8c.2.2.4.4.7.6c.3.2.6.4.9.5zm-1.1 1.3c.5 0 .9 0 1.3.1c.3.1.7.2.9.3c.3.2.5.4.6.6c.2.2.2.4.2.7c0 .3 0 .5-.2.7c-.1.2-.3.4-.6.5c-.2.2-.6.3-.9.4c-.4 0-.8.1-1.3.1c-.9 0-1.7-.2-2.2-.5c-.5-.3-.8-.7-.8-1.2c0-.5.3-1 .8-1.3c.5-.2 1.3-.4 2.2-.4zm0 2.7c.7 0 1.2-.1 1.6-.3c.4-.1.6-.4.6-.7c0-.3-.2-.6-.6-.8c-.4-.1-.9-.2-1.6-.2c-.7 0-1.2.1-1.6.2c-.4.2-.6.5-.6.8c0 .3.2.6.6.7c.4.2.9.3 1.6.3zm12-8.5h.8v9.2h-.8V93zm-1.8 3.6v-3.4h.8v8.5h-.8v-4.4s-1.18-.02-1.2 0c0 .4-.1.8-.2 1.2c-.1.3-.2.7-.4.9c-.1.3-.3.4-.6.6c-.2.1-.4.2-.7.2c-.3 0-.6-.1-.8-.2c-.3-.2-.5-.4-.6-.7c-.2-.3-.3-.6-.4-1c-.1-.4-.2-.8-.2-1.3c0-.5.1-1 .2-1.3c.1-.4.2-.8.4-1c.1-.3.3-.5.6-.7c.2-.1.5-.2.8-.2c.3 0 .5.1.7.2c.3.1.5.3.6.6c.2.2.3.5.4.8c.1.4.2.8.2 1.2h1.2zm-3.1 2.8c.3 0 .6-.2.8-.6c.3-.5.4-1.1.4-1.8c0-.4-.1-.7-.1-1c-.1-.3-.2-.6-.3-.8c-.1-.2-.2-.3-.3-.5c-.2-.1-.3-.1-.5-.1c-.4 0-.7.2-.9.6c-.2.5-.3 1-.3 1.8c0 .7.1 1.3.3 1.8c.2.4.5.6.9.6zm16.1-6.4h.8v9.2h-.8v-4.8h-1.3v4.3h-.7v-8.5h.7v3.5h1.3V93zm-5.8 1.8s.02 4.44 0 4.4h1.7c.4-.1.9-.1 1.4-.2l.1.7c-.3 0-.6.1-.8.1c-.3 0-.5.1-.8.1h-1.8c0 .04-.6 0-.6 0v-5.7h3.4v.6h-2.6zm14.7-1.8h.8v9.2h-.8V93zm-6.1.8h.8v2.4h2.7v-2.4h.8v6.2H347v-6.2zm.8 3.1v2.4h2.7v-2.4h-2.7zm13.6-.7v2.4h-.8v-5.4h.8v2.4h1.1v-2.5h.9v5.6h-.9v-2.5h-1.1zm-1.2-2.1v.7h-4.6v-.7h1.9v-1h.8v1h1.9zm-2.3 4.2c-.3 0-.5 0-.8-.1c-.2 0-.4-.1-.6-.3c-.2-.1-.3-.3-.4-.5c-.1-.2-.1-.4-.1-.6c0-.3 0-.5.1-.7c.1-.2.2-.3.4-.5l.6-.3c.3 0 .5-.1.8-.1c.3 0 .6.1.8.1c.2.1.5.2.6.3c.2.2.3.3.4.5c.1.2.2.4.2.7c0 .2-.1.4-.2.6c-.1.2-.2.4-.4.5c-.1.2-.4.3-.6.3c-.2.1-.5.1-.8.1zm0-2.5c-.4 0-.6.1-.9.3c-.2.2-.3.4-.3.7c0 .3.1.5.3.7c.3.1.5.2.9.2c.4 0 .7-.1.9-.2c.2-.2.3-.4.3-.7c0-.3-.1-.5-.3-.7c-.2-.2-.5-.3-.9-.3zm4.3 3.2s.03.29 0 .3c0 .2.1.4.2.7c0 .2.2.4.3.6c.2.2.4.3.6.5c.2.1.5.3.8.4l-.4.6c-.5-.2-.9-.4-1.2-.7c-.3-.3-.5-.6-.7-1c-.1.4-.3.7-.6 1c-.3.3-.6.6-1.1.8c-.4-.2-.8-.4-1-.7c-.3-.3-.5-.7-.7-1.1c-.1.4-.4.7-.7 1c-.3.3-.7.5-1.1.7l-.4-.6c.3-.1.6-.3.8-.4l.6-.6l.3-.6c.1-.2.1-.4.1-.6c.05-.01 0-.3 0-.3h.9s-.04.29 0 .3c0 .4.1.8.3 1.1c.2.4.5.7.9 1c.2-.2.4-.3.6-.5c.1-.2.3-.3.4-.5c.1-.2.2-.4.2-.6c.1-.2.1-.3.1-.5v-.3h.8zm11.2-2.3v.6h-1.6v4.9h-.8V93h.8v3.7h1.6zm-7.4-2.1s.04 4.61 0 4.6h2.2c.3-.1.7-.1 1-.1c.3-.1.6-.1 1-.2v.7c-.3.1-.6.1-1 .2c-.3 0-.6 0-1 .1h-2.3c.02.03-.7 0-.7 0v-6h4.3v.7H366zm7.9 7v-1h.9v1h-.9z" stroke="none" fill="#111111"/></g><g id="Polygon112741"><path d="m2.6 82.1h3v.8H.5v-.6s2.62-2.5 2.6-2.5l.6-.6c.1-.2.3-.4.4-.6c.1-.1.2-.3.3-.5c0-.2.1-.4.1-.7c0-.4-.2-.7-.4-.9c-.3-.3-.6-.4-1-.4c-.2 0-.4.1-.6.1c-.2.1-.3.2-.5.3c-.1.2-.2.3-.3.5c-.1.2-.1.4-.1.6l-.9-.2c0-.3.1-.6.3-.9c.1-.2.3-.4.5-.6c.2-.2.5-.3.8-.4c.2-.1.5-.2.9-.2c.3 0 .6.1.8.2c.3.1.6.2.8.4c.2.2.3.4.4.6c.2.3.2.6.2.9c0 .3 0 .6-.1.8c-.1.2-.2.5-.3.7c-.2.2-.4.4-.5.6c-.2.2-.4.5-.6.7l-2.1 2c.1 0 .3 0 .4-.1h.4zm9.1-2.9c0 .7-.1 1.2-.2 1.7c-.2.5-.4.9-.6 1.2c-.3.4-.6.6-.9.7c-.3.2-.7.3-1.1.3c-.4 0-.7-.1-1-.3c-.4-.1-.7-.3-.9-.7c-.3-.3-.5-.7-.6-1.2c-.1-.5-.2-1-.2-1.7c0-.7.1-1.2.2-1.7c.1-.5.3-.9.6-1.2c.2-.3.5-.6.9-.7c.3-.2.6-.3 1-.3c.4 0 .8.1 1.1.3c.3.1.6.4.9.7c.2.3.4.7.6 1.2c.1.5.2 1 .2 1.7zm-1 0c0-.6 0-1.1-.1-1.5c-.1-.4-.2-.7-.4-.9c-.2-.3-.4-.4-.6-.5c-.2-.1-.4-.2-.7-.2c-.2 0-.4.1-.6.2c-.3.1-.5.2-.6.5c-.2.2-.3.5-.4.9c-.1.4-.2.9-.2 1.5c0 .6.1 1.1.2 1.5c.1.4.2.7.4.9c.1.3.3.5.6.6c.2.1.4.1.6.1c.3 0 .5 0 .7-.1c.2-.1.4-.3.6-.6c.2-.2.3-.5.4-.9c.1-.4.1-.9.1-1.5zm3.7 2.9h2.9v.8h-5v-.6s2.57-2.5 2.6-2.5c.2-.2.4-.4.5-.6c.2-.2.3-.4.4-.6c.2-.1.3-.3.3-.5c.1-.2.1-.4.1-.7c0-.4-.1-.7-.4-.9c-.2-.3-.6-.4-.9-.4c-.3 0-.5.1-.6.1c-.2.1-.4.2-.5.3c-.1.2-.3.3-.3.5c-.1.2-.1.4-.1.6l-1-.2l.3-.9l.6-.6c.2-.2.4-.3.7-.4c.3-.1.6-.2.9-.2c.3 0 .6.1.9.2c.3.1.5.2.7.4c.2.2.4.4.5.6c.1.3.2.6.2.9c0 .3-.1.6-.2.8c0 .2-.1.5-.3.7c-.1.2-.3.4-.5.6c-.2.2-.4.5-.6.7l-2.1 2c.2 0 .3 0 .4-.1h.5zm7.1.1h1.5v.7h-4v-.7h1.6v-5.7c.02.04-1.3 1.3-1.3 1.3l-.5-.6l2-1.8h.7v6.8zm9.2-.9v-3.1h-2.5v-.7h2.5v-1.1h-2.5v-.7h2.5v-1.1h.9v6.7h-.9zm-1.5-2.4l.1.7c-.7.2-1.4.3-2.1.3c-.6 0-1.3.1-1.9.1c-.03-.03-.7 0-.7 0v-4.8h.8v4.1c.6 0 1.3-.1 1.9-.1c.6-.1 1.2-.1 1.9-.3zm-2.6 3.9h5.2v.7h-6.1v-2.8h.9v2.1zm13.6-8.3h.8v9.2h-.8v-9.2zm-1.8 3.6v-3.4h.8v8.5h-.8v-4.4s-1.17-.02-1.2 0c0 .4-.1.8-.1 1.2c-.1.3-.3.7-.4.9c-.2.3-.4.4-.6.6c-.3.1-.5.2-.8.2c-.3 0-.6-.1-.8-.2c-.3-.2-.5-.4-.6-.7c-.2-.3-.3-.6-.4-1c-.1-.4-.2-.8-.2-1.3c0-.5.1-1 .2-1.3c.1-.4.2-.8.4-1c.1-.3.3-.5.6-.7c.2-.1.5-.2.8-.2c.3 0 .5.1.7.2c.3.1.5.3.6.6c.2.2.3.5.4.8c.1.4.2.8.2 1.2h1.2zm-3.1 2.8c.4 0 .6-.2.9-.6c.2-.5.3-1.1.3-1.8c0-.4-.1-.7-.1-1c-.1-.3-.1-.6-.3-.8c-.1-.2-.2-.3-.3-.5c-.2-.1-.3-.1-.5-.1c-.4 0-.7.2-.9.6c-.2.5-.3 1-.3 1.8c0 .7.1 1.3.3 1.8c.2.4.5.6.9.6zm14.4-3.6v.7h-6.2v-3.1h.8v2.4h5.4zm-7.3 1.9h8.3v.7h-8.3v-.7zm1.9 1.6v2h5.5v.7h-6.3v-2.7h.8zm16-6.3h.8v9.2h-.8v-9.2zm-4 .7c.4 0 .7.1 1 .3c.2.1.5.3.7.6c.2.3.4.6.5 1c.1.4.1.8.1 1.3c0 .5 0 1-.1 1.4c-.1.3-.3.7-.5 1c-.2.2-.5.5-.7.6c-.3.2-.6.2-1 .2c-.3 0-.6 0-.9-.2c-.3-.1-.5-.4-.7-.6c-.3-.3-.4-.7-.5-1c-.1-.4-.2-.9-.2-1.4c0-.5.1-.9.2-1.3c.1-.4.2-.7.5-1c.2-.3.4-.5.7-.6c.3-.2.6-.3.9-.3zm0 .8c-.2 0-.4.1-.6.2c-.2.1-.3.3-.5.5c-.1.2-.2.4-.3.7c-.1.3-.1.7-.1 1c0 .4 0 .7.1 1c.1.3.2.6.3.8c.2.2.3.4.5.5c.2.1.4.2.6.2c.2 0 .5-.1.6-.2c.2-.1.4-.3.5-.5c.2-.2.3-.5.3-.8c.1-.3.1-.6.1-1c0-.3 0-.7-.1-1c0-.3-.1-.5-.3-.7c-.1-.2-.3-.4-.5-.5c-.1-.1-.4-.2-.6-.2zm11.1 3.1h3.7v.6h-8.3v-.6h3.8V78h-2.7v-3h6.2v.6h-5.4v1.7h5.5v.7h-2.8v1.1zm-.4 1.3c1 0 1.7.1 2.3.4c.5.3.8.7.8 1.2c0 .6-.3 1-.8 1.3c-.6.2-1.3.4-2.3.4c-1 0-1.8-.2-2.3-.4c-.6-.3-.9-.7-.9-1.3c0-.5.3-.9.9-1.2c.5-.3 1.3-.4 2.3-.4zm0 2.6c.7 0 1.3 0 1.7-.2c.4-.2.6-.4.6-.8c0-.3-.2-.5-.6-.7c-.4-.2-1-.3-1.7-.3c-.8 0-1.3.1-1.7.3c-.4.2-.6.4-.6.7c0 .4.2.6.6.8c.4.2.9.2 1.7.2zm10.2-7.4v.6H72v-.6h2.2v-1.1h.9v1.1h2.1zm1.5 2.9v-1.1h-1.5v-.7h1.5v-2.2h.9v5.9h-.9v-1.2h-1.5v-.7h1.5zm-2-.1c0 .2 0 .5-.1.7c-.2.2-.3.4-.5.5c-.2.2-.4.3-.6.4c-.3 0-.6.1-.9.1c-.3 0-.6-.1-.8-.1c-.3-.1-.5-.2-.7-.4c-.1-.1-.3-.3-.4-.5c-.1-.2-.1-.5-.1-.7c0-.3 0-.5.1-.7c.1-.2.3-.4.4-.5c.2-.2.4-.3.7-.4c.2-.1.5-.1.8-.1c.3 0 .6 0 .9.1c.2.1.4.2.6.4c.2.1.3.3.5.5c.1.2.1.4.1.7zm-3.4 0c0 .3.2.6.4.8c.2.2.5.2.9.2c.4 0 .7 0 1-.2c.2-.2.3-.5.3-.8c0-.3-.1-.6-.3-.8c-.3-.2-.6-.3-1-.3c-.4 0-.7.1-.9.3c-.2.2-.4.5-.4.8zm3.3 2.2c.9 0 1.6.1 2.2.4c.5.2.8.6.8 1.1c0 .5-.3.9-.8 1.2c-.6.2-1.3.4-2.2.4c-1 0-1.8-.2-2.3-.4c-.5-.3-.8-.7-.8-1.2c0-.5.3-.9.8-1.1c.5-.3 1.3-.4 2.3-.4zm0 2.4c.6 0 1.2 0 1.6-.2c.3-.2.5-.4.5-.7c0-.3-.2-.5-.5-.7c-.4-.1-1-.2-1.6-.2c-.7 0-1.3.1-1.6.2c-.4.2-.6.4-.6.7c0 .3.2.5.6.7c.3.2.9.2 1.6.2zm7.2-.1v-7.4h4.3v.8h-3.4v2.3h2.8v.8h-2.8v2.7h3.5v.8h-4.4zm7.8.2c-.5 0-1-.1-1.4-.3c-.5-.2-.9-.5-1.2-.8l.6-.7c.2.3.6.5.9.7c.4.2.8.2 1.1.2c.5 0 .9-.1 1.2-.3c.3-.2.4-.5.4-.9c0-.2 0-.3-.1-.5c0-.1-.1-.2-.2-.3c-.2-.1-.3-.2-.4-.3c-.2 0-.4-.1-.5-.2l-1.1-.5c-.2-.1-.4-.1-.5-.2c-.2-.2-.4-.3-.5-.4c-.2-.2-.3-.4-.4-.6c-.1-.2-.1-.4-.1-.7c0-.3 0-.5.2-.8c.1-.2.2-.4.4-.6c.2-.2.5-.3.8-.4c.3-.1.6-.2.9-.2c.5 0 .9.1 1.3.3c.3.1.7.4.9.6l-.5.6c-.2-.2-.5-.3-.7-.5c-.3-.1-.6-.2-1-.2c-.4 0-.7.1-1 .3c-.2.2-.4.5-.4.8c0 .2.1.4.1.5c.1.1.2.3.3.3c.1.1.3.2.4.3c.2.1.3.1.5.2l1 .4c.3.1.5.2.6.4c.2.1.4.2.5.4c.2.1.3.3.4.5c0 .2.1.5.1.7c0 .3-.1.6-.2.9c-.1.2-.3.5-.5.7c-.2.1-.5.3-.8.4c-.3.1-.7.2-1.1.2zm5.9 0c-.5 0-1-.1-1.4-.3c-.5-.2-.9-.5-1.2-.8l.6-.7c.2.3.5.5.9.7c.4.2.7.2 1.1.2c.5 0 .9-.1 1.2-.3c.3-.2.4-.5.4-.9c0-.2 0-.3-.1-.5c-.1-.1-.1-.2-.3-.3c-.1-.1-.2-.2-.4-.3c-.1 0-.3-.1-.4-.2l-1.1-.5c-.2-.1-.4-.1-.5-.2c-.2-.2-.4-.3-.5-.4c-.2-.2-.3-.4-.4-.6c-.1-.2-.1-.4-.1-.7c0-.3 0-.5.1-.8c.2-.2.3-.4.5-.6c.2-.2.5-.3.8-.4c.3-.1.6-.2.9-.2c.5 0 .9.1 1.3.3c.3.1.7.4.9.6l-.5.6c-.2-.2-.5-.3-.7-.5c-.3-.1-.6-.2-1-.2c-.4 0-.8.1-1 .3c-.3.2-.4.5-.4.8c0 .2.1.4.1.5c.1.1.2.3.3.3c.1.1.3.2.4.3c.2.1.3.1.5.2l1 .4c.2.1.4.2.6.4c.2.1.4.2.5.4c.2.1.3.3.3.5c.1.2.2.5.2.7c0 .3-.1.6-.2.9c-.1.2-.3.5-.5.7c-.2.1-.5.3-.8.4c-.3.1-.7.2-1.1.2zm5.8 1l-.6.3c-.4-.8-.8-1.6-1.1-2.4c-.2-.8-.4-1.8-.4-2.8c0-1 .2-1.9.4-2.8c.3-.8.7-1.6 1.1-2.4l.6.3c-.4.7-.8 1.5-1 2.3c-.2.9-.3 1.7-.3 2.6c0 .9.1 1.8.3 2.6c.2.8.6 1.6 1 2.3zm1.3-1.2v-7.4h4.3v.8h-3.4v2.3h2.9v.8h-2.9v2.7h3.5v.8h-4.4zm5.7 0v-5.5h.7l.1.8h.1c.2-.3.5-.5.8-.7c.3-.2.6-.2 1-.2c.6 0 1 .1 1.3.5c.3.4.4.9.4 1.6v3.5h-.9s-.02-3.35 0-3.4c0-.5-.1-.9-.3-1.1c-.1-.2-.4-.3-.8-.3c-.3 0-.5 0-.7.2c-.3.1-.5.3-.8.6v4h-.9zm8.2.2c-.3 0-.7-.1-1-.2c-.3-.2-.6-.3-.8-.6c-.3-.2-.5-.5-.6-.9c-.1-.4-.2-.8-.2-1.2c0-.5.1-.9.2-1.2c.1-.4.3-.7.6-1c.2-.2.5-.4.8-.5c.3-.2.6-.2.9-.2c.3 0 .7 0 .9.1c.3.2.5.3.7.6c.2.2.3.5.4.8c.1.3.2.7.2 1.1v.5h-3.8c.1.6.2 1.1.6 1.4c.3.3.7.5 1.3.5c.2 0 .5 0 .7-.1l.6-.3l.4.6c-.3.2-.5.3-.8.4c-.3.1-.7.2-1.1.2zm-1.7-3.4h3c0-.6-.1-1-.4-1.3c-.2-.3-.6-.4-1-.4c-.2 0-.4 0-.6.1c-.1.1-.3.2-.5.4c-.1.1-.2.3-.3.5c-.1.2-.2.5-.2.7zm5 3.2v-5.5h.7l.1 1s.03.01 0 0c.2-.3.5-.6.7-.8c.3-.2.6-.3.9-.3h.3c.1 0 .2 0 .3.1l-.2.8c-.1 0-.2-.1-.2-.1h-.3c-.1 0-.2 0-.4.1c-.1 0-.2.1-.4.2c-.1.1-.2.2-.3.4c-.1.1-.2.3-.3.6c-.02-.02 0 3.5 0 3.5h-.9zm5.6 2.6c-.4 0-.7 0-1-.1c-.2-.1-.5-.2-.7-.3c-.2-.1-.3-.3-.5-.5c-.1-.2-.1-.4-.1-.6c0-.2.1-.5.2-.7c.1-.2.3-.4.6-.6c-.1-.1-.3-.2-.4-.4c-.1-.1-.1-.3-.1-.5c0-.2.1-.4.2-.6c.1-.2.3-.3.4-.4v-.1c-.2-.1-.3-.3-.5-.6c-.1-.2-.2-.5-.2-.9c0-.3.1-.5.2-.8c.1-.2.2-.4.4-.6c.2-.2.4-.3.7-.4c.2-.1.5-.1.8-.1h.4c.1 0 .3.1.4.1h1.9v.7h-1.2c.2.1.3.3.4.5c.1.2.1.4.1.7c0 .2-.1.5-.2.7c-.1.3-.2.5-.4.7c-.2.1-.4.3-.6.3c-.3.1-.5.2-.8.2c-.3 0-.6-.1-.8-.2c-.2.1-.2.2-.3.3c-.1.1-.1.2-.1.3c0 .2.1.4.2.5c.1.1.4.2.8.2h1c.7 0 1.2.1 1.5.3c.3.2.5.5.5 1c0 .2-.1.5-.2.7c-.2.2-.3.4-.6.6c-.2.2-.5.3-.9.4c-.3.1-.7.2-1.1.2zm0-5h.4c.2-.1.3-.2.4-.3c.1-.1.2-.3.3-.4v-.6c0-.4-.1-.7-.3-.9c-.2-.2-.5-.4-.8-.4c-.4 0-.6.2-.9.4c-.2.2-.3.5-.3.9c0 .2 0 .4.1.6c.1.1.1.3.2.4c.2.1.3.2.4.3h.5zm.1 4.4c.3 0 .5-.1.7-.1c.3-.1.4-.2.6-.3c.1-.1.3-.2.3-.4c.1-.1.2-.2.2-.4c0-.2-.1-.4-.3-.5c-.2-.1-.5-.2-.9-.2h-1.3c-.1 0-.2 0-.3-.1c-.2.2-.4.3-.5.5c-.1.1-.1.3-.1.5c0 .3.1.5.4.7c.3.2.7.3 1.2.3zm5 .4h-.9l.9-2.4l-2.2-5.5h.9s1.15 3.02 1.2 3c0 .3.1.5.2.8c.1.3.2.5.3.8c.1-.3.2-.5.3-.8c.1-.3.1-.5.2-.8l1-3h.9l-2.8 7.9zm7.9-2.2c-.5 0-1-.1-1.5-.3c-.4-.2-.8-.5-1.1-.8l.5-.7c.3.3.6.5 1 .7c.3.2.7.2 1.1.2c.5 0 .9-.1 1.2-.3c.2-.2.4-.5.4-.9c0-.2 0-.3-.1-.5l-.3-.3c-.1-.1-.2-.2-.4-.3c-.1 0-.3-.1-.5-.2l-1-.5c-.2-.1-.4-.1-.6-.2c-.1-.2-.3-.3-.5-.4l-.3-.6c-.1-.2-.2-.4-.2-.7c0-.3.1-.5.2-.8c.1-.2.3-.4.5-.6c.2-.2.5-.3.7-.4c.3-.1.7-.2 1-.2c.4 0 .9.1 1.2.3c.4.1.7.4 1 .6l-.5.6c-.2-.2-.5-.3-.8-.5c-.2-.1-.6-.2-.9-.2c-.4 0-.8.1-1 .3c-.3.2-.4.5-.4.8c0 .2 0 .4.1.5c.1.1.2.3.3.3c.1.1.2.2.4.3c.1.1.3.1.4.2l1.1.4c.2.1.4.2.6.4c.2.1.4.2.5.4c.1.1.2.3.3.5c.1.2.1.5.1.7c0 .3 0 .6-.1.9c-.2.2-.3.5-.5.7c-.3.1-.5.3-.8.4c-.4.1-.7.2-1.1.2zm5.5 0c-.3 0-.6-.1-.8-.2c-.2-.1-.3-.2-.5-.3c-.1-.2-.2-.4-.2-.6c-.1-.2-.1-.5-.1-.8v-3h-.8v-.8h.8l.1-1.6h.8v1.6h1.5v.8h-1.5s.02 3.04 0 3c0 .4.1.7.2.8c.1.2.3.3.7.3h.3c.1-.1.2-.1.3-.1l.2.7c-.2 0-.3.1-.5.1c-.2 0-.4.1-.5.1zm4 0c-.3 0-.6-.1-1-.2c-.3-.2-.5-.3-.8-.6c-.2-.2-.4-.5-.5-.9c-.2-.4-.3-.8-.3-1.2c0-.5.1-.9.3-1.3c.1-.3.3-.6.5-.9c.3-.2.5-.4.8-.6c.4-.1.7-.1 1-.1c.4 0 .7 0 1 .1c.3.2.6.4.8.6c.3.3.4.6.6.9c.1.4.2.8.2 1.3c0 .4-.1.8-.2 1.2c-.2.4-.3.7-.6.9c-.2.3-.5.4-.8.6c-.3.1-.6.2-1 .2zm0-.8c.3 0 .5-.1.7-.2c.2-.1.3-.2.5-.4c.1-.2.2-.4.3-.7c.1-.2.1-.5.1-.8c0-.3 0-.6-.1-.9c-.1-.3-.2-.5-.3-.7c-.2-.2-.3-.3-.5-.4c-.2-.1-.4-.2-.7-.2c-.2 0-.4.1-.6.2c-.2.1-.4.2-.5.4c-.2.2-.3.4-.4.7c0 .3-.1.6-.1.9c0 .3.1.6.1.8c.1.3.2.5.4.7c.1.2.3.3.5.4c.2.1.4.2.6.2zm3.8.6v-5.5h.8l.1 1s.02.01 0 0c.2-.3.4-.6.7-.8c.3-.2.6-.3.9-.3h.3c.1 0 .2 0 .3.1l-.2.8c-.1 0-.2-.1-.2-.1h-.3c-.1 0-.3 0-.4.1c-.1 0-.2.1-.4.2c-.1.1-.2.2-.3.4c-.1.1-.2.3-.3.6c-.03-.02 0 3.5 0 3.5h-1zm5.1.2c-.3 0-.5-.1-.7-.1c-.2-.1-.3-.2-.5-.4c-.1-.1-.2-.3-.3-.5c-.1-.2-.2-.4-.2-.7c0-.7.3-1.2.9-1.5c.6-.3 1.5-.5 2.6-.5c0-.2-.1-.3-.1-.5c0-.2-.1-.3-.2-.4c-.1-.2-.2-.3-.3-.4c-.2 0-.4-.1-.6-.1c-.3 0-.6.1-.9.2c-.3.1-.6.2-.8.4l-.4-.7c.3-.2.6-.3 1-.4c.4-.2.8-.2 1.3-.2c.3 0 .6 0 .8.1c.3.1.5.3.6.5c.2.2.3.4.4.7c0 .3.1.6.1.9c-.02.03 0 3.4 0 3.4h-.8l-.1-.6s.01.04 0 0c-.3.3-.5.4-.9.6c-.3.1-.6.2-.9.2zm.2-.8c.3 0 .6 0 .8-.1c.2-.1.5-.3.8-.5V80c-.5.1-.9.1-1.3.2c-.3.1-.5.1-.7.2c-.2.1-.4.3-.4.4c-.1.2-.1.4-.1.6c0 .3 0 .5.2.7c.2.1.4.2.7.2zm5.9 3.2c-.3 0-.6 0-.9-.1c-.3-.1-.5-.2-.7-.3c-.2-.1-.4-.3-.5-.5c-.1-.2-.2-.4-.2-.6c0-.2.1-.5.2-.7l.6-.6c-.1-.1-.2-.2-.3-.4c-.1-.1-.2-.3-.2-.5c0-.2.1-.4.2-.6c.2-.2.3-.3.5-.4v-.1c-.2-.1-.4-.3-.5-.6c-.2-.2-.3-.5-.3-.9c0-.3.1-.5.2-.8c.1-.2.3-.4.5-.6c.1-.2.4-.3.6-.4c.3-.1.5-.1.8-.1h.4c.2 0 .3.1.4.1h1.9v.7s-1.12.01-1.1 0c.1.1.2.3.3.5c.1.2.1.4.1.7c0 .2 0 .5-.1.7c-.1.3-.3.5-.5.7c-.1.1-.4.3-.6.3c-.2.1-.5.2-.8.2c-.3 0-.6-.1-.8-.2l-.3.3c0 .1-.1.2-.1.3c0 .2.1.4.2.5c.2.1.4.2.8.2h1.1c.6 0 1.1.1 1.4.3c.3.2.5.5.5 1c0 .2-.1.5-.2.7c-.1.2-.3.4-.5.6c-.3.2-.6.3-.9.4c-.4.1-.8.2-1.2.2zm0-5h.5l.3-.3c.1-.1.2-.3.3-.4c.1-.2.1-.4.1-.6c0-.4-.1-.7-.4-.9c-.2-.2-.5-.4-.8-.4c-.3 0-.6.2-.8.4c-.3.2-.4.5-.4.9c0 .2.1.4.1.6c.1.1.2.3.3.4c.1.1.2.2.4.3h.4zm.1 4.4c.3 0 .6-.1.8-.1c.2-.1.4-.2.5-.3c.2-.1.3-.2.4-.4c.1-.1.1-.2.1-.4c0-.2-.1-.4-.3-.5c-.2-.1-.5-.2-.8-.2h-1.3c-.1 0-.3 0-.4-.1c-.2.2-.3.3-.4.5c-.1.1-.2.3-.2.5c0 .3.2.5.5.7c.2.2.6.3 1.1.3zm5.8-1.8c-.4 0-.7-.1-1-.2c-.3-.2-.6-.3-.9-.6c-.2-.2-.4-.5-.5-.9c-.2-.4-.2-.8-.2-1.2c0-.5 0-.9.2-1.2c.1-.4.3-.7.5-1c.3-.2.5-.4.8-.5c.3-.2.6-.2 1-.2c.3 0 .6 0 .9.1c.3.2.5.3.7.6c.2.2.3.5.4.8c.1.3.2.7.2 1.1v.2c0 .1-.1.2-.1.3h-3.7c0 .6.2 1.1.5 1.4c.4.3.8.5 1.3.5c.3 0 .5 0 .8-.1l.6-.3l.4.6c-.3.2-.6.3-.9.4c-.3.1-.6.2-1 .2zm-1.7-3.4h3c0-.6-.2-1-.4-1.3c-.3-.3-.6-.4-1-.4c-.2 0-.4 0-.6.1c-.2.1-.3.2-.5.4c-.1.1-.2.3-.3.5c-.1.2-.2.5-.2.7zm9.2 3.4c-.6 0-1-.1-1.5-.3c-.4-.2-.8-.5-1.1-.8l.5-.7c.3.3.6.5 1 .7c.3.2.7.2 1.1.2c.5 0 .9-.1 1.1-.3c.3-.2.5-.5.5-.9c0-.2-.1-.3-.1-.5l-.3-.3c-.1-.1-.3-.2-.4-.3c-.2 0-.3-.1-.5-.2l-1.1-.5c-.1-.1-.3-.1-.5-.2c-.2-.2-.3-.3-.5-.4c-.1-.2-.3-.4-.3-.6c-.1-.2-.2-.4-.2-.7c0-.3.1-.5.2-.8c.1-.2.3-.4.5-.6c.2-.2.4-.3.7-.4c.3-.1.6-.2 1-.2c.4 0 .8.1 1.2.3c.4.1.7.4 1 .6l-.5.6c-.3-.2-.5-.3-.8-.5c-.3-.1-.6-.2-.9-.2c-.5 0-.8.1-1.1.3c-.2.2-.3.5-.3.8c0 .2 0 .4.1.5c.1.1.1.3.3.3c.1.1.2.2.4.3c.1.1.3.1.4.2l1.1.4c.2.1.4.2.6.4c.2.1.3.2.5.4c.1.1.2.3.3.5c.1.2.1.5.1.7c0 .3 0 .6-.2.9c-.1.2-.3.5-.5.7c-.2.1-.5.3-.8.4c-.3.1-.6.2-1 .2zm5.1 2.2h-.8l.8-2.4l-2.2-5.5h1l1.1 3c.1.3.2.5.3.8c.1.3.1.5.2.8h.1c.1-.3.1-.5.2-.8c.1-.3.2-.5.3-.8c-.05.02.9-3 .9-3h.9l-2.8 7.9zm5.2-2.2c-.4 0-.8-.1-1.2-.3c-.3-.1-.7-.3-.9-.5l.4-.6c.3.2.5.3.8.5c.3.1.6.1.9.1c.4 0 .6 0 .8-.2c.2-.2.3-.4.3-.6c0-.2-.1-.3-.1-.4l-.3-.3c-.1 0-.3-.1-.4-.2c-.2 0-.3-.1-.5-.2c-.2 0-.4-.1-.6-.2c-.2-.1-.3-.2-.5-.3c-.2-.2-.3-.3-.4-.5c-.1-.1-.1-.3-.1-.6c0-.2 0-.4.1-.6c.1-.2.2-.3.4-.5c.1-.1.3-.2.6-.3c.2-.1.5-.1.8-.1c.3 0 .6 0 .9.1c.3.2.6.3.8.5l-.5.6c-.2-.2-.4-.3-.6-.4c-.2-.1-.4-.1-.6-.1c-.4 0-.6.1-.8.2c-.2.2-.2.4-.2.6c0 .1 0 .2.1.3c0 .1.1.2.2.3c.1 0 .3.1.4.2c.2 0 .3.1.5.1l.6.3c.2.1.4.2.5.3c.2.1.3.3.4.5c.1.1.2.4.2.6c0 .2-.1.5-.2.7c0 .2-.2.3-.3.5c-.2.1-.4.2-.7.3c-.2.1-.5.2-.8.2zm4.8 0c-.3 0-.5-.1-.7-.2c-.2-.1-.4-.2-.5-.3l-.3-.6c0-.2-.1-.5-.1-.8c.04.02 0-3 0-3h-.8v-.8h.9l.1-1.6h.8v1.6h1.5v.8h-1.5s-.03 3.04 0 3c0 .4 0 .7.2.8c.1.2.3.3.6.3h.3c.2-.1.3-.1.4-.1l.1.7c-.1 0-.3.1-.5.1c-.1 0-.3.1-.5.1zm4.2 0c-.4 0-.8-.1-1.1-.2c-.3-.2-.6-.3-.8-.6c-.3-.2-.5-.5-.6-.9c-.1-.4-.2-.8-.2-1.2c0-.5.1-.9.2-1.2c.1-.4.3-.7.6-1c.2-.2.5-.4.8-.5c.3-.2.6-.2.9-.2c.4 0 .7 0 .9.1c.3.2.5.3.7.6c.2.2.4.5.5.8c.1.3.1.7.1 1.1v.5h-3.8c.1.6.2 1.1.6 1.4c.3.3.7.5 1.3.5c.2 0 .5 0 .7-.1c.2-.1.4-.2.7-.3l.3.6c-.3.2-.5.3-.8.4c-.3.1-.7.2-1 .2zm-1.8-3.4h3c0-.6-.1-1-.4-1.3c-.2-.3-.6-.4-1-.4c-.2 0-.4 0-.6.1c-.1.1-.3.2-.4.4c-.2.1-.3.3-.4.5c-.1.2-.2.5-.2.7zm5 3.2v-5.5h.7l.1.8s.04 0 0 0c.3-.3.5-.5.8-.7c.3-.2.6-.2 1-.2c.4 0 .7 0 1 .2c.2.2.4.5.5.8c.3-.3.6-.6.9-.8c.3-.1.6-.2.9-.2c.6 0 1 .1 1.3.5c.3.4.4.9.4 1.6v3.5h-.9s-.02-3.35 0-3.4c0-.5-.1-.9-.3-1.1c-.1-.2-.4-.3-.8-.3c-.4 0-.8.3-1.4.8c.05.02 0 4 0 4h-.9s.02-3.35 0-3.4c0-.5-.1-.9-.2-1.1c-.2-.2-.5-.3-.8-.3c-.4 0-.9.3-1.4.8v4h-.9zm9.3 1.4l-.6-.2c.5-.8.8-1.6 1-2.4c.2-.8.3-1.7.3-2.5c0-.9-.1-1.8-.3-2.6c-.2-.8-.5-1.6-1-2.4l.6-.2c.5.7.8 1.5 1.1 2.4c.3.8.4 1.7.4 2.8c0 1-.1 1.9-.4 2.7c-.3.9-.6 1.7-1.1 2.4zm13.4-6v.6H222v4.8h-.9v-9.1h.9v3.7h1.5zm-5.5-3v1.7c0 .4.1.8.2 1.2c.1.4.3.7.5 1.1c.2.3.4.7.7.9c.3.3.6.5.9.7l-.5.7c-.5-.3-.9-.7-1.3-1.2c-.4-.5-.7-1-.9-1.7c-.2.7-.5 1.3-.9 1.8c-.4.5-.9 1-1.4 1.2l-.5-.6c.3-.2.7-.4.9-.7c.3-.3.6-.6.8-1c.2-.4.4-.8.5-1.2c.1-.4.2-.8.2-1.2c-.02-.02 0-1.7 0-1.7h.8zm12.8-.7h.8v4.9h-.8v-2.1h-1.9c0 .6-.3 1-.7 1.3c-.4.3-1 .5-1.6.5c-.3 0-.6 0-.9-.2c-.3-.1-.6-.2-.8-.4c-.2-.2-.3-.4-.5-.7c-.1-.2-.1-.5-.1-.8c0-.3 0-.6.1-.9c.2-.2.3-.5.5-.6c.2-.2.5-.4.8-.5c.3-.1.6-.1.9-.1c.3 0 .6 0 .9.1c.2.1.5.2.7.4c.2.1.3.3.5.5c.1.2.2.5.2.7c.04.02 1.9 0 1.9 0v-2.1zm-4.2 3.9c.2 0 .4 0 .6-.1c.2-.1.4-.2.5-.3c.2-.1.3-.3.4-.4c0-.2.1-.4.1-.6c0-.2-.1-.4-.1-.6c-.1-.2-.2-.3-.4-.4c-.1-.2-.3-.3-.5-.3c-.2-.1-.4-.1-.6-.1c-.2 0-.4 0-.6.1c-.2 0-.4.1-.5.3c-.1.1-.3.2-.3.4c-.1.2-.2.4-.2.6c0 .2.1.4.2.6c0 .1.2.3.3.4c.1.1.3.2.5.3c.2.1.4.1.6.1zm4.2 2.6v-1.2h.8v3.7h-5.8v-3.7h.8v1.2h4.2zm0 1.8v-1.2h-4.2v1.2h4.2zm9.4-8.4h.9v9.2h-.9v-4.8H239v4.3h-.8v-8.4h.8v3.4h1.2v-3.7zm-6.6 1.2s3.61.02 3.6 0c0 .6 0 1.2-.2 1.8c-.1.5-.3 1-.5 1.6c-.3.5-.6 1-1.1 1.4c-.4.5-1 .9-1.6 1.2l-.5-.6c.5-.3 1-.6 1.3-.9c.4-.4.7-.8 1-1.2c.2-.4.4-.8.5-1.2c.2-.5.2-.9.3-1.4h-2.8v-.7zm16 .8h1.3v.7h-1.3v2.1h-.9v-4.7h.9v1.9zm-2.5-1.6v4h-4.3v-4h.9v1.3h2.6v-1.3h.8zm-.8 3.3v-1.3h-2.6v1.3h2.6zm-1.7 3.7v1h5.3v.7h-6.1v-2.3h4.9v-.9h-4.9v-.7h5.8v2.2h-5zm15.8-7.3h.9v4.9h-.9v-2.1s-1.83.01-1.8 0c-.1.6-.4 1-.8 1.3c-.4.3-.9.5-1.6.5c-.3 0-.6 0-.9-.2c-.3-.1-.5-.2-.8-.4c-.2-.2-.3-.4-.4-.7c-.2-.2-.2-.5-.2-.8c0-.3 0-.6.2-.9c.1-.2.2-.5.4-.6c.3-.2.5-.4.8-.5c.3-.1.6-.1.9-.1c.3 0 .6 0 .9.1c.3.1.5.2.7.4c.2.1.4.3.5.5c.1.2.2.5.3.7c-.04.02 1.8 0 1.8 0v-2.1zm-4.2 3.9c.3 0 .5 0 .7-.1c.2-.1.3-.2.5-.3c.1-.1.2-.3.3-.4c.1-.2.1-.4.1-.6c0-.2 0-.4-.1-.6c-.1-.2-.2-.3-.3-.4c-.2-.2-.3-.3-.5-.3c-.2-.1-.4-.1-.7-.1c-.2 0-.4 0-.6.1c-.2 0-.4.1-.5.3c-.1.1-.2.2-.3.4c-.1.2-.1.4-.1.6c0 .2 0 .4.1.6c.1.1.2.3.3.4c.1.1.3.2.5.3c.2.1.4.1.6.1zm4.2 2.6v-1.2h.9v3.7h-5.9v-3.7h.8v1.2h4.2zm0 1.8v-1.2h-4.2v1.2h4.2zm9.7-7.8v3.5H264v-3.5h6.1zm-.8 2.8v-2.2h-4.5v2.2h4.5zm1.9 2v.6h-3.7v3.2h-.9v-3.2h-3.7v-.6h8.3zm6-4.4v.6h-5.1v-.6h2.2v-1.1h.8v1.1h2.1zm1.6-.9h.8v5.3h-.8v-.8h-1.6v-.6h1.6v-1.1h-1.6v-.7h1.6v-2.1zm-2 3.6c0 .3-.1.5-.2.7c-.1.2-.2.4-.4.5c-.2.2-.4.3-.7.4c-.2 0-.5.1-.8.1c-.3 0-.6-.1-.8-.1c-.3-.1-.5-.2-.7-.4c-.2-.1-.3-.3-.4-.5c-.1-.2-.2-.4-.2-.7c0-.2.1-.4.2-.6c.1-.2.2-.4.4-.6c.2-.1.4-.2.7-.3c.2-.1.5-.1.8-.1c.3 0 .6 0 .8.1c.3.1.5.2.7.3c.2.2.3.4.4.6c.1.2.2.4.2.6zm-3.4 0c0 .3.1.6.4.8c.2.2.5.2.9.2c.4 0 .7 0 .9-.2c.3-.2.4-.5.4-.8c0-.3-.1-.5-.4-.7c-.2-.2-.5-.3-.9-.3c-.4 0-.7.1-.9.3c-.3.2-.4.4-.4.7zm5.4 3.1v-.9h.8v3.2h-5.9v-3.2h.8v.9h4.3zm0 1.6v-1h-4.3v1h4.3zm10.9-6.3h-1.3v1.3h1.3v.7h-1.3v1.4h-.9v-5.4h.9v1.3h1.3v.7zm-3.5.7c0 .3 0 .6-.2.8c-.1.3-.2.5-.5.7c-.2.2-.4.4-.7.5c-.3.1-.6.1-1 .1c-.3 0-.6 0-.9-.1c-.3-.1-.6-.3-.8-.5c-.2-.2-.4-.4-.5-.7c-.1-.2-.2-.5-.2-.8c0-.4.1-.7.2-.9c.1-.3.3-.5.5-.7c.2-.2.5-.3.8-.5c.3-.1.6-.1.9-.1c.4 0 .7 0 1 .1c.3.2.5.3.7.5c.3.2.4.4.5.7c.2.2.2.5.2.9zm-3.9 0c0 .2 0 .4.1.5c.1.2.2.4.3.5c.1.1.3.2.5.3c.2.1.4.1.6.1c.3 0 .5 0 .7-.1c.2-.1.3-.2.5-.3c.1-.1.2-.3.3-.5c.1-.1.1-.3.1-.5c0-.3 0-.5-.1-.6c-.1-.2-.2-.4-.3-.5c-.2-.1-.3-.2-.5-.3c-.2-.1-.4-.1-.7-.1c-.2 0-.4 0-.6.1c-.2.1-.4.2-.5.3c-.1.1-.2.3-.3.5c-.1.1-.1.3-.1.6zm.1 3.8v-.7h6v3.3h-.9v-2.6h-5.1zm12.2-3.2c-1 0-1.8-.2-2.4-.4c-.5-.3-.8-.7-.8-1.2c0-.5.3-.9.8-1.2c.6-.3 1.4-.4 2.4-.4c1 0 1.8.1 2.3.4c.6.3.9.7.9 1.2c0 .5-.3.9-.9 1.2c-.5.2-1.3.4-2.3.4zm0-2.6c-.8 0-1.4.1-1.8.3c-.4.1-.6.4-.6.7c0 .3.2.5.6.7c.4.2 1 .2 1.8.2c.7 0 1.3 0 1.7-.2c.4-.2.6-.4.6-.7c0-.3-.2-.6-.6-.7c-.4-.2-1-.3-1.7-.3zm-4.2 3.2h8.3v.7h-8.3v-.7zm1.9 3.5v.9h5.6v.7h-6.4v-2.2h5.3v-.8h-5.4v-.7h6.3v2.1h-5.4zm16.9-7.4v6.6h-.8v-6.6h.8zm-1.9 4.7l-.4.6c-.5-.1-1-.4-1.4-.8c-.4-.3-.7-.8-.9-1.2c-.2.5-.5.9-.9 1.3c-.4.4-.9.7-1.4.9l-.5-.6c.4-.2.7-.3 1-.5c.3-.2.5-.5.7-.7c.2-.3.4-.6.5-.9c.1-.3.2-.6.2-.9c-.05-.02 0-.5 0-.5h-2.1v-.7h5v.7H305v.5c0 .3.1.6.2.9c.1.3.2.5.4.8c.3.2.5.4.8.6c.3.2.6.4.9.5zm-3.1 3.5h5.3v.7h-6.2v-2.9h.9v2.2zm12.4-5.1v2.3h-.8v-5.3h.8v2.3h1.2v-2.5h.8v5.8h-.8v-2.6h-1.2zm-1.1-2.1v.7h-4.7v-.7h2v-1h.8v1h1.9zm-.4 2.7c0 .3 0 .5-.1.7c-.1.2-.2.3-.4.5l-.6.3c-.3.1-.5.1-.8.1c-.3 0-.6 0-.8-.1c-.3-.1-.5-.2-.6-.3c-.2-.2-.3-.3-.4-.5c-.1-.2-.2-.4-.2-.7c0-.2.1-.4.2-.6c.1-.2.2-.4.4-.5c.1-.1.3-.2.6-.3c.2-.1.5-.1.8-.1c.3 0 .5 0 .8.1l.6.3c.2.1.3.3.4.5c.1.2.1.4.1.6zm-3.1 0c0 .3.1.6.3.7c.2.2.5.3.9.3c.3 0 .6-.1.9-.3c.2-.1.3-.4.3-.7c0-.3-.1-.5-.3-.6c-.3-.2-.6-.3-.9-.3c-.4 0-.7.1-.9.3c-.2.1-.3.3-.3.6zm3.6 2.2c1 0 1.7.1 2.2.4c.6.3.9.7.9 1.2c0 .5-.3.9-.9 1.2c-.5.2-1.2.4-2.2.4c-.9 0-1.7-.2-2.2-.4c-.6-.3-.9-.7-.9-1.2c0-.5.3-.9.9-1.2c.5-.3 1.3-.4 2.2-.4zm0 2.5c.7 0 1.3 0 1.6-.2c.4-.2.6-.4.6-.7c0-.3-.2-.6-.6-.7c-.3-.2-.9-.3-1.6-.3c-.7 0-1.2.1-1.6.3c-.4.1-.6.4-.6.7c0 .3.2.5.6.7c.4.2.9.2 1.6.2zm4.1.7l.4-2.1h.9l-.6 2.1h-.7zm10.6-7.2c.04-.03 0-.4 0-.4h-5.6v-.6h6.5s-.02.97 0 1v.9c0 .3 0 .6-.1.9c0 .3 0 .7-.1 1c0 .4-.1.8-.1 1.2l-.9-.1c.2-.7.2-1.3.3-1.9v-2zm-1.3 5.2h3.1v.7h-8.2v-.7h2v-3h.8v3h1.5v-3h.8v3zm8.6-2.3h3.7v.7H333v-.7h3.8v-.9h-2.7v-3.7h6.2v.7H335v.8h5.1v.6H335v.9h5.4v.7h-2.8v.9zm-.4 1.4c1 0 1.8.1 2.3.3c.6.3.8.6.8 1.1c0 .5-.2.9-.8 1.1c-.5.3-1.3.4-2.3.4c-1 0-1.8-.1-2.3-.4c-.6-.2-.8-.6-.8-1.1c0-.5.2-.8.8-1.1c.5-.2 1.3-.3 2.3-.3zm0 2.2c.7 0 1.3 0 1.7-.2c.4-.1.6-.3.6-.6c0-.3-.2-.5-.6-.6c-.4-.2-1-.2-1.7-.2c-.8 0-1.3 0-1.7.2c-.4.1-.6.3-.6.6c0 .3.2.5.6.6c.4.2.9.2 1.7.2zm13.5-6.4h-1.4v1.3h1.4v.7h-1.4v1.4h-.8v-5.4h.8v1.3h1.4v.7zm-3.5.7c0 .3-.1.6-.2.8c-.1.3-.3.5-.5.7c-.2.2-.5.4-.7.5c-.3.1-.7.1-1 .1c-.3 0-.7 0-1-.1c-.3-.1-.5-.3-.7-.5c-.2-.2-.4-.4-.5-.7c-.1-.2-.2-.5-.2-.8c0-.4.1-.7.2-.9c.1-.3.3-.5.5-.7c.2-.2.4-.3.7-.5c.3-.1.7-.1 1-.1c.3 0 .7 0 1 .1c.2.2.5.3.7.5c.2.2.4.4.5.7c.1.2.2.5.2.9zm-4 0c0 .2.1.4.1.5c.1.2.2.4.4.5c.1.1.3.2.5.3c.2.1.4.1.6.1c.2 0 .4 0 .6-.1c.2-.1.4-.2.5-.3c.2-.1.3-.3.4-.5c0-.1.1-.3.1-.5c0-.3-.1-.5-.1-.6c-.1-.2-.2-.4-.4-.5c-.1-.1-.3-.2-.5-.3c-.2-.1-.4-.1-.6-.1c-.2 0-.4 0-.6.1c-.2.1-.4.2-.5.3c-.2.1-.3.3-.4.5c0 .1-.1.3-.1.6zm.2 3.8v-.7h5.9v3.3h-.8v-2.6h-5.1zm16.6-2.9v.7h-1.5v4.8h-.9v-9.1h.9v3.6h1.5zm-5.5-2v1.1c0 .4.1.8.2 1.1c.1.4.3.8.5 1.1c.2.3.5.6.7.9c.3.3.6.5 1 .6l-.5.7c-.5-.2-1-.6-1.4-1.1c-.4-.5-.7-1.1-.9-1.7c-.1.3-.2.7-.4 1c-.2.3-.3.6-.5.8l-.7.7c-.2.2-.5.4-.7.5l-.5-.6c.3-.2.6-.4.9-.7c.3-.3.5-.6.8-1c.2-.3.3-.7.5-1.1c.1-.4.2-.8.2-1.2c-.03.04 0-1.1 0-1.1h-2.1v-.7h4.9v.7h-2zm12.3 2.9h2.1v.6h-8.3v-.6h2s.04-1.32 0-1.3c-.7-.3-1.1-.8-1.1-1.4c0-.3.1-.5.2-.7c.2-.2.4-.4.7-.5c.3-.2.6-.3 1-.4c.4-.1.8-.1 1.3-.1c.5 0 1 0 1.4.1c.4.1.7.2 1 .4c.3.1.5.3.6.5c.2.2.2.4.2.7c0 .3-.1.6-.2.8c-.2.2-.5.4-.9.6c.03-.03 0 1.3 0 1.3zm-4.4-2.7c0 .3.2.6.6.8c.4.2 1 .3 1.7.3c.8 0 1.3-.1 1.8-.3c.4-.2.6-.5.6-.8c0-.3-.2-.6-.6-.8c-.5-.2-1-.2-1.8-.2c-.7 0-1.3 0-1.7.2c-.4.2-.6.5-.6.8zm1.1 1.6c-.04 0 0 1.1 0 1.1h2.5V78c-.2 0-.4.1-.6.1h-1.3c-.2 0-.4-.1-.6-.1zm1.2 2.4c1 0 1.8.2 2.3.4c.6.3.9.7.9 1.3c0 .5-.3.9-.9 1.2c-.5.2-1.3.4-2.3.4c-1 0-1.7-.2-2.3-.4c-.5-.3-.8-.7-.8-1.2c0-.6.3-1 .8-1.3c.6-.2 1.3-.4 2.3-.4zm0 2.6c.7 0 1.3 0 1.7-.2c.4-.2.6-.4.6-.7c0-.4-.2-.6-.6-.8c-.4-.1-1-.2-1.7-.2c-.7 0-1.3.1-1.7.2c-.4.2-.6.4-.6.8c0 .3.2.5.6.7c.4.2 1 .2 1.7.2z" stroke="none" fill="#111111"/></g><g id="Polygon112740"><path d="m5.1 63.3h3.7v.7H.5v-.7h3.8v-1.9H1.5v-4.7h.8v1.6h4.7v-1.6h.8v4.7H5.1v1.9zM2.3 59v1.7h4.7V59H2.3zm14.4.8c.01-.03 1.3 0 1.3 0v.7H9.7v-.7s6.17-.03 6.2 0c.1-.6.2-1.1.2-1.5v-1.2c.03.04-5.3 0-5.3 0v-.6h6.2s-.05.62 0 .6c0 .4-.1.8-.1 1.2c0 .4-.1.9-.2 1.5zm-.6 2.7v-1.2h.8v3.8h-6.1v-3.8h.8v1.2h4.5zm0 1.9v-1.3h-4.5v1.3h4.5zm8.2-7.4v.7h-5.4v-.7h2.3v-1h.8v1h2.3zm3.1 1.5v.7H26v2.3h-.8v-5.4h.8v2.4h1.4zm-3.6 1.3c0 .2 0 .4-.1.6c-.1.2-.3.4-.5.6c-.2.1-.4.2-.7.3c-.3.1-.5.1-.9.1c-.3 0-.6 0-.9-.1c-.2-.1-.5-.2-.7-.3c-.1-.2-.3-.4-.4-.6c-.1-.2-.2-.4-.2-.6c0-.3.1-.5.2-.7c.1-.2.3-.4.4-.5c.2-.2.5-.3.7-.3c.3-.1.6-.2.9-.2c.4 0 .6.1.9.2c.3 0 .5.1.7.3c.2.1.4.3.5.5c.1.2.1.4.1.7zm-3.6 0c0 .3.2.5.4.7c.3.2.6.3 1 .3c.5 0 .8-.1 1-.3c.3-.2.4-.4.4-.7c0-.3-.1-.6-.4-.8c-.2-.1-.5-.2-1-.2c-.4 0-.7.1-1 .2c-.2.2-.4.5-.4.8zm.1 5.3v-3h5.7v3h-5.7zm.8-2.4v1.7h4.1v-1.7h-4.1zm11.1-6.1c.5 0 .9.1 1.3.2c.4.1.8.3 1.1.5c.3.2.5.5.7.8c.2.3.2.7.2 1c0 .4 0 .8-.2 1.1c-.2.3-.4.6-.7.8c-.3.2-.7.4-1.1.5c-.4.1-.8.2-1.3.2c-.5 0-.9-.1-1.3-.2c-.4-.1-.8-.3-1.1-.5c-.3-.2-.5-.5-.7-.8c-.1-.3-.2-.7-.2-1.1c0-.3.1-.7.2-1c.2-.3.4-.6.7-.8c.3-.2.7-.4 1.1-.5c.4-.1.8-.2 1.3-.2zm0 .7c-.3 0-.7 0-1 .1c-.3.1-.6.2-.8.4c-.2.2-.4.4-.5.6c-.2.2-.2.5-.2.7c0 .3 0 .6.2.8c.1.2.3.4.5.6c.2.1.5.3.8.4c.3 0 .7.1 1 .1c.4 0 .7-.1 1-.1c.3-.1.6-.3.8-.4c.2-.2.4-.4.5-.6c.2-.2.2-.5.2-.8c0-.2 0-.5-.2-.7c-.1-.2-.3-.4-.5-.6c-.2-.2-.5-.3-.8-.4c-.3-.1-.6-.1-1-.1zm-4.1 6h8.3v.7h-8.3v-.7zm13.7.1h3.8v.7h-8.3v-.7h3.7v-1.7h-2.7v-2.9h5.4v-1.4h-5.4v-.7h6.2v2.8h-5.4v1.5h5.6v.7h-2.9v1.7zM53.3 56h.8v9.2h-.8v-5.1h-1.6v-.8h1.6V56zm-2.2.8s-.04 2.11 0 2.1v1c.1.3.1.6.3 1c.1.3.2.6.4.9c.2.2.4.5.7.7l-.6.6c-.3-.2-.6-.6-.8-.9c-.2-.4-.3-.8-.4-1.3c-.1.5-.3.9-.5 1.3c-.2.4-.5.7-.8 1c-.4-.3-.6-.6-.8-1c-.2-.4-.4-.8-.5-1.3c-.1.5-.3.9-.5 1.2c-.2.4-.4.7-.8 1l-.5-.6c.3-.2.5-.5.7-.7c.2-.3.3-.6.4-1c.1-.3.2-.6.3-1v-.9c.02.01 0-2.1 0-2.1h.8v2.9c.1.2.1.5.2.8c0 .3.1.6.2.8c.2.3.3.6.5.8c.2-.2.3-.5.4-.7c.2-.3.2-.6.3-.9c.1-.2.1-.5.1-.8c.1-.3.1-.5.1-.8c-.03.01 0-2.1 0-2.1h.8zM64.2 58c-.03-.03 0-.4 0-.4h-5.6v-.6h6.4v2.8c-.1.3-.1.7-.1 1c-.1.4-.1.8-.2 1.2l-.8-.1c.1-.7.2-1.3.2-1.9c0-.7.1-1.3.1-2zm-1.4 5.2h3.2v.7h-8.3v-.7h2v-3h.9v3h1.4v-3h.8v3zm8.6-2.3h3.8v.7h-8.3v-.7h3.7v-.9H68v-3.7h6.1v.7h-5.3v.8h5.1v.6h-5.1v.9h5.4v.7h-2.8v.9zm-.4 1.4c1 0 1.8.1 2.3.3c.6.3.8.6.8 1.1c0 .5-.2.9-.8 1.1c-.5.3-1.3.4-2.3.4c-1 0-1.8-.1-2.3-.4c-.6-.2-.8-.6-.8-1.1c0-.5.2-.8.8-1.1c.5-.2 1.3-.3 2.3-.3zm0 2.2c.8 0 1.3 0 1.7-.2c.4-.1.6-.3.6-.6c0-.3-.2-.5-.6-.6c-.4-.2-.9-.2-1.7-.2c-.7 0-1.3 0-1.7.2c-.4.1-.6.3-.6.6c0 .3.2.5.6.6c.4.2 1 .2 1.7.2zm13.5-6.4h-1.3v1.3h1.3v.7h-1.3v1.4h-.9v-5.4h.9v1.3h1.3v.7zm-3.5.7c0 .3-.1.6-.2.8c-.1.3-.3.5-.5.7c-.2.2-.4.4-.7.5c-.3.1-.6.1-1 .1c-.3 0-.6 0-.9-.1c-.3-.1-.6-.3-.8-.5c-.2-.2-.4-.4-.5-.7c-.1-.2-.2-.5-.2-.8c0-.4.1-.7.2-.9c.1-.3.3-.5.5-.7c.2-.2.5-.3.8-.5c.3-.1.6-.1.9-.1c.4 0 .7 0 1 .1c.3.2.5.3.7.5c.2.2.4.4.5.7c.1.2.2.5.2.9zm-3.9 0c0 .2 0 .4.1.5c0 .2.2.4.3.5c.1.1.3.2.5.3c.2.1.4.1.6.1c.2 0 .5 0 .6-.1c.2-.1.4-.2.5-.3c.2-.1.3-.3.4-.5c.1-.1.1-.3.1-.5c0-.3 0-.5-.1-.6c-.1-.2-.2-.4-.4-.5c-.1-.1-.3-.2-.5-.3c-.1-.1-.4-.1-.6-.1c-.2 0-.4 0-.6.1c-.2.1-.4.2-.5.3c-.1.1-.3.3-.3.5c-.1.1-.1.3-.1.6zm.1 3.8v-.7h6v3.3h-.9v-2.6h-5.1zm16.6-2.9v.7h-1.5v4.8h-.9v-9.1h.9v3.6h1.5zm-5.5-2s.02 1.14 0 1.1c0 .4.1.8.2 1.1c.1.4.3.8.5 1.1c.2.3.5.6.8.9c.2.3.6.5.9.6l-.5.7c-.5-.2-1-.6-1.4-1.1c-.4-.5-.7-1.1-.9-1.7c-.1.3-.2.7-.4 1c-.1.3-.3.6-.5.8c-.2.3-.4.5-.7.7c-.2.2-.5.4-.7.5l-.5-.6c.3-.2.6-.4.9-.7c.3-.3.6-.6.8-1c.2-.3.4-.7.5-1.1c.1-.4.2-.8.2-1.2v-1.1h-2.1v-.7h5v.7h-2.1zm13.4.7v.7h-6.2v-2.8h6.1v.7h-5.2v1.4h5.3zm-7.3 1.5h8.3v.6h-8.3v-.6zm1.9 3.6v.9h5.6v.7h-6.5v-2.2h5.4v-.9h-5.4v-.7h6.2v2.2h-5.3zm13.9-7.5h.9v9.2h-.9V56zm-3.6.7c.3 0 .7.1 1 .2c.3.1.5.2.7.4c.2.2.4.4.5.7c.2.3.2.5.2.9c0 .3 0 .6-.2.8c-.1.3-.3.5-.5.7c-.2.2-.4.4-.7.5c-.3.1-.7.1-1 .1c-.4 0-.7 0-1-.1c-.3-.1-.6-.3-.8-.5c-.2-.2-.4-.4-.5-.7c-.1-.2-.2-.5-.2-.8c0-.4.1-.6.2-.9c.1-.3.3-.5.5-.7c.2-.2.5-.3.8-.4c.3-.1.6-.2 1-.2zm0 .7c-.3 0-.5.1-.7.1c-.2.1-.4.2-.5.3c-.1.2-.3.3-.3.5c-.1.2-.2.3-.2.6c0 .2.1.4.2.5c0 .2.2.4.3.5c.1.1.3.2.5.3c.2.1.4.1.7.1c.2 0 .4 0 .6-.1c.2-.1.4-.2.5-.3c.2-.1.3-.3.4-.5c.1-.1.1-.3.1-.5c0-.3 0-.4-.1-.6c-.1-.2-.2-.3-.4-.5c-.1-.1-.3-.2-.5-.3c-.2 0-.4-.1-.6-.1zm-2.8 5.8l-.1-.7h1.3c.5 0 1 0 1.5-.1h1.6c.5-.1 1-.1 1.5-.2l.1.6c-.5.1-1 .2-1.6.2c-.5.1-1 .1-1.5.1c-.5.1-1 .1-1.5.1h-1.3zm17.7-7.2h.8v9.2h-.8V56zm-4 .7c.4 0 .7.1 1 .3c.2.1.5.3.7.6c.2.3.4.6.5 1c.1.4.1.8.1 1.3c0 .5 0 1-.1 1.4c-.1.3-.3.7-.5 1c-.2.2-.5.5-.7.6c-.3.2-.6.2-1 .2c-.3 0-.6 0-.9-.2c-.3-.1-.5-.4-.7-.6c-.3-.3-.4-.7-.5-1c-.1-.4-.2-.9-.2-1.4c0-.5.1-.9.2-1.3c.1-.4.2-.7.5-1c.2-.3.4-.5.7-.6c.3-.2.6-.3.9-.3zm0 .8c-.2 0-.4.1-.6.2c-.2.1-.3.3-.5.5c-.1.2-.2.4-.3.7c-.1.3-.1.7-.1 1c0 .4 0 .7.1 1c.1.3.2.6.3.8c.2.2.3.4.5.5c.2.1.4.2.6.2c.2 0 .5-.1.6-.2c.2-.1.4-.3.5-.5c.2-.2.3-.5.3-.8c.1-.3.1-.6.1-1c0-.3 0-.7-.1-1c0-.3-.1-.5-.3-.7c-.1-.2-.3-.4-.5-.5c-.1-.1-.4-.2-.6-.2zm11.1 3.1h3.7v.6H124v-.6h3.8v-1.1h-2.7v-3h6.2v.6h-5.4v1.7h5.5v.7h-2.8v1.1zm-.4 1.3c1 0 1.7.1 2.3.4c.5.3.8.7.8 1.2c0 .6-.3 1-.8 1.3c-.6.2-1.3.4-2.3.4c-1 0-1.8-.2-2.3-.4c-.6-.3-.9-.7-.9-1.3c0-.5.3-.9.9-1.2c.5-.3 1.3-.4 2.3-.4zm0 2.6c.7 0 1.3 0 1.7-.2c.4-.2.6-.4.6-.8c0-.3-.2-.5-.6-.7c-.4-.2-1-.3-1.7-.3c-.8 0-1.3.1-1.7.3c-.4.2-.6.4-.6.7c0 .4.2.6.6.8c.4.2.9.2 1.7.2zm13.8-1.7v-2.6h-1.5v-.7h1.5v-1h-1.5v-.7h1.5v-1.7h.8v6.7h-.8zm-1.3-2.3v.7c-.4 0-.9.1-1.3.1c-.5.1-1 .1-1.4.1c-.5 0-.9.1-1.4.1h-1.2c.02-.03-.1-.7-.1-.7c0 0 .89-.03.9 0h.3c-.01-.04 0-3.3 0-3.3h-.9v-.7h4.8v.7h-.9s-.02 3.15 0 3.2c.2-.1.4-.1.6-.1c.2 0 .4 0 .6-.1zm-3.4-3s-.01 3.25 0 3.3c.2-.1.4-.1.7-.1h.7c-.03 0 0-3.2 0-3.2h-1.4zm.5 6.8h5.3v.7H137v-2.7h.8v2zm13.3-8.3h.8v9.2h-.8V56zm-3.6.7c.3 0 .6.1.9.2c.3.1.6.2.8.4c.2.2.4.4.5.7c.1.3.2.5.2.9c0 .3-.1.6-.2.8c-.1.3-.3.5-.5.7c-.2.2-.5.4-.8.5c-.3.1-.6.1-.9.1c-.4 0-.7 0-1-.1c-.3-.1-.6-.3-.8-.5c-.2-.2-.4-.4-.5-.7c-.1-.2-.2-.5-.2-.8c0-.4.1-.6.2-.9c.1-.3.3-.5.5-.7c.2-.2.5-.3.8-.4c.3-.1.6-.2 1-.2zm0 .7c-.3 0-.5.1-.7.1c-.2.1-.4.2-.5.3c-.2.2-.3.3-.4.5c0 .2-.1.3-.1.6c0 .2.1.4.1.5c.1.2.2.4.4.5c.1.1.3.2.5.3c.2.1.4.1.7.1c.2 0 .4 0 .6-.1c.2-.1.4-.2.5-.3c.2-.1.3-.3.4-.5c0-.1.1-.3.1-.5c0-.3-.1-.4-.1-.6c-.1-.2-.2-.3-.4-.5c-.1-.1-.3-.2-.5-.3c-.2 0-.4-.1-.6-.1zm-2.9 5.8l-.1-.7h1.4c.5 0 1 0 1.5-.1h1.6c.5-.1 1-.1 1.5-.2l.1.6c-.5.1-1.1.2-1.6.2c-.5.1-1 .1-1.5.1c-.6.1-1 .1-1.5.1h-1.4zm11.9-3.4l-.3-.6c.4-.1.8-.1 1.2-.3c.4-.1.7-.2 1-.4c.3-.2.5-.4.7-.6c.1-.2.2-.5.2-.7c.04-.02-2.8 0-2.8 0v-.7h6.8v.7s-2.87-.02-2.9 0c0 .2.1.5.3.7c.2.2.4.4.7.6c.3.2.6.3 1 .4c.4.2.8.2 1.2.3l-.3.6c-.4 0-.8-.1-1.1-.2c-.4-.1-.7-.2-1-.4c-.3-.1-.6-.3-.8-.5c-.2-.2-.4-.5-.5-.7c-.1.2-.3.5-.6.7c-.2.2-.4.4-.7.5c-.3.2-.7.3-1 .4c-.4.1-.7.2-1.1.2zm-.8.6h8.3v.7h-8.3v-.7zm4.2 1.5c.9 0 1.7.1 2.3.4c.5.3.8.7.8 1.2c0 .6-.3 1-.8 1.3c-.6.2-1.4.4-2.3.4c-1 0-1.8-.2-2.3-.4c-.6-.3-.9-.7-.9-1.3c0-.5.3-.9.9-1.2c.5-.3 1.3-.4 2.3-.4zm0 2.6c.7 0 1.3-.1 1.7-.2c.4-.2.6-.5.6-.8c0-.3-.2-.6-.6-.7c-.4-.2-1-.3-1.7-.3c-.7 0-1.3.1-1.7.3c-.4.1-.6.4-.6.7c0 .3.2.6.6.8c.4.1 1 .2 1.7.2zm12.5-8.4v6.6h-.8v-6.6h.8zm-1.9 4.7l-.4.6c-.5-.1-1-.4-1.4-.8c-.4-.3-.7-.8-.9-1.2c-.2.5-.5.9-.9 1.3c-.4.4-.9.7-1.4.9l-.5-.6c.4-.2.7-.3 1-.5c.3-.2.5-.5.7-.7c.2-.3.4-.6.5-.9c.1-.3.2-.6.2-.9c-.04-.02 0-.5 0-.5h-2.1v-.7h5v.7h-2.1s.02.48 0 .5c0 .3.1.6.2.9c.1.3.3.5.5.8c.2.2.4.4.7.6c.3.2.6.4.9.5zm-3.1 3.5h5.3v.7h-6.2v-2.9h.9v2.2zm13.7-8.3h.8v9.2h-.8V56zm-1.8 3.6v-3.4h.8v8.5h-.8v-4.4s-1.19-.02-1.2 0c0 .4-.1.8-.2 1.2c-.1.3-.2.7-.4.9c-.1.3-.3.4-.6.6c-.2.1-.4.2-.7.2c-.3 0-.6-.1-.8-.2c-.3-.2-.5-.4-.7-.7c-.1-.3-.3-.6-.3-1c-.1-.4-.2-.8-.2-1.3c0-.5.1-1 .2-1.3c0-.4.2-.8.3-1c.2-.3.4-.5.7-.7c.2-.1.5-.2.8-.2c.3 0 .5.1.7.2c.3.1.4.3.6.6c.2.2.3.5.4.8c.1.4.2.8.2 1.2h1.2zm-3.1 2.8c.3 0 .6-.2.8-.6c.3-.5.4-1.1.4-1.8c0-.4-.1-.7-.1-1c-.1-.3-.2-.6-.3-.8c-.1-.2-.2-.3-.3-.5c-.2-.1-.3-.1-.5-.1c-.4 0-.7.2-.9.6c-.2.5-.3 1-.3 1.8c0 .7.1 1.3.3 1.8c.2.4.5.6.9.6zM192 56h.9v9.2h-.9V56zm-6.1 1s4.29.03 4.3 0c0 .7-.1 1.3-.2 1.9c-.2.7-.5 1.2-.8 1.8c-.3.5-.8 1-1.3 1.5c-.6.5-1.2.9-2 1.3l-.4-.7c1.2-.6 2.1-1.3 2.8-2.2c.6-.8 1-1.8 1-2.9h-3.4v-.7zm15.3-1h.9v9.2h-.9v-3.5s-2.24-.04-2.2 0c-.2.4-.5.8-.8 1c-.4.3-.8.4-1.2.4c-.3 0-.6 0-.9-.2c-.3-.1-.5-.4-.8-.6c-.2-.3-.3-.7-.4-1c-.1-.4-.2-.9-.2-1.4c0-.5.1-.9.2-1.3c.1-.4.2-.7.4-1c.3-.3.5-.5.8-.6c.3-.2.6-.3.9-.3c.4 0 .8.2 1.1.4c.3.2.6.6.8 1h2.3V56zm-4.2 6.4c.2 0 .4-.1.6-.2c.2-.1.3-.3.5-.5c.1-.2.2-.5.3-.8c0-.3.1-.6.1-1c0-.3-.1-.7-.1-1c-.1-.3-.2-.5-.3-.7c-.2-.2-.3-.4-.5-.5c-.2-.1-.4-.2-.6-.2c-.2 0-.4.1-.6.2c-.2.1-.4.3-.5.5c-.1.2-.2.4-.3.7c-.1.3-.1.7-.1 1c0 .4 0 .7.1 1c.1.3.2.6.3.8c.1.2.3.4.5.5c.2.1.4.2.6.2zm2.3-2.5c0 .5-.1.8-.1 1.1c-.04-.02 2 0 2 0v-2.2s-2.07-.03-2.1 0c.1.2.1.3.1.5c.1.2.1.4.1.6zm13-.1v.7h-1.5v4.7h-.9v-9.1h.9v3.7h1.5zm-5.5-3.6v1.3h2.3v.7h-5.4v-.7h2.3v-1.3h.8zm-.4 2.7c.3 0 .6.1.9.2c.3.1.5.2.7.4c.2.2.4.4.5.7c.1.3.1.5.1.8c0 .4 0 .6-.1.9c-.1.3-.3.5-.5.7c-.2.2-.4.3-.7.4c-.3.1-.6.1-.9.1c-.3 0-.6 0-.9-.1c-.3-.1-.5-.2-.7-.4c-.2-.2-.3-.4-.4-.7c-.2-.3-.2-.5-.2-.9c0-.3 0-.5.2-.8c.1-.3.2-.5.4-.7c.2-.2.4-.3.7-.4c.3-.1.6-.2.9-.2zm0 3.6c.2 0 .4-.1.6-.2c.2 0 .3-.1.4-.2c.2-.2.3-.3.3-.5c.1-.2.1-.3.1-.6c0-.2 0-.3-.1-.5c0-.2-.1-.3-.3-.5c-.1-.1-.2-.2-.4-.3c-.2 0-.4-.1-.6-.1c-.2 0-.4.1-.6.1c-.1.1-.3.2-.4.3c-.1.2-.2.3-.3.5c-.1.2-.1.3-.1.5c0 .3 0 .4.1.6c.1.2.2.3.3.5c.1.1.3.2.4.2c.2.1.4.2.6.2zm13-4.6c-.04-.03 0-.3 0-.3h-5.6v-.6h6.4v2.7c-.1.4-.1.7-.1 1.1c-.1.4-.2.8-.2 1.3l-.9-.1c.2-.9.3-1.6.3-2.3c0-.7.1-1.3.1-1.8zm-2.4 5.3h4.2v.7h-8.3v-.7h3.2v-3.3h.9v3.3zm14.7-7.1v5.2h-.9v-5.2h.9zm-4.9 4.7c-.4 0-.7 0-1-.1c-.3-.1-.5-.3-.7-.4c-.3-.2-.4-.5-.5-.7c-.2-.3-.2-.6-.2-.9c0-.3 0-.6.2-.9c.1-.2.2-.4.5-.6c.2-.2.4-.4.7-.5c.3-.1.6-.1 1-.1c.3 0 .6 0 .9.1c.3.1.6.3.8.5c.2.2.4.4.5.6c.1.3.2.6.2.9c0 .3-.1.6-.2.9c-.1.2-.3.5-.5.7c-.2.1-.5.3-.8.4c-.3.1-.6.1-.9.1zm0-3.5c-.3 0-.5 0-.7.1c-.2.1-.3.2-.5.3c-.1.1-.2.3-.3.4c-.1.2-.1.4-.1.6c0 .2 0 .4.1.6c.1.2.2.3.3.4c.2.2.3.3.5.3c.2.1.4.2.7.2c.2 0 .4-.1.6-.2c.2 0 .3-.1.5-.3c.1-.1.2-.2.3-.4c.1-.2.1-.4.1-.6c0-.2 0-.4-.1-.6c-.1-.1-.2-.3-.3-.4c-.2-.1-.3-.2-.5-.3c-.2-.1-.4-.1-.6-.1zm3.9 4.4s-.05.46 0 .5c0 .2 0 .4.1.7l.3.6l.6.6c.2.1.5.2.8.3l-.4.7c-.5-.2-.9-.4-1.2-.7c-.3-.3-.5-.7-.7-1.1c-.1.4-.3.8-.6 1.1c-.3.3-.6.6-1.1.7c-.4-.1-.8-.4-1-.7c-.3-.3-.5-.6-.7-1c-.1.3-.4.7-.7 1c-.3.3-.6.5-1.1.7l-.4-.7c.3-.1.6-.2.8-.4c.2-.1.4-.3.6-.5c.1-.2.2-.4.3-.7c.1-.2.1-.4.1-.6c.05-.04 0-.5 0-.5h.9s-.04.46 0 .5c0 .4.1.8.3 1.2c.2.4.5.7.9.9c.2-.1.4-.3.6-.4c.2-.2.3-.4.4-.6l.3-.6v-.5c.04-.04 0-.5 0-.5h.9zm11.2-2v.6h-1.5v4.9h-.9V56h.9v3.7h1.5zm-7.3-2.1s-.03 4.61 0 4.6h2.1c.4-.1.7-.1 1-.1c.3-.1.7-.1 1-.2l.1.7c-.4.1-.7.1-1 .2c-.4 0-.7 0-1.1.1h-2.2c-.04.03-.8 0-.8 0v-6h4.3v.7h-3.4zm7.8 7v-1h.9v1h-.9z" stroke="none" fill="#111111"/></g><g id="Polygon112739"><path d="m4.7 41.9c-.5 0-.9 0-1.3-.1c-.4-.1-.8-.3-1-.4c-.3-.2-.5-.4-.7-.7c-.2-.2-.2-.5-.2-.8c0-.3 0-.6.2-.8c.2-.3.4-.5.7-.7c.2-.1.6-.3 1-.4c.4 0 .8-.1 1.3-.1c.4 0 .9.1 1.3.1c.4.1.7.3 1 .4c.3.2.5.4.6.7c.2.2.3.5.3.8c0 .3-.1.6-.3.8c-.1.3-.3.5-.6.7c-.3.1-.6.3-1 .4c-.4.1-.9.1-1.3.1zm0-3.3c-.4 0-.7 0-1 .1c-.3 0-.5.1-.7.2c-.2.2-.4.3-.5.5c-.1.1-.2.3-.2.5c0 .2.1.4.2.5c.1.2.3.4.5.5c.2.1.4.2.7.2c.3.1.6.1 1 .1c.3 0 .6 0 .9-.1c.3 0 .6-.1.8-.2c.2-.1.3-.3.4-.5c.2-.1.2-.3.2-.5c0-.2 0-.4-.2-.5c-.1-.2-.2-.3-.4-.5c-.2-.1-.5-.2-.8-.2c-.3-.1-.6-.1-.9-.1zm4.1 4.2v.6H6.7v3.3h-.9v-3.3H3.5v3.3h-.8v-3.3H.5v-.6h8.3zm5.5 2h3.7v.7H9.7v-.7h3.7v-2.2h-2.7v-4.3h6.3v4.3h-2.7v2.2zM11.5 39v2.9h4.7V39h-4.7zm15.9 2.3v.7h-1.5v4.7h-.8v-9.2h.8v3.8h1.5zM22 39.8s-.04.71 0 .7c0 .4 0 .7.1 1.1c.1.4.3.7.5 1c.2.3.4.6.7.9c.3.2.6.5.9.6l-.5.7c-.5-.3-.9-.6-1.3-1.1c-.4-.5-.7-1-.8-1.6c-.2.6-.5 1.2-.9 1.7c-.4.5-.9.9-1.4 1.1l-.5-.6c.4-.2.7-.4.9-.6c.3-.3.6-.6.8-.9c.2-.4.3-.7.5-1.1c.1-.4.1-.8.1-1.2c.03.01 0-.7 0-.7h-2v-.7h2v-1.4h.9v1.4h2v.7h-2zm12.5-.7v-.7h-5.4v-.6h6.2v1.9H30v.8h5.5v.6h-6.4v-2h5.4zm-6.4 2.7h8.3v.6h-8.3v-.6zm1.8 3.3v.9h5.7v.6h-6.5v-2.1h5.4v-.7h-5.4v-.6h6.2v1.9h-5.4zM46 37.5h.8v9.2h-.8v-9.2zm-6.1.8h.8v2.4h2.6v-2.4h.9v6.2h-4.3v-6.2zm.8 3.1v2.4h2.6v-2.4h-2.6zm12.4 1.1h3.7v.7h-8.3v-.7h3.7v-.9h-2.6v-2.2h5.3v-.9h-5.3v-.7h6.2v2.2h-5.4v.9h5.5v.7h-2.8v.9zm0 1.1v.2c0 .3.1.6.2.8c.2.3.4.5.7.7c.3.2.6.3 1 .4c.3.2.7.3 1.2.3l-.3.7c-.8-.1-1.4-.3-2-.6c-.5-.3-.9-.7-1.2-1.2c-.3.5-.7.9-1.3 1.2c-.6.3-1.2.5-1.9.6l-.3-.7c.4 0 .8-.1 1.2-.3c.3-.1.7-.2.9-.4c.3-.2.5-.4.7-.7c.2-.2.2-.5.2-.8c.04 0 0-.2 0-.2h.9zm11.5-6.1h.9v9.2h-.9v-4.6h-1.1v4.1h-.8v-8.5h.8v3.7h1.1v-3.9zm-4.2.3v1.3h1.8v.7h-4.5v-.7h1.8v-1.3h.9zm-.4 2.6c.3 0 .5 0 .8.1c.2.2.4.3.6.5c.1.2.3.4.4.6c.1.3.1.6.1.9c0 .3 0 .6-.1.8c-.1.3-.3.5-.4.7c-.2.2-.4.3-.6.4c-.3.1-.5.2-.8.2c-.3 0-.6-.1-.8-.2c-.3-.1-.5-.2-.6-.4c-.2-.2-.3-.4-.4-.7c-.1-.2-.2-.5-.2-.8c0-.3.1-.6.2-.9c.1-.2.2-.4.4-.6c.1-.2.3-.3.6-.5c.2-.1.5-.1.8-.1zm0 3.5c.3 0 .6-.2.8-.4c.3-.3.4-.6.4-1c0-.2-.1-.4-.1-.6c-.1-.1-.2-.3-.3-.4l-.3-.3c-.2-.1-.4-.1-.5-.1c-.4 0-.7.1-.9.4c-.2.2-.3.6-.3 1c0 .4.1.7.3 1c.2.2.5.4.9.4zm13.5-1.6h3.7v.6H69v-.6h3.7v-1.1h-2.6v-3.4h.8v1h4.4v-1h.9v3.4h-2.7v1.1zm-2.6-2.9v1.1h4.4v-1.1h-4.4zm-1 5.1v-.7h6.3v2.9h-.8v-2.2h-5.5zm14.9-6.9h.8v9.1h-.8v-9.1zm-3.4 1.6s.01 1.14 0 1.1c0 .4.1.8.2 1.2c.1.4.3.7.5 1.1c.2.3.5.6.8.8c.3.3.6.5 1 .6l-.5.7c-.5-.2-1-.6-1.4-1.1c-.5-.5-.8-1.1-1-1.7c-.1.3-.2.7-.4 1c-.2.3-.4.6-.6.8c-.2.3-.4.5-.6.7c-.3.2-.5.4-.8.5l-.5-.6c.4-.2.7-.4 1-.7c.3-.3.5-.6.8-.9c.2-.4.3-.8.5-1.2c.1-.4.2-.8.2-1.2c-.03.04 0-1.1 0-1.1h-2.2v-.7h5.2v.7h-2.2zM98 41.3v.7h-1.6v4.7h-.8v-9.2h.8v3.8h1.6zm-5.5-1.5s-.04.71 0 .7c0 .4 0 .7.1 1.1c.1.4.3.7.5 1c.2.3.4.6.7.9c.3.2.6.5.9.6l-.5.7c-.5-.3-.9-.6-1.3-1.1c-.4-.5-.6-1-.8-1.6c-.2.6-.5 1.2-.9 1.7c-.4.5-.9.9-1.4 1.1l-.5-.6c.4-.2.7-.4.9-.6c.3-.3.6-.6.8-.9c.2-.4.3-.7.5-1.1c.1-.4.1-.8.1-1.2c.04.01 0-.7 0-.7h-2v-.7h2v-1.4h.9v1.4h2v.7h-2zm14.5-.1h-1.3v1.2h1.3v.7h-1.3v1.5h-.9v-5.5h.9v1.4h1.3v.7zm-3 1.9v.6c-.3.1-.7.2-1 .2c-.3 0-.7.1-1 .1h-2.3c0 .04-.7 0-.7 0v-2.6h3.3v-1.1H99v-.7h4.1v2.5h-3.3v1.3c.4 0 .8 0 1.1-.1h1.1c.3 0 .6-.1 1-.1c.3 0 .6-.1 1-.1zm-1.2 1.7c.4 0 .8.1 1.2.2c.4 0 .7.1 1 .3c.2.1.4.3.6.5c.1.2.2.5.2.7c0 .3-.1.5-.2.7c-.2.2-.4.4-.6.5c-.3.2-.6.3-1 .4c-.4 0-.8.1-1.2.1c-1 0-1.7-.2-2.2-.5c-.6-.2-.8-.7-.8-1.2c0-.5.2-.9.8-1.2c.5-.3 1.2-.5 2.2-.5zm0 2.7c.7 0 1.2-.1 1.6-.2c.4-.2.5-.5.5-.8c0-.3-.1-.6-.5-.7c-.4-.2-.9-.3-1.6-.3c-.7 0-1.3.1-1.7.3c-.3.1-.5.4-.5.7c0 .3.2.6.5.8c.4.1 1 .2 1.7.2zm4.6.7l.4-2.1h.9l-.6 2.1h-.7zm9-6.6h1.9v-2.5h.8v6.7h-.8v-3.5h-1.9v-.7zm.6 2.1l-.5.7c-.5-.2-.9-.5-1.3-.8c-.4-.4-.7-.8-.9-1.3c-.2.5-.5 1-.9 1.4c-.4.4-.8.7-1.4.9l-.4-.7c.3-.1.6-.3.9-.5c.3-.2.6-.4.8-.7c.2-.2.3-.5.4-.8c.1-.3.2-.6.2-1v-.4h-2v-.7h4.8v.7h-2s.04.42 0 .4c0 .3.1.6.2.9c.1.3.3.5.5.8c.2.2.4.5.7.7c.2.2.5.3.9.4zm-2.9 3.6h5.3v.7h-6.1v-2.8h.8v2.1zm11.2-3.7h3.7v.6h-8.3v-.6h3.8V41h-2.7v-3h6.2v.6h-5.4v1.7h5.5v.7h-2.8v1.1zm-.4 1.3c1 0 1.7.1 2.3.4c.5.3.8.7.8 1.2c0 .6-.3 1-.8 1.3c-.6.2-1.3.4-2.3.4c-1 0-1.8-.2-2.3-.4c-.6-.3-.9-.7-.9-1.3c0-.5.3-.9.9-1.2c.5-.3 1.3-.4 2.3-.4zm0 2.6c.7 0 1.3 0 1.7-.2c.4-.2.6-.4.6-.8c0-.3-.2-.5-.6-.7c-.4-.2-1-.3-1.7-.3c-.8 0-1.3.1-1.7.3c-.4.2-.6.4-.6.7c0 .4.2.6.6.8c.4.2.9.2 1.7.2zm12.9-3.9l-.4.7c-.3 0-.7-.2-1-.3c-.3-.2-.7-.4-1-.6c-.3-.2-.5-.5-.8-.8l-.6-.9c-.1.3-.3.6-.5.9c-.3.3-.6.6-.9.8l-.9.6c-.4.1-.7.3-1 .3l-.4-.7c.4 0 .8-.2 1.2-.4c.4-.2.7-.4 1-.7c.3-.3.6-.6.8-1c.2-.3.3-.7.3-1.1v-.7h.9s-.02.69 0 .7c0 .4.1.7.3 1.1c.2.4.4.7.7 1c.4.3.7.5 1.1.7c.4.2.8.4 1.2.4zm-7.9 2.7h8.3v.7h-8.3v-.7zm17.5-2.3v.7h-3.7v3.5h-.9v-3.5h-3.7v-.7s6.08-.03 6.1 0c.1-.4.1-.7.2-1c0-.2 0-.5.1-.8c-.05.03-5.5.3-5.5.3l-.1-.7s5.6-.22 5.6-.2v-.6c.02 0 0-.7 0-.7h-5.3v-.7h6.1s.03.85 0 .8v1.6c0 .6-.1 1.2-.3 2c0-.03 1.4 0 1.4 0zm7.6-5h.8v9.2h-.8v-5h-1.9v-.7h1.9v-3.5zm-5.5 4.1s.04 2.21 0 2.2h2.2c.3-.1.6-.1.9-.1c.3-.1.6-.1.9-.2l.1.7c-.3.1-.7.1-1 .2h-.9c-.4.1-.7.1-1.1.1h-1.9v-6.1h4.2v.7h-3.4v1.8h3v.7h-3zm7.6 5.1l.4-2.1h.9l-.6 2.1h-.7zm8.3-5.3c-.5 0-.9 0-1.3-.1c-.4-.1-.7-.2-1-.3c-.3-.2-.5-.4-.7-.6c-.1-.2-.2-.5-.2-.8c0-.3.1-.5.2-.8c.2-.2.4-.4.7-.5c.3-.2.6-.3 1-.4c.4-.1.8-.1 1.3-.1c.5 0 .9 0 1.3.1c.4.1.7.2 1 .4c.3.1.5.3.7.5c.1.3.2.5.2.8c0 .3-.1.6-.2.8c-.2.2-.4.4-.7.6c-.3.1-.6.2-1 .3c-.4.1-.8.1-1.3.1zm0-3c-.3 0-.7.1-.9.1c-.3.1-.6.2-.8.3c-.2.1-.3.2-.5.3c-.1.2-.1.3-.1.5c0 .2 0 .3.1.5c.2.1.3.3.5.4c.2.1.5.1.8.2c.2 0 .6.1.9.1c.7 0 1.3-.1 1.7-.3c.4-.3.6-.5.6-.9c0-.4-.2-.6-.6-.8c-.4-.2-1-.4-1.7-.4zm-4.1 3.8h8.3v.7h-3.7v1.8h-.8v-1.8h-3.8v-.7zm1.9 1.6v2h5.4v.7h-6.3v-2.7h.9zm12.1-3.7h1.8v-2.5h.9v6.7h-.9v-3.5h-1.8v-.7zm.5 2.1l-.4.7c-.5-.2-.9-.5-1.3-.8c-.4-.4-.7-.8-.9-1.3c-.2.5-.5 1-.9 1.4c-.4.4-.8.7-1.4.9l-.4-.7c.3-.1.6-.3.9-.5c.3-.2.5-.4.7-.7c.2-.2.4-.5.5-.8c.1-.3.2-.6.2-1v-.4h-2.1v-.7h4.9v.7h-2s.02.42 0 .4c0 .3.1.6.2.9c.1.3.2.5.4.8l.7.7c.3.2.6.3.9.4zm-2.8 3.6h5.2v.7h-6.1v-2.8h.9v2.1zm13.3-1h3.7v.7h-8.3v-.7h3.7v-1.9h-2.7v-4.7h.8v1.6h4.7v-1.6h.8v4.7h-2.7v1.9zm-2.8-4.3v1.7h4.7v-1.7h-4.7zm8.1 2.4l-.3-.6c.4-.1.8-.2 1.2-.4c.4-.2.7-.4 1-.7c.4-.3.6-.6.8-.9c.2-.3.3-.7.3-1v-.2h-3v-.7h6.9v.7h-3s-.03.15 0 .2c0 .3.1.7.3 1c.2.3.4.6.7.9c.4.3.7.5 1.1.7c.4.1.8.3 1.2.3l-.3.7l-1.1-.3c-.3-.2-.6-.3-.9-.6c-.4-.2-.6-.4-.9-.7c-.2-.2-.4-.5-.6-.8c-.1.3-.3.6-.5.9c-.3.2-.6.5-.9.7c-.3.2-.6.4-.9.5c-.4.2-.7.3-1.1.3zm3.9 1.9h3.7v.7h-8.3v-.7h3.7v-2.2h.9v2.2zm13.8-4.9h1.3v.7h-1.3v2.5h-.9v-5.5h.9v2.3zm-1.8 2.1l-.4.6c-.6-.1-1-.4-1.4-.7c-.4-.4-.7-.8-.9-1.2c-.2.5-.4.9-.8 1.3c-.4.4-.9.7-1.5.9l-.4-.7c.4-.1.7-.3 1-.5c.2-.2.5-.4.7-.6c.2-.3.3-.6.4-.9c.2-.3.2-.6.2-.9v-.4h-2v-.7h4.9v.7h-2.1s.04.35 0 .4c0 .3.1.5.2.8c.1.3.2.6.4.8c.2.2.5.4.7.6c.3.2.6.4 1 .5zm-1.2 1.3c.5 0 .9 0 1.3.1c.4.1.7.2.9.3c.3.2.5.4.6.6c.2.2.3.4.3.7c0 .3-.1.5-.3.7c-.1.2-.3.4-.6.5c-.2.2-.5.3-.9.4c-.4 0-.8.1-1.3.1c-.9 0-1.6-.2-2.2-.5c-.5-.3-.8-.7-.8-1.2c0-.5.3-1 .8-1.3c.6-.2 1.3-.4 2.2-.4zm0 2.7c.7 0 1.3-.1 1.6-.3c.4-.1.6-.4.6-.7c0-.3-.2-.6-.6-.8c-.3-.1-.9-.2-1.6-.2c-.7 0-1.2.1-1.6.2c-.3.2-.5.5-.5.8c0 .3.2.6.5.7c.4.2.9.3 1.6.3zm11.7-8.5h.8v9.2h-.8v-9.2zm-3.3 2.3v.7c0 .4.1.8.2 1.1c.1.4.3.7.5 1.1c.2.3.5.6.8.8c.2.3.6.5.9.6l-.5.7c-.5-.3-1-.6-1.4-1.1c-.4-.5-.7-1-.9-1.6c-.2.6-.5 1.2-.9 1.7c-.4.5-.9.9-1.4 1.1l-.5-.6c.3-.2.7-.4.9-.7c.3-.2.6-.5.8-.9c.2-.3.4-.6.5-1c.1-.4.2-.8.2-1.2c-.03 0 0-.7 0-.7h-2.1v-.7h2.1v-1.4h.8v1.4h2.1v.7h-2.1zm15.2.5v.7h-6.3v-3.1h6.2v.7h-5.3v1.7h5.4zm-7.3 1.6h8.3v.7h-8.3v-.7zm4.1 1.5c1 0 1.8.1 2.3.4c.6.3.9.7.9 1.2c0 .6-.3 1-.9 1.3c-.5.2-1.3.4-2.3.4c-.9 0-1.7-.2-2.3-.4c-.5-.3-.8-.7-.8-1.3c0-.5.3-.9.8-1.2c.6-.3 1.4-.4 2.3-.4zm0 2.6c.7 0 1.3-.1 1.7-.2c.4-.2.6-.4.6-.8c0-.3-.2-.5-.6-.7c-.4-.2-1-.3-1.7-.3c-.7 0-1.3.1-1.7.3c-.4.2-.6.4-.6.7c0 .4.2.6.6.8c.4.1 1 .2 1.7.2zm13.6-6.6v-.3h-5.6v-.6h6.4s.05.87 0 .9v1.8c0 .4 0 .7-.1 1.1c0 .4-.1.8-.2 1.3l-.8-.1c.1-.9.2-1.6.3-2.3v-1.8zm-2.4 5.3h4.2v.7h-8.2v-.7h3.2v-3.3h.8v3.3zm11.8-7.2h.8v9.2h-.8v-9.2zm-6.1 1s4.26.03 4.3 0c0 .7-.1 1.3-.3 1.9c-.1.7-.4 1.2-.7 1.8c-.4.5-.8 1-1.3 1.5c-.6.5-1.2.9-2 1.3l-.4-.7c1.2-.6 2.1-1.3 2.7-2.2c.7-.8 1-1.8 1.1-2.9h-3.4v-.7zm16.4 1.6l-.2.7c-.4-.1-.8-.2-1.1-.3c-.4-.1-.7-.2-1-.4c-.3-.1-.5-.3-.8-.5c-.2-.2-.4-.4-.6-.7c-.1.3-.3.5-.5.7c-.3.2-.5.4-.8.5c-.3.2-.6.3-1 .4c-.3.1-.7.2-1.1.3l-.2-.7c.4 0 .8-.1 1.2-.2c.4-.2.7-.3 1-.5c.3-.2.6-.4.8-.7c.1-.2.2-.5.2-.8c.03.03 0-.3 0-.3h.9s-.02.33 0 .3c0 .3.1.6.3.8c.1.3.4.5.7.7c.3.2.6.3 1 .5c.4.1.8.2 1.2.2zm.5 1.9h-3.7v.9h2.6v2.1h-5.3v.9h5.6v.7h-6.5v-2.2h5.4v-.8h-5.4v-.7h2.7v-.9h-3.7v-.6h8.3v.6zm3.4-.3v1h-.9v-1h.9zm9.1-2.3c-.05-.03 0-.3 0-.3h-5.6v-.6h6.4s-.01.87 0 .9v.8c0 .4 0 .7-.1 1c0 .4 0 .7-.1 1.1c0 .4-.1.8-.2 1.3l-.8-.1c.2-.9.3-1.6.3-2.3c0-.7.1-1.3.1-1.8zm-2.4 5.3h4.2v.7h-8.3v-.7h3.2v-3.3h.9v3.3zm12.3-6.8v4h-6.2v-4h.8v1.3h4.6v-1.3h.8zm-.8 3.3v-1.4h-4.6v1.4h4.6zM284 43v.6h-3.8v3.1h-.8v-3.1h-3.7v-.6h8.3zm9.4-1.7v.6h-1.5v4.8h-.8v-9.2h.8v3.8h1.5zm-8.1-2.8s4.23.02 4.2 0c0 .7-.1 1.3-.2 1.9c-.2.6-.4 1.2-.7 1.8c-.4.5-.8 1-1.3 1.5c-.6.5-1.2.9-1.9 1.3l-.5-.7c1.2-.6 2.1-1.3 2.7-2.2c.6-.8 1-1.8 1.1-2.9c0 .01-3.4 0-3.4 0v-.7zm17.2 2.8v.6h-1.4v4.8h-.9v-9.2h.9v3.8h1.4zm-8-2.8s4.21.02 4.2 0c0 .7-.1 1.3-.2 1.9c-.2.6-.4 1.2-.8 1.8c-.3.5-.7 1-1.2 1.5c-.6.5-1.2.9-1.9 1.3l-.5-.7c1.2-.6 2.1-1.3 2.7-2.2c.6-.8 1-1.8 1.1-2.9c-.02.01-3.4 0-3.4 0v-.7zm15.4-1h.8v9.2h-.8v-9.2zm-3.3 2.3s-.02.7 0 .7c0 .4 0 .8.2 1.1c.1.4.3.7.5 1.1c.2.3.4.6.7.8c.3.3.6.5 1 .6l-.5.7c-.5-.3-1-.6-1.4-1.1c-.4-.5-.7-1-.9-1.6c-.2.6-.5 1.2-.9 1.7c-.4.5-.9.9-1.4 1.1l-.5-.6c.3-.2.6-.4.9-.7c.3-.2.6-.5.8-.9c.2-.3.4-.6.5-1c.1-.4.2-.8.2-1.2c-.05 0 0-.7 0-.7h-2.2v-.7h2.1v-1.4h.9v1.4h2.1v.7h-2.1zm14.5-2.3h.9v9.2h-.9v-9.2zm-4 .7c.4 0 .7.1 1 .3c.3.1.5.3.7.6c.2.3.4.6.5 1c.1.4.2.8.2 1.3c0 .5-.1 1-.2 1.4c-.1.3-.3.7-.5 1c-.2.2-.4.5-.7.6c-.3.2-.6.2-1 .2c-.3 0-.6 0-.9-.2c-.3-.1-.5-.4-.7-.6c-.2-.3-.4-.7-.5-1c-.1-.4-.2-.9-.2-1.4c0-.5.1-.9.2-1.3c.1-.4.3-.7.5-1c.2-.3.4-.5.7-.6c.3-.2.6-.3.9-.3zm0 .8c-.2 0-.4.1-.6.2c-.2.1-.3.3-.5.5c-.1.2-.2.4-.3.7c-.1.3-.1.7-.1 1c0 .4 0 .7.1 1c.1.3.2.6.3.8c.2.2.3.4.5.5c.2.1.4.2.6.2c.3 0 .5-.1.6-.2c.2-.1.4-.3.5-.5c.2-.2.3-.5.3-.8c.1-.3.2-.6.2-1c0-.3-.1-.7-.2-1c0-.3-.1-.5-.3-.7c-.1-.2-.3-.4-.5-.5c-.1-.1-.3-.2-.6-.2zm11.1 3.1h3.7v.6h-8.2v-.6h3.7V41h-2.7v-3h6.2v.6h-5.4v1.7h5.5v.7h-2.8v1.1zm-.4 1.3c1 0 1.7.1 2.3.4c.5.3.8.7.8 1.2c0 .6-.3 1-.8 1.3c-.6.2-1.3.4-2.3.4c-1 0-1.8-.2-2.3-.4c-.6-.3-.8-.7-.8-1.3c0-.5.2-.9.8-1.2c.5-.3 1.3-.4 2.3-.4zm0 2.6c.7 0 1.3 0 1.7-.2c.4-.2.6-.4.6-.8c0-.3-.2-.5-.6-.7c-.4-.2-1-.3-1.7-.3c-.7 0-1.3.1-1.7.3c-.4.2-.6.4-.6.7c0 .4.2.6.6.8c.4.2 1 .2 1.7.2zm11.7-8.5h.8v9.2h-.8v-9.2zm-6.1 1s4.26.03 4.3 0c0 .7-.1 1.3-.3 1.9c-.1.7-.4 1.2-.7 1.8c-.4.5-.8 1-1.3 1.5c-.6.5-1.2.9-2 1.3l-.4-.7c1.2-.6 2.1-1.3 2.7-2.2c.7-.8 1-1.8 1.1-2.9h-3.4v-.7zm15.3-1h.8v9.2h-.8v-9.2zm-6.1 1s4.24.03 4.2 0c0 .7 0 1.3-.2 1.9c-.2.7-.4 1.2-.7 1.8c-.4.5-.8 1-1.4 1.5c-.5.5-1.2.9-1.9 1.3l-.5-.7c1.3-.6 2.2-1.3 2.8-2.2c.6-.8 1-1.8 1.1-2.9h-3.4v-.7zm15 .6v-.7h-5.4v-.6h6.2v1.9h-5.3v.8h5.5v.6h-6.3v-2h5.3zm-6.4 2.7h8.3v.6h-8.3v-.6zm1.8 3.3v.9h5.7v.6h-6.5v-2.1h5.4v-.7h-5.4v-.6h6.3v1.9H353zm16.4-7.6h.8v9.2h-.8v-4.8h-1.2v4.3h-.8v-8.4h.8v3.4h1.2v-3.7zm-6.6 1.2s3.57.02 3.6 0c0 .6-.1 1.2-.2 1.8c-.1.5-.3 1-.6 1.6c-.2.5-.6 1-1 1.4c-.5.5-1 .9-1.7 1.2l-.4-.6c.5-.3.9-.6 1.3-.9c.4-.4.7-.8.9-1.2c.3-.4.5-.8.6-1.2c.1-.5.2-.9.2-1.4h-2.7v-.7zm15.9.8h1.4v.7h-1.4v2.1h-.8v-4.7h.8v1.9zm-2.5-1.6v4H372v-4h.8v1.3h2.6v-1.3h.8zm-.8 3.3v-1.3h-2.6v1.3h2.6zm-1.6 3.7v1h5.3v.7H373v-2.3h4.9v-.9h-5v-.7h5.8v2.2h-4.9zm14-7.4h.8v9.2h-.8v-4.6h-1.2v4.1h-.8v-8.5h.8v3.7h1.2v-3.9zm-4.3.3v1.3h1.8v.7h-4.5v-.7h1.9v-1.3h.8zm-.4 2.6c.3 0 .5 0 .8.1c.2.2.4.3.6.5c.2.2.3.4.4.6c.1.3.1.6.1.9c0 .3 0 .6-.1.8c-.1.3-.2.5-.4.7c-.2.2-.4.3-.6.4c-.3.1-.5.2-.8.2c-.3 0-.6-.1-.8-.2c-.2-.1-.4-.2-.6-.4c-.2-.2-.3-.4-.4-.7c-.1-.2-.2-.5-.2-.8c0-.3.1-.6.2-.9c.1-.2.2-.4.4-.6c.2-.2.4-.3.6-.5c.2-.1.5-.1.8-.1zm0 3.5c.3 0 .6-.2.9-.4c.2-.3.3-.6.3-1c0-.2 0-.4-.1-.6c-.1-.1-.1-.3-.2-.4c-.2-.1-.3-.2-.4-.3c-.2-.1-.3-.1-.5-.1c-.4 0-.7.1-.9.4c-.2.2-.3.6-.3 1c0 .4.1.7.3 1c.2.2.5.4.9.4z" stroke="none" fill="#111111"/></g><g id="Polygon112738"><path d="m7.2 19h.9v9.2h-.9v-3.5s-2.24-.04-2.2 0c-.2.4-.5.8-.8 1c-.4.3-.8.4-1.2.4c-.3 0-.7 0-.9-.2c-.3-.1-.5-.4-.8-.6c-.2-.3-.3-.7-.4-1c-.1-.4-.2-.9-.2-1.4c0-.5.1-.9.2-1.3c.1-.4.2-.7.4-1c.3-.3.5-.5.8-.6c.2-.2.6-.3.9-.3c.4 0 .8.2 1.1.4c.3.2.6.6.8 1h2.3V19zM3 25.4c.2 0 .4-.1.6-.2c.2-.1.3-.3.5-.5c.1-.2.2-.5.3-.8c0-.3.1-.6.1-1c0-.3-.1-.7-.1-1c-.1-.3-.2-.5-.3-.7c-.2-.2-.3-.4-.5-.5c-.2-.1-.4-.2-.6-.2c-.2 0-.4.1-.6.2c-.2.1-.4.3-.5.5c-.1.2-.2.4-.3.7c-.1.3-.1.7-.1 1c0 .4 0 .7.1 1c.1.3.2.6.3.8c.1.2.3.4.5.5c.2.1.4.2.6.2zm2.3-2.5c0 .5-.1.8-.1 1.1c-.04-.02 2 0 2 0v-2.2s-2.07-.03-2.1 0c.1.2.1.3.1.5c.1.2.1.4.1.6zM16.4 19h.8v9.2h-.8v-5h-1.7v-.6h1.7V19zm-5.5 4.1s-.02 2.2 0 2.2h1.1c.3 0 .7 0 1-.1h.9c.3-.1.6-.1 1-.2l.1.7c-.4.1-.7.1-1.1.1c-.3.1-.6.1-.9.1c-.4.1-.7.1-1.1.1h-1.8v-3.6h3.2v-1.8H10v-.7h4.1v3.2h-3.2zm16.5-2.8c-.02-.02 0-.1 0-.1H22v-.7h6.2v1.9c0 .4-.1.8-.3 1.3l-.8-.1c.2-.5.2-.9.2-1.2c.1-.4.1-.8.1-1.1zm-2.2 3h4v.7H21v-.7h3.4v-1.8h.8v1.8zm-.1 1.5c.5 0 .9.1 1.3.1c.4.1.7.2 1 .4c.3.1.5.3.6.5c.2.2.3.4.3.7c0 .3-.1.5-.3.7c-.1.2-.3.4-.6.5c-.3.2-.6.3-1 .4c-.4 0-.8.1-1.3.1c-.5 0-.9-.1-1.3-.1c-.4-.1-.8-.2-1-.4c-.3-.1-.5-.3-.7-.5c-.1-.2-.2-.4-.2-.7c0-.3.1-.5.2-.7c.2-.2.4-.4.7-.5c.2-.2.6-.3 1-.4c.4 0 .8-.1 1.3-.1zm0 2.7c.7 0 1.3-.1 1.7-.2c.4-.2.6-.5.6-.8c0-.3-.2-.6-.6-.8c-.4-.1-1-.2-1.7-.2c-.7 0-1.3.1-1.7.2c-.5.2-.7.5-.7.8c0 .3.2.6.7.8c.4.1 1 .2 1.7.2zm11.7-8.4h.9v5.4h-.9v-5.4zm-4 .5c.3 0 .6 0 .9.1c.3.2.6.3.8.5c.2.2.4.4.5.7c.1.2.1.5.1.9c0 .3 0 .6-.1.8c-.1.3-.3.5-.5.7c-.2.2-.5.4-.8.5c-.3.1-.6.1-.9.1c-.4 0-.7 0-1-.1c-.3-.1-.5-.3-.8-.5c-.2-.2-.3-.4-.4-.7c-.2-.2-.2-.5-.2-.8c0-.4 0-.7.2-.9c.1-.3.2-.5.4-.7c.3-.2.5-.3.8-.5c.3-.1.6-.1 1-.1zm0 .7c-.3 0-.5 0-.7.1c-.2.1-.3.2-.5.3c-.1.1-.2.3-.3.5c-.1.1-.1.3-.1.6c0 .2 0 .4.1.5c.1.2.2.4.3.5c.2.1.3.2.5.3c.2.1.4.1.7.1c.2 0 .4 0 .6-.1c.2-.1.3-.2.5-.3c.1-.1.2-.3.3-.5c.1-.1.1-.3.1-.5c0-.3 0-.5-.1-.6c-.1-.2-.2-.4-.3-.5c-.2-.1-.3-.2-.5-.3c-.2-.1-.4-.1-.6-.1zM31.6 25h6.1v3.2h-.9v-2.5h-5.2v-.7zM46 19.1h.9v4.9h-.9v-2h-2.1v1.7h-4.1v-4.2h.8v1.4h2.5v-1.4h.8v1.8h2.1v-2.2zM43.1 23v-1.4h-2.5v1.4h2.5zm2.9 2.6v-1.1h.9v3.6H41v-3.6h.8v1.1h4.2zm0 1.8v-1.2h-4.2v1.2h4.2zm10-8.3v6.6h-.8v-6.6h.8zm-2.5 2.8c0 .4-.1.7-.2.9c-.1.3-.3.6-.5.8c-.2.2-.4.3-.7.4c-.3.1-.6.2-1 .2c-.3 0-.6-.1-.9-.2c-.3-.1-.6-.2-.8-.4c-.2-.2-.4-.5-.5-.8c-.1-.2-.2-.5-.2-.9c0-.3.1-.6.2-.9c.1-.3.3-.5.5-.7c.2-.2.5-.3.8-.5c.3-.1.6-.1.9-.1c.4 0 .7 0 1 .1c.3.2.5.3.7.5c.2.2.4.4.5.7c.1.3.2.6.2.9zm-3.9 0c0 .3 0 .5.1.6c0 .2.2.4.3.5c.1.2.3.3.5.4c.2 0 .4.1.6.1c.2 0 .4-.1.6-.1c.2-.1.4-.2.5-.4c.2-.1.3-.3.4-.5c.1-.1.1-.3.1-.6c0-.2 0-.4-.1-.6c-.1-.2-.2-.3-.4-.5c-.1-.1-.3-.2-.5-.3c-.2-.1-.4-.1-.6-.1c-.2 0-.4 0-.6.1c-.2.1-.4.2-.5.3c-.1.2-.3.3-.3.5c-.1.2-.1.4-.1.6zm1.4 5.4h5.3v.7h-6.2v-3h.9v2.3zM64.4 19h.8v9.2h-.8V19zm-4 .7c.3 0 .6.1.9.3c.3.1.5.3.7.6c.2.3.4.6.5 1c.1.4.2.8.2 1.3c0 .5-.1 1-.2 1.4c-.1.3-.3.7-.5 1c-.2.2-.4.5-.7.6c-.3.2-.6.2-.9.2c-.4 0-.7 0-1-.2c-.3-.1-.5-.4-.7-.6c-.2-.3-.4-.7-.5-1c-.1-.4-.2-.9-.2-1.4c0-.5.1-.9.2-1.3c.1-.4.3-.7.5-1c.2-.3.4-.5.7-.6c.3-.2.6-.3 1-.3zm0 .8c-.3 0-.5.1-.7.2c-.1.1-.3.3-.4.5c-.2.2-.3.4-.4.7c0 .3-.1.7-.1 1c0 .4.1.7.1 1c.1.3.2.6.4.8c.1.2.3.4.4.5c.2.1.4.2.7.2c.2 0 .4-.1.6-.2c.2-.1.3-.3.5-.5c.1-.2.2-.5.3-.8c0-.3.1-.6.1-1c0-.3-.1-.7-.1-1c-.1-.3-.2-.5-.3-.7c-.2-.2-.3-.4-.5-.5c-.2-.1-.4-.2-.6-.2zm14-.5v.7H69v-.7h2.3v-1h.8v1h2.3zm3 1.5v.7h-1.3v2.3h-.9v-5.4h.9v2.4h1.3zm-3.5 1.3c0 .2-.1.4-.2.6c-.1.2-.2.4-.4.6c-.2.1-.5.2-.7.3c-.3.1-.6.1-.9.1c-.3 0-.6 0-.9-.1c-.3-.1-.5-.2-.7-.3c-.2-.2-.3-.4-.4-.6c-.1-.2-.2-.4-.2-.6c0-.3.1-.5.2-.7c.1-.2.2-.4.4-.5c.2-.2.4-.3.7-.3c.3-.1.6-.2.9-.2c.3 0 .6.1.9.2c.2 0 .5.1.7.3c.2.1.3.3.4.5c.1.2.2.4.2.7zm-3.6 0c0 .3.1.5.4.7c.2.2.6.3 1 .3c.4 0 .8-.1 1-.3c.3-.2.4-.4.4-.7c0-.3-.1-.6-.4-.8c-.2-.1-.6-.2-1-.2c-.4 0-.8.1-1 .2c-.3.2-.4.5-.4.8zm0 5.3v-3h5.8v3h-5.8zm.8-2.4v1.7h4.1v-1.7h-4.1zm14-6.7h.8v9.2h-.8V19zm-1.6 3.6v-3.3h.7v8.4h-.7v-4.4h-1.3c-.1.6-.3 1.2-.5 1.7c-.2.6-.5 1.1-.9 1.6l-.6-.4c.3-.4.6-.8.7-1.3c.2-.4.4-.9.5-1.3c.1-.5.2-1 .2-1.4c.1-.5.1-1 .1-1.4c-.02.02-1 0-1 0v-.7s1.71.03 1.7 0v1.2c0 .5-.1.9-.1 1.3c-.02.03 1.2 0 1.2 0zm-5.1-2.5s1.99.03 2 0c0 .5 0 1-.1 1.5c0 .5-.1 1-.2 1.5c-.1.5-.3 1-.5 1.5c-.2.5-.5 1-.8 1.4l-.6-.3c.2-.4.5-.8.7-1.2c.2-.4.3-.8.4-1.2l.3-1.2c0-.4.1-.9.1-1.3c-.03.02-1.3 0-1.3 0v-.7zm17.5 2.7v.7h-1.5v4.7h-.9v-9.1h.9v3.7h1.5zm-5.5-3.6v1.3h2.3v.7h-5.4v-.7h2.3v-1.3h.8zm-.4 2.7c.3 0 .6.1.9.2c.3.1.5.2.7.4c.2.2.4.4.5.7c.1.3.1.5.1.8c0 .4 0 .6-.1.9c-.1.3-.3.5-.5.7c-.2.2-.4.3-.7.4c-.3.1-.6.1-.9.1c-.3 0-.6 0-.9-.1c-.3-.1-.5-.2-.7-.4c-.2-.2-.3-.4-.4-.7c-.2-.3-.2-.5-.2-.9c0-.3 0-.5.2-.8c.1-.3.2-.5.4-.7c.2-.2.4-.3.7-.4c.3-.1.6-.2.9-.2zm0 3.6c.2 0 .4-.1.6-.2c.2 0 .3-.1.4-.2c.2-.2.3-.3.3-.5c.1-.2.1-.3.1-.6c0-.2 0-.3-.1-.5c0-.2-.1-.3-.3-.5c-.1-.1-.2-.2-.4-.3c-.2 0-.4-.1-.6-.1c-.2 0-.4.1-.6.1c-.1.1-.3.2-.4.3c-.1.2-.2.3-.3.5c-.1.2-.1.3-.1.5c0 .3 0 .4.1.6c.1.2.2.3.3.5c.1.1.3.2.4.2c.2.1.4.2.6.2zm13.8-3.7v.7h-6.2v-3.1h.9v2.4h5.3zm-7.3 1.9h8.3v.7h-8.3v-.7zm1.9 1.6v2h5.5v.7h-6.3v-2.7h.8zm13.9 1h3.8v.7h-8.3v-.7h3.7v-1.9h-2.8v-4.7h.9v1.6h4.6v-1.6h.9v4.7h-2.8v1.9zm-2.7-4.3v1.7h4.6V22h-4.6zm8.1 2.4l-.4-.6c.4-.1.8-.2 1.2-.4c.4-.2.8-.4 1.1-.7c.3-.3.6-.6.8-.9c.2-.3.3-.7.3-1c-.04-.05 0-.2 0-.2h-3.1v-.7h7v.7h-3.1s.02.15 0 .2c0 .3.1.7.3 1c.2.3.5.6.8.9c.3.3.7.5 1.1.7c.4.1.8.3 1.2.3l-.4.7l-1-.3c-.4-.2-.7-.3-1-.6c-.3-.2-.6-.4-.8-.7c-.3-.2-.5-.5-.6-.8c-.1.3-.3.6-.6.9c-.2.2-.5.5-.8.7c-.3.2-.6.4-1 .5c-.3.2-.7.3-1 .3zm3.8 1.9h3.7v.7h-8.3v-.7h3.8v-2.2h.8v2.2zm11.3-7.3h.8v9.2h-.8V19zm-6.1 1s4.25.03 4.2 0c0 .7 0 1.3-.2 1.9c-.1.7-.4 1.2-.7 1.8c-.4.5-.8 1-1.4 1.5c-.5.5-1.1.9-1.9 1.3l-.5-.7c1.3-.6 2.2-1.3 2.8-2.2c.7-.8 1-1.8 1.1-2.9h-3.4v-.7zm15.3-1h.8v9.2h-.8V19zm-6.2 1s4.33.03 4.3 0c0 .7-.1 1.3-.2 1.9c-.2.7-.4 1.2-.8 1.8c-.3.5-.7 1-1.3 1.5c-.5.5-1.2.9-1.9 1.3l-.5-.7c1.3-.6 2.2-1.3 2.8-2.2c.6-.8 1-1.8 1.1-2.9h-3.5v-.7zm15.6 1.6h1.9v-2.5h.8v6.7h-.8v-3.5h-1.9v-.7zm.6 2.1l-.5.7c-.5-.2-.9-.5-1.3-.8c-.4-.4-.7-.8-.9-1.3c-.2.5-.5 1-.9 1.4c-.4.4-.8.7-1.4.9l-.4-.7c.3-.1.6-.3.9-.5c.3-.2.6-.4.8-.7c.2-.2.3-.5.4-.8c.1-.3.2-.6.2-1v-.4h-2v-.7h4.8v.7h-2s.04.42 0 .4c0 .3.1.6.2.9c.1.3.3.5.5.8c.1.2.4.5.7.7c.2.2.5.3.9.4zm-2.9 3.6h5.3v.7h-6.2v-2.8h.9v2.1zm13.9-7.8v3.2h-6.2v-3.2h6.2zm-.9 2.5v-1.9h-4.5v1.9h4.5zm-6.4 1.7h8.3v.7h-3.6v1.8h-.9v-1.8h-3.8v-.7zm1.9 1.7v1.9h5.5v.7h-6.3v-2.6h.8zm18-2.6v.6H174v4.8h-.8v-9.1h.8v3.7h1.6zm-5.5-3s-.03 1.68 0 1.7c0 .4 0 .8.2 1.2c.1.4.2.7.5 1.1c.2.3.4.7.7.9c.3.3.6.5.9.7l-.5.7c-.5-.3-1-.7-1.3-1.2c-.4-.5-.7-1-.9-1.7c-.2.7-.5 1.3-.9 1.8c-.4.5-.9 1-1.4 1.2l-.5-.6c.3-.2.6-.4.9-.7c.3-.3.6-.6.8-1c.2-.4.3-.8.5-1.2c.1-.4.1-.8.1-1.2c.05-.02 0-1.7 0-1.7h.9zm11.9.4v.6h-5.6v-.6h2.4v-1.1h.8v1.1h2.4zm.8-1.1h.8v9.1h-.8v-9.1zm-3.2 5.6v1c.5 0 .9-.1 1.3-.1c.5 0 .9-.1 1.3-.1l.1.6c-.5.1-1 .1-1.6.2c-.5 0-1 .1-1.5.1h-1.5c-.5.1-.9.1-1.3.1l-.2-.7c.4 0 .8-.1 1.3-.1h1.3v-1c-.6 0-1-.2-1.3-.5c-.3-.3-.5-.7-.5-1.2c0-.2.1-.4.2-.6c.1-.3.2-.4.4-.6c.2-.1.4-.2.7-.3c.3-.1.6-.1.9-.1c.3 0 .6 0 .9.1c.3.1.5.2.7.3c.2.2.3.3.4.6c.2.2.2.4.2.6c0 .5-.2.9-.5 1.2c-.3.3-.7.5-1.3.5zm-1.8-1.7c0 .4.1.6.4.8c.2.2.6.3 1 .3c.4 0 .8-.1 1-.3c.3-.2.4-.4.4-.8c0-.3-.1-.5-.4-.7c-.2-.2-.6-.3-1-.3c-.4 0-.8.1-1 .3c-.3.2-.4.4-.4.7zm14.3-4h.8v5.5h-.8v-2.4h-1.8v-.7h1.8V19zm-1.3 4.5l-.5.7c-.5-.2-.9-.5-1.3-.9c-.4-.3-.7-.7-.9-1.2c-.2.5-.5 1-.9 1.4c-.4.4-.8.7-1.4.9l-.4-.7c.3-.1.6-.3.9-.5c.3-.2.6-.4.8-.7c.2-.2.3-.5.4-.8c.1-.3.2-.7.2-1v-.4h-2v-.6h4.8v.6h-2s.04.41 0 .4c0 .3.1.6.2.9c.1.3.3.5.5.8c.1.2.4.5.7.6c.2.2.5.4.9.5zm-4 2.2v-.7h6.1v3.2h-.8v-2.5h-5.3zm14.4-6.7h.9v9.2h-.9V19zm-6.1 1s4.27.03 4.3 0c0 .7-.1 1.3-.3 1.9c-.1.7-.4 1.2-.7 1.8c-.4.5-.8 1-1.3 1.5c-.6.5-1.2.9-2 1.3l-.4-.7c1.2-.6 2.1-1.3 2.8-2.2c.6-.8.9-1.8 1-2.9h-3.4v-.7zm15.3-.9h.9v4.9h-.9v-2.1s-1.84.01-1.8 0c-.1.6-.4 1-.8 1.3c-.4.3-.9.5-1.6.5c-.3 0-.6 0-.9-.2c-.3-.1-.6-.2-.8-.4c-.2-.2-.3-.4-.5-.7c-.1-.2-.1-.5-.1-.8c0-.3 0-.6.1-.9c.2-.2.3-.5.5-.6c.2-.2.5-.4.8-.5c.3-.1.6-.1.9-.1c.3 0 .6 0 .9.1c.2.1.5.2.7.4c.2.1.4.3.5.5c.1.2.2.5.2.7c.05.02 1.9 0 1.9 0v-2.1zm-4.2 3.9c.2 0 .5 0 .7-.1c.1-.1.3-.2.4-.3c.2-.1.3-.3.4-.4c0-.2.1-.4.1-.6c0-.2-.1-.4-.1-.6c-.1-.2-.2-.3-.4-.4c-.1-.2-.3-.3-.4-.3c-.2-.1-.5-.1-.7-.1c-.2 0-.4 0-.6.1c-.2 0-.4.1-.5.3c-.1.1-.2.2-.3.4c-.1.2-.1.4-.1.6c0 .2 0 .4.1.6c.1.1.2.3.3.4c.1.1.3.2.5.3c.2.1.4.1.6.1zm4.2 2.6v-1.2h.9v3.7h-5.9v-3.7h.8v1.2h4.2zm0 1.8v-1.2h-4.2v1.2h4.2zm9.2-8.4h.8v9.2h-.8V19zm-4 .7c.3 0 .6.1.9.3c.3.1.5.3.7.6c.2.3.4.6.5 1c.1.4.2.8.2 1.3c0 .5-.1 1-.2 1.4c-.1.3-.3.7-.5 1c-.2.2-.4.5-.7.6c-.3.2-.6.2-.9.2c-.4 0-.7 0-1-.2c-.3-.1-.5-.4-.7-.6c-.2-.3-.4-.7-.5-1c-.1-.4-.2-.9-.2-1.4c0-.5.1-.9.2-1.3c.1-.4.3-.7.5-1c.2-.3.4-.5.7-.6c.3-.2.6-.3 1-.3zm0 .8c-.3 0-.5.1-.7.2c-.1.1-.3.3-.4.5c-.2.2-.3.4-.4.7c0 .3-.1.7-.1 1c0 .4.1.7.1 1c.1.3.2.6.4.8c.1.2.3.4.4.5c.2.1.4.2.7.2c.2 0 .4-.1.6-.2c.2-.1.3-.3.5-.5c.1-.2.2-.5.3-.8c0-.3.1-.6.1-1c0-.3-.1-.7-.1-1c-.1-.3-.2-.5-.3-.7c-.2-.2-.3-.4-.5-.5c-.2-.1-.4-.2-.6-.2zm15 2.2v.6h-1.5v4.9h-.8V19h.8v3.7h1.5zm-7.3-2.1v4.6h2.2c.3-.1.6-.1 1-.1c.3-.1.6-.1.9-.2l.1.7c-.3.1-.7.1-1 .2c-.3 0-.7 0-1 .1h-2.3c0 .03-.7 0-.7 0v-6h4.2v.7h-3.4zm7.9 7v-1h.9v1h-.9zm12.8-4.9v.7h-1.5v4.8h-.8v-9.1h.8v3.6h1.5zm-5.4-2s-.03 1.14 0 1.1c0 .4 0 .8.2 1.1c.1.4.2.8.5 1.1c.2.3.4.6.7.9c.3.3.6.5.9.6l-.4.7c-.6-.2-1-.6-1.4-1.1c-.4-.5-.7-1.1-.9-1.7c-.1.3-.3.7-.4 1c-.2.3-.4.6-.6.8c-.2.3-.4.5-.6.7c-.3.2-.5.4-.8.5l-.5-.6c.4-.2.7-.4 1-.7c.3-.3.5-.6.7-1c.2-.3.4-.7.5-1.1c.2-.4.2-.8.2-1.2c.04.04 0-1.1 0-1.1h-2.1v-.7h5v.7h-2zm13-1.7h.8v9.2h-.8V19zm-1.8 3.3v-3.1h.8v8.5h-.8V23h-1.5v-.7h1.5zm-2.4-2.4s-.02 1.72 0 1.7c0 .4 0 .8.1 1.1c.1.4.2.7.4 1.1c.1.3.3.6.6.9c.2.3.5.5.8.7l-.5.6c-.4-.2-.8-.6-1.1-1.1c-.3-.4-.6-.9-.7-1.5c-.2.6-.4 1.2-.7 1.7c-.4.5-.8.8-1.2 1.1l-.5-.6c.3-.2.6-.4.8-.7c.3-.3.5-.6.6-1c.2-.3.3-.7.4-1.1c.1-.4.2-.8.2-1.1c-.03-.05 0-1.8 0-1.8h.8zm12.6 3.5c-.4 0-.9 0-1.3-.1c-.3-.1-.7-.3-1-.4c-.2-.2-.5-.4-.6-.7c-.2-.2-.2-.5-.2-.8c0-.3 0-.6.2-.8c.1-.3.4-.5.6-.7c.3-.1.7-.3 1-.4c.4 0 .9-.1 1.3-.1c.5 0 1 .1 1.4.1c.3.1.7.3 1 .4c.2.2.5.4.6.7c.2.2.3.5.3.8c0 .3-.1.6-.3.8c-.1.3-.4.5-.6.7c-.3.1-.7.3-1 .4c-.4.1-.9.1-1.4.1zm0-3.3c-.3 0-.6 0-.9.1c-.3 0-.5.1-.7.2c-.2.2-.4.3-.5.5c-.1.1-.2.3-.2.5c0 .2.1.4.2.5c.1.2.3.4.5.5c.2.1.4.2.7.2c.3.1.6.1.9.1c.4 0 .7 0 1-.1c.3 0 .5-.1.7-.2c.3-.1.4-.3.5-.5c.1-.1.2-.3.2-.5c0-.2-.1-.4-.2-.5c-.1-.2-.2-.3-.5-.5c-.2-.1-.4-.2-.7-.2c-.3-.1-.6-.1-1-.1zm4.2 4.2v.6H262v3.3h-.8v-3.3h-2.3v3.3h-.8v-3.3h-2.2v-.6h8.3zm7.6-5.2h.8v9.1h-.8v-9.1zm-3.4 1.6s-.03 1.14 0 1.1c0 .4 0 .8.2 1.2c.1.4.3.7.5 1.1c.2.3.5.6.8.8c.3.3.6.5.9.6l-.5.7c-.5-.2-1-.6-1.4-1.1c-.4-.5-.7-1.1-.9-1.7c-.1.3-.3.7-.4 1c-.2.3-.4.6-.6.8c-.2.3-.4.5-.7.7c-.2.2-.4.4-.7.5l-.5-.6c.3-.2.6-.4.9-.7c.3-.3.6-.6.8-.9c.2-.4.4-.8.5-1.2c.2-.4.2-.8.2-1.2c.03.04 0-1.1 0-1.1h-2.1v-.7h5.1v.7h-2.1zM281 19h.8v9.2h-.8V19zm-6.2 1s4.31.03 4.3 0c0 .7-.1 1.3-.2 1.9c-.2.7-.4 1.2-.8 1.8c-.3.5-.8 1-1.3 1.5c-.5.5-1.2.9-1.9 1.3l-.5-.7c1.2-.6 2.2-1.3 2.8-2.2c.6-.8 1-1.8 1.1-2.9h-3.5v-.7zm15.3-1h.9v9.2h-.9V19zm-6.1 1s4.29.03 4.3 0c0 .7-.1 1.3-.2 1.9c-.2.7-.4 1.2-.8 1.8c-.3.5-.8 1-1.3 1.5c-.6.5-1.2.9-2 1.3l-.4-.7c1.2-.6 2.1-1.3 2.8-2.2c.6-.8 1-1.8 1-2.9H284v-.7zm17.1 2.8v.7h-1.4v4.7h-.9V19h.9v3.8h1.4zm-5.3 1.1v1.6c.4-.1.8-.1 1.3-.1c.4-.1.8-.1 1.2-.1v.6c-.4 0-.9.1-1.4.2c-.5 0-1 0-1.5.1h-2.7l-.2-.7h2.5v-1.6c-.3 0-.6-.1-.8-.2c-.3-.1-.5-.3-.7-.5c-.2-.2-.3-.4-.4-.6c-.1-.3-.1-.5-.1-.8c0-.3 0-.6.1-.9c.2-.3.3-.5.5-.7c.2-.2.5-.3.8-.4c.3-.1.6-.2 1-.2c.3 0 .6.1.9.2c.3.1.6.2.8.4c.2.2.4.4.5.7c.1.3.2.6.2.9c0 .3-.1.5-.1.8c-.1.2-.3.4-.5.6c-.1.2-.4.3-.6.5c-.2.1-.5.2-.8.2zm-2-2.1c0 .4.1.8.4 1c.3.3.7.4 1.2.4c.4 0 .8-.1 1.1-.4c.3-.2.5-.6.5-1c0-.2-.1-.4-.1-.6c-.1-.2-.2-.3-.4-.5c-.1-.1-.3-.2-.5-.3c-.2 0-.4-.1-.6-.1c-.3 0-.5.1-.7.1c-.2.1-.3.2-.5.3c-.1.2-.2.3-.3.5c-.1.2-.1.4-.1.6zm17.2-.4h1.4v.7H311v2.5h-.8v-5.5h.8v2.3zm-1.8 2.1l-.4.6c-.5-.1-1-.4-1.3-.7c-.4-.4-.7-.8-.9-1.2c-.2.5-.5.9-.9 1.3c-.4.4-.9.7-1.4.9l-.4-.7c.3-.1.6-.3.9-.5c.3-.2.5-.4.7-.6c.2-.3.4-.6.5-.9c.1-.3.2-.6.2-.9c-.04-.05 0-.4 0-.4h-2.1v-.7h4.9v.7h-2v.4c0 .3 0 .5.2.8c.1.3.2.6.4.8c.2.2.4.4.7.6c.3.2.6.4.9.5zm-1.1 1.3c.5 0 .9 0 1.2.1c.4.1.7.2 1 .3c.3.2.5.4.6.6c.1.2.2.4.2.7c0 .3-.1.5-.2.7c-.1.2-.3.4-.6.5c-.3.2-.6.3-1 .4c-.3 0-.7.1-1.2.1c-.9 0-1.7-.2-2.2-.5c-.6-.3-.8-.7-.8-1.2c0-.5.2-1 .8-1.3c.5-.2 1.3-.4 2.2-.4zm0 2.7c.7 0 1.2-.1 1.6-.3c.4-.1.6-.4.6-.7c0-.3-.2-.6-.6-.8c-.4-.1-.9-.2-1.6-.2c-.7 0-1.2.1-1.6.2c-.4.2-.6.5-.6.8c0 .3.2.6.6.7c.4.2.9.3 1.6.3zm12-8.5h.8v9.2h-.8v-4.9h-1.3v4.4h-.8v-8.5h.8v3.5h1.3V19zm-5 .8c.3 0 .6.1.9.2c.2.2.4.4.6.7c.1.2.3.6.4 1c.1.4.1.8.1 1.3c0 .5 0 .9-.1 1.3c-.1.4-.3.7-.4 1c-.2.3-.4.5-.6.7c-.3.1-.6.2-.9.2c-.2 0-.5-.1-.8-.2c-.2-.2-.4-.4-.6-.7c-.1-.3-.3-.6-.4-1c-.1-.4-.1-.8-.1-1.3c0-.5 0-.9.1-1.3c.1-.4.3-.8.4-1c.2-.3.4-.5.6-.7c.3-.1.6-.2.8-.2zm0 5.6c.4 0 .7-.2.9-.6c.2-.5.3-1.1.3-1.8c0-.8-.1-1.3-.3-1.8c-.2-.4-.5-.6-.9-.6c-.3 0-.6.2-.8.6c-.2.5-.3 1-.3 1.8c0 .7.1 1.3.3 1.8c.2.4.5.6.8.6zm17.8-2.7v.7h-1.5v4.8h-.8v-9.1h.8v3.6h1.5zm-6.1-3c.3 0 .6.1.9.3c.3.1.5.3.7.6c.2.3.4.6.5 1c.1.4.2.8.2 1.3c0 .5-.1 1-.2 1.4c-.1.3-.3.7-.5 1c-.2.2-.4.5-.7.6c-.3.2-.6.2-.9.2c-.4 0-.7 0-.9-.2c-.3-.1-.6-.4-.8-.6c-.2-.3-.3-.7-.5-1c-.1-.4-.1-.9-.1-1.4c0-.5 0-.9.1-1.3c.2-.4.3-.7.5-1c.2-.3.5-.5.8-.6c.2-.2.5-.3.9-.3zm0 5.7c.2 0 .4-.1.6-.2c.2-.1.3-.3.5-.5c.1-.2.2-.5.3-.8c0-.3.1-.6.1-1c0-.3-.1-.7-.1-1c-.1-.3-.2-.5-.3-.7c-.2-.2-.3-.4-.5-.5c-.2-.1-.4-.2-.6-.2c-.2 0-.4.1-.6.2c-.2.1-.4.3-.5.5c-.1.2-.2.4-.3.7c-.1.3-.1.7-.1 1c0 .4 0 .7.1 1c.1.3.2.6.3.8c.1.2.3.4.5.5c.2.1.4.2.6.2zm11.3-1.8h3.7v.6h-8.3v-.6h3.8v-1.1h-2.7v-3h6.2v.6h-5.4v1.7h5.4v.7h-2.7v1.1zm-.4 1.3c.9 0 1.7.1 2.3.4c.5.3.8.7.8 1.2c0 .6-.3 1-.8 1.3c-.6.2-1.4.4-2.3.4c-1 0-1.8-.2-2.3-.4c-.6-.3-.9-.7-.9-1.3c0-.5.3-.9.9-1.2c.5-.3 1.3-.4 2.3-.4zm0 2.6c.7 0 1.2 0 1.6-.2c.4-.2.6-.4.6-.8c0-.3-.2-.5-.6-.7c-.4-.2-.9-.3-1.6-.3c-.8 0-1.3.1-1.7.3c-.4.2-.6.4-.6.7c0 .4.2.6.6.8c.4.2.9.2 1.7.2zm11.2-3.9h2.1v.6h-8.3v-.6h2s.05-1.32 0-1.3c-.7-.3-1.1-.8-1.1-1.4c0-.3.1-.5.3-.7c.1-.2.3-.4.6-.5c.3-.2.6-.3 1-.4c.4-.1.8-.1 1.3-.1c.5 0 1 0 1.4.1c.4.1.7.2 1 .4c.3.1.5.3.6.5c.2.2.3.4.3.7c0 .3-.1.6-.3.8c-.2.2-.5.4-.9.6c.04-.03 0 1.3 0 1.3zm-4.4-2.7c0 .3.2.6.6.8c.4.2 1 .3 1.7.3c.8 0 1.4-.1 1.8-.3c.4-.2.6-.5.6-.8c0-.3-.2-.6-.6-.8c-.4-.2-1-.2-1.8-.2c-.7 0-1.3 0-1.7.2c-.4.2-.6.5-.6.8zm1.1 1.6c-.03 0 0 1.1 0 1.1h2.5s.01-1.1 0-1.1c-.2 0-.4.1-.6.1h-1.3c-.2 0-.4-.1-.6-.1zm1.2 2.4c1 0 1.8.2 2.3.4c.6.3.9.7.9 1.3c0 .5-.3.9-.9 1.2c-.5.2-1.3.4-2.3.4c-.9 0-1.7-.2-2.3-.4c-.5-.3-.8-.7-.8-1.2c0-.6.3-1 .8-1.3c.6-.2 1.4-.4 2.3-.4zm0 2.6c.8 0 1.3 0 1.7-.2c.4-.2.6-.4.6-.7c0-.4-.2-.6-.6-.8c-.4-.1-.9-.2-1.7-.2c-.7 0-1.2.1-1.6.2c-.4.2-.6.4-.6.8c0 .3.2.5.6.7c.4.2.9.2 1.6.2z" stroke="none" fill="#111111"/></g><g id="Polygon112737"><path d="m8 .5v6.8h-.8V.5h.8zM6 5.1l-.4.7c-.5-.2-1-.5-1.4-.9c-.3-.4-.6-.9-.8-1.4c-.2.6-.5 1-.9 1.5c-.4.4-.9.7-1.4.9l-.5-.6c.4-.2.7-.3 1-.6c.3-.2.5-.4.7-.7c.2-.3.4-.6.5-1c.1-.3.1-.7.1-1c.03-.02 0-.9 0-.9h.9s-.04.88 0 .9c0 .3 0 .7.1 1c.1.3.3.6.5.9c.2.2.4.5.7.7c.3.2.6.4.9.5zM3 8.8h5.3v.7H2.2V6.6h.8v2.2zM16.7.5h.8v9.2h-.8V.5zm-1.8 3.7V.8h.7v8.4h-.7V4.8h-1.4v-.6h1.4zm-2.5-1.3s-.02.46 0 .5c0 .3 0 .7.1 1c.1.4.2.7.4 1.1c.2.3.4.6.6.8c.3.3.5.5.9.7l-.5.6c-.5-.2-.9-.6-1.2-1c-.3-.5-.5-1-.7-1.5c-.2.6-.4 1.1-.7 1.6c-.3.5-.7.8-1.2 1.1l-.5-.6c.4-.2.6-.4.9-.7l.6-.9c.1-.4.3-.7.4-1.1c0-.4.1-.8.1-1.1v-.5H9.9v-.7h1.7V.9h.8v1.3h1.7v.7h-1.7zM25.6.5h.8v5.5h-.8V3.6h-1.8v-.7h1.8V.5zM24.3 5l-.4.7c-.5-.2-1-.5-1.4-.9c-.3-.3-.6-.7-.8-1.2c-.2.5-.5 1-.9 1.4c-.4.4-.9.7-1.4.9l-.5-.7c.4-.1.7-.3 1-.5c.2-.2.5-.4.7-.7c.2-.2.4-.5.5-.8c.1-.3.1-.7.1-1c.04.01 0-.4 0-.4h-2v-.6h4.9v.6h-2s-.03.41 0 .4c0 .3 0 .6.1.9c.1.3.3.5.5.8c.2.2.4.5.7.6c.3.2.6.4.9.5zm-4 2.2v-.7h6.1v3.2h-.8V7.2h-5.3zM37.4.7v3h-6.1v-3h.8v.9h4.4v-.9h.9zm-.9 2.4v-.9h-4.4v.9h4.4zm1.9 2h-3.7v.9h2.7v2.1H32v.8h5.6v.7h-6.4V7.4h5.3v-.7h-5.3v-.7h2.7v-.9h-3.7v-.7h8.2v.7zM46 7.3V4.7h-1.5v-.7h1.5v-1h-1.5v-.7h1.5V.6h.9v6.7h-.9zM44.7 5l.1.7c-.5 0-.9.1-1.4.1c-.5.1-.9.1-1.4.1c-.4 0-.9.1-1.3.1h-1.2c-.04-.03-.1-.7-.1-.7c0 0 .83-.03.8 0h.3c.02-.04 0-3.3 0-3.3h-.9v-.7h4.8v.7h-.9s.02 3.15 0 3.2c.2-.1.4-.1.6-.1c.2 0 .4 0 .6-.1zm-3.4-3s.03 3.25 0 3.3c.3-.1.5-.1.7-.1h.7V2h-1.4zm.6 6.8h5.2v.7H41V6.8h.9v2zm10.8-7.7c.4 0 .9.1 1.3.2c.4.1.7.3 1 .5c.3.2.6.5.7.8c.2.3.3.7.3 1c0 .4-.1.8-.3 1.1c-.1.3-.4.6-.7.8c-.3.2-.6.4-1 .5c-.4.1-.9.2-1.3.2c-.5 0-1-.1-1.4-.2c-.4-.1-.7-.3-1-.5c-.3-.2-.5-.5-.7-.8c-.2-.3-.3-.7-.3-1.1c0-.3.1-.7.3-1c.2-.3.4-.6.7-.8c.3-.2.6-.4 1-.5c.4-.1.9-.2 1.4-.2zm0 .7c-.4 0-.7 0-1.1.1c-.3.1-.5.2-.8.4c-.2.2-.4.4-.5.6c-.1.2-.2.5-.2.7c0 .3.1.6.2.8c.1.2.3.4.5.6c.3.1.5.3.8.4c.4 0 .7.1 1.1.1c.3 0 .6-.1 1-.1c.3-.1.5-.3.8-.4c.2-.2.4-.4.5-.6c.1-.2.2-.5.2-.8c0-.2-.1-.5-.2-.7c-.1-.2-.3-.4-.5-.6c-.3-.2-.5-.3-.8-.4c-.4-.1-.7-.1-1-.1zm-4.2 6h8.3v.7h-8.3v-.7zm13.8.1h3.7v.7h-8.3v-.7h3.7V6.2h-2.7V3.3h5.5V1.9h-5.5v-.7h6.3v2.8h-5.4v1.5h5.6v.7h-2.9v1.7zM75.7.5h.8v9.2h-.8v-5h-2c0 .5-.1.9-.2 1.2c-.2.4-.3.7-.5.9c-.2.3-.4.5-.7.6c-.3.2-.6.2-.9.2c-.3 0-.6 0-.9-.2c-.3-.1-.5-.4-.7-.6c-.2-.3-.4-.7-.5-1c-.1-.4-.2-.9-.2-1.4c0-.5.1-.9.2-1.3c.1-.4.3-.7.5-1c.2-.3.4-.5.7-.6c.3-.2.6-.3.9-.3c.3 0 .6.1.9.2c.2.2.5.4.7.6c.2.2.3.5.4.9c.2.3.2.7.3 1.1c-.03.03 2 0 2 0V.5zm-4.3 6.4c.2 0 .4-.1.6-.2c.2-.1.3-.3.5-.5c.1-.2.2-.5.3-.8c.1-.3.1-.6.1-1c0-.3 0-.7-.1-1c-.1-.3-.2-.5-.3-.7c-.2-.2-.3-.4-.5-.5c-.2-.1-.4-.2-.6-.2c-.2 0-.4.1-.6.2c-.2.1-.3.3-.5.5c-.1.2-.2.4-.3.7c0 .3-.1.7-.1 1c0 .4.1.7.1 1c.1.3.2.6.3.8c.2.2.3.4.5.5c.2.1.4.2.6.2zM84.8.5h.9v9.2h-.9V5.8H83v-.7h1.8V3.3H83v-.7h1.8V.5zm-5.5 4.1v2.3c.7 0 1.3 0 1.9-.1c.6 0 1.3-.1 1.9-.2l.1.7c-.3 0-.7.1-1 .1c-.4.1-.7.1-1 .1c-.3 0-.7 0-1 .1h-1c-.03-.03-.7 0-.7 0V4h3.1v-2h-3.1v-.6h4v3.2h-3.2zm12.2-.5c-.5 0-1 0-1.4-.1c-.4 0-.7-.2-1-.3c-.3-.1-.5-.3-.6-.5c-.2-.2-.3-.5-.3-.8c0-.2.1-.5.3-.7c.1-.2.3-.4.6-.5c.3-.2.6-.3 1-.4c.4 0 .9-.1 1.4-.1c.5 0 .9.1 1.3.1c.4.1.7.2 1 .4c.3.1.5.3.6.5c.2.2.3.5.3.7c0 .3-.1.6-.3.8c-.1.2-.3.4-.6.5c-.3.1-.6.3-1 .3c-.4.1-.8.1-1.3.1zm0-2.7c-.8 0-1.4.1-1.8.2c-.4.2-.6.5-.6.8c0 .4.2.6.6.8c.4.2 1 .3 1.8.3c.7 0 1.3-.1 1.7-.3c.4-.2.6-.4.6-.8c0-.3-.2-.6-.6-.8c-.4-.1-1-.2-1.7-.2zm4.1 4.1h-3.7v1.1h2.7v3h-6.3v-3h2.7V5.5h-3.7v-.7h8.3v.7zm-1.8 3.4V7.2h-4.6v1.7h4.6zm6.8-5c-1 0-1.8-.2-2.3-.4c-.6-.3-.9-.7-.9-1.2c0-.5.3-.9.9-1.2c.5-.3 1.3-.4 2.3-.4c1 0 1.8.1 2.4.4c.6.3.8.7.8 1.2c0 .5-.2.9-.8 1.2c-.6.2-1.4.4-2.4.4zm0-2.6c-.7 0-1.3.1-1.7.3c-.4.1-.6.4-.6.7c0 .3.2.5.6.7c.4.2 1 .2 1.7.2c.8 0 1.4 0 1.8-.2c.4-.2.6-.4.6-.7c0-.3-.2-.6-.6-.7c-.4-.2-1-.3-1.8-.3zm-4.1 3.2h8.3v.7h-8.3v-.7zM98.3 8v.9h5.7v.7h-6.5V7.4h5.4v-.8h-5.4v-.7h6.2v2.1h-5.4zM114.5.5h.8v5.4h-.8V4.8h-2.4v-.7h2.4V2.8h-2.3c-.3.7-.8 1.4-1.5 1.9c-.6.5-1.5.9-2.5 1.1l-.3-.6l1.5-.6c.4-.2.8-.5 1.1-.8c.4-.2.6-.6.8-.9c.2-.3.3-.7.3-1.1h-3.2v-.7s4.15.02 4.1 0c0 .3 0 .6-.1 1c.03.03 2.1 0 2.1 0V.5zM109 7v-.7h2.9v3.4h-.8V7H109zm3.4 0v-.7h2.9v3.4h-.8V7h-2.1zm11-4.6v-.3h-5.6v-.6h6.4s.04.87 0 .9v1.8c0 .4-.1.7-.1 1.1c-.1.4-.1.8-.2 1.3l-.8-.1c.1-.9.2-1.6.3-2.3V2.4zM121 7.7h4.2v.7H117v-.7h3.2V4.4h.8v3.3zM135.7.6v5.2h-.8V.6h.8zm-4.9 4.7c-.4 0-.7 0-1-.1c-.2-.1-.5-.3-.7-.4c-.2-.2-.4-.5-.5-.7c-.1-.3-.2-.6-.2-.9c0-.3.1-.6.2-.9c.1-.2.3-.4.5-.6c.2-.2.5-.4.7-.5c.3-.1.6-.1 1-.1c.3 0 .7 0 1 .1c.2.1.5.3.7.5c.2.2.4.4.5.6c.1.3.2.6.2.9c0 .3-.1.6-.2.9c-.1.2-.3.5-.5.7c-.2.1-.5.3-.7.4c-.3.1-.7.1-1 .1zm0-3.5c-.2 0-.4 0-.6.1c-.2.1-.4.2-.5.3c-.2.1-.3.3-.3.4c-.1.2-.2.4-.2.6c0 .2.1.4.2.6c0 .2.1.3.3.4c.1.2.3.3.5.3c.2.1.4.2.6.2c.2 0 .4-.1.6-.2c.2 0 .4-.1.5-.3c.2-.1.3-.2.4-.4c0-.2.1-.4.1-.6c0-.2-.1-.4-.1-.6c-.1-.1-.2-.3-.4-.4c-.1-.1-.3-.2-.5-.3c-.2-.1-.4-.1-.6-.1zm3.9 4.4v.5c0 .2 0 .4.1.7c.1.2.2.4.4.6c.1.2.3.4.5.6c.3.1.5.2.8.3l-.4.7c-.4-.2-.8-.4-1.1-.7c-.3-.3-.6-.7-.7-1.1c-.2.4-.4.8-.7 1.1c-.2.3-.6.6-1 .7c-.5-.1-.8-.4-1.1-.7c-.3-.3-.5-.6-.6-1c-.2.3-.4.7-.7 1c-.3.3-.7.5-1.1.7l-.4-.7c.2-.1.5-.2.7-.4c.2-.1.4-.3.6-.5c.2-.2.3-.4.4-.7c0-.2.1-.4.1-.6v-.5h.8v.5c0 .4.1.8.3 1.2c.2.4.5.7 1 .9c.2-.1.4-.3.5-.4c.2-.2.3-.4.4-.6c.2-.2.2-.4.3-.6c0-.2.1-.4.1-.5c-.03-.04 0-.5 0-.5h.8zm10-2.9v.7h-6.2V.9h.8v2.4h5.4zm-7.3 1.9h8.3v.7h-8.3v-.7zm1.9 1.6v2h5.5v.7h-6.4V6.8h.9zm16.4-3.9h1.4v.7h-1.4v2.5h-.8V.6h.8v2.3zM153.9 5l-.3.6c-.6-.1-1-.4-1.4-.7c-.4-.4-.7-.8-.9-1.2c-.2.5-.5.9-.9 1.3c-.3.4-.8.7-1.4.9l-.4-.7c.4-.1.7-.3.9-.5c.3-.2.6-.4.8-.6c.2-.3.3-.6.4-.9c.1-.3.2-.6.2-.9v-.4h-2.1v-.7h5v.7h-2.1s.03.35 0 .4c0 .3.1.5.2.8c.1.3.2.6.4.8c.2.2.5.4.7.6c.3.2.6.4.9.5zm-1.1 1.3c.5 0 .9 0 1.3.1c.4.1.7.2.9.3c.3.2.5.4.6.6c.2.2.2.4.2.7c0 .3 0 .5-.2.7c-.1.2-.3.4-.6.5c-.2.2-.5.3-.9.4c-.4 0-.8.1-1.3.1c-.9 0-1.6-.2-2.2-.5c-.5-.3-.8-.7-.8-1.2c0-.5.3-1 .8-1.3c.6-.2 1.3-.4 2.2-.4zm0 2.7c.7 0 1.2-.1 1.6-.3c.4-.1.6-.4.6-.7c0-.3-.2-.6-.6-.8c-.4-.1-.9-.2-1.6-.2c-.7 0-1.2.1-1.6.2c-.4.2-.5.5-.5.8c0 .3.1.6.5.7c.4.2.9.3 1.6.3zm12-8.5h.8v9.2h-.8V4.8h-1.2v4.4h-.8V.7h.8v3.5h1.2V.5zm-4.9.8c.3 0 .6.1.8.2c.2.2.4.4.6.7c.2.2.3.6.4 1c.1.4.1.8.1 1.3c0 .5 0 .9-.1 1.3c-.1.4-.2.7-.4 1c-.2.3-.4.5-.6.7c-.2.1-.5.2-.8.2c-.3 0-.6-.1-.8-.2c-.3-.2-.5-.4-.6-.7c-.2-.3-.3-.6-.4-1c-.1-.4-.2-.8-.2-1.3c0-.5.1-.9.2-1.3c.1-.4.2-.8.4-1c.1-.3.3-.5.6-.7c.2-.1.5-.2.8-.2zm0 5.6c.4 0 .6-.2.9-.6c.2-.5.3-1.1.3-1.8c0-.8-.1-1.3-.3-1.8c-.3-.4-.5-.6-.9-.6c-.4 0-.7.2-.9.6c-.2.5-.3 1-.3 1.8c0 .7.1 1.3.3 1.8c.2.4.5.6.9.6zM174.5.6v6.6h-.8V.6h.8zM172 3.4c0 .4-.1.7-.2.9c-.1.3-.3.6-.5.8c-.2.2-.5.3-.8.4c-.2.1-.6.2-.9.2c-.3 0-.7-.1-.9-.2c-.3-.1-.6-.2-.8-.4c-.2-.2-.4-.5-.5-.8c-.1-.2-.2-.5-.2-.9c0-.3.1-.6.2-.9c.1-.3.3-.5.5-.7c.2-.2.5-.3.8-.5c.2-.1.6-.1.9-.1c.3 0 .7 0 .9.1c.3.2.6.3.8.5c.2.2.4.4.5.7c.1.3.2.6.2.9zm-4 0c0 .3.1.5.2.6c0 .2.1.4.3.5c.1.2.3.3.5.4c.2 0 .4.1.6.1c.2 0 .4-.1.6-.1c.2-.1.4-.2.5-.4c.2-.1.3-.3.4-.5c0-.1.1-.3.1-.6c0-.2-.1-.4-.1-.6c-.1-.2-.2-.3-.4-.5c-.1-.1-.3-.2-.5-.3c-.2-.1-.4-.1-.6-.1c-.2 0-.4 0-.6.1c-.2.1-.4.2-.5.3c-.2.2-.3.3-.3.5c-.1.2-.2.4-.2.6zm1.5 5.4h5.3v.7h-6.2v-3h.9v2.3zm15.2-4.4v.7h-1.5v4.6h-.8V.5h.8v3.9h1.5zM181 5.7l-.9-.1c.2-.8.2-1.4.3-2V2.2c0 .02-3.8 0-3.8 0v-.7h4.6v2c0 .6-.1 1.3-.2 2.2zm-2.1-1.5s-.04 2.75 0 2.7h1.5c.5-.1.9-.1 1.4-.2l.1.6c-.5.1-1 .2-1.5.2c-.5.1-1 .1-1.5.1c-.5.1-.9.1-1.4.1h-1.3l-.1-.7h1.9c.03-.03 0-2.8 0-2.8h.9zM192 7.8h3.7v.7h-8.3v-.7h3.8V5.4h-2.7V1.3h.8v3.4h5.5v.7H192v2.4zM204.1.6v6.6h-.8V.6h.8zm-2.5 2.8c0 .4 0 .7-.2.9c-.1.3-.3.6-.5.8c-.2.2-.4.3-.7.4c-.3.1-.6.2-1 .2c-.3 0-.6-.1-.9-.2c-.3-.1-.6-.2-.8-.4c-.2-.2-.4-.5-.5-.8c-.1-.2-.2-.5-.2-.9c0-.3.1-.6.2-.9c.1-.3.3-.5.5-.7c.2-.2.5-.3.8-.5c.3-.1.6-.1.9-.1c.4 0 .7 0 1 .1c.3.2.5.3.7.5c.2.2.4.4.5.7c.2.3.2.6.2.9zm-3.9 0c0 .3 0 .5.1.6c.1.2.2.4.3.5c.1.2.3.3.5.4c.2 0 .4.1.6.1c.2 0 .4-.1.6-.1c.2-.1.4-.2.5-.4c.2-.1.3-.3.4-.5c.1-.1.1-.3.1-.6c0-.2 0-.4-.1-.6c-.1-.2-.2-.3-.4-.5c-.1-.1-.3-.2-.5-.3c-.2-.1-.4-.1-.6-.1c-.2 0-.4 0-.6.1c-.2.1-.4.2-.5.3c-.1.2-.2.3-.3.5c-.1.2-.1.4-.1.6zm1.4 5.4h5.3v.7h-6.2v-3h.9v2.3zm16.1-5.5v.7h-6.3V.9h6.2v.7h-5.3v1.7h5.4zm-7.3 1.6h8.3v.7h-8.3v-.7zm4.1 1.5c1 0 1.8.1 2.3.4c.6.3.8.7.8 1.2c0 .6-.2 1-.8 1.3c-.5.2-1.3.4-2.3.4c-1 0-1.7-.2-2.3-.4c-.5-.3-.8-.7-.8-1.3c0-.5.3-.9.8-1.2c.6-.3 1.3-.4 2.3-.4zm0 2.6c.7 0 1.3-.1 1.7-.2c.4-.2.6-.4.6-.8c0-.3-.2-.5-.6-.7c-.4-.2-1-.3-1.7-.3c-.7 0-1.3.1-1.7.3c-.4.2-.6.4-.6.7c0 .4.2.6.6.8c.4.1 1 .2 1.7.2zm9.2-5.1c-1 0-1.8-.2-2.4-.4c-.5-.3-.8-.7-.8-1.2c0-.5.3-.9.8-1.2c.6-.3 1.4-.4 2.4-.4c1 0 1.8.1 2.4.4c.5.3.8.7.8 1.2c0 .5-.3.9-.8 1.2c-.6.2-1.4.4-2.4.4zm0-2.6c-.8 0-1.3.1-1.8.3c-.4.1-.6.4-.6.7c0 .3.2.5.6.7c.5.2 1 .2 1.8.2c.8 0 1.3 0 1.7-.2c.5-.2.7-.4.7-.7c0-.3-.2-.6-.7-.7c-.4-.2-.9-.3-1.7-.3zm-4.1 3.2h8.2v.7h-8.2v-.7zm1.8 3.5v.9h5.7v.7h-6.5V7.4h5.4v-.8h-5.4v-.7h6.2v2.1h-5.4zM235 .6h.8v9.1h-.8V.6zm-3.7 4.1c-.3 0-.6 0-.9-.1c-.3-.1-.5-.2-.8-.4c-.2-.2-.3-.3-.4-.6c-.2-.2-.2-.5-.2-.7c0-.3 0-.6.2-.8c.1-.2.2-.4.4-.6c.3-.2.5-.3.8-.4c.3-.1.6-.1.9-.1c.4 0 .7 0 1 .1c.2.1.5.2.7.4c.2.2.4.4.5.6c.1.2.2.5.2.8c0 .2-.1.5-.2.7c-.1.3-.3.4-.5.6c-.2.2-.5.3-.7.4c-.3.1-.6.1-1 .1zm0-3c-.4 0-.8.1-1.1.3c-.3.2-.4.5-.4.9c0 .3.1.6.4.8c.3.2.7.3 1.1.3c.5 0 .8-.1 1.1-.3c.3-.2.4-.5.4-.8c0-.4-.1-.7-.4-.9c-.3-.2-.6-.3-1.1-.3zm3 3.5l.1.6c-.9.2-1.7.3-2.6.3c-.02.01 0 3.3 0 3.3h-.9s.05-3.24 0-3.2h-2.5l-.1-.7h2.9c.5-.1 1.1-.1 1.6-.1c.5-.1 1-.1 1.5-.2zM244.5.5h.8v9.2h-.8V5.1h-1.2v4.1h-.8V.7h.8v3.7h1.2V.5zm-4.3.3v1.3h1.8v.7h-4.5v-.7h1.9V.8h.8zm-.4 2.6c.3 0 .5 0 .8.1c.2.2.4.3.6.5c.1.2.3.4.4.6c.1.3.1.6.1.9c0 .3 0 .6-.1.8c-.1.3-.3.5-.4.7c-.2.2-.4.3-.6.4c-.3.1-.5.2-.8.2c-.3 0-.6-.1-.8-.2c-.3-.1-.5-.2-.6-.4c-.2-.2-.3-.4-.4-.7c-.1-.2-.2-.5-.2-.8c0-.3.1-.6.2-.9c.1-.2.2-.4.4-.6c.1-.2.3-.3.6-.5c.2-.1.5-.1.8-.1zm0 3.5c.3 0 .6-.2.8-.4c.3-.3.4-.6.4-1c0-.2 0-.4-.1-.6c-.1-.1-.2-.3-.3-.4l-.3-.3c-.2-.1-.4-.1-.5-.1c-.4 0-.7.1-.9.4c-.2.2-.3.6-.3 1c0 .4.1.7.3 1c.2.2.5.4.9.4zm14.1-5.2v.6h-5.1v-.6h2.2V.5h.8v1.2h2.1zm0 1.3h1.6V.6h.8v6.9h-.8V5.6h-1.6v-.7h1.6V3.7h-1.6v-.7zm-.5 1.6c0 .2 0 .5-.1.7c-.1.2-.2.4-.4.5c-.2.2-.4.3-.7.4c-.2.1-.5.1-.8.1c-.3 0-.6 0-.9-.1c-.2-.1-.4-.2-.6-.4c-.2-.1-.3-.3-.4-.5c-.1-.2-.2-.5-.2-.7c0-.3.1-.5.2-.7c.1-.2.2-.4.4-.6c.2-.1.4-.3.6-.3c.3-.1.6-.2.9-.2c.3 0 .6.1.8.2c.3 0 .5.2.7.3c.2.2.3.4.4.6c.1.2.1.4.1.7zm-3.3 0c0 .3.1.6.3.8c.3.2.6.3 1 .3c.4 0 .7-.1.9-.3c.2-.2.4-.5.4-.8c0-.3-.2-.6-.4-.8c-.2-.2-.5-.3-.9-.3c-.4 0-.7.1-1 .3c-.2.2-.3.5-.3.8zm1.2 4.2h5.2v.7h-6.1V6.9h.9v1.9zM264.9.5h.8v9.2h-.8V4.9h-1.3v4.3h-.8V.7h.8v3.5h1.3V.5zm-5.8 1.8v4.4h1.6c.5-.1 1-.1 1.5-.2l.1.7c-.3 0-.6.1-.8.1c-.3 0-.6.1-.8.1h-1.8c-.02.04-.6 0-.6 0V1.7h3.4v.6h-2.6zm16.6 1.9v.7h-1.5v4.8h-.9V.6h.9v3.6h1.5zm-5.5-2s.01 1.14 0 1.1c0 .4.1.8.2 1.1c.1.4.3.8.5 1.1c.2.3.5.6.7.9c.3.3.6.5 1 .6l-.5.7c-.5-.2-1-.6-1.4-1.1c-.4-.5-.7-1.1-.9-1.7c-.1.3-.2.7-.4 1c-.2.3-.3.6-.5.8c-.2.3-.5.5-.7.7c-.2.2-.5.4-.7.5l-.5-.6c.3-.2.6-.4.9-.7c.3-.3.5-.6.8-1c.2-.3.4-.7.5-1.1c.1-.4.2-.8.2-1.2c-.02.04 0-1.1 0-1.1h-2.1v-.7h4.9v.7h-2zm10.7 2.9h3.7v.6h-8.3v-.6h3.7V4h-2.7v-3h6.3v.6h-5.4v1.7h5.4v.7h-2.7v1.1zm-.5 1.3c1 0 1.8.1 2.3.4c.6.3.9.7.9 1.2c0 .6-.3 1-.9 1.3c-.5.2-1.3.4-2.3.4c-.9 0-1.7-.2-2.3-.4c-.5-.3-.8-.7-.8-1.3c0-.5.3-.9.8-1.2c.6-.3 1.4-.4 2.3-.4zm0 2.6c.8 0 1.3 0 1.7-.2c.4-.2.6-.4.6-.8c0-.3-.2-.5-.6-.7c-.4-.2-.9-.3-1.7-.3c-.7 0-1.3.1-1.7.3c-.3.2-.5.4-.5.7c0 .4.2.6.5.8c.4.2 1 .2 1.7.2zM294 4.3v.7h-1.5v4.7h-.8V.5h.8v3.8h1.5zm-5.5-1.5s.05.71 0 .7c0 .4.1.7.2 1.1c.1.4.3.7.5 1c.2.3.4.6.7.9c.2.2.5.5.9.6l-.5.7c-.5-.3-.9-.6-1.3-1.1c-.4-.5-.7-1-.9-1.6c-.2.6-.5 1.2-.8 1.7c-.4.5-.9.9-1.4 1.1l-.5-.6l.9-.6c.3-.3.6-.6.8-.9c.2-.4.3-.7.4-1.1c.2-.4.2-.8.2-1.2c.02.01 0-.7 0-.7h-2.1v-.7h2.1V.7h.8v1.4h2.1v.7h-2.1zm12.5-.4v-.2h-5.4v-.7h6.2s.04.93 0 .9v2c0 .3-.1.7-.1 1.1c-.1.4-.1.9-.2 1.4l-.9-.1c.2-.9.3-1.8.4-2.5V2.4zm-6.3 5.3h8.2v.7h-8.2v-.7zm15.6-5.5v-.8h-5.4v-.7h6.2v2.1h-5.4v.9h5.6v.6h-6.4V2.2h5.4zm-6.5 2.9h8.3v.6h-3.7v1.2h-.8V5.7h-3.8v-.6zm6.5 2.2v-1h.8v3.3h-6.2V6.3h.9v1h4.5zm0 1.6v-.9h-4.5v.9h4.5zm9.4-8.4h.8v9.2h-.8V.5zm-4 .7c.3 0 .6.1.9.3c.3.1.6.3.8.6c.2.3.3.6.4 1c.2.4.2.8.2 1.3c0 .5 0 1-.2 1.4c-.1.3-.2.7-.4 1c-.2.2-.5.5-.8.6c-.3.2-.6.2-.9.2c-.4 0-.7 0-.9-.2c-.3-.1-.6-.4-.8-.6c-.2-.3-.3-.7-.5-1c-.1-.4-.1-.9-.1-1.4c0-.5 0-.9.1-1.3c.2-.4.3-.7.5-1c.2-.3.5-.5.8-.6c.2-.2.5-.3.9-.3zm0 .8c-.2 0-.4.1-.6.2c-.2.1-.4.3-.5.5c-.1.2-.3.4-.3.7c-.1.3-.1.7-.1 1c0 .4 0 .7.1 1c0 .3.2.6.3.8c.1.2.3.4.5.5c.2.1.4.2.6.2c.2 0 .4-.1.6-.2c.2-.1.3-.3.5-.5c.1-.2.2-.5.3-.8c.1-.3.1-.6.1-1c0-.3 0-.7-.1-1c-.1-.3-.2-.5-.3-.7c-.2-.2-.3-.4-.5-.5c-.2-.1-.4-.2-.6-.2zm9.3 2.2l-.3-.6c.4-.1.8-.1 1.2-.2c.4-.1.7-.2 1-.3c.3-.2.5-.3.7-.5c.2-.2.3-.4.4-.6c-.04-.02-2.9 0-2.9 0v-.7h2.9v-.8h.8v.8h2.9v.7s-2.8-.02-2.8 0c0 .2.1.4.3.6c.2.2.4.3.7.5c.3.1.6.2 1 .3c.4.1.8.1 1.2.2l-.2.6c-.4 0-.8-.1-1.1-.2c-.4 0-.7-.1-1-.3c-.3-.1-.6-.2-.8-.4c-.2-.1-.4-.3-.6-.5c-.1.2-.3.4-.5.5c-.3.2-.5.3-.8.4c-.3.2-.7.3-1 .3c-.4.1-.7.2-1.1.2zm7.5 1h-3.7v.9h2.7v2h-5.4v.9h5.7v.6h-6.5V7.5h5.4v-.8h-5.4v-.6h2.7v-.9h-3.7v-.6h8.2v.6zm9.5-1v.7h-1.5v4.8h-.8V.6h.8v3.6h1.5zm-5.5-2s.05 1.14 0 1.1c0 .4.1.8.2 1.1c.2.4.3.8.5 1.1c.3.3.5.6.8.9c.3.3.6.5.9.6l-.5.7c-.5-.2-.9-.6-1.3-1.1c-.5-.5-.8-1.1-1-1.7c-.1.3-.2.7-.4 1c-.1.3-.3.6-.5.8c-.2.3-.4.5-.7.7c-.2.2-.4.4-.7.5l-.5-.6c.3-.2.7-.4.9-.7c.3-.3.6-.6.8-1c.2-.3.4-.7.5-1.1c.2-.4.2-.8.2-1.2c.02.04 0-1.1 0-1.1h-2.1v-.7h5v.7h-2.1zm14.7 2.1v.7h-1.5v4.7h-.8V.6h.8v3.7h1.5zM345.7.7v1.3h2.3v.7h-5.4v-.7h2.3V.7h.8zm-.4 2.7c.4 0 .7.1.9.2c.3.1.5.2.7.4c.2.2.4.4.5.7c.1.3.2.5.2.8c0 .4-.1.6-.2.9c-.1.3-.3.5-.5.7c-.2.2-.4.3-.7.4c-.2.1-.5.1-.9.1c-.3 0-.6 0-.9-.1c-.2-.1-.5-.2-.7-.4c-.2-.2-.3-.4-.4-.7c-.1-.3-.2-.5-.2-.9c0-.3.1-.5.2-.8c.1-.3.2-.5.4-.7c.2-.2.5-.3.7-.4c.3-.1.6-.2.9-.2zm0 3.6c.2 0 .4-.1.6-.2c.2 0 .3-.1.5-.2c.1-.2.2-.3.3-.5c0-.2.1-.3.1-.6c0-.2-.1-.3-.1-.5c-.1-.2-.2-.3-.3-.5c-.2-.1-.3-.2-.5-.3c-.2 0-.4-.1-.6-.1c-.2 0-.4.1-.5.1c-.2.1-.4.2-.5.3c-.1.2-.2.3-.3.5c-.1.2-.1.3-.1.5c0 .3 0 .4.1.6c.1.2.2.3.3.5c.1.1.3.2.5.2c.1.1.3.2.5.2zm13-4.6c-.02-.03 0-.3 0-.3h-5.6v-.6h6.4s.02.87 0 .9v1.8c0 .4-.1.7-.1 1.1c-.1.4-.1.8-.2 1.3l-.9-.1c.2-.9.3-1.6.3-2.3c.1-.7.1-1.3.1-1.8zm-2.4 5.3h4.2v.7h-8.3v-.7h3.3V4.4h.8v3.3z" stroke="none" fill="#111111"/></g></svg>