<?xml version="1.0" standalone="no"?><!DOCTYPE svg PUBLIC "-//W3C//DTD SVG 1.1//EN" "http://www.w3.org/Graphics/SVG/1.1/DTD/svg11.dtd"><svg xmlns="http://www.w3.org/2000/svg" version="1.1" width="390px" height="72.3px" viewBox="0 -2 390 72.3" style="top:-2px"><desc>차별화된 시니어 돌봄 서비스를 제공하는 사회적기업 ㈜안심생활은, 경력 단절 여성을 요양보호사로 교육해 채용함으로써 고용 취약계층의 일자리 창출에 기여하고 있다. 연간 14만 명이 서비스를 이용 중이며 치매 예방...</desc><defs/><g id="Polygon113515"><path d="m7.6 58.8h1.4v.7H7.6v3.3h-.8V56h.8v2.8zm-2.1.1c0 .4-.1.7-.2 1c-.1.2-.3.5-.5.7c-.2.2-.5.3-.8.4c-.2.1-.6.2-.9.2c-.3 0-.7-.1-.9-.2c-.3-.1-.6-.2-.8-.4c-.2-.2-.4-.5-.5-.7c-.1-.3-.2-.6-.2-1c0-.3.1-.6.2-.9c.1-.3.3-.5.5-.7c.2-.2.5-.3.8-.5c.2-.1.6-.1.9-.1c.3 0 .7 0 .9.1c.3.2.6.3.8.5c.2.2.4.4.5.7c.1.3.2.6.2.9zm-4 0c0 .3.1.5.1.7c.1.1.2.3.4.4c.1.2.3.3.5.4c.2 0 .4.1.6.1c.2 0 .4-.1.6-.1c.2-.1.4-.2.5-.4c.2-.1.3-.3.4-.4c0-.2.1-.4.1-.7c0-.2-.1-.4-.1-.6c-.1-.2-.2-.3-.4-.5c-.1-.1-.3-.2-.5-.3c-.2-.1-.4-.1-.6-.1c-.2 0-.4 0-.6.1c-.2.1-.4.2-.5.3c-.2.2-.3.3-.4.5c0 .2-.1.4-.1.6zm1.3 3.2v2.2h5.2v.7H1.9v-2.9h.9zm13.6-6h.8v5.2h-.8v-5.2zm-1.1 4.1l-.5.6c-.5-.1-1-.4-1.4-.8c-.3-.4-.7-.8-.9-1.3c-.2.5-.5 1-.9 1.4c-.4.4-.8.7-1.4.9l-.4-.6c.3-.2.6-.3.9-.5c.3-.2.6-.5.8-.8c.2-.2.3-.5.4-.8c.2-.3.2-.7.2-1c.01 0 0-.9 0-.9h.8s.04.9 0 .9c0 .3.1.6.2.9c.1.3.3.6.5.9c.2.2.4.4.7.6c.3.2.6.4 1 .5zm-4 4.9v-3.3h5.9v3.3h-5.9zm.8-2.7v2h4.3v-2h-4.3zM25.6 56h.8v9.2h-.8V56zm-3.3 2.3s-.03.7 0 .7c0 .4 0 .8.2 1.1c.1.4.2.7.5 1.1c.2.3.4.6.7.8c.3.3.6.5 1 .6l-.5.7c-.5-.3-1-.6-1.4-1.1c-.4-.5-.7-1-.9-1.6c-.2.6-.5 1.2-.9 1.7c-.5.5-.9.9-1.5 1.1l-.4-.6c.3-.2.6-.4.9-.7c.3-.2.6-.5.8-.9c.2-.3.3-.6.5-1c.1-.4.1-.8.1-1.2c.04 0 0-.7 0-.7h-2.1v-.7h2.1v-1.4h.9v1.4h2.1v.7h-2.1zm9.9 2.1c-.5 0-.9 0-1.3-.1c-.4-.1-.7-.3-1-.4c-.3-.2-.5-.4-.7-.7c-.1-.2-.2-.5-.2-.8c0-.3.1-.6.2-.8c.2-.3.4-.5.7-.7c.3-.1.6-.3 1-.4c.4 0 .8-.1 1.3-.1c.5 0 .9.1 1.3.1c.4.1.7.3 1 .4c.3.2.5.4.7.7c.1.2.2.5.2.8c0 .3-.1.6-.2.8c-.2.3-.4.5-.7.7c-.3.1-.6.3-1 .4c-.4.1-.8.1-1.3.1zm0-3.3c-.3 0-.7 0-.9.1c-.3 0-.6.1-.8.2c-.2.2-.4.3-.5.5c-.1.1-.1.3-.1.5c0 .2 0 .4.1.5c.1.2.3.4.5.5c.2.1.5.2.8.2c.2.1.6.1.9.1c.3 0 .7 0 1-.1c.2 0 .5-.1.7-.2c.2-.1.4-.3.5-.5c.1-.1.1-.3.1-.5c0-.2 0-.4-.1-.5c-.1-.2-.3-.3-.5-.5c-.2-.1-.5-.2-.7-.2c-.3-.1-.7-.1-1-.1zm4.2 4.2v.6h-2.2v3.3h-.8v-3.3h-2.3v3.3h-.9v-3.3h-2.1v-.6h8.3zm5.4-.8h3.7v.7h-8.2v-.7h3.7v-1.2h-2.6v-3.1h.8v2.4h5.4v.7h-2.8v1.2zm-.4 1.3c1 0 1.7.2 2.3.5c.5.3.8.7.8 1.2c0 .5-.3 1-.8 1.2c-.6.3-1.3.5-2.3.5c-1 0-1.7-.2-2.3-.5c-.6-.2-.8-.7-.8-1.2c0-.5.2-.9.8-1.2c.6-.3 1.3-.5 2.3-.5zm0 2.7c.7 0 1.3-.1 1.7-.2c.4-.2.6-.5.6-.8c0-.3-.2-.6-.6-.7c-.4-.2-1-.3-1.7-.3c-.7 0-1.3.1-1.7.3c-.4.1-.6.4-.6.7c0 .3.2.6.6.8c.4.1 1 .2 1.7.2zm12.1-6.1h1.4v.7h-1.4v2.5h-.8v-5.5h.8v2.3zm-1.8 2.1l-.4.6c-.5-.1-.9-.4-1.3-.7c-.4-.4-.7-.8-.9-1.2c-.2.5-.5.9-.9 1.3c-.3.4-.8.7-1.4.9l-.4-.7c.3-.1.7-.3.9-.5c.3-.2.6-.4.8-.6c.2-.3.3-.6.4-.9c.1-.3.2-.6.2-.9v-.4h-2.1v-.7h5v.7h-2.1s.03.35 0 .4c0 .3.1.5.2.8c.1.3.2.6.4.8c.2.2.5.4.7.6c.3.2.6.4.9.5zm-1.1 1.3c.5 0 .9 0 1.3.1c.4.1.7.2.9.3c.3.2.5.4.6.6c.2.2.2.4.2.7c0 .3 0 .5-.2.7c-.1.2-.3.4-.6.5c-.2.2-.5.3-.9.4c-.4 0-.8.1-1.3.1c-.9 0-1.6-.2-2.2-.5c-.5-.3-.8-.7-.8-1.2c0-.5.3-1 .8-1.3c.6-.2 1.3-.4 2.2-.4zm0 2.7c.7 0 1.2-.1 1.6-.3c.4-.1.6-.4.6-.7c0-.3-.2-.6-.6-.8c-.4-.1-.9-.2-1.6-.2c-.7 0-1.2.1-1.6.2c-.4.2-.6.5-.6.8c0 .3.2.6.6.7c.4.2.9.3 1.6.3zM65 58.8v.7h-6.3v-3.1h6.3v.7h-5.4v1.7h5.4zm-7.3 1.6h8.3v.7h-8.3v-.7zm4.1 1.5c1 0 1.8.1 2.3.4c.6.3.9.7.9 1.2c0 .6-.3 1-.9 1.3c-.5.2-1.3.4-2.3.4c-.9 0-1.7-.2-2.3-.4c-.5-.3-.8-.7-.8-1.3c0-.5.3-.9.8-1.2c.6-.3 1.4-.4 2.3-.4zm0 2.6c.8 0 1.3-.1 1.7-.2c.4-.2.6-.4.6-.8c0-.3-.2-.5-.6-.7c-.4-.2-.9-.3-1.7-.3c-.7 0-1.2.1-1.7.3c-.4.2-.6.4-.6.7c0 .4.2.6.6.8c.5.1 1 .2 1.7.2zm15.7-4.8v.6H76v4.9h-.8V56h.8v3.7h1.5zm-7.3-2.1v4.6h2.2c.3-.1.6-.1.9-.1c.4-.1.7-.1 1-.2l.1.7c-.3.1-.7.1-1 .2c-.4 0-.7 0-1 .1h-2.3c-.03.03-.8 0-.8 0v-6h4.3v.7h-3.4zm16.4.5h-1.4v1.3h1.4v.6h-1.4v1.5h-.8v-5.4h.8v1.3h1.4v.7zm-3.5.6c0 .4-.1.6-.2.9c-.1.3-.3.5-.5.7c-.2.2-.5.3-.7.4c-.3.1-.7.2-1 .2c-.3 0-.7-.1-1-.2c-.2-.1-.5-.2-.7-.4c-.2-.2-.4-.4-.5-.7c-.1-.3-.2-.5-.2-.9c0-.3.1-.6.2-.8c.1-.3.3-.5.5-.7c.2-.2.5-.3.7-.5c.3-.1.7-.1 1-.1c.3 0 .7 0 1 .1c.2.2.5.3.7.5c.2.2.4.4.5.7c.1.2.2.5.2.8zm-4 0c0 .2.1.4.1.6c.1.2.2.4.4.5c.1.1.3.2.5.3c.2.1.4.1.6.1c.2 0 .4 0 .6-.1c.2-.1.4-.2.5-.3c.2-.1.3-.3.4-.5c0-.2.1-.4.1-.6c0-.2-.1-.4-.1-.6c-.1-.1-.2-.3-.4-.4c-.1-.1-.3-.2-.5-.3c-.2-.1-.4-.1-.6-.1c-.2 0-.4 0-.6.1c-.2.1-.4.2-.5.3c-.2.1-.3.3-.4.4c0 .2-.1.4-.1.6zm3.2 3.1c.5 0 .9 0 1.3.1c.4 0 .7.2.9.3c.3.1.5.3.6.5c.2.2.2.5.2.8c0 .2 0 .5-.2.7c-.1.2-.3.4-.6.5c-.2.2-.5.3-.9.4c-.4 0-.8.1-1.3.1c-.4 0-.8-.1-1.2-.1c-.4-.1-.7-.2-1-.4c-.2-.1-.4-.3-.6-.5c-.1-.2-.2-.5-.2-.7c0-.3.1-.6.2-.8c.2-.2.4-.4.6-.5c.3-.1.6-.3 1-.3c.4-.1.8-.1 1.2-.1zm0 2.7c.7 0 1.2-.1 1.6-.3c.4-.2.6-.4.6-.7c0-.4-.2-.6-.6-.8c-.4-.2-.9-.3-1.6-.3c-.6 0-1.2.1-1.6.3c-.4.2-.5.4-.5.8c0 .3.1.5.5.7c.4.2 1 .3 1.6.3zm10.4-7.3v.6h-5.3v-.6h2.2v-1.1h.9v1.1h2.2zm1.7 1.9h1.4v.7h-1.4v3.1h-.8v-6.8h.8v3zm-2.2.9c0 .3 0 .5-.1.7c-.1.3-.3.4-.5.6c-.2.1-.4.2-.7.3c-.2.1-.5.1-.9.1c-.3 0-.6 0-.8-.1c-.3-.1-.5-.2-.7-.3c-.2-.2-.4-.3-.5-.6c-.1-.2-.1-.4-.1-.7c0-.2 0-.5.1-.7c.1-.2.3-.3.5-.5c.2-.1.4-.3.7-.3c.2-.1.5-.2.8-.2c.4 0 .7.1.9.2c.3 0 .5.2.7.3c.2.2.4.3.5.5c.1.2.1.5.1.7zm-3.5 0c0 .4.1.6.3.8c.3.2.6.3 1 .3c.5 0 .8-.1 1.1-.3c.2-.2.3-.4.3-.8c0-.3-.1-.5-.3-.7c-.3-.2-.6-.3-1.1-.3c-.4 0-.7.1-1 .3c-.2.2-.3.4-.3.7zm.9 2.4v1.9h5.2v.7h-6.1v-2.6h.9zm17.5-2.6v.6h-1.5v4.8h-.8v-9.1h.8v3.7h1.5zm-5.4-3s-.05 1.68 0 1.7c0 .4 0 .8.1 1.2c.2.4.3.7.5 1.1c.2.3.5.7.8.9c.3.3.6.5.9.7l-.5.7c-.5-.3-1-.7-1.4-1.2c-.4-.5-.7-1-.9-1.7c-.2.7-.5 1.3-.9 1.8c-.4.5-.8 1-1.3 1.2l-.5-.6c.3-.2.6-.4.9-.7c.3-.3.5-.6.7-1c.3-.4.4-.8.5-1.2c.2-.4.2-.8.2-1.2c.03-.02 0-1.7 0-1.7h.9zm12.8-.7h.8v4.9h-.8v-2.1h-1.9c-.1.6-.3 1-.8 1.3c-.4.3-.9.5-1.5.5c-.4 0-.7 0-1-.2c-.3-.1-.5-.2-.7-.4c-.2-.2-.4-.4-.5-.7c-.1-.2-.2-.5-.2-.8c0-.3.1-.6.2-.9c.1-.2.3-.5.5-.6c.2-.2.4-.4.7-.5c.3-.1.6-.1 1-.1c.3 0 .6 0 .8.1c.3.1.5.2.7.4c.2.1.4.3.5.5c.2.2.2.5.3.7c-.01.02 1.9 0 1.9 0v-2.1zm-4.2 3.9c.2 0 .4 0 .6-.1c.2-.1.3-.2.5-.3c.1-.1.2-.3.3-.4c.1-.2.1-.4.1-.6c0-.2 0-.4-.1-.6c-.1-.2-.2-.3-.3-.4c-.2-.2-.3-.3-.5-.3c-.2-.1-.4-.1-.6-.1c-.3 0-.5 0-.7.1c-.2 0-.3.1-.5.3c-.1.1-.2.2-.3.4c-.1.2-.1.4-.1.6c0 .2 0 .4.1.6c.1.1.2.3.3.4c.2.1.3.2.5.3c.2.1.4.1.7.1zm4.2 2.6v-1.2h.8v3.7h-5.9v-3.7h.9v1.2h4.2zm0 1.8v-1.2h-4.2v1.2h4.2zm6.6-5c-1 0-1.8-.2-2.4-.4c-.6-.3-.8-.7-.8-1.2c0-.5.2-.9.8-1.2c.6-.3 1.4-.4 2.4-.4c1 0 1.8.1 2.3.4c.6.3.9.7.9 1.2c0 .5-.3.9-.9 1.2c-.5.2-1.3.4-2.3.4zm0-2.6c-.8 0-1.4.1-1.8.3c-.4.1-.6.4-.6.7c0 .3.2.5.6.7c.4.2 1 .2 1.8.2c.7 0 1.3 0 1.7-.2c.4-.2.6-.4.6-.7c0-.3-.2-.6-.6-.7c-.4-.2-1-.3-1.7-.3zm-4.2 3.2h8.3v.7h-8.3v-.7zm1.9 3.5v.9h5.6v.7H118v-2.2h5.3v-.8h-5.4v-.7h6.3v2.1h-5.4zm10.2-2.6l-.3-.7l1.2-.3c.4-.1.7-.3 1-.5c.3-.2.6-.5.8-.7c.1-.3.2-.6.2-.9c.02.05-2.9 0-2.9 0v-.6h2.9v-1.1h.9v1.1h2.9v.6s-2.94.05-2.9 0c0 .3.1.6.2.9c.2.2.4.5.7.7c.3.2.7.4 1.1.5c.3.1.7.2 1.1.3l-.3.7c-.3-.1-.6-.2-1-.3c-.3-.1-.6-.2-.9-.4c-.3-.2-.6-.3-.8-.5c-.2-.3-.4-.5-.6-.7c-.1.2-.3.4-.5.7c-.2.2-.5.3-.8.5c-.3.2-.6.3-.9.4l-1.1.3zm7.5.7v.7h-3.7v2.9h-.9v-2.9h-3.7v-.7h8.3zm8.4-5.5v6.6h-.8v-6.6h.8zm-1.9 4.7l-.4.6c-.6-.1-1-.4-1.4-.8c-.4-.3-.7-.8-.9-1.2c-.2.5-.5.9-.9 1.3c-.4.4-.9.7-1.5.9l-.4-.6c.4-.2.7-.3 1-.5l.7-.7c.2-.3.3-.6.5-.9c.1-.3.1-.6.1-.9c.02-.02 0-.5 0-.5h-2.1v-.7h5v.7h-2s-.02.48 0 .5c0 .3 0 .6.1.9c.2.3.3.5.5.8c.2.2.5.4.7.6c.3.2.6.4 1 .5zm-3.2 3.5h5.4v.7H139v-2.9h.8v2.2zm15.3-4.5v.7h-1.5v4.7h-.8v-9.1h.8v3.7h1.5zm-5.4-3.6v1.3h2.2v.7h-5.4v-.7h2.3v-1.3h.9zm-.5 2.7c.4 0 .7.1.9.2c.3.1.6.2.8.4c.2.2.3.4.4.7c.1.3.2.5.2.8c0 .4-.1.6-.2.9c-.1.3-.2.5-.4.7c-.2.2-.5.3-.8.4c-.2.1-.5.1-.9.1c-.3 0-.6 0-.8-.1c-.3-.1-.5-.2-.7-.4c-.2-.2-.4-.4-.5-.7c-.1-.3-.2-.5-.2-.9c0-.3.1-.5.2-.8c.1-.3.3-.5.5-.7c.2-.2.4-.3.7-.4c.2-.1.5-.2.8-.2zm0 3.6c.3 0 .5-.1.6-.2c.2 0 .4-.1.5-.2c.1-.2.2-.3.3-.5c0-.2.1-.3.1-.6c0-.2-.1-.3-.1-.5c-.1-.2-.2-.3-.3-.5c-.1-.1-.3-.2-.5-.3c-.1 0-.3-.1-.6-.1c-.2 0-.3.1-.5.1c-.2.1-.4.2-.5.3c-.1.2-.2.3-.3.5c0 .2-.1.3-.1.5c0 .3.1.4.1.6c.1.2.2.3.3.5c.1.1.3.2.5.2c.2.1.3.2.5.2zm13-4.6v-.3h-5.6v-.6h6.4s.04.87 0 .9v1.8c0 .4-.1.7-.1 1.1c-.1.4-.1.8-.2 1.3l-.8-.1c.1-.9.2-1.6.3-2.3v-1.8zm-2.4 5.3h4.2v.7h-8.2v-.7h3.2v-3.3h.8v3.3zm14.7-7.1v5.2h-.8v-5.2h.8zm-4.9 4.7c-.4 0-.7 0-1-.1c-.2-.1-.5-.3-.7-.4c-.2-.2-.4-.5-.5-.7c-.1-.3-.2-.6-.2-.9c0-.3.1-.6.2-.9c.1-.2.3-.4.5-.6c.2-.2.5-.4.7-.5c.3-.1.6-.1 1-.1c.3 0 .7 0 1 .1c.2.1.5.3.7.5c.2.2.4.4.5.6c.1.3.2.6.2.9c0 .3-.1.6-.2.9c-.1.2-.3.5-.5.7c-.2.1-.5.3-.7.4c-.3.1-.7.1-1 .1zm0-3.5c-.2 0-.4 0-.6.1c-.2.1-.4.2-.5.3c-.2.1-.3.3-.3.4c-.1.2-.2.4-.2.6c0 .2.1.4.2.6c0 .2.1.3.3.4c.1.2.3.3.5.3c.2.1.4.2.6.2c.2 0 .4-.1.6-.2c.2 0 .4-.1.5-.3c.2-.1.3-.2.4-.4c0-.2.1-.4.1-.6c0-.2-.1-.4-.1-.6c-.1-.1-.2-.3-.4-.4c-.1-.1-.3-.2-.5-.3c-.2-.1-.4-.1-.6-.1zm3.9 4.4v.5c0 .2 0 .4.1.7c.1.2.2.4.4.6c.1.2.3.4.5.6c.3.1.5.2.8.3l-.4.7c-.4-.2-.8-.4-1.1-.7c-.3-.3-.6-.7-.7-1.1c-.2.4-.4.8-.7 1.1c-.2.3-.6.6-1 .7c-.5-.1-.8-.4-1.1-.7c-.3-.3-.5-.6-.6-1c-.2.3-.4.7-.7 1c-.3.3-.7.5-1.1.7l-.4-.7c.2-.1.5-.2.7-.4c.3-.1.4-.3.6-.5c.2-.2.3-.4.4-.7c0-.2.1-.4.1-.6v-.5h.8v.5c0 .4.1.8.3 1.2c.2.4.5.7 1 .9c.2-.1.4-.3.5-.4c.2-.2.3-.4.4-.6c.2-.2.2-.4.3-.6c0-.2.1-.4.1-.5c-.02-.04 0-.5 0-.5h.8zm11.2-2v.6h-1.5v4.9h-.8V56h.8v3.7h1.5zm-7.3-2.1v4.6h2.2c.3-.1.6-.1 1-.1c.3-.1.6-.1.9-.2l.1.7c-.3.1-.7.1-1 .2c-.3 0-.7 0-1 .1h-2.3c0 .03-.7 0-.7 0v-6h4.2v.7h-3.4zm7.9 7v-1h.9v1h-.9z" stroke="none" fill="#111111"/></g><g id="Polygon113514"><path d="m7.2 41.8s-2.28.04-2.3 0c-.2.3-.5.5-.8.7c-.3.1-.7.2-1.1.2c-.3 0-.6 0-.9-.2c-.3-.1-.5-.2-.7-.4c-.3-.2-.4-.5-.5-.8c-.2-.2-.2-.5-.2-.9c0-.3 0-.6.2-.9c.1-.3.2-.5.5-.7c.2-.2.4-.4.7-.5c.3-.1.6-.2.9-.2c.4 0 .8.1 1.1.3c.3.1.6.3.8.6c.01-.02 2.3 0 2.3 0v-1.4h.9v6.7h-.9v-2.5zm-5.7-1.4c0 .2 0 .5.1.6c.1.2.2.4.3.5c.2.2.3.3.5.4c.2 0 .4.1.6.1c.3 0 .5-.1.7-.1c.1-.1.3-.2.4-.4c.2-.1.3-.3.4-.5c.1-.1.1-.4.1-.6c0-.2 0-.4-.1-.6c-.1-.2-.2-.4-.4-.5c-.1-.1-.3-.2-.4-.3c-.2-.1-.4-.1-.7-.1c-.2 0-.4 0-.6.1c-.2.1-.3.2-.5.3c-.1.1-.2.3-.3.5c-.1.2-.1.4-.1.6zm5.7-.7s-1.94-.05-1.9 0c0 .2.1.4.1.7c0 .3-.1.5-.1.8c-.04-.03 1.9 0 1.9 0v-1.5zm-4.1 6.1h5.2v.7H2.2v-2.9h.9v2.2zm13.7-5.5h1.4v.7h-1.4v3.2h-.8v-6.6h.8v2.7zm-6.7-2s4.27-.05 4.3 0c0 .5-.1 1.1-.3 1.6c-.2.5-.5 1-.9 1.4c-.4.4-.8.8-1.3 1.1c-.6.3-1.2.6-1.8.8l-.4-.7c.6-.2 1.1-.4 1.5-.6c.4-.2.8-.5 1.1-.8c.4-.3.6-.7.8-1c.2-.4.3-.8.4-1.2c-.03.04-3.4 0-3.4 0v-.6zm1.9 5.2v2.3h5.2v.7h-6.1v-3h.9zm12.3 1.7h1.5v.7h-4v-.7h1.6s.03-5.55 0-5.5v-.2c.04.04-1.3 1.3-1.3 1.3l-.5-.6l2-1.8h.7v6.8zm6.8-2h1.1v.7h-1.1v2h-.8v-2h-3.8v-.6l3.7-4.9h.9v4.8zm-3.5 0h2.7s-.03-3.11 0-3.1v-.6c.01-.04-2.7 3.7-2.7 3.7zm12.2-2.9h1.4v.7h-1.4v3.2h-.8v-6.7h.8v2.8zm-2.5-1.9v4.2h-4.2v-4.2h4.2zm-.8 3.5V39h-2.6v2.9h2.6zM35 43.6v2.2h5.2v.7h-6.1v-2.9h.9zm13.6-2.1v.8h-4.2v-4.1h4.2v.8h2.1v-1.4h.8v5.4h-.8v-1.5h-2.1zm-.8.1v-2.7h-2.6v2.7h2.6zm2.9-1.9h-2.1v1.1h2.1v-1.1zm-2.2 3.5c.9 0 1.7.2 2.2.5c.6.3.9.7.9 1.3c0 .2-.1.5-.3.7c-.1.2-.3.4-.6.5c-.2.2-.6.3-.9.4c-.4 0-.8.1-1.3.1c-.5 0-.9-.1-1.3-.1c-.3-.1-.7-.2-.9-.4c-.3-.1-.5-.3-.6-.5c-.2-.2-.2-.5-.2-.7c0-.3 0-.6.2-.8c.1-.2.3-.4.6-.5c.2-.2.6-.3.9-.4c.4 0 .8-.1 1.3-.1zm0 2.8c.7 0 1.2-.1 1.6-.2c.4-.2.6-.5.6-.8c0-.4-.2-.7-.6-.8c-.4-.2-.9-.3-1.6-.3c-.7 0-1.2.1-1.6.3c-.4.1-.6.4-.6.8c0 .3.2.6.6.8c.4.1.9.2 1.6.2zm11.3-8.5h.9v9.2h-.9v-9.2zm-4 .7c.4 0 .7.1 1 .3c.3.1.5.3.7.6c.2.3.4.6.5 1c.1.4.2.8.2 1.3c0 .5-.1 1-.2 1.4c-.1.3-.3.7-.5 1c-.2.2-.4.5-.7.6c-.3.2-.6.2-1 .2c-.3 0-.6 0-.9-.2c-.3-.1-.5-.4-.7-.6c-.2-.3-.4-.7-.5-1c-.1-.4-.2-.9-.2-1.4c0-.5.1-.9.2-1.3c.1-.4.3-.7.5-1c.2-.3.4-.5.7-.6c.3-.2.6-.3.9-.3zm0 .8c-.2 0-.4.1-.6.2c-.2.1-.3.3-.5.5c-.1.2-.2.4-.3.7c-.1.3-.1.7-.1 1c0 .4 0 .7.1 1c.1.3.2.6.3.8c.2.2.3.4.5.5c.2.1.4.2.6.2c.3 0 .5-.1.6-.2c.2-.1.4-.3.5-.5c.2-.2.3-.5.3-.8c.1-.3.2-.6.2-1c0-.3-.1-.7-.2-1c0-.3-.1-.5-.3-.7c-.1-.2-.3-.4-.5-.5c-.1-.1-.3-.2-.6-.2zm15.3-1.5h.9v9.2h-.9v-5.4H69v-.7h2.1v-3.1zm-3.5.8s.04 1.67 0 1.7c0 .4.1.8.2 1.2c.1.4.3.8.5 1.1c.2.4.5.7.8 1c.3.3.6.5.9.6l-.5.7c-.5-.3-1-.7-1.4-1.2c-.4-.5-.7-1.1-.9-1.7c-.2.7-.5 1.3-.9 1.8c-.4.6-.8 1-1.4 1.3l-.5-.7c.4-.2.7-.4 1-.7c.2-.3.5-.6.7-1c.2-.4.4-.7.5-1.2c.1-.4.2-.8.2-1.2v-1.7h.8zm12.7-.8h.8v9.2h-.8v-9.2zm-6.2.8h.9v2.4h2.6v-2.4h.8v6.2h-4.3v-6.2zm.9 3.1v2.4h2.6v-2.4H75zm15.7.7l-.4.7c-.3 0-.7-.2-1-.3c-.4-.2-.7-.4-1-.6c-.3-.2-.6-.5-.8-.8c-.3-.3-.5-.6-.6-.9c-.1.3-.3.6-.6.9c-.2.3-.5.6-.8.8c-.3.2-.6.4-1 .6c-.3.1-.6.3-1 .3l-.4-.7c.4 0 .8-.2 1.2-.4c.4-.2.8-.4 1.1-.7c.3-.3.6-.6.8-1c.2-.3.3-.7.3-1.1c-.04-.01 0-.7 0-.7h.8s.04.69 0 .7c0 .4.1.7.3 1.1c.2.4.5.7.8 1c.3.3.7.5 1.1.7c.4.2.8.4 1.2.4zm-7.9 2.7h8.3v.7h-8.3v-.7zm15.6-5.7v-.7H93v-.6h6.2v1.9h-5.3v.8h5.5v.6H93v-2h5.4zM92 41.8h8.3v.6H92v-.6zm1.8 3.3v.9h5.7v.6H93v-2.1h5.4v-.7H93v-.6h6.2v1.9h-5.4zm16.1-7.6h.8v9.2h-.8v-9.2zm-4 .7c.3 0 .6.1.9.3c.3.1.6.3.8.6c.2.3.3.6.4 1c.2.4.2.8.2 1.3c0 .5 0 1-.2 1.4c-.1.3-.2.7-.4 1c-.2.2-.5.5-.8.6c-.3.2-.6.2-.9.2c-.3 0-.7 0-.9-.2c-.3-.1-.6-.4-.8-.6c-.2-.3-.3-.7-.5-1c-.1-.4-.1-.9-.1-1.4c0-.5 0-.9.1-1.3c.2-.4.3-.7.5-1c.2-.3.5-.5.8-.6c.2-.2.6-.3.9-.3zm0 .8c-.2 0-.4.1-.6.2c-.2.1-.4.3-.5.5c-.1.2-.2.4-.3.7c-.1.3-.1.7-.1 1c0 .4 0 .7.1 1c.1.3.2.6.3.8c.1.2.3.4.5.5c.2.1.4.2.6.2c.2 0 .4-.1.6-.2c.2-.1.4-.3.5-.5c.1-.2.2-.5.3-.8c.1-.3.1-.6.1-1c0-.3 0-.7-.1-1c-.1-.3-.2-.5-.3-.7c-.1-.2-.3-.4-.5-.5c-.2-.1-.4-.2-.6-.2zm12.7 3.1h2.1v.6h-8.3v-.6h2.1s-.05-1.32 0-1.3c-.8-.3-1.2-.8-1.2-1.4c0-.3.1-.5.3-.7c.1-.2.3-.4.6-.5c.3-.2.6-.3 1-.4c.4-.1.8-.1 1.3-.1c.5 0 1 0 1.4.1c.4.1.7.2 1 .4c.3.1.5.3.6.5c.2.2.3.4.3.7c0 .3-.1.6-.3.8c-.2.2-.5.4-.9.6c.05-.03 0 1.3 0 1.3zm-4.4-2.7c0 .3.2.6.6.8c.4.2 1 .3 1.7.3c.8 0 1.4-.1 1.8-.3c.4-.2.6-.5.6-.8c0-.3-.2-.6-.6-.8c-.4-.2-1-.2-1.8-.2c-.7 0-1.3 0-1.7.2c-.4.2-.6.5-.6.8zm1.1 1.6c-.02 0 0 1.1 0 1.1h2.5s.02-1.1 0-1.1c-.2 0-.4.1-.6.1h-1.3c-.2 0-.4-.1-.6-.1zm1.2 2.4c1 0 1.8.2 2.4.4c.5.3.8.7.8 1.3c0 .5-.3.9-.8 1.2c-.6.2-1.4.4-2.4.4c-.9 0-1.7-.2-2.3-.4c-.5-.3-.8-.7-.8-1.2c0-.6.3-1 .8-1.3c.6-.2 1.4-.4 2.3-.4zm0 2.6c.8 0 1.3 0 1.7-.2c.4-.2.6-.4.6-.7c0-.4-.2-.6-.6-.8c-.4-.1-.9-.2-1.7-.2c-.7 0-1.2.1-1.6.2c-.4.2-.6.4-.6.8c0 .3.2.5.6.7c.4.2.9.2 1.6.2zm7.9-4.7l-.3-.7c.4 0 .8-.1 1.2-.2c.4-.1.7-.3 1-.5c.3-.1.5-.3.7-.6c.2-.2.3-.4.3-.7c-.02.03-2.9 0-2.9 0v-.6h6.8v.6s-2.84.03-2.8 0c0 .3.1.5.3.7c.1.3.4.5.6.6c.3.2.7.4 1 .5c.4.1.8.2 1.2.2l-.3.7l-1.1-.3l-1-.3c-.3-.2-.5-.4-.7-.6c-.3-.2-.5-.4-.6-.7c-.1.3-.3.5-.5.7c-.2.2-.5.4-.8.6c-.3.1-.6.2-1 .3c-.3.1-.7.2-1.1.3zm7.5 1.2h-3.7s.03.98 0 1c.9 0 1.6.2 2 .4c.5.3.7.7.7 1.2c0 .5-.2.9-.8 1.2c-.5.2-1.3.4-2.3.4c-1 0-1.7-.2-2.3-.4c-.5-.3-.8-.7-.8-1.2c0-.5.2-.9.7-1.2c.4-.2 1.1-.4 2-.4v-1h-3.7v-.7h8.2v.7zm-1.8 2.6c0-.3-.2-.6-.6-.7c-.4-.2-1-.3-1.7-.3c-.7 0-1.3.1-1.7.3c-.4.1-.6.4-.6.7c0 .3.2.5.6.7c.4.2 1 .2 1.7.2c.7 0 1.3 0 1.7-.2c.4-.2.6-.4.6-.7zm9.4-7.6h.8v9.2h-.8v-9.2zm-4 .7c.4 0 .7.1 1 .3c.2.1.5.3.7.6c.2.3.4.6.5 1c.1.4.1.8.1 1.3c0 .5 0 1-.1 1.4c-.1.3-.3.7-.5 1c-.2.2-.5.5-.7.6c-.3.2-.6.2-1 .2c-.3 0-.6 0-.9-.2c-.3-.1-.6-.4-.8-.6c-.2-.3-.3-.7-.4-1c-.2-.4-.2-.9-.2-1.4c0-.5 0-.9.2-1.3c.1-.4.2-.7.4-1c.2-.3.5-.5.8-.6c.3-.2.6-.3.9-.3zm0 .8c-.2 0-.4.1-.6.2c-.2.1-.3.3-.5.5c-.1.2-.2.4-.3.7c-.1.3-.1.7-.1 1c0 .4 0 .7.1 1c.1.3.2.6.3.8c.2.2.3.4.5.5c.2.1.4.2.6.2c.2 0 .4-.1.6-.2c.2-.1.4-.3.5-.5c.1-.2.2-.5.3-.8c.1-.3.1-.6.1-1c0-.3 0-.7-.1-1c-.1-.3-.2-.5-.3-.7c-.1-.2-.3-.4-.5-.5c-.2-.1-.4-.2-.6-.2zm13.2-1.5h.9v9.2h-.9v-3.8h-2.1v1.5h-4.2v-6h4.2v1.3h2.1v-2.2zm-3 6.2v-4.6h-2.5v4.6h2.5zm.9-1.4h2.1v-1.9h-2.1v1.9zm13.3-4.8h.9v9.2h-.9v-9.2zm-3.2 2.3s-.04.7 0 .7c0 .4 0 .8.1 1.1c.2.4.3.7.5 1.1c.3.3.5.6.8.8c.3.3.6.5 1 .6l-.5.7c-.5-.3-1-.6-1.4-1.1c-.4-.5-.7-1-.9-1.6c-.2.6-.5 1.2-1 1.7c-.4.5-.8.9-1.4 1.1l-.4-.6c.3-.2.6-.4.9-.7c.3-.2.6-.5.8-.9c.2-.3.3-.6.5-1c.1-.4.1-.8.1-1.2c.03 0 0-.7 0-.7h-2.1v-.7h2.1v-1.4h.9v1.4h2.1v.7h-2.1zm12.8-2.3h.7v9.2h-.7v-4.9h-1.3v4.4h-.8v-8.5h.8v3.5h1.3v-3.7zm-6.7 6.7v-5.6h3.5v5.6h-3.5zm.8-4.9v4.3h1.9v-4.3h-1.9zm17.1-1.8h.8v9.2h-.8v-9.2zm-1.8 2.3v-2.1h.8v8.5h-.8v-3s-1.4.03-1.4 0c-.2.5-.4.9-.7 1.1c-.3.3-.6.4-1 .4c-.3 0-.6-.1-.8-.2c-.2-.2-.5-.4-.6-.7c-.2-.3-.3-.6-.4-1c-.1-.4-.2-.8-.2-1.3c0-.5.1-.9.2-1.3c.1-.4.2-.8.4-1c.1-.3.4-.5.6-.7c.2-.1.5-.2.8-.2c.4 0 .8.1 1 .4c.3.2.5.6.7 1.1c0-.05 1.4 0 1.4 0zm-3.1 4.1c.4 0 .7-.2.9-.6c.2-.5.3-1.1.3-1.8c0-.8-.1-1.3-.3-1.8c-.2-.4-.5-.6-.9-.6c-.4 0-.7.2-.9.6c-.2.5-.3 1-.3 1.8c0 .7.1 1.3.3 1.8c.2.4.5.6.9.6zm1.9-1.4c-.03.04 1.2 0 1.2 0v-2.1s-1.23.04-1.2 0v.5c0 .2.1.4.1.6c0 .2-.1.4-.1.5v.5zm12.3-2.7h1.4v.7H190v2.5h-.8v-5.5h.8v2.3zm-2.5-1.7v4.2h-4.2v-4.2h.8v1.4h2.6v-1.4h.8zm-.8 3.6v-1.5h-2.6v1.5h2.6zm.4 1.6c.5 0 .9 0 1.3.1l.9.3c.3.2.5.4.6.6c.1.2.2.4.2.7c0 .3-.1.5-.2.7c-.1.2-.3.4-.6.5c-.3.2-.6.3-.9.4c-.4.1-.8.1-1.3.1c-.9 0-1.7-.2-2.2-.5c-.5-.2-.8-.7-.8-1.2c0-.6.3-1 .8-1.3c.5-.3 1.3-.4 2.2-.4zm0 2.7c.7 0 1.2-.1 1.6-.2c.4-.2.6-.5.6-.8c0-.3-.2-.6-.6-.8c-.4-.2-.9-.2-1.6-.2c-.7 0-1.2 0-1.6.2c-.4.2-.6.5-.6.8c0 .3.2.6.6.8c.4.1.9.2 1.6.2zm14.2-5.7h1.3v.7h-1.3v3.3h-.9v-6.8h.9v2.8zm-2.2.1c0 .4 0 .7-.2 1c-.1.2-.2.5-.5.7c-.2.2-.4.3-.7.4c-.3.1-.6.2-1 .2c-.3 0-.6-.1-.9-.2c-.3-.1-.6-.2-.8-.4c-.2-.2-.4-.5-.5-.7c-.1-.3-.2-.6-.2-1c0-.3.1-.6.2-.9c.1-.3.3-.5.5-.7c.2-.2.5-.3.8-.5c.3-.1.6-.1.9-.1c.4 0 .7 0 1 .1c.3.2.5.3.7.5c.3.2.4.4.5.7c.2.3.2.6.2.9zm-3.9 0c0 .3 0 .5.1.7c.1.1.2.3.3.4c.2.2.3.3.5.4c.2 0 .4.1.6.1c.3 0 .5-.1.7-.1c.1-.1.3-.2.5-.4c.1-.1.2-.3.3-.4c.1-.2.1-.4.1-.7c0-.2 0-.4-.1-.6c-.1-.2-.2-.3-.3-.5c-.2-.1-.4-.2-.5-.3c-.2-.1-.4-.1-.7-.1c-.2 0-.4 0-.6.1c-.2.1-.3.2-.5.3c-.1.2-.2.3-.3.5c-.1.2-.1.4-.1.6zm1.2 3.2v2.2h5.3v.7h-6.1v-2.9h.8zm13.6-6h.9v5.2h-.9v-5.2zm-1.1 4.1l-.4.6c-.6-.1-1-.4-1.4-.8c-.4-.4-.7-.8-.9-1.3c-.2.5-.5 1-.9 1.4c-.4.4-.9.7-1.5.9l-.4-.6c.4-.2.7-.3 1-.5c.3-.2.5-.5.7-.8c.2-.2.4-.5.5-.8c.1-.3.1-.7.1-1c.04 0 0-.9 0-.9h.9s-.02.9 0 .9c0 .3 0 .6.2.9c.1.3.2.6.4.9c.2.2.5.4.8.6c.3.2.6.4.9.5zm-4 4.9v-3.3h6v3.3h-6zm.9-2.7v2h4.2v-2h-4.2zm13.7-6.4h.8v9.2h-.8v-9.2zm-1.9 3.7v-3.4h.8v8.4h-.8v-4.4s-1.68.03-1.7 0c-.2.6-.6 1.1-1 1.6c-.5.5-1.1 1-1.8 1.4l-.5-.6c.7-.4 1.3-.8 1.7-1.3c.4-.5.7-1 1-1.5l-2.6.3l-.1-.8s2.89-.15 2.9-.1c.1-.3.1-.5.2-.8v-.7H213v-.7s3.53.02 3.5 0v1.3c-.1.4-.2.8-.3 1.3c-.02-.05 1.4 0 1.4 0zm10.8-3.7h.9v9.2h-.9v-5h-2c0 .5-.1.9-.2 1.2c-.1.4-.3.7-.5.9c-.2.3-.4.5-.7.6c-.2.2-.5.2-.8.2c-.4 0-.7 0-1-.2c-.2-.1-.5-.4-.7-.6c-.2-.3-.3-.7-.5-1c-.1-.4-.1-.9-.1-1.4c0-.5 0-.9.1-1.3c.2-.4.3-.7.5-1c.2-.3.5-.5.7-.6c.3-.2.6-.3 1-.3c.3 0 .6.1.8.2c.3.2.5.4.7.6c.2.2.4.5.5.9c.1.3.2.7.2 1.1c.03.03 2 0 2 0v-3.5zm-4.2 6.4c.2 0 .4-.1.6-.2c.1-.1.3-.3.4-.5c.2-.2.3-.5.3-.8c.1-.3.1-.6.1-1c0-.3 0-.7-.1-1c0-.3-.1-.5-.3-.7c-.1-.2-.3-.4-.4-.5c-.2-.1-.4-.2-.6-.2c-.3 0-.5.1-.6.2c-.2.1-.4.3-.5.5c-.1.2-.2.4-.3.7c-.1.3-.1.7-.1 1c0 .4 0 .7.1 1c.1.3.2.6.3.8c.1.2.3.4.5.5c.1.1.3.2.6.2zm6.4 2.8l.3-2.1h1l-.7 2.1h-.6zm12.6-5.4v.6h-1.5v4.8h-.8v-9.2h.8v3.8h1.5zm-8-2.8s4.17.02 4.2 0c0 .7-.1 1.3-.3 1.9c-.1.6-.4 1.2-.7 1.8c-.3.5-.8 1-1.3 1.5c-.5.5-1.1.9-1.9 1.3l-.4-.7c1.2-.6 2.1-1.3 2.7-2.2c.6-.8 1-1.8 1-2.9c.05.01-3.3 0-3.3 0v-.7zm17.2 2.8v.6h-1.5v4.8h-.8v-9.1h.8v3.7h1.5zm-5.4-3s-.05 1.68 0 1.7c0 .4 0 .8.1 1.2c.2.4.3.7.5 1.1c.2.3.5.7.8.9c.3.3.6.5.9.7l-.5.7c-.5-.3-1-.7-1.4-1.2c-.4-.5-.7-1-.9-1.7c-.2.7-.5 1.3-.9 1.8c-.4.5-.8 1-1.3 1.2l-.5-.6c.3-.2.6-.4.9-.7c.3-.3.5-.6.7-1c.3-.4.4-.8.5-1.2c.2-.4.2-.8.2-1.2c.02-.02 0-1.7 0-1.7h.9zm10.6 6.5h3.8v.7h-8.3v-.7h3.7v-2.3h-2.7v-4.2h6.2v.7h-5.4v2.8h5.5v.7h-2.8v2.3zm8.8-2.9c-.5 0-.9 0-1.3-.1c-.4-.1-.8-.3-1-.4c-.3-.2-.5-.4-.7-.7c-.2-.2-.2-.5-.2-.8c0-.3 0-.6.2-.8c.2-.3.4-.5.7-.6c.2-.2.6-.4 1-.4c.4-.1.8-.2 1.3-.2c.4 0 .9.1 1.3.2c.4 0 .7.2 1 .4c.3.1.5.3.6.6c.2.2.3.5.3.8c0 .3-.1.6-.3.8c-.1.3-.3.5-.6.7c-.3.1-.6.3-1 .4c-.4.1-.9.1-1.3.1zm0-3.3c-.4 0-.7 0-1 .1c-.3 0-.5.1-.7.2c-.2.2-.4.3-.5.5c-.1.1-.2.3-.2.5c0 .2.1.4.2.6c.1.1.3.3.5.4c.2.1.4.2.7.3h1.9c.3-.1.6-.2.8-.3c.2-.1.3-.3.4-.4c.2-.2.2-.4.2-.6c0-.2 0-.4-.2-.5c-.1-.2-.2-.3-.4-.5c-.2-.1-.5-.2-.8-.2c-.3-.1-.6-.1-.9-.1zm4.1 4.2v.7h-3.7v3.2h-.9v-3.2h-3.7v-.7h8.3zm7.6-5.3h.8v9.2h-.8v-9.2zm-6.1.9h4.2v6H272v-6zm3.3.7h-2.5v4.6h2.5v-4.6zm15.2-.8v.6h-7.4v-.6h3.3v-.9h.8v.9h3.3zm-3.3 4.3h3.7v.7h-8.2v-.7h3.7v-.7c-.8 0-1.4-.2-1.9-.4c-.4-.2-.6-.5-.6-.9c0-.4.2-.8.7-1c.5-.2 1.3-.3 2.2-.3c1 0 1.7.1 2.2.3c.5.2.8.6.8 1c0 .4-.2.7-.7.9c-.4.2-1 .4-1.9.4c.04 0 0 .7 0 .7zm-2.5-2c0 .2.2.4.6.5c.3.2.8.2 1.5.2c.7 0 1.2 0 1.5-.2c.4-.1.6-.3.6-.5c0-.2-.2-.4-.6-.5c-.3-.1-.8-.2-1.5-.2c-.7 0-1.2.1-1.5.2c-.4.1-.6.3-.6.5zm-1 6V44h6.2v2.6h-6.2zm.8-2v1.3h4.6v-1.3h-4.6zm13.9-6.2v.7h-4.5v-.7h1.8v-.9h.9v.9h1.8zm3.3-.8v5.1h-.8v-5.1h.8zm-3.5 2.3h1v-2.2h.8v4.9h-.8v-2h-1v-.7zm-.1 1.1c0 .2-.1.4-.2.6c-.1.2-.2.3-.4.5c-.1.1-.3.2-.6.3c-.2 0-.5.1-.7.1c-.3 0-.6-.1-.8-.1l-.6-.3c-.2-.2-.3-.3-.4-.5c-.1-.2-.1-.4-.1-.6c0-.3 0-.5.1-.7c.1-.1.2-.3.4-.4c.2-.2.4-.3.6-.3c.2-.1.5-.2.8-.2c.2 0 .5.1.7.2c.3 0 .5.1.6.3c.2.1.3.3.4.4c.1.2.2.4.2.7zm-3.1 0c0 .3.1.5.3.6c.2.2.5.3.9.3c.3 0 .6-.1.8-.3c.2-.1.3-.3.3-.6c0-.3-.1-.5-.3-.7c-.2-.2-.5-.2-.8-.2c-.4 0-.7 0-.9.2c-.2.2-.3.4-.3.7zm1.5 5h5.5v.6h-6.4v-2.1h5.2v-.8h-5.2v-.6h6.1v2h-5.2v.9zm13.3-8.4h.9v9.1h-.9v-5h-1.7v-.7h1.7v-3.4zm-2.4 1.6s-.03 4.4 0 4.4h.6c.2-.1.5-.1.7-.1v.6c-.4.1-.9.1-1.4.2c-.5 0-1 .1-1.5.1h-2.7c.04.04 0-.7 0-.7c0 0 .84.03.8 0h.4c-.05.02 0-4.5 0-4.5h-1v-.7h5.1v.7h-1zm-2.3 0s-.03 4.51 0 4.5h1.4c.05-.05 0-4.5 0-4.5h-1.4zm17.7.4h-1.3v1.3h1.3v.6h-1.3v1.5h-.9v-5.4h.9v1.3h1.3v.7zm-3.5.6c0 .4 0 .6-.1.9c-.2.3-.3.5-.5.7c-.3.2-.5.3-.8.4c-.3.1-.6.2-1 .2c-.3 0-.6-.1-.9-.2c-.3-.1-.6-.2-.8-.4c-.2-.2-.3-.4-.5-.7c-.1-.3-.1-.5-.1-.9c0-.3 0-.6.1-.8c.2-.3.3-.5.5-.7c.2-.2.5-.3.8-.5c.3-.1.6-.1.9-.1c.4 0 .7 0 1 .1c.3.2.5.3.8.5c.2.2.3.4.5.7c.1.2.1.5.1.8zm-3.9 0c0 .2 0 .4.1.6c.1.2.2.4.3.5c.2.1.3.2.5.3c.2.1.4.1.6.1c.3 0 .5 0 .7-.1c.2-.1.3-.2.5-.3c.1-.1.2-.3.3-.5c.1-.2.1-.4.1-.6c0-.2 0-.4-.1-.6c-.1-.1-.2-.3-.3-.4c-.2-.1-.3-.2-.5-.3c-.2-.1-.4-.1-.7-.1c-.2 0-.4 0-.6.1c-.2.1-.3.2-.5.3c-.1.1-.2.3-.3.4c-.1.2-.1.4-.1.6zm3.2 3.1c.4 0 .9 0 1.2.1c.4 0 .7.2 1 .3c.2.1.4.3.6.5c.1.2.2.5.2.8c0 .2-.1.5-.2.7c-.2.2-.4.4-.6.5c-.3.2-.6.3-1 .4c-.3 0-.8.1-1.2.1c-.5 0-.9-.1-1.3-.1c-.4-.1-.7-.2-.9-.4c-.3-.1-.5-.3-.6-.5c-.2-.2-.2-.5-.2-.7c0-.3 0-.6.2-.8c.1-.2.3-.4.6-.5c.2-.1.5-.3.9-.3c.4-.1.8-.1 1.3-.1zm0 2.7c.7 0 1.2-.1 1.6-.3c.4-.2.5-.4.5-.7c0-.4-.1-.6-.5-.8c-.4-.2-.9-.3-1.6-.3c-.7 0-1.2.1-1.6.3c-.4.2-.6.4-.6.8c0 .3.2.5.6.7c.4.2.9.3 1.6.3zm11.7-3v-2.8h-2v-.7h2v-1.9h.8v5.4h-.8zm-1.4-1.1l-.4.6c-.5-.2-1-.4-1.3-.8c-.4-.3-.7-.7-.9-1.2c-.2.5-.5 1-.9 1.4c-.4.4-.9.7-1.4.9l-.4-.7c.3-.1.6-.3.9-.5c.3-.2.5-.4.7-.7c.2-.3.4-.6.5-.9c.1-.3.2-.7.2-1c-.03 0 0-.9 0-.9h.8v.9c0 .3.1.6.2.9c.1.3.2.6.4.8c.2.3.4.5.7.7c.3.2.6.4.9.5zm-.8 1.3c.5 0 .9.1 1.2.1c.4.1.7.2 1 .4c.3.1.5.3.6.5c.2.2.2.5.2.8c0 .2 0 .5-.2.7c-.1.2-.3.4-.6.5c-.3.2-.6.3-1 .4c-.3 0-.7.1-1.2.1c-.5 0-.9-.1-1.3-.1c-.4-.1-.7-.2-.9-.4c-.3-.1-.5-.3-.7-.5c-.1-.2-.2-.5-.2-.7c0-.3.1-.6.2-.8c.2-.2.4-.4.7-.5c.2-.2.5-.3.9-.4c.4 0 .8-.1 1.3-.1zm0 2.8c.7 0 1.2-.1 1.6-.3c.4-.2.6-.4.6-.7c0-.4-.2-.7-.6-.8c-.4-.2-.9-.3-1.6-.3c-.7 0-1.3.1-1.7.3c-.3.1-.5.4-.5.8c0 .3.2.5.5.7c.4.2 1 .3 1.7.3zm4.3.7l.4-2.1h.9l-.6 2.1h-.7z" stroke="none" fill="#111111"/></g><g id="Polygon113513"><path d="m6.8 26.3h2v.7H.5v-.7h2.1s-.03-2.45 0-2.4c-.4-.2-.7-.5-.9-.8c-.2-.3-.4-.7-.4-1.1c0-.4.1-.7.3-1c.2-.3.4-.5.7-.7c.3-.2.6-.4 1-.5c.4-.1.9-.2 1.4-.2c.5 0 .9.1 1.3.2c.4.1.8.3 1.1.5c.3.2.5.4.7.7c.1.3.2.6.2 1c0 .4-.1.7-.3 1.1c-.2.3-.5.5-.9.7c-.01.04 0 2.5 0 2.5zm-2.1-6c-.4 0-.7 0-1 .1c-.4.1-.6.2-.8.3c-.3.2-.4.4-.6.6c-.1.2-.1.4-.1.7c0 .2 0 .5.1.7c.2.2.3.4.6.5c.2.1.4.3.8.3c.3.1.6.2 1 .2c.3 0 .7-.1 1-.2c.3 0 .6-.2.8-.3c.2-.1.4-.3.5-.5c.1-.2.2-.5.2-.7c0-.3-.1-.5-.2-.7c-.1-.2-.3-.4-.5-.6c-.2-.1-.5-.2-.8-.3c-.3-.1-.7-.1-1-.1zm0 4c-.5 0-.9 0-1.3-.1v2.1h2.6s-.04-2.13 0-2.1c-.5.1-.9.1-1.3.1zm13.5-3.2h-1.4v1.3h1.4v.6h-1.4v1.5h-.8v-5.4h.8v1.3h1.4v.7zm-3.5.6c0 .4-.1.6-.2.9c-.1.3-.3.5-.5.7c-.2.2-.5.3-.8.4c-.3.1-.6.2-.9.2c-.4 0-.7-.1-1-.2c-.3-.1-.5-.2-.7-.4c-.2-.2-.4-.4-.5-.7c-.1-.3-.2-.5-.2-.9c0-.3.1-.6.2-.8c.1-.3.3-.5.5-.7c.2-.2.4-.3.7-.5c.3-.1.6-.1 1-.1c.3 0 .6 0 .9.1c.3.2.6.3.8.5c.2.2.4.4.5.7c.1.2.2.5.2.8zm-4 0c0 .2 0 .4.1.6c.1.2.2.4.4.5c.1.1.3.2.4.3c.2.1.4.1.7.1c.2 0 .4 0 .6-.1c.2-.1.4-.2.5-.3c.1-.1.3-.3.3-.5c.1-.2.2-.4.2-.6c0-.2-.1-.4-.2-.6c0-.1-.2-.3-.3-.4c-.1-.1-.3-.2-.5-.3c-.2-.1-.4-.1-.6-.1c-.3 0-.5 0-.7.1c-.1.1-.3.2-.4.3c-.2.1-.3.3-.4.4c-.1.2-.1.4-.1.6zm3.2 3.1c.5 0 .9 0 1.3.1c.3 0 .6.2.9.3c.3.1.5.3.6.5c.2.2.2.5.2.8c0 .2 0 .5-.2.7c-.1.2-.3.4-.6.5c-.3.2-.6.3-.9.4c-.4 0-.8.1-1.3.1c-.4 0-.9-.1-1.2-.1c-.4-.1-.7-.2-1-.4c-.3-.1-.5-.3-.6-.5c-.1-.2-.2-.5-.2-.7c0-.3.1-.6.2-.8c.1-.2.3-.4.6-.5c.3-.1.6-.3 1-.3c.3-.1.8-.1 1.2-.1zm0 2.7c.7 0 1.2-.1 1.6-.3c.4-.2.6-.4.6-.7c0-.4-.2-.6-.6-.8c-.4-.2-.9-.3-1.6-.3c-.7 0-1.2.1-1.6.3c-.4.2-.6.4-.6.8c0 .3.2.5.6.7c.4.2.9.3 1.6.3zm9.6-1.2h3.7v.7h-8.3v-.7h3.7v-1.9h-2.7v-4.7h.8v1.6h4.7v-1.6h.8v4.7h-2.7v1.9zM20.7 22v1.7h4.7V22h-4.7zm15.2-1.6v.7h-7.4v-.7h3.3v-1.2h.8v1.2h3.3zm-3.3 6h3.8v.7h-8.3v-.7h3.7v-1.2c-.8-.1-1.5-.3-1.9-.6c-.5-.3-.7-.7-.7-1.2c0-.3.1-.5.2-.7l.6-.6c.3-.1.6-.2 1-.3c.3-.1.8-.1 1.2-.1c.5 0 .9 0 1.3.1l.9.3c.3.2.5.4.6.6c.1.2.2.4.2.7c0 .5-.2.9-.7 1.2c-.4.3-1.1.5-1.9.6c.04-.05 0 1.2 0 1.2zm-2.5-3c0 .4.1.6.5.8c.4.2.9.3 1.6.3c.7 0 1.2-.1 1.6-.3c.4-.2.6-.4.6-.8c0-.3-.2-.6-.6-.8c-.4-.2-.9-.3-1.6-.3c-.7 0-1.2.1-1.6.3c-.4.2-.5.5-.5.8zm15.7-.6v.6h-1.5v4.8h-.8v-9.1h.8v3.7h1.5zm-5.5-3s.03 1.68 0 1.7c0 .4.1.8.2 1.2c.1.4.3.7.5 1.1c.2.3.5.7.8.9c.2.3.5.5.9.7l-.6.7c-.5-.3-.9-.7-1.3-1.2c-.4-.5-.7-1-.9-1.7c-.2.7-.5 1.3-.9 1.8c-.4.5-.8 1-1.4 1.2l-.5-.6c.4-.2.7-.4 1-.7c.3-.3.5-.6.7-1c.2-.4.4-.8.5-1.2c.1-.4.2-.8.2-1.2v-1.7h.8zM51 26.4h3.7v.7h-8.3v-.7h3.8v-1.7h-2.7v-2.9h5.4v-1.4h-5.4v-.7h6.2v2.8h-5.4v1.5h5.6v.7H51v1.7zM64.2 21c-.03-.03 0-.4 0-.4h-5.6v-.6h6.4v2.8c-.1.3-.1.7-.1 1c-.1.4-.1.8-.2 1.2l-.8-.1c.1-.7.2-1.3.2-1.9c0-.7.1-1.3.1-2zm-1.4 5.2h3.2v.7h-8.3v-.7h2v-3h.9v3h1.4v-3h.8v3zm8.2-3.4c-.5 0-.9-.1-1.3-.2c-.4 0-.8-.2-1-.3c-.3-.2-.5-.3-.7-.6c-.1-.2-.2-.4-.2-.7c0-.3.1-.5.2-.7c.2-.2.4-.4.7-.6c.2-.1.6-.2 1-.3c.4-.1.8-.1 1.3-.1c.5 0 1 0 1.3.1c.4.1.8.2 1.1.3c.2.2.5.4.6.6c.2.2.2.4.2.7c0 .3 0 .5-.2.7c-.1.3-.4.4-.6.6c-.3.1-.7.3-1.1.3c-.3.1-.8.2-1.3.2zm0-2.9c-.7 0-1.3.1-1.7.3c-.4.2-.6.5-.6.8c0 .4.2.6.6.8c.4.2 1 .3 1.7.3c.8 0 1.3-.1 1.7-.3c.5-.2.7-.4.7-.8c0-.3-.2-.6-.7-.8c-.4-.2-.9-.3-1.7-.3zm4.2 4.2H73v1.2h1.1v2.9h-.8V26h-5.5v-.7h1.3v-1.2h-2.2v-.7h8.3v.7zm-3.1 1.2v-1.2h-2.2v1.2h2.2zM83 19h.8v9.2h-.8v-4.6h-1.2v4.1h-.8v-8.5h.8v3.7h1.2V19zm-4.3.3v1.3h1.9v.7h-4.5v-.7h1.8v-1.3h.8zm-.4 2.6c.3 0 .6 0 .8.1c.2.2.5.3.6.5c.2.2.3.4.4.6c.1.3.2.6.2.9c0 .3-.1.6-.2.8c-.1.3-.2.5-.4.7c-.1.2-.4.3-.6.4c-.2.1-.5.2-.8.2c-.3 0-.5-.1-.8-.2c-.2-.1-.4-.2-.6-.4c-.2-.2-.3-.4-.4-.7c-.1-.2-.1-.5-.1-.8c0-.3 0-.6.1-.9c.1-.2.2-.4.4-.6c.2-.2.4-.3.6-.5c.3-.1.5-.1.8-.1zm0 3.5c.4 0 .7-.2.9-.4c.2-.3.3-.6.3-1c0-.2 0-.4-.1-.6c0-.1-.1-.3-.2-.4c-.1-.1-.2-.2-.4-.3c-.1-.1-.3-.1-.5-.1c-.3 0-.6.1-.9.4c-.2.2-.3.6-.3 1c0 .4.1.7.4 1c.2.2.5.4.8.4zm16-6.4h.8v9.2h-.8v-4.8h-1.2v4.3h-.8v-8.5h.8v3.5h1.2V19zM90 21.4s-.02.45 0 .4c0 .4 0 .8.1 1.1c.1.4.2.7.4 1c.2.4.4.7.6.9c.3.3.5.5.9.7l-.5.6c-.5-.3-.9-.6-1.2-1c-.3-.5-.5-1-.7-1.5c-.2.6-.4 1.1-.7 1.6c-.3.5-.7.8-1.2 1.1l-.5-.6c.3-.2.6-.5.9-.7c.2-.3.4-.6.6-1c.1-.3.3-.6.4-1c0-.4.1-.8.1-1.2v-.4h-1.7v-.7h1.7v-1.3h.8v1.3h1.7v.7H90zm12.7 2.2h2.1v.6h-8.3v-.6h2s.04-1.32 0-1.3c-.7-.3-1.1-.8-1.1-1.4c0-.3.1-.5.2-.7c.2-.2.4-.4.7-.5c.3-.2.6-.3 1-.4c.4-.1.8-.1 1.3-.1c.5 0 1 0 1.4.1c.4.1.7.2 1 .4c.3.1.5.3.6.5c.2.2.2.4.2.7c0 .3-.1.6-.2.8c-.2.2-.5.4-.9.6c.03-.03 0 1.3 0 1.3zm-4.4-2.7c0 .3.2.6.6.8c.4.2 1 .3 1.7.3c.8 0 1.4-.1 1.8-.3c.4-.2.6-.5.6-.8c0-.3-.2-.6-.6-.8c-.4-.2-1-.2-1.8-.2c-.7 0-1.3 0-1.7.2c-.4.2-.6.5-.6.8zm1.1 1.6c-.03 0 0 1.1 0 1.1h2.5s.01-1.1 0-1.1c-.2 0-.4.1-.6.1H100c-.2 0-.4-.1-.6-.1zm1.2 2.4c1 0 1.8.2 2.3.4c.6.3.9.7.9 1.3c0 .5-.3.9-.9 1.2c-.5.2-1.3.4-2.3.4c-1 0-1.7-.2-2.3-.4c-.5-.3-.8-.7-.8-1.2c0-.6.3-1 .8-1.3c.6-.2 1.3-.4 2.3-.4zm0 2.6c.8 0 1.3 0 1.7-.2c.4-.2.6-.4.6-.7c0-.4-.2-.6-.6-.8c-.4-.1-.9-.2-1.7-.2c-.7 0-1.2.1-1.7.2c-.4.2-.6.4-.6.8c0 .3.2.5.6.7c.5.2 1 .2 1.7.2zm10.5-7.5v.7h-5.4v-.7h2.3v-1h.8v1h2.3zm3 1.5v.7h-1.3v2.3h-.9v-5.4h.9v2.4h1.3zm-3.5 1.3c0 .2-.1.4-.2.6c-.1.2-.2.4-.4.6c-.2.1-.4.2-.7.3c-.3.1-.6.1-.9.1c-.3 0-.6 0-.9-.1c-.3-.1-.5-.2-.7-.3c-.2-.2-.3-.4-.4-.6c-.1-.2-.2-.4-.2-.6c0-.3.1-.5.2-.7c.1-.2.2-.4.4-.5c.2-.2.4-.3.7-.3c.3-.1.6-.2.9-.2c.3 0 .6.1.9.2c.3 0 .5.1.7.3c.2.1.3.3.4.5c.1.2.2.4.2.7zm-3.6 0c0 .3.1.5.4.7c.2.2.6.3 1 .3c.4 0 .8-.1 1-.3c.3-.2.4-.4.4-.7c0-.3-.1-.6-.4-.8c-.2-.1-.6-.2-1-.2c-.4 0-.8.1-1 .2c-.3.2-.4.5-.4.8zm0 5.3v-3h5.8v3H107zm.9-2.4v1.7h4.1v-1.7h-4.1zm11.1-6.1c.5 0 .9.1 1.3.2c.4.1.8.3 1.1.5c.3.2.5.5.7.8c.1.3.2.7.2 1c0 .4-.1.8-.2 1.1c-.2.3-.4.6-.7.8c-.3.2-.7.4-1.1.5c-.4.1-.8.2-1.3.2c-.5 0-.9-.1-1.3-.2c-.4-.1-.8-.3-1.1-.5c-.3-.2-.5-.5-.7-.8c-.1-.3-.2-.7-.2-1.1c0-.3.1-.7.2-1c.2-.3.4-.6.7-.8c.3-.2.7-.4 1.1-.5c.4-.1.8-.2 1.3-.2zm0 .7c-.4 0-.7 0-1 .1c-.3.1-.6.2-.8.4c-.2.2-.4.4-.5.6c-.2.2-.2.5-.2.7c0 .3 0 .6.2.8c.1.2.3.4.5.6c.2.1.5.3.8.4c.3 0 .6.1 1 .1c.4 0 .7-.1 1-.1c.3-.1.6-.3.8-.4c.2-.2.4-.4.5-.6c.2-.2.2-.5.2-.8c0-.2 0-.5-.2-.7c-.1-.2-.3-.4-.5-.6c-.2-.2-.5-.3-.8-.4c-.3-.1-.6-.1-1-.1zm-4.1 6h8.3v.7h-8.3v-.7zm13.7.1h3.7v.7H124v-.7h3.8v-1.7h-2.7v-2.9h5.4v-1.4h-5.4v-.7h6.2v2.8h-5.4v1.5h5.6v.7h-2.9v1.7zM140 19h.9v9.2h-.9v-5.1h-1.5v-.8h1.5V19zm-2.2.8s.04 2.11 0 2.1c0 .3.1.6.1 1c.1.3.1.6.2 1c.1.3.3.6.5.9c.2.2.4.5.7.7l-.6.6c-.3-.2-.6-.6-.8-.9c-.2-.4-.3-.8-.5-1.3c-.1.5-.2.9-.4 1.3c-.2.4-.5.7-.8 1c-.4-.3-.7-.6-.9-1c-.2-.4-.3-.8-.4-1.3c-.1.5-.3.9-.5 1.2c-.2.4-.4.7-.8 1l-.5-.6c.3-.2.5-.5.7-.7c.2-.3.3-.6.4-1c.1-.3.2-.6.2-1c.1-.3.1-.6.1-.9v-2.1h.8v2.9c.1.2.1.5.2.8c0 .3.1.6.2.8c.1.3.3.6.5.8c.2-.2.3-.5.4-.7l.3-.9c0-.2.1-.5.1-.8v-.8c.05.01 0-2.1 0-2.1h.8zm13.1 1.1c.04-.03 0-.3 0-.3h-5.5v-.6h6.4s-.02.87 0 .9v.8c0 .4 0 .7-.1 1c0 .4 0 .7-.1 1.1c0 .4-.1.8-.2 1.3l-.8-.1c.2-.9.3-1.6.3-2.3v-1.8zm-2.4 5.3h4.3v.7h-8.3v-.7h3.2v-3.3h.8v3.3zm11.4-2.6h2v.6h-8.2v-.6h2v-1.3c-.7-.3-1.1-.8-1.1-1.4c0-.3.1-.5.2-.7c.2-.2.4-.4.6-.5c.3-.2.7-.3 1.1-.4c.4-.1.8-.1 1.3-.1c.5 0 .9 0 1.3.1c.4.1.8.2 1 .4c.3.1.5.3.7.5c.1.2.2.4.2.7c0 .3-.1.6-.3.8c-.2.2-.5.4-.8.6v1.3zm-4.5-2.7c0 .3.2.6.7.8c.4.2 1 .3 1.7.3c.7 0 1.3-.1 1.7-.3c.4-.2.6-.5.6-.8c0-.3-.2-.6-.6-.8c-.4-.2-1-.2-1.7-.2c-.7 0-1.3 0-1.7.2c-.5.2-.7.5-.7.8zm1.1 1.6c.03 0 0 1.1 0 1.1h2.6s-.03-1.1 0-1.1c-.2 0-.4.1-.6.1h-1.4c-.2 0-.4-.1-.6-.1zm1.3 2.4c1 0 1.8.2 2.3.4c.6.3.8.7.8 1.3c0 .5-.2.9-.8 1.2c-.5.2-1.3.4-2.3.4c-1 0-1.8-.2-2.3-.4c-.6-.3-.8-.7-.8-1.2c0-.6.2-1 .8-1.3c.5-.2 1.3-.4 2.3-.4zm0 2.6c.7 0 1.3 0 1.7-.2c.4-.2.6-.4.6-.7c0-.4-.2-.6-.6-.8c-.4-.1-1-.2-1.7-.2c-.7 0-1.3.1-1.7.2c-.4.2-.6.4-.6.8c0 .3.2.5.6.7c.4.2 1 .2 1.7.2zm13.8-8.4h.8v9.1h-.8v-9.1zm-5.9 4.4l-.4-.6c.4-.1.7-.2.9-.3c.3-.2.5-.3.7-.5c.2-.2.4-.4.5-.6c.1-.3.1-.5.1-.7c.03-.04 0-.1 0-.1h-2v-.6h2v-1h.9v1h2v.6h-2s-.04.06 0 .1c0 .2 0 .4.1.6c.1.2.3.4.5.6c.2.2.4.3.7.5c.2.1.5.2.8.3l-.3.6c-.5-.1-1-.3-1.4-.6c-.3-.2-.6-.6-.8-.9c-.2.4-.5.7-.9 1c-.4.3-.9.5-1.4.6zm5.2.4l.1.6c-.4.1-.9.1-1.3.2c-.4 0-.9.1-1.3.1c-.02-.01 0 3.1 0 3.1h-.9s.04-3.06 0-3.1c-.4.1-.8.1-1.3.1H165l-.1-.7h1.4c.5 0 1 0 1.5-.1h1.6c.5-.1 1-.1 1.5-.2zm11.6-2.8h-1.3v1.3h1.3v.7h-1.3v1.4h-.8v-5.4h.8v1.3h1.3v.7zm-3.4.7c0 .3-.1.6-.2.8c-.1.3-.3.5-.5.7c-.2.2-.5.4-.8.5c-.3.1-.6.1-.9.1c-.4 0-.7 0-1-.1c-.3-.1-.5-.3-.8-.5c-.2-.2-.3-.4-.4-.7c-.2-.2-.2-.5-.2-.8c0-.4 0-.7.2-.9c.1-.3.2-.5.4-.7c.3-.2.5-.3.8-.5c.3-.1.6-.1 1-.1c.3 0 .6 0 .9.1c.3.2.6.3.8.5c.2.2.4.4.5.7c.1.2.2.5.2.9zm-4 0c0 .2 0 .4.1.5c.1.2.2.4.3.5c.2.1.3.2.5.3c.2.1.4.1.7.1c.2 0 .4 0 .6-.1c.2-.1.4-.2.5-.3c.1-.1.2-.3.3-.5c.1-.1.1-.3.1-.5c0-.3 0-.5-.1-.6c-.1-.2-.2-.4-.3-.5c-.1-.1-.3-.2-.5-.3c-.2-.1-.4-.1-.6-.1c-.3 0-.5 0-.7.1c-.2.1-.3.2-.5.3c-.1.1-.2.3-.3.5c-.1.1-.1.3-.1.6zm.2 3.8v-.7h5.9v3.3h-.8v-2.6h-5.1zm15-6.6h.8v9.2h-.8V19zm-1.9 2.6v-2.3h.8v8.4h-.8v-3.1h-1.6v-.7h1.6v-1.6s-1.49-.04-1.5 0c-.2.7-.6 1.5-1.1 2.1c-.5.7-1.2 1.3-2 1.8l-.5-.6c1-.6 1.7-1.3 2.2-2.1c.5-.8.8-1.6.9-2.6h-2.7v-.7h3.5c0 .5-.1.9-.1 1.4h1.3zm4.8 1.5l-.2-.7c.4 0 .8-.1 1.2-.2c.3-.1.7-.2 1-.4c.2-.1.5-.3.6-.5c.2-.2.3-.4.3-.7h-2.8v-.7h2.9v-.9h.8v.9h2.9v.7h-2.8c0 .3.1.5.2.7c.2.2.4.4.7.5c.3.2.7.3 1 .4c.4.1.8.2 1.3.2l-.3.7c-.4-.1-.7-.1-1.1-.2l-1-.3c-.3-.2-.5-.3-.7-.5c-.3-.2-.5-.4-.6-.6c-.1.2-.3.4-.6.6c-.2.2-.4.3-.7.5l-1 .3c-.3.1-.7.1-1.1.2zm-.7.6h8.2v.7h-8.2v-.7zm4.1 1.4c1 0 1.8.2 2.3.4c.6.3.8.7.8 1.2c0 .5-.2.8-.8 1.1c-.5.3-1.3.4-2.3.4c-1 0-1.8-.1-2.3-.4c-.6-.3-.8-.6-.8-1.1c0-.5.2-.9.8-1.2c.5-.2 1.3-.4 2.3-.4zm0 2.4c.7 0 1.3 0 1.7-.2c.4-.1.6-.4.6-.6c0-.3-.2-.5-.6-.7c-.4-.2-1-.2-1.7-.2c-.7 0-1.3 0-1.7.2c-.4.2-.6.4-.6.7c0 .2.2.5.6.6c.4.2 1 .2 1.7.2zm11.7-8.5h.8v9.2h-.8V19zm-3.7.7c.4 0 .7.1 1 .2c.3.1.6.2.8.4c.2.2.4.4.5.7c.1.3.2.5.2.9c0 .3-.1.6-.2.8c-.1.3-.3.5-.5.7c-.2.2-.5.4-.8.5c-.3.1-.6.1-1 .1c-.3 0-.7 0-1-.1c-.3-.1-.5-.3-.7-.5c-.3-.2-.4-.4-.6-.7c-.1-.2-.1-.5-.1-.8c0-.4 0-.6.1-.9c.2-.3.3-.5.6-.7c.2-.2.4-.3.7-.4c.3-.1.7-.2 1-.2zm0 .7c-.2 0-.4.1-.6.1l-.6.3c-.1.2-.2.3-.3.5c-.1.2-.1.3-.1.6c0 .2 0 .4.1.5c.1.2.2.4.3.5l.6.3c.2.1.4.1.6.1c.2 0 .5 0 .7-.1c.2-.1.3-.2.5-.3c.1-.1.2-.3.3-.5c.1-.1.1-.3.1-.5c0-.3 0-.4-.1-.6c-.1-.2-.2-.3-.3-.5c-.2-.1-.3-.2-.5-.3c-.2 0-.5-.1-.7-.1zm-2.8 5.8l-.1-.7h1.4c.4 0 .9 0 1.5-.1h1.5c.5-.1 1.1-.1 1.6-.2v.6c-.5.1-1 .2-1.5.2c-.6.1-1.1.1-1.6.1c-.5.1-1 .1-1.5.1h-1.3zm18.6-7.2v4.7h-.8V19h.8zm-2.6 2.4c0 .3 0 .6-.1.8c-.2.3-.3.5-.5.7c-.2.1-.5.3-.8.4c-.3.1-.6.1-.9.1c-.4 0-.7 0-1-.1c-.3-.1-.5-.3-.7-.4c-.2-.2-.4-.4-.5-.7c-.1-.2-.2-.5-.2-.8c0-.3.1-.6.2-.8c.1-.3.3-.5.5-.7c.2-.1.4-.3.7-.4c.3-.1.6-.1 1-.1c.3 0 .6 0 .9.1c.3.1.6.3.8.4c.2.2.3.4.5.7c.1.2.1.5.1.8zm-3.9 0c0 .2.1.4.1.5c.1.2.2.4.4.5c.1.1.3.2.5.3c.1 0 .3.1.6.1c.2 0 .4-.1.6-.1c.2-.1.3-.2.5-.3c.1-.1.2-.3.3-.5c.1-.1.1-.3.1-.5c0-.2 0-.4-.1-.5c-.1-.2-.2-.3-.3-.5c-.2-.1-.3-.2-.5-.2c-.2-.1-.4-.1-.6-.1c-.3 0-.5 0-.6.1c-.2 0-.4.1-.5.2c-.2.2-.3.3-.4.5c0 .1-.1.3-.1.5zm1.4 6h5.4v.7h-6.2v-2.3h5.1v-1h-5.1v-.6h5.9v2.2h-5.1v1zm15.3-4.7v.7h-1.5v4.8h-.8v-9.1h.8v3.6h1.5zm-5.4-2s-.04 1.14 0 1.1c0 .4 0 .8.1 1.1c.2.4.3.8.6 1.1c.2.3.4.6.7.9c.3.3.6.5.9.6l-.4.7c-.6-.2-1-.6-1.4-1.1c-.4-.5-.7-1.1-.9-1.7c-.1.3-.3.7-.4 1c-.2.3-.4.6-.6.8c-.2.3-.4.5-.6.7c-.3.2-.5.4-.8.5l-.5-.6c.4-.2.7-.4 1-.7c.3-.3.5-.6.7-1c.2-.3.4-.7.5-1.1c.2-.4.2-.8.2-1.2c.04.04 0-1.1 0-1.1h-2.1v-.7h5v.7h-2zm12.7-1.7h.9v9.2h-.9V19zm-5.3 4.2s.03 2.09 0 2.1c.8 0 1.5 0 2.2-.1c.7 0 1.5-.1 2.3-.2l.1.7c-.5 0-.9.1-1.2.1c-.4.1-.8.1-1.2.1c-.4 0-.7.1-1.1.1h-1.9v-3.5h3.4v-1.9h-3.4v-.7h4.2v3.3h-3.4zm15.3.3l-.4.7c-.5-.2-1-.4-1.4-.7c-.4-.4-.7-.7-.9-1.2c-.2.5-.5.9-.8 1.3c-.4.4-.9.6-1.4.8l-.5-.6c.4-.1.7-.3 1-.5c.2-.2.5-.4.7-.6c.2-.3.3-.5.4-.8c.2-.3.2-.6.2-.9v-.2h-2v-.6h2V19h.8v1.2h2.1v.6h-2.1s.05.21 0 .2c0 .3.1.6.2.8c.1.3.3.5.5.7c.2.3.4.5.7.6c.2.2.5.3.9.4zm1.7-2.1h1.4v.7h-1.4v2.6h-.8V19h.8v2.4zm-2.9 3.5c.9 0 1.7.1 2.2.4c.6.3.8.7.8 1.2c0 .6-.2 1-.8 1.2c-.5.3-1.3.5-2.2.5c-.9 0-1.7-.2-2.2-.5c-.5-.2-.8-.6-.8-1.2c0-.5.3-.9.8-1.2c.5-.3 1.3-.4 2.2-.4zm0 2.6c.7 0 1.2-.1 1.6-.2c.4-.2.6-.4.6-.8c0-.3-.2-.5-.6-.7c-.4-.2-.9-.3-1.6-.3c-.7 0-1.2.1-1.6.3c-.4.2-.6.4-.6.7c0 .4.2.6.6.8c.4.1.9.2 1.6.2zm5.7-4.8l-.3-.6c.5-.1.9-.1 1.2-.2c.4-.1.8-.2 1-.3c.3-.2.6-.3.8-.5l.3-.6c-.02-.02-2.8 0-2.8 0v-.7h2.8v-.8h.9v.8h2.8v.7s-2.79-.02-2.8 0c0 .2.2.4.3.6c.2.2.5.3.7.5l1 .3c.4.1.8.1 1.2.2l-.2.6c-.4 0-.8-.1-1.1-.2c-.4 0-.7-.1-1-.3c-.3-.1-.6-.2-.8-.4c-.2-.1-.4-.3-.6-.5c-.1.2-.3.4-.5.5c-.2.2-.5.3-.8.4c-.3.2-.6.3-1 .3c-.4.1-.7.2-1.1.2zm7.6 1h-3.7v.9h2.6v2h-5.4v.9h5.7v.6h-6.5V26h5.4v-.8h-5.4v-.6h2.7v-.9h-3.7v-.6h8.3v.6zm7.9-4.7h.8v9.2h-.8V19zm-1.9 3.6v-3.4h.8v8.5h-.8v-4.4s-1.11-.02-1.1 0c0 .4-.1.8-.2 1.2c-.1.3-.2.7-.4.9c-.1.3-.3.4-.6.6c-.2.1-.5.2-.7.2c-.3 0-.6-.1-.9-.2c-.2-.2-.4-.4-.6-.7c-.1-.3-.3-.6-.4-1c-.1-.4-.1-.8-.1-1.3c0-.5 0-1 .1-1.3c.1-.4.3-.8.4-1c.2-.3.4-.5.6-.7c.3-.1.6-.2.9-.2c.2 0 .5.1.7.2c.2.1.4.3.6.6c.2.2.3.5.4.8c.1.4.2.8.2 1.2h1.1zm-3 2.8c.3 0 .6-.2.8-.6c.2-.5.3-1.1.3-1.8v-1c-.1-.3-.2-.6-.3-.8c-.1-.2-.2-.3-.4-.5c-.1-.1-.3-.1-.4-.1c-.4 0-.7.2-.9.6c-.2.5-.3 1-.3 1.8c0 .7.1 1.3.3 1.8c.2.4.5.6.9.6zm15.8-6.4h.9v9.2h-.9V19zm-6.1 1s4.27.03 4.3 0c0 .7-.1 1.3-.3 1.9c-.1.7-.4 1.2-.7 1.8c-.4.5-.8 1-1.3 1.5c-.6.5-1.2.9-2 1.3l-.4-.7c1.2-.6 2.1-1.3 2.8-2.2c.6-.8.9-1.8 1-2.9h-3.4v-.7zm15.3-1h.9v9.2h-.9v-3.5s-2.26-.04-2.3 0c-.1.4-.4.8-.7 1c-.4.3-.8.4-1.2.4c-.4 0-.7 0-.9-.2c-.3-.1-.6-.4-.8-.6c-.2-.3-.3-.7-.4-1c-.2-.4-.2-.9-.2-1.4c0-.5 0-.9.2-1.3c.1-.4.2-.7.4-1c.2-.3.5-.5.8-.6c.2-.2.5-.3.9-.3c.4 0 .8.2 1.1.4c.3.2.6.6.8 1h2.3V19zm-4.2 6.4c.2 0 .4-.1.6-.2c.1-.1.3-.3.4-.5c.2-.2.3-.5.4-.8c0-.3.1-.6.1-1c0-.3-.1-.7-.1-1c-.1-.3-.2-.5-.4-.7c-.1-.2-.3-.4-.4-.5c-.2-.1-.4-.2-.6-.2c-.2 0-.4.1-.6.2c-.2.1-.4.3-.5.5c-.1.2-.2.4-.3.7c-.1.3-.1.7-.1 1c0 .4 0 .7.1 1c.1.3.2.6.3.8c.1.2.3.4.5.5c.2.1.4.2.6.2zm2.2-2.5c0 .5 0 .8-.1 1.1c.05-.02 2.1 0 2.1 0v-2.2s-2.08-.03-2.1 0c.1.2.1.3.1.5v.6zm13.1-.1v.7h-1.5v4.7h-.9v-9.1h.9v3.7h1.5zm-5.5-3.6v1.3h2.2v.7h-5.3v-.7h2.3v-1.3h.8zm-.4 2.7c.3 0 .6.1.9.2c.3.1.5.2.7.4c.2.2.3.4.5.7c.1.3.1.5.1.8c0 .4 0 .6-.1.9c-.2.3-.3.5-.5.7c-.2.2-.4.3-.7.4c-.3.1-.6.1-.9.1c-.3 0-.6 0-.9-.1c-.3-.1-.5-.2-.7-.4c-.2-.2-.4-.4-.5-.7c-.1-.3-.1-.5-.1-.9c0-.3 0-.5.1-.8c.1-.3.3-.5.5-.7c.2-.2.4-.3.7-.4c.3-.1.6-.2.9-.2zm0 3.6c.2 0 .4-.1.6-.2c.1 0 .3-.1.4-.2c.1-.2.2-.3.3-.5c.1-.2.1-.3.1-.6c0-.2 0-.3-.1-.5c-.1-.2-.2-.3-.3-.5c-.1-.1-.3-.2-.4-.3c-.2 0-.4-.1-.6-.1c-.2 0-.4.1-.6.1c-.2.1-.3.2-.4.3c-.2.2-.3.3-.3.5c-.1.2-.1.3-.1.5c0 .3 0 .4.1.6c0 .2.1.3.3.5c.1.1.2.2.4.2c.2.1.4.2.6.2zm12.9-4.6c.04-.03 0-.3 0-.3h-5.5v-.6h6.4s-.02.87 0 .9v.8c0 .4 0 .7-.1 1c0 .4 0 .7-.1 1.1c0 .4-.1.8-.2 1.3l-.8-.1c.2-.9.3-1.6.3-2.3v-1.8zm-2.4 5.3h4.3v.7h-8.3v-.7h3.2v-3.3h.8v3.3zm14.8-7.1v5.2h-.9v-5.2h.9zm-5 4.7c-.3 0-.6 0-.9-.1c-.3-.1-.6-.3-.8-.4c-.2-.2-.3-.5-.5-.7c-.1-.3-.1-.6-.1-.9c0-.3 0-.6.1-.9c.2-.2.3-.4.5-.6c.2-.2.5-.4.8-.5c.3-.1.6-.1.9-.1c.4 0 .7 0 1 .1c.3.1.5.3.8.5c.2.2.3.4.5.6c.1.3.1.6.1.9c0 .3 0 .6-.1.9c-.2.2-.3.5-.5.7c-.3.1-.5.3-.8.4c-.3.1-.6.1-1 .1zm0-3.5c-.2 0-.4 0-.6.1c-.2.1-.3.2-.5.3c-.1.1-.2.3-.3.4c-.1.2-.1.4-.1.6c0 .2 0 .4.1.6c.1.2.2.3.3.4c.2.2.3.3.5.3c.2.1.4.2.6.2c.3 0 .5-.1.7-.2c.2 0 .3-.1.5-.3c.1-.1.2-.2.3-.4c.1-.2.1-.4.1-.6c0-.2 0-.4-.1-.6c-.1-.1-.2-.3-.3-.4c-.2-.1-.3-.2-.5-.3c-.2-.1-.4-.1-.7-.1zm3.9 4.4s.03.46 0 .5c0 .2.1.4.2.7c0 .2.2.4.3.6l.6.6c.2.1.5.2.8.3l-.4.7c-.5-.2-.9-.4-1.2-.7c-.3-.3-.5-.7-.7-1.1c-.1.4-.3.8-.6 1.1c-.3.3-.6.6-1.1.7c-.4-.1-.8-.4-1.1-.7c-.2-.3-.4-.6-.6-1c-.1.3-.4.7-.7 1c-.3.3-.7.5-1.1.7l-.4-.7c.3-.1.5-.2.8-.4c.2-.1.4-.3.5-.5c.2-.2.3-.4.4-.7c.1-.2.1-.4.1-.6c.03-.04 0-.5 0-.5h.8s.04.46 0 .5c0 .4.1.8.3 1.2c.3.4.6.7 1 .9c.2-.1.4-.3.6-.4c.1-.2.3-.4.4-.6c.1-.2.2-.4.2-.6c.1-.2.1-.4.1-.5c.02-.04 0-.5 0-.5h.8zm11.3-2v.6h-1.5v4.9h-.9V19h.9v3.7h1.5zm-7.4-2.1s.05 4.61 0 4.6h2.2c.4-.1.7-.1 1-.1c.3-.1.6-.1 1-.2l.1.7c-.4.1-.7.1-1.1.2c-.3 0-.6 0-1 .1h-2.3c.04.03-.7 0-.7 0v-6h4.3v.7h-3.5zm7.9 7v-1h.9v1h-.9z" stroke="none" fill="#111111"/></g><g id="Polygon113512"><path d="m9.1 4.3v.7H7.6v4.7h-.9V.5h.9v3.8h1.5zM3.6 2.8v.7c0 .4.1.7.2 1.1c.1.4.2.7.4 1c.2.3.4.6.7.9c.3.2.6.5.9.6l-.4.7c-.6-.3-1-.6-1.4-1.1c-.3-.5-.6-1-.8-1.6c-.2.6-.5 1.2-.9 1.7c-.4.5-.8.9-1.4 1.1l-.4-.6l.9-.6c.3-.3.5-.6.7-.9c.2-.4.4-.7.5-1.1c.1-.4.2-.8.2-1.2c-.03.01 0-.7 0-.7H.7v-.7h2.1V.7h.8v1.4h2v.7h-2zm10.7 1.4v.8h-4.1v-4h.8v1.3h2.5V1h.8v.8h2.1V.6h.8v4.7h-.8V4.2h-2.1zm2.1-1.7h-2.1v1h2.1v-1zm-2.9 1.8V2.9H11v1.4h2.5zm-1.3 4.6h5.4v.7h-6.2V7.3h5v-.9h-5v-.6h5.8v2.1h-5v1zm15.2-4.5v.7h-1.5v4.6h-.8V.5h.8v3.9h1.5zm-3-2.7v.6H19v-.6h2.3V.6h.8v1.1h2.3zm-2.3 4.5v1c.4 0 .8-.1 1.3-.1c.4 0 .8-.1 1.2-.1v.6c-.5.1-1 .1-1.5.2c-.5 0-1 .1-1.5.1c-.5 0-.9 0-1.4.1h-1.3l-.1-.7c.4 0 .8 0 1.2-.1h1.3v-1c-.6 0-1-.2-1.3-.5c-.3-.3-.5-.7-.5-1.2c0-.2.1-.4.2-.6c.1-.3.2-.4.4-.6c.2-.1.5-.2.7-.3c.3-.1.6-.1.9-.1c.3 0 .6 0 .9.1c.2.1.5.2.7.3c.1.2.3.3.4.6c.1.2.2.4.2.6c0 .5-.2.9-.5 1.2c-.3.3-.8.5-1.3.5zm-1.8-1.7c0 .4.2.6.4.8c.3.2.6.3 1 .3c.4 0 .7-.1 1-.3c.2-.2.4-.4.4-.8c0-.3-.2-.5-.4-.7c-.3-.2-.6-.3-1-.3c-.4 0-.7.1-1 .3c-.2.2-.4.4-.4.7zm15.3-4v6.9h-.9V.5h.9zM34 5.3l.1.6c-.5.1-1 .1-1.5.2c-.5 0-1 0-1.5.1h-2.9l-.1-.7h2.6V4.2h-1.8V1.1h4.4v.7h-3.5v1.7h3.6v.7h-1.9s.04 1.28 0 1.3c.5 0 .9-.1 1.3-.1c.4 0 .8-.1 1.2-.1zm-3.5 3.5h5.4v.7h-6.2V6.9h.8v1.9zM46 .5h.8v9.2h-.8V.5zm-3.4.8s-.02 1.68 0 1.7c0 .4 0 .8.2 1.2c.1.4.3.8.5 1.2c.2.3.5.6.8.9c.3.3.6.5.9.6l-.5.7c-.5-.2-1-.6-1.4-1.1c-.4-.5-.7-1.1-.9-1.8c-.2.7-.5 1.3-1 1.9c-.4.5-.9.9-1.4 1.2l-.5-.7c.3-.2.6-.4.9-.7c.3-.2.6-.6.8-.9c.3-.4.4-.8.6-1.2c.1-.5.2-.9.2-1.3c-.04-.02 0-1.7 0-1.7h.8zM55.2.5h.8v9.2h-.8V.5zm-5.3.9s.03 5.21 0 5.2c.7 0 1.4 0 2.1-.1l2.2-.3l.1.7c-.8.2-1.5.3-2.3.3c-.7.1-1.4.1-2.2.1c.05.02-.7 0-.7 0V1.4h.8zM64.4.5h.8v9.2h-.8v-5h-2c0 .5-.1.9-.2 1.2c-.1.4-.3.7-.5.9c-.2.3-.4.5-.7.6c-.2.2-.5.2-.9.2c-.3 0-.6 0-.9-.2c-.2-.1-.5-.4-.7-.6c-.2-.3-.4-.7-.5-1c-.1-.4-.1-.9-.1-1.4c0-.5 0-.9.1-1.3c.1-.4.3-.7.5-1c.2-.3.5-.5.7-.6c.3-.2.6-.3.9-.3c.4 0 .6.1.9.2c.3.2.5.4.7.6c.2.2.4.5.5.9c.1.3.2.7.2 1.1c.01.03 2 0 2 0V.5zm-4.3 6.4c.3 0 .5-.1.6-.2c.2-.1.4-.3.5-.5c.1-.2.2-.5.3-.8c.1-.3.1-.6.1-1c0-.3 0-.7-.1-1c-.1-.3-.2-.5-.3-.7c-.1-.2-.3-.4-.5-.5c-.1-.1-.3-.2-.6-.2c-.2 0-.4.1-.6.2c-.1.1-.3.3-.4.5c-.2.2-.3.4-.3.7c-.1.3-.1.7-.1 1c0 .4 0 .7.1 1c0 .3.1.6.3.8c.1.2.3.4.4.5c.2.1.4.2.6.2zm13.4-2.4h3.7v.7H69v-.7h3.7v-.8h-2.6V.9h6.1v.7h-5.3v1.4h5.4v.7h-2.8v.8zM70.8 8v.9h5.6v.7H70V7.4h5.3v-.8H70v-.6h6.2v2h-5.4zm11.9-2.9h3.7v.7h-8.3v-.7h3.8v-1h-2.7V.7h.9v1.1h4.4V.7h.8v3.4h-2.6v1zm-2.6-2.7v1h4.4v-1h-4.4zm-.9 7.2v-3h6.2v3h-6.2zm.8-2.3v1.6h4.6V7.3H80zM96.1.5h.8v9.2h-.8V4.3H94v-.7h2.1V.5zm-3.5.8s.01 1.67 0 1.7c0 .4.1.8.2 1.2c.1.4.3.8.5 1.1c.2.4.5.7.7 1c.3.3.6.5 1 .6l-.5.7c-.5-.3-1-.7-1.4-1.2c-.4-.5-.7-1.1-.9-1.7c-.2.7-.5 1.3-.9 1.8c-.4.6-.9 1-1.4 1.3l-.5-.7c.3-.2.6-.4.9-.7c.3-.3.6-.6.8-1c.2-.4.4-.7.5-1.2c.1-.4.2-.8.2-1.2c-.03-.03 0-1.7 0-1.7h.8zm12.6-.8h.9v9.2h-.9V.5zm-6.1.8h.8v2.4h2.7V1.3h.8v6.2h-4.3V1.3zm.8 3.1v2.4h2.7V4.4h-2.7zm15.7.7l-.3.7c-.4 0-.7-.2-1.1-.3l-.9-.6c-.3-.2-.6-.5-.9-.8c-.2-.3-.4-.6-.5-.9l-.6.9c-.2.3-.5.6-.8.8c-.3.2-.6.4-1 .6c-.3.1-.7.3-1 .3l-.4-.7c.4 0 .8-.2 1.2-.4c.4-.2.8-.4 1.1-.7c.3-.3.5-.6.7-1c.2-.3.3-.7.3-1.1c.03-.01 0-.7 0-.7h.9v.7c0 .4.1.7.3 1.1c.2.4.5.7.8 1c.3.3.7.5 1 .7c.4.2.8.4 1.2.4zm-7.8 2.7h8.3v.7h-8.3v-.7zm15.5-5.7v-.7H118v-.6h6.2v1.9h-5.4v.8h5.5v.6H118v-2h5.3zm-6.4 2.7h8.3v.6h-8.3v-.6zm1.9 3.3v.9h5.7v.6H118V7.5h5.4v-.7h-5.5v-.6h6.3v1.9h-5.4zM135.2.5h.8v9.2h-.8V.5zm-1.9 3.3V.7h.8v8.5h-.8V4.5h-1.5v-.7h1.5zm-2.4-1.5v.8c0 .4 0 .8.1 1.2c.1.4.2.8.4 1.1c.1.3.4.7.6.9c.2.3.5.5.8.7l-.5.6c-.4-.2-.8-.6-1.1-1.1c-.3-.4-.6-.9-.7-1.5c-.2.6-.4 1.2-.7 1.7c-.4.5-.7.9-1.2 1.2l-.5-.7c.3-.2.6-.4.8-.7c.3-.3.5-.6.7-1c.1-.3.3-.7.4-1.1c0-.4.1-.9.1-1.3c-.02.02 0-.8 0-.8h-1.8v-.7h4.2v.7h-1.6zm12.9-.5c-.02-.02 0-.1 0-.1h-5.4v-.7h6.2v1.9c0 .4-.1.8-.3 1.3l-.8-.1c.2-.5.2-.9.2-1.2c.1-.4.1-.8.1-1.1zm-2.2 3h4v.7h-8.2v-.7h3.4V3h.8v1.8zm-.1 1.5c.5 0 .9.1 1.3.1c.4.1.7.2 1 .4c.3.1.5.3.7.5c.1.2.2.4.2.7c0 .3-.1.5-.2.7c-.2.2-.4.4-.7.5c-.3.2-.6.3-1 .4c-.4 0-.8.1-1.3.1c-.5 0-.9-.1-1.3-.1c-.4-.1-.8-.2-1-.4c-.3-.1-.5-.3-.7-.5c-.1-.2-.2-.4-.2-.7c0-.3.1-.5.2-.7c.2-.2.4-.4.7-.5c.2-.2.6-.3 1-.4c.4 0 .8-.1 1.3-.1zm0 2.7c.7 0 1.3-.1 1.7-.2c.4-.2.6-.5.6-.8c0-.3-.2-.6-.6-.8c-.4-.1-1-.2-1.7-.2c-.7 0-1.3.1-1.7.2c-.4.2-.7.5-.7.8c0 .3.3.6.7.8c.4.1 1 .2 1.7.2zm13.6-4.7v.7h-1.5v4.7h-.8V.6h.8v3.7h1.5zM149.7.7v1.3h2.2v.7h-5.4v-.7h2.3V.7h.9zm-.5 2.7c.4 0 .7.1.9.2c.3.1.6.2.8.4c.2.2.3.4.4.7c.1.3.2.5.2.8c0 .4-.1.6-.2.9c-.1.3-.2.5-.4.7c-.2.2-.5.3-.8.4c-.2.1-.5.1-.9.1c-.3 0-.6 0-.8-.1c-.3-.1-.5-.2-.7-.4c-.2-.2-.4-.4-.5-.7c-.1-.3-.2-.5-.2-.9c0-.3.1-.5.2-.8c.1-.3.3-.5.5-.7c.2-.2.4-.3.7-.4c.2-.1.5-.2.8-.2zm0 3.6c.3 0 .5-.1.6-.2c.2 0 .4-.1.5-.2c.1-.2.2-.3.3-.5c0-.2.1-.3.1-.6c0-.2-.1-.3-.1-.5c-.1-.2-.2-.3-.3-.5c-.1-.1-.3-.2-.5-.3c-.1 0-.3-.1-.6-.1c-.2 0-.3.1-.5.1c-.2.1-.4.2-.5.3c-.1.2-.2.3-.3.5c0 .2-.1.3-.1.5c0 .3.1.4.1.6c.1.2.2.3.3.5c.1.1.3.2.5.2c.2.1.3.2.5.2zm13.9-3.7v.7h-6.2V.9h.8v2.4h5.4zm-7.4 1.9h8.3v.7h-8.3v-.7zm1.9 1.6v2h5.5v.7h-6.3V6.8h.8zm18-2.5v.6H174v4.8h-.8V.6h.8v3.7h1.6zm-5.5-3s-.03 1.68 0 1.7c0 .4 0 .8.2 1.2c.1.4.2.7.5 1.1c.2.3.4.7.7.9c.3.3.6.5.9.7l-.5.7c-.5-.3-1-.7-1.3-1.2c-.4-.5-.7-1-.9-1.7c-.2.7-.5 1.3-.9 1.8c-.4.5-.9 1-1.4 1.2l-.5-.6c.3-.2.6-.4.9-.7c.3-.3.6-.6.8-1c.2-.4.3-.8.5-1.2c.1-.4.1-.8.1-1.2c.05-.02 0-1.7 0-1.7h.9zm11.9.4v.6h-5.6v-.6h2.4V.6h.8v1.1h2.4zm.8-1.1h.8v9.1h-.8V.6zm-3.2 5.6v1c.5 0 .9-.1 1.3-.1c.5 0 .9-.1 1.3-.1l.1.6c-.5.1-1 .1-1.6.2c-.5 0-1 .1-1.5.1h-1.5c-.5.1-.9.1-1.3.1l-.2-.7c.4 0 .8-.1 1.3-.1h1.3v-1c-.6 0-1-.2-1.3-.5c-.3-.3-.5-.7-.5-1.2c0-.2.1-.4.2-.6c.1-.3.2-.4.4-.6c.2-.1.4-.2.7-.3c.3-.1.6-.1.9-.1c.3 0 .6 0 .9.1c.3.1.5.2.7.3c.2.2.3.3.4.6c.2.2.2.4.2.6c0 .5-.2.9-.5 1.2c-.3.3-.7.5-1.3.5zm-1.8-1.7c0 .4.1.6.4.8c.2.2.6.3 1 .3c.4 0 .8-.1 1-.3c.3-.2.4-.4.4-.8c0-.3-.1-.5-.4-.7c-.2-.2-.6-.3-1-.3c-.4 0-.8.1-1 .3c-.3.2-.4.4-.4.7zm14.3-4h.8v5.5h-.8V3.6h-1.8v-.7h1.8V.5zM190.8 5l-.5.7c-.5-.2-.9-.5-1.3-.9c-.4-.3-.7-.7-.9-1.2c-.2.5-.5 1-.9 1.4c-.4.4-.8.7-1.4.9l-.4-.7c.3-.1.6-.3.9-.5c.3-.2.6-.4.8-.7c.2-.2.3-.5.4-.8c.1-.3.2-.7.2-1v-.4h-2v-.6h4.8v.6h-2s.04.41 0 .4c0 .3.1.6.2.9c.1.3.3.5.5.8c.1.2.4.5.7.6c.2.2.5.4.9.5zm-4 2.2v-.7h6.1v3.2h-.8V7.2h-5.3zM201.2.5h.9v9.2h-.9V.5zm-6.1 1s4.27.03 4.3 0c0 .7-.1 1.3-.3 1.9c-.1.7-.4 1.2-.7 1.8c-.4.5-.8 1-1.3 1.5c-.6.5-1.2.9-2 1.3l-.4-.7c1.2-.6 2.1-1.3 2.8-2.2c.6-.8.9-1.8 1-2.9h-3.4v-.7zm15.3-.9h.9v4.9h-.9V3.4s-1.84.01-1.8 0c-.1.6-.4 1-.8 1.3c-.4.3-.9.5-1.6.5c-.3 0-.6 0-.9-.2c-.3-.1-.6-.2-.8-.4c-.2-.2-.3-.4-.5-.7c-.1-.2-.1-.5-.1-.8c0-.3 0-.6.1-.9c.2-.2.3-.5.5-.6c.2-.2.5-.4.8-.5c.3-.1.6-.1.9-.1c.3 0 .6 0 .9.1c.2.1.5.2.7.4c.2.1.4.3.5.5c.1.2.2.5.2.7c.05.02 1.9 0 1.9 0V.6zm-4.2 3.9c.2 0 .5 0 .7-.1c.1-.1.3-.2.4-.3c.2-.1.3-.3.4-.4c0-.2.1-.4.1-.6c0-.2-.1-.4-.1-.6c-.1-.2-.2-.3-.4-.4c-.1-.2-.3-.3-.4-.3c-.2-.1-.5-.1-.7-.1c-.2 0-.4 0-.6.1c-.2 0-.4.1-.5.3c-.1.1-.2.2-.3.4c-.1.2-.1.4-.1.6c0 .2 0 .4.1.6c.1.1.2.3.3.4c.1.1.3.2.5.3c.2.1.4.1.6.1zm4.2 2.6V5.9h.9v3.7h-5.9V5.9h.8v1.2h4.2zm0 1.8V7.7h-4.2v1.2h4.2zM216 .4l.5.2c-.5.6-.8 1.3-.9 2.1c-.2.7-.3 1.5-.3 2.4c0 .8.1 1.6.3 2.3c.1.8.4 1.5.9 2.2l-.5.1c-.4-.7-.7-1.4-.9-2.2c-.2-.7-.3-1.5-.3-2.4c0-.9.1-1.8.3-2.5c.2-.8.5-1.5.9-2.2zm6.6.2l.4-.2c.5.7.8 1.4 1 2.2c.2.7.3 1.6.3 2.5c0 .9-.1 1.7-.3 2.4c-.2.8-.5 1.5-1 2.2l-.4-.1c.4-.7.7-1.4.9-2.2c.2-.8.3-1.6.3-2.3c0-.9-.1-1.7-.3-2.4c-.2-.8-.4-1.5-.9-2.1zm-6 4.3l-.4-.7c.4-.1.8-.1 1.1-.3c.3-.1.6-.3.9-.4c.3-.2.5-.4.7-.7c.1-.2.2-.4.3-.7c-.03.04-2.4 0-2.4 0v-.7h5.6v.7s-2.36.04-2.4 0c.1.3.2.5.3.7c.2.3.4.5.7.7c.3.1.6.3.9.4l1.1.3l-.4.7l-.9-.3c-.3-.1-.6-.2-.9-.4c-.2-.1-.5-.3-.7-.5c-.2-.2-.4-.4-.5-.6c-.1.2-.3.4-.5.6c-.2.2-.4.4-.7.5c-.3.2-.6.3-.9.4l-.9.3zm6.5 1.3H220v3.1h-.8V6.2h-3.1v-.7h7v.7zm9-2.9h1.3v.7h-1.3v3.3h-.9V.5h.9v2.8zm-2.2.1c0 .4 0 .7-.2 1c-.1.2-.2.5-.5.7c-.2.2-.4.3-.7.4c-.3.1-.6.2-1 .2c-.3 0-.6-.1-.9-.2c-.3-.1-.6-.2-.8-.4c-.2-.2-.3-.5-.5-.7c-.1-.3-.1-.6-.1-1c0-.3 0-.6.1-.9c.2-.3.3-.5.5-.7c.2-.2.5-.3.8-.5c.3-.1.6-.1.9-.1c.4 0 .7 0 1 .1c.3.2.5.3.7.5c.3.2.4.4.5.7c.2.3.2.6.2.9zm-3.9 0c0 .3 0 .5.1.7c.1.1.2.3.3.4c.2.2.3.3.5.4c.2 0 .4.1.6.1c.3 0 .5-.1.7-.1c.2-.1.3-.2.5-.4c.1-.1.2-.3.3-.4c.1-.2.1-.4.1-.7c0-.2 0-.4-.1-.6c-.1-.2-.2-.3-.3-.5c-.2-.1-.3-.2-.5-.3c-.2-.1-.4-.1-.7-.1c-.2 0-.4 0-.6.1c-.2.1-.3.2-.5.3c-.1.2-.2.3-.3.5c-.1.2-.1.4-.1.6zm1.2 3.2v2.2h5.3v.7h-6.1V6.6h.8zm13.6-6h.9v5.2h-.9V.6zm-1.1 4.1l-.4.6c-.5-.1-1-.4-1.4-.8c-.4-.4-.7-.8-.9-1.3c-.2.5-.5 1-.9 1.4c-.4.4-.9.7-1.4.9l-.5-.6c.4-.2.7-.3 1-.5c.3-.2.5-.5.7-.8c.2-.2.4-.5.5-.8c.1-.3.1-.7.1-1c.05 0 0-.9 0-.9h.9s-.02.9 0 .9c0 .3 0 .6.2.9c.1.3.2.6.4.9c.2.2.5.4.8.6c.3.2.6.4.9.5zm-3.9 4.9V6.3h5.9v3.3h-5.9zm.8-2.7v2h4.3v-2h-4.3zm12.5-3.2v2.2h-.8V.7h.8v2.3h1.2V.6h.8v5.6h-.8V3.7h-1.2zm-1.2 1.1l-.4.7c-.5-.2-.8-.4-1.1-.8c-.3-.3-.6-.6-.7-1c-.2.4-.4.8-.8 1.2c-.3.4-.7.6-1.1.8l-.4-.6c.2-.1.5-.3.8-.5c.2-.2.4-.5.5-.7c.2-.2.3-.5.4-.8c.1-.2.2-.5.2-.8c-.04.05 0-1.2 0-1.2h.8s-.04 1.25 0 1.2c0 .3 0 .5.1.8c.1.2.2.5.4.7c.1.2.3.4.5.6c.3.2.5.3.8.4zm.1 1.6c.5 0 .9 0 1.3.1c.4.1.7.2 1 .3c.2.2.4.3.6.5c.1.2.2.5.2.7c0 .3-.1.5-.2.7c-.2.2-.4.4-.6.5c-.3.2-.6.3-1 .4c-.4 0-.8.1-1.3.1c-.4 0-.8-.1-1.2-.1c-.4-.1-.7-.2-1-.4c-.2-.1-.5-.3-.6-.5c-.1-.2-.2-.4-.2-.7c0-.2.1-.5.2-.7c.1-.2.4-.3.6-.5c.3-.1.6-.2 1-.3c.4-.1.8-.1 1.2-.1zm0 2.6c.7 0 1.3 0 1.7-.2c.4-.2.6-.4.6-.8c0-.3-.2-.5-.6-.7c-.4-.2-1-.3-1.7-.3c-.7 0-1.2.1-1.6.3c-.4.2-.6.4-.6.7c0 .4.2.6.6.8c.4.2.9.2 1.6.2zm10-7.8v.6h-5.3v-.6h2.2v-.8h.9v.8h2.2zm1.6 1.7h1.4v.7h-1.4v2.3h-.8V.5h.8v2.4zm-1.4 1.9l.1.6c-.5.1-1 .1-1.5.2c-.5 0-1 .1-1.5.1h-2.7l-.1-.6h2.4v-.6c-.5 0-.9-.1-1.2-.3c-.4-.3-.5-.5-.5-.9c0-.4.2-.7.6-.9c.4-.2.9-.3 1.5-.3c.7 0 1.2.1 1.6.3c.4.2.6.5.6.9c0 .4-.2.6-.5.8c-.3.2-.7.4-1.2.4v.5h1.2c.4-.1.8-.1 1.2-.2zM254 3.3c0 .2.1.4.4.5c.2.1.5.2.9.2c.4 0 .8-.1 1-.2c.3-.1.4-.3.4-.5c0-.2-.1-.3-.4-.5c-.2-.1-.6-.1-1-.1c-.4 0-.7 0-.9.1c-.3.2-.4.3-.4.5zm.5 4.9v.8h5.5v.6h-6.3v-2h5.1v-.7h-5.1v-.6h5.9v1.9h-5.1zm11.3-3.7c-.5 0-.9 0-1.3-.1c-.4-.1-.7-.2-1-.4c-.3-.1-.5-.3-.7-.6c-.1-.2-.2-.4-.2-.7c0-.3.1-.6.2-.8c.2-.2.4-.4.7-.6c.3-.1.6-.2 1-.3c.4-.1.8-.1 1.3-.1c.5 0 1 0 1.4.1c.4.1.7.2 1 .3c.3.2.5.4.6.6c.2.2.2.5.2.8c0 .3 0 .5-.2.7c-.1.3-.3.5-.6.6c-.3.2-.6.3-1 .4c-.4.1-.9.1-1.4.1zm0-3c-.7 0-1.3.1-1.7.3c-.4.2-.6.5-.6.9c0 .3.2.6.6.8c.4.2 1 .3 1.7.3c.8 0 1.3-.1 1.8-.3c.4-.2.6-.5.6-.8c0-.4-.2-.7-.6-.9c-.5-.2-1-.3-1.8-.3zm-4.1 3.9h8.3v.6h-8.3v-.6zm1.9 1.4v2h5.5v.7h-6.3V6.8h.8zm6.9 2.9l.4-2.1h.9l-.6 2.1h-.7zm10.9-6.8h-2.3c-.6 1.5-1.9 2.5-4 3.1l-.3-.6c1.1-.4 2-.8 2.6-1.4c.7-.6 1-1.3 1.1-2.1h-3.2v-.7s4.11.03 4.1 0v.5c0 .2-.1.4-.1.5c.01.02 2.1 0 2.1 0V.6h.8v5.4h-.8V4.8H279v-.7h2.4V2.9zm-2.2 3.2c.5 0 .9.1 1.3.1c.4.1.7.2.9.4c.3.1.5.3.6.5c.2.3.3.5.3.8c0 .3-.1.5-.3.7c-.1.2-.3.4-.6.6c-.2.1-.5.2-.9.3c-.4.1-.8.1-1.3.1c-.4 0-.8 0-1.2-.1c-.4-.1-.7-.2-1-.3l-.6-.6c-.1-.2-.2-.4-.2-.7c0-.3.1-.5.2-.8c.2-.2.4-.4.6-.5c.3-.2.6-.3 1-.4c.4 0 .8-.1 1.2-.1zm0 2.9c.7 0 1.3-.1 1.6-.3c.4-.2.6-.5.6-.8c0-.4-.2-.6-.6-.8c-.3-.2-.9-.3-1.6-.3c-.6 0-1.2.1-1.6.3c-.4.2-.6.4-.6.8c0 .3.2.6.6.8c.4.2 1 .3 1.6.3zM290.6.6h.8v5.6h-.8V4.5h-1.8v-.7h1.8V2.6h-1.8v-.7h1.8V.6zm-1.9 4.3l.1.6c-.3.1-.6.1-.8.1c-.3.1-.6.1-.9.1h-1c-.3 0-.7.1-1.2.1c.01-.05-.6 0-.6 0V3h3.1V1.8h-3.2v-.7h4v2.6h-3.1s-.03 1.37 0 1.4h1.1c.3 0 .6-.1.9-.1h.8c.3-.1.5-.1.8-.1zm-3.4 2.4v-.6h6.1v3h-.8V7.3h-5.3zm16.9-4h1.4v.6h-1.4v3.3h-.8V.5h.8v2.8zm-1.8 1.2l.1.7c-.3.1-.6.1-.9.2c-.3 0-.6 0-1 .1h-2.3c-.04.04-.8 0-.8 0V1.3h4.1v.7h-3.2s-.02 2.86 0 2.9c.4 0 .8 0 1.2-.1h1c.3 0 .6-.1.9-.1c.3 0 .6-.1.9-.2zm-3 2v2.3h5.2v.7h-6.1v-3h.9zm11.8-3.9h1.8v-2h.8v4.7h-.8v-2h-1.8v-.7zm.5 1.9l-.4.7c-.5-.2-1-.5-1.4-.8c-.4-.3-.7-.7-.9-1.2c-.1.5-.4.9-.8 1.3c-.4.4-.9.7-1.4.9l-.5-.7c.4-.1.7-.2 1-.4l.7-.7c.2-.2.3-.5.5-.8c.1-.3.1-.6.1-.9c.02.04 0-.2 0-.2h-2v-.7h4.9v.7h-2s-.03.24 0 .2c0 .3 0 .6.1.8c.1.3.3.6.5.8c.2.2.4.4.7.6c.2.2.5.3.9.4zm-2.9 4.4h5.4v.7H306V7.3h5v-.9h-5.1v-.7h5.9v2.2h-5v1zM322.3.5h.8v9.2h-.8V6.2s-2.32-.04-2.3 0c-.2.4-.5.8-.8 1c-.3.3-.7.4-1.2.4c-.3 0-.6 0-.9-.2c-.3-.1-.5-.4-.7-.6c-.2-.3-.4-.7-.5-1c-.1-.4-.2-.9-.2-1.4c0-.5.1-.9.2-1.3c.1-.4.3-.7.5-1c.2-.3.4-.5.7-.6c.3-.2.6-.3.9-.3c.4 0 .8.2 1.1.4c.4.2.6.6.8 1h2.4V.5zM318 6.9c.2 0 .4-.1.6-.2c.2-.1.3-.3.5-.5c.1-.2.2-.5.3-.8c.1-.3.1-.6.1-1c0-.3 0-.7-.1-1c-.1-.3-.2-.5-.3-.7c-.2-.2-.3-.4-.5-.5c-.2-.1-.4-.2-.6-.2c-.2 0-.4.1-.6.2c-.2.1-.3.3-.5.5c-.1.2-.2.4-.3.7c0 .3-.1.7-.1 1c0 .4.1.7.1 1c.1.3.2.6.3.8c.2.2.3.4.5.5c.2.1.4.2.6.2zm2.3-2.5c0 .5 0 .8-.1 1.1c-.01-.02 2.1 0 2.1 0V3.3s-2.14-.03-2.1 0c0 .2 0 .3.1.5v.6zM331.4 6V3.2h-2v-.7h2V.6h.9v5.4h-.9zm-1.3-1.1l-.4.6c-.5-.2-1-.4-1.4-.8c-.3-.3-.6-.7-.8-1.2c-.2.5-.5 1-.9 1.4c-.4.4-.9.7-1.4.9l-.5-.7c.4-.1.7-.3 1-.5c.3-.2.5-.4.7-.7c.2-.3.4-.6.5-.9c.1-.3.2-.7.2-1c-.05 0 0-.9 0-.9h.8s-.01.87 0 .9c0 .3 0 .6.1.9c.2.3.3.6.5.8c.2.3.4.5.7.7c.3.2.6.4.9.5zm-.8 1.3c.4 0 .9.1 1.2.1c.4.1.7.2 1 .4c.3.1.5.3.6.5c.1.2.2.5.2.8c0 .2-.1.5-.2.7c-.1.2-.3.4-.6.5c-.3.2-.6.3-1 .4c-.3 0-.8.1-1.2.1c-.5 0-.9-.1-1.3-.1c-.4-.1-.7-.2-1-.4c-.2-.1-.4-.3-.6-.5c-.1-.2-.2-.5-.2-.7c0-.3.1-.6.2-.8c.2-.2.4-.4.6-.5c.3-.2.6-.3 1-.4c.4 0 .8-.1 1.3-.1zm0 2.8c.7 0 1.2-.1 1.6-.3c.4-.2.6-.4.6-.7c0-.4-.2-.7-.6-.8c-.4-.2-.9-.3-1.6-.3c-.7 0-1.3.1-1.7.3c-.4.1-.5.4-.5.8c0 .3.1.5.5.7c.4.2 1 .3 1.7.3zm8.8-5.1c-1 0-1.8-.2-2.4-.4c-.6-.3-.9-.7-.9-1.2c0-.5.3-.9.9-1.2c.6-.3 1.4-.4 2.4-.4c1 0 1.8.1 2.3.4c.6.3.9.7.9 1.2c0 .5-.3.9-.9 1.2c-.5.2-1.3.4-2.3.4zm0-2.6c-.8 0-1.4.1-1.8.3c-.4.1-.6.4-.6.7c0 .3.2.5.6.7c.4.2 1 .2 1.8.2c.7 0 1.3 0 1.7-.2c.4-.2.6-.4.6-.7c0-.3-.2-.6-.6-.7c-.4-.2-1-.3-1.7-.3zm-4.2 3.2h8.3v.7h-8.3v-.7zm1.9 3.5v.9h5.6v.7h-6.5V7.4h5.4v-.8h-5.4v-.7h6.2v2.1h-5.3z" stroke="none" fill="#111111"/></g></svg>