<?xml version="1.0" standalone="no"?><!DOCTYPE svg PUBLIC "-//W3C//DTD SVG 1.1//EN" "http://www.w3.org/Graphics/SVG/1.1/DTD/svg11.dtd"><svg xmlns="http://www.w3.org/2000/svg" version="1.1" width="120px" height="44.7px" viewBox="0 -3 120 44.7" style="top:-3px"><desc>인재존중 People</desc><defs/><g id="Polygon111530"><path d="m1.2 35.1v-8.9s2.67.03 2.7 0c.5 0 .9.1 1.3.2c.4.1.8.2 1.1.4c.3.2.5.5.7.8c.2.4.2.8.2 1.3c0 .5 0 .9-.2 1.2c-.2.4-.4.7-.7.9c-.3.3-.6.4-1 .5c-.5.2-.9.2-1.4.2H2.6v3.4H1.2zm1.4-4.5h1.2c.7 0 1.2-.1 1.6-.4c.3-.3.5-.7.5-1.3c0-.6-.2-1-.6-1.2c-.3-.2-.9-.4-1.6-.4c.04.04-1.1 0-1.1 0v3.3zm8.9 4.6c-.4 0-.8-.1-1.2-.2c-.4-.2-.8-.4-1.1-.7c-.2-.3-.5-.6-.6-1.1c-.2-.4-.3-.9-.3-1.4c0-.6.1-1.1.3-1.5c.1-.4.4-.8.6-1.1c.3-.3.6-.5 1-.7c.4-.1.7-.2 1.1-.2c.5 0 .9.1 1.2.2c.3.2.6.4.8.7c.3.2.4.6.5.9c.2.4.2.9.2 1.3v.7H9.7c0 .7.2 1.1.6 1.5c.4.4.8.5 1.4.5c.3 0 .6 0 .8-.1c.3-.1.5-.2.8-.4l.5.9c-.3.2-.7.4-1.1.5c-.3.2-.7.2-1.2.2zm-1.8-4h3.1c0-.6-.1-1-.4-1.4c-.2-.3-.6-.4-1.1-.4c-.2 0-.3 0-.5.1l-.6.3l-.3.6c-.1.2-.2.5-.2.8zm8.5 4c-.5 0-.8-.1-1.2-.2c-.4-.2-.7-.4-1-.7c-.3-.3-.5-.6-.7-1.1c-.2-.4-.3-.9-.3-1.4c0-.6.1-1.1.3-1.5c.2-.4.4-.8.7-1.1c.3-.3.6-.5 1-.7c.4-.1.7-.2 1.2-.2c.4 0 .8.1 1.1.2c.4.2.7.4 1 .7c.3.3.5.7.7 1.1c.2.4.3.9.3 1.5c0 .5-.1 1-.3 1.4c-.2.5-.4.8-.7 1.1c-.3.3-.6.5-1 .7c-.3.1-.7.2-1.1.2zm0-1.1c.5 0 .9-.2 1.2-.6c.3-.5.4-1 .4-1.7c0-.7-.1-1.3-.4-1.7c-.3-.5-.7-.7-1.2-.7c-.6 0-1 .2-1.3.7c-.3.4-.4 1-.4 1.7c0 .7.1 1.2.4 1.7c.3.4.7.6 1.3.6zm4.6 3.6v-9.2h1.1l.2.7s-.01-.02 0 0c.3-.3.6-.5.9-.6c.4-.2.8-.3 1.1-.3c.4 0 .8.1 1.1.2c.4.2.6.4.9.7c.2.3.3.7.5 1.1c.1.4.1.8.1 1.4c0 .5 0 1-.2 1.5c-.2.4-.4.8-.6 1.1c-.3.3-.6.5-.9.7c-.4.1-.7.2-1.1.2c-.3 0-.6 0-.9-.2c-.3-.1-.6-.3-.8-.5c-.05-.03 0 1.1 0 1.1v2.1h-1.4zm2.8-3.6c.5 0 .9-.2 1.2-.6c.3-.5.5-1 .5-1.8c0-.7-.1-1.3-.4-1.7c-.2-.4-.6-.6-1.1-.6c-.3 0-.6.1-.8.2c-.3.2-.5.4-.8.6v3.3c.2.2.5.4.7.4c.3.1.5.2.7.2zm4.6 1v-9.6h1.4v9.6h-1.4zm6.1.1c-.5 0-.9-.1-1.3-.2c-.4-.2-.7-.4-1-.7c-.3-.3-.5-.6-.7-1.1c-.2-.4-.2-.9-.2-1.4c0-.6 0-1.1.2-1.5c.2-.4.4-.8.7-1.1c.3-.3.6-.5.9-.7c.4-.1.8-.2 1.2-.2c.4 0 .8.1 1.1.2c.4.2.6.4.9.7c.2.2.4.6.5.9c.1.4.2.9.2 1.3c0 .2 0 .3-.1.4v.3h-4.3c.1.7.3 1.1.6 1.5c.4.4.9.5 1.5.5c.2 0 .5 0 .8-.1c.2-.1.5-.2.7-.4l.5.9c-.3.2-.6.4-1 .5c-.4.2-.8.2-1.2.2zm-1.9-4h3.2c0-.6-.2-1-.4-1.4c-.3-.3-.6-.4-1.1-.4c-.2 0-.4 0-.6.1c-.2.1-.4.2-.5.3c-.2.2-.3.4-.4.6c-.1.2-.2.5-.2.8z" stroke="none" fill="#fff"/></g><g id="Polygon111529"><path d="m12.2.8V12H9.9V.8h2.3zM7.9 5.7c0 .6-.1 1.1-.3 1.6c-.2.5-.5.9-.9 1.3c-.4.3-.8.6-1.3.8c-.6.2-1.1.3-1.7.3c-.6 0-1.2-.1-1.7-.3c-.5-.2-1-.5-1.4-.8c-.3-.4-.6-.8-.9-1.3c-.2-.5-.3-1-.3-1.6c0-.5.1-1.1.3-1.6c.3-.4.6-.9.9-1.2c.4-.4.9-.6 1.4-.8c.5-.2 1.1-.3 1.7-.3c.6 0 1.1.1 1.7.3c.5.2.9.4 1.3.8c.4.3.7.8.9 1.2c.2.5.3 1.1.3 1.6zm-6.3 0c0 .7.2 1.2.6 1.5c.4.4.9.6 1.5.6c.6 0 1.1-.2 1.4-.6c.4-.3.6-.8.6-1.5c0-.6-.2-1.1-.6-1.5c-.3-.3-.8-.5-1.4-.5c-.6 0-1.1.2-1.5.5c-.4.4-.6.9-.6 1.5zM4 14.4h8.6v1.8H1.8v-5.3h2.2v3.5zM26.2.7h2.1v15.7h-2.1V8.6h-1.3v7.1h-2.1v-4.5l-1.3 1.7c-.7-.4-1.3-.9-1.7-1.5c-.5-.6-.8-1.3-1.1-2.1c-.3.9-.6 1.7-1.1 2.4c-.5.7-1.1 1.3-1.8 1.7l-1.3-1.7c.5-.3 1-.7 1.4-1.2c.4-.5.7-1.1 1-1.7c.2-.7.4-1.3.5-2c.1-.7.1-1.5.1-2.2c.03-.01 0-.4 0-.4H15V2.3h7.1v1.9h-2.4v.4c0 .7.1 1.4.2 2c.1.7.3 1.3.5 1.8c.2.6.5 1.1.9 1.6c.4.4.9.8 1.5 1.1V1h2.1v5.7h1.3v-6zm5.5 7.2l-.8-1.8c.8-.1 1.5-.2 2-.4c.6-.2 1.1-.4 1.5-.7c.4-.2.7-.5.9-.8c.3-.4.4-.7.5-1h-4.2V1.4h11.6v1.8H39c0 .3.2.6.4 1c.2.3.5.6.9.8c.4.3.9.5 1.5.7c.6.2 1.3.3 2 .4L43 7.9c-1.5-.2-2.7-.6-3.6-1.1c-1-.6-1.6-1.3-2-2.1c-.4.8-1.1 1.5-2 2.1c-.9.5-2.1.9-3.7 1.1zm6.8 1h6v1.8H30.3V8.9h5.9V6.8h2.3v2.1zm-4.2 2.8v2.7h8.6v1.8H32v-4.5h2.3zm12.9-4.4l-.7-1.8c1.4-.1 2.5-.4 3.3-.8c.8-.5 1.3-1 1.5-1.5h-4.2V1.4h11.6v1.8h-4.1c.2.5.7 1 1.4 1.5c.8.4 1.9.7 3.4.8l-.8 1.8c-1.5-.2-2.7-.5-3.6-1c-1-.5-1.7-1.1-2.1-1.9c-.4.8-1.1 1.4-2 1.9c-.9.5-2.2.8-3.7 1zM60 9.7h-6s.05 1.11 0 1.1c1.4.1 2.5.4 3.2.9c.8.4 1.1 1.1 1.1 1.9c0 .9-.5 1.6-1.4 2.1c-1 .5-2.3.7-4 .7c-1.7 0-3-.2-4-.7c-.9-.5-1.4-1.2-1.4-2.1c0-.8.3-1.5 1.1-1.9c.8-.5 1.8-.8 3.2-.9V9.7h-5.9V7.9H60v1.8zm-3.9 3.9c0-.4-.3-.7-.8-.9c-.5-.1-1.3-.2-2.4-.2c-1.1 0-1.9.1-2.4.2c-.5.2-.8.5-.8.9c0 .4.3.7.8.9c.5.1 1.3.2 2.4.2c1.1 0 1.9-.1 2.4-.2c.5-.2.8-.5.8-.9z" stroke="none" fill="#fff"/></g></svg>