<?xml version="1.0" standalone="no"?><!DOCTYPE svg PUBLIC "-//W3C//DTD SVG 1.1//EN" "http://www.w3.org/Graphics/SVG/1.1/DTD/svg11.dtd"><svg xmlns="http://www.w3.org/2000/svg" version="1.1" width="413px" height="31px" viewBox="0 -4 413 31" style="top:-4px"><desc>인류를 위한 새로운 미래로 나아갑니다</desc><defs/><g id="Polygon109589"><path d="m12.6 6.9c0 .8-.2 1.5-.5 2.1c-.3.7-.7 1.3-1.2 1.7c-.5.5-1.1.9-1.8 1.2c-.7.3-1.4.4-2.2.4c-.8 0-1.5-.1-2.2-.4c-.7-.3-1.3-.7-1.8-1.2c-.5-.4-.9-1-1.2-1.7c-.3-.6-.5-1.3-.5-2.1c0-.7.2-1.4.5-2.1c.3-.6.7-1.2 1.2-1.7c.5-.5 1.1-.9 1.8-1.2c.7-.2 1.4-.4 2.2-.4c.8 0 1.5.2 2.2.4c.7.3 1.3.7 1.8 1.2c.5.5.9 1.1 1.2 1.7c.3.7.5 1.4.5 2.1zm-2.5 0c0-.4-.1-.8-.3-1.2c-.1-.4-.4-.7-.6-1c-.3-.3-.7-.5-1.1-.7c-.4-.2-.8-.3-1.2-.3c-.4 0-.8.1-1.2.3c-.4.2-.8.4-1.1.7c-.2.3-.5.6-.6 1c-.2.4-.3.8-.3 1.2c0 .5.1.9.3 1.2c.1.4.4.8.6 1.1c.3.2.7.5 1.1.6c.4.2.8.3 1.2.3c.4 0 .8-.1 1.2-.3c.4-.1.8-.4 1.1-.6c.2-.3.5-.7.6-1.1c.2-.3.3-.7.3-1.2zM17.6 1v14.7h-2.4V1h2.4zm.6 20.1h-13v-6.5h2.5v4.2h10.5v2.3zm18-9.3H22.7V5.5h10.9V3.6H22.7V1.5h13.4v6.2h-11v1.9h11.1v2.2zm2.1 4h-4.1v5.6h-2.5v-5.6h-4.6v5.6h-2.5v-5.6h-4.2v-2.1h17.9v2.1zm17.3-6.6H42V4.4h11V3.2h-11V1.3h13.5v4.8h-11v1.2h11.1v1.9zm-15.8 1.1h17.9v1.9H39.8v-1.9zm15.9 10.8H42v-4.8h11v-1.1h-11v-1.8h13.5v4.7h-11v1.1h11.2v1.9zM77.5 6c0 .7-.1 1.3-.4 1.9c-.3.6-.7 1.1-1.2 1.6c-.4.4-1 .8-1.6 1.1c-.7.2-1.4.3-2.1.3c-.7 0-1.4-.1-2.1-.3c-.6-.3-1.2-.7-1.7-1.1c-.4-.5-.8-1-1.1-1.6c-.3-.6-.4-1.2-.4-1.9c0-.7.1-1.3.4-1.9c.3-.6.7-1.1 1.1-1.6c.5-.4 1.1-.8 1.7-1.1c.7-.2 1.4-.3 2.1-.3c.7 0 1.4.1 2.1.3c.6.3 1.2.7 1.6 1.1c.5.5.9 1 1.2 1.6c.3.6.4 1.2.4 1.9zM75 6c0-.7-.2-1.4-.8-1.9c-.6-.6-1.2-.9-2-.9c-.8 0-1.5.3-2 .9c-.6.5-.9 1.2-.9 1.9c0 .8.3 1.4.9 1.9c.5.6 1.2.9 2 .9c.8 0 1.4-.3 2-.9c.6-.5.8-1.1.8-1.9zm7.2-5v20.1h-2.5s.02-6.68 0-6.7c-1.4.2-3.3.2-5.7.2c.04.03-.8 0-.8 0v6.5h-2.5v-6.5h-5.5v-2.2h8.8c2.4 0 4.3-.1 5.7-.2c.02.01 0-11.2 0-11.2h2.5zm7 1.7v-2h2.8v2h4.5v2.1h-2.4l.2.2c.5.4.9.9 1.1 1.5c.3.6.5 1.2.5 1.9c0 .7-.2 1.3-.5 1.9c-.2.6-.6 1.1-1.1 1.6c-.5.4-1 .8-1.7 1c-.6.3-1.3.4-2 .4c-.7 0-1.4-.1-2-.4c-.7-.2-1.2-.6-1.7-1c-.5-.5-.9-1-1.1-1.6c-.3-.6-.5-1.2-.5-1.9c0-.7.2-1.3.5-1.9c.2-.6.6-1.1 1.1-1.5l.2-.2h-2.4V2.7h4.5zm4.2 5.6c0-.7-.3-1.4-.8-1.9c-.6-.6-1.2-.9-2-.9c-.8 0-1.4.3-2 .9c-.5.5-.8 1.2-.8 1.9c0 .8.3 1.4.8 1.9c.6.6 1.2.9 2 .9c.8 0 1.4-.3 2-.9c.5-.5.8-1.1.8-1.9zm7.3-7.3v5.9h2.7v2.4h-2.7v6.6h-2.5V1h2.5zm.5 20.1h-13v-6.2h2.6v3.9h10.4v2.3zM125 10h-1.9v11.1h-2.4V1h2.4v6.7h1.9V1h2.4v20.1H125V10zm-8.9-5c0 2.4.4 4.3 1.2 5.9c.8 1.7 1.7 3.1 2.9 4.3l-1.7 1.3c-1.1-1-2.2-2.6-3.2-4.6c-.2-.2-.3-.5-.4-.8c-.1.3-.3.5-.4.8c-1.1 2.1-2.2 3.6-3.3 4.6l-1.8-1.3c1.3-1.2 2.3-2.6 3.1-4.3c.8-1.6 1.2-3.6 1.2-5.9c.03.01 0-3.4 0-3.4h2.4s.03 3.41 0 3.4zm29.3 8.7h-5.7v3.1h7.8v2.2h-17.9v-2.2h7.7v-3.1h-5.5v-7h11V4.1h-11V1.9h13.4v7h-10.9v2.6h11.1v2.2zm18.4-7.5c0 .8-.1 1.5-.4 2.1c-.4.7-.8 1.3-1.3 1.8c-.1.1-.3.2-.4.3c-.01.02 5.1 0 5.1 0v2.3h-7.4v3.7h-2.6v-3.7h-7.9v-2.3s5.15.02 5.2 0c-.2-.1-.3-.2-.4-.3c-.6-.5-1-1.1-1.3-1.8c-.3-.6-.5-1.3-.5-2.1c0-.7.2-1.5.5-2.1c.3-.7.7-1.3 1.3-1.8c.5-.5 1.1-.9 1.9-1.2c.7-.3 1.5-.4 2.3-.4c.8 0 1.5.1 2.3.4c.7.3 1.3.7 1.9 1.2c.5.5.9 1.1 1.3 1.8c.3.6.4 1.4.4 2.1zm-2.5.1c0-.5 0-.9-.2-1.3c-.2-.4-.5-.8-.8-1.1c-.3-.3-.7-.6-1.1-.7c-.4-.2-.9-.3-1.3-.3c-.5 0-1 .1-1.4.3c-.4.1-.8.4-1.1.7c-.3.3-.5.7-.7 1.1c-.2.4-.3.8-.3 1.3c0 .5.1.9.3 1.3c.2.4.4.8.7 1.1c.3.3.7.6 1.1.8c.4.1.9.2 1.4.2c.4 0 .9-.1 1.3-.2c.4-.2.8-.5 1.1-.8c.3-.3.6-.7.8-1.1c.2-.4.2-.8.2-1.3zm3.6 14.8h-13.8v-5.9h2.6v3.6h11.2v2.3zm18-17h-4.5v9.7h4.5V4.1zm2.5 11.9h-9.5V1.9h9.5V16zm3.1-15h2.5v20.1h-2.5V1zm6.2 15.3V7.8h4.8V4h-4.8V1.7h7.1v8.3H197v4.1s2.87.05 2.9 0c1.4 0 2.8-.1 4.2-.3c-.02-.05 0-12.8 0-12.8h2.4v6.7h2.1V1h2.4v20.1h-2.4V10h-2.1v11.1h-2.4s-.02-5.16 0-5.2c-1.2.3-2.6.4-4.3.4c.05.03-5.1 0-5.1 0zm34.3-2.6h-5.6v3.1h7.7v2.2h-17.9v-2.2h7.7v-3.1h-5.5v-7h11V4.1h-11V1.9h13.4v7h-10.9v2.6H229v2.2zm10.9 1.9V1.8h2.5v11.5s3.03.04 3 0c2.1 0 4.2-.2 6.1-.6V1h2.5v6.4h3v2.3h-3v11.4h-2.5V15c-1.9.4-3.9.6-6.1.6h-5.5zm29.6-7.8c0 .8-.2 1.6-.5 2.2c-.3.7-.7 1.3-1.3 1.8c-.5.6-1.1 1-1.9 1.3c-.7.3-1.5.4-2.3.4c-.8 0-1.5-.1-2.3-.4c-.7-.3-1.3-.7-1.9-1.3c-.5-.5-.9-1.1-1.2-1.8c-.3-.6-.5-1.4-.5-2.2c0-.7.2-1.5.5-2.2c.3-.6.7-1.2 1.2-1.8c.6-.5 1.2-.9 1.9-1.2c.8-.3 1.5-.4 2.3-.4c.8 0 1.6.1 2.3.4c.8.3 1.4.7 1.9 1.2c.6.6 1 1.2 1.3 1.8c.3.7.5 1.5.5 2.2zm-2.5 0c0-.4-.1-.9-.3-1.3c-.2-.4-.4-.8-.7-1.1c-.4-.3-.7-.5-1.1-.7c-.4-.2-.9-.3-1.4-.3c-.4 0-.9.1-1.3.3c-.4.2-.8.4-1.1.7c-.3.3-.6.7-.7 1.1c-.2.4-.3.9-.3 1.3c0 .5.1 1 .3 1.4c.1.4.4.8.7 1.1c.3.3.7.5 1.1.7c.4.2.9.3 1.3.3c.5 0 1-.1 1.4-.3c.4-.2.7-.4 1.1-.7c.3-.3.5-.7.7-1.1c.2-.4.3-.9.3-1.4zm6.8-6.8v5.6h2.8v2.4h-2.8v12.1h-2.5V1h2.5zm19.1 0v4.4h2.8v2.2h-2.8v4.3h-2.5V1h2.5zm0 20.1h-12.6v-8.3h2.4v1.7h7.8v-1.7h2.4v8.3zm-2.4-2.2v-2.3h-7.8v2.3h7.8zm-3-17.1c0 3-1 5.3-3 7.2c-1.8 1.6-3.8 2.7-6.2 3.2l-1.2-1.8c2.2-.6 4-1.5 5.3-2.6c1.3-1.2 2.1-2.5 2.3-3.8c-.01-.02-6.2 0-6.2 0V1.8h9zm10.9 13.8V1.8h2.5v11.5s3.59.04 3.6 0c2.1 0 4.2-.1 6.3-.4c.04-.02 0-11.9 0-11.9h2.5v20.1h-2.5s.04-5.94 0-5.9c-1.9.2-4.1.4-6.5.4h-5.9zm19 .3v-14h8.6v2.2h-6.2v9.6s2.52-.01 2.5 0c2.1 0 4.3-.2 6.7-.6c.04-.04 0-12.1 0-12.1h2.5v6.5h3.1v2.4h-3.1v11.2H329s.04-5.78 0-5.8c-2.2.4-4.5.6-6.7.6c-.05.04-4.9 0-4.9 0z" stroke="none" fill="#fff"/></g></svg>