<?xml version="1.0" standalone="no"?><!DOCTYPE svg PUBLIC "-//W3C//DTD SVG 1.1//EN" "http://www.w3.org/Graphics/SVG/1.1/DTD/svg11.dtd"><svg xmlns="http://www.w3.org/2000/svg" version="1.1" width="413px" height="31px" viewBox="0 -4 413 31" style="top:-4px"><desc>핵심 가치</desc><defs/><g id="Polygon111140"><path d="m4.8 2.6V.7h2.6v1.9h3.7v2s-1.74.05-1.7 0c0 .1.1.1.1.2c.5.4.8.9 1.1 1.5c.3.6.4 1.2.4 1.8c0 .6-.1 1.2-.4 1.8c-.3.6-.6 1.1-1.1 1.5c-.4.4-.9.7-1.5 1c-.6.2-1.3.3-1.9.3c-.7 0-1.3-.1-1.9-.3c-.6-.3-1.2-.6-1.6-1c-.4-.4-.8-.9-1.1-1.5c-.2-.6-.4-1.2-.4-1.8c0-.6.2-1.2.4-1.8c.3-.6.7-1.1 1.1-1.5l.2-.2c-.02.05-1.9 0-1.9 0v-2h3.9zM8.6 8c0-.7-.2-1.3-.7-1.8c-.5-.5-1.1-.7-1.8-.7c-.7 0-1.3.2-1.8.7c-.6.5-.8 1.1-.8 1.8c0 .7.2 1.3.8 1.8c.5.5 1.1.7 1.8.7c.7 0 1.3-.2 1.8-.7c.5-.5.7-1.1.7-1.8zm7.6-7h2.4v12.2h-2.4V8.7h-1.8v4.5h-2.3V1h2.3v5.4h1.8V1zm-.1 20.3v-4.8H5.3v-2.2h13.3v7h-2.5zM37 1v11.2h-2.5V1h2.5zm-2.5 14.5h-7.7v3.4h7.7v-3.4zm2.5 5.6H24.3v-7.7H37v7.7zM27.6 3.4c0 1.6.5 2.9 1.4 4.1c.9 1.1 2.1 2.1 3.6 3L31 12.2c-1.6-.9-2.9-2-4.1-3.4c-.2-.3-.3-.5-.5-.7c-.1.3-.4.7-.6 1c-1.1 1.4-2.5 2.6-4.1 3.5l-1.6-1.7c1.6-.8 2.8-1.9 3.7-3c.9-1.2 1.3-2.7 1.3-4.5V1.5h2.5s.02 1.93 0 1.9zm36.7 4.3v2.3h-2.9v11.1h-2.5V1h2.5v6.7h2.9zm-8.4-5.8c0 3.5-.9 6.5-2.5 9c-1.6 2.3-3.6 4.3-6.1 5.9l-1.7-1.7c2.4-1.5 4.2-3.2 5.6-5.3c1.2-1.8 1.8-3.7 2-5.7c-.05.04-6.5 0-6.5 0V1.9h9.2zM79.4 1h2.5v20.1h-2.5V1zM68.9 11c.9-1.4 1.4-3 1.4-4.6c-.04-.03 0-1.1 0-1.1h-4.8V3h4.8V.7h2.5v2.3h4.5v2.3h-4.5s-.01 1.07 0 1.1c0 1.4.4 3 1.3 4.7c.8 1.4 2 2.8 3.7 4.2l-1.6 1.6c-1.8-1.5-3.3-3.1-4.3-4.9c-.2-.2-.3-.4-.4-.7c-.2.3-.3.5-.5.8c-1.1 1.9-2.5 3.5-4.3 4.9L65 15.5c1.6-1.4 2.9-2.9 3.9-4.5z" stroke="none" fill="#fff"/></g></svg>