<?xml version="1.0" standalone="no"?><!DOCTYPE svg PUBLIC "-//W3C//DTD SVG 1.1//EN" "http://www.w3.org/Graphics/SVG/1.1/DTD/svg11.dtd"><svg xmlns="http://www.w3.org/2000/svg" version="1.1" width="41.4px" height="88.4px" viewBox="0 -11 41.4 88.4" style="top:-11px"><desc>B</desc><defs/><g id="Polygon110562"><path d="m4.8 7S16.95 6.97 17 7c3.7 0 6.7.2 9.1.8c2.5.5 4.7 1.6 6.7 3.5c1.3 1.2 2.2 2.6 2.8 4.1c.7 1.6 1 3.3 1 5.3c0 3.7-1.6 6.5-4.6 8.6c4.3 1.9 6.5 5.5 6.5 10.8c0 1.8-.4 3.6-1.1 5.3c-.8 1.7-1.9 3.2-3.3 4.5c-1.3 1.3-3 2.2-5.1 3c-2.1.7-6.1 1-12.1 1c-.02.04-12.1 0-12.1 0V7zm8.9 27v11.9h7.5c1.9 0 3.4-.1 4.3-.4c1-.3 1.6-.7 2-1c1.4-1.2 2-2.7 2-4.4c0-1.9-.6-3.3-2-4.5c-.4-.4-1-.8-2-1.1c-.9-.4-2.4-.5-4.3-.5c-.03-.03-7.5 0-7.5 0zm4.7-8c2.1 0 3.9-.1 5.5-.3c2.5-.9 3.7-2.6 3.7-5.1c0-2.6-1.2-4.3-3.7-5.2c-1.6-.3-3.4-.4-5.5-.4h-4.7v11h4.7z" stroke="none" fill="#fff"/></g></svg>