<?xml version="1.0" standalone="no"?><!DOCTYPE svg PUBLIC "-//W3C//DTD SVG 1.1//EN" "http://www.w3.org/Graphics/SVG/1.1/DTD/svg11.dtd"><svg xmlns="http://www.w3.org/2000/svg" version="1.1" width="39px" height="88.4px" viewBox="0 -11 39 88.4" style="top:-11px"><desc>g</desc><defs/><g id="Polygon109764"><path d="m18.9 46c2.7 0 4.9-1.2 6.6-3.8V29.9c-1.6-2.1-3.8-3.2-6.6-3.2c-2.3 0-4.2 1-5.6 2.9c-1.4 2-2.1 4.3-2.1 7c0 2.7.7 4.9 2.2 6.7c1.4 1.8 3.3 2.7 5.5 2.7zm6.8 6.7v-1.9c-2.5 2.1-5.4 3.1-8.6 3.1c-4 0-7.4-1.4-10.2-4.4c-3.1-3.2-4.7-7.6-4.7-12.9c0-5.3 1.5-9.6 4.6-13.1c2.7-3.2 6.3-4.7 10.8-4.7c3.2 0 6.1 1.1 8.5 3.5c.03.01 0-2.7 0-2.7h8.4v29.2c0 6.5-1.5 11.1-4.6 13.8c-3.1 2.8-7.4 4.2-12.9 4.3c-3.5 0-7.2-.3-11-.9v-7.7c3.7.8 7.2 1.2 10.5 1c3.4-.2 5.7-.9 7.1-2.2c1.4-1.3 2.1-2.8 2.1-4.4z" stroke="none" fill="#fff"/></g></svg>