<?xml version="1.0" standalone="no"?><!DOCTYPE svg PUBLIC "-//W3C//DTD SVG 1.1//EN" "http://www.w3.org/Graphics/SVG/1.1/DTD/svg11.dtd"><svg xmlns="http://www.w3.org/2000/svg" version="1.1" width="206px" height="243.8px" viewBox="0 -6 206 243.8" style="top:-6px"><desc>텍스트 B</desc><defs/><g id="Polygon3214"><path d="m12.1 215.3h2.6v1.1h-2.6v3.9h-1.4v-8.9h1.4v3.9zM5 216.5c-.8 1.4-2 2.6-3.5 3.4l-.7-1c1-.6 1.9-1.3 2.5-2.1c.7-.8 1-1.6 1-2.3v-.9H1.4v-1.2h7.3v1.2h-3v.8c0 .7.3 1.5 1 2.2c.6.8 1.5 1.4 2.5 2l-.6 1.1c-1.6-.9-2.7-1.9-3.6-3.2zm5.7 5.8H3.1v-1.1h9v5.2h-1.4v-4.1zm11.4-5.1v1.5h6.1v1.1H14.5v-1.1h6.2v-1.5h-3.9v-5h9.1v1.1h-7.7v2.7h8v1.2h-4.1zm-.7 3.6c1.4 0 2.5.3 3.3.8c.7.5 1.1 1.1 1.1 2v.1c0 .9-.4 1.5-1.1 2c-.8.5-1.9.8-3.3.8c-1.4 0-2.5-.3-3.3-.8c-.8-.5-1.2-1.1-1.2-2v-.1c0-.9.4-1.5 1.2-2c.8-.5 1.9-.8 3.3-.8zm3 2.8c0-.5-.2-.9-.7-1.2c-.6-.3-1.3-.4-2.3-.4c-1 0-1.8.1-2.3.4c-.6.3-.8.7-.8 1.2v.1c0 .5.2.9.8 1.2c.5.3 1.3.4 2.3.4c1 0 1.7-.1 2.3-.4c.5-.3.7-.7.7-1.2v-.1zm15.6-7.7h2.5v1.2H40v3.3h-1.4v-9h1.4v4.5zm-6.6-2.9c-.6 0-1.1-.1-1.6-.1c-.5-.1-.9-.2-1.3-.3v-1.1c.4.2.8.2 1.3.3h1.6c-.04.03 1.8 0 1.8 0v1.2s-1.84-.05-1.8 0zm-4.5.8h8v1.2h-8v-1.2zm7.1 4.4c0 .4-.1.8-.4 1.2c-.3.3-.6.6-1.1.8c-.5.2-1 .4-1.6.4c-.6 0-1.1-.2-1.6-.4c-.5-.2-.8-.5-1.1-.8c-.3-.4-.4-.8-.4-1.2v-.2c0-.4.1-.8.4-1.2c.2-.4.6-.7 1.1-.9c.5-.2 1-.3 1.6-.3c.6 0 1.1.1 1.6.3c.5.2.8.5 1.1.9c.3.4.4.8.4 1.2v.2zm-4.9-.1c0 .4.2.8.5 1c.3.2.8.4 1.3.4c.5 0 1-.2 1.3-.4c.3-.2.5-.6.5-1v-.1c0-.4-.2-.7-.5-.9c-.3-.3-.8-.4-1.3-.4c-.5 0-1 .1-1.3.4c-.3.2-.5.5-.5.9v.1zm1.5 4.5h6v-1.4h1.4v5.1h-8.8v-5.1h1.4v1.4zm0 1.2v1.3h6v-1.3h-6zm20.4 2v-14.4h1.4v14.4H53zm-7.7-5.4c.8 0 1.8 0 2.9-.1c1.1-.2 2.2-.3 3.2-.6l.2 1.2c-1.3.2-2.6.4-3.9.5c-1.2.2-2.6.2-4.2.2c.02-.01 0-8.8 0-8.8h1.4v7.6s.4.02.4 0zm22.5-3.7h2.6v1.1h-2.6v8h-1.4v-14.4h1.4v5.3zm-8.8 3.6c.8 0 1.8 0 2.9-.1c1-.1 2.1-.3 3.1-.5l.2 1.1c-1.3.3-2.6.5-3.8.6c-1.2.1-2.6.1-4.1.1c-.02.01 0-8.6 0-8.6h6.4v1.1h-5v6.3s.34.04.3 0zm13.5 4.2h-1.9v-2.1h1.9v2.1z" stroke="none" fill="#fff"/></g><g id="Polygon3213"><path d="m12.1 183.4v4.4h2.6v1.2h-2.6v5.4h-1.4v-11h1.4zm-4 2.8c0 1.4-.6 2.6-1.7 3.7c-1.1 1.1-2.7 1.9-4.8 2.6l-.4-1.1c1.8-.6 3.2-1.3 4.1-2.2c.9-.8 1.4-1.8 1.4-2.9v-.6h-5v-1.1h6.4v1.6zm-4.7 7h1.4v3.8h7.9v1.1H3.4v-4.9zm22.7-9.8v4.3h2.5v1.1h-2.5v5.2h-1.4v-10.6h1.4zm-2.8 7.5c-1.3.2-2.5.4-3.7.5c-1.2.1-2.6.2-4.1.2c.02-.02 0-7 0-7h6.4v1.1h-5v4.7s.35.04.3 0c.8 0 1.7 0 2.8-.1c1-.1 2.1-.3 3.1-.5l.2 1.1zm-6 2.1h1.4v4h8v1.1h-9.4V193zm22.7-9.6v5.6h2.5v1.1H40v4.8h-1.4v-11.5h1.4zm-6.6 1.6h-1.6c-.5-.1-.9-.2-1.3-.3v-1.1c.7.2 1.7.3 2.9.3c-.04.01 1.8 0 1.8 0v1.1s-1.84.03-1.8 0zm-4.5 1h8v1.1h-8V186zm7.1 4.6c0 .5-.1.9-.4 1.3c-.3.4-.6.7-1.1.9c-.5.2-1 .3-1.6.3c-.6 0-1.1-.1-1.6-.3c-.5-.2-.8-.5-1.1-.9c-.3-.4-.4-.8-.4-1.3v-.2c0-.5.1-.9.4-1.3c.3-.4.6-.7 1.1-.9c.5-.2 1-.3 1.6-.3c.6 0 1.1.1 1.6.3c.5.2.8.5 1.1.9c.3.4.4.8.4 1.3v.2zm-4.9 0c0 .4.2.8.5 1c.3.3.8.4 1.3.4c.5 0 1-.1 1.3-.4c.3-.3.5-.6.5-1v-.2c0-.4-.2-.7-.5-1c-.3-.3-.8-.4-1.3-.4c-.5 0-1 .1-1.3.4c-.3.3-.5.6-.5 1v.2zm.1 3.5h1.4v2.9h8v1.1h-9.4v-4zm25.3-5.8v-4.9h1.4v14.4h-1.4v-8.3h-2.7v-1.2h2.7zm-7.9 4.1c.8 0 1.7-.1 2.7-.2c1.1-.1 2.1-.3 3.1-.5l.2 1.1c-1.3.3-2.5.5-3.7.6c-1.2.1-2.5.1-4 .1c-.02.04 0-8.7 0-8.7h6.3v1.2h-4.9v2.4h4.6v1.2h-4.6v2.8s.32-.04.3 0zm21.8 5.4v-14.4h1.4v14.4h-1.4zM65 185.2h-1.7c-.4-.1-.9-.2-1.2-.3v-1.1c.3.1.7.1 1.2.2c.5 0 1 .1 1.7.1c.04-.04 1.9 0 1.9 0v1.1s-1.86.02-1.9 0zm.2 3.3c0 .7.4 1.5 1 2.3c.7.8 1.6 1.6 2.7 2.3l-.7 1c-1.6-1-2.8-2.1-3.7-3.5c-.4.8-.9 1.5-1.6 2.1c-.6.6-1.3 1.2-2.1 1.7l-.7-1.1c.7-.4 1.3-.9 1.9-1.5c.5-.5 1-1.1 1.3-1.7c.3-.6.5-1.1.5-1.6c.01.02 0-.9 0-.9h-3.1v-1.1h7.7v1.1h-3.2s.02.89 0 .9zm20.1.2h2.5v1.1h-2.5v8h-1.4v-14.4h1.4v5.3zm-8.8 3.6c.8 0 1.7 0 2.8-.1c1.1-.1 2.1-.3 3.1-.5l.3 1.1c-1.4.3-2.6.5-3.9.6c-1.2.1-2.5.1-4.1.1c.02.01 0-8.7 0-8.7h1.4v7.5s.38.04.4 0zm25.3-5.1v-3.8h1.4v8.6h-1.4v-3.7h-3v-1.1h3zm-2.9 4.4c-1.5-.8-2.6-1.9-3.4-3.1c-.8 1.4-1.9 2.5-3.4 3.3l-.7-1c1-.6 1.8-1.3 2.5-2.1c.6-.8.9-1.5.9-2.3c.02-.01 0-.8 0-.8H92v-1.1h7v1.1h-2.8s.02.76 0 .8c0 .7.3 1.4.9 2.2c.6.7 1.5 1.4 2.5 1.9l-.7 1.1zm-3.1 2.8h6v-1.7h1.4v5.6h-8.8v-5.6h1.4v1.7zm0 1.1v1.6h6v-1.6h-6zm23-5.3v1.2H105v-1.2s9.67-.02 9.7 0c.2-1.2.4-2.5.4-4v-.7h-7.8v-1.2h9.2v1.9c0 1.3-.1 2.7-.4 4c.03-.02 2.7 0 2.7 0zm-11.4 2.9h1.4v3.8h8v1.2h-9.4v-5zm18.4-1c-.9 0-1.8-.1-2.5-.5c-.7-.3-1.3-.7-1.7-1.3c-.4-.6-.5-1.2-.5-1.9v-.2c0-.7.1-1.4.5-1.9c.4-.6 1-1 1.7-1.3c.7-.4 1.6-.5 2.5-.5c1 0 1.9.1 2.6.5c.7.3 1.3.7 1.6 1.3c.4.5.6 1.2.6 1.9v.2c0 .7-.2 1.3-.6 1.9c-.3.6-.9 1-1.6 1.3c-.7.4-1.6.5-2.6.5zm0-1.1c1.1 0 1.9-.3 2.5-.8c.6-.4.9-1.1.9-1.9v-.1c0-.7-.3-1.4-.9-1.8c-.6-.5-1.4-.8-2.5-.8c-1 0-1.9.3-2.5.8c-.5.4-.8 1.1-.8 1.8v.1c0 .8.3 1.5.8 1.9c.6.5 1.5.8 2.5.8zm-6.8 4.5h13.7v1.1H119v-1.1zm21.5-3v3h6.1v1.1h-13.7v-1.1h6.2v-3h-3.9v-4.7h7.7v-2.2h-7.7v-1.1h9.1v4.5h-7.7v2.4h8.2v1.1h-4.3zm21.4-3.8h2.6v1.1h-2.6v8h-1.4v-14.4h1.4v5.3zm-6.3-.3c0 .7.3 1.5 1 2.3c.6.8 1.5 1.6 2.6 2.3l-.7 1c-1.6-1-2.8-2.1-3.6-3.4c-1 1.5-2.2 2.7-3.7 3.7l-.8-1.1c1.1-.6 2-1.4 2.7-2.3c.7-.9 1.1-1.7 1.1-2.5c-.04.02 0-2.4 0-2.4h-3.1v-1.1h7.6v1.1h-3.1s-.03 2.39 0 2.4zm16.2.8v1.5h6.2v1.1h-13.8v-1.1h6.2v-1.5h-3.8v-5h9v1.1H168v2.7h8v1.2h-4.2zm-.7 3.6c1.4 0 2.5.3 3.3.8c.8.5 1.2 1.1 1.2 2v.1c0 .9-.4 1.5-1.2 2c-.8.5-1.9.8-3.3.8c-1.4 0-2.5-.3-3.3-.8c-.8-.5-1.2-1.1-1.2-2v-.1c0-.9.4-1.5 1.2-2c.8-.5 1.9-.8 3.3-.8zm3.1 2.8c0-.5-.3-.9-.8-1.2c-.5-.3-1.3-.4-2.3-.4c-1 0-1.7.1-2.3.4c-.5.3-.8.7-.8 1.2v.1c0 .5.3.9.8 1.2c.6.3 1.3.4 2.3.4c1 0 1.8-.1 2.3-.4c.5-.3.8-.7.8-1.2v-.1z" stroke="none" fill="#fff"/></g><g id="Polygon3212"><path d="m2.2 161.4c.8-.3 1.5-.5 2.2-.9c.7-.4 1.3-.8 1.7-1.2c.4-.5.6-.9.6-1.3c.02.01 0-.5 0-.5H3v-1.1h8.9v1.1H8.2s-.04.51 0 .5c0 .4.2.8.6 1.2c.4.4.9.8 1.6 1.1c.7.4 1.5.7 2.3.9l-.4 1.1c-1-.3-1.9-.6-2.8-1.1c-.8-.4-1.5-.9-2.1-1.5c-.5.6-1.2 1.2-2.1 1.7c-.8.4-1.7.8-2.7 1.1l-.4-1.1zm-1.6 2.3h13.7v1.2H8.1v5.2H6.7v-5.2H.6v-1.2zm25.5-2.5h2.5v1.1h-2.5v7.5h-1.4v-14.4h1.4v5.8zm-6.5-4h-1.7c-.5-.1-.9-.2-1.3-.3v-1.1c.4.1.8.1 1.3.2c.4 0 1 .1 1.7.1c0-.04 1.9 0 1.9 0v1.1s-1.9.02-1.9 0zm.2 3.3c0 .7.3 1.5 1 2.3c.7.8 1.5 1.6 2.7 2.3l-.7 1c-1.6-1-2.9-2.1-3.7-3.5c-.4.8-1 1.5-1.6 2.1c-.6.6-1.3 1.2-2.1 1.7l-.8-1.1c.7-.4 1.4-.9 1.9-1.5c.6-.5 1.1-1.1 1.4-1.7c.3-.6.5-1.1.5-1.6c-.03.02 0-.9 0-.9h-3.2v-1.1h7.7v1.1h-3.1s-.02.89 0 .9zm20.2.2h2.5v1.1H40v8h-1.4v-14.4h1.4v5.3zm-8.8 3.6c.8 0 1.7 0 2.8-.1c1.1-.1 2.1-.3 3.2-.5l.2 1.1c-1.3.3-2.6.5-3.8.6c-1.2.1-2.6.1-4.2.1c.04.01 0-8.7 0-8.7h1.4v7.5s.4.04.4 0zm21.5-2.6c-.8 0-1.6-.1-2.3-.3c-.6-.3-1.2-.6-1.5-1c-.4-.5-.6-1-.6-1.5v-.2c0-.6.2-1.1.6-1.5c.3-.4.9-.8 1.5-1c.7-.2 1.5-.4 2.3-.4c.9 0 1.7.2 2.3.4c.7.2 1.2.6 1.6 1c.3.4.5.9.5 1.5v.2c0 .5-.2 1-.5 1.5c-.4.4-.9.7-1.6 1c-.6.2-1.4.3-2.3.3zm-3-2.9c0 .6.3 1 .8 1.3c.5.4 1.3.5 2.2.5c1 0 1.7-.1 2.2-.5c.6-.3.8-.7.8-1.3v-.1c0-.5-.2-.9-.8-1.3c-.5-.3-1.2-.4-2.2-.4c-.9 0-1.7.1-2.2.4c-.5.4-.8.8-.8 1.3v.1zm-3.9 5.3V163h13.8v1.1h-6.2v3.2H52v-3.2h-6.2zm2.4 1.5h1.4v3.3h8v1.2h-9.4v-4.5zm19-5.2v-1.1h3.2v-3.9h1.4v10.9h-1.4v-5.9h-3.2zm.4 3.5c-1.5-.8-2.7-1.9-3.4-3.1c-.9 1.4-2.1 2.5-3.5 3.4l-.7-1.1c1-.6 1.9-1.3 2.5-2.1c.6-.8 1-1.6 1-2.3c-.04-.04 0-1 0-1h-2.8v-1.2h7v1.2h-2.8s-.04.93 0 .9c0 .8.3 1.5.9 2.3c.6.7 1.4 1.4 2.5 1.9l-.7 1.1zm-3.1 1.3v3.8h7.9v1.1h-9.3v-4.9h1.4zm23.4 4.6v-14.4h1.4v14.4h-1.4zm-5.2-9.6c0 .7.3 1.5 1 2.4c.7.9 1.6 1.6 2.6 2.3l-.7 1.1c-1.6-1-2.8-2.2-3.6-3.6c-.5.8-1 1.5-1.7 2.1c-.6.7-1.3 1.3-2 1.7l-.8-1c.7-.4 1.3-.9 1.9-1.5c.6-.6 1-1.2 1.3-1.8c.4-.6.5-1.2.5-1.7c.03.05 0-3.5 0-3.5h1.5s-.04 3.52 0 3.5zm18.8-1.4c-.5.6-1.2 1.2-2.1 1.7c-.8.5-1.7.9-2.7 1.2l-.5-1.1c.8-.2 1.6-.6 2.3-1c.7-.4 1.2-.8 1.7-1.2c.4-.5.6-.9.6-1.3v-1.3h1.4s.04 1.28 0 1.3c0 .4.2.8.7 1.2c.4.4.9.8 1.6 1.2c.7.3 1.5.6 2.3.9l-.4 1.1c-1-.3-2-.7-2.8-1.2c-.9-.4-1.6-1-2.1-1.5zm6.9 3.8v1.2h-6.2v1.6h3.8v4.8h-9v-4.8h3.8v-1.6h-6.2v-1.2h13.8zm-10 6.5h6.2v-2.6h-6.2v2.6zm20.8-9.8v-3.9h1.4v14.4h-1.4v-5.7h-3.5V163h3.5v-2.6h-2.9v-1.1h2.9zm-3.3-.4c0 1.6-.5 3.1-1.5 4.3c-1 1.3-2.6 2.4-4.8 3.4l-.6-1.2c1.9-.8 3.3-1.7 4.2-2.8c.8-1 1.3-2.2 1.3-3.6c-.04-.03 0-1 0-1h-4.9v-1.1h6.3s-.03 1.97 0 2zm17.2.2v-3.7h1.4v14.4h-1.4v-6.7h-2.9V162h2.9v-1.7h-2.9v-1.2h2.9zm-5.4 1.3c0 .7.4 1.5 1 2.3c.7.8 1.6 1.6 2.7 2.3l-.7 1c-1.6-1-2.8-2.1-3.7-3.4c-.9 1.5-2.1 2.7-3.6 3.7l-.8-1.1c1.1-.6 2-1.4 2.7-2.3c.7-.9 1-1.7 1-2.5c.02.02 0-2.4 0-2.4h-3.1v-1.1h7.6v1.1h-3.1s.03 2.39 0 2.4zm22.9-5h1.4v8.6h-1.4v-8.6zm-2.8 4.5c0 .7-.2 1.2-.5 1.7c-.3.6-.7 1-1.3 1.2c-.5.3-1.1.5-1.8.5c-.7 0-1.3-.2-1.8-.5c-.6-.2-1-.6-1.3-1.2c-.3-.5-.5-1-.5-1.7v-.3c0-.6.2-1.2.5-1.7c.3-.5.7-.9 1.3-1.2c.5-.3 1.1-.5 1.8-.5c.7 0 1.3.2 1.8.5c.6.3 1 .7 1.3 1.2c.3.5.5 1.1.5 1.7v.3zm-5.8 0c0 .7.2 1.2.6 1.6c.4.4.9.6 1.6.6c.7 0 1.2-.2 1.6-.6c.4-.4.6-.9.6-1.6v-.3c0-.6-.2-1.2-.6-1.6c-.4-.4-.9-.6-1.6-.6c-.6 0-1.2.2-1.6.6c-.4.4-.6 1-.6 1.6v.3zm8.9 6.1c0 .7.2 1.3.7 1.9c.4.6 1 1.1 1.9 1.5l-.7 1c-.6-.3-1.1-.6-1.5-1c-.4-.4-.8-.8-1.1-1.3c-.6 1-1.5 1.8-2.7 2.4c-.5-.3-1-.6-1.5-1c-.4-.5-.8-.9-1.1-1.4c-.3.5-.6 1-1.1 1.4c-.4.4-.9.8-1.5 1.1l-.7-1c.8-.5 1.5-1 1.9-1.6c.5-.7.8-1.3.8-1.9c-.05-.03 0-1.3 0-1.3h1.3s.03 1.24 0 1.2c0 .6.2 1.1.5 1.7c.4.5.9 1 1.5 1.4c.6-.4 1-.8 1.4-1.4c.3-.5.5-1.1.5-1.6c.02-.03 0-1.3 0-1.3h1.4v1.2zm14.5-5.3h2.6v1.1h-2.6v8H164v-14.4h1.4v5.3zm-8.8 3.6c.8 0 1.8 0 2.9-.1c1-.1 2.1-.3 3.1-.5l.2 1.1c-1.3.3-2.6.5-3.8.6c-1.2.1-2.6.1-4.1.1c-.02.01 0-8.6 0-8.6h6.4v1.1h-5v6.3s.34.04.3 0zm22.7-3.2h2.6v1.1h-2.6v7.6h-1.4v-14.4h1.4v5.7zm-10.5-3.1v-1.1h6.4s-.03 1.97 0 2c0 1.6-.5 3.1-1.6 4.3c-1 1.3-2.6 2.4-4.8 3.4l-.5-1.2c1.9-.8 3.3-1.7 4.2-2.8c.8-1 1.3-2.2 1.3-3.6c-.04-.03 0-1 0-1h-5z" stroke="none" fill="#fff"/></g><g id="Polygon3211"><path d="m12.1 132.7h2.6v1.1h-2.6v8h-1.4v-14.4h1.4v5.3zm-6.3-.3c0 .7.3 1.5 1 2.3c.7.8 1.6 1.6 2.7 2.3l-.8 1c-1.5-1-2.7-2.1-3.6-3.4c-.9 1.5-2.1 2.7-3.7 3.7l-.7-1.1c1.1-.6 2-1.4 2.7-2.3c.7-.9 1-1.7 1-2.5V130H1.3v-1.1h7.6v1.1H5.8v2.4zm16.3.8v1.5h6.1v1.1H14.5v-1.1h6.2v-1.5h-3.9v-5h9.1v1.1h-7.7v2.7h8v1.2h-4.1zm-.7 3.6c1.4 0 2.5.3 3.3.8c.7.5 1.1 1.1 1.1 2v.1c0 .9-.4 1.5-1.1 2c-.8.5-1.9.8-3.3.8c-1.4 0-2.5-.3-3.3-.8c-.8-.5-1.2-1.1-1.2-2v-.1c0-.9.4-1.5 1.2-2c.8-.5 1.9-.8 3.3-.8zm3 2.8c0-.5-.2-.9-.7-1.2c-.6-.3-1.3-.4-2.3-.4c-1 0-1.8.1-2.3.4c-.6.3-.8.7-.8 1.2v.1c0 .5.2.9.8 1.2c.5.3 1.3.4 2.3.4c1 0 1.7-.1 2.3-.4c.5-.3.7-.7.7-1.2v-.1zm9.5-11.6h9.8v1.1h-9.8V128zm7.6 3.6h2.4v1.1H33.7v-1.1h2.3l-.1-2l1.3-.1l.2 2.1h2.8l.2-2.1l1.3.1l-.2 2zm-9.6 3.6V134h13.8v1.2H31.9zm11.4 4.8h-7.6v1.3h8v1.1h-9.4v-3.5h7.6v-1.2h-7.6v-1.2h9v3.5zm13.2-7.4v-5.2h1.4v14.4h-1.4v-8h-2.9v-1.2h2.9zm-7.9 4.1c.7 0 1.6-.1 2.6-.2c1-.1 2-.3 3-.5l.2 1.2c-1.3.2-2.5.4-3.6.5c-1.2.1-2.5.1-4 .1c.03.03 0-5.2 0-5.2h4.5V130h-4.5v-1.2h5.9v5h-4.5v2.9s.39-.04.4 0zm21.8 5.1v-14.4h1.4v14.4h-1.4zm-5.2-9.6c0 .7.4 1.5 1 2.4c.7.9 1.6 1.6 2.7 2.3l-.7 1.1c-1.6-1-2.8-2.2-3.7-3.6c-.4.8-1 1.5-1.6 2.1c-.6.7-1.3 1.3-2.1 1.7l-.7-1c.7-.4 1.3-.9 1.9-1.5c.5-.6 1-1.2 1.3-1.8c.3-.6.5-1.2.5-1.7v-3.5h1.4s.02 3.52 0 3.5zm15.7 1.9h8.1v1.2h-9.5v-6.7h9.2v1.2h-7.8v4.3zm3.9 2v3.4h6.2v1.1H77.2v-1.1h6.2v-3.4h1.4zm17-3.5v-5.2h1.4v14.4h-1.4v-8h-2.4v-1.2h2.4zm-6.7-4.1c.7 0 1.4.1 1.9.5c.5.4 1 .9 1.2 1.6c.3.7.5 1.5.5 2.4v.4c0 .9-.2 1.7-.5 2.4c-.2.7-.7 1.2-1.2 1.6c-.5.4-1.2.6-1.9.6c-.7 0-1.4-.2-1.9-.6c-.6-.4-1-.9-1.3-1.6c-.3-.7-.4-1.5-.4-2.4v-.4c0-.9.1-1.7.4-2.4c.3-.7.7-1.2 1.3-1.6c.5-.4 1.2-.5 1.9-.5zm2.2 4.6c0-1.1-.2-2-.6-2.6c-.4-.6-.9-.9-1.6-.9c-.7 0-1.3.3-1.7.9c-.3.6-.5 1.5-.5 2.6v.3c0 1.1.2 1.9.5 2.5c.4.6 1 .9 1.7.9c.7 0 1.2-.3 1.6-.9c.4-.6.6-1.4.6-2.5v-.3zm22.7.8h-1.9v4.4h-1.4v-10.7h1.4v5.2h1.9v-5.4h1.3v11.2H120v-4.7zm-7.2-4.5c-1.1 0-1.9-.1-2.6-.4v-1c.7.2 1.5.3 2.6.3c0-.04 1.8 0 1.8 0v1.1s-1.8-.02-1.8 0zm-3.9.8h7v1.1h-7v-1.1zm6.3 4.3c0 .4-.1.8-.4 1.2c-.2.3-.5.6-1 .8c-.4.2-.9.3-1.4.3c-.5 0-1-.1-1.4-.3c-.5-.2-.8-.5-1-.8c-.3-.4-.4-.8-.4-1.2v-.2c0-.4.1-.8.4-1.2c.2-.3.5-.6 1-.8c.4-.2.9-.4 1.4-.4c.5 0 1 .2 1.4.4c.5.2.8.5 1 .8c.3.4.4.8.4 1.2v.2zm-4.3 0c0 .3.1.7.4.9c.3.2.7.4 1.1.4c.5 0 .8-.2 1.1-.4c.3-.2.4-.6.4-.9v-.1c0-.4-.1-.7-.4-1c-.3-.2-.6-.4-1.1-.4c-.4 0-.8.2-1.1.4c-.3.3-.4.6-.4 1v.1zm2.5 3.2v3.3h8.5v1.1H112v-4.4h1.4zm12.8-6.2h8v1.1h-9.4V128h9.1v1.2h-7.7v2.3zm-3.7 3.7V134h13.7v1.2h-13.7zm11.3 4.8h-7.5v1.3h8v1.1h-9.4v-3.5h7.5v-1.2h-7.5v-1.2h8.9v3.5zm9.5-6.2c-.9 0-1.7-.2-2.3-.4c-.7-.2-1.2-.6-1.6-1c-.3-.4-.5-1-.5-1.5v-.2c0-.5.2-1 .5-1.5c.4-.4.9-.8 1.6-1c.6-.2 1.4-.4 2.3-.4c.9 0 1.6.2 2.3.4c.7.2 1.2.6 1.5 1c.4.5.6 1 .6 1.5v.2c0 .5-.2 1.1-.6 1.5c-.3.4-.8.8-1.5 1c-.6.2-1.4.4-2.3.4zm0-1.2c.9 0 1.7-.1 2.2-.4c.5-.4.8-.8.8-1.4c0-.6-.3-1-.8-1.4c-.5-.3-1.3-.4-2.2-.4c-1 0-1.7.1-2.2.4c-.6.4-.8.8-.8 1.4c0 .6.2 1 .8 1.4c.5.3 1.2.4 2.2.4zm-6.9 2.5h13.8v1.2h-13.8v-1.2zm2.4 2.6h1.4v3.2h7.9v1.2h-9.3v-4.4z" stroke="none" fill="#fff"/></g><g id="Polygon3210"><path d="m12.6 110.3h-1.4V106H8.7v-1.1h2.5v-1.3H8.7v-1.1h2.5v-3.1h1.4v10.9zm-11.4-9.7h7.4v1.2H1.2v-1.2zm8 7.1c-1.4.2-2.7.4-3.9.5c-1.2.1-2.7.1-4.5.1c.03 0 0-1.2 0-1.2h1.8l-.3-4.6l1.3-.1s.32 4.71.3 4.7c.4 0 1 0 1.9-.1c.04 0 .3-4.6.3-4.6l1.4.1s-.32 4.34-.3 4.3c.6 0 1.2-.1 1.8-.2l.2 1.1zM5 109.4v3.6h8.2v1.1H3.6v-4.7h1.4zm21.5 4.4h-1.4V99.4h1.4v14.4zm-10.9-9.2h4.8V102h-4.8v-1.2h6.2v5H17v2.9s.39-.04.4 0c.8 0 1.7-.1 2.8-.2c1.1-.1 2.1-.3 3.2-.5l.2 1.1c-1.3.3-2.6.5-3.9.6c-1.2.1-2.6.1-4.1.1c.03.03 0-5.2 0-5.2zm24.4-.5h2.5v1.1H40v3.5h-1.4v-9.3h1.4v4.7zm-6.6-3.1c-.6 0-1.1-.1-1.6-.1c-.5-.1-.9-.1-1.3-.3v-1c.4.1.8.1 1.3.2h1.6c-.04.05 1.8 0 1.8 0v1.2s-1.84-.03-1.8 0zm-4.5.9h8v1.1h-8v-1.1zm7.1 4.4c0 .4-.1.8-.4 1.2c-.3.4-.6.7-1.1.9c-.5.2-1 .3-1.6.3c-.6 0-1.1-.1-1.6-.3c-.5-.2-.8-.5-1.1-.9c-.3-.4-.4-.8-.4-1.2v-.2c0-.4.1-.8.4-1.2c.3-.4.6-.7 1.1-.9c.5-.2 1-.3 1.6-.3c.6 0 1.1.1 1.6.3c.5.2.8.5 1.1.9c.3.4.4.8.4 1.2v.2zm-4.9 0c0 .4.2.7.5.9c.3.3.8.4 1.3.4c.5 0 1-.1 1.3-.4c.3-.2.5-.5.5-.9v-.1c0-.5-.2-.8-.5-1c-.3-.3-.8-.4-1.3-.4c-.5 0-1 .1-1.3.4c-.3.2-.5.5-.5 1v.1zm8.9 8h-8.8v-4.7h8.8v4.7zm-1.4-3.6h-6v2.4h6v-2.4zm10.6-5.7c-.9 0-1.6-.1-2.3-.3c-.7-.2-1.2-.5-1.5-.9c-.4-.4-.6-.8-.6-1.3v-.2c0-.5.2-1 .6-1.3c.3-.4.8-.7 1.5-.9c.7-.2 1.4-.3 2.3-.3c.9 0 1.7.1 2.3.3c.7.2 1.2.5 1.6.9c.3.3.5.8.5 1.3v.2c0 .5-.2.9-.5 1.3c-.4.4-.9.7-1.6.9c-.6.2-1.4.3-2.3.3zm0-1.1c.9 0 1.7-.1 2.2-.4c.5-.3.8-.6.8-1.1v-.1c0-.4-.3-.8-.8-1.1c-.5-.2-1.3-.4-2.2-.4c-.9 0-1.7.2-2.2.4c-.5.3-.8.7-.8 1.1v.1c0 .5.3.8.8 1.1c.5.3 1.3.4 2.2.4zm-6.9 2.2h13.8v1.1H42.3v-1.1zm2.4 2.4h9v3.5h-7.6v1.3h8v1.1h-9.4v-3.5h7.6v-1.2h-7.6v-1.2zm30.2-9.1v3.7h2.5v1.2h-2.5v3.3h-1.4v-8.2h1.4zm-5.8.8h1.4v6.6h-6.2v-6.6h1.4v2.3h3.4v-2.3zm-3.4 3.4v2.1h3.4v-2.1h-3.4zm9.2 8.4h-7.4v1.3h7.8v1.2h-9.2v-3.7h7.4v-1.2h-7.4v-1.2h8.8v3.6zm9.4-6.3h3.6v-2.1h-2.8v-1.1h2.8v-3.1h1.4v10.9h-1.4v-3.5h-3.6v-1.1zm.1-3.5c0 2.9-2 5-6.2 6.4l-.5-1.2c1.8-.6 3.2-1.3 4-2.1c.9-.9 1.3-1.8 1.3-3c.04.04 0-.5 0-.5h-4.7v-1.2h6.1s.03 1.65 0 1.6zm-2.5 7v3.8h8v1.1h-9.4v-4.9h1.4zm20.6-3.8v-6h1.4v14.4h-1.4v-7.2h-1.8v6.7h-1.3V99.6h1.3v5.8h1.8zm-7.1-4c-1.1 0-2-.1-2.6-.3V100c.7.2 1.5.3 2.6.3h1.8v1.1s-1.78.05-1.8 0zm3.1 2.2h-7v-1.1h7v1.1zm-3.5.9c.5 0 1 .1 1.5.3c.4.3.7.6 1 1c.2.4.4.9.4 1.4v.2c0 .6-.2 1-.4 1.5c-.3.4-.6.7-1 1c-.5.2-1 .3-1.5.3c-.5 0-1-.1-1.4-.3c-.5-.3-.8-.6-1-1c-.3-.5-.4-.9-.4-1.5v-.2c0-.5.1-1 .4-1.4c.2-.4.5-.7 1-1c.4-.2.9-.3 1.4-.3zm1.6 2.8c0-.5-.2-.9-.5-1.2c-.3-.4-.6-.5-1.1-.5c-.4 0-.8.1-1.1.5c-.3.3-.4.7-.4 1.2v.1c0 .5.1.9.4 1.2c.3.4.7.5 1.1.5c.5 0 .8-.1 1.1-.5c.3-.3.5-.7.5-1.2v-.1zm18.5-7h1.4v7.3h-9.2v-7.3h1.4v2.5h6.4v-2.5zm-6.4 3.7v2.4h6.4V104h-6.4zm3.9 4.4v3.1h6.2v1.1H105v-1.1h6.2v-3.1h1.4zm17.8 5.4V99.4h1.3v14.4h-1.3zm-5.7-9.5h2.7v-4.7h1.3v13.7h-1.3v-7.9h-2.7v-1.1zm-1.3-.2c0 .8.3 1.6.8 2.5c.5.9 1.3 1.7 2.2 2.3l-.8 1c-1.3-.9-2.2-2-2.9-3.3c-.6 1.3-1.6 2.5-2.9 3.6l-.8-.9c.9-.7 1.6-1.6 2.2-2.5c.5-1 .8-1.9.8-2.7c.02.04 0-3.4 0-3.4h1.4s-.01 3.4 0 3.4zm16.4 3.5c-1 0-1.9-.2-2.6-.5c-.7-.3-1.3-.7-1.6-1.2c-.4-.6-.6-1.2-.6-1.9v-.1c0-.7.2-1.3.6-1.8c.3-.6.9-1 1.6-1.3c.7-.3 1.6-.5 2.6-.5c.9 0 1.8.2 2.5.5c.7.3 1.3.7 1.7 1.3c.4.5.5 1.1.5 1.8v.1c0 .7-.1 1.3-.5 1.9c-.4.5-1 .9-1.7 1.2c-.7.3-1.6.5-2.5.5zm-3.4-3.6c0 .7.3 1.3.9 1.8c.5.4 1.4.6 2.5.6c1 0 1.9-.2 2.5-.6c.5-.5.8-1.1.8-1.8v-.1c0-.7-.3-1.3-.8-1.7c-.6-.5-1.5-.7-2.5-.7c-1.1 0-2 .2-2.5.7c-.6.4-.9 1-.9 1.7v.1zm6.5 4v3.5h3.7v1.1h-13.7v-1.1h3.7V108h1.4v3.5h3.5V108h1.4zm6.2 4.5h-1.8v-2.1h1.8v2.1z" stroke="none" fill="#fff"/></g><g id="Polygon3209"><path d="m12 85.8V71.4h1.3v14.4H12zM9 74.5v-2.9h1.3v13.7H9v-5.6s-2.1.04-2.1 0c-.2.7-.6 1.2-1.1 1.5c-.4.4-1 .6-1.6.6c-.6 0-1.2-.2-1.7-.6c-.4-.4-.8-.9-1.1-1.5c-.2-.7-.3-1.5-.3-2.4v-.3c0-.9.1-1.7.3-2.4c.3-.7.7-1.2 1.1-1.6c.5-.3 1.1-.5 1.7-.5c.6 0 1.2.2 1.6.5c.5.4.8.9 1.1 1.5h2.1zM6 77c0-1.1-.2-1.9-.5-2.5c-.3-.6-.8-.8-1.3-.8c-.6 0-1 .2-1.3.8c-.3.6-.5 1.4-.5 2.5v.3c0 1 .2 1.8.5 2.4c.3.6.7.9 1.3.9c.6 0 1-.3 1.3-.9c.3-.6.5-1.4.5-2.4v-.3zm3 1.6v-2.9s-1.78-.03-1.8 0c.1.4.1.8.1 1.3v.3c0 .4 0 .9-.1 1.3c.02-.03 1.8 0 1.8 0zm17.1-7.2v3.9h2.5v1.1h-2.5v4h-1.4v-9h1.4zM19 76.6c-.5.7-1 1.3-1.6 1.9c-.6.5-1.3 1-2 1.5l-.8-1.1c1.1-.6 2-1.3 2.6-2.1c.7-.8 1-1.6 1-2.3c.02-.03 0-2.3 0-2.3h1.4s.03 2.24 0 2.2c0 .8.4 1.5 1 2.2c.6.7 1.5 1.3 2.6 1.9l-.7 1.1c-1.5-.9-2.7-1.9-3.5-3zm2.7 4.1c1 0 1.8.1 2.5.4c.6.2 1.1.5 1.5.9c.3.5.5.9.5 1.5v.2c0 .8-.4 1.5-1.2 2c-.7.5-1.9.7-3.3.7c-1.4 0-2.5-.2-3.3-.7c-.8-.5-1.2-1.2-1.2-2v-.2c0-.6.2-1 .6-1.5c.3-.4.8-.7 1.5-.9c.7-.3 1.5-.4 2.4-.4zm3.1 2.8c0-.5-.2-.9-.8-1.2c-.5-.3-1.3-.4-2.3-.4c-1 0-1.7.1-2.3.4c-.5.3-.8.7-.8 1.2v.1c0 .5.3.9.8 1.2c.6.3 1.3.5 2.3.5c1 0 1.8-.2 2.3-.5c.6-.3.8-.7.8-1.2v-.1zm14.3 2.3V71.4h1.4v14.4h-1.4zm-5.4-12.6H32c-.5-.1-.9-.2-1.3-.3v-1.1c.4.1.8.1 1.2.2c.5 0 1.1.1 1.8.1c-.02-.04 1.9 0 1.9 0v1.1s-1.92.02-1.9 0zm.2 3.3c0 .7.3 1.5 1 2.3c.6.8 1.5 1.6 2.6 2.3l-.7 1c-1.6-1-2.8-2.1-3.6-3.5c-.5.8-1 1.5-1.6 2.1c-.7.6-1.4 1.2-2.1 1.7l-.8-1.1c.7-.4 1.4-.9 1.9-1.5c.6-.5 1-1.1 1.4-1.7c.3-.6.4-1.1.4-1.6c.05.02 0-.9 0-.9h-3.1v-1.1h7.7v1.1h-3.1s-.04.89 0 .9zm19.5.8v1.8h6.2v1.2H45.8v-1.2h6.2v-1.8h-3.8v-5.1h9v5.1h-3.8zm2.4-4h-6.2v2.8h6.2v-2.8zm-2.4 8.8c0 .5.3.9.8 1.3c.5.5 1.1.8 1.8 1.2c.8.3 1.5.5 2.3.6l-.3 1.1c-1-.1-2-.4-2.9-.9c-.9-.4-1.7-1-2.3-1.6c-.7.7-1.5 1.2-2.4 1.7c-.9.4-1.9.7-2.9.9l-.3-1.2c.7-.1 1.5-.3 2.3-.6c.7-.3 1.3-.7 1.8-1.2c.5-.4.7-.8.7-1.3c.03.04 0-1 0-1h1.4s.04 1.04 0 1zm17.9-10.7v5.6h2.6v1.1h-2.6v4.8h-1.4V71.4h1.4zM64.7 73h-1.5c-.5-.1-.9-.2-1.3-.3v-1.1c.7.2 1.6.3 2.8.3h1.9v1.1s-1.88.03-1.9 0zm-4.4 1h8v1.1h-8V74zm7.1 4.6c0 .5-.2.9-.4 1.3c-.3.4-.7.7-1.1.9c-.5.2-1 .3-1.6.3c-.6 0-1.2-.1-1.6-.3c-.5-.2-.9-.5-1.1-.9c-.3-.4-.4-.8-.4-1.3v-.2c0-.5.1-.9.4-1.3c.2-.4.6-.7 1.1-.9c.4-.2 1-.3 1.6-.3c.6 0 1.1.1 1.6.3c.4.2.8.5 1.1.9c.2.4.4.8.4 1.3v.2zm-4.9 0c0 .4.2.8.5 1c.3.3.7.4 1.3.4c.5 0 .9-.1 1.3-.4c.3-.3.4-.6.4-1v-.2c0-.4-.1-.7-.4-1c-.4-.3-.8-.4-1.3-.4c-.6 0-1 .1-1.3.4c-.3.3-.5.6-.5 1v.2zm.1 3.5h1.4v2.9h7.9v1.1h-9.3v-4zm24.6-8.8h-7.7v-1.1h9.1s-.02 1.57 0 1.6c0 1.1-.2 2.2-.4 3.3l-1.4-.2c.2-1 .4-2 .4-3.1c-.03.02 0-.5 0-.5zm-3 1.8v3.3h6.8v1.2H77.2v-1.2h5.6v-3.3h1.4zm.6 6.8c0 .5.2.9.7 1.4c.5.5 1.1.9 1.9 1.2c.7.4 1.5.6 2.2.7l-.3 1.1c-1-.1-2-.5-2.9-.9c-.9-.5-1.7-1.1-2.3-1.8c-.6.7-1.4 1.3-2.3 1.8c-1 .5-1.9.8-2.9 1l-.4-1.2c.8-.1 1.6-.3 2.3-.7c.8-.3 1.4-.7 1.9-1.2c.5-.5.7-.9.7-1.4c-.01.03 0-1.1 0-1.1h1.4v1.1zm17.7 3.9V71.4h1.4v14.4h-1.4zm-3-9.3v-4.9h1.4v13.7h-1.4v-7.6h-1.6c-.1 1.3-.4 2.2-.9 3c-.6.7-1.3 1.1-2.2 1.1c-.7 0-1.2-.2-1.7-.6c-.5-.4-.8-.9-1.1-1.5c-.2-.7-.4-1.5-.4-2.4v-.3c0-.9.2-1.7.4-2.4c.3-.7.6-1.2 1.1-1.6c.5-.3 1-.5 1.7-.5c.9 0 1.6.4 2.2 1.1c.5.7.8 1.7.9 2.9c-.04.04 1.6 0 1.6 0zm-3 .5c0-1.1-.1-1.9-.5-2.5c-.3-.6-.7-.8-1.2-.8c-.6 0-1 .2-1.4.8c-.3.6-.4 1.4-.4 2.5v.3c0 1 .1 1.8.4 2.4c.3.6.8.9 1.4.9c.5 0 1-.3 1.3-.9c.3-.6.4-1.4.4-2.4v-.3zm19.2-.9v-4.7h1.4v14.4h-1.4v-8.5h-3.4v-1.2h3.4zm-5.5.1c0 .7.3 1.5 1 2.4c.6.9 1.5 1.6 2.5 2.3L113 82c-1.6-1.1-2.7-2.2-3.5-3.6c-.5.8-1 1.5-1.6 2.1c-.6.7-1.2 1.2-1.9 1.7l-.8-1c.7-.4 1.3-.9 1.8-1.5c.6-.6 1-1.2 1.3-1.8c.3-.6.5-1.2.5-1.7c-.03.03 0-3.5 0-3.5h1.4s-.02 3.5 0 3.5zm23.9-4.8v3.6h2.5v1.1h-2.5v3.5h-1.4v-8.2h1.4zm-7.7 2.3c0 .9-.2 1.7-.8 2.5c-.6.7-1.5 1.4-2.5 2l-.7-1c1.8-.9 2.8-2 2.8-3.4c-.05.03 0-.3 0-.3h-2.3v-1.1h3.5s.05 1.3 0 1.3zm2.7-.2H127v-1.1h3.4s.03 1.42 0 1.4c0 2.1-1.1 4-3.4 5.7l-.8-1c1-.7 1.8-1.4 2.2-2.1c.5-.8.7-1.6.7-2.5c.04.01 0-.4 0-.4zm5 10.5h-7.4v1.3h7.8v1.2h-9.2v-3.7h7.4v-1.2h-7.4v-1.2h8.8v3.6zm16.1-6.2v1.2h-13.8v-1.2s3.73.05 3.7 0c.4-1.3.6-2.6.6-3.8c-.05.01 0-.5 0-.5h-2.8v-1.2h4.2s-.04 1.71 0 1.7c0 1.1-.2 2.4-.5 3.8h4.5c.4-1.3.6-2.6.6-3.8v-.5h-3.6v-1.2h5s-.01 1.71 0 1.7c0 1.2-.2 2.5-.6 3.8c.02.05 2.7 0 2.7 0zm-2.4 8.4h-9V81h9v5.2zm-1.4-4.1h-6.2v3h6.2v-3zm15.5-6h2.6v1.1h-2.6v3.5h-1.4v-9.3h1.4v4.7zm-6.6-3.1c-.6 0-1.1-.1-1.6-.1c-.4-.1-.9-.1-1.2-.3v-1c.3.1.7.1 1.2.2h1.6c-.02.05 1.8 0 1.8 0v1.2s-1.82-.03-1.8 0zm-4.5.9h8v1.1h-8v-1.1zm7.1 4.4c0 .4-.1.8-.4 1.2c-.2.4-.6.7-1.1.9c-.4.2-1 .3-1.6.3c-.6 0-1.1-.1-1.6-.3c-.5-.2-.8-.5-1.1-.9c-.2-.4-.4-.8-.4-1.2v-.2c0-.4.2-.8.4-1.2c.3-.4.6-.7 1.1-.9c.5-.2 1-.3 1.6-.3c.6 0 1.2.1 1.6.3c.5.2.9.5 1.1.9c.3.4.4.8.4 1.2v.2zm-4.8 0c0 .4.1.7.4.9c.4.3.8.4 1.3.4c.6 0 1-.1 1.3-.4c.3-.2.5-.5.5-.9v-.1c0-.5-.2-.8-.5-1c-.3-.3-.7-.4-1.3-.4c-.5 0-.9.1-1.3.4c-.3.2-.4.5-.4 1v.1zm8.8 8h-8.7v-4.7h8.7v4.7zm-1.4-3.6h-6v2.4h6v-2.4zm15.3-5h2.6v1.2h-2.6v6.9h-1.4V71.4h1.4v6.3zm-4.9-3.4h-5.7v-1.2h7.1s.03 2.09 0 2.1c0 .6 0 1.3-.1 2.2c-.1.9-.3 1.7-.6 2.5l-1.3-.3c.4-1.4.6-2.9.6-4.5c.03 0 0-.8 0-.8zm-2.2 8.2c1.7-.1 3.3-.3 4.7-.7l.3 1.2c-1.2.2-2.3.4-3.3.5c-1.1.1-2.2.2-3.5.2c.01-.04-2.7 0-2.7 0v-1.2h3.1v-5h1.4v5z" stroke="none" fill="#fff"/></g><g id="Polygon3208"><path d="m1.6 44V29.5s4.95.04 5 0c1.4 0 2.6.3 3.7.9c1 .5 1.9 1.4 2.4 2.4c.6 1.1.9 2.3.9 3.7v.4c0 1.4-.3 2.7-.9 3.7c-.5 1.1-1.4 1.9-2.4 2.5c-1.1.6-2.3.9-3.7.9c-.05-.02-5 0-5 0zm4.8-2.1c.8 0 1.5-.2 2.2-.5c.6-.4 1.2-.9 1.6-1.7c.4-.7.6-1.7.6-2.8v-.4c0-1.1-.2-2-.6-2.8c-.4-.7-1-1.3-1.6-1.6c-.7-.3-1.4-.5-2.2-.5H4.1v10.3h2.3zm7.7-3.3c0-1 .2-1.9.7-2.7c.4-.8 1-1.4 1.8-1.9c.8-.4 1.7-.7 2.7-.7c1 0 1.9.3 2.7.7c.8.5 1.4 1.1 1.8 1.9c.5.8.7 1.7.7 2.7v.3c0 1.1-.2 2-.7 2.8c-.4.8-1 1.4-1.8 1.9c-.8.4-1.7.7-2.7.7c-1 0-1.9-.3-2.7-.7c-.8-.5-1.4-1.1-1.8-1.9c-.5-.8-.7-1.8-.7-2.8v-.3zm2.5.3c0 1 .3 1.9.7 2.5c.5.7 1.2 1 2 1c.8 0 1.5-.3 2-1c.4-.6.7-1.5.7-2.5v-.3c0-1-.3-1.8-.7-2.4c-.5-.7-1.2-1-2-1c-.8 0-1.5.3-2 1c-.4.6-.7 1.4-.7 2.4v.3zm8.5-.3c0-1 .2-1.9.7-2.7c.4-.8 1-1.4 1.8-1.9c.8-.4 1.7-.7 2.7-.7c1 0 1.9.3 2.7.7c.7.5 1.4 1.1 1.8 1.9c.5.8.7 1.7.7 2.7v.3c0 1.1-.2 2-.7 2.8c-.4.8-1.1 1.4-1.8 1.9c-.8.4-1.7.7-2.7.7c-1 0-1.9-.3-2.7-.7c-.8-.5-1.4-1.1-1.8-1.9c-.5-.8-.7-1.8-.7-2.8v-.3zm2.5.3c0 1 .3 1.9.7 2.5c.5.7 1.1 1 2 1c.8 0 1.5-.3 1.9-1c.5-.6.7-1.5.7-2.5v-.3c0-1-.2-1.8-.7-2.4c-.4-.7-1.1-1-1.9-1c-.9 0-1.5.3-2 1c-.4.6-.7 1.4-.7 2.4v.3zm8.9 5.1V33.6h2.3s.15 1.72.1 1.7c.3-.6.7-1.1 1.2-1.4c.6-.4 1.2-.6 2-.6c.3 0 .6.1.8.1v2.2c-.3-.1-.6-.2-.9-.2c-.7 0-1.4.3-1.9.7c-.6.4-.9.9-1.1 1.6v6.3h-2.5zm13.8 0h-2.5V29.5h2.5v6h7.3v-6h2.6V44h-2.6v-6.4h-7.3v6.4zm11.1-2.9c0-.8.2-1.5.7-2c.4-.5.9-.8 1.5-1c.6-.3 1.3-.4 2.2-.6l2.2-.3c-.1-1.4-.9-2.1-2.5-2.1c-.6 0-1.2.2-1.7.5c-.6.3-1.1.7-1.5 1.3v-2.4c1-.8 2.3-1.2 3.7-1.2c1.3 0 2.4.4 3.2 1.1c.9.7 1.3 1.8 1.3 3.2v6.4h-2.1s-.19-1.22-.2-1.2c-.5.5-1 .8-1.6 1.1c-.5.2-1.2.4-1.9.4c-1 0-1.8-.3-2.4-.9c-.6-.6-.9-1.3-.9-2.3zm2.4-.1c0 .4.1.7.4.9c.2.3.6.4 1 .4c.6 0 1.2-.2 1.7-.6c.5-.3.9-.8 1.2-1.3c-.02-.05 0-1.5 0-1.5c0 0-1.26.22-1.3.2c-.8.2-1.4.3-1.8.4c-.3.2-.6.4-.8.5c-.3.3-.4.6-.4 1zm8.2 3V33.6h2.3s.16 1.51.2 1.5c.3-.5.8-.9 1.4-1.3c.5-.3 1.2-.5 1.9-.5c1.1 0 2 .4 2.7 1c.6.7.9 1.7.9 2.9c.01 0 0 6.8 0 6.8H79s-.04-6.8 0-6.8c0-1.3-.6-2-1.6-2c-.7 0-1.2.3-1.8.7c-.5.5-.9 1.1-1.1 1.8c-.04-.05 0 6.3 0 6.3H72zm10.3-5.2c0-1.1.2-2.1.6-2.9c.4-.8 1-1.5 1.7-1.9c.7-.5 1.5-.7 2.3-.7c.6 0 1.2.1 1.8.4c.5.2 1 .6 1.3 1c.02.01 0-5.3 0-5.3h2.5V44h-2.3s-.18-1.27-.2-1.3c-.3.5-.7.9-1.3 1.1c-.5.3-1.1.5-1.8.5c-.8 0-1.6-.3-2.3-.7c-.7-.4-1.3-1.1-1.7-1.9c-.4-.8-.6-1.8-.6-2.9zm2.5 0c0 .8.1 1.4.4 2c.2.5.6.9 1 1.2c.4.3.8.4 1.3.4c.5 0 1-.2 1.5-.5c.4-.3.8-.7 1-1.2v-3.8c-.2-.6-.6-1-1-1.3c-.5-.3-.9-.4-1.5-.4c-.4 0-.8.1-1.3.4c-.4.3-.7.7-1 1.2c-.3.6-.4 1.2-.4 2zM96.6 44h-2.4V29.4h2.4V44zm1-5.4c0-1 .2-1.9.6-2.7c.4-.8 1-1.5 1.7-1.9c.8-.5 1.6-.7 2.6-.7c1.5 0 2.7.5 3.5 1.5c.8.9 1.2 2.2 1.2 3.9c.03 0 0 .9 0 .9c0 0-7.2.05-7.2 0c.1.9.4 1.6.9 2.1c.5.4 1.2.7 2 .7c.7 0 1.3-.1 1.9-.4c.6-.2 1.2-.6 1.7-1.2v2.3c-.4.4-1 .7-1.6.9c-.7.2-1.3.3-2.1.3c-1.1 0-2-.3-2.8-.7c-.8-.5-1.4-1.1-1.8-1.9c-.4-.8-.6-1.7-.6-2.7v-.4zm7.2-.8c0-.8-.2-1.5-.6-1.9c-.5-.5-1-.7-1.7-.7c-.7 0-1.3.2-1.7.7c-.5.5-.7 1.1-.8 1.9h4.8z" stroke="none" fill="#fff"/></g><g id="Polygon3207"><path d="m2.8 16H.3L5.8 1.5h2.8L14.2 16h-2.8l-1.5-4H4.3l-1.5 4zM7.1 4.4L5 10h4.2L7.1 4.4zm7.4 8c0 1.2.4 2.2 1 2.9c.6.6 1.5 1 2.7 1c.7 0 1.3-.2 1.9-.5c.6-.4 1-.8 1.4-1.3l.1 1.5h2.3V5.6h-2.4v6.3c-.2.7-.6 1.3-1.2 1.8c-.5.4-1.1.7-1.7.7c-1.1 0-1.6-.7-1.6-2c-.01-.01 0-6.8 0-6.8h-2.5s.03 6.79 0 6.8zm12.3-4.9h-2.3V5.6h2.3V2.5h2.4v3.1h2.3v1.9h-2.3v8.5h-2.4V7.5zm4.5 3.1c0-1 .2-1.9.7-2.7c.4-.8 1-1.4 1.8-1.9c.8-.4 1.7-.7 2.7-.7c1 0 1.9.3 2.7.7c.8.5 1.4 1.1 1.8 1.9c.5.8.7 1.7.7 2.7v.3c0 1.1-.2 2-.7 2.8c-.4.8-1 1.4-1.8 1.9c-.8.4-1.7.7-2.7.7c-1 0-1.9-.3-2.7-.7c-.8-.5-1.4-1.1-1.8-1.9c-.5-.8-.7-1.8-.7-2.8v-.3zm2.5.3c0 1 .3 1.9.7 2.5c.5.7 1.2 1 2 1c.8 0 1.5-.3 2-1c.4-.6.7-1.5.7-2.5v-.3c0-1-.3-1.8-.7-2.4c-.5-.7-1.2-1-2-1c-.8 0-1.5.3-2 1c-.4.6-.7 1.4-.7 2.4v.3zM49.6 16h-2.5V1.5h9.2v2.1h-6.7v4h5.5v2.2h-5.5v6.2zm10.2 0h-2.4V1.4h2.4V16zm1.6-3.6c0 1.2.3 2.2.9 2.9c.6.6 1.5 1 2.7 1c.7 0 1.3-.2 1.9-.5c.6-.4 1-.8 1.4-1.3l.2 1.5h2.3V5.6h-2.5v6.3c-.2.7-.6 1.3-1.1 1.8c-.6.4-1.2.7-1.8.7c-1.1 0-1.6-.7-1.6-2V5.6h-2.4s-.05 6.79 0 6.8zm10.8.3c.4.5.9.9 1.5 1.2c.5.3 1.1.4 1.7.4c.7 0 1.1-.1 1.4-.3c.3-.2.5-.5.5-.8c0-.3-.1-.5-.3-.7c-.2-.2-.6-.4-1.1-.6l-1-.4c-.9-.3-1.6-.7-2-1.2c-.5-.5-.7-1.2-.7-2c0-.5.1-1 .4-1.5c.3-.4.7-.8 1.3-1.1c.5-.2 1.2-.4 2-.4c.6 0 1.2.1 1.8.3c.6.2 1 .5 1.4.8v2.3c-.5-.5-1-.9-1.5-1.1c-.6-.3-1.1-.4-1.6-.4c-.6 0-.9.1-1.2.3c-.2.2-.3.4-.3.7c0 .2.1.4.3.6c.3.2.6.4 1.1.6l1.1.3c.9.4 1.6.8 2 1.3c.4.5.6 1.2.6 2c0 1-.4 1.8-1.1 2.4c-.8.6-1.8.9-3.1.9c-.6 0-1.2-.1-1.8-.4c-.6-.2-1.1-.4-1.4-.8v-2.4zm8.5 3.3V1.4h2.4s.02 5.71 0 5.7c.4-.5.9-.9 1.4-1.3c.6-.3 1.2-.5 1.9-.5c1.2 0 2.1.4 2.7 1c.7.7 1 1.7 1 2.9c-.02 0 0 6.8 0 6.8h-2.5s.03-6.8 0-6.8c0-1.3-.5-2-1.6-2c-.6 0-1.2.3-1.7.7c-.6.5-1 1.1-1.2 1.8c.02-.05 0 6.3 0 6.3h-2.4z" stroke="none" fill="#fff"/></g></svg>