<?xml version="1.0" standalone="no"?><!DOCTYPE svg PUBLIC "-//W3C//DTD SVG 1.1//EN" "http://www.w3.org/Graphics/SVG/1.1/DTD/svg11.dtd"><svg xmlns="http://www.w3.org/2000/svg" version="1.1" width="160px" height="55.8px" viewBox="0 -5 160 55.8" style="top:-5px"><desc>텍스트 B</desc><defs/><g id="Polygon2657"><path d="m15.2 31.3c0-1.2.2-2.3.7-3.2c.5-1 1.2-1.7 2-2.2c.9-.5 1.9-.8 3-.8c.7 0 1.5.1 2.2.4c.6.3 1.2.6 1.6 1.1v1.7c-.5-.6-1-1.1-1.6-1.5c-.7-.3-1.4-.5-2.2-.5c-.8 0-1.5.2-2.1.6c-.6.5-1.1 1-1.5 1.8c-.4.7-.6 1.6-.6 2.6v.3c0 .9.2 1.8.6 2.5c.4.8.9 1.4 1.5 1.8c.6.4 1.3.6 2.1.6c.8 0 1.5-.1 2.2-.5c.6-.3 1.2-.8 1.6-1.4v1.7c-.4.4-1 .8-1.7 1c-.7.3-1.4.4-2.1.4c-1.1 0-2.1-.2-3-.7c-.8-.6-1.5-1.3-2-2.2c-.5-1-.7-2-.7-3.2v-.3zM25.4 33c0-.9.1-1.6.5-2.3c.3-.7.8-1.2 1.4-1.6c.7-.4 1.4-.6 2.2-.6c.8 0 1.5.2 2.1.6c.6.4 1.1.9 1.4 1.6c.4.7.6 1.4.6 2.3v.3c0 .9-.2 1.6-.6 2.3c-.3.7-.8 1.2-1.4 1.6c-.6.4-1.3.5-2.1.5c-.8 0-1.5-.1-2.2-.5c-.6-.4-1.1-.9-1.4-1.6c-.4-.7-.5-1.4-.5-2.3v-.3zm1.4.3c0 1 .3 1.8.7 2.4c.5.6 1.1.9 2 .9c.8 0 1.4-.3 1.9-.9c.5-.6.7-1.4.7-2.4v-.3c0-1-.2-1.8-.7-2.4c-.5-.6-1.1-1-1.9-1c-.9 0-1.5.4-2 1c-.4.6-.7 1.4-.7 2.4v.3zm7.8 4.2v-8.7h1.3s.07 1.55.1 1.6c.3-.6.7-1 1.2-1.4c.5-.3 1-.5 1.6-.5c.7 0 1.2.2 1.6.5c.4.4.7.8.9 1.4c.3-.5.7-1 1.2-1.4c.5-.3 1.1-.5 1.7-.5c.8 0 1.5.3 1.9.8c.5.5.8 1.3.8 2.3c-.05-.03 0 5.9 0 5.9h-1.5s.04-5.82 0-5.8c0-.7-.1-1.2-.3-1.6c-.2-.3-.6-.5-1.1-.5c-.4 0-.7.2-1.1.4c-.3.2-.6.5-.9.8c-.3.4-.5.8-.6 1.2c.03-.02 0 5.5 0 5.5H40s.02-5.85 0-5.9c0-.6-.1-1.1-.3-1.5c-.3-.3-.6-.5-1.2-.5c-.3 0-.6.2-1 .4c-.3.2-.6.5-.9.8c-.3.4-.5.8-.6 1.2c.02-.02 0 5.5 0 5.5h-1.4zm13.8 0V25.2h1.4s-.04 4.86 0 4.9c.3-.5.7-.9 1.2-1.1c.5-.3 1-.5 1.6-.5c.7 0 1.3.2 1.9.6c.6.4 1.1.9 1.4 1.6c.3.7.5 1.5.5 2.4c0 .9-.2 1.8-.5 2.5c-.3.7-.8 1.2-1.4 1.6c-.6.4-1.2.5-1.9.5c-.6 0-1.1-.1-1.6-.4c-.5-.3-.9-.7-1.3-1.2c.05.04-.1 1.4-.1 1.4h-1.2zm1.4-2.9c.2.5.5 1 1 1.4c.5.4 1 .6 1.5.6c.5 0 1-.1 1.4-.4c.4-.3.7-.7.9-1.2c.2-.5.3-1.2.3-1.9c0-.7-.1-1.3-.3-1.8c-.2-.5-.6-.9-.9-1.2c-.4-.3-.9-.5-1.4-.5c-.5 0-1 .2-1.5.6c-.5.4-.8.9-1 1.5v2.9zm9-7.3h-1.4v-1.7h1.4v1.7zm0 10.2h-1.4v-8.7h1.4v8.7zm1.7 0v-8.7h1.3l.1 1.7c.3-.5.8-1 1.3-1.4c.5-.4 1.1-.6 1.8-.6c.9 0 1.6.3 2.1.9c.5.5.8 1.3.8 2.4v5.7h-1.4s-.03-5.63 0-5.6c0-.8-.2-1.3-.4-1.7c-.3-.3-.7-.5-1.3-.5c-.4 0-.8.1-1.2.3c-.4.3-.7.6-1 1c-.4.5-.6.9-.7 1.4c.02-.05 0 5.1 0 5.1h-1.4zm8.3-2.3c0-.6.1-1.1.4-1.5c.3-.4.7-.6 1.2-.9c.5-.2 1.2-.3 2-.5l2.2-.4c0-.7-.2-1.3-.6-1.7c-.4-.4-.9-.6-1.7-.6c-.6 0-1.1.2-1.6.4c-.5.3-.9.6-1.2 1v-1.4c.3-.3.7-.5 1.2-.8c.5-.2 1.1-.3 1.7-.3c1.1 0 2 .3 2.7.9c.6.5.9 1.4.9 2.5c.02-.03 0 5.6 0 5.6h-1.1s-.24-1.34-.2-1.3c-.4.5-.9.9-1.5 1.1c-.5.3-1.1.4-1.8.4c-.8 0-1.4-.2-1.9-.6c-.5-.5-.7-1.1-.7-1.9zm1.4-.1c0 .5.1.9.4 1.1c.3.3.6.4 1.1.4c.5 0 1.1-.2 1.6-.5c.6-.4 1-.8 1.3-1.4c.03-.03 0-1.7 0-1.7c0 0-1.43.26-1.4.3c-.8.1-1.4.2-1.8.4c-.4.1-.7.3-.9.5c-.2.3-.3.6-.3.9zm8.2-5.2h-1.9v-1.1h1.9v-2.7h1.4v2.7h2v1.1h-2v7.6h-1.4v-7.6zm5.4-2.6h-1.4v-1.7h1.4v1.7zm0 10.2h-1.4v-8.7h1.4v8.7zm1-4.5c0-.9.2-1.6.5-2.3c.4-.7.9-1.2 1.5-1.6c.6-.4 1.3-.6 2.1-.6c.8 0 1.5.2 2.1.6c.6.4 1.1.9 1.5 1.6c.3.7.5 1.4.5 2.3v.3c0 .9-.2 1.6-.5 2.3c-.4.7-.9 1.2-1.5 1.6c-.6.4-1.3.5-2.1.5c-.8 0-1.5-.1-2.1-.5c-.6-.4-1.1-.9-1.5-1.6c-.3-.7-.5-1.4-.5-2.3v-.3zm1.5.3c0 1 .2 1.8.7 2.4c.4.6 1.1.9 1.9.9c.8 0 1.5-.3 1.9-.9c.5-.6.7-1.4.7-2.4v-.3c0-1-.2-1.8-.7-2.4c-.4-.6-1.1-1-1.9-1c-.8 0-1.5.4-1.9 1c-.5.6-.7 1.4-.7 2.4v.3zm7.7 4.2v-8.7h1.3s.14 1.73.1 1.7c.4-.5.8-1 1.3-1.4c.6-.4 1.2-.6 1.9-.6c.9 0 1.6.3 2.1.9c.5.5.7 1.3.7 2.4c.03-.04 0 5.7 0 5.7H100v-5.6c0-.8-.1-1.3-.4-1.7c-.2-.3-.7-.5-1.3-.5c-.4 0-.8.1-1.2.3c-.4.3-.7.6-1 1c-.3.5-.5.9-.6 1.4c-.04-.05 0 5.1 0 5.1H94zm19.6 0h-7.1V25.3h1.5v11h5.6v1.2zm.3-2.3c0-.6.1-1.1.4-1.5c.3-.4.7-.6 1.2-.9c.5-.2 1.2-.3 2-.5l2.2-.4c0-.7-.2-1.3-.6-1.7c-.4-.4-.9-.6-1.7-.6c-.6 0-1.1.2-1.6.4c-.5.3-.9.6-1.2 1v-1.4c.3-.3.7-.5 1.2-.8c.6-.2 1.1-.3 1.7-.3c1.1 0 2 .3 2.7.9c.6.5.9 1.4.9 2.5c.02-.03 0 5.6 0 5.6H120s-.24-1.34-.2-1.3c-.4.5-.9.9-1.5 1.1c-.5.3-1.1.4-1.8.4c-.8 0-1.4-.2-1.9-.6c-.5-.5-.7-1.1-.7-1.9zm1.4-.1c0 .5.1.9.4 1.1c.3.3.6.4 1.1.4c.5 0 1.1-.2 1.6-.5c.6-.4 1-.8 1.3-1.4c.03-.03 0-1.7 0-1.7c0 0-1.43.26-1.4.3c-.8.1-1.4.2-1.8.4c-.4.1-.7.3-.9.5c-.2.3-.3.6-.3.9zm7.4 2.4v-8.7h1.2s.13 1.55.1 1.6c.4-.6.8-1 1.2-1.4c.5-.3 1.1-.5 1.7-.5c.6 0 1.1.2 1.6.5c.4.4.7.8.8 1.4c.4-.5.8-1 1.3-1.4c.5-.3 1.1-.5 1.7-.5c.8 0 1.4.3 1.9.8c.5.5.7 1.3.7 2.3v5.9h-1.4v-5.8c0-.7-.1-1.2-.3-1.6c-.3-.3-.6-.5-1.2-.5c-.3 0-.6.2-1 .4c-.3.2-.7.5-.9.8c-.3.4-.5.8-.6 1.2v5.5h-1.4s-.02-5.85 0-5.9c0-.6-.1-1.1-.4-1.5c-.2-.3-.6-.5-1.1-.5c-.3 0-.6.2-1 .4c-.3.2-.6.5-.9.8c-.3.4-.5.8-.6 1.2c-.02-.02 0 5.5 0 5.5h-1.4zm13.7 3.5V28.8h1.3s.11 1.38.1 1.4c.3-.5.7-.9 1.2-1.2c.5-.3 1.1-.5 1.6-.5c.8 0 1.4.2 2 .6c.6.4 1 .9 1.4 1.6c.3.7.5 1.5.5 2.4c0 .9-.2 1.8-.5 2.5c-.4.7-.8 1.2-1.4 1.6c-.6.4-1.2.5-2 .5c-.5 0-1.1-.1-1.6-.4c-.4-.3-.9-.6-1.2-1.1c.03-.01 0 4.8 0 4.8h-1.4zm1.4-6.5c.2.6.6 1.1 1.1 1.5c.4.4 1 .6 1.5.6c.5 0 .9-.1 1.3-.4c.4-.3.7-.7 1-1.2c.2-.6.3-1.2.3-1.9c0-.7-.1-1.3-.3-1.8c-.3-.5-.6-.9-1-1.2c-.3-.3-.8-.5-1.3-.5c-.5 0-1.1.2-1.5.6c-.5.4-.9.9-1.1 1.5v2.8z" stroke="none" fill="#939598"/></g><g id="Polygon2656"><path d="m56.6 13.5h-7.1V1.3h1.5v11h5.6v1.2zm8.3 0h-7.4V1.3h7.3v1.3H59v4h4.9v1.3H59v4.4h5.9v1.2zm1.3 0V1.3s3.75.04 3.8 0c1.1 0 2.1.3 3 .8c.9.5 1.6 1.2 2.1 2.1c.5.9.7 1.9.7 3v.4c0 1.1-.2 2.1-.7 3c-.5.9-1.2 1.6-2.1 2.1c-.9.5-1.9.8-3 .8h-3.8zm3.7-1.2c.9 0 1.6-.2 2.3-.6c.6-.4 1.1-1 1.5-1.7c.4-.7.6-1.5.6-2.4v-.4c0-.9-.2-1.7-.6-2.4c-.4-.7-.9-1.3-1.5-1.7c-.7-.3-1.4-.5-2.3-.5c.02-.04-2.2 0-2.2 0v9.7s2.22-.01 2.2 0zm10.6 1.2V1.3s4.46.04 4.5 0c.8 0 1.5.2 2.1.5c.6.3 1.1.7 1.4 1.2c.3.5.5 1.1.5 1.7v.3c0 .9-.3 1.6-.9 2.2c-.6.6-1.5 1-2.5 1.1c0 .02 4 5.2 4 5.2h-1.9l-3.9-5.1H82v5.1h-1.5zm4.3-6.3c.8 0 1.5-.2 2-.6c.4-.4.7-1 .7-1.6v-.3c0-.6-.3-1.2-.7-1.6c-.5-.4-1.2-.6-2-.6c0 .04-2.8 0-2.8 0v4.7s2.8-.05 2.8 0zm4.7 1.7c0-.8.2-1.6.5-2.2c.3-.7.8-1.2 1.4-1.6c.6-.4 1.3-.6 2-.6c1.2 0 2.1.4 2.8 1.2c.7.8 1 1.9 1 3.3v.6h-6.3c.1.9.3 1.6.8 2.2c.5.5 1.1.8 1.9.8c1.2 0 2.3-.4 3.1-1.3v1.4c-.4.3-.8.6-1.3.8c-.5.2-1.1.2-1.8.2c-.8 0-1.6-.1-2.2-.5c-.6-.4-1.1-.9-1.4-1.6c-.3-.7-.5-1.4-.5-2.3v-.4zm6.3-.4c0-.9-.2-1.7-.7-2.1c-.4-.5-.9-.8-1.6-.8c-.5 0-.9.2-1.3.4c-.3.2-.6.6-.9 1c-.2.4-.3.9-.4 1.5h4.9zm1.8 2.7c0-.6.2-1.1.5-1.5c.3-.4.6-.6 1.1-.9c.6-.2 1.2-.3 2.1-.5l2.2-.4c0-.7-.2-1.3-.6-1.7c-.4-.4-1-.6-1.7-.6c-.6 0-1.1.2-1.6.4c-.5.3-.9.6-1.3 1V5.6c.4-.3.8-.5 1.3-.8c.5-.2 1.1-.3 1.7-.3c1.1 0 2 .3 2.6.9c.7.5 1 1.4 1 2.5v5.6h-1.1s-.26-1.34-.3-1.3c-.4.5-.8.9-1.4 1.1c-.5.3-1.1.4-1.8.4c-.8 0-1.5-.2-1.9-.6c-.5-.5-.8-1.1-.8-1.9zm1.5-.1c0 .5.1.9.4 1.1c.3.3.6.4 1.1.4c.5 0 1.1-.2 1.6-.5c.6-.4 1-.8 1.3-1.4c.01-.03 0-1.7 0-1.7c0 0-1.45.26-1.5.3c-.8.1-1.4.2-1.8.4c-.4.1-.7.3-.9.5c-.1.3-.2.6-.2.9zm7.3 2.4V4.8h1.3s.13 1.49.1 1.5c.3-.6.6-1 1.1-1.3c.4-.3.9-.5 1.5-.5c.2 0 .3 0 .5.1h.3v1.3c-.2-.1-.5-.1-.8-.1c-.6 0-1.1.1-1.6.5c-.4.4-.8.9-.9 1.5c-.04.02 0 5.7 0 5.7h-1.5z" stroke="none" fill="#939598"/></g></svg>