<?xml version="1.0" standalone="no"?><!DOCTYPE svg PUBLIC "-//W3C//DTD SVG 1.1//EN" "http://www.w3.org/Graphics/SVG/1.1/DTD/svg11.dtd"><svg xmlns="http://www.w3.org/2000/svg" version="1.1" width="160px" height="55.8px" viewBox="0 -5 160 55.8" style="top:-5px"><desc>텍스트 B</desc><defs/><g id="Polygon2718"><path d="m32.1 34.6c.4.6.9 1 1.6 1.4c.6.4 1.2.5 1.9.5c.6 0 1-.1 1.4-.3c.4-.1.7-.4.9-.7c.2-.3.2-.7.2-1c0-.5-.1-.9-.4-1.3c-.3-.3-.8-.7-1.4-1l-1.7-.9c-.7-.4-1.3-.8-1.7-1.3c-.4-.5-.6-1.1-.6-1.9c0-.5.2-1 .4-1.5c.3-.5.7-.8 1.3-1.1c.5-.3 1.2-.4 1.9-.4c.6 0 1.2.1 1.8.4c.6.2 1.1.6 1.5.9v1.8c-.4-.6-.9-1-1.5-1.4c-.6-.3-1.2-.5-1.8-.5c-.6 0-1.1.2-1.5.5c-.4.3-.6.8-.6 1.3c0 .4.2.7.4 1c.3.3.8.6 1.4 1l1.7.9c.8.4 1.4.9 1.8 1.4c.4.6.6 1.2.6 2c0 .7-.2 1.2-.5 1.7c-.3.5-.8.9-1.4 1.2c-.6.3-1.3.4-2.2.4c-.7 0-1.4-.1-2-.4c-.7-.2-1.1-.5-1.5-.9v-1.8zm10.2 2.9l-2.5-8.7h1.4l2 7.2l1.9-7.2h1.8l1.9 7.1l2-7.1h1.3l-2.5 8.7h-1.7l-2-7.2l-1.9 7.2h-1.7zm11.8-10.2h-1.4v-1.7h1.4v1.7zm0 10.2h-1.4v-8.7h1.4v8.7zm4 0l-3.3-8.7h1.5l2.6 7.2l2.7-7.2h1.4l-3.3 8.7h-1.6zm4.9-4.6c0-.8.1-1.6.5-2.2c.3-.7.8-1.2 1.4-1.6c.6-.4 1.2-.6 2-.6c1.2 0 2.1.4 2.8 1.2c.6.8 1 1.9 1 3.3c-.04.02 0 .6 0 .6h-6.3c0 .9.3 1.6.8 2.2c.4.5 1.1.8 1.9.8c1.2 0 2.2-.4 3.1-1.3v1.4c-.4.3-.8.6-1.3.8c-.5.2-1.1.2-1.8.2c-.9 0-1.6-.1-2.2-.5c-.6-.4-1.1-.9-1.4-1.6c-.4-.7-.5-1.4-.5-2.3v-.4zm6.3-.4c-.1-.9-.3-1.7-.7-2.1c-.4-.5-1-.8-1.7-.8c-.4 0-.8.2-1.2.4c-.4.2-.7.6-.9 1c-.2.4-.4.9-.4 1.5h4.9zm3.8 5h-1.4V25.2h1.4v12.3zm3.1-10.2h-1.4v-1.7h1.4v1.7zm0 10.2h-1.4v-8.7h1.4v8.7zm1.7 0v-8.7h1.2s.15 1.73.1 1.7c.4-.5.8-1 1.3-1.4c.6-.4 1.2-.6 1.9-.6c.9 0 1.6.3 2.1.9c.5.5.7 1.3.7 2.4c.03-.04 0 5.7 0 5.7h-1.4v-5.6c0-.8-.1-1.3-.4-1.7c-.2-.3-.7-.5-1.3-.5c-.3 0-.7.1-1.1.3c-.4.3-.8.6-1.1 1c-.3.5-.5.9-.6 1.4c-.03-.05 0 5.1 0 5.1h-1.4zm8.2-4.6c0-.9.2-1.6.5-2.3c.3-.7.7-1.2 1.3-1.5c.6-.4 1.3-.6 2-.6c.6 0 1.1.2 1.6.5c.5.2.9.6 1.2 1.1c-.03 0 .1-1.3.1-1.3h1.3s-.03 8.38 0 8.4c0 .8-.2 1.5-.5 2.1c-.4.6-.9 1.1-1.5 1.4c-.7.3-1.5.5-2.4.5c-.6 0-1.1-.1-1.5-.2c-.5-.1-.9-.3-1.3-.6V39c.8.7 1.8 1 2.8 1c.9 0 1.6-.2 2.2-.7c.5-.5.8-1.2.8-2.1v-1.4c-.4.5-.7.8-1.2 1.1c-.5.3-1 .4-1.6.4c-.7 0-1.4-.2-2-.5c-.6-.4-1-.9-1.3-1.6c-.3-.6-.5-1.4-.5-2.3zm1.5 0c0 .7.1 1.3.3 1.8c.2.4.6.8.9 1.1c.4.2.9.4 1.3.4c.6 0 1.1-.2 1.5-.6c.5-.4.8-.9 1.1-1.4v-2.5c-.3-.6-.6-1.1-1.1-1.5c-.5-.4-1-.6-1.5-.6c-.5 0-.9.2-1.3.4c-.4.3-.7.7-.9 1.2c-.2.5-.3 1-.3 1.7zM99 34.6c.4.6.9 1 1.5 1.4c.6.4 1.3.5 2 .5c.5 0 1-.1 1.4-.3c.4-.1.6-.4.8-.7c.2-.3.3-.7.3-1c0-.5-.1-.9-.4-1.3c-.3-.3-.8-.7-1.4-1l-1.7-.9c-.7-.4-1.3-.8-1.7-1.3c-.4-.5-.6-1.1-.6-1.9c0-.5.1-1 .4-1.5c.3-.5.7-.8 1.3-1.1c.5-.3 1.2-.4 1.9-.4c.6 0 1.2.1 1.8.4c.6.2 1.1.6 1.5.9v1.8c-.4-.6-.9-1-1.5-1.4c-.6-.3-1.2-.5-1.8-.5c-.6 0-1.1.2-1.5.5c-.4.3-.6.8-.6 1.3c0 .4.2.7.4 1c.3.3.7.6 1.4 1l1.6.9c.9.4 1.5.9 1.9 1.4c.4.6.6 1.2.6 2c0 .7-.2 1.2-.5 1.7c-.4.5-.8.9-1.4 1.2c-.6.3-1.4.4-2.2.4c-.8 0-1.4-.1-2.1-.4c-.6-.2-1-.5-1.4-.9v-1.8zm8.2-1.7c0-.8.1-1.6.4-2.2c.4-.7.8-1.2 1.4-1.6c.6-.4 1.3-.6 2.1-.6c1.1 0 2.1.4 2.7 1.2c.7.8 1 1.9 1 3.3c.03.02 0 .6 0 .6h-6.2c0 .9.3 1.6.7 2.2c.5.5 1.1.8 1.9.8c1.3 0 2.3-.4 3.1-1.3v1.4c-.3.3-.8.6-1.3.8c-.5.2-1.1.2-1.8.2c-.8 0-1.5-.1-2.2-.5c-.6-.4-1-.9-1.4-1.6c-.3-.7-.4-1.4-.4-2.3v-.4zm6.2-.4c0-.9-.2-1.7-.6-2.1c-.5-.5-1-.8-1.7-.8c-.5 0-.9.2-1.2.4c-.4.2-.7.6-.9 1c-.3.4-.4.9-.4 1.5h4.8zm1.9 2.7c0-.6.1-1.1.4-1.5c.3-.4.7-.6 1.2-.9c.5-.2 1.2-.3 2-.5l2.2-.4c0-.7-.2-1.3-.6-1.7c-.3-.4-.9-.6-1.7-.6c-.6 0-1.1.2-1.6.4c-.5.3-.9.6-1.2 1v-1.4c.3-.3.7-.5 1.2-.8c.6-.2 1.1-.3 1.7-.3c1.2 0 2 .3 2.7.9c.6.5.9 1.4.9 2.5c.03-.03 0 5.6 0 5.6h-1.1s-.23-1.34-.2-1.3c-.4.5-.9.9-1.5 1.1c-.5.3-1.1.4-1.8.4c-.8 0-1.4-.2-1.9-.6c-.5-.5-.7-1.1-.7-1.9zm1.4-.1c0 .5.1.9.4 1.1c.3.3.7.4 1.1.4c.6 0 1.1-.2 1.6-.5c.6-.4 1-.8 1.3-1.4c.04-.03 0-1.7 0-1.7c0 0-1.42.26-1.4.3c-.8.1-1.4.2-1.8.4c-.4.1-.7.3-.9.5c-.2.3-.3.6-.3.9zm8.2-5.2H123v-1.1h1.9v-2.7h1.4v2.7h2v1.1h-2v7.6h-1.4v-7.6z" stroke="none" fill="#939598"/></g><g id="Polygon2717"><path d="m50.2 13.5v-1s4.15-4.53 4.1-4.5c.6-.6 1-1.1 1.2-1.6c.3-.4.4-.9.4-1.5c0-.7-.2-1.2-.6-1.7c-.5-.4-1-.6-1.7-.6c-.6 0-1.2.1-1.7.5c-.5.3-.9.7-1.2 1.3V2.6c.3-.3.7-.6 1.2-.9c.6-.2 1.2-.4 1.8-.4c.8 0 1.4.2 2 .5c.5.3 1 .7 1.3 1.3c.3.5.4 1.1.4 1.7c0 .6-.1 1.1-.3 1.6c-.2.5-.4.9-.7 1.3c-.3.4-.7.8-1.2 1.4l-3 3.2h5.5v1.2h-7.5zm8.6 0V4.8h1.3s.12 1.73.1 1.7c.3-.5.8-1 1.3-1.4c.5-.4 1.2-.6 1.8-.6c1 0 1.7.3 2.2.9c.5.5.7 1.3.7 2.4v5.7h-1.4s-.02-5.63 0-5.6c0-.8-.2-1.3-.4-1.7c-.3-.3-.7-.5-1.3-.5c-.4 0-.8.1-1.2.3c-.4.3-.7.6-1 1c-.3.5-.5.9-.7 1.4c.03-.05 0 5.1 0 5.1h-1.4zm8.3-4.4c0-.9.1-1.7.5-2.4c.3-.7.8-1.2 1.3-1.6c.6-.4 1.3-.6 2-.6c.6 0 1.1.2 1.6.5c.5.2.9.6 1.2 1.1V1.2h1.4v12.3h-1.3s-.08-1.36-.1-1.4c-.3.5-.7.9-1.2 1.2c-.5.3-1 .4-1.6.4c-.7 0-1.4-.1-2-.5c-.5-.4-1-.9-1.3-1.6c-.4-.7-.5-1.6-.5-2.5zm1.4 0c0 .7.1 1.4.4 1.9c.2.5.5.9.9 1.2c.4.3.8.4 1.3.4c.6 0 1.1-.2 1.6-.6c.4-.4.8-.9 1-1.4V7.7c-.2-.6-.6-1.1-1-1.5c-.5-.4-1-.6-1.6-.6c-.4 0-.9.2-1.3.5c-.4.3-.7.7-.9 1.2c-.2.5-.4 1.1-.4 1.8zm11.9 4.4V1.3s4.39.04 4.4 0c.8 0 1.5.2 2.1.5c.6.3 1.1.7 1.4 1.2c.4.5.5 1.1.5 1.7v.3c0 .9-.3 1.6-.9 2.2c-.6.6-1.4 1-2.5 1.1c.03.02 4.1 5.2 4.1 5.2h-1.9l-4-5.1h-1.7v5.1h-1.5zm4.2-6.3c.9 0 1.5-.2 2-.6c.5-.4.7-1 .7-1.6v-.3c0-.6-.2-1.2-.7-1.6c-.5-.4-1.1-.6-2-.6c.03.04-2.7 0-2.7 0v4.7s2.73-.05 2.7 0zM89.4 9c0-.9.1-1.6.5-2.3c.3-.7.8-1.2 1.4-1.6c.7-.4 1.4-.6 2.2-.6c.8 0 1.5.2 2.1.6c.6.4 1.1.9 1.4 1.6c.4.7.6 1.4.6 2.3v.3c0 .9-.2 1.6-.6 2.3c-.3.7-.8 1.2-1.4 1.6c-.6.4-1.3.5-2.1.5c-.8 0-1.5-.1-2.2-.5c-.6-.4-1.1-.9-1.4-1.6c-.4-.7-.5-1.4-.5-2.3v-.3zm1.4.3c0 1 .3 1.8.7 2.4c.5.6 1.2.9 2 .9c.8 0 1.4-.3 1.9-.9c.5-.6.7-1.4.7-2.4v-.3c0-1-.2-1.8-.7-2.4c-.5-.6-1.1-1-1.9-1c-.8 0-1.5.4-2 1c-.4.6-.7 1.4-.7 2.4v.3zm9.2 4.2l-2.6-8.7h1.5l1.9 7.2l1.9-7.2h1.8l1.9 7.1l2-7.1h1.3l-2.5 8.7h-1.7l-1.9-7.2l-2 7.2H100z" stroke="none" fill="#939598"/></g></svg>