<?xml version="1.0" standalone="no"?><!DOCTYPE svg PUBLIC "-//W3C//DTD SVG 1.1//EN" "http://www.w3.org/Graphics/SVG/1.1/DTD/svg11.dtd"><svg xmlns="http://www.w3.org/2000/svg" version="1.1" width="160px" height="55.8px" viewBox="0 -5 160 55.8" style="top:-5px"><desc>텍스트 B</desc><defs/><g id="Polygon2657"><path d="m39.3 28.8c-1 .1-2.4.2-4.1.2h-4.1v-1.1s4.11-.04 4.1 0c1.8 0 3.2-.1 4.2-.2v-1.4h-7.7v-1.2h9.1s-.01 1.8 0 1.8c0 1.4-.2 2.8-.5 4.1l-1.4-.3c.2-.5.3-1.2.4-1.9zm-2.9 1.3v2h6.7v1.2H29.4v-1.2h5.6v-2h1.4zm4.4 9.1h-9v-4.6h9v4.6zm-1.4-3.4h-6.3v2.3h6.3v-2.3zm14.6 3V24.4h1.4v14.4H54zm-8.2-9.7h3.8v-3.4h1.4v8.9h-6.6v-8.9h1.4v3.4zm0 1.2v3.1h3.8v-3.1h-3.8zm22.8 8.5V24.4h1.4v14.4h-1.4zM62.4 29h3.2v-4.4h1.4v13.7h-1.4v-8.2h-3.2V29zm-2.7 4.2c1.4 0 2.9-.2 4.5-.5l.2 1.2c-2 .3-4.1.5-6.3.5c.01-.03 0-8.8 0-8.8h1.4v7.6h.2zm23.5 5.6h-1.4V24.4h1.4v14.4zM75.7 35c-.8 0-1.5-.2-2.1-.6c-.5-.4-1-.9-1.3-1.6c-.3-.7-.5-1.5-.5-2.4v-.4c0-.9.2-1.7.5-2.4c.3-.7.8-1.2 1.3-1.6c.6-.4 1.3-.6 2.1-.6c.8 0 1.4.2 2 .6c.6.4 1 .9 1.3 1.6c.3.7.5 1.5.5 2.4v.4c0 .9-.2 1.7-.5 2.4c-.3.7-.7 1.2-1.3 1.6c-.6.4-1.2.6-2 .6zm0-1.2c.7 0 1.3-.3 1.8-.9c.4-.6.6-1.4.6-2.5v-.3c0-1.1-.2-2-.6-2.6c-.5-.6-1.1-.9-1.8-.9c-.8 0-1.4.3-1.8.9c-.4.6-.7 1.5-.7 2.6v.3c0 1.1.3 1.9.7 2.5c.4.6 1 .9 1.8.9zm21.4 1.5h-1.4v-5h-3.1v-1.2h3.1v-1.5h-3.1v-1.2h3.1v-2h1.4v10.9zM93 33.2c-1.6-.9-2.8-2-3.5-3.1c-.5.7-1 1.3-1.6 1.9c-.6.6-1.2 1.1-2 1.6l-.7-1.1c1.1-.6 1.9-1.4 2.6-2.2c.6-.8.9-1.6.9-2.4c.03 0 0-2.6 0-2.6h1.4s.04 2.57 0 2.6c0 .7.4 1.4 1 2.2c.6.7 1.5 1.4 2.5 2l-.6 1.1zm-3.2 1v3.8h7.9v1.1h-9.3v-4.9h1.4zm24.1-5.9v-3.9h1.4v9.1h-1.4v-4H112v3.9h-1.3v-8.8h1.3v3.7h1.9zm-4.2 3.8c-1 .1-2 .3-3 .3c-1 .1-2.1.2-3.4.2c.04-.04 0-4.3 0-4.3h3.8v-1.7h-3.8v-1.1h5.2v4h-3.8v1.9h.4c.6 0 1.3 0 2.1-.1l2.3-.3l.2 1.1zm5.6 7.2h-9.4v-5h9.4v5zm-1.4-3.8h-6.6v2.6h6.6v-2.6zm4.3-9.7h10.1v1.1h-10.1v-1.1zm7.9 6.1h2.4v1.2h-10.4v-1.2h2.4l-.3-4.4l1.4-.1l.2 4.5h3l.2-4.5l1.4.1l-.3 4.4zm-9.7 5.7v-1.1h13.8v1.1h-13.8z" stroke="none" fill="#939598"/></g><g id="Polygon2656"><path d="m58.4 13.5h-7.2V1.3h1.5v11h5.7v1.2zm8.2 0h-7.3V1.3h7.2v1.3h-5.7v4h4.9v1.3h-4.9v4.4h5.8v1.2zm1.4 0V1.3s3.72.04 3.7 0c1.2 0 2.2.3 3.1.8c.9.5 1.6 1.2 2.1 2.1c.5.9.7 1.9.7 3v.4c0 1.1-.2 2.1-.7 3c-.5.9-1.2 1.6-2.1 2.1c-.9.5-1.9.8-3.1.8H68zm3.7-1.2c.8 0 1.6-.2 2.2-.6c.7-.4 1.2-1 1.6-1.7c.4-.7.5-1.5.5-2.4v-.4c0-.9-.1-1.7-.5-2.4c-.4-.7-.9-1.3-1.6-1.7c-.6-.3-1.4-.5-2.2-.5c-.01-.04-2.2 0-2.2 0v9.7s2.19-.01 2.2 0zm21.8 2.5h-1.4V.4h1.4v14.4zM82.6 5.6h4.8V3h-4.8V1.8h6.2v5H84v2.9s.39-.04.4 0c.8 0 1.7-.1 2.8-.2c1.1-.1 2.1-.3 3.2-.5l.2 1.1c-1.3.3-2.6.5-3.9.6c-1.2.1-2.6.1-4.1.1c.03.03 0-5.2 0-5.2zm23.5 0V.4h1.4v14.4h-1.4v-8h-2.4V5.6h2.4zm-6.7-4.1c.7 0 1.3.1 1.9.5c.5.4.9.9 1.2 1.6c.3.7.5 1.5.5 2.4v.4c0 .9-.2 1.7-.5 2.4c-.3.7-.7 1.2-1.2 1.6c-.6.4-1.2.6-1.9.6c-.8 0-1.4-.2-1.9-.6c-.6-.4-1-.9-1.3-1.6c-.3-.7-.4-1.5-.4-2.4v-.4c0-.9.1-1.7.4-2.4c.3-.7.7-1.2 1.3-1.6c.5-.4 1.1-.5 1.9-.5zm2.2 4.6c0-1.1-.2-2-.6-2.6c-.4-.6-.9-.9-1.6-.9c-.7 0-1.3.3-1.7.9c-.4.6-.6 1.5-.6 2.6v.3c0 1.1.2 1.9.6 2.5c.4.6 1 .9 1.7.9c.7 0 1.2-.3 1.6-.9c.4-.6.6-1.4.6-2.5v-.3z" stroke="none" fill="#939598"/></g></svg>