<?xml version="1.0" standalone="no"?><!DOCTYPE svg PUBLIC "-//W3C//DTD SVG 1.1//EN" "http://www.w3.org/Graphics/SVG/1.1/DTD/svg11.dtd"><svg xmlns="http://www.w3.org/2000/svg" version="1.1" width="160px" height="55.8px" viewBox="0 -5 160 55.8" style="top:-5px"><desc>텍스트 B</desc><defs/><g id="Polygon2779"><path d="m71 35.3h-1.4v-6.2h-3.2v-1.2h3.2v-3.5h1.4v10.9zM67 33c-1.6-.8-2.8-1.8-3.6-3c-.4.7-.9 1.3-1.5 1.9c-.6.5-1.3 1.1-2 1.5l-.8-1c1.1-.7 2-1.4 2.6-2.2c.7-.8 1-1.6 1-2.4v-2.5h1.4s.01 2.49 0 2.5c0 .7.3 1.4 1 2.2c.6.7 1.5 1.4 2.5 2l-.6 1zm-3.3 1.2v3.8h7.9v1.1h-9.3v-4.9h1.4zm12.9-3.6h8.2v1.1h-9.5v-3.8h7.6v-1.5h-7.6v-1.1h9v3.7h-7.7v1.6zm-3.7 2.6h13.8v1.2h-6.2v4.7h-1.4v-4.7h-6.2v-1.2zm15.7-7.4h10.1v1.1H88.6v-1.1zm7.9 6.1h2.4v1.2H88.5v-1.2h2.4l-.3-4.4l1.4-.1l.2 4.5h3l.2-4.5l1.4.1l-.3 4.4zm-9.7 5.7v-1.1h13.8v1.1H86.8z" stroke="none" fill="#939598"/></g><g id="Polygon2778"><path d="m69.6 5.7h8.2v1.2h-9.6V1.4h9.2v1.1h-7.8v3.2zm-3.7 3h13.8v1.2h-3.8v5.2h-1.4V9.9h-3.4v5.2h-1.4V9.9h-3.8V8.7zm26-.1h-1.4V5.2h-2.4V4h2.4V.4h1.4v8.2zm-4.5-3.8c0 .6-.1 1.1-.4 1.7c-.3.5-.8.9-1.3 1.1c-.5.3-1.1.5-1.8.5c-.6 0-1.2-.2-1.8-.5c-.5-.2-.9-.6-1.2-1.1c-.4-.6-.5-1.1-.5-1.7v-.4c0-.6.1-1.1.5-1.6c.3-.5.7-.9 1.2-1.2c.6-.3 1.2-.4 1.8-.4c.7 0 1.3.1 1.8.4c.5.3 1 .7 1.3 1.2c.3.5.4 1 .4 1.6v.4zm-5.6 0c0 .6.2 1.1.6 1.5c.4.4.9.6 1.5.6c.6 0 1.2-.2 1.6-.6c.4-.4.6-.9.6-1.5v-.3c0-.7-.2-1.2-.6-1.6c-.4-.4-1-.6-1.6-.6c-.6 0-1.1.2-1.5.6c-.4.4-.6.9-.6 1.6v.3zm2.8 8.2v1.3h7.8v1.2h-9.2v-3.7h7.3v-1.2h-7.3V9.4h8.7v3.6h-7.3z" stroke="none" fill="#939598"/></g></svg>