<?xml version="1.0" standalone="no"?><!DOCTYPE svg PUBLIC "-//W3C//DTD SVG 1.1//EN" "http://www.w3.org/Graphics/SVG/1.1/DTD/svg11.dtd"><svg xmlns="http://www.w3.org/2000/svg" version="1.1" width="206px" height="250.8px" viewBox="0 -6 206 250.8" style="top:-6px"><desc>텍스트 B</desc><defs/><g id="Polygon2907"><path d="m2.7 214.3H1.3v-1.7h1.4v1.7zm0 10.2H1.3v-8.7h1.4v8.7zm1.7 0v-8.7h1.3s.08 1.73.1 1.7c.3-.5.7-1 1.3-1.4c.5-.4 1.1-.6 1.8-.6c.9 0 1.6.3 2.1.9c.5.5.8 1.3.8 2.4c-.04-.04 0 5.7 0 5.7h-1.5s.04-5.63 0-5.6c0-.8-.1-1.3-.3-1.7c-.3-.3-.7-.5-1.3-.5c-.4 0-.8.1-1.2.3c-.4.3-.8.6-1.1 1c-.3.5-.5.9-.6 1.4v5.1H4.4zm8.8 0v-8.7h1.3s.14 1.73.1 1.7c.4-.5.8-1 1.3-1.4c.6-.4 1.2-.6 1.9-.6c.9 0 1.6.3 2.1.9c.5.5.7 1.3.7 2.4c.02-.04 0 5.7 0 5.7h-1.4v-5.6c0-.8-.1-1.3-.4-1.7c-.2-.3-.7-.5-1.3-.5c-.4 0-.8.1-1.2.3c-.4.3-.7.6-1 1c-.3.5-.5.9-.6 1.4c-.04-.05 0 5.1 0 5.1h-1.5zm8.3-4.5c0-.9.2-1.6.5-2.3c.4-.7.8-1.2 1.5-1.6c.6-.4 1.3-.6 2.1-.6c.8 0 1.5.2 2.1.6c.6.4 1.1.9 1.5 1.6c.3.7.5 1.4.5 2.3v.3c0 .9-.2 1.6-.5 2.3c-.4.7-.9 1.2-1.5 1.6c-.6.4-1.3.5-2.1.5c-.8 0-1.5-.1-2.1-.5c-.7-.4-1.1-.9-1.5-1.6c-.3-.7-.5-1.4-.5-2.3v-.3zm1.5.3c0 1 .2 1.8.7 2.4c.4.6 1.1.9 1.9.9c.8 0 1.5-.3 1.9-.9c.5-.6.7-1.4.7-2.4v-.3c0-1-.2-1.8-.7-2.4c-.4-.6-1.1-1-1.9-1c-.8 0-1.5.4-1.9 1c-.5.6-.7 1.4-.7 2.4v.3zm9.9 4.2l-3.3-8.7h1.5l2.6 7.2l2.7-7.2h1.4l-3.3 8.7h-1.6zm4.9-2.3c0-.6.2-1.1.5-1.5c.3-.4.6-.6 1.1-.9c.5-.2 1.2-.3 2.1-.5l2.2-.4c0-.7-.2-1.3-.6-1.7c-.4-.4-1-.6-1.7-.6c-.6 0-1.1.2-1.6.4c-.5.3-.9.6-1.3 1v-1.4c.4-.3.8-.5 1.3-.8c.5-.2 1.1-.3 1.7-.3c1.1 0 2 .3 2.6.9c.7.5 1 1.4 1 2.5v5.6H44s-.27-1.34-.3-1.3c-.4.5-.9.9-1.4 1.1c-.6.3-1.2.4-1.8.4c-.8 0-1.5-.2-1.9-.6c-.5-.5-.8-1.1-.8-1.9zm1.4-.1c0 .5.2.9.5 1.1c.2.3.6.4 1.1.4c.5 0 1.1-.2 1.6-.5c.6-.4 1-.8 1.3-1.4V220s-1.46.26-1.5.3c-.8.1-1.4.2-1.8.4c-.4.1-.7.3-.9.5c-.2.3-.3.6-.3.9zm8.3-5.2h-1.9v-1.1h1.9v-2.7h1.4v2.7h1.9v1.1h-1.9v7.6h-1.4v-7.6zm5.3-2.6h-1.4v-1.7h1.4v1.7zm0 10.2h-1.4v-8.7h1.4v8.7zm4 0l-3.3-8.7h1.5l2.6 7.2l2.7-7.2h1.4l-3.3 8.7h-1.6zm4.9-4.6c0-.8.1-1.6.5-2.2c.3-.7.8-1.2 1.4-1.6c.6-.4 1.2-.6 2-.6c1.2 0 2.1.4 2.8 1.2c.6.8 1 1.9 1 3.3c-.04.02 0 .6 0 .6h-6.3c0 .9.3 1.6.8 2.2c.4.5 1.1.8 1.9.8c1.2 0 2.2-.4 3.1-1.3v1.4c-.4.3-.8.6-1.3.8c-.5.2-1.1.2-1.8.2c-.9 0-1.6-.1-2.2-.5c-.6-.4-1.1-.9-1.4-1.6c-.4-.7-.5-1.4-.5-2.3v-.4zm6.3-.4c-.1-.9-.3-1.7-.7-2.1c-.4-.5-1-.8-1.7-.8c-.4 0-.8.2-1.2.4c-.4.2-.7.6-.9 1c-.2.4-.4.9-.4 1.5h4.9zm5.3.5c0-.9.2-1.6.6-2.3c.3-.7.8-1.2 1.5-1.6c.6-.4 1.4-.6 2.2-.6c.5 0 .9.1 1.4.3c.5.2.8.4 1.2.7v1.5c-.4-.4-.8-.8-1.2-1c-.4-.2-.9-.3-1.4-.3c-.5 0-1 .1-1.4.4c-.5.3-.8.6-1 1.1c-.3.5-.4 1.1-.4 1.8v.2c0 .7.1 1.3.4 1.8c.2.5.5.9 1 1.2c.4.3.9.4 1.4.4c1 0 1.8-.4 2.6-1.3v1.5c-.4.3-.8.5-1.2.7c-.5.2-.9.2-1.4.2c-.8 0-1.6-.2-2.2-.5c-.7-.4-1.2-1-1.5-1.6c-.4-.7-.6-1.5-.6-2.3v-.3zm7.4 0c0-.9.1-1.6.5-2.3c.3-.7.8-1.2 1.4-1.6c.7-.4 1.4-.6 2.2-.6c.8 0 1.5.2 2.1.6c.6.4 1.1.9 1.4 1.6c.4.7.5 1.4.5 2.3v.3c0 .9-.1 1.6-.5 2.3c-.3.7-.8 1.2-1.4 1.6c-.6.4-1.3.5-2.1.5c-.8 0-1.5-.1-2.2-.5c-.6-.4-1.1-.9-1.4-1.6c-.4-.7-.5-1.4-.5-2.3v-.3zm1.4.3c0 1 .3 1.8.7 2.4c.5.6 1.1.9 2 .9c.8 0 1.4-.3 1.9-.9c.5-.6.7-1.4.7-2.4v-.3c0-1-.2-1.8-.7-2.4c-.5-.6-1.1-1-1.9-1c-.9 0-1.5.4-2 1c-.4.6-.7 1.4-.7 2.4v.3zm7.8 4.2v-8.7h1.3s.06 1.55.1 1.6c.3-.6.7-1 1.2-1.4c.4-.3 1-.5 1.6-.5c.6 0 1.2.2 1.6.5c.4.4.7.8.9 1.4c.3-.5.7-1 1.2-1.4c.5-.3 1.1-.5 1.7-.5c.8 0 1.5.3 1.9.8c.5.5.7 1.3.7 2.3c.04-.03 0 5.9 0 5.9h-1.4s.04-5.82 0-5.8c0-.7-.1-1.2-.3-1.6c-.2-.3-.6-.5-1.1-.5c-.4 0-.7.2-1.1.4c-.3.2-.6.5-.9.8c-.3.4-.5.8-.6 1.2c.02-.02 0 5.5 0 5.5h-1.4v-5.9c0-.6-.1-1.1-.3-1.5c-.3-.3-.6-.5-1.2-.5c-.3 0-.6.2-1 .4c-.3.2-.6.5-.9.8c-.3.4-.5.8-.6 1.2v5.5h-1.4zm13.7 0v-12.3h1.5s-.04 4.86 0 4.9c.3-.5.7-.9 1.2-1.1c.5-.3 1-.5 1.6-.5c.7 0 1.3.2 1.9.6c.6.4 1.1.9 1.4 1.6c.3.7.5 1.5.5 2.4c0 .9-.2 1.8-.5 2.5c-.3.7-.8 1.2-1.4 1.6c-.6.4-1.2.5-1.9.5c-.6 0-1.2-.1-1.7-.4c-.4-.3-.9-.7-1.2-1.2c.04.04-.1 1.4-.1 1.4h-1.3zm1.5-2.9c.2.5.5 1 1 1.4c.5.4 1 .6 1.5.6c.5 0 1-.1 1.4-.4c.4-.3.7-.7.9-1.2c.2-.5.3-1.2.3-1.9c0-.7-.1-1.3-.3-1.8c-.3-.5-.6-.9-1-1.2c-.4-.3-.8-.5-1.3-.5c-.5 0-1 .2-1.5.6c-.5.4-.8.9-1 1.5v2.9zm9-7.3h-1.4v-1.7h1.4v1.7zm0 10.2h-1.4v-8.7h1.4v8.7zm1.7 0v-8.7h1.3l.1 1.7c.3-.5.7-1 1.3-1.4c.5-.4 1.1-.6 1.8-.6c.9 0 1.6.3 2.1.9c.5.5.8 1.3.8 2.4c-.02-.04 0 5.7 0 5.7h-1.4s-.04-5.63 0-5.6c0-.8-.2-1.3-.4-1.7c-.3-.3-.7-.5-1.3-.5c-.4 0-.8.1-1.2.3c-.4.3-.7.6-1.1 1c-.3.5-.5.9-.6 1.4v5.1h-1.4zm8.2-2.3c0-.6.2-1.1.5-1.5c.3-.4.7-.6 1.2-.9c.5-.2 1.2-.3 2-.5l2.2-.4c0-.7-.2-1.3-.6-1.7c-.4-.4-.9-.6-1.7-.6c-.6 0-1.1.2-1.6.4c-.5.3-.9.6-1.2 1v-1.4c.3-.3.7-.5 1.2-.8c.5-.2 1.1-.3 1.7-.3c1.1 0 2 .3 2.7.9c.6.5.9 1.4.9 2.5v5.6h-1.1s-.25-1.34-.2-1.3c-.5.5-.9.9-1.5 1.1c-.5.3-1.1.4-1.8.4c-.8 0-1.4-.2-1.9-.6c-.5-.5-.8-1.1-.8-1.9zm1.5-.1c0 .5.1.9.4 1.1c.3.3.6.4 1.1.4c.5 0 1.1-.2 1.6-.5c.6-.4 1-.8 1.3-1.4c.02-.03 0-1.7 0-1.7c0 0-1.44.26-1.4.3c-.8.1-1.4.2-1.8.4c-.5.1-.7.3-.9.5c-.2.3-.3.6-.3.9zm8.2-5.2h-1.9v-1.1h1.9v-2.7h1.4v2.7h2v1.1h-2v7.6h-1.4v-7.6zm5.4-2.6h-1.5v-1.7h1.5v1.7zm0 10.2h-1.5v-8.7h1.5v8.7zm1-4.5c0-.9.2-1.6.5-2.3c.4-.7.8-1.2 1.5-1.6c.6-.4 1.3-.6 2.1-.6c.8 0 1.5.2 2.1.6c.6.4 1.1.9 1.5 1.6c.3.7.5 1.4.5 2.3v.3c0 .9-.2 1.6-.5 2.3c-.4.7-.9 1.2-1.5 1.6c-.6.4-1.3.5-2.1.5c-.8 0-1.5-.1-2.1-.5c-.7-.4-1.1-.9-1.5-1.6c-.3-.7-.5-1.4-.5-2.3v-.3zm1.5.3c0 1 .2 1.8.7 2.4c.4.6 1.1.9 1.9.9c.8 0 1.5-.3 1.9-.9c.5-.6.7-1.4.7-2.4v-.3c0-1-.2-1.8-.7-2.4c-.4-.6-1.1-1-1.9-1c-.8 0-1.5.4-1.9 1c-.5.6-.7 1.4-.7 2.4v.3zm7.7 4.2v-8.7h1.3s.13 1.73.1 1.7c.4-.5.8-1 1.3-1.4c.6-.4 1.2-.6 1.9-.6c.9 0 1.6.3 2.1.9c.5.5.7 1.3.7 2.4c.02-.04 0 5.7 0 5.7h-1.4v-5.6c0-.8-.1-1.3-.4-1.7c-.2-.3-.7-.5-1.3-.5c-.4 0-.8.1-1.2.3c-.4.3-.7.6-1 1c-.3.5-.5.9-.6 1.4c-.05-.05 0 5.1 0 5.1h-1.5zm10.5 0h-1.9v-2.1h1.9v2.1z" stroke="none" fill="#fff"/></g><g id="Polygon2906"><path d="m.7 192.1c0-.9.2-1.7.5-2.4c.3-.7.8-1.2 1.4-1.6c.5-.4 1.2-.6 1.9-.6c.6 0 1.1.2 1.6.5c.5.2.9.6 1.2 1.1c.03-.04 0-4.9 0-4.9h1.4v12.3H7.5s-.16-1.36-.2-1.4c-.3.5-.7.9-1.2 1.2c-.5.3-1 .4-1.6.4c-.7 0-1.4-.1-1.9-.5c-.6-.4-1.1-.9-1.4-1.6c-.3-.7-.5-1.6-.5-2.5zm1.5 0c0 .7.1 1.4.3 1.9c.2.5.5.9.9 1.2c.4.3.9.4 1.4.4c.5 0 1-.2 1.5-.6c.5-.4.8-.9 1-1.4v-2.9c-.2-.6-.5-1.1-1-1.5c-.5-.4-1-.6-1.5-.6c-.5 0-1 .2-1.4.5c-.4.3-.7.7-.9 1.2c-.2.5-.3 1.1-.3 1.8zm9.6-5.8h-1.4v-1.7h1.4v1.7zm0 10.2h-1.4v-8.7h1.4v8.7zm1-4.6c0-.9.2-1.6.5-2.3c.3-.7.8-1.2 1.4-1.5c.5-.4 1.2-.6 2-.6c.5 0 1 .2 1.5.5c.5.2.9.6 1.2 1.1c.02 0 .1-1.3.1-1.3h1.3s.02 8.38 0 8.4c0 .8-.2 1.5-.5 2.1c-.3.6-.8 1.1-1.5 1.4c-.6.3-1.4.5-2.3.5c-.6 0-1.1-.1-1.6-.2c-.4-.1-.9-.3-1.2-.6V198c.8.7 1.7 1 2.8 1c.9 0 1.6-.2 2.1-.7c.5-.5.8-1.2.8-2.1v-1.4c-.3.5-.7.8-1.2 1.1c-.5.3-1 .4-1.5.4c-.8 0-1.5-.2-2-.5c-.6-.4-1.1-.9-1.4-1.6c-.3-.6-.5-1.4-.5-2.3zm1.5 0c0 .7.1 1.3.4 1.8c.2.4.5.8.9 1.1c.4.2.8.4 1.3.4c.5 0 1-.2 1.5-.6c.4-.4.8-.9 1-1.4v-2.5c-.2-.6-.6-1.1-1-1.5c-.5-.4-1-.6-1.5-.6c-.5 0-.9.2-1.3.4c-.4.3-.7.7-.9 1.2c-.3.5-.4 1-.4 1.7zm9.6-5.6h-1.4v-1.7h1.4v1.7zm0 10.2h-1.4v-8.7h1.4v8.7zm2.5-7.6h-1.9v-1.1h1.9v-2.7h1.4v2.7h1.9v1.1h-1.9v7.6h-1.4v-7.6zm3.3 5.3c0-.6.2-1.1.5-1.5c.2-.4.6-.6 1.1-.9c.5-.2 1.2-.3 2.1-.5l2.2-.4c-.1-.7-.3-1.3-.6-1.7c-.4-.4-1-.6-1.8-.6c-.5 0-1 .2-1.5.4c-.5.3-.9.6-1.3 1v-1.4c.3-.3.8-.5 1.3-.8c.5-.2 1.1-.3 1.7-.3c1.1 0 2 .3 2.6.9c.7.5 1 1.4 1 2.5c-.02-.03 0 5.6 0 5.6h-1.1s-.28-1.34-.3-1.3c-.4.5-.9.9-1.4 1.1c-.6.3-1.2.4-1.8.4c-.8 0-1.5-.2-2-.6c-.4-.5-.7-1.1-.7-1.9zm1.4-.1c0 .5.2.9.5 1.1c.2.3.6.4 1.1.4c.5 0 1-.2 1.6-.5c.5-.4 1-.8 1.3-1.4c-.02-.03 0-1.7 0-1.7c0 0-1.47.26-1.5.3c-.8.1-1.4.2-1.8.4c-.4.1-.7.3-.9.5c-.2.3-.3.6-.3.9zm8.8 2.4h-1.4v-12.3h1.4v12.3zm4.1-7.6v-1.1h1.8s-.01-.9 0-.9c0-.5.1-1 .3-1.5c.2-.4.5-.8.9-1.1c.4-.2.9-.4 1.5-.4c.4 0 .8.1 1.1.3v1.2c-.2-.2-.6-.3-1-.3c-.4 0-.8.1-1 .5c-.3.3-.4.7-.4 1.3c.02.02 0 .9 0 .9h2.1v1.1h-2.1v7.6h-1.4v-7.6H44zm6 4.6c0 1.1.3 1.9.8 2.4c.5.6 1.2.8 2.1.8c.7 0 1.3-.2 1.8-.5c.5-.4 1-.9 1.3-1.5l.1 1.8h1.3v-8.7H56s-.02 5.12 0 5.1c-.1.5-.3.9-.6 1.3c-.3.5-.7.8-1.1 1c-.4.3-.8.4-1.2.4c-.6 0-1-.2-1.3-.6c-.2-.3-.4-.9-.4-1.6c.04 0 0-5.6 0-5.6H50s.03 5.71 0 5.7zm9.1 3v-8.7h1.2s.15 1.73.1 1.7c.4-.5.8-1 1.3-1.4c.6-.4 1.2-.6 1.9-.6c.9 0 1.6.3 2.1.9c.5.5.7 1.3.7 2.4c.03-.04 0 5.7 0 5.7H65v-5.6c0-.8-.1-1.3-.4-1.7c-.2-.3-.7-.5-1.3-.5c-.4 0-.7.1-1.1.3c-.4.3-.8.6-1.1 1c-.3.5-.5.9-.6 1.4c-.04-.05 0 5.1 0 5.1h-1.4zm8.2-4.5c0-.9.2-1.6.5-2.3c.4-.7.9-1.2 1.6-1.6c.6-.4 1.4-.6 2.2-.6c.5 0 .9.1 1.4.3c.4.2.8.4 1.1.7v1.5c-.3-.4-.7-.8-1.1-1c-.5-.2-.9-.3-1.4-.3c-.6 0-1 .1-1.5.4c-.4.3-.7.6-1 1.1c-.2.5-.3 1.1-.3 1.8v.2c0 .7.1 1.3.3 1.8c.3.5.6.9 1.1 1.2c.4.3.9.4 1.4.4c1 0 1.8-.4 2.5-1.3v1.5c-.3.3-.7.5-1.1.7c-.5.2-1 .2-1.4.2c-.9 0-1.6-.2-2.2-.5c-.7-.4-1.2-1-1.6-1.6c-.3-.7-.5-1.5-.5-2.3v-.3zm9.1-3.1h-1.9v-1.1h1.9v-2.7h1.4v2.7h1.9v1.1h-1.9v7.6h-1.4v-7.6zm5.3-2.6h-1.4v-1.7h1.4v1.7zm0 10.2h-1.4v-8.7h1.4v8.7zm1.1-4.5c0-.9.1-1.6.5-2.3c.3-.7.8-1.2 1.4-1.6c.7-.4 1.4-.6 2.2-.6c.8 0 1.5.2 2.1.6c.6.4 1.1.9 1.4 1.6c.4.7.6 1.4.6 2.3v.3c0 .9-.2 1.6-.6 2.3c-.3.7-.8 1.2-1.4 1.6c-.6.4-1.3.5-2.1.5c-.8 0-1.5-.1-2.2-.5c-.6-.4-1.1-.9-1.4-1.6c-.4-.7-.5-1.4-.5-2.3v-.3zm1.4.3c0 1 .3 1.8.7 2.4c.5.6 1.2.9 2 .9c.8 0 1.4-.3 1.9-.9c.5-.6.7-1.4.7-2.4v-.3c0-1-.2-1.8-.7-2.4c-.5-.6-1.1-1-1.9-1c-.8 0-1.5.4-2 1c-.4.6-.7 1.4-.7 2.4v.3zm7.8 4.2v-8.7h1.3l.1 1.7c.3-.5.8-1 1.3-1.4c.5-.4 1.1-.6 1.8-.6c.9 0 1.7.3 2.1.9c.5.5.8 1.3.8 2.4v5.7H98s-.03-5.63 0-5.6c0-.8-.2-1.3-.4-1.7c-.3-.3-.7-.5-1.3-.5c-.4 0-.8.1-1.2.3c-.4.3-.7.6-1 1c-.3.5-.6.9-.7 1.4c.02-.05 0 5.1 0 5.1H92zm8.3-2.3c0-.6.1-1.1.4-1.5c.3-.4.7-.6 1.2-.9c.5-.2 1.2-.3 2-.5l2.2-.4c0-.7-.2-1.3-.6-1.7c-.4-.4-.9-.6-1.7-.6c-.6 0-1.1.2-1.6.4c-.5.3-.9.6-1.2 1v-1.4c.3-.3.7-.5 1.2-.8c.5-.2 1.1-.3 1.7-.3c1.1 0 2 .3 2.7.9c.6.5.9 1.4.9 2.5c.02-.03 0 5.6 0 5.6h-1.1s-.24-1.34-.2-1.3c-.4.5-.9.9-1.5 1.1c-.5.3-1.1.4-1.8.4c-.8 0-1.4-.2-1.9-.6c-.5-.5-.7-1.1-.7-1.9zm1.4-.1c0 .5.1.9.4 1.1c.3.3.6.4 1.1.4c.5 0 1.1-.2 1.6-.5c.6-.4 1-.8 1.3-1.4c.03-.03 0-1.7 0-1.7c0 0-1.43.26-1.4.3c-.8.1-1.4.2-1.8.4c-.4.1-.7.3-.9.5c-.2.3-.3.6-.3.9zm8.8 2.4h-1.4v-12.3h1.4v12.3zm3.1-10.2h-1.5v-1.7h1.5v1.7zm0 10.2h-1.5v-8.7h1.5v8.7zm2.5-7.6h-2v-1.1h2v-2.7h1.4v2.7h1.9v1.1h-1.9v7.6h-1.4v-7.6zm6.7 7.6l-3.5-8.7h1.5l2.7 7l2.7-7h1.4l-4.8 12.2h-1.5l1.5-3.5zm10.5 0l-2.5-8.7h1.4l2 7.2l1.9-7.2h1.8l1.9 7.1l2-7.1h1.3l-2.5 8.7h-1.7l-2-7.2l-1.9 7.2h-1.7zm11.8-10.2h-1.4v-1.7h1.4v1.7zm0 10.2h-1.4v-8.7h1.4v8.7zm2.5-7.6h-1.9v-1.1h1.9v-2.7h1.4v2.7h2v1.1h-2v7.6h-1.4v-7.6zm4 7.6v-12.3h1.4s-.03 5.3 0 5.3c.3-.5.7-1 1.3-1.4c.5-.4 1.1-.6 1.8-.6c.9 0 1.6.3 2.1.9c.5.5.7 1.3.7 2.4c.03-.04 0 5.7 0 5.7h-1.4s.02-5.63 0-5.6c0-.8-.1-1.3-.4-1.7c-.2-.3-.6-.5-1.2-.5c-.4 0-.8.1-1.2.3c-.4.3-.8.6-1.1 1c-.3.4-.5.8-.6 1.3c-.03 0 0 5.2 0 5.2h-1.4zm13.2-7.6h-1.9v-1.1h1.9v-2.7h1.4v2.7h1.9v1.1h-1.9v7.6h-1.4v-7.6zm3.9 7.6v-12.3h1.4s.04 5.3 0 5.3c.4-.5.8-1 1.3-1.4c.6-.4 1.2-.6 1.8-.6c1 0 1.7.3 2.2.9c.4.5.7 1.3.7 2.4v5.7h-1.4v-5.6c0-.8-.1-1.3-.4-1.7c-.3-.3-.7-.5-1.3-.5c-.4 0-.8.1-1.2.3c-.4.3-.7.6-1 1c-.3.4-.5.8-.7 1.3c.04 0 0 5.2 0 5.2h-1.4zm8.3-4.6c0-.8.1-1.6.5-2.2c.3-.7.7-1.2 1.3-1.6c.6-.4 1.3-.6 2.1-.6c1.2 0 2.1.4 2.7 1.2c.7.8 1 1.9 1 3.3c.04.02 0 .6 0 .6h-6.2c0 .9.3 1.6.7 2.2c.5.5 1.2.8 2 .8c1.2 0 2.2-.4 3-1.3v1.4c-.3.3-.8.6-1.3.8c-.5.2-1.1.2-1.7.2c-.9 0-1.6-.1-2.2-.5c-.7-.4-1.1-.9-1.5-1.6c-.3-.7-.4-1.4-.4-2.3v-.4zm6.2-.4c0-.9-.2-1.7-.6-2.1c-.5-.5-1-.8-1.7-.8c-.5 0-.9.2-1.2.4c-.4.2-.7.6-.9 1c-.3.4-.4.9-.4 1.5h4.8z" stroke="none" fill="#fff"/></g><g id="Polygon2905"><path d="m.2 160.9v-1.1h1.8s-.02-.9 0-.9c0-.5.1-1 .3-1.5c.2-.4.5-.8.9-1.1c.4-.2.9-.4 1.5-.4c.4 0 .8.1 1.1.3v1.2c-.2-.2-.6-.3-1-.3c-.4 0-.8.1-1 .5c-.3.3-.4.7-.4 1.3c.01.02 0 .9 0 .9h2.1v1.1H3.4v7.6H2v-7.6H.2zm6 4.6c0 1.1.3 1.9.8 2.4c.5.6 1.2.8 2.1.8c.7 0 1.3-.2 1.8-.5c.5-.4 1-.9 1.3-1.5c-.01.04.1 1.8.1 1.8h1.3v-8.7h-1.4s-.02 5.12 0 5.1c-.1.5-.3.9-.6 1.3c-.3.5-.7.8-1.1 1c-.4.3-.8.4-1.2.4c-.6 0-1-.2-1.3-.6c-.2-.3-.4-.9-.4-1.6c.03 0 0-5.6 0-5.6H6.2s.02 5.71 0 5.7zm10.5 3h-1.5v-12.3h1.5v12.3zm3 0h-1.4v-12.3h1.4v12.3zm1.1-4.6c0-.8.1-1.6.4-2.2c.4-.7.8-1.2 1.4-1.6c.6-.4 1.3-.6 2.1-.6c1.1 0 2.1.4 2.7 1.2c.7.8 1 1.9 1 3.3c.03.02 0 .6 0 .6h-6.2c0 .9.3 1.6.7 2.2c.5.5 1.1.8 1.9.8c1.3 0 2.3-.4 3.1-1.3v1.4c-.3.3-.8.6-1.3.8c-.5.2-1.1.2-1.8.2c-.8 0-1.5-.1-2.2-.5c-.6-.4-1-.9-1.4-1.6c-.3-.7-.4-1.4-.4-2.3v-.4zm6.2-.4c0-.9-.2-1.7-.6-2.1c-.5-.5-1-.8-1.7-.8c-.5 0-.9.2-1.2.4c-.4.2-.7.6-.9 1c-.3.4-.4.9-.4 1.5h4.8zm2.1 2.8c.8.9 1.7 1.3 2.8 1.3c.6 0 1.1-.1 1.4-.4c.3-.2.5-.5.5-.9c0-.3-.1-.6-.3-.8c-.1-.2-.5-.4-1-.6l-1.2-.5c-.7-.3-1.2-.7-1.6-1.1c-.3-.4-.5-.8-.5-1.4c0-.4.1-.8.4-1.2c.2-.4.5-.6 1-.9c.4-.2.9-.3 1.6-.3c.5 0 1 .1 1.5.3c.4.2.8.4 1.1.7v1.5c-.3-.4-.8-.8-1.2-1c-.5-.2-1-.3-1.4-.3c-.5 0-.9.1-1.2.3c-.3.2-.4.5-.4.8c0 .3.1.5.3.7c.2.2.6.4 1.1.6l1.1.5c.7.3 1.3.6 1.6 1c.3.5.5 1 .5 1.6c0 .8-.3 1.4-.9 1.8c-.6.5-1.4.7-2.4.7c-.6 0-1.1 0-1.6-.2c-.5-.2-.9-.4-1.2-.7v-1.5zm8-5.4h-1.9v-1.1h1.9v-2.7h1.4v2.7h1.9v1.1h-1.9v7.6h-1.4v-7.6zm5.5 7.6h-1.8v-2.1h1.8v2.1zm4.9-12.2h1.5s-.02 7.71 0 7.7c0 1.1.3 2 .8 2.6c.6.6 1.4.9 2.5.9c1 0 1.8-.3 2.3-.9c.6-.6.9-1.5.9-2.6c-.03.01 0-7.7 0-7.7h1.4s-.04 7.77 0 7.8c0 .9-.2 1.7-.6 2.4c-.4.7-.9 1.2-1.6 1.6c-.7.4-1.6.6-2.5.6c-1 0-1.8-.2-2.5-.6c-.8-.4-1.3-.9-1.7-1.6c-.3-.7-.5-1.5-.5-2.4v-7.8zm11 12.2v-8.7h1.3s.14 1.73.1 1.7c.4-.5.8-1 1.3-1.4c.6-.4 1.2-.6 1.9-.6c.9 0 1.6.3 2.1.9c.5.5.7 1.3.7 2.4c.02-.04 0 5.7 0 5.7h-1.4v-5.6c0-.8-.1-1.3-.4-1.7c-.2-.3-.7-.5-1.3-.5c-.4 0-.8.1-1.2.3c-.4.3-.7.6-1 1c-.3.5-.5.9-.6 1.4c-.05-.05 0 5.1 0 5.1h-1.5zm10.3 0h-1.4v-12.3h1.4v12.3zm1.1-4.5c0-.9.1-1.6.5-2.3c.3-.7.8-1.2 1.4-1.6c.7-.4 1.4-.6 2.2-.6c.8 0 1.5.2 2.1.6c.6.4 1.1.9 1.4 1.6c.4.7.5 1.4.5 2.3v.3c0 .9-.1 1.6-.5 2.3c-.3.7-.8 1.2-1.4 1.6c-.6.4-1.3.5-2.1.5c-.8 0-1.5-.1-2.2-.5c-.6-.4-1.1-.9-1.4-1.6c-.4-.7-.5-1.4-.5-2.3v-.3zm1.4.3c0 1 .3 1.8.7 2.4c.5.6 1.1.9 2 .9c.8 0 1.4-.3 1.9-.9c.5-.6.7-1.4.7-2.4v-.3c0-1-.2-1.8-.7-2.4c-.5-.6-1.1-1-1.9-1c-.9 0-1.5.4-2 1c-.4.6-.7 1.4-.7 2.4v.3zm7.3-.3c0-.9.2-1.6.6-2.3c.3-.7.9-1.2 1.5-1.6c.7-.4 1.4-.6 2.2-.6c.5 0 1 .1 1.4.3c.5.2.9.4 1.2.7v1.5c-.4-.4-.7-.8-1.2-1c-.4-.2-.9-.3-1.4-.3c-.5 0-1 .1-1.4.4c-.4.3-.8.6-1 1.1c-.3.5-.4 1.1-.4 1.8v.2c0 .7.1 1.3.4 1.8c.2.5.6.9 1 1.2c.4.3.9.4 1.4.4c1 0 1.9-.4 2.6-1.3v1.5c-.3.3-.7.5-1.2.7c-.4.2-.9.2-1.4.2c-.8 0-1.5-.2-2.2-.5c-.6-.4-1.2-1-1.5-1.6c-.4-.7-.6-1.5-.6-2.3v-.3zm9.4 4.5h-1.4v-12.3h1.4v7.5l4-3.9h1.8l-4.4 4.2l4.8 4.5h-2l-4.2-4v4zm11.1-7.6h-1.9v-1.1h1.9v-2.7h1.4v2.7h1.9v1.1h-1.9v7.6h-1.4v-7.6zm3.9 7.6v-12.3h1.4v5.3c.3-.5.8-1 1.3-1.4c.5-.4 1.1-.6 1.8-.6c.9 0 1.6.3 2.1.9c.5.5.8 1.3.8 2.4c-.03-.04 0 5.7 0 5.7H109s-.04-5.63 0-5.6c0-.8-.2-1.3-.4-1.7c-.3-.3-.7-.5-1.3-.5c-.4 0-.8.1-1.2.3c-.4.3-.7.6-1.1 1c-.3.4-.5.8-.6 1.3v5.2H103zm8.2-4.6c0-.8.2-1.6.5-2.2c.4-.7.8-1.2 1.4-1.6c.6-.4 1.3-.6 2.1-.6c1.1 0 2 .4 2.7 1.2c.7.8 1 1.9 1 3.3v.6h-6.3c.1.9.4 1.6.8 2.2c.5.5 1.1.8 1.9.8c1.3 0 2.3-.4 3.1-1.3v1.4c-.4.3-.8.6-1.3.8c-.5.2-1.1.2-1.8.2c-.8 0-1.6-.1-2.2-.5c-.6-.4-1.1-.9-1.4-1.6c-.3-.7-.5-1.4-.5-2.3v-.4zm6.3-.4c0-.9-.2-1.7-.7-2.1c-.4-.5-.9-.8-1.6-.8c-.5 0-.9.2-1.3.4c-.3.2-.6.6-.9 1c-.2.4-.3.9-.3 1.5h4.8zm6 8.5v-12.2h1.3s.08 1.38.1 1.4c.3-.5.7-.9 1.2-1.2c.5-.3 1-.5 1.6-.5c.7 0 1.4.2 2 .6c.6.4 1 .9 1.3 1.6c.4.7.5 1.5.5 2.4c0 .9-.1 1.8-.5 2.5c-.3.7-.7 1.2-1.3 1.6c-.6.4-1.3.5-2 .5c-.6 0-1.1-.1-1.6-.4c-.5-.3-.9-.6-1.2-1.1v4.8h-1.4zm1.4-6.5c.2.6.6 1.1 1 1.5c.5.4 1 .6 1.6.6c.5 0 .9-.1 1.3-.4c.4-.3.7-.7.9-1.2c.3-.6.4-1.2.4-1.9c0-.7-.1-1.3-.4-1.8c-.2-.5-.5-.9-.9-1.2c-.4-.3-.8-.5-1.3-.5c-.6 0-1.1.2-1.6.6c-.4.4-.8.9-1 1.5v2.8zm7.2-1.5c0-.9.2-1.6.5-2.3c.4-.7.9-1.2 1.5-1.6c.6-.4 1.3-.6 2.1-.6c.8 0 1.5.2 2.2.6c.6.4 1.1.9 1.4 1.6c.3.7.5 1.4.5 2.3v.3c0 .9-.2 1.6-.5 2.3c-.3.7-.8 1.2-1.4 1.6c-.7.4-1.4.5-2.2.5c-.8 0-1.5-.1-2.1-.5c-.6-.4-1.1-.9-1.5-1.6c-.3-.7-.5-1.4-.5-2.3v-.3zm1.5.3c0 1 .2 1.8.7 2.4c.5.6 1.1.9 1.9.9c.8 0 1.5-.3 2-.9c.4-.6.7-1.4.7-2.4v-.3c0-1-.3-1.8-.7-2.4c-.5-.6-1.2-1-2-1c-.8 0-1.4.4-1.9 1c-.5.6-.7 1.4-.7 2.4v.3zm8.5-3.4h-1.9v-1.1h1.9v-2.7h1.5v2.7h1.9v1.1h-1.9v7.6h-1.5v-7.6zm3.3 3c0-.8.2-1.6.5-2.2c.4-.7.8-1.2 1.4-1.6c.6-.4 1.3-.6 2.1-.6c1.1 0 2.1.4 2.7 1.2c.7.8 1 1.9 1 3.3c.02.02 0 .6 0 .6h-6.3c.1.9.4 1.6.8 2.2c.5.5 1.1.8 1.9.8c1.3 0 2.3-.4 3.1-1.3v1.4c-.4.3-.8.6-1.3.8c-.5.2-1.1.2-1.8.2c-.8 0-1.6-.1-2.2-.5c-.6-.4-1-.9-1.4-1.6c-.3-.7-.5-1.4-.5-2.3v-.4zm6.3-.4c0-.9-.2-1.7-.6-2.1c-.5-.5-1-.8-1.7-.8c-.5 0-.9.2-1.2.4c-.4.2-.7.6-.9 1c-.3.4-.4.9-.4 1.5h4.8zm2.5 5v-8.7h1.3s.07 1.73.1 1.7c.3-.5.7-1 1.3-1.4c.5-.4 1.1-.6 1.8-.6c.9 0 1.6.3 2.1.9c.5.5.8 1.3.8 2.4c-.05-.04 0 5.7 0 5.7h-1.5s.03-5.63 0-5.6c0-.8-.1-1.3-.4-1.7c-.2-.3-.6-.5-1.2-.5c-.4 0-.8.1-1.2.3c-.4.3-.8.6-1.1 1c-.3.5-.5.9-.6 1.4c-.02-.05 0 5.1 0 5.1h-1.4zm9.7-7.6H162v-1.1h1.9v-2.7h1.4v2.7h1.9v1.1h-1.9v7.6h-1.4v-7.6zm5.3-2.6h-1.4v-1.7h1.4v1.7zm0 10.2h-1.4v-8.7h1.4v8.7zm1.1-2.3c0-.6.1-1.1.5-1.5c.2-.4.6-.6 1.1-.9c.5-.2 1.2-.3 2.1-.5l2.1-.4c0-.7-.2-1.3-.6-1.7c-.3-.4-.9-.6-1.7-.6c-.5 0-1.1.2-1.6.4c-.5.3-.9.6-1.2 1v-1.4c.3-.3.7-.5 1.2-.8c.6-.2 1.1-.3 1.8-.3c1.1 0 1.9.3 2.6.9c.6.5.9 1.4.9 2.5c.03-.03 0 5.6 0 5.6h-1.1s-.23-1.34-.2-1.3c-.4.5-.9.9-1.5 1.1c-.5.3-1.1.4-1.8.4c-.8 0-1.4-.2-1.9-.6c-.5-.5-.7-1.1-.7-1.9zm1.4-.1c0 .5.1.9.4 1.1c.3.3.7.4 1.1.4c.6 0 1.1-.2 1.7-.5c.5-.4.9-.8 1.2-1.4c.04-.03 0-1.7 0-1.7c0 0-1.41.26-1.4.3c-.8.1-1.4.2-1.8.4c-.4.1-.7.3-.9.5c-.2.3-.3.6-.3.9zm8.8 2.4h-1.4v-12.3h1.4v12.3zm4.6-4.5c0-.9.1-1.6.5-2.3c.3-.7.8-1.2 1.4-1.6c.7-.4 1.4-.6 2.2-.6c.8 0 1.5.2 2.1.6c.6.4 1.1.9 1.4 1.6c.4.7.5 1.4.5 2.3v.3c0 .9-.1 1.6-.5 2.3c-.3.7-.8 1.2-1.4 1.6c-.6.4-1.3.5-2.1.5c-.8 0-1.5-.1-2.2-.5c-.6-.4-1.1-.9-1.4-1.6c-.4-.7-.5-1.4-.5-2.3v-.3zm1.4.3c0 1 .3 1.8.7 2.4c.5.6 1.1.9 2 .9c.8 0 1.4-.3 1.9-.9c.5-.6.7-1.4.7-2.4v-.3c0-1-.2-1.8-.7-2.4c-.5-.6-1.1-1-1.9-1c-.9 0-1.5.4-2 1c-.4.6-.7 1.4-.7 2.4v.3zm6.7-3.4v-1.1h1.8s-.03-.9 0-.9c0-.5.1-1 .3-1.5c.2-.4.5-.8.9-1.1c.4-.2.9-.4 1.5-.4c.4 0 .8.1 1.1.3v1.2c-.3-.2-.6-.3-1-.3c-.4 0-.8.1-1 .5c-.3.3-.4.7-.4 1.3v.9h2.1v1.1h-2.1v7.6H195v-7.6h-1.8z" stroke="none" fill="#fff"/></g><g id="Polygon2904"><path d="m.7 135.9c0-.8.1-1.6.5-2.2c.3-.7.8-1.2 1.4-1.6c.5-.4 1.2-.6 2-.6c1.2 0 2.1.4 2.8 1.2c.6.8 1 1.9 1 3.3c-.05.02 0 .6 0 .6H2.1c0 .9.3 1.6.8 2.2c.4.5 1.1.8 1.9.8c1.2 0 2.2-.4 3.1-1.3v1.4c-.4.3-.9.6-1.3.8c-.5.2-1.1.2-1.8.2c-.9 0-1.6-.1-2.2-.5c-.6-.4-1.1-.9-1.4-1.6c-.4-.7-.5-1.4-.5-2.3v-.4zm6.2-.4c0-.9-.2-1.7-.6-2.1c-.4-.5-1-.8-1.7-.8c-.4 0-.8.2-1.2.4c-.4.2-.7.6-.9 1c-.2.4-.4.9-.4 1.5h4.8zm2.5 5v-8.7h1.3l.1 1.7c.3-.5.7-1 1.3-1.4c.5-.4 1.1-.6 1.8-.6c.9 0 1.6.3 2.1.9c.5.5.8 1.3.8 2.4c-.02-.04 0 5.7 0 5.7h-1.4s-.04-5.63 0-5.6c0-.8-.2-1.3-.4-1.7c-.3-.3-.7-.5-1.3-.5c-.4 0-.8.1-1.2.3c-.4.3-.7.6-1.1 1c-.3.5-.5.9-.6 1.4c.02-.05 0 5.1 0 5.1H9.4zm8.9 0v-12.3h1.4s-.02 5.3 0 5.3c.3-.5.7-1 1.3-1.4c.5-.4 1.1-.6 1.8-.6c.9 0 1.6.3 2.1.9c.5.5.7 1.3.7 2.4c.03-.04 0 5.7 0 5.7h-1.4s.02-5.63 0-5.6c0-.8-.1-1.3-.4-1.7c-.2-.3-.6-.5-1.2-.5c-.4 0-.8.1-1.2.3c-.4.3-.8.6-1.1 1c-.3.4-.5.8-.6 1.3c-.02 0 0 5.2 0 5.2h-1.4zm8.2-2.3c0-.6.2-1.1.5-1.5c.2-.4.6-.6 1.1-.9c.5-.2 1.2-.3 2.1-.5l2.2-.4c-.1-.7-.3-1.3-.6-1.7c-.4-.4-1-.6-1.8-.6c-.5 0-1 .2-1.5.4c-.5.3-.9.6-1.3 1v-1.4c.3-.3.8-.5 1.3-.8c.5-.2 1.1-.3 1.7-.3c1.1 0 2 .3 2.6.9c.7.5 1 1.4 1 2.5c-.02-.03 0 5.6 0 5.6h-1.1s-.28-1.34-.3-1.3c-.4.5-.9.9-1.4 1.1c-.6.3-1.2.4-1.8.4c-.8 0-1.5-.2-2-.6c-.4-.5-.7-1.1-.7-1.9zm1.4-.1c0 .5.2.9.5 1.1c.2.3.6.4 1.1.4c.5 0 1-.2 1.6-.5c.5-.4 1-.8 1.3-1.4c-.02-.03 0-1.7 0-1.7c0 0-1.47.26-1.5.3c-.8.1-1.4.2-1.8.4c-.4.1-.7.3-.9.5c-.2.3-.3.6-.3.9zm7.4 2.4v-8.7h1.3s.12 1.73.1 1.7c.3-.5.8-1 1.3-1.4c.5-.4 1.2-.6 1.8-.6c1 0 1.7.3 2.2.9c.5.5.7 1.3.7 2.4v5.7h-1.4s-.02-5.63 0-5.6c0-.8-.1-1.3-.4-1.7c-.3-.3-.7-.5-1.3-.5c-.4 0-.8.1-1.2.3c-.4.3-.7.6-1 1c-.3.5-.5.9-.7 1.4c.04-.05 0 5.1 0 5.1h-1.4zm8.3-4.5c0-.9.1-1.6.5-2.3c.4-.7.9-1.2 1.5-1.6c.7-.4 1.4-.6 2.3-.6c.4 0 .9.1 1.4.3c.4.2.8.4 1.1.7v1.5c-.3-.4-.7-.8-1.2-1c-.4-.2-.9-.3-1.4-.3c-.5 0-1 .1-1.4.4c-.4.3-.7.6-1 1.1c-.2.5-.4 1.1-.4 1.8v.2c0 .7.2 1.3.4 1.8c.3.5.6.9 1 1.2c.5.3.9.4 1.4.4c1 0 1.9-.4 2.6-1.3v1.5c-.3.3-.7.5-1.2.7c-.4.2-.9.2-1.4.2c-.8 0-1.5-.2-2.2-.5c-.6-.4-1.1-1-1.5-1.6c-.4-.7-.5-1.5-.5-2.3v-.3zm7.3-.1c0-.8.2-1.6.5-2.2c.3-.7.8-1.2 1.4-1.6c.6-.4 1.2-.6 2-.6c1.2 0 2.1.4 2.8 1.2c.6.8 1 1.9 1 3.3c-.02.02 0 .6 0 .6h-6.3c.1.9.3 1.6.8 2.2c.5.5 1.1.8 1.9.8c1.2 0 2.2-.4 3.1-1.3v1.4c-.4.3-.8.6-1.3.8c-.5.2-1.1.2-1.8.2c-.9 0-1.6-.1-2.2-.5c-.6-.4-1.1-.9-1.4-1.6c-.3-.7-.5-1.4-.5-2.3v-.4zm6.3-.4c0-.9-.3-1.7-.7-2.1c-.4-.5-1-.8-1.7-.8c-.4 0-.8.2-1.2.4c-.4.2-.7.6-.9 1c-.2.4-.3.9-.4 1.5h4.9zm5.3.6c0-.9.2-1.7.5-2.4c.4-.7.8-1.2 1.4-1.6c.6-.4 1.2-.6 2-.6c.5 0 1 .2 1.5.5c.5.2.9.6 1.3 1.1c-.03-.04 0-4.9 0-4.9h1.4v12.3h-1.3s-.12-1.36-.1-1.4c-.3.5-.7.9-1.2 1.2c-.5.3-1.1.4-1.6.4c-.8 0-1.4-.1-2-.5c-.6-.4-1-.9-1.4-1.6c-.3-.7-.5-1.6-.5-2.5zm1.5 0c0 .7.1 1.4.3 1.9c.3.5.6.9 1 1.2c.4.3.8.4 1.3.4c.5 0 1-.2 1.5-.6c.5-.4.8-.9 1.1-1.4v-2.9c-.3-.6-.6-1.1-1.1-1.5c-.5-.4-1-.6-1.5-.6c-.5 0-.9.2-1.3.5c-.4.3-.7.7-1 1.2c-.2.5-.3 1.1-.3 1.8zm9.6-5.8h-1.4v-1.7h1.4v1.7zm0 10.2h-1.4v-8.7h1.4v8.7zm1.1-4.6c0-.9.1-1.6.5-2.3c.3-.7.7-1.2 1.3-1.5c.6-.4 1.2-.6 2-.6c.6 0 1.1.2 1.6.5c.5.2.9.6 1.2 1.1c-.04 0 .1-1.3.1-1.3h1.3s-.04 8.38 0 8.4c0 .8-.2 1.5-.6 2.1c-.3.6-.8 1.1-1.5 1.4c-.6.3-1.4.5-2.3.5c-.6 0-1.1-.1-1.5-.2c-.5-.1-.9-.3-1.3-.6V142c.8.7 1.8 1 2.8 1c.9 0 1.6-.2 2.2-.7c.5-.5.7-1.2.7-2.1v-1.4c-.3.5-.7.8-1.1 1.1c-.5.3-1.1.4-1.6.4c-.8 0-1.4-.2-2-.5c-.6-.4-1-.9-1.3-1.6c-.4-.6-.5-1.4-.5-2.3zm1.5 0c0 .7.1 1.3.3 1.8c.2.4.5.8.9 1.1c.4.2.8.4 1.3.4c.6 0 1.1-.2 1.5-.6c.5-.4.8-.9 1-1.4v-2.5c-.2-.6-.5-1.1-1-1.5c-.5-.4-1-.6-1.5-.6c-.5 0-.9.2-1.3.4c-.4.3-.7.7-.9 1.2c-.2.5-.3 1-.3 1.7zm9.5-5.6h-1.4v-1.7h1.4v1.7zm0 10.2h-1.4v-8.7h1.4v8.7zm2.5-7.6h-1.9v-1.1h1.9v-2.7h1.4v2.7h2v1.1h-2v7.6h-1.4v-7.6zm3.4 5.3c0-.6.1-1.1.4-1.5c.3-.4.7-.6 1.2-.9c.5-.2 1.2-.3 2-.5l2.2-.4c0-.7-.2-1.3-.6-1.7c-.4-.4-.9-.6-1.7-.6c-.6 0-1.1.2-1.6.4c-.5.3-.9.6-1.2 1v-1.4c.3-.3.7-.5 1.2-.8c.5-.2 1.1-.3 1.7-.3c1.1 0 2 .3 2.7.9c.6.5.9 1.4.9 2.5c.02-.03 0 5.6 0 5.6h-1.1s-.24-1.34-.2-1.3c-.5.5-.9.9-1.5 1.1c-.5.3-1.1.4-1.8.4c-.8 0-1.4-.2-1.9-.6c-.5-.5-.7-1.1-.7-1.9zm1.4-.1c0 .5.1.9.4 1.1c.3.3.6.4 1.1.4c.5 0 1.1-.2 1.6-.5c.6-.4 1-.8 1.3-1.4c.02-.03 0-1.7 0-1.7c0 0-1.43.26-1.4.3c-.8.1-1.4.2-1.8.4c-.4.1-.7.3-.9.5c-.2.3-.3.6-.3.9zm8.8 2.4h-1.4v-12.3h1.4v12.3zm5-3c0 1.1.2 1.9.7 2.4c.5.6 1.2.8 2.1.8c.7 0 1.3-.2 1.9-.5c.5-.4.9-.9 1.3-1.5c-.03.04.1 1.8.1 1.8h1.3v-8.7h-1.4s-.05 5.12 0 5.1c-.2.5-.4.9-.7 1.3c-.3.5-.6.8-1 1c-.4.3-.8.4-1.2.4c-.6 0-1.1-.2-1.3-.6c-.3-.3-.4-.9-.4-1.6v-5.6h-1.4v5.7zm8.7.8c.7.9 1.6 1.3 2.7 1.3c.6 0 1.1-.1 1.4-.4c.4-.2.5-.5.5-.9c0-.3-.1-.6-.2-.8c-.2-.2-.6-.4-1.1-.6l-1.1-.5c-.8-.3-1.3-.7-1.6-1.1c-.4-.4-.5-.8-.5-1.4c0-.4.1-.8.3-1.2c.2-.4.6-.6 1-.9c.4-.2 1-.3 1.6-.3c.5 0 1 .1 1.5.3c.5.2.9.4 1.2.7v1.5c-.4-.4-.8-.8-1.3-1c-.5-.2-.9-.3-1.4-.3c-.5 0-.9.1-1.2.3c-.2.2-.4.5-.4.8c0 .3.1.5.4.7c.2.2.5.4 1 .6l1.2.5c.7.3 1.2.6 1.5 1c.4.5.5 1 .5 1.6c0 .8-.3 1.4-.9 1.8c-.6.5-1.4.7-2.4.7c-.6 0-1.1 0-1.6-.2c-.4-.2-.8-.4-1.1-.7v-1.5zm6.5-.1c0-.6.1-1.1.4-1.5c.3-.4.7-.6 1.2-.9c.5-.2 1.2-.3 2-.5l2.2-.4c0-.7-.2-1.3-.6-1.7c-.3-.4-.9-.6-1.7-.6c-.6 0-1.1.2-1.6.4c-.5.3-.9.6-1.2 1v-1.4c.3-.3.7-.5 1.2-.8c.6-.2 1.1-.3 1.7-.3c1.2 0 2 .3 2.7.9c.6.5.9 1.4.9 2.5c.03-.03 0 5.6 0 5.6h-1.1s-.23-1.34-.2-1.3c-.4.5-.9.9-1.5 1.1c-.5.3-1.1.4-1.8.4c-.8 0-1.4-.2-1.9-.6c-.5-.5-.7-1.1-.7-1.9zm1.4-.1c0 .5.1.9.4 1.1c.3.3.7.4 1.1.4c.6 0 1.1-.2 1.7-.5c.5-.4.9-.8 1.2-1.4c.04-.03 0-1.7 0-1.7c0 0-1.42.26-1.4.3c-.8.1-1.4.2-1.8.4c-.4.1-.7.3-.9.5c-.2.3-.3.6-.3.9zm7.4 2.4v-12.3h1.4v4.9c.3-.5.7-.9 1.2-1.1c.5-.3 1-.5 1.6-.5c.7 0 1.4.2 2 .6c.5.4 1 .9 1.3 1.6c.4.7.5 1.5.5 2.4c0 .9-.1 1.8-.5 2.5c-.3.7-.8 1.2-1.3 1.6c-.6.4-1.3.5-2 .5c-.6 0-1.1-.1-1.6-.4c-.5-.3-.9-.7-1.2-1.2c-.03.04-.1 1.4-.1 1.4h-1.3zm1.4-2.9c.2.5.6 1 1 1.4c.5.4 1 .6 1.6.6c.5 0 .9-.1 1.3-.4c.4-.3.7-.7.9-1.2c.2-.5.4-1.2.4-1.9c0-.7-.2-1.3-.4-1.8c-.2-.5-.5-.9-.9-1.2c-.4-.3-.9-.5-1.3-.5c-.6 0-1.1.2-1.6.6c-.4.4-.8.9-1 1.5v2.9zm9.1-7.3h-1.4v-1.7h1.4v1.7zm0 10.2h-1.4v-8.7h1.4v8.7zm3.1 0h-1.5v-12.3h1.5v12.3zm3-10.2H146v-1.7h1.4v1.7zm0 10.2H146v-8.7h1.4v8.7zm2.5-7.6H148v-1.1h1.9v-2.7h1.4v2.7h2v1.1h-2v7.6h-1.4v-7.6zm6.7 7.6l-3.4-8.7h1.5l2.7 7l2.6-7h1.5l-4.9 12.2h-1.5l1.5-3.5zm9.9-7.6h-1.9v-1.1h1.9v-2.7h1.4v2.7h2v1.1h-2v7.6h-1.4v-7.6zm3.2 3.1c0-.9.2-1.6.5-2.3c.4-.7.9-1.2 1.5-1.6c.6-.4 1.3-.6 2.1-.6c.8 0 1.5.2 2.1.6c.7.4 1.2.9 1.5 1.6c.3.7.5 1.4.5 2.3v.3c0 .9-.2 1.6-.5 2.3c-.3.7-.8 1.2-1.5 1.6c-.6.4-1.3.5-2.1.5c-.8 0-1.5-.1-2.1-.5c-.6-.4-1.1-.9-1.5-1.6c-.3-.7-.5-1.4-.5-2.3v-.3zm1.5.3c0 1 .2 1.8.7 2.4c.5.6 1.1.9 1.9.9c.8 0 1.5-.3 2-.9c.4-.6.7-1.4.7-2.4v-.3c0-1-.3-1.8-.7-2.4c-.5-.6-1.2-1-2-1c-.8 0-1.4.4-1.9 1c-.5.6-.7 1.4-.7 2.4v.3zm12.1-3.4h-1.9v-1.1h1.9v-2.7h1.4v2.7h2v1.1h-2v7.6h-1.4v-7.6zm4 7.6v-12.3h1.4v5.3c.3-.5.7-1 1.3-1.4c.5-.4 1.1-.6 1.8-.6c.9 0 1.6.3 2.1.9c.5.5.7 1.3.7 2.4c.04-.04 0 5.7 0 5.7h-1.4s.03-5.63 0-5.6c0-.8-.1-1.3-.4-1.7c-.2-.3-.6-.5-1.2-.5c-.4 0-.8.1-1.2.3c-.4.3-.8.6-1.1 1c-.3.4-.5.8-.6 1.3v5.2h-1.4zm8.2-4.6c0-.8.2-1.6.5-2.2c.3-.7.8-1.2 1.4-1.6c.6-.4 1.3-.6 2-.6c1.2 0 2.1.4 2.8 1.2c.6.8 1 1.9 1 3.3c-.02.02 0 .6 0 .6h-6.3c.1.9.3 1.6.8 2.2c.5.5 1.1.8 1.9.8c1.2 0 2.3-.4 3.1-1.3v1.4c-.4.3-.8.6-1.3.8c-.5.2-1.1.2-1.8.2c-.9 0-1.6-.1-2.2-.5c-.6-.4-1.1-.9-1.4-1.6c-.3-.7-.5-1.4-.5-2.3v-.4zm6.3-.4c0-.9-.3-1.7-.7-2.1c-.4-.5-1-.8-1.7-.8c-.4 0-.8.2-1.2.4c-.4.2-.7.6-.9 1c-.2.4-.3.9-.4 1.5h4.9z" stroke="none" fill="#fff"/></g><g id="Polygon2903"><path d="m.7 110.2c0-.6.1-1.1.5-1.5c.2-.4.6-.6 1.1-.9c.5-.2 1.2-.3 2.1-.5l2.1-.4c0-.7-.2-1.3-.5-1.7c-.4-.4-1-.6-1.8-.6c-.5 0-1.1.2-1.6.4c-.4.3-.9.6-1.2 1v-1.4c.3-.3.7-.5 1.3-.8c.5-.2 1-.3 1.7-.3c1.1 0 2 .3 2.6.9c.6.5 1 1.4 1 2.5c-.05-.03 0 5.6 0 5.6H6.8l-.2-1.3c-.4.5-.9.9-1.4 1.1c-.6.3-1.2.4-1.8.4c-.9 0-1.5-.2-2-.6c-.5-.5-.7-1.1-.7-1.9zm1.4-.1c0 .5.2.9.4 1.1c.3.3.7.4 1.1.4c.6 0 1.1-.2 1.7-.5c.5-.4 1-.8 1.3-1.4c-.04-.03 0-1.7 0-1.7c0 0-1.5.26-1.5.3c-.8.1-1.4.2-1.8.4c-.4.1-.7.3-.9.5c-.2.3-.3.6-.3.9zm7.4 2.4v-8.7h1.3l.1 1.7c.3-.5.7-1 1.3-1.4c.5-.4 1.1-.6 1.8-.6c.9 0 1.6.3 2.1.9c.5.5.8 1.3.8 2.4c-.02-.04 0 5.7 0 5.7h-1.4s-.04-5.63 0-5.6c0-.8-.2-1.3-.4-1.7c-.3-.3-.7-.5-1.3-.5c-.4 0-.8.1-1.2.3c-.4.3-.8.6-1.1 1c-.3.5-.5.9-.6 1.4v5.1H9.5zm8.2-4.4c0-.9.2-1.7.5-2.4c.4-.7.8-1.2 1.4-1.6c.6-.4 1.3-.6 2-.6c.5 0 1.1.2 1.6.5c.5.2.9.6 1.2 1.1c-.02-.04 0-4.9 0-4.9h1.4v12.3h-1.3l-.1-1.4c-.3.5-.7.9-1.2 1.2c-.5.3-1 .4-1.6.4c-.7 0-1.4-.1-2-.5c-.6-.4-1-.9-1.4-1.6c-.3-.7-.5-1.6-.5-2.5zm1.5 0c0 .7.1 1.4.4 1.9c.2.5.5.9.9 1.2c.4.3.8.4 1.3.4c.6 0 1.1-.2 1.5-.6c.5-.4.9-.9 1.1-1.4v-2.9c-.2-.6-.6-1.1-1.1-1.5c-.4-.4-.9-.6-1.5-.6c-.5 0-.9.2-1.3.5c-.4.3-.7.7-.9 1.2c-.3.5-.4 1.1-.4 1.8zm11.2-.1c0-.9.1-1.6.5-2.3c.3-.7.8-1.2 1.4-1.6c.7-.4 1.4-.6 2.1-.6c.8 0 1.6.2 2.2.6c.6.4 1.1.9 1.4 1.6c.4.7.5 1.4.5 2.3v.3c0 .9-.1 1.6-.5 2.3c-.3.7-.8 1.2-1.4 1.6c-.6.4-1.4.5-2.2.5c-.7 0-1.4-.1-2.1-.5c-.6-.4-1.1-.9-1.4-1.6c-.4-.7-.5-1.4-.5-2.3v-.3zm1.4.3c0 1 .3 1.8.7 2.4c.5.6 1.1.9 1.9.9c.9 0 1.5-.3 2-.9c.5-.6.7-1.4.7-2.4v-.3c0-1-.2-1.8-.7-2.4c-.5-.6-1.1-1-2-1c-.8 0-1.4.4-1.9 1c-.4.6-.7 1.4-.7 2.4v.3zm7.8 4.2v-8.7h1.3s.09 1.73.1 1.7c.3-.5.7-1 1.3-1.4c.5-.4 1.1-.6 1.8-.6c.9 0 1.6.3 2.1.9c.5.5.8 1.3.8 2.4c-.02-.04 0 5.7 0 5.7h-1.4s-.05-5.63 0-5.6c0-.8-.2-1.3-.4-1.7c-.3-.3-.7-.5-1.3-.5c-.4 0-.8.1-1.2.3c-.4.3-.8.6-1.1 1c-.3.5-.5.9-.6 1.4v5.1h-1.4zm8.2-4.6c0-.8.2-1.6.5-2.2c.4-.7.8-1.2 1.4-1.6c.6-.4 1.3-.6 2-.6c1.2 0 2.1.4 2.8 1.2c.7.8 1 1.9 1 3.3v.6h-6.3c.1.9.3 1.6.8 2.2c.5.5 1.1.8 1.9.8c1.2 0 2.3-.4 3.1-1.3v1.4c-.4.3-.8.6-1.3.8c-.5.2-1.1.2-1.8.2c-.8 0-1.6-.1-2.2-.5c-.6-.4-1.1-.9-1.4-1.6c-.3-.7-.5-1.4-.5-2.3v-.4zm6.3-.4c0-.9-.2-1.7-.7-2.1c-.4-.5-.9-.8-1.6-.8c-.5 0-.9.2-1.3.4c-.3.2-.6.6-.9 1c-.2.4-.3.9-.4 1.5h4.9zm5.8 2.1c.3.6.8 1.1 1.3 1.4c.6.3 1.2.5 1.8.5c.6 0 1.1-.2 1.5-.4c.4-.2.8-.6 1-1c.2-.4.3-.9.3-1.4c0-.5-.1-1-.3-1.3c-.2-.4-.5-.7-.9-.9c-.3-.3-.7-.4-1.1-.4c-.5 0-.9.1-1.3.3c-.4.2-.7.4-.8.6c-.04.05-1.1 0-1.1 0l.6-6.5h6v1.2h-4.7l-.3 3.8c.5-.4 1.2-.6 1.9-.6c.7 0 1.3.2 1.8.5c.5.3 1 .7 1.3 1.3c.3.6.5 1.2.5 2c0 .8-.2 1.5-.6 2.1c-.4.6-.9 1.1-1.5 1.4c-.7.3-1.4.5-2.3.5c-.7 0-1.3-.2-1.8-.4c-.6-.2-1-.5-1.3-.9v-1.8zm10.4 2.9h-1.8v-2.1h1.8v2.1zm.7 0v-1s4.15-4.53 4.2-4.5c.5-.6.9-1.1 1.1-1.6c.3-.4.4-.9.4-1.5c0-.7-.2-1.2-.6-1.7c-.5-.4-1-.6-1.7-.6c-.6 0-1.2.1-1.7.5c-.5.3-.9.7-1.2 1.3v-1.8c.3-.3.7-.6 1.2-.9c.6-.2 1.2-.4 1.8-.4c.8 0 1.4.2 2 .5c.5.3 1 .7 1.3 1.3c.3.5.4 1.1.4 1.7c0 .6-.1 1.1-.3 1.6c-.1.5-.4.9-.7 1.3c-.3.4-.7.8-1.2 1.4l-3 3.2h5.5v1.2H71zm9-8.4h-1.2l.8-3.8h1.8l-1.4 3.8zm3.1 0h-1.2l.8-3.8h1.8l-1.4 3.8zm5.8 6.2c.8.9 1.7 1.3 2.8 1.3c.6 0 1.1-.1 1.4-.4c.3-.2.5-.5.5-.9c0-.3-.1-.6-.3-.8c-.1-.2-.5-.4-1-.6l-1.2-.5c-.7-.3-1.2-.7-1.6-1.1c-.3-.4-.5-.8-.5-1.4c0-.4.1-.8.4-1.2c.2-.4.5-.6 1-.9c.4-.2 1-.3 1.6-.3c.5 0 1 .1 1.5.3c.4.2.8.4 1.2.7v1.5c-.4-.4-.9-.8-1.3-1c-.5-.2-.9-.3-1.4-.3c-.5 0-.9.1-1.2.3c-.3.2-.4.5-.4.8c0 .3.1.5.3.7c.2.2.6.4 1.1.6l1.1.5c.8.3 1.3.6 1.6 1c.3.5.5 1 .5 1.6c0 .8-.3 1.4-.9 1.8c-.6.5-1.4.7-2.4.7c-.6 0-1.1 0-1.6-.2c-.5-.2-.9-.4-1.2-.7v-1.5zm6.5-2.4c0-.8.2-1.6.5-2.2c.3-.7.8-1.2 1.4-1.6c.6-.4 1.3-.6 2-.6c1.2 0 2.1.4 2.8 1.2c.7.8 1 1.9 1 3.3v.6h-6.3c.1.9.3 1.6.8 2.2c.5.5 1.1.8 1.9.8c1.2 0 2.3-.4 3.1-1.3v1.4c-.4.3-.8.6-1.3.8c-.5.2-1.1.2-1.8.2c-.8 0-1.6-.1-2.2-.5c-.6-.4-1.1-.9-1.4-1.6c-.3-.7-.5-1.4-.5-2.3v-.4zm6.3-.4c0-.9-.2-1.7-.7-2.1c-.4-.5-.9-.8-1.6-.8c-.5 0-.9.2-1.3.4c-.3.2-.6.6-.9 1c-.2.4-.3.9-.4 1.5h4.9zm1.8.4c0-.9.2-1.6.5-2.3c.3-.7.8-1.2 1.4-1.5c.5-.4 1.2-.6 1.9-.6c.6 0 1.1.2 1.6.5c.5.2.9.6 1.2 1.1l.1-1.3h1.3v8.4c0 .8-.2 1.5-.5 2.1c-.4.6-.8 1.1-1.5 1.4c-.7.3-1.4.5-2.3.5c-.6 0-1.1-.1-1.6-.2c-.4-.1-.9-.3-1.2-.6V114c.8.7 1.7 1 2.8 1c.9 0 1.6-.2 2.1-.7c.5-.5.8-1.2.8-2.1v-1.4c-.3.5-.7.8-1.2 1.1c-.5.3-1 .4-1.6.4c-.7 0-1.4-.2-1.9-.5c-.6-.4-1.1-.9-1.4-1.6c-.3-.6-.5-1.4-.5-2.3zm1.5 0c0 .7.1 1.3.4 1.8c.2.4.5.8.9 1.1c.4.2.8.4 1.3.4c.5 0 1-.2 1.5-.6c.4-.4.8-.9 1-1.4v-2.5c-.2-.6-.6-1.1-1-1.5c-.5-.4-1-.6-1.5-.6c-.5 0-.9.2-1.3.4c-.4.3-.7.7-1 1.2c-.2.5-.3 1-.3 1.7zm8.2 4.6v-8.7h1.2s.13 1.55.1 1.6c.4-.6.8-1 1.2-1.4c.5-.3 1.1-.5 1.7-.5c.6 0 1.1.2 1.6.5c.4.4.7.8.8 1.4c.4-.5.8-1 1.3-1.4c.5-.3 1.1-.5 1.7-.5c.8 0 1.4.3 1.9.8c.5.5.7 1.3.7 2.3v5.9H124v-5.8c0-.7-.1-1.2-.3-1.6c-.3-.3-.7-.5-1.2-.5c-.3 0-.6.2-1 .4c-.3.2-.7.5-.9.8c-.3.4-.5.8-.6 1.2c-.02-.02 0 5.5 0 5.5h-1.4s-.03-5.85 0-5.9c0-.6-.1-1.1-.4-1.5c-.2-.3-.6-.5-1.1-.5c-.3 0-.7.2-1 .4c-.3.2-.7.5-.9.8c-.3.4-.5.8-.6 1.2c-.03-.02 0 5.5 0 5.5h-1.4zm13.1-4.6c0-.8.1-1.6.5-2.2c.3-.7.8-1.2 1.4-1.6c.5-.4 1.2-.6 2-.6c1.2 0 2.1.4 2.8 1.2c.6.8 1 1.9 1 3.3c-.05.02 0 .6 0 .6h-6.3c0 .9.3 1.6.8 2.2c.4.5 1.1.8 1.9.8c1.2 0 2.2-.4 3.1-1.3v1.4c-.4.3-.9.6-1.3.8c-.5.2-1.1.2-1.8.2c-.9 0-1.6-.1-2.2-.5c-.6-.4-1.1-.9-1.4-1.6c-.4-.7-.5-1.4-.5-2.3v-.4zm6.2-.4c0-.9-.2-1.7-.6-2.1c-.4-.5-1-.8-1.7-.8c-.4 0-.8.2-1.2.4c-.4.2-.7.6-.9 1c-.2.4-.4.9-.4 1.5h4.8zm2.5 5v-8.7h1.3l.1 1.7c.3-.5.7-1 1.3-1.4c.5-.4 1.1-.6 1.8-.6c.9 0 1.6.3 2.1.9c.5.5.8 1.3.8 2.4c-.02-.04 0 5.7 0 5.7H141s-.04-5.63 0-5.6c0-.8-.2-1.3-.4-1.7c-.3-.3-.7-.5-1.3-.5c-.4 0-.8.1-1.2.3c-.4.3-.7.6-1.1 1c-.3.5-.5.9-.6 1.4v5.1H135zm9.7-7.6h-1.9v-1.1h1.9v-2.7h1.4v2.7h2v1.1h-2v7.6h-1.4v-7.6zm6.9 3.2c0-.9.1-1.7.4-2.4c.4-.7.8-1.2 1.4-1.6c.6-.4 1.3-.6 2-.6c.5 0 1.1.2 1.6.5c.5.2.9.6 1.2 1.1v-4.9h1.4v12.3h-1.3l-.1-1.4c-.3.5-.7.9-1.2 1.2c-.5.3-1 .4-1.6.4c-.7 0-1.4-.1-2-.5c-.6-.4-1-.9-1.4-1.6c-.3-.7-.4-1.6-.4-2.5zm1.4 0c0 .7.1 1.4.4 1.9c.2.5.5.9.9 1.2c.4.3.8.4 1.3.4c.6 0 1.1-.2 1.5-.6c.5-.4.9-.9 1.1-1.4v-2.9c-.2-.6-.6-1.1-1.1-1.5c-.4-.4-.9-.6-1.5-.6c-.5 0-.9.2-1.3.5c-.4.3-.7.7-.9 1.2c-.3.5-.4 1.1-.4 1.8zm9.7-5.8h-1.4v-1.7h1.4v1.7zm0 10.2h-1.4v-8.7h1.4v8.7zm1.3-2.2c.7.9 1.6 1.3 2.8 1.3c.5 0 1-.1 1.3-.4c.4-.2.5-.5.5-.9c0-.3 0-.6-.2-.8c-.2-.2-.5-.4-1-.6l-1.2-.5c-.7-.3-1.3-.7-1.6-1.1c-.4-.4-.5-.8-.5-1.4c0-.4.1-.8.3-1.2c.2-.4.6-.6 1-.9c.5-.2 1-.3 1.6-.3c.5 0 1 .1 1.5.3c.5.2.9.4 1.2.7v1.5c-.4-.4-.8-.8-1.3-1c-.4-.2-.9-.3-1.4-.3c-.5 0-.9.1-1.2.3c-.2.2-.3.5-.3.8c0 .3.1.5.3.7c.2.2.5.4 1 .6l1.2.5c.7.3 1.2.6 1.6 1c.3.5.4 1 .4 1.6c0 .8-.3 1.4-.9 1.8c-.6.5-1.4.7-2.3.7c-.6 0-1.2 0-1.7-.2c-.4-.2-.8-.4-1.1-.7v-1.5zm7.1 5.7v-12.2h1.3l.1 1.4c.3-.5.7-.9 1.2-1.2c.5-.3 1-.5 1.6-.5c.8 0 1.4.2 2 .6c.6.4 1 .9 1.4 1.6c.3.7.4 1.5.4 2.4c0 .9-.1 1.8-.4 2.5c-.4.7-.8 1.2-1.4 1.6c-.6.4-1.2.5-2 .5c-.5 0-1.1-.1-1.6-.4c-.5-.3-.9-.6-1.2-1.1v4.8h-1.4zm1.4-6.5c.2.6.6 1.1 1 1.5c.5.4 1 .6 1.6.6c.5 0 .9-.1 1.3-.4c.4-.3.7-.7.9-1.2c.3-.6.4-1.2.4-1.9c0-.7-.1-1.3-.3-1.8c-.3-.5-.6-.9-1-1.2c-.4-.3-.8-.5-1.3-.5c-.6 0-1.1.2-1.6.6c-.4.4-.8.9-1 1.5v2.8zm9.1 3h-1.4v-12.3h1.4v12.3zm1.1-2.3c0-.6.1-1.1.4-1.5c.3-.4.7-.6 1.2-.9c.5-.2 1.2-.3 2-.5l2.2-.4c0-.7-.2-1.3-.6-1.7c-.4-.4-.9-.6-1.7-.6c-.6 0-1.1.2-1.6.4c-.5.3-.9.6-1.2 1v-1.4c.3-.3.7-.5 1.2-.8c.5-.2 1.1-.3 1.7-.3c1.1 0 2 .3 2.7.9c.6.5.9 1.4.9 2.5c.02-.03 0 5.6 0 5.6h-1.1s-.24-1.34-.2-1.3c-.4.5-.9.9-1.5 1.1c-.5.3-1.1.4-1.8.4c-.8 0-1.4-.2-1.9-.6c-.5-.5-.7-1.1-.7-1.9zm1.4-.1c0 .5.1.9.4 1.1c.3.3.6.4 1.1.4c.5 0 1.1-.2 1.6-.5c.6-.4 1-.8 1.3-1.4c.03-.03 0-1.7 0-1.7c0 0-1.43.26-1.4.3c-.8.1-1.4.2-1.8.4c-.4.1-.7.3-.9.5c-.2.3-.3.6-.3.9zm9.8 2.4l-3.5-8.7h1.6l2.7 7l2.6-7h1.5l-4.9 12.2h-1.5l1.5-3.5z" stroke="none" fill="#fff"/></g><g id="Polygon2902"><path d="m4.3 73.6H.5v-1.3h9v1.3H5.7v10.9H4.3V73.6zm6 10.9V72.2h1.4s.03 5.3 0 5.3c.3-.5.8-1 1.3-1.4c.6-.4 1.2-.6 1.8-.6c.9 0 1.7.3 2.1.9c.5.5.8 1.3.8 2.4c-.02-.04 0 5.7 0 5.7h-1.4s-.03-5.63 0-5.6c0-.8-.2-1.3-.4-1.7c-.3-.3-.7-.5-1.3-.5c-.4 0-.8.1-1.2.3c-.4.3-.7.6-1 1c-.3.4-.6.8-.7 1.3c.03 0 0 5.2 0 5.2h-1.4zm8.2-4.6c0-.8.2-1.6.5-2.2c.4-.7.8-1.2 1.4-1.6c.6-.4 1.3-.6 2.1-.6c1.1 0 2.1.4 2.7 1.2c.7.8 1 1.9 1 3.3c.02.02 0 .6 0 .6H20c0 .9.3 1.6.7 2.2c.5.5 1.1.8 1.9.8c1.3 0 2.3-.4 3.1-1.3v1.4c-.3.3-.8.6-1.3.8c-.5.2-1.1.2-1.8.2c-.8 0-1.5-.1-2.2-.5c-.6-.4-1-.9-1.4-1.6c-.3-.7-.5-1.4-.5-2.3v-.4zm6.3-.4c0-.9-.2-1.7-.6-2.1c-.5-.5-1-.8-1.7-.8c-.5 0-.9.2-1.2.4c-.4.2-.7.6-.9 1c-.3.4-.4.9-.4 1.5h4.8zm6.8-2.6h-1.9v-1.1h1.9v-2.7h1.5v2.7h1.9v1.1h-1.9v7.6h-1.5v-7.6zm5.8 7.6l-2.5-8.7h1.4l2 7.2l1.9-7.2h1.8l1.9 7.1l2-7.1h1.3l-2.5 8.7H43l-2-7.2l-1.9 7.2h-1.7zm9.8-4.5c0-.9.1-1.6.5-2.3c.3-.7.8-1.2 1.4-1.6c.7-.4 1.4-.6 2.1-.6c.8 0 1.6.2 2.2.6c.6.4 1.1.9 1.4 1.6c.4.7.5 1.4.5 2.3v.3c0 .9-.1 1.6-.5 2.3c-.3.7-.8 1.2-1.4 1.6c-.6.4-1.4.5-2.2.5c-.7 0-1.4-.1-2.1-.5c-.6-.4-1.1-.9-1.4-1.6c-.4-.7-.5-1.4-.5-2.3v-.3zm1.4.3c0 1 .3 1.8.7 2.4c.5.6 1.1.9 1.9.9c.9 0 1.5-.3 2-.9c.5-.6.7-1.4.7-2.4v-.3c0-1-.2-1.8-.7-2.4c-.5-.6-1.1-1-2-1c-.8 0-1.4.4-1.9 1c-.4.6-.7 1.4-.7 2.4v.3zm10.8-4.4v-1.6l2.7-1.8h1.4v12H62V74.1l-2.6 1.8zm6 8.6v-1l4.1-4.5c.6-.6 1-1.1 1.2-1.6c.3-.4.4-.9.4-1.5c0-.7-.2-1.2-.7-1.7c-.4-.4-.9-.6-1.6-.6c-.6 0-1.2.1-1.7.5c-.5.3-.9.7-1.2 1.3v-1.8c.3-.3.7-.6 1.2-.9c.6-.2 1.1-.4 1.8-.4c.8 0 1.4.2 2 .5c.5.3 1 .7 1.3 1.3c.2.5.4 1.1.4 1.7c0 .6-.1 1.1-.3 1.6c-.2.5-.4.9-.7 1.3c-.3.4-.7.8-1.2 1.4l-3 3.2h5.5v1.2h-7.5zm10.2 0h-1.9v-2.1h1.9v2.1zm.9-2.9c.3.6.8 1.1 1.3 1.4c.6.3 1.2.5 1.9.5c.7 0 1.4-.2 1.9-.7c.5-.4.8-.9.8-1.6c0-.7-.2-1.2-.6-1.7c-.4-.4-1.1-.7-2-.7c-.02.01-1.1 0-1.1 0v-1.2s1.04-.02 1 0c.7 0 1.3-.2 1.7-.6c.5-.3.7-.8.7-1.4c0-.7-.2-1.2-.6-1.5c-.5-.4-1-.6-1.6-.6c-.6 0-1.2.2-1.7.5c-.5.4-.9.8-1.2 1.4v-1.8c.2-.3.7-.6 1.2-.9c.6-.2 1.2-.4 1.8-.4c.8 0 1.4.2 1.9.5c.6.2 1 .6 1.3 1.1c.3.4.5 1 .5 1.5c0 1.3-.7 2.2-2.1 2.7c.7.2 1.3.6 1.7 1.1c.4.6.7 1.2.7 2c0 .7-.2 1.3-.6 1.8c-.3.5-.8.9-1.5 1.2c-.6.3-1.3.5-2.1.5c-.8 0-1.4-.2-2-.4c-.6-.2-1-.5-1.3-.9v-1.8zm9.2-5.5h-1.2l.8-3.8h1.7l-1.3 3.8zm2.2 0h-1.1l.9-3.8h1.7l-1.5 3.8zm7.9 8.4l-2.6-8.7h1.5l1.9 7.2l1.9-7.2h1.8l1.9 7.1l2-7.1h1.3l-2.5 8.7h-1.7l-1.9-7.2l-2 7.2h-1.6zm11.8-10.2h-1.4v-1.7h1.4v1.7zm0 10.2h-1.4v-8.7h1.4v8.7zm1-4.4c0-.9.2-1.7.5-2.4c.3-.7.8-1.2 1.4-1.6c.6-.4 1.2-.6 2-.6c.5 0 1 .2 1.5.5c.5.2.9.6 1.3 1.1c-.04-.04 0-4.9 0-4.9h1.4v12.3h-1.3s-.12-1.36-.1-1.4c-.3.5-.7.9-1.2 1.2c-.5.3-1.1.4-1.6.4c-.8 0-1.4-.1-2-.5c-.6-.4-1.1-.9-1.4-1.6c-.3-.7-.5-1.6-.5-2.5zm1.5 0c0 .7.1 1.4.3 1.9c.3.5.6.9 1 1.2c.4.3.8.4 1.3.4c.5 0 1-.2 1.5-.6c.5-.4.8-.9 1.1-1.4v-2.9c-.3-.6-.6-1.1-1.1-1.5c-.5-.4-1-.6-1.5-.6c-.5 0-.9.2-1.3.5c-.4.3-.7.7-1 1.2c-.2.5-.3 1.1-.3 1.8zm7.6-.2c0-.8.2-1.6.5-2.2c.3-.7.8-1.2 1.4-1.6c.6-.4 1.2-.6 2-.6c1.2 0 2.1.4 2.8 1.2c.6.8 1 1.9 1 3.3c-.03.02 0 .6 0 .6h-6.3c.1.9.3 1.6.8 2.2c.5.5 1.1.8 1.9.8c1.2 0 2.2-.4 3.1-1.3v1.4c-.4.3-.8.6-1.3.8c-.5.2-1.1.2-1.8.2c-.9 0-1.6-.1-2.2-.5c-.6-.4-1.1-.9-1.4-1.6c-.3-.7-.5-1.4-.5-2.3v-.4zm6.3-.4c0-.9-.3-1.7-.7-2.1c-.4-.5-1-.8-1.7-.8c-.4 0-.8.2-1.2.4c-.4.2-.7.6-.9 1c-.2.4-.3.9-.4 1.5h4.9zm5.3.6c0-.9.2-1.7.5-2.4c.4-.7.8-1.2 1.4-1.6c.6-.4 1.2-.6 2-.6c.5 0 1 .2 1.5.5c.5.2.9.6 1.3 1.1c-.03-.04 0-4.9 0-4.9h1.4v12.3h-1.3s-.12-1.36-.1-1.4c-.3.5-.7.9-1.2 1.2c-.5.3-1.1.4-1.6.4c-.8 0-1.4-.1-2-.5c-.6-.4-1-.9-1.4-1.6c-.3-.7-.5-1.6-.5-2.5zm1.5 0c0 .7.1 1.4.3 1.9c.3.5.6.9 1 1.2c.4.3.8.4 1.3.4c.5 0 1-.2 1.5-.6c.5-.4.8-.9 1.1-1.4v-2.9c-.3-.6-.6-1.1-1.1-1.5c-.5-.4-1-.6-1.5-.6c-.5 0-.9.2-1.3.5c-.4.3-.7.7-1 1.2c-.2.5-.3 1.1-.3 1.8zm9.6-5.8H139v-1.7h1.4v1.7zm0 10.2H139v-8.7h1.4v8.7zm1.4-2.2c.7.9 1.6 1.3 2.7 1.3c.6 0 1.1-.1 1.4-.4c.3-.2.5-.5.5-.9c0-.3-.1-.6-.2-.8c-.2-.2-.6-.4-1.1-.6l-1.1-.5c-.8-.3-1.3-.7-1.6-1.1c-.4-.4-.6-.8-.6-1.4c0-.4.2-.8.4-1.2c.2-.4.5-.6 1-.9c.4-.2 1-.3 1.6-.3c.5 0 1 .1 1.5.3c.5.2.9.4 1.2.7v1.5c-.4-.4-.9-.8-1.3-1c-.5-.2-.9-.3-1.4-.3c-.5 0-.9.1-1.2.3c-.2.2-.4.5-.4.8c0 .3.1.5.3.7c.3.2.6.4 1.1.6l1.1.5c.8.3 1.3.6 1.6 1c.4.5.5 1 .5 1.6c0 .8-.3 1.4-.9 1.8c-.6.5-1.4.7-2.4.7c-.6 0-1.1 0-1.6-.2c-.5-.2-.8-.4-1.1-.7v-1.5zm7.1 5.7V75.8h1.3s.07 1.38.1 1.4c.3-.5.7-.9 1.2-1.2c.5-.3 1-.5 1.6-.5c.7 0 1.4.2 2 .6c.5.4 1 .9 1.3 1.6c.4.7.5 1.5.5 2.4c0 .9-.1 1.8-.5 2.5c-.3.7-.8 1.2-1.3 1.6c-.6.4-1.3.5-2 .5c-.6 0-1.1-.1-1.6-.4c-.5-.3-.9-.6-1.2-1.1v4.8h-1.4zm1.4-6.5c.2.6.5 1.1 1 1.5c.5.4 1 .6 1.6.6c.5 0 .9-.1 1.3-.4c.4-.3.7-.7.9-1.2c.3-.6.4-1.2.4-1.9c0-.7-.1-1.3-.4-1.8c-.2-.5-.5-.9-.9-1.2c-.4-.3-.8-.5-1.3-.5c-.6 0-1.1.2-1.6.6c-.5.4-.8.9-1 1.5v2.8zm9.1 3H158V72.2h1.4v12.3zm1-2.3c0-.6.2-1.1.5-1.5c.3-.4.6-.6 1.1-.9c.5-.2 1.2-.3 2.1-.5l2.2-.4c0-.7-.2-1.3-.6-1.7c-.4-.4-1-.6-1.7-.6c-.6 0-1.1.2-1.6.4c-.5.3-.9.6-1.3 1v-1.4c.4-.3.8-.5 1.3-.8c.5-.2 1.1-.3 1.7-.3c1.1 0 2 .3 2.6.9c.7.5 1 1.4 1 2.5v5.6h-1.1s-.27-1.34-.3-1.3c-.4.5-.8.9-1.4 1.1c-.5.3-1.1.4-1.8.4c-.8 0-1.5-.2-1.9-.6c-.5-.5-.8-1.1-.8-1.9zm1.5-.1c0 .5.1.9.4 1.1c.2.3.6.4 1.1.4c.5 0 1.1-.2 1.6-.5c.6-.4 1-.8 1.3-1.4V80s-1.45.26-1.5.3c-.8.1-1.4.2-1.8.4c-.4.1-.7.3-.9.5c-.2.3-.2.6-.2.9zm9.8 2.4l-3.5-8.7h1.6l2.6 7l2.7-7h1.5L171.7 88h-1.5l1.5-3.5zm5.1-2.2c.8.9 1.7 1.3 2.8 1.3c.6 0 1.1-.1 1.4-.4c.3-.2.5-.5.5-.9c0-.3-.1-.6-.3-.8c-.1-.2-.5-.4-1-.6l-1.2-.5c-.7-.3-1.2-.7-1.6-1.1c-.3-.4-.5-.8-.5-1.4c0-.4.1-.8.4-1.2c.2-.4.5-.6 1-.9c.4-.2 1-.3 1.6-.3c.5 0 1 .1 1.5.3c.4.2.8.4 1.2.7v1.5c-.4-.4-.9-.8-1.3-1c-.5-.2-.9-.3-1.4-.3c-.5 0-.9.1-1.2.3c-.3.2-.4.5-.4.8c0 .3.1.5.3.7c.2.2.6.4 1.1.6l1.1.5c.8.3 1.3.6 1.6 1c.3.5.5 1 .5 1.6c0 .8-.3 1.4-.9 1.8c-.6.5-1.4.7-2.4.7c-.6 0-1.1 0-1.6-.2c-.5-.2-.9-.4-1.2-.7v-1.5z" stroke="none" fill="#fff"/></g><g id="Polygon2901"><path d="m3.1 29.5H.4L4.1 44h3l2.6-10.8L12.5 44h3l3.7-14.5h-2.3l-2.8 11.1l-2.7-11.1h-3L5.7 40.6l-2.6-11.1zM22.3 32h-2.5v-2.6h2.5v2.6zm0 12h-2.5V33.6h2.5V44zm1-5.2c0-1.1.2-2.1.7-2.9c.4-.8.9-1.5 1.6-1.9c.8-.5 1.5-.7 2.4-.7c.6 0 1.2.1 1.7.4c.6.2 1 .6 1.4 1c-.02.01 0-5.3 0-5.3h2.4V44h-2.3s-.12-1.27-.1-1.3c-.3.5-.8.9-1.3 1.1c-.6.3-1.2.5-1.8.5c-.9 0-1.6-.3-2.4-.7c-.7-.4-1.2-1.1-1.6-1.9c-.5-.8-.7-1.8-.7-2.9zm2.6 0c0 .8.1 1.4.4 2c.2.5.5.9.9 1.2c.5.3.9.4 1.4.4c.5 0 1-.2 1.4-.5c.5-.3.8-.7 1.1-1.2v-3.8c-.3-.6-.6-1-1.1-1.3c-.4-.3-.9-.4-1.4-.4c-.4 0-.9.1-1.3.4c-.4.3-.8.7-1 1.2c-.3.6-.4 1.2-.4 2zm8.6-.2c0-1 .2-1.9.6-2.7c.4-.8 1-1.5 1.7-1.9c.8-.5 1.6-.7 2.6-.7c1.5 0 2.7.5 3.5 1.5c.8.9 1.2 2.2 1.2 3.9c.04 0 0 .9 0 .9c0 0-7.2.05-7.2 0c.1.9.4 1.6.9 2.1c.5.4 1.2.7 2 .7c.7 0 1.3-.1 1.9-.4c.6-.2 1.2-.6 1.7-1.2v2.3c-.4.4-1 .7-1.6.9c-.6.2-1.3.3-2.1.3c-1.1 0-2-.3-2.8-.7c-.8-.5-1.4-1.1-1.8-1.9c-.4-.8-.6-1.7-.6-2.7v-.4zm7.2-.8c0-.8-.2-1.5-.6-1.9c-.5-.5-1-.7-1.7-.7c-.7 0-1.3.2-1.7.7c-.5.5-.7 1.1-.8 1.9h4.8zm7.8 6.2V29.5s4.99.04 5 0c1.4 0 2.6.3 3.7.9c1.1.5 1.9 1.4 2.5 2.4c.6 1.1.9 2.3.9 3.7v.4c0 1.4-.3 2.7-.9 3.7c-.6 1.1-1.4 1.9-2.5 2.5c-1.1.6-2.3.9-3.7.9c-.01-.02-5 0-5 0zm4.9-2.1c.7 0 1.4-.2 2.1-.5c.7-.4 1.2-.9 1.6-1.7c.5-.7.7-1.7.7-2.8v-.4c0-1.1-.2-2-.7-2.8c-.4-.7-.9-1.3-1.6-1.6c-.7-.3-1.4-.5-2.1-.5h-2.3v10.3h2.3zM65.2 32h-2.5v-2.6h2.5v2.6zm0 12h-2.5V33.6h2.5V44zm1.4-3.3c.4.5.9.9 1.5 1.2c.5.3 1.1.4 1.7.4c.7 0 1.1-.1 1.4-.3c.3-.2.4-.5.4-.8c0-.3 0-.5-.2-.7c-.2-.2-.6-.4-1.1-.6l-1-.4c-.9-.3-1.6-.7-2-1.2c-.5-.5-.7-1.2-.7-2c0-.5.1-1 .4-1.5c.3-.4.7-.8 1.3-1.1c.5-.2 1.2-.4 2-.4c.6 0 1.2.1 1.8.3c.6.2 1 .5 1.4.8v2.3c-.5-.5-1-.9-1.5-1.1c-.6-.3-1.1-.4-1.6-.4c-.6 0-.9.1-1.2.3c-.2.2-.3.4-.3.7c0 .2.1.4.3.6c.3.2.6.4 1.1.6l1.1.3c.9.4 1.6.8 2 1.3c.4.5.6 1.2.6 2c0 1-.4 1.8-1.1 2.4c-.8.6-1.8.9-3.1.9c-.6 0-1.2-.1-1.8-.4c-.6-.2-1.1-.4-1.4-.8v-2.4zm8.5 7.5V33.6h2.3s.12 1.28.1 1.3c.3-.5.8-.9 1.3-1.1c.6-.3 1.2-.5 1.8-.5c.9 0 1.6.2 2.4.7c.7.4 1.2 1.1 1.6 1.9c.5.8.7 1.8.7 2.9c0 1.1-.2 2.1-.7 2.9c-.4.8-.9 1.5-1.6 1.9c-.8.4-1.5.7-2.4.7c-.6 0-1.2-.2-1.7-.4c-.6-.3-1-.6-1.4-1c.02-.02 0 5.3 0 5.3h-2.4zm2.4-7.5c.3.5.6 1 1.1 1.2c.4.3.9.5 1.4.5c.5 0 .9-.2 1.3-.4c.4-.3.8-.7 1-1.2c.3-.6.4-1.2.4-2c0-.8-.1-1.4-.4-2c-.2-.5-.5-.9-.9-1.2c-.4-.3-.9-.4-1.4-.4c-.5 0-1 .2-1.4.4c-.5.3-.8.7-1.1 1.3v3.8zM88.8 44h-2.5V29.4h2.5V44zm1-2.9c0-.8.2-1.5.7-2c.4-.5.9-.8 1.5-1c.6-.3 1.4-.4 2.3-.6l2.1-.3c-.1-1.4-.9-2.1-2.5-2.1c-.5 0-1.1.2-1.7.5c-.6.3-1.1.7-1.4 1.3v-2.4c.9-.8 2.2-1.2 3.6-1.2c1.4 0 2.4.4 3.3 1.1c.8.7 1.2 1.8 1.2 3.2v6.4h-2s-.27-1.22-.3-1.2c-.5.5-1 .8-1.6 1.1c-.5.2-1.1.4-1.9.4c-1 0-1.8-.3-2.4-.9c-.6-.6-.9-1.3-.9-2.3zm2.4-.1c0 .4.2.7.4.9c.3.3.6.4 1 .4c.6 0 1.2-.2 1.7-.6c.6-.3.9-.8 1.2-1.3v-1.5s-1.24.22-1.2.2c-.9.2-1.5.3-1.9.4c-.3.2-.6.4-.8.5c-.2.3-.4.6-.4 1zm11.2 2.9l-4.1-10.3h2.6l2.7 7.4l2.8-7.4h2.4L104 48.2h-2.5l1.9-4.3z" stroke="none" fill="#fff"/></g><g id="Polygon2900"><path d="m1.6 16V1.5s5.75.04 5.8 0c.9 0 1.7.2 2.4.5c.7.4 1.3.9 1.7 1.5c.4.6.6 1.4.6 2.3v.3c0 .9-.2 1.6-.6 2.3c-.4.6-1 1.1-1.7 1.4c-.7.3-1.5.5-2.4.5c-.05.02-3.3 0-3.3 0v5.7H1.6zM7 8.2c.7 0 1.3-.2 1.7-.5c.5-.4.7-1 .7-1.6v-.3c0-.7-.2-1.2-.7-1.6c-.4-.4-1-.6-1.7-.6H4.1v4.6s2.87.05 2.9 0zm5.2 4.9c0-.8.3-1.5.7-2c.4-.5.9-.8 1.5-1c.6-.3 1.4-.4 2.3-.6l2.2-.3c-.1-1.4-1-2.1-2.5-2.1c-.6 0-1.2.2-1.8.5c-.6.3-1 .7-1.4 1.3V6.5c1-.8 2.2-1.2 3.7-1.2c1.3 0 2.4.4 3.2 1.1c.8.7 1.2 1.8 1.2 3.2c.04.01 0 6.4 0 6.4h-2s-.24-1.22-.2-1.2c-.6.5-1.1.8-1.6 1.1c-.6.2-1.2.4-1.9.4c-1.1 0-1.9-.3-2.5-.9c-.6-.6-.9-1.3-.9-2.3zm2.5-.1c0 .4.1.7.3.9c.3.3.6.4 1 .4c.7 0 1.2-.2 1.8-.6c.5-.3.9-.8 1.1-1.3c.02-.05 0-1.5 0-1.5c0 0-1.21.22-1.2.2c-.9.2-1.5.3-1.8.4c-.4.2-.7.4-.9.5c-.2.3-.3.6-.3 1zm8.2 3V5.6h2.3l.1 1.5c.4-.5.8-.9 1.4-1.3c.6-.3 1.2-.5 1.9-.5c1.2 0 2.1.4 2.7 1c.6.7 1 1.7 1 2.9c-.04 0 0 6.8 0 6.8h-2.5s.01-6.8 0-6.8c0-1.3-.5-2-1.6-2c-.6 0-1.2.3-1.7.7c-.6.5-1 1.1-1.2 1.8v6.3h-2.4zm10.2-5.4c0-1 .2-1.9.7-2.7c.4-.8 1.1-1.4 1.9-1.9c.7-.4 1.6-.7 2.6-.7c1 0 1.9.3 2.7.7c.8.5 1.4 1.1 1.9 1.9c.4.8.6 1.7.6 2.7v.3c0 1.1-.2 2-.6 2.8c-.5.8-1.1 1.4-1.9 1.9c-.8.4-1.7.7-2.7.7c-1 0-1.9-.3-2.6-.7c-.8-.5-1.5-1.1-1.9-1.9c-.5-.8-.7-1.8-.7-2.8v-.3zm2.6.3c0 1 .2 1.9.7 2.5c.4.7 1.1 1 1.9 1c.9 0 1.5-.3 2-1c.4-.6.7-1.5.7-2.5v-.3c0-1-.3-1.8-.7-2.4c-.5-.7-1.1-1-2-1c-.8 0-1.5.3-1.9 1c-.5.6-.7 1.4-.7 2.4v.3zm8.9 5.1V5.6h2.3s.09 1.72.1 1.7c.2-.6.6-1.1 1.2-1.4c.5-.4 1.2-.6 1.9-.6c.3 0 .6.1.8.1v2.2c-.3-.1-.6-.2-.9-.2c-.7 0-1.3.3-1.9.7c-.5.4-.9.9-1.1 1.6c.02.01 0 6.3 0 6.3h-2.4zm6.2-2.9c0-.8.3-1.5.7-2c.4-.5.9-.8 1.5-1c.6-.3 1.4-.4 2.3-.6l2.2-.3c-.2-1.4-1-2.1-2.6-2.1c-.5 0-1.1.2-1.7.5c-.6.3-1 .7-1.4 1.3V6.5c1-.8 2.2-1.2 3.7-1.2c1.3 0 2.4.4 3.2 1.1c.8.7 1.2 1.8 1.2 3.2c.03.01 0 6.4 0 6.4h-2s-.25-1.22-.3-1.2c-.5.5-1 .8-1.6 1.1c-.5.2-1.1.4-1.9.4c-1 0-1.8-.3-2.4-.9c-.6-.6-.9-1.3-.9-2.3zm2.5-.1c0 .4.1.7.3.9c.3.3.6.4 1 .4c.6 0 1.2-.2 1.7-.6c.6-.3 1-.8 1.2-1.3v-1.5s-1.22.22-1.2.2c-.9.2-1.5.3-1.8.4c-.4.2-.7.4-.9.5c-.2.3-.3.6-.3 1zm8.1 3V5.6h2.3s.08 1.37.1 1.4c.4-.5.9-.9 1.4-1.2c.4-.3 1-.5 1.7-.5c.6 0 1.1.2 1.6.5c.6.3.9.8 1.2 1.4c.4-.6.9-1.1 1.5-1.4c.5-.3 1.1-.5 1.8-.5c.6 0 1.1.2 1.6.4c.5.3.9.7 1.2 1.2c.3.6.4 1.2.4 2c.05-.01 0 7.1 0 7.1h-2.4V8.9c0-1.2-.5-1.7-1.4-1.7c-.4 0-.9.2-1.4.6c-.4.4-.8.9-.9 1.5c-.05-.05 0 6.7 0 6.7h-2.5s.04-7.2 0-7.2c0-.5-.1-1-.3-1.2c-.3-.3-.6-.4-1.1-.4c-.4 0-.9.2-1.3.5c-.4.4-.8.9-1 1.5v6.8h-2.5zM80.2 4h-2.4V1.4h2.4v2.6zm0 12h-2.4V5.6h2.4V16zm1.1-5.4c0-.9.2-1.8.6-2.6c.5-.8 1.1-1.5 2-2c.8-.4 1.8-.7 2.9-.7c.6 0 1.1.1 1.6.3c.6.1 1 .4 1.4.6v2.5c-.4-.5-.8-.8-1.3-1.1c-.5-.2-1-.3-1.6-.3c-.5 0-1 .1-1.5.4c-.5.3-.9.6-1.1 1.2c-.3.5-.5 1-.5 1.7v.4c0 .6.2 1.2.5 1.7c.3.5.6.9 1.1 1.2c.5.3 1 .4 1.5.4c1.1 0 2.1-.5 2.9-1.4v2.4c-.4.3-.8.5-1.3.7c-.6.2-1.1.3-1.8.3c-1.1 0-2-.3-2.8-.7c-.9-.5-1.5-1.2-2-2c-.4-.8-.6-1.6-.6-2.6v-.4z" stroke="none" fill="#fff"/></g></svg>