<?xml version="1.0" standalone="no"?><!DOCTYPE svg PUBLIC "-//W3C//DTD SVG 1.1//EN" "http://www.w3.org/Graphics/SVG/1.1/DTD/svg11.dtd"><svg xmlns="http://www.w3.org/2000/svg" version="1.1" width="160px" height="55.8px" viewBox="0 -5 160 55.8" style="top:-5px"><desc>텍스트 B</desc><defs/><g id="Polygon2779"><path d="m53.3 34.6c.4.6.9 1 1.5 1.4c.6.4 1.3.5 2 .5c.5 0 1-.1 1.4-.3c.4-.1.6-.4.8-.7c.2-.3.3-.7.3-1c0-.5-.1-.9-.4-1.3c-.3-.3-.8-.7-1.4-1l-1.7-.9c-.7-.4-1.3-.8-1.7-1.3c-.4-.5-.6-1.1-.6-1.9c0-.5.1-1 .4-1.5c.3-.5.7-.8 1.3-1.1c.5-.3 1.2-.4 1.9-.4c.6 0 1.2.1 1.8.4c.6.2 1.1.6 1.5.9v1.8c-.4-.6-.9-1-1.5-1.4c-.6-.3-1.2-.5-1.8-.5c-.6 0-1.1.2-1.5.5c-.4.3-.6.8-.6 1.3c0 .4.2.7.4 1c.3.3.7.6 1.4 1l1.6.9c.9.4 1.5.9 1.9 1.4c.4.6.6 1.2.6 2c0 .7-.2 1.2-.5 1.7c-.4.5-.8.9-1.4 1.2c-.7.3-1.4.4-2.2.4c-.8 0-1.4-.1-2.1-.4c-.6-.2-1-.5-1.4-.9v-1.8zm8.6-.1c0 1.1.3 1.9.8 2.4c.5.6 1.2.8 2.1.8c.7 0 1.3-.2 1.8-.5c.5-.4 1-.9 1.3-1.5l.1 1.8h1.3v-8.7h-1.4s-.02 5.12 0 5.1c-.1.5-.3.9-.6 1.3c-.3.5-.7.8-1.1 1c-.4.3-.8.4-1.2.4c-.6 0-1-.2-1.3-.6c-.2-.3-.4-.9-.4-1.6c.04 0 0-5.6 0-5.6h-1.4s.03 5.71 0 5.7zm9.1 3v-8.7h1.2s.15 1.73.1 1.7c.4-.5.8-1 1.3-1.4c.6-.4 1.2-.6 1.9-.6c.9 0 1.6.3 2.1.9c.5.5.7 1.3.7 2.4c.03-.04 0 5.7 0 5.7h-1.4v-5.6c0-.8-.1-1.3-.4-1.7c-.2-.3-.7-.5-1.3-.5c-.4 0-.8.1-1.2.3c-.4.3-.7.6-1 1c-.3.5-.5.9-.6 1.4c-.04-.05 0 5.1 0 5.1H71zm8.8 0v-8.7h1.3l.1 1.5c.2-.6.6-1 1-1.3c.5-.3 1-.5 1.6-.5c.2 0 .3 0 .5.1h.3v1.3c-.2-.1-.5-.1-.9-.1c-.5 0-1 .1-1.5.5c-.5.4-.8.9-1 1.5c.03.02 0 5.7 0 5.7h-1.4zm4.8-4.5c0-.9.2-1.6.5-2.3c.4-.7.8-1.2 1.5-1.6c.6-.4 1.3-.6 2.1-.6c.8 0 1.5.2 2.1.6c.6.4 1.1.9 1.5 1.6c.3.7.5 1.4.5 2.3v.3c0 .9-.2 1.6-.5 2.3c-.4.7-.9 1.2-1.5 1.6c-.6.4-1.3.5-2.1.5c-.8 0-1.5-.1-2.1-.5c-.7-.4-1.1-.9-1.5-1.6c-.3-.7-.5-1.4-.5-2.3v-.3zm1.5.3c0 1 .2 1.8.7 2.4c.4.6 1.1.9 1.9.9c.8 0 1.4-.3 1.9-.9c.5-.6.7-1.4.7-2.4v-.3c0-1-.2-1.8-.7-2.4c-.5-.6-1.1-1-1.9-1c-.8 0-1.5.4-1.9 1c-.5.6-.7 1.4-.7 2.4v.3zm7.3-.3c0-.9.1-1.6.5-2.3c.3-.7.8-1.2 1.4-1.6c.7-.4 1.4-.6 2.2-.6c.8 0 1.5.2 2.1.6c.6.4 1.1.9 1.4 1.6c.4.7.6 1.4.6 2.3v.3c0 .9-.2 1.6-.6 2.3c-.3.7-.8 1.2-1.4 1.6c-.6.4-1.3.5-2.1.5c-.8 0-1.5-.1-2.2-.5c-.6-.4-1.1-.9-1.4-1.6c-.4-.7-.5-1.4-.5-2.3v-.3zm1.4.3c0 1 .3 1.8.7 2.4c.5.6 1.2.9 2 .9c.8 0 1.4-.3 1.9-.9c.5-.6.7-1.4.7-2.4v-.3c0-1-.2-1.8-.7-2.4c-.5-.6-1.1-1-1.9-1c-.8 0-1.5.4-2 1c-.4.6-.7 1.4-.7 2.4v.3zm6.7-3.4v-1.1h1.8s-.01-.9 0-.9c0-.5.1-1 .3-1.5c.2-.4.5-.8.9-1.1c.4-.2.9-.4 1.5-.4c.4 0 .8.1 1.1.3v1.2c-.2-.2-.6-.3-1-.3c-.4 0-.8.1-1 .5c-.3.3-.4.7-.4 1.3c.01.02 0 .9 0 .9h2.1v1.1h-2.1v7.6h-1.4v-7.6h-1.8z" stroke="none" fill="#939598"/></g><g id="Polygon2778"><path d="m65.2 13.5V1.3s3.76.04 3.8 0c1.1 0 2.2.3 3 .8c.9.5 1.6 1.2 2.1 2.1c.5.9.7 1.9.7 3v.4c0 1.1-.2 2.1-.7 3c-.5.9-1.2 1.6-2.1 2.1c-.8.5-1.9.8-3 .8h-3.8zm3.7-1.2c.9 0 1.6-.2 2.3-.6c.6-.4 1.1-1 1.5-1.7c.4-.7.6-1.5.6-2.4v-.4c0-.9-.2-1.7-.6-2.4c-.4-.7-.9-1.3-1.5-1.7c-.7-.3-1.4-.5-2.3-.5c.03-.04-2.2 0-2.2 0v9.7s2.23-.01 2.2 0zm6.9-1.8c0 1.1.2 1.9.7 2.4c.5.6 1.2.8 2.1.8c.7 0 1.3-.2 1.9-.5c.5-.4.9-.9 1.3-1.5c-.04.04.1 1.8.1 1.8h1.3V4.8h-1.5s.05 5.12 0 5.1c-.1.5-.3.9-.6 1.3c-.3.5-.6.8-1 1c-.4.3-.8.4-1.2.4c-.6 0-1.1-.2-1.3-.6c-.3-.3-.4-.9-.4-1.6V4.8h-1.4v5.7zm8.4.7c0-.6.2-1.1.5-1.5c.2-.4.6-.6 1.1-.9c.5-.2 1.2-.3 2.1-.5l2.1-.4c0-.7-.2-1.3-.5-1.7c-.4-.4-1-.6-1.8-.6c-.5 0-1.1.2-1.5.4c-.5.3-1 .6-1.3 1V5.6c.3-.3.8-.5 1.3-.8c.5-.2 1.1-.3 1.7-.3c1.1 0 2 .3 2.6.9c.6.5 1 1.4 1 2.5c-.04-.03 0 5.6 0 5.6h-1.1l-.3-1.3c-.4.5-.9.9-1.4 1.1c-.6.3-1.2.4-1.8.4c-.8 0-1.5-.2-2-.6c-.5-.5-.7-1.1-.7-1.9zm1.4-.1c0 .5.2.9.4 1.1c.3.3.7.4 1.1.4c.6 0 1.1-.2 1.7-.5c.5-.4 1-.8 1.3-1.4c-.03-.03 0-1.7 0-1.7c0 0-1.49.26-1.5.3c-.8.1-1.4.2-1.8.4c-.4.1-.7.3-.9.5c-.2.3-.3.6-.3.9zm8.8 2.4H93V1.2h1.4v12.3z" stroke="none" fill="#939598"/></g></svg>