<?xml version="1.0" standalone="no"?><!DOCTYPE svg PUBLIC "-//W3C//DTD SVG 1.1//EN" "http://www.w3.org/Graphics/SVG/1.1/DTD/svg11.dtd"><svg xmlns="http://www.w3.org/2000/svg" version="1.1" width="528px" height="67.4px" viewBox="0 -12 528 67.4" style="top:-12px"><desc>EV5 Digital Showroom</desc><defs/><g id="Polygon3371"><path d="m22.7 33.6H3.3V3.2h19.2v4.4H8.7v8.2h11.5v4.4H8.7v9h14v4.4zm12.8 0L24.4 3.2h6l8.5 24.2l8.5-24.2h5.3L41.6 33.6h-6.1zm19.3-8.2c1 1.4 2.1 2.4 3.5 3.2c1.4.7 3 1.1 4.6 1.1c1.2 0 2.3-.2 3.2-.8c1-.5 1.7-1.2 2.2-2.1c.5-.8.7-1.8.7-2.9c0-1.6-.5-2.8-1.5-3.7c-1-.9-2.2-1.4-3.7-1.4c-.9 0-1.8.2-2.5.5c-.8.4-1.4.8-1.7 1.2c-.04.02-3.6 0-3.6 0l1.4-16.9h16.1v4.5H62.4s-.64 7.34-.6 7.3c.3-.2.8-.4 1.5-.6c.7-.2 1.5-.3 2.3-.3c1.7 0 3.3.3 4.7 1.1c1.4.7 2.5 1.8 3.3 3.2c.8 1.4 1.2 3.1 1.2 5.1c0 2.1-.6 3.9-1.6 5.5c-1 1.5-2.4 2.6-4.2 3.4c-1.8.8-3.7 1.2-5.9 1.2c-3.3 0-6-.9-8.3-2.6v-6zm34.4 8.2V3.2s10.56.04 10.6 0c2.9 0 5.5.6 7.8 1.8c2.2 1.2 4 2.9 5.2 5.1c1.2 2.2 1.8 4.8 1.8 7.8v.8c0 3-.6 5.7-1.8 7.9c-1.2 2.3-3 4-5.2 5.2c-2.3 1.2-4.9 1.8-7.8 1.8c-.04.04-10.6 0-10.6 0zm10.3-4.3c1.6 0 3.1-.4 4.5-1.1c1.4-.8 2.6-1.9 3.5-3.5c.9-1.6 1.3-3.6 1.3-6v-.8c0-2.4-.4-4.3-1.3-5.9c-.9-1.5-2.1-2.6-3.5-3.3c-1.4-.7-2.9-1.1-4.5-1.1h-4.9v21.7s4.88-.02 4.9 0zm23.9-20.8h-5.2V3h5.2v5.5zm0 25.1h-5.2V11.8h5.2v21.8zm3.4-11.3c0-2.2.4-4.2 1.3-5.9c.9-1.6 2.1-2.9 3.6-3.8c1.5-.9 3.1-1.4 4.9-1.4c1.4 0 2.6.3 3.8.9c1.1.6 2 1.3 2.8 2.3c-.04-.04.3-2.6.3-2.6h4.8s-.02 20.6 0 20.6c0 3.4-1.1 5.9-3.3 7.7c-2.2 1.8-5.1 2.7-8.8 2.7c-1.7 0-3.1-.1-4.3-.5c-1.1-.3-2.2-.8-3.2-1.5v-5c1.1.9 2.2 1.5 3.4 2c1.2.4 2.5.6 4.1.6c2 0 3.7-.5 5-1.5c1.3-1.1 1.9-2.5 1.9-4.5v-1.8c-.6.9-1.5 1.6-2.7 2.1c-1.1.5-2.4.7-3.7.7c-1.9 0-3.5-.4-5-1.3c-1.5-1-2.7-2.3-3.6-4c-.9-1.7-1.3-3.6-1.3-5.8zm5.4 0c0 1.5.2 2.8.8 3.9c.6 1.1 1.3 1.9 2.2 2.4c.9.6 1.8.9 2.7.9c1.1 0 2.1-.3 3-.9c1-.6 1.7-1.5 2.2-2.6v-7.4c-.5-1-1.2-1.9-2.2-2.5c-1-.6-2-.9-3.1-.9c-.9 0-1.8.2-2.7.8c-.9.5-1.6 1.3-2.1 2.4c-.6 1.1-.8 2.4-.8 3.9zm26-13.8h-5.1V3h5.1v5.5zm0 25.1h-5.1V11.8h5.1v21.8zm7.2-17.8h-4.8v-4h4.8V5.2h5.1v6.6h4.9v4h-4.9v17.8h-5.1V15.8zm11 11.7c0-1.6.4-3 1.4-4.2c.8-.9 1.9-1.6 3.2-2.1c1.3-.5 2.9-.9 4.7-1.2l4.6-.7c-.2-2.8-2-4.3-5.3-4.3c-1.2 0-2.4.4-3.6 1c-1.2.7-2.2 1.6-3 2.7v-5c2-1.7 4.6-2.5 7.7-2.5c2.8 0 5.1.7 6.8 2.2c1.7 1.5 2.6 3.8 2.6 6.8c.02.04 0 13.4 0 13.4h-4.3s-.48-2.48-.5-2.5c-1.1 1.1-2.2 1.8-3.3 2.4c-1.2.5-2.5.7-4 .7c-2.2 0-3.9-.6-5.2-1.8c-1.2-1.2-1.8-2.8-1.8-4.9zm5.1-.2c0 .9.2 1.6.8 2.1c.5.5 1.2.7 2.1.7c1.3 0 2.5-.4 3.6-1.2c1.1-.8 1.9-1.8 2.4-2.9c.04 0 0-3 0-3l-2.6.4c-1.8.3-3.1.6-3.8.9c-.7.3-1.3.7-1.8 1.1c-.5.5-.7 1.1-.7 1.9zm23.6 6.3h-5.2V3h5.2v30.6zm14.4-8.9c1 1.5 2.3 2.7 3.9 3.7c1.7 1 3.3 1.4 5.1 1.4c1.7 0 3-.4 3.9-1.2c.9-.8 1.4-1.8 1.4-3c0-.8-.4-1.6-1-2.2c-.6-.7-1.7-1.5-3.2-2.3l-4.5-2.3c-1.9-1.1-3.3-2.2-4.2-3.3c-.9-1.2-1.4-2.8-1.4-4.7c0-1.5.4-2.8 1.1-4c.7-1.3 1.8-2.3 3.3-3c1.5-.8 3.3-1.2 5.5-1.2c3.1 0 6.1 1.1 8.8 3.1v6c-1.3-1.6-2.7-2.8-4.2-3.6c-1.5-.7-3-1.1-4.6-1.1c-1.3 0-2.3.3-3 1c-.8.7-1.2 1.5-1.2 2.4c0 .8.3 1.5.8 2.1c.4.6 1.3 1.2 2.6 1.9l4.8 2.4c2 1.1 3.6 2.3 4.6 3.7c1 1.3 1.5 3 1.5 5c0 1.8-.5 3.3-1.4 4.6c-.9 1.3-2.2 2.3-3.8 3.1c-1.7.7-3.6 1-5.8 1c-2 0-3.8-.3-5.4-1c-1.6-.7-2.8-1.4-3.6-2.2v-6.3zm23.6 8.9V3h5.1s.04 11.96 0 12c.8-1.1 1.8-2 3-2.7c1.2-.7 2.5-1.1 4-1.1c2.4 0 4.3.7 5.7 2.1c1.3 1.4 2 3.4 2 6.1c-.02-.04 0 14.2 0 14.2h-5.2s.02-14.24 0-14.2c0-2.8-1.1-4.2-3.3-4.2c-1.3 0-2.6.5-3.7 1.5c-1.2 1-2 2.2-2.5 3.6c.04.02 0 13.3 0 13.3h-5.1zm22.8-11.2c0-2.1.4-4 1.4-5.7c.9-1.7 2.2-3.1 3.9-4c1.7-1 3.6-1.5 5.6-1.5c2.1 0 4 .5 5.7 1.5c1.6.9 2.9 2.3 3.9 4c.9 1.7 1.4 3.6 1.4 5.7v.6c0 2.2-.5 4.1-1.4 5.8c-1 1.7-2.3 3-3.9 4c-1.7 1-3.6 1.4-5.7 1.4c-2 0-3.9-.4-5.6-1.4c-1.7-1-3-2.3-3.9-4c-1-1.7-1.4-3.7-1.4-5.8v-.6zm5.3.6c0 2.1.5 3.8 1.5 5.2c1 1.4 2.4 2.1 4.1 2.1c1.8 0 3.2-.7 4.2-2.1c.9-1.4 1.4-3.1 1.4-5.2v-.6c0-2.1-.5-3.8-1.4-5.2c-1-1.4-2.4-2-4.2-2c-1.7 0-3.1.6-4.1 2c-1 1.4-1.5 3.1-1.5 5.2v.6zm23.6 10.8l-6.4-22h5.2l4.2 15.8l4.2-15.8h6.3l4.3 15.9l4.2-15.9h4.6l-6.3 21.8h-5.6L305 17l-4.4 16.6l-5.8.2zm29-.2V11.8h4.8s.28 3.6.3 3.6c.4-1.3 1.2-2.3 2.4-3.1c1.2-.7 2.6-1.1 4.1-1.1c.7 0 1.3.1 1.8.2v4.6c-.6-.2-1.3-.3-2-.3c-1.4 0-2.8.4-3.9 1.3c-1.2.8-2 2-2.3 3.4c-.04.04 0 13.2 0 13.2h-5.2zm14.4-11.2c0-2.1.4-4 1.4-5.7c.9-1.7 2.2-3.1 3.9-4c1.7-1 3.5-1.5 5.6-1.5c2.1 0 4 .5 5.6 1.5c1.7.9 3 2.3 4 4c.9 1.7 1.4 3.6 1.4 5.7v.6c0 2.2-.5 4.1-1.4 5.8c-1 1.7-2.3 3-4 4c-1.6 1-3.5 1.4-5.6 1.4c-2.1 0-3.9-.4-5.6-1.4c-1.7-1-3-2.3-3.9-4c-1-1.7-1.4-3.7-1.4-5.8v-.6zm5.3.6c0 2.1.5 3.8 1.5 5.2c1 1.4 2.4 2.1 4.1 2.1c1.8 0 3.1-.7 4.1-2.1c1-1.4 1.5-3.1 1.5-5.2v-.6c0-2.1-.5-3.8-1.5-5.2c-1-1.4-2.3-2-4.1-2c-1.7 0-3.1.6-4.1 2c-1 1.4-1.5 3.1-1.5 5.2v.6zm19-.6c0-2.1.4-4 1.4-5.7c.9-1.7 2.2-3.1 3.9-4c1.7-1 3.6-1.5 5.6-1.5c2.1 0 4 .5 5.7 1.5c1.6.9 2.9 2.3 3.9 4c.9 1.7 1.4 3.6 1.4 5.7v.6c0 2.2-.5 4.1-1.4 5.8c-1 1.7-2.3 3-3.9 4c-1.7 1-3.6 1.4-5.7 1.4c-2 0-3.9-.4-5.6-1.4c-1.7-1-3-2.3-3.9-4c-1-1.7-1.4-3.7-1.4-5.8v-.6zm5.3.6c0 2.1.5 3.8 1.5 5.2c1 1.4 2.4 2.1 4.1 2.1c1.8 0 3.2-.7 4.2-2.1c.9-1.4 1.4-3.1 1.4-5.2v-.6c0-2.1-.5-3.8-1.4-5.2c-1-1.4-2.4-2-4.2-2c-1.7 0-3.1.6-4.1 2c-1 1.4-1.5 3.1-1.5 5.2v.6zm20 10.6V11.8h4.7s.22 2.88.2 2.9c.9-1.1 1.9-1.9 2.9-2.6c1-.6 2.2-.9 3.6-.9c1.3 0 2.5.3 3.5 1c1.1.7 1.9 1.7 2.5 2.9c.9-1.3 1.9-2.3 3.1-2.9c1.1-.7 2.4-1 3.9-1c1.2 0 2.3.3 3.3.8c1 .6 1.9 1.4 2.5 2.6c.6 1.1 1 2.5 1 4.1c-.04.02 0 14.9 0 14.9h-5.2V18.7c0-2.4-1-3.6-2.8-3.6c-1.1 0-2.1.4-3 1.3c-1 .8-1.7 1.9-2.1 3.1c.02-.02 0 14.1 0 14.1h-5.1s.04-15.08 0-15.1c0-1.1-.2-2-.7-2.6c-.5-.5-1.3-.8-2.2-.8c-1 0-2 .4-2.8 1.2c-.9.8-1.6 1.8-2.1 3.1c-.04 0 0 14.2 0 14.2h-5.2z" stroke="none" fill="#000"/></g></svg>