<?xml version="1.0" standalone="no"?><!DOCTYPE svg PUBLIC "-//W3C//DTD SVG 1.1//EN" "http://www.w3.org/Graphics/SVG/1.1/DTD/svg11.dtd"><svg xmlns="http://www.w3.org/2000/svg" version="1.1" width="145px" height="55.8px" viewBox="0 -5 145 55.8" style="top:-5px"><desc>텍스트 B</desc><defs/><g id="Polygon2535"><path d="m8.5 37.5H1.4V25.3h1.5v11h5.6v1.2zm2.3-10.2H9.4v-1.7h1.4v1.7zm0 10.2H9.4v-8.7h1.4v8.7zm1-4.6c0-.9.2-1.6.5-2.3c.3-.7.8-1.2 1.3-1.5c.6-.4 1.3-.6 2-.6c.6 0 1.1.2 1.6.5c.5.2.9.6 1.2 1.1c-.02 0 .1-1.3.1-1.3h1.3s-.02 8.38 0 8.4c0 .8-.2 1.5-.5 2.1c-.4.6-.9 1.1-1.5 1.4c-.7.3-1.5.5-2.4.5c-.5 0-1.1-.1-1.5-.2c-.5-.1-.9-.3-1.3-.6V39c.8.7 1.8 1 2.9 1c.8 0 1.5-.2 2.1-.7c.5-.5.8-1.2.8-2.1v-1.4c-.3.5-.7.8-1.2 1.1c-.5.3-1 .4-1.6.4c-.7 0-1.4-.2-2-.5c-.5-.4-1-.9-1.3-1.6c-.3-.6-.5-1.4-.5-2.3zm1.5 0c0 .7.1 1.3.3 1.8c.3.4.6.8 1 1.1c.3.2.8.4 1.2.4c.6 0 1.1-.2 1.5-.6c.5-.4.8-.9 1.1-1.4v-2.5c-.3-.6-.6-1.1-1.1-1.5c-.4-.4-.9-.6-1.5-.6c-.4 0-.9.2-1.3.4c-.4.3-.7.7-.9 1.2c-.2.5-.3 1-.3 1.7zm8.1 4.6V25.2h1.4s.05 5.3 0 5.3c.4-.5.8-1 1.3-1.4c.6-.4 1.2-.6 1.8-.6c1 0 1.7.3 2.2.9c.5.5.7 1.3.7 2.4v5.7h-1.4v-5.6c0-.8-.1-1.3-.4-1.7c-.2-.3-.7-.5-1.3-.5c-.4 0-.8.1-1.2.3c-.4.3-.7.6-1 1c-.3.4-.5.8-.7 1.3c.05 0 0 5.2 0 5.2h-1.4zm9.8-7.6h-2v-1.1h2v-2.7h1.4v2.7h1.9v1.1h-1.9v7.6h-1.4v-7.6zm5.3-2.6h-1.4v-1.7h1.4v1.7zm0 10.2h-1.4v-8.7h1.4v8.7zm1.7 0v-8.7h1.2s.15 1.73.2 1.7c.3-.5.7-1 1.2-1.4c.6-.4 1.2-.6 1.9-.6c.9 0 1.6.3 2.1.9c.5.5.7 1.3.7 2.4c.04-.04 0 5.7 0 5.7h-1.4v-5.6c0-.8-.1-1.3-.4-1.7c-.2-.3-.7-.5-1.3-.5c-.3 0-.7.1-1.1.3c-.4.3-.8.6-1.1 1c-.3.5-.5.9-.6 1.4c-.03-.05 0 5.1 0 5.1h-1.4zm8.2-4.6c0-.9.2-1.6.5-2.3c.3-.7.7-1.2 1.3-1.5c.6-.4 1.3-.6 2-.6c.6 0 1.1.2 1.6.5c.5.2.9.6 1.2 1.1c-.02 0 .1-1.3.1-1.3h1.3s-.03 8.38 0 8.4c0 .8-.2 1.5-.5 2.1c-.4.6-.9 1.1-1.5 1.4c-.7.3-1.5.5-2.4.5c-.6 0-1.1-.1-1.5-.2c-.5-.1-.9-.3-1.3-.6V39c.8.7 1.8 1 2.8 1c.9 0 1.6-.2 2.2-.7c.5-.5.8-1.2.8-2.1v-1.4c-.4.5-.7.8-1.2 1.1c-.5.3-1 .4-1.6.4c-.7 0-1.4-.2-2-.5c-.6-.4-1-.9-1.3-1.6c-.3-.6-.5-1.4-.5-2.3zm1.5 0c0 .7.1 1.3.3 1.8c.2.4.6.8.9 1.1c.4.2.9.4 1.3.4c.6 0 1.1-.2 1.5-.6c.5-.4.8-.9 1.1-1.4v-2.5c-.3-.6-.6-1.1-1.1-1.5c-.5-.4-1-.6-1.5-.6c-.5 0-.9.2-1.3.4c-.4.3-.7.7-.9 1.2c-.2.5-.3 1-.3 1.7z" stroke="none" fill="#939598"/></g><g id="Polygon2534"><path d="m1.4 13.5V1.3s3.72.04 3.7 0c1.2 0 2.2.3 3.1.8c.9.5 1.6 1.2 2.1 2.1c.4.9.7 1.9.7 3v.4c0 1.1-.3 2.1-.7 3c-.5.9-1.2 1.6-2.1 2.1c-.9.5-1.9.8-3.1.8H1.4zm3.7-1.2c.8 0 1.6-.2 2.2-.6c.7-.4 1.2-1 1.6-1.7c.4-.7.5-1.5.5-2.4v-.4c0-.9-.1-1.7-.5-2.4c-.4-.7-.9-1.3-1.6-1.7c-.6-.3-1.4-.5-2.2-.5c-.01-.04-2.2 0-2.2 0v9.7s2.19-.01 2.2 0zm8.4-9h-1.4V1.6h1.4v1.7zm0 10.2h-1.4V4.8h1.4v8.7zm1.1-4.6c0-.9.1-1.6.4-2.3c.4-.7.8-1.2 1.4-1.5c.6-.4 1.2-.6 2-.6c.5 0 1.1.2 1.5.5c.5.2.9.6 1.2 1.1c.04 0 .1-1.3.1-1.3h1.3s.03 8.38 0 8.4c0 .8-.1 1.5-.5 2.1c-.3.6-.8 1.1-1.5 1.4c-.6.3-1.4.5-2.3.5c-.6 0-1.1-.1-1.6-.2c-.4-.1-.8-.3-1.2-.6V15c.8.7 1.7 1 2.8 1c.9 0 1.6-.2 2.1-.7c.6-.5.8-1.2.8-2.1v-1.4c-.3.5-.7.8-1.2 1.1c-.5.3-1 .4-1.5.4c-.8 0-1.4-.2-2-.5c-.6-.4-1-.9-1.4-1.6c-.3-.6-.4-1.4-.4-2.3zm1.4 0c0 .7.1 1.3.4 1.8c.2.4.5.8.9 1.1c.4.2.8.4 1.3.4c.5 0 1-.2 1.5-.6c.5-.4.8-.9 1-1.4V7.7c-.2-.6-.6-1.1-1-1.5c-.5-.4-1-.6-1.5-.6c-.5 0-.9.2-1.3.4c-.4.3-.7.7-.9 1.2c-.3.5-.4 1-.4 1.7zm9.6-5.6h-1.4V1.6h1.4v1.7zm0 10.2h-1.4V4.8h1.4v8.7zm2.5-7.6h-1.9V4.8h1.9V2.1h1.4v2.7h2v1.1h-2v7.6h-1.4V5.9zm3.3 5.3c0-.6.2-1.1.5-1.5c.3-.4.6-.6 1.1-.9c.5-.2 1.2-.3 2.1-.5l2.2-.4c0-.7-.2-1.3-.6-1.7c-.4-.4-1-.6-1.7-.6c-.6 0-1.1.2-1.6.4c-.5.3-.9.6-1.3 1V5.6c.4-.3.8-.5 1.3-.8c.5-.2 1.1-.3 1.7-.3c1.1 0 2 .3 2.6.9c.7.5 1 1.4 1 2.5v5.6h-1.1s-.27-1.34-.3-1.3c-.4.5-.9.9-1.4 1.1c-.6.3-1.2.4-1.8.4c-.8 0-1.5-.2-1.9-.6c-.5-.5-.8-1.1-.8-1.9zm1.4-.1c0 .5.2.9.5 1.1c.2.3.6.4 1.1.4c.5 0 1.1-.2 1.6-.5c.6-.4 1-.8 1.3-1.4V9s-1.46.26-1.5.3c-.8.1-1.4.2-1.8.4c-.4.1-.7.3-.9.5c-.2.3-.3.6-.3.9zm8.8 2.4h-1.4V1.2h1.4v12.3zm5.3 0V1.3s4.4.04 4.4 0c.8 0 1.5.2 2.1.5c.6.3 1.1.7 1.4 1.2c.4.5.5 1.1.5 1.8v.2c0 .7-.1 1.3-.5 1.8c-.3.5-.8.9-1.4 1.2c-.6.3-1.3.5-2.1.5c0-.02-2.9 0-2.9 0v5h-1.5zm4.2-6.2c.9 0 1.5-.2 2-.6c.5-.4.7-1 .7-1.7v-.2c0-.7-.2-1.2-.7-1.6c-.5-.5-1.1-.7-2-.7c.04.04-2.7 0-2.7 0v4.8s2.74-.04 2.7 0zm4.4 3.9c0-.6.1-1.1.5-1.5c.2-.4.6-.6 1.1-.9c.5-.2 1.2-.3 2.1-.5l2.1-.4c0-.7-.2-1.3-.6-1.7c-.3-.4-.9-.6-1.7-.6c-.5 0-1.1.2-1.6.4c-.5.3-.9.6-1.2 1V5.6c.3-.3.7-.5 1.2-.8c.6-.2 1.1-.3 1.8-.3c1.1 0 1.9.3 2.6.9c.6.5.9 1.4.9 2.5c.04-.03 0 5.6 0 5.6h-1.1s-.22-1.34-.2-1.3c-.4.5-.9.9-1.5 1.1c-.5.3-1.1.4-1.8.4c-.8 0-1.4-.2-1.9-.6c-.5-.5-.7-1.1-.7-1.9zm1.4-.1c0 .5.1.9.4 1.1c.3.3.7.4 1.1.4c.6 0 1.1-.2 1.7-.5c.5-.4.9-.8 1.2-1.4c.04-.03 0-1.7 0-1.7c0 0-1.41.26-1.4.3c-.8.1-1.4.2-1.8.4c-.4.1-.7.3-.9.5c-.2.3-.3.6-.3.9zm8.2-5.2h-1.9V4.8h1.9V2.1h1.4v2.7h2v1.1h-2v7.6h-1.4V5.9zm5.1 0h-1.9V4.8h1.9V2.1h1.4v2.7h2v1.1h-2v7.6h-1.4V5.9zm3.3 3c0-.8.2-1.6.5-2.2c.4-.7.8-1.2 1.4-1.6c.6-.4 1.3-.6 2.1-.6c1.1 0 2 .4 2.7 1.2c.7.8 1 1.9 1 3.3v.6h-6.3c.1.9.4 1.6.8 2.2c.5.5 1.1.8 1.9.8c1.3 0 2.3-.4 3.1-1.3v1.4c-.4.3-.8.6-1.3.8c-.5.2-1.1.2-1.8.2c-.8 0-1.6-.1-2.2-.5c-.6-.4-1.1-.9-1.4-1.6c-.3-.7-.5-1.4-.5-2.3v-.4zm6.3-.4c0-.9-.2-1.7-.6-2.1c-.5-.5-1-.8-1.7-.8c-.5 0-.9.2-1.3.4c-.3.2-.6.6-.8 1c-.3.4-.4.9-.4 1.5h4.8zm2.5 5V4.8h1.3s.05 1.49 0 1.5c.3-.6.6-1 1.1-1.3c.4-.3.9-.5 1.6-.5c.1 0 .3 0 .4.1h.4v1.3c-.3-.1-.6-.1-.9-.1c-.6 0-1.1.1-1.5.5c-.5.4-.8.9-1 1.5c-.02.02 0 5.7 0 5.7h-1.4zm5.4 0V4.8h1.2s.15 1.73.2 1.7c.3-.5.7-1 1.2-1.4c.6-.4 1.2-.6 1.9-.6c.9 0 1.6.3 2.1.9c.5.5.7 1.3.7 2.4c.04-.04 0 5.7 0 5.7h-1.4V7.9c0-.8-.1-1.3-.4-1.7c-.2-.3-.7-.5-1.2-.5c-.4 0-.8.1-1.2.3c-.4.3-.8.6-1.1 1c-.3.5-.5.9-.6 1.4c-.03-.05 0 5.1 0 5.1h-1.4z" stroke="none" fill="#939598"/></g></svg>