<?xml version="1.0" standalone="no"?><!DOCTYPE svg PUBLIC "-//W3C//DTD SVG 1.1//EN" "http://www.w3.org/Graphics/SVG/1.1/DTD/svg11.dtd"><svg xmlns="http://www.w3.org/2000/svg" version="1.1" width="206px" height="267.8px" viewBox="0 -6 206 267.8" style="top:-6px"><desc>텍스트 B</desc><defs/><g id="Polygon3060"><path d="m.7 247.9c0-.8.1-1.6.5-2.2c.3-.7.8-1.2 1.4-1.6c.5-.4 1.2-.6 2-.6c1.2 0 2.1.4 2.8 1.2c.6.8 1 1.9 1 3.3c-.05.02 0 .6 0 .6H2.1c0 .9.3 1.6.8 2.2c.4.5 1.1.8 1.9.8c1.2 0 2.2-.4 3.1-1.3v1.4c-.4.3-.9.6-1.3.8c-.5.2-1.1.2-1.8.2c-.9 0-1.6-.1-2.2-.5c-.6-.4-1.1-.9-1.4-1.6c-.4-.7-.5-1.4-.5-2.3v-.4zm6.2-.4c0-.9-.2-1.7-.6-2.1c-.4-.5-1-.8-1.7-.8c-.4 0-.8.2-1.2.4c-.4.2-.7.6-.9 1c-.2.4-.4.9-.4 1.5h4.8zm4.8 5l-3.3-8.7h1.5l2.7 7.2l2.6-7.2h1.4l-3.3 8.7h-1.6zm4.9-4.6c0-.8.2-1.6.5-2.2c.3-.7.8-1.2 1.4-1.6c.6-.4 1.2-.6 2-.6c1.2 0 2.1.4 2.8 1.2c.6.8 1 1.9 1 3.3c-.03.02 0 .6 0 .6H18c.1.9.3 1.6.8 2.2c.5.5 1.1.8 1.9.8c1.2 0 2.2-.4 3.1-1.3v1.4c-.4.3-.8.6-1.3.8c-.5.2-1.1.2-1.8.2c-.9 0-1.6-.1-2.2-.5c-.6-.4-1.1-.9-1.4-1.6c-.3-.7-.5-1.4-.5-2.3v-.4zm6.3-.4c0-.9-.3-1.7-.7-2.1c-.4-.5-1-.8-1.7-.8c-.4 0-.8.2-1.2.4c-.4.2-.7.6-.9 1c-.2.4-.4.9-.4 1.5h4.9zm2.4 5v-8.7h1.3l.1 1.5c.2-.6.6-1 1-1.3c.5-.3 1-.5 1.6-.5c.2 0 .3 0 .5.1h.3v1.3c-.2-.1-.5-.1-.9-.1c-.5 0-1 .1-1.5.5c-.4.4-.8.9-1 1.5c.04.02 0 5.7 0 5.7h-1.4zm8.2 0l-3.5-8.7h1.6l2.6 7l2.7-7h1.5L33.5 256H32l1.5-3.5zm4.8-4.5c0-.9.2-1.6.5-2.3c.4-.7.9-1.2 1.5-1.6c.6-.4 1.3-.6 2.1-.6c.8 0 1.5.2 2.1.6c.7.4 1.1.9 1.5 1.6c.3.7.5 1.4.5 2.3v.3c0 .9-.2 1.6-.5 2.3c-.4.7-.8 1.2-1.5 1.6c-.6.4-1.3.5-2.1.5c-.8 0-1.5-.1-2.1-.5c-.6-.4-1.1-.9-1.5-1.6c-.3-.7-.5-1.4-.5-2.3v-.3zm1.5.3c0 1 .2 1.8.7 2.4c.5.6 1.1.9 1.9.9c.8 0 1.5-.3 2-.9c.4-.6.7-1.4.7-2.4v-.3c0-1-.3-1.8-.7-2.4c-.5-.6-1.2-1-2-1c-.8 0-1.4.4-1.9 1c-.5.6-.7 1.4-.7 2.4v.3zm7.8 4.2v-8.7h1.2s.16 1.73.2 1.7c.3-.5.7-1 1.2-1.4c.6-.4 1.2-.6 1.9-.6c.9 0 1.6.3 2.1.9c.5.5.7 1.3.7 2.4c.04-.04 0 5.7 0 5.7h-1.4s.02-5.63 0-5.6c0-.8-.1-1.3-.4-1.7c-.2-.3-.6-.5-1.2-.5c-.4 0-.8.1-1.2.3c-.4.3-.8.6-1.1 1c-.3.5-.5.9-.6 1.4c-.02-.05 0 5.1 0 5.1h-1.4zm8.2-4.6c0-.8.2-1.6.5-2.2c.3-.7.8-1.2 1.4-1.6c.6-.4 1.2-.6 2-.6c1.2 0 2.1.4 2.8 1.2c.6.8 1 1.9 1 3.3c-.03.02 0 .6 0 .6h-6.3c.1.9.3 1.6.8 2.2c.5.5 1.1.8 1.9.8c1.2 0 2.2-.4 3.1-1.3v1.4c-.4.3-.8.6-1.3.8c-.5.2-1.1.2-1.8.2c-.9 0-1.6-.1-2.2-.5c-.6-.4-1.1-.9-1.4-1.6c-.3-.7-.5-1.4-.5-2.3v-.4zm6.3-.4c0-.9-.3-1.7-.7-2.1c-.4-.5-1-.8-1.7-.8c-.4 0-.8.2-1.2.4c-.4.2-.7.6-.9 1c-.2.4-.4.9-.4 1.5h4.9zm6.8-2.6H67v-1.1h1.9v-2.7h1.4v2.7h1.9v1.1h-1.9v7.6h-1.4v-7.6zm3.2 3.1c0-.9.2-1.6.5-2.3c.4-.7.9-1.2 1.5-1.6c.6-.4 1.3-.6 2.1-.6c.8 0 1.5.2 2.1.6c.7.4 1.1.9 1.5 1.6c.3.7.5 1.4.5 2.3v.3c0 .9-.2 1.6-.5 2.3c-.4.7-.8 1.2-1.5 1.6c-.6.4-1.3.5-2.1.5c-.8 0-1.5-.1-2.1-.5c-.6-.4-1.1-.9-1.5-1.6c-.3-.7-.5-1.4-.5-2.3v-.3zm1.5.3c0 1 .2 1.8.7 2.4c.5.6 1.1.9 1.9.9c.8 0 1.5-.3 1.9-.9c.5-.6.7-1.4.7-2.4v-.3c0-1-.2-1.8-.7-2.4c-.4-.6-1.1-1-1.9-1c-.8 0-1.4.4-1.9 1c-.5.6-.7 1.4-.7 2.4v.3zm7.3-.4c0-.9.2-1.6.5-2.3c.3-.7.7-1.2 1.3-1.5c.6-.4 1.3-.6 2-.6c.6 0 1.1.2 1.6.5c.5.2.9.6 1.2 1.1c-.03 0 .1-1.3.1-1.3h1.3s-.04 8.38 0 8.4c0 .8-.2 1.5-.5 2.1c-.4.6-.9 1.1-1.5 1.4c-.7.3-1.5.5-2.4.5c-.6 0-1.1-.1-1.5-.2c-.5-.1-.9-.3-1.3-.6V254c.8.7 1.8 1 2.8 1c.9 0 1.6-.2 2.2-.7c.5-.5.8-1.2.8-2.1v-1.4c-.4.5-.8.8-1.2 1.1c-.5.3-1 .4-1.6.4c-.7 0-1.4-.2-2-.5c-.6-.4-1-.9-1.3-1.6c-.3-.6-.5-1.4-.5-2.3zm1.5 0c0 .7.1 1.3.3 1.8c.2.4.5.8.9 1.1c.4.2.9.4 1.3.4c.6 0 1.1-.2 1.5-.6c.5-.4.8-.9 1.1-1.4v-2.5c-.3-.6-.6-1.1-1.1-1.5c-.5-.4-1-.6-1.5-.6c-.5 0-.9.2-1.3.4c-.4.3-.7.7-.9 1.2c-.2.5-.3 1-.3 1.7zm7.5 0c0-.8.2-1.6.5-2.2c.3-.7.8-1.2 1.4-1.6c.6-.4 1.2-.6 2-.6c1.2 0 2.1.4 2.8 1.2c.6.8 1 1.9 1 3.3c-.03.02 0 .6 0 .6h-6.3c0 .9.3 1.6.8 2.2c.4.5 1.1.8 1.9.8c1.2 0 2.2-.4 3.1-1.3v1.4c-.4.3-.8.6-1.3.8c-.5.2-1.1.2-1.8.2c-.9 0-1.6-.1-2.2-.5c-.6-.4-1.1-.9-1.4-1.6c-.4-.7-.5-1.4-.5-2.3v-.4zm6.3-.4c-.1-.9-.3-1.7-.7-2.1c-.4-.5-1-.8-1.7-.8c-.4 0-.8.2-1.2.4c-.4.2-.7.6-.9 1c-.2.4-.4.9-.4 1.5h4.9zm3.3-2.6h-1.9v-1.1h1.9v-2.7h1.4v2.7h1.9v1.1h-1.9v7.6h-1.4v-7.6zm3.9 7.6v-12.3h1.4v5.3c.3-.5.8-1 1.3-1.4c.5-.4 1.1-.6 1.8-.6c.9 0 1.6.3 2.1.9c.5.5.8 1.3.8 2.4c-.03-.04 0 5.7 0 5.7h-1.4s-.04-5.63 0-5.6c0-.8-.2-1.3-.4-1.7c-.3-.3-.7-.5-1.3-.5c-.4 0-.8.1-1.2.3c-.4.3-.7.6-1.1 1c-.3.4-.5.8-.6 1.3v5.2h-1.4zm8.2-4.6c0-.8.2-1.6.5-2.2c.4-.7.8-1.2 1.4-1.6c.6-.4 1.3-.6 2.1-.6c1.1 0 2 .4 2.7 1.2c.7.8 1 1.9 1 3.3v.6H113c.1.9.4 1.6.8 2.2c.5.5 1.1.8 1.9.8c1.3 0 2.3-.4 3.1-1.3v1.4c-.4.3-.8.6-1.3.8c-.5.2-1.1.2-1.8.2c-.8 0-1.6-.1-2.2-.5c-.6-.4-1.1-.9-1.4-1.6c-.3-.7-.5-1.4-.5-2.3v-.4zm6.3-.4c0-.9-.2-1.7-.7-2.1c-.4-.5-.9-.8-1.6-.8c-.5 0-.9.2-1.3.4c-.3.2-.6.6-.9 1c-.2.4-.3.9-.3 1.5h4.8zm2.5 5v-8.7h1.2s.14 1.49.1 1.5c.3-.6.6-1 1.1-1.3c.4-.3.9-.5 1.6-.5c.1 0 .3 0 .4.1h.4v1.3c-.3-.1-.6-.1-.9-.1c-.6 0-1.1.1-1.5.5c-.5.4-.8.9-1 1.5c-.03.02 0 5.7 0 5.7h-1.4zm5.6 0h-1.8v-2.1h1.8v2.1z" stroke="none" fill="#fff"/></g><g id="Polygon3059"><path d="m.7 220c0-.9.2-1.6.5-2.3c.4-.7.8-1.2 1.5-1.6c.6-.4 1.3-.6 2.1-.6c.8 0 1.5.2 2.1.6c.6.4 1.1.9 1.5 1.6c.3.7.5 1.4.5 2.3v.3c0 .9-.2 1.6-.5 2.3c-.4.7-.9 1.2-1.5 1.6c-.6.4-1.3.5-2.1.5c-.8 0-1.5-.1-2.1-.5c-.7-.4-1.1-.9-1.5-1.6c-.3-.7-.5-1.4-.5-2.3v-.3zm1.5.3c0 1 .2 1.8.7 2.4c.4.6 1.1.9 1.9.9c.8 0 1.5-.3 1.9-.9c.5-.6.7-1.4.7-2.4v-.3c0-1-.2-1.8-.7-2.4c-.4-.6-1.1-1-1.9-1c-.8 0-1.5.4-1.9 1c-.5.6-.7 1.4-.7 2.4v.3zm7.7 4.2v-8.7h1.3s.13 1.73.1 1.7c.3-.5.8-1 1.3-1.4c.6-.4 1.2-.6 1.8-.6c1 0 1.7.3 2.2.9c.5.5.7 1.3.7 2.4v5.7h-1.4v-5.6c0-.8-.1-1.3-.4-1.7c-.3-.3-.7-.5-1.3-.5c-.4 0-.8.1-1.2.3c-.4.3-.7.6-1 1c-.3.5-.5.9-.7 1.4c.04-.05 0 5.1 0 5.1H9.9zm8.3-4.6c0-.8.1-1.6.5-2.2c.3-.7.7-1.2 1.3-1.6c.6-.4 1.3-.6 2.1-.6c1.2 0 2.1.4 2.7 1.2c.7.8 1 1.9 1 3.3c.04.02 0 .6 0 .6h-6.2c0 .9.3 1.6.8 2.2c.4.5 1.1.8 1.9.8c1.2 0 2.2-.4 3-1.3v1.4c-.3.3-.8.6-1.3.8c-.5.2-1.1.2-1.7.2c-.9 0-1.6-.1-2.2-.5c-.7-.4-1.1-.9-1.5-1.6c-.3-.7-.4-1.4-.4-2.3v-.4zm6.2-.4c0-.9-.2-1.7-.6-2.1c-.5-.5-1-.8-1.7-.8c-.5 0-.9.2-1.2.4c-.4.2-.7.6-.9 1c-.3.4-.4.9-.4 1.5h4.8zm2.1 2.8c.8.9 1.7 1.3 2.8 1.3c.6 0 1.1-.1 1.4-.4c.3-.2.5-.5.5-.9c0-.3-.1-.6-.3-.8c-.1-.2-.5-.4-1-.6l-1.2-.5c-.7-.3-1.2-.7-1.6-1.1c-.3-.4-.5-.8-.5-1.4c0-.4.1-.8.4-1.2c.2-.4.5-.6 1-.9c.4-.2 1-.3 1.6-.3c.5 0 1 .1 1.5.3c.4.2.8.4 1.2.7v1.5c-.4-.4-.9-.8-1.3-1c-.5-.2-.9-.3-1.4-.3c-.5 0-.9.1-1.2.3c-.3.2-.4.5-.4.8c0 .3.1.5.3.7c.2.2.6.4 1.1.6l1.1.5c.8.3 1.3.6 1.6 1c.3.5.5 1 .5 1.6c0 .8-.3 1.4-.9 1.8c-.6.5-1.4.7-2.4.7c-.6 0-1.1 0-1.6-.2c-.5-.2-.9-.4-1.2-.7v-1.5zm12.1-8h-1.4v-1.7h1.4v1.7zm0 10.2h-1.4v-8.7h1.4v8.7zm1.7 0v-8.7h1.2s.15 1.73.1 1.7c.4-.5.8-1 1.3-1.4c.6-.4 1.2-.6 1.9-.6c.9 0 1.6.3 2.1.9c.5.5.7 1.3.7 2.4c.03-.04 0 5.7 0 5.7h-1.4v-5.6c0-.8-.1-1.3-.4-1.7c-.2-.3-.7-.5-1.3-.5c-.4 0-.7.1-1.1.3c-.4.3-.8.6-1.1 1c-.3.5-.5.9-.6 1.4c-.04-.05 0 5.1 0 5.1h-1.4zm13.2-7.6h-1.9v-1.1h1.9v-2.7h1.4v2.7h1.9v1.1h-1.9v7.6h-1.4v-7.6zm3.9 7.6v-12.3h1.4s.03 5.3 0 5.3c.4-.5.8-1 1.3-1.4c.6-.4 1.2-.6 1.8-.6c.9 0 1.7.3 2.1.9c.5.5.8 1.3.8 2.4c-.02-.04 0 5.7 0 5.7h-1.4s-.02-5.63 0-5.6c0-.8-.2-1.3-.4-1.7c-.3-.3-.7-.5-1.3-.5c-.4 0-.8.1-1.2.3c-.4.3-.7.6-1 1c-.3.4-.6.8-.7 1.3c.03 0 0 5.2 0 5.2h-1.4zm8.2-4.6c0-.8.2-1.6.5-2.2c.4-.7.8-1.2 1.4-1.6c.6-.4 1.3-.6 2.1-.6c1.1 0 2.1.4 2.7 1.2c.7.8 1 1.9 1 3.3c.03.02 0 .6 0 .6h-6.2c0 .9.3 1.6.7 2.2c.5.5 1.1.8 1.9.8c1.3 0 2.3-.4 3.1-1.3v1.4c-.3.3-.8.6-1.3.8c-.5.2-1.1.2-1.8.2c-.8 0-1.5-.1-2.2-.5c-.6-.4-1-.9-1.4-1.6c-.3-.7-.5-1.4-.5-2.3v-.4zm6.3-.4c0-.9-.2-1.7-.6-2.1c-.5-.5-1-.8-1.7-.8c-.5 0-.9.2-1.2.4c-.4.2-.7.6-.9 1c-.3.4-.4.9-.4 1.5h4.8zm5.5 2.1c.4.6.8 1.1 1.4 1.4c.5.3 1.2.5 1.9.5c.7 0 1.4-.2 1.9-.7c.5-.4.8-.9.8-1.6c0-.7-.2-1.2-.7-1.7c-.4-.4-1-.7-1.9-.7c-.05.01-1.1 0-1.1 0v-1.2s1.02-.02 1 0c.7 0 1.2-.2 1.7-.6c.5-.3.7-.8.7-1.4c0-.7-.2-1.2-.7-1.5c-.4-.4-.9-.6-1.5-.6c-.7 0-1.2.2-1.7.5c-.5.4-.9.8-1.3 1.4v-1.8c.3-.3.7-.6 1.3-.9c.5-.2 1.1-.4 1.8-.4c.7 0 1.4.2 1.9.5c.6.2 1 .6 1.3 1.1c.3.4.4 1 .4 1.5c0 1.3-.7 2.2-2.1 2.7c.8.2 1.4.6 1.8 1.1c.4.6.6 1.2.6 2c0 .7-.2 1.3-.5 1.8c-.4.5-.9.9-1.5 1.2c-.6.3-1.4.5-2.2.5c-.7 0-1.4-.2-1.9-.4c-.6-.2-1.1-.5-1.4-.9v-1.8zm8.9 2.9v-8.7h1.3s.06 1.49.1 1.5c.2-.6.6-1 1-1.3c.4-.3 1-.5 1.6-.5c.1 0 .3 0 .4.1h.4v1.3c-.2-.1-.5-.1-.9-.1c-.6 0-1.1.1-1.5.5c-.5.4-.8.9-1 1.5v5.7h-1.4zm4.8-4.4c0-.9.1-1.7.5-2.4c.3-.7.7-1.2 1.3-1.6c.6-.4 1.3-.6 2-.6c.5 0 1.1.2 1.6.5c.5.2.9.6 1.2 1.1v-4.9h1.4v12.3h-1.3l-.1-1.4c-.3.5-.7.9-1.2 1.2c-.5.3-1 .4-1.6.4c-.7 0-1.4-.1-2-.5c-.6-.4-1-.9-1.3-1.6c-.4-.7-.5-1.6-.5-2.5zm1.4 0c0 .7.1 1.4.4 1.9c.2.5.5.9.9 1.2c.4.3.8.4 1.3.4c.6 0 1.1-.2 1.5-.6c.5-.4.9-.9 1.1-1.4v-2.9c-.2-.6-.6-1.1-1.1-1.5c-.4-.4-.9-.6-1.5-.6c-.5 0-.9.2-1.3.5c-.4.3-.7.7-.9 1.2c-.3.5-.4 1.1-.4 1.8zm11.8 4.4v-8.7h1.3s.06 1.49.1 1.5c.2-.6.6-1 1-1.3c.4-.3 1-.5 1.6-.5c.1 0 .3 0 .4.1h.4v1.3c-.2-.1-.5-.1-.9-.1c-.6 0-1.1.1-1.5.5c-.5.4-.8.9-1 1.5v5.7h-1.4zm4.8-4.5c0-.9.1-1.6.5-2.3c.3-.7.8-1.2 1.4-1.6c.7-.4 1.4-.6 2.2-.6c.8 0 1.5.2 2.1.6c.6.4 1.1.9 1.4 1.6c.4.7.5 1.4.5 2.3v.3c0 .9-.1 1.6-.5 2.3c-.3.7-.8 1.2-1.4 1.6c-.6.4-1.3.5-2.1.5c-.8 0-1.5-.1-2.2-.5c-.6-.4-1.1-.9-1.4-1.6c-.4-.7-.5-1.4-.5-2.3v-.3zm1.4.3c0 1 .3 1.8.7 2.4c.5.6 1.1.9 2 .9c.8 0 1.4-.3 1.9-.9c.5-.6.7-1.4.7-2.4v-.3c0-1-.2-1.8-.7-2.4c-.5-.6-1.1-1-1.9-1c-.9 0-1.5.4-2 1c-.4.6-.7 1.4-.7 2.4v.3zm9.1 4.2l-2.5-8.7h1.5l1.9 7.2l1.9-7.2h1.8l1.9 7.1l2-7.1h1.3l-2.5 8.7h-1.7l-1.9-7.2l-2 7.2h-1.7zm10 2h-1.1l.7-4.1h1.8l-1.4 4.1zm6.3-2v-12.3h1.4s-.04 4.86 0 4.9c.3-.5.7-.9 1.2-1.1c.5-.3 1-.5 1.6-.5c.7 0 1.3.2 1.9.6c.6.4 1.1.9 1.4 1.6c.3.7.5 1.5.5 2.4c0 .9-.2 1.8-.5 2.5c-.3.7-.8 1.2-1.4 1.6c-.6.4-1.2.5-1.9.5c-.6 0-1.1-.1-1.6-.4c-.5-.3-.9-.7-1.3-1.2c.05.04-.1 1.4-.1 1.4h-1.2zm1.4-2.9c.2.5.5 1 1 1.4c.5.4 1 .6 1.5.6c.5 0 1-.1 1.4-.4c.4-.3.7-.7.9-1.2c.2-.5.3-1.2.3-1.9c0-.7-.1-1.3-.3-1.8c-.2-.5-.6-.9-.9-1.2c-.4-.3-.9-.5-1.4-.5c-.5 0-1 .2-1.5.6c-.5.4-.8.9-1 1.5v2.9zm7.6 2.9v-8.7h1.3s.12 1.49.1 1.5c.3-.6.6-1 1.1-1.3c.4-.3.9-.5 1.5-.5c.2 0 .3 0 .5.1h.3v1.3c-.2-.1-.5-.1-.9-.1c-.5 0-1 .1-1.5.5c-.4.4-.8.9-.9 1.5c-.05.02 0 5.7 0 5.7h-1.5zm6.8-10.2h-1.4v-1.7h1.4v1.7zm0 10.2h-1.4v-8.7h1.4v8.7zm1.7 0v-8.7h1.3l.1 1.7c.3-.5.7-1 1.3-1.4c.5-.4 1.1-.6 1.8-.6c.9 0 1.6.3 2.1.9c.5.5.8 1.3.8 2.4c-.02-.04 0 5.7 0 5.7h-1.4s-.04-5.63 0-5.6c0-.8-.2-1.3-.4-1.7c-.3-.3-.7-.5-1.3-.5c-.4 0-.8.1-1.2.3c-.4.3-.7.6-1.1 1c-.3.5-.5.9-.6 1.4v5.1h-1.4zm8.2-4.6c0-.9.2-1.6.5-2.3c.3-.7.8-1.2 1.4-1.5c.5-.4 1.2-.6 2-.6c.5 0 1 .2 1.5.5c.5.2.9.6 1.2 1.1c.02 0 .1-1.3.1-1.3h1.3v8.4c0 .8-.2 1.5-.5 2.1c-.3.6-.8 1.1-1.5 1.4c-.6.3-1.4.5-2.3.5c-.6 0-1.1-.1-1.6-.2c-.4-.1-.9-.3-1.2-.6V226c.8.7 1.7 1 2.8 1c.9 0 1.6-.2 2.1-.7c.5-.5.8-1.2.8-2.1v-1.4c-.3.5-.7.8-1.2 1.1c-.5.3-1 .4-1.5.4c-.8 0-1.5-.2-2-.5c-.6-.4-1.1-.9-1.4-1.6c-.3-.6-.5-1.4-.5-2.3zm1.5 0c0 .7.1 1.3.4 1.8c.2.4.5.8.9 1.1c.4.2.8.4 1.3.4c.5 0 1-.2 1.5-.6c.4-.4.8-.9 1-1.4v-2.5c-.2-.6-.6-1.1-1-1.5c-.5-.4-1-.6-1.5-.6c-.5 0-.9.2-1.3.4c-.4.3-.7.7-.9 1.2c-.3.5-.4 1-.4 1.7zm9.6-5.6h-1.4v-1.7h1.4v1.7zm0 10.2h-1.4v-8.7h1.4v8.7zm1.7 0v-8.7h1.2s.14 1.73.1 1.7c.4-.5.8-1 1.3-1.4c.6-.4 1.2-.6 1.9-.6c.9 0 1.6.3 2.1.9c.5.5.7 1.3.7 2.4c.03-.04 0 5.7 0 5.7h-1.4v-5.6c0-.8-.1-1.3-.4-1.7c-.2-.3-.7-.5-1.3-.5c-.4 0-.8.1-1.2.3c-.4.3-.7.6-1 1c-.3.5-.5.9-.6 1.4c-.04-.05 0 5.1 0 5.1h-1.4zm8.2-4.6c0-.9.2-1.6.5-2.3c.3-.7.7-1.2 1.3-1.5c.6-.4 1.3-.6 2-.6c.6 0 1.1.2 1.6.5c.5.2.9.6 1.2 1.1c-.03 0 .1-1.3.1-1.3h1.3s-.04 8.38 0 8.4c0 .8-.2 1.5-.6 2.1c-.3.6-.8 1.1-1.4 1.4c-.7.3-1.5.5-2.4.5c-.6 0-1.1-.1-1.5-.2c-.5-.1-.9-.3-1.3-.6V226c.8.7 1.8 1 2.8 1c.9 0 1.6-.2 2.2-.7c.5-.5.8-1.2.8-2.1v-1.4c-.4.5-.8.8-1.2 1.1c-.5.3-1 .4-1.6.4c-.7 0-1.4-.2-2-.5c-.6-.4-1-.9-1.3-1.6c-.3-.6-.5-1.4-.5-2.3zm1.5 0c0 .7.1 1.3.3 1.8c.2.4.5.8.9 1.1c.4.2.9.4 1.3.4c.6 0 1.1-.2 1.5-.6c.5-.4.8-.9 1.1-1.4v-2.5c-.3-.6-.6-1.1-1.1-1.5c-.5-.4-1-.6-1.5-.6c-.5 0-.9.2-1.3.4c-.4.3-.7.7-.9 1.2c-.2.5-.3 1-.3 1.7z" stroke="none" fill="#fff"/></g><g id="Polygon3058"><path d="m1.2 193.5c0 1.1.2 1.9.7 2.4c.5.6 1.2.8 2.1.8c.7 0 1.3-.2 1.8-.5c.6-.4 1-.9 1.3-1.5c.02.04.1 1.8.1 1.8h1.3v-8.7H7.1v5.1c-.1.5-.3.9-.6 1.3c-.3.5-.7.8-1.1 1c-.4.3-.8.4-1.2.4c-.6 0-1-.2-1.3-.6c-.2-.3-.3-.9-.3-1.6c-.04 0 0-5.6 0-5.6H1.2s-.05 5.71 0 5.7zm8.6.8c.7.9 1.7 1.3 2.8 1.3c.6 0 1-.1 1.4-.4c.3-.2.5-.5.5-.9c0-.3-.1-.6-.3-.8c-.2-.2-.5-.4-1-.6l-1.2-.5c-.7-.3-1.2-.7-1.6-1.1c-.3-.4-.5-.8-.5-1.4c0-.4.1-.8.3-1.2c.3-.4.6-.6 1.1-.9c.4-.2.9-.3 1.6-.3c.5 0 1 .1 1.5.3c.4.2.8.4 1.1.7v1.5c-.4-.4-.8-.8-1.2-1c-.5-.2-1-.3-1.4-.3c-.6 0-1 .1-1.2.3c-.3.2-.4.5-.4.8c0 .3.1.5.3.7c.2.2.6.4 1.1.6l1.1.5c.7.3 1.3.6 1.6 1c.3.5.5 1 .5 1.6c0 .8-.3 1.4-.9 1.8c-.6.5-1.4.7-2.4.7c-.6 0-1.1 0-1.6-.2c-.5-.2-.9-.4-1.2-.7v-1.5zm12.1-8h-1.4v-1.7h1.4v1.7zm0 10.2h-1.4v-8.7h1.4v8.7zm1.6 0v-8.7h1.3s.13 1.73.1 1.7c.3-.5.8-1 1.3-1.4c.6-.4 1.2-.6 1.8-.6c1 0 1.7.3 2.2.9c.5.5.7 1.3.7 2.4v5.7h-1.4v-5.6c0-.8-.1-1.3-.4-1.7c-.3-.3-.7-.5-1.3-.5c-.4 0-.8.1-1.2.3c-.4.3-.7.6-1 1c-.3.5-.5.9-.7 1.4c.04-.05 0 5.1 0 5.1h-1.4zm9.7-7.6h-1.9v-1.1h1.9v-2.7h1.5v2.7h1.9v1.1h-1.9v7.6h-1.5v-7.6zm5.4-2.6h-1.4v-1.7h1.4v1.7zm0 10.2h-1.4v-8.7h1.4v8.7zm1.7 0v-8.7h1.2s.12 1.55.1 1.6c.3-.6.7-1 1.2-1.4c.5-.3 1.1-.5 1.7-.5c.6 0 1.1.2 1.5.5c.5.4.8.8.9 1.4c.4-.5.8-1 1.3-1.4c.5-.3 1-.5 1.7-.5c.8 0 1.4.3 1.9.8c.5.5.7 1.3.7 2.3v5.9h-1.4v-5.8c0-.7-.1-1.2-.4-1.6c-.2-.3-.6-.5-1.1-.5c-.3 0-.7.2-1 .4c-.4.2-.7.5-.9.8c-.3.4-.5.8-.6 1.2c-.03-.02 0 5.5 0 5.5h-1.4s-.04-5.85 0-5.9c0-.6-.2-1.1-.4-1.5c-.2-.3-.6-.5-1.1-.5c-.3 0-.7.2-1 .4c-.4.2-.7.5-.9.8c-.3.4-.5.8-.6 1.2c-.04-.02 0 5.5 0 5.5h-1.4zm13.1-2.3c0-.6.1-1.1.5-1.5c.2-.4.6-.6 1.1-.9c.5-.2 1.2-.3 2.1-.5l2.1-.4c0-.7-.2-1.3-.6-1.7c-.3-.4-.9-.6-1.7-.6c-.5 0-1.1.2-1.6.4c-.5.3-.9.6-1.2 1v-1.4c.3-.3.7-.5 1.3-.8c.5-.2 1-.3 1.7-.3c1.1 0 1.9.3 2.6.9c.6.5.9 1.4.9 2.5c.04-.03 0 5.6 0 5.6h-1.1s-.22-1.34-.2-1.3c-.4.5-.9.9-1.5 1.1c-.5.3-1.1.4-1.8.4c-.8 0-1.4-.2-1.9-.6c-.5-.5-.7-1.1-.7-1.9zm1.4-.1c0 .5.1.9.4 1.1c.3.3.7.4 1.1.4c.6 0 1.1-.2 1.7-.5c.5-.4.9-.8 1.2-1.4c.05-.03 0-1.7 0-1.7c0 0-1.41.26-1.4.3c-.8.1-1.4.2-1.8.4c-.4.1-.7.3-.9.5c-.2.3-.3.6-.3.9zm8.2-5.2h-1.9v-1.1h1.9v-2.7h1.4v2.7h2v1.1h-2v7.6H63v-7.6zm3.3 3c0-.8.2-1.6.5-2.2c.4-.7.8-1.2 1.4-1.6c.6-.4 1.3-.6 2.1-.6c1.1 0 2 .4 2.7 1.2c.7.8 1 1.9 1 3.3c.02.02 0 .6 0 .6h-6.3c.1.9.4 1.6.8 2.2c.5.5 1.1.8 1.9.8c1.3 0 2.3-.4 3.1-1.3v1.4c-.4.3-.8.6-1.3.8c-.5.2-1.1.2-1.8.2c-.8 0-1.6-.1-2.2-.5c-.6-.4-1.1-.9-1.4-1.6c-.3-.7-.5-1.4-.5-2.3v-.4zm6.3-.4c0-.9-.2-1.7-.6-2.1c-.5-.5-1-.8-1.7-.8c-.5 0-.9.2-1.3.4c-.3.2-.6.6-.8 1c-.3.4-.4.9-.4 1.5h4.8zm6.8-2.6h-1.9v-1.1h1.9v-2.7h1.4v2.7h2v1.1h-2v7.6h-1.4v-7.6zm5.4-2.6h-1.4v-1.7h1.4v1.7zm0 10.2h-1.4v-8.7h1.4v8.7zm1.6 0v-8.7h1.3s.11 1.55.1 1.6c.3-.6.7-1 1.2-1.4c.5-.3 1-.5 1.7-.5c.6 0 1.1.2 1.5.5c.5.4.8.8.9 1.4c.4-.5.8-1 1.3-1.4c.5-.3 1-.5 1.7-.5c.8 0 1.4.3 1.9.8c.5.5.7 1.3.7 2.3v5.9h-1.4s-.02-5.82 0-5.8c0-.7-.1-1.2-.4-1.6c-.2-.3-.6-.5-1.1-.5c-.3 0-.7.2-1 .4c-.4.2-.7.5-1 .8c-.2.4-.4.8-.5 1.2c-.04-.02 0 5.5 0 5.5h-1.4s-.05-5.85 0-5.9c0-.6-.2-1.1-.4-1.5c-.2-.3-.6-.5-1.1-.5c-.3 0-.7.2-1 .4c-.4.2-.7.5-.9.8c-.3.4-.5.8-.6 1.2c-.05-.02 0 5.5 0 5.5h-1.5zm13.2-4.6c0-.8.1-1.6.4-2.2c.4-.7.8-1.2 1.4-1.6c.6-.4 1.3-.6 2.1-.6c1.1 0 2.1.4 2.7 1.2c.7.8 1 1.9 1 3.3c.03.02 0 .6 0 .6H101c0 .9.3 1.6.7 2.2c.5.5 1.1.8 1.9.8c1.3 0 2.3-.4 3.1-1.3v1.4c-.3.3-.8.6-1.3.8c-.5.2-1.1.2-1.8.2c-.8 0-1.5-.1-2.2-.5c-.6-.4-1-.9-1.4-1.6c-.3-.7-.4-1.4-.4-2.3v-.4zm6.2-.4c0-.9-.2-1.7-.6-2.1c-.5-.5-1-.8-1.7-.8c-.5 0-.9.2-1.2.4c-.4.2-.7.6-.9 1c-.3.4-.4.9-.4 1.5h4.8zm7.5 5l-2.5-8.7h1.4l2 7.2l1.9-7.2h1.8l1.9 7.1l2-7.1h1.3l-2.5 8.7h-1.7l-2-7.2l-1.9 7.2h-1.7zm11.8-10.2h-1.4v-1.7h1.4v1.7zm0 10.2h-1.4v-8.7h1.4v8.7zm2.5-7.6h-1.9v-1.1h1.9v-2.7h1.5v2.7h1.9v1.1h-1.9v7.6h-1.5v-7.6zm4 7.6v-12.3h1.4v5.3c.3-.5.7-1 1.3-1.4c.5-.4 1.1-.6 1.8-.6c.9 0 1.6.3 2.1.9c.5.5.7 1.3.7 2.4c.04-.04 0 5.7 0 5.7h-1.4s.03-5.63 0-5.6c0-.8-.1-1.3-.3-1.7c-.3-.3-.7-.5-1.3-.5c-.4 0-.8.1-1.2.3c-.4.3-.8.6-1.1 1c-.3.4-.5.8-.6 1.3v5.2h-1.4zm13.2-7.6h-1.9v-1.1h1.9v-2.7h1.4v2.7h2v1.1h-2v7.6h-1.4v-7.6zm4 7.6v-12.3h1.4s-.04 5.3 0 5.3c.3-.5.7-1 1.2-1.4c.6-.4 1.2-.6 1.8-.6c1 0 1.7.3 2.2.9c.5.5.7 1.3.7 2.4v5.7h-1.4v-5.6c0-.8-.1-1.3-.4-1.7c-.2-.3-.7-.5-1.3-.5c-.4 0-.8.1-1.2.3c-.4.3-.7.6-1 1c-.3.4-.5.8-.6 1.3c-.04 0 0 5.2 0 5.2h-1.4zm8.2-4.6c0-.8.1-1.6.5-2.2c.3-.7.8-1.2 1.4-1.6c.5-.4 1.2-.6 2-.6c1.2 0 2.1.4 2.8 1.2c.6.8 1 1.9 1 3.3c-.05.02 0 .6 0 .6h-6.3c0 .9.3 1.6.8 2.2c.4.5 1.1.8 1.9.8c1.2 0 2.2-.4 3.1-1.3v1.4c-.4.3-.8.6-1.3.8c-.5.2-1.1.2-1.8.2c-.9 0-1.6-.1-2.2-.5c-.6-.4-1.1-.9-1.4-1.6c-.4-.7-.5-1.4-.5-2.3v-.4zm6.2-.4c0-.9-.2-1.7-.6-2.1c-.4-.5-1-.8-1.7-.8c-.4 0-.8.2-1.2.4c-.4.2-.7.6-.9 1c-.2.4-.4.9-.4 1.5h4.8zm7.4 5h-1.4v-12.3h1.4v12.3zm1.1-4.5c0-.9.2-1.6.5-2.3c.3-.7.8-1.2 1.5-1.6c.6-.4 1.3-.6 2.1-.6c.8 0 1.5.2 2.1.6c.6.4 1.1.9 1.5 1.6c.3.7.5 1.4.5 2.3v.3c0 .9-.2 1.6-.5 2.3c-.4.7-.9 1.2-1.5 1.6c-.6.4-1.3.5-2.1.5c-.8 0-1.5-.1-2.1-.5c-.7-.4-1.2-.9-1.5-1.6c-.3-.7-.5-1.4-.5-2.3v-.3zm1.5.3c0 1 .2 1.8.7 2.4c.4.6 1.1.9 1.9.9c.8 0 1.4-.3 1.9-.9c.5-.6.7-1.4.7-2.4v-.3c0-1-.2-1.8-.7-2.4c-.5-.6-1.1-1-1.9-1c-.8 0-1.5.4-1.9 1c-.5.6-.7 1.4-.7 2.4v.3zm9.9 4.2l-3.4-8.7h1.6l2.6 7.2l2.7-7.2h1.4l-3.3 8.7h-1.6zm4.9-4.6c0-.8.1-1.6.4-2.2c.4-.7.8-1.2 1.4-1.6c.6-.4 1.3-.6 2.1-.6c1.1 0 2.1.4 2.7 1.2c.7.8 1 1.9 1 3.3c.03.02 0 .6 0 .6h-6.2c0 .9.3 1.6.7 2.2c.5.5 1.1.8 1.9.8c1.3 0 2.3-.4 3.1-1.3v1.4c-.3.3-.8.6-1.3.8c-.5.2-1.1.2-1.8.2c-.8 0-1.5-.1-2.2-.5c-.6-.4-1-.9-1.4-1.6c-.3-.7-.4-1.4-.4-2.3v-.4zm6.2-.4c0-.9-.2-1.7-.6-2.1c-.5-.5-1-.8-1.7-.8c-.5 0-.9.2-1.2.4c-.4.2-.7.6-.9 1c-.3.4-.4.9-.4 1.5h4.8zm1.9.6c0-.9.1-1.7.5-2.4c.3-.7.7-1.2 1.3-1.6c.6-.4 1.3-.6 2-.6c.6 0 1.1.2 1.6.5c.5.2.9.6 1.2 1.1v-4.9h1.4v12.3h-1.3s-.08-1.36-.1-1.4c-.3.5-.7.9-1.2 1.2c-.5.3-1 .4-1.6.4c-.7 0-1.4-.1-2-.5c-.6-.4-1-.9-1.3-1.6c-.4-.7-.5-1.6-.5-2.5zm1.4 0c0 .7.1 1.4.4 1.9c.2.5.5.9.9 1.2c.4.3.8.4 1.3.4c.6 0 1.1-.2 1.6-.6c.4-.4.8-.9 1-1.4v-2.9c-.2-.6-.6-1.1-1-1.5c-.5-.4-1-.6-1.6-.6c-.4 0-.9.2-1.3.5c-.4.3-.7.7-.9 1.2c-.3.5-.4 1.1-.4 1.8z" stroke="none" fill="#fff"/></g><g id="Polygon3057"><path d="m1.4 168.5v-12.2s4.41.04 4.4 0c.8 0 1.5.2 2.1.5c.6.3 1.1.7 1.4 1.2c.4.5.6 1.1.6 1.7v.3c0 .9-.4 1.6-1 2.2c-.6.6-1.4 1-2.5 1.1c.05.02 4.1 5.2 4.1 5.2H8.6l-3.9-5.1H2.9v5.1H1.4zm4.2-6.3c.9 0 1.5-.2 2-.6c.5-.4.7-1 .7-1.6v-.3c0-.6-.2-1.2-.7-1.6c-.5-.4-1.1-.6-2-.6c.05.04-2.7 0-2.7 0v4.7s2.75-.05 2.7 0zm4.8 1.8c0-.9.2-1.6.5-2.3c.4-.7.8-1.2 1.5-1.6c.6-.4 1.3-.6 2.1-.6c.8 0 1.5.2 2.1.6c.6.4 1.1.9 1.5 1.6c.3.7.5 1.4.5 2.3v.3c0 .9-.2 1.6-.5 2.3c-.4.7-.9 1.2-1.5 1.6c-.6.4-1.3.5-2.1.5c-.8 0-1.5-.1-2.1-.5c-.7-.4-1.1-.9-1.5-1.6c-.3-.7-.5-1.4-.5-2.3v-.3zm1.5.3c0 1 .2 1.8.7 2.4c.4.6 1.1.9 1.9.9c.8 0 1.4-.3 1.9-.9c.5-.6.7-1.4.7-2.4v-.3c0-1-.2-1.8-.7-2.4c-.5-.6-1.1-1-1.9-1c-.8 0-1.5.4-1.9 1c-.5.6-.7 1.4-.7 2.4v.3zm8.5-3.4h-1.9v-1.1h1.9v-2.7h1.4v2.7h1.9v1.1h-1.9v7.6h-1.4v-7.6zm3.3 5.3c0-.6.2-1.1.5-1.5c.2-.4.6-.6 1.1-.9c.5-.2 1.2-.3 2.1-.5l2.2-.4c-.1-.7-.3-1.3-.6-1.7c-.4-.4-1-.6-1.8-.6c-.5 0-1 .2-1.5.4c-.5.3-.9.6-1.3 1v-1.4c.3-.3.8-.5 1.3-.8c.5-.2 1.1-.3 1.7-.3c1.1 0 2 .3 2.6.9c.7.5 1 1.4 1 2.5c-.02-.03 0 5.6 0 5.6h-1.1s-.28-1.34-.3-1.3c-.4.5-.9.9-1.4 1.1c-.6.3-1.2.4-1.8.4c-.8 0-1.5-.2-2-.6c-.4-.5-.7-1.1-.7-1.9zm1.4-.1c0 .5.2.9.5 1.1c.2.3.6.4 1.1.4c.5 0 1-.2 1.6-.5c.5-.4 1-.8 1.3-1.4c-.02-.03 0-1.7 0-1.7c0 0-1.47.26-1.5.3c-.8.1-1.4.2-1.8.4c-.4.1-.7.3-.9.5c-.2.3-.3.6-.3.9zm8.3-5.2h-1.9v-1.1h1.9v-2.7h1.4v2.7h1.9v1.1h-1.9v7.6h-1.4v-7.6zm5.3-2.6h-1.4v-1.7h1.4v1.7zm0 10.2h-1.4v-8.7h1.4v8.7zm1.7 0v-8.7h1.3s.08 1.73.1 1.7c.3-.5.7-1 1.3-1.4c.5-.4 1.1-.6 1.8-.6c.9 0 1.6.3 2.1.9c.5.5.8 1.3.8 2.4c-.04-.04 0 5.7 0 5.7h-1.5s.04-5.63 0-5.6c0-.8-.1-1.3-.3-1.7c-.3-.3-.7-.5-1.3-.5c-.4 0-.8.1-1.2.3c-.4.3-.8.6-1.1 1c-.3.5-.5.9-.6 1.4v5.1h-1.4zm8.2-4.6c0-.9.2-1.6.5-2.3c.3-.7.8-1.2 1.3-1.5c.6-.4 1.3-.6 2-.6c.6 0 1.1.2 1.6.5c.5.2.9.6 1.2 1.1l.1-1.3h1.3v8.4c0 .8-.2 1.5-.5 2.1c-.4.6-.9 1.1-1.5 1.4c-.7.3-1.4.5-2.3.5c-.6 0-1.2-.1-1.6-.2c-.5-.1-.9-.3-1.3-.6V170c.9.7 1.8 1 2.9 1c.9 0 1.6-.2 2.1-.7c.5-.5.8-1.2.8-2.1v-1.4c-.3.5-.7.8-1.2 1.1c-.5.3-1 .4-1.6.4c-.7 0-1.4-.2-2-.5c-.5-.4-1-.9-1.3-1.6c-.3-.6-.5-1.4-.5-2.3zm1.5 0c0 .7.1 1.3.3 1.8c.3.4.6.8 1 1.1c.4.2.8.4 1.3.4c.5 0 1-.2 1.5-.6c.4-.4.8-.9 1-1.4v-2.5c-.2-.6-.6-1.1-1.1-1.5c-.4-.4-.9-.6-1.5-.6c-.4 0-.9.2-1.2.4c-.4.3-.7.7-1 1.2c-.2.5-.3 1-.3 1.7zm11.1-4v-1.6l2.8-1.8h1.4v12h-1.5v-10.4l-2.7 1.8zm6.4 5.4c0-.7.2-1.3.7-1.9c.4-.6 1-1 1.8-1.2c-.7-.3-1.2-.7-1.5-1.2c-.4-.5-.5-1-.5-1.6c0-.5.1-1 .4-1.5c.3-.4.7-.8 1.2-1.1c.6-.3 1.2-.5 2-.5c.8 0 1.4.2 2 .5c.5.3 1 .7 1.2 1.1c.3.5.5.9.5 1.4c0 .6-.2 1.2-.6 1.6c-.3.5-.8.9-1.4 1.2c.8.3 1.3.7 1.8 1.2c.4.6.6 1.2.6 2c0 .6-.1 1.2-.5 1.7c-.3.5-.8.9-1.4 1.2c-.6.3-1.4.5-2.2.5c-.7 0-1.4-.2-2.1-.4c-.6-.3-1.1-.7-1.4-1.2c-.4-.5-.6-1.1-.6-1.8zm2-5.9c0 .5.2.9.6 1.3c.4.3 1.1.6 2 .9c.5-.2.9-.5 1.2-.9c.3-.4.5-.8.5-1.2c0-.6-.2-1.1-.6-1.4c-.4-.4-1-.6-1.6-.6c-.7 0-1.2.2-1.5.6c-.4.3-.6.8-.6 1.3zm-.5 5.8c0 .7.3 1.3.8 1.7c.5.4 1.1.6 1.8.6c.8 0 1.4-.2 1.9-.7c.5-.4.7-.9.7-1.6c0-.6-.2-1.1-.7-1.5c-.4-.4-1.2-.7-2.2-1.1c-.7.3-1.3.7-1.7 1.1c-.4.5-.6 1-.6 1.5zm7.7-2.8c0-1.2.2-2.3.5-3.2c.4-.9.9-1.6 1.6-2.1c.7-.5 1.5-.8 2.5-.8c1 0 1.9.3 2.6.8c.7.5 1.2 1.2 1.5 2.1c.4.9.6 2 .6 3.2v.3c0 1.2-.2 2.2-.6 3.1c-.3.9-.8 1.6-1.5 2.1c-.7.5-1.6.8-2.6.8c-1 0-1.8-.3-2.5-.8c-.7-.5-1.2-1.2-1.6-2.1c-.3-.9-.5-1.9-.5-3.1v-.3zm1.6.3c0 1.4.2 2.6.7 3.5c.6.8 1.3 1.3 2.3 1.3c1 0 1.8-.5 2.3-1.3c.5-.9.8-2.1.8-3.5v-.3c0-1.5-.3-2.7-.8-3.6c-.5-.8-1.3-1.3-2.3-1.3c-1 0-1.7.5-2.3 1.3c-.5.9-.7 2.1-.7 3.6v.3zm11.8 1.4c0-.9.2-1.7.5-2.4c.4-.7.8-1.2 1.4-1.6c.6-.4 1.3-.6 2-.6c.5 0 1.1.2 1.6.5c.5.2.9.6 1.2 1.1c-.02-.04 0-4.9 0-4.9h1.4v12.3H97l-.1-1.4c-.3.5-.7.9-1.2 1.2c-.5.3-1 .4-1.6.4c-.7 0-1.4-.1-2-.5c-.6-.4-1-.9-1.4-1.6c-.3-.7-.5-1.6-.5-2.5zm1.5 0c0 .7.1 1.4.3 1.9c.3.5.6.9 1 1.2c.4.3.8.4 1.3.4c.5 0 1.1-.2 1.5-.6c.5-.4.9-.9 1.1-1.4v-2.9c-.2-.6-.6-1.1-1.1-1.5c-.4-.4-.9-.6-1.5-.6c-.5 0-.9.2-1.3.5c-.4.3-.7.7-.9 1.2c-.3.5-.4 1.1-.4 1.8zm7.6-.2c0-.8.2-1.6.5-2.2c.3-.7.8-1.2 1.4-1.6c.6-.4 1.3-.6 2-.6c1.2 0 2.1.4 2.8 1.2c.7.8 1 1.9 1 3.3v.6h-6.3c.1.9.3 1.6.8 2.2c.5.5 1.1.8 1.9.8c1.2 0 2.3-.4 3.1-1.3v1.4c-.4.3-.8.6-1.3.8c-.5.2-1.1.2-1.8.2c-.8 0-1.6-.1-2.2-.5c-.6-.4-1.1-.9-1.4-1.6c-.3-.7-.5-1.4-.5-2.3v-.4zm6.3-.4c0-.9-.2-1.7-.7-2.1c-.4-.5-1-.8-1.7-.8c-.4 0-.8.2-1.2.4c-.3.2-.6.6-.9 1c-.2.4-.3.9-.4 1.5h4.9zm1.8.4c0-.9.2-1.6.5-2.3c.3-.7.8-1.2 1.3-1.5c.6-.4 1.3-.6 2-.6c.6 0 1.1.2 1.6.5c.5.2.9.6 1.2 1.1l.1-1.3h1.3v8.4c0 .8-.2 1.5-.5 2.1c-.4.6-.9 1.1-1.5 1.4c-.7.3-1.4.5-2.3.5c-.6 0-1.2-.1-1.6-.2c-.5-.1-.9-.3-1.3-.6V170c.8.7 1.8 1 2.9 1c.9 0 1.6-.2 2.1-.7c.5-.5.8-1.2.8-2.1v-1.4c-.3.5-.7.8-1.2 1.1c-.5.3-1 .4-1.6.4c-.7 0-1.4-.2-2-.5c-.5-.4-1-.9-1.3-1.6c-.3-.6-.5-1.4-.5-2.3zm1.5 0c0 .7.1 1.3.3 1.8c.3.4.6.8 1 1.1c.4.2.8.4 1.3.4c.5 0 1-.2 1.5-.6c.4-.4.8-.9 1-1.4v-2.5c-.2-.6-.6-1.1-1.1-1.5c-.4-.4-.9-.6-1.5-.6c-.4 0-.9.2-1.2.4c-.4.3-.7.7-1 1.2c-.2.5-.3 1-.3 1.7zm8.2 4.6v-8.7h1.2s.13 1.49.1 1.5c.3-.6.6-1 1.1-1.3c.4-.3.9-.5 1.5-.5c.2 0 .3 0 .5.1h.4v1.3c-.3-.1-.6-.1-.9-.1c-.6 0-1.1.1-1.6.5c-.4.4-.7.9-.9 1.5c-.04.02 0 5.7 0 5.7h-1.4zm4.7-4.6c0-.8.2-1.6.5-2.2c.3-.7.8-1.2 1.4-1.6c.6-.4 1.3-.6 2-.6c1.2 0 2.1.4 2.8 1.2c.7.8 1 1.9 1 3.3v.6h-6.3c.1.9.3 1.6.8 2.2c.5.5 1.1.8 1.9.8c1.2 0 2.3-.4 3.1-1.3v1.4c-.4.3-.8.6-1.3.8c-.5.2-1.1.2-1.8.2c-.9 0-1.6-.1-2.2-.5c-.6-.4-1.1-.9-1.4-1.6c-.3-.7-.5-1.4-.5-2.3v-.4zm6.3-.4c0-.9-.3-1.7-.7-2.1c-.4-.5-1-.8-1.7-.8c-.4 0-.8.2-1.2.4c-.3.2-.6.6-.9 1c-.2.4-.3.9-.4 1.5h4.9zm1.8.4c0-.8.2-1.6.5-2.2c.3-.7.8-1.2 1.4-1.6c.6-.4 1.3-.6 2-.6c1.2 0 2.1.4 2.8 1.2c.6.8 1 1.9 1 3.3c-.02.02 0 .6 0 .6h-6.3c.1.9.3 1.6.8 2.2c.5.5 1.1.8 1.9.8c1.2 0 2.3-.4 3.1-1.3v1.4c-.4.3-.8.6-1.3.8c-.5.2-1.1.2-1.8.2c-.9 0-1.6-.1-2.2-.5c-.6-.4-1.1-.9-1.4-1.6c-.3-.7-.5-1.4-.5-2.3v-.4zm6.3-.4c0-.9-.3-1.7-.7-2.1c-.4-.5-1-.8-1.7-.8c-.4 0-.8.2-1.2.4c-.4.2-.7.6-.9 1c-.2.4-.3.9-.4 1.5h4.9zm2.1 2.8c.7.9 1.6 1.3 2.8 1.3c.5 0 1-.1 1.3-.4c.4-.2.5-.5.5-.9c0-.3 0-.6-.2-.8c-.2-.2-.5-.4-1-.6l-1.2-.5c-.7-.3-1.3-.7-1.6-1.1c-.4-.4-.5-.8-.5-1.4c0-.4.1-.8.3-1.2c.2-.4.6-.6 1-.9c.5-.2 1-.3 1.6-.3c.5 0 1 .1 1.5.3c.5.2.9.4 1.2.7v1.5c-.4-.4-.8-.8-1.3-1c-.4-.2-.9-.3-1.4-.3c-.5 0-.9.1-1.1.3c-.3.2-.4.5-.4.8c0 .3.1.5.3.7c.2.2.5.4 1 .6l1.2.5c.7.3 1.2.6 1.6 1c.3.5.5 1 .5 1.6c0 .8-.4 1.4-1 1.8c-.6.5-1.4.7-2.3.7c-.6 0-1.2 0-1.7-.2c-.4-.2-.8-.4-1.1-.7v-1.5zm7.5 4.2h-1.2l.7-4.1h1.9l-1.4 4.1zm5.6-6.6c0-.9.1-1.6.5-2.3c.3-.7.7-1.2 1.3-1.5c.6-.4 1.2-.6 2-.6c.5 0 1.1.2 1.6.5c.4.2.8.6 1.2 1.1c-.05 0 .1-1.3.1-1.3h1.2s.04 8.38 0 8.4c0 .8-.1 1.5-.5 2.1c-.3.6-.8 1.1-1.5 1.4c-.6.3-1.4.5-2.3.5c-.6 0-1.1-.1-1.6-.2c-.4-.1-.8-.3-1.2-.6V170c.8.7 1.7 1 2.8 1c.9 0 1.6-.2 2.1-.7c.6-.5.8-1.2.8-2.1v-1.4c-.3.5-.7.8-1.2 1.1c-.4.3-1 .4-1.5.4c-.8 0-1.4-.2-2-.5c-.6-.4-1-.9-1.3-1.6c-.4-.6-.5-1.4-.5-2.3zm1.4 0c0 .7.2 1.3.4 1.8c.2.4.5.8.9 1.1c.4.2.8.4 1.3.4c.5 0 1-.2 1.5-.6c.5-.4.8-.9 1-1.4v-2.5c-.2-.6-.5-1.1-1-1.5c-.5-.4-1-.6-1.5-.6c-.5 0-.9.2-1.3.4c-.4.3-.7.7-.9 1.2c-.2.5-.4 1-.4 1.7zm9.6-5.6H161v-1.7h1.4v1.7zm0 10.2H161v-8.7h1.4v8.7zm4 0l-3.3-8.7h1.5l2.6 7.2l2.7-7.2h1.4l-3.3 8.7h-1.6zm7-10.2h-1.5v-1.7h1.5v1.7zm0 10.2h-1.5v-8.7h1.5v8.7zm1.6 0v-8.7h1.3l.1 1.7c.3-.5.8-1 1.3-1.4c.5-.4 1.2-.6 1.8-.6c1 0 1.7.3 2.2.9c.4.5.7 1.3.7 2.4v5.7H181s-.03-5.63 0-5.6c0-.8-.2-1.3-.4-1.7c-.3-.3-.7-.5-1.3-.5c-.4 0-.8.1-1.2.3c-.4.3-.7.6-1 1c-.3.5-.6.9-.7 1.4c.03-.05 0 5.1 0 5.1H175zm8.3-4.6c0-.9.1-1.6.4-2.3c.4-.7.8-1.2 1.4-1.5c.6-.4 1.2-.6 2-.6c.5 0 1.1.2 1.5.5c.5.2.9.6 1.2 1.1c.04 0 .1-1.3.1-1.3h1.3s.03 8.38 0 8.4c0 .8-.1 1.5-.5 2.1c-.3.6-.8 1.1-1.5 1.4c-.6.3-1.4.5-2.3.5c-.6 0-1.1-.1-1.6-.2c-.4-.1-.8-.3-1.2-.6V170c.8.7 1.7 1 2.8 1c.9 0 1.6-.2 2.1-.7c.6-.5.8-1.2.8-2.1v-1.4c-.3.5-.7.8-1.2 1.1c-.5.3-1 .4-1.5.4c-.8 0-1.4-.2-2-.5c-.6-.4-1-.9-1.4-1.6c-.3-.6-.4-1.4-.4-2.3zm1.4 0c0 .7.1 1.3.4 1.8c.2.4.5.8.9 1.1c.4.2.8.4 1.3.4c.5 0 1-.2 1.5-.6c.5-.4.8-.9 1-1.4v-2.5c-.2-.6-.5-1.1-1-1.5c-.5-.4-1-.6-1.5-.6c-.5 0-.9.2-1.3.4c-.4.3-.7.7-.9 1.2c-.3.5-.4 1-.4 1.7z" stroke="none" fill="#fff"/></g><g id="Polygon3056"><path d="m2.8 140.5l-2.5-8.7h1.4l2 7.2l1.9-7.2h1.8l1.9 7.1l2-7.1h1.3l-2.5 8.7H8.4l-2-7.2l-1.9 7.2H2.8zm11.8-10.2h-1.4v-1.7h1.4v1.7zm0 10.2h-1.4v-8.7h1.4v8.7zm2.6-7.6h-2v-1.1h2v-2.7h1.4v2.7h1.9v1.1h-1.9v7.6h-1.4v-7.6zm3.9 7.6v-12.3h1.4v5.3c.3-.5.7-1 1.3-1.4c.5-.4 1.1-.6 1.8-.6c.9 0 1.6.3 2.1.9c.5.5.7 1.3.7 2.4c.05-.04 0 5.7 0 5.7H27s.04-5.63 0-5.6c0-.8-.1-1.3-.3-1.7c-.3-.3-.7-.5-1.3-.5c-.4 0-.8.1-1.2.3c-.4.3-.8.6-1.1 1c-.3.4-.5.8-.6 1.3v5.2h-1.4zm11.7 0v-1s4.16-4.53 4.2-4.5c.5-.6.9-1.1 1.1-1.6c.3-.4.4-.9.4-1.5c0-.7-.2-1.2-.6-1.7c-.4-.4-1-.6-1.6-.6c-.7 0-1.3.1-1.7.5c-.5.3-1 .7-1.3 1.3v-1.8c.3-.3.7-.6 1.2-.9c.6-.2 1.2-.4 1.8-.4c.8 0 1.4.2 2 .5c.6.3 1 .7 1.3 1.3c.3.5.4 1.1.4 1.7c0 .6-.1 1.1-.3 1.6c-.1.5-.4.9-.7 1.3c-.3.4-.7.8-1.1 1.4c-.04-.04-3.1 3.2-3.1 3.2h5.5v1.2h-7.5zm8.6 0v-8.7h1.3s.13 1.73.1 1.7c.4-.5.8-1 1.3-1.4c.6-.4 1.2-.6 1.9-.6c.9 0 1.6.3 2.1.9c.5.5.7 1.3.7 2.4c.02-.04 0 5.7 0 5.7h-1.4v-5.6c0-.8-.1-1.3-.4-1.7c-.2-.3-.7-.5-1.3-.5c-.4 0-.8.1-1.2.3c-.4.3-.7.6-1 1c-.3.5-.5.9-.7 1.4c.05-.05 0 5.1 0 5.1h-1.4zm8.3-4.4c0-.9.1-1.7.5-2.4c.3-.7.8-1.2 1.4-1.6c.5-.4 1.2-.6 1.9-.6c.6 0 1.1.2 1.6.5c.5.2.9.6 1.2 1.1c.02-.04 0-4.9 0-4.9h1.4v12.3h-1.3s-.06-1.36-.1-1.4c-.3.5-.7.9-1.2 1.2c-.5.3-1 .4-1.6.4c-.7 0-1.4-.1-1.9-.5c-.6-.4-1.1-.9-1.4-1.6c-.4-.7-.5-1.6-.5-2.5zm1.5 0c0 .7.1 1.4.3 1.9c.2.5.5.9.9 1.2c.4.3.9.4 1.3.4c.6 0 1.1-.2 1.6-.6c.4-.4.8-.9 1-1.4v-2.9c-.2-.6-.6-1.1-1-1.5c-.5-.4-1-.6-1.5-.6c-.5 0-1 .2-1.4.5c-.4.3-.7.7-.9 1.2c-.2.5-.3 1.1-.3 1.8zm11.7 4.4v-8.7h1.3l.1 1.5c.2-.6.6-1 1-1.3c.5-.3 1-.5 1.6-.5c.1 0 .3 0 .5.1h.3v1.3c-.2-.1-.5-.1-.9-.1c-.5 0-1 .1-1.5.5c-.5.4-.8.9-1 1.5c.02.02 0 5.7 0 5.7h-1.4zm4.8-4.5c0-.9.2-1.6.5-2.3c.3-.7.8-1.2 1.5-1.6c.6-.4 1.3-.6 2.1-.6c.8 0 1.5.2 2.1.6c.6.4 1.1.9 1.5 1.6c.3.7.5 1.4.5 2.3v.3c0 .9-.2 1.6-.5 2.3c-.4.7-.9 1.2-1.5 1.6c-.6.4-1.3.5-2.1.5c-.8 0-1.5-.1-2.1-.5c-.7-.4-1.2-.9-1.5-1.6c-.3-.7-.5-1.4-.5-2.3v-.3zm1.5.3c0 1 .2 1.8.7 2.4c.4.6 1.1.9 1.9.9c.8 0 1.4-.3 1.9-.9c.5-.6.7-1.4.7-2.4v-.3c0-1-.2-1.8-.7-2.4c-.5-.6-1.1-1-1.9-1c-.8 0-1.5.4-1.9 1c-.5.6-.7 1.4-.7 2.4v.3zm9.1 4.2l-2.6-8.7h1.5l2 7.2l1.9-7.2h1.7l2 7.1l1.9-7.1h1.3l-2.5 8.7h-1.7l-1.9-7.2l-1.9 7.2h-1.7zm13.6-2.2c.7.9 1.6 1.3 2.7 1.3c.6 0 1.1-.1 1.4-.4c.3-.2.5-.5.5-.9c0-.3-.1-.6-.3-.8c-.1-.2-.5-.4-1-.6l-1.2-.5c-.7-.3-1.2-.7-1.5-1.1c-.4-.4-.6-.8-.6-1.4c0-.4.1-.8.4-1.2c.2-.4.5-.6 1-.9c.4-.2 1-.3 1.6-.3c.5 0 1 .1 1.5.3c.5.2.8.4 1.2.7v1.5c-.4-.4-.9-.8-1.3-1c-.5-.2-.9-.3-1.4-.3c-.5 0-.9.1-1.2.3c-.2.2-.4.5-.4.8c0 .3.1.5.3.7c.2.2.6.4 1.1.6l1.1.5c.8.3 1.3.6 1.6 1c.4.5.5 1 .5 1.6c0 .8-.3 1.4-.9 1.8c-.6.5-1.4.7-2.4.7c-.6 0-1.1 0-1.6-.2c-.5-.2-.8-.4-1.1-.7v-1.5zm8.6 2.2l-2.5-8.7h1.4l2 7.2l1.9-7.2h1.7l2 7.1l1.9-7.1h1.4l-2.6 8.7H106l-1.9-7.2l-1.9 7.2h-1.7zm11.8-10.2h-1.4v-1.7h1.4v1.7zm0 10.2h-1.4v-8.7h1.4v8.7zm4 0l-3.4-8.7h1.6l2.6 7.2l2.7-7.2h1.4l-3.3 8.7h-1.6zm4.9-4.6c0-.8.1-1.6.4-2.2c.4-.7.8-1.2 1.4-1.6c.6-.4 1.3-.6 2.1-.6c1.1 0 2.1.4 2.7 1.2c.7.8 1 1.9 1 3.3c.03.02 0 .6 0 .6h-6.2c0 .9.3 1.6.7 2.2c.5.5 1.1.8 1.9.8c1.3 0 2.3-.4 3.1-1.3v1.4c-.3.3-.8.6-1.3.8c-.5.2-1.1.2-1.8.2c-.8 0-1.5-.1-2.2-.5c-.6-.4-1-.9-1.4-1.6c-.3-.7-.4-1.4-.4-2.3v-.4zm6.2-.4c0-.9-.2-1.7-.6-2.1c-.5-.5-1-.8-1.7-.8c-.5 0-.9.2-1.2.4c-.4.2-.7.6-.9 1c-.3.4-.4.9-.4 1.5h4.8zm3.9 5h-1.4v-12.3h1.4v12.3zm3.1-10.2H133v-1.7h1.4v1.7zm0 10.2H133v-8.7h1.4v8.7zm1.6 0v-8.7h1.3s.12 1.73.1 1.7c.3-.5.8-1 1.3-1.4c.5-.4 1.2-.6 1.8-.6c1 0 1.7.3 2.2.9c.5.5.7 1.3.7 2.4v5.7H142s-.02-5.63 0-5.6c0-.8-.1-1.3-.4-1.7c-.3-.3-.7-.5-1.3-.5c-.4 0-.8.1-1.2.3c-.4.3-.7.6-1 1c-.3.5-.5.9-.7 1.4c.04-.05 0 5.1 0 5.1H136zm8.3-4.6c0-.9.1-1.6.5-2.3c.3-.7.7-1.2 1.3-1.5c.6-.4 1.2-.6 2-.6c.5 0 1.1.2 1.6.5c.4.2.8.6 1.1 1.1c.05 0 .2-1.3.2-1.3h1.2s.04 8.38 0 8.4c0 .8-.1 1.5-.5 2.1c-.3.6-.8 1.1-1.5 1.4c-.6.3-1.4.5-2.3.5c-.6 0-1.1-.1-1.6-.2c-.4-.1-.8-.3-1.2-.6V142c.8.7 1.7 1 2.8 1c.9 0 1.6-.2 2.1-.7c.6-.5.8-1.2.8-2.1v-1.4c-.3.5-.7.8-1.2 1.1c-.4.3-1 .4-1.5.4c-.8 0-1.4-.2-2-.5c-.6-.4-1-.9-1.3-1.6c-.4-.6-.5-1.4-.5-2.3zm1.4 0c0 .7.2 1.3.4 1.8c.2.4.5.8.9 1.1c.4.2.8.4 1.3.4c.5 0 1-.2 1.5-.6c.5-.4.8-.9 1-1.4v-2.5c-.2-.6-.5-1.1-1-1.5c-.5-.4-1-.6-1.5-.6c-.5 0-.9.2-1.3.4c-.4.3-.7.7-.9 1.2c-.2.5-.4 1-.4 1.7zm11.4 2.4c.7.9 1.6 1.3 2.7 1.3c.6 0 1.1-.1 1.4-.4c.4-.2.5-.5.5-.9c0-.3-.1-.6-.2-.8c-.2-.2-.6-.4-1.1-.6l-1.1-.5c-.8-.3-1.3-.7-1.6-1.1c-.4-.4-.5-.8-.5-1.4c0-.4.1-.8.3-1.2c.2-.4.6-.6 1-.9c.4-.2 1-.3 1.6-.3c.5 0 1 .1 1.5.3c.5.2.9.4 1.2.7v1.5c-.4-.4-.8-.8-1.3-1c-.5-.2-.9-.3-1.4-.3c-.5 0-.9.1-1.2.3c-.2.2-.4.5-.4.8c0 .3.1.5.4.7c.2.2.5.4 1 .6l1.2.5c.7.3 1.2.6 1.5 1c.4.5.5 1 .5 1.6c0 .8-.3 1.4-.9 1.8c-.6.5-1.4.7-2.4.7c-.6 0-1.1 0-1.6-.2c-.4-.2-.8-.4-1.1-.7v-1.5zm6.5-2.4c0-.8.1-1.6.4-2.2c.4-.7.8-1.2 1.4-1.6c.6-.4 1.3-.6 2.1-.6c1.1 0 2.1.4 2.7 1.2c.7.8 1 1.9 1 3.3c.03.02 0 .6 0 .6H165c0 .9.3 1.6.7 2.2c.5.5 1.1.8 1.9.8c1.3 0 2.3-.4 3.1-1.3v1.4c-.3.3-.8.6-1.3.8c-.5.2-1.1.2-1.8.2c-.8 0-1.5-.1-2.2-.5c-.6-.4-1-.9-1.4-1.6c-.3-.7-.4-1.4-.4-2.3v-.4zm6.2-.4c0-.9-.2-1.7-.6-2.1c-.5-.5-1-.8-1.7-.8c-.5 0-.9.2-1.2.4c-.4.2-.7.6-.9 1c-.3.4-.4.9-.4 1.5h4.8zm1.9 2.7c0-.6.1-1.1.4-1.5c.3-.4.7-.6 1.2-.9c.5-.2 1.2-.3 2-.5l2.2-.4c0-.7-.2-1.3-.6-1.7c-.3-.4-.9-.6-1.7-.6c-.6 0-1.1.2-1.6.4c-.5.3-.9.6-1.2 1v-1.4c.3-.3.7-.5 1.2-.8c.6-.2 1.1-.3 1.7-.3c1.2 0 2 .3 2.7.9c.6.5.9 1.4.9 2.5c.03-.03 0 5.6 0 5.6h-1.1s-.23-1.34-.2-1.3c-.4.5-.9.9-1.5 1.1c-.5.3-1.1.4-1.8.4c-.8 0-1.4-.2-1.9-.6c-.5-.5-.7-1.1-.7-1.9zm1.4-.1c0 .5.1.9.4 1.1c.3.3.6.4 1.1.4c.6 0 1.1-.2 1.6-.5c.6-.4 1-.8 1.3-1.4c.03-.03 0-1.7 0-1.7c0 0-1.42.26-1.4.3c-.8.1-1.4.2-1.8.4c-.4.1-.7.3-.9.5c-.2.3-.3.6-.3.9zm8.2-5.2h-1.9v-1.1h1.9v-2.7h1.4v2.7h2v1.1h-2v7.6h-1.4v-7.6zm3.6 5.4c.7.9 1.6 1.3 2.8 1.3c.6 0 1-.1 1.4-.4c.3-.2.5-.5.5-.9c0-.3-.1-.6-.3-.8c-.2-.2-.5-.4-1-.6l-1.2-.5c-.7-.3-1.2-.7-1.6-1.1c-.3-.4-.5-.8-.5-1.4c0-.4.1-.8.3-1.2c.3-.4.6-.6 1-.9c.5-.2 1-.3 1.6-.3c.6 0 1.1.1 1.5.3c.5.2.9.4 1.2.7v1.5c-.4-.4-.8-.8-1.3-1c-.4-.2-.9-.3-1.4-.3c-.5 0-.9.1-1.1.3c-.3.2-.4.5-.4.8c0 .3.1.5.3.7c.2.2.6.4 1 .6l1.2.5c.7.3 1.2.6 1.6 1c.3.5.5 1 .5 1.6c0 .8-.3 1.4-.9 1.8c-.7.5-1.5.7-2.4.7c-.6 0-1.2 0-1.6-.2c-.5-.2-.9-.4-1.2-.7v-1.5zm8.7 2.2h-1.9v-2.1h1.9v2.1z" stroke="none" fill="#fff"/></g><g id="Polygon3055"><path d="m.7 108c0-.9.2-1.6.5-2.3c.4-.7.9-1.2 1.6-1.6c.6-.4 1.3-.6 2.2-.6c.5 0 .9.1 1.4.3c.4.2.8.4 1.1.7v1.5c-.3-.4-.7-.8-1.1-1c-.5-.2-.9-.3-1.4-.3c-.6 0-1 .1-1.5.4c-.4.3-.7.6-1 1.1c-.2.5-.3 1.1-.3 1.8v.2c0 .7.1 1.3.3 1.8c.3.5.6.9 1.1 1.2c.4.3.8.4 1.4.4c1 0 1.8-.4 2.5-1.3v1.5c-.3.3-.7.5-1.1.7c-.5.2-1 .2-1.5.2c-.8 0-1.5-.2-2.1-.5c-.7-.4-1.2-1-1.6-1.6c-.3-.7-.5-1.5-.5-2.3v-.3zm8 4.5v-12.3h1.4s-.04 5.3 0 5.3c.3-.5.7-1 1.3-1.4c.5-.4 1.1-.6 1.8-.6c.9 0 1.6.3 2.1.9c.5.5.7 1.3.7 2.4c.02-.04 0 5.7 0 5.7h-1.4v-5.6c0-.8-.1-1.3-.4-1.7c-.2-.3-.7-.5-1.3-.5c-.4 0-.7.1-1.1.3c-.4.3-.8.6-1.1 1c-.3.4-.5.8-.6 1.3c-.04 0 0 5.2 0 5.2H8.7zm8.2-4.6c0-.8.1-1.6.5-2.2c.3-.7.8-1.2 1.4-1.6c.6-.4 1.2-.6 2-.6c1.2 0 2.1.4 2.8 1.2c.6.8 1 1.9 1 3.3c-.04.02 0 .6 0 .6h-6.3c0 .9.3 1.6.8 2.2c.4.5 1.1.8 1.9.8c1.2 0 2.2-.4 3.1-1.3v1.4c-.4.3-.8.6-1.3.8c-.5.2-1.1.2-1.8.2c-.9 0-1.6-.1-2.2-.5c-.6-.4-1.1-.9-1.4-1.6c-.4-.7-.5-1.4-.5-2.3v-.4zm6.3-.4c-.1-.9-.3-1.7-.7-2.1c-.4-.5-1-.8-1.7-.8c-.4 0-.8.2-1.2.4c-.4.2-.7.6-.9 1c-.2.4-.4.9-.4 1.5h4.9zm2.4 5v-8.7h1.3l.1 1.5c.2-.6.6-1 1-1.3c.5-.3 1-.5 1.6-.5c.1 0 .3 0 .5.1h.3v1.3c-.2-.1-.5-.1-.9-.1c-.5 0-1 .1-1.5.5c-.5.4-.8.9-1 1.5c.02.02 0 5.7 0 5.7h-1.4zm6.8-10.2H31v-1.7h1.4v1.7zm0 10.2H31v-8.7h1.4v8.7zm1.3-2.2c.7.9 1.7 1.3 2.8 1.3c.6 0 1-.1 1.4-.4c.3-.2.5-.5.5-.9c0-.3-.1-.6-.3-.8c-.2-.2-.5-.4-1-.6l-1.2-.5c-.7-.3-1.2-.7-1.6-1.1c-.3-.4-.5-.8-.5-1.4c0-.4.1-.8.4-1.2c.2-.4.5-.6 1-.9c.4-.2.9-.3 1.6-.3c.5 0 1 .1 1.5.3c.4.2.8.4 1.1.7v1.5c-.4-.4-.8-.8-1.2-1c-.5-.2-1-.3-1.4-.3c-.6 0-.9.1-1.2.3c-.3.2-.4.5-.4.8c0 .3.1.5.3.7c.2.2.6.4 1.1.6l1.1.5c.7.3 1.3.6 1.6 1c.3.5.5 1 .5 1.6c0 .8-.3 1.4-.9 1.8c-.6.5-1.4.7-2.4.7c-.6 0-1.1 0-1.6-.2c-.5-.2-.9-.4-1.2-.7v-1.5zm7.1 2.2v-12.3h1.5s-.04 5.3 0 5.3c.3-.5.7-1 1.2-1.4c.6-.4 1.2-.6 1.8-.6c1 0 1.7.3 2.2.9c.5.5.7 1.3.7 2.4v5.7h-1.4v-5.6c0-.8-.1-1.3-.4-1.7c-.2-.3-.7-.5-1.3-.5c-.4 0-.8.1-1.2.3c-.4.3-.7.6-1 1c-.3.4-.5.8-.6 1.3c-.04 0 0 5.2 0 5.2h-1.5zm8.3-4.6c0-.8.1-1.6.5-2.2c.3-.7.8-1.2 1.4-1.6c.5-.4 1.2-.6 2-.6c1.2 0 2.1.4 2.8 1.2c.6.8 1 1.9 1 3.3c-.05.02 0 .6 0 .6h-6.3c0 .9.3 1.6.8 2.2c.4.5 1.1.8 1.9.8c1.2 0 2.2-.4 3.1-1.3v1.4c-.4.3-.9.6-1.3.8c-.5.2-1.1.2-1.8.2c-.9 0-1.6-.1-2.2-.5c-.6-.4-1.1-.9-1.4-1.6c-.4-.7-.5-1.4-.5-2.3v-.4zm6.2-.4c0-.9-.2-1.7-.6-2.1c-.4-.5-1-.8-1.7-.8c-.4 0-.8.2-1.2.4c-.4.2-.7.6-.9 1c-.2.4-.4.9-.4 1.5h4.8zm1.9.6c0-.9.1-1.7.5-2.4c.3-.7.8-1.2 1.4-1.6c.5-.4 1.2-.6 1.9-.6c.6 0 1.1.2 1.6.5c.5.2.9.6 1.2 1.1c.02-.04 0-4.9 0-4.9h1.4v12.3H64s-.16-1.36-.2-1.4c-.3.5-.7.9-1.2 1.2c-.5.3-1 .4-1.6.4c-.7 0-1.4-.1-1.9-.5c-.6-.4-1.1-.9-1.4-1.6c-.4-.7-.5-1.6-.5-2.5zm1.5 0c0 .7.1 1.4.3 1.9c.2.5.5.9.9 1.2c.4.3.9.4 1.3.4c.6 0 1.1-.2 1.6-.6c.4-.4.8-.9 1-1.4v-2.9c-.2-.6-.6-1.1-1-1.5c-.5-.4-1-.6-1.5-.6c-.5 0-1 .2-1.4.5c-.4.3-.7.7-.9 1.2c-.2.5-.3 1.1-.3 1.8zm11.7 4.4v-8.7h1.3s.08 1.55.1 1.6c.3-.6.7-1 1.2-1.4c.5-.3 1-.5 1.6-.5c.7 0 1.2.2 1.6.5c.4.4.7.8.9 1.4c.3-.5.7-1 1.2-1.4c.5-.3 1.1-.5 1.7-.5c.8 0 1.5.3 2 .8c.4.5.7 1.3.7 2.3c-.04-.03 0 5.9 0 5.9h-1.5s.05-5.82 0-5.8c0-.7-.1-1.2-.3-1.6c-.2-.3-.6-.5-1.1-.5c-.4 0-.7.2-1 .4c-.4.2-.7.5-1 .8c-.3.4-.5.8-.6 1.2c.03-.02 0 5.5 0 5.5h-1.4s.02-5.85 0-5.9c0-.6-.1-1.1-.3-1.5c-.3-.3-.6-.5-1.1-.5c-.4 0-.7.2-1 .4c-.4.2-.7.5-1 .8l-.6 1.2c.02-.02 0 5.5 0 5.5h-1.4zm13.1-4.5c0-.9.2-1.6.6-2.3c.3-.7.8-1.2 1.4-1.6c.6-.4 1.3-.6 2.1-.6c.8 0 1.5.2 2.2.6c.6.4 1.1.9 1.4 1.6c.4.7.5 1.4.5 2.3v.3c0 .9-.1 1.6-.5 2.3c-.3.7-.8 1.2-1.4 1.6c-.7.4-1.4.5-2.2.5c-.8 0-1.5-.1-2.1-.5c-.6-.4-1.1-.9-1.4-1.6c-.4-.7-.6-1.4-.6-2.3v-.3zm1.5.3c0 1 .2 1.8.7 2.4c.5.6 1.1.9 1.9.9c.9 0 1.5-.3 2-.9c.4-.6.7-1.4.7-2.4v-.3c0-1-.3-1.8-.7-2.4c-.5-.6-1.1-1-2-1c-.8 0-1.4.4-1.9 1c-.5.6-.7 1.4-.7 2.4v.3zm7.8 4.2v-8.7h1.2s.14 1.55.1 1.6c.4-.6.8-1 1.3-1.4c.4-.3 1-.5 1.6-.5c.6 0 1.1.2 1.6.5c.4.4.7.8.8 1.4c.4-.5.8-1 1.3-1.4c.5-.3 1.1-.5 1.7-.5c.8 0 1.4.3 1.9.8c.5.5.7 1.3.7 2.3c.02-.03 0 5.9 0 5.9h-1.4v-5.8c0-.7-.1-1.2-.3-1.6c-.3-.3-.6-.5-1.2-.5c-.3 0-.6.2-1 .4c-.3.2-.6.5-.9.8c-.3.4-.5.8-.6 1.2v5.5h-1.4v-5.9c0-.6-.1-1.1-.4-1.5c-.2-.3-.6-.5-1.1-.5c-.3 0-.6.2-1 .4c-.3.2-.6.5-.9.8c-.3.4-.5.8-.6 1.2v5.5h-1.4zm13.1-4.6c0-.8.2-1.6.5-2.2c.3-.7.8-1.2 1.4-1.6c.6-.4 1.2-.6 2-.6c1.2 0 2.1.4 2.8 1.2c.6.8 1 1.9 1 3.3c-.03.02 0 .6 0 .6h-6.3c0 .9.3 1.6.8 2.2c.4.5 1.1.8 1.9.8c1.2 0 2.2-.4 3.1-1.3v1.4c-.4.3-.8.6-1.3.8c-.5.2-1.1.2-1.8.2c-.9 0-1.6-.1-2.2-.5c-.6-.4-1.1-.9-1.4-1.6c-.4-.7-.5-1.4-.5-2.3v-.4zm6.3-.4c-.1-.9-.3-1.7-.7-2.1c-.4-.5-1-.8-1.7-.8c-.4 0-.8.2-1.2.4c-.4.2-.7.6-.9 1c-.2.4-.4.9-.4 1.5h4.9zm2.4 5v-8.7h1.3l.1 1.7c.3-.5.8-1 1.3-1.4c.5-.4 1.2-.6 1.8-.6c1 0 1.7.3 2.2.9c.5.5.7 1.3.7 2.4v5.7h-1.4s-.03-5.63 0-5.6c0-.8-.2-1.3-.4-1.7c-.3-.3-.7-.5-1.3-.5c-.4 0-.8.1-1.2.3c-.4.3-.7.6-1 1c-.3.5-.6.9-.7 1.4c.03-.05 0 5.1 0 5.1h-1.4zm9.7-7.6h-1.9v-1.1h1.9v-2.7h1.4v2.7h2v1.1h-2v7.6h-1.4v-7.6zm3.6 5.4c.7.9 1.7 1.3 2.8 1.3c.6 0 1-.1 1.4-.4c.3-.2.5-.5.5-.9c0-.3-.1-.6-.3-.8c-.2-.2-.5-.4-1-.6l-1.2-.5c-.7-.3-1.2-.7-1.6-1.1c-.3-.4-.5-.8-.5-1.4c0-.4.1-.8.3-1.2c.3-.4.6-.6 1.1-.9c.4-.2.9-.3 1.6-.3c.5 0 1 .1 1.4.3c.5.2.9.4 1.2.7v1.5c-.4-.4-.8-.8-1.2-1c-.5-.2-1-.3-1.4-.3c-.6 0-1 .1-1.2.3c-.3.2-.4.5-.4.8c0 .3.1.5.3.7c.2.2.6.4 1.1.6l1.1.5c.7.3 1.3.6 1.6 1c.3.5.5 1 .5 1.6c0 .8-.3 1.4-.9 1.8c-.7.5-1.4.7-2.4.7c-.6 0-1.1 0-1.6-.2c-.5-.2-.9-.4-1.2-.7v-1.5zm10-2.3c0-.9.2-1.6.6-2.3c.3-.7.8-1.2 1.5-1.6c.6-.4 1.4-.6 2.2-.6c.5 0 1 .1 1.4.3c.5.2.9.4 1.2.7v1.5c-.4-.4-.7-.8-1.2-1c-.4-.2-.9-.3-1.4-.3c-.5 0-1 .1-1.4.4c-.4.3-.8.6-1 1.1c-.3.5-.4 1.1-.4 1.8v.2c0 .7.1 1.3.4 1.8c.2.5.6.9 1 1.2c.4.3.9.4 1.4.4c1 0 1.9-.4 2.6-1.3v1.5c-.3.3-.7.5-1.2.7c-.4.2-.9.2-1.4.2c-.8 0-1.6-.2-2.2-.5c-.7-.4-1.2-1-1.5-1.6c-.4-.7-.6-1.5-.6-2.3v-.3zm7.4 0c0-.9.2-1.6.5-2.3c.3-.7.8-1.2 1.5-1.6c.6-.4 1.3-.6 2.1-.6c.8 0 1.5.2 2.1.6c.6.4 1.1.9 1.5 1.6c.3.7.5 1.4.5 2.3v.3c0 .9-.2 1.6-.5 2.3c-.4.7-.9 1.2-1.5 1.6c-.6.4-1.3.5-2.1.5c-.8 0-1.5-.1-2.1-.5c-.7-.4-1.2-.9-1.5-1.6c-.3-.7-.5-1.4-.5-2.3v-.3zm1.5.3c0 1 .2 1.8.7 2.4c.4.6 1.1.9 1.9.9c.8 0 1.4-.3 1.9-.9c.5-.6.7-1.4.7-2.4v-.3c0-1-.2-1.8-.7-2.4c-.5-.6-1.1-1-1.9-1c-.8 0-1.5.4-1.9 1c-.5.6-.7 1.4-.7 2.4v.3zm7.7 4.2v-8.7h1.3l.1 1.6c.3-.6.7-1 1.2-1.4c.5-.3 1-.5 1.7-.5c.6 0 1.1.2 1.5.5c.4.4.7.8.9 1.4c.3-.5.8-1 1.3-1.4c.5-.3 1-.5 1.7-.5c.8 0 1.4.3 1.9.8c.4.5.7 1.3.7 2.3c-.03-.03 0 5.9 0 5.9h-1.4s-.04-5.82 0-5.8c0-.7-.2-1.2-.4-1.6c-.2-.3-.6-.5-1.1-.5c-.3 0-.7.2-1 .4c-.4.2-.7.5-1 .8l-.6 1.2c.04-.02 0 5.5 0 5.5h-1.4s.03-5.85 0-5.9c0-.6-.1-1.1-.3-1.5c-.2-.3-.6-.5-1.1-.5c-.4 0-.7.2-1 .4c-.4.2-.7.5-1 .8l-.6 1.2c.03-.02 0 5.5 0 5.5h-1.4zm13.1-4.6c0-.8.2-1.6.5-2.2c.4-.7.8-1.2 1.4-1.6c.6-.4 1.3-.6 2.1-.6c1.1 0 2 .4 2.7 1.2c.7.8 1 1.9 1 3.3v.6H169c.1.9.4 1.6.8 2.2c.5.5 1.1.8 1.9.8c1.3 0 2.3-.4 3.1-1.3v1.4c-.4.3-.8.6-1.3.8c-.5.2-1.1.2-1.8.2c-.8 0-1.6-.1-2.2-.5c-.6-.4-1.1-.9-1.4-1.6c-.3-.7-.5-1.4-.5-2.3v-.4zm6.3-.4c0-.9-.2-1.7-.7-2.1c-.4-.5-.9-.8-1.6-.8c-.5 0-.9.2-1.3.4c-.3.2-.6.6-.9 1c-.2.4-.3.9-.3 1.5h4.8z" stroke="none" fill="#fff"/></g><g id="Polygon3054"><path d="m1.7 84.5H.2l4.6-12.2h1.5l4.6 12.2H9.3L8 81h-5l-1.3 3.5zm3.8-10.3l-2 5.6h4.1l-2.1-5.6zM15 84.5v-8.7h1.3l.1 1.7c.3-.5.7-1 1.3-1.4c.5-.4 1.1-.6 1.8-.6c.9 0 1.6.3 2.1.9c.5.5.8 1.3.8 2.4c-.02-.04 0 5.7 0 5.7H21s-.04-5.63 0-5.6c0-.8-.2-1.3-.4-1.7c-.3-.3-.7-.5-1.3-.5c-.4 0-.8.1-1.2.3c-.4.3-.7.6-1.1 1c-.3.5-.5.9-.6 1.4c.02-.05 0 5.1 0 5.1H15zm8.2-4.6c0-.8.2-1.6.5-2.2c.4-.7.8-1.2 1.4-1.6c.6-.4 1.3-.6 2.1-.6c1.1 0 2 .4 2.7 1.2c.7.8 1 1.9 1 3.3v.6h-6.3c.1.9.4 1.6.8 2.2c.5.5 1.1.8 1.9.8c1.3 0 2.3-.4 3.1-1.3v1.4c-.4.3-.8.6-1.3.8c-.5.2-1.1.2-1.8.2c-.8 0-1.6-.1-2.2-.5c-.6-.4-1.1-.9-1.4-1.6c-.3-.7-.5-1.4-.5-2.3v-.4zm6.3-.4c0-.9-.2-1.7-.7-2.1c-.4-.5-.9-.8-1.6-.8c-.5 0-.9.2-1.3.4c-.3.2-.6.6-.9 1c-.2.4-.3.9-.3 1.5h4.8zm4 5l-2.6-8.7h1.5l2 7.2l1.9-7.2h1.7l2 7.1l1.9-7.1h1.3l-2.5 8.7H39l-1.9-7.2l-1.9 7.2h-1.7zm15.3 0h-1.4V72.2h1.4v12.3zm3.1-10.2h-1.4v-1.7h1.4v1.7zm0 10.2h-1.4v-8.7h1.4v8.7zm.6-7.6v-1.1h1.7s.02-.9 0-.9c0-.5.1-1 .3-1.5c.2-.4.5-.8.9-1.1c.5-.2 1-.4 1.6-.4c.4 0 .7.1 1 .3v1.2c-.2-.2-.5-.3-.9-.3c-.5 0-.8.1-1.1.5c-.2.3-.4.7-.4 1.3c.05.02 0 .9 0 .9h2.1v1.1h-2.1v7.6h-1.4v-7.6h-1.7zm5.3 3c0-.8.1-1.6.5-2.2c.3-.7.8-1.2 1.4-1.6c.5-.4 1.2-.6 2-.6c1.2 0 2.1.4 2.8 1.2c.6.8 1 1.9 1 3.3c-.04.02 0 .6 0 .6h-6.3c0 .9.3 1.6.8 2.2c.4.5 1.1.8 1.9.8c1.2 0 2.2-.4 3.1-1.3v1.4c-.4.3-.8.6-1.3.8c-.5.2-1.1.2-1.8.2c-.9 0-1.6-.1-2.2-.5c-.6-.4-1.1-.9-1.4-1.6c-.4-.7-.5-1.4-.5-2.3v-.4zm6.2-.4c0-.9-.2-1.7-.6-2.1c-.4-.5-1-.8-1.7-.8c-.4 0-.8.2-1.2.4c-.4.2-.7.6-.9 1c-.2.4-.4.9-.4 1.5h4.8zm2.2 2.8c.7.9 1.6 1.3 2.7 1.3c.6 0 1.1-.1 1.4-.4c.3-.2.5-.5.5-.9c0-.3-.1-.6-.2-.8c-.2-.2-.6-.4-1.1-.6l-1.1-.5c-.8-.3-1.3-.7-1.6-1.1c-.4-.4-.6-.8-.6-1.4c0-.4.2-.8.4-1.2c.2-.4.5-.6 1-.9c.4-.2 1-.3 1.6-.3c.5 0 1 .1 1.5.3c.5.2.9.4 1.2.7v1.5c-.4-.4-.8-.8-1.3-1c-.5-.2-.9-.3-1.4-.3c-.5 0-.9.1-1.2.3c-.2.2-.4.5-.4.8c0 .3.1.5.3.7c.3.2.6.4 1.1.6l1.1.5c.8.3 1.3.6 1.6 1c.4.5.5 1 .5 1.6c0 .8-.3 1.4-.9 1.8c-.6.5-1.4.7-2.4.7c-.6 0-1.1 0-1.6-.2c-.5-.2-.8-.4-1.1-.7v-1.5zm7.9-5.4h-1.9v-1.1h1.9v-2.7h1.4v2.7h2v1.1h-2v7.6h-1.4v-7.6zm6.7 7.6l-3.4-8.7h1.5l2.7 7l2.6-7h1.5L80.8 88h-1.5l1.5-3.5zm6.9 0h-1.4V72.2h1.4v12.3zm1.1-4.6c0-.8.1-1.6.5-2.2c.3-.7.8-1.2 1.3-1.6c.6-.4 1.3-.6 2.1-.6c1.2 0 2.1.4 2.7 1.2c.7.8 1 1.9 1 3.3c.05.02 0 .6 0 .6h-6.2c0 .9.3 1.6.8 2.2c.4.5 1.1.8 1.9.8c1.2 0 2.2-.4 3.1-1.3v1.4c-.4.3-.9.6-1.4.8c-.4.2-1 .2-1.7.2c-.9 0-1.6-.1-2.2-.5c-.7-.4-1.1-.9-1.4-1.6c-.4-.7-.5-1.4-.5-2.3v-.4zm6.2-.4c0-.9-.2-1.7-.6-2.1c-.4-.5-1-.8-1.7-.8c-.4 0-.9.2-1.2.4c-.4.2-.7.6-.9 1c-.2.4-.4.9-.4 1.5h4.8zm5.4 2.7c0-.6.2-1.1.5-1.5c.2-.4.6-.6 1.1-.9c.5-.2 1.2-.3 2.1-.5l2.2-.4c-.1-.7-.3-1.3-.6-1.7c-.4-.4-1-.6-1.8-.6c-.5 0-1 .2-1.5.4c-.5.3-1 .6-1.3 1v-1.4c.3-.3.8-.5 1.3-.8c.5-.2 1.1-.3 1.7-.3c1.1 0 2 .3 2.6.9c.6.5 1 1.4 1 2.5c-.04-.03 0 5.6 0 5.6h-1.1l-.3-1.3c-.4.5-.9.9-1.4 1.1c-.6.3-1.2.4-1.8.4c-.8 0-1.5-.2-2-.6c-.5-.5-.7-1.1-.7-1.9zm1.4-.1c0 .5.2.9.4 1.1c.3.3.7.4 1.1.4c.6 0 1.1-.2 1.7-.5c.5-.4 1-.8 1.3-1.4c-.03-.03 0-1.7 0-1.7c0 0-1.48.26-1.5.3c-.8.1-1.4.2-1.8.4c-.4.1-.7.3-.9.5c-.2.3-.3.6-.3.9zm7.4 2.4v-8.7h1.3l.1 1.7c.3-.5.8-1 1.3-1.4c.5-.4 1.1-.6 1.8-.6c.9 0 1.7.3 2.1.9c.5.5.8 1.3.8 2.4v5.7h-1.4s-.03-5.63 0-5.6c0-.8-.2-1.3-.4-1.7c-.3-.3-.7-.5-1.3-.5c-.4 0-.8.1-1.2.3c-.4.3-.7.6-1 1c-.3.5-.6.9-.7 1.4c.02-.05 0 5.1 0 5.1h-1.4zm8.3-4.4c0-.9.1-1.7.5-2.4c.3-.7.7-1.2 1.3-1.6c.6-.4 1.3-.6 2-.6c.5 0 1.1.2 1.6.5c.5.2.9.6 1.2 1.1v-4.9h1.4v12.3h-1.3l-.1-1.4c-.3.5-.7.9-1.2 1.2c-.5.3-1 .4-1.6.4c-.7 0-1.4-.1-2-.5c-.6-.4-1-.9-1.3-1.6c-.4-.7-.5-1.6-.5-2.5zm1.4 0c0 .7.1 1.4.4 1.9c.2.5.5.9.9 1.2c.4.3.8.4 1.3.4c.6 0 1.1-.2 1.5-.6c.5-.4.9-.9 1.1-1.4v-2.9c-.2-.6-.6-1.1-1.1-1.5c-.4-.4-.9-.6-1.5-.6c-.5 0-.9.2-1.3.5c-.4.3-.7.7-.9 1.2c-.3.5-.4 1.1-.4 1.8zm11.8 4.4v-8.7h1.3s.05 1.55 0 1.6c.4-.6.8-1 1.3-1.4c.4-.3 1-.5 1.6-.5c.6 0 1.2.2 1.6.5c.4.4.7.8.8 1.4c.4-.5.8-1 1.3-1.4c.5-.3 1.1-.5 1.7-.5c.8 0 1.5.3 1.9.8c.5.5.7 1.3.7 2.3c.03-.03 0 5.9 0 5.9h-1.4s.02-5.82 0-5.8c0-.7-.1-1.2-.3-1.6c-.3-.3-.6-.5-1.2-.5c-.3 0-.6.2-1 .4c-.3.2-.6.5-.9.8c-.3.4-.5.8-.6 1.2v5.5h-1.4v-5.9c0-.6-.1-1.1-.3-1.5c-.3-.3-.7-.5-1.2-.5c-.3 0-.6.2-1 .4c-.3.2-.6.5-.9.8c-.3.4-.5.8-.6 1.2v5.5h-1.4zm13.1-4.5c0-.9.2-1.6.5-2.3c.4-.7.9-1.2 1.5-1.6c.6-.4 1.3-.6 2.1-.6c.8 0 1.5.2 2.1.6c.6.4 1.1.9 1.5 1.6c.3.7.5 1.4.5 2.3v.3c0 .9-.2 1.6-.5 2.3c-.4.7-.9 1.2-1.5 1.6c-.6.4-1.3.5-2.1.5c-.8 0-1.5-.1-2.1-.5c-.6-.4-1.1-.9-1.5-1.6c-.3-.7-.5-1.4-.5-2.3v-.3zm1.5.3c0 1 .2 1.8.7 2.4c.5.6 1.1.9 1.9.9c.8 0 1.5-.3 1.9-.9c.5-.6.7-1.4.7-2.4v-.3c0-1-.2-1.8-.7-2.4c-.4-.6-1.1-1-1.9-1c-.8 0-1.4.4-1.9 1c-.5.6-.7 1.4-.7 2.4v.3zm7.8 4.2v-8.7h1.2s.13 1.49.1 1.5c.3-.6.6-1 1.1-1.3c.4-.3.9-.5 1.5-.5c.2 0 .3 0 .5.1h.4v1.3c-.3-.1-.6-.1-.9-.1c-.6 0-1.1.1-1.6.5c-.4.4-.7.9-.9 1.5c-.04.02 0 5.7 0 5.7h-1.4zm4.7-4.6c0-.8.2-1.6.5-2.2c.3-.7.8-1.2 1.4-1.6c.6-.4 1.3-.6 2-.6c1.2 0 2.1.4 2.8 1.2c.7.8 1 1.9 1 3.3v.6h-6.3c.1.9.3 1.6.8 2.2c.5.5 1.1.8 1.9.8c1.2 0 2.3-.4 3.1-1.3v1.4c-.4.3-.8.6-1.3.8c-.5.2-1.1.2-1.8.2c-.9 0-1.6-.1-2.2-.5c-.6-.4-1.1-.9-1.4-1.6c-.3-.7-.5-1.4-.5-2.3v-.4zm6.3-.4c0-.9-.3-1.7-.7-2.1c-.4-.5-1-.8-1.7-.8c-.4 0-.8.2-1.2.4c-.3.2-.6.6-.9 1c-.2.4-.3.9-.4 1.5h4.9z" stroke="none" fill="#fff"/></g><g id="Polygon3053"><path d="m1.2 39.7c.5.7 1.1 1.3 1.9 1.8c.8.4 1.6.7 2.4.7c.8 0 1.4-.2 1.9-.6c.4-.4.6-.9.6-1.4c0-.4-.1-.8-.4-1.1c-.3-.3-.8-.7-1.6-1.1l-2.1-1.1c-.9-.5-1.6-1-2-1.6c-.4-.5-.6-1.3-.6-2.2c0-.7.1-1.3.5-1.9c.3-.6.8-1 1.5-1.4c.8-.4 1.6-.5 2.6-.5c1.5 0 2.9.4 4.2 1.4v2.9c-.6-.8-1.2-1.4-1.9-1.7c-.8-.4-1.5-.6-2.3-.6c-.6 0-1 .2-1.4.5c-.4.3-.5.7-.5 1.2c0 .3.1.6.3.9c.2.3.7.6 1.3.9L7.8 36c1 .5 1.7 1.1 2.2 1.7c.5.7.7 1.5.7 2.4c0 .9-.2 1.6-.6 2.2c-.4.6-1.1 1.1-1.8 1.5c-.8.3-1.8.5-2.8.5c-.9 0-1.8-.2-2.5-.5c-.8-.3-1.4-.7-1.8-1.1v-3zM13.8 44l-3.1-10.4h2.5l2 7.5l2-7.5h3l2 7.5l2-7.5h2.2l-3 10.4h-2.7l-2.1-7.9l-2.1 7.9h-2.7zm15.6-12H27v-2.6h2.4v2.6zm0 12H27V33.6h2.4V44zm4.5 0L30 33.6h2.6l2.8 7.8l2.7-7.8h2.3L36.5 44h-2.6zm6.2-5.4c0-1 .2-1.9.6-2.7c.4-.8 1-1.5 1.7-1.9c.7-.5 1.6-.7 2.6-.7c1.5 0 2.6.5 3.5 1.5c.8.9 1.2 2.2 1.2 3.9v.9s-7.24.05-7.2 0c.1.9.4 1.6.9 2.1c.5.4 1.1.7 2 .7c.7 0 1.3-.1 1.9-.4c.6-.2 1.1-.6 1.7-1.2v2.3c-.5.4-1 .7-1.6.9c-.7.2-1.4.3-2.1.3c-1.1 0-2.1-.3-2.8-.7c-.8-.5-1.4-1.1-1.8-1.9c-.4-.8-.6-1.7-.6-2.7v-.4zm7.2-.8c0-.8-.2-1.5-.7-1.9c-.4-.5-1-.7-1.7-.7c-.6 0-1.2.2-1.6.7c-.5.5-.8 1.1-.8 1.9h4.8zm5.9 6.2h-2.5V29.4h2.5V44zm4.2-12h-2.5v-2.6h2.5v2.6zm0 12h-2.5V33.6h2.5V44zm1.7 0V33.6h2.3s.12 1.51.1 1.5c.4-.5.9-.9 1.4-1.3c.6-.3 1.2-.5 1.9-.5c1.2 0 2.1.4 2.7 1c.7.7 1 1.7 1 2.9c-.02 0 0 6.8 0 6.8H66s.02-6.8 0-6.8c0-1.3-.5-2-1.6-2c-.6 0-1.2.3-1.7.7c-.6.5-1 1.1-1.2 1.8c.02-.05 0 6.3 0 6.3h-2.4zm10.2-5.4c0-1.1.2-2 .6-2.8c.5-.8 1-1.4 1.7-1.8c.8-.5 1.5-.7 2.4-.7c.6 0 1.2.2 1.8.4c.5.3 1 .7 1.3 1.1l.2-1.2h2.2s.03 9.79 0 9.8c0 1.6-.5 2.8-1.5 3.7c-1.1.8-2.5 1.2-4.2 1.2c-.8 0-1.5 0-2-.2c-.6-.2-1.1-.4-1.6-.7V45c.5.4 1.1.7 1.6.9c.6.3 1.3.4 2 .4c1 0 1.7-.3 2.4-.8c.6-.5.9-1.2.9-2.1v-.9c-.3.4-.7.8-1.3 1c-.6.3-1.1.4-1.8.4c-.9 0-1.6-.2-2.4-.7c-.7-.4-1.2-1-1.7-1.8c-.4-.8-.6-1.8-.6-2.8zm2.6 0c0 .7.1 1.3.4 1.8c.3.5.6.9 1 1.2c.4.3.9.4 1.3.4c.5 0 1-.1 1.4-.4c.5-.3.8-.7 1.1-1.2v-3.5c-.3-.6-.6-1-1.1-1.3c-.4-.2-.9-.4-1.4-.4c-.5 0-.9.1-1.3.4c-.4.2-.8.6-1 1.1c-.3.5-.4 1.2-.4 1.9zm13.3 1.1c.5.7 1.1 1.3 1.9 1.8c.8.4 1.6.7 2.4.7c.8 0 1.4-.2 1.9-.6c.4-.4.6-.9.6-1.4c0-.4-.1-.8-.4-1.1c-.3-.3-.8-.7-1.6-1.1l-2.1-1.1c-.9-.5-1.6-1-2-1.6c-.4-.5-.6-1.3-.6-2.2c0-.7.1-1.3.5-1.9c.3-.6.8-1 1.5-1.4c.8-.4 1.6-.5 2.6-.5c1.5 0 2.9.4 4.2 1.4v2.9c-.6-.8-1.2-1.4-2-1.7c-.7-.4-1.4-.6-2.2-.6c-.6 0-1 .2-1.4.5c-.4.3-.5.7-.5 1.2c0 .3.1.6.3.9c.2.3.7.6 1.3.9l2.2 1.2c1 .5 1.7 1.1 2.2 1.7c.5.7.7 1.5.7 2.4c0 .9-.2 1.6-.6 2.2c-.4.6-1.1 1.1-1.8 1.5c-.8.3-1.8.5-2.8.5c-.9 0-1.8-.2-2.5-.5c-.8-.3-1.4-.7-1.8-1.1v-3zm9.9-1.1c0-1 .2-1.9.6-2.7c.4-.8 1-1.5 1.8-1.9c.7-.5 1.6-.7 2.5-.7c1.5 0 2.7.5 3.5 1.5c.8.9 1.3 2.2 1.3 3.9c-.04 0 0 .9 0 .9c0 0-7.27.05-7.3 0c.1.9.4 1.6.9 2.1c.5.4 1.2.7 2.1.7c.6 0 1.3-.1 1.9-.4c.5-.2 1.1-.6 1.7-1.2v2.3c-.5.4-1 .7-1.7.9c-.6.2-1.3.3-2 .3c-1.1 0-2.1-.3-2.9-.7c-.8-.5-1.4-1.1-1.8-1.9c-.4-.8-.6-1.7-.6-2.7v-.4zm7.2-.8c0-.8-.2-1.5-.6-1.9c-.4-.5-1-.7-1.7-.7c-.7 0-1.2.2-1.7.7c-.4.5-.7 1.1-.8 1.9h4.8zm2.8 3.3c0-.8.3-1.5.7-2c.4-.5.9-.8 1.5-1c.6-.3 1.4-.4 2.3-.6l2.2-.3c-.1-1.4-1-2.1-2.5-2.1c-.6 0-1.2.2-1.8.5c-.5.3-1 .7-1.4 1.3v-2.4c1-.8 2.2-1.2 3.7-1.2c1.3 0 2.4.4 3.2 1.1c.8.7 1.2 1.8 1.2 3.2c.05.01 0 6.4 0 6.4h-2s-.23-1.22-.2-1.2c-.6.5-1.1.8-1.6 1.1c-.6.2-1.2.4-1.9.4c-1.1 0-1.9-.3-2.5-.9c-.6-.6-.9-1.3-.9-2.3zm2.5-.1c0 .4.1.7.3.9c.3.3.6.4 1 .4c.7 0 1.2-.2 1.8-.6c.5-.3.9-.8 1.1-1.3c.03-.05 0-1.5 0-1.5c0 0-1.2.22-1.2.2c-.9.2-1.5.3-1.8.4c-.4.2-.7.4-.9.5c-.2.3-.3.6-.3 1zm9.3-5.5h-2.3v-1.9h2.3v-3.1h2.4v3.1h2.3v1.9h-2.3v8.5h-2.4v-8.5z" stroke="none" fill="#fff"/></g><g id="Polygon3052"><path d="m.8 16v-1.8s4.58-4.74 4.6-4.7c.6-.7 1.1-1.3 1.4-1.8c.2-.5.4-1 .4-1.7c0-.7-.3-1.2-.7-1.7c-.4-.4-1-.6-1.8-.6c-.7 0-1.3.1-1.9.5c-.6.4-1.1.9-1.5 1.5V2.9c.4-.4.9-.7 1.6-1c.6-.2 1.3-.4 2.1-.4c1 0 1.9.2 2.6.6c.8.4 1.3.9 1.7 1.6c.4.7.5 1.4.5 2.3c0 1-.2 1.8-.6 2.6c-.5.8-1.2 1.6-2.1 2.5c.04-.02-2.8 2.8-2.8 2.8h5.9v2.1H.8zm10.7 0V5.6h2.3l.1 1.5c.4-.5.8-.9 1.4-1.3c.6-.3 1.2-.5 1.9-.5c1.2 0 2.1.4 2.7 1c.6.7 1 1.7 1 2.9c-.04 0 0 6.8 0 6.8h-2.5s.01-6.8 0-6.8c0-1.3-.5-2-1.6-2c-.6 0-1.2.3-1.7.7c-.6.5-1 1.1-1.2 1.8v6.3h-2.4zm10.2-5.2c0-1.1.2-2.1.6-2.9c.5-.8 1-1.5 1.7-1.9c.7-.5 1.5-.7 2.4-.7c.6 0 1.2.1 1.7.4c.5.2 1 .6 1.4 1c-.03.01 0-5.3 0-5.3h2.4V16h-2.3s-.13-1.27-.1-1.3c-.3.5-.8.9-1.3 1.1c-.6.3-1.2.5-1.8.5c-.9 0-1.7-.3-2.4-.7c-.7-.4-1.2-1.1-1.7-1.9c-.4-.8-.6-1.8-.6-2.9zm2.6 0c0 .8.1 1.4.3 2c.3.5.6.9 1 1.2c.4.3.9.4 1.3.4c.6 0 1.1-.2 1.5-.5c.5-.3.8-.7 1.1-1.2V8.9c-.3-.6-.6-1-1.1-1.3c-.4-.3-.9-.4-1.4-.4c-.5 0-.9.1-1.3.4c-.4.3-.8.7-1 1.2c-.3.6-.4 1.2-.4 2zM37.9 16V1.5s5.93.04 5.9 0c.9 0 1.7.2 2.5.5c.7.3 1.3.8 1.7 1.4c.4.7.6 1.4.6 2.3v.3c0 1.1-.3 2-1 2.7c-.7.7-1.6 1.2-2.7 1.3c-.04.03 4.6 6 4.6 6h-3.4l-4.3-5.9h-1.3v5.9h-2.6zm5.6-7.9c.7 0 1.3-.2 1.7-.6c.5-.4.7-.9.7-1.5v-.3c0-.7-.2-1.2-.7-1.5c-.4-.4-1-.6-1.7-.6h-3v4.5s2.99-.02 3 0zm5.8 2.5c0-1 .2-1.9.6-2.7c.5-.8 1.1-1.4 1.9-1.9c.8-.4 1.7-.7 2.7-.7c1 0 1.9.3 2.6.7c.8.5 1.5 1.1 1.9 1.9c.5.8.7 1.7.7 2.7v.3c0 1.1-.2 2-.7 2.8c-.4.8-1.1 1.4-1.9 1.9c-.7.4-1.6.7-2.6.7c-1 0-1.9-.3-2.7-.7c-.8-.5-1.4-1.1-1.9-1.9c-.4-.8-.6-1.8-.6-2.8v-.3zm2.5.3c0 1 .2 1.9.7 2.5c.5.7 1.1 1 2 1c.8 0 1.5-.3 1.9-1c.5-.6.7-1.5.7-2.5v-.3c0-1-.2-1.8-.7-2.4c-.4-.7-1.1-1-1.9-1c-.9 0-1.5.3-2 1c-.5.6-.7 1.4-.7 2.4v.3zM62.4 16l-3-10.4h2.4l2 7.5l2.1-7.5h2.9l2.1 7.5l2-7.5h2.2l-3 10.4h-2.7l-2.1-7.9l-2.1 7.9h-2.8z" stroke="none" fill="#fff"/></g></svg>