<?xml version="1.0" standalone="no"?><!DOCTYPE svg PUBLIC "-//W3C//DTD SVG 1.1//EN" "http://www.w3.org/Graphics/SVG/1.1/DTD/svg11.dtd"><svg xmlns="http://www.w3.org/2000/svg" version="1.1" width="160px" height="55.8px" viewBox="0 -5 160 55.8" style="top:-5px"><desc>텍스트 B</desc><defs/><g id="Polygon2596"><path d="m53.9 31.1h8.2v1.2h-9.6v-6.7h9.2v1.2h-7.8v4.3zm4 2v3.4h6.1v1.1H50.3v-1.1h6.2v-3.4h1.4zm16.9-3.5v-5.2h1.4v14.4h-1.4v-8h-2.4v-1.2h2.4zm-6.6-4.1c.7 0 1.3.1 1.9.5c.5.4.9.9 1.2 1.6c.3.7.5 1.5.5 2.4v.4c0 .9-.2 1.7-.5 2.4c-.3.7-.7 1.2-1.2 1.6c-.6.4-1.2.6-1.9.6c-.8 0-1.4-.2-2-.6c-.5-.4-.9-.9-1.2-1.6c-.3-.7-.4-1.5-.4-2.4v-.4c0-.9.1-1.7.4-2.4c.3-.7.7-1.2 1.2-1.6c.6-.4 1.2-.5 2-.5zm2.2 4.6c0-1.1-.2-2-.6-2.6c-.4-.6-.9-.9-1.6-.9c-.8 0-1.3.3-1.7.9c-.4.6-.6 1.5-.6 2.6v.3c0 1.1.2 1.9.6 2.5c.4.6.9.9 1.7.9c.7 0 1.2-.3 1.6-.9c.4-.6.6-1.4.6-2.5v-.3zm22.6.8h-1.8v4.4h-1.4V24.6h1.4v5.2h1.8v-5.4h1.4v11.2H93v-4.7zm-7.1-4.5c-1.1 0-2-.1-2.6-.4v-1c.6.2 1.5.3 2.6.3c-.03-.04 1.7 0 1.7 0v1.1s-1.73-.02-1.7 0zm-3.9.8h7v1.1h-7v-1.1zm6.3 4.3c0 .4-.2.8-.4 1.2c-.2.3-.6.6-1 .8c-.4.2-.9.3-1.4.3c-.6 0-1-.1-1.5-.3c-.4-.2-.7-.5-1-.8c-.2-.4-.3-.8-.3-1.2v-.2c0-.4.1-.8.3-1.2c.3-.3.6-.6 1-.8c.5-.2.9-.4 1.5-.4c.5 0 1 .2 1.4.4c.4.2.8.5 1 .8c.2.4.4.8.4 1.2v.2zm-4.3 0c0 .3.1.7.4.9c.3.2.6.4 1.1.4c.4 0 .8-.2 1.1-.4c.2-.2.4-.6.4-.9v-.1c0-.4-.2-.7-.4-1c-.3-.2-.7-.4-1.1-.4c-.5 0-.8.2-1.1.4c-.3.3-.4.6-.4 1v.1zm2.4 3.2v3.3h8.6v1.1h-10v-4.4h1.4zm12.9-6.2h8v1.1h-9.4V25h9v1.2h-7.6v2.3zm-3.8 3.7V31h13.8v1.2H95.5zm11.4 4.8h-7.5v1.3h7.9v1.1h-9.4v-3.5h7.6v-1.2h-7.6v-1.2h9v3.5z" stroke="none" fill="#939598"/></g><g id="Polygon2595"><path d="m54.9 5.7h2.6v1.1h-2.6v8h-1.4V.4h1.4v5.3zm-6.3-.3c0 .7.3 1.5 1 2.3c.6.8 1.5 1.6 2.6 2.3l-.7 1c-1.6-1-2.8-2.1-3.6-3.4c-1 1.5-2.2 2.7-3.7 3.7l-.8-1.1c1.1-.6 2-1.4 2.7-2.3c.7-.9 1-1.7 1-2.5c.05.02 0-2.4 0-2.4H44V1.9h7.7v1.1h-3.1s-.05 2.39 0 2.4zm16.2.8v1.5h6.2v1.1H57.2V7.7h6.2V6.2h-3.8v-5h9v1.1H61v2.7h8v1.2h-4.2zm-.7 3.6c1.4 0 2.5.3 3.3.8c.8.5 1.2 1.1 1.2 2v.1c0 .9-.4 1.5-1.2 2c-.8.5-1.9.8-3.3.8c-1.4 0-2.5-.3-3.3-.8c-.8-.5-1.2-1.1-1.2-2v-.1c0-.9.4-1.5 1.2-2c.8-.5 1.9-.8 3.3-.8zm3.1 2.8c0-.5-.3-.9-.8-1.2c-.5-.3-1.3-.4-2.3-.4c-1 0-1.8.1-2.3.4c-.5.3-.8.7-.8 1.2v.1c0 .5.3.9.8 1.2c.5.3 1.3.4 2.3.4c1 0 1.8-.1 2.3-.4c.5-.3.8-.7.8-1.2v-.1zM76.6 1h9.8v1.1h-9.8V1zm7.7 3.6h2.3v1.1H76.5V4.6h2.3l-.2-2l1.3-.1l.2 2.1h2.8l.3-2.1l1.3.1l-.2 2zm-9.6 3.6V7h13.7v1.2H74.7zM86 13h-7.5v1.3h8v1.1h-9.4v-3.5h7.5v-1.2h-7.5V9.5h8.9v3.5zm13.2-7.4V.4h1.4v14.4h-1.4v-8h-2.8V5.6h2.8zm-7.9 4.1c.8 0 1.6-.1 2.7-.2c1-.1 2-.3 3-.5l.2 1.2c-1.3.2-2.5.4-3.7.5c-1.2.1-2.5.1-3.9.1c-.02.03 0-5.2 0-5.2h4.5V3h-4.5V1.8h5.9v5H91v2.9s.34-.04.3 0zm21.9 5.1V.4h1.4v14.4h-1.4zM108 5.2c0 .7.3 1.5 1 2.4c.7.9 1.6 1.6 2.6 2.3l-.7 1.1c-1.6-1-2.8-2.2-3.6-3.6c-.5.8-1 1.5-1.7 2.1c-.6.7-1.3 1.3-2 1.7l-.8-1c.7-.4 1.3-.9 1.9-1.5c.6-.6 1-1.2 1.3-1.8c.4-.6.5-1.2.5-1.7c.04.05 0-3.5 0-3.5h1.5s-.04 3.52 0 3.5z" stroke="none" fill="#939598"/></g></svg>