<?xml version="1.0" standalone="no"?><!DOCTYPE svg PUBLIC "-//W3C//DTD SVG 1.1//EN" "http://www.w3.org/Graphics/SVG/1.1/DTD/svg11.dtd"><svg xmlns="http://www.w3.org/2000/svg" version="1.1" width="206px" height="295.8px" viewBox="0 -6 206 295.8" style="top:-6px"><desc>텍스트 B</desc><defs/><g id="Polygon3295"><path d="m12.1 267.4v4h2.6v1.2h-2.6v3.8h-1.4v-9h1.4zm-4 2.7c0 1.4-.6 2.6-1.7 3.7c-1.1 1-2.7 1.9-4.8 2.5l-.5-1.2c1.9-.5 3.3-1.2 4.2-2c.9-.8 1.4-1.8 1.4-2.9v-.5h-5v-1.2h6.4v1.6zm-.3 6.6c.9 0 1.8.1 2.4.4c.7.2 1.2.5 1.6.9c.3.5.5.9.5 1.5v.2c0 .8-.4 1.5-1.2 2c-.8.5-1.9.7-3.3.7c-1.4 0-2.5-.2-3.3-.7c-.8-.5-1.2-1.2-1.2-2v-.2c0-.6.2-1 .5-1.5c.4-.4.9-.7 1.6-.9c.7-.3 1.5-.4 2.4-.4zm3.1 2.8c0-.5-.3-.9-.8-1.2c-.5-.3-1.3-.4-2.3-.4c-1 0-1.7.1-2.3.4c-.5.3-.8.7-.8 1.2v.1c0 .5.3.9.8 1.2c.6.3 1.3.5 2.3.5c1 0 1.8-.2 2.3-.5c.5-.3.8-.7.8-1.2v-.1zm5.1-4.6c.8-.3 1.5-.6 2.3-1.1c.7-.5 1.2-1 1.7-1.5c.4-.5.6-1 .6-1.4c.02-.04 0-1.1 0-1.1h-3.7v-1.2h8.9v1.2h-3.7s-.02 1.06 0 1.1c0 .4.2.9.6 1.4c.5.5 1 .9 1.7 1.4c.7.4 1.5.8 2.3 1l-.4 1.1c-1-.3-2-.7-2.8-1.3c-.9-.5-1.6-1.1-2.1-1.8c-.6.7-1.3 1.3-2.1 1.9c-.9.6-1.9 1.1-2.9 1.5l-.4-1.2zm6.1.8v3.7h6.1v1.2H14.5v-1.2h6.2v-3.7h1.4zm17.9-3.8h2.5v1.2H40v3.3h-1.4v-9h1.4v4.5zm-6.6-2.9c-.6 0-1.1-.1-1.6-.1c-.5-.1-.9-.2-1.3-.3v-1.1c.4.2.8.2 1.3.3h1.6c-.04.03 1.8 0 1.8 0v1.2s-1.84-.05-1.8 0zm-4.5.8h8v1.2h-8v-1.2zm7.1 4.4c0 .4-.1.8-.4 1.2c-.3.3-.6.6-1.1.8c-.5.2-1 .4-1.6.4c-.6 0-1.1-.2-1.6-.4c-.5-.2-.8-.5-1.1-.8c-.3-.4-.4-.8-.4-1.2v-.2c0-.4.1-.8.4-1.2c.2-.4.6-.7 1.1-.9c.5-.2 1-.3 1.6-.3c.6 0 1.1.1 1.6.3c.5.2.8.5 1.1.9c.3.4.4.8.4 1.2v.2zm-4.9-.1c0 .4.2.8.5 1c.3.2.8.4 1.3.4c.5 0 1-.2 1.3-.4c.3-.2.5-.6.5-1v-.1c0-.4-.2-.7-.5-.9c-.3-.3-.8-.4-1.3-.4c-.5 0-1 .1-1.3.4c-.3.2-.5.5-.5.9v.1zm1.5 4.5h6v-1.4h1.4v5.1h-8.8v-5.1h1.4v1.4zm0 1.2v1.3h6v-1.3h-6zm20.4 2v-14.4h1.4v14.4H53zm-7.7-5.4c.8 0 1.8 0 2.9-.1c1.1-.2 2.2-.3 3.2-.6l.2 1.2c-1.3.2-2.6.4-3.9.5c-1.2.2-2.6.2-4.2.2c.02-.01 0-8.8 0-8.8h1.4v7.6s.4.02.4 0zm22.5-3.7h2.6v1.1h-2.6v8h-1.4v-14.4h1.4v5.3zm-8.8 3.6c.8 0 1.8 0 2.9-.1c1-.1 2.1-.3 3.1-.5l.2 1.1c-1.3.3-2.6.5-3.8.6c-1.2.1-2.6.1-4.1.1c-.02.01 0-8.6 0-8.6h6.4v1.1h-5v6.3s.34.04.3 0zm13.5 4.2h-1.9v-2.1h1.9v2.1z" stroke="none" fill="#fff"/></g><g id="Polygon3294"><path d="m8.1 245.9v1.4h6.2v1.1H.6v-1.1h6.1v-1.4H3v-5.8h8.9v1.1H4.4v1.2h7v1.1h-7v1.3h7.8v1.1H8.1zm-.7 3.4c1.4 0 2.5.2 3.3.7c.8.4 1.2 1 1.2 1.8v.2c0 .8-.4 1.4-1.2 1.8c-.7.5-1.8.7-3.3.7c-1.4 0-2.5-.2-3.3-.7c-.7-.4-1.1-1-1.1-1.8v-.2c0-.8.4-1.4 1.1-1.8c.8-.5 1.9-.7 3.3-.7zm3.1 2.5c0-.4-.2-.7-.8-1c-.5-.2-1.3-.3-2.3-.3c-1 0-1.7.1-2.3.3c-.5.3-.7.6-.7 1v.1c0 .5.2.8.7 1.1c.6.2 1.3.4 2.3.4c1 0 1.8-.2 2.3-.4c.6-.3.8-.6.8-1.1v-.1zm15.4-6.4v-6h1.4v14.4h-1.4v-7.2h-1.8v6.7h-1.4v-13.7h1.4v5.8h1.8zm-7.1-4c-1.1 0-2-.1-2.6-.3V240c.6.2 1.5.3 2.6.3h1.7v1.1s-1.72.05-1.7 0zm3.1 2.2h-7.1v-1.1h7.1v1.1zm-3.5.9c.5 0 1 .1 1.4.3c.4.3.8.6 1 1c.3.4.4.9.4 1.4v.2c0 .6-.1 1-.4 1.5c-.2.4-.6.7-1 1c-.4.2-.9.3-1.4.3c-.6 0-1-.1-1.5-.3c-.4-.3-.7-.6-1-1c-.2-.5-.4-.9-.4-1.5v-.2c0-.5.2-1 .4-1.4c.3-.4.6-.7 1-1c.5-.2.9-.3 1.5-.3zm1.5 2.8c0-.5-.1-.9-.4-1.2c-.3-.4-.7-.5-1.1-.5c-.5 0-.8.1-1.1.5c-.3.3-.5.7-.5 1.2v.1c0 .5.2.9.5 1.2c.3.4.6.5 1.1.5c.4 0 .8-.1 1.1-.5c.3-.3.4-.7.4-1.2v-.1zm24.1 6.5h-1.4v-14.4h1.4v14.4zm-10.9-4.2v-8.7h6.6v8.7h-6.6zm5.2-7.6h-3.8v6.4h3.8V242zm18.9 2.6v-5.2h1.4v14.4h-1.4v-8h-1.7v7.5h-1.4v-13.7h1.4v5h1.7zm-8.6 3.9c.6 0 1.3-.1 2.1-.1c.8-.1 1.6-.2 2.4-.4l.2 1.1c-1 .2-2 .3-3 .4c-1 .1-2.2.2-3.5.2c.03-.04 0-5.2 0-5.2h3.9v-2.6h-3.9v-1.1h5.3v4.9h-3.9v2.8s.38-.03.4 0zm21.8 5.3v-14.4h1.4v14.4h-1.4zm-5.2-9.4c0 .7.3 1.5 1 2.3c.6.8 1.5 1.6 2.6 2.3l-.7 1c-1.6-1-2.8-2.1-3.6-3.4c-1 1.5-2.2 2.7-3.7 3.7l-.8-1.1c1.1-.6 2-1.4 2.7-2.3c.7-.9 1.1-1.7 1.1-2.5c-.04.02 0-2.4 0-2.4h-3.1v-1.1h7.6v1.1h-3.1s-.03 2.39 0 2.4zm22.6-1.7v1.2h-2.5v2.1h2.5v1.2h-2.5v1.8h-1.4v-9.6h1.4v3.3h2.5zm-9.2-1.7c-.5 0-1.1-.1-1.5-.1c-.5-.1-.9-.1-1.3-.3v-1c.4.1.8.1 1.2.2h1.6c.04.05 1.9 0 1.9 0v1.2s-1.86-.03-1.9 0zm-4.4.9h8v1.1h-8v-1.1zm7.1 4.3c0 .5-.2.9-.4 1.2c-.3.4-.6.7-1.1.9c-.5.2-1 .3-1.6.3c-.6 0-1.2-.1-1.6-.3c-.5-.2-.9-.5-1.1-.9c-.3-.3-.4-.7-.4-1.2v-.1c0-.5.1-.9.4-1.3c.2-.3.6-.6 1.1-.8c.4-.2 1-.3 1.6-.3c.6 0 1.1.1 1.6.3c.5.2.8.5 1.1.8c.2.4.4.8.4 1.3v.1zm-4.9 0c0 .4.2.7.5 1c.3.2.7.3 1.3.3c.5 0 1-.1 1.3-.3c.3-.3.5-.6.5-1v-.1c0-.4-.2-.7-.5-1c-.3-.2-.8-.4-1.3-.4c-.6 0-1 .2-1.3.4c-.3.3-.5.6-.5 1v.1zm4.5 3.2c1.4 0 2.5.2 3.3.6c.8.5 1.2 1.1 1.2 1.8v.2c0 .7-.4 1.3-1.2 1.8c-.8.4-1.9.6-3.3.6c-1.4 0-2.5-.2-3.3-.6c-.8-.5-1.2-1.1-1.2-1.8v-.2c0-.7.4-1.3 1.2-1.8c.8-.4 1.9-.6 3.3-.6zm3.1 2.4c0-.4-.2-.7-.8-1c-.5-.2-1.3-.3-2.3-.3c-1 0-1.7.1-2.3.3c-.5.3-.8.6-.8 1v.1c0 .5.3.8.8 1c.6.3 1.3.4 2.3.4c1 0 1.8-.1 2.3-.4c.6-.2.8-.5.8-1v-.1zm14.3-8.7v-3.7h1.4v8.9h-1.4v-4h-3.1v-1.2h3.1zm-6.3 1.5c-.8 1.4-2 2.5-3.4 3.3l-.8-1c1.1-.6 1.9-1.3 2.6-2.1c.6-.8.9-1.5.9-2.3v-.9h-2.8v-1.1h7v1.1h-2.8v.9c0 .7.3 1.4.9 2.2c.6.7 1.5 1.4 2.5 1.9l-.7 1.1c-1.5-.8-2.6-1.9-3.4-3.1zm6.3 5.7h-7.7v-1.1h9.1v5.2h-1.4v-4.1zm15.3 0h-1.4v-10.9h1.4v10.9zm-7.8-2.7c-.7 0-1.3-.2-1.8-.5c-.6-.3-1-.7-1.3-1.3c-.3-.5-.5-1.1-.5-1.7v-.4c0-.6.2-1.2.5-1.8c.3-.5.7-.9 1.3-1.2c.5-.3 1.1-.5 1.8-.5c.7 0 1.3.2 1.9.5c.5.3.9.7 1.2 1.2c.4.6.5 1.2.5 1.8v.4c0 .6-.1 1.2-.5 1.7c-.3.6-.7 1-1.2 1.3c-.6.3-1.2.5-1.9.5zm0-1.2c.7 0 1.2-.2 1.6-.6c.4-.5.6-1.1.6-1.8v-.3c0-.7-.2-1.2-.6-1.7c-.4-.4-.9-.6-1.6-.6c-.7 0-1.2.2-1.6.6c-.4.5-.6 1-.6 1.7v.3c0 .7.2 1.3.6 1.7c.4.5.9.7 1.6.7zm-1 2.8h1.4v3.8h8v1.1h-9.4v-4.9zm26.2 4.6h-1.4v-14.4h1.4v14.4zm-7.5-3.8c-.8 0-1.5-.2-2-.6c-.6-.4-1.1-.9-1.4-1.6c-.3-.7-.4-1.5-.4-2.4v-.4c0-.9.1-1.7.4-2.4c.3-.7.8-1.2 1.4-1.6c.5-.4 1.2-.6 2-.6c.8 0 1.4.2 2 .6c.6.4 1 .9 1.3 1.6c.4.7.5 1.5.5 2.4v.4c0 .9-.1 1.7-.5 2.4c-.3.7-.7 1.2-1.3 1.6c-.6.4-1.2.6-2 .6zm0-1.2c.8 0 1.4-.3 1.8-.9c.4-.6.6-1.4.6-2.5v-.3c0-1.1-.2-2-.6-2.6c-.4-.6-1-.9-1.8-.9c-.8 0-1.4.3-1.8.9c-.4.6-.6 1.5-.6 2.6v.3c0 1.1.2 1.9.6 2.5c.4.6 1 .9 1.8.9zm21.4 5h-1.4v-14.4h1.4v14.4zm-10.9-4.2v-8.7h6.6v8.7H134zm5.2-7.6h-3.8v6.4h3.8V242zm18.3 11.8v-14.4h1.4v14.4h-1.4zm-5.3-9.4c0 .7.3 1.5 1 2.3c.7.8 1.6 1.6 2.7 2.3l-.8 1c-1.5-1-2.7-2.1-3.6-3.4c-.9 1.5-2.1 2.7-3.7 3.7l-.7-1.1c1.1-.6 2-1.4 2.7-2.3c.7-.9 1-1.7 1-2.5V242h-3.1v-1.1h7.6v1.1h-3.1v2.4zm11-2.2h7.4v-1.1h-7.4V240h8.9v3.2h-7.5v1.1h7.9v1.2h-9.3v-3.3zm-2.5 4.4h13.8v1.1h-13.8v-1.1zm2.4 2.2h9v3.4h-7.6v1.1h8v1.1h-9.4v-3.3h7.6V250h-7.6v-1.2z" stroke="none" fill="#fff"/></g><g id="Polygon3293"><path d="m11.2 211.4h1.4v8.5h-1.4v-8.5zm-4.6.6h1.4v6.7H1.7V212h1.4v2.3h3.5V212zm-3.5 3.4v2.2h3.5v-2.2H3.1zm2.7 4.1c.4.1.8.2 1.3.2c.4.1 1 .1 1.7.1h1.9v1.1s-1.95.02-1.9 0H7.1c-.5-.1-.9-.2-1.3-.3v-1.1zm7.7 7c-2.2-.3-3.9-1.1-5.1-2.2c-1.3 1.1-2.9 1.9-5.1 2.3l-.3-1.2c.7-.1 1.4-.2 2.1-.5c.7-.3 1.3-.5 1.8-.9c.5-.3.7-.6.8-1c-.04.03-4 0-4 0v-1.1h9.3v1.1s-3.9.03-3.9 0c.1.4.3.7.8 1c.5.3 1.1.6 1.8.9c.7.2 1.4.4 2.1.5l-.3 1.1zm12.6-9.8h2.5v1.1h-2.5v8h-1.4v-14.4h1.4v5.3zm-8.8 3.6c.8 0 1.7 0 2.8-.1c1.1-.1 2.1-.3 3.1-.5l.3 1.1c-1.4.3-2.6.5-3.9.6c-1.2.1-2.5.1-4.1.1c.02.01 0-8.7 0-8.7h1.4v7.5s.38.04.4 0zm22.8-4v1.1h-9.3v-5.3h1.4v4.2h7.9zm-11.7 2.8h13.8v1.1H28.4v-1.1zm2.4 2.6h1.4v3.2h7.9v1.2h-9.3v-4.4zm27.1-.8h-1.4v-1.4h-2.4v-1.1h2.4V217h-2.4v-1.2h2.4v-4.4h1.4v9.5zm-7.3-7.9c-1.2 0-2.1-.1-2.7-.4v-1c.6.2 1.6.2 2.7.2c.04.05 1.9 0 1.9 0v1.2s-1.86-.03-1.9 0zm-4.2.9h7.7v1.1h-7.7v-1.1zm6.8 4.4c0 .4-.1.8-.4 1.2c-.2.4-.6.7-1 .9c-.5.2-1 .3-1.6.3c-.6 0-1.1-.1-1.6-.3c-.4-.2-.8-.5-1-.9c-.3-.4-.4-.8-.4-1.2v-.2c0-.4.1-.8.4-1.2c.2-.4.6-.7 1-.9c.5-.2 1-.3 1.6-.3c.6 0 1.1.1 1.6.3c.4.2.8.5 1 .9c.3.4.4.8.4 1.2v.2zm-4.7 0c0 .4.2.7.5.9c.3.3.7.4 1.2.4c.5 0 .9-.1 1.2-.4c.3-.2.5-.5.5-.9v-.1c0-.4-.2-.8-.5-1c-.3-.3-.7-.4-1.2-.4c-.5 0-.9.1-1.2.4c-.3.2-.5.5-.5 1v.1zm5.1 2.9c1.4 0 2.5.2 3.3.7c.8.4 1.2 1.1 1.2 1.8v.2c0 .8-.4 1.4-1.2 1.9c-.8.4-1.9.6-3.3.6c-1.5 0-2.6-.2-3.3-.6c-.8-.5-1.2-1.1-1.2-1.9v-.2c0-.7.4-1.4 1.2-1.8c.8-.5 1.9-.7 3.3-.7zm3.1 2.6c0-.5-.3-.8-.8-1.1c-.5-.2-1.3-.4-2.3-.4c-1 0-1.8.2-2.3.4c-.6.3-.8.6-.8 1.1v.1c0 .4.2.8.8 1c.5.3 1.3.4 2.3.4c1 0 1.8-.1 2.3-.4c.5-.2.8-.6.8-1v-.1zm14.6-12.4v3.9h2.6v1.1h-2.6v4h-1.4v-9h1.4zm-7.1 5.2c-.4.7-.9 1.3-1.5 1.9c-.6.5-1.3 1-2.1 1.5l-.7-1.1c1.1-.6 2-1.3 2.6-2.1c.7-.8 1-1.6 1-2.3v-2.3h1.4s.01 2.24 0 2.2c0 .8.3 1.5 1 2.2c.6.7 1.5 1.3 2.6 1.9l-.7 1.1c-1.6-.9-2.8-1.9-3.6-3zm2.8 4.1c.9 0 1.8.1 2.4.4c.7.2 1.2.5 1.6.9c.3.5.5.9.5 1.5v.2c0 .8-.4 1.5-1.2 2c-.8.5-1.9.7-3.3.7c-1.4 0-2.5-.2-3.3-.7c-.8-.5-1.2-1.2-1.2-2v-.2c0-.6.2-1 .5-1.5c.4-.4.9-.7 1.6-.9c.7-.3 1.5-.4 2.4-.4zm3.1 2.8c0-.5-.3-.9-.8-1.2c-.5-.3-1.3-.4-2.3-.4c-1 0-1.7.1-2.3.4c-.5.3-.8.7-.8 1.2v.1c0 .5.3.9.8 1.2c.6.3 1.3.5 2.3.5c1 0 1.8-.2 2.3-.5c.5-.3.8-.7.8-1.2v-.1zm15.2-5.8h2.5v1.2h-2.5v6.9h-1.4v-14.4h1.4v6.3zm-4.9-3.4h-5.7v-1.2h7.1s-.02 2.09 0 2.1c0 .6-.1 1.3-.2 2.2c-.1.9-.3 1.7-.5 2.5l-1.4-.3c.5-1.4.7-2.9.7-4.5c-.03 0 0-.8 0-.8zm-2.3 8.2c1.7-.1 3.3-.3 4.8-.7l.2 1.2c-1.1.2-2.2.4-3.3.5c-1 .1-2.2.2-3.4.2c-.05-.04-2.8 0-2.8 0v-1.2h3.1v-5h1.4s.04 4.97 0 5zm19.9-7.2c-.5.6-1.3 1.2-2.1 1.8c-.9.5-1.8.9-2.8 1.2l-.5-1.1c.8-.2 1.6-.5 2.3-1c.7-.4 1.3-.8 1.7-1.3c.5-.5.7-.9.7-1.3c-.02-.02 0-1.5 0-1.5h1.4s.02 1.48 0 1.5c0 .4.2.8.7 1.2c.4.5.9.9 1.7 1.3c.7.3 1.5.6 2.3.9l-.5 1.1c-1-.3-1.9-.7-2.8-1.2c-.9-.5-1.6-1-2.1-1.6zm-6.9 4.4h13.8v1.2h-6.2v5.2h-1.4v-5.2h-6.2v-1.2zm24.6.6v-8.9h1.4v8.9h-1.4zm-6.1-3.8c-.8 1.4-2 2.6-3.5 3.4l-.7-1c1-.6 1.9-1.3 2.6-2.1c.6-.8.9-1.6.9-2.3c.04-.04 0-.9 0-.9H106v-1.2h7.3v1.2h-2.9s-.05.82 0 .8c0 .7.3 1.5.9 2.2c.6.8 1.5 1.4 2.6 2l-.7 1.1c-1.5-.9-2.7-1.9-3.6-3.2zm6.1 5.8H108v-1.1h9.1v5.2h-1.4v-4.1zm18.2-5.7v-5.2h1.4v14.4h-1.4v-8h-1.8v7.5h-1.4v-13.7h1.4v5h1.8zm-9.1-.5h2.9v-3.4h1.4v8.8h-5.6v-8.8h1.3v3.4zm0 1.1v3.1h2.9v-3.1h-2.9zm23.7 2.4h-1.4v-1.9h-2.6v-1.2h2.6v-2h-2.6v-1.1h2.6v-2h1.4v8.2zm-4.5-3.8c0 .6-.2 1.1-.5 1.7c-.3.5-.7.9-1.3 1.1c-.5.3-1.1.5-1.8.5c-.6 0-1.2-.2-1.7-.5c-.6-.2-1-.6-1.3-1.1c-.3-.6-.5-1.1-.5-1.7v-.4c0-.6.2-1.1.5-1.6c.3-.5.7-.9 1.3-1.2c.5-.3 1.1-.4 1.7-.4c.7 0 1.3.1 1.8.4c.6.3 1 .7 1.3 1.2c.3.5.5 1 .5 1.6v.4zm-5.7 0c0 .6.2 1.1.6 1.5c.4.4.9.6 1.5.6c.7 0 1.2-.2 1.6-.6c.4-.4.6-.9.6-1.5v-.3c0-.7-.2-1.2-.6-1.6c-.4-.4-.9-.6-1.6-.6c-.6 0-1.1.2-1.5.6c-.4.4-.6.9-.6 1.6v.3zm2.8 8.2v1.3h7.8v1.2h-9.2v-3.7h7.4v-1.2h-7.4v-1.2h8.8v3.6h-7.4zm16.1-7c-.9 0-1.6-.1-2.3-.3c-.7-.2-1.2-.5-1.5-.9c-.4-.4-.6-.8-.6-1.3v-.2c0-.5.2-1 .6-1.3c.3-.4.8-.7 1.5-.9c.7-.2 1.4-.3 2.3-.3c.9 0 1.7.1 2.3.3c.7.2 1.2.5 1.6.9c.3.3.5.8.5 1.3v.2c0 .5-.2.9-.5 1.3c-.4.4-.9.7-1.6.9c-.6.2-1.4.3-2.3.3zm0-1.1c.9 0 1.7-.1 2.2-.4c.5-.3.8-.6.8-1.1v-.1c0-.4-.3-.8-.8-1.1c-.5-.2-1.3-.4-2.2-.4c-1 0-1.7.2-2.2.4c-.5.3-.8.7-.8 1.1v.1c0 .5.3.8.8 1.1c.5.3 1.2.4 2.2.4zm-6.9 2.2h13.8v1.1h-13.8v-1.1zm2.4 2.4h9v3.5h-7.6v1.3h8v1.1h-9.4v-3.5h7.6v-1.2h-7.6v-1.2z" stroke="none" fill="#fff"/></g><g id="Polygon3292"><path d="m1.9 191.3c.8-.3 1.5-.6 2.3-1.2c.8-.5 1.4-1 1.8-1.6c.5-.5.7-1.1.7-1.5c.02-.03 0-2.4 0-2.4h1.5s-.04 2.37 0 2.4c0 .4.2.9.7 1.5c.4.5 1 1 1.8 1.5c.7.5 1.5.8 2.3 1.1l-.5 1.1c-1-.3-1.9-.8-2.8-1.4c-1-.6-1.7-1.2-2.3-1.9c-.5.7-1.2 1.4-2.2 2c-.9.7-1.8 1.2-2.8 1.5l-.5-1.1zm-1.3 4.1h13.7v1.2H.6v-1.2zm21.5-6.8v1.4h6.1v1.2H14.5V190h6.2v-1.4h-3.8V184h8.9v4.6h-3.7zm2.3-3.5h-6.1v2.4h6.1v-2.4zm1.4 10.9h-7.5v1.3h8v1.1h-9.4v-3.5h7.5v-1.2h-7.5v-1.2h8.9v3.5zm19.9-5v1.2h-3.8v5.9h-1.4v-5.9h-3.4v5.9h-1.4v-5.9h-3.8V191s9.6-.02 9.6 0c.2-.8.3-1.7.4-2.6c-1 .1-2.4.2-4.2.2c.04-.02-4.1 0-4.1 0v-1.2s4.14.05 4.1 0c1.9 0 3.3 0 4.3-.1v-1.8h-7.9v-1.1h9.3v2c0 .7 0 1.4-.1 2.1c0 .8-.2 1.6-.4 2.5c.03-.02 2.8 0 2.8 0zm10.2-6.5h1.4v7.7h-9.2v-7.7h1.4v2.8h6.4v-2.8zm-6.4 4v2.6h6.4v-2.6h-6.4zm-3.7 8.1v-1.1h13.8v1.1H45.8zm28.9 1.2v-14.4h1.4v14.4h-1.4zm-4.7-8.5h1.7v-5.7h1.4v13.7h-1.4v-6.9H70v-1.1zm-2.7-4c-1.1 0-1.9-.1-2.5-.3v-1.2c.6.2 1.4.3 2.5.3c.03.04 1.8 0 1.8 0v1.2s-1.77-.01-1.8 0zm-3.8 1h6.9v1.2h-6.9v-1.2zm3.4 2c.5 0 1 .1 1.4.4c.4.2.8.5 1 1c.3.4.4.9.4 1.4v.2c0 .5-.1 1-.4 1.4c-.2.4-.6.8-1 1c-.4.3-.9.4-1.4.4c-.5 0-1-.1-1.4-.4c-.4-.2-.8-.6-1-1c-.3-.4-.4-.9-.4-1.4v-.2c0-.5.1-1 .4-1.4c.2-.5.6-.8 1-1c.4-.3.9-.4 1.4-.4zm1.5 2.8c0-.5-.1-.9-.4-1.2c-.3-.3-.7-.5-1.1-.5c-.4 0-.8.2-1.1.5c-.2.3-.4.7-.4 1.2v.2c0 .5.2.9.4 1.2c.3.3.7.5 1.1.5c.4 0 .8-.2 1.1-.5c.3-.3.4-.7.4-1.2v-.2zm12.5-.5h8.1v1.1h-9.5v-6.9h9.2v1.1h-7.8v4.7zm-3.7 6v-1.1H91v1.1H77.2zm28.8-9.3v-3.9h1.4v9.1H106v-4h-1.8v3.9h-1.4v-8.8h1.4v3.7h1.8zm-4.1 3.8c-1.1.1-2.1.3-3.1.3c-1 .1-2.1.2-3.3.2c-.03-.04 0-4.3 0-4.3h3.8v-1.7h-3.8v-1.1h5.2v4h-3.8v1.9h.3c.6 0 1.3 0 2.1-.1l2.4-.3l.2 1.1zm5.5 7.2H98v-5h9.4v5zm-1.4-3.8h-6.6v2.6h6.6v-2.6zm4.4-9.7h10.1v1.1h-10.1v-1.1zm7.8 6.1h2.5v1.2h-10.5v-1.2h2.4l-.2-4.4l1.3-.1l.3 4.5h2.9l.3-4.5l1.3.1l-.3 4.4zm-9.6 5.7v-1.1h13.7v1.1h-13.7zm25.6-8.3v1.1h-9.3v-5.3h1.4v4.2h7.9zm-11.7 2.8h13.7v1.1h-13.7v-1.1zm2.3 2.6h1.5v3.2h7.9v1.2h-9.4v-4.4zm27.2-2.1h-1.4v-2h-2.9v-1.1h2.9v-1.9h-2.9v-1.2h2.9v-2h1.4v8.2zm-6.4-7.4h1.4v6.6h-6.1v-6.6h1.4v2.3h3.3v-2.3zm-3.3 3.4v2.1h3.3v-2.1h-3.3zm2.3 8.4v1.3h7.8v1.2h-9.2v-3.7h7.4v-1.2h-7.4v-1.2h8.8v3.6h-7.4zm19.9-6.7v-5.9h1.4v14.4h-1.4v-7.4h-2.9v-1.1h2.9zm-5.5-4.1h-1.7c-.5-.1-.9-.2-1.3-.3v-1.1c.3.1.8.1 1.2.2c.5 0 1.1.1 1.8.1c-.04-.04 1.9 0 1.9 0v1.1s-1.94.02-1.9 0zm.1 3.3c0 .7.4 1.5 1 2.3c.7.8 1.6 1.6 2.7 2.3l-.7 1c-1.6-1-2.8-2.1-3.7-3.5c-.4.8-.9 1.5-1.6 2.1c-.6.6-1.3 1.2-2 1.7l-.8-1.1c.7-.4 1.3-.9 1.9-1.5c.6-.5 1-1.1 1.3-1.7c.4-.6.5-1.1.5-1.6c.03.02 0-.9 0-.9h-3.1v-1.1h7.7v1.1h-3.2s.03.89 0 .9zm19.3-1.2v-3.9h1.4v8.9h-1.4v-3.9h-3v-1.1h3zm-2.3 3.6c-1.2.2-2.4.4-3.5.5c-1.2 0-2.5.1-3.8.1c-.05-.02 0-4.2 0-4.2h4.5v-1.7h-4.5v-1.2h5.9v4h-4.5v1.9s.31.03.3 0c.7 0 1.6 0 2.5-.1c1-.1 2-.3 2.9-.4l.2 1.1zm3.7 7.4h-8.7v-5.1h8.7v5.1zm-1.4-4h-5.9v2.8h5.9v-2.8z" stroke="none" fill="#fff"/></g><g id="Polygon3291"><path d="m12.2 160.7h2.5v1.1h-2.5v8h-1.4v-14.4h1.4v5.3zm-8.8 3.6c.8 0 1.7 0 2.8-.1c1.1-.1 2.1-.3 3.1-.5l.2 1.1c-1.3.3-2.6.5-3.8.6c-1.2.1-2.6.1-4.1.1v-8.6h6.5v1.1H3v6.3s.36.04.4 0zm23.1 5.5h-1.4v-14.4h1.4v14.4zM19 166c-.8 0-1.4-.2-2-.6c-.6-.4-1-.9-1.4-1.6c-.3-.7-.4-1.5-.4-2.4v-.4c0-.9.1-1.7.4-2.4c.4-.7.8-1.2 1.4-1.6c.6-.4 1.2-.6 2-.6c.8 0 1.5.2 2 .6c.6.4 1.1.9 1.4 1.6c.3.7.4 1.5.4 2.4v.4c0 .9-.1 1.7-.4 2.4c-.3.7-.8 1.2-1.4 1.6c-.5.4-1.2.6-2 .6zm0-1.2c.8 0 1.4-.3 1.8-.9c.4-.6.6-1.4.6-2.5v-.3c0-1.1-.2-2-.6-2.6c-.4-.6-1-.9-1.8-.9c-.8 0-1.4.3-1.8.9c-.4.6-.6 1.5-.6 2.6v.3c0 1.1.2 1.9.6 2.5c.4.6 1 .9 1.8.9zm20.8-4.2v-5.2h1.4v14.4h-1.4v-8H38v7.5h-1.3v-13.7h1.3v5h1.8zm-8.7 3.8c.6 0 1.3-.1 2.1-.2c.9 0 1.7-.2 2.5-.3l.2 1.1c-2 .4-4.2.5-6.5.5c.04.03 0-8.8 0-8.8h1.4v7.7s.27-.04.3 0zm23.3-.1H53v-8.9h1.4v8.9zm-10.9-1.2v-6.6h6.3v6.6h-6.3zm4.9-5.5h-3.5v4.4h3.5v-4.4zm4.6 8.7h-7.7v-1.1h9.1v5.2H53v-4.1zm18.2-10.9h1.3v9.3h-1.3v-9.3zm-5.8 8.6v-1.1h2.7v-7.3h1.4v9h-1.4v-.6h-2.7zm-1.8-3.4c-.7 0-1.2-.1-1.7-.3c-.4-.2-.8-.4-1.1-.8c-.2-.3-.4-.7-.4-1.1v-.1c0-.4.2-.8.4-1.1c.3-.3.7-.6 1.1-.8c.5-.2 1-.3 1.7-.3c.6 0 1.1.1 1.6.3c.5.2.8.5 1.1.8c.3.3.4.7.4 1.1v.1c0 .4-.1.8-.4 1.1c-.3.4-.6.6-1.1.8c-.5.2-1 .3-1.6.3zm-1.9-2.2c0 .3.2.6.5.8c.3.2.8.3 1.4.3c.5 0 1-.1 1.3-.3c.3-.2.5-.5.5-.8v-.1c0-.3-.2-.6-.5-.8c-.3-.2-.7-.3-1.3-.3c-.6 0-1.1.1-1.4.3c-.3.2-.5.5-.5.8v.1zm1.2 6.3v-2.2h-3.2v-1.1s2.62-.05 2.6 0c1 0 1.9-.1 2.7-.1c.8-.1 1.6-.1 2.4-.3l.1 1.1c-1.1.2-2.2.3-3.2.3v2.3h-1.4zm1.2 3.8v.9h8.9v1.1H62.7v-3.1h8.4v-.9h-8.4v-1.1h9.8v3.1h-8.4zm20.2-8.9v-4.2h1.4v8.8h-1.4v-3.5h-3.2v-1.1h3.2zm-3.4-1.7c0 1.4-.5 2.7-1.6 3.8c-1.1 1.1-2.7 1.9-4.7 2.6l-.5-1.2c2.4-.7 4-1.7 4.8-3c-.7.2-1.5.2-2.4.2c-.02.03-2.4 0-2.4 0v-1.1s2.38-.02 2.4 0c.7 0 1.2 0 1.7-.1c.4 0 .8 0 1.2-.1c.1-.3.1-.6.1-.9c.04.02 0-.5 0-.5h-4.7v-1.2h6.1v1.5zm4.8 12.4H77V165h8.7v5.3zm-1.3-4.2h-6v3h6v-3zm18.3-5.4h2.6v1.1h-2.6v8h-1.4v-14.4h1.4v5.3zm-8.8 4c.8 0 1.7-.1 2.8-.2c1.1-.1 2.1-.3 3.2-.5l.2 1.1c-1.4.3-2.7.5-3.9.6c-1.2.1-2.6.1-4.1.1v-5.2h4.8V158h-4.8v-1.2h6.2v5h-4.8v2.9s.37-.04.4 0zm23.2 5.1h-1.4v-14.4h1.4v14.4zm-7.5-3.8c-.8 0-1.5-.2-2.1-.6c-.5-.4-1-.9-1.3-1.6c-.3-.7-.5-1.5-.5-2.4v-.4c0-.9.2-1.7.5-2.4c.3-.7.8-1.2 1.3-1.6c.6-.4 1.3-.6 2.1-.6c.7 0 1.4.2 2 .6c.6.4 1 .9 1.3 1.6c.3.7.5 1.5.5 2.4v.4c0 .9-.2 1.7-.5 2.4c-.3.7-.7 1.2-1.3 1.6c-.6.4-1.3.6-2 .6zm0-1.2c.7 0 1.3-.3 1.8-.9c.4-.6.6-1.4.6-2.5v-.3c0-1.1-.2-2-.6-2.6c-.5-.6-1.1-.9-1.8-.9c-.8 0-1.4.3-1.8.9c-.5.6-.7 1.5-.7 2.6v.3c0 1.1.2 1.9.7 2.5c.4.6 1 .9 1.8.9zm13.1-1.3h8.1v1.1h-9.5v-8h9.1v1.2h-7.7v2.3h7.2v1.1h-7.2v2.3zm-3.7 5.1v-1.1h13.7v1.1H119zm16.3-10.4h7.5v-1.1h-7.5V156h8.9v3.2h-7.5v1.1h7.9v1.2h-9.3v-3.3zm-2.4 4.4h13.7v1.1h-13.7v-1.1zm2.4 2.2h8.9v3.4h-7.5v1.1h8v1.1h-9.4v-3.3h7.5V166h-7.5v-1.2zm25.7-5.7v-3.7h1.4v8.9H161v-4h-3v-1.2h3zm-6.3 1.5c-.8 1.4-2 2.5-3.4 3.3l-.7-1c1-.6 1.8-1.3 2.5-2.1c.6-.8.9-1.5.9-2.3c.01-.01 0-.9 0-.9h-2.8v-1.1h7v1.1h-2.8s.02.86 0 .9c0 .7.3 1.4.9 2.2c.6.7 1.5 1.4 2.5 1.9l-.7 1.1c-1.5-.8-2.6-1.9-3.4-3.1zm6.3 5.7h-7.7v-1.1h9.1v5.2H161v-4.1zm13.1-3.5h3.9v1.2h-13.8v-1.2h3.9s-.02-2.04 0-2c-.5-.3-.8-.6-1-.9c-.3-.4-.4-.8-.4-1.2v-.2c0-.5.2-1 .6-1.4c.3-.4.8-.8 1.5-1c.7-.2 1.4-.3 2.3-.3c.9 0 1.7.1 2.4.3c.6.2 1.1.6 1.5 1c.3.4.5.9.5 1.4v.2c0 .4-.1.8-.3 1.2c-.3.3-.6.6-1.1.9c.04-.02 0 2 0 2zm-6-4.2c0 .5.3 1 .8 1.3c.5.3 1.3.4 2.2.4c1 0 1.7-.1 2.2-.4c.5-.3.8-.8.8-1.3c0-.5-.3-1-.8-1.3c-.5-.3-1.2-.4-2.2-.4c-.9 0-1.7.1-2.2.4c-.5.3-.8.8-.8 1.3zm1.4 4.2h3.2s.03-1.53 0-1.5c-.4.1-1 .1-1.6.1c-.6 0-1.2 0-1.6-.1c-.03-.04 0 1.5 0 1.5zm1.6 2c1.4 0 2.5.2 3.3.7c.8.5 1.2 1.2 1.2 2.1v.1c0 .9-.4 1.5-1.2 2c-.8.5-1.9.8-3.3.8c-1.4 0-2.5-.3-3.3-.8c-.8-.5-1.2-1.1-1.2-2v-.1c0-.9.4-1.6 1.2-2.1c.8-.5 1.9-.7 3.3-.7zm3.1 2.8c0-.5-.3-.9-.8-1.2c-.5-.3-1.3-.5-2.3-.5c-1 0-1.7.2-2.3.5c-.5.3-.8.7-.8 1.2v.1c0 .5.3.9.8 1.2c.6.3 1.3.4 2.3.4c1 0 1.8-.1 2.3-.4c.5-.3.8-.7.8-1.2v-.1zm15.5-12.2v5.6h2.6v1.1h-2.6v4.8h-1.4v-11.5h1.4zm-6.6 1.6h-1.5c-.5-.1-.9-.2-1.3-.3v-1.1c.7.2 1.6.3 2.8.3h1.9v1.1s-1.88.03-1.9 0zm-4.4 1h8v1.1h-8V158zm7.1 4.6c0 .5-.2.9-.4 1.3c-.3.4-.7.7-1.1.9c-.5.2-1 .3-1.6.3c-.6 0-1.2-.1-1.6-.3c-.5-.2-.9-.5-1.1-.9c-.3-.4-.4-.8-.4-1.3v-.2c0-.5.1-.9.4-1.3c.2-.4.6-.7 1.1-.9c.4-.2 1-.3 1.6-.3c.6 0 1.1.1 1.6.3c.4.2.8.5 1.1.9c.2.4.4.8.4 1.3v.2zm-4.9 0c0 .4.2.8.5 1c.3.3.7.4 1.3.4c.5 0 .9-.1 1.3-.4c.3-.3.4-.6.4-1v-.2c0-.4-.1-.7-.4-1c-.4-.3-.8-.4-1.3-.4c-.6 0-1 .1-1.3.4c-.3.3-.5.6-.5 1v.2zm.1 3.5h1.4v2.9h7.9v1.1H181v-4z" stroke="none" fill="#fff"/></g><g id="Polygon3290"><path d="m12.6 141.8h-1.4v-14.4h1.4v14.4zM5.1 138c-.8 0-1.5-.2-2-.6c-.6-.4-1.1-.9-1.4-1.6c-.3-.7-.4-1.5-.4-2.4v-.4c0-.9.1-1.7.4-2.4c.3-.7.8-1.2 1.4-1.6c.5-.4 1.2-.6 2-.6c.8 0 1.4.2 2 .6c.6.4 1 .9 1.3 1.6c.4.7.5 1.5.5 2.4v.4c0 .9-.1 1.7-.5 2.4c-.3.7-.7 1.2-1.3 1.6c-.6.4-1.2.6-2 .6zm0-1.2c.8 0 1.4-.3 1.8-.9c.4-.6.6-1.4.6-2.5v-.3c0-1.1-.2-2-.6-2.6c-.4-.6-1-.9-1.8-.9c-.8 0-1.4.3-1.8.9c-.4.6-.6 1.5-.6 2.6v.3c0 1.1.2 1.9.6 2.5c.4.6 1 .9 1.8.9zm21.4 5h-1.4v-14.4h1.4v14.4zm-10.9-4.2v-8.7h6.6v8.7h-6.6zm5.2-7.6H17v6.4h3.8V130zm18.3 11.8v-14.4h1.4v14.4h-1.4zm-5.3-9.4c0 .7.3 1.5 1 2.3c.7.8 1.6 1.6 2.7 2.3l-.8 1c-1.5-1-2.7-2.1-3.6-3.4c-.9 1.5-2.1 2.7-3.7 3.7l-.7-1.1c1.1-.6 2-1.4 2.7-2.3c.7-.9 1-1.7 1-2.5V130h-3.1v-1.1h7.6v1.1h-3.1v2.4zm11-2.2h7.4v-1.1h-7.4V128h8.9v3.2h-7.5v1.1h7.9v1.2h-9.3v-3.3zm-2.5 4.4h13.8v1.1H42.3v-1.1zm2.4 2.2h9v3.4h-7.6v1.1h8v1.1h-9.4v-3.3h7.6V138h-7.6v-1.2zm27.1 1.5h-1.4v-4.1h-2.5v-1.1h2.5v-2.4h-2.5v-1.2h2.5v-2.1h1.4v10.9zm-4.5-6.2c0 .6-.1 1.2-.4 1.7c-.3.6-.8 1-1.3 1.3c-.5.3-1.1.5-1.8.5c-.7 0-1.3-.2-1.8-.5c-.5-.3-1-.7-1.3-1.3c-.3-.5-.4-1.1-.4-1.7v-.4c0-.6.1-1.2.4-1.8c.3-.5.8-.9 1.3-1.2c.5-.3 1.1-.5 1.8-.5c.7 0 1.3.2 1.8.5c.5.3 1 .7 1.3 1.2c.3.6.4 1.2.4 1.8v.4zm-5.6-.1c0 .7.2 1.3.6 1.8c.4.4.9.6 1.5.6c.6 0 1.2-.2 1.6-.6c.4-.5.6-1.1.6-1.8v-.3c0-.7-.2-1.2-.6-1.7c-.4-.4-1-.6-1.6-.6c-.6 0-1.1.2-1.5.6c-.4.5-.6 1-.6 1.7v.3zm2.8 5.2v3.8h7.9v1.1h-9.3v-4.9h1.4zm16.5-8.6c-1.3 0-2.2-.1-2.9-.4v-1c.4.1.8.1 1.3.2h1.6c.04.05 2 0 2 0v1.2s-1.96-.03-2 0zm-5.6 4.1c.7-.1 1.4-.2 2-.4c.7-.3 1.2-.5 1.6-.8c.4-.3.7-.6.8-.9c-.01-.03-3.5 0-3.5 0v-1.2h8.6v1.2s-3.57-.03-3.6 0c.2.4.7.8 1.4 1.2c.8.3 1.8.6 3 .8l-.3 1.1c-1.1-.1-2-.4-2.8-.7c-.8-.3-1.5-.7-2-1.2c-1.2 1.1-2.8 1.8-4.8 2.1l-.4-1.2zm12 1.8v1.2h-6.1v1.1h3.7v3.4h-7.5v1.1h8v1.1h-9.4v-3.3h7.5V138h-7.5v-1.2h3.8v-1.1h-6.2v-1.2h13.7zm11.8-2.6h2.5v1.2h-2.5v3.3h-1.4v-9h1.4v4.5zm-6.6-2.9c-.6 0-1.2-.1-1.6-.1c-.5-.1-.9-.2-1.3-.3v-1.1c.4.2.8.2 1.3.3h1.6c-.04.03 1.8 0 1.8 0v1.2s-1.84-.05-1.8 0zm-4.5.8h8v1.2h-8v-1.2zm7.1 4.4c0 .4-.1.8-.4 1.2c-.3.3-.6.6-1.1.8c-.5.2-1 .4-1.6.4c-.6 0-1.1-.2-1.6-.4c-.5-.2-.8-.5-1.1-.8c-.3-.4-.4-.8-.4-1.2v-.2c0-.4.1-.8.4-1.2c.2-.4.6-.7 1.1-.9c.5-.2 1-.3 1.6-.3c.6 0 1.1.1 1.6.3c.5.2.8.5 1.1.9c.3.4.4.8.4 1.2v.2zm-4.9-.1c0 .4.2.8.5 1c.3.2.8.4 1.3.4c.5 0 1-.2 1.3-.4c.3-.2.5-.6.5-1v-.1c0-.4-.2-.7-.5-.9c-.3-.3-.8-.4-1.3-.4c-.5 0-1 .1-1.3.4c-.3.2-.5.5-.5.9v.1zm1.5 4.5h6v-1.4h1.4v5.1h-8.8v-5.1h1.4v1.4zm0 1.2v1.3h6v-1.3h-6zm20.4 2v-14.4h1.4v14.4h-1.4zm-7.7-5.4c.8 0 1.8 0 2.9-.1c1.1-.2 2.2-.3 3.2-.6l.2 1.2c-1.3.2-2.6.4-3.9.5c-1.2.2-2.6.2-4.2.2c.02-.01 0-8.8 0-8.8h1.4v7.6s.4.02.4 0zm22.5-3.7h2.6v1.1H127v8h-1.4v-14.4h1.4v5.3zm-8.8 3.6c.8 0 1.8 0 2.9-.1c1-.1 2.1-.3 3.1-.5l.2 1.1c-1.3.3-2.6.5-3.8.6c-1.2.1-2.6.1-4.1.1c-.02.01 0-8.6 0-8.6h6.4v1.1h-5v6.3s.34.04.3 0zm13.5 4.2h-1.9v-2.1h1.9v2.1z" stroke="none" fill="#fff"/></g><g id="Polygon3289"><path d="m11.2 108.2v-8.8h1.4v8.8h-1.4zm-5.9-3.6c-.4.6-1 1.3-1.6 1.8c-.7.6-1.4 1.1-2.1 1.6l-.7-1.1c1.1-.6 2-1.3 2.6-2.1c.7-.8 1-1.6 1-2.3c.04-.01 0-2.3 0-2.3h1.5s-.05 2.26 0 2.3c0 .7.3 1.4.9 2.1c.7.7 1.6 1.3 2.7 1.9l-.7 1.1c-1.6-.9-2.8-1.9-3.6-3zm7.3 9.7H3.9V109h8.7v5.3zm-1.4-4.2H5.3v3h5.9v-3zm5.3-10.1h9.7v1.1h-9.7V100zm7.6 3.6h2.3v1.1H16.3v-1.1h2.3l-.2-2l1.3-.1l.2 2.1h2.9l.2-2.1l1.3.1l-.2 2zm-9.6 3.6V106h13.7v1.2H14.5zm11.3 4.8h-7.5v1.3h8v1.1h-9.4v-3.5h7.5v-1.2h-7.5v-1.2h8.9v3.5zm14.2-6.7h2.5v1.2H40v7.3h-1.4V99.4h1.4v5.9zm-6.4-4.1h-1.7c-.5-.1-.9-.2-1.3-.3v-1.1c.4.1.8.1 1.3.2c.4 0 1 .1 1.7.1c0-.04 1.9 0 1.9 0v1.1s-1.9.02-1.9 0zm3.9 2.4h-8.7v-1.2h8.7v1.2zm-4.4.8c.6 0 1.2.2 1.7.4c.5.3.9.6 1.2 1c.3.5.4.9.4 1.5v.2c0 .6-.1 1-.4 1.5c-.3.4-.7.8-1.2 1c-.5.3-1.1.4-1.7.4c-.6 0-1.2-.1-1.7-.4c-.5-.2-.9-.6-1.2-1c-.3-.5-.4-.9-.4-1.5v-.2c0-.6.1-1 .4-1.5c.3-.4.7-.7 1.2-1c.5-.2 1.1-.4 1.7-.4zm2 2.9c0-.5-.2-.9-.6-1.3c-.3-.3-.8-.4-1.4-.4c-.6 0-1.1.1-1.4.4c-.4.4-.6.8-.6 1.3v.2c0 .5.2.9.6 1.3c.3.3.8.4 1.4.4c.6 0 1.1-.1 1.4-.4c.4-.4.6-.8.6-1.3v-.2zm19.3 3H53v-3.9h-2.9v-1.1h2.9V103h-2.9v-1.2h2.9v-2.4h1.4v10.9zm-11.1-9.8h6.1v7.2h-6.1v-7.2zm1.4 6h3.3v-4.8h-3.3v4.8zm2.3 2.7v3.8h8v1.1h-9.4v-4.9h1.4zm19.9-5.1v-4.7h1.4v14.4h-1.4v-8.5h-3.4v-1.2h3.4zm-5.5.1c0 .7.3 1.5 1 2.4c.6.9 1.5 1.6 2.5 2.3l-.7 1.1c-1.6-1.1-2.7-2.2-3.5-3.6c-.5.8-1 1.5-1.6 2.1c-.6.7-1.2 1.2-1.9 1.7l-.8-1c.7-.4 1.3-.9 1.8-1.5c.6-.6 1-1.2 1.3-1.8c.3-.6.5-1.2.5-1.7c-.03.03 0-3.5 0-3.5h1.4s-.02 3.5 0 3.5zm12.4 1.9h8.2v1.2h-9.6v-6.7h9.2v1.2h-7.8v4.3zm4 2v3.4h6.1v1.1H70.2v-1.1h6.2v-3.4h1.4zm21.4-2.8h2.5v1.2h-2.5v7.3h-1.4V99.4h1.4v5.9zm-6.4-4.1h-1.7c-.5-.1-.9-.2-1.3-.3v-1.1c.4.1.8.1 1.3.2c.4 0 1 .1 1.7.1c0-.04 1.9 0 1.9 0v1.1s-1.9.02-1.9 0zm3.9 2.4H88v-1.2h8.7v1.2zm-4.4.8c.6 0 1.2.2 1.7.4c.5.3.9.6 1.2 1c.3.5.4.9.4 1.5v.2c0 .6-.1 1-.4 1.5c-.3.4-.7.8-1.2 1c-.5.3-1.1.4-1.7.4c-.6 0-1.2-.1-1.7-.4c-.5-.2-.9-.6-1.2-1c-.3-.5-.4-.9-.4-1.5v-.2c0-.6.1-1 .4-1.5c.3-.4.7-.7 1.2-1c.5-.2 1.1-.4 1.7-.4zm2 2.9c0-.5-.2-.9-.6-1.3c-.3-.3-.8-.4-1.4-.4c-.6 0-1.1.1-1.4.4c-.4.4-.6.8-.6 1.3v.2c0 .5.2.9.6 1.3c.3.3.8.4 1.4.4c.6 0 1.1-.1 1.4-.4c.4-.4.6-.8.6-1.3v-.2zm19.3 6.5h-1.4V99.4h1.4v14.4zM106 110c-.7 0-1.4-.2-2-.6c-.6-.4-1-.9-1.3-1.6c-.3-.7-.5-1.5-.5-2.4v-.4c0-.9.2-1.7.5-2.4c.3-.7.7-1.2 1.3-1.6c.6-.4 1.3-.6 2-.6c.8 0 1.5.2 2.1.6c.6.4 1 .9 1.3 1.6c.3.7.5 1.5.5 2.4v.4c0 .9-.2 1.7-.5 2.4c-.3.7-.7 1.2-1.3 1.6c-.6.4-1.3.6-2.1.6zm0-1.2c.8 0 1.4-.3 1.8-.9c.5-.6.7-1.4.7-2.5v-.3c0-1.1-.2-2-.7-2.6c-.4-.6-1-.9-1.8-.9c-.7 0-1.3.3-1.7.9c-.5.6-.7 1.5-.7 2.6v.3c0 1.1.2 1.9.7 2.5c.4.6 1 .9 1.7.9zm20.8 5V99.4h1.4v14.4h-1.4zm-4.8-9.3h1.9v-4.9h1.3v13.7h-1.3v-7.6H122v-1.2zm-4.1 3.8c.6 0 1.3 0 2.1-.1c.8-.1 1.7-.2 2.5-.4l.2 1.2c-1.1.2-2.1.3-3.1.4c-1 .1-2.1.1-3.4.1c.04.01 0-8.5 0-8.5h5.3v1.2h-3.9v2.3h3.6v1.2h-3.6v2.6s.27.03.3 0zm21.5-2.2c-1.1.1-2.5.1-4.3.1c.02.02-4.3 0-4.3 0v-1.1s4.32-.04 4.3 0c1.9 0 3.3-.1 4.3-.2v-1.7c.04-.02 0-1.1 0-1.1h-7.8v-1.2h9.2s.05 2.37 0 2.4c0 1.2 0 2.3-.1 3.3c-.1 1-.3 2.1-.6 3.5l-1.4-.3c.3-1.3.6-2.5.7-3.7zm-10 6.5v-1.1h13.7v1.1h-13.7zm25.5-13.2v5.6h2.5v1.1h-2.5v4.8h-1.4V99.4h1.4zm-6.7 1.6h-1.5c-.5-.1-.9-.2-1.3-.3v-1.1c.7.2 1.6.3 2.8.3h1.9v1.1s-1.86.03-1.9 0zm-4.4 1h8v1.1h-8V102zm7.1 4.6c0 .5-.2.9-.4 1.3c-.3.4-.6.7-1.1.9c-.5.2-1 .3-1.6.3c-.6 0-1.2-.1-1.6-.3c-.5-.2-.9-.5-1.1-.9c-.3-.4-.4-.8-.4-1.3v-.2c0-.5.1-.9.4-1.3c.2-.4.6-.7 1.1-.9c.5-.2 1-.3 1.6-.3c.6 0 1.1.1 1.6.3c.5.2.8.5 1.1.9c.2.4.4.8.4 1.3v.2zm-4.9 0c0 .4.2.8.5 1c.3.3.7.4 1.3.4c.5 0 1-.1 1.3-.4c.3-.3.5-.6.5-1v-.2c0-.4-.2-.7-.5-1c-.3-.3-.8-.4-1.3-.4c-.6 0-1 .1-1.3.4c-.3.3-.5.6-.5 1v.2zm.1 3.5h1.4v2.9h8v1.1h-9.4v-4z" stroke="none" fill="#fff"/></g><g id="Polygon3288"><path d="m8.1 77.2v1.7h6.2v1.2H.6v-1.2h6.1v-1.7H2.9v-5h9v1.1H4.3v2.7h8v1.2H8.1zm2.3 5.5H2.5v-1.1h9.3v4.7h-1.4v-3.6zm7.9-5.9h7.9v1.1h-9.3v-5.8h8.9v1.1h-7.5v1.2h7v1.1h-7v1.3zm-3.8 3.7v-1.2h13.7v1.2H14.5zm9.9 2.5h-7.9v-1.1h9.3v4.4h-1.4V83zM40 71.4v5.6h2.5v1.1H40v4.8h-1.4V71.4h1.4zM33.4 73h-1.6c-.5-.1-.9-.2-1.3-.3v-1.1c.7.2 1.7.3 2.9.3c-.04.01 1.8 0 1.8 0v1.1s-1.84.03-1.8 0zm-4.5 1h8v1.1h-8V74zm7.1 4.6c0 .5-.1.9-.4 1.3c-.3.4-.6.7-1.1.9c-.5.2-1 .3-1.6.3c-.6 0-1.1-.1-1.6-.3c-.5-.2-.8-.5-1.1-.9c-.3-.4-.4-.8-.4-1.3v-.2c0-.5.1-.9.4-1.3c.3-.4.6-.7 1.1-.9c.5-.2 1-.3 1.6-.3c.6 0 1.1.1 1.6.3c.5.2.8.5 1.1.9c.3.4.4.8.4 1.3v.2zm-4.9 0c0 .4.2.8.5 1c.3.3.8.4 1.3.4c.5 0 1-.1 1.3-.4c.3-.3.5-.6.5-1v-.2c0-.4-.2-.7-.5-1c-.3-.3-.8-.4-1.3-.4c-.5 0-1 .1-1.3.4c-.3.3-.5.6-.5 1v.2zm.1 3.5h1.4v2.9h8v1.1h-9.4v-4zm25.3 3.7V71.4h1.4v14.4h-1.4zm-7.8-5.5c.8 0 1.8 0 2.8-.1c1.1-.1 2.2-.3 3.2-.5l.2 1.1c-1.3.3-2.6.5-3.8.6c-1.2.1-2.6.1-4.1.1c-.04.01 0-8.6 0-8.6h6.4v1.1h-5v6.3s.32.04.3 0zm21.7 5.5V71.4h1.4v14.4h-1.4zm-5.2-9.4c0 .7.3 1.5 1 2.3c.6.8 1.5 1.6 2.6 2.3l-.7 1c-1.6-1-2.8-2.1-3.6-3.4c-1 1.5-2.2 2.7-3.7 3.7l-.8-1.1c1.1-.6 2-1.4 2.7-2.3c.7-.9 1.1-1.7 1.1-2.5c-.04.02 0-2.4 0-2.4h-3.1v-1.1h7.6v1.1h-3.1s-.03 2.39 0 2.4zm20.5 3.2h-1.4V76h-2.8v-1.2h2.8v-3.4h1.4v8.2zm-3.2-1.2c-1.3.2-2.5.4-3.7.5c-1.2.1-2.6.1-4.1.1c.02.05 0-6.7 0-6.7h6.3v1.1h-4.9v1.6h4.6v1.1h-4.6v1.8s.36-.02.4 0c.8 0 1.7-.1 2.7-.2c1.1-.1 2.1-.2 3-.4l.3 1.1zM78.4 84v1.3h7.8v1.2H77v-3.7h7.3v-1.2H77v-1.2h8.7v3.6h-7.3zm24.1-7.6v-5h1.4v14.4h-1.4v-8.2h-1.8v7.7h-1.3V71.6h1.3v4.8h1.8zm-10.8-3.5h6.3v1.2h-6.3v-1.2zm5.1 7.2l1.6-.2s.19 1.15.2 1.1c-1.2.2-2.4.4-3.5.4c-1 .1-2.3.1-3.7.1v-1.2h1.5l-.3-5.5l1.3-.1s.28 5.63.3 5.6c.6 0 1 0 1.4-.1c-.03.05.2-5.5.2-5.5l1.4.1l-.4 5.3zm20.3 2.2h-1.4v-5.8h-2.9v-1.1h2.9v-4h1.4v10.9zm-3.3-3.1c-1.3.2-2.5.4-3.7.5c-1.2.1-2.5.2-4 .1c-.02.05 0-7.2 0-7.2h6.3v1.1h-4.9v1.8h4.6v1.1h-4.6v2.1h.3c.8 0 1.7-.1 2.8-.2c1-.1 2-.2 3-.4l.2 1.1zm-4 2v3.8h7.9v1.1h-9.3v-4.9h1.4zm14.2-2.3c.8-.3 1.5-.6 2.3-1.1c.7-.5 1.2-1 1.7-1.5c.4-.5.6-1 .6-1.4c.02-.04 0-1.1 0-1.1h-3.7v-1.2h8.9v1.2h-3.7s-.02 1.06 0 1.1c0 .4.2.9.6 1.4c.5.5 1 .9 1.7 1.4c.7.4 1.5.8 2.3 1l-.4 1.1c-1-.3-2-.7-2.8-1.3c-.9-.5-1.6-1.1-2.1-1.8c-.6.7-1.3 1.3-2.1 1.9c-.9.6-1.9 1.1-2.9 1.5l-.4-1.2zm6.1.8v3.7h6.1v1.2h-13.7v-1.2h6.2v-3.7h1.4zm18.4.8h-1.4V78h-2.9v-1.1h2.9v-2.1h-2.9v-1.1h2.9v-2.3h1.4v9.1zm-11.1-8h6v6.6h-6v-6.6zm1.4 5.5h3.3v-4.4h-3.3v4.4zm5.3 2.7c1 0 1.8.1 2.5.4c.6.2 1.1.5 1.5.9c.3.5.5.9.5 1.5v.2c0 .8-.4 1.5-1.2 2c-.8.5-1.9.7-3.3.7c-1.4 0-2.5-.2-3.3-.7c-.8-.5-1.2-1.2-1.2-2v-.2c0-.6.2-1 .6-1.5c.3-.4.8-.7 1.5-.9c.7-.3 1.5-.4 2.4-.4zm3.1 2.8c0-.5-.2-.9-.8-1.2c-.5-.3-1.3-.4-2.3-.4c-1 0-1.7.1-2.3.4c-.5.3-.8.7-.8 1.2v.1c0 .5.3.9.8 1.2c.6.3 1.3.5 2.3.5c1 0 1.8-.2 2.3-.5c.6-.3.8-.7.8-1.2v-.1zm10-3.4c-1 0-1.8-.1-2.6-.5c-.7-.3-1.2-.7-1.6-1.3c-.4-.6-.6-1.2-.6-1.9v-.2c0-.7.2-1.4.6-1.9c.4-.6.9-1 1.6-1.3c.8-.4 1.6-.5 2.6-.5c1 0 1.8.1 2.6.5c.7.3 1.2.7 1.6 1.3c.4.5.6 1.2.6 1.9v.2c0 .7-.2 1.3-.6 1.9c-.4.6-.9 1-1.6 1.3c-.8.4-1.6.5-2.6.5zm0-1.1c1.1 0 1.9-.3 2.5-.8c.6-.4.9-1.1.9-1.9v-.1c0-.7-.3-1.4-.9-1.8c-.6-.5-1.4-.8-2.5-.8c-1.1 0-1.9.3-2.5.8c-.6.4-.9 1.1-.9 1.8v.1c0 .8.3 1.5.9 1.9c.6.5 1.4.8 2.5.8zm-6.9 4.5h13.8v1.1h-13.8v-1.1zm21.6-3v3h6.1v1.1h-13.8v-1.1h6.2v-3h-3.8v-4.7h7.7v-2.2h-7.7v-1.1h9.1v4.5H168v2.4h8.1v1.1h-4.2z" stroke="none" fill="#fff"/></g><g id="Polygon3287"><path d="m10.8 44H1.6V29.5h2.5v12.4h6.7v2.1zm3.3-12h-2.5v-2.6h2.5v2.6zm0 12h-2.5V33.6h2.5V44zm1-5.4c0-1.1.2-2 .6-2.8c.5-.8 1-1.4 1.7-1.8c.7-.5 1.5-.7 2.4-.7c.6 0 1.2.2 1.8.4c.5.3 1 .7 1.3 1.1l.1-1.2h2.3s.03 9.79 0 9.8c0 1.6-.5 2.8-1.5 3.7c-1.1.8-2.5 1.2-4.2 1.2c-.8 0-1.5 0-2-.2c-.6-.2-1.1-.4-1.6-.7V45c.5.4 1.1.7 1.6.9c.6.3 1.2.4 2 .4c1 0 1.7-.3 2.4-.8c.6-.5.9-1.2.9-2.1v-.9c-.3.4-.8.8-1.3 1c-.6.3-1.2.4-1.8.4c-.9 0-1.7-.2-2.4-.7c-.7-.4-1.2-1-1.7-1.8c-.4-.8-.6-1.8-.6-2.8zm2.6 0c0 .7.1 1.3.4 1.8c.3.5.6.9 1 1.2c.4.3.9.4 1.3.4c.5 0 1-.1 1.4-.4c.5-.3.8-.7 1.1-1.2v-3.5c-.3-.6-.6-1-1.1-1.3c-.4-.2-.9-.4-1.5-.4c-.4 0-.8.1-1.2.4c-.4.2-.8.6-1 1.1c-.3.5-.4 1.2-.4 1.9zM27 44V29.4h2.5v5.7c.4-.5.8-.9 1.4-1.3c.6-.3 1.2-.5 1.9-.5c1.1 0 2 .4 2.7 1c.6.7.9 1.7.9 2.9c.04 0 0 6.8 0 6.8H34s-.01-6.8 0-6.8c0-1.3-.5-2-1.6-2c-.6 0-1.2.3-1.8.7c-.5.5-.9 1.1-1.1 1.8v6.3H27zm12.1-8.5h-2.3v-1.9h2.3v-3.1h2.4v3.1h2.3v1.9h-2.3v8.5h-2.4v-8.5zm7.7-3.5h-2.4v-2.6h2.4v2.6zm0 12h-2.4V33.6h2.4V44zm1.7 0V33.6h2.3l.2 1.5c.4-.5.8-.9 1.4-1.3c.6-.3 1.2-.5 1.9-.5c1.2 0 2 .4 2.7 1c.6.7.9 1.7.9 2.9c.05 0 0 6.8 0 6.8h-2.4v-6.8c0-1.3-.5-2-1.6-2c-.6 0-1.2.3-1.8.7c-.5.5-.9 1.1-1.1 1.8v6.3h-2.5zm10.3-5.4c0-1.1.2-2 .6-2.8c.4-.8 1-1.4 1.7-1.8c.7-.5 1.5-.7 2.4-.7c.6 0 1.2.2 1.7.4c.6.3 1 .7 1.4 1.1c-.03.02.1-1.2.1-1.2h2.3v9.8c0 1.6-.5 2.8-1.6 3.7c-1 .8-2.4 1.2-4.1 1.2c-.8 0-1.5 0-2.1-.2c-.5-.2-1-.4-1.5-.7V45c.5.4 1.1.7 1.6.9c.6.3 1.2.4 2 .4c.9 0 1.7-.3 2.3-.8c.6-.5 1-1.2 1-2.1v-.9c-.3.4-.8.8-1.3 1c-.6.3-1.2.4-1.8.4c-.9 0-1.7-.2-2.4-.7c-.7-.4-1.3-1-1.7-1.8c-.4-.8-.6-1.8-.6-2.8zm2.5 0c0 .7.2 1.3.5 1.8c.2.5.6.9 1 1.2c.4.3.8.4 1.3.4c.5 0 1-.1 1.4-.4c.5-.3.8-.7 1.1-1.2v-3.5c-.3-.6-.6-1-1.1-1.3c-.5-.2-1-.4-1.5-.4c-.4 0-.8.1-1.3.4c-.4.2-.7.6-1 1.1c-.2.5-.4 1.2-.4 1.9z" stroke="none" fill="#fff"/></g><g id="Polygon3286"><path d="m1.6 16V1.5s4.95.04 5 0c1.4 0 2.6.3 3.7.9c1 .5 1.9 1.4 2.4 2.4c.6 1.1.9 2.3.9 3.7v.4c0 1.4-.3 2.7-.9 3.7c-.5 1.1-1.4 1.9-2.4 2.5c-1.1.6-2.3.9-3.7.9c-.05-.02-5 0-5 0zm4.8-2.1c.8 0 1.5-.2 2.2-.5c.6-.4 1.2-.9 1.6-1.7c.4-.7.6-1.7.6-2.8v-.4c0-1.1-.2-2-.6-2.8c-.4-.7-1-1.3-1.6-1.6c-.7-.3-1.4-.5-2.2-.5H4.1v10.3h2.3zM17.2 4h-2.4V1.4h2.4v2.6zm0 12h-2.4V5.6h2.4V16zm1.1-5.4c0-1.1.2-2 .6-2.8c.4-.8 1-1.4 1.7-1.8c.7-.5 1.5-.7 2.3-.7c.7 0 1.3.2 1.8.4c.5.3 1 .7 1.3 1.1c.03.02.2-1.2.2-1.2h2.3s-.04 9.79 0 9.8c0 1.6-.6 2.8-1.6 3.7c-1 .8-2.4 1.2-4.2 1.2c-.8 0-1.4 0-2-.2c-.6-.2-1.1-.4-1.5-.7V17c.5.4 1 .7 1.6.9c.5.3 1.2.4 1.9.4c1 0 1.8-.3 2.4-.8c.6-.5.9-1.2.9-2.1v-.9c-.3.4-.7.8-1.3 1c-.5.3-1.1.4-1.7.4c-.9 0-1.7-.2-2.4-.7c-.7-.4-1.3-1-1.7-1.8c-.4-.8-.6-1.8-.6-2.8zm2.5 0c0 .7.1 1.3.4 1.8c.3.5.6.9 1 1.2c.5.3.9.4 1.3.4c.6 0 1-.1 1.5-.4c.4-.3.8-.7 1-1.2V8.9c-.2-.6-.6-1-1-1.3c-.5-.2-1-.4-1.5-.4c-.5 0-.9.1-1.3.4c-.4.2-.7.6-1 1.1c-.3.5-.4 1.2-.4 1.9zM32.6 4h-2.4V1.4h2.4v2.6zm0 12h-2.4V5.6h2.4V16zm2.8-8.5h-2.2V5.6h2.2V2.5h2.5v3.1h2.3v1.9h-2.3v8.5h-2.5V7.5zm4.7 5.6c0-.8.2-1.5.7-2c.4-.5.9-.8 1.5-1c.6-.3 1.3-.4 2.2-.6l2.2-.3c-.1-1.4-.9-2.1-2.5-2.1c-.6 0-1.1.2-1.7.5c-.6.3-1.1.7-1.5 1.3V6.5c1-.8 2.3-1.2 3.7-1.2c1.3 0 2.4.4 3.2 1.1c.9.7 1.3 1.8 1.3 3.2v6.4h-2.1s-.19-1.22-.2-1.2c-.5.5-1 .8-1.6 1.1c-.5.2-1.2.4-1.9.4c-1 0-1.8-.3-2.4-.9c-.6-.6-.9-1.3-.9-2.3zm2.4-.1c0 .4.1.7.4.9c.2.3.6.4 1 .4c.6 0 1.2-.2 1.7-.6c.5-.3.9-.8 1.2-1.3c-.02-.05 0-1.5 0-1.5c0 0-1.26.22-1.3.2c-.8.2-1.4.3-1.8.4c-.3.2-.6.4-.8.5c-.3.3-.4.6-.4 1zm10.7 3h-2.5V1.4h2.5V16zm6 0V1.5s5.78.04 5.8 0c.9 0 1.7.2 2.4.5c.7.4 1.3.9 1.7 1.5c.5.6.7 1.4.7 2.3v.3c0 .9-.2 1.6-.7 2.3c-.4.6-1 1.1-1.7 1.4c-.7.3-1.5.5-2.4.5c-.02.02-3.3 0-3.3 0v5.7h-2.5zm5.4-7.8c.7 0 1.3-.2 1.8-.5c.4-.4.7-1 .7-1.6v-.3c0-.7-.3-1.2-.7-1.6c-.5-.4-1.1-.6-1.8-.6h-2.9v4.6s2.9.05 2.9 0zm5.3 4.9c0-.8.2-1.5.6-2c.4-.5.9-.8 1.5-1c.7-.3 1.4-.4 2.3-.6l2.2-.3c-.1-1.4-1-2.1-2.5-2.1c-.6 0-1.2.2-1.8.5c-.5.3-1 .7-1.4 1.3V6.5c1-.8 2.2-1.2 3.7-1.2c1.3 0 2.4.4 3.2 1.1c.8.7 1.3 1.8 1.3 3.2c-.04.01 0 6.4 0 6.4h-2.1s-.22-1.22-.2-1.2c-.5.5-1.1.8-1.6 1.1c-.6.2-1.2.4-1.9.4c-1.1 0-1.9-.3-2.5-.9c-.5-.6-.8-1.3-.8-2.3zm2.4-.1c0 .4.1.7.4.9c.2.3.5.4 1 .4c.6 0 1.2-.2 1.7-.6c.5-.3.9-.8 1.2-1.3c-.05-.05 0-1.5 0-1.5c0 0-1.28.22-1.3.2c-.8.2-1.5.3-1.8.4c-.4.2-.6.4-.8.5c-.3.3-.4.6-.4 1zm9.3-5.5h-2.3V5.6h2.3V2.5h2.4v3.1h2.3v1.9H84v8.5h-2.4V7.5zm6.8 0h-2.3V5.6h2.3V2.5h2.4v3.1h2.3v1.9h-2.3v8.5h-2.4V7.5zm4.5 3.1c0-1 .3-1.9.7-2.7c.4-.8 1-1.5 1.7-1.9c.7-.5 1.6-.7 2.5-.7c1.6 0 2.7.5 3.6 1.5c.8.9 1.2 2.2 1.2 3.9v.9s-7.24.05-7.2 0c0 .9.3 1.6.9 2.1c.5.4 1.1.7 2 .7c.7 0 1.3-.1 1.9-.4c.6-.2 1.1-.6 1.7-1.2v2.3c-.5.4-1 .7-1.6.9c-.7.2-1.4.3-2.1.3c-1.1 0-2.1-.3-2.8-.7c-.8-.5-1.4-1.1-1.8-1.9c-.5-.8-.7-1.7-.7-2.7v-.4zm7.3-.8c0-.8-.2-1.5-.7-1.9c-.4-.5-1-.7-1.7-.7c-.6 0-1.2.2-1.7.7c-.4.5-.7 1.1-.7 1.9h4.8zm3.4 6.2V5.6h2.3s.16 1.72.2 1.7c.2-.6.6-1.1 1.1-1.4c.6-.4 1.2-.6 2-.6c.3 0 .6.1.8.1v2.2c-.3-.1-.6-.2-.9-.2c-.7 0-1.3.3-1.9.7c-.6.4-.9.9-1.1 1.6v6.3h-2.5zm7 0V5.6h2.3l.1 1.5c.4-.5.8-.9 1.4-1.3c.6-.3 1.2-.5 1.9-.5c1.2 0 2.1.4 2.7 1c.6.7 1 1.7 1 2.9c-.04 0 0 6.8 0 6.8h-2.5s.01-6.8 0-6.8c0-1.3-.5-2-1.6-2c-.6 0-1.2.3-1.7.7c-.6.5-1 1.1-1.2 1.8v6.3h-2.4z" stroke="none" fill="#fff"/></g></svg>