<?xml version="1.0" standalone="no"?><!DOCTYPE svg PUBLIC "-//W3C//DTD SVG 1.1//EN" "http://www.w3.org/Graphics/SVG/1.1/DTD/svg11.dtd"><svg xmlns="http://www.w3.org/2000/svg" version="1.1" width="206px" height="295.8px" viewBox="0 -6 206 295.8" style="top:-6px"><desc>텍스트 B</desc><defs/><g id="Polygon3307"><path d="m3.6 280.5l-3.3-8.7h1.5l2.7 7.2l2.7-7.2h1.3l-3.3 8.7H3.6zm4.9-4.6c0-.8.2-1.6.5-2.2c.3-.7.8-1.2 1.4-1.6c.6-.4 1.2-.6 2-.6c1.2 0 2.1.4 2.8 1.2c.6.8 1 1.9 1 3.3c-.02.02 0 .6 0 .6H9.9c.1.9.3 1.6.8 2.2c.5.5 1.1.8 1.9.8c1.2 0 2.2-.4 3.1-1.3v1.4c-.4.3-.8.6-1.3.8c-.5.2-1.1.2-1.8.2c-.9 0-1.6-.1-2.2-.5c-.6-.4-1.1-.9-1.4-1.6c-.3-.7-.5-1.4-.5-2.3v-.4zm6.3-.4c0-.9-.3-1.7-.7-2.1c-.4-.5-1-.8-1.7-.8c-.4 0-.8.2-1.2.4c-.4.2-.7.6-.9 1c-.2.4-.3.9-.4 1.5h4.9zm2.4 5v-8.7h1.3s.11 1.49.1 1.5c.3-.6.6-1 1-1.3c.5-.3 1-.5 1.6-.5c.2 0 .3 0 .5.1h.3v1.3c-.2-.1-.5-.1-.9-.1c-.5 0-1 .1-1.5.5c-.4.4-.8.9-1 1.5c.04.02 0 5.7 0 5.7h-1.4zm6.8-7.6h-2v-1.1h2v-2.7h1.4v2.7h1.9v1.1h-1.9v7.6H24v-7.6zm5.3-2.6h-1.4v-1.7h1.4v1.7zm0 10.2h-1.4v-8.7h1.4v8.7zm1-4.5c0-.9.2-1.6.6-2.3c.3-.7.8-1.2 1.5-1.6c.7-.4 1.4-.6 2.2-.6c.5 0 1 .1 1.4.3c.5.2.9.4 1.2.7v1.5c-.4-.4-.7-.8-1.2-1c-.4-.2-.9-.3-1.4-.3c-.5 0-1 .1-1.4.4c-.4.3-.8.6-1 1.1c-.3.5-.4 1.1-.4 1.8v.2c0 .7.1 1.3.4 1.8c.2.5.6.9 1 1.2c.4.3.9.4 1.4.4c1 0 1.9-.4 2.6-1.3v1.5c-.3.3-.7.5-1.2.7c-.4.2-.9.2-1.4.2c-.8 0-1.5-.2-2.2-.5c-.7-.4-1.2-1-1.5-1.6c-.4-.7-.6-1.5-.6-2.3v-.3zm7.4 2.2c0-.6.1-1.1.5-1.5c.2-.4.6-.6 1.1-.9c.5-.2 1.2-.3 2.1-.5l2.1-.4c0-.7-.2-1.3-.6-1.7c-.3-.4-.9-.6-1.7-.6c-.5 0-1.1.2-1.6.4c-.5.3-.9.6-1.2 1v-1.4c.3-.3.7-.5 1.3-.8c.5-.2 1-.3 1.7-.3c1.1 0 1.9.3 2.6.9c.6.5.9 1.4.9 2.5c.04-.03 0 5.6 0 5.6h-1.1s-.22-1.34-.2-1.3c-.4.5-.9.9-1.4 1.1c-.6.3-1.2.4-1.8.4c-.9 0-1.5-.2-2-.6c-.5-.5-.7-1.1-.7-1.9zm1.4-.1c0 .5.1.9.4 1.1c.3.3.7.4 1.1.4c.6 0 1.1-.2 1.7-.5c.5-.4.9-.8 1.3-1.4c-.05-.03 0-1.7 0-1.7c0 0-1.5.26-1.5.3c-.8.1-1.4.2-1.8.4c-.4.1-.7.3-.9.5c-.2.3-.3.6-.3.9zm8.8 2.4h-1.4v-12.3h1.4v12.3zm4.6-2.3c0-.6.1-1.1.4-1.5c.3-.4.7-.6 1.2-.9c.5-.2 1.2-.3 2-.5l2.2-.4c0-.7-.2-1.3-.6-1.7c-.3-.4-.9-.6-1.7-.6c-.6 0-1.1.2-1.6.4c-.5.3-.9.6-1.2 1v-1.4c.3-.3.7-.5 1.2-.8c.6-.2 1.1-.3 1.7-.3c1.2 0 2 .3 2.7.9c.6.5.9 1.4.9 2.5c.03-.03 0 5.6 0 5.6h-1.1s-.23-1.34-.2-1.3c-.4.5-.9.9-1.5 1.1c-.5.3-1.1.4-1.8.4c-.8 0-1.4-.2-1.9-.6c-.5-.5-.7-1.1-.7-1.9zm1.4-.1c0 .5.1.9.4 1.1c.3.3.6.4 1.1.4c.6 0 1.1-.2 1.6-.5c.6-.4 1-.8 1.3-1.4c.04-.03 0-1.7 0-1.7c0 0-1.42.26-1.4.3c-.8.1-1.4.2-1.8.4c-.4.1-.7.3-.9.5c-.2.3-.3.6-.3.9zm7.4 2.4v-8.7h1.3s.06 1.49.1 1.5c.2-.6.5-1 1-1.3c.4-.3 1-.5 1.6-.5c.1 0 .3 0 .4.1h.4v1.3c-.3-.1-.6-.1-.9-.1c-.6 0-1.1.1-1.5.5c-.5.4-.8.9-1 1.5v5.7h-1.4zm5.4 0v-8.7h1.3s.05 1.49 0 1.5c.3-.6.6-1 1.1-1.3c.4-.3.9-.5 1.6-.5c.1 0 .3 0 .4.1h.4v1.3c-.3-.1-.6-.1-.9-.1c-.6 0-1.1.1-1.5.5c-.5.4-.8.9-1 1.5c-.02.02 0 5.7 0 5.7h-1.4zm4.7-2.3c0-.6.2-1.1.5-1.5c.3-.4.7-.6 1.2-.9c.5-.2 1.1-.3 2-.5l2.2-.4c0-.7-.2-1.3-.6-1.7c-.4-.4-.9-.6-1.7-.6c-.6 0-1.1.2-1.6.4c-.5.3-.9.6-1.3 1v-1.4c.4-.3.8-.5 1.3-.8c.5-.2 1.1-.3 1.7-.3c1.1 0 2 .3 2.6.9c.7.5 1 1.4 1 2.5v5.6h-1.1s-.26-1.34-.3-1.3c-.4.5-.8.9-1.4 1.1c-.5.3-1.1.4-1.8.4c-.8 0-1.4-.2-1.9-.6c-.5-.5-.8-1.1-.8-1.9zm1.5-.1c0 .5.1.9.4 1.1c.3.3.6.4 1.1.4c.5 0 1.1-.2 1.6-.5c.6-.4 1-.8 1.3-1.4c.01-.03 0-1.7 0-1.7c0 0-1.45.26-1.4.3c-.8.1-1.4.2-1.9.4c-.4.1-.7.3-.8.5c-.2.3-.3.6-.3.9zm7.4 2.4v-8.7h1.2s.15 1.73.1 1.7c.4-.5.8-1 1.3-1.4c.6-.4 1.2-.6 1.9-.6c.9 0 1.6.3 2.1.9c.5.5.7 1.3.7 2.4c.03-.04 0 5.7 0 5.7h-1.4v-5.6c0-.8-.1-1.3-.4-1.7c-.2-.3-.7-.5-1.3-.5c-.4 0-.7.1-1.1.3c-.4.3-.8.6-1.1 1c-.3.5-.5.9-.6 1.4c-.04-.05 0 5.1 0 5.1h-1.4zm8.2-4.6c0-.9.2-1.6.5-2.3c.3-.7.7-1.2 1.3-1.5c.6-.4 1.3-.6 2-.6c.6 0 1.1.2 1.6.5c.5.2.9.6 1.2 1.1c-.03 0 .1-1.3.1-1.3h1.3s-.04 8.38 0 8.4c0 .8-.2 1.5-.5 2.1c-.4.6-.9 1.1-1.5 1.4c-.7.3-1.5.5-2.4.5c-.6 0-1.1-.1-1.5-.2c-.5-.1-.9-.3-1.3-.6V282c.8.7 1.8 1 2.8 1c.9 0 1.6-.2 2.2-.7c.5-.5.8-1.2.8-2.1v-1.4c-.4.5-.8.8-1.2 1.1c-.5.3-1 .4-1.6.4c-.7 0-1.4-.2-2-.5c-.6-.4-1-.9-1.3-1.6c-.3-.6-.5-1.4-.5-2.3zm1.5 0c0 .7.1 1.3.3 1.8c.2.4.5.8.9 1.1c.4.2.9.4 1.3.4c.6 0 1.1-.2 1.5-.6c.5-.4.8-.9 1.1-1.4v-2.5c-.3-.6-.6-1.1-1.1-1.5c-.5-.4-1-.6-1.5-.6c-.5 0-.9.2-1.3.4c-.4.3-.7.7-.9 1.2c-.2.5-.3 1-.3 1.7zm7.5 0c0-.8.2-1.6.5-2.2c.3-.7.8-1.2 1.4-1.6c.6-.4 1.2-.6 2-.6c1.2 0 2.1.4 2.8 1.2c.6.8 1 1.9 1 3.3c-.03.02 0 .6 0 .6h-6.3c0 .9.3 1.6.8 2.2c.4.5 1.1.8 1.9.8c1.2 0 2.2-.4 3.1-1.3v1.4c-.4.3-.8.6-1.3.8c-.5.2-1.1.2-1.8.2c-.9 0-1.6-.1-2.2-.5c-.6-.4-1.1-.9-1.4-1.6c-.4-.7-.5-1.4-.5-2.3v-.4zm6.3-.4c-.1-.9-.3-1.7-.7-2.1c-.4-.5-1-.8-1.7-.8c-.4 0-.8.2-1.2.4c-.4.2-.7.6-.9 1c-.2.4-.4.9-.4 1.5h4.9zm2.4 5v-8.7h1.3s.08 1.55.1 1.6c.3-.6.7-1 1.2-1.4c.5-.3 1-.5 1.6-.5c.7 0 1.2.2 1.6.5c.4.4.7.8.9 1.4c.3-.5.8-1 1.3-1.4c.4-.3 1-.5 1.7-.5c.8 0 1.4.3 1.9.8c.4.5.7 1.3.7 2.3c-.04-.03 0 5.9 0 5.9h-1.4s-.05-5.82 0-5.8c0-.7-.2-1.2-.4-1.6c-.2-.3-.6-.5-1.1-.5c-.3 0-.7.2-1 .4c-.4.2-.7.5-1 .8l-.6 1.2c.04-.02 0 5.5 0 5.5h-1.4s.03-5.85 0-5.9c0-.6-.1-1.1-.3-1.5c-.2-.3-.6-.5-1.1-.5c-.4 0-.7.2-1 .4c-.4.2-.7.5-1 .8l-.6 1.2c.03-.02 0 5.5 0 5.5h-1.4zm13.1-4.6c0-.8.2-1.6.5-2.2c.4-.7.8-1.2 1.4-1.6c.6-.4 1.3-.6 2-.6c1.2 0 2.1.4 2.8 1.2c.7.8 1 1.9 1 3.3v.6h-6.3c.1.9.3 1.6.8 2.2c.5.5 1.1.8 1.9.8c1.2 0 2.3-.4 3.1-1.3v1.4c-.4.3-.8.6-1.3.8c-.5.2-1.1.2-1.8.2c-.8 0-1.6-.1-2.2-.5c-.6-.4-1.1-.9-1.4-1.6c-.3-.7-.5-1.4-.5-2.3v-.4zm6.3-.4c0-.9-.2-1.7-.7-2.1c-.4-.5-.9-.8-1.6-.8c-.5 0-.9.2-1.3.4c-.3.2-.6.6-.9 1c-.2.4-.3.9-.3 1.5h4.8zm2.5 5v-8.7h1.2s.15 1.73.2 1.7c.3-.5.7-1 1.2-1.4c.6-.4 1.2-.6 1.9-.6c.9 0 1.6.3 2.1.9c.5.5.7 1.3.7 2.4c.04-.04 0 5.7 0 5.7H134v-5.6c0-.8-.1-1.3-.4-1.7c-.2-.3-.7-.5-1.2-.5c-.4 0-.8.1-1.2.3c-.4.3-.8.6-1.1 1c-.3.5-.5.9-.6 1.4c-.03-.05 0 5.1 0 5.1h-1.4zm9.7-7.6h-1.9v-1.1h1.9v-2.7h1.4v2.7h1.9v1.1h-1.9v7.6h-1.4v-7.6zm5.5 7.6h-1.9v-2.1h1.9v2.1z" stroke="none" fill="#fff"/></g><g id="Polygon3306"><path d="m2.2 244.9h-2v-1.1h2v-2.7h1.4v2.7h1.9v1.1H3.6v7.6H2.2v-7.6zm3.9 7.6v-12.3h1.4v5.3c.3-.5.8-1 1.3-1.4c.5-.4 1.1-.6 1.8-.6c.9 0 1.6.3 2.1.9c.5.5.8 1.3.8 2.4c-.04-.04 0 5.7 0 5.7H12s.05-5.63 0-5.6c0-.8-.1-1.3-.3-1.7c-.3-.3-.7-.5-1.3-.5c-.4 0-.8.1-1.2.3c-.4.3-.8.6-1.1 1c-.3.4-.5.8-.6 1.3v5.2H6.1zm8.9 0v-8.7h1.2s.14 1.49.1 1.5c.3-.6.6-1 1.1-1.3c.4-.3.9-.5 1.5-.5c.2 0 .3 0 .5.1h.4v1.3c-.3-.1-.6-.1-.9-.1c-.6 0-1.1.1-1.6.5c-.4.4-.7.9-.9 1.5c-.03.02 0 5.7 0 5.7H15zm4.7-4.5c0-.9.2-1.6.5-2.3c.4-.7.9-1.2 1.5-1.6c.6-.4 1.3-.6 2.1-.6c.8 0 1.5.2 2.2.6c.6.4 1.1.9 1.4 1.6c.3.7.5 1.4.5 2.3v.3c0 .9-.2 1.6-.5 2.3c-.3.7-.8 1.2-1.4 1.6c-.7.4-1.4.5-2.2.5c-.8 0-1.5-.1-2.1-.5c-.6-.4-1.1-.9-1.5-1.6c-.3-.7-.5-1.4-.5-2.3v-.3zm1.5.3c0 1 .2 1.8.7 2.4c.5.6 1.1.9 1.9.9c.8 0 1.5-.3 2-.9c.4-.6.7-1.4.7-2.4v-.3c0-1-.3-1.8-.7-2.4c-.5-.6-1.2-1-2-1c-.8 0-1.4.4-1.9 1c-.5.6-.7 1.4-.7 2.4v.3zm7.6 1.2c0 1.1.3 1.9.8 2.4c.4.6 1.1.8 2.1.8c.6 0 1.3-.2 1.8-.5c.5-.4 1-.9 1.3-1.5c-.02.04.1 1.8.1 1.8h1.3v-8.7h-1.4s-.03 5.12 0 5.1c-.1.5-.4.9-.7 1.3c-.3.5-.6.8-1 1c-.4.3-.8.4-1.2.4c-.6 0-1-.2-1.3-.6c-.2-.3-.4-.9-.4-1.6c.02 0 0-5.6 0-5.6h-1.4s.02 5.71 0 5.7zm8.4-1.6c0-.9.2-1.6.5-2.3c.3-.7.8-1.2 1.3-1.5c.6-.4 1.3-.6 2-.6c.6 0 1.1.2 1.6.5c.5.2.9.6 1.2 1.1l.1-1.3h1.3s-.02 8.38 0 8.4c0 .8-.2 1.5-.5 2.1c-.4.6-.9 1.1-1.5 1.4c-.7.3-1.5.5-2.4.5c-.5 0-1.1-.1-1.5-.2c-.5-.1-.9-.3-1.3-.6V254c.8.7 1.8 1 2.9 1c.8 0 1.6-.2 2.1-.7c.5-.5.8-1.2.8-2.1v-1.4c-.3.5-.7.8-1.2 1.1c-.5.3-1 .4-1.6.4c-.7 0-1.4-.2-2-.5c-.5-.4-1-.9-1.3-1.6c-.3-.6-.5-1.4-.5-2.3zm1.5 0c0 .7.1 1.3.3 1.8c.3.4.6.8 1 1.1c.3.2.8.4 1.2.4c.6 0 1.1-.2 1.5-.6c.5-.4.9-.9 1.1-1.4v-2.5c-.2-.6-.6-1.1-1.1-1.5c-.4-.4-.9-.6-1.5-.6c-.4 0-.9.2-1.3.4c-.3.3-.7.7-.9 1.2c-.2.5-.3 1-.3 1.7zm8.1 4.6v-12.3h1.5s-.04 5.3 0 5.3c.3-.5.7-1 1.2-1.4c.6-.4 1.2-.6 1.8-.6c1 0 1.7.3 2.2.9c.5.5.7 1.3.7 2.4v5.7h-1.4v-5.6c0-.8-.1-1.3-.4-1.7c-.2-.3-.7-.5-1.3-.5c-.4 0-.8.1-1.2.3c-.4.3-.7.6-1 1c-.3.4-.5.8-.6 1.3c-.04 0 0 5.2 0 5.2h-1.5zm13.3-7.6h-1.9v-1.1h1.9v-2.7h1.4v2.7h1.9v1.1h-1.9v7.6h-1.4v-7.6zm3.9 7.6v-12.3h1.4s.02 5.3 0 5.3c.3-.5.8-1 1.3-1.4c.5-.4 1.1-.6 1.8-.6c.9 0 1.6.3 2.1.9c.5.5.8 1.3.8 2.4c-.02-.04 0 5.7 0 5.7H70s-.03-5.63 0-5.6c0-.8-.2-1.3-.4-1.7c-.3-.3-.7-.5-1.3-.5c-.4 0-.8.1-1.2.3c-.4.3-.7.6-1 1c-.3.4-.6.8-.7 1.3c.02 0 0 5.2 0 5.2H64zm8.2-4.6c0-.8.2-1.6.5-2.2c.4-.7.8-1.2 1.4-1.6c.6-.4 1.3-.6 2.1-.6c1.1 0 2.1.4 2.7 1.2c.7.8 1 1.9 1 3.3c.02.02 0 .6 0 .6h-6.3c.1.9.4 1.6.8 2.2c.5.5 1.1.8 1.9.8c1.3 0 2.3-.4 3.1-1.3v1.4c-.4.3-.8.6-1.3.8c-.5.2-1.1.2-1.8.2c-.8 0-1.6-.1-2.2-.5c-.6-.4-1-.9-1.4-1.6c-.3-.7-.5-1.4-.5-2.3v-.4zm6.3-.4c0-.9-.2-1.7-.6-2.1c-.5-.5-1-.8-1.7-.8c-.5 0-.9.2-1.2.4c-.4.2-.7.6-.9 1c-.3.4-.4.9-.4 1.5h4.8zm3.9-5.2H81v-1.7h1.4v1.7zm0 10.2H81v-8.7h1.4v8.7zm1.6 0v-8.7h1.3s.12 1.49.1 1.5c.3-.6.6-1 1.1-1.3c.4-.3.9-.5 1.5-.5c.2 0 .3 0 .5.1h.3v1.3c-.2-.1-.5-.1-.8-.1c-.6 0-1.1.1-1.6.5c-.4.4-.8.9-.9 1.5c-.04.02 0 5.7 0 5.7H84zm8.6-2.2c.7.9 1.6 1.3 2.8 1.3c.6 0 1-.1 1.4-.4c.3-.2.5-.5.5-.9c0-.3-.1-.6-.3-.8c-.2-.2-.5-.4-1-.6l-1.2-.5c-.7-.3-1.2-.7-1.6-1.1c-.3-.4-.5-.8-.5-1.4c0-.4.1-.8.3-1.2c.3-.4.6-.6 1-.9c.5-.2 1-.3 1.6-.3c.6 0 1.1.1 1.5.3c.5.2.9.4 1.2.7v1.5c-.4-.4-.8-.8-1.3-1c-.4-.2-.9-.3-1.4-.3c-.5 0-.9.1-1.1.3c-.3.2-.4.5-.4.8c0 .3.1.5.3.7c.2.2.5.4 1 .6l1.2.5c.7.3 1.2.6 1.6 1c.3.5.5 1 .5 1.6c0 .8-.3 1.4-.9 1.8c-.7.5-1.5.7-2.4.7c-.6 0-1.2 0-1.6-.2c-.5-.2-.9-.4-1.2-.7v-1.5zm8-5.4h-1.9v-1.1h1.9v-2.7h1.4v2.7h1.9v1.1H102v7.6h-1.4v-7.6zm3.3 5.3c0-.6.1-1.1.5-1.5c.2-.4.6-.6 1.1-.9c.5-.2 1.2-.3 2.1-.5l2.1-.4c0-.7-.2-1.3-.5-1.7c-.4-.4-1-.6-1.8-.6c-.5 0-1.1.2-1.6.4c-.4.3-.9.6-1.2 1v-1.4c.3-.3.7-.5 1.3-.8c.5-.2 1-.3 1.7-.3c1.1 0 2 .3 2.6.9c.6.5 1 1.4 1 2.5c-.05-.03 0 5.6 0 5.6H110l-.2-1.3c-.4.5-.9.9-1.4 1.1c-.6.3-1.2.4-1.8.4c-.9 0-1.5-.2-2-.6c-.5-.5-.7-1.1-.7-1.9zm1.4-.1c0 .5.1.9.4 1.1c.3.3.7.4 1.1.4c.6 0 1.1-.2 1.7-.5c.5-.4.9-.8 1.3-1.4c-.04-.03 0-1.7 0-1.7c0 0-1.5.26-1.5.3c-.8.1-1.4.2-1.8.4c-.4.1-.7.3-.9.5c-.2.3-.3.6-.3.9zm7.4 2.4v-8.7h1.3s.08 1.49.1 1.5c.2-.6.6-1 1-1.3c.5-.3 1-.5 1.6-.5c.1 0 .3 0 .5.1h.3v1.3c-.2-.1-.5-.1-.9-.1c-.5 0-1.1.1-1.5.5c-.5.4-.8.9-1 1.5v5.7h-1.4zm5.4 0v-8.7h1.3s.07 1.49.1 1.5c.2-.6.6-1 1-1.3c.4-.3 1-.5 1.6-.5c.1 0 .3 0 .4.1h.4v1.3c-.2-.1-.5-.1-.9-.1c-.6 0-1.1.1-1.5.5c-.5.4-.8.9-1 1.5v5.7h-1.4zm8.1 0l-3.4-8.7h1.5l2.7 7l2.7-7h1.4l-4.9 12.2h-1.5l1.5-3.5zm10.5 0h-1.4v-12.3h1.4v12.3zm1-4.5c0-.9.2-1.6.5-2.3c.4-.7.9-1.2 1.5-1.6c.6-.4 1.3-.6 2.1-.6c.8 0 1.5.2 2.1.6c.7.4 1.2.9 1.5 1.6c.3.7.5 1.4.5 2.3v.3c0 .9-.2 1.6-.5 2.3c-.3.7-.8 1.2-1.5 1.6c-.6.4-1.3.5-2.1.5c-.8 0-1.5-.1-2.1-.5c-.6-.4-1.1-.9-1.5-1.6c-.3-.7-.5-1.4-.5-2.3v-.3zm1.5.3c0 1 .2 1.8.7 2.4c.5.6 1.1.9 1.9.9c.8 0 1.5-.3 2-.9c.4-.6.7-1.4.7-2.4v-.3c0-1-.3-1.8-.7-2.4c-.5-.6-1.2-1-2-1c-.8 0-1.4.4-1.9 1c-.5.6-.7 1.4-.7 2.4v.3zm7.3-.3c0-.9.2-1.6.5-2.3c.4-.7.9-1.2 1.5-1.6c.6-.4 1.3-.6 2.1-.6c.8 0 1.5.2 2.1.6c.7.4 1.1.9 1.5 1.6c.3.7.5 1.4.5 2.3v.3c0 .9-.2 1.6-.5 2.3c-.4.7-.8 1.2-1.5 1.6c-.6.4-1.3.5-2.1.5c-.8 0-1.5-.1-2.1-.5c-.6-.4-1.1-.9-1.5-1.6c-.3-.7-.5-1.4-.5-2.3v-.3zm1.5.3c0 1 .2 1.8.7 2.4c.5.6 1.1.9 1.9.9c.8 0 1.5-.3 1.9-.9c.5-.6.7-1.4.7-2.4v-.3c0-1-.2-1.8-.7-2.4c-.4-.6-1.1-1-1.9-1c-.8 0-1.4.4-1.9 1c-.5.6-.7 1.4-.7 2.4v.3zm9.2 4.2h-1.4v-12.3h1.4v7.5l4-3.9h1.7l-4.4 4.2l4.8 4.5h-2l-4.1-4v4zm9.5-2.3c0-.6.2-1.1.5-1.5c.3-.4.7-.6 1.2-.9c.5-.2 1.2-.3 2-.5l2.2-.4c0-.7-.2-1.3-.6-1.7c-.4-.4-.9-.6-1.7-.6c-.6 0-1.1.2-1.6.4c-.5.3-.9.6-1.2 1v-1.4c.3-.3.7-.5 1.2-.8c.5-.2 1.1-.3 1.7-.3c1.1 0 2 .3 2.7.9c.6.5.9 1.4.9 2.5v5.6h-1.1s-.25-1.34-.2-1.3c-.5.5-.9.9-1.5 1.1c-.5.3-1.1.4-1.8.4c-.8 0-1.4-.2-1.9-.6c-.5-.5-.8-1.1-.8-1.9zm1.5-.1c0 .5.1.9.4 1.1c.3.3.6.4 1.1.4c.5 0 1.1-.2 1.6-.5c.6-.4 1-.8 1.3-1.4c.02-.03 0-1.7 0-1.7c0 0-1.43.26-1.4.3c-.8.1-1.4.2-1.8.4c-.4.1-.7.3-.9.5c-.2.3-.3.6-.3.9zm7.4 2.4v-8.7h1.2s.16 1.73.2 1.7c.3-.5.7-1 1.2-1.4c.6-.4 1.2-.6 1.9-.6c.9 0 1.6.3 2.1.9c.5.5.7 1.3.7 2.4c.04-.04 0 5.7 0 5.7h-1.4s.02-5.63 0-5.6c0-.8-.1-1.3-.4-1.7c-.2-.3-.6-.5-1.2-.5c-.4 0-.8.1-1.2.3c-.4.3-.8.6-1.1 1c-.3.5-.5.9-.6 1.4c-.03-.05 0 5.1 0 5.1h-1.4zm8.2-4.4c0-.9.2-1.7.5-2.4c.3-.7.8-1.2 1.4-1.6c.6-.4 1.2-.6 1.9-.6c.6 0 1.1.2 1.6.5c.5.2.9.6 1.2 1.1c.05-.04 0-4.9 0-4.9h1.5v12.3h-1.3s-.14-1.36-.1-1.4c-.3.5-.8.9-1.2 1.2c-.5.3-1.1.4-1.7.4c-.7 0-1.3-.1-1.9-.5c-.6-.4-1.1-.9-1.4-1.6c-.3-.7-.5-1.6-.5-2.5zm1.5 0c0 .7.1 1.4.3 1.9c.2.5.5.9.9 1.2c.4.3.9.4 1.4.4c.5 0 1-.2 1.5-.6c.5-.4.8-.9 1-1.4v-2.9c-.2-.6-.5-1.1-1-1.5c-.5-.4-1-.6-1.5-.6c-.5 0-.9.2-1.3.5c-.4.3-.7.7-1 1.2c-.2.5-.3 1.1-.3 1.8z" stroke="none" fill="#fff"/></g><g id="Polygon3305"><path d="m2.7 214.3H1.3v-1.7h1.4v1.7zm0 10.2H1.3v-8.7h1.4v8.7zm1.7 0v-8.7h1.2s.14 1.55.1 1.6c.4-.6.8-1 1.3-1.4c.4-.3 1-.5 1.6-.5c.6 0 1.1.2 1.6.5c.4.4.7.8.8 1.4c.4-.5.8-1 1.3-1.4c.5-.3 1.1-.5 1.7-.5c.8 0 1.5.3 1.9.8c.5.5.7 1.3.7 2.3c.02-.03 0 5.9 0 5.9h-1.4s.02-5.82 0-5.8c0-.7-.1-1.2-.3-1.6c-.3-.3-.6-.5-1.2-.5c-.3 0-.6.2-1 .4c-.3.2-.6.5-.9.8c-.3.4-.5.8-.6 1.2v5.5H9.8v-5.9c0-.6-.1-1.1-.4-1.5c-.2-.3-.6-.5-1.1-.5c-.3 0-.6.2-1 .4c-.3.2-.6.5-.9.8c-.3.4-.5.8-.6 1.2v5.5H4.4zm13.7 3.5v-12.2h1.3s.12 1.38.1 1.4c.3-.5.7-.9 1.2-1.2c.5-.3 1.1-.5 1.7-.5c.7 0 1.3.2 1.9.6c.6.4 1 .9 1.4 1.6c.3.7.5 1.5.5 2.4c0 .9-.2 1.8-.5 2.5c-.4.7-.8 1.2-1.4 1.6c-.6.4-1.2.5-1.9.5c-.6 0-1.1-.1-1.6-.4c-.5-.3-.9-.6-1.3-1.1c.04-.01 0 4.8 0 4.8h-1.4zm1.4-6.5c.2.6.6 1.1 1.1 1.5c.5.4 1 .6 1.5.6c.5 0 .9-.1 1.3-.4c.4-.3.7-.7 1-1.2c.2-.6.3-1.2.3-1.9c0-.7-.1-1.3-.3-1.8c-.2-.5-.5-.9-.9-1.2c-.4-.3-.9-.5-1.4-.5c-.5 0-1 .2-1.5.6c-.5.4-.9.9-1.1 1.5v2.8zm7.3-1.5c0-.9.1-1.6.5-2.3c.3-.7.8-1.2 1.4-1.6c.7-.4 1.4-.6 2.2-.6c.8 0 1.5.2 2.1.6c.6.4 1.1.9 1.4 1.6c.4.7.6 1.4.6 2.3v.3c0 .9-.2 1.6-.6 2.3c-.3.7-.8 1.2-1.4 1.6c-.6.4-1.3.5-2.1.5c-.8 0-1.5-.1-2.2-.5c-.6-.4-1.1-.9-1.4-1.6c-.4-.7-.5-1.4-.5-2.3v-.3zm1.4.3c0 1 .3 1.8.7 2.4c.5.6 1.2.9 2 .9c.8 0 1.4-.3 1.9-.9c.5-.6.7-1.4.7-2.4v-.3c0-1-.2-1.8-.7-2.4c-.5-.6-1.1-1-1.9-1c-.8 0-1.5.4-2 1c-.4.6-.7 1.4-.7 2.4v.3zm7.5 2c.7.9 1.6 1.3 2.7 1.3c.6 0 1.1-.1 1.4-.4c.4-.2.5-.5.5-.9c0-.3-.1-.6-.2-.8c-.2-.2-.6-.4-1.1-.6l-1.1-.5c-.8-.3-1.3-.7-1.6-1.1c-.4-.4-.6-.8-.6-1.4c0-.4.2-.8.4-1.2c.2-.4.6-.6 1-.9c.4-.2 1-.3 1.6-.3c.5 0 1 .1 1.5.3c.5.2.9.4 1.2.7v1.5c-.4-.4-.8-.8-1.3-1c-.5-.2-.9-.3-1.4-.3c-.5 0-.9.1-1.2.3c-.2.2-.4.5-.4.8c0 .3.1.5.3.7c.3.2.6.4 1.1.6l1.1.5c.8.3 1.3.6 1.6 1c.4.5.5 1 .5 1.6c0 .8-.3 1.4-.9 1.8c-.6.5-1.4.7-2.4.7c-.6 0-1.1 0-1.6-.2c-.5-.2-.8-.4-1.1-.7v-1.5zm6.4-2.4c0-.8.2-1.6.5-2.2c.4-.7.8-1.2 1.4-1.6c.6-.4 1.3-.6 2.1-.6c1.1 0 2.1.4 2.7 1.2c.7.8 1 1.9 1 3.3c.02.02 0 .6 0 .6h-6.2c0 .9.3 1.6.7 2.2c.5.5 1.1.8 1.9.8c1.3 0 2.3-.4 3.1-1.3v1.4c-.3.3-.8.6-1.3.8c-.5.2-1.1.2-1.8.2c-.8 0-1.5-.1-2.2-.5c-.6-.4-1-.9-1.4-1.6c-.3-.7-.5-1.4-.5-2.3v-.4zm6.3-.4c0-.9-.2-1.7-.6-2.1c-.5-.5-1-.8-1.7-.8c-.5 0-.9.2-1.2.4c-.4.2-.7.6-.9 1c-.3.4-.4.9-.4 1.5h4.8zm6.8-2.6h-1.9v-1.1h1.9v-2.7h1.5v2.7h1.9v1.1h-1.9v7.6h-1.5v-7.6zm4 7.6v-12.3h1.4v5.3c.3-.5.7-1 1.3-1.4c.5-.4 1.1-.6 1.8-.6c.9 0 1.6.3 2.1.9c.5.5.7 1.3.7 2.4c.04-.04 0 5.7 0 5.7h-1.4s.04-5.63 0-5.6c0-.8-.1-1.3-.3-1.7c-.3-.3-.7-.5-1.3-.5c-.4 0-.8.1-1.2.3c-.4.3-.8.6-1.1 1c-.3.4-.5.8-.6 1.3v5.2h-1.4zm8.2-4.6c0-.8.2-1.6.5-2.2c.3-.7.8-1.2 1.4-1.6c.6-.4 1.3-.6 2-.6c1.2 0 2.1.4 2.8 1.2c.7.8 1 1.9 1 3.3v.6h-6.3c.1.9.3 1.6.8 2.2c.5.5 1.1.8 1.9.8c1.2 0 2.3-.4 3.1-1.3v1.4c-.4.3-.8.6-1.3.8c-.5.2-1.1.2-1.8.2c-.9 0-1.6-.1-2.2-.5c-.6-.4-1.1-.9-1.4-1.6c-.3-.7-.5-1.4-.5-2.3v-.4zm6.3-.4c0-.9-.3-1.7-.7-2.1c-.4-.5-1-.8-1.7-.8c-.4 0-.8.2-1.2.4c-.3.2-.6.6-.9 1c-.2.4-.3.9-.4 1.5h4.9zm4.9-2.6v-1.1h1.7s.04-.9 0-.9c0-.5.1-1 .3-1.5c.2-.4.5-.8 1-1.1c.4-.2.9-.4 1.5-.4c.4 0 .7.1 1.1.3v1.2c-.3-.2-.6-.3-1-.3c-.5 0-.8.1-1.1.5c-.2.3-.3.7-.3 1.3c-.04.02 0 .9 0 .9h2v1.1h-2v7.6h-1.5v-7.6h-1.7zm6 4.6c0 1.1.2 1.9.7 2.4c.5.6 1.2.8 2.1.8c.7 0 1.3-.2 1.9-.5c.5-.4.9-.9 1.2-1.5c.04.04.2 1.8.2 1.8h1.3v-8.7h-1.5s.03 5.12 0 5.1c-.1.5-.3.9-.6 1.3c-.3.5-.6.8-1 1c-.4.3-.8.4-1.3.4c-.6 0-1-.2-1.2-.6c-.3-.3-.4-.9-.4-1.6c-.02 0 0-5.6 0-5.6h-1.4s-.02 5.71 0 5.7zm9.8-4.6h-1.9v-1.1h1.9v-2.7h1.5v2.7h1.9v1.1h-1.9v7.6h-1.5v-7.6zm3.8 4.6c0 1.1.3 1.9.8 2.4c.4.6 1.2.8 2.1.8c.7 0 1.3-.2 1.8-.5c.5-.4 1-.9 1.3-1.5c-.01.04.1 1.8.1 1.8h1.3v-8.7h-1.4s-.03 5.12 0 5.1c-.1.5-.4.9-.6 1.3c-.3.5-.7.8-1.1 1c-.4.3-.8.4-1.2.4c-.6 0-1-.2-1.3-.6c-.2-.3-.4-.9-.4-1.6c.03 0 0-5.6 0-5.6h-1.4s.02 5.71 0 5.7zm9 3v-8.7h1.3s.12 1.49.1 1.5c.3-.6.6-1 1.1-1.3c.4-.3.9-.5 1.5-.5c.2 0 .3 0 .5.1h.3v1.3c-.2-.1-.5-.1-.8-.1c-.6 0-1.1.1-1.6.5c-.4.4-.8.9-.9 1.5c-.05.02 0 5.7 0 5.7h-1.5zm6.8-10.2h-1.4v-1.7h1.4v1.7zm0 10.2h-1.4v-8.7h1.4v8.7zm1.4-2.2c.7.9 1.6 1.3 2.7 1.3c.6 0 1.1-.1 1.4-.4c.3-.2.5-.5.5-.9c0-.3-.1-.6-.2-.8c-.2-.2-.6-.4-1.1-.6l-1.1-.5c-.8-.3-1.3-.7-1.6-1.1c-.4-.4-.6-.8-.6-1.4c0-.4.2-.8.4-1.2c.2-.4.5-.6 1-.9c.4-.2 1-.3 1.6-.3c.5 0 1 .1 1.5.3c.5.2.9.4 1.2.7v1.5c-.4-.4-.9-.8-1.3-1c-.5-.2-.9-.3-1.4-.3c-.5 0-.9.1-1.2.3c-.2.2-.4.5-.4.8c0 .3.1.5.3.7c.3.2.6.4 1.1.6l1.1.5c.8.3 1.3.6 1.6 1c.4.5.5 1 .5 1.6c0 .8-.3 1.4-.9 1.8c-.6.5-1.4.7-2.4.7c-.6 0-1.1 0-1.6-.2c-.5-.2-.8-.4-1.1-.7v-1.5zm7.9-5.4h-1.9v-1.1h1.9v-2.7h1.4v2.7h2v1.1h-2v7.6h-1.4v-7.6zm5.4-2.6h-1.4v-1.7h1.4v1.7zm0 10.2h-1.4v-8.7h1.4v8.7zm1-4.5c0-.9.2-1.6.6-2.3c.3-.7.8-1.2 1.5-1.6c.6-.4 1.4-.6 2.2-.6c.5 0 .9.1 1.4.3c.5.2.8.4 1.2.7v1.5c-.4-.4-.8-.8-1.2-1c-.4-.2-.9-.3-1.4-.3c-.5 0-1 .1-1.4.4c-.5.3-.8.6-1 1.1c-.3.5-.4 1.1-.4 1.8v.2c0 .7.1 1.3.4 1.8c.2.5.5.9 1 1.2c.4.3.9.4 1.4.4c1 0 1.8-.4 2.6-1.3v1.5c-.4.3-.8.5-1.2.7c-.5.2-.9.2-1.4.2c-.8 0-1.6-.2-2.2-.5c-.7-.4-1.2-1-1.5-1.6c-.4-.7-.6-1.5-.6-2.3v-.3zm12.9-5.7h-1.4v-1.7h1.4v1.7zm0 10.2h-1.4v-8.7h1.4v8.7zm1.7 0v-8.7h1.2s.13 1.55.1 1.6c.4-.6.8-1 1.2-1.4c.5-.3 1.1-.5 1.7-.5c.6 0 1.1.2 1.6.5c.4.4.7.8.8 1.4c.4-.5.8-1 1.3-1.4c.5-.3 1.1-.5 1.7-.5c.8 0 1.4.3 1.9.8c.5.5.7 1.3.7 2.3v5.9h-1.4v-5.8c0-.7-.1-1.2-.3-1.6c-.3-.3-.6-.5-1.2-.5c-.3 0-.6.2-1 .4c-.3.2-.7.5-.9.8c-.3.4-.5.8-.6 1.2v5.5h-1.4s-.02-5.85 0-5.9c0-.6-.1-1.1-.4-1.5c-.2-.3-.6-.5-1.1-.5c-.3 0-.6.2-1 .4c-.3.2-.6.5-.9.8c-.3.4-.5.8-.6 1.2c-.02-.02 0 5.5 0 5.5h-1.4zm13.1-2.3c0-.6.2-1.1.5-1.5c.2-.4.6-.6 1.1-.9c.5-.2 1.2-.3 2.1-.5l2.1-.4c0-.7-.2-1.3-.5-1.7c-.4-.4-1-.6-1.8-.6c-.5 0-1.1.2-1.5.4c-.5.3-1 .6-1.3 1v-1.4c.3-.3.7-.5 1.3-.8c.5-.2 1.1-.3 1.7-.3c1.1 0 2 .3 2.6.9c.6.5 1 1.4 1 2.5c-.05-.03 0 5.6 0 5.6h-1.1l-.3-1.3c-.4.5-.9.9-1.4 1.1c-.6.3-1.2.4-1.8.4c-.8 0-1.5-.2-2-.6c-.5-.5-.7-1.1-.7-1.9zm1.4-.1c0 .5.2.9.4 1.1c.3.3.7.4 1.1.4c.6 0 1.1-.2 1.7-.5c.5-.4 1-.8 1.3-1.4c-.04-.03 0-1.7 0-1.7c0 0-1.49.26-1.5.3c-.8.1-1.4.2-1.8.4c-.4.1-.7.3-.9.5c-.2.3-.3.6-.3.9zm6.8-2.2c0-.9.1-1.6.5-2.3c.3-.7.7-1.2 1.3-1.5c.6-.4 1.2-.6 2-.6c.6 0 1.1.2 1.6.5c.5.2.8.6 1.2 1.1c-.04 0 .1-1.3.1-1.3h1.3s-.05 8.38 0 8.4c0 .8-.2 1.5-.6 2.1c-.3.6-.8 1.1-1.5 1.4c-.6.3-1.4.5-2.3.5c-.6 0-1.1-.1-1.5-.2c-.5-.1-.9-.3-1.3-.6V226c.8.7 1.8 1 2.8 1c.9 0 1.6-.2 2.2-.7c.5-.5.7-1.2.7-2.1v-1.4c-.3.5-.7.8-1.1 1.1c-.5.3-1.1.4-1.6.4c-.8 0-1.4-.2-2-.5c-.6-.4-1-.9-1.3-1.6c-.4-.6-.5-1.4-.5-2.3zm1.5 0c0 .7.1 1.3.3 1.8c.2.4.5.8.9 1.1c.4.2.8.4 1.3.4c.5 0 1-.2 1.5-.6c.5-.4.8-.9 1-1.4v-2.5c-.2-.6-.5-1.1-1-1.5c-.5-.4-1-.6-1.5-.6c-.5 0-.9.2-1.3.4c-.4.3-.7.7-.9 1.2c-.2.5-.3 1-.3 1.7zm7.5 0c0-.8.1-1.6.5-2.2c.3-.7.8-1.2 1.4-1.6c.5-.4 1.2-.6 2-.6c1.2 0 2.1.4 2.8 1.2c.6.8 1 1.9 1 3.3c-.05.02 0 .6 0 .6H176c0 .9.3 1.6.8 2.2c.4.5 1.1.8 1.9.8c1.2 0 2.2-.4 3.1-1.3v1.4c-.4.3-.9.6-1.3.8c-.5.2-1.1.2-1.8.2c-.9 0-1.6-.1-2.2-.5c-.6-.4-1.1-.9-1.4-1.6c-.4-.7-.5-1.4-.5-2.3v-.4zm6.2-.4c0-.9-.2-1.7-.6-2.1c-.4-.5-1-.8-1.7-.8c-.4 0-.8.2-1.2.4c-.4.2-.7.6-.9 1c-.2.4-.4.9-.4 1.5h4.8z" stroke="none" fill="#fff"/></g><g id="Polygon3304"><path d="m2.2 188.9h-2v-1.1h2v-2.7h1.4v2.7h1.9v1.1H3.6v7.6H2.2v-7.6zm3.9 7.6v-12.3h1.4v5.3c.3-.5.8-1 1.3-1.4c.5-.4 1.1-.6 1.8-.6c.9 0 1.6.3 2.1.9c.5.5.8 1.3.8 2.4c-.04-.04 0 5.7 0 5.7H12s.05-5.63 0-5.6c0-.8-.1-1.3-.3-1.7c-.3-.3-.7-.5-1.3-.5c-.4 0-.8.1-1.2.3c-.4.3-.8.6-1.1 1c-.3.4-.5.8-.6 1.3v5.2H6.1zm8.2-4.6c0-.8.2-1.6.5-2.2c.3-.7.8-1.2 1.4-1.6c.6-.4 1.3-.6 2-.6c1.2 0 2.1.4 2.8 1.2c.7.8 1 1.9 1 3.3v.6h-6.3c.1.9.3 1.6.8 2.2c.5.5 1.1.8 1.9.8c1.2 0 2.3-.4 3.1-1.3v1.4c-.4.3-.8.6-1.3.8c-.5.2-1.1.2-1.8.2c-.8 0-1.6-.1-2.2-.5c-.6-.4-1.1-.9-1.4-1.6c-.3-.7-.5-1.4-.5-2.3v-.4zm6.3-.4c0-.9-.2-1.7-.7-2.1c-.4-.5-1-.8-1.6-.8c-.5 0-.9.2-1.3.4c-.3.2-.6.6-.9 1c-.2.4-.3.9-.4 1.5h4.9zm6.1 5v-12.2s3.68.04 3.7 0c1.1 0 2.2.3 3.1.8c.9.5 1.5 1.2 2 2.1c.5.9.8 1.9.8 3v.4c0 1.1-.3 2.1-.8 3c-.5.9-1.1 1.6-2 2.1c-.9.5-2 .8-3.1.8h-3.7zm3.7-1.2c.8 0 1.5-.2 2.2-.6c.7-.4 1.2-1 1.5-1.7c.4-.7.6-1.5.6-2.4v-.4c0-.9-.2-1.7-.6-2.4c-.3-.7-.8-1.3-1.5-1.7c-.7-.3-1.4-.5-2.2-.5c-.05-.04-2.3 0-2.3 0v9.7h2.3zm9.6 1.2l-3.4-8.7h1.5l2.7 7l2.6-7h1.5L40 200h-1.5l1.5-3.5zm5.5 0v-8.7h1.3s.13 1.73.1 1.7c.3-.5.8-1 1.3-1.4c.6-.4 1.2-.6 1.8-.6c1 0 1.7.3 2.2.9c.5.5.7 1.3.7 2.4v5.7h-1.4v-5.6c0-.8-.1-1.3-.4-1.7c-.3-.3-.7-.5-1.3-.5c-.4 0-.8.1-1.2.3c-.4.3-.7.6-1 1c-.3.5-.5.9-.7 1.4c.04-.05 0 5.1 0 5.1h-1.4zm8.3-2.3c0-.6.1-1.1.5-1.5c.2-.4.6-.6 1.1-.9c.5-.2 1.2-.3 2.1-.5l2.1-.4c0-.7-.2-1.3-.6-1.7c-.3-.4-.9-.6-1.7-.6c-.5 0-1.1.2-1.6.4c-.5.3-.9.6-1.2 1v-1.4c.3-.3.7-.5 1.3-.8c.5-.2 1-.3 1.7-.3c1.1 0 1.9.3 2.6.9c.6.5.9 1.4.9 2.5c.04-.03 0 5.6 0 5.6h-1.1s-.22-1.34-.2-1.3c-.4.5-.9.9-1.5 1.1c-.5.3-1.1.4-1.8.4c-.8 0-1.4-.2-1.9-.6c-.5-.5-.7-1.1-.7-1.9zm1.4-.1c0 .5.1.9.4 1.1c.3.3.7.4 1.1.4c.6 0 1.1-.2 1.7-.5c.5-.4.9-.8 1.2-1.4c.05-.03 0-1.7 0-1.7c0 0-1.41.26-1.4.3c-.8.1-1.4.2-1.8.4c-.4.1-.7.3-.9.5c-.2.3-.3.6-.3.9zm7.4 2.4v-8.7h1.3s.05 1.55.1 1.6c.3-.6.7-1 1.2-1.4c.4-.3 1-.5 1.6-.5c.6 0 1.2.2 1.6.5c.4.4.7.8.8 1.4c.4-.5.8-1 1.3-1.4c.5-.3 1.1-.5 1.7-.5c.8 0 1.5.3 1.9.8c.5.5.7 1.3.7 2.3c.03-.03 0 5.9 0 5.9h-1.4s.02-5.82 0-5.8c0-.7-.1-1.2-.3-1.6c-.3-.3-.6-.5-1.1-.5c-.4 0-.7.2-1.1.4c-.3.2-.6.5-.9.8c-.3.4-.5.8-.6 1.2v5.5H68v-5.9c0-.6-.1-1.1-.3-1.5c-.3-.3-.7-.5-1.2-.5c-.3 0-.6.2-1 .4c-.3.2-.6.5-.9.8c-.3.4-.5.8-.6 1.2v5.5h-1.4zm15.1-10.2h-1.4v-1.7h1.4v1.7zm0 10.2h-1.4v-8.7h1.4v8.7zm1.1-4.5c0-.9.2-1.6.5-2.3c.4-.7.9-1.2 1.5-1.6c.7-.4 1.4-.6 2.3-.6c.5 0 .9.1 1.4.3c.4.2.8.4 1.1.7v1.5c-.3-.4-.7-.8-1.1-1c-.5-.2-.9-.3-1.4-.3c-.6 0-1 .1-1.5.4c-.4.3-.7.6-1 1.1c-.2.5-.3 1.1-.3 1.8v.2c0 .7.1 1.3.3 1.8c.3.5.6.9 1 1.2c.5.3.9.4 1.5.4c.9 0 1.8-.4 2.5-1.3v1.5c-.3.3-.7.5-1.1.7c-.5.2-1 .2-1.5.2c-.8 0-1.5-.2-2.2-.5c-.6-.4-1.1-1-1.5-1.6c-.3-.7-.5-1.5-.5-2.3v-.3zm12-7.7h-1.5l3.1 12.2h1.8l2.5-10.1l2.5 10.1h1.8l3.1-12.2h-1.4l-2.6 10.2l-2.4-10.2h-1.9l-2.5 10.3l-2.5-10.3zm12.7 7.6c0-.8.2-1.6.5-2.2c.3-.7.8-1.2 1.4-1.6c.6-.4 1.2-.6 2-.6c1.2 0 2.1.4 2.8 1.2c.6.8 1 1.9 1 3.3c-.03.02 0 .6 0 .6h-6.3c0 .9.3 1.6.8 2.2c.4.5 1.1.8 1.9.8c1.2 0 2.2-.4 3.1-1.3v1.4c-.4.3-.8.6-1.3.8c-.5.2-1.1.2-1.8.2c-.9 0-1.6-.1-2.2-.5c-.6-.4-1.1-.9-1.4-1.6c-.4-.7-.5-1.4-.5-2.3v-.4zm6.3-.4c-.1-.9-.3-1.7-.7-2.1c-.4-.5-1-.8-1.7-.8c-.4 0-.8.2-1.2.4c-.4.2-.7.6-.9 1c-.2.4-.4.9-.4 1.5h4.9zm3.8 5h-1.4v-12.3h1.4v12.3zm1.1-4.5c0-.9.2-1.6.5-2.3c.4-.7.9-1.2 1.5-1.6c.7-.4 1.4-.6 2.3-.6c.4 0 .9.1 1.4.3c.4.2.8.4 1.1.7v1.5c-.3-.4-.7-.8-1.1-1c-.5-.2-1-.3-1.5-.3c-.5 0-1 .1-1.4.4c-.4.3-.7.6-1 1.1c-.2.5-.4 1.1-.4 1.8v.2c0 .7.2 1.3.4 1.8c.3.5.6.9 1 1.2c.5.3.9.4 1.4.4c1 0 1.9-.4 2.6-1.3v1.5c-.3.3-.7.5-1.1.7c-.5.2-1 .2-1.5.2c-.8 0-1.5-.2-2.2-.5c-.6-.4-1.1-1-1.5-1.6c-.3-.7-.5-1.5-.5-2.3v-.3zm7.3 0c0-.9.2-1.6.5-2.3c.4-.7.9-1.2 1.5-1.6c.6-.4 1.3-.6 2.1-.6c.8 0 1.5.2 2.1.6c.7.4 1.1.9 1.5 1.6c.3.7.5 1.4.5 2.3v.3c0 .9-.2 1.6-.5 2.3c-.4.7-.8 1.2-1.5 1.6c-.6.4-1.3.5-2.1.5c-.8 0-1.5-.1-2.1-.5c-.6-.4-1.1-.9-1.5-1.6c-.3-.7-.5-1.4-.5-2.3v-.3zm1.5.3c0 1 .2 1.8.7 2.4c.5.6 1.1.9 1.9.9c.8 0 1.5-.3 1.9-.9c.5-.6.8-1.4.8-2.4v-.3c0-1-.3-1.8-.8-2.4c-.4-.6-1.1-1-1.9-1c-.8 0-1.4.4-1.9 1c-.5.6-.7 1.4-.7 2.4v.3zm7.8 4.2v-8.7h1.2s.12 1.55.1 1.6c.4-.6.8-1 1.2-1.4c.5-.3 1.1-.5 1.7-.5c.6 0 1.1.2 1.6.5c.4.4.7.8.8 1.4c.4-.5.8-1 1.3-1.4c.5-.3 1.1-.5 1.7-.5c.8 0 1.4.3 1.9.8c.5.5.7 1.3.7 2.3v5.9h-1.4v-5.8c0-.7-.1-1.2-.3-1.6c-.3-.3-.7-.5-1.2-.5c-.3 0-.6.2-1 .4c-.4.2-.7.5-.9.8c-.3.4-.5.8-.6 1.2c-.02-.02 0 5.5 0 5.5h-1.4s-.03-5.85 0-5.9c0-.6-.1-1.1-.4-1.5c-.2-.3-.6-.5-1.1-.5c-.3 0-.7.2-1 .4c-.3.2-.7.5-.9.8c-.3.4-.5.8-.6 1.2c-.03-.02 0 5.5 0 5.5h-1.4zm13.1-4.6c0-.8.1-1.6.5-2.2c.3-.7.8-1.2 1.3-1.6c.6-.4 1.3-.6 2.1-.6c1.2 0 2.1.4 2.7 1.2c.7.8 1 1.9 1 3.3c.05.02 0 .6 0 .6h-6.2c0 .9.3 1.6.8 2.2c.4.5 1.1.8 1.9.8c1.2 0 2.2-.4 3.1-1.3v1.4c-.4.3-.9.6-1.4.8c-.4.2-1 .2-1.7.2c-.9 0-1.6-.1-2.2-.5c-.7-.4-1.1-.9-1.4-1.6c-.4-.7-.5-1.4-.5-2.3v-.4zm6.2-.4c0-.9-.2-1.7-.6-2.1c-.4-.5-1-.8-1.7-.8c-.4 0-.9.2-1.2.4c-.4.2-.7.6-.9 1c-.2.4-.4.9-.4 1.5h4.8zm13.2 5h-7.1v-12.2h1.5v11h5.6v1.2zm2.3-10.2h-1.4v-1.7h1.4v1.7zm0 10.2h-1.4v-8.7h1.4v8.7zm1-4.6c0-.9.2-1.6.5-2.3c.3-.7.8-1.2 1.3-1.5c.6-.4 1.3-.6 2-.6c.6 0 1.1.2 1.6.5c.5.2.9.6 1.2 1.1l.1-1.3h1.3v8.4c0 .8-.2 1.5-.5 2.1c-.4.6-.9 1.1-1.5 1.4c-.7.3-1.5.5-2.3.5c-.6 0-1.2-.1-1.6-.2c-.5-.1-.9-.3-1.3-.6V198c.8.7 1.8 1 2.9 1c.9 0 1.6-.2 2.1-.7c.5-.5.8-1.2.8-2.1v-1.4c-.3.5-.7.8-1.2 1.1c-.5.3-1 .4-1.6.4c-.7 0-1.4-.2-2-.5c-.5-.4-1-.9-1.3-1.6c-.3-.6-.5-1.4-.5-2.3zm1.5 0c0 .7.1 1.3.3 1.8c.3.4.6.8 1 1.1c.4.2.8.4 1.3.4c.5 0 1-.2 1.4-.6c.5-.4.9-.9 1.1-1.4v-2.5c-.2-.6-.6-1.1-1.1-1.5c-.4-.4-.9-.6-1.5-.6c-.4 0-.9.2-1.3.4c-.3.3-.6.7-.9 1.2c-.2.5-.3 1-.3 1.7zm8.1 4.6v-12.3h1.5s-.04 5.3 0 5.3c.3-.5.7-1 1.2-1.4c.6-.4 1.2-.6 1.8-.6c1 0 1.7.3 2.2.9c.5.5.7 1.3.7 2.4v5.7h-1.4v-5.6c0-.8-.1-1.3-.4-1.7c-.2-.3-.7-.5-1.3-.5c-.4 0-.8.1-1.2.3c-.4.3-.7.6-1 1c-.3.4-.5.8-.6 1.3c-.04 0 0 5.2 0 5.2h-1.5zm9.8-7.6h-2v-1.1h2v-2.7h1.4v2.7h1.9v1.1h-1.9v7.6h-1.4v-7.6zm4.2 9.6h-1.1l.7-4.1h1.9l-1.5 4.1z" stroke="none" fill="#fff"/></g><g id="Polygon3303"><path d="m.7 164c0-.9.2-1.6.5-2.3c.4-.7.9-1.2 1.6-1.6c.6-.4 1.3-.6 2.2-.6c.5 0 .9.1 1.4.3c.4.2.8.4 1.1.7v1.5c-.3-.4-.7-.8-1.1-1c-.5-.2-.9-.3-1.4-.3c-.6 0-1 .1-1.5.4c-.4.3-.7.6-1 1.1c-.2.5-.3 1.1-.3 1.8v.2c0 .7.1 1.3.3 1.8c.3.5.6.9 1.1 1.2c.4.3.8.4 1.4.4c1 0 1.8-.4 2.5-1.3v1.5c-.3.3-.7.5-1.1.7c-.5.2-1 .2-1.5.2c-.8 0-1.5-.2-2.1-.5c-.7-.4-1.2-1-1.6-1.6c-.3-.7-.5-1.5-.5-2.3v-.3zm7.8 1.5c0 1.1.2 1.9.7 2.4c.5.6 1.2.8 2.1.8c.7 0 1.3-.2 1.9-.5c.5-.4.9-.9 1.3-1.5c-.04.04.1 1.8.1 1.8h1.3v-8.7h-1.5s.05 5.12 0 5.1c-.1.5-.3.9-.6 1.3c-.3.5-.6.8-1 1c-.4.3-.8.4-1.2.4c-.6 0-1.1-.2-1.3-.6c-.3-.3-.4-.9-.4-1.6v-5.6H8.5v5.7zm9 3v-12.3h1.4s.03 4.86 0 4.9c.3-.5.8-.9 1.3-1.1c.4-.3 1-.5 1.5-.5c.8 0 1.4.2 2 .6c.6.4 1 .9 1.4 1.6c.3.7.5 1.5.5 2.4c0 .9-.2 1.8-.5 2.5c-.4.7-.8 1.2-1.4 1.6c-.6.4-1.2.5-2 .5c-.5 0-1.1-.1-1.6-.4c-.5-.3-.9-.7-1.2-1.2c.01.04-.1 1.4-.1 1.4h-1.3zm1.4-2.9c.3.5.6 1 1.1 1.4c.5.4 1 .6 1.5.6c.5 0 .9-.1 1.3-.4c.4-.3.7-.7 1-1.2c.2-.5.3-1.2.3-1.9c0-.7-.1-1.3-.3-1.8c-.3-.5-.6-.9-1-1.2c-.4-.3-.8-.5-1.3-.5c-.5 0-1 .2-1.5.6c-.5.4-.8.9-1.1 1.5v2.9zm7.2-1.7c0-.8.2-1.6.5-2.2c.4-.7.8-1.2 1.4-1.6c.6-.4 1.3-.6 2-.6c1.2 0 2.1.4 2.8 1.2c.7.8 1 1.9 1 3.3v.6h-6.3c.1.9.4 1.6.8 2.2c.5.5 1.1.8 1.9.8c1.3 0 2.3-.4 3.1-1.3v1.4c-.4.3-.8.6-1.3.8c-.5.2-1.1.2-1.8.2c-.8 0-1.6-.1-2.2-.5c-.6-.4-1.1-.9-1.4-1.6c-.3-.7-.5-1.4-.5-2.3v-.4zm6.3-.4c0-.9-.2-1.7-.7-2.1c-.4-.5-.9-.8-1.6-.8c-.5 0-.9.2-1.3.4c-.3.2-.6.6-.9 1c-.2.4-.3.9-.3 1.5h4.8zm6 5v-12.3h1.4v5.3c.3-.5.7-1 1.3-1.4c.5-.4 1.1-.6 1.8-.6c.9 0 1.6.3 2.1.9c.5.5.7 1.3.7 2.4c.04-.04 0 5.7 0 5.7h-1.4s.04-5.63 0-5.6c0-.8-.1-1.3-.3-1.7c-.3-.3-.7-.5-1.3-.5c-.4 0-.8.1-1.2.3c-.4.3-.8.6-1.1 1c-.3.4-.5.8-.6 1.3v5.2h-1.4zm8.2-4.6c0-.8.2-1.6.5-2.2c.3-.7.8-1.2 1.4-1.6c.6-.4 1.3-.6 2-.6c1.2 0 2.1.4 2.8 1.2c.7.8 1 1.9 1 3.3v.6H48c.1.9.3 1.6.8 2.2c.5.5 1.1.8 1.9.8c1.2 0 2.3-.4 3.1-1.3v1.4c-.4.3-.8.6-1.3.8c-.5.2-1.1.2-1.8.2c-.8 0-1.6-.1-2.2-.5c-.6-.4-1.1-.9-1.4-1.6c-.3-.7-.5-1.4-.5-2.3v-.4zm6.3-.4c0-.9-.2-1.7-.7-2.1c-.4-.5-1-.8-1.7-.8c-.4 0-.8.2-1.2.4c-.3.2-.6.6-.9 1c-.2.4-.3.9-.4 1.5h4.9zm1.8 2.7c0-.6.2-1.1.5-1.5c.3-.4.6-.6 1.1-.9c.5-.2 1.2-.3 2.1-.5l2.2-.4c0-.7-.2-1.3-.6-1.7c-.4-.4-1-.6-1.7-.6c-.6 0-1.1.2-1.6.4c-.5.3-.9.6-1.3 1v-1.4c.4-.3.8-.5 1.3-.8c.5-.2 1.1-.3 1.7-.3c1.1 0 2 .3 2.6.9c.7.5 1 1.4 1 2.5c-.02-.03 0 5.6 0 5.6h-1.1s-.28-1.34-.3-1.3c-.4.5-.9.9-1.4 1.1c-.6.3-1.2.4-1.8.4c-.8 0-1.5-.2-2-.6c-.4-.5-.7-1.1-.7-1.9zm1.4-.1c0 .5.2.9.5 1.1c.2.3.6.4 1.1.4c.5 0 1.1-.2 1.6-.5c.6-.4 1-.8 1.3-1.4c-.01-.03 0-1.7 0-1.7c0 0-1.46.26-1.5.3c-.8.1-1.4.2-1.8.4c-.4.1-.7.3-.9.5c-.2.3-.3.6-.3.9zm6.8-2c0-.9.2-1.7.5-2.4c.3-.7.8-1.2 1.4-1.6c.6-.4 1.2-.6 2-.6c.5 0 1 .2 1.5.5c.5.2.9.6 1.3 1.1c-.05-.04 0-4.9 0-4.9h1.4v12.3h-1.3s-.13-1.36-.1-1.4c-.3.5-.7.9-1.2 1.2c-.5.3-1.1.4-1.6.4c-.8 0-1.4-.1-2-.5c-.6-.4-1.1-.9-1.4-1.6c-.3-.7-.5-1.6-.5-2.5zm1.5 0c0 .7.1 1.4.3 1.9c.2.5.6.9.9 1.2c.4.3.9.4 1.4.4c.5 0 1-.2 1.5-.6c.5-.4.8-.9 1.1-1.4v-2.9c-.3-.6-.6-1.1-1.1-1.5c-.5-.4-1-.6-1.5-.6c-.5 0-.9.2-1.3.5c-.4.3-.7.7-1 1.2c-.2.5-.3 1.1-.3 1.8zm9.6 4.4h-1.4v-12.3h1.4v12.3zm1.1-2.3c0-.6.1-1.1.5-1.5c.2-.4.6-.6 1.1-.9c.5-.2 1.2-.3 2.1-.5l2.1-.4c0-.7-.2-1.3-.6-1.7c-.3-.4-.9-.6-1.7-.6c-.5 0-1.1.2-1.6.4c-.5.3-.9.6-1.2 1v-1.4c.3-.3.7-.5 1.2-.8c.6-.2 1.1-.3 1.8-.3c1.1 0 1.9.3 2.6.9c.6.5.9 1.4.9 2.5c.04-.03 0 5.6 0 5.6h-1.1s-.22-1.34-.2-1.3c-.4.5-.9.9-1.5 1.1c-.5.3-1.1.4-1.8.4c-.8 0-1.4-.2-1.9-.6c-.5-.5-.7-1.1-.7-1.9zm1.4-.1c0 .5.1.9.4 1.1c.3.3.7.4 1.1.4c.6 0 1.1-.2 1.7-.5c.5-.4.9-.8 1.2-1.4c.04-.03 0-1.7 0-1.7c0 0-1.41.26-1.4.3c-.8.1-1.4.2-1.8.4c-.4.1-.7.3-.9.5c-.2.3-.3.6-.3.9zm7.4 2.4v-8.7h1.3s.05 1.55 0 1.6c.4-.6.8-1 1.3-1.4c.4-.3 1-.5 1.6-.5c.6 0 1.2.2 1.6.5c.4.4.7.8.8 1.4c.4-.5.8-1 1.3-1.4c.5-.3 1.1-.5 1.7-.5c.8 0 1.5.3 1.9.8c.5.5.7 1.3.7 2.3c.03-.03 0 5.9 0 5.9h-1.4s.02-5.82 0-5.8c0-.7-.1-1.2-.3-1.6c-.3-.3-.6-.5-1.2-.5c-.3 0-.6.2-1 .4c-.3.2-.6.5-.9.8c-.3.4-.5.8-.6 1.2v5.5h-1.4v-5.9c0-.6-.1-1.1-.3-1.5c-.3-.3-.7-.5-1.2-.5c-.3 0-.6.2-1 .4c-.3.2-.6.5-.9.8c-.3.4-.5.8-.6 1.2v5.5h-1.4zm13.7 3.5v-12.2h1.3s.12 1.38.1 1.4c.3-.5.7-.9 1.2-1.2c.5-.3 1.1-.5 1.7-.5c.7 0 1.3.2 1.9.6c.6.4 1.1.9 1.4 1.6c.3.7.5 1.5.5 2.4c0 .9-.2 1.8-.5 2.5c-.3.7-.8 1.2-1.4 1.6c-.6.4-1.2.5-1.9.5c-.6 0-1.1-.1-1.6-.4c-.5-.3-.9-.6-1.3-1.1c.04-.01 0 4.8 0 4.8h-1.4zm1.4-6.5c.3.6.6 1.1 1.1 1.5c.5.4 1 .6 1.5.6c.5 0 .9-.1 1.3-.4c.4-.3.7-.7 1-1.2c.2-.6.3-1.2.3-1.9c0-.7-.1-1.3-.3-1.8c-.2-.5-.5-.9-.9-1.2c-.4-.3-.9-.5-1.4-.5c-.5 0-1 .2-1.5.6c-.5.4-.8.9-1.1 1.5v2.8zm7.4.8c.7.9 1.6 1.3 2.8 1.3c.5 0 1-.1 1.3-.4c.4-.2.5-.5.5-.9c0-.3 0-.6-.2-.8c-.2-.2-.5-.4-1-.6l-1.2-.5c-.7-.3-1.3-.7-1.6-1.1c-.4-.4-.5-.8-.5-1.4c0-.4.1-.8.3-1.2c.2-.4.6-.6 1-.9c.5-.2 1-.3 1.6-.3c.5 0 1 .1 1.5.3c.5.2.9.4 1.2.7v1.5c-.4-.4-.8-.8-1.3-1c-.4-.2-.9-.3-1.4-.3c-.5 0-.9.1-1.2.3c-.2.2-.3.5-.3.8c0 .3.1.5.3.7c.2.2.5.4 1 .6l1.2.5c.7.3 1.2.6 1.6 1c.3.5.4 1 .4 1.6c0 .8-.3 1.4-.9 1.8c-.6.5-1.4.7-2.3.7c-.6 0-1.2 0-1.7-.2c-.4-.2-.8-.4-1.1-.7v-1.5zm7.5 4.2h-1.2l.7-4.1h1.9l-1.4 4.1zm5.1-9.6v-1.1h1.8s-.03-.9 0-.9c0-.5.1-1 .3-1.5c.2-.4.5-.8.9-1.1c.4-.2.9-.4 1.5-.4c.4 0 .8.1 1.1.3v1.2c-.3-.2-.6-.3-1-.3c-.4 0-.8.1-1 .5c-.3.3-.4.7-.4 1.3c-.01.02 0 .9 0 .9h2.1v1.1h-2.1v7.6h-1.4v-7.6H119zm5.3 3c0-.8.2-1.6.5-2.2c.3-.7.8-1.2 1.4-1.6c.6-.4 1.3-.6 2-.6c1.2 0 2.1.4 2.8 1.2c.7.8 1 1.9 1 3.3v.6h-6.3c.1.9.3 1.6.8 2.2c.5.5 1.1.8 1.9.8c1.2 0 2.3-.4 3.1-1.3v1.4c-.4.3-.8.6-1.3.8c-.5.2-1.1.2-1.8.2c-.8 0-1.6-.1-2.2-.5c-.6-.4-1.1-.9-1.4-1.6c-.3-.7-.5-1.4-.5-2.3v-.4zm6.3-.4c0-.9-.2-1.7-.7-2.1c-.4-.5-1-.8-1.6-.8c-.5 0-.9.2-1.3.4c-.3.2-.6.6-.9 1c-.2.4-.3.9-.4 1.5h4.9zm1.8 2.7c0-.6.2-1.1.5-1.5c.3-.4.6-.6 1.1-.9c.5-.2 1.2-.3 2.1-.5l2.2-.4c0-.7-.2-1.3-.6-1.7c-.4-.4-1-.6-1.7-.6c-.6 0-1.1.2-1.6.4c-.5.3-.9.6-1.3 1v-1.4c.4-.3.8-.5 1.3-.8c.5-.2 1.1-.3 1.7-.3c1.1 0 2 .3 2.6.9c.7.5 1 1.4 1 2.5v5.6h-1.1s-.27-1.34-.3-1.3c-.4.5-.8.9-1.4 1.1c-.5.3-1.1.4-1.8.4c-.8 0-1.5-.2-1.9-.6c-.5-.5-.8-1.1-.8-1.9zm1.5-.1c0 .5.1.9.4 1.1c.2.3.6.4 1.1.4c.5 0 1.1-.2 1.6-.5c.6-.4 1-.8 1.3-1.4V164s-1.45.26-1.5.3c-.8.1-1.4.2-1.8.4c-.4.1-.7.3-.9.5c-.1.3-.2.6-.2.9zm8.2-5.2h-1.9v-1.1h1.9v-2.7h1.4v2.7h1.9v1.1h-1.9v7.6h-1.4v-7.6zm3.8 4.6c0 1.1.2 1.9.7 2.4c.5.6 1.2.8 2.1.8c.7 0 1.3-.2 1.9-.5c.5-.4.9-.9 1.2-1.5c.04.04.2 1.8.2 1.8h1.2v-8.7h-1.4s.02 5.12 0 5.1c-.1.5-.3.9-.6 1.3c-.3.5-.6.8-1 1c-.4.3-.9.4-1.3.4c-.6 0-1-.2-1.2-.6c-.3-.3-.4-.9-.4-1.6c-.02 0 0-5.6 0-5.6h-1.4s-.03 5.71 0 5.7zm9 3v-8.7h1.3s.07 1.49.1 1.5c.2-.6.6-1 1-1.3c.4-.3 1-.5 1.6-.5c.1 0 .3 0 .4.1h.4v1.3c-.2-.1-.5-.1-.9-.1c-.6 0-1.1.1-1.5.5c-.5.4-.8.9-1 1.5v5.7h-1.4zm6.8-10.2h-1.4v-1.7h1.4v1.7zm0 10.2h-1.4v-8.7h1.4v8.7zm1.7 0v-8.7h1.2s.15 1.73.2 1.7c.3-.5.7-1 1.2-1.4c.6-.4 1.2-.6 1.9-.6c.9 0 1.6.3 2.1.9c.5.5.7 1.3.7 2.4c.03-.04 0 5.7 0 5.7h-1.4v-5.6c0-.8-.1-1.3-.4-1.7c-.2-.3-.7-.5-1.3-.5c-.3 0-.7.1-1.1.3c-.4.3-.8.6-1.1 1c-.3.5-.5.9-.6 1.4c-.03-.05 0 5.1 0 5.1h-1.4zm8.2-4.6c0-.9.2-1.6.5-2.3c.3-.7.7-1.2 1.3-1.5c.6-.4 1.3-.6 2-.6c.6 0 1.1.2 1.6.5c.5.2.9.6 1.2 1.1c-.03 0 .1-1.3.1-1.3h1.3s-.03 8.38 0 8.4c0 .8-.2 1.5-.5 2.1c-.4.6-.9 1.1-1.5 1.4c-.7.3-1.5.5-2.4.5c-.6 0-1.1-.1-1.5-.2c-.5-.1-.9-.3-1.3-.6V170c.8.7 1.8 1 2.8 1c.9 0 1.6-.2 2.2-.7c.5-.5.8-1.2.8-2.1v-1.4c-.4.5-.7.8-1.2 1.1c-.5.3-1 .4-1.6.4c-.7 0-1.4-.2-2-.5c-.6-.4-1-.9-1.3-1.6c-.3-.6-.5-1.4-.5-2.3zm1.5 0c0 .7.1 1.3.3 1.8c.2.4.6.8.9 1.1c.4.2.9.4 1.3.4c.6 0 1.1-.2 1.5-.6c.5-.4.8-.9 1.1-1.4v-2.5c-.3-.6-.6-1.1-1.1-1.5c-.5-.4-1-.6-1.5-.6c-.5 0-.9.2-1.3.4c-.4.3-.7.7-.9 1.2c-.2.5-.3 1-.3 1.7z" stroke="none" fill="#fff"/></g><g id="Polygon3302"><path d="m1.3 144v-12.2h1.3l.1 1.4c.3-.5.7-.9 1.2-1.2c.5-.3 1-.5 1.6-.5c.8 0 1.4.2 2 .6c.6.4 1 .9 1.4 1.6c.3.7.5 1.5.5 2.4c0 .9-.2 1.8-.5 2.5c-.4.7-.8 1.2-1.4 1.6c-.6.4-1.2.5-2 .5c-.5 0-1.1-.1-1.6-.4c-.5-.3-.9-.6-1.2-1.1c.02-.01 0 4.8 0 4.8H1.3zm1.4-6.5c.2.6.6 1.1 1.1 1.5c.4.4 1 .6 1.5.6c.5 0 .9-.1 1.3-.4c.4-.3.7-.7 1-1.2c.2-.6.3-1.2.3-1.9c0-.7-.1-1.3-.3-1.8c-.3-.5-.6-.9-1-1.2c-.4-.3-.8-.5-1.3-.5c-.5 0-1.1.2-1.5.6c-.5.4-.9.9-1.1 1.5v2.8zm7.1.7c0-.6.2-1.1.5-1.5c.2-.4.6-.6 1.1-.9c.5-.2 1.2-.3 2.1-.5l2.1-.4c0-.7-.2-1.3-.5-1.7c-.4-.4-1-.6-1.8-.6c-.5 0-1.1.2-1.5.4c-.5.3-1 .6-1.3 1v-1.4c.3-.3.8-.5 1.3-.8c.5-.2 1.1-.3 1.7-.3c1.1 0 2 .3 2.6.9c.6.5 1 1.4 1 2.5c-.04-.03 0 5.6 0 5.6H16l-.3-1.3c-.4.5-.9.9-1.4 1.1c-.6.3-1.2.4-1.8.4c-.8 0-1.5-.2-2-.6c-.5-.5-.7-1.1-.7-1.9zm1.4-.1c0 .5.2.9.4 1.1c.3.3.7.4 1.1.4c.6 0 1.1-.2 1.7-.5c.5-.4 1-.8 1.3-1.4c-.04-.03 0-1.7 0-1.7c0 0-1.49.26-1.5.3c-.8.1-1.4.2-1.8.4c-.4.1-.7.3-.9.5c-.2.3-.3.6-.3.9zm8.3-5.2h-2v-1.1h2v-2.7h1.4v2.7h1.9v1.1h-1.9v7.6h-1.4v-7.6zm5.1 0h-2v-1.1h2v-2.7h1.4v2.7h1.9v1.1H26v7.6h-1.4v-7.6zm3.3 3c0-.8.1-1.6.5-2.2c.3-.7.7-1.2 1.3-1.6c.6-.4 1.3-.6 2.1-.6c1.1 0 2.1.4 2.7 1.2c.7.8 1 1.9 1 3.3c.04.02 0 .6 0 .6h-6.2c0 .9.3 1.6.7 2.2c.5.5 1.2.8 2 .8c1.2 0 2.2-.4 3-1.3v1.4c-.3.3-.8.6-1.3.8c-.5.2-1.1.2-1.7.2c-.9 0-1.6-.1-2.2-.5c-.7-.4-1.1-.9-1.5-1.6c-.3-.7-.4-1.4-.4-2.3v-.4zm6.2-.4c0-.9-.2-1.7-.6-2.1c-.5-.5-1-.8-1.7-.8c-.5 0-.9.2-1.2.4c-.4.2-.7.6-.9 1c-.3.4-.4.9-.4 1.5h4.8zm2.5 5v-8.7h1.3s.07 1.49.1 1.5c.2-.6.6-1 1-1.3c.4-.3 1-.5 1.6-.5c.1 0 .3 0 .4.1h.4v1.3c-.2-.1-.5-.1-.9-.1c-.6 0-1.1.1-1.5.5c-.5.4-.8.9-1 1.5v5.7h-1.4zm5.4 0v-8.7h1.3s.08 1.73.1 1.7c.3-.5.7-1 1.3-1.4c.5-.4 1.1-.6 1.8-.6c.9 0 1.6.3 2.1.9c.5.5.8 1.3.8 2.4c-.04-.04 0 5.7 0 5.7h-1.5s.04-5.63 0-5.6c0-.8-.1-1.3-.3-1.7c-.3-.3-.7-.5-1.3-.5c-.4 0-.8.1-1.2.3c-.4.3-.8.6-1.1 1c-.3.5-.5.9-.6 1.4v5.1H42zm13.8 0h-1.4v-12.3h1.4v12.3zm3-10.2h-1.4v-1.7h1.4v1.7zm0 10.2h-1.4v-8.7h1.4v8.7zm1.1-4.6c0-.9.1-1.6.5-2.3c.3-.7.7-1.2 1.3-1.5c.6-.4 1.2-.6 2-.6c.6 0 1.1.2 1.6.5c.5.2.9.6 1.2 1.1c-.04 0 .1-1.3.1-1.3h1.3s-.04 8.38 0 8.4c0 .8-.2 1.5-.6 2.1c-.3.6-.8 1.1-1.5 1.4c-.6.3-1.4.5-2.3.5c-.6 0-1.1-.1-1.5-.2c-.5-.1-.9-.3-1.3-.6V142c.8.7 1.8 1 2.8 1c.9 0 1.6-.2 2.2-.7c.5-.5.7-1.2.7-2.1v-1.4c-.3.5-.7.8-1.1 1.1c-.5.3-1.1.4-1.6.4c-.8 0-1.4-.2-2-.5c-.6-.4-1-.9-1.3-1.6c-.4-.6-.5-1.4-.5-2.3zm1.5 0c0 .7.1 1.3.3 1.8c.2.4.5.8.9 1.1c.4.2.8.4 1.3.4c.6 0 1.1-.2 1.5-.6c.5-.4.8-.9 1-1.4v-2.5c-.2-.6-.5-1.1-1-1.5c-.5-.4-1-.6-1.5-.6c-.5 0-.9.2-1.3.4c-.4.3-.7.7-.9 1.2c-.2.5-.3 1-.3 1.7zm8.1 4.6v-12.3h1.4s.03 5.3 0 5.3c.3-.5.8-1 1.3-1.4c.6-.4 1.2-.6 1.8-.6c.9 0 1.7.3 2.1.9c.5.5.8 1.3.8 2.4c-.02-.04 0 5.7 0 5.7h-1.4s-.03-5.63 0-5.6c0-.8-.2-1.3-.4-1.7c-.3-.3-.7-.5-1.3-.5c-.4 0-.8.1-1.2.3c-.4.3-.7.6-1 1c-.3.4-.6.8-.7 1.3c.03 0 0 5.2 0 5.2h-1.4zm9.7-7.6h-1.9v-1.1h1.9v-2.7h1.4v2.7h2v1.1h-2v7.6h-1.4v-7.6zm5.4-2.6h-1.4v-1.7h1.4v1.7zm0 10.2h-1.4v-8.7h1.4v8.7zm1.6 0v-8.7h1.3s.13 1.73.1 1.7c.4-.5.8-1 1.3-1.4c.6-.4 1.2-.6 1.9-.6c.9 0 1.6.3 2.1.9c.5.5.7 1.3.7 2.4v5.7h-1.4v-5.6c0-.8-.1-1.3-.4-1.7c-.2-.3-.7-.5-1.3-.5c-.4 0-.8.1-1.2.3c-.4.3-.7.6-1 1c-.3.5-.5.9-.7 1.4c.05-.05 0 5.1 0 5.1h-1.4zm8.3-4.6c0-.9.1-1.6.5-2.3c.3-.7.7-1.2 1.3-1.5c.6-.4 1.2-.6 2-.6c.6 0 1.1.2 1.6.5c.4.2.8.6 1.2 1.1c-.05 0 .1-1.3.1-1.3h1.2s.05 8.38 0 8.4c0 .8-.1 1.5-.5 2.1c-.3.6-.8 1.1-1.5 1.4c-.6.3-1.4.5-2.3.5c-.6 0-1.1-.1-1.5-.2c-.5-.1-.9-.3-1.3-.6V142c.8.7 1.7 1 2.8 1c.9 0 1.6-.2 2.1-.7c.6-.5.8-1.2.8-2.1v-1.4c-.3.5-.7.8-1.2 1.1c-.4.3-1 .4-1.5.4c-.8 0-1.4-.2-2-.5c-.6-.4-1-.9-1.3-1.6c-.4-.6-.5-1.4-.5-2.3zm1.5 0c0 .7.1 1.3.3 1.8c.2.4.5.8.9 1.1c.4.2.8.4 1.3.4c.5 0 1-.2 1.5-.6c.5-.4.8-.9 1-1.4v-2.5c-.2-.6-.5-1.1-1-1.5c-.5-.4-1-.6-1.5-.6c-.5 0-.9.2-1.3.4c-.4.3-.7.7-.9 1.2c-.2.5-.3 1-.3 1.7zm9.7 4.6h-1.9v-2.1h1.9v2.1zm7.8-10.9h-3.8v-1.3h9v1.3H115v10.9h-1.5v-10.9zm6.1 10.9v-12.3h1.4s-.04 5.3 0 5.3c.3-.5.7-1 1.2-1.4c.6-.4 1.2-.6 1.8-.6c1 0 1.7.3 2.2.9c.5.5.7 1.3.7 2.4v5.7h-1.4v-5.6c0-.8-.1-1.3-.4-1.7c-.2-.3-.7-.5-1.3-.5c-.4 0-.8.1-1.2.3c-.4.3-.7.6-1 1c-.3.4-.5.8-.6 1.3c-.04 0 0 5.2 0 5.2h-1.4zm8.2-4.6c0-.8.1-1.6.5-2.2c.3-.7.8-1.2 1.4-1.6c.5-.4 1.2-.6 2-.6c1.2 0 2.1.4 2.8 1.2c.6.8 1 1.9 1 3.3c-.05.02 0 .6 0 .6h-6.3c0 .9.3 1.6.8 2.2c.4.5 1.1.8 1.9.8c1.2 0 2.2-.4 3.1-1.3v1.4c-.4.3-.8.6-1.3.8c-.5.2-1.1.2-1.8.2c-.9 0-1.6-.1-2.2-.5c-.6-.4-1.1-.9-1.4-1.6c-.4-.7-.5-1.4-.5-2.3v-.4zm6.2-.4c0-.9-.2-1.7-.6-2.1c-.4-.5-1-.8-1.7-.8c-.4 0-.8.2-1.2.4c-.4.2-.7.6-.9 1c-.2.4-.4.9-.4 1.5h4.8zm5.7 2.8c.7.9 1.6 1.3 2.7 1.3c.6 0 1.1-.1 1.4-.4c.4-.2.5-.5.5-.9c0-.3-.1-.6-.2-.8c-.2-.2-.5-.4-1-.6l-1.2-.5c-.7-.3-1.3-.7-1.6-1.1c-.4-.4-.5-.8-.5-1.4c0-.4.1-.8.3-1.2c.2-.4.6-.6 1-.9c.5-.2 1-.3 1.6-.3c.5 0 1 .1 1.5.3c.5.2.9.4 1.2.7v1.5c-.4-.4-.8-.8-1.3-1c-.4-.2-.9-.3-1.4-.3c-.5 0-.9.1-1.2.3c-.2.2-.4.5-.4.8c0 .3.2.5.4.7c.2.2.5.4 1 .6l1.2.5c.7.3 1.2.6 1.5 1c.4.5.5 1 .5 1.6c0 .8-.3 1.4-.9 1.8c-.6.5-1.4.7-2.4.7c-.6 0-1.1 0-1.6-.2c-.4-.2-.8-.4-1.1-.7v-1.5zm7.1 2.2v-8.7h1.3s.06 1.55.1 1.6c.3-.6.7-1 1.2-1.4c.4-.3 1-.5 1.6-.5c.6 0 1.2.2 1.6.5c.4.4.7.8.9 1.4c.3-.5.7-1 1.2-1.4c.5-.3 1.1-.5 1.7-.5c.8 0 1.5.3 1.9.8c.5.5.7 1.3.7 2.3c.04-.03 0 5.9 0 5.9h-1.4s.03-5.82 0-5.8c0-.7-.1-1.2-.3-1.6c-.2-.3-.6-.5-1.1-.5c-.4 0-.7.2-1.1.4c-.3.2-.6.5-.9.8c-.3.4-.5.8-.6 1.2v5.5h-1.4v-5.9c0-.6-.1-1.1-.3-1.5c-.3-.3-.6-.5-1.2-.5c-.3 0-.6.2-1 .4c-.3.2-.6.5-.9.8c-.3.4-.5.8-.6 1.2v5.5h-1.4zm13.1-2.3c0-.6.2-1.1.5-1.5c.3-.4.6-.6 1.1-.9c.5-.2 1.2-.3 2.1-.5l2.2-.4c0-.7-.2-1.3-.6-1.7c-.4-.4-1-.6-1.7-.6c-.6 0-1.1.2-1.6.4c-.5.3-.9.6-1.3 1v-1.4c.4-.3.8-.5 1.3-.8c.5-.2 1.1-.3 1.7-.3c1.1 0 2 .3 2.6.9c.7.5 1 1.4 1 2.5c-.02-.03 0 5.6 0 5.6h-1.1s-.28-1.34-.3-1.3c-.4.5-.9.9-1.4 1.1c-.6.3-1.2.4-1.8.4c-.8 0-1.5-.2-2-.6c-.4-.5-.7-1.1-.7-1.9zm1.4-.1c0 .5.2.9.5 1.1c.2.3.6.4 1.1.4c.5 0 1.1-.2 1.6-.5c.6-.4 1-.8 1.3-1.4c-.01-.03 0-1.7 0-1.7c0 0-1.47.26-1.5.3c-.8.1-1.4.2-1.8.4c-.4.1-.7.3-.9.5c-.2.3-.3.6-.3.9zm8.8 2.4h-1.4v-12.3h1.4v12.3zm3.1 0h-1.4v-12.3h1.4v12.3z" stroke="none" fill="#fff"/></g><g id="Polygon3301"><path d="m2.7 102.3H1.3v-1.7h1.4v1.7zm0 10.2H1.3v-8.7h1.4v8.7zm1.7 0v-8.7h1.2s.14 1.55.1 1.6c.4-.6.8-1 1.3-1.4c.4-.3 1-.5 1.6-.5c.6 0 1.1.2 1.6.5c.4.4.7.8.8 1.4c.4-.5.8-1 1.3-1.4c.5-.3 1.1-.5 1.7-.5c.8 0 1.5.3 1.9.8c.5.5.7 1.3.7 2.3c.02-.03 0 5.9 0 5.9h-1.4s.02-5.82 0-5.8c0-.7-.1-1.2-.3-1.6c-.3-.3-.6-.5-1.2-.5c-.3 0-.6.2-1 .4c-.3.2-.6.5-.9.8c-.3.4-.5.8-.6 1.2v5.5H9.8v-5.9c0-.6-.1-1.1-.4-1.5c-.2-.3-.6-.5-1.1-.5c-.3 0-.6.2-1 .4c-.3.2-.6.5-.9.8c-.3.4-.5.8-.6 1.2v5.5H4.4zm13.1-2.3c0-.6.2-1.1.5-1.5c.2-.4.6-.6 1.1-.9c.5-.2 1.2-.3 2.1-.5l2.2-.4c-.1-.7-.3-1.3-.6-1.7c-.4-.4-1-.6-1.8-.6c-.5 0-1 .2-1.5.4c-.5.3-1 .6-1.3 1v-1.4c.3-.3.8-.5 1.3-.8c.5-.2 1.1-.3 1.7-.3c1.1 0 2 .3 2.6.9c.6.5 1 1.4 1 2.5c-.03-.03 0 5.6 0 5.6h-1.1s-.29-1.34-.3-1.3c-.4.5-.9.9-1.4 1.1c-.6.3-1.2.4-1.8.4c-.8 0-1.5-.2-2-.6c-.5-.5-.7-1.1-.7-1.9zm1.4-.1c0 .5.2.9.4 1.1c.3.3.7.4 1.1.4c.6 0 1.1-.2 1.7-.5c.5-.4 1-.8 1.3-1.4c-.02-.03 0-1.7 0-1.7c0 0-1.48.26-1.5.3c-.8.1-1.4.2-1.8.4c-.4.1-.7.3-.9.5c-.2.3-.3.6-.3.9zm6.8-2.2c0-.9.2-1.6.5-2.3c.3-.7.7-1.2 1.3-1.5c.6-.4 1.3-.6 2-.6c.6 0 1.1.2 1.6.5c.5.2.9.6 1.2 1.1c-.03 0 .1-1.3.1-1.3h1.3s-.04 8.38 0 8.4c0 .8-.2 1.5-.5 2.1c-.4.6-.9 1.1-1.5 1.4c-.7.3-1.5.5-2.4.5c-.6 0-1.1-.1-1.5-.2c-.5-.1-.9-.3-1.3-.6V114c.8.7 1.8 1 2.8 1c.9 0 1.6-.2 2.2-.7c.5-.5.8-1.2.8-2.1v-1.4c-.4.5-.8.8-1.2 1.1c-.5.3-1 .4-1.6.4c-.7 0-1.4-.2-2-.5c-.6-.4-1-.9-1.3-1.6c-.3-.6-.5-1.4-.5-2.3zm1.5 0c0 .7.1 1.3.3 1.8c.2.4.6.8.9 1.1c.4.2.9.4 1.3.4c.6 0 1.1-.2 1.5-.6c.5-.4.8-.9 1.1-1.4v-2.5c-.3-.6-.6-1.1-1.1-1.5c-.5-.4-1-.6-1.5-.6c-.5 0-.9.2-1.3.4c-.4.3-.7.7-.9 1.2c-.2.5-.3 1-.3 1.7zm7.5 0c0-.8.2-1.6.5-2.2c.3-.7.8-1.2 1.4-1.6c.6-.4 1.2-.6 2-.6c1.2 0 2.1.4 2.8 1.2c.6.8 1 1.9 1 3.3c-.03.02 0 .6 0 .6h-6.3c0 .9.3 1.6.8 2.2c.4.5 1.1.8 1.9.8c1.2 0 2.2-.4 3.1-1.3v1.4c-.4.3-.8.6-1.3.8c-.5.2-1.1.2-1.8.2c-.9 0-1.6-.1-2.2-.5c-.6-.4-1.1-.9-1.4-1.6c-.4-.7-.5-1.4-.5-2.3v-.4zm6.3-.4c-.1-.9-.3-1.7-.7-2.1c-.4-.5-1-.8-1.7-.8c-.4 0-.8.2-1.2.4c-.4.2-.7.6-.9 1c-.2.4-.4.9-.4 1.5h4.9zm7.4 5l-2.5-8.7h1.5l1.9 7.2l1.9-7.2h1.8l1.9 7.1l2-7.1h1.3l-2.5 8.7H54l-1.9-7.2l-2 7.2h-1.7zm11.9-10.2h-1.4v-1.7h1.4v1.7zm0 10.2h-1.4v-8.7h1.4v8.7zm2.5-7.6h-1.9v-1.1h1.9v-2.7h1.4v2.7h1.9v1.1h-1.9v7.6h-1.4v-7.6zm3.9 7.6v-12.3h1.4s.03 5.3 0 5.3c.3-.5.8-1 1.3-1.4c.6-.4 1.2-.6 1.8-.6c.9 0 1.7.3 2.1.9c.5.5.8 1.3.8 2.4c-.02-.04 0 5.7 0 5.7h-1.4s-.03-5.63 0-5.6c0-.8-.2-1.3-.4-1.7c-.3-.3-.7-.5-1.3-.5c-.4 0-.8.1-1.2.3c-.4.3-.7.6-1 1c-.3.4-.6.8-.7 1.3c.03 0 0 5.2 0 5.2h-1.4zm13.3-7.6h-2v-1.1h2v-2.7h1.4v2.7h1.9v1.1h-1.9v7.6H80v-7.6zm3.9 7.6v-12.3h1.4v5.3c.3-.5.7-1 1.3-1.4c.5-.4 1.1-.6 1.8-.6c.9 0 1.6.3 2.1.9c.5.5.7 1.3.7 2.4c.05-.04 0 5.7 0 5.7h-1.4s.04-5.63 0-5.6c0-.8-.1-1.3-.3-1.7c-.3-.3-.7-.5-1.3-.5c-.4 0-.8.1-1.2.3c-.4.3-.8.6-1.1 1c-.3.4-.5.8-.6 1.3v5.2h-1.4zm8.2-4.6c0-.8.2-1.6.5-2.2c.3-.7.8-1.2 1.4-1.6c.6-.4 1.3-.6 2-.6c1.2 0 2.1.4 2.8 1.2c.7.8 1 1.9 1 3.3v.6h-6.3c.1.9.3 1.6.8 2.2c.5.5 1.1.8 1.9.8c1.2 0 2.3-.4 3.1-1.3v1.4c-.4.3-.8.6-1.3.8c-.5.2-1.1.2-1.8.2c-.8 0-1.6-.1-2.2-.5c-.6-.4-1.1-.9-1.4-1.6c-.3-.7-.5-1.4-.5-2.3v-.4zm6.3-.4c0-.9-.2-1.7-.7-2.1c-.4-.5-1-.8-1.7-.8c-.4 0-.8.2-1.2.4c-.3.2-.6.6-.9 1c-.2.4-.3.9-.4 1.5h4.9zm5.8 2c0 1.1.3 1.9.7 2.4c.5.6 1.2.8 2.2.8c.6 0 1.2-.2 1.8-.5c.5-.4 1-.9 1.3-1.5c-.03.04.1 1.8.1 1.8h1.3v-8.7h-1.4s-.04 5.12 0 5.1c-.2.5-.4.9-.7 1.3c-.3.5-.6.8-1 1c-.4.3-.8.4-1.2.4c-.6 0-1-.2-1.3-.6c-.3-.3-.4-.9-.4-1.6v-5.6h-1.4v5.7zm9 3v-8.7h1.3s.12 1.73.1 1.7c.3-.5.8-1 1.3-1.4c.5-.4 1.2-.6 1.8-.6c1 0 1.7.3 2.2.9c.5.5.7 1.3.7 2.4v5.7h-1.4s-.02-5.63 0-5.6c0-.8-.1-1.3-.4-1.7c-.3-.3-.7-.5-1.3-.5c-.4 0-.8.1-1.2.3c-.4.3-.7.6-1 1c-.3.5-.5.9-.7 1.4c.04-.05 0 5.1 0 5.1h-1.4zm10.3-10.2h-1.4v-1.7h1.4v1.7zm0 10.2h-1.4v-8.7h1.4v8.7zm1-4.4c0-.9.2-1.7.5-2.4c.4-.7.8-1.2 1.4-1.6c.6-.4 1.3-.6 2-.6c.6 0 1.1.2 1.6.5c.5.3.9.7 1.2 1.2l.1-1.4h1.3V116h-1.4v-4.8c-.3.5-.7.8-1.2 1.1c-.5.3-1.1.4-1.6.4c-.7 0-1.4-.1-2-.5c-.6-.4-1-.9-1.4-1.6c-.3-.7-.5-1.6-.5-2.5zm1.5 0c0 .7.1 1.4.4 1.9c.2.5.5.9.9 1.2c.4.3.8.4 1.3.4c.6 0 1.1-.2 1.6-.6c.4-.4.8-.9 1-1.5v-2.8c-.2-.6-.6-1.1-1-1.5c-.5-.4-1-.6-1.6-.6c-.5 0-.9.2-1.3.5c-.4.3-.7.7-.9 1.2c-.3.5-.4 1.1-.4 1.8zm8.1 1.4c0 1.1.3 1.9.7 2.4c.5.6 1.2.8 2.2.8c.6 0 1.3-.2 1.8-.5c.5-.4 1-.9 1.3-1.5c-.02.04.1 1.8.1 1.8h1.3v-8.7h-1.4s-.04 5.12 0 5.1c-.2.5-.4.9-.7 1.3c-.3.5-.6.8-1 1c-.4.3-.8.4-1.2.4c-.6 0-1-.2-1.3-.6c-.3-.3-.4-.9-.4-1.6c.02 0 0-5.6 0-5.6h-1.4v5.7zm8.4-1.6c0-.8.2-1.6.5-2.2c.3-.7.8-1.2 1.4-1.6c.6-.4 1.2-.6 2-.6c1.2 0 2.1.4 2.8 1.2c.6.8 1 1.9 1 3.3c-.03.02 0 .6 0 .6h-6.3c.1.9.3 1.6.8 2.2c.5.5 1.1.8 1.9.8c1.2 0 2.2-.4 3.1-1.3v1.4c-.4.3-.8.6-1.3.8c-.5.2-1.1.2-1.8.2c-.9 0-1.6-.1-2.2-.5c-.6-.4-1.1-.9-1.4-1.6c-.3-.7-.5-1.4-.5-2.3v-.4zm6.3-.4c0-.9-.3-1.7-.7-2.1c-.4-.5-1-.8-1.7-.8c-.4 0-.8.2-1.2.4c-.4.2-.7.6-.9 1c-.2.4-.3.9-.4 1.5h4.9zm5.3.6c0-.9.2-1.7.5-2.4c.4-.7.8-1.2 1.4-1.6c.6-.4 1.2-.6 2-.6c.5 0 1 .2 1.5.5c.5.2.9.6 1.3 1.1c-.03-.04 0-4.9 0-4.9h1.4v12.3h-1.3s-.12-1.36-.1-1.4c-.3.5-.7.9-1.2 1.2c-.5.3-1.1.4-1.6.4c-.8 0-1.4-.1-2-.5c-.6-.4-1-.9-1.4-1.6c-.3-.7-.5-1.6-.5-2.5zm1.5 0c0 .7.1 1.4.3 1.9c.3.5.6.9 1 1.2c.4.3.8.4 1.3.4c.5 0 1-.2 1.5-.6c.5-.4.8-.9 1.1-1.4v-2.9c-.3-.6-.6-1.1-1.1-1.5c-.5-.4-1-.6-1.5-.6c-.5 0-.9.2-1.3.5c-.4.3-.7.7-1 1.2c-.2.5-.3 1.1-.3 1.8zm9.6-5.8h-1.4v-1.7h1.4v1.7zm0 10.2h-1.4v-8.7h1.4v8.7zm1.1-4.6c0-.9.1-1.6.5-2.3c.3-.7.7-1.2 1.3-1.5c.6-.4 1.2-.6 2-.6c.6 0 1.1.2 1.6.5c.5.2.9.6 1.2 1.1c-.04 0 .1-1.3.1-1.3h1.3s-.05 8.38 0 8.4c0 .8-.2 1.5-.6 2.1c-.3.6-.8 1.1-1.5 1.4c-.6.3-1.4.5-2.3.5c-.6 0-1.1-.1-1.5-.2c-.5-.1-.9-.3-1.3-.6V114c.8.7 1.8 1 2.8 1c.9 0 1.6-.2 2.2-.7c.5-.5.7-1.2.7-2.1v-1.4c-.3.5-.7.8-1.1 1.1c-.5.3-1.1.4-1.6.4c-.8 0-1.4-.2-2-.5c-.6-.4-1-.9-1.3-1.6c-.4-.6-.5-1.4-.5-2.3zm1.5 0c0 .7.1 1.3.3 1.8c.2.4.5.8.9 1.1c.4.2.8.4 1.3.4c.6 0 1.1-.2 1.5-.6c.5-.4.8-.9 1-1.4v-2.5c-.2-.6-.5-1.1-1-1.5c-.5-.4-1-.6-1.5-.6c-.5 0-.9.2-1.3.4c-.4.3-.7.7-.9 1.2c-.2.5-.3 1-.3 1.7zm9.5-5.6h-1.4v-1.7h1.4v1.7zm0 10.2h-1.4v-8.7h1.4v8.7zm2.5-7.6h-1.9v-1.1h1.9v-2.7h1.4v2.7h2v1.1h-2v7.6h-1.4v-7.6zm3.4 5.3c0-.6.1-1.1.4-1.5c.3-.4.7-.6 1.2-.9c.5-.2 1.2-.3 2-.5l2.2-.4c0-.7-.2-1.3-.6-1.7c-.4-.4-.9-.6-1.7-.6c-.6 0-1.1.2-1.6.4c-.5.3-.9.6-1.2 1v-1.4c.3-.3.7-.5 1.2-.8c.5-.2 1.1-.3 1.7-.3c1.1 0 2 .3 2.7.9c.6.5.9 1.4.9 2.5v5.6h-1.1s-.25-1.34-.2-1.3c-.5.5-.9.9-1.5 1.1c-.5.3-1.1.4-1.8.4c-.8 0-1.4-.2-1.9-.6c-.5-.5-.7-1.1-.7-1.9zm1.4-.1c0 .5.1.9.4 1.1c.3.3.6.4 1.1.4c.5 0 1.1-.2 1.6-.5c.6-.4 1-.8 1.3-1.4c.02-.03 0-1.7 0-1.7c0 0-1.43.26-1.4.3c-.8.1-1.4.2-1.8.4c-.4.1-.7.3-.9.5c-.2.3-.3.6-.3.9zm8.8 2.4H192v-12.3h1.4v12.3z" stroke="none" fill="#fff"/></g><g id="Polygon3300"><path d="m8.7 84.5H1.4V72.3h7.2v1.3H2.9v4h4.9v1.3H2.9v4.4h5.8v1.2zm1.8 0H9l3.3-4.6l-2.9-4.1h1.6l2.2 3.1l2.2-3.1h1.5l-3 4.1l3.3 4.6h-1.7L13.1 81l-2.6 3.5zm7.2-3c0 1.1.2 1.9.7 2.4c.5.6 1.2.8 2.1.8c.7 0 1.3-.2 1.9-.5c.5-.4.9-.9 1.3-1.5c-.04.04.1 1.8.1 1.8h1.3v-8.7h-1.5s.05 5.12 0 5.1c-.1.5-.3.9-.6 1.3c-.3.5-.6.8-1 1c-.4.3-.8.4-1.2.4c-.6 0-1.1-.2-1.3-.6c-.3-.3-.4-.9-.4-1.6v-5.6h-1.4v5.7zm8.4-1.4c0-.9.2-1.7.5-2.4c.3-.7.8-1.2 1.4-1.6c.6-.4 1.2-.6 1.9-.6c.6 0 1.1.2 1.6.5c.5.2.9.6 1.2 1.1c.04-.04 0-4.9 0-4.9h1.4v12.3h-1.2s-.15-1.36-.1-1.4c-.4.5-.8.9-1.3 1.2c-.5.3-1 .4-1.6.4c-.7 0-1.3-.1-1.9-.5c-.6-.4-1.1-.9-1.4-1.6c-.3-.7-.5-1.6-.5-2.5zm1.5 0c0 .7.1 1.4.3 1.9c.2.5.5.9.9 1.2c.4.3.9.4 1.4.4c.5 0 1-.2 1.5-.6c.5-.4.8-.9 1-1.4v-2.9c-.2-.6-.5-1.1-1-1.5c-.5-.4-1-.6-1.5-.6c-.5 0-1 .2-1.4.5c-.3.3-.7.7-.9 1.2c-.2.5-.3 1.1-.3 1.8zm7.6-.2c0-.8.1-1.6.5-2.2c.3-.7.8-1.2 1.3-1.6c.6-.4 1.3-.6 2.1-.6c1.2 0 2.1.4 2.7 1.2c.7.8 1 1.9 1 3.3c.05.02 0 .6 0 .6h-6.2c0 .9.3 1.6.8 2.2c.4.5 1.1.8 1.9.8c1.2 0 2.2-.4 3.1-1.3v1.4c-.4.3-.9.6-1.4.8c-.4.2-1 .2-1.7.2c-.9 0-1.6-.1-2.2-.5c-.7-.4-1.1-.9-1.4-1.6c-.4-.7-.5-1.4-.5-2.3v-.4zm6.2-.4c0-.9-.2-1.7-.6-2.1c-.4-.5-1-.8-1.7-.8c-.4 0-.9.2-1.2.4c-.4.2-.7.6-.9 1c-.2.4-.4.9-.4 1.5h4.8zm5.4 2.7c0-.6.2-1.1.5-1.5c.2-.4.6-.6 1.1-.9c.5-.2 1.2-.3 2.1-.5l2.2-.4c-.1-.7-.3-1.3-.6-1.7c-.4-.4-1-.6-1.8-.6c-.5 0-1 .2-1.5.4c-.5.3-1 .6-1.3 1v-1.4c.3-.3.8-.5 1.3-.8c.5-.2 1.1-.3 1.7-.3c1.1 0 2 .3 2.6.9c.6.5 1 1.4 1 2.5c-.04-.03 0 5.6 0 5.6H53l-.3-1.3c-.4.5-.9.9-1.4 1.1c-.6.3-1.2.4-1.8.4c-.8 0-1.5-.2-2-.6c-.5-.5-.7-1.1-.7-1.9zm1.4-.1c0 .5.2.9.4 1.1c.3.3.7.4 1.1.4c.6 0 1.1-.2 1.7-.5c.5-.4 1-.8 1.3-1.4c-.03-.03 0-1.7 0-1.7c0 0-1.48.26-1.5.3c-.8.1-1.4.2-1.8.4c-.4.1-.7.3-.9.5c-.2.3-.3.6-.3.9zm10.6.2c.7.9 1.6 1.3 2.8 1.3c.5 0 1-.1 1.3-.4c.4-.2.5-.5.5-.9c0-.3 0-.6-.2-.8c-.2-.2-.5-.4-1-.6l-1.2-.5c-.7-.3-1.3-.7-1.6-1.1c-.4-.4-.5-.8-.5-1.4c0-.4.1-.8.3-1.2c.2-.4.6-.6 1-.9c.5-.2 1-.3 1.6-.3c.5 0 1 .1 1.5.3c.5.2.9.4 1.2.7v1.5c-.4-.4-.8-.8-1.3-1c-.4-.2-.9-.3-1.4-.3c-.5 0-.9.1-1.2.3c-.2.2-.3.5-.3.8c0 .3.1.5.3.7c.2.2.5.4 1 .6l1.2.5c.7.3 1.2.6 1.6 1c.3.5.4 1 .4 1.6c0 .8-.3 1.4-.9 1.8c-.6.5-1.4.7-2.3.7c-.6 0-1.2 0-1.7-.2c-.4-.2-.8-.4-1.1-.7v-1.5zm8.5-8h-1.4v-1.7h1.4v1.7zm0 10.2h-1.4v-8.7h1.4v8.7zm1.7 0v-8.7h1.2s.13 1.55.1 1.6c.4-.6.8-1 1.2-1.4c.5-.3 1.1-.5 1.7-.5c.6 0 1.1.2 1.6.5c.4.4.7.8.8 1.4c.4-.5.8-1 1.3-1.4c.5-.3 1.1-.5 1.7-.5c.8 0 1.4.3 1.9.8c.5.5.7 1.3.7 2.3v5.9h-1.4v-5.8c0-.7-.1-1.2-.3-1.6c-.3-.3-.6-.5-1.2-.5c-.3 0-.6.2-1 .4c-.3.2-.7.5-.9.8c-.3.4-.5.8-.6 1.2v5.5h-1.4s-.02-5.85 0-5.9c0-.6-.1-1.1-.4-1.5c-.2-.3-.6-.5-1.1-.5c-.3 0-.6.2-1 .4c-.3.2-.6.5-.9.8c-.3.4-.5.8-.6 1.2c-.02-.02 0 5.5 0 5.5H69zM82.7 88V75.8h1.3s.11 1.38.1 1.4c.3-.5.7-.9 1.2-1.2c.5-.3 1.1-.5 1.6-.5c.8 0 1.4.2 2 .6c.6.4 1 .9 1.4 1.6c.3.7.5 1.5.5 2.4c0 .9-.2 1.8-.5 2.5c-.4.7-.8 1.2-1.4 1.6c-.6.4-1.2.5-2 .5c-.5 0-1.1-.1-1.5-.4c-.5-.3-1-.6-1.3-1.1c.03-.01 0 4.8 0 4.8h-1.4zm1.4-6.5c.2.6.6 1.1 1.1 1.5c.4.4 1 .6 1.5.6c.5 0 .9-.1 1.3-.4c.4-.3.7-.7 1-1.2c.2-.6.3-1.2.3-1.9c0-.7-.1-1.3-.3-1.8c-.2-.5-.6-.9-1-1.2c-.3-.3-.8-.5-1.3-.5c-.5 0-1.1.2-1.5.6c-.5.4-.9.9-1.1 1.5v2.8zm9.1 3h-1.4V72.2h1.4v12.3zm1.1-4.6c0-.8.1-1.6.5-2.2c.3-.7.7-1.2 1.3-1.6c.6-.4 1.3-.6 2.1-.6c1.1 0 2.1.4 2.7 1.2c.7.8 1 1.9 1 3.3c.03.02 0 .6 0 .6h-6.2c0 .9.3 1.6.7 2.2c.5.5 1.2.8 2 .8c1.2 0 2.2-.4 3-1.3v1.4c-.3.3-.8.6-1.3.8c-.5.2-1.1.2-1.7.2c-.9 0-1.6-.1-2.2-.5c-.7-.4-1.1-.9-1.5-1.6c-.3-.7-.4-1.4-.4-2.3v-.4zm6.2-.4c0-.9-.2-1.7-.6-2.1c-.5-.5-1-.8-1.7-.8c-.5 0-.9.2-1.2.4c-.4.2-.7.6-.9 1c-.3.4-.4.9-.4 1.5h4.8zm8.4 5l-3.4-8.7h1.5l2.7 7l2.7-7h1.4L108.9 88h-1.4l1.4-3.5zm4.9-4.6c0-.8.1-1.6.5-2.2c.3-.7.8-1.2 1.4-1.6c.5-.4 1.2-.6 2-.6c1.2 0 2.1.4 2.8 1.2c.6.8 1 1.9 1 3.3c-.05.02 0 .6 0 .6h-6.3c0 .9.3 1.6.8 2.2c.4.5 1.1.8 1.9.8c1.2 0 2.2-.4 3.1-1.3v1.4c-.4.3-.8.6-1.3.8c-.5.2-1.1.2-1.8.2c-.9 0-1.6-.1-2.2-.5c-.6-.4-1.1-.9-1.4-1.6c-.4-.7-.5-1.4-.5-2.3v-.4zm6.2-.4c0-.9-.2-1.7-.6-2.1c-.4-.5-1-.8-1.7-.8c-.4 0-.8.2-1.2.4c-.4.2-.7.6-.9 1c-.2.4-.4.9-.4 1.5h4.8zm3.4-2.6h-2v-1.1h2v-2.7h1.4v2.7h1.9v1.1h-1.9v7.6h-1.4v-7.6zm7.4 7.6V72.2h1.4s.02 5.3 0 5.3c.3-.5.8-1 1.3-1.4c.5-.4 1.1-.6 1.8-.6c.9 0 1.6.3 2.1.9c.5.5.8 1.3.8 2.4c-.03-.04 0 5.7 0 5.7h-1.4s-.03-5.63 0-5.6c0-.8-.2-1.3-.4-1.7c-.3-.3-.7-.5-1.3-.5c-.4 0-.8.1-1.2.3c-.4.3-.7.6-1 1c-.3.4-.6.8-.7 1.3c.02 0 0 5.2 0 5.2h-1.4zm10.3-10.2h-1.4v-1.7h1.4v1.7zm0 10.2h-1.4v-8.7h1.4v8.7zm1-4.6c0-.9.2-1.6.5-2.3c.3-.7.8-1.2 1.4-1.5c.5-.4 1.2-.6 1.9-.6c.6 0 1.1.2 1.6.5c.5.2.9.6 1.2 1.1l.1-1.3h1.3v8.4c0 .8-.2 1.5-.5 2.1c-.4.6-.9 1.1-1.5 1.4c-.7.3-1.4.5-2.3.5c-.6 0-1.1-.1-1.6-.2c-.5-.1-.9-.3-1.3-.6V86c.9.7 1.8 1 2.9 1c.9 0 1.6-.2 2.1-.7c.5-.5.8-1.2.8-2.1v-1.4c-.3.5-.7.8-1.2 1.1c-.5.3-1 .4-1.6.4c-.7 0-1.4-.2-1.9-.5c-.6-.4-1.1-.9-1.4-1.6c-.3-.6-.5-1.4-.5-2.3zm1.5 0c0 .7.1 1.3.3 1.8c.3.4.6.8 1 1.1c.4.2.8.4 1.3.4c.5 0 1-.2 1.5-.6c.4-.4.8-.9 1-1.4v-2.5c-.2-.6-.6-1.1-1.1-1.5c-.4-.4-.9-.6-1.5-.6c-.4 0-.9.2-1.2.4c-.4.3-.7.7-1 1.2c-.2.5-.3 1-.3 1.7zm8.2 4.6V72.2h1.4s-.03 5.3 0 5.3c.3-.5.7-1 1.3-1.4c.5-.4 1.1-.6 1.8-.6c.9 0 1.6.3 2.1.9c.5.5.7 1.3.7 2.4c.02-.04 0 5.7 0 5.7h-1.4v-5.6c0-.8-.1-1.3-.4-1.7c-.2-.3-.7-.5-1.3-.5c-.3 0-.7.1-1.1.3c-.4.3-.8.6-1.1 1c-.3.4-.5.8-.6 1.3c-.03 0 0 5.2 0 5.2h-1.4zm13-4.8h-4.6v-1.3h4.6v1.3zm2-2.8h-1.9v-1.1h1.9v-2.7h1.4v2.7h2v1.1h-2v7.6h-1.4v-7.6zm3.3 3c0-.8.2-1.6.5-2.2c.4-.7.8-1.2 1.4-1.6c.6-.4 1.3-.6 2-.6c1.2 0 2.1.4 2.8 1.2c.7.8 1 1.9 1 3.3v.6h-6.3c.1.9.3 1.6.8 2.2c.5.5 1.1.8 1.9.8c1.2 0 2.3-.4 3.1-1.3v1.4c-.4.3-.8.6-1.3.8c-.5.2-1.1.2-1.8.2c-.8 0-1.6-.1-2.2-.5c-.6-.4-1.1-.9-1.4-1.6c-.3-.7-.5-1.4-.5-2.3v-.4zm6.3-.4c0-.9-.2-1.7-.7-2.1c-.4-.5-.9-.8-1.6-.8c-.5 0-.9.2-1.3.4c-.3.2-.6.6-.9 1c-.2.4-.3.9-.4 1.5h4.9zm1.8.5c0-.9.2-1.6.6-2.3c.3-.7.9-1.2 1.5-1.6c.7-.4 1.4-.6 2.2-.6c.5 0 1 .1 1.4.3c.5.2.9.4 1.2.7v1.5c-.4-.4-.7-.8-1.2-1c-.4-.2-.9-.3-1.4-.3c-.5 0-1 .1-1.4.4c-.4.3-.8.6-1 1.1c-.3.5-.4 1.1-.4 1.8v.2c0 .7.1 1.3.4 1.8c.2.5.6.9 1 1.2c.4.3.9.4 1.4.4c1 0 1.9-.4 2.6-1.3v1.5c-.3.3-.7.5-1.2.7c-.4.2-.9.2-1.4.2c-.8 0-1.5-.2-2.2-.5c-.6-.4-1.2-1-1.5-1.6c-.4-.7-.6-1.5-.6-2.3v-.3zm8 4.5V72.2h1.4v5.3c.3-.5.8-1 1.3-1.4c.5-.4 1.1-.6 1.8-.6c.9 0 1.6.3 2.1.9c.5.5.8 1.3.8 2.4c-.03-.04 0 5.7 0 5.7h-1.4s-.04-5.63 0-5.6c0-.8-.2-1.3-.4-1.7c-.3-.3-.7-.5-1.3-.5c-.4 0-.8.1-1.2.3c-.4.3-.8.6-1.1 1c-.3.4-.5.8-.6 1.3v5.2h-1.4z" stroke="none" fill="#fff"/></g><g id="Polygon3299"><path d="m10.8 44H1.6V29.5h2.5v12.4h6.7v2.1zm3.3-12h-2.5v-2.6h2.5v2.6zm0 12h-2.5V33.6h2.5V44zm1-5.4c0-1.1.2-2 .6-2.8c.5-.8 1-1.4 1.7-1.8c.7-.5 1.5-.7 2.4-.7c.6 0 1.2.2 1.8.4c.5.3 1 .7 1.3 1.1l.1-1.2h2.3s.03 9.79 0 9.8c0 1.6-.5 2.8-1.5 3.7c-1.1.8-2.5 1.2-4.2 1.2c-.8 0-1.5 0-2-.2c-.6-.2-1.1-.4-1.6-.7V45c.5.4 1.1.7 1.6.9c.6.3 1.2.4 2 .4c1 0 1.7-.3 2.4-.8c.6-.5.9-1.2.9-2.1v-.9c-.3.4-.8.8-1.3 1c-.6.3-1.2.4-1.8.4c-.9 0-1.7-.2-2.4-.7c-.7-.4-1.2-1-1.7-1.8c-.4-.8-.6-1.8-.6-2.8zm2.6 0c0 .7.1 1.3.4 1.8c.3.5.6.9 1 1.2c.4.3.9.4 1.3.4c.5 0 1-.1 1.4-.4c.5-.3.8-.7 1.1-1.2v-3.5c-.3-.6-.6-1-1.1-1.3c-.4-.2-.9-.4-1.5-.4c-.4 0-.8.1-1.2.4c-.4.2-.8.6-1 1.1c-.3.5-.4 1.2-.4 1.9zM27 44V29.4h2.5v5.7c.4-.5.8-.9 1.4-1.3c.6-.3 1.2-.5 1.9-.5c1.1 0 2 .4 2.7 1c.6.7.9 1.7.9 2.9c.04 0 0 6.8 0 6.8H34s-.01-6.8 0-6.8c0-1.3-.5-2-1.6-2c-.6 0-1.2.3-1.8.7c-.5.5-.9 1.1-1.1 1.8v6.3H27zm12.1-8.5h-2.3v-1.9h2.3v-3.1h2.4v3.1h2.3v1.9h-2.3v8.5h-2.4v-8.5zm7.7-3.5h-2.4v-2.6h2.4v2.6zm0 12h-2.4V33.6h2.4V44zm1.7 0V33.6h2.3l.2 1.5c.4-.5.8-.9 1.4-1.3c.6-.3 1.2-.5 1.9-.5c1.2 0 2 .4 2.7 1c.6.7.9 1.7.9 2.9c.05 0 0 6.8 0 6.8h-2.4v-6.8c0-1.3-.5-2-1.6-2c-.6 0-1.2.3-1.8.7c-.5.5-.9 1.1-1.1 1.8v6.3h-2.5zm10.3-5.4c0-1.1.2-2 .6-2.8c.4-.8 1-1.4 1.7-1.8c.7-.5 1.5-.7 2.4-.7c.6 0 1.2.2 1.7.4c.6.3 1 .7 1.4 1.1c-.03.02.1-1.2.1-1.2h2.3v9.8c0 1.6-.5 2.8-1.6 3.7c-1 .8-2.4 1.2-4.1 1.2c-.8 0-1.5 0-2.1-.2c-.5-.2-1-.4-1.5-.7V45c.5.4 1.1.7 1.6.9c.6.3 1.2.4 2 .4c.9 0 1.7-.3 2.3-.8c.6-.5 1-1.2 1-2.1v-.9c-.3.4-.8.8-1.3 1c-.6.3-1.2.4-1.8.4c-.9 0-1.7-.2-2.4-.7c-.7-.4-1.3-1-1.7-1.8c-.4-.8-.6-1.8-.6-2.8zm2.5 0c0 .7.2 1.3.5 1.8c.2.5.6.9 1 1.2c.4.3.8.4 1.3.4c.5 0 1-.1 1.4-.4c.5-.3.8-.7 1.1-1.2v-3.5c-.3-.6-.6-1-1.1-1.3c-.5-.2-1-.4-1.5-.4c-.4 0-.8.1-1.3.4c-.4.2-.7.6-1 1.1c-.2.5-.4 1.2-.4 1.9z" stroke="none" fill="#fff"/></g><g id="Polygon3298"><path d="m1.6 16V1.5s4.95.04 5 0c1.4 0 2.6.3 3.7.9c1 .5 1.9 1.4 2.4 2.4c.6 1.1.9 2.3.9 3.7v.4c0 1.4-.3 2.7-.9 3.7c-.5 1.1-1.4 1.9-2.4 2.5c-1.1.6-2.3.9-3.7.9c-.05-.02-5 0-5 0zm4.8-2.1c.8 0 1.5-.2 2.2-.5c.6-.4 1.2-.9 1.6-1.7c.4-.7.6-1.7.6-2.8v-.4c0-1.1-.2-2-.6-2.8c-.4-.7-1-1.3-1.6-1.6c-.7-.3-1.4-.5-2.2-.5H4.1v10.3h2.3zM17.2 4h-2.4V1.4h2.4v2.6zm0 12h-2.4V5.6h2.4V16zm1.1-5.4c0-1.1.2-2 .6-2.8c.4-.8 1-1.4 1.7-1.8c.7-.5 1.5-.7 2.3-.7c.7 0 1.3.2 1.8.4c.5.3 1 .7 1.3 1.1c.03.02.2-1.2.2-1.2h2.3s-.04 9.79 0 9.8c0 1.6-.6 2.8-1.6 3.7c-1 .8-2.4 1.2-4.2 1.2c-.8 0-1.4 0-2-.2c-.6-.2-1.1-.4-1.5-.7V17c.5.4 1 .7 1.6.9c.5.3 1.2.4 1.9.4c1 0 1.8-.3 2.4-.8c.6-.5.9-1.2.9-2.1v-.9c-.3.4-.7.8-1.3 1c-.5.3-1.1.4-1.7.4c-.9 0-1.7-.2-2.4-.7c-.7-.4-1.3-1-1.7-1.8c-.4-.8-.6-1.8-.6-2.8zm2.5 0c0 .7.1 1.3.4 1.8c.3.5.6.9 1 1.2c.5.3.9.4 1.3.4c.6 0 1-.1 1.5-.4c.4-.3.8-.7 1-1.2V8.9c-.2-.6-.6-1-1-1.3c-.5-.2-1-.4-1.5-.4c-.5 0-.9.1-1.3.4c-.4.2-.7.6-1 1.1c-.3.5-.4 1.2-.4 1.9zM32.6 4h-2.4V1.4h2.4v2.6zm0 12h-2.4V5.6h2.4V16zm2.8-8.5h-2.2V5.6h2.2V2.5h2.5v3.1h2.3v1.9h-2.3v8.5h-2.5V7.5zm4.7 5.6c0-.8.2-1.5.7-2c.4-.5.9-.8 1.5-1c.6-.3 1.3-.4 2.2-.6l2.2-.3c-.1-1.4-.9-2.1-2.5-2.1c-.6 0-1.1.2-1.7.5c-.6.3-1.1.7-1.5 1.3V6.5c1-.8 2.3-1.2 3.7-1.2c1.3 0 2.4.4 3.2 1.1c.9.7 1.3 1.8 1.3 3.2v6.4h-2.1s-.19-1.22-.2-1.2c-.5.5-1 .8-1.6 1.1c-.5.2-1.2.4-1.9.4c-1 0-1.8-.3-2.4-.9c-.6-.6-.9-1.3-.9-2.3zm2.4-.1c0 .4.1.7.4.9c.2.3.6.4 1 .4c.6 0 1.2-.2 1.7-.6c.5-.3.9-.8 1.2-1.3c-.02-.05 0-1.5 0-1.5c0 0-1.26.22-1.3.2c-.8.2-1.4.3-1.8.4c-.3.2-.6.4-.8.5c-.3.3-.4.6-.4 1zm10.7 3h-2.5V1.4h2.5V16zm6 0V1.5s5.78.04 5.8 0c.9 0 1.7.2 2.4.5c.7.4 1.3.9 1.7 1.5c.5.6.7 1.4.7 2.3v.3c0 .9-.2 1.6-.7 2.3c-.4.6-1 1.1-1.7 1.4c-.7.3-1.5.5-2.4.5c-.02.02-3.3 0-3.3 0v5.7h-2.5zm5.4-7.8c.7 0 1.3-.2 1.8-.5c.4-.4.7-1 .7-1.6v-.3c0-.7-.3-1.2-.7-1.6c-.5-.4-1.1-.6-1.8-.6h-2.9v4.6s2.9.05 2.9 0zm5.3 4.9c0-.8.2-1.5.6-2c.4-.5.9-.8 1.5-1c.7-.3 1.4-.4 2.3-.6l2.2-.3c-.1-1.4-1-2.1-2.5-2.1c-.6 0-1.2.2-1.8.5c-.5.3-1 .7-1.4 1.3V6.5c1-.8 2.2-1.2 3.7-1.2c1.3 0 2.4.4 3.2 1.1c.8.7 1.3 1.8 1.3 3.2c-.04.01 0 6.4 0 6.4h-2.1s-.22-1.22-.2-1.2c-.5.5-1.1.8-1.6 1.1c-.6.2-1.2.4-1.9.4c-1.1 0-1.9-.3-2.5-.9c-.5-.6-.8-1.3-.8-2.3zm2.4-.1c0 .4.1.7.4.9c.2.3.5.4 1 .4c.6 0 1.2-.2 1.7-.6c.5-.3.9-.8 1.2-1.3c-.05-.05 0-1.5 0-1.5c0 0-1.28.22-1.3.2c-.8.2-1.5.3-1.8.4c-.4.2-.6.4-.8.5c-.3.3-.4.6-.4 1zm9.3-5.5h-2.3V5.6h2.3V2.5h2.4v3.1h2.3v1.9H84v8.5h-2.4V7.5zm6.8 0h-2.3V5.6h2.3V2.5h2.4v3.1h2.3v1.9h-2.3v8.5h-2.4V7.5zm4.5 3.1c0-1 .3-1.9.7-2.7c.4-.8 1-1.5 1.7-1.9c.7-.5 1.6-.7 2.5-.7c1.6 0 2.7.5 3.6 1.5c.8.9 1.2 2.2 1.2 3.9v.9s-7.24.05-7.2 0c0 .9.3 1.6.9 2.1c.5.4 1.1.7 2 .7c.7 0 1.3-.1 1.9-.4c.6-.2 1.1-.6 1.7-1.2v2.3c-.5.4-1 .7-1.6.9c-.7.2-1.4.3-2.1.3c-1.1 0-2.1-.3-2.8-.7c-.8-.5-1.4-1.1-1.8-1.9c-.5-.8-.7-1.7-.7-2.7v-.4zm7.3-.8c0-.8-.2-1.5-.7-1.9c-.4-.5-1-.7-1.7-.7c-.6 0-1.2.2-1.7.7c-.4.5-.7 1.1-.7 1.9h4.8zm3.4 6.2V5.6h2.3s.16 1.72.2 1.7c.2-.6.6-1.1 1.1-1.4c.6-.4 1.2-.6 2-.6c.3 0 .6.1.8.1v2.2c-.3-.1-.6-.2-.9-.2c-.7 0-1.3.3-1.9.7c-.6.4-.9.9-1.1 1.6v6.3h-2.5zm7 0V5.6h2.3l.1 1.5c.4-.5.8-.9 1.4-1.3c.6-.3 1.2-.5 1.9-.5c1.2 0 2.1.4 2.7 1c.6.7 1 1.7 1 2.9c-.04 0 0 6.8 0 6.8h-2.5s.01-6.8 0-6.8c0-1.3-.5-2-1.6-2c-.6 0-1.2.3-1.7.7c-.6.5-1 1.1-1.2 1.8v6.3h-2.4z" stroke="none" fill="#fff"/></g></svg>