<?xml version="1.0" standalone="no"?><!DOCTYPE svg PUBLIC "-//W3C//DTD SVG 1.1//EN" "http://www.w3.org/Graphics/SVG/1.1/DTD/svg11.dtd"><svg xmlns="http://www.w3.org/2000/svg" version="1.1" width="211.4px" height="27.7px" viewBox="0 -3 211.4 27.7" style="top:-3px"><desc>DREAM MOVE</desc><defs/><g id="Polygon111133"><path d="m1.4 15V2.4s3.43-.02 3.4 0c1 0 1.9.1 2.6.4c.8.2 1.4.6 2 1.1c.5.5.9 1.2 1.2 1.9c.3.8.4 1.8.4 2.8c0 1.1-.1 2-.4 2.8c-.3.8-.7 1.4-1.2 2c-.5.5-1.2.9-1.9 1.2c-.8.2-1.6.4-2.5.4c-.04-.04-3.6 0-3.6 0zm2.5-2.1s.77.04.8 0c1.2 0 2.1-.3 2.8-1c.6-.6 1-1.8 1-3.3c0-.8-.1-1.4-.3-1.9c-.2-.6-.4-1-.7-1.4c-.4-.3-.8-.5-1.2-.7c-.5-.1-1-.2-1.6-.2h-.8v8.5zM23.1 15h-2.8l-2.6-4.8h-1.8v4.8h-2.5V2.4s4.41-.02 4.4 0c.7 0 1.3 0 1.9.2c.5.1 1 .3 1.5.6c.4.3.7.7 1 1.2c.2.5.3 1.1.3 1.8c0 1-.2 1.7-.6 2.3c-.5.6-1 1-1.8 1.3c.04.01 3 5.2 3 5.2zM15.9 4.4v3.8s1.68.01 1.7 0c.8 0 1.4-.2 1.8-.5c.5-.3.7-.8.7-1.5c0-.7-.2-1.2-.7-1.4c-.4-.3-1-.4-1.8-.4c-.02-.03-1.7 0-1.7 0zm9 10.6V2.4h7.8v2.1h-5.2v2.9h4.4v2.1h-4.4v3.4h5.3v2.1h-7.9zm17.2 0l-.9-3.3h-4.1l-.9 3.3h-2.5l4-12.6h3l4 12.6h-2.6zm-4.4-5.2h3l-.4-1.4l-.6-2c-.1-.7-.3-1.4-.5-2.1h-.1c-.1.7-.3 1.4-.5 2.1l-.6 2c.04 0-.3 1.4-.3 1.4zm8.4 5.2V2.4h2.8s2.15 5.86 2.1 5.9c.2.4.3.8.4 1.2c.04-.03.4 1.2.4 1.2h.1c.1-.4.3-.8.4-1.2c.1-.4.2-.8.4-1.2c-.04-.04 2.1-5.9 2.1-5.9h2.7V15h-2.3s.05-5.29 0-5.3c0-.3.1-.6.1-1V7.6c.1-.3.1-.7.2-1c0-.4 0-.7.1-1c-.05-.02-.1 0-.1 0l-1 2.9l-2 5.3h-1.4l-2-5.3l-1-2.9s-.04-.02 0 0c0 .3 0 .6.1 1c0 .3 0 .7.1 1v1.1c.1.4.1.7.1 1c-.02.01 0 5.3 0 5.3h-2.3zm18.2 0V2.4h2.8s2.15 5.86 2.2 5.9l.3 1.2c.05-.03.4 1.2.4 1.2h.1c.1-.4.3-.8.4-1.2c.1-.4.2-.8.4-1.2c-.03-.04 2.1-5.9 2.1-5.9h2.7V15h-2.2s-.05-5.29 0-5.3v-1c0-.3 0-.7.1-1.1c0-.3 0-.7.1-1c0-.4 0-.7.1-1c-.04-.02-.1 0-.1 0l-1 2.9l-2 5.3h-1.4l-2-5.3l-1-2.9s-.04-.02 0 0c0 .3 0 .6.1 1c0 .3 0 .7.1 1c0 .4 0 .8.1 1.1v6.3h-2.3zm19.5.2c-.9 0-1.6-.2-2.3-.5c-.7-.3-1.3-.7-1.8-1.3c-.5-.5-.9-1.2-1.2-2c-.2-.8-.4-1.8-.4-2.8c0-1 .2-1.9.4-2.7c.3-.8.7-1.5 1.2-2.1c.5-.5 1.1-.9 1.8-1.2c.7-.3 1.4-.5 2.3-.5c.8 0 1.6.2 2.2.5c.7.3 1.3.7 1.8 1.3c.5.5.9 1.2 1.2 2c.2.8.4 1.7.4 2.7c0 1-.2 2-.4 2.8c-.3.8-.7 1.5-1.2 2c-.5.6-1.1 1-1.8 1.3c-.6.3-1.4.5-2.2.5zm0-2.2c.4 0 .8-.1 1.2-.3c.4-.2.7-.5 1-.9c.3-.4.5-.8.6-1.4c.1-.5.2-1.1.2-1.8c0-1.4-.3-2.4-.8-3.2c-.5-.7-1.3-1.1-2.2-1.1c-1 0-1.8.4-2.3 1.1c-.5.8-.8 1.8-.8 3.2c0 .7.1 1.3.2 1.8c.1.6.4 1 .6 1.4c.3.4.6.7 1 .9c.4.2.8.3 1.3.3zM94 15L90.1 2.4h2.7s1.63 6.1 1.6 6.1c.2.7.4 1.4.5 2c.2.7.4 1.3.6 2.1h.1c.2-.8.3-1.4.5-2.1c.2-.6.3-1.3.5-2c.04 0 1.7-6.1 1.7-6.1h2.5L97 15h-3zm8.2 0V2.4h7.7v2.1h-5.2v2.9h4.4v2.1h-4.4v3.4h5.4v2.1h-7.9z" stroke="none" fill="#fff"/></g></svg>