<?xml version="1.0" standalone="no"?><!DOCTYPE svg PUBLIC "-//W3C//DTD SVG 1.1//EN" "http://www.w3.org/Graphics/SVG/1.1/DTD/svg11.dtd"><svg xmlns="http://www.w3.org/2000/svg" version="1.1" width="467px" height="31px" viewBox="0 -4 467 31" style="top:-4px"><desc>오늘을 함께하며, 가치 있는 내일을 만들어 갑니다</desc><defs/><g id="Polygon109588"><path d="m16.3 7.5c0 .7-.2 1.5-.5 2.2c-.4.7-.8 1.4-1.4 1.9c-.5.5-1.2.9-1.9 1.2c-.4.2-.8.3-1.2.4c-.03 0 0 3.5 0 3.5h7.7v2.3H1.1v-2.3h7.7v-3.5c-.4-.1-.8-.2-1.2-.4c-.8-.3-1.4-.7-2-1.2c-.5-.5-1-1.2-1.3-1.9c-.3-.7-.5-1.5-.5-2.2c0-.8.2-1.6.5-2.3c.3-.7.8-1.4 1.3-1.9c.6-.5 1.2-.9 2-1.2c.8-.4 1.6-.5 2.4-.5c.9 0 1.7.1 2.5.5c.7.3 1.4.7 1.9 1.2c.6.5 1 1.2 1.4 1.9c.3.7.5 1.5.5 2.3zm-2.5 0c0-.5-.1-1-.3-1.4c-.2-.5-.5-.9-.9-1.2c-.3-.3-.7-.6-1.1-.8c-.5-.2-1-.3-1.5-.3c-.5 0-1 .1-1.4.3c-.5.2-.9.5-1.2.8c-.3.3-.6.7-.8 1.2c-.2.4-.3.9-.3 1.4c0 .4.1.9.3 1.3c.2.5.5.9.8 1.2c.3.3.7.6 1.2.8c.4.2.9.3 1.4.3c.5 0 1-.1 1.5-.3c.4-.2.8-.5 1.1-.8c.4-.3.7-.7.9-1.2c.2-.4.3-.9.3-1.3zm8.9-6.3h2.4v4.2h11.3v2.1H22.7V1.2zM20.4 9h17.9v2.1H20.4V9zm16 12.1H22.7v-5.2h10.9v-1.3H22.7v-2h13.4v5.2h-11v1.3h11.3v2zM54.2 5.4c0 .6-.1 1.3-.4 1.8c-.3.6-.7 1.2-1.2 1.6c.02.03 5.1 0 5.1 0v2.1H39.8V8.8s5.1.03 5.1 0c-.5-.4-.9-1-1.2-1.6c-.3-.5-.4-1.2-.4-1.8c0-.7.1-1.4.4-1.9c.3-.6.7-1.2 1.2-1.6c.5-.5 1.1-.8 1.7-1.1c.7-.3 1.4-.4 2.2-.4c.7 0 1.4.1 2.1.4c.6.3 1.2.6 1.7 1.1c.5.4.9 1 1.2 1.6c.3.5.4 1.2.4 1.9zm-2.5 0c0-.8-.2-1.5-.8-2c-.6-.6-1.3-.9-2.1-.9c-.9 0-1.6.3-2.2.9c-.5.5-.8 1.2-.8 2c0 .8.3 1.5.8 2.1c.6.5 1.3.8 2.2.8c.8 0 1.5-.3 2.1-.8c.6-.6.8-1.3.8-2.1zm4 15.7H42v-5.5h11v-1.4h-11v-2h13.5v5.4h-11v1.5h11.2v2zM69.9 2.6V.7h2.7v1.9h4.4v2h-2.2s.02.07 0 .1c.5.4.8.9 1.1 1.5c.3.5.4 1.1.4 1.7c0 .7-.1 1.3-.4 1.8c-.3.6-.6 1.1-1.1 1.5c-.4.4-1 .7-1.6 1c-.6.2-1.3.4-2 .4c-.7 0-1.3-.2-1.9-.4c-.7-.3-1.2-.6-1.7-1c-.4-.4-.8-.9-1-1.5c-.3-.5-.5-1.1-.5-1.8c0-.6.2-1.2.5-1.7c.2-.6.6-1.1 1-1.5l.1-.1h-2.3v-2h4.5zm4 5.2c0-.7-.3-1.3-.8-1.8c-.5-.5-1.1-.8-1.9-.8c-.7 0-1.3.3-1.8.8c-.5.5-.8 1.1-.8 1.8c0 .7.3 1.3.8 1.8c.5.6 1.1.8 1.8.8c.8 0 1.4-.2 1.9-.8c.5-.5.8-1.1.8-1.8zM81.3 1v5.2h2.8v2.3h-2.8v4.1h-2.5V1h2.5zm-2.5 14.8H71v3.2h7.8v-3.2zm2.5 5.3H68.5v-7.4h12.8v7.4zM99.6 1h2.3v20.1h-2.3V1zm-5.3.9c0 1.7-.1 3.3-.3 4.8c0 .02 2 0 2 0V1h2.2v20.1H96V9s-2.44-.03-2.4 0c-.1.4-.3.9-.4 1.3c-.9 2.7-2 4.9-3.4 6.7l-1.9-1c1.4-1.8 2.5-3.9 3.3-6.5c.5-1.6.8-3.4.8-5.4h-1.7c-.2 2.2-.6 4.1-1.2 5.7c-.9 2.4-2.1 4.4-3.6 6.1l-1.8-1c1.5-1.7 2.6-3.7 3.4-5.9c.6-1.4.8-3.1.9-4.9h-2.6V1.9h8.9zm14.6 1.2V1h2.6v2.1h4.9v2.1h-2.6c.1.1.3.2.4.3c.5.5.9 1.1 1.2 1.8c.3.7.4 1.4.4 2.2c0 .7-.1 1.4-.4 2.1c-.3.7-.7 1.3-1.2 1.8c-.5.5-1.1.9-1.8 1.2c-.7.3-1.4.4-2.2.4c-.8 0-1.5-.1-2.2-.4c-.7-.3-1.3-.7-1.8-1.2c-.5-.5-.9-1.1-1.2-1.8c-.3-.7-.4-1.4-.4-2.1c0-.8.1-1.5.4-2.2c.3-.7.7-1.3 1.2-1.8c.1-.1.2-.2.4-.3H104V3.1h4.9zm4.5 6.3c0-.5-.1-.9-.3-1.4c-.1-.4-.4-.7-.7-1.1c-.2-.3-.6-.5-1-.7c-.4-.2-.8-.3-1.2-.3c-.4 0-.8.1-1.2.3c-.4.2-.8.4-1.1.7c-.3.4-.5.7-.7 1.1c-.1.5-.2.9-.2 1.4c0 .4.1.9.2 1.3c.2.4.4.8.7 1.1c.3.3.7.5 1.1.7c.4.2.8.3 1.2.3c.4 0 .8-.1 1.2-.3c.4-.2.8-.4 1-.7c.3-.3.6-.7.7-1.1c.2-.4.3-.9.3-1.3zm6.8-8.4v5.9h2.5v2.4h-2.5v11.8h-2.5V1h2.5zm11.4 3.1h-4.4v9.7h4.4V4.1zm2.5 11.9h-9.3V1.9h9.3v3h3.5V1h2.5v20.1h-2.5v-8.2h-3.5v3.1zm0-8.9v3.6h3.5V7.1h-3.5zm9.6 14.3c1.1-.4 1.7-1.2 1.7-2.3c0 .04-1.6 0-1.6 0v-3.2h3.3s-.04 2.64 0 2.6c0 2.1-.9 3.5-2.6 4.1l-.8-1.2zm30.1-13.7v2.3h-2.9v11.1h-2.5V1h2.5v6.7h2.9zm-8.4-5.8c0 3.5-.9 6.5-2.5 9c-1.6 2.3-3.6 4.3-6.1 5.9l-1.7-1.7c2.4-1.5 4.2-3.2 5.6-5.3c1.2-1.8 1.8-3.7 2-5.7c-.05.04-6.5 0-6.5 0V1.9h9.2zm23.5-.9h2.5v20.1h-2.5V1zm-10.5 10c.9-1.4 1.4-3 1.4-4.6c-.03-.03 0-1.1 0-1.1H175V3h4.8V.7h2.5v2.3h4.5v2.3h-4.5v1.1c0 1.4.4 3 1.3 4.7c.8 1.4 2 2.8 3.7 4.2l-1.6 1.6c-1.8-1.5-3.3-3.1-4.3-4.9c-.2-.2-.3-.4-.4-.7c-.2.3-.3.5-.5.8c-1.1 1.9-2.5 3.5-4.3 4.9l-1.7-1.5c1.6-1.4 2.9-2.9 3.9-4.5zm33-4.4c0 .7-.2 1.3-.5 1.9c-.3.7-.7 1.2-1.1 1.7c-.5.4-1.1.8-1.8 1.1c-.6.2-1.3.4-2.1.4c-.7 0-1.4-.2-2.1-.4c-.7-.3-1.2-.7-1.7-1.1c-.5-.5-.9-1-1.2-1.7c-.3-.6-.4-1.2-.4-1.9c0-.8.1-1.4.4-2c.3-.7.7-1.2 1.2-1.7c.5-.4 1-.8 1.7-1c.7-.3 1.4-.5 2.1-.5c.8 0 1.5.2 2.1.5c.7.2 1.3.6 1.8 1c.4.5.8 1 1.1 1.7c.3.6.5 1.2.5 2zm-2.5 0c0-.8-.3-1.5-.9-2.1c-.6-.6-1.3-.9-2.1-.9c-.8 0-1.5.3-2.1.9c-.6.6-.8 1.3-.8 2.1c0 .8.2 1.4.8 2c.6.6 1.3.9 2.1.9c.8 0 1.5-.3 2.1-.9c.6-.6.9-1.2.9-2zm8-5.6v11.2h-2.5V1h2.5zm-4.1 12.3h2.4v1.2c0 1 .4 2 1.1 2.9c.7.9 1.6 1.7 2.7 2.4l-1.6 1.5c-1.4-.8-2.5-1.8-3.2-2.9c-.1-.1-.1-.2-.1-.2l-.2.2c-.9 1.2-2 2.1-3.4 2.9c-1.4-.8-2.6-1.7-3.4-2.9l-.2-.2s-.1.1-.1.2c-.8 1.1-1.8 2.1-3.2 2.9l-1.6-1.5c1.1-.7 2-1.5 2.7-2.4c.7-.9 1.1-1.9 1.1-2.9c-.04-.01 0-1.2 0-1.2h2.3s.03 1.19 0 1.2c0 1 .4 2 1 3c.4.5.9.9 1.4 1.3c.5-.4.9-.8 1.3-1.3c.7-1 1-2 1-3c.04-.01 0-1.2 0-1.2zm9.1-12h2.5v5.5h11.3v2.3h-13.8V1.3zm-2.2 12.1v-2.3h17.9v2.3h-17.9zm16 7.7H222v-5.9h2.5v3.6h11.2v2.3zm10.6-5.5V1.8h2.5v11.5s2.01.04 2 0c1.3 0 2.9-.1 4.5-.4c.04.05 0-11.9 0-11.9h2.4v6.7h2.2V1h2.5v20.1h-2.5V10h-2.2v11.1h-2.4s.04-5.87 0-5.9c-1.7.3-3.3.4-4.8.4h-4.2zm29.1-9.5c0 .7-.2 1.3-.5 1.9c-.2.6-.6 1.1-1.1 1.6c-.5.4-1 .7-1.7 1c-.6.3-1.3.4-2.1.4c-.7 0-1.4-.1-2-.4c-.7-.3-1.2-.6-1.7-1c-.5-.5-.9-1-1.2-1.6c-.3-.6-.4-1.2-.4-1.9c0-.6.1-1.3.4-1.9c.3-.6.7-1.1 1.2-1.5c.5-.5 1-.8 1.7-1.1c.6-.2 1.3-.4 2-.4c.8 0 1.5.2 2.1.4c.7.3 1.2.6 1.7 1.1c.5.4.9.9 1.1 1.5c.3.6.5 1.3.5 1.9zm-2.5 0c0-.7-.3-1.4-.8-1.9c-.6-.5-1.3-.8-2.1-.8c-.7 0-1.4.3-2 .8c-.5.5-.8 1.2-.8 1.9c0 .8.3 1.4.8 1.9c.6.5 1.3.8 2 .8c.8 0 1.5-.3 2.1-.8c.5-.5.8-1.1.8-1.9zm8.2-5.1v10.3h-2.5V1h2.5zm.3 20.1h-12.9v-5.4h10.1v-1.4h-10.1v-2h12.6v5.3h-10.2v1.5h10.5v2zm17-15.7c0 .6-.2 1.3-.5 1.8c-.3.6-.7 1.2-1.2 1.6c.04.03 5.1 0 5.1 0v2.1h-17.9V8.8s5.12.03 5.1 0c-.5-.4-.9-1-1.2-1.6c-.2-.5-.4-1.2-.4-1.8c0-.7.2-1.4.4-1.9c.3-.6.7-1.2 1.2-1.6c.5-.5 1.1-.8 1.8-1.1c.6-.3 1.3-.4 2.1-.4c.7 0 1.4.1 2.1.4c.7.3 1.2.6 1.7 1.1c.5.4.9 1 1.2 1.6c.3.5.5 1.2.5 1.9zm-2.5 0c0-.8-.3-1.5-.9-2c-.6-.6-1.3-.9-2.1-.9c-.8 0-1.6.3-2.1.9c-.6.5-.9 1.2-.9 2c0 .8.3 1.5.9 2.1c.5.5 1.3.8 2.1.8c.8 0 1.5-.3 2.1-.8c.6-.6.9-1.3.9-2.1zm3.9 15.7h-13.7v-5.5h11v-1.4h-11v-2h13.5v5.4h-11v1.5h11.2v2zM317.3 4h-4.5v6.1h4.5V4zm2.4 8.3h-9.4V1.8h9.4v10.5zM325 1v5.3h2.7v2.3H325v7.1h-2.5V1h2.5zm.5 20.1h-13v-6.5h2.6v4.2h10.4v2.3zM331 1.4h13.4v2.1h-10.9v2.3h11.1v2H331V1.4zm-2.2 7.8h17.9v2.1h-17.9V9.2zm15.9 11.9H331v-5.2h11v-1.2h-11v-1.9h13.5v5.1h-11v1.2h11.2v2zm15-12.1c-.1.3-.2.7-.4 1c-.3.7-.7 1.3-1.3 1.8c-.5.6-1.1 1-1.8 1.3c-.8.3-1.5.4-2.3.4c-.9 0-1.6-.1-2.3-.4c-.8-.3-1.4-.7-1.9-1.3c-.6-.5-1-1.1-1.3-1.8c-.3-.6-.5-1.4-.5-2.2c0-.7.2-1.5.5-2.2c.3-.6.7-1.2 1.3-1.8c.5-.5 1.1-.9 1.9-1.2c.7-.3 1.4-.4 2.3-.4c.8 0 1.5.1 2.3.4c.7.3 1.3.7 1.8 1.2c.6.6 1 1.2 1.3 1.8c.2.4.3.7.4 1.1c-.03-.03 2.7 0 2.7 0V1h2.5v20.1h-2.5V9s-2.73-.03-2.7 0zm-2.4-1.2c0-.4-.1-.9-.3-1.3c-.2-.4-.4-.8-.7-1.1c-.3-.3-.7-.5-1.1-.7c-.4-.2-.9-.3-1.3-.3c-.5 0-1 .1-1.4.3c-.4.2-.8.4-1.1.7c-.3.3-.5.7-.7 1.1c-.2.4-.3.9-.3 1.3c0 .5.1 1 .3 1.4c.2.4.4.8.7 1.1c.3.3.7.5 1.1.7c.4.2.9.3 1.4.3c.4 0 .9-.1 1.3-.3c.4-.2.8-.4 1.1-.7c.3-.3.5-.7.7-1.1c.2-.4.3-.9.3-1.4zM389.2 1v4.4h2.8v2.2h-2.8v4.3h-2.5V1h2.5zm0 20.1h-12.7v-8.3h2.5v1.7h7.8v-1.7h2.4v8.3zm-2.4-2.2v-2.3H379v2.3h7.8zm-3-17.1c0 3-1 5.3-3 7.2c-1.8 1.6-3.8 2.7-6.2 3.2l-1.2-1.8c2.2-.6 4-1.5 5.2-2.6c1.4-1.2 2.2-2.5 2.4-3.8c-.03-.02-6.2 0-6.2 0V1.8h9zm10.9 13.8V1.8h2.5v11.5s3.57.04 3.6 0c2.1 0 4.2-.1 6.3-.4c.02-.02 0-11.9 0-11.9h2.5v20.1h-2.5s.02-5.94 0-5.9c-2 .2-4.1.4-6.5.4h-5.9zm18.9.3v-14h8.7v2.2h-6.2v9.6s2.5-.01 2.5 0c2.1 0 4.3-.2 6.7-.6V1h2.5v6.5h3v2.4h-3v11.2h-2.5v-5.8c-2.3.4-4.5.6-6.8.6c.03.04-4.9 0-4.9 0z" stroke="none" fill="#fff"/></g></svg>