<?xml version="1.0" standalone="no"?><!DOCTYPE svg PUBLIC "-//W3C//DTD SVG 1.1//EN" "http://www.w3.org/Graphics/SVG/1.1/DTD/svg11.dtd"><svg xmlns="http://www.w3.org/2000/svg" version="1.1" width="443px" height="31px" viewBox="0 -4 443 31" style="top:-4px"><desc>6대 무브</desc><defs/><g id="Polygon111025"><path d="m6.7 16.3c.7 0 1.4-.2 1.9-.7c.5-.6.7-1.2.7-2c0-.8-.2-1.4-.7-1.9c-.5-.5-1.1-.8-2-.8c-1 0-2 .3-2.8.7c0 1.5.2 2.6.8 3.5c.5.8 1.2 1.2 2.1 1.2zM4 9.4c1-.5 1.9-.7 3-.6c1.3 0 2.5.4 3.4 1.2c.9.9 1.4 2 1.4 3.4c0 1.5-.5 2.8-1.5 3.8c-.9.9-2.2 1.4-3.6 1.4c-1.6 0-2.9-.7-3.9-2c-1-1.3-1.5-3-1.5-5.1c0-2.7.6-4.8 1.8-6.4c1.2-1.7 2.8-2.6 4.8-2.8c1-.1 2.1 0 3.1.3v2.2c-1-.2-2-.2-2.9-.2c-1 .1-1.9.5-2.6 1.4c-.8.8-1.3 2-1.5 3.4zm10.6 6.5v-14h6.7v2.2H17v9.6s1.72-.01 1.7 0c1.6 0 3.2-.1 4.8-.4c.01-.01 0-12.3 0-12.3h2.4v6.7h2.2V1h2.4v20.1h-2.4V10h-2.2v11.1h-2.4v-5.6c-1.4.3-3 .4-4.8.4c-.05.04-4.1 0-4.1 0zM52.1 4h-8.5v4.1h8.5V4zm-11-2.3h13.5v8.6H41.1V1.7zm8 13.2v6.5h-2.5v-6.5h-7.7v-2.3h17.9v2.3h-7.7zm24.8-1.6H60.4V1.7h2.5v3.4h8.5V1.7h2.5v11.6zm-2.5-2.2V7.4h-8.5v3.7h8.5zm4.7 5.5v2.2H58.2v-2.2h17.9z" stroke="none" fill="#fff"/></g></svg>