<?xml version="1.0" standalone="no"?><!DOCTYPE svg PUBLIC "-//W3C//DTD SVG 1.1//EN" "http://www.w3.org/Graphics/SVG/1.1/DTD/svg11.dtd"><svg xmlns="http://www.w3.org/2000/svg" version="1.1" width="211.4px" height="27.7px" viewBox="0 -3 211.4 27.7" style="top:-3px"><desc>HAPPY MOVE</desc><defs/><g id="Polygon111673"><path d="m1.4 15V2.4h2.5v4.9h4.8V2.4h2.4V15H8.7V9.5H3.9v5.5H1.4zm19.5 0l-.8-3.3H16l-.9 3.3h-2.6l4.1-12.6h2.9L23.6 15h-2.7zm-4.4-5.2h3s-.36-1.4-.4-1.4c-.2-.7-.3-1.3-.5-2L18 4.3c-.2.7-.4 1.4-.5 2.1l-.6 2l-.4 1.4zM25 15V2.4s4.1-.02 4.1 0c.7 0 1.3 0 1.9.2c.6.1 1.2.3 1.6.6c.4.3.8.7 1 1.2c.3.6.4 1.2.4 1.9c0 .7-.1 1.4-.4 1.9c-.2.5-.6.9-1 1.3c-.4.3-.9.6-1.5.7c-.6.2-1.3.3-1.9.3c-.03-.01-1.7 0-1.7 0v4.5H25zm2.5-6.5h1.5c1.7 0 2.6-.7 2.6-2.2c0-.7-.3-1.2-.7-1.5c-.4-.3-1.1-.4-2-.4c.01-.03-1.4 0-1.4 0v4.1zm8.7 6.5V2.4s4.16-.02 4.2 0c.6 0 1.3 0 1.9.2c.6.1 1.1.3 1.6.6c.4.3.7.7 1 1.2c.3.6.4 1.2.4 1.9c0 .7-.1 1.4-.4 1.9c-.3.5-.6.9-1 1.3c-.5.3-1 .6-1.6.7c-.6.2-1.2.3-1.9.3c.02-.01-1.7 0-1.7 0v4.5h-2.5zm2.5-6.5h1.6c1.7 0 2.5-.7 2.5-2.2c0-.7-.2-1.2-.6-1.5c-.5-.3-1.1-.4-2-.4c-.03-.03-1.5 0-1.5 0v4.1zM49.6 15v-4.6l-3.8-8h2.7s1.26 3.04 1.3 3c.1.5.3 1 .5 1.4c.2.5.4.9.5 1.4h.1c.2-.5.4-.9.6-1.4c.2-.4.4-.9.5-1.4c.03.04 1.3-3 1.3-3h2.6l-3.8 8v4.6h-2.5zM61 15V2.4h2.8s2.17 5.86 2.2 5.9c.1.4.2.8.4 1.2c-.04-.03.3 1.2.3 1.2h.1c.2-.4.3-.8.4-1.2c.1-.4.3-.8.4-1.2c-.01-.04 2.1-5.9 2.1-5.9h2.8V15h-2.3s-.03-5.29 0-5.3v-1c0-.3 0-.7.1-1.1c0-.3 0-.7.1-1c0-.4 0-.7.1-1c-.02-.02-.1 0-.1 0l-1 2.9l-1.9 5.3H66l-1.9-5.3L63 5.6s-.02-.02 0 0c0 .3.1.6.1 1c0 .3.1.7.1 1c0 .4 0 .8.1 1.1v6.3H61zm19.5.2c-.9 0-1.6-.2-2.3-.5c-.7-.3-1.3-.7-1.8-1.3c-.5-.5-.9-1.2-1.1-2c-.3-.8-.5-1.8-.5-2.8c0-1 .2-1.9.5-2.7c.2-.8.6-1.5 1.1-2.1c.5-.5 1.1-.9 1.8-1.2c.7-.3 1.4-.5 2.3-.5c.8 0 1.6.2 2.3.5c.6.3 1.2.7 1.7 1.3c.5.5.9 1.2 1.2 2c.3.8.4 1.7.4 2.7c0 1-.1 2-.4 2.8c-.3.8-.7 1.5-1.2 2c-.5.6-1.1 1-1.7 1.3c-.7.3-1.5.5-2.3.5zm0-2.2c.4 0 .9-.1 1.2-.3c.4-.2.7-.5 1-.9c.3-.4.5-.8.6-1.4c.2-.5.2-1.1.2-1.8c0-1.4-.2-2.4-.8-3.2c-.5-.7-1.3-1.1-2.2-1.1c-1 0-1.7.4-2.3 1.1c-.5.8-.8 1.8-.8 3.2c0 .7.1 1.3.2 1.8c.2.6.4 1 .6 1.4c.3.4.6.7 1 .9c.4.2.8.3 1.3.3zm10.2 2L86.8 2.4h2.7s1.65 6.1 1.7 6.1c.1.7.3 1.4.5 2c.1.7.3 1.3.5 2.1h.1c.2-.8.4-1.4.5-2.1c.2-.6.4-1.3.6-2c-.04 0 1.6-6.1 1.6-6.1h2.5L93.7 15h-3zm8.2 0V2.4h7.7v2.1h-5.2v2.9h4.4v2.1h-4.4v3.4h5.4v2.1h-7.9z" stroke="none" fill="#fff"/></g></svg>