<?xml version="1.0" standalone="no"?><!DOCTYPE svg PUBLIC "-//W3C//DTD SVG 1.1//EN" "http://www.w3.org/Graphics/SVG/1.1/DTD/svg11.dtd"><svg xmlns="http://www.w3.org/2000/svg" version="1.1" width="409.3px" height="26.8px" viewBox="0 -3 409.3 26.8" style="top:-3px"><desc>군인의 품격</desc><defs/><g id="Polygon128092"><path d="m12.7 7.5c0 .05 2.1 0 2.1 0v1.5h-6v3.5H7V9H.9V7.5s10.03.05 10 0c.2-.9.3-1.7.4-2.4v-2c.02-.01-8.7 0-8.7 0V1.7h10.5s-.04 1.26 0 1.3c0 .6-.1 1.3-.1 2c0 .7-.1 1.6-.3 2.5zm-8.4 3.6v3.5h9v1.4H2.6v-4.9h1.7zM29.1.9v11.2h-1.8V.9h1.8zm-4.2 4.9c0 .5-.1 1-.4 1.5c-.2.5-.4.9-.8 1.2c-.4.4-.8.6-1.3.8c-.5.2-1 .3-1.6.3c-.6 0-1.1-.1-1.6-.3c-.5-.2-1-.4-1.3-.8c-.4-.3-.7-.7-.9-1.2c-.2-.5-.3-1-.3-1.5c0-.6.1-1.1.3-1.6c.2-.4.5-.9.9-1.2c.3-.3.8-.6 1.3-.8c.5-.2 1-.3 1.6-.3c.6 0 1.1.1 1.6.3c.5.2.9.5 1.3.8c.4.3.6.8.8 1.2c.3.5.4 1 .4 1.6zm-6.5 0c0 .7.3 1.2.7 1.7c.4.4 1 .6 1.7.6c.3 0 .6 0 .9-.2c.3-.1.6-.2.8-.4c.2-.2.4-.5.5-.8c.1-.3.2-.6.2-.9c0-.4-.1-.7-.2-1c-.1-.3-.3-.5-.5-.7c-.2-.2-.5-.4-.8-.5c-.3-.1-.6-.1-.9-.1c-.7 0-1.3.2-1.7.6c-.4.4-.7 1-.7 1.7zm2.4 8.8h8.7v1.4H19v-5.1h1.8v3.7zM42.8.9h1.8v15.4h-1.8V.9zM36.9 2c.6 0 1.2.1 1.7.3c.5.1.9.4 1.3.7c.4.3.7.7.9 1.2c.2.4.3.9.3 1.5c0 .5-.1 1-.3 1.5c-.2.4-.5.8-.9 1.1c-.4.4-.8.6-1.3.8c-.5.2-1.1.3-1.7.3c-.6 0-1.1-.1-1.6-.3c-.6-.2-1-.4-1.4-.8c-.3-.3-.6-.7-.8-1.1c-.2-.5-.3-1-.3-1.5c0-.6.1-1.1.3-1.5c.2-.5.5-.9.8-1.2c.4-.3.8-.6 1.4-.7c.5-.2 1-.3 1.6-.3zm0 1.5c-.7 0-1.3.2-1.7.6c-.5.4-.7.9-.7 1.6c0 .6.2 1.2.7 1.6c.4.4 1 .6 1.7.6c.7 0 1.3-.2 1.8-.6c.5-.4.7-1 .7-1.6c0-.7-.2-1.2-.7-1.6c-.5-.4-1.1-.6-1.8-.6zM32.3 13l-.3-1.4h2.3c.8 0 1.6 0 2.5-.1c.8 0 1.7-.1 2.6-.1l2.5-.3l.1 1.3l-2.5.3c-.9.1-1.8.2-2.6.2c-.8.1-1.6.1-2.4.1h-2.2zm22.4-7.4V2.8h-2.2V1.4h11.4v1.4h-2.2v2.8h2.1v1.4H52.6V5.6h2.1zm5.2 0V2.8h-3.5v2.8h3.5zm5.2 4h-6v1.6h4.3v4.9H52.9v-4.9h4.4V9.6h-6.1V8.2h13.9v1.4zm-3.4 5.1v-2.1h-7.1v2.1h7.1zM77.8.9h1.7v9.2h-1.7V8.2h-3.7V6.8h3.7V4.9s-3.51.05-3.5 0C73.8 6.1 73 7.2 71.9 8c-1.1.9-2.5 1.5-4.2 1.9L67 8.6c1.8-.5 3.3-1.2 4.3-2.1c1-.9 1.6-2 1.7-3.2c.01.03-5.2 0-5.2 0V1.9s7.08.02 7.1 0c0 .3 0 .6-.1.9c0 .2 0 .5-.1.7c.01.04 3.1 0 3.1 0V.9zm-8.6 11.2v-1.4h10.3v5.5h-1.7v-4.1h-8.6z" stroke="none" fill="#111111"/></g></svg>