<?xml version="1.0" standalone="no"?><!DOCTYPE svg PUBLIC "-//W3C//DTD SVG 1.1//EN" "http://www.w3.org/Graphics/SVG/1.1/DTD/svg11.dtd"><svg xmlns="http://www.w3.org/2000/svg" version="1.1" width="167px" height="19.6px" viewBox="0 -2 167 19.6" style="top:-2px"><desc>전동화키트 셰어링 ‘휠셰어’</desc><defs/><g id="Polygon114534"><path d="m6.4 3.4h1.8V.5h1.6v8.1H8.2V4.7H6.4V3.4zm.8 2.5l-.8 1.3c-.6-.2-1.1-.5-1.5-.9c-.4-.4-.8-.8-1-1.3c-.2.5-.6 1-1 1.4c-.5.5-1 .8-1.7 1L.5 6.1c.4-.1.8-.3 1.1-.6c.4-.2.6-.5.8-.8c.3-.3.4-.6.5-1c.1-.3.2-.7.2-1c-.04 0 0-.2 0-.2H.9V1.3h5.9v1.2H4.7s-.02.19 0 .2c0 .3 0 .6.1 1c.1.3.3.6.5.9c.2.3.4.5.8.8c.3.2.6.4 1.1.5zm-3.1 4.2h5.9v1.3H2.5V7.9h1.6v2.2zm13.2-4.4h4.2v1.3h-10V5.7h4.2v-.9h-3V1h7.6v1.3h-6v1.3h6.1v1.2h-3.1v.9zm-.8 1.8c1.2 0 2.1.2 2.8.6c.7.3 1 .8 1 1.5c0 .6-.3 1.1-1 1.5c-.7.3-1.6.5-2.8.5c-1.2 0-2.2-.2-2.8-.5c-.7-.4-1.1-.9-1.1-1.5c0-.7.4-1.2 1.1-1.5c.6-.4 1.6-.6 2.8-.6zm0 2.9c.7 0 1.3-.1 1.6-.2c.4-.1.6-.3.6-.6c0-.6-.7-.9-2.2-.9c-1.5 0-2.3.3-2.3.9c0 .3.2.5.6.6c.4.1.9.2 1.7.2zM32.6 5v1.3h-1.3v5.3h-1.6V.5h1.6v4.5h1.3zm-3.5-3.2v1.2h-6.5V1.8h2.4V.6h1.6v1.2h2.5zm-2.5 5.7v.9c.4 0 .9-.1 1.3-.1c.4 0 .8-.1 1.2-.1l.1 1.1l-1.7.3c-.6 0-1.2.1-1.8.1c-.6 0-1.1 0-1.6.1h-1.6c.05-.04-.1-1.3-.1-1.3c0 0 1.24-.03 1.2 0c.5 0 .9 0 1.4-.1v-.9c-.5-.1-1-.3-1.4-.7c-.3-.3-.5-.8-.5-1.3c0-.3.1-.6.2-.8c.2-.3.3-.5.6-.7c.2-.2.5-.3.8-.4c.4-.1.7-.2 1.1-.2c.4 0 .8.1 1.1.2c.3.1.6.2.9.4c.2.2.4.4.5.7c.2.2.2.5.2.8c0 .5-.2 1-.5 1.3c-.3.4-.8.6-1.4.7zm-2-2c0 .3.1.5.4.7c.2.1.5.2.8.2c.4 0 .7-.1.9-.2c.2-.2.3-.4.3-.7c0-.3-.1-.5-.3-.6c-.2-.2-.5-.3-.9-.3c-.3 0-.6.1-.8.3c-.3.1-.4.3-.4.6zm16.5-5h1.6v11.1h-1.6V.5zm-6.9 1.1h5.2c0 .9 0 1.7-.2 2.5c-.1.7-.4 1.5-.7 2.2c-.4.7-.9 1.4-1.6 2c-.6.6-1.5 1.2-2.5 1.7l-.9-1.3c1-.4 1.7-.9 2.3-1.4c.5-.5 1-1.1 1.3-1.7c.03-.02-3.3.3-3.3.3l-.2-1.4s4.03-.18 4-.2c.1-.2.1-.4.2-.7c0-.2 0-.5.1-.7c-.03-.04-3.7 0-3.7 0V1.6zm19.2 4.6v1.3h-7.8V1.3h7.7v1.3h-6.1v1.2h5.8v1.2h-5.8v1.2h6.2zm-9 2.8h10v1.3h-10V9zM66.1.5h1.5v11.1h-1.5V.5zm-2.3 2.4V.7h1.5v10.4h-1.5V6.6h-1.3V5.4h1.3V4.2h-1.3V2.9h1.3zm-2.3-1.4s.05 2 0 2c0 .5.1.9.1 1.4c.1.4.2.8.4 1.2c.1.4.3.8.6 1.2c.2.3.5.6.9.8l-.9 1.2c-.4-.2-.8-.6-1.1-1.1c-.3-.4-.6-1-.7-1.5c-.2.6-.5 1.1-.8 1.6c-.3.5-.7.9-1.2 1.2l-1-1.2c.4-.2.8-.5 1.1-.9c.2-.3.5-.7.6-1.1c.2-.5.3-.9.4-1.4c.1-.4.1-.9.1-1.4v-2h1.5zm15.3-1h1.5v11.1h-1.5V5.8h-1.9c0 .5-.1 1-.3 1.4c-.1.4-.3.8-.6 1.1c-.2.3-.5.5-.8.7c-.4.1-.7.2-1.1.2c-.4 0-.8-.1-1.2-.3c-.3-.2-.6-.4-.9-.8c-.2-.3-.4-.7-.6-1.2c-.1-.5-.2-1-.2-1.7c0-.6.1-1.1.2-1.6c.2-.5.4-.9.6-1.2c.3-.4.6-.6.9-.8c.4-.2.8-.3 1.2-.3c.4 0 .7.1 1 .2c.3.2.6.4.9.7c.2.2.4.6.6 1c.1.4.2.8.3 1.3h1.9v-4zm-4.7 7.3c.4 0 .7-.2 1-.7c.2-.4.3-1 .3-1.9c0-.8-.1-1.4-.3-1.8c-.3-.5-.6-.7-1-.7c-.4 0-.8.2-1 .7c-.2.4-.4 1-.4 1.8c0 .9.2 1.5.4 1.9c.2.5.6.7 1 .7zM89.2.5v6.7h-1.6V.5h1.6zm-2.5 4.7l.2 1.3c-.4.1-.8.1-1.2.2c-.4 0-.8 0-1.3.1h-3.8V3.4h3.5v-1h-3.5V1.2h5.1v3.4h-3.5s-.04.93 0 .9h2.4c.3-.1.7-.1 1-.1c.4-.1.8-.1 1.1-.2zm-1.2 2.3c.6 0 1.1 0 1.6.1c.5.1.9.2 1.2.4c.3.2.6.4.7.7c.2.2.3.5.3.8c0 .4-.1.6-.3.9c-.1.3-.4.5-.7.7c-.3.1-.7.3-1.2.4c-.5.1-1 .1-1.6.1c-.6 0-1.1 0-1.6-.1c-.4-.1-.8-.3-1.2-.4c-.3-.2-.5-.4-.7-.7c-.2-.3-.3-.5-.3-.9c0-.3.1-.6.3-.8c.2-.3.4-.5.7-.7c.4-.2.8-.3 1.2-.4c.5-.1 1-.1 1.6-.1zm-2.2 2c0 .6.7.9 2.2.9c1.5 0 2.2-.3 2.2-.9c0-.5-.7-.8-2.2-.8c-1.5 0-2.2.3-2.2.8zM94 3.8s-.03-1.7 0-1.7c0-.3 0-.5.1-.7c.1-.3.2-.5.3-.6c.2-.2.4-.4.6-.5c.2-.1.4-.2.7-.2v.8c-.3.1-.5.2-.6.4c-.2.2-.2.5-.2.8h.8v1.7H94zm9.5-2.5v1h-6.4v-1h2.4v-.9h1.6v.9h2.4zm2.4-.7v6.5h-1.6V.6h1.6zM97.6 4c0-.5.2-.8.7-1.1c.5-.3 1.2-.4 2-.4c.8 0 1.5.1 2 .4c.4.3.7.6.7 1.1c0 .4-.3.8-.7 1.1c-.5.2-1.2.3-2 .3c-.8 0-1.5-.1-2-.3c-.5-.3-.7-.7-.7-1.1zm3.9 0c0-.2-.1-.3-.3-.4c-.2-.1-.5-.1-.9-.1c-.4 0-.7 0-.9.1c-.2.1-.3.2-.3.4c0 .1.1.3.3.3c.2.1.5.2.9.2c.4 0 .7-.1.9-.2c.2 0 .3-.2.3-.3zm-1.6 6.5h6.3v1h-7.8V9h5.9v-.5h-5.9v-1h1.1s.02-.66 0-.7c-.5.1-.9.1-1.4.1h-1.2l-.2-1.1h3.4c.6-.1 1.2-.1 1.8-.1c.6-.1 1.2-.1 1.8-.2l.1 1l-2.7.3v.7h4.8v2.4h-6v.6zm15.7-10h1.5v11.1h-1.5V.5zm-2.2 2.4V.7h1.5v10.4h-1.5V6.6h-1.3V5.4h1.3V4.2h-1.3V2.9h1.3zm-2.3-1.4v2c0 .5 0 .9.1 1.4l.3 1.2l.6 1.2c.3.3.6.6 1 .8l-.9 1.2c-.5-.2-.8-.6-1.2-1.1c-.3-.4-.5-1-.7-1.5c-.2.6-.4 1.1-.7 1.6c-.4.5-.8.9-1.3 1.2l-.9-1.2c.4-.2.7-.5 1-.9c.3-.3.5-.7.7-1.1c.2-.5.3-.9.4-1.4c0-.4.1-.9.1-1.4c-.03 0 0-2 0-2h1.5zm15.2-1h1.6v11.1h-1.6V5.8h-1.8c-.1.5-.2 1-.3 1.4c-.2.4-.4.8-.6 1.1c-.3.3-.6.5-.9.7c-.3.1-.7.2-1.1.2c-.4 0-.7-.1-1.1-.3c-.3-.2-.7-.4-.9-.8c-.3-.3-.5-.7-.6-1.2c-.1-.5-.2-1-.2-1.7c0-.6.1-1.1.2-1.6c.1-.5.3-.9.6-1.2c.2-.4.6-.6.9-.8c.4-.2.7-.3 1.1-.3c.4 0 .8.1 1.1.2c.3.2.6.4.8.7c.3.2.5.6.6 1c.2.4.3.8.4 1.3c-.04.01 1.8 0 1.8 0v-4zm-4.7 7.3c.5 0 .8-.2 1-.7c.3-.4.4-1 .4-1.9c0-.8-.1-1.4-.4-1.8c-.2-.5-.5-.7-1-.7c-.4 0-.7.2-.9.7c-.3.4-.4 1-.4 1.8c0 .9.1 1.5.4 1.9c.2.5.5.7.9.7zm9.8-7.7s-.05 1.7 0 1.7c0 .3-.1.5-.2.7c0 .3-.2.5-.3.6c-.2.2-.3.4-.6.5c-.2.1-.4.2-.7.2v-.8c.3-.1.5-.2.7-.4c.1-.2.1-.5.1-.8h-.7V.1h1.7z" stroke="none" fill="#fff"/></g></svg>