<?xml version="1.0" standalone="no"?><!DOCTYPE svg PUBLIC "-//W3C//DTD SVG 1.1//EN" "http://www.w3.org/Graphics/SVG/1.1/DTD/svg11.dtd"><svg xmlns="http://www.w3.org/2000/svg" version="1.1" width="199.3px" height="23.3px" viewBox="0 -2 199.3 23.3" style="top:-2px"><desc>수거된 폐장난감 무게 (단위: 톤)</desc><defs/><g id="Polygon115505"><path d="m8.5 3.9l-.4.9c-.8-.1-1.5-.4-2.1-.7c-.6-.4-1-.9-1.3-1.4c-.3.6-.8 1-1.3 1.4c-.6.3-1.3.6-2.1.7l-.4-.9c.5 0 .9-.1 1.3-.3c.4-.2.7-.4 1-.6c.3-.2.5-.5.7-.8c.1-.3.2-.6.2-.9c.03.04 0-.5 0-.5h1.1s.04.54 0 .5c0 .3.1.6.3.9c.2.3.4.6.7.8c.3.2.6.4 1 .6c.4.2.8.3 1.3.3zm.3 1.8v.8H5.2v3.3H4.1V6.5H.5v-.8h8.3zM16.3.6h1v9.2h-1V5h-2v-.8h2V.6zm-6.2.9s4.23.02 4.2 0c0 .7 0 1.3-.2 2c-.1.6-.3 1.2-.7 1.7c-.3.6-.7 1.1-1.2 1.6c-.6.5-1.2.9-2 1.3l-.6-.8c.6-.3 1.2-.7 1.6-1c.4-.4.8-.7 1.1-1.1c.3-.4.5-.9.7-1.3l.3-1.5c-.04-.02-3.2 0-3.2 0v-.9zm16.4-1v7h-1.1v-7h1.1zm-1.7 4.8v.7c-.4.1-.9.2-1.4.2c-.5 0-1 .1-1.5.1h-1.5c-.5.1-.9.1-1.3.1l-.2-.9h2.5V4.3h-1.7V1.1h4.4v.9h-3.3v1.5h3.4v.8h-1.7s-.04 1.13 0 1.1h1.1c.4-.1.8-.1 1.2-.1zm-3.3 3.4h5.3v.9h-6.4V7h1.1v1.7zM37.1.5h1v9.3h-1V.5zm-1.8 2.6V.8h1v8.5h-1V5.9h-1.1v-.9h1.1v-1h-1.1v-.9h1.1zm-1.6-.6s.03 4.12 0 4.1h.5c-.04-.02.4-.1.4-.1c0 0 .04.8 0 .8c-.3.1-.7.1-1.1.2h-1.2c-.4.1-.8.1-1.1.1h-1c-.04 0-.2-.9-.2-.9h.9V2.5h-.7v-.9h4.2v.9h-.7zm-1.9 0v4.2h1V2.5h-1zm14.7.3h1.3v.9h-1.3v2.4h-1V.6h1v2.2zm-1.8 2.1l-.5.8c-.5-.2-.9-.4-1.3-.7c-.4-.3-.6-.7-.8-1.1c-.2.4-.5.9-.9 1.3c-.4.3-.9.6-1.4.8l-.6-.8c.4-.2.7-.3 1-.5c.3-.2.5-.5.7-.7c.2-.3.3-.5.4-.8c.1-.3.2-.7.2-1v-.1h-2v-.9h5v.9h-1.9s-.05.12 0 .1c0 .3 0 .6.1.9c.1.2.2.5.4.7c.2.2.4.5.7.6c.3.2.6.4.9.5zm-1.2 1.4c.5 0 .9 0 1.3.1c.4.1.7.2 1 .3c.3.2.5.4.6.6c.1.2.2.4.2.7c0 .3-.1.5-.2.8c-.1.2-.3.4-.6.5c-.3.2-.6.3-1 .3c-.4.1-.8.2-1.3.2c-.4 0-.9-.1-1.2-.2c-.4 0-.7-.1-1-.3c-.3-.1-.5-.3-.6-.5c-.2-.3-.2-.5-.2-.8c0-.3 0-.5.2-.7c.1-.2.3-.4.6-.6c.3-.1.6-.2 1-.3c.3-.1.8-.1 1.2-.1zm0 2.6c.7 0 1.2 0 1.6-.2c.3-.1.5-.4.5-.7c0-.3-.2-.5-.5-.7c-.4-.1-.9-.2-1.6-.2c-.6 0-1.1.1-1.5.2c-.3.2-.5.4-.5.7c0 .3.2.6.5.7c.4.2.9.2 1.5.2zm12.2-5.7h1.3v.9h-1.3v3.1h-1.1V.6h1.1v2.6zm-1.9 1.1l.1.9c-.7.2-1.5.3-2.2.3c-.7.1-1.4.1-2 .1h-.8V1.2h1.1s-.04 3.53 0 3.5c.6 0 1.2 0 1.8-.1c.6 0 1.3-.1 2-.3zm-2.9 2.3v2.1h5.1v.9h-6.1v-3h1zm15.3-3.9v.8h-1.3v2.2h-1.1V.5h1.1v2.2h1.3zM58 1.1h4.3c0 .6-.1 1.2-.2 1.7c-.2.5-.5.9-.9 1.3c-.4.4-.8.8-1.3 1.1c-.6.3-1.2.5-1.9.7l-.4-.9c1.1-.2 2-.6 2.6-1.2c.6-.5.9-1.1 1-1.8c.01-.04-3.2 0-3.2 0v-.9zm1 8.5V6.1h5.9v3.5H59zM60 7v1.8h3.8V7H60zm16.2-6v3.7H70V1h6.2zm-1 2.8V1.9H71v1.9h4.2zm2.1 2v.9h-3.7v3.1h-1V6.7h-3.7v-.9h8.4zM85 .6h1v9.2h-1V.6zm-1.9 3.6V.8h.9v8.5h-.9V5.1s-1.73-.04-1.7 0c-.3.5-.7 1-1.1 1.4c-.4.5-1 .9-1.6 1.3l-.6-.7c.9-.6 1.6-1.3 2.1-2c.5-.8.8-1.6.8-2.6c.05.03-2.5 0-2.5 0v-.8s3.59-.02 3.6 0c0 .4 0 .9-.1 1.3l-.3 1.2h1.4zm8.9 5.9l-.7.4c-.5-.8-.9-1.6-1.1-2.5c-.3-.8-.4-1.8-.4-2.8c0-1 .1-1.9.4-2.8c.2-.8.6-1.6 1.1-2.4l.7.3c-.4.8-.8 1.6-1 2.4c-.2.8-.3 1.6-.3 2.5c0 .9.1 1.8.3 2.6c.2.8.6 1.6 1 2.3zm8-6.9h1.3v.8H100v3.2h-1.1V.5h1.1v2.7zm-1.9 1.3l.1.8c-.3.1-.6.1-.9.2c-.3 0-.6.1-1 .1h-2.4c.02.04-.7 0-.7 0V1.3h4.1v.9h-3.1s.03 2.57 0 2.6h1.2c.4 0 .7-.1 1-.1c.3 0 .6 0 .8-.1c.3 0 .6-.1.9-.1zm-2.9 2v2.2h5.2v.9h-6.2V6.5h1zM108.5.6h1.1v9.2h-1.1V.6zM105 4.8c-.4 0-.7 0-1-.1c-.3-.1-.5-.3-.7-.4c-.2-.2-.4-.4-.5-.6c-.1-.3-.2-.5-.2-.8c0-.3.1-.6.2-.8c.1-.2.3-.4.5-.6c.2-.2.4-.3.7-.4c.3-.1.6-.2 1-.2c.3 0 .6.1.9.2c.3.1.6.2.8.4c.2.2.4.4.5.6c.1.2.2.5.2.8c0 .3-.1.5-.2.8c-.1.2-.3.4-.5.6c-.2.1-.5.3-.8.4c-.3.1-.6.1-.9.1zm0-3c-.4 0-.8.1-1 .3c-.3.2-.4.5-.4.8c0 .3.1.6.4.8c.2.2.6.2 1 .2c.4 0 .7 0 1-.2c.2-.2.3-.5.3-.8c0-.3-.1-.6-.3-.8c-.3-.2-.6-.3-1-.3zm2.9 3.4l.1.7c-.4.1-.8.2-1.2.2c-.4.1-.8.1-1.3.2c.05-.05 0 3.2 0 3.2h-1V6.3h-1.3c-.3.1-.7.1-1.1.1l-.1-.9h1.3c.5 0 1 0 1.5-.1c.6 0 1.1 0 1.6-.1c.5 0 1-.1 1.5-.1zm4.7-2.3v1.3h-1.2V2.9h1.2zm0 4.2v1.3h-1.2V7.1h1.2zm7.8-1.4h3.6v.8h-8.3v-.8h3.6v-.8h-2.5v-4h6.2v.8h-5.2v.8h5v.8h-5v.8h5.3v.8h-2.7v.8zm-2.6 1.4v1.6h5.4v.9h-6.5V7.1h1.1zm7.8 3.4l-.8-.4c.5-.7.8-1.5 1-2.3c.2-.8.3-1.7.3-2.6c0-.9-.1-1.7-.3-2.5c-.2-.8-.5-1.6-1-2.4l.8-.3c.5.8.8 1.6 1.1 2.4c.3.9.4 1.8.4 2.8c0 1-.2 2-.4 2.8c-.3.9-.7 1.7-1.1 2.5z" stroke="none" fill="#949596"/></g></svg>