<?xml version="1.0" standalone="no"?><!DOCTYPE svg PUBLIC "-//W3C//DTD SVG 1.1//EN" "http://www.w3.org/Graphics/SVG/1.1/DTD/svg11.dtd"><svg xmlns="http://www.w3.org/2000/svg" version="1.1" width="414.3px" height="26.8px" viewBox="0 -3 414.3 26.8" style="top:-3px"><desc>수동휠체어 전동화키트 셰어링 ‘휠셰어’</desc><defs/><g id="Polygon119555"><path d="m14.1 6.6L13.5 8c-1.3-.2-2.5-.6-3.5-1.2c-.9-.6-1.7-1.4-2.2-2.3c-.5.9-1.2 1.7-2.2 2.3c-1 .6-2.1 1-3.4 1.2l-.7-1.4c.8-.1 1.5-.3 2.1-.6c.7-.3 1.3-.6 1.8-1c.4-.4.8-.8 1.1-1.3c.2-.5.4-1 .4-1.5v-.8h1.8s.04.83 0 .8c0 .5.2 1 .4 1.5c.3.5.7.9 1.2 1.3c.5.4 1 .7 1.7 1c.7.3 1.4.5 2.1.6zm.6 2.8v1.5H8.6v5.4H6.9v-5.4h-6V9.4h13.8zm9.5-1.1h6.1v1.5H16.4V8.3h6.1V6.8h-4.3V1.6h10.4v1.4h-8.7v2.4h8.8v1.4h-4.5v1.5zm-.9 2.4c1.7 0 3 .2 3.9.7c.9.5 1.4 1.2 1.4 2.1c0 .9-.4 1.6-1.4 2.1c-.9.4-2.2.7-3.9.7c-.8 0-1.5-.1-2.2-.2c-.6-.1-1.2-.3-1.7-.5c-.4-.3-.8-.6-1-.9c-.2-.4-.4-.8-.4-1.2c0-.5.2-.9.4-1.2c.2-.3.6-.6 1-.9c.5-.2 1.1-.4 1.7-.5c.7-.1 1.4-.2 2.2-.2zm0 4.2c1.2 0 2-.1 2.6-.3c.6-.3.9-.6.9-1.1c0-.5-.3-.9-.9-1.1c-.6-.2-1.4-.4-2.6-.4c-1.1 0-2 .2-2.6.4c-.6.2-.9.6-.9 1.1c0 .5.3.8.9 1.1c.6.2 1.5.3 2.6.3zM41.5 2v1.2h-8.9V2h3.6V.7h1.7v1.3h3.6zM44.6.9v9.1h-1.8V.9h1.8zM33.4 5.7c0-.7.3-1.2 1-1.5c.6-.4 1.5-.6 2.6-.6c1.2 0 2.1.2 2.7.6c.7.3 1 .8 1 1.5c0 .6-.3 1.1-1 1.5c-.6.4-1.5.5-2.7.5c-1.1 0-2-.1-2.6-.5c-.7-.4-1-.9-1-1.5zm5.7 0c0-.3-.2-.5-.6-.7c-.3-.2-.8-.3-1.5-.3c-.6 0-1.1.1-1.4.3c-.4.2-.6.4-.6.7c0 .3.2.5.6.7c.3.1.8.2 1.4.2c.7 0 1.2-.1 1.5-.2c.4-.2.6-.4.6-.7zm-3 9.2h8.9v1.2H34.4v-3.3h8.5v-1h-8.6v-1.2h1.9s-.01-1.06 0-1.1c-.7.1-1.4.1-2.1.1h-1.9L32 8.4c.7 0 1.5 0 2.3-.1h2.5c.9 0 1.7-.1 2.6-.1c.8-.1 1.7-.2 2.5-.2l.1 1l-2 .3c-.7.1-1.4.1-2.1.2c.04-.05 0 1.1 0 1.1h6.7v3.3h-8.5v1zM59 .9h1.6v15.4H59V.9zm-3.1 6V1.2h1.6v14.3h-1.6V8.3h-2.1V6.9h2.1zm-3.8-1.8s.04.51 0 .5c0 .6.1 1.2.2 1.8c.2.6.4 1.1.6 1.7c.3.5.6 1 1 1.4c.4.5.9.8 1.4 1.1l-1 1.3c-.7-.4-1.3-.9-1.8-1.6c-.5-.6-.9-1.4-1.2-2.3c-.2 1-.6 1.8-1.1 2.5c-.5.7-1.1 1.3-1.9 1.7l-1-1.3c.6-.3 1-.7 1.4-1.1c.4-.5.7-1 1-1.6c.3-.5.5-1.1.6-1.7c.1-.7.2-1.3.2-1.9c-.03.01 0-.5 0-.5h-2.7V3.6h2.7V1.4h1.6v2.2h2.7v1.5h-2.7zm22-4.2h1.7v15.4h-1.7V8.1s-3.01-.04-3 0c-.1.7-.2 1.4-.4 2c-.2.6-.5 1.1-.8 1.5c-.4.4-.8.7-1.2.9c-.5.3-1 .4-1.5.4c-.5 0-1.1-.2-1.5-.4c-.5-.3-.9-.6-1.3-1.1c-.3-.5-.6-1-.8-1.7c-.2-.7-.3-1.4-.3-2.3c0-.8.1-1.5.3-2.2c.2-.7.5-1.2.8-1.7c.4-.5.8-.8 1.3-1.1c.4-.2 1-.4 1.5-.4c.5 0 1 .1 1.5.4c.4.2.8.5 1.1.9c.4.4.7.9.9 1.4c.2.6.3 1.2.4 1.9c-.02.03 3 0 3 0V.9zm-6.9 10.4c.7 0 1.2-.3 1.6-1c.4-.7.6-1.6.6-2.9c0-1.2-.2-2.1-.6-2.8c-.4-.6-.9-1-1.6-1c-.6 0-1.2.4-1.6 1c-.4.7-.6 1.6-.6 2.8c0 1.3.2 2.2.6 2.9c.4.7 1 1 1.6 1zM90.5 5h2.8V.9h1.8v11.3h-1.8V6.5h-2.8V5zm1 3.6l-.9 1.4c-.8-.3-1.6-.7-2.2-1.3c-.6-.6-1-1.3-1.4-2c-.3.8-.8 1.6-1.4 2.2c-.7.6-1.4 1.1-2.4 1.4l-.9-1.4c.6-.2 1.2-.4 1.6-.8c.5-.3.9-.7 1.2-1.2c.4-.4.6-.9.8-1.4c.1-.5.2-1 .2-1.5c.02.01 0-.5 0-.5h-3.2V2.1h8.2v1.4h-3.2v.5c0 .5.1 1 .2 1.4c.2.5.4.9.7 1.3c.3.4.7.8 1.2 1.1c.4.3.9.6 1.5.8zm-4.6 6h8.6v1.4H85.1v-4.8h1.8v3.4zm18.8-6.3h6.1v1.5H97.9V8.3h6.1V6.8h-4.3V1.6h10.4v1.4h-8.7v2.4h8.8v1.4h-4.5v1.5zm-.9 2.4c1.7 0 3 .2 3.9.7c.9.5 1.4 1.2 1.4 2.1c0 .9-.4 1.6-1.4 2.1c-.9.4-2.2.7-3.9.7c-.8 0-1.5-.1-2.2-.2c-.6-.1-1.2-.3-1.7-.5c-.4-.3-.8-.6-1-.9c-.2-.4-.4-.8-.4-1.2c0-.5.2-.9.4-1.2c.2-.3.6-.6 1-.9c.5-.2 1.1-.4 1.7-.5c.7-.1 1.4-.2 2.2-.2zm0 4.2c1.2 0 2-.1 2.6-.3c.6-.3.9-.6.9-1.1c0-.5-.3-.9-.9-1.1c-.6-.2-1.4-.4-2.6-.4c-1.1 0-2 .2-2.6.4c-.6.2-.9.6-.9 1.1c0 .5.3.8.9 1.1c.6.2 1.5.3 2.6.3zm22.9-7.6v1.5h-2.2v7.5h-1.8V.9h1.8v6.4h2.2zm-5-4.6v1.4h-9.1V2.7h3.7V1h1.7v1.7h3.7zm-3.7 7.8v1.5c.7-.1 1.3-.1 2-.2c.6 0 1.2-.1 1.9-.2l.1 1.3c-.8.2-1.7.3-2.5.4c-.8 0-1.7.1-2.5.1c-.8.1-1.6.1-2.3.1h-2.2l-.2-1.4h1.9c.7 0 1.4-.1 2.1-.1v-1.5c-.9-.1-1.6-.4-2.1-.9c-.5-.5-.7-1.1-.7-1.9c0-.4.1-.8.2-1.1c.2-.4.5-.7.8-1c.3-.2.7-.4 1.2-.5c.4-.2.9-.2 1.4-.2c.6 0 1.1 0 1.5.2c.5.1.9.3 1.2.5c.3.3.6.6.8 1c.1.3.2.7.2 1.1c0 .8-.2 1.4-.7 1.9c-.6.5-1.2.8-2.1.9zm-2.9-2.8c0 .5.2.9.6 1.1c.3.3.8.4 1.4.4c.7 0 1.2-.1 1.5-.4c.4-.2.6-.6.6-1.1c0-.4-.2-.8-.6-1.1c-.3-.3-.8-.4-1.5-.4c-.6 0-1.1.1-1.4.4c-.4.3-.6.7-.6 1.1zM139.9.9h1.8v15.4h-1.8V.9zm-9.8 1.5s7.16.05 7.2 0c0 1.2-.1 2.3-.4 3.4c-.2 1-.5 2.1-1.1 3c-.5 1-1.2 1.9-2.1 2.8c-1 .8-2.1 1.6-3.5 2.3l-1-1.4c1.4-.7 2.5-1.4 3.4-2.2c.8-.8 1.5-1.7 1.9-2.6c.04-.02-4.9.4-4.9.4l-.3-1.5s5.78-.33 5.8-.3c.2-.7.3-1.4.4-2.4c.01-.02-5.4 0-5.4 0V2.4zM156.9 9v1.4h-10.6V2.2h10.5v1.4h-8.7v1.9h8.4v1.4h-8.4v2.1h8.8zm-12.3 4h13.9v1.4h-13.9V13zM175.3.9h1.7v15.4h-1.7V.9zm-3.1 3.5V1.2h1.6v14.4h-1.6V9.2h-2.1V7.8h2.1v-2h-2.1V4.4h2.1zm-3.7-2.1v2.9c0 .7.1 1.3.2 1.9c.1.6.3 1.2.5 1.8c.3.5.6 1.1 1 1.5c.3.5.8.9 1.3 1.2l-1 1.4c-.7-.5-1.3-1.1-1.8-1.8c-.4-.7-.8-1.5-1-2.4c-.3 1-.7 1.8-1.2 2.6c-.5.8-1.1 1.4-1.9 1.8l-1-1.3c.6-.3 1-.7 1.4-1.2c.4-.5.7-1 1-1.6c.3-.6.5-1.2.6-1.9c.1-.6.2-1.3.2-2V2.3h1.7zM190.4.9h1.8v15.4h-1.8V8.1s-2.98-.04-3 0c0 .7-.2 1.4-.4 2c-.2.6-.5 1.1-.8 1.5c-.3.4-.7.7-1.2.9c-.4.3-.9.4-1.5.4c-.5 0-1-.2-1.5-.4c-.5-.3-.9-.6-1.2-1.1c-.4-.5-.6-1-.8-1.7c-.2-.7-.3-1.4-.3-2.3c0-.8.1-1.5.3-2.2c.2-.7.4-1.2.8-1.7c.3-.5.7-.8 1.2-1.1c.5-.2 1-.4 1.5-.4c.6 0 1 .1 1.5.4c.4.2.8.5 1.2.9c.3.4.6.9.8 1.4c.2.6.4 1.2.4 1.9c.01.03 3 0 3 0V.9zm-6.9 10.4c.7 0 1.3-.3 1.7-1c.4-.7.6-1.6.6-2.9c0-1.2-.2-2.1-.6-2.8c-.4-.6-1-1-1.7-1c-.6 0-1.1.4-1.5 1c-.5.7-.7 1.6-.7 2.8c0 1.3.2 2.2.7 2.9c.4.7.9 1 1.5 1zM207.6.9v9.4h-1.7V.9h1.7zm-3.3 6.7l.2 1.4l-1.8.3c-.6.1-1.1.1-1.7.1c-.6.1-1.2.1-1.9.1h-3.3V5h5.2V3.3h-5.3V1.9h7v4.4h-5.2s-.01 1.78 0 1.8c.7 0 1.3 0 1.9-.1h1.6c.6-.1 1.1-.1 1.6-.2c.6 0 1.1-.1 1.7-.2zm-1.8 3c.8 0 1.6.1 2.2.2c.6.1 1.2.3 1.6.6c.5.2.8.5 1.1.9c.2.3.3.7.3 1.1c0 .5-.1.9-.3 1.2c-.3.4-.6.7-1.1.9c-.4.3-1 .5-1.6.6c-.6.1-1.4.2-2.2.2c-.8 0-1.5-.1-2.1-.2c-.7-.1-1.2-.3-1.7-.6c-.4-.2-.8-.5-1-.9c-.2-.3-.4-.7-.4-1.2c0-.4.2-.8.4-1.1c.2-.4.6-.7 1-.9c.5-.3 1-.5 1.7-.6c.6-.1 1.3-.2 2.1-.2zm0 4.3c1.2 0 2-.1 2.6-.4c.6-.2.9-.6.9-1.1c0-.4-.3-.8-.9-1c-.6-.3-1.4-.4-2.6-.4c-1.1 0-1.9.1-2.5.4c-.6.2-.9.6-.9 1c0 .5.3.9.9 1.1c.6.3 1.4.4 2.5.4zm13.7-12.6v2.2h-2s-.03-2.15 0-2.2c0-.6.1-1.1.5-1.5c.4-.5.8-.7 1.5-.8v.9c-.4.1-.7.2-.8.5c-.1.3-.2.6-.2.9c-.01.05 1 0 1 0zm10.9-.3v1.2h-8.9V2h3.6V.7h1.7v1.3h3.6zm3.1-1.1v9.1h-1.8V.9h1.8zM219 5.7c0-.7.3-1.2 1-1.5c.7-.4 1.5-.6 2.7-.6c1.1 0 2 .2 2.6.6c.7.3 1 .8 1 1.5c0 .6-.3 1.1-1 1.5c-.6.4-1.5.5-2.6.5c-1.2 0-2-.1-2.7-.5c-.7-.4-1-.9-1-1.5zm5.7 0c0-.3-.2-.5-.5-.7c-.4-.2-.9-.3-1.5-.3c-.7 0-1.2.1-1.5.3c-.4.2-.5.4-.5.7c0 .3.1.5.5.7c.3.1.8.2 1.5.2c.6 0 1.1-.1 1.5-.2c.3-.2.5-.4.5-.7zm-3 9.2h9v1.2H220v-3.3h8.5v-1h-8.6v-1.2h1.9s.02-1.06 0-1.1c-.7.1-1.4.1-2 .1h-1.9l-.2-1.2c.7 0 1.4 0 2.2-.1h2.5c.9 0 1.7-.1 2.6-.1c.9-.1 1.7-.2 2.5-.2l.1 1l-2 .3c-.7.1-1.4.1-2 .2c-.03-.05 0 1.1 0 1.1h6.6v3.3h-8.5v1zm22.9-14h1.7v15.4h-1.7V.9zm-3.1 3.5V1.2h1.6v14.4h-1.6V9.2h-2.1V7.8h2.1v-2h-2.1V4.4h2.1zm-3.7-2.1v2.9c0 .7.1 1.3.2 1.9c.1.6.3 1.2.5 1.8c.3.5.6 1.1.9 1.5c.4.5.9.9 1.4 1.2l-1 1.4c-.7-.5-1.3-1.1-1.8-1.8c-.4-.7-.8-1.5-1.1-2.4c-.2 1-.6 1.8-1.1 2.6c-.5.8-1.1 1.4-1.9 1.8l-1-1.3c.5-.3 1-.7 1.4-1.2c.4-.5.7-1 1-1.6c.3-.6.5-1.2.6-1.9c.1-.6.2-1.3.2-2V2.3h1.7zM259.7.9h1.8v15.4h-1.8V8.1s-2.98-.04-3 0c0 .7-.2 1.4-.4 2c-.2.6-.5 1.1-.8 1.5c-.3.4-.7.7-1.2.9c-.5.3-.9.4-1.5.4c-.5 0-1-.2-1.5-.4c-.5-.3-.9-.6-1.2-1.1c-.4-.5-.7-1-.8-1.7c-.2-.7-.3-1.4-.3-2.3c0-.8.1-1.5.3-2.2c.1-.7.4-1.2.8-1.7c.3-.5.7-.8 1.2-1.1c.5-.2 1-.4 1.5-.4c.6 0 1 .1 1.5.4c.4.2.8.5 1.2.9c.3.4.6.9.8 1.4c.2.6.3 1.2.4 1.9c0 .03 3 0 3 0V.9zm-6.9 10.4c.7 0 1.3-.3 1.7-1c.4-.7.6-1.6.6-2.9c0-1.2-.2-2.1-.6-2.8c-.4-.6-1-1-1.7-1c-.6 0-1.1.4-1.6 1c-.4.7-.6 1.6-.6 2.8c0 1.3.2 2.2.6 2.9c.5.7 1 1 1.6 1zm11.1-9.2V0h2v2.1c0 .6-.2 1.2-.5 1.6c-.4.4-.9.7-1.5.8v-1c.4 0 .6-.2.8-.5c.1-.2.2-.6.2-.9h-1z" stroke="none" fill="#111111"/></g></svg>