<?xml version="1.0" standalone="no"?><!DOCTYPE svg PUBLIC "-//W3C//DTD SVG 1.1//EN" "http://www.w3.org/Graphics/SVG/1.1/DTD/svg11.dtd"><svg xmlns="http://www.w3.org/2000/svg" version="1.1" width="162px" height="19.6px" viewBox="0 -2 162 19.6" style="top:-2px"><desc>기프트카 캠페인</desc><defs/><g id="Polygon114174"><path d="m8.1.5h1.6v11.1H8.1V.5zm-7 1.2s5.33-.02 5.3 0c0 .8 0 1.6-.2 2.4c-.2.8-.4 1.5-.8 2.2c-.4.6-.9 1.3-1.6 1.8c-.6.6-1.4 1.1-2.4 1.6L.5 8.5c.7-.4 1.4-.7 1.9-1.1c.5-.4.9-.8 1.2-1.3c.4-.4.7-.9.8-1.5c.2-.5.4-1.1.4-1.7c.01.04-3.7 0-3.7 0V1.7zm12.7 4.4V2.8h-1.5V1.5h8.4v1.3h-1.5v3.3h1.4v1.2h-8.3V6.1h1.5zm3.8 0V2.8h-2.3v3.3h2.3zM11.5 9h10v1.3h-10V9zm19.9-2.8v1.3h-7.7V1.3h7.6v1.3h-6v1.2h5.8v1.2h-5.8v1.2h6.1zM22.5 9h10v1.3h-10V9zm21.2-4.2v1.3h-1.6v5.5h-1.6V.5h1.6v4.3h1.6zm-9.6-3.2h5.1c0 .8-.1 1.7-.2 2.4c-.2.8-.4 1.6-.8 2.3c-.3.7-.8 1.3-1.4 1.9c-.7.6-1.5 1.2-2.6 1.7l-.8-1.2c.9-.4 1.7-.9 2.2-1.4c.6-.5 1-1.1 1.3-1.7c.01-.02-3.2.3-3.2.3l-.2-1.4s3.87-.18 3.9-.2c0-.2.1-.4.1-.7c.1-.2.1-.5.1-.7c0-.04-3.5 0-3.5 0V1.6zM55 .5h1.5v6.5H55V4.4h-.9v2.5h-1.5V.7h1.5v2.4h.9V.5zm-7.4.7s4.36.04 4.4 0c0 .8-.1 1.4-.3 2c-.1.6-.4 1.2-.7 1.7c-.3.5-.8 1-1.3 1.4c-.5.4-1.2.7-1.9 1L47 6.2c.7-.2 1.2-.5 1.6-.8c.4-.3.8-.6 1-1c.03.03-2.2.3-2.2.3l-.3-1.3s3.11-.14 3.1-.1c0-.2.1-.3.1-.4c0-.1.1-.3.1-.4h-2.8V1.2zM49 11.5V7.4h7.5v4.1H49zm1.6-2.8v1.5h4.4V8.7h-4.4zM66.2.5h1.5v11.1h-1.5V.5zM64 4.6V.8h1.4v10.3H64V6h-1.1V4.6h1.1zM62.5 3s-.02 4.63 0 4.6h.4c.2 0 .3 0 .4-.1l.2 1.2c-.5.1-.9.1-1.4.2c-.5.1-1 .1-1.4.1c-.5 0-1 .1-1.4.1h-1.2c.04-.02-.1-1.3-.1-1.3h.8V3h-.6V1.8h5v1.2h-.7zm-2.2 0s-.05 4.76 0 4.8c.2 0 .5 0 .8-.1c-.03.03 0-4.7 0-4.7h-.8zM78.2.6v7.9h-1.6V.6h1.6zm-3 3.5c0 .4 0 .7-.2 1.1l-.6.9c-.3.2-.6.4-1 .5c-.4.2-.7.3-1.2.3c-.4 0-.8-.1-1.2-.3c-.3-.1-.6-.3-.9-.5c-.3-.3-.5-.6-.7-.9c-.1-.4-.2-.7-.2-1.1c0-.5.1-.8.2-1.2c.2-.3.4-.6.7-.9c.3-.2.6-.4.9-.5c.4-.2.8-.3 1.2-.3c.5 0 .8.1 1.2.3c.4.1.7.3 1 .5l.6.9c.2.4.2.7.2 1.2zm-4.4 0c0 .4.1.8.4 1c.3.3.6.4 1 .4c.4 0 .8-.1 1.1-.4c.2-.2.4-.6.4-1c0-.5-.2-.9-.4-1.1c-.3-.3-.7-.4-1.1-.4c-.4 0-.7.1-1 .4c-.3.2-.4.6-.4 1.1zm1.7 6h6v1.3h-7.6V7.7h1.6v2.4z" stroke="none" fill="#fff"/></g></svg>