<?xml version="1.0" standalone="no"?><!DOCTYPE svg PUBLIC "-//W3C//DTD SVG 1.1//EN" "http://www.w3.org/Graphics/SVG/1.1/DTD/svg11.dtd"><svg xmlns="http://www.w3.org/2000/svg" version="1.1" width="162px" height="19.6px" viewBox="0 -2 162 19.6" style="top:-2px"><desc>대학생 교육봉사단 H 점프스쿨</desc><defs/><g id="Polygon115110"><path d="m8.5.5h1.5v11.1H8.5V6.1h-1v5H6V.7h1.5v4.1h1V.5zM2.4 3.1v4.7c.5 0 1 0 1.5-.1c.5 0 1-.1 1.5-.2l.1 1.3l-1.9.3H.8V1.8h4.1v1.3H2.4zM18 1.5v1.3h-6.5V1.5h2.4v-1h1.6v1h2.5zm3.7 1.9v1.3h-1.5v2.8h-1.6v-7h1.6v2.9h1.5zm-4.2 1.7c0 .3-.1.6-.2.9l-.6.6c-.2.2-.5.3-.9.4c-.3.1-.7.2-1.1.2c-.4 0-.7-.1-1.1-.2c-.3-.1-.6-.2-.8-.4l-.6-.6c-.1-.3-.2-.6-.2-.9c0-.3.1-.5.2-.8c.2-.2.4-.5.6-.6c.2-.2.5-.3.8-.4c.4-.1.7-.2 1.1-.2c.4 0 .8.1 1.1.2c.4.1.7.2.9.4c.2.1.4.4.6.6c.1.3.2.5.2.8zm-4 0c0 .3.2.5.4.7c.2.1.5.2.8.2c.4 0 .7-.1.9-.2c.2-.2.3-.4.3-.7c0-.2-.1-.5-.3-.6c-.2-.1-.5-.2-.9-.2c-.3 0-.6.1-.8.2c-.2.1-.4.4-.4.6zm-.7 4.1V7.9h7.4v3.7h-1.6V9.2h-5.8zm16.7-4.7v2.4h-1.4V.7h1.4v2.5h.9V.5h1.5v6.8h-1.5V4.5h-.9zm-1.5.9l-.8 1.2c-.5-.1-.8-.4-1.2-.7c-.3-.3-.5-.7-.7-1.1c-.2.5-.5.9-.9 1.3c-.3.4-.7.7-1.2.9l-.9-1.2c.4-.2.7-.4 1-.7c.3-.2.5-.5.7-.8c.1-.2.3-.5.3-.9c.1-.3.2-.6.2-.9c-.03-.02 0-1.3 0-1.3h1.5v1.3c0 .3 0 .6.1.9c.1.3.2.5.4.8c.1.3.4.5.6.7c.3.2.6.4.9.5zm.2 2.1c.5 0 1 0 1.5.1c.5.1.9.2 1.2.4c.3.2.6.4.8.7c.2.2.2.5.2.8c0 .3 0 .6-.2.9c-.2.3-.5.5-.8.7c-.3.1-.7.3-1.2.4c-.5.1-1 .1-1.5.1c-.6 0-1.2 0-1.6-.1c-.5-.1-.9-.3-1.2-.4c-.4-.2-.6-.4-.8-.7c-.2-.3-.3-.6-.3-.9c0-.3.1-.6.3-.8c.2-.3.4-.5.8-.7c.3-.2.7-.3 1.2-.4c.4-.1 1-.1 1.6-.1zm0 2.9c1.4 0 2.2-.3 2.2-.9c0-.6-.8-.8-2.2-.8c-.8 0-1.3 0-1.7.2c-.4.1-.6.3-.6.6c0 .3.2.5.6.7c.4.1.9.2 1.7.2zm16.6-2.7l-1.5-.2c.1-1 .2-1.9.3-2.6V2.7c.03.05-6.5 0-6.5 0V1.5h8.1s.02 1.06 0 1.1v2.2c0 .4-.1.8-.1 1.3c-.1.5-.2 1-.3 1.6zM42.5 9h3.6v1.3h-10V9h2.1V5.5h1.6v3.5h1.2V5.5h1.5v3.5zm9.6-3.9c-.6 0-1.2 0-1.7-.1c-.5-.1-.9-.3-1.2-.5c-.4-.2-.6-.4-.8-.7c-.2-.2-.3-.5-.3-.9c0-.3.1-.6.3-.9c.2-.2.4-.5.8-.6c.3-.2.7-.4 1.2-.5c.5-.1 1.1-.1 1.7-.1c.6 0 1.2 0 1.7.1c.4.1.9.3 1.2.5c.4.1.6.4.8.6c.2.3.3.6.3.9c0 .4-.1.7-.3.9c-.2.3-.4.5-.8.7c-.3.2-.8.4-1.2.5c-.5.1-1.1.1-1.7.1zm0-3.1c-.8 0-1.3.1-1.8.2c-.4.2-.6.4-.6.7c0 .4.2.6.6.8c.5.1 1 .2 1.8.2c.8 0 1.4-.1 1.8-.2c.4-.2.6-.4.6-.8c0-.3-.2-.5-.6-.7c-.4-.1-1-.2-1.8-.2zm5 4.9h-2.4v1.1h1.2v3.6h-1.6V9.2h-6.1V8h1.3V6.9h-2.4V5.7h10v1.2zm-4 1.1V6.9H51v1.1h2.1zm10.8-2.1h4.2v1.2h-10V5.9h4.2v-.9h-2.9V.9h1.5v.9h4.3v-.9h1.6v4.1h-2.9v.9zm-3-2.9v.8h4.3v-.8h-4.3zM63 7.7c1.2 0 2.2.1 2.9.5c.6.3 1 .8 1 1.4c0 .7-.4 1.2-1 1.5c-.7.3-1.7.5-2.9.5c-1.1 0-2.1-.2-2.8-.5c-.6-.3-1-.8-1-1.5c0-.6.4-1.1 1-1.4c.7-.4 1.7-.5 2.8-.5zm0 2.7c.8 0 1.4 0 1.7-.2c.4-.1.6-.3.6-.6c0-.3-.2-.5-.6-.6c-.3-.1-.9-.2-1.7-.2c-.7 0-1.3.1-1.6.2c-.4.1-.6.3-.6.6c0 .3.2.5.6.6c.3.2.9.2 1.6.2zm16.3-5.6v1.3h-1.6v5.5h-1.6V.5h1.6v4.3h1.6zm-6.2-3.4s.03 1.6 0 1.6c0 .5.1 1 .2 1.5c.1.5.2.9.4 1.4c.2.4.5.8.8 1.1c.4.4.7.7 1.2.9l-1 1.2c-.6-.3-1-.7-1.4-1.2c-.4-.5-.7-1.1-1-1.8c-.2.7-.5 1.4-1 1.9c-.4.6-.9 1-1.5 1.3l-1-1.3c.5-.2.9-.5 1.2-.8c.4-.4.7-.8.9-1.2c.2-.5.4-1 .5-1.5c.1-.5.1-1 .1-1.5c.03 0 0-1.6 0-1.6h1.6zm15.6 2.2h1.5v1.2h-1.5v3.7h-1.5v-8h1.5v3.1zm-2.4 1.5l.1 1.3c-.3 0-.6.1-1 .2c-.3 0-.7 0-1.1.1h-2.9c-.02.03-.9 0-.9 0V1.4h4.9v1.3H82s.03 2.76 0 2.8c.5 0 1 0 1.4-.1h1.1c.3 0 .6-.1.9-.1c.3-.1.6-.1.9-.2zm-3.1 2.6v2.4h5.9v1.3h-7.5V7.7h1.6zm11.1 2.9V1.7h1.7v3.5h3.4V1.7h1.8v8.9h-1.8V6.7H96v3.9h-1.7zm8.5-3.9V5.4h4.2v1.3h-4.2zM115.7.5h1.6v6.4h-1.6V4.4h-1.6V3.1h1.6V.5zm-1 5l-.7 1.2c-.6-.2-1.2-.4-1.6-.8c-.4-.4-.7-.8-.9-1.3c-.3.5-.6 1-1.1 1.4c-.4.4-.9.7-1.6 1l-.8-1.3c.5-.1.8-.3 1.2-.6c.3-.2.5-.5.8-.8c.2-.3.3-.6.4-.9c.1-.4.2-.7.2-1c.02-.04-2.2 0-2.2 0V1.1h6v1.3s-2.16-.04-2.2 0c0 .3.1.6.2.9c.1.3.3.6.5.9c.2.3.4.5.7.8c.4.2.7.4 1.1.5zm-4.7 6V7.4h7.3v4.1H110zm1.5-2.9v1.6h4.3V8.6h-4.3zm9.8-2.5V2.8h-1.5V1.5h8.4v1.3h-1.5v3.3h1.5v1.2h-8.3V6.1h1.4zm3.9 0V2.8h-2.3v3.3h2.3zM119.1 9h10v1.3h-10V9zm20.6-3.3l-.7 1.4c-.9-.2-1.8-.6-2.5-1.1c-.6-.5-1.2-1.1-1.5-1.8c-.4.7-.9 1.3-1.6 1.8c-.7.5-1.5.9-2.5 1.1l-.6-1.4c.6-.1 1.1-.2 1.6-.5c.5-.3.9-.6 1.2-.9c.4-.3.6-.7.8-1.1c.2-.4.2-.8.2-1.2c.04-.02 0-.8 0-.8h1.7s.03.78 0 .8c0 .4.1.8.3 1.2c.1.4.4.8.7 1.1c.4.4.8.7 1.2.9c.5.3 1.1.4 1.7.5zM130 9h10v1.2h-10V9zm21-3h-4.2v.7h3.1v2.9h-6.2v.7h6.6v1.2h-8.2v-3h6.2v-.6h-6.2V6.7h3.1v-.7H141V4.7h7.1v-.5c.1-.1.1-.2.1-.4c0 .02-6.1.3-6.1.3l-.2-1.2s6.37-.18 6.4-.2v-.3c-.02.01 0-.3 0-.3h-6.1V.9h7.6s.04.96 0 1v1.3c0 .4-.1 1-.1 1.5h1.3v1.3z" stroke="none" fill="#fff"/></g></svg>