<?xml version="1.0" standalone="no"?><!DOCTYPE svg PUBLIC "-//W3C//DTD SVG 1.1//EN" "http://www.w3.org/Graphics/SVG/1.1/DTD/svg11.dtd"><svg xmlns="http://www.w3.org/2000/svg" version="1.1" width="199.3px" height="23.3px" viewBox="0 -2 199.3 23.3" style="top:-2px"><desc>예선 및 본선 참가 학생 수 (단위: 명)</desc><defs/><g id="Polygon116760"><path d="m7.4.6h1v9.2h-1V.6zM5.6 2.7v-2h.9v8.6h-.9V6.4s-1.31-.02-1.3 0c-.2.4-.4.8-.7 1c-.3.3-.6.4-1 .4c-.3 0-.6-.1-.8-.2c-.3-.2-.5-.4-.6-.7c-.2-.3-.4-.6-.4-1C.7 5.5.6 5 .6 4.5c0-.5.1-.9.2-1.3c0-.4.2-.8.4-1.1c.1-.2.3-.5.6-.6c.2-.2.5-.2.8-.2c.4 0 .7.1 1 .3c.3.3.5.6.7 1.1c-.02-.02 1.3 0 1.3 0zm-3 4.1c.3 0 .6-.2.8-.6c.1-.4.2-.9.2-1.7c0-.7-.1-1.3-.2-1.7c-.2-.4-.5-.5-.8-.5c-.3 0-.6.1-.8.5c-.1.4-.2 1-.2 1.7c0 .8.1 1.3.2 1.7c.2.4.5.6.8.6zm1.9-1.3c0 .02 1.1 0 1.1 0v-2s-1.1.05-1.1 0c0 .2 0 .4.1.5v1c-.1.2-.1.4-.1.5zm11.8 1.9V3.5h-1.9v-.9h1.9v-2h1v6.8h-1zm-1.2-2.3l-.5.9c-.5-.2-.9-.5-1.3-.8c-.4-.4-.6-.8-.8-1.3c-.2.5-.5 1-.9 1.4c-.4.4-.8.7-1.4.9l-.5-.8c.3-.2.7-.3.9-.6c.3-.2.6-.4.7-.7c.2-.3.4-.6.5-.9c.1-.3.1-.7.1-1c.01-.02 0-1.1 0-1.1h1.1s-.02 1.1 0 1.1c0 .3 0 .6.1.9c.1.3.3.6.4.8c.2.3.5.5.7.7c.3.3.6.4.9.5zm-2.7 3.6h5.1v.9h-6.2V6.7h1.1v2zM28.5.5v5.3h-1V.5h1zm-2.7.6v3.8h-4.4V1.1h4.4zm-1 3V2h-2.3v2.1h2.3zm3.9 3.1s-2.61-.02-2.6 0c0 .2.1.4.3.6c.1.1.3.3.6.5c.2.1.5.3.9.4c.3.1.7.2 1.2.2l-.4.8c-.7 0-1.4-.2-1.9-.5c-.6-.3-1-.6-1.2-1c-.3.4-.8.7-1.3 1c-.6.3-1.2.5-1.9.5l-.4-.8c.4 0 .8-.1 1.2-.2c.4-.1.7-.2.9-.4c.3-.2.5-.3.7-.5c.1-.2.2-.4.2-.6c.01-.02-2.6 0-2.6 0v-.8h2.6v-.9h1.1v.9h2.6v.8zm8.2-1.7h3.7v.9h-8.4v-.9h3.6v-.9h-2.5V.9h1v1h4.1v-1h1.1v3.7h-2.6v.9zm-2.6-2.7v1h4.1v-1h-4.1zm0 4.2v1.7h5.3v.9h-6.3V7h1zm13.7.4V3.5h-1.9v-.9h1.9v-2h1v6.8h-1zm-1.2-2.3l-.5.9c-.5-.2-.9-.5-1.3-.8c-.4-.4-.6-.8-.8-1.3c-.2.5-.5 1-.9 1.4c-.4.4-.8.7-1.4.9l-.5-.8c.3-.2.7-.3.9-.6c.3-.2.6-.4.7-.7c.2-.3.4-.6.5-.9c.1-.3.1-.7.1-1c.02-.02 0-1.1 0-1.1h1.1s-.01 1.1 0 1.1c0 .3 0 .6.1.9c.1.3.3.6.4.8c.2.3.5.5.7.7c.3.3.6.4.9.5zm-2.7 3.6h5.1v.9H43V6.7h1.1v2zm14-3.8l-.5.8c-.5-.2-1-.4-1.3-.7c-.4-.3-.7-.7-.9-1.1c-.2.5-.5.9-.9 1.2c-.4.3-.8.6-1.4.8l-.5-.9c.4-.1.7-.2 1-.4c.3-.2.5-.4.7-.6c.2-.2.3-.5.4-.7c.1-.3.2-.6.2-.9c-.04.05 0 0 0 0h-2v-.8h2V.5h1v1.1h1.9v.8h-1.9s.01.05 0 0c0 .3.1.6.2.8c.1.3.2.5.4.7c.2.2.4.4.7.6c.2.1.6.3.9.4zm3.1-2.1v.9h-1.3v2.3h-1.1V.6h1.1v2.2h1.3zM54 9.6V6.4h5.9v3.2H54zm1-2.4v1.6h3.8V7.2H55zm15.4-3v.9H69v4.7h-1.1V.5h1.1v3.7h1.4zm-8.1-2.7s4.26.02 4.3 0c0 .7-.1 1.3-.3 2c-.1.6-.4 1.2-.7 1.7c-.3.6-.7 1.1-1.3 1.6c-.5.5-1.1.9-1.9 1.3l-.6-.8c2.3-1.2 3.5-2.8 3.7-4.9c.01-.02-3.2 0-3.2 0v-.9zm16.2-.1v.9h-5.4v-.9h2.2v-.9h1.1v.9h2.1zM81.6 3v.9h-1.3v2.4h-1.1V.6h1.1v2.4h1.3zm-3.5 1.4c0 .2-.1.4-.2.6c-.1.3-.3.4-.5.6c-.2.1-.4.2-.7.3c-.2.1-.5.1-.9.1c-.3 0-.6 0-.9-.1c-.3-.1-.5-.2-.7-.3c-.2-.2-.3-.3-.4-.6c-.2-.2-.2-.4-.2-.6c0-.3 0-.5.2-.7c.1-.2.2-.4.4-.6c.2-.1.4-.2.7-.3c.3-.1.6-.1.9-.1c.4 0 .7 0 .9.1c.3.1.5.2.7.3c.2.2.4.4.5.6c.1.2.2.4.2.7zm-3.5 0c0 .2.1.5.3.6c.3.2.6.2.9.2c.4 0 .7 0 .9-.2c.2-.1.4-.4.4-.6c0-.3-.2-.5-.4-.7c-.2-.1-.5-.2-.9-.2c-.3 0-.6.1-.9.2c-.2.2-.3.4-.3.7zm-.4 3.2v-.8h6.1v3h-1.1V7.6h-5zm13.9-3.8v2.1h-1V.7h1v2.2h1V.6h1v5.6h-1V3.8h-1zm-1.2 1l-.6.8c-.4-.2-.7-.4-1-.7c-.3-.3-.5-.6-.7-1c-.2.4-.4.8-.7 1.1c-.3.4-.7.6-1.1.8l-.6-.8c.3-.1.6-.3.8-.5c.3-.2.5-.4.6-.7c.2-.2.3-.5.4-.7c0-.3.1-.6.1-.8V1.1h1v1.2c0 .2 0 .5.1.7c.1.3.2.5.4.7c.1.2.3.4.5.6c.2.2.5.4.8.5zm.1 1.6c.5 0 .9 0 1.3.1c.4.1.7.2 1 .3c.3.2.5.4.6.6c.2.2.2.4.2.7c0 .2 0 .5-.2.7c-.1.2-.3.4-.6.5c-.3.2-.6.3-1 .3c-.4.1-.8.2-1.3.2c-.5 0-.9-.1-1.3-.2c-.4 0-.7-.1-1-.3c-.2-.1-.5-.3-.6-.5c-.1-.2-.2-.5-.2-.7c0-.3.1-.5.2-.7c.1-.2.4-.4.6-.6c.3-.1.6-.2 1-.3c.4-.1.8-.1 1.3-.1zM87 9c.7 0 1.2-.1 1.5-.3c.4-.1.6-.3.6-.6c0-.3-.2-.5-.6-.7c-.3-.1-.8-.2-1.5-.2c-.7 0-1.2.1-1.5.2c-.4.2-.6.4-.6.7c0 .3.2.5.6.6c.3.2.8.3 1.5.3zm14.5-5.1l-.4.9c-.8-.1-1.5-.4-2-.7c-.6-.4-1.1-.9-1.4-1.4c-.3.6-.7 1-1.3 1.4c-.6.3-1.3.6-2.1.7l-.4-.9c.5 0 .9-.1 1.3-.3c.4-.2.8-.4 1-.6c.3-.2.5-.5.7-.8c.2-.3.3-.6.3-.9c-.05.04 0-.5 0-.5h1.1s-.03.54 0 .5c0 .3 0 .6.2.9c.2.3.4.6.7.8c.3.2.6.4 1 .6c.4.2.8.3 1.3.3zm.4 1.8v.8h-3.7v3.3h-1V6.5h-3.7v-.8h8.4zm5.5 4.4l-.7.4c-.5-.8-.9-1.6-1.1-2.5c-.3-.8-.4-1.8-.4-2.8c0-1 .1-1.9.4-2.8c.2-.8.6-1.6 1.1-2.4l.7.3c-.4.8-.7 1.6-1 2.4c-.2.8-.3 1.6-.3 2.5c0 .9.1 1.8.3 2.6c.3.8.6 1.6 1 2.3zm8-6.9h1.3v.8h-1.3v3.2h-1V.5h1v2.7zm-1.9 1.3l.1.8c-.3.1-.6.1-.9.2c-.3 0-.6.1-.9.1h-2.5c.04.04-.7 0-.7 0V1.3h4.1v.9h-3.1s.05 2.57 0 2.6h1.2c.4 0 .7-.1 1-.1c.3 0 .6 0 .9-.1c.2 0 .5-.1.8-.1zm-2.9 2v2.2h5.2v.9h-6.2V6.5h1zM124 .6h1v9.2h-1V.6zm-3.6 4.2c-.3 0-.7 0-1-.1c-.2-.1-.5-.3-.7-.4c-.2-.2-.4-.4-.5-.6c-.1-.3-.2-.5-.2-.8c0-.3.1-.6.2-.8c.1-.2.3-.4.5-.6c.2-.2.5-.3.7-.4c.3-.1.7-.2 1-.2c.3 0 .7.1 1 .2c.2.1.5.2.7.4c.2.2.4.4.5.6c.1.2.2.5.2.8c0 .3-.1.5-.2.8c-.1.2-.3.4-.5.6c-.2.1-.5.3-.7.4c-.3.1-.7.1-1 .1zm0-3c-.4 0-.7.1-1 .3c-.2.2-.4.5-.4.8c0 .3.2.6.4.8c.3.2.6.2 1 .2c.4 0 .7 0 1-.2c.2-.2.4-.5.4-.8c0-.3-.2-.6-.4-.8c-.3-.2-.6-.3-1-.3zm3 3.4v.7c-.4.1-.8.2-1.2.2c-.4.1-.8.1-1.2.2c-.03-.05 0 3.2 0 3.2h-1.1s.02-3.19 0-3.2h-1.2c-.4.1-.8.1-1.2.1l-.1-.9h1.4c.4 0 .9 0 1.5-.1c.5 0 1 0 1.5-.1c.6 0 1.1-.1 1.6-.1zm4.6-2.3v1.3h-1.2V2.9h1.2zm0 4.2v1.3h-1.2V7.1h1.2zm7.8-2.4v.7h-4.3V1.2h4.3v.8h1.9V.6h1.1v5.4h-1.1V4.7h-1.9zm-1-.2V2.1h-2.2v2.4h2.2zm2.9-1.7h-1.9v1h1.9v-1zm-2 3.4c.5 0 .9.1 1.3.1c.4.1.7.2 1 .4c.2.1.4.3.6.6c.1.2.2.4.2.7c0 .3-.1.5-.2.7c-.2.3-.4.4-.6.6c-.3.2-.6.3-1 .3c-.4.1-.8.2-1.3.2c-.5 0-.9-.1-1.3-.2c-.4 0-.7-.1-1-.3c-.2-.2-.5-.3-.6-.6c-.1-.2-.2-.4-.2-.7c0-.3.1-.5.2-.7c.1-.3.4-.5.6-.6c.3-.2.6-.3 1-.4c.4 0 .8-.1 1.3-.1zm0 2.7c.6 0 1.2 0 1.5-.2c.4-.2.6-.4.6-.7c0-.3-.2-.5-.6-.7c-.3-.2-.9-.2-1.5-.2c-.7 0-1.2 0-1.5.2c-.4.2-.6.4-.6.7c0 .3.2.5.6.7c.3.2.8.2 1.5.2zm5.3 1.6l-.8-.4c.5-.7.8-1.5 1-2.3c.2-.8.3-1.7.3-2.6c0-.9-.1-1.7-.3-2.5c-.2-.8-.5-1.6-1-2.4l.8-.3c.5.8.8 1.6 1.1 2.4c.3.9.4 1.8.4 2.8c0 1-.1 2-.4 2.8c-.3.9-.6 1.7-1.1 2.5z" stroke="none" fill="#949596"/></g></svg>