<?xml version="1.0" standalone="no"?><!DOCTYPE svg PUBLIC "-//W3C//DTD SVG 1.1//EN" "http://www.w3.org/Graphics/SVG/1.1/DTD/svg11.dtd"><svg xmlns="http://www.w3.org/2000/svg" version="1.1" width="162px" height="19.6px" viewBox="0 -2 162 19.6" style="top:-2px"><desc>굿잡 5060</desc><defs/><g id="Polygon114318"><path d="m9.1 4.7h1.4v1.3H6.3v1.4H4.7V6H.5V4.7h7c.1-.5.2-1 .2-1.4c.1-.4.1-.7.1-1.1c-.01.03-6 0-6 0V1h7.5s.04.7 0 .7v1.3c0 .5-.1 1.1-.2 1.7zM6.3 7.8v.3c0 .3.1.5.2.8c.1.2.4.4.6.6c.3.2.7.4 1.1.5c.5.2 1 .3 1.6.4l-.5 1.1c-1-.1-1.7-.3-2.4-.6c-.6-.3-1.1-.7-1.4-1.1c-.4.4-.8.8-1.5 1.1c-.6.3-1.4.5-2.3.6l-.5-1.1c.6-.1 1.1-.2 1.5-.4c.5-.1.8-.3 1.1-.5c.3-.2.5-.4.7-.7c.1-.2.2-.4.2-.7c-.03.04 0-.3 0-.3h1.6zm15.4-4.9v1.3h-1.5v2.4h-1.6v-6h1.6v2.3h1.5zm-3.6 2.4l-.8 1.2c-.6-.2-1.1-.4-1.5-.8c-.4-.3-.8-.8-1-1.2c-.3.5-.6 1-1.1 1.3c-.4.4-1 .7-1.6.9l-.8-1.2c.5-.1.8-.3 1.2-.5c.3-.2.6-.5.8-.8c.2-.2.3-.5.4-.9c.2-.3.2-.6.2-.9h-2.2V1.1h6v1.3h-2.2c.1.3.1.6.2.9c.1.3.3.5.5.8c.2.2.4.5.8.7c.3.2.6.3 1.1.5zm.5 2.8v-1h1.6v4.4H13V7.1h1.5v1h4.1zm0 2.1v-.9h-4.1v.9h4.1zm12.3-8.6v1.5h-3.3s-.32 1.71-.3 1.7c.2 0 .3 0 .5-.1h.5c.5 0 .9.1 1.3.2c.3.2.7.4.9.6c.3.3.4.6.6.9c.1.4.2.7.2 1.1c0 .5-.1 1-.3 1.4c-.2.4-.4.7-.7 1c-.3.3-.7.5-1.1.6c-.4.2-.9.3-1.3.3c-.6 0-1.1-.1-1.6-.3c-.4-.3-.8-.5-1.1-.8l.8-1.2l.9.6c.3.2.7.2 1.1.2c.5 0 .9-.1 1.2-.4c.3-.3.5-.8.5-1.3c0-.5-.2-.8-.5-1.1c-.2-.3-.7-.4-1.2-.4c-.2 0-.5 0-.7.1c-.2 0-.4.1-.6.2l-1-.3c.2-1.2.3-2.1.4-2.9c.2-.7.2-1.2.3-1.6c.01-.02 4.5 0 4.5 0zm7.7 4.5c0 .8-.1 1.5-.2 2.1c-.2.5-.4 1-.7 1.4c-.3.4-.7.7-1.1.9c-.4.1-.9.2-1.3.2c-.5 0-.9-.1-1.3-.2c-.4-.2-.8-.5-1.1-.9c-.3-.4-.5-.9-.7-1.4c-.2-.6-.2-1.3-.2-2.1c0-.8 0-1.5.2-2.1c.2-.5.4-1 .7-1.4c.3-.4.7-.7 1.1-.8c.4-.2.8-.3 1.3-.3c.4 0 .9.1 1.3.3c.4.1.8.4 1.1.8c.3.4.5.9.7 1.4c.1.6.2 1.3.2 2.1zm-1.7 0c0-.6 0-1.2-.1-1.6c-.1-.4-.2-.7-.4-1c-.1-.2-.3-.4-.5-.5c-.2-.1-.4-.1-.6-.1c-.2 0-.4 0-.6.1c-.2.1-.4.3-.6.5c-.1.3-.2.6-.3 1c-.1.4-.2 1-.2 1.6c0 .6.1 1.2.2 1.6c.1.4.2.7.3 1c.2.2.4.4.6.5c.2.1.4.1.6.1c.2 0 .4 0 .6-.1c.2-.1.4-.3.5-.5c.2-.3.3-.6.4-1c.1-.4.1-1 .1-1.6zm5-1c.3-.1.6-.1 1-.1c.4 0 .7 0 1 .1c.3.2.6.3.9.6c.2.2.4.5.6.8c.1.4.2.8.2 1.2c0 .4-.1.8-.2 1.2c-.2.4-.4.7-.7 1c-.3.3-.6.5-1 .6c-.4.2-.8.3-1.3.3c-.5 0-.9-.1-1.3-.2c-.4-.2-.7-.4-1-.7c-.3-.3-.5-.6-.7-1c-.1-.4-.2-.9-.2-1.3c0-.4.1-.9.3-1.3c.2-.5.5-1 .8-1.4c0-.04 2.4-3.3 2.4-3.3c0 0 2.05-.03 2 0l-1.3 1.6c-.4.6-.9 1.1-1.3 1.7l-.3.3l.1-.1s.04.02 0 0zm-1.1 2.7c0 .5.2.9.4 1.2c.3.3.7.4 1.2.4c.2 0 .4 0 .6-.1c.2-.1.4-.2.5-.3c.2-.2.3-.3.4-.5c.1-.2.1-.4.1-.7c0-.5-.1-.9-.4-1.2c-.3-.2-.7-.4-1.2-.4c-.5 0-.9.2-1.2.5c-.2.2-.4.6-.4 1.1zm12-1.7c0 .8-.1 1.5-.3 2.1c-.1.5-.4 1-.7 1.4c-.3.4-.6.7-1 .9c-.4.1-.9.2-1.3.2c-.5 0-.9-.1-1.4-.2c-.4-.2-.7-.5-1-.9c-.3-.4-.5-.9-.7-1.4c-.2-.6-.3-1.3-.3-2.1c0-.8.1-1.5.3-2.1c.2-.5.4-1 .7-1.4c.3-.4.6-.7 1-.8c.5-.2.9-.3 1.4-.3c.4 0 .9.1 1.3.3c.4.1.7.4 1 .8c.3.4.6.9.7 1.4c.2.6.3 1.3.3 2.1zm-1.7 0c0-.6 0-1.2-.1-1.6c-.1-.4-.2-.7-.4-1c-.1-.2-.3-.4-.5-.5c-.2-.1-.4-.1-.6-.1c-.3 0-.5 0-.7.1c-.2.1-.3.3-.5.5c-.1.3-.3.6-.3 1c-.1.4-.2 1-.2 1.6c0 .6.1 1.2.2 1.6c0 .4.2.7.3 1c.2.2.3.4.5.5c.2.1.4.1.7.1c.2 0 .4 0 .6-.1c.2-.1.4-.3.5-.5c.2-.3.3-.6.4-1c.1-.4.1-1 .1-1.6z" stroke="none" fill="#fff"/></g></svg>