<?xml version="1.0" standalone="no"?><!DOCTYPE svg PUBLIC "-//W3C//DTD SVG 1.1//EN" "http://www.w3.org/Graphics/SVG/1.1/DTD/svg11.dtd"><svg xmlns="http://www.w3.org/2000/svg" version="1.1" width="414.3px" height="26.8px" viewBox="0 -3 414.3 26.8" style="top:-3px"><desc>제주 해비치 아트 페스티벌</desc><defs/><g id="Polygon117860"><path d="m12.3.9h1.7v15.4h-1.7V.9zM9.2 6.3V1.2h1.6v14.3H9.2V7.7H6.9V6.3h2.3zM5.5 4s.03 1.13 0 1.1c0 .7.1 1.3.2 2c.1.6.3 1.2.6 1.8c.2.6.6 1.1 1 1.6c.3.4.8.8 1.4 1.1l-1.1 1.3c-.7-.4-1.3-1-1.8-1.7c-.5-.7-.8-1.5-1.1-2.4c-.3 1-.7 1.9-1.2 2.6c-.4.8-1.1 1.4-1.8 1.9L.6 12c.6-.3 1-.8 1.4-1.3c.5-.5.8-1 1-1.6c.3-.6.5-1.3.6-1.9c.2-.7.2-1.4.2-2.1c.03.03 0-1.1 0-1.1H1.1V2.6h7v1.4H5.5zm12.3 4.4l-.6-1.3c.7-.1 1.4-.3 2-.6c.6-.2 1.2-.5 1.6-.8c.5-.4.9-.8 1.1-1.2c.3-.4.4-.9.5-1.3h-4.7V1.8H29v1.4h-4.6c0 .4.1.9.4 1.3c.3.4.6.8 1.1 1.2c.5.3 1 .6 1.6.8c.6.3 1.3.5 2 .6l-.6 1.3c-1.3-.2-2.4-.6-3.3-1.1c-1-.6-1.8-1.3-2.2-2.2c-.5.9-1.2 1.6-2.2 2.2c-1 .5-2.1.9-3.4 1.1zm12.5 1.2v1.4h-6.1v5.3h-1.8V11h-6V9.6h13.9zM47.1.9h1.7v15.4h-1.7V8.7h-1.6v6.9h-1.7V1.2h1.7v6.1h1.6V.9zm-6.8.5v2h2.9v1.4h-7.5V3.4h2.9v-2h1.7zm-.9 4.3c.5 0 1 .1 1.4.3c.4.1.7.4 1 .7c.3.3.6.7.7 1.1c.2.4.3.9.3 1.5c0 .5-.1 1-.3 1.4c-.1.5-.4.8-.7 1.1c-.3.4-.6.6-1 .8c-.4.1-.9.2-1.4.2c-.4 0-.9-.1-1.3-.2c-.4-.2-.8-.4-1.1-.8c-.3-.3-.5-.6-.6-1.1c-.2-.4-.3-.9-.3-1.4c0-.6.1-1.1.3-1.5c.1-.4.3-.8.6-1.1c.3-.3.7-.6 1.1-.7c.4-.2.9-.3 1.3-.3zm0 5.7c.6 0 1-.2 1.3-.6c.3-.4.5-.9.5-1.5c0-.7-.2-1.2-.5-1.6c-.3-.4-.7-.6-1.3-.6c-.5 0-.9.2-1.2.6c-.4.4-.5.9-.5 1.6c0 .6.1 1.1.5 1.5c.3.4.7.6 1.2.6zM62.1.9h1.8v15.4h-1.8V.9zm-10 1.3h1.7v3.9h3.9V2.2h1.7v10.4h-7.3V2.2zm1.7 5.3v3.7h3.9V7.5h-3.9zM77.7.9h1.8v15.4h-1.8V.9zm-5.1 4s.01.9 0 .9c0 .6.1 1.2.3 1.8c.2.6.4 1.2.8 1.7c.3.5.7 1 1.2 1.4c.5.4 1 .8 1.6 1l-1 1.4c-.8-.4-1.6-.9-2.2-1.7c-.7-.7-1.2-1.6-1.5-2.6c-.4 1.1-.9 2-1.5 2.8c-.7.8-1.5 1.4-2.4 1.8L67 12c.6-.3 1.1-.6 1.6-1.1c.5-.4.9-.9 1.2-1.4c.4-.6.6-1.2.8-1.8c.2-.6.3-1.3.3-1.9c-.04 0 0-.9 0-.9h-3.4V3.5h3.4V1.2h1.7v2.3h3.3v1.4h-3.3zm27.8 2v1.5H98v7.9h-1.8V.9h1.8v6h2.4zM90.2 2c.5 0 1.1.2 1.6.4c.4.3.9.6 1.2 1.1c.3.5.6 1.1.8 1.7c.2.7.3 1.4.3 2.3c0 .8-.1 1.5-.3 2.2c-.2.7-.5 1.2-.8 1.7c-.3.5-.8.8-1.2 1.1c-.5.2-1.1.4-1.6.4c-.6 0-1.1-.2-1.6-.4c-.5-.3-.9-.6-1.3-1.1c-.3-.5-.6-1-.8-1.7c-.2-.7-.3-1.4-.3-2.2c0-.9.1-1.6.3-2.3c.2-.6.5-1.2.8-1.7c.4-.5.8-.8 1.3-1.1c.5-.2 1-.4 1.6-.4zm0 9.3c.6 0 1.2-.3 1.6-1c.4-.7.6-1.6.6-2.8c0-1.2-.2-2.2-.6-2.9c-.4-.6-1-1-1.6-1c-.7 0-1.3.4-1.7 1c-.4.7-.6 1.7-.6 2.9c0 1.2.2 2.1.6 2.8c.4.7 1 1 1.7 1zM114 9v1.4h-10.6V2.2h10.5v1.4h-8.8v1.9h8.4v1.4h-8.4v2.1h8.9zm-12.4 4h14v1.4h-14V13zM132.4.9h1.7v15.4h-1.7V.9zm-3 5.7V1.3h1.7v14.2h-1.7V8.2h-1.8V6.6h1.8zm-2.5-2.4v6.8c.3-.1.5-.1.7-.1c.3 0 .5-.1.7-.1l.2 1.3l-2 .3c-.6 0-1.3.1-2 .1c-.6.1-1.3.1-1.9.1H121c-.05.01-.2-1.4-.2-1.4h1.4v-7h-1.1V2.8h6.9v1.4h-1.1zm-3.1 0s-.04 6.94 0 6.9h1.5V4.2h-1.5zm26 4.2l-.8 1.5l-1.8-.6c-.5-.3-1.1-.6-1.6-1c-.5-.3-.9-.7-1.3-1.2c-.4-.4-.7-.9-.9-1.5c-.3.6-.6 1.1-1 1.5c-.4.5-.8.9-1.3 1.2c-.5.4-1 .7-1.6 1l-1.8.6l-.7-1.5c.7-.1 1.4-.4 2.1-.7c.6-.4 1.2-.8 1.7-1.3c.5-.4.9-1 1.2-1.6c.3-.5.4-1.1.4-1.7c.04-.04 0-1.2 0-1.2h1.9v1.2c0 .6.1 1.2.4 1.8c.3.5.7 1.1 1.2 1.6c.5.4 1.1.8 1.8 1.2c.6.3 1.3.6 2.1.7zm-13.3 4.5h13.9v1.4h-13.9v-1.4zm26.4-12h1.8v15.4h-1.8V.9zM154.7 8s-.02 3.25 0 3.3c.6 0 1.2-.1 1.8-.1h1.7c.5-.1 1-.1 1.6-.2c.5 0 1-.1 1.6-.2l.2 1.4c-.7.1-1.2.2-1.8.3c-.6 0-1.2.1-1.8.1c-.5 0-1.1.1-1.8.1h-2c.01-.02-1.3 0-1.3 0V2.2h7.6v1.5h-5.8v2.8h5.2v1.5h-5.2zm20.7-2.4v2.7h-7.1V1.6h1.7v2h3.6v-2h1.8v2.6h3.1V.9h1.8v7.9h-1.8V5.6h-3.1zm-1.8 1.3v-2H170v2h3.6zm-1.5 7.8h8.7v1.4h-10.5v-4h8.3v-1.2h-8.3V9.5h10v3.9h-8.2v1.3z" stroke="none" fill="#111111"/></g></svg>