<?xml version="1.0" standalone="no"?><!DOCTYPE svg PUBLIC "-//W3C//DTD SVG 1.1//EN" "http://www.w3.org/Graphics/SVG/1.1/DTD/svg11.dtd"><svg xmlns="http://www.w3.org/2000/svg" version="1.1" width="162px" height="19.6px" viewBox="0 -2 162 19.6" style="top:-2px"><desc>사회적기업 ㈜이지무브</desc><defs/><g id="Polygon114894"><path d="m10.8 4.8v1.3H9.2v5.5H7.6V.5h1.6v4.3h1.6zM4.6 1.4S4.58 3 4.6 3c0 .5 0 1 .1 1.5c.1.5.3.9.5 1.4c.2.4.5.8.8 1.1c.3.4.7.7 1.1.9l-.9 1.2c-.6-.3-1.1-.7-1.5-1.2c-.4-.5-.7-1.1-.9-1.8c-.2.7-.6 1.4-1 1.9c-.4.6-.9 1-1.6 1.3L.3 8c.5-.2.9-.5 1.2-.8c.3-.4.6-.8.8-1.2c.3-.5.4-1 .5-1.5c.1-.5.2-1 .2-1.5V1.4h1.6zM19.1.5h1.6v11.1h-1.6V.5zm-.7 1.3v1.2h-6.6V1.8h2.5V.6h1.6v1.2h2.5zm-2.5 5.7v.9c.4 0 .9-.1 1.3-.1c.5 0 .9-.1 1.4-.1l.1 1.1c-.6.1-1.2.2-1.9.3c-.6 0-1.2.1-1.8.1c-.6 0-1.1 0-1.7.1h-1.6c.05-.04-.1-1.3-.1-1.3c0 0 1.26-.03 1.3 0c.4 0 .9 0 1.4-.1v-.9c-.6-.1-1.1-.3-1.4-.7c-.4-.3-.6-.8-.6-1.3c0-.3.1-.6.3-.8c.1-.3.3-.5.5-.7c.3-.2.5-.3.9-.4c.3-.1.7-.2 1.1-.2c.4 0 .8.1 1.1.2c.3.1.6.2.9.4c.2.2.4.4.5.7c.2.2.2.5.2.8c0 .5-.1 1-.5 1.3c-.3.4-.8.6-1.4.7zm-2-2c0 .3.1.5.3.7c.2.1.5.2.9.2c.4 0 .7-.1.9-.2c.2-.2.3-.4.3-.7c0-.3-.1-.5-.3-.6c-.2-.2-.5-.3-.9-.3c-.4 0-.7.1-.9.3c-.2.1-.3.3-.3.6zM30.1.6h1.6v6.5h-1.6V4.5h-1.6V3.2h1.6V.6zm-1 5l-.7 1.2c-.6-.2-1.2-.5-1.6-.8c-.4-.4-.7-.9-.9-1.4c-.3.6-.6 1.1-1.1 1.5c-.4.4-.9.7-1.6.9l-.8-1.2c.5-.2.8-.4 1.2-.6c.3-.2.6-.5.8-.8c.2-.3.3-.6.5-1c.1-.3.1-.6.1-1c.02.01-2.2 0-2.2 0V1.2h6v1.2s-2.16.01-2.2 0c0 .3.1.6.2 1c.1.3.3.6.5.9c.2.2.4.5.7.7c.3.3.7.4 1.1.6zm-4.9 3.3V7.6h7.5v4h-1.6V8.9h-5.9zM41.1.5h1.6v11.1h-1.6V.5zm-7 1.2s5.27-.02 5.3 0c0 .8-.1 1.6-.3 2.4c-.1.8-.4 1.5-.8 2.2c-.4.6-.9 1.3-1.5 1.8c-.7.6-1.5 1.1-2.5 1.6l-.8-1.2c.7-.4 1.3-.7 1.8-1.1c.5-.4.9-.8 1.3-1.3c.3-.4.6-.9.8-1.5c.2-.5.3-1.1.4-1.7c-.05.04-3.7 0-3.7 0V1.7zm18-1.2h1.6v6h-1.6V4.3s-1.76-.04-1.8 0c0 .3-.2.5-.3.8c-.2.2-.4.4-.7.6c-.2.2-.5.3-.8.4c-.3.1-.7.2-1 .2c-.4 0-.8-.1-1.2-.2c-.3-.2-.6-.3-.9-.6c-.2-.2-.5-.5-.6-.8c-.1-.3-.2-.7-.2-1.1c0-.3.1-.7.2-1c.1-.3.4-.6.6-.9c.3-.2.6-.4.9-.5c.4-.1.8-.2 1.2-.2c.3 0 .7 0 1 .1c.3.1.6.3.8.4c.3.2.5.4.6.7c.2.2.3.5.4.8c.03-.02 1.8 0 1.8 0V.5zM47.5 5c.4 0 .7-.2 1-.4c.3-.2.4-.5.4-1c0-.4-.1-.7-.4-.9c-.3-.3-.6-.4-1-.4c-.4 0-.8.1-1 .4c-.3.2-.4.5-.4.9c0 .5.1.8.4 1c.2.2.6.4 1 .4zm4.6 3v-1h1.6v4.5h-7.3V7h1.5v1h4.2zm0 2.2v-1h-4.2v1h4.2zM59.4.4l.7.2c-.5.8-.9 1.6-1 2.5c-.2.9-.3 1.9-.3 2.9c0 1 .1 2 .3 2.9c.1.9.5 1.7 1 2.5l-.7.2c-.6-.8-1-1.7-1.2-2.6c-.2-.9-.3-1.9-.3-3c0-1.1.1-2.1.3-3c.2-.9.6-1.8 1.2-2.6zm7.7.2l.7-.2c.5.8.9 1.7 1.1 2.6c.2.9.3 1.9.3 3c0 1.1-.1 2.1-.3 3c-.2.9-.6 1.8-1.1 2.6l-.7-.2l.6-1.2c.1-.5.3-.9.4-1.4c.1-.5.1-.9.2-1.4V6c0-1-.1-2-.2-2.9c-.2-.9-.5-1.7-1-2.5zM60.3 6l-.6-1.2c.9-.1 1.6-.4 2.1-.7c.5-.4.8-.8.9-1.2c0 .02-2.4 0-2.4 0V1.6h6.6v1.3s-2.44.02-2.4 0c.1.4.4.8.9 1.2c.5.3 1.2.6 2.1.7L66.9 6c-.8-.1-1.5-.3-2.1-.6c-.5-.4-.9-.7-1.2-1.2c-.3.5-.7.8-1.3 1.2c-.5.3-1.2.5-2 .6zm7.3 1.8h-3.3v3.3h-1.5V7.8h-3.3V6.5h8.1v1.3zm10-7.3h1.6v11.1h-1.6V.5zm-4.4.8c.5 0 .8.1 1.2.3c.3.2.7.4.9.8c.3.3.5.7.6 1.2c.2.5.2 1 .2 1.6c0 .7 0 1.2-.2 1.7c-.1.5-.3.9-.6 1.2c-.2.4-.6.6-.9.8c-.4.2-.7.3-1.2.3c-.4 0-.8-.1-1.1-.3c-.4-.2-.7-.4-.9-.8c-.3-.3-.5-.7-.6-1.2c-.2-.5-.3-1-.3-1.7c0-.6.1-1.1.3-1.6c.1-.5.3-.9.6-1.2c.2-.4.5-.6.9-.8c.3-.2.7-.3 1.1-.3zm0 1.4c-.4 0-.7.2-1 .7c-.2.4-.3 1-.3 1.8c0 .9.1 1.5.3 1.9c.3.5.6.7 1 .7c.4 0 .8-.2 1-.7c.3-.4.4-1 .4-1.9c0-.8-.1-1.4-.4-1.8c-.2-.5-.6-.7-1-.7zM88.6.5h1.6v11.1h-1.6V.5zm-3.3 2.4s-.03.62 0 .6c0 .5 0 .9.1 1.4c.2.4.3.8.5 1.2c.3.4.6.8.9 1.1c.3.3.7.6 1.2.8l-.9 1.2c-.6-.2-1.1-.6-1.6-1.1c-.4-.5-.8-1.1-1-1.8c-.3.7-.6 1.4-1 1.9c-.5.6-1 1-1.7 1.3l-.9-1.2c.5-.3.9-.5 1.2-.9c.4-.3.7-.7.9-1.1c.2-.4.4-.9.5-1.4c.1-.4.2-.9.2-1.4c-.04.02 0-.6 0-.6h-2.3V1.6h6.2v1.3h-2.3zm15.5-1.8v4.4h-7.7V1.1h7.7zm-1.6 3.2v-2h-4.5v2h4.5zm2.8 2.4v1.3h-4.3v3.6h-1.5V8H92V6.7h10zm2-5.4h1.6v1.7h4.7V1.3h1.6v5.9H104V1.3zm1.6 3v1.6h4.7V4.3h-4.7zM103 9h10v1.3h-10V9z" stroke="none" fill="#fff"/></g></svg>