<?xml version="1.0" standalone="no"?><!DOCTYPE svg PUBLIC "-//W3C//DTD SVG 1.1//EN" "http://www.w3.org/Graphics/SVG/1.1/DTD/svg11.dtd"><svg xmlns="http://www.w3.org/2000/svg" version="1.1" width="390px" height="109.3px" viewBox="0 -2 390 109.3" style="top:-2px"><desc>2011년 시작한 저소득 소외계층 창업 및 자립 프로그램이다. 2020년부터는 창업지원 외에 공익가치 확산 차원에서 대중이 참여하는 공익 캠페인으로 프로그램을 확대 진행해 좋은 반응을 얻었다. 2021년에는 C...</desc><defs/><g id="Polygon116151"><path d="m1.7 96.1l-1-.1c.1-.4.2-.7.3-.9c.2-.3.3-.5.5-.7c.3-.2.5-.3.8-.4c.3-.1.6-.2.9-.2c.3 0 .6.1.9.2c.2.1.5.2.7.4c.2.1.3.4.4.6c.1.2.2.5.2.8c0 .5-.1.8-.4 1.1c-.2.3-.5.5-.9.6c1 .3 1.5.9 1.5 1.8c0 .4-.1.7-.2 1c-.2.2-.3.5-.6.7c-.2.2-.5.3-.8.4c-.3.1-.6.2-1 .2c-.4 0-.7-.1-1-.2c-.3-.1-.5-.2-.7-.4c-.2-.2-.4-.4-.5-.6c-.1-.3-.2-.5-.3-.8l.8-.3c0 .1.1.2.2.4c.1.3.3.6.6.8c.2.2.5.3.9.3c.3 0 .5-.1.7-.2c.2-.1.4-.2.5-.3c.2-.1.3-.3.3-.5c.1-.1.1-.3.1-.5c0-.2 0-.3-.1-.5c0-.2-.1-.3-.2-.5c-.2-.1-.4-.2-.6-.2c-.3-.1-.6-.2-1-.2v-.6c.3 0 .6-.1.8-.1l.6-.3c.1-.1.2-.3.3-.4c0-.2.1-.4.1-.6c0-.4-.2-.7-.4-.9c-.3-.2-.6-.3-1-.3c-.2 0-.4 0-.6.1c-.1 0-.3.1-.4.3c-.2.1-.3.3-.3.4c-.1.2-.1.4-.1.6zm11.4 3.7v-2.6h-1.5v-.7h1.5v-1h-1.5v-.7h1.5v-1.7h.9v6.7h-.9zm-1.3-2.3v.7c-.4 0-.8.1-1.3.1c-.5.1-.9.1-1.4.1c-.5 0-.9.1-1.4.1H6.5c.04-.03-.1-.7-.1-.7c0 0 .9-.03.9 0h.3v-3.3h-.9v-.7h4.8v.7h-.9v3.2c.2-.1.4-.1.6-.1c.2 0 .4 0 .6-.1zm-3.4-3v3.3c.2-.1.5-.1.7-.1h.7c-.02 0 0-3.2 0-3.2H8.4zm.5 6.8h5.3v.7H8.1v-2.7h.8v2zM22.2 93h.9v9.2h-.9V93zm-3.6.7c.3 0 .7.1 1 .2c.3.1.5.2.7.4c.2.2.4.4.5.7c.2.3.2.5.2.9c0 .3 0 .6-.2.8c-.1.3-.3.5-.5.7c-.2.2-.4.4-.7.5c-.3.1-.7.1-1 .1c-.4 0-.7 0-1-.1c-.3-.1-.6-.3-.8-.5c-.2-.2-.4-.4-.5-.7c-.1-.2-.2-.5-.2-.8c0-.4.1-.6.2-.9c.1-.3.3-.5.5-.7c.2-.2.5-.3.8-.4c.3-.1.6-.2 1-.2zm0 .7c-.3 0-.5.1-.7.1c-.2.1-.4.2-.5.3c-.2.2-.3.3-.3.5c-.1.2-.2.3-.2.6c0 .2.1.4.2.5c0 .2.1.4.3.5c.1.1.3.2.5.3c.2.1.4.1.7.1c.2 0 .4 0 .6-.1c.2-.1.4-.2.5-.3c.2-.1.3-.3.4-.5c.1-.1.1-.3.1-.5c0-.3 0-.4-.1-.6c-.1-.2-.2-.3-.4-.5c-.1-.1-.3-.2-.5-.3c-.2 0-.4-.1-.6-.1zm-2.8 5.8l-.1-.7h1.3c.5 0 1 0 1.5-.1h1.6c.5-.1 1-.1 1.5-.2l.1.6c-.5.1-1.1.2-1.6.2c-.5.1-1 .1-1.5.1c-.5.1-1 .1-1.5.1h-1.3zm18-7.2h.8v5.4h-.8V96h-1.2v2.4h-.8v-5.2h.8v2.2h1.2V93zm-6.4.7s3.53-.05 3.5 0c0 1.1-.3 2-.8 2.9c-.6.8-1.5 1.5-2.7 2L27 98c.6-.3 1.2-.6 1.6-.9c.4-.3.8-.7 1-1.2c0 .04-2.5.3-2.5.3l-.2-.7s2.99-.17 3-.2c0-.1.1-.3.1-.5c.1-.1.1-.3.1-.5c-.01.04-2.7 0-2.7 0v-.6zm1.2 8.4v-3.2h6v3.2h-6zm.8-2.6v1.9h4.4v-1.9h-4.4zM43 93.1h.8v9.1h-.8v-9.1zm-1.7 3.4v-3.2h.8v8.4h-.8v-4.4H40v-.8h1.3zm-1.8-1.6s.05 4.22 0 4.2h.5c.2 0 .4-.1.5-.1l.1.6c-.4.1-.8.2-1.2.2c-.4 0-.8.1-1.2.1H36c.03.04-.1-.7-.1-.7c0 0 .72.04.7 0h.3c-.03.03 0-4.3 0-4.3h-.8v-.7h4.2v.7h-.8zm-1.9 0s.04 4.31 0 4.3h1.2c-.02-.03 0-4.3 0-4.3h-1.2zm15.1-1.8v6.6h-.8v-6.6h.8zm-2.5 2.8c0 .4-.1.7-.2.9c-.1.3-.3.6-.5.8c-.2.2-.5.3-.7.4c-.3.1-.7.2-1 .2c-.3 0-.6-.1-.9-.2c-.3-.1-.6-.2-.8-.4c-.2-.2-.4-.5-.5-.8c-.1-.2-.2-.5-.2-.9c0-.3.1-.6.2-.9c.1-.3.3-.5.5-.7c.2-.2.5-.3.8-.5c.3-.1.6-.1.9-.1c.3 0 .7 0 1 .1c.2.2.5.3.7.5c.2.2.4.4.5.7c.1.3.2.6.2.9zm-4 0c0 .3.1.5.2.6c0 .2.2.4.3.5c.1.2.3.3.5.4c.2 0 .4.1.6.1c.2 0 .4-.1.6-.1c.2-.1.4-.2.5-.4c.2-.1.3-.3.4-.5c0-.1.1-.3.1-.6c0-.2-.1-.4-.1-.6c-.1-.2-.2-.3-.4-.5c-.1-.1-.3-.2-.5-.3c-.2-.1-.4-.1-.6-.1c-.2 0-.4 0-.6.1c-.2.1-.4.2-.5.3c-.1.2-.3.3-.3.5c-.1.2-.2.4-.2.6zm1.5 5.4h5.3v.7h-6.2v-3h.9v2.3zm15.5-4.1s-2.38-.05-2.4 0c-.2.2-.5.4-.8.5c-.3.2-.6.2-1 .2c-.4 0-.7 0-1-.1c-.3-.1-.5-.3-.7-.5c-.2-.2-.4-.4-.5-.7c-.1-.2-.2-.5-.2-.8c0-.4.1-.7.2-.9c.1-.3.3-.5.5-.7c.2-.2.4-.3.7-.5c.3-.1.6-.1 1-.1c.4 0 .7.1 1 .2c.3.1.6.3.8.6c.02-.04 2.4 0 2.4 0V93h.8v5.5h-.8v-1.3zm-5.8-1.4c0 .2.1.4.1.5c.1.2.2.4.4.5c.1.1.3.2.5.3c.1.1.4.1.6.1c.2 0 .4 0 .6-.1c.2-.1.4-.2.5-.3c.1-.1.2-.3.3-.5c.1-.1.1-.3.1-.5c0-.3 0-.5-.1-.6c-.1-.2-.2-.4-.3-.5c-.1-.1-.3-.2-.5-.3c-.2-.1-.4-.1-.6-.1c-.2 0-.5 0-.6.1c-.2.1-.4.2-.5.3c-.2.1-.3.3-.4.5c0 .1-.1.3-.1.6zm5.8-.8s-1.99.04-2 0c.1.3.1.5.1.8c0 .2 0 .4-.1.7c0-.03 2 0 2 0V95zM61 98.7c.5 0 .9 0 1.3.1c.3.1.7.2.9.3c.3.2.5.4.6.6c.2.2.2.4.2.7c0 .3 0 .6-.2.8c-.1.2-.3.4-.6.5c-.2.2-.6.3-.9.4c-.4 0-.8.1-1.3.1c-.5 0-.9-.1-1.3-.1c-.4-.1-.7-.2-.9-.4c-.3-.1-.5-.3-.6-.5c-.2-.2-.3-.5-.3-.8c0-.3.1-.5.3-.7c.1-.2.3-.4.6-.6c.2-.1.5-.2.9-.3c.4-.1.8-.1 1.3-.1zm0 2.8c.7 0 1.2-.1 1.6-.3c.4-.2.6-.4.6-.8c0-.3-.2-.6-.6-.8c-.4-.2-.9-.3-1.6-.3c-.7 0-1.3.1-1.6.3c-.4.2-.6.5-.6.8c0 .4.2.6.6.8c.3.2.9.3 1.6.3zm11.8-6.1h1.3v.7h-1.3v2.5h-.9v-5.5h.9v2.3zm-1.9 1.9l-.4.7c-.5-.2-.9-.5-1.3-.8c-.4-.4-.7-.8-.9-1.3c-.2.6-.5 1-.9 1.4c-.3.4-.8.7-1.3 1l-.5-.7c.4-.1.7-.3 1-.5l.7-.7c.2-.3.3-.6.4-.9c.1-.4.2-.7.2-1.1c-.01.05 0-.9 0-.9h.8s.03 1.02 0 1c0 .3.1.6.2.9c.1.3.3.6.4.8c.2.3.5.5.7.7c.3.2.6.3.9.4zm-1.1 1.5c.5 0 .9.1 1.3.2c.4 0 .7.1.9.3c.3.1.5.3.6.5c.2.2.3.5.3.7c0 .3-.1.5-.3.7c-.1.2-.3.4-.6.5c-.2.2-.5.3-.9.4c-.4 0-.8.1-1.3.1c-.9 0-1.6-.2-2.2-.5c-.5-.2-.8-.7-.8-1.2c0-.2.1-.5.2-.7c.2-.2.4-.4.6-.5c.3-.2.6-.3 1-.3c.4-.1.8-.2 1.2-.2zm0 2.7c.7 0 1.3-.1 1.6-.2c.4-.2.6-.5.6-.8c0-.3-.2-.6-.6-.7c-.3-.2-.9-.3-1.6-.3c-.6 0-1.2.1-1.6.3c-.3.1-.5.4-.5.7c0 .3.2.6.5.8c.4.1 1 .2 1.6.2zm7.9-3.1l-.4-.6c.4-.1.8-.2 1.2-.4c.4-.2.7-.4 1.1-.7c.3-.3.5-.6.7-.9c.2-.3.3-.7.3-1c.03-.05 0-.2 0-.2h-3v-.7h6.9v.7h-3v.2c0 .3.1.7.3 1c.2.3.4.6.8.9c.3.3.6.5 1 .7c.4.1.8.3 1.2.3l-.3.7c-.4-.1-.7-.2-1-.3c-.4-.2-.7-.3-1-.6c-.3-.2-.6-.4-.8-.7c-.3-.2-.5-.5-.6-.8l-.6.9c-.3.2-.5.5-.8.7c-.3.2-.7.4-1 .5c-.3.2-.7.3-1 .3zm3.8 1.9h3.7v.7h-8.3v-.7h3.8v-2.2h.8v2.2zm10.4-6.1v.6h-5.6v-.6h2.4v-1.1h.8v1.1h2.4zm.8-1.1h.9v9.1h-.9v-9.1zm-3.2 5.6v1c.5 0 .9-.1 1.3-.1c.5 0 .9-.1 1.3-.1l.1.6c-.5.1-1 .1-1.6.2c-.5 0-1 .1-1.5.1h-1.5c-.5.1-.9.1-1.3.1l-.2-.7c.4 0 .8-.1 1.3-.1h1.3v-1c-.5 0-1-.2-1.3-.5c-.3-.3-.5-.7-.5-1.2c0-.2.1-.4.2-.6c.1-.3.2-.4.4-.6c.2-.1.5-.2.7-.3c.3-.1.6-.1.9-.1c.4 0 .7 0 .9.1c.3.1.5.2.7.3c.2.2.4.3.5.6c.1.2.1.4.1.6c0 .5-.1.9-.5 1.2c-.3.3-.7.5-1.3.5zM87.7 97c0 .4.1.6.4.8c.3.2.6.3 1 .3c.4 0 .8-.1 1-.3c.3-.2.4-.4.4-.8c0-.3-.1-.5-.4-.7c-.2-.2-.6-.3-1-.3c-.4 0-.7.1-1 .3c-.3.2-.4.4-.4.7zm15.5-.5l-.4.7l-1-.3c-.4-.1-.7-.3-1-.4c-.3-.2-.6-.4-.8-.7c-.2-.2-.4-.5-.6-.7c-.1.2-.3.5-.6.7c-.2.3-.5.5-.8.7c-.2.1-.6.3-.9.4l-1.1.3l-.3-.7c.4 0 .8-.1 1.2-.3c.4-.2.8-.4 1.1-.6c.3-.2.5-.5.7-.8c.2-.3.3-.6.3-.9c-.02-.02 0-.5 0-.5h.9s-.04.48 0 .5c0 .3.1.6.2.9c.2.3.5.6.8.8c.3.2.6.4 1 .6c.4.2.8.3 1.3.3zm.3 1.7l.1.7h-3.8v3.3h-.8v-3.3h-3.7v-.7h8.2zm10.7-.9v.7h-3.3v-4.1h3.2v.7h-2.4v2.7h2.5zm-3.8-.3l.1.7c-.5.1-1 .2-1.4.2c-.4 0-.9.1-1.3.1c-.04-.04-.5 0-.5 0v-4.1h3v.7h-2.2v2.7c.4 0 .8-.1 1.1-.1c.4 0 .8-.1 1.2-.2zm.7 3.3h3.7v.7h-8.3v-.7h3.8v-1.9h.8v1.9zm10-6.1v.6h-5.4v-.6h2.3v-1.1h.9v1.1h2.2zm1.7 1.9h1.4v.7h-1.4v3.1h-.8v-6.8h.8v3zm-2.2.9c0 .3 0 .5-.1.7c-.1.3-.3.4-.5.6c-.2.1-.4.2-.7.3c-.2.1-.5.1-.9.1c-.3 0-.6 0-.8-.1c-.3-.1-.5-.2-.7-.3c-.2-.2-.4-.3-.5-.6c-.1-.2-.1-.4-.1-.7c0-.2 0-.5.1-.7c.1-.2.3-.3.5-.5c.2-.1.4-.3.7-.3c.2-.1.5-.2.8-.2c.4 0 .7.1.9.2c.3 0 .5.2.7.3c.2.2.4.3.5.5c.1.2.1.5.1.7zm-3.5 0c0 .4.1.6.3.8c.3.2.6.3 1 .3c.5 0 .8-.1 1.1-.3c.2-.2.3-.4.3-.8c0-.3-.1-.5-.3-.7c-.3-.2-.6-.3-1.1-.3c-.4 0-.7.1-1 .3c-.2.2-.3.4-.3.7zm.9 2.4v1.9h5.2v.7h-6.1v-2.6h.9zm11 1.2h3v.8h-5v-.6s2.56-2.5 2.6-2.5c.2-.2.3-.4.5-.6c.2-.2.3-.4.4-.6c.2-.1.2-.3.3-.5c.1-.2.1-.4.1-.7c0-.4-.1-.7-.4-.9c-.3-.3-.6-.4-1-.4c-.2 0-.4.1-.6.1c-.1.1-.3.2-.4.3c-.2.2-.3.3-.3.5c-.1.2-.1.4-.1.6l-1-.2l.3-.9c.2-.2.3-.4.6-.6c.2-.2.4-.3.7-.4c.3-.1.6-.2.9-.2c.3 0 .6.1.9.2c.3.1.5.2.7.4c.2.2.4.4.5.6c.1.3.2.6.2.9c0 .3-.1.6-.2.8c0 .2-.2.5-.3.7c-.1.2-.3.4-.5.6c-.2.2-.4.5-.6.7l-2.1 2c.1 0 .3 0 .4-.1h.4zm3.5 1.6l.4-2.1h.9l-.6 2.1h-.7zm3.8-7.4l-.3 1.9c.3 0 .7-.1 1.1-.1c.4 0 .7.1 1 .2c.3.1.6.3.8.5c.2.2.3.4.4.7c.1.3.2.6.2.9c0 .4-.1.8-.2 1.1c-.2.3-.4.6-.6.8c-.2.2-.5.4-.9.5c-.3.2-.6.2-1 .2c-.5 0-.9-.1-1.2-.2c-.4-.2-.7-.4-.9-.6l.5-.7c.2.2.4.4.7.5c.3.1.6.2.9.2c.3 0 .5 0 .7-.1c.2-.1.4-.2.6-.4c.1-.1.3-.3.4-.5c0-.2.1-.5.1-.8c0-.4-.2-.8-.5-1.1c-.3-.3-.7-.4-1.2-.4c-.2 0-.4 0-.6.1c-.2 0-.4.1-.6.1c-.04.04-.6-.1-.6-.1l.6-3.6h3.5v.9h-2.9zm6.2 5.8h3v.8h-5v-.6s2.53-2.5 2.5-2.5l.6-.6c.1-.2.3-.4.4-.6c.1-.1.2-.3.3-.5c.1-.2.1-.4.1-.7c0-.4-.2-.7-.4-.9c-.3-.3-.6-.4-1-.4c-.2 0-.4.1-.6.1c-.2.1-.3.2-.5.3c-.1.2-.2.3-.3.5c0 .2-.1.4-.1.6l-.9-.2c.1-.3.1-.6.3-.9c.1-.2.3-.4.5-.6c.2-.2.5-.3.8-.4c.2-.1.5-.2.9-.2c.3 0 .6.1.9.2c.2.1.5.2.7.4c.2.2.3.4.5.6c.1.3.1.6.1.9c0 .3 0 .6-.1.8c-.1.2-.2.5-.3.7c-.2.2-.3.4-.5.6c-.2.2-.4.5-.6.7l-2.1 2c.1 0 .3 0 .4-.1h.4zm8.6-4.8c0 .9-.4 1.4-1.2 1.7c.5.2.9.4 1.1.7c.3.3.4.7.4 1.2c0 .4-.1.7-.2.9c-.1.3-.3.5-.5.7c-.2.2-.5.4-.8.5c-.3.1-.7.1-1.1.1c-.4 0-.7 0-1-.1c-.3-.1-.6-.3-.8-.5c-.3-.2-.4-.4-.6-.7c-.1-.2-.2-.5-.2-.9c0-.5.2-.9.4-1.2c.3-.3.6-.5 1.1-.7c-.4-.1-.7-.3-.9-.6c-.2-.3-.3-.7-.3-1.1c0-.3.1-.6.2-.8c.1-.2.2-.4.4-.6c.2-.2.5-.4.8-.5c.3-.1.6-.1.9-.1c.4 0 .7 0 1 .1c.3.1.5.3.7.5c.2.2.4.4.5.6c.1.2.1.5.1.8zm-2.3-1.3c-.4 0-.8.1-1 .4c-.2.2-.4.6-.4.9c0 .2.1.4.1.5c.1.2.1.3.2.5c.2.1.3.2.5.3c.2 0 .4.1.6.1c.3 0 .5-.1.7-.1c.1-.1.3-.2.4-.3c.1-.2.2-.3.2-.5c.1-.1.1-.3.1-.5c0-.3-.1-.7-.3-.9c-.3-.3-.6-.4-1.1-.4zm0 6.3c.5 0 .9-.1 1.2-.3c.3-.3.4-.7.4-1.1c0-.2 0-.5-.1-.7c-.1-.1-.2-.3-.4-.4c-.1-.1-.3-.2-.5-.3c-.2 0-.4-.1-.6-.1c-.2 0-.4.1-.6.1c-.2.1-.3.2-.5.3c-.1.1-.3.3-.3.4c-.1.2-.2.5-.2.7c0 .4.2.8.4 1.1c.3.2.7.3 1.2.3zm10.5-5h1.4v.7h-1.4v3.2h-.8V93h.8v2.8zm-2.5-1.9v4.2h-4.2v-4.2h4.2zm-.8 3.5v-2.9h-2.6v2.9h2.6zm-1.6 1.7v2.2h5.3v.7h-6.1v-2.9h.8zm14.9-4.9v.6h-5.6v-.6h2.4v-1.1h.8v1.1h2.4zm.8-1.1h.8v9.1h-.8v-9.1zm-3.2 5.6v1c.4 0 .9-.1 1.3-.1c.4 0 .9-.1 1.3-.1l.1.6c-.5.1-1.1.1-1.6.2c-.5 0-1 .1-1.5.1H165c-.5.1-.9.1-1.4.1l-.1-.7c.4 0 .8-.1 1.2-.1h1.4v-1c-.6 0-1-.2-1.3-.5c-.3-.3-.5-.7-.5-1.2c0-.2 0-.4.1-.6c.2-.3.3-.4.5-.6c.2-.1.4-.2.7-.3c.3-.1.6-.1.9-.1c.3 0 .6 0 .9.1c.3.1.5.2.7.3c.2.2.3.3.4.6c.1.2.2.4.2.6c0 .5-.2.9-.5 1.2c-.3.3-.7.5-1.3.5zm-1.8-1.7c0 .4.1.6.4.8c.2.2.6.3 1 .3c.4 0 .7-.1 1-.3c.3-.2.4-.4.4-.8c0-.3-.1-.5-.4-.7c-.3-.2-.6-.3-1-.3c-.4 0-.8.1-1 .3c-.3.2-.4.4-.4.7zm13.9-2.4v-.7h-5.3v-.6h6.2v1.9h-5.4v.8h5.5v.6h-6.3v-2h5.3zm-6.4 2.7h8.3v.6h-8.3v-.6zm1.9 3.3v.9h5.7v.6h-6.5V100h5.4v-.7h-5.5v-.6h6.3v1.9h-5.4zm16.1-7.6h.8v9.2h-.8V93zm-6.2 1s4.33.03 4.3 0c0 .7 0 1.3-.2 1.9c-.2.7-.4 1.2-.8 1.8c-.3.5-.7 1-1.3 1.5c-.5.5-1.2.9-1.9 1.3l-.5-.7c1.3-.6 2.2-1.3 2.8-2.2c.6-.8 1-1.8 1.1-2.9h-3.5v-.7zm13.3 4.1h3.7v.7h-8.3v-.7h3.7v-1h-2.7v-2.2h5.4v-1h-5.4v-.6h6.2v2.2H195v1h5.5v.6h-2.8v1zm-3.7 2v-.6h6.4v2.6h-.9v-2H194zm14-3.9v2.4h-.8v-5.4h.8v2.4h1.2v-2.5h.8v5.6h-.8v-2.5H208zm-1.1-2.1v.7h-4.7v-.7h1.9v-1h.9v1h1.9zm-2.4 4.2c-.2 0-.5 0-.7-.1c-.3 0-.5-.1-.7-.3c-.1-.1-.3-.3-.4-.5c-.1-.2-.1-.4-.1-.6c0-.3 0-.5.1-.7c.1-.2.3-.3.4-.5c.2-.1.4-.2.7-.3c.2 0 .5-.1.7-.1c.3 0 .6.1.8.1c.3.1.5.2.7.3c.1.2.3.3.4.5c.1.2.1.4.1.7c0 .2 0 .4-.1.6c-.1.2-.3.4-.4.5c-.2.2-.4.3-.7.3c-.2.1-.5.1-.8.1zm0-2.5c-.3 0-.6.1-.8.3c-.2.2-.4.4-.4.7c0 .3.2.5.4.7c.2.1.5.2.8.2c.4 0 .7-.1.9-.2c.2-.2.4-.4.4-.7c0-.3-.2-.5-.4-.7c-.2-.2-.5-.3-.9-.3zm4.4 3.2s-.04.29 0 .3c0 .2 0 .4.1.7l.3.6c.2.2.4.3.6.5c.3.1.5.3.8.4l-.4.6c-.5-.2-.8-.4-1.2-.7c-.3-.3-.5-.6-.7-1c-.1.4-.3.7-.6 1c-.2.3-.6.6-1 .8c-.5-.2-.8-.4-1.1-.7c-.3-.3-.5-.7-.6-1.1c-.2.4-.4.7-.7 1c-.3.3-.7.5-1.2.7l-.4-.6c.3-.1.6-.3.8-.4l.6-.6c.1-.2.3-.4.4-.6c0-.2.1-.4.1-.6c-.02-.01 0-.3 0-.3h.8v.3c0 .4.1.8.3 1.1c.2.4.5.7 1 1c.2-.2.4-.3.5-.5c.2-.2.3-.3.4-.5l.3-.6v-.5c.04-.01 0-.3 0-.3h.9zm11.1-2.3v.6h-1.5v4.9h-.9V93h.9v3.7h1.5zm-7.3-2.1s-.03 4.61 0 4.6h2.1c.4-.1.7-.1 1-.1c.3-.1.7-.1 1-.2l.1.7c-.4.1-.7.1-1 .2c-.4 0-.7 0-1.1.1h-2.2c-.04.03-.8 0-.8 0v-6h4.3v.7h-3.4zm7.8 7v-1h.9v1h-.9z" stroke="none" fill="#111111"/></g><g id="Polygon116150"><path d="m9.1 78.2v.7H7.6v4.8h-.8v-9.2h.8v3.7h1.5zm-7.4.5s.03 2.09 0 2.1h1.2c.4 0 .7 0 1.1-.1c.3 0 .6 0 .9-.1c.4 0 .7-.1 1-.1l.1.7c-.3 0-.7.1-1 .1c-.4.1-.7.1-1 .1c-.4 0-.8.1-1.1.1h-2V78h3.3v-1.9H.9v-.7h4.1v3.3H1.7zm14.7-4.2h.8v9.2h-.8v-9.2zm-4 .7c.3 0 .6.1.9.3c.3.1.6.3.8.6c.2.3.3.6.4 1c.2.4.2.8.2 1.3c0 .5 0 1-.2 1.4c-.1.3-.2.7-.4 1c-.2.2-.5.5-.8.6c-.3.2-.6.2-.9.2c-.4 0-.7 0-1-.2c-.2-.1-.5-.4-.7-.6c-.2-.3-.4-.7-.5-1c-.1-.4-.1-.9-.1-1.4c0-.5 0-.9.1-1.3c.1-.4.3-.7.5-1c.2-.3.5-.5.7-.6c.3-.2.6-.3 1-.3zm0 .8c-.2 0-.4.1-.6.2c-.2.1-.4.3-.5.5c-.2.2-.3.4-.3.7c-.1.3-.1.7-.1 1c0 .4 0 .7.1 1c0 .3.1.6.3.8c.1.2.3.4.5.5c.2.1.4.2.6.2c.2 0 .4-.1.6-.2c.2-.1.3-.3.5-.5c.1-.2.2-.5.3-.8c.1-.3.1-.6.1-1c0-.3 0-.7-.1-1c-.1-.3-.2-.5-.3-.7c-.2-.2-.3-.4-.5-.5c-.2-.1-.4-.2-.6-.2zm7.5-.8h.8v1.7h4.7v-1.7h.8v4.8h-6.3v-4.8zm.8 2.3v1.8h4.7v-1.8h-4.7zm-1.8 4.3h8.3v.7h-8.3v-.7zm18-7.2h.8v9.1h-.8v-4.8h-2.2v-.7h2.2v-3.6zm-6.2.9h4.1c0 .7-.1 1.3-.2 1.9c-.2.7-.4 1.3-.7 1.8c-.3.6-.7 1.1-1.3 1.6c-.5.5-1.2 1-2 1.4l-.4-.7c.8-.4 1.5-.8 2-1.4c.5-.5.9-1 1.2-1.7c-.01.05-3.1.3-3.1.3l-.1-.7s3.45-.22 3.4-.2c.1-.3.2-.5.2-.8c.1-.3.1-.5.1-.8c.05-.03-3.2 0-3.2 0v-.7zm15.3-1h.9v9.2h-.9v-5.1h-2.1v2.8h-4.2v-6h4.2v2.5h2.1v-3.4zm-3 6.2v-4.6h-2.5v4.6h2.5zm13.4-1.6l-.4.7c-.3 0-.7-.2-1-.3c-.4-.2-.7-.4-1-.6c-.3-.2-.6-.5-.8-.8l-.6-.9c-.1.3-.3.6-.5.9c-.3.3-.6.6-.9.8l-.9.6c-.4.1-.7.3-1.1.3l-.3-.7c.4 0 .8-.2 1.2-.4c.4-.2.7-.4 1-.7c.3-.3.6-.6.8-1c.2-.3.3-.7.3-1.1v-.7h.9s-.03.69 0 .7c0 .4.1.7.3 1.1c.2.4.4.7.7 1c.4.3.7.5 1.1.7c.4.2.8.4 1.2.4zm-7.9 2.7h8.3v.7h-8.3v-.7zm18.4-5h1.3v.7h-1.3v2.5h-.9v-5.5h.9v2.3zm-2.5-1.7v4.2h-4.2v-4.2h.8v1.4h2.6v-1.4h.8zm-.8 3.6v-1.5H61v1.5h2.6zm.4 1.6c.4 0 .9 0 1.2.1c.4.1.7.2 1 .3l.6.6c.1.2.2.4.2.7c0 .3-.1.5-.2.7c-.2.2-.4.4-.6.5c-.3.2-.6.3-1 .4c-.3.1-.8.1-1.2.1c-1 0-1.7-.2-2.2-.5c-.6-.2-.8-.7-.8-1.2c0-.6.2-1 .8-1.3c.5-.3 1.2-.4 2.2-.4zm0 2.7c.7 0 1.2-.1 1.6-.2c.4-.2.5-.5.5-.8c0-.3-.1-.6-.5-.8c-.4-.2-.9-.2-1.6-.2c-.7 0-1.3 0-1.6.2c-.4.2-.6.5-.6.8c0 .3.2.6.6.8c.3.1.9.2 1.6.2zm12.7-5.5l-.3.7c-.3 0-.7-.1-1-.3c-.3-.1-.7-.2-1-.4c-.2-.2-.5-.3-.7-.6c-.3-.2-.5-.4-.6-.7c-.1.3-.3.5-.6.7c-.2.3-.5.4-.8.6c-.2.2-.6.3-.9.4c-.3.2-.7.3-1 .3l-.3-.7c.4 0 .8-.1 1.2-.3c.3-.1.7-.3 1-.5c.3-.2.5-.5.7-.7c.2-.3.3-.6.3-.9c-.04-.01 0-.4 0-.4h.8s.02.39 0 .4c0 .3.1.6.3.9c.2.2.4.5.7.7c.3.2.7.4 1 .5c.4.2.8.3 1.2.3zm-3.2 1.6h3.7v.7H69v-.7h3.7v-1.4h.8v1.4zm-.4 1.4c1 0 1.7.2 2.3.4c.5.3.8.7.8 1.2c0 .5-.3.9-.8 1.2c-.6.2-1.3.4-2.3.4c-1 0-1.8-.2-2.3-.4c-.6-.3-.8-.7-.8-1.2c0-.5.2-.9.8-1.2c.5-.2 1.3-.4 2.3-.4zm0 2.5c.7 0 1.3 0 1.7-.2c.4-.2.6-.4.6-.7c0-.3-.2-.5-.6-.7c-.4-.2-1-.2-1.7-.2c-.7 0-1.3 0-1.7.2c-.4.2-.6.4-.6.7c0 .3.2.5.6.7c.4.2 1 .2 1.7.2zm9.2-5.1c-1 0-1.8-.2-2.4-.4c-.6-.3-.8-.7-.8-1.2c0-.5.2-.9.8-1.2c.6-.3 1.4-.4 2.4-.4c1 0 1.8.1 2.3.4c.6.3.9.7.9 1.2c0 .5-.3.9-.9 1.2c-.5.2-1.3.4-2.3.4zm0-2.6c-.8 0-1.4.1-1.8.3c-.4.1-.6.4-.6.7c0 .3.2.5.6.7c.4.2 1 .2 1.8.2c.7 0 1.3 0 1.7-.2c.4-.2.6-.4.6-.7c0-.3-.2-.6-.6-.7c-.4-.2-1-.3-1.7-.3zm-4.2 3.2h8.3v.7h-8.3v-.7zM80 82v.9h5.6v.7h-6.4v-2.2h5.3v-.8h-5.4v-.7h6.3v2.1H80zm14-2.6h3.7v.7h-8.3v-.7h3.7v-.9h-2.6v-3.7h6.2v.7h-5.4v.8h5.1v.6h-5.1v.9h5.4v.7H94v.9zm-.5 1.4c1.1 0 1.8.1 2.4.3c.5.3.8.6.8 1.1c0 .5-.3.9-.8 1.1c-.6.3-1.3.4-2.4.4c-1 0-1.8-.1-2.3-.4c-.5-.2-.8-.6-.8-1.1c0-.5.3-.8.8-1.1c.5-.2 1.3-.3 2.3-.3zm0 2.2c.8 0 1.3 0 1.7-.2c.4-.1.6-.3.6-.6c0-.3-.2-.5-.6-.6c-.4-.2-.9-.2-1.7-.2c-.7 0-1.3 0-1.7.2c-.4.1-.6.3-.6.6c0 .3.2.5.6.6c.4.2 1 .2 1.7.2zm12-8.5h.8v9.2h-.8v-4.6h-1.1v4.1h-.8v-8.5h.8v3.7h1.1v-3.9zm-4.2.3v1.3h1.8v.7h-4.5v-.7h1.8v-1.3h.9zm-.5 2.6c.3 0 .6 0 .8.1c.3.2.5.3.6.5c.2.2.4.4.5.6c.1.3.1.6.1.9c0 .3 0 .6-.1.8c-.1.3-.3.5-.5.7c-.1.2-.3.3-.6.4c-.2.1-.5.2-.8.2c-.2 0-.5-.1-.7-.2c-.3-.1-.5-.2-.7-.4c-.1-.2-.3-.4-.4-.7c-.1-.2-.1-.5-.1-.8c0-.3 0-.6.1-.9c.1-.2.3-.4.4-.6c.2-.2.4-.3.7-.5c.2-.1.5-.1.7-.1zm0 3.5c.4 0 .7-.2.9-.4c.2-.3.4-.6.4-1c0-.2-.1-.4-.1-.6c-.1-.1-.2-.3-.3-.4c-.1-.1-.2-.2-.4-.3c-.1-.1-.3-.1-.5-.1c-.3 0-.6.1-.8.4c-.3.2-.4.6-.4 1c0 .4.1.7.4 1c.2.2.5.4.8.4zm15.7-6.4h.8v9.2h-.8v-9.2zm-6.1.8h.8v2.4h2.6v-2.4h.9v6.2h-4.3v-6.2zm.8 3.1v2.4h2.6v-2.4h-2.6zm14.8-3.9h.8v9.2h-.8v-4.8h-1.3v4.3h-.8v-8.5h.8v3.5h1.3v-3.7zm-5.8 1.8s-.02 4.44 0 4.4h1.6c.5-.1 1-.1 1.5-.2v.7c-.2 0-.5.1-.8.1c-.2 0-.5.1-.8.1H120c-.05.04-.7 0-.7 0v-5.7h3.5v.6h-2.6zm12.6 2.5v.8h-4.2v-4.3h4.2v.9h2.1v-1.6h.8v6.6h-.8v-2.4h-2.1zm-.8.1V76h-2.6v2.9h2.6zm2.9-2.1h-2.1v1.3h2.1v-1.3zm-4.2 6h5.3v.7h-6.1v-2.9h.8v2.2zm13.6-5.7h1.9v-2.5h.8v6.7h-.8v-3.5h-1.9v-.7zm.6 2.1l-.5.7c-.5-.2-.9-.5-1.3-.8c-.4-.4-.7-.8-.9-1.3c-.2.5-.5 1-.9 1.4c-.4.4-.8.7-1.4.9l-.4-.7c.3-.1.6-.3.9-.5c.3-.2.6-.4.8-.7c.2-.2.3-.5.4-.8c.1-.3.2-.6.2-1v-.4h-2v-.7h4.8v.7h-2s.04.42 0 .4c0 .3.1.6.2.9c.1.3.3.5.5.8c.1.2.4.5.7.7c.2.2.5.3.9.4zm-2.9 3.6h5.3v.7h-6.2v-2.8h.9v2.1zm12.1-7.4v.7h-5.3v-.7h2.2v-.9h.9v.9h2.2zm1.6 2.3h1.4v.7h-1.4v3.3h-.8v-7.2h.8v3.2zm-1.3 2v.6c-.5 0-1 .1-1.5.2c-.5 0-1 .1-1.5.1H150c-.5 0-.9.1-1.3.1l-.1-.7h1.2c.4 0 .8 0 1.2-.1v-.7c-.5 0-.9-.2-1.2-.4c-.3-.2-.5-.6-.5-1c0-.2.1-.4.2-.5c.1-.2.2-.4.4-.5c.2-.1.4-.2.7-.3c.2 0 .5-.1.9-.1c.3 0 .6.1.8.1c.3.1.5.2.7.3c.2.1.3.3.4.5c.1.1.2.3.2.5c0 .4-.2.8-.5 1c-.3.2-.7.4-1.2.4v.7c.4 0 .8-.1 1.2-.1c.5 0 .9-.1 1.3-.1zm-4.3-1.9c0 .3.1.5.4.6c.2.2.5.3 1 .3c.4 0 .7-.1.9-.3c.3-.1.4-.3.4-.6c0-.2-.1-.4-.4-.5c-.2-.2-.5-.3-.9-.3c-.5 0-.8.1-1 .3c-.3.1-.4.3-.4.5zm.7 3.4v1.6h5.3v.7h-6.2v-2.3h.9zm11.2-3.3c-1.1 0-1.8-.2-2.4-.4c-.6-.3-.9-.7-.9-1.2c0-.5.3-.9.9-1.2c.6-.3 1.3-.4 2.4-.4c1 0 1.7.1 2.3.4c.6.3.9.7.9 1.2c0 .5-.3.9-.9 1.2c-.6.2-1.3.4-2.3.4zm0-2.6c-.8 0-1.4.1-1.8.3c-.4.1-.6.4-.6.7c0 .3.2.5.6.7c.4.2 1 .2 1.8.2c.7 0 1.3 0 1.7-.2c.4-.2.6-.4.6-.7c0-.3-.2-.6-.6-.7c-.4-.2-1-.3-1.7-.3zm-4.2 3.2h8.3v.7h-8.3v-.7zm1.9 3.5v.9h5.6v.7h-6.5v-2.2h5.4v-.8h-5.4v-.7h6.2v2.1h-5.3zm16-7.4h.9v9.1h-.9v-9.1zm-3.4 1.6s.05 1.14 0 1.1c0 .4.1.8.2 1.2c.2.4.3.7.6 1.1c.2.3.4.6.7.8c.3.3.7.5 1 .6l-.5.7c-.5-.2-1-.6-1.4-1.1c-.4-.5-.8-1.1-1-1.7c-.1.3-.2.7-.4 1c-.1.3-.3.6-.5.8c-.2.3-.4.5-.7.7c-.2.2-.5.4-.7.5l-.5-.6c.3-.2.6-.4.9-.7c.3-.3.6-.6.8-.9c.2-.4.4-.8.5-1.2c.1-.4.2-.8.2-1.2c.01.04 0-1.1 0-1.1h-2.1v-.7h5.1v.7h-2.2zm10.8 3.7h1.8v-5.4h.9v7h-.9v-.9h-1.8v-.7zm-1.9-1.8c-.3 0-.6 0-.9-.1c-.3-.1-.5-.2-.7-.3c-.2-.2-.4-.3-.5-.5c-.1-.2-.2-.5-.2-.7c0-.2.1-.5.2-.7c.1-.2.3-.3.5-.5c.2-.1.4-.2.7-.3c.3-.1.6-.1.9-.1c.3 0 .6 0 .9.1c.3.1.5.2.7.3c.2.2.4.3.5.5c.1.2.1.5.1.7c0 .2 0 .5-.1.7c-.1.2-.3.3-.5.5c-.2.1-.4.2-.7.3c-.3.1-.6.1-.9.1zm0-2.6c-.4 0-.8.1-1.1.3c-.2.2-.4.4-.4.7c0 .3.2.5.4.7c.3.2.7.3 1.1.3c.4 0 .8-.1 1-.3c.3-.2.5-.4.5-.7c0-.3-.2-.5-.5-.7c-.2-.2-.6-.3-1-.3zm-.3 5.7s-.03-1.78 0-1.8c-.5 0-.9.1-1.4.1h-1.2l-.1-.7h1.4c.5 0 1 0 1.5-.1h1.5c.5-.1 1-.1 1.5-.2l.1.6c-.4.1-.8.1-1.3.2c-.4 0-.8 0-1.2.1v1.8h-.8zm-.5 1.6h5.6v.7h-6.5v-2.7h.9v2zm15.6-4.5v.7h-1.5v4.7h-.8v-9.1h.8v3.7h1.5zm-5.5-3.6v1.3h2.3v.7h-5.4v-.7h2.3v-1.3h.8zm-.4 2.7c.4 0 .7.1.9.2c.3.1.5.2.7.4c.2.2.4.4.5.7c.1.3.2.5.2.8c0 .4-.1.6-.2.9c-.1.3-.3.5-.5.7c-.2.2-.4.3-.7.4c-.2.1-.5.1-.9.1c-.3 0-.6 0-.9-.1c-.2-.1-.5-.2-.7-.4c-.2-.2-.3-.4-.4-.7c-.1-.3-.2-.5-.2-.9c0-.3.1-.5.2-.8c.1-.3.2-.5.4-.7c.2-.2.5-.3.7-.4c.3-.1.6-.2.9-.2zm0 3.6c.2 0 .4-.1.6-.2c.2 0 .3-.1.5-.2c.1-.2.2-.3.3-.5c0-.2.1-.3.1-.6c0-.2-.1-.3-.1-.5c-.1-.2-.2-.3-.3-.5c-.2-.1-.3-.2-.5-.3c-.2 0-.4-.1-.6-.1c-.2 0-.4.1-.5.1c-.2.1-.4.2-.5.3c-.1.2-.2.3-.3.5c-.1.2-.1.3-.1.5c0 .3 0 .4.1.6c.1.2.2.3.3.5c.1.1.3.2.5.2c.1.1.3.2.5.2zm13.9-3.7v.7h-6.3v-3.1h.9v2.4h5.4zm-7.4 1.9h8.3v.7h-8.3v-.7zm1.9 1.6v2h5.5v.7h-6.3v-2.7h.8zm10.6-5.3v1.1H208s-.01-1.09 0-1.1c0-.4.1-.7.2-.9c.1-.2.2-.3.3-.4c.2-.1.4-.1.6-.1v.4c-.1 0-.2.1-.3.1c-.1.1-.2.2-.2.3c0 .1-.1.2-.1.3v.3h.6zm7.7-1h.8v9.2h-.8v-9.2zm-6.1 1s4.26.03 4.3 0c0 .7-.1 1.3-.3 1.9c-.1.7-.4 1.2-.7 1.8c-.4.5-.8 1-1.3 1.5c-.6.5-1.2.9-2 1.3l-.4-.7c1.2-.6 2.1-1.3 2.7-2.2c.7-.8 1-1.8 1.1-2.9h-3.4v-.7zm10.8 3.8v-3.2h-1.4v-.6h6.7v.6h-1.4v3.2h1.4v.7h-6.7v-.7h1.4zm3.1 0v-3.2h-2.3v3.2h2.3zm-5.3 2.5h8.3v.7h-8.3v-.7zm16.5-2.3v.7h-6.2v-4.9h6.2v.7h-5.4v1.4h5.1v.6h-5.1v1.5h5.4zm-7.3 2.3h8.3v.7h-8.3v-.7zm17.7-3.5v.6h-1.5v4.8h-.8v-9.2h.8v3.8h1.5zm-7.9-2.8h4.1c0 .6-.1 1.3-.2 1.9c-.1.7-.4 1.3-.7 1.8c-.3.6-.7 1.1-1.3 1.6c-.5.5-1.2 1-2 1.4l-.4-.7c.8-.4 1.5-.8 2-1.4c.5-.5.9-1 1.2-1.7c.03.05-3.1.3-3.1.3l-.1-.7s3.48-.23 3.5-.2l.3-1.6c-.04-.03-3.3 0-3.3 0v-.7zm15.2 3.9h3.7v.7h-8.3v-.7h3.8s-.04-.95 0-1c-.5 0-.9 0-1.2-.1c-.3-.1-.6-.2-.9-.4c-.2-.1-.4-.3-.5-.5c-.2-.3-.2-.5-.2-.8c0-.2 0-.5.2-.7c.1-.2.3-.4.6-.6c.3-.2.7-.3 1.1-.4c.3 0 .8-.1 1.3-.1c.5 0 .9.1 1.3.1c.4.1.7.2 1 .4c.3.2.5.4.7.6c.1.2.2.5.2.7c0 .3-.1.5-.2.8c-.1.2-.3.4-.6.5c-.2.2-.5.3-.8.4c-.4.1-.8.1-1.2.1v1zm-2.8-2.8c0 .4.2.7.6.9c.5.2 1 .3 1.8.3c.7 0 1.3-.1 1.7-.3c.4-.2.6-.5.6-.9c0-.3-.2-.6-.6-.8c-.4-.2-1-.3-1.7-.3c-.8 0-1.3.1-1.8.3c-.4.2-.6.5-.6.8zm.1 4.2v2h5.5v.7H250v-2.7h.8zm14.3-6.3h.8v9.2h-.8v-9.2zm-1.8 3.6v-3.4h.8v8.5h-.8v-4.4s-1.17-.02-1.2 0c0 .4-.1.8-.1 1.2c-.1.3-.3.7-.4.9c-.2.3-.4.4-.6.6c-.3.1-.5.2-.8.2c-.3 0-.6-.1-.8-.2c-.3-.2-.5-.4-.6-.7c-.2-.3-.3-.6-.4-1c-.1-.4-.2-.8-.2-1.3c0-.5.1-1 .2-1.3c.1-.4.2-.8.4-1c.1-.3.3-.5.6-.7c.2-.1.5-.2.8-.2c.3 0 .5.1.7.2c.3.1.5.3.6.6c.2.2.3.5.4.8c.1.4.2.8.2 1.2h1.2zm-3.1 2.8c.4 0 .6-.2.9-.6c.2-.5.3-1.1.3-1.8c0-.4-.1-.7-.1-1c-.1-.3-.2-.6-.3-.8c-.1-.2-.2-.3-.3-.5c-.2-.1-.3-.1-.5-.1c-.4 0-.7.2-.9.6c-.2.5-.3 1-.3 1.8c0 .7.1 1.3.3 1.8c.2.4.5.6.9.6zm13.8-6.4h.8v9.2h-.8v-5h-2c0 .5-.1.9-.2 1.2c-.1.4-.3.7-.5.9c-.2.3-.4.5-.7.6c-.2.2-.5.2-.9.2c-.3 0-.6 0-.9-.2c-.2-.1-.5-.4-.7-.6c-.2-.3-.4-.7-.5-1c-.1-.4-.1-.9-.1-1.4c0-.5 0-.9.1-1.3c.1-.4.3-.7.5-1c.2-.3.5-.5.7-.6c.3-.2.6-.3.9-.3c.4 0 .6.1.9.2c.3.2.5.4.7.6c.2.2.4.5.5.9c.1.3.2.7.2 1.1c.01.03 2 0 2 0v-3.5zm-4.3 6.4c.3 0 .5-.1.6-.2c.2-.1.4-.3.5-.5c.1-.2.2-.5.3-.8c.1-.3.1-.6.1-1c0-.3 0-.7-.1-1c-.1-.3-.2-.5-.3-.7c-.1-.2-.3-.4-.5-.5c-.1-.1-.3-.2-.6-.2c-.2 0-.4.1-.6.2c-.1.1-.3.3-.4.5c-.2.2-.3.4-.3.7c-.1.3-.1.7-.1 1c0 .4 0 .7.1 1c0 .3.1.6.3.8c.1.2.3.4.4.5c.2.1.4.2.6.2zm7-5.8V74h1.1s-.04 1.08 0 1.1c0 .2-.1.3-.1.5c0 .2-.1.3-.2.5l-.3.3c-.2.1-.3.1-.5.1v-.4c.1 0 .2-.1.3-.1c0-.1.1-.2.1-.3c.1-.1.1-.2.1-.3v-.3c.05-.02-.5 0-.5 0zm11-.6h.8v5.4h-.8v-2.4h-1.2v2.4h-.8v-5.2h.8v2.2h1.2v-2.4zm-6.4.7s3.58-.05 3.6 0c0 1.1-.3 2-.9 2.9c-.5.8-1.4 1.5-2.7 2l-.4-.6c.7-.3 1.2-.6 1.6-.9c.5-.3.8-.7 1.1-1.2c-.04.04-2.6.3-2.6.3l-.1-.7s2.94-.17 2.9-.2c.1-.1.1-.3.2-.5v-.5c.05.04-2.7 0-2.7 0v-.6zm1.2 8.4v-3.2h6v3.2h-6zm.8-2.6v1.9h4.4V81h-4.4zm13.7-6.4h.8v9.1h-.8v-9.1zm-1.8 3.4v-3.2h.8v8.4h-.8v-4.4H294v-.8h1.2zm-1.7-1.6v4.2h.5c.2 0 .3-.1.5-.1v.6c-.3.1-.7.2-1.1.2c-.4 0-.8.1-1.2.1H290c-.02.04-.1-.7-.1-.7c0 0 .68.04.7 0h.2c.03.03 0-4.3 0-4.3h-.7v-.7h4.2v.7h-.8zm-1.9 0v4.3h1.1c.04-.03 0-4.3 0-4.3h-1.1zm15.1-1.8v6.6h-.9v-6.6h.9zm-2.5 2.8c0 .4-.1.7-.2.9c-.1.3-.3.6-.5.8c-.2.2-.5.3-.8.4c-.3.1-.6.2-.9.2c-.4 0-.7-.1-1-.2c-.3-.1-.5-.2-.7-.4c-.2-.2-.4-.5-.5-.8c-.2-.2-.2-.5-.2-.9c0-.3 0-.6.2-.9c.1-.3.3-.5.5-.7c.2-.2.4-.3.7-.5c.3-.1.6-.1 1-.1c.3 0 .6 0 .9.1c.3.2.6.3.8.5c.2.2.4.4.5.7c.1.3.2.6.2.9zm-4 0c0 .3 0 .5.1.6c.1.2.2.4.3.5c.2.2.4.3.5.4c.2 0 .4.1.7.1c.2 0 .4-.1.6-.1c.2-.1.4-.2.5-.4c.1-.1.3-.3.3-.5c.1-.1.1-.3.1-.6c0-.2 0-.4-.1-.6c0-.2-.2-.3-.3-.5c-.1-.1-.3-.2-.5-.3c-.2-.1-.4-.1-.6-.1c-.3 0-.5 0-.7.1c-.1.1-.3.2-.5.3c-.1.2-.2.3-.3.5c-.1.2-.1.4-.1.6zm1.4 5.4h5.4v.7h-6.2v-3h.8v2.3zm10.9-4.9c-1 0-1.8-.2-2.4-.4c-.5-.3-.8-.7-.8-1.2c0-.5.3-.9.8-1.2c.6-.3 1.4-.4 2.4-.4c1 0 1.8.1 2.3.4c.6.3.9.7.9 1.2c0 .5-.3.9-.9 1.2c-.5.2-1.3.4-2.3.4zm0-2.6c-.8 0-1.4.1-1.8.3c-.4.1-.6.4-.6.7c0 .3.2.5.6.7c.4.2 1 .2 1.8.2c.7 0 1.3 0 1.7-.2c.4-.2.6-.4.6-.7c0-.3-.2-.6-.6-.7c-.4-.2-1-.3-1.7-.3zm-4.2 3.2h8.3v.7h-8.3v-.7zm1.9 3.5v.9h5.6v.7h-6.4v-2.2h5.3v-.8h-5.4v-.7h6.3v2.1h-5.4zm13.5-3.6c-.4 0-.9 0-1.3-.1c-.4-.1-.7-.2-1-.3c-.3-.2-.5-.4-.6-.6c-.2-.2-.3-.5-.3-.8c0-.3.1-.5.3-.8c.1-.2.3-.4.6-.5c.3-.2.6-.3 1-.4c.4-.1.9-.1 1.3-.1c.5 0 1 0 1.4.1c.4.1.7.2 1 .4c.3.1.5.3.6.5c.2.3.2.5.2.8c0 .3 0 .6-.2.8c-.1.2-.3.4-.6.6c-.3.1-.6.2-1 .3c-.4.1-.9.1-1.4.1zm0-3c-.3 0-.6.1-.9.1c-.3.1-.5.2-.7.3c-.2.1-.4.2-.5.3c-.1.2-.2.3-.2.5c0 .2.1.3.2.5c.1.1.3.3.5.4c.2.1.4.1.7.2c.3 0 .6.1.9.1c.8 0 1.3-.1 1.7-.3c.5-.3.7-.5.7-.9c0-.4-.2-.6-.6-.8c-.5-.2-1-.4-1.8-.4zm-4.1 3.8h8.3v.7h-3.7v1.8h-.8v-1.8h-3.8v-.7zm1.9 1.6v2h5.5v.7h-6.3v-2.7h.8zm14-2.1s-2.36-.05-2.4 0c-.2.2-.4.4-.7.5c-.4.2-.7.2-1.1.2c-.3 0-.7 0-.9-.1c-.3-.1-.6-.3-.8-.5c-.2-.2-.4-.4-.5-.7c-.1-.2-.2-.5-.2-.8c0-.4.1-.7.2-.9c.1-.3.3-.5.5-.7c.2-.2.5-.3.8-.5c.2-.1.6-.1.9-.1c.4 0 .7.1 1.1.2c.3.1.5.3.7.6c.04-.04 2.4 0 2.4 0v-1.4h.8v5.5h-.8v-1.3zm-5.8-1.4c0 .2.1.4.2.5c0 .2.1.4.3.5c.1.1.3.2.5.3c.2.1.4.1.6.1c.2 0 .4 0 .6-.1c.2-.1.4-.2.5-.3c.1-.1.2-.3.3-.5c.1-.1.1-.3.1-.5c0-.3 0-.5-.1-.6c-.1-.2-.2-.4-.3-.5c-.1-.1-.3-.2-.5-.3c-.2-.1-.4-.1-.6-.1c-.2 0-.4 0-.6.1c-.2.1-.4.2-.5.3c-.2.1-.3.3-.3.5c-.1.1-.2.3-.2.6zm5.8-.8s-1.97.04-2 0c.1.3.1.5.1.8c0 .2 0 .4-.1.7c.02-.03 2 0 2 0v-1.5zm-2.2 3.7c.5 0 .9 0 1.3.1c.4.1.7.2.9.3c.3.2.5.4.6.6c.2.2.3.4.3.7c0 .3-.1.6-.3.8c-.1.2-.3.4-.6.5c-.2.2-.5.3-.9.4c-.4 0-.8.1-1.3.1c-.5 0-.9-.1-1.3-.1c-.3-.1-.7-.2-.9-.4c-.3-.1-.5-.3-.6-.5c-.2-.2-.2-.5-.2-.8c0-.3 0-.5.2-.7c.1-.2.3-.4.6-.6c.2-.1.6-.2.9-.3c.4-.1.8-.1 1.3-.1zm0 2.8c.7 0 1.3-.1 1.6-.3c.4-.2.6-.4.6-.8c0-.3-.2-.6-.6-.8c-.3-.2-.9-.3-1.6-.3c-.7 0-1.2.1-1.6.3c-.4.2-.6.5-.6.8c0 .4.2.6.6.8c.4.2.9.3 1.6.3zm13.2-4.7v.7H345v4.7h-.8v-9.1h.8v3.7h1.5zm-5.4-3.6v1.3h2.2v.7h-5.4v-.7h2.3v-1.3h.9zm-.4 2.7c.3 0 .6.1.9.2c.2.1.5.2.7.4c.2.2.3.4.4.7c.1.3.2.5.2.8c0 .4-.1.6-.2.9c-.1.3-.2.5-.4.7c-.2.2-.5.3-.7.4c-.3.1-.6.1-.9.1c-.4 0-.7 0-.9-.1c-.3-.1-.5-.2-.7-.4c-.2-.2-.4-.4-.5-.7c-.1-.3-.2-.5-.2-.9c0-.3.1-.5.2-.8c.1-.3.3-.5.5-.7c.2-.2.4-.3.7-.4c.2-.1.5-.2.9-.2zm0 3.6c.2 0 .4-.1.5-.2c.2 0 .4-.1.5-.2c.1-.2.2-.3.3-.5c.1-.2.1-.3.1-.6c0-.2 0-.3-.1-.5c-.1-.2-.2-.3-.3-.5c-.1-.1-.3-.2-.5-.3c-.1 0-.3-.1-.5-.1c-.2 0-.4.1-.6.1c-.2.1-.3.2-.5.3c-.1.2-.2.3-.3.5c0 .2-.1.3-.1.5c0 .3.1.4.1.6c.1.2.2.3.3.5c.2.1.3.2.5.2c.2.1.4.2.6.2zm13.1-2.5s-2.28.05-2.3 0c-.2.3-.5.5-.8.6c-.3.2-.7.3-1.1.3c-.3 0-.6-.1-.9-.2c-.3-.1-.5-.3-.7-.5c-.2-.1-.4-.4-.5-.6c-.1-.3-.2-.6-.2-.9c0-.3.1-.6.2-.9c.1-.2.3-.5.5-.7c.2-.1.4-.3.7-.4c.3-.1.6-.2.9-.2c.4 0 .8.1 1.1.2c.3.2.6.4.8.6c-.01.02 2.3 0 2.3 0v-1.2h.9v5.2h-.9v-1.3zm-4.2-2.8c-.2 0-.4.1-.6.2c-.2 0-.3.1-.5.3c-.1.1-.2.2-.3.4c-.1.2-.1.4-.1.6c0 .2 0 .4.1.6c.1.2.2.3.3.4c.2.2.3.3.5.3c.2.1.4.2.6.2c.3 0 .5-.1.7-.2c.2 0 .3-.1.5-.3c.1-.1.2-.2.3-.4c.1-.2.1-.4.1-.6c0-.2 0-.4-.1-.6c-.1-.2-.2-.3-.3-.4c-.2-.2-.3-.3-.5-.3c-.2-.1-.4-.2-.7-.2zm4.2.8h-1.9c.1.3.1.5.1.7c0 .3 0 .5-.1.7c-.01-.03 1.9 0 1.9 0v-1.4zm-.1 3.5v.7c0 .2 0 .4.1.7c.1.2.2.4.4.6c.1.2.3.4.6.6c.2.1.4.3.7.4l-.4.6c-.4-.2-.8-.4-1.1-.7c-.3-.3-.6-.7-.7-1c-.2.3-.4.7-.7 1c-.2.3-.6.6-1 .8c-.5-.2-.8-.5-1.1-.8c-.3-.3-.5-.6-.6-1c-.2.4-.4.7-.7 1c-.3.3-.7.5-1.1.7l-.4-.6c.3-.1.5-.3.7-.5c.3-.1.5-.3.6-.5c.2-.2.3-.4.4-.7c.1-.2.1-.4.1-.6v-.7h.8v.7c0 .4.1.8.3 1.2c.2.4.6.7 1 1c.2-.2.4-.3.6-.5c.1-.2.3-.4.4-.6c.1-.2.2-.4.2-.6c.1-.2.1-.4.1-.5c-.02-.05 0-.7 0-.7h.8zm9.1-3.6v-.3h-5.6v-.6h6.4s.03.87 0 .9v1.8c0 .4-.1.7-.1 1.1c-.1.4-.1.8-.2 1.3l-.9-.1c.2-.9.3-1.6.4-2.3v-1.8zm-2.4 5.3h4.2v.7h-8.3v-.7h3.3v-3.3h.8v3.3zm4.8 2l.3-2.1h1l-.6 2.1h-.7zm4.9-5.1l-.3-.7c.4 0 .8-.1 1.2-.2c.4-.1.7-.2 1-.4c.3-.1.5-.3.7-.5c.2-.2.3-.4.3-.7h-2.8v-.7h2.8v-.9h.9v.9h2.8v.7h-2.8c0 .3.1.5.3.7c.2.2.4.4.7.5c.3.2.6.3 1 .4c.4.1.8.2 1.2.2l-.2.7c-.4 0-.8-.1-1.1-.2c-.4-.1-.7-.2-1-.3c-.3-.2-.6-.3-.8-.5c-.2-.2-.4-.4-.5-.6l-.6.6c-.2.2-.5.3-.8.5l-.9.3c-.4.1-.8.2-1.1.2zm3.8.7h3.7v.7h-8.3v-.7h3.7v-1.1h.9v1.1zm-.4 1.3c1 0 1.7.2 2.3.4c.5.3.8.7.8 1.2c0 .5-.3.8-.8 1.1c-.6.3-1.3.4-2.3.4c-1.1 0-1.8-.1-2.4-.4c-.5-.3-.8-.6-.8-1.1c0-.5.3-.9.8-1.2c.6-.2 1.3-.4 2.4-.4zm0 2.4c.7 0 1.2 0 1.6-.2c.4-.1.6-.4.6-.6c0-.3-.2-.5-.6-.7c-.4-.2-.9-.2-1.6-.2c-.8 0-1.4 0-1.7.2c-.4.2-.6.4-.6.7c0 .2.2.5.6.6c.3.2.9.2 1.7.2z" stroke="none" fill="#111111"/></g><g id="Polygon116149"><path d="m2.6 63.6h3v.8H.5v-.6s2.62-2.5 2.6-2.5l.6-.6c.1-.2.3-.4.4-.6c.1-.1.2-.3.3-.5c0-.2.1-.4.1-.7c0-.4-.2-.7-.4-.9c-.3-.3-.6-.4-1-.4c-.2 0-.4.1-.6.1c-.2.1-.3.2-.5.3c-.1.2-.2.3-.3.5c-.1.2-.1.4-.1.6l-.9-.2c0-.3.1-.6.3-.9c.1-.2.3-.4.5-.6c.2-.2.5-.3.8-.4c.2-.1.5-.2.9-.2c.3 0 .6.1.8.2c.3.1.6.2.8.4c.2.2.3.4.4.6c.2.3.2.6.2.9c0 .3 0 .6-.1.8c-.1.2-.2.5-.3.7c-.2.2-.4.4-.5.6c-.2.2-.4.5-.6.7l-2.1 2c.1 0 .3 0 .4-.1h.4zm9.1-2.9c0 .7-.1 1.2-.2 1.7c-.2.5-.4.9-.6 1.2c-.3.4-.6.6-.9.7c-.3.2-.7.3-1.1.3c-.4 0-.7-.1-1-.3c-.4-.1-.7-.3-.9-.7c-.3-.3-.5-.7-.6-1.2c-.1-.5-.2-1-.2-1.7c0-.7.1-1.2.2-1.7c.1-.5.3-.9.6-1.2c.2-.3.5-.6.9-.7c.3-.2.6-.3 1-.3c.4 0 .8.1 1.1.3c.3.1.6.4.9.7c.2.3.4.7.6 1.2c.1.5.2 1 .2 1.7zm-1 0c0-.6 0-1.1-.1-1.5c-.1-.4-.2-.7-.4-.9c-.2-.3-.4-.4-.6-.5c-.2-.1-.4-.2-.7-.2c-.2 0-.4.1-.6.2c-.3.1-.5.2-.6.5c-.2.2-.3.5-.4.9c-.1.4-.2.9-.2 1.5c0 .6.1 1.1.2 1.5c.1.4.2.7.4.9c.1.3.3.5.6.6c.2.1.4.1.6.1c.3 0 .5 0 .7-.1c.2-.1.4-.3.6-.6c.2-.2.3-.5.4-.9c.1-.4.1-.9.1-1.5zm3.7 2.9h2.9v.8h-5v-.6s2.57-2.5 2.6-2.5c.2-.2.4-.4.5-.6c.2-.2.3-.4.4-.6c.2-.1.3-.3.3-.5c.1-.2.1-.4.1-.7c0-.4-.1-.7-.4-.9c-.2-.3-.6-.4-.9-.4c-.3 0-.5.1-.6.1c-.2.1-.4.2-.5.3c-.1.2-.3.3-.3.5c-.1.2-.1.4-.1.6l-1-.2l.3-.9l.6-.6c.2-.2.4-.3.7-.4c.3-.1.6-.2.9-.2c.3 0 .6.1.9.2c.3.1.5.2.7.4c.2.2.4.4.5.6c.1.3.2.6.2.9c0 .3-.1.6-.2.8c0 .2-.1.5-.3.7c-.1.2-.3.4-.5.6c-.2.2-.4.5-.6.7l-2.1 2c.2 0 .3 0 .4-.1h.5zm7.1.1h1.5v.7h-4v-.7h1.6V58c.02.04-1.3 1.3-1.3 1.3l-.5-.6l2-1.8h.7v6.8zm9.2-.9v-3.1h-2.5v-.7h2.5v-1.1h-2.5v-.7h2.5v-1.1h.9v6.7h-.9zm-1.5-2.4l.1.7c-.7.2-1.4.3-2.1.3c-.6 0-1.3.1-1.9.1c-.03-.03-.7 0-.7 0v-4.8h.8v4.1c.6 0 1.3-.1 1.9-.1c.6-.1 1.2-.1 1.9-.3zm-2.6 3.9h5.2v.7h-6.1v-2.8h.9v2.1zM40.2 56h.8v9.2h-.8V56zm-1.8 3.6v-3.4h.8v8.5h-.8v-4.4s-1.17-.02-1.2 0c0 .4-.1.8-.1 1.2c-.1.3-.3.7-.4.9c-.2.3-.4.4-.6.6c-.3.1-.5.2-.8.2c-.3 0-.6-.1-.8-.2c-.3-.2-.5-.4-.6-.7c-.2-.3-.3-.6-.4-1c-.1-.4-.2-.8-.2-1.3c0-.5.1-1 .2-1.3c.1-.4.2-.8.4-1c.1-.3.3-.5.6-.7c.2-.1.5-.2.8-.2c.3 0 .5.1.7.2c.3.1.5.3.6.6c.2.2.3.5.4.8c.1.4.2.8.2 1.2h1.2zm-3.1 2.8c.4 0 .6-.2.9-.6c.2-.5.3-1.1.3-1.8c0-.4-.1-.7-.1-1c-.1-.3-.1-.6-.3-.8c-.1-.2-.2-.3-.3-.5c-.2-.1-.3-.1-.5-.1c-.4 0-.7.2-.9.6c-.2.5-.3 1-.3 1.8c0 .7.1 1.3.3 1.8c.2.4.5.6.9.6zm14.4-3.6v.7h-6.2v-3.1h.8v2.4h5.4zm-7.3 1.9h8.3v.7h-8.3v-.7zm1.9 1.6v2h5.5v.7h-6.3v-2.7h.8zM57 64.6c-.5 0-.9-.1-1.3-.3c-.4-.2-.8-.4-1.1-.8c-.2-.3-.5-.7-.6-1.2c-.2-.5-.3-1-.3-1.6c0-.6.1-1.1.3-1.6c.1-.5.4-.9.7-1.2c.3-.4.6-.6 1-.8c.4-.2.9-.3 1.3-.3c.5 0 .9.1 1.2.3c.4.2.7.4.9.6l-.5.7c-.2-.3-.5-.4-.7-.6c-.2-.1-.5-.2-.9-.2c-.3 0-.6.1-.9.3c-.3.1-.6.3-.8.6c-.2.2-.3.5-.4.9c-.2.4-.2.8-.2 1.3c0 .4 0 .9.1 1.2c.2.4.3.8.5 1c.2.3.5.5.7.6c.3.2.7.2 1 .2c.4 0 .7 0 1-.2c.2-.1.5-.3.7-.6l.6.6c-.3.3-.7.6-1 .8c-.4.2-.8.3-1.3.3zm6.2 0c-.5 0-.9-.1-1.3-.3c-.4-.2-.7-.4-1-.8c-.3-.3-.5-.7-.6-1.2c-.2-.5-.3-1-.3-1.6c0-.6.1-1.2.3-1.6c.1-.5.3-.9.6-1.3c.3-.3.6-.5 1-.7c.4-.2.8-.3 1.3-.3c.5 0 .9.1 1.3.3c.4.2.7.4 1 .7c.3.4.5.8.7 1.3c.1.4.2 1 .2 1.6c0 .6-.1 1.1-.2 1.6c-.2.5-.4.9-.7 1.2c-.3.4-.6.6-1 .8c-.4.2-.8.3-1.3.3zm0-.9c.3 0 .7 0 .9-.2c.3-.1.5-.3.7-.6c.2-.3.4-.6.5-1c.1-.3.1-.8.1-1.2c0-.5 0-.9-.1-1.3c-.1-.4-.3-.7-.5-.9c-.2-.3-.4-.5-.7-.6c-.2-.2-.6-.3-.9-.3c-.3 0-.6.1-.9.3c-.3.1-.5.3-.7.6c-.2.2-.4.5-.5.9c-.1.4-.1.8-.1 1.3c0 .4 0 .9.1 1.2c.1.4.3.7.5 1c.2.3.4.5.7.6c.3.2.6.2.9.2zm6 .7L66.8 57h1l1.2 4c.1.4.3.9.4 1.2c.1.4.2.8.3 1.3h.1c.1-.5.2-.9.3-1.3c.1-.3.3-.7.4-1.2l1.2-4h1l-2.4 7.4h-1.1zm4.3 0V57h.9v7.4h-.9zm2.8 0V57s1.83-.04 1.8 0c1.2 0 2.1.3 2.7.9c.6.6.9 1.5.9 2.8c0 .6-.1 1.1-.3 1.6c-.1.4-.3.8-.6 1.1c-.3.4-.7.6-1.1.8c-.5.2-1 .2-1.5.2c-.03.04-1.9 0-1.9 0zm.9-.7s.85-.04.8 0c.9 0 1.6-.3 2-.8c.5-.5.7-1.3.7-2.2c0-1-.2-1.7-.7-2.2c-.4-.5-1-.8-2-.8c.05.02-.8 0-.8 0v6zm5.3-2.7v-.7h3.4v.7h-3.4zm7.6 2.7h1.5v.7h-4.1v-.7h1.7V58c.02.04-1.3 1.3-1.3 1.3l-.5-.6l2-1.8h.7v6.8zm3.4.7l2.3-2.9c.1-.2.2-.3.3-.4c0-.1.1-.2.1-.2c-.4.3-.9.5-1.4.5c-.3 0-.6-.1-.8-.2c-.3-.1-.5-.2-.7-.4c-.2-.2-.4-.4-.5-.7c-.1-.3-.2-.6-.2-.9c0-.4.1-.7.2-1c.1-.2.3-.5.5-.7c.3-.2.5-.4.9-.5c.3-.2.6-.2 1-.2c.3 0 .7 0 1 .2c.3.1.5.3.7.5c.3.2.4.4.5.7c.2.4.2.7.2 1.1c0 .4-.1.8-.2 1.2c-.2.3-.4.7-.7 1.1c.02.01-2 2.8-2 2.8h-1.2zm.1-5.3c0 .5.1.9.4 1.1c.3.3.6.4 1.1.4c.3 0 .5 0 .7-.1c.2-.1.3-.2.5-.3c.1-.2.2-.3.3-.5c.1-.2.1-.4.1-.6c0-.2 0-.4-.1-.6c-.1-.2-.2-.4-.3-.5c-.2-.1-.3-.2-.5-.3c-.2-.1-.4-.1-.6-.1c-.5 0-.9.1-1.2.4c-.3.3-.4.7-.4 1.1zm9.5 4.3h3.7v.7h-8.3v-.7h3.7v-1.7h-2.7v-2.9h5.5v-1.4h-5.5v-.7h6.3v2.8h-5.4v1.5h5.6v.7h-2.9v1.7zm13.6-7.4h.8v9.2h-.8v-4.9h-1.2v4.4h-.8v-8.5h.8v3.5h1.2V56zm-6.6 6.7v-5.6h3.5v5.6h-3.5zm.8-4.9v4.3h1.9v-4.3h-1.9zm8.7 1.9l-.2-.6c.4-.1.8-.1 1.2-.2c.4-.1.7-.2 1-.3c.3-.2.5-.3.7-.5c.2-.2.3-.4.3-.6c.02-.02-2.8 0-2.8 0v-.7h2.9v-.8h.8v.8h2.9v.7s-2.84-.02-2.8 0c0 .2.1.4.3.6c.2.2.4.3.7.5c.3.1.6.2 1 .3c.4.1.8.1 1.2.2l-.3.6c-.4 0-.7-.1-1.1-.2c-.3 0-.7-.1-1-.3c-.3-.1-.5-.2-.7-.4c-.3-.1-.5-.3-.6-.5c-.2.2-.3.4-.6.5c-.2.2-.5.3-.8.4c-.3.2-.6.3-1 .3c-.3.1-.7.2-1.1.2zm7.6 1h-3.7v.9h2.7v2h-5.4v.9h5.6v.6H120V63h5.3v-.8h-5.4v-.6h2.8v-.9H119v-.6h8.2v.6zm7.6-4.7h.8v9.2h-.8V56zm-4 .7c.3 0 .6.1.9.3c.3.1.6.3.8.6c.2.3.3.6.4 1c.2.4.2.8.2 1.3c0 .5 0 1-.2 1.4c-.1.3-.2.7-.4 1c-.2.2-.5.5-.8.6c-.3.2-.6.2-.9.2c-.3 0-.7 0-.9-.2c-.3-.1-.6-.4-.8-.6c-.2-.3-.3-.7-.5-1c-.1-.4-.1-.9-.1-1.4c0-.5 0-.9.1-1.3c.2-.4.3-.7.5-1c.2-.3.5-.5.8-.6c.2-.2.6-.3.9-.3zm0 .8c-.2 0-.4.1-.6.2c-.2.1-.4.3-.5.5c-.1.2-.2.4-.3.7c-.1.3-.1.7-.1 1c0 .4 0 .7.1 1c.1.3.2.6.3.8c.1.2.3.4.5.5c.2.1.4.2.6.2c.2 0 .4-.1.6-.2c.2-.1.3-.3.5-.5c.1-.2.2-.5.3-.8c.1-.3.1-.6.1-1c0-.3 0-.7-.1-1c-.1-.3-.2-.5-.3-.7c-.2-.2-.3-.4-.5-.5c-.2-.1-.4-.2-.6-.2zm17 .8v.7h-1.3v2.2h-.8V56h.8v2.3h1.3zm-8-1.7s4.21.02 4.2 0c0 .6-.1 1.1-.3 1.6c-.2.5-.5 1-.8 1.4c-.4.4-.8.7-1.4 1c-.5.3-1.1.5-1.8.7l-.3-.6c1.1-.3 2-.8 2.6-1.4c.7-.5 1-1.2 1.1-2c.01.01-3.3 0-3.3 0v-.7zm.9 8.5v-3.4h5.8v3.4h-5.8zm.9-2.8v2.1h4.1v-2.1h-4.1zm14.9-1.8l-.4.7l-1-.3c-.4-.2-.7-.4-1-.6c-.3-.2-.6-.5-.8-.7c-.3-.3-.5-.6-.6-.9l-.6.9c-.3.2-.5.5-.8.7c-.3.2-.7.4-1 .6l-1 .3l-.4-.7c.4-.1.8-.2 1.2-.4c.4-.2.8-.4 1.1-.7c.3-.3.6-.6.7-.9c.2-.4.3-.8.3-1.1c.04-.04 0-.7 0-.7h.9s.02.66 0 .7c0 .3.1.7.3 1.1c.2.3.5.6.8.9c.3.3.7.5 1.1.7c.4.2.8.3 1.2.4zm-3.4 2.8h3.8v.7h-8.3v-.7h3.7v-2.2h.8v2.2zm10.1-6.1v.6h-5.4v-.6h2.3v-1.1h.8v1.1h2.3zm1.7 1.9h1.3v.7h-1.3v3.1h-.9v-6.8h.9v3zm-2.2.9c0 .3-.1.5-.2.7c-.1.3-.2.4-.4.6c-.2.1-.5.2-.7.3c-.3.1-.6.1-.9.1c-.4 0-.6 0-.9-.1c-.3-.1-.5-.2-.7-.3c-.2-.2-.3-.3-.4-.6c-.2-.2-.2-.4-.2-.7c0-.2 0-.5.2-.7c.1-.2.2-.3.4-.5c.2-.1.4-.3.7-.3c.3-.1.5-.2.9-.2c.3 0 .6.1.9.2c.2 0 .5.2.7.3c.2.2.3.3.4.5c.1.2.2.5.2.7zm-3.6 0c0 .4.1.6.4.8c.2.2.5.3 1 .3c.4 0 .7-.1 1-.3c.2-.2.4-.4.4-.8c0-.3-.2-.5-.4-.7c-.3-.2-.6-.3-1-.3c-.5 0-.8.1-1 .3c-.3.2-.4.4-.4.7zm.9 2.4v1.9h5.3v.7h-6.1v-2.6h.8zm16.9-1.9l-.3.7l-1.1-.3c-.3-.2-.7-.4-1-.6c-.3-.2-.5-.5-.8-.7l-.6-.9c-.1.3-.3.6-.6.9c-.2.2-.5.5-.8.7c-.3.2-.6.4-1 .6l-1 .3l-.4-.7c.5-.1.8-.2 1.2-.4c.4-.2.8-.4 1.1-.7c.3-.3.6-.6.8-.9c.2-.4.3-.8.3-1.1c-.02-.04 0-.7 0-.7h.9s-.04.66 0 .7c0 .3.1.7.3 1.1c.2.3.4.6.7.9c.4.3.7.5 1.1.7c.4.2.8.3 1.2.4zm-3.4 2.8h3.8v.7H169v-.7h3.7v-2.2h.8v2.2zm11.8-4.9h1.3v.7h-1.3v2.5h-.8v-5.5h.8v2.3zm-1.8 1.9l-.5.7c-.5-.2-.9-.5-1.3-.8c-.4-.4-.6-.8-.8-1.3c-.2.6-.5 1-.9 1.4c-.4.4-.9.7-1.4 1l-.4-.7c.3-.1.6-.3.9-.5c.3-.2.5-.5.7-.7c.2-.3.4-.6.5-.9c.1-.4.1-.7.1-1.1c.03.05 0-.9 0-.9h.9s-.04 1.02 0 1c0 .3 0 .6.1.9c.1.3.3.6.5.8c.2.3.4.5.7.7c.3.2.5.3.9.4zm-1.1 1.5c.4 0 .9.1 1.2.2c.4 0 .7.1 1 .3c.2.1.4.3.6.5c.1.2.2.5.2.7c0 .3-.1.5-.2.7c-.2.2-.4.4-.6.5c-.3.2-.6.3-1 .4c-.3 0-.8.1-1.2.1c-.9 0-1.7-.2-2.2-.5c-.6-.2-.8-.7-.8-1.2c0-.2 0-.5.2-.7c.1-.2.3-.4.6-.5c.2-.2.6-.3.9-.3c.4-.1.8-.2 1.3-.2zm0 2.7c.7 0 1.2-.1 1.6-.2c.4-.2.6-.5.6-.8c0-.3-.2-.6-.6-.7c-.4-.2-.9-.3-1.6-.3c-.7 0-1.2.1-1.6.3c-.4.1-.6.4-.6.7c0 .3.2.6.6.8c.4.1.9.2 1.6.2zm11.4-7.2c-.03-.02 0-.1 0-.1h-5.4v-.7h6.2v1.9c-.1.4-.1.8-.3 1.3l-.8-.1c.1-.5.2-.9.2-1.2c.1-.4.1-.8.1-1.1zm-2.2 3h4v.7h-8.2v-.7h3.4v-1.8h.8v1.8zm-.1 1.5c.5 0 .9.1 1.3.1c.4.1.7.2 1 .4c.3.1.5.3.6.5c.2.2.3.4.3.7c0 .3-.1.5-.3.7c-.1.2-.3.4-.6.5c-.3.2-.6.3-1 .4c-.4 0-.8.1-1.3.1c-.5 0-1-.1-1.3-.1c-.4-.1-.8-.2-1-.4c-.3-.1-.5-.3-.7-.5c-.1-.2-.2-.4-.2-.7c0-.3.1-.5.2-.7c.2-.2.4-.4.7-.5c.2-.2.6-.3 1-.4c.3 0 .8-.1 1.3-.1zm0 2.7c.7 0 1.3-.1 1.7-.2c.4-.2.6-.5.6-.8c0-.3-.2-.6-.6-.8c-.4-.1-1-.2-1.7-.2c-.7 0-1.3.1-1.7.2c-.5.2-.7.5-.7.8c0 .3.2.6.7.8c.4.1 1 .2 1.7.2zm12.6-8.4v6.6h-.9v-6.6h.9zm-2.6 2.8c0 .4 0 .7-.1.9c-.2.3-.3.6-.5.8c-.3.2-.5.3-.8.4c-.3.1-.6.2-1 .2c-.3 0-.6-.1-.9-.2c-.3-.1-.5-.2-.8-.4c-.2-.2-.3-.5-.5-.8c-.1-.2-.1-.5-.1-.9c0-.3 0-.6.1-.9c.2-.3.3-.5.5-.7c.3-.2.5-.3.8-.5c.3-.1.6-.1.9-.1c.4 0 .7 0 1 .1c.3.2.5.3.8.5c.2.2.3.4.5.7c.1.3.1.6.1.9zm-3.9 0c0 .3 0 .5.1.6c.1.2.2.4.3.5c.2.2.3.3.5.4c.2 0 .4.1.6.1c.3 0 .5-.1.7-.1c.2-.1.3-.2.5-.4c.1-.1.2-.3.3-.5c.1-.1.1-.3.1-.6c0-.2 0-.4-.1-.6c-.1-.2-.2-.3-.3-.5c-.2-.1-.3-.2-.5-.3c-.2-.1-.4-.1-.7-.1c-.2 0-.4 0-.6.1c-.2.1-.3.2-.5.3c-.1.2-.2.3-.3.5c-.1.2-.1.4-.1.6zm1.4 5.4h5.3v.7h-6.1v-3h.8v2.3zm9.9-5.2l-.9-.1c0-.4.1-.7.3-.9c.1-.3.3-.5.5-.7c.2-.2.5-.3.8-.4c.2-.1.5-.2.9-.2c.3 0 .6.1.8.2c.3.1.5.2.7.4c.2.1.4.4.5.6c.1.2.2.5.2.8c0 .5-.1.8-.4 1.1c-.2.3-.5.5-.9.6c.9.3 1.4.9 1.4 1.8c0 .4 0 .7-.2 1c-.1.2-.3.5-.5.7c-.2.2-.5.3-.8.4c-.3.1-.6.2-1 .2c-.4 0-.7-.1-1-.2c-.3-.1-.5-.2-.7-.4c-.2-.2-.4-.4-.5-.6c-.1-.3-.2-.5-.3-.8l.8-.3c0 .1.1.2.2.4c.1.3.3.6.6.8c.2.2.5.3.9.3c.3 0 .5-.1.7-.2c.2-.1.4-.2.5-.3c.1-.1.2-.3.3-.5c.1-.1.1-.3.1-.5c0-.2 0-.3-.1-.5c0-.2-.1-.3-.3-.5c-.1-.1-.3-.2-.6-.2c-.2-.1-.5-.2-.9-.2v-.6c.3 0 .6-.1.8-.1c.2-.1.4-.2.5-.3c.2-.1.3-.3.3-.4c.1-.2.1-.4.1-.6c0-.4-.1-.7-.3-.9c-.3-.2-.6-.3-1-.3c-.2 0-.4 0-.6.1c-.2 0-.3.1-.5.3c-.1.1-.2.3-.3.4c0 .2-.1.4-.1.6zm10.1 1.6c0 .7-.1 1.2-.3 1.7c-.1.5-.3.9-.5 1.2c-.3.4-.6.6-.9.7c-.3.2-.7.3-1.1.3c-.4 0-.7-.1-1.1-.3c-.3-.1-.6-.3-.8-.7c-.3-.3-.5-.7-.6-1.2c-.2-.5-.2-1-.2-1.7c0-.7 0-1.2.2-1.7c.1-.5.3-.9.6-1.2c.2-.3.5-.6.8-.7c.4-.2.7-.3 1.1-.3c.4 0 .8.1 1.1.3c.3.1.6.4.9.7c.2.3.4.7.5 1.2c.2.5.3 1 .3 1.7zm-1 0c0-.6 0-1.1-.1-1.5c-.1-.4-.3-.7-.4-.9c-.2-.3-.4-.4-.6-.5c-.2-.1-.5-.2-.7-.2c-.2 0-.5.1-.7.2c-.2.1-.4.2-.5.5c-.2.2-.3.5-.4.9c-.1.4-.2.9-.2 1.5c0 .6.1 1.1.2 1.5c.1.4.2.7.4.9c.1.3.3.5.5.6c.2.1.5.1.7.1c.2 0 .5 0 .7-.1c.2-.1.4-.3.6-.6c.1-.2.3-.5.4-.9c.1-.4.1-.9.1-1.5zm6.8 0c0 .7 0 1.2-.2 1.7c-.1.5-.3.9-.6 1.2c-.2.4-.5.6-.8.7c-.4.2-.7.3-1.1.3c-.4 0-.8-.1-1.1-.3c-.3-.1-.6-.3-.9-.7c-.2-.3-.4-.7-.6-1.2c-.1-.5-.2-1-.2-1.7c0-.7.1-1.2.2-1.7c.2-.5.4-.9.6-1.2c.3-.3.6-.6.9-.7c.3-.2.7-.3 1.1-.3c.4 0 .7.1 1.1.3c.3.1.6.4.8.7c.3.3.5.7.6 1.2c.2.5.2 1 .2 1.7zm-.9 0c0-.6-.1-1.1-.2-1.5c-.1-.4-.2-.7-.4-.9c-.1-.3-.3-.4-.5-.5c-.3-.1-.5-.2-.7-.2c-.3 0-.5.1-.7.2c-.2.1-.4.2-.6.5c-.1.2-.3.5-.4.9c-.1.4-.1.9-.1 1.5c0 .6 0 1.1.1 1.5c.1.4.3.7.4.9c.2.3.4.5.6.6c.2.1.4.1.7.1c.2 0 .4 0 .7-.1c.2-.1.4-.3.5-.6c.2-.2.3-.5.4-.9c.1-.4.2-.9.2-1.5zm6.1-.7v.8h-4.1v-4.1h4.1v.8h2.1v-1.4h.9v5.4h-.9V60H230zm-.8.1v-2.7h-2.5v2.7h2.5zm2.9-1.9H230v1.1h2.1v-1.1zm-2.2 3.5c1 0 1.7.2 2.3.5c.5.3.8.7.8 1.3c0 .2-.1.5-.2.7c-.2.2-.4.4-.6.5c-.3.2-.6.3-1 .4c-.4 0-.8.1-1.3.1c-.4 0-.8-.1-1.2-.1c-.4-.1-.7-.2-1-.4c-.2-.1-.4-.3-.6-.5c-.1-.2-.2-.5-.2-.7c0-.3.1-.6.2-.8c.2-.2.4-.4.6-.5c.3-.2.6-.3 1-.4c.4 0 .8-.1 1.2-.1zm0 2.8c.7 0 1.3-.1 1.7-.2c.4-.2.6-.5.6-.8c0-.4-.2-.7-.6-.8c-.4-.2-1-.3-1.7-.3c-.7 0-1.2.1-1.6.3c-.4.1-.6.4-.6.8c0 .3.2.6.6.8c.4.1.9.2 1.6.2zm8.8-5.1c-1 0-1.7-.2-2.3-.4c-.6-.3-.9-.7-.9-1.2c0-.5.3-.9.9-1.2c.6-.3 1.3-.4 2.3-.4c1.1 0 1.8.1 2.4.4c.6.3.9.7.9 1.2c0 .5-.3.9-.9 1.2c-.6.2-1.3.4-2.4.4zm0-2.6c-.7 0-1.3.1-1.7.3c-.4.1-.6.4-.6.7c0 .3.2.5.6.7c.4.2 1 .2 1.7.2c.8 0 1.4 0 1.8-.2c.4-.2.6-.4.6-.7c0-.3-.2-.6-.6-.7c-.4-.2-1-.3-1.8-.3zm-4.1 3.2h8.3v.7h-8.3v-.7zm1.9 3.5v.9h5.6v.7h-6.5v-2.2h5.4v-.8h-5.4v-.7h6.2v2.1h-5.3zm16.3-7.5h.9v9.2h-.9v-4.8h-1.2v4.3h-.8v-8.5h.8v3.5h1.2V56zm-5.8 1.8s.03 4.44 0 4.4h1.7c.4-.1.9-.1 1.4-.2l.1.7c-.3 0-.5.1-.8.1c-.3 0-.5.1-.8.1h-1.8c.01.04-.6 0-.6 0v-5.7h3.4v.6H247zm15.2.6h1.3v.7h-1.3v2.5h-.9v-5.5h.9v2.3zm-1.9 1.9l-.4.7c-.5-.2-.9-.5-1.3-.8c-.4-.4-.7-.8-.9-1.3c-.2.6-.5 1-.9 1.4c-.3.4-.8.7-1.3 1l-.5-.7c.4-.1.7-.3 1-.5l.7-.7c.2-.3.3-.6.4-.9c.1-.4.2-.7.2-1.1c-.01.05 0-.9 0-.9h.8s.03 1.02 0 1c0 .3.1.6.2.9c.1.3.3.6.4.8c.2.3.5.5.7.7c.3.2.6.3.9.4zm-1 1.5c.4 0 .8.1 1.2.2c.4 0 .7.1.9.3c.3.1.5.3.7.5c.1.2.2.5.2.7c0 .3-.1.5-.2.7c-.2.2-.4.4-.7.5c-.2.2-.5.3-.9.4c-.4 0-.8.1-1.2.1c-1 0-1.7-.2-2.3-.5c-.5-.2-.8-.7-.8-1.2c0-.2.1-.5.2-.7c.2-.2.4-.4.6-.5c.3-.2.6-.3 1-.3c.4-.1.8-.2 1.3-.2zm0 2.7c.6 0 1.2-.1 1.5-.2c.4-.2.6-.5.6-.8c0-.3-.2-.6-.6-.7c-.3-.2-.9-.3-1.5-.3c-.7 0-1.3.1-1.6.3c-.4.1-.6.4-.6.7c0 .3.2.6.6.8c.3.1.9.2 1.6.2zm9.1-7.9c.4 0 .9.1 1.3.2c.4.1.7.3 1 .5c.3.2.6.5.7.8c.2.3.3.7.3 1c0 .4-.1.8-.3 1.1c-.1.3-.4.6-.7.8c-.3.2-.6.4-1 .5c-.4.1-.9.2-1.3.2c-.5 0-.9-.1-1.4-.2c-.4-.1-.7-.3-1-.5c-.3-.2-.5-.5-.7-.8c-.2-.3-.3-.7-.3-1.1c0-.3.1-.7.3-1c.2-.3.4-.6.7-.8c.3-.2.6-.4 1-.5c.5-.1.9-.2 1.4-.2zm0 .7c-.4 0-.7 0-1 .1c-.3.1-.6.2-.8.4c-.3.2-.4.4-.6.6c-.1.2-.2.5-.2.7c0 .3.1.6.2.8c.2.2.3.4.6.6c.2.1.5.3.8.4c.3 0 .6.1 1 .1c.3 0 .7-.1 1-.1c.3-.1.6-.3.8-.4c.2-.2.4-.4.5-.6c.1-.2.2-.5.2-.8c0-.2-.1-.5-.2-.7c-.1-.2-.3-.4-.5-.6c-.2-.2-.5-.3-.8-.4c-.3-.1-.7-.1-1-.1zm-4.2 6h8.3v.7h-8.3v-.7zm13.8.1h3.7v.7h-8.3v-.7h3.7v-1.7h-2.7v-2.9h5.5v-1.4h-5.5v-.7h6.3v2.8h-5.4v1.5h5.6v.7H278v1.7zm11.2-2.5h3.7v.7h-8.2v-.7h3.7v-1c-.4 0-.8 0-1.2-.1c-.3-.1-.6-.2-.8-.4c-.3-.1-.5-.3-.6-.5c-.1-.3-.2-.5-.2-.8c0-.2.1-.5.2-.7c.2-.2.4-.4.7-.6c.3-.2.6-.3 1-.4c.4 0 .8-.1 1.3-.1c.5 0 1 .1 1.3.1c.4.1.8.2 1.1.4c.2.2.5.4.6.6c.1.2.2.5.2.7c0 .3 0 .5-.2.8c-.1.2-.3.4-.5.5c-.3.2-.6.3-.9.4c-.3.1-.7.1-1.2.1c.04.05 0 1 0 1zm-2.7-2.8c0 .4.2.7.6.9c.4.2 1 .3 1.7.3c.7 0 1.3-.1 1.7-.3c.5-.2.7-.5.7-.9c0-.3-.2-.6-.7-.8c-.4-.2-1-.3-1.7-.3c-.7 0-1.3.1-1.7.3c-.4.2-.6.5-.6.8zm.1 4.2v2h5.4v.7h-6.3v-2.7h.9zm15.8-2.6v.7h-1.5v4.8h-.8V56h.8v3.7h1.5zm-7.3.5s-.05 2.09 0 2.1h1.1c.4 0 .7 0 1.1-.1c.3 0 .6 0 1-.1c.3 0 .6-.1 1-.1l.1.7c-.4 0-.8.1-1.1.1c-.3.1-.7.1-1 .1c-.4 0-.7.1-1.1.1h-2v-3.5h3.3v-1.9h-3.3v-.7h4.1v3.3h-3.2zm15.4-4.1v6.6h-.8v-6.6h.8zm-2.5 2.8c0 .4 0 .7-.2.9c-.1.3-.2.6-.5.8c-.2.2-.4.3-.7.4c-.3.1-.6.2-1 .2c-.3 0-.6-.1-.9-.2c-.3-.1-.6-.2-.8-.4c-.2-.2-.3-.5-.5-.8c-.1-.2-.1-.5-.1-.9c0-.3 0-.6.1-.9c.2-.3.3-.5.5-.7c.2-.2.5-.3.8-.5c.3-.1.6-.1.9-.1c.4 0 .7 0 1 .1c.3.2.5.3.7.5c.3.2.4.4.5.7c.2.3.2.6.2.9zm-3.9 0c0 .3 0 .5.1.6c.1.2.2.4.3.5c.2.2.3.3.5.4c.2 0 .4.1.6.1c.3 0 .5-.1.7-.1c.2-.1.3-.2.5-.4c.1-.1.2-.3.3-.5c.1-.1.1-.3.1-.6c0-.2 0-.4-.1-.6c-.1-.2-.2-.3-.3-.5c-.2-.1-.3-.2-.5-.3c-.2-.1-.4-.1-.7-.1c-.2 0-.4 0-.6.1c-.2.1-.3.2-.5.3c-.1.2-.2.3-.3.5c-.1.2-.1.4-.1.6zm1.4 5.4h5.3v.7h-6.1v-3h.8v2.3zm16.7-3.7l-.4.7c-.3 0-.7-.2-1-.3c-.4-.2-.7-.4-1-.6c-.3-.2-.6-.5-.8-.8c-.3-.3-.4-.6-.6-.9c-.1.3-.3.6-.6.9c-.2.3-.5.6-.8.8l-.9.6c-.4.1-.7.3-1.1.3l-.4-.7c.4 0 .8-.2 1.2-.4c.4-.2.8-.4 1.1-.7c.3-.3.6-.6.8-1c.2-.3.3-.7.3-1.1c-.03-.01 0-.7 0-.7h.8s.05.69 0 .7c0 .4.1.7.3 1.1c.2.4.5.7.8 1c.3.3.7.5 1.1.7c.4.2.8.4 1.2.4zm-7.9 2.7h8.3v.7h-8.3v-.7zm13.7.1h3.8v.7h-8.3v-.7h3.7v-1.9h-2.7v-4.7h6.2v.7h-5.3v1.3h5.1v.6h-5.1v1.4h5.4v.7H328v1.9zm11.4-7.4h.8v9.2h-.8v-5h-2c0 .5-.1.9-.2 1.2c-.2.4-.3.7-.5.9c-.2.3-.4.5-.7.6c-.3.2-.6.2-.9.2c-.3 0-.6 0-.9-.2c-.3-.1-.5-.4-.7-.6c-.2-.3-.4-.7-.5-1c-.1-.4-.2-.9-.2-1.4c0-.5.1-.9.2-1.3c.1-.4.3-.7.5-1c.2-.3.4-.5.7-.6c.3-.2.6-.3.9-.3c.3 0 .6.1.9.2c.2.2.5.4.7.6c.2.2.3.5.4.9c.2.3.2.7.3 1.1c-.03.03 2 0 2 0V56zm-4.3 6.4c.2 0 .4-.1.6-.2c.2-.1.3-.3.5-.5c.1-.2.2-.5.3-.8c.1-.3.1-.6.1-1c0-.3 0-.7-.1-1c-.1-.3-.2-.5-.3-.7c-.2-.2-.3-.4-.5-.5c-.2-.1-.4-.2-.6-.2c-.2 0-.4.1-.6.2c-.2.1-.3.3-.5.5c-.1.2-.2.4-.3.7c0 .3-.1.7-.1 1c0 .4.1.7.1 1c.1.3.2.6.3.8c.2.2.3.4.5.5c.2.1.4.2.6.2zm15.8-6.4h.8v9.2h-.8v-4.8h-1.3v4.3h-.8v-8.4h.8v3.4h1.3V56zm-6.6 1.2s3.54.02 3.5 0c0 .6 0 1.2-.1 1.8c-.1.5-.3 1-.6 1.6c-.3.5-.6 1-1.1 1.4c-.4.5-.9.9-1.6 1.2l-.5-.6c.6-.3 1-.6 1.4-.9c.4-.4.7-.8.9-1.2c.3-.4.4-.8.6-1.2c.1-.5.2-.9.2-1.4h-2.7v-.7zm15.5 3.6v-2.4h-2v-.7h2v-1.6h.8v4.7h-.8zm-1.4-.9l-.4.7c-.5-.2-.9-.5-1.3-.8c-.4-.4-.7-.8-.9-1.2c-.2.5-.5.9-.9 1.3c-.4.4-.8.7-1.4.9l-.4-.7c.3-.1.7-.2.9-.4c.3-.2.5-.5.7-.7c.2-.3.4-.6.5-.9c.1-.3.2-.6.2-.9c-.02-.02 0-.9 0-.9h.8v.9c0 .3.1.6.2.9c.1.2.2.5.4.7c.2.3.5.5.7.7c.3.2.6.3.9.4zm-2.8 4.5h5.4v.7h-6.2v-2.3h5v-.9h-5.1v-.7h5.9v2.2h-5v1zm15.2-4.5v.7h-1.5v4.6h-.8V56h.8v3.9h1.5zm-3.7 1.3l-.9-.1c.1-.8.2-1.4.3-2v-1.4c-.01.02-3.8 0-3.8 0v-.7h4.6v2c0 .6-.1 1.3-.2 2.2zm-2.1-1.5s-.05 2.75 0 2.7h1.5c.5-.1.9-.1 1.4-.2l.1.6c-.5.1-1 .2-1.5.2c-.5.1-1 .1-1.5.1c-.5.1-1 .1-1.4.1h-1.3l-.1-.7h1.9c.03-.03 0-2.8 0-2.8h.9z" stroke="none" fill="#111111"/></g><g id="Polygon116148"><path d="m2.7 42.3v-3.2H1.3v-.6h6.8v.6H6.6v3.2h1.4v.7H1.3v-.7h1.4zm3.1 0v-3.2H3.5v3.2h2.3zM.5 44.8h8.3v.7H.5v-.7zm13.8.1h3.7v.7H9.7v-.7h3.7v-1.7h-2.6v-2.9h5.4v-1.4h-5.5v-.7h6.3v2.8h-5.4v1.5h5.6v.7h-2.9v1.7zm10.9-5.5c.04.03 0-.2 0-.2h-5.4v-.7h6.3s-.03.93 0 .9v.9c0 .3-.1.7-.1 1.1c0 .3 0 .7-.1 1.1c0 .4-.1.9-.2 1.4l-.8-.1c.2-.9.3-1.8.3-2.5v-1.9zm-6.3 5.3h8.3v.7h-8.3v-.7zM35 37.5h.8v5.5h-.8v-2.5h-1.2v2.4h-.8v-5.2h.8v2.2h1.2v-2.4zm-2.5 4.2v.6c-.3.1-.5.1-.8.2h-.8c-.3.1-.6.1-.9.1h-1.5V40h2.6v-1.2h-2.6v-.7h3.4v2.5h-2.6v1.3h1.6c.5-.1 1-.1 1.6-.2zm-2.7 4.9v-3.2h6v3.2h-6zm.8-2.5v1.8h4.4v-1.8h-4.4zm10.8-3.2c-1 0-1.8-.2-2.4-.4c-.5-.3-.8-.7-.8-1.2c0-.5.3-.9.8-1.2c.6-.3 1.4-.4 2.4-.4c1 0 1.8.1 2.4.4c.5.3.8.7.8 1.2c0 .5-.3.9-.8 1.2c-.6.2-1.4.4-2.4.4zm0-2.6c-.8 0-1.4.1-1.8.3c-.4.1-.6.4-.6.7c0 .3.2.5.6.7c.4.2 1 .2 1.8.2c.8 0 1.3 0 1.7-.2c.4-.2.6-.4.6-.7c0-.3-.2-.6-.6-.7c-.4-.2-.9-.3-1.7-.3zm-4.1 3.2h8.2v.7h-8.2v-.7zm1.8 3.5v.9h5.6v.7h-6.4v-2.2h5.3v-.8h-5.4v-.7h6.3v2.1h-5.4zM54 38.4v.6h-5.3v-.6h2.2v-.9h.9v.9h2.2zm3 1.9v.7h-1.4v2.7h-.8v-6.1h.8v2.7h1.4zm-2.8 2.2l.1.6c-.5 0-1 .1-1.5.2c-.5 0-1 0-1.5.1h-2.7l-.1-.7h2.4v-.7c-.5 0-.9-.1-1.2-.4c-.4-.2-.5-.5-.5-.9c0-.4.2-.8.6-1c.4-.2.9-.4 1.5-.4c.7 0 1.2.2 1.6.4c.4.2.6.6.6 1c0 .4-.2.7-.5.9c-.3.3-.7.4-1.2.4v.7c.4 0 .8-.1 1.2-.1c.4 0 .8-.1 1.2-.1zM50 40.7c0 .2.1.4.4.6c.2.1.5.2.9.2c.4 0 .8-.1 1-.2c.3-.2.4-.4.4-.6c0-.2-.1-.4-.4-.6c-.2-.1-.6-.2-1-.2c-.4 0-.7.1-.9.2c-.3.2-.4.4-.4.6zm-.4 4.1v-.7h6v2.6h-.8v-1.9h-5.2zm15.1-7.3h.8v9.2h-.8v-4.8h-1.3v4.3h-.8v-8.5h.8v3.5h1.3v-3.7zm-5.8 1.8s-.05 4.44 0 4.4h1.6c.5-.1.9-.1 1.4-.2l.1.7c-.3 0-.5.1-.8.1c-.2 0-.5.1-.8.1h-1.8c.03.04-.6 0-.6 0v-5.7h3.4v.6h-2.5zm17.6-1.7v6.6h-.9v-6.6h.9zm-1.9 4.7l-.5.6c-.5-.1-1-.4-1.3-.8c-.4-.3-.8-.8-1-1.2c-.2.5-.5.9-.9 1.3c-.4.4-.8.7-1.4.9l-.4-.6c.3-.2.6-.3.9-.5c.3-.2.6-.5.8-.7c.2-.3.3-.6.4-.9c.1-.3.2-.6.2-.9v-.5h-2.1v-.7h5v.7h-2s-.04.48 0 .5c0 .3 0 .6.1.9c.1.3.3.5.5.8c.2.2.4.4.7.6c.3.2.6.4 1 .5zm-3.2 3.5h5.3v.7h-6.1v-2.9h.8v2.2zm12.5-5.1v2.3h-.8v-5.3h.8v2.3h1.2v-2.5h.8v5.8h-.8v-2.6h-1.2zm-1.2-2.1v.7h-4.6v-.7h1.9v-1h.8v1h1.9zm-.3 2.7c0 .3-.1.5-.2.7c-.1.2-.2.3-.4.5c-.1.1-.3.2-.6.3c-.2.1-.5.1-.8.1c-.3 0-.5 0-.8-.1l-.6-.3c-.2-.2-.3-.3-.4-.5c-.1-.2-.1-.4-.1-.7c0-.2 0-.4.1-.6c.1-.2.2-.4.4-.5l.6-.3c.3-.1.5-.1.8-.1c.3 0 .6 0 .8.1c.3.1.5.2.6.3c.2.1.3.3.4.5c.1.2.2.4.2.6zm-3.2 0c0 .3.1.6.3.7c.3.2.6.3.9.3c.4 0 .7-.1.9-.3c.2-.1.3-.4.3-.7c0-.3-.1-.5-.3-.6c-.2-.2-.5-.3-.9-.3c-.3 0-.6.1-.9.3c-.2.1-.3.3-.3.6zm3.7 2.2c.9 0 1.7.1 2.2.4c.5.3.8.7.8 1.2c0 .5-.3.9-.8 1.2c-.5.2-1.3.4-2.2.4c-1 0-1.7-.2-2.3-.4c-.5-.3-.8-.7-.8-1.2c0-.5.3-.9.8-1.2c.6-.3 1.3-.4 2.3-.4zm0 2.5c.7 0 1.2 0 1.6-.2c.4-.2.6-.4.6-.7c0-.3-.2-.6-.6-.7c-.4-.2-.9-.3-1.6-.3c-.7 0-1.3.1-1.7.3c-.4.1-.6.4-.6.7c0 .3.2.5.6.7c.4.2 1 .2 1.7.2zm11.4-8.5h.8v9.2h-.8v-4.6h-1.2v4.1h-.8v-8.5h.8v3.7h1.2v-3.9zm-4.3.3v1.3h1.9v.7h-4.6v-.7h1.9v-1.3h.8zm-.4 2.6c.3 0 .5 0 .8.1c.2.2.4.3.6.5c.2.2.3.4.4.6c.1.3.1.6.1.9c0 .3 0 .6-.1.8c-.1.3-.2.5-.4.7c-.2.2-.4.3-.6.4c-.3.1-.5.2-.8.2c-.3 0-.6-.1-.8-.2c-.2-.1-.4-.2-.6-.4c-.2-.2-.3-.4-.4-.7c-.1-.2-.2-.5-.2-.8c0-.3.1-.6.2-.9c.1-.2.2-.4.4-.6c.2-.2.4-.3.6-.5c.2-.1.5-.1.8-.1zm0 3.5c.3 0 .6-.2.9-.4c.2-.3.3-.6.3-1c0-.2 0-.4-.1-.6c-.1-.1-.1-.3-.2-.4c-.1-.1-.3-.2-.4-.3c-.2-.1-.3-.1-.5-.1c-.4 0-.7.1-.9.4c-.2.2-.3.6-.3 1c0 .4.1.7.3 1c.2.2.5.4.9.4zm9.7-3.1l-.3-.6c.4-.1.8-.1 1.2-.2c.3-.1.7-.2 1-.4c.2-.1.5-.3.7-.5l.3-.6c-.03-.02-2.9 0-2.9 0v-.7h6.8v.7s-2.83-.02-2.8 0c0 .2.1.4.3.6c.2.2.4.4.7.5c.3.2.6.3 1 .4c.3.1.7.1 1.1.2l-.2.6c-.4 0-.8-.1-1.2-.2l-1-.3c-.3-.2-.5-.3-.8-.5c-.2-.2-.4-.4-.5-.7c-.1.3-.3.5-.5.7c-.2.2-.5.3-.8.5c-.3.1-.6.2-1 .3c-.3.1-.7.2-1.1.2zm3.8.5h3.8v.7h-8.3v-.7h3.7v-1h.8v1zm0 1.1v.8h3v.7h-6.8v-.7h3v-.8h.8zm-.4 1.9c.9 0 1.6.1 2.1.3c.4.2.7.5.7.9c0 .4-.3.7-.7.9c-.5.2-1.2.3-2.1.3c-.9 0-1.6-.1-2-.3c-.5-.2-.7-.5-.7-.9c0-.4.2-.7.7-.9c.4-.2 1.1-.3 2-.3zm0 1.9c.6 0 1.1-.1 1.4-.2c.3-.1.5-.2.5-.5c0-.2-.2-.3-.5-.4c-.3-.1-.8-.2-1.4-.2c-.6 0-1.1.1-1.4.2c-.3.1-.5.2-.5.4c0 .3.2.4.5.5c.3.1.8.2 1.4.2zm9.2-4.7c-.5 0-.9 0-1.3-.1c-.4-.1-.8-.2-1-.4c-.3-.1-.5-.3-.7-.6c-.1-.2-.2-.4-.2-.7c0-.3.1-.6.2-.8c.2-.2.4-.4.7-.6c.2-.1.6-.2 1-.3c.4-.1.8-.1 1.3-.1c.5 0 .9 0 1.3.1c.4.1.8.2 1 .3c.3.2.5.4.7.6c.1.2.2.5.2.8c0 .3-.1.5-.2.7c-.2.3-.4.5-.7.6c-.2.2-.6.3-1 .4c-.4.1-.8.1-1.3.1zm0-3c-.7 0-1.3.1-1.7.3c-.5.2-.7.5-.7.9c0 .3.2.6.7.8c.4.2 1 .3 1.7.3c.7 0 1.3-.1 1.7-.3c.4-.2.6-.5.6-.8c0-.4-.2-.7-.6-.9c-.4-.2-1-.3-1.7-.3zm-4.1 3.9h8.2v.6h-8.2v-.6zm1.9 1.4v2h5.4v.7h-6.3v-2.7h.9zm16.4-3.5h1.4v.7h-1.4v3.3h-.8v-6.7h.8v2.7zm-2.5-2.1v4.5h-4.2v-4.5h.8v1.5h2.6v-1.5h.8zm-.8 3.9v-1.7h-2.6v1.7h2.6zm-1.5 1.5v2.2h5.2v.7h-6.1v-2.9h.9zm11-5.8c.5 0 1 0 1.4.1c.4.1.7.2 1 .3c.3.2.5.4.6.6c.2.2.2.4.2.7c0 .3 0 .5-.2.7c-.1.3-.3.4-.6.6c-.3.1-.6.3-1 .3c-.4.1-.9.2-1.4.2c-.5 0-.9-.1-1.3-.2c-.4 0-.7-.2-1-.3c-.3-.2-.5-.3-.7-.6c-.1-.2-.2-.4-.2-.7c0-.3.1-.5.2-.7c.2-.2.4-.4.7-.6c.3-.1.6-.2 1-.3c.4-.1.8-.1 1.3-.1zm0 .6c-.7 0-1.3.1-1.7.3c-.4.2-.6.5-.6.8c0 .4.2.6.6.8c.4.2 1 .3 1.7.3c.8 0 1.4-.1 1.8-.3c.4-.2.6-.4.6-.8c0-.3-.2-.6-.6-.8c-.4-.2-1-.3-1.8-.3zm-4.1 3.6h8.3v.7h-8.3v-.7zm4.1 1.4c1 0 1.8.2 2.3.4c.6.3.9.7.9 1.3c0 .5-.3.9-.9 1.2c-.5.3-1.3.4-2.3.4c-.9 0-1.7-.2-2.3-.4c-.5-.3-.8-.7-.8-1.2c0-.6.3-1 .8-1.3c.6-.2 1.4-.4 2.3-.4zm0 .7c-.7 0-1.2.1-1.6.2c-.4.2-.7.4-.7.8c0 .3.3.5.7.7c.4.2.9.2 1.6.2c.8 0 1.3 0 1.7-.2c.4-.2.6-.4.6-.7c0-.4-.2-.6-.6-.8c-.4-.1-.9-.2-1.7-.2zm9.2-3.2c-1 0-1.8-.2-2.3-.4c-.6-.3-.9-.7-.9-1.2c0-.5.3-.9.9-1.2c.5-.3 1.3-.4 2.3-.4c1 0 1.8.1 2.4.4c.5.3.8.7.8 1.2c0 .5-.3.9-.8 1.2c-.6.2-1.4.4-2.4.4zm0-2.6c-.7 0-1.3.1-1.7.3c-.4.1-.6.4-.6.7c0 .3.2.5.6.7c.4.2 1 .2 1.7.2c.8 0 1.4 0 1.8-.2c.4-.2.6-.4.6-.7c0-.3-.2-.6-.6-.7c-.4-.2-1-.3-1.8-.3zm-4.1 3.2h8.3v.7h-8.3v-.7zm1.8 3.5v.9h5.7v.7h-6.5v-2.2h5.4v-.8h-5.4v-.7h6.2v2.1h-5.4zm16.1-4.5s-1.84.04-1.8 0c-.1.3-.2.6-.3.8c-.1.2-.3.4-.5.6c-.2.1-.4.3-.7.4c-.3 0-.6.1-.9.1c-.3 0-.6-.1-.9-.2c-.3-.1-.5-.2-.7-.4c-.3-.2-.4-.4-.5-.7c-.2-.3-.2-.6-.2-.9c0-.3 0-.6.2-.9c.1-.2.2-.5.5-.7c.2-.2.4-.3.7-.4c.3-.1.6-.2.9-.2c.3 0 .6.1.9.2c.3.1.5.2.7.3c.2.2.4.4.5.6c.1.2.2.5.3.7c-.04.05 1.8 0 1.8 0v-2.2h.9v5.2h-.9v-2.3zm-5.7-.3c0 .2 0 .4.1.6c.1.2.2.3.3.5c.2.1.3.2.5.3c.2 0 .4.1.6.1c.3 0 .5-.1.7-.1c.2-.1.3-.2.5-.3c.1-.2.2-.3.3-.5c.1-.2.1-.4.1-.6c0-.2 0-.4-.1-.6c-.1-.2-.2-.3-.3-.4c-.2-.2-.3-.3-.5-.3c-.2-.1-.4-.2-.7-.2c-.2 0-.4.1-.6.2c-.2 0-.3.1-.5.3c-.1.1-.2.2-.3.4c-.1.2-.1.4-.1.6zm1.5 5.7h5.3v.7h-6.1v-3.3h5.9v.7h-5.1v1.9zm13.4-5.4s-1.86.02-1.9 0c0 .3-.1.5-.2.8c-.1.2-.3.4-.5.5c-.2.2-.5.3-.7.4c-.3.1-.6.1-.9.1c-.3 0-.6 0-.9-.1c-.3-.1-.5-.3-.8-.5c-.2-.1-.3-.4-.4-.6c-.2-.3-.2-.6-.2-.9c0-.3 0-.6.2-.9c.1-.2.2-.5.4-.6c.3-.2.5-.4.8-.5c.3-.1.6-.1.9-.1c.3 0 .6 0 .9.1c.2.1.5.2.7.4c.2.1.3.3.5.5c.1.2.2.5.2.7c.03.04 1.9 0 1.9 0v-2.2h.9v5.2h-.9v-2.3zm-4.2-1.7c-.2 0-.4 0-.6.1c-.2 0-.3.1-.5.3c-.1.1-.2.2-.3.4c-.1.2-.1.4-.1.6c0 .2 0 .4.1.6c.1.2.2.3.3.4c.2.2.3.3.5.3c.2.1.4.2.6.2c.2 0 .4-.1.6-.2c.2 0 .4-.1.5-.3c.2-.1.3-.2.3-.4c.1-.2.2-.4.2-.6c0-.2-.1-.4-.2-.6c0-.2-.1-.3-.3-.4c-.1-.2-.3-.3-.5-.3c-.2-.1-.4-.1-.6-.1zm4.1 4.3s-.04.55 0 .6c0 .2 0 .4.1.7l.3.6l.6.6c.3.1.5.3.8.4l-.4.6c-.5-.2-.8-.4-1.2-.7c-.3-.3-.5-.7-.7-1.1c-.1.4-.3.8-.6 1.1c-.3.3-.6.6-1 .8c-.5-.2-.8-.5-1.1-.8c-.3-.3-.5-.6-.6-1c-.2.3-.4.7-.7 1c-.4.3-.7.5-1.1.7l-.5-.6c.3-.2.6-.3.8-.5c.2-.1.4-.3.6-.5c.1-.2.3-.4.3-.7c.1-.2.2-.4.2-.6c-.03-.05 0-.6 0-.6h.8s-.02.55 0 .6c0 .4.1.8.3 1.2c.2.4.5.7 1 .9c.2-.1.4-.3.5-.4c.2-.2.3-.4.4-.6l.3-.6v-.5c.05-.05 0-.6 0-.6h.9zm11.2-1.9v.6H174v4.9h-.8v-9.2h.8v3.7h1.6zm-7.4-2.1s.03 4.61 0 4.6h2.2c.3-.1.7-.1 1-.1c.3-.1.6-.1.9-.2l.1.7c-.3.1-.6.1-1 .2c-.3 0-.7 0-1 .1h-2.3c.02.03-.7 0-.7 0v-6h4.2v.7h-3.4zm7.9 7v-1h.9v1h-.9z" stroke="none" fill="#111111"/></g><g id="Polygon116147"><path d="m2.6 26.6h3v.8H.5v-.6s2.62-2.5 2.6-2.5l.6-.6c.1-.2.3-.4.4-.6c.1-.1.2-.3.3-.5c0-.2.1-.4.1-.7c0-.4-.2-.7-.4-.9c-.3-.3-.6-.4-1-.4c-.2 0-.4.1-.6.1c-.2.1-.3.2-.5.3c-.1.2-.2.3-.3.5c-.1.2-.1.4-.1.6l-.9-.2c0-.3.1-.6.3-.9c.1-.2.3-.4.5-.6c.2-.2.5-.3.8-.4c.2-.1.5-.2.9-.2c.3 0 .6.1.8.2c.3.1.6.2.8.4c.2.2.3.4.4.6c.2.3.2.6.2.9c0 .3 0 .6-.1.8c-.1.2-.2.5-.3.7c-.2.2-.4.4-.5.6c-.2.2-.4.5-.6.7l-2.1 2c.1 0 .3 0 .4-.1h.4zm9.1-2.9c0 .7-.1 1.2-.2 1.7c-.2.5-.4.9-.6 1.2c-.3.4-.6.6-.9.7c-.3.2-.7.3-1.1.3c-.4 0-.7-.1-1-.3c-.4-.1-.7-.3-.9-.7c-.3-.3-.5-.7-.6-1.2c-.1-.5-.2-1-.2-1.7c0-.7.1-1.2.2-1.7c.1-.5.3-.9.6-1.2c.2-.3.5-.6.9-.7c.3-.2.6-.3 1-.3c.4 0 .8.1 1.1.3c.3.1.6.4.9.7c.2.3.4.7.6 1.2c.1.5.2 1 .2 1.7zm-1 0c0-.6 0-1.1-.1-1.5c-.1-.4-.2-.7-.4-.9c-.2-.3-.4-.4-.6-.5c-.2-.1-.4-.2-.7-.2c-.2 0-.4.1-.6.2c-.3.1-.5.2-.6.5c-.2.2-.3.5-.4.9c-.1.4-.2.9-.2 1.5c0 .6.1 1.1.2 1.5c.1.4.2.7.4.9c.1.3.3.5.6.6c.2.1.4.1.6.1c.3 0 .5 0 .7-.1c.2-.1.4-.3.6-.6c.2-.2.3-.5.4-.9c.1-.4.1-.9.1-1.5zm3.7 2.9h2.9v.8h-5v-.6s2.57-2.5 2.6-2.5c.2-.2.4-.4.5-.6c.2-.2.3-.4.4-.6c.2-.1.3-.3.3-.5c.1-.2.1-.4.1-.7c0-.4-.1-.7-.4-.9c-.2-.3-.6-.4-.9-.4c-.3 0-.5.1-.6.1c-.2.1-.4.2-.5.3c-.1.2-.3.3-.3.5c-.1.2-.1.4-.1.6l-1-.2l.3-.9l.6-.6c.2-.2.4-.3.7-.4c.3-.1.6-.2.9-.2c.3 0 .6.1.9.2c.3.1.5.2.7.4c.2.2.4.4.5.6c.1.3.2.6.2.9c0 .3-.1.6-.2.8c0 .2-.1.5-.3.7c-.1.2-.3.4-.5.6c-.2.2-.4.5-.6.7l-2.1 2c.2 0 .3 0 .4-.1h.5zm9-2.9c0 .7 0 1.2-.2 1.7c-.1.5-.3.9-.6 1.2c-.2.4-.5.6-.8.7c-.4.2-.7.3-1.1.3c-.4 0-.8-.1-1.1-.3c-.3-.1-.6-.3-.9-.7c-.2-.3-.4-.7-.5-1.2c-.2-.5-.3-1-.3-1.7c0-.7.1-1.2.3-1.7c.1-.5.3-.9.5-1.2c.3-.3.6-.6.9-.7c.3-.2.7-.3 1.1-.3c.4 0 .7.1 1.1.3c.3.1.6.4.8.7c.3.3.5.7.6 1.2c.2.5.2 1 .2 1.7zm-.9 0c0-.6-.1-1.1-.2-1.5c-.1-.4-.2-.7-.4-.9c-.1-.3-.3-.4-.5-.5c-.2-.1-.5-.2-.7-.2c-.3 0-.5.1-.7.2c-.2.1-.4.2-.6.5c-.1.2-.3.5-.4.9c-.1.4-.1.9-.1 1.5c0 .6 0 1.1.1 1.5c.1.4.3.7.4.9c.2.3.4.5.6.6c.2.1.4.1.7.1c.2 0 .5 0 .7-.1c.2-.1.4-.3.5-.6c.2-.2.3-.5.4-.9c.1-.4.2-.9.2-1.5zm8.2 2.1v-3.1h-2.5v-.7h2.5v-1.1h-2.5v-.7h2.5v-1.1h.9v6.7h-.9zm-1.5-2.4l.1.7c-.7.2-1.4.3-2.1.3c-.6 0-1.3.1-1.9.1c-.03-.03-.7 0-.7 0v-4.8h.8v4.1c.6 0 1.3-.1 1.9-.1c.6-.1 1.2-.1 1.9-.3zm-2.6 3.9h5.2v.7h-6.1v-2.8h.9v2.1zm13.9-7.9v4h-6.2v-4h.8v1.3h4.5v-1.3h.9zm-.9 3.3v-1.4h-4.5v1.4h4.5zm1.9 1.8v.6h-3.7v3.1h-.9v-3.1h-3.7v-.6h8.3zm7.6-5.5h.8v9.2h-.8v-5h-1.9v-.7h1.9V19zm-5.4 4.1s-.04 2.21 0 2.2h2.1c.3-.1.6-.1.9-.1c.3-.1.6-.1.9-.2l.1.7c-.3.1-.7.1-1 .2h-.9c-.4.1-.7.1-1.1.1h-1.9v-6.1h4.3v.7h-3.4v1.8h3v.7h-3zm15.2-1.3v.7h-6.2v-3.1h.8v2.4h5.4zm-7.3 1.9h8.3v.7h-8.3v-.7zm1.9 1.6v2h5.5v.7h-6.4v-2.7h.9zm14.7-1.8l-.4.7c-.5-.2-1-.4-1.4-.7c-.3-.4-.6-.7-.8-1.2c-.2.5-.5.9-.9 1.3c-.4.4-.9.6-1.4.8l-.4-.6c.3-.1.6-.3.9-.5c.3-.2.5-.4.7-.6c.2-.3.4-.5.5-.8c.1-.3.1-.6.1-.9c.03.01 0-.2 0-.2h-2v-.6h2V19h.9v1.2h2v.6h-2s-.04.21 0 .2c0 .3 0 .6.1.8c.1.3.3.5.5.7c.2.3.4.5.7.6c.3.2.6.3.9.4zm1.7-2.1h1.4v.7h-1.4v2.6h-.8V19h.8v2.4zM67 24.9c1 0 1.7.1 2.2.4c.6.3.8.7.8 1.2c0 .6-.2 1-.8 1.2c-.5.3-1.2.5-2.2.5c-.9 0-1.7-.2-2.2-.5c-.5-.2-.8-.6-.8-1.2c0-.5.3-.9.8-1.2c.5-.3 1.3-.4 2.2-.4zm0 2.6c.7 0 1.2-.1 1.6-.2c.4-.2.6-.4.6-.8c0-.3-.2-.5-.6-.7c-.4-.2-.9-.3-1.6-.3c-.7 0-1.2.1-1.6.3c-.4.2-.5.4-.5.7c0 .4.1.6.5.8c.4.1.9.2 1.6.2zm11.7-8.4h.9v4.9h-.9v-2.1s-1.84.01-1.8 0c-.1.6-.4 1-.8 1.3c-.4.3-.9.5-1.6.5c-.3 0-.6 0-.9-.2c-.3-.1-.6-.2-.8-.4c-.2-.2-.3-.4-.5-.7c-.1-.2-.1-.5-.1-.8c0-.3 0-.6.1-.9c.2-.2.3-.5.5-.6c.2-.2.5-.4.8-.5c.3-.1.6-.1.9-.1c.3 0 .6 0 .9.1c.2.1.5.2.7.4c.2.1.4.3.5.5c.1.2.2.5.2.7c.05.02 1.9 0 1.9 0v-2.1zM74.5 23c.2 0 .5 0 .6-.1c.2-.1.4-.2.5-.3c.2-.1.3-.3.4-.4c0-.2.1-.4.1-.6c0-.2-.1-.4-.1-.6c-.1-.2-.2-.3-.4-.4c-.1-.2-.3-.3-.5-.3c-.1-.1-.4-.1-.6-.1c-.2 0-.4 0-.6.1c-.2 0-.4.1-.5.3c-.1.1-.2.2-.3.4c-.1.2-.1.4-.1.6c0 .2 0 .4.1.6c.1.1.2.3.3.4c.1.1.3.2.5.3c.2.1.4.1.6.1zm4.2 2.6v-1.2h.9v3.7h-5.9v-3.7h.8v1.2h4.2zm0 1.8v-1.2h-4.2v1.2h4.2zm9.2-8.3h.8v9.1h-.8v-9.1zm-3.4 1.6s-.03 1.14 0 1.1c0 .4 0 .8.2 1.2c.1.4.3.7.5 1.1c.2.3.5.6.8.8c.3.3.6.5.9.6l-.5.7c-.5-.2-1-.6-1.4-1.1c-.4-.5-.7-1.1-1-1.7c-.1.3-.2.7-.4 1c-.1.3-.3.6-.5.8c-.2.3-.4.5-.7.7c-.2.2-.5.4-.7.5l-.5-.6c.3-.2.6-.4.9-.7c.3-.3.6-.6.8-.9c.2-.4.4-.8.5-1.2c.2-.4.2-.8.2-1.2c.03.04 0-1.1 0-1.1h-2.1v-.7h5.1v.7h-2.1zm10.7 3.7h1.8V19h.9v7h-.9v-.9h-1.8v-.7zm-1.9-1.8c-.3 0-.6 0-.9-.1c-.3-.1-.5-.2-.7-.3c-.2-.2-.4-.3-.5-.5c-.1-.2-.1-.5-.1-.7c0-.2 0-.5.1-.7c.1-.2.3-.3.5-.5c.2-.1.4-.2.7-.3c.3-.1.6-.1.9-.1c.3 0 .6 0 .9.1c.3.1.5.2.7.3c.2.2.4.3.5.5c.1.2.2.5.2.7c0 .2-.1.5-.2.7c-.1.2-.3.3-.5.5c-.2.1-.4.2-.7.3c-.3.1-.6.1-.9.1zm0-2.6c-.4 0-.8.1-1 .3c-.3.2-.4.4-.4.7c0 .3.1.5.4.7c.2.2.6.3 1 .3c.4 0 .8-.1 1.1-.3c.2-.2.4-.4.4-.7c0-.3-.2-.5-.4-.7c-.3-.2-.7-.3-1.1-.3zm-.3 5.7s-.02-1.78 0-1.8c-.5 0-.9.1-1.3.1h-1.3l-.1-.7h1.4c.5 0 1 0 1.5-.1h1.5c.5-.1 1-.1 1.5-.2l.1.6c-.4.1-.8.1-1.2.2c-.5 0-.9 0-1.3.1c.02-.02 0 1.8 0 1.8h-.8zm-.5 1.6h5.6v.7h-6.5v-2.7h.9v2zm15.8-8.3h.8v9.2h-.8V19zm-3.3 4.9v1.6c.5-.1.9-.1 1.4-.1c.4-.1.8-.1 1.3-.2v.6c-.5.1-1 .2-1.5.2c-.6.1-1.1.1-1.6.2h-2.8l-.1-.7h2.5v-1.6c-.3 0-.6-.1-.8-.2c-.3-.2-.5-.3-.7-.5c-.2-.2-.3-.4-.4-.6c-.1-.3-.1-.5-.1-.8c0-.3 0-.6.1-.9c.2-.3.3-.5.6-.7c.2-.2.4-.3.7-.4c.3-.1.6-.2 1-.2c.4 0 .7.1 1 .2c.3.1.5.2.8.4c.2.2.4.4.5.7c.1.3.2.6.2.9c0 .3-.1.5-.2.8c-.1.2-.2.4-.4.6c-.2.2-.4.4-.7.5c-.2.1-.5.2-.8.2zm-2-2.1c0 .2 0 .4.1.6c.1.1.2.3.3.4l.6.3c.2.1.4.1.6.1c.2 0 .5 0 .7-.1c.2-.1.3-.2.5-.3c.1-.1.2-.3.3-.4c.1-.2.1-.4.1-.6c0-.2 0-.4-.1-.6c-.1-.2-.2-.3-.3-.5c-.2-.1-.3-.2-.5-.3c-.2 0-.5-.1-.7-.1c-.2 0-.4.1-.6.1l-.6.3c-.1.2-.2.3-.3.5c-.1.2-.1.4-.1.6zm14.8-2.8h.8v9.2h-.8V19zm-1.8 3.6v-3.4h.8v8.5h-.8v-4.4s-1.17-.02-1.2 0c0 .4 0 .8-.1 1.2c-.1.3-.3.7-.4.9c-.2.3-.4.4-.6.6c-.3.1-.5.2-.8.2c-.3 0-.6-.1-.8-.2c-.3-.2-.5-.4-.6-.7c-.2-.3-.3-.6-.4-1c-.1-.4-.2-.8-.2-1.3c0-.5.1-1 .2-1.3c.1-.4.2-.8.4-1c.1-.3.3-.5.6-.7c.2-.1.5-.2.8-.2c.3 0 .5.1.7.2c.3.1.5.3.6.6c.2.2.3.5.4.8c.1.4.2.8.2 1.2h1.2zm-3.1 2.8c.4 0 .6-.2.9-.6c.2-.5.3-1.1.3-1.8c0-.4-.1-.7-.1-1c-.1-.3-.1-.6-.3-.8c-.1-.2-.2-.3-.3-.5c-.2-.1-.3-.1-.5-.1c-.4 0-.7.2-.9.6c-.2.5-.3 1-.3 1.8c0 .7.1 1.3.3 1.8c.2.4.5.6.9.6zm15.6-5.1c-.02-.02 0-.1 0-.1h-5.4v-.7h6.2v1.9c0 .4-.1.8-.3 1.3l-.8-.1c.2-.5.2-.9.2-1.2c.1-.4.1-.8.1-1.1zm-2.2 3h4v.7h-8.2v-.7h3.4v-1.8h.8v1.8zm-.1 1.5c.5 0 .9.1 1.3.1c.4.1.7.2 1 .4c.3.1.5.3.7.5c.1.2.2.4.2.7c0 .3-.1.5-.2.7c-.2.2-.4.4-.7.5c-.3.2-.6.3-1 .4c-.4 0-.8.1-1.3.1c-.5 0-.9-.1-1.3-.1c-.4-.1-.8-.2-1-.4c-.3-.1-.5-.3-.7-.5c-.1-.2-.2-.4-.2-.7c0-.3.1-.5.2-.7c.2-.2.4-.4.7-.5c.2-.2.6-.3 1-.4c.4 0 .8-.1 1.3-.1zm0 2.7c.7 0 1.3-.1 1.7-.2c.4-.2.6-.5.6-.8c0-.3-.2-.6-.6-.8c-.4-.1-1-.2-1.7-.2c-.7 0-1.3.1-1.7.2c-.5.2-.7.5-.7.8c0 .3.2.6.7.8c.4.1 1 .2 1.7.2zm11.7-8.4h.9v5.4h-.9v-5.4zm-4 .5c.3 0 .6 0 .9.1c.3.2.6.3.8.5c.2.2.4.4.5.7c.1.2.2.5.2.9c0 .3-.1.6-.2.8c-.1.3-.3.5-.5.7c-.2.2-.5.4-.8.5c-.3.1-.6.1-.9.1c-.4 0-.7 0-1-.1c-.3-.1-.5-.3-.7-.5c-.3-.2-.4-.4-.5-.7c-.2-.2-.2-.5-.2-.8c0-.4 0-.7.2-.9c.1-.3.2-.5.5-.7c.2-.2.4-.3.7-.5c.3-.1.6-.1 1-.1zm0 .7c-.3 0-.5 0-.7.1c-.2.1-.3.2-.5.3c-.1.1-.2.3-.3.5c-.1.1-.1.3-.1.6c0 .2 0 .4.1.5c.1.2.2.4.3.5c.2.1.3.2.5.3c.2.1.4.1.7.1c.2 0 .4 0 .6-.1c.2-.1.4-.2.5-.3c.1-.1.2-.3.3-.5c.1-.1.1-.3.1-.5c0-.3 0-.5-.1-.6c-.1-.2-.2-.4-.3-.5c-.1-.1-.3-.2-.5-.3c-.2-.1-.4-.1-.6-.1zm-1.2 4.7h6.1v3.2h-.9v-2.5h-5.2v-.7zm16.2-2.2v.6h-1.4v4.8h-.9V19h.9v3.8h1.4zm-8-2.8s4.21.02 4.2 0c0 .7-.1 1.3-.2 1.9c-.2.6-.4 1.2-.8 1.8c-.3.5-.7 1-1.2 1.5c-.6.5-1.2.9-1.9 1.3l-.5-.7c1.2-.6 2.1-1.3 2.7-2.2c.6-.8 1-1.8 1.1-2.9c-.01.01-3.4 0-3.4 0v-.7zm15.4-1h.8v9.2h-.8V19zm-3.3 2.3v.7c0 .4.1.8.2 1.1c.1.4.3.7.5 1.1c.2.3.4.6.7.8c.3.3.7.5 1 .6l-.5.7c-.5-.3-1-.6-1.4-1.1c-.4-.5-.7-1-.9-1.6c-.2.6-.5 1.2-.9 1.7c-.4.5-.9.9-1.4 1.1l-.5-.6c.3-.2.7-.4.9-.7c.3-.2.6-.5.8-.9c.2-.3.4-.6.5-1c.1-.4.2-.8.2-1.2c-.04 0 0-.7 0-.7H150v-.7h2.2v-1.4h.8v1.4h2.1v.7H153zm13.3-1.4v.6h-5.2v-.6h2.2v-.9h.8v.9h2.2zm3 1.9v.7H168v2.7h-.9v-6.1h.9v2.7h1.3zm-2.7 2.2l.1.6c-.5 0-1 .1-1.5.2c-.5 0-1 0-1.5.1h-2.8l-.1-.7h2.5v-.7c-.5 0-1-.1-1.3-.4c-.3-.2-.4-.5-.4-.9c0-.4.1-.8.5-1c.4-.2.9-.4 1.6-.4c.6 0 1.2.2 1.5.4c.4.2.6.6.6 1c0 .4-.1.7-.4.9c-.3.3-.8.4-1.3.4v.7c.4 0 .9-.1 1.3-.1c.4 0 .8-.1 1.2-.1zm-4.2-1.8c0 .2.1.4.3.6c.3.1.6.2 1 .2c.4 0 .7-.1 1-.2c.2-.2.3-.4.3-.6c0-.2-.1-.4-.3-.6c-.3-.1-.6-.2-1-.2c-.4 0-.7.1-1 .2c-.2.2-.3.4-.3.6zm-.4 4.1v-.7h6v2.6h-.9v-1.9H162zm15.2-4.5h1.3v.7h-1.3v3.3h-.9V19h.9v2.8zm-1.8 1.8l-.4.7c-.5-.2-1-.5-1.4-.8c-.4-.4-.6-.8-.9-1.3c-.1.6-.4 1-.8 1.4c-.4.4-.9.7-1.4.9l-.5-.6c.4-.2.7-.3 1-.5c.2-.2.5-.5.7-.8c.2-.2.3-.5.4-.9c.2-.3.2-.6.2-1c.01.02 0-1.1 0-1.1h.8s.04 1.14 0 1.1c0 .4.1.7.2 1c.1.3.3.5.5.8c.2.2.4.5.7.7c.3.2.6.3.9.4zm-3.1 1.6v2.1h5.3v.7h-6.1v-2.8h.8zm17.6-2.4v.7h-1.5v4.7h-.9V19h.9v3.8h1.5zm-5.5-1.5s-.02.71 0 .7c0 .4 0 .7.1 1.1c.2.4.3.7.5 1c.2.3.4.6.7.9c.3.2.6.5.9.6l-.5.7c-.5-.3-.9-.6-1.3-1.1c-.3-.5-.6-1-.8-1.6c-.2.6-.5 1.2-.9 1.7c-.4.5-.9.9-1.4 1.1l-.5-.6c.4-.2.7-.4 1-.6c.2-.3.5-.6.7-.9c.2-.4.4-.7.5-1.1c.1-.4.2-.8.2-1.2c-.04.01 0-.7 0-.7h-2.1v-.7h2v-1.4h.9v1.4h2v.7h-2zm10.9 3.1h1.9V19h.8v7h-.8v-.9h-1.9v-.7zm-1.9-1.8c-.3 0-.6 0-.9-.1c-.3-.1-.5-.2-.7-.3c-.2-.2-.4-.3-.5-.5c-.1-.2-.1-.5-.1-.7c0-.2 0-.5.1-.7c.1-.2.3-.3.5-.5c.2-.1.4-.2.7-.3c.3-.1.6-.1.9-.1c.4 0 .7 0 .9.1c.3.1.6.2.8.3c.2.2.3.3.4.5c.1.2.2.5.2.7c0 .2-.1.5-.2.7c-.1.2-.2.3-.4.5c-.2.1-.5.2-.8.3c-.2.1-.5.1-.9.1zm0-2.6c-.4 0-.8.1-1 .3c-.3.2-.4.4-.4.7c0 .3.1.5.4.7c.2.2.6.3 1 .3c.5 0 .8-.1 1.1-.3c.3-.2.4-.4.4-.7c0-.3-.1-.5-.4-.7c-.3-.2-.6-.3-1.1-.3zm-.3 5.7s.01-1.78 0-1.8c-.5 0-.9.1-1.3.1h-1.2l-.1-.7h1.3c.5 0 1 0 1.5-.1h1.5c.6-.1 1.1-.1 1.5-.2l.1.6c-.4.1-.8.1-1.2.2c-.4 0-.8 0-1.3.1c.04-.02 0 1.8 0 1.8h-.8zm-.5 1.6h5.6v.7h-6.4v-2.7h.8v2zm14.1-8.3h.8v9.2h-.8V19zm-1.9 3.6v-3.4h.8v8.5h-.8v-4.4s-1.11-.02-1.1 0c0 .4-.1.8-.2 1.2c-.1.3-.2.7-.4.9c-.1.3-.3.4-.6.6c-.2.1-.5.2-.7.2c-.3 0-.6-.1-.9-.2c-.2-.2-.4-.4-.6-.7c-.1-.3-.3-.6-.4-1c-.1-.4-.1-.8-.1-1.3c0-.5 0-1 .1-1.3c.1-.4.3-.8.4-1c.2-.3.4-.5.6-.7c.3-.1.6-.2.9-.2c.2 0 .5.1.7.2c.2.1.4.3.6.6c.2.2.3.5.4.8c.1.4.2.8.2 1.2h1.1zm-3 2.8c.3 0 .6-.2.8-.6c.2-.5.3-1.1.3-1.8v-1c-.1-.3-.2-.6-.3-.8c-.1-.2-.2-.3-.4-.5c-.1-.1-.3-.1-.4-.1c-.4 0-.7.2-.9.6c-.2.5-.3 1-.3 1.8c0 .7.1 1.3.3 1.8c.2.4.5.6.9.6zm13.8-6.4h.8v9.2h-.8v-5.4h-2.2v-.7h2.2V19zm-3.5.8s-.03 1.67 0 1.7c0 .4 0 .8.2 1.2c.1.4.2.8.5 1.1c.2.4.4.7.7 1c.3.3.6.5.9.6l-.5.7c-.5-.3-.9-.7-1.3-1.2c-.4-.5-.7-1.1-1-1.7c-.2.7-.5 1.3-.9 1.8c-.4.6-.8 1-1.3 1.3l-.5-.7c.3-.2.6-.4.9-.7c.3-.3.5-.6.7-1c.3-.4.4-.7.5-1.2c.2-.4.2-.8.2-1.2c.03-.03 0-1.7 0-1.7h.9zm15-.8h.8v9.2h-.8v-4.8h-1.3v4.3h-.8v-8.5h.8v3.5h1.3V19zm-5.8 1.8s-.02 4.44 0 4.4h1.6c.5-.1 1-.1 1.5-.2v.7c-.2 0-.5.1-.8.1c-.2 0-.5.1-.8.1h-1.7c-.05.04-.6 0-.6 0v-5.7h3.4v.6h-2.6zm8.8 2l-.3-.7c.4 0 .8-.1 1.1-.2c.4-.1.7-.3 1-.5c.3-.1.5-.3.7-.6c.2-.2.3-.4.3-.7c.01.03-2.8 0-2.8 0v-.6h6.7v.6s-2.81.03-2.8 0c0 .3.1.5.3.7c.2.3.4.5.7.6c.3.2.6.4 1 .5c.3.1.7.2 1.1.2l-.3.7l-1.1-.3l-.9-.3c-.3-.2-.6-.4-.8-.6c-.2-.2-.4-.4-.6-.7c-.1.3-.3.5-.5.7c-.2.2-.5.4-.8.6l-.9.3c-.4.1-.8.2-1.1.3zm7.5 1.2h-3.7s-.04.98 0 1c.8 0 1.5.2 2 .4c.4.3.7.7.7 1.2c0 .5-.3.9-.9 1.2c-.5.2-1.3.4-2.3.4c-.9 0-1.7-.2-2.3-.4c-.5-.3-.8-.7-.8-1.2c0-.5.2-.9.7-1.2c.5-.2 1.1-.4 2-.4c.02-.02 0-1 0-1h-3.7v-.7h8.3v.7zm-1.9 2.6c0-.3-.2-.6-.6-.7c-.4-.2-.9-.3-1.7-.3c-.7 0-1.2.1-1.6.3c-.4.1-.6.4-.6.7c0 .3.2.5.6.7c.4.2.9.2 1.6.2c.8 0 1.3 0 1.7-.2c.4-.2.6-.4.6-.7zm9.4-7.6h.9v9.2h-.9V19zm-4 .7c.4 0 .7.1 1 .3c.3.1.5.3.7.6c.2.3.4.6.5 1c.1.4.2.8.2 1.3c0 .5-.1 1-.2 1.4c-.1.3-.3.7-.5 1c-.2.2-.4.5-.7.6c-.3.2-.6.2-1 .2c-.3 0-.6 0-.9-.2c-.3-.1-.5-.4-.7-.6c-.2-.3-.4-.7-.5-1c-.1-.4-.2-.9-.2-1.4c0-.5.1-.9.2-1.3c.1-.4.3-.7.5-1c.2-.3.4-.5.7-.6c.3-.2.6-.3.9-.3zm0 .8c-.2 0-.4.1-.6.2c-.2.1-.3.3-.5.5c-.1.2-.2.4-.3.7c0 .3-.1.7-.1 1c0 .4.1.7.1 1c.1.3.2.6.3.8c.2.2.3.4.5.5c.2.1.4.2.6.2c.3 0 .5-.1.7-.2c.1-.1.3-.3.4-.5c.2-.2.3-.5.4-.8c0-.3.1-.6.1-1c0-.3-.1-.7-.1-1c-.1-.3-.2-.5-.4-.7c-.1-.2-.3-.4-.4-.5c-.2-.1-.4-.2-.7-.2zm14 3l-.4.6c-.5-.2-1-.4-1.4-.7c-.3-.4-.6-.7-.8-1.2c-.2.5-.5.9-.9 1.3c-.4.3-.9.6-1.4.8l-.5-.7c.4-.1.7-.2 1-.4c.3-.2.5-.4.7-.6c.2-.3.4-.5.5-.8c.1-.3.1-.6.1-.9c.03.03 0-.1 0-.1h-2v-.7h2V19h.9v1.1h2v.7h-2s-.03.13 0 .1c0 .3 0 .6.1.8c.1.3.3.5.5.8c.2.2.4.4.7.5c.3.2.6.4.9.5zm3.1-2.1v.6h-1.4v2.5h-.8V19h.8v2.4h1.4zm-7.1 6.7v-3.2h5.7v3.2h-5.7zm.8-2.6v1.9h4.1v-1.9h-4.1zm13.7-6.5h.9v9.2h-.9v-3.5s-2.26-.04-2.3 0c-.1.4-.4.8-.7 1c-.4.3-.8.4-1.2.4c-.4 0-.7 0-.9-.2c-.3-.1-.6-.4-.8-.6c-.2-.3-.3-.7-.4-1c-.2-.4-.2-.9-.2-1.4c0-.5 0-.9.2-1.3c.1-.4.2-.7.4-1c.2-.3.5-.5.8-.6c.2-.2.5-.3.9-.3c.4 0 .8.2 1.1.4c.3.2.6.6.8 1h2.3V19zm-4.2 6.4c.2 0 .4-.1.6-.2c.2-.1.3-.3.4-.5c.2-.2.3-.5.4-.8c0-.3.1-.6.1-1c0-.3-.1-.7-.1-1c-.1-.3-.2-.5-.4-.7c-.1-.2-.2-.4-.4-.5c-.2-.1-.4-.2-.6-.2c-.2 0-.4.1-.6.2c-.2.1-.4.3-.5.5c-.1.2-.2.4-.3.7c-.1.3-.1.7-.1 1c0 .4 0 .7.1 1c.1.3.2.6.3.8c.1.2.3.4.5.5c.2.1.4.2.6.2zm2.2-2.5c0 .5 0 .8-.1 1.1c.05-.02 2.1 0 2.1 0v-2.2s-2.08-.03-2.1 0c.1.2.1.3.1.5v.6zm13.1-.1v.7h-1.5v4.7h-.9v-9.1h.9v3.7h1.5zm-5.5-3.6v1.3h2.3v.7h-5.4v-.7h2.3v-1.3h.8zm-.4 2.7c.3 0 .6.1.9.2c.3.1.5.2.7.4c.2.2.4.4.5.7c.1.3.1.5.1.8c0 .4 0 .6-.1.9c-.1.3-.3.5-.5.7c-.2.2-.4.3-.7.4c-.3.1-.6.1-.9.1c-.3 0-.6 0-.9-.1c-.3-.1-.5-.2-.7-.4c-.2-.2-.4-.4-.5-.7c-.1-.3-.1-.5-.1-.9c0-.3 0-.5.1-.8c.1-.3.3-.5.5-.7c.2-.2.4-.3.7-.4c.3-.1.6-.2.9-.2zm0 3.6c.2 0 .4-.1.6-.2c.1 0 .3-.1.4-.2c.1-.2.2-.3.3-.5c.1-.2.1-.3.1-.6c0-.2 0-.3-.1-.5c-.1-.2-.2-.3-.3-.5c-.1-.1-.3-.2-.4-.3c-.2 0-.4-.1-.6-.1c-.2 0-.4.1-.6.1c-.2.1-.3.2-.4.3c-.2.2-.3.3-.3.5c-.1.2-.1.3-.1.5c0 .3 0 .4.1.6c0 .2.1.3.3.5c.1.1.2.2.4.2c.2.1.4.2.6.2zm13.8-3.7v.7h-6.2v-3.1h.8v2.4h5.4zm-7.3 1.9h8.3v.7h-8.3v-.7zm1.9 1.6v2h5.5v.7h-6.4v-2.7h.9zm15.7-5c.04-.02 0-.1 0-.1h-5.4v-.7h6.3s-.03.78 0 .8c0 .4 0 .7-.1 1.1c0 .4-.1.8-.2 1.3l-.8-.1c.1-.5.2-.9.2-1.2v-1.1zm-2.1 3h4v.7h-8.2v-.7h3.3v-1.8h.9v1.8zm-.2 1.5c.5 0 1 .1 1.4.1c.4.1.7.2 1 .4c.3.1.5.3.6.5c.2.2.2.4.2.7c0 .3 0 .5-.2.7c-.1.2-.3.4-.6.5c-.3.2-.6.3-1 .4c-.4 0-.9.1-1.4.1c-.4 0-.9-.1-1.3-.1c-.4-.1-.7-.2-1-.4c-.2-.1-.5-.3-.6-.5c-.2-.2-.2-.4-.2-.7c0-.3 0-.5.2-.7c.1-.2.4-.4.6-.5c.3-.2.6-.3 1-.4c.4 0 .9-.1 1.3-.1zm0 2.7c.8 0 1.3-.1 1.8-.2c.4-.2.6-.5.6-.8c0-.3-.2-.6-.6-.8c-.5-.1-1-.2-1.8-.2c-.7 0-1.2.1-1.7.2c-.4.2-.6.5-.6.8c0 .3.2.6.6.8c.5.1 1 .2 1.7.2zm11.8-8.4h.8v5.4h-.8v-5.4zm-4.1.5c.4 0 .7 0 1 .1c.3.2.5.3.7.5c.3.2.4.4.5.7c.2.2.2.5.2.9c0 .3 0 .6-.2.8c-.1.3-.2.5-.5.7c-.2.2-.4.4-.7.5c-.3.1-.6.1-1 .1c-.3 0-.6 0-.9-.1c-.3-.1-.6-.3-.8-.5c-.2-.2-.4-.4-.5-.7c-.1-.2-.2-.5-.2-.8c0-.4.1-.7.2-.9c.1-.3.3-.5.5-.7c.2-.2.5-.3.8-.5c.3-.1.6-.1.9-.1zm0 .7c-.2 0-.4 0-.6.1c-.2.1-.4.2-.5.3c-.1.1-.2.3-.3.5c-.1.1-.1.3-.1.6c0 .2 0 .4.1.5c.1.2.2.4.3.5c.1.1.3.2.5.3c.2.1.4.1.6.1c.3 0 .5 0 .7-.1c.1-.1.3-.2.5-.3c.1-.1.2-.3.3-.5c.1-.1.1-.3.1-.5c0-.3 0-.5-.1-.6c-.1-.2-.2-.4-.3-.5c-.2-.1-.4-.2-.5-.3c-.2-.1-.4-.1-.7-.1zm-1.2 4.7h6.1v3.2h-.8v-2.5h-5.3v-.7zm16.8-6h.8v5.4h-.8V22h-1.2v2.4h-.8v-5.2h.8v2.2h1.2V19zm-6.4.7s3.56-.05 3.6 0c0 1.1-.3 2-.9 2.9c-.5.8-1.5 1.5-2.7 2l-.4-.6c.6-.3 1.2-.6 1.6-.9c.4-.3.8-.7 1-1.2c.03.04-2.5.3-2.5.3l-.1-.7s2.92-.17 2.9-.2c.1-.1.1-.3.1-.5c.1-.1.1-.3.1-.5c.02.04-2.7 0-2.7 0v-.6zm1.2 8.4v-3.2h6v3.2h-6zm.8-2.6v1.9h4.4v-1.9h-4.4zm13.7-6.4h.8v9.1h-.8v-9.1zm-1.8 3.4v-3.2h.8v8.4h-.8v-4.4h-1.2v-.8h1.2zm-1.7-1.6s-.02 4.22 0 4.2h.5c.1 0 .3-.1.4-.1l.1.6c-.4.1-.7.2-1.2.2c-.4 0-.8.1-1.2.1h-2.1c-.04.04-.1-.7-.1-.7c0 0 .65.04.6 0h.3v-4.3h-.8v-.7h4.2v.7h-.7zm-1.9 0s-.03 4.31 0 4.3h1.1v-4.3h-1.1zm15.1-1.8v6.6h-.9v-6.6h.9zm-2.6 2.8c0 .4 0 .7-.1.9c-.2.3-.3.6-.6.8c-.2.2-.4.3-.7.4c-.3.1-.6.2-1 .2c-.3 0-.6-.1-.9-.2c-.3-.1-.5-.2-.8-.4c-.2-.2-.3-.5-.5-.8c-.1-.2-.1-.5-.1-.9c0-.3 0-.6.1-.9c.2-.3.3-.5.5-.7c.3-.2.5-.3.8-.5c.3-.1.6-.1.9-.1c.4 0 .7 0 1 .1c.3.2.5.3.7.5c.3.2.4.4.6.7c.1.3.1.6.1.9zm-3.9 0c0 .3 0 .5.1.6c.1.2.2.4.3.5c.2.2.3.3.5.4c.2 0 .4.1.6.1c.3 0 .5-.1.7-.1c.2-.1.3-.2.5-.4c.1-.1.2-.3.3-.5c.1-.1.1-.3.1-.6c0-.2 0-.4-.1-.6c-.1-.2-.2-.3-.3-.5c-.2-.1-.3-.2-.5-.3c-.2-.1-.4-.1-.7-.1c-.2 0-.4 0-.6.1c-.2.1-.3.2-.5.3c-.1.2-.2.3-.3.5c-.1.2-.1.4-.1.6zm1.4 5.4h5.3v.7H329v-3h.8v2.3zm10.9-7.7c.4 0 .9.1 1.3.2c.4.1.7.3 1 .5c.3.2.6.5.7.8c.2.3.3.7.3 1c0 .4-.1.8-.3 1.1c-.1.3-.4.6-.7.8c-.3.2-.6.4-1 .5c-.4.1-.9.2-1.3.2c-.5 0-1-.1-1.4-.2c-.4-.1-.7-.3-1-.5c-.3-.2-.5-.5-.7-.8c-.2-.3-.3-.7-.3-1.1c0-.3.1-.7.3-1c.2-.3.4-.6.7-.8c.3-.2.6-.4 1-.5c.4-.1.9-.2 1.4-.2zm0 .7c-.4 0-.7 0-1 .1c-.4.1-.6.2-.8.4c-.3.2-.4.4-.6.6c-.1.2-.2.5-.2.7c0 .3.1.6.2.8c.2.2.3.4.6.6c.2.1.4.3.8.4c.3 0 .6.1 1 .1c.3 0 .7-.1 1-.1c.3-.1.5-.3.8-.4c.2-.2.4-.4.5-.6c.1-.2.2-.5.2-.8c0-.2-.1-.5-.2-.7c-.1-.2-.3-.4-.5-.6c-.3-.2-.5-.3-.8-.4c-.3-.1-.7-.1-1-.1zm-4.2 6h8.3v.7h-8.3v-.7zm13.8.1h3.7v.7h-8.3v-.7h3.7v-1.7h-2.7v-2.9h5.5v-1.4h-5.5v-.7h6.3v2.8h-5.4v1.5h5.6v.7h-2.9v1.7z" stroke="none" fill="#111111"/></g><g id="Polygon116146"><path d="m2.6 8.1h3v.8H.5v-.6s2.62-2.5 2.6-2.5l.6-.6c.1-.2.3-.4.4-.6c.1-.1.2-.3.3-.5c0-.2.1-.4.1-.7c0-.4-.2-.7-.4-.9c-.3-.3-.6-.4-1-.4c-.2 0-.4.1-.6.1c-.2.1-.3.2-.5.3c-.1.2-.2.3-.3.5c-.1.2-.1.4-.1.6l-.9-.2c0-.3.1-.6.3-.9c.1-.2.3-.4.5-.6c.2-.2.5-.3.8-.4c.2-.1.5-.2.9-.2c.3 0 .6.1.8.2c.3.1.6.2.8.4c.2.2.3.4.4.6c.2.3.2.6.2.9c0 .3 0 .6-.1.8c-.1.2-.2.5-.3.7c-.2.2-.4.4-.5.6c-.2.2-.4.5-.6.7l-2.1 2c.1 0 .3 0 .4-.1h.4zm9.1-2.9c0 .7-.1 1.2-.2 1.7c-.2.5-.4.9-.6 1.2c-.3.4-.6.6-.9.7c-.3.2-.7.3-1.1.3c-.4 0-.7-.1-1-.3c-.4-.1-.7-.3-.9-.7c-.3-.3-.5-.7-.6-1.2c-.1-.5-.2-1-.2-1.7c0-.7.1-1.2.2-1.7c.1-.5.3-.9.6-1.2c.2-.3.5-.6.9-.7c.3-.2.6-.3 1-.3c.4 0 .8.1 1.1.3c.3.1.6.4.9.7c.2.3.4.7.6 1.2c.1.5.2 1 .2 1.7zm-1 0c0-.6 0-1.1-.1-1.5c-.1-.4-.2-.7-.4-.9c-.2-.3-.4-.4-.6-.5c-.2-.1-.4-.2-.7-.2c-.2 0-.4.1-.6.2c-.3.1-.5.2-.6.5c-.2.2-.3.5-.4.9c-.1.4-.2.9-.2 1.5c0 .6.1 1.1.2 1.5c.1.4.2.7.4.9c.1.3.3.5.6.6c.2.1.4.1.6.1c.3 0 .5 0 .7-.1c.2-.1.4-.3.6-.6c.2-.2.3-.5.4-.9c.1-.4.1-.9.1-1.5zm4.9 3h1.5v.7h-4v-.7h1.6s.04-5.55 0-5.5v-.2c.05.04-1.3 1.3-1.3 1.3l-.5-.6l2-1.8h.7v6.8zm5.9 0h1.5v.7h-4v-.7h1.6V2.5c.02.04-1.3 1.3-1.3 1.3l-.5-.6l2-1.8h.7v6.8zm9.2-.9V4.2h-2.5v-.7h2.5V2.4h-2.5v-.7h2.5V.6h.9v6.7h-.9zm-1.5-2.4l.1.7c-.7.2-1.4.3-2.1.3c-.6 0-1.3.1-1.9.1c-.03-.03-.7 0-.7 0V1.2h.8v4.1c.6 0 1.3-.1 1.9-.1c.6-.1 1.2-.1 1.9-.3zm-2.6 3.9h5.2v.7h-6.1V6.7h.9v2.1zM42 .5h.8v9.2h-.8V.5zm-3.5.8s.05 1.68 0 1.7c0 .4.1.8.2 1.2c.2.4.3.8.6 1.2c.2.3.4.6.7.9c.3.3.7.5 1 .6l-.5.7c-.5-.2-1-.6-1.4-1.1c-.4-.5-.7-1.1-1-1.8c-.2.7-.5 1.3-.9 1.9c-.4.5-.9.9-1.4 1.2l-.5-.7c.3-.2.6-.4.9-.7c.3-.2.6-.6.8-.9c.2-.4.4-.8.5-1.2c.2-.5.2-.9.2-1.3c.02-.02 0-1.7 0-1.7h.8zm14.4 1.6v.7h-1.3v2.5h-.9V.6h.9v2.3h1.3zM49.8 5l-.4.7c-.5-.2-1-.5-1.4-.8c-.3-.4-.6-.8-.8-1.3c-.2.5-.5 1-.9 1.4c-.4.4-.9.7-1.4.9l-.5-.7c.4-.1.7-.3 1-.5c.3-.2.5-.4.7-.7c.2-.2.4-.5.5-.8c.1-.3.1-.7.1-1c.04.02 0-.3 0-.3h-2v-.7h4.9v.7h-2s-.03.31 0 .3c0 .3 0 .6.1.9c.1.3.3.6.5.8c.2.2.4.5.7.7c.3.1.6.3.9.4zm-4.2 2.2v-.7h6v3.2h-.9V7.2h-5.1zm13.5-5.5v.6h-5.4v-.6h2.3V.6h.8v1.1h2.3zm1.7 1.9h1.3v.7h-1.3v3.1h-.9V.6h.9v3zm-2.2.9c0 .3-.1.5-.2.7c-.1.3-.2.4-.4.6c-.2.1-.5.2-.7.3c-.3.1-.6.1-.9.1c-.3 0-.6 0-.9-.1c-.3-.1-.5-.2-.7-.3c-.2-.2-.3-.3-.4-.6c-.1-.2-.2-.4-.2-.7c0-.2.1-.5.2-.7c.1-.2.2-.3.4-.5c.2-.1.4-.3.7-.3c.3-.1.6-.2.9-.2c.3 0 .6.1.9.2c.2 0 .5.2.7.3c.2.2.3.3.4.5c.1.2.2.5.2.7zm-3.6 0c0 .4.1.6.4.8c.2.2.6.3 1 .3c.4 0 .7-.1 1-.3c.3-.2.4-.4.4-.8c0-.3-.1-.5-.4-.7c-.3-.2-.6-.3-1-.3c-.4 0-.8.1-1 .3c-.3.2-.4.4-.4.7zm.9 2.4v1.9h5.3v.7h-6.1V6.9h.8zM71.6.5h.9v9.2h-.9V4.5h-2v-.6h2V.5zm-3.5 1.7s-.02 1.02 0 1c0 .4 0 .8.2 1.2c.1.4.3.7.5 1.1c.2.3.5.6.7.9c.3.3.6.5 1 .6l-.5.7c-.3-.1-.5-.3-.7-.5c-.3-.2-.5-.4-.7-.7c-.2-.2-.4-.5-.5-.8c-.2-.3-.3-.6-.4-.9c-.2.7-.5 1.3-1 1.9c-.4.5-.8.9-1.4 1.2l-.4-.7c.3-.1.6-.4.9-.7c.3-.2.5-.6.7-.9c.3-.4.4-.8.6-1.2c.1-.4.1-.8.1-1.2c.05.02 0-1 0-1h-2v-.7h5v.7h-2.1zM82 5l-.4.7l-1-.3c-.3-.2-.7-.4-1-.6c-.3-.2-.6-.5-.8-.7l-.6-.9c-.1.3-.3.6-.6.9c-.2.2-.5.5-.8.7c-.3.2-.6.4-1 .6l-1 .3l-.4-.7c.4-.1.8-.2 1.2-.4c.4-.2.8-.4 1.1-.7c.3-.3.6-.6.8-.9c.2-.4.3-.8.3-1.1c-.03-.04 0-.7 0-.7h.9s-.05.66 0 .7c0 .3.1.7.2 1.1c.2.3.5.6.8.9c.3.3.7.5 1.1.7c.4.2.8.3 1.2.4zm-3.4 2.8h3.8v.7h-8.3v-.7h3.7V5.6h.8v2.2zm12-4.5v.7h-6.3V.9h6.2v.7h-5.3v1.7h5.4zM83.3 5h8.3v.7h-8.3v-.7zm.9 2.4v-.6h6.4v2.9h-.9V7.4h-5.5zM102.4 5l-.3.7l-1.1-.3l-.9-.6c-.3-.2-.6-.5-.9-.7c-.2-.3-.4-.6-.5-.9l-.6.9c-.3.2-.6.5-.9.7l-.9.6l-1.1.3l-.3-.7c.4-.1.8-.2 1.2-.4c.4-.2.7-.4 1-.7c.4-.3.6-.6.8-.9c.2-.4.3-.8.3-1.1c.02-.04 0-.7 0-.7h.9v.7c0 .3.1.7.3 1.1c.2.3.4.6.8.9c.3.3.6.5 1 .7c.4.2.8.3 1.2.4zm-3.3 2.8h3.7v.7h-8.3v-.7h3.7V5.6h.9v2.2zM110.3.5h.9v9.2h-.9V.5zm-3.2 4.9v1.6c.4-.1.9-.1 1.3-.1c.5-.1.9-.1 1.3-.2l.1.6c-.5.1-1 .2-1.6.2c-.5.1-1 .1-1.5.2h-2.8l-.1-.7h2.5V5.4c-.3 0-.6-.1-.8-.2c-.3-.2-.5-.3-.7-.5c-.2-.2-.3-.4-.4-.6c-.1-.3-.2-.5-.2-.8c0-.3.1-.6.2-.9c.1-.3.3-.5.5-.7c.3-.2.5-.3.8-.4c.3-.1.6-.2 1-.2c.3 0 .7.1 1 .2c.3.1.5.2.7.4c.3.2.4.4.6.7c.1.3.1.6.1.9c0 .3 0 .5-.1.8c-.1.2-.2.4-.4.6c-.2.2-.4.4-.7.5c-.2.1-.5.2-.8.2zm-2-2.1c0 .2 0 .4.1.6c.1.1.2.3.3.4c.2.1.3.2.5.3c.2.1.4.1.7.1c.2 0 .4 0 .6-.1l.6-.3c.1-.1.2-.3.3-.4c.1-.2.1-.4.1-.6c0-.2 0-.4-.1-.6c-.1-.2-.2-.3-.3-.5l-.6-.3c-.2 0-.4-.1-.6-.1c-.3 0-.5.1-.7.1c-.2.1-.3.2-.5.3c-.1.2-.2.3-.3.5c-.1.2-.1.4-.1.6zM119.9.5h.8v9.2h-.8V.5zM118 3.1V.8h.8v8.4h-.8V6.1h-1.6v-.7h1.6V3.8s-1.47-.04-1.5 0c-.2.7-.5 1.5-1 2.1c-.6.7-1.2 1.3-2.1 1.8l-.5-.6c1-.6 1.7-1.3 2.2-2.1c.5-.8.8-1.6.9-2.6h-2.7v-.7h3.5c0 .5 0 .9-.1 1.4h1.3zm4.8 1.5l-.2-.7c.4 0 .8-.1 1.2-.2c.4-.1.7-.2 1-.4c.3-.1.5-.3.7-.5c.1-.2.2-.4.3-.7h-2.9v-.7h2.9v-.9h.8v.9h2.9v.7h-2.8c0 .3.1.5.3.7c.1.2.4.4.7.5c.2.2.6.3 1 .4c.3.1.7.2 1.2.2l-.3.7c-.4-.1-.7-.1-1.1-.2l-.9-.3c-.3-.2-.6-.3-.8-.5c-.3-.2-.4-.4-.6-.6c-.1.2-.3.4-.5.6c-.3.2-.5.3-.8.5c-.3.1-.6.2-1 .3c-.3.1-.7.1-1.1.2zm-.7.6h8.3v.7h-8.3v-.7zm4.1 1.4c1 0 1.8.2 2.3.4c.6.3.8.7.8 1.2c0 .5-.2.8-.8 1.1c-.5.3-1.3.4-2.3.4c-1 0-1.8-.1-2.3-.4c-.5-.3-.8-.6-.8-1.1c0-.5.3-.9.8-1.2c.5-.2 1.3-.4 2.3-.4zm0 2.4c.7 0 1.3 0 1.7-.2c.4-.1.6-.4.6-.6c0-.3-.2-.5-.6-.7c-.4-.2-1-.2-1.7-.2c-.7 0-1.3 0-1.7.2c-.4.2-.6.4-.6.7c0 .2.2.5.6.6c.4.2 1 .2 1.7.2zm12.5-4l-.4.7c-.5-.2-1-.4-1.4-.7c-.3-.4-.6-.7-.8-1.2c-.2.5-.5.9-.9 1.3c-.4.4-.9.6-1.4.8l-.4-.6c.3-.1.6-.3.9-.5c.3-.2.5-.4.7-.6c.2-.3.4-.5.5-.8c.1-.3.1-.6.1-.9c.03.01 0-.2 0-.2h-2v-.6h2V.5h.9v1.2h2v.6h-2s-.03.21 0 .2c0 .3 0 .6.1.8c.1.3.3.5.5.7c.2.3.4.5.7.6c.3.2.6.3.9.4zm1.7-2.1h1.4v.7h-1.4v2.6h-.8V.5h.8v2.4zm-2.9 3.5c1 0 1.7.1 2.2.4c.6.3.8.7.8 1.2c0 .6-.2 1-.8 1.2c-.5.3-1.2.5-2.2.5c-.9 0-1.7-.2-2.2-.5c-.5-.2-.8-.6-.8-1.2c0-.5.3-.9.8-1.2c.5-.3 1.3-.4 2.2-.4zm0 2.6c.7 0 1.2-.1 1.6-.2c.4-.2.6-.4.6-.8c0-.3-.2-.5-.6-.7c-.4-.2-.9-.3-1.6-.3c-.7 0-1.2.1-1.6.3c-.4.2-.5.4-.5.7c0 .4.1.6.5.8c.4.1.9.2 1.6.2zM149.2.6h.9v4.9h-.9V3.4s-1.84.01-1.8 0c-.1.6-.4 1-.8 1.3c-.4.3-.9.5-1.6.5c-.3 0-.6 0-.9-.2c-.3-.1-.6-.2-.8-.4c-.2-.2-.3-.4-.5-.7c-.1-.2-.1-.5-.1-.8c0-.3 0-.6.1-.9c.2-.2.3-.5.5-.6c.2-.2.5-.4.8-.5c.3-.1.6-.1.9-.1c.3 0 .6 0 .9.1c.2.1.5.2.7.4c.2.1.4.3.5.5c.1.2.2.5.2.7c.05.02 1.9 0 1.9 0V.6zM145 4.5c.2 0 .5 0 .7-.1c.1-.1.3-.2.4-.3c.2-.1.3-.3.4-.4c0-.2.1-.4.1-.6c0-.2-.1-.4-.1-.6c-.1-.2-.2-.3-.4-.4c-.1-.2-.3-.3-.4-.3c-.2-.1-.5-.1-.7-.1c-.2 0-.4 0-.6.1c-.2 0-.4.1-.5.3c-.1.1-.2.2-.3.4c-.1.2-.1.4-.1.6c0 .2 0 .4.1.6c.1.1.2.3.3.4c.1.1.3.2.5.3c.2.1.4.1.6.1zm4.2 2.6V5.9h.9v3.7h-5.9V5.9h.8v1.2h4.2zm0 1.8V7.7H145v1.2h4.2zM161.3.5v5.3h-.9V.5h.9zm-2.8.6v3.8h-4.2V1.1h4.2zm-.8 3.1V1.8h-2.6v2.4h2.6zm3.8 2.9s-2.69-.04-2.7 0c0 .2.1.4.3.6c.1.2.4.4.6.6c.3.2.6.3 1 .5c.4.1.7.2 1.1.2l-.3.7c-.3-.1-.6-.2-1-.3l-.9-.3c-.2-.2-.5-.3-.7-.5c-.2-.2-.4-.4-.5-.6c-.1.2-.3.4-.5.6c-.3.2-.5.3-.8.5l-.9.3l-1 .3l-.3-.7c.4 0 .8-.1 1.2-.2c.3-.2.6-.3.9-.5c.3-.2.5-.4.7-.6c.2-.2.3-.4.3-.6c-.04-.04-2.7 0-2.7 0v-.7h2.7v-.9h.8v.9h2.7v.7zm12.1-2.9v.7h-1.5v4.8h-.9V.6h.9v3.6h1.5zm-5.5-2s.03 1.14 0 1.1c0 .4.1.8.2 1.1c.1.4.3.8.5 1.1c.2.3.5.6.8.9c.2.3.6.5.9.6l-.5.7c-.5-.2-1-.6-1.4-1.1c-.4-.5-.7-1.1-.9-1.7c-.1.3-.2.7-.4 1c-.1.3-.3.6-.5.8c-.2.3-.4.5-.7.7c-.2.2-.5.4-.7.5l-.5-.6c.3-.2.6-.4.9-.7c.3-.3.6-.6.8-1c.2-.3.4-.7.5-1.1c.1-.4.2-.8.2-1.2V2.2h-2.1v-.7h5v.7h-2.1zM180.9.6h.8v5h-.8v-5zm-1.1 3.8l.1.7c-.4 0-.8.1-1.1.1c-.4.1-.7.1-1.1.1c-.3 0-.7.1-1.1.1h-1.2c.04-.02-.7 0-.7 0V2.8h3.3V1.7h-3.3v-.7h4.1v2.5h-3.3s.02 1.19 0 1.2h1.2c.3 0 .7 0 1-.1h1c.4-.1.7-.1 1.1-.2zm1.1 2.7V6h.8v3.6h-5.9V6h.8v1.1h4.3zm0 1.8V7.8h-4.3v1.1h4.3zm6.7-3.6V2.1h-1.4v-.6h6.8v.6h-1.4v3.2h1.4v.7h-6.8v-.7h1.4zm3.1 0V2.1h-2.2v3.2h2.2zm-5.2 2.5h8.3v.7h-8.3v-.7zm13.7.1h3.8v.7h-8.3v-.7h3.7V6.2h-2.7V3.3h5.4V1.9h-5.4v-.7h6.2v2.8h-5.4v1.5h5.7v.7h-3v1.7zm11-5.5v-.2h-5.5v-.7h6.3s.02.93 0 .9v2c-.1.3-.1.7-.1 1.1c-.1.4-.2.9-.2 1.4l-.9-.1c.2-.9.3-1.8.3-2.5c.1-.7.1-1.3.1-1.9zm-6.3 5.3h8.2v.7h-8.2v-.7zm16-7.2h.8v5.5h-.8V3.5h-1.2v2.4h-.8V.7h.8v2.2h1.2V.5zm-2.5 4.2l.1.6c-.3.1-.6.1-.9.2h-.8c-.2.1-.5.1-.8.1h-1.6V3h2.7V1.8h-2.7v-.7h3.5v2.5h-2.7s.05 1.33 0 1.3h1.7c.5-.1 1-.1 1.5-.2zm-2.7 4.9V6.4h6v3.2h-6zm.9-2.5v1.8h4.3V7.1h-4.3zM228.9.5h.8v9.2h-.8V.5zm-4 .7c.3 0 .6.1.9.3c.3.1.5.3.7.6c.2.3.4.6.5 1c.1.4.2.8.2 1.3c0 .5-.1 1-.2 1.4c-.1.3-.3.7-.5 1c-.2.2-.4.5-.7.6c-.3.2-.6.2-.9.2c-.4 0-.7 0-1-.2c-.3-.1-.5-.4-.7-.6c-.2-.3-.4-.7-.5-1c-.1-.4-.2-.9-.2-1.4c0-.5.1-.9.2-1.3c.1-.4.3-.7.5-1c.2-.3.4-.5.7-.6c.3-.2.6-.3 1-.3zm0 .8c-.3 0-.5.1-.6.2c-.2.1-.4.3-.5.5c-.2.2-.3.4-.3.7c-.1.3-.2.7-.2 1c0 .4.1.7.2 1c0 .3.1.6.3.8c.1.2.3.4.5.5c.1.1.3.2.6.2c.2 0 .4-.1.6-.2c.2-.1.3-.3.5-.5c.1-.2.2-.5.3-.8c.1-.3.1-.6.1-1c0-.3 0-.7-.1-1c-.1-.3-.2-.5-.3-.7c-.2-.2-.3-.4-.5-.5c-.2-.1-.4-.2-.6-.2zm15 2.2v.6h-1.5v4.9h-.8V.5h.8v3.7h1.5zm-7.3-2.1v4.6h2.2c.3-.1.6-.1 1-.1c.3-.1.6-.1.9-.2l.1.7c-.3.1-.7.1-1 .2c-.3 0-.7 0-1 .1h-2.3c0 .03-.7 0-.7 0v-6h4.2v.7h-3.4zm7.9 7v-1h.9v1h-.9z" stroke="none" fill="#111111"/></g></svg>