<?xml version="1.0" standalone="no"?><!DOCTYPE svg PUBLIC "-//W3C//DTD SVG 1.1//EN" "http://www.w3.org/Graphics/SVG/1.1/DTD/svg11.dtd"><svg xmlns="http://www.w3.org/2000/svg" version="1.1" width="414.3px" height="26.8px" viewBox="0 -3 414.3 26.8" style="top:-3px"><desc>굿잡 5060</desc><defs/><g id="Polygon118608"><path d="m12.7 6.9c0-.05 2.1 0 2.1 0v1.4H8.7v2.2H6.9V8.3h-6V6.9s10.05-.05 10 0c.2-.9.3-1.6.4-2.2V2.9c.02.04-8.7 0-8.7 0V1.5H13s.04 1.07 0 1.1v1.8c0 .7-.1 1.5-.3 2.5zm-4 4.2s-.03.51 0 .5c0 .4.1.8.3 1.1c.3.4.6.7 1 1c.5.3 1 .5 1.6.8c.6.2 1.3.3 2.1.4l-.6 1.3c-1.2-.1-2.3-.4-3.2-.9c-1-.4-1.7-1-2.1-1.7c-.5.7-1.2 1.3-2.1 1.7c-.9.5-2 .8-3.3.9l-.6-1.3c.8-.1 1.5-.2 2.1-.5c.6-.2 1.1-.4 1.6-.7c.4-.3.8-.6 1-1c.2-.3.4-.7.4-1.1c-.03.01 0-.5 0-.5h1.8zm21.9-6.8v1.5h-2.2v3.6h-1.7V.9h1.7v3.4h2.2zm-5.2 3.5l-.8 1.4c-.9-.3-1.6-.7-2.2-1.2c-.7-.6-1.1-1.2-1.5-1.9c-.3.8-.8 1.5-1.4 2.1c-.7.6-1.5 1-2.4 1.3l-.9-1.4c.6-.2 1.2-.4 1.6-.7c.5-.4.9-.7 1.2-1.1c.4-.4.6-.9.8-1.4c.1-.4.2-.9.2-1.4v-.2h-3.3V1.8h8.3v1.5h-3.2v.2c0 .4.1.9.2 1.3c.2.5.4.9.7 1.3c.3.3.7.7 1.2 1c.4.3.9.5 1.5.7zm1.3 3.9V10h1.7v6.1h-9.8V10h1.7v1.7h6.4zm0 3V13h-6.4v1.7h6.4zm9.8-.5c-.3-.1-.5-.3-.7-.5l1-1.4c.3.4.8.6 1.2.9c.5.2 1 .3 1.5.3c.4 0 .8-.1 1.1-.2c.3-.2.6-.3.8-.6c.3-.2.4-.5.5-.9c.2-.3.2-.7.2-1c0-.8-.2-1.4-.7-1.8c-.4-.4-1-.6-1.8-.6c-.4 0-.7 0-1 .1c-.3.1-.6.1-1 .2l-1.1-.3l1-6h6.1v1.7h-4.8L38.3 7c.6-.1 1.1-.1 1.7-.1c.5 0 1.1 0 1.6.2c.5.2.9.4 1.2.7c.4.4.7.7.9 1.2c.2.5.3 1 .3 1.7c0 .6-.1 1.2-.3 1.8c-.3.5-.6 1-1 1.4c-.4.4-.9.7-1.5.9c-.5.2-1.1.3-1.8.3c-.5 0-1-.1-1.5-.2c-.5-.2-1-.4-1.4-.7zm18-5.5c0 .7-.1 1.5-.2 2.2c-.1.8-.4 1.5-.8 2.1c-.3.6-.8 1.1-1.4 1.5c-.6.4-1.3.6-2.2.6c-.8 0-1.6-.2-2.2-.6c-.6-.4-1-.9-1.4-1.5c-.3-.6-.6-1.3-.7-2.1c-.2-.7-.2-1.5-.2-2.2c0-.8 0-1.5.2-2.3c.1-.7.4-1.4.7-2c.4-.7.8-1.2 1.4-1.6c.6-.3 1.4-.5 2.2-.5c.9 0 1.6.2 2.2.6c.6.4 1.1.9 1.4 1.5c.4.6.7 1.3.8 2.1c.1.7.2 1.5.2 2.2zm-1.9 0c0-.5 0-1-.1-1.5c-.1-.6-.2-1.1-.4-1.6c-.2-.5-.4-.9-.8-1.2c-.3-.4-.8-.6-1.4-.6c-.6 0-1 .2-1.4.6c-.3.3-.6.7-.8 1.2c-.2.5-.3 1-.3 1.6c-.1.5-.1 1-.1 1.5c0 .4 0 .9.1 1.5c0 .5.1 1.1.3 1.6c.2.5.5.9.8 1.2c.4.4.9.5 1.4.5c.6 0 1.1-.1 1.4-.5c.4-.3.6-.7.8-1.2c.2-.5.3-1.1.4-1.6c.1-.6.1-1.1.1-1.5zm8.1-6.3h2.3s-4.25 5.27-4.2 5.3c.5-.4 1.2-.5 1.9-.5c.5 0 1 .1 1.5.3c.5.1.8.4 1.2.7c.3.4.5.8.7 1.2c.2.5.3 1 .3 1.5c0 .6-.1 1.2-.4 1.7c-.2.5-.5 1-.9 1.3c-.4.4-.9.7-1.4.9c-.5.2-1.1.3-1.7.3c-.7 0-1.2-.1-1.8-.3c-.5-.2-.9-.5-1.3-.9c-.4-.4-.7-.8-.9-1.4c-.2-.5-.3-1.1-.3-1.8c0-.7.2-1.3.5-2c.3-.6.6-1.2 1-1.7c.04-.01 3.5-4.6 3.5-4.6zM60 13.5c.3 0 .6 0 1-.1c.3-.1.5-.3.8-.5c.2-.3.4-.5.5-.8c.1-.3.2-.7.2-1c0-.8-.2-1.4-.7-1.8c-.4-.5-1-.7-1.8-.7c-.3 0-.7.1-1 .2c-.3.1-.5.3-.7.5c-.3.2-.4.5-.6.8c-.1.3-.2.6-.2.9c0 .8.3 1.4.7 1.8c.4.5 1 .7 1.8.7zm14.6-4.8c0 .7-.1 1.5-.2 2.2c-.2.8-.4 1.5-.8 2.1c-.3.6-.8 1.1-1.4 1.5c-.6.4-1.3.6-2.2.6c-.9 0-1.6-.2-2.2-.6c-.6-.4-1-.9-1.4-1.5c-.3-.6-.6-1.3-.7-2.1c-.2-.7-.3-1.5-.3-2.2c0-.8.1-1.5.3-2.3c.1-.7.4-1.4.7-2c.4-.7.8-1.2 1.4-1.6c.6-.3 1.3-.5 2.2-.5c.9 0 1.6.2 2.2.6c.6.4 1.1.9 1.4 1.5c.4.6.6 1.3.8 2.1c.1.7.2 1.5.2 2.2zm-1.9 0c0-.5-.1-1-.1-1.5c-.1-.6-.2-1.1-.4-1.6c-.2-.5-.4-.9-.8-1.2c-.3-.4-.8-.6-1.4-.6c-.6 0-1 .2-1.4.6c-.3.3-.6.7-.8 1.2c-.2.5-.3 1-.3 1.6c-.1.5-.1 1-.1 1.5c0 .4 0 .9.1 1.5c0 .5.1 1.1.3 1.6c.2.5.5.9.8 1.2c.4.4.8.5 1.4.5c.6 0 1.1-.1 1.4-.5c.4-.3.6-.7.8-1.2c.2-.5.3-1.1.4-1.6c0-.6.1-1.1.1-1.5z" stroke="none" fill="#111111"/></g></svg>