<?xml version="1.0" standalone="no"?><!DOCTYPE svg PUBLIC "-//W3C//DTD SVG 1.1//EN" "http://www.w3.org/Graphics/SVG/1.1/DTD/svg11.dtd"><svg xmlns="http://www.w3.org/2000/svg" version="1.1" width="162px" height="19.6px" viewBox="0 -2 162 19.6" style="top:-2px"><desc>아이케어카</desc><defs/><g id="Polygon115038"><path d="m10.8 4.7v1.3H9.2v5.6H7.6V.5h1.6v4.2h1.6zM3.5 1.3c.4 0 .8.1 1.1.3c.4.2.7.4 1 .8c.2.3.4.7.6 1.2c.1.5.2 1 .2 1.6c0 .7-.1 1.2-.2 1.7c-.2.5-.4.9-.6 1.2c-.3.4-.6.6-1 .8c-.3.2-.7.3-1.1.3c-.4 0-.8-.1-1.2-.3c-.3-.2-.6-.4-.9-.8c-.3-.3-.5-.7-.6-1.2c-.2-.5-.2-1-.2-1.7c0-.6 0-1.1.2-1.6c.1-.5.3-.9.6-1.2c.3-.4.6-.6.9-.8c.4-.2.8-.3 1.2-.3zm0 6.5c.4 0 .7-.2 1-.7c.2-.4.4-1 .4-1.9c0-.8-.2-1.4-.4-1.8c-.3-.5-.6-.7-1-.7c-.4 0-.8.2-1 .7c-.3.4-.4 1-.4 1.8c0 .9.1 1.5.4 1.9c.2.5.6.7 1 .7zM19.1.5h1.6v11.1h-1.6V.5zm-4.4.8c.4 0 .8.1 1.2.3c.3.2.6.4.9.8c.2.3.4.7.6 1.2c.1.5.2 1 .2 1.6c0 .7-.1 1.2-.2 1.7c-.2.5-.4.9-.6 1.2c-.3.4-.6.6-.9.8c-.4.2-.8.3-1.2.3c-.4 0-.8-.1-1.1-.3c-.4-.2-.7-.4-1-.8c-.2-.3-.4-.7-.6-1.2c-.1-.5-.2-1-.2-1.7c0-.6.1-1.1.2-1.6c.2-.5.4-.9.6-1.2c.3-.4.6-.6 1-.8c.3-.2.7-.3 1.1-.3zm0 1.4c-.4 0-.7.2-1 .7c-.2.4-.4 1-.4 1.8c0 .9.2 1.5.4 1.9c.3.5.6.7 1 .7c.4 0 .8-.2 1-.7c.3-.4.4-1 .4-1.9c0-.8-.1-1.4-.4-1.8c-.2-.5-.6-.7-1-.7zM30.5.5h1.5v11.1h-1.5V.5zm-2.3 4.2V.8h1.5v10.3h-1.5V6s-1.6-.04-1.6 0c-.3.6-.7 1.3-1.2 1.8c-.6.6-1.2 1.1-2.1 1.6l-.9-1.1c.7-.4 1.3-.8 1.8-1.3c.4-.4.8-.9 1-1.5c.01.03-2.5.3-2.5.3l-.2-1.3s3.13-.19 3.1-.2c.1-.2.1-.4.2-.6v-.7c.02.05-2.8 0-2.8 0V1.8s4.35-.02 4.3 0v1.5L27 4.7h1.2zM41.1.5h1.6v11.1h-1.6V5.8h-1.8c0 .5-.1 1-.3 1.4c-.1.4-.3.8-.6 1.1c-.2.3-.5.5-.9.7c-.3.1-.6.2-1 .2c-.4 0-.8-.1-1.2-.3c-.3-.2-.6-.4-.9-.8c-.2-.3-.4-.7-.6-1.2c-.1-.5-.2-1-.2-1.7c0-.6.1-1.1.2-1.6c.2-.5.4-.9.6-1.2c.3-.4.6-.6.9-.8c.4-.2.8-.3 1.2-.3c.4 0 .7.1 1 .2c.3.2.6.4.9.7c.2.2.4.6.6 1c.1.4.2.8.3 1.3c0 .01 1.8 0 1.8 0v-4zm-4.6 7.3c.4 0 .7-.2 1-.7c.2-.4.3-1 .3-1.9c0-.8-.1-1.4-.3-1.8c-.3-.5-.6-.7-1-.7c-.4 0-.8.2-1 .7c-.2.4-.4 1-.4 1.8c0 .9.2 1.5.4 1.9c.2.5.6.7 1 .7zm18.1-3v1.3h-1.5v5.5h-1.6V.5h1.6v4.3h1.5zm-9.5-3.2h5c0 .8 0 1.7-.1 2.4c-.2.8-.4 1.6-.8 2.3c-.3.7-.8 1.3-1.5 1.9c-.6.6-1.4 1.2-2.5 1.7l-.8-1.2c.9-.4 1.6-.9 2.2-1.4c.5-.5 1-1.1 1.3-1.7c-.01-.02-3.2.3-3.2.3l-.2-1.4s3.85-.18 3.8-.2c.1-.2.2-.4.2-.7c0-.2.1-.5.1-.7c-.02-.04-3.5 0-3.5 0V1.6z" stroke="none" fill="#fff"/></g></svg>