<?xml version="1.0" encoding="utf-8"?>
<!-- Generator: Adobe Illustrator 27.5.0, SVG Export Plug-In . SVG Version: 6.00 Build 0)  -->
<svg version="1.1" id="레이어_1" xmlns="http://www.w3.org/2000/svg" xmlns:xlink="http://www.w3.org/1999/xlink" x="0px"
	 y="0px" viewBox="0 0 1920 1080" style="enable-background:new 0 0 1920 1080;" xml:space="preserve">
<style type="text/css">
	.st0{opacity:0;}
	.st1{clip-path:url(#SVGID_00000026145973993323569950000006819060144882249099_);fill:#FFFFFF;}
	.st2{fill:#FFFFFF;}
</style>
<g>
	<g>
		<g class="st0">
			<g>
				<defs>
					<rect id="SVGID_1_" x="-9" y="460" width="1938" height="154"/>
				</defs>
				<clipPath id="SVGID_00000039093741156375536350000009619422858106024861_">
					<use xlink:href="#SVGID_1_"  style="overflow:visible;"/>
				</clipPath>
				
					<rect y="467" style="clip-path:url(#SVGID_00000039093741156375536350000009619422858106024861_);fill:#FFFFFF;" width="1920" height="146"/>
			</g>
		</g>
	</g>
	<g>
		<path class="st2" d="M73.8,529.7h-2v-16h9.6v1.6h-7.6v5.5h6.4v1.6h-6.4V529.7z"/>
		<path class="st2" d="M85.3,516.4h-1.8V514h1.8V516.4z M85.3,529.7h-1.8v-11.5h1.8V529.7z"/>
		<path class="st2" d="M88.4,529.7v-11.5H90l0.1,2c0.3-0.7,0.8-1.3,1.4-1.7s1.3-0.6,2.1-0.6c0.2,0,0.4,0,0.6,0s0.4,0.1,0.5,0.1v1.6
			c-0.3-0.1-0.7-0.2-1.2-0.2c-0.7,0-1.4,0.2-2,0.7c-0.6,0.5-1,1.1-1.3,2v7.5H88.4z"/>
		<path class="st2" d="M95.8,526.8c0.9,1.1,2.1,1.7,3.6,1.7c0.8,0,1.4-0.2,1.8-0.5s0.7-0.7,0.7-1.3c0-0.4-0.1-0.7-0.3-1
			c-0.2-0.3-0.7-0.6-1.3-0.8l-1.6-0.6c-0.9-0.4-1.6-0.8-2.1-1.4s-0.7-1.2-0.7-1.9c0-0.6,0.1-1.1,0.5-1.5c0.3-0.5,0.7-0.8,1.3-1.1
			c0.6-0.3,1.3-0.4,2.1-0.4c0.7,0,1.3,0.1,2,0.4c0.6,0.3,1.1,0.6,1.6,0.9v2c-0.5-0.6-1.1-1-1.7-1.3c-0.6-0.3-1.2-0.4-1.8-0.4
			c-0.7,0-1.2,0.2-1.5,0.5c-0.3,0.3-0.5,0.7-0.5,1.1c0,0.4,0.1,0.7,0.4,0.9s0.7,0.5,1.4,0.8l1.5,0.6c1,0.4,1.6,0.9,2.1,1.4
			c0.4,0.5,0.7,1.2,0.7,2c0,1-0.4,1.9-1.2,2.5c-0.8,0.6-1.8,0.9-3.1,0.9c-0.8,0-1.5-0.1-2.1-0.4c-0.6-0.2-1.1-0.5-1.5-0.9V526.8z"/>
		<path class="st2" d="M107.1,519.7h-2.5v-1.5h2.5v-3.5h1.8v3.5h2.5v1.5H109v10h-1.8V519.7z"/>
		<path class="st2" d="M118.6,523.4h-6.1v-1.7h6.1V523.4z"/>
		<path class="st2" d="M122.2,519.7h-2.5v-1.5h2.5v-3.5h1.8v3.5h2.5v1.5H124v10h-1.8V519.7z"/>
		<path class="st2" d="M130.1,516.4h-1.8V514h1.8V516.4z M130.1,529.7h-1.8v-11.5h1.8V529.7z"/>
		<path class="st2" d="M133.1,529.7v-11.5h1.7l0.1,2.1c0.4-0.7,1-1.3,1.6-1.7c0.6-0.4,1.3-0.7,2.2-0.7c0.8,0,1.5,0.2,2.1,0.7
			c0.6,0.4,0.9,1.1,1.1,1.9c0.5-0.8,1-1.4,1.7-1.8s1.4-0.7,2.2-0.7c1.1,0,1.9,0.3,2.5,1c0.6,0.7,0.9,1.7,0.9,3v7.8h-1.8v-7.6
			c0-0.9-0.2-1.6-0.5-2c-0.3-0.4-0.8-0.7-1.5-0.7c-0.4,0-0.9,0.1-1.3,0.4s-0.9,0.7-1.2,1.1c-0.4,0.5-0.6,1-0.8,1.5v7.2h-1.8V522
			c0-0.9-0.2-1.6-0.5-2c-0.3-0.4-0.8-0.6-1.5-0.6c-0.4,0-0.9,0.1-1.3,0.4c-0.5,0.3-0.9,0.7-1.2,1.1c-0.4,0.5-0.6,1-0.8,1.5v7.2
			H133.1z"/>
		<path class="st2" d="M151.2,523.7c0-1.1,0.2-2.1,0.7-3c0.4-0.9,1-1.6,1.8-2.1c0.8-0.5,1.7-0.7,2.7-0.7c1.5,0,2.7,0.5,3.6,1.5
			s1.3,2.5,1.3,4.4v0.8H153c0.1,1.2,0.4,2.1,1,2.8c0.6,0.7,1.4,1.1,2.5,1.1c1.6,0,3-0.6,4.1-1.7v1.9c-0.5,0.4-1.1,0.7-1.7,1
			c-0.7,0.2-1.4,0.4-2.3,0.4c-1.1,0-2.1-0.2-2.9-0.7c-0.8-0.5-1.4-1.2-1.8-2.1c-0.4-0.9-0.6-1.9-0.6-3.1V523.7z M159.4,523.2
			c0-1.2-0.3-2.2-0.9-2.8s-1.3-0.9-2.2-0.9c-0.6,0-1.1,0.2-1.6,0.5c-0.5,0.3-0.9,0.7-1.2,1.3c-0.3,0.6-0.5,1.2-0.5,2H159.4z"/>
		<path class="st2" d="M167.5,519.7v-1.5h2.3v-1.1c0-0.7,0.1-1.3,0.4-1.9c0.3-0.6,0.7-1.1,1.2-1.4c0.5-0.4,1.2-0.5,2-0.5
			c0.5,0,1,0.1,1.4,0.3v1.6c-0.3-0.3-0.8-0.4-1.3-0.4c-0.6,0-1,0.2-1.4,0.6s-0.5,1-0.5,1.8v1.1h2.7v1.5h-2.7v10h-1.9v-10H167.5z"/>
		<path class="st2" d="M176.5,529.7v-11.5h1.7l0.1,2c0.3-0.7,0.8-1.3,1.4-1.7s1.3-0.6,2.1-0.6c0.2,0,0.4,0,0.6,0s0.4,0.1,0.5,0.1
			v1.6c-0.3-0.1-0.7-0.2-1.2-0.2c-0.7,0-1.4,0.2-2,0.7c-0.6,0.5-1,1.1-1.3,2v7.5H176.5z"/>
		<path class="st2" d="M183.6,523.7c0-1.1,0.2-2.1,0.7-3c0.4-0.9,1-1.6,1.8-2.1c0.8-0.5,1.7-0.7,2.7-0.7c1.5,0,2.7,0.5,3.6,1.5
			s1.3,2.5,1.3,4.4v0.8h-8.2c0.1,1.2,0.4,2.1,1,2.8c0.6,0.7,1.4,1.1,2.5,1.1c1.6,0,3-0.6,4.1-1.7v1.9c-0.5,0.4-1.1,0.7-1.7,1
			c-0.7,0.2-1.4,0.4-2.3,0.4c-1.1,0-2.1-0.2-2.9-0.7c-0.8-0.5-1.4-1.2-1.8-2.1c-0.4-0.9-0.6-1.9-0.6-3.1V523.7z M191.8,523.2
			c0-1.2-0.3-2.2-0.9-2.8s-1.3-0.9-2.2-0.9c-0.6,0-1.1,0.2-1.6,0.5c-0.5,0.3-0.9,0.7-1.2,1.3c-0.3,0.6-0.5,1.2-0.5,2H191.8z"/>
		<path class="st2" d="M195.1,523.7c0-1.1,0.2-2.1,0.7-3c0.4-0.9,1-1.6,1.8-2.1c0.8-0.5,1.7-0.7,2.7-0.7c1.5,0,2.7,0.5,3.6,1.5
			s1.3,2.5,1.3,4.4v0.8h-8.2c0.1,1.2,0.4,2.1,1,2.8c0.6,0.7,1.4,1.1,2.5,1.1c1.6,0,3-0.6,4.1-1.7v1.9c-0.5,0.4-1.1,0.7-1.7,1
			c-0.7,0.2-1.4,0.4-2.3,0.4c-1.1,0-2.1-0.2-2.9-0.7c-0.8-0.5-1.4-1.2-1.8-2.1c-0.4-0.9-0.6-1.9-0.6-3.1V523.7z M203.3,523.2
			c0-1.2-0.3-2.2-0.9-2.8s-1.3-0.9-2.2-0.9c-0.6,0-1.1,0.2-1.6,0.5c-0.5,0.3-0.9,0.7-1.2,1.3c-0.3,0.6-0.5,1.2-0.5,2H203.3z"/>
		<path class="st2" d="M207.2,520.8c0.4-0.9,1-1.6,1.8-2.1c0.8-0.5,1.6-0.7,2.6-0.7c0.7,0,1.4,0.2,2.1,0.6c0.7,0.4,1.2,0.9,1.6,1.5
			v-6.3h1.8v16.1h-1.7l-0.1-1.8c-0.4,0.6-0.9,1.1-1.6,1.5c-0.7,0.4-1.4,0.6-2.1,0.6c-1,0-1.8-0.2-2.6-0.7c-0.8-0.5-1.4-1.2-1.8-2.1
			c-0.4-0.9-0.7-2-0.7-3.2C206.6,522.8,206.8,521.7,207.2,520.8z M208.9,526.4c0.3,0.7,0.7,1.2,1.2,1.6c0.5,0.4,1.1,0.6,1.7,0.6
			c0.7,0,1.4-0.3,2-0.8c0.6-0.5,1.1-1.2,1.4-1.9v-3.7c-0.3-0.8-0.8-1.4-1.4-1.9c-0.6-0.5-1.3-0.8-2-0.8c-0.6,0-1.2,0.2-1.7,0.6
			c-0.5,0.4-0.9,0.9-1.2,1.6c-0.3,0.7-0.5,1.5-0.5,2.4C208.5,524.9,208.6,525.7,208.9,526.4z"/>
		<path class="st2" d="M219.3,523.8c0-1.1,0.2-2.2,0.7-3.1c0.5-0.9,1.1-1.6,1.9-2.1c0.8-0.5,1.7-0.7,2.8-0.7c1.1,0,2,0.2,2.8,0.7
			c0.8,0.5,1.4,1.2,1.9,2.1c0.5,0.9,0.7,1.9,0.7,3.1v0.4c0,1.1-0.2,2.2-0.7,3.1c-0.5,0.9-1.1,1.6-1.9,2.1c-0.8,0.5-1.7,0.7-2.8,0.7
			c-1,0-2-0.2-2.8-0.7c-0.8-0.5-1.5-1.2-1.9-2.1c-0.5-0.9-0.7-1.9-0.7-3.1V523.8z M221.3,524.2c0,1.3,0.3,2.4,0.9,3.2
			s1.5,1.2,2.5,1.2c1.1,0,1.9-0.4,2.5-1.2s0.9-1.9,0.9-3.2v-0.4c0-1.3-0.3-2.4-0.9-3.2c-0.6-0.8-1.5-1.2-2.5-1.2
			c-1.1,0-1.9,0.4-2.5,1.2c-0.6,0.8-0.9,1.9-0.9,3.2V524.2z"/>
		<path class="st2" d="M232.3,529.7v-11.5h1.7l0.1,2.1c0.4-0.7,1-1.3,1.6-1.7c0.6-0.4,1.3-0.7,2.2-0.7c0.8,0,1.5,0.2,2.1,0.7
			c0.6,0.4,0.9,1.1,1.1,1.9c0.5-0.8,1-1.4,1.7-1.8s1.4-0.7,2.2-0.7c1.1,0,1.9,0.3,2.5,1c0.6,0.7,0.9,1.7,0.9,3v7.8h-1.8v-7.6
			c0-0.9-0.2-1.6-0.5-2c-0.3-0.4-0.8-0.7-1.5-0.7c-0.4,0-0.9,0.1-1.3,0.4s-0.9,0.7-1.2,1.1c-0.4,0.5-0.6,1-0.8,1.5v7.2h-1.8V522
			c0-0.9-0.2-1.6-0.5-2c-0.3-0.4-0.8-0.6-1.5-0.6c-0.4,0-0.9,0.1-1.3,0.4c-0.5,0.3-0.9,0.7-1.2,1.1c-0.4,0.5-0.6,1-0.8,1.5v7.2
			H232.3z"/>
		<path class="st2" d="M251.7,532.3h-1.5l0.9-5.4h2.4L251.7,532.3z"/>
		<path class="st2" d="M261.6,529.7v-11.5h1.7l0.1,2.3c0.4-0.7,1-1.3,1.7-1.9s1.5-0.8,2.4-0.8c1.2,0,2.1,0.4,2.8,1.1
			c0.7,0.7,1,1.8,1,3.2v7.5h-1.9v-7.4c0-1-0.2-1.7-0.5-2.2c-0.3-0.5-0.9-0.7-1.7-0.7c-0.5,0-1,0.2-1.6,0.5s-1,0.8-1.4,1.3
			s-0.7,1.1-0.8,1.7v6.8H261.6z"/>
		<path class="st2" d="M273.3,523.7c0-1.1,0.2-2.1,0.7-3c0.4-0.9,1-1.6,1.8-2.1c0.8-0.5,1.7-0.7,2.7-0.7c1.5,0,2.7,0.5,3.6,1.5
			s1.3,2.5,1.3,4.4v0.8h-8.2c0.1,1.2,0.4,2.1,1,2.8c0.6,0.7,1.4,1.1,2.5,1.1c1.6,0,3-0.6,4.1-1.7v1.9c-0.5,0.4-1.1,0.7-1.7,1
			c-0.7,0.2-1.4,0.4-2.3,0.4c-1.1,0-2.1-0.2-2.9-0.7c-0.8-0.5-1.4-1.2-1.8-2.1c-0.4-0.9-0.6-1.9-0.6-3.1V523.7z M281.5,523.2
			c0-1.2-0.3-2.2-0.9-2.8s-1.3-0.9-2.2-0.9c-0.6,0-1.1,0.2-1.6,0.5c-0.5,0.3-0.9,0.7-1.2,1.3c-0.3,0.6-0.5,1.2-0.5,2H281.5z"/>
		<path class="st2" d="M287.6,529.7l-3.3-11.5h1.9l2.6,9.4l2.5-9.4h2.3l2.5,9.4l2.6-9.4h1.7l-3.3,11.5h-2.2l-2.6-9.5l-2.5,9.5
			L287.6,529.7z"/>
		<path class="st2" d="M301.1,519.7v-1.5h2.3v-1.1c0-0.7,0.1-1.3,0.4-1.9c0.3-0.6,0.7-1.1,1.2-1.4c0.5-0.4,1.2-0.5,2-0.5
			c0.5,0,1,0.1,1.4,0.3v1.6c-0.3-0.3-0.8-0.4-1.3-0.4c-0.6,0-1,0.2-1.4,0.6s-0.5,1-0.5,1.8v1.1h2.7v1.5h-2.7v10h-1.9v-10H301.1z"/>
		<path class="st2" d="M308.9,523.8c0-1.1,0.2-2.2,0.7-3.1c0.5-0.9,1.1-1.6,1.9-2.1c0.8-0.5,1.7-0.7,2.8-0.7c1.1,0,2,0.2,2.8,0.7
			c0.8,0.5,1.4,1.2,1.9,2.1c0.5,0.9,0.7,1.9,0.7,3.1v0.4c0,1.1-0.2,2.2-0.7,3.1c-0.5,0.9-1.1,1.6-1.9,2.1c-0.8,0.5-1.7,0.7-2.8,0.7
			c-1,0-2-0.2-2.8-0.7c-0.8-0.5-1.5-1.2-1.9-2.1c-0.5-0.9-0.7-1.9-0.7-3.1V523.8z M310.8,524.2c0,1.3,0.3,2.4,0.9,3.2
			s1.5,1.2,2.5,1.2c1.1,0,1.9-0.4,2.5-1.2s0.9-1.9,0.9-3.2v-0.4c0-1.3-0.3-2.4-0.9-3.2c-0.6-0.8-1.5-1.2-2.5-1.2
			c-1.1,0-1.9,0.4-2.5,1.2c-0.6,0.8-0.9,1.9-0.9,3.2V524.2z"/>
		<path class="st2" d="M321.7,518.3h1.8v7.4c0,1,0.2,1.7,0.5,2.2c0.3,0.5,0.9,0.7,1.7,0.7c0.5,0,1.1-0.2,1.6-0.5s1-0.8,1.4-1.3
			s0.7-1.1,0.8-1.7v-6.8h1.9v11.5h-1.7l-0.1-2.3c-0.4,0.7-1,1.3-1.7,1.9s-1.5,0.8-2.4,0.8c-1.2,0-2.1-0.4-2.8-1.1
			c-0.6-0.7-1-1.8-1-3.2V518.3z"/>
		<path class="st2" d="M334.4,529.7v-11.5h1.7l0.1,2.3c0.4-0.7,1-1.3,1.7-1.9s1.5-0.8,2.4-0.8c1.2,0,2.1,0.4,2.8,1.1
			c0.7,0.7,1,1.8,1,3.2v7.5h-1.9v-7.4c0-1-0.2-1.7-0.5-2.2c-0.3-0.5-0.9-0.7-1.7-0.7c-0.5,0-1,0.2-1.6,0.5s-1,0.8-1.4,1.3
			s-0.7,1.1-0.8,1.7v6.8H334.4z"/>
		<path class="st2" d="M346.7,520.8c0.4-0.9,1-1.6,1.8-2.1c0.8-0.5,1.6-0.7,2.6-0.7c0.7,0,1.4,0.2,2.1,0.6c0.7,0.4,1.2,0.9,1.6,1.5
			v-6.3h1.8v16.1h-1.7l-0.1-1.8c-0.4,0.6-0.9,1.1-1.6,1.5c-0.7,0.4-1.4,0.6-2.1,0.6c-1,0-1.8-0.2-2.6-0.7c-0.8-0.5-1.4-1.2-1.8-2.1
			c-0.4-0.9-0.7-2-0.7-3.2C346,522.8,346.3,521.7,346.7,520.8z M348.4,526.4c0.3,0.7,0.7,1.2,1.2,1.6c0.5,0.4,1.1,0.6,1.7,0.6
			c0.7,0,1.4-0.3,2-0.8c0.6-0.5,1.1-1.2,1.4-1.9v-3.7c-0.3-0.8-0.8-1.4-1.4-1.9c-0.6-0.5-1.3-0.8-2-0.8c-0.6,0-1.2,0.2-1.7,0.6
			c-0.5,0.4-0.9,0.9-1.2,1.6c-0.3,0.7-0.5,1.5-0.5,2.4C348,524.9,348.1,525.7,348.4,526.4z"/>
		<path class="st2" d="M364.6,526.8c0.9,1.1,2.1,1.7,3.6,1.7c0.8,0,1.4-0.2,1.8-0.5s0.7-0.7,0.7-1.3c0-0.4-0.1-0.7-0.3-1
			c-0.2-0.3-0.7-0.6-1.3-0.8l-1.6-0.6c-0.9-0.4-1.6-0.8-2.1-1.4s-0.7-1.2-0.7-1.9c0-0.6,0.1-1.1,0.5-1.5c0.3-0.5,0.7-0.8,1.3-1.1
			c0.6-0.3,1.3-0.4,2.1-0.4c0.7,0,1.3,0.1,2,0.4c0.6,0.3,1.1,0.6,1.6,0.9v2c-0.5-0.6-1.1-1-1.7-1.3c-0.6-0.3-1.2-0.4-1.8-0.4
			c-0.7,0-1.2,0.2-1.5,0.5c-0.3,0.3-0.5,0.7-0.5,1.1c0,0.4,0.1,0.7,0.4,0.9s0.7,0.5,1.4,0.8l1.5,0.6c1,0.4,1.6,0.9,2.1,1.4
			c0.4,0.5,0.7,1.2,0.7,2c0,1-0.4,1.9-1.2,2.5c-0.8,0.6-1.8,0.9-3.1,0.9c-0.8,0-1.5-0.1-2.1-0.4c-0.6-0.2-1.1-0.5-1.5-0.9V526.8z"/>
		<path class="st2" d="M374.9,534.3v-16.1h1.7l0.1,1.8c0.4-0.6,0.9-1.2,1.6-1.6c0.7-0.4,1.4-0.6,2.1-0.6c1,0,1.8,0.2,2.6,0.7
			c0.8,0.5,1.4,1.2,1.8,2.1c0.4,0.9,0.7,2,0.7,3.2c0,1.2-0.2,2.3-0.7,3.2s-1,1.6-1.8,2.1c-0.8,0.5-1.6,0.7-2.6,0.7
			c-0.7,0-1.4-0.2-2.1-0.6c-0.7-0.4-1.2-0.9-1.6-1.5v6.3H374.9z M376.7,525.8c0.3,0.8,0.7,1.4,1.4,2c0.6,0.5,1.3,0.8,2,0.8
			c0.6,0,1.2-0.2,1.7-0.6c0.5-0.4,0.9-0.9,1.2-1.6c0.3-0.7,0.5-1.5,0.5-2.4c0-0.9-0.1-1.7-0.4-2.4c-0.3-0.7-0.7-1.2-1.2-1.6
			s-1.1-0.6-1.7-0.6c-0.7,0-1.4,0.3-2,0.8c-0.6,0.5-1.1,1.2-1.4,2V525.8z"/>
		<path class="st2" d="M387.5,524.7c0.3-0.5,0.8-0.8,1.5-1.1s1.6-0.5,2.7-0.7l2.9-0.5c0-1-0.3-1.8-0.8-2.3c-0.5-0.5-1.2-0.7-2.3-0.7
			c-0.7,0-1.4,0.2-2.1,0.5s-1.2,0.8-1.6,1.3v-1.8c0.4-0.4,1-0.8,1.7-1c0.7-0.3,1.4-0.4,2.2-0.4c1.5,0,2.6,0.4,3.4,1.1
			c0.8,0.7,1.3,1.8,1.3,3.3v7.4h-1.4l-0.3-1.8c-0.5,0.7-1.2,1.2-1.9,1.5c-0.7,0.4-1.5,0.5-2.4,0.5c-1.1,0-1.9-0.3-2.6-0.9
			s-1-1.4-1-2.5C386.8,525.9,387,525.3,387.5,524.7z M389.2,528c0.4,0.3,0.8,0.5,1.4,0.5c0.7,0,1.4-0.2,2.2-0.7s1.3-1.1,1.7-1.8
			v-2.2l-1.9,0.4c-1.1,0.2-1.8,0.4-2.4,0.5c-0.5,0.2-0.9,0.4-1.2,0.7c-0.3,0.3-0.4,0.7-0.4,1.2C388.7,527.2,388.9,527.7,389.2,528z"
			/>
		<path class="st2" d="M398.4,523.8c0-1.1,0.2-2.1,0.7-3c0.5-0.9,1.1-1.6,2-2.1c0.9-0.5,1.8-0.7,2.9-0.7c0.6,0,1.2,0.1,1.8,0.3
			c0.6,0.2,1.1,0.5,1.5,0.9v2c-0.4-0.6-1-1-1.5-1.3s-1.2-0.4-1.8-0.4c-0.7,0-1.3,0.2-1.9,0.5c-0.6,0.4-1,0.9-1.3,1.5
			c-0.3,0.7-0.5,1.4-0.5,2.2v0.4c0,0.9,0.2,1.6,0.5,2.3c0.3,0.7,0.8,1.2,1.3,1.6c0.6,0.4,1.2,0.6,1.8,0.6c1.3,0,2.4-0.6,3.4-1.7v1.9
			c-0.4,0.4-0.9,0.7-1.5,0.9c-0.6,0.2-1.2,0.4-1.9,0.4c-1.1,0-2-0.3-2.9-0.8s-1.5-1.2-2-2.1c-0.5-0.9-0.7-1.9-0.7-3V523.8z"/>
		<path class="st2" d="M408.9,523.7c0-1.1,0.2-2.1,0.7-3c0.4-0.9,1-1.6,1.8-2.1c0.8-0.5,1.7-0.7,2.7-0.7c1.5,0,2.7,0.5,3.6,1.5
			s1.3,2.5,1.3,4.4v0.8h-8.2c0.1,1.2,0.4,2.1,1,2.8c0.6,0.7,1.4,1.1,2.5,1.1c1.6,0,3-0.6,4.1-1.7v1.9c-0.5,0.4-1.1,0.7-1.7,1
			c-0.7,0.2-1.4,0.4-2.3,0.4c-1.1,0-2.1-0.2-2.9-0.7c-0.8-0.5-1.4-1.2-1.8-2.1c-0.4-0.9-0.6-1.9-0.6-3.1V523.7z M417.1,523.2
			c0-1.2-0.3-2.2-0.9-2.8s-1.3-0.9-2.2-0.9c-0.6,0-1.1,0.2-1.6,0.5c-0.5,0.3-0.9,0.7-1.2,1.3c-0.3,0.6-0.5,1.2-0.5,2H417.1z"/>
		<path class="st2" d="M421.7,532.3h-1.5l0.9-5.4h2.4L421.7,532.3z"/>
		<path class="st2" d="M431.4,520.7c0.4-0.9,1-1.5,1.8-2c0.8-0.5,1.6-0.7,2.6-0.7c0.7,0,1.4,0.2,2.1,0.6c0.6,0.4,1.2,0.9,1.6,1.5
			l0.1-1.7h1.7v11c0,1.1-0.2,2-0.7,2.8c-0.4,0.8-1.1,1.4-2,1.8c-0.9,0.4-1.9,0.7-3.1,0.7c-0.8,0-1.5-0.1-2-0.3
			c-0.6-0.2-1.1-0.4-1.6-0.8v-1.8c1.1,0.9,2.3,1.3,3.7,1.3c1.2,0,2.1-0.3,2.8-1c0.7-0.6,1-1.6,1-2.8v-1.8c-0.4,0.6-0.9,1.1-1.6,1.4
			c-0.6,0.4-1.3,0.5-2,0.5c-1,0-1.8-0.2-2.6-0.7c-0.8-0.5-1.3-1.1-1.8-2c-0.4-0.9-0.6-1.9-0.6-3.1
			C430.8,522.5,431,521.5,431.4,520.7z M433.1,526c0.3,0.6,0.7,1.1,1.2,1.5s1.1,0.5,1.7,0.5c0.7,0,1.4-0.2,2-0.7
			c0.6-0.5,1.1-1.1,1.4-1.9v-3.3c-0.3-0.8-0.7-1.4-1.4-1.9c-0.6-0.5-1.3-0.8-2-0.8c-0.6,0-1.2,0.2-1.7,0.5s-0.9,0.8-1.2,1.5
			c-0.3,0.6-0.4,1.4-0.4,2.3S432.8,525.3,433.1,526z"/>
		<path class="st2" d="M444.3,529.7v-11.5h1.7l0.1,2c0.3-0.7,0.8-1.3,1.4-1.7s1.3-0.6,2.1-0.6c0.2,0,0.4,0,0.6,0s0.4,0.1,0.5,0.1
			v1.6c-0.3-0.1-0.7-0.2-1.2-0.2c-0.7,0-1.4,0.2-2,0.7c-0.6,0.5-1,1.1-1.3,2v7.5H444.3z"/>
		<path class="st2" d="M451.4,523.8c0-1.1,0.2-2.2,0.7-3.1c0.5-0.9,1.1-1.6,1.9-2.1c0.8-0.5,1.7-0.7,2.8-0.7c1.1,0,2,0.2,2.8,0.7
			c0.8,0.5,1.4,1.2,1.9,2.1c0.5,0.9,0.7,1.9,0.7,3.1v0.4c0,1.1-0.2,2.2-0.7,3.1c-0.5,0.9-1.1,1.6-1.9,2.1c-0.8,0.5-1.7,0.7-2.8,0.7
			c-1,0-2-0.2-2.8-0.7c-0.8-0.5-1.5-1.2-1.9-2.1c-0.5-0.9-0.7-1.9-0.7-3.1V523.8z M453.3,524.2c0,1.3,0.3,2.4,0.9,3.2
			s1.5,1.2,2.5,1.2c1.1,0,1.9-0.4,2.5-1.2s0.9-1.9,0.9-3.2v-0.4c0-1.3-0.3-2.4-0.9-3.2c-0.6-0.8-1.5-1.2-2.5-1.2
			c-1.1,0-1.9,0.4-2.5,1.2c-0.6,0.8-0.9,1.9-0.9,3.2V524.2z"/>
		<path class="st2" d="M464.1,518.3h1.8v7.4c0,1,0.2,1.7,0.5,2.2c0.3,0.5,0.9,0.7,1.7,0.7c0.5,0,1.1-0.2,1.6-0.5s1-0.8,1.4-1.3
			s0.7-1.1,0.8-1.7v-6.8h1.9v11.5h-1.7l-0.1-2.3c-0.4,0.7-1,1.3-1.7,1.9s-1.5,0.8-2.4,0.8c-1.2,0-2.1-0.4-2.8-1.1
			c-0.6-0.7-1-1.8-1-3.2V518.3z"/>
		<path class="st2" d="M476.8,529.7v-11.5h1.7l0.1,2.3c0.4-0.7,1-1.3,1.7-1.9s1.5-0.8,2.4-0.8c1.2,0,2.1,0.4,2.8,1.1
			c0.7,0.7,1,1.8,1,3.2v7.5h-1.9v-7.4c0-1-0.2-1.7-0.5-2.2c-0.3-0.5-0.9-0.7-1.7-0.7c-0.5,0-1,0.2-1.6,0.5s-1,0.8-1.4,1.3
			s-0.7,1.1-0.8,1.7v6.8H476.8z"/>
		<path class="st2" d="M489.2,520.8c0.4-0.9,1-1.6,1.8-2.1c0.8-0.5,1.6-0.7,2.6-0.7c0.7,0,1.4,0.2,2.1,0.6c0.7,0.4,1.2,0.9,1.6,1.5
			v-6.3h1.8v16.1h-1.7l-0.1-1.8c-0.4,0.6-0.9,1.1-1.6,1.5c-0.7,0.4-1.4,0.6-2.1,0.6c-1,0-1.8-0.2-2.6-0.7c-0.8-0.5-1.4-1.2-1.8-2.1
			c-0.4-0.9-0.7-2-0.7-3.2C488.5,522.8,488.7,521.7,489.2,520.8z M490.9,526.4c0.3,0.7,0.7,1.2,1.2,1.6c0.5,0.4,1.1,0.6,1.7,0.6
			c0.7,0,1.4-0.3,2-0.8c0.6-0.5,1.1-1.2,1.4-1.9v-3.7c-0.3-0.8-0.8-1.4-1.4-1.9c-0.6-0.5-1.3-0.8-2-0.8c-0.6,0-1.2,0.2-1.7,0.6
			c-0.5,0.4-0.9,0.9-1.2,1.6c-0.3,0.7-0.5,1.5-0.5,2.4C490.4,524.9,490.6,525.7,490.9,526.4z"/>
		<path class="st2" d="M502.1,529.7v-16.1h1.8v6.3c0.4-0.6,1-1.1,1.6-1.5c0.7-0.4,1.3-0.6,2.1-0.6c1,0,1.8,0.2,2.6,0.7
			c0.8,0.5,1.4,1.2,1.8,2.1c0.4,0.9,0.7,2,0.7,3.2c0,1.2-0.2,2.3-0.7,3.2s-1,1.6-1.8,2.1c-0.8,0.5-1.6,0.7-2.6,0.7
			c-0.8,0-1.5-0.2-2.1-0.6c-0.7-0.4-1.2-0.9-1.6-1.5l-0.1,1.8H502.1z M504,525.9c0.3,0.8,0.8,1.4,1.4,1.9c0.6,0.5,1.3,0.8,2,0.8
			c0.6,0,1.2-0.2,1.7-0.6s0.9-0.9,1.2-1.6c0.3-0.7,0.4-1.5,0.4-2.4c0-0.9-0.2-1.7-0.5-2.4c-0.3-0.7-0.7-1.2-1.2-1.6
			s-1.1-0.6-1.7-0.6c-0.7,0-1.4,0.3-2,0.8s-1.1,1.2-1.4,1.9V525.9z"/>
		<path class="st2" d="M514.9,529.7v-11.5h1.7l0.1,2c0.3-0.7,0.8-1.3,1.4-1.7s1.3-0.6,2.1-0.6c0.2,0,0.4,0,0.6,0s0.4,0.1,0.5,0.1
			v1.6c-0.3-0.1-0.7-0.2-1.2-0.2c-0.7,0-1.4,0.2-2,0.7c-0.6,0.5-1,1.1-1.3,2v7.5H514.9z"/>
		<path class="st2" d="M522,523.7c0-1.1,0.2-2.1,0.7-3c0.4-0.9,1-1.6,1.8-2.1c0.8-0.5,1.7-0.7,2.7-0.7c1.5,0,2.7,0.5,3.6,1.5
			s1.3,2.5,1.3,4.4v0.8h-8.2c0.1,1.2,0.4,2.1,1,2.8c0.6,0.7,1.4,1.1,2.5,1.1c1.6,0,3-0.6,4.1-1.7v1.9c-0.5,0.4-1.1,0.7-1.7,1
			c-0.7,0.2-1.4,0.4-2.3,0.4c-1.1,0-2.1-0.2-2.9-0.7c-0.8-0.5-1.4-1.2-1.8-2.1c-0.4-0.9-0.6-1.9-0.6-3.1V523.7z M530.2,523.2
			c0-1.2-0.3-2.2-0.9-2.8s-1.3-0.9-2.2-0.9c-0.6,0-1.1,0.2-1.6,0.5c-0.5,0.3-0.9,0.7-1.2,1.3c-0.3,0.6-0.5,1.2-0.5,2H530.2z"/>
		<path class="st2" d="M534.1,524.7c0.3-0.5,0.8-0.8,1.5-1.1s1.6-0.5,2.7-0.7l2.9-0.5c0-1-0.3-1.8-0.8-2.3c-0.5-0.5-1.2-0.7-2.3-0.7
			c-0.7,0-1.4,0.2-2.1,0.5s-1.2,0.8-1.6,1.3v-1.8c0.4-0.4,1-0.8,1.7-1c0.7-0.3,1.4-0.4,2.2-0.4c1.5,0,2.6,0.4,3.4,1.1
			c0.8,0.7,1.3,1.8,1.3,3.3v7.4h-1.4l-0.3-1.8c-0.5,0.7-1.2,1.2-1.9,1.5c-0.7,0.4-1.5,0.5-2.4,0.5c-1.1,0-1.9-0.3-2.6-0.9
			s-1-1.4-1-2.5C533.5,525.9,533.7,525.3,534.1,524.7z M535.9,528c0.4,0.3,0.8,0.5,1.4,0.5c0.7,0,1.4-0.2,2.2-0.7s1.3-1.1,1.7-1.8
			v-2.2l-1.9,0.4c-1.1,0.2-1.8,0.4-2.4,0.5c-0.5,0.2-0.9,0.4-1.2,0.7c-0.3,0.3-0.4,0.7-0.4,1.2C535.4,527.2,535.6,527.7,535.9,528z"
			/>
		<path class="st2" d="M547.8,529.7l-1.8,0v-16.1h1.8v9.7l5.3-5.1h2.3l-5.8,5.6l6.3,5.9h-2.6l-5.5-5.3V529.7z"/>
		<path class="st2" d="M559.3,516.4h-1.8V514h1.8V516.4z M559.3,529.7h-1.8v-11.5h1.8V529.7z"/>
		<path class="st2" d="M562.3,529.7v-11.5h1.7l0.1,2.3c0.4-0.7,1-1.3,1.7-1.9s1.5-0.8,2.4-0.8c1.2,0,2.1,0.4,2.8,1.1
			c0.7,0.7,1,1.8,1,3.2v7.5h-1.9v-7.4c0-1-0.2-1.7-0.5-2.2c-0.3-0.5-0.9-0.7-1.7-0.7c-0.5,0-1,0.2-1.6,0.5s-1,0.8-1.4,1.3
			s-0.7,1.1-0.8,1.7v6.8H562.3z"/>
		<path class="st2" d="M574.6,520.7c0.4-0.9,1-1.5,1.8-2c0.8-0.5,1.6-0.7,2.6-0.7c0.7,0,1.4,0.2,2.1,0.6c0.6,0.4,1.2,0.9,1.6,1.5
			l0.1-1.7h1.7v11c0,1.1-0.2,2-0.7,2.8c-0.4,0.8-1.1,1.4-2,1.8c-0.9,0.4-1.9,0.7-3.1,0.7c-0.8,0-1.5-0.1-2-0.3
			c-0.6-0.2-1.1-0.4-1.6-0.8v-1.8c1.1,0.9,2.3,1.3,3.7,1.3c1.2,0,2.1-0.3,2.8-1c0.7-0.6,1-1.6,1-2.8v-1.8c-0.4,0.6-0.9,1.1-1.6,1.4
			c-0.6,0.4-1.3,0.5-2,0.5c-1,0-1.8-0.2-2.6-0.7c-0.8-0.5-1.3-1.1-1.8-2c-0.4-0.9-0.6-1.9-0.6-3.1
			C574,522.5,574.2,521.5,574.6,520.7z M576.3,526c0.3,0.6,0.7,1.1,1.2,1.5s1.1,0.5,1.7,0.5c0.7,0,1.4-0.2,2-0.7
			c0.6-0.5,1.1-1.1,1.4-1.9v-3.3c-0.3-0.8-0.7-1.4-1.4-1.9c-0.6-0.5-1.3-0.8-2-0.8c-0.6,0-1.2,0.2-1.7,0.5s-0.9,0.8-1.2,1.5
			c-0.3,0.6-0.4,1.4-0.4,2.3S576,525.3,576.3,526z"/>
		<path class="st2" d="M594.8,516.4h-1.8V514h1.8V516.4z M594.8,529.7h-1.8v-11.5h1.8V529.7z"/>
		<path class="st2" d="M597.8,529.7v-11.5h1.7l0.1,2.3c0.4-0.7,1-1.3,1.7-1.9s1.5-0.8,2.4-0.8c1.2,0,2.1,0.4,2.8,1.1
			c0.7,0.7,1,1.8,1,3.2v7.5h-1.9v-7.4c0-1-0.2-1.7-0.5-2.2c-0.3-0.5-0.9-0.7-1.7-0.7c-0.5,0-1,0.2-1.6,0.5s-1,0.8-1.4,1.3
			s-0.7,1.1-0.8,1.7v6.8H597.8z"/>
		<path class="st2" d="M610.3,529.7v-11.5h1.7l0.1,2.3c0.4-0.7,1-1.3,1.7-1.9s1.5-0.8,2.4-0.8c1.2,0,2.1,0.4,2.8,1.1
			c0.7,0.7,1,1.8,1,3.2v7.5h-1.9v-7.4c0-1-0.2-1.7-0.5-2.2c-0.3-0.5-0.9-0.7-1.7-0.7c-0.5,0-1,0.2-1.6,0.5s-1,0.8-1.4,1.3
			s-0.7,1.1-0.8,1.7v6.8H610.3z"/>
		<path class="st2" d="M621.9,523.8c0-1.1,0.2-2.2,0.7-3.1c0.5-0.9,1.1-1.6,1.9-2.1c0.8-0.5,1.7-0.7,2.8-0.7c1.1,0,2,0.2,2.8,0.7
			c0.8,0.5,1.4,1.2,1.9,2.1c0.5,0.9,0.7,1.9,0.7,3.1v0.4c0,1.1-0.2,2.2-0.7,3.1c-0.5,0.9-1.1,1.6-1.9,2.1c-0.8,0.5-1.7,0.7-2.8,0.7
			c-1,0-2-0.2-2.8-0.7c-0.8-0.5-1.5-1.2-1.9-2.1c-0.5-0.9-0.7-1.9-0.7-3.1V523.8z M623.9,524.2c0,1.3,0.3,2.4,0.9,3.2
			s1.5,1.2,2.5,1.2c1.1,0,1.9-0.4,2.5-1.2s0.9-1.9,0.9-3.2v-0.4c0-1.3-0.3-2.4-0.9-3.2c-0.6-0.8-1.5-1.2-2.5-1.2
			c-1.1,0-1.9,0.4-2.5,1.2c-0.6,0.8-0.9,1.9-0.9,3.2V524.2z"/>
		<path class="st2" d="M637.8,529.7l-4.4-11.5h2l3.5,9.5l3.5-9.5h1.8l-4.4,11.5H637.8z"/>
		<path class="st2" d="M645.7,524.7c0.3-0.5,0.8-0.8,1.5-1.1s1.6-0.5,2.7-0.7l2.9-0.5c0-1-0.3-1.8-0.8-2.3c-0.5-0.5-1.2-0.7-2.3-0.7
			c-0.7,0-1.4,0.2-2.1,0.5s-1.2,0.8-1.6,1.3v-1.8c0.4-0.4,1-0.8,1.7-1c0.7-0.3,1.4-0.4,2.2-0.4c1.5,0,2.6,0.4,3.4,1.1
			c0.8,0.7,1.3,1.8,1.3,3.3v7.4h-1.4l-0.3-1.8c-0.5,0.7-1.2,1.2-1.9,1.5c-0.7,0.4-1.5,0.5-2.4,0.5c-1.1,0-1.9-0.3-2.6-0.9
			s-1-1.4-1-2.5C645.1,525.9,645.3,525.3,645.7,524.7z M647.5,528c0.4,0.3,0.8,0.5,1.4,0.5c0.7,0,1.4-0.2,2.2-0.7s1.3-1.1,1.7-1.8
			v-2.2l-1.9,0.4c-1.1,0.2-1.8,0.4-2.4,0.5c-0.5,0.2-0.9,0.4-1.2,0.7c-0.3,0.3-0.4,0.7-0.4,1.2C647,527.2,647.2,527.7,647.5,528z"/>
		<path class="st2" d="M658.6,519.7h-2.5v-1.5h2.5v-3.5h1.8v3.5h2.5v1.5h-2.5v10h-1.8V519.7z"/>
		<path class="st2" d="M666.5,516.4h-1.8V514h1.8V516.4z M666.5,529.7h-1.8v-11.5h1.8V529.7z"/>
		<path class="st2" d="M668.7,523.8c0-1.1,0.2-2.2,0.7-3.1c0.5-0.9,1.1-1.6,1.9-2.1c0.8-0.5,1.7-0.7,2.8-0.7c1.1,0,2,0.2,2.8,0.7
			c0.8,0.5,1.4,1.2,1.9,2.1c0.5,0.9,0.7,1.9,0.7,3.1v0.4c0,1.1-0.2,2.2-0.7,3.1c-0.5,0.9-1.1,1.6-1.9,2.1c-0.8,0.5-1.7,0.7-2.8,0.7
			c-1,0-2-0.2-2.8-0.7c-0.8-0.5-1.5-1.2-1.9-2.1c-0.5-0.9-0.7-1.9-0.7-3.1V523.8z M670.7,524.2c0,1.3,0.3,2.4,0.9,3.2
			s1.5,1.2,2.5,1.2c1.1,0,1.9-0.4,2.5-1.2s0.9-1.9,0.9-3.2v-0.4c0-1.3-0.3-2.4-0.9-3.2c-0.6-0.8-1.5-1.2-2.5-1.2
			c-1.1,0-1.9,0.4-2.5,1.2c-0.6,0.8-0.9,1.9-0.9,3.2V524.2z"/>
		<path class="st2" d="M681.7,529.7v-11.5h1.7l0.1,2.3c0.4-0.7,1-1.3,1.7-1.9s1.5-0.8,2.4-0.8c1.2,0,2.1,0.4,2.8,1.1
			c0.7,0.7,1,1.8,1,3.2v7.5h-1.9v-7.4c0-1-0.2-1.7-0.5-2.2c-0.3-0.5-0.9-0.7-1.7-0.7c-0.5,0-1,0.2-1.6,0.5s-1,0.8-1.4,1.3
			s-0.7,1.1-0.8,1.7v6.8H681.7z"/>
		<path class="st2" d="M696.2,529.7h-2.4V527h2.4V529.7z"/>
	</g>
	<g>
		<path class="st2" d="M72.3,564.7h-2l6-16h1.9l6,16h-2.1l-1.7-4.6H74L72.3,564.7z M77.2,551.3l-2.7,7.2h5.4L77.2,551.3z"/>
		<path class="st2" d="M91.4,564.7v-11.5h1.7l0.1,2.3c0.4-0.7,1-1.3,1.7-1.9s1.5-0.8,2.4-0.8c1.2,0,2.1,0.4,2.8,1.1
			c0.7,0.7,1,1.8,1,3.2v7.5h-1.9v-7.4c0-1-0.2-1.7-0.5-2.2c-0.3-0.5-0.9-0.7-1.7-0.7c-0.5,0-1,0.2-1.6,0.5s-1,0.8-1.4,1.3
			s-0.7,1.1-0.8,1.7v6.8H91.4z"/>
		<path class="st2" d="M103.1,558.7c0-1.1,0.2-2.1,0.7-3c0.4-0.9,1-1.6,1.8-2.1c0.8-0.5,1.7-0.7,2.7-0.7c1.5,0,2.7,0.5,3.6,1.5
			s1.3,2.5,1.3,4.4v0.8h-8.2c0.1,1.2,0.4,2.1,1,2.8c0.6,0.7,1.4,1.1,2.5,1.1c1.6,0,3-0.6,4.1-1.7v1.9c-0.5,0.4-1.1,0.7-1.7,1
			c-0.7,0.2-1.4,0.4-2.3,0.4c-1.1,0-2.1-0.2-2.9-0.7c-0.8-0.5-1.4-1.2-1.8-2.1c-0.4-0.9-0.6-1.9-0.6-3.1V558.7z M111.3,558.2
			c0-1.2-0.3-2.2-0.9-2.8s-1.3-0.9-2.2-0.9c-0.6,0-1.1,0.2-1.6,0.5c-0.5,0.3-0.9,0.7-1.2,1.3c-0.3,0.6-0.5,1.2-0.5,2H111.3z"/>
		<path class="st2" d="M117.4,564.8l-3.3-11.5h1.9l2.6,9.4l2.5-9.4h2.3l2.5,9.4l2.6-9.4h1.7l-3.3,11.5h-2.2l-2.6-9.5l-2.5,9.5
			L117.4,564.8z"/>
		<path class="st2" d="M136.5,558.8c0-1.1,0.2-2.1,0.7-3c0.5-0.9,1.1-1.6,2-2.1c0.9-0.5,1.8-0.7,2.9-0.7c0.6,0,1.2,0.1,1.8,0.3
			c0.6,0.2,1.1,0.5,1.5,0.9v2c-0.4-0.6-1-1-1.5-1.3s-1.2-0.4-1.8-0.4c-0.7,0-1.3,0.2-1.9,0.5c-0.6,0.4-1,0.9-1.3,1.5
			c-0.3,0.7-0.5,1.4-0.5,2.2v0.4c0,0.9,0.2,1.6,0.5,2.3c0.3,0.7,0.8,1.2,1.3,1.6c0.6,0.4,1.2,0.6,1.8,0.6c1.3,0,2.4-0.6,3.4-1.7v1.9
			c-0.4,0.4-0.9,0.7-1.5,0.9c-0.6,0.2-1.2,0.4-1.9,0.4c-1.1,0-2-0.3-2.9-0.8s-1.5-1.2-2-2.1c-0.5-0.9-0.7-1.9-0.7-3V558.8z"/>
		<path class="st2" d="M147.8,564.7v-16.1h1.8v6.9c0.4-0.7,1-1.3,1.7-1.8c0.7-0.5,1.5-0.8,2.4-0.8c1.2,0,2.1,0.4,2.8,1.1
			c0.6,0.7,1,1.8,1,3.2v7.5h-1.8v-7.4c0-1-0.2-1.7-0.5-2.2c-0.3-0.5-0.9-0.7-1.7-0.7c-0.5,0-1,0.2-1.6,0.5c-0.5,0.3-1,0.7-1.4,1.3
			s-0.7,1.1-0.8,1.7v6.8H147.8z"/>
		<path class="st2" d="M160.2,559.7c0.3-0.5,0.8-0.8,1.5-1.1s1.6-0.5,2.7-0.7l2.9-0.5c0-1-0.3-1.8-0.8-2.3c-0.5-0.5-1.2-0.7-2.3-0.7
			c-0.7,0-1.4,0.2-2.1,0.5s-1.2,0.8-1.6,1.3v-1.8c0.4-0.4,1-0.8,1.7-1c0.7-0.3,1.4-0.4,2.2-0.4c1.5,0,2.6,0.4,3.4,1.1
			c0.8,0.7,1.3,1.8,1.3,3.3v7.4h-1.4l-0.3-1.8c-0.5,0.7-1.2,1.2-1.9,1.5c-0.7,0.4-1.5,0.5-2.4,0.5c-1.1,0-1.9-0.3-2.6-0.9
			s-1-1.4-1-2.5C159.5,560.9,159.7,560.3,160.2,559.7z M161.9,563c0.4,0.3,0.8,0.5,1.4,0.5c0.7,0,1.4-0.2,2.2-0.7s1.3-1.1,1.7-1.8
			v-2.2l-1.9,0.4c-1.1,0.2-1.8,0.4-2.4,0.5c-0.5,0.2-0.9,0.4-1.2,0.7c-0.3,0.3-0.4,0.7-0.4,1.2C161.4,562.2,161.6,562.7,161.9,563z"
			/>
		<path class="st2" d="M172,569.4v-16.1h1.7l0.1,1.8c0.4-0.6,0.9-1.2,1.6-1.6c0.7-0.4,1.4-0.6,2.1-0.6c1,0,1.8,0.2,2.6,0.7
			c0.8,0.5,1.4,1.2,1.8,2.1c0.4,0.9,0.7,2,0.7,3.2c0,1.2-0.2,2.3-0.7,3.2s-1,1.6-1.8,2.1c-0.8,0.5-1.6,0.7-2.6,0.7
			c-0.7,0-1.4-0.2-2.1-0.6c-0.7-0.4-1.2-0.9-1.6-1.5v6.3H172z M173.8,560.8c0.3,0.8,0.7,1.4,1.4,2c0.6,0.5,1.3,0.8,2,0.8
			c0.6,0,1.2-0.2,1.7-0.6c0.5-0.4,0.9-0.9,1.2-1.6c0.3-0.7,0.5-1.5,0.5-2.4c0-0.9-0.1-1.7-0.4-2.4c-0.3-0.7-0.7-1.2-1.2-1.6
			s-1.1-0.6-1.7-0.6c-0.7,0-1.4,0.3-2,0.8c-0.6,0.5-1.1,1.2-1.4,2V560.8z"/>
		<path class="st2" d="M185.9,554.8h-2.5v-1.5h2.5v-3.5h1.8v3.5h2.5v1.5h-2.5v10h-1.8V554.8z"/>
		<path class="st2" d="M191.1,558.7c0-1.1,0.2-2.1,0.7-3c0.4-0.9,1-1.6,1.8-2.1c0.8-0.5,1.7-0.7,2.7-0.7c1.5,0,2.7,0.5,3.6,1.5
			s1.3,2.5,1.3,4.4v0.8h-8.2c0.1,1.2,0.4,2.1,1,2.8c0.6,0.7,1.4,1.1,2.5,1.1c1.6,0,3-0.6,4.1-1.7v1.9c-0.5,0.4-1.1,0.7-1.7,1
			c-0.7,0.2-1.4,0.4-2.3,0.4c-1.1,0-2.1-0.2-2.9-0.7c-0.8-0.5-1.4-1.2-1.8-2.1c-0.4-0.9-0.6-1.9-0.6-3.1V558.7z M199.3,558.2
			c0-1.2-0.3-2.2-0.9-2.8s-1.3-0.9-2.2-0.9c-0.6,0-1.1,0.2-1.6,0.5c-0.5,0.3-0.9,0.7-1.2,1.3c-0.3,0.6-0.5,1.2-0.5,2H199.3z"/>
		<path class="st2" d="M203.4,564.7v-11.5h1.7l0.1,2c0.3-0.7,0.8-1.3,1.4-1.7s1.3-0.6,2.1-0.6c0.2,0,0.4,0,0.6,0s0.4,0.1,0.5,0.1
			v1.6c-0.3-0.1-0.7-0.2-1.2-0.2c-0.7,0-1.4,0.2-2,0.7c-0.6,0.5-1,1.1-1.3,2v7.5H203.4z"/>
		<path class="st2" d="M218.7,551.4h-1.8V549h1.8V551.4z M218.7,564.7h-1.8v-11.5h1.8V564.7z"/>
		<path class="st2" d="M221.7,564.7v-11.5h1.7l0.1,2.3c0.4-0.7,1-1.3,1.7-1.9s1.5-0.8,2.4-0.8c1.2,0,2.1,0.4,2.8,1.1
			c0.7,0.7,1,1.8,1,3.2v7.5h-1.9v-7.4c0-1-0.2-1.7-0.5-2.2c-0.3-0.5-0.9-0.7-1.7-0.7c-0.5,0-1,0.2-1.6,0.5s-1,0.8-1.4,1.3
			s-0.7,1.1-0.8,1.7v6.8H221.7z"/>
		<path class="st2" d="M241.5,564.7h-1.8v-16.1h1.8V564.7z"/>
		<path class="st2" d="M246.4,551.4h-1.8V549h1.8V551.4z M246.4,564.7h-1.8v-11.5h1.8V564.7z"/>
		<path class="st2" d="M248,554.8v-1.5h2.3v-1.1c0-0.7,0.1-1.3,0.4-1.9c0.3-0.6,0.7-1.1,1.2-1.4c0.5-0.4,1.2-0.5,2-0.5
			c0.5,0,1,0.1,1.4,0.3v1.6c-0.3-0.3-0.8-0.4-1.3-0.4c-0.6,0-1,0.2-1.4,0.6s-0.5,1-0.5,1.8v1.1h2.7v1.5h-2.7v10h-1.9v-10H248z"/>
		<path class="st2" d="M255.8,558.7c0-1.1,0.2-2.1,0.7-3c0.4-0.9,1-1.6,1.8-2.1c0.8-0.5,1.7-0.7,2.7-0.7c1.5,0,2.7,0.5,3.6,1.5
			s1.3,2.5,1.3,4.4v0.8h-8.2c0.1,1.2,0.4,2.1,1,2.8c0.6,0.7,1.4,1.1,2.5,1.1c1.6,0,3-0.6,4.1-1.7v1.9c-0.5,0.4-1.1,0.7-1.7,1
			c-0.7,0.2-1.4,0.4-2.3,0.4c-1.1,0-2.1-0.2-2.9-0.7c-0.8-0.5-1.4-1.2-1.8-2.1c-0.4-0.9-0.6-1.9-0.6-3.1V558.7z M264.1,558.2
			c0-1.2-0.3-2.2-0.9-2.8s-1.3-0.9-2.2-0.9c-0.6,0-1.1,0.2-1.6,0.5c-0.5,0.3-0.9,0.7-1.2,1.3c-0.3,0.6-0.5,1.2-0.5,2H264.1z"/>
		<path class="st2" d="M267.8,554.1l-0.4-5.3h2.1l-0.4,5.3H267.8z"/>
		<path class="st2" d="M271.6,561.8c0.9,1.1,2.1,1.7,3.6,1.7c0.8,0,1.4-0.2,1.8-0.5s0.7-0.7,0.7-1.3c0-0.4-0.1-0.7-0.3-1
			c-0.2-0.3-0.7-0.6-1.3-0.8l-1.6-0.6c-0.9-0.4-1.6-0.8-2.1-1.4s-0.7-1.2-0.7-1.9c0-0.6,0.1-1.1,0.5-1.5c0.3-0.5,0.7-0.8,1.3-1.1
			c0.6-0.3,1.3-0.4,2.1-0.4c0.7,0,1.3,0.1,2,0.4c0.6,0.3,1.1,0.6,1.6,0.9v2c-0.5-0.6-1.1-1-1.7-1.3c-0.6-0.3-1.2-0.4-1.8-0.4
			c-0.7,0-1.2,0.2-1.5,0.5c-0.3,0.3-0.5,0.7-0.5,1.1c0,0.4,0.1,0.7,0.4,0.9s0.7,0.5,1.4,0.8l1.5,0.6c1,0.4,1.6,0.9,2.1,1.4
			c0.4,0.5,0.7,1.2,0.7,2c0,1-0.4,1.9-1.2,2.5c-0.8,0.6-1.8,0.9-3.1,0.9c-0.8,0-1.5-0.1-2.1-0.4c-0.6-0.2-1.1-0.5-1.5-0.9V561.8z"/>
		<path class="st2" d="M286.8,561.8c0.9,1.1,2.1,1.7,3.6,1.7c0.8,0,1.4-0.2,1.8-0.5s0.7-0.7,0.7-1.3c0-0.4-0.1-0.7-0.3-1
			c-0.2-0.3-0.7-0.6-1.3-0.8l-1.6-0.6c-0.9-0.4-1.6-0.8-2.1-1.4s-0.7-1.2-0.7-1.9c0-0.6,0.1-1.1,0.5-1.5c0.3-0.5,0.7-0.8,1.3-1.1
			c0.6-0.3,1.3-0.4,2.1-0.4c0.7,0,1.3,0.1,2,0.4c0.6,0.3,1.1,0.6,1.6,0.9v2c-0.5-0.6-1.1-1-1.7-1.3c-0.6-0.3-1.2-0.4-1.8-0.4
			c-0.7,0-1.2,0.2-1.5,0.5c-0.3,0.3-0.5,0.7-0.5,1.1c0,0.4,0.1,0.7,0.4,0.9s0.7,0.5,1.4,0.8l1.5,0.6c1,0.4,1.6,0.9,2.1,1.4
			c0.4,0.5,0.7,1.2,0.7,2c0,1-0.4,1.9-1.2,2.5c-0.8,0.6-1.8,0.9-3.1,0.9c-0.8,0-1.5-0.1-2.1-0.4c-0.6-0.2-1.1-0.5-1.5-0.9V561.8z"/>
		<path class="st2" d="M298.1,554.8h-2.5v-1.5h2.5v-3.5h1.8v3.5h2.5v1.5H300v10h-1.8V554.8z"/>
		<path class="st2" d="M303.2,558.8c0-1.1,0.2-2.2,0.7-3.1c0.5-0.9,1.1-1.6,1.9-2.1c0.8-0.5,1.7-0.7,2.8-0.7c1.1,0,2,0.2,2.8,0.7
			c0.8,0.5,1.4,1.2,1.9,2.1c0.5,0.9,0.7,1.9,0.7,3.1v0.4c0,1.1-0.2,2.2-0.7,3.1c-0.5,0.9-1.1,1.6-1.9,2.1c-0.8,0.5-1.7,0.7-2.8,0.7
			c-1,0-2-0.2-2.8-0.7c-0.8-0.5-1.5-1.2-1.9-2.1c-0.5-0.9-0.7-1.9-0.7-3.1V558.8z M305.2,559.2c0,1.3,0.3,2.4,0.9,3.2
			s1.5,1.2,2.5,1.2c1.1,0,1.9-0.4,2.5-1.2s0.9-1.9,0.9-3.2v-0.4c0-1.3-0.3-2.4-0.9-3.2c-0.6-0.8-1.5-1.2-2.5-1.2
			c-1.1,0-1.9,0.4-2.5,1.2c-0.6,0.8-0.9,1.9-0.9,3.2V559.2z"/>
		<path class="st2" d="M316.2,564.7v-11.5h1.7l0.1,2c0.3-0.7,0.8-1.3,1.4-1.7s1.3-0.6,2.1-0.6c0.2,0,0.4,0,0.6,0s0.4,0.1,0.5,0.1
			v1.6c-0.3-0.1-0.7-0.2-1.2-0.2c-0.7,0-1.4,0.2-2,0.7c-0.6,0.5-1,1.1-1.3,2v7.5H316.2z"/>
		<path class="st2" d="M327.7,564.7l-4.5-11.4h2l3.5,9.2l3.5-9.2h1.9l-6.4,16.1h-2L327.7,564.7z"/>
		<path class="st2" d="M341.1,553.3h1.8v7.4c0,1,0.2,1.7,0.5,2.2c0.3,0.5,0.9,0.7,1.7,0.7c0.5,0,1.1-0.2,1.6-0.5s1-0.8,1.4-1.3
			s0.7-1.1,0.8-1.7v-6.8h1.9v11.5h-1.7l-0.1-2.3c-0.4,0.7-1,1.3-1.7,1.9s-1.5,0.8-2.4,0.8c-1.2,0-2.1-0.4-2.8-1.1
			c-0.6-0.7-1-1.8-1-3.2V553.3z"/>
		<path class="st2" d="M353.8,564.7v-11.5h1.7l0.1,2.3c0.4-0.7,1-1.3,1.7-1.9s1.5-0.8,2.4-0.8c1.2,0,2.1,0.4,2.8,1.1
			c0.7,0.7,1,1.8,1,3.2v7.5h-1.9v-7.4c0-1-0.2-1.7-0.5-2.2c-0.3-0.5-0.9-0.7-1.7-0.7c-0.5,0-1,0.2-1.6,0.5s-1,0.8-1.4,1.3
			s-0.7,1.1-0.8,1.7v6.8H353.8z"/>
		<path class="st2" d="M364.8,554.8v-1.5h2.3v-1.1c0-0.7,0.1-1.3,0.4-1.9c0.3-0.6,0.7-1.1,1.2-1.4c0.5-0.4,1.2-0.5,2-0.5
			c0.5,0,1,0.1,1.4,0.3v1.6c-0.3-0.3-0.8-0.4-1.3-0.4c-0.6,0-1,0.2-1.4,0.6s-0.5,1-0.5,1.8v1.1h2.7v1.5H369v10h-1.9v-10H364.8z"/>
		<path class="st2" d="M372.7,558.8c0-1.1,0.2-2.2,0.7-3.1c0.5-0.9,1.1-1.6,1.9-2.1c0.8-0.5,1.7-0.7,2.8-0.7c1.1,0,2,0.2,2.8,0.7
			c0.8,0.5,1.4,1.2,1.9,2.1c0.5,0.9,0.7,1.9,0.7,3.1v0.4c0,1.1-0.2,2.2-0.7,3.1c-0.5,0.9-1.1,1.6-1.9,2.1c-0.8,0.5-1.7,0.7-2.8,0.7
			c-1,0-2-0.2-2.8-0.7c-0.8-0.5-1.5-1.2-1.9-2.1c-0.5-0.9-0.7-1.9-0.7-3.1V558.8z M374.6,559.2c0,1.3,0.3,2.4,0.9,3.2
			s1.5,1.2,2.5,1.2c1.1,0,1.9-0.4,2.5-1.2s0.9-1.9,0.9-3.2v-0.4c0-1.3-0.3-2.4-0.9-3.2c-0.6-0.8-1.5-1.2-2.5-1.2
			c-1.1,0-1.9,0.4-2.5,1.2c-0.6,0.8-0.9,1.9-0.9,3.2V559.2z"/>
		<path class="st2" d="M387.5,564.7h-1.8v-16.1h1.8V564.7z"/>
		<path class="st2" d="M390.4,555.8c0.4-0.9,1-1.6,1.8-2.1c0.8-0.5,1.6-0.7,2.6-0.7c0.7,0,1.4,0.2,2.1,0.6c0.7,0.4,1.2,0.9,1.6,1.5
			v-6.3h1.8v16.1h-1.7l-0.1-1.8c-0.4,0.6-0.9,1.1-1.6,1.5c-0.7,0.4-1.4,0.6-2.1,0.6c-1,0-1.8-0.2-2.6-0.7c-0.8-0.5-1.4-1.2-1.8-2.1
			c-0.4-0.9-0.7-2-0.7-3.2C389.7,557.8,390,556.7,390.4,555.8z M392.1,561.4c0.3,0.7,0.7,1.2,1.2,1.6c0.5,0.4,1.1,0.6,1.7,0.6
			c0.7,0,1.4-0.3,2-0.8c0.6-0.5,1.1-1.2,1.4-1.9v-3.7c-0.3-0.8-0.8-1.4-1.4-1.9c-0.6-0.5-1.3-0.8-2-0.8c-0.6,0-1.2,0.2-1.7,0.6
			c-0.5,0.4-0.9,0.9-1.2,1.6c-0.3,0.7-0.5,1.5-0.5,2.4C391.7,559.9,391.8,560.7,392.1,561.4z"/>
		<path class="st2" d="M402.9,561.8c0.9,1.1,2.1,1.7,3.6,1.7c0.8,0,1.4-0.2,1.8-0.5s0.7-0.7,0.7-1.3c0-0.4-0.1-0.7-0.3-1
			c-0.2-0.3-0.7-0.6-1.3-0.8l-1.6-0.6c-0.9-0.4-1.6-0.8-2.1-1.4s-0.7-1.2-0.7-1.9c0-0.6,0.1-1.1,0.5-1.5c0.3-0.5,0.7-0.8,1.3-1.1
			c0.6-0.3,1.3-0.4,2.1-0.4c0.7,0,1.3,0.1,2,0.4c0.6,0.3,1.1,0.6,1.6,0.9v2c-0.5-0.6-1.1-1-1.7-1.3c-0.6-0.3-1.2-0.4-1.8-0.4
			c-0.7,0-1.2,0.2-1.5,0.5c-0.3,0.3-0.5,0.7-0.5,1.1c0,0.4,0.1,0.7,0.4,0.9s0.7,0.5,1.4,0.8l1.5,0.6c1,0.4,1.6,0.9,2.1,1.4
			c0.4,0.5,0.7,1.2,0.7,2c0,1-0.4,1.9-1.2,2.5c-0.8,0.6-1.8,0.9-3.1,0.9c-0.8,0-1.5-0.1-2.1-0.4c-0.6-0.2-1.1-0.5-1.5-0.9V561.8z"/>
		<path class="st2" d="M415.1,564.7h-2.4V562h2.4V564.7z"/>
	</g>
</g>
</svg>
