<?xml version="1.0" encoding="utf-8"?>
<!-- Generator: Adobe Illustrator 27.5.0, SVG Export Plug-In . SVG Version: 6.00 Build 0)  -->
<svg version="1.1" id="레이어_1" xmlns="http://www.w3.org/2000/svg" xmlns:xlink="http://www.w3.org/1999/xlink" x="0px"
	 y="0px" viewBox="0 0 1920 1080" style="enable-background:new 0 0 1920 1080;" xml:space="preserve">
<style type="text/css">
	.st0{opacity:0;}
	.st1{clip-path:url(#SVGID_00000059293808949715567900000004785489299356935093_);fill:#FFFFFF;}
	.st2{fill:#231815;}
</style>
<g>
	<g>
		<g class="st0">
			<g>
				<g>
					<defs>
						<rect id="SVGID_1_" x="2278.3" y="460" width="1938" height="154"/>
					</defs>
					<clipPath id="SVGID_00000021093496625878899310000002265260065736129944_">
						<use xlink:href="#SVGID_1_"  style="overflow:visible;"/>
					</clipPath>
					
						<rect x="2287.3" y="467" style="clip-path:url(#SVGID_00000021093496625878899310000002265260065736129944_);fill:#FFFFFF;" width="1920" height="146"/>
				</g>
			</g>
		</g>
	</g>
	<g>
		<path class="st2" d="M2374.6,485.4h-15.2v-4.9h36.3v4.9h-15.1v44.5h-6V485.4z"/>
		<path class="st2" d="M2401.9,529.9v-49.8h5.7v21.3c1.3-2.2,3-4.1,5.2-5.7s4.6-2.3,7.3-2.3c3.8,0,6.7,1.1,8.6,3.4
			c2,2.3,3,5.5,3,9.8v23.3h-5.7V507c0-2.9-0.5-5.2-1.6-6.7c-1.1-1.5-2.8-2.3-5.2-2.3c-1.6,0-3.2,0.5-4.8,1.5c-1.6,1-3.1,2.3-4.3,4
			c-1.2,1.6-2.1,3.4-2.6,5.3v21.1L2401.9,529.9L2401.9,529.9z"/>
		<path class="st2" d="M2437.9,511.3c0-3.4,0.7-6.5,2-9.2s3.2-4.9,5.6-6.4c2.4-1.5,5.2-2.3,8.3-2.3c4.8,0,8.5,1.6,11.2,4.7
			c2.7,3.1,4.1,7.7,4.1,13.6v2.3h-25.5c0.2,3.6,1.3,6.5,3.2,8.8c1.9,2.3,4.5,3.4,7.7,3.5c5,0,9.2-1.8,12.5-5.4v5.8
			c-1.5,1.3-3.3,2.3-5.3,3.1c-2,0.7-4.4,1.1-7.2,1.1c-3.5,0-6.4-0.8-8.9-2.3s-4.4-3.7-5.7-6.4c-1.3-2.8-2-5.9-2-9.5V511.3
			L2437.9,511.3z M2463.4,509.5c0-3.8-0.9-6.7-2.7-8.6c-1.7-2-4-2.9-6.8-2.9c-1.8,0-3.5,0.5-5,1.4s-2.7,2.3-3.6,4
			c-0.9,1.7-1.5,3.8-1.6,6.1H2463.4z"/>
		<path class="st2" d="M2499.3,529.9h-6v-49.4h6v22.4l22.8-22.4h7.9l-24.8,24.1l25.7,25.3h-8.6l-22.9-23v23H2499.3z"/>
		<path class="st2" d="M2541.6,488.5h-5.7v-7.2h5.7V488.5z M2541.6,529.9h-5.7v-35.5h5.7V529.9z"/>
		<path class="st2" d="M2550.4,514.3c1-1.4,2.6-2.6,4.6-3.4s4.8-1.6,8.4-2.2l8.8-1.6c-0.1-3.1-0.9-5.4-2.4-7c-1.5-1.5-3.9-2.3-7-2.3
			c-2.3,0-4.4,0.5-6.4,1.6c-2,1-3.7,2.4-5.1,4.2v-5.7c1.3-1.3,3.1-2.4,5.2-3.2c2.1-0.9,4.4-1.3,6.9-1.3c4.5,0,8.1,1.1,10.7,3.4
			s3.9,5.7,3.9,10.2v22.9h-4.5l-1-5.5c-1.6,2-3.6,3.6-5.8,4.7c-2.2,1.1-4.7,1.7-7.3,1.7c-3.3,0-5.9-0.9-7.9-2.7s-3-4.4-3-7.6
			C2548.5,518.1,2549.1,516.1,2550.4,514.3z M2555.9,524.6c1.1,1,2.6,1.5,4.5,1.5c2.2,0,4.4-0.7,6.7-2.1c2.2-1.4,4-3.3,5.2-5.7v-6.8
			l-5.9,1.1c-3.2,0.6-5.7,1.1-7.3,1.6c-1.6,0.5-2.9,1.3-3.6,2.3c-0.8,1-1.2,2.2-1.2,3.7C2554.2,522.1,2554.8,523.6,2555.9,524.6z"/>
	</g>
	<g>
		<path class="st2" d="M2635.1,529.7h-31.5v-49.4h31.2v7.1h-22.4v13.3h18.8v7.1h-18.8v14.6h22.8v7.3H2635.1z"/>
		<path class="st2" d="M2656.7,529.7l-18.1-49.4h9.8l13.7,39.3l13.8-39.3h8.6l-18,49.4L2656.7,529.7L2656.7,529.7z"/>
		<path class="st2" d="M2688.7,516.3c1.5,2.2,3.4,3.9,5.7,5.2c2.3,1.2,4.8,1.9,7.4,1.9c2,0,3.7-0.4,5.2-1.3c1.5-0.8,2.7-2,3.5-3.4
			c0.8-1.4,1.2-3,1.2-4.7c0-2.6-0.8-4.6-2.4-6.1c-1.6-1.5-3.6-2.2-6-2.2c-1.5,0-2.9,0.3-4.2,0.9s-2.2,1.2-2.8,1.9h-5.8l2.3-27.4
			h26.1v7.2h-18.1l-1,12c0.5-0.4,1.4-0.7,2.5-1.1c1.1-0.3,2.4-0.5,3.7-0.5c2.8,0,5.3,0.6,7.6,1.8c2.3,1.2,4.1,2.9,5.4,5.3
			c1.3,2.3,1.9,5.1,1.9,8.3c0,3.4-0.8,6.4-2.5,8.8c-1.7,2.5-4,4.4-6.8,5.7s-6,2-9.6,2c-5.3,0-9.8-1.5-13.5-4.4v-9.9H2688.7z"/>
	</g>
	<g>
		<path class="st2" d="M2363.4,435.5h-3.1v-25.8h15.5v2.6h-12.4v9h10.4v2.6h-10.4V435.5z"/>
		<path class="st2" d="M2382.1,413.8h-3V410h3V413.8z M2382.1,435.5h-3v-18.6h3V435.5z"/>
		<path class="st2" d="M2387,435.5v-18.6h2.7l0.2,3.2c0.5-1.2,1.3-2.1,2.2-2.7c0.9-0.7,2.1-1,3.3-1c0.3,0,0.6,0,1,0.1
			c0.3,0,0.6,0.1,0.7,0.2v2.7c-0.5-0.2-1.1-0.3-1.9-0.3c-1.2,0-2.3,0.4-3.2,1.2c-1,0.8-1.7,1.9-2.1,3.2v12.1h-2.9V435.5z"/>
		<path class="st2" d="M2399.1,430.8c1.5,1.9,3.5,2.8,5.9,2.8c1.2,0,2.2-0.3,2.9-0.8s1.1-1.2,1.1-2.1c0-0.7-0.2-1.2-0.6-1.7
			c-0.4-0.5-1.1-0.9-2.2-1.3l-2.5-1c-1.5-0.6-2.6-1.4-3.4-2.2c-0.7-0.8-1.1-1.9-1.1-3.1c0-0.9,0.2-1.7,0.7-2.5s1.2-1.4,2.1-1.8
			c0.9-0.5,2.1-0.7,3.4-0.7c1.1,0,2.2,0.2,3.2,0.6s1.8,0.9,2.5,1.5v3.2c-0.8-1-1.7-1.7-2.7-2.1c-1-0.5-2-0.7-3-0.7
			c-1.1,0-1.9,0.2-2.5,0.7c-0.6,0.5-0.8,1.1-0.8,1.8c0,0.6,0.2,1.1,0.7,1.5c0.4,0.4,1.2,0.8,2.2,1.2l2.4,1c1.5,0.6,2.7,1.4,3.4,2.3
			s1.1,2,1.1,3.2c0,1.7-0.7,3-2,4s-3,1.5-5,1.5c-1.3,0-2.4-0.2-3.4-0.6s-1.8-0.9-2.5-1.4v-3.3H2399.1z"/>
		<path class="st2" d="M2417.4,419.3h-4.1v-2.4h4.1v-5.6h3v5.6h4.1v2.4h-4.1v16.1h-3V419.3z"/>
		<path class="st2" d="M2433.7,419.3v-2.4h3.7v-1.8c0-1.1,0.2-2.2,0.6-3.1c0.4-1,1.1-1.7,2-2.3c0.9-0.6,1.9-0.9,3.2-0.9
			c0.9,0,1.7,0.2,2.3,0.5v2.7c-0.5-0.5-1.2-0.7-2.1-0.7c-0.9,0-1.7,0.3-2.2,1c-0.5,0.6-0.8,1.6-0.8,2.9v1.8h4.4v2.4h-4.4v16.1h-3
			v-16.1h-3.7V419.3z"/>
		<path class="st2" d="M2446.4,425.9c0-1.9,0.4-3.5,1.1-5c0.7-1.5,1.8-2.6,3.1-3.4s2.8-1.2,4.5-1.2s3.2,0.4,4.5,1.2
			c1.3,0.8,2.3,1.9,3.1,3.4c0.7,1.5,1.1,3.1,1.1,5v0.6c0,1.9-0.4,3.5-1.1,4.9s-1.8,2.6-3.1,3.3c-1.3,0.8-2.8,1.2-4.5,1.2
			s-3.2-0.4-4.5-1.2c-1.3-0.8-2.4-1.9-3.1-3.3c-0.7-1.4-1.1-3.1-1.1-4.9V425.9z M2449.6,426.5c0,2.2,0.5,3.9,1.5,5.2
			c1,1.3,2.4,1.9,4.1,1.9c1.7,0,3.1-0.6,4.1-1.9s1.5-3,1.5-5.2v-0.6c0-2.2-0.5-3.9-1.5-5.2c-1-1.3-2.4-2-4.1-2c-1.7,0-3.1,0.7-4.1,2
			s-1.5,3-1.5,5.2V426.5z"/>
		<path class="st2" d="M2467.5,435.5v-18.6h2.7l0.2,3.2c0.5-1.2,1.3-2.1,2.2-2.7c0.9-0.7,2.1-1,3.3-1c0.3,0,0.6,0,1,0.1
			c0.3,0,0.6,0.1,0.7,0.2v2.7c-0.5-0.2-1.1-0.3-1.9-0.3c-1.2,0-2.3,0.4-3.2,1.2c-1,0.8-1.7,1.9-2.1,3.2v12.1h-2.9V435.5z"/>
		<path class="st2" d="M2505,435.5h-15.6v-25.8h15.4v2.6h-12.2v8.7h10.4v2.6h-10.4v9.4h12.4V435.5L2505,435.5z"/>
		<path class="st2" d="M2514,435.5l-7.1-18.6h3.2l5.6,15.4l5.7-15.4h2.9l-7.1,18.6H2514z"/>
		<path class="st2" d="M2525.7,425.7c0-1.8,0.4-3.4,1.1-4.8s1.7-2.5,2.9-3.3c1.3-0.8,2.7-1.2,4.3-1.2c2.5,0,4.4,0.8,5.9,2.5
			c1.4,1.6,2.1,4,2.1,7.1v1.2h-13.3c0.1,1.9,0.7,3.4,1.7,4.6s2.3,1.8,4,1.8c2.6,0,4.8-0.9,6.6-2.8v3c-0.8,0.7-1.7,1.2-2.8,1.6
			c-1.1,0.4-2.3,0.6-3.8,0.6c-1.8,0-3.4-0.4-4.7-1.2c-1.3-0.8-2.3-1.9-3-3.3c-0.7-1.4-1-3.1-1-4.9V425.7z M2539.1,424.8
			c0-2-0.5-3.5-1.4-4.5c-0.9-1-2.1-1.5-3.6-1.5c-1,0-1.8,0.2-2.6,0.7c-0.8,0.5-1.4,1.2-1.9,2.1s-0.8,2-0.8,3.2L2539.1,424.8
			L2539.1,424.8z"/>
		<path class="st2" d="M2545.7,435.5v-18.6h2.7l0.2,3.2c0.5-1.2,1.3-2.1,2.2-2.7c0.9-0.7,2.1-1,3.3-1c0.3,0,0.6,0,1,0.1
			c0.3,0,0.6,0.1,0.7,0.2v2.7c-0.5-0.2-1.1-0.3-1.9-0.3c-1.2,0-2.3,0.4-3.2,1.2c-1,0.8-1.7,1.9-2.1,3.2v12.1h-2.9V435.5z"/>
		<path class="st2" d="M2564.3,435.4l-7.3-18.5h3.3l5.7,14.9l5.7-14.9h3.1l-10.5,26.1h-3.2L2564.3,435.4z"/>
		<path class="st2" d="M2576,425.9c0-1.9,0.4-3.5,1.1-5s1.8-2.6,3.1-3.4c1.3-0.8,2.8-1.2,4.5-1.2c1.7,0,3.2,0.4,4.5,1.2
			c1.3,0.8,2.3,1.9,3.1,3.4c0.7,1.5,1.1,3.1,1.1,5v0.6c0,1.9-0.4,3.5-1.1,4.9c-0.7,1.4-1.8,2.6-3.1,3.3c-1.3,0.8-2.8,1.2-4.5,1.2
			c-1.7,0-3.2-0.4-4.5-1.2c-1.3-0.8-2.4-1.9-3.1-3.3s-1.1-3.1-1.1-4.9V425.9z M2579.1,426.5c0,2.2,0.5,3.9,1.5,5.2
			c1,1.3,2.4,1.9,4.1,1.9c1.7,0,3.1-0.6,4.1-1.9s1.5-3,1.5-5.2v-0.6c0-2.2-0.5-3.9-1.5-5.2c-1-1.3-2.4-2-4.1-2c-1.7,0-3.1,0.7-4.1,2
			s-1.5,3-1.5,5.2V426.5z"/>
		<path class="st2" d="M2597.1,435.5v-18.6h2.7l0.2,3.7c0.7-1.2,1.6-2.2,2.7-3c1.1-0.8,2.4-1.2,3.9-1.2c1.9,0,3.5,0.6,4.5,1.8
			c1.1,1.2,1.6,2.9,1.6,5.1v12.2h-3v-12c0-1.5-0.3-2.7-0.8-3.5s-1.5-1.2-2.7-1.2c-0.8,0-1.7,0.3-2.5,0.8c-0.9,0.5-1.6,1.2-2.2,2.1
			c-0.6,0.9-1.1,1.8-1.3,2.8v10.9h-3.1V435.5z"/>
		<path class="st2" d="M2615.9,425.7c0-1.8,0.4-3.4,1.1-4.8c0.7-1.4,1.7-2.5,2.9-3.3c1.3-0.8,2.7-1.2,4.3-1.2c2.5,0,4.4,0.8,5.9,2.5
			c1.4,1.6,2.1,4,2.1,7.1v1.2h-13.3c0.1,1.9,0.7,3.4,1.7,4.6s2.3,1.8,4,1.8c2.6,0,4.8-0.9,6.6-2.8v3c-0.8,0.7-1.7,1.2-2.8,1.6
			c-1.1,0.4-2.3,0.6-3.8,0.6c-1.8,0-3.4-0.4-4.7-1.2c-1.3-0.8-2.3-1.9-3-3.3s-1-3.1-1-4.9V425.7L2615.9,425.7z M2629.3,424.8
			c0-2-0.5-3.5-1.4-4.5c-0.9-1-2.1-1.5-3.6-1.5c-1,0-1.8,0.2-2.6,0.7c-0.8,0.5-1.4,1.2-1.9,2.1s-0.8,2-0.8,3.2L2629.3,424.8
			L2629.3,424.8z"/>
	</g>
</g>
<g>
	<path class="st2" d="M80.9,433.4h-7.7v-3.6H93v3.6h-7.6v21.5h-4.5V433.4z"/>
	<path class="st2" d="M95.7,454.9v-25.3h4.3v9.9c0.6-0.9,1.5-1.6,2.4-2.2c1-0.6,2.1-0.9,3.3-0.9c2,0,3.6,0.6,4.7,1.8
		c1.1,1.2,1.7,2.8,1.7,5v11.8h-4.3v-11.8c0-2.3-0.9-3.4-2.8-3.4c-1.1,0-2.1,0.4-3.1,1.2c-1,0.8-1.6,1.8-2,3v11H95.7z"/>
	<path class="st2" d="M114.7,445.5c0-1.7,0.4-3.3,1.1-4.7c0.7-1.4,1.7-2.5,3-3.3c1.3-0.8,2.8-1.2,4.5-1.2c2.6,0,4.7,0.8,6.1,2.5
		c1.4,1.7,2.2,4,2.2,6.9v1.7h-12.6c0.2,1.5,0.7,2.7,1.6,3.5c0.9,0.8,2.1,1.2,3.6,1.2c1.2,0,2.3-0.2,3.3-0.6c1-0.4,2-1.1,3-2.1v4.1
		c-0.8,0.6-1.7,1.1-2.9,1.4c-1.1,0.3-2.3,0.5-3.6,0.5c-1.9,0-3.6-0.4-5-1.2c-1.4-0.8-2.4-1.9-3.1-3.3c-0.7-1.4-1.1-3-1.1-4.8V445.5z
		 M127.3,444.1c0-1.4-0.4-2.6-1.1-3.4c-0.7-0.8-1.7-1.2-3-1.2c-1.1,0-2.1,0.4-2.9,1.3c-0.8,0.8-1.3,1.9-1.3,3.3H127.3z"/>
	<path class="st2" d="M148,454.9h-4.5v-25.1h4.5v10.9l10.7-10.9h5.7L152,442l12.8,12.9h-6.5L148,443.8V454.9z"/>
	<path class="st2" d="M171.5,434.1h-4.3v-4.5h4.3V434.1z M171.5,454.9h-4.3v-18.1h4.3V454.9z"/>
	<path class="st2" d="M175.8,446.4c0.7-0.7,1.5-1.3,2.6-1.7c1.1-0.4,2.4-0.7,3.9-1l3.8-0.6c-0.2-2.4-1.7-3.5-4.4-3.5
		c-1,0-2,0.3-3,0.8c-1,0.5-1.8,1.3-2.5,2.2v-4.1c1.7-1.4,3.9-2.1,6.4-2.1c2.3,0,4.2,0.6,5.6,1.9c1.4,1.2,2.2,3.1,2.2,5.6v11.1h-3.6
		l-0.4-2.1c-0.9,0.9-1.8,1.5-2.8,1.9c-0.9,0.4-2.1,0.6-3.3,0.6c-1.8,0-3.2-0.5-4.3-1.5c-1-1-1.5-2.3-1.5-4.1
		C174.6,448.5,175,447.3,175.8,446.4z M179.5,451.4c0.4,0.4,1,0.6,1.7,0.6c1.1,0,2.1-0.3,3-1c0.9-0.7,1.6-1.5,2-2.4v-2.5l-2.2,0.4
		c-1.5,0.2-2.6,0.5-3.2,0.7c-0.6,0.3-1.1,0.5-1.5,0.9c-0.4,0.4-0.6,0.9-0.6,1.6C178.8,450.4,179.1,451,179.5,451.4z"/>
	<path class="st2" d="M219.3,454.9h-16v-25.1h15.9v3.6h-11.4v6.8h9.6v3.6h-9.6v7.4h11.6V454.9z"/>
	<path class="st2" d="M230.3,454.9l-9.2-25.1h5l7,20l7-20h4.4l-9.2,25.1H230.3z"/>
	<path class="st2" d="M246.6,448.1c0.8,1.1,1.7,2,2.9,2.6c1.2,0.6,2.4,0.9,3.8,0.9c1,0,1.9-0.2,2.6-0.6c0.8-0.4,1.4-1,1.8-1.7
		c0.4-0.7,0.6-1.5,0.6-2.4c0-1.3-0.4-2.3-1.2-3.1c-0.8-0.8-1.8-1.1-3.1-1.1c-0.8,0-1.5,0.1-2.1,0.4c-0.7,0.3-1.1,0.6-1.4,1h-2.9
		l1.2-14H262v3.7h-9.2l-0.5,6.1c0.3-0.2,0.7-0.4,1.3-0.5c0.6-0.2,1.2-0.2,1.9-0.2c1.4,0,2.7,0.3,3.9,0.9c1.2,0.6,2.1,1.5,2.7,2.7
		c0.7,1.2,1,2.6,1,4.2c0,1.7-0.4,3.2-1.3,4.5c-0.9,1.3-2,2.2-3.5,2.9c-1.5,0.7-3.1,1-4.9,1c-2.7,0-5-0.7-6.8-2.2V448.1z"/>
	<path class="st2" d="M268,459.8h-3l1.7-10.1h5L268,459.8z"/>
	<path class="st2" d="M75.6,503.3h-2.7l8.4-22.4H84l8.5,22.4h-2.9l-2.4-6.5H78L75.6,503.3z M82.5,484.5l-3.8,10.1h7.5L82.5,484.5z"
		/>
	<path class="st2" d="M93.3,495c0-1.5,0.3-2.9,1-4.2c0.7-1.2,1.6-2.2,2.8-2.9c1.2-0.7,2.6-1,4.1-1c0.9,0,1.7,0.2,2.6,0.5
		c0.8,0.3,1.5,0.8,2.1,1.3v2.7c-0.6-0.8-1.3-1.4-2.1-1.8c-0.8-0.4-1.7-0.6-2.6-0.6c-1,0-1.8,0.3-2.6,0.8c-0.8,0.5-1.4,1.2-1.9,2.1
		c-0.5,0.9-0.7,2-0.7,3.1v0.5c0,1.2,0.2,2.3,0.7,3.2c0.5,0.9,1.1,1.7,1.9,2.2c0.8,0.5,1.6,0.8,2.6,0.8c1.8,0,3.4-0.8,4.7-2.4v2.7
		c-0.6,0.5-1.3,1-2.1,1.3c-0.8,0.3-1.7,0.5-2.6,0.5c-1.5,0-2.8-0.4-4-1.1c-1.2-0.7-2.1-1.7-2.8-2.9c-0.7-1.2-1-2.7-1-4.2V495z"/>
	<path class="st2" d="M107.9,495c0-1.5,0.3-2.9,1-4.2c0.7-1.2,1.6-2.2,2.8-2.9c1.2-0.7,2.6-1,4.1-1c0.9,0,1.7,0.2,2.6,0.5
		c0.8,0.3,1.5,0.8,2.1,1.3v2.7c-0.6-0.8-1.3-1.4-2.1-1.8c-0.8-0.4-1.7-0.6-2.6-0.6c-1,0-1.8,0.3-2.6,0.8c-0.8,0.5-1.4,1.2-1.9,2.1
		c-0.5,0.9-0.7,2-0.7,3.1v0.5c0,1.2,0.2,2.3,0.7,3.2c0.5,0.9,1.1,1.7,1.9,2.2c0.8,0.5,1.6,0.8,2.6,0.8c1.8,0,3.4-0.8,4.7-2.4v2.7
		c-0.6,0.5-1.3,1-2.1,1.3c-0.8,0.3-1.7,0.5-2.6,0.5c-1.5,0-2.8-0.4-4-1.1c-1.2-0.7-2.1-1.7-2.8-2.9c-0.7-1.2-1-2.7-1-4.2V495z"/>
	<path class="st2" d="M122.6,494.9c0-1.5,0.3-2.9,0.9-4.2c0.6-1.2,1.5-2.2,2.5-2.9c1.1-0.7,2.3-1,3.8-1c2.2,0,3.8,0.7,5.1,2.1
		c1.2,1.4,1.8,3.5,1.8,6.1v1.1h-11.5c0.1,1.6,0.6,3,1.4,4c0.9,1,2,1.6,3.5,1.6c2.3,0,4.1-0.8,5.7-2.4v2.6c-0.7,0.6-1.5,1-2.4,1.4
		c-0.9,0.3-2,0.5-3.3,0.5c-1.6,0-2.9-0.3-4-1c-1.1-0.7-2-1.7-2.6-2.9c-0.6-1.2-0.9-2.7-0.9-4.3V494.9z M134.1,494.1
		c0-1.7-0.4-3-1.2-3.9c-0.8-0.9-1.8-1.3-3.1-1.3c-0.8,0-1.6,0.2-2.3,0.6c-0.7,0.4-1.2,1-1.6,1.8c-0.4,0.8-0.7,1.7-0.7,2.8H134.1z"/>
	<path class="st2" d="M142.4,503.3h-2.6v-22.5h2.6V503.3z"/>
	<path class="st2" d="M145.5,494.9c0-1.5,0.3-2.9,0.9-4.2c0.6-1.2,1.5-2.2,2.5-2.9c1.1-0.7,2.3-1,3.8-1c2.2,0,3.8,0.7,5.1,2.1
		c1.2,1.4,1.8,3.5,1.8,6.1v1.1H148c0.1,1.6,0.6,3,1.4,4c0.9,1,2,1.6,3.5,1.6c2.3,0,4.1-0.8,5.7-2.4v2.6c-0.7,0.6-1.5,1-2.4,1.4
		c-0.9,0.3-2,0.5-3.3,0.5c-1.6,0-2.9-0.3-4-1c-1.1-0.7-2-1.7-2.6-2.9c-0.6-1.2-0.9-2.7-0.9-4.3V494.9z M157,494.1
		c0-1.7-0.4-3-1.2-3.9c-0.8-0.9-1.8-1.3-3.1-1.3c-0.8,0-1.6,0.2-2.3,0.6c-0.7,0.4-1.2,1-1.6,1.8c-0.4,0.8-0.7,1.7-0.7,2.8H157z"/>
	<path class="st2" d="M162.7,503.3v-16.1h2.4l0.2,2.8c0.5-1,1.1-1.8,1.9-2.4c0.8-0.6,1.8-0.9,2.9-0.9c0.3,0,0.6,0,0.9,0.1
		c0.3,0,0.5,0.1,0.6,0.1v2.3c-0.4-0.2-1-0.2-1.6-0.2c-1,0-2,0.3-2.8,1c-0.8,0.7-1.4,1.6-1.8,2.8v10.4H162.7z"/>
	<path class="st2" d="M173.5,496.3c0.5-0.6,1.2-1.2,2.1-1.5c0.9-0.4,2.2-0.7,3.8-1l4-0.7c0-1.4-0.4-2.5-1.1-3.2
		c-0.7-0.7-1.7-1-3.2-1c-1,0-2,0.2-2.9,0.7c-0.9,0.5-1.7,1.1-2.3,1.9v-2.6c0.6-0.6,1.4-1.1,2.3-1.5c1-0.4,2-0.6,3.1-0.6
		c2,0,3.6,0.5,4.8,1.5c1.2,1,1.8,2.6,1.8,4.6v10.4h-2l-0.5-2.5c-0.7,0.9-1.6,1.6-2.6,2.1c-1,0.5-2.1,0.8-3.3,0.8
		c-1.5,0-2.7-0.4-3.6-1.2c-0.9-0.8-1.3-2-1.3-3.4C172.6,498,172.9,497.1,173.5,496.3z M176,501c0.5,0.5,1.2,0.7,2,0.7c1,0,2-0.3,3-1
		c1-0.6,1.8-1.5,2.4-2.6V495l-2.7,0.5c-1.5,0.3-2.6,0.5-3.3,0.7c-0.7,0.2-1.3,0.6-1.6,1c-0.4,0.4-0.5,1-0.5,1.7
		C175.2,499.9,175.5,500.5,176,501z"/>
	<path class="st2" d="M191.6,489.4H188v-2.1h3.5v-4.9h2.6v4.9h3.6v2.1h-3.6v14h-2.6V489.4z"/>
	<path class="st2" d="M198.8,494.9c0-1.5,0.3-2.9,0.9-4.2c0.6-1.2,1.5-2.2,2.5-2.9c1.1-0.7,2.3-1,3.8-1c2.2,0,3.8,0.7,5.1,2.1
		c1.2,1.4,1.8,3.5,1.8,6.1v1.1h-11.5c0.1,1.6,0.6,3,1.4,4c0.9,1,2,1.6,3.5,1.6c2.3,0,4.1-0.8,5.7-2.4v2.6c-0.7,0.6-1.5,1-2.4,1.4
		c-0.9,0.3-2,0.5-3.3,0.5c-1.6,0-2.9-0.3-4-1c-1.1-0.7-2-1.7-2.6-2.9c-0.6-1.2-0.9-2.7-0.9-4.3V494.9z M210.3,494.1
		c0-1.7-0.4-3-1.2-3.9c-0.8-0.9-1.8-1.3-3.1-1.3c-0.8,0-1.6,0.2-2.3,0.6c-0.7,0.4-1.2,1-1.6,1.8c-0.4,0.8-0.7,1.7-0.7,2.8H210.3z"/>
	<path class="st2" d="M215.4,499.3c1.3,1.6,3,2.4,5.1,2.4c1.1,0,1.9-0.2,2.5-0.7c0.6-0.5,0.9-1,0.9-1.8c0-0.6-0.2-1-0.5-1.4
		c-0.3-0.4-0.9-0.8-1.9-1.1l-2.2-0.9c-1.3-0.5-2.3-1.2-2.9-1.9c-0.6-0.7-1-1.6-1-2.7c0-0.8,0.2-1.5,0.6-2.2c0.4-0.7,1-1.2,1.9-1.6
		c0.8-0.4,1.8-0.6,3-0.6c1,0,1.9,0.2,2.7,0.5c0.9,0.4,1.6,0.8,2.2,1.3v2.7c-0.7-0.8-1.5-1.4-2.4-1.9c-0.8-0.4-1.7-0.6-2.6-0.6
		c-1,0-1.7,0.2-2.2,0.6c-0.5,0.4-0.7,0.9-0.7,1.5c0,0.5,0.2,0.9,0.6,1.3c0.4,0.3,1,0.7,1.9,1.1l2.1,0.9c1.3,0.5,2.3,1.2,2.9,2
		c0.6,0.8,0.9,1.7,0.9,2.8c0,1.5-0.6,2.6-1.7,3.5c-1.1,0.9-2.6,1.3-4.4,1.3c-1.1,0-2.1-0.2-3-0.5c-0.9-0.3-1.6-0.7-2.1-1.2V499.3z"
		/>
	<path class="st2" d="M238.9,489.4h-3.5v-2.1h3.5v-4.9h2.6v4.9h3.6v2.1h-3.6v14h-2.6V489.4z"/>
	<path class="st2" d="M247.3,503.3v-22.5h2.6v9.6c0.6-1,1.4-1.9,2.4-2.6c1-0.7,2.1-1.1,3.3-1.1c1.7,0,3,0.5,3.9,1.5
		c0.9,1,1.4,2.5,1.4,4.4v10.6h-2.6V493c0-1.3-0.2-2.3-0.7-3c-0.5-0.7-1.3-1-2.4-1c-0.7,0-1.5,0.2-2.2,0.7c-0.7,0.5-1.4,1-1.9,1.8
		c-0.6,0.7-0.9,1.5-1.2,2.4v9.6H247.3z"/>
	<path class="st2" d="M263.6,494.9c0-1.5,0.3-2.9,0.9-4.2c0.6-1.2,1.5-2.2,2.5-2.9c1.1-0.7,2.3-1,3.8-1c2.2,0,3.8,0.7,5.1,2.1
		c1.2,1.4,1.8,3.5,1.8,6.1v1.1h-11.5c0.1,1.6,0.6,3,1.4,4c0.9,1,2,1.6,3.5,1.6c2.3,0,4.1-0.8,5.7-2.4v2.6c-0.7,0.6-1.5,1-2.4,1.4
		c-0.9,0.3-2,0.5-3.3,0.5c-1.6,0-2.9-0.3-4-1c-1.1-0.7-2-1.7-2.6-2.9c-0.6-1.2-0.9-2.7-0.9-4.3V494.9z M275.1,494.1
		c0-1.7-0.4-3-1.2-3.9c-0.8-0.9-1.8-1.3-3.1-1.3c-0.8,0-1.6,0.2-2.3,0.6c-0.7,0.4-1.2,1-1.6,1.8c-0.4,0.8-0.7,1.7-0.7,2.8H275.1z"/>
	<path class="st2" d="M302.1,503.3h-13.5V481h13.3v2.2h-10.6v7.5h9v2.2h-9v8.1h10.8V503.3z"/>
	<path class="st2" d="M312.2,503.3l-8.4-22.4h3l7,19l6.8-19h2.8l-8.2,22.4H312.2z"/>
	<path class="st2" d="M333.6,503.3V481h8.1c1.5,0,2.7,0.3,3.9,0.8c1.1,0.5,2,1.3,2.6,2.2c0.6,0.9,0.9,2,0.9,3.2v0.5
		c0,1.7-0.6,3.1-1.7,4.2c-1.1,1.1-2.7,1.8-4.6,2l7.4,9.5h-3.5l-7.2-9.5h-3.3v9.5H333.6z M341.4,491.7c1.5,0,2.7-0.4,3.6-1.1
		s1.3-1.7,1.3-2.9v-0.4c0-1.2-0.4-2.2-1.3-2.9c-0.9-0.7-2.1-1.1-3.6-1.1h-5.1v8.5H341.4z"/>
	<path class="st2" d="M351.2,494.9c0-1.5,0.3-2.9,0.9-4.2c0.6-1.2,1.5-2.2,2.5-2.9c1.1-0.7,2.3-1,3.8-1c2.2,0,3.8,0.7,5.1,2.1
		c1.2,1.4,1.8,3.5,1.8,6.1v1.1h-11.5c0.1,1.6,0.6,3,1.4,4c0.9,1,2,1.6,3.5,1.6c2.3,0,4.1-0.8,5.7-2.4v2.6c-0.7,0.6-1.5,1-2.4,1.4
		c-0.9,0.3-2,0.5-3.3,0.5c-1.6,0-2.9-0.3-4-1c-1.1-0.7-2-1.7-2.6-2.9c-0.6-1.2-0.9-2.7-0.9-4.3V494.9z M362.8,494.1
		c0-1.7-0.4-3-1.2-3.9c-0.8-0.9-1.8-1.3-3.1-1.3c-0.8,0-1.6,0.2-2.2,0.6c-0.7,0.4-1.2,1-1.6,1.8c-0.4,0.8-0.7,1.7-0.7,2.8H362.8z"/>
	<path class="st2" d="M372.7,503.3l-6.1-16.1h2.8l4.9,13.3l4.9-13.3h2.5l-6.1,16.1H372.7z"/>
	<path class="st2" d="M382.9,495.1c0-1.6,0.3-3,1-4.3c0.6-1.3,1.5-2.2,2.7-2.9c1.1-0.7,2.4-1,3.9-1c1.5,0,2.8,0.3,3.9,1
		c1.1,0.7,2,1.7,2.7,2.9c0.6,1.3,1,2.7,1,4.3v0.5c0,1.6-0.3,3-1,4.3c-0.6,1.2-1.5,2.2-2.7,2.9c-1.1,0.7-2.4,1-3.9,1
		c-1.5,0-2.8-0.3-3.9-1c-1.1-0.7-2-1.7-2.7-2.9c-0.6-1.2-1-2.7-1-4.3V495.1z M385.6,495.6c0,1.9,0.4,3.4,1.3,4.5
		c0.9,1.1,2,1.7,3.5,1.7c1.5,0,2.7-0.6,3.6-1.7c0.9-1.1,1.3-2.6,1.3-4.5v-0.5c0-1.9-0.4-3.4-1.3-4.5c-0.9-1.1-2-1.7-3.6-1.7
		c-1.5,0-2.7,0.6-3.5,1.7c-0.9,1.1-1.3,2.6-1.3,4.5V495.6z"/>
	<path class="st2" d="M403.7,503.3h-2.6v-22.5h2.6V503.3z"/>
	<path class="st2" d="M407.6,487.3h2.6v10.4c0,1.3,0.2,2.3,0.7,3c0.5,0.7,1.3,1,2.4,1c0.7,0,1.5-0.2,2.2-0.7
		c0.7-0.5,1.4-1.1,1.9-1.8c0.5-0.8,0.9-1.6,1.1-2.4v-9.5h2.6v16.1h-2.4l-0.2-3.2c-0.6,1-1.4,1.9-2.4,2.6c-1,0.7-2.1,1.1-3.4,1.1
		c-1.7,0-3-0.5-3.9-1.5c-0.9-1-1.4-2.5-1.4-4.4V487.3z"/>
	<path class="st2" d="M426.9,489.4h-3.5v-2.1h3.5v-4.9h2.6v4.9h3.6v2.1h-3.6v14h-2.6V489.4z"/>
	<path class="st2" d="M437.9,484.6h-2.6v-3.3h2.6V484.6z M437.9,503.3h-2.6v-16.1h2.6V503.3z"/>
	<path class="st2" d="M441,495.1c0-1.6,0.3-3,1-4.3c0.6-1.3,1.5-2.2,2.7-2.9c1.1-0.7,2.4-1,3.9-1c1.5,0,2.8,0.3,3.9,1
		c1.1,0.7,2,1.7,2.7,2.9c0.6,1.3,1,2.7,1,4.3v0.5c0,1.6-0.3,3-1,4.3c-0.6,1.2-1.5,2.2-2.7,2.9c-1.1,0.7-2.4,1-3.9,1
		c-1.5,0-2.8-0.3-3.9-1c-1.1-0.7-2-1.7-2.7-2.9c-0.6-1.2-1-2.7-1-4.3V495.1z M443.7,495.6c0,1.9,0.4,3.4,1.3,4.5
		c0.9,1.1,2,1.7,3.5,1.7c1.5,0,2.7-0.6,3.6-1.7c0.9-1.1,1.3-2.6,1.3-4.5v-0.5c0-1.9-0.4-3.4-1.3-4.5c-0.9-1.1-2-1.7-3.6-1.7
		c-1.5,0-2.7,0.6-3.5,1.7c-0.9,1.1-1.3,2.6-1.3,4.5V495.6z"/>
	<path class="st2" d="M459.2,503.3v-16.1h2.4l0.2,3.2c0.6-1,1.4-1.9,2.4-2.6c1-0.7,2.1-1.1,3.4-1.1c1.7,0,3,0.5,3.9,1.5
		c0.9,1,1.4,2.5,1.4,4.4v10.6h-2.6V493c0-1.3-0.2-2.3-0.7-3c-0.5-0.7-1.3-1-2.4-1c-0.7,0-1.5,0.2-2.2,0.7c-0.7,0.5-1.4,1.1-1.9,1.8
		c-0.6,0.8-0.9,1.6-1.2,2.4v9.5H459.2z"/>
</g>
<rect x="-1221.4" y="426.2" style="fill:none;" width="787.2" height="113.5"/>
<text transform="matrix(1 0 0 1 -1221.4131 463.3686)"><tspan x="0" y="0" class="st2" style="font-family:'KiaSignatureBold'; font-size:45px;">The Kia EV5,</tspan><tspan x="0" y="65.9" class="st2" style="font-family:'KiaSignatureRegular'; font-size:40px;">Accelerates the EV Revolution</tspan></text>
</svg>
