<?xml version="1.0" standalone="no"?><!DOCTYPE svg PUBLIC "-//W3C//DTD SVG 1.1//EN" "http://www.w3.org/Graphics/SVG/1.1/DTD/svg11.dtd"><svg xmlns="http://www.w3.org/2000/svg" version="1.1" width="206px" height="244.8px" viewBox="0 -6 206 244.8" style="top:-6px"><desc>텍스트 B</desc><defs/><g id="Polygon2769"><path d="m10.6 212h1.4v6.1H2.9V212h1.4v2h6.3v-2zm-6.3 3.1v1.9h6.3v-1.9H4.3zm-3.7 4.8h13.7v1.2H8.1v5H6.7v-5H.6v-1.2zm25.5-4.6h2.5v1.1h-2.5v3.8h-1.4v-8.8h1.4v3.9zM22 214c0 1.4-.5 2.6-1.7 3.7c-1.1 1-2.7 1.8-4.8 2.5l-.4-1.2c1.8-.5 3.2-1.2 4.1-2c1-.9 1.4-1.8 1.4-2.9c.02.02 0-.5 0-.5h-4.9v-1.1h6.3s.02 1.52 0 1.5zm2.7 8.2H17V221h9.1v5.4h-1.4v-4.2zm14.4 3.6v-14.4h1.4v14.4h-1.4zm-5.2-9.6c0 .7.3 1.5 1 2.4c.7.9 1.6 1.6 2.6 2.3l-.7 1.1c-1.6-1-2.8-2.2-3.6-3.6c-.5.8-1 1.5-1.7 2.1c-.6.7-1.3 1.3-2 1.7l-.8-1c.7-.4 1.3-.9 1.9-1.5c.6-.6 1-1.2 1.3-1.8c.4-.6.5-1.2.5-1.7c.03.05 0-3.5 0-3.5h1.5s-.04 3.52 0 3.5zM53 220v-8.6h1.4v8.6H53zm-3.2-6.1c0 1.5-.6 2.7-1.6 3.8c-1.1 1.1-2.7 2-4.8 2.6l-.5-1.2c2.4-.7 4.1-1.7 4.9-3c-.7.2-1.6.2-2.5.2c.03.03-2.4 0-2.4 0v-1.1h2.4c1.4 0 2.4-.1 3-.2c.1-.3.1-.6.1-.9c.02.02 0-.5 0-.5h-4.8v-1.2h6.2v1.5zm-2.8 8.5h6v-1.7h1.4v5.6h-8.8v-5.6h1.4v1.7zm0 1.1v1.6h6v-1.6h-6zm19.9 2.3v-14.4h1.4v14.4h-1.4zm-7.7-5.4c.8 0 1.8 0 2.9-.1c1.1-.2 2.2-.3 3.2-.6l.3 1.2c-1.4.2-2.7.4-3.9.5c-1.3.2-2.7.2-4.3.2c.04-.01 0-8.8 0-8.8h1.4v7.6s.42.02.4 0zm22.6-3.7h2.5v1.1h-2.5v8h-1.4v-14.4h1.4v5.3zm-8.8 3.6c.8 0 1.7 0 2.8-.1c1.1-.1 2.1-.3 3.1-.5l.2 1.1c-1.3.3-2.6.5-3.8.6c-1.2.1-2.6.1-4.1.1v-8.6h6.5v1.1h-5.1v6.3s.36.04.4 0zm13.4 4.2h-1.9v-2.1h1.9v2.1z" stroke="none" fill="#fff"/></g><g id="Polygon2768"><path d="m2 190.9c.9-.3 1.6-.6 2.3-1.1c.8-.5 1.3-1 1.8-1.5c.4-.5.6-1 .6-1.4v-1.1H3v-1.2h8.9v1.2H8.2s-.04 1.06 0 1.1c0 .4.2.9.6 1.4c.4.5 1 .9 1.7 1.4c.7.4 1.5.8 2.3 1l-.4 1.1c-1.1-.3-2-.7-2.8-1.3c-.9-.5-1.6-1.1-2.2-1.8c-.5.7-1.2 1.3-2.1 1.9c-.8.6-1.8 1.1-2.8 1.5l-.5-1.2zm6.1.8v3.7h6.2v1.2H.6v-1.2h6.1v-3.7h1.4zm18.4.8h-1.4V190h-2.8v-1.1h2.8v-2.1h-2.8v-1.1h2.8v-2.3h1.4v9.1zm-11-8h6v6.6h-6v-6.6zm1.4 5.5h3.2v-4.4h-3.2v4.4zm5.3 2.7c.9 0 1.8.1 2.4.4c.7.2 1.2.5 1.6.9c.3.5.5.9.5 1.5v.2c0 .8-.4 1.5-1.2 2c-.8.5-1.9.7-3.3.7c-1.4 0-2.5-.2-3.3-.7c-.8-.5-1.2-1.2-1.2-2v-.2c0-.6.2-1 .5-1.5c.4-.4.9-.7 1.6-.9c.7-.3 1.5-.4 2.4-.4zm3.1 2.8c0-.5-.3-.9-.8-1.2c-.5-.3-1.3-.4-2.3-.4c-1 0-1.7.1-2.3.4c-.5.3-.8.7-.8 1.2v.1c0 .5.3.9.8 1.2c.6.3 1.3.5 2.3.5c1 0 1.8-.2 2.3-.5c.5-.3.8-.7.8-1.2v-.1zm10-5.7c-.9 0-1.7-.2-2.3-.4c-.7-.2-1.2-.6-1.6-1c-.3-.4-.5-1-.5-1.5v-.2c0-.5.2-1 .5-1.5c.4-.4.9-.8 1.6-1c.7-.2 1.4-.4 2.3-.4c.9 0 1.6.2 2.3.4c.7.2 1.2.6 1.5 1c.4.5.6 1 .6 1.5v.2c0 .5-.2 1.1-.6 1.5c-.3.4-.8.8-1.5 1c-.6.2-1.4.4-2.3.4zm0-1.2c.9 0 1.7-.1 2.2-.4c.5-.4.8-.8.8-1.4c0-.6-.3-1-.8-1.4c-.5-.3-1.3-.4-2.2-.4c-1 0-1.7.1-2.2.4c-.6.4-.8.8-.8 1.4c0 .6.2 1 .8 1.4c.5.3 1.2.4 2.2.4zm-6.9 2.5h13.8v1.2H28.4v-1.2zm2.4 2.6h1.4v3.2h7.9v1.2h-9.3v-4.4zm23.2 2.8h-7.3v-12.2h7.2v1.3h-5.7v4h4.8v1.3h-4.8v4.4h5.8v1.2zm4.9 0l-4.6-12.2h1.6l3.8 10.4l3.7-10.4h1.5l-4.4 12.2h-1.6zm6.5-2.9c.4.6.8 1.1 1.4 1.4c.5.3 1.1.5 1.7.5c.6 0 1.1-.2 1.5-.4c.5-.2.8-.6 1-1c.3-.4.4-.9.4-1.4c0-.5-.1-1-.4-1.3c-.2-.4-.5-.7-.8-.9c-.4-.3-.8-.4-1.2-.4c-.5 0-.9.1-1.3.3c-.3.2-.6.4-.8.6c0 .05-1.1 0-1.1 0l.6-6.5h6v1.2h-4.6s-.36 3.83-.4 3.8c.6-.4 1.2-.6 2-.6c.6 0 1.2.2 1.7.5c.6.3 1 .7 1.3 1.3c.4.6.5 1.2.5 2c0 .8-.2 1.5-.5 2.1c-.4.6-.9 1.1-1.6 1.4c-.7.3-1.4.5-2.2.5c-.7 0-1.3-.2-1.9-.4c-.6-.2-1-.5-1.3-.9v-1.8zm20.2 4.2h-1.4v-14.4h1.4v14.4zm-7.3-6.2c-.7 0-1.3-.1-1.9-.4c-.5-.3-1-.7-1.3-1.2c-.3-.5-.5-1.1-.5-1.7v-.4c0-.6.2-1.2.5-1.7c.3-.5.8-.9 1.3-1.2c.6-.3 1.2-.5 1.9-.5c.7 0 1.3.2 1.9.5c.6.3 1 .7 1.3 1.2c.4.5.5 1.1.5 1.7v.4c0 .6-.1 1.2-.5 1.7c-.3.5-.7.9-1.3 1.2c-.6.3-1.2.4-1.9.4zm0-1.1c.7 0 1.3-.2 1.7-.6c.5-.5.7-1 .7-1.7v-.3c0-.6-.2-1.1-.7-1.6c-.4-.4-1-.6-1.7-.6c-.7 0-1.2.2-1.7.6c-.4.5-.7 1-.7 1.6v.3c0 .7.3 1.2.7 1.7c.5.4 1 .6 1.7.6zm-4.8 4.8v-1.1s3.35-.02 3.3 0c2.2 0 4.2-.2 6.2-.7l.3 1.2c-1.2.2-2.4.4-3.5.5c-1 .1-2.2.1-3.4.1c-.03.04-2.9 0-2.9 0zm29.1-11.9v4h2.5v1.2h-2.5v3.8h-1.4v-9h1.4zm-4.1 2.7c0 1.4-.5 2.6-1.7 3.7c-1.1 1-2.7 1.9-4.8 2.5l-.4-1.2c1.8-.5 3.2-1.2 4.1-2c1-.8 1.4-1.8 1.4-2.9c.02-.02 0-.5 0-.5h-4.9v-1.2h6.3v1.6zm-.3 6.6c1 0 1.8.1 2.4.4c.7.2 1.2.5 1.6.9c.3.5.5.9.5 1.5v.2c0 .8-.4 1.5-1.2 2c-.8.5-1.9.7-3.3.7c-1.4 0-2.5-.2-3.3-.7c-.8-.5-1.2-1.2-1.2-2v-.2c0-.6.2-1 .6-1.5c.3-.4.8-.7 1.5-.9c.7-.3 1.5-.4 2.4-.4zm3.1 2.8c0-.5-.2-.9-.8-1.2c-.5-.3-1.3-.4-2.3-.4c-1 0-1.7.1-2.3.4c-.5.3-.8.7-.8 1.2v.1c0 .5.3.9.8 1.2c.6.3 1.3.5 2.3.5c1 0 1.8-.2 2.3-.5c.6-.3.8-.7.8-1.2v-.1zm14.3-8.3v-3.8h1.4v8.8h-1.4v-3.9h-3.1v-1.1h3.1zm-2.9 4.5c-1.5-.8-2.6-1.9-3.4-3.1c-.8 1.4-2 2.5-3.4 3.3l-.8-1c1.1-.6 1.9-1.3 2.5-2.1c.7-.8 1-1.5 1-2.3c-.01-.01 0-.9 0-.9h-2.8v-1.1h7v1.1H110v.9c0 .7.3 1.4.9 2.2c.6.7 1.5 1.4 2.5 1.9l-.7 1.1zm4.3 6.6h-8.8V193h8.8v5.3zm-1.4-4.2h-6v3h6v-3zm10.1-5.1c-.9 0-1.7-.1-2.3-.3c-.7-.2-1.2-.5-1.6-.9c-.3-.4-.5-.8-.5-1.3v-.2c0-.5.2-1 .5-1.3c.4-.4.9-.7 1.6-.9c.6-.2 1.4-.3 2.3-.3c.9 0 1.7.1 2.3.3c.7.2 1.2.5 1.6.9c.3.3.5.8.5 1.3v.2c0 .5-.2.9-.5 1.3c-.4.4-.9.7-1.6.9c-.6.2-1.4.3-2.3.3zm0-1.1c.9 0 1.7-.1 2.2-.4c.5-.3.8-.6.8-1.1v-.1c0-.4-.3-.8-.8-1.1c-.5-.2-1.3-.4-2.2-.4c-1 0-1.7.2-2.2.4c-.5.3-.8.7-.8 1.1v.1c0 .5.3.8.8 1.1c.5.3 1.2.4 2.2.4zm-6.9 2.2h13.8v1.1h-13.8v-1.1zm2.4 2.4h9v3.5h-7.6v1.3h8v1.1h-9.4v-3.5h7.6v-1.2h-7.6v-1.2z" stroke="none" fill="#fff"/></g><g id="Polygon2767"><path d="m11.2 159.2v-3.8h1.4v8.8h-1.4v-3.9h-3v-1.1h3zm-2.8 4.5c-1.5-.8-2.7-1.9-3.4-3.1c-.9 1.4-2 2.5-3.5 3.3l-.7-1c1-.6 1.9-1.3 2.5-2.1c.6-.8 1-1.5 1-2.3c-.04-.01 0-.9 0-.9H1.5v-1.1h6.9v1.1H5.7s-.04.86 0 .9c0 .7.3 1.4.9 2.2c.6.7 1.4 1.4 2.5 1.9l-.7 1.1zm4.2 6.6H3.9V165h8.7v5.3zm-1.4-4.2H5.3v3h5.9v-3zm14.9-4.9h2.5v1.1h-2.5v7.5h-1.4v-14.4h1.4v5.8zm-6.5-4h-1.7c-.5-.1-.9-.2-1.3-.3v-1.1c.4.1.8.1 1.3.2c.4 0 1 .1 1.7.1c0-.04 1.9 0 1.9 0v1.1s-1.9.02-1.9 0zm.2 3.3c0 .7.3 1.5 1 2.3c.7.8 1.5 1.6 2.7 2.3l-.7 1c-1.6-1-2.9-2.1-3.7-3.5c-.4.8-1 1.5-1.6 2.1c-.6.6-1.3 1.2-2.1 1.7l-.8-1.1c.7-.4 1.4-.9 1.9-1.5c.6-.5 1.1-1.1 1.4-1.7c.3-.6.5-1.1.5-1.6c-.03.02 0-.9 0-.9h-3.2v-1.1h7.7v1.1h-3.1s-.02.89 0 .9zm22.8-.2v-4.9h1.4v14.4h-1.4v-8.3h-2.5v-1.2h2.5zm-10.1-3.5h7.9v1.2h-7.9v-1.2zm6.3 7.3c.7 0 1.4-.2 1.9-.3l.2 1.2c-1.4.2-2.8.4-4.1.5c-1.2.1-2.8.1-4.6.1c-.01.02 0-1.1 0-1.1h1.8l-.3-5.8l1.4-.1s.29 5.82.3 5.8c.7 0 1.4-.1 2.1-.1c-.03-.02.3-5.7.3-5.7l1.3.1s-.28 5.44-.3 5.4zm17.7 5.7v-14.4h1.4v14.4h-1.4zm-5.3-9.4c0 .7.4 1.5 1.1 2.3c.6.8 1.5 1.6 2.6 2.3l-.7 1c-1.6-1-2.8-2.1-3.7-3.4c-.9 1.5-2.1 2.7-3.6 3.7l-.8-1.1c1.1-.6 2-1.4 2.7-2.3c.7-.9 1-1.7 1-2.5c.04.02 0-2.4 0-2.4h-3.1v-1.1h7.7v1.1h-3.2s.05 2.39 0 2.4zm20.3-.1v1.1h-9.4v-5.3h1.5v4.2h7.9zm-11.7 2.8h13.7v1.1H59.8v-1.1zm2.3 2.6h1.4v3.2h8v1.2h-9.4v-4.4zm16.4-2.4c.8-.3 1.6-.6 2.3-1.2c.8-.5 1.4-1 1.9-1.6c.4-.5.7-1.1.7-1.5c-.04-.03 0-2.4 0-2.4h1.4v2.4c0 .4.2.9.7 1.5c.5.5 1.1 1 1.8 1.5c.8.5 1.5.8 2.3 1.1l-.4 1.1c-1-.3-2-.8-2.9-1.4c-.9-.6-1.7-1.2-2.2-1.9c-.6.7-1.3 1.4-2.2 2c-.9.7-1.9 1.2-2.9 1.5l-.5-1.1zm-1.3 4.1H91v1.2H77.2v-1.2zm25.5-6.7h2.6v1.1h-2.6v8h-1.4v-14.4h1.4v5.3zm-8.8 3.7c.8 0 1.8-.1 2.8-.2c1.1-.1 2.2-.3 3.2-.5l.2 1.1c-1.3.3-2.6.5-3.8.6c-1.2.1-2.6.1-4.1.1c-.04.04 0-8.7 0-8.7h6.5v1.2h-5.1v2.4h4.7v1.2h-4.7v2.8s.32-.04.3 0zm22.5-5.1v-3.9h1.4v8.6h-1.4v-3.5h-1.8v3.5h-1.4v-8.4h1.4v3.7h1.8zm-10.5-2.7h5.6v6.5h-5.6v-6.5zm1.3 5.3h2.9v-4.2h-2.9v4.2zm2.6 4.5h6.6v-1.6h1.4v5.5h-9.4v-5.5h1.4v1.6zm0 1.2v1.5h6.6v-1.5h-6.6zm23.3 2.2v-14.4h1.4v14.4h-1.4zm-5.2-9.6c0 .7.4 1.5 1.1 2.4c.7.9 1.5 1.6 2.6 2.3l-.7 1.1c-1.6-1-2.8-2.2-3.7-3.6c-.4.8-1 1.5-1.6 2.1c-.6.7-1.3 1.3-2.1 1.7l-.7-1c.7-.4 1.3-.9 1.9-1.5c.5-.6 1-1.2 1.3-1.8c.3-.6.5-1.2.5-1.7v-3.5h1.4s.04 3.52 0 3.5zm20-1.2c0 1.2 0 2.3-.2 3.3c-.1 1.1-.3 2.3-.6 3.7l-1.4-.4c.5-2.1.8-4.3.8-6.6c.01-.05 0-.9 0-.9h-8v-1.2h9.4s.02 2.15 0 2.1zm-11.5 8.5h13.8v1.1h-13.8v-1.1zm24.6 2.3v-14.4h1.4v14.4H161zm-7.7-5.4c.8 0 1.8 0 2.9-.1c1.1-.2 2.2-.3 3.2-.6l.2 1.2c-1.3.2-2.6.4-3.9.5c-1.2.2-2.6.2-4.2.2c.02-.01 0-8.8 0-8.8h1.4v7.6s.39.02.4 0zm21.6-3.1v-5.9h1.4v14.4h-1.4v-7.4H172v-1.1h2.9zm-5.5-4.1h-1.7c-.5-.1-.9-.2-1.3-.3v-1.1c.3.1.8.1 1.2.2c.5 0 1.1.1 1.8.1c-.04-.04 1.9 0 1.9 0v1.1s-1.94.02-1.9 0zm.1 3.3c0 .7.4 1.5 1 2.3c.7.8 1.6 1.6 2.7 2.3l-.7 1c-1.6-1-2.8-2.1-3.7-3.5c-.4.8-.9 1.5-1.6 2.1c-.6.6-1.3 1.2-2 1.7l-.8-1.1c.7-.4 1.3-.9 1.9-1.5c.6-.5 1-1.1 1.3-1.7c.4-.6.5-1.1.5-1.6c.03.02 0-.9 0-.9H165v-1.1h7.7v1.1h-3.2s.03.89 0 .9z" stroke="none" fill="#fff"/></g><g id="Polygon2766"><path d="m2.8 128.6h9.2v6.7H2.8v-6.7zm1.4 5.5h6.4v-4.3H4.2v4.3zm3.9 2v3.4h6.2v1.1H.6v-1.1h6.1v-3.4h1.4zm13.3-5.5c-.6.7-1.3 1.2-2.1 1.7c-.9.5-1.8.9-2.8 1.2l-.5-1.1c.8-.2 1.6-.5 2.3-.9c.7-.4 1.3-.8 1.7-1.3c.4-.4.6-.9.6-1.3c.04.04 0-1.3 0-1.3h1.5s-.02 1.34 0 1.3c0 .4.2.8.6 1.3c.4.4 1 .8 1.7 1.1c.7.4 1.4.7 2.3.9l-.5 1.1c-1-.3-1.9-.6-2.8-1.1c-.8-.5-1.5-1-2-1.6zm-6.9 5.2v-1.1h13.7v1.1H14.5zm3.7 2.7h6.3v-1.6h1.4v5.4h-9.1v-5.4h1.4v1.6zm0 1.2v1.4h6.3v-1.4h-6.3zm17.1-3.6c-1 0-1.9-.1-2.6-.5c-.7-.3-1.2-.7-1.6-1.3c-.4-.6-.6-1.2-.6-1.9v-.2c0-.7.2-1.4.6-1.9c.4-.6.9-1 1.6-1.3c.7-.4 1.6-.5 2.6-.5c1 0 1.8.1 2.5.5c.8.3 1.3.7 1.7 1.3c.4.5.6 1.2.6 1.9v.2c0 .7-.2 1.3-.6 1.9c-.4.6-.9 1-1.7 1.3c-.7.4-1.5.5-2.5.5zm0-1.1c1.1 0 1.9-.3 2.5-.8c.6-.4.9-1.1.9-1.9v-.1c0-.7-.3-1.4-.9-1.8c-.6-.5-1.4-.8-2.5-.8c-1.1 0-1.9.3-2.5.8c-.6.4-.9 1.1-.9 1.8v.1c0 .8.3 1.5.9 1.9c.6.5 1.4.8 2.5.8zm-6.9 4.5h13.8v1.1H28.4v-1.1zm21.5-3v3h6.2v1.1H42.3v-1.1h6.2v-3h-3.9v-4.7h7.8v-2.2h-7.8v-1.1h9.2v4.5H46v2.4h8.2v1.1h-4.3zm21.9 1.8h-1.4v-4.1h-2.5v-1.1h2.5v-2.4h-2.5v-1.2h2.5v-2.1h1.4v10.9zm-4.5-6.2c0 .6-.1 1.2-.4 1.7c-.3.6-.8 1-1.3 1.3c-.5.3-1.1.5-1.8.5c-.7 0-1.3-.2-1.8-.5c-.5-.3-1-.7-1.3-1.3c-.3-.5-.4-1.1-.4-1.7v-.4c0-.6.1-1.2.4-1.8c.3-.5.8-.9 1.3-1.2c.5-.3 1.1-.5 1.8-.5c.7 0 1.3.2 1.8.5c.5.3 1 .7 1.3 1.2c.3.6.4 1.2.4 1.8v.4zm-5.6-.1c0 .7.2 1.3.6 1.8c.4.4.9.6 1.5.6c.6 0 1.2-.2 1.6-.6c.4-.5.6-1.1.6-1.8v-.3c0-.7-.2-1.2-.6-1.7c-.4-.4-1-.6-1.6-.6c-.6 0-1.1.2-1.5.6c-.4.5-.6 1-.6 1.7v.3zm2.8 5.2v3.8h7.9v1.1h-9.3v-4.9h1.4zm16.5-8.6c-1.3 0-2.2-.1-2.9-.4v-1c.4.1.8.1 1.3.2h1.6c.04.05 2 0 2 0v1.2s-1.96-.03-2 0zm-5.6 4.1c.7-.1 1.4-.2 2-.4c.7-.3 1.2-.5 1.6-.8c.4-.3.7-.6.8-.9c-.01-.03-3.5 0-3.5 0v-1.2h8.6v1.2s-3.57-.03-3.6 0c.2.4.7.8 1.4 1.2c.8.3 1.8.6 3 .8l-.3 1.1c-1.1-.1-2-.4-2.8-.7c-.8-.3-1.5-.7-2-1.2c-1.2 1.1-2.8 1.8-4.8 2.1l-.4-1.2zm12 1.8v1.2h-6.1v1.1h3.7v3.4h-7.5v1.1h8v1.1h-9.4v-3.3h7.5V138h-7.5v-1.2h3.8v-1.1h-6.2v-1.2h13.7zm11.8-2.6h2.5v1.2h-2.5v3.3h-1.4v-9h1.4v4.5zm-6.6-2.9c-.6 0-1.2-.1-1.6-.1c-.5-.1-.9-.2-1.3-.3v-1.1c.4.2.8.2 1.3.3h1.6c-.04.03 1.8 0 1.8 0v1.2s-1.84-.05-1.8 0zm-4.5.8h8v1.2h-8v-1.2zm7.1 4.4c0 .4-.1.8-.4 1.2c-.3.3-.6.6-1.1.8c-.5.2-1 .4-1.6.4c-.6 0-1.1-.2-1.6-.4c-.5-.2-.8-.5-1.1-.8c-.3-.4-.4-.8-.4-1.2v-.2c0-.4.1-.8.4-1.2c.2-.4.6-.7 1.1-.9c.5-.2 1-.3 1.6-.3c.6 0 1.1.1 1.6.3c.5.2.8.5 1.1.9c.3.4.4.8.4 1.2v.2zm-4.9-.1c0 .4.2.8.5 1c.3.2.8.4 1.3.4c.5 0 1-.2 1.3-.4c.3-.2.5-.6.5-1v-.1c0-.4-.2-.7-.5-.9c-.3-.3-.8-.4-1.3-.4c-.5 0-1 .1-1.3.4c-.3.2-.5.5-.5.9v.1zm1.5 4.5h6v-1.4h1.4v5.1h-8.8v-5.1h1.4v1.4zm0 1.2v1.3h6v-1.3h-6zm20.4 2v-14.4h1.4v14.4h-1.4zm-7.7-5.4c.8 0 1.8 0 2.9-.1c1.1-.2 2.2-.3 3.2-.6l.2 1.2c-1.3.2-2.6.4-3.9.5c-1.2.2-2.6.2-4.2.2c.02-.01 0-8.8 0-8.8h1.4v7.6s.4.02.4 0zm22.5-3.7h2.6v1.1H127v8h-1.4v-14.4h1.4v5.3zm-8.8 3.6c.8 0 1.8 0 2.9-.1c1-.1 2.1-.3 3.1-.5l.2 1.1c-1.3.3-2.6.5-3.8.6c-1.2.1-2.6.1-4.1.1c-.02.01 0-8.6 0-8.6h6.4v1.1h-5v6.3s.34.04.3 0zm13.5 4.2h-1.9v-2.1h1.9v2.1zm14.7 1.3v-14.4h1.5v14.4h-1.5zm-5.9-7.5c-.7 0-1.3-.2-1.9-.4c-.5-.2-.9-.6-1.2-1c-.4-.4-.5-.9-.5-1.4v-.2c0-.5.1-1 .5-1.4c.3-.4.7-.8 1.2-1c.6-.2 1.2-.4 1.9-.4c.7 0 1.4.2 1.9.4c.6.2 1 .6 1.3 1c.3.4.5.9.5 1.4v.2c0 .5-.2 1-.5 1.4c-.3.4-.7.8-1.3 1c-.5.2-1.2.4-1.9.4zm-2.3-2.8c0 .5.2.9.6 1.2c.5.3 1 .4 1.7.4c.7 0 1.3-.1 1.7-.4c.4-.3.6-.7.6-1.2v-.2c0-.5-.2-.9-.6-1.2c-.4-.3-1-.5-1.7-.5c-.7 0-1.2.2-1.6.5c-.5.3-.7.7-.7 1.2v.2zm7.5 4.6c-1.5.2-2.9.4-4.3.5c-.03.02 0 5 0 5H140s-.03-4.9 0-4.9h-4.3v-1.1s3.48-.04 3.5 0c2.1 0 4.1-.2 6.3-.7l.2 1.2zm15.6-3.4h2.6v1.1h-2.6v8h-1.4v-14.4h1.4v5.3zm-7.2-4.3c.8 0 1.4.2 2 .6c.6.4 1 .9 1.3 1.6c.3.7.5 1.5.5 2.4v.4c0 .9-.2 1.7-.5 2.4c-.3.7-.7 1.2-1.3 1.6c-.6.4-1.2.6-2 .6c-.8 0-1.5-.2-2.1-.6c-.5-.4-1-.9-1.3-1.6c-.3-.7-.4-1.5-.4-2.4v-.4c0-.9.1-1.7.4-2.4c.3-.7.8-1.2 1.3-1.6c.6-.4 1.3-.6 2.1-.6zm2.4 4.7c0-1.1-.2-2-.6-2.6c-.5-.6-1.1-.9-1.8-.9c-.8 0-1.4.3-1.8.9c-.4.6-.7 1.5-.7 2.6v.3c0 1.1.3 1.9.7 2.5c.4.6 1 .9 1.8.9c.7 0 1.3-.3 1.8-.9c.4-.6.6-1.4.6-2.5v-.3zm18.5-.5v-5.2h1.4v14.4H175v-8h-1.8v7.5h-1.3v-13.7h1.3v5h1.8zm-8.6 3.9c.6 0 1.3-.1 2.1-.1c.8-.1 1.6-.2 2.4-.4l.2 1.1c-1 .2-2 .3-3 .4c-1.1.1-2.2.2-3.5.2c.02-.04 0-5.2 0-5.2h3.9v-2.6h-3.9v-1.1h5.3v4.9H166v2.8s.37-.03.4 0zm18.8 0v3h6.1v1.1h-13.7v-1.1h6.2v-3h-3.9v-4.7h7.7v-2.2h-7.7v-1.1h9.1v4.5h-7.7v2.4h8.1v1.1h-4.2z" stroke="none" fill="#fff"/></g><g id="Polygon2765"><path d="m7.9 101.1c-.6 0-1.2-.1-1.7-.1c-.4-.1-.9-.1-1.3-.3v-1c.4.1.9.2 1.3.2c.5 0 1 .1 1.7.1c.02-.04 2 0 2 0v1.1s-1.98-.04-2 0zm-5.4.9h9.9v1.1H2.5V102zm1.2 4c0-.4.2-.8.5-1.1c.3-.4.7-.7 1.3-.9c.5-.2 1.2-.3 1.9-.3c.8 0 1.4.1 2 .3c.6.2 1 .5 1.3.9c.3.3.5.7.5 1.1v.2c0 .4-.2.8-.5 1.2c-.3.3-.7.6-1.3.8c-.6.2-1.2.3-2 .3c-.7 0-1.4-.1-1.9-.3c-.6-.2-1-.5-1.3-.8c-.3-.4-.5-.8-.5-1.2v-.2zm6.1.1c0-.4-.2-.7-.7-.9c-.4-.3-.9-.4-1.7-.4c-.7 0-1.3.1-1.7.4c-.4.2-.6.5-.6.9c0 .4.2.7.6.9c.4.3 1 .4 1.7.4c.8 0 1.3-.1 1.7-.4c.5-.2.7-.5.7-.9zm-9.2 3.2h13.7v1.2H8.1v3.7H6.7v-3.7H.6v-1.2zm25.9 1h-1.4v-3.9h-2.8v-1.1h2.8V103h-2.8v-1.2h2.8v-2.4h1.4v10.9zm-11-9.8h6.1v7.2h-6.1v-7.2zm1.4 6h3.3v-4.8h-3.3v4.8zm2.3 2.7v3.8h7.9v1.1h-9.3v-4.9h1.4zm16.1-4.2c-.9 0-1.7-.1-2.3-.3c-.7-.2-1.2-.5-1.6-.9c-.3-.4-.5-.8-.5-1.3v-.2c0-.5.2-1 .5-1.3c.4-.4.9-.7 1.6-.9c.6-.2 1.4-.3 2.3-.3c.9 0 1.7.1 2.3.3c.7.2 1.2.5 1.5.9c.4.3.6.8.6 1.3v.2c0 .5-.2.9-.6 1.3c-.3.4-.8.7-1.5.9c-.6.2-1.4.3-2.3.3zm0-1.1c.9 0 1.7-.1 2.2-.4c.5-.3.8-.6.8-1.1v-.1c0-.4-.3-.8-.8-1.1c-.5-.2-1.3-.4-2.2-.4c-1 0-1.7.2-2.2.4c-.6.3-.8.7-.8 1.1v.1c0 .5.2.8.8 1.1c.5.3 1.2.4 2.2.4zm-6.9 2.2h13.8v1.1H28.4v-1.1zm2.4 2.4h9v3.5h-7.6v1.3h8v1.1h-9.4v-3.5h7.6v-1.2h-7.6v-1.2zm22.6-3.3v1.7h6.2v1.2H45.8v-1.2h6.2v-1.7h-3.8v-5h9v1.1h-7.6v2.7h8v1.2h-4.2zm2.3 5.5h-7.9v-1.1h9.3v4.7h-1.4v-3.6zm7.9-5.9h7.8v1.1h-9.2v-5.8h8.9v1.1h-7.5v1.2h7v1.1h-7v1.3zm-3.8 3.7v-1.2h13.7v1.2H59.8zm9.8 2.5h-7.9v-1.1h9.3v4.4h-1.4V111zm15.7-5.7h2.5v1.2h-2.5v7.3h-1.4V99.4h1.4v5.9zm-6.4-4.1h-1.7c-.5-.1-.9-.2-1.3-.3v-1.1c.4.1.8.1 1.2.2c.5 0 1.1.1 1.8.1c-.02-.04 1.9 0 1.9 0v1.1s-1.92.02-1.9 0zm3.8 2.4H74v-1.2h8.7v1.2zm-4.3.8c.6 0 1.2.2 1.7.4c.5.3.9.6 1.2 1c.3.5.4.9.4 1.5v.2c0 .6-.1 1-.4 1.5c-.3.4-.7.8-1.2 1c-.5.3-1.1.4-1.7.4c-.7 0-1.2-.1-1.7-.4c-.5-.2-.9-.6-1.2-1c-.3-.5-.4-.9-.4-1.5v-.2c0-.6.1-1 .4-1.5c.3-.4.7-.7 1.2-1c.5-.2 1-.4 1.7-.4zm2 2.9c0-.5-.2-.9-.6-1.3c-.4-.3-.8-.4-1.4-.4c-.6 0-1.1.1-1.4.4c-.4.4-.6.8-.6 1.3v.2c0 .5.2.9.6 1.3c.3.3.8.4 1.4.4c.6 0 1-.1 1.4-.4c.4-.4.6-.8.6-1.3v-.2zm17.2-5.4h-7.8v-1.1h9.3s-.04 2.07 0 2.1c0 .9-.1 1.9-.2 2.8c-.1 1-.3 2.1-.6 3.2l-1.4-.3c.3-1 .5-1.9.6-2.9c.1-.9.1-1.9.1-2.9c.05-.02 0-.9 0-.9zm-3.3 3.9v5.7h7.1v1.1H87.6v-1.1h5.3v-5.7h1.4zm22.1-1.2v-5.2h1.4v14.4h-1.4v-8h-1.7v7.5h-1.4V99.6h1.4v5h1.7zm-4.8 4.8H106V101h5.6v8.4zm-1.3-7.3h-2.9v6.2h2.9v-6.2zm16-1.4c-.6 0-1.2-.1-1.7-.1c-.4-.1-.9-.1-1.3-.3v-1c.4.1.8.2 1.3.2c.5 0 1 .1 1.7.1c.02-.04 2 0 2 0v1.1s-1.98-.04-2 0zm-5.4.7h9.9v1.1h-9.9v-1.1zm5.6 6.7h6.2v1.2H119v-1.2h6.1s.04-.96 0-1c-.9 0-1.6-.3-2.1-.6c-.6-.4-.8-.8-.8-1.3v-.2c0-.4.1-.7.4-1c.3-.3.7-.6 1.3-.7c.6-.2 1.2-.3 1.9-.3c.8 0 1.4.1 2 .3c.5.1 1 .4 1.3.7c.3.3.4.6.4 1v.2c0 .5-.3.9-.8 1.3c-.5.3-1.3.6-2.2.6c.04.04 0 1 0 1zm-2.9-3c0 .3.2.6.6.7c.4.2.9.3 1.6.3c.7 0 1.3-.1 1.7-.3c.4-.1.6-.4.6-.7v-.1c0-.2-.2-.5-.6-.7c-.4-.2-.9-.2-1.6-.2c-.7 0-1.3 0-1.7.2c-.4.2-.6.4-.6.7v.1zm5.2 6.4h-7.9v-1.1h9.3v3.9h-1.4v-2.8zm14.7-8.4v-3.7h1.4v8.9h-1.4v-4h-3v-1.2h3zm-6.2 1.5c-.9 1.4-2 2.5-3.5 3.3l-.7-1c1.1-.6 1.9-1.3 2.5-2.1c.7-.8 1-1.5 1-2.3c-.03-.01 0-.9 0-.9h-2.8v-1.1h7v1.1H138s-.02.86 0 .9c0 .7.3 1.4.9 2.2c.6.7 1.4 1.4 2.5 1.9l-.7 1.1c-1.5-.8-2.7-1.9-3.4-3.1zm6.2 5.7h-7.6v-1.1h9v5.2h-1.4v-4.1zm15.4 0h-1.4V99.4h1.4v10.9zm-7.8-2.7c-.7 0-1.3-.2-1.9-.5c-.5-.3-.9-.7-1.2-1.3c-.4-.5-.5-1.1-.5-1.7v-.4c0-.6.1-1.2.5-1.8c.3-.5.7-.9 1.2-1.2c.6-.3 1.2-.5 1.9-.5c.7 0 1.3.2 1.8.5c.6.3 1 .7 1.3 1.2c.3.6.5 1.2.5 1.8v.4c0 .6-.2 1.2-.5 1.7c-.3.6-.7 1-1.3 1.3c-.5.3-1.1.5-1.8.5zm0-1.2c.7 0 1.2-.2 1.6-.6c.4-.5.6-1.1.6-1.8v-.3c0-.7-.2-1.2-.6-1.7c-.4-.4-1-.6-1.6-.6c-.7 0-1.2.2-1.6.6c-.4.5-.6 1-.6 1.7v.3c0 .7.2 1.3.6 1.7c.4.5.9.7 1.6.7zm-1 2.8h1.4v3.8h8v1.1h-9.4v-4.9z" stroke="none" fill="#fff"/></g><g id="Polygon2764"><path d="m8.5 84.5H1.4V72.3h1.5v11h5.6v1.2zm8.3 0H9.4V72.3h7.3v1.3h-5.8v4h4.9v1.3h-4.9v4.4h5.9v1.2zm1.3 0V72.3s3.77.04 3.8 0c1.1 0 2.2.3 3.1.8c.8.5 1.5 1.2 2 2.1c.5.9.7 1.9.7 3v.4c0 1.1-.2 2.1-.7 3c-.5.9-1.2 1.6-2 2.1c-.9.5-2 .8-3.1.8h-3.8zm3.7-1.2c.9 0 1.6-.2 2.3-.6c.6-.4 1.2-1 1.5-1.7c.4-.7.6-1.5.6-2.4v-.4c0-.9-.2-1.7-.6-2.4c-.3-.7-.9-1.3-1.5-1.7c-.7-.3-1.4-.5-2.3-.5c.04-.04-2.2 0-2.2 0v9.7s2.24-.01 2.2 0zm21.9 2.5h-1.4V71.4h1.4v14.4zm-10.9-9.2h4.8V74h-4.8v-1.2h6.2v5h-4.8v2.9s.34-.04.3 0c.8 0 1.8-.1 2.9-.2c1-.1 2.1-.3 3.1-.5l.3 1.1c-1.4.3-2.7.5-3.9.6c-1.2.1-2.6.1-4.1.1c-.02.03 0-5.2 0-5.2zm23.4 0v-5.2h1.4v14.4h-1.4v-8h-2.4v-1.2h2.4zm-6.7-4.1c.8 0 1.4.1 1.9.5c.6.4 1 .9 1.3 1.6c.3.7.4 1.5.4 2.4v.4c0 .9-.1 1.7-.4 2.4c-.3.7-.7 1.2-1.3 1.6c-.5.4-1.1.6-1.9.6c-.7 0-1.4-.2-1.9-.6c-.5-.4-.9-.9-1.2-1.6c-.3-.7-.5-1.5-.5-2.4v-.4c0-.9.2-1.7.5-2.4c.3-.7.7-1.2 1.2-1.6c.5-.4 1.2-.5 1.9-.5zm2.2 4.6c0-1.1-.2-2-.5-2.6c-.4-.6-1-.9-1.7-.9c-.7 0-1.2.3-1.6.9c-.4.6-.6 1.5-.6 2.6v.3c0 1.1.2 1.9.6 2.5c.4.6.9.9 1.6.9c.7 0 1.3-.3 1.7-.9c.3-.6.5-1.4.5-2.5v-.3zm21.2-1.3c-1 .1-2.3.2-4.1.2h-4v-1.1s4.02-.04 4 0c1.8 0 3.2-.1 4.2-.2v-1.4h-7.7v-1.2h9.1v1.8c0 1.4-.2 2.8-.5 4.1l-1.4-.3c.2-.5.3-1.2.4-1.9zM70 77.1v2h6.8v1.2H63v-1.2h5.6v-2h1.4zm4.4 9.1h-9v-4.6h9v4.6zM73 82.8h-6.2v2.3h6.2v-2.3zm14.6 3V71.4h1.4v14.4h-1.4zm-8.2-9.7h3.8v-3.4h1.4v8.9H78v-8.9h1.4v3.4zm0 1.2v3.1h3.8v-3.1h-3.8zm22.8 8.5V71.4h1.4v14.4h-1.4zM96 76h3.2v-4.4h1.4v13.7h-1.4v-8.2H96V76zm-2.7 4.2c1.4 0 2.9-.2 4.5-.5l.2 1.2c-2 .3-4 .5-6.3.5c.01-.03 0-8.8 0-8.8h1.4v7.6h.2zm23.5 5.6h-1.4V71.4h1.4v14.4zm-7.5-3.8c-.8 0-1.5-.2-2.1-.6c-.5-.4-1-.9-1.3-1.6c-.3-.7-.4-1.5-.4-2.4v-.4c0-.9.1-1.7.4-2.4c.3-.7.8-1.2 1.3-1.6c.6-.4 1.3-.6 2.1-.6c.8 0 1.4.2 2 .6c.6.4 1 .9 1.3 1.6c.3.7.5 1.5.5 2.4v.4c0 .9-.2 1.7-.5 2.4c-.3.7-.7 1.2-1.3 1.6c-.6.4-1.2.6-2 .6zm0-1.2c.7 0 1.3-.3 1.8-.9c.4-.6.6-1.4.6-2.5v-.3c0-1.1-.2-2-.6-2.6c-.5-.6-1.1-.9-1.8-.9c-.8 0-1.4.3-1.8.9c-.4.6-.7 1.5-.7 2.6v.3c0 1.1.3 1.9.7 2.5c.4.6 1 .9 1.8.9zm21.4 1.5h-1.4v-5h-3.1v-1.2h3.1v-1.5h-3.1v-1.2h3.1v-2h1.4v10.9zm-4.1-2.1c-1.6-.9-2.8-2-3.5-3.1c-.4.7-1 1.3-1.6 1.9c-.6.6-1.2 1.1-1.9 1.6l-.8-1.1c1.1-.6 1.9-1.4 2.6-2.2c.6-.8.9-1.6.9-2.4c.03 0 0-2.6 0-2.6h1.4s.04 2.57 0 2.6c0 .7.4 1.4 1 2.2c.6.7 1.5 1.4 2.5 2l-.6 1.1zm-3.2 1v3.8h7.9v1.1H122v-4.9h1.4zm24.1-5.9v-3.9h1.4v9.1h-1.4v-4h-1.9v3.9h-1.3v-8.8h1.3v3.7h1.9zm-4.2 3.8c-1 .1-2 .3-3 .3c-1 .1-2.1.2-3.4.2c.04-.04 0-4.3 0-4.3h3.8v-1.7h-3.8v-1.1h5.2v4h-3.8v1.9h.4c.6 0 1.3 0 2.1-.1l2.4-.3l.1 1.1zm5.6 7.2h-9.4v-5h9.4v5zm-1.4-3.8h-6.6v2.6h6.6v-2.6zm4.4-9.7H162v1.1h-10.1v-1.1zm7.8 6.1h2.4v1.2h-10.4v-1.2h2.4l-.3-4.4l1.4-.1l.2 4.5h3l.3-4.5l1.3.1l-.3 4.4zm-9.7 5.7v-1.1h13.8v1.1H150zm25.7-8.3v1.1h-9.4v-5.3h1.4v4.2h8zM164 79.1h13.7v1.1H164v-1.1zm2.3 2.6h1.4v3.2h8v1.2h-9.4v-4.4z" stroke="none" fill="#fff"/></g><g id="Polygon2763"><path d="m.9 36.6c0-1.4.2-2.7.8-3.8c.6-1.1 1.4-2 2.5-2.6c1.1-.6 2.4-.9 3.9-.9c.8 0 1.6.1 2.4.4c.8.2 1.5.6 2 1v2.9c-.5-.7-1.2-1.3-1.9-1.7c-.7-.4-1.5-.6-2.4-.6c-.9 0-1.6.2-2.3.7c-.7.4-1.3 1-1.7 1.8c-.4.8-.6 1.7-.6 2.8v.3c0 1.1.2 2 .6 2.8c.4.8 1 1.4 1.7 1.8c.7.5 1.5.7 2.3.7c.9 0 1.7-.2 2.4-.6c.7-.4 1.4-1 1.9-1.6v2.9c-.5.4-1.2.7-2 1c-.8.2-1.6.4-2.4.4c-1.5 0-2.8-.4-3.9-1c-1.1-.6-1.9-1.5-2.5-2.6c-.6-1.1-.8-2.4-.8-3.8v-.3zm12.3 2c0-1 .2-1.9.7-2.7c.4-.8 1-1.4 1.8-1.9c.8-.4 1.7-.7 2.7-.7c1 0 1.9.3 2.7.7c.8.5 1.4 1.1 1.8 1.9c.5.8.7 1.7.7 2.7v.3c0 1.1-.2 2-.7 2.8c-.4.8-1 1.4-1.8 1.9c-.8.4-1.7.7-2.7.7c-1 0-1.9-.3-2.7-.7c-.8-.5-1.4-1.1-1.8-1.9c-.5-.8-.7-1.8-.7-2.8v-.3zm2.5.3c0 1 .3 1.9.7 2.5c.5.7 1.2 1 2 1c.8 0 1.5-.3 1.9-1c.5-.6.8-1.5.8-2.5v-.3c0-1-.3-1.8-.8-2.4c-.4-.7-1.1-1-1.9-1c-.8 0-1.5.3-2 1c-.4.6-.7 1.4-.7 2.4v.3zm8.9 5.1V33.6h2.3s.08 1.37.1 1.4c.4-.5.9-.9 1.4-1.2c.4-.3 1-.5 1.7-.5c.6 0 1.1.2 1.6.5c.6.3.9.8 1.2 1.4c.4-.6.9-1.1 1.5-1.4c.5-.3 1.1-.5 1.8-.5c.6 0 1.1.2 1.6.4c.5.3.9.7 1.2 1.2c.3.6.4 1.2.4 2c.04-.01 0 7.1 0 7.1H37v-7.1c0-1.2-.5-1.7-1.4-1.7c-.5 0-.9.2-1.4.6c-.4.4-.8.9-1 1.5c.05-.05 0 6.7 0 6.7h-2.4s.04-7.2 0-7.2c0-.5-.1-1-.3-1.2c-.3-.3-.6-.4-1.1-.4c-.4 0-.9.2-1.3.5c-.4.4-.8.9-1 1.5c-.01.02 0 6.8 0 6.8h-2.5zM41 44V29.4h2.4v5.3c.4-.4.8-.8 1.4-1c.5-.3 1.1-.4 1.7-.4c.9 0 1.6.2 2.3.7c.8.4 1.3 1.1 1.7 1.9c.5.8.7 1.8.7 2.9c0 1.1-.2 2.1-.7 2.9c-.4.8-.9 1.5-1.7 1.9c-.7.4-1.4.7-2.3.7c-.6 0-1.2-.2-1.8-.5c-.5-.2-1-.6-1.3-1.1c.01.03-.1 1.3-.1 1.3H41zm2.4-3.3c.3.5.6.9 1.1 1.2c.4.3.9.5 1.4.5c.5 0 .9-.1 1.4-.4c.4-.3.7-.7.9-1.2c.3-.6.4-1.2.4-2c0-.8-.1-1.4-.4-2c-.2-.5-.6-.9-1-1.2c-.4-.3-.9-.4-1.3-.4c-.5 0-1 .1-1.5.4c-.4.3-.7.7-1 1.3v3.8zM54.7 32h-2.5v-2.6h2.5v2.6zm0 12h-2.5V33.6h2.5V44zm4.1-12h-2.4v-2.6h2.4v2.6zm0 12h-2.4V33.6h2.4V44zm1.7 0V33.6h2.3s.18 1.51.2 1.5c.4-.5.8-.9 1.4-1.3c.6-.3 1.2-.5 1.9-.5c1.1 0 2 .4 2.7 1c.6.7.9 1.7.9 2.9c.04 0 0 6.8 0 6.8h-2.4s-.01-6.8 0-6.8c0-1.3-.5-2-1.6-2c-.6 0-1.2.3-1.8.7c-.5.5-.9 1.1-1.1 1.8c-.02-.05 0 6.3 0 6.3h-2.5zm10.3-2.9c0-.8.2-1.5.7-2c.4-.5.9-.8 1.5-1c.6-.3 1.4-.4 2.2-.6l2.2-.3c-.1-1.4-.9-2.1-2.5-2.1c-.6 0-1.1.2-1.7.5c-.6.3-1.1.7-1.5 1.3v-2.4c1-.8 2.3-1.2 3.7-1.2c1.3 0 2.4.4 3.2 1.1c.9.7 1.3 1.8 1.3 3.2v6.4h-2.1s-.19-1.22-.2-1.2c-.5.5-1 .8-1.6 1.1c-.5.2-1.2.4-1.9.4c-1 0-1.8-.3-2.4-.9c-.6-.6-.9-1.3-.9-2.3zm2.4-.1c0 .4.1.7.4.9c.2.3.6.4 1 .4c.6 0 1.2-.2 1.7-.6c.5-.3.9-.8 1.2-1.3c-.02-.05 0-1.5 0-1.5c0 0-1.25.22-1.3.2c-.8.2-1.4.3-1.8.4c-.3.2-.6.4-.8.5c-.3.3-.4.6-.4 1zm9.3-5.5h-2.2v-1.9h2.2v-3.1h2.5v3.1h2.3v1.9H85v8.5h-2.5v-8.5zm7.8-3.5h-2.5v-2.6h2.5v2.6zm0 12h-2.5V33.6h2.5V44zm1-5.4c0-1 .3-1.9.7-2.7c.5-.8 1.1-1.4 1.9-1.9c.8-.4 1.6-.7 2.6-.7c1 0 1.9.3 2.7.7c.8.5 1.4 1.1 1.9 1.9c.4.8.6 1.7.6 2.7v.3c0 1.1-.2 2-.6 2.8c-.5.8-1.1 1.4-1.9 1.9c-.8.4-1.7.7-2.7.7c-1 0-1.8-.3-2.6-.7c-.8-.5-1.4-1.1-1.9-1.9c-.4-.8-.7-1.8-.7-2.8v-.3zm2.6.3c0 1 .2 1.9.7 2.5c.4.7 1.1 1 1.9 1c.9 0 1.5-.3 2-1c.5-.6.7-1.5.7-2.5v-.3c0-1-.2-1.8-.7-2.4c-.5-.7-1.1-1-2-1c-.8 0-1.5.3-1.9 1c-.5.6-.7 1.4-.7 2.4v.3zm8.9 5.1V33.6h2.3s.14 1.51.1 1.5c.4-.5.9-.9 1.4-1.3c.6-.3 1.2-.5 1.9-.5c1.2 0 2.1.4 2.7 1c.7.7 1 1.7 1 2.9c-.01 0 0 6.8 0 6.8h-2.5s.04-6.8 0-6.8c0-1.3-.5-2-1.6-2c-.6 0-1.2.3-1.7.7c-.6.5-.9 1.1-1.2 1.8c.04-.05 0 6.3 0 6.3h-2.4zm24.4 0H118V29.5h2.6v12.4h6.6v2.1zm.2-2.9c0-.8.3-1.5.7-2c.4-.5.9-.8 1.5-1c.6-.3 1.4-.4 2.3-.6l2.2-.3c-.2-1.4-1-2.1-2.5-2.1c-.6 0-1.2.2-1.8.5c-.6.3-1 .7-1.4 1.3v-2.4c1-.8 2.2-1.2 3.7-1.2c1.3 0 2.4.4 3.2 1.1c.8.7 1.2 1.8 1.2 3.2c.03.01 0 6.4 0 6.4h-2s-.25-1.22-.2-1.2c-.6.5-1.1.8-1.6 1.1c-.6.2-1.2.4-1.9.4c-1.1 0-1.9-.3-2.5-.9c-.6-.6-.9-1.3-.9-2.3zm2.5-.1c0 .4.1.7.3.9c.3.3.6.4 1 .4c.7 0 1.2-.2 1.8-.6c.5-.3.9-.8 1.1-1.3c.02-.05 0-1.5 0-1.5c0 0-1.22.22-1.2.2c-.9.2-1.5.3-1.8.4c-.4.2-.7.4-.9.5c-.2.3-.3.6-.3 1zm8.2 3V33.6h2.2l.1 1.4c.4-.5.9-.9 1.4-1.2c.5-.3 1-.5 1.7-.5c.6 0 1.1.2 1.6.5c.6.3.9.8 1.2 1.4c.4-.6.9-1.1 1.5-1.4c.5-.3 1.1-.5 1.8-.5c.6 0 1.1.2 1.6.4c.5.3.9.7 1.2 1.2c.3.6.5 1.2.5 2c-.05-.01 0 7.1 0 7.1h-2.5v-7.1c0-1.2-.4-1.7-1.3-1.7c-.5 0-1 .2-1.5.6c-.4.4-.8.9-.9 1.5c-.04-.05 0 6.7 0 6.7h-2.5s.05-7.2 0-7.2c0-.5-.1-1-.3-1.2c-.3-.3-.6-.4-1.1-.4c-.4 0-.9.2-1.3.5c-.4.4-.8.9-1 1.5v6.8h-2.4zm16.3 4.2V33.6h2.3s.12 1.28.1 1.3c.3-.5.8-.9 1.3-1.1c.6-.3 1.2-.5 1.8-.5c.9 0 1.6.2 2.4.7c.7.4 1.2 1.1 1.6 1.9c.5.8.7 1.8.7 2.9c0 1.1-.2 2.1-.7 2.9c-.4.8-.9 1.5-1.6 1.9c-.8.4-1.5.7-2.4.7c-.6 0-1.2-.2-1.7-.4c-.6-.3-1-.6-1.4-1c.02-.02 0 5.3 0 5.3h-2.4zm2.4-7.5c.3.5.6 1 1.1 1.2c.4.3.9.5 1.4.5c.5 0 .9-.2 1.3-.4c.4-.3.8-.7 1-1.2c.3-.6.4-1.2.4-2c0-.8-.1-1.4-.4-2c-.2-.5-.5-.9-.9-1.2c-.4-.3-.9-.4-1.3-.4c-.6 0-1.1.2-1.5.4c-.5.3-.8.7-1.1 1.3v3.8z" stroke="none" fill="#fff"/></g><g id="Polygon2762"><path d="m10.8 16H1.6V1.5h2.5v12.4h6.7v2.1zM21 16h-9.2V1.5h9.1v2.1h-6.6v3.9h5.5v2.1h-5.5v4.3h6.7v2.1zm1.4 0V1.5s5 .04 5 0c1.4 0 2.6.3 3.7.9c1.1.5 1.9 1.4 2.5 2.4c.6 1.1.9 2.3.9 3.7v.4c0 1.4-.3 2.7-.9 3.7c-.6 1.1-1.4 1.9-2.5 2.5c-1.1.6-2.3.9-3.7.9c0-.02-5 0-5 0zm4.9-2.1c.7 0 1.4-.2 2.1-.5c.7-.4 1.2-.9 1.7-1.7c.4-.7.6-1.7.6-2.8v-.4c0-1.1-.2-2-.6-2.8c-.5-.7-1-1.3-1.7-1.6c-.6-.3-1.4-.5-2.1-.5H25v10.3h2.3zM39.9 16V1.5s5.91.04 5.9 0c.9 0 1.7.2 2.4.5c.8.3 1.3.8 1.8 1.4c.4.7.6 1.4.6 2.3v.3c0 1.1-.4 2-1.1 2.7c-.7.7-1.6 1.2-2.7 1.3l4.6 6h-3.3l-4.3-5.9h-1.3v5.9h-2.6zm5.6-7.9c.7 0 1.3-.2 1.7-.6c.5-.4.7-.9.7-1.5v-.3c0-.7-.2-1.2-.7-1.5c-.4-.4-1-.6-1.7-.6h-3v4.5s2.97-.02 3 0zm5.6 2.5c0-1 .3-1.9.7-2.7c.4-.8 1-1.5 1.7-1.9c.7-.5 1.6-.7 2.5-.7c1.6 0 2.7.5 3.6 1.5c.8.9 1.2 2.2 1.2 3.9v.9s-7.24.05-7.2 0c0 .9.3 1.6.9 2.1c.5.4 1.1.7 2 .7c.7 0 1.3-.1 1.9-.4c.6-.2 1.1-.6 1.7-1.2v2.3c-.5.4-1 .7-1.6.9c-.7.2-1.4.3-2.1.3c-1.1 0-2.1-.3-2.8-.7c-.8-.5-1.4-1.1-1.8-1.9c-.5-.8-.7-1.7-.7-2.7v-.4zm7.3-.8c0-.8-.2-1.5-.7-1.9c-.4-.5-1-.7-1.7-.7c-.6 0-1.2.2-1.7.7c-.4.5-.7 1.1-.7 1.9h4.8zm2.8 3.3c0-.8.2-1.5.7-2c.3-.5.8-.8 1.5-1c.6-.3 1.3-.4 2.2-.6l2.2-.3c-.1-1.4-.9-2.1-2.5-2.1c-.6 0-1.2.2-1.7.5c-.6.3-1.1.7-1.5 1.3V6.5c1-.8 2.2-1.2 3.7-1.2c1.3 0 2.4.4 3.2 1.1c.9.7 1.3 1.8 1.3 3.2c-.02.01 0 6.4 0 6.4h-2.1l-.2-1.2c-.5.5-1.1.8-1.6 1.1c-.5.2-1.2.4-1.9.4c-1 0-1.8-.3-2.4-.9c-.6-.6-.9-1.3-.9-2.3zm2.4-.1c0 .4.1.7.4.9c.2.3.6.4 1 .4c.6 0 1.2-.2 1.7-.6c.5-.3.9-.8 1.2-1.3c-.03-.05 0-1.5 0-1.5c0 0-1.27.22-1.3.2c-.8.2-1.4.3-1.8.4c-.3.2-.6.4-.8.5c-.3.3-.4.6-.4 1zm8.2 3V5.6h2.3l.1 1.7c.2-.6.6-1.1 1.2-1.4c.5-.4 1.2-.6 1.9-.6c.4 0 .6.1.8.1v2.2c-.2-.1-.5-.2-.9-.2c-.7 0-1.3.3-1.8.7c-.6.4-1 .9-1.1 1.6c-.05.01 0 6.3 0 6.3h-2.5z" stroke="none" fill="#fff"/></g></svg>