<?xml version="1.0" standalone="no"?><!DOCTYPE svg PUBLIC "-//W3C//DTD SVG 1.1//EN" "http://www.w3.org/Graphics/SVG/1.1/DTD/svg11.dtd"><svg xmlns="http://www.w3.org/2000/svg" version="1.1" width="396px" height="67.4px" viewBox="0 -12 396 67.4" style="top:-12px"><desc>Digital Showroom</desc><defs/><g id="Polygon2935"><path d="m3.3 33.6V3.2s10.5.04 10.5 0c3 0 5.6.6 7.8 1.8c2.3 1.2 4 2.9 5.2 5.1c1.3 2.2 1.9 4.8 1.9 7.8v.8c0 3-.6 5.7-1.9 7.9c-1.2 2.3-2.9 4-5.2 5.2c-2.2 1.2-4.8 1.8-7.8 1.8c0 .04-10.5 0-10.5 0zm10.2-4.3c1.6 0 3.1-.4 4.5-1.1c1.5-.8 2.6-1.9 3.5-3.5c.9-1.6 1.3-3.6 1.3-6v-.8c0-2.4-.4-4.3-1.3-5.9c-.9-1.5-2-2.6-3.4-3.3c-1.4-.7-3-1.1-4.6-1.1H8.7v21.7s4.82-.02 4.8 0zM36.2 8.5h-5.1V3h5.1v5.5zm0 25.1h-5.1V11.8h5.1v21.8zm2.2-11.3c0-2.2.5-4.2 1.3-5.9c.9-1.6 2.1-2.9 3.6-3.8c1.5-.9 3.2-1.4 5-1.4c1.3 0 2.6.3 3.7.9c1.1.6 2.1 1.3 2.8 2.3l.3-2.6h4.8s.02 20.6 0 20.6c0 3.4-1.1 5.9-3.3 7.7c-2.1 1.8-5.1 2.7-8.8 2.7c-1.6 0-3-.1-4.2-.5c-1.2-.3-2.3-.8-3.3-1.5v-5c1.1.9 2.2 1.5 3.4 2c1.2.4 2.6.6 4.2.6c2 0 3.6-.5 4.9-1.5c1.3-1.1 2-2.5 2-4.5v-1.8c-.7.9-1.6 1.6-2.7 2.1c-1.2.5-2.4.7-3.8.7c-1.8 0-3.5-.4-5-1.3c-1.5-1-2.7-2.3-3.6-4c-.8-1.7-1.3-3.6-1.3-5.8zm5.4 0c0 1.5.3 2.8.9 3.9c.5 1.1 1.3 1.9 2.1 2.4c.9.6 1.8.9 2.7.9c1.1 0 2.2-.3 3.1-.9c.9-.6 1.6-1.5 2.2-2.6v-7.4c-.5-1-1.3-1.9-2.3-2.5c-.9-.6-2-.9-3.1-.9c-.9 0-1.8.2-2.7.8c-.8.5-1.5 1.3-2.1 2.4c-.5 1.1-.8 2.4-.8 3.9zM68.7 8.5h-5.2V3h5.2v5.5zm0 25.1h-5.2V11.8h5.2v21.8zm5.9-17.8h-4.7v-4h4.7V5.2h5.2v6.6h4.8v4h-4.8v17.8h-5.2V15.8zm9.8 11.7c0-1.6.5-3 1.4-4.2c.8-.9 1.9-1.6 3.2-2.1c1.3-.5 2.9-.9 4.8-1.2l4.6-.7c-.3-2.8-2-4.3-5.3-4.3c-1.2 0-2.5.4-3.7 1c-1.2.7-2.2 1.6-3 2.7v-5c2.1-1.7 4.7-2.5 7.8-2.5c2.7 0 5 .7 6.7 2.2c1.8 1.5 2.7 3.8 2.7 6.8c-.04.04 0 13.4 0 13.4h-4.4s-.44-2.48-.4-2.5c-1.1 1.1-2.3 1.8-3.4 2.4c-1.1.5-2.5.7-4 .7c-2.2 0-3.9-.6-5.1-1.8c-1.3-1.2-1.9-2.8-1.9-4.9zm5.1-.2c0 .9.3 1.6.8 2.1c.5.5 1.2.7 2.1.7c1.3 0 2.5-.4 3.6-1.2c1.1-.8 1.9-1.8 2.5-2.9c-.02 0 0-3 0-3l-2.6.4c-1.8.3-3.1.6-3.9.9c-.7.3-1.3.7-1.7 1.1c-.5.5-.8 1.1-.8 1.9zm22.4 6.3h-5.1V3h5.1v30.6zm12-8.9c1 1.5 2.3 2.7 4 3.7c1.6 1 3.3 1.4 5 1.4c1.7 0 3-.4 3.9-1.2c.9-.8 1.4-1.8 1.4-3c0-.8-.3-1.6-.9-2.2c-.7-.7-1.8-1.5-3.3-2.3l-4.4-2.3c-1.9-1.1-3.3-2.2-4.3-3.3c-.9-1.2-1.3-2.8-1.3-4.7c0-1.5.3-2.8 1-4c.8-1.3 1.9-2.3 3.4-3c1.5-.8 3.3-1.2 5.4-1.2c3.2 0 6.1 1.1 8.8 3.1v6c-1.3-1.6-2.6-2.8-4.1-3.6c-1.5-.7-3.1-1.1-4.7-1.1c-1.2 0-2.3.3-3 1c-.7.7-1.1 1.5-1.1 2.4c0 .8.2 1.5.7 2.1c.5.6 1.4 1.2 2.7 1.9l4.7 2.4c2.1 1.1 3.6 2.3 4.6 3.7c1 1.3 1.5 3 1.5 5c0 1.8-.4 3.3-1.3 4.6c-.9 1.3-2.2 2.3-3.9 3.1c-1.7.7-3.6 1-5.8 1c-1.9 0-3.7-.3-5.3-1c-1.7-.7-2.9-1.4-3.7-2.2v-6.3zm22.4 8.9V3h5.2s-.02 11.96 0 12c.8-1.1 1.7-2 2.9-2.7c1.2-.7 2.6-1.1 4-1.1c2.5 0 4.4.7 5.7 2.1c1.3 1.4 2 3.4 2 6.1c.02-.04 0 14.2 0 14.2H161s-.04-14.24 0-14.2c0-2.8-1.2-4.2-3.4-4.2c-1.3 0-2.5.5-3.7 1.5c-1.2 1-2 2.2-2.4 3.6c-.02.02 0 13.3 0 13.3h-5.2zm21.6-11.2c0-2.1.5-4 1.4-5.7c1-1.7 2.3-3.1 4-4c1.6-1 3.5-1.5 5.6-1.5c2.1 0 3.9.5 5.6 1.5c1.7.9 3 2.3 3.9 4c1 1.7 1.4 3.6 1.4 5.7v.6c0 2.2-.4 4.1-1.4 5.8c-.9 1.7-2.2 3-3.9 4c-1.7 1-3.5 1.4-5.6 1.4c-2.1 0-4-.4-5.6-1.4c-1.7-1-3-2.3-4-4c-.9-1.7-1.4-3.7-1.4-5.8v-.6zm5.4.6c0 2.1.5 3.8 1.5 5.2c.9 1.4 2.3 2.1 4.1 2.1c1.7 0 3.1-.7 4.1-2.1c1-1.4 1.5-3.1 1.5-5.2v-.6c0-2.1-.5-3.8-1.5-5.2c-1-1.4-2.4-2-4.1-2c-1.8 0-3.2.6-4.1 2c-1 1.4-1.5 3.1-1.5 5.2v.6zm22.3 10.8l-6.4-22h5.2l4.2 15.8l4.3-15.8h6.2l4.3 15.9l4.3-15.9h4.5L216 33.6h-5.7L205.8 17l-4.4 16.6l-5.8.2zm27.8-.2V11.8h4.9s.22 3.6.2 3.6c.5-1.3 1.3-2.3 2.5-3.1c1.2-.7 2.5-1.1 4.1-1.1c.7 0 1.2.1 1.7.2v4.6c-.6-.2-1.2-.3-1.9-.3c-1.5 0-2.8.4-4 1.3c-1.2.8-1.9 2-2.3 3.4v13.2h-5.2zm13.2-11.2c0-2.1.5-4 1.4-5.7c1-1.7 2.3-3.1 3.9-4c1.7-1 3.6-1.5 5.7-1.5c2 0 3.9.5 5.6 1.5c1.6.9 3 2.3 3.9 4c.9 1.7 1.4 3.6 1.4 5.7v.6c0 2.2-.5 4.1-1.4 5.8c-.9 1.7-2.3 3-3.9 4c-1.7 1-3.6 1.4-5.6 1.4c-2.1 0-4-.4-5.7-1.4c-1.6-1-2.9-2.3-3.9-4c-.9-1.7-1.4-3.7-1.4-5.8v-.6zm5.4.6c0 2.1.5 3.8 1.4 5.2c1 1.4 2.4 2.1 4.2 2.1c1.7 0 3.1-.7 4.1-2.1c1-1.4 1.5-3.1 1.5-5.2v-.6c0-2.1-.5-3.8-1.5-5.2c-1-1.4-2.4-2-4.1-2c-1.8 0-3.2.6-4.2 2c-.9 1.4-1.4 3.1-1.4 5.2v.6zm17.7-.6c0-2.1.5-4 1.4-5.7c1-1.7 2.3-3.1 4-4c1.6-1 3.5-1.5 5.6-1.5c2.1 0 3.9.5 5.6 1.5c1.7.9 3 2.3 3.9 4c1 1.7 1.4 3.6 1.4 5.7v.6c0 2.2-.4 4.1-1.4 5.8c-.9 1.7-2.2 3-3.9 4c-1.7 1-3.5 1.4-5.6 1.4c-2.1 0-4-.4-5.6-1.4c-1.7-1-3-2.3-4-4c-.9-1.7-1.4-3.7-1.4-5.8v-.6zm5.4.6c0 2.1.5 3.8 1.5 5.2c.9 1.4 2.3 2.1 4.1 2.1c1.7 0 3.1-.7 4.1-2.1c1-1.4 1.5-3.1 1.5-5.2v-.6c0-2.1-.5-3.8-1.5-5.2c-1-1.4-2.4-2-4.1-2c-1.8 0-3.2.6-4.1 2c-1 1.4-1.5 3.1-1.5 5.2v.6zm18.7 10.6V11.8h4.7s.26 2.88.3 2.9c.9-1.1 1.8-1.9 2.9-2.6c1-.6 2.2-.9 3.5-.9c1.3 0 2.5.3 3.6 1c1.1.7 1.9 1.7 2.4 2.9c.9-1.3 2-2.3 3.1-2.9c1.1-.7 2.4-1 3.9-1c1.2 0 2.3.3 3.3.8c1.1.6 1.9 1.4 2.5 2.6c.7 1.1 1 2.5 1 4.1v14.9h-5.2s.04-14.88 0-14.9c0-2.4-.9-3.6-2.8-3.6c-1 0-2 .4-3 1.3c-1 .8-1.6 1.9-2 3.1c-.04-.02 0 14.1 0 14.1h-5.2s.08-15.08.1-15.1c0-1.1-.3-2-.8-2.6c-.5-.5-1.2-.8-2.2-.8c-1 0-1.9.4-2.8 1.2c-.9.8-1.6 1.8-2.1 3.1v14.2h-5.2z" stroke="none" fill="#000"/></g></svg>