<?xml version="1.0" standalone="no"?><!DOCTYPE svg PUBLIC "-//W3C//DTD SVG 1.1//EN" "http://www.w3.org/Graphics/SVG/1.1/DTD/svg11.dtd"><svg xmlns="http://www.w3.org/2000/svg" version="1.1" width="160px" height="55.8px" viewBox="0 -5 160 55.8" style="top:-5px"><desc>텍스트 B</desc><defs/><g id="Polygon2442"><path d="m60.9 38.8V24.4h1.4v14.4h-1.4zm-5.3-12.6c-1.3 0-2.3-.1-3-.3v-1.1c.4.1.8.2 1.3.2c.4.1 1 .1 1.7.1c-.04-.01 1.8 0 1.8 0v1.1s-1.84.04-1.8 0zm-4.8 1h8.6v1.1h-8.6v-1.1zm5 8.4c1.4-.1 2.7-.3 4-.6l.2 1.1c-1.2.3-2.3.4-3.4.6c-1.1.1-2.3.1-3.5.1c0 .02-2.9 0-2.9 0v-1.1s3.38-.04 3.4 0c.4 0 .6 0 .8-.1v-1.5c-.8-.1-1.4-.4-1.9-.8c-.4-.5-.7-1-.7-1.7v-.1c0-.4.2-.9.5-1.3c.2-.3.6-.6 1.1-.8c.5-.3 1.1-.4 1.7-.4c.7 0 1.2.1 1.7.4c.5.2.9.5 1.2.8c.2.4.4.9.4 1.3v.1c0 .7-.3 1.2-.7 1.7c-.5.4-1.1.7-1.9.8v1.5zm-2.6-4c0 .4.2.8.5 1.1c.4.2.8.4 1.4.4c.6 0 1.1-.2 1.4-.4c.3-.3.5-.7.5-1.1v-.1c0-.4-.2-.7-.5-1c-.3-.3-.8-.4-1.4-.4c-.6 0-1 .1-1.4.4c-.3.3-.5.6-.5 1v.1zm18.5-2.2v-1.1h3.1v-3.9h1.4v10.9h-1.4v-5.9h-3.1zm.3 3.5c-1.5-.8-2.6-1.9-3.4-3.1c-.9 1.4-2 2.5-3.5 3.4l-.7-1.1c1.1-.6 1.9-1.3 2.5-2.1c.7-.8 1-1.6 1-2.3c-.02-.04 0-1 0-1h-2.8v-1.2h7v1.2h-2.8s-.01.93 0 .9c0 .8.3 1.5.9 2.3c.6.7 1.4 1.4 2.5 1.9l-.7 1.1zm-3.1 1.3v3.8h7.9v1.1h-9.3v-4.9h1.4zm23.4 4.6V24.4h1.4v14.4h-1.4zm-5.2-9.6c0 .7.3 1.5 1 2.4c.7.9 1.6 1.6 2.7 2.3L90 35c-1.5-1-2.8-2.2-3.6-3.6c-.5.8-1 1.5-1.6 2.1c-.7.7-1.4 1.3-2.1 1.7l-.8-1c.7-.4 1.4-.9 1.9-1.5c.6-.6 1-1.2 1.4-1.8c.3-.6.5-1.2.5-1.7c-.04.05 0-3.5 0-3.5h1.4s-.02 3.52 0 3.5zm12.2 3.3h8v1.1h-9.5v-8h9.2v1.2h-7.7v2.3h7.2v1.1h-7.2v2.3zm-3.8 5.1v-1.1h13.8v1.1H95.5z" stroke="none" fill="#939598"/></g><g id="Polygon2441"><path d="m69 13.5v-1s4.16-4.53 4.2-4.5c.5-.6.9-1.1 1.1-1.6c.3-.4.4-.9.4-1.5c0-.7-.2-1.2-.6-1.7c-.4-.4-1-.6-1.6-.6c-.7 0-1.3.1-1.7.5c-.5.3-1 .7-1.3 1.3V2.6c.3-.3.7-.6 1.2-.9c.6-.2 1.2-.4 1.8-.4c.8 0 1.5.2 2 .5c.6.3 1 .7 1.3 1.3c.3.5.4 1.1.4 1.7c0 .6-.1 1.1-.3 1.6c-.1.5-.4.9-.7 1.3c-.3.4-.7.8-1.1 1.4c-.04-.04-3.1 3.2-3.1 3.2h5.5v1.2H69zm20-4.9h-1.5V6.7H85V5.5h2.5v-2H85V2.4h2.5v-2h1.5v8.2zm-4.5-3.8c0 .6-.2 1.1-.5 1.7c-.3.5-.7.9-1.3 1.1c-.5.3-1.1.5-1.8.5c-.6 0-1.2-.2-1.8-.5c-.5-.2-.9-.6-1.2-1.1c-.3-.6-.5-1.1-.5-1.7v-.4c0-.6.2-1.1.5-1.6c.3-.5.7-.9 1.2-1.2c.6-.3 1.2-.4 1.8-.4c.7 0 1.3.1 1.8.4c.6.3 1 .7 1.3 1.2c.3.5.5 1 .5 1.6v.4zm-5.7 0c0 .6.2 1.1.6 1.5c.4.4.9.6 1.5.6c.7 0 1.2-.2 1.6-.6c.4-.4.6-.9.6-1.5v-.3c0-.7-.2-1.2-.6-1.6c-.4-.4-.9-.6-1.6-.6c-.6 0-1.1.2-1.5.6c-.4.4-.6.9-.6 1.6v.3zm2.8 8.2v1.3h7.8v1.2h-9.2v-3.7h7.3v-1.2h-7.3V9.4h8.8v3.6h-7.4z" stroke="none" fill="#939598"/></g></svg>