<?xml version="1.0" standalone="no"?><!DOCTYPE svg PUBLIC "-//W3C//DTD SVG 1.1//EN" "http://www.w3.org/Graphics/SVG/1.1/DTD/svg11.dtd"><svg xmlns="http://www.w3.org/2000/svg" version="1.1" width="160px" height="55.8px" viewBox="0 -5 160 55.8" style="top:-5px"><desc>텍스트 B</desc><defs/><g id="Polygon2544"><path d="m55.9 30.7h2.5v1.2h-2.5v6.9h-1.4V24.4h1.4v6.3zM49 32.1c-.7 0-1.3-.1-1.9-.4c-.5-.3-1-.7-1.3-1.1c-.3-.5-.5-1.1-.5-1.7v-.3c0-.6.2-1.1.5-1.6c.3-.5.8-.9 1.3-1.1c.6-.3 1.2-.5 1.9-.5c.7 0 1.3.2 1.8.5c.6.2 1 .6 1.3 1.1c.4.5.5 1 .5 1.6v.3c0 .6-.1 1.2-.5 1.7c-.3.4-.7.8-1.3 1.1c-.5.3-1.1.4-1.8.4zm-2.3-3.2c0 .6.2 1.1.6 1.5c.4.4 1 .6 1.7.6c.7 0 1.2-.2 1.6-.6c.5-.4.7-.9.7-1.5v-.3c0-.6-.2-1.1-.7-1.4c-.4-.4-.9-.6-1.6-.6c-.7 0-1.3.2-1.7.6c-.4.3-.6.8-.6 1.4v.3zm3 6.5c1.4-.1 2.7-.3 3.8-.6l.2 1.1c-1.1.3-2.2.5-3.3.6c-1 .1-2.2.1-3.4.1c-.04.02-2.8 0-2.8 0v-1.1s3.24-.03 3.2 0h.9v-2.8h1.4v2.7zm20.6 3.4h-1.4V24.4h1.4v14.4zM62.7 35c-.7 0-1.4-.2-2-.6c-.6-.4-1-.9-1.3-1.6c-.3-.7-.5-1.5-.5-2.4v-.4c0-.9.2-1.7.5-2.4c.3-.7.7-1.2 1.3-1.6c.6-.4 1.3-.6 2-.6c.8 0 1.5.2 2.1.6c.5.4 1 .9 1.3 1.6c.3.7.5 1.5.5 2.4v.4c0 .9-.2 1.7-.5 2.4c-.3.7-.8 1.2-1.3 1.6c-.6.4-1.3.6-2.1.6zm0-1.2c.8 0 1.4-.3 1.8-.9c.5-.6.7-1.4.7-2.5v-.3c0-1.1-.2-2-.7-2.6c-.4-.6-1-.9-1.8-.9c-.7 0-1.3.3-1.8.9c-.4.6-.6 1.5-.6 2.6v.3c0 1.1.2 1.9.6 2.5c.5.6 1.1.9 1.8.9zm13.1-2.2h8.2v1.1h-9.6v-6.9h9.2v1.1h-7.8v4.7zm-3.7 6v-1.1h13.8v1.1H72.1zm28.1 1.2V24.4h1.4v14.4h-1.4zm-7.7-5.5c.8 0 1.7 0 2.8-.1c1-.1 2.1-.3 3.1-.5l.2 1.1c-1.3.3-2.6.5-3.8.6c-1.2.1-2.6.1-4.1.1v-8.6h6.5v1.1h-5.1v6.3s.35.04.4 0zm12.3-1c.8-.3 1.6-.6 2.3-1.2c.8-.5 1.4-1 1.9-1.6c.4-.5.7-1.1.7-1.5c-.05-.03 0-2.4 0-2.4h1.4v2.4c0 .4.2.9.7 1.5c.5.5 1.1 1 1.8 1.5c.8.5 1.5.8 2.3 1.1l-.4 1.1c-1-.3-2-.8-2.9-1.4c-.9-.6-1.7-1.2-2.2-1.9c-.6.7-1.3 1.4-2.2 2c-1 .7-1.9 1.2-2.9 1.5l-.5-1.1zm-1.3 4.1h13.8v1.2h-13.8v-1.2zM119.4 25h9.8v1.1h-9.8V25zm7.6 3.6h2.4v1.1h-10.2v-1.1h2.3l-.2-2l1.4-.1l.2 2.1h2.8l.2-2.1l1.3.1l-.2 2zm-9.6 3.6V31h13.8v1.2h-13.8zm11.4 4.8h-7.6v1.3h8v1.1h-9.4v-3.5h7.6v-1.2h-7.6v-1.2h9v3.5zm13.9 1.8V24.4h1.4v14.4h-1.4zm-4.8-9.2h1.8v-5h1.4v13.7h-1.4v-7.6h-1.8v-1.1zm-3.9 3.8c.6 0 1.2 0 2-.1c.8-.1 1.6-.2 2.4-.4l.1 1.1c-1 .2-1.9.4-2.9.4c-1 .1-2.1.2-3.4.2c.04-.04 0-5.1 0-5.1h3.6V27h-3.6v-1.2h5v4.8h-3.6v2.8h.4zm23.3 5.4h-1.4V24.4h1.4v14.4zm-7.5-3.8c-.8 0-1.5-.2-2.1-.6c-.5-.4-1-.9-1.3-1.6c-.3-.7-.4-1.5-.4-2.4v-.4c0-.9.1-1.7.4-2.4c.3-.7.8-1.2 1.3-1.6c.6-.4 1.3-.6 2.1-.6c.8 0 1.4.2 2 .6c.6.4 1 .9 1.3 1.6c.3.7.5 1.5.5 2.4v.4c0 .9-.2 1.7-.5 2.4c-.3.7-.7 1.2-1.3 1.6c-.6.4-1.2.6-2 .6zm0-1.2c.7 0 1.3-.3 1.8-.9c.4-.6.6-1.4.6-2.5v-.3c0-1.1-.2-2-.6-2.6c-.5-.6-1.1-.9-1.8-.9c-.8 0-1.4.3-1.8.9c-.4.6-.7 1.5-.7 2.6v.3c0 1.1.3 1.9.7 2.5c.4.6 1 .9 1.8.9z" stroke="none" fill="#939598"/></g><g id="Polygon2543"><path d="m115.1 5.7h2.6v1.1h-2.6v8h-1.4V.4h1.4v5.3zm-11-3.8h8v1.1h-8V1.9zm6.4 7.3l2-.3l.2 1.1c-1.5.3-2.8.4-4.1.5c-1.4.2-2.9.2-4.8.2c-.04-.01 0-1.2 0-1.2h1.9l-.4-5.8h1.4s.31 5.79.3 5.8c.7 0 1.4-.1 2.2-.2c-.03.04.3-5.6.3-5.6h1.4s-.37 5.48-.4 5.5zM121.1 7h8.1v1.2h-9.5V1.3h1.4v5.7zm3.9 2.1v3.4h6.2v1.1h-13.8v-1.1h6.2V9.1h1.4zm17.9-3.4h2.6v1.1h-2.6v8h-1.4V.4h1.4v5.3zm-8.8 4c.8 0 1.7-.1 2.8-.2c1.1-.1 2.1-.3 3.2-.5l.2 1.1c-1.3.3-2.6.5-3.9.6c-1.2.1-2.6.1-4.1.1c.02.03 0-5.2 0-5.2h4.8V3h-4.8V1.8h6.2v5h-4.8v2.9s.38-.04.4 0zm22.7-4h2.6v1.1h-2.6v8h-1.4V.4h1.4v5.3zm-4 4.9h-6.6V1.9h6.6v8.7zM151.4 3h-3.8v6.4h3.8V3z" stroke="none" fill="#939598"/></g></svg>