<?xml version="1.0" standalone="no"?><!DOCTYPE svg PUBLIC "-//W3C//DTD SVG 1.1//EN" "http://www.w3.org/Graphics/SVG/1.1/DTD/svg11.dtd"><svg xmlns="http://www.w3.org/2000/svg" version="1.1" width="206px" height="250.8px" viewBox="0 -6 206 250.8" style="top:-6px"><desc>텍스트 B</desc><defs/><g id="Polygon2601"><path d="m12.6 225.8h-1.4v-14.4h1.4v14.4zm-11.2-4.4c1.9-.8 3.3-1.7 4.2-2.8c.8-1 1.2-2.2 1.2-3.6c.03-.03 0-1 0-1H1.9v-1.1h6.3s.04 1.97 0 2c0 1.6-.5 3.1-1.5 4.3c-1 1.3-2.6 2.4-4.7 3.4l-.6-1.2zm24.8-5.5v1.1h-9.3v-5.1h1.4v4h7.9zm-11.7 2.8h13.7v1.2H14.5v-1.2zm6.9 7.8c-1.4 0-2.5-.3-3.3-.7c-.8-.5-1.2-1.2-1.2-2v-.1c0-.8.4-1.5 1.2-2c.8-.5 1.9-.7 3.3-.7c1.4 0 2.5.2 3.3.7c.7.5 1.1 1.2 1.1 2v.1c0 .8-.4 1.5-1.1 2c-.8.4-1.9.7-3.3.7zm0-1.2c1 0 1.7-.1 2.3-.4c.5-.2.7-.6.7-1.1v-.1c0-.5-.2-.9-.7-1.1c-.6-.3-1.3-.4-2.3-.4c-1 0-1.8.1-2.3.4c-.6.2-.8.6-.8 1.1v.1c0 .5.2.9.8 1.1c.5.3 1.3.4 2.3.4zm19.1.5h-1.4v-14.4h1.4v14.4zm-7.3-6.2c-.7 0-1.3-.1-1.9-.4c-.6-.3-1-.7-1.3-1.2c-.4-.5-.5-1.1-.5-1.7v-.4c0-.6.1-1.2.5-1.7c.3-.5.7-.9 1.3-1.2c.6-.3 1.2-.5 1.9-.5c.7 0 1.3.2 1.9.5c.5.3 1 .7 1.3 1.2c.3.5.5 1.1.5 1.7v.4c0 .6-.2 1.2-.5 1.7c-.3.5-.8.9-1.3 1.2c-.6.3-1.2.4-1.9.4zm0-1.1c.7 0 1.2-.2 1.7-.6c.4-.5.7-1 .7-1.7v-.3c0-.6-.3-1.1-.7-1.6c-.5-.4-1-.6-1.7-.6c-.7 0-1.3.2-1.7.6c-.5.5-.7 1-.7 1.6v.3c0 .7.2 1.2.7 1.7c.4.4 1 .6 1.7.6zm-4.8 4.8v-1.1s3.31-.02 3.3 0c2.1 0 4.2-.2 6.2-.7l.2 1.2c-1.2.2-2.3.4-3.4.5c-1.1.1-2.2.1-3.5.1c.03.04-2.8 0-2.8 0zm29-8h2.6v1.1h-2.6v3.8H56v-8.8h1.4v3.9zm-7.1 1.2c-.9 1.4-2 2.6-3.5 3.4l-.8-1c1.1-.6 1.9-1.3 2.6-2.1c.7-.8 1-1.6 1-2.3c-.02-.04 0-.9 0-.9h-3v-1.2h7.3v1.2H51v.8c0 .7.3 1.5.9 2.2c.7.8 1.5 1.4 2.6 2l-.7 1.1c-1.5-.9-2.7-1.9-3.5-3.2zm7.1 9.8h-8.7V221h8.7v5.3zm-1.4-4.2h-5.9v3h5.9v-3zm15.2-5.5v-5.2h1.3v14.4h-1.3v-8h-1.8v7.5H68v-13.7h1.4v5h1.8zm-6.8-.3c0 .8.2 1.6.8 2.4c.5.8 1.3 1.5 2.3 2.1l-.7 1.1c-1.5-.9-2.5-2-3.1-3.3c-.8 1.5-1.8 2.6-3.2 3.6l-.7-1.1c1-.6 1.8-1.4 2.3-2.2c.6-.9.9-1.8.9-2.6c-.04.03 0-2.2 0-2.2h-2.5V213h6.3v1.1h-2.4s-.03 2.2 0 2.2zm19.9-2.5v-2.4h1.4v9.1h-1.4v-2.8h-2.8v-1.2h2.8v-1.6h-2.8v-1.1h2.8zm-2.3 5.3c-1.2.2-2.4.4-3.5.5c-1.2.1-2.4.1-3.8.1c-.03.02 0-4.3 0-4.3h4.5v-1.8h-4.5v-1.2h5.9v4.1h-4.5v2.1s.33-.03.3 0c.7 0 1.6-.1 2.6-.2c1-.1 1.9-.2 2.8-.4l.2 1.1zm2.3 3.4h-7.6v-1.2h9v5.1h-1.4v-3.9zm10.2-5.5c-.9 0-1.7-.1-2.3-.3c-.7-.2-1.2-.5-1.6-.9c-.3-.4-.5-.8-.5-1.3v-.2c0-.5.2-1 .5-1.3c.4-.4.9-.7 1.6-.9c.6-.2 1.4-.3 2.3-.3c.9 0 1.7.1 2.3.3c.7.2 1.2.5 1.5.9c.4.3.6.8.6 1.3v.2c0 .5-.2.9-.6 1.3c-.3.4-.8.7-1.5.9c-.6.2-1.4.3-2.3.3zm0-1.1c.9 0 1.7-.1 2.2-.4c.5-.3.8-.6.8-1.1v-.1c0-.4-.3-.8-.8-1.1c-.5-.2-1.3-.4-2.2-.4c-1 0-1.7.2-2.2.4c-.6.3-.8.7-.8 1.1v.1c0 .5.2.8.8 1.1c.5.3 1.2.4 2.2.4zm-6.9 2.2h13.8v1.1H87.6v-1.1zm2.4 2.4h9v3.5h-7.6v1.3h8v1.1H90v-3.5h7.6v-1.2H90v-1.2zm20.2-7.9h-1.7c-.5-.1-.9-.1-1.2-.3v-.9c.3.1.7.1 1.2.2h1.7c-.02.02 1.9 0 1.9 0v1s-1.92.05-1.9 0zm6.4-1.2v4.8h2.6v1.1h-2.6v3.3h-1.4v-9.2h1.4zm-11.1 2h8.5v1h-8.5v-1zm8.9 6.4c-1.1.2-2.2.4-3.2.5c-1.1.1-2.2.2-3.5.2c.01-.04-2.7 0-2.7 0v-1.1s3.19-.03 3.2 0h.8v-.9c-.8-.1-1.4-.3-1.9-.6c-.4-.3-.7-.7-.7-1.2v-.1c0-.5.3-.9.9-1.3c.6-.3 1.4-.4 2.4-.4c1 0 1.8.1 2.4.4c.6.4.9.8.9 1.3v.1c0 .5-.2.9-.7 1.2c-.4.3-1.1.5-1.9.6v.8c1.4-.1 2.7-.3 3.8-.6l.2 1.1zm-6.6-3.1c0 .3.2.5.5.6c.4.1.8.2 1.4.2c.6 0 1.1-.1 1.4-.2c.4-.1.5-.3.5-.6v-.1c0-.2-.1-.4-.5-.5c-.3-.2-.8-.2-1.4-.2c-.6 0-1.1 0-1.4.2c-.3.1-.5.3-.5.5v.1zm8.8 7.7h-7.3v1h7.8v1.1h-9.2v-3.1h7.3v-.9h-7.3v-1.1h8.7v3zm12.3-5.6h3.8v1.2H119v-1.2h3.8v-2c-.4-.3-.8-.6-1-.9c-.2-.4-.3-.8-.3-1.2v-.2c0-.5.1-1 .5-1.4c.3-.4.9-.8 1.5-1c.7-.2 1.5-.3 2.4-.3c.8 0 1.6.1 2.3.3c.6.2 1.1.6 1.5 1c.4.4.5.9.5 1.4v.2c0 .4-.1.8-.3 1.2c-.2.3-.6.6-1 .9c-.04-.02 0 2 0 2zm-6.1-4.2c0 .5.3 1 .8 1.3c.6.3 1.3.4 2.2.4c1 0 1.7-.1 2.2-.4c.6-.3.8-.8.8-1.3c0-.5-.2-1-.8-1.3c-.5-.3-1.2-.4-2.2-.4c-.9 0-1.6.1-2.2.4c-.5.3-.8.8-.8 1.3zm1.4 4.2h3.3s-.04-1.53 0-1.5c-.5.1-1.1.1-1.6.1c-.7 0-1.2 0-1.7-.1v1.5zm1.6 2c1.4 0 2.5.2 3.3.7c.8.5 1.2 1.2 1.2 2.1v.1c0 .9-.4 1.5-1.2 2c-.8.5-1.9.8-3.3.8c-1.4 0-2.5-.3-3.3-.8c-.7-.5-1.1-1.1-1.1-2v-.1c0-.9.4-1.6 1.1-2.1c.8-.5 1.9-.7 3.3-.7zm3.1 2.8c0-.5-.2-.9-.8-1.2c-.5-.3-1.3-.5-2.3-.5c-1 0-1.7.2-2.3.5c-.5.3-.7.7-.7 1.2v.1c0 .5.2.9.7 1.2c.6.3 1.3.4 2.3.4c1 0 1.8-.1 2.3-.4c.6-.3.8-.7.8-1.2v-.1zm15.4-6.2v-6h1.4v14.4h-1.4v-7.2h-1.8v6.7h-1.4v-13.7h1.4v5.8h1.8zm-7.1-4c-1.1 0-2-.1-2.6-.3V212c.6.2 1.5.3 2.6.3h1.7v1.1s-1.72.05-1.7 0zm3.1 2.2h-7.1v-1.1h7.1v1.1zm-3.5.9c.5 0 1 .1 1.4.3c.4.3.8.6 1 1c.3.4.4.9.4 1.4v.2c0 .6-.1 1-.4 1.5c-.2.4-.6.7-1 1c-.4.2-.9.3-1.4.3c-.6 0-1-.1-1.5-.3c-.4-.3-.7-.6-1-1c-.2-.5-.4-.9-.4-1.5v-.2c0-.5.2-1 .4-1.4c.3-.4.6-.7 1-1c.5-.2.9-.3 1.5-.3zm1.5 2.8c0-.5-.1-.9-.4-1.2c-.3-.4-.7-.5-1.1-.5c-.5 0-.8.1-1.1.5c-.3.3-.5.7-.5 1.2v.1c0 .5.2.9.5 1.2c.3.4.6.5 1.1.5c.4 0 .8-.1 1.1-.5c.3-.3.4-.7.4-1.2v-.1zm22.1-7h1.4v7.3h-9.2v-7.3h1.4v2.5h6.4v-2.5zM154 216v2.4h6.4V216H154zm3.9 4.4v3.1h6.2v1.1h-13.8v-1.1h6.2v-3.1h1.4zm17.7 5.4v-14.4h1.4v14.4h-1.4zm-5.6-9.5h2.7v-4.7h1.3v13.7h-1.3v-7.9H170v-1.1zm-1.3-.2c0 .8.2 1.6.8 2.5c.5.9 1.2 1.7 2.2 2.3l-.8 1c-1.3-.9-2.3-2-2.9-3.3c-.7 1.3-1.6 2.5-2.9 3.6l-.8-.9c.9-.7 1.6-1.6 2.1-2.5c.6-1 .9-1.9.9-2.7c-.01.04 0-3.4 0-3.4h1.4s-.03 3.4 0 3.4zm16.3 3.5c-.9 0-1.8-.2-2.5-.5c-.7-.3-1.3-.7-1.7-1.2c-.4-.6-.5-1.2-.5-1.9v-.1c0-.7.1-1.3.5-1.8c.4-.6 1-1 1.7-1.3c.7-.3 1.6-.5 2.5-.5c1 0 1.9.2 2.6.5c.7.3 1.3.7 1.6 1.3c.4.5.6 1.1.6 1.8v.1c0 .7-.2 1.3-.6 1.9c-.3.5-.9.9-1.6 1.2c-.7.3-1.6.5-2.6.5zm-3.3-3.6c0 .7.3 1.3.8 1.8c.6.4 1.5.6 2.5.6c1.1 0 2-.2 2.5-.6c.6-.5.9-1.1.9-1.8v-.1c0-.7-.3-1.3-.9-1.7c-.5-.5-1.4-.7-2.5-.7c-1 0-1.9.2-2.5.7c-.5.4-.8 1-.8 1.7v.1zm6.5 4v3.5h3.7v1.1h-13.7v-1.1h3.7V220h1.4v3.5h3.5V220h1.4zm6.2 4.5h-1.9v-2.1h1.9v2.1z" stroke="none" fill="#fff"/></g><g id="Polygon2600"><path d="m11.2 187.8v-4.4h1.4v9.5h-1.4v-1.4H8.8v-1.1h2.4V189H8.8v-1.2h2.4zM5.4 185c-1.2 0-2.2-.1-2.8-.4v-1c.7.2 1.6.2 2.8.2c-.04.05 1.8 0 1.8 0v1.2s-1.84-.03-1.8 0zm-4.3.9h7.7v1.1H1.1v-1.1zm6.8 4.4c0 .4-.1.8-.3 1.2c-.3.4-.7.7-1.1.9c-.5.2-1 .3-1.6.3c-.6 0-1.1-.1-1.5-.3c-.5-.2-.8-.5-1.1-.9c-.3-.4-.4-.8-.4-1.2v-.2c0-.4.1-.8.4-1.2c.2-.4.6-.7 1.1-.9c.4-.2.9-.3 1.5-.3c.6 0 1.1.1 1.6.3c.5.2.8.5 1.1.9c.2.4.3.8.3 1.2v.2zm-4.7 0c0 .4.2.7.5.9c.3.3.7.4 1.2.4c.5 0 1-.1 1.3-.4c.3-.2.4-.5.4-.9v-.1c0-.4-.1-.8-.4-1c-.3-.3-.8-.4-1.3-.4c-.5 0-.9.1-1.2.4c-.3.2-.5.5-.5 1v.1zm8 4.6H3.5v-1.2h9.1v4.7h-1.4v-3.5zm13.9-11.5h1.4v10.9h-1.4v-10.9zm-5.9 5.6c-.4.6-1 1.3-1.6 1.9c-.6.6-1.3 1.1-2.1 1.5l-.7-1c1.1-.7 2-1.4 2.7-2.2c.6-.8 1-1.6 1-2.4c-.04.04 0-2.5 0-2.5h1.4s-.03 2.51 0 2.5c0 .7.3 1.4 1 2.2c.6.7 1.5 1.4 2.6 2l-.7 1c-1.5-.8-2.8-1.9-3.6-3zm0 4.2v3.8h7.9v1.1h-9.3v-4.9h1.4zm19.9-6.1v-3.7h1.4v8.9h-1.4v-4H36v-1.2h3.1zm-6.3 1.5c-.8 1.4-2 2.5-3.4 3.3l-.8-1c1.1-.6 1.9-1.3 2.6-2.1c.6-.8.9-1.5.9-2.3v-.9h-2.8v-1.1h7v1.1h-2.8v.9c0 .7.3 1.4.9 2.2c.6.7 1.5 1.4 2.5 1.9l-.7 1.1c-1.5-.8-2.6-1.9-3.4-3.1zm6.3 5.7h-7.7v-1.1h9.1v5.2h-1.4v-4.1zm15.3 0H53v-10.9h1.4v10.9zm-7.8-2.7c-.7 0-1.3-.2-1.8-.5c-.6-.3-1-.7-1.3-1.3c-.3-.5-.5-1.1-.5-1.7v-.4c0-.6.2-1.2.5-1.8c.3-.5.7-.9 1.3-1.2c.5-.3 1.1-.5 1.8-.5c.7 0 1.3.2 1.9.5c.5.3.9.7 1.2 1.2c.4.6.5 1.2.5 1.8v.4c0 .6-.1 1.2-.5 1.7c-.3.6-.7 1-1.2 1.3c-.6.3-1.2.5-1.9.5zm0-1.2c.7 0 1.2-.2 1.6-.6c.4-.5.6-1.1.6-1.8v-.3c0-.7-.2-1.2-.6-1.7c-.4-.4-.9-.6-1.6-.6c-.7 0-1.2.2-1.6.6c-.4.5-.6 1-.6 1.7v.3c0 .7.2 1.3.6 1.7c.4.5.9.7 1.6.7zm-1 2.8h1.4v3.8h8v1.1h-9.4v-4.9zm15.6-2.3c.9-.3 1.6-.6 2.3-1.1c.8-.5 1.3-1 1.8-1.5c.4-.5.6-1 .6-1.4v-1.1h-3.7v-1.2h8.9v1.2h-3.7s-.04 1.06 0 1.1c0 .4.2.9.6 1.4c.4.5 1 .9 1.7 1.4c.7.4 1.5.8 2.3 1l-.4 1.1c-1.1-.3-2-.7-2.8-1.3c-.9-.5-1.6-1.1-2.2-1.8c-.5.7-1.2 1.3-2.1 1.9c-.8.6-1.8 1.1-2.8 1.5l-.5-1.2zm6.1.8v3.7h6.2v1.2H59.8v-1.2h6.1v-3.7h1.4zm18-3.8h2.5v1.2h-2.5v3.3h-1.4v-9h1.4v4.5zm-6.7-2.9c-.5 0-1.1-.1-1.5-.1c-.5-.1-.9-.2-1.3-.3v-1.1c.4.2.8.2 1.2.3h1.6c.04.03 1.9 0 1.9 0v1.2s-1.86-.05-1.9 0zm-4.4.8h8v1.2h-8v-1.2zm7.1 4.4c0 .4-.2.8-.4 1.2c-.3.3-.6.6-1.1.8c-.5.2-1 .4-1.6.4c-.6 0-1.2-.2-1.6-.4c-.5-.2-.9-.5-1.1-.8c-.3-.4-.4-.8-.4-1.2v-.2c0-.4.1-.8.4-1.2c.2-.4.6-.7 1.1-.9c.4-.2 1-.3 1.6-.3c.6 0 1.1.1 1.6.3c.5.2.8.5 1.1.9c.2.4.4.8.4 1.2v.2zm-4.9-.1c0 .4.2.8.5 1c.3.2.7.4 1.3.4c.5 0 1-.2 1.3-.4c.3-.2.5-.6.5-1v-.1c0-.4-.2-.7-.5-.9c-.3-.3-.8-.4-1.3-.4c-.6 0-1 .1-1.3.4c-.3.2-.5.5-.5.9v.1zm1.5 4.5h6v-1.4h1.4v5.1h-8.8v-5.1h1.4v1.4zm0 1.2v1.3h6v-1.3h-6zm16.6-3.7c-1 0-1.9-.1-2.6-.5c-.7-.3-1.2-.7-1.6-1.3c-.4-.6-.6-1.2-.6-1.9v-.2c0-.7.2-1.4.6-1.9c.4-.6.9-1 1.6-1.3c.7-.4 1.6-.5 2.6-.5c1 0 1.8.1 2.5.5c.8.3 1.3.7 1.7 1.3c.4.5.6 1.2.6 1.9v.2c0 .7-.2 1.3-.6 1.9c-.4.6-.9 1-1.7 1.3c-.7.4-1.5.5-2.5.5zm0-1.1c1.1 0 1.9-.3 2.5-.8c.6-.4.9-1.1.9-1.9v-.1c0-.7-.3-1.4-.9-1.8c-.6-.5-1.4-.8-2.5-.8c-1.1 0-1.9.3-2.5.8c-.6.4-.9 1.1-.9 1.8v.1c0 .8.3 1.5.9 1.9c.6.5 1.4.8 2.5.8zm-6.9 4.5h13.8v1.1H87.6v-1.1zm21.5-3v3h6.2v1.1h-13.8v-1.1h6.2v-3h-3.9v-4.7h7.8v-2.2h-7.8v-1.1h9.2v4.5h-7.8v2.4h8.2v1.1h-4.3zm20.5 5.3v-14.4h1.4v14.4h-1.4zm-7.8-5.5c.8 0 1.8 0 2.9-.1c1-.1 2.1-.3 3.1-.5l.2 1.1c-1.3.3-2.6.5-3.8.6c-1.2.1-2.6.1-4.1.1c-.02.01 0-8.6 0-8.6h6.4v1.1h-5v6.3s.34.04.3 0zm21.7 5.5v-14.4h1.4v14.4h-1.4zm-5.2-9.4c0 .7.3 1.5 1 2.3c.7.8 1.6 1.6 2.7 2.3l-.8 1c-1.5-1-2.7-2.1-3.6-3.4c-.9 1.5-2.2 2.7-3.7 3.7l-.7-1.1c1.1-.6 1.9-1.4 2.6-2.3c.7-.9 1.1-1.7 1.1-2.5c-.02.02 0-2.4 0-2.4h-3.1v-1.1h7.6v1.1h-3.1v2.4zm20.6 3.2h-1.4V188h-2.9v-1.2h2.9v-3.4h1.4v8.2zm-3.3-1.2c-1.3.2-2.5.4-3.7.5c-1.2.1-2.5.1-4.1.1c.04.05 0-6.7 0-6.7h6.3v1.1h-4.9v1.6h4.6v1.1h-4.6v1.8s.38-.02.4 0c.8 0 1.7-.1 2.7-.2c1.1-.1 2.1-.2 3.1-.4l.2 1.1zm-4.1 5.6v1.3h7.8v1.2h-9.2v-3.7h7.4v-1.2h-7.4v-1.2h8.8v3.6h-7.4z" stroke="none" fill="#fff"/></g><g id="Polygon2599"><path d="m12.1 160.7h2.6v1.1h-2.6v8h-1.4v-14.4h1.4v5.3zm-6.3-.5c0 .7.3 1.5 1 2.4c.7.9 1.6 1.6 2.7 2.3l-.8 1.1c-1.5-1-2.7-2.2-3.6-3.6c-.4.8-1 1.5-1.6 2.1c-.6.7-1.3 1.2-2 1.7l-.8-1c.7-.4 1.3-.9 1.9-1.5c.5-.6 1-1.2 1.3-1.8c.3-.6.5-1.2.5-1.7v-3.5h1.4v3.5zm18.6 2.6h3.8v1.2H14.5v-1.2h3.8s.02-2.04 0-2c-.4-.3-.8-.6-1-.9c-.2-.4-.3-.8-.3-1.2v-.2c0-.5.2-1 .5-1.4c.4-.4.9-.8 1.5-1c.7-.2 1.5-.3 2.4-.3c.9 0 1.6.1 2.3.3c.7.2 1.2.6 1.5 1c.4.4.6.9.6 1.4v.2c0 .4-.2.8-.4 1.2c-.2.3-.6.6-1 .9c-.02-.02 0 2 0 2zm-6-4.2c0 .5.2 1 .8 1.3c.5.3 1.2.4 2.2.4c.9 0 1.6-.1 2.2-.4c.5-.3.8-.8.8-1.3c0-.5-.3-1-.8-1.3c-.6-.3-1.3-.4-2.2-.4c-1 0-1.7.1-2.2.4c-.6.3-.8.8-.8 1.3zm1.3 4.2h3.3s-.02-1.53 0-1.5c-.5.1-1 .1-1.6.1c-.7 0-1.2 0-1.7-.1v1.5zm1.7 2c1.4 0 2.5.2 3.3.7c.7.5 1.1 1.2 1.1 2.1v.1c0 .9-.4 1.5-1.1 2c-.8.5-1.9.8-3.3.8c-1.4 0-2.5-.3-3.3-.8c-.8-.5-1.2-1.1-1.2-2v-.1c0-.9.4-1.6 1.2-2.1c.8-.5 1.9-.7 3.3-.7zm3 2.8c0-.5-.2-.9-.7-1.2c-.6-.3-1.3-.5-2.3-.5c-1 0-1.8.2-2.3.5c-.6.3-.8.7-.8 1.2v.1c0 .5.2.9.8 1.2c.5.3 1.3.4 2.3.4c1 0 1.7-.1 2.3-.4c.5-.3.7-.7.7-1.2v-.1zm16.1-3.1h-1.4v-4.6h-3.2v-1.1h3.2v-3.4h1.4v9.1zm-4.1-.8c-1.6-.8-2.8-1.8-3.6-3c-.4.7-.9 1.3-1.5 1.9c-.6.6-1.3 1.1-2 1.5l-.8-1c1.1-.7 2-1.4 2.6-2.2c.7-.8 1-1.6 1-2.3v-2.4h1.4s.02 2.37 0 2.4c0 .7.3 1.4 1 2.1c.6.8 1.5 1.4 2.5 2l-.6 1zm-.3 1c1 0 1.8.1 2.5.4c.6.2 1.1.5 1.5.9c.3.5.5.9.5 1.5v.2c0 .8-.4 1.5-1.2 2c-.7.5-1.9.7-3.3.7c-1.4 0-2.5-.2-3.3-.7c-.8-.5-1.2-1.2-1.2-2v-.2c0-.6.2-1 .6-1.5c.3-.4.8-.7 1.5-.9c.7-.3 1.5-.4 2.4-.4zm3.1 2.8c0-.5-.2-.9-.8-1.2c-.5-.3-1.3-.4-2.3-.4c-1 0-1.7.1-2.3.4c-.5.3-.8.7-.8 1.2v.1c0 .5.3.9.8 1.2c.6.3 1.3.5 2.3.5c1 0 1.8-.2 2.3-.5c.6-.3.8-.7.8-1.2v-.1zm10-6.5c-.9 0-1.6-.1-2.3-.3c-.7-.2-1.2-.5-1.5-.9c-.4-.4-.6-.8-.6-1.3v-.2c0-.5.2-1 .6-1.3c.3-.4.8-.7 1.5-.9c.7-.2 1.4-.3 2.3-.3c.9 0 1.7.1 2.3.3c.7.2 1.2.5 1.6.9c.3.3.5.8.5 1.3v.2c0 .5-.2.9-.5 1.3c-.4.4-.9.7-1.6.9c-.6.2-1.4.3-2.3.3zm0-1.1c.9 0 1.7-.1 2.2-.4c.5-.3.8-.6.8-1.1v-.1c0-.4-.3-.8-.8-1.1c-.5-.2-1.3-.4-2.2-.4c-.9 0-1.7.2-2.2.4c-.5.3-.8.7-.8 1.1v.1c0 .5.3.8.8 1.1c.5.3 1.3.4 2.2.4zm-6.9 2.2h13.8v1.1H42.3v-1.1zm2.4 2.4h9v3.5h-7.6v1.3h8v1.1h-9.4v-3.5h7.6v-1.2h-7.6v-1.2zm25.7 5.3v-14.4h1.4v14.4h-1.4zm-5.3-12.6h-1.7c-.5-.1-.9-.2-1.3-.3v-1.1c.4.1.8.2 1.3.2c.4.1 1 .1 1.7.1c-.04-.01 1.8 0 1.8 0v1.1s-1.84.04-1.8 0zm-4.8 6.1c1-.4 1.9-1 2.6-1.6c.6-.7 1-1.3 1-2c-.03.02 0-.2 0-.2h-3v-1.1h7.4v1.1h-3s-.02.19 0 .2c0 .6.3 1.2 1 1.8c.6.5 1.5 1 2.6 1.5l-.6 1c-1.6-.6-2.8-1.4-3.7-2.4c-.4.6-1 1.1-1.6 1.6c-.7.5-1.4.9-2.1 1.2l-.6-1.1zm5 3.1c1.3-.1 2.7-.3 4-.5l.2 1.1c-1.2.2-2.3.4-3.4.5c-1.1.1-2.3.2-3.5.2c-.01-.04-2.9 0-2.9 0v-1.2h4.2c-.04-.01 0-2.7 0-2.7h1.4s-.04 2.62 0 2.6zm19.8-6v-5h1.4v14.4h-1.4v-8.2h-1.8v7.7h-1.4v-13.7h1.4v4.8h1.8zm-8.7 3.8c.6 0 1.3 0 2.1-.1l2.5-.3l.2 1.1c-2 .3-4.2.5-6.5.5c.02 0 0-8.4 0-8.4h5.4v1.1h-4v6.1s.25.05.3 0zm22.8-8.8v5.6h2.5v1.1h-2.5v4.8h-1.4v-11.5h1.4zm-6.6 1.6H91c-.5-.1-.9-.2-1.3-.3v-1.1c.7.2 1.7.3 2.9.3c-.04.01 1.8 0 1.8 0v1.1s-1.84.03-1.8 0zm-4.5 1h8v1.1h-8V158zm7.1 4.6c0 .5-.1.9-.4 1.3c-.3.4-.6.7-1.1.9c-.5.2-1 .3-1.6.3c-.6 0-1.1-.1-1.6-.3c-.5-.2-.8-.5-1.1-.9c-.3-.4-.4-.8-.4-1.3v-.2c0-.5.1-.9.4-1.3c.3-.4.6-.7 1.1-.9c.5-.2 1-.3 1.6-.3c.6 0 1.1.1 1.6.3c.5.2.8.5 1.1.9c.3.4.4.8.4 1.3v.2zm-4.9 0c0 .4.2.8.5 1c.3.3.8.4 1.3.4c.5 0 1-.1 1.3-.4c.3-.3.5-.6.5-1v-.2c0-.4-.2-.7-.5-1c-.3-.3-.8-.4-1.3-.4c-.5 0-1 .1-1.3.4c-.3.3-.5.6-.5 1v.2zm.1 3.5h1.4v2.9h8v1.1h-9.4v-4zm28.8-7.4v1.2h-2.6v2.1h2.6v1.2h-2.6v1.8h-1.4v-9.6h1.4v3.3h2.6zM110 157c-.6 0-1.1-.1-1.6-.1c-.4-.1-.8-.1-1.2-.3v-1c.3.1.7.1 1.2.2h1.6c0 .05 1.8 0 1.8 0v1.2s-1.8-.03-1.8 0zm-4.4.9h7.9v1.1h-7.9v-1.1zm7 4.3c0 .5-.1.9-.4 1.2c-.2.4-.6.7-1 .9c-.5.2-1.1.3-1.6.3c-.7 0-1.2-.1-1.7-.3c-.4-.2-.8-.5-1.1-.9c-.2-.3-.4-.7-.4-1.2v-.1c0-.5.2-.9.4-1.3c.3-.3.7-.6 1.1-.8c.5-.2 1-.3 1.7-.3c.5 0 1.1.1 1.6.3c.4.2.8.5 1 .8c.3.4.4.8.4 1.3v.1zm-4.8 0c0 .4.1.7.5 1c.3.2.7.3 1.3.3c.5 0 .9-.1 1.2-.3c.4-.3.5-.6.5-1v-.1c0-.4-.1-.7-.5-1c-.3-.2-.7-.4-1.2-.4c-.6 0-1 .2-1.3.4c-.4.3-.5.6-.5 1v.1zm4.5 3.2c1.4 0 2.5.2 3.3.6c.8.5 1.2 1.1 1.2 1.8v.2c0 .7-.4 1.3-1.2 1.8c-.8.4-1.9.6-3.3.6c-1.4 0-2.5-.2-3.3-.6c-.8-.5-1.2-1.1-1.2-1.8v-.2c0-.7.4-1.3 1.2-1.8c.8-.4 1.9-.6 3.3-.6zm3.1 2.4c0-.4-.3-.7-.8-1c-.5-.2-1.3-.3-2.3-.3c-1 0-1.8.1-2.3.3c-.5.3-.8.6-.8 1v.1c0 .5.3.8.8 1c.5.3 1.3.4 2.3.4c1 0 1.8-.1 2.3-.4c.5-.2.8-.5.8-1v-.1zm15.1-12.4v3.9h2.6v1.1h-2.6v4h-1.4v-9h1.4zm-7.1 5.2c-.4.7-.9 1.3-1.5 1.9c-.6.5-1.3 1-2.1 1.5l-.7-1.1c1.1-.6 2-1.3 2.6-2.1c.7-.8 1-1.6 1-2.3v-2.3h1.4s.01 2.24 0 2.2c0 .8.3 1.5 1 2.2c.6.7 1.5 1.3 2.6 1.9l-.7 1.1c-1.6-.9-2.8-1.9-3.6-3zm2.8 4.1c.9 0 1.8.1 2.4.4c.7.2 1.2.5 1.6.9c.3.5.5.9.5 1.5v.2c0 .8-.4 1.5-1.2 2c-.8.5-1.9.7-3.3.7c-1.4 0-2.5-.2-3.3-.7c-.8-.5-1.2-1.2-1.2-2v-.2c0-.6.2-1 .5-1.5c.4-.4.9-.7 1.6-.9c.7-.3 1.5-.4 2.4-.4zm3.1 2.8c0-.5-.3-.9-.8-1.2c-.5-.3-1.3-.4-2.3-.4c-1 0-1.7.1-2.3.4c-.5.3-.8.7-.8 1.2v.1c0 .5.3.9.8 1.2c.6.3 1.3.5 2.3.5c1 0 1.8-.2 2.3-.5c.5-.3.8-.7.8-1.2v-.1zm14.2 2.3v-14.4h1.4v14.4h-1.4zm-5.2-9.6c0 .7.4 1.5 1.1 2.4c.7.9 1.5 1.6 2.6 2.3l-.7 1.1c-1.6-1-2.8-2.2-3.7-3.6c-.4.8-1 1.5-1.6 2.1c-.6.7-1.3 1.3-2.1 1.7l-.7-1c.7-.4 1.3-.9 1.9-1.5c.5-.6 1-1.2 1.3-1.8c.3-.6.5-1.2.5-1.7v-3.5h1.4s.03 3.52 0 3.5zm19.2 3.8v-8.6h1.4v8.6h-1.4zm-3.2-6.1c0 1.5-.6 2.7-1.7 3.8c-1.1 1.1-2.7 2-4.7 2.6l-.5-1.2c2.4-.7 4.1-1.7 4.9-3c-.8.2-1.6.2-2.5.2c.01.03-2.4 0-2.4 0v-1.1h2.4c1.3 0 2.3-.1 3-.2c.1-.3.1-.6.1-.9v-.5h-4.8v-1.2h6.2s-.03 1.51 0 1.5zm-2.8 8.5h6v-1.7h1.4v5.6h-8.8v-5.6h1.4v1.7zm0 1.1v1.6h6v-1.6h-6zm19.9 2.3v-14.4h1.4v14.4h-1.4zm-7.7-5.4c.8 0 1.8 0 2.9-.1c1.1-.2 2.2-.3 3.2-.6l.2 1.2c-1.3.2-2.6.4-3.9.5c-1.2.2-2.6.2-4.2.2c.02-.01 0-8.8 0-8.8h1.4v7.6s.39.02.4 0zm22.5-3.7h2.6v1.1h-2.6v8h-1.4v-14.4h1.4v5.3zm-8.8 3.6c.8 0 1.8 0 2.9-.1c1-.1 2.1-.3 3.1-.5l.2 1.1c-1.3.3-2.6.5-3.8.6c-1.2.1-2.6.1-4.1.1c-.02.01 0-8.6 0-8.6h6.4v1.1h-5v6.3s.34.04.3 0zm13.5 4.2H189v-2.1h1.9v2.1z" stroke="none" fill="#fff"/></g><g id="Polygon2598"><path d="m11.2 141.8v-14.4h1.4v14.4h-1.4zm-7.8-5.5c.8 0 1.8 0 2.9-.1c1-.1 2.1-.3 3.1-.5l.2 1.1c-1.3.3-2.6.5-3.8.6c-1.2.1-2.6.1-4.1.1c-.02.01 0-8.6 0-8.6h6.4v1.1h-5v6.3s.34.04.3 0zm12.4-1c.8-.3 1.6-.6 2.3-1.2c.8-.5 1.4-1 1.8-1.6c.5-.5.7-1.1.7-1.5c.04-.03 0-2.4 0-2.4h1.5s-.02 2.37 0 2.4c0 .4.2.9.7 1.5c.4.5 1 1 1.8 1.5c.7.5 1.5.8 2.3 1.1l-.4 1.1c-1-.3-2-.8-2.9-1.4c-.9-.6-1.7-1.2-2.2-1.9c-.6.7-1.3 1.4-2.2 2c-1 .7-1.9 1.2-2.9 1.5l-.5-1.1zm-1.3 4.1h13.7v1.2H14.5v-1.2zM30.4 128h9.8v1.1h-9.8V128zm7.6 3.6h2.4v1.1H30.2v-1.1h2.3l-.2-2l1.4-.1l.2 2.1h2.8l.2-2.1l1.3.1l-.2 2zm-9.6 3.6V134h13.8v1.2H28.4zm11.4 4.8h-7.6v1.3h8v1.1h-9.4v-3.5h7.6v-1.2h-7.6v-1.2h9v3.5zm13.9 1.8v-14.4h1.4v14.4h-1.4zm-4.8-9.2h1.8v-5h1.4v13.7h-1.4v-7.6h-1.8v-1.1zm-3.9 3.8c.6 0 1.2 0 2-.1c.8-.1 1.6-.2 2.4-.4l.1 1.1c-1 .2-2 .4-2.9.4c-1 .1-2.1.2-3.4.2c.03-.04 0-5.1 0-5.1h3.6V130h-3.6v-1.2h5v4.8h-3.6v2.8h.4zm23.3 5.4h-1.4v-14.4h1.4v14.4zm-7.5-3.8c-.8 0-1.5-.2-2.1-.6c-.5-.4-1-.9-1.3-1.6c-.3-.7-.5-1.5-.5-2.4v-.4c0-.9.2-1.7.5-2.4c.3-.7.8-1.2 1.3-1.6c.6-.4 1.3-.6 2.1-.6c.7 0 1.4.2 2 .6c.6.4 1 .9 1.3 1.6c.3.7.5 1.5.5 2.4v.4c0 .9-.2 1.7-.5 2.4c-.3.7-.7 1.2-1.3 1.6c-.6.4-1.3.6-2 .6zm0-1.2c.7 0 1.3-.3 1.8-.9c.4-.6.6-1.4.6-2.5v-.3c0-1.1-.2-2-.6-2.6c-.5-.6-1.1-.9-1.8-.9c-.8 0-1.4.3-1.8.9c-.5.6-.7 1.5-.7 2.6v.3c0 1.1.2 1.9.7 2.5c.4.6 1 .9 1.8.9zm13.1-4.9v-1.6l2.8-1.8h1.3v12h-1.5v-10.4l-2.6 1.8zm17.3 1v-5.5h1.4v14.4h-1.4v-7.7h-1.9v7.2h-1.4v-13.7h1.4v5.3h1.9zm-10.4-2.8V129h5.3s.03 2.02 0 2c0 1.1-.1 2.1-.5 2.9c-.3.9-.9 1.7-1.7 2.4c-.8.8-1.8 1.5-3.1 2.1l-.6-1.1c1.1-.6 2-1.2 2.7-1.8c.7-.6 1.1-1.3 1.4-2c.3-.7.5-1.5.5-2.4c-.03.01 0-1 0-1h-4zm24.6 2.2v1.1h-9.3v-5.3h1.4v4.2h7.9zm-11.7 2.8h13.8v1.1H93.7v-1.1zm2.4 2.6h1.4v3.2h8v1.2h-9.4v-4.4zm25.7 4.1v-14.4h1.4v14.4h-1.4zm-7.8-5.5c.8 0 1.8 0 2.9-.1c1-.1 2.1-.3 3.1-.5l.2 1.1c-1.3.3-2.6.5-3.8.6c-1.2.1-2.6.1-4.1.1v-8.6h6.5v1.1h-5.1v6.3s.35.04.3 0zm21.7 5.5v-14.4h1.5v14.4h-1.5zm-5.2-9.4c0 .7.3 1.5 1 2.3c.7.8 1.6 1.6 2.7 2.3l-.8 1c-1.5-1-2.7-2.1-3.6-3.4c-.9 1.5-2.2 2.7-3.7 3.7l-.7-1.1c1.1-.6 2-1.4 2.6-2.3c.7-.9 1.1-1.7 1.1-2.5V130H126v-1.1h7.6v1.1h-3.1v2.4zm20.6 3.2h-1.4V132h-2.9v-1.2h2.9v-3.4h1.4v8.2zm-3.3-1.2c-1.3.2-2.5.4-3.7.5c-1.2.1-2.5.1-4.1.1c.05.05 0-6.7 0-6.7h6.4v1.1h-4.9v1.6h4.5v1.1h-4.5v1.8s.29-.02.3 0c.8 0 1.7-.1 2.7-.2c1.1-.1 2.1-.2 3.1-.4l.2 1.1zm-4.1 5.6v1.3h7.8v1.2h-9.2v-3.7h7.4v-1.2h-7.4v-1.2h8.8v3.6h-7.4z" stroke="none" fill="#fff"/></g><g id="Polygon2597"><path d="m.6 112.5v-1s4.2-4.53 4.2-4.5c.6-.6.9-1.1 1.2-1.6c.2-.4.3-.9.3-1.5c0-.7-.2-1.2-.6-1.7c-.4-.4-.9-.6-1.6-.6c-.6 0-1.2.1-1.7.5c-.5.3-.9.7-1.3 1.3v-1.8c.3-.3.8-.6 1.3-.9c.5-.2 1.1-.4 1.8-.4c.7 0 1.4.2 1.9.5c.6.3 1 .7 1.3 1.3c.3.5.5 1.1.5 1.7c0 .6-.1 1.1-.3 1.6c-.2.5-.4.9-.7 1.3c-.3.4-.7.8-1.2 1.4c0-.04-3 3.2-3 3.2h5.5v1.2H.6zm19.3-7.6v-5.5h1.4v14.4h-1.4v-7.7H18v7.2h-1.4V99.6h1.4v5.3h1.9zm-10.4-2.8V101h5.3s.05 2.02 0 2c0 1.1-.1 2.1-.5 2.9c-.3.9-.9 1.7-1.7 2.4c-.7.8-1.8 1.5-3.1 2.1l-.6-1.1c1.1-.6 2-1.2 2.7-1.8c.7-.6 1.2-1.3 1.5-2c.2-.7.4-1.5.4-2.4v-1h-4zm24.5 3.6h2.6v1.2H34v6.9h-1.4V99.4h1.4v6.3zm-6.9 1.4c-.6 0-1.3-.1-1.8-.4c-.6-.3-1-.7-1.3-1.1c-.3-.5-.5-1.1-.5-1.7v-.3c0-.6.2-1.1.5-1.6c.3-.5.7-.9 1.3-1.1c.5-.3 1.2-.5 1.8-.5c.7 0 1.3.2 1.9.5c.5.2 1 .6 1.3 1.1c.3.5.5 1 .5 1.6v.3c0 .6-.2 1.2-.5 1.7c-.3.4-.8.8-1.3 1.1c-.6.3-1.2.4-1.9.4zm-2.3-3.2c0 .6.2 1.1.7 1.5c.4.4 1 .6 1.6.6c.7 0 1.3-.2 1.7-.6c.4-.4.6-.9.6-1.5v-.3c0-.6-.2-1.1-.6-1.4c-.4-.4-1-.6-1.7-.6c-.6 0-1.2.2-1.6.6c-.5.3-.7.8-.7 1.4v.3zm3.1 6.5c1.4-.1 2.6-.3 3.7-.6l.3 1.1c-1.2.3-2.3.5-3.3.6c-1.1.1-2.2.1-3.5.1c.02.02-2.7 0-2.7 0v-1.1s3.2-.03 3.2 0h.8c.05-.04 0-2.8 0-2.8h1.5s-.04 2.69 0 2.7zm12.5-.8c.4.6.8 1.1 1.4 1.4c.5.3 1.1.5 1.8.5c.5 0 1-.2 1.4-.4c.5-.2.8-.6 1-1c.3-.4.4-.9.4-1.4c0-.5-.1-1-.3-1.3c-.2-.4-.5-.7-.9-.9c-.4-.3-.8-.4-1.2-.4c-.4 0-.9.1-1.2.3c-.4.2-.7.4-.9.6c.02.05-1 0-1 0l.5-6.5h6v1.2h-4.6s-.34 3.83-.3 3.8c.5-.4 1.1-.6 1.9-.6c.6 0 1.2.2 1.8.5c.5.3.9.7 1.3 1.3c.3.6.5 1.2.5 2c0 .8-.2 1.5-.6 2.1c-.4.6-.9 1.1-1.6 1.4c-.6.3-1.4.5-2.2.5c-.7 0-1.3-.2-1.9-.4c-.5-.2-1-.5-1.3-.9v-1.8zm10.5 2.9H49v-2.1h1.9v2.1zm.7 0v-1s4.11-4.53 4.1-4.5c.6-.6 1-1.1 1.2-1.6c.2-.4.3-.9.3-1.5c0-.7-.2-1.2-.6-1.7c-.4-.4-.9-.6-1.6-.6c-.6 0-1.2.1-1.7.5c-.5.3-.9.7-1.3 1.3v-1.8c.3-.3.8-.6 1.3-.9c.5-.2 1.1-.4 1.8-.4c.7 0 1.4.2 2 .5c.5.3.9.7 1.2 1.3c.3.5.5 1.1.5 1.7c0 .6-.1 1.1-.3 1.6c-.2.5-.4.9-.7 1.3c-.3.4-.7.8-1.2 1.4c.01-.04-3 3.2-3 3.2h5.5v1.2h-7.5zm19.9-2.2h-1.4V99.4h1.4v10.9zm-7.8-2.7c-.7 0-1.3-.2-1.8-.5c-.6-.3-1-.7-1.3-1.3c-.3-.5-.5-1.1-.5-1.7v-.4c0-.6.2-1.2.5-1.8c.3-.5.7-.9 1.3-1.2c.5-.3 1.1-.5 1.8-.5c.7 0 1.3.2 1.9.5c.5.3 1 .7 1.3 1.2c.3.6.4 1.2.4 1.8v.4c0 .6-.1 1.2-.4 1.7c-.3.6-.8 1-1.3 1.3c-.6.3-1.2.5-1.9.5zm0-1.2c.7 0 1.2-.2 1.6-.6c.4-.5.7-1.1.7-1.8v-.3c0-.7-.3-1.2-.7-1.7c-.4-.4-.9-.6-1.6-.6c-.6 0-1.2.2-1.6.6c-.4.5-.6 1-.6 1.7v.3c0 .7.2 1.3.6 1.7c.4.5 1 .7 1.6.7zm-.9 2.8h1.4v3.8h7.9v1.1h-9.3v-4.9zm21.2 4.6V99.4h1.4v14.4H84zm-5.4-12.6h-1.7c-.4-.1-.9-.2-1.2-.3v-1.1c.3.1.7.1 1.2.2c.5 0 1 .1 1.7.1c.04-.04 1.9 0 1.9 0v1.1s-1.86.02-1.9 0zm.2 3.3c0 .7.4 1.5 1 2.3c.7.8 1.6 1.6 2.7 2.3l-.7 1c-1.6-1-2.8-2.1-3.7-3.5c-.4.8-.9 1.5-1.6 2.1c-.6.6-1.3 1.2-2.1 1.7l-.7-1.1c.7-.4 1.3-.9 1.9-1.5c.5-.5 1-1.1 1.3-1.7c.3-.6.5-1.1.5-1.6c.01.02 0-.9 0-.9h-3.1v-1.1h7.7v1.1h-3.2s.02.89 0 .9zm23.4 9.3V99.4h1.4v14.4h-1.4zm-5.6-9.5h2.6v-4.7h1.4v13.7h-1.4v-7.9h-2.6v-1.1zm-1.4-.2c0 .8.3 1.6.8 2.5c.6.9 1.3 1.7 2.2 2.3l-.8 1c-1.2-.9-2.2-2-2.9-3.3c-.6 1.3-1.6 2.5-2.8 3.6l-.9-.9c.9-.7 1.6-1.6 2.2-2.5c.6-1 .9-1.9.9-2.7c-.04.04 0-3.4 0-3.4h1.3s.03 3.4 0 3.4zm21-1.1c0 1.2 0 2.3-.1 3.3c-.2 1.1-.4 2.3-.7 3.7l-1.4-.4c.6-2.1.8-4.3.8-6.6c.03-.05 0-.9 0-.9h-8v-1.2h9.4s.04 2.15 0 2.1zm-11.5 8.5h13.8v1.1h-13.8v-1.1zm26-1.2h-1.4v-5.6h-2.9v-1.2h2.9v-4.1h1.4v10.9zm-11.1-9.8h6.1v7.2h-6.1v-7.2zm1.4 6h3.4v-4.8H121v4.8zm2.4 2.7v3.8h7.9v1.1H122v-4.9h1.4zm12.9-1.7h8.1v1.1h-9.5v-8h9.1v1.2h-7.7v2.3h7.2v1.1h-7.2v2.3zm-3.7 5.1v-1.1h13.7v1.1h-13.7z" stroke="none" fill="#fff"/></g><g id="Polygon2596"><path d="m.8 75.9v-1.6l2.7-1.8h1.4v12H3.4V74.1L.8 75.9zm6 8.6v-1l4.1-4.5c.6-.6 1-1.1 1.2-1.6c.2-.4.4-.9.4-1.5c0-.7-.2-1.2-.7-1.7c-.4-.4-.9-.6-1.6-.6c-.6 0-1.2.1-1.7.5c-.5.3-.9.7-1.3 1.3v-1.8c.4-.3.8-.6 1.3-.9c.5-.2 1.1-.4 1.8-.4c.8 0 1.4.2 2 .5c.5.3 1 .7 1.2 1.3c.3.5.5 1.1.5 1.7c0 .6-.1 1.1-.3 1.6c-.2.5-.4.9-.7 1.3c-.3.4-.7.8-1.2 1.4c.02-.04-3 3.2-3 3.2h5.5v1.2H6.8zm10.2 0h-1.9v-2.1h1.9v2.1zm.9-2.9c.3.6.8 1.1 1.3 1.4c.6.3 1.2.5 1.9.5c.7 0 1.4-.2 1.9-.7c.5-.4.8-.9.8-1.6c0-.7-.2-1.2-.6-1.7c-.5-.4-1.1-.7-2-.7c-.03.01-1.1 0-1.1 0v-1.2s1.04-.02 1 0c.7 0 1.3-.2 1.7-.6c.5-.3.7-.8.7-1.4c0-.7-.2-1.2-.7-1.5c-.4-.4-.9-.6-1.5-.6c-.6 0-1.2.2-1.7.5c-.5.4-.9.8-1.2 1.4v-1.8c.2-.3.7-.6 1.2-.9c.5-.2 1.2-.4 1.8-.4c.7 0 1.4.2 1.9.5c.6.2 1 .6 1.3 1.1c.3.4.5 1 .5 1.5c0 1.3-.7 2.2-2.1 2.7c.7.2 1.3.6 1.7 1.1c.4.6.6 1.2.6 2c0 .7-.1 1.3-.5 1.8c-.3.5-.8.9-1.5 1.2c-.6.3-1.3.5-2.1.5c-.8 0-1.5-.2-2-.4c-.6-.2-1-.5-1.3-.9v-1.8zm20.1.7h-1.4V71.4h1.4v10.9zm-7.8-2.7c-.6 0-1.3-.2-1.8-.5c-.6-.3-1-.7-1.3-1.3c-.3-.5-.5-1.1-.5-1.7v-.4c0-.6.2-1.2.5-1.8c.3-.5.7-.9 1.3-1.2c.5-.3 1.2-.5 1.8-.5c.7 0 1.3.2 1.9.5c.5.3 1 .7 1.3 1.2c.3.6.4 1.2.4 1.8v.4c0 .6-.1 1.2-.4 1.7c-.3.6-.8 1-1.3 1.3c-.6.3-1.2.5-1.9.5zm0-1.2c.7 0 1.3-.2 1.7-.6c.4-.5.6-1.1.6-1.8v-.3c0-.7-.2-1.2-.7-1.7c-.4-.4-.9-.6-1.6-.6c-.6 0-1.2.2-1.6.6c-.4.5-.6 1-.6 1.7v.3c0 .7.2 1.3.6 1.7c.4.5 1 .7 1.6.7zm-.9 2.8h1.4v3.8h7.9v1.1h-9.3v-4.9zm21.2 4.6V71.4h1.4v14.4h-1.4zm-5.3-12.6h-1.7c-.5-.1-1-.2-1.3-.3v-1.1c.3.1.7.1 1.2.2c.5 0 1 .1 1.8.1c-.05-.04 1.9 0 1.9 0v1.1s-1.95.02-1.9 0zm.1 3.3c0 .7.4 1.5 1 2.3c.7.8 1.6 1.6 2.7 2.3l-.7 1c-1.6-1-2.8-2.1-3.7-3.5c-.4.8-.9 1.5-1.6 2.1c-.6.6-1.3 1.2-2 1.7l-.8-1.1c.7-.4 1.3-.9 1.9-1.5c.6-.5 1-1.1 1.3-1.7c.4-.6.5-1.1.5-1.6c.02.02 0-.9 0-.9h-3.1v-1.1h7.7v1.1h-3.2s.03.89 0 .9zm20.1 1.2h2.5v1.2h-2.5v6.9H64V71.4h1.4v6.3zm-6.9 1.4c-.7 0-1.3-.1-1.9-.4c-.5-.3-1-.7-1.3-1.1c-.3-.5-.5-1.1-.5-1.7v-.3c0-.6.2-1.1.5-1.6c.3-.5.8-.9 1.3-1.1c.6-.3 1.2-.5 1.9-.5c.7 0 1.3.2 1.8.5c.6.2 1 .6 1.3 1.1c.4.5.5 1 .5 1.6v.3c0 .6-.1 1.2-.5 1.7c-.3.4-.7.8-1.3 1.1c-.5.3-1.1.4-1.8.4zm-2.3-3.2c0 .6.2 1.1.6 1.5c.4.4 1 .6 1.7.6c.7 0 1.2-.2 1.6-.6c.5-.4.7-.9.7-1.5v-.3c0-.6-.2-1.1-.7-1.4c-.4-.4-.9-.6-1.6-.6c-.7 0-1.3.2-1.7.6c-.4.3-.6.8-.6 1.4v.3zm3 6.5c1.4-.1 2.7-.3 3.8-.6l.2 1.1c-1.1.3-2.2.5-3.3.6c-1 .1-2.2.1-3.4.1c-.04.02-2.8 0-2.8 0v-1.1s3.24-.03 3.2 0h.9v-2.8h1.4v2.7zm23.6-4.7h2.6v1.2h-2.6v6.9h-1.4V71.4h1.4v6.3zm-6.9 1.4c-.7 0-1.3-.1-1.8-.4c-.6-.3-1-.7-1.3-1.1c-.4-.5-.5-1.1-.5-1.7v-.3c0-.6.1-1.1.5-1.6c.3-.5.7-.9 1.3-1.1c.5-.3 1.1-.5 1.8-.5c.7 0 1.3.2 1.9.5c.5.2 1 .6 1.3 1.1c.3.5.5 1 .5 1.6v.3c0 .6-.2 1.2-.5 1.7c-.3.4-.8.8-1.3 1.1c-.6.3-1.2.4-1.9.4zm-2.3-3.2c0 .6.2 1.1.7 1.5c.4.4.9.6 1.6.6c.7 0 1.3-.2 1.7-.6c.4-.4.6-.9.6-1.5v-.3c0-.6-.2-1.1-.6-1.4c-.5-.4-1-.6-1.7-.6c-.7 0-1.2.2-1.6.6c-.5.3-.7.8-.7 1.4v.3zm3 6.5c1.5-.1 2.7-.3 3.8-.6l.3 1.1c-1.2.3-2.3.5-3.3.6c-1.1.1-2.2.1-3.5.1c0 .02-2.7 0-2.7 0v-1.1s3.18-.03 3.2 0h.8c.03-.04 0-2.8 0-2.8h1.4s.04 2.69 0 2.7zm20.6 3.4h-1.4V71.4h1.4v14.4zM89.7 82c-.8 0-1.5-.2-2.1-.6c-.5-.4-1-.9-1.3-1.6c-.3-.7-.4-1.5-.4-2.4v-.4c0-.9.1-1.7.4-2.4c.3-.7.8-1.2 1.3-1.6c.6-.4 1.3-.6 2.1-.6c.8 0 1.4.2 2 .6c.6.4 1 .9 1.3 1.6c.3.7.5 1.5.5 2.4v.4c0 .9-.2 1.7-.5 2.4c-.3.7-.7 1.2-1.3 1.6c-.6.4-1.2.6-2 .6zm0-1.2c.7 0 1.3-.3 1.8-.9c.4-.6.6-1.4.6-2.5v-.3c0-1.1-.2-2-.6-2.6c-.5-.6-1.1-.9-1.8-.9c-.8 0-1.4.3-1.8.9c-.4.6-.7 1.5-.7 2.6v.3c0 1.1.3 1.9.7 2.5c.4.6 1 .9 1.8.9zm13.1-2.2h8.1v1.1h-9.6v-6.9h9.2v1.1h-7.7v4.7zm-3.7 6v-1.1h13.7v1.1H99.1zm28.1 1.2V71.4h1.4v14.4h-1.4zm-7.8-5.5c.8 0 1.7 0 2.8-.1c1.1-.1 2.1-.3 3.1-.5l.3 1.1c-1.4.3-2.6.5-3.8.6c-1.3.1-2.6.1-4.2.1c.03.01 0-8.6 0-8.6h6.5v1.1H119v6.3s.39.04.4 0zm12.3-1c.8-.3 1.6-.6 2.4-1.2c.7-.5 1.3-1 1.8-1.6c.5-.5.7-1.1.7-1.5v-2.4h1.4s.03 2.37 0 2.4c0 .4.3.9.7 1.5c.5.5 1.1 1 1.8 1.5c.8.5 1.6.8 2.4 1.1l-.5 1.1c-1-.3-2-.8-2.9-1.4c-.9-.6-1.6-1.2-2.2-1.9c-.5.7-1.3 1.4-2.2 2c-.9.7-1.9 1.2-2.9 1.5l-.5-1.1zm-1.3 4.1h13.8v1.2h-13.8v-1.2zM146.3 72h9.8v1.1h-9.8V72zm7.7 3.6h2.3v1.1h-10.1v-1.1h2.3l-.2-2l1.3-.1l.2 2.1h2.8l.2-2.1l1.4.1l-.2 2zm-9.6 3.6V78h13.7v1.2h-13.7zm11.3 4.8h-7.5v1.3h8v1.1h-9.4v-3.5h7.5v-1.2h-7.5v-1.2h8.9v3.5zm14 1.8V71.4h1.4v14.4h-1.4zm-4.8-9.2h1.8v-5h1.3v13.7h-1.3v-7.6h-1.8v-1.1zm-4 3.8c.6 0 1.3 0 2.1-.1c.8-.1 1.5-.2 2.3-.4l.2 1.1c-1 .2-2 .4-3 .4c-.9.1-2.1.2-3.3.2c-.02-.04 0-5.1 0-5.1h3.6V74h-3.6v-1.2h5v4.8h-3.6v2.8h.3zm23.4 5.4h-1.5V71.4h1.5v14.4zm-7.6-3.8c-.8 0-1.4-.2-2-.6c-.6-.4-1-.9-1.3-1.6c-.4-.7-.5-1.5-.5-2.4v-.4c0-.9.1-1.7.5-2.4c.3-.7.7-1.2 1.3-1.6c.6-.4 1.2-.6 2-.6c.8 0 1.5.2 2.1.6c.5.4 1 .9 1.3 1.6c.3.7.4 1.5.4 2.4v.4c0 .9-.1 1.7-.4 2.4c-.3.7-.8 1.2-1.3 1.6c-.6.4-1.3.6-2.1.6zm0-1.2c.8 0 1.4-.3 1.8-.9c.4-.6.7-1.4.7-2.5v-.3c0-1.1-.3-2-.7-2.6c-.4-.6-1-.9-1.8-.9c-.7 0-1.3.3-1.8.9c-.4.6-.6 1.5-.6 2.6v.3c0 1.1.2 1.9.6 2.5c.5.6 1.1.9 1.8.9z" stroke="none" fill="#fff"/></g><g id="Polygon2595"><path d="m3.1 29.5H.4L4.1 44h3l2.6-10.8L12.5 44h3l3.7-14.5h-2.3l-2.8 11.1l-2.7-11.1h-3L5.7 40.6l-2.6-11.1zM22.3 32h-2.5v-2.6h2.5v2.6zm0 12h-2.5V33.6h2.5V44zm1-5.2c0-1.1.2-2.1.7-2.9c.4-.8.9-1.5 1.6-1.9c.8-.5 1.5-.7 2.4-.7c.6 0 1.2.1 1.7.4c.6.2 1 .6 1.4 1c-.02.01 0-5.3 0-5.3h2.4V44h-2.3s-.12-1.27-.1-1.3c-.3.5-.8.9-1.3 1.1c-.6.3-1.2.5-1.8.5c-.9 0-1.6-.3-2.4-.7c-.7-.4-1.2-1.1-1.6-1.9c-.5-.8-.7-1.8-.7-2.9zm2.6 0c0 .8.1 1.4.4 2c.2.5.5.9.9 1.2c.5.3.9.4 1.4.4c.5 0 1-.2 1.4-.5c.5-.3.8-.7 1.1-1.2v-3.8c-.3-.6-.6-1-1.1-1.3c-.4-.3-.9-.4-1.4-.4c-.4 0-.9.1-1.3.4c-.4.3-.8.7-1 1.2c-.3.6-.4 1.2-.4 2zm8.6-.2c0-1 .2-1.9.6-2.7c.4-.8 1-1.5 1.7-1.9c.8-.5 1.6-.7 2.6-.7c1.5 0 2.7.5 3.5 1.5c.8.9 1.2 2.2 1.2 3.9c.04 0 0 .9 0 .9c0 0-7.2.05-7.2 0c.1.9.4 1.6.9 2.1c.5.4 1.2.7 2 .7c.7 0 1.3-.1 1.9-.4c.6-.2 1.2-.6 1.7-1.2v2.3c-.4.4-1 .7-1.6.9c-.6.2-1.3.3-2.1.3c-1.1 0-2-.3-2.8-.7c-.8-.5-1.4-1.1-1.8-1.9c-.4-.8-.6-1.7-.6-2.7v-.4zm7.2-.8c0-.8-.2-1.5-.6-1.9c-.5-.5-1-.7-1.7-.7c-.7 0-1.3.2-1.7.7c-.5.5-.7 1.1-.8 1.9h4.8zm7.8 6.2V29.5s4.99.04 5 0c1.4 0 2.6.3 3.7.9c1.1.5 1.9 1.4 2.5 2.4c.6 1.1.9 2.3.9 3.7v.4c0 1.4-.3 2.7-.9 3.7c-.6 1.1-1.4 1.9-2.5 2.5c-1.1.6-2.3.9-3.7.9c-.01-.02-5 0-5 0zm4.9-2.1c.7 0 1.4-.2 2.1-.5c.7-.4 1.2-.9 1.6-1.7c.5-.7.7-1.7.7-2.8v-.4c0-1.1-.2-2-.7-2.8c-.4-.7-.9-1.3-1.6-1.6c-.7-.3-1.4-.5-2.1-.5h-2.3v10.3h2.3zM65.2 32h-2.5v-2.6h2.5v2.6zm0 12h-2.5V33.6h2.5V44zm1.4-3.3c.4.5.9.9 1.5 1.2c.5.3 1.1.4 1.7.4c.7 0 1.1-.1 1.4-.3c.3-.2.4-.5.4-.8c0-.3 0-.5-.2-.7c-.2-.2-.6-.4-1.1-.6l-1-.4c-.9-.3-1.6-.7-2-1.2c-.5-.5-.7-1.2-.7-2c0-.5.1-1 .4-1.5c.3-.4.7-.8 1.3-1.1c.5-.2 1.2-.4 2-.4c.6 0 1.2.1 1.8.3c.6.2 1 .5 1.4.8v2.3c-.5-.5-1-.9-1.5-1.1c-.6-.3-1.1-.4-1.6-.4c-.6 0-.9.1-1.2.3c-.2.2-.3.4-.3.7c0 .2.1.4.3.6c.3.2.6.4 1.1.6l1.1.3c.9.4 1.6.8 2 1.3c.4.5.6 1.2.6 2c0 1-.4 1.8-1.1 2.4c-.8.6-1.8.9-3.1.9c-.6 0-1.2-.1-1.8-.4c-.6-.2-1.1-.4-1.4-.8v-2.4zm8.5 7.5V33.6h2.3s.12 1.28.1 1.3c.3-.5.8-.9 1.3-1.1c.6-.3 1.2-.5 1.8-.5c.9 0 1.6.2 2.4.7c.7.4 1.2 1.1 1.6 1.9c.5.8.7 1.8.7 2.9c0 1.1-.2 2.1-.7 2.9c-.4.8-.9 1.5-1.6 1.9c-.8.4-1.5.7-2.4.7c-.6 0-1.2-.2-1.7-.4c-.6-.3-1-.6-1.4-1c.02-.02 0 5.3 0 5.3h-2.4zm2.4-7.5c.3.5.6 1 1.1 1.2c.4.3.9.5 1.4.5c.5 0 .9-.2 1.3-.4c.4-.3.8-.7 1-1.2c.3-.6.4-1.2.4-2c0-.8-.1-1.4-.4-2c-.2-.5-.5-.9-.9-1.2c-.4-.3-.9-.4-1.4-.4c-.5 0-1 .2-1.4.4c-.5.3-.8.7-1.1 1.3v3.8zM88.8 44h-2.5V29.4h2.5V44zm1-2.9c0-.8.2-1.5.7-2c.4-.5.9-.8 1.5-1c.6-.3 1.4-.4 2.3-.6l2.1-.3c-.1-1.4-.9-2.1-2.5-2.1c-.5 0-1.1.2-1.7.5c-.6.3-1.1.7-1.4 1.3v-2.4c.9-.8 2.2-1.2 3.6-1.2c1.4 0 2.4.4 3.3 1.1c.8.7 1.2 1.8 1.2 3.2v6.4h-2s-.27-1.22-.3-1.2c-.5.5-1 .8-1.6 1.1c-.5.2-1.1.4-1.9.4c-1 0-1.8-.3-2.4-.9c-.6-.6-.9-1.3-.9-2.3zm2.4-.1c0 .4.2.7.4.9c.3.3.6.4 1 .4c.6 0 1.2-.2 1.7-.6c.6-.3.9-.8 1.2-1.3v-1.5s-1.24.22-1.2.2c-.9.2-1.5.3-1.9.4c-.3.2-.6.4-.8.5c-.2.3-.4.6-.4 1zm11.2 2.9l-4.1-10.3h2.6l2.7 7.4l2.8-7.4h2.4L104 48.2h-2.5l1.9-4.3z" stroke="none" fill="#fff"/></g><g id="Polygon2594"><path d="m1.6 16V1.5s5.75.04 5.8 0c.9 0 1.7.2 2.4.5c.7.4 1.3.9 1.7 1.5c.4.6.6 1.4.6 2.3v.3c0 .9-.2 1.6-.6 2.3c-.4.6-1 1.1-1.7 1.4c-.7.3-1.5.5-2.4.5c-.05.02-3.3 0-3.3 0v5.7H1.6zM7 8.2c.7 0 1.3-.2 1.7-.5c.5-.4.7-1 .7-1.6v-.3c0-.7-.2-1.2-.7-1.6c-.4-.4-1-.6-1.7-.6H4.1v4.6s2.87.05 2.9 0zm5.2 4.9c0-.8.3-1.5.7-2c.4-.5.9-.8 1.5-1c.6-.3 1.4-.4 2.3-.6l2.2-.3c-.1-1.4-1-2.1-2.5-2.1c-.6 0-1.2.2-1.8.5c-.6.3-1 .7-1.4 1.3V6.5c1-.8 2.2-1.2 3.7-1.2c1.3 0 2.4.4 3.2 1.1c.8.7 1.2 1.8 1.2 3.2c.04.01 0 6.4 0 6.4h-2s-.24-1.22-.2-1.2c-.6.5-1.1.8-1.6 1.1c-.6.2-1.2.4-1.9.4c-1.1 0-1.9-.3-2.5-.9c-.6-.6-.9-1.3-.9-2.3zm2.5-.1c0 .4.1.7.3.9c.3.3.6.4 1 .4c.7 0 1.2-.2 1.8-.6c.5-.3.9-.8 1.1-1.3c.02-.05 0-1.5 0-1.5c0 0-1.21.22-1.2.2c-.9.2-1.5.3-1.8.4c-.4.2-.7.4-.9.5c-.2.3-.3.6-.3 1zm8.2 3V5.6h2.3l.1 1.5c.4-.5.8-.9 1.4-1.3c.6-.3 1.2-.5 1.9-.5c1.2 0 2.1.4 2.7 1c.6.7 1 1.7 1 2.9c-.04 0 0 6.8 0 6.8h-2.5s.01-6.8 0-6.8c0-1.3-.5-2-1.6-2c-.6 0-1.2.3-1.7.7c-.6.5-1 1.1-1.2 1.8v6.3h-2.4zm10.2-5.4c0-1 .2-1.9.7-2.7c.4-.8 1.1-1.4 1.9-1.9c.7-.4 1.6-.7 2.6-.7c1 0 1.9.3 2.7.7c.8.5 1.4 1.1 1.9 1.9c.4.8.6 1.7.6 2.7v.3c0 1.1-.2 2-.6 2.8c-.5.8-1.1 1.4-1.9 1.9c-.8.4-1.7.7-2.7.7c-1 0-1.9-.3-2.6-.7c-.8-.5-1.5-1.1-1.9-1.9c-.5-.8-.7-1.8-.7-2.8v-.3zm2.6.3c0 1 .2 1.9.7 2.5c.4.7 1.1 1 1.9 1c.9 0 1.5-.3 2-1c.4-.6.7-1.5.7-2.5v-.3c0-1-.3-1.8-.7-2.4c-.5-.7-1.1-1-2-1c-.8 0-1.5.3-1.9 1c-.5.6-.7 1.4-.7 2.4v.3zm8.9 5.1V5.6h2.3s.09 1.72.1 1.7c.2-.6.6-1.1 1.2-1.4c.5-.4 1.2-.6 1.9-.6c.3 0 .6.1.8.1v2.2c-.3-.1-.6-.2-.9-.2c-.7 0-1.3.3-1.9.7c-.5.4-.9.9-1.1 1.6c.02.01 0 6.3 0 6.3h-2.4zm6.2-2.9c0-.8.3-1.5.7-2c.4-.5.9-.8 1.5-1c.6-.3 1.4-.4 2.3-.6l2.2-.3c-.2-1.4-1-2.1-2.6-2.1c-.5 0-1.1.2-1.7.5c-.6.3-1 .7-1.4 1.3V6.5c1-.8 2.2-1.2 3.7-1.2c1.3 0 2.4.4 3.2 1.1c.8.7 1.2 1.8 1.2 3.2c.03.01 0 6.4 0 6.4h-2s-.25-1.22-.3-1.2c-.5.5-1 .8-1.6 1.1c-.5.2-1.1.4-1.9.4c-1 0-1.8-.3-2.4-.9c-.6-.6-.9-1.3-.9-2.3zm2.5-.1c0 .4.1.7.3.9c.3.3.6.4 1 .4c.6 0 1.2-.2 1.7-.6c.6-.3 1-.8 1.2-1.3v-1.5s-1.22.22-1.2.2c-.9.2-1.5.3-1.8.4c-.4.2-.7.4-.9.5c-.2.3-.3.6-.3 1zm8.1 3V5.6h2.3s.08 1.37.1 1.4c.4-.5.9-.9 1.4-1.2c.4-.3 1-.5 1.7-.5c.6 0 1.1.2 1.6.5c.6.3.9.8 1.2 1.4c.4-.6.9-1.1 1.5-1.4c.5-.3 1.1-.5 1.8-.5c.6 0 1.1.2 1.6.4c.5.3.9.7 1.2 1.2c.3.6.4 1.2.4 2c.05-.01 0 7.1 0 7.1h-2.4V8.9c0-1.2-.5-1.7-1.4-1.7c-.4 0-.9.2-1.4.6c-.4.4-.8.9-.9 1.5c-.05-.05 0 6.7 0 6.7h-2.5s.04-7.2 0-7.2c0-.5-.1-1-.3-1.2c-.3-.3-.6-.4-1.1-.4c-.4 0-.9.2-1.3.5c-.4.4-.8.9-1 1.5v6.8h-2.5zM80.2 4h-2.4V1.4h2.4v2.6zm0 12h-2.4V5.6h2.4V16zm1.1-5.4c0-.9.2-1.8.6-2.6c.5-.8 1.1-1.5 2-2c.8-.4 1.8-.7 2.9-.7c.6 0 1.1.1 1.6.3c.6.1 1 .4 1.4.6v2.5c-.4-.5-.8-.8-1.3-1.1c-.5-.2-1-.3-1.6-.3c-.5 0-1 .1-1.5.4c-.5.3-.9.6-1.1 1.2c-.3.5-.5 1-.5 1.7v.4c0 .6.2 1.2.5 1.7c.3.5.6.9 1.1 1.2c.5.3 1 .4 1.5.4c1.1 0 2.1-.5 2.9-1.4v2.4c-.4.3-.8.5-1.3.7c-.6.2-1.1.3-1.8.3c-1.1 0-2-.3-2.8-.7c-.9-.5-1.5-1.2-2-2c-.4-.8-.6-1.6-.6-2.6v-.4z" stroke="none" fill="#fff"/></g></svg>