<?xml version="1.0" standalone="no"?><!DOCTYPE svg PUBLIC "-//W3C//DTD SVG 1.1//EN" "http://www.w3.org/Graphics/SVG/1.1/DTD/svg11.dtd"><svg xmlns="http://www.w3.org/2000/svg" version="1.1" width="199.3px" height="23.3px" viewBox="0 -2 199.3 23.3" style="top:-2px"><desc>2021년 기부금액 (단위: 만 USD)</desc><defs/><g id="Polygon121461"><path d="m5.6 8v1H.5v-.7L3 5.8c.2-.2.4-.4.5-.6c.2-.1.3-.3.5-.5c.1-.3.2-.5.2-.8c.1-.3.1-.5.1-.8c-.1-.2-.2-.4-.4-.5c-.2-.2-.5-.3-.8-.3c-.2 0-.4.1-.6.1c-.2.1-.3.2-.4.3c-.1.1-.2.3-.3.5c-.1.1-.1.3-.1.5L.6 3.5c.1-.7.4-1.2.8-1.6c.5-.4 1-.5 1.7-.5c.4 0 .7 0 .9.1c.3.1.6.2.8.4c.2.2.3.4.5.7c.1.2.1.5.1.9c0 .3 0 .5-.1.8c-.1.2-.2.5-.3.7c-.2.2-.3.4-.5.6l-.6.6L2 8.1c.1 0 .3-.1.5-.1h.5c-.03-.02 2.6 0 2.6 0zm6.1-2.8c0 .5-.1.9-.2 1.4c-.1.4-.2.8-.4 1.2c-.2.4-.5.7-.9.9c-.3.2-.8.4-1.3.4c-.5 0-1-.2-1.3-.4c-.4-.2-.6-.5-.9-.9c-.2-.4-.3-.8-.4-1.2c-.1-.5-.1-.9-.1-1.4c0-.4 0-.9.1-1.3c.1-.5.2-.9.4-1.3c.3-.4.5-.7.9-.9c.3-.2.8-.3 1.3-.3c.5 0 1 .1 1.3.3c.4.3.7.6.9.9c.2.4.3.8.4 1.3c.1.4.2.9.2 1.3zm-1.2 0c0-.3 0-.6-.1-.9c0-.3-.1-.6-.2-.9c-.1-.3-.2-.6-.5-.8c-.2-.2-.4-.3-.8-.3c-.3 0-.6.1-.8.3c-.2.2-.4.5-.5.8c-.1.3-.2.6-.2.9c-.1.3-.1.6-.1.9c0 .3 0 .6.1.9c0 .3.1.7.2 1c.1.3.3.5.5.7c.2.2.5.3.8.3c.4 0 .6-.1.8-.3c.3-.2.4-.4.5-.7c.1-.3.2-.7.2-1c.1-.3.1-.6.1-.9zM17.3 8v1h-5.1v-.7s2.57-2.53 2.6-2.5c.1-.2.3-.4.5-.6c.1-.1.3-.3.4-.5c.1-.3.2-.5.3-.8c.1-.3.1-.5 0-.8c0-.2-.2-.4-.3-.5c-.2-.2-.5-.3-.9-.3c-.2 0-.4.1-.5.1c-.2.1-.3.2-.5.3c-.1.1-.2.3-.2.5c-.1.1-.1.3-.1.5l-1.1-.2c.1-.7.3-1.2.8-1.6c.4-.4 1-.5 1.7-.5c.3 0 .6 0 .9.1c.3.1.5.2.7.4c.2.2.4.4.5.7c.1.2.2.5.2.9c0 .3 0 .5-.1.8c-.1.2-.2.5-.4.7c-.1.2-.3.4-.5.6c-.2.2-.4.4-.5.6l-2 1.9c.2 0 .4-.1.5-.1h.5c.02-.02 2.6 0 2.6 0zm3.2-4.9v-.2c-.04-.01-1.3 1-1.3 1l-.6-.7l2.1-1.8h.9v6.6h1.4v1h-4.1v-1h1.6V3.1s-.05.04 0 0zm10.1 4.3V4.3h-2.4v-.9h2.4v-.9h-2.4v-.8h2.4V.6h1.1v6.8h-1.1zm-1.4-2.5l.1.8c-.7.2-1.4.2-2.1.3c-.6 0-1.3.1-1.9.1c-.05-.04-.8 0-.8 0V1.2h1.1v4c.6 0 1.2 0 1.8-.1c.5 0 1.1-.1 1.8-.2zm-2.5 3.8h5.2v.9h-6.2V6.8h1v1.9zM41.8.6h1.1v9.2h-1.1V.6zm-6 .9s4.37.02 4.4 0c0 .7-.1 1.4-.3 2c-.1.6-.3 1.2-.7 1.8c-.3.5-.8 1-1.3 1.5c-.5.5-1.2.9-2 1.3l-.6-.8c1.3-.6 2.2-1.3 2.8-2.1c.6-.8.9-1.8 1-2.8c-.01-.02-3.3 0-3.3 0v-.9zm16-.6v4h-6.3v-4h1v1.2h4.2V.9h1.1zm-1.1 3.2V2.9h-4.2v1.2h4.2zm2.1 1.8v.9h-3.7v3h-1v-3h-3.6v-.9h8.3zm7.9-1.5c.01-.04 1.3 0 1.3 0v.8h-8.4v-.8s6.06-.04 6.1 0c.1-.6.1-1 .2-1.4V1.9c.01-.04-5.2 0-5.2 0v-.9h6.2s.04.71 0 .7v1.2c0 .4-.1.9-.2 1.5zm-6 5.2V6.3h6.2v3.3h-6.2zm1-2.4v1.6h4.2V7.2h-4.2zM69.6.6h1v5.4h-1V3.7h-.9v2.3h-1V.7h1v2.2h.9V.6zm-2.5 2.7c0 .4-.1.6-.2.9c-.1.3-.2.5-.4.7c-.2.2-.4.4-.7.5c-.2.1-.5.1-.8.1c-.3 0-.6 0-.9-.1c-.2-.1-.4-.3-.6-.5c-.2-.2-.4-.4-.5-.7c-.1-.3-.1-.5-.1-.9c0-.3 0-.6.1-.9c.1-.2.3-.5.5-.7c.2-.2.4-.3.6-.4c.3-.1.6-.2.9-.2c.3 0 .6.1.8.2c.3.1.5.2.7.4c.2.2.3.5.4.7c.1.3.2.6.2.9zm-3.3 0c0 .4.1.8.3 1c.3.2.5.4.9.4c.3 0 .6-.2.8-.4c.2-.2.3-.6.3-1c0-.4-.1-.7-.3-.9c-.2-.3-.5-.4-.8-.4c-.4 0-.6.1-.9.4c-.2.2-.3.5-.3.9zm.6 4.1v-.9h6.2v3.3h-1V7.4h-5.2zm12.3 2.7l-.7.4c-.5-.8-.9-1.6-1.1-2.5c-.3-.8-.4-1.8-.4-2.8c0-1 .1-1.9.4-2.8c.2-.8.6-1.6 1.1-2.4l.7.3c-.4.8-.8 1.6-1 2.4c-.2.8-.3 1.6-.3 2.5c0 .9.1 1.8.3 2.6c.2.8.6 1.6 1 2.3zm8-6.9h1.3v.8h-1.3v3.2h-1.1V.5h1.1v2.7zm-1.9 1.3l.1.8c-.3.1-.6.1-.9.2c-.3 0-.6.1-1 .1h-2.4c.02.04-.7 0-.7 0V1.3h4.1v.9h-3.1s.03 2.57 0 2.6h1.2c.4 0 .7-.1 1-.1c.3 0 .6 0 .8-.1c.3 0 .6-.1.9-.1zm-2.9 2v2.2h5.2v.9h-6.2V6.5h1zM93.2.6h1.1v9.2h-1.1V.6zm-3.5 4.2c-.4 0-.7 0-1-.1c-.3-.1-.5-.3-.7-.4c-.2-.2-.4-.4-.5-.6c-.1-.3-.2-.5-.2-.8c0-.3.1-.6.2-.8c.1-.2.3-.4.5-.6c.2-.2.4-.3.7-.4c.3-.1.6-.2 1-.2c.3 0 .6.1.9.2c.3.1.6.2.8.4c.2.2.4.4.5.6c.1.2.2.5.2.8c0 .3-.1.5-.2.8c-.1.2-.3.4-.5.6c-.2.1-.5.3-.8.4c-.3.1-.6.1-.9.1zm0-3c-.4 0-.8.1-1 .3c-.3.2-.4.5-.4.8c0 .3.1.6.4.8c.2.2.6.2 1 .2c.4 0 .7 0 1-.2c.2-.2.3-.5.3-.8c0-.3-.1-.6-.3-.8c-.3-.2-.6-.3-1-.3zm2.9 3.4l.1.7c-.4.1-.8.2-1.2.2c-.4.1-.8.1-1.3.2c.05-.05 0 3.2 0 3.2h-1V6.3h-1.3c-.3.1-.7.1-1.1.1l-.1-.9h1.3c.5 0 1 0 1.5-.1c.6 0 1.1 0 1.6-.1c.5 0 1-.1 1.5-.1zm4.7-2.3v1.3h-1.2V2.9h1.2zm0 4.2v1.3h-1.2V7.1h1.2zm10.3-3.8h1.3v.9h-1.3v3.1h-1.1V.5h1.1v2.8zm-2.6-2v4.4h-4.3V1.3h4.3zm-1 3.5V2.2h-2.2v2.6h2.2zm-1.2 1.8v2.1h5.2v.9h-6.2v-3h1zm12.1 2.5c-.4 0-.8-.1-1.1-.2c-.4-.1-.7-.3-.9-.6c-.3-.2-.5-.6-.6-1c-.1-.4-.2-.9-.2-1.5V1.5h1.2s-.02 4.33 0 4.3c0 .5 0 .8.1 1.1c.1.3.2.5.3.7c.2.2.4.3.5.4c.2 0 .5.1.7.1c.2 0 .4-.1.6-.1c.3-.1.4-.2.6-.4c.1-.2.2-.4.3-.7c.1-.3.1-.6.1-1.1c.03.03 0-4.3 0-4.3h1.2s-.02 4.25 0 4.3c0 .6-.1 1.1-.2 1.5c-.2.4-.3.8-.6 1c-.2.3-.5.5-.9.6c-.3.1-.7.2-1.1.2zm6.6 0c-.5 0-1-.1-1.4-.3c-.5-.2-.9-.4-1.2-.8l.7-.8c.2.3.5.5.9.6c.3.2.7.3 1.1.3c.4 0 .8-.1 1-.3c.3-.2.4-.5.4-.8c0-.2 0-.3-.1-.4c-.1-.1-.1-.2-.3-.3l-.3-.3c-.2 0-.3-.1-.5-.2l-1.1-.4c-.1-.1-.3-.2-.5-.3c-.2-.1-.4-.3-.5-.4c-.1-.2-.3-.4-.4-.6c0-.2-.1-.4-.1-.7c0-.3.1-.6.2-.8c.1-.3.3-.5.5-.7c.2-.2.5-.3.8-.4c.3-.1.6-.2 1-.2c.4 0 .8.1 1.2.3c.4.2.8.4 1 .7l-.6.7c-.2-.2-.5-.3-.7-.5c-.3-.1-.6-.1-.9-.1c-.4 0-.7 0-.9.2c-.3.2-.4.4-.4.7c0 .2 0 .3.1.4c.1.2.2.3.3.3c.1.1.2.2.4.3c.1 0 .3.1.4.2l1.1.4l.6.3c.2.1.3.3.5.4l.3.6c0 .2.1.4.1.7c0 .3-.1.6-.2.9c-.1.2-.3.5-.5.7c-.3.2-.5.3-.9.4c-.3.2-.6.2-1.1.2zm3.9-.1V1.5s1.96-.03 2 0c1.1 0 2 .3 2.7.9c.6.6.9 1.5.9 2.8c0 .6-.1 1.1-.3 1.6c-.1.5-.4.9-.7 1.2c-.3.3-.6.6-1.1.7c-.4.2-.9.3-1.5.3c.02-.02-2 0-2 0zm1.2-1h.7c.8 0 1.4-.2 1.8-.7c.4-.4.7-1.1.7-2.1c0-1-.3-1.7-.7-2.1c-.4-.4-1-.7-1.8-.7c-.03.03-.7 0-.7 0v5.6zm5.9 2.5l-.7-.4c.5-.7.8-1.5 1-2.3c.2-.8.3-1.7.3-2.6c0-.9-.1-1.7-.3-2.5c-.2-.8-.5-1.6-1-2.4l.7-.3c.5.8.9 1.6 1.2 2.4c.2.9.4 1.8.4 2.8c0 1-.2 2-.4 2.8c-.3.9-.7 1.7-1.2 2.5z" stroke="none" fill="#949596"/></g></svg>