<?xml version="1.0" standalone="no"?><!DOCTYPE svg PUBLIC "-//W3C//DTD SVG 1.1//EN" "http://www.w3.org/Graphics/SVG/1.1/DTD/svg11.dtd"><svg xmlns="http://www.w3.org/2000/svg" version="1.1" width="409.3px" height="26.8px" viewBox="0 -3 409.3 26.8" style="top:-3px"><desc>Dental Trailer ‘Sorriso Cidadang’</desc><defs/><g id="Polygon126042"><path d="m1.6 15V2.4s3.3.05 3.3 0c2 0 3.5.6 4.5 1.6c1 1 1.5 2.6 1.5 4.7c0 1-.1 1.9-.4 2.7c-.2.7-.6 1.4-1.1 1.9c-.5.6-1.2 1-1.9 1.2c-.7.3-1.6.5-2.5.5c0-.04-3.4 0-3.4 0zm2-1.7s1.16.05 1.2 0c1.3 0 2.4-.3 3.1-1.1c.6-.8 1-1.9 1-3.5c0-1.6-.4-2.8-1.1-3.5c-.7-.8-1.7-1.2-3-1.2c-.04.05-1.2 0-1.2 0v9.3zm13.6 1.9c-.7 0-1.3-.1-1.8-.4c-.6-.2-1.1-.5-1.5-.9c-.4-.4-.7-.9-.9-1.5c-.3-.6-.4-1.3-.4-2.1c0-.8.1-1.5.4-2.1c.2-.6.5-1.1.9-1.5c.4-.4.9-.8 1.4-1c.5-.2 1-.3 1.6-.3c.6 0 1.1.1 1.6.3c.5.2.9.5 1.2.9c.3.4.6.8.7 1.4c.2.5.3 1.1.3 1.8c0 .2 0 .4-.1.6v.4h-6.1c.1.9.4 1.6.9 2.1c.5.5 1.2.8 2 .8c.4 0 .8-.1 1.2-.2c.3-.1.7-.3 1-.5l.7 1.2c-.4.3-.9.5-1.4.7c-.6.2-1.1.3-1.7.3zm-2.7-5.7h4.5c0-.9-.2-1.5-.5-1.9c-.4-.5-.9-.7-1.6-.7c-.3 0-.6.1-.8.2c-.3.1-.6.2-.8.5c-.2.2-.4.4-.5.8c-.2.3-.3.6-.3 1.1zm8.3 5.5V5.6h1.6l.1 1.3h.1c.4-.4.9-.8 1.4-1.1c.5-.3 1-.4 1.7-.4c1 0 1.7.3 2.2.9c.4.7.6 1.6.6 2.8c.05-.02 0 5.9 0 5.9h-1.9V9.3c0-.8-.1-1.4-.4-1.7c-.2-.4-.6-.5-1.2-.5c-.4 0-.8.1-1.1.3c-.4.2-.8.5-1.2.9c.02.03 0 6.7 0 6.7h-1.9zm13.6.2c-.5 0-.9-.1-1.3-.3c-.3-.1-.6-.3-.9-.6c-.2-.3-.4-.6-.4-1.1c-.1-.4-.2-.8-.2-1.3V7.2h-1.4V5.7l1.5-.1l.2-2.6h1.7v2.6h2.4v1.6h-2.4s-.04 4.72 0 4.7c0 .6.1 1 .3 1.3c.2.3.5.4 1 .4c.2 0 .4 0 .5-.1c.2 0 .4 0 .5-.1l.4 1.4l-.9.3c-.3 0-.6.1-1 .1zm5.8 0c-.4 0-.8-.1-1.2-.2c-.3-.1-.6-.3-.8-.5c-.3-.3-.5-.6-.6-.9c-.1-.3-.2-.7-.2-1.1c0-.5.1-1 .3-1.5c.2-.5.5-.9 1-1.2c.5-.2 1.1-.4 1.8-.5c.7-.1 1.5-.2 2.5-.3c0-.3 0-.5-.1-.8c0-.2-.1-.4-.3-.6c-.1-.2-.3-.4-.5-.5c-.3-.1-.5-.1-.9-.1c-.5 0-1 .1-1.5.3c-.5.2-.9.4-1.3.7l-.6-1.5c.5-.3 1.1-.5 1.7-.8c.6-.2 1.3-.3 2.1-.3c1.1 0 2 .3 2.5 1c.6.7.9 1.7.9 2.9c-.05.03 0 5.7 0 5.7h-1.6l-.2-1.1s-.07.04-.1 0c-.4.4-.9.7-1.3.9c-.5.3-1.1.4-1.6.4zm.6-1.6c.4 0 .7-.1 1.1-.2c.3-.2.7-.5 1.1-.8v-2.3c-.5 0-.9.1-1.2.1c-.3.1-.6.1-.9.1c-.3.1-.5.2-.7.2c-.2.1-.3.2-.5.4c-.2.2-.4.4-.4.6v.6c0 .5.1.9.4 1c.3.2.6.3 1.1.3zm6.7 1.4V1.4h2V15h-2zm11.1 0V4.1H57V2.4h9.3v1.7h-3.7V15h-2zm7.6 0V5.6h1.6l.2 1.7s.01-.01 0 0c.3-.6.7-1.1 1.2-1.4c.5-.4.9-.5 1.5-.5h.5c.2.1.4.1.5.2l-.3 1.7c-.2-.1-.4-.1-.5-.1c-.1-.1-.3-.1-.5-.1c-.4 0-.8.2-1.2.5c-.4.3-.8.8-1.1 1.5c.04.03 0 5.9 0 5.9h-1.9zm9.1.2c-.4 0-.8-.1-1.1-.2c-.4-.1-.7-.3-.9-.5l-.6-.9c-.1-.3-.2-.7-.2-1.1c0-.5.1-1 .3-1.5c.2-.5.5-.9 1-1.2c.5-.2 1.1-.4 1.8-.5c.7-.1 1.6-.2 2.5-.3c0-.3 0-.5-.1-.8c0-.2-.1-.4-.3-.6c-.1-.2-.3-.4-.5-.5c-.2-.1-.5-.1-.9-.1c-.5 0-1 .1-1.5.3c-.4.2-.9.4-1.3.7l-.6-1.5c.5-.3 1.1-.5 1.7-.8c.6-.2 1.3-.3 2.1-.3c1.1 0 2 .3 2.6 1c.5.7.8 1.7.8 2.9c-.03.03 0 5.7 0 5.7h-1.6l-.2-1.1s-.04.04 0 0c-.5.4-.9.7-1.4.9c-.5.3-1 .4-1.6.4zm.6-1.6c.4 0 .8-.1 1.1-.2c.4-.2.7-.5 1.1-.8v-2.3c-.4 0-.8.1-1.2.1c-.3.1-.6.1-.9.1c-.2.1-.5.2-.7.2c-.1.1-.3.2-.5.4c-.2.2-.3.4-.4.6v.6c0 .5.2.9.4 1c.3.2.7.3 1.1.3zm6.6-12h2v2.2h-2V1.6zm2 13.4h-2V5.6h2v9.4zm2.5 0V1.4h1.9V15H89zm8.5.2c-.6 0-1.2-.1-1.8-.4c-.5-.2-1-.5-1.4-.9c-.4-.4-.8-.9-1-1.5c-.2-.6-.3-1.3-.3-2.1c0-.8.1-1.5.3-2.1c.2-.6.6-1.1 1-1.5c.4-.4.8-.8 1.3-1c.5-.2 1.1-.3 1.6-.3c.6 0 1.2.1 1.7.3c.4.2.8.5 1.2.9c.3.4.5.8.7 1.4c.1.5.2 1.1.2 1.8v.6c0 .1 0 .3-.1.4h-6c.1.9.4 1.6.9 2.1c.5.5 1.1.8 2 .8c.4 0 .8-.1 1.1-.2c.4-.1.8-.3 1.1-.5l.7 1.2c-.5.3-.9.5-1.5.7c-.5.2-1.1.3-1.7.3zm-2.6-5.7h4.4c0-.9-.1-1.5-.5-1.9c-.3-.5-.9-.7-1.5-.7c-.3 0-.6.1-.9.2c-.2.1-.5.2-.7.5c-.2.2-.4.4-.6.8c-.1.3-.2.6-.2 1.1zm8.2 5.5V5.6h1.6l.2 1.7s.04-.01 0 0c.4-.6.8-1.1 1.2-1.4c.5-.4 1-.5 1.5-.5h.6c.1.1.3.1.4.2l-.3 1.7c-.2-.1-.3-.1-.5-.1c-.1-.1-.3-.1-.4-.1c-.4 0-.8.2-1.3.5c-.4.3-.7.8-1 1.5c-.02.03 0 5.9 0 5.9h-2zm12-12.7v2.2H113s.05-2.15 0-2.2c0-.6.2-1.1.6-1.5c.3-.5.8-.7 1.5-.8v.9c-.4.1-.7.2-.8.5c-.2.3-.2.6-.2.9c-.03.05 1 0 1 0zm5.7 12.9c-.8 0-1.7-.2-2.4-.5c-.8-.3-1.5-.8-2-1.4l1.1-1.3c.5.4 1 .8 1.6 1.1c.5.2 1.1.4 1.8.4c.7 0 1.3-.2 1.7-.5c.4-.3.6-.8.6-1.3c0-.3 0-.5-.1-.7c-.1-.2-.3-.4-.4-.5c-.2-.2-.4-.3-.7-.4c-.2-.2-.5-.3-.8-.4l-1.7-.8c-.3-.1-.6-.2-.9-.4c-.3-.2-.6-.4-.9-.7c-.2-.3-.4-.6-.5-.9c-.2-.4-.3-.8-.3-1.2c0-.5.1-1 .3-1.4c.2-.4.5-.8.9-1.1c.4-.3.8-.6 1.3-.7c.5-.2 1-.3 1.6-.3c.8 0 1.5.2 2.1.4c.7.3 1.3.7 1.7 1.2l-1 1.2c-.4-.3-.8-.6-1.3-.8c-.4-.2-.9-.3-1.5-.3c-.6 0-1.1.2-1.5.5c-.4.2-.6.6-.6 1.1c0 .3.1.5.2.7c.1.2.3.4.5.5c.2.2.4.3.6.4c.3.1.5.2.8.3l1.7.8c.3.1.7.3 1 .5c.3.2.6.4.8.7c.2.3.4.6.5.9c.2.4.2.8.2 1.2c0 .5-.1 1-.3 1.5c-.2.4-.5.8-.9 1.1c-.3.3-.8.6-1.3.8c-.6.2-1.2.3-1.9.3zm10.3 0c-.6 0-1.1-.1-1.7-.4c-.5-.2-1-.5-1.4-.9c-.4-.4-.7-.9-1-1.5c-.2-.6-.3-1.3-.3-2.1c0-.8.1-1.5.3-2.1c.3-.6.6-1.1 1-1.5c.4-.5.9-.8 1.4-1c.6-.2 1.1-.3 1.7-.3c.6 0 1.1.1 1.7.3c.5.2 1 .5 1.4 1c.4.4.7.9.9 1.5c.3.6.4 1.3.4 2.1c0 .8-.1 1.5-.4 2.1c-.2.6-.5 1.1-.9 1.5c-.4.4-.9.7-1.4.9c-.6.3-1.1.4-1.7.4zm0-1.6c.7 0 1.3-.3 1.7-.9c.5-.6.7-1.4.7-2.4c0-1-.2-1.8-.7-2.4c-.4-.6-1-.9-1.7-.9c-.8 0-1.3.3-1.8.9c-.4.6-.6 1.4-.6 2.4c0 1 .2 1.8.7 2.4c.4.6 1 .9 1.7.9zm6.6 1.4V5.6h1.6l.1 1.7h.1c.3-.6.7-1.1 1.2-1.4c.4-.4.9-.5 1.4-.5h.6c.2.1.3.1.5.2l-.4 1.7c-.1-.1-.3-.1-.4-.1c-.1-.1-.3-.1-.5-.1c-.4 0-.8.2-1.2.5c-.4.3-.8.8-1.1 1.5c.02.03 0 5.9 0 5.9h-1.9zm6.8 0V5.6h1.6l.2 1.7h.1c.3-.6.7-1.1 1.1-1.4c.5-.4 1-.5 1.5-.5h.6c.2.1.3.1.5.2l-.4 1.7c-.2-.1-.3-.1-.4-.1c-.2-.1-.3-.1-.5-.1c-.4 0-.8.2-1.2.5c-.5.3-.8.8-1.1 1.5v5.9h-2zm6.7-13.4h2v2.2h-2V1.6zm1.9 13.4h-1.9V5.6h1.9v9.4zm5.2.2c-.7 0-1.3-.1-1.9-.4c-.7-.2-1.2-.5-1.7-.9l1-1.3c.4.4.8.6 1.2.8c.4.2.9.3 1.4.3c.6 0 1-.1 1.3-.4c.2-.2.4-.5.4-.9c0-.2-.1-.4-.2-.5c-.1-.2-.3-.3-.5-.4c-.2-.2-.4-.3-.6-.4c-.3-.1-.5-.2-.8-.3c-.3-.1-.6-.2-.9-.4c-.4-.1-.6-.3-.9-.5c-.3-.2-.5-.5-.6-.8c-.2-.3-.3-.6-.3-1c0-.4.1-.8.3-1.1c.1-.3.3-.6.6-.8c.3-.3.6-.5 1.1-.6c.4-.2.8-.2 1.3-.2c.7 0 1.3.1 1.8.3c.5.2.9.5 1.3.8l-.9 1.2c-.4-.3-.7-.4-1-.6c-.4-.2-.7-.2-1.1-.2c-.5 0-.9.1-1.2.3c-.2.2-.3.5-.3.8c0 .2 0 .4.1.5c.2.2.3.3.5.4l.6.3c.3.1.5.2.8.3c.3.1.6.3 1 .4c.3.2.6.3.8.5c.3.3.5.5.7.8c.1.3.2.7.2 1.1c0 .4-.1.8-.2 1.1c-.2.4-.4.7-.7.9c-.3.3-.7.5-1.1.7c-.4.1-1 .2-1.5.2zm9.2 0c-.5 0-1.1-.1-1.6-.4c-.5-.2-1-.5-1.4-.9c-.4-.4-.7-.9-1-1.5c-.2-.6-.4-1.3-.4-2.1c0-.8.2-1.5.4-2.1c.3-.6.6-1.1 1-1.5c.4-.5.9-.8 1.4-1c.5-.2 1.1-.3 1.6-.3c.6 0 1.2.1 1.7.3c.5.2 1 .5 1.4 1c.4.4.7.9 1 1.5c.2.6.4 1.3.4 2.1c0 .8-.2 1.5-.4 2.1c-.3.6-.6 1.1-1 1.5c-.4.4-.9.7-1.4.9c-.5.3-1.1.4-1.7.4zm0-1.6c.8 0 1.4-.3 1.8-.9c.4-.6.6-1.4.6-2.4c0-1-.2-1.8-.6-2.4c-.4-.6-1-.9-1.8-.9c-.7 0-1.3.3-1.7.9c-.4.6-.6 1.4-.6 2.4c0 1 .2 1.8.6 2.4c.4.6 1 .9 1.7.9zm15.4 1.6c-.7 0-1.5-.2-2.2-.5c-.6-.2-1.2-.7-1.7-1.2c-.5-.6-.9-1.2-1.2-2c-.3-.8-.4-1.7-.4-2.8c0-1 .1-1.9.4-2.7c.3-.8.7-1.5 1.2-2.1c.5-.5 1.1-1 1.8-1.2c.7-.3 1.4-.5 2.2-.5c.8 0 1.5.2 2.1.5c.6.3 1.1.7 1.5 1.1L185.5 5c-.3-.3-.7-.5-1.1-.8c-.4-.2-.8-.3-1.3-.3c-.6 0-1.1.1-1.5.4c-.5.2-.9.5-1.2.9c-.3.4-.6.9-.7 1.5c-.2.6-.3 1.2-.3 2c0 .7.1 1.4.3 2c.1.6.4 1.1.7 1.5c.3.4.7.7 1.1.9c.4.3.9.4 1.5.4c.6 0 1.1-.2 1.5-.4c.5-.2.9-.6 1.3-1l1 1.3c-.5.6-1.1 1-1.7 1.3c-.6.3-1.3.5-2.2.5zm5.6-13.6h2v2.2h-2V1.6zm2 13.4h-2V5.6h2v9.4zm5.8.2c-1.2 0-2.1-.4-2.8-1.3c-.7-.8-1-2-1-3.6c0-.8.1-1.5.3-2.1c.2-.6.5-1.1.9-1.5c.4-.4.8-.8 1.3-1c.4-.2.9-.3 1.5-.3c.5 0 1 .1 1.3.3c.4.1.8.4 1.2.7c-.02.03-.1-1.5-.1-1.5V1.4h2V15h-1.6l-.2-1.1h-.1c-.3.4-.7.7-1.2.9c-.4.3-.9.4-1.5.4zm.5-1.6c.7 0 1.4-.4 2.1-1.2V7.9c-.4-.4-.7-.6-1-.7c-.4-.1-.7-.2-1.1-.2c-.3 0-.6.1-.9.2c-.3.2-.5.4-.7.7c-.2.3-.4.6-.5 1c-.2.4-.2.9-.2 1.4c0 1 .2 1.8.6 2.4c.4.6.9.9 1.7.9zm9.1 1.6c-.4 0-.8-.1-1.1-.2c-.3-.1-.6-.3-.9-.5c-.2-.3-.4-.6-.5-.9c-.2-.3-.3-.7-.3-1.1c0-.5.1-1 .3-1.5c.2-.5.6-.9 1.1-1.2c.4-.2 1-.4 1.7-.5c.7-.1 1.6-.2 2.5-.3v-.8l-.3-.6c-.2-.2-.4-.4-.6-.5c-.2-.1-.5-.1-.8-.1c-.6 0-1.1.1-1.5.3c-.5.2-1 .4-1.4.7l-.5-1.5c.4-.3 1-.5 1.6-.8c.7-.2 1.3-.3 2.1-.3c1.2 0 2 .3 2.6 1c.5.7.8 1.7.8 2.9v5.7h-1.6l-.2-1.1s-.02.04 0 0c-.5.4-.9.7-1.4.9c-.5.3-1 .4-1.6.4zm.6-1.6c.4 0 .8-.1 1.1-.2c.4-.2.8-.5 1.1-.8v-2.3c-.4 0-.8.1-1.1.1c-.4.1-.7.1-1 .1c-.2.1-.4.2-.6.2c-.2.1-.4.2-.5.4c-.3.2-.4.4-.4.6c-.1.2-.1.4-.1.6c0 .5.2.9.5 1c.2.2.6.3 1 .3zm10.1 1.6c-1.2 0-2.1-.4-2.8-1.3c-.7-.8-1-2-1-3.6c0-.8.1-1.5.3-2.1c.2-.6.5-1.1.9-1.5c.4-.4.8-.8 1.3-1c.5-.2 1-.3 1.5-.3c.5 0 1 .1 1.4.3c.3.1.7.4 1.1.7l-.1-1.5V1.4h2V15h-1.6l-.2-1.1h-.1c-.3.4-.7.7-1.2.9c-.4.3-.9.4-1.5.4zm.5-1.6c.7 0 1.5-.4 2.1-1.2V7.9c-.3-.4-.7-.6-1-.7c-.4-.1-.7-.2-1-.2c-.4 0-.7.1-1 .2c-.3.2-.5.4-.7.7c-.2.3-.4.6-.5 1c-.1.4-.2.9-.2 1.4c0 1 .2 1.8.6 2.4c.4.6.9.9 1.7.9zm9.1 1.6c-.4 0-.8-.1-1.1-.2c-.3-.1-.6-.3-.9-.5c-.2-.3-.4-.6-.5-.9c-.2-.3-.2-.7-.2-1.1c0-.5.1-1 .3-1.5c.1-.5.5-.9 1-1.2c.4-.2 1-.4 1.7-.5c.8-.1 1.6-.2 2.6-.3c0-.3-.1-.5-.1-.8l-.3-.6c-.2-.2-.3-.4-.6-.5c-.2-.1-.5-.1-.8-.1c-.5 0-1 .1-1.5.3c-.5.2-1 .4-1.4.7l-.5-1.5c.5-.3 1-.5 1.6-.8c.7-.2 1.4-.3 2.1-.3c1.2 0 2 .3 2.6 1c.5.7.8 1.7.8 2.9v5.7h-1.6l-.2-1.1s-.01.04 0 0c-.4.4-.9.7-1.4.9c-.5.3-1 .4-1.6.4zm.6-1.6c.4 0 .8-.1 1.2-.2c.3-.2.7-.5 1.1-.8v-2.3c-.5 0-.9.1-1.2.1c-.4.1-.7.1-.9.1c-.3.1-.5.2-.7.2c-.2.1-.4.2-.5.4c-.3.2-.4.4-.4.6c0 .2-.1.4-.1.6c0 .5.2.9.5 1c.2.2.6.3 1 .3zm6.9 1.4V5.6h1.6l.1 1.3h.1c.4-.4.9-.8 1.4-1.1c.5-.3 1-.4 1.7-.4c1 0 1.7.3 2.2.9c.4.7.7 1.6.7 2.8c-.03-.02 0 5.9 0 5.9h-2V9.3c0-.8-.1-1.4-.4-1.7c-.2-.4-.6-.5-1.2-.5c-.4 0-.8.1-1.1.3c-.4.2-.7.5-1.2.9c.03.03 0 6.7 0 6.7h-1.9zm13.7 4.2c-.5 0-1.1-.1-1.5-.2c-.5-.1-.9-.3-1.3-.5c-.3-.2-.6-.4-.8-.7c-.2-.3-.3-.7-.3-1.1c0-.4.2-.8.4-1.1c.2-.4.6-.7 1-.9v-.1l-.6-.6c-.2-.3-.3-.6-.3-1c0-.3.2-.7.4-1c.2-.3.4-.5.7-.7v-.1c-.3-.2-.6-.6-.9-1c-.2-.4-.3-.9-.3-1.5c0-.5.1-1 .3-1.4c.2-.4.4-.7.8-1c.3-.3.7-.5 1.1-.7c.4-.2.9-.2 1.4-.2h.7c.3.1.5.1.6.2c.04.01 3.4 0 3.4 0v1.5s-1.83-.03-1.8 0c.2.2.3.4.4.7c.1.3.2.6.2 1c0 .5-.1 1-.3 1.3c-.2.4-.4.8-.7 1.1c-.4.2-.7.4-1.1.6c-.5.1-.9.2-1.4.2c-.4 0-.8-.1-1.3-.3c-.2.1-.3.3-.4.4c-.1.2-.1.4-.1.6c0 .3.1.5.3.7c.2.1.6.2 1.2.2h1.7c1.2 0 2 .2 2.6.5c.5.4.8 1 .8 1.8c0 .4-.1.9-.3 1.3c-.3.4-.6.7-1 1c-.4.3-.9.5-1.6.7c-.6.2-1.2.3-2 .3zm.1-8.5c.5 0 .9-.1 1.2-.5c.4-.3.6-.8.6-1.5c0-.6-.2-1.1-.6-1.4c-.3-.4-.7-.6-1.2-.6c-.5 0-.9.2-1.3.6c-.3.3-.5.8-.5 1.4c0 .7.2 1.2.5 1.5c.4.4.8.5 1.3.5zm.2 7.2c.4 0 .8-.1 1.1-.2c.4-.1.6-.2.9-.3c.2-.2.4-.4.5-.6c.2-.2.2-.4.2-.6c0-.4-.1-.7-.4-.8c-.3-.1-.7-.2-1.3-.2h-1.4c-.3 0-.5 0-.7-.1c-.2 0-.4 0-.6-.1c-.3.2-.5.5-.6.7c-.1.2-.2.5-.2.7c0 .5.2.8.7 1.1c.4.2 1 .4 1.8.4zM253 2.1V0h2v2.1c0 .6-.2 1.2-.5 1.6c-.4.4-.9.7-1.5.8v-1c.4 0 .6-.2.8-.5c.1-.2.2-.6.2-.9h-1z" stroke="none" fill="#111111"/></g></svg>