<?xml version="1.0" standalone="no"?><!DOCTYPE svg PUBLIC "-//W3C//DTD SVG 1.1//EN" "http://www.w3.org/Graphics/SVG/1.1/DTD/svg11.dtd"><svg xmlns="http://www.w3.org/2000/svg" version="1.1" width="390px" height="91.3px" viewBox="0 -2 390 91.3" style="top:-2px"><desc>운전에 대한 두려움을 극복하고 자신감 향상을 지원하기 위한 가상 운전체험 프로그램으로, 기존 ‘드라이빙 플러스’에서 이름을 변경했다. 2021년에는 전시회·박람회 등 찾아가는 운전체험 프로그램을 운영했으며, 국...</desc><defs/><g id="Polygon127728"><path d="m7.5 74.5h.8v9.2h-.8v-9.2zm-1.8 2.3v-2.1h.8v8.5h-.8v-3s-1.4.03-1.4 0c-.2.5-.4.9-.7 1.1c-.2.3-.6.4-1 .4c-.3 0-.6-.1-.8-.2c-.2-.2-.4-.4-.6-.7c-.2-.3-.3-.6-.4-1c-.1-.4-.1-.8-.1-1.3c0-.5 0-.9.1-1.3c.1-.4.2-.8.4-1c.2-.3.4-.5.6-.7c.2-.1.5-.2.8-.2c.4 0 .8.1 1 .4c.3.2.5.6.7 1.1c0-.05 1.4 0 1.4 0zm-3.1 4.1c.4 0 .7-.2.9-.6c.2-.5.3-1.1.3-1.8c0-.8-.1-1.3-.3-1.8c-.2-.4-.5-.6-.9-.6c-.4 0-.7.2-.9.6c-.2.5-.3 1-.3 1.8c0 .7.1 1.3.3 1.8c.2.4.5.6.9.6zm1.9-1.4c-.02.04 1.2 0 1.2 0v-2.1s-1.22.04-1.2 0v.5c.1.2.1.4.1.6c0 .2 0 .4-.1.5v.5zm10.1-2.6h1.8v-2.3h.9v5.4h-.9v-2.4h-1.8v-.7zm.5 2.1l-.4.7c-.5-.2-1-.5-1.3-.9c-.4-.3-.7-.7-.9-1.2c-.2.5-.5 1-.9 1.4c-.4.4-.9.7-1.4.9l-.4-.6c.3-.2.6-.3.9-.5c.3-.3.5-.5.7-.8c.2-.2.4-.5.5-.8c.1-.4.2-.7.2-1c-.04 0 0-.3 0-.3H10v-.7h4.9v.7h-2v.3c0 .3 0 .6.2.9c.1.3.2.5.4.8c.2.2.4.4.7.6c.3.2.6.4.9.5zm-.9 1.3c.5 0 .9 0 1.3.1c.4.1.7.2 1 .3l.6.6c.1.2.2.4.2.7c0 .3-.1.5-.2.7c-.2.2-.4.4-.6.5c-.3.2-.6.3-1 .4c-.4.1-.8.1-1.3.1c-.4 0-.9 0-1.2-.1c-.4-.1-.7-.2-1-.4c-.3-.1-.5-.3-.6-.5c-.1-.2-.2-.4-.2-.7c0-.3.1-.5.2-.7c.1-.2.3-.4.6-.6c.3-.1.6-.2 1-.3c.3-.1.8-.1 1.2-.1zm0 2.7c.7 0 1.3-.1 1.7-.2c.4-.2.6-.5.6-.8c0-.3-.2-.6-.6-.8c-.4-.2-1-.3-1.7-.3c-.7 0-1.2.1-1.6.3c-.4.2-.6.5-.6.8c0 .3.2.6.6.8c.4.1.9.2 1.6.2zm11.4-8.5h.8v9.2h-.8v-9.2zm-4 .7c.3 0 .6.1.9.3c.3.1.5.3.7.6c.2.3.4.6.5 1c.1.4.2.8.2 1.3c0 .5-.1 1-.2 1.4c-.1.3-.3.7-.5 1c-.2.2-.4.5-.7.6c-.3.2-.6.2-.9.2c-.4 0-.7 0-1-.2c-.3-.1-.5-.4-.7-.6c-.2-.3-.4-.7-.5-1c-.1-.4-.2-.9-.2-1.4c0-.5.1-.9.2-1.3c.1-.4.3-.7.5-1c.2-.3.4-.5.7-.6c.3-.2.6-.3 1-.3zm0 .8c-.3 0-.5.1-.7.2c-.1.1-.3.3-.4.5c-.2.2-.3.4-.4.7c0 .3-.1.7-.1 1c0 .4.1.7.1 1c.1.3.2.6.4.8c.1.2.3.4.4.5c.2.1.4.2.7.2c.2 0 .4-.1.6-.2c.2-.1.3-.3.5-.5c.1-.2.2-.5.3-.8c0-.3.1-.6.1-1c0-.3-.1-.7-.1-1c-.1-.3-.2-.5-.3-.7c-.2-.2-.3-.4-.5-.5c-.2-.1-.4-.2-.6-.2zm15 2.2v.6h-1.5v4.9h-.8v-9.2h.8v3.7h1.5zm-7.3-2.1v4.6h2.2c.3-.1.6-.1 1-.1c.3-.1.6-.1.9-.2l.1.7c-.3.1-.7.1-1 .2c-.3 0-.7 0-1 .1h-2.3c-.01.03-.7 0-.7 0v-6h4.2v.7h-3.4zm7.8 7v-1h1v1h-1z" stroke="none" fill="#111111"/></g><g id="Polygon127727"><path d="m2.6 63.6h3v.8H.5v-.6s2.62-2.5 2.6-2.5l.6-.6c.1-.2.3-.4.4-.6c.1-.1.2-.3.3-.5c0-.2.1-.4.1-.7c0-.4-.2-.7-.4-.9c-.3-.3-.6-.4-1-.4c-.2 0-.4.1-.6.1c-.2.1-.3.2-.5.3c-.1.2-.2.3-.3.5c-.1.2-.1.4-.1.6l-.9-.2c0-.3.1-.6.3-.9c.1-.2.3-.4.5-.6c.2-.2.5-.3.8-.4c.2-.1.5-.2.9-.2c.3 0 .6.1.8.2c.3.1.6.2.8.4c.2.2.3.4.4.6c.2.3.2.6.2.9c0 .3 0 .6-.1.8c-.1.2-.2.5-.3.7c-.2.2-.4.4-.5.6c-.2.2-.4.5-.6.7l-2.1 2c.1 0 .3 0 .4-.1h.4zm9.1-2.9c0 .7-.1 1.2-.2 1.7c-.2.5-.4.9-.6 1.2c-.3.4-.6.6-.9.7c-.3.2-.7.3-1.1.3c-.4 0-.7-.1-1-.3c-.4-.1-.7-.3-.9-.7c-.3-.3-.5-.7-.6-1.2c-.1-.5-.2-1-.2-1.7c0-.7.1-1.2.2-1.7c.1-.5.3-.9.6-1.2c.2-.3.5-.6.9-.7c.3-.2.6-.3 1-.3c.4 0 .8.1 1.1.3c.3.1.6.4.9.7c.2.3.4.7.6 1.2c.1.5.2 1 .2 1.7zm-1 0c0-.6 0-1.1-.1-1.5c-.1-.4-.2-.7-.4-.9c-.2-.3-.4-.4-.6-.5c-.2-.1-.4-.2-.7-.2c-.2 0-.4.1-.6.2c-.3.1-.5.2-.6.5c-.2.2-.3.5-.4.9c-.1.4-.2.9-.2 1.5c0 .6.1 1.1.2 1.5c.1.4.2.7.4.9c.1.3.3.5.6.6c.2.1.4.1.6.1c.3 0 .5 0 .7-.1c.2-.1.4-.3.6-.6c.2-.2.3-.5.4-.9c.1-.4.1-.9.1-1.5zm3.7 2.9h2.9v.8h-5v-.6s2.57-2.5 2.6-2.5c.2-.2.4-.4.5-.6c.2-.2.3-.4.4-.6c.2-.1.3-.3.3-.5c.1-.2.1-.4.1-.7c0-.4-.1-.7-.4-.9c-.2-.3-.6-.4-.9-.4c-.3 0-.5.1-.6.1c-.2.1-.4.2-.5.3c-.1.2-.3.3-.3.5c-.1.2-.1.4-.1.6l-1-.2l.3-.9l.6-.6c.2-.2.4-.3.7-.4c.3-.1.6-.2.9-.2c.3 0 .6.1.9.2c.3.1.5.2.7.4c.2.2.4.4.5.6c.1.3.2.6.2.9c0 .3-.1.6-.2.8c0 .2-.1.5-.3.7c-.1.2-.3.4-.5.6c-.2.2-.4.5-.6.7l-2.1 2c.2 0 .3 0 .4-.1h.5zm5.8 0h3v.8h-5v-.6s2.55-2.5 2.5-2.5l.6-.6c.2-.2.3-.4.4-.6c.1-.1.2-.3.3-.5c.1-.2.1-.4.1-.7c0-.4-.1-.7-.4-.9c-.3-.3-.6-.4-1-.4c-.2 0-.4.1-.6.1c-.1.1-.3.2-.4.3c-.2.2-.3.3-.4.5c0 .2-.1.4-.1.6l-.9-.2l.3-.9c.1-.2.3-.4.5-.6c.3-.2.5-.3.8-.4c.3-.1.6-.2.9-.2c.3 0 .6.1.9.2c.2.1.5.2.7.4c.2.2.4.4.5.6c.1.3.1.6.1.9c0 .3 0 .6-.1.8c-.1.2-.2.5-.3.7c-.2.2-.3.4-.5.6c-.2.2-.4.5-.6.7l-2.1 2c.1 0 .3 0 .4-.1h.4zm10.5-.8v-3.1h-2.5v-.7h2.5v-1.1h-2.5v-.7h2.5v-1.1h.9v6.7h-.9zm-1.5-2.4l.1.7c-.7.2-1.4.3-2.1.3c-.6 0-1.3.1-1.9.1c-.03-.03-.7 0-.7 0v-4.8h.8v4.1c.6 0 1.3-.1 1.9-.1c.6-.1 1.2-.1 1.9-.3zm-2.6 3.9h5.2v.7h-6.1v-2.8h.9v2.1zM40.2 56h.8v9.2h-.8V56zm-1.8 3.6v-3.4h.8v8.5h-.8v-4.4s-1.17-.02-1.2 0c0 .4-.1.8-.1 1.2c-.1.3-.3.7-.4.9c-.2.3-.4.4-.6.6c-.3.1-.5.2-.8.2c-.3 0-.6-.1-.8-.2c-.3-.2-.5-.4-.6-.7c-.2-.3-.3-.6-.4-1c-.1-.4-.2-.8-.2-1.3c0-.5.1-1 .2-1.3c.1-.4.2-.8.4-1c.1-.3.3-.5.6-.7c.2-.1.5-.2.8-.2c.3 0 .5.1.7.2c.3.1.5.3.6.6c.2.2.3.5.4.8c.1.4.2.8.2 1.2h1.2zm-3.1 2.8c.4 0 .6-.2.9-.6c.2-.5.3-1.1.3-1.8c0-.4-.1-.7-.1-1c-.1-.3-.1-.6-.3-.8c-.1-.2-.2-.3-.3-.5c-.2-.1-.3-.1-.5-.1c-.4 0-.7.2-.9.6c-.2.5-.3 1-.3 1.8c0 .7.1 1.3.3 1.8c.2.4.5.6.9.6zm14.4-3.6v.7h-6.2v-3.1h.8v2.4h5.4zm-7.3 1.9h8.3v.7h-8.3v-.7zm1.9 1.6v2h5.5v.7h-6.3v-2.7h.8zM62 60.4h-3.8v1.7h2.7v3.1h-.8v-2.4h-5.6v-.7h2.9v-1.7h-3.7v-.7s6.12.04 6.1 0c.1-.5.2-1 .2-1.4c.1-.4.1-.8.1-1.1c-.03-.05-5.4 0-5.4 0v-.7h6.2v1.8c0 .4-.1.9-.2 1.4c-.03.04 1.3 0 1.3 0v.7zm7.5-4.3h.8v5h-.8v-5zm-1.1 3.8l.1.7c-.4 0-.7.1-1.1.1c-.3.1-.7.1-1.1.1c-.3 0-.7.1-1.1.1h-1.1c-.04-.02-.8 0-.8 0v-2.6h3.3v-1.1h-3.3v-.7h4.2v2.5h-3.4s.04 1.19 0 1.2h1.2c.4 0 .7 0 1-.1h1.1c.3-.1.6-.1 1-.2zm1.1 2.7v-1.1h.8v3.6h-5.9v-3.6h.8v1.1h4.3zm0 1.8v-1.1h-4.3v1.1h4.3zM79 56h.8v9.2h-.8v-4.8h-1.2v4.3h-.8v-8.5h.8v3.5h1.2V56zm-4.3 1.8s.02.72 0 .7c0 .4.1.8.1 1.2c.1.4.3.8.4 1.1l.6.9c.3.3.6.5.9.6l-.5.7c-.5-.3-.8-.6-1.1-1c-.4-.4-.6-.9-.8-1.5c-.3 1.3-.9 2.2-1.9 2.8l-.5-.6c.4-.2.6-.4.9-.7c.2-.3.4-.6.6-1c.2-.3.3-.7.4-1.2c.1-.4.1-.8.1-1.3c.02.02 0-.7 0-.7h-1.8v-.7h4.3v.7h-1.7zm11.9-1.1v.6h-5.2v-.6h2.2v-.8h.8v.8h2.2zm1.7 1.7h1.3v.7h-1.3v2.3h-.8V56h.8v2.4zm-1.4 1.9l.1.6c-.5.1-1 .1-1.5.2c-.5 0-1 .1-1.5.1h-2.7l-.1-.6h2.4v-.6c-.5 0-1-.1-1.3-.3c-.3-.3-.4-.5-.4-.9c0-.4.2-.7.6-.9c.3-.2.9-.3 1.5-.3c.7 0 1.2.1 1.6.3c.4.2.5.5.5.9c0 .4-.1.6-.4.8c-.3.2-.7.4-1.3.4v.5h1.3c.4-.1.8-.1 1.2-.2zm-4.2-1.5c0 .2.1.4.3.5c.3.1.6.2 1 .2c.4 0 .7-.1 1-.2c.2-.1.4-.3.4-.5c0-.2-.2-.3-.4-.5c-.3-.1-.6-.1-1-.1c-.4 0-.7 0-1 .1c-.2.2-.3.3-.3.5zm.5 4.9v.8h5.4v.6h-6.2v-2h5.1v-.7h-5.1v-.6h5.9v1.9h-5.1zm12-2.3h1.8V56h.9v7h-.9v-.9h-1.8v-.7zm-1.9-1.8c-.3 0-.6 0-.9-.1c-.3-.1-.5-.2-.7-.3c-.2-.2-.4-.3-.5-.5c-.1-.2-.1-.5-.1-.7c0-.2 0-.5.1-.7c.1-.2.3-.3.5-.5c.2-.1.4-.2.7-.3c.3-.1.6-.1.9-.1c.3 0 .6 0 .9.1c.3.1.5.2.7.3c.2.2.4.3.5.5c.1.2.2.5.2.7c0 .2-.1.5-.2.7c-.1.2-.3.3-.5.5c-.2.1-.4.2-.7.3c-.3.1-.6.1-.9.1zm0-2.6c-.4 0-.8.1-1 .3c-.3.2-.4.4-.4.7c0 .3.1.5.4.7c.2.2.6.3 1 .3c.4 0 .8-.1 1.1-.3c.2-.2.4-.4.4-.7c0-.3-.2-.5-.4-.7c-.3-.2-.7-.3-1.1-.3zm-.3 5.7s-.02-1.78 0-1.8c-.5 0-.9.1-1.3.1h-1.3l-.1-.7h1.4c.5 0 1 0 1.5-.1h1.5c.5-.1 1-.1 1.5-.2l.1.6c-.4.1-.8.1-1.2.2c-.5 0-.9 0-1.3.1c.02-.02 0 1.8 0 1.8h-.8zm-.5 1.6h5.6v.7h-6.5v-2.7h.9v2zm6.7.9l.4-2.1h.9l-.6 2.1h-.7zm4.9-5.1l-.2-.7c.4 0 .8-.1 1.2-.2c.3-.1.7-.2.9-.4c.3-.1.6-.3.7-.5c.2-.2.3-.5.3-.7h-2.8v-.7h2.9v-.9h.8v.9h2.9v.7H108c0 .2.1.5.3.7c.1.2.4.4.7.5c.2.2.6.3 1 .4c.3.1.7.2 1.2.2l-.3.7c-.4-.1-.7-.1-1.1-.2l-1-.3c-.2-.2-.5-.3-.7-.5c-.3-.2-.5-.4-.6-.6c-.1.2-.3.4-.5.6c-.3.2-.5.3-.8.5l-1 .3c-.3.1-.7.1-1.1.2zm7.5 1.1h-3.7s.02.95 0 1c.9 0 1.6.1 2 .4c.5.2.7.6.7 1.1c0 .5-.2.8-.8 1.1c-.5.3-1.3.4-2.3.4c-1 0-1.8-.1-2.3-.4c-.6-.3-.8-.6-.8-1.1c0-.5.2-.9.7-1.1c.4-.3 1.1-.4 2-.4v-1h-3.7v-.6h8.2v.6zm-1.8 2.5c0-.3-.2-.5-.6-.7c-.4-.2-1-.2-1.7-.2c-.7 0-1.3 0-1.7.2c-.4.2-.6.4-.6.7c0 .2.2.5.6.6c.4.2 1 .2 1.7.2c.7 0 1.3 0 1.7-.2c.4-.1.6-.4.6-.6zm11.2-5.6v.7h-1.4v2.4h-.8V56h.8v2.1h1.4zm-3.1 1.3l.1.7c-.8.2-1.5.3-2.2.3c-.7.1-1.4.1-2.1.1c.01.02-.7 0-.7 0v-4h.8s.02 3.31 0 3.3c.7 0 1.3 0 2-.1c.6 0 1.3-.1 2.1-.3zm-4 5.7v-3.4h5.7v3.4h-5.7zm.8-2.7v2h4.1v-2h-4.1zm14-6.4h.8v9.2h-.8v-4.8h-1.3v4.3h-.8v-8.5h.8v3.5h1.3V56zm-5.8 1.8s-.02 4.44 0 4.4h1.6c.5-.1 1-.1 1.5-.2v.7c-.2 0-.5.1-.8.1c-.2 0-.5.1-.8.1h-1.7c-.05.04-.6 0-.6 0v-5.7h3.4v.6h-2.6zm12.6 2.3v.8h-4.1v-4.3h.8v1.5h2.5v-1.5h.8v.9h2.1v-1.4h.8v5.5h-.8v-1.5h-2.1zm2.1-1.9h-2.1v1.2h2.1v-1.2zm-2.9 2v-1.5h-2.5v1.5h2.5zm.7 1.6c1 0 1.7.1 2.2.4c.6.3.9.7.9 1.3c0 .5-.3.9-.9 1.2c-.5.3-1.2.5-2.2.5c-.5 0-.9-.1-1.3-.1c-.3-.1-.6-.2-.9-.4c-.3-.1-.5-.3-.6-.5c-.2-.2-.2-.5-.2-.7c0-.3 0-.5.2-.7c.1-.3.3-.4.6-.6l.9-.3c.4-.1.8-.1 1.3-.1zm0 2.7c.7 0 1.3-.1 1.7-.2c.3-.2.5-.5.5-.8c0-.4-.2-.6-.5-.8c-.4-.2-1-.3-1.7-.3c-.7 0-1.2.1-1.6.3c-.4.2-.6.4-.6.8c0 .3.2.6.6.8c.4.1.9.2 1.6.2zm9.5-3.1h1.8V56h.9v7h-.9v-.9h-1.8v-.7zm-1.9-1.8c-.3 0-.6 0-.9-.1c-.3-.1-.5-.2-.7-.3c-.2-.2-.4-.3-.5-.5c-.1-.2-.1-.5-.1-.7c0-.2 0-.5.1-.7c.1-.2.3-.3.5-.5c.2-.1.4-.2.7-.3c.3-.1.6-.1.9-.1c.3 0 .7 0 .9.1c.3.1.5.2.7.3c.2.2.4.3.5.5c.1.2.2.5.2.7c0 .2-.1.5-.2.7c-.1.2-.3.3-.5.5c-.2.1-.4.2-.7.3c-.2.1-.6.1-.9.1zm0-2.6c-.4 0-.8.1-1 .3c-.3.2-.4.4-.4.7c0 .3.1.5.4.7c.2.2.6.3 1 .3c.4 0 .8-.1 1.1-.3c.2-.2.4-.4.4-.7c0-.3-.2-.5-.4-.7c-.3-.2-.7-.3-1.1-.3zm-.3 5.7s-.01-1.78 0-1.8c-.5 0-.9.1-1.3.1h-1.3l-.1-.7h1.4c.5 0 1 0 1.5-.1h1.5c.5-.1 1-.1 1.5-.2l.1.6c-.4.1-.8.1-1.2.2c-.4 0-.9 0-1.3.1c.02-.02 0 1.8 0 1.8h-.8zm-.5 1.6h5.6v.7h-6.5v-2.7h.9v2zm6.7.9l.4-2.1h.9l-.6 2.1h-.7zm11.4-8.8v4h-6.2v-4h.8v1.3h4.6v-1.3h.8zm-.8 3.3v-1.4h-4.6v1.4h4.6zm1.9 1.8v.6h-3.8v3.1h-.8v-3.1h-3.7v-.6h8.3zm7.9-2.7h1.4v.7h-1.4v3.3h-.8V56h.8v2.8zm-1.7 1.8l-.4.7c-.5-.2-1-.5-1.4-.8c-.4-.4-.7-.8-.9-1.3c-.2.6-.4 1-.8 1.4c-.4.4-.9.7-1.5.9l-.4-.6c.4-.2.7-.3 1-.5c.2-.2.5-.5.7-.8c.2-.2.3-.5.4-.9c.1-.3.2-.6.2-1c-.01.02 0-1.1 0-1.1h.8s.03 1.14 0 1.1c0 .4.1.7.2 1c.1.3.3.5.5.8c.2.2.4.5.7.7c.2.2.6.3.9.4zm-3.1 1.6v2.1h5.2v.7h-6v-2.8h.8zm13.9-6.2h.8v9.2h-.8v-4.8h-1.3v4.3h-.8v-8.5h.8v3.5h1.3V56zm-5.8 1.8s-.02 4.44 0 4.4h1.6c.5-.1 1-.1 1.5-.2v.7c-.2 0-.5.1-.8.1c-.2 0-.5.1-.7.1h-1.8c-.04.04-.6 0-.6 0v-5.7h3.4v.6h-2.6zm12.6 2.3v.8h-4.1v-4.3h.8v1.5h2.5v-1.5h.8v.9h2.1v-1.4h.8v5.5h-.8v-1.5h-2.1zm2.1-1.9h-2.1v1.2h2.1v-1.2zm-2.9 2v-1.5h-2.5v1.5h2.5zm.7 1.6c1 0 1.7.1 2.3.4c.5.3.8.7.8 1.3c0 .5-.3.9-.8 1.2c-.6.3-1.3.5-2.3.5c-.5 0-.9-.1-1.2-.1c-.4-.1-.7-.2-1-.4c-.3-.1-.5-.3-.6-.5c-.2-.2-.2-.5-.2-.7c0-.3 0-.5.2-.7c.1-.3.3-.4.6-.6c.3-.1.6-.2 1-.3c.3-.1.7-.1 1.2-.1zm0 2.7c.7 0 1.3-.1 1.7-.2c.3-.2.5-.5.5-.8c0-.4-.2-.6-.5-.8c-.4-.2-1-.3-1.7-.3c-.7 0-1.2.1-1.6.3c-.4.2-.6.4-.6.8c0 .3.2.6.6.8c.4.1.9.2 1.6.2zm9.5-3.1h1.8V56h.9v7h-.9v-.9h-1.8v-.7zm-1.9-1.8c-.3 0-.6 0-.9-.1c-.3-.1-.5-.2-.7-.3c-.2-.2-.4-.3-.5-.5c-.1-.2-.1-.5-.1-.7c0-.2 0-.5.1-.7c.1-.2.3-.3.5-.5c.2-.1.4-.2.7-.3c.3-.1.6-.1.9-.1c.4 0 .7 0 .9.1c.3.1.5.2.7.3c.2.2.4.3.5.5c.1.2.2.5.2.7c0 .2-.1.5-.2.7c-.1.2-.3.3-.5.5c-.2.1-.4.2-.7.3c-.2.1-.5.1-.9.1zm0-2.6c-.4 0-.8.1-1 .3c-.3.2-.4.4-.4.7c0 .3.1.5.4.7c.2.2.6.3 1 .3c.5 0 .8-.1 1.1-.3c.2-.2.4-.4.4-.7c0-.3-.2-.5-.4-.7c-.3-.2-.6-.3-1.1-.3zm-.3 5.7s-.01-1.78 0-1.8c-.5 0-.9.1-1.3.1h-1.2l-.2-.7h1.4c.5 0 1 0 1.5-.1h1.5c.6-.1 1.1-.1 1.5-.2l.1.6c-.4.1-.8.1-1.2.2c-.4 0-.9 0-1.3.1c.03-.02 0 1.8 0 1.8h-.8zm-.5 1.6h5.6v.7H191v-2.7h.9v2zm15.5-4.4v.7H206v4.6h-.8V56h.8v3.9h1.4zm-3.7 1.3l-.8-.1c.1-.8.2-1.4.2-2c.1-.5.1-1 .1-1.4c-.02.02-3.8 0-3.8 0v-.7h4.6v2c-.1.6-.1 1.3-.3 2.2zm-2.1-1.5s.04 2.75 0 2.7h1.5c.5-.1 1-.1 1.5-.2v.6c-.4.1-.9.2-1.4.2c-.5.1-1 .1-1.5.1c-.5.1-1 .1-1.4.1H199l-.1-.7h1.9c.02-.03 0-2.8 0-2.8h.8zm13.8-2.7v.6h-5.1v-.6h2.1v-1.1h.9v1.1h2.1zm1.5-.9h.9v5.3h-.9v-.8h-1.5v-.6h1.5v-1.1h-1.5v-.7h1.5v-2.1zm-2 3.6c0 .3 0 .5-.1.7c-.1.2-.3.4-.5.5c-.2.2-.4.3-.6.4c-.3 0-.6.1-.9.1c-.3 0-.5-.1-.8-.1c-.3-.1-.5-.2-.7-.4c-.1-.1-.3-.3-.4-.5c-.1-.2-.1-.4-.1-.7c0-.2 0-.4.1-.6c.1-.2.3-.4.4-.6c.2-.1.4-.2.7-.3c.3-.1.5-.1.8-.1c.3 0 .6 0 .9.1l.6.3c.2.2.4.4.5.6c.1.2.1.4.1.6zm-3.3 0c0 .3.1.6.3.8c.2.2.6.2.9.2c.4 0 .7 0 1-.2c.2-.2.3-.5.3-.8c0-.3-.1-.5-.3-.7c-.3-.2-.6-.3-1-.3c-.3 0-.7.1-.9.3c-.2.2-.3.4-.3.7zm5.3 3.1v-.9h.9v3.2h-6v-3.2h.9v.9h4.2zm0 1.6v-1h-4.2v1h4.2zm9.2-8.3h.8v5.6h-.8V60h-1.8v-.7h1.8v-1.2h-1.8v-.7h1.8v-1.3zm-1.9 4.3l.1.6c-.3.1-.5.1-.8.1c-.3.1-.5.1-.8.1h-1c-.4 0-.8.1-1.2.1c-.05-.05-.7 0-.7 0v-2.8h3.1v-1.2h-3.1v-.7h3.9v2.6h-3.1v1.4h1.1c.4 0 .7-.1 1-.1h.8c.2-.1.5-.1.7-.1zm-3.4 2.4v-.6h6.1v3h-.8v-2.4h-5.3zm14.7-6.8h.8v9.2h-.8v-4.6h-1.1v4.1h-.8v-8.5h.8v3.7h1.1V56zm-4.2.3v1.3h1.8v.7h-4.5v-.7h1.8v-1.3h.9zm-.4 2.6c.2 0 .5 0 .7.1c.3.2.5.3.7.5c.1.2.3.4.4.6c.1.3.1.6.1.9c0 .3 0 .6-.1.8c-.1.3-.3.5-.4.7c-.2.2-.4.3-.7.4c-.2.1-.5.2-.7.2c-.3 0-.6-.1-.8-.2c-.3-.1-.5-.2-.6-.4c-.2-.2-.4-.4-.5-.7c-.1-.2-.1-.5-.1-.8c0-.3 0-.6.1-.9c.1-.2.3-.4.5-.6c.1-.2.3-.3.6-.5c.2-.1.5-.1.8-.1zm0 3.5c.3 0 .6-.2.8-.4c.3-.3.4-.6.4-1c0-.2-.1-.4-.1-.6c-.1-.1-.2-.3-.3-.4c-.1-.1-.2-.2-.4-.3c-.1-.1-.3-.1-.4-.1c-.4 0-.7.1-.9.4c-.2.2-.4.6-.4 1c0 .4.2.7.4 1c.2.2.5.4.9.4zm14.4-5.5v.7H240v-.7h2.2v-.9h.9v.9h2.2zm1.6 2.3h1.4v.7h-1.4v3.3h-.8V56h.8v3.2zm-1.3 2v.6c-.5 0-1 .1-1.5.2c-.5 0-1 .1-1.5.1h-1.4c-.5 0-.9.1-1.3.1l-.1-.7h1.2c.4 0 .8 0 1.2-.1v-.7c-.5 0-.9-.2-1.2-.4c-.3-.2-.5-.6-.5-1c0-.2.1-.4.2-.5c.1-.2.2-.4.4-.5c.2-.1.4-.2.7-.3c.3 0 .5-.1.9-.1c.3 0 .6.1.8.1c.3.1.5.2.7.3c.2.1.3.3.4.5c.1.1.2.3.2.5c0 .4-.2.8-.5 1c-.3.2-.7.4-1.2.4v.7c.4 0 .8-.1 1.3-.1c.4 0 .8-.1 1.2-.1zm-4.3-1.9c0 .3.1.5.4.6c.2.2.6.3 1 .3c.4 0 .7-.1.9-.3c.3-.1.4-.3.4-.6c0-.2-.1-.4-.4-.5c-.2-.2-.5-.3-.9-.3c-.4 0-.8.1-1 .3c-.3.1-.4.3-.4.5zm.7 3.4v1.6h5.3v.7h-6.1v-2.3h.8zm15.6-3v.7h-1.5v4.8h-.9v-9.1h.9v3.6h1.5zm-5.5-2s.01 1.14 0 1.1c0 .4.1.8.2 1.1c.1.4.3.8.5 1.1c.2.3.5.6.8.9c.2.3.5.5.9.6l-.5.7c-.5-.2-1-.6-1.4-1.1c-.4-.5-.7-1.1-.9-1.7c-.1.3-.2.7-.4 1c-.1.3-.3.6-.5.8c-.2.3-.5.5-.7.7c-.2.2-.5.4-.7.5l-.5-.6c.3-.2.6-.4.9-.7c.3-.3.6-.6.8-1c.2-.3.4-.7.5-1.1c.1-.4.2-.8.2-1.2c-.01.04 0-1.1 0-1.1h-2.1v-.7h4.9v.7h-2zm13.4.7v.7h-6.2v-2.8h6.1v.7h-5.3v1.4h5.4zm-7.3 1.5h8.3v.6h-8.3v-.6zm1.8 3.6v.9h5.7v.7h-6.5v-2.2h5.4v-.9h-5.4v-.7h6.2v2.2H260zm14-7.5h.8v9.2h-.8V56zm-3.6.7c.3 0 .7.1.9.2c.3.1.6.2.8.4c.2.2.4.4.5.7c.1.3.2.5.2.9c0 .3-.1.6-.2.8c-.1.3-.3.5-.5.7c-.2.2-.5.4-.8.5c-.2.1-.6.1-.9.1c-.4 0-.7 0-1-.1c-.3-.1-.6-.3-.8-.5c-.2-.2-.4-.4-.5-.7c-.1-.2-.2-.5-.2-.8c0-.4.1-.6.2-.9c.1-.3.3-.5.5-.7c.2-.2.5-.3.8-.4c.3-.1.6-.2 1-.2zm0 .7c-.3 0-.5.1-.7.1c-.2.1-.4.2-.5.3c-.2.2-.3.3-.3.5c-.1.2-.2.3-.2.6c0 .2.1.4.2.5c0 .2.1.4.3.5c.1.1.3.2.5.3c.2.1.4.1.7.1c.2 0 .4 0 .6-.1c.2-.1.4-.2.5-.3c.2-.1.3-.3.4-.5c.1-.1.1-.3.1-.5c0-.3 0-.4-.1-.6c-.1-.2-.2-.3-.4-.5c-.1-.1-.3-.2-.5-.3c-.2 0-.4-.1-.6-.1zm-2.8 5.8l-.1-.7h1.3c.5 0 1 0 1.5-.1h1.6c.5-.1 1-.1 1.5-.2l.1.6c-.5.1-1.1.2-1.6.2c-.5.1-1 .1-1.5.1c-.5.1-1 .1-1.5.1h-1.3zm15.2-3.3c-.5 0-.9 0-1.3-.1c-.4-.1-.8-.2-1-.3c-.3-.2-.5-.4-.7-.6c-.1-.2-.2-.5-.2-.8c0-.3.1-.5.2-.8c.2-.2.4-.4.7-.5c.2-.2.6-.3 1-.4c.4-.1.8-.1 1.3-.1c.5 0 .9 0 1.3.1c.4.1.7.2 1 .4c.3.1.5.3.7.5c.1.3.2.5.2.8c0 .3-.1.6-.2.8c-.2.2-.4.4-.7.6c-.3.1-.6.2-1 .3c-.4.1-.8.1-1.3.1zm0-3c-.4 0-.7.1-1 .1c-.3.1-.5.2-.7.3c-.2.1-.4.2-.5.3c-.1.2-.1.3-.1.5c0 .2 0 .3.1.5c.1.1.3.3.5.4c.2.1.4.1.7.2c.3 0 .6.1 1 .1c.7 0 1.3-.1 1.7-.3c.4-.3.6-.5.6-.9c0-.4-.2-.6-.6-.8c-.4-.2-1-.4-1.7-.4zm-4.2 3.8h8.3v.7h-3.6v1.8h-.9v-1.8h-3.8v-.7zm1.9 1.6v2h5.5v.7h-6.3v-2.7h.8zm12.2-3.7h1.8v-2.5h.9v6.7h-.9v-3.5h-1.8v-.7zm.5 2.1l-.4.7c-.5-.2-.9-.5-1.3-.8c-.4-.4-.7-.8-.9-1.3c-.2.5-.5 1-.9 1.4c-.4.4-.9.7-1.4.9l-.4-.7c.3-.1.6-.3.9-.5c.3-.2.5-.4.7-.7c.2-.2.4-.5.5-.8c.1-.3.2-.6.2-1c-.03.03 0-.4 0-.4h-2.1v-.7h4.9v.7h-2v.4c0 .3.1.6.2.9c.1.3.2.5.4.8c.2.2.4.5.7.7c.3.2.6.3.9.4zm-2.8 3.6h5.2v.7h-6.1v-2.8h.9v2.1zm13.3-3.5h3.7v.6h-8.3v-.6h3.7v-1.1h-2.6v-3.4h.8v1h4.5v-1h.8v3.4h-2.6v1.1zm-2.7-2.9v1.1h4.5v-1.1H301zm-1 5.1v-.7h6.3v2.9h-.8V63H300zm15-7h.8v9.2h-.8V56zm-.6 4.2v.6c-.4 0-.9.1-1.4.1c-.5.1-.9.1-1.4.1c.01.03 0 3.7 0 3.7h-.8s-.03-3.64 0-3.6h-2.5l-.1-.7h2c.6 0 1.3-.1 2-.1c.1-.6.2-1.2.2-1.7c.1-.5.1-.9.1-1.2c0 .03-3.5 0-3.5 0v-.6h4.3v1.6c0 .5-.1 1.1-.2 1.9c.2-.1.4-.1.6-.1h.7zm9.5-2.6v-.7h-5.4v-.6h6.2v1.9h-5.4v.8h5.5v.6h-6.3v-2h5.4zm-6.4 2.7h8.2v.6h-8.2v-.6zm1.8 3.3v.9h5.7v.6h-6.5V63h5.4v-.7h-5.5v-.6h6.3v1.9h-5.4zm16.1-7.5h.8v9.1h-.8v-9.1zm-3.4 1.6s-.02 1.14 0 1.1c0 .4 0 .8.2 1.2c.1.4.3.7.5 1.1c.2.3.5.6.8.8c.3.3.6.5.9.6l-.4.7c-.6-.2-1.1-.6-1.5-1.1c-.4-.5-.7-1.1-.9-1.7c-.1.3-.3.7-.4 1c-.2.3-.4.6-.6.8c-.2.3-.4.5-.7.7c-.2.2-.4.4-.7.5l-.5-.6c.3-.2.7-.4.9-.7c.3-.3.6-.6.8-.9c.2-.4.4-.8.5-1.2c.2-.4.2-.8.2-1.2c.04.04 0-1.1 0-1.1H329v-.7h5.1v.7H332zm10.7 3.7h1.8V56h.9v7h-.9v-.9h-1.8v-.7zm-1.9-1.8c-.3 0-.6 0-.9-.1c-.3-.1-.5-.2-.7-.3c-.2-.2-.4-.3-.5-.5c-.1-.2-.1-.5-.1-.7c0-.2 0-.5.1-.7c.1-.2.3-.3.5-.5c.2-.1.4-.2.7-.3c.3-.1.6-.1.9-.1c.4 0 .7 0 .9.1c.3.1.5.2.7.3c.2.2.4.3.5.5c.1.2.2.5.2.7c0 .2-.1.5-.2.7c-.1.2-.3.3-.5.5c-.2.1-.4.2-.7.3c-.2.1-.5.1-.9.1zm0-2.6c-.4 0-.8.1-1 .3c-.3.2-.4.4-.4.7c0 .3.1.5.4.7c.2.2.6.3 1 .3c.5 0 .8-.1 1.1-.3c.2-.2.4-.4.4-.7c0-.3-.2-.5-.4-.7c-.3-.2-.6-.3-1.1-.3zm-.3 5.7s-.01-1.78 0-1.8c-.5 0-.9.1-1.3.1H338l-.2-.7h1.4c.5 0 1 0 1.5-.1h1.5c.6-.1 1.1-.1 1.5-.2l.1.6c-.4.1-.8.1-1.2.2c-.4 0-.9 0-1.3.1c.03-.02 0 1.8 0 1.8h-.8zm-.5 1.6h5.6v.7h-6.5v-2.7h.9v2zm12.5-7.4v.6h-5.4v-.6h2.3v-1h.8v1h2.3zm1.7 1.3h1.3v.7h-1.3v2.2h-.9V56h.9v2.2zm-2.2 1.2c0 .5-.2.9-.6 1.1c-.4.3-.9.4-1.6.4c-.3 0-.6 0-.9-.1c-.3 0-.5-.1-.7-.3c-.2-.1-.3-.3-.4-.4c-.1-.2-.2-.4-.2-.7c0-.2.1-.4.2-.6c.1-.2.2-.3.4-.5c.2-.1.4-.2.7-.3c.3 0 .6-.1.9-.1c.7 0 1.2.2 1.6.4c.4.3.6.7.6 1.1zm-3.6 0c0 .3.1.5.4.7c.2.1.6.2 1 .2c.4 0 .8-.1 1-.2c.3-.2.4-.4.4-.7c0-.3-.1-.5-.4-.6c-.2-.2-.6-.3-1-.3c-.4 0-.8.1-1 .3c-.3.1-.4.3-.4.6zm.8 4.2v.8h5.3v.7h-6.1V63h4.9v-.8h-4.9v-.7h5.8v2.1h-5z" stroke="none" fill="#111111"/></g><g id="Polygon127726"><path d="m4.7 41.4c-.5 0-.9 0-1.3-.1c-.4-.1-.8-.2-1.1-.3l-.6-.6c-.2-.2-.2-.5-.2-.8c0-.3 0-.5.2-.8c.2-.2.4-.4.6-.5c.3-.2.7-.3 1.1-.4c.4-.1.8-.1 1.3-.1c.5 0 .9 0 1.3.1c.4.1.7.2 1 .4c.3.1.5.3.6.5c.2.3.3.5.3.8c0 .3-.1.6-.3.8c-.1.2-.3.4-.6.6c-.3.1-.6.2-1 .3c-.4.1-.8.1-1.3.1zm0-3c-.4 0-.7.1-1 .1c-.3.1-.5.2-.7.3c-.2.1-.4.2-.5.3c-.1.2-.2.3-.2.5c0 .2.1.3.2.5c.1.1.3.3.5.4c.2.1.4.1.7.2c.3 0 .6.1 1 .1c.7 0 1.2-.1 1.7-.3c.4-.3.6-.5.6-.9c0-.4-.2-.6-.6-.8c-.4-.2-1-.4-1.7-.4zM.5 42.2h8.3v.7H5.2v1.8h-.9v-1.8H.5v-.7zm1.9 1.6v2h5.5v.7H1.6v-2.7h.8zm12.2-3.7h1.8v-2.5h.9v6.7h-.9v-3.5h-1.8v-.7zm.5 2.1l-.4.7c-.5-.2-1-.5-1.3-.8c-.4-.4-.7-.8-.9-1.3c-.2.5-.5 1-.9 1.4c-.4.4-.9.7-1.4.9l-.4-.7c.3-.1.6-.3.9-.5c.3-.2.5-.4.7-.7c.2-.2.4-.5.5-.8c.1-.3.2-.6.2-1c-.04.03 0-.4 0-.4H10v-.7h4.9v.7h-2v.4c0 .3 0 .6.2.9c.1.3.2.5.4.8c.2.2.4.5.7.7c.3.2.6.3.9.4zm-2.8 3.6h5.2v.7h-6.1v-2.8h.9v2.1zm13.6-8.3h.8v9.2h-.8v-9.2zM24 41.2v-3.4h.8v8.4h-.8v-4.4h-1.4v-.6h1.4zm-2.4-1.3s-.04.46 0 .5c0 .3 0 .7.1 1c.1.4.2.7.4 1.1c.2.3.4.6.6.8c.2.3.5.5.8.7l-.4.6c-.5-.2-.9-.6-1.2-1c-.3-.5-.6-1-.7-1.5c-.2.6-.4 1.1-.7 1.6c-.3.5-.7.8-1.2 1.1l-.5-.6c.3-.2.6-.4.9-.7l.6-.9c.1-.4.3-.7.3-1.1c.1-.4.2-.8.2-1.1c-.03-.04 0-.5 0-.5h-1.7v-.7h1.7v-1.3h.8v1.3h1.7v.7h-1.7zm11.8-1.4v.7h-5.3v-.7h2.2v-1.1h.9v1.1h2.2zm1.4-.9h.8v5.5h-.8V41h-1.5v-.7h1.5v-2.7zm-1.9 3.7c0 .2-.1.4-.2.6c-.1.2-.3.4-.4.6c-.2.1-.5.2-.7.3c-.3.1-.6.1-.9.1c-.3 0-.6 0-.8-.1c-.3-.1-.5-.2-.7-.3c-.2-.2-.3-.4-.4-.6c-.1-.2-.2-.4-.2-.6c0-.3.1-.5.2-.7c.1-.2.2-.4.4-.5c.2-.2.4-.3.7-.3c.2-.1.5-.2.8-.2c.3 0 .6.1.9.2c.2 0 .5.1.7.3c.1.1.3.3.4.5c.1.2.2.4.2.7zm-3.5 0c0 .3.1.5.4.7c.2.2.6.3.9.3c.4 0 .7-.1 1-.3c.2-.2.4-.4.4-.7c0-.3-.2-.6-.4-.8c-.3-.1-.6-.2-1-.2c-.3 0-.7.1-.9.2c-.3.2-.4.5-.4.8zm.3 5.3v-3h5.9v3h-5.9zm.8-2.4v1.7h4.3v-1.7h-4.3zm11-1.9v-3.2h-1.4v-.6h6.8v.6h-1.5v3.2h1.4v.7h-6.7v-.7h1.4zm3.1 0v-3.2h-2.3v3.2h2.3zm-5.3 2.5h8.3v.7h-8.3v-.7zm13.8.1h3.7v.7h-8.3v-.7h3.7v-1.7h-2.6v-2.9h5.4v-1.4h-5.5v-.7h6.3v2.8h-5.4v1.5h5.6v.7h-2.9v1.7zM64 39.4c.05.03 0-.2 0-.2h-5.4v-.7h6.3s-.03.93 0 .9v.9c0 .3-.1.7-.1 1.1c0 .3 0 .7-.1 1.1c0 .4-.1.9-.2 1.4l-.8-.1c.2-.9.3-1.8.3-2.5v-1.9zm-6.3 5.3h8.3v.7h-8.3v-.7zm16.1-7.2h.8v5.5h-.8v-2.5h-1.2v2.4h-.8v-5.2h.8v2.2h1.2v-2.4zm-2.5 4.2v.6c-.3.1-.5.1-.8.2h-.8c-.3.1-.6.1-.9.1h-1.5V40h2.6v-1.2h-2.6v-.7h3.4v2.5h-2.6v1.3h1.6c.5-.1 1-.1 1.6-.2zm-2.7 4.9v-3.2h6v3.2h-6zm.8-2.5v1.8h4.4v-1.8h-4.4zm10.8-3.2c-1 0-1.8-.2-2.4-.4c-.5-.3-.8-.7-.8-1.2c0-.5.3-.9.8-1.2c.6-.3 1.4-.4 2.4-.4c1 0 1.8.1 2.4.4c.5.3.8.7.8 1.2c0 .5-.3.9-.8 1.2c-.6.2-1.4.4-2.4.4zm0-2.6c-.8 0-1.4.1-1.8.3c-.4.1-.6.4-.6.7c0 .3.2.5.6.7c.4.2 1 .2 1.8.2c.8 0 1.3 0 1.7-.2c.4-.2.6-.4.6-.7c0-.3-.2-.6-.6-.7c-.4-.2-.9-.3-1.7-.3zm-4.1 3.2h8.2v.7h-8.2v-.7zm1.8 3.5v.9h5.6v.7h-6.4v-2.2h5.3v-.8h-5.3v-.7h6.2v2.1h-5.4zm13.6-3.6c-.5 0-1 0-1.4-.1c-.4-.1-.7-.2-1-.3c-.3-.2-.5-.4-.6-.6c-.2-.2-.2-.5-.2-.8c0-.3 0-.5.2-.8c.1-.2.3-.4.6-.5c.3-.2.6-.3 1-.4c.4-.1.9-.1 1.4-.1c.4 0 .9 0 1.3.1c.4.1.7.2 1 .4c.3.1.5.3.6.5c.2.3.3.5.3.8c0 .3-.1.6-.3.8c-.1.2-.3.4-.6.6c-.3.1-.6.2-1 .3c-.4.1-.9.1-1.3.1zm0-3c-.4 0-.7.1-1 .1c-.3.1-.5.2-.7.3c-.2.1-.4.2-.5.3c-.1.2-.2.3-.2.5c0 .2.1.3.2.5c.1.1.3.3.5.4c.2.1.4.1.7.2c.3 0 .6.1 1 .1c.7 0 1.2-.1 1.6-.3c.5-.3.7-.5.7-.9c0-.4-.2-.6-.6-.8c-.5-.2-1-.4-1.7-.4zm-4.2 3.8h8.3v.7H92v1.8h-.9v-1.8h-3.8v-.7zm1.9 1.6v2h5.5v.7h-6.3v-2.7h.8zm14-2.1s-2.35-.05-2.4 0c-.2.2-.4.4-.7.5c-.4.2-.7.2-1.1.2c-.3 0-.7 0-.9-.1c-.3-.1-.6-.3-.8-.5c-.2-.2-.4-.4-.5-.7c-.1-.2-.2-.5-.2-.8c0-.4.1-.7.2-.9c.1-.3.3-.5.5-.7c.2-.2.5-.3.8-.5c.2-.1.6-.1.9-.1c.4 0 .7.1 1.1.2c.3.1.5.3.7.6c.05-.04 2.4 0 2.4 0v-1.4h.8v5.5h-.8v-1.3zm-5.8-1.4c0 .2.1.4.2.5c0 .2.1.4.3.5c.1.1.3.2.5.3c.2.1.4.1.6.1c.2 0 .4 0 .6-.1c.2-.1.4-.2.5-.3c.1-.1.3-.3.3-.5c.1-.1.2-.3.2-.5c0-.3-.1-.5-.2-.6c0-.2-.2-.4-.3-.5c-.1-.1-.3-.2-.5-.3c-.2-.1-.4-.1-.6-.1c-.2 0-.4 0-.6.1c-.2.1-.4.2-.5.3c-.2.1-.3.3-.3.5c-.1.1-.2.3-.2.6zm5.8-.8s-1.97.04-2 0c.1.3.1.5.1.8c0 .2 0 .4-.1.7c.02-.03 2 0 2 0v-1.5zm-2.2 3.7c.5 0 .9 0 1.3.1c.4.1.7.2.9.3c.3.2.5.4.7.6c.1.2.2.4.2.7c0 .3-.1.6-.2.8c-.2.2-.4.4-.7.5c-.2.2-.5.3-.9.4c-.4 0-.8.1-1.3.1c-.5 0-.9-.1-1.3-.1c-.3-.1-.6-.2-.9-.4c-.3-.1-.5-.3-.6-.5c-.2-.2-.2-.5-.2-.8c0-.3 0-.5.2-.7c.1-.2.3-.4.6-.6l.9-.3c.4-.1.8-.1 1.3-.1zm0 2.8c.7 0 1.3-.1 1.7-.3c.3-.2.5-.4.5-.8c0-.3-.2-.6-.5-.8c-.4-.2-1-.3-1.7-.3c-.7 0-1.2.1-1.6.3c-.4.2-.6.5-.6.8c0 .4.2.6.6.8c.4.2.9.3 1.6.3zm10.4-5.3v2.4h-.7v-5.4h.7v2.4h1.2v-2.5h.8v5.6h-.8v-2.5h-1.2zm-1.1-2.1v.7h-4.7v-.7h1.9v-1h.9v1h1.9zm-2.3 4.2c-.3 0-.6 0-.8-.1c-.3 0-.5-.1-.6-.3c-.2-.1-.4-.3-.4-.5c-.1-.2-.2-.4-.2-.6c0-.3.1-.5.2-.7c0-.2.2-.3.4-.5c.1-.1.3-.2.6-.3c.2 0 .5-.1.8-.1c.3 0 .5.1.8.1l.6.3c.1.2.3.3.4.5c.1.2.1.4.1.7c0 .2 0 .4-.1.6c-.1.2-.3.4-.4.5c-.2.2-.4.3-.6.3c-.3.1-.5.1-.8.1zm0-2.5c-.4 0-.7.1-.9.3c-.2.2-.3.4-.3.7c0 .3.1.5.3.7c.2.1.5.2.9.2c.3 0 .6-.1.8-.2c.3-.2.4-.4.4-.7c0-.3-.1-.5-.4-.7c-.2-.2-.5-.3-.8-.3zm4.3 3.2s-.02.29 0 .3c0 .2 0 .4.1.7c.1.2.2.4.4.6c.1.2.3.3.5.5c.3.1.5.3.8.4l-.4.6c-.4-.2-.8-.4-1.1-.7c-.3-.3-.6-.6-.7-1c-.2.4-.4.7-.7 1c-.2.3-.6.6-1 .8c-.5-.2-.8-.4-1.1-.7c-.3-.3-.5-.7-.6-1.1c-.2.4-.4.7-.7 1c-.3.3-.7.5-1.1.7l-.4-.6c.2-.1.5-.3.7-.4c.3-.2.5-.4.6-.6c.2-.2.3-.4.4-.6c.1-.2.1-.4.1-.6v-.3h.8v.3c0 .4.1.8.3 1.1c.2.4.5.7 1 1c.2-.2.4-.3.5-.5c.2-.2.3-.3.4-.5l.3-.6c0-.2.1-.3.1-.5c-.04-.01 0-.3 0-.3h.8zm6.7-5.4c.5 0 .9.1 1.3.2c.4.1.8.3 1.1.5c.3.2.5.5.7.8c.1.3.2.7.2 1c0 .4-.1.8-.2 1.1c-.2.3-.4.6-.7.8c-.3.2-.7.4-1.1.5c-.4.1-.8.2-1.3.2c-.5 0-.9-.1-1.3-.2c-.4-.1-.8-.3-1.1-.5c-.3-.2-.5-.5-.7-.8c-.1-.3-.2-.7-.2-1.1c0-.3.1-.7.2-1c.2-.3.4-.6.7-.8c.3-.2.7-.4 1.1-.5c.4-.1.8-.2 1.3-.2zm0 .7c-.4 0-.7 0-1 .1c-.3.1-.6.2-.8.4c-.2.2-.4.4-.5.6c-.2.2-.2.5-.2.7c0 .3 0 .6.2.8c.1.2.3.4.5.6c.2.1.5.3.8.4c.3 0 .6.1 1 .1c.4 0 .7-.1 1-.1c.3-.1.6-.3.8-.4c.2-.2.4-.4.5-.6c.2-.2.2-.5.2-.8c0-.2 0-.5-.2-.7c-.1-.2-.3-.4-.5-.6c-.2-.2-.5-.3-.8-.4c-.3-.1-.6-.1-1-.1zm-4.1 6h8.3v.7h-8.3v-.7zm15.8-7.3h.9v9.2h-.9v-3.8h-2.1v1.5h-4.2v-6h4.2v1.3h2.1v-2.2zm-3 6.2v-4.6h-2.5v4.6h2.5zm.9-1.4h2.1v-1.9h-2.1v1.9zm4.3 4.4l.4-2.1h.9l-.6 2.1h-.7zm12.4-4.8h-3.7v1.7h2.7v3.1h-.8v-2.4h-5.6v-.7h2.8v-1.7H137v-.7s6.19.04 6.2 0c.1-.5.2-1 .2-1.4v-1.1c.03-.05-5.3 0-5.3 0v-.7h6.2s-.04.64 0 .6c0 .4-.1.8-.1 1.2c0 .4-.1.9-.2 1.4c.03.04 1.3 0 1.3 0v.7zm7.6-4.3h.8v5h-.8v-5zm-1.1 3.8l.1.7c-.4 0-.8.1-1.1.1c-.4.1-.7.1-1.1.1c-.3 0-.7.1-1.1.1h-1.2c.02-.02-.7 0-.7 0v-2.6h3.3v-1.1h-3.3v-.7h4.1v2.5h-3.3v1.2h1.2c.3 0 .7 0 1-.1h1c.4-.1.7-.1 1.1-.2zm1.1 2.7V43h.8v3.6h-5.9V43h.8v1.1h4.3zm0 1.8v-1.1h-4.3v1.1h4.3zm9.5-8.4h.8v9.2h-.8v-4.8h-1.2v4.3h-.8v-8.5h.8v3.5h1.2v-3.7zm-4.3 1.8v.7c0 .4 0 .8.1 1.2c.1.4.2.8.4 1.1c.1.3.3.6.6.9c.2.3.5.5.8.6l-.4.7c-.5-.3-.9-.6-1.2-1c-.3-.4-.5-.9-.7-1.5c-.3 1.3-1 2.2-1.9 2.8l-.5-.6c.3-.2.6-.4.9-.7c.2-.3.4-.6.6-1c.1-.3.3-.7.4-1.2c0-.4.1-.8.1-1.3c-.02.02 0-.7 0-.7h-1.8v-.7h4.3v.7h-1.7zm11.9-1.1v.6h-5.3v-.6h2.3v-.8h.8v.8h2.2zm1.7 1.7h1.3v.7h-1.3v2.3h-.9v-5.4h.9v2.4zm-1.4 1.9v.6c-.5.1-1 .1-1.5.2c-.5 0-1 .1-1.5.1h-2.7l-.1-.6h2.5v-.6c-.6 0-1-.1-1.3-.3c-.3-.3-.5-.5-.5-.9c0-.4.2-.7.6-.9c.4-.2.9-.3 1.6-.3c.6 0 1.2.1 1.5.3c.4.2.6.5.6.9c0 .4-.1.6-.4.8c-.4.2-.8.4-1.3.4v.5h1.3c.4-.1.8-.1 1.2-.2zm-4.3-1.5c0 .2.2.4.4.5c.2.1.6.2 1 .2c.4 0 .7-.1 1-.2c.2-.1.3-.3.3-.5c0-.2-.1-.3-.3-.5c-.3-.1-.6-.1-1-.1c-.4 0-.8 0-1 .1c-.2.2-.4.3-.4.5zm.6 4.9v.8h5.4v.6h-6.2v-2h5v-.7h-5.1v-.6h6v1.9h-5.1zm11.9-2.3h1.9v-5.4h.8v7h-.8v-.9h-1.9v-.7zm-1.8-1.8c-.4 0-.7 0-.9-.1c-.3-.1-.6-.2-.8-.3c-.2-.2-.3-.3-.4-.5c-.1-.2-.2-.5-.2-.7c0-.2.1-.5.2-.7c.1-.2.2-.3.4-.5c.2-.1.5-.2.8-.3c.2-.1.5-.1.9-.1c.3 0 .6 0 .9.1c.3.1.5.2.7.3c.2.2.4.3.5.5c.1.2.1.5.1.7c0 .2 0 .5-.1.7c-.1.2-.3.3-.5.5c-.2.1-.4.2-.7.3c-.3.1-.6.1-.9.1zm0-2.6c-.5 0-.8.1-1.1.3c-.3.2-.4.4-.4.7c0 .3.1.5.4.7c.3.2.6.3 1.1.3c.4 0 .8-.1 1-.3c.3-.2.4-.4.4-.7c0-.3-.1-.5-.4-.7c-.2-.2-.6-.3-1-.3zm-.4 5.7s.05-1.78 0-1.8c-.4 0-.8.1-1.3.1h-1.2l-.1-.7h1.4c.4 0 .9 0 1.5-.1h1.5c.5-.1 1-.1 1.5-.2l.1.6c-.4.1-.9.1-1.3.2c-.4 0-.8 0-1.2.1c-.02-.02 0 1.8 0 1.8h-.9zm-.5 1.6h5.7v.7H175v-2.7h.8v2zm15.6-4.4v.7h-1.5v4.6h-.8v-9.2h.8v3.9h1.5zm-3.7 1.3l-.8-.1c.1-.8.2-1.4.2-2v-1.4c.04.02-3.8 0-3.8 0v-.7h4.7s-.05.54 0 .5c0 .4-.1.9-.1 1.5c0 .6-.1 1.3-.2 2.2zm-2.1-1.5v2.7h1.5c.5-.1 1-.1 1.4-.2l.1.6c-.5.1-1 .2-1.5.2c-.5.1-1 .1-1.4.1c-.5.1-1 .1-1.5.1h-1.3l-.1-.7h2c-.03-.03 0-2.8 0-2.8h.8zm13.7-2.7v.6h-5.1v-.6h2.2v-1.1h.8v1.1h2.1zm1.6-.9h.8v5.3h-.8v-.8h-1.6v-.6h1.6v-1.1h-1.6v-.7h1.6v-2.1zm-2 3.6c0 .3-.1.5-.2.7c-.1.2-.2.4-.4.5c-.2.2-.4.3-.7.4c-.2 0-.5.1-.8.1c-.3 0-.6-.1-.8-.1c-.3-.1-.5-.2-.7-.4c-.2-.1-.3-.3-.4-.5c-.1-.2-.2-.4-.2-.7c0-.2.1-.4.2-.6c.1-.2.2-.4.4-.6c.2-.1.4-.2.7-.3c.2-.1.5-.1.8-.1c.3 0 .6 0 .8.1c.3.1.5.2.7.3c.2.2.3.4.4.6c.1.2.2.4.2.6zm-3.4 0c0 .3.1.6.4.8c.2.2.5.2.9.2c.4 0 .7 0 .9-.2c.3-.2.4-.5.4-.8c0-.3-.1-.5-.4-.7c-.2-.2-.5-.3-.9-.3c-.4 0-.7.1-.9.3c-.3.2-.4.4-.4.7zm5.4 3.1v-.9h.8v3.2h-5.9v-3.2h.8v.9h4.3zm0 1.6v-1h-4.3v1h4.3zm9.2-8.3h.8v5.6h-.8v-1.7h-1.8v-.7h1.8v-1.2h-1.8v-.7h1.8v-1.3zm-1.9 4.3l.1.6c-.3.1-.6.1-.8.1c-.3.1-.6.1-.9.1h-1c-.3 0-.7.1-1.2.1c.01-.05-.6 0-.6 0V40h3.1v-1.2h-3.2v-.7h4v2.6h-3.1s-.03 1.37 0 1.4h1.1c.3 0 .6-.1.9-.1h.8c.3-.1.5-.1.8-.1zm-3.4 2.4v-.6h6.1v3h-.8v-2.4h-5.3zm14.7-6.8h.8v9.2h-.8v-4.6h-1.2v4.1h-.8v-8.5h.8v3.7h1.2v-3.9zm-4.3.3v1.3h1.9v.7h-4.6v-.7h1.9v-1.3h.8zm-.4 2.6c.3 0 .6 0 .8.1c.2.2.4.3.6.5c.2.2.3.4.4.6c.1.3.2.6.2.9c0 .3-.1.6-.2.8c-.1.3-.2.5-.4.7c-.2.2-.4.3-.6.4c-.2.1-.5.2-.8.2c-.3 0-.5-.1-.8-.2c-.2-.1-.4-.2-.6-.4c-.2-.2-.3-.4-.4-.7c-.1-.2-.1-.5-.1-.8c0-.3 0-.6.1-.9c.1-.2.2-.4.4-.6c.2-.2.4-.3.6-.5c.3-.1.5-.1.8-.1zm0 3.5c.4 0 .7-.2.9-.4c.2-.3.3-.6.3-1c0-.2 0-.4-.1-.6c0-.1-.1-.3-.2-.4c-.1-.1-.2-.2-.4-.3c-.1-.1-.3-.1-.5-.1c-.4 0-.7.1-.9.4c-.2.2-.3.6-.3 1c0 .4.1.7.3 1c.3.2.6.4.9.4zm15.5-4.4c-.03-.03 0-.4 0-.4h-5.6v-.6h6.4v2.8c-.1.3-.1.7-.1 1c-.1.4-.1.8-.2 1.2l-.8-.1c.1-.7.2-1.3.2-1.9c.1-.7.1-1.3.1-2zm-1.4 5.2h3.2v.7h-8.3v-.7h2v-3h.9v3h1.4v-3h.8v3zm8.6-2.3h3.8v.7H233v-.7h3.7v-.9h-2.6v-3.7h6.1v.7h-5.3v.8h5.1v.6h-5.1v.9h5.4v.7h-2.8v.9zm-.4 1.4c1 0 1.8.1 2.3.3c.6.3.8.6.8 1.1c0 .5-.2.9-.8 1.1c-.5.3-1.3.4-2.3.4c-1 0-1.8-.1-2.3-.4c-.5-.2-.8-.6-.8-1.1c0-.5.3-.8.8-1.1c.5-.2 1.3-.3 2.3-.3zm0 2.2c.8 0 1.3 0 1.7-.2c.4-.1.6-.3.6-.6c0-.3-.2-.5-.6-.6c-.4-.2-.9-.2-1.7-.2c-.7 0-1.3 0-1.7.2c-.4.1-.6.3-.6.6c0 .3.2.5.6.6c.4.2 1 .2 1.7.2zm13.6-4.7v.6h-1.5v4.8h-.8v-9.1h.8v3.7h1.5zm-5.5-3s.04 1.68 0 1.7c0 .4.1.8.2 1.2c.1.4.3.7.5 1.1c.2.3.5.7.8.9c.2.3.5.5.9.7l-.6.7c-.4-.3-.9-.7-1.3-1.2c-.4-.5-.7-1-.9-1.7c-.2.7-.5 1.3-.9 1.8c-.4.5-.8 1-1.3 1.2l-.5-.6c.3-.2.6-.4.9-.7c.3-.3.5-.6.7-1c.2-.4.4-.8.5-1.2c.2-.4.2-.8.2-1.2c.01-.02 0-1.7 0-1.7h.8zm12.6 1.1v-.3h-5.6v-.6h6.4s.04.87 0 .9v1.8c0 .4-.1.7-.1 1.1c0 .4-.1.8-.2 1.3l-.8-.1c.1-.9.2-1.6.3-2.3v-1.8zm-2.4 5.3h4.2v.7h-8.2v-.7h3.2v-3.3h.8v3.3zm12.6-6.3v.7h-5.2v-.7h2.2v-.9h.8v.9h2.2zm1.7 2.3h1.3v.7h-1.3v3.3h-.8v-7.2h.8v3.2zm-1.4 2l.1.6c-.5 0-1 .1-1.5.2c-.5 0-1 .1-1.5.1H264c-.5 0-.9.1-1.3.1l-.1-.7h1.1c.4 0 .9 0 1.3-.1v-.7c-.5 0-.9-.2-1.3-.4c-.3-.2-.4-.6-.4-1c0-.2 0-.4.1-.5c.1-.2.3-.4.5-.5l.6-.3c.3 0 .6-.1.9-.1c.3 0 .6.1.9.1c.3.1.5.2.7.3c.2.1.3.3.4.5c.1.1.2.3.2.5c0 .4-.2.8-.5 1c-.3.2-.7.4-1.3.4v.7c.5 0 .9-.1 1.3-.1c.4 0 .8-.1 1.2-.1zm-4.2-1.9c0 .3.1.5.3.6c.3.2.6.3 1 .3c.4 0 .8-.1 1-.3c.2-.1.4-.3.4-.6c0-.2-.2-.4-.4-.5c-.2-.2-.6-.3-1-.3c-.4 0-.7.1-1 .3c-.2.1-.3.3-.3.5zm.7 3.4v1.6h5.2v.7h-6.1v-2.3h.9zm15.5-3v.7h-1.5v4.8h-.8v-9.1h.8v3.6h1.5zm-5.4-2s-.03 1.14 0 1.1c0 .4 0 .8.2 1.1c.1.4.2.8.5 1.1c.2.3.4.6.7.9c.3.3.6.5.9.6l-.4.7c-.6-.2-1-.6-1.4-1.1c-.4-.5-.7-1.1-.9-1.7c-.1.3-.3.7-.4 1c-.2.3-.4.6-.6.8c-.2.3-.4.5-.6.7c-.3.2-.5.4-.8.5l-.5-.6c.4-.2.7-.4 1-.7c.3-.3.5-.6.7-1c.2-.3.4-.7.5-1.1c.2-.4.2-.8.2-1.2c.04.04 0-1.1 0-1.1h-2v-.7h4.9v.7h-2zm12.7-1.7h.8v9.2h-.8v-9.2zm-3.7.7c.4 0 .7.1 1 .2c.3.1.6.2.8.4c.2.2.4.4.5.7c.1.3.2.5.2.9c0 .3-.1.6-.2.8c-.1.3-.3.5-.5.7c-.2.2-.5.4-.8.5c-.3.1-.6.1-1 .1c-.3 0-.6 0-.9-.1c-.3-.1-.6-.3-.8-.5c-.2-.2-.4-.4-.5-.7c-.2-.2-.2-.5-.2-.8c0-.4 0-.6.2-.9c.1-.3.3-.5.5-.7c.2-.2.5-.3.8-.4c.3-.1.6-.2.9-.2zm0 .7c-.2 0-.4.1-.6.1c-.2.1-.4.2-.5.3c-.2.2-.3.3-.4.5c-.1.2-.1.3-.1.6c0 .2 0 .4.1.5c.1.2.2.4.4.5c.1.1.3.2.5.3c.2.1.4.1.6.1c.3 0 .5 0 .7-.1c.2-.1.4-.2.5-.3c.2-.1.3-.3.3-.5c.1-.1.2-.3.2-.5c0-.3-.1-.4-.2-.6c0-.2-.1-.3-.3-.5c-.1-.1-.3-.2-.5-.3c-.2 0-.4-.1-.7-.1zm-2.8 5.8l-.1-.7h1.4c.5 0 1 0 1.5-.1h1.5c.6-.1 1.1-.1 1.6-.2l.1.6c-.6.1-1.1.2-1.6.2c-.5.1-1.1.1-1.6.1c-.5.1-1 .1-1.4.1h-1.4zm18.1-7.2h.8v9.2h-.8v-4.8H298v4.3h-.8v-8.5h.8v3.5h1.2v-3.7zm-4.3 1.8s.03.72 0 .7c0 .4.1.8.2 1.2c0 .4.2.8.3 1.1l.6.9c.3.3.6.5.9.6l-.5.7c-.4-.3-.8-.6-1.1-1c-.4-.4-.6-.9-.8-1.5c-.3 1.3-.9 2.2-1.9 2.8l-.5-.6c.4-.2.7-.4.9-.7c.2-.3.5-.6.6-1c.2-.3.3-.7.4-1.2c.1-.4.1-.8.1-1.3c.03.02 0-.7 0-.7h-1.7v-.7h4.2v.7h-1.7zm11.9-1.1v.6h-5.2v-.6h2.2v-.8h.8v.8h2.2zm1.7 1.7h1.3v.7h-1.3v2.3h-.8v-5.4h.8v2.4zm-1.4 1.9l.1.6c-.5.1-1 .1-1.5.2c-.5 0-1 .1-1.5.1h-2.7l-.1-.6h2.4v-.6c-.5 0-.9-.1-1.3-.3c-.3-.3-.4-.5-.4-.9c0-.4.2-.7.6-.9c.3-.2.9-.3 1.5-.3c.7 0 1.2.1 1.6.3c.4.2.6.5.6.9c0 .4-.2.6-.5.8c-.3.2-.7.4-1.3.4v.5h1.3c.4-.1.8-.1 1.2-.2zm-4.2-1.5c0 .2.1.4.3.5c.3.1.6.2 1 .2c.4 0 .8-.1 1-.2c.2-.1.4-.3.4-.5c0-.2-.2-.3-.4-.5c-.2-.1-.6-.1-1-.1c-.4 0-.7 0-1 .1c-.2.2-.3.3-.3.5zm.5 4.9v.8h5.4v.6h-6.2v-2h5.1v-.7h-5.1v-.6h5.9v1.9h-5.1zm15-6.8v.6H311v-.6h3.3v-1h.8v1h3.3zm-6.6 2.4c0-.4.2-.8.7-1c.5-.2 1.3-.4 2.2-.4c1 0 1.7.2 2.2.4c.5.2.8.6.8 1c0 .5-.3.8-.8 1.1c-.5.2-1.2.3-2.2.3c-.9 0-1.7-.1-2.2-.3c-.5-.3-.7-.6-.7-1.1zm5 0c0-.2-.1-.4-.5-.6c-.4-.1-.9-.2-1.6-.2c-.6 0-1.2.1-1.5.2c-.4.2-.6.4-.6.6c0 .3.2.5.6.6c.3.1.9.2 1.5.2c.7 0 1.2-.1 1.6-.2c.4-.1.5-.3.5-.6zm-6.2 2h8.3v.6h-3.7v1.4h-.8v-1.4h-3.8v-.6zm1.9 1.4v1.6h5.5v.7h-6.4v-2.3h.9zm14 .1v-2.5h-1.8v-.7h1.8v-1.3h-1.8v-.7h1.8v-1.5h.8v6.7h-.8zm-1.9-2.2l.1.7c-.3.1-.6.1-.9.1c-.2.1-.5.1-.8.1h-2.2c.01.05-.7 0-.7 0v-2.8h3.1v-1.3h-3.1v-.7h4v2.7H321s-.03 1.47 0 1.5h1.1c.3-.1.6-.1.9-.1c.3 0 .6 0 .8-.1c.3 0 .5 0 .8-.1zm-2.4 3.7h5.4v.6h-6.2v-2.6h.8v2zm10.9-4.9c-1 0-1.8-.2-2.4-.4c-.5-.3-.8-.7-.8-1.2c0-.5.3-.9.8-1.2c.6-.3 1.4-.4 2.4-.4c1 0 1.8.1 2.3.4c.6.3.9.7.9 1.2c0 .5-.3.9-.9 1.2c-.5.2-1.3.4-2.3.4zm0-2.6c-.8 0-1.4.1-1.8.3c-.4.1-.6.4-.6.7c0 .3.2.5.6.7c.4.2 1 .2 1.8.2c.7 0 1.3 0 1.7-.2c.4-.2.6-.4.6-.7c0-.3-.2-.6-.6-.7c-.4-.2-1-.3-1.7-.3zm-4.2 3.2h8.3v.7h-8.3v-.7zm1.9 3.5v.9h5.6v.7H330v-2.2h5.3v-.8h-5.4v-.7h6.3v2.1h-5.4zm16.1-7.4h.8v9.1h-.8v-9.1zm-3.4 1.6s-.03 1.14 0 1.1c0 .4 0 .8.2 1.2c.1.4.3.7.5 1.1c.2.3.5.6.8.8c.3.3.6.5.9.6l-.4.7c-.6-.2-1.1-.6-1.5-1.1c-.4-.5-.7-1.1-.9-1.7c-.1.3-.3.7-.4 1c-.2.3-.4.6-.6.8c-.2.3-.4.5-.7.7c-.2.2-.4.4-.7.5l-.5-.6c.3-.2.6-.4.9-.7c.3-.3.6-.6.8-.9c.2-.4.4-.8.5-1.2c.2-.4.2-.8.2-1.2c.04.04 0-1.1 0-1.1h-2.1v-.7h5.1v.7h-2.1zm10.7 3.7h1.8v-5.4h.9v7h-.9v-.9h-1.8v-.7zm-1.9-1.8c-.3 0-.6 0-.9-.1c-.3-.1-.5-.2-.7-.3c-.2-.2-.4-.3-.5-.5c-.1-.2-.1-.5-.1-.7c0-.2 0-.5.1-.7c.1-.2.3-.3.5-.5c.2-.1.4-.2.7-.3c.3-.1.6-.1.9-.1c.4 0 .7 0 .9.1c.3.1.5.2.7.3c.2.2.4.3.5.5c.1.2.2.5.2.7c0 .2-.1.5-.2.7c-.1.2-.3.3-.5.5c-.2.1-.4.2-.7.3c-.2.1-.5.1-.9.1zm0-2.6c-.4 0-.8.1-1 .3c-.3.2-.4.4-.4.7c0 .3.1.5.4.7c.2.2.6.3 1 .3c.5 0 .8-.1 1.1-.3c.2-.2.4-.4.4-.7c0-.3-.2-.5-.4-.7c-.3-.2-.6-.3-1.1-.3zm-.3 5.7s-.01-1.78 0-1.8c-.5 0-.9.1-1.3.1h-1.2l-.2-.7h1.4c.5 0 1 0 1.5-.1h1.5c.6-.1 1.1-.1 1.5-.2l.1.6c-.4.1-.8.1-1.2.2c-.4 0-.9 0-1.3.1c.03-.02 0 1.8 0 1.8h-.8zm-.5 1.6h5.6v.7h-6.5v-2.7h.9v2zm12.8-5.1v2.4h-.8v-5.4h.8v2.4h1.2v-2.5h.8v5.6h-.8v-2.5h-1.2zm-1.1-2.1v.7h-4.7v-.7h1.9v-1h.9v1h1.9zm-2.3 4.2c-.3 0-.6 0-.8-.1c-.3 0-.5-.1-.7-.3c-.1-.1-.3-.3-.4-.5c-.1-.2-.1-.4-.1-.6c0-.3 0-.5.1-.7c.1-.2.3-.3.4-.5c.2-.1.4-.2.7-.3c.2 0 .5-.1.8-.1c.2 0 .5.1.7.1c.3.1.5.2.7.3c.1.2.3.3.4.5c.1.2.1.4.1.7c0 .2 0 .4-.1.6c-.1.2-.3.4-.4.5c-.2.2-.4.3-.7.3c-.2.1-.5.1-.7.1zm0-2.5c-.4 0-.7.1-.9.3c-.2.2-.3.4-.3.7c0 .3.1.5.3.7c.2.1.5.2.9.2c.3 0 .6-.1.8-.2c.2-.2.4-.4.4-.7c0-.3-.2-.5-.4-.7c-.2-.2-.5-.3-.8-.3zm4.3 3.2s-.03.29 0 .3c0 .2 0 .4.1.7c.1.2.2.4.4.6c.1.2.3.3.5.5c.3.1.5.3.8.4l-.4.6c-.5-.2-.8-.4-1.2-.7c-.3-.3-.5-.6-.6-1c-.2.4-.4.7-.7 1c-.2.3-.6.6-1 .8c-.5-.2-.8-.4-1.1-.7c-.3-.3-.5-.7-.6-1.1c-.2.4-.4.7-.7 1c-.3.3-.7.5-1.2.7l-.3-.6c.2-.1.5-.3.7-.4l.6-.6c.2-.2.3-.4.4-.6c0-.2.1-.4.1-.6v-.3h.8v.3c0 .4.1.8.3 1.1c.2.4.5.7 1 1c.2-.2.4-.3.5-.5c.2-.2.3-.3.4-.5l.3-.6v-.5c.04-.01 0-.3 0-.3h.9zm11.1-2.3v.6h-1.5v4.9h-.8v-9.2h.8v3.7h1.5zm-7.3-2.1s-.03 4.61 0 4.6h2.2c.3-.1.6-.1.9-.1c.3-.1.7-.1 1-.2l.1.7c-.4.1-.7.1-1 .2c-.4 0-.7 0-1.1.1h-2.2c-.04.03-.8 0-.8 0v-6h4.3v.7H369zm7.8 7v-1h.9v1h-.9z" stroke="none" fill="#111111"/></g><g id="Polygon127725"><path d="m7.2 19h.8v9.2h-.8V19zm-6.1 1s4.27.03 4.3 0c0 .7-.1 1.3-.3 1.9c-.1.7-.4 1.2-.7 1.8c-.4.5-.8 1-1.3 1.5c-.6.5-1.2.9-2 1.3l-.4-.7c1.2-.6 2.1-1.3 2.7-2.2c.7-.8 1-1.8 1.1-2.9H1.1v-.7zm9.4 3.1l-.3-.7c.4 0 .8-.1 1.2-.3c.4-.1.7-.3 1-.5c.3-.2.5-.4.7-.6c.1-.3.2-.5.2-.8c.02-.02 0 0 0 0h-2.8v-.7h6.7v.7h-2.8s0-.02 0 0c0 .3.1.5.3.8c.1.2.4.4.6.6c.3.2.7.4 1 .5c.4.2.8.3 1.2.3l-.3.7c-.4-.1-.7-.1-1.1-.3c-.3-.1-.7-.2-.9-.4c-.3-.2-.6-.4-.8-.6c-.2-.2-.4-.5-.5-.7c-.2.2-.3.5-.6.7c-.2.2-.4.4-.7.6c-.3.2-.6.3-1 .4c-.3.2-.7.2-1.1.3zm3.8.9h3.7v.7H9.7v-.7h3.7v-1.5h.9v1.5zm-2.7 1.4v1.9h5.5v.7h-6.3v-2.6h.8zM22.2 20v1.1h-1.1s-.02-1.09 0-1.1c0-.4 0-.7.2-.9c.1-.2.2-.3.3-.4c.2-.1.4-.1.6-.1v.4c-.1 0-.2.1-.3.1c-.1.1-.2.2-.2.3c0 .1-.1.2-.1.3v.3h.6zm8.4 3.4v.7h-6.3v-4.2h6.2v.7h-5.4v2.8h5.5zm-7.4 2.9h8.3v.7h-8.3v-.7zM41 22.7v.7h-1.5v4.8h-.9V19h.9v3.7h1.5zm-7.4.5v2.1h1.2c.3 0 .7 0 1-.1c.4 0 .7 0 1-.1c.3 0 .7-.1 1-.1l.1.7c-.3 0-.7.1-1 .1c-.4.1-.7.1-1.1.1c-.3 0-.7.1-1.1.1h-1.9v-3.5h3.3v-1.9h-3.3v-.7h4.1v3.3h-3.3zM48.2 19h.9v9.2h-.9V19zm-3.9.7c.3 0 .6.1.9.3c.3.1.5.3.7.6c.2.3.4.6.5 1c.1.4.2.8.2 1.3c0 .5-.1 1-.2 1.4c-.1.3-.3.7-.5 1c-.2.2-.4.5-.7.6c-.3.2-.6.2-.9.2c-.4 0-.7 0-1-.2c-.3-.1-.5-.4-.7-.6c-.2-.3-.4-.7-.5-1c-.1-.4-.2-.9-.2-1.4c0-.5.1-.9.2-1.3c.1-.4.3-.7.5-1c.2-.3.4-.5.7-.6c.3-.2.6-.3 1-.3zm0 .8c-.3 0-.5.1-.7.2c-.1.1-.3.3-.4.5c-.2.2-.3.4-.4.7c0 .3-.1.7-.1 1c0 .4.1.7.1 1c.1.3.2.6.4.8c.1.2.3.4.4.5c.2.1.4.2.7.2c.2 0 .4-.1.6-.2c.2-.1.3-.3.4-.5c.2-.2.3-.5.4-.8c0-.3.1-.6.1-1c0-.3-.1-.7-.1-1c-.1-.3-.2-.5-.4-.7c-.1-.2-.2-.4-.4-.5c-.2-.1-.4-.2-.6-.2zm13.1-1.4h.9v5.5h-.9v-5.5zm-6.1.5h.8v1.4h2.6v-1.4h.8v4.3h-4.2v-4.3zm.8 2.1v1.5h2.6v-1.5h-2.6zm3.1 3.1c.5 0 .9 0 1.3.1c.4.1.7.2 1 .3c.3.2.5.3.6.6c.1.2.2.4.2.7c0 .2-.1.5-.2.7c-.1.2-.3.4-.6.5c-.3.2-.6.3-1 .4c-.4 0-.8.1-1.3.1c-.4 0-.9-.1-1.2-.1c-.4-.1-.7-.2-1-.4c-.3-.1-.5-.3-.6-.5c-.2-.2-.2-.5-.2-.7c0-.3 0-.5.2-.7c.1-.3.3-.4.6-.6c.3-.1.6-.2 1-.3c.3-.1.8-.1 1.2-.1zm0 .6c-.7 0-1.2.1-1.6.3c-.4.2-.6.4-.6.8c0 .3.2.6.6.7c.4.2.9.3 1.6.3c.7 0 1.3-.1 1.7-.3c.4-.1.6-.4.6-.7c0-.4-.2-.6-.6-.8c-.4-.2-1-.3-1.7-.3zm9-3.7V20h-1.4v-.7h6.7v.7h-1.4v1.7h1.4v.7h-6.7v-.7h1.4zm3.1 0V20H65v1.7h2.3zM62 23.1h8.3v.7H62v-.7zm1.9 3.5v.9h5.6v.6h-6.4V26h5.3v-.8H63v-.6h6.2v2h-5.3zm14-7.6h.8v9.2h-.8v-5h-1.7v-.6h1.7V19zm-5.5 4.1s-.02 2.2 0 2.2h1.1c.3 0 .6 0 1-.1h.9c.3-.1.6-.1 1-.2v.7c-.3.1-.6.1-1 .1c-.3.1-.6.1-.9.1c-.4.1-.7.1-1.1.1h-1.8v-3.6h3.2v-1.8h-3.3v-.7h4.1v3.2h-3.2zm15.9.5l-.4.7c-.3 0-.7-.2-1-.3c-.4-.2-.7-.4-1-.6c-.3-.2-.6-.5-.8-.8c-.3-.3-.5-.6-.6-.9c-.1.3-.3.6-.6.9c-.2.3-.5.6-.8.8c-.3.2-.6.4-1 .6c-.3.1-.6.3-1 .3l-.4-.7c.4 0 .8-.2 1.2-.4c.4-.2.8-.4 1.1-.7c.3-.3.6-.6.8-1c.2-.3.3-.7.3-1.1c-.03-.01 0-.7 0-.7h.8s.05.69 0 .7c0 .4.1.7.3 1.1c.2.4.5.7.8 1c.3.3.7.5 1.1.7c.4.2.8.4 1.2.4zm-7.9 2.7h8.3v.7h-8.3v-.7zm9.3-6.7v-1.1h1.2s-.05 1.08 0 1.1c0 .2-.1.3-.1.5c0 .2-.1.3-.2.5l-.3.3c-.2.1-.3.1-.5.1v-.4c.1 0 .2-.1.3-.1c0-.1.1-.2.1-.3c.1-.1.1-.2.1-.3v-.3c.04-.02-.6 0-.6 0zm9.1-.6h.8v9.2h-.8V19zM97 22.6v-3.4h.8v8.5h-.8v-4.4s-1.16-.02-1.2 0c0 .4 0 .8-.1 1.2c-.1.3-.3.7-.4.9c-.2.3-.4.4-.6.6c-.3.1-.5.2-.8.2c-.3 0-.6-.1-.8-.2c-.3-.2-.5-.4-.6-.7c-.2-.3-.3-.6-.4-1c-.1-.4-.2-.8-.2-1.3c0-.5.1-1 .2-1.3c.1-.4.2-.8.4-1c.1-.3.3-.5.6-.7c.2-.1.5-.2.8-.2c.3 0 .5.1.8.2c.2.1.4.3.5.6c.2.2.3.5.4.8c.1.4.2.8.2 1.2h1.2zm-3.1 2.8c.4 0 .7-.2.9-.6c.2-.5.3-1.1.3-1.8c0-.4 0-.7-.1-1c-.1-.3-.1-.6-.2-.8c-.1-.2-.3-.3-.4-.5c-.2-.1-.3-.1-.5-.1c-.4 0-.7.2-.9.6c-.2.5-.3 1-.3 1.8c0 .7.1 1.3.3 1.8c.2.4.5.6.9.6zm13.8-6.4h.8v9.2h-.8v-5.4h-2.1v-.7h2.1V19zm-3.5.8s.01 1.67 0 1.7c0 .4.1.8.2 1.2c.1.4.3.8.5 1.1c.2.4.5.7.8 1c.2.3.5.5.9.6l-.5.7c-.5-.3-1-.7-1.4-1.2c-.4-.5-.7-1.1-.9-1.7c-.2.7-.5 1.3-.9 1.8c-.4.6-.9 1-1.4 1.3l-.5-.7c.3-.2.7-.4.9-.7c.3-.3.6-.6.8-1c.2-.4.4-.7.5-1.2c.1-.4.2-.8.2-1.2c-.02-.03 0-1.7 0-1.7h.8zm14.7-.8h.9v9.2h-.9V19zm-4 .7c.4 0 .7.1 1 .3c.3.1.5.3.7.6c.2.3.4.6.5 1c.1.4.2.8.2 1.3c0 .5-.1 1-.2 1.4c-.1.3-.3.7-.5 1c-.2.2-.4.5-.7.6c-.3.2-.6.2-1 .2c-.3 0-.6 0-.9-.2c-.3-.1-.5-.4-.7-.6c-.2-.3-.4-.7-.5-1c-.1-.4-.2-.9-.2-1.4c0-.5.1-.9.2-1.3c.1-.4.3-.7.5-1c.2-.3.4-.5.7-.6c.3-.2.6-.3.9-.3zm0 .8c-.2 0-.4.1-.6.2c-.2.1-.3.3-.5.5c-.1.2-.2.4-.3.7c-.1.3-.1.7-.1 1c0 .4 0 .7.1 1c.1.3.2.6.3.8c.2.2.3.4.5.5c.2.1.4.2.6.2c.3 0 .5-.1.6-.2c.2-.1.4-.3.5-.5c.2-.2.3-.5.3-.8c.1-.3.2-.6.2-1c0-.3-.1-.7-.2-1c0-.3-.1-.5-.3-.7c-.1-.2-.3-.4-.5-.5c-.1-.1-.3-.2-.6-.2zm13 .3v-.9h-5.4v-.6h6.2v2.1h-5.4v.9h5.6v.7h-6.4v-2.2h5.4zm-6.4 3h8.2v.6h-8.2v-.6zm1.1 4.3v-2.8h6.1v2.8h-6.1zm.8-2.2v1.5h4.5v-1.5h-4.5zm11.4-3.5c-1 0-1.8-.2-2.4-.4c-.6-.3-.9-.7-.9-1.2c0-.5.3-.9.9-1.2c.6-.3 1.4-.4 2.4-.4c1 0 1.8.1 2.3.4c.6.3.9.7.9 1.2c0 .5-.3.9-.9 1.2c-.5.2-1.3.4-2.3.4zm0-2.6c-.8 0-1.4.1-1.8.3c-.4.1-.6.4-.6.7c0 .3.2.5.6.7c.4.2 1 .2 1.8.2c.7 0 1.3 0 1.7-.2c.4-.2.6-.4.6-.7c0-.3-.2-.6-.6-.7c-.4-.2-1-.3-1.7-.3zm-4.2 3.2h8.3v.7h-8.3v-.7zm1.9 3.5v.9h5.6v.7h-6.4v-2.2h5.3v-.8h-5.4v-.7h6.2v2.1h-5.3zm14-3.1v.9h-4.1v-4.6h.8v1.6h2.4v-1.6h.9v1h2.1v-1.6h.8v6.7h-.8v-2.4h-2.1zm2.1-2h-2.1v1.3h2.1v-1.3zm-3 2.2v-1.7h-2.4v1.7h2.4zm-1.2 3.7h5.2v.7h-6.1v-2.8h.9v2.1zm13.4-5.9h-2.3c-.6 1.5-2 2.5-4 3.1l-.3-.6c1.1-.4 2-.8 2.6-1.4c.6-.6 1-1.3 1.1-2.1h-3.2v-.7s4.09.03 4.1 0v.5c0 .2-.1.4-.1.5c-.01.02 2.1 0 2.1 0v-1.6h.8v5.4h-.8v-1.2h-2.4v-.7h2.4v-1.2zm-2.2 3.2c.5 0 .9.1 1.3.1c.3.1.7.2.9.4c.3.1.5.3.6.5c.2.3.3.5.3.8c0 .3-.1.5-.3.7c-.1.2-.3.4-.6.6c-.2.1-.6.2-.9.3c-.4.1-.8.1-1.3.1c-.4 0-.9 0-1.2-.1c-.4-.1-.7-.2-1-.3c-.2-.2-.5-.4-.6-.6c-.1-.2-.2-.4-.2-.7c0-.3.1-.5.2-.8c.1-.2.4-.4.6-.5c.3-.2.6-.3 1-.4c.3 0 .8-.1 1.2-.1zm0 2.9c.7 0 1.2-.1 1.6-.3c.4-.2.6-.5.6-.8c0-.4-.2-.6-.6-.8c-.4-.2-.9-.3-1.6-.3c-.7 0-1.2.1-1.6.3c-.4.2-.6.4-.6.8c0 .3.2.6.6.8c.4.2.9.3 1.6.3zm10.4-5.3v2.4h-.8v-5.4h.8v2.4h1.2v-2.5h.8v5.6h-.8v-2.5H166zm-1.1-2.1v.7h-4.7v-.7h1.9v-1h.8v1h2zm-2.4 4.2c-.2 0-.5 0-.8-.1c-.2 0-.4-.1-.6-.3c-.1-.1-.3-.3-.4-.5c-.1-.2-.1-.4-.1-.6c0-.3 0-.5.1-.7c.1-.2.3-.3.4-.5l.6-.3c.3 0 .6-.1.8-.1c.3 0 .6.1.8.1c.3.1.5.2.6.3c.2.2.3.3.4.5c.1.2.2.4.2.7c0 .2-.1.4-.2.6c-.1.2-.2.4-.4.5c-.1.2-.3.3-.6.3c-.2.1-.5.1-.8.1zm0-2.5c-.3 0-.6.1-.8.3c-.3.2-.4.4-.4.7c0 .3.1.5.4.7c.2.1.5.2.8.2c.4 0 .7-.1.9-.2c.2-.2.3-.4.3-.7c0-.3-.1-.5-.3-.7c-.2-.2-.5-.3-.9-.3zm4.4 3.2s-.05.29 0 .3c0 .2 0 .4.1.7l.3.6c.2.2.4.3.6.5c.2.1.5.3.8.4l-.4.6c-.5-.2-.9-.4-1.2-.7c-.3-.3-.5-.6-.7-1c-.1.4-.3.7-.6 1c-.3.3-.6.6-1 .8c-.5-.2-.8-.4-1.1-.7c-.3-.3-.5-.7-.6-1.1c-.2.4-.4.7-.7 1c-.4.3-.7.5-1.2.7l-.4-.6c.3-.1.6-.3.8-.4l.6-.6c.1-.2.3-.4.3-.6c.1-.2.2-.4.2-.6c-.03-.01 0-.3 0-.3h.8s-.03.29 0 .3c0 .4.1.8.3 1.1c.2.4.5.7.9 1c.3-.2.4-.3.6-.5c.2-.2.3-.3.4-.5c.1-.2.2-.4.2-.6c.1-.2.1-.3.1-.5c.02-.01 0-.3 0-.3h.9zm11.1-2.3v.6h-1.5v4.9h-.9V19h.9v3.7h1.5zm-7.3-2.1s-.04 4.61 0 4.6h2.1c.4-.1.7-.1 1-.1c.3-.1.6-.1 1-.2l.1.7c-.4.1-.7.1-1.1.2c-.3 0-.6 0-1 .1h-2.3c.04.03-.7 0-.7 0v-6h4.3v.7h-3.4zm7.8 7v-1h.9v1h-.9zm6.4-1h3v.8h-5.1v-.6l2.6-2.5l.6-.6c.1-.2.3-.4.4-.6c.1-.1.2-.3.3-.5c0-.2.1-.4.1-.7c0-.4-.2-.7-.4-.9c-.3-.3-.6-.4-1-.4c-.2 0-.4.1-.6.1c-.2.1-.3.2-.5.3c-.1.2-.2.3-.3.5c-.1.2-.1.4-.1.6l-.9-.2c0-.3.1-.6.3-.9c.1-.2.3-.4.5-.6c.2-.2.5-.3.7-.4c.3-.1.6-.2.9-.2c.4 0 .7.1.9.2c.3.1.6.2.8.4c.2.2.3.4.4.6c.2.3.2.6.2.9c0 .3 0 .6-.1.8c-.1.2-.2.5-.3.7c-.2.2-.4.4-.5.6c-.2.2-.4.5-.7.7l-2 2c.1 0 .2 0 .4-.1h.4zm9.1-2.9c0 .7-.1 1.2-.2 1.7c-.2.5-.4.9-.6 1.2c-.3.4-.6.6-.9.7c-.3.2-.7.3-1.1.3c-.4 0-.7-.1-1.1-.3c-.3-.1-.6-.3-.8-.7c-.3-.3-.5-.7-.6-1.2c-.1-.5-.2-1-.2-1.7c0-.7.1-1.2.2-1.7c.1-.5.3-.9.6-1.2c.2-.3.5-.6.8-.7c.4-.2.7-.3 1.1-.3c.4 0 .8.1 1.1.3c.3.1.6.4.9.7c.2.3.4.7.6 1.2c.1.5.2 1 .2 1.7zm-1 0c0-.6 0-1.1-.1-1.5c-.1-.4-.2-.7-.4-.9c-.2-.3-.4-.4-.6-.5c-.2-.1-.4-.2-.7-.2c-.2 0-.4.1-.7.2c-.2.1-.4.2-.5.5c-.2.2-.3.5-.4.9c-.1.4-.2.9-.2 1.5c0 .6.1 1.1.2 1.5c.1.4.2.7.4.9c.1.3.3.5.5.6c.3.1.5.1.7.1c.3 0 .5 0 .7-.1c.2-.1.4-.3.6-.6c.2-.2.3-.5.4-.9c.1-.4.1-.9.1-1.5zm3.7 2.9h2.9v.8h-5v-.6s2.57-2.5 2.6-2.5c.2-.2.3-.4.5-.6c.2-.2.3-.4.4-.6c.2-.1.3-.3.3-.5c.1-.2.1-.4.1-.7c0-.4-.1-.7-.4-.9c-.2-.3-.6-.4-1-.4c-.2 0-.4.1-.5.1c-.2.1-.4.2-.5.3c-.2.2-.3.3-.3.5c-.1.2-.1.4-.1.6l-1-.2l.3-.9c.2-.2.3-.4.6-.6c.2-.2.4-.3.7-.4c.3-.1.6-.2.9-.2c.3 0 .6.1.9.2c.3.1.5.2.7.4c.2.2.4.4.5.6c.1.3.2.6.2.9c0 .3-.1.6-.2.8c0 .2-.2.5-.3.7c-.1.2-.3.4-.5.6c-.2.2-.4.5-.6.7l-2.1 2c.2 0 .3 0 .4-.1h.5zm7.1.1h1.5v.7h-4.1v-.7h1.7V21c.02.04-1.3 1.3-1.3 1.3l-.5-.6l2-1.8h.7v6.8zm9.2-.9v-3.1h-2.6v-.7h2.6v-1.1h-2.6v-.7h2.6v-1.1h.9v6.7h-.9zm-1.5-2.4l.1.7c-.7.2-1.4.3-2.1.3c-.6 0-1.3.1-1.9.1c-.04-.03-.7 0-.7 0v-4.8h.8v4.1c.6 0 1.3-.1 1.9-.1c.6-.1 1.2-.1 1.9-.3zm-2.7 3.9h5.3v.7H208v-2.8h.8v2.1zm13.7-8.3h.8v9.2h-.8V19zm-1.8 3.6v-3.4h.8v8.5h-.8v-4.4s-1.18-.02-1.2 0c0 .4-.1.8-.2 1.2c-.1.3-.2.7-.4.9c-.1.3-.3.4-.5.6c-.3.1-.5.2-.8.2c-.3 0-.6-.1-.8-.2c-.3-.2-.5-.4-.6-.7c-.2-.3-.3-.6-.4-1c-.1-.4-.2-.8-.2-1.3c0-.5.1-1 .2-1.3c.1-.4.2-.8.4-1c.1-.3.3-.5.6-.7c.2-.1.5-.2.8-.2c.3 0 .5.1.7.2c.3.1.5.3.6.6c.2.2.3.5.4.8c.1.4.2.8.2 1.2h1.2zm-3.1 2.8c.4 0 .6-.2.9-.6c.2-.5.3-1.1.3-1.8c0-.4-.1-.7-.1-1c-.1-.3-.2-.6-.3-.8c-.1-.2-.2-.3-.3-.5c-.2-.1-.3-.1-.5-.1c-.4 0-.7.2-.9.6c-.2.5-.3 1-.3 1.8c0 .7.1 1.3.3 1.8c.2.4.5.6.9.6zm14.4-3.6v.7h-6.2v-3.1h.8v2.4h5.4zm-7.3 1.9h8.3v.7h-8.3v-.7zm1.9 1.6v2h5.5v.7h-6.4v-2.7h.9zm14.2-3.7h1.8v-2.5h.9v6.7h-.9v-3.5h-1.8v-.7zm.6 2.1l-.5.7c-.5-.2-.9-.5-1.3-.8c-.4-.4-.7-.8-.9-1.3c-.2.5-.5 1-.9 1.4c-.4.4-.8.7-1.4.9l-.4-.7c.3-.1.6-.3.9-.5c.3-.2.5-.4.7-.7c.3-.2.4-.5.5-.8c.1-.3.2-.6.2-1v-.4h-2v-.7h4.8v.7h-2s.03.42 0 .4c0 .3.1.6.2.9c.1.3.3.5.4.8l.7.7c.3.2.6.3 1 .4zm-2.9 3.6h5.2v.7h-6.1v-2.8h.9v2.1zm13.3-8.3h.8v9.2h-.8V19zm-3.4.8s-.02 1.68 0 1.7c0 .4 0 .8.2 1.2c.1.4.3.8.5 1.2c.2.3.5.6.8.9c.3.3.6.5.9.6l-.5.7c-.5-.2-1-.6-1.4-1.1c-.4-.5-.7-1.1-.9-1.8c-.2.7-.6 1.3-1 1.9c-.4.5-.9.9-1.4 1.2l-.5-.7c.3-.2.6-.4.9-.7c.3-.2.6-.6.8-.9c.3-.4.4-.8.6-1.2c.1-.5.2-.9.2-1.3c-.05-.02 0-1.7 0-1.7h.8zm11.7.4v.6h-5.5v-.6h2.3v-1.1h.9v1.1h2.3zm.8-1.1h.9v9.1h-.9v-9.1zm-3.1 5.6v1c.4 0 .8-.1 1.3-.1c.4 0 .8-.1 1.3-.1v.6c-.5.1-1 .1-1.5.2c-.6 0-1.1.1-1.6.1h-1.5c-.4.1-.9.1-1.3.1l-.1-.7c.4 0 .8-.1 1.2-.1h1.3v-1c-.5 0-1-.2-1.3-.5c-.3-.3-.5-.7-.5-1.2c0-.2.1-.4.2-.6c.1-.3.3-.4.4-.6c.2-.1.5-.2.7-.3c.3-.1.6-.1.9-.1c.4 0 .7 0 .9.1c.3.1.5.2.7.3c.2.2.4.3.5.6c.1.2.1.4.1.6c0 .5-.1.9-.4 1.2c-.4.3-.8.5-1.3.5zm-1.9-1.7c0 .4.2.6.4.8c.3.2.6.3 1 .3c.5 0 .8-.1 1.1-.3c.2-.2.3-.4.3-.8c0-.3-.1-.5-.3-.7c-.3-.2-.6-.3-1.1-.3c-.4 0-.7.1-1 .3c-.2.2-.4.4-.4.7zm10.1.2v1h-.9v-1h.9zm11.1-1.8v.7h-1.4v2.5h-.8v-5.5h.8v2.3h1.4zm-3.9-1.8v4.3H269v-4.3h.8v1.4h2.6v-1.4h.8zm-.8 3.7v-1.6h-2.6v1.6h2.6zm-2.7 2.4v-.6h6v3.1h-.8v-2.5h-5.2zm16.5-4.3v.7h-1.3v2.4h-.9v-5.4h.9v2.3h1.3zm-3 1.6v.7c-.3.1-.7.1-1 .2c-.3 0-.7 0-1 .1h-2.3c0 .02-.7 0-.7 0v-2.6h3.2v-1.2h-3.2v-.7h4.1v2.5H279v1.3h2.2c.3 0 .6-.1 1-.1c.3-.1.6-.1 1-.2zm-4.1 5.1v-3.2h5.8v3.2h-5.8zm.8-2.5v1.8h4.2v-1.8h-4.2zm12.9-5.4v.6h-5.6v-.6h2.4v-1.1h.8v1.1h2.4zm.8-1.1h.8v9.1h-.8v-9.1zm-3.2 5.6v1c.4 0 .9-.1 1.3-.1c.4 0 .9-.1 1.3-.1l.1.6c-.6.1-1.1.1-1.6.2c-.5 0-1 .1-1.5.1h-1.5c-.5.1-.9.1-1.4.1l-.1-.7c.4 0 .8-.1 1.2-.1h1.4v-1c-.6 0-1-.2-1.3-.5c-.4-.3-.5-.7-.5-1.2c0-.2 0-.4.1-.6c.1-.3.3-.4.5-.6c.2-.1.4-.2.7-.3c.3-.1.6-.1.9-.1c.3 0 .6 0 .9.1c.2.1.5.2.7.3c.2.2.3.3.4.6c.1.2.2.4.2.6c0 .5-.2.9-.5 1.2c-.3.3-.7.5-1.3.5zm-1.8-1.7c0 .4.1.6.4.8c.2.2.6.3 1 .3c.4 0 .7-.1 1-.3c.3-.2.4-.4.4-.8c0-.3-.1-.5-.4-.7c-.3-.2-.6-.3-1-.3c-.4 0-.8.1-1 .3c-.3.2-.4.4-.4.7zm16.9-1.2v.7h-6.2v-3.1h6.2v.7h-5.4v1.7h5.4zm-7.3 1.6h8.3v.7h-8.3v-.7zm4.1 1.5c1 0 1.8.1 2.3.4c.6.3.9.7.9 1.2c0 .6-.3 1-.9 1.3c-.5.2-1.3.4-2.3.4c-.9 0-1.7-.2-2.2-.4c-.6-.3-.9-.7-.9-1.3c0-.5.3-.9.9-1.2c.5-.3 1.3-.4 2.2-.4zm0 2.6c.8 0 1.3-.1 1.7-.2c.4-.2.6-.4.6-.8c0-.3-.2-.5-.6-.7c-.4-.2-.9-.3-1.7-.3c-.7 0-1.2.1-1.6.3c-.4.2-.6.4-.6.7c0 .4.2.6.6.8c.4.1.9.2 1.6.2zm12.5-4.1l-.4.7c-.5-.2-1-.4-1.3-.7c-.4-.4-.7-.7-.9-1.2c-.2.5-.5.9-.9 1.3c-.4.3-.9.6-1.4.8l-.4-.7c.3-.1.6-.3.9-.4c.3-.2.5-.4.7-.6c.2-.3.4-.5.5-.8c.1-.3.2-.6.2-.9c-.04.04 0-.1 0-.1h-2.1v-.7h2.1V19h.8v1.1h2v.7h-2v.1c0 .3.1.6.2.8c.1.3.2.5.4.7c.2.3.4.5.7.6c.3.2.6.3.9.4zm1.8-2.1h1.3v.7h-1.3v2.4h-.9v-5.3h.9v2.2zm.1 4.2s-2.53.02-2.5 0c0 .3.1.5.3.7l.6.6c.3.2.6.3.9.4c.4.2.7.3 1.1.3l-.3.7c-.4-.1-.7-.2-1-.3c-.3-.1-.6-.2-.9-.4c-.2-.1-.5-.3-.7-.5c-.2-.2-.3-.4-.5-.6c-.2.4-.6.8-1.2 1.1c-.5.3-1.1.5-1.8.6l-.3-.6c.4 0 .7-.1 1.1-.3c.3-.1.6-.2.8-.4c.3-.2.5-.4.7-.6c.2-.2.3-.4.3-.7c-.01.02-2.6 0-2.6 0v-.6h6v.6zm10.5-2.8v.7h-1.5v4.8h-.8v-9.1h.8v3.6h1.5zm-6.1-3c.3 0 .6.1.9.3c.3.1.5.3.7.6c.3.3.4.6.5 1c.1.4.2.8.2 1.3c0 .5-.1 1-.2 1.4c-.1.3-.2.7-.5 1c-.2.2-.4.5-.7.6c-.3.2-.6.2-.9.2c-.3 0-.7 0-.9-.2c-.3-.1-.6-.4-.8-.6c-.2-.3-.3-.7-.4-1c-.2-.4-.2-.9-.2-1.4c0-.5 0-.9.2-1.3c.1-.4.2-.7.4-1c.2-.3.5-.5.8-.6c.2-.2.6-.3.9-.3zm0 5.7c.2 0 .4-.1.6-.2c.2-.1.3-.3.5-.5c.1-.2.2-.5.3-.8c.1-.3.1-.6.1-1c0-.3 0-.7-.1-1c-.1-.3-.2-.5-.3-.7c-.2-.2-.3-.4-.5-.5c-.2-.1-.4-.2-.6-.2c-.2 0-.4.1-.6.2c-.2.1-.4.3-.5.5c-.1.2-.2.4-.3.7c-.1.3-.1.7-.1 1c0 .4 0 .7.1 1c.1.3.2.6.3.8c.1.2.3.4.5.5c.2.1.4.2.6.2zm15.2-2.6v.6h-1.4v4.8h-.9V19h.9v3.8h1.4zm-8-2.8s4.21.02 4.2 0c0 .7-.1 1.3-.2 1.9c-.2.6-.4 1.2-.8 1.8c-.3.5-.7 1-1.2 1.5c-.6.5-1.2.9-1.9 1.3l-.5-.7c1.2-.6 2.1-1.3 2.7-2.2c.6-.8 1-1.8 1.1-2.9c-.02.01-3.4 0-3.4 0v-.7zm16.1 1.8v.7h-6.3v-3.1h.9v2.4h5.4zm-7.4 1.9h8.3v.7H337v-.7zm1.9 1.6v2h5.5v.7h-6.3v-2.7h.8z" stroke="none" fill="#111111"/></g><g id="Polygon127724"><path d="m4.7 4.4c-.5 0-.9 0-1.3-.1c-.4-.1-.8-.2-1.1-.3l-.6-.6c-.2-.2-.2-.5-.2-.8c0-.3 0-.5.2-.8c.2-.2.4-.4.6-.5c.3-.2.7-.3 1.1-.4c.4-.1.8-.1 1.3-.1c.5 0 .9 0 1.3.1c.4.1.7.2 1 .4c.3.1.5.3.6.5c.2.3.3.5.3.8c0 .3-.1.6-.3.8c-.1.2-.3.4-.6.6c-.3.1-.6.2-1 .3c-.4.1-.8.1-1.3.1zm0-3c-.4 0-.7.1-1 .1c-.3.1-.5.2-.7.3c-.2.1-.4.2-.5.3c-.1.2-.2.3-.2.5c0 .2.1.3.2.5c.1.1.3.3.5.4c.2.1.4.1.7.2c.3 0 .6.1 1 .1c.7 0 1.2-.1 1.7-.3c.4-.3.6-.5.6-.9c0-.4-.2-.6-.6-.8c-.4-.2-1-.4-1.7-.4zM.5 5.2h8.3v.7H5.2v1.8h-.9V5.9H.5v-.7zm1.9 1.6v2h5.5v.7H1.6V6.8h.8zm12.2-3.7h1.8V.6h.9v6.7h-.9V3.8h-1.8v-.7zm.5 2.1l-.4.7c-.5-.2-1-.5-1.3-.8c-.4-.4-.7-.8-.9-1.3c-.2.5-.5 1-.9 1.4c-.4.4-.9.7-1.4.9l-.4-.7c.3-.1.6-.3.9-.5c.3-.2.5-.4.7-.7c.2-.2.4-.5.5-.8c.1-.3.2-.6.2-1c-.04.03 0-.4 0-.4H10v-.7h4.9v.7h-2v.4c0 .3 0 .6.2.9c.1.3.2.5.4.8c.2.2.4.5.7.7c.3.2.6.3.9.4zm-2.8 3.6h5.2v.7h-6.1V6.7h.9v2.1zM25.9.5h.8v9.2h-.8V.5zm-1.8 3.6V.7h.8v8.5h-.8V4.8s-1.19-.02-1.2 0c0 .4-.1.8-.2 1.2c-.1.3-.2.7-.4.9c-.1.3-.3.4-.6.6c-.2.1-.5.2-.7.2c-.3 0-.6-.1-.8-.2c-.3-.2-.5-.4-.7-.7c-.1-.3-.3-.6-.3-1c-.1-.4-.2-.8-.2-1.3c0-.5.1-1 .2-1.3c0-.4.2-.8.3-1c.2-.3.4-.5.7-.7c.2-.1.5-.2.8-.2c.2 0 .5.1.7.2c.3.1.4.3.6.6c.2.2.3.5.4.8c.1.4.2.8.2 1.2h1.2zM21 6.9c.3 0 .6-.2.8-.6c.2-.5.4-1.1.4-1.8c0-.4-.1-.7-.1-1c-.1-.3-.2-.6-.3-.8c-.1-.2-.2-.3-.3-.5c-.2-.1-.4-.1-.5-.1c-.4 0-.7.2-.9.6c-.2.5-.3 1-.3 1.8c0 .7.1 1.3.3 1.8c.2.4.5.6.9.6zM37.1.5h.8v9.2h-.8V4.9h-1.3v4.3h-.8V.7h.8v3.5h1.3V.5zm-5.8 1.8s.01 4.44 0 4.4h1.6c.5-.1 1-.1 1.5-.2l.1.7c-.3 0-.6.1-.8.1c-.3 0-.5.1-.8.1h-1.8c-.01.04-.6 0-.6 0V1.7h3.4v.6h-2.6zm13.5-.6v.6h-5.4v-.6h2.2V.6h.9v1.1h2.3zm1.6 1.9h1.4v.7h-1.4v3.1h-.8V.6h.8v3zm-2.1.9c0 .3-.1.5-.2.7c-.1.3-.3.4-.4.6c-.2.1-.5.2-.7.3c-.3.1-.6.1-.9.1c-.4 0-.7 0-.9-.1c-.3-.1-.5-.2-.7-.3c-.2-.2-.4-.3-.5-.6c-.1-.2-.1-.4-.1-.7c0-.2 0-.5.1-.7c.1-.2.3-.3.5-.5c.2-.1.4-.3.7-.3c.2-.1.5-.2.9-.2c.3 0 .6.1.9.2c.2 0 .5.2.7.3c.1.2.3.3.4.5c.1.2.2.5.2.7zm-3.6 0c0 .4.1.6.3.8c.3.2.6.3 1.1.3c.4 0 .7-.1 1-.3c.2-.2.4-.4.4-.8c0-.3-.2-.5-.4-.7c-.3-.2-.6-.3-1-.3c-.5 0-.8.1-1.1.3c-.2.2-.3.4-.3.7zm.9 2.4v1.9h5.2v.7h-6.1V6.9h.9zm16.3-3v.7h-6.2V1.1h6v.7h-5.1v2.1h5.3zm1 1.9v.7h-3.8v3.1h-.8V6.5h-3.7v-.7h8.3zM66.5.5h.8v9.2h-.8V5.8h-1.9v-.7h1.9V3.3h-1.8v-.7h1.8V.5zm-5.6 4.1s.04 2.27 0 2.3c.7 0 1.3 0 2-.1c.6 0 1.2-.1 1.9-.2l.1.7c-.4 0-.8.1-1.1.1c-.3.1-.6.1-1 .1c-.3 0-.6 0-1 .1h-1c.01-.03-.7 0-.7 0V4h3.2v-2h-3.2v-.6h4v3.2h-3.2zm12.2-.5c-.5 0-.9 0-1.3-.1c-.4 0-.8-.2-1.1-.3c-.2-.1-.4-.3-.6-.5c-.1-.2-.2-.5-.2-.8c0-.2.1-.5.2-.7c.2-.2.4-.4.6-.5c.3-.2.7-.3 1.1-.4c.4 0 .8-.1 1.3-.1c.5 0 .9.1 1.3.1c.4.1.8.2 1 .4c.3.1.5.3.7.5c.1.2.2.5.2.7c0 .3-.1.6-.2.8c-.2.2-.4.4-.7.5c-.2.1-.6.3-1 .3c-.4.1-.8.1-1.3.1zm0-2.7c-.7 0-1.3.1-1.7.2c-.5.2-.7.5-.7.8c0 .4.2.6.7.8c.4.2 1 .3 1.7.3c.7 0 1.3-.1 1.7-.3c.4-.2.6-.4.6-.8c0-.3-.2-.6-.6-.8c-.4-.1-1-.2-1.7-.2zm4.1 4.1h-3.7v1.1h2.7v3H70v-3h2.7V5.5H69v-.7h8.2v.7zm-1.8 3.4V7.2h-4.6v1.7h4.6zm6.9-5c-1 0-1.8-.2-2.4-.4c-.6-.3-.8-.7-.8-1.2c0-.5.2-.9.8-1.2c.6-.3 1.4-.4 2.4-.4c1 0 1.8.1 2.3.4c.6.3.9.7.9 1.2c0 .5-.3.9-.9 1.2c-.5.2-1.3.4-2.3.4zm0-2.6c-.8 0-1.4.1-1.8.3c-.4.1-.6.4-.6.7c0 .3.2.5.6.7c.4.2 1 .2 1.8.2c.7 0 1.3 0 1.7-.2c.4-.2.6-.4.6-.7c0-.3-.2-.6-.6-.7c-.4-.2-1-.3-1.7-.3zm-4.2 3.2h8.3v.7h-8.3v-.7zM80 8v.9h5.6v.7h-6.4V7.4h5.3v-.8h-5.4v-.7h6.3v2.1H80zm16.4-3.6h1.3v.7h-8.3v-.7h6.2c.1-.6.1-1.1.2-1.6V1.7c.01-.04-5.3 0-5.3 0v-.7h6.1s.03.6 0 .6v1.2c0 .4-.1 1-.2 1.6zm-6.1 2.7v-.7h6.4v3.3h-.8V7.1h-5.6zm12.8-1.8h3.8v.6h-8.3v-.6h3.7V4.2h-2.6V.8h.8v1h4.4v-1h.9v3.4h-2.7v1.1zm-2.6-2.9v1.1h4.4V2.4h-4.4zm-1 5.1v-.7h6.3v2.9h-.8V7.5h-5.5zm16.8-3.2v.7h-1.5v4.7h-.8V.6h.8v3.7h1.5zM110.9.7v1.3h2.2v.7h-5.4v-.7h2.3V.7h.9zm-.5 2.7c.4 0 .7.1.9.2c.3.1.6.2.8.4c.2.2.3.4.4.7c.1.3.2.5.2.8c0 .4-.1.6-.2.9c-.1.3-.2.5-.4.7c-.2.2-.5.3-.8.4c-.2.1-.5.1-.9.1c-.3 0-.6 0-.8-.1c-.3-.1-.5-.2-.7-.4c-.2-.2-.4-.4-.5-.7c-.1-.3-.2-.5-.2-.9c0-.3.1-.5.2-.8c.1-.3.3-.5.5-.7c.2-.2.4-.3.7-.4c.2-.1.5-.2.8-.2zm0 3.6c.3 0 .4-.1.6-.2c.2 0 .4-.1.5-.2c.1-.2.2-.3.3-.5c0-.2.1-.3.1-.6c0-.2-.1-.3-.1-.5c-.1-.2-.2-.3-.3-.5c-.1-.1-.3-.2-.5-.3c-.2 0-.3-.1-.6-.1c-.2 0-.3.1-.5.1c-.2.1-.4.2-.5.3c-.1.2-.2.3-.3.5c0 .2-.1.3-.1.5c0 .3.1.4.1.6c.1.2.2.3.3.5c.1.1.3.2.5.2c.2.1.3.2.5.2zm13-4.6v-.3h-5.6v-.6h6.4s.04.87 0 .9v1.8c0 .4-.1.7-.1 1.1c-.1.4-.1.8-.2 1.3l-.8-.1c.1-.9.2-1.6.3-2.3V2.4zM121 7.7h4.2v.7H117v-.7h3.2V4.4h.8v3.3zm15.8-3.5v.7h-1.6v4.8h-.8V.6h.8v3.6h1.6zm-5.5-2s-.02 1.14 0 1.1c0 .4 0 .8.2 1.1c.1.4.3.8.5 1.1c.2.3.4.6.7.9c.3.3.6.5 1 .6l-.5.7c-.5-.2-1-.6-1.4-1.1c-.4-.5-.7-1.1-.9-1.7c-.1.3-.3.7-.4 1c-.2.3-.4.6-.6.8c-.2.3-.4.5-.6.7c-.3.2-.5.4-.8.5l-.4-.6c.3-.2.6-.4.9-.7c.3-.3.5-.6.7-1c.3-.3.4-.7.6-1.1c.1-.4.2-.8.2-1.2c-.04.04 0-1.1 0-1.1h-2.1v-.7h4.9v.7h-2zM144.9.5v6.8h-.8V.5h.8zm-2 4.6l-.4.7c-.6-.2-1-.5-1.4-.9c-.4-.4-.7-.9-.9-1.4c-.2.6-.5 1-.9 1.5c-.4.4-.8.7-1.4.9l-.4-.6c.3-.2.6-.3.9-.6c.3-.2.5-.4.7-.7c.2-.3.4-.6.5-1c.1-.3.2-.7.2-1c-.03-.02 0-.9 0-.9h.8s.01.88 0 .9c0 .3.1.7.2 1c.1.3.2.6.4.9c.2.2.5.5.8.7c.3.2.6.4.9.5zm-3.1 3.7h5.4v.7H139V6.6h.8v2.2zm15.2-6v.7h-1.3v2.2h-.9V.5h.9v2.3h1.3zm-8-1.7s4.18.02 4.2 0c0 .6-.1 1.1-.3 1.6c-.2.5-.5 1-.9 1.4c-.3.4-.8.7-1.3 1c-.5.3-1.1.5-1.8.7l-.3-.6c1.1-.3 2-.8 2.6-1.4c.6-.5 1-1.2 1.1-2c-.01.01-3.3 0-3.3 0v-.7zm.9 8.5V6.2h5.8v3.4h-5.8zm.8-2.8v2.1h4.1V6.8h-4.1zm14.6-5.2v.6h-5.4v-.6h2.2V.5h.9v1.1h2.3zm3 1.2h-1.4v1.3h1.4v.7h-1.4v1.6h-.8V.5h.8v1.6h1.4v.7zm-3.6 1.5c0 .3 0 .5-.1.7c-.1.2-.3.4-.5.5c-.2.1-.4.2-.7.3c-.2.1-.5.1-.9.1c-.3 0-.6 0-.8-.1c-.3-.1-.5-.2-.7-.3c-.2-.1-.4-.3-.5-.5c-.1-.2-.1-.4-.1-.7c0-.2 0-.5.1-.6c.1-.2.3-.4.5-.6c.2-.1.4-.2.7-.3c.2-.1.5-.1.8-.1c.4 0 .7 0 .9.1c.3.1.5.2.7.3c.2.2.4.4.5.6c.1.1.1.4.1.6zm-3.5 0c0 .3.1.6.3.7c.3.2.6.3 1 .3c.5 0 .8-.1 1.1-.3c.2-.1.3-.4.3-.7c0-.3-.1-.5-.3-.7c-.3-.2-.6-.3-1.1-.3c-.4 0-.7.1-1 .3c-.2.2-.3.4-.3.7zm2.9 2.2c.4 0 .8.1 1.2.1c.4.1.7.2.9.3c.3.2.5.3.6.5c.2.2.2.4.2.7c0 .3 0 .5-.2.7c-.1.2-.3.3-.6.5c-.2.1-.5.2-.9.3c-.4 0-.8.1-1.2.1c-1 0-1.7-.2-2.2-.4c-.6-.3-.8-.7-.8-1.2c0-.5.2-.9.8-1.2c.5-.2 1.2-.4 2.2-.4zm0 2.5c.6 0 1.2 0 1.5-.2c.4-.2.6-.4.6-.7c0-.3-.2-.5-.6-.7c-.3-.2-.9-.2-1.5-.2c-.7 0-1.3 0-1.6.2c-.4.2-.6.4-.6.7c0 .3.2.5.6.7c.3.2.9.2 1.6.2zm12-6.1h1.4v.7h-1.4v2.5h-.8V.6h.8v2.3zm-1.8 1.9l-.5.7c-.4-.2-.9-.5-1.3-.8c-.3-.4-.6-.8-.8-1.3c-.2.6-.5 1-.9 1.4c-.4.4-.9.7-1.4 1l-.4-.7c.3-.1.6-.3.9-.5c.3-.2.5-.5.7-.7c.2-.3.4-.6.5-.9c.1-.4.1-.7.1-1.1c.04.05 0-.9 0-.9h.9s-.03 1.02 0 1c0 .3 0 .6.1.9c.1.3.3.6.5.8c.2.3.4.5.7.7c.3.2.6.3.9.4zm-1.1 1.5c.5 0 .9.1 1.2.2c.4 0 .7.1 1 .3c.3.1.5.3.6.5c.1.2.2.5.2.7c0 .3-.1.5-.2.7c-.1.2-.3.4-.6.5c-.3.2-.6.3-1 .4c-.3 0-.7.1-1.2.1c-.9 0-1.7-.2-2.2-.5c-.6-.2-.8-.7-.8-1.2c0-.2 0-.5.2-.7c.1-.2.3-.4.6-.5c.2-.2.6-.3.9-.3c.4-.1.8-.2 1.3-.2zm0 2.7c.7 0 1.2-.1 1.6-.2c.4-.2.6-.5.6-.8c0-.3-.2-.6-.6-.7c-.4-.2-.9-.3-1.6-.3c-.7 0-1.2.1-1.6.3c-.4.1-.6.4-.6.7c0 .3.2.6.6.8c.4.1.9.2 1.6.2zm9.1-5.1c-1 0-1.8-.2-2.3-.4c-.6-.3-.9-.7-.9-1.2c0-.5.3-.9.9-1.2c.5-.3 1.3-.4 2.3-.4c1 0 1.8.1 2.4.4c.5.3.8.7.8 1.2c0 .5-.3.9-.8 1.2c-.6.2-1.4.4-2.4.4zm0-2.6c-.7 0-1.3.1-1.7.3c-.4.1-.6.4-.6.7c0 .3.2.5.6.7c.4.2 1 .2 1.7.2c.8 0 1.4 0 1.8-.2c.4-.2.6-.4.6-.7c0-.3-.2-.6-.6-.7c-.4-.2-1-.3-1.8-.3zm-4.1 3.2h8.3v.7h-8.3v-.7zM178 8v.9h5.7v.7h-6.5V7.4h5.4v-.8h-5.4v-.7h6.2v2.1H178zM194.1.6h.8v9.1h-.8V.6zm-3.4 1.6s.01 1.14 0 1.1c0 .4.1.8.2 1.2c.1.4.3.7.5 1.1c.2.3.5.6.8.8c.3.3.6.5 1 .6l-.5.7c-.5-.2-1-.6-1.4-1.1c-.5-.5-.8-1.1-1-1.7c-.1.3-.2.7-.4 1c-.2.3-.4.6-.6.8c-.2.3-.4.5-.6.7c-.3.2-.5.4-.8.5l-.5-.6c.4-.2.7-.4 1-.7c.3-.3.5-.6.8-.9c.2-.4.3-.8.5-1.2c.1-.4.2-.8.2-1.2c-.03.04 0-1.1 0-1.1h-2.1v-.7h5.1v.7h-2.2zm10.7 3.7h1.9V.5h.8v7h-.8v-.9h-1.9v-.7zm-1.8-1.8c-.4 0-.7 0-1-.1c-.2-.1-.5-.2-.7-.3c-.2-.2-.3-.3-.4-.5c-.1-.2-.2-.5-.2-.7c0-.2.1-.5.2-.7c.1-.2.2-.3.4-.5c.2-.1.5-.2.7-.3c.3-.1.6-.1 1-.1c.3 0 .6 0 .9.1c.2.1.5.2.7.3c.2.2.3.3.4.5c.2.2.2.5.2.7c0 .2 0 .5-.2.7c-.1.2-.2.3-.4.5c-.2.1-.5.2-.7.3c-.3.1-.6.1-.9.1zm0-2.6c-.5 0-.8.1-1.1.3c-.3.2-.4.4-.4.7c0 .3.1.5.4.7c.3.2.6.3 1.1.3c.4 0 .7-.1 1-.3c.3-.2.4-.4.4-.7c0-.3-.1-.5-.4-.7c-.3-.2-.6-.3-1-.3zm-.4 5.7s.03-1.78 0-1.8c-.4 0-.9.1-1.3.1h-1.2l-.1-.7h1.3c.5 0 1 0 1.5-.1h1.6c.5-.1 1-.1 1.5-.2v.6c-.4.1-.8.1-1.2.2c-.4 0-.8 0-1.2.1c-.04-.02 0 1.8 0 1.8h-.9zm-.5 1.6h5.6v.7h-6.4V6.8h.8v2zm15.7-4.5v.7h-1.5v4.7h-.9V.6h.9v3.7h1.5zM208.9.7v1.3h2.2v.7h-5.3v-.7h2.3V.7h.8zm-.4 2.7c.3 0 .6.1.9.2c.3.1.5.2.7.4c.2.2.3.4.5.7c.1.3.1.5.1.8c0 .4 0 .6-.1.9c-.2.3-.3.5-.5.7c-.2.2-.4.3-.7.4c-.3.1-.6.1-.9.1c-.3 0-.6 0-.9-.1c-.3-.1-.5-.2-.7-.4c-.2-.2-.4-.4-.5-.7c-.1-.3-.1-.5-.1-.9c0-.3 0-.5.1-.8c.1-.3.3-.5.5-.7c.2-.2.4-.3.7-.4c.3-.1.6-.2.9-.2zm0 3.6c.2 0 .4-.1.6-.2c.1 0 .3-.1.4-.2c.1-.2.2-.3.3-.5c.1-.2.1-.3.1-.6c0-.2 0-.3-.1-.5c-.1-.2-.2-.3-.3-.5c-.1-.1-.3-.2-.4-.3c-.2 0-.4-.1-.6-.1c-.2 0-.4.1-.6.1c-.2.1-.3.2-.4.3c-.2.2-.3.3-.3.5c-.1.2-.1.3-.1.5c0 .3 0 .4.1.6c0 .2.1.3.3.5c.1.1.2.2.4.2c.2.1.4.2.6.2zM221.7.5h.8v9.2h-.8V.5zm-6.2 1s4.31.03 4.3 0c0 .7-.1 1.3-.2 1.9c-.2.7-.4 1.2-.8 1.8c-.3.5-.8 1-1.3 1.5c-.5.5-1.2.9-1.9 1.3l-.5-.7c1.2-.6 2.2-1.3 2.8-2.2c.6-.8 1-1.8 1.1-2.9h-3.5v-.7zm17.4-.9h.9v9.1h-.9V.6zm-3.7 4.1c-.3 0-.6 0-.9-.1c-.3-.1-.5-.2-.7-.4c-.2-.2-.4-.3-.5-.6c-.1-.2-.2-.5-.2-.7c0-.3.1-.6.2-.8c.1-.2.3-.4.5-.6c.2-.2.4-.3.7-.4c.3-.1.6-.1.9-.1c.4 0 .7 0 1 .1c.3.1.5.2.7.4c.2.2.4.4.5.6c.1.2.2.5.2.8c0 .2-.1.5-.2.7c-.1.3-.3.4-.5.6c-.2.2-.4.3-.7.4c-.3.1-.6.1-1 .1zm0-3c-.4 0-.8.1-1.1.3c-.2.2-.4.5-.4.9c0 .3.2.6.4.8c.3.2.7.3 1.1.3c.5 0 .9-.1 1.1-.3c.3-.2.5-.5.5-.8c0-.4-.2-.7-.5-.9c-.2-.2-.6-.3-1.1-.3zm3.1 3.5v.6c-.8.2-1.7.3-2.6.3v3.3h-.8s-.03-3.24 0-3.2h-2.6l-.1-.7h2.9c.5-.1 1.1-.1 1.6-.1c.5-.1 1-.1 1.6-.2zm8.6-3.5v.6h-5.4v-.6h2.2V.6h.9v1.1h2.3zm1.6 1.9h1.4v.7h-1.4v3.1h-.8V.6h.8v3zm-2.2.9c0 .3 0 .5-.1.7c-.1.3-.3.4-.5.6c-.2.1-.4.2-.7.3c-.2.1-.5.1-.9.1c-.3 0-.6 0-.8-.1c-.3-.1-.5-.2-.7-.3c-.2-.2-.4-.3-.5-.6c-.1-.2-.1-.4-.1-.7c0-.2 0-.5.1-.7c.1-.2.3-.3.5-.5c.2-.1.4-.3.7-.3c.2-.1.5-.2.8-.2c.4 0 .7.1.9.2c.3 0 .5.2.7.3c.2.2.4.3.5.5c.1.2.1.5.1.7zm-3.5 0c0 .4.1.6.3.8c.3.2.6.3 1 .3c.5 0 .8-.1 1.1-.3c.2-.2.3-.4.3-.8c0-.3-.1-.5-.3-.7c-.3-.2-.6-.3-1.1-.3c-.4 0-.7.1-1 .3c-.2.2-.3.4-.3.7zm.9 2.4v1.9h5.2v.7h-6.1V6.9h.9zm17.5-2.6v.6h-1.5v4.8h-.8V.5h.8v3.8h1.5zm-8-2.8s4.16.02 4.2 0c0 .7-.1 1.3-.3 1.9c-.1.6-.4 1.2-.7 1.8c-.3.5-.8 1-1.3 1.5c-.5.5-1.2.9-1.9 1.3l-.5-.7c1.2-.6 2.2-1.3 2.8-2.2c.6-.8.9-1.8 1-2.9c.03.01-3.3 0-3.3 0v-.7zM263 2.9h1.3v.7H263v2.5h-.9V.6h.9v2.3zm-1.9 1.9l-.4.7c-.5-.2-.9-.5-1.3-.8c-.4-.4-.7-.8-.9-1.3c-.2.6-.5 1-.8 1.4c-.4.4-.9.7-1.4 1l-.5-.7c.4-.1.7-.3 1-.5l.7-.7c.2-.3.3-.6.4-.9c.1-.4.2-.7.2-1.1v-.9h.8s.04 1.02 0 1c0 .3.1.6.2.9c.1.3.3.6.5.8c.1.3.4.5.7.7c.2.2.5.3.8.4zm-1 1.5c.4 0 .8.1 1.2.2c.4 0 .7.1 1 .3c.2.1.4.3.6.5c.1.2.2.5.2.7c0 .3-.1.5-.2.7c-.2.2-.4.4-.6.5c-.3.2-.6.3-1 .4c-.4 0-.8.1-1.2.1c-1 0-1.7-.2-2.3-.5c-.5-.2-.8-.7-.8-1.2c0-.2.1-.5.2-.7c.2-.2.4-.4.6-.5c.3-.2.6-.3 1-.3c.4-.1.8-.2 1.3-.2zm0 2.7c.6 0 1.2-.1 1.6-.2c.3-.2.5-.5.5-.8c0-.3-.2-.6-.5-.7c-.4-.2-1-.3-1.6-.3c-.7 0-1.3.1-1.6.3c-.4.1-.6.4-.6.7c0 .3.2.6.6.8c.3.1.9.2 1.6.2zm11.2-4.6c-.5 0-1 0-1.4-.1c-.4-.1-.7-.2-1-.3c-.2-.2-.5-.4-.6-.6c-.2-.2-.2-.5-.2-.8c0-.3 0-.5.2-.8c.1-.2.4-.4.6-.5c.3-.2.6-.3 1-.4c.4-.1.9-.1 1.4-.1c.4 0 .9 0 1.3.1c.4.1.7.2 1 .4c.3.1.5.3.6.5c.2.3.3.5.3.8c0 .3-.1.6-.3.8c-.1.2-.3.4-.6.6c-.3.1-.6.2-1 .3c-.4.1-.9.1-1.3.1zm0-3c-.4 0-.7.1-1 .1c-.3.1-.5.2-.7.3c-.2.1-.4.2-.5.3c-.1.2-.2.3-.2.5c0 .2.1.3.2.5c.1.1.3.3.5.4c.2.1.4.1.7.2c.3 0 .6.1 1 .1c.7 0 1.2-.1 1.7-.3c.4-.3.6-.5.6-.9c0-.4-.2-.6-.6-.8c-.5-.2-1-.4-1.7-.4zm-4.2 3.8h8.3v.7h-3.6v1.8h-.9V5.9h-3.8v-.7zm1.9 1.6v2h5.5v.7h-6.3V6.8h.8zm12.2-3.7h1.8V.6h.8v6.7h-.8V3.8h-1.8v-.7zm.5 2.1l-.4.7c-.5-.2-1-.5-1.4-.8c-.3-.4-.6-.8-.8-1.3c-.2.5-.5 1-.9 1.4c-.4.4-.9.7-1.4.9l-.5-.7c.4-.1.7-.3 1-.5c.3-.2.5-.4.7-.7c.2-.2.4-.5.5-.8c.1-.3.1-.6.1-1c.04.03 0-.4 0-.4h-2v-.7h4.9v.7h-2s-.02.42 0 .4c0 .3 0 .6.1.9c.2.3.3.5.5.8c.2.2.4.5.7.7c.3.2.6.3.9.4zm-2.9 3.6h5.3v.7H278V6.7h.8v2.1zM292.5.5h.8v9.2h-.8V.5zm-1.9 3.7V.8h.8v8.4h-.8V4.8h-1.4v-.6h1.4zm-2.5-1.3s.05.46 0 .5c0 .3.1.7.2 1c.1.4.2.7.4 1.1c.1.3.3.6.6.8c.2.3.5.5.8.7l-.5.6c-.4-.2-.8-.6-1.1-1c-.3-.5-.6-1-.7-1.5c-.2.6-.4 1.1-.7 1.6c-.4.5-.7.8-1.2 1.1l-.5-.6c.3-.2.6-.4.8-.7c.3-.3.5-.6.6-.9c.2-.4.3-.7.4-1.1c.1-.4.2-.8.2-1.1c-.05-.04 0-.5 0-.5h-1.7v-.7h1.7V.9h.8v1.3h1.6v.7h-1.7zM300 1.5v.7h-5.3v-.7h2.2V.4h.8v1.1h2.3zm1.4-.9h.8v5.5h-.8V4h-1.6v-.7h1.6V.6zm-2 3.7c0 .2 0 .4-.1.6c-.1.2-.3.4-.5.6c-.1.1-.4.2-.6.3c-.3.1-.6.1-.9.1c-.3 0-.6 0-.8-.1c-.3-.1-.5-.2-.7-.3c-.2-.2-.3-.4-.4-.6c-.1-.2-.2-.4-.2-.6c0-.3.1-.5.2-.7c.1-.2.2-.4.4-.5c.2-.2.4-.3.7-.3c.2-.1.5-.2.8-.2c.3 0 .6.1.9.2c.2 0 .5.1.6.3c.2.1.4.3.5.5c.1.2.1.4.1.7zm-3.4 0c0 .3.1.5.4.7c.2.2.5.3.9.3c.4 0 .7-.1 1-.3c.2-.2.4-.4.4-.7c0-.3-.2-.6-.4-.8c-.3-.1-.6-.2-1-.2c-.4 0-.7.1-.9.2c-.3.2-.4.5-.4.8zm.3 5.3v-3h5.9v3h-5.9zm.8-2.4v1.7h4.3V7.2h-4.3zm11-1.9V2.1h-1.4v-.6h6.7v.6H312v3.2h1.4v.7h-6.7v-.7h1.4zm3.1 0V2.1h-2.3v3.2h2.3zm-5.3 2.5h8.3v.7h-8.3v-.7zm13.8.1h3.7v.7h-8.3v-.7h3.7V6.2h-2.7V3.3h5.5V1.9h-5.5v-.7h6.3v2.8H317v1.5h5.6v.7h-2.9v1.7zm10.9-5.5c.03.03 0-.2 0-.2h-5.4v-.7h6.3s-.04.93 0 .9v.9c-.1.3-.1.7-.1 1.1c0 .3 0 .7-.1 1.1c0 .4-.1.9-.2 1.4l-.8-.1c.1-.9.3-1.8.3-2.5V2.4zm-6.3 5.3h8.3v.7h-8.3v-.7zM340.4.5h.8v5.5h-.8V3.5h-1.2v2.4h-.8V.7h.8v2.2h1.2V.5zm-2.6 4.2l.1.6c-.3.1-.5.1-.8.2h-.8c-.3.1-.6.1-.9.1h-1.5V3h2.6V1.8h-2.6v-.7h3.4v2.5h-2.6v1.3h1.6c.5-.1 1-.1 1.5-.2zm-2.6 4.9V6.4h6v3.2h-6zm.8-2.5v1.8h4.4V7.1H336zm10.8-6c.5 0 .9.1 1.3.2c.4.1.8.3 1 .5c.3.2.6.5.7.8c.2.3.3.7.3 1c0 .4-.1.8-.3 1.1c-.1.3-.4.6-.7.8c-.2.2-.6.4-1 .5c-.4.1-.8.2-1.3.2c-.5 0-.9-.1-1.3-.2c-.4-.1-.8-.3-1.1-.5c-.3-.2-.5-.5-.7-.8c-.2-.3-.2-.7-.2-1.1c0-.3 0-.7.2-1c.2-.3.4-.6.7-.8c.3-.2.7-.4 1.1-.5c.4-.1.8-.2 1.3-.2zm0 .7c-.4 0-.7 0-1 .1c-.3.1-.6.2-.8.4c-.3.2-.4.4-.6.6c-.1.2-.2.5-.2.7c0 .3.1.6.2.8c.2.2.3.4.6.6c.2.1.5.3.8.4c.3 0 .6.1 1 .1c.3 0 .7-.1 1-.1c.3-.1.6-.3.8-.4c.2-.2.4-.4.5-.6c.1-.2.2-.5.2-.8c0-.2-.1-.5-.2-.7c-.1-.2-.3-.4-.5-.6c-.2-.2-.5-.3-.8-.4c-.3-.1-.7-.1-1-.1zm-4.2 6h8.4v.7h-8.4v-.7zm13.8.1h3.7v.7h-8.3v-.7h3.7V6.2h-2.6V3.3h5.4V1.9h-5.5v-.7h6.3v2.8h-5.4v1.5h5.6v.7h-2.9v1.7zm4.3 1.8l.3-2.1h1l-.7 2.1h-.6z" stroke="none" fill="#111111"/></g></svg>