<?xml version="1.0" standalone="no"?><!DOCTYPE svg PUBLIC "-//W3C//DTD SVG 1.1//EN" "http://www.w3.org/Graphics/SVG/1.1/DTD/svg11.dtd"><svg xmlns="http://www.w3.org/2000/svg" version="1.1" width="414.3px" height="26.8px" viewBox="0 -3 414.3 26.8" style="top:-3px"><desc>Hyundai Hope on Wheels</desc><defs/><g id="Polygon121353"><path d="m1.6 15V2.4h2v5.1h5.4V2.4h1.9V15H9V9.3H3.6v5.7h-2zm19.9-9.4l-4.6 13.3h-1.8l1.3-4l-3.7-9.3h2s1.76 4.82 1.8 4.8c.1.4.2.9.4 1.3c.1.5.3.9.4 1.4c.01-.04.1 0 .1 0l.7-2.7l1.5-4.8h1.9zm4.4 9.6c-1 0-1.8-.3-2.2-1c-.5-.6-.7-1.5-.7-2.7V5.6h2s-.04 5.65 0 5.7c0 .8.1 1.3.3 1.7c.3.3.7.5 1.2.5c.5 0 .8-.1 1.2-.3c.3-.3.7-.6 1.1-1.1c-.04 0 0-6.5 0-6.5h1.9v9.4h-1.6l-.1-1.5s-.08.05-.1 0c-.4.6-.9 1-1.4 1.2c-.4.3-1 .5-1.6.5zm7.7-.2V5.6h1.6l.1 1.3h.1c.4-.4.9-.8 1.4-1.1c.5-.3 1-.4 1.7-.4c1 0 1.7.3 2.2.9c.4.7.6 1.6.6 2.8c.04-.02 0 5.9 0 5.9h-1.9V9.3c0-.8-.1-1.4-.4-1.7c-.2-.4-.6-.5-1.2-.5c-.4 0-.8.1-1.1.3c-.4.2-.8.5-1.2.9c.01.03 0 6.7 0 6.7h-1.9zm13.7.2c-1.2 0-2.1-.4-2.8-1.3c-.7-.8-1-2-1-3.6c0-.8.1-1.5.3-2.1c.2-.6.5-1.1.9-1.5c.4-.4.8-.8 1.3-1c.5-.2 1-.3 1.5-.3c.5 0 1 .1 1.4.3c.3.1.7.4 1.1.7l-.1-1.5V1.4h2V15h-1.6l-.2-1.1s-.04.01 0 0c-.4.4-.8.7-1.3.9c-.4.3-.9.4-1.5.4zm.5-1.6c.8 0 1.5-.4 2.1-1.2V7.9c-.3-.4-.7-.6-1-.7c-.3-.1-.7-.2-1-.2c-.4 0-.7.1-1 .2c-.2.2-.5.4-.7.7c-.2.3-.4.6-.5 1c-.1.4-.2.9-.2 1.4c0 1 .2 1.8.6 2.4c.4.6 1 .9 1.7.9zm9.1 1.6c-.4 0-.7-.1-1.1-.2c-.3-.1-.6-.3-.8-.5c-.3-.3-.5-.6-.6-.9c-.2-.3-.2-.7-.2-1.1c0-.5.1-1 .3-1.5c.2-.5.5-.9 1-1.2c.5-.2 1.1-.4 1.8-.5c.7-.1 1.5-.2 2.5-.3c0-.3-.1-.5-.1-.8l-.3-.6c-.1-.2-.3-.4-.6-.5c-.2-.1-.5-.1-.8-.1c-.5 0-1 .1-1.5.3c-.5.2-.9.4-1.3.7l-.6-1.5c.5-.3 1-.5 1.7-.8c.6-.2 1.3-.3 2-.3c1.2 0 2.1.3 2.6 1c.6.7.8 1.7.8 2.9c.03.03 0 5.7 0 5.7h-1.6l-.1-1.1s-.09.04-.1 0c-.4.4-.9.7-1.4.9c-.5.3-1 .4-1.6.4zm.6-1.6c.4 0 .8-.1 1.2-.2c.3-.2.7-.5 1.1-.8v-2.3c-.5 0-.9.1-1.2.1c-.4.1-.7.1-.9.1c-.3.1-.5.2-.7.2c-.2.1-.4.2-.5.4c-.3.2-.4.4-.4.6v.6c0 .5.1.9.4 1c.3.2.6.3 1 .3zm6.7-12h2v2.2h-2V1.6zM66.1 15h-1.9V5.6h1.9v9.4zm6.5 0V2.4h2v5.1h5.4V2.4h1.9V15H80V9.3h-5.4v5.7h-2zm16.1.2c-.6 0-1.1-.1-1.7-.4c-.5-.2-1-.5-1.4-.9c-.4-.4-.7-.9-.9-1.5c-.3-.6-.4-1.3-.4-2.1c0-.8.1-1.5.4-2.1c.2-.6.5-1.1.9-1.5c.4-.5.9-.8 1.4-1c.6-.2 1.1-.3 1.7-.3c.6 0 1.1.1 1.7.3c.5.2 1 .5 1.4 1c.4.4.7.9.9 1.5c.3.6.4 1.3.4 2.1c0 .8-.1 1.5-.4 2.1c-.2.6-.5 1.1-.9 1.5c-.4.4-.9.7-1.4.9c-.6.3-1.1.4-1.7.4zm0-1.6c.7 0 1.3-.3 1.7-.9c.5-.6.7-1.4.7-2.4c0-1-.2-1.8-.7-2.4c-.4-.6-1-.9-1.7-.9c-.8 0-1.3.3-1.8.9c-.4.6-.6 1.4-.6 2.4c0 1 .2 1.8.7 2.4c.4.6 1 .9 1.7.9zm6.6 5.2V5.6h1.6l.2 1s0 .03 0 0c.4-.3.9-.6 1.4-.9c.4-.2 1-.3 1.5-.3c.6 0 1.1.1 1.6.3c.4.2.8.6 1.1 1c.3.4.6.9.7 1.5c.2.6.3 1.2.3 1.9c0 .8-.1 1.5-.3 2.2c-.3.6-.6 1.1-.9 1.6c-.4.4-.8.7-1.3.9c-.5.3-1 .4-1.5.4c-.5 0-.9-.1-1.3-.3c-.4-.2-.8-.4-1.2-.8v4.7h-1.9zm4-5.2c.7 0 1.2-.3 1.7-.9c.4-.6.7-1.4.7-2.5c0-1-.2-1.8-.6-2.4c-.3-.5-.9-.8-1.6-.8c-.4 0-.8.1-1.1.3c-.4.2-.8.5-1.2.8v4.6c.4.3.8.6 1.1.7c.4.1.7.2 1 .2zm10.5 1.6c-.6 0-1.2-.1-1.8-.4c-.5-.2-1-.5-1.4-.9c-.4-.4-.8-.9-1-1.5c-.2-.6-.4-1.3-.4-2.1c0-.8.2-1.5.4-2.1c.2-.6.6-1.1 1-1.5c.4-.4.8-.8 1.3-1c.5-.2 1.1-.3 1.6-.3c.6 0 1.2.1 1.7.3c.4.2.8.5 1.1.9c.4.4.6.8.8 1.4c.1.5.2 1.1.2 1.8v.6c0 .1 0 .3-.1.4h-6c0 .9.3 1.6.9 2.1c.5.5 1.1.8 2 .8c.4 0 .8-.1 1.1-.2c.4-.1.7-.3 1.1-.5l.7 1.2c-.5.3-.9.5-1.5.7c-.5.2-1.1.3-1.7.3zm-2.7-5.7h4.5c0-.9-.1-1.5-.5-1.9c-.4-.5-.9-.7-1.6-.7c-.2 0-.5.1-.8.2c-.3.1-.5.2-.7.5c-.2.2-.4.4-.6.8c-.1.3-.2.6-.3 1.1zm15.8 5.7c-.6 0-1.1-.1-1.7-.4c-.5-.2-1-.5-1.4-.9c-.4-.4-.7-.9-.9-1.5c-.3-.6-.4-1.3-.4-2.1c0-.8.1-1.5.4-2.1c.2-.6.5-1.1.9-1.5c.4-.5.9-.8 1.4-1c.6-.2 1.1-.3 1.7-.3c.6 0 1.1.1 1.7.3c.5.2 1 .5 1.4 1c.4.4.7.9.9 1.5c.3.6.4 1.3.4 2.1c0 .8-.1 1.5-.4 2.1c-.2.6-.5 1.1-.9 1.5c-.4.4-.9.7-1.4.9c-.6.3-1.1.4-1.7.4zm0-1.6c.8 0 1.3-.3 1.8-.9c.4-.6.6-1.4.6-2.4c0-1-.2-1.8-.6-2.4c-.5-.6-1-.9-1.8-.9c-.7 0-1.3.3-1.7.9c-.5.6-.7 1.4-.7 2.4c0 1 .2 1.8.7 2.4c.4.6 1 .9 1.7.9zm6.6 1.4V5.6h1.6l.2 1.3s.01 0 0 0c.4-.4.9-.8 1.4-1.1c.5-.3 1.1-.4 1.7-.4c1 0 1.7.3 2.2.9c.4.7.7 1.6.7 2.8c-.03-.02 0 5.9 0 5.9h-2s.02-5.68 0-5.7c0-.8-.1-1.4-.4-1.7c-.2-.4-.6-.5-1.2-.5c-.4 0-.8.1-1.1.3c-.4.2-.7.5-1.2.9c.04.03 0 6.7 0 6.7h-1.9zm15.7 0l-2.5-12.6h2l1.2 6.6l.6 4s.11-.03.1 0c.1-.7.3-1.4.4-2c.2-.7.3-1.4.5-2c-.04-.04 1.6-6.6 1.6-6.6h1.7s1.64 6.56 1.6 6.6c.2.6.3 1.3.5 1.9c.1.7.2 1.4.4 2.1h.1l.3-2.1l.3-1.9l1.2-6.6h1.9L154.6 15h-2.4l-1.7-7l-.3-1.5c-.1-.4-.2-.9-.3-1.4h-.1c-.1.5-.1 1-.2 1.4l-.3 1.5c-.04.01-1.7 7-1.7 7h-2.4zm13.7 0V1.4h1.9v3.6s-.05 1.85 0 1.9c.4-.4.8-.8 1.3-1.1c.5-.3 1-.4 1.7-.4c1 0 1.7.3 2.2.9c.4.7.6 1.6.6 2.8c.05-.02 0 5.9 0 5.9h-1.9V9.3c0-.8-.1-1.4-.4-1.7c-.2-.4-.6-.5-1.2-.5c-.4 0-.8.1-1.1.3c-.4.2-.8.5-1.2.9c.02.03 0 6.7 0 6.7h-1.9zm14.3.2c-.6 0-1.2-.1-1.8-.4c-.5-.2-1-.5-1.4-.9c-.4-.4-.7-.9-1-1.5c-.2-.6-.3-1.3-.3-2.1c0-.8.1-1.5.3-2.1c.3-.6.6-1.1 1-1.5c.4-.4.8-.8 1.3-1c.6-.2 1.1-.3 1.6-.3c.7 0 1.2.1 1.7.3c.4.2.8.5 1.2.9c.3.4.5.8.7 1.4c.2.5.2 1.1.2 1.8v1h-6.1c.1.9.4 1.6.9 2.1c.5.5 1.2.8 2 .8c.4 0 .8-.1 1.2-.2c.3-.1.7-.3 1-.5l.7 1.2c-.4.3-.9.5-1.5.7c-.5.2-1.1.3-1.7.3zm-2.6-5.7h4.5c0-.9-.2-1.5-.6-1.9c-.3-.5-.8-.7-1.5-.7c-.3 0-.6.1-.9.2c-.2.1-.5.2-.7.5c-.2.2-.4.4-.5.8c-.2.3-.3.6-.3 1.1zm12.1 5.7c-.6 0-1.2-.1-1.7-.4c-.6-.2-1.1-.5-1.5-.9c-.4-.4-.7-.9-1-1.5c-.2-.6-.3-1.3-.3-2.1c0-.8.1-1.5.3-2.1c.3-.6.6-1.1 1-1.5c.4-.4.9-.8 1.4-1c.5-.2 1-.3 1.6-.3c.6 0 1.1.1 1.6.3c.5.2.9.5 1.2.9c.3.4.6.8.7 1.4c.2.5.3 1.1.3 1.8c0 .2 0 .4-.1.6v.4h-6.1c.1.9.4 1.6.9 2.1c.5.5 1.2.8 2 .8c.4 0 .8-.1 1.2-.2c.3-.1.7-.3 1-.5l.7 1.2c-.4.3-.9.5-1.4.7c-.6.2-1.1.3-1.8.3zm-2.6-5.7h4.5c0-.9-.2-1.5-.6-1.9c-.3-.5-.8-.7-1.5-.7c-.3 0-.6.1-.8.2c-.3.1-.6.2-.8.5c-.2.2-.4.4-.5.8c-.2.3-.3.6-.3 1.1zm8.2 5.5V1.4h1.9V15h-1.9zm7.2.2c-.7 0-1.3-.1-1.9-.4c-.6-.2-1.2-.5-1.6-.9l.9-1.3c.4.4.8.6 1.2.8c.5.2.9.3 1.4.3c.6 0 1-.1 1.3-.4c.3-.2.4-.5.4-.9c0-.2-.1-.4-.2-.5c-.1-.2-.3-.3-.5-.4c-.2-.2-.4-.3-.6-.4c-.3-.1-.5-.2-.8-.3c-.3-.1-.6-.2-.9-.4c-.3-.1-.6-.3-.9-.5c-.2-.2-.5-.5-.6-.8c-.2-.3-.3-.6-.3-1c0-.4.1-.8.3-1.1c.1-.3.3-.6.6-.8c.3-.3.7-.5 1.1-.6c.4-.2.8-.2 1.4-.2c.6 0 1.2.1 1.7.3c.5.2.9.5 1.3.8l-.9 1.2c-.4-.3-.7-.4-1-.6c-.4-.2-.7-.2-1.1-.2c-.5 0-.9.1-1.1.3c-.3.2-.4.5-.4.8c0 .2 0 .4.2.5c.1.2.2.3.4.4l.6.3c.3.1.5.2.8.3c.3.1.6.3 1 .4c.3.2.6.3.8.5c.3.3.5.5.7.8c.2.3.2.7.2 1.1c0 .4 0 .8-.2 1.1c-.1.4-.4.7-.7.9c-.3.3-.6.5-1.1.7c-.4.1-.9.2-1.5.2z" stroke="none" fill="#111111"/></g></svg>