<?xml version="1.0" standalone="no"?><!DOCTYPE svg PUBLIC "-//W3C//DTD SVG 1.1//EN" "http://www.w3.org/Graphics/SVG/1.1/DTD/svg11.dtd"><svg xmlns="http://www.w3.org/2000/svg" version="1.1" width="162px" height="19.6px" viewBox="0 -2 162 19.6" style="top:-2px"><desc>테이트 미술관 파트너십</desc><defs/><g id="Polygon114997"><path d="m8.5.5h1.5v11.1H8.5V.5zM6.2 4.6V.7h1.5v10.4H6.2V5.8H5V4.6h1.2zM2.3 6s.04 1.88 0 1.9c.6 0 1.1 0 1.6-.1c.5 0 .9-.1 1.5-.1l.1 1.2c-.3.1-.6.1-.9.1c-.3.1-.6.1-.9.1c-.3 0-.7 0-1 .1H1.6c0-.04-.8 0-.8 0V1.8h4.1v1.2H2.3v1.7h2.2v1.3H2.3zM19.1.5h1.6v11.1h-1.6V.5zm-4.4.8c.4 0 .8.1 1.2.3c.3.2.6.4.9.8c.2.3.4.7.6 1.2c.1.5.2 1 .2 1.6c0 .7-.1 1.2-.2 1.7c-.2.5-.4.9-.6 1.2c-.3.4-.6.6-.9.8c-.4.2-.8.3-1.2.3c-.4 0-.8-.1-1.1-.3c-.4-.2-.7-.4-1-.8c-.2-.3-.4-.7-.6-1.2c-.1-.5-.2-1-.2-1.7c0-.6.1-1.1.2-1.6c.2-.5.4-.9.6-1.2c.3-.4.6-.6 1-.8c.3-.2.7-.3 1.1-.3zm0 1.4c-.4 0-.7.2-1 .7c-.2.4-.4 1-.4 1.8c0 .9.2 1.5.4 1.9c.3.5.6.7 1 .7c.4 0 .8-.2 1-.7c.3-.4.4-1 .4-1.9c0-.8-.1-1.4-.4-1.8c-.2-.5-.6-.7-1-.7zm16.7 3.5v1.3h-7.7V1.3h7.6v1.3h-6v1.2h5.8v1.2h-5.8v1.2h6.1zM22.5 9h10v1.3h-10V9zM43.7.5h1.6v11.1h-1.6V.5zm-7 1h5.3v7.5h-5.3V1.5zm3.7 1.3h-2.2v4.9h2.2V2.8zm16.2.4l-.5 1.2c-1-.1-1.8-.3-2.5-.6c-.6-.4-1.1-.8-1.5-1.3c-.4.5-.9.9-1.5 1.3c-.7.3-1.5.5-2.5.6l-.5-1.2c.6 0 1.2-.1 1.6-.3c.5-.2.9-.3 1.2-.6c.3-.2.5-.4.6-.7c.2-.3.3-.5.3-.8c-.02 0 0-.2 0-.2h1.6v.2c0 .3.1.5.2.8c.2.3.4.5.7.7c.3.3.7.4 1.2.6c.4.2 1 .3 1.6.3zm.5 2.9h-4.2v.7h3v2.9h-6.1v.6h6.4v1.2h-7.9V8.6h6v-.6h-6.1V6.8h3.1v-.7h-4.2V4.9h10v1.2zm9.8-2.2h1.3v1.3h-1.3v3.6h-1.6V.5h1.6v3.4zM64 5.3l-1.6-.2c.1-.5.2-1 .2-1.4c0-.4.1-.8.1-1.1h-4.1V1.3h5.6s.04.73 0 .7v1.4c0 .6-.1 1.2-.2 1.9zm.7.4l.1 1.2c-.6.1-1.1.1-1.7.2c-.6.1-1.2.1-1.8.1c-.6.1-1.2.1-1.7.1h-1.5c-.03.03-.2-1.2-.2-1.2c0 0 1-.03 1 0h1c.04-.04 0-2.2 0-2.2h1.6v2.1c.5 0 1.1-.1 1.6-.1c.6 0 1.1-.1 1.6-.2zm-3.6 2.4v2h6.1v1.3h-7.7V8.1h1.6zM82 4.7v1.3h-1.6v5.6h-1.6v-11h1.6v4.1h1.6zm-5-1.9s.02 4.8 0 4.8c.2 0 .4 0 .7-.1h.6l.1 1.1l-1.7.3c-.6 0-1.2.1-1.8.1c-.5 0-1.1 0-1.6.1h-1.6c.05-.03-.1-1.3-.1-1.3h1.2v-5h-.9V1.6h6.1v1.2h-1zm-2.6 0s-.05 4.94 0 4.9h1.1V2.8h-1.1zm17.2 3.4v1.3h-7.7V1.3h7.7v1.3h-6.1v1.2h5.8v1.2h-5.8v1.2h6.1zM82.7 9h10v1.3h-10V9zM101.4.5h1.6v11.1h-1.6V5.2h-3V3.9h3V.5zm-5.6 1.2s.02 6 0 6c.7 0 1.4-.1 2.1-.1l2.2-.3l.2 1.3c-.9.2-1.8.3-2.6.3c-.9.1-1.7.1-2.5.1c-.02.02-1 0-1 0V1.7h1.6zM112.2.5h1.6v6h-1.6v-6zm-.8 4.5l-.7 1.2c-.6-.2-1.2-.4-1.6-.8c-.4-.4-.8-.8-1-1.3c-.3.6-.6 1-1.1 1.4c-.4.4-1 .7-1.6.9l-.8-1.2c.5-.2.9-.3 1.2-.6c.3-.2.6-.5.8-.8c.2-.3.4-.6.5-.9c.1-.3.2-.7.2-1c-.04-.02 0-1 0-1h1.6s-.04.98 0 1c0 .3 0 .6.1 1c.1.3.3.6.5.8c.2.3.5.6.8.8c.3.2.7.4 1.1.5zm.9 3v-1h1.5v4.5h-7.3V7h1.6v1h4.2zm0 2.2v-1h-4.2v1h4.2z" stroke="none" fill="#fff"/></g></svg>