<?xml version="1.0" standalone="no"?><!DOCTYPE svg PUBLIC "-//W3C//DTD SVG 1.1//EN" "http://www.w3.org/Graphics/SVG/1.1/DTD/svg11.dtd"><svg xmlns="http://www.w3.org/2000/svg" version="1.1" width="409.3px" height="26.8px" viewBox="0 -3 409.3 26.8" style="top:-3px"><desc>아이오닉 포레스트 조성 사업</desc><defs/><g id="Polygon115350"><path d="m15.1 6.9v1.5h-2.3v7.9H11V.9h1.8v6h2.3zM4.9 2c.6 0 1.2.2 1.6.4c.5.3.9.6 1.3 1.1c.3.5.6 1.1.8 1.7c.2.7.3 1.4.3 2.3c0 .8-.1 1.5-.3 2.2c-.2.7-.5 1.2-.8 1.7c-.4.5-.8.8-1.3 1.1c-.4.2-1 .4-1.6.4c-.5 0-1.1-.2-1.5-.4c-.5-.3-.9-.6-1.3-1.1c-.3-.5-.6-1-.8-1.7C1.1 9 1 8.3 1 7.5c0-.9.1-1.6.3-2.3c.2-.6.5-1.2.8-1.7c.4-.5.8-.8 1.3-1.1c.4-.2 1-.4 1.5-.4zm0 9.3c.7 0 1.3-.3 1.7-1c.4-.7.6-1.6.6-2.8c0-1.2-.2-2.2-.6-2.9c-.4-.6-1-1-1.7-1c-.6 0-1.2.4-1.6 1c-.4.7-.6 1.7-.6 2.9c0 1.2.2 2.1.6 2.8c.4.7 1 1 1.6 1zM27.3.9h1.8v15.4h-1.8V.9zM20.9 2c.6 0 1.1.2 1.6.4c.4.3.9.6 1.2 1.1c.4.5.6 1 .8 1.7c.2.7.3 1.4.3 2.2c0 .9-.1 1.6-.3 2.3c-.2.7-.4 1.2-.8 1.7c-.3.5-.8.8-1.2 1.1c-.5.2-1 .4-1.6.4c-.6 0-1.1-.2-1.6-.4c-.5-.3-.9-.6-1.2-1.1c-.4-.5-.7-1-.9-1.7c-.2-.7-.3-1.4-.3-2.3c0-.8.1-1.5.3-2.2c.2-.7.5-1.2.9-1.7c.3-.5.7-.8 1.2-1.1c.5-.2 1-.4 1.6-.4zm0 1.6c-.7 0-1.3.4-1.7 1c-.4.7-.6 1.6-.6 2.8c0 1.3.2 2.2.6 2.9c.4.7 1 1 1.7 1c.7 0 1.2-.3 1.6-1c.4-.7.7-1.6.7-2.9c0-1.2-.3-2.1-.7-2.8c-.4-.6-.9-1-1.6-1zM39.8 13h6.1v1.4H32V13h6s.03-2.99 0-3c-.7-.1-1.3-.2-1.9-.4c-.6-.2-1.1-.5-1.5-.9c-.4-.3-.8-.7-1-1.2c-.2-.5-.3-1-.3-1.6c0-.6.1-1.2.4-1.7c.3-.5.7-.9 1.2-1.3c.5-.3 1.1-.6 1.8-.8c.6-.2 1.4-.3 2.2-.3c.8 0 1.6.1 2.3.3c.7.2 1.2.5 1.8.8c.5.4.8.8 1.1 1.3c.3.5.5 1.1.5 1.7c0 .6-.2 1.1-.4 1.6c-.2.5-.6.9-1 1.2c-.4.4-.9.7-1.5.9c-.6.2-1.2.4-1.9.4c-.02.03 0 3 0 3zM35 5.9c0 .5.1.8.3 1.2c.2.3.4.6.8.8c.3.3.7.4 1.2.6c.5.1 1 .2 1.6.2c.6 0 1.1-.1 1.6-.2c.5-.2.9-.3 1.2-.6c.4-.2.7-.5.9-.8c.1-.4.2-.7.2-1.2c0-.4-.1-.8-.2-1.1c-.2-.3-.5-.6-.9-.9c-.3-.2-.7-.4-1.2-.5c-.5-.1-1-.2-1.6-.2c-.6 0-1.1.1-1.6.2c-.5.1-.9.3-1.2.5c-.4.3-.6.6-.8.9c-.2.3-.3.7-.3 1.1zm23.4-5h1.8v8.8h-1.8V.9zm-1.5 5.7l.3 1.4c-1.4.3-2.7.5-3.9.6c-1.2.1-2.4.1-3.6.1h-1.3V1.8h1.8v5.5c1.1-.1 2.2-.1 3.3-.2c1.1-.1 2.2-.3 3.4-.5zm-7.1 5.3v-1.4h10.4v5.8h-1.8v-4.4h-8.6zM74.6 13h6.1v1.5H66.8V13h6V9.8H68V8.4h2.2V3.7h-2.3V2.3h11.6v1.4h-2.3v4.7h2.3v1.4h-4.9v3.2zM72 3.7v4.7h3.5V3.7H72zM93.8.9h1.7v15.4h-1.7V.9zm-3.1 5.4v-5h1.6v14.2h-1.6V7.7h-1.8V6.3h1.8zm-6.2 1.8s.02 3.04 0 3c.8 0 1.6 0 2.4-.1c.8 0 1.6-.1 2.6-.3l.1 1.5c-1 .2-2 .3-2.9.3c-.9.1-1.8.1-2.8.1c-.01-.02-1.1 0-1.1 0V6.7h3.8V3.9h-3.8V2.5h5.5v5.6h-3.8zm26.7.3l-.7 1.5c-.7-.2-1.3-.4-1.8-.6c-.6-.3-1.1-.6-1.6-1c-.5-.3-1-.7-1.3-1.2c-.4-.4-.7-.9-1-1.5c-.2.6-.6 1.1-.9 1.5c-.4.5-.9.9-1.4 1.2c-.5.4-1 .7-1.6 1c-.5.2-1.1.4-1.8.6l-.7-1.5c.8-.1 1.5-.4 2.1-.7c.7-.4 1.3-.8 1.8-1.3c.5-.4.9-1 1.2-1.6c.2-.5.4-1.1.4-1.7V1.9h1.8s.04 1.16 0 1.2c0 .6.2 1.2.5 1.8c.3.5.7 1.1 1.2 1.6c.5.4 1 .8 1.7 1.2c.7.3 1.4.6 2.1.7zm-13.3 4.5h13.9v1.4H97.9v-1.4zM125.8 9v1.4h-10.6V2.2h10.5v1.4H117v1.9h8.4v1.4H117v2.1h8.8zm-12.3 4h13.9v1.4h-13.9V13zm20.6-3l-.8-1.4c.8-.2 1.5-.4 2.2-.7c.6-.3 1.2-.7 1.7-1.1c.5-.4.9-.9 1.1-1.5c.3-.5.5-1.1.5-1.6c-.03-.04 0-.1 0-.1h-4.9V2.2h11.6v1.4h-4.9v.1c0 .5.2 1.1.4 1.6c.3.6.7 1 1.2 1.5c.5.4 1.1.8 1.8 1.1c.6.3 1.3.5 2.1.6l-.7 1.4c-1.3-.2-2.5-.7-3.5-1.4c-1-.6-1.7-1.5-2.2-2.4c-.5.9-1.3 1.8-2.2 2.5c-1 .6-2.2 1.1-3.4 1.4zm6.5 3h6.1v1.4h-13.9V13h6V9.4h1.8v3.6zm18.7-3V5.4h-3.1V4h3.1V.9h1.7v9.1h-1.7zm-1.9-2l-.9 1.4c-.8-.3-1.6-.8-2.1-1.3c-.6-.6-1.1-1.2-1.4-2c-.4.9-.8 1.6-1.5 2.2c-.6.7-1.4 1.2-2.3 1.5l-1-1.4c.7-.2 1.2-.5 1.7-.8l1.2-1.2c.3-.5.5-1 .7-1.5c.2-.6.2-1.1.2-1.7c.05.05 0-1.5 0-1.5h1.8s.02 1.46 0 1.5c0 .5.1 1 .3 1.5c.1.5.3 1 .7 1.4c.3.4.6.8 1.1 1.1c.4.3.9.6 1.5.8zm-1.5 2.4c.8 0 1.5.1 2.2.2c.6.1 1.2.3 1.6.6c.5.2.8.5 1 .9c.3.3.4.8.4 1.2c0 .5-.1.9-.4 1.3c-.2.3-.5.6-1 .9c-.4.3-1 .4-1.6.6c-.7.1-1.4.2-2.2.2c-.8 0-1.5-.1-2.1-.2c-.7-.2-1.2-.3-1.7-.6c-.4-.3-.8-.6-1-.9c-.2-.4-.4-.8-.4-1.3c0-.4.2-.9.4-1.2c.2-.4.6-.7 1-.9c.5-.3 1-.5 1.7-.6c.6-.1 1.3-.2 2.1-.2zm0 4.5c1.1 0 2-.1 2.5-.4c.6-.3.9-.7.9-1.2c0-.5-.3-.9-.9-1.1c-.5-.3-1.4-.4-2.5-.4c-1.1 0-1.9.1-2.5.4c-.6.2-.9.6-.9 1.1c0 .5.3.9.9 1.2c.6.3 1.4.4 2.5.4zm26-7.9v1.4h-2.4v7.9h-1.8V.9h1.8v6.1h2.4zM173 2.2s-.04 2.51 0 2.5c0 .7 0 1.4.2 2c.2.7.4 1.3.8 1.9c.3.6.7 1.2 1.1 1.6c.5.5 1 .9 1.6 1.2l-1.1 1.4c-.8-.5-1.5-1.1-2.1-1.9c-.6-.7-1.1-1.6-1.4-2.7c-.3 1.1-.8 2-1.4 2.9c-.7.8-1.4 1.5-2.3 1.9l-1.1-1.4c.6-.3 1.2-.7 1.6-1.2c.5-.4.9-1 1.3-1.6c.3-.6.6-1.3.7-2c.2-.7.3-1.4.3-2.1c.01.01 0-2.5 0-2.5h1.8zM194.1.9h1.8v8.2h-1.8V5.9s-2.83-.02-2.8 0c-.1.4-.3.8-.5 1.2c-.2.3-.5.6-.8.9l-1.2.6c-.5.1-.9.2-1.4.2c-.6 0-1.2-.1-1.6-.3c-.5-.1-1-.4-1.3-.7c-.4-.3-.6-.7-.8-1.2c-.3-.4-.4-.9-.4-1.4c0-.5.1-1 .4-1.5c.2-.4.4-.8.8-1.1c.3-.3.8-.6 1.3-.7c.4-.2 1-.3 1.6-.3c.5 0 .9.1 1.4.2c.4.1.8.3 1.1.6c.4.2.7.5.9.9c.2.3.4.7.5 1.2c-.03-.05 2.8 0 2.8 0V.9zm-6.7 6.4c.3 0 .6 0 .9-.1c.3-.1.5-.3.7-.5c.2-.1.4-.4.5-.6c.1-.3.2-.6.2-.9c0-.7-.2-1.2-.7-1.6c-.4-.4-1-.6-1.6-.6c-.7 0-1.3.2-1.7.6c-.5.4-.7.9-.7 1.6c0 .6.2 1.2.7 1.5c.4.4 1 .6 1.7.6zm6.7 4.3V9.9h1.8v6.2h-10V9.9h1.7v1.7h6.5zm0 3.1V13h-6.5v1.7h6.5z" stroke="none" fill="#111111"/></g></svg>