<?xml version="1.0" standalone="no"?><!DOCTYPE svg PUBLIC "-//W3C//DTD SVG 1.1//EN" "http://www.w3.org/Graphics/SVG/1.1/DTD/svg11.dtd"><svg xmlns="http://www.w3.org/2000/svg" version="1.1" width="199.3px" height="23.3px" viewBox="0 -2 199.3 23.3" style="top:-2px"><desc>운영 학교 수 (단위: 개 교)</desc><defs/><g id="Polygon125597"><path d="m4.7 4.5c-.5 0-1 0-1.4-.1c-.4-.1-.7-.2-1-.4c-.3-.2-.5-.4-.7-.6c-.1-.2-.2-.5-.2-.8c0-.3.1-.5.2-.7c.2-.3.4-.5.7-.6c.3-.2.6-.3 1-.4c.4-.1.9-.1 1.4-.1c.5 0 .9 0 1.3.1c.4.1.8.2 1 .4c.3.1.6.3.7.6c.2.2.2.4.2.7c0 .3 0 .6-.2.8c-.1.2-.4.4-.7.6c-.2.2-.6.3-1 .4c-.4.1-.8.1-1.3.1zm0-2.9c-.7 0-1.2.1-1.6.3c-.4.2-.6.4-.6.7c0 .4.2.6.6.8c.4.2.9.3 1.6.3c.6 0 1.2-.1 1.5-.3c.4-.2.6-.4.6-.8c0-.3-.2-.5-.6-.7c-.3-.2-.9-.3-1.5-.3zM.5 5.1h8.4v.9H5.3v1.7H4.2V6H.5v-.9zm2.1 1.8v1.8h5.3v.9H1.5V6.9h1.1zm13.7-2.1s-2.24-.04-2.2 0c-.3.2-.5.4-.8.5c-.4.1-.7.2-1.1.2c-.3 0-.6 0-.9-.2c-.3-.1-.6-.2-.8-.4c-.2-.2-.4-.4-.5-.7c-.1-.3-.2-.6-.2-.9c0-.3.1-.6.2-.9c.1-.3.3-.5.5-.7c.2-.2.5-.4.8-.5c.3-.1.6-.1.9-.1c.4 0 .8 0 1.1.2c.3.1.5.3.8.5c-.04.02 2.2 0 2.2 0V.5h1v5.5h-1V4.8zm-5.5-1.5c0 .4.2.7.4 1c.3.2.6.3 1 .3c.4 0 .8-.1 1-.3c.3-.3.4-.6.4-1c0-.4-.1-.7-.4-1c-.2-.2-.6-.3-1-.3c-.4 0-.7.1-1 .3c-.2.3-.4.6-.4 1zm5.5-.6s-1.77-.03-1.8 0c.1.1.1.2.1.3v.3c0 .2 0 .4-.1.6c.02.02 1.8 0 1.8 0V2.7zm-2 3.5c.4 0 .9 0 1.3.1c.3.1.7.2.9.4c.3.1.5.3.7.5c.1.2.2.5.2.8c0 .3-.1.5-.2.7c-.2.2-.4.4-.7.6c-.2.1-.6.3-.9.3c-.4.1-.9.2-1.3.2c-.5 0-.9-.1-1.3-.2c-.4 0-.7-.2-1-.3c-.3-.2-.5-.4-.6-.6c-.2-.2-.2-.4-.2-.7c0-.3 0-.6.2-.8c.1-.2.3-.4.6-.5c.3-.2.6-.3 1-.4c.4-.1.8-.1 1.3-.1zm0 2.7c.6 0 1.1 0 1.5-.2c.3-.2.5-.4.5-.7c0-.3-.2-.6-.5-.7c-.4-.2-.9-.3-1.5-.3c-.7 0-1.2.1-1.6.3c-.3.1-.5.4-.5.7c0 .3.2.5.5.7c.4.2.9.2 1.6.2zm12.1-7.5v.9H21v-.9h2.2v-.9h1v.9h2.2zM29.5 3v.9h-1.3v2.4h-1.1V.6h1.1v2.4h1.3zm-3.6 1.4c0 .2 0 .4-.1.6c-.2.3-.3.4-.5.6c-.2.1-.4.2-.7.3c-.3.1-.6.1-.9.1c-.3 0-.7 0-.9-.1c-.3-.1-.5-.2-.7-.3c-.2-.2-.4-.3-.5-.6c-.1-.2-.1-.4-.1-.6c0-.3 0-.5.1-.7c.1-.2.3-.4.5-.6c.2-.1.4-.2.7-.3c.2-.1.6-.1.9-.1c.3 0 .6 0 .9.1c.3.1.5.2.7.3c.2.2.3.4.5.6c.1.2.1.4.1.7zm-3.4 0c0 .2.1.5.3.6c.2.2.5.2.9.2c.4 0 .6 0 .9-.2c.2-.1.3-.4.3-.6c0-.3-.1-.5-.3-.7c-.3-.1-.5-.2-.9-.2c-.4 0-.7.1-.9.2c-.2.2-.3.4-.3.7zm-.4 3.2v-.8h6.1v3h-1.1V7.6h-5zm14.4-5.2c.05-.02 0-.1 0-.1H31v-.9h6.6v2.8c-.1.4-.1.7-.1 1.1c-.1.4-.1.8-.2 1.2l-1.1-.1c.2-.8.3-1.6.3-2.2V2.4zm-1.1 5.3h3.1v.9h-8.4v-.9h2v-3h1v3h1.2v-3h1.1v3zm14-3.8l-.4.9c-.8-.1-1.5-.4-2.1-.7c-.6-.4-1-.9-1.3-1.4c-.3.6-.8 1-1.4 1.4c-.6.3-1.2.6-2 .7l-.4-.9c.4 0 .9-.1 1.3-.3c.4-.2.7-.4 1-.6c.3-.2.5-.5.7-.8c.1-.3.2-.6.2-.9v-.5h1.1s.02.54 0 .5c0 .3.1.6.3.9c.1.3.4.6.6.8c.3.2.7.4 1.1.6c.4.2.8.3 1.3.3zm.3 1.8v.8h-3.6v3.3H45V6.5h-3.6v-.8h8.3zm5.6 4.4l-.8.4c-.4-.8-.8-1.6-1.1-2.5c-.2-.8-.4-1.8-.4-2.8c0-1 .2-1.9.4-2.8c.3-.8.7-1.6 1.1-2.4l.8.3c-.5.8-.8 1.6-1 2.4c-.2.8-.3 1.6-.3 2.5c0 .9.1 1.8.3 2.6c.2.8.5 1.6 1 2.3zm8-6.9h1.3v.8h-1.3v3.2h-1.1V.5h1.1v2.7zm-1.9 1.3l.1.8c-.3.1-.6.1-.9.2c-.3 0-.6.1-1 .1h-2.4c0 .04-.7 0-.7 0V1.3h4.1v.9h-3.1v2.6h1.2c.3 0 .7-.1 1-.1c.3 0 .6 0 .8-.1c.3 0 .6-.1.9-.1zm-2.9 2v2.2h5.1v.9h-6.2V6.5h1.1zM71.8.6h1.1v9.2h-1.1V.6zm-3.5 4.2c-.4 0-.7 0-1-.1c-.3-.1-.5-.3-.7-.4c-.3-.2-.4-.4-.5-.6c-.2-.3-.2-.5-.2-.8c0-.3 0-.6.2-.8c.1-.2.2-.4.5-.6c.2-.2.4-.3.7-.4c.3-.1.6-.2 1-.2c.3 0 .6.1.9.2c.3.1.6.2.8.4c.2.2.3.4.5.6c.1.2.1.5.1.8c0 .3 0 .5-.1.8c-.2.2-.3.4-.5.6c-.2.1-.5.3-.8.4c-.3.1-.6.1-.9.1zm0-3c-.4 0-.8.1-1 .3c-.3.2-.4.5-.4.8c0 .3.1.6.4.8c.2.2.6.2 1 .2c.4 0 .7 0 .9-.2c.3-.2.4-.5.4-.8c0-.3-.1-.6-.4-.8c-.2-.2-.5-.3-.9-.3zm2.9 3.4l.1.7c-.4.1-.8.2-1.2.2c-.5.1-.9.1-1.3.2c.03-.05 0 3.2 0 3.2h-1s-.02-3.19 0-3.2h-1.3c-.4.1-.8.1-1.1.1l-.1-.9h1.3c.5 0 1 0 1.5-.1c.5 0 1.1 0 1.6-.1c.5 0 1-.1 1.5-.1zm4.7-2.3v1.3h-1.2V2.9h1.2zm0 4.2v1.3h-1.2V7.1h1.2zm12-6.5h1v9.2h-1V5h-1v4.3h-1V.8h1v3.4h1V.6zm-6.5 1.1s3.63.01 3.6 0c0 .6 0 1.2-.1 1.8c-.2.6-.3 1.1-.6 1.6c-.3.5-.6 1-1 1.5c-.5.4-1 .9-1.7 1.2l-.6-.7c.5-.3 1-.6 1.3-.9c.4-.4.7-.7.9-1.1c.2-.4.4-.8.5-1.2c.2-.4.3-.9.3-1.3c-.01-.03-2.6 0-2.6 0v-.9zm17.3.7c.04-.02 0-.1 0-.1h-5.5v-.9h6.6v1.9c0 .3 0 .6-.1.9c0 .4 0 .7-.1 1.1c0 .4-.1.8-.1 1.2l-1.1-.1c.2-.8.3-1.6.3-2.2V2.4zm-1.1 5.3h3.1v.9h-8.4v-.9h1.9v-3h1.1v3h1.2v-3h1.1v3zm4.6 2.8l-.8-.4c.5-.7.8-1.5 1-2.3c.2-.8.3-1.7.3-2.6c0-.9-.1-1.7-.3-2.5c-.2-.8-.5-1.6-1-2.4l.8-.3c.5.8.8 1.6 1.1 2.4c.3.9.4 1.8.4 2.8c0 1-.1 2-.4 2.8c-.3.9-.6 1.7-1.1 2.5z" stroke="none" fill="#949596"/></g></svg>