<?xml version="1.0" standalone="no"?><!DOCTYPE svg PUBLIC "-//W3C//DTD SVG 1.1//EN" "http://www.w3.org/Graphics/SVG/1.1/DTD/svg11.dtd"><svg xmlns="http://www.w3.org/2000/svg" version="1.1" width="162px" height="19.6px" viewBox="0 -2 162 19.6" style="top:-2px"><desc>Hyundai Hope on Wheels</desc><defs/><g id="Polygon114925"><path d="m1.1 10.6V1.7h1.8v3.5h3.3V1.7h1.8v8.9H6.2V6.7H2.9v3.9H1.1zm12.3.2l-.8 2.5h-1.8l1-2.7l-2.6-6.8h1.8s1.02 3.16 1 3.2l.3.9c.1.3.2.6.3 1c.1-.4.2-.7.3-1c.1-.3.1-.6.2-.9c.03-.04 1-3.2 1-3.2h1.6l-2.3 7zm5.4-.1c-.7 0-1.3-.2-1.6-.7c-.3-.5-.5-1.1-.5-2c.03.04 0-4.2 0-4.2h1.8v4c0 .5.1.9.2 1.1c.2.2.4.3.7.3c.3 0 .5 0 .7-.2c.2-.1.5-.3.7-.6V3.8h1.8v6.8h-1.5l-.1-1h-.1c-.2.3-.6.6-.9.8c-.3.2-.7.3-1.2.3zm5.6-.1V3.8h1.4l.1.9s.09.03.1 0c.3-.3.6-.5 1-.7c.3-.2.7-.3 1.2-.3c.7 0 1.2.2 1.6.7c.3.5.5 1.1.5 2c-.05-.03 0 4.2 0 4.2h-1.8v-4c0-.5-.1-.9-.2-1.1c-.2-.2-.4-.3-.8-.3c-.2 0-.5 0-.7.2c-.2.1-.4.3-.7.5c.04.04 0 4.7 0 4.7h-1.7zm10 .1c-.4 0-.8-.1-1.2-.2c-.3-.2-.6-.4-.8-.7c-.3-.3-.4-.7-.6-1.1c-.1-.4-.2-.9-.2-1.5c0-.5.1-1 .3-1.5c.1-.4.3-.8.6-1.1c.3-.3.6-.5.9-.7c.3-.1.7-.2 1.1-.2c.3 0 .7 0 .9.2c.3.1.5.3.8.5c-.04 0-.1-1.1-.1-1.1V1h1.7v9.6h-1.4l-.1-.7s-.06-.04-.1 0c-.2.2-.5.4-.8.6c-.3.1-.7.2-1 .2zm-1-3.5c0 1.4.5 2.1 1.4 2.1c.3 0 .5-.1.7-.2c.2-.1.4-.3.6-.5v-3c-.2-.2-.4-.3-.6-.4c-.2 0-.5-.1-.7-.1c-.3 0-.7.2-.9.6c-.3.3-.5.8-.5 1.5zm7.9 3.5c-.6 0-1-.2-1.4-.6c-.4-.3-.6-.8-.6-1.4c0-.8.3-1.4.9-1.8c.6-.4 1.6-.6 3-.6c0-.3 0-.6-.1-.9c-.2-.2-.5-.3-1-.3c-.3 0-.7 0-1 .2c-.3.1-.7.2-1 .4l-.5-1.2c.4-.3.8-.4 1.3-.6c.5-.2 1-.2 1.5-.2c1.7 0 2.6 1 2.6 2.9c-.02.04 0 4 0 4h-1.5l-.1-.7s-.03-.02 0 0c-.3.2-.6.4-1 .6c-.3.1-.7.2-1.1.2zm.6-1.4c.2 0 .5 0 .7-.1c.2-.1.4-.3.6-.5V7.3c-.2 0-.4.1-.6.1c-.2 0-.4 0-.6.1c-.4 0-.7.1-.8.3c-.2.2-.2.4-.2.6c0 .3.1.5.2.7c.2.2.4.2.7.2zm6.4-8.2v1.7h-1.7V1.1h1.7zm0 9.5h-1.8V3.8h1.8v6.8zm4.5 0V1.7h1.8v3.5h3.3V1.7h1.8v8.9h-1.8V6.7h-3.3v3.9h-1.8zm11.7.1c-.5 0-.9-.1-1.2-.2c-.4-.2-.8-.4-1.1-.7c-.3-.3-.5-.7-.7-1.1c-.2-.4-.3-.9-.3-1.5c0-.5.1-1 .3-1.5c.2-.4.4-.8.7-1.1c.3-.3.7-.5 1.1-.7c.3-.1.7-.2 1.2-.2c.4 0 .8.1 1.2.2c.4.2.7.4 1 .7c.3.3.5.7.7 1.1c.2.5.3 1 .3 1.5c0 .6-.1 1.1-.3 1.5c-.2.4-.4.8-.7 1.1c-.3.3-.6.5-1 .7c-.4.1-.8.2-1.2.2zm0-1.4c.4 0 .8-.2 1-.6c.3-.4.4-.9.4-1.5c0-.6-.1-1.1-.4-1.5c-.2-.4-.6-.6-1-.6c-.5 0-.8.2-1.1.6c-.2.4-.4.9-.4 1.5c0 .6.2 1.1.4 1.5c.3.4.6.6 1.1.6zm4.6 3.8V3.8h1.4l.2.7s.01.04 0 0l.9-.6c.4-.1.7-.2 1.1-.2c.4 0 .8.1 1.1.2c.3.2.6.4.8.7c.3.3.4.7.6 1.1c.1.4.1.9.1 1.4c0 .6 0 1.1-.2 1.5c-.2.5-.4.9-.6 1.2c-.3.3-.6.5-1 .7c-.3.1-.7.2-1 .2c-.3 0-.6 0-.9-.2c-.3-.1-.5-.3-.8-.5l.1 1.1v2h-1.8zm3-3.8c.4 0 .7-.2 1-.5c.3-.4.4-.9.4-1.7c0-.6-.1-1.1-.3-1.5c-.2-.3-.5-.5-1-.5c-.2 0-.5.1-.7.2c-.2.1-.4.3-.6.5v3c.2.2.4.3.6.4c.2 0 .4.1.6.1zm7.6 1.4c-.5 0-.9-.1-1.3-.2c-.4-.2-.8-.4-1.1-.7c-.3-.3-.5-.7-.7-1.1c-.2-.4-.2-.9-.2-1.5c0-.5 0-1 .2-1.5c.2-.4.4-.8.7-1.1c.3-.3.6-.5 1-.7c.4-.1.8-.2 1.2-.2c.5 0 .9.1 1.2.2c.4.2.6.4.9.7c.2.3.4.6.5 1c.1.4.2.8.2 1.3v.5c0 .1-.1.2-.1.3h-4.1c0 .5.2 1 .6 1.2c.3.3.7.5 1.2.5c.3 0 .6-.1.8-.1c.3-.1.5-.2.7-.4L82 10c-.3.2-.7.4-1.1.5c-.4.2-.8.2-1.2.2zM78 6.5h2.8c0-.4-.1-.8-.3-1.1c-.2-.2-.6-.4-1-.4c-.3 0-.7.2-.9.4c-.3.3-.5.6-.6 1.1zm11.2 4.2c-.5 0-.9-.1-1.3-.2c-.3-.2-.7-.4-1-.7c-.3-.3-.5-.7-.7-1.1c-.2-.4-.3-.9-.3-1.5c0-.5.1-1 .3-1.5c.2-.4.4-.8.7-1.1c.3-.3.7-.5 1-.7c.4-.1.8-.2 1.3-.2c.4 0 .8.1 1.2.2c.4.2.7.4 1 .7c.3.3.5.7.7 1.1c.2.5.3 1 .3 1.5c0 .6-.1 1.1-.3 1.5c-.2.4-.4.8-.7 1.1c-.3.3-.6.5-1 .7c-.4.1-.8.2-1.2.2zm0-1.4c.4 0 .8-.2 1-.6c.3-.4.4-.9.4-1.5c0-.6-.1-1.1-.4-1.5c-.2-.4-.6-.6-1-.6c-.5 0-.8.2-1.1.6c-.2.4-.4.9-.4 1.5c0 .6.2 1.1.4 1.5c.3.4.6.6 1.1.6zm4.6 1.3V3.8h1.4l.2.9s.01.03 0 0c.3-.3.6-.5 1-.7c.3-.2.7-.3 1.2-.3c.7 0 1.3.2 1.6.7c.3.5.5 1.1.5 2c-.03-.03 0 4.2 0 4.2h-1.8v-4c0-.5-.1-.9-.2-1.1c-.2-.2-.4-.3-.7-.3c-.3 0-.6 0-.8.2c-.2.1-.4.3-.6.5c-.05.04 0 4.7 0 4.7h-1.8zm11.3 0l-1.7-8.9h1.8s.69 4.31.7 4.3c.1.5.1 1 .2 1.4c.1.5.1 1 .2 1.4c.1-.4.2-.9.3-1.4l.3-1.4c.01.01 1-4.3 1-4.3h1.6s.98 4.31 1 4.3l.3 1.4c.1.5.2 1 .2 1.4h.1c.1-.4.1-.9.2-1.4c.1-.5.1-.9.2-1.4l.7-4.3h1.7l-1.7 8.9H110s-.96-4.43-1-4.4c0-.4-.1-.7-.2-1.1c0-.3-.1-.6-.1-1h-.1c-.1.4-.1.7-.2 1c0 .4-.1.7-.2 1.1c.03-.03-.9 4.4-.9 4.4h-2.2zm9.9 0V1h1.8v2.4l-.1 1.3c.3-.3.6-.5.9-.7c.4-.2.8-.3 1.2-.3c.7 0 1.3.2 1.6.7c.3.5.5 1.1.5 2v4.2h-1.8s.02-4.01 0-4c0-.5-.1-.9-.2-1.1c-.1-.2-.4-.3-.7-.3c-.3 0-.5 0-.7.2c-.2.1-.5.3-.7.5c-.03.04 0 4.7 0 4.7H115zm10.6.1c-.5 0-.9-.1-1.4-.2c-.4-.2-.7-.4-1-.7c-.3-.3-.6-.7-.7-1.1c-.2-.4-.3-.9-.3-1.5c0-.5.1-1 .3-1.5c.2-.4.4-.8.7-1.1c.3-.3.6-.5 1-.7c.4-.1.8-.2 1.2-.2c.4 0 .8.1 1.2.2c.3.2.6.4.8.7c.3.3.5.6.6 1c.1.4.2.8.2 1.3c0 .1 0 .3-.1.5v.3h-4.2c.1.5.3 1 .6 1.2c.4.3.8.5 1.3.5c.3 0 .5-.1.8-.1c.2-.1.5-.2.7-.4l.6 1.1c-.3.2-.7.4-1.1.5c-.4.2-.8.2-1.2.2zm-1.7-4.2h2.7c0-.4-.1-.8-.3-1.1c-.2-.2-.5-.4-.9-.4c-.4 0-.7.2-1 .4c-.3.3-.4.6-.5 1.1zm8.6 4.2c-.5 0-.9-.1-1.3-.2c-.4-.2-.8-.4-1.1-.7c-.3-.3-.5-.7-.7-1.1c-.2-.4-.3-.9-.3-1.5c0-.5.1-1 .3-1.5c.2-.4.4-.8.7-1.1c.3-.3.6-.5 1-.7c.4-.1.8-.2 1.2-.2c.4 0 .8.1 1.2.2c.3.2.6.4.9.7c.2.3.4.6.5 1c.1.4.2.8.2 1.3c0 .1 0 .3-.1.5v.3h-4.2c.1.5.3 1 .7 1.2c.3.3.7.5 1.2.5c.3 0 .5-.1.8-.1c.2-.1.5-.2.7-.4l.6 1.1c-.3.2-.7.4-1.1.5c-.4.2-.8.2-1.2.2zm-1.7-4.2h2.8c0-.4-.1-.8-.4-1.1c-.2-.2-.5-.4-.9-.4c-.4 0-.7.2-1 .4c-.2.3-.4.6-.5 1.1zm7.4 4.1h-1.7V1h1.7v9.6zm3.9.1c-.5 0-.9-.1-1.4-.2c-.4-.2-.8-.4-1.2-.7l.8-1.1c.4.2.7.4.9.5c.3.1.6.2.9.2c.4 0 .6-.1.8-.2c.1-.1.2-.3.2-.5c0-.1 0-.2-.1-.3l-.3-.3c-.1-.1-.3-.1-.5-.2c-.1-.1-.3-.1-.5-.2l-.6-.3c-.2-.1-.4-.2-.6-.4c-.2-.1-.3-.3-.5-.5c-.1-.2-.1-.5-.1-.8c0-.3 0-.5.2-.8c.1-.2.2-.5.5-.7c.2-.1.4-.3.8-.4c.3-.1.6-.1 1-.1c.5 0 .9.1 1.3.2c.4.2.7.4 1 .6l-.8 1.1c-.3-.2-.5-.3-.7-.4c-.3-.2-.5-.2-.8-.2c-.3 0-.5.1-.6.2c-.2.1-.3.2-.3.4c0 .2.1.3.2.4c0 0 .1.1.3.2c.1.1.2.1.4.2c.2.1.3.1.5.2c.2.1.5.2.7.3l.6.3c.2.2.3.4.4.6c.1.2.2.5.2.8c0 .3-.1.6-.2.8c-.1.3-.3.5-.5.7c-.2.2-.5.3-.8.5c-.4.1-.8.1-1.2.1z" stroke="none" fill="#fff"/></g></svg>