<?xml version="1.0" standalone="no"?><!DOCTYPE svg PUBLIC "-//W3C//DTD SVG 1.1//EN" "http://www.w3.org/Graphics/SVG/1.1/DTD/svg11.dtd"><svg xmlns="http://www.w3.org/2000/svg" version="1.1" width="409.3px" height="26.8px" viewBox="0 -3 409.3 26.8" style="top:-3px"><desc>현대드림센터</desc><defs/><g id="Polygon118602"><path d="m9.4 2.7v1.4H.9V2.7h3.5V.9h1.7v1.8h3.3zm2.4 9.9v-3H9.5V8.1h2.3V6.3H9.5V4.9h2.3v-4h1.8v11.7h-1.8zm-3-4.8c0 .4-.1.8-.3 1.2c-.2.3-.4.6-.7.9c-.3.3-.7.5-1.1.6c-.5.2-.9.2-1.5.2c-.5 0-1 0-1.4-.2c-.4-.1-.8-.3-1.1-.6c-.3-.3-.6-.6-.7-.9c-.2-.4-.3-.8-.3-1.2c0-.5.1-.9.3-1.3c.1-.3.4-.6.7-.9c.3-.3.7-.5 1.1-.6c.4-.2.9-.2 1.4-.2c.6 0 1 0 1.5.2c.4.1.8.3 1.1.6c.3.3.5.6.7.9c.2.4.3.8.3 1.3zm-5.5 0c0 .5.2.9.6 1.1c.3.3.8.5 1.3.5c.6 0 1.1-.2 1.4-.5c.3-.2.5-.6.5-1.1c0-.6-.2-1-.5-1.2c-.3-.3-.8-.5-1.4-.5c-.5 0-1 .2-1.3.5c-.4.2-.6.6-.6 1.2zm2.1 6.8h8.5v1.4H3.6v-4.4h1.8v3zM27.8.9h1.7v15.4h-1.7V8.4H26v7.1h-1.6V1.2h1.6v5.8h1.8V.9zm-9.2 3.3s.05 6.97 0 7c.9 0 1.7-.1 2.5-.1c.7-.1 1.5-.2 2.3-.4l.1 1.5c-.4.1-.9.2-1.3.2c-.4.1-.9.1-1.3.1c-.5.1-.9.1-1.4.1H18c-.05.01-1.1 0-1.1 0V2.7h5.7v1.5h-4zm25.7 4v1.4H33.7V2.3h10.5v1.4h-8.8v4.5h8.9zM32 12.9h13.9v1.4H32v-1.4zM58.4.9h1.8v9.1h-1.8V.9zm-1.6 6.6l.2 1.4c-.6.1-1.2.2-1.7.3c-.6 0-1.2.1-1.8.1c-.6 0-1.2.1-1.8.1h-2.1c.01-.02-1.3 0-1.3 0V4.9h5.3V3.2h-5.3V1.8h7v4.4H50s.05 1.76 0 1.8c.7 0 1.3-.1 1.9-.1h1.7c.5-.1 1.1-.1 1.6-.2c.5 0 1.1-.1 1.6-.2zm-6.7 8.6v-5.3h10.1v5.3H50.1zm1.7-3.9v2.5h6.7v-2.5h-6.7zM76.1.9v11.5h-1.7V.9h1.7zM71.4 12V6.1h-2.2V4.6h2.2V1.2h1.6V12h-1.6zm-.8-3.4l-1 1.3c-.6-.3-1.1-.7-1.6-1.2c-.5-.5-.8-1.1-1.1-1.7c-.3.7-.6 1.4-1.1 1.9c-.5.6-1.1 1.1-1.8 1.4L63 9c.5-.3 1-.6 1.3-.9c.4-.4.8-.8 1-1.2c.3-.5.5-.9.6-1.4c.1-.5.2-.9.2-1.4c-.04.01 0-2.1 0-2.1h1.7s-.04 2.11 0 2.1c0 .9.2 1.8.7 2.6c.4.8 1.1 1.4 2.1 1.9zm-2.9 6h8.8v1.4H65.9v-4.9h1.8v3.5zM89.6.9h1.8v15.4h-1.8V8h-2.9V6.5h2.9V.9zM81.1 8s-.03 3.27 0 3.3c.6 0 1.2 0 1.7-.1h1.5c.5-.1 1-.1 1.5-.2c.5 0 1-.1 1.5-.2l.1 1.4c-.5.1-1 .2-1.6.3c-.5 0-1 .1-1.6.1c-.6.1-1.1.1-1.7.1h-3.2V2.2h7.1v1.5h-5.3v2.9h4.7v1.4h-4.7z" stroke="none" fill="#111111"/></g></svg>