<?xml version="1.0" standalone="no"?><!DOCTYPE svg PUBLIC "-//W3C//DTD SVG 1.1//EN" "http://www.w3.org/Graphics/SVG/1.1/DTD/svg11.dtd"><svg xmlns="http://www.w3.org/2000/svg" version="1.1" width="172px" height="17.3px" viewBox="0 -2 172 17.3" style="top:-2px"><desc>ioniqforest.com</desc><defs/><g id="Polygon116294"><path d="m1.7 1.3v1h-.9v-1h.9zm0 7.6h-.9V3.4h.9v5.5zm3.6.2c-.3 0-.6-.1-.9-.2c-.3-.2-.6-.3-.9-.6c-.2-.2-.4-.5-.5-.9c-.2-.4-.2-.8-.2-1.2c0-.5 0-.9.2-1.3c.1-.3.3-.6.5-.9l.9-.6c.3-.1.6-.1.9-.1c.4 0 .7 0 1 .1c.3.2.6.4.8.6c.3.3.5.6.6.9c.1.4.2.8.2 1.3c0 .4-.1.8-.2 1.2c-.1.4-.3.7-.6.9c-.2.3-.5.4-.8.6c-.3.1-.6.2-1 .2zm0-.8c.3 0 .5-.1.7-.2c.2-.1.4-.2.5-.4c.2-.2.3-.4.3-.7c.1-.2.2-.5.2-.8c0-.3-.1-.6-.2-.9c0-.3-.1-.5-.3-.7c-.1-.2-.3-.3-.5-.4c-.2-.1-.4-.2-.7-.2c-.2 0-.4.1-.6.2c-.2.1-.4.2-.5.4c-.2.2-.3.4-.3.7c-.1.3-.2.6-.2.9c0 .3.1.6.2.8c0 .3.1.5.3.7c.1.2.3.3.5.4c.2.1.4.2.6.2zm3.9.6V3.4h.7l.1.8s.05-.01 0 0c.3-.3.6-.5.9-.7c.3-.2.6-.2 1-.2c.6 0 1 .1 1.3.5c.3.4.4.9.4 1.6v3.5h-.9s-.03-3.35 0-3.4c0-.5-.1-.9-.3-1.1c-.1-.2-.4-.3-.8-.3c-.3 0-.5 0-.7.2c-.3.1-.5.3-.8.6v4h-.9zM16 1.3v1h-1v-1h1zm0 7.6h-1V3.4h1v5.5zm5 2.4v-3c-.2.2-.5.4-.7.5c-.3.2-.6.3-1 .3c-.3 0-.6-.1-.9-.2c-.3-.2-.5-.3-.7-.6c-.2-.2-.4-.5-.5-.9c-.1-.4-.1-.8-.1-1.2c0-.5 0-.9.2-1.2c.1-.4.3-.7.5-1c.2-.2.5-.4.7-.5c.3-.2.6-.2 1-.2c.3 0 .6 0 .8.1c.3.1.5.3.7.5c.03.03.1 0 .1 0l.1-.5h.7v7.9h-.9zm-1.5-3c.3 0 .5-.1.8-.2c.2-.1.4-.3.7-.6V4.6c-.3-.2-.5-.3-.7-.4c-.2-.1-.5-.2-.7-.2c-.2 0-.4.1-.6.2c-.2.1-.4.2-.5.4c-.2.2-.3.4-.4.7c0 .3-.1.5-.1.9c0 .6.1 1.2.4 1.5c.3.4.7.6 1.1.6zM26.3.9l-.2.7c-.3-.1-.5-.2-.7-.2c-.5 0-.7.4-.7 1.1c-.05.02 0 .9 0 .9h1.1v.8h-1.1v4.7h-1V4.2h-.7v-.8h.7s.02-.89 0-.9c0-.6.2-1 .4-1.3c.3-.4.7-.5 1.2-.5h.5c.2.1.3.1.5.2zm2.5 8.2c-.3 0-.6-.1-.9-.2c-.3-.2-.6-.3-.9-.6c-.2-.2-.4-.5-.5-.9c-.2-.4-.2-.8-.2-1.2c0-.5 0-.9.2-1.3c.1-.3.3-.6.5-.9l.9-.6c.3-.1.6-.1.9-.1c.4 0 .7 0 1 .1c.3.2.6.4.8.6c.3.3.5.6.6.9c.1.4.2.8.2 1.3c0 .4-.1.8-.2 1.2c-.1.4-.3.7-.6.9c-.2.3-.5.4-.8.6c-.3.1-.6.2-1 .2zm0-.8c.3 0 .5-.1.7-.2c.2-.1.4-.2.5-.4c.1-.2.3-.4.3-.7c.1-.2.1-.5.1-.8c0-.3 0-.6-.1-.9c0-.3-.2-.5-.3-.7c-.1-.2-.3-.3-.5-.4c-.2-.1-.4-.2-.7-.2c-.2 0-.4.1-.6.2c-.2.1-.4.2-.5.4c-.2.2-.3.4-.3.7c-.1.3-.2.6-.2.9c0 .3.1.6.2.8c0 .3.1.5.3.7c.1.2.3.3.5.4c.2.1.4.2.6.2zm3.9.6V3.4h.7l.1 1s.04.01 0 0c.2-.3.5-.6.7-.8c.3-.2.6-.3.9-.3h.3c.1 0 .2 0 .3.1l-.2.8c-.1 0-.2-.1-.2-.1h-.3c-.1 0-.2 0-.4.1c-.1 0-.2.1-.3.2c-.2.1-.3.2-.4.4c-.1.1-.2.3-.3.6v3.5h-.9zm5.9.2c-.3 0-.7-.1-1-.2c-.3-.2-.6-.3-.8-.6c-.3-.2-.5-.5-.6-.9c-.1-.4-.2-.8-.2-1.2c0-.5.1-.9.2-1.2c.1-.4.3-.7.6-1c.2-.2.5-.4.8-.5c.3-.2.6-.2.9-.2c.3 0 .7 0 .9.1c.3.2.5.3.7.6c.2.2.4.5.4.8c.1.3.2.7.2 1.1v.5h-3.8c.1.6.2 1.1.6 1.4c.3.3.7.5 1.3.5c.2 0 .5 0 .7-.1l.6-.3l.4.6c-.3.2-.5.3-.8.4c-.3.1-.7.2-1.1.2zm-1.7-3.4h3c0-.6-.1-1-.4-1.3c-.2-.3-.6-.4-1-.4c-.2 0-.4 0-.6.1c-.1.1-.3.2-.4.4c-.2.1-.3.3-.4.5c-.1.2-.2.5-.2.7zm6.4 3.4c-.4 0-.8-.1-1.1-.3c-.4-.1-.7-.3-1-.5l.5-.6c.2.2.5.3.7.5c.3.1.6.1.9.1c.4 0 .7 0 .9-.2c.1-.2.2-.4.2-.6c0-.2 0-.3-.1-.4l-.3-.3c-.1 0-.2-.1-.4-.2c-.1 0-.3-.1-.4-.2c-.2 0-.4-.1-.6-.2l-.6-.3c-.1-.2-.2-.3-.3-.5c-.1-.1-.2-.3-.2-.6c0-.2.1-.4.1-.6c.1-.2.2-.3.4-.5l.6-.3c.3-.1.5-.1.8-.1c.4 0 .7 0 1 .1c.3.2.5.3.7.5l-.4.6c-.2-.2-.4-.3-.6-.4c-.2-.1-.4-.1-.7-.1c-.3 0-.6.1-.7.2c-.2.2-.3.4-.3.6c0 .1 0 .2.1.3l.3.3c.1 0 .2.1.4.2c.1 0 .3.1.4.1l.6.3l.6.3c.1.1.3.3.4.5c.1.1.1.4.1.6c0 .2 0 .5-.1.7c-.1.2-.2.3-.4.5l-.6.3c-.3.1-.6.2-.9.2zm4.9 0c-.3 0-.6-.1-.8-.2c-.2-.1-.3-.2-.5-.3c-.1-.2-.2-.4-.2-.6c-.1-.2-.1-.5-.1-.8v-3h-.8v-.8h.8l.1-1.6h.8v1.6h1.5v.8h-1.5s.02 3.04 0 3c0 .4.1.7.2.8c.1.2.4.3.7.3h.3c.1-.1.2-.1.3-.1l.2.7c-.2 0-.3.1-.5.1c-.2 0-.4.1-.5.1zm1.4 0v-1h.9v1h-.9zm4.8 0c-.4 0-.7-.1-1-.2c-.3-.2-.6-.3-.9-.6c-.2-.2-.4-.5-.5-.9c-.1-.4-.2-.8-.2-1.2c0-.5.1-.9.2-1.3l.6-.9c.2-.2.5-.4.9-.6c.3-.1.6-.1 1-.1c.3 0 .6 0 .9.1c.3.2.5.3.7.5l-.5.6c-.2-.1-.3-.2-.5-.3c-.2-.1-.4-.2-.6-.2c-.3 0-.5.1-.7.2c-.2.1-.4.2-.5.4c-.2.2-.3.4-.4.7c-.1.3-.1.6-.1.9c0 .3 0 .6.1.8c.1.3.2.5.3.7c.2.2.4.3.6.4c.2.1.4.2.7.2c.2 0 .5-.1.7-.2c.2-.1.4-.2.6-.4l.4.7c-.3.2-.5.4-.8.5c-.4.1-.7.2-1 .2zm5 0c-.4 0-.7-.1-1-.2c-.3-.2-.6-.3-.8-.6c-.3-.2-.5-.5-.6-.9c-.1-.4-.2-.8-.2-1.2c0-.5.1-.9.2-1.3c.1-.3.3-.6.6-.9c.2-.2.5-.4.8-.6c.3-.1.6-.1 1-.1c.3 0 .6 0 .9.1c.3.2.6.4.8.6c.3.3.5.6.6.9c.2.4.2.8.2 1.3c0 .4 0 .8-.2 1.2c-.1.4-.3.7-.6.9c-.2.3-.5.4-.8.6c-.3.1-.6.2-.9.2zm0-.8c.2 0 .4-.1.6-.2c.2-.1.4-.2.5-.4c.2-.2.3-.4.3-.7c.1-.2.2-.5.2-.8c0-.3-.1-.6-.2-.9c0-.3-.1-.5-.3-.7c-.1-.2-.3-.3-.5-.4c-.2-.1-.4-.2-.6-.2c-.3 0-.5.1-.7.2c-.2.1-.4.2-.5.4c-.1.2-.3.4-.3.7c-.1.3-.1.6-.1.9c0 .3 0 .6.1.8c0 .3.2.5.3.7c.1.2.3.3.5.4c.2.1.4.2.7.2zm3.8.6V3.4h.7l.1.8h.1c.2-.3.5-.5.7-.7c.3-.2.6-.2 1-.2c.4 0 .7 0 1 .2c.2.2.4.5.5.8c.3-.3.6-.6.9-.8c.3-.1.6-.2.9-.2c.6 0 1 .1 1.3.5c.3.4.4.9.4 1.6c.02.03 0 3.5 0 3.5h-.9s-.01-3.35 0-3.4c0-.5-.1-.9-.3-1.1c-.1-.2-.4-.3-.7-.3c-.4 0-.9.3-1.4.8c-.04.02 0 4 0 4h-1s.03-3.35 0-3.4c0-.5-.1-.9-.2-1.1c-.2-.2-.4-.3-.8-.3c-.4 0-.9.3-1.4.8v4h-.9z" stroke="none" fill="#111111"/></g></svg>