<?xml version="1.0" standalone="no"?><!DOCTYPE svg PUBLIC "-//W3C//DTD SVG 1.1//EN" "http://www.w3.org/Graphics/SVG/1.1/DTD/svg11.dtd"><svg xmlns="http://www.w3.org/2000/svg" version="1.1" width="199.3px" height="23.3px" viewBox="0 -2 199.3 23.3" style="top:-2px"><desc>연간 투입 금액 (단위: 억 원)</desc><defs/><g id="Polygon122113"><path d="m7.1 5H4.9c-.2.2-.5.4-.8.6c-.3.1-.7.2-1.1.2c-.3 0-.6-.1-.9-.2c-.3-.1-.6-.3-.8-.5c-.2-.2-.4-.4-.5-.7c-.1-.3-.2-.6-.2-.9c0-.4.1-.7.2-1c.1-.3.3-.5.5-.7c.2-.2.5-.4.8-.5c.3-.1.6-.2.9-.2c.4 0 .8.1 1.1.2c.3.2.6.4.8.6c-.01.02 2.2 0 2.2 0V.6h1v6.7h-1V5zM1.6 3.5c0 .2.1.4.1.5c.1.2.2.4.3.5c.2.1.3.2.5.3c.2.1.3.1.5.1c.2 0 .4 0 .6-.1c.2-.1.3-.2.4-.3c.2-.1.3-.3.3-.5c.1-.1.1-.3.1-.5c0-.3 0-.4-.1-.6c0-.2-.1-.3-.3-.5c-.1-.1-.2-.2-.4-.2c-.2-.1-.4-.1-.6-.1c-.2 0-.3 0-.5.1c-.2 0-.3.1-.5.2c-.1.2-.2.3-.3.5c0 .2-.1.3-.1.6zm5.5-.7s-1.77-.03-1.8 0c.1.1.1.4.1.7c0 .3 0 .5-.1.6c.03.04 1.8 0 1.8 0V2.8zM3.2 8.7h5.2v.9H2.2V6.7h1v2zm13.7-5.5h1.3v.9h-1.3v3.1h-1.1V.6h1.1v2.6zm-6.8-1.9s4.31-.05 4.3 0c0 .6-.1 1.1-.3 1.6c-.2.6-.5 1-.8 1.5c-.4.4-.9.7-1.4 1.1c-.5.3-1.1.5-1.8.7l-.4-.8c1.1-.3 1.9-.8 2.5-1.3c.6-.6 1-1.2 1.1-2h-3.2v-.8zm2 5.2v2.2h5.1v.9H11V6.5h1.1zm16.3-2.1v.9H22V.9h6.3v.9h-5.2v.9h5v.8h-5v.9h5.3zm.9 1.7v.8h-3.7v2.9h-1V6.9h-3.7v-.8h8.4zM36.7.6h1v4.9h-1V.6zm-3.9.4c.3 0 .6 0 .9.1c.3.1.6.3.8.5c.2.2.4.4.5.6c.1.3.2.6.2.9c0 .3-.1.6-.2.9c-.1.2-.3.5-.5.7c-.2.1-.5.3-.8.4c-.3.1-.6.2-.9.2c-.4 0-.7-.1-1-.2c-.3-.1-.6-.3-.8-.4c-.2-.2-.4-.5-.5-.7c-.1-.3-.2-.6-.2-.9c0-.3.1-.6.2-.9c.1-.2.3-.4.5-.6c.2-.2.5-.4.8-.5c.3-.1.6-.1 1-.1zm0 .8c-.5 0-.8.2-1.1.4c-.2.2-.4.5-.4.9c0 .4.2.7.4.9c.3.3.6.4 1.1.4c.4 0 .7-.1 1-.4c.2-.2.4-.5.4-.9c0-.4-.2-.7-.4-.9c-.3-.2-.6-.4-1-.4zm-1.1 4.1h1.1v1h3.9v-1h1v3.7h-6V5.9zm1.1 1.9v1h3.9v-1h-3.9zm15.7-3.4c-.03-.04 1.2 0 1.2 0v.8h-8.3v-.8s6.02-.04 6 0c.1-.6.2-1 .2-1.4c.1-.4.1-.8.1-1.1c-.03-.04-5.2 0-5.2 0v-.9h6.2v1.9c0 .4-.1.9-.2 1.5zm-6.1 5.2V6.3h6.3v3.3h-6.3zm1-2.4v1.6h4.3V7.2h-4.3zm14-6.6h1v5.4h-1V3.7h-1v2.3h-1V.7h1v2.2h1V.6zm-2.6 2.7c0 .4 0 .6-.1.9c-.1.3-.3.5-.5.7c-.1.2-.4.4-.6.5c-.3.1-.5.1-.9.1c-.3 0-.5 0-.8-.1c-.3-.1-.5-.3-.7-.5c-.1-.2-.3-.4-.4-.7c-.1-.3-.2-.5-.2-.9c0-.3.1-.6.2-.9c.1-.2.3-.5.4-.7c.2-.2.4-.3.7-.4c.3-.1.5-.2.8-.2c.4 0 .6.1.9.2c.2.1.5.2.6.4c.2.2.4.5.5.7c.1.3.1.6.1.9zm-3.2 0c0 .4.1.8.3 1c.2.2.5.4.8.4c.4 0 .7-.2.9-.4c.2-.2.3-.6.3-1c0-.4-.1-.7-.3-.9c-.2-.3-.5-.4-.9-.4c-.3 0-.6.1-.8.4c-.2.2-.3.5-.3.9zm.5 4.1v-.9h6.3v3.3h-1.1V7.4h-5.2zm12.4 2.7l-.8.4c-.4-.8-.8-1.6-1.1-2.5c-.2-.8-.4-1.8-.4-2.8c0-1 .2-1.9.4-2.8c.3-.8.7-1.6 1.1-2.4l.8.3c-.5.8-.8 1.6-1 2.4c-.2.8-.3 1.6-.3 2.5c0 .9.1 1.8.3 2.6c.2.8.5 1.6 1 2.3zm8-6.9h1.3v.8h-1.3v3.2h-1.1V.5h1.1v2.7zm-2 1.3l.1.8c-.3.1-.6.1-.9.2c-.3 0-.6.1-.9.1h-2.4c-.02.04-.8 0-.8 0V1.3h4.1v.9h-3v2.6h1.2c.3 0 .6-.1.9-.1c.3 0 .6 0 .9-.1c.3 0 .6-.1.8-.1zm-2.8 2v2.2h5.1v.9h-6.2V6.5h1.1zM81 .6h1.1v9.2H81V.6zm-3.6 4.2c-.3 0-.6 0-.9-.1c-.3-.1-.6-.3-.8-.4c-.2-.2-.3-.4-.5-.6c-.1-.3-.1-.5-.1-.8c0-.3 0-.6.1-.8c.2-.2.3-.4.5-.6c.2-.2.5-.3.8-.4c.3-.1.6-.2.9-.2c.4 0 .7.1 1 .2c.3.1.5.2.7.4c.3.2.4.4.5.6c.2.2.2.5.2.8c0 .3 0 .5-.2.8c-.1.2-.2.4-.5.6c-.2.1-.4.3-.7.4c-.3.1-.6.1-1 .1zm0-3c-.4 0-.7.1-1 .3c-.2.2-.3.5-.3.8c0 .3.1.6.3.8c.3.2.6.2 1 .2c.4 0 .8 0 1-.2c.3-.2.4-.5.4-.8c0-.3-.1-.6-.4-.8c-.2-.2-.6-.3-1-.3zm3 3.4l.1.7c-.4.1-.8.2-1.3.2c-.4.1-.8.1-1.2.2v3.2h-1s-.04-3.19 0-3.2h-1.3c-.4.1-.8.1-1.1.1l-.2-.9h1.4c.5 0 1 0 1.5-.1c.5 0 1 0 1.6-.1c.5 0 1-.1 1.5-.1zM85 2.9v1.3h-1.2V2.9h1.2zm0 4.2v1.3h-1.2V7.1h1.2zM96.8.6h1.1v5.4h-1.1V3.7s-1.68.01-1.7 0c0 .3-.1.5-.3.8c-.1.2-.3.4-.5.5c-.2.2-.4.3-.7.4c-.2.1-.5.1-.8.1c-.4 0-.7 0-1-.1c-.3-.1-.5-.3-.7-.5c-.3-.2-.4-.4-.5-.7c-.2-.3-.2-.6-.2-.9c0-.3 0-.6.2-.9c.1-.3.2-.5.5-.7c.2-.2.4-.4.7-.5c.3-.1.6-.1 1-.1c.3 0 .6 0 .8.1c.3.1.5.2.7.4c.2.1.4.3.5.5c.2.2.3.5.3.8c.02-.04 1.7 0 1.7 0V.6zm-4 4c.2 0 .3 0 .5-.1c.2 0 .3-.1.5-.2c.1-.2.2-.3.3-.5c0-.1.1-.3.1-.5c0-.2-.1-.4-.1-.6c-.1-.1-.2-.3-.3-.4c-.2-.1-.3-.2-.5-.3c-.2 0-.3-.1-.5-.1c-.2 0-.4.1-.6.1c-.2.1-.3.2-.4.3c-.1.1-.2.3-.3.4c-.1.2-.1.4-.1.6c0 .2 0 .4.1.5c.1.2.2.3.3.5c.1.1.2.2.4.2c.2.1.4.1.6.1zm-1.1 2.7v-.8h6.2v3.3h-1.1V7.3h-5.1zM106.3 6h1.8V.5h1v7h-1v-.8h-1.8v-.7zm-1.9-1.9c-.3 0-.6 0-.9-.1c-.3-.1-.5-.2-.7-.3c-.2-.1-.4-.3-.5-.5c-.1-.2-.1-.4-.1-.7c0-.2 0-.4.1-.6c.1-.2.3-.4.5-.6c.2-.1.4-.2.7-.3c.3-.1.6-.1.9-.1c.4 0 .7 0 1 .1c.3.1.5.2.7.3c.2.2.3.4.5.6c.1.2.1.4.1.6c0 .3 0 .5-.1.7c-.2.2-.3.4-.5.5c-.2.1-.4.2-.7.3c-.3.1-.6.1-1 .1zm0-2.4c-.3 0-.7 0-.9.2c-.2.2-.3.4-.3.6c0 .3.1.5.3.6c.2.2.6.3.9.3c.4 0 .7-.1 1-.3c.2-.1.3-.3.3-.6c0-.2-.1-.4-.3-.6c-.3-.2-.6-.2-1-.2zm-.4 5.6s.03-1.76 0-1.8c-.4.1-.8.1-1.3.1h-1.1l-.1-.9h2.8c.5 0 1-.1 1.6-.1c.5 0 1-.1 1.5-.1v.7c-.3.1-.7.1-1.1.2c-.4 0-.8.1-1.2.1c-.02-.02 0 1.8 0 1.8H104zm-.2 1.4h5.6v.9h-6.7V6.9h1.1v1.8zm7.6 1.8l-.8-.4c.5-.7.8-1.5 1-2.3c.2-.8.3-1.7.3-2.6c0-.9-.1-1.7-.3-2.5c-.2-.8-.5-1.6-1-2.4l.8-.3c.5.8.8 1.6 1.1 2.4c.3.9.4 1.8.4 2.8c0 1-.1 2-.4 2.8c-.3.9-.7 1.7-1.1 2.5z" stroke="none" fill="#949596"/></g></svg>