<?xml version="1.0" standalone="no"?><!DOCTYPE svg PUBLIC "-//W3C//DTD SVG 1.1//EN" "http://www.w3.org/Graphics/SVG/1.1/DTD/svg11.dtd"><svg xmlns="http://www.w3.org/2000/svg" version="1.1" width="162px" height="19.6px" viewBox="0 -2 162 19.6" style="top:-2px"><desc>해양생태계 복원 및 업사이클링</desc><defs/><g id="Polygon114329"><path d="m8.5.5h1.5v11.1H8.5V6.3h-.8v4.8H6.2V.7h1.5v4.3h.8V.5zM3.9.8v1.4h1.9v1.3H.5V2.2h1.9V.8h1.5zm-.7 3.1c.3 0 .6.1.9.2c.3.2.6.4.8.6c.2.2.4.5.5.8c.1.4.2.7.2 1.1c0 .4-.1.7-.2 1c-.1.4-.3.6-.5.9c-.2.2-.5.4-.8.5c-.3.2-.6.2-.9.2c-.4 0-.7 0-1-.2c-.3-.1-.6-.3-.8-.5c-.2-.3-.4-.5-.5-.9c-.1-.3-.2-.6-.2-1c0-.4.1-.7.2-1.1c.1-.3.3-.6.5-.8c.2-.2.5-.4.8-.6c.3-.1.6-.2 1-.2zm0 4c.3 0 .5-.1.7-.3c.2-.3.3-.6.3-1c0-.4-.1-.8-.3-1c-.2-.2-.4-.3-.7-.3c-.3 0-.6.1-.8.3c-.2.2-.3.6-.3 1c0 .4.1.7.3 1c.2.2.5.3.8.3zm18.4-4.7h-1.4v1.1h1.4v1.3h-1.4v1.4h-1.6V.5h1.6v1.4h1.4v1.3zm-4 .6c0 .4-.1.8-.3 1.1c-.1.3-.3.6-.6.8c-.3.3-.6.5-.9.6c-.4.1-.8.2-1.2.2c-.4 0-.8-.1-1.2-.2c-.4-.1-.7-.3-1-.6c-.2-.2-.4-.5-.6-.8c-.1-.3-.2-.7-.2-1.1c0-.4.1-.7.2-1.1c.2-.3.4-.6.6-.8c.3-.2.6-.4 1-.6c.4-.1.8-.2 1.2-.2c.4 0 .8.1 1.2.2l.9.6c.3.2.5.5.6.8c.2.4.3.7.3 1.1zm-4.5 0c0 .5.2.8.4 1c.3.3.6.4 1.1.4c.4 0 .7-.1 1-.4c.3-.2.4-.5.4-1c0-.4-.1-.7-.4-1c-.3-.2-.6-.3-1-.3c-.5 0-.8.1-1.1.3c-.2.3-.4.6-.4 1zm3.5 3.4c.6 0 1.1.1 1.5.2c.5.1.9.2 1.2.4c.3.2.6.4.8.7c.1.3.2.6.2.9c0 .4-.1.7-.2.9c-.2.3-.5.5-.8.7c-.3.2-.7.4-1.2.5c-.4.1-.9.1-1.5.1c-.6 0-1.1 0-1.6-.1c-.4-.1-.8-.3-1.1-.5c-.4-.2-.6-.4-.8-.7c-.2-.2-.3-.5-.3-.9c0-.3.1-.6.3-.9c.2-.3.4-.5.8-.7c.3-.2.7-.3 1.1-.4c.5-.1 1-.2 1.6-.2zm0 3.2c.7 0 1.2-.1 1.6-.3c.4-.1.5-.4.5-.7c0-.3-.1-.5-.5-.7c-.4-.2-.9-.2-1.6-.2c-1.5 0-2.2.3-2.2.9c0 .3.2.6.6.7c.3.2.9.3 1.6.3zm12.9-5.9v2.4h-1.4V.7h1.4v2.5h.9V.5h1.5v6.8h-1.5V4.5h-.9zm-1.5.9l-.8 1.2c-.5-.1-.8-.4-1.2-.7c-.3-.3-.5-.7-.7-1.1c-.2.5-.5.9-.9 1.3c-.3.4-.7.7-1.2.9l-.9-1.2c.4-.2.7-.4 1-.7c.3-.2.5-.5.7-.8c.1-.2.3-.5.3-.9c.1-.3.2-.6.2-.9c-.03-.02 0-1.3 0-1.3h1.5v1.3c0 .3 0 .6.1.9c.1.3.2.5.4.8c.1.3.4.5.6.7c.3.2.6.4.9.5zm.2 2.1c.5 0 1 0 1.5.1c.5.1.9.2 1.2.4c.3.2.6.4.8.7c.2.2.2.5.2.8c0 .3 0 .6-.2.9c-.2.3-.5.5-.8.7c-.3.1-.7.3-1.2.4c-.5.1-1 .1-1.5.1c-.6 0-1.2 0-1.6-.1c-.5-.1-.9-.3-1.2-.4c-.4-.2-.6-.4-.8-.7c-.2-.3-.3-.6-.3-.9c0-.3.1-.6.3-.8c.2-.3.4-.5.8-.7c.3-.2.7-.3 1.2-.4c.4-.1 1-.1 1.6-.1zm0 2.9c1.4 0 2.2-.3 2.2-.9c0-.6-.8-.8-2.2-.8c-.8 0-1.3 0-1.7.2c-.4.1-.6.3-.6.6c0 .3.2.5.6.7c.4.1.9.2 1.7.2zM41.4.5h1.5v11.1h-1.5V6.1h-.9v5h-1.4V.7h1.4v4.1h.9V.5zm-6.1 5.3s.03 1.98 0 2c.6 0 1.2 0 1.7-.1c.4 0 1-.1 1.5-.1l.1 1.2c-.3.1-.6.1-.9.2h-1c-.3.1-.6.1-1 .1h-1.1c0-.03-.8 0-.8 0V1.7h4.5v1.2h-3v1.7h2.8v1.2h-2.8zM52.4.5h1.5v11.1h-1.5V.5zm-2.2 3V.8h1.4v10.3h-1.4V7.5h-1.6V6.2h1.6V4.7s-1.36.02-1.4 0c-.2.9-.6 1.8-1.2 2.5c-.6.8-1.4 1.5-2.4 2.1l-.9-1.1c.5-.3 1-.7 1.4-1.1c.4-.3.7-.7 1-1.1c.3-.5.5-.9.6-1.4c.2-.4.3-.9.3-1.5h-2.7V1.8s4.3.05 4.3 0v.9c0 .2-.1.5-.1.8c0-.04 1.1 0 1.1 0zM63.9 6h4.2v1.3h-10V6h4.2v-.9h-2.9V.8h1.5v1h4.3v-1h1.6v4.3h-2.9v.9zm-3-3v.9h4.3v-.9h-4.3zm-1.7 6.3V8h7.7v3.6h-1.6V9.3h-6.1zM74.7 7h2.1V.5h1.6v8.4h-1.6v-.9h-2.1v-1zm-2.1-2.1c-.4 0-.8-.1-1.1-.2c-.4-.1-.7-.2-.9-.4c-.3-.2-.4-.4-.6-.6c-.1-.2-.2-.5-.2-.8c0-.3.1-.6.2-.8c.2-.3.3-.5.6-.6c.2-.2.5-.3.9-.4c.3-.1.7-.2 1.1-.2c.4 0 .7.1 1.1.2c.3.1.6.2.8.4c.3.1.5.3.6.6c.2.2.2.5.2.8c0 .3 0 .6-.2.8c-.1.2-.3.4-.6.6c-.2.2-.5.3-.8.4c-.4.1-.7.2-1.1.2zm0-2.8c-.4 0-.7 0-.9.2c-.3.1-.4.3-.4.6c0 .3.1.5.4.6c.2.1.5.2.9.2c.3 0 .6-.1.9-.2c.2-.1.3-.3.3-.6c0-.3-.1-.5-.3-.6c-.3-.2-.6-.2-.9-.2zm-.6 8h6.6v1.3h-8.2V8.1h1.5s.04-1.46 0-1.5c-.4.1-.9.1-1.4.1h-1.3L69 5.4h3.4c.6 0 1.2-.1 1.8-.1c.7-.1 1.3-.1 1.8-.2l.2 1.1c-.5.1-.9.2-1.4.2c-.4.1-.8.1-1.3.1v2.1H72v1.5zM91.9.6v6.2h-1.6V.6h1.6zm-3.3.6v4.7h-5.3V1.2h5.3zm-1.5 3.4V2.4h-2.3v2.2h2.3zm5 4s-3.1-.02-3.1 0c0 .2.1.4.3.5c.2.2.4.4.7.6c.3.2.6.3 1 .4c.4.1.9.2 1.5.3l-.5 1.2c-1-.1-1.7-.3-2.4-.6c-.6-.3-1.1-.7-1.4-1.1c-.4.4-.9.8-1.5 1.1c-.6.3-1.4.5-2.4.6l-.5-1.2c.6-.1 1.1-.2 1.5-.3c.4-.1.8-.2 1.1-.4c.2-.2.5-.4.6-.5c.2-.2.3-.4.3-.6c.02-.02-3 0-3 0V7.4h3.1v-.9h1.6v.9h3.1v1.2zM104 .5h1.6v6H104V4.3s-1.75-.04-1.7 0c-.1.3-.2.5-.4.8c-.2.2-.4.4-.7.6c-.2.2-.5.3-.8.4c-.3.1-.7.2-1 .2c-.4 0-.8-.1-1.2-.2c-.3-.2-.6-.3-.9-.6c-.2-.2-.4-.5-.6-.8c-.1-.3-.2-.7-.2-1.1c0-.3.1-.7.2-1l.6-.9c.3-.2.6-.4.9-.5c.4-.1.8-.2 1.2-.2c.3 0 .7 0 1 .1c.3.1.6.3.8.4c.3.2.5.4.7.7c.1.2.3.5.3.8c.04-.02 1.8 0 1.8 0V.5zM99.4 5c.4 0 .7-.2 1-.4c.3-.2.4-.5.4-1c0-.4-.1-.7-.4-.9c-.3-.3-.6-.4-1-.4c-.4 0-.7.1-1 .4c-.3.2-.4.5-.4.9c0 .5.1.8.4 1c.3.2.6.4 1 .4zm4.6 3v-1h1.6v4.5h-7.3V7h1.5v1h4.2zm0 2.2v-1h-4.2v1h4.2zm13.6-5.4v1.3H116v5.5h-1.6V.5h1.6v4.3h1.6zm-6.2-3.4v1.6c0 .5 0 1 .1 1.5c.1.5.3.9.5 1.4c.2.4.5.8.8 1.1c.3.4.7.7 1.2.9l-1 1.2c-.6-.3-1.1-.7-1.5-1.2c-.4-.5-.7-1.1-.9-1.8c-.2.7-.6 1.4-1 1.9c-.4.6-.9 1-1.6 1.3l-.9-1.3c.5-.2.9-.5 1.2-.8c.3-.4.6-.8.8-1.2c.3-.5.4-1 .5-1.5c.1-.5.2-1 .2-1.5V1.4h1.6zm14.5-.9h1.6v11.1h-1.6V.5zm-4.4.8c.4 0 .8.1 1.2.3c.3.2.6.4.9.8c.3.3.5.7.6 1.2c.2.5.2 1 .2 1.6c0 .7 0 1.2-.2 1.7c-.1.5-.3.9-.6 1.2c-.3.4-.6.6-.9.8c-.4.2-.8.3-1.2.3c-.4 0-.8-.1-1.1-.3c-.4-.2-.7-.4-1-.8c-.2-.3-.4-.7-.6-1.2c-.1-.5-.2-1-.2-1.7c0-.6.1-1.1.2-1.6c.2-.5.4-.9.6-1.2c.3-.4.6-.6 1-.8c.3-.2.7-.3 1.1-.3zm0 1.4c-.4 0-.7.2-1 .7c-.2.4-.4 1-.4 1.8c0 .9.2 1.5.4 1.9c.3.5.6.7 1 .7c.4 0 .8-.2 1-.7c.3-.4.4-1 .4-1.9c0-.8-.1-1.4-.4-1.8c-.2-.5-.6-.7-1-.7zm16.4 2.1h1.4v1.2h-10V4.8h7c.1-.2.1-.3.1-.5c0-.1.1-.3.1-.4c-.02-.02-6.1.2-6.1.2l-.2-1.2s6.35-.12 6.3-.1c.1-.1.1-.2.1-.3c-.04-.04 0-.4 0-.4h-6.1V.9h7.6s.02 1.01 0 1v1.4c0 .4-.1.9-.2 1.5zM132 9.6v.7h6.6v1.2h-8.2v-3h6.2v-.6h-6.2V6.7h7.8v2.9H132zM149.4.5v6.7h-1.5V.5h1.5zm-2.5 4.7l.2 1.3c-.4.1-.8.1-1.2.2c-.4 0-.8 0-1.2.1h-3.9V3.4h3.5v-1h-3.5V1.2h5.1v3.4h-3.5s-.01.93 0 .9h2.4c.4-.1.7-.1 1.1-.1c.3-.1.7-.1 1-.2zm-1.2 2.3c.6 0 1.1 0 1.6.1c.5.1.9.2 1.2.4c.3.2.6.4.8.7c.1.2.2.5.2.8c0 .4-.1.6-.2.9c-.2.3-.5.5-.8.7c-.3.1-.7.3-1.2.4c-.5.1-1 .1-1.6.1c-.6 0-1.1 0-1.6-.1c-.4-.1-.8-.3-1.1-.4c-.4-.2-.6-.4-.8-.7c-.2-.3-.3-.5-.3-.9c0-.3.1-.6.3-.8c.2-.3.4-.5.8-.7c.3-.2.7-.3 1.1-.4c.5-.1 1-.1 1.6-.1zm-2.2 2c0 .6.8.9 2.2.9c1.5 0 2.2-.3 2.2-.9c0-.5-.7-.8-2.2-.8c-1.4 0-2.2.3-2.2.8z" stroke="none" fill="#fff"/></g></svg>