<?xml version="1.0" standalone="no"?><!DOCTYPE svg PUBLIC "-//W3C//DTD SVG 1.1//EN" "http://www.w3.org/Graphics/SVG/1.1/DTD/svg11.dtd"><svg xmlns="http://www.w3.org/2000/svg" version="1.1" width="409.3px" height="26.8px" viewBox="0 -3 409.3 26.8" style="top:-3px"><desc>국립현대미술관 파트너십</desc><defs/><g id="Polygon117344"><path d="m14.8 8.4H8.7v2.5h4.4v5.4h-1.7v-3.9H2.3v-1.5h4.6V8.4h-6V7s10.05.02 10 0c.2-.8.3-1.5.4-2.2V3c.02.03-8.7 0-8.7 0V1.6H13s.04 1.19 0 1.2v1.9c0 .7-.1 1.4-.3 2.3c0 .02 2.1 0 2.1 0v1.4zM27.3.9h1.8v8.5h-1.8V.9zm-1.6 6.3l.2 1.5c-.6.1-1.2.1-1.7.2c-.6.1-1.2.1-1.8.1c-.6.1-1.2.1-1.8.1h-3.4V4.7h5.3V3.1h-5.3V1.6h7v4.4h-5.3s.04 1.68 0 1.7h1.9c.6-.1 1.1-.1 1.7-.1c.5-.1 1.1-.1 1.6-.2c.5 0 1.1-.1 1.6-.2zm1.6 4.5v-1.6h1.8v6H19v-6h1.8v1.6h6.5zm0 3v-1.6h-6.5v1.6h6.5zm13.2-12v1.4H32V2.7h3.5V.9h1.7v1.8h3.3zm2.4 9.9v-3h-2.3V8.1h2.3V6.3h-2.3V4.9h2.3v-4h1.8v11.7h-1.8zm-3-4.8c0 .4-.1.8-.3 1.2c-.2.3-.4.6-.7.9c-.3.3-.7.5-1.1.6c-.5.2-.9.2-1.5.2c-.5 0-1 0-1.4-.2c-.4-.1-.8-.3-1.1-.6c-.3-.3-.6-.6-.7-.9c-.2-.4-.3-.8-.3-1.2c0-.5.1-.9.3-1.3c.1-.3.4-.6.7-.9c.3-.3.7-.5 1.1-.6c.4-.2.9-.2 1.4-.2c.6 0 1 0 1.5.2c.4.1.8.3 1.1.6c.3.3.5.6.7.9c.2.4.3.8.3 1.3zm-5.4 0c0 .5.1.9.5 1.1c.3.3.8.5 1.3.5c.6 0 1.1-.2 1.4-.5c.3-.2.5-.6.5-1.1c0-.6-.2-1-.5-1.2c-.3-.3-.8-.5-1.4-.5c-.5 0-1 .2-1.3.5c-.4.2-.5.6-.5 1.2zm2 6.8h8.5v1.4H34.7v-4.4h1.8v3zM59 .9h1.6v15.4H59V8.4h-1.9v7.1h-1.6V1.2h1.6v5.8h1.9V.9zm-9.2 3.3s-.04 6.97 0 7c.8 0 1.7-.1 2.4-.1c.7-.1 1.5-.2 2.3-.4l.2 1.5c-.5.1-1 .2-1.4.2c-.4.1-.9.1-1.3.1c-.5.1-.9.1-1.4.1h-1.5c-.04.01-1.1 0-1.1 0V2.7h5.7v1.5h-3.9zM73.9.9h1.8v15.4h-1.8V.9zm-10 1.5h7.2v10.1h-7.2V2.4zm5.5 1.4h-3.8v7.3h3.8V3.8zM91.8 5l-.6 1.3c-1.3-.2-2.4-.5-3.4-1c-1-.5-1.7-1.1-2.2-1.9c-.5.8-1.3 1.4-2.2 1.9c-1 .5-2.1.8-3.4 1L79.4 5c.7-.1 1.4-.3 2.1-.5c.6-.2 1.2-.5 1.7-.8c.4-.3.8-.7 1.1-1c.2-.4.4-.9.4-1.3c-.02.03 0-.4 0-.4h1.8s-.02.43 0 .4c0 .4.1.9.4 1.3c.2.3.6.7 1.1 1c.5.3 1 .6 1.7.8c.6.2 1.3.4 2.1.5zm.7 3.5h-6.1v1.3h4.4v3.7H82v1.3h9.2v1.3H80.3v-3.8h8.8v-1.1h-8.8V9.8h4.4V8.5h-6.1V7.1h13.9v1.4zm13.8-2.7h2v1.4h-2v5.2h-1.8V.9h1.8v4.9zm-4 1.7l-1.7-.2l.3-2.2c0-.6.1-1.1.1-1.6h-6V2.1h7.7s-.02.86 0 .9c0 .5 0 1.1-.1 1.9c0 .7-.1 1.6-.3 2.6zm1.3.8l.1 1.2c-.8.2-1.6.3-2.4.4c-.9.1-1.7.1-2.5.2c-.9 0-1.7 0-2.4.1h-2.2c.01-.02-.2-1.4-.2-1.4c0 0 1.51-.04 1.5 0c.5 0 1-.1 1.6-.1V5.6h1.7s.02 3.07 0 3.1c.8-.1 1.6-.1 2.4-.2c.8 0 1.6-.1 2.4-.2zm-5.5 3.1v3.2h8.7v1.4H96.3v-4.6h1.8zm29.7-4.5v1.5h-2.4v7.9h-1.8V.9h1.8v6h2.4zm-7.1-3s-.03 7.05 0 7c.3 0 .7 0 1-.1c.4 0 .7 0 1.1-.1l.1 1.3c-.8.2-1.6.3-2.5.3c-.8.1-1.6.2-2.4.2c-.8 0-1.6.1-2.4.1h-2.1c-.03 0-.2-1.4-.2-1.4h1.9V3.9h-1.5V2.5h8.5v1.4h-1.5zm-3.8 0s-.03 7.22 0 7.2h1c.4 0 .7 0 1.1-.1c-.03.03 0-7.1 0-7.1h-2.1zM141.4 9v1.4h-10.7V2.2h10.6v1.4h-8.8v1.9h8.4v1.4h-8.4v2.1h8.9zM129 13h14v1.4h-14V13zM155.6.9h1.7v15.4h-1.7v-9h-4.5V5.8h4.5V.9zm-8.5 1.7s.03 8.57 0 8.6c1.1 0 2.1-.1 3.2-.2c1-.1 2.1-.2 3.2-.4l.2 1.4c-1.3.2-2.4.4-3.6.5c-1.1.1-2.3.1-3.5.1c.02.03-1.2 0-1.2 0v-10h1.7zM171 .9h1.8v8.3H171V.9zm-1.5 6.5l-.9 1.4c-.9-.3-1.6-.8-2.3-1.3c-.6-.6-1.1-1.2-1.4-2c-.4.8-.9 1.6-1.5 2.2c-.7.6-1.5 1-2.4 1.3l-.9-1.3c.6-.2 1.2-.5 1.7-.8l1.2-1.2c.3-.4.5-.9.7-1.4c.2-.4.2-1 .2-1.5c.05.02 0-1.4 0-1.4h1.8s.03 1.42 0 1.4c0 .5.1 1 .3 1.5c.2.4.4.9.7 1.3c.3.4.7.7 1.2 1.1c.5.3 1 .5 1.6.7zm1.6 4.2V9.9h1.7v6.2h-10V9.9h1.7v1.7h6.6zm0 3.1v-1.8h-6.6v1.8h6.6z" stroke="none" fill="#111111"/></g></svg>