<?xml version="1.0" standalone="no"?><!DOCTYPE svg PUBLIC "-//W3C//DTD SVG 1.1//EN" "http://www.w3.org/Graphics/SVG/1.1/DTD/svg11.dtd"><svg xmlns="http://www.w3.org/2000/svg" version="1.1" width="409.3px" height="26.8px" viewBox="0 -3 409.3 26.8" style="top:-3px"><desc>현대그린존</desc><defs/><g id="Polygon122004"><path d="m9.4 2.7v1.4H.9V2.7h3.5V.9h1.7v1.8h3.3zm2.4 9.9v-3H9.5V8.1h2.3V6.3H9.5V4.9h2.3v-4h1.8v11.7h-1.8zm-3-4.8c0 .4-.1.8-.3 1.2c-.2.3-.4.6-.7.9c-.3.3-.7.5-1.1.6c-.5.2-.9.2-1.5.2c-.5 0-1 0-1.4-.2c-.4-.1-.8-.3-1.1-.6c-.3-.3-.6-.6-.7-.9c-.2-.4-.3-.8-.3-1.2c0-.5.1-.9.3-1.3c.1-.3.4-.6.7-.9c.3-.3.7-.5 1.1-.6c.4-.2.9-.2 1.4-.2c.6 0 1 0 1.5.2c.4.1.8.3 1.1.6c.3.3.5.6.7.9c.2.4.3.8.3 1.3zm-5.5 0c0 .5.2.9.6 1.1c.3.3.8.5 1.3.5c.6 0 1.1-.2 1.4-.5c.3-.2.5-.6.5-1.1c0-.6-.2-1-.5-1.2c-.3-.3-.8-.5-1.4-.5c-.5 0-1 .2-1.3.5c-.4.2-.6.6-.6 1.2zm2.1 6.8h8.5v1.4H3.6v-4.4h1.8v3zM27.8.9h1.7v15.4h-1.7V8.4H26v7.1h-1.6V1.2h1.6v5.8h1.8V.9zm-9.2 3.3s.05 6.97 0 7c.9 0 1.7-.1 2.5-.1c.7-.1 1.5-.2 2.3-.4l.1 1.5c-.4.1-.9.2-1.3.2c-.4.1-.9.1-1.3.1c-.5.1-.9.1-1.4.1H18c-.05.01-1.1 0-1.1 0V2.7h5.7v1.5h-4zm23.7-.1c.03 0 0-.2 0-.2h-8.8V2.4h10.6s-.02 1.7 0 1.7v1.6c0 .5-.1 1.1-.1 1.7c0 .6-.1 1.2-.2 1.9c0 .7-.1 1.4-.3 2.3l-1.8-.2c.2-.8.3-1.5.4-2.2c.1-.6.1-1.3.2-1.8V4.1zM32 12.7h13.9v1.4H32v-1.4zM60.2.9v11.3h-1.8V.9h1.8zm-3.4 7.3l.2 1.5c-.5.1-1.1.1-1.7.2c-.5.1-1.1.1-1.7.2h-1.9c-.6.1-1.3.1-2.1.1c.01-.03-1.3 0-1.3 0V5.3h5.3V3.4h-5.3V2h7v4.6H50s.05 2.14 0 2.1h2c.6 0 1.1 0 1.7-.1c.5 0 1.1 0 1.6-.1l1.5-.3zm-5 6.4h8.8v1.4H50.1v-4.7h1.7v3.3zm12.7-6.8l-.7-1.4c.7-.1 1.4-.2 2-.4c.6-.3 1.1-.5 1.6-.8c.4-.3.8-.7 1-1c.3-.4.4-.8.4-1.2c.05.03-4.4 0-4.4 0V1.6h11.3v1.4s-4.52.03-4.5 0c0 .4.2.8.4 1.2c.3.3.6.7 1.1 1c.4.3.9.5 1.5.8c.6.2 1.3.3 2 .4l-.6 1.4c-1.4-.2-2.5-.5-3.5-1.1c-1-.6-1.7-1.3-2.1-2.2c-.4.9-1.1 1.6-2.1 2.2c-.9.5-2.1.9-3.4 1.1zm6.4 1.3h6.1v1.4H63.1V9.1h6V6.7h1.8v2.4zm-4.3 2.5v3h8.8v1.4H64.8v-4.4h1.8z" stroke="none" fill="#111111"/></g></svg>