<?xml version="1.0" encoding="utf-8"?>
<!-- Generator: Adobe Illustrator 27.5.0, SVG Export Plug-In . SVG Version: 6.00 Build 0)  -->
<svg version="1.1" id="레이어_1" xmlns="http://www.w3.org/2000/svg" xmlns:xlink="http://www.w3.org/1999/xlink" x="0px"
	 y="0px" viewBox="0 0 1920 1080" style="enable-background:new 0 0 1920 1080;" xml:space="preserve">
<style type="text/css">
	.st0{clip-path:url(#SVGID_00000031900341262028038170000015041271774638907823_);}
	.st1{opacity:0;clip-path:url(#SVGID_00000140015164194025753910000004375547593981823908_);}
	.st2{clip-path:url(#SVGID_00000019663231339713298160000015164448814511909792_);fill:#FFFFFF;}
	.st3{fill:#FFFFFF;}
</style>
<g>
	<defs>
		<rect id="SVGID_1_" y="470.5" width="1920" height="146"/>
	</defs>
	<clipPath id="SVGID_00000150814994421617625830000005620135692483110326_">
		<use xlink:href="#SVGID_1_"  style="overflow:visible;"/>
	</clipPath>
	<g style="clip-path:url(#SVGID_00000150814994421617625830000005620135692483110326_);">
		<defs>
			<rect id="SVGID_00000168797827692445451450000002968677370492345776_" y="470.5" width="1920" height="146"/>
		</defs>
		<clipPath id="SVGID_00000124155218762106962400000015909367453695010705_">
			<use xlink:href="#SVGID_00000168797827692445451450000002968677370492345776_"  style="overflow:visible;"/>
		</clipPath>
		<g style="opacity:0;clip-path:url(#SVGID_00000124155218762106962400000015909367453695010705_);">
			<g>
				<defs>
					<rect id="SVGID_00000024713871457682097080000016582663741779614141_" x="-9" y="463.5" width="1938" height="154"/>
				</defs>
				<clipPath id="SVGID_00000008839732615631070920000001685738958171358367_">
					<use xlink:href="#SVGID_00000024713871457682097080000016582663741779614141_"  style="overflow:visible;"/>
				</clipPath>
				
					<rect y="470.5" style="clip-path:url(#SVGID_00000008839732615631070920000001685738958171358367_);fill:#FFFFFF;" width="1920" height="146"/>
			</g>
		</g>
	</g>
	<g style="clip-path:url(#SVGID_00000150814994421617625830000005620135692483110326_);">
		<path class="st3" d="M87.3,545.8v7.2h13.1v2.5H71.2V553h13.1v-7.2H87.3z M76.1,529.9h19.6v14.2H76.1V529.9z M79,541.7h13.6v-9.3
			H79V541.7z"/>
		<path class="st3" d="M100.8,545.1H130v2.5h-13.1v11h-3v-11h-13.1V545.1z M108.6,538.6h17.3v2.5h-20.3v-11.7h19.5v2.4h-16.5V538.6z
			"/>
		<path class="st3" d="M132.6,532.9v-2.5h13.6v4.3c0,3.5-1.1,6.6-3.3,9.3c-2.2,2.7-5.6,5.1-10.2,7.1l-1.2-2.4c4.1-1.8,7.1-3.8,8.9-6
			c1.8-2.2,2.8-4.8,2.8-7.8v-2H132.6z M155,539.4h5.4v2.5H155V558h-3v-30.6h3V539.4z"/>
		<path class="st3" d="M196.8,542.8h-13.1v5.1h8.1v11h-19.2v-11h8.1v-5.1h-13.1v-2.5h8c0.7-2.7,1.1-5.3,1.1-7.8v-1.1h-5.9V529h8.9
			v3.5c0,2.3-0.3,4.9-1,7.8h9.6c0.8-2.7,1.3-5.3,1.3-7.8v-1.1h-7.7V529h10.7v3.5c0,2.4-0.4,5-1.2,7.8h5.5V542.8z M175.5,556.5h13.3
			v-6.1h-13.3V556.5z"/>
		<path class="st3" d="M217.5,543.6c-3.1,0.7-6.2,1.1-9.2,1.3v12.3h-3V545c-0.5,0-1.3,0-2.3,0h-6v-2.4h3.7c0.5-1.5,0.9-3,1.1-4.4
			c0.2-1.4,0.3-2.8,0.3-4.3v-1h-4.2v-2.4h7.2v3.4c0,3-0.5,5.9-1.4,8.7h0.3c2.2,0,4.5-0.1,6.8-0.4c0.4-1.4,0.6-2.7,0.7-4
			c0.1-1.3,0.2-2.6,0.2-4.1V533H207v-2.4h7.8v3.6c0,2.7-0.3,5.2-0.9,7.7c1.1-0.2,2.1-0.4,3.2-0.6L217.5,543.6z M219.8,547.9v-20.5h3
			V558h-3v-7.6h-7.5v-2.5H219.8z"/>
		<path class="st3" d="M246.8,545.1c-2.4,0.5-4.8,0.9-7,1.2s-4.7,0.3-7.3,0.3h-5.8v-2.4h6.8c0.8,0,1.4,0,1.8,0v-3.6
			c-1.9-0.2-3.4-0.8-4.5-1.8c-1.1-1-1.7-2.2-1.7-3.6v-0.5c0-1,0.3-2,1-2.8c0.6-0.8,1.6-1.5,2.7-2c1.2-0.5,2.5-0.7,4-0.7
			s2.8,0.2,4,0.7c1.2,0.5,2.1,1.1,2.7,2c0.6,0.9,1,1.8,1,2.8v0.5c0,1.4-0.6,2.6-1.7,3.6c-1.1,1-2.6,1.6-4.5,1.8v3.4
			c3-0.2,5.7-0.7,8.1-1.3L246.8,545.1z M249.1,550.8c0,1.2,0.5,2.3,1.5,3.4c1,1.1,2.3,2,3.9,2.7l-1.2,2.2c-1.2-0.5-2.3-1.1-3.3-1.9
			c-1-0.8-1.8-1.6-2.5-2.5c-0.7,1-1.5,1.9-2.5,2.6s-2,1.4-3.2,2c-1.1-0.5-2.2-1.1-3.1-1.9c-1-0.8-1.8-1.7-2.4-2.6
			c-1.3,1.9-3.2,3.5-5.6,4.8l-1.4-2.1c1.7-0.8,3-1.8,4-3c1-1.2,1.5-2.4,1.5-3.6v-2.3h2.9v2.3c0,1,0.4,2.1,1.1,3.1s1.8,1.9,3,2.6
			c1.2-0.7,2.2-1.5,3-2.6c0.8-1.1,1.2-2.1,1.2-3.1v-2.3h2.9V550.8z M231.9,535.1c0,0.9,0.4,1.7,1.3,2.3c0.9,0.6,2.1,0.9,3.6,0.9
			s2.7-0.3,3.6-0.9c0.9-0.6,1.3-1.4,1.3-2.3v-0.4c0-0.9-0.4-1.7-1.3-2.3c-0.9-0.6-2.1-0.9-3.6-0.9s-2.7,0.3-3.6,0.9
			c-0.9,0.6-1.3,1.4-1.3,2.3V535.1z M251.4,527.4v10.2h5.4v2.5h-5.4v7h-3v-19.7H251.4z"/>
		<path class="st3" d="M275.1,543.7c-2.8,0.5-5.4,0.9-7.9,1.2s-5.4,0.3-8.6,0.3v-15.3h13.5v2.4h-10.5v10.4h0.7
			c1.7,0,3.6-0.1,5.8-0.3c2.2-0.2,4.4-0.6,6.5-1.1L275.1,543.7z M266.4,548.3v7.9h16.9v2.5h-19.9v-10.4H266.4z M270.5,538.2v-2.4
			h8.5v-8.3h3v23.1h-3v-12.3H270.5z"/>
		<path class="st3" d="M294.6,548.9c0.8,1.3,1.9,2.3,3.2,3.1s2.7,1.2,4.2,1.2c1.1,0,2.1-0.2,2.9-0.6c0.8-0.4,1.4-1,1.8-1.6
			c0.4-0.7,0.6-1.4,0.6-2.1c0-1-0.3-1.9-1-2.7c-0.6-0.7-1.6-1.5-2.9-2.2l-3.7-1.9c-1.5-0.8-2.7-1.7-3.6-2.8c-0.9-1-1.3-2.3-1.3-3.9
			c0-1.2,0.3-2.3,0.9-3.3c0.6-1,1.5-1.8,2.7-2.3c1.2-0.6,2.5-0.8,4.1-0.8c1.3,0,2.5,0.3,3.8,0.8c1.3,0.5,2.3,1.2,3.2,2.1v3.7
			c-0.9-1.2-2-2.2-3.3-3c-1.3-0.7-2.5-1.1-3.8-1.1c-1.3,0-2.4,0.4-3.2,1.1c-0.8,0.7-1.2,1.6-1.2,2.7c0,0.9,0.3,1.6,0.9,2.2
			c0.6,0.6,1.5,1.3,2.9,2l3.6,1.9c1.7,0.9,3,1.9,3.9,3.1c0.8,1.2,1.3,2.6,1.3,4.2c0,1.4-0.3,2.6-1,3.7c-0.7,1.1-1.7,1.9-3,2.5
			c-1.3,0.6-2.8,0.9-4.6,0.9c-1.6,0-3.1-0.3-4.4-0.8c-1.3-0.6-2.3-1.2-3-2V548.9z"/>
		<path class="st3" d="M313.3,529.4h3.2v16.3c0,2.3,0.6,4.2,1.8,5.5c1.2,1.3,2.9,2,5.2,2c2.2,0,3.9-0.7,5.1-2
			c1.2-1.3,1.8-3.2,1.8-5.5v-16.3h3v16.4c0,1.9-0.4,3.6-1.2,5.1c-0.8,1.5-1.9,2.7-3.4,3.5c-1.5,0.8-3.3,1.3-5.4,1.3
			c-2.1,0-3.8-0.4-5.4-1.3c-1.5-0.9-2.7-2-3.4-3.5c-0.8-1.5-1.2-3.2-1.2-5.1V529.4z"/>
		<path class="st3" d="M344.4,555.2l-9.7-25.8h3.4l8.1,22l7.9-22h3.2l-9.5,25.8H344.4z"/>
		<path class="st3" d="M382.1,555.2h-15.6v-25.8h15.4v2.6h-12.2v8.7H380v2.6h-10.4v9.4h12.4V555.2z"/>
		<path class="st3" d="M392.5,555.2l-9.7-25.8h3.4l8.1,22l7.9-22h3.2l-9.5,25.8H392.5z"/>
		<path class="st3" d="M405.1,552.7v-2.4h7.1c4.5,0,8.9-0.5,13.2-1.4l0.5,2.4c-2.5,0.5-5,0.9-7.3,1.1s-4.8,0.3-7.4,0.3H405.1z
			 M411.4,543.9c-1.2-0.6-2.1-1.5-2.8-2.6s-1-2.3-1-3.7V537c0-1.4,0.3-2.6,1-3.7c0.7-1.1,1.6-2,2.8-2.6c1.2-0.6,2.5-0.9,4-0.9
			c1.5,0,2.8,0.3,4,0.9c1.2,0.6,2.1,1.5,2.8,2.6c0.7,1.1,1,2.3,1,3.7v0.7c0,1.4-0.3,2.6-1,3.7c-0.7,1.1-1.6,1.9-2.8,2.6
			c-1.2,0.6-2.5,0.9-4,0.9C413.9,544.9,412.6,544.5,411.4,543.9z M419,541.1c1-0.9,1.4-2,1.4-3.4V537c0-1.4-0.5-2.5-1.4-3.4
			c-1-0.9-2.2-1.4-3.6-1.4c-1.5,0-2.7,0.5-3.6,1.4c-1,0.9-1.4,2.1-1.4,3.4v0.6c0,1.4,0.5,2.5,1.4,3.4c1,0.9,2.2,1.3,3.6,1.3
			C416.9,542.4,418.1,542,419,541.1z M430.9,558h-3v-30.6h3V558z"/>
		<path class="st3" d="M454,537.6c0,1.5,0.7,3.2,2.2,5.1s3.3,3.5,5.6,4.9l-1.6,2.3c-3.3-2.2-5.9-4.7-7.8-7.6c-1,1.6-2.1,3.1-3.5,4.5
			c-1.3,1.4-2.8,2.6-4.4,3.7l-1.6-2.2c1.5-0.9,2.8-2,4-3.2c1.2-1.2,2.2-2.5,2.9-3.8c0.7-1.3,1-2.5,1-3.5v-7.6h3V537.6z M465,558
			v-30.6h3V558H465z"/>
		<path class="st3" d="M473.9,545.4l-1.5-2.2c2.2-1.2,4.1-2.7,5.5-4.4s2.1-3.4,2.1-5V532h-6.3v-2.5h15.5v2.5h-6.3v1.7
			c0,1.5,0.7,3.1,2,4.7c1.3,1.6,3.2,3,5.5,4.2l-1.4,2.3c-3.2-1.8-5.8-4-7.5-6.6C479.6,541.2,477.1,543.6,473.9,545.4z M493.6,550.6
			h-16.3v-2.5h19.3v11.2h-3V550.6z M496.6,535.6h5.4v2.5h-5.4v8.2h-3v-18.9h3V535.6z"/>
	</g>
</g>
</svg>
