<?xml version="1.0" encoding="utf-8"?>
<!-- Generator: Adobe Illustrator 27.5.0, SVG Export Plug-In . SVG Version: 6.00 Build 0)  -->
<svg version="1.1" id="레이어_1" xmlns="http://www.w3.org/2000/svg" xmlns:xlink="http://www.w3.org/1999/xlink" x="0px"
	 y="0px" viewBox="0 0 1920 1080" style="enable-background:new 0 0 1920 1080;" xml:space="preserve">
<style type="text/css">
	.st0{clip-path:url(#SVGID_00000064339565632066614080000005271609517485338504_);}
	.st1{opacity:0;clip-path:url(#SVGID_00000058553391638935036420000013480302754529929398_);}
	.st2{clip-path:url(#SVGID_00000021080823259025105800000002606730971746593687_);fill:#FFFFFF;}
	.st3{fill:#FFFFFF;}
</style>
<g>
	<defs>
		<rect id="SVGID_1_" y="470.5" width="1920" height="146"/>
	</defs>
	<clipPath id="SVGID_00000118389011825002800370000016710780590038267070_">
		<use xlink:href="#SVGID_1_"  style="overflow:visible;"/>
	</clipPath>
	<g style="clip-path:url(#SVGID_00000118389011825002800370000016710780590038267070_);">
		<defs>
			<rect id="SVGID_00000031888740736528835560000015238502727568740794_" y="470.5" width="1920" height="146"/>
		</defs>
		<clipPath id="SVGID_00000061455942046280487840000012511324357378162072_">
			<use xlink:href="#SVGID_00000031888740736528835560000015238502727568740794_"  style="overflow:visible;"/>
		</clipPath>
		<g style="opacity:0;clip-path:url(#SVGID_00000061455942046280487840000012511324357378162072_);">
			<g>
				<defs>
					<rect id="SVGID_00000155861941468134221710000007129239199909184157_" x="-9" y="463.5" width="1938" height="154"/>
				</defs>
				<clipPath id="SVGID_00000105414812867599326990000013564650910731188127_">
					<use xlink:href="#SVGID_00000155861941468134221710000007129239199909184157_"  style="overflow:visible;"/>
				</clipPath>
				
					<rect y="470.5" style="clip-path:url(#SVGID_00000105414812867599326990000013564650910731188127_);fill:#FFFFFF;" width="1920" height="146"/>
			</g>
		</g>
	</g>
	<g style="clip-path:url(#SVGID_00000118389011825002800370000016710780590038267070_);">
		<path class="st3" d="M77.7,522.7c0,1,0.4,2,1.3,3.1c0.9,1.1,2.1,2.1,3.5,3l-0.9,1.4c-2.1-1.3-3.7-2.8-4.8-4.6
			c-0.6,1-1.3,1.9-2.1,2.7c-0.8,0.8-1.7,1.6-2.7,2.2l-1-1.4c0.9-0.6,1.8-1.2,2.5-2c0.7-0.7,1.3-1.5,1.8-2.2c0.4-0.8,0.6-1.5,0.6-2.1
			v-1.2h-4.1v-1.5h10.1v1.5h-4.1V522.7z M77.5,518.4c-0.9,0-1.6,0-2.2-0.1c-0.6-0.1-1.2-0.2-1.7-0.3v-1.5c0.5,0.1,1,0.2,1.6,0.3
			c0.6,0.1,1.4,0.1,2.3,0.1H80v1.5H77.5z M84.7,523.7v-7.6h1.8v18.9h-1.8v-9.7h-3.8v-1.5H84.7z"/>
		<path class="st3" d="M89,525.6h18.1v1.5H89V525.6z M104,535.5H92.1V529H104V535.5z M95,523.6c-0.9-0.3-1.5-0.7-2-1.3
			c-0.5-0.6-0.7-1.2-0.7-1.9v-0.2c0-0.7,0.2-1.4,0.7-1.9c0.5-0.6,1.2-1,2-1.3c0.9-0.3,1.9-0.5,3-0.5c1.1,0,2.2,0.2,3,0.5
			c0.9,0.3,1.5,0.7,2,1.3c0.5,0.6,0.7,1.2,0.7,1.9v0.2c0,0.7-0.2,1.4-0.7,1.9c-0.5,0.6-1.1,1-2,1.3c-0.9,0.3-1.9,0.5-3,0.5
			C96.9,524.1,95.9,524,95,523.6z M102.2,530.5H94v3.5h8.2V530.5z M101,522c0.7-0.4,1-1,1-1.6v-0.1c0-0.7-0.4-1.2-1-1.7
			c-0.7-0.4-1.7-0.6-2.9-0.6c-1.2,0-2.2,0.2-2.9,0.6c-0.7,0.4-1.1,1-1.1,1.7v0.1c0,0.7,0.4,1.2,1.1,1.6c0.7,0.4,1.7,0.6,2.9,0.6
			C99.3,522.7,100.3,522.5,101,522z"/>
		<path class="st3" d="M113.3,517.5h8.2v9.2h-8.2V517.5z M115.1,525.2h4.6V519h-4.6V525.2z M115.7,528.7h1.8v5.1h10.4v1.5h-12.3
			V528.7z M127.2,516.1v5.6h3.4v1.5h-3.4v6.7h-1.8v-13.8H127.2z"/>
		<path class="st3" d="M133.9,527.8c1,0,2.3-0.1,3.7-0.2c1.4-0.1,2.8-0.4,4.1-0.7l0.3,1.5c-1.7,0.4-3.4,0.6-5,0.7
			c-1.6,0.1-3.4,0.2-5.4,0.2v-11.4h1.8v9.9H133.9z M145.5,523h3.4v1.5h-3.4v10.5h-1.8v-18.9h1.8V523z"/>
		<path class="st3" d="M148.5,526.1h18.1v1.5h-18.1V526.1z M151.6,529.6h1.9v4.2H164v1.5h-12.3V529.6z M163.9,522.4v1.5h-12.2v-7
			h1.8v5.5H163.9z"/>
		<path class="st3" d="M178.4,522.6c0,1,0.4,2,1.3,3c0.9,1.1,2,2.1,3.5,3l-1,1.3c-2-1.3-3.6-2.8-4.8-4.5c-1.2,2-2.8,3.6-4.8,4.9
			l-1-1.3c1.4-0.9,2.6-1.9,3.5-3.1c0.9-1.2,1.4-2.2,1.4-3.2v-3.1h-4.1V518h10v1.5h-4.1V522.6z M186.7,523h3.4v1.5h-3.4v10.5h-1.8
			v-18.9h1.8V523z"/>
		<path class="st3" d="M189.8,527h18.1v1.5h-5v6.8H201v-6.8h-4.5v6.8h-1.8v-6.8h-5V527z M195.5,524.5c-0.9-0.3-1.7-0.8-2.1-1.4
			c-0.5-0.6-0.7-1.3-0.7-2.1v-0.2c0-0.8,0.2-1.5,0.7-2.1c0.5-0.6,1.2-1.1,2.1-1.4s2-0.5,3.3-0.5c1.3,0,2.4,0.2,3.3,0.5
			s1.6,0.8,2.1,1.4c0.5,0.6,0.7,1.3,0.7,2.1v0.2c0,0.8-0.2,1.5-0.7,2.1c-0.5,0.6-1.2,1.1-2.1,1.4s-2,0.5-3.3,0.5
			C197.5,525,196.4,524.9,195.5,524.5z M194.4,521c0,0.8,0.4,1.4,1.1,1.9c0.7,0.5,1.8,0.7,3.2,0.7c1.4,0,2.5-0.2,3.2-0.7
			c0.7-0.5,1.1-1.1,1.1-1.9v-0.1c0-0.8-0.4-1.4-1.1-1.9s-1.8-0.7-3.2-0.7c-1.4,0-2.5,0.2-3.2,0.7c-0.7,0.5-1.1,1.1-1.1,1.9V521z"/>
		<path class="st3" d="M209.5,535.8H208l0.9-5.4h2.4L209.5,535.8z"/>
		<path class="st3" d="M223.7,522.7c0,1,0.4,2,1.3,3.1c0.9,1.1,2.1,2.1,3.5,3l-0.9,1.4c-2.1-1.3-3.7-2.8-4.8-4.6
			c-0.6,1-1.3,1.9-2.1,2.7c-0.8,0.8-1.7,1.6-2.7,2.2l-1-1.4c0.9-0.6,1.8-1.2,2.5-2c0.7-0.7,1.3-1.5,1.8-2.2c0.4-0.8,0.6-1.5,0.6-2.1
			v-1.2h-4.1v-1.5h10.1v1.5h-4.1V522.7z M223.5,518.4c-0.9,0-1.6,0-2.2-0.1c-0.6-0.1-1.2-0.2-1.7-0.3v-1.5c0.5,0.1,1,0.2,1.6,0.3
			c0.6,0.1,1.4,0.1,2.3,0.1h2.5v1.5H223.5z M230.7,523.7v-7.6h1.8v18.9h-1.8v-9.7H227v-1.5H230.7z"/>
		<path class="st3" d="M235,525.6h18.1v1.5H235V525.6z M250,535.5h-11.8V529H250V535.5z M241,523.6c-0.9-0.3-1.5-0.7-2-1.3
			c-0.5-0.6-0.7-1.2-0.7-1.9v-0.2c0-0.7,0.2-1.4,0.7-1.9c0.5-0.6,1.2-1,2-1.3c0.9-0.3,1.9-0.5,3-0.5c1.1,0,2.2,0.2,3,0.5
			c0.9,0.3,1.5,0.7,2,1.3c0.5,0.6,0.7,1.2,0.7,1.9v0.2c0,0.7-0.2,1.4-0.7,1.9c-0.5,0.6-1.1,1-2,1.3c-0.9,0.3-1.9,0.5-3,0.5
			C242.9,524.1,241.9,524,241,523.6z M248.2,530.5H240v3.5h8.2V530.5z M247,522c0.7-0.4,1-1,1-1.6v-0.1c0-0.7-0.4-1.2-1-1.7
			c-0.7-0.4-1.7-0.6-2.9-0.6c-1.2,0-2.2,0.2-2.9,0.6c-0.7,0.4-1.1,1-1.1,1.7v0.1c0,0.7,0.4,1.2,1.1,1.6c0.7,0.4,1.7,0.6,2.9,0.6
			C245.3,522.7,246.3,522.5,247,522z"/>
		<path class="st3" d="M259.3,517.5h8.2v9.2h-8.2V517.5z M261.1,525.2h4.6V519h-4.6V525.2z M261.7,528.7h1.8v5.1H274v1.5h-12.3
			V528.7z M273.2,516.1v5.6h3.4v1.5h-3.4v6.7h-1.8v-13.8H273.2z"/>
		<path class="st3" d="M279.9,527.8c1,0,2.3-0.1,3.7-0.2c1.4-0.1,2.8-0.4,4.1-0.7l0.3,1.5c-1.7,0.4-3.4,0.6-5,0.7
			c-1.6,0.1-3.4,0.2-5.4,0.2v-11.4h1.8v9.9H279.9z M291.5,523h3.4v1.5h-3.4v10.5h-1.8v-18.9h1.8V523z"/>
		<path class="st3" d="M294.6,526.1h18.1v1.5h-18.1V526.1z M297.6,529.6h1.9v4.2H310v1.5h-12.3V529.6z M309.9,522.4v1.5h-12.2v-7
			h1.8v5.5H309.9z"/>
		<path class="st3" d="M326.7,520.9v4.3h8.9v1.5h-18.1v-1.5h7.3v-4.3H326.7z M330.6,518.6h-10V517h11.9v2.1c0,1.5-0.2,3-0.5,4.4
			l-1.8-0.3c0.4-1.3,0.5-2.6,0.5-4V518.6z M329.7,528.7c0.9,0.3,1.6,0.7,2,1.3s0.7,1.2,0.7,1.9v0.2c0,1.1-0.5,2-1.6,2.7
			c-1,0.7-2.5,1-4.3,1c-1.8,0-3.3-0.3-4.3-1c-1-0.7-1.6-1.6-1.6-2.7v-0.2c0-0.7,0.2-1.4,0.7-1.9s1.1-1,2-1.3
			c0.9-0.3,1.9-0.5,3.2-0.5C327.7,528.2,328.8,528.4,329.7,528.7z M330.6,532c0-0.7-0.4-1.2-1-1.6c-0.7-0.4-1.7-0.6-3-0.6
			c-1.3,0-2.3,0.2-3,0.6c-0.7,0.4-1.1,0.9-1.1,1.6v0.1c0,0.7,0.4,1.2,1.1,1.6c0.7,0.4,1.7,0.6,3,0.6c1.3,0,2.3-0.2,3-0.6
			c0.7-0.4,1-0.9,1-1.6V532z"/>
		<path class="st3" d="M345.7,519.7c0,1.8-0.7,3.5-2.2,4.9c-1.4,1.4-3.6,2.6-6.4,3.4l-0.6-1.5c2.4-0.7,4.2-1.7,5.5-2.8
			c1.2-1.1,1.8-2.4,1.8-3.9v-0.7h-6.5v-1.5h8.3V519.7z M339.5,528.9h1.8v4.9h10.4v1.5h-12.3V528.9z M351,516.1v5.8h3.4v1.5H351v7.1
			h-1.8v-14.4H351z"/>
		<path class="st3" d="M355.5,535.8H354l0.9-5.4h2.4L355.5,535.8z"/>
		<path class="st3" d="M369.7,522.7c0,1,0.4,2,1.3,3.1c0.9,1.1,2.1,2.1,3.5,3l-0.9,1.4c-2.1-1.3-3.7-2.8-4.8-4.6
			c-0.6,1-1.3,1.9-2.1,2.7c-0.8,0.8-1.7,1.6-2.7,2.2l-1-1.4c0.9-0.6,1.8-1.2,2.5-2c0.7-0.7,1.3-1.5,1.8-2.2c0.4-0.8,0.6-1.5,0.6-2.1
			v-1.2h-4.1v-1.5h10.1v1.5h-4.1V522.7z M369.5,518.4c-0.9,0-1.6,0-2.2-0.1c-0.6-0.1-1.2-0.2-1.7-0.3v-1.5c0.5,0.1,1,0.2,1.6,0.3
			c0.6,0.1,1.4,0.1,2.3,0.1h2.5v1.5H369.5z M376.7,523.7v-7.6h1.8v18.9h-1.8v-9.7H373v-1.5H376.7z"/>
		<path class="st3" d="M381,525.6h18.1v1.5H381V525.6z M396,535.5h-11.8V529H396V535.5z M387.1,523.6c-0.9-0.3-1.5-0.7-2-1.3
			c-0.5-0.6-0.7-1.2-0.7-1.9v-0.2c0-0.7,0.2-1.4,0.7-1.9c0.5-0.6,1.2-1,2-1.3c0.9-0.3,1.9-0.5,3-0.5c1.1,0,2.2,0.2,3,0.5
			c0.9,0.3,1.5,0.7,2,1.3c0.5,0.6,0.7,1.2,0.7,1.9v0.2c0,0.7-0.2,1.4-0.7,1.9c-0.5,0.6-1.1,1-2,1.3c-0.9,0.3-1.9,0.5-3,0.5
			C388.9,524.1,387.9,524,387.1,523.6z M394.2,530.5H386v3.5h8.2V530.5z M393,522c0.7-0.4,1-1,1-1.6v-0.1c0-0.7-0.4-1.2-1-1.7
			c-0.7-0.4-1.7-0.6-2.9-0.6c-1.2,0-2.2,0.2-2.9,0.6c-0.7,0.4-1.1,1-1.1,1.7v0.1c0,0.7,0.4,1.2,1.1,1.6c0.7,0.4,1.7,0.6,2.9,0.6
			C391.3,522.7,392.3,522.5,393,522z"/>
		<path class="st3" d="M405.3,517.5h8.2v9.2h-8.2V517.5z M407.1,525.2h4.6V519h-4.6V525.2z M407.7,528.7h1.8v5.1H420v1.5h-12.3
			V528.7z M419.2,516.1v5.6h3.4v1.5h-3.4v6.7h-1.8v-13.8H419.2z"/>
		<path class="st3" d="M425.9,527.8c1,0,2.3-0.1,3.7-0.2c1.4-0.1,2.8-0.4,4.1-0.7l0.3,1.5c-1.7,0.4-3.4,0.6-5,0.7
			c-1.6,0.1-3.4,0.2-5.4,0.2v-11.4h1.8v9.9H425.9z M437.5,523h3.4v1.5h-3.4v10.5h-1.8v-18.9h1.8V523z"/>
		<path class="st3" d="M440.6,526.1h18.1v1.5h-18.1V526.1z M443.6,529.6h1.9v4.2H456v1.5h-12.3V529.6z M455.9,522.4v1.5h-12.2v-7
			h1.8v5.5H455.9z"/>
		<path class="st3" d="M464.2,519.3h10.1v1.5h-10.1V519.3z M473.2,525.1c0,0.6-0.2,1.1-0.5,1.6c-0.3,0.5-0.8,0.9-1.4,1.2
			c-0.6,0.3-1.3,0.4-2,0.4s-1.5-0.1-2-0.4s-1.1-0.7-1.4-1.2c-0.3-0.5-0.5-1-0.5-1.6v-0.2c0-0.6,0.2-1.1,0.5-1.6
			c0.3-0.5,0.8-0.9,1.4-1.2c0.6-0.3,1.3-0.4,2.1-0.4s1.5,0.1,2.1,0.4s1.1,0.7,1.4,1.2s0.5,1,0.5,1.6V525.1z M469.8,518.1
			c-1.6,0-2.8-0.1-3.6-0.4v-1.4c0.8,0.3,2,0.4,3.6,0.4h2.4v1.5H469.8z M467,525c0,0.5,0.2,0.9,0.6,1.3c0.4,0.3,0.9,0.5,1.6,0.5
			c0.7,0,1.2-0.2,1.6-0.5c0.4-0.3,0.6-0.8,0.6-1.3v-0.1c0-0.5-0.2-0.9-0.6-1.3c-0.4-0.3-0.9-0.5-1.6-0.5c-0.7,0-1.2,0.2-1.6,0.5
			s-0.6,0.8-0.6,1.3V525z M477.5,531.1h-10.1v-1.5h11.9v6.2h-1.8V531.1z M477.5,521.8v-5.8h1.8v12.4h-1.8v-1.7h-3.2v-1.5h3.2v-1.8
			h-3.2v-1.5H477.5z"/>
		<path class="st3" d="M485.9,525.8c-0.8,0.8-1.7,1.5-2.7,2.1l-0.9-1.4c1.4-0.8,2.6-1.8,3.5-2.9c0.9-1.1,1.3-2.1,1.3-3.1v-3.4h1.8
			v3.3c0,0.9,0.4,1.9,1.3,2.9c0.9,1,2,1.8,3.5,2.6l-0.9,1.4c-2.1-1.1-3.7-2.5-4.8-4.1C487.4,524.2,486.7,525,485.9,525.8z
			 M488,528.9v4.9h10.4v1.5h-12.3v-6.4H488z M495.8,516.1h1.8v14.3h-1.8V516.1z"/>
		<path class="st3" d="M503.1,533.2h-2.4v-2.7h2.4V533.2z"/>
	</g>
	<g style="clip-path:url(#SVGID_00000118389011825002800370000016710780590038267070_);">
		<path class="st3" d="M76.7,557.2c0,1,0.3,2.1,1,3.3c0.7,1.2,1.7,2.2,2.9,3l-1,1.3c-1.7-1.2-2.9-2.7-3.8-4.4
			c-0.9,1.8-2.1,3.4-3.8,4.8l-1.1-1.2c1.2-0.9,2.1-2,2.9-3.3c0.7-1.3,1.1-2.4,1.1-3.5v-4.5h1.8V557.2z M85.7,557.9v-6.8h1.8V570
			h-1.8v-10.6h-2.4v9.9h-1.8v-18h1.8v6.6H85.7z"/>
		<path class="st3" d="M99,563v3.9h8.1v1.5H89v-1.5h8.1V563h-5.1v-6.1h10.1v-2.9H92.1v-1.5h12v5.9H93.9v3.1h10.7v1.5H99z"/>
		<path class="st3" d="M119.9,562.3c-1.9,0.4-3.8,0.7-5.6,0.8v6.6h-1.8v-6.5c-0.3,0-0.8,0-1.5,0h-3.7v-1.5h4.3c2.9,0,5.5-0.3,8-0.9
			L119.9,562.3z M110.9,559.6c-0.7-0.3-1.3-0.7-1.7-1.3c-0.4-0.5-0.6-1.2-0.6-1.8v-0.3c0-0.7,0.2-1.3,0.6-1.8c0.4-0.5,1-1,1.7-1.3
			c0.7-0.3,1.5-0.5,2.5-0.5c0.9,0,1.7,0.2,2.5,0.5c0.7,0.3,1.3,0.7,1.7,1.3c0.4,0.5,0.6,1.2,0.6,1.8v0.3c0,0.7-0.2,1.3-0.6,1.8
			c-0.4,0.5-1,1-1.7,1.3c-0.7,0.3-1.5,0.5-2.5,0.5C112.4,560,111.6,559.9,110.9,559.6z M110.3,556.4c0,0.6,0.3,1.1,0.8,1.6
			s1.3,0.6,2.2,0.6c0.9,0,1.7-0.2,2.2-0.6c0.5-0.4,0.8-0.9,0.8-1.6v-0.3c0-0.6-0.3-1.1-0.8-1.6c-0.6-0.4-1.3-0.6-2.2-0.6
			c-0.9,0-1.6,0.2-2.2,0.6s-0.8,0.9-0.8,1.6V556.4z M121.3,564.5v-13.4h1.8V570h-1.8V566h-4.7v-1.5H121.3z"/>
		<path class="st3" d="M136.3,562.1c-2-1.1-3.5-2.4-4.7-4.1c-1.1,1.8-2.7,3.3-4.7,4.5l-0.9-1.4c1.4-0.8,2.5-1.7,3.4-2.7
			c0.9-1.1,1.3-2.1,1.3-3.1V554h-3.9v-1.5h9.6v1.5h-3.9v1.2c0,1,0.4,1.9,1.2,2.9c0.8,1,2,1.8,3.4,2.6L136.3,562.1z M131.8,563.9v4.9
			h10.4v1.5H130v-6.4H131.8z M139.6,551.1h1.8v14.3h-1.8V551.1z"/>
		<path class="st3" d="M152.2,563.2c1,0,2.3-0.1,3.7-0.2c1.4-0.1,2.8-0.4,4.2-0.7l0.3,1.5c-1.8,0.3-3.5,0.6-5.1,0.7
			c-1.6,0.1-3.4,0.2-5.4,0.2v-6.9h6.3v-3.4h-6.3v-1.6h8.1v6.5h-6.3v3.8H152.2z M163.7,558h3.4v1.5h-3.4V570h-1.8v-18.9h1.8V558z"/>
		<path class="st3" d="M170.1,564.2c-0.8-0.5-1.3-1.2-1.7-2.1c-0.4-0.9-0.6-2-0.6-3.2v-0.4c0-1.2,0.2-2.3,0.6-3.2
			c0.4-0.9,1-1.6,1.7-2.1c0.8-0.5,1.6-0.7,2.7-0.7c1,0,1.9,0.2,2.7,0.7c0.8,0.5,1.3,1.2,1.7,2.1c0.4,0.9,0.6,2,0.6,3.2v0.4
			c0,1.2-0.2,2.3-0.6,3.2c-0.4,0.9-1,1.6-1.7,2.1c-0.8,0.5-1.6,0.7-2.7,0.7C171.8,564.9,170.9,564.7,170.1,564.2z M175.1,562.2
			c0.6-0.8,0.8-1.9,0.8-3.3v-0.4c0-1.4-0.3-2.5-0.8-3.3s-1.3-1.2-2.4-1.2c-1,0-1.8,0.4-2.4,1.2c-0.6,0.8-0.8,1.9-0.8,3.3v0.4
			c0,1.4,0.3,2.5,0.8,3.3c0.6,0.8,1.3,1.2,2.4,1.2C173.8,563.4,174.6,563,175.1,562.2z M182.7,570h-1.8v-18.9h1.8V570z"/>
		<path class="st3" d="M185.1,568.4v-1.5h18.1v1.5H185.1z M197.8,560.9h3.3v1.5h-13.7v-1.5h3.2l-0.4-5.8l1.7-0.1l0.3,5.9h3.9
			l0.4-5.9l1.7,0.1L197.8,560.9z M187.5,552.8h13.3v1.6h-13.3V552.8z"/>
		<path class="st3" d="M214.5,557.8v-6.5h1.8v18h-1.8v-10h-2.2c-0.1,1.6-0.5,2.9-1.2,3.9c-0.7,1-1.7,1.4-2.9,1.4
			c-0.8,0-1.6-0.2-2.2-0.7s-1.1-1.2-1.4-2s-0.5-1.9-0.5-3.1v-0.4c0-1.2,0.2-2.2,0.5-3.1c0.3-0.9,0.8-1.6,1.4-2s1.3-0.7,2.2-0.7
			c1.2,0,2.2,0.5,2.9,1.4c0.7,1,1.1,2.3,1.2,3.9H214.5z M210.5,558.3c0-1.4-0.2-2.4-0.6-3.2c-0.4-0.8-1-1.1-1.7-1.1
			s-1.3,0.4-1.7,1.1c-0.4,0.8-0.6,1.8-0.6,3.2v0.4c0,1.4,0.2,2.5,0.6,3.2c0.4,0.8,1,1.1,1.7,1.1c0.7,0,1.3-0.4,1.7-1.1
			s0.6-1.8,0.6-3.2V558.3z M218.4,570v-18.9h1.8V570H218.4z"/>
		<path class="st3" d="M238.8,561.8c-1.5,0.3-2.9,0.6-4.3,0.7c-1.4,0.1-2.9,0.2-4.5,0.2h-3.6v-1.5h4.1V557h1.8v4.2
			c2.3-0.1,4.4-0.4,6.2-0.8L238.8,561.8z M235.2,554.2h-7.5v-1.5h9.3v2.1c0,0.6,0,1.3-0.1,2.1s-0.3,1.6-0.5,2.3l-1.8-0.3
			c0.4-1.4,0.5-2.8,0.5-4.1V554.2z M229.9,564.3h1.8v4.6h10.6v1.5h-12.5V564.3z M241.5,551.1v6.5h3.4v1.5h-3.4v6.8h-1.8v-14.8H241.5
			z"/>
		<path class="st3" d="M245.3,554.5h10.5v1.5h-10.5V554.5z M254.6,560.5c0,0.6-0.2,1.2-0.5,1.7s-0.8,0.9-1.4,1.2
			c-0.6,0.3-1.3,0.4-2.1,0.4c-0.8,0-1.5-0.1-2.1-0.4c-0.6-0.3-1.1-0.7-1.4-1.2c-0.3-0.5-0.5-1.1-0.5-1.7v-0.2c0-0.6,0.2-1.2,0.5-1.7
			c0.3-0.5,0.8-0.9,1.4-1.2c0.6-0.3,1.3-0.4,2.1-0.4c0.8,0,1.5,0.1,2.1,0.4c0.6,0.3,1.1,0.7,1.4,1.2s0.5,1.1,0.5,1.7V560.5z
			 M251.1,553.2c-0.8,0-1.5,0-2.1-0.1c-0.6-0.1-1.1-0.2-1.6-0.3v-1.4c0.9,0.3,2.1,0.4,3.7,0.4h2.4v1.5H251.1z M248.2,560.4
			c0,0.6,0.2,1,0.6,1.4c0.4,0.4,1,0.5,1.7,0.5c0.7,0,1.3-0.2,1.7-0.5c0.4-0.4,0.6-0.8,0.6-1.4v-0.2c0-0.6-0.2-1-0.6-1.4
			c-0.4-0.4-1-0.5-1.7-0.5c-0.7,0-1.3,0.2-1.7,0.5s-0.6,0.8-0.6,1.4V560.4z M248.4,565.1h1.8v3.8h10.4v1.5h-12.3V565.1z
			 M259.8,551.1v7.2h3.4v1.5h-3.4v6.3H258v-15.1H259.8z"/>
		<path class="st3" d="M270.8,564.2c-0.8-0.5-1.3-1.2-1.7-2.1c-0.4-0.9-0.6-2-0.6-3.2v-0.4c0-1.2,0.2-2.3,0.6-3.2
			c0.4-0.9,1-1.6,1.7-2.1c0.8-0.5,1.6-0.7,2.7-0.7c1,0,1.9,0.2,2.7,0.7c0.8,0.5,1.3,1.2,1.7,2.1c0.4,0.9,0.6,2,0.6,3.2v0.4
			c0,1.2-0.2,2.3-0.6,3.2c-0.4,0.9-1,1.6-1.7,2.1c-0.8,0.5-1.6,0.7-2.7,0.7C272.5,564.9,271.6,564.7,270.8,564.2z M275.9,562.2
			c0.6-0.8,0.8-1.9,0.8-3.3v-0.4c0-1.4-0.3-2.5-0.8-3.3s-1.3-1.2-2.4-1.2c-1,0-1.8,0.4-2.4,1.2c-0.6,0.8-0.8,1.9-0.8,3.3v0.4
			c0,1.4,0.3,2.5,0.8,3.3c0.6,0.8,1.3,1.2,2.4,1.2C274.5,563.4,275.3,563,275.9,562.2z M283.4,570h-1.8v-18.9h1.8V570z"/>
		<path class="st3" d="M294.3,553.1c0.8,0.5,1.3,1.2,1.7,2.1c0.4,0.9,0.6,2,0.6,3.2v0.4c0,1.2-0.2,2.3-0.6,3.2
			c-0.4,0.9-1,1.6-1.7,2.1c-0.8,0.5-1.6,0.7-2.7,0.7s-1.9-0.2-2.7-0.7c-0.8-0.5-1.3-1.2-1.7-2.1c-0.4-0.9-0.6-2-0.6-3.2v-0.4
			c0-1.2,0.2-2.3,0.6-3.2c0.4-0.9,1-1.6,1.7-2.1c0.8-0.5,1.6-0.7,2.7-0.7S293.5,552.6,294.3,553.1z M294.8,558.5
			c0-1.4-0.3-2.5-0.8-3.3s-1.3-1.2-2.4-1.2c-1,0-1.8,0.4-2.4,1.2c-0.6,0.8-0.8,1.9-0.8,3.3v0.4c0,1.4,0.3,2.5,0.8,3.3
			c0.6,0.8,1.3,1.2,2.4,1.2c1,0,1.8-0.4,2.4-1.2s0.8-1.9,0.8-3.3V558.5z M304.4,555.4v1.5h-3.4v3.6h3.4v1.5h-3.4v7.9h-1.8v-18.9h1.8
			v4.3H304.4z"/>
		<path class="st3" d="M305.3,564.2c2.5-1.1,4.3-2.3,5.4-3.7c1.1-1.4,1.7-3,1.7-4.8v-1.2h-6.4v-1.5h8.3v2.6c0,2.2-0.7,4.1-2,5.7
			c-1.3,1.6-3.4,3.1-6.2,4.4L305.3,564.2z M320,570h-1.8v-18.9h1.8V570z"/>
		<path class="st3" d="M323.8,554.5v-1.5h8.4v2.6c0,2.2-0.7,4.1-2,5.7c-1.3,1.7-3.5,3.1-6.3,4.4l-0.7-1.5c2.5-1.1,4.4-2.3,5.5-3.7
			c1.1-1.4,1.7-3,1.7-4.8v-1.2H323.8z M337.6,558.5h3.4v1.5h-3.4v9.9h-1.8v-18.9h1.8V558.5z"/>
		<path class="st3" d="M352.5,557.4c0,1,0.5,2,1.4,3.1c0.9,1.1,2.1,2.1,3.5,3l-1,1.4c-2.1-1.3-3.7-2.9-4.8-4.7
			c-0.6,1-1.3,1.9-2.1,2.8c-0.8,0.9-1.7,1.6-2.7,2.3l-1-1.4c0.9-0.6,1.7-1.2,2.5-2c0.7-0.8,1.3-1.5,1.8-2.3c0.4-0.8,0.6-1.5,0.6-2.2
			v-4.7h1.9V557.4z M359.4,570v-18.9h1.8V570H359.4z"/>
		<path class="st3" d="M364.9,562.2l-0.9-1.4c1.4-0.8,2.5-1.7,3.4-2.7c0.9-1.1,1.3-2.1,1.3-3.1v-1.1h-3.9v-1.5h9.6v1.5h-3.9v1.1
			c0,1,0.4,1.9,1.2,2.9c0.8,1,2,1.8,3.4,2.6l-0.9,1.4c-2-1.1-3.6-2.5-4.7-4.1C368.4,559.6,366.8,561.1,364.9,562.2z M377,565.4
			h-10.1v-1.5h11.9v6.9H377V565.4z M378.9,556.1h3.4v1.5h-3.4v5.1H377v-11.7h1.8V556.1z"/>
		<path class="st3" d="M394.7,562c-1.6,0.3-3.1,0.5-4.5,0.7c-1.4,0.1-2.9,0.2-4.6,0.2h-3.8v-1.5h4.4c0.5,0,0.9,0,1.1,0v-2.5h-3.8
			v-6.3h9.4v1.5h-7.5v3.3h8v1.5h-4.2v2.4c1.9-0.2,3.7-0.4,5.2-0.7L394.7,562z M388.1,565.9h7.9v-1.7h1.8v6.3h-11.5v-6.3h1.8V565.9z
			 M388.1,567.4v1.7h7.9v-1.7H388.1z M395.9,563.2v-12.1h1.8v12.1H395.9z"/>
		<path class="st3" d="M404.1,562.9c1.1,0,2.3-0.1,3.8-0.2c1.4-0.1,2.9-0.4,4.2-0.7l0.3,1.5c-1.8,0.4-3.5,0.6-5.1,0.8
			c-1.6,0.1-3.5,0.2-5.5,0.2v-11.5h1.8v10H404.1z M414.2,570v-18.9h1.8V570H414.2z"/>
		<path class="st3" d="M422.2,562.8c1,0,2.3-0.1,3.7-0.2c1.4-0.1,2.8-0.4,4.1-0.7l0.3,1.5c-1.7,0.4-3.4,0.6-5,0.7
			c-1.6,0.1-3.4,0.2-5.4,0.2v-11.4h8.5v1.5h-6.6v8.3H422.2z M433.8,558h3.4v1.5h-3.4V570h-1.8v-18.9h1.8V558z"/>
		<path class="st3" d="M439.8,568.2h-2.4v-2.7h2.4V568.2z"/>
	</g>
</g>
</svg>
