<?xml version="1.0" encoding="utf-8"?>
<!-- Generator: Adobe Illustrator 27.5.0, SVG Export Plug-In . SVG Version: 6.00 Build 0)  -->
<svg version="1.1" id="레이어_1" xmlns="http://www.w3.org/2000/svg" xmlns:xlink="http://www.w3.org/1999/xlink" x="0px"
	 y="0px" viewBox="0 0 1920 1080" style="enable-background:new 0 0 1920 1080;" xml:space="preserve">
<style type="text/css">
	.st0{clip-path:url(#SVGID_00000108294916366168576080000002185914365375437965_);}
	.st1{opacity:0;clip-path:url(#SVGID_00000118366250823859362830000002757105743441730692_);}
	.st2{clip-path:url(#SVGID_00000017477115130680464610000011842409123874430137_);fill:#FFFFFF;}
	.st3{fill:#FFFFFF;}
</style>
<g>
	<g>
		<defs>
			<rect id="SVGID_1_" y="421" width="1920" height="146"/>
		</defs>
		<clipPath id="SVGID_00000109723486418513348170000005804114366901403270_">
			<use xlink:href="#SVGID_1_"  style="overflow:visible;"/>
		</clipPath>
		<g style="clip-path:url(#SVGID_00000109723486418513348170000005804114366901403270_);">
			<defs>
				<rect id="SVGID_00000152230866605540948190000016001506001354713008_" y="421" width="1920" height="146"/>
			</defs>
			<clipPath id="SVGID_00000116942899475564931560000011443445415136904598_">
				<use xlink:href="#SVGID_00000152230866605540948190000016001506001354713008_"  style="overflow:visible;"/>
			</clipPath>
			<g style="opacity:0;clip-path:url(#SVGID_00000116942899475564931560000011443445415136904598_);">
				<g>
					<defs>
						<rect id="SVGID_00000135650732220284974090000008980555683355093945_" x="-9" y="414" width="1938" height="154"/>
					</defs>
					<clipPath id="SVGID_00000112605270032613599570000006646042343905042329_">
						<use xlink:href="#SVGID_00000135650732220284974090000008980555683355093945_"  style="overflow:visible;"/>
					</clipPath>
					
						<rect y="421" style="clip-path:url(#SVGID_00000112605270032613599570000006646042343905042329_);fill:#FFFFFF;" width="1920" height="146"/>
				</g>
			</g>
		</g>
	</g>
</g>
<g>
	<g>
		<path class="st3" d="M87.3,501.9H72.1V497h36.3v4.9H93.3v44.5h-6V501.9z"/>
		<path class="st3" d="M114.6,546.4v-49.8h5.7v21.3c1.3-2.2,3-4.1,5.2-5.7c2.2-1.6,4.6-2.3,7.3-2.3c3.8,0,6.7,1.1,8.6,3.4
			c2,2.3,3,5.5,3,9.8v23.3h-5.7v-22.9c0-2.9-0.5-5.2-1.6-6.7s-2.8-2.3-5.2-2.3c-1.6,0-3.2,0.5-4.8,1.5c-1.6,1-3.1,2.3-4.3,4
			c-1.2,1.6-2.1,3.4-2.6,5.3v21.1H114.6z"/>
		<path class="st3" d="M150.6,527.8c0-3.4,0.7-6.5,2-9.2c1.3-2.7,3.2-4.9,5.6-6.4c2.4-1.5,5.2-2.3,8.3-2.3c4.8,0,8.5,1.6,11.2,4.7
			c2.7,3.1,4.1,7.7,4.1,13.6v2.3h-25.5c0.2,3.6,1.3,6.5,3.2,8.8c1.9,2.3,4.5,3.4,7.7,3.5c5,0,9.2-1.8,12.5-5.4v5.8
			c-1.5,1.3-3.3,2.3-5.3,3.1c-2,0.7-4.4,1.1-7.2,1.1c-3.5,0-6.4-0.8-8.9-2.3c-2.5-1.5-4.4-3.7-5.7-6.4c-1.3-2.8-2-5.9-2-9.5V527.8z
			 M176.1,526c0-3.8-0.9-6.7-2.7-8.6c-1.7-2-4-2.9-6.8-2.9c-1.8,0-3.5,0.5-5,1.4s-2.7,2.3-3.6,4c-0.9,1.7-1.5,3.8-1.6,6.1H176.1z"/>
		<path class="st3" d="M212,546.4h-6V497h6v22.4l22.8-22.4h7.9l-24.8,24.1l25.7,25.3H235l-22.9-23V546.4z"/>
		<path class="st3" d="M254.3,505h-5.7v-7.2h5.7V505z M254.3,546.4h-5.7v-35.5h5.7V546.4z"/>
		<path class="st3" d="M263.1,530.8c1-1.4,2.6-2.6,4.6-3.4c2-0.8,4.8-1.6,8.4-2.2l8.8-1.6c-0.1-3.1-0.9-5.4-2.4-7
			c-1.5-1.5-3.9-2.3-7-2.3c-2.3,0-4.4,0.5-6.4,1.6c-2,1-3.7,2.4-5.1,4.2v-5.7c1.3-1.3,3.1-2.4,5.2-3.2c2.1-0.9,4.4-1.3,6.9-1.3
			c4.5,0,8.1,1.1,10.7,3.4c2.6,2.3,3.9,5.7,3.9,10.2v22.9h-4.5l-1-5.5c-1.6,2-3.6,3.6-5.8,4.7c-2.2,1.1-4.7,1.7-7.3,1.7
			c-3.3,0-5.9-0.9-7.9-2.7c-2-1.8-3-4.4-3-7.6C261.2,534.6,261.8,532.6,263.1,530.8z M268.6,541.1c1.1,1,2.6,1.5,4.5,1.5
			c2.2,0,4.4-0.7,6.7-2.1c2.2-1.4,4-3.3,5.2-5.7V528l-5.9,1.1c-3.2,0.6-5.7,1.1-7.3,1.6c-1.6,0.5-2.9,1.3-3.6,2.3
			c-0.8,1-1.2,2.2-1.2,3.7C266.9,538.6,267.5,540.1,268.6,541.1z"/>
	</g>
	<g>
		<path class="st3" d="M347.8,546.2h-31.5v-49.4h31.2v7.1h-22.4v13.3h18.8v7.1h-18.8v14.6h22.8V546.2z"/>
		<path class="st3" d="M369.4,546.2l-18.1-49.4h9.8l13.7,39.3l13.8-39.3h8.6l-18,49.4H369.4z"/>
		<path class="st3" d="M401.4,532.8c1.5,2.2,3.4,3.9,5.7,5.2c2.3,1.2,4.8,1.9,7.4,1.9c2,0,3.7-0.4,5.2-1.3c1.5-0.8,2.7-2,3.5-3.4
			c0.8-1.4,1.2-3,1.2-4.7c0-2.6-0.8-4.6-2.4-6.1s-3.6-2.2-6-2.2c-1.5,0-2.9,0.3-4.2,0.9c-1.3,0.6-2.2,1.2-2.8,1.9h-5.8l2.3-27.4
			h26.1v7.2h-18.1l-1,12c0.5-0.4,1.4-0.7,2.5-1.1c1.1-0.3,2.4-0.5,3.7-0.5c2.8,0,5.3,0.6,7.6,1.8c2.3,1.2,4.1,2.9,5.4,5.3
			c1.3,2.3,1.9,5.1,1.9,8.3c0,3.4-0.8,6.4-2.5,8.8c-1.7,2.5-4,4.4-6.8,5.7s-6,2-9.6,2c-5.3,0-9.8-1.5-13.5-4.4V532.8z"/>
	</g>
	<g>
		<path class="st3" d="M87.3,450.8v7.2h13.1v2.5H71.2V458h13.1v-7.2H87.3z M76.1,434.9h19.6v14.2H76.1V434.9z M79,446.7h13.6v-9.3
			H79V446.7z"/>
		<path class="st3" d="M100.8,450.1H130v2.5h-13.1v11h-3v-11h-13.1V450.1z M108.6,443.6h17.3v2.5h-20.3v-11.7h19.5v2.4h-16.5V443.6z
			"/>
		<path class="st3" d="M148.3,443.3v-10.5h2.9v29.1h-2.9v-16.2h-3.6c-0.1,2.7-0.8,4.7-1.9,6.3c-1.2,1.5-2.7,2.3-4.7,2.3
			c-1.4,0-2.5-0.4-3.5-1.2c-1-0.8-1.8-1.9-2.3-3.3c-0.5-1.4-0.8-3.1-0.8-5v-0.7c0-1.9,0.3-3.6,0.8-5c0.5-1.4,1.3-2.5,2.3-3.3
			c1-0.8,2.2-1.2,3.5-1.2c1.9,0,3.5,0.8,4.7,2.3c1.2,1.6,1.8,3.6,1.9,6.3H148.3z M141.9,444.2c0-2.2-0.3-3.9-1-5.2
			c-0.7-1.2-1.6-1.9-2.8-1.9c-1.2,0-2.1,0.6-2.8,1.9c-0.7,1.2-1,3-1,5.2v0.6c0,2.2,0.3,4,1,5.2c0.7,1.2,1.6,1.8,2.8,1.8
			c1.2,0,2.1-0.6,2.8-1.8c0.6-1.2,1-3,1-5.2V444.2z M154.7,463v-30.6h2.9V463H154.7z"/>
		<path class="st3" d="M172.6,440.1c0,2.3-0.3,4.4-1,6.2c-0.7,1.8-1.8,3.5-3.4,5c-1.6,1.5-3.7,3-6.4,4.5l-1.4-2.3
			c2.4-1.2,4.2-2.5,5.6-3.8c1.4-1.3,2.3-2.7,2.9-4.2c0.6-1.5,0.9-3.2,0.9-5.1v-2.1h-8v-2.5h10.9V440.1z M172.6,443.9h5v-11.2h2.9
			v29.1h-2.9v-15.5h-5V443.9z M184.3,463v-30.6h2.9V463H184.3z"/>
		<path class="st3" d="M208.4,443.2c0,1.6,0.7,3.2,2.1,4.9c1.4,1.7,3.3,3.3,5.7,4.8l-1.5,2.2c-3.4-2.1-6-4.6-7.8-7.4
			c-0.9,1.6-2.1,3.1-3.4,4.4c-1.3,1.3-2.8,2.5-4.4,3.6l-1.6-2.2c1.5-0.9,2.8-2,4-3.2c1.2-1.2,2.1-2.4,2.8-3.6c0.7-1.2,1-2.4,1-3.4
			v-1.9h-6.7v-2.5h16.4v2.5h-6.7V443.2z M208,436.2c-1.4,0-2.6-0.1-3.6-0.2c-1-0.1-1.9-0.3-2.7-0.6v-2.4c0.8,0.2,1.6,0.4,2.6,0.5
			c1,0.1,2.2,0.1,3.7,0.1h4v2.5H208z M219.8,444.8v-12.4h3V463h-3v-15.7h-6.1v-2.5H219.8z"/>
		<path class="st3" d="M226.8,447.9H256v2.5h-29.2V447.9z M251,463.9h-19.2v-10.5H251V463.9z M236.5,444.7c-1.4-0.5-2.5-1.2-3.3-2.1
			s-1.2-1.9-1.2-3.1v-0.3c0-1.2,0.4-2.2,1.2-3.1s1.9-1.6,3.3-2.1c1.4-0.5,3.1-0.7,4.9-0.7c1.9,0,3.5,0.2,4.9,0.7
			c1.4,0.5,2.5,1.2,3.3,2.1c0.8,0.9,1.1,1.9,1.1,3.1v0.3c0,1.2-0.4,2.2-1.1,3.1c-0.8,0.9-1.8,1.6-3.2,2.1c-1.4,0.5-3,0.7-4.9,0.7
			C239.5,445.4,237.9,445.2,236.5,444.7z M248,455.8h-13.3v5.6H248V455.8z M246.1,442.1c1.1-0.7,1.7-1.6,1.7-2.7v-0.2
			c0-1.1-0.6-2-1.7-2.7c-1.1-0.7-2.7-1-4.7-1c-2,0-3.6,0.3-4.7,1c-1.1,0.7-1.7,1.6-1.7,2.7v0.2c0,1.1,0.6,2,1.7,2.7
			c1.1,0.7,2.7,1,4.7,1C243.4,443.1,245,442.8,246.1,442.1z"/>
	</g>
</g>
</svg>
