<?xml version="1.0" encoding="utf-8"?>
<!-- Generator: Adobe Illustrator 27.5.0, SVG Export Plug-In . SVG Version: 6.00 Build 0)  -->
<svg version="1.1" id="레이어_1" xmlns="http://www.w3.org/2000/svg" xmlns:xlink="http://www.w3.org/1999/xlink" x="0px"
	 y="0px" viewBox="0 0 1920 1080" style="enable-background:new 0 0 1920 1080;" xml:space="preserve">
<style type="text/css">
	.st0{opacity:0;}
	.st1{clip-path:url(#SVGID_00000101796794824551603000000012256912208636612782_);fill:#FFFFFF;}
	.st2{fill:#FFFFFF;}
</style>
<g>
	<g>
		<g class="st0">
			<g>
				<defs>
					<rect id="SVGID_1_" x="-9" y="460" width="1938" height="154"/>
				</defs>
				<clipPath id="SVGID_00000094596666297391540630000017469223263842931105_">
					<use xlink:href="#SVGID_1_"  style="overflow:visible;"/>
				</clipPath>
				
					<rect y="467" style="clip-path:url(#SVGID_00000094596666297391540630000017469223263842931105_);fill:#FFFFFF;" width="1920" height="146"/>
			</g>
		</g>
	</g>
	<g>
		<path class="st2" d="M79,528.4h-8v-2.6h19v2.6h-7.9v23.3H79V528.4z"/>
		<path class="st2" d="M93.3,551.7v-26h3v11.2c0.7-1.2,1.6-2.1,2.7-3c1.1-0.8,2.4-1.2,3.8-1.2c2,0,3.5,0.6,4.5,1.8s1.6,2.9,1.6,5.1
			v12.2h-3v-12c0-1.5-0.3-2.7-0.8-3.5c-0.5-0.8-1.5-1.2-2.7-1.2c-0.8,0-1.7,0.3-2.5,0.8c-0.9,0.5-1.6,1.2-2.2,2.1s-1.1,1.8-1.3,2.8
			v11H93.3z"/>
		<path class="st2" d="M112.2,542c0-1.8,0.4-3.4,1.1-4.8c0.7-1.4,1.7-2.5,2.9-3.3c1.3-0.8,2.7-1.2,4.3-1.2c2.5,0,4.4,0.8,5.9,2.5
			c1.4,1.6,2.1,4,2.1,7.1v1.2h-13.3c0.1,1.9,0.7,3.4,1.7,4.6c1,1.2,2.3,1.8,4,1.8c2.6,0,4.8-0.9,6.6-2.8v3c-0.8,0.7-1.7,1.2-2.8,1.6
			c-1.1,0.4-2.3,0.6-3.8,0.6c-1.8,0-3.4-0.4-4.7-1.2c-1.3-0.8-2.3-1.9-3-3.3s-1-3.1-1-4.9V542z M125.5,541.1c0-2-0.5-3.5-1.4-4.5
			c-0.9-1-2.1-1.5-3.6-1.5c-1,0-1.8,0.2-2.6,0.7c-0.8,0.5-1.4,1.2-1.9,2.1c-0.5,0.9-0.8,2-0.8,3.2H125.5z"/>
		<path class="st2" d="M140.7,537.2c0.7-1.5,1.7-2.6,2.9-3.4c1.2-0.8,2.6-1.2,4.2-1.2c1.2,0,2.3,0.3,3.3,0.9
			c1.1,0.6,1.9,1.4,2.6,2.4v-10.2h3v26H154l-0.2-2.9c-0.7,1-1.5,1.8-2.6,2.5c-1.1,0.6-2.2,0.9-3.4,0.9c-1.5,0-2.9-0.4-4.2-1.2
			c-1.2-0.8-2.2-1.9-2.9-3.4c-0.7-1.5-1.1-3.2-1.1-5.2C139.6,540.4,140,538.7,140.7,537.2z M143.5,546.3c0.5,1.1,1.1,2,2,2.6
			c0.8,0.6,1.8,0.9,2.8,0.9c1.2,0,2.2-0.4,3.2-1.3c1-0.8,1.8-1.9,2.2-3.1v-6.1c-0.5-1.3-1.2-2.3-2.2-3.1c-1-0.8-2.1-1.2-3.2-1.2
			c-1,0-2,0.3-2.8,0.9c-0.8,0.6-1.5,1.5-2,2.6s-0.7,2.4-0.7,3.9C142.8,543.9,143,545.2,143.5,546.3z"/>
		<path class="st2" d="M161.4,543.6c0.5-0.7,1.3-1.3,2.4-1.8c1.1-0.4,2.5-0.8,4.4-1.2l4.6-0.8c0-1.6-0.5-2.8-1.3-3.7
			c-0.8-0.8-2-1.2-3.7-1.2c-1.2,0-2.3,0.3-3.3,0.8c-1.1,0.5-1.9,1.3-2.7,2.2v-3c0.7-0.7,1.6-1.2,2.7-1.7c1.1-0.5,2.3-0.7,3.6-0.7
			c2.4,0,4.2,0.6,5.6,1.8c1.4,1.2,2,3,2,5.3v12h-2.3l-0.5-2.9c-0.9,1.1-1.9,1.9-3,2.5c-1.2,0.6-2.4,0.9-3.8,0.9
			c-1.7,0-3.1-0.5-4.1-1.4s-1.5-2.3-1.5-4C160.3,545.6,160.7,544.5,161.4,543.6z M164.2,549c0.6,0.5,1.4,0.8,2.3,0.8
			c1.2,0,2.3-0.4,3.5-1.1c1.2-0.7,2.1-1.7,2.7-3v-3.6l-3.1,0.6c-1.7,0.3-3,0.6-3.8,0.8c-0.9,0.3-1.5,0.7-1.9,1.2
			c-0.4,0.5-0.6,1.1-0.6,1.9C163.4,547.7,163.7,548.4,164.2,549z"/>
		<path class="st2" d="M183.7,551.7l-5.4-18.6h3.1l4.1,15.3l4-15.3h3.8l4.1,15.2l4.2-15.2h2.8l-5.3,18.6h-3.6l-4.1-15.3l-4.1,15.3
			L183.7,551.7z"/>
		<path class="st2" d="M207.2,551.7v-18.6h2.7l0.2,3.7c0.7-1.2,1.6-2.2,2.7-3c1.1-0.8,2.4-1.2,3.9-1.2c1.9,0,3.5,0.6,4.5,1.8
			c1.1,1.2,1.6,2.9,1.6,5.1v12.2h-3v-12c0-1.5-0.3-2.7-0.8-3.5c-0.5-0.8-1.5-1.2-2.7-1.2c-0.8,0-1.7,0.3-2.5,0.8
			c-0.9,0.5-1.6,1.2-2.2,2.1c-0.6,0.9-1.1,1.8-1.3,2.8v10.9H207.2z"/>
		<path class="st2" d="M234.9,542.1c0-1.9,0.4-3.5,1.1-5c0.7-1.5,1.8-2.6,3.1-3.4c1.3-0.8,2.8-1.2,4.5-1.2c1.7,0,3.2,0.4,4.5,1.2
			c1.3,0.8,2.3,1.9,3.1,3.4c0.7,1.5,1.1,3.1,1.1,5v0.6c0,1.9-0.4,3.5-1.1,4.9c-0.7,1.4-1.8,2.6-3.1,3.3c-1.3,0.8-2.8,1.2-4.5,1.2
			c-1.7,0-3.2-0.4-4.5-1.2c-1.3-0.8-2.4-1.9-3.1-3.3c-0.7-1.4-1.1-3.1-1.1-4.9V542.1z M238,542.7c0,2.2,0.5,3.9,1.5,5.2
			c1,1.3,2.4,1.9,4.1,1.9c1.7,0,3.1-0.6,4.1-1.9s1.5-3,1.5-5.2v-0.6c0-2.2-0.5-3.9-1.5-5.2c-1-1.3-2.4-2-4.1-2c-1.7,0-3.1,0.7-4.1,2
			c-1,1.3-1.5,3-1.5,5.2V542.7z"/>
		<path class="st2" d="M253.6,535.5v-2.4h3.7v-1.8c0-1.1,0.2-2.2,0.6-3.1c0.4-1,1.1-1.7,2-2.3s1.9-0.9,3.2-0.9
			c0.9,0,1.7,0.2,2.3,0.5v2.7c-0.5-0.5-1.2-0.7-2.1-0.7c-0.9,0-1.7,0.3-2.2,1c-0.5,0.6-0.8,1.6-0.8,2.9v1.8h4.4v2.4h-4.4v16.1h-3
			v-16.1H253.6z"/>
		<path class="st2" d="M278.8,535.5h-4.1v-2.4h4.1v-5.6h3v5.6h4.1v2.4h-4.1v16.1h-3V535.5z"/>
		<path class="st2" d="M288.5,551.7v-26h3v11.2c0.7-1.2,1.6-2.1,2.7-3c1.1-0.8,2.4-1.2,3.8-1.2c2,0,3.5,0.6,4.5,1.8s1.6,2.9,1.6,5.1
			v12.2h-3v-12c0-1.5-0.3-2.7-0.8-3.5c-0.5-0.8-1.5-1.2-2.7-1.2c-0.8,0-1.7,0.3-2.5,0.8c-0.9,0.5-1.6,1.2-2.2,2.1s-1.1,1.8-1.3,2.8
			v11H288.5z"/>
		<path class="st2" d="M307.4,542c0-1.8,0.4-3.4,1.1-4.8c0.7-1.4,1.7-2.5,2.9-3.3c1.3-0.8,2.7-1.2,4.3-1.2c2.5,0,4.4,0.8,5.9,2.5
			c1.4,1.6,2.1,4,2.1,7.1v1.2h-13.3c0.1,1.9,0.7,3.4,1.7,4.6c1,1.2,2.3,1.8,4,1.8c2.6,0,4.8-0.9,6.6-2.8v3c-0.8,0.7-1.7,1.2-2.8,1.6
			c-1.1,0.4-2.3,0.6-3.8,0.6c-1.8,0-3.4-0.4-4.7-1.2c-1.3-0.8-2.3-1.9-3-3.3s-1-3.1-1-4.9V542z M320.7,541.1c0-2-0.5-3.5-1.4-4.5
			c-0.9-1-2.1-1.5-3.6-1.5c-1,0-1.8,0.2-2.6,0.7c-0.8,0.5-1.4,1.2-1.9,2.1c-0.5,0.9-0.8,2-0.8,3.2H320.7z"/>
		<path class="st2" d="M335.7,545.4c0.8,1.3,1.9,2.3,3.2,3.1s2.7,1.2,4.2,1.2c1.1,0,2.1-0.2,2.9-0.6c0.8-0.4,1.4-1,1.8-1.6
			c0.4-0.7,0.6-1.4,0.6-2.1c0-1-0.3-1.9-1-2.7c-0.6-0.7-1.6-1.5-2.9-2.2l-3.7-1.9c-1.5-0.8-2.7-1.7-3.6-2.8c-0.9-1-1.3-2.3-1.3-3.9
			c0-1.2,0.3-2.3,0.9-3.3c0.6-1,1.5-1.8,2.7-2.3c1.2-0.6,2.5-0.8,4.1-0.8c1.3,0,2.5,0.3,3.8,0.8c1.3,0.5,2.3,1.2,3.2,2.1v3.7
			c-0.9-1.2-2-2.2-3.3-3c-1.3-0.7-2.5-1.1-3.8-1.1c-1.3,0-2.4,0.4-3.2,1.1c-0.8,0.7-1.2,1.6-1.2,2.7c0,0.9,0.3,1.6,0.9,2.2
			c0.6,0.6,1.5,1.3,2.9,2l3.6,1.9c1.7,0.9,3,1.9,3.9,3.1c0.8,1.2,1.3,2.6,1.3,4.2c0,1.4-0.3,2.6-1,3.7c-0.7,1.1-1.7,1.9-3,2.5
			c-1.3,0.6-2.8,0.9-4.6,0.9c-1.6,0-3.1-0.3-4.4-0.8c-1.3-0.6-2.3-1.2-3-2V545.4z"/>
		<path class="st2" d="M355.8,525.9h3.2v16.3c0,2.3,0.6,4.2,1.8,5.5c1.2,1.3,2.9,2,5.2,2c2.2,0,3.9-0.7,5.1-2
			c1.2-1.3,1.8-3.2,1.8-5.5v-16.3h3v16.4c0,1.9-0.4,3.6-1.2,5.1c-0.8,1.5-1.9,2.7-3.4,3.5c-1.5,0.8-3.3,1.3-5.4,1.3
			c-2.1,0-3.8-0.4-5.4-1.3c-1.5-0.9-2.7-2-3.4-3.5c-0.8-1.5-1.2-3.2-1.2-5.1V525.9z"/>
		<path class="st2" d="M388.2,551.7l-9.7-25.8h3.4l8.1,22l7.9-22h3.2l-9.5,25.8H388.2z"/>
		<path class="st2" d="M428.6,551.7H413v-25.8h15.4v2.6h-12.2v8.7h10.4v2.6h-10.4v9.4h12.4V551.7z"/>
		<path class="st2" d="M440.3,551.7l-9.7-25.8h3.4l8.1,22l7.9-22h3.2l-9.5,25.8H440.3z"/>
		<path class="st2" d="M463.5,542c0-1.8,0.4-3.4,1.1-4.8c0.7-1.4,1.7-2.5,2.9-3.3c1.3-0.8,2.7-1.2,4.3-1.2c2.5,0,4.4,0.8,5.9,2.5
			c1.4,1.6,2.1,4,2.1,7.1v1.2h-13.3c0.1,1.9,0.7,3.4,1.7,4.6c1,1.2,2.3,1.8,4,1.8c2.6,0,4.8-0.9,6.6-2.8v3c-0.8,0.7-1.7,1.2-2.8,1.6
			c-1.1,0.4-2.3,0.6-3.8,0.6c-1.8,0-3.4-0.4-4.7-1.2c-1.3-0.8-2.3-1.9-3-3.3s-1-3.1-1-4.9V542z M476.8,541.1c0-2-0.5-3.5-1.4-4.5
			c-0.9-1-2.1-1.5-3.6-1.5c-1,0-1.8,0.2-2.6,0.7c-0.8,0.5-1.4,1.2-1.9,2.1c-0.5,0.9-0.8,2-0.8,3.2H476.8z"/>
		<path class="st2" d="M488.3,551.7l-7.1-18.6h3.2l5.6,15.4l5.7-15.4h2.9l-7.1,18.6H488.3z"/>
		<path class="st2" d="M500.1,542c0-1.8,0.4-3.4,1.1-4.8c0.7-1.4,1.7-2.5,2.9-3.3c1.3-0.8,2.7-1.2,4.3-1.2c2.5,0,4.4,0.8,5.9,2.5
			c1.4,1.6,2.1,4,2.1,7.1v1.2h-13.3c0.1,1.9,0.7,3.4,1.7,4.6c1,1.2,2.3,1.8,4,1.8c2.6,0,4.8-0.9,6.6-2.8v3c-0.8,0.7-1.7,1.2-2.8,1.6
			c-1.1,0.4-2.3,0.6-3.8,0.6c-1.8,0-3.4-0.4-4.7-1.2c-1.3-0.8-2.3-1.9-3-3.3s-1-3.1-1-4.9V542z M513.4,541.1c0-2-0.5-3.5-1.4-4.5
			c-0.9-1-2.1-1.5-3.6-1.5c-1,0-1.8,0.2-2.6,0.7c-0.8,0.5-1.4,1.2-1.9,2.1c-0.5,0.9-0.8,2-0.8,3.2H513.4z"/>
		<path class="st2" d="M520.1,551.7v-18.6h2.7l0.2,3.2c0.5-1.2,1.3-2.1,2.2-2.7c0.9-0.7,2.1-1,3.3-1c0.3,0,0.6,0,1,0.1
			c0.3,0,0.6,0.1,0.7,0.2v2.7c-0.5-0.2-1.1-0.3-1.9-0.3c-1.2,0-2.3,0.4-3.2,1.2c-1,0.8-1.7,1.9-2.1,3.2v12.1H520.1z"/>
		<path class="st2" d="M538.7,551.6l-7.3-18.5h3.3l5.7,14.9l5.7-14.9h3.1l-10.4,26h-3.2L538.7,551.6z"/>
		<path class="st2" d="M550.4,542.1c0-1.9,0.4-3.5,1.1-5c0.7-1.5,1.8-2.6,3.1-3.4c1.3-0.8,2.8-1.2,4.5-1.2c1.7,0,3.2,0.4,4.5,1.2
			c1.3,0.8,2.3,1.9,3.1,3.4c0.7,1.5,1.1,3.1,1.1,5v0.6c0,1.9-0.4,3.5-1.1,4.9c-0.7,1.4-1.8,2.6-3.1,3.3c-1.3,0.8-2.8,1.2-4.5,1.2
			c-1.7,0-3.2-0.4-4.5-1.2c-1.3-0.8-2.4-1.9-3.1-3.3c-0.7-1.4-1.1-3.1-1.1-4.9V542.1z M553.5,542.7c0,2.2,0.5,3.9,1.5,5.2
			c1,1.3,2.4,1.9,4.1,1.9c1.7,0,3.1-0.6,4.1-1.9s1.5-3,1.5-5.2v-0.6c0-2.2-0.5-3.9-1.5-5.2c-1-1.3-2.4-2-4.1-2c-1.7,0-3.1,0.7-4.1,2
			c-1,1.3-1.5,3-1.5,5.2V542.7z"/>
		<path class="st2" d="M571.5,551.7v-18.6h2.7l0.2,3.7c0.7-1.2,1.6-2.2,2.7-3c1.1-0.8,2.4-1.2,3.9-1.2c1.9,0,3.5,0.6,4.5,1.8
			c1.1,1.2,1.6,2.9,1.6,5.1v12.2h-3v-12c0-1.5-0.3-2.7-0.8-3.5c-0.5-0.8-1.5-1.2-2.7-1.2c-0.8,0-1.7,0.3-2.5,0.8
			c-0.9,0.5-1.6,1.2-2.2,2.1c-0.6,0.9-1.1,1.8-1.3,2.8v10.9H571.5z"/>
		<path class="st2" d="M590.3,542c0-1.8,0.4-3.4,1.1-4.8c0.7-1.4,1.7-2.5,2.9-3.3c1.3-0.8,2.7-1.2,4.3-1.2c2.5,0,4.4,0.8,5.9,2.5
			c1.4,1.6,2.1,4,2.1,7.1v1.2h-13.3c0.1,1.9,0.7,3.4,1.7,4.6c1,1.2,2.3,1.8,4,1.8c2.6,0,4.8-0.9,6.6-2.8v3c-0.8,0.7-1.7,1.2-2.8,1.6
			c-1.1,0.4-2.3,0.6-3.8,0.6c-1.8,0-3.4-0.4-4.7-1.2c-1.3-0.8-2.3-1.9-3-3.3s-1-3.1-1-4.9V542z M603.6,541.1c0-2-0.5-3.5-1.4-4.5
			c-0.9-1-2.1-1.5-3.6-1.5c-1,0-1.8,0.2-2.6,0.7c-0.8,0.5-1.4,1.2-1.9,2.1c-0.5,0.9-0.8,2-0.8,3.2H603.6z"/>
		<path class="st2" d="M619.1,551.7v-26h3v11.2c0.7-1.2,1.6-2.1,2.7-3c1.1-0.8,2.4-1.2,3.8-1.2c2,0,3.5,0.6,4.5,1.8s1.6,2.9,1.6,5.1
			v12.2h-3v-12c0-1.5-0.3-2.7-0.8-3.5c-0.5-0.8-1.5-1.2-2.7-1.2c-0.8,0-1.7,0.3-2.5,0.8c-0.9,0.5-1.6,1.2-2.2,2.1s-1.1,1.8-1.3,2.8
			v11H619.1z"/>
		<path class="st2" d="M639,543.6c0.5-0.7,1.3-1.3,2.4-1.8c1.1-0.4,2.5-0.8,4.4-1.2l4.6-0.8c0-1.6-0.5-2.8-1.3-3.7
			c-0.8-0.8-2-1.2-3.7-1.2c-1.2,0-2.3,0.3-3.3,0.8c-1.1,0.5-1.9,1.3-2.7,2.2v-3c0.7-0.7,1.6-1.2,2.7-1.7c1.1-0.5,2.3-0.7,3.6-0.7
			c2.4,0,4.2,0.6,5.6,1.8c1.4,1.2,2,3,2,5.3v12h-2.3l-0.5-2.9c-0.9,1.1-1.9,1.9-3,2.5c-1.2,0.6-2.4,0.9-3.8,0.9
			c-1.7,0-3.1-0.5-4.1-1.4s-1.5-2.3-1.5-4C638,545.6,638.3,544.5,639,543.6z M641.9,549c0.6,0.5,1.4,0.8,2.3,0.8
			c1.2,0,2.3-0.4,3.5-1.1c1.2-0.7,2.1-1.7,2.7-3v-3.6l-3.1,0.6c-1.7,0.3-3,0.6-3.8,0.8c-0.9,0.3-1.5,0.7-1.9,1.2
			c-0.4,0.5-0.6,1.1-0.6,1.9C641,547.7,641.3,548.4,641.9,549z"/>
		<path class="st2" d="M657.3,547c1.5,1.9,3.5,2.8,5.9,2.8c1.2,0,2.2-0.3,2.9-0.8c0.7-0.5,1.1-1.2,1.1-2.1c0-0.7-0.2-1.2-0.6-1.7
			c-0.4-0.5-1.1-0.9-2.2-1.3l-2.5-1c-1.5-0.6-2.6-1.4-3.4-2.2c-0.7-0.8-1.1-1.9-1.1-3.1c0-0.9,0.2-1.7,0.7-2.5
			c0.5-0.8,1.2-1.4,2.1-1.8c0.9-0.5,2.1-0.7,3.4-0.7c1.1,0,2.2,0.2,3.2,0.6c1,0.4,1.8,0.9,2.5,1.5v3.2c-0.8-1-1.7-1.7-2.7-2.1
			c-1-0.5-2-0.7-3-0.7c-1.1,0-1.9,0.2-2.5,0.7c-0.6,0.5-0.8,1.1-0.8,1.8c0,0.6,0.2,1.1,0.7,1.5c0.4,0.4,1.2,0.8,2.2,1.2l2.4,1
			c1.5,0.6,2.7,1.4,3.4,2.3c0.7,0.9,1.1,2,1.1,3.2c0,1.7-0.7,3-2,4c-1.3,1-3,1.5-5,1.5c-1.3,0-2.4-0.2-3.4-0.6
			c-1-0.4-1.8-0.9-2.5-1.4V547z"/>
		<path class="st2" d="M682.4,537.2c0.7-1.5,1.7-2.6,2.9-3.4c1.2-0.8,2.6-1.2,4.2-1.2c1.2,0,2.3,0.3,3.3,0.9
			c1.1,0.6,1.9,1.4,2.6,2.4v-10.2h3v26h-2.7l-0.2-2.9c-0.7,1-1.5,1.8-2.6,2.5c-1.1,0.6-2.2,0.9-3.4,0.9c-1.5,0-2.9-0.4-4.2-1.2
			c-1.2-0.8-2.2-1.9-2.9-3.4c-0.7-1.5-1.1-3.2-1.1-5.2C681.4,540.4,681.7,538.7,682.4,537.2z M685.2,546.3c0.5,1.1,1.1,2,2,2.6
			c0.8,0.6,1.8,0.9,2.8,0.9c1.2,0,2.2-0.4,3.2-1.3c1-0.8,1.8-1.9,2.2-3.1v-6.1c-0.5-1.3-1.2-2.3-2.2-3.1c-1-0.8-2.1-1.2-3.2-1.2
			c-1,0-2,0.3-2.8,0.9c-0.8,0.6-1.5,1.5-2,2.6s-0.7,2.4-0.7,3.9C684.5,543.9,684.7,545.2,685.2,546.3z"/>
		<path class="st2" d="M703.4,551.7v-18.6h2.7l0.2,3.2c0.5-1.2,1.3-2.1,2.2-2.7c0.9-0.7,2.1-1,3.3-1c0.3,0,0.6,0,1,0.1
			c0.3,0,0.6,0.1,0.7,0.2v2.7c-0.5-0.2-1.1-0.3-1.9-0.3c-1.2,0-2.3,0.4-3.2,1.2c-1,0.8-1.7,1.9-2.1,3.2v12.1H703.4z"/>
		<path class="st2" d="M714.9,542c0-1.8,0.4-3.4,1.1-4.8c0.7-1.4,1.7-2.5,2.9-3.3c1.3-0.8,2.7-1.2,4.3-1.2c2.5,0,4.4,0.8,5.9,2.5
			c1.4,1.6,2.1,4,2.1,7.1v1.2h-13.3c0.1,1.9,0.7,3.4,1.7,4.6c1,1.2,2.3,1.8,4,1.8c2.6,0,4.8-0.9,6.6-2.8v3c-0.8,0.7-1.7,1.2-2.8,1.6
			c-1.1,0.4-2.3,0.6-3.8,0.6c-1.8,0-3.4-0.4-4.7-1.2c-1.3-0.8-2.3-1.9-3-3.3s-1-3.1-1-4.9V542z M728.2,541.1c0-2-0.5-3.5-1.4-4.5
			c-0.9-1-2.1-1.5-3.6-1.5c-1,0-1.8,0.2-2.6,0.7c-0.8,0.5-1.4,1.2-1.9,2.1c-0.5,0.9-0.8,2-0.8,3.2H728.2z"/>
		<path class="st2" d="M734.5,543.6c0.5-0.7,1.3-1.3,2.4-1.8c1.1-0.4,2.5-0.8,4.4-1.2l4.6-0.8c0-1.6-0.5-2.8-1.3-3.7
			c-0.8-0.8-2-1.2-3.7-1.2c-1.2,0-2.3,0.3-3.3,0.8c-1.1,0.5-1.9,1.3-2.7,2.2v-3c0.7-0.7,1.6-1.2,2.7-1.7c1.1-0.5,2.3-0.7,3.6-0.7
			c2.4,0,4.2,0.6,5.6,1.8c1.4,1.2,2,3,2,5.3v12h-2.3l-0.5-2.9c-0.9,1.1-1.9,1.9-3,2.5c-1.2,0.6-2.4,0.9-3.8,0.9
			c-1.7,0-3.1-0.5-4.1-1.4s-1.5-2.3-1.5-4C733.5,545.6,733.8,544.5,734.5,543.6z M737.4,549c0.6,0.5,1.4,0.8,2.3,0.8
			c1.2,0,2.3-0.4,3.5-1.1c1.2-0.7,2.1-1.7,2.7-3v-3.6l-3.1,0.6c-1.7,0.3-3,0.6-3.8,0.8c-0.9,0.3-1.5,0.7-1.9,1.2
			c-0.4,0.5-0.6,1.1-0.6,1.9C736.5,547.7,736.8,548.4,737.4,549z"/>
		<path class="st2" d="M753.6,551.7v-18.6h2.7l0.2,3.4c0.7-1.2,1.6-2.1,2.6-2.8c1-0.7,2.2-1.1,3.5-1.1c1.3,0,2.4,0.4,3.3,1.1
			c0.9,0.7,1.5,1.7,1.8,3c0.7-1.2,1.6-2.2,2.7-3c1.1-0.7,2.3-1.1,3.6-1.1c1.7,0,3,0.6,4,1.7c1,1.1,1.5,2.7,1.5,4.8v12.6h-3v-12.4
			c0-1.5-0.2-2.6-0.7-3.3c-0.5-0.7-1.3-1.1-2.4-1.1c-0.7,0-1.4,0.2-2.2,0.7c-0.7,0.5-1.4,1.1-2,1.8c-0.6,0.8-1,1.6-1.2,2.4v11.7h-3
			v-12.4c0-1.5-0.2-2.5-0.7-3.2c-0.5-0.7-1.3-1-2.4-1c-0.7,0-1.4,0.2-2.1,0.7c-0.7,0.5-1.4,1.1-2,1.8c-0.6,0.8-1,1.6-1.3,2.5v11.7
			H753.6z"/>
		<path class="st2" d="M782.9,542c0-1.8,0.4-3.4,1.1-4.8c0.7-1.4,1.7-2.5,2.9-3.3c1.3-0.8,2.7-1.2,4.3-1.2c2.5,0,4.4,0.8,5.9,2.5
			c1.4,1.6,2.1,4,2.1,7.1v1.2h-13.3c0.1,1.9,0.7,3.4,1.7,4.6c1,1.2,2.3,1.8,4,1.8c2.6,0,4.8-0.9,6.6-2.8v3c-0.8,0.7-1.7,1.2-2.8,1.6
			c-1.1,0.4-2.3,0.6-3.8,0.6c-1.8,0-3.4-0.4-4.7-1.2c-1.3-0.8-2.3-1.9-3-3.3s-1-3.1-1-4.9V542z M796.2,541.1c0-2-0.5-3.5-1.4-4.5
			c-0.9-1-2.1-1.5-3.6-1.5c-1,0-1.8,0.2-2.6,0.7c-0.8,0.5-1.4,1.2-1.9,2.1c-0.5,0.9-0.8,2-0.8,3.2H796.2z"/>
		<path class="st2" d="M802.5,537.2c0.7-1.5,1.7-2.6,2.9-3.4c1.2-0.8,2.6-1.2,4.2-1.2c1.2,0,2.3,0.3,3.3,0.9
			c1.1,0.6,1.9,1.4,2.6,2.4v-10.2h3v26h-2.7l-0.2-2.9c-0.7,1-1.5,1.8-2.6,2.5c-1.1,0.6-2.2,0.9-3.4,0.9c-1.5,0-2.9-0.4-4.2-1.2
			c-1.2-0.8-2.2-1.9-2.9-3.4c-0.7-1.5-1.1-3.2-1.1-5.2C801.5,540.4,801.8,538.7,802.5,537.2z M805.3,546.3c0.5,1.1,1.1,2,2,2.6
			c0.8,0.6,1.8,0.9,2.8,0.9c1.2,0,2.2-0.4,3.2-1.3c1-0.8,1.8-1.9,2.2-3.1v-6.1c-0.5-1.3-1.2-2.3-2.2-3.1c-1-0.8-2.1-1.2-3.2-1.2
			c-1,0-2,0.3-2.8,0.9c-0.8,0.6-1.5,1.5-2,2.6s-0.7,2.4-0.7,3.9C804.6,543.9,804.8,545.2,805.3,546.3z"/>
		<path class="st2" d="M831,542.1c0-1.9,0.4-3.5,1.1-5c0.7-1.5,1.8-2.6,3.1-3.4c1.3-0.8,2.8-1.2,4.5-1.2c1.7,0,3.2,0.4,4.5,1.2
			c1.3,0.8,2.3,1.9,3.1,3.4c0.7,1.5,1.1,3.1,1.1,5v0.6c0,1.9-0.4,3.5-1.1,4.9c-0.7,1.4-1.8,2.6-3.1,3.3c-1.3,0.8-2.8,1.2-4.5,1.2
			c-1.7,0-3.2-0.4-4.5-1.2c-1.3-0.8-2.4-1.9-3.1-3.3c-0.7-1.4-1.1-3.1-1.1-4.9V542.1z M834.2,542.7c0,2.2,0.5,3.9,1.5,5.2
			c1,1.3,2.4,1.9,4.1,1.9c1.7,0,3.1-0.6,4.1-1.9s1.5-3,1.5-5.2v-0.6c0-2.2-0.5-3.9-1.5-5.2c-1-1.3-2.4-2-4.1-2c-1.7,0-3.1,0.7-4.1,2
			c-1,1.3-1.5,3-1.5,5.2V542.7z"/>
		<path class="st2" d="M849.7,535.5v-2.4h3.7v-1.8c0-1.1,0.2-2.2,0.6-3.1c0.4-1,1.1-1.7,2-2.3s1.9-0.9,3.2-0.9
			c0.9,0,1.7,0.2,2.3,0.5v2.7c-0.5-0.5-1.2-0.7-2.1-0.7c-0.9,0-1.7,0.3-2.2,1c-0.5,0.6-0.8,1.6-0.8,2.9v1.8h4.4v2.4h-4.4v16.1h-3
			v-16.1H849.7z"/>
		<path class="st2" d="M865.8,551.7h-3.9v-4.4h3.9V551.7z"/>
	</g>
</g>
</svg>
