<?xml version="1.0" encoding="utf-8"?>
<!-- Generator: Adobe Illustrator 27.5.0, SVG Export Plug-In . SVG Version: 6.00 Build 0)  -->
<svg version="1.1" id="레이어_1" xmlns="http://www.w3.org/2000/svg" xmlns:xlink="http://www.w3.org/1999/xlink" x="0px"
	 y="0px" viewBox="0 0 1920 1080" style="enable-background:new 0 0 1920 1080;" xml:space="preserve">
<style type="text/css">
	.st0{opacity:0;}
	.st1{clip-path:url(#SVGID_00000098221240662483087060000017476461321762543770_);fill:#FFFFFF;}
	.st2{fill:#231815;}
</style>
<g>
	<g>
		<g class="st0">
			<g>
				<defs>
					<rect id="SVGID_1_" x="-9" y="460" width="1938" height="154"/>
				</defs>
				<clipPath id="SVGID_00000142894334139965670000000005331892713098099109_">
					<use xlink:href="#SVGID_1_"  style="overflow:visible;"/>
				</clipPath>
				
					<rect y="467" style="clip-path:url(#SVGID_00000142894334139965670000000005331892713098099109_);fill:#FFFFFF;" width="1920" height="146"/>
			</g>
		</g>
	</g>
	<g>
		<path class="st2" d="M87.3,485.4H72.1v-4.9h36.3v4.9H93.3v44.5h-6V485.4z"/>
		<path class="st2" d="M114.6,529.9v-49.8h5.7v21.3c1.3-2.2,3-4.1,5.2-5.7c2.2-1.6,4.6-2.3,7.3-2.3c3.8,0,6.7,1.1,8.6,3.4
			c2,2.3,3,5.5,3,9.8v23.3h-5.7V507c0-2.9-0.5-5.2-1.6-6.7s-2.8-2.3-5.2-2.3c-1.6,0-3.2,0.5-4.8,1.5c-1.6,1-3.1,2.3-4.3,4
			c-1.2,1.6-2.1,3.4-2.6,5.3v21.1H114.6z"/>
		<path class="st2" d="M150.6,511.3c0-3.4,0.7-6.5,2-9.2c1.3-2.7,3.2-4.9,5.6-6.4c2.4-1.5,5.2-2.3,8.3-2.3c4.8,0,8.5,1.6,11.2,4.7
			c2.7,3.1,4.1,7.7,4.1,13.6v2.3h-25.5c0.2,3.6,1.3,6.5,3.2,8.8c1.9,2.3,4.5,3.4,7.7,3.5c5,0,9.2-1.8,12.5-5.4v5.8
			c-1.5,1.3-3.3,2.3-5.3,3.1c-2,0.7-4.4,1.1-7.2,1.1c-3.5,0-6.4-0.8-8.9-2.3c-2.5-1.5-4.4-3.7-5.7-6.4c-1.3-2.8-2-5.9-2-9.5V511.3z
			 M176.1,509.5c0-3.8-0.9-6.7-2.7-8.6c-1.7-2-4-2.9-6.8-2.9c-1.8,0-3.5,0.5-5,1.4s-2.7,2.3-3.6,4c-0.9,1.7-1.5,3.8-1.6,6.1H176.1z"
			/>
		<path class="st2" d="M212,529.9h-6v-49.4h6v22.4l22.8-22.4h7.9l-24.8,24.1l25.7,25.3H235l-22.9-23V529.9z"/>
		<path class="st2" d="M254.3,488.5h-5.7v-7.2h5.7V488.5z M254.3,529.9h-5.7v-35.5h5.7V529.9z"/>
		<path class="st2" d="M263.1,514.3c1-1.4,2.6-2.6,4.6-3.4c2-0.8,4.8-1.6,8.4-2.2l8.8-1.6c-0.1-3.1-0.9-5.4-2.4-7
			c-1.5-1.5-3.9-2.3-7-2.3c-2.3,0-4.4,0.5-6.4,1.6c-2,1-3.7,2.4-5.1,4.2v-5.7c1.3-1.3,3.1-2.4,5.2-3.2c2.1-0.9,4.4-1.3,6.9-1.3
			c4.5,0,8.1,1.1,10.7,3.4c2.6,2.3,3.9,5.7,3.9,10.2v22.9h-4.5l-1-5.5c-1.6,2-3.6,3.6-5.8,4.7c-2.2,1.1-4.7,1.7-7.3,1.7
			c-3.3,0-5.9-0.9-7.9-2.7c-2-1.8-3-4.4-3-7.6C261.2,518.1,261.8,516.1,263.1,514.3z M268.6,524.6c1.1,1,2.6,1.5,4.5,1.5
			c2.2,0,4.4-0.7,6.7-2.1c2.2-1.4,4-3.3,5.2-5.7v-6.8l-5.9,1.1c-3.2,0.6-5.7,1.1-7.3,1.6c-1.6,0.5-2.9,1.3-3.6,2.3
			c-0.8,1-1.2,2.2-1.2,3.7C266.9,522.1,267.5,523.6,268.6,524.6z"/>
	</g>
	<g>
		<path class="st2" d="M347.8,529.7h-31.5v-49.4h31.2v7.1h-22.4v13.3h18.8v7.1h-18.8v14.6h22.8V529.7z"/>
		<path class="st2" d="M369.4,529.7l-18.1-49.4h9.8l13.7,39.3l13.8-39.3h8.6l-18,49.4H369.4z"/>
		<path class="st2" d="M401.4,516.3c1.5,2.2,3.4,3.9,5.7,5.2c2.3,1.2,4.8,1.9,7.4,1.9c2,0,3.7-0.4,5.2-1.3c1.5-0.8,2.7-2,3.5-3.4
			c0.8-1.4,1.2-3,1.2-4.7c0-2.6-0.8-4.6-2.4-6.1s-3.6-2.2-6-2.2c-1.5,0-2.9,0.3-4.2,0.9c-1.3,0.6-2.2,1.2-2.8,1.9h-5.8l2.3-27.4
			h26.1v7.2h-18.1l-1,12c0.5-0.4,1.4-0.7,2.5-1.1c1.1-0.3,2.4-0.5,3.7-0.5c2.8,0,5.3,0.6,7.6,1.8c2.3,1.2,4.1,2.9,5.4,5.3
			c1.3,2.3,1.9,5.1,1.9,8.3c0,3.4-0.8,6.4-2.5,8.8c-1.7,2.5-4,4.4-6.8,5.7s-6,2-9.6,2c-5.3,0-9.8-1.5-13.5-4.4V516.3z"/>
	</g>
	<g>
		<path class="st2" d="M76.1,435.5H73v-25.8h15.5v2.6H76.1v9h10.4v2.6H76.1V435.5z"/>
		<path class="st2" d="M94.8,413.8h-3v-3.8h3V413.8z M94.8,435.5h-3v-18.6h3V435.5z"/>
		<path class="st2" d="M99.7,435.5v-18.6h2.7l0.2,3.2c0.5-1.2,1.3-2.1,2.2-2.7c0.9-0.7,2.1-1,3.3-1c0.3,0,0.6,0,1,0.1
			c0.3,0,0.6,0.1,0.7,0.2v2.7c-0.5-0.2-1.1-0.3-1.9-0.3c-1.2,0-2.3,0.4-3.2,1.2c-1,0.8-1.7,1.9-2.1,3.2v12.1H99.7z"/>
		<path class="st2" d="M111.8,430.8c1.5,1.9,3.5,2.8,5.9,2.8c1.2,0,2.2-0.3,2.9-0.8c0.7-0.5,1.1-1.2,1.1-2.1c0-0.7-0.2-1.2-0.6-1.7
			c-0.4-0.5-1.1-0.9-2.2-1.3l-2.5-1c-1.5-0.6-2.6-1.4-3.4-2.2c-0.7-0.8-1.1-1.9-1.1-3.1c0-0.9,0.2-1.7,0.7-2.5
			c0.5-0.8,1.2-1.4,2.1-1.8c0.9-0.5,2.1-0.7,3.4-0.7c1.1,0,2.2,0.2,3.2,0.6c1,0.4,1.8,0.9,2.5,1.5v3.2c-0.8-1-1.7-1.7-2.7-2.1
			c-1-0.5-2-0.7-3-0.7c-1.1,0-1.9,0.2-2.5,0.7c-0.6,0.5-0.8,1.1-0.8,1.8c0,0.6,0.2,1.1,0.7,1.5c0.4,0.4,1.2,0.8,2.2,1.2l2.4,1
			c1.5,0.6,2.7,1.4,3.4,2.3c0.7,0.9,1.1,2,1.1,3.2c0,1.7-0.7,3-2,4c-1.3,1-3,1.5-5,1.5c-1.3,0-2.4-0.2-3.4-0.6
			c-1-0.4-1.8-0.9-2.5-1.4V430.8z"/>
		<path class="st2" d="M130.1,419.3h-4.1v-2.4h4.1v-5.6h3v5.6h4.1v2.4h-4.1v16.1h-3V419.3z"/>
		<path class="st2" d="M146.4,419.3v-2.4h3.7v-1.8c0-1.1,0.2-2.2,0.6-3.1c0.4-1,1.1-1.7,2-2.3s1.9-0.9,3.2-0.9
			c0.9,0,1.7,0.2,2.3,0.5v2.7c-0.5-0.5-1.2-0.7-2.1-0.7c-0.9,0-1.7,0.3-2.2,1c-0.5,0.6-0.8,1.6-0.8,2.9v1.8h4.4v2.4h-4.4v16.1h-3
			v-16.1H146.4z"/>
		<path class="st2" d="M159.1,425.9c0-1.9,0.4-3.5,1.1-5c0.7-1.5,1.8-2.6,3.1-3.4c1.3-0.8,2.8-1.2,4.5-1.2c1.7,0,3.2,0.4,4.5,1.2
			c1.3,0.8,2.3,1.9,3.1,3.4c0.7,1.5,1.1,3.1,1.1,5v0.6c0,1.9-0.4,3.5-1.1,4.9c-0.7,1.4-1.8,2.6-3.1,3.3c-1.3,0.8-2.8,1.2-4.5,1.2
			c-1.7,0-3.2-0.4-4.5-1.2c-1.3-0.8-2.4-1.9-3.1-3.3c-0.7-1.4-1.1-3.1-1.1-4.9V425.9z M162.3,426.5c0,2.2,0.5,3.9,1.5,5.2
			c1,1.3,2.4,1.9,4.1,1.9c1.7,0,3.1-0.6,4.1-1.9s1.5-3,1.5-5.2v-0.6c0-2.2-0.5-3.9-1.5-5.2c-1-1.3-2.4-2-4.1-2c-1.7,0-3.1,0.7-4.1,2
			c-1,1.3-1.5,3-1.5,5.2V426.5z"/>
		<path class="st2" d="M180.2,435.5v-18.6h2.7l0.2,3.2c0.5-1.2,1.3-2.1,2.2-2.7c0.9-0.7,2.1-1,3.3-1c0.3,0,0.6,0,1,0.1
			c0.3,0,0.6,0.1,0.7,0.2v2.7c-0.5-0.2-1.1-0.3-1.9-0.3c-1.2,0-2.3,0.4-3.2,1.2c-1,0.8-1.7,1.9-2.1,3.2v12.1H180.2z"/>
		<path class="st2" d="M217.7,435.5h-15.6v-25.8h15.4v2.6h-12.2v8.7h10.4v2.6h-10.4v9.4h12.4V435.5z"/>
		<path class="st2" d="M226.7,435.5l-7.1-18.6h3.2l5.6,15.4l5.7-15.4h2.9l-7.1,18.6H226.7z"/>
		<path class="st2" d="M238.4,425.7c0-1.8,0.4-3.4,1.1-4.8c0.7-1.4,1.7-2.5,2.9-3.3c1.3-0.8,2.7-1.2,4.3-1.2c2.5,0,4.4,0.8,5.9,2.5
			c1.4,1.6,2.1,4,2.1,7.1v1.2h-13.3c0.1,1.9,0.7,3.4,1.7,4.6c1,1.2,2.3,1.8,4,1.8c2.6,0,4.8-0.9,6.6-2.8v3c-0.8,0.7-1.7,1.2-2.8,1.6
			c-1.1,0.4-2.3,0.6-3.8,0.6c-1.8,0-3.4-0.4-4.7-1.2c-1.3-0.8-2.3-1.9-3-3.3s-1-3.1-1-4.9V425.7z M251.8,424.8c0-2-0.5-3.5-1.4-4.5
			c-0.9-1-2.1-1.5-3.6-1.5c-1,0-1.8,0.2-2.6,0.7c-0.8,0.5-1.4,1.2-1.9,2.1c-0.5,0.9-0.8,2-0.8,3.2H251.8z"/>
		<path class="st2" d="M258.4,435.5v-18.6h2.7l0.2,3.2c0.5-1.2,1.3-2.1,2.2-2.7c0.9-0.7,2.1-1,3.3-1c0.3,0,0.6,0,1,0.1
			c0.3,0,0.6,0.1,0.7,0.2v2.7c-0.5-0.2-1.1-0.3-1.9-0.3c-1.2,0-2.3,0.4-3.2,1.2c-1,0.8-1.7,1.9-2.1,3.2v12.1H258.4z"/>
		<path class="st2" d="M277,435.4l-7.3-18.5h3.3l5.7,14.9l5.7-14.9h3.1L277,443h-3.2L277,435.4z"/>
		<path class="st2" d="M288.7,425.9c0-1.9,0.4-3.5,1.1-5c0.7-1.5,1.8-2.6,3.1-3.4c1.3-0.8,2.8-1.2,4.5-1.2c1.7,0,3.2,0.4,4.5,1.2
			c1.3,0.8,2.3,1.9,3.1,3.4c0.7,1.5,1.1,3.1,1.1,5v0.6c0,1.9-0.4,3.5-1.1,4.9c-0.7,1.4-1.8,2.6-3.1,3.3c-1.3,0.8-2.8,1.2-4.5,1.2
			c-1.7,0-3.2-0.4-4.5-1.2c-1.3-0.8-2.4-1.9-3.1-3.3c-0.7-1.4-1.1-3.1-1.1-4.9V425.9z M291.8,426.5c0,2.2,0.5,3.9,1.5,5.2
			c1,1.3,2.4,1.9,4.1,1.9c1.7,0,3.1-0.6,4.1-1.9s1.5-3,1.5-5.2v-0.6c0-2.2-0.5-3.9-1.5-5.2c-1-1.3-2.4-2-4.1-2c-1.7,0-3.1,0.7-4.1,2
			c-1,1.3-1.5,3-1.5,5.2V426.5z"/>
		<path class="st2" d="M309.8,435.5v-18.6h2.7l0.2,3.7c0.7-1.2,1.6-2.2,2.7-3c1.1-0.8,2.4-1.2,3.9-1.2c1.9,0,3.5,0.6,4.5,1.8
			c1.1,1.2,1.6,2.9,1.6,5.1v12.2h-3v-12c0-1.5-0.3-2.7-0.8-3.5c-0.5-0.8-1.5-1.2-2.7-1.2c-0.8,0-1.7,0.3-2.5,0.8
			c-0.9,0.5-1.6,1.2-2.2,2.1c-0.6,0.9-1.1,1.8-1.3,2.8v10.9H309.8z"/>
		<path class="st2" d="M328.6,425.7c0-1.8,0.4-3.4,1.1-4.8c0.7-1.4,1.7-2.5,2.9-3.3c1.3-0.8,2.7-1.2,4.3-1.2c2.5,0,4.4,0.8,5.9,2.5
			c1.4,1.6,2.1,4,2.1,7.1v1.2h-13.3c0.1,1.9,0.7,3.4,1.7,4.6c1,1.2,2.3,1.8,4,1.8c2.6,0,4.8-0.9,6.6-2.8v3c-0.8,0.7-1.7,1.2-2.8,1.6
			c-1.1,0.4-2.3,0.6-3.8,0.6c-1.8,0-3.4-0.4-4.7-1.2c-1.3-0.8-2.3-1.9-3-3.3s-1-3.1-1-4.9V425.7z M342,424.8c0-2-0.5-3.5-1.4-4.5
			c-0.9-1-2.1-1.5-3.6-1.5c-1,0-1.8,0.2-2.6,0.7c-0.8,0.5-1.4,1.2-1.9,2.1c-0.5,0.9-0.8,2-0.8,3.2H342z"/>
	</g>
</g>
</svg>
