<?xml version="1.0" encoding="utf-8"?>
<!-- Generator: Adobe Illustrator 27.5.0, SVG Export Plug-In . SVG Version: 6.00 Build 0)  -->
<svg version="1.1" id="레이어_1" xmlns="http://www.w3.org/2000/svg" xmlns:xlink="http://www.w3.org/1999/xlink" x="0px"
	 y="0px" viewBox="0 0 1920 1080" style="enable-background:new 0 0 1920 1080;" xml:space="preserve">
<style type="text/css">
	.st0{clip-path:url(#SVGID_00000113353777575194180050000004759634764923451280_);}
	.st1{opacity:0;clip-path:url(#SVGID_00000084492167783147136760000017165673620810903451_);}
	.st2{clip-path:url(#SVGID_00000139276773289015267350000008720520154790650526_);fill:#FFFFFF;}
	.st3{fill:#FFFFFF;}
</style>
<g>
	<g>
		<defs>
			<rect id="SVGID_1_" y="434" width="1920" height="146"/>
		</defs>
		<clipPath id="SVGID_00000103236724303444404780000004733673601082781332_">
			<use xlink:href="#SVGID_1_"  style="overflow:visible;"/>
		</clipPath>
		<g style="clip-path:url(#SVGID_00000103236724303444404780000004733673601082781332_);">
			<defs>
				<rect id="SVGID_00000038377912804194432730000006392981932766048408_" y="434" width="1920" height="146"/>
			</defs>
			<clipPath id="SVGID_00000173155720660441556610000016693479137125820857_">
				<use xlink:href="#SVGID_00000038377912804194432730000006392981932766048408_"  style="overflow:visible;"/>
			</clipPath>
			<g style="opacity:0;clip-path:url(#SVGID_00000173155720660441556610000016693479137125820857_);">
				<g>
					<defs>
						<rect id="SVGID_00000023239631611903931370000009187604497604143805_" x="-9" y="427" width="1938" height="154"/>
					</defs>
					<clipPath id="SVGID_00000182525056580562036730000016060806086267307182_">
						<use xlink:href="#SVGID_00000023239631611903931370000009187604497604143805_"  style="overflow:visible;"/>
					</clipPath>
					
						<rect y="434" style="clip-path:url(#SVGID_00000182525056580562036730000016060806086267307182_);fill:#FFFFFF;" width="1920" height="146"/>
				</g>
			</g>
		</g>
	</g>
	<g>
		<path class="st3" d="M70.7,496.9v-1.5h18.1v1.5H70.7z M83.4,489.4h3.3v1.5H72.9v-1.5h3.2l-0.4-5.8l1.7-0.1l0.3,5.9h3.9l0.4-5.9
			l1.7,0.1L83.4,489.4z M73.1,481.3h13.3v1.6H73.1V481.3z"/>
		<path class="st3" d="M90.5,486.4h6.3v-3.4h-6.3v-1.6h8.1v6.5h-6.3v3.8h0.5c1,0,2.3-0.1,3.7-0.2c1.4-0.1,2.8-0.4,4.2-0.7l0.3,1.5
			c-1.8,0.3-3.5,0.6-5.1,0.7c-1.6,0.1-3.4,0.2-5.4,0.2V486.4z M104.9,498.4H103v-18.9h1.8V498.4z"/>
		<path class="st3" d="M108.8,492.9v-11.4h8.7v11.4H108.8z M115.7,482.9h-5v8.4h5V482.9z M123.2,498.4h-1.8v-18.9h1.8V498.4z"/>
		<path class="st3" d="M135.5,485.5c0,0.8-0.2,1.6-0.6,2.3c-0.4,0.7-1,1.2-1.7,1.6c-0.7,0.4-1.5,0.6-2.4,0.6s-1.7-0.2-2.4-0.6
			c-0.7-0.4-1.3-0.9-1.7-1.6c-0.4-0.7-0.6-1.4-0.6-2.3v-0.4c0-0.8,0.2-1.6,0.6-2.3c0.4-0.7,1-1.2,1.7-1.6c0.7-0.4,1.5-0.6,2.4-0.6
			s1.7,0.2,2.4,0.6c0.7,0.4,1.3,0.9,1.7,1.6c0.4,0.7,0.6,1.4,0.6,2.3V485.5z M128.1,485.5c0,0.9,0.3,1.6,0.8,2.1
			c0.5,0.6,1.2,0.8,2,0.8c0.8,0,1.5-0.3,2-0.8c0.5-0.6,0.8-1.3,0.8-2.1v-0.4c0-0.9-0.3-1.6-0.8-2.1c-0.5-0.6-1.2-0.8-2-0.8
			c-0.8,0-1.5,0.3-2,0.9c-0.5,0.6-0.8,1.3-0.8,2.1V485.5z M141.4,499H130v-6.9h11.5V499z M139.6,493.6h-7.8v3.9h7.8V493.6z
			 M139.6,484.5v-5h1.8V491h-1.8v-5h-3.2v-1.5H139.6z"/>
		<path class="st3" d="M143.8,495.2v-1.5h4.4c2.8,0,5.5-0.3,8.1-0.8l0.3,1.5c-1.6,0.3-3.1,0.5-4.5,0.7c-1.4,0.1-2.9,0.2-4.6,0.2
			H143.8z M147.7,489.8c-0.7-0.4-1.3-0.9-1.8-1.6c-0.4-0.7-0.6-1.4-0.6-2.3v-0.4c0-0.8,0.2-1.6,0.6-2.3c0.4-0.7,1-1.2,1.8-1.6
			c0.7-0.4,1.6-0.6,2.5-0.6c0.9,0,1.7,0.2,2.5,0.6c0.7,0.4,1.3,0.9,1.8,1.6c0.4,0.7,0.6,1.4,0.6,2.3v0.4c0,0.8-0.2,1.6-0.6,2.3
			c-0.4,0.7-1,1.2-1.8,1.6c-0.7,0.4-1.6,0.6-2.5,0.6C149.3,490.3,148.4,490.1,147.7,489.8z M152.4,488c0.6-0.6,0.9-1.3,0.9-2.1v-0.4
			c0-0.9-0.3-1.6-0.9-2.1c-0.6-0.6-1.3-0.8-2.2-0.8c-0.9,0-1.7,0.3-2.2,0.8c-0.6,0.6-0.9,1.3-0.9,2.1v0.4c0,0.9,0.3,1.6,0.9,2.1
			c0.6,0.6,1.3,0.8,2.2,0.8C151.1,488.8,151.8,488.6,152.4,488z M159.7,498.4h-1.8v-18.9h1.8V498.4z"/>
		<path class="st3" d="M172.8,485.7c0,1,0.3,2.1,1,3.3c0.7,1.2,1.7,2.2,2.9,3l-1,1.3c-1.7-1.2-2.9-2.7-3.8-4.4
			c-0.9,1.8-2.1,3.4-3.8,4.8l-1.1-1.2c1.2-0.9,2.1-2,2.9-3.3c0.7-1.3,1.1-2.4,1.1-3.5v-4.5h1.8V485.7z M181.8,486.4v-6.8h1.8v18.9
			h-1.8v-10.6h-2.4v9.9h-1.8v-18h1.8v6.6H181.8z"/>
		<path class="st3" d="M195.1,491.5v3.9h8.1v1.5h-18.1v-1.5h8.1v-3.9h-5.1v-6.1h10.1v-2.9h-10.1v-1.5h12v5.9H190v3.1h10.7v1.5H195.1
			z"/>
		<path class="st3" d="M203.4,491v-1.5h18.1v1.5h-8.1v4.1h-1.8V491H203.4z M206.5,492.9h1.9v4.4h10.5v1.5h-12.3V492.9z M209.4,487.3
			c-0.9-0.3-1.6-0.8-2-1.3c-0.5-0.6-0.7-1.2-0.7-2v-0.2c0-0.7,0.2-1.4,0.7-2c0.5-0.6,1.2-1,2-1.3c0.9-0.3,1.9-0.5,3-0.5
			c1.1,0,2.2,0.2,3,0.5c0.9,0.3,1.5,0.8,2,1.3c0.5,0.6,0.7,1.2,0.7,2v0.2c0,0.7-0.2,1.4-0.7,2c-0.5,0.6-1.1,1-2,1.3s-1.9,0.5-3,0.5
			C211.3,487.8,210.3,487.7,209.4,487.3z M208.5,484c0,0.7,0.4,1.3,1.1,1.7c0.7,0.4,1.7,0.7,2.9,0.7c1.2,0,2.2-0.2,2.9-0.7
			c0.7-0.4,1-1,1-1.7v-0.1c0-0.7-0.4-1.3-1-1.7c-0.7-0.4-1.7-0.7-2.9-0.7c-1.2,0-2.2,0.2-2.9,0.7c-0.7,0.4-1.1,1-1.1,1.7V484z"/>
		<path class="st3" d="M227.5,492.7c2.5-1.1,4.3-2.3,5.4-3.7c1.1-1.4,1.7-3,1.7-4.8V483h-6.4v-1.5h8.3v2.6c0,2.2-0.7,4.1-2,5.7
			c-1.3,1.6-3.4,3.1-6.2,4.4L227.5,492.7z M242.2,498.4h-1.8v-18.9h1.8V498.4z"/>
		<path class="st3" d="M244.6,490.9v-1.5h18.1v1.5h-8.1v4.2h-1.8v-4.2H244.6z M246.8,486.5c1-0.2,2-0.6,2.9-1
			c0.9-0.4,1.6-0.9,2.2-1.5s0.8-1.1,0.8-1.6v-0.3h-4.9v-1.5h11.7v1.5h-4.9v0.3c0,0.5,0.3,1,0.8,1.5c0.5,0.5,1.2,0.9,2.1,1.4
			c0.9,0.4,1.9,0.7,3,0.9l-0.5,1.5c-1.3-0.3-2.5-0.7-3.6-1.2c-1.1-0.5-2-1.2-2.7-1.9c-0.8,0.8-1.7,1.5-2.8,2.1s-2.3,1-3.5,1.3
			L246.8,486.5z M247.7,492.9h1.9v4.4H260v1.5h-12.3V492.9z"/>
		<path class="st3" d="M266.2,492.7c-0.8-0.5-1.3-1.2-1.7-2.1c-0.4-0.9-0.6-2-0.6-3.2v-0.4c0-1.2,0.2-2.3,0.6-3.2
			c0.4-0.9,1-1.6,1.7-2.1c0.8-0.5,1.6-0.7,2.7-0.7c1,0,1.9,0.2,2.7,0.7c0.8,0.5,1.3,1.2,1.7,2.1c0.4,0.9,0.6,2,0.6,3.2v0.4
			c0,1.2-0.2,2.3-0.6,3.2c-0.4,0.9-1,1.6-1.7,2.1c-0.8,0.5-1.6,0.7-2.7,0.7C267.8,493.4,267,493.2,266.2,492.7z M271.2,490.7
			c0.6-0.8,0.8-1.9,0.8-3.3V487c0-1.4-0.3-2.5-0.8-3.3s-1.3-1.2-2.4-1.2c-1,0-1.8,0.4-2.4,1.2c-0.6,0.8-0.8,1.9-0.8,3.3v0.4
			c0,1.4,0.3,2.5,0.8,3.3c0.6,0.8,1.3,1.2,2.4,1.2C269.9,491.9,270.7,491.5,271.2,490.7z M278.8,498.4h-1.8v-18.9h1.8V498.4z"/>
		<path class="st3" d="M298.6,489.6c-1.6,0.3-3.1,0.5-4.5,0.7c-1.4,0.1-2.9,0.2-4.6,0.2h-3.8V489h4.4c0.5,0,0.9,0,1.1,0v-2.2h-3.8
			v-6h9.3v1.5h-7.5v3h8v1.5h-4.2v2.1c1.9-0.2,3.7-0.4,5.2-0.7L298.6,489.6z M292.1,496.4v1.4h10.2v1.5h-12.1V495h9.6v-1.4h-9.6v-1.4
			h11.5v4.2H292.1z M299.8,479.6h1.8v11.6h-1.8V479.6z"/>
		<path class="st3" d="M309.9,492.7c2.5-1.1,4.3-2.3,5.4-3.7c1.1-1.4,1.7-3,1.7-4.8V483h-6.4v-1.5h8.3v2.6c0,2.2-0.7,4.1-2,5.7
			c-1.3,1.6-3.4,3.1-6.2,4.4L309.9,492.7z M324.6,498.4h-1.8v-18.9h1.8V498.4z"/>
		<path class="st3" d="M345.1,488.1v1.5H337v1.9h5v4.5h-9.9v1.7h10.5v1.5h-12.3v-4.6h9.9v-1.6h-9.9v-1.5h5v-1.9h-8.1v-1.5H345.1z
			 M333.4,485.4c-1.1,0.6-2.3,1.2-3.6,1.5l-0.7-1.4c1.1-0.3,2.1-0.7,3-1.2c0.9-0.5,1.7-1,2.2-1.6c0.6-0.6,0.8-1.1,0.8-1.6v-1.4h1.9
			v1.4c0,0.5,0.3,1,0.8,1.5c0.5,0.5,1.3,1,2.2,1.5c0.9,0.5,1.9,0.8,3,1.1l-0.6,1.4c-1.4-0.4-2.6-0.9-3.7-1.5c-1.1-0.6-2-1.2-2.6-1.9
			C335.4,484.1,334.5,484.8,333.4,485.4z"/>
		<path class="st3" d="M351.2,494.1c2.2-0.1,4.3-0.4,6.2-0.8l0.3,1.5c-1.5,0.3-2.9,0.6-4.3,0.7c-1.4,0.1-2.9,0.2-4.5,0.2h-3.6v-1.5
			h4.1v-6.5h1.8V494.1z M354.1,483.3h-7.5v-1.5h9.3v2.8c0,0.8-0.1,1.8-0.2,2.9s-0.4,2.3-0.7,3.3l-1.8-0.4c0.5-1.8,0.8-3.8,0.8-6
			V483.3z M360.6,487.8h3.4v1.5h-3.4v9.1h-1.8v-18.9h1.8V487.8z"/>
		<path class="st3" d="M377.5,484.4v4.3h8.9v1.5h-18.1v-1.5h7.3v-4.3H377.5z M381.4,482.1h-10v-1.5h11.9v2.1c0,1.5-0.2,3-0.5,4.4
			l-1.8-0.3c0.4-1.3,0.5-2.6,0.5-4V482.1z M380.5,492.2c0.9,0.3,1.6,0.7,2,1.3s0.7,1.2,0.7,1.9v0.2c0,1.1-0.5,2-1.6,2.7
			c-1,0.7-2.5,1-4.3,1c-1.8,0-3.3-0.3-4.3-1c-1-0.7-1.6-1.6-1.6-2.7v-0.2c0-0.7,0.2-1.4,0.7-1.9s1.1-1,2-1.3
			c0.9-0.3,1.9-0.5,3.2-0.5C378.6,491.7,379.6,491.9,380.5,492.2z M381.4,495.5c0-0.7-0.4-1.2-1-1.6c-0.7-0.4-1.7-0.6-3-0.6
			c-1.3,0-2.3,0.2-3,0.6c-0.7,0.4-1.1,0.9-1.1,1.6v0.1c0,0.7,0.4,1.2,1.1,1.6c0.7,0.4,1.7,0.6,3,0.6c1.3,0,2.3-0.2,3-0.6
			c0.7-0.4,1-0.9,1-1.6V495.5z"/>
		<path class="st3" d="M396.5,483.2c0,1.8-0.7,3.5-2.2,4.9c-1.4,1.4-3.6,2.6-6.4,3.4l-0.6-1.5c2.4-0.7,4.2-1.7,5.5-2.8
			c1.2-1.1,1.8-2.4,1.8-3.9v-0.7h-6.5V481h8.3V483.2z M390.3,492.4h1.8v4.9h10.4v1.5h-12.3V492.4z M401.8,479.6v5.8h3.4v1.5h-3.4
			v7.1h-1.8v-14.4H401.8z"/>
		<path class="st3" d="M406.3,499.3h-1.5l0.9-5.4h2.4L406.3,499.3z"/>
		<path class="st3" d="M413.6,495.4h18.1v1.5h-18.1V495.4z M428.7,484.3c0,1.5-0.1,2.9-0.2,4.3c-0.2,1.4-0.4,3-0.8,4.7l-1.8-0.4
			c0.7-2.8,1-5.7,1-8.8v-1.1h-10.5v-1.5h12.3V484.3z"/>
		<path class="st3" d="M433.4,486.4h6.3v-3.4h-6.3v-1.6h8.1v6.5h-6.3v3.8h0.5c1,0,2.3-0.1,3.7-0.2c1.4-0.1,2.8-0.4,4.2-0.7l0.3,1.5
			c-1.8,0.3-3.5,0.6-5.1,0.7c-1.6,0.1-3.4,0.2-5.4,0.2V486.4z M447.7,498.4h-1.8v-18.9h1.8V498.4z"/>
		<path class="st3" d="M458.9,487.9v7.4h9.3v1.5h-18.1v-1.5h6.9v-7.4H458.9z M463.3,482.8H453v-1.5h12.2v2.8c0,1.2-0.1,2.5-0.2,3.7
			c-0.1,1.3-0.4,2.7-0.8,4.2l-1.8-0.4c0.4-1.3,0.6-2.6,0.8-3.8c0.1-1.2,0.2-2.5,0.2-3.8V482.8z"/>
		<path class="st3" d="M480.2,486.1c0,1,0.4,2,1.3,3c0.9,1.1,2,2.1,3.5,3l-1,1.3c-2-1.3-3.6-2.8-4.8-4.5c-1.2,2-2.8,3.6-4.8,4.9
			l-1-1.3c1.4-0.9,2.6-1.9,3.5-3.1c0.9-1.2,1.4-2.2,1.4-3.2V483h-4.1v-1.5h10v1.5h-4.1V486.1z M487.1,498.4v-18.9h1.8v18.9H487.1z"
			/>
		<path class="st3" d="M501.3,486.6v2.7h8.1v1.5h-18.1v-1.5h8.1v-2.7H501.3z M497.7,486.1c-1.1,0.7-2.3,1.2-3.6,1.6l-0.6-1.4
			c1.1-0.3,2.1-0.7,3-1.2c0.9-0.5,1.7-1.1,2.2-1.7c0.6-0.6,0.8-1.2,0.8-1.7v-1.7h1.9v1.7c0,0.5,0.3,1.1,0.8,1.6
			c0.5,0.6,1.3,1.1,2.2,1.6c0.9,0.5,1.9,0.9,3,1.2l-0.6,1.4c-1.3-0.4-2.6-0.9-3.7-1.5c-1.1-0.6-2-1.3-2.7-2
			C499.7,484.7,498.8,485.4,497.7,486.1z M504.3,494.4H494v-1.5h12.2v6.3h-1.8V494.4z"/>
		<path class="st3" d="M511,483v-1.5h8.4v2.6c0,2.2-0.7,4.1-2,5.7c-1.3,1.7-3.5,3.1-6.3,4.4l-0.7-1.5c2.5-1.1,4.4-2.3,5.5-3.7
			c1.1-1.4,1.7-3,1.7-4.8V483H511z M524.9,487h3.4v1.5h-3.4v9.9H523v-18.9h1.8V487z"/>
		<path class="st3" d="M528,489.1H546v1.5H528V489.1z M543.3,485.4v1.5h-12.2v-6.7h1.8v5.2H543.3z M532.7,498.4
			c-1-0.6-1.6-1.5-1.6-2.6v-0.2c0-1.1,0.5-1.9,1.6-2.6s2.5-0.9,4.3-0.9c1.8,0,3.3,0.3,4.3,0.9s1.6,1.5,1.6,2.6v0.2
			c0,1.1-0.5,1.9-1.6,2.6s-2.5,0.9-4.3,0.9C535.1,499.3,533.7,499,532.7,498.4z M540,497.3c0.7-0.4,1-0.9,1-1.5v-0.1
			c0-0.6-0.3-1.1-1-1.5c-0.7-0.4-1.7-0.5-3-0.5c-1.3,0-2.3,0.2-3,0.5c-0.7,0.4-1,0.9-1,1.5v0.1c0,0.6,0.3,1.1,1,1.5
			c0.7,0.4,1.7,0.5,3,0.5C538.3,497.8,539.3,497.6,540,497.3z"/>
		<path class="st3" d="M556.7,490.4c-2.1-1.1-3.6-2.4-4.6-3.9c-0.5,0.9-1.2,1.7-2,2.4c-0.8,0.8-1.7,1.4-2.6,2l-1-1.4
			c1.4-0.9,2.5-1.8,3.4-2.9c0.9-1.1,1.3-2.1,1.3-3v-3.1h1.8v3.1c0,0.9,0.4,1.9,1.2,2.8s2,1.8,3.4,2.5L556.7,490.4z M559.6,492.2
			c0.9,0.3,1.6,0.7,2,1.3c0.5,0.6,0.7,1.2,0.7,1.9v0.2c0,1.1-0.5,2-1.6,2.7c-1,0.7-2.5,1-4.3,1s-3.3-0.3-4.3-1s-1.6-1.5-1.6-2.7
			v-0.2c0-0.7,0.2-1.4,0.7-1.9c0.5-0.6,1.1-1,2-1.3c0.9-0.3,1.9-0.5,3.2-0.5S558.7,491.9,559.6,492.2z M560.5,495.4
			c0-0.7-0.4-1.2-1.1-1.6c-0.7-0.4-1.7-0.6-3-0.6c-1.3,0-2.3,0.2-3,0.6c-0.7,0.4-1,0.9-1,1.6v0.1c0,0.7,0.3,1.2,1,1.6
			c0.7,0.4,1.7,0.6,3,0.6c1.3,0,2.3-0.2,3-0.6s1.1-0.9,1.1-1.6V495.4z M562.1,491.5h-1.8v-6H556V484h4.2v-4.4h1.8V491.5z"/>
		<path class="st3" d="M564.5,495.2v-1.5h4.4c2.8,0,5.5-0.3,8.1-0.8l0.3,1.5c-1.6,0.3-3.1,0.5-4.5,0.7c-1.4,0.1-2.9,0.2-4.6,0.2
			H564.5z M568.3,489.8c-0.7-0.4-1.3-0.9-1.8-1.6c-0.4-0.7-0.6-1.4-0.6-2.3v-0.4c0-0.8,0.2-1.6,0.6-2.3c0.4-0.7,1-1.2,1.8-1.6
			c0.7-0.4,1.6-0.6,2.5-0.6c0.9,0,1.7,0.2,2.5,0.6c0.7,0.4,1.3,0.9,1.8,1.6c0.4,0.7,0.6,1.4,0.6,2.3v0.4c0,0.8-0.2,1.6-0.6,2.3
			c-0.4,0.7-1,1.2-1.8,1.6c-0.7,0.4-1.6,0.6-2.5,0.6C569.9,490.3,569.1,490.1,568.3,489.8z M573.1,488c0.6-0.6,0.9-1.3,0.9-2.1v-0.4
			c0-0.9-0.3-1.6-0.9-2.1c-0.6-0.6-1.3-0.8-2.2-0.8c-0.9,0-1.7,0.3-2.2,0.8c-0.6,0.6-0.9,1.3-0.9,2.1v0.4c0,0.9,0.3,1.6,0.9,2.1
			c0.6,0.6,1.3,0.8,2.2,0.8C571.7,488.8,572.5,488.6,573.1,488z M580.4,498.4h-1.8v-18.9h1.8V498.4z"/>
		<path class="st3" d="M588.8,481h8.2v9.2h-8.2V481z M590.6,488.7h4.6v-6.2h-4.6V488.7z M591.2,492.2h1.8v5.1h10.4v1.5h-12.3V492.2z
			 M602.7,479.6v5.6h3.4v1.5h-3.4v6.7h-1.8v-13.8H602.7z"/>
		<path class="st3" d="M617.5,488.7c-1.8,0.3-3.4,0.6-5,0.7c-1.6,0.1-3.4,0.2-5.4,0.2v-8.8h1.8v7.3h0.5c1,0,2.3-0.1,3.7-0.2
			c1.4-0.1,2.8-0.4,4.1-0.7L617.5,488.7z M621,499h-11.5v-6.9H621V499z M619.1,493.6h-7.8v3.9h7.8V493.6z M621,484.6h3.4v1.5H621
			v4.9h-1.8v-11.4h1.8V484.6z"/>
		<path class="st3" d="M627.1,496.7h-2.4V494h2.4V496.7z"/>
	</g>
	<g>
		<path class="st3" d="M75.6,517.4h-4.9v-1.6h11.7v1.6h-4.9v14.4h-1.9V517.4z"/>
		<path class="st3" d="M83.6,531.7v-16.1h1.8v6.9c0.4-0.7,1-1.3,1.7-1.8c0.7-0.5,1.5-0.8,2.4-0.8c1.2,0,2.1,0.4,2.8,1.1
			c0.6,0.7,1,1.8,1,3.2v7.5h-1.8v-7.4c0-1-0.2-1.7-0.5-2.2c-0.3-0.5-0.9-0.7-1.7-0.7c-0.5,0-1,0.2-1.6,0.5c-0.5,0.3-1,0.7-1.4,1.3
			s-0.7,1.1-0.8,1.7v6.8H83.6z"/>
		<path class="st3" d="M94.4,525.7c0-1.1,0.2-2.1,0.7-3c0.4-0.9,1-1.6,1.8-2.1c0.8-0.5,1.7-0.7,2.7-0.7c1.5,0,2.7,0.5,3.6,1.5
			s1.3,2.5,1.3,4.4v0.8h-8.2c0.1,1.2,0.4,2.1,1,2.8c0.6,0.7,1.4,1.1,2.5,1.1c1.6,0,3-0.6,4.1-1.7v1.9c-0.5,0.4-1.1,0.7-1.7,1
			c-0.7,0.2-1.4,0.4-2.3,0.4c-1.1,0-2.1-0.2-2.9-0.7c-0.8-0.5-1.4-1.2-1.8-2.1c-0.4-0.9-0.6-1.9-0.6-3.1V525.7z M102.6,525.2
			c0-1.2-0.3-2.2-0.9-2.8s-1.3-0.9-2.2-0.9c-0.6,0-1.1,0.2-1.6,0.5c-0.5,0.3-0.9,0.7-1.2,1.3c-0.3,0.6-0.5,1.2-0.5,2H102.6z"/>
		<path class="st3" d="M112.6,531.7h-2v-16h2v7.2l7.4-7.2h2.5l-8,7.8l8.3,8.2H120l-7.4-7.4V531.7z"/>
		<path class="st3" d="M125.4,518.4h-1.8V516h1.8V518.4z M125.4,531.7h-1.8v-11.5h1.8V531.7z"/>
		<path class="st3" d="M127.4,526.7c0.3-0.5,0.8-0.8,1.5-1.1s1.6-0.5,2.7-0.7l2.9-0.5c0-1-0.3-1.8-0.8-2.3c-0.5-0.5-1.2-0.7-2.3-0.7
			c-0.7,0-1.4,0.2-2.1,0.5s-1.2,0.8-1.6,1.3v-1.8c0.4-0.4,1-0.8,1.7-1c0.7-0.3,1.4-0.4,2.2-0.4c1.5,0,2.6,0.4,3.4,1.1
			c0.8,0.7,1.3,1.8,1.3,3.3v7.4h-1.4l-0.3-1.8c-0.5,0.7-1.2,1.2-1.9,1.5c-0.7,0.4-1.5,0.5-2.4,0.5c-1.1,0-1.9-0.3-2.6-0.9
			s-1-1.4-1-2.5C126.8,527.9,127,527.3,127.4,526.7z M129.2,530c0.4,0.3,0.8,0.5,1.4,0.5c0.7,0,1.4-0.2,2.2-0.7s1.3-1.1,1.7-1.8
			v-2.2l-1.9,0.4c-1.1,0.2-1.8,0.4-2.4,0.5c-0.5,0.2-0.9,0.4-1.2,0.7c-0.3,0.3-0.4,0.7-0.4,1.2C128.7,529.2,128.8,529.7,129.2,530z"
			/>
		<path class="st3" d="M152.8,531.7h-9.6v-16h9.5v1.6h-7.6v5.4h6.4v1.6h-6.4v5.8h7.7V531.7z"/>
		<path class="st3" d="M159.1,531.7l-6-16h2.1l5,13.6l4.9-13.6h2l-5.8,16H159.1z"/>
		<path class="st3" d="M168,518.2c0.4-0.8,1.1-1.4,1.8-1.8c0.8-0.4,1.6-0.6,2.6-0.6c1,0,1.9,0.2,2.7,0.7c0.8,0.5,1.5,1.3,2,2.3
			c0.5,1.1,0.8,2.5,0.8,4.2v0.3c0,1.8-0.3,3.3-0.8,4.6c-0.5,1.3-1.2,2.3-2.1,3c-0.9,0.7-1.9,1-3.1,1c-0.8,0-1.4-0.1-2.1-0.4
			c-0.6-0.3-1.1-0.6-1.5-0.9v-2.3c0.9,1.4,2,2.1,3.5,2.1c1.1,0,2.1-0.5,2.8-1.6s1.2-2.6,1.2-4.7c-0.4,0.6-1,1-1.7,1.4
			c-0.7,0.3-1.4,0.5-2.1,0.5c-0.9,0-1.7-0.2-2.4-0.6s-1.3-1-1.7-1.8c-0.4-0.8-0.7-1.7-0.7-2.7C167.4,519.9,167.6,519,168,518.2z
			 M170.2,523.4c0.6,0.7,1.3,1,2.3,1c0.7,0,1.3-0.2,1.9-0.5c0.6-0.4,1.1-0.9,1.5-1.6c-0.1-1.6-0.4-2.8-1.1-3.6
			c-0.6-0.9-1.4-1.3-2.4-1.3c-0.9,0-1.7,0.3-2.2,1s-0.9,1.5-0.9,2.5C169.4,521.9,169.7,522.7,170.2,523.4z"/>
		<path class="st3" d="M182,527.7c-0.8-0.5-1.3-1.2-1.7-2.1c-0.4-0.9-0.6-2-0.6-3.2v-0.4c0-1.2,0.2-2.3,0.6-3.2
			c0.4-0.9,1-1.6,1.7-2.1c0.8-0.5,1.6-0.7,2.7-0.7c1,0,1.9,0.2,2.7,0.7c0.8,0.5,1.3,1.2,1.7,2.1c0.4,0.9,0.6,2,0.6,3.2v0.4
			c0,1.2-0.2,2.3-0.6,3.2c-0.4,0.9-1,1.6-1.7,2.1c-0.8,0.5-1.6,0.7-2.7,0.7C183.7,528.4,182.8,528.2,182,527.7z M187.1,525.7
			c0.6-0.8,0.8-1.9,0.8-3.3V522c0-1.4-0.3-2.5-0.8-3.3s-1.3-1.2-2.4-1.2c-1,0-1.8,0.4-2.4,1.2c-0.6,0.8-0.8,1.9-0.8,3.3v0.4
			c0,1.4,0.3,2.5,0.8,3.3c0.6,0.8,1.3,1.2,2.4,1.2C185.7,526.9,186.5,526.5,187.1,525.7z M194.6,533.5h-1.8v-18.9h1.8V533.5z"/>
		<path class="st3" d="M205.2,526.1c0.8,0,1.7-0.1,2.8-0.2c1.1-0.1,2.1-0.3,3.3-0.5l0.3,1.5c-2.6,0.5-5.4,0.7-8.5,0.7v-11.1h7v1.5
			h-5.2v8.1H205.2z M216.7,521.1v-6.6h1.8v18.9h-1.8v-10.8h-2.4v10.1h-1.8v-18h1.8v6.4H216.7z"/>
		<path class="st3" d="M220.7,517.8h10.1v1.5h-10.1V517.8z M229.7,523.6c0,0.6-0.2,1.1-0.5,1.6c-0.3,0.5-0.8,0.9-1.4,1.2
			c-0.6,0.3-1.3,0.4-2,0.4s-1.5-0.1-2-0.4s-1.1-0.7-1.4-1.2c-0.3-0.5-0.5-1-0.5-1.6v-0.2c0-0.6,0.2-1.1,0.5-1.6
			c0.3-0.5,0.8-0.9,1.4-1.2c0.6-0.3,1.3-0.4,2.1-0.4s1.5,0.1,2.1,0.4s1.1,0.7,1.4,1.2s0.5,1,0.5,1.6V523.6z M226.3,516.6
			c-1.6,0-2.8-0.1-3.6-0.4v-1.4c0.8,0.3,2,0.4,3.6,0.4h2.4v1.5H226.3z M223.5,523.5c0,0.5,0.2,0.9,0.6,1.3c0.4,0.3,0.9,0.5,1.6,0.5
			c0.7,0,1.2-0.2,1.6-0.5c0.4-0.3,0.6-0.8,0.6-1.3v-0.1c0-0.5-0.2-0.9-0.6-1.3c-0.4-0.3-0.9-0.5-1.6-0.5c-0.7,0-1.2,0.2-1.6,0.5
			s-0.6,0.8-0.6,1.3V523.5z M234.5,528.3c1,0.6,1.6,1.4,1.6,2.4v0.2c0,1-0.5,1.9-1.6,2.4c-1,0.6-2.5,0.9-4.3,0.9s-3.3-0.3-4.3-0.9
			c-1-0.6-1.6-1.4-1.6-2.4v-0.2c0-1,0.5-1.8,1.6-2.4s2.5-0.9,4.3-0.9C232,527.4,233.4,527.7,234.5,528.3z M234.2,530.8
			c0-0.6-0.3-1.1-1-1.4c-0.7-0.3-1.7-0.5-3-0.5c-1.3,0-2.3,0.2-3,0.5c-0.7,0.3-1,0.8-1,1.4v0.1c0,0.6,0.3,1.1,1,1.4
			c0.7,0.3,1.7,0.5,3,0.5c1.3,0,2.3-0.2,3-0.5s1-0.8,1-1.4V530.8z M235.8,527H234v-1.8h-3.2v-1.5h3.2v-1.8h-3.2v-1.5h3.2v-5.8h1.8
			V527z"/>
		<path class="st3" d="M243.6,527.9c0.5,0.8,1.2,1.4,2,1.9c0.8,0.5,1.7,0.7,2.6,0.7c0.7,0,1.3-0.1,1.8-0.4c0.5-0.3,0.9-0.6,1.1-1
			c0.3-0.4,0.4-0.9,0.4-1.3c0-0.6-0.2-1.2-0.6-1.6c-0.4-0.5-1-0.9-1.8-1.3l-2.3-1.2c-1-0.5-1.7-1.1-2.2-1.7
			c-0.5-0.6-0.8-1.4-0.8-2.4c0-0.7,0.2-1.4,0.6-2c0.4-0.6,0.9-1.1,1.6-1.4c0.7-0.4,1.6-0.5,2.5-0.5c0.8,0,1.6,0.2,2.4,0.5
			c0.8,0.3,1.4,0.8,2,1.3v2.3c-0.6-0.8-1.2-1.4-2-1.8s-1.6-0.7-2.3-0.7c-0.8,0-1.5,0.2-2,0.7c-0.5,0.4-0.7,1-0.7,1.7
			c0,0.5,0.2,1,0.5,1.4c0.3,0.4,0.9,0.8,1.8,1.2l2.2,1.2c1.1,0.6,1.9,1.2,2.4,1.9c0.5,0.7,0.8,1.6,0.8,2.6c0,0.8-0.2,1.6-0.6,2.3
			c-0.4,0.7-1,1.2-1.8,1.6c-0.8,0.4-1.7,0.6-2.8,0.6c-1,0-1.9-0.2-2.7-0.5c-0.8-0.4-1.4-0.8-1.9-1.3V527.9z"/>
		<path class="st3" d="M255.2,515.8h2v10.1c0,1.4,0.4,2.6,1.1,3.4c0.7,0.8,1.8,1.2,3.2,1.2c1.4,0,2.4-0.4,3.1-1.2
			c0.7-0.8,1.1-1.9,1.1-3.4v-10.1h1.8v10.1c0,1.2-0.2,2.2-0.7,3.2c-0.5,0.9-1.2,1.6-2.1,2.2c-0.9,0.5-2,0.8-3.3,0.8
			s-2.4-0.3-3.3-0.8c-0.9-0.5-1.6-1.2-2.1-2.2c-0.5-0.9-0.7-2-0.7-3.2V515.8z"/>
		<path class="st3" d="M274.4,531.7l-6-16h2.1l5,13.6l4.9-13.6h2l-5.8,16H274.4z"/>
		<path class="st3" d="M297.6,531.7H288v-16h9.5v1.6H290v5.4h6.4v1.6H290v5.8h7.7V531.7z"/>
		<path class="st3" d="M304,531.7l-6-16h2.1l5,13.6l4.9-13.6h2l-5.8,16H304z"/>
		<path class="st3" d="M321.9,526.5v3.9h8.1v1.5h-18.1v-1.5h8.1v-3.9H315v-6.1h10.1v-2.9H315v-1.5h12v5.9h-10.1v3.1h10.7v1.5H321.9z
			"/>
		<path class="st3" d="M336.4,527.9v-11.4h8.7v11.4H336.4z M343.2,518h-5v8.4h5V518z M350.7,533.5h-1.8v-18.9h1.8V533.5z"/>
		<path class="st3" d="M356.7,526.4c0.8,0,1.7-0.1,2.8-0.2c1.1-0.1,2.1-0.3,3.1-0.5l0.3,1.5c-1.3,0.2-2.7,0.4-4,0.5
			c-1.3,0.1-2.8,0.2-4.5,0.2v-6.8h5.1v-3.3h-5.1v-1.5h6.9v6.4h-5.1v3.7H356.7z M368.1,521.4v-6.8h1.8v18.9h-1.8v-10.6h-2.4v9.9H364
			v-18h1.8v6.6H368.1z"/>
		<path class="st3" d="M386,525.9v4.4h8.1v1.5h-18.1v-1.5h8.1v-4.4H386z M379.1,516.1h12.1v8.8h-12.1V516.1z M380.9,523.4h8.4v-5.7
			h-8.4V523.4z"/>
		<path class="st3" d="M402.2,515.6h1.8v8.7h-8.2v-8.7h1.8v3h4.5V515.6z M397.7,520v2.8h4.5V520H397.7z M400.6,531v1.8h10.2v1.5
			h-12.1v-4.8h9.6v-1.7h-9.6v-1.5h11.5v4.7H400.6z M408.3,514.6h1.8v10.8h-1.8V514.6z"/>
		<path class="st3" d="M414.2,521.4h6.3v-3.4h-6.3v-1.6h8.1v6.5H416v3.8h0.5c1,0,2.3-0.1,3.7-0.2c1.4-0.1,2.8-0.4,4.2-0.7l0.3,1.5
			c-1.8,0.3-3.5,0.6-5.1,0.7c-1.6,0.1-3.4,0.2-5.4,0.2V521.4z M428.5,533.5h-1.8v-18.9h1.8V533.5z"/>
		<path class="st3" d="M434.8,526.3c1,0,2.2-0.1,3.6-0.2s2.7-0.4,4-0.7l0.3,1.5c-1.7,0.3-3.3,0.6-4.9,0.7c-1.6,0.1-3.3,0.2-5.3,0.2
			v-11.4h8.4v1.5h-6.5v3.2h6.1v1.5h-6.1v3.6H434.8z M444.9,533.5v-18.9h1.8v18.9H444.9z"/>
		<path class="st3" d="M457.5,526.7c1,0,2.3-0.1,3.7-0.2c1.4-0.1,2.8-0.4,4.2-0.7l0.3,1.5c-1.8,0.3-3.5,0.6-5.1,0.7
			c-1.6,0.1-3.4,0.2-5.4,0.2v-6.9h6.3v-3.4h-6.3v-1.6h8.1v6.5H457v3.8H457.5z M469.1,521.5h3.4v1.5h-3.4v10.5h-1.8v-18.9h1.8V521.5z
			"/>
		<path class="st3" d="M475.4,527.7c-0.8-0.5-1.3-1.2-1.7-2.1c-0.4-0.9-0.6-2-0.6-3.2v-0.4c0-1.2,0.2-2.3,0.6-3.2
			c0.4-0.9,1-1.6,1.7-2.1c0.8-0.5,1.6-0.7,2.7-0.7c1,0,1.9,0.2,2.7,0.7c0.8,0.5,1.3,1.2,1.7,2.1c0.4,0.9,0.6,2,0.6,3.2v0.4
			c0,1.2-0.2,2.3-0.6,3.2c-0.4,0.9-1,1.6-1.7,2.1c-0.8,0.5-1.6,0.7-2.7,0.7C477.1,528.4,476.2,528.2,475.4,527.7z M480.5,525.7
			c0.6-0.8,0.8-1.9,0.8-3.3V522c0-1.4-0.3-2.5-0.8-3.3s-1.3-1.2-2.4-1.2c-1,0-1.8,0.4-2.4,1.2c-0.6,0.8-0.8,1.9-0.8,3.3v0.4
			c0,1.4,0.3,2.5,0.8,3.3c0.6,0.8,1.3,1.2,2.4,1.2C479.1,526.9,479.9,526.5,480.5,525.7z M488,533.5h-1.8v-18.9h1.8V533.5z"/>
		<path class="st3" d="M490.5,531.9v-1.5h18.1v1.5H490.5z M503.1,524.4h3.3v1.5h-13.7v-1.5h3.2l-0.4-5.8l1.7-0.1l0.3,5.9h3.9
			l0.4-5.9l1.7,0.1L503.1,524.4z M492.9,516.3h13.3v1.6h-13.3V516.3z"/>
		<path class="st3" d="M508.7,523.9h18.1v1.5h-18.1V523.9z M511.9,526.9h11.8v4.3h-9.9v1.5h10.5v1.5h-12.3v-4.4h9.9v-1.4h-9.9V526.9
			z M512,518.1h9.8v-1.4H512v-1.5h11.7v4.2h-9.8v1.5h10.4v1.5H512V518.1z"/>
		<path class="st3" d="M542.1,525.9c-2-1.1-3.6-2.5-4.6-4c-0.5,0.9-1.2,1.7-2,2.5c-0.8,0.8-1.7,1.4-2.6,2l-1-1.4
			c1.4-0.9,2.5-1.8,3.4-2.9c0.9-1.1,1.3-2.1,1.3-3.1v-3.3h1.8v3.3c0,1,0.4,1.9,1.2,2.9c0.8,1,2,1.8,3.4,2.6L542.1,525.9z
			 M537.9,527.4v4.9h10.4v1.5H536v-6.4H537.9z M547.5,528.8h-1.8v-8.1h-4.2v-1.5h4.2v-4.6h1.8V528.8z"/>
		<path class="st3" d="M556.9,520.9c0,1,0.4,2,1.3,3.1c0.9,1.1,2,2.1,3.4,3l-1,1.4c-2-1.3-3.6-2.9-4.7-4.7c-0.6,1-1.3,1.9-2.1,2.8
			c-0.8,0.9-1.7,1.6-2.7,2.3l-1-1.4c0.9-0.6,1.7-1.2,2.5-2s1.3-1.5,1.7-2.3c0.4-0.8,0.6-1.5,0.6-2.2v-4.7h1.8V520.9z M565.2,521.5
			h3.4v1.5h-3.4v10.5h-1.8v-18.9h1.8V521.5z"/>
		<path class="st3" d="M568.9,517.7h10.5v1.5h-10.5V517.7z M578.2,523.4c0,0.6-0.2,1.1-0.5,1.6s-0.8,0.9-1.4,1.1s-1.3,0.4-2.1,0.4
			c-0.8,0-1.5-0.1-2.1-0.4c-0.6-0.3-1.1-0.7-1.4-1.1c-0.3-0.5-0.5-1-0.5-1.6v-0.2c0-0.6,0.2-1.1,0.5-1.6c0.3-0.5,0.8-0.9,1.4-1.1
			c0.6-0.3,1.3-0.4,2.1-0.4c0.8,0,1.5,0.1,2.1,0.4c0.6,0.3,1.1,0.7,1.4,1.1c0.3,0.5,0.5,1,0.5,1.6V523.4z M574.8,516.6
			c-0.8,0-1.5,0-2.1-0.1c-0.6-0.1-1.1-0.2-1.6-0.3v-1.4c0.5,0.1,1,0.2,1.6,0.3c0.6,0.1,1.3,0.1,2.1,0.1h2.4v1.5H574.8z M571.9,523.4
			c0,0.5,0.2,0.9,0.6,1.3c0.4,0.3,1,0.5,1.7,0.5c0.7,0,1.3-0.2,1.7-0.5c0.4-0.3,0.6-0.7,0.6-1.3v-0.1c0-0.5-0.2-0.9-0.6-1.3
			s-1-0.5-1.7-0.5c-0.7,0-1.3,0.2-1.7,0.5s-0.6,0.8-0.6,1.3V523.4z M573.8,529.3h7.9v-1.9h1.8v6.6H572v-6.6h1.8V529.3z M573.8,530.8
			v1.8h7.9v-1.8H573.8z M583.5,520.5h3.4v1.5h-3.4v4.4h-1.8v-11.8h1.8V520.5z"/>
		<path class="st3" d="M590.5,526.4c1.1,0,2.3-0.1,3.8-0.2c1.4-0.1,2.9-0.4,4.2-0.7l0.3,1.5c-1.8,0.4-3.5,0.6-5.1,0.8
			c-1.6,0.1-3.5,0.2-5.5,0.2v-11.5h1.8v10H590.5z M600.5,533.5v-18.9h1.8v18.9H600.5z"/>
		<path class="st3" d="M608.5,526.3c1,0,2.3-0.1,3.7-0.2c1.4-0.1,2.8-0.4,4.1-0.7l0.3,1.5c-1.7,0.4-3.4,0.6-5,0.7
			c-1.6,0.1-3.4,0.2-5.4,0.2v-11.4h8.5v1.5h-6.6v8.3H608.5z M620.1,521.5h3.4v1.5h-3.4v10.5h-1.8v-18.9h1.8V521.5z"/>
		<path class="st3" d="M626.2,531.7h-2.4V529h2.4V531.7z"/>
	</g>
</g>
</svg>
