<?xml version="1.0" encoding="utf-8"?>
<!-- Generator: Adobe Illustrator 27.5.0, SVG Export Plug-In . SVG Version: 6.00 Build 0)  -->
<svg version="1.1" id="레이어_1" xmlns="http://www.w3.org/2000/svg" xmlns:xlink="http://www.w3.org/1999/xlink" x="0px"
	 y="0px" viewBox="0 0 1920 1080" style="enable-background:new 0 0 1920 1080;" xml:space="preserve">
<style type="text/css">
	.st0{opacity:0;}
	.st1{clip-path:url(#SVGID_00000140692814143408246580000005500428362305310872_);fill:#FFFFFF;}
	.st2{fill:#FFFFFF;}
</style>
<g>
	<g>
		<g class="st0">
			<g>
				<defs>
					<rect id="SVGID_1_" x="-9" y="460" width="1938" height="154"/>
				</defs>
				<clipPath id="SVGID_00000088831123890028915270000008625399730734435513_">
					<use xlink:href="#SVGID_1_"  style="overflow:visible;"/>
				</clipPath>
				
					<rect y="467" style="clip-path:url(#SVGID_00000088831123890028915270000008625399730734435513_);fill:#FFFFFF;" width="1920" height="146"/>
			</g>
		</g>
	</g>
	<g>
		<path class="st2" d="M75.6,515.4h-4.9v-1.6h11.7v1.6h-4.9v14.4h-1.9V515.4z"/>
		<path class="st2" d="M84.4,529.7v-16.1h1.8v6.9c0.4-0.7,1-1.3,1.7-1.8c0.7-0.5,1.5-0.8,2.4-0.8c1.2,0,2.1,0.4,2.8,1.1
			c0.6,0.7,1,1.8,1,3.2v7.5h-1.8v-7.4c0-1-0.2-1.7-0.5-2.2c-0.3-0.5-0.9-0.7-1.7-0.7c-0.5,0-1,0.2-1.6,0.5c-0.5,0.3-1,0.7-1.4,1.3
			s-0.7,1.1-0.8,1.7v6.8H84.4z"/>
		<path class="st2" d="M96.1,523.7c0-1.1,0.2-2.1,0.7-3c0.4-0.9,1-1.6,1.8-2.1c0.8-0.5,1.7-0.7,2.7-0.7c1.5,0,2.7,0.5,3.6,1.5
			s1.3,2.5,1.3,4.4v0.8h-8.2c0.1,1.2,0.4,2.1,1,2.8c0.6,0.7,1.4,1.1,2.5,1.1c1.6,0,3-0.6,4.1-1.7v1.9c-0.5,0.4-1.1,0.7-1.7,1
			c-0.7,0.2-1.4,0.4-2.3,0.4c-1.1,0-2.1-0.2-2.9-0.7c-0.8-0.5-1.4-1.2-1.8-2.1c-0.4-0.9-0.6-1.9-0.6-3.1V523.7z M104.3,523.2
			c0-1.2-0.3-2.2-0.9-2.8s-1.3-0.9-2.2-0.9c-0.6,0-1.1,0.2-1.6,0.5c-0.5,0.3-0.9,0.7-1.2,1.3c-0.3,0.6-0.5,1.2-0.5,2H104.3z"/>
		<path class="st2" d="M112.4,519.7v-1.5h2.3v-1.1c0-0.7,0.1-1.3,0.4-1.9c0.3-0.6,0.7-1.1,1.2-1.4c0.5-0.4,1.2-0.5,2-0.5
			c0.5,0,1,0.1,1.4,0.3v1.6c-0.3-0.3-0.8-0.4-1.3-0.4c-0.6,0-1,0.2-1.4,0.6s-0.5,1-0.5,1.8v1.1h2.7v1.5h-2.7v10h-1.9v-10H112.4z"/>
		<path class="st2" d="M121.2,518.3h1.8v7.4c0,1,0.2,1.7,0.5,2.2c0.3,0.5,0.9,0.7,1.7,0.7c0.5,0,1.1-0.2,1.6-0.5s1-0.8,1.4-1.3
			s0.7-1.1,0.8-1.7v-6.8h1.9v11.5h-1.7l-0.1-2.3c-0.4,0.7-1,1.3-1.7,1.9s-1.5,0.8-2.4,0.8c-1.2,0-2.1-0.4-2.8-1.1
			c-0.6-0.7-1-1.8-1-3.2V518.3z"/>
		<path class="st2" d="M135,519.7h-2.5v-1.5h2.5v-3.5h1.8v3.5h2.5v1.5h-2.5v10H135V519.7z"/>
		<path class="st2" d="M140.8,518.3h1.8v7.4c0,1,0.2,1.7,0.5,2.2c0.3,0.5,0.9,0.7,1.7,0.7c0.5,0,1.1-0.2,1.6-0.5s1-0.8,1.4-1.3
			s0.7-1.1,0.8-1.7v-6.8h1.9v11.5h-1.7l-0.1-2.3c-0.4,0.7-1,1.3-1.7,1.9s-1.5,0.8-2.4,0.8c-1.2,0-2.1-0.4-2.8-1.1
			c-0.6-0.7-1-1.8-1-3.2V518.3z"/>
		<path class="st2" d="M153.5,529.7v-11.5h1.7l0.1,2c0.3-0.7,0.8-1.3,1.4-1.7s1.3-0.6,2.1-0.6c0.2,0,0.4,0,0.6,0s0.4,0.1,0.5,0.1
			v1.6c-0.3-0.1-0.7-0.2-1.2-0.2c-0.7,0-1.4,0.2-2,0.7c-0.6,0.5-1,1.1-1.3,2v7.5H153.5z"/>
		<path class="st2" d="M160.6,523.7c0-1.1,0.2-2.1,0.7-3c0.4-0.9,1-1.6,1.8-2.1c0.8-0.5,1.7-0.7,2.7-0.7c1.5,0,2.7,0.5,3.6,1.5
			s1.3,2.5,1.3,4.4v0.8h-8.2c0.1,1.2,0.4,2.1,1,2.8c0.6,0.7,1.4,1.1,2.5,1.1c1.6,0,3-0.6,4.1-1.7v1.9c-0.5,0.4-1.1,0.7-1.7,1
			c-0.7,0.2-1.4,0.4-2.3,0.4c-1.1,0-2.1-0.2-2.9-0.7c-0.8-0.5-1.4-1.2-1.8-2.1c-0.4-0.9-0.6-1.9-0.6-3.1V523.7z M168.8,523.2
			c0-1.2-0.3-2.2-0.9-2.8s-1.3-0.9-2.2-0.9c-0.6,0-1.1,0.2-1.6,0.5c-0.5,0.3-0.9,0.7-1.2,1.3c-0.3,0.6-0.5,1.2-0.5,2H168.8z"/>
		<path class="st2" d="M177.6,523.8c0-1.1,0.2-2.2,0.7-3.1c0.5-0.9,1.1-1.6,1.9-2.1c0.8-0.5,1.7-0.7,2.8-0.7c1.1,0,2,0.2,2.8,0.7
			c0.8,0.5,1.4,1.2,1.9,2.1c0.5,0.9,0.7,1.9,0.7,3.1v0.4c0,1.1-0.2,2.2-0.7,3.1c-0.5,0.9-1.1,1.6-1.9,2.1c-0.8,0.5-1.7,0.7-2.8,0.7
			c-1,0-2-0.2-2.8-0.7c-0.8-0.5-1.5-1.2-1.9-2.1c-0.5-0.9-0.7-1.9-0.7-3.1V523.8z M179.5,524.2c0,1.3,0.3,2.4,0.9,3.2
			s1.5,1.2,2.5,1.2c1.1,0,1.9-0.4,2.5-1.2s0.9-1.9,0.9-3.2v-0.4c0-1.3-0.3-2.4-0.9-3.2c-0.6-0.8-1.5-1.2-2.5-1.2
			c-1.1,0-1.9,0.4-2.5,1.2c-0.6,0.8-0.9,1.9-0.9,3.2V524.2z"/>
		<path class="st2" d="M189.1,519.7v-1.5h2.3v-1.1c0-0.7,0.1-1.3,0.4-1.9c0.3-0.6,0.7-1.1,1.2-1.4c0.5-0.4,1.2-0.5,2-0.5
			c0.5,0,1,0.1,1.4,0.3v1.6c-0.3-0.3-0.8-0.4-1.3-0.4c-0.6,0-1,0.2-1.4,0.6s-0.5,1-0.5,1.8v1.1h2.7v1.5h-2.7v10h-1.9v-10H189.1z"/>
		<path class="st2" d="M213.3,529.7h-9.6v-16h9.5v1.6h-7.6v5.4h6.4v1.6h-6.4v5.8h7.7V529.7z"/>
		<path class="st2" d="M220.5,529.7l-6-16h2.1l5,13.6l4.9-13.6h2l-5.8,16H220.5z"/>
		<path class="st2" d="M235.7,529.7v-11.5h1.7l0.1,2.1c0.4-0.7,1-1.3,1.6-1.7c0.6-0.4,1.3-0.7,2.2-0.7c0.8,0,1.5,0.2,2.1,0.7
			c0.6,0.4,0.9,1.1,1.1,1.9c0.5-0.8,1-1.4,1.7-1.8s1.4-0.7,2.2-0.7c1.1,0,1.9,0.3,2.5,1c0.6,0.7,0.9,1.7,0.9,3v7.8h-1.8v-7.6
			c0-0.9-0.2-1.6-0.5-2c-0.3-0.4-0.8-0.7-1.5-0.7c-0.4,0-0.9,0.1-1.3,0.4s-0.9,0.7-1.2,1.1c-0.4,0.5-0.6,1-0.8,1.5v7.2h-1.8V522
			c0-0.9-0.2-1.6-0.5-2c-0.3-0.4-0.8-0.6-1.5-0.6c-0.4,0-0.9,0.1-1.3,0.4c-0.5,0.3-0.9,0.7-1.2,1.1c-0.4,0.5-0.6,1-0.8,1.5v7.2
			H235.7z"/>
		<path class="st2" d="M253.8,523.8c0-1.1,0.2-2.2,0.7-3.1c0.5-0.9,1.1-1.6,1.9-2.1c0.8-0.5,1.7-0.7,2.8-0.7c1.1,0,2,0.2,2.8,0.7
			c0.8,0.5,1.4,1.2,1.9,2.1c0.5,0.9,0.7,1.9,0.7,3.1v0.4c0,1.1-0.2,2.2-0.7,3.1c-0.5,0.9-1.1,1.6-1.9,2.1c-0.8,0.5-1.7,0.7-2.8,0.7
			c-1,0-2-0.2-2.8-0.7c-0.8-0.5-1.5-1.2-1.9-2.1c-0.5-0.9-0.7-1.9-0.7-3.1V523.8z M255.7,524.2c0,1.3,0.3,2.4,0.9,3.2
			s1.5,1.2,2.5,1.2c1.1,0,1.9-0.4,2.5-1.2s0.9-1.9,0.9-3.2v-0.4c0-1.3-0.3-2.4-0.9-3.2c-0.6-0.8-1.5-1.2-2.5-1.2
			c-1.1,0-1.9,0.4-2.5,1.2c-0.6,0.8-0.9,1.9-0.9,3.2V524.2z"/>
		<path class="st2" d="M266.8,529.7v-16.1h1.8v6.3c0.4-0.6,1-1.1,1.6-1.5c0.7-0.4,1.3-0.6,2.1-0.6c1,0,1.8,0.2,2.6,0.7
			c0.8,0.5,1.4,1.2,1.8,2.1c0.4,0.9,0.7,2,0.7,3.2c0,1.2-0.2,2.3-0.7,3.2s-1,1.6-1.8,2.1c-0.8,0.5-1.6,0.7-2.6,0.7
			c-0.8,0-1.5-0.2-2.1-0.6c-0.7-0.4-1.2-0.9-1.6-1.5l-0.1,1.8H266.8z M268.7,525.9c0.3,0.8,0.8,1.4,1.4,1.9c0.6,0.5,1.3,0.8,2,0.8
			c0.6,0,1.2-0.2,1.7-0.6s0.9-0.9,1.2-1.6c0.3-0.7,0.4-1.5,0.4-2.4c0-0.9-0.2-1.7-0.5-2.4c-0.3-0.7-0.7-1.2-1.2-1.6
			s-1.1-0.6-1.7-0.6c-0.7,0-1.4,0.3-2,0.8s-1.1,1.2-1.4,1.9V525.9z"/>
		<path class="st2" d="M281.4,516.4h-1.8V514h1.8V516.4z M281.4,529.7h-1.8v-11.5h1.8V529.7z"/>
		<path class="st2" d="M286.3,529.7h-1.8v-16.1h1.8V529.7z"/>
		<path class="st2" d="M291.2,516.4h-1.8V514h1.8V516.4z M291.2,529.7h-1.8v-11.5h1.8V529.7z"/>
		<path class="st2" d="M295.4,519.7h-2.5v-1.5h2.5v-3.5h1.8v3.5h2.5v1.5h-2.5v10h-1.8V519.7z"/>
		<path class="st2" d="M305,529.7l-4.5-11.4h2l3.5,9.2l3.5-9.2h1.9l-6.4,16.1h-2L305,529.7z"/>
		<path class="st2" d="M320.9,529.7h-2.4V527h2.4V529.7z M320.9,521h-2.4v-2.7h2.4V521z"/>
		<path class="st2" d="M328.8,526.8c0.9,1.1,2.1,1.7,3.6,1.7c0.8,0,1.4-0.2,1.8-0.5s0.7-0.7,0.7-1.3c0-0.4-0.1-0.7-0.3-1
			c-0.2-0.3-0.7-0.6-1.3-0.8l-1.6-0.6c-0.9-0.4-1.6-0.8-2.1-1.4s-0.7-1.2-0.7-1.9c0-0.6,0.1-1.1,0.5-1.5c0.3-0.5,0.7-0.8,1.3-1.1
			c0.6-0.3,1.3-0.4,2.1-0.4c0.7,0,1.3,0.1,2,0.4c0.6,0.3,1.1,0.6,1.6,0.9v2c-0.5-0.6-1.1-1-1.7-1.3c-0.6-0.3-1.2-0.4-1.8-0.4
			c-0.7,0-1.2,0.2-1.5,0.5c-0.3,0.3-0.5,0.7-0.5,1.1c0,0.4,0.1,0.7,0.4,0.9s0.7,0.5,1.4,0.8l1.5,0.6c1,0.4,1.6,0.9,2.1,1.4
			c0.4,0.5,0.7,1.2,0.7,2c0,1-0.4,1.9-1.2,2.5c-0.8,0.6-1.8,0.9-3.1,0.9c-0.8,0-1.5-0.1-2.1-0.4c-0.6-0.2-1.1-0.5-1.5-0.9V526.8z"/>
		<path class="st2" d="M339,529.7v-11.5h1.7l0.1,2.1c0.4-0.7,1-1.3,1.6-1.7c0.6-0.4,1.3-0.7,2.2-0.7c0.8,0,1.5,0.2,2.1,0.7
			c0.6,0.4,0.9,1.1,1.1,1.9c0.5-0.8,1-1.4,1.7-1.8s1.4-0.7,2.2-0.7c1.1,0,1.9,0.3,2.5,1c0.6,0.7,0.9,1.7,0.9,3v7.8h-1.8v-7.6
			c0-0.9-0.2-1.6-0.5-2c-0.3-0.4-0.8-0.7-1.5-0.7c-0.4,0-0.9,0.1-1.3,0.4s-0.9,0.7-1.2,1.1c-0.4,0.5-0.6,1-0.8,1.5v7.2h-1.8V522
			c0-0.9-0.2-1.6-0.5-2c-0.3-0.4-0.8-0.6-1.5-0.6c-0.4,0-0.9,0.1-1.3,0.4c-0.5,0.3-0.9,0.7-1.2,1.1c-0.4,0.5-0.6,1-0.8,1.5v7.2H339z
			"/>
		<path class="st2" d="M357.7,524.7c0.3-0.5,0.8-0.8,1.5-1.1s1.6-0.5,2.7-0.7l2.9-0.5c0-1-0.3-1.8-0.8-2.3c-0.5-0.5-1.2-0.7-2.3-0.7
			c-0.7,0-1.4,0.2-2.1,0.5s-1.2,0.8-1.6,1.3v-1.8c0.4-0.4,1-0.8,1.7-1c0.7-0.3,1.4-0.4,2.2-0.4c1.5,0,2.6,0.4,3.4,1.1
			c0.8,0.7,1.3,1.8,1.3,3.3v7.4h-1.4l-0.3-1.8c-0.5,0.7-1.2,1.2-1.9,1.5c-0.7,0.4-1.5,0.5-2.4,0.5c-1.1,0-1.9-0.3-2.6-0.9
			s-1-1.4-1-2.5C357.1,525.9,357.3,525.3,357.7,524.7z M359.5,528c0.4,0.3,0.8,0.5,1.4,0.5c0.7,0,1.4-0.2,2.2-0.7s1.3-1.1,1.7-1.8
			v-2.2l-1.9,0.4c-1.1,0.2-1.8,0.4-2.4,0.5c-0.5,0.2-0.9,0.4-1.2,0.7c-0.3,0.3-0.4,0.7-0.4,1.2C359,527.2,359.1,527.7,359.5,528z"/>
		<path class="st2" d="M369.5,529.7v-11.5h1.7l0.1,2c0.3-0.7,0.8-1.3,1.4-1.7s1.3-0.6,2.1-0.6c0.2,0,0.4,0,0.6,0s0.4,0.1,0.5,0.1
			v1.6c-0.3-0.1-0.7-0.2-1.2-0.2c-0.7,0-1.4,0.2-2,0.7c-0.6,0.5-1,1.1-1.3,2v7.5H369.5z"/>
		<path class="st2" d="M379.2,519.7h-2.5v-1.5h2.5v-3.5h1.8v3.5h2.5v1.5H381v10h-1.8V519.7z"/>
		<path class="st2" d="M385.7,532.3h-1.5l0.9-5.4h2.4L385.7,532.3z"/>
		<path class="st2" d="M395.1,526.8c0.9,1.1,2.1,1.7,3.6,1.7c0.8,0,1.4-0.2,1.8-0.5s0.7-0.7,0.7-1.3c0-0.4-0.1-0.7-0.3-1
			c-0.2-0.3-0.7-0.6-1.3-0.8l-1.6-0.6c-0.9-0.4-1.6-0.8-2.1-1.4s-0.7-1.2-0.7-1.9c0-0.6,0.1-1.1,0.5-1.5c0.3-0.5,0.7-0.8,1.3-1.1
			c0.6-0.3,1.3-0.4,2.1-0.4c0.7,0,1.3,0.1,2,0.4c0.6,0.3,1.1,0.6,1.6,0.9v2c-0.5-0.6-1.1-1-1.7-1.3c-0.6-0.3-1.2-0.4-1.8-0.4
			c-0.7,0-1.2,0.2-1.5,0.5c-0.3,0.3-0.5,0.7-0.5,1.1c0,0.4,0.1,0.7,0.4,0.9s0.7,0.5,1.4,0.8l1.5,0.6c1,0.4,1.6,0.9,2.1,1.4
			c0.4,0.5,0.7,1.2,0.7,2c0,1-0.4,1.9-1.2,2.5c-0.8,0.6-1.8,0.9-3.1,0.9c-0.8,0-1.5-0.1-2.1-0.4c-0.6-0.2-1.1-0.5-1.5-0.9V526.8z"/>
		<path class="st2" d="M405.3,534.3v-16.1h1.7l0.1,1.8c0.4-0.6,0.9-1.2,1.6-1.6c0.7-0.4,1.4-0.6,2.1-0.6c1,0,1.8,0.2,2.6,0.7
			c0.8,0.5,1.4,1.2,1.8,2.1c0.4,0.9,0.7,2,0.7,3.2c0,1.2-0.2,2.3-0.7,3.2s-1,1.6-1.8,2.1c-0.8,0.5-1.6,0.7-2.6,0.7
			c-0.7,0-1.4-0.2-2.1-0.6c-0.7-0.4-1.2-0.9-1.6-1.5v6.3H405.3z M407.2,525.8c0.3,0.8,0.7,1.4,1.4,2c0.6,0.5,1.3,0.8,2,0.8
			c0.6,0,1.2-0.2,1.7-0.6c0.5-0.4,0.9-0.9,1.2-1.6c0.3-0.7,0.5-1.5,0.5-2.4c0-0.9-0.1-1.7-0.4-2.4c-0.3-0.7-0.7-1.2-1.2-1.6
			s-1.1-0.6-1.7-0.6c-0.7,0-1.4,0.3-2,0.8c-0.6,0.5-1.1,1.2-1.4,2V525.8z"/>
		<path class="st2" d="M417.9,524.7c0.3-0.5,0.8-0.8,1.5-1.1s1.6-0.5,2.7-0.7l2.9-0.5c0-1-0.3-1.8-0.8-2.3c-0.5-0.5-1.2-0.7-2.3-0.7
			c-0.7,0-1.4,0.2-2.1,0.5s-1.2,0.8-1.6,1.3v-1.8c0.4-0.4,1-0.8,1.7-1c0.7-0.3,1.4-0.4,2.2-0.4c1.5,0,2.6,0.4,3.4,1.1
			c0.8,0.7,1.3,1.8,1.3,3.3v7.4h-1.4L425,528c-0.5,0.7-1.2,1.2-1.9,1.5c-0.7,0.4-1.5,0.5-2.4,0.5c-1.1,0-1.9-0.3-2.6-0.9
			s-1-1.4-1-2.5C417.3,525.9,417.5,525.3,417.9,524.7z M419.7,528c0.4,0.3,0.8,0.5,1.4,0.5c0.7,0,1.4-0.2,2.2-0.7s1.3-1.1,1.7-1.8
			v-2.2l-1.9,0.4c-1.1,0.2-1.8,0.4-2.4,0.5c-0.5,0.2-0.9,0.4-1.2,0.7c-0.3,0.3-0.4,0.7-0.4,1.2C419.1,527.2,419.3,527.7,419.7,528z"
			/>
		<path class="st2" d="M428.9,523.8c0-1.1,0.2-2.1,0.7-3c0.5-0.9,1.1-1.6,2-2.1c0.9-0.5,1.8-0.7,2.9-0.7c0.6,0,1.2,0.1,1.8,0.3
			c0.6,0.2,1.1,0.5,1.5,0.9v2c-0.4-0.6-1-1-1.5-1.3s-1.2-0.4-1.8-0.4c-0.7,0-1.3,0.2-1.9,0.5c-0.6,0.4-1,0.9-1.3,1.5
			c-0.3,0.7-0.5,1.4-0.5,2.2v0.4c0,0.9,0.2,1.6,0.5,2.3c0.3,0.7,0.8,1.2,1.3,1.6c0.6,0.4,1.2,0.6,1.8,0.6c1.3,0,2.4-0.6,3.4-1.7v1.9
			c-0.4,0.4-0.9,0.7-1.5,0.9c-0.6,0.2-1.2,0.4-1.9,0.4c-1.1,0-2-0.3-2.9-0.8s-1.5-1.2-2-2.1c-0.5-0.9-0.7-1.9-0.7-3V523.8z"/>
		<path class="st2" d="M442,516.4h-1.8V514h1.8V516.4z M442,529.7h-1.8v-11.5h1.8V529.7z"/>
		<path class="st2" d="M444.3,523.8c0-1.1,0.2-2.2,0.7-3.1c0.5-0.9,1.1-1.6,1.9-2.1c0.8-0.5,1.7-0.7,2.8-0.7c1.1,0,2,0.2,2.8,0.7
			c0.8,0.5,1.4,1.2,1.9,2.1c0.5,0.9,0.7,1.9,0.7,3.1v0.4c0,1.1-0.2,2.2-0.7,3.1c-0.5,0.9-1.1,1.6-1.9,2.1c-0.8,0.5-1.7,0.7-2.8,0.7
			c-1,0-2-0.2-2.8-0.7c-0.8-0.5-1.5-1.2-1.9-2.1c-0.5-0.9-0.7-1.9-0.7-3.1V523.8z M446.2,524.2c0,1.3,0.3,2.4,0.9,3.2
			s1.5,1.2,2.5,1.2c1.1,0,1.9-0.4,2.5-1.2s0.9-1.9,0.9-3.2v-0.4c0-1.3-0.3-2.4-0.9-3.2c-0.6-0.8-1.5-1.2-2.5-1.2
			c-1.1,0-1.9,0.4-2.5,1.2c-0.6,0.8-0.9,1.9-0.9,3.2V524.2z"/>
		<path class="st2" d="M457,518.3h1.8v7.4c0,1,0.2,1.7,0.5,2.2c0.3,0.5,0.9,0.7,1.7,0.7c0.5,0,1.1-0.2,1.6-0.5s1-0.8,1.4-1.3
			s0.7-1.1,0.8-1.7v-6.8h1.9v11.5H465l-0.1-2.3c-0.4,0.7-1,1.3-1.7,1.9s-1.5,0.8-2.4,0.8c-1.2,0-2.1-0.4-2.8-1.1
			c-0.6-0.7-1-1.8-1-3.2V518.3z"/>
		<path class="st2" d="M469.3,526.8c0.9,1.1,2.1,1.7,3.6,1.7c0.8,0,1.4-0.2,1.8-0.5s0.7-0.7,0.7-1.3c0-0.4-0.1-0.7-0.3-1
			c-0.2-0.3-0.7-0.6-1.3-0.8l-1.6-0.6c-0.9-0.4-1.6-0.8-2.1-1.4s-0.7-1.2-0.7-1.9c0-0.6,0.1-1.1,0.5-1.5c0.3-0.5,0.7-0.8,1.3-1.1
			c0.6-0.3,1.3-0.4,2.1-0.4c0.7,0,1.3,0.1,2,0.4c0.6,0.3,1.1,0.6,1.6,0.9v2c-0.5-0.6-1.1-1-1.7-1.3c-0.6-0.3-1.2-0.4-1.8-0.4
			c-0.7,0-1.2,0.2-1.5,0.5c-0.3,0.3-0.5,0.7-0.5,1.1c0,0.4,0.1,0.7,0.4,0.9s0.7,0.5,1.4,0.8l1.5,0.6c1,0.4,1.6,0.9,2.1,1.4
			c0.4,0.5,0.7,1.2,0.7,2c0,1-0.4,1.9-1.2,2.5c-0.8,0.6-1.8,0.9-3.1,0.9c-0.8,0-1.5-0.1-2.1-0.4c-0.6-0.2-1.1-0.5-1.5-0.9V526.8z"/>
		<path class="st2" d="M479.9,532.3h-1.5l0.9-5.4h2.4L479.9,532.3z"/>
		<path class="st2" d="M489.3,526.8c0.9,1.1,2.1,1.7,3.6,1.7c0.8,0,1.4-0.2,1.8-0.5s0.7-0.7,0.7-1.3c0-0.4-0.1-0.7-0.3-1
			c-0.2-0.3-0.7-0.6-1.3-0.8l-1.6-0.6c-0.9-0.4-1.6-0.8-2.1-1.4s-0.7-1.2-0.7-1.9c0-0.6,0.1-1.1,0.5-1.5c0.3-0.5,0.7-0.8,1.3-1.1
			c0.6-0.3,1.3-0.4,2.1-0.4c0.7,0,1.3,0.1,2,0.4c0.6,0.3,1.1,0.6,1.6,0.9v2c-0.5-0.6-1.1-1-1.7-1.3c-0.6-0.3-1.2-0.4-1.8-0.4
			c-0.7,0-1.2,0.2-1.5,0.5c-0.3,0.3-0.5,0.7-0.5,1.1c0,0.4,0.1,0.7,0.4,0.9s0.7,0.5,1.4,0.8l1.5,0.6c1,0.4,1.6,0.9,2.1,1.4
			c0.4,0.5,0.7,1.2,0.7,2c0,1-0.4,1.9-1.2,2.5c-0.8,0.6-1.8,0.9-3.1,0.9c-0.8,0-1.5-0.1-2.1-0.4c-0.6-0.2-1.1-0.5-1.5-0.9V526.8z"/>
		<path class="st2" d="M499.3,518.3h1.8v7.4c0,1,0.2,1.7,0.5,2.2c0.3,0.5,0.9,0.7,1.7,0.7c0.5,0,1.1-0.2,1.6-0.5s1-0.8,1.4-1.3
			s0.7-1.1,0.8-1.7v-6.8h1.9v11.5h-1.7l-0.1-2.3c-0.4,0.7-1,1.3-1.7,1.9s-1.5,0.8-2.4,0.8c-1.2,0-2.1-0.4-2.8-1.1
			c-0.6-0.7-1-1.8-1-3.2V518.3z"/>
		<path class="st2" d="M511.6,526.8c0.9,1.1,2.1,1.7,3.6,1.7c0.8,0,1.4-0.2,1.8-0.5s0.7-0.7,0.7-1.3c0-0.4-0.1-0.7-0.3-1
			c-0.2-0.3-0.7-0.6-1.3-0.8l-1.6-0.6c-0.9-0.4-1.6-0.8-2.1-1.4s-0.7-1.2-0.7-1.9c0-0.6,0.1-1.1,0.5-1.5c0.3-0.5,0.7-0.8,1.3-1.1
			c0.6-0.3,1.3-0.4,2.1-0.4c0.7,0,1.3,0.1,2,0.4c0.6,0.3,1.1,0.6,1.6,0.9v2c-0.5-0.6-1.1-1-1.7-1.3c-0.6-0.3-1.2-0.4-1.8-0.4
			c-0.7,0-1.2,0.2-1.5,0.5c-0.3,0.3-0.5,0.7-0.5,1.1c0,0.4,0.1,0.7,0.4,0.9s0.7,0.5,1.4,0.8l1.5,0.6c1,0.4,1.6,0.9,2.1,1.4
			c0.4,0.5,0.7,1.2,0.7,2c0,1-0.4,1.9-1.2,2.5c-0.8,0.6-1.8,0.9-3.1,0.9c-0.8,0-1.5-0.1-2.1-0.4c-0.6-0.2-1.1-0.5-1.5-0.9V526.8z"/>
		<path class="st2" d="M522.9,519.7h-2.5v-1.5h2.5v-3.5h1.8v3.5h2.5v1.5h-2.5v10h-1.8V519.7z"/>
		<path class="st2" d="M528.7,524.7c0.3-0.5,0.8-0.8,1.5-1.1s1.6-0.5,2.7-0.7l2.9-0.5c0-1-0.3-1.8-0.8-2.3c-0.5-0.5-1.2-0.7-2.3-0.7
			c-0.7,0-1.4,0.2-2.1,0.5s-1.2,0.8-1.6,1.3v-1.8c0.4-0.4,1-0.8,1.7-1c0.7-0.3,1.4-0.4,2.2-0.4c1.5,0,2.6,0.4,3.4,1.1
			c0.8,0.7,1.3,1.8,1.3,3.3v7.4h-1.4l-0.3-1.8c-0.5,0.7-1.2,1.2-1.9,1.5c-0.7,0.4-1.5,0.5-2.4,0.5c-1.1,0-1.9-0.3-2.6-0.9
			s-1-1.4-1-2.5C528.1,525.9,528.3,525.3,528.7,524.7z M530.5,528c0.4,0.3,0.8,0.5,1.4,0.5c0.7,0,1.4-0.2,2.2-0.7s1.3-1.1,1.7-1.8
			v-2.2l-1.9,0.4c-1.1,0.2-1.8,0.4-2.4,0.5c-0.5,0.2-0.9,0.4-1.2,0.7c-0.3,0.3-0.4,0.7-0.4,1.2C530,527.2,530.2,527.7,530.5,528z"/>
		<path class="st2" d="M542.4,516.4h-1.8V514h1.8V516.4z M542.4,529.7h-1.8v-11.5h1.8V529.7z"/>
		<path class="st2" d="M545.4,529.7v-11.5h1.7l0.1,2.3c0.4-0.7,1-1.3,1.7-1.9s1.5-0.8,2.4-0.8c1.2,0,2.1,0.4,2.8,1.1
			c0.7,0.7,1,1.8,1,3.2v7.5h-1.9v-7.4c0-1-0.2-1.7-0.5-2.2c-0.3-0.5-0.9-0.7-1.7-0.7c-0.5,0-1,0.2-1.6,0.5s-1,0.8-1.4,1.3
			s-0.7,1.1-0.8,1.7v6.8H545.4z"/>
		<path class="st2" d="M557.7,524.7c0.3-0.5,0.8-0.8,1.5-1.1s1.6-0.5,2.7-0.7l2.9-0.5c0-1-0.3-1.8-0.8-2.3c-0.5-0.5-1.2-0.7-2.3-0.7
			c-0.7,0-1.4,0.2-2.1,0.5s-1.2,0.8-1.6,1.3v-1.8c0.4-0.4,1-0.8,1.7-1c0.7-0.3,1.4-0.4,2.2-0.4c1.5,0,2.6,0.4,3.4,1.1
			c0.8,0.7,1.3,1.8,1.3,3.3v7.4h-1.4l-0.3-1.8c-0.5,0.7-1.2,1.2-1.9,1.5c-0.7,0.4-1.5,0.5-2.4,0.5c-1.1,0-1.9-0.3-2.6-0.9
			s-1-1.4-1-2.5C557.1,525.9,557.3,525.3,557.7,524.7z M559.5,528c0.4,0.3,0.8,0.5,1.4,0.5c0.7,0,1.4-0.2,2.2-0.7s1.3-1.1,1.7-1.8
			v-2.2l-1.9,0.4c-1.1,0.2-1.8,0.4-2.4,0.5c-0.5,0.2-0.9,0.4-1.2,0.7c-0.3,0.3-0.4,0.7-0.4,1.2C559,527.2,559.1,527.7,559.5,528z"/>
		<path class="st2" d="M569.5,529.7v-16.1h1.8v6.3c0.4-0.6,1-1.1,1.6-1.5c0.7-0.4,1.3-0.6,2.1-0.6c1,0,1.8,0.2,2.6,0.7
			c0.8,0.5,1.4,1.2,1.8,2.1c0.4,0.9,0.7,2,0.7,3.2c0,1.2-0.2,2.3-0.7,3.2s-1,1.6-1.8,2.1c-0.8,0.5-1.6,0.7-2.6,0.7
			c-0.8,0-1.5-0.2-2.1-0.6c-0.7-0.4-1.2-0.9-1.6-1.5l-0.1,1.8H569.5z M571.4,525.9c0.3,0.8,0.8,1.4,1.4,1.9c0.6,0.5,1.3,0.8,2,0.8
			c0.6,0,1.2-0.2,1.7-0.6s0.9-0.9,1.2-1.6c0.3-0.7,0.4-1.5,0.4-2.4c0-0.9-0.2-1.7-0.5-2.4c-0.3-0.7-0.7-1.2-1.2-1.6
			s-1.1-0.6-1.7-0.6c-0.7,0-1.4,0.3-2,0.8s-1.1,1.2-1.4,1.9V525.9z"/>
		<path class="st2" d="M584.2,529.7h-1.8v-16.1h1.8V529.7z"/>
		<path class="st2" d="M586.3,523.7c0-1.1,0.2-2.1,0.7-3c0.4-0.9,1-1.6,1.8-2.1c0.8-0.5,1.7-0.7,2.7-0.7c1.5,0,2.7,0.5,3.6,1.5
			s1.3,2.5,1.3,4.4v0.8h-8.2c0.1,1.2,0.4,2.1,1,2.8c0.6,0.7,1.4,1.1,2.5,1.1c1.6,0,3-0.6,4.1-1.7v1.9c-0.5,0.4-1.1,0.7-1.7,1
			c-0.7,0.2-1.4,0.4-2.3,0.4c-1.1,0-2.1-0.2-2.9-0.7c-0.8-0.5-1.4-1.2-1.8-2.1c-0.4-0.9-0.6-1.9-0.6-3.1V523.7z M594.6,523.2
			c0-1.2-0.3-2.2-0.9-2.8s-1.3-0.9-2.2-0.9c-0.6,0-1.1,0.2-1.6,0.5c-0.5,0.3-0.9,0.7-1.2,1.3c-0.3,0.6-0.5,1.2-0.5,2H594.6z"/>
		<path class="st2" d="M600.7,529.7h-2.4V527h2.4V529.7z"/>
	</g>
	<g>
		<path class="st2" d="M75.6,550.4h-4.9v-1.6h11.7v1.6h-4.9v14.4h-1.9V550.4z"/>
		<path class="st2" d="M84.4,564.7v-16.1h1.8v6.9c0.4-0.7,1-1.3,1.7-1.8c0.7-0.5,1.5-0.8,2.4-0.8c1.2,0,2.1,0.4,2.8,1.1
			c0.6,0.7,1,1.8,1,3.2v7.5h-1.8v-7.4c0-1-0.2-1.7-0.5-2.2c-0.3-0.5-0.9-0.7-1.7-0.7c-0.5,0-1,0.2-1.6,0.5c-0.5,0.3-1,0.7-1.4,1.3
			s-0.7,1.1-0.8,1.7v6.8H84.4z"/>
		<path class="st2" d="M96.1,558.7c0-1.1,0.2-2.1,0.7-3c0.4-0.9,1-1.6,1.8-2.1c0.8-0.5,1.7-0.7,2.7-0.7c1.5,0,2.7,0.5,3.6,1.5
			s1.3,2.5,1.3,4.4v0.8h-8.2c0.1,1.2,0.4,2.1,1,2.8c0.6,0.7,1.4,1.1,2.5,1.1c1.6,0,3-0.6,4.1-1.7v1.9c-0.5,0.4-1.1,0.7-1.7,1
			c-0.7,0.2-1.4,0.4-2.3,0.4c-1.1,0-2.1-0.2-2.9-0.7c-0.8-0.5-1.4-1.2-1.8-2.1c-0.4-0.9-0.6-1.9-0.6-3.1V558.7z M104.3,558.2
			c0-1.2-0.3-2.2-0.9-2.8s-1.3-0.9-2.2-0.9c-0.6,0-1.1,0.2-1.6,0.5c-0.5,0.3-0.9,0.7-1.2,1.3c-0.3,0.6-0.5,1.2-0.5,2H104.3z"/>
		<path class="st2" d="M115.9,564.7h-2v-16h2v7.2l7.4-7.2h2.5l-8,7.8l8.3,8.2h-2.8l-7.4-7.4V564.7z"/>
		<path class="st2" d="M129.6,551.4h-1.8V549h1.8V551.4z M129.6,564.7h-1.8v-11.5h1.8V564.7z"/>
		<path class="st2" d="M132.4,559.7c0.3-0.5,0.8-0.8,1.5-1.1s1.6-0.5,2.7-0.7l2.9-0.5c0-1-0.3-1.8-0.8-2.3c-0.5-0.5-1.2-0.7-2.3-0.7
			c-0.7,0-1.4,0.2-2.1,0.5s-1.2,0.8-1.6,1.3v-1.8c0.4-0.4,1-0.8,1.7-1c0.7-0.3,1.4-0.4,2.2-0.4c1.5,0,2.6,0.4,3.4,1.1
			c0.8,0.7,1.3,1.8,1.3,3.3v7.4h-1.4l-0.3-1.8c-0.5,0.7-1.2,1.2-1.9,1.5c-0.7,0.4-1.5,0.5-2.4,0.5c-1.1,0-1.9-0.3-2.6-0.9
			s-1-1.4-1-2.5C131.8,560.9,132,560.3,132.4,559.7z M134.2,563c0.4,0.3,0.8,0.5,1.4,0.5c0.7,0,1.4-0.2,2.2-0.7s1.3-1.1,1.7-1.8
			v-2.2l-1.9,0.4c-1.1,0.2-1.8,0.4-2.4,0.5c-0.5,0.2-0.9,0.4-1.2,0.7c-0.3,0.3-0.4,0.7-0.4,1.2C133.7,562.2,133.9,562.7,134.2,563z"
			/>
		<path class="st2" d="M159.4,564.7h-9.6v-16h9.5v1.6h-7.6v5.4h6.4v1.6h-6.4v5.8h7.7V564.7z"/>
		<path class="st2" d="M166.7,564.7l-6-16h2.1l5,13.6l4.9-13.6h2l-5.8,16H166.7z"/>
		<path class="st2" d="M176.1,560.9c0.5,0.8,1.1,1.4,1.8,1.8c0.7,0.4,1.5,0.6,2.3,0.6c0.7,0,1.4-0.2,1.9-0.5c0.6-0.3,1-0.7,1.3-1.3
			s0.5-1.2,0.5-1.9c0-0.7-0.1-1.2-0.4-1.8c-0.3-0.5-0.7-0.9-1.1-1.2c-0.5-0.3-1-0.4-1.5-0.4c-0.6,0-1.2,0.1-1.7,0.4
			c-0.5,0.2-0.9,0.5-1.1,0.8h-1.4l0.8-8.6h7.9v1.6h-6.1l-0.4,5c0.7-0.5,1.5-0.8,2.5-0.8c0.8,0,1.6,0.2,2.3,0.6
			c0.7,0.4,1.3,1,1.7,1.7c0.4,0.7,0.6,1.6,0.6,2.6c0,1.1-0.2,2-0.7,2.8c-0.5,0.8-1.2,1.4-2,1.8c-0.9,0.4-1.8,0.6-2.9,0.6
			c-0.9,0-1.7-0.2-2.5-0.5s-1.3-0.7-1.7-1.2V560.9z"/>
		<path class="st2" d="M190.9,564.7h-2.4V562h2.4V564.7z M190.9,556h-2.4v-2.7h2.4V556z"/>
		<path class="st2" d="M199.2,559.7c0.3-0.5,0.8-0.8,1.5-1.1s1.6-0.5,2.7-0.7l2.9-0.5c0-1-0.3-1.8-0.8-2.3c-0.5-0.5-1.2-0.7-2.3-0.7
			c-0.7,0-1.4,0.2-2.1,0.5s-1.2,0.8-1.6,1.3v-1.8c0.4-0.4,1-0.8,1.7-1c0.7-0.3,1.4-0.4,2.2-0.4c1.5,0,2.6,0.4,3.4,1.1
			c0.8,0.7,1.3,1.8,1.3,3.3v7.4h-1.4l-0.3-1.8c-0.5,0.7-1.2,1.2-1.9,1.5c-0.7,0.4-1.5,0.5-2.4,0.5c-1.1,0-1.9-0.3-2.6-0.9
			s-1-1.4-1-2.5C198.5,560.9,198.7,560.3,199.2,559.7z M201,563c0.4,0.3,0.8,0.5,1.4,0.5c0.7,0,1.4-0.2,2.2-0.7s1.3-1.1,1.7-1.8
			v-2.2l-1.9,0.4c-1.1,0.2-1.8,0.4-2.4,0.5c-0.5,0.2-0.9,0.4-1.2,0.7c-0.3,0.3-0.4,0.7-0.4,1.2C200.4,562.2,200.6,562.7,201,563z"/>
		<path class="st2" d="M215.6,558.8c0-1.1,0.2-2.1,0.7-3c0.5-0.9,1.1-1.6,2-2.1c0.9-0.5,1.8-0.7,2.9-0.7c0.6,0,1.2,0.1,1.8,0.3
			c0.6,0.2,1.1,0.5,1.5,0.9v2c-0.4-0.6-1-1-1.5-1.3s-1.2-0.4-1.8-0.4c-0.7,0-1.3,0.2-1.9,0.5c-0.6,0.4-1,0.9-1.3,1.5
			c-0.3,0.7-0.5,1.4-0.5,2.2v0.4c0,0.9,0.2,1.6,0.5,2.3c0.3,0.7,0.8,1.2,1.3,1.6c0.6,0.4,1.2,0.6,1.8,0.6c1.3,0,2.4-0.6,3.4-1.7v1.9
			c-0.4,0.4-0.9,0.7-1.5,0.9c-0.6,0.2-1.2,0.4-1.9,0.4c-1.1,0-2-0.3-2.9-0.8s-1.5-1.2-2-2.1c-0.5-0.9-0.7-1.9-0.7-3V558.8z"/>
		<path class="st2" d="M226.1,558.8c0-1.1,0.2-2.2,0.7-3.1c0.5-0.9,1.1-1.6,1.9-2.1c0.8-0.5,1.7-0.7,2.8-0.7c1.1,0,2,0.2,2.8,0.7
			c0.8,0.5,1.4,1.2,1.9,2.1c0.5,0.9,0.7,1.9,0.7,3.1v0.4c0,1.1-0.2,2.2-0.7,3.1c-0.5,0.9-1.1,1.6-1.9,2.1c-0.8,0.5-1.7,0.7-2.8,0.7
			c-1,0-2-0.2-2.8-0.7c-0.8-0.5-1.5-1.2-1.9-2.1c-0.5-0.9-0.7-1.9-0.7-3.1V558.8z M228,559.2c0,1.3,0.3,2.4,0.9,3.2s1.5,1.2,2.5,1.2
			c1.1,0,1.9-0.4,2.5-1.2s0.9-1.9,0.9-3.2v-0.4c0-1.3-0.3-2.4-0.9-3.2c-0.6-0.8-1.5-1.2-2.5-1.2c-1.1,0-1.9,0.4-2.5,1.2
			c-0.6,0.8-0.9,1.9-0.9,3.2V559.2z"/>
		<path class="st2" d="M239.1,564.7v-11.5h1.7l0.1,2.1c0.4-0.7,1-1.3,1.6-1.7c0.6-0.4,1.3-0.7,2.2-0.7c0.8,0,1.5,0.2,2.1,0.7
			c0.6,0.4,0.9,1.1,1.1,1.9c0.5-0.8,1-1.4,1.7-1.8s1.4-0.7,2.2-0.7c1.1,0,1.9,0.3,2.5,1c0.6,0.7,0.9,1.7,0.9,3v7.8h-1.8v-7.6
			c0-0.9-0.2-1.6-0.5-2c-0.3-0.4-0.8-0.7-1.5-0.7c-0.4,0-0.9,0.1-1.3,0.4s-0.9,0.7-1.2,1.1c-0.4,0.5-0.6,1-0.8,1.5v7.2h-1.8V557
			c0-0.9-0.2-1.6-0.5-2c-0.3-0.4-0.8-0.6-1.5-0.6c-0.4,0-0.9,0.1-1.3,0.4c-0.5,0.3-0.9,0.7-1.2,1.1c-0.4,0.5-0.6,1-0.8,1.5v7.2
			H239.1z"/>
		<path class="st2" d="M258,569.4v-16.1h1.7l0.1,1.8c0.4-0.6,0.9-1.2,1.6-1.6c0.7-0.4,1.4-0.6,2.1-0.6c1,0,1.8,0.2,2.6,0.7
			c0.8,0.5,1.4,1.2,1.8,2.1c0.4,0.9,0.7,2,0.7,3.2c0,1.2-0.2,2.3-0.7,3.2s-1,1.6-1.8,2.1c-0.8,0.5-1.6,0.7-2.6,0.7
			c-0.7,0-1.4-0.2-2.1-0.6c-0.7-0.4-1.2-0.9-1.6-1.5v6.3H258z M259.9,560.8c0.3,0.8,0.7,1.4,1.4,2c0.6,0.5,1.3,0.8,2,0.8
			c0.6,0,1.2-0.2,1.7-0.6c0.5-0.4,0.9-0.9,1.2-1.6c0.3-0.7,0.5-1.5,0.5-2.4c0-0.9-0.1-1.7-0.4-2.4c-0.3-0.7-0.7-1.2-1.2-1.6
			s-1.1-0.6-1.7-0.6c-0.7,0-1.4,0.3-2,0.8c-0.6,0.5-1.1,1.2-1.4,2V560.8z"/>
		<path class="st2" d="M270.6,559.7c0.3-0.5,0.8-0.8,1.5-1.1s1.6-0.5,2.7-0.7l2.9-0.5c0-1-0.3-1.8-0.8-2.3c-0.5-0.5-1.2-0.7-2.3-0.7
			c-0.7,0-1.4,0.2-2.1,0.5s-1.2,0.8-1.6,1.3v-1.8c0.4-0.4,1-0.8,1.7-1c0.7-0.3,1.4-0.4,2.2-0.4c1.5,0,2.6,0.4,3.4,1.1
			c0.8,0.7,1.3,1.8,1.3,3.3v7.4h-1.4l-0.3-1.8c-0.5,0.7-1.2,1.2-1.9,1.5c-0.7,0.4-1.5,0.5-2.4,0.5c-1.1,0-1.9-0.3-2.6-0.9
			s-1-1.4-1-2.5C270,560.9,270.2,560.3,270.6,559.7z M272.4,563c0.4,0.3,0.8,0.5,1.4,0.5c0.7,0,1.4-0.2,2.2-0.7s1.3-1.1,1.7-1.8
			v-2.2l-1.9,0.4c-1.1,0.2-1.8,0.4-2.4,0.5c-0.5,0.2-0.9,0.4-1.2,0.7c-0.3,0.3-0.4,0.7-0.4,1.2C271.9,562.2,272.1,562.7,272.4,563z"
			/>
		<path class="st2" d="M281.6,558.8c0-1.1,0.2-2.1,0.7-3c0.5-0.9,1.1-1.6,2-2.1c0.9-0.5,1.8-0.7,2.9-0.7c0.6,0,1.2,0.1,1.8,0.3
			c0.6,0.2,1.1,0.5,1.5,0.9v2c-0.4-0.6-1-1-1.5-1.3s-1.2-0.4-1.8-0.4c-0.7,0-1.3,0.2-1.9,0.5c-0.6,0.4-1,0.9-1.3,1.5
			c-0.3,0.7-0.5,1.4-0.5,2.2v0.4c0,0.9,0.2,1.6,0.5,2.3c0.3,0.7,0.8,1.2,1.3,1.6c0.6,0.4,1.2,0.6,1.8,0.6c1.3,0,2.4-0.6,3.4-1.7v1.9
			c-0.4,0.4-0.9,0.7-1.5,0.9c-0.6,0.2-1.2,0.4-1.9,0.4c-1.1,0-2-0.3-2.9-0.8s-1.5-1.2-2-2.1c-0.5-0.9-0.7-1.9-0.7-3V558.8z"/>
		<path class="st2" d="M294.4,554.8h-2.5v-1.5h2.5v-3.5h1.8v3.5h2.5v1.5h-2.5v10h-1.8V554.8z"/>
		<path class="st2" d="M305.6,560.9c0.5,0.8,1.2,1.4,2,1.9c0.8,0.5,1.7,0.7,2.6,0.7c0.7,0,1.3-0.1,1.8-0.4c0.5-0.3,0.9-0.6,1.1-1
			c0.3-0.4,0.4-0.9,0.4-1.3c0-0.6-0.2-1.2-0.6-1.6c-0.4-0.5-1-0.9-1.8-1.3l-2.3-1.2c-1-0.5-1.7-1.1-2.2-1.7
			c-0.5-0.6-0.8-1.4-0.8-2.4c0-0.7,0.2-1.4,0.6-2c0.4-0.6,0.9-1.1,1.6-1.4c0.7-0.4,1.6-0.5,2.5-0.5c0.8,0,1.6,0.2,2.4,0.5
			c0.8,0.3,1.4,0.8,2,1.3v2.3c-0.6-0.8-1.2-1.4-2-1.8s-1.6-0.7-2.3-0.7c-0.8,0-1.5,0.2-2,0.7c-0.5,0.4-0.7,1-0.7,1.7
			c0,0.5,0.2,1,0.5,1.4c0.3,0.4,0.9,0.8,1.8,1.2l2.2,1.2c1.1,0.6,1.9,1.2,2.4,1.9c0.5,0.7,0.8,1.6,0.8,2.6c0,0.8-0.2,1.6-0.6,2.3
			c-0.4,0.7-1,1.2-1.8,1.6c-0.8,0.4-1.7,0.6-2.8,0.6c-1,0-1.9-0.2-2.7-0.5c-0.8-0.4-1.4-0.8-1.9-1.3V560.9z"/>
		<path class="st2" d="M317.9,548.8h2v10.1c0,1.4,0.4,2.6,1.1,3.4c0.7,0.8,1.8,1.2,3.2,1.2c1.4,0,2.4-0.4,3.1-1.2
			c0.7-0.8,1.1-1.9,1.1-3.4v-10.1h1.8v10.1c0,1.2-0.2,2.2-0.7,3.2c-0.5,0.9-1.2,1.6-2.1,2.2c-0.9,0.5-2,0.8-3.3,0.8
			s-2.4-0.3-3.3-0.8c-0.9-0.5-1.6-1.2-2.1-2.2c-0.5-0.9-0.7-2-0.7-3.2V548.8z"/>
		<path class="st2" d="M338,564.7l-6-16h2.1l5,13.6l4.9-13.6h2l-5.8,16H338z"/>
		<path class="st2" d="M362.9,564.7h-9.6v-16h9.5v1.6h-7.6v5.4h6.4v1.6h-6.4v5.8h7.7V564.7z"/>
		<path class="st2" d="M370.1,564.7l-6-16h2.1l5,13.6l4.9-13.6h2l-5.8,16H370.1z"/>
		<path class="st2" d="M385.2,555.8c0.4-0.9,1-1.6,1.8-2.1c0.8-0.5,1.6-0.7,2.6-0.7c0.7,0,1.4,0.2,2.1,0.6c0.7,0.4,1.2,0.9,1.6,1.5
			v-6.3h1.8v16.1h-1.7l-0.1-1.8c-0.4,0.6-0.9,1.1-1.6,1.5c-0.7,0.4-1.4,0.6-2.1,0.6c-1,0-1.8-0.2-2.6-0.7c-0.8-0.5-1.4-1.2-1.8-2.1
			c-0.4-0.9-0.7-2-0.7-3.2C384.5,557.8,384.7,556.7,385.2,555.8z M386.9,561.4c0.3,0.7,0.7,1.2,1.2,1.6c0.5,0.4,1.1,0.6,1.7,0.6
			c0.7,0,1.4-0.3,2-0.8c0.6-0.5,1.1-1.2,1.4-1.9v-3.7c-0.3-0.8-0.8-1.4-1.4-1.9c-0.6-0.5-1.3-0.8-2-0.8c-0.6,0-1.2,0.2-1.7,0.6
			c-0.5,0.4-0.9,0.9-1.2,1.6c-0.3,0.7-0.5,1.5-0.5,2.4C386.4,559.9,386.6,560.7,386.9,561.4z"/>
		<path class="st2" d="M397.3,558.7c0-1.1,0.2-2.1,0.7-3c0.4-0.9,1-1.6,1.8-2.1c0.8-0.5,1.7-0.7,2.7-0.7c1.5,0,2.7,0.5,3.6,1.5
			s1.3,2.5,1.3,4.4v0.8h-8.2c0.1,1.2,0.4,2.1,1,2.8c0.6,0.7,1.4,1.1,2.5,1.1c1.6,0,3-0.6,4.1-1.7v1.9c-0.5,0.4-1.1,0.7-1.7,1
			c-0.7,0.2-1.4,0.4-2.3,0.4c-1.1,0-2.1-0.2-2.9-0.7c-0.8-0.5-1.4-1.2-1.8-2.1c-0.4-0.9-0.6-1.9-0.6-3.1V558.7z M405.5,558.2
			c0-1.2-0.3-2.2-0.9-2.8s-1.3-0.9-2.2-0.9c-0.6,0-1.1,0.2-1.6,0.5c-0.5,0.3-0.9,0.7-1.2,1.3c-0.3,0.6-0.5,1.2-0.5,2H405.5z"/>
		<path class="st2" d="M411.5,564.7h-1.8v-16.1h1.8V564.7z"/>
		<path class="st2" d="M416.3,551.4h-1.8V549h1.8V551.4z M416.3,564.7h-1.8v-11.5h1.8V564.7z"/>
		<path class="st2" d="M422.4,564.7l-4.4-11.5h2l3.5,9.5l3.5-9.5h1.8l-4.4,11.5H422.4z"/>
		<path class="st2" d="M429.7,558.7c0-1.1,0.2-2.1,0.7-3c0.4-0.9,1-1.6,1.8-2.1c0.8-0.5,1.7-0.7,2.7-0.7c1.5,0,2.7,0.5,3.6,1.5
			s1.3,2.5,1.3,4.4v0.8h-8.2c0.1,1.2,0.4,2.1,1,2.8c0.6,0.7,1.4,1.1,2.5,1.1c1.6,0,3-0.6,4.1-1.7v1.9c-0.5,0.4-1.1,0.7-1.7,1
			c-0.7,0.2-1.4,0.4-2.3,0.4c-1.1,0-2.1-0.2-2.9-0.7c-0.8-0.5-1.4-1.2-1.8-2.1c-0.4-0.9-0.6-1.9-0.6-3.1V558.7z M437.9,558.2
			c0-1.2-0.3-2.2-0.9-2.8s-1.3-0.9-2.2-0.9c-0.6,0-1.1,0.2-1.6,0.5c-0.5,0.3-0.9,0.7-1.2,1.3c-0.3,0.6-0.5,1.2-0.5,2H437.9z"/>
		<path class="st2" d="M442,564.7v-11.5h1.7l0.1,2c0.3-0.7,0.8-1.3,1.4-1.7s1.3-0.6,2.1-0.6c0.2,0,0.4,0,0.6,0s0.4,0.1,0.5,0.1v1.6
			c-0.3-0.1-0.7-0.2-1.2-0.2c-0.7,0-1.4,0.2-2,0.7c-0.6,0.5-1,1.1-1.3,2v7.5H442z"/>
		<path class="st2" d="M451.8,551.4h-1.8V549h1.8V551.4z M451.8,564.7h-1.8v-11.5h1.8V564.7z"/>
		<path class="st2" d="M454.8,564.7v-11.5h1.7l0.1,2.3c0.4-0.7,1-1.3,1.7-1.9s1.5-0.8,2.4-0.8c1.2,0,2.1,0.4,2.8,1.1
			c0.7,0.7,1,1.8,1,3.2v7.5h-1.9v-7.4c0-1-0.2-1.7-0.5-2.2c-0.3-0.5-0.9-0.7-1.7-0.7c-0.5,0-1,0.2-1.6,0.5s-1,0.8-1.4,1.3
			s-0.7,1.1-0.8,1.7v6.8H454.8z"/>
		<path class="st2" d="M467.1,555.7c0.4-0.9,1-1.5,1.8-2c0.8-0.5,1.6-0.7,2.6-0.7c0.7,0,1.4,0.2,2.1,0.6c0.6,0.4,1.2,0.9,1.6,1.5
			l0.1-1.7h1.7v11c0,1.1-0.2,2-0.7,2.8c-0.4,0.8-1.1,1.4-2,1.8c-0.9,0.4-1.9,0.7-3.1,0.7c-0.8,0-1.5-0.1-2-0.3
			c-0.6-0.2-1.1-0.4-1.6-0.8v-1.8c1.1,0.9,2.3,1.3,3.7,1.3c1.2,0,2.1-0.3,2.8-1c0.7-0.6,1-1.6,1-2.8v-1.8c-0.4,0.6-0.9,1.1-1.6,1.4
			c-0.6,0.4-1.3,0.5-2,0.5c-1,0-1.8-0.2-2.6-0.7c-0.8-0.5-1.3-1.1-1.8-2c-0.4-0.9-0.6-1.9-0.6-3.1
			C466.5,557.5,466.7,556.5,467.1,555.7z M468.9,561c0.3,0.6,0.7,1.1,1.2,1.5s1.1,0.5,1.7,0.5c0.7,0,1.4-0.2,2-0.7
			c0.6-0.5,1.1-1.1,1.4-1.9v-3.3c-0.3-0.8-0.7-1.4-1.4-1.9c-0.6-0.5-1.3-0.8-2-0.8c-0.6,0-1.2,0.2-1.7,0.5s-0.9,0.8-1.2,1.5
			c-0.3,0.6-0.4,1.4-0.4,2.3S468.6,560.3,468.9,561z"/>
		<path class="st2" d="M486.6,554.8H484v-1.5h2.5v-3.5h1.8v3.5h2.5v1.5h-2.5v10h-1.8V554.8z"/>
		<path class="st2" d="M492.6,564.7v-16.1h1.8v6.9c0.4-0.7,1-1.3,1.7-1.8c0.7-0.5,1.5-0.8,2.4-0.8c1.2,0,2.1,0.4,2.8,1.1
			c0.6,0.7,1,1.8,1,3.2v7.5h-1.8v-7.4c0-1-0.2-1.7-0.5-2.2c-0.3-0.5-0.9-0.7-1.7-0.7c-0.5,0-1,0.2-1.6,0.5c-0.5,0.3-1,0.7-1.4,1.3
			s-0.7,1.1-0.8,1.7v6.8H492.6z"/>
		<path class="st2" d="M504.2,558.7c0-1.1,0.2-2.1,0.7-3c0.4-0.9,1-1.6,1.8-2.1c0.8-0.5,1.7-0.7,2.7-0.7c1.5,0,2.7,0.5,3.6,1.5
			s1.3,2.5,1.3,4.4v0.8h-8.2c0.1,1.2,0.4,2.1,1,2.8c0.6,0.7,1.4,1.1,2.5,1.1c1.6,0,3-0.6,4.1-1.7v1.9c-0.5,0.4-1.1,0.7-1.7,1
			c-0.7,0.2-1.4,0.4-2.3,0.4c-1.1,0-2.1-0.2-2.9-0.7c-0.8-0.5-1.4-1.2-1.8-2.1c-0.4-0.9-0.6-1.9-0.6-3.1V558.7z M512.5,558.2
			c0-1.2-0.3-2.2-0.9-2.8s-1.3-0.9-2.2-0.9c-0.6,0-1.1,0.2-1.6,0.5c-0.5,0.3-0.9,0.7-1.2,1.3c-0.3,0.6-0.5,1.2-0.5,2H512.5z"/>
		<path class="st2" d="M520.6,554.8v-1.5h2.3v-1.1c0-0.7,0.1-1.3,0.4-1.9c0.3-0.6,0.7-1.1,1.2-1.4c0.5-0.4,1.2-0.5,2-0.5
			c0.5,0,1,0.1,1.4,0.3v1.6c-0.3-0.3-0.8-0.4-1.3-0.4c-0.6,0-1,0.2-1.4,0.6s-0.5,1-0.5,1.8v1.1h2.7v1.5h-2.7v10h-1.9v-10H520.6z"/>
		<path class="st2" d="M529.3,553.3h1.8v7.4c0,1,0.2,1.7,0.5,2.2c0.3,0.5,0.9,0.7,1.7,0.7c0.5,0,1.1-0.2,1.6-0.5s1-0.8,1.4-1.3
			s0.7-1.1,0.8-1.7v-6.8h1.9v11.5h-1.7l-0.1-2.3c-0.4,0.7-1,1.3-1.7,1.9s-1.5,0.8-2.4,0.8c-1.2,0-2.1-0.4-2.8-1.1
			c-0.6-0.7-1-1.8-1-3.2V553.3z"/>
		<path class="st2" d="M543.1,554.8h-2.5v-1.5h2.5v-3.5h1.8v3.5h2.5v1.5H545v10h-1.8V554.8z"/>
		<path class="st2" d="M548.9,553.3h1.8v7.4c0,1,0.2,1.7,0.5,2.2c0.3,0.5,0.9,0.7,1.7,0.7c0.5,0,1.1-0.2,1.6-0.5s1-0.8,1.4-1.3
			s0.7-1.1,0.8-1.7v-6.8h1.9v11.5h-1.7l-0.1-2.3c-0.4,0.7-1,1.3-1.7,1.9s-1.5,0.8-2.4,0.8c-1.2,0-2.1-0.4-2.8-1.1
			c-0.6-0.7-1-1.8-1-3.2V553.3z"/>
		<path class="st2" d="M561.6,564.7v-11.5h1.7l0.1,2c0.3-0.7,0.8-1.3,1.4-1.7s1.3-0.6,2.1-0.6c0.2,0,0.4,0,0.6,0s0.4,0.1,0.5,0.1
			v1.6c-0.3-0.1-0.7-0.2-1.2-0.2c-0.7,0-1.4,0.2-2,0.7c-0.6,0.5-1,1.1-1.3,2v7.5H561.6z"/>
		<path class="st2" d="M568.7,558.7c0-1.1,0.2-2.1,0.7-3c0.4-0.9,1-1.6,1.8-2.1c0.8-0.5,1.7-0.7,2.7-0.7c1.5,0,2.7,0.5,3.6,1.5
			s1.3,2.5,1.3,4.4v0.8h-8.2c0.1,1.2,0.4,2.1,1,2.8c0.6,0.7,1.4,1.1,2.5,1.1c1.6,0,3-0.6,4.1-1.7v1.9c-0.5,0.4-1.1,0.7-1.7,1
			c-0.7,0.2-1.4,0.4-2.3,0.4c-1.1,0-2.1-0.2-2.9-0.7c-0.8-0.5-1.4-1.2-1.8-2.1c-0.4-0.9-0.6-1.9-0.6-3.1V558.7z M577,558.2
			c0-1.2-0.3-2.2-0.9-2.8s-1.3-0.9-2.2-0.9c-0.6,0-1.1,0.2-1.6,0.5c-0.5,0.3-0.9,0.7-1.2,1.3c-0.3,0.6-0.5,1.2-0.5,2H577z"/>
		<path class="st2" d="M585.7,558.8c0-1.1,0.2-2.2,0.7-3.1c0.5-0.9,1.1-1.6,1.9-2.1c0.8-0.5,1.7-0.7,2.8-0.7c1.1,0,2,0.2,2.8,0.7
			c0.8,0.5,1.4,1.2,1.9,2.1c0.5,0.9,0.7,1.9,0.7,3.1v0.4c0,1.1-0.2,2.2-0.7,3.1c-0.5,0.9-1.1,1.6-1.9,2.1c-0.8,0.5-1.7,0.7-2.8,0.7
			c-1,0-2-0.2-2.8-0.7c-0.8-0.5-1.5-1.2-1.9-2.1c-0.5-0.9-0.7-1.9-0.7-3.1V558.8z M587.6,559.2c0,1.3,0.3,2.4,0.9,3.2
			s1.5,1.2,2.5,1.2c1.1,0,1.9-0.4,2.5-1.2s0.9-1.9,0.9-3.2v-0.4c0-1.3-0.3-2.4-0.9-3.2c-0.6-0.8-1.5-1.2-2.5-1.2
			c-1.1,0-1.9,0.4-2.5,1.2c-0.6,0.8-0.9,1.9-0.9,3.2V559.2z"/>
		<path class="st2" d="M597.2,554.8v-1.5h2.3v-1.1c0-0.7,0.1-1.3,0.4-1.9c0.3-0.6,0.7-1.1,1.2-1.4c0.5-0.4,1.2-0.5,2-0.5
			c0.5,0,1,0.1,1.4,0.3v1.6c-0.3-0.3-0.8-0.4-1.3-0.4c-0.6,0-1,0.2-1.4,0.6s-0.5,1-0.5,1.8v1.1h2.7v1.5h-2.7v10h-1.9v-10H597.2z"/>
		<path class="st2" d="M611.6,564.7v-11.5h1.7l0.1,2.1c0.4-0.7,1-1.3,1.6-1.7c0.6-0.4,1.3-0.7,2.2-0.7c0.8,0,1.5,0.2,2.1,0.7
			c0.6,0.4,0.9,1.1,1.1,1.9c0.5-0.8,1-1.4,1.7-1.8s1.4-0.7,2.2-0.7c1.1,0,1.9,0.3,2.5,1c0.6,0.7,0.9,1.7,0.9,3v7.8h-1.8v-7.6
			c0-0.9-0.2-1.6-0.5-2c-0.3-0.4-0.8-0.7-1.5-0.7c-0.4,0-0.9,0.1-1.3,0.4s-0.9,0.7-1.2,1.1c-0.4,0.5-0.6,1-0.8,1.5v7.2h-1.8V557
			c0-0.9-0.2-1.6-0.5-2c-0.3-0.4-0.8-0.6-1.5-0.6c-0.4,0-0.9,0.1-1.3,0.4c-0.5,0.3-0.9,0.7-1.2,1.1c-0.4,0.5-0.6,1-0.8,1.5v7.2
			H611.6z"/>
		<path class="st2" d="M629.7,558.8c0-1.1,0.2-2.2,0.7-3.1c0.5-0.9,1.1-1.6,1.9-2.1c0.8-0.5,1.7-0.7,2.8-0.7c1.1,0,2,0.2,2.8,0.7
			c0.8,0.5,1.4,1.2,1.9,2.1c0.5,0.9,0.7,1.9,0.7,3.1v0.4c0,1.1-0.2,2.2-0.7,3.1c-0.5,0.9-1.1,1.6-1.9,2.1c-0.8,0.5-1.7,0.7-2.8,0.7
			c-1,0-2-0.2-2.8-0.7c-0.8-0.5-1.5-1.2-1.9-2.1c-0.5-0.9-0.7-1.9-0.7-3.1V558.8z M631.7,559.2c0,1.3,0.3,2.4,0.9,3.2
			s1.5,1.2,2.5,1.2c1.1,0,1.9-0.4,2.5-1.2s0.9-1.9,0.9-3.2v-0.4c0-1.3-0.3-2.4-0.9-3.2c-0.6-0.8-1.5-1.2-2.5-1.2
			c-1.1,0-1.9,0.4-2.5,1.2c-0.6,0.8-0.9,1.9-0.9,3.2V559.2z"/>
		<path class="st2" d="M642.7,564.7v-16.1h1.8v6.3c0.4-0.6,1-1.1,1.6-1.5c0.7-0.4,1.3-0.6,2.1-0.6c1,0,1.8,0.2,2.6,0.7
			c0.8,0.5,1.4,1.2,1.8,2.1c0.4,0.9,0.7,2,0.7,3.2c0,1.2-0.2,2.3-0.7,3.2s-1,1.6-1.8,2.1c-0.8,0.5-1.6,0.7-2.6,0.7
			c-0.8,0-1.5-0.2-2.1-0.6c-0.7-0.4-1.2-0.9-1.6-1.5l-0.1,1.8H642.7z M644.6,560.9c0.3,0.8,0.8,1.4,1.4,1.9c0.6,0.5,1.3,0.8,2,0.8
			c0.6,0,1.2-0.2,1.7-0.6s0.9-0.9,1.2-1.6c0.3-0.7,0.4-1.5,0.4-2.4c0-0.9-0.2-1.7-0.5-2.4c-0.3-0.7-0.7-1.2-1.2-1.6
			s-1.1-0.6-1.7-0.6c-0.7,0-1.4,0.3-2,0.8s-1.1,1.2-1.4,1.9V560.9z"/>
		<path class="st2" d="M657.4,551.4h-1.8V549h1.8V551.4z M657.4,564.7h-1.8v-11.5h1.8V564.7z"/>
		<path class="st2" d="M662.2,564.7h-1.8v-16.1h1.8V564.7z"/>
		<path class="st2" d="M667.1,551.4h-1.8V549h1.8V551.4z M667.1,564.7h-1.8v-11.5h1.8V564.7z"/>
		<path class="st2" d="M671.3,554.8h-2.5v-1.5h2.5v-3.5h1.8v3.5h2.5v1.5h-2.5v10h-1.8V554.8z"/>
		<path class="st2" d="M680.9,564.7l-4.5-11.4h2l3.5,9.2l3.5-9.2h1.9l-6.4,16.1h-2L680.9,564.7z"/>
		<path class="st2" d="M690,564.7h-2.4V562h2.4V564.7z"/>
	</g>
</g>
</svg>
