<?xml version="1.0" standalone="no"?><!DOCTYPE svg PUBLIC "-//W3C//DTD SVG 1.1//EN" "http://www.w3.org/Graphics/SVG/1.1/DTD/svg11.dtd"><svg xmlns="http://www.w3.org/2000/svg" version="1.1" width="199.3px" height="23.3px" viewBox="0 -2 199.3 23.3" style="top:-2px"><desc>한국 및 베트남 대학생 육성 (단위: 명)</desc><defs/><g id="Polygon117526"><path d="m6 1.6v.8H.5v-.8h2.2V.5h1.1v1.1h2.2zm1.7 1.9h1.3v.9H7.7v3.1h-1V.6h1v2.9zM5.5 4.6c0 .3-.1.5-.2.7c-.1.2-.2.4-.4.6c-.2.1-.5.3-.7.3c-.3.1-.6.2-1 .2c-.3 0-.6-.1-.9-.2c-.2 0-.5-.2-.7-.3c-.2-.2-.3-.4-.4-.6c-.1-.2-.2-.4-.2-.7c0-.2.1-.5.2-.7c.1-.2.2-.4.4-.5c.2-.2.5-.3.7-.4c.3-.1.6-.1.9-.1c.4 0 .7 0 1 .1c.2.1.5.2.7.4c.2.1.3.3.4.5c.1.2.2.5.2.7zM2 4.6c0 .3.1.5.4.7c.2.2.5.2.8.2c.4 0 .7 0 .9-.2c.3-.2.4-.4.4-.7c0-.3-.1-.5-.4-.7c-.2-.1-.5-.2-.9-.2c-.3 0-.6.1-.8.2c-.3.2-.4.4-.4.7zm.9 2.3v1.8h5.2v.9H1.9V6.9h1zM18 5.1h-3.6v1.5h2.6v3.2h-1V7.4h-5.5v-.8h2.8V5.1H9.7v-.9h6c.2-.5.2-.9.2-1.3c.1-.4.1-.8.1-1.1c-.03.02-5.3 0-5.3 0v-.8h6.3v1.8c0 .4-.1.9-.2 1.4h1.2v.9zM28.5.5v5.3h-1V.5h1zm-2.7.6v3.8h-4.4V1.1h4.4zm-1 3V2h-2.3v2.1h2.3zm3.9 3.1s-2.61-.02-2.6 0c0 .2.1.4.3.6c.1.1.3.3.6.5c.2.1.5.3.9.4c.3.1.7.2 1.2.2l-.4.8c-.7 0-1.4-.2-1.9-.5c-.6-.3-1-.6-1.2-1c-.3.4-.8.7-1.3 1c-.6.3-1.2.5-1.9.5l-.4-.8c.4 0 .8-.1 1.2-.2c.4-.1.7-.2.9-.4c.3-.2.5-.3.7-.5c.1-.2.2-.4.2-.6c.01-.02-2.6 0-2.6 0v-.8h2.6v-.9h1.1v.9h2.6v.8zM39.1.6h1v9.2h-1V.6zM37.2 4V.7h1v8.6h-1V4.9h-1.1v2.6h-3.6V1.4h1v2.2h1.6V1.4h1v2.6h1.1zm-2.1 2.7V4.4h-1.6v2.3h1.6zm13.7-1.3v.9h-6.4v-5h6.3v.8h-5.2v1.2h5v.9h-5v1.2h5.3zm-7.4 2.4h8.4v.8h-8.4v-.8zm17.7-5.2v.9h-1.3v2.3h-1.1V.6h1.1v2h1.3zm-3.2 1.3l.1.9l-2.2.3c-.7 0-1.4.1-2.1.1c.03-.05-.7 0-.7 0V1h1s.04 3.28 0 3.3c.7 0 1.3-.1 1.9-.1l2-.3zm-4 5.7V6.2h5.9v3.4h-5.9zm1-2.5v1.7h3.8V7.1h-3.8zM68.7.5h1v9.3h-1V5h-1.1v4.3h-1V.7h1v3.5h1.1V.5zm-5.5 2s-.02 4.2 0 4.2c.5 0 1 0 1.4-.1c.5 0 .9-.1 1.4-.2l.1.9c-.3.1-.5.1-.8.1c-.3.1-.5.1-.8.1c-.3 0-.5.1-.8.1h-.9c-.04-.03-.7 0-.7 0v-6h3.5v.9h-2.4zm13.3-1.1v.9H71v-.9h2.2v-.9h1.1v.9h2.2zm3 1.6v.9h-1.3v2.4h-1V.6h1v2.4h1.3zM76 4.4c0 .2-.1.4-.2.6c-.1.3-.2.4-.4.6c-.2.1-.5.2-.7.3c-.3.1-.6.1-1 .1c-.3 0-.6 0-.9-.1c-.2-.1-.5-.2-.7-.3c-.2-.2-.3-.3-.4-.6c-.1-.2-.2-.4-.2-.6c0-.3.1-.5.2-.7c.1-.2.2-.4.4-.6c.2-.1.5-.2.7-.3c.3-.1.6-.1.9-.1c.4 0 .7 0 1 .1c.2.1.5.2.7.3c.2.2.3.4.4.6c.1.2.2.4.2.7zm-3.5 0c0 .2.1.5.4.6c.2.2.5.2.8.2c.4 0 .7 0 .9-.2c.3-.1.4-.4.4-.6c0-.3-.1-.5-.4-.7c-.2-.1-.5-.2-.9-.2c-.3 0-.6.1-.8.2c-.3.2-.4.4-.4.7zm-.3 3.2v-.8h6v3h-1V7.6h-5zM86 3.8v2.1h-1V.7h1v2.2h1V.6h1v5.6h-1V3.8h-1zm-1.2 1l-.5.8c-.4-.2-.8-.4-1.1-.7c-.3-.3-.5-.6-.7-1c-.1.4-.4.8-.7 1.1c-.3.4-.6.6-1.1.8l-.5-.8c.3-.1.5-.3.8-.5c.2-.2.4-.4.5-.7c.2-.2.3-.5.4-.7c.1-.3.1-.6.1-.8V1.1h1s.03 1.17 0 1.2c0 .2.1.5.1.7c.1.3.2.5.4.7c.1.2.3.4.5.6c.3.2.5.4.8.5zm.1 1.6c.5 0 .9 0 1.3.1c.4.1.7.2 1 .3c.3.2.5.4.6.6c.2.2.2.4.2.7c0 .2 0 .5-.2.7c-.1.2-.3.4-.6.5c-.3.2-.6.3-1 .3c-.4.1-.8.2-1.3.2c-.5 0-.9-.1-1.3-.2c-.4 0-.7-.1-1-.3c-.2-.1-.4-.3-.6-.5c-.1-.2-.2-.5-.2-.7c0-.3.1-.5.2-.7l.6-.6c.3-.1.6-.2 1-.3c.4-.1.8-.1 1.3-.1zm0 2.6c.7 0 1.2-.1 1.6-.3c.3-.1.5-.3.5-.6c0-.3-.2-.5-.5-.7c-.4-.1-.9-.2-1.6-.2c-.6 0-1.1.1-1.5.2c-.4.2-.5.4-.5.7c0 .3.1.5.5.6c.4.2.9.3 1.5.3zm10.7-4.7c-.5 0-.9 0-1.3-.1c-.4-.1-.8-.2-1.1-.3c-.3-.2-.5-.4-.6-.6c-.2-.2-.3-.5-.3-.8c0-.2.1-.5.3-.7c.1-.2.3-.4.6-.6c.3-.1.7-.2 1.1-.3c.4-.1.8-.1 1.3-.1c.5 0 1 0 1.4.1c.4.1.7.2 1 .3c.3.2.5.4.7.6c.1.2.2.5.2.7c0 .3-.1.6-.2.8c-.2.2-.4.4-.7.6c-.3.1-.6.2-1 .3c-.4.1-.9.1-1.4.1zm0-2.7c-.7 0-1.2.1-1.6.2c-.4.2-.6.4-.6.7c0 .3.2.6.6.7c.4.2.9.3 1.6.3c.7 0 1.3-.1 1.6-.3c.4-.1.6-.4.6-.7c0-.3-.2-.5-.6-.7c-.3-.1-.9-.2-1.6-.2zm4.2 4.2h-2.1v1h1.1v3h-1.1V7.6h-5.3v-.8h1.1v-1h-2.1v-.9h8.4v.9zm-3.2 1v-1h-2v1h2zm10.6-.8V3.2h-1.8v-.8h1.8V.5h1.1v5.5h-1.1zm-1.1-1.2l-.6.8c-.4-.2-.9-.4-1.2-.8c-.4-.3-.7-.7-.9-1.1c-.2.5-.5.9-.8 1.3c-.4.4-.9.7-1.4.9l-.6-.9c.4-.1.7-.3 1-.5c.3-.2.5-.4.7-.7c.2-.3.3-.6.4-.9c.1-.3.2-.6.2-1c-.01.05 0-.9 0-.9h1s.05.9 0 .9c0 .3.1.6.2.9c.1.3.2.6.4.8c.2.3.4.5.7.7c.3.2.6.4.9.5zm-.9 1.4c.5 0 .9.1 1.3.1c.4.1.7.2 1 .4c.3.1.5.3.6.6c.1.2.2.4.2.7c0 .3-.1.5-.2.7c-.1.3-.3.4-.6.6c-.3.2-.6.3-1 .3c-.4.1-.8.2-1.3.2c-.5 0-.9-.1-1.3-.2c-.4 0-.7-.1-1-.3c-.2-.2-.4-.3-.6-.6c-.1-.2-.2-.4-.2-.7c0-.3.1-.5.2-.7c.2-.3.4-.5.6-.6c.3-.2.6-.3 1-.4c.4 0 .8-.1 1.3-.1zm0 2.7c.7 0 1.2 0 1.5-.2c.4-.2.6-.4.6-.7c0-.3-.2-.5-.6-.7c-.3-.2-.8-.2-1.5-.2c-.7 0-1.2 0-1.5.2c-.4.2-.5.4-.5.7c0 .3.1.5.5.7c.3.2.8.2 1.5.2zm9.3 1.2l-.7.4c-.5-.8-.9-1.6-1.1-2.5c-.3-.8-.4-1.8-.4-2.8c0-1 .1-1.9.4-2.8c.2-.8.6-1.6 1.1-2.4l.7.3c-.4.8-.8 1.6-1 2.4c-.2.8-.3 1.6-.3 2.5c0 .9.1 1.8.3 2.6c.2.8.6 1.6 1 2.3zm8-6.9h1.3v.8h-1.3v3.2h-1V.5h1v2.7zm-1.9 1.3l.1.8c-.3.1-.6.1-.9.2c-.3 0-.6.1-.9.1h-2.5c.04.04-.7 0-.7 0V1.3h4.1v.9h-3.1s.05 2.57 0 2.6h1.2c.4 0 .7-.1 1-.1c.3 0 .6 0 .9-.1c.2 0 .5-.1.8-.1zm-2.9 2v2.2h5.2v.9h-6.2V6.5h1zM131.1.6h1v9.2h-1V.6zm-3.6 4.2c-.3 0-.7 0-1-.1c-.2-.1-.5-.3-.7-.4c-.2-.2-.4-.4-.5-.6c-.1-.3-.2-.5-.2-.8c0-.3.1-.6.2-.8c.1-.2.3-.4.5-.6c.2-.2.5-.3.7-.4c.3-.1.7-.2 1-.2c.3 0 .7.1 1 .2c.2.1.5.2.7.4c.2.2.4.4.5.6c.1.2.2.5.2.8c0 .3-.1.5-.2.8c-.1.2-.3.4-.5.6c-.2.1-.5.3-.7.4c-.3.1-.7.1-1 .1zm0-3c-.4 0-.7.1-1 .3c-.2.2-.4.5-.4.8c0 .3.2.6.4.8c.3.2.6.2 1 .2c.4 0 .7 0 1-.2c.2-.2.4-.5.4-.8c0-.3-.2-.6-.4-.8c-.3-.2-.6-.3-1-.3zm3 3.4v.7c-.4.1-.8.2-1.2.2c-.4.1-.8.1-1.2.2c-.03-.05 0 3.2 0 3.2H127s.02-3.19 0-3.2h-1.2c-.4.1-.8.1-1.2.1l-.1-.9h1.4c.4 0 .9 0 1.5-.1c.5 0 1 0 1.5-.1c.6 0 1.1-.1 1.6-.1zm4.6-2.3v1.3h-1.2V2.9h1.2zm0 4.2v1.3h-1.2V7.1h1.2zm7.8-2.4v.7h-4.3V1.2h4.3v.8h1.9V.6h1.1v5.4h-1.1V4.7h-1.9zm-1-.2V2.1h-2.2v2.4h2.2zm2.9-1.7h-1.9v1h1.9v-1zm-2 3.4c.5 0 .9.1 1.3.1c.4.1.7.2 1 .4c.2.1.4.3.6.6c.1.2.2.4.2.7c0 .3-.1.5-.2.7c-.2.3-.4.4-.6.6c-.3.2-.6.3-1 .3c-.4.1-.8.2-1.3.2c-.5 0-.9-.1-1.3-.2c-.4 0-.7-.1-1-.3c-.2-.2-.5-.3-.6-.6c-.1-.2-.2-.4-.2-.7c0-.3.1-.5.2-.7c.1-.3.4-.5.6-.6c.3-.2.6-.3 1-.4c.4 0 .8-.1 1.3-.1zm0 2.7c.6 0 1.2 0 1.5-.2c.4-.2.5-.4.5-.7c0-.3-.1-.5-.5-.7c-.3-.2-.9-.2-1.5-.2c-.7 0-1.2 0-1.5.2c-.4.2-.6.4-.6.7c0 .3.2.5.6.7c.3.2.8.2 1.5.2zm5.3 1.6l-.8-.4c.5-.7.8-1.5 1-2.3c.2-.8.3-1.7.3-2.6c0-.9-.1-1.7-.3-2.5c-.2-.8-.5-1.6-1-2.4l.8-.3c.5.8.8 1.6 1.1 2.4c.3.9.4 1.8.4 2.8c0 1-.1 2-.4 2.8c-.3.9-.6 1.7-1.1 2.5z" stroke="none" fill="#949596"/></g></svg>