<?xml version="1.0" standalone="no"?><!DOCTYPE svg PUBLIC "-//W3C//DTD SVG 1.1//EN" "http://www.w3.org/Graphics/SVG/1.1/DTD/svg11.dtd"><svg xmlns="http://www.w3.org/2000/svg" version="1.1" width="162px" height="19.6px" viewBox="0 -2 162 19.6" style="top:-2px"><desc>키즈오토파크</desc><defs/><g id="Polygon107924"><path d="m8.1.5h1.6v11.1H8.1V.5zM1.3 1.6h5.2c0 .9-.1 1.7-.2 2.5c-.1.7-.4 1.5-.8 2.2c-.3.7-.9 1.4-1.5 2c-.7.6-1.5 1.2-2.6 1.7L.6 8.7c.9-.4 1.7-.9 2.2-1.4c.6-.5 1.1-1.1 1.4-1.7c-.01-.02-3.3.3-3.3.3L.7 4.5s3.99-.18 4-.2c0-.2.1-.4.1-.7c.1-.2.1-.5.1-.7c.03-.04-3.6 0-3.6 0V1.6zm11.2 5.8l-.6-1.3c.6-.1 1.1-.2 1.6-.4c.5-.3.9-.5 1.2-.8c.3-.4.5-.7.7-1.1c.2-.3.2-.7.2-1.1c.05.02-3.3 0-3.3 0V1.5h8.4v1.2s-3.37.02-3.4 0c0 .4.1.8.3 1.1c.1.4.4.7.7 1c.3.3.7.6 1.2.8c.5.2 1 .4 1.6.5l-.6 1.2c-1-.1-1.8-.4-2.5-.9c-.6-.4-1.1-1-1.5-1.6c-.4.6-.9 1.2-1.5 1.6c-.7.5-1.5.8-2.5 1zm-1 1.6h10v1.3h-10V9zm16.8 0h4.2v1.3h-10V9h4.2s-.02-1.85 0-1.8c-.5-.1-1-.2-1.4-.4c-.4-.2-.7-.4-1-.6c-.3-.3-.5-.6-.7-.9c-.2-.4-.2-.7-.2-1.1c0-.5.1-.9.3-1.3c.2-.4.5-.7.8-1c.4-.2.8-.4 1.3-.6c.5-.1 1.1-.2 1.7-.2c.6 0 1.1.1 1.6.2c.5.2 1 .4 1.3.6c.4.3.7.6.9 1c.2.4.3.8.3 1.3c0 .4-.1.7-.3 1.1c-.1.3-.3.6-.6.9c-.3.2-.7.4-1.1.6c-.4.2-.9.3-1.3.4c-.04-.05 0 1.8 0 1.8zm-3.4-4.8c0 .2.1.5.2.7c.1.2.3.4.5.6c.2.1.5.2.8.3c.3.1.7.1 1.1.1c.4 0 .7 0 1-.1c.3-.1.6-.2.8-.3c.2-.2.4-.4.5-.6c.2-.2.2-.5.2-.7c0-.3 0-.6-.2-.8c-.1-.2-.3-.4-.5-.6c-.2-.1-.5-.2-.8-.3c-.3-.1-.6-.1-1-.1c-.4 0-.8 0-1.1.1c-.3.1-.6.2-.8.3c-.2.2-.4.4-.5.6c-.1.2-.2.5-.2.8zm14.4 4.9h4.2v1.3h-10V9.1h4.2V7.3h-3.1v-6h7.7v1.3h-6.1v1h5.9v1.3h-5.9v1.1h6.2v1.3h-3.1v1.8zm15.4-4.4v1.3h-1.6v5.6h-1.6v-11h1.6v4.1h1.6zm-5-1.9s.03 4.8 0 4.8c.2 0 .5 0 .7-.1h.6l.1 1.1l-1.7.3c-.6 0-1.2.1-1.8.1c-.5 0-1.1 0-1.6.1h-1.5c-.04-.03-.2-1.3-.2-1.3h1.2v-5h-.9V1.6h6.1v1.2h-1zm-2.6 0s-.04 4.94 0 4.9h1.1V2.8h-1.1zm9.1 2s6.62-.25 6.6-.3v-.9c.04.05 0-.8 0-.8h-6.3V1.5h7.9v2.5c0 .4 0 .8-.1 1.3c0 .4 0 .9-.1 1.4c-.1.5-.2 1-.3 1.6l-1.6-.1c.1-.5.2-.9.3-1.3c0-.4.1-.8.1-1.2c.04.02-6.3.3-6.3.3l-.2-1.2zM55.4 9h10v1.3h-10V9z" stroke="none" fill="#fff"/></g></svg>