<?xml version="1.0" standalone="no"?><!DOCTYPE svg PUBLIC "-//W3C//DTD SVG 1.1//EN" "http://www.w3.org/Graphics/SVG/1.1/DTD/svg11.dtd"><svg xmlns="http://www.w3.org/2000/svg" version="1.1" width="162px" height="19.6px" viewBox="0 -2 162 19.6" style="top:-2px"><desc>군인의 품격</desc><defs/><g id="Polygon108068"><path d="m9.1 5.2h1.4v1.3H6.4v2.3H4.8V6.5H.5V5.2h7c.2-.6.2-1.1.3-1.6V2.3c0 .02-6 0-6 0V1h7.6s-.04 1.02 0 1c0 .5-.1 1-.1 1.5c0 .5-.1 1-.2 1.7zM3.3 7.8v2.3h6.2v1.3H1.7V7.8h1.6zM20.7.6v7.9h-1.6V.6h1.6zm-3 3.5c0 .4-.1.7-.3 1.1c-.1.3-.3.6-.6.9c-.3.2-.6.4-1 .5c-.3.2-.7.3-1.1.3c-.5 0-.9-.1-1.2-.3c-.4-.1-.7-.3-1-.5c-.2-.3-.5-.6-.6-.9c-.2-.4-.2-.7-.2-1.1c0-.5 0-.8.2-1.2c.1-.3.4-.6.6-.9c.3-.2.6-.4 1-.5c.3-.2.7-.3 1.2-.3c.4 0 .8.1 1.1.3c.4.1.7.3 1 .5c.3.3.5.6.6.9c.2.4.3.7.3 1.2zm-4.5 0c0 .4.1.8.4 1c.3.3.7.4 1.1.4c.4 0 .7-.1 1-.4c.3-.2.4-.6.4-1c0-.5-.1-.9-.4-1.1c-.3-.3-.6-.4-1-.4c-.4 0-.8.1-1.1.4c-.3.2-.4.6-.4 1.1zm1.7 6h6.1v1.3h-7.7V7.7h1.6v2.4zM30.1.5h1.6v11.1h-1.6V.5zm-4.1.8c.5 0 .9 0 1.2.2c.4.1.7.3 1 .5c.3.3.5.6.6.9c.2.3.3.7.3 1.1c0 .4-.1.8-.3 1.1c-.1.3-.3.6-.6.9c-.3.2-.6.4-1 .5c-.3.2-.7.2-1.2.2c-.4 0-.8 0-1.2-.2c-.4-.1-.7-.3-.9-.5c-.3-.3-.5-.6-.7-.9c-.1-.3-.2-.7-.2-1.1c0-.4.1-.8.2-1.1c.2-.3.4-.6.7-.9c.2-.2.5-.4.9-.5c.4-.2.8-.2 1.2-.2zm0 1.3c-.4 0-.8.1-1 .4c-.3.2-.5.6-.5 1c0 .4.2.8.5 1c.2.2.6.4 1 .4c.5 0 .8-.2 1.1-.4c.3-.2.4-.6.4-1c0-.4-.1-.8-.4-1c-.3-.3-.6-.4-1.1-.4zm-3.3 6.8l-.2-1.3h1.6c.6 0 1.2 0 1.8-.1c.6 0 1.2 0 1.8-.1c.6 0 1.2-.1 1.8-.2l.1 1.2l-1.8.3c-.6 0-1.2.1-1.8.1c-.6 0-1.2.1-1.7.1h-1.6zm15.7-5.6V2.1H37V.8h8.2v1.3h-1.4v1.7h1.3v1.2h-8V3.8h1.3zm3.8 0V2.1H40v1.7h2.2zM46.1 7h-4.2v.9h3v3.6h-7.6V7.9h3v-.9h-4.2V5.7h10v1.3zm-2.7 3.2V9.1h-4.6v1.1h4.6zM54.8.5l1.5.1v6.5h-1.5V5.9h-2.5V4.7h2.5V3.6h-2.3c-.8 1.7-2.3 2.9-4.7 3.5l-.6-1.2c1.3-.4 2.2-.8 2.9-1.4c.7-.6 1-1.3 1.2-2h-3.5V1.2s5.17.04 5.2 0c0 .2 0 .4-.1.6v.5c-.03.02 1.9 0 1.9 0V.5zm-6 8.3V7.6h7.5v3.9h-1.5V8.8h-6z" stroke="none" fill="#fff"/></g></svg>