<?xml version="1.0" standalone="no"?><!DOCTYPE svg PUBLIC "-//W3C//DTD SVG 1.1//EN" "http://www.w3.org/Graphics/SVG/1.1/DTD/svg11.dtd"><svg xmlns="http://www.w3.org/2000/svg" version="1.1" width="414.3px" height="26.8px" viewBox="0 -3 414.3 26.8" style="top:-3px"><desc>키즈오토파크</desc><defs/><g id="Polygon117737"><path d="m11.8.9h1.7v15.4h-1.7V.9zM2 2.4s7.1.05 7.1 0c0 1.2-.1 2.3-.3 3.4c-.2 1-.6 2.1-1.1 3c-.6 1-1.3 1.9-2.2 2.8c-.9.8-2.1 1.6-3.5 2.3l-.9-1.4c1.3-.7 2.5-1.4 3.3-2.2c.8-.8 1.5-1.7 2-2.6c-.02-.02-5 .4-5 .4l-.2-1.5s5.72-.33 5.7-.3c.2-.7.4-1.4.4-2.4c.04-.02-5.3 0-5.3 0V2.4zm15.7 8L17 9c.8-.1 1.5-.3 2.1-.6c.7-.3 1.3-.7 1.8-1.1c.4-.5.8-1 1.1-1.5c.3-.5.4-1.1.4-1.7c.04.01 0-.3 0-.3h-4.8V2.3h11.6v1.5h-4.9s-.02.31 0 .3c0 .6.1 1.1.4 1.7c.3.5.7 1 1.2 1.4c.5.5 1.1.8 1.7 1.1c.7.3 1.4.5 2.2.7l-.7 1.4c-1.4-.3-2.5-.8-3.5-1.4c-.9-.6-1.7-1.5-2.2-2.5c-.6 1-1.3 1.9-2.3 2.5c-1 .7-2.1 1.2-3.4 1.4zm-1.3 2.5h13.9v1.4H16.4v-1.4zm23.4.1h6.1v1.4H32V13h6s.03-2.99 0-3c-.7-.1-1.3-.2-1.9-.4c-.6-.2-1.1-.5-1.5-.9c-.4-.3-.8-.7-1-1.2c-.2-.5-.3-1-.3-1.6c0-.6.1-1.2.4-1.7c.3-.5.7-.9 1.2-1.3c.5-.3 1.1-.6 1.8-.8c.6-.2 1.4-.3 2.2-.3c.8 0 1.6.1 2.3.3c.7.2 1.2.5 1.8.8c.5.4.8.8 1.1 1.3c.3.5.5 1.1.5 1.7c0 .6-.2 1.1-.4 1.6c-.2.5-.6.9-1 1.2c-.4.4-.9.7-1.5.9c-.6.2-1.2.4-1.9.4c-.02.03 0 3 0 3zM35 5.9c0 .5.1.8.3 1.2c.2.3.4.6.8.8c.3.3.7.4 1.2.6c.5.1 1 .2 1.6.2c.6 0 1.1-.1 1.6-.2c.5-.2.9-.3 1.2-.6c.4-.2.7-.5.9-.8c.1-.4.2-.7.2-1.2c0-.4-.1-.8-.2-1.1c-.2-.3-.5-.6-.9-.9c-.3-.2-.7-.4-1.2-.5c-.5-.1-1-.2-1.6-.2c-.6 0-1.1.1-1.6.2c-.5.1-.9.3-1.2.5c-.4.3-.6.6-.8.9c-.2.3-.3.7-.3 1.1zM55.4 13h6v1.5H47.5V13h6.1v-2.9h-4.4v-8h10.6v1.4H51v1.9h8.4v1.3H51v2h8.9v1.4h-4.5v2.9zm22-6.1v1.5H75v7.9h-1.8V.9h1.8v6h2.4zm-7.1-3s-.02 7.05 0 7c.3 0 .7 0 1-.1c.4 0 .7 0 1.1-.1l.1 1.3c-.8.2-1.6.3-2.4.3c-.9.1-1.7.2-2.5.2c-.8 0-1.6.1-2.4.1h-2.1l-.2-1.4h1.9V3.9h-1.5V2.5h8.5v1.4h-1.5zm-3.8 0s-.01 7.22 0 7.2h1c.4 0 .7 0 1.1-.1c-.02.03 0-7.1 0-7.1h-2.1zM79.8 7l9.4-.4V5.4c.03.01 0-1.6 0-1.6h-8.9V2.4h10.6s.05 1.83 0 1.8v3.4c-.1.6-.1 1.3-.2 2c-.1.7-.3 1.4-.4 2.2l-1.8-.2c.2-.6.3-1.3.4-1.9c.1-.6.2-1.2.2-1.8c.01.04-9 .5-9 .5L79.8 7zm-1.2 5.8h13.9v1.5H78.6v-1.5z" stroke="none" fill="#111111"/></g></svg>