<?xml version="1.0" standalone="no"?><!DOCTYPE svg PUBLIC "-//W3C//DTD SVG 1.1//EN" "http://www.w3.org/Graphics/SVG/1.1/DTD/svg11.dtd"><svg xmlns="http://www.w3.org/2000/svg" version="1.1" width="409.3px" height="26.8px" viewBox="0 -3 409.3 26.8" style="top:-3px"><desc>대학생 교육봉사단 H 점프스쿨</desc><defs/><g id="Polygon116819"><path d="m12.3.9h1.7v15.4h-1.7V8.4h-1.8v7.1H8.8V1.2h1.7v5.8h1.8V.9zM3.1 4.2v7c.9 0 1.7-.1 2.4-.1c.8-.1 1.5-.2 2.3-.4l.2 1.5c-.5.1-.9.2-1.4.2c-.4.1-.8.1-1.3.1c-.4.1-.9.1-1.4.1H1.4V2.7h5.7v1.5h-4zm22.4-1.8v1.4h-9.1V2.4h3.7V.8h1.7v1.6h3.7zM30.6 5v1.5h-2.2v4h-1.7V.9h1.7v4.1h2.2zm-5.9 2.3c0 .4-.1.8-.3 1.1c-.2.4-.4.6-.8.9c-.3.2-.7.4-1.1.6c-.5.1-1 .2-1.5.2c-.6 0-1.1-.1-1.6-.2c-.4-.2-.8-.4-1.1-.6c-.4-.3-.6-.5-.8-.9c-.2-.3-.3-.7-.3-1.1c0-.4.1-.8.3-1.2c.2-.3.4-.6.8-.9c.3-.2.7-.4 1.1-.5c.5-.2 1-.2 1.6-.2c.5 0 1 0 1.5.2c.4.1.8.3 1.1.5c.4.3.6.6.8.9c.2.4.3.8.3 1.2zm-5.8 0c0 .4.2.8.6 1c.4.3.8.4 1.5.4c.6 0 1.1-.1 1.4-.4c.4-.2.6-.6.6-1c0-.5-.2-.9-.6-1.1c-.3-.3-.8-.4-1.4-.4c-.7 0-1.1.1-1.5.4c-.4.2-.6.6-.6 1.1zm-.6 5.4v-1.4h10.1v5h-1.7v-3.6h-8.4zm23.4-6.4v3.6H40V1.2h1.7v3.7h1.6v-4h1.7v9.5h-1.7V6.3h-1.6zm-2 1.7l-1 1.3c-.6-.3-1.2-.7-1.7-1.2c-.5-.4-.9-1-1.1-1.6c-.3.7-.7 1.3-1.2 1.9c-.5.6-1.1 1-1.9 1.3l-.9-1.3c.5-.2 1-.5 1.3-.9c.4-.3.8-.7 1-1.1c.3-.4.5-.8.6-1.3c.1-.4.2-.9.2-1.3V1.9h1.7v1.9c0 .4 0 .8.2 1.2c.1.5.3.8.5 1.2c.3.4.6.7 1 1c.3.3.8.6 1.3.8zm.1 2.6c.9 0 1.6.1 2.2.2c.7.2 1.2.4 1.6.6c.5.2.8.5 1.1.9c.2.3.3.7.3 1.2c0 .4-.1.8-.3 1.1c-.3.4-.6.7-1.1.9c-.4.3-.9.4-1.6.6c-.6.1-1.3.2-2.2.2c-.7 0-1.5-.1-2.1-.2c-.7-.2-1.2-.3-1.7-.6c-.4-.2-.7-.5-1-.9c-.2-.3-.4-.7-.4-1.1c0-.5.2-.9.4-1.2c.3-.4.6-.7 1-.9c.5-.2 1-.4 1.7-.6c.6-.1 1.4-.2 2.1-.2zm0 4.3c1.1 0 2-.1 2.6-.3c.6-.3.9-.7.9-1.1c0-.5-.3-.9-.9-1.1c-.6-.3-1.5-.4-2.6-.4c-1.1 0-1.9.1-2.5.4c-.6.2-.9.6-.9 1.1c0 .4.3.8.9 1.1c.6.2 1.4.3 2.5.3zM61.9 4c.03-.04 0-.2 0-.2h-9.3V2.3h11.1s-.02 1.66 0 1.7v1.4c0 .6-.1 1.1-.1 1.6c0 .6-.1 1.2-.1 1.8c-.1.7-.2 1.4-.4 2.1l-1.7-.2c.3-1.4.4-2.6.5-3.7v-3zM60 12.8h5.1v1.5H51.3v-1.5h3.2V7.9h1.7v4.9h2V7.9h1.8v4.9zm13.7-5.6c-.8 0-1.5-.1-2.2-.2c-.7-.1-1.3-.3-1.7-.6c-.5-.2-.9-.5-1.1-.9c-.3-.4-.4-.8-.4-1.3c0-.4.1-.8.4-1.2c.2-.4.6-.7 1.1-1c.4-.2 1-.4 1.7-.5c.7-.2 1.4-.2 2.2-.2c.9 0 1.6 0 2.3.2c.7.1 1.3.3 1.7.5c.5.3.9.6 1.1 1c.3.4.4.8.4 1.2c0 .5-.1.9-.4 1.3c-.2.4-.6.7-1.1.9c-.4.3-1 .5-1.7.6c-.7.1-1.4.2-2.3.2zm0-4.6c-1.1 0-2 .2-2.7.4c-.6.3-.9.7-.9 1.2c0 .5.3.9.9 1.2c.7.3 1.6.4 2.7.4c1.2 0 2.1-.1 2.7-.4c.7-.3 1-.7 1-1.2c0-.5-.3-.9-1-1.2c-.6-.2-1.5-.4-2.7-.4zm7 7h-3.5v1.7h1.8v5h-1.8v-3.6h-8.9v-1.4h2V9.6h-3.5V8.2h13.9v1.4zm-5.3 1.7V9.6H72v1.7h3.4zm14.8-2.8h6.1v1.4h-14V8.5h6.1V7.1h-4.3V1.3h1.8v1.6h6.8V1.3h1.8v5.8h-4.3v1.4zm-4.3-4.3v1.5h6.8V4.2h-6.8zm3.4 6.7c1.7 0 3 .2 3.9.7c.9.4 1.4 1.1 1.4 2c0 .9-.5 1.5-1.4 2c-.9.4-2.2.7-3.9.7c-1.7 0-3-.3-3.9-.7c-1-.5-1.4-1.1-1.4-2c0-.9.4-1.6 1.4-2c.9-.5 2.2-.7 3.9-.7zm0 4c1.1 0 2-.1 2.6-.3c.6-.2.9-.6.9-1c0-.5-.3-.8-.9-1.1c-.6-.2-1.5-.3-2.6-.3c-1.2 0-2 .1-2.6.3c-.6.3-.9.6-.9 1.1c0 .4.3.8.9 1c.6.2 1.4.3 2.6.3zM112.2 7v1.4h-2.4v7.9h-1.7V.9h1.7v6.1h2.4zm-8.9-4.8s-.01 2.51 0 2.5c0 .7.1 1.4.3 2c.1.7.4 1.3.7 1.9c.3.6.7 1.2 1.2 1.6c.4.5 1 .9 1.5 1.2l-1 1.4c-.9-.5-1.6-1.1-2.2-1.9c-.6-.7-1-1.6-1.4-2.7c-.3 1.1-.8 2-1.4 2.9c-.6.8-1.4 1.5-2.3 1.9l-1.1-1.4c.6-.3 1.2-.7 1.7-1.2c.5-.4.9-1 1.2-1.6c.3-.6.6-1.3.8-2c.1-.7.2-1.4.2-2.1c.04.01 0-2.5 0-2.5h1.8zm22.2 3.1h2.1v1.4h-2.1v5.3h-1.8V.9h1.8v4.4zm-3.2 2.2l.1 1.4c-.5.1-1 .2-1.5.2c-.4.1-1 .2-1.5.2c-.6 0-1.2.1-1.8.1h-3.5V2.2h6.8v1.4h-5s-.05 4.36 0 4.4c.7 0 1.3 0 1.9-.1h1.7c.5-.1.9-.1 1.4-.2c.4-.1.9-.1 1.4-.2zm-4.8 3.4v3.7h8.6v1.4h-10.4v-5.1h1.8zm16 4.1V2.4h2v5.1h5.4V2.4h1.9V15h-1.9V9.3h-5.4v5.7h-2zm11.7-5.6V8h5.8v1.4h-5.8zM163.6.9h1.8v8.9h-1.8V6.1h-2.7V4.6h2.7V.9zm-1.8 7.2l-.9 1.4c-.8-.3-1.6-.8-2.2-1.3c-.6-.6-1.1-1.3-1.4-2c-.3.8-.8 1.5-1.4 2.2c-.7.6-1.5 1.1-2.4 1.4l-.9-1.4c.6-.2 1.2-.5 1.6-.8c.5-.4.9-.7 1.2-1.2c.3-.4.6-.9.7-1.4c.2-.5.3-1 .3-1.5v-.3h-3.2V1.8h8.2v1.4h-3.2s-.03.27 0 .3c0 .4 0 .9.2 1.4c.2.4.4.9.7 1.3c.3.4.7.8 1.1 1.1c.5.3 1 .6 1.6.8zm-6.5 8v-5.6h10.1v5.6h-10.1zm1.7-4.2v2.8h6.6v-2.8H157zm14.6-3.1v-5h-2.3V2.4h11.6v1.4h-2.3v5h2.2v1.4h-11.4V8.8h2.2zm5.3 0v-5h-3.6v5h3.6zm-8.7 4.1h13.9v1.5h-13.9v-1.5zm28.9-4.5l-.8 1.5l-1.8-.6c-.6-.3-1.1-.6-1.6-1c-.5-.3-.9-.7-1.3-1.2c-.4-.4-.7-.9-1-1.5c-.2.6-.5 1.1-.9 1.5c-.4.5-.8.9-1.3 1.2c-.5.4-1.1.7-1.6 1l-1.8.6l-.8-1.5c.8-.1 1.5-.4 2.2-.7c.6-.4 1.2-.8 1.7-1.3c.5-.4.9-1 1.2-1.6c.3-.5.4-1.1.4-1.7c.02-.04 0-1.2 0-1.2h1.9s-.03 1.16 0 1.2c0 .6.1 1.2.4 1.8c.3.5.7 1.1 1.2 1.6c.5.4 1.1.8 1.7 1.2c.7.3 1.4.6 2.2.7zm-13.3 4.5h13.9v1.4h-13.9v-1.4zm29.4-4.6h-6.1v1.3h4.5v3.8h-9v1.3h9.5v1.4h-11.2v-3.9h9V11h-9V9.6h4.5V8.3h-6.1V6.9h10.1c.1-.3.1-.6.2-.8c0-.3 0-.6.1-.8c-.04-.01-8.8.4-8.8.4l-.2-1.4s9.05-.24 9-.2c.1-.2.1-.4.1-.6c-.04-.05 0-.6 0-.6h-8.7V1.5h10.4s-.02 1.24 0 1.2c0 .6 0 1.3-.1 2c0 .6-.1 1.4-.2 2.2h2v1.4z" stroke="none" fill="#111111"/></g></svg>