<?xml version="1.0" standalone="no"?><!DOCTYPE svg PUBLIC "-//W3C//DTD SVG 1.1//EN" "http://www.w3.org/Graphics/SVG/1.1/DTD/svg11.dtd"><svg xmlns="http://www.w3.org/2000/svg" version="1.1" width="199.3px" height="23.3px" viewBox="0 -2 199.3 23.3" style="top:-2px"><desc>유튜브 조회수 (단위: 회)</desc><defs/><g id="Polygon122127"><path d="m4.7 5c-.5 0-1-.1-1.4-.2c-.4-.1-.7-.2-1-.4c-.3-.2-.5-.4-.7-.6c-.1-.3-.2-.6-.2-.9c0-.3.1-.6.2-.8c.2-.3.4-.5.7-.7c.3-.1.6-.3 1-.4c.4-.1.9-.1 1.4-.1c.5 0 .9 0 1.3.1c.4.1.7.3 1 .4c.3.2.5.4.7.7c.2.2.2.5.2.8c0 .3 0 .6-.2.9c-.2.2-.4.4-.7.6c-.3.2-.6.3-1 .4c-.4.1-.8.2-1.3.2zm0-3.3c-.7 0-1.2.1-1.6.4c-.4.2-.6.5-.6.8c0 .4.2.7.6.9c.4.2.9.3 1.6.3c.6 0 1.2-.1 1.6-.3c.4-.2.6-.5.6-.9c0-.2-.1-.3-.2-.5c-.1-.1-.3-.2-.4-.3c-.2-.2-.5-.2-.7-.3c-.3 0-.6-.1-.9-.1zm4.2 4v.9H6.8v3.2H5.7V6.6H3.6v3.2H2.5V6.6h-2v-.9h8.4zm8.2-1.3v.9h-6.3V1h6.2v.8h-5.2v.9h5v.8h-5v.9h5.3zM18 6v.9h-2v2.9h-1.1V6.9h-2.1v2.9h-1V6.9H9.7v-.9h8.3zm1.8-4.8h1.1v1.6h4.3V1.2h1.1v4.8h-6.5V1.2zm1.1 2.4v1.6h4.3V3.6h-4.3zm-2 4.1h8.3v.9h-8.3v-.9zm12-1.7l-.4-.9c.4 0 .9-.2 1.3-.3c.4-.2.7-.5 1-.7c.3-.3.5-.6.7-.9c.2-.3.3-.7.3-1c-.05-.01 0 0 0 0h-3v-.9h7v.9h-2.9s-.05-.01 0 0c0 .3 0 .7.2 1c.2.3.4.6.7.9c.3.2.7.4 1.1.6c.4.2.8.3 1.2.4l-.4.8c-.8-.1-1.5-.4-2-.8c-.6-.4-1.1-.9-1.4-1.5c-.3.6-.8 1.1-1.3 1.5c-.6.4-1.3.7-2.1.9zm3.9 1.8h3.7v.8h-8.4v-.8h3.7V5.6h1v2.2zm11-7.3h1.1v9.3h-1.1V.5zm-.7 1.1v.9h-5.5v-.9h2.2v-1h1.1v1h2.2zm-2.2 4.7v.9c.4 0 .8-.1 1.2-.1c.4 0 .8-.1 1.2-.1l.1.7c-.5.1-1 .2-1.6.2c-.5.1-1 .1-1.5.1c-.5.1-1 .1-1.5.1h-1.3l-.1-.9h2.4v-.9c-.5-.1-.9-.3-1.2-.6c-.3-.2-.5-.6-.5-1.1c0-.2.1-.5.2-.7c.1-.2.2-.4.4-.5c.2-.2.5-.3.7-.4c.3 0 .6-.1 1-.1c.3 0 .6.1.9.1c.2.1.5.2.7.4c.2.1.3.3.4.5c.1.2.2.5.2.7c0 .5-.2.9-.5 1.1c-.3.3-.7.5-1.2.6zm-1.8-1.7c0 .3.1.5.3.7c.3.2.6.2 1 .2c.3 0 .6 0 .8-.2c.3-.2.4-.4.4-.7c0-.3-.1-.5-.4-.6c-.2-.2-.5-.3-.8-.3c-.4 0-.7.1-1 .3c-.2.1-.3.3-.3.6zm15.4-.7l-.4.9c-.8-.1-1.5-.4-2.1-.7c-.6-.4-1-.9-1.3-1.4c-.3.6-.8 1-1.4 1.4c-.6.3-1.2.6-2 .7l-.4-.9c.4 0 .9-.1 1.3-.3c.4-.2.7-.4 1-.6c.3-.2.5-.5.7-.8c.1-.3.2-.6.2-.9v-.5h1.1s.02.54 0 .5c0 .3.1.6.3.9c.1.3.4.6.6.8c.3.2.7.4 1.1.6c.4.2.8.3 1.3.3zm.3 1.8v.8h-3.6v3.3h-1.1V6.5h-3.6v-.8h8.3zm5.6 4.4l-.8.4c-.4-.8-.8-1.6-1.1-2.5c-.2-.8-.4-1.8-.4-2.8c0-1 .2-1.9.4-2.8c.3-.8.7-1.6 1.1-2.4l.8.3c-.5.8-.8 1.6-1 2.4c-.2.8-.3 1.6-.3 2.5c0 .9.1 1.8.3 2.6c.2.8.5 1.6 1 2.3zm8-6.9h1.3v.8h-1.3v3.2h-1.1V.5h1.1v2.7zm-1.9 1.3l.1.8c-.3.1-.6.1-.9.2c-.3 0-.6.1-1 .1h-2.4c0 .04-.7 0-.7 0V1.3h4.1v.9h-3.1v2.6h1.2c.3 0 .7-.1 1-.1c.3 0 .6 0 .8-.1c.3 0 .6-.1.9-.1zm-2.9 2v2.2h5.1v.9h-6.2V6.5h1.1zM78.9.6h1.1v9.2h-1.1V.6zm-3.5 4.2c-.4 0-.7 0-1-.1c-.3-.1-.5-.3-.7-.4c-.3-.2-.4-.4-.5-.6c-.2-.3-.2-.5-.2-.8c0-.3 0-.6.2-.8c.1-.2.2-.4.5-.6c.2-.2.4-.3.7-.4c.3-.1.6-.2 1-.2c.3 0 .6.1.9.2c.3.1.5.2.8.4c.2.2.3.4.5.6c.1.2.1.5.1.8c0 .3 0 .5-.1.8c-.2.2-.3.4-.5.6c-.3.1-.5.3-.8.4c-.3.1-.6.1-.9.1zm0-3c-.5 0-.8.1-1 .3c-.3.2-.4.5-.4.8c0 .3.1.6.4.8c.2.2.5.2 1 .2c.4 0 .7 0 .9-.2c.3-.2.4-.5.4-.8c0-.3-.1-.6-.4-.8c-.2-.2-.5-.3-.9-.3zm2.9 3.4l.1.7c-.4.1-.8.2-1.2.2c-.5.1-.9.1-1.3.2c.03-.05 0 3.2 0 3.2h-1s-.02-3.19 0-3.2h-1.3c-.4.1-.8.1-1.1.1l-.1-.9h1.3c.5 0 1 0 1.5-.1c.5 0 1.1 0 1.6-.1c.5 0 1-.1 1.5-.1zM83 2.9v1.3h-1.2V2.9h1.2zm0 4.2v1.3h-1.2V7.1h1.2zM92.6.5h1.1v9.3h-1.1V.5zm-.7 1.1v.9h-5.6v-.9h2.3v-1h1v1h2.3zm-2.3 4.7v.9c.5 0 .9-.1 1.3-.1c.4 0 .8-.1 1.2-.1l.1.7c-.6.1-1.1.2-1.6.2c-.5.1-1 .1-1.5.1c-.5.1-1 .1-1.5.1h-1.3l-.2-.9h2.5v-.9c-.5-.1-1-.3-1.3-.6c-.3-.2-.4-.6-.4-1.1c0-.2 0-.5.1-.7c.1-.2.3-.4.5-.5c.2-.2.4-.3.7-.4c.3 0 .6-.1.9-.1c.4 0 .7.1.9.1c.3.1.5.2.7.4c.2.1.4.3.5.5c.1.2.2.5.2.7c0 .5-.2.9-.5 1.1c-.3.3-.7.5-1.3.6zm-1.7-1.7c0 .3.1.5.3.7c.2.2.5.2.9.2c.4 0 .7 0 .9-.2c.2-.2.4-.4.4-.7c0-.3-.2-.5-.4-.6c-.2-.2-.5-.3-.9-.3c-.4 0-.7.1-.9.3c-.2.1-.3.3-.3.6zm8 5.9l-.7-.4c.5-.7.8-1.5 1-2.3c.2-.8.3-1.7.3-2.6c0-.9-.1-1.7-.3-2.5c-.2-.8-.5-1.6-1-2.4l.7-.3c.5.8.9 1.6 1.2 2.4c.2.9.4 1.8.4 2.8c0 1-.2 2-.4 2.8c-.3.9-.7 1.7-1.2 2.5z" stroke="none" fill="#949596"/></g></svg>