<?xml version="1.0" standalone="no"?><!DOCTYPE svg PUBLIC "-//W3C//DTD SVG 1.1//EN" "http://www.w3.org/Graphics/SVG/1.1/DTD/svg11.dtd"><svg xmlns="http://www.w3.org/2000/svg" version="1.1" width="414.3px" height="26.8px" viewBox="0 -3 414.3 26.8" style="top:-3px"><desc>대학 연극·뮤지컬 페스티벌</desc><defs/><g id="Polygon109928"><path d="m12.3.9h1.7v15.4h-1.7V8.4h-1.8v7.1H8.8V1.2h1.7v5.8h1.8V.9zM3.1 4.2v7c.9 0 1.7-.1 2.4-.1c.8-.1 1.5-.2 2.3-.4l.2 1.5c-.5.1-.9.2-1.4.2c-.4.1-.8.1-1.3.1c-.4.1-.9.1-1.4.1H1.4V2.7h5.7v1.5h-4zm22.4-1.8v1.4h-9.1V2.4h3.7V.8h1.7v1.6h3.7zM30.6 5v1.5h-2.2v4h-1.7V.9h1.7v4.1h2.2zm-5.9 2.3c0 .4-.1.8-.3 1.1c-.2.4-.4.6-.8.9c-.3.2-.7.4-1.1.6c-.5.1-1 .2-1.5.2c-.6 0-1.1-.1-1.6-.2c-.4-.2-.8-.4-1.1-.6c-.4-.3-.6-.5-.8-.9c-.2-.3-.3-.7-.3-1.1c0-.4.1-.8.3-1.2c.2-.3.4-.6.8-.9c.3-.2.7-.4 1.1-.5c.5-.2 1-.2 1.6-.2c.5 0 1 0 1.5.2c.4.1.8.3 1.1.5c.4.3.6.6.8.9c.2.4.3.8.3 1.2zm-5.8 0c0 .4.2.8.6 1c.4.3.8.4 1.5.4c.6 0 1.1-.1 1.4-.4c.4-.2.6-.6.6-1c0-.5-.2-.9-.6-1.1c-.3-.3-.8-.4-1.4-.4c-.7 0-1.1.1-1.5.4c-.4.2-.6.6-.6 1.1zm-.6 5.4v-1.4h10.1v5h-1.7v-3.6h-8.4zm28.4-4.4s-3.72.03-3.7 0c-.4.4-.8.8-1.3 1c-.6.3-1.1.4-1.8.4c-.6 0-1.1-.1-1.6-.3c-.5-.2-.9-.5-1.2-.8c-.4-.4-.7-.8-.9-1.3c-.2-.4-.3-1-.3-1.5c0-.6.1-1.1.3-1.6c.2-.5.5-.9.9-1.2c.3-.4.7-.6 1.2-.8c.5-.2 1-.3 1.6-.3c.7 0 1.2.1 1.8.3c.5.3.9.6 1.3 1h3.7V.9h1.7v11.3h-1.7V8.3zm-9.1-2.5c0 .3 0 .6.1.9c.2.3.3.6.5.8c.3.2.5.4.8.5c.3.1.6.1.9.1c.3 0 .7 0 .9-.1c.3-.1.6-.3.8-.5c.2-.2.3-.5.4-.8c.2-.3.2-.6.2-.9c0-.4 0-.7-.2-1c-.1-.3-.2-.5-.4-.7c-.2-.2-.5-.4-.8-.5c-.2-.1-.6-.2-.9-.2c-.3 0-.6.1-.9.2c-.3.1-.5.3-.8.5c-.2.2-.3.4-.5.7c-.1.3-.1.6-.1 1zm9.1-1.2s-2.98.02-3 0c.1.3.2.7.2 1.2c0 .5-.1.8-.2 1.1h3V4.6zm-6.5 10h8.6v1.4H38.5v-4.9h1.7v3.5zm22.9-7.3c-.01-.02 2.1 0 2.1 0v1.4h-14V7.3s10.12-.02 10.1 0c.2-.9.3-1.7.4-2.4V3c.01.04-8.7 0-8.7 0V1.6h10.4s.03 1.09 0 1.1v2c0 .7-.1 1.6-.3 2.6zm-10.4 4.9v-1.4h10.8v5.5h-1.8v-4.1h-9zm19.1-4.5v2.1h-2V7.7h2zm16.9-6v6.1H78.2V1.7h10.5zm-1.8 4.7V3.1h-7v3.3h7zm3.5 3.3v1.4H87v5.3h-1.7v-5.3h-3.7v5.3h-1.7v-5.3h-3.4V9.7h13.9zM102.9.9h1.8v15.4h-1.8V.9zm-5.2 3v1.5c0 .6.1 1.2.3 1.9c.2.6.4 1.2.8 1.7c.3.6.8 1.1 1.2 1.5c.5.5 1.1.8 1.7 1.1l-1 1.4c-.9-.4-1.7-1-2.3-1.8c-.7-.8-1.2-1.7-1.6-2.7c-.3 1.1-.8 2-1.5 2.9c-.6.9-1.4 1.5-2.3 1.9L92 12c.6-.3 1.1-.7 1.6-1.2c.5-.4.9-1 1.2-1.6c.4-.6.7-1.2.9-1.9c.1-.6.2-1.3.2-1.9c.03-.04 0-1.5 0-1.5h-3.4V2.4h8.6v1.5h-3.4zm20.9 4.9v-3h-3V4.4h3V.9h1.7v7.9h-1.7zm-9.9-7.2s6.81.03 6.8 0c0 2-.5 3.6-1.6 4.9c-1.1 1.3-2.9 2.2-5.3 2.8l-.7-1.3c1.3-.3 2.2-.7 3-1.1c.8-.4 1.4-.9 1.8-1.4c-.01-.03-4.5.3-4.5.3l-.3-1.4s5.51-.17 5.5-.2l.3-1.2c-.04.01-5 0-5 0V1.6zm3.4 13.1h8.6v1.4h-10.4v-4h8.3v-1.3h-8.3V9.4h10v3.9h-8.2v1.4zM138.4.9h1.7v15.4h-1.7V.9zm-3 5.7V1.3h1.6v14.2h-1.6V8.2h-1.8V6.6h1.8zm-2.5-2.4s-.05 6.77 0 6.8c.2-.1.4-.1.7-.1c.2 0 .5-.1.7-.1l.1 1.3c-.6.1-1.2.2-1.9.3c-.7 0-1.4.1-2 .1c-.7.1-1.3.1-1.9.1h-1.7l-.2-1.4h1.4v-7H127V2.8h7v1.4h-1.1zm-3.2 0v6.9h1.6c-.04-.03 0-6.9 0-6.9h-1.6zm26 4.2l-.7 1.5c-.7-.2-1.2-.4-1.8-.6c-.6-.3-1.1-.6-1.6-1c-.5-.3-1-.7-1.3-1.2c-.4-.4-.7-.9-1-1.5c-.2.6-.6 1.1-.9 1.5c-.4.5-.9.9-1.4 1.2c-.5.4-1 .7-1.6 1c-.5.2-1.1.4-1.8.6l-.7-1.5c.8-.1 1.5-.4 2.1-.7c.7-.4 1.3-.8 1.8-1.3c.5-.4.9-1 1.2-1.6c.2-.5.4-1.1.4-1.7V1.9h1.8s.05 1.16 0 1.2c0 .6.2 1.2.5 1.8c.3.5.7 1.1 1.2 1.6c.5.4 1 .8 1.7 1.2c.7.3 1.4.6 2.1.7zm-13.3 4.5h13.9v1.4h-13.9v-1.4zm26.5-12h1.7v15.4h-1.7V.9zM160.6 8s.03 3.25 0 3.3c.7 0 1.3-.1 1.8-.1h1.7c.5-.1 1.1-.1 1.6-.2c.5 0 1.1-.1 1.6-.2l.2 1.4l-1.8.3c-.5 0-1.1.1-1.7.1c-.6 0-1.2.1-1.8.1h-2c-.04-.02-1.3 0-1.3 0V2.2h7.6v1.5h-5.9v2.8h5.3v1.5h-5.3zm20.7-2.4v2.7h-7.1V1.6h1.8v2h3.6v-2h1.7v2.6h3.2V.9h1.8v7.9h-1.8V5.6h-3.2zm-1.7 1.3v-2H176v2h3.6zm-1.6 7.8h8.8v1.4h-10.5v-4h8.2v-1.2h-8.2V9.5h10v3.9H178v1.3z" stroke="none" fill="#111111"/></g></svg>