<?xml version="1.0" standalone="no"?><!DOCTYPE svg PUBLIC "-//W3C//DTD SVG 1.1//EN" "http://www.w3.org/Graphics/SVG/1.1/DTD/svg11.dtd"><svg xmlns="http://www.w3.org/2000/svg" version="1.1" width="414.3px" height="26.8px" viewBox="0 -3 414.3 26.8" style="top:-3px"><desc>H 온드림 스타트업 그라운드</desc><defs/><g id="Polygon114220"><path d="m1.6 15V2.4h2v5.1h5.4V2.4h1.9V15H9V9.3H3.6v5.7h-2zm11.7-5.6V8h5.8v1.4h-5.8zM28.6 9h6v1.4H20.7V9h6.1V7.5c-.7 0-1.3-.1-1.9-.3c-.6-.2-1-.4-1.4-.6c-.4-.3-.7-.6-1-.9c-.2-.4-.3-.8-.3-1.2c0-.5.1-1 .4-1.4c.3-.3.6-.7 1.1-.9c.5-.3 1.1-.5 1.7-.6c.7-.2 1.5-.3 2.3-.3c.8 0 1.6.1 2.2.3c.7.1 1.3.3 1.8.6c.4.2.8.6 1.1.9c.2.4.4.9.4 1.4c0 .4-.1.8-.4 1.2c-.2.3-.5.6-.9.9c-.4.2-.9.5-1.4.6c-.6.2-1.2.3-1.9.3c-.04.03 0 1.5 0 1.5zM24 4.5c0 .5.3.9 1 1.2c.6.3 1.5.5 2.7.5c1.1 0 2-.2 2.7-.5c.6-.3.9-.7.9-1.2c0-.6-.3-1-.9-1.3c-.7-.3-1.6-.4-2.7-.4c-1.2 0-2.1.1-2.7.4c-.7.3-1 .7-1 1.3zm.3 7v3.1h8.8v1.4H22.5v-4.5h1.8zm24.4-3.3v1.4H38V2.3h10.5v1.4h-8.7v4.5h8.9zm-12.4 4.7h13.9v1.4H36.3v-1.4zM62.8.9h1.7v9.1h-1.7V.9zm-1.6 6.6l.2 1.4l-1.8.3c-.6 0-1.1.1-1.7.1c-.6 0-1.3.1-1.9.1h-2.1c.04-.02-1.3 0-1.3 0V4.9h5.3V3.2h-5.3V1.8h7v4.4h-5.2s-.02 1.76 0 1.8c.7 0 1.3-.1 1.9-.1h1.6c.6-.1 1.1-.1 1.6-.2c.6 0 1.1-.1 1.7-.2zm-6.7 8.6v-5.3h10v5.3h-10zm1.7-3.9v2.5h6.6v-2.5h-6.6zm28.3-3.8l-.8 1.5l-1.8-.6c-.6-.3-1.1-.6-1.6-1c-.5-.3-.9-.7-1.3-1.2c-.4-.4-.7-.9-1-1.5c-.2.6-.5 1.1-.9 1.5c-.4.5-.8.9-1.3 1.2c-.5.4-1.1.7-1.6 1l-1.8.6l-.8-1.5c.8-.1 1.5-.4 2.2-.7c.6-.4 1.2-.8 1.7-1.3c.5-.4.9-1 1.2-1.6c.3-.5.4-1.1.4-1.7V1.9h1.9s-.04 1.16 0 1.2c0 .6.1 1.2.4 1.8c.3.5.7 1.1 1.2 1.6c.5.4 1.1.8 1.7 1.2c.7.3 1.4.6 2.2.7zm-13.4 4.5h14v1.4h-14v-1.4zm29.9-6v1.5h-2.4v7.9h-1.8V.9h1.8v6h2.4zM89.1 8s-.02 3.25 0 3.3c.6 0 1.2-.1 1.7-.1h1.6c.5-.1 1.1-.1 1.6-.2c.5 0 1-.1 1.6-.2l.1 1.4c-.6.1-1.1.2-1.7.2c-.6.1-1.1.1-1.7.2c-.6 0-1.2 0-1.8.1h-1.9c-.03-.02-1.3 0-1.3 0V2.2h7.2v1.5h-5.4v2.8h5.1v1.5h-5.1zm25.5 1v1.4H104V2.2h10.5v1.4h-8.7v1.9h8.4v1.4h-8.4v2.1h8.8zm-12.3 4h13.9v1.4h-13.9V13zM128.8.9h1.7v8.2h-1.7V5.9s-2.86-.02-2.9 0c0 .4-.2.8-.4 1.2c-.3.3-.5.6-.9.9c-.3.2-.7.4-1.1.6c-.5.1-1 .2-1.5.2c-.6 0-1.1-.1-1.6-.3c-.5-.1-.9-.4-1.2-.7c-.4-.3-.7-.7-.9-1.2c-.2-.4-.3-.9-.3-1.4c0-.5.1-1 .3-1.5c.2-.4.5-.8.9-1.1c.3-.3.7-.6 1.2-.7c.5-.2 1-.3 1.6-.3c.5 0 1 .1 1.4.2c.5.1.9.3 1.2.6c.3.2.6.5.9.9c.2.3.4.7.4 1.2c.04-.05 2.9 0 2.9 0V.9zM122 7.3c.4 0 .7 0 .9-.1c.3-.1.6-.3.8-.5c.2-.1.3-.4.5-.6c.1-.3.1-.6.1-.9c0-.7-.2-1.2-.6-1.6c-.4-.4-1-.6-1.7-.6c-.7 0-1.2.2-1.6.6c-.5.4-.7.9-.7 1.6c0 .6.2 1.2.7 1.5c.4.4.9.6 1.6.6zm6.8 4.3V9.9h1.7v6.2h-10V9.9h1.8v1.7h6.5zm0 3.1V13h-6.5v1.7h6.5zm18.6-10.6c.04 0 0-.2 0-.2h-8.8V2.4h10.6s-.01 1.7 0 1.7v1.6c0 .5 0 1.1-.1 1.7c0 .6-.1 1.2-.1 1.9c-.1.7-.2 1.4-.4 2.3l-1.8-.2c.2-.8.3-1.5.4-2.2c.1-.6.1-1.3.2-1.8V4.1zm-10.3 8.6H151v1.4h-13.9v-1.4zm29.8-5.8v1.4h-2.3v8h-1.8V.9h1.8v6h2.3zM155 8v3.2h1.8c.5 0 1.1-.1 1.6-.1c.6 0 1.1-.1 1.6-.2c.5 0 1-.1 1.6-.2l.2 1.4l-1.8.3c-.5 0-1.1.1-1.7.1c-.6.1-1.2.1-1.8.1h-2c.01.05-1.2 0-1.2 0v-6h5.2V3.7h-5.3V2.3h7v5.7H155zm20.1-.5c-.8 0-1.5-.1-2.2-.2c-.7-.2-1.3-.4-1.7-.6c-.5-.3-.9-.6-1.1-1c-.3-.4-.4-.8-.4-1.3c0-.5.1-.9.4-1.3c.2-.4.6-.7 1.1-1c.4-.3 1-.5 1.7-.6c.7-.2 1.4-.2 2.2-.2c.8 0 1.6 0 2.3.2c.6.1 1.2.3 1.7.6c.5.3.8.6 1.1 1c.2.4.4.8.4 1.3c0 .5-.2.9-.4 1.3c-.3.4-.6.7-1.1 1c-.5.2-1.1.4-1.7.6c-.7.1-1.5.2-2.3.2zm0-4.8c-1.1 0-1.9.1-2.6.4c-.6.3-1 .7-1 1.3c0 .5.4 1 1 1.3c.7.3 1.5.4 2.6.4c1.1 0 2-.1 2.6-.4c.7-.3 1-.8 1-1.3c0-.6-.3-1-1-1.3c-.6-.3-1.5-.4-2.6-.4zm-6.9 5.9h13.9v1.4h-5.9v2.9h-1.8V10h-6.2V8.6zm3.5 2.8v3.2h8.9v1.4h-10.7v-4.6h1.8zm24.4-3.2v1.4h-10.6V2.3H196v1.4h-8.8v4.5h8.9zm-12.3 4.7h13.9v1.4h-13.9v-1.4z" stroke="none" fill="#111111"/></g></svg>