<?xml version="1.0" standalone="no"?><!DOCTYPE svg PUBLIC "-//W3C//DTD SVG 1.1//EN" "http://www.w3.org/Graphics/SVG/1.1/DTD/svg11.dtd"><svg xmlns="http://www.w3.org/2000/svg" version="1.1" width="221px" height="17.3px" viewBox="0 -2 221 17.3" style="top:-2px"><desc>gift car.kr</desc><defs/><g id="Polygon109818"><path d="m2.8 11.5c-.3 0-.6 0-.9-.1c-.3-.1-.6-.2-.8-.3c-.2-.1-.3-.3-.4-.5c-.1-.2-.2-.4-.2-.6c0-.2.1-.5.2-.7l.6-.6c-.1-.1-.2-.2-.3-.4c-.1-.1-.2-.3-.2-.5c0-.2.1-.4.2-.6l.4-.4v-.1c-.1-.1-.3-.3-.5-.6c-.1-.2-.2-.5-.2-.9c0-.3.1-.5.2-.8c.1-.2.3-.4.4-.6c.2-.2.5-.3.7-.4c.3-.1.5-.1.8-.1h.4c.2 0 .3.1.4.1h1.9v.7s-1.12.01-1.1 0c.1.1.2.3.3.5c.1.2.1.4.1.7c0 .2 0 .5-.1.7c-.1.3-.3.5-.5.7c-.2.1-.4.3-.6.3c-.3.1-.5.2-.8.2c-.3 0-.6-.1-.8-.2l-.3.3c0 .1-.1.2-.1.3c0 .2.1.4.2.5c.2.1.4.2.8.2h1.1c.6 0 1.1.1 1.4.3c.3.2.5.5.5 1c0 .2-.1.5-.2.7c-.1.2-.3.4-.6.6c-.2.2-.5.3-.8.4c-.4.1-.8.2-1.2.2zm0-5h.5l.3-.3c.1-.1.2-.3.3-.4c0-.2.1-.4.1-.6c0-.4-.1-.7-.4-.9c-.2-.2-.5-.4-.8-.4c-.3 0-.6.2-.8.4c-.3.2-.4.5-.4.9c0 .2.1.4.1.6c.1.1.2.3.3.4l.3.3h.5zm.1 4.4c.3 0 .5-.1.8-.1c.2-.1.4-.2.5-.3c.2-.1.3-.2.4-.4c.1-.1.1-.2.1-.4c0-.2-.1-.4-.3-.5c-.2-.1-.5-.2-.8-.2H2.3c-.2 0-.3 0-.4-.1c-.2.2-.3.3-.4.5c-.1.1-.2.3-.2.5c0 .3.2.5.4.7c.3.2.7.3 1.2.3zm4.3-9.6v1h-.9v-1h.9zm0 7.6h-.9V3.4h.9v5.5zm4.2-8l-.2.7c-.2-.1-.4-.2-.6-.2c-.5 0-.8.4-.8 1.1c.01.02 0 .9 0 .9h1.2v.8H9.8v4.7h-.9V4.2h-.8v-.8h.8s-.02-.89 0-.9c0-.6.1-1 .4-1.3c.2-.4.6-.5 1.2-.5h.5c.1.1.3.1.4.2zm2.2 8.2c-.3 0-.6-.1-.8-.2c-.2-.1-.3-.2-.4-.3c-.2-.2-.3-.4-.3-.6c-.1-.2-.1-.5-.1-.8v-3h-.8v-.8h.8l.2-1.6h.7v1.6h1.5v.8h-1.5s.03 3.04 0 3c0 .4.1.7.2.8c.1.2.4.3.7.3h.3c.1-.1.2-.1.3-.1l.2.7c-.2 0-.3.1-.5.1c-.2 0-.3.1-.5.1zm1.5-3.6v-.7h3.3v.7h-3.3zm6.7 3.6c-.3 0-.7-.1-1-.2c-.3-.2-.6-.3-.8-.6c-.2-.2-.4-.5-.6-.9c-.1-.4-.2-.8-.2-1.2c0-.5.1-.9.3-1.3c.1-.3.3-.6.6-.9c.2-.2.5-.4.8-.6c.3-.1.7-.1 1-.1c.4 0 .7 0 1 .1c.2.2.4.3.6.5l-.4.6c-.2-.1-.4-.2-.5-.3c-.2-.1-.4-.2-.6-.2c-.3 0-.5.1-.7.2c-.3.1-.4.2-.6.4c-.1.2-.3.4-.4.7c0 .3-.1.6-.1.9c0 .3.1.6.1.8c.1.3.2.5.4.7c.1.2.3.3.5.4c.2.1.5.2.7.2c.3 0 .5-.1.7-.2c.3-.1.5-.2.6-.4l.4.7c-.2.2-.5.4-.8.5c-.3.1-.6.2-1 .2zm4.1 0c-.2 0-.4-.1-.6-.1c-.2-.1-.4-.2-.5-.4c-.2-.1-.3-.3-.4-.5c-.1-.2-.1-.4-.1-.7c0-.7.3-1.2.9-1.5c.6-.3 1.4-.5 2.5-.5v-.5c-.1-.2-.1-.3-.2-.4c-.1-.2-.2-.3-.4-.4c-.1 0-.3-.1-.5-.1c-.4 0-.7.1-1 .2c-.3.1-.5.2-.7.4l-.4-.7c.2-.2.6-.3 1-.4c.4-.2.8-.2 1.2-.2c.4 0 .7 0 .9.1c.2.1.4.3.6.5c.1.2.3.4.3.7c.1.3.1.6.1.9c.04.03 0 3.4 0 3.4h-.7l-.1-.6s-.04.04 0 0c-.3.3-.6.4-.9.6c-.3.1-.6.2-1 .2zm.3-.8c.3 0 .5 0 .7-.1c.3-.1.5-.3.8-.5V6c-.5.1-.9.1-1.2.2c-.3.1-.6.1-.8.2c-.2.1-.3.3-.4.4c0 .2-.1.4-.1.6c0 .3.1.5.3.7c.2.1.4.2.7.2zm4 .6V3.4h.8v1h.1c.2-.3.4-.6.7-.8c.2-.2.5-.3.8-.3h.4c.1 0 .2 0 .2.1l-.1.8c-.1 0-.2-.1-.3-.1h-.3c-.1 0-.2 0-.3.1c-.2 0-.3.1-.4.2l-.4.4c-.1.1-.2.3-.3.6c.03-.02 0 3.5 0 3.5h-.9zm3.2.2v-1h1v1h-1zm2.7-.2V.8h.9v5.5l2.4-2.9h1l-1.8 2.2l2.1 3.3h-1l-1.6-2.6L37 7.5v1.4h-.9zm5.4 0V3.4h.8l.1 1s0 .01 0 0c.2-.3.4-.6.7-.8c.3-.2.6-.3.9-.3h.3c.1 0 .2 0 .3.1l-.2.8c-.1 0-.2-.1-.3-.1h-.3c-.1 0-.2 0-.3.1c-.1 0-.3.1-.4.2c-.1.1-.2.2-.3.4c-.2.1-.3.3-.3.6c-.05-.02 0 3.5 0 3.5h-1z" stroke="none" fill="#111111"/></g></svg>