<?xml version="1.0" standalone="no"?><!DOCTYPE svg PUBLIC "-//W3C//DTD SVG 1.1//EN" "http://www.w3.org/Graphics/SVG/1.1/DTD/svg11.dtd"><svg xmlns="http://www.w3.org/2000/svg" version="1.1" width="409.3px" height="26.8px" viewBox="0 -3 409.3 26.8" style="top:-3px"><desc>아이케어카</desc><defs/><g id="Polygon115963"><path d="m15.1 6.9v1.5h-2.3v7.9H11V.9h1.8v6h2.3zM4.9 2c.6 0 1.2.2 1.6.4c.5.3.9.6 1.3 1.1c.3.5.6 1.1.8 1.7c.2.7.3 1.4.3 2.3c0 .8-.1 1.5-.3 2.2c-.2.7-.5 1.2-.8 1.7c-.4.5-.8.8-1.3 1.1c-.4.2-1 .4-1.6.4c-.5 0-1.1-.2-1.5-.4c-.5-.3-.9-.6-1.3-1.1c-.3-.5-.6-1-.8-1.7C1.1 9 1 8.3 1 7.5c0-.9.1-1.6.3-2.3c.2-.6.5-1.2.8-1.7c.4-.5.8-.8 1.3-1.1c.4-.2 1-.4 1.5-.4zm0 9.3c.7 0 1.3-.3 1.7-1c.4-.7.6-1.6.6-2.8c0-1.2-.2-2.2-.6-2.9c-.4-.6-1-1-1.7-1c-.6 0-1.2.4-1.6 1c-.4.7-.6 1.7-.6 2.9c0 1.2.2 2.1.6 2.8c.4.7 1 1 1.6 1zM27.3.9h1.8v15.4h-1.8V.9zM20.9 2c.6 0 1.1.2 1.6.4c.4.3.9.6 1.2 1.1c.4.5.6 1 .8 1.7c.2.7.3 1.4.3 2.2c0 .9-.1 1.6-.3 2.3c-.2.7-.4 1.2-.8 1.7c-.3.5-.8.8-1.2 1.1c-.5.2-1 .4-1.6.4c-.6 0-1.1-.2-1.6-.4c-.5-.3-.9-.6-1.2-1.1c-.4-.5-.7-1-.9-1.7c-.2-.7-.3-1.4-.3-2.3c0-.8.1-1.5.3-2.2c.2-.7.5-1.2.9-1.7c.3-.5.7-.8 1.2-1.1c.5-.2 1-.4 1.6-.4zm0 1.6c-.7 0-1.3.4-1.7 1c-.4.7-.6 1.6-.6 2.8c0 1.3.2 2.2.6 2.9c.4.7 1 1 1.7 1c.7 0 1.2-.3 1.6-1c.4-.7.7-1.6.7-2.9c0-1.2-.3-2.1-.7-2.8c-.4-.6-.9-1-1.6-1zM43.4.9h1.7v15.4h-1.7V.9zm-3.2 6V1.3h1.7v14.2h-1.7V8.3s-2.53-.02-2.5 0c-.5.9-1 1.8-1.8 2.6c-.7.8-1.7 1.6-2.9 2.3l-1-1.3c1.1-.6 2-1.2 2.7-2c.6-.7 1.1-1.5 1.5-2.3l-3.9.4l-.3-1.5s4.69-.26 4.7-.3c.1-.3.2-.7.2-1c.1-.4.1-.7.1-1.1h-4.2V2.7h5.9c0 .7 0 1.5-.1 2.1c-.1.7-.2 1.4-.4 2.1c0-.05 2 0 2 0zm18.3-6h1.8v15.4h-1.8V8.1s-2.96-.04-3 0c0 .7-.1 1.4-.4 2c-.2.6-.4 1.1-.8 1.5c-.3.4-.7.7-1.2.9c-.4.3-.9.4-1.4.4c-.6 0-1.1-.2-1.6-.4c-.5-.3-.9-.6-1.2-1.1c-.4-.5-.6-1-.8-1.7c-.2-.7-.3-1.4-.3-2.3c0-.8.1-1.5.3-2.2c.2-.7.4-1.2.8-1.7c.3-.5.7-.8 1.2-1.1c.5-.2 1-.4 1.6-.4c.5 0 1 .1 1.4.4c.4.2.8.5 1.2.9c.3.4.6.9.8 1.4c.2.6.4 1.2.4 1.9c.02.03 3 0 3 0V.9zm-6.8 10.4c.6 0 1.2-.3 1.6-1c.4-.7.6-1.6.6-2.9c0-1.2-.2-2.1-.6-2.8c-.4-.6-1-1-1.6-1c-.7 0-1.2.4-1.6 1c-.4.7-.6 1.6-.6 2.8c0 1.3.2 2.2.6 2.9c.4.7.9 1 1.6 1zM77.3 7v1.4H75v7.9h-1.8V.9h1.8v6.1h2.3zM64 2.4s7.01.05 7 0c0 1.2-.1 2.3-.3 3.4c-.2 1-.5 2.1-1.1 3c-.5 1-1.2 1.9-2.1 2.7c-.9.9-2 1.7-3.4 2.4l-1-1.4c1.4-.7 2.5-1.4 3.3-2.2c.8-.8 1.5-1.7 1.9-2.6c.04-.03-4.8.4-4.8.4l-.3-1.5s5.67-.33 5.7-.3c.2-.8.3-1.6.4-2.4c-.03-.02-5.3 0-5.3 0V2.4z" stroke="none" fill="#111111"/></g></svg>