<?xml version="1.0" standalone="no"?><!DOCTYPE svg PUBLIC "-//W3C//DTD SVG 1.1//EN" "http://www.w3.org/Graphics/SVG/1.1/DTD/svg11.dtd"><svg xmlns="http://www.w3.org/2000/svg" version="1.1" width="390px" height="91.3px" viewBox="0 -2 390 91.3" style="top:-2px"><desc>문화예술 균형 발전 및 활성화를 목표로 열리는 국내 대표 아트마켓형 페스티벌이다. 제주 해비치 호텔&amp;리조트에서 개최된 2021년 페스티벌에는 448개 예술단체 및 기관, 문예회관 등이 참여해 문화예술 정보 제공...</desc><defs/><g id="Polygon111309"><path d="m1.3 80.1l-.3-.7c.4 0 .9-.2 1.3-.3c.4-.2.7-.4 1-.6c.3-.3.5-.5.7-.8c.2-.4.3-.7.3-1c-.04-.04-3 0-3 0v-.7h3v-1.3h.8v1.3h2.9v.7s-2.89-.04-2.9 0c0 .3.1.6.3 1c.1.3.4.5.7.8c.3.2.6.4 1 .6c.4.1.8.3 1.3.3l-.4.7l-1-.3c-.4-.1-.7-.3-1-.5c-.3-.1-.5-.3-.7-.6c-.3-.2-.5-.5-.6-.7c-.2.2-.3.5-.6.7c-.2.3-.5.5-.8.6c-.2.2-.6.4-.9.5l-1.1.3zm3.8 1.7h3.7v.7H.5v-.7h3.8v-2h.8v2zm10-2.7l-.4.6c-.5-.2-.9-.4-1.3-.7c-.4-.4-.7-.7-1-1.2c-.2.5-.4 1-.8 1.3c-.4.4-.9.7-1.5.8l-.4-.6c.4-.1.7-.3 1-.5c.2-.2.5-.4.7-.6c.2-.3.3-.5.4-.8c.1-.3.2-.6.2-.9v-.2h-2v-.7h2v-1.1h.8v1.1h2.1v.7h-2.1s.04.19 0 .2c0 .3.1.5.2.8c.1.3.3.5.5.7c.2.3.4.5.7.6c.3.2.6.4.9.5zm-.5-2h1.8v-2.6h.9v5.6h-.9v-2.3h-1.8v-.7zm-.4 3.2c1 0 1.7.2 2.3.5c.5.3.8.7.8 1.2c0 .5-.3.9-.8 1.2c-.6.3-1.3.5-2.3.5c-.4 0-.9-.1-1.2-.1c-.4-.1-.7-.2-1-.4c-.3-.1-.5-.3-.6-.5c-.1-.2-.2-.4-.2-.7c0-.3.1-.5.2-.7c.1-.2.3-.4.6-.5c.3-.2.6-.3 1-.4c.3 0 .8-.1 1.2-.1zm0 2.7c.7 0 1.3-.1 1.7-.2c.4-.2.6-.5.6-.8c0-.3-.2-.6-.6-.8c-.4-.1-1-.2-1.7-.2c-.7 0-1.2.1-1.6.2c-.4.2-.6.5-.6.8c0 .3.2.6.6.8c.4.1.9.2 1.6.2zM26 76.7h1.4v.7H26v2.5h-.8v-5.3h.8v2.1zm-2.5-1.6v4.2h-4.2v-4.2h.8v1.3h2.6v-1.3h.8zm-.8 3.5v-1.5h-2.6v1.5h2.6zm-1.6 2.5v1.8h5.1v.7h-5.9v-3.2h5.8v.7h-5zm15.5-2.9v.7h-1.5v4.8h-.8v-9.1h.8v3.6h1.5zm-6.1-3c.4 0 .7.1.9.3c.3.1.6.3.8.6c.2.3.3.6.4 1c.2.4.2.8.2 1.3c0 .5 0 1-.2 1.4c-.1.3-.2.7-.4 1c-.2.2-.5.5-.8.6c-.2.2-.5.2-.9.2c-.3 0-.6 0-.9-.2c-.3-.1-.5-.4-.7-.6c-.2-.3-.4-.7-.5-1c-.1-.4-.2-.9-.2-1.4c0-.5.1-.9.2-1.3c.1-.4.3-.7.5-1c.2-.3.4-.5.7-.6c.3-.2.6-.3.9-.3zm0 5.7c.2 0 .4-.1.6-.2c.2-.1.4-.3.5-.5c.1-.2.2-.5.3-.8c.1-.3.1-.6.1-1c0-.3 0-.7-.1-1c-.1-.3-.2-.5-.3-.7c-.1-.2-.3-.4-.5-.5c-.2-.1-.4-.2-.6-.2c-.2 0-.4.1-.6.2c-.2.1-.3.3-.5.5c-.1.2-.2.4-.3.7c-.1.3-.1.7-.1 1c0 .4 0 .7.1 1c.1.3.2.6.3.8c.2.2.3.4.5.5c.2.1.4.2.6.2zm16.6-5.6v.7h-7.3v-.7h3.3v-.9h.8v.9h3.2zm-3.2 4.4h3.7v.6h-8.3v-.6h3.8s-.04-.76 0-.8c-.9 0-1.5-.1-1.9-.3c-.5-.3-.7-.6-.7-1c0-.4.3-.7.8-.9c.5-.3 1.2-.4 2.2-.4c.9 0 1.7.1 2.2.4c.5.2.7.5.7.9c0 .4-.2.7-.6 1c-.4.2-1.1.3-1.9.3v.8zm-2.5-2.1c0 .3.2.4.5.6c.4.1.9.2 1.6.2c.6 0 1.2-.1 1.5-.2c.4-.2.5-.3.5-.6c0-.2-.1-.4-.5-.5c-.3-.1-.9-.2-1.5-.2c-.7 0-1.2.1-1.6.2c-.3.1-.5.3-.5.5zm2.1 3.3c1 0 1.8.1 2.3.3c.5.3.8.6.8 1.1c0 .4-.3.8-.8 1c-.5.3-1.3.4-2.3.4c-1 0-1.8-.1-2.4-.4c-.5-.2-.8-.6-.8-1c0-.5.3-.8.8-1.1c.6-.2 1.4-.3 2.4-.3zm0 2.2c.7 0 1.3-.1 1.7-.2c.4-.2.5-.4.5-.6c0-.3-.1-.5-.5-.6c-.4-.1-1-.2-1.7-.2c-.8 0-1.3.1-1.7.2c-.4.1-.6.3-.6.6c0 .2.2.4.6.6c.4.1.9.2 1.7.2zm9.6-1.3h3.7v.7h-8.3v-.7h3.7v-1.9h-2.7v-4.7h.8v1.6h4.7v-1.6h.8v4.7h-2.7v1.9zm-2.8-4.3v1.7h4.7v-1.7h-4.7zm14-3h.9v9.2h-.9v-9.2zm-3.6.7c.3 0 .7.1 1 .2c.3.1.5.2.7.4c.2.2.4.4.5.7c.2.3.2.5.2.9c0 .3 0 .6-.2.8c-.1.3-.3.5-.5.7c-.2.2-.4.4-.7.5c-.3.1-.7.1-1 .1c-.4 0-.7 0-1-.1c-.3-.1-.6-.3-.8-.5c-.2-.2-.4-.4-.5-.7c-.1-.2-.2-.5-.2-.8c0-.4.1-.6.2-.9c.1-.3.3-.5.5-.7c.2-.2.5-.3.8-.4c.3-.1.6-.2 1-.2zm0 .7c-.3 0-.5.1-.7.1c-.2.1-.4.2-.5.3c-.1.2-.3.3-.3.5c-.1.2-.2.3-.2.6c0 .2.1.4.2.5c0 .2.2.4.3.5c.1.1.3.2.5.3c.2.1.4.1.7.1c.2 0 .4 0 .6-.1c.2-.1.4-.2.5-.3c.2-.1.3-.3.4-.5c.1-.1.1-.3.1-.5c0-.3 0-.4-.1-.6c-.1-.2-.2-.3-.4-.5c-.1-.1-.3-.2-.5-.3c-.2 0-.4-.1-.6-.1zm-2.8 5.8l-.1-.7h1.3c.5 0 1 0 1.5-.1h1.6c.5-.1 1-.1 1.5-.2l.1.6c-.5.1-1 .2-1.6.2c-.5.1-1 .1-1.5.1c-.5.1-1 .1-1.5.1h-1.3zm17.7-7.2h.9v9.2h-.9v-9.2zm-6.1 1s4.29.03 4.3 0c0 .7-.1 1.3-.2 1.9c-.2.7-.5 1.2-.8 1.8c-.3.5-.8 1-1.3 1.5c-.6.5-1.2.9-2 1.3l-.4-.7c1.2-.6 2.1-1.3 2.8-2.2c.6-.8 1-1.8 1-2.9h-3.4v-.7zm14.4.2v.6h-5.5v-.6h2.4v-1.1h.8v1.1h2.3zm.9-1.1h.8v9.1h-.8v-9.1zm-3.2 5.6v1c.4 0 .9-.1 1.3-.1c.4 0 .9-.1 1.3-.1v.6c-.5.1-1 .1-1.5.2c-.5 0-1 .1-1.6.1h-1.4c-.5.1-1 .1-1.4.1l-.1-.7c.4 0 .8-.1 1.2-.1h1.4v-1c-.6 0-1-.2-1.4-.5c-.3-.3-.4-.7-.4-1.2c0-.2 0-.4.1-.6c.1-.3.3-.4.5-.6c.2-.1.4-.2.7-.3c.2-.1.5-.1.9-.1c.3 0 .6 0 .9.1c.2.1.5.2.7.3c.2.2.3.3.4.6c.1.2.2.4.2.6c0 .5-.2.9-.5 1.2c-.3.3-.8.5-1.3.5zm-1.8-1.7c0 .4.1.6.3.8c.3.2.6.3 1.1.3c.4 0 .7-.1 1-.3c.2-.2.4-.4.4-.8c0-.3-.2-.5-.4-.7c-.3-.2-.6-.3-1-.3c-.5 0-.8.1-1.1.3c-.2.2-.3.4-.3.7zm13.9-2.4v-.7h-5.3v-.6h6.2v1.9h-5.4v.8h5.5v.6h-6.3v-2h5.3zm-6.4 2.7h8.3v.6h-8.3v-.6zm1.9 3.3v.9h5.7v.6h-6.6v-2.1h5.5v-.7h-5.5v-.6h6.3v1.9h-5.4zm17.9-3.8v.6h-1.5v4.8h-.8v-9.2h.8v3.8h1.5zm-8-2.8s4.15.02 4.2 0c0 .7-.1 1.3-.3 1.9c-.1.6-.4 1.2-.7 1.8c-.3.5-.8 1-1.3 1.5c-.5.5-1.2.9-1.9 1.3l-.5-.7c1.2-.6 2.1-1.3 2.8-2.2c.6-.8.9-1.8 1-2.9c.03.01-3.3 0-3.3 0v-.7zm13.7.8h1.7v-1.8h.8v5.4h-.8v-1.4h-1.7v-.7h1.7v-.9h-1.7v-.6zm.4 2.8l-.5.6c-.5-.2-.9-.4-1.3-.8c-.4-.3-.7-.7-.9-1.2c-.2.5-.5 1-.8 1.4c-.4.3-.9.6-1.5.8l-.4-.6c.4-.2.7-.3.9-.5c.3-.2.6-.4.8-.7c.2-.3.3-.5.4-.8c.1-.3.2-.7.2-1v-.5h-2v-.6h4.8v.6h-2s.05.49 0 .5c0 .3.1.6.2.9c.1.2.3.5.5.8c.2.2.4.4.7.6c.2.2.5.4.9.5zm1.1 1.1v.5c0 .2.1.4.1.6c.1.3.2.5.4.7c.1.2.3.4.6.6c.2.1.5.3.7.4l-.4.6c-.4-.2-.8-.4-1.1-.7c-.3-.3-.6-.7-.7-1.1c-.1.4-.4.8-.6 1.1c-.3.3-.7.6-1.1.8c-.4-.2-.8-.5-1.1-.8c-.3-.3-.5-.6-.6-1c-.2.3-.4.7-.7 1c-.3.3-.7.5-1.1.7l-.4-.6c.3-.1.5-.3.7-.5c.3-.1.5-.3.6-.5c.2-.2.3-.4.4-.7c.1-.2.1-.4.1-.6v-.5h.8v.5c0 .4.1.8.3 1.2c.2.4.6.7 1 .9c.2-.1.4-.3.6-.4c.1-.2.3-.4.4-.6c.1-.2.2-.4.2-.6c.1-.2.1-.4.1-.5c-.02-.05 0-.5 0-.5h.8zm11.2-2v.6H124v4.9h-.9v-9.2h.9v3.7h1.5zm-7.3-2.1s-.03 4.61 0 4.6h2.1c.4-.1.7-.1 1-.1c.3-.1.7-.1 1-.2l.1.7c-.4.1-.7.1-1 .2c-.4 0-.7 0-1.1.1h-2.2c-.05.03-.8 0-.8 0v-6h4.3v.7h-3.4zm7.8 7v-1h.9v1h-.9z" stroke="none" fill="#111111"/></g><g id="Polygon111308"><path d="m5.7 57.2v.6H.6v-.6h2.1V56h.9v1.2h2.1zm0 1.3h1.5v-2.4h.9v6.9h-.9v-1.9H5.7v-.7h1.5v-1.2H5.7v-.7zm-.5 1.6c0 .2 0 .5-.1.7c-.1.2-.3.4-.5.5c-.1.2-.4.3-.6.4c-.3.1-.5.1-.8.1c-.4 0-.6 0-.9-.1c-.2-.1-.5-.2-.6-.4c-.2-.1-.4-.3-.5-.5c-.1-.2-.1-.5-.1-.7c0-.3 0-.5.1-.7c.1-.2.3-.4.5-.6c.1-.1.4-.3.6-.3c.3-.1.5-.2.9-.2c.3 0 .5.1.8.2c.2 0 .5.2.6.3c.2.2.4.4.5.6c.1.2.1.4.1.7zm-3.3 0c0 .3.1.6.3.8c.3.2.6.3 1 .3c.3 0 .6-.1.9-.3c.2-.2.3-.5.3-.8c0-.3-.1-.6-.3-.8c-.3-.2-.6-.3-.9-.3c-.4 0-.7.1-1 .3c-.2.2-.3.5-.3.8zM3 64.3h5.3v.7H2.2v-2.6h.8v1.9zM16.7 56h.8v9.2h-.8v-4.8h-1.3v4.3h-.8v-8.5h.8v3.5h1.3V56zm-5.8 1.8s-.03 4.44 0 4.4h1.6c.5-.1 1-.1 1.5-.2v.7c-.2 0-.5.1-.8.1c-.2 0-.5.1-.8.1h-1.8c.05.04-.6 0-.6 0v-5.7h3.5v.6h-2.6zm16.5 1.9v.7h-1.5v4.8h-.8v-9.1h.8v3.6h1.5zm-5.4-2s-.02 1.14 0 1.1c0 .4 0 .8.2 1.1c.1.4.3.8.5 1.1c.2.3.4.6.7.9c.3.3.6.5.9.6l-.4.7c-.5-.2-1-.6-1.4-1.1c-.4-.5-.7-1.1-.9-1.7c-.1.3-.3.7-.4 1c-.2.3-.4.6-.6.8c-.2.3-.4.5-.6.7c-.3.2-.5.4-.8.5l-.5-.6c.4-.2.7-.4 1-.7c.3-.3.5-.6.7-1c.3-.3.4-.7.6-1.1c.1-.4.2-.8.2-1.2c-.05.04 0-1.1 0-1.1h-2.1v-.7h4.9v.7h-2zm10.6 2.9h3.8v.6h-8.3v-.6h3.7v-1.1h-2.7v-3h6.2v.6H30v1.7h5.4v.7h-2.8v1.1zm-.4 1.3c1 0 1.8.1 2.3.4c.6.3.8.7.8 1.2c0 .6-.2 1-.8 1.3c-.5.2-1.3.4-2.3.4c-1 0-1.7-.2-2.3-.4c-.5-.3-.8-.7-.8-1.3c0-.5.3-.9.8-1.2c.6-.3 1.3-.4 2.3-.4zm0 2.6c.7 0 1.3 0 1.7-.2c.4-.2.6-.4.6-.8c0-.3-.2-.5-.6-.7c-.4-.2-1-.3-1.7-.3c-.7 0-1.3.1-1.7.3c-.4.2-.6.4-.6.7c0 .4.2.6.6.8c.4.2 1 .2 1.7.2zm13.6-4.7v.7h-1.5v4.7h-.8V56h.8v3.8h1.5zm-5.5-1.5s.02.71 0 .7c0 .4.1.7.2 1.1c.1.4.2.7.4 1c.2.3.5.6.7.9c.3.2.6.5.9.6l-.4.7c-.5-.3-1-.6-1.3-1.1c-.4-.5-.7-1-.9-1.6c-.2.6-.5 1.2-.9 1.7c-.4.5-.8.9-1.4 1.1l-.4-.6l.9-.6c.3-.3.5-.6.7-.9c.2-.4.4-.7.5-1.1c.1-.4.2-.8.2-1.2v-.7h-2.1v-.7h2.1v-1.4h.8v1.4h2.1v.7h-2.1zm12.5-.4c-.02.03 0-.2 0-.2h-5.5v-.7h6.3s.01.93 0 .9v2c-.1.3-.1.7-.1 1.1c-.1.4-.2.9-.2 1.4l-.9-.1c.2-.9.3-1.8.3-2.5c.1-.7.1-1.3.1-1.9zm-6.3 5.3h8.2v.7h-8.2v-.7zM62 57.7v-.8h-5.3v-.7h6.2v2.1h-5.4v.9h5.5v.6h-6.3v-2.1h5.3zm-6.4 2.9h8.3v.6h-3.7v1.2h-.9v-1.2h-3.7v-.6zm6.4 2.2v-1h.9v3.3h-6.2v-3.3h.8v1h4.5zm0 1.6v-.9h-4.5v.9h4.5zm6.1-7.4v1.1H67s-.02-1.09 0-1.1c0-.4 0-.7.2-.9c.1-.2.2-.3.3-.4c.2-.1.4-.1.6-.1v.4c-.1 0-.2.1-.3.1c-.1.1-.2.2-.2.3c0 .1-.1.2-.1.3v.3h.6zm1.5 7.4V57h1v3.1h3.5V57h.9v7.4h-.9v-3.5h-3.5v3.5h-1zm6.7-3.4v-.7h3.4v.7h-3.4zm8.8-.1h3.7v.7h-8.3v-.7h3.8s-.04-.95 0-1c-.5 0-.9 0-1.2-.1c-.3-.1-.6-.2-.9-.4c-.2-.1-.4-.3-.5-.5c-.2-.3-.2-.5-.2-.8c0-.2 0-.5.2-.7c.1-.2.3-.4.6-.6c.3-.2.7-.3 1-.4c.4 0 .9-.1 1.4-.1c.5 0 .9.1 1.3.1c.4.1.7.2 1 .4c.3.2.5.4.7.6c.1.2.2.5.2.7c0 .3-.1.5-.2.8c-.1.2-.3.4-.6.5c-.2.2-.5.3-.8.4c-.4.1-.8.1-1.2.1v1zm-2.8-2.8c0 .4.2.7.6.9c.5.2 1 .3 1.8.3c.7 0 1.3-.1 1.7-.3c.4-.2.6-.5.6-.9c0-.3-.2-.6-.6-.8c-.4-.2-1-.3-1.7-.3c-.8 0-1.3.1-1.8.3c-.4.2-.6.5-.6.8zm.1 4.2v2h5.5v.7h-6.3v-2.7h.8zm14.7-1.9v.7h-6.3v-4.2h6.2v.7h-5.4v2.8h5.5zm-7.4 2.9h8.3v.7h-8.3v-.7zm15.9-7.2h.8v5.4h-.8v-5.4zm-1.1 4v.6c-.3.1-.7.1-1 .2c-.4 0-.7 0-1.1.1h-2.3c.01.03-.7 0-.7 0v-2.6h3.3v-1.1h-3.4v-.7h4.2v2.5h-3.3v1.2h2.2c.3 0 .7-.1 1-.1c.3 0 .7-.1 1.1-.1zm-4 5V62h5.9v3.1h-5.9zm.8-2.5v1.8h4.3v-1.8h-4.3zm16.7-2l-.3.7c-.4 0-.7-.2-1.1-.3l-.9-.6c-.3-.2-.6-.5-.9-.8c-.2-.3-.4-.6-.5-.9l-.6.9c-.2.3-.5.6-.8.8c-.3.2-.6.4-1 .6c-.3.1-.7.3-1 .3l-.4-.7c.4 0 .8-.2 1.2-.4c.4-.2.7-.4 1.1-.7c.3-.3.5-.6.7-1c.2-.3.3-.7.3-1.1c.03-.01 0-.7 0-.7h.9v.7c0 .4.1.7.3 1.1c.2.4.5.7.8 1c.3.3.6.5 1 .7c.4.2.8.4 1.2.4zm-7.8 2.7h8.3v.7h-8.3v-.7zm17.7-3.6v.7h-1.5v4.8h-.9V56h.9v3.7h1.5zm-7.3.4s-.03 2.2 0 2.2h1.1c.4 0 .7 0 1-.1c.4 0 .7 0 1-.1c.3 0 .6 0 1-.1l.1.7c-.4 0-.7.1-1.1.1c-.3.1-.6.1-1 .1c-.3 0-.7.1-1 .1h-2v-6.1h4.3v.7h-3.4v1.8h3.2v.7h-3.2zm15.3.9v.7h-6.3v-4.9h6.2v.7h-5.4v1.4h5.2v.6h-5.2v1.5h5.5zm-7.4 2.3h8.3v.7h-8.3v-.7zm15.9-7.2h.8v4.9h-.8v-2.1h-1.9c0 .6-.3 1-.7 1.3c-.4.3-1 .5-1.6.5c-.3 0-.7 0-.9-.2c-.3-.1-.6-.2-.8-.4c-.2-.2-.4-.4-.5-.7c-.1-.2-.2-.5-.2-.8c0-.3.1-.6.2-.9c.1-.2.3-.5.5-.6c.2-.2.5-.4.8-.5c.2-.1.6-.1.9-.1c.3 0 .6 0 .9.1c.2.1.5.2.7.4c.2.1.3.3.5.5c.1.2.2.5.2.7c.02.02 1.9 0 1.9 0v-2.1zm-4.2 3.9c.2 0 .4 0 .6-.1c.2-.1.4-.2.5-.3c.2-.1.3-.3.3-.4c.1-.2.2-.4.2-.6c0-.2-.1-.4-.2-.6c0-.2-.1-.3-.3-.4c-.1-.2-.3-.3-.5-.3c-.2-.1-.4-.1-.6-.1c-.2 0-.4 0-.6.1c-.2 0-.4.1-.5.3c-.2.1-.3.2-.3.4c-.1.2-.2.4-.2.6c0 .2.1.4.2.6c0 .1.1.3.3.4c.1.1.3.2.5.3c.2.1.4.1.6.1zm4.2 2.6v-1.2h.8v3.7h-5.8v-3.7h.8v1.2h4.2zm0 1.8v-1.2h-4.2v1.2h4.2zm10.9-6.5v-.2h-5.4v-.7h6.2s.03.93 0 .9v2c0 .3-.1.7-.1 1.1c-.1.4-.1.9-.2 1.4l-.9-.1c.2-.9.3-1.8.4-2.5v-1.9zm-6.3 5.3h8.2v.7H149v-.7zm17.7-3.5v.7h-1.5v4.8h-.8V56h.8v3.7h1.5zm-7.4.5s.03 2.09 0 2.1h1.2c.4 0 .7 0 1.1-.1c.3 0 .6 0 .9-.1c.4 0 .7-.1 1-.1l.1.7c-.3 0-.7.1-1 .1c-.4.1-.7.1-1 .1c-.4 0-.8.1-1.1.1h-2v-3.5h3.3v-1.9h-3.3v-.7h4.1v3.3h-3.3zm12.2-.3c-.5 0-1 0-1.4-.1c-.4-.1-.7-.2-1-.3c-.3-.2-.5-.4-.6-.6c-.2-.2-.3-.5-.3-.8c0-.3.1-.5.3-.8c.1-.2.3-.4.6-.5c.3-.2.6-.3 1-.4c.4-.1.9-.1 1.4-.1c.4 0 .9 0 1.3.1c.4.1.7.2 1 .4c.3.1.5.3.6.5c.2.3.3.5.3.8c0 .3-.1.6-.3.8c-.1.2-.3.4-.6.6c-.3.1-.6.2-1 .3c-.4.1-.9.1-1.3.1zm0-3c-.4 0-.7.1-1 .1c-.3.1-.5.2-.7.3c-.2.1-.4.2-.5.3c-.1.2-.2.3-.2.5c0 .2.1.3.2.5c.1.1.3.3.5.4c.2.1.4.1.7.2c.3 0 .6.1 1 .1c.7 0 1.2-.1 1.6-.3c.5-.3.7-.5.7-.9c0-.4-.2-.6-.6-.8c-.5-.2-1-.4-1.7-.4zm-4.2 3.8h8.3v.7H172v1.8h-.9v-1.8h-3.8v-.7zm1.9 1.6v2h5.5v.7h-6.3v-2.7h.8zm14.6-1.9v.7h-6.2v-4.2h6.1v.7h-5.3v2.8h5.4zm-7.3 2.9h8.3v.7h-8.3v-.7zm9.4-6.7v-1.1h1.1s-.04 1.08 0 1.1c0 .2-.1.3-.1.5c0 .2-.1.3-.2.5l-.3.3c-.2.1-.3.1-.5.1v-.4c.1 0 .2-.1.3-.1c0-.1.1-.2.1-.3c.1-.1.1-.2.1-.3v-.3c.05-.02-.5 0-.5 0zm8.7-.6h.8v9.2h-.8V56zm-3.7.7c.4 0 .7.1 1 .2c.3.1.5.2.8.4c.2.2.3.4.5.7c.1.3.2.5.2.9c0 .3-.1.6-.2.8c-.2.3-.3.5-.5.7c-.3.2-.5.4-.8.5c-.3.1-.6.1-1 .1c-.4 0-.7 0-1-.1c-.3-.1-.5-.3-.8-.5c-.2-.2-.3-.4-.5-.7c-.1-.2-.1-.5-.1-.8c0-.4 0-.6.1-.9c.2-.3.3-.5.5-.7c.3-.2.5-.3.8-.4c.3-.1.6-.2 1-.2zm0 .7c-.2 0-.5.1-.7.1c-.2.1-.3.2-.5.3c-.1.2-.2.3-.3.5c-.1.2-.1.3-.1.6c0 .2 0 .4.1.5c.1.2.2.4.3.5c.2.1.3.2.5.3c.2.1.5.1.7.1c.2 0 .5 0 .7-.1c.2-.1.3-.2.5-.3c.1-.1.2-.3.3-.5c.1-.1.1-.3.1-.5c0-.3 0-.4-.1-.6c-.1-.2-.2-.3-.3-.5c-.2-.1-.3-.2-.5-.3c-.2 0-.5-.1-.7-.1zm-2.8 5.8l-.1-.7h1.4c.4 0 .9 0 1.4-.1h1.6c.5-.1 1-.1 1.6-.2v.6c-.5.1-1 .2-1.5.2c-.6.1-1.1.1-1.6.1c-.5.1-1 .1-1.5.1h-1.3zm18.3-6.7v3.2h-6.1v-3.2h6.1zm-.8 2.5v-1.9h-4.5v1.9h4.5zm-6.4 1.7h8.3v.7h-3.7v1.8h-.8v-1.8h-3.8v-.7zm1.9 1.7v1.9h5.5v.7h-6.4v-2.6h.9zm15.8-2.5v.7h-1.5v4.6h-.8V56h.8v3.9h1.5zm-3-2.7v.6h-5.5v-.6h2.4v-1.1h.8v1.1h2.3zm-2.3 4.5v1c.4 0 .8-.1 1.2-.1c.4 0 .9-.1 1.2-.1l.1.6c-.5.1-1 .1-1.5.2c-.5 0-1 .1-1.5.1c-.5 0-1 0-1.4.1h-1.3l-.1-.7c.3 0 .7 0 1.2-.1h1.3v-1c-.6 0-1-.2-1.3-.5c-.3-.3-.5-.7-.5-1.2c0-.2.1-.4.2-.6c.1-.3.2-.4.4-.6c.2-.1.4-.2.7-.3c.3-.1.6-.1.9-.1c.3 0 .6 0 .8.1c.3.1.5.2.7.3c.2.2.4.3.5.6c.1.2.1.4.1.6c0 .5-.1.9-.4 1.2c-.4.3-.8.5-1.3.5zm-1.8-1.7c0 .4.1.6.4.8c.2.2.6.3 1 .3c.4 0 .7-.1 1-.3c.2-.2.3-.4.3-.8c0-.3-.1-.5-.3-.7c-.3-.2-.6-.3-1-.3c-.4 0-.8.1-1 .3c-.3.2-.4.4-.4.7zm14.7-4h.8v9.2h-.8V56zm-1.8 2.3v-2.1h.8v8.5h-.8v-3s-1.38.03-1.4 0c-.1.5-.4.9-.6 1.1c-.3.3-.7.4-1.1.4c-.3 0-.5-.1-.8-.2c-.2-.2-.4-.4-.6-.7c-.2-.3-.3-.6-.4-1c-.1-.4-.1-.8-.1-1.3c0-.5 0-.9.1-1.3c.1-.4.2-.8.4-1c.2-.3.4-.5.6-.7c.3-.1.5-.2.8-.2c.4 0 .8.1 1.1.4c.2.2.5.6.6 1.1c.02-.05 1.4 0 1.4 0zm-3.1 4.1c.4 0 .7-.2.9-.6c.2-.5.3-1.1.3-1.8c0-.8-.1-1.3-.3-1.8c-.2-.4-.5-.6-.9-.6c-.4 0-.6.2-.9.6c-.2.5-.3 1-.3 1.8c0 .7.1 1.3.3 1.8c.3.4.5.6.9.6zm1.9-1.4c-.01.04 1.2 0 1.2 0v-2.1s-1.21.04-1.2 0c0 .2 0 .4.1.5v1.1c-.1.2-.1.4-.1.5zm13.1-2.4l-.3.7l-1.1-.3c-.3-.1-.7-.2-1-.4c-.3-.1-.5-.3-.8-.5c-.2-.2-.4-.4-.5-.7c-.2.3-.4.5-.6.7c-.2.2-.5.4-.8.5c-.3.2-.6.3-1 .4l-1 .3l-.3-.7c.4 0 .8-.1 1.2-.2c.4-.2.7-.3 1-.5c.3-.2.6-.4.8-.7c.2-.2.2-.5.2-.8c.05.03 0-.3 0-.3h.9v.3c0 .3.1.6.3.8c.2.3.4.5.7.7c.3.2.7.3 1 .5c.4.1.8.2 1.3.2zm.4 1.9h-3.7v.9h2.6v2.1h-5.3v.9h5.6v.7h-6.4v-2.2h5.3v-.8h-5.4v-.7h2.7v-.9h-3.7v-.6h8.3v.6zm10.1-1.5h1.3v.7h-1.3v3.2h-.8V56h.8v3zm-2.3.9h-.8c.1-.6.2-1 .2-1.4v-1.1c.02.04-3.7 0-3.7 0v-.6h4.5s.03.43 0 .4v1.2c0 .4-.1.9-.2 1.5zm.9.6v.6c-.4.1-.9.2-1.4.2c-.5.1-1 .1-1.5.1c-.5 0-1 .1-1.5.1H238l-.1-.7h2c-.03-.03 0-2 0-2h.8v1.9h1.5c.5-.1 1-.1 1.5-.2zm-3.5 1.8v2h5.2v.7h-6.1v-2.7h.9zm13.7.5v-2.5h-1.8v-.7h1.8v-1.3h-1.8v-.7h1.8v-1.5h.8v6.7h-.8zm-1.9-2.2l.1.7c-.3.1-.6.1-.8.1c-.3.1-.6.1-.9.1h-2.2c.02.05-.6 0-.6 0v-2.8h3v-1.3h-3.1v-.7h4v2.7h-3.1s-.02 1.47 0 1.5h1.1c.3-.1.6-.1.9-.1c.3 0 .6 0 .8-.1c.3 0 .5 0 .8-.1zm-2.4 3.7h5.4v.6h-6.2v-2.6h.8v2zm17.4-4.5v.6h-1.5v4.8h-.9v-9.1h.9v3.7h1.5zm-5.5-3s.01 1.68 0 1.7c0 .4.1.8.2 1.2c.1.4.3.7.5 1.1c.2.3.4.7.7.9c.3.3.6.5.9.7l-.5.7c-.5-.3-.9-.7-1.3-1.2c-.4-.5-.7-1-.9-1.7c-.2.7-.5 1.3-.9 1.8c-.4.5-.9 1-1.4 1.2l-.5-.6c.4-.2.7-.4.9-.7c.3-.3.6-.6.8-1c.2-.4.4-.8.5-1.2c.1-.4.2-.8.2-1.2c-.02-.02 0-1.7 0-1.7h.8zm11.9.4v.6h-5.5v-.6h2.3v-1.1h.9v1.1h2.3zm.8-1.1h.9v9.1h-.9v-9.1zm-3.1 5.6v1c.4 0 .8-.1 1.3-.1c.4 0 .8-.1 1.3-.1v.6c-.5.1-1 .1-1.5.2c-.6 0-1.1.1-1.6.1h-1.5c-.4.1-.9.1-1.3.1l-.1-.7c.4 0 .8-.1 1.2-.1h1.3v-1c-.5 0-1-.2-1.3-.5c-.3-.3-.5-.7-.5-1.2c0-.2.1-.4.2-.6c.1-.3.3-.4.4-.6c.2-.1.5-.2.7-.3c.3-.1.6-.1.9-.1c.4 0 .7 0 .9.1c.3.1.5.2.7.3c.2.2.4.3.5.6c.1.2.1.4.1.6c0 .5-.1.9-.4 1.2c-.4.3-.8.5-1.3.5zm-1.9-1.7c0 .4.2.6.4.8c.3.2.6.3 1 .3c.5 0 .8-.1 1.1-.3c.2-.2.3-.4.3-.8c0-.3-.1-.5-.3-.7c-.3-.2-.6-.3-1.1-.3c-.4 0-.7.1-1 .3c-.2.2-.4.4-.4.7zm14.3-4h.8v5.5h-.8v-2.4h-1.8v-.7h1.8V56zm-1.3 4.5l-.4.7c-.5-.2-1-.5-1.4-.9c-.3-.3-.6-.7-.8-1.2c-.2.5-.5 1-.9 1.4c-.4.4-.9.7-1.4.9l-.5-.7c.4-.1.7-.3 1-.5c.2-.2.5-.4.7-.7c.2-.2.4-.5.5-.8c.1-.3.1-.7.1-1c.03.01 0-.4 0-.4h-2v-.6h4.9v.6h-2s-.03.41 0 .4c0 .3 0 .6.1.9c.1.3.3.5.5.8c.2.2.4.5.7.6c.3.2.6.4.9.5zm-4 2.2v-.7h6.1v3.2h-.8v-2.5h-5.3zm14.4-6.7h.9v9.2h-.9V56zm-6.1 1s4.3.03 4.3 0c0 .7-.1 1.3-.2 1.9c-.2.7-.4 1.2-.8 1.8c-.3.5-.8 1-1.3 1.5c-.5.5-1.2.9-2 1.3l-.4-.7c1.2-.6 2.2-1.3 2.8-2.2c.6-.8 1-1.8 1.1-2.9h-3.5v-.7zm15.3-.9h.9v4.9h-.9v-2.1s-1.81.01-1.8 0c-.1.6-.3 1-.8 1.3c-.4.3-.9.5-1.5.5c-.4 0-.7 0-1-.2c-.3-.1-.5-.2-.7-.4c-.2-.2-.4-.4-.5-.7c-.1-.2-.2-.5-.2-.8c0-.3.1-.6.2-.9c.1-.2.3-.5.5-.6c.2-.2.4-.4.7-.5c.3-.1.6-.1 1-.1c.3 0 .5 0 .8.1c.3.1.5.2.7.4c.2.1.4.3.5.5c.2.2.2.5.3.7c-.02.02 1.8 0 1.8 0v-2.1zm-4.1 3.9c.2 0 .4 0 .6-.1c.2-.1.3-.2.5-.3c.1-.1.2-.3.3-.4c.1-.2.1-.4.1-.6c0-.2 0-.4-.1-.6c-.1-.2-.2-.3-.3-.4c-.2-.2-.3-.3-.5-.3c-.2-.1-.4-.1-.6-.1c-.3 0-.5 0-.7.1c-.2 0-.3.1-.5.3c-.1.1-.2.2-.3.4c-.1.2-.1.4-.1.6c0 .2 0 .4.1.6c.1.1.2.3.3.4c.2.1.3.2.5.3c.2.1.4.1.7.1zm4.2 2.6v-1.2h.8v3.7h-5.9v-3.7h.9v1.2h4.2zm0 1.8v-1.2h-4.2v1.2h4.2zm5.6-5.3l-.9-.1c0-.4.1-.7.3-.9c.1-.3.3-.5.5-.7c.2-.2.5-.3.8-.4c.2-.1.5-.2.9-.2c.3 0 .6.1.9.2c.2.1.5.2.6.4c.2.1.4.4.5.6c.1.2.2.5.2.8c0 .5-.1.8-.4 1.1c-.2.3-.5.5-.9.6c.9.3 1.4.9 1.4 1.8c0 .4 0 .7-.2 1c-.1.2-.3.5-.5.7c-.2.2-.5.3-.8.4c-.3.1-.6.2-1 .2c-.4 0-.7-.1-1-.2c-.3-.1-.5-.2-.7-.4c-.2-.2-.4-.4-.5-.6c-.1-.3-.2-.5-.3-.8l.8-.3c0 .1.1.2.2.4c.1.3.3.6.6.8c.2.2.5.3.9.3c.3 0 .5-.1.7-.2c.2-.1.4-.2.5-.3c.1-.1.2-.3.3-.5c.1-.1.1-.3.1-.5c0-.2 0-.3-.1-.5c0-.2-.1-.3-.3-.5c-.1-.1-.3-.2-.6-.2c-.2-.1-.5-.2-.9-.2v-.6c.3 0 .6-.1.8-.1c.2-.1.4-.2.5-.3c.2-.1.3-.3.4-.4v-.6c0-.4-.1-.7-.3-.9c-.3-.2-.6-.3-1-.3c-.2 0-.4 0-.6.1c-.2 0-.3.1-.5.3c-.1.1-.2.3-.3.4c0 .2-.1.4-.1.6zm11.5-3h.8v5.4h-.8v-5.4zm-1.1 3.9l.1.7c-.3 0-.7.1-1 .1c-.3 0-.6.1-1 .1h-2.4c-.04.05-.8 0-.8 0v-4.3h4.4v.7h-3.6v1.1h3.3v.7h-3.3s.05 1.17 0 1.2h1.3c.4 0 .8-.1 1.1-.1h1c.3-.1.6-.1.9-.2zm-4 5.1V62h5.9v3.1h-5.9zm.8-2.5v1.8h4.3v-1.8h-4.3zm11.3.7h3.8v.7h-8.3v-.7h3.7V61h-2.7v-4.2h6.2v.7h-5.3v2.8h5.4v.7H326v2.3zm13.7-7.2h.8v9.1h-.8v-9.1zm-1.7 3.4v-3.2h.8v8.4h-.8v-4.4h-1.3v-.8h1.3zm-1.8-1.6s.04 4.22 0 4.2h.5c.2 0 .4-.1.5-.1l.1.6c-.4.1-.8.2-1.2.2c-.4 0-.8.1-1.2.1h-2.2c.02.04-.1-.7-.1-.7c0 0 .71.04.7 0h.3c-.03.03 0-4.3 0-4.3h-.8v-.7h4.2v.7h-.8zm-1.9 0s.03 4.31 0 4.3h1.2c-.02-.03 0-4.3 0-4.3h-1.2zm15.5 2.7l-.4.7c-.3 0-.7-.2-1-.3c-.4-.2-.7-.4-1-.6c-.3-.2-.6-.5-.8-.8l-.6-.9c-.1.3-.3.6-.6.9c-.2.3-.5.6-.8.8l-.9.6c-.4.1-.7.3-1.1.3l-.3-.7c.4 0 .8-.2 1.2-.4c.3-.2.7-.4 1-.7c.3-.3.6-.6.8-1c.2-.3.3-.7.3-1.1c-.02-.01 0-.7 0-.7h.9s-.04.69 0 .7c0 .4.1.7.3 1.1c.2.4.4.7.7 1c.3.3.7.5 1.1.7c.4.2.8.4 1.2.4zm-7.9 2.7h8.3v.7h-8.3v-.7zm15.9-7.3h.8v9.2h-.8V56zm-5.3 4.1v2.2h1.2c.3 0 .7 0 1-.1h1c.3-.1.7-.1 1-.2l.1.7c-.4 0-.7.1-1 .1c-.4.1-.7.1-1.1.1c-.3 0-.7.1-1.1.1h-1.9v-6.1h4.4v.7h-3.6v1.8h3.3v.7h-3.3zm12.4-1.3v1.6h-4.2v-3.9h.9v1.3h2.4v-1.3h.9v1.6h2.1v-2h.8v4.7h-.8v-2h-2.1zm-.9 1v-1.4h-2.4v1.4h2.4zm-1.2 4.6h5.3v.7h-6.2v-2.3h5.1v-.9h-5.1v-.6h5.9v2.1h-5v1zm13.6-8.4h.8v9.2h-.8V56zm-1.8 3.6v-3.4h.8v8.5h-.8v-4.4s-1.14-.02-1.1 0c-.1.4-.1.8-.2 1.2c-.1.3-.2.7-.4.9c-.2.3-.4.4-.6.6c-.2.1-.5.2-.8.2c-.3 0-.5-.1-.8-.2c-.2-.2-.4-.4-.6-.7c-.2-.3-.3-.6-.4-1c-.1-.4-.1-.8-.1-1.3c0-.5 0-1 .1-1.3c.1-.4.2-.8.4-1c.2-.3.4-.5.6-.7c.3-.1.5-.2.8-.2c.3 0 .6.1.8.2c.2.1.4.3.6.6c.1.2.3.5.4.8c.1.4.1.8.2 1.2h1.1zm-3.1 2.8c.4 0 .7-.2.9-.6c.2-.5.3-1.1.3-1.8c0-.4 0-.7-.1-1c0-.3-.1-.6-.2-.8c-.1-.2-.2-.3-.4-.5c-.1-.1-.3-.1-.5-.1c-.3 0-.6.2-.8.6c-.3.5-.4 1-.4 1.8c0 .7.1 1.3.4 1.8c.2.4.5.6.8.6z" stroke="none" fill="#111111"/></g><g id="Polygon111307"><path d="m7.9 40.3v.7H1.6v-3.1h6.2v.7H2.4v1.7h5.5zM.5 41.9h8.3v.7H.5v-.7zm4.2 1.5c.9 0 1.7.1 2.3.4c.5.3.8.7.8 1.2c0 .6-.3 1-.8 1.3c-.6.2-1.4.4-2.3.4c-1 0-1.8-.2-2.3-.4c-.6-.3-.9-.7-.9-1.3c0-.5.3-.9.9-1.2c.5-.3 1.3-.4 2.3-.4zm0 2.6c.7 0 1.3-.1 1.7-.2c.4-.2.6-.4.6-.8c0-.3-.2-.5-.6-.7c-.4-.2-1-.3-1.7-.3c-.7 0-1.3.1-1.7.3c-.4.2-.6.4-.6.7c0 .4.2.6.6.8c.4.1 1 .2 1.7.2zm11.7-8.5h.8v9.2h-.8v-9.2zm-4 .7c.3 0 .6.1.9.3c.3.1.6.3.8.6c.2.3.3.6.4 1c.2.4.2.8.2 1.3c0 .5 0 1-.2 1.4c-.1.3-.2.7-.4 1c-.2.2-.5.5-.8.6c-.3.2-.6.2-.9.2c-.4 0-.7 0-1-.2c-.2-.1-.5-.4-.7-.6c-.2-.3-.4-.7-.5-1c-.1-.4-.1-.9-.1-1.4c0-.5 0-.9.1-1.3c.1-.4.3-.7.5-1c.2-.3.5-.5.7-.6c.3-.2.6-.3 1-.3zm0 .8c-.2 0-.4.1-.6.2c-.2.1-.4.3-.5.5c-.2.2-.3.4-.3.7c-.1.3-.1.7-.1 1c0 .4 0 .7.1 1c0 .3.1.6.3.8c.1.2.3.4.5.5c.2.1.4.2.6.2c.2 0 .4-.1.6-.2c.2-.1.3-.3.5-.5c.1-.2.2-.5.3-.8c.1-.3.1-.6.1-1c0-.3 0-.7-.1-1c-.1-.3-.2-.5-.3-.7c-.2-.2-.3-.4-.5-.5c-.2-.1-.4-.2-.6-.2zm13.9 3l-.4.6c-.5-.2-.9-.4-1.3-.7c-.4-.4-.7-.7-.9-1.2c-.2.5-.5.9-.9 1.3c-.4.3-.9.6-1.4.8l-.4-.7c.3-.1.6-.2.9-.4c.3-.2.5-.4.7-.6c.2-.3.4-.5.5-.8c.1-.3.2-.6.2-.9c-.03.03 0-.1 0-.1h-2.1v-.7h2.1v-1.1h.8v1.1h2v.7h-2v.1c0 .3.1.6.2.8c.1.3.2.5.4.8c.2.2.4.4.7.5c.3.2.6.4.9.5zm3.1-2.1v.6h-1.3v2.5h-.9v-5.5h.9v2.4h1.3zm-7.1 6.7v-3.2h5.8v3.2h-5.8zm.9-2.6v1.9h4.1V44h-4.1zm13.7-6.5h.8v9.2h-.8v-3.5s-2.32-.04-2.3 0c-.2.4-.5.8-.8 1c-.3.3-.7.4-1.2.4c-.3 0-.6 0-.9-.2c-.3-.1-.5-.4-.7-.6c-.2-.3-.4-.7-.5-1c-.1-.4-.2-.9-.2-1.4c0-.5.1-.9.2-1.3c.1-.4.3-.7.5-1c.2-.3.4-.5.7-.6c.3-.2.6-.3.9-.3c.4 0 .8.2 1.1.4c.4.2.6.6.8 1h2.4v-2.1zm-4.3 6.4c.2 0 .4-.1.6-.2c.2-.1.3-.3.5-.5c.1-.2.2-.5.3-.8c.1-.3.1-.6.1-1c0-.3 0-.7-.1-1c-.1-.3-.2-.5-.3-.7c-.2-.2-.3-.4-.5-.5c-.2-.1-.4-.2-.6-.2c-.2 0-.4.1-.6.2c-.2.1-.3.3-.5.5c-.1.2-.2.4-.3.7c0 .3-.1.7-.1 1c0 .4.1.7.1 1c.1.3.2.6.3.8c.2.2.3.4.5.5c.2.1.4.2.6.2zm2.3-2.5c0 .5-.1.8-.1 1.1c-.02-.02 2.1 0 2.1 0v-2.2s-2.15-.03-2.1 0v.5c.1.2.1.4.1.6zm11.4-3.9h.8v9.2h-.8v-4.6h-1.2v4.1h-.8v-8.5h.8v3.7h1.2v-3.9zm-4.3.3v1.3h1.9v.7h-4.6v-.7h1.9v-1.3h.8zm-.4 2.6c.3 0 .6 0 .8.1c.2.2.4.3.6.5c.2.2.3.4.4.6c.1.3.2.6.2.9c0 .3-.1.6-.2.8c-.1.3-.2.5-.4.7c-.2.2-.4.3-.6.4c-.2.1-.5.2-.8.2c-.3 0-.5-.1-.8-.2c-.2-.1-.4-.2-.6-.4c-.2-.2-.3-.4-.4-.7c-.1-.2-.2-.5-.2-.8c0-.3.1-.6.2-.9c.1-.2.2-.4.4-.6c.2-.2.4-.3.6-.5c.3-.1.5-.1.8-.1zm0 3.5c.4 0 .6-.2.9-.4c.2-.3.3-.6.3-1c0-.2 0-.4-.1-.6c0-.1-.1-.3-.2-.4c-.1-.1-.3-.2-.4-.3c-.2-.1-.3-.1-.5-.1c-.4 0-.7.1-.9.4c-.2.2-.3.6-.3 1c0 .4.1.7.3 1c.3.2.6.4.9.4zM57.8 38v3.2h-6.1V38h6.1zm-.8 2.5v-1.9h-4.5v1.9h4.5zm-6.4 1.7h8.3v.7h-3.7v1.8h-.8v-1.8h-3.8v-.7zm1.9 1.7v1.9h5.5v.7h-6.4v-2.6h.9zm15.8-2.5v.7h-1.5v4.6h-.8v-9.2h.8v3.9h1.5zm-3-2.7v.6h-5.5v-.6h2.4v-1.1h.8v1.1h2.3zM63 43.2v1c.4 0 .8-.1 1.2-.1c.5 0 .9-.1 1.3-.1v.6c-.5.1-1 .1-1.5.2c-.5 0-1 .1-1.5.1c-.5 0-1 0-1.4.1h-1.3l-.1-.7c.3 0 .7 0 1.2-.1h1.3v-1c-.6 0-1-.2-1.3-.5c-.3-.3-.5-.7-.5-1.2c0-.2.1-.4.2-.6c.1-.3.2-.4.4-.6c.2-.1.4-.2.7-.3c.3-.1.6-.1.9-.1c.3 0 .6 0 .9.1l.6.3c.2.2.4.3.5.6c.1.2.1.4.1.6c0 .5-.1.9-.4 1.2c-.4.3-.8.5-1.3.5zm-1.8-1.7c0 .4.1.6.4.8c.2.2.6.3 1 .3c.4 0 .7-.1 1-.3c.2-.2.3-.4.3-.8c0-.3-.1-.5-.3-.7c-.3-.2-.6-.3-1-.3c-.4 0-.8.1-1 .3c-.3.2-.4.4-.4.7zm14.7-4h.8v9.2h-.8v-9.2zm-1.8 2.3v-2.1h.8v8.5h-.8v-3s-1.37.03-1.4 0c-.1.5-.4.9-.6 1.1c-.3.3-.7.4-1.1.4c-.3 0-.5-.1-.8-.2c-.2-.2-.4-.4-.6-.7c-.2-.3-.3-.6-.4-1c-.1-.4-.1-.8-.1-1.3c0-.5 0-.9.1-1.3c.1-.4.2-.8.4-1c.2-.3.4-.5.6-.7c.3-.1.5-.2.8-.2c.4 0 .8.1 1.1.4c.2.2.5.6.6 1.1c.03-.05 1.4 0 1.4 0zM71 43.9c.4 0 .7-.2.9-.6c.2-.5.3-1.1.3-1.8c0-.8-.1-1.3-.3-1.8c-.2-.4-.5-.6-.9-.6c-.3 0-.6.2-.8.6c-.3.5-.4 1-.4 1.8c0 .7.1 1.3.4 1.8c.2.4.5.6.8.6zm1.9-1.4c0 .04 1.2 0 1.2 0v-2.1s-1.2.04-1.2 0c0 .2 0 .4.1.5v1.1c-.1.2-.1.4-.1.5zM86 40.1l-.3.7l-1.1-.3c-.3-.1-.7-.2-1-.4c-.2-.1-.5-.3-.8-.5c-.2-.2-.4-.4-.5-.7c-.2.3-.4.5-.6.7c-.2.2-.5.4-.8.5c-.3.2-.6.3-1 .4l-1 .3l-.3-.7c.4 0 .8-.1 1.2-.2c.4-.2.7-.3 1-.5c.4-.2.6-.4.8-.7c.2-.2.3-.5.3-.8c-.05.03 0-.3 0-.3h.8v.3c0 .3.1.6.3.8c.2.3.4.5.7.7c.3.2.7.3 1.1.5c.3.1.8.2 1.2.2zm.4 1.9h-3.7v.9h2.7v2.1H80v.9h5.6v.7h-6.4v-2.2h5.3v-.8h-5.4v-.7h2.8v-.9h-3.8v-.6h8.3v.6zm7.9-2.1h1.8v-2.3h.8v5.4h-.8v-2.4h-1.8v-.7zm.5 2.1l-.4.7c-.5-.2-1-.5-1.4-.9c-.3-.3-.6-.7-.8-1.2c-.2.5-.5 1-.9 1.4c-.4.4-.9.7-1.4.9l-.5-.6c.4-.2.7-.3 1-.5c.2-.3.5-.5.7-.8c.2-.2.4-.5.5-.8c.1-.4.1-.7.1-1c.04 0 0-.3 0-.3h-2v-.7h4.9v.7h-2s-.03.3 0 .3c0 .3 0 .6.1.9c.1.3.3.5.5.8c.2.2.4.4.7.6c.3.2.6.4.9.5zm-.9 1.3c.5 0 .9 0 1.3.1c.4.1.7.2.9.3c.3.2.5.4.7.6c.1.2.2.4.2.7c0 .3-.1.5-.2.7c-.2.2-.4.4-.7.5c-.2.2-.5.3-.9.4c-.4.1-.8.1-1.3.1c-.4 0-.9 0-1.2-.1c-.4-.1-.7-.2-1-.4c-.3-.1-.5-.3-.6-.5c-.2-.2-.2-.4-.2-.7c0-.3 0-.5.2-.7c.1-.2.3-.4.6-.6c.3-.1.6-.2 1-.3c.3-.1.8-.1 1.2-.1zm0 2.7c.7 0 1.3-.1 1.7-.2c.3-.2.5-.5.5-.8c0-.3-.2-.6-.5-.8c-.4-.2-1-.3-1.7-.3c-.7 0-1.2.1-1.6.3c-.4.2-.6.5-.6.8c0 .3.2.6.6.8c.4.1.9.2 1.6.2zm9.2-1.2h3.8v.7h-8.3v-.7h3.7v-1.9h-2.7v-4.7h.8v1.6h4.7v-1.6h.8v4.7h-2.8v1.9zm-2.7-4.3v1.7h4.7v-1.7h-4.7zm16.4-3h.8v9.2h-.8v-9.2zm-1.8 3.3v-3.1h.8v8.5h-.8v-4.7h-1.5v-.7h1.5zm-2.5-1.5s.03.82 0 .8c0 .4.1.8.2 1.2c0 .4.2.8.3 1.1c.2.3.4.7.6.9c.3.3.6.5.9.7l-.5.6c-.5-.2-.9-.6-1.2-1.1c-.3-.4-.5-.9-.7-1.5c-.1.6-.4 1.2-.7 1.7c-.3.5-.7.9-1.2 1.2l-.5-.7c.4-.2.6-.4.9-.7c.2-.3.4-.6.6-1c.2-.3.3-.7.4-1.1c.1-.4.1-.9.1-1.3c.02.02 0-.8 0-.8H110v-.7h4.2v.7h-1.7zm12.9-.5c.02-.02 0-.1 0-.1H120v-.7h6.2s.04.78 0 .8v1.1c0 .4-.1.8-.2 1.3l-.8-.1c.1-.5.2-.9.2-1.2v-1.1zm-2.1 3h4v.7H119v-.7h3.4V40h.9v1.8zm-.2 1.5c.5 0 1 .1 1.3.1c.4.1.8.2 1 .4c.3.1.5.3.7.5c.1.2.2.4.2.7c0 .3-.1.5-.2.7c-.2.2-.4.4-.7.5c-.2.2-.6.3-1 .4c-.3 0-.8.1-1.3.1c-.5 0-.9-.1-1.3-.1c-.4-.1-.7-.2-1-.4c-.3-.1-.5-.3-.6-.5c-.2-.2-.3-.4-.3-.7c0-.3.1-.5.3-.7c.1-.2.3-.4.6-.5c.3-.2.6-.3 1-.4c.4 0 .8-.1 1.3-.1zm0 2.7c.7 0 1.3-.1 1.7-.2c.5-.2.7-.5.7-.8c0-.3-.2-.6-.7-.8c-.4-.1-1-.2-1.7-.2c-.7 0-1.3.1-1.7.2c-.4.2-.6.5-.6.8c0 .3.2.6.6.8c.4.1 1 .2 1.7.2zm14.7-8.5v5.3h-.9v-5.3h.9zm-2.8.6v3.8h-4.2v-3.8h4.2zm-.8 3.1v-2.4h-2.6v2.4h2.6zm3.8 2.9s-2.69-.04-2.7 0c0 .2.1.4.3.6c.1.2.4.4.6.6c.3.2.6.3 1 .5c.3.1.7.2 1.1.2l-.3.7c-.3-.1-.6-.2-1-.3l-.9-.3c-.2-.2-.5-.3-.7-.5c-.2-.2-.4-.4-.5-.6c-.1.2-.3.4-.5.6c-.3.2-.5.3-.8.5l-.9.3l-1 .3l-.3-.7c.4 0 .8-.1 1.2-.2c.3-.2.6-.3.9-.5c.3-.2.5-.4.7-.6c.2-.2.3-.4.3-.6c-.04-.04-2.7 0-2.7 0v-.7h2.7v-.9h.8v.9h2.7v.7zm10-4.6v-.4h-5.6v-.6h6.4s.05.97 0 1v1.8c0 .3 0 .7-.1 1c0 .4-.1.8-.2 1.2l-.8-.1c.1-.7.2-1.3.3-1.9v-2zm-1.3 5.2h3.1v.7h-8.3v-.7h2.1v-3h.8v3h1.4v-3h.9v3zm10.5-5.1v-1h-5.5v-.7h6.3v2.4h-5.4v1.1h5.6v.6h-6.5v-2.4h5.5zM159 43v.7h-2.1v3h-.9v-3h-2.3v3h-.8v-3h-2.2v-.7h8.3zm3.4-1.3v1h-.9v-1h.9zm10.4-3.4v.7h-7.4v-.7h3.3v-.9h.9v.9h3.2zm-3.2 4.4h3.7v.6H165v-.6h3.7s.03-.76 0-.8c-.8 0-1.4-.1-1.9-.3c-.4-.3-.6-.6-.6-1c0-.4.2-.7.7-.9c.5-.3 1.3-.4 2.2-.4c1 0 1.7.1 2.2.4c.5.2.8.5.8.9c0 .4-.2.7-.7 1c-.4.2-1 .3-1.8.3c-.04.04 0 .8 0 .8zm-2.5-2.1c0 .3.1.4.5.6c.3.1.9.2 1.5.2c.7 0 1.2-.1 1.6-.2c.3-.2.5-.3.5-.6c0-.2-.2-.4-.5-.5c-.4-.1-.9-.2-1.6-.2c-.6 0-1.2.1-1.5.2c-.4.1-.5.3-.5.5zm2 3.3c1.1 0 1.8.1 2.4.3c.5.3.8.6.8 1.1c0 .4-.3.8-.8 1c-.6.3-1.3.4-2.4.4c-1 0-1.8-.1-2.3-.4c-.5-.2-.8-.6-.8-1c0-.5.3-.8.8-1.1c.5-.2 1.3-.3 2.3-.3zm0 2.2c.8 0 1.3-.1 1.7-.2c.4-.2.6-.4.6-.6c0-.3-.2-.5-.6-.6c-.4-.1-.9-.2-1.7-.2c-.7 0-1.3.1-1.7.2c-.3.1-.5.3-.5.6c0 .2.2.4.5.6c.4.1 1 .2 1.7.2zm9.6-1.3h3.8v.7h-8.3v-.7h3.7v-1.9h-2.7v-4.7h.8v1.6h4.7v-1.6h.8v4.7h-2.8v1.9zm-2.7-4.3v1.7h4.7v-1.7H176zm14-3h.8v9.2h-.8v-9.2zm-3.7.7c.4 0 .7.1 1 .2c.3.1.6.2.8.4c.2.2.4.4.5.7c.1.3.2.5.2.9c0 .3-.1.6-.2.8c-.1.3-.3.5-.5.7c-.2.2-.5.4-.8.5c-.3.1-.6.1-1 .1c-.3 0-.6 0-.9-.1c-.3-.1-.6-.3-.8-.5c-.2-.2-.4-.4-.5-.7c-.2-.2-.2-.5-.2-.8c0-.4 0-.6.2-.9c.1-.3.3-.5.5-.7c.2-.2.5-.3.8-.4c.3-.1.6-.2.9-.2zm0 .7c-.2 0-.4.1-.6.1c-.2.1-.4.2-.5.3c-.2.2-.3.3-.4.5c-.1.2-.1.3-.1.6c0 .2 0 .4.1.5c.1.2.2.4.4.5c.1.1.3.2.5.3c.2.1.4.1.6.1c.3 0 .5 0 .7-.1c.2-.1.4-.2.5-.3c.1-.1.3-.3.3-.5c.1-.1.2-.3.2-.5c0-.3-.1-.4-.2-.6c0-.2-.2-.3-.3-.5c-.1-.1-.3-.2-.5-.3c-.2 0-.4-.1-.7-.1zm-2.8 5.8l-.1-.7h1.4c.5 0 1 0 1.5-.1h1.5c.6-.1 1.1-.1 1.6-.2l.1.6c-.6.1-1.1.2-1.6.2c-.5.1-1.1.1-1.6.1c-.5.1-1 .1-1.4.1h-1.4zm18.2-4.8h1.4v.7h-1.4v2.5h-.8v-5.5h.8v2.3zm-1.8 2.1l-.4.6c-.5-.1-1-.4-1.3-.7c-.4-.4-.7-.8-.9-1.2c-.2.5-.5.9-.9 1.3c-.4.4-.8.7-1.4.9l-.4-.7c.3-.1.6-.3.9-.5c.3-.2.6-.4.8-.6c.2-.3.3-.6.4-.9c.1-.3.2-.6.2-.9c-.02-.05 0-.4 0-.4h-2.1v-.7h4.9v.7h-2s.02.35 0 .4c0 .3.1.5.2.8c.1.3.2.6.4.8c.2.2.4.4.7.6c.3.2.6.4.9.5zm-1.1 1.3c.5 0 .9 0 1.3.1c.3.1.7.2.9.3c.3.2.5.4.6.6c.2.2.2.4.2.7c0 .3 0 .5-.2.7c-.1.2-.3.4-.6.5c-.2.2-.6.3-.9.4c-.4 0-.8.1-1.3.1c-.9 0-1.7-.2-2.2-.5c-.5-.3-.8-.7-.8-1.2c0-.5.3-1 .8-1.3c.5-.2 1.3-.4 2.2-.4zm0 2.7c.7 0 1.2-.1 1.6-.3c.4-.1.6-.4.6-.7c0-.3-.2-.6-.6-.8c-.4-.1-.9-.2-1.6-.2c-.7 0-1.2.1-1.6.2c-.4.2-.6.5-.6.8c0 .3.2.6.6.7c.4.2.9.3 1.6.3zm9.1-5.1c-1 0-1.8-.2-2.3-.4c-.6-.3-.9-.7-.9-1.2c0-.5.3-.9.9-1.2c.5-.3 1.3-.4 2.3-.4c1 0 1.8.1 2.4.4c.6.3.8.7.8 1.2c0 .5-.2.9-.8 1.2c-.6.2-1.4.4-2.4.4zm0-2.6c-.7 0-1.3.1-1.7.3c-.4.1-.6.4-.6.7c0 .3.2.5.6.7c.4.2 1 .2 1.7.2c.8 0 1.4 0 1.8-.2c.4-.2.6-.4.6-.7c0-.3-.2-.6-.6-.7c-.4-.2-1-.3-1.8-.3zm-4.1 3.2h8.3v.7h-8.3v-.7zm1.8 3.5v.9h5.7v.7h-6.5v-2.2h5.4v-.8h-5.4v-.7h6.2v2.1h-5.4zm16.2-2.6v-1.3h-1.5v-.7h1.5v-.9h-1.5v-.6h1.5v-1.4h.8v4.9h-.8zm-1.4-1.2l.1.6c-.4.1-.9.2-1.4.2c-.4 0-.9.1-1.4.1h-2.5c-.01.03-.1-.7-.1-.7h1.1v-2.6h-.9v-.7h4.9v.7h-1s.05 2.53 0 2.5h.7c.2 0 .4 0 .5-.1zm-3.3-2.4s-.04 2.63 0 2.6h1.3c.03-.01 0-2.6 0-2.6h-1.3zm.5 7.1h5.4v.7h-6.3v-2.2h5.1v-.9h-5.1v-.6h5.9v2.1h-5v.9zm12.1-3.8l-.4.6c-.6-.1-1-.4-1.4-.7c-.4-.4-.7-.8-1-1.2c-.1.5-.4.9-.8 1.3c-.4.3-.9.6-1.4.8l-.4-.7c.3-.1.6-.2.9-.4c.3-.2.5-.4.7-.6c.2-.3.4-.5.5-.8c.1-.3.1-.6.1-.9c.03 0 0-.2 0-.2h-2v-.7h2v-1.1h.9v1.1h2v.7h-2s-.03.2 0 .2c0 .3 0 .6.1.8c.1.3.3.5.5.8c.2.2.4.4.7.6c.3.2.6.3 1 .4zm-.4-2.6h1.6v-2h.9v5.5h-.9v-1.2h-1.6v-.7h1.6v-.9h-1.6v-.7zm1.5 3.8s-.02.49 0 .5c0 .2 0 .5.1.7c.1.2.2.4.4.6c.1.2.3.4.6.6c.2.1.4.3.7.3l-.4.7c-.4-.2-.8-.4-1.1-.7c-.3-.3-.6-.7-.7-1c-.2.3-.4.7-.7 1c-.2.3-.6.6-1 .7c-.5-.1-.8-.4-1.1-.7c-.3-.3-.5-.6-.6-1c-.2.3-.4.7-.7 1c-.3.3-.7.5-1.1.7l-.4-.7c.2-.1.5-.2.7-.4c.3-.1.5-.3.6-.5c.2-.2.3-.4.4-.6c.1-.3.1-.5.1-.7v-.5h.8v.5c0 .4.1.8.3 1.2c.2.4.5.7 1 .9c.4-.3.7-.6.9-1c.3-.4.4-.7.4-1.1c-.03-.01 0-.5 0-.5h.8zm11.2-2.1v.6h-1.5v4.9h-.9v-9.2h.9v3.7h1.5zm-7.3-2.1s-.05 4.61 0 4.6h2.1c.4-.1.7-.1 1-.1c.3-.1.6-.1 1-.2l.1.7c-.4.1-.7.1-1.1.2c-.3 0-.6 0-1 .1h-2.3c.04.03-.7 0-.7 0v-6h4.3v.7h-3.4zm7.8 7v-1h.9v1h-.9z" stroke="none" fill="#111111"/></g><g id="Polygon111306"><path d="m7.5 19h.8v9.2h-.8V19zm-1.8 3.3v-3.1h.8v8.5h-.8V23H4.2v-.7h1.5zm-2.5-1.5s.02.82 0 .8c0 .4.1.8.2 1.2c0 .4.2.8.3 1.1c.2.3.4.7.6.9c.3.3.6.5.9.7l-.5.6c-.5-.2-.9-.6-1.2-1.1c-.3-.4-.5-.9-.7-1.5c-.1.6-.4 1.2-.7 1.7c-.3.5-.7.9-1.2 1.2l-.5-.7c.3-.2.6-.4.9-.7c.2-.3.4-.6.6-1c.2-.3.3-.7.4-1.1c.1-.4.1-.9.1-1.3c.02.02 0-.8 0-.8H.7v-.7h4.2v.7H3.2zm7.3 2.7l-.3-.7c.4 0 .8-.1 1.2-.3c.4-.1.7-.3 1-.6c.3-.2.5-.4.7-.7c.2-.3.3-.6.3-.9c-.01.04 0 0 0 0h-2.9v-.7h6.7v.7h-2.9s.02.04 0 0c0 .3.1.6.3.9c.2.3.4.5.7.7c.3.3.7.5 1 .6c.4.2.8.3 1.2.3l-.3.7l-1.1-.3c-.3-.1-.6-.3-.9-.4c-.3-.2-.6-.4-.8-.7c-.2-.2-.4-.4-.5-.7c-.2.3-.4.5-.6.7c-.2.3-.5.5-.8.7c-.3.1-.6.3-.9.4l-1.1.3zm7.5.8v.6h-3.7v3.3h-.9v-3.3H9.7v-.6h8.3zm9.9-5.3h.8v9.2h-.8v-4.6h-1.1v4.1h-.8v-8.5h.8v3.7h1.1V19zm-4.2.3v1.3h1.8v.7H21v-.7h1.8v-1.3h.9zm-.5 2.6c.3 0 .6 0 .8.1c.3.2.5.3.6.5c.2.2.4.4.5.6c.1.3.1.6.1.9c0 .3 0 .6-.1.8c-.1.3-.3.5-.5.7c-.1.2-.3.3-.6.4c-.2.1-.5.2-.8.2c-.2 0-.5-.1-.7-.2c-.3-.1-.5-.2-.7-.4c-.1-.2-.3-.4-.4-.7c-.1-.2-.1-.5-.1-.8c0-.3 0-.6.1-.9c.1-.2.3-.4.4-.6c.2-.2.4-.3.7-.5c.2-.1.5-.1.7-.1zm0 3.5c.4 0 .7-.2.9-.4c.2-.3.4-.6.4-1c0-.2-.1-.4-.1-.6c-.1-.1-.2-.3-.3-.4c-.1-.1-.2-.2-.4-.3c-.1-.1-.3-.1-.5-.1c-.3 0-.6.1-.8.4c-.3.2-.4.6-.4 1c0 .4.1.7.4 1c.2.2.5.4.8.4zM36.8 19h.8v9.2h-.8V19zm-6.1.8h.8v2.4h2.7v-2.4h.8v6.2h-4.3v-6.2zm.8 3.1v2.4h2.7v-2.4h-2.7zM46 19h.8v9.2h-.8V19zm-3.3 2.3v.7c0 .4.1.8.2 1.1c.1.4.3.7.5 1.1c.2.3.5.6.8.8c.3.3.6.5.9.6l-.5.7c-.5-.3-1-.6-1.4-1.1c-.4-.5-.7-1-.9-1.6c-.2.6-.5 1.2-.9 1.7c-.4.5-.9.9-1.4 1.1l-.5-.6c.4-.2.7-.4 1-.7c.2-.2.5-.5.7-.9c.2-.3.4-.6.5-1c.1-.4.2-.8.2-1.2c-.02 0 0-.7 0-.7h-2.1v-.7h2.1v-1.4h.8v1.4h2.1v.7h-2.1zm15.7-.9v.7H51v-.7h3.3v-1.2h.9v1.2h3.2zm-3.2 6h3.7v.7h-8.3v-.7h3.7s.03-1.25 0-1.2c-.8-.1-1.4-.3-1.9-.6c-.4-.3-.7-.7-.7-1.2c0-.3.1-.5.2-.7l.6-.6c.3-.1.6-.2 1-.3c.4-.1.8-.1 1.2-.1c.5 0 .9 0 1.3.1c.3.1.7.2.9.3c.3.2.5.4.6.6c.2.2.2.4.2.7c0 .5-.2.9-.7 1.2c-.4.3-1 .5-1.8.6c-.04-.05 0 1.2 0 1.2zm-2.6-3c0 .4.2.6.6.8c.3.2.9.3 1.5.3c.7 0 1.2-.1 1.6-.3c.4-.2.6-.4.6-.8c0-.3-.2-.6-.6-.8c-.4-.2-.9-.3-1.6-.3c-.6 0-1.2.1-1.5.3c-.4.2-.6.5-.6.8zm14.9-4.3v4.9h-.8v-4.9h.8zm-2.6 4.8v-2.1h-1.2v-.7h1.2v-1.9h.8v4.7h-.8zm-.8-1.2v.7c-.2 0-.5.1-.8.1c-.2 0-.5 0-.7.1h-2.4v-4h3.5v.7H61v.9h2.3v.7H61v1h1.6c.2 0 .5 0 .7-.1c.3 0 .5 0 .8-.1zm-1.8 4.7h5.6v.7h-6.4v-2.2h5.2v-.8h-5.2v-.7h6v2.1h-5.2v.9zM73.7 26c.02-.03 1.4 1.4 1.4 1.4h-1s-.82-.9-.8-.9c-.3.3-.7.5-1 .7c-.4.1-.8.2-1.3.2c-.7 0-1.2-.1-1.6-.5c-.4-.3-.6-.8-.7-1.4v-.1c0-.4.2-.8.4-1.2c.3-.4.7-.6 1.2-.9h-.1c-.2-.3-.3-.5-.5-.7c-.2-.3-.2-.6-.3-.9c0-1.1.6-1.6 1.7-1.7c.3 0 .5.1.7.1c.1.1.3.2.5.3c.1.1.2.3.3.5c.1.2.1.4.1.6c0 .3 0 .5-.1.7c-.1.2-.2.3-.3.5c-.1.2-.3.3-.4.4c-.2.2-.4.3-.6.4l1.9 2c.1-.2.3-.4.4-.6c.1-.3.2-.6.3-1.1h.8c-.2.6-.3 1-.5 1.3c-.2.4-.3.7-.5.9zm-2.6-5.3c-.3 0-.5.1-.7.3c-.2.1-.3.3-.3.6c0 .2.1.4.2.5c0 .2.2.4.4.7l.2.2c.1-.1.2-.2.4-.3l.3-.3c.1-.1.2-.2.3-.4c.1-.1.1-.3.1-.5c0-.2-.1-.4-.3-.6c-.1-.1-.3-.2-.6-.2zm1.7 5.3l-2.1-2.1c-.1.1-.3.2-.4.3c-.2.1-.3.2-.4.3c-.1.2-.2.3-.3.5c-.1.2-.1.3-.1.5c0 .2 0 .4.1.5c.1.1.2.3.3.4c.2.1.3.2.5.2c.2.1.4.1.6.1c.4 0 .7-.1 1-.2c.3-.1.5-.3.8-.5zm9.3-7h.9v9.2h-.9V19zm-5.3 4.2s.04 2.09 0 2.1c.8 0 1.5 0 2.2-.1c.7 0 1.5-.1 2.3-.2l.1.7c-.4 0-.8.1-1.2.1c-.4.1-.8.1-1.2.1c-.3 0-.7.1-1.1.1H76v-3.5h3.4v-1.9H76v-.7h4.2v3.3h-3.4zm8.6 1.2l-.4-.6c.4-.1.8-.2 1.2-.4c.4-.2.8-.4 1.1-.7c.3-.3.6-.6.8-.9c.2-.3.3-.7.3-1c-.04-.05 0-.2 0-.2h-3.1v-.7h7v.7h-3.1s.03.15 0 .2c0 .3.1.7.3 1c.2.3.5.6.8.9c.3.3.7.5 1.1.7c.4.1.8.3 1.2.3l-.4.7l-1-.3c-.4-.2-.7-.3-1-.6c-.3-.2-.6-.4-.8-.7c-.3-.2-.5-.5-.6-.8c-.1.3-.3.6-.6.9c-.2.2-.5.5-.8.7c-.3.2-.6.4-1 .5c-.3.2-.7.3-1 .3zm3.8 1.9h3.8v.7h-8.4v-.7h3.8v-2.2h.8v2.2zm12-2.3v.7h-6.3v-4.9h6.2v.7h-5.4v1.4h5.2v.6h-5.2v1.5h5.5zm-7.4 2.3h8.3v.7h-8.3v-.7zM110 19h.8v9.2h-.8V19zm-1.8 3.6v-3.4h.8v8.5h-.8v-4.4s-1.18-.02-1.2 0c0 .4-.1.8-.2 1.2c-.1.3-.2.7-.4.9c-.1.3-.3.4-.6.6c-.2.1-.4.2-.7.2c-.3 0-.6-.1-.8-.2c-.3-.2-.5-.4-.6-.7c-.2-.3-.3-.6-.4-1c-.1-.4-.2-.8-.2-1.3c0-.5.1-1 .2-1.3c.1-.4.2-.8.4-1c.1-.3.3-.5.6-.7c.2-.1.5-.2.8-.2c.3 0 .5.1.7.2c.3.1.5.3.6.6c.2.2.3.5.4.8c.1.4.2.8.2 1.2h1.2zm-3.1 2.8c.3 0 .6-.2.8-.6c.3-.5.4-1.1.4-1.8c0-.4-.1-.7-.1-1c-.1-.3-.2-.6-.3-.8c-.1-.2-.2-.3-.3-.5c-.2-.1-.3-.1-.5-.1c-.4 0-.7.2-.9.6c-.2.5-.3 1-.3 1.8c0 .7.1 1.3.3 1.8c.2.4.5.6.9.6zm13.8-6.4h.8v9.2h-.8v-5.4h-2.1v-.7h2.1V19zm-3.5.8s-.01 1.67 0 1.7c0 .4.1.8.2 1.2c.1.4.3.8.5 1.1c.2.4.4.7.7 1c.3.3.6.5 1 .6l-.5.7c-.5-.3-1-.7-1.4-1.2c-.4-.5-.7-1.1-.9-1.7c-.2.7-.5 1.3-.9 1.8c-.4.6-.9 1-1.4 1.3l-.5-.7c.3-.2.6-.4.9-.7c.3-.3.6-.6.8-1c.2-.4.3-.7.5-1.2c.1-.4.2-.8.2-1.2c-.04-.03 0-1.7 0-1.7h.8zm15-.8h.8v9.2h-.8v-4.8h-1.2v4.3h-.8v-8.4h.8v3.4h1.2V19zm-6.6 1.2s3.57.02 3.6 0c0 .6-.1 1.2-.2 1.8c-.1.5-.3 1-.6 1.6c-.2.5-.6 1-1 1.4c-.5.5-1 .9-1.7 1.2l-.4-.6c.5-.3.9-.6 1.3-.9c.4-.4.7-.8.9-1.2c.3-.4.5-.8.6-1.2c.1-.5.2-.9.2-1.4h-2.7v-.7zm15.4-1.2h.9v9.2h-.9V19zm-5.9 5.2l-.3-.7c.3-.1.6-.2.9-.4c.3-.2.5-.4.7-.6c.2-.2.4-.5.5-.7c.1-.3.1-.6.2-.9h-2.1v-.7h2.1v-1.1h.8v1.1h2.1v.7h-2.1c0 .3.1.6.2.8c.1.3.2.5.5.8c.2.2.4.4.7.5c.3.2.6.3.9.4l-.4.7c-.5-.2-1-.4-1.4-.8c-.4-.3-.7-.7-.9-1.1c-.2.4-.5.9-.9 1.2c-.4.3-.9.6-1.5.8zm2.8-.3v1.6c.4 0 .8 0 1.3-.1c.4 0 .8 0 1.2-.1l.1.6c-.5.1-1 .2-1.5.2c-.6.1-1.1.1-1.6.2h-2.8l-.1-.7h2.6c-.05-.02 0-1.7 0-1.7h.8zm13.2-4.9v6.9h-.8V19h.8zm-1.6 4.8l.1.6c-.5.1-1 .1-1.5.2c-.5 0-1 0-1.5.1H142l-.1-.7h2.5c.03.01 0-1.3 0-1.3h-1.7v-3.1h4.3v.7h-3.5v1.7h3.6v.7h-1.8s-.03 1.28 0 1.3c.4 0 .8-.1 1.2-.1c.4 0 .8-.1 1.2-.1zm-3.5 3.5h5.4v.7h-6.2v-2.6h.8v1.9zm10.9-.7h3v.8h-5v-.6s2.55-2.5 2.6-2.5c.1-.2.3-.4.5-.6c.2-.2.3-.4.4-.6c.1-.1.2-.3.3-.5c.1-.2.1-.4.1-.7c0-.4-.1-.7-.4-.9c-.3-.3-.6-.4-1-.4c-.2 0-.4.1-.6.1c-.1.1-.3.2-.4.3c-.2.2-.3.3-.3.5c-.1.2-.2.4-.2.6l-.9-.2l.3-.9c.2-.2.3-.4.5-.6c.3-.2.5-.3.8-.4c.3-.1.6-.2.9-.2c.3 0 .6.1.9.2c.2.1.5.2.7.4c.2.2.4.4.5.6c.1.3.1.6.1.9c0 .3 0 .6-.1.8c-.1.2-.2.5-.3.7c-.2.2-.3.4-.5.6c-.2.2-.4.5-.6.7l-2.1 2c.1 0 .3 0 .4-.1h.4zm9.1-2.9c0 .7-.1 1.2-.2 1.7c-.1.5-.3.9-.6 1.2c-.2.4-.5.6-.9.7c-.3.2-.6.3-1 .3c-.4 0-.8-.1-1.1-.3c-.3-.1-.6-.3-.9-.7c-.2-.3-.4-.7-.6-1.2c-.1-.5-.2-1-.2-1.7c0-.7.1-1.2.2-1.7c.2-.5.4-.9.6-1.2c.3-.3.6-.6.9-.7c.3-.2.7-.3 1.1-.3c.4 0 .7.1 1 .3c.4.1.7.4.9.7c.3.3.5.7.6 1.2c.1.5.2 1 .2 1.7zm-.9 0c0-.6-.1-1.1-.2-1.5c-.1-.4-.2-.7-.4-.9c-.1-.3-.3-.4-.6-.5c-.2-.1-.4-.2-.6-.2c-.3 0-.5.1-.7.2c-.2.1-.4.2-.6.5c-.2.2-.3.5-.4.9c-.1.4-.1.9-.1 1.5c0 .6 0 1.1.1 1.5c.1.4.2.7.4.9c.2.3.4.5.6.6c.2.1.4.1.7.1c.2 0 .4 0 .6-.1c.3-.1.5-.3.6-.6c.2-.2.3-.5.4-.9c.1-.4.2-.9.2-1.5zm3.6 2.9h2.9v.8h-5v-.6l2.6-2.5c.2-.2.4-.4.5-.6c.2-.2.4-.4.5-.6c.1-.1.2-.3.3-.5c0-.2.1-.4.1-.7c-.1-.4-.2-.7-.4-.9c-.3-.3-.6-.4-1-.4c-.2 0-.4.1-.6.1c-.2.1-.4.2-.5.3c-.1.2-.2.3-.3.5c-.1.2-.1.4-.1.6l-.9-.2c0-.3.1-.6.3-.9c.1-.2.3-.4.5-.6c.2-.2.5-.3.7-.4c.3-.1.6-.2.9-.2c.4 0 .6.1.9.2c.3.1.5.2.7.4c.2.2.4.4.5.6c.1.3.2.6.2.9c0 .3 0 .6-.1.8c-.1.2-.2.5-.4.7c-.1.2-.3.4-.5.6c-.2.2-.4.5-.6.7l-2.1 2c.2 0 .3 0 .5-.1h.4zm7.2.1h1.4v.7h-4v-.7h1.6s.04-5.55 0-5.5c0-.1 0-.1.1-.2l-1.4 1.3l-.5-.6l2-1.8h.8v6.8zm9.2-.9v-3.1h-2.6v-.7h2.6v-1.1h-2.6v-.7h2.6v-1.1h.8v6.7h-.8zm-1.5-2.4v.7c-.7.2-1.4.3-2 .3c-.7 0-1.3.1-2 .1c0-.03-.7 0-.7 0v-4.8h.8s.04 4.06 0 4.1c.7 0 1.3-.1 1.9-.1c.6-.1 1.3-.1 2-.3zm-2.7 3.9h5.2v.7h-6.1v-2.8h.9v2.1zm15.7-8.2h.8v9.1h-.8v-9.1zm-1.7 3.4v-3.2h.8v8.4h-.8v-4.4h-1.3v-.8h1.3zm-1.8-1.6s.04 4.22 0 4.2h.5c.2 0 .3-.1.5-.1l.1.6c-.4.1-.8.2-1.2.2c-.4 0-.8.1-1.2.1h-2.2c.02.04-.1-.7-.1-.7c0 0 .71.04.7 0h.3c-.03.03 0-4.3 0-4.3h-.8v-.7h4.2v.7h-.8zm-1.9 0s.03 4.31 0 4.3h1.2c-.02-.03 0-4.3 0-4.3h-1.2zm15.5 2.7l-.4.7c-.3 0-.7-.2-1-.3c-.4-.2-.7-.4-1-.6c-.3-.2-.6-.5-.8-.8l-.6-.9c-.1.3-.3.6-.6.9c-.2.3-.5.6-.8.8l-.9.6c-.4.1-.7.3-1.1.3l-.3-.7c.4 0 .8-.2 1.2-.4c.3-.2.7-.4 1-.7c.3-.3.6-.6.8-1c.2-.3.3-.7.3-1.1c-.02-.01 0-.7 0-.7h.9s-.04.69 0 .7c0 .4.1.7.3 1.1c.2.4.4.7.7 1c.3.3.7.5 1.1.7c.4.2.8.4 1.2.4zm-7.9 2.7h8.3v.7H197v-.7zm15.9-7.3h.8v9.2h-.8V19zm-5.3 4.1v2.2h1.2c.3 0 .7 0 1-.1h1c.3-.1.7-.1 1-.2l.1.7c-.4 0-.7.1-1 .1c-.4.1-.7.1-1.1.1c-.3 0-.7.1-1.1.1h-1.9v-6.1h4.4v.7h-3.6v1.8h3.3v.7h-3.3zm12.4-1.3v1.6h-4.2v-3.9h.9v1.3h2.4v-1.3h.9v1.6h2.1v-2h.8v4.7h-.8v-2H220zm-.9 1v-1.4h-2.4v1.4h2.4zm-1.2 4.6h5.3v.7H217v-2.3h5.1v-.9H217v-.6h5.9v2.1h-5v1zm13.6-8.4h.8v9.2h-.8V19zm-1.8 3.6v-3.4h.8v8.5h-.8v-4.4s-1.14-.02-1.1 0c-.1.4-.1.8-.2 1.2c-.1.3-.2.7-.4.9c-.2.3-.4.4-.6.6c-.2.1-.5.2-.8.2c-.3 0-.5-.1-.8-.2c-.2-.2-.4-.4-.6-.7c-.2-.3-.3-.6-.4-1c-.1-.4-.1-.8-.1-1.3c0-.5 0-1 .1-1.3c.1-.4.2-.8.4-1c.2-.3.4-.5.6-.7c.3-.1.5-.2.8-.2c.3 0 .6.1.8.2c.2.1.4.3.6.6c.1.2.3.5.4.8c.1.4.1.8.2 1.2h1.1zm-3.1 2.8c.4 0 .7-.2.9-.6c.2-.5.3-1.1.3-1.8c0-.4 0-.7-.1-1c0-.3-.1-.6-.2-.8c-.1-.2-.2-.3-.4-.5c-.1-.1-.3-.1-.5-.1c-.3 0-.6.2-.8.6c-.3.5-.4 1-.4 1.8c0 .7.1 1.3.4 1.8c.2.4.5.6.8.6zm14.5-3.6v.7h-6.3v-3.1h.9v2.4h5.4zm-7.4 1.9h8.3v.7h-8.3v-.7zm1.9 1.6v2h5.5v.7h-6.3v-2.7h.8zm13.6-.6h1.2v.7h-1.2v2h-.8v-2h-3.7v-.6l3.7-4.9h.8v4.8zm-3.5 0h2.7v-3.4c0-.1 0-.2.1-.3c-.05-.04-2.8 3.7-2.8 3.7zm9.4 0h1.1v.7h-1.1v2h-.8v-2h-3.7v-.6l3.6-4.9h.9v4.8zm-3.5 0h2.7s-.02-3.11 0-3.1v-.6l-2.7 3.7zm10-2.9c0 .9-.5 1.4-1.3 1.7c.5.2.9.4 1.1.7c.3.3.4.7.4 1.2c0 .4-.1.7-.2.9c-.1.3-.3.5-.5.7c-.2.2-.5.4-.8.5c-.3.1-.7.1-1.1.1c-.3 0-.7 0-1-.1c-.3-.1-.6-.3-.8-.5c-.3-.2-.4-.4-.6-.7c-.1-.2-.1-.5-.1-.9c0-.5.1-.9.3-1.2c.3-.3.7-.5 1.1-.7c-.4-.1-.7-.3-.9-.6c-.2-.3-.3-.7-.3-1.1c0-.3.1-.6.2-.8c.1-.2.3-.4.5-.6c.2-.2.4-.4.7-.5c.3-.1.6-.1.9-.1c.4 0 .7 0 1 .1c.3.1.5.3.7.5c.2.2.4.4.5.6c.1.2.2.5.2.8zm-2.4-1.3c-.4 0-.8.1-1 .4c-.2.2-.3.6-.3.9v.5c.1.2.2.3.3.5c.1.1.2.2.4.3c.2 0 .4.1.6.1c.3 0 .5-.1.7-.1c.2-.1.3-.2.4-.3c.1-.2.2-.3.2-.5c.1-.1.1-.3.1-.5c0-.3-.1-.7-.3-.9c-.3-.3-.6-.4-1.1-.4zm0 6.3c.6 0 .9-.1 1.2-.3c.3-.3.4-.7.4-1.1c0-.2 0-.5-.1-.7c-.1-.1-.2-.3-.4-.4c-.1-.1-.3-.2-.5-.3c-.1 0-.3-.1-.6-.1c-.2 0-.4.1-.6.1c-.2.1-.3.2-.5.3c-.1.1-.2.3-.3.4c-.1.2-.2.5-.2.7c0 .4.2.8.5 1.1c.2.2.6.3 1.1.3zm10.4-7.8h.8v9.2h-.8v-4.8h-1.3v4.3h-.8v-8.4h.8v3.4h1.3V19zm-6.6 1.2s3.53.02 3.5 0c0 .6 0 1.2-.1 1.8c-.1.5-.3 1-.6 1.6c-.3.5-.6 1-1.1 1.4c-.4.5-.9.9-1.6 1.2l-.5-.6c.5-.3 1-.6 1.4-.9c.3-.4.7-.8.9-1.2l.6-1.2c.1-.5.2-.9.2-1.4H263v-.7zm17.9-1.2h.8v9.2h-.8V19zm-1.8 2.3v-2.1h.8v8.5h-.8v-3s-1.46.03-1.5 0c-.1.5-.3.9-.6 1.1c-.3.3-.7.4-1.1.4c-.3 0-.5-.1-.8-.2c-.2-.2-.4-.4-.6-.7c-.1-.3-.3-.6-.4-1c-.1-.4-.1-.8-.1-1.3c0-.5 0-.9.1-1.3c.1-.4.3-.8.4-1c.2-.3.4-.5.6-.7c.3-.1.5-.2.8-.2c.4 0 .8.1 1.1.4c.3.2.5.6.6 1.1c.04-.05 1.5 0 1.5 0zm-3.2 4.1c.4 0 .7-.2.9-.6c.2-.5.3-1.1.3-1.8c0-.8-.1-1.3-.3-1.8c-.2-.4-.5-.6-.9-.6c-.3 0-.6.2-.8.6c-.2.5-.4 1-.4 1.8c0 .7.2 1.3.4 1.8c.2.4.5.6.8.6zm1.9-1.4c.02.04 1.3 0 1.3 0v-2.1s-1.28.04-1.3 0c0 .2.1.4.1.5v1.1c0 .2-.1.4-.1.5zm13.1-2.4l-.3.7l-1.1-.3c-.3-.1-.6-.2-.9-.4c-.3-.1-.6-.3-.8-.5c-.3-.2-.5-.4-.6-.7c-.2.3-.3.5-.6.7c-.2.2-.5.4-.8.5c-.3.2-.6.3-.9.4l-1.1.3l-.3-.7c.4 0 .8-.1 1.2-.2c.4-.2.8-.3 1.1-.5c.3-.2.5-.4.7-.7c.2-.2.3-.5.3-.8c-.03.03 0-.3 0-.3h.8s.03.33 0 .3c0 .3.1.6.3.8c.2.3.4.5.7.7c.3.2.7.3 1.1.5c.4.1.8.2 1.2.2zm.4 1.9h-3.7v.9h2.7v2.1h-5.4v.9h5.6v.7h-6.4v-2.2h5.3v-.8H284v-.7h2.8v-.9H283v-.6h8.3v.6zm8-1.7h1.4v.6h-1.4v3.3h-.8V19h.8v2.8zm-1.8 1.2l.1.7c-.3.1-.6.1-.9.2c-.3 0-.6 0-1 .1h-2.3c-.03.04-.7 0-.7 0v-4.2h4v.7h-3.2v2.9c.4 0 .9 0 1.2-.1h1c.4 0 .7-.1 1-.1c.2 0 .5-.1.8-.2zm-3 2v2.3h5.2v.7h-6.1v-3h.9zm13.9-6h.8v9.2h-.8V19zm-1.9 3.7v-3.4h.8v8.4h-.8v-4.4h-1.3v-.6h1.3zm-2.4-1.3s-.02.46 0 .5c0 .3 0 .7.1 1c.1.4.2.7.4 1.1c.2.3.4.6.6.8c.3.3.5.5.8.7l-.4.6c-.5-.2-.9-.6-1.2-1c-.3-.5-.5-1-.7-1.5c-.2.6-.4 1.1-.7 1.6c-.3.5-.7.8-1.2 1.1l-.5-.6c.4-.2.6-.4.9-.7l.6-.9c.1-.4.3-.7.4-1.1c0-.4.1-.8.1-1.1v-.5h-1.7v-.7h1.7v-1.3h.8v1.3h1.7v.7h-1.7zm16.1-2.4v5.3h-.9V19h.9zm-2.8.6v3.8h-4.2v-3.8h4.2zm-.8 3.1v-2.4H314v2.4h2.6zm3.8 2.9s-2.69-.04-2.7 0c0 .2.1.4.3.6c.1.2.3.4.6.6c.3.2.6.3 1 .5c.3.1.7.2 1.1.2l-.3.7c-.3-.1-.6-.2-1-.3l-.9-.3c-.2-.2-.5-.3-.7-.5c-.2-.2-.4-.4-.5-.6c-.1.2-.3.4-.5.6c-.3.2-.5.3-.8.5l-.9.3l-1 .3l-.3-.7c.4 0 .8-.1 1.1-.2c.4-.2.7-.3 1-.5c.3-.2.5-.4.7-.6c.2-.2.3-.4.3-.6c-.05-.04-2.7 0-2.7 0v-.7h2.7v-.9h.8v.9h2.7v.7zm10.2-6.6h.8v9.2h-.8V19zm-6.1 1s4.26.03 4.3 0c0 .7-.1 1.3-.3 1.9c-.1.7-.4 1.2-.7 1.8c-.4.5-.8 1-1.3 1.5c-.6.5-1.2.9-2 1.3l-.4-.7c1.2-.6 2.1-1.3 2.7-2.2c.7-.8 1-1.8 1.1-2.9h-3.4v-.7zm15.7 2h1.4v.7h-1.4v3.2h-.8V19h.8v3zm-2.3.9h-.8c.1-.6.2-1 .2-1.4v-1.1c.04.04-3.7 0-3.7 0v-.6h4.6s-.04.43 0 .4c0 .3-.1.7-.1 1.2c0 .4-.1.9-.2 1.5zm.9.6l.1.6c-.5.1-1 .2-1.5.2c-.5.1-1 .1-1.5.1c-.5 0-1 .1-1.4.1h-1.4v-.7h1.9v-2h.8s.02 1.94 0 1.9h1.5c.5-.1 1-.1 1.5-.2zm-3.5 1.8v2h5.2v.7h-6v-2.7h.8zm6.7 2.9l.3-2.1h1l-.7 2.1h-.6zm11.3-8.7v3.2h-6.1v-3.2h6.1zm-.8 2.5v-1.9H348v1.9h4.5zm-6.4 1.7h8.3v.7h-3.7v1.8h-.8v-1.8h-3.8v-.7zm1.9 1.7v1.9h5.5v.7h-6.4v-2.6h.9zm14.3-6.4h.8v9.2h-.8V19zm-1.8 2.3v-2.1h.8v8.5h-.8v-3s-1.45.03-1.5 0c-.1.5-.3.9-.6 1.1c-.3.3-.6.4-1.1.4c-.2 0-.5-.1-.8-.2c-.2-.2-.4-.4-.6-.7c-.1-.3-.3-.6-.4-1c-.1-.4-.1-.8-.1-1.3c0-.5 0-.9.1-1.3c.1-.4.3-.8.4-1c.2-.3.4-.5.6-.7c.3-.1.6-.2.8-.2c.5 0 .8.1 1.1.4c.3.2.5.6.6 1.1c.05-.05 1.5 0 1.5 0zm-3.2 4.1c.4 0 .7-.2.9-.6c.2-.5.3-1.1.3-1.8c0-.8-.1-1.3-.3-1.8c-.2-.4-.5-.6-.9-.6c-.3 0-.6.2-.8.6c-.2.5-.3 1-.3 1.8c0 .7.1 1.3.3 1.8c.2.4.5.6.8.6zm1.9-1.4c.02.04 1.3 0 1.3 0v-2.1s-1.28.04-1.3 0c0 .2.1.4.1.5v1.1c0 .2-.1.4-.1.5zm11.1-3.8v.6h-5.6v-.6h2.4v-1.1h.8v1.1h2.4zm.8-1.1h.8v9.1h-.8v-9.1zm-3.2 5.6v1c.4 0 .9-.1 1.3-.1c.4 0 .9-.1 1.3-.1l.1.6c-.5.1-1.1.1-1.6.2c-.5 0-1 .1-1.5.1H366c-.5.1-.9.1-1.4.1l-.1-.7c.4 0 .8-.1 1.2-.1h1.4v-1c-.6 0-1-.2-1.3-.5c-.3-.3-.5-.7-.5-1.2c0-.2 0-.4.1-.6c.2-.3.3-.4.5-.6c.2-.1.4-.2.7-.3c.3-.1.6-.1.9-.1c.3 0 .6 0 .9.1c.3.1.5.2.7.3c.2.2.3.3.4.6c.1.2.2.4.2.6c0 .5-.2.9-.5 1.2c-.3.3-.7.5-1.3.5zm-1.8-1.7c0 .4.1.6.4.8c.2.2.6.3 1 .3c.4 0 .7-.1 1-.3c.3-.2.4-.4.4-.8c0-.3-.1-.5-.4-.7c-.3-.2-.6-.3-1-.3c-.4 0-.8.1-1 .3c-.3.2-.4.4-.4.7zm14.7-1h1.3v.7h-1.3v3.2h-.9V19h.9v3zm-2.4.9h-.8c.1-.6.2-1 .2-1.4c.1-.4.1-.8.1-1.1c-.03.04-3.8 0-3.8 0v-.6h4.6s-.02.43 0 .4v1.2c-.1.4-.1.9-.3 1.5zm.9.6l.1.6c-.5.1-1 .2-1.5.2c-.5.1-1 .1-1.5.1c-.5 0-1 .1-1.4.1h-1.3l-.1-.7h1.9c.02-.03 0-2 0-2h.8s.05 1.94 0 1.9h1.6c.5-.1.9-.1 1.4-.2zm-3.5 1.8v2h5.3v.7H375v-2.7h.8z" stroke="none" fill="#111111"/></g><g id="Polygon111305"><path d="m7.8 1v3.2H1.6V1h6.2zm-.9 2.5V1.6H2.4v1.9h4.5zM.5 5.2h8.3v.7H5.2v1.8h-.9V5.9H.5v-.7zm1.9 1.7v1.9h5.5v.7H1.6V6.9h.8zm15.8-2.5v.7h-1.4v4.6h-.9V.5h.9v3.9h1.4zm-3-2.7v.6H9.8v-.6h2.3V.6h.8v1.1h2.3zm-2.3 4.5v1c.4 0 .9-.1 1.3-.1c.4 0 .8-.1 1.2-.1v.6c-.4.1-.9.1-1.5.2c-.5 0-1 .1-1.4.1c-.5 0-1 0-1.5.1H9.7l-.1-.7c.4 0 .8 0 1.2-.1h1.3v-1c-.5 0-1-.2-1.3-.5c-.3-.3-.4-.7-.4-1.2c0-.2 0-.4.1-.6c.1-.3.3-.4.5-.6c.1-.1.4-.2.6-.3c.3-.1.6-.1.9-.1c.3 0 .6 0 .9.1c.3.1.5.2.7.3c.2.2.3.3.4.6c.1.2.2.4.2.6c0 .5-.2.9-.5 1.2c-.3.3-.7.5-1.3.5zm-1.8-1.7c0 .4.2.6.4.8c.3.2.6.3 1 .3c.4 0 .8-.1 1-.3c.3-.2.4-.4.4-.8c0-.3-.1-.5-.4-.7c-.2-.2-.6-.3-1-.3c-.4 0-.7.1-1 .3c-.2.2-.4.4-.4.7zm14.8-4h.8v9.2h-.8V.5zm-1.8 2.3V.7h.8v8.5h-.8v-3s-1.44.03-1.4 0c-.2.5-.4.9-.7 1.1c-.3.3-.6.4-1 .4c-.3 0-.6-.1-.8-.2c-.3-.2-.5-.4-.7-.7c-.1-.3-.3-.6-.3-1c-.1-.4-.2-.8-.2-1.3c0-.5.1-.9.2-1.3c0-.4.2-.8.3-1c.2-.3.4-.5.7-.7c.2-.1.5-.2.8-.2c.4 0 .7.1 1 .4c.3.2.5.6.7 1.1c-.04-.05 1.4 0 1.4 0zM21 6.9c.3 0 .6-.2.8-.6c.2-.5.4-1.1.4-1.8c0-.8-.2-1.3-.4-1.8c-.2-.4-.5-.6-.8-.6c-.4 0-.7.2-.9.6c-.2.5-.3 1-.3 1.8c0 .7.1 1.3.3 1.8c.2.4.5.6.9.6zm1.8-1.4c.04.04 1.3 0 1.3 0V3.4s-1.26.04-1.3 0c.1.2.1.4.1.5v1.1c0 .2 0 .4-.1.5zm13.1-2.4l-.3.7l-1-.3c-.4-.1-.7-.2-1-.4c-.3-.1-.6-.3-.8-.5c-.3-.2-.4-.4-.6-.7c-.1.3-.3.5-.6.7c-.2.2-.5.4-.8.5c-.3.2-.6.3-.9.4l-1.1.3l-.3-.7c.4 0 .8-.1 1.2-.2c.4-.2.8-.3 1.1-.5c.3-.2.5-.4.7-.7c.2-.2.3-.5.3-.8v-.3h.9s-.05.33 0 .3c0 .3 0 .6.2.8c.2.3.5.5.8.7c.3.2.6.3 1 .5c.4.1.8.2 1.2.2zm.5 1.9h-3.8v.9h2.7v2.1h-5.4v.9h5.7v.7h-6.5V7.4h5.4v-.8h-5.4v-.7h2.7v-.9h-3.7v-.6h8.3v.6zm10-.5c-.04-.03 1.2 0 1.2 0v.7h-2.3v2.2h-.8V5.2h-1.6v2.2h-.8V5.2h-2.8v-.7s6.22-.03 6.2 0c.1-.6.2-1.1.2-1.6V1.7c.05.02 0 0 0 0h-5.3v-.7h6.2s-.03.72 0 .7c0 .4 0 .8-.1 1.2c0 .5 0 1-.1 1.6zm-5.2 2.1v2.2h5.6v.7h-6.4V6.6h.8zm12.5-5v.6h-5.2v-.6h2.2V.5h.9v1.1h2.1zm1.5 2.9V3.4h-1.5v-.7h1.5V.5h.9v5.9h-.9V5.2h-1.5v-.7h1.5zm-2-.1c0 .2 0 .5-.1.7c-.2.2-.3.4-.5.5c-.2.2-.4.3-.6.4c-.3 0-.6.1-.9.1c-.3 0-.6-.1-.8-.1c-.3-.1-.5-.2-.7-.4c-.1-.1-.3-.3-.4-.5c-.1-.2-.1-.5-.1-.7c0-.3 0-.5.1-.7c.1-.2.3-.4.4-.5c.2-.2.4-.3.7-.4c.2-.1.5-.1.8-.1c.3 0 .6 0 .9.1c.2.1.4.2.6.4c.2.1.3.3.5.5c.1.2.1.4.1.7zm-3.4 0c0 .3.2.6.4.8c.2.2.5.2.9.2c.4 0 .7 0 1-.2c.2-.2.3-.5.3-.8c0-.3-.1-.6-.3-.8c-.3-.2-.6-.3-1-.3c-.4 0-.7.1-.9.3c-.2.2-.4.5-.4.8zm3.3 2.2c.9 0 1.6.1 2.2.4c.5.2.8.6.8 1.1c0 .5-.3.9-.8 1.2c-.6.2-1.3.4-2.2.4c-1 0-1.8-.2-2.3-.4c-.5-.3-.8-.7-.8-1.2c0-.5.3-.9.8-1.1c.5-.3 1.3-.4 2.3-.4zm0 2.4c.6 0 1.2 0 1.6-.2c.3-.2.5-.4.5-.7c0-.3-.2-.5-.5-.7c-.4-.1-1-.2-1.6-.2c-.7 0-1.3.1-1.6.2c-.4.2-.6.4-.6.7c0 .3.2.5.6.7c.3.2.9.2 1.6.2zm13.8-6.5h1.3v.7h-1.3v2.1h-.9V.6h.9v1.9zM64.4.9v4h-4.2v-4h.8v1.3h2.6V.9h.8zm-.8 3.3V2.9H61v1.3h2.6zm-1.7 3.7v1h5.3v.7h-6.1V7.3h5v-.9h-5v-.7h5.8v2.2h-5zm11.9-4.8h1.9V.6h.8v6.7h-.8V3.8h-1.9v-.7zm.6 2.1l-.5.7c-.5-.2-.9-.5-1.3-.8c-.4-.4-.7-.8-.9-1.3c-.2.5-.5 1-.9 1.4c-.4.4-.8.7-1.4.9l-.4-.7c.3-.1.6-.3.9-.5c.3-.2.6-.4.8-.7c.2-.2.3-.5.4-.8c.1-.3.2-.6.2-1v-.4h-2v-.7h4.8v.7h-2s.03.42 0 .4c0 .3.1.6.2.9c.1.3.3.5.5.8c.1.2.4.5.6.7c.3.2.6.3 1 .4zm-2.9 3.6h5.3v.7h-6.2V6.7h.9v2.1zM87.7.5v5.3h-.8V.5h.8zm-2.7.6v3.8h-4.3V1.1h4.3zm-.8 3.1V1.8h-2.7v2.4h2.7zm3.7 2.9s-2.65-.04-2.6 0c0 .2 0 .4.2.6c.2.2.4.4.7.6c.2.2.6.3.9.5c.4.1.8.2 1.2.2l-.3.7c-.4-.1-.7-.2-1-.3l-.9-.3c-.3-.2-.5-.3-.7-.5c-.3-.2-.4-.4-.6-.6c-.1.2-.3.4-.5.6c-.2.2-.5.3-.8.5c-.2.1-.5.2-.9.3c-.3.1-.6.2-1 .3l-.2-.7c.4 0 .7-.1 1.1-.2c.4-.2.7-.3 1-.5c.2-.2.5-.4.6-.6c.2-.2.3-.4.3-.6c-.01-.04-2.7 0-2.7 0v-.7h2.7v-.9h.9v.9h2.6v.7zm9-5.9v.6h-5.2v-.6h2.2v-.8h.8v.8h2.2zm1.7 1.7h1.3v.7h-1.3v2.3h-.9V.5h.9v2.4zm-1.4 1.9v.6c-.4.1-.9.1-1.4.2c-.5 0-1 .1-1.5.1h-2.8l-.1-.6h2.5v-.6c-.5 0-1-.1-1.3-.3c-.3-.3-.4-.5-.4-.9c0-.4.1-.7.5-.9c.4-.2.9-.3 1.6-.3c.7 0 1.2.1 1.6.3c.3.2.5.5.5.9c0 .4-.1.6-.4.8c-.3.2-.8.4-1.3.4v.5h1.3c.4-.1.8-.1 1.2-.2zM93 3.3c0 .2.1.4.3.5c.3.1.6.2 1 .2c.4 0 .7-.1 1-.2c.2-.1.3-.3.3-.5c0-.2-.1-.3-.3-.5c-.3-.1-.6-.1-1-.1c-.4 0-.7 0-1 .1c-.2.2-.3.3-.3.5zm.5 4.9v.8h5.4v.6h-6.2v-2h5v-.7h-5.1v-.6h6v1.9h-5.1zM107.4 6V3.2h-2v-.7h2V.6h.8v5.4h-.8zM106 4.9l-.4.6c-.5-.2-1-.4-1.3-.8c-.4-.3-.7-.7-.9-1.2c-.2.5-.5 1-.9 1.4c-.4.4-.9.7-1.4.9l-.4-.7c.3-.1.6-.3.9-.5c.3-.2.5-.4.7-.7c.2-.3.4-.6.5-.9c.1-.3.2-.7.2-1c-.03 0 0-.9 0-.9h.8s.01.87 0 .9c0 .3.1.6.2.9c.1.3.2.6.4.8c.2.3.4.5.7.7c.3.2.6.4.9.5zm-.8 1.3c.5 0 .9.1 1.2.1c.4.1.7.2 1 .4c.3.1.5.3.6.5c.2.2.2.5.2.8c0 .2 0 .5-.2.7c-.1.2-.3.4-.6.5c-.3.2-.6.3-1 .4c-.3 0-.7.1-1.2.1c-.5 0-.9-.1-1.3-.1c-.4-.1-.7-.2-.9-.4c-.3-.1-.5-.3-.7-.5c-.1-.2-.2-.5-.2-.7c0-.3.1-.6.2-.8c.2-.2.4-.4.7-.5c.2-.2.5-.3.9-.4c.4 0 .8-.1 1.3-.1zm0 2.8c.7 0 1.2-.1 1.6-.3c.4-.2.6-.4.6-.7c0-.4-.2-.7-.6-.8c-.4-.2-.9-.3-1.6-.3c-.7 0-1.3.1-1.6.3c-.4.1-.6.4-.6.8c0 .3.2.5.6.7c.3.2.9.3 1.6.3zm13.1-4.6v.7h-1.4v4.6h-.8V.5h.8v3.9h1.4zm-2.9-2.7v.6h-5.5v-.6h2.3V.6h.9v1.1h2.3zm-2.3 4.5v1c.4 0 .8-.1 1.2-.1c.4 0 .8-.1 1.2-.1l.1.6c-.5.1-1 .1-1.5.2c-.5 0-1 .1-1.5.1c-.5 0-1 0-1.5.1h-1.2l-.2-.7c.4 0 .8 0 1.2-.1h1.3v-1c-.5 0-.9-.2-1.2-.5c-.4-.3-.5-.7-.5-1.2c0-.2 0-.4.1-.6c.1-.3.3-.4.5-.6c.2-.1.4-.2.7-.3c.2-.1.5-.1.8-.1c.4 0 .7 0 .9.1c.3.1.5.2.7.3c.2.2.3.3.4.6c.1.2.2.4.2.6c0 .5-.2.9-.5 1.2c-.3.3-.7.5-1.2.5zm-1.8-1.7c0 .4.1.6.3.8c.3.2.6.3 1 .3c.4 0 .8-.1 1-.3c.3-.2.4-.4.4-.8c0-.3-.1-.5-.4-.7c-.2-.2-.6-.3-1-.3c-.4 0-.7.1-1 .3c-.2.2-.3.4-.3.7zm14.1-2.4v-.7h-5.3v-.6h6.2v1.9h-5.4v.8h5.5v.6h-6.3v-2h5.3zM119 4.8h8.3v.6H119v-.6zm1.9 3.3v.9h5.7v.6H120V7.5h5.5v-.7H120v-.6h6.3v1.9h-5.4zm13.9-2.9h3.8v.7h-8.3v-.7h3.7V4h-2.7V.9h6.2v3.1h-2.7v1.2zm-2.6-3.6v1.8h4.5V1.6h-4.5zm-1 5.9v-.7h6.3v2.9h-.8V7.5h-5.5zm14.2.4h2.4v.7h-8.3v-.7h2.3V5.7h-1.6v-.7h1.4V2.1h-1.4v-.7h6.8v.7h-1.4v2.9h1.4v.7h-1.6v2.2zm-2.9-5.8v2.9h2.2V2.1h-2.2zm.1 3.6v2.2h2V5.7h-2zm10.6 2.2h3.7v.7h-8.3v-.7h3.8V6.2h-2.7V3.3h5.4V1.9h-5.4v-.7h6.2v2.8h-5.4v1.5h5.6v.7h-2.9v1.7zm13.4-3.7h-2.3c-.2.3-.5.5-.8.6c-.3.1-.7.2-1 .2c-.4 0-.7 0-.9-.1c-.3-.1-.6-.2-.8-.4c-.2-.2-.4-.4-.6-.7c-.1-.2-.2-.5-.2-.9c0-.3.1-.5.2-.8c.1-.3.3-.5.5-.7c.2-.1.5-.3.8-.4c.2-.1.6-.1.9-.1c.4 0 .8 0 1.1.2c.3.1.6.3.8.5c-.01.04 2.3 0 2.3 0V.5h.8v4.7h-.8v-1zm-5.8-1.3c0 .2.1.4.2.6c0 .2.1.3.3.4c.1.2.3.3.5.3c.2.1.4.1.6.1c.2 0 .4 0 .6-.1c.2 0 .4-.1.5-.3c.2-.1.3-.2.3-.4c.1-.2.2-.4.2-.6c0-.2-.1-.4-.2-.5c0-.2-.1-.3-.3-.5c-.1-.1-.3-.2-.5-.3c-.2 0-.4-.1-.6-.1c-.2 0-.4.1-.6.1c-.2.1-.4.2-.5.3c-.2.2-.3.3-.3.5c-.1.1-.2.3-.2.5zm5.8-.6h-1.9v1.2c-.03.03 1.9 0 1.9 0V2.3zm-4.2 6.6h5.4v.7h-6.2V7.3h5v-.9h-5.1v-.7h5.9v2.2h-5v1zM175.8.5h.8v9.2h-.8V.5zm-5.3 4.2s-.05 2.09 0 2.1c.7 0 1.4 0 2.1-.1c.7 0 1.5-.1 2.3-.2l.1.7c-.4 0-.8.1-1.2.1c-.4.1-.8.1-1.2.1c-.3 0-.7.1-1.1.1h-1.9V4h3.4V2.1h-3.4v-.7h4.2v3.3h-3.3zm15.1-1.4v.7h-6.2V.9h.8v2.4h5.4zm-7.3 1.9h8.2v.7h-8.2v-.7zm1.9 1.6v2h5.4v.7h-6.3V6.8h.9zm17.6-1.9h-3.7v1.7h2.7v3.1h-.8V7.3h-5.6v-.7h2.8V4.9h-3.7v-.7s6.19.04 6.2 0c.1-.5.2-1 .2-1.4V1.7c.03-.05-5.3 0-5.3 0v-.7h6.2s-.04.64 0 .6c0 .4-.1.8-.1 1.2c0 .4-.1.9-.2 1.4c.03.04 1.3 0 1.3 0v.7zm7.9-4.4h.8v9.2h-.8V5h-1.3v4.2h-.8V.7h.8v3.6h1.3V.5zM200 1.7v4.9c.4 0 .9 0 1.4-.1c.5 0 1-.1 1.5-.2l.1.7c-.6.1-1.2.2-1.7.3h-2.1V1.7h.8zM216.9.5h.8v9.2h-.8V4.9h-1.3v4.3h-.7V.7h.7v3.5h1.3V.5zm-5.8 1.8s.02 4.44 0 4.4h1.6c.5-.1 1-.1 1.5-.2l.1.7c-.3 0-.6.1-.8.1c-.3 0-.5.1-.8.1h-1.8c-.01.04-.6 0-.6 0V1.7h3.4v.6h-2.6zm14 5.6h2.3v.7h-8.3v-.7h2.3V5.7h-1.5v-.7h1.4V2.1h-1.4v-.7h6.8v.7h-1.5v2.9h1.5v.7h-1.6v2.2zm-3-5.8v2.9h2.3V2.1h-2.3zm.2 3.6v2.2h2V5.7h-2zM239 4.2v.7h-1.6v4.8h-.8V.6h.8v3.6h1.6zm-6.2-3c.4 0 .7.1 1 .3c.3.1.5.3.7.6c.2.3.4.6.5 1c.1.4.1.8.1 1.3c0 .5 0 1-.1 1.4c-.1.3-.3.7-.5 1c-.2.2-.4.5-.7.6c-.3.2-.6.2-1 .2c-.3 0-.6 0-.9-.2c-.3-.1-.5-.4-.7-.6c-.2-.3-.4-.7-.5-1c-.1-.4-.2-.9-.2-1.4c0-.5.1-.9.2-1.3c.1-.4.3-.7.5-1c.2-.3.4-.5.7-.6c.3-.2.6-.3.9-.3zm0 5.7c.3 0 .5-.1.6-.2c.2-.1.4-.3.5-.5c.2-.2.3-.5.3-.8c.1-.3.1-.6.1-1c0-.3 0-.7-.1-1c0-.3-.1-.5-.3-.7c-.1-.2-.3-.4-.5-.5c-.1-.1-.3-.2-.6-.2c-.2 0-.4.1-.6.2c-.2.1-.3.3-.4.5c-.2.2-.3.4-.4.7c0 .3-.1.7-.1 1c0 .4.1.7.1 1c.1.3.2.6.4.8c.1.2.2.4.4.5c.2.1.4.2.6.2zm14.1-1.4v.7h-6.3V1.3h6.2v.7h-5.3v1.4h5.1v.6h-5.1v1.5h5.4zm-7.3 2.3h8.3v.7h-8.3v-.7zm17.7-3.6v.7h-1.5v4.8h-.8V.6h.8v3.6h1.5zm-8.2 3.2V1.5h4.2v5.9h-4.2zm.9-5.3v4.6h2.5V2.1H250zM265.7.6v6.2h-.8V.6h.8zm-2.6 3.3h-1.7c-.3.5-.6 1-1.1 1.4c-.5.5-1.1.9-1.9 1.2l-.4-.6c.7-.3 1.3-.6 1.7-1c.4-.4.8-.8 1-1.2c0-.04-2.5.2-2.5.2l-.2-.7s2.98-.15 3-.2c0-.1.1-.3.1-.5c0-.1.1-.3.1-.5h-2.7v-.7s3.51.02 3.5 0c0 .7-.1 1.4-.3 1.9c.02.02 1.4 0 1.4 0V.7h.8v5.2h-.8v-2zm-.1 2.3s.05.31 0 .3c0 .3.1.6.3.9c.2.2.4.5.7.7c.3.2.6.4 1 .6l1.2.3l-.4.7c-.3-.1-.6-.2-1-.3c-.3-.1-.6-.3-.9-.4c-.2-.2-.5-.4-.7-.6c-.2-.2-.4-.5-.6-.7c-.1.2-.3.5-.5.7c-.2.2-.5.4-.8.6c-.2.1-.5.3-.9.4c-.3.1-.6.2-1 .3l-.3-.7l1.2-.3c.3-.2.7-.4 1-.6l.7-.7c.1-.3.2-.6.2-.9v-.3h.8zm9.3-4.6v.6h-5.2v-.6h2.2V.5h.9v1.1h2.1zm1.5 2.9V3.4h-1.5v-.7h1.5V.5h.9v5.9h-.9V5.2h-1.5v-.7h1.5zm-2-.1c0 .2 0 .5-.1.7c-.1.2-.3.4-.5.5c-.2.2-.4.3-.6.4c-.3 0-.6.1-.9.1c-.3 0-.5-.1-.8-.1c-.3-.1-.5-.2-.7-.4c-.1-.1-.3-.3-.4-.5c-.1-.2-.1-.5-.1-.7c0-.3 0-.5.1-.7c.1-.2.3-.4.4-.5c.2-.2.4-.3.7-.4c.3-.1.5-.1.8-.1c.3 0 .6 0 .9.1c.2.1.4.2.6.4c.2.1.4.3.5.5c.1.2.1.4.1.7zm-3.3 0c0 .3.1.6.3.8c.2.2.6.2.9.2c.4 0 .7 0 1-.2c.2-.2.3-.5.3-.8c0-.3-.1-.6-.3-.8c-.3-.2-.6-.3-1-.3c-.3 0-.7.1-.9.3c-.2.2-.3.5-.3.8zm3.2 2.2c.9 0 1.7.1 2.2.4c.5.2.8.6.8 1.1c0 .5-.3.9-.8 1.2c-.5.2-1.3.4-2.2.4c-1 0-1.8-.2-2.3-.4c-.5-.3-.8-.7-.8-1.2c0-.5.3-.9.8-1.1c.5-.3 1.3-.4 2.3-.4zm0 2.4c.6 0 1.2 0 1.6-.2c.3-.2.5-.4.5-.7c0-.3-.2-.5-.5-.7c-.4-.1-1-.2-1.6-.2c-.7 0-1.2.1-1.6.2c-.4.2-.6.4-.6.7c0 .3.2.5.6.7c.4.2.9.2 1.6.2zM285.4.6h.8v9.1h-.8V.6zM283.6 4V.8h.8v8.4h-.8V4.8h-1.2v-.8h1.2zm-1.7-1.6v4.2h.5c.1 0 .3-.1.5-.1v.6c-.3.1-.7.2-1.1.2c-.4 0-.8.1-1.2.1h-2.2c-.02.04-.1-.7-.1-.7c0 0 .67.04.7 0h.2c.02.03 0-4.3 0-4.3h-.7v-.7h4.2v.7h-.8zm-1.9 0v4.3h1.1c.03-.03 0-4.3 0-4.3H280zm15.5 2.7l-.4.7c-.4 0-.7-.2-1.1-.3l-.9-.6c-.3-.2-.6-.5-.8-.8c-.3-.3-.5-.6-.6-.9l-.6.9c-.2.3-.5.6-.8.8c-.3.2-.6.4-1 .6c-.3.1-.7.3-1 .3l-.4-.7c.4 0 .8-.2 1.2-.4c.4-.2.8-.4 1.1-.7c.3-.3.5-.6.7-1c.2-.3.3-.7.3-1.1c.04-.01 0-.7 0-.7h.9s.02.69 0 .7c0 .4.1.7.3 1.1c.2.4.5.7.8 1c.3.3.7.5 1.1.7c.4.2.8.4 1.2.4zm-7.9 2.7h8.3v.7h-8.3v-.7zM303.4.5h.9v9.2h-.9V.5zm-5.2 4.1s-.04 2.2 0 2.2h1.1c.4 0 .7 0 1.1-.1h1c.3-.1.6-.1 1-.2v.7c-.3 0-.7.1-1 .1c-.3.1-.7.1-1 .1c-.4 0-.8.1-1.1.1h-2V1.4h4.5v.7h-3.6v1.8h3.2v.7h-3.2zm12.3-1.3v1.6h-4.1V1h.8v1.3h2.5V1h.8v1.6h2.1v-2h.9v4.7h-.9v-2h-2.1zm-.8 1V2.9h-2.5v1.4h2.5zm-1.3 4.6h5.4v.7h-6.2V7.3h5v-.9h-5v-.6h5.9v2.1h-5.1v1zM321.8.5h.8v9.2h-.8V.5zm-4 .7c.3 0 .6.1.9.3c.3.1.5.3.7.6c.2.3.4.6.5 1c.1.4.2.8.2 1.3c0 .5-.1 1-.2 1.4c-.1.3-.3.7-.5 1c-.2.2-.4.5-.7.6c-.3.2-.6.2-.9.2c-.4 0-.7 0-1-.2c-.3-.1-.5-.4-.7-.6c-.2-.3-.4-.7-.5-1c-.1-.4-.2-.9-.2-1.4c0-.5.1-.9.2-1.3c.1-.4.3-.7.5-1c.2-.3.4-.5.7-.6c.3-.2.6-.3 1-.3zm0 .8c-.3 0-.5.1-.6.2c-.2.1-.4.3-.5.5c-.2.2-.3.4-.3.7c-.1.3-.2.7-.2 1c0 .4.1.7.2 1c0 .3.1.6.3.8c.1.2.3.4.5.5c.1.1.3.2.6.2c.2 0 .4-.1.6-.2c.2-.1.3-.3.5-.5c.1-.2.2-.5.3-.8c.1-.3.1-.6.1-1c0-.3 0-.7-.1-1c-.1-.3-.2-.5-.3-.7c-.2-.2-.3-.4-.5-.5c-.2-.1-.4-.2-.6-.2zm15 2.2v.6h-1.5v4.9h-.8V.5h.8v3.7h1.5zm-7.3-2.1v4.6h2.2c.3-.1.6-.1 1-.1c.3-.1.6-.1.9-.2l.1.7c-.3.1-.7.1-1 .2c-.3 0-.7 0-1 .1h-2.3c0 .03-.7 0-.7 0v-6h4.2v.7h-3.4zm7.9 7v-1h.9v1h-.9z" stroke="none" fill="#111111"/></g></svg>