<?xml version="1.0" standalone="no"?><!DOCTYPE svg PUBLIC "-//W3C//DTD SVG 1.1//EN" "http://www.w3.org/Graphics/SVG/1.1/DTD/svg11.dtd"><svg xmlns="http://www.w3.org/2000/svg" version="1.1" width="413px" height="27.9px" viewBox="0 -4 413 27.9" style="top:-4px"><desc>The Right Move for the Right Future</desc><defs/><g id="Polygon32223"><path d="m7.3 16.5H4.6V4.6H.1V2.1h11.7v2.5H7.3v11.9zm5.2-14.6h2.8s-.01 4.99 0 5c.8-.8 1.7-1.1 2.7-1.1c1.2 0 2.2.3 2.9 1c.7.8 1.1 1.9 1.1 3.3v6.4h-2.8s.05-6.13 0-6.1c0-1.5-.6-2.2-1.8-2.2c-.8 0-1.5.5-2.1 1.6c-.01-.04 0 6.7 0 6.7h-2.8V1.9zm13.6 8.5h4.1c0-.6-.2-1.2-.6-1.6c-.3-.5-.8-.8-1.5-.8c-.7 0-1.2.3-1.5.8c-.4.4-.5 1-.5 1.6zm0 2.1c0 .5.3.9.7 1.3c.4.4 1 .7 1.8.7c1.1.1 2.4-.1 3.8-.4v2.2c-1.3.4-2.5.6-3.8.5c-1.6 0-2.9-.5-3.9-1.5c-.9-.9-1.4-2.2-1.4-4c0-1.7.4-3.1 1.4-4.1c.9-1 2-1.5 3.4-1.5c1.4 0 2.6.5 3.4 1.6c.9 1 1.4 2.4 1.4 4.1c-.02 0 0 1.1 0 1.1c0 0-6.82.03-6.8 0zm16.3-4.2s2.06-.04 2.1 0c.8 0 1.4-.2 1.7-.6c.4-.4.6-.8.6-1.3c0-.5-.2-.9-.6-1.3c-.3-.3-.9-.5-1.7-.5c-.04-.03-2.1 0-2.1 0v3.7zm1 2.4h-1v5.8h-2.8V2.1s4.52.03 4.5 0c1.8 0 3.2.4 4.1 1.2c.9.9 1.3 1.9 1.3 3.2c0 1.2-.4 2.3-1.4 3.1c-.5.4-1.1.7-1.8.8c-.03.03 4.2 6.1 4.2 6.1h-3.1l-4-5.8zm7.7 5.8V6h2.8v10.5h-2.8zm0-11.9V1.9h2.9v2.7h-2.9zm9.2 9.5c.8 0 1.5-.4 2-1.2V9.2c-.5-.7-1.1-1-2-1c-.7 0-1.3.3-1.7.9c-.5.6-.7 1.3-.7 2.1c0 .8.3 1.5.7 2.1c.4.5 1 .8 1.7.8zm2.1 2v-.6c-.8.7-1.7 1-2.7 1c-1.2 0-2.2-.4-3.1-1.4c-.9-.9-1.4-2.3-1.4-3.9c0-1.6.4-3 1.4-4c.8-1 1.9-1.5 3.3-1.5c1 0 1.9.4 2.6 1.1v-.8h2.6s-.03 8.92 0 8.9c0 2-.5 3.4-1.4 4.3c-1 .8-2.3 1.3-4 1.3c-1.1 0-2.2-.1-3.4-.3v-2.4c1.2.3 2.3.4 3.3.3c1 0 1.7-.2 2.1-.6c.4-.4.7-.9.7-1.4zM67 1.9h2.8s-.04 4.99 0 5c.8-.8 1.7-1.1 2.7-1.1c1.2 0 2.2.3 2.9 1c.7.8 1.1 1.9 1.1 3.3c-.04.03 0 6.4 0 6.4h-2.8s.02-6.13 0-6.1c0-1.5-.6-2.2-1.8-2.2c-.8 0-1.6.5-2.1 1.6c-.04-.04 0 6.7 0 6.7H67V1.9zm14.8 11.2c0 .5 0 .8.2 1c.2.2.6.3 1 .3c.04-.05 1.7 0 1.7 0v2.3s-2.15.05-2.1 0c-1.2.1-2-.2-2.7-.8c-.5-.5-.8-1.3-.8-2.3c-.03-.03 0-5.3 0-5.3h-1.9V6h1.9V3.5l2.7-.8v3.3h2.4v2.3h-2.4s-.03 4.8 0 4.8zm17.3 3.4h-1.8l-3.8-9.7v9.7h-2.6V2.1h3.2l4.1 10.3l4.1-10.3h3.2v14.4h-2.7V6.8l-3.7 9.7zm18.9-5.2c0 1.6-.6 2.9-1.7 3.9c-1.1 1.1-2.4 1.6-3.9 1.6c-1.5 0-2.8-.5-3.9-1.5c-1.1-1.1-1.7-2.4-1.7-4c0-1.7.6-3 1.7-4c1.1-1.1 2.4-1.6 3.9-1.6c1.5 0 2.8.5 3.9 1.6c1.1 1 1.7 2.4 1.7 4zm-8.5 0c0 .9.3 1.6.8 2.2c.6.6 1.3.9 2.1.9c.8 0 1.5-.3 2.1-.9c.5-.6.8-1.3.8-2.2c0-.9-.3-1.7-.8-2.3c-.6-.6-1.3-.9-2.1-.9c-.8 0-1.5.3-2.1.9c-.5.6-.8 1.4-.8 2.3zm15.1 5.2h-2.4L117.9 6h2.8l2.7 7.2l2.9-7.2h2.7l-4.4 10.5zm7.1-6.1h4.1c0-.6-.1-1.2-.5-1.6c-.4-.5-.9-.8-1.5-.8c-.7 0-1.2.3-1.6.8c-.3.4-.5 1-.5 1.6zm.1 2.1c0 .5.2.9.6 1.3c.4.4 1.1.7 1.9.7c1.1.1 2.3-.1 3.7-.4v2.2c-1.2.4-2.4.6-3.7.5c-1.7 0-3-.5-3.9-1.5c-1-.9-1.4-2.2-1.4-4c0-1.7.4-3.1 1.3-4.1c1-1 2.1-1.5 3.5-1.5c1.4 0 2.5.5 3.4 1.6c.9 1 1.4 2.4 1.4 4.1c-.04 0 0 1.1 0 1.1c0 0-6.85.03-6.8 0zM150.9 6v2.3h-2.5v8.2h-2.7V8.3h-1.8V6h1.8s.03-.36 0-.4c0-1.3.4-2.3 1.1-3c.8-.8 1.8-1.1 3-1c.4 0 .9 0 1.4.1v2.3c-.4-.1-.7-.1-1-.1c-.6-.1-1.1.1-1.4.5c-.3.3-.4.7-.4 1.3v.3h2.5zm11.1 5.3c0 1.6-.5 2.9-1.6 3.9c-1.1 1.1-2.4 1.6-3.9 1.6c-1.5 0-2.8-.5-4-1.5c-1.1-1.1-1.6-2.4-1.6-4c0-1.7.5-3 1.6-4c1.1-1.1 2.4-1.6 4-1.6c1.5 0 2.8.5 3.9 1.6c1.1 1 1.6 2.4 1.6 4zm-8.4 0c0 .9.2 1.6.8 2.2c.5.6 1.2.9 2.1.9c.8 0 1.5-.3 2-.9c.6-.6.8-1.3.8-2.2c0-.9-.2-1.7-.8-2.3c-.5-.6-1.2-.9-2-.9c-.9 0-1.6.3-2.1.9c-.6.6-.8 1.4-.8 2.3zm9.7-5.3h2.6s-.02 1.11 0 1.1c.8-.9 1.7-1.4 2.7-1.4c.3 0 .6.1 1.1.2v2.4c-.4-.1-.8-.1-1.2-.1c-1 .1-1.8.6-2.5 1.5c.05-.02 0 6.8 0 6.8h-2.7V6zm15.8 7.1c0 .5.1.8.3 1c.2.2.5.3 1 .3c.02-.05 1.7 0 1.7 0v2.3s-2.17.05-2.2 0c-1.1.1-2-.2-2.6-.8c-.6-.5-.9-1.3-.9-2.3c.04-.03 0-5.3 0-5.3h-1.8V6h1.8V3.5l2.7-.8v3.3h2.5v2.3h-2.5s.05 4.8 0 4.8zm3.7-11.2h2.8s-.04 4.99 0 5c.8-.8 1.7-1.1 2.7-1.1c1.2 0 2.2.3 2.9 1c.7.8 1.1 1.9 1.1 3.3c-.03.03 0 6.4 0 6.4h-2.8s.02-6.13 0-6.1c0-1.5-.6-2.2-1.8-2.2c-.8 0-1.5.5-2.1 1.6c-.04-.04 0 6.7 0 6.7h-2.8V1.9zm13.5 8.5h4.1c0-.6-.2-1.2-.5-1.6c-.4-.5-.9-.8-1.5-.8c-.7 0-1.2.3-1.6.8c-.3.4-.5 1-.5 1.6zm0 2.1c.1.5.3.9.7 1.3c.4.4 1.1.7 1.9.7c1.1.1 2.3-.1 3.7-.4v2.2c-1.2.4-2.5.6-3.7.5c-1.7 0-3-.5-3.9-1.5c-1-.9-1.4-2.2-1.4-4c0-1.7.4-3.1 1.3-4.1c1-1 2.1-1.5 3.5-1.5c1.4 0 2.5.5 3.4 1.6c.9 1 1.4 2.4 1.4 4.1c-.05 0 0 1.1 0 1.1c0 0-6.85.03-6.9 0zm16.3-4.2s2.13-.04 2.1 0c.9 0 1.4-.2 1.8-.6c.4-.4.6-.8.6-1.3c0-.5-.2-.9-.6-1.3c-.4-.3-.9-.5-1.8-.5c.03-.03-2.1 0-2.1 0v3.7zm1.1 2.4h-1.1v5.8h-2.7V2.1s4.49.03 4.5 0c1.8 0 3.1.4 4 1.2c1 .9 1.4 1.9 1.4 3.2c0 1.2-.5 2.3-1.4 3.1c-.5.4-1.2.7-1.9.8c.04.03 4.3 6.1 4.3 6.1h-3.1l-4-5.8zm7.7 5.8V6h2.8v10.5h-2.8zm0-11.9V1.9h2.8v2.7h-2.8zm9.2 9.5c.8 0 1.5-.4 2-1.2V9.2c-.5-.7-1.2-1-2-1c-.8 0-1.3.3-1.8.9c-.4.6-.6 1.3-.6 2.1c0 .8.2 1.5.7 2.1c.4.5 1 .8 1.7.8zm2 2v-.6c-.7.7-1.6 1-2.6 1c-1.2 0-2.2-.4-3.1-1.4c-1-.9-1.4-2.3-1.4-3.9c0-1.6.4-3 1.3-4c.9-1 2-1.5 3.3-1.5c1 0 1.9.4 2.7 1.1c-.03.03 0-.8 0-.8h2.5s.04 8.92 0 8.9c0 2-.4 3.4-1.4 4.3c-.9.8-2.2 1.3-3.9 1.3c-1.1 0-2.2-.1-3.4-.3v-2.4c1.2.3 2.2.4 3.2.3c1.1 0 1.8-.2 2.2-.6c.4-.4.6-.9.6-1.4zm4.7-14.2h2.7s.03 4.99 0 5c.8-.8 1.7-1.1 2.7-1.1c1.3 0 2.3.3 3 1c.7.8 1 1.9 1 3.3c.03.03 0 6.4 0 6.4H244s-.01-6.13 0-6.1c0-1.5-.6-2.2-1.9-2.2c-.8 0-1.5.5-2.1 1.6c.03-.04 0 6.7 0 6.7h-2.7V1.9zM252 13.1c0 .5.1.8.2 1c.3.2.6.3 1.1.3c.01-.05 1.7 0 1.7 0v2.3s-2.18.05-2.2 0c-1.1.1-2-.2-2.6-.8c-.6-.5-.9-1.3-.9-2.3c.04-.03 0-5.3 0-5.3h-1.8V6h1.8V3.5l2.7-.8v3.3h2.5v2.3H252s.04 4.8 0 4.8zm11.9 3.4h-2.7V2.1h9.1v2.5h-6.4v3.4h5.6v2.4h-5.6v6.1zm7.4-4c-.05.03 0-6.5 0-6.5h2.7v6.2c0 1.5.7 2.2 2 2.2c1.3 0 2-.7 2-2.2c.02-.02 0-6.2 0-6.2h2.8s-.04 6.57 0 6.6c0 1.3-.5 2.4-1.3 3.1c-.9.8-2.1 1.2-3.5 1.2c-1.5 0-2.7-.4-3.5-1.1c-.8-.8-1.2-1.8-1.2-3.3zm14.7.6c0 .5.1.8.2 1c.3.2.6.3 1.1.3c0-.05 1.7 0 1.7 0v2.3s-2.19.05-2.2 0c-1.1.1-2-.2-2.6-.8c-.6-.5-.9-1.3-.9-2.3c.03-.03 0-5.3 0-5.3h-1.9V6h1.9V3.5l2.7-.8v3.3h2.5v2.3H286s.03 4.8 0 4.8zm3.7-.6c-.02.03 0-6.5 0-6.5h2.7s.03 6.18 0 6.2c0 1.5.7 2.2 2 2.2c1.4 0 2-.7 2-2.2c.05-.02 0-6.2 0-6.2h2.8s-.01 6.57 0 6.6c0 1.3-.4 2.4-1.3 3.1c-.9.8-2 1.2-3.5 1.2c-1.5 0-2.6-.4-3.5-1.1c-.8-.8-1.2-1.8-1.2-3.3zM301.1 6h2.6s-.02 1.11 0 1.1c.8-.9 1.7-1.4 2.7-1.4c.3 0 .6.1 1.1.2v2.4c-.4-.1-.8-.1-1.2-.1c-1 .1-1.8.6-2.5 1.5c.05-.02 0 6.8 0 6.8h-2.7V6zm9.2 4.4h4.1c0-.6-.2-1.2-.5-1.6c-.4-.5-.9-.8-1.5-.8c-.7 0-1.2.3-1.6.8c-.3.4-.5 1-.5 1.6zm0 2.1c.1.5.3.9.7 1.3c.4.4 1.1.7 1.9.7c1.1.1 2.3-.1 3.7-.4v2.2c-1.2.4-2.5.6-3.7.5c-1.7 0-3-.5-3.9-1.5c-1-.9-1.4-2.2-1.4-4c0-1.7.4-3.1 1.3-4.1c1-1 2.1-1.5 3.5-1.5c1.4 0 2.5.5 3.4 1.6c.9 1 1.3 2.4 1.3 4.1c.05 0 0 1.1 0 1.1c0 0-6.76.03-6.8 0z" stroke="none" fill="#111111"/></g></svg>