<?xml version="1.0" standalone="no"?><!DOCTYPE svg PUBLIC "-//W3C//DTD SVG 1.1//EN" "http://www.w3.org/Graphics/SVG/1.1/DTD/svg11.dtd"><svg xmlns="http://www.w3.org/2000/svg" version="1.1" width="170px" height="30.9px" viewBox="0 -4 170 30.9" style="top:-4px"><desc>정 의 선</desc><defs/><g id="Polygon39886"><path d="m5.4 3.9c.1 0 .3-.1.4-.1h.2c.6-.1 1.1-.1 1.6-.1c.8-.1 1.5-.1 2.1-.1C9 4.9 7.9 6.3 6.5 7.8c-1.4 1.5-2.8 2.7-4.3 3.6c-.3.2-.5.3-.4.4c0 .1.2 0 .5-.1c1-.6 2.1-1.2 3.1-2C6.6 8.9 7.6 8 8.3 7.3c.5.5 1.1 1.1 1.7 1.9c.5.5 1 1 1.5 1.6c.1.1.2.2.4.2c.1 0 .2 0 .3-.1c.1-.1.1-.3 0-.5c0-.3-.2-.6-.4-1c-.2-.3-.4-.5-.5-.6c-.2-.1-.3-.2-.5-.3c-.3-.1-.6-.2-.8-.4c-.4-.3-.8-.6-1.4-1.2c.5-.6.9-1.1 1.2-1.5c.4-.5.8-1 1.1-1.6c0 0 .1-.1.2-.1c0-.1 0-.1.1-.2c.2-.2.3-.4.3-.5c-.1-.1-.4-.1-.9-.1h-.9c0 .1-.1.1-.1.1c-.1 0-.2 0-.3.1c-1 0-2 .1-2.8.1c-1.3 0-2.3 0-2.9-.1c-.4-.1-.7-.1-.7 0c-.1.1.1.2.3.4c.7.3 1.2.5 1.5.6c.1 0 .3 0 .5-.1c.1 0 .2-.1.2-.1zM12.9 6h-2c-.4 0-.6 0-.6.1c0 .1.2.3.6.5c.4.2.8.3 1 .3c.1 0 .3 0 .5-.1c.1 0 .2-.1.3-.1h.3c.01-.05.5-.1.5-.1l1.7-.1s.04 4.94 0 4.9c0 .8.1 1.2.3 1.4c.1.1.3 0 .5-.3c.1-.3.3-.7.4-1.3c0-.4.1-.9.1-1.5V2.1s.04-.31 0-.3c.1-.2.1-.3 0-.3c0-.1-.2-.2-.4-.3c-.2-.1-.6-.2-1-.3L13.6.6c-.5 0-.7.1-.7.2c0 .1.2.3.5.4c.5.2.9.4 1.2.6c.4.2.6.5.6.7v3.4c-.7 0-1.4.1-2.3.1zM10 14.2c.5-.5 1.2-.8 2.2-.8c.8 0 1.6.3 2.1.8c.5.5.7 1.1.7 1.8c0 .6-.2 1.2-.7 1.7c-.5.5-1.2.7-2.1.7c-1 0-1.7-.2-2.2-.7c-.5-.5-.7-1.1-.7-1.7c0-.7.2-1.3.7-1.8zm1.9-1.7c0 .1-.1.2-.3.3c-1.1.1-2.1.6-2.7 1.3c-.5.7-.8 1.4-.7 2.2c0 .9.4 1.6 1.1 2.1c.7.7 1.6 1 2.8 1c1.1 0 2.1-.3 2.8-.9c.7-.6 1.1-1.3 1.2-2.1c.1-.8-.1-1.5-.7-2.2c-.6-.7-1.5-1.2-2.6-1.4v-.2c.1 0 .1 0 .1-.1c.2-.2.2-.3.1-.4c-.1-.2-.4-.3-.9-.5c-.4-.1-.5-.1-.6 0c0 .1 0 .2.2.3c.1.2.2.4.2.6zm20.3-7.4c.6-.6 1.3-.8 2.2-.8c.9 0 1.6.2 2.1.8c.5.4.7 1 .7 1.7c0 .7-.2 1.3-.7 1.8c-.5.5-1.2.8-2.1.8c-.9 0-1.6-.3-2.2-.8c-.4-.5-.7-1.1-.7-1.8c0-.7.3-1.3.7-1.7zm2.1-2c0 .2-.1.3-.4.3l-.1.1c-1.3.1-2.2.6-2.8 1.3c-.6.7-.8 1.5-.7 2.3c.1.9.5 1.6 1.2 2.1c.7.7 1.7 1 2.9 1c1.1 0 2-.3 2.8-.9c.7-.6 1.1-1.3 1.2-2.1c.1-.8-.1-1.6-.6-2.3c-.6-.7-1.4-1.2-2.6-1.4l.1-.3c.1-.2.2-.3.1-.4c0-.2-.3-.4-.7-.5c-.4-.1-.6-.1-.7 0c0 0 0 .2.3.4c.1.2.1.3 0 .4zm6.8-1.2c.3.3.5.5.5.7v10c-1.5.4-3.7.9-6.4 1.2c-3.1.5-5.3.6-6.4.3c-.4-.1-.6-.1-.7 0c-.1.1.1.2.4.4c1.2.6 1.9 1 2.3 1.1c.2 0 .5 0 .7-.2c.1 0 .2-.1.2-.1c.1-.1.3-.1.4-.1l1-.2c.6-.1 1.1-.2 1.5-.3c.6-.1 1.1-.2 1.5-.3c1.1-.2 2.1-.4 3-.7c.8-.2 1.6-.5 2.5-.7v5.3c0 .6.1 1 .2 1.2c0 .2.1.3.3.3c.3-.2.5-.7.6-1.5c.1-.7.2-1.9.2-3.4v-13c.1-.2.1-.3 0-.3c0-.1-.1-.2-.3-.3c-.5-.2-.9-.3-1.2-.4c-.5-.1-1-.2-1.5-.2c-.5 0-.7.1-.7.2c0 .1.2.2.6.4c.6.2 1 .4 1.3.6zm18.8 1.9c.3.3.5.5.5.7l-.1.2c-.4 1.1-1.2 2.3-2.2 3.6c-1.1 1.3-2.3 2.4-3.6 3.4c-.4.2-.5.4-.5.5c.1 0 .4 0 .8-.3c.9-.6 1.9-1.2 2.8-2c1.1-.9 1.9-1.6 2.4-2.3l3.6 3.8c.2.2.4.4.6.4c.2 0 .4 0 .4-.1c.2-.1.2-.3.1-.5c0-.3-.1-.6-.3-.8c-.4-.5-.7-.8-1-1l-.6-.3c-.2-.1-.3-.1-.4-.2c-.1-.1-.3-.2-.5-.3c-.2-.1-.5-.4-.8-.7l-.8-.8c.3-.3.5-.6.7-1c.1-.2.3-.5.6-.9c-.02-.04.2-.4.2-.4c0 0 .12-.26.1-.3c.1-.2.2-.3.2-.4c0-.1-.1-.2-.3-.4c-.3-.2-.6-.4-1-.5c-.5-.2-1-.4-1.6-.6c-.4 0-.6.1-.6.2c0 .1.2.2.4.3c.3.2.6.4.9.7zM67.5 2c.3.2.5.4.5.7v4.1l-3.2.1l-1 .1c-.4-.1-.6 0-.6.1c-.1 0 .1.2.4.4c.6.2 1 .4 1.3.4c.1 0 .3 0 .4-.1c.1-.1.2-.1.2-.2h.4c0-.05 2.1-.2 2.1-.2v6.3c0 .6.1 1.1.2 1.3c.1.2.2.3.4.1c.2-.2.4-.6.5-1.2c.1-.5.1-1.2.2-2.1c-.05.03 0-9.3 0-9.3v-.8c-.1-.2-.3-.3-.6-.4h-.1c-.4-.2-.7-.3-.9-.3c-.5-.2-.9-.2-1.2-.2c-.6 0-.9.1-.8.3c.1.1.3.2.7.3c.5.2.8.4 1.1.6zM60 14.4c.2.1.4.3.4.5v2.2c0 .5.2.9.6 1.1c.3.2.9.3 1.6.3h7.9c.2 0 .4-.1.5-.2c.1-.1.1-.2.1-.4c-.1-.1-.2-.2-.4-.3c-.1-.2-.4-.2-.7-.2c-.6-.1-1.1-.1-1.4 0c-.2 0-.4.1-.6.2c-.1.1-.2.2-.3.2c-.2 0-.5.1-.8.1l-4.2.1c-.4-.1-.7-.1-.8-.2c-.1-.1-.2-.3-.2-.5c-.02-.01 0-2.8 0-2.8c0 0-.02-.32 0-.3v-.4c-.1-.1-.2-.2-.4-.2c-.2 0-.5-.1-.9-.1c-.4 0-.9-.1-1.3-.1c-.4.1-.6.2-.6.3c-.1.1.1.2.3.3c.6.2 1 .3 1.2.4z" stroke="none" fill="#111111"/></g></svg>