<?xml version="1.0" standalone="no"?><!DOCTYPE svg PUBLIC "-//W3C//DTD SVG 1.1//EN" "http://www.w3.org/Graphics/SVG/1.1/DTD/svg11.dtd"><svg xmlns="http://www.w3.org/2000/svg" version="1.1" width="413px" height="54.2px" viewBox="0 -2 413 54.2" style="top:-2px"><desc>현대자동차그룹은 ‘인류를 위한 진보(Progress for Humanity)’를 추구합니다. 우리는 기술의 진화를 통해 인류의 안전하고 자유로운 이동과 평화로운 삶을 실현하고 지속가능한 미래를 만들기 위한 도전...</desc><defs/><g id="Polygon40035"><path d="m6.9 37.5h1.3v9.4H6.9v-9.4zm-2.8 2s-.03.49 0 .5c0 .4 0 .8.1 1.1c.1.4.3.8.4 1.1c.2.4.5.7.8.9c.3.3.6.5 1 .7l-.7 1.1c-.6-.3-1.1-.6-1.4-1.1c-.4-.4-.7-.9-.9-1.5c-.2.7-.5 1.2-.9 1.7c-.4.5-.8.8-1.4 1.1L.4 44c.4-.2.7-.4 1-.7c.3-.3.5-.6.7-1c.2-.3.4-.7.5-1.1c.1-.4.1-.8.1-1.2v-.5h-2v-1.1h5.3v1.1H4.1zm13.5.8l-.4 1c-.8-.1-1.5-.3-2.1-.6c-.5-.3-1-.7-1.3-1.2c-.3.5-.7.9-1.2 1.2c-.6.3-1.3.5-2.1.6l-.5-1c.6-.1 1-.2 1.4-.3c.4-.2.7-.4 1-.6c.3-.2.4-.5.6-.7c.1-.3.2-.5.2-.8c-.04 0 0-.3 0-.3h1.3s.03.3 0 .3c0 .3.1.5.2.8c.1.3.3.5.6.7c.2.2.6.4 1 .6c.4.1.8.2 1.3.3zM14.5 42h3.6v1.1H9.6V42h3.6v-1.2h1.3v1.2zm-3.9 2.8v-1.1h6.5v3.2h-1.4v-2.1h-5.1zM27.5 41v1.2h-1.3v4.6h-1.4v-9.4h1.4v3.6h1.3zm-8.3-2.6s4.45.02 4.5 0c0 .7-.1 1.4-.3 2.1c-.1.6-.3 1.2-.7 1.8c-.3.6-.7 1.1-1.3 1.6c-.5.5-1.2.9-1.9 1.3l-.8-1c1.1-.6 1.9-1.2 2.5-2c.6-.7 1-1.6 1.1-2.7h-3.1v-1.1zm16.3 1.4v1.1H29v-3.3h1.4v2.2h5.1zM28 41.7h8.5v1H28v-1zm4.2 1.6c.5 0 1 .1 1.4.2c.4 0 .7.2 1 .3c.3.2.5.3.6.5c.2.3.3.5.3.8c0 .3-.1.5-.3.7c-.1.2-.3.4-.6.6c-.3.1-.6.2-1 .3c-.4.1-.9.1-1.4.1c-1 0-1.8-.1-2.4-.4c-.6-.3-.9-.8-.9-1.3c0-.6.3-1 .9-1.3c.6-.3 1.4-.5 2.4-.5zm-1.9 1.8c0 .5.6.7 1.9.7c1.3 0 1.9-.2 1.9-.7c0-.5-.6-.7-1.9-.7c-1.3 0-1.9.2-1.9.7zm12.4-6.7v1.1h-5.5v-1.1h2v-1h1.4v1h2.1zm1.9 1.9h1.2v1.1h-1.2v3.1h-1.4v-7h1.4v2.8zm-2.4 1.3c0 .3 0 .6-.1.8c-.2.2-.3.4-.5.6c-.2.1-.5.2-.8.3c-.2.1-.5.2-.9.2c-.3 0-.6-.1-.9-.2c-.3-.1-.5-.2-.7-.3c-.2-.2-.4-.4-.5-.6c-.1-.2-.2-.5-.2-.8c0-.2.1-.5.2-.7c.1-.2.3-.4.5-.6c.2-.1.4-.2.7-.3c.3-.1.6-.2.9-.2c.4 0 .7.1.9.2c.3.1.6.2.8.3c.2.2.3.4.5.6c.1.2.1.5.1.7zm-3.3 0c0 .3.1.5.3.6c.2.2.4.2.7.2c.3 0 .6 0 .8-.2c.1-.1.2-.3.2-.6c0-.2-.1-.4-.2-.5c-.2-.2-.5-.2-.8-.2c-.3 0-.5 0-.7.2c-.2.1-.3.3-.3.5zm.9 2.4v1.6h5.1v1.1h-6.4V44h1.3zm15.1-6.5h1.3v9.4h-1.3v-9.4zm-6 .8h4.5v6.3h-4.5v-6.3zm3.2 1.1h-1.9v4.2h1.9v-4.2zm12.3-2h1.3v9.4h-1.3v-4.7h-.8v4.3h-1.3v-8.8h1.3v3.4h.8v-3.6zM59.2 42s-.01 1.67 0 1.7c.4 0 .8-.1 1.3-.1c.4 0 .8-.1 1.3-.1l.1 1c-.6.1-1.2.2-1.7.2c-.5.1-1.1.1-1.7.1c.05-.03-.6 0-.6 0v-3.9h2.2v-1.5h-2.2v-1h3.5v3.6h-2.2zM73 39v-.5h-5.1v-.9h6.4v2.2h-5.1v.5h5.2v.9h-6.5V39h5.1zm-6.2 2.7h8.5v1h-8.5v-1zm2.3 3.7v.5h5.5v.9h-6.8v-2.3h5.2v-.5h-5.2v-.9h6.5v2.3h-5.2zm16.4-5.2h1.2v1.1h-1.2v3h-1.4v-6.8h1.4v2.7zm-2.6-2v4.6h-4.5v-4.6h4.5zm-1.4 3.5v-2.4h-1.8v2.4h1.8zm-.7 1.9v2h5v1.1h-6.4v-3.1h1.4zm14-4.1v1.1h-6.5v-3h6.4v1.1h-5v.8h5.1zm-7.5 1.6h8.5v1.1h-8.5v-1.1zm2.3 4.1v.5h5.4v1.1h-6.7v-2.6h5.1v-.5h-5.2v-1h6.5v2.5h-5.1zm13.3-7.8h1.4v9.4h-1.4v-9.4zm-5.9 1s4.49.03 4.5 0c0 .7-.1 1.4-.2 2.1c-.2.6-.4 1.2-.7 1.8c-.3.6-.8 1.1-1.3 1.6c-.6.5-1.3 1-2.1 1.4l-.7-1.1c.6-.3 1.1-.6 1.5-.9c.5-.4.8-.7 1.1-1.1c.3-.4.5-.8.7-1.3c.2-.4.3-.9.3-1.4H97v-1.1zm17.3-.9h1.3v9.3h-1.3v-9.3zm-3.5 4.3c-.4 0-.7 0-1-.1c-.3-.1-.5-.2-.8-.4c-.2-.2-.4-.4-.5-.6c-.1-.3-.2-.6-.2-.9c0-.3.1-.5.2-.8c.1-.2.3-.4.5-.6c.3-.2.5-.3.8-.4c.3-.1.6-.2 1-.2c.4 0 .7.1 1 .2c.3.1.5.2.8.4c.2.2.4.4.5.6c.1.3.2.5.2.8c0 .3-.1.6-.2.9c-.1.2-.3.4-.5.6c-.3.2-.5.3-.8.4c-.3.1-.6.1-1 .1zm0-2.9c-.3 0-.6.1-.8.3c-.3.1-.4.3-.4.6c0 .3.1.6.4.7c.2.2.5.2.8.2c.3 0 .6 0 .8-.2c.3-.1.4-.4.4-.7c0-.3-.1-.5-.4-.6c-.2-.2-.5-.3-.8-.3zm2.9 3.2l.1 1c-.4 0-.8.1-1.1.1c-.4.1-.8.1-1.2.2c.02-.02 0 3.2 0 3.2h-1.3s-.03-3.14 0-3.1h-2.3l-.1-1.1h1.3c.5 0 1 0 1.5-.1h1.6c.5-.1 1-.1 1.5-.2zm8.8-3.7v1.1h-5.6v-1.1h2.1v-1h1.4v1h2.1zm1.8 1.9h1.3v1.1h-1.3v3.1H123v-7h1.3v2.8zm-2.3 1.3c0 .3-.1.6-.2.8c-.1.2-.2.4-.5.6c-.2.1-.4.2-.7.3c-.3.1-.6.2-.9.2c-.3 0-.7-.1-.9-.2c-.3-.1-.6-.2-.8-.3c-.2-.2-.3-.4-.4-.6c-.2-.2-.2-.5-.2-.8c0-.2 0-.5.2-.7c.1-.2.2-.4.4-.6c.2-.1.5-.2.8-.3c.2-.1.6-.2.9-.2c.3 0 .6.1.9.2c.3.1.5.2.7.3c.3.2.4.4.5.6c.1.2.2.5.2.7zm-3.3 0c0 .3.1.5.3.6c.1.2.4.2.7.2c.3 0 .5 0 .7-.2c.2-.1.3-.3.3-.6c0-.2-.1-.4-.3-.5c-.2-.2-.4-.2-.7-.2c-.3 0-.6 0-.7.2c-.2.1-.3.3-.3.5zm.9 2.4v1.6h5.1v1.1h-6.4V44h1.3zm13.5.7h3.6v1.1h-8.5v-1.1h3.6v-2h-2.6v-4.6h6.6v1.1h-5.2v2.5h5.2v1h-2.7v2zm9.3-4.8h1.5v-2.4h1.4v6.8h-1.4V41h-1.5v-1.1zm.7 2.1l-.7 1.1c-.5-.2-.9-.4-1.3-.7c-.3-.4-.6-.7-.8-1.2c-.2.5-.5.9-.9 1.3c-.4.3-.8.6-1.4.8l-.6-1.1c.3-.1.7-.3 1-.5c.2-.2.5-.4.6-.7c.2-.2.4-.5.4-.8c.1-.3.2-.6.2-.9c-.03 0 0-.1 0-.1h-1.9v-1.1h5.1v1.1h-1.9s.04.08 0 .1c0 .3.1.5.2.8c0 .3.2.6.3.8c.2.2.4.5.7.7c.3.2.6.3 1 .4zm-2.7 3.6h5.1v1.1h-6.4v-3h1.3v1.9zm14.8-4.4v1.2H154v4.4h-1.4v-9.4h1.4v3.8h1.2zm-3.6 1.6l-1.4-.2c.2-.6.2-1.2.2-1.7c.1-.5.1-1 .1-1.4c-.01-.04-3.5 0-3.5 0v-1.1h4.8s.02.75 0 .8v1.5c0 .6-.1 1.3-.2 2.1zm-2.1-1.7v2.7c.5 0 .9 0 1.4-.1c.4 0 .9 0 1.3-.1l.1 1c-.5.1-1 .1-1.5.2c-.5 0-1 .1-1.5.1c-.4 0-.9 0-1.4.1h-1.3c.02-.03-.1-1.1-.1-1.1c0 0 .81-.04.8 0h.9c-.02-.05 0-2.8 0-2.8h1.3zm13.6-2.8v1h-5.2v-1h2v-.9h1.3v.9h1.9zm1.3-.8h1.3v5.9h-1.3v-1h-1.3v-1h1.3v-.8h-1.2v-1h1.2v-2.1zm-1.7 3.9c0 .3 0 .5-.1.8c-.1.2-.3.4-.5.5c-.2.2-.4.3-.7.4c-.2.1-.5.1-.9.1c-.3 0-.6 0-.8-.1c-.3-.1-.5-.2-.7-.4c-.2-.1-.4-.3-.5-.5c-.1-.3-.2-.5-.2-.8c0-.2.1-.5.2-.7c.1-.2.3-.4.5-.6c.2-.1.4-.2.7-.3c.2-.1.5-.2.8-.2c.4 0 .7.1.9.2c.3.1.5.2.7.3c.2.2.4.4.5.6c.1.2.1.5.1.7zm-3.1 0c0 .3.1.5.3.6c.1.2.4.2.6.2c.3 0 .5 0 .7-.2c.2-.1.3-.3.3-.6c0-.2-.1-.4-.3-.5c-.2-.2-.4-.2-.7-.2c-.2 0-.5 0-.6.2c-.2.1-.3.3-.3.5zm-.3 3.5v-1h6.4v3h-1.3v-2h-5.1zm15.6-7.4v6.8h-1.4v-6.8h1.4zm-2.1 4.3l-.7 1.1c-.5-.2-.9-.4-1.3-.8c-.4-.3-.6-.7-.8-1.1c-.3.4-.5.9-.9 1.2c-.4.4-.8.7-1.4.9L167 42c.4-.1.7-.3 1-.5c.3-.3.5-.5.7-.8c.2-.3.3-.6.4-.9c.1-.3.2-.6.2-.9c-.04 0 0-.9 0-.9h1.3s.02.9 0 .9c0 .3.1.6.2.9c0 .3.2.6.3.8c.2.3.4.5.7.7c.3.2.6.4 1 .5zm-2.8 3.8h5.1v1.1h-6.5v-3h1.4v1.9zm10.5-4.8c-1.1 0-2-.1-2.6-.4c-.5-.3-.8-.7-.8-1.2c0-.5.3-.9.8-1.2c.6-.3 1.5-.4 2.6-.4c1.1 0 1.9.1 2.5.4c.6.3.9.7.9 1.2c0 .5-.3.9-.9 1.2c-.6.3-1.4.4-2.5.4zm0-2.2c-.7 0-1.2 0-1.5.1c-.4.1-.5.3-.5.5c0 .2.1.4.5.5c.3.1.8.1 1.5.1c.7 0 1.2 0 1.5-.1c.3-.1.5-.3.5-.5c0-.2-.2-.4-.5-.5c-.3-.1-.8-.1-1.5-.1zm-4.3 2.6h8.5v1.1h-8.5v-1.1zm2.3 4v.6h5.4v1h-6.7v-2.5h5.2v-.5h-5.2v-1h6.5v2.4h-5.2zm15.5-7.7h1.4v9.4H194v-4.7h-1.8v-1.1h1.8v-3.6zm-6.1.9s4.38.03 4.4 0c0 .7-.1 1.4-.2 2.1c-.1.6-.4 1.2-.7 1.8c-.3.6-.7 1.1-1.3 1.6c-.5.5-1.2.9-2 1.3l-.7-1c.6-.3 1.1-.6 1.5-.9c.4-.4.8-.7 1.1-1.1c.3-.4.5-.8.6-1.3c.2-.4.3-.9.3-1.4h-3v-1.1zm16.4 1.4v1.1h-6.6v-3.2h6.5v1.1h-5.1v1h5.2zm-7.6 1.7h8.5v1.1h-8.5v-1.1zm6.1 2.4v-.8h1.4v3.6h-6.5v-3.6h1.3v.8h3.8zm0 1.8v-.8H199v.8h3.8zm11.8-4.6v1.1h-1.3v4.7h-1.4v-9.4h1.4v3.6h1.3zm-5.3-3.5v1.2h2v1.1h-5.5v-1.1h2.1v-1.2h1.4zm-.7 2.8c.3 0 .7.1.9.2c.3.1.6.3.8.5c.2.2.4.4.5.7c.1.3.2.6.2.9c0 .3-.1.6-.2.9c-.1.3-.3.5-.5.7c-.2.2-.5.4-.8.5c-.2.1-.6.1-.9.1c-.3 0-.7 0-.9-.1c-.3-.1-.6-.3-.8-.5c-.2-.2-.4-.4-.5-.7c-.1-.3-.2-.6-.2-.9c0-.3.1-.6.2-.9c.1-.3.3-.5.5-.7c.2-.2.5-.4.8-.5c.2-.1.6-.2.9-.2zm0 3.4c.3 0 .6-.1.8-.3c.2-.2.3-.5.3-.8c0-.4-.1-.7-.3-.9c-.2-.2-.5-.3-.8-.3c-.3 0-.6.1-.8.3c-.2.2-.3.5-.3.9c0 .4.1.6.3.8c.2.2.5.3.8.3zm13.8-.1l-1.4-.2c.2-.9.3-1.7.4-2.3v-1.9c.01.04-5.5 0-5.5 0v-1h6.9s-.04.86 0 .9v.9c-.1.3-.1.6-.1 1c0 .4-.1.8-.1 1.2c-.1.4-.1.9-.2 1.4zm-3 .9h4.2v1.1h-8.5v-1.1h3v-3.2h1.3v3.2zm14.8-7.1v5.3h-1.4v-5.3h1.4zm-5.2 4.9c-.3 0-.7 0-1-.1c-.3-.1-.6-.3-.8-.5c-.2-.2-.4-.4-.5-.7c-.1-.3-.2-.6-.2-.9c0-.3.1-.6.2-.9c.1-.3.3-.5.5-.7c.2-.2.5-.4.8-.5c.3-.1.7-.2 1-.2c.4 0 .7.1 1.1.2c.3.1.5.3.8.5c.2.2.4.4.5.7c.1.3.2.6.2.9c0 .3-.1.6-.2.9c-.1.3-.3.5-.5.7c-.3.2-.5.4-.8.5c-.4.1-.7.1-1.1.1zm0-3.3c-.3 0-.6.1-.9.3c-.2.2-.3.4-.3.8c0 .3.1.6.3.8c.3.2.6.3.9.3c.4 0 .7-.1.9-.3c.3-.2.4-.5.4-.8c0-.4-.1-.6-.4-.8c-.2-.2-.5-.3-.9-.3zm4.2 4.1v.3c0 .2 0 .5.1.7l.3.6c.2.2.3.4.6.6c.2.1.5.2.8.3l-.7 1c-.4-.1-.8-.3-1.1-.6c-.3-.3-.5-.6-.7-1c-.1.4-.3.7-.6 1c-.3.3-.6.5-1.1.7c-.4-.1-.8-.4-1-.7c-.3-.2-.5-.6-.7-.9c-.1.3-.4.6-.7.9c-.2.2-.6.5-1 .6l-.7-1c.3-.1.6-.2.8-.4c.2-.1.4-.3.6-.5l.3-.6c0-.3.1-.5.1-.7c-.03-.02 0-.3 0-.3h1.3s-.03.28 0 .3c0 .4.1.7.2 1.1c.2.3.4.7.8.9c.4-.3.7-.6.8-1c.2-.3.3-.7.3-1v-.3h1.3zm10.4-3.1l-.5 1c-.8-.1-1.5-.3-2-.6c-.6-.3-1-.7-1.3-1.1c-.3.4-.8.8-1.3 1.1c-.6.3-1.3.5-2.1.6l-.4-1c.5-.1.9-.2 1.3-.3c.4-.2.8-.4 1-.6c.3-.2.5-.4.6-.6c.1-.3.2-.5.2-.8v-.2h1.4s-.03.25 0 .2c0 .3 0 .5.2.8c.1.2.3.4.5.6c.3.2.6.4 1 .6c.4.1.9.2 1.4.3zm-8.1 1.5h8.5v1h-8.5v-1zm6.1 2.3v-.8h1.4v3.6h-6.5v-3.6h1.4v.8h3.7zm0 1.8v-.8h-3.7v.8h3.7zm9.6-8.3h1.4v9.4h-1.4v-9.4zm-4.7.9s.04 5.09 0 5.1c.7 0 1.3-.1 2-.1l2-.3l.1 1.1c-.8.2-1.6.3-2.3.3c-.8.1-1.5.1-2.3.1c.04.04-.8 0-.8 0v-6.2h1.3zm16.1 2.6v1.1h-1.3v4.9h-1.4v-9.4h1.4v3.4h1.3zm-7-1.5v4.1c.7 0 1.3 0 1.9-.1c.6 0 1.2-.1 1.8-.2l.1 1.1c-.4.1-.7.1-1.1.2c-.3 0-.6 0-1 .1h-2.2c-.04.02-.8 0-.8 0v-6.3h4.3v1.1h-3zm9.2 5.3v1.4h-1.5v-1.4h1.5z" stroke="none" fill="#111111"/></g><g id="Polygon40034"><path d="m4.7 23.5c-.5 0-1 0-1.4-.1c-.4-.1-.8-.3-1.1-.5c-.3-.1-.5-.4-.7-.6c-.1-.3-.2-.6-.2-.9c0-.3.1-.6.2-.9c.2-.2.4-.5.7-.6c.3-.2.7-.4 1.1-.5c.4-.1.9-.1 1.4-.1c.5 0 .9 0 1.3.1c.5.1.8.3 1.1.5c.3.1.6.4.7.6c.2.3.3.6.3.9c0 .3-.1.6-.3.9c-.1.2-.4.5-.7.6c-.3.2-.6.4-1.1.5c-.4.1-.8.1-1.3.1zm0-3.2c-.6 0-1.1.1-1.5.3c-.4.2-.5.4-.5.8c0 .3.1.6.5.8c.4.1.9.2 1.5.2c.6 0 1.1-.1 1.4-.2c.4-.2.6-.5.6-.8c0-.4-.2-.6-.6-.8c-.3-.2-.8-.3-1.4-.3zm4.2 3.9v1.1H5.3v3.1H4v-3.1H.4v-1.1h8.5zm7.2-5.3h1.3v9.5h-1.3v-9.5zm-4.6 4.5v1.7c.7 0 1.4 0 2-.1c.6 0 1.3-.1 1.9-.2l.2 1.1c-.4 0-.8.1-1.2.1c-.3.1-.7.1-1.1.1c-.3.1-.7.1-1.1.1H11c-.04-.01-.9 0-.9 0v-3.9h3.1v-1.5h-3.1v-1h4.4v3.6h-3zm14.9-1.9v1.1h-6.6v-3.3h1.4v2.2h5.2zm-7.6 2h8.5v1.1h-8.5v-1.1zm2.3 1.9v1.7h5.3v1.1h-6.6v-2.8h1.3zm15.5-6.5h1.3v9.4h-1.3v-9.4zm-6 1s4.52.03 4.5 0c0 .7 0 1.4-.2 2.1c-.1.6-.4 1.2-.7 1.8c-.3.6-.8 1.1-1.3 1.6c-.6.5-1.2 1-2.1 1.4l-.7-1.1c.6-.3 1.1-.6 1.6-.9c.4-.4.8-.7 1.1-1.1c.2-.4.5-.8.6-1.3c.2-.4.3-.9.3-1.4h-3.1v-1.1zm16.7 1.3l-.4 1.1c-.8-.1-1.5-.3-2.1-.6c-.5-.3-1-.7-1.3-1.1c-.3.4-.7.8-1.3 1.1c-.6.3-1.3.5-2.1.6l-.4-1.1c.5 0 1-.1 1.4-.2c.4-.2.7-.3.9-.5c.3-.2.5-.4.6-.6c.2-.3.2-.5.2-.7c.02-.02 0-.2 0-.2h1.4v.2c0 .2.1.4.2.7c.1.2.3.4.6.6c.2.2.6.3 1 .5c.3.1.8.2 1.3.2zm.5 2.5h-3.6v.6h2.5v2.4h-5.1v.6h5.4v1h-6.8v-2.5h5.2v-.5h-5.2v-1h2.6v-.6h-3.5v-1.1h8.5v1.1zm7.1-4.8h1.4v9.5h-1.4v-9.5zm-3.4.7c.3 0 .7 0 1 .2c.3.1.6.2.8.4c.2.2.4.5.6.8c.1.2.2.6.2.9c0 .3-.1.6-.2.9c-.2.3-.4.6-.6.8c-.2.2-.5.3-.8.4c-.3.2-.7.2-1 .2c-.4 0-.7 0-1.1-.2c-.3-.1-.5-.2-.8-.4c-.2-.2-.4-.5-.5-.8c-.1-.3-.2-.6-.2-.9c0-.3.1-.7.2-.9c.1-.3.3-.6.5-.8c.3-.2.5-.3.8-.4c.4-.2.7-.2 1.1-.2zm0 1.1c-.4 0-.7.1-.9.3c-.3.2-.4.5-.4.9c0 .4.1.6.4.9c.2.2.5.3.9.3c.3 0 .6-.1.9-.3c.2-.3.3-.5.3-.9c0-.4-.1-.7-.3-.9c-.3-.2-.6-.3-.9-.3zm-2.8 5.8l-.2-1.1h1.3c.5 0 1 0 1.5-.1c.6 0 1.1 0 1.6-.1c.5 0 1-.1 1.5-.1l.1.9l-1.5.3c-.5 0-1.1.1-1.6.1c-.5 0-1 0-1.4.1h-1.3zM67.5 19v6.8h-1.3V19h1.3zm-1.9 4.6l-.7 1c-.5-.2-1-.4-1.3-.7c-.4-.3-.7-.7-.9-1.1c-.2.4-.5.8-.8 1.2c-.4.3-.9.6-1.4.8l-.7-1.1c.4-.1.7-.3 1-.5c.3-.2.5-.4.7-.7c.2-.2.3-.5.4-.8c.1-.3.1-.6.1-.9c.03.01 0-.1 0-.1h-1.9v-1.1h5.1v1.1h-1.8v.1c0 .3 0 .6.1.8c.1.3.2.6.4.8c.2.3.4.5.7.7c.3.2.6.3 1 .5zm-3 3.5h5.2v1.1h-6.5v-3.1h1.3v2zm15-4.3v1.1h-1.2v4.5H75V19h1.4v3.8h1.2zM74.5 20v1.1H69V20h2.1v-1h1.3v1h2.1zm-2.1 4.9v.7h1.1c.4-.1.7-.1 1.1-.2l.1 1c-.5.1-1 .2-1.5.2c-.5.1-1 .1-1.5.1c-.5.1-1 .1-1.4.1H69c-.02-.01-.2-1.1-.2-1.1h2.3v-.8c-.5-.1-.9-.3-1.2-.6c-.3-.3-.4-.7-.4-1.1c0-.3 0-.5.1-.7c.2-.2.3-.4.5-.6c.2-.1.5-.3.7-.4c.3 0 .6-.1 1-.1c.3 0 .6.1.9.1c.3.1.5.3.7.4c.2.2.4.4.5.6c.1.2.2.4.2.7c0 .4-.2.8-.5 1.1c-.3.3-.7.5-1.2.6zm-1.7-1.7c0 .2.1.4.3.6c.2.1.5.1.8.1c.3 0 .5 0 .7-.1c.2-.2.3-.4.3-.6c0-.3-.1-.4-.3-.6c-.2-.1-.4-.2-.7-.2c-.3 0-.6.1-.8.2c-.2.2-.3.3-.3.6zm13.5-2.7v-.5h-5.1v-.9h6.5v2.2h-5.1v.5h5.2v.9h-6.5v-2.2h5zm-6.1 2.7h8.5v1h-8.5v-1zm2.3 3.7v.5h5.5v.9h-6.8V26h5.2v-.5h-5.2v-.9h6.5v2.3h-5.2zm13.9-3.1h3.6v1.1h-8.5v-1.1h3.6v-.6h-2.6v-4h6.5v1h-5.1v.5h4.9v1h-4.9v.5h5.2v1h-2.7v.6zm-.7 1.5c1.1 0 1.9.1 2.5.4c.5.2.8.6.8 1.1c0 .5-.3.9-.8 1.2c-.6.2-1.4.4-2.5.4c-1.1 0-1.9-.2-2.4-.4c-.6-.3-.8-.7-.8-1.2c0-.5.2-.9.8-1.1c.5-.3 1.3-.4 2.4-.4zm0 2.1c.7 0 1.2-.1 1.5-.2c.3 0 .4-.2.4-.4c0-.2-.1-.3-.4-.4c-.3-.1-.8-.1-1.5-.1c-.6 0-1.1 0-1.4.1c-.3.1-.5.2-.5.4c0 .2.2.4.5.4c.3.1.8.2 1.4.2zm11.8-8.5h1.2v9.4h-1.2v-4.4h-.8v4.1h-1.2v-8.9h1.2v3.7h.8v-3.9zm-3.9.3v1.2h1.5v1h-4.4v-1h1.6v-1.2h1.3zm-.7 2.7c.3 0 .6 0 .9.1c.2.1.4.3.6.5c.2.2.3.4.4.7c.1.3.2.6.2.9c0 .3-.1.6-.2.9c-.1.3-.2.5-.4.7c-.2.2-.4.4-.6.5c-.3.1-.6.1-.9.1c-.3 0-.5 0-.8-.1c-.3-.1-.5-.3-.7-.5c-.1-.2-.3-.4-.4-.7c-.1-.3-.1-.6-.1-.9c0-.3 0-.6.1-.9c.1-.3.3-.5.4-.7c.2-.2.4-.4.7-.5c.3-.1.5-.1.8-.1zm0 3.3c.3 0 .5-.1.7-.3c.1-.2.2-.4.2-.8c0-.4-.1-.6-.2-.8c-.2-.2-.4-.3-.7-.3c-.2 0-.4.1-.6.3c-.2.2-.3.4-.3.8c0 .4.1.6.3.8c.2.2.4.3.6.3zm16.9-6.2v6.7h-1.4V19h1.4zm-2.6 2.9c0 .4-.1.7-.2 1c-.1.3-.3.5-.5.8c-.3.2-.5.3-.8.4c-.3.2-.7.2-1 .2c-.4 0-.7 0-1.1-.2c-.3-.1-.5-.2-.8-.4c-.2-.3-.4-.5-.5-.8c-.1-.3-.2-.6-.2-1c0-.3.1-.6.2-.9c.1-.3.3-.6.5-.8c.3-.2.5-.3.8-.5c.4-.1.7-.1 1.1-.1c.3 0 .7 0 1 .1c.3.2.5.3.8.5c.2.2.4.5.5.8c.1.3.2.6.2.9zm-3.8 0c0 .4.1.7.4.9c.2.3.5.4.9.4c.3 0 .6-.1.8-.4c.3-.2.4-.5.4-.9c0-.3-.1-.6-.4-.9c-.2-.2-.5-.3-.8-.3c-.4 0-.7.1-.9.3c-.3.3-.4.6-.4.9zm1.5 5.2h5.1v1.1h-6.5V25h1.4v2.1zm12.4-6.1v-.7H120v-1.1h6.6v2.8h-5.2v.7h5.4v1.1H120V21h5.2zm2.4 3.5v1h-2v2.9h-1.4v-2.9h-1.8v2.9H121v-2.9h-2v-1h8.6zm7.1-5.6h1.4v9.5h-1.4v-9.5zm-3.5.7c.4 0 .8 0 1.1.2c.3.1.6.2.8.4c.2.2.4.5.5.8c.2.2.2.6.2.9c0 .3 0 .6-.2.9c-.1.3-.3.6-.5.8c-.2.2-.5.3-.8.4c-.3.2-.7.2-1.1.2c-.3 0-.7 0-1-.2c-.3-.1-.6-.2-.8-.4c-.2-.2-.4-.5-.5-.8c-.2-.3-.2-.6-.2-.9c0-.3 0-.7.2-.9c.1-.3.3-.6.5-.8c.2-.2.5-.3.8-.4c.3-.2.7-.2 1-.2zm0 1.1c-.3 0-.6.1-.9.3c-.2.2-.3.5-.3.9c0 .4.1.6.3.9c.3.2.6.3.9.3c.4 0 .7-.1 1-.3c.2-.3.3-.5.3-.9c0-.4-.1-.7-.3-.9c-.3-.2-.6-.3-1-.3zm-2.8 5.8l-.1-1.1h1.3c.5 0 1 0 1.5-.1c.5 0 1 0 1.6-.1c.5 0 1-.1 1.5-.1l.1.9c-.5.1-1 .2-1.6.3c-.5 0-1 .1-1.5.1c-.5 0-1 0-1.4.1h-1.4zm18.5-4.8h1.3v1.1h-1.3v3h-1.3V19h1.3v2.7zm-2.2.2c0 .4-.1.7-.2 1c-.1.3-.3.5-.6.8c-.2.2-.5.3-.8.5c-.3.1-.6.1-1 .1c-.3 0-.7 0-1-.1c-.3-.2-.5-.3-.8-.5c-.2-.3-.4-.5-.5-.8c-.1-.3-.2-.6-.2-1c0-.3.1-.6.2-.9c.1-.3.3-.6.5-.8c.3-.2.5-.3.8-.5c.3-.1.7-.1 1-.1c.4 0 .7 0 1 .1c.3.2.6.3.8.5c.3.2.5.5.6.8c.1.3.2.6.2.9zm-3.8 0c0 .4.1.7.4 1c.2.2.5.3.8.3c.4 0 .7-.1.9-.3c.3-.3.4-.6.4-1c0-.3-.1-.6-.4-.9c-.2-.2-.5-.3-.9-.3c-.3 0-.6.1-.8.3c-.3.3-.4.6-.4.9zm1.3 3.2v2h5v1.1h-6.3v-3.1h1.3zm11.5-3.7h1.5V19h1.3v6.8h-1.3v-3.3h-1.5v-1.1zm.7 2.1l-.7 1.1c-.5-.2-.9-.4-1.3-.7c-.4-.4-.6-.7-.8-1.2c-.2.5-.5.9-.9 1.3c-.4.3-.8.6-1.4.8l-.7-1.1c.4-.1.8-.3 1-.5c.3-.2.6-.4.7-.7c.2-.2.3-.5.4-.8c.1-.3.2-.6.2-.9c-.04 0 0-.1 0-.1H149v-1.1h5.1v1.1h-1.9s.03.08 0 .1c0 .3.1.5.2.8c0 .3.2.6.3.8c.2.2.4.5.7.7c.3.2.6.3 1 .4zm-2.7 3.6h5.1v1.1h-6.4v-3h1.3v1.9zm14.9-4.5v1.1h-1.4v4.7h-1.3V19h1.3v3.6h1.4zm-5.3-3.5v1.2h2v1.1h-5.5v-1.1h2.1v-1.2h1.4zm-.7 2.8c.3 0 .6.1.9.2c.3.1.6.3.8.5c.2.2.4.4.5.7c.1.3.2.6.2.9c0 .3-.1.6-.2.9c-.1.3-.3.5-.5.7c-.2.2-.5.4-.8.5c-.3.1-.6.1-.9.1c-.4 0-.7 0-1-.1c-.3-.1-.5-.3-.7-.5c-.2-.2-.4-.4-.5-.7c-.1-.3-.2-.6-.2-.9c0-.3.1-.6.2-.9c.1-.3.3-.5.5-.7c.2-.2.4-.4.7-.5c.3-.1.6-.2 1-.2zm0 3.4c.3 0 .6-.1.8-.3c.2-.2.3-.5.3-.8c0-.4-.1-.7-.3-.9c-.2-.2-.5-.3-.8-.3c-.3 0-.6.1-.8.3c-.2.2-.3.5-.3.9c0 .4.1.6.3.8c.2.2.5.3.8.3zm13.8-.1L173 25c.2-.9.3-1.7.3-2.3c.1-.7.1-1.3.1-1.9c0 .04-5.5 0-5.5 0v-1h6.8s.05.86 0 .9v1.9c0 .4-.1.8-.1 1.2c-.1.4-.1.9-.2 1.4zm-3 .9h4.2v1.1h-8.5v-1.1h3v-3.2h1.3v3.2zm15.7-3.6v1.2h-1.4v4.7h-1.3V19h1.3v3.5h1.4zm-5.3-1.5v.5c0 .3 0 .7.1 1.1c.1.4.3.7.5 1.1c.1.3.4.6.7.9c.3.3.6.5 1 .7l-.8 1.1c-.5-.3-.9-.6-1.3-1.1c-.4-.4-.6-.9-.9-1.5c-.2.6-.5 1.2-.8 1.7c-.4.5-.9.8-1.4 1.1l-.8-1.1c.4-.2.8-.4 1.1-.7c.2-.3.5-.6.7-1c.2-.3.3-.7.4-1.1c.1-.4.1-.8.1-1.2c.05-.01 0-.5 0-.5h-1.9v-1.1h5.2v1.1h-1.9zm10 2.5c-.5 0-1-.1-1.4-.2c-.4-.1-.8-.2-1.1-.4c-.3-.2-.5-.4-.7-.7c-.2-.2-.2-.5-.2-.8c0-.3 0-.6.2-.9c.2-.2.4-.5.7-.7c.3-.1.7-.3 1.1-.4c.4-.1.9-.1 1.4-.1c.5 0 .9 0 1.3.1c.5.1.8.3 1.1.4c.3.2.5.5.7.7c.2.3.3.6.3.9c0 .3-.1.6-.3.8c-.2.3-.4.5-.7.7c-.3.2-.6.3-1.1.4c-.4.1-.8.2-1.3.2zm0-3.2c-.7 0-1.2.1-1.5.3c-.4.2-.6.4-.6.8c0 .3.2.6.6.8c.3.1.8.2 1.5.2c.6 0 1.1-.1 1.4-.2c.4-.2.6-.5.6-.8c0-.4-.2-.6-.6-.8c-.3-.2-.8-.3-1.4-.3zm4.2 3.9v1.1h-1.9v3h-1.4v-3h-1.9v3h-1.3v-3h-2v-1.1h8.5zm5.6 2h3.6v1.1h-8.5v-1.1h3.6v-1.4h-2.6v-3.2h5.2v-1h-5.2v-1h6.6v3.1H199v1h5.5v1.1h-2.9v1.4zm8.5-3.2c-.5 0-.9 0-1.3-.1c-.5-.1-.8-.2-1.1-.4c-.3-.2-.5-.4-.7-.6c-.2-.2-.2-.5-.2-.8c0-.3 0-.6.2-.8c.2-.3.4-.5.7-.6c.3-.2.6-.3 1.1-.4c.4-.1.8-.2 1.3-.2c.5 0 1 .1 1.4.2c.4.1.8.2 1.1.4c.3.1.5.3.7.6c.1.2.2.5.2.8c0 .3-.1.6-.2.8c-.2.2-.4.4-.7.6c-.3.2-.7.3-1.1.4c-.4.1-.9.1-1.4.1zm0-2.8c-.6 0-1 .1-1.4.2c-.3.2-.5.4-.5.7c0 .3.2.5.5.6c.4.2.8.3 1.4.3c.6 0 1.1-.1 1.4-.3c.4-.1.6-.3.6-.6c0-.3-.2-.5-.6-.7c-.3-.1-.8-.2-1.4-.2zm-4.2 3.3h8.5v1.1h-3.5v1.6h-1.4v-1.6h-3.6v-1.1zm2.3 1.9v1.7h5.3v1.1h-6.6v-2.8h1.3zm15.4-6.5h1.4v9.5h-1.4v-9.5zm-3.7.7c.4 0 .7.1 1 .2c.3.2.6.4.8.7c.2.3.4.7.5 1.1c.1.4.2.8.2 1.4c0 .5-.1.9-.2 1.4c-.1.4-.3.7-.5 1c-.2.3-.5.5-.8.7c-.3.1-.6.2-1 .2c-.3 0-.7-.1-1-.2c-.3-.2-.5-.4-.8-.7c-.2-.3-.3-.6-.5-1c-.1-.5-.2-.9-.2-1.4c0-.6.1-1 .2-1.4c.2-.4.3-.8.5-1.1c.3-.3.5-.5.8-.7c.3-.1.7-.2 1-.2zm0 1.2c-.3 0-.6.2-.8.6c-.3.3-.4.9-.4 1.6c0 .7.1 1.2.4 1.6c.2.3.5.5.8.5c.4 0 .6-.2.9-.5c.2-.4.3-.9.3-1.6c0-.7-.1-1.3-.3-1.6c-.3-.4-.5-.6-.9-.6zm11.4 2.6h3.6v1h-8.5v-1h3.5v-.8h-2.5v-3.2h6.4v1h-5.1v1.1h5.2v1.1h-2.6v.8zm-.7 1.5c1 0 1.8.2 2.4.5c.6.3.8.7.8 1.2c0 .6-.2 1-.8 1.3c-.6.3-1.4.5-2.4.5c-1 0-1.8-.2-2.4-.5c-.6-.3-.9-.7-.9-1.3c0-.5.3-.9.9-1.2c.6-.3 1.4-.5 2.4-.5zm0 2.4c.6 0 1.1 0 1.4-.1c.3-.1.5-.3.5-.6c0-.4-.7-.7-1.9-.7c-1.3 0-1.9.3-1.9.7c0 .3.1.5.5.6c.3.1.7.1 1.4.1zm13.6-4.6v1.2h-1.3v4.4h-1.3v-9.4h1.3v3.8h1.3zm-3.7 1.6l-1.3-.2c.1-.6.2-1.2.2-1.7V21c.04-.04-3.5 0-3.5 0v-1.1h4.9s-.03.75 0 .8c0 .4 0 .9-.1 1.5c0 .6-.1 1.3-.2 2.1zm-2-1.7s-.04 2.71 0 2.7c.4 0 .9 0 1.3-.1c.5 0 .9 0 1.3-.1l.1 1c-.5.1-.9.1-1.4.2c-.5 0-1 .1-1.5.1c-.5 0-1 0-1.4.1h-1.3c-.02-.03-.1-1.1-.1-1.1c0 0 .76-.04.8 0h.8c.04-.05 0-2.8 0-2.8h1.4zm14.8 2.1v-1.4h-1.1v-1.1h1.1v-.7h-1.1v-1h1.1V19h1.4v5.7h-1.4zm-1.2-1.7l.1 1c-.4.1-.9.2-1.3.2c-.5.1-1 .1-1.4.1h-1.3c-.5.1-.9.1-1.2.1c-.03-.05-.2-1.1-.2-1.1h1v-2.6h-.7v-1.1h4.9v1.1h-.7s-.02 2.42 0 2.4h.4c.2 0 .3 0 .4-.1zm-3-2.3v2.5h.9c-.02 0 0-2.5 0-2.5h-.9zm2.4 4.2c1 0 1.8.1 2.4.4c.5.3.8.8.8 1.3c0 .3-.1.5-.2.7c-.1.3-.4.4-.6.6c-.3.2-.7.3-1 .3c-.4.1-.9.2-1.4.2c-.5 0-.9-.1-1.3-.2c-.4 0-.8-.1-1.1-.3c-.2-.2-.4-.3-.6-.6c-.1-.2-.2-.4-.2-.7c0-.3.1-.5.2-.7c.2-.3.4-.4.6-.6c.3-.1.7-.2 1.1-.3c.4-.1.8-.1 1.3-.1zm-1.9 1.7c0 .5.7.7 1.9.7c1.3 0 1.9-.2 1.9-.7c0-.5-.6-.7-1.9-.7c-1.2 0-1.9.2-1.9.7zm15-3.8v1.1h-1.1v4.5h-1.4V19h1.4v3.8h1.1zm-3-2.8v1.1h-5.5V20h2.1v-1h1.3v1h2.1zm-2.1 4.9v.7h1.1c.4-.1.7-.1 1-.2l.2 1c-.5.1-1 .2-1.5.2c-.6.1-1 .1-1.5.1c-.5.1-1 .1-1.4.1h-1.3c-.03-.01-.2-1.1-.2-1.1h2.3v-.8c-.5-.1-.9-.3-1.2-.6c-.3-.3-.4-.7-.4-1.1c0-.3 0-.5.1-.7c.1-.2.3-.4.5-.6c.2-.1.4-.3.7-.4c.3 0 .6-.1 1-.1c.3 0 .6.1.9.1c.3.1.5.3.7.4c.2.2.4.4.5.6c.1.2.1.4.1.7c0 .4-.1.8-.4 1.1c-.3.3-.7.5-1.2.6zm-1.7-1.7c0 .2.1.4.3.6c.2.1.4.1.8.1c.3 0 .5 0 .7-.1c.2-.2.3-.4.3-.6c0-.3-.1-.4-.3-.6c-.2-.1-.4-.2-.7-.2c-.4 0-.6.1-.8.2c-.2.2-.3.3-.3.6zm12.3 3h3.6v1.1h-8.5v-1.1h3.6v-1.4h-2.6v-3.2h5.2v-1h-5.2v-1h6.5v3.1h-5.2v1h5.5v1.1h-2.9v1.4zm8.5-3.2c-.5 0-1 0-1.4-.1c-.4-.1-.7-.2-1-.4c-.3-.2-.6-.4-.7-.6c-.2-.2-.3-.5-.3-.8c0-.3.1-.6.3-.8c.1-.3.4-.5.7-.6c.3-.2.6-.3 1-.4c.4-.1.9-.2 1.4-.2c.5 0 1 .1 1.4.2c.4.1.8.2 1.1.4c.3.1.5.3.6.6c.2.2.3.5.3.8c0 .3-.1.6-.3.8c-.1.2-.3.4-.6.6c-.3.2-.7.3-1.1.4c-.4.1-.9.1-1.4.1zm0-2.8c-.6 0-1.1.1-1.4.2c-.3.2-.5.4-.5.7c0 .3.2.5.5.6c.3.2.8.3 1.4.3c.6 0 1.1-.1 1.4-.3c.4-.1.5-.3.5-.6c0-.3-.1-.5-.5-.7c-.3-.1-.8-.2-1.4-.2zm-4.2 3.3h8.5v1.1h-3.5v1.6H278v-1.6h-3.6v-1.1zm2.3 1.9v1.7h5.2v1.1h-6.5v-2.8h1.3zm17.6-4.6v1.1h-1.2v2h-1.4V19h1.4v1.8h1.2zm-3.1 1.8l-.7 1.1c-.5-.2-.9-.4-1.2-.7c-.4-.3-.7-.7-.9-1.1c-.2.5-.5.9-.8 1.2c-.4.4-.9.6-1.4.8l-.7-1c.4-.2.7-.3 1-.5c.3-.2.5-.5.7-.7c.2-.3.3-.6.4-.8c.1-.3.1-.6.1-1c.03.05 0-.6 0-.6h1.4v.6c0 .3 0 .6.1.9c.1.2.2.5.4.7c.2.3.4.5.7.7c.2.2.6.3.9.4zm-3.5 4.1v.6h1c.3-.1.6-.1.9-.2l.1 1c-.2.1-.4.1-.6.1c-.2.1-.4.1-.6.1h-2.1v-2.5h1.8v-.5h-1.8v-1h3.1v2.4h-1.8zm2.2 1.6v-4h3.2v4h-3.2zm1.2-3v2h.8v-2h-.8zm8-3c-1.1 0-2-.1-2.6-.4c-.5-.3-.8-.7-.8-1.2c0-.5.3-.9.8-1.2c.6-.3 1.5-.4 2.6-.4c1.1 0 2 .1 2.5.4c.6.3.9.7.9 1.2c0 .5-.3.9-.9 1.2c-.5.3-1.4.4-2.5.4zm0-2.2c-.7 0-1.2 0-1.5.1c-.4.1-.5.3-.5.5c0 .2.1.4.5.5c.3.1.8.1 1.5.1c.7 0 1.2 0 1.5-.1c.3-.1.5-.3.5-.5c0-.2-.2-.4-.5-.5c-.3-.1-.8-.1-1.5-.1zm-4.3 2.6h8.5v1.1h-8.5v-1.1zm2.4 4v.6h5.3v1h-6.7v-2.5h5.2v-.5h-5.2v-1h6.5v2.4h-5.1zm16.7-7.7v4.7h-1.3V19h1.3zm-2 3.5l-.6 1.1c-.6-.2-1-.4-1.4-.7c-.4-.3-.7-.7-.9-1.1c-.2.5-.5.8-.9 1.2c-.3.3-.8.6-1.4.7l-.6-1c.4-.1.7-.3 1-.5c.3-.2.5-.4.7-.7c.2-.2.3-.5.4-.8c.1-.2.1-.5.1-.8c.03-.01 0-.7 0-.7h1.4v.7c0 .3 0 .5.1.8c.1.3.2.5.4.8c.2.2.4.4.7.6c.3.2.6.3 1 .4zm-2.9 4.7h5.2v1.1h-6.5v-2.6h4.9v-.5h-4.9v-1.1h6.2v2.6H309v.5zm11.5-7.3v1.1h-5.2v-1.1h2v-1h1.4v1h1.8zm1.3 6.2v-1.7h-1.2v-1.1h1.2v-.9h-1.2v-1.1h1.2V19h1.4v7.1h-1.4zm-1.6-2.9c0 .2-.1.5-.2.7c-.1.2-.2.4-.4.6c-.2.2-.5.3-.7.4c-.3.1-.6.1-.9.1c-.3 0-.6 0-.9-.1c-.3-.1-.5-.2-.7-.4c-.2-.2-.3-.4-.5-.6c-.1-.2-.1-.5-.1-.7c0-.3 0-.5.1-.8c.2-.2.3-.4.5-.6c.2-.1.4-.2.7-.3c.3-.1.6-.2.9-.2c.3 0 .6.1.9.2c.2.1.5.2.7.3c.2.2.3.4.4.6c.1.3.2.5.2.8zm-3.2 0c0 .2.1.4.3.6c.2.1.4.2.7.2c.3 0 .5-.1.7-.2c.1-.2.2-.4.2-.6c0-.3-.1-.5-.2-.6c-.2-.2-.4-.2-.7-.2c-.3 0-.5 0-.7.2c-.2.1-.3.3-.3.6zm1.3 3.9h5.1v1.1H317v-2.7h1.3v1.6zm14.9-4.5v1.1h-1.3v4.7h-1.4V19h1.4v3.6h1.3zm-5.3-3.5v1.2h2v1.1h-5.5v-1.1h2.1v-1.2h1.4zm-.7 2.8c.3 0 .7.1.9.2c.3.1.6.3.8.5c.2.2.4.4.5.7c.1.3.2.6.2.9c0 .3-.1.6-.2.9c-.1.3-.3.5-.5.7c-.2.2-.5.4-.8.5c-.2.1-.6.1-.9.1c-.3 0-.7 0-.9-.1c-.3-.1-.6-.3-.8-.5c-.2-.2-.4-.4-.5-.7c-.1-.3-.2-.6-.2-.9c0-.3.1-.6.2-.9c.1-.3.3-.5.5-.7c.2-.2.5-.4.8-.5c.2-.1.6-.2.9-.2zm0 3.4c.3 0 .6-.1.8-.3c.2-.2.3-.5.3-.8c0-.4-.1-.7-.3-.9c-.2-.2-.5-.3-.8-.3c-.3 0-.6.1-.8.3c-.2.2-.3.5-.3.9c0 .4.1.6.3.8c.2.2.5.3.8.3zm13.8-.1l-1.4-.2c.2-.9.3-1.7.4-2.3v-1.9c.01.04-5.5 0-5.5 0v-1h6.9s-.04.86 0 .9v.9c0 .3-.1.6-.1 1c0 .4 0 .8-.1 1.2c0 .4-.1.9-.2 1.4zm-3 .9h4.2v1.1h-8.5v-1.1h3v-3.2h1.3v3.2z" stroke="none" fill="#111111"/></g><g id="Polygon40033"><path d="m5.6 1.4v1.1H.5V1.4h1.9v-1h1.4v1h1.8zm1.3 6.2V5.9H5.7V4.8h1.2v-.9H5.7V2.8h1.2V.5h1.4v7.1H6.9zM5.3 4.7c0 .2-.1.5-.2.7c-.1.2-.2.4-.4.6c-.2.2-.4.3-.7.4c-.3.1-.6.1-.9.1c-.3 0-.6 0-.9-.1c-.2-.1-.5-.2-.7-.4c-.2-.2-.3-.4-.4-.6c-.1-.2-.2-.5-.2-.7c0-.3.1-.5.2-.8c.1-.2.2-.4.4-.6c.2-.1.5-.2.7-.3c.3-.1.6-.2.9-.2c.3 0 .6.1.9.2c.3.1.5.2.7.3c.2.2.3.4.4.6c.1.3.2.5.2.8zm-3.1 0c0 .2.1.4.2.6c.2.1.4.2.7.2c.3 0 .5-.1.7-.2c.2-.2.2-.4.2-.6c0-.3 0-.5-.2-.6c-.2-.2-.4-.2-.7-.2c-.3 0-.5 0-.7.2c-.1.1-.2.3-.2.6zm1.2 3.9h5.1v1.1H2.1V7h1.3v1.6zm13-8.2h1.3v9.5h-1.3V5.2h-.8v4.2h-1.3V.6h1.3v3.5h.8V.4zm-5.2 2.2v4h1.3c.4-.1.8-.1 1.3-.2l.1 1.1c-.6.1-1.1.2-1.7.2h-1.7c.04.04-.6 0-.6 0V1.5h3.5v1.1h-2.2zM27.5 4v1.2h-1.3v4.7h-1.4V.5h1.4v3.5h1.3zm-5.3-1.5s.05.49 0 .5c0 .3.1.7.2 1.1c.1.4.2.7.4 1.1c.2.3.4.6.7.9c.3.3.6.5 1 .7l-.7 1.1c-.5-.3-1-.6-1.3-1.1c-.4-.4-.7-.9-.9-1.5c-.2.6-.5 1.2-.9 1.7c-.4.5-.8.8-1.4 1.1L18.6 7c.4-.2.7-.4 1-.7c.3-.3.5-.6.7-1c.2-.3.4-.7.5-1.1c.1-.4.1-.8.1-1.2v-.5H19V1.4h5.1v1.1h-1.9zm10.7 2.4h3.6v1H28v-1h3.6v-.8H29V.9h6.5v1h-5.1v1.1h5.1v1.1h-2.6v.8zm-.7 1.5c1 0 1.8.2 2.4.5c.6.3.9.7.9 1.2c0 .6-.3 1-.9 1.3c-.6.3-1.4.5-2.4.5c-1 0-1.8-.2-2.4-.5c-.6-.3-.9-.7-.9-1.3c0-.5.3-.9.9-1.2c.6-.3 1.4-.5 2.4-.5zm0 2.4c.6 0 1.1 0 1.4-.1c.3-.1.5-.3.5-.6c0-.4-.6-.7-1.9-.7c-1.3 0-1.9.3-1.9.7c0 .3.2.5.5.6c.3.1.8.1 1.4.1zm13.7-4.7v1.1h-1.4v4.7h-1.3V.5h1.3v3.6h1.4zm-5.3-1s-.04.29 0 .3c0 .3 0 .7.1 1c.1.3.2.7.4 1c.1.3.4.6.6.9c.3.2.6.5 1 .6L42 8c-.5-.3-1-.6-1.3-1c-.3-.4-.6-.9-.8-1.4c-.2.6-.5 1.1-.8 1.5c-.4.4-.9.8-1.4 1l-.7-1c.4-.2.7-.4 1-.7c.3-.3.5-.6.7-.9c.2-.3.3-.7.4-1c.1-.4.1-.8.1-1.1c.02-.01 0-.3 0-.3h-1.9V2h1.9V.7h1.4v1.3h1.8v1.1h-1.8zm11.8-.7c.05.04 0 0 0 0h-5.2V1.3h6.6s-.01 1.14 0 1.1v2.1c-.1.3-.1.7-.1 1.1c-.1.4-.2.9-.3 1.4l-1.3-.2c.1-.4.2-.8.2-1.2c0-.4.1-.8.1-1.2v-2zm-6.1 5.1h8.5v1.1h-8.5V7.5zm15.4-5.4v-.5h-5.1v-1h6.4v2.4h-5.1v.5h5.3v1h-6.6V2.1h5.1zM55.5 5h8.5v1.1h-3.6v.8h-1.3v-.8h-3.6V5zm6.2 2.2v-.7h1.3v3.2h-6.4V6.5h1.3v.7h3.8zm0 1.5v-.5h-3.8v.5h3.8zm7.2-4.1c-.5 0-.9 0-1.4-.1c-.4-.1-.7-.2-1-.4c-.3-.2-.5-.4-.7-.6c-.2-.3-.3-.5-.3-.8c0-.3.1-.6.3-.8c.2-.3.4-.5.7-.6c.3-.2.6-.3 1-.4c.5-.1.9-.2 1.4-.2c.6 0 1 .1 1.4.2c.5.1.8.2 1.1.4c.3.1.5.3.7.6c.2.2.2.5.2.8c0 .3 0 .5-.2.8c-.2.2-.4.4-.7.6c-.3.2-.6.3-1.1.4c-.4.1-.8.1-1.4.1zm0-2.8c-.6 0-1.1.1-1.4.2c-.4.2-.6.4-.6.7c0 .3.2.5.6.6c.3.2.8.2 1.4.2c.7 0 1.2 0 1.5-.2c.4-.1.6-.3.6-.6c0-.3-.2-.5-.6-.7c-.3-.1-.8-.2-1.5-.2zm-4.2 3.5h8.5v1h-8.5v-1zM67.1 7v1.6h5.1v1.1h-6.5V7h1.4zm9.1-3.7s.03-1.51 0-1.5c0-.2.1-.4.1-.6l.3-.6c.2-.1.3-.2.5-.3c.2-.1.4-.2.6-.2v.6c-.3.1-.5.3-.5.4c-.1.2-.2.4-.2.7c.01-.03.7 0 .7 0v1.5h-1.5zm10-2.8v6.7h-1.4V.5h1.4zm-2.6 2.9c0 .4-.1.7-.2 1c-.1.3-.3.5-.5.8c-.3.2-.5.3-.8.4c-.3.2-.7.2-1 .2c-.4 0-.7 0-1.1-.2c-.3-.1-.5-.2-.8-.4c-.2-.3-.4-.5-.5-.8c-.1-.3-.2-.6-.2-1c0-.3.1-.6.2-.9c.1-.3.3-.6.5-.8c.3-.2.5-.3.8-.5c.4-.1.7-.1 1.1-.1c.3 0 .7 0 1 .1c.3.2.5.3.8.5c.2.2.4.5.5.8c.1.3.2.6.2.9zm-3.8 0c0 .4.1.7.4.9c.2.3.5.4.9.4c.3 0 .6-.1.8-.4c.3-.2.4-.5.4-.9c0-.3-.1-.6-.4-.9c-.2-.2-.5-.3-.8-.3c-.4 0-.7.1-.9.3c-.3.3-.4.6-.4.9zm1.5 5.2h5.1v1.1h-6.5V6.5h1.4v2.1zm12.4-6.1v-.7h-5.2V.7h6.6v2.8h-5.2v.7h5.4v1.1h-6.8V2.5h5.2zM96.1 6v1h-2v2.9h-1.4V7h-1.8v2.9h-1.4V7h-2v-1h8.6zm6.8-4v-.5h-5.1v-.9h6.4v2.2h-5.1v.5h5.3v.9h-6.6V2h5.1zm-6.2 2.7h8.5v1h-8.5v-1zM99 8.4v.5h5.5v.9h-6.8V7.5h5.2v-.5h-5.2v-.9h6.5v2.3H99zM114.5.5h1.4v9.3h-1.4V.5zm-3.4 4.3c-.4 0-.7 0-1-.1c-.3-.1-.6-.2-.8-.4c-.2-.2-.4-.4-.5-.6c-.1-.3-.2-.6-.2-.9c0-.3.1-.5.2-.8c.1-.2.3-.4.5-.6c.2-.2.5-.3.8-.4c.3-.1.6-.2 1-.2c.3 0 .6.1.9.2c.3.1.6.2.8.4c.2.2.4.4.5.6c.2.3.2.5.2.8c0 .3 0 .6-.2.9c-.1.2-.3.4-.5.6c-.2.2-.5.3-.8.4c-.3.1-.6.1-.9.1zm0-2.9c-.4 0-.7.1-.9.3c-.2.1-.3.3-.3.6c0 .3.1.6.3.7c.2.2.5.2.9.2c.3 0 .6 0 .8-.2c.2-.1.3-.4.3-.7c0-.3-.1-.5-.3-.6c-.2-.2-.5-.3-.8-.3zm2.9 3.2l.1 1c-.4 0-.8.1-1.2.1c-.3.1-.7.1-1.1.2c-.02-.02 0 3.2 0 3.2h-1.4s.03-3.14 0-3.1h-2.2l-.2-1.1h1.4c.5 0 1 0 1.5-.1h1.6c.5-.1 1-.1 1.5-.2zm8.7-3.7v1.1h-5.5V1.4h2.1v-1h1.3v1h2.1zm1.9 1.9h1.2v1.1h-1.2v3.1h-1.4v-7h1.4v2.8zm-2.3 1.3c0 .3-.1.6-.2.8c-.1.2-.3.4-.5.6c-.2.1-.4.2-.7.3c-.3.1-.6.2-.9.2c-.4 0-.7-.1-1-.2c-.3-.1-.5-.2-.7-.3c-.2-.2-.4-.4-.5-.6c-.1-.2-.1-.5-.1-.8c0-.2 0-.5.1-.7c.1-.2.3-.4.5-.6c.2-.1.4-.2.7-.3c.3-.1.6-.2 1-.2c.3 0 .6.1.9.2c.3.1.5.2.7.3c.2.2.4.4.5.6c.1.2.2.5.2.7zm-3.4 0c0 .3.1.5.3.6c.2.2.5.2.8.2c.3 0 .5 0 .7-.2c.2-.1.3-.3.3-.6c0-.2-.1-.4-.3-.5c-.2-.2-.4-.2-.7-.2c-.3 0-.6 0-.8.2c-.2.1-.3.3-.3.5zm1 2.4v1.6h5v1.1h-6.4V7h1.4zM136.3.5v6.8h-1.4V.5h1.4zm-2 4.6l-.6 1c-.6-.2-1-.4-1.4-.7c-.3-.3-.6-.7-.8-1.1c-.2.4-.5.8-.9 1.2c-.4.3-.8.6-1.4.8l-.7-1.1c.4-.1.8-.3 1-.5c.3-.2.5-.4.7-.7c.2-.2.4-.5.4-.8c.1-.3.2-.6.2-.9c-.03.01 0-.1 0-.1h-1.9V1.1h5.1v1.1h-1.9s.04.11 0 .1c0 .3.1.6.2.8c.1.3.2.6.4.8c.2.3.4.5.7.7c.2.2.6.3.9.5zm-2.9 3.5h5.1v1.1H130V6.6h1.4v2zm11.2-.9h3.6v1.1h-8.5V7.7h3.5V5.9h-2.6V1h1.3v1.5h4V1h1.3v4.9h-2.6v1.8zm-2.7-4.1v1.3h4V3.6h-4zm9.8 6.6l-.9.4c-.5-.8-.9-1.6-1.1-2.4c-.3-.9-.4-1.8-.4-2.9c0-1 .1-1.9.4-2.8c.2-.8.6-1.6 1.1-2.4l.9.4c-.4.7-.7 1.5-.9 2.3c-.2.8-.3 1.7-.3 2.5c0 .9.1 1.8.3 2.6c.2.8.5 1.6.9 2.3zM151 9V1.4s2.47.03 2.5 0c.4 0 .8.1 1.1.1c.4.1.7.3 1 .4c.2.2.4.5.6.8c.1.3.2.6.2 1.1c0 .4-.1.8-.2 1.1c-.2.3-.4.6-.6.8c-.3.2-.6.3-.9.4c-.4.1-.8.2-1.2.2h-1v2.7H151zm1.5-3.9h.9c1 0 1.5-.4 1.5-1.3c0-.5-.1-.8-.4-.9c-.2-.2-.6-.3-1.1-.3c-.04.02-.9 0-.9 0v2.5zm5 3.9V3.3h1.2l.1 1s.03-.03 0 0c.2-.4.5-.7.8-.9c.3-.2.5-.3.9-.3c.1 0 .2 0 .3.1h.3l-.2 1.3h-.3c-.1 0-.2-.1-.3-.1c-.3 0-.5.1-.7.3c-.3.2-.5.5-.6.9c-.04-.03 0 3.4 0 3.4h-1.5zm6.6.1c-.4 0-.7 0-1-.2c-.4-.1-.7-.3-.9-.6c-.3-.2-.5-.5-.6-.9c-.2-.4-.2-.8-.2-1.3c0-.4 0-.9.2-1.2c.1-.4.3-.7.6-1c.2-.2.5-.4.9-.6c.3-.1.6-.2 1-.2c.4 0 .7.1 1 .2c.4.2.7.4.9.6c.3.3.5.6.6 1c.2.3.2.8.2 1.2c0 .5 0 .9-.2 1.3c-.1.4-.3.7-.6.9c-.2.3-.5.5-.9.6c-.3.2-.6.2-1 .2zm0-1.2c.4 0 .7-.2.9-.5c.2-.3.3-.7.3-1.3c0-.5-.1-1-.3-1.3c-.2-.3-.5-.5-.9-.5c-.4 0-.7.2-.9.5c-.2.3-.3.8-.3 1.3c0 .6.1 1 .3 1.3c.2.3.5.5.9.5zm5.8 3.6c-.3 0-.6-.1-.9-.1c-.3-.1-.6-.2-.8-.3c-.2-.1-.4-.3-.5-.5c-.1-.1-.2-.4-.2-.6c0-.3.1-.5.2-.7c.2-.2.4-.3.6-.5c-.1-.1-.2-.3-.3-.4c-.1-.2-.2-.4-.2-.6c0-.2.1-.4.2-.6c.1-.2.3-.4.4-.5c-.2-.2-.3-.4-.5-.6c-.1-.3-.2-.6-.2-.9c0-.3 0-.6.2-.9c.1-.3.3-.5.5-.6c.2-.2.4-.4.7-.4c.3-.1.6-.2.9-.2c.1 0 .3 0 .5.1c.1 0 .2 0 .3.1c.05-.04 2.1 0 2.1 0v1.1s-.97-.03-1 0c.1.1.2.2.2.3c.1.2.1.4.1.5c0 .4-.1.6-.2.9c-.1.2-.3.4-.4.6c-.2.1-.5.3-.7.3c-.3.1-.6.2-.9.2c-.1 0-.2 0-.4-.1c-.1 0-.2 0-.3-.1l-.2.2c-.1.1-.1.2-.1.3c0 .2.1.3.2.4c.1.1.4.1.7.1h1c.7 0 1.2.1 1.6.3c.3.2.5.6.5 1.1c0 .3-.1.6-.2.8c-.2.3-.4.5-.6.7c-.3.2-.6.3-1 .4c-.4.1-.8.2-1.3.2zm.1-5.3c.2 0 .5 0 .6-.2c.2-.2.3-.5.3-.8c0-.4-.1-.6-.3-.8c-.1-.2-.3-.3-.6-.3c-.3 0-.5.1-.7.3c-.1.2-.2.4-.2.8c0 .3.1.6.3.8c.1.2.3.2.6.2zm.1 4.3c.5 0 .8-.1 1.1-.2c.2-.2.4-.4.4-.6c0-.2-.1-.4-.3-.4c-.1-.1-.4-.1-.7-.1h-.7c-.1 0-.3 0-.4-.1h-.4c-.2.2-.3.4-.3.7c0 .2.1.4.3.5c.3.1.6.2 1 .2zm3.7-1.5V3.3h1.2l.1 1s.04-.03 0 0c.3-.4.5-.7.8-.9c.3-.2.6-.3.9-.3c.1 0 .3 0 .4.1h.2l-.2 1.3h-.3c-.1 0-.2-.1-.3-.1c-.2 0-.5.1-.7.3c-.3.2-.5.5-.6.9c-.03-.03 0 3.4 0 3.4h-1.5zm6.7.1c-.4 0-.8 0-1.1-.2c-.4-.1-.7-.3-.9-.6c-.3-.2-.5-.5-.6-.9c-.2-.4-.2-.8-.2-1.3c0-.4 0-.8.2-1.2c.1-.4.3-.7.6-1c.2-.2.5-.4.8-.6c.4-.1.7-.2 1-.2c.4 0 .8.1 1.1.2c.3.2.5.4.7.6c.2.2.4.5.5.9c.1.3.1.7.1 1.1v.3c0 .2 0 .3-.1.3h-3.5c.1.5.3.9.5 1.1c.3.2.7.4 1.1.4c.2 0 .5-.1.7-.1l.6-.3l.5.9c-.3.2-.6.3-.9.5c-.4.1-.7.1-1.1.1zm-1.4-3.6h2.3c0-.3-.1-.6-.2-.9c-.2-.2-.5-.3-.9-.3c-.3 0-.5.1-.8.3c-.2.2-.3.5-.4.9zm6.3 3.6c-.4 0-.8-.1-1.2-.2c-.4-.2-.7-.3-1-.6l.7-.9c.2.2.5.3.7.4c.3.1.5.2.8.2c.3 0 .5-.1.6-.2c.2-.1.2-.2.2-.4c0-.1 0-.2-.1-.3c0-.1-.1-.1-.2-.2c-.1-.1-.3-.1-.4-.2c-.2 0-.3-.1-.5-.2c-.1 0-.3-.1-.5-.2c-.2-.1-.4-.2-.5-.3c-.2-.2-.3-.3-.4-.5c-.1-.2-.1-.4-.1-.6c0-.3 0-.5.1-.7c.1-.2.3-.4.5-.6c.2-.1.4-.3.6-.4c.3 0 .6-.1.9-.1c.4 0 .8.1 1.1.2c.3.2.6.3.9.5l-.7.9l-.6-.3c-.2-.1-.4-.2-.7-.2c-.2 0-.4.1-.5.2c-.1.1-.2.2-.2.4c0 .1 0 .2.1.3c.1 0 .1.1.3.2c.1 0 .2.1.3.1c.2.1.3.1.5.2c.1.1.3.1.5.2c.2.1.4.2.5.4c.2.1.3.2.4.4c.1.2.1.4.1.7c0 .3 0 .5-.1.7c-.1.2-.2.4-.4.6c-.2.2-.5.3-.7.4c-.3.1-.7.1-1 .1zm4.8 0c-.4 0-.8-.1-1.1-.2c-.4-.2-.8-.3-1.1-.6l.7-.9c.3.2.5.3.8.4c.2.1.5.2.8.2c.2 0 .5-.1.6-.2c.1-.1.2-.2.2-.4c0-.1 0-.2-.1-.3c-.1-.1-.2-.1-.3-.2c-.1-.1-.2-.1-.4-.2c-.1 0-.3-.1-.4-.2c-.2 0-.4-.1-.6-.2c-.1-.1-.3-.2-.5-.3c-.1-.2-.2-.3-.3-.5c-.1-.2-.2-.4-.2-.6c0-.3.1-.5.2-.7c.1-.2.2-.4.4-.6c.2-.1.4-.3.7-.4c.2 0 .5-.1.9-.1c.4 0 .8.1 1.1.2c.3.2.6.3.8.5l-.7.9l-.6-.3c-.2-.1-.4-.2-.6-.2c-.3 0-.5.1-.6.2c-.1.1-.2.2-.2.4c0 .1.1.2.1.3c.1 0 .2.1.3.2c.1 0 .2.1.4.1c.1.1.3.1.4.2c.2.1.4.1.6.2c.2.1.3.2.5.4c.1.1.3.2.3.4c.1.2.2.4.2.7c0 .3-.1.5-.2.7c-.1.2-.2.4-.4.6c-.2.2-.4.3-.7.4c-.3.1-.6.1-1 .1zm8.7-8.2l-.3 1.1c-.1 0-.2-.1-.3-.1h-.3c-.2 0-.4 0-.5.2c-.1.1-.2.3-.2.7v.5h1.1v1.1h-1.1v4.6h-1.5V4.4h-.8V3.3h.8v-.5c0-.3 0-.6.1-.8c.1-.3.2-.5.4-.7c.1-.2.3-.3.6-.4c.2-.2.5-.2.9-.2c.2 0 .4 0 .6.1c.2 0 .3 0 .5.1zm2.6 8.2c-.3 0-.7 0-1-.2c-.3-.1-.6-.3-.9-.6c-.2-.2-.4-.5-.6-.9c-.1-.4-.2-.8-.2-1.3c0-.4.1-.9.2-1.2c.2-.4.4-.7.6-1l.9-.6c.3-.1.7-.2 1-.2c.4 0 .7.1 1.1.2c.3.2.6.4.8.6c.3.3.5.6.6 1c.2.3.3.8.3 1.2c0 .5-.1.9-.3 1.3c-.1.4-.3.7-.6.9c-.2.3-.5.5-.8.6c-.4.2-.7.2-1.1.2zm0-1.2c.4 0 .7-.2.9-.5c.2-.3.3-.7.3-1.3c0-.5-.1-1-.3-1.3c-.2-.3-.5-.5-.9-.5c-.4 0-.7.2-.9.5c-.2.3-.3.8-.3 1.3c0 .6.1 1 .3 1.3c.2.3.5.5.9.5zm3.8 1.1V3.3h1.2l.1 1s.08-.03.1 0c.2-.4.4-.7.7-.9c.3-.2.6-.3.9-.3c.2 0 .3 0 .4.1h.3l-.3 1.3h-.3c-.1 0-.2-.1-.3-.1c-.2 0-.4.1-.7.3c-.2.2-.4.5-.6.9v3.4h-1.5zm6.5 0V1.4h1.5v3h2.9v-3h1.5v7.6h-1.5V5.7h-2.9v3.3h-1.5zm9.1.1c-.6 0-1.1-.2-1.4-.6c-.2-.4-.4-.9-.4-1.7c.02.03 0-3.5 0-3.5h1.5s.02 3.34 0 3.3c0 .5.1.8.2 1c.1.1.3.2.6.2c.3 0 .5 0 .6-.1c.2-.1.4-.3.6-.6c-.02.02 0-3.8 0-3.8h1.5v5.7h-1.2l-.2-.8s0-.04 0 0c-.2.3-.5.5-.8.7c-.3.1-.6.2-1 .2zm4.6-.1V3.3h1.2l.1.7s.05.03 0 0c.3-.2.5-.4.8-.6c.3-.2.6-.3 1-.3c.4 0 .7.1 1 .3c.2.1.4.4.6.7c.2-.3.5-.5.8-.7c.3-.2.6-.3 1-.3c.6 0 1.1.2 1.3.6c.3.4.5 1 .5 1.7c-.04.02 0 3.6 0 3.6h-1.5s-.04-3.4 0-3.4c0-.4-.1-.8-.2-.9c-.2-.2-.4-.3-.6-.3c-.4 0-.7.2-1.1.6c-.04.05 0 4 0 4h-1.5s-.03-3.4 0-3.4c0-.4-.1-.8-.2-.9c-.2-.2-.4-.3-.6-.3c-.4 0-.7.2-1.1.6c-.03.05 0 4 0 4h-1.5zm11 .1c-.5 0-.9-.2-1.2-.5c-.3-.3-.5-.7-.5-1.2c0-.7.2-1.2.8-1.5c.5-.4 1.3-.6 2.5-.6c0-.2 0-.5-.1-.7c-.1-.2-.4-.3-.9-.3c-.2 0-.5.1-.8.2c-.3.1-.6.2-.8.4l-.5-1.1c.3-.2.7-.4 1.1-.5c.4-.1.9-.2 1.3-.2c1.5 0 2.2.9 2.2 2.5c.01.04 0 3.4 0 3.4h-1.2l-.1-.6h-.1c-.2.2-.5.4-.8.5c-.3.1-.6.2-.9.2zm.5-1.2c.2 0 .4 0 .6-.1c.2-.1.3-.2.5-.4V6.2c-.2 0-.3.1-.5.1h-.5c-.4.1-.6.2-.7.3c-.1.2-.2.4-.2.6c0 .2.1.4.2.5c.2.2.4.2.6.2zm3.9 1.1V3.3h1.3l.1.7s0 .02 0 0c.2-.2.5-.4.8-.6c.3-.2.7-.3 1.1-.3c.6 0 1 .2 1.3.6c.3.4.4 1 .4 1.7c.02.02 0 3.6 0 3.6h-1.5s.02-3.4 0-3.4c0-.4 0-.8-.2-.9c-.1-.2-.3-.3-.6-.3c-.2 0-.4.1-.6.2c-.2.1-.4.2-.6.4c.02.05 0 4 0 4h-1.5zm7.7-8.1v1.4h-1.5V.9h1.5zm0 8.1h-1.5V3.3h1.5v5.7zm3.4.1c-.4 0-.7 0-.9-.1c-.2-.1-.4-.3-.6-.5l-.3-.6c-.1-.3-.1-.6-.1-.9V4.4h-.8V3.3h.9l.1-1.6h1.3v1.6h1.4v1.1h-1.4v2.6c0 .6.2.9.8.9h.3c.1 0 .2-.1.2-.1l.3 1.1c-.2.1-.4.1-.6.2h-.6zm4.9 0l-.7 2.2h-1.5l.8-2.3l-2.2-5.7h1.5l.9 2.6c.1.3.2.5.2.8c.1.3.2.5.3.8c.1-.2.2-.5.2-.8c.1-.3.2-.5.2-.8c.04.02.8-2.6.8-2.6h1.5l-2 5.8zm3.4 1.5l-1-.4c.5-.7.8-1.5 1-2.3c.2-.8.3-1.7.3-2.6c0-.8-.1-1.7-.3-2.5c-.2-.8-.5-1.6-1-2.3l1-.4c.4.8.8 1.6 1.1 2.4c.3.9.4 1.8.4 2.8c0 1.1-.1 2-.4 2.9c-.3.8-.7 1.6-1.1 2.4zM264.4.1s-.02 1.43 0 1.4c0 .2 0 .5-.1.6l-.3.6c-.1.1-.3.2-.5.3c-.2.1-.4.2-.6.2v-.6c.3-.1.5-.3.6-.4c.1-.2.1-.4.1-.7c.01.04-.6 0-.6 0V.1h1.4zm7 1.9v-.5h-5.1v-.9h6.4v2.2h-5v.5h5.2v.9h-6.6V2h5.1zm-6.1 2.7h8.5v1h-8.5v-1zm2.3 3.7v.5h5.4v.9h-6.8V7.5h5.2v-.5h-5.2v-.9h6.6v2.3h-5.2zm9.9-2.8l-.5-1.1c.5 0 .9-.1 1.3-.2c.3-.2.7-.3.9-.5c.3-.2.5-.4.6-.6c.2-.2.3-.4.3-.6h-2.8V1.5h2.8v-1h1.4v1h2.8v1.1h-2.8c0 .2.1.4.3.6c.1.2.3.4.6.6c.2.2.6.3.9.5c.4.1.8.2 1.3.2l-.5 1.1c-.8-.1-1.5-.3-2-.6c-.6-.3-1-.7-1.3-1.1c-.3.4-.7.8-1.3 1.1c-.5.3-1.2.5-2 .6zm7.6.5v1.1h-3.6v2.7h-1.4V7.2h-3.5V6.1h8.5zm9.1-1.1v1.1h-3.6v3.8h-1.3V6.1h-3.6V5h6c.1-.6.2-1.1.2-1.6V2.1c.02-.02-5.2 0-5.2 0V1h6.5s.04.85 0 .8v1.5c0 .5-.1 1-.2 1.7h1.2zm6.3-3.7l-.1 1h-5.5v-1h2.1v-.9h1.4v.9h2.1zm3.1 1.4v1.1h-1.3v2.2H301V.5h1.3v2.2h1.3zM300 4.3c0 .2-.1.4-.2.6c-.1.2-.2.4-.5.6c-.2.1-.4.2-.7.3c-.3.1-.6.1-.9.1c-.4 0-.7 0-.9-.1c-.3-.1-.6-.2-.8-.3c-.2-.2-.3-.4-.5-.6c-.1-.2-.1-.4-.1-.6c0-.3 0-.5.1-.7c.2-.2.3-.4.5-.6c.2-.1.5-.2.8-.3c.2-.1.5-.1.9-.1c.3 0 .6 0 .9.1c.3.1.5.2.7.3c.3.2.4.4.5.6c.1.2.2.4.2.7zm-3.3 0c0 .2.1.3.2.5c.2.1.5.1.8.1c.3 0 .5 0 .7-.1c.2-.2.3-.3.3-.5c0-.3-.1-.4-.3-.6c-.2-.1-.4-.1-.7-.1c-.3 0-.6 0-.8.1c-.1.2-.2.3-.2.6zM301 7v-.7h1.3v3.5h-6.1V6.3h1.3v.7h3.5zm0 1.7v-.7h-3.5v.7h3.5zm9.6-8.3h1.3v9.4h-1.3V.4zm-4.7.9s.03 5.09 0 5.1c.6 0 1.3-.1 1.9-.1l2.1-.3l.1 1.1c-.8.2-1.6.3-2.3.3c-.8.1-1.6.1-2.3.1c.03.04-.8 0-.8 0V1.3h1.3zM322 3.9v1.1h-1.4v4.9h-1.3V.5h1.3v3.4h1.4zm-7-1.5s-.02 4.1 0 4.1c.7 0 1.3 0 1.9-.1c.5 0 1.1-.1 1.7-.2l.2 1.1c-.4.1-.7.1-1.1.2c-.3 0-.7 0-1 .1h-2.3c.04.02-.8 0-.8 0V1.3h4.4v1.1h-3zm9.2 5.3v1.4h-1.5V7.7h1.5z" stroke="none" fill="#111111"/></g></svg>