<?xml version="1.0" standalone="no"?><!DOCTYPE svg PUBLIC "-//W3C//DTD SVG 1.1//EN" "http://www.w3.org/Graphics/SVG/1.1/DTD/svg11.dtd"><svg xmlns="http://www.w3.org/2000/svg" version="1.1" width="413px" height="26.6px" viewBox="0 -2 413 26.6" style="top:-2px"><desc>올바른 움직임으로 지속가능한 미래를 만들어갑니다</desc><defs/><g id="Polygon39975"><path d="m6.3 5h4.2v1.3h-10V5h4.2v-.6c-2.1-.2-3.2-.8-3.2-1.9c0-.6.3-1.1 1-1.4c.7-.3 1.7-.5 3-.5c1.3 0 2.3.2 3 .5c.7.3 1 .8 1 1.4c0 1.1-1.1 1.7-3.2 1.9c-.02-.02 0 .6 0 .6zM3.2 2.5c0 .3.1.5.5.6c.4.1 1 .2 1.8.2c.8 0 1.4-.1 1.8-.2c.4-.1.6-.3.6-.6c0-.2-.2-.4-.6-.5c-.4-.1-1-.2-1.8-.2c-.8 0-1.4.1-1.8.2c-.4.1-.5.3-.5.5zm0 7.2v.6h6.4v1.2H1.7V8.6h6v-.6h-6V6.9h7.6v2.8H3.2zm18.6-5v1.3h-1.7v5.6h-1.5v-11h1.5v4.1h1.7zm-6.2-.6V1.4h1.6v7.6h-5.4V1.4h1.6v2.7h2.2zm0 3.7V5.3h-2.2v2.5h2.2zm14.1-5.1v-.7h-6V.8h7.6v3.1h-6v.7h6.2v1.2h-7.8V2.7h6zm-7.2 3.8h10v1.3h-10V6.5zm2.8 1.9v1.7h6.2v1.3h-7.8v-3h1.6zm15.8-3.5c-.6 0-1.1 0-1.6-.1c-.5-.1-1-.2-1.3-.4c-.3-.2-.6-.4-.8-.7c-.2-.2-.3-.5-.3-.9c0-.3.1-.6.3-.9c.2-.2.5-.4.8-.6c.3-.2.8-.4 1.3-.4c.5-.1 1-.2 1.6-.2c.6 0 1.2.1 1.7.2c.5 0 .9.2 1.2.4c.4.2.6.4.8.6c.2.3.3.6.3.9c0 .4-.1.7-.3.9c-.2.3-.4.5-.8.7c-.3.2-.7.3-1.2.4c-.5.1-1.1.1-1.7.1zm0-3c-.7 0-1.3.1-1.7.2c-.4.2-.7.4-.7.7c0 .3.3.6.7.7c.4.2 1 .3 1.7.3c.8 0 1.4-.1 1.8-.3c.4-.1.6-.4.6-.7c0-.3-.2-.5-.6-.7c-.4-.1-1-.2-1.8-.2zm5 4.9h-4.2v.9h3v3.8h-7.6V7.7h3v-.9h-4.2V5.5h10v1.3zm-2.7 3.4V9h-4.6v1.2h4.6zM54.7.5h1.6v6.7h-1.6V.5zM54 5.6l-.8 1.2c-.6-.2-1.2-.4-1.6-.8c-.4-.4-.7-.8-1-1.3c-.2.5-.6 1-1 1.4c-.5.4-1 .7-1.6.9l-.9-1.2c.5-.1.9-.3 1.2-.6c.3-.2.6-.5.8-.8c.2-.3.4-.6.5-.9c.1-.4.2-.7.2-1.1c-.01.05-2.2 0-2.2 0V1.2h6v1.2s-2.2.05-2.2 0c0 .4.1.7.2 1c.1.3.2.6.4.9l.8.8c.4.2.7.4 1.2.5zM48.8 9V7.7h7.5v3.9h-1.6V9h-5.9zM65.7.5h1.6v6.3h-1.6V.5zm-4.5.5c.5 0 .9.1 1.2.2c.4.2.7.4 1 .6c.3.2.5.5.6.8c.2.4.2.7.2 1.1c0 .4 0 .7-.2 1.1c-.1.3-.3.6-.6.8c-.3.2-.6.4-1 .6c-.3.1-.7.2-1.2.2c-.4 0-.8-.1-1.1-.2c-.4-.2-.7-.4-1-.6c-.3-.2-.5-.5-.6-.8c-.2-.4-.3-.7-.3-1.1c0-.4.1-.7.3-1.1c.1-.3.3-.6.6-.8c.3-.2.6-.4 1-.6c.3-.1.7-.2 1.1-.2zm0 1.4c-.4 0-.7.1-1 .3c-.3.2-.4.6-.4 1c0 .4.1.8.4 1c.3.2.6.3 1 .3c.5 0 .8-.1 1.1-.3c.3-.2.4-.6.4-1c0-.4-.1-.8-.4-1c-.3-.2-.6-.3-1.1-.3zm-1.3 4.9h7.4v4.2h-7.4V7.3zm5.8 1.2h-4.2v1.7h4.2V8.5zm8.4-7.4c.5 0 1.1.1 1.6.2c.5.2.9.4 1.3.7c.4.2.6.6.9 1c.2.4.3.8.3 1.3c0 .5-.1.9-.3 1.3c-.3.4-.5.7-.9 1c-.4.3-.8.5-1.3.7c-.5.1-1.1.2-1.6.2c-.6 0-1.2-.1-1.7-.2c-.5-.2-.9-.4-1.3-.7c-.3-.3-.6-.6-.8-1c-.3-.4-.4-.8-.4-1.3c0-.5.1-.9.4-1.3c.2-.4.5-.8.8-1c.4-.3.8-.5 1.3-.7c.5-.1 1.1-.2 1.7-.2zm0 1.3c-.4 0-.8 0-1.1.1c-.3.1-.6.2-.8.4c-.2.2-.4.4-.5.6c-.2.2-.2.5-.2.8c0 .3 0 .6.2.8c.1.2.3.4.5.6c.2.1.5.3.8.4c.3 0 .7.1 1.1.1c.3 0 .7-.1 1-.1c.3-.1.6-.3.8-.4c.2-.2.4-.4.5-.6c.2-.2.2-.5.2-.8c0-.3 0-.6-.2-.8c-.1-.2-.3-.4-.5-.6c-.2-.2-.5-.3-.8-.4c-.3-.1-.7-.1-1-.1zm-5 6.6h10v1.3h-10V9zm16.7.1h4.2v1.3h-10V9.1h4.2V7.4h-3V3.7h6.2V2.5h-6.2V1.2h7.7v3.7h-6.1v1.3h6.4v1.2h-3.4v1.7zM101.3.5h1.5v11.1h-1.5V.5zM98 2.9s-.04.62 0 .6c0 .5 0 .9.1 1.4c.1.4.3.8.5 1.2c.3.4.5.8.9 1.1c.3.3.7.6 1.2.8l-.9 1.2c-.6-.2-1.2-.6-1.6-1.1c-.4-.5-.8-1.1-1-1.8c-.3.7-.6 1.4-1.1 1.9c-.4.6-1 1-1.6 1.3l-.9-1.2c.5-.3.9-.5 1.2-.9c.4-.3.6-.7.9-1.1c.2-.4.4-.9.5-1.4c.1-.4.1-.9.1-1.4c.05.02 0-.6 0-.6H94V1.6h6.2v1.3H98zm16.1 1l-.6 1.2c-.9-.1-1.7-.4-2.4-.8c-.6-.3-1.1-.8-1.5-1.3c-.3.5-.8 1-1.5 1.3c-.6.4-1.4.7-2.4.8l-.5-1.2c.6-.1 1.1-.2 1.6-.4c.4-.2.8-.4 1.1-.7c.3-.2.6-.5.7-.8c.2-.3.2-.6.2-.9c.03-.04 0-.4 0-.4h1.6s.05.36 0 .4c0 .3.1.6.3.9c.1.3.3.6.6.8c.3.3.7.5 1.2.7c.4.2 1 .3 1.6.4zm-3.7 2h4.3v1.3h-10V5.9h4.2V4.5h1.5v1.4zm-4.6 3.3V7.9h7.6v3.7h-1.5V9.2h-6.1zm20-4.4v1.3h-1.5v5.5h-1.6V.5h1.6v4.3h1.5zm-9.7-3.1s5.26-.03 5.3 0c0 .8-.1 1.6-.3 2.4c-.2.7-.4 1.4-.8 2.1c-.4.7-.9 1.3-1.6 1.9c-.6.6-1.4 1.1-2.3 1.6l-.9-1.2c1.3-.7 2.3-1.5 3-2.4c.7-.9 1.1-1.9 1.3-3.1c-.04-.05-3.7 0-3.7 0V1.7zm19.4 1.6v1.2h-7.6V.7h1.6v2.6h6zm-8.9 2.2h10v1.2h-10V5.5zm5 2c.6 0 1.1 0 1.6.1c.5.1.9.2 1.2.4c.3.2.6.4.8.6c.1.3.2.6.2.9c0 .3-.1.6-.2.9c-.2.2-.5.5-.8.6c-.3.2-.7.3-1.2.4c-.5.1-1 .2-1.6.2c-1.2 0-2.1-.2-2.8-.6c-.7-.3-1-.8-1-1.5c0-.6.3-1.1 1-1.5c.7-.4 1.6-.5 2.8-.5zm-2.2 2c0 .6.7.9 2.2.9c1.5 0 2.2-.3 2.2-.9c0-.5-.7-.8-2.2-.8c-1.5 0-2.2.3-2.2.8zm14.7-7.8v1.2h-6.5V1.7h2.5V.5h1.5v1.2h2.5zm2.2 2.2h1.5v1.3h-1.5v3.6h-1.6V.5h1.6v3.4zm-2.7 1.6c0 .3-.1.6-.2.8c-.2.3-.4.5-.6.7c-.2.2-.5.3-.9.4c-.3.1-.7.2-1 .2c-.4 0-.8-.1-1.1-.2c-.4-.1-.7-.2-.9-.4c-.2-.2-.4-.4-.6-.7c-.1-.2-.2-.5-.2-.8c0-.4.1-.6.2-.9c.2-.3.4-.5.6-.7c.2-.2.5-.3.9-.4c.3-.1.7-.2 1.1-.2c.3 0 .7.1 1 .2c.4.1.7.2.9.4c.2.2.4.4.6.7c.1.3.2.5.2.9zm-3.9 0c0 .3.1.5.3.7c.2.1.5.2.9.2c.3 0 .6-.1.8-.2c.2-.2.4-.4.4-.7c0-.3-.2-.6-.4-.7c-.2-.2-.5-.3-.8-.3c-.4 0-.7.1-.9.3c-.2.1-.3.4-.3.7zm1.1 2.7v1.9h5.9v1.3h-7.5V8.2h1.6zm18-7.7h1.6v11.1h-1.6V.5zm-7 1h5.3v7.5h-5.3V1.5zm3.7 1.3h-2.2v4.9h2.2V2.8zM170.2.5h1.5v11.1h-1.5V6h-1v5.1h-1.5V.7h1.5v4h1V.5zm-6.1 5.4s-.04 1.95 0 1.9h1.5c.5-.1 1-.1 1.5-.2l.2 1.3c-.8.1-1.4.2-2.1.2h-1.9c.01.04-.8 0-.8 0V4.6h2.7V2.9h-2.7V1.6h4.2v4.3h-2.6zm16.3-3.6v-.5h-6V.7h7.6v2.6h-6v.6h6.2v1.1h-7.7V2.3h5.9zm-7.2 3.2h10v1.1h-10V5.5zm2.7 4.3v.6h6.4v1.1h-8V8.8h6.2v-.5h-6.2V7.2h7.7v2.6h-6.1zm19.7-6.1h1.4v1.3h-1.4v3.6H194V.5h1.6v3.2zm-3.2-2.2v5.3h-5.2V1.5h5.2zm-1.5 4V2.7h-2.2v2.8h2.2zm-.9 2.3v2.3h5.9v1.3h-7.5V7.8h1.6zM206.7 3v1.2h-7.6V.8h7.5v1.2h-5.9v1h6zm-8.9 1.8h10v1.3h-10V4.8zm2.8 4.8v.7h6.3v1.2H199v-3h6v-.6h-6V6.7h7.6v2.9h-6zM216.5.5h1.6v11.1h-1.6V5.8h-1.8c-.1.5-.2 1-.3 1.4c-.2.4-.4.8-.6 1.1c-.3.3-.6.5-.9.7c-.3.1-.7.2-1.1.2c-.4 0-.8-.1-1.1-.3c-.4-.2-.7-.4-.9-.8c-.3-.3-.5-.7-.6-1.2c-.1-.5-.2-1-.2-1.7c0-.6.1-1.1.2-1.6c.1-.5.3-.9.6-1.2c.2-.4.5-.6.9-.8c.3-.2.7-.3 1.1-.3c.4 0 .8.1 1.1.2c.3.2.6.4.8.7c.3.2.5.6.6 1c.2.4.3.8.4 1.3c-.04.01 1.8 0 1.8 0v-4zm-4.7 7.3c.4 0 .8-.2 1-.7c.3-.4.4-1 .4-1.9c0-.8-.1-1.4-.4-1.8c-.2-.5-.6-.7-1-.7c-.4 0-.7.2-.9.7c-.3.4-.4 1-.4 1.8c0 .9.1 1.5.4 1.9c.2.5.5.7.9.7zM230 2.9v1.3h-1.5v2.3h-1.6v-6h1.6v2.4h1.5zm-9.7-1.8s5.17.03 5.2 0c0 1.5-.5 2.7-1.3 3.6c-.9.9-2.2 1.6-3.9 2l-.6-1.3c1.3-.3 2.3-.7 2.9-1.2c.6-.5 1-1.1 1.1-1.8c0-.01-3.4 0-3.4 0V1.1zm6.6 6.9v-1h1.6v4.5h-7.2V7h1.6v1h4zm0 2.2v-1h-4v1h4zM238.4.5h1.6v11.1h-1.6V.5zm-5.5 1.1s.02 5.91 0 5.9c.7 0 1.5 0 2.3-.1c.7-.1 1.5-.2 2.4-.4l.1 1.4c-.9.2-1.8.3-2.7.4c-.9 0-1.8.1-2.7.1c.03-.03-1 0-1 0V1.6h1.6zm19.1 3v1.3h-1.6v5.7h-1.6V.5h1.6v4.1h1.6zm-8.2-1.8s-.04 4.84 0 4.8h2.2c.6-.1 1.3-.2 2.1-.3l.1 1.3c-.4.1-.8.1-1.2.2c-.4 0-.8.1-1.2.1h-1.3c-.4.1-.9.1-1.4.1c.02-.04-.9 0-.9 0V1.6h5.1v1.2h-3.5z" stroke="none" fill="#111111"/></g></svg>