<?xml version="1.0" standalone="no"?><!DOCTYPE svg PUBLIC "-//W3C//DTD SVG 1.1//EN" "http://www.w3.org/Graphics/SVG/1.1/DTD/svg11.dtd"><svg xmlns="http://www.w3.org/2000/svg" version="1.1" width="839.3px" height="54.3px" viewBox="0 -2 839.3 54.3" style="top:-2px"><desc>현대자동차는 인류의 행복을 꾀하는 ‘스마트 모빌리티 솔루션’ 기업으로서, 혁신·소통·성장의 주요 가치를 바탕으로 ‘공유가치 창출을 통한 사회 임팩트 확산과 지속가능한 기업 생태계 구축’에 적극 나서고 있습니다....</desc><defs/><g id="Polygon34292"><path d="m7 37.5h1.1v9.3H7v-9.3zm-3.8.7c.3 0 .7.1.9.3c.3.1.6.3.8.6c.2.3.4.6.5 1c.1.4.2.9.2 1.4c0 .5-.1.9-.2 1.3c-.1.4-.3.8-.5 1c-.2.3-.5.5-.8.7c-.2.1-.6.2-.9.2c-.3 0-.7-.1-1-.2c-.2-.2-.5-.4-.7-.7c-.2-.2-.4-.6-.5-1c-.1-.4-.2-.8-.2-1.3c0-.5.1-1 .2-1.4c.1-.4.3-.7.5-1c.2-.3.5-.5.7-.6c.3-.2.7-.3 1-.3zm0 1c-.4 0-.7.2-1 .6c-.2.4-.4.9-.4 1.7c0 .7.2 1.3.4 1.7c.3.4.6.6 1 .6c.4 0 .7-.2 1-.6c.2-.4.4-1 .4-1.7c0-.8-.2-1.3-.4-1.7c-.3-.4-.6-.6-1-.6zm12.8-.1v-.6h-5.3v-.7h6.3v2h-5.2v.7h5.4v.7h-6.4v-2.1h5.2zm-6.3 2.7h8.3v.7H9.7v-.7zm2 3.4v.7h5.6v.8h-6.6v-2.2h5.3v-.6h-5.3v-.7h6.3v2h-5.3zm15.8-7.6h1.1v9.2h-1.1v-9.2zM24 41.8c-.4 0-.7 0-1-.1c-.3-.1-.5-.3-.7-.4c-.3-.2-.4-.4-.5-.6c-.2-.3-.2-.5-.2-.8c0-.3 0-.6.2-.8c.1-.2.2-.4.5-.6c.2-.2.4-.3.7-.4c.3-.1.6-.2 1-.2c.3 0 .6.1.9.2c.3.1.6.2.8.4c.2.2.3.4.5.6c.1.2.1.5.1.8c0 .3 0 .5-.1.8c-.2.2-.3.4-.5.6c-.2.1-.5.3-.8.4c-.3.1-.6.1-.9.1zm0-3c-.4 0-.8.1-1 .3c-.3.2-.4.5-.4.8c0 .3.1.6.4.8c.2.2.6.2 1 .2c.4 0 .7 0 .9-.2c.3-.2.4-.5.4-.8c0-.3-.1-.6-.4-.8c-.2-.2-.5-.3-.9-.3zm2.9 3.4l.1.7c-.4.1-.8.2-1.2.2c-.4.1-.9.1-1.3.2c.03-.05 0 3.2 0 3.2h-1s-.02-3.19 0-3.2h-1.3c-.4.1-.7.1-1.1.1l-.1-.9h1.3c.5 0 1 0 1.5-.1c.5 0 1.1 0 1.6-.1c.5 0 1-.1 1.5-.1zM37 37.6h1v9.2h-1v-4.6h-1v4.1h-1v-8.6h1v3.7h1v-3.8zm-4.1.2v1.3h1.7v.8h-4.5v-.8h1.8v-1.3h1zm-.5 2.6c.3 0 .5.1.8.2c.2.1.4.2.6.4c.2.2.3.4.4.7c.1.2.2.5.2.9c0 .3-.1.6-.2.8c-.1.3-.2.5-.4.7c-.2.2-.4.3-.6.4c-.3.1-.5.2-.8.2c-.3 0-.6-.1-.8-.2c-.3-.1-.5-.2-.7-.4c-.1-.2-.3-.4-.4-.7c-.1-.2-.1-.5-.1-.8c0-.4 0-.7.1-.9c.1-.3.3-.5.4-.7c.2-.2.4-.3.7-.4c.2-.1.5-.2.8-.2zm0 3.4c.3 0 .6-.1.7-.3c.2-.2.3-.6.3-.9c0-.4-.1-.7-.3-1c-.1-.2-.4-.3-.7-.3c-.3 0-.6.1-.8.3c-.2.3-.3.6-.3 1c0 .3.1.7.3.9c.2.2.5.3.8.3zm16.1-2.9h1.2v.8h-8.3v-.8h6.1c.1-.5.1-.8.1-1.2c.1-.3.1-.6.1-.9c-.03-.03-5.2 0-5.2 0v-.9h6.2v1.7c0 .4-.1.8-.2 1.3zM43.4 45v.8h5.5v.9h-6.5v-2.5h5.3v-.8h-5.3v-.9h6.3v2.5h-5.3zm11.9-.2h3.6v.9h-8.3v-.9h3.6v-1.6h-2.6v-2.9h5.3V39h-5.3v-.8h6.3v2.9h-5.3v1.3h5.5v.8h-2.8v1.6zm9.1-4.4v1.6h-4.2v-4h1v1.2h2.2V38h1v1.5h1.9v-1.9h1.1v4.7h-1.1v-1.9h-1.9zm-1 .8V40h-2.2v1.2h2.2zm-1 4.6h5.3v.8h-6.3v-2.3h5v-.8h-5v-.8h6v2.3h-5v.8zm12 .3c-.5 0-.9-.1-1.3-.3c-.4-.1-.8-.4-1.1-.7c-.3-.3-.5-.7-.7-1.2c-.1-.5-.2-1-.2-1.7c0-.6.1-1.1.2-1.6c.2-.5.5-.9.8-1.2c.3-.4.6-.6 1-.8c.5-.2.9-.3 1.4-.3c.4 0 .9.1 1.2.3c.4.2.7.4.9.7l-.6.7c-.2-.2-.5-.3-.7-.5c-.2-.1-.5-.1-.8-.1c-.3 0-.6 0-.9.2c-.3.1-.5.3-.7.5c-.2.3-.3.6-.4.9c-.2.4-.2.8-.2 1.2c0 .5 0 .9.2 1.2c.1.4.2.7.4.9c.2.3.4.4.7.6c.2.1.5.2.9.2c.3 0 .6-.1.9-.2c.3-.2.5-.4.7-.6l.7.7c-.4.4-.7.6-1.1.8c-.4.2-.8.3-1.3.3zm5.6 0c-.5 0-1-.1-1.5-.3c-.4-.2-.8-.4-1.2-.8l.7-.8c.3.3.6.5 1 .6c.3.2.7.3 1 .3c.5 0 .8-.1 1.1-.3c.2-.2.3-.5.3-.8v-.4l-.3-.3c-.1-.1-.2-.2-.4-.3c-.1 0-.3-.1-.5-.2l-1-.4c-.2-.1-.4-.2-.5-.3c-.2-.1-.4-.3-.5-.4c-.2-.2-.3-.4-.4-.6c-.1-.2-.1-.4-.1-.7c0-.3 0-.6.2-.8c.1-.3.3-.5.5-.7c.2-.2.5-.3.8-.4c.3-.1.6-.2.9-.2c.5 0 .9.1 1.3.3c.4.2.7.4 1 .7l-.6.7c-.2-.2-.5-.3-.8-.5c-.2-.1-.5-.1-.9-.1c-.3 0-.7 0-.9.2c-.2.2-.3.4-.3.7c0 .2 0 .3.1.4c.1.2.1.3.3.3l.3.3c.2 0 .3.1.5.2l1 .4c.2.1.5.2.6.3c.2.1.4.3.5.4c.2.2.3.4.3.6c.1.2.2.4.2.7c0 .3-.1.6-.2.9c-.2.2-.3.5-.6.7c-.2.2-.5.3-.8.4c-.3.2-.7.2-1.1.2zm5.2-.1l-2.3-7.5h1.2s1.12 3.86 1.1 3.9c.1.4.3.8.4 1.2l.3 1.2h.1l.3-1.2l.3-1.2c.04-.04 1.2-3.9 1.2-3.9h1.2L86.6 46h-1.4zm12.7-8.5h1v9.3h-1v-9.3zm-3.9.7c.4 0 .7.1 1 .3c.3.1.5.3.7.6c.2.3.4.6.5 1c.1.4.2.9.2 1.4c0 .5-.1.9-.2 1.3c-.1.4-.3.8-.5 1c-.2.3-.4.5-.7.7c-.3.1-.6.2-1 .2c-.3 0-.6-.1-.9-.2c-.3-.2-.6-.4-.8-.7c-.2-.2-.4-.6-.5-1c-.1-.4-.2-.8-.2-1.3c0-.5.1-1 .2-1.4c.1-.4.3-.7.5-1c.2-.3.5-.5.8-.6c.3-.2.6-.3.9-.3zm0 1c-.4 0-.7.2-1 .6c-.2.4-.3.9-.3 1.7c0 .7.1 1.3.3 1.7c.3.4.6.6 1 .6c.4 0 .8-.2 1-.6c.3-.4.4-1 .4-1.7c0-.8-.1-1.3-.4-1.7c-.2-.4-.6-.6-1-.6zm13.1-1.6h1v9.2h-1v-9.2zm-5 .8v5.1c.7 0 1.3 0 2-.1c.7 0 1.4-.1 2.1-.3l.1.9c-.8.2-1.5.3-2.3.3c-.7.1-1.4.1-2.2.1c.05.04-.7 0-.7 0v-6h1zm14.2-.9h1.1v9.3h-1.1v-4.2h-1.9v-.8h1.9v-1.5h-1.9v-.8h1.9v-2zm-3.3.8s.04 1.53 0 1.5c0 .5.1.9.2 1.3c.1.4.3.8.4 1.2c.2.3.5.6.8.9c.2.3.6.5.9.7l-.6.8c-.5-.2-1-.6-1.3-1.1c-.4-.5-.7-1-.9-1.7c-.2.7-.5 1.3-.8 1.8c-.4.5-.9.9-1.4 1.2l-.7-.9c.4-.2.7-.4 1-.7c.3-.3.5-.6.7-1c.2-.4.4-.8.5-1.2c.1-.4.2-.8.2-1.3c-.03.03 0-1.5 0-1.5h1zm12.4-.8h1.1v9.3h-1.1v-9.3zm-4.9 4.3s-.03 1.95 0 2c.4 0 .7-.1 1.1-.1h1c.3 0 .6-.1.9-.1c.3 0 .7-.1 1-.1l.1.8c-.4.1-.7.1-1.1.2c-.3 0-.7 0-1 .1h-3.1v-6.3h4.6v.9h-3.5v1.7h3.1v.9h-3.1zm8.5-3.6h1v1.6h4.4v-1.6h1v4.8H129v-4.8zm1 2.4v1.6h4.4v-1.6H130zm-1.9 4.1h8.3v.9h-8.3v-.9zm12.4-6.3v1.3h-1.2s-.03-1.29 0-1.3c0-.4.1-.7.3-.9c.2-.3.5-.5.9-.5v.6c-.3 0-.4.1-.5.2c-.1.2-.1.4-.1.6h.6zm1.1 7.6v-7.5h1.2v3h3.2v-3h1.2v7.5H146v-3.4h-3.2v3.4h-1.2zm11.8-5.6l-2.7 7.9h-1.1l.8-2.4l-2.3-5.5h1.2l1.1 2.9c.1.2.1.5.2.7c.1.3.2.6.3.8c-.01.03 0 0 0 0l.5-1.5l.9-2.9h1.1zm2.5 5.7c-.6 0-1.1-.2-1.3-.6c-.3-.3-.4-.9-.4-1.6c-.05 0 0-3.5 0-3.5h1.1s.02 3.35 0 3.4c0 .4.1.8.2 1c.2.2.4.3.8.3c.2 0 .5-.1.7-.2c.2-.1.4-.3.6-.6v-3.9h1.2v5.6h-1l-.1-.9s0 .03 0 0c-.3.3-.5.6-.8.7c-.3.2-.6.3-1 .3zm4.4-.1v-5.6h1l.1.7s.02.04 0 0l.9-.6c.3-.2.6-.3 1-.3c.6 0 1 .2 1.3.6c.3.4.4.9.4 1.6v3.6h-1.2s.03-3.41 0-3.4c0-.5 0-.8-.2-1.1c-.1-.2-.4-.3-.7-.3c-.3 0-.5.1-.7.2c-.2.2-.4.3-.7.6v4h-1.2zm8.2.1c-.8 0-1.3-.2-1.7-.7c-.5-.5-.7-1.3-.7-2.2c0-.5.1-.9.2-1.3c.2-.3.3-.6.6-.9c.2-.2.5-.4.7-.6c.3-.1.6-.2.9-.2c.4 0 .6.1.9.2c.2.1.4.3.7.5c-.05-.04-.1-1-.1-1v-2.1h1.2v8.2h-1l-.1-.7s-.02.04 0 0c-.2.3-.5.4-.7.6c-.3.1-.6.2-.9.2zm.2-1c.5 0 .9-.2 1.3-.6v-2.8c-.2-.2-.4-.3-.6-.4c-.2-.1-.4-.1-.6-.1c-.2 0-.4 0-.6.1c-.2.1-.3.3-.4.4c-.2.2-.3.4-.3.6c-.1.3-.1.6-.1.9c0 .6.1 1.1.3 1.4c.2.4.6.5 1 .5zm5.4 1c-.3 0-.5 0-.7-.1c-.2-.1-.4-.2-.5-.3c-.2-.2-.3-.3-.4-.5c-.1-.2-.1-.5-.1-.7c0-.3.1-.6.2-.9c.1-.3.3-.5.6-.7c.3-.2.6-.3 1.1-.3c.4-.1.9-.2 1.5-.2c0-.2-.1-.3-.1-.5c0-.1-.1-.2-.2-.4c-.1-.1-.2-.2-.3-.2c-.1-.1-.3-.1-.5-.1c-.3 0-.6 0-.9.2c-.3.1-.6.2-.8.4l-.4-.9c.3-.2.7-.3 1-.5c.4-.1.8-.2 1.3-.2c.7 0 1.2.2 1.5.6c.4.5.5 1 .5 1.8c.03 0 0 3.4 0 3.4h-.9l-.1-.6s-.06-.04-.1 0c-.2.2-.5.4-.8.5c-.3.1-.6.2-.9.2zm.3-.9c.3 0 .5-.1.7-.2c.2-.1.4-.2.7-.4v-1.4c-.3 0-.6 0-.8.1h-.5c-.2.1-.3.1-.4.1c-.1.1-.2.1-.3.2c-.2.2-.2.3-.3.4v.4c0 .3.1.5.3.6c.1.1.4.2.6.2zm3.8-7.2h1.2v1.3h-1.2V38zm1.2 8h-1.2v-5.6h1.2v5.6zm6.5.1c-.4 0-.9-.1-1.3-.3c-.4-.1-.7-.4-1-.7c-.3-.3-.6-.7-.7-1.2c-.2-.5-.3-1-.3-1.7c0-.6.1-1.1.3-1.6c.1-.5.4-.9.7-1.2c.3-.4.6-.6 1.1-.8c.4-.2.8-.3 1.3-.3c.5 0 .9.1 1.2.3c.4.2.7.4.9.7l-.6.7c-.2-.2-.4-.3-.7-.5c-.2-.1-.5-.1-.8-.1c-.3 0-.6 0-.9.2c-.3.1-.5.3-.7.5c-.2.3-.3.6-.4.9c-.1.4-.2.8-.2 1.2c0 .5.1.9.2 1.2c.1.4.2.7.4.9c.2.3.4.4.7.6c.2.1.5.2.9.2c.3 0 .6-.1.9-.2c.3-.2.5-.4.7-.6l.7.7c-.3.4-.7.6-1.1.8c-.3.2-.8.3-1.3.3zm5.6 0c-.3 0-.6-.1-1-.2c-.3-.1-.6-.3-.8-.6c-.2-.2-.4-.5-.6-.9c-.1-.3-.2-.8-.2-1.2c0-.5.1-.9.2-1.3l.6-.9c.2-.3.5-.4.8-.6c.4-.1.7-.2 1-.2c.4 0 .7.1 1 .2c.4.2.6.3.9.6l.6.9c.1.4.2.8.2 1.3c0 .4-.1.9-.2 1.2c-.2.4-.4.7-.6.9c-.3.3-.5.5-.9.6c-.3.1-.6.2-1 .2zm0-1c.5 0 .8-.1 1.1-.5c.2-.3.4-.8.4-1.4c0-.6-.2-1.1-.4-1.5c-.3-.3-.6-.5-1.1-.5c-.4 0-.8.2-1 .5c-.3.4-.4.9-.4 1.5c0 .6.1 1.1.4 1.4c.3.4.6.5 1 .5zm3.8.9v-5.6h1l.1.7s.02.04 0 0l.9-.6c.2-.2.6-.3 1-.3c.6 0 1 .2 1.3.6c.3.4.4.9.4 1.6v3.6h-1.2s.03-3.41 0-3.4c0-.5 0-.8-.2-1.1c-.1-.2-.4-.3-.7-.3c-.3 0-.5.1-.7.2c-.2.2-.4.3-.7.6v4h-1.2zm8.1.1c-.3 0-.6 0-.8-.1c-.2-.1-.4-.3-.5-.4c-.2-.2-.3-.4-.3-.7c-.1-.2-.1-.5-.1-.8c-.02.04 0-2.8 0-2.8h-.8v-.9h.8l.2-1.6h1v1.6h1.4v.9h-1.4s-.04 2.85 0 2.9c0 .3 0 .6.1.7c.2.2.4.3.7.3c.1 0 .2 0 .3-.1c.1 0 .2 0 .3-.1l.2.9c-.2.1-.3.1-.5.1c-.2.1-.4.1-.6.1zm1.8-8.1h1.2v1.3h-1.2V38zm1.2 8h-1.2v-5.6h1.2v5.6zm1.4 0v-5.6h.9l.1.7s.04.04 0 0l.9-.6c.3-.2.6-.3 1-.3c.6 0 1 .2 1.3.6c.3.4.4.9.4 1.6c.02.05 0 3.6 0 3.6h-1.1s-.05-3.41 0-3.4c0-.5-.1-.8-.3-1.1c-.1-.2-.4-.3-.7-.3c-.3 0-.5.1-.7.2c-.2.2-.4.3-.7.6c.02 0 0 4 0 4h-1.1zm7.8.1c-.6 0-1.1-.2-1.3-.6c-.3-.3-.4-.9-.4-1.6c-.05 0 0-3.5 0-3.5h1.1s.02 3.35 0 3.4c0 .4.1.8.2 1c.2.2.4.3.8.3c.2 0 .5-.1.7-.2c.2-.1.4-.3.6-.6v-3.9h1.2v5.6h-1l-.1-.9s0 .03 0 0c-.3.3-.5.6-.8.7c-.3.2-.6.3-1 .3zm6.8 0c-.4 0-.8-.1-1.1-.2c-.3-.1-.6-.3-.9-.6c-.2-.2-.4-.5-.5-.9c-.2-.3-.3-.8-.3-1.2c0-.5.1-.9.3-1.3c.1-.3.3-.6.5-.9c.3-.2.5-.4.9-.6c.3-.1.6-.2.9-.2c.4 0 .7.1 1 .2c.3.1.5.3.7.6c.2.2.3.5.4.8c.1.3.2.7.2 1.1v.3c0 .1 0 .2-.1.3h-3.6c0 .5.2.9.5 1.2c.3.3.7.5 1.2.5c.3 0 .5 0 .7-.1c.3-.1.5-.2.7-.3l.4.7c-.3.2-.6.3-.9.4c-.3.2-.7.2-1 .2zm-1.6-3.4h2.7c0-.5-.1-.9-.3-1.2c-.3-.2-.6-.4-1-.4c-.1 0-.3.1-.5.1c-.1.1-.3.2-.4.3c-.1.2-.3.3-.3.5c-.1.2-.2.4-.2.7zm4.2-4.4V37h1.2s.02 1.26 0 1.3c0 .3-.1.7-.3.9c-.2.3-.5.4-.9.5v-.6c.3 0 .4-.1.5-.3c.1-.1.1-.3.1-.5c0-.04-.6 0-.6 0zm8.4.8v-.6h-5.2v-.7h6.2v2h-5.2v.7h5.4v.7h-6.4v-2.1h5.2zm-6.3 2.7h8.4v.7h-8.4v-.7zm2 3.4v.7h5.6v.8h-6.6v-2.2h5.3v-.6h-5.3v-.7h6.3v2h-5.3zm15.8-7.6h1.1v9.2h-1.1v-9.2zm-6 .9s4.36.02 4.4 0c0 .7-.1 1.4-.3 2c-.1.6-.3 1.2-.7 1.8c-.3.5-.8 1-1.3 1.5c-.6.5-1.2.9-2 1.3l-.6-.8c1.2-.6 2.1-1.3 2.7-2.1c.6-.8 1-1.8 1.1-2.8c-.02-.02-3.3 0-3.3 0v-.9zm15.8 1.8h1.3v.8h-1.3v3.2h-1v-6.7h1v2.7zm-2.5-2.1v4.6h-4.3v-4.6h1v1.5h2.3v-1.5h1zm-1 3.8v-1.5h-2.3v1.5h2.3zm-1.2 1.7v2h5.1v.9h-6.2v-2.9h1.1zm10.9-5.6c.5 0 .9 0 1.3.2c.4.1.8.3 1.1.5c.3.2.5.5.7.8c.2.3.3.7.3 1.1c0 .4-.1.7-.3 1c-.2.4-.4.6-.7.9c-.3.2-.7.4-1.1.5c-.4.1-.8.2-1.3.2c-.5 0-.9-.1-1.3-.2c-.5-.1-.8-.3-1.1-.5c-.3-.3-.6-.5-.7-.9c-.2-.3-.3-.6-.3-1c0-.4.1-.8.3-1.1c.1-.3.4-.6.7-.8c.3-.2.6-.4 1.1-.5c.4-.2.8-.2 1.3-.2zm0 .8c-.3 0-.7.1-1 .2c-.2 0-.5.2-.7.3c-.2.2-.4.3-.5.6c-.1.2-.2.4-.2.7c0 .2.1.5.2.7c.1.2.3.4.5.5c.2.2.5.3.7.4c.3.1.7.1 1 .1c.3 0 .6 0 .9-.1c.3-.1.6-.2.8-.4c.2-.1.4-.3.5-.5c.1-.2.2-.5.2-.7c0-.3-.1-.5-.2-.7c-.1-.3-.3-.4-.5-.6c-.2-.1-.5-.3-.8-.3c-.3-.1-.6-.2-.9-.2zm-4.2 5.8h8.4v.9h-8.4v-.9zm13.9.1h3.7v.9h-8.4v-.9h3.6v-1.6h-2.6v-2.9h5.3V39h-5.3v-.8h6.4v2.9H268v1.3h5.5v.8h-2.9v1.6zm14.2-7.2v6.7h-1.1v-6.7h1.1zm-1.9 4.7l-.5.8c-.6-.1-1-.4-1.4-.7c-.4-.3-.7-.7-.9-1.1c-.2.4-.5.8-.9 1.2c-.4.4-.8.6-1.4.8l-.5-.8c.4-.1.7-.3 1-.5c.2-.2.5-.4.7-.6c.2-.3.3-.5.4-.8c.1-.3.2-.6.2-.9c-.04-.01 0-.2 0-.2h-2v-.8h2v-1.1h1v1.1h2v.8h-2v.2c0 .3.1.5.2.8c.1.3.2.5.4.8c.2.2.4.4.7.6c.3.2.6.3 1 .4zm-3.1 3.4h5.2v.9h-6.3v-2.9h1.1v2zm12-7.3v.8h-5.3v-.8h2.1v-.9h1.1v.9h2.1zm1.8 2.3h1.2v.8h-1.2v3.3h-1.1v-7.3h1.1v3.2zm-1.6 1.9l.1.8c-.5 0-1 .1-1.5.2c-.5 0-1 .1-1.5.1c-.5 0-.9 0-1.4.1h-1.3l-.1-.9h2.3v-.6c-.5-.1-.9-.2-1.2-.5c-.3-.2-.5-.5-.5-.9c0-.5.2-.8.6-1c.4-.3 1-.4 1.6-.4c.7 0 1.3.1 1.6.4c.4.2.6.5.6 1c0 .4-.1.7-.4.9c-.3.3-.7.4-1.2.5v.6c.4-.1.8-.1 1.2-.1c.4-.1.7-.1 1.1-.2zm-4.1-1.7c0 .2.1.4.4.5c.2.1.5.2.8.2c.4 0 .7-.1.9-.2c.2-.1.3-.3.3-.5c0-.2-.1-.4-.3-.5c-.2-.1-.5-.2-.9-.2c-.3 0-.6.1-.8.2c-.3.1-.4.3-.4.5zm.8 3.4v1.4h5.2v.9h-6.3v-2.3h1.1zm13.4-4.3H300c-.6 1.5-1.9 2.5-3.9 3.1l-.5-.9c1.1-.3 2-.7 2.6-1.2c.5-.6.9-1.2 1-1.9c-.03-.04-3.1 0-3.1 0v-.9h4.2v.5c0 .1-.1.3-.1.4c.01.03 1.9 0 1.9 0v-1.5h1.1v5.4h-1.1v-1.1h-2.2v-.9h2.2v-1zm-2 3.1c.5 0 .9 0 1.3.1c.4.1.7.2 1 .4c.3.1.5.3.6.5c.2.3.2.5.2.8c0 .3 0 .5-.2.8c-.1.2-.3.4-.6.5c-.3.2-.6.3-1 .4c-.4.1-.8.1-1.3.1c-.4 0-.8 0-1.2-.1c-.4-.1-.7-.2-1-.4c-.3-.1-.5-.3-.6-.5c-.2-.3-.2-.5-.2-.8c0-.3 0-.5.2-.8c.1-.2.3-.4.6-.5c.3-.2.6-.3 1-.4c.4-.1.8-.1 1.2-.1zm0 2.8c.7 0 1.2-.1 1.5-.3c.4-.1.6-.4.6-.7c0-.3-.2-.6-.6-.7c-.3-.2-.8-.3-1.5-.3c-.6 0-1.1.1-1.5.3c-.3.1-.5.4-.5.7c0 .3.2.6.5.7c.4.2.9.3 1.5.3zm7.6-4.3v1.3h-1.2v-1.3h1.2zm7.3 3.2h3.7v.8h-8.3v-.8h3.6v-2.1h-2.7v-4.4h6.4v4.4H315v2.1zm-2.7-5.7v2.8h4.4v-2.8h-4.4zm14.8-1.6v4.8h-1v-4.8h1zm-2.7.4v4.1H320v-4.1h1.1v1.2h2.2v-1.2h1.1zm-1.1 3.2v-1.2h-2.2v1.2h2.2zm-1.2 4.8h5.3v.8h-6.3v-2.4h5v-.7h-5v-.8h6v2.3h-5v.8zm13.2-8.4h1v9.3h-1v-9.3zm-5 4.3v1.9c.7 0 1.4 0 2.1-.1c.7 0 1.4-.1 2.1-.2l.1.9c-.4 0-.8.1-1.1.1c-.4.1-.8.1-1.2.1c-.3.1-.7.1-1.1.1h-2v-3.7h3.3v-1.7h-3.3v-.8h4.3v3.4h-3.2zm14.2-4.3h1v9.3h-1v-9.3zm-5 4.3v2c.4 0 .7-.1 1.1-.1h1c.3 0 .6-.1.9-.1c.4 0 .7-.1 1-.1l.1.8c-.3.1-.7.1-1 .2c-.4 0-.7 0-1.1.1h-3.1v-6.3h4.6v.9h-3.5v1.7h3.1v.9h-3.1zm10.6-.2v1.3h-1.3v-1.3h1.3zm9.2-4.1h1v9.3h-1v-9.3zm-6.1.9h4.3v6.1h-4.3v-6.1zm3.3.9h-2.2v4.4h2.2v-4.4zm12.3-1.7h1v9.2h-1V42h-1.1v4.3h-1v-8.6h1v3.4h1.1v-3.5zm-5.6 4.3v1.9c.5 0 1-.1 1.4-.1c.5 0 1-.1 1.5-.2l.1.9c-.6.1-1.2.2-1.7.2h-1.7c.02.03-.6 0-.6 0V41h2.4v-1.6h-2.4v-.9h3.4v3.4h-2.4zm14.8-4.3h1v9.2h-1v-9.2zm-1.9 3.2v-3.1h1v8.6h-1v-4.7h-1.4v-.8h1.4zm-2.2-2.4s.02 1.61 0 1.6c0 .4.1.8.1 1.1c.1.4.2.8.4 1.1c.1.3.3.6.5.9c.2.3.5.5.8.7l-.6.9c-.4-.3-.8-.6-1-1.1c-.3-.4-.5-.9-.7-1.4c-.1.6-.4 1.1-.7 1.6c-.3.4-.6.8-1.1 1.1l-.6-.8c.3-.2.6-.5.8-.8c.3-.3.5-.6.6-.9c.2-.4.3-.8.4-1.2c.1-.4.1-.7.1-1.1v-1.7h1zm13.2-.9h1v9.3h-1V42H386v4.3h-1v-8.6h1v3.5h1.1v-3.7zm-5.5 2v4.2c.5 0 1 0 1.5-.1c.4 0 .9-.1 1.4-.2v.9c-.2.1-.5.1-.8.1c-.2.1-.5.1-.8.1c-.2 0-.5.1-.8.1h-.9c-.01-.03-.6 0-.6 0v-6h3.4v.9h-2.4zm17.3.7v.9h-6.3v-3.2h6.2v.8h-5.2v1.5h5.3zm-7.4 1.7h8.4v.8h-8.4v-.8zm4.2 1.5c1 0 1.7.2 2.3.4c.6.3.8.7.8 1.3c0 .5-.2.9-.8 1.2c-.5.3-1.3.5-2.3.5c-.5 0-1-.1-1.4-.2c-.3 0-.7-.1-.9-.3c-.3-.1-.5-.3-.7-.5c-.1-.2-.2-.5-.2-.7c0-.3.1-.5.2-.7c.2-.2.4-.4.7-.6c.2-.1.6-.2.9-.3c.4-.1.9-.1 1.4-.1zm0 2.5c.7 0 1.2 0 1.5-.2c.4-.1.6-.3.6-.6c0-.3-.2-.5-.6-.7c-.3-.1-.8-.2-1.5-.2c-.7 0-1.2.1-1.6.2c-.3.2-.5.4-.5.7c0 .3.2.5.5.6c.4.2.9.2 1.6.2zm7-1.8l1-.4c.1.2.1.3.2.5c.1.2.2.4.4.5c.1.1.3.2.5.3c.1.1.3.1.5.1c.2 0 .4 0 .6-.1c.1 0 .3-.1.4-.2c.2-.2.3-.3.3-.5c.1-.1.2-.3.2-.5c0-.3-.1-.5-.2-.7c-.1-.1-.2-.3-.4-.4c-.2 0-.4-.1-.6-.1c-.2-.1-.4-.1-.7-.1v-.8h.7c.2-.1.3-.1.5-.2c.2-.1.3-.2.4-.4c.1-.2.1-.4.1-.6c0-.4-.1-.7-.3-.9c-.2-.2-.5-.3-.9-.3c-.2 0-.3.1-.5.1c-.2.1-.3.2-.5.3c-.1.1-.2.3-.2.5c-.1.1-.1.3-.1.5l-1.1-.2c.1-.7.3-1.2.8-1.6c.4-.4 1-.5 1.7-.5c.3 0 .6 0 .8.1c.3.1.5.2.7.3c.2.2.4.4.5.7c.2.2.2.5.2.8c0 .4-.1.8-.3 1.1c-.2.3-.5.5-.9.6c.4.1.8.3 1 .6c.3.3.4.7.4 1.2c0 .3-.1.7-.2.9c-.2.3-.3.6-.6.8c-.2.2-.5.3-.8.4c-.3.1-.6.2-1 .2c-.7 0-1.2-.2-1.6-.5c-.4-.3-.8-.8-1-1.5zm12.8-6.5h1v9.2h-1V42h-1v4.3h-1v-8.5h1v3.4h1v-3.6zm-6.5 1.1s3.63.01 3.6 0c0 .6 0 1.2-.1 1.8c-.2.6-.3 1.1-.6 1.6c-.3.5-.6 1-1 1.5c-.5.4-1 .9-1.7 1.2l-.6-.7c.5-.3 1-.6 1.3-.9c.4-.4.7-.7.9-1.1c.2-.4.4-.8.5-1.2c.2-.4.3-.9.3-1.3c-.01-.03-2.6 0-2.6 0v-.9zm11.7 2.6l-.4-.8c.5 0 .9-.1 1.2-.2c.4-.1.7-.3.9-.4c.3-.2.5-.3.7-.5l.3-.6h-2.7v-.9h6.8v.9h-2.7c0 .2.1.4.3.6c.2.2.4.3.6.5c.3.1.6.3 1 .4c.3.1.7.2 1.1.2l-.3.8c-.4 0-.8-.1-1.2-.2c-.3-.1-.6-.2-.9-.4c-.3-.1-.6-.3-.8-.5c-.2-.2-.4-.4-.5-.6c-.3.4-.7.8-1.3 1.1c-.6.3-1.3.5-2.1.6zm7.6 1.3h-3.7s.01.9 0 .9c.9.1 1.5.2 2 .5c.4.3.6.6.6 1.1c0 .6-.2 1-.8 1.2c-.5.3-1.3.5-2.3.5c-1 0-1.8-.2-2.4-.5c-.5-.2-.8-.6-.8-1.2c0-.5.2-.8.7-1.1c.4-.3 1.1-.5 2-.5c-.04-.01 0-.9 0-.9h-3.7v-.8h8.4v.8zm-2.1 2.5c0-.3-.2-.5-.6-.6c-.3-.1-.8-.2-1.5-.2c-.7 0-1.2.1-1.6.2c-.3.1-.5.3-.5.6c0 .3.2.5.5.6c.4.2.9.3 1.6.3c.7 0 1.2-.1 1.5-.3c.4-.1.6-.3.6-.6zm9.5-7.6h1v5.4h-1v-2.3h-1.6v-.8h1.6v-2.3zm-1.1 4.4l-.5.8c-.5-.2-1-.5-1.3-.8c-.4-.4-.7-.7-.9-1.2c-.2.5-.5.9-.9 1.3c-.3.4-.8.7-1.4.9l-.5-.9c.4-.1.7-.2 1-.4c.2-.3.5-.5.7-.7c.2-.3.3-.6.4-.9c.1-.3.2-.6.2-.9c-.03-.02 0-.2 0-.2h-2v-.8h4.9v.8h-1.9s.03.18 0 .2c0 .3.1.5.2.8c.1.3.2.6.4.8c.2.3.4.5.7.7c.2.2.5.3.9.5zm-3.9 4.7v-3.3h6v3.3h-6zm1-2.4v1.6h4v-1.6h-4zm15.3-2.4s-2.27-.04-2.3 0c-.2.2-.5.4-.8.5c-.3.1-.6.2-1 .2c-.3 0-.7 0-1-.2c-.2-.1-.5-.2-.7-.4c-.2-.2-.4-.4-.5-.7c-.1-.3-.2-.6-.2-.9c0-.3.1-.6.2-.9c.1-.3.3-.5.5-.7c.2-.2.5-.4.7-.5c.3-.1.7-.1 1-.1c.4 0 .7 0 1 .2c.3.1.6.3.8.5c.03.02 2.3 0 2.3 0v-1.3h1v5.5h-1v-1.2zm-5.5-1.5c0 .4.1.7.4 1c.3.2.6.3 1 .3c.4 0 .7-.1 1-.3c.3-.3.4-.6.4-1c0-.4-.1-.7-.4-1c-.3-.2-.6-.3-1-.3c-.4 0-.7.1-1 .3c-.3.3-.4.6-.4 1zm5.5-.6s-1.79-.03-1.8 0c0 .1.1.2.1.3v.3c0 .2 0 .4-.1.6c0 .02 1.8 0 1.8 0v-1.2zm-2.1 3.5c.5 0 .9 0 1.3.1c.4.1.7.2 1 .4c.3.1.5.3.6.5c.2.2.2.5.2.8c0 .3 0 .5-.2.7c-.1.2-.3.4-.6.6c-.3.1-.6.3-1 .3c-.4.1-.8.2-1.3.2c-.4 0-.9-.1-1.3-.2c-.3 0-.7-.2-.9-.3c-.3-.2-.5-.4-.7-.6c-.1-.2-.2-.4-.2-.7c0-.3.1-.6.2-.8c.2-.2.4-.4.7-.5c.2-.2.6-.3.9-.4c.4-.1.9-.1 1.3-.1zm0 2.7c.7 0 1.2 0 1.6-.2c.3-.2.5-.4.5-.7c0-.3-.2-.6-.5-.7c-.4-.2-.9-.3-1.6-.3c-.6 0-1.1.1-1.5.3c-.4.1-.5.4-.5.7c0 .3.1.5.5.7c.4.2.9.2 1.5.2zm11.2-8.3l1.1-.1v5.5h-1.1v-1.3s-2.15.04-2.2 0c-.2.3-.4.5-.8.6c-.3.2-.6.2-1 .2c-.4 0-.7 0-1-.1c-.3-.1-.5-.3-.7-.5c-.3-.2-.4-.4-.5-.7c-.2-.3-.2-.6-.2-.9c0-.3 0-.6.2-.9c.1-.3.2-.5.5-.7c.2-.2.4-.4.7-.5c.3-.1.6-.1 1-.1c.4 0 .7 0 1 .2c.4.1.6.3.8.5c.05.05 2.2 0 2.2 0v-1.2zm-4 4c.4 0 .7-.1 1-.3c.2-.3.4-.6.4-1c0-.2-.1-.4-.1-.6c-.1-.1-.2-.3-.3-.4c-.2-.1-.3-.2-.5-.3c-.1 0-.3-.1-.5-.1c-.2 0-.4.1-.6.1c-.1.1-.3.2-.4.3c-.1.1-.2.3-.3.4c-.1.2-.1.4-.1.6c0 .4.1.7.4 1c.2.2.6.3 1 .3zm2.4-1.3c0 .1-.1.3-.1.6c-.01-.01 1.7 0 1.7 0v-1.2h-1.7v.3c.1.1.1.2.1.3zm-3.5 4v-.8h6.2v3.3h-1.1v-2.5H451zm14.6-6.7h1v9.2h-1v-9.2zm-1.8 3.4v-3.3h.9v8.6h-.9v-4.4h-1c0 .5-.1.9-.2 1.2c-.1.4-.3.7-.4.9c-.2.3-.4.5-.6.6c-.3.1-.5.2-.8.2c-.3 0-.6-.1-.8-.2c-.2-.2-.5-.4-.6-.7c-.2-.3-.3-.6-.4-1c-.1-.4-.2-.9-.2-1.4c0-.5.1-.9.2-1.3c.1-.4.2-.8.4-1.1c.1-.2.4-.5.6-.6c.2-.2.5-.2.8-.2c.6 0 1 .2 1.4.7c.3.5.5 1.2.6 2c-.04.04 1 0 1 0zm-3 2.8c.3 0 .6-.2.8-.6c.1-.4.2-.9.2-1.7c0-.7-.1-1.3-.2-1.7c-.2-.4-.5-.5-.8-.5c-.3 0-.6.1-.8.5c-.1.4-.2 1-.2 1.7c0 .8.1 1.3.2 1.7c.2.4.5.6.8.6zm15.7-6.3h1.1v5h-1.1v-5zm-.8 4.1l-.5.8c-.6-.1-1-.4-1.4-.7c-.4-.3-.7-.7-.9-1.2c-.2.5-.5.9-.9 1.3c-.4.3-.9.6-1.4.8l-.5-.8c.3-.2.6-.3.9-.5c.3-.2.6-.4.8-.7c.1-.2.3-.5.4-.7c.1-.3.1-.6.1-.9c.05-.01 0-.1 0-.1h-2v-.8h5.1v.8h-2s.02.09 0 .1c0 .3.1.5.2.8c.1.3.2.5.4.7c.2.3.4.5.7.7c.3.1.6.3 1 .4zm.8 2.4v-1h1.1v3.6h-6V43h1v1h3.9zm0 1.8v-1h-3.9v1h3.9zm3.5-4.5l-.4-.8c.4 0 .8-.1 1.2-.2c.3-.1.6-.3.9-.4c.2-.2.5-.3.6-.5c.2-.2.3-.4.3-.6h-2.7v-.9h6.8v.9H484l.3.6c.2.2.4.3.7.5c.2.1.6.3.9.4c.4.1.7.2 1.2.2l-.4.8c-.4 0-.8-.1-1.1-.2c-.4-.1-.7-.2-1-.4c-.3-.1-.5-.3-.8-.5c-.2-.2-.3-.4-.5-.6c-.2.4-.6.8-1.2 1.1c-.6.3-1.3.5-2.1.6zm7.5 1.3h-3.6s-.05.9 0 .9c.8.1 1.5.2 1.9.5c.5.3.7.6.7 1.1c0 .6-.3 1-.8 1.2c-.6.3-1.4.5-2.4.5c-1 0-1.8-.2-2.3-.5c-.6-.2-.9-.6-.9-1.2c0-.5.3-.8.7-1.1c.5-.3 1.1-.5 2-.5v-.9h-3.6v-.8h8.3v.8zm-2.1 2.5c0-.3-.2-.5-.5-.6c-.4-.1-.9-.2-1.6-.2c-.7 0-1.2.1-1.5.2c-.4.1-.6.3-.6.6c0 .3.2.5.6.6c.3.2.8.3 1.5.3c.7 0 1.2-.1 1.6-.3c.3-.1.5-.3.5-.6zm9.8-7.5h1v9.2h-1v-4.6h-1v4.1h-1v-8.6h1v3.7h1v-3.8zm-4.1.2v1.3h1.7v.8h-4.5v-.8h1.8v-1.3h1zm-.5 2.6c.3 0 .6.1.8.2c.2.1.5.2.6.4c.2.2.3.4.4.7c.1.2.2.5.2.9c0 .3-.1.6-.2.8c-.1.3-.2.5-.4.7c-.1.2-.4.3-.6.4c-.2.1-.5.2-.8.2c-.3 0-.6-.1-.8-.2c-.3-.1-.5-.2-.6-.4c-.2-.2-.4-.4-.5-.7c-.1-.2-.1-.5-.1-.8c0-.4 0-.7.1-.9c.1-.3.3-.5.5-.7c.1-.2.3-.3.6-.4c.2-.1.5-.2.8-.2zm0 3.4c.3 0 .6-.1.8-.3c.2-.2.3-.6.3-.9c0-.4-.1-.7-.3-1c-.2-.2-.5-.3-.8-.3c-.3 0-.6.1-.8.3c-.2.3-.3.6-.3 1c0 .3.1.7.3.9c.2.2.5.3.8.3zm17.6-2.6v.9h-1.5v4.7h-1v-9.2h1v3.6h1.5zm-5.4-2.9s.04 1.53 0 1.5c0 .4.1.8.2 1.2c.1.4.2.8.4 1.2c.2.3.5.7.7.9c.3.3.6.5 1 .7l-.7.9c-.5-.3-.9-.7-1.2-1.1c-.4-.5-.7-1-.9-1.7c-.2.7-.5 1.2-.8 1.8c-.4.5-.9.9-1.4 1.1l-.7-.8c.4-.2.7-.4 1-.7c.3-.3.6-.7.8-1c.2-.4.3-.8.4-1.2c.1-.4.2-.8.2-1.3v-1.5h1zm12.5-.8h1.1v9.3h-1.1v-9.3zm-.7 1.1v.9H509v-.9h2.3v-1h1v1h2.3zm-2.3 4.7v.9c.5 0 .9-.1 1.3-.1c.4 0 .8-.1 1.2-.1l.1.7c-.5.1-1.1.2-1.6.2c-.5.1-1 .1-1.5.1c-.5.1-1 .1-1.5.1H509l-.2-.9h2.5v-.9c-.5-.1-1-.3-1.3-.6c-.3-.2-.4-.6-.4-1.1c0-.2 0-.5.1-.7c.1-.2.3-.4.5-.5c.2-.2.4-.3.7-.4c.3 0 .6-.1.9-.1c.4 0 .7.1.9.1c.3.1.5.2.7.4c.2.1.4.3.5.5c.1.2.2.5.2.7c0 .5-.2.9-.5 1.1c-.3.3-.7.5-1.3.6zm-1.7-1.7c0 .3.1.5.3.7c.2.2.5.2.9.2c.4 0 .7 0 .9-.2c.3-.2.4-.4.4-.7c0-.3-.1-.5-.4-.6c-.2-.2-.5-.3-.9-.3c-.4 0-.7.1-.9.3c-.2.1-.3.3-.3.6zm14.4-.4l-1-.1c.1-.5.2-.9.2-1.2v-1.1c.03.04-5.3 0-5.3 0v-.8h6.4s-.03.76 0 .8c0 .3 0 .7-.1 1.1c0 .4-.1.8-.2 1.3zm-2.7.6h4v.8H518v-.8h3.2v-1.7h1.1v1.7zm-.2 1.5c.5 0 .9.1 1.3.1c.4.1.8.2 1.1.4c.2.1.4.3.6.5c.2.2.2.5.2.7c0 .3 0 .5-.2.8c-.2.2-.4.4-.6.5c-.3.2-.7.3-1.1.3c-.4.1-.8.2-1.3.2c-.5 0-.9-.1-1.3-.2c-.4 0-.8-.1-1.1-.3c-.2-.1-.5-.3-.6-.5c-.2-.3-.2-.5-.2-.8c0-.2 0-.5.2-.7c.1-.2.4-.4.6-.5c.3-.2.7-.3 1.1-.4c.4 0 .8-.1 1.3-.1zm0 2.7c.7 0 1.2-.1 1.6-.3c.4-.1.6-.4.6-.7c0-.2-.2-.5-.6-.6c-.4-.2-.9-.3-1.6-.3c-.7 0-1.2.1-1.6.3c-.4.1-.6.4-.6.6c0 .3.2.6.6.7c.4.2.9.3 1.6.3zm10.4-7.4v.8h-5.3v-.8h2.1v-1.1h1.1v1.1h2.1zm-.2 2.1h1.4v-3.2h1.1v7h-1.1v-2.9h-1.4v-.9zm-.3.9c0 .3 0 .5-.2.7c-.1.2-.2.4-.4.6c-.2.1-.4.2-.7.3c-.3.1-.5.2-.9.2c-.3 0-.6-.1-.8-.2c-.3-.1-.5-.2-.7-.3c-.2-.2-.3-.4-.5-.6c-.1-.2-.1-.4-.1-.7c0-.2 0-.5.1-.7c.2-.2.3-.4.5-.5c.2-.2.4-.3.7-.4c.2-.1.5-.1.8-.1c.4 0 .6 0 .9.1c.3.1.5.2.7.4c.2.1.3.3.4.5c.2.2.2.5.2.7zm-3.3 0c0 .3.1.5.3.7c.2.2.5.2.8.2c.4 0 .7 0 .9-.2c.2-.2.3-.4.3-.7c0-.3-.1-.5-.3-.7c-.2-.1-.5-.2-.9-.2c-.3 0-.6.1-.8.2c-.2.2-.3.4-.3.7zm1.1 4.1h5.2v.9h-6.2v-2.7h1v1.8zm11.9-7.5v.7h-5.2v-.7h2.1v-.7h1.1v.7h2zm1.8 1.6h1.3v.9h-1.3v2.3h-1v-5.4h1v2.2zm-1.5 2l.1.7c-.5 0-1 .1-1.5.2c-.5 0-1 .1-1.5.1h-2.7c-.04.02-.1-.7-.1-.7c0 0 1.06-.02 1.1 0h1.2v-.6c-.5 0-.9-.1-1.2-.3c-.3-.2-.5-.5-.5-.8c0-.4.2-.7.6-.9c.4-.2.9-.3 1.6-.3c.7 0 1.2.1 1.6.3c.4.2.6.5.6.9c0 .3-.1.6-.4.8c-.3.2-.7.3-1.2.3v.5c.4 0 .8 0 1.2-.1c.3 0 .7 0 1.1-.1zm-4.1-1.4c0 .1.1.3.3.4c.3.1.6.1.9.1c.4 0 .7 0 .9-.1c.2-.1.3-.3.3-.4c0-.2-.1-.4-.3-.4c-.2-.1-.5-.2-.9-.2c-.3 0-.6.1-.9.2c-.2 0-.3.2-.3.4zm.6 4.9v.7h5.4v.7h-6.4v-2h5v-.6h-5v-.7h6v1.9h-5zm11.7-3.3h3.6v.9h-8.3v-.9h3.7v-.9h-2.6V38h6.2v.8h-5.2v1.4h5.3v.9h-2.7v.9zm-.5 1.4c.9 0 1.7.2 2.3.5c.5.2.8.7.8 1.2c0 .5-.2.9-.8 1.2c-.5.3-1.3.5-2.3.5c-.5 0-1-.1-1.4-.1c-.4-.1-.7-.2-1-.4c-.2-.1-.5-.3-.6-.5c-.1-.2-.2-.4-.2-.7c0-.3.1-.5.2-.7c.1-.2.4-.4.6-.5c.3-.2.6-.3 1-.4c.4 0 .9-.1 1.4-.1zm0 2.6c.6 0 1.2-.1 1.5-.3c.4-.1.6-.3.6-.6c0-.3-.2-.5-.6-.7c-.3-.1-.9-.2-1.5-.2c-.7 0-1.2.1-1.6.2c-.4.2-.5.4-.5.7c0 .3.1.5.5.6c.4.2.9.3 1.6.3zm9.2-5.1c-1.1 0-1.9-.2-2.5-.4c-.5-.3-.8-.7-.8-1.2c0-.5.3-.9.8-1.2c.6-.3 1.4-.4 2.5-.4c1 0 1.8.1 2.4.4c.6.3.8.7.8 1.2c0 .5-.2.9-.8 1.2c-.6.2-1.4.4-2.4.4zm0-2.4c-.8 0-1.3 0-1.7.2c-.4.1-.5.3-.5.6c0 .2.1.4.5.6c.4.1.9.2 1.7.2c.7 0 1.2-.1 1.6-.2c.4-.2.5-.4.5-.6c0-.3-.1-.5-.5-.6c-.4-.2-.9-.2-1.6-.2zm-4.2 2.9h8.3v.8h-8.3v-.8zm2 3.7v.8h5.5v.8h-6.5v-2.3h5.2v-.7h-5.2v-.8h6.3v2.2h-5.3zm14.6-3.9s.03.74 0 .7c-.4.1-.8.1-1.3.2c-.5 0-.9.1-1.4.1h-2.5c-.03.02-.1-.8-.1-.8h1v-2.5h-.8v-.8h4.9v.8h-.9s.03 2.36 0 2.4c.2 0 .4-.1.5-.1h.5c.02-.02 0-.8 0-.8h1.3v-.8h-1.3v-.8h1.3v-1.3h1.1v4.9h-1.1v-1.2h-1.2zm-3.3-2.3s.04 2.45 0 2.4h1.2c.02 0 0-2.4 0-2.4H568zm.6 7h5.3v.8h-6.3v-2.4h4.9v-.7h-4.9v-.8h6v2.3h-5v.8zm13.1-8.4h1.1v9.3h-1.1v-3.6H580v-.9h1.7v-1H580v-.9h1.7v-2.9zm-3.3 2.4s.03.58 0 .6c0 .3.1.7.2 1.1c.1.3.2.7.4 1c.2.3.5.6.8.8c.2.3.6.5.9.7l-.6.8c-.5-.3-.9-.6-1.3-1.1c-.4-.4-.7-.9-.9-1.5c-.2.6-.5 1.2-.8 1.6c-.4.5-.9.9-1.4 1.1l-.6-.8c.4-.2.7-.4 1-.6c.2-.3.5-.6.7-.9c.2-.4.3-.7.4-1.1c.1-.4.2-.7.2-1.1v-.6h-2v-.8h2v-1.4h1v1.4h2v.8h-2zm14.4 1.2v.9h-1.4v4.8h-1v-9.2h1v3.5h1.4zm-7.1-2.7s-.02 5.19 0 5.2c.6 0 1.3 0 1.9-.1l2-.3l.2.9l-2.3.3c-.7 0-1.4.1-2.1.1c-.01-.03-.8 0-.8 0v-6.1h1.1zm16.3 2.8v.9h-1.4v4.7h-1v-9.3h1v3.7h1.4zm-8.1-2.7s4.32.02 4.3 0c0 .7-.1 1.3-.2 2c-.2.6-.4 1.2-.7 1.7c-.4.6-.8 1.1-1.3 1.6c-.5.5-1.2.9-1.9 1.3l-.6-.8c2.2-1.2 3.5-2.8 3.7-4.9c-.03-.02-3.3 0-3.3 0v-.9zm15.1.8c.04.02 0 0 0 0h-5.5v-.9h6.6v2.8c-.1.3-.1.7-.2 1.1c0 .4-.1.9-.2 1.3l-1-.1c.2-.9.3-1.7.3-2.3v-1.9zm-2.2 5.4h4.2v.9h-8.3v-.9h3.1v-3.3h1v3.3zm14.7-7.1v5.2h-1v-5.2h1zm-4.9 4.8c-.4 0-.7 0-1-.2c-.3-.1-.6-.2-.8-.4c-.2-.2-.4-.4-.5-.7c-.1-.3-.2-.5-.2-.9c0-.3.1-.6.2-.8c.1-.3.3-.5.5-.7c.2-.2.5-.4.8-.5c.3-.1.6-.1 1-.1c.3 0 .6 0 .9.1c.3.1.6.3.8.5c.2.2.4.4.5.7c.1.2.2.5.2.8c0 .4-.1.6-.2.9c-.1.3-.3.5-.5.7c-.2.2-.5.3-.8.4c-.3.2-.6.2-.9.2zm0-3.5c-.5 0-.8.1-1.1.4c-.2.2-.4.5-.4.9c0 .4.2.8.4 1c.3.2.6.3 1.1.3c.4 0 .7-.1 1-.3c.2-.2.4-.6.4-1c0-.4-.2-.7-.4-.9c-.3-.3-.6-.4-1-.4zm3.9 4.3s.04.4 0 .4c0 .2.1.5.2.7c0 .2.1.4.3.6c.1.2.3.4.6.6c.2.1.4.3.7.4l-.5.7c-.4-.1-.8-.3-1.1-.6c-.3-.3-.5-.6-.7-1c-.1.4-.3.7-.6 1c-.3.3-.6.5-1.1.7c-.4-.1-.8-.4-1-.7c-.3-.3-.5-.6-.7-1c-.1.4-.4.7-.7 1c-.3.3-.6.5-1 .6l-.6-.7c.3-.1.6-.3.8-.4l.6-.6l.3-.6c.1-.3.1-.5.1-.7c.03 0 0-.4 0-.4h1s.05.4 0 .4c0 .4.1.8.3 1.2c.2.3.5.7.9.9c.2-.1.4-.3.5-.5c.2-.1.3-.3.4-.5c.1-.2.2-.4.2-.6c.1-.2.1-.3.1-.5v-.4h1zm10.5-2.9l-.4.8c-.7-.1-1.4-.3-2-.6c-.6-.3-1-.7-1.3-1.2c-.3.5-.8.9-1.4 1.2c-.5.3-1.2.5-2 .6l-.3-.8l1.2-.3c.4-.2.8-.3 1-.5c.3-.2.5-.5.7-.7c.2-.3.2-.5.2-.8c.04 0 0-.4 0-.4h1.1s.02.4 0 .4c0 .3.1.5.3.8c.1.2.3.5.6.7c.3.2.6.3 1 .5c.4.1.8.2 1.3.3zm-7.9 1.4h8.3v.8h-8.3v-.8zm6.2 2.3v-.9h1.1v3.5h-6.3v-3.5h1.1v.9h4.1zm0 1.8v-1h-4.1v1h4.1zm9.6-8.2h1v9.2h-1v-9.2zm-5 .8s-.02 5.14 0 5.1c.6 0 1.3 0 2-.1c.7 0 1.4-.1 2.1-.3l.1.9c-.8.2-1.6.3-2.3.3c-.7.1-1.5.1-2.2.1c.02.04-.8 0-.8 0v-6h1.1zm16.1 2.7v.9h-1.4v4.8h-1v-9.3h1v3.6h1.4zm-7.1-1.8v4.3h2c.6-.1 1.2-.2 1.9-.3l.1.9c-.3.1-.7.1-1 .2h-1c-.4.1-.8.1-1.1.1h-2v-6.1h4.3v.9h-3.2zm8.9 5.5v1.3h-1.2v-1.3h1.2z" stroke="none" fill="#fff"/></g><g id="Polygon34291"><path d="m1.7 19.9v1.3H.5s-.03-1.29 0-1.3c0-.4.1-.7.3-.9c.2-.3.5-.5.9-.5v.6c-.3 0-.4.1-.5.2c-.1.2-.1.4-.1.6h.6zm7.7 2.8l-1-.1c.1-.5.2-.9.2-1.2v-1.1c.03.04-5.3 0-5.3 0v-.8h6.4s-.03.76 0 .8c0 .3 0 .7-.1 1.1c0 .4-.1.8-.2 1.3zm-2.7.6h4v.8H2.4v-.8h3.3v-1.7h1v1.7zm-.2 1.5c.5 0 .9.1 1.3.1c.4.1.8.2 1.1.4c.2.1.4.3.6.5c.2.2.2.5.2.7c0 .3 0 .5-.2.8c-.2.2-.4.4-.6.5c-.3.2-.7.3-1.1.3c-.4.1-.8.2-1.3.2c-.5 0-.9-.1-1.3-.2c-.4 0-.8-.1-1.1-.3c-.2-.1-.5-.3-.6-.5c-.2-.3-.2-.5-.2-.8c0-.2 0-.5.2-.7c.1-.2.4-.4.6-.5c.3-.2.7-.3 1.1-.4c.4 0 .8-.1 1.3-.1zm0 2.7c.7 0 1.2-.1 1.6-.3c.4-.1.6-.4.6-.7c0-.2-.2-.5-.6-.6c-.4-.2-.9-.3-1.6-.3c-.7 0-1.2.1-1.6.3c-.4.1-.6.4-.6.6c0 .3.2.6.6.7c.4.2.9.3 1.6.3zm9.2-4c-.5 0-.9-.1-1.3-.2c-.4-.1-.8-.2-1.1-.4c-.2-.2-.5-.4-.6-.6c-.2-.3-.3-.6-.3-.9c0-.3.1-.6.3-.8c.1-.3.4-.5.6-.7c.3-.1.7-.3 1.1-.4c.4-.1.8-.1 1.3-.1c.5 0 .9 0 1.3.1c.4.1.8.3 1.1.4c.2.2.5.4.6.7c.2.2.3.5.3.8c0 .3-.1.6-.3.9c-.1.2-.4.4-.6.6c-.3.2-.7.3-1.1.4c-.4.1-.8.2-1.3.2zm0-3.3c-.7 0-1.2.1-1.6.4c-.4.2-.6.5-.6.8c0 .4.2.7.6.9c.4.2.9.3 1.6.3c.7 0 1.2-.1 1.6-.3c.4-.2.6-.5.6-.9c0-.2-.1-.3-.2-.5c-.1-.1-.2-.2-.4-.3c-.2-.2-.4-.2-.7-.3c-.3 0-.6-.1-.9-.1zm4.2 4v.9h-2.1v3.2h-1v-3.2h-2.1v3.2h-1.1v-3.2h-2.1v-.9h8.4zm9.4-1.5v.9h-1.4v4.7h-1.1V19h1.1v3.7h1.4zM21.2 20s4.26.02 4.3 0c0 .7-.1 1.3-.3 2c-.1.6-.4 1.2-.7 1.7c-.3.6-.8 1.1-1.3 1.6c-.5.5-1.1.9-1.9 1.3l-.6-.8c2.3-1.2 3.5-2.8 3.7-4.9c.01-.02-3.2 0-3.2 0v-.9zm15.2-1h1.1v9.3h-1.1V19zm-3 2.4v.6c0 .3 0 .7.2 1.1c.1.3.2.7.4 1c.2.3.5.6.8.8c.2.3.6.5.9.6l-.5.9c-.6-.3-1-.6-1.4-1.1c-.4-.4-.7-.9-.9-1.5c-.2.6-.5 1.2-.9 1.6c-.4.5-.9.9-1.4 1.1l-.6-.8c.4-.2.7-.4 1-.6c.3-.3.5-.6.7-.9c.2-.4.4-.7.5-1.1c.1-.4.1-.7.1-1.1c.04-.02 0-.6 0-.6h-2v-.8h2v-1.4h1.1v1.4h2v.8h-2zm13.2 2l-.5.9c-.5-.2-.9-.4-1.3-.7c-.4-.3-.7-.7-.9-1.1c-.2.5-.5.9-.9 1.2c-.3.4-.8.6-1.3.8l-.5-.8c.3-.1.6-.3.9-.5c.3-.1.5-.3.7-.6c.2-.2.3-.5.4-.7c.1-.3.2-.6.2-.9c-.03.02 0-.1 0-.1h-2v-.8h2V19h1v1.1h2v.8h-2s.02.12 0 .1c0 .5.2 1 .6 1.5c.4.4.9.7 1.6.9zm1.8-2.1h1.3v.9h-1.3v2.5h-1.1V19h1.1v2.3zm-3 3.6c1 0 1.7.1 2.3.4c.5.3.8.7.8 1.3c0 .5-.3.9-.8 1.2c-.6.3-1.3.5-2.3.5c-1 0-1.7-.2-2.3-.5c-.5-.3-.8-.7-.8-1.2c0-.6.3-1 .8-1.3c.6-.3 1.3-.4 2.3-.4zm0 2.5c.7 0 1.2 0 1.5-.2c.4-.1.5-.4.5-.6c0-.3-.1-.5-.5-.7c-.3-.2-.8-.2-1.5-.2c-.7 0-1.2 0-1.5.2c-.4.2-.5.4-.5.7c0 .2.1.5.5.6c.3.2.8.2 1.5.2zm5.7-4.7l-.4-.8c1 0 1.7-.2 2.2-.4c.6-.2.9-.5 1-.9h-2.7v-.8h2.8v-.8h1v.8h2.9v.8h-2.8c.1.4.4.7 1 .9c.5.2 1.2.4 2.2.4l-.3.8c-.8 0-1.5-.2-2.2-.4c-.6-.2-1-.5-1.3-.9c-.3.4-.7.7-1.3.9c-.6.2-1.3.4-2.1.4zm7.6 1.1H55v.8h2.6v2.1h-5.2v.7h5.5v.8h-6.5V26h5.2v-.7h-5.3v-.7h2.7v-.8h-3.6v-.7h8.3v.7zm5-1.4c-1.1 0-1.9-.2-2.4-.4c-.6-.3-.9-.7-.9-1.2c0-.5.3-.9.9-1.2c.5-.3 1.3-.4 2.4-.4c1.1 0 1.9.1 2.4.4c.6.3.9.7.9 1.2c0 .5-.3.9-.9 1.2c-.5.2-1.3.4-2.4.4zm0-2.4c-.7 0-1.3 0-1.6.2c-.4.1-.6.3-.6.6c0 .2.2.4.6.6c.3.1.9.2 1.6.2c.7 0 1.3-.1 1.6-.2c.4-.2.6-.4.6-.6c0-.3-.2-.5-.6-.6c-.3-.2-.9-.2-1.6-.2zm-4.2 2.9h8.4v.8h-8.4v-.8zm2.1 3.7v.8h5.5v.8h-6.6v-2.3h5.3v-.7h-5.3v-.8h6.3v2.2h-5.2zm13.9-2.7h3.6v.8h-8.3v-.8h3.6v-.8h-2.6v-3.8h6.3v.8h-5.2v.7h5v.8h-5v.7h5.3v.8h-2.7v.8zm-.6 1.4c1.1 0 1.9.1 2.4.4c.5.2.8.6.8 1.1c0 .5-.3.8-.8 1.1c-.5.2-1.3.4-2.4.4c-1 0-1.8-.2-2.3-.4c-.6-.3-.8-.6-.8-1.1c0-.5.2-.9.8-1.1c.5-.3 1.3-.4 2.3-.4zm-2.1 1.5c0 .4.7.7 2.1.7c1.5 0 2.2-.3 2.2-.7c0-.5-.7-.7-2.2-.7c-1.4 0-2.1.2-2.1.7zm12.6-6.7v.8H80v-.8h2.2V19h1v1.1h2.2zm1.8 1.9h1.3v.9h-1.3v3.1h-1.1v-6.9h1.1v2.9zm-2.3 1.1c0 .3 0 .5-.1.7c-.1.2-.3.4-.5.6c-.2.1-.4.3-.7.3c-.3.1-.6.2-.9.2c-.3 0-.6-.1-.9-.2c-.3 0-.5-.2-.7-.3c-.2-.2-.4-.4-.5-.6c-.1-.2-.1-.4-.1-.7c0-.2 0-.5.1-.7c.1-.2.3-.4.5-.5c.2-.2.4-.3.7-.4c.3-.1.6-.1.9-.1c.3 0 .6 0 .9.1c.3.1.5.2.7.4c.2.1.4.3.5.5c.1.2.1.5.1.7zm-3.4 0c0 .3.1.5.3.7c.2.2.5.2.9.2c.4 0 .7 0 .9-.2c.2-.2.3-.4.3-.7c0-.3-.1-.5-.3-.7c-.2-.1-.5-.2-.9-.2c-.4 0-.7.1-.9.2c-.2.2-.3.4-.3.7zm.9 2.3v1.8h5.1v.9h-6.2v-2.7h1.1zm17.4-2.7v.9h-1.4v4.7h-1.1v-9.2h1.1v3.6h1.4zm-5.3-2.9s-.04 1.53 0 1.5c0 .4 0 .8.1 1.2c.1.4.3.8.5 1.2c.2.3.4.7.7.9c.2.3.6.5.9.7l-.6.9c-.5-.3-1-.7-1.3-1.1c-.4-.5-.7-1-.9-1.7c-.2.7-.4 1.2-.8 1.8c-.4.5-.9.9-1.4 1.1l-.6-.8c.3-.2.7-.4.9-.7c.3-.3.6-.7.8-1c.2-.4.3-.8.4-1.2c.2-.4.2-.8.2-1.3v-1.5h1.1zm12.4-.8h1.1v9.3h-1.1V19zm-.7 1.1v.9h-5.5v-.9h2.2v-1h1.1v1h2.2zm-2.2 4.7v.9c.4 0 .8-.1 1.2-.1c.4 0 .8-.1 1.2-.1l.1.7c-.5.1-1 .2-1.6.2c-.5.1-1 .1-1.5.1c-.5.1-1 .1-1.5.1h-1.3l-.1-.9h2.4v-.9c-.5-.1-.9-.3-1.2-.6c-.4-.2-.5-.6-.5-1.1c0-.2 0-.5.2-.7c.1-.2.2-.4.4-.5c.2-.2.5-.3.7-.4c.3 0 .6-.1.9-.1c.4 0 .7.1 1 .1c.2.1.5.2.7.4c.2.1.3.3.4.5c.1.2.2.5.2.7c0 .5-.2.9-.5 1.1c-.3.3-.7.5-1.2.6zm-1.8-1.7c0 .3.1.5.3.7c.3.2.6.2.9.2c.4 0 .7 0 .9-.2c.3-.2.4-.4.4-.7c0-.3-.1-.5-.4-.6c-.2-.2-.5-.3-.9-.3c-.3 0-.6.1-.9.3c-.2.1-.3.3-.3.6zm16-4h1.1v5.2h-1.1v-5.2zm-3.9.4c.4 0 .7.1 1 .2c.3.1.5.2.7.4c.3.2.4.4.6.7c.1.3.1.6.1.9c0 .3 0 .6-.1.9c-.2.2-.3.5-.6.7c-.2.1-.4.3-.7.4c-.3.1-.6.2-1 .2c-.4 0-.7-.1-1-.2c-.3-.1-.5-.3-.8-.4c-.2-.2-.3-.5-.5-.7c-.1-.3-.1-.6-.1-.9c0-.3 0-.6.1-.9c.2-.3.3-.5.5-.7c.3-.2.5-.3.8-.4c.3-.1.6-.2 1-.2zm0 .9c-.4 0-.8.1-1 .3c-.3.3-.4.6-.4 1c0 .4.1.7.4.9c.2.3.6.4 1 .4c.4 0 .7-.1 1-.4c.3-.2.4-.5.4-.9c0-.4-.1-.7-.4-1c-.3-.2-.6-.3-1-.3zm-1.1 4.4h6.1v3.3h-6.1v-3.3zm5 .8h-3.9v1.7h3.9v-1.7zm9.5-6.5h1v5.6h-1v-2.4h-1v2.3h-.9v-5.4h.9v2.2h1v-2.3zm-2.3 4.1v.7c-.3.1-.7.2-1.1.2c-.4.1-.8.1-1.2.1h-2.2c.02.04-.1-.8-.1-.8h.8v-2.7h-.6v-.9h4.2v.9h-.7s.03 2.56 0 2.6c.2-.1.3-.1.5-.1h.4zm-2.8-2.5v2.7c.2-.1.3-.1.5-.1h.5c-.03.01 0-2.6 0-2.6h-1zm-.3 5.2v-.8h6.4v3.2h-1.1v-2.4h-5.3zm15.2-2v.9h-6.4v-5h6.3v.8h-5.3v1.2h5.1v.9h-5.1v1.2h5.4zm-7.5 2.4h8.4v.8H130v-.8zm16.7-6.5v.8h-5.2v-.8h2.1v-.8h1v.8h2.1zm3.1 2v.8h-1.3v2.7h-1v-6.2h1v2.7h1.3zm-2.8 2.1l.1.8c-.5.1-1 .1-1.5.2c-.5 0-1 .1-1.5.1h-2.8c.04.05-.1-.8-.1-.8c0 0 1.13.01 1.1 0h1.3v-.6c-.6-.1-1-.2-1.3-.4c-.3-.3-.4-.6-.4-.9c0-.5.2-.8.6-1.1c.4-.2.9-.3 1.6-.3c.7 0 1.2.1 1.6.3c.4.3.6.6.6 1.1c0 .3-.2.6-.5.8c-.3.3-.7.4-1.2.5v.6c.4-.1.8-.1 1.2-.1c.4-.1.8-.1 1.2-.2zm-4.1-1.6c0 .2.1.3.3.4c.2.1.5.2.9.2c.4 0 .6-.1.9-.2c.2-.1.3-.2.3-.4c0-.3-.1-.4-.3-.5c-.3-.2-.5-.2-.9-.2c-.4 0-.7 0-.9.2c-.2.1-.3.2-.3.5zm-.5 4.2v-.8h6.1v2.6h-1v-1.8h-5.1zm15.3-4.7h1.3v.9h-1.3v3.1h-1.1V19h1.1v2.8zm-1.8 1.8l-.5.8c-.5-.2-1-.4-1.3-.8c-.4-.3-.7-.7-.9-1.2c-.2.5-.5 1-.9 1.3c-.3.4-.8.7-1.3.9l-.6-.8c.4-.1.7-.3 1-.5c.2-.2.5-.5.7-.8c.2-.2.3-.5.4-.8c.1-.4.2-.7.2-1c-.05-.02 0-1.1 0-1.1h1s.01 1.09 0 1.1c0 .3.1.6.2.9c.1.3.2.6.4.8c.2.3.4.5.7.7c.3.2.6.3.9.5zm-3 1.6v2h5.1v.9h-6.1v-2.9h1zm15.3-2.4v.9h-1.4v4.6h-1.1v-9.2h1.1v3.7h1.4zm-3.7 1.4l-1-.1c.1-.7.1-1.3.2-1.8v-1.4c.01-.03-3.6 0-3.6 0v-.9h4.6s.04.63 0 .6v1.5c0 .6-.1 1.3-.2 2.1zm-2.1-1.5s.02 2.71 0 2.7c.5 0 1 0 1.5-.1c.4 0 .9 0 1.3-.1l.1.8c-.5 0-1 .1-1.5.2c-.4 0-.9 0-1.4.1h-2.7l-.1-.8h.9c.3-.1.6-.1.9-.1v-2.7h1zm15-3.6h1.1v9.2h-1.1v-9.2zm-3.1 1.7s.02.91 0 .9c0 .4.1.8.2 1.2c.1.3.3.7.5 1c.2.4.4.6.7.9c.3.3.6.5 1 .6l-.6.9c-.5-.3-1-.6-1.4-1.1c-.4-.5-.7-1-.9-1.6c-.2.6-.5 1.2-.9 1.7c-.4.6-.9.9-1.4 1.2l-.6-.8c.3-.2.7-.4 1-.7c.2-.3.5-.6.7-1c.2-.3.4-.7.5-1.1c.1-.4.2-.8.2-1.2c-.04.01 0-.9 0-.9h-2.1v-.8h5.2v.8h-2.1zm13.6 1.2l-.4.8c-.7-.1-1.4-.3-1.9-.7c-.6-.3-1.1-.7-1.4-1.2c-.3.5-.7.9-1.3 1.2c-.5.4-1.2.6-2 .7l-.3-.8l1.2-.3c.4-.2.7-.4 1-.6c.3-.2.5-.5.7-.7c.1-.3.2-.6.2-.8v-.4h1.1v.4c0 .2.1.5.2.8c.2.3.4.5.7.7c.3.2.6.4 1 .6l1.2.3zm-3.1 1.6h3.6v.8h-8.3v-.8h3.6v-1.3h1.1v1.3zm-3.8 2.5v-.9h6.4v3.1h-1v-2.2H181zm16.8-3.4v.9h-1.4v4.7h-1V19h1v3.7h1.4zm-8.1-2.7s4.3.02 4.3 0c0 .7-.1 1.3-.2 2c-.2.6-.4 1.2-.7 1.7c-.4.6-.8 1.1-1.3 1.6c-.6.5-1.2.9-1.9 1.3l-.6-.8c2.2-1.2 3.4-2.8 3.7-4.9c-.05-.02-3.3 0-3.3 0v-.9zm16.1 1.5v.8h-6.2v-3.1h1v2.3h5.2zm-7.3 1.8h8.3v.8h-8.3v-.8zm4.1 1.5c1 0 1.8.2 2.4.5c.5.3.8.7.8 1.2c0 .6-.3 1-.9 1.3c-.5.3-1.3.4-2.3.4c-.5 0-.9 0-1.3-.1c-.4 0-.8-.2-1-.3c-.3-.1-.5-.3-.7-.5c-.1-.2-.2-.5-.2-.8c0-.5.3-.9.9-1.2c.5-.3 1.3-.5 2.3-.5zm0 2.6c.7 0 1.2 0 1.6-.2c.3-.1.5-.4.5-.7c0-.2-.2-.5-.5-.6c-.4-.2-.9-.2-1.6-.2c-.7 0-1.2 0-1.6.2c-.3.1-.5.4-.5.6c0 .3.2.6.5.7c.4.2.9.2 1.6.2zm10.5-7.3v.8h-5.4v-.8h2.1V19h1.1v1.1h2.2zm1.7 1.9h1.3v.9h-1.3v3.1h-1v-6.9h1v2.9zm-2.2 1.1c0 .3-.1.5-.2.7c-.1.2-.2.4-.4.6c-.2.1-.5.3-.7.3c-.3.1-.6.2-.9.2c-.4 0-.7-.1-.9-.2c-.3 0-.6-.2-.7-.3c-.2-.2-.4-.4-.5-.6c-.1-.2-.2-.4-.2-.7c0-.2.1-.5.2-.7c.1-.2.3-.4.5-.5c.1-.2.4-.3.7-.4c.2-.1.5-.1.9-.1c.3 0 .6 0 .9.1c.2.1.5.2.7.4c.2.1.3.3.4.5c.1.2.2.5.2.7zm-3.5 0c0 .3.2.5.4.7c.2.2.5.2.9.2c.3 0 .6 0 .9-.2c.2-.2.3-.4.3-.7c0-.3-.1-.5-.3-.7c-.3-.1-.6-.2-.9-.2c-.4 0-.7.1-.9.2c-.2.2-.4.4-.4.7zm1 2.3v1.8h5.1v.9H209v-2.7h1.1zm15.3-6.3h1.1v9.2h-1.1v-9.2zm-6 .9s4.39.02 4.4 0c0 .7-.1 1.4-.2 2c-.2.6-.4 1.2-.8 1.8c-.3.5-.7 1-1.3 1.5c-.5.5-1.2.9-2 1.3l-.5-.8c1.2-.6 2.1-1.3 2.7-2.1c.6-.8.9-1.8 1-2.8c.01-.02-3.3 0-3.3 0v-.9zm15.3-.9h1v4.9h-1v-2s-1.74.03-1.7 0c-.1.3-.2.5-.3.7c-.2.3-.3.4-.5.6c-.2.1-.5.3-.7.3c-.3.1-.6.2-.9.2c-.3 0-.7-.1-.9-.2c-.3-.1-.6-.2-.8-.4c-.2-.2-.4-.4-.5-.7c-.1-.3-.2-.6-.2-.9c0-.3.1-.6.2-.9c.1-.2.3-.4.5-.6c.2-.2.5-.4.8-.5c.2-.1.6-.1.9-.1c.3 0 .6 0 .9.1c.2.1.4.2.7.3c.2.2.3.4.5.6c.1.2.2.4.3.7c-.04-.03 1.7 0 1.7 0v-2.1zm-4.1 3.8c.2 0 .4 0 .6-.1c.1 0 .3-.1.4-.3c.1-.1.2-.2.3-.4c.1-.1.1-.3.1-.5c0-.4-.1-.7-.4-.9c-.2-.3-.6-.4-1-.4c-.4 0-.7.1-1 .4c-.3.2-.4.5-.4.9c0 .4.1.7.4.9c.3.3.6.4 1 .4zm4.1 2.6v-1.1h1v3.7h-6v-3.7h1.1v1.1h3.9zm0 1.8v-1h-3.9v1h3.9zm10.5-5v2.1h-1v-5.2h1v2.2h.9v-2.3h1v5.6h-1v-2.4h-.9zm-1.2 1l-.6.8c-.4-.2-.8-.4-1-.7c-.3-.3-.6-.6-.7-1c-.2.4-.4.8-.7 1.1c-.3.4-.7.6-1.2.8l-.5-.8c.3-.1.6-.3.8-.5c.2-.2.4-.4.6-.7c.1-.2.3-.5.3-.7c.1-.3.1-.6.1-.8c.05-.03 0-1.2 0-1.2h1.1s-.03 1.17 0 1.2c0 .2 0 .5.1.7c.1.3.2.5.3.7l.6.6c.2.2.5.4.8.5zm.1 1.6c.4 0 .9 0 1.3.1c.3.1.7.2.9.3c.3.2.5.4.7.6c.1.2.2.4.2.7c0 .2-.1.5-.2.7c-.2.2-.4.4-.7.5c-.2.2-.6.3-.9.3c-.4.1-.9.2-1.3.2c-.5 0-.9-.1-1.3-.2c-.4 0-.7-.1-1-.3c-.3-.1-.5-.3-.6-.5c-.2-.2-.3-.5-.3-.7c0-.3.1-.5.3-.7c.1-.2.3-.4.6-.6c.3-.1.6-.2 1-.3c.4-.1.8-.1 1.3-.1zm0 2.6c.6 0 1.1-.1 1.5-.3c.4-.1.5-.3.5-.6c0-.3-.1-.5-.5-.7c-.4-.1-.9-.2-1.5-.2c-.7 0-1.2.1-1.6.2c-.3.2-.5.4-.5.7c0 .3.2.5.5.6c.4.2.9.3 1.6.3zm11.3-8.4h1v9.2h-1v-4.8h-1v4.3h-1v-8.6h1v3.5h1v-3.6zm-5.5 4.2s-.04 1.89 0 1.9h.8c.2 0 .5 0 .7-.1h.7c.2 0 .4-.1.7-.1l.1.8c-.3.1-.6.1-.8.2h-1.6c-.3.1-.7.1-1 .1c-.03-.04-.7 0-.7 0v-6h3.7v.8h-2.6v1.6h2.5v.8h-2.5zm14.7-4.2h1v9.2h-1v-9.2zm-1.9 2.4v-2.2h1v8.5h-1v-3.1h-1.5v-.8h1.5v-1.5h-1.3c-.2.8-.6 1.5-1.1 2.2c-.5.6-1.2 1.2-2.1 1.7l-.6-.7c1-.6 1.7-1.3 2.2-2c.5-.8.7-1.6.8-2.6c.01.03-2.5 0-2.5 0v-.8s3.55-.02 3.5 0v.7c0 .2 0 .4-.1.6c.05.04 1.2 0 1.2 0zm14.6 2v.9h-3.7v3.9h-1v-3.9H269v-.9s5.95.05 6 0c.1-.6.2-1.2.2-1.7v-1.3c.02-.04-5.2 0-5.2 0v-.9h6.2s.05.82 0 .8v1.4c0 .5-.1 1.1-.2 1.7c.01.05 1.3 0 1.3 0zm1.6-.3l-.3-.8c.9-.1 1.7-.2 2.2-.6c.6-.3.9-.6.9-1c0-.05-2.7 0-2.7 0v-.9h2.8v-.9h1v.9h2.8v.9s-2.7-.05-2.7 0c.1.4.3.7.9 1.1c.5.3 1.3.4 2.2.5l-.3.8c-.8-.1-1.5-.2-2.1-.5c-.6-.2-1-.6-1.3-1c-.3.4-.7.8-1.3 1c-.6.3-1.3.4-2.1.5zm7.6 1.3h-3.7v.9h2.6v2.9h-1v-2h-5.3v-.9h2.7v-.9h-3.7v-.9h8.4v.9zm.6-4.7v-1.3h1.2v1.3c0 .3-.1.7-.3.9c-.2.3-.5.4-.9.5v-.6c.2 0 .4-.1.5-.3c0-.1.1-.3.1-.5c-.02-.04-.6 0-.6 0zm9-.7h1v9.2h-1v-9.2zm-1.9 3.4v-3.3h1v8.6h-1v-4.4h-1c0 .5-.1.9-.2 1.2c-.1.4-.2.7-.4.9c-.1.3-.3.5-.6.6c-.2.1-.5.2-.7.2c-.3 0-.6-.1-.8-.2c-.3-.2-.5-.4-.7-.7c-.1-.3-.3-.6-.4-1c-.1-.4-.1-.9-.1-1.4c0-.5 0-.9.1-1.3c.1-.4.3-.8.4-1.1c.2-.2.4-.5.7-.6c.2-.2.5-.2.8-.2c.5 0 1 .2 1.3.7c.4.5.6 1.2.6 2c.02.04 1 0 1 0zm-2.9 2.8c.3 0 .5-.2.7-.6c.2-.4.3-.9.3-1.7c0-.7-.1-1.3-.3-1.7c-.2-.4-.4-.5-.7-.5c-.4 0-.6.1-.8.5c-.2.4-.3 1-.3 1.7c0 .8.1 1.3.3 1.7c.2.4.4.6.8.6zM307 19h1.1v5.5H307v-2.3h-1.6v-.8h1.6V19zm-1.1 4.4l-.5.8c-.5-.1-.9-.4-1.3-.7c-.4-.4-.6-.8-.8-1.2c-.2.5-.5.9-.9 1.3c-.4.4-.9.6-1.4.8l-.6-.8c.4-.1.7-.3 1-.5c.3-.2.5-.4.7-.7c.2-.3.3-.5.5-.8c.1-.3.1-.6.1-.9v-.2h-1.9v-.9h4.9v.9h-1.9s-.04.14 0 .1c0 .3 0 .6.1.9c.1.3.2.5.4.8c.2.2.4.4.7.6c.3.2.6.4.9.5zm-4 2.5v-.9h6.2v3.3H307v-2.4h-5.1zm14.8-3c.03-.03 1.3 0 1.3 0v.8h-8.4v-.8s6.07-.03 6.1 0c.1-.6.1-1 .2-1.5v-1.1c0 .03-5.2 0-5.2 0v-.8h6.2s.03.61 0 .6v1.2c0 .4-.1 1-.2 1.6zm-6.2 2.9v-.8h6.5v3.3h-1.1v-2.5h-5.4zm18.9-3.2v.9H328v4.8h-1v-9.2h1v3.5h1.4zm-7.1-2.7s-.04 5.19 0 5.2c.6 0 1.2 0 1.9-.1l2-.3l.1.9l-2.2.3c-.7 0-1.4.1-2.1.1c-.03-.03-.8 0-.8 0v-6.1h1.1zm14.4-.9h1v9.3h-1v-5.4h-2v-.8h2V19zm-3.3.8v1.5c0 .4.1.9.2 1.3c.1.4.2.8.4 1.1c.2.4.5.7.7 1c.3.3.6.5 1 .7l-.6.8c-.6-.3-1-.6-1.4-1.1c-.3-.5-.6-1-.8-1.7c-.2.7-.5 1.3-.9 1.8c-.3.5-.8.9-1.3 1.2l-.7-.9c.4-.2.7-.4 1-.7c.3-.3.5-.6.7-1c.2-.4.4-.8.5-1.2c.1-.4.1-.9.1-1.3c.05.02 0-1.5 0-1.5h1.1zm12.2 1c.02.02 0 0 0 0h-5.5v-.9h6.6s-.02.92 0 .9v.9c0 .3 0 .6-.1 1c0 .3 0 .7-.1 1.1c0 .4-.1.9-.2 1.3l-1-.1c.1-.9.2-1.7.3-2.3v-1.9zm-2.2 5.4h4.2v.9h-8.3v-.9h3.1v-3.3h1v3.3zm14.7-7.1v5.2H357v-5.2h1.1zm-5 4.8c-.3 0-.6 0-.9-.2c-.3-.1-.6-.2-.8-.4c-.2-.2-.4-.4-.5-.7c-.2-.3-.2-.5-.2-.9c0-.3 0-.6.2-.8c.1-.3.3-.5.5-.7c.2-.2.5-.4.8-.5c.3-.1.6-.1.9-.1c.4 0 .7 0 1 .1c.3.1.6.3.8.5c.2.2.4.4.5.7c.1.2.2.5.2.8c0 .4-.1.6-.2.9c-.1.3-.3.5-.5.7c-.2.2-.5.3-.8.4c-.3.2-.6.2-1 .2zm0-3.5c-.4 0-.7.1-1 .4c-.3.2-.4.5-.4.9c0 .4.1.8.4 1c.3.2.6.3 1 .3c.4 0 .8-.1 1-.3c.3-.2.5-.6.5-1c0-.4-.2-.7-.5-.9c-.2-.3-.6-.4-1-.4zm4 4.3s.02.4 0 .4c0 .2.1.5.1.7c.1.2.2.4.4.6c.1.2.3.4.5.6c.3.1.5.3.8.4l-.5.7c-.5-.1-.8-.3-1.1-.6c-.3-.3-.6-.6-.7-1c-.2.4-.4.7-.6 1c-.3.3-.7.5-1.1.7c-.4-.1-.8-.4-1.1-.7c-.2-.3-.4-.6-.6-1c-.2.4-.4.7-.7 1c-.3.3-.6.5-1.1.6l-.5-.7c.3-.1.6-.3.8-.4l.6-.6l.3-.6c.1-.3.1-.5.1-.7v-.4h1s.02.4 0 .4c0 .4.1.8.3 1.2c.2.3.5.7.9.9c.2-.1.4-.3.5-.5c.2-.1.3-.3.4-.5c.1-.2.2-.4.2-.6c.1-.2.1-.3.1-.5v-.4h1zm10.5-2.9l-.4.8c-.8-.1-1.4-.3-2-.6c-.6-.3-1-.7-1.3-1.2c-.4.5-.8.9-1.4 1.2c-.6.3-1.2.5-2 .6l-.4-.8c.5-.1.9-.2 1.3-.3c.4-.2.7-.3 1-.5c.3-.2.5-.5.7-.7c.1-.3.2-.5.2-.8v-.4h1.1v.4c0 .3.1.5.2.8c.2.2.4.5.7.7c.3.2.6.3 1 .5c.4.1.8.2 1.3.3zm-7.9 1.4h8.3v.8h-8.3v-.8zm6.2 2.3v-.9h1.1v3.5h-6.3v-3.5h1.1v.9h4.1zm0 1.8v-1h-4.1v1h4.1zm9.5-8.2h1.1v9.2h-1.1v-9.2zm-4.9.8s-.05 5.14 0 5.1c.6 0 1.3 0 2-.1c.6 0 1.3-.1 2.1-.3l.1.9c-.8.2-1.6.3-2.3.3c-.8.1-1.5.1-2.2.1c0 .04-.8 0-.8 0v-6h1.1zm16.1 2.7v.9h-1.4v4.8h-1.1V19h1.1v3.6h1.4zm-7.1-1.8s-.03 4.33 0 4.3h2c.6-.1 1.2-.2 1.9-.3l.1.9c-.4.1-.7.1-1 .2h-1.1c-.3.1-.7.1-1 .1h-2v-6.1h4.3v.9h-3.2zm8.9 5.5v1.3h-1.2v-1.3h1.2z" stroke="none" fill="#fff"/></g><g id="Polygon34290"><path d="m5.7 1.6v.8H.5v-.8h2.1V.5h1.1v1.1h2zm1.4 6V5.7H5.7v-.8h1.4V3.8H5.7v-.9h1.4V.6h1v7h-1zM5.3 4.7c0 .2-.1.5-.2.7c-.1.2-.2.4-.4.5c-.2.2-.4.3-.7.4c-.3.1-.5.1-.9.1c-.3 0-.6 0-.8-.1c-.3-.1-.5-.2-.7-.4c-.2-.1-.3-.3-.4-.5c-.1-.2-.2-.5-.2-.7c0-.3.1-.6.2-.8c.1-.2.2-.4.4-.5c.2-.2.4-.3.7-.4c.2-.1.5-.1.8-.1c.4 0 .6 0 .9.1c.3.1.5.2.7.4c.2.1.3.3.4.5c.1.2.2.5.2.8zM2 4.7c0 .3.1.5.3.7c.2.1.5.2.8.2c.4 0 .7-.1.9-.2c.2-.2.3-.4.3-.7c0-.4-.1-.6-.3-.8c-.2-.1-.5-.2-.9-.2c-.3 0-.6.1-.8.2c-.2.2-.3.4-.3.8zm1.2 4h5.2v.9H2.2V7h1v1.7zM16.6.5h1v9.3h-1V5h-1.1v4.3h-1V.7h1v3.5h1.1V.5zm-5.6 2s.04 4.2 0 4.2c.6 0 1.1 0 1.5-.1c.4 0 .9-.1 1.4-.2l.1.9c-.3.1-.6.1-.8.1c-.3.1-.6.1-.8.1c-.3 0-.6.1-.9.1h-.9c.02-.03-.6 0-.6 0v-6h3.4v.9H11zm16.4 1.7v.8H26v4.8h-1V.6h1v3.6h1.4zm-5.3-1.9v.9c0 .4.1.7.2 1.1c.1.4.2.7.4 1.1c.2.3.5.6.8.9c.2.3.6.5.9.6l-.6.9c-.5-.3-.9-.6-1.3-1.1c-.4-.5-.7-1-.9-1.6c-.2.6-.5 1.2-.9 1.7c-.4.6-.9.9-1.4 1.2l-.6-.8c.4-.2.7-.4 1-.7c.3-.3.5-.6.7-1c.2-.3.4-.7.5-1.1c.1-.4.2-.8.2-1.2c-.05.02 0-.9 0-.9H19v-.8h5.1v.8h-2zM32.8 5h3.6v.9h-8.3v-.9h3.6v-.9h-2.6V1h6.3v.8h-5.3v1.4h5.3v.9h-2.6v.9zm-.6 1.4c1 0 1.8.2 2.3.5c.6.2.9.7.9 1.2c0 .5-.3.9-.8 1.2c-.6.3-1.4.5-2.4.5c-.5 0-.9-.1-1.3-.1c-.4-.1-.8-.2-1-.4c-.3-.1-.5-.3-.7-.5c-.1-.2-.2-.4-.2-.7c0-.3.1-.5.2-.7c.2-.2.4-.4.7-.5c.2-.2.6-.3 1-.4c.4 0 .8-.1 1.3-.1zm0 2.6c.7 0 1.2-.1 1.6-.3c.3-.1.5-.3.5-.6c0-.3-.2-.5-.5-.7c-.4-.1-.9-.2-1.6-.2c-.7 0-1.2.1-1.6.2c-.3.2-.5.4-.5.7c0 .3.2.5.5.6c.4.2.9.3 1.6.3zm13.6-4.8v.9h-1.4v4.7h-1.1V.5h1.1v3.7h1.4zm-5.4-1.3s.02.58 0 .6c0 .3.1.7.2 1c.1.4.2.7.4 1c.2.4.4.6.7.9c.3.3.6.5.9.6l-.6.9c-.5-.3-.9-.6-1.3-1.1c-.3-.4-.6-.9-.8-1.5c-.2.6-.5 1.2-.9 1.6c-.3.5-.8.9-1.3 1.1l-.6-.8c.4-.2.7-.4 1-.6c.2-.3.5-.6.7-.9c.2-.4.3-.7.4-1.1c.1-.4.2-.7.2-1.1c-.03-.02 0-.6 0-.6h-2v-.8h2V.7h1v1.4h2v.8h-2zm13.4.3v.8h-6.3V.9h1v2.3h5.3zm-7.4 2h8.4v.8h-8.4v-.8zm2.1 1.6v1.9h5.4v.9h-6.5V6.8h1.1zM65.3.6v6.6h-1.1V.6h1.1zm-2.6 2.9c0 .3 0 .6-.1.9c-.2.3-.3.5-.6.7c-.2.2-.4.4-.7.5c-.3.1-.7.2-1 .2c-.3 0-.7-.1-1-.2c-.3-.1-.5-.3-.7-.5c-.3-.2-.4-.4-.6-.7c-.1-.3-.1-.6-.1-.9c0-.4 0-.7.1-1c.2-.2.3-.5.6-.7c.2-.2.4-.4.7-.5c.3-.1.7-.1 1-.1c.3 0 .7 0 1 .1c.3.1.5.3.7.5c.3.2.4.5.6.7c.1.3.1.6.1 1zm-3.8 0c0 .4.1.7.4 1c.3.2.6.4 1 .4c.2 0 .4-.1.6-.1c.1-.1.3-.2.4-.3c.1-.1.2-.3.3-.5c.1-.1.1-.3.1-.5c0-.2 0-.4-.1-.6c-.1-.2-.2-.3-.3-.5c-.1-.1-.3-.2-.4-.2c-.2-.1-.4-.1-.6-.1c-.4 0-.7.1-1 .3c-.3.3-.4.6-.4 1.1zm1.4 5.2h5.2v.9h-6.2v-3h1v2.1zm12.8-6.1v-.9h-5.3v-.8h6.4v2.5h-5.3v.9h5.5v.9h-6.5V2.6h5.2zM75.2 6v.8h-2.1v3h-1v-3H70v3h-1.1v-3h-2v-.8h8.3zM82.6.5h1v9.3h-1V.5zm-3.6.7c.4 0 .7 0 1 .2c.3.1.6.2.8.4c.2.2.4.4.5.7c.2.3.2.6.2.9c0 .3 0 .6-.2.9c-.1.3-.3.5-.5.7c-.2.2-.5.3-.8.5c-.3.1-.6.1-1 .1c-.4 0-.7 0-1-.1c-.3-.2-.6-.3-.8-.5c-.2-.2-.4-.4-.5-.7c-.1-.3-.2-.6-.2-.9c0-.3.1-.6.2-.9c.1-.3.3-.5.5-.7c.2-.2.5-.3.8-.4c.3-.2.6-.2 1-.2zm0 .9c-.4 0-.8.1-1 .3c-.3.3-.5.6-.5 1c0 .4.2.7.5 1c.2.2.6.3 1 .3c.4 0 .8-.1 1.1-.3c.2-.3.4-.6.4-1c0-.4-.2-.7-.4-1c-.3-.2-.7-.3-1.1-.3zm-2.8 5.7l-.1-.8h1.3c.5-.1 1-.1 1.5-.1c.5 0 1.1 0 1.6-.1c.5 0 1-.1 1.5-.1l.1.7c-.5.1-1 .2-1.6.2c-.5.1-1 .1-1.5.2h-2.8zm16.9-4v2.2h-.9V.7h.9v2.2h1V.5h1v5.9h-1V3.8h-1zm-1.3-2.2v.8h-4.5v-.8h1.7v-1h1.1v1h1.7zm-.3 2.8c0 .2 0 .5-.1.6c-.1.2-.2.4-.4.6l-.6.3c-.3.1-.6.1-.8.1c-.3 0-.6 0-.8-.1c-.3-.1-.5-.2-.7-.3c-.1-.2-.3-.4-.4-.6c-.1-.1-.1-.4-.1-.6c0-.2 0-.5.1-.7c.1-.1.3-.3.4-.5c.2-.1.4-.2.7-.3c.2-.1.5-.1.8-.1c.2 0 .5 0 .8.1l.6.3c.2.2.3.4.4.5c.1.2.1.5.1.7zm-3 0c0 .2.1.4.3.6c.2.1.4.2.8.2c.3 0 .5-.1.7-.2c.2-.2.3-.4.3-.6c0-.3-.1-.5-.3-.6c-.2-.2-.4-.2-.7-.2c-.4 0-.6 0-.8.2c-.2.1-.3.3-.3.6zM92 6.5c1 0 1.8.1 2.3.4c.6.3.8.7.8 1.2c0 .5-.2 1-.8 1.2c-.5.3-1.3.5-2.3.5c-1 0-1.7-.2-2.3-.5c-.5-.2-.8-.7-.8-1.2c0-.5.3-.9.8-1.2c.6-.3 1.3-.4 2.3-.4zM92 9c1.4 0 2.1-.3 2.1-.9c0-.5-.7-.8-2.1-.8c-.6 0-1.1.1-1.5.2c-.4.1-.5.3-.5.6c0 .3.1.5.5.7c.4.1.9.2 1.5.2zm9.2-3.8h3.6v.9h-8.3v-.9h3.6v-.9h-2.5V.8h1v.9h4.1v-.9h1v3.5h-2.5v.9zm-2.6-2.7v.9h4.1v-.9h-4.1zm-1.2 5.2v-.9h6.4v3h-1.1V7.7h-5.3zm12.4-3.8c-1 0-1.9-.2-2.4-.4c-.6-.3-.9-.7-.9-1.2c0-.5.3-.9.9-1.2c.5-.3 1.4-.4 2.4-.4c1.1 0 1.9.1 2.5.4c.5.3.8.7.8 1.2c0 .5-.3.9-.8 1.2c-.6.2-1.4.4-2.5.4zm0-2.4c-.7 0-1.2 0-1.6.2c-.4.1-.6.3-.6.6c0 .2.2.4.6.6c.4.1.9.2 1.6.2c.7 0 1.3-.1 1.7-.2c.3-.2.5-.4.5-.6c0-.3-.2-.5-.5-.6c-.4-.2-1-.2-1.7-.2zm-4.1 2.9h8.3v.8h-8.3v-.8zm2 3.7v.8h5.5v.8h-6.5V7.4h5.2v-.7h-5.3v-.8h6.3v2.2h-5.2zM123.5.5h1v9.3h-1V.5zm-1.3 5.1l-.9-.1c.1-.7.2-1.3.2-1.8V2.4c.01.03-1.6 0-1.6 0v-.8h2.6s-.03.63 0 .6c0 .4 0 .9-.1 1.5c0 .5 0 1.2-.2 1.9zm-3.3.1l-1-.2c.2-.7.3-1.2.4-1.7c.1-.5.1-1 .1-1.4c-.02.03-1.2 0-1.2 0v-.8h2.1s.04.53 0 .5v1c0 .3 0 .5-.1.8c0 .3 0 .6-.1.9c0 .3-.1.6-.2.9zm1.7-1.4s-.05 2.63 0 2.6c.4 0 .8 0 1.2-.1c.4 0 .8 0 1.2-.1v.8c-.5.1-1 .1-1.5.2c-.5 0-1.1.1-1.6.1h-1.5c-.4.1-.9.1-1.3.1L117 7h2.6c-.02-.03 0-2.7 0-2.7h1zm14.1 0v.8h-1.4v4.7h-1.1V.6h1.1v3.7h1.4zM129.3.7v1.3h2.1v.8h-5.3v-.8h2.1V.7h1.1zm-.5 2.8c.3 0 .6 0 .9.1c.3.1.5.3.7.5c.2.2.4.4.5.7c.1.2.2.5.2.8c0 .3-.1.6-.2.9c-.1.3-.3.5-.5.7c-.2.2-.4.3-.7.4c-.3.1-.6.2-.9.2c-.3 0-.7-.1-.9-.2c-.3-.1-.6-.2-.8-.4c-.2-.2-.3-.4-.4-.7c-.1-.3-.2-.6-.2-.9c0-.3.1-.6.2-.8c.1-.3.2-.5.4-.7c.2-.2.5-.4.8-.5c.2-.1.6-.1.9-.1zm0 3.4c.4 0 .7-.1.9-.3c.2-.3.4-.6.4-1c0-.4-.2-.7-.4-.9c-.2-.2-.5-.4-.9-.4c-.4 0-.7.2-.9.4c-.3.2-.4.5-.4.9c0 .4.1.7.4 1c.2.2.5.3.9.3zm13.9-3.7v.8h-6.3V.9h1v2.3h5.3zm-7.4 2h8.3v.8h-8.3v-.8zm2 1.6v1.9h5.4v.9h-6.4V6.8h1zm10.4-5.4v1.3h-1.2V1.4c0-.4.1-.7.3-.9c.2-.3.5-.5.9-.5v.6c-.2 0-.4.1-.5.2c-.1.2-.1.4-.1.6h.6zm8.7 3.6l-.5.9l-1-.3c-.4-.2-.7-.4-1-.6c-.3-.2-.6-.5-.8-.7l-.6-.9c-.1.3-.3.6-.5.9c-.3.2-.5.5-.8.7c-.3.2-.6.4-1 .6c-.3.1-.7.2-1.1.3l-.4-.9c.4 0 .9-.2 1.3-.4c.4-.2.7-.5 1-.7c.3-.3.5-.6.7-1c.2-.3.3-.7.3-1.1c-.02.04 0-.7 0-.7h1.1v.7c0 .4.1.8.3 1.1c.1.4.4.7.7 1c.3.3.6.5 1 .7c.4.2.8.4 1.3.4zm-8 2.7h8.3v.9h-8.3v-.9zm17.7-3.5v.8h-1.4v4.8h-1V.6h1v3.6h1.4zm-8.2 3.3V1.4h4.3v6.1h-4.3zm1-5.2v4.3h2.3V2.3h-2.3zm15.3 3.1v.9h-6.4v-5h6.3v.8h-5.2v1.2h5v.9h-5v1.2h5.3zm-7.4 2.4h8.3v.8h-8.3v-.8zm15.9 0h3.7v.8H178v-.8h3.7V5.7h-2.8V1.3h6.5v4.4h-2.7v2.1zM180 2.1v2.8h4.4V2.1H180zM194.8.5v4.8h-1.1V.5h1.1zm-2.7.4v4.1h-4.4V.9h1v1.2h2.3V.9h1.1zM191 4.1V2.9h-2.3v1.2h2.3zm-1.2 4.8h5.3v.8h-6.3V7.3h4.9v-.7h-4.9v-.8h6v2.3h-5v.8zM202.9.5h1.1v9.3h-1.1V.5zM198 4.8s-.04 1.92 0 1.9c.7 0 1.4 0 2.1-.1c.6 0 1.3-.1 2.1-.2l.1.9c-.4 0-.8.1-1.2.1c-.4.1-.7.1-1.1.1c-.4.1-.8.1-1.1.1h-2V3.9h3.2V2.2h-3.2v-.8h4.3v3.4H198zM212.1.5h1.1v9.3h-1.1V.5zm-4.9 4.3s-.05 1.95 0 2c.3 0 .7-.1 1-.1h1c.4 0 .7-.1 1-.1c.3 0 .6-.1 1-.1l.1.8c-.4.1-.7.1-1.1.2c-.3 0-.7 0-1 .1h-3.1V1.3h4.5v.9h-3.4v1.7h3.1v.9h-3.1zm17.5-1.7l-.4.7c-.7 0-1.4-.2-2-.5c-.6-.3-1-.7-1.3-1.2c-.3.5-.8.9-1.4 1.2c-.5.3-1.2.5-2 .5l-.3-.7c.4-.1.9-.2 1.2-.3c.4-.1.8-.3 1.1-.5l.6-.6c.2-.3.2-.5.2-.8c.03-.01 0-.3 0-.3h1.1v.3c0 .3.1.5.2.8c.2.2.4.4.7.6c.3.2.6.4 1 .5c.4.1.8.2 1.3.3zm-3.2 1.3h3.7v.9h-8.4v-.9h3.6V3.3h1.1v1.1zm-2.6 3.7v.8h5.5v.8h-6.6V7.4h5.3v-.7h-5.3v-.8h6.3v2.2h-5.2zm13.4-5.5v-.9H227v-.8h6.4v2.5h-5.3v1h5.5v.9H227V2.6h5.3zm2 3.5v.9h-3.6v2.8h-1.1V7H226v-.9h8.3zm7.5 1.3V4.5H240v-.8h1.8v-1H240v-.9h1.8V.6h1v6.8h-1zm-1.2-2.1l-.6.8c-.5-.2-.9-.5-1.2-.8c-.4-.4-.7-.8-.9-1.3c-.2.5-.4 1-.8 1.4c-.4.4-.8.7-1.4.9l-.5-.9c.3-.1.6-.3.9-.5c.3-.2.5-.5.7-.8c.2-.2.3-.6.4-.9c.1-.3.2-.6.2-1c-.01 0 0-1.1 0-1.1h1.1s-.04 1.1 0 1.1c0 .3 0 .7.1 1c.1.3.2.6.4.8c.2.3.4.6.7.8c.3.2.6.4.9.5zm-2.7 3.4h5.1v.9h-6.2V6.7h1.1v2zm6.2-7.4V0h1.2s.04 1.26 0 1.3c0 .3-.1.7-.3.9c-.2.3-.5.4-.9.5v-.6c.3 0 .4-.1.5-.3c.1-.1.1-.3.1-.5c.02-.04-.6 0-.6 0zm10.8-.7h1v9.2h-1V.6zm-6.1.9s4.39.02 4.4 0c0 .7-.1 1.4-.2 2c-.2.6-.4 1.2-.7 1.8c-.4.5-.8 1-1.4 1.5c-.5.5-1.2.9-2 1.3l-.5-.8c1.2-.6 2.1-1.3 2.7-2.1c.6-.8.9-1.8 1-2.8c.01-.02-3.3 0-3.3 0v-.9zm15.3-.9h1v4.9h-1v-2s-1.74.03-1.7 0c-.1.3-.2.5-.3.7c-.1.3-.3.4-.5.6c-.2.1-.5.3-.7.3c-.3.1-.6.2-.9.2c-.3 0-.6-.1-.9-.2c-.3-.1-.6-.2-.8-.4c-.2-.2-.4-.4-.5-.7c-.1-.3-.2-.6-.2-.9c0-.3.1-.6.2-.9c.1-.2.3-.4.5-.6c.2-.2.5-.4.8-.5c.3-.1.6-.1.9-.1c.3 0 .6 0 .9.1c.2.1.5.2.7.3c.2.2.3.4.5.6c.1.2.2.4.3.7c-.04-.03 1.7 0 1.7 0V.6zM260 4.4c.2 0 .4 0 .6-.1c.1 0 .3-.1.4-.3c.1-.1.2-.2.3-.4c.1-.1.1-.3.1-.5c0-.4-.1-.7-.4-.9c-.2-.3-.6-.4-1-.4c-.4 0-.7.1-1 .4c-.2.2-.4.5-.4.9c0 .4.2.7.4.9c.3.3.6.4 1 .4zm4.1 2.6V5.9h1v3.7h-6V5.9h1.1v1.1h3.9zm0 1.8v-1h-3.9v1h3.9zm6.7-7.7c.5 0 1 0 1.4.2c.4.1.7.3 1 .5c.3.2.6.5.8.8c.1.3.2.7.2 1.1c0 .4-.1.7-.2 1c-.2.4-.5.6-.8.9c-.3.2-.6.4-1 .5c-.4.1-.9.2-1.4.2c-.4 0-.9-.1-1.3-.2c-.4-.1-.8-.3-1.1-.5c-.3-.3-.5-.5-.7-.9c-.2-.3-.3-.6-.3-1c0-.4.1-.8.3-1.1c.2-.3.4-.6.7-.8c.3-.2.7-.4 1.1-.5c.4-.2.9-.2 1.3-.2zm0 .8c-.3 0-.6.1-.9.2c-.3 0-.6.2-.8.3c-.2.2-.3.3-.5.6c-.1.2-.1.4-.1.7c0 .2 0 .5.1.7c.2.2.3.4.5.5c.2.2.5.3.8.4c.3.1.6.1.9.1c.4 0 .7 0 1-.1c.3-.1.5-.2.7-.4c.2-.1.4-.3.5-.5c.1-.2.2-.5.2-.7c0-.3-.1-.5-.2-.7c-.1-.3-.3-.4-.5-.6c-.2-.1-.4-.3-.7-.3c-.3-.1-.6-.2-1-.2zm-4.1 5.8h8.3v.9h-8.3v-.9zm13.8.1h3.7v.9h-8.4v-.9h3.7V6.2h-2.6V3.3h5.3V2h-5.4v-.8h6.4v2.9h-5.3v1.3h5.5v.8h-2.9v1.6zM291.6.5h1.1v9.3h-1.1V4.4h-2v-.8h2V.5zm-3.2.8s-.04 1.52 0 1.5c0 .4 0 .9.1 1.3c.1.4.3.8.5 1.1c.2.4.4.7.7 1c.3.3.6.5.9.7l-.6.8c-.5-.3-1-.6-1.3-1.1c-.4-.5-.7-1-.9-1.7c-.2.7-.4 1.3-.8 1.8c-.4.5-.8.9-1.4 1.2L285 7c.3-.2.7-.4.9-.7c.3-.3.6-.6.8-1c.2-.4.3-.8.4-1.2c.1-.4.2-.9.2-1.3V1.3h1.1zm5.5 8.5l.4-2.1h1.2l-.7 2.1h-.9zm9.5-8.4v.9h-5.1v-.9h2.1v-.9h1v.9h2zm1.5-.8h1v5.8h-1V5.3h-1.5v-.8h1.5v-.9h-1.4v-.9h1.4V.6zM303 4.4c0 .3 0 .5-.1.7c-.2.2-.3.4-.5.6c-.2.1-.4.2-.7.3c-.2.1-.5.2-.8.2c-.3 0-.6-.1-.9-.2l-.6-.3c-.2-.2-.4-.4-.5-.6c-.1-.2-.1-.4-.1-.7c0-.2 0-.5.1-.7c.1-.2.3-.4.5-.5c.2-.2.4-.3.6-.4c.3-.1.6-.1.9-.1c.3 0 .6 0 .8.1c.3.1.5.2.7.4c.2.1.3.3.5.5c.1.2.1.5.1.7zm-3.2 0c0 .3.1.5.3.7c.2.2.5.3.8.3c.3 0 .6-.1.8-.3c.2-.2.3-.4.3-.7c0-.3-.1-.5-.3-.7c-.2-.1-.5-.2-.8-.2c-.3 0-.6.1-.8.2c-.2.2-.3.4-.3.7zm-.1 3.3v-.8h6.2v2.9h-1V7.7h-5.2zM315 .6v6.7h-1V.6h1zM313 5l-.5.8c-.5-.2-1-.4-1.4-.8c-.3-.3-.6-.8-.8-1.3c-.2.6-.5 1-.9 1.4c-.4.4-.8.7-1.4.9l-.5-.8c.3-.2.7-.3 1-.6c.2-.2.5-.4.7-.7c.2-.3.3-.6.4-.9c.1-.3.1-.7.1-1c.04-.02 0-.9 0-.9h1.1s.01.88 0 .9c0 .3.1.6.2.9c.1.3.2.6.4.9c.2.3.4.5.7.7c.3.2.6.4.9.5zm-2.9 3.7h5.2v.9H309V6.7h1.1v2zm9.5-4.1v1.3h-1.2V4.6h1.2zm10.7.3l-.5.9l-1-.3c-.3-.2-.7-.3-1-.5l-.8-.8c-.2-.2-.4-.5-.6-.9c-.1.4-.3.6-.5.9c-.3.3-.5.5-.8.7c-.3.2-.7.4-1 .5c-.4.2-.7.3-1.1.4l-.4-.9c.4-.1.8-.2 1.2-.4c.4-.2.8-.4 1.1-.7c.3-.3.5-.6.7-1c.2-.3.3-.6.3-1c-.03.01 0-.7 0-.7h1.1s-.02.71 0 .7c0 .4.1.7.2 1c.2.4.4.7.7 1c.3.3.7.5 1.1.7c.4.2.8.3 1.3.4zm-3.4 2.9h3.7v.8h-8.3v-.8h3.6V5.6h1v2.2zm9.2-2.4h3.7v.8h-8.4v-.8h3.7v-.8h-2.6V.8h6.3v.8h-5.2v.7h5v.8h-5v.7h5.3v.8h-2.8v.8zm-.5 1.4c1 0 1.8.1 2.4.4c.5.2.8.6.8 1.1c0 .5-.3.8-.8 1.1c-.6.2-1.4.4-2.4.4c-1 0-1.8-.2-2.4-.4c-.5-.3-.8-.6-.8-1.1c0-.5.3-.9.8-1.1c.6-.3 1.4-.4 2.4-.4zm-2.1 1.5c0 .4.7.7 2.1.7c1.4 0 2.1-.3 2.1-.7c0-.5-.7-.7-2.1-.7c-1.4 0-2.1.2-2.1.7zm10.1-3.7v1.3h-1.2V4.6h1.2zm9.3 1.4V3.2H351v-.8h1.9V.5h1v5.5h-1zm-1.1-1.2l-.6.8c-.5-.2-.9-.4-1.3-.8c-.3-.3-.6-.7-.8-1.1c-.2.5-.5.9-.9 1.3c-.4.4-.8.7-1.4.9l-.5-.9c.3-.1.7-.3.9-.5c.3-.2.6-.4.8-.7c.1-.3.3-.6.4-.9c.1-.3.1-.6.1-1c.04.05 0-.9 0-.9h1.1v.9c0 .3.1.6.1.9c.1.3.3.6.5.8c.1.3.4.5.6.7c.3.2.6.4 1 .5zm-.9 1.4c.4 0 .9.1 1.3.1c.3.1.7.2.9.4c.3.1.5.3.7.6c.1.2.2.4.2.7c0 .3-.1.5-.2.7c-.2.3-.4.4-.7.6c-.2.2-.6.3-.9.3c-.4.1-.9.2-1.3.2c-.5 0-.9-.1-1.3-.2c-.4 0-.7-.1-1-.3c-.3-.2-.5-.3-.6-.6c-.2-.2-.2-.4-.2-.7c0-.3 0-.5.2-.7c.1-.3.3-.5.6-.6c.3-.2.6-.3 1-.4c.4 0 .8-.1 1.3-.1zm0 2.7c.6 0 1.1 0 1.5-.2c.3-.2.5-.4.5-.7c0-.3-.2-.5-.5-.7c-.4-.2-.9-.2-1.5-.2c-.7 0-1.2 0-1.6.2c-.3.2-.5.4-.5.7c0 .3.2.5.5.7c.4.2.9.2 1.6.2zm11.8-6.1h1.3v.9h-1.3v2.4h-1.1V.6h1.1v2.2zm-1.8 2.1l-.5.8c-.5-.2-1-.4-1.3-.7c-.4-.3-.7-.7-.9-1.1c-.2.4-.5.9-.9 1.3c-.4.3-.8.6-1.4.8l-.5-.8c.4-.2.7-.3 1-.5l.7-.7c.2-.3.3-.5.4-.8c.1-.3.2-.7.2-1c-.05.03 0-.1 0-.1h-2v-.9h4.9v.9h-1.9v.1c0 .3.1.6.2.9c0 .2.2.5.4.7c.2.2.4.5.7.6c.2.2.5.4.9.5zm-1.2 1.4c.5 0 .9 0 1.3.1c.4.1.7.2.9.3c.3.2.5.4.7.6c.1.2.2.4.2.7c0 .3-.1.5-.2.8c-.2.2-.4.4-.7.5c-.2.2-.5.3-.9.3c-.4.1-.8.2-1.3.2c-.5 0-.9-.1-1.3-.2c-.4 0-.7-.1-.9-.3c-.3-.1-.5-.3-.7-.5c-.1-.3-.2-.5-.2-.8c0-.3.1-.5.2-.7c.2-.2.4-.4.7-.6c.2-.1.5-.2.9-.3c.4-.1.8-.1 1.3-.1zm0 2.6c.7 0 1.2 0 1.5-.2c.4-.1.5-.4.5-.7c0-.3-.1-.5-.5-.7c-.3-.1-.8-.2-1.5-.2c-.7 0-1.2.1-1.5.2c-.4.2-.5.4-.5.7c0 .3.1.6.5.7c.3.2.8.2 1.5.2zM371.2.5h1v9.3h-1V.5zm-3.6.7c.4 0 .7 0 1 .2c.3.1.6.2.8.4c.2.2.4.4.5.7c.2.3.2.6.2.9c0 .3 0 .6-.2.9c-.1.3-.3.5-.5.7c-.2.2-.5.3-.8.5c-.3.1-.6.1-1 .1c-.3 0-.7 0-1-.1c-.3-.2-.5-.3-.8-.5c-.2-.2-.4-.4-.5-.7c-.1-.3-.2-.6-.2-.9c0-.3.1-.6.2-.9c.1-.3.3-.5.5-.7c.3-.2.5-.3.8-.4c.3-.2.7-.2 1-.2zm0 .9c-.4 0-.8.1-1 .3c-.3.3-.4.6-.4 1c0 .4.1.7.4 1c.2.2.6.3 1 .3c.5 0 .8-.1 1.1-.3c.3-.3.4-.6.4-1c0-.4-.1-.7-.4-1c-.3-.2-.6-.3-1.1-.3zm-2.8 5.7l-.1-.8h1.3c.5-.1 1-.1 1.5-.1c.6 0 1.1 0 1.6-.1c.5 0 1-.1 1.5-.1l.1.7c-.5.1-1 .2-1.5.2c-.6.1-1.1.1-1.6.2h-2.8zm12-2.7l-.4-.9c.4 0 .8-.1 1.2-.3c.4-.1.7-.3 1-.5c.2-.2.5-.4.6-.7c.2-.2.3-.5.3-.8c-.01.02-2.8 0-2.8 0v-.8h6.8v.8s-2.82.02-2.8 0c0 .3.1.6.2.8c.2.3.4.5.7.7c.3.2.6.4 1 .5c.4.2.8.3 1.2.3l-.4.9c-.7-.2-1.4-.4-2-.7c-.6-.4-1-.8-1.3-1.3c-.3.5-.7.9-1.3 1.3c-.6.3-1.3.5-2 .7zm7.5.6l-.1.9h-3.6v3.2h-1.1V6.6h-3.6v-.9h8.4zm7.2 2.1h1.9v.8h-8.3v-.8h1.9s.05-2.42 0-2.4c-.3-.2-.6-.5-.8-.8c-.2-.3-.3-.7-.3-1.1c0-.4.1-.7.2-1c.2-.3.4-.6.7-.8c.3-.2.7-.3 1.1-.5c.4-.1.9-.1 1.4-.1c.5 0 .9 0 1.3.1c.4.2.8.3 1.1.5c.3.2.5.5.7.8c.2.3.2.6.2 1c0 .4-.1.8-.3 1.1c-.2.3-.5.6-.8.8c-.03-.02 0 2.4 0 2.4zm-2.2-5.9c-.4 0-.7 0-1 .1c-.3.1-.5.2-.7.3c-.3.2-.4.3-.5.5c-.1.2-.2.4-.2.7c0 .2.1.5.2.7c.1.1.2.3.5.5c.2.1.4.2.7.3c.3 0 .6.1 1 .1c.3 0 .6-.1.9-.1c.3-.1.6-.2.8-.3c.2-.2.3-.4.4-.5c.2-.2.2-.5.2-.7c0-.3 0-.5-.2-.7c-.1-.2-.2-.3-.4-.5c-.2-.1-.5-.2-.8-.3c-.3-.1-.6-.1-.9-.1zm0 4c-.5 0-.8 0-1.2-.1v2h2.3s.02-2.04 0-2c-.2 0-.3 0-.5.1h-.6zm15.6-1.7v.9h-1.4v4.7h-1.1V.5h1.1v3.7h1.4zm-8.1-2.7s4.28.02 4.3 0c0 .7-.1 1.3-.2 2c-.2.6-.4 1.2-.8 1.7c-.3.6-.7 1.1-1.3 1.6c-.5.5-1.1.9-1.9 1.3l-.6-.8c2.3-1.2 3.5-2.8 3.7-4.9c.03-.02-3.2 0-3.2 0v-.9zm15.3-1h1v9.3h-1V.5zM409 2.9s.02.58 0 .6c0 .3.1.7.2 1.1c.1.3.2.7.4 1c.2.3.5.6.8.8c.3.3.6.5.9.6l-.5.9c-.5-.3-1-.6-1.4-1.1c-.4-.4-.7-.9-.9-1.5c-.2.6-.5 1.2-.9 1.6c-.4.5-.8.9-1.4 1.1l-.6-.8c.4-.2.7-.4 1-.6c.3-.3.5-.6.8-.9c.2-.4.3-.7.4-1.1c.1-.4.2-.7.2-1.1c-.03-.02 0-.6 0-.6h-2.1v-.8h2.1V.7h1v1.4h2v.8h-2zm12-.8v-.6h-5.2v-.7h6.2v2h-5.2v.7h5.4v.7h-6.4V2.1h5.2zm-6.3 2.7h8.4v.7h-8.4v-.7zm2 3.4v.7h5.6v.8h-6.6V7.5h5.3v-.6h-5.3v-.7h6.3v2h-5.3zm17.8-4.1v.9h-1.4v4.8h-1V.6h1v3.5h1.4zm-4.9-.4V1.3h1.1v6.3h-4.4V1.3h1v2.4h2.3zm0 3V4.5h-2.3v2.2h2.3zm12.8-3.9h1.3v.9h-1.3v2.5h-1.1V.6h1.1v2.2zm-2 1.7l.1.9c-.3 0-.7.1-1 .1c-.3 0-.6.1-.9.1h-2.3c-.04.04-.8 0-.8 0V1.2h4.3v.8h-3.2v1h3v.8h-3v1h1.1c.3 0 .7 0 1-.1h.8c.3-.1.6-.1.9-.2zm-1 1.9c.9 0 1.7.1 2.2.4c.6.3.9.7.9 1.3c0 .5-.3.9-.9 1.2c-.5.3-1.3.5-2.2.5c-1 0-1.7-.2-2.3-.5c-.5-.3-.8-.7-.8-1.2c0-.6.3-1 .8-1.3c.6-.3 1.3-.4 2.3-.4zm0 2.6c.6 0 1.1-.1 1.5-.3c.3-.1.5-.3.5-.6c0-.3-.2-.5-.5-.7c-.4-.1-.9-.2-1.5-.2c-.7 0-1.2.1-1.5.2c-.4.2-.5.4-.5.7c0 .3.1.5.5.6c.3.2.8.3 1.5.3zm9.1-7.9c.5 0 .9 0 1.3.2c.5.1.8.3 1.1.5c.3.2.6.5.7.8c.2.3.3.7.3 1.1c0 .4-.1.7-.3 1c-.1.4-.4.6-.7.9c-.3.2-.6.4-1.1.5c-.4.1-.8.2-1.3.2c-.5 0-.9-.1-1.3-.2c-.4-.1-.8-.3-1.1-.5c-.3-.3-.6-.5-.7-.9c-.2-.3-.3-.6-.3-1c0-.4.1-.8.3-1.1c.1-.3.4-.6.7-.8c.3-.2.7-.4 1.1-.5c.4-.2.8-.2 1.3-.2zm0 .8c-.3 0-.7.1-.9.2c-.3 0-.6.2-.8.3c-.2.2-.4.3-.5.6c-.1.2-.2.4-.2.7c0 .2.1.5.2.7c.1.2.3.4.5.5c.2.2.5.3.8.4c.2.1.6.1.9.1c.3 0 .7 0 .9-.1c.3-.1.6-.2.8-.4c.2-.1.4-.3.5-.5c.1-.2.2-.5.2-.7c0-.3-.1-.5-.2-.7c-.1-.3-.3-.4-.5-.6c-.2-.1-.5-.3-.8-.3c-.2-.1-.6-.2-.9-.2zm-4.2 5.8h8.4v.9h-8.4v-.9zm13.9.1h3.7v.9h-8.4v-.9h3.7V6.2h-2.7V3.3h5.3V2h-5.3v-.8h6.4v2.9h-5.3v1.3h5.5v.8h-2.9v1.6z" stroke="none" fill="#fff"/></g></svg>