<?xml version="1.0" standalone="no"?><!DOCTYPE svg PUBLIC "-//W3C//DTD SVG 1.1//EN" "http://www.w3.org/Graphics/SVG/1.1/DTD/svg11.dtd"><svg xmlns="http://www.w3.org/2000/svg" version="1.1" width="193px" height="28.7px" viewBox="0 -2 193 28.7" style="top:-2px"><desc>사회공헌 슬로건</desc><defs/><g id="Polygon33281"><path d="m10.7 4.9v1.1H9v5.5H7.8V.6h1.2v4.3h1.7zM4.4 1.5v1.8c0 .5.1 1 .2 1.5c.1.4.3.9.5 1.3c.2.4.5.8.8 1.1c.4.4.7.6 1.1.8l-.7 1c-.6-.3-1.1-.7-1.5-1.3c-.4-.5-.8-1.2-1-1.9c-.2.8-.6 1.4-1 2c-.5.6-1 1.1-1.6 1.4l-.8-1c.4-.2.8-.5 1.2-.8c.3-.4.6-.8.8-1.2c.3-.4.4-.9.6-1.4c.1-.5.2-1 .2-1.5c-.03.02 0-1.8 0-1.8h1.2zM19.3.6h1.2v10.9h-1.2V.6zm-.9 1.3v1h-6.5v-1h2.6V.7h1.3v1.2h2.6zm-2.6 5.5v1c.5 0 .9 0 1.4-.1c.5 0 1 0 1.4-.1l.1.9c-.6.1-1.2.2-1.8.2c-.6.1-1.2.1-1.8.2h-3.3l-.1-1h2.8V7.4c-.6-.1-1.1-.3-1.5-.6c-.3-.4-.5-.8-.5-1.4c0-.3.1-.5.2-.8c.1-.2.3-.4.5-.6c.3-.2.6-.3.9-.4c.3-.1.7-.2 1.1-.2c.3 0 .7.1 1 .2c.4.1.6.2.9.4c.2.2.4.4.5.6c.1.3.2.5.2.8c0 .6-.2 1-.6 1.4c-.3.3-.8.5-1.4.6zm-2.1-2c0 .4.1.6.4.8c.3.2.6.3 1.1.3c.4 0 .7-.1 1-.3c.3-.2.4-.4.4-.8c0-.3-.1-.5-.4-.7c-.3-.2-.6-.3-1-.3c-.5 0-.8.1-1.1.3c-.3.2-.4.4-.4.7zM30.9 5l-1.3-.2c.2-.5.3-1 .3-1.4V2.2c.03-.04-6.2 0-6.2 0v-1h7.5s-.05.88 0 .9c0 .4-.1.9-.1 1.3c0 .5-.1 1-.2 1.6zm-3.2.6h4.7v1h-9.8v-1h3.8v-2h1.3v2zm-.3 1.8c.6 0 1.1.1 1.6.2c.5.1.9.2 1.2.4c.3.2.6.4.8.6c.1.3.2.5.2.9c0 .3-.1.6-.2.8c-.2.3-.5.5-.8.6c-.3.2-.7.4-1.2.4c-.5.1-1 .2-1.6.2c-.6 0-1.1-.1-1.6-.2c-.4 0-.8-.2-1.2-.4c-.3-.1-.5-.3-.7-.6c-.2-.2-.3-.5-.3-.8c0-.4.1-.6.3-.9c.2-.2.4-.4.7-.6c.4-.2.8-.3 1.2-.4c.5-.1 1-.2 1.6-.2zm0 3.1c.8 0 1.5-.1 1.9-.2c.5-.2.7-.5.7-.8c0-.4-.2-.6-.7-.8c-.4-.2-1.1-.3-1.9-.3c-.8 0-1.4.1-1.9.3c-.4.2-.7.4-.7.8c0 .3.3.6.7.8c.5.1 1.1.2 1.9.2zm12.5-8.6v1h-6.3v-1h2.5V.6h1.2v1.3h2.6zm-.2 2.4h1.6V.6h1.2v8.2h-1.2V5.4h-1.6V4.3zm-.4 1.1c0 .3-.1.6-.2.9c-.2.2-.3.4-.6.6c-.2.2-.4.3-.8.4c-.3.1-.6.2-1 .2c-.3 0-.7-.1-1-.2c-.3-.1-.6-.2-.8-.4c-.2-.2-.4-.4-.5-.6c-.2-.3-.2-.6-.2-.9c0-.3 0-.6.2-.8c.1-.3.3-.5.5-.7c.2-.1.5-.3.8-.4c.3-.1.7-.1 1-.1c.4 0 .7 0 1 .1c.4.1.6.3.8.4c.3.2.4.4.6.7c.1.2.2.5.2.8zm-3.9 0c0 .4.1.6.3.8c.3.2.6.3 1 .3c.4 0 .8-.1 1-.3c.3-.2.4-.4.4-.8c0-.3-.1-.6-.4-.8c-.2-.2-.6-.3-1-.3c-.4 0-.7.1-1 .3c-.2.2-.3.5-.3.8zm1.3 4.9h6.1v1h-7.3V8.1h1.2v2.2zm19.7-6.7l-.4.9c-.9-.1-1.7-.3-2.4-.7c-.7-.3-1.2-.8-1.5-1.4c-.4.6-.9 1.1-1.6 1.4c-.7.4-1.5.6-2.4.7l-.4-.9l1.5-.3l1.2-.6c.3-.2.5-.5.7-.8c.2-.3.3-.6.3-.9c.02.03 0-.3 0-.3h1.3v.3c0 .3.1.6.3.9c.2.3.4.6.8.8c.3.2.7.4 1.1.6l1.5.3zm-9.3 1.5h9.9v1h-9.9v-1zm2.5 4.4v.9h6.4v1h-7.7V8.7h6.2v-.9h-6.2v-.9h7.4v2.6h-6.1zm14-.3h4.4v1h-9.9v-1h4.3V7.3h-3.1V3.9h6.3V2.4h-6.3v-1h7.5v3.4h-6.3v1.5h6.5v1h-3.4v1.9zm11.1-5.3h2.2V.6h1.2v8h-1.2V4.9h-2.2v-1zm-4.9-2.4s4.98-.02 5 0c0 .7-.1 1.4-.4 2c-.2.6-.5 1.2-1 1.7c-.4.5-.9.9-1.5 1.3c-.6.4-1.3.7-2.1 1l-.5-1c.6-.2 1.1-.4 1.6-.7c.5-.3.9-.6 1.3-1c.3-.3.6-.7.8-1.1c.3-.4.4-.8.5-1.2c-.05-.02-3.7 0-3.7 0v-1zm2.6 8.8h6v1h-7.3V7.8h1.3v2.5z" stroke="none" fill="#fff"/></g></svg>