<?xml version="1.0" standalone="no"?><!DOCTYPE svg PUBLIC "-//W3C//DTD SVG 1.1//EN" "http://www.w3.org/Graphics/SVG/1.1/DTD/svg11.dtd"><svg xmlns="http://www.w3.org/2000/svg" version="1.1" width="199.3px" height="31.7px" viewBox="0 -2 199.3 31.7" style="top:-2px"><desc>3_참여인원 (단위: 명)</desc><defs/><g id="Polygon42547"><path d="m7 5.7l-.6 1c-.6-.2-1.1-.5-1.6-.8c-.4-.4-.7-.8-1-1.3c-.2.6-.6 1-1 1.4c-.4.4-1 .7-1.6.9l-.6-1c.4-.1.8-.3 1.1-.5c.3-.2.6-.4.8-.7c.2-.3.4-.5.5-.9c.1-.3.2-.6.2-.9v-.1H.9v-1h2.3V.6h1.2v1.2h2.3v1H4.4s.03.08 0 .1c0 .3.1.6.2.9c.1.3.3.5.5.8c.2.2.5.5.8.7c.3.2.7.3 1.1.4zm3.6-2.4v1H9.1v2.7H7.8V.6h1.3v2.7h1.5zm-8.5 8.1V7.5h7v3.9h-7zm1.3-2.9v1.9h4.5V8.5H3.4zM19.3.6h1.3v10.9h-1.3V7.4s-2.45-.01-2.5 0c-.2.5-.5.9-.9 1.2c-.4.3-.9.5-1.4.5c-.4 0-.8-.1-1.1-.3c-.3-.2-.6-.4-.9-.7c-.2-.4-.4-.8-.5-1.3c-.2-.4-.2-1-.2-1.5c0-.6 0-1.2.2-1.6c.1-.5.3-.9.5-1.2c.3-.4.6-.6.9-.8c.3-.2.7-.3 1.1-.3c.5 0 1 .2 1.3.4c.4.3.7.7 1 1.2c-.01-.02 2.5 0 2.5 0V.6zM14.5 8c.5 0 .9-.3 1.2-.7c.2-.5.4-1.2.4-2c0-.9-.2-1.6-.4-2c-.3-.5-.7-.7-1.2-.7c-.5 0-.8.2-1.1.7c-.3.4-.5 1.1-.5 2c0 .8.2 1.5.5 2c.3.4.6.7 1.1.7zm2.7-1.6c-.04-.03 2.1 0 2.1 0V4h-2.2c.1.2.1.4.1.6c0 .2.1.4.1.7c0 .2-.1.4-.1.5v.6zM31.5.6v7.9h-1.2V.6h1.2zm-3 3.5c0 .4 0 .7-.2 1.1c-.1.3-.3.6-.6.8c-.3.3-.6.5-.9.6c-.4.1-.7.2-1.1.2c-.5 0-.8-.1-1.2-.2c-.3-.1-.6-.3-.9-.6c-.3-.2-.5-.5-.6-.8c-.2-.4-.2-.7-.2-1.1c0-.4 0-.8.2-1.1c.1-.3.3-.6.6-.9c.3-.2.6-.4.9-.5c.4-.2.7-.2 1.2-.2c.4 0 .7 0 1.1.2c.3.1.6.3.9.5c.3.3.5.6.6.9c.2.3.2.7.2 1.1zm-4.5 0c0 .5.1.9.5 1.2c.3.3.7.4 1.2.4c.2 0 .4 0 .6-.1c.2-.1.4-.2.5-.3c.2-.2.3-.3.4-.5c.1-.2.1-.5.1-.7c0-.3 0-.5-.1-.7c-.1-.2-.2-.4-.4-.5c-.1-.2-.3-.3-.5-.3c-.2-.1-.4-.2-.6-.2c-.5 0-.9.2-1.2.5c-.4.3-.5.7-.5 1.2zm1.7 6.2h6.1v1h-7.4V7.7h1.3v2.6zM39.2 7h2.1V.6h1.2v8.3h-1.2v-1h-2.1v-.9zM37 4.9c-.4 0-.7-.1-1.1-.2c-.3-.1-.6-.2-.8-.3c-.3-.2-.5-.4-.6-.6c-.1-.3-.2-.5-.2-.8c0-.3.1-.6.2-.8c.1-.3.3-.5.6-.6c.2-.2.5-.3.8-.4c.4-.1.7-.1 1.1-.1c.4 0 .8 0 1.1.1c.3.1.6.2.8.4c.3.1.5.3.6.6c.1.2.2.5.2.8c0 .3-.1.5-.2.8c-.1.2-.3.4-.6.6c-.2.1-.5.2-.8.3c-.3.1-.7.2-1.1.2zM37 2c-.4 0-.8.1-1.1.2c-.3.2-.4.5-.4.8c0 .3.1.5.4.7c.3.2.7.3 1.1.3c.5 0 .8-.1 1.1-.3c.3-.2.4-.4.4-.7c0-.3-.1-.6-.4-.8c-.3-.1-.6-.2-1.1-.2zm-.5 6.5s.02-1.98 0-2c-.5 0-1 .1-1.5.1h-1.4l-.1-1h1.6c.6-.1 1.2-.1 1.8-.1c.6 0 1.2 0 1.8-.1c.6 0 1.2-.1 1.7-.2l.1.9c-.4.1-.9.2-1.4.2c-.4.1-.9.1-1.3.1c-.05.04 0 2.1 0 2.1h-1.3zm-.3 1.8h6.6v1H35V8.1h1.2v2.2zm14 1.6l-.8.4c-.6-.9-1-1.9-1.3-2.9c-.3-1-.5-2.1-.5-3.2c0-1.2.2-2.3.5-3.3c.3-1 .7-2 1.3-2.9l.8.4c-.5.9-.9 1.8-1.1 2.8c-.2.9-.4 1.9-.4 3c0 1 .2 2 .4 3c.2.9.6 1.8 1.1 2.7zm9.6-8.2h1.6v1.1h-1.6v3.7h-1.2V.6h1.2v3.1zm-2.2 1.6l.1 1c-.4 0-.7.1-1.1.1c-.3.1-.7.1-1.1.2h-2.8c-.02.04-.9 0-.9 0V1.5h4.8v1H53s.04 3.12 0 3.1h2.6c.3-.1.7-.1 1-.2c.3 0 .6-.1 1-.1zm-3.4 2.4v2.6h6.1v1H53V7.7h1.2zM70.1.6h1.2v10.9h-1.2V.6zm-4.2 5.1c-.4 0-.8-.1-1.2-.2c-.3-.1-.6-.3-.8-.5c-.3-.2-.5-.4-.6-.7c-.2-.3-.2-.6-.2-.9c0-.4 0-.7.2-.9c.1-.3.3-.5.6-.7c.2-.2.5-.4.8-.5c.4-.1.8-.2 1.2-.2c.4 0 .7.1 1.1.2c.3.1.6.3.9.5c.2.2.4.4.6.7c.1.2.2.5.2.9c0 .3-.1.6-.2.9c-.2.3-.4.5-.6.7c-.3.2-.6.4-.9.5c-.4.1-.7.2-1.1.2zm0-3.6c-.5 0-.9.1-1.2.4c-.3.2-.4.5-.4.9c0 .4.1.7.4.9c.3.2.7.3 1.2.3c.4 0 .8-.1 1.1-.3c.3-.2.5-.5.5-.9c0-.4-.2-.7-.5-.9c-.3-.3-.7-.4-1.1-.4zm3.5 4v.9c-.4.1-.9.2-1.4.2c-.5.1-1 .1-1.5.2c.04-.04 0 3.8 0 3.8h-1.2V7.4c-.5 0-1 .1-1.5.1h-1.3l-.2-1c.5 0 1.1 0 1.6-.1h1.8c.6 0 1.2-.1 1.9-.1c.6-.1 1.2-.1 1.8-.2zM75 3.4v1.5h-1.4V3.4h1.4zm0 5v1.5h-1.4V8.4h1.4zm9.5-2.9v.8h-5V1.5h5v.8h2.3V.6h1.2v6.4h-1.2V5.5h-2.3zm-1.2-.1v-3h-2.6v3h2.6zm3.5-2.1h-2.3v1.2h2.3V3.3zm-2.4 4c.6 0 1.1.1 1.5.2c.5.1.9.2 1.2.4c.3.2.5.4.7.6c.2.3.3.6.3.9c0 .3-.1.6-.3.9c-.2.2-.4.5-.7.6c-.3.2-.7.4-1.2.4c-.4.1-.9.2-1.5.2c-.6 0-1.1-.1-1.5-.2c-.5 0-.9-.2-1.2-.4c-.3-.1-.5-.4-.7-.6c-.2-.3-.3-.6-.3-.9c0-.3.1-.6.3-.9c.2-.2.4-.4.7-.6c.3-.2.7-.3 1.2-.4c.4-.1.9-.2 1.5-.2zm0 3.2c.8 0 1.4-.1 1.8-.3c.4-.2.6-.4.6-.8c0-.4-.2-.6-.6-.8c-.4-.2-1-.3-1.8-.3c-.8 0-1.4.1-1.8.3c-.4.2-.6.4-.6.8c0 .4.2.6.6.8c.4.2 1 .3 1.8.3zm6.4 1.8l-.9-.4c.6-.9 1-1.8 1.2-2.7c.2-1 .4-2 .4-3c0-1.1-.2-2.1-.4-3c-.2-1-.6-1.9-1.2-2.8l.9-.4c.6.9 1 1.9 1.3 2.9c.3 1 .5 2.1.5 3.3c0 1.1-.2 2.2-.5 3.2c-.3 1-.7 2-1.3 2.9z" stroke="none" fill="#fff"/></g></svg>