<?xml version="1.0" standalone="no"?><!DOCTYPE svg PUBLIC "-//W3C//DTD SVG 1.1//EN" "http://www.w3.org/Graphics/SVG/1.1/DTD/svg11.dtd"><svg xmlns="http://www.w3.org/2000/svg" version="1.1" width="85px" height="13.9px" viewBox="0 -2 85 13.9" style="top:-2px"><desc>현대자동차그룹 회장</desc><defs/><g id="Polygon32125"><path d="m4.6 1.3v.6H.5v-.6h1.7v-.9h.7v.9h1.7zm0 1.1h1.2v-2h.7v5.6h-.7V4.5H4.6v-.6h1.2v-1H4.6v-.5zm-.4 1.3c0 .2 0 .4-.1.6c-.1.1-.2.3-.4.4c-.1.1-.3.2-.5.3c-.2.1-.4.1-.7.1c-.2 0-.4 0-.6-.1l-.6-.3c-.1-.1-.2-.3-.3-.4c-.1-.2-.1-.4-.1-.6c0-.2 0-.4.1-.6c.1-.2.2-.3.3-.4c.2-.2.4-.2.6-.3c.2-.1.4-.1.6-.1c.3 0 .5 0 .7.1c.2.1.4.1.5.3c.2.1.3.2.4.4c.1.2.1.4.1.6zm-2.7 0c0 .2.1.5.3.6c.2.2.4.3.7.3c.3 0 .6-.1.8-.3c.2-.1.3-.4.3-.6c0-.3-.1-.5-.3-.6c-.2-.2-.5-.3-.8-.3c-.3 0-.5.1-.7.3c-.2.1-.3.3-.3.6zm.9 3.4h4.3v.5H1.8v-2h.6v1.5zM13.3.4h.6v7.4h-.6V3.9h-1v3.5h-.7V.6h.7v2.8h1v-3zM8.6 1.9s.02 3.52 0 3.5h1.3c.4-.1.8-.1 1.2-.2l.1.6c-.3 0-.5 0-.7.1h-.6c-.2.1-.5.1-.7.1h-.8c.04-.02-.4 0-.4 0V1.3h2.7v.6H8.6zm13.2 1.5v.6h-1.2v3.8h-.7V.4h.7v3h1.2zm-4.4-1.7s.02.98 0 1c0 .3.1.6.2.9c.1.3.2.6.4.8c.2.3.4.5.6.7c.2.3.5.4.7.6l-.4.5c-.4-.2-.7-.5-1.1-.9c-.3-.4-.5-.9-.7-1.4c-.1.3-.2.6-.3.8c-.1.3-.3.5-.5.7c-.1.2-.3.4-.5.6c-.2.1-.4.3-.6.4l-.4-.6c.3-.1.5-.3.8-.5c.2-.2.4-.5.6-.8c.2-.2.3-.6.4-.9c.1-.3.2-.6.2-.9c-.04-.02 0-1 0-1h-1.7v-.5h4v.5h-1.7zm8.5 2.4h3v.5h-6.7v-.5h3v-.9H23V.8h5v.5h-4.3v1.4h4.4v.5h-2.2v.9zm-.4 1c.8 0 1.4.1 1.9.4c.4.2.6.5.6 1c0 .4-.2.7-.6.9c-.5.3-1.1.4-1.9.4c-.8 0-1.4-.1-1.8-.4c-.5-.2-.7-.5-.7-.9c0-.5.2-.8.7-1c.4-.3 1-.4 1.8-.4zm0 2.2c.6 0 1.1-.1 1.4-.2c.3-.2.5-.4.5-.6c0-.3-.2-.5-.5-.6c-.3-.2-.8-.2-1.4-.2c-.6 0-1 0-1.3.2c-.4.1-.5.3-.5.6c0 .2.1.4.5.6c.3.1.7.2 1.3.2zm10.8-3.8v.5h-1.2v3.8h-.7V.4h.7v3.1h1.2zm-4.4-1.3s.02.62 0 .6c0 .3.1.6.2.9c0 .3.2.6.3.8c.2.3.4.5.6.7c.2.2.4.4.7.5l-.4.5c-.4-.2-.7-.4-1-.8c-.3-.4-.5-.8-.7-1.3c-.2.5-.4 1-.7 1.4c-.3.4-.7.7-1.1.9l-.4-.5c.3-.2.5-.3.7-.6c.3-.2.5-.4.6-.7c.2-.2.3-.5.4-.8c.1-.3.2-.7.2-1c-.04.02 0-.6 0-.6h-1.7v-.5h1.7V.6h.6v1.1h1.7v.5h-1.7zm9.9-.2c.02-.05 0-.2 0-.2h-4.4v-.6h5.1s-.02.75 0 .8v.7c0 .2 0 .5-.1.8v.9c-.1.4-.1.7-.2 1.1h-.7c.2-.8.3-1.4.3-2V2zm-5.1 4.2h6.7v.5h-6.7v-.5zm12.4-4.4v-.7h-4.3v-.5h5v1.7h-4.3v.7h4.4v.5h-5.1V1.8h4.3zM44 4.1h6.6v.5h-3v.9h-.6v-.9h-3v-.5zm5.1 1.8v-.8h.7v2.6h-4.9V5.1h.6v.8h3.6zm0 1.3v-.8h-3.6v.8h3.6zm8.3-5.9v.6H53v-.6h1.9v-.9h.7v.9h1.8zm.7-.9h.7v7.4h-.7V.4zM55.6 5v.8c.3 0 .7-.1 1-.1c.3 0 .7-.1 1-.1l.1.5c-.4.1-.8.1-1.3.2h-1.2c-.4.1-.8.1-1.2.1h-1.1l-.1-.6h2.1v-.8c-.5 0-.8-.2-1.1-.4c-.2-.3-.4-.6-.4-.9c0-.3.1-.4.2-.6c.1-.2.2-.3.3-.4c.2-.2.4-.2.6-.3c.2-.1.5-.1.7-.1c.3 0 .5 0 .7.1c.3.1.4.1.6.3c.1.1.3.2.4.4c0 .2.1.3.1.6c0 .3-.1.6-.4.9c-.3.2-.6.3-1 .4zm-1.5-1.3c0 .2.1.4.3.6c.2.1.5.2.8.2c.4 0 .6-.1.8-.2c.2-.2.3-.4.3-.6c0-.3-.1-.5-.3-.7c-.2-.1-.4-.2-.8-.2c-.3 0-.6.1-.8.2c-.2.2-.3.4-.3.7zm11.6-1.4h1.1v.6h-1.1v2h-.6V.4h.6v1.9zM64.3 4l-.3.5c-.4-.1-.8-.3-1.1-.6c-.3-.3-.5-.6-.7-1c-.2.5-.4.8-.7 1.1c-.3.3-.7.6-1.1.7l-.4-.5c.3-.1.5-.2.8-.4c.2-.1.4-.3.5-.5c.2-.2.3-.5.4-.7c.1-.3.2-.5.2-.8c-.05.01 0-.3 0-.3h-1.7v-.5h3.9v.5h-1.6s.02.31 0 .3c0 .3.1.5.1.7c.1.2.2.4.4.6c.2.2.3.4.6.5c.2.2.4.3.7.4zm-.9 1.1c.4 0 .7 0 1 .1c.3 0 .6.1.8.2c.2.1.3.3.5.5c.1.1.1.3.1.5c0 .2 0 .4-.1.6c-.2.2-.3.3-.5.4c-.2.1-.5.2-.8.3c-.3.1-.6.1-1 .1c-.7 0-1.3-.1-1.8-.4c-.4-.2-.6-.5-.6-1c0-.4.2-.7.6-1c.5-.2 1.1-.3 1.8-.3zm0 2.1c.6 0 1 0 1.3-.2c.3-.1.5-.3.5-.6c0-.2-.2-.4-.5-.6c-.3-.1-.7-.2-1.3-.2c-.6 0-1 .1-1.3.2c-.3.2-.4.4-.4.6c0 .3.1.5.4.6c.3.2.7.2 1.3.2z" stroke="none" fill="#111111"/></g></svg>