<?xml version="1.0" standalone="no"?><!DOCTYPE svg PUBLIC "-//W3C//DTD SVG 1.1//EN" "http://www.w3.org/Graphics/SVG/1.1/DTD/svg11.dtd"><svg xmlns="http://www.w3.org/2000/svg" version="1.1" width="162.1px" height="26.3px" viewBox="0 -2 162.1 26.3" style="top:-2px"><desc>INTRODUCTION</desc><defs/><g id="Polygon40520"><path d="m.6.8h.6v4.8h-.6V.8zm1.8 0h.6l2.9 3.7V.8h.7v4.8h-.6L3.1 1.9v3.7h-.7V.8zm6.4.6H7.3v-.6h3.7v.6H9.4v4.2h-.6V1.4zm4.6 2.2h-1.1v2h-.6V.8s1.96.04 2 0c.9 0 1.5.6 1.5 1.4c0 .7-.4 1.2-1.1 1.3c-.02.03 1.6 2.1 1.6 2.1h-.8l-1.5-2zm.2-.6c.6 0 1-.3 1-.8c0-.5-.4-.8-1-.8h-1.3v1.6h1.3zm2.4.2c0-1.4 1-2.4 2.4-2.4c1.4 0 2.4 1 2.4 2.4c0 1.4-1 2.5-2.4 2.5C17 5.7 16 4.6 16 3.2zm4.1 0c0-1-.6-1.8-1.7-1.8c-1 0-1.7.8-1.7 1.8c0 1.1.7 1.9 1.7 1.9c1.1 0 1.7-.8 1.7-1.9zM21.7.8s1.81.04 1.8 0c1.3 0 2.3.9 2.3 2.4c0 1.6-1 2.4-2.3 2.4h-1.8V.8zm.6.6v3.6s1.17.03 1.2 0c1 0 1.7-.6 1.7-1.8c0-1.2-.7-1.8-1.7-1.8h-1.2zm4.4 2.2V.8h.6s.03 2.74 0 2.7c0 1 .5 1.6 1.3 1.6c.9 0 1.3-.6 1.3-1.6c.04.04 0-2.7 0-2.7h.7s-.02 2.8 0 2.8c0 1.2-.7 2.1-2 2.1c-1.2 0-1.9-.9-1.9-2.1zm4.7-.4c0-1.4 1-2.4 2.4-2.4c1 0 1.7.4 2.1 1.2l-.5.3c-.3-.5-.8-.9-1.6-.9c-1 0-1.7.8-1.7 1.8c0 1.1.7 1.9 1.7 1.9c.8 0 1.3-.4 1.6-1l.5.4c-.4.7-1.1 1.2-2.1 1.2c-1.4 0-2.4-1.1-2.4-2.5zm6.3-1.8h-1.5v-.6h3.6v.6h-1.5v4.2h-.6V1.4zm2.8-.6h.7v4.8h-.7V.8zm1.6 2.4c0-1.4 1-2.4 2.4-2.4c1.4 0 2.4 1 2.4 2.4c0 1.4-1 2.5-2.4 2.5c-1.4 0-2.4-1.1-2.4-2.5zm4.1 0c0-1-.7-1.8-1.7-1.8c-1.1 0-1.8.8-1.8 1.8c0 1.1.7 1.9 1.8 1.9c1 0 1.7-.8 1.7-1.9zM47.8.8h.5l2.9 3.7V.8h.7v4.8h-.6l-2.9-3.7v3.7h-.6V.8z" stroke="none" fill="#b4b4b4"/></g></svg>