<?xml version="1.0" standalone="no"?><!DOCTYPE svg PUBLIC "-//W3C//DTD SVG 1.1//EN" "http://www.w3.org/Graphics/SVG/1.1/DTD/svg11.dtd"><svg xmlns="http://www.w3.org/2000/svg" version="1.1" width="541px" height="46.2px" viewBox="0 -4 541 46.2" style="top:-4px"><desc>Executive Chair’s Message</desc><defs/><g id="Polygon40076"><path d="m4.7 15.8h7.7v2.7H1.6V2.4h10.6v2.8H4.7v3.7h6.8v2.8H4.7v4.1zm13.8-5.5L21 6.7h3.4l-4.2 5.9l4.3 5.9h-3.3l-2.7-3.6l-2.5 3.6h-3.5l4.3-5.8l-4.2-6h3.4l2.5 3.6zm9.2 1.3h4.6c0-.6-.2-1.2-.6-1.8c-.4-.5-1-.8-1.7-.8c-.8 0-1.4.3-1.7.8c-.4.6-.6 1.2-.6 1.8zm0 2.5c.1.5.3 1 .8 1.4c.4.5 1.1.7 2.1.8c1.2.1 2.6-.1 4.2-.5v2.5c-1.4.4-2.8.6-4.2.6c-1.9-.1-3.4-.6-4.4-1.7c-1.1-1-1.6-2.5-1.6-4.5c0-1.9.5-3.5 1.5-4.6C27.2 7 28.4 6.4 30 6.4c1.5 0 2.8.6 3.8 1.8c1 1.1 1.5 2.6 1.5 4.6c.04-.01 0 1.3 0 1.3c0 0-7.6-.05-7.6 0zM40 10.3c-.5.6-.7 1.4-.7 2.4c0 .9.2 1.7.7 2.3c.6.7 1.6 1 2.9 1c1 0 2.1-.1 3.2-.3v2.7c-1.3.3-2.5.5-3.6.4c-2-.1-3.5-.7-4.7-1.8c-1.1-1.1-1.6-2.6-1.6-4.3c0-1.9.5-3.3 1.6-4.4c1.2-1.1 2.7-1.7 4.7-1.8c1.1-.1 2.2 0 3.5.4v2.7c-1.1-.3-2.1-.4-3.1-.4c-1.3 0-2.3.4-2.9 1.1zm7.6 3.8c-.01-.05 0-7.4 0-7.4h3.1s-.02 6.96 0 7c0 1.6.7 2.5 2.2 2.5c1.5 0 2.3-.9 2.3-2.5c-.02-.04 0-7 0-7h3.1s-.03 7.4 0 7.4c0 1.5-.5 2.7-1.5 3.5c-1 .9-2.3 1.3-3.9 1.3c-1.7 0-3-.4-3.9-1.2c-.9-.8-1.4-2-1.4-3.6zm16.7.6c0 .6.1.9.2 1.1c.3.2.7.3 1.2.3h1.9v2.7h-2.4c-1.3 0-2.3-.3-3-.9c-.6-.7-.9-1.6-.9-2.7c-.04.03 0-5.9 0-5.9h-2.2V6.7h2.2V4l3-.9v3.6h2.8v2.6h-2.8v5.4zm4.2 3.8V6.7h3.1v11.8h-3.1zm0-13.4v-3h3.2v3h-3.2zm11.4 13.4h-2.6L72.4 6.7h3.1l3.1 8.1l3.2-8.1h3l-4.9 11.8zm8.1-6.9h4.6c0-.6-.2-1.2-.6-1.8c-.4-.5-.9-.8-1.7-.8c-.7 0-1.3.3-1.7.8c-.4.6-.6 1.2-.6 1.8zm.1 2.5c0 .5.3 1 .7 1.4c.5.5 1.2.7 2.1.8c1.2.1 2.6-.1 4.2-.5v2.5c-1.4.4-2.8.6-4.2.6c-1.9-.1-3.3-.6-4.4-1.7c-1-1-1.6-2.5-1.6-4.5c0-1.9.5-3.5 1.6-4.6c1-1.1 2.3-1.7 3.8-1.7c1.6 0 2.9.6 3.9 1.8c1 1.1 1.5 2.6 1.5 4.6v1.3s-7.65-.05-7.6 0zm14.6-3.8c0-2.4.8-4.4 2.2-5.8c1.5-1.5 3.5-2.3 6.1-2.4c1.3 0 2.7.1 4.1.3v2.8c-1.5-.3-2.8-.4-3.8-.3c-1.8 0-3.1.5-4 1.5c-1 1-1.5 2.3-1.5 4v.2c0 1.8.5 3.1 1.5 4c1 1 2.3 1.4 4 1.5c1.2 0 2.5 0 3.9-.3v2.8c-1.4.2-2.8.3-4.2.3c-2.6-.2-4.7-.9-6.1-2.3c-1.5-1.4-2.2-3.4-2.2-5.9v-.4zm14.1-8.2h3.1s.03 5.63 0 5.6c.9-.8 1.9-1.2 3.1-1.2c1.4 0 2.5.4 3.3 1.2c.7.8 1.1 2 1.1 3.7c.05-.04 0 7.1 0 7.1h-3s-.03-6.86 0-6.9c0-1.6-.7-2.4-2.1-2.4c-.9 0-1.7.6-2.4 1.7c.03.05 0 7.6 0 7.6h-3.1V2.1zm19.5 11.5c-.4-.1-.8-.2-1.2-.2c-.4-.1-.8-.2-1.3-.2c-.5.1-.9.2-1.2.5c-.3.2-.5.6-.5 1.1c0 .4.1.8.4 1.1c.2.2.6.4 1 .4c1.2 0 2.2-.4 2.8-1.2v-1.5zm.2 3.9c-1 .9-2.1 1.3-3.4 1.3c-1.2 0-2.2-.4-3-1.1c-.7-.8-1.1-1.8-1.1-2.9c0-1.2.5-2.2 1.4-3c.8-.6 1.8-.9 3.2-.9c1 0 1.9.1 2.7.5v-.7c0-1.1-.8-1.7-2.4-1.7c-1.1-.1-2.3.1-3.6.4V6.9c1.4-.3 2.6-.5 3.8-.5c1.6.1 2.9.5 3.8 1.2c1 .8 1.5 2.1 1.5 3.7c-.04-.03 0 7.2 0 7.2h-2.9s-.04-.97 0-1zm5 1V6.7h3.1v11.8h-3.1zm0-13.4v-3h3.2v3h-3.2zm5.4 1.6h2.9s.03 1.28 0 1.3c1-1 2-1.6 3-1.6c.4 0 .8.1 1.3.2v2.7c-.5-.1-.9-.1-1.3-.1c-1.1.1-2.1.7-2.8 1.7v7.6h-3.1V6.7zm12.5-3.3c0 2.4-1 3.9-3 4.4l-1-1.6c1.1-.3 1.7-.9 1.8-1.8c-.04-.03-1.6 0-1.6 0V.5h3.8s.02 2.9 0 2.9zm9.1 5.5c-1.2.1-1.8.5-1.9 1.2c0 .2.1.4.3.6c.3.2.9.4 1.9.6l1.8.5c1 .2 1.7.6 2.1 1.2c.4.5.6 1.2.6 2c0 1.1-.4 2-1.3 2.8c-.9.7-2.3 1-4.2 1.1c-1.4.1-2.7-.1-3.9-.4V16c1.4.3 2.7.4 3.9.4c1 0 1.6-.2 2-.4c.4-.2.6-.5.6-.8c0-.6-.4-1-1.2-1.1l-1.6-.4c-2.7-.6-4-1.8-4-3.5c0-1 .5-1.9 1.3-2.7c.9-.7 2.1-1.1 3.8-1.2c1.3 0 2.5.2 3.7.5v2.5c-1.5-.3-2.8-.5-3.9-.4zm21.8 9.6h-2l-4.2-10.9v10.9h-2.9V2.4h3.5l4.6 11.5l4.6-11.5h3.6v16.1h-3V7.6l-4.2 10.9zm11.9-6.9h4.6c0-.6-.2-1.2-.6-1.8c-.4-.5-.9-.8-1.7-.8c-.7 0-1.3.3-1.7.8c-.4.6-.6 1.2-.6 1.8zm.1 2.5c0 .5.3 1 .7 1.4c.5.5 1.2.7 2.1.8c1.2.1 2.6-.1 4.2-.5v2.5c-1.4.4-2.8.6-4.2.6c-1.8-.1-3.3-.6-4.4-1.7c-1-1-1.6-2.5-1.6-4.5c0-1.9.6-3.5 1.6-4.6c1-1.1 2.3-1.7 3.8-1.7c1.6 0 2.9.6 3.9 1.8c1 1.1 1.5 2.6 1.5 4.6v1.3s-7.63-.05-7.6 0zm13.3-5.2c-1.2.1-1.8.5-1.9 1.2c0 .2.1.4.3.6c.3.2.9.4 1.9.6l1.8.5c1 .2 1.7.6 2.1 1.2c.4.5.6 1.2.6 2c0 1.1-.4 2-1.3 2.8c-.9.7-2.3 1-4.2 1.1c-1.4.1-2.7-.1-3.9-.4V16c1.4.3 2.7.4 3.9.4c1 0 1.6-.2 2-.4c.4-.2.6-.5.6-.8c0-.6-.4-1-1.2-1.1l-1.6-.4c-2.7-.6-4-1.8-4-3.5c0-1 .5-1.9 1.3-2.7c.9-.7 2.1-1.1 3.8-1.2c1.3 0 2.5.2 3.7.5v2.5c-1.5-.3-2.8-.5-3.9-.4zm10.5 0c-1.2.1-1.8.5-1.8 1.2c-.1.2 0 .4.3.6c.2.2.8.4 1.8.6l1.9.5c1 .2 1.7.6 2.1 1.2c.4.5.6 1.2.6 2c0 1.1-.5 2-1.4 2.8c-.9.7-2.2 1-4.1 1.1c-1.4.1-2.7-.1-4-.4V16c1.4.3 2.7.4 3.9.4c1 0 1.7-.2 2.1-.4c.3-.2.5-.5.5-.8c0-.6-.4-1-1.1-1.1l-1.7-.4c-2.6-.6-3.9-1.8-3.9-3.5c0-1 .4-1.9 1.2-2.7c.9-.7 2.2-1.1 3.8-1.2c1.3 0 2.5.2 3.8.5v2.5c-1.6-.3-2.9-.5-4-.4zm13 4.7c-.4-.1-.8-.2-1.2-.2c-.4-.1-.9-.2-1.3-.2c-.5.1-.9.2-1.2.5c-.3.2-.5.6-.5 1.1c0 .4.1.8.4 1.1c.2.2.6.4 1 .4c1.2 0 2.2-.4 2.8-1.2v-1.5zm.2 3.9c-1 .9-2.1 1.3-3.4 1.3c-1.2 0-2.2-.4-3-1.1c-.7-.8-1.1-1.8-1.1-2.9c0-1.2.5-2.2 1.4-3c.7-.6 1.8-.9 3.2-.9c1 0 1.9.1 2.7.5v-.7c0-1.1-.8-1.7-2.4-1.7c-1.1-.1-2.3.1-3.6.4V6.9c1.4-.3 2.6-.5 3.8-.5c1.6.1 2.9.5 3.8 1.2c1 .8 1.4 2.1 1.4 3.7c.05-.03 0 7.2 0 7.2h-2.8s-.05-.97 0-1zm10-1.7c1 0 1.7-.4 2.3-1.3v-4.2c-.6-.8-1.3-1.1-2.3-1.1c-.8 0-1.4.3-1.9 1c-.5.6-.7 1.4-.7 2.4c0 .9.2 1.6.7 2.3c.5.6 1.2.9 1.9.9zm2.3 2.3v-.7c-.8.8-1.8 1.1-2.9 1.1c-1.4 0-2.5-.5-3.5-1.5c-1.1-1.1-1.6-2.6-1.6-4.4c0-1.9.5-3.3 1.6-4.5c.9-1.1 2.1-1.7 3.7-1.7c1.1 0 2.1.4 2.9 1.3v-1h2.9s-.02 10.04 0 10c0 2.3-.5 3.9-1.6 4.8c-1.1 1-2.5 1.4-4.4 1.5c-1.2 0-2.5-.1-3.8-.3V20c1.3.3 2.5.4 3.6.4c1.2-.1 2-.4 2.4-.8c.5-.4.7-1 .7-1.5zm7.8-6.5h4.6c0-.6-.2-1.2-.6-1.8c-.4-.5-1-.8-1.8-.8c-.7 0-1.3.3-1.7.8c-.4.6-.5 1.2-.5 1.8zm0 2.5c0 .5.3 1 .7 1.4c.5.5 1.2.7 2.1.8c1.3.1 2.7-.1 4.2-.5v2.5c-1.4.4-2.8.6-4.2.6c-1.8-.1-3.3-.6-4.4-1.7c-1-1-1.6-2.5-1.6-4.5c0-1.9.6-3.5 1.6-4.6c1-1.1 2.3-1.7 3.8-1.7c1.6 0 2.9.6 3.9 1.8c1 1.1 1.5 2.6 1.5 4.6v1.3s-7.63-.05-7.6 0z" stroke="none" fill="#111111"/></g></svg>