<?xml version="1.0" standalone="no"?><!DOCTYPE svg PUBLIC "-//W3C//DTD SVG 1.1//EN" "http://www.w3.org/Graphics/SVG/1.1/DTD/svg11.dtd"><svg xmlns="http://www.w3.org/2000/svg" version="1.1" width="233px" height="26.3px" viewBox="0 -2 233 26.3" style="top:-2px"><desc>COMMUNITY RELATION WHITE BOOK</desc><defs/><g id="Polygon40174"><path d="m109.6 3.2c0-1.4 1-2.4 2.4-2.4c.9 0 1.7.4 2.1 1.2l-.5.3c-.3-.5-.9-.9-1.6-.9c-1.1 0-1.7.8-1.7 1.8c0 1.1.6 1.9 1.7 1.9c.7 0 1.3-.4 1.6-1l.5.4c-.4.7-1.2 1.2-2.1 1.2c-1.4 0-2.4-1.1-2.4-2.5zm5 0c0-1.4 1-2.4 2.4-2.4c1.4 0 2.4 1 2.4 2.4c0 1.4-1 2.5-2.4 2.5c-1.4 0-2.4-1.1-2.4-2.5zm4.1 0c0-1-.7-1.8-1.7-1.8c-1.1 0-1.7.8-1.7 1.8c0 1.1.6 1.9 1.7 1.9c1 0 1.7-.8 1.7-1.9zm1.6-2.4h.8l1.7 4l1.7-4h.9v4.8h-.7V1.8l-1.6 3.8h-.6l-1.6-3.8v3.8h-.6V.8zm6.3 0h.8l1.7 4l1.7-4h.9v4.8h-.7V1.8l-1.6 3.8h-.6l-1.6-3.8v3.8h-.6V.8zm6.2 2.8V.8h.6s.05 2.74 0 2.7c0 1 .5 1.6 1.3 1.6c.9 0 1.4-.6 1.4-1.6c-.05.04 0-2.7 0-2.7h.6v2.8c0 1.2-.7 2.1-2 2.1c-1.2 0-1.9-.9-1.9-2.1zm5-2.8h.6l2.9 3.7V.8h.7v4.8h-.6l-2.9-3.7v3.7h-.7V.8zm5.4 0h.6v4.8h-.6V.8zm2.8.6h-1.5v-.6h3.7v.6h-1.5v4.2h-.7V1.4zm4.2 2.2L148.4.9v-.1h.7l1.4 2.1l1.4-2.1h.7v.1l-1.8 2.7v2h-.6v-2zm6.4 0h-1v2h-.6V.8s1.94.04 1.9 0c1 0 1.6.6 1.6 1.4c0 .7-.4 1.2-1.1 1.3c-.03.03 1.6 2.1 1.6 2.1h-.8l-1.6-2zm.3-.6c.6 0 .9-.3.9-.8c0-.5-.3-.8-.9-.8h-1.3v1.6h1.3zm2.7-2.2h3.2v.6h-2.5v1.5h2.2v.6h-2.2v1.5h2.5v.6h-3.2V.8zm4.2 0h.6v4.2h2.5v.6h-3.1V.8zm5.2 0h.7l1.9 4.8h-.7l-.4-1.1h-2.3l-.5 1.1h-.7l2-4.8zm-.6 3.1h1.9l-1-2.3l-.9 2.3zm4.4-2.5h-1.5v-.6h3.7v.6h-1.5v4.2h-.7V1.4zm2.9-.6h.6v4.8h-.6V.8zm1.5 2.4c0-1.4 1-2.4 2.4-2.4c1.4 0 2.4 1 2.4 2.4c0 1.4-1 2.5-2.4 2.5c-1.4 0-2.4-1.1-2.4-2.5zm4.2 0c0-1-.7-1.8-1.8-1.8c-1 0-1.7.8-1.7 1.8c0 1.1.7 1.9 1.7 1.9c1.1 0 1.8-.8 1.8-1.9zm1.5-2.4h.6l2.9 3.7V.8h.6v4.8h-.5l-2.9-3.7v3.7h-.7V.8zm6.5 0h.6l1.1 3.9l1.3-3.9h.7l1.3 3.9l1.1-3.9h.6l-1.4 4.8h-.7l-1.3-3.8l-1.2 3.8h-.7L189.4.8zm7.4 0h.7v2.1h2.7V.8h.6v4.8h-.6V3.5h-2.7v2.1h-.7V.8zm5.2 0h.7v4.8h-.7V.8zm2.9.6h-1.5v-.6h3.7v.6h-1.5v4.2h-.7V1.4zm2.9-.6h3.2v.6h-2.6v1.5h2.3v.6h-2.3v1.5h2.6v.6h-3.2V.8zm5.8 0s1.84.04 1.8 0c1 0 1.6.5 1.6 1.3c0 .4-.2.8-.6 1c.5.1.9.5.9 1.2c0 .8-.5 1.3-1.6 1.3h-2.1V.8zm2 4.2c.8 0 1.1-.3 1.1-.8c0-.5-.3-.8-1.1-.8c.05.04-1.4 0-1.4 0v1.6s1.45.04 1.4 0zm-.2-2.1c.6 0 .9-.3.9-.8c0-.4-.3-.7-.9-.7h-1.2v1.5s1.16-.02 1.2 0zm2.5.3c0-1.4 1-2.4 2.4-2.4c1.4 0 2.4 1 2.4 2.4c0 1.4-1 2.5-2.4 2.5c-1.4 0-2.4-1.1-2.4-2.5zm4.1 0c0-1-.7-1.8-1.7-1.8c-1.1 0-1.7.8-1.7 1.8c0 1.1.6 1.9 1.7 1.9c1 0 1.7-.8 1.7-1.9zm1.3 0c0-1.4 1-2.4 2.4-2.4c1.3 0 2.3 1 2.3 2.4c0 1.4-1 2.5-2.3 2.5c-1.4 0-2.4-1.1-2.4-2.5zm4.1 0c0-1-.7-1.8-1.7-1.8c-1.1 0-1.8.8-1.8 1.8c0 1.1.7 1.9 1.8 1.9c1 0 1.7-.8 1.7-1.9zm1.5-2.4h.7v2.5l2.3-2.5h.8v.1l-1.9 2l2 2.7h-.8l-1.6-2.3l-.8.9v1.4h-.7V.8z" stroke="none" fill="#b4b4b4"/></g></svg>