<?xml version="1.0" standalone="no"?><!DOCTYPE svg PUBLIC "-//W3C//DTD SVG 1.1//EN" "http://www.w3.org/Graphics/SVG/1.1/DTD/svg11.dtd"><svg xmlns="http://www.w3.org/2000/svg" version="1.1" width="305px" height="14.7px" viewBox="0 -3 305 14.7" style="top:-3px"><desc>도움말</desc><defs/><g id="Polygon33334"><path d="m34.5 6.1c-.2 0-.4-.1-.4-.3c.02-.01 0-4.6 0-4.6h3.6v4.9h-3.2zM39 8.2V.5h.9v2.7h1.1v.7h-1.1v4.3h-.9zM36.9 2h-2v3.4h2V2zM45 .7c1.3 0 2.5.6 2.5 1.8c0 1.2-1.2 1.8-2.5 1.8c-1.4 0-2.6-.6-2.6-1.8c0-1.2 1.2-1.8 2.6-1.8zm-.5 7.5V5.8h-3.1v-.8h7.1v.8h-3.1v2.4h-.9zm.5-4.6c.8 0 1.6-.4 1.6-1.1c0-.8-.8-1.1-1.6-1.1c-.9 0-1.7.3-1.7 1.1c0 .7.8 1.1 1.7 1.1zm4.1 2.8h7v.8h-7v-.8zm6.2-1.3C54.2 4.8 52.9 4 52.6 3c-.3 1-1.5 1.8-2.7 2.1l-.3-.7c1.3-.3 2.6-1.2 2.6-2.8c-.03-.04 0-.7 0-.7h.8s.02.65 0 .6c0 1.7 1.3 2.5 2.6 2.9l-.3.7zm1.4-.8h7.1v.7h-7.1v-.7zM57.9 2h3.9v-.6h-3.9v-.6h4.7v1.7h-3.9v.6h4.1v.6s-4.54.02-4.5 0c-.3 0-.4-.1-.4-.3V2zm-.1 4.7h4v-.5h-4v-.6h4.9v1.7h-4v.6h4.2v.6h-4.7c-.2 0-.4-.1-.4-.3c.03-.01 0-1.5 0-1.5zm8.6-2.9s4.66.02 4.7 0c.1-.3.2-.8.3-1.2c-.4.3-1 .4-1.9.4c-.04-.05-2.1 0-2.1 0v-.7h2.4c.7 0 1.2 0 1.6-.2c0-.1.1-.2.1-.3c-.04-.03 0-.3 0-.3h-4v-.7h4.8s-.02.6 0 .6c0 .9-.1 1.8-.5 2.4c-.01.02 1.7 0 1.7 0v.7h-7.1v-.7zm1.1 2.7h4v-.6h-4v-.7h4.8v2h-4v.6h4.3v.7h-4.7c-.3 0-.4-.1-.4-.3c.01-.02 0-1.7 0-1.7zm12-1.3s.05-.85 0-.9c-.5.4-1.4.6-2.2.6h-2.4c-.3 0-.4-.1-.4-.3v-2h2.7v-.9h-2.7v-.7h3.5v2.2h-2.7v1s1.75-.01 1.7 0c1 0 1.9-.1 2.5-.4c.05-.03 0-3.3 0-3.3h.9v4.7h-.9zm0 3.1V6.5h-4v-.7h4.9v2.5h-.9zm2.1-6.2h4.6v.6s-1.05.04-1.1 0c.4.3.6.7.6 1.1c0 .9-.7 1.6-1.8 1.6c-1.1 0-1.9-.7-1.9-1.6c0-.4.2-.8.6-1.1c-.02.04-1 0-1 0v-.6zM87 6.4V.5h.8v2.4h1.1v.7h-1.1v2.8h-.8zm-3.9-.5h.9v1.6h4.1v.7h-4.6c-.2 0-.4-.1-.4-.3c.05-.03 0-2 0-2zM82.6.7h2.5v.7h-2.5v-.7zm1.3 4.1c.6 0 1-.5 1-1c0-.5-.4-1-1-1c-.7 0-1 .5-1 1c0 .5.3 1 1 1zm8.9 2c0-1 .9-1.7 2.4-1.7c1.5 0 2.3.7 2.3 1.7c0 1-.8 1.6-2.3 1.6c-1.5 0-2.4-.6-2.4-1.6zm2.6-2.3c-.9-.3-1.7-1-1.8-1.8c-.2.8-.9 1.6-2 2c-.1-.2-.2-.4-.4-.6c1.3-.5 1.9-1.5 1.9-2.8v-.5h.8s.05.41 0 .4c0 1.3.7 2.1 1.9 2.7l-.4.6zm1.2.4V.5h.9v1.8h1.1v.7h-1.1v1.9h-.9zm.1 1.9c0-.5-.5-.9-1.5-.9c-1 0-1.5.4-1.5.9c0 .5.5.9 1.5.9c1 0 1.5-.4 1.5-.9zm8.1 1.4V4h-1.1v4h-.8V5.6c-.5.4-1.2.5-2.1.5h-1.2c-.2 0-.4-.1-.4-.3c.03-.03 0-4.6 0-4.6h2.9v.7H100v1.4h1.9v.7H100v1.4s1.23-.03 1.2 0c.7 0 1.2-.1 1.7-.4c.01.02 0-4.4 0-4.4h.8v2.7h1.1V.5h.8v7.7h-.8zm6-.2v-4s-.76-.05-.8 0c0 1.2-.6 2.1-1.6 2.1c-1.1 0-1.7-1-1.7-2.5c0-1.4.6-2.5 1.7-2.5c1 0 1.5.9 1.6 2.1c.03.03.8 0 .8 0V.6h.8v7.4h-.8zm1.6.2V.5h.8v7.7h-.8zm-3.1-4.6c0-1-.3-1.8-.9-1.8c-.6 0-.9.8-.9 1.8c0 1 .3 1.8.9 1.8c.6 0 .9-.8.9-1.8zm10.6 4.6V3.5h-1.8v-.7h1.8V.5h.8v7.7h-.8zm-1.5-2c-.9-.4-1.6-1.3-1.8-2.1c-.3.9-1 1.7-1.9 2.3c-.2-.3-.3-.5-.5-.7c1.4-.8 1.9-1.9 1.9-3.3V1.1h.9s-.05 1.25 0 1.2c0 1.5.5 2.5 1.8 3.2l-.4.7zm5.6.2h7.1v.8H124v-.8zm6.2-1.3c-1.1-.3-2.4-1.1-2.7-2.1c-.3 1-1.5 1.8-2.6 2.1l-.4-.7c1.3-.3 2.6-1.2 2.6-2.8v-.7h.8s.04.65 0 .6c0 1.7 1.3 2.5 2.6 2.9l-.3.7zm6.7 3.1s.04-2.03 0-2c-.7.4-1.8.4-2.9.4c-.03.02-2.4 0-2.4 0v-.7h2V4.6c-1-.2-1.7-.9-1.7-1.9c0-1 .9-1.8 2.1-1.8c1.3 0 2.1.8 2.1 1.8c0 1-.7 1.7-1.7 1.9c.04-.03 0 1.3 0 1.3c0 0 .32-.02.3 0c.9 0 1.7-.1 2.2-.3c.04-.05 0-5.1 0-5.1h.9v2.9h1.1v.7h-1.1v4.1h-.9zM134 3.9c.8 0 1.3-.5 1.3-1.2c0-.6-.5-1.1-1.3-1.1c-.7 0-1.2.5-1.2 1.1c0 .7.5 1.2 1.2 1.2zm7.6 1.6c.8 0 1.2-1 1.2-1.8c0-.9-.4-1.9-1.2-1.9c-.9 0-1.2 1-1.2 1.9c0 .8.3 1.8 1.2 1.8zm0 .7c-1.5 0-2-1.2-2-2.5c0-1.3.5-2.6 2-2.6c1.5 0 2 1.3 2 2.6c0 1.3-.5 2.5-2 2.5zm3.2 2V.5h.8v7.7h-.8zm8.3-3.9v.7h-5.3v-.7h1.2c-.2-.3-.2-.9-.2-1.3c-.03.04 0-.7 0-.7h.8s.01 1.15 0 1.1c0 .3 0 .7.1.9h1.5c.1-.2.1-.6.1-.9c.03.05 0-1.1 0-1.1h.9s-.03.74 0 .7c0 .4-.1 1-.2 1.3h1.1zm-6.2 2.2h7.1v.7h-7.1v-.7zm1-4.6v-.7h5.1v.7h-5.1zm6.6.6h4.6v.7H158c.4.3.6.8.6 1.3c0 1.1-.7 1.9-1.8 1.9c-1.1 0-1.9-.8-1.9-1.9c0-.5.2-1 .6-1.3h-1v-.7zm5.4 5.7V.5h.8v2.8h1.1v.8h-1.1v4.1h-.8zM155.5 1h2.5v.7h-2.5v-.7zm1.3 4.7c.6 0 1-.5 1-1.2c0-.6-.4-1.1-1-1.1c-.7 0-1.1.5-1.1 1.1c0 .7.4 1.2 1.1 1.2zm11 .5V4.1h-1.6v.7s-3.17-.03-3.2 0c-.2 0-.3-.1-.3-.3c-.04-.04 0-3.5 0-3.5h3.5v.7h1.6V.5h.8v5.7h-.8zm-3.9-.7h.8v2h4.1v.7h-4.5c-.3 0-.4-.1-.4-.3c-.02-.03 0-2.4 0-2.4zm1.5-3.8h-1.9v2.4h1.9V1.7zm.8 1.7h1.6v-1h-1.6v1zm11.9 1.3c-1.1-.1-2.3-.6-2.7-1.3c-.3.7-1.5 1.2-2.6 1.3c0-.2-.1-.5-.2-.7c1.1-.1 2.2-.6 2.3-1.3c.04-.04-2 0-2 0v-.7h5.1v.7s-2.06-.04-2.1 0c.2.7 1.3 1.2 2.4 1.3c-.1.2-.2.5-.2.7zM175 8.2V6h-3.1v-.7h7.1v.7h-3.1v2.2h-.9zM173.9.6h3.1v.7h-3.1v-.7zm10.9 7.6V.5h.9v2.7h1.1v.7h-1.1v4.3h-.9zm-5.3-2.5c1.9-.7 3.1-2 3.1-3.7c.03-.03-2.7 0-2.7 0v-.8h3.6s-.03.56 0 .6c0 2.2-1.3 3.7-3.6 4.6c-.1-.2-.2-.5-.4-.7zM194.1 4c.1-.3.2-.8.2-1.2c-.4.3-1.1.4-2 .4c.02-.04-2.1 0-2.1 0v-.7s2.48-.02 2.5 0c.7 0 1.2 0 1.6-.2v-.8h-3.9v-.7h4.7s.03.89 0 .9c0 .8 0 1.8-.2 2.4l-.8-.1zm-4.9.7h2.6v-1h.9v1h3.6v.6h-7.1v-.6zm1.2 1.3h.8v1.5h4.1v.7s-4.57.02-4.6 0c-.2 0-.3-.1-.3-.3c-.05-.01 0-1.9 0-1.9zm6.7-5h2.7v.7h-1.9v.9h1.6v.7h-1.6v1.1s.71-.04.7 0c.6 0 1.1-.1 1.6-.3l.1.6c-.5.3-1.2.3-2 .3h-.8c-.3 0-.4 0-.4-.3V1zm1.5 4.7h.8v1.8h4.2v.7h-4.7c-.2 0-.3-.1-.3-.3c-.03-.03 0-2.2 0-2.2zm2.4.3V3.2h-1v-.7h1v-2h.8v5.5h-.8zm1.6.1V.5h.8v5.6h-.8zm8.1-.6c-1.1-.2-2.3-.8-2.6-1.6c-.3.8-1.6 1.4-2.7 1.6l-.2-.7c1.1-.2 2.2-.7 2.4-1.8c0 .03-2.1 0-2.1 0v-.7h5.2v.7s-2.17.03-2.2 0c.2 1.1 1.3 1.6 2.5 1.8l-.3.7zm-6.2 1h7.1v.7h-7.1v-.7zm2-5.6h3.1v.7h-3.1v-.7zm5.7 3.4h7.1v.7h-7.1v-.7zm1.2-2.3h3.9v-.6h-3.9v-.6h4.7v1.7h-3.9v.6h4v.6s-4.47.02-4.5 0c-.2 0-.3-.1-.3-.3c-.04 0 0-1.4 0-1.4zm-.1 4.7h4v-.5h-4v-.6h4.8v1.7h-4v.6h4.3v.6h-4.7c-.3 0-.4-.1-.4-.3V6.7zm8.6-2.7h3.1v-.7s-1.59-.04-1.6 0c-.2 0-.4-.1-.4-.4c.03.03 0-2.2 0-2.2h.9v.6h3v-.6h.9v2.6h-2v.7h3.1v.6h-7v-.6zm1.1 2.5h4v-.6h-4v-.6h4.8v1.9h-4v.6h4.2v.7h-4.6c-.3 0-.4-.1-.4-.3c-.02-.02 0-1.7 0-1.7zm.9-3.9h3v-.7h-3v.7zm10.8 5.6V5.8h-3.2v-.8h7.1v.8h-3.1v2.4h-.8zm3-4c-1.1-.2-2.3-.8-2.6-1.8c-.4 1-1.5 1.6-2.7 1.9c-.1-.3-.2-.5-.2-.7c1.3-.4 2.4-1 2.4-2.5c.04-.01 0-.5 0-.5h.9v.5c0 1.5 1.2 2.1 2.5 2.4l-.3.7zm6 2.7c-.1.6-.6 1.1-1.4 1.5l-.4-.7c.9-.4 1.4-1.1 1.4-2.1c.04.03 0-.4 0-.4h.8s.04.42 0 .4c0 .9.4 1.6 1 2c.6-.4.9-1.1.9-2c-.02.03 0-.4 0-.4h.8s-.02.42 0 .4c0 1 .5 1.7 1.4 2.1c-.1.2-.3.4-.4.6c-.8-.3-1.3-.9-1.4-1.4c-.1.6-.7 1.2-1.3 1.5c-.7-.3-1.2-.9-1.4-1.5zm3-2.1V.5h.8v4.3h-.8zm-3.2-4c1.2 0 2 .8 2 1.9c0 1.1-.8 1.8-2 1.8c-1.3 0-2.1-.7-2.1-1.8c0-1.1.8-1.9 2.1-1.9zm0 3c.7 0 1.2-.5 1.2-1.1c0-.7-.5-1.2-1.2-1.2c-.7 0-1.2.5-1.2 1.2c0 .6.5 1.1 1.2 1.1zm5.4.4h7v.7h-7v-.7zm5.1 1.3h.8v2.8s-4.45.04-4.4 0c-.3 0-.4-.1-.4-.3c-.02.02 0-2.5 0-2.5h.8v.7h3.2v-.7zm0 2.2v-.8h-3.2v.8h3.2zm1.1-4.2c-1.2-.2-2.4-.7-2.7-1.5c-.3.8-1.5 1.4-2.6 1.5c-.1-.2-.2-.5-.2-.7c1.3-.2 2.4-.8 2.4-2c-.03.03 0-.2 0-.2h.8v.2c0 1.2 1.1 1.7 2.5 2c-.1.2-.2.4-.2.7zm6.9 4.7s.02-2.75 0-2.7c-.6.4-1.7.5-2.7.5h-2c-.2 0-.3-.1-.3-.3c-.03-.02 0-4.5 0-4.5h.8v4.1s1.71-.03 1.7 0c1 0 1.9-.1 2.5-.5c.02.03 0-4.3 0-4.3h.8v7.7h-.8zm7.4 0s.03-2.67 0-2.7c-.6.4-1.6.6-2.7.6h-1.8c-.2 0-.4-.1-.4-.4V1.2h3.7v.8h-2.9v3.3s1.93.03 1.9 0c.8 0 1.7-.1 2.2-.4c.03.01 0-4.4 0-4.4h.9v2.7h1.1v.7h-1.1v4.3h-.9z" stroke="none" fill="#fff"/></g></svg>