<?xml version="1.0" standalone="no"?><!DOCTYPE svg PUBLIC "-//W3C//DTD SVG 1.1//EN" "http://www.w3.org/Graphics/SVG/1.1/DTD/svg11.dtd"><svg xmlns="http://www.w3.org/2000/svg" version="1.1" width="839.3px" height="125.3px" viewBox="0 -2 839.3 125.3" style="top:-2px"><desc>현대자동차그룹은 최고의 기술력과 인류애를 바탕으로 ‘함께 움직이는 세상’을 실현하고, ‘미래 사회의 진정한 동반자’로서 인류의 꿈과 더 나은 내일을 위해 오늘의 도전을 멈추지 않겠습니다.</desc><defs/><g id="Polygon33827"><path d="m1.7 19.9v1.3H.5s-.03-1.29 0-1.3c0-.4.1-.7.3-.9c.2-.3.5-.5.9-.5v.6c-.3 0-.4.1-.5.2c-.1.2-.1.4-.1.6h.6zm7.2-.9h1.1v9.3H8.9V19zm-6 .9h4.3v6.1H2.9v-6.1zm3.3.9H3.9v4.4h2.3v-4.4zm12.2-1.7h1v9.2h-1v-4.8h-1.1v4.3h-1v-8.6h1v3.4h1.1v-3.5zm-5.5 4.3s-.05 1.86 0 1.9c.4 0 .9-.1 1.4-.1c.4 0 .9-.1 1.5-.2l.1.9c-.7.1-1.2.2-1.8.2h-1.6c-.04.03-.7 0-.7 0v-3.6h2.5v-1.6h-2.5v-.9h3.5v3.4h-2.4zm18.5-.7v.9h-1.5v4.7h-1v-9.2h1v3.6h1.5zM26 19.8s.04 1.53 0 1.5c0 .4.1.8.2 1.2c.1.4.3.8.4 1.2c.2.3.5.7.8.9c.2.3.5.5.9.7l-.7.9c-.5-.3-.9-.7-1.2-1.1c-.4-.5-.7-1-.9-1.7c-.2.7-.5 1.2-.8 1.8c-.4.5-.9.9-1.4 1.1l-.6-.8c.3-.2.6-.4.9-.7c.3-.3.6-.7.8-1c.2-.4.3-.8.4-1.2c.1-.4.2-.8.2-1.3v-1.5h1zm12.5-.8h1.1v9.3h-1.1V19zm-.7 1.1v.9h-5.6v-.9h2.3v-1h1v1h2.3zm-2.3 4.7v.9c.5 0 .9-.1 1.3-.1c.4 0 .8-.1 1.2-.1l.1.7c-.5.1-1.1.2-1.6.2c-.5.1-1 .1-1.5.1c-.5.1-1 .1-1.5.1h-1.3l-.2-.9h2.5v-.9c-.5-.1-1-.3-1.3-.6c-.3-.2-.4-.6-.4-1.1c0-.2 0-.5.1-.7c.1-.2.3-.4.5-.5c.2-.2.4-.3.7-.4c.3 0 .6-.1.9-.1c.4 0 .7.1.9.1c.3.1.6.2.7.4c.2.1.4.3.5.5c.1.2.2.5.2.7c0 .5-.2.9-.5 1.1c-.3.3-.7.5-1.3.6zm-1.7-1.7c0 .3.1.5.3.7c.2.2.6.2.9.2c.4 0 .7 0 .9-.2c.3-.2.4-.4.4-.7c0-.3-.1-.5-.4-.6c-.2-.2-.5-.3-.9-.3c-.3 0-.7.1-.9.3c-.2.1-.3.3-.3.6zM47.7 19h1.1v9.3h-1.1V19zm-3.6.7c.4 0 .7 0 1 .2c.4.1.6.2.8.4c.3.2.4.4.6.7c.1.3.2.6.2.9c0 .3-.1.6-.2.9c-.2.3-.3.5-.6.7c-.2.2-.4.3-.8.5c-.3.1-.6.1-1 .1c-.3 0-.6 0-1-.1c-.3-.2-.5-.3-.7-.5c-.3-.2-.4-.4-.6-.7c-.1-.3-.2-.6-.2-.9c0-.3.1-.6.2-.9c.2-.3.3-.5.6-.7c.2-.2.4-.3.7-.4c.4-.2.7-.2 1-.2zm0 .9c-.4 0-.7.1-1 .3c-.3.3-.4.6-.4 1c0 .4.1.7.4 1c.3.2.6.3 1 .3c.5 0 .8-.1 1.1-.3c.3-.3.4-.6.4-1c0-.4-.1-.7-.4-1c-.3-.2-.6-.3-1.1-.3zm-2.7 5.7l-.2-.8h1.4c.4-.1.9-.1 1.5-.1c.5 0 1 0 1.5-.1c.5 0 1-.1 1.5-.1l.1.7c-.5.1-1 .2-1.5.2c-.5.1-1.1.1-1.6.2h-2.7zM60 19.1v6.7h-1v-6.7h1zm-1.9 4.6l-.5.8c-.5-.1-1-.4-1.4-.7c-.4-.4-.7-.8-.9-1.2c-.2.4-.5.9-.8 1.3c-.4.3-.9.6-1.4.8l-.6-.8c.4-.1.7-.3 1-.5c.3-.2.5-.4.7-.7c.2-.3.3-.5.4-.8c.1-.3.2-.6.2-1v-.3h-2v-.8h5v.8h-1.9s-.03.35 0 .3c0 .3 0 .6.1.9c.1.3.3.6.5.8c.2.2.4.5.7.6c.2.2.6.4.9.5zm-3 3.5h5.2v.9H54v-2.9h1.1v2zm11.5-5.8h1.6v-2.3h1v5.4h-1v-2.3h-1.6v-.8zm.5 2l-.5.8c-.5-.1-1-.4-1.3-.7c-.4-.4-.7-.8-.9-1.2c-.2.5-.5.9-.8 1.3c-.4.4-.9.7-1.4.9l-.6-.8c.4-.2.7-.3 1-.6c.3-.2.5-.4.7-.7c.2-.2.3-.5.4-.8c.1-.3.2-.6.2-.9c-.03-.05 0-.2 0-.2h-2v-.8h5v.8h-2s.03.14 0 .1c0 .3.1.6.2.9c.1.3.2.5.4.8c.2.2.4.4.7.6c.2.2.5.4.9.5zm-.9 1.4c.5 0 .9 0 1.3.1c.4.1.7.2 1 .3l.6.6c.1.2.2.4.2.7c0 .3-.1.5-.2.8c-.2.2-.4.4-.6.5c-.3.2-.6.3-1 .4c-.4 0-.8.1-1.3.1c-.5 0-.9-.1-1.3-.1c-.4-.1-.7-.2-1-.4c-.3-.1-.5-.3-.6-.5c-.2-.3-.2-.5-.2-.8c0-.3 0-.5.2-.7c.1-.2.3-.4.6-.6c.3-.1.6-.2 1-.3c.4-.1.8-.1 1.3-.1zm0 2.7c.6 0 1.2-.1 1.5-.3c.4-.1.5-.4.5-.7c0-.3-.1-.5-.5-.7c-.3-.1-.9-.2-1.5-.2c-.7 0-1.2.1-1.5.2c-.4.2-.6.4-.6.7c0 .3.2.6.6.7c.3.2.8.3 1.5.3zm10-7.4v.8h-5.4v-.8h2.2V19h1.1v1.1h2.1zM78 22h1.3v.9H78v3.1h-1.1v-6.9h1.1v2.9zm-2.2 1.1c0 .3-.1.5-.2.7c-.1.2-.3.4-.5.6c-.2.1-.4.3-.7.3c-.2.1-.5.2-.9.2c-.3 0-.6-.1-.9-.2c-.3 0-.5-.2-.7-.3c-.2-.2-.3-.4-.4-.6c-.2-.2-.2-.4-.2-.7c0-.2 0-.5.2-.7c.1-.2.2-.4.4-.5c.2-.2.4-.3.7-.4c.3-.1.6-.1.9-.1c.4 0 .7 0 .9.1c.3.1.5.2.7.4c.2.1.4.3.5.5c.1.2.2.5.2.7zm-3.5 0c0 .3.1.5.3.7c.3.2.6.2.9.2c.4 0 .7 0 .9-.2c.2-.2.4-.4.4-.7c0-.3-.2-.5-.4-.7c-.2-.1-.5-.2-.9-.2c-.3 0-.6.1-.9.2c-.2.2-.3.4-.3.7zm.9 2.3v1.8h5.2v.9h-6.2v-2.7h1zm13.6-1.9h3.6v.9h-8.3v-.9h3.6v-.9h-2.6v-3.1h6.3v.8h-5.3v1.4h5.3v.9h-2.6v.9zm-.6 1.4c1 0 1.8.2 2.3.5c.6.2.9.7.9 1.2c0 .5-.3.9-.8 1.2c-.6.3-1.4.5-2.4.5c-.5 0-.9-.1-1.3-.1c-.4-.1-.8-.2-1-.4c-.3-.1-.5-.3-.7-.5c-.1-.2-.2-.4-.2-.7c0-.3.1-.5.2-.7c.2-.2.4-.4.7-.5c.2-.2.6-.3 1-.4c.4 0 .8-.1 1.3-.1zm0 2.6c.7 0 1.2-.1 1.6-.3c.3-.1.5-.3.5-.6c0-.3-.2-.5-.5-.7c-.4-.1-.9-.2-1.6-.2c-.7 0-1.2.1-1.6.2c-.3.2-.5.4-.5.7c0 .3.2.5.5.6c.4.2.9.3 1.6.3zm12.2-5.7h1.3v.8h-1.3v3.2h-1v-6.7h1v2.7zm-2.5-2.1v4.6h-4.3v-4.6h1v1.5h2.3v-1.5h1zm-1 3.8V22h-2.3v1.5h2.3zm-1.2 1.7v2h5.1v.9h-6.2v-2.9h1.1zm15.3-2.5v.8h-1.5v4.8h-1v-9.2h1v3.6h1.5zm-5.4-1.9s.04.92 0 .9c0 .4.1.7.2 1.1c.1.4.3.7.5 1.1c.2.3.4.6.7.9c.3.3.6.5.9.6l-.5.9c-.6-.3-1-.6-1.4-1.1c-.4-.5-.7-1-.9-1.6c-.2.6-.5 1.2-.9 1.7c-.4.6-.8.9-1.4 1.2l-.6-.8c.4-.2.7-.4 1-.7c.3-.3.5-.6.7-1c.3-.3.4-.7.5-1.1c.1-.4.2-.8.2-1.2c-.01.02 0-.9 0-.9h-2v-.8h5v.8h-2zm5.8-1v-1.3h1.2s-.02 1.26 0 1.3c0 .3-.1.7-.3.9c-.3.3-.6.4-.9.5v-.6c.2 0 .4-.1.4-.3c.1-.1.2-.3.2-.5c-.04-.04-.6 0-.6 0zm6.7 6.5h3.7v.9h-8.3v-.9h3.6v-1.6h-2.6v-2.9h5.3v-1.3h-5.3v-.8h6.3v2.9h-5.3v1.3h5.5v.8h-2.9v1.6zm11.1-7.3h1.1v9.3h-1.1v-5.4h-1.9v-.8h1.9V19zm-3.2.8s-.02 1.52 0 1.5c0 .4 0 .9.1 1.3c.1.4.3.8.5 1.1c.2.4.4.7.7 1c.3.3.6.5 1 .7l-.7.8c-.5-.3-.9-.6-1.3-1.1c-.4-.5-.6-1-.8-1.7c-.2.7-.5 1.3-.9 1.8c-.4.5-.8.9-1.4 1.2l-.6-.9c.3-.2.7-.4 1-.7c.2-.3.5-.6.7-1c.2-.4.3-.8.5-1.2c.1-.4.1-.9.1-1.3c.02.02 0-1.5 0-1.5h1.1zm15.5-.7v6.6h-1.1v-6.6h1.1zM137 22c0 .3-.1.6-.2.9c-.1.3-.3.5-.5.7c-.3.2-.5.4-.8.5c-.3.1-.6.2-1 .2c-.3 0-.6-.1-.9-.2c-.3-.1-.6-.3-.8-.5c-.2-.2-.4-.4-.5-.7c-.2-.3-.2-.6-.2-.9c0-.4 0-.7.2-1c.1-.2.3-.5.5-.7c.2-.2.5-.4.8-.5c.3-.1.6-.1.9-.1c.4 0 .7 0 1 .1c.3.1.5.3.8.5c.2.2.4.5.5.7c.1.3.2.6.2 1zm-3.9 0c0 .4.1.7.4 1c.3.2.6.4 1 .4c.2 0 .4-.1.6-.1c.2-.1.3-.2.4-.3c.2-.1.3-.3.3-.5c.1-.1.1-.3.1-.5c0-.2 0-.4-.1-.6c0-.2-.1-.3-.3-.5c-.1-.1-.2-.2-.4-.2c-.2-.1-.4-.1-.6-.1c-.4 0-.7.1-1 .3c-.3.3-.4.6-.4 1.1zm1.4 5.2h5.3v.9h-6.3v-3h1v2.1zm12.9-6.1v-.9h-5.3v-.8h6.3v2.5h-5.3v.9h5.5v.9h-6.5v-2.6h5.3zm2 3.4v.8h-2v3h-1.1v-3h-2.1v3h-1.1v-3h-2v-.8h8.3zm7.4-5.5h1v9.3h-1V19zm-3.6.7c.4 0 .7 0 1 .2c.3.1.6.2.8.4c.3.2.4.4.6.7c.1.3.1.6.1.9c0 .3 0 .6-.1.9c-.2.3-.3.5-.6.7c-.2.2-.5.3-.8.5c-.3.1-.6.1-1 .1c-.3 0-.7 0-1-.1c-.3-.2-.5-.3-.8-.5c-.2-.2-.4-.4-.5-.7c-.1-.3-.2-.6-.2-.9c0-.3.1-.6.2-.9c.1-.3.3-.5.5-.7c.3-.2.5-.3.8-.4c.3-.2.7-.2 1-.2zm0 .9c-.4 0-.7.1-1 .3c-.3.3-.4.6-.4 1c0 .4.1.7.4 1c.3.2.6.3 1 .3c.5 0 .8-.1 1.1-.3c.3-.3.4-.6.4-1c0-.4-.1-.7-.4-1c-.3-.2-.6-.3-1.1-.3zm-2.8 5.7l-.1-.8h1.4c.4-.1.9-.1 1.4-.1c.6 0 1.1 0 1.6-.1c.5 0 1-.1 1.5-.1l.1.7c-.5.1-1 .2-1.5.2c-.6.1-1.1.1-1.6.2h-2.8zm19.5-2.8h-3.7v1.3h2.6v3.3h-6.2v-3.3h2.5v-1.3h-3.6v-.9h2.4c.2-.5.2-.9.3-1.3c0-.4.1-.7.1-1c-.04.02-2 0-2 0v-.8h3v.3c0 .3 0 .7-.1 1.2c0 .4-.1 1-.2 1.6h2.6c.1-.5.2-.9.2-1.3c0-.4.1-.7.1-1c-.04.02-2 0-2 0v-.8h3s-.02.43 0 .4v1.1c-.1.5-.1 1-.3 1.6h1.3v.9zm-2.1 3.8v-1.6h-4.2v1.6h4.2zm11.4-4.5v.9h-1.4v4.6h-1v-9.2h1v3.7h1.4zm-3.7 1.4l-1-.1c.1-.7.2-1.3.2-1.8c0-.6.1-1 .1-1.4c-.04-.03-3.7 0-3.7 0v-.9h4.7v2.1c-.1.6-.1 1.3-.3 2.1zm-2-1.5s-.03 2.71 0 2.7c.5 0 .9 0 1.4-.1c.5 0 .9 0 1.4-.1v.8c-.4 0-.9.1-1.4.2c-.5 0-1 0-1.5.1h-2.7l-.1-.8h.9c.3-.1.6-.1.9-.1c.04.04 0-2.7 0-2.7h1.1zm15.1-3.7h1v9.3h-1v-5.1h-2.5v-.9h2.5V19zm-5.1 1.8s-.03 4.35 0 4.4c.3 0 .7-.1 1-.1h.9c.3 0 .6-.1.9-.1c.3 0 .6-.1.8-.1l.2.8c-.4.1-.7.1-1 .2c-.3 0-.6 0-.9.1h-2.3c.04.03-.7 0-.7 0v-6.1h4.2v.9h-3.1zm18.3 1.8v.9h-1.4v4.8h-1.1v-9.2h1.1v3.5h1.4zm-7.2-2.7v5.2c.6 0 1.3 0 1.9-.1l2.1-.3l.1.9l-2.3.3c-.7 0-1.4.1-2.1.1c.01-.03-.8 0-.8 0v-6.1h1.1zm12 3.2c-.5 0-1-.1-1.4-.1c-.4-.1-.7-.3-1-.4c-.3-.2-.5-.4-.7-.6c-.1-.2-.2-.5-.2-.8c0-.3.1-.6.2-.8c.2-.2.4-.4.7-.6c.3-.1.6-.3 1-.3c.4-.1.9-.2 1.4-.2c.5 0 .9.1 1.3.2c.4 0 .8.2 1.1.3c.2.2.5.4.6.6c.2.2.3.5.3.8c0 .3-.1.6-.3.8c-.1.2-.4.4-.6.6c-.3.1-.7.3-1.1.4c-.4 0-.8.1-1.3.1zm0-2.9c-.7 0-1.2.1-1.6.2c-.4.2-.6.5-.6.8c0 .3.2.6.6.8c.4.1.9.2 1.6.2c.6 0 1.2-.1 1.6-.2c.4-.2.6-.5.6-.8c0-.3-.2-.6-.6-.8c-.4-.1-1-.2-1.6-.2zm-4.2 3.6h8.3v.9h-8.3v-.9zm2.1 1.6v1.8h5.3v.9h-6.4v-2.7h1.1zm16-6.3h1v9.2h-1v-4.7h-1.1v4.2h-1v-8.6h1v3.5h1.1v-3.6zm-5.4 1s.03 4.94 0 4.9h1.3c.4-.1.9-.1 1.4-.2l.1.9c-.6.1-1.2.2-1.7.2h-1.5c-.01.04-.6 0-.6 0v-5.8h1zm15.3-1.1v4.7h-1V19h1zm-2.5 2.4c0 .3-.1.6-.2.9c-.1.2-.3.4-.5.6c-.2.2-.5.3-.8.4c-.3.1-.6.2-1 .2c-.3 0-.6-.1-.9-.2c-.3-.1-.6-.2-.8-.4c-.2-.2-.4-.4-.5-.6c-.1-.3-.2-.6-.2-.9c0-.3.1-.6.2-.8c.1-.3.3-.5.5-.7c.2-.2.5-.3.8-.4c.3-.1.6-.2.9-.2c.4 0 .7.1 1 .2c.3.1.6.2.8.4c.2.2.4.4.5.7c.1.2.2.5.2.8zm-3.9 0c0 .2.1.4.1.5c.1.2.2.3.3.4c.2.1.3.2.5.3h.5c.4 0 .8-.1 1-.3c.3-.2.4-.5.4-.9c0-.3-.1-.6-.4-.9c-.2-.2-.6-.3-1-.3c-.2 0-.4 0-.5.1c-.2.1-.3.1-.5.2c-.1.2-.2.3-.3.4c0 .2-.1.3-.1.5zm1.4 5.9h5.3v.8h-6.3v-2.4h5v-.7h-5v-.9h6v2.4h-5v.8zm10.8-4.9c-1.1 0-1.9-.2-2.5-.4c-.5-.3-.8-.7-.8-1.2c0-.5.3-.9.8-1.2c.6-.3 1.4-.4 2.5-.4c1.1 0 1.9.1 2.4.4c.6.3.9.7.9 1.2c0 .5-.3.9-.9 1.2c-.5.2-1.3.4-2.4.4zm0-2.4c-.7 0-1.3 0-1.6.2c-.4.1-.6.3-.6.6c0 .2.2.4.6.6c.3.1.9.2 1.6.2c.7 0 1.3-.1 1.6-.2c.4-.2.6-.4.6-.6c0-.3-.2-.5-.6-.6c-.3-.2-.9-.2-1.6-.2zm-4.2 2.9h8.4v.8H232v-.8zm2.1 3.7v.8h5.5v.8H233v-2.3h5.3v-.7H233v-.8h6.3v2.2h-5.2zm15.8-7.5h1v9.2h-1v-9.2zm-3.6 4.2c-.4 0-.7 0-1-.1c-.3-.1-.5-.3-.7-.4c-.2-.2-.4-.4-.5-.6c-.1-.3-.2-.5-.2-.8c0-.3.1-.6.2-.8c.1-.2.3-.4.5-.6c.2-.2.4-.3.7-.4c.3-.1.6-.2 1-.2c.3 0 .7.1.9.2c.3.1.6.2.8.4c.2.2.4.4.5.6c.1.2.2.5.2.8c0 .3-.1.5-.2.8c-.1.2-.3.4-.5.6c-.2.1-.5.3-.8.4c-.2.1-.6.1-.9.1zm0-3c-.4 0-.7.1-1 .3c-.3.2-.4.5-.4.8c0 .3.1.6.4.8c.3.2.6.2 1 .2c.4 0 .7 0 1-.2c.2-.2.4-.5.4-.8c0-.3-.2-.6-.4-.8c-.3-.2-.6-.3-1-.3zm3 3.4v.7c-.4.1-.8.2-1.2.2c-.4.1-.8.1-1.2.2c-.04-.05 0 3.2 0 3.2h-1.1v-3.2h-1.2c-.4.1-.8.1-1.2.1l-.1-.9h1.3c.5 0 1 0 1.6-.1c.5 0 1 0 1.5-.1c.5 0 1.1-.1 1.6-.1zm10-4.6h1v9.2h-1v-4.6h-1v4.1h-.9v-8.6h.9v3.7h1v-3.8zm-4.1.2v1.3h1.8v.8h-4.6v-.8h1.8v-1.3h1zm-.5 2.6c.3 0 .6.1.8.2c.3.1.5.2.7.4c.1.2.3.4.4.7c.1.2.1.5.1.9c0 .3 0 .6-.1.8c-.1.3-.3.5-.4.7c-.2.2-.4.3-.7.4c-.2.1-.5.2-.8.2c-.3 0-.5-.1-.8-.2c-.2-.1-.4-.2-.6-.4c-.2-.2-.3-.4-.4-.7c-.1-.2-.2-.5-.2-.8c0-.4.1-.7.2-.9c.1-.3.2-.5.4-.7c.2-.2.4-.3.6-.4c.3-.1.5-.2.8-.2zm0 3.4c.3 0 .6-.1.8-.3c.2-.2.3-.6.3-.9c0-.4-.1-.7-.3-1c-.2-.2-.5-.3-.8-.3c-.3 0-.6.1-.8.3c-.1.3-.2.6-.2 1c0 .3.1.7.2.9c.2.2.5.3.8.3zm13.7 1h3.7v.8h-8.4v-.8h3.7s-.04-1.79 0-1.8c-.5 0-.8-.1-1.2-.3c-.3-.1-.6-.3-.9-.5c-.3-.2-.4-.4-.6-.7c-.1-.3-.2-.6-.2-.9c0-.4.1-.8.3-1.1c.1-.3.4-.5.7-.7c.3-.3.6-.4 1-.5c.4-.2.9-.2 1.4-.2c.5 0 .9 0 1.3.2c.5.1.8.2 1.1.5c.3.2.6.4.7.7c.2.3.3.7.3 1.1c0 .3-.1.6-.2.9c-.2.3-.4.5-.6.7c-.3.3-.6.4-.9.6c-.4.1-.8.2-1.2.2c.01.02 0 1.8 0 1.8zm-2.9-4.2c0 .2.1.4.2.6c.1.2.3.4.5.6c.2.1.4.2.7.3c.3.1.6.1 1 .1c.3 0 .6 0 .9-.1c.3-.1.6-.2.8-.3c.2-.2.4-.4.5-.6c.1-.2.1-.4.1-.6c0-.3 0-.5-.1-.7c-.1-.2-.3-.4-.5-.5c-.2-.2-.5-.3-.8-.4c-.3 0-.6-.1-.9-.1c-.4 0-.7.1-1 .1c-.3.1-.5.2-.7.4c-.2.1-.4.3-.5.5c-.1.2-.2.4-.2.7zm14.8-1v.8H274v-2.7h1v1.9h5.3zm-7.4 1.6h8.4v.8h-8.4v-.8zm2.1 3.8v.8h5.5v.8h-6.6v-2.3h5.3v-.7h-5.3v-.8h6.3v2.2H275zm13.6-7.5h1.1v9.3h-1.1V19zm-3.5.7c.3 0 .7 0 1 .2c.3.1.5.2.8.4c.2.2.4.4.5.7c.1.3.2.6.2.9c0 .3-.1.6-.2.9c-.1.3-.3.5-.5.7c-.3.2-.5.3-.8.5c-.3.1-.7.1-1 .1c-.4 0-.7 0-1-.1c-.3-.2-.6-.3-.8-.5c-.3-.2-.4-.4-.6-.7c-.1-.3-.1-.6-.1-.9c0-.3 0-.6.1-.9c.2-.3.3-.5.6-.7c.2-.2.5-.3.8-.4c.3-.2.6-.2 1-.2zm0 .9c-.5 0-.8.1-1.1.3c-.3.3-.4.6-.4 1c0 .4.1.7.4 1c.3.2.6.3 1.1.3c.4 0 .7-.1 1-.3c.3-.3.4-.6.4-1c0-.4-.1-.7-.4-1c-.3-.2-.6-.3-1-.3zm-2.8 5.7l-.2-.8h1.4c.5-.1 1-.1 1.5-.1c.5 0 1 0 1.5-.1c.6 0 1.1-.1 1.6-.1v.7c-.5.1-1 .2-1.5.2c-.5.1-1 .1-1.6.2h-2.7zm15.7 0h3.7v.9h-8.3v-.9h3.6v-2.2h-2.6v-4.4h6.3v.9h-5.3v2.7h5.4v.8H298v2.2zm9.4-4.8h1.7v-2.4h1.1v6.7h-1.1v-3.4h-1.7v-.9zm.6 2.2l-.5.8c-.5-.2-1-.4-1.3-.8c-.4-.3-.7-.7-.9-1.2c-.2.5-.5 1-.8 1.3c-.4.4-.9.7-1.4.9l-.6-.8c.4-.2.7-.3 1-.5c.3-.2.5-.5.7-.7c.2-.3.3-.6.4-.9c.1-.3.2-.6.2-.9c-.02.01 0-.3 0-.3h-2v-.9h5v.9h-2s.05.31 0 .3c0 .3.1.6.2.8c.1.3.2.6.4.8c.2.3.4.5.7.7c.3.2.6.3.9.5zm-2.8 3.5h5.2v.9h-6.2v-2.9h1v2zm10.7-4.8c-1.1 0-1.9-.2-2.5-.4c-.5-.3-.8-.7-.8-1.2c0-.5.3-.9.8-1.2c.6-.3 1.4-.4 2.5-.4c1 0 1.8.1 2.4.4c.6.3.9.7.9 1.2c0 .5-.3.9-.9 1.2c-.6.2-1.4.4-2.4.4zm0-2.4c-.7 0-1.3 0-1.7.2c-.3.1-.5.3-.5.6c0 .2.2.4.5.6c.4.1 1 .2 1.7.2c.7 0 1.2-.1 1.6-.2c.4-.2.6-.4.6-.6c0-.3-.2-.5-.6-.6c-.4-.2-.9-.2-1.6-.2zm-4.2 2.9h8.3v.8h-8.3v-.8zm2.1 3.7v.8h5.5v.8h-6.6v-2.3h5.3v-.7h-5.3v-.8h6.3v2.2h-5.2zm15.8-7.5h1v5.2h-1v-2.2h-2v1.7h-4.2v-4.1h4.2v1.5h2v-2.1zm-3 3.9v-2.5h-2.2v2.5h2.2zm-2 5.1v-3.3h6v3.3h-6zm1-2.5v1.7h4v-1.7h-4zM333 24l-.4-.8c.5-.1.9-.2 1.3-.3c.3-.2.7-.3.9-.5c.3-.2.5-.4.7-.7c.2-.2.3-.5.3-.7h-2.9v-.9h2.9v-1h1v1h2.9v.9h-2.9c.1.2.2.5.3.7c.2.3.4.5.7.7c.3.2.6.3 1 .5c.3.1.7.2 1.2.3l-.4.8c-.8-.1-1.4-.3-2-.6c-.6-.3-1-.7-1.3-1.2c-.3.5-.7.9-1.3 1.2c-.6.3-1.2.5-2 .6zm7.5.6v.9h-3.7v2.8h-1v-2.8h-3.6v-.9h8.3zm7.3-5.5h1.1v9.2h-1.1v-9.2zm-3.1 1.7s.03.91 0 .9c0 .4.1.8.2 1.2c.1.3.3.7.5 1c.2.4.4.6.7.9c.3.3.7.5 1 .6l-.6.9c-.5-.3-1-.6-1.4-1.1c-.4-.5-.7-1-.9-1.6c-.2.6-.5 1.2-.9 1.7c-.4.6-.9.9-1.4 1.2l-.6-.8c.4-.2.7-.4 1-.7c.3-.3.5-.6.7-1c.2-.3.4-.7.5-1.1c.1-.4.2-.8.2-1.2c-.03.01 0-.9 0-.9h-2.1v-.8h5.2v.8h-2.1zm15.1.3h1.3v.8h-1.3v1.7h-1.1v-4.5h1.1v2zm-2.3.6c0 .3 0 .6-.1.8c-.2.3-.3.5-.5.7c-.3.2-.5.4-.8.5c-.3.1-.6.1-1 .1c-.3 0-.6 0-.9-.1c-.3-.1-.6-.3-.8-.5c-.2-.2-.4-.4-.5-.7c-.1-.2-.2-.5-.2-.8c0-.3.1-.6.2-.9c.1-.2.3-.5.5-.7c.2-.1.5-.3.8-.4c.3-.1.6-.2.9-.2c.4 0 .7.1 1 .2c.3.1.5.3.8.4c.2.2.3.5.5.7c.1.3.1.6.1.9zm-3.8 0c0 .2.1.3.1.5c.1.2.2.3.3.4c.2.1.3.2.5.3c.1 0 .3.1.5.1c.2 0 .4-.1.6-.1c.1-.1.3-.2.4-.3c.1-.1.2-.2.3-.4c.1-.2.1-.3.1-.5c0-.4-.1-.7-.4-1c-.2-.2-.6-.3-1-.3c-.4 0-.7.1-1 .3c-.2.3-.4.6-.4 1zm5.1 2.2v.7h1.8v.8H356v-.8h1.8v-.7h1zm-4.3.7v2.6c.3-.1.5-.1.8-.1c.3-.1.6-.1.9-.2l.1.8l-1.2.3H354c-.04.03-.5 0-.5 0v-3.4h1zm3.8 1.1c.3 0 .5 0 .7.1c.2 0 .4.1.6.2c.1.1.2.3.3.4c.1.2.1.4.1.6c0 .2 0 .3-.1.5c-.1.2-.2.3-.3.4l-.6.3c-.2 0-.4.1-.7.1c-.2 0-.5-.1-.7-.1c-.2-.1-.4-.2-.5-.3c-.2-.1-.3-.2-.4-.4c-.1-.2-.1-.3-.1-.5c0-.2 0-.4.1-.6c.1-.1.2-.3.4-.4c.1-.1.3-.2.5-.2c.2-.1.5-.1.7-.1zm0 1.8c.2 0 .4 0 .6-.1c.1-.1.2-.3.2-.4c0-.2-.1-.4-.2-.5c-.2-.1-.4-.1-.6-.1c-.2 0-.4 0-.6.1c-.1.1-.2.3-.2.5c0 .1.1.3.2.4c.2.1.4.1.6.1zm11.3-8.4v5.2h-1v-5.2h1zm-7.3 5.4l-.5-.7c.9-.4 1.6-.8 2.1-1.4c.5-.5.7-1.1.8-1.8c.02-.04-2.4 0-2.4 0v-.9h3.5c0 .7-.1 1.3-.3 1.9c.01-.04 1.2 0 1.2 0v-2.4h1v5h-1v-1.8s-1.61.02-1.6 0c-.3.5-.7.9-1.1 1.2c-.5.4-1 .7-1.7.9zm6.1.1s.04.55 0 .6c0 .2.1.4.2.7c0 .2.1.4.3.6c.1.2.3.4.6.5c.2.2.4.3.7.4l-.5.8c-.4-.1-.8-.4-1.1-.7c-.3-.3-.5-.6-.7-1c-.1.4-.3.7-.6 1.1c-.3.3-.6.5-1.1.7c-.4-.2-.7-.4-1-.7c-.3-.3-.5-.6-.7-1c-.1.3-.4.7-.6 1c-.3.2-.7.5-1.1.6l-.5-.8c.2-.1.5-.2.7-.4c.3-.1.4-.3.6-.5c.1-.2.3-.4.3-.7c.1-.2.1-.4.1-.6c.05-.05 0-.6 0-.6h1.1s-.03.55 0 .6c0 .3.1.7.2 1.1c.2.4.5.7.9 1c.4-.3.7-.6.9-1c.2-.4.3-.8.3-1.1v-.6h1zm10.4-2.8l-.3.8c-.8-.1-1.5-.3-2.1-.6c-.5-.3-1-.7-1.3-1.2c-.3.5-.7.9-1.3 1.2c-.6.3-1.3.5-2 .6l-.4-.8c.5-.1.9-.2 1.3-.3c.4-.2.7-.3 1-.5c.3-.2.5-.5.6-.7c.2-.3.3-.5.3-.8c-.03 0 0-.4 0-.4h1.1s-.05.4 0 .4c0 .3 0 .5.2.8c.2.2.4.5.7.7c.2.2.6.3 1 .5l1.2.3zm-7.9 1.4h8.4v.8h-8.4v-.8zm6.3 2.3v-.9h1v3.5H372v-3.5h1v.9h4.2zm0 1.8v-1H373v1h4.2zm9.5-8.2h1v9.2h-1v-9.2zm-5 .8v5.1c.7 0 1.3 0 2-.1c.7 0 1.4-.1 2.1-.3l.2.9c-.8.2-1.6.3-2.4.3c-.7.1-1.4.1-2.1.1c-.04.04-.8 0-.8 0v-6h1zm16.2 2.7v.9h-1.5v4.8h-1V19h1v3.6h1.5zm-7.2-1.8s.03 4.33 0 4.3h2c.7-.1 1.3-.2 1.9-.3l.1.9c-.3.1-.7.1-1 .2h-1c-.4.1-.7.1-1.1.1h-1.9v-6.1h4.3v.9h-3.3zm8.9 5.5v1.3h-1.2v-1.3h1.2z" stroke="none" fill="#fff"/></g><g id="Polygon33826"><path d="m5.7 1.6v.8H.5v-.8h2.1V.5h1.1v1.1h2zm1.4 6V5.7H5.7v-.8h1.4V3.8H5.7v-.9h1.4V.6h1v7h-1zM5.3 4.7c0 .2-.1.5-.2.7c-.1.2-.2.4-.4.5c-.2.2-.4.3-.7.4c-.3.1-.5.1-.9.1c-.3 0-.6 0-.8-.1c-.3-.1-.5-.2-.7-.4c-.2-.1-.3-.3-.4-.5c-.1-.2-.2-.5-.2-.7c0-.3.1-.6.2-.8c.1-.2.2-.4.4-.5c.2-.2.4-.3.7-.4c.2-.1.5-.1.8-.1c.4 0 .6 0 .9.1c.3.1.5.2.7.4c.2.1.3.3.4.5c.1.2.2.5.2.8zM2 4.7c0 .3.1.5.3.7c.2.1.5.2.8.2c.4 0 .7-.1.9-.2c.2-.2.3-.4.3-.7c0-.4-.1-.6-.3-.8c-.2-.1-.5-.2-.9-.2c-.3 0-.6.1-.8.2c-.2.2-.3.4-.3.8zm1.2 4h5.2v.9H2.2V7h1v1.7zM16.6.5h1v9.3h-1V5h-1.1v4.3h-1V.7h1v3.5h1.1V.5zm-5.6 2s.04 4.2 0 4.2c.6 0 1.1 0 1.5-.1c.4 0 .9-.1 1.4-.2l.1.9c-.3.1-.6.1-.8.1c-.3.1-.6.1-.8.1c-.3 0-.6.1-.9.1h-.9c.02-.03-.6 0-.6 0v-6h3.4v.9H11zm16.4 1.7v.8H26v4.8h-1V.6h1v3.6h1.4zm-5.3-1.9v.9c0 .4.1.7.2 1.1c.1.4.2.7.4 1.1c.2.3.5.6.8.9c.2.3.6.5.9.6l-.6.9c-.5-.3-.9-.6-1.3-1.1c-.4-.5-.7-1-.9-1.6c-.2.6-.5 1.2-.9 1.7c-.4.6-.9.9-1.4 1.2l-.6-.8c.4-.2.7-.4 1-.7c.3-.3.5-.6.7-1c.2-.3.4-.7.5-1.1c.1-.4.2-.8.2-1.2c-.05.02 0-.9 0-.9H19v-.8h5.1v.8h-2zM32.8 5h3.6v.9h-8.3v-.9h3.6v-.9h-2.6V1h6.3v.8h-5.3v1.4h5.3v.9h-2.6v.9zm-.6 1.4c1 0 1.8.2 2.3.5c.6.2.9.7.9 1.2c0 .5-.3.9-.8 1.2c-.6.3-1.4.5-2.4.5c-.5 0-.9-.1-1.3-.1c-.4-.1-.8-.2-1-.4c-.3-.1-.5-.3-.7-.5c-.1-.2-.2-.4-.2-.7c0-.3.1-.5.2-.7c.2-.2.4-.4.7-.5c.2-.2.6-.3 1-.4c.4 0 .8-.1 1.3-.1zm0 2.6c.7 0 1.2-.1 1.6-.3c.3-.1.5-.3.5-.6c0-.3-.2-.5-.5-.7c-.4-.1-.9-.2-1.6-.2c-.7 0-1.2.1-1.6.2c-.3.2-.5.4-.5.7c0 .3.2.5.5.6c.4.2.9.3 1.6.3zm13.6-4.8v.9h-1.4v4.7h-1.1V.5h1.1v3.7h1.4zm-5.4-1.3s.02.58 0 .6c0 .3.1.7.2 1c.1.4.2.7.4 1c.2.4.4.6.7.9c.3.3.6.5.9.6l-.6.9c-.5-.3-.9-.6-1.3-1.1c-.3-.4-.6-.9-.8-1.5c-.2.6-.5 1.2-.9 1.6c-.3.5-.8.9-1.3 1.1l-.6-.8c.4-.2.7-.4 1-.6c.2-.3.5-.6.7-.9c.2-.4.3-.7.4-1.1c.1-.4.2-.7.2-1.1c-.03-.02 0-.6 0-.6h-2v-.8h2V.7h1v1.4h2v.8h-2zm12.2-.4c.03-.04 0-.2 0-.2h-5.3v-.8h6.4s-.02.96 0 1v.9c0 .3 0 .7-.1 1c0 .4 0 .8-.1 1.2c0 .4-.1.8-.2 1.3l-1-.1c.1-.4.1-.9.2-1.3c0-.4.1-.7.1-1.1V2.5zm-6.2 5.1h8.4v.9h-8.4v-.9zm15.5-5.4v-.7h-5.3v-.8h6.3v2.2h-5.2v.8h5.4v.8h-6.4V2.2h5.2zm-6.3 2.9h8.3v.8h-3.6v1h-1.1v-1h-3.6v-.8zm6.3 2.2v-.9h1v3.2h-6.2V6.4h1v.9h4.2zm0 1.5v-.7h-4.2v.7h4.2zm7-4.2c-.5 0-.9-.1-1.3-.1c-.4-.1-.8-.3-1-.4c-.3-.2-.6-.4-.7-.6c-.2-.2-.2-.5-.2-.8c0-.3 0-.6.2-.8c.1-.2.4-.4.7-.6c.2-.1.6-.3 1-.3c.4-.1.8-.2 1.3-.2c.5 0 1 .1 1.4.2c.4 0 .7.2 1 .3c.3.2.5.4.7.6c.1.2.2.5.2.8c0 .3-.1.6-.2.8c-.2.2-.4.4-.7.6c-.3.1-.6.3-1 .4c-.4 0-.9.1-1.4.1zm0-2.9c-.6 0-1.2.1-1.6.2c-.4.2-.6.5-.6.8c0 .3.2.6.6.8c.4.1 1 .2 1.6.2c.7 0 1.3-.1 1.6-.2c.4-.2.6-.5.6-.8c0-.3-.2-.6-.6-.8c-.3-.1-.9-.2-1.6-.2zm-4.1 3.6h8.3v.9h-8.3v-.9zm2.1 1.6v1.8h5.3v.9h-6.4V6.9h1.1zM82.6.5h1v9.3h-1V.5zm-5.8 5.3l-.5-.8c.7-.2 1.3-.5 1.6-1c.4-.4.6-.9.6-1.5c.05.04-1.9 0-1.9 0v-.8h2V.6h1v1.1h2v.8s-1.99.04-2 0c0 .6.2 1 .6 1.5c.4.4 1 .7 1.6.9l-.4.8c-.6-.2-1-.4-1.4-.7c-.4-.3-.7-.7-.9-1.1c-.2.4-.5.8-.9 1.1c-.4.4-.8.6-1.4.8zm2.8-.3v1.5c.4 0 .8 0 1.2-.1c.4 0 .8-.1 1.2-.1l.1.7c-.5.1-1 .2-1.6.3c-.5 0-1 .1-1.5.1h-1.5c-.4.1-.9.1-1.3.1l-.1-.9h2.5c-.04-.04 0-1.6 0-1.6h1zm12-3.2c-.01.02 0 0 0 0h-5.5v-.9h6.5s.05.92 0 .9v1.9c0 .3-.1.7-.1 1.1c-.1.4-.1.9-.2 1.3l-1.1-.1c.2-.9.3-1.7.3-2.3c.1-.7.1-1.3.1-1.9zm-2.2 5.4h4.1v.9h-8.3v-.9h3.1V4.4h1.1v3.3zM100.9.5h1.1v9.3h-1.1V.5zm-3.5.7c.3 0 .7 0 1 .2c.3.1.5.2.8.4c.2.2.4.4.5.7c.1.3.2.6.2.9c0 .3-.1.6-.2.9c-.1.3-.3.5-.5.7c-.3.2-.5.3-.8.5c-.3.1-.7.1-1 .1c-.4 0-.7 0-1-.1c-.3-.2-.6-.3-.8-.5c-.2-.2-.4-.4-.5-.7c-.2-.3-.2-.6-.2-.9c0-.3 0-.6.2-.9c.1-.3.3-.5.5-.7c.2-.2.5-.3.8-.4c.3-.2.6-.2 1-.2zm0 .9c-.5 0-.8.1-1.1.3c-.3.3-.4.6-.4 1c0 .4.1.7.4 1c.3.2.6.3 1.1.3c.4 0 .8-.1 1-.3c.3-.3.4-.6.4-1c0-.4-.1-.7-.4-1c-.2-.2-.6-.3-1-.3zm-2.8 5.7l-.2-.8h1.4c.5-.1 1-.1 1.5-.1c.5 0 1 0 1.5-.1c.6 0 1.1-.1 1.6-.1v.7c-.5.1-1 .2-1.5.2c-.5.1-1 .1-1.5.2h-2.8zM112.2.6h1.1v9.2h-1.1V.6zm-6 .9s4.35.02 4.3 0c0 .7 0 1.4-.2 2c-.1.6-.4 1.2-.7 1.8c-.3.5-.8 1-1.3 1.5c-.6.5-1.2.9-2 1.3l-.6-.8c1.2-.6 2.1-1.3 2.7-2.1c.6-.8 1-1.8 1.1-2.8c-.03-.02-3.3 0-3.3 0v-.9zM122.7 3l-.3.8c-.8-.1-1.5-.3-2.1-.6c-.5-.3-1-.7-1.3-1.1c-.3.4-.7.8-1.3 1.1c-.6.3-1.3.5-2.1.6l-.3-.8c.4-.1.9-.2 1.2-.3c.4-.1.8-.3 1.1-.5c.2-.2.5-.4.6-.6c.2-.2.3-.5.3-.7c-.04-.04 0-.3 0-.3h1s.04.26 0 .3c0 .2.1.5.3.7c.1.2.4.4.6.6c.3.2.7.4 1.1.5c.3.1.8.2 1.2.3zm.5 2.1h-3.7v.8h2.6v2.2h-5.2v.8h5.5v.8h-6.6V7.4h5.3v-.7h-5.3v-.8h2.7v-.8h-3.7v-.8h8.4v.8zm7.4-4.5h1.1v5.6h-1.1V4.7h-1.7v-.9h1.7V2.7h-1.7v-.8h1.7V.6zm-1.8 4.2l.1.9c-.3 0-.5 0-.8.1h-.9c-.3.1-.6.1-.9.1h-1.9V3h2.9V1.9h-2.9v-.8h4v2.7h-3s.02 1.23 0 1.2h1.9c.3 0 .5-.1.8-.1c.2 0 .5 0 .7-.1zm-3.4 2.7v-.8h6.3v3.1h-1.1V7.5h-5.2zm16.3-3.2v.9h-1.4v4.6h-1V.6h1v3.7h1.4zM138 5.7l-1-.1c.1-.7.2-1.3.2-1.8c0-.6.1-1 .1-1.4c-.05-.03-3.7 0-3.7 0v-.9h4.7s-.02.63 0 .6v1.5c-.1.6-.1 1.3-.3 2.1zm-2-1.5s-.03 2.71 0 2.7c.5 0 .9 0 1.4-.1c.5 0 .9 0 1.4-.1v.8c-.4 0-.9.1-1.4.2c-.5 0-1 0-1.5.1h-2.7l-.1-.8h.9c.3-.1.6-.1.9-.1c.04.04 0-2.7 0-2.7h1.1zM152.1.6v6.6H151V.6h1.1zm-2.6 2.9c0 .3 0 .6-.2.9c-.1.3-.3.5-.5.7c-.2.2-.5.4-.8.5c-.2.1-.6.2-.9.2c-.4 0-.7-.1-1-.2c-.3-.1-.5-.3-.8-.5c-.2-.2-.4-.4-.5-.7c-.1-.3-.2-.6-.2-.9c0-.4.1-.7.2-1c.1-.2.3-.5.5-.7c.3-.2.5-.4.8-.5c.3-.1.6-.1 1-.1c.3 0 .7 0 .9.1c.3.1.6.3.8.5c.2.2.4.5.5.7c.2.3.2.6.2 1zm-3.8 0c0 .4.1.7.4 1c.2.2.6.4 1 .4c.2 0 .4-.1.5-.1c.2-.1.4-.2.5-.3c.1-.1.2-.3.3-.5c.1-.1.1-.3.1-.5c0-.2 0-.4-.1-.6c-.1-.2-.2-.3-.3-.5c-.1-.1-.3-.2-.5-.2c-.1-.1-.3-.1-.5-.1c-.4 0-.8.1-1 .3c-.3.3-.4.6-.4 1.1zm1.4 5.2h5.2v.9H146v-3h1.1v2.1zm12.8-6.1v-.9h-5.3v-.8h6.4v2.5h-5.3v.9h5.5v.9h-6.6V2.6h5.3zM162 6v.8h-2.1v3h-1v-3h-2.2v3h-1v-3h-2.1v-.8h8.4zm7.7-5.4h1v9.2h-1V5h-1.1v4.3h-1V.7h1v3.4h1.1V.6zm-4.8.7c.3 0 .6 0 .8.2c.2.1.5.4.6.6c.2.3.3.7.4 1.1c.1.4.2.8.2 1.3c0 .5-.1 1-.2 1.4c-.1.4-.2.7-.4 1c-.1.3-.4.5-.6.7c-.2.1-.5.2-.8.2c-.3 0-.6-.1-.8-.2c-.3-.2-.5-.4-.6-.7c-.2-.3-.3-.6-.4-1c-.1-.4-.2-.9-.2-1.4c0-.5.1-.9.2-1.3c.1-.4.2-.8.4-1.1c.1-.2.3-.5.6-.6c.2-.2.5-.2.8-.2zm0 5.5c.3 0 .6-.2.7-.6c.2-.4.3-.9.3-1.7c0-.7-.1-1.3-.3-1.7c-.1-.4-.4-.5-.7-.5c-.3 0-.6.1-.7.5c-.2.4-.3 1-.3 1.7c0 .8.1 1.3.3 1.7c.1.4.4.6.7.6zm13.4-4.7v-.6H173v-.7h6.3v2h-5.2v.7h5.4v.7h-6.4V2.1h5.2zM172 4.8h8.3v.7H172v-.7zm2 3.4v.7h5.6v.8H173V7.5h5.3v-.6H173v-.7h6.3v2H174zm17.8-4.1v.9h-1.4v4.8h-1.1V.6h1.1v3.5h1.4zm-4.9-.4V1.3h1.1v6.3h-4.4V1.3h1v2.4h2.3zm0 3V4.5h-2.3v2.2h2.3zm12.7-3.9h1.3v.9h-1.3v2.5h-1V.6h1v2.2zm-2 1.7l.1.9c-.3 0-.6.1-.9.1c-.3 0-.6.1-.9.1h-2.4c.04.04-.7 0-.7 0V1.2h4.3v.8h-3.2v1h3v.8h-3s-.03.99 0 1h1.1c.3 0 .6 0 .9-.1h.9c.3-.1.5-.1.8-.2zm-.9 1.9c.9 0 1.7.1 2.2.4c.6.3.8.7.8 1.3c0 .5-.2.9-.8 1.2c-.5.3-1.3.5-2.2.5c-1 0-1.7-.2-2.3-.5c-.5-.3-.8-.7-.8-1.2c0-.6.3-1 .8-1.3c.6-.3 1.3-.4 2.3-.4zm0 2.6c.6 0 1.1-.1 1.5-.3c.3-.1.5-.3.5-.6c0-.3-.2-.5-.5-.7c-.4-.1-.9-.2-1.5-.2c-.7 0-1.2.1-1.5.2c-.4.2-.6.4-.6.7c0 .3.2.5.6.6c.3.2.8.3 1.5.3zm9.1-7.9c.5 0 .9 0 1.3.2c.4.1.8.3 1.1.5c.3.2.5.5.7.8c.2.3.3.7.3 1.1c0 .4-.1.7-.3 1c-.2.4-.4.6-.7.9c-.3.2-.7.4-1.1.5c-.4.1-.8.2-1.3.2c-.5 0-.9-.1-1.4-.2c-.4-.1-.7-.3-1-.5c-.3-.3-.6-.5-.7-.9c-.2-.3-.3-.6-.3-1c0-.4.1-.8.3-1.1c.1-.3.4-.6.7-.8c.3-.2.6-.4 1-.5c.5-.2.9-.2 1.4-.2zm0 .8c-.4 0-.7.1-1 .2c-.2 0-.5.2-.7.3c-.2.2-.4.3-.5.6c-.1.2-.2.4-.2.7c0 .2.1.5.2.7c.1.2.3.4.5.5c.2.2.5.3.7.4c.3.1.6.1 1 .1c.3 0 .6 0 .9-.1c.3-.1.6-.2.8-.4c.2-.1.4-.3.5-.5c.1-.2.2-.5.2-.7c0-.3-.1-.5-.2-.7c-.1-.3-.3-.4-.5-.6c-.2-.1-.5-.3-.8-.3c-.3-.1-.6-.2-.9-.2zm-4.2 5.8h8.4v.9h-8.4v-.9zm13.9.1h3.6v.9h-8.3v-.9h3.6V6.2h-2.6V3.3h5.3V2h-5.3v-.8h6.4v2.9h-5.4v1.3h5.6v.8h-2.9v1.6zm7.7-6.4v1.3H222V1.4c0-.4.1-.7.3-.9c.2-.3.5-.5.9-.5v.6c-.2 0-.4.1-.5.2c0 .2-.1.4-.1.6h.6zm6.2.1v.8h-5.5v-.8h2.2v-1h1.1v1h2.2zm3 1.4v.9h-1.3v2.3h-1V.6h1v2.3h1.3zm-3.5 1.4c0 .3-.1.5-.2.7c-.1.2-.2.4-.4.5c-.2.2-.5.3-.7.4c-.3 0-.6.1-1 .1c-.3 0-.6-.1-.9-.1c-.2-.1-.5-.2-.7-.4c-.2-.1-.3-.3-.4-.5c-.1-.2-.2-.4-.2-.7c0-.2.1-.4.2-.6c.1-.3.2-.4.4-.6c.2-.1.5-.2.7-.3c.3-.1.6-.1.9-.1c.4 0 .7 0 1 .1c.2.1.5.2.7.3c.2.2.3.3.4.6c.1.2.2.4.2.6zm-3.5 0c0 .3.1.5.4.7c.2.1.5.2.8.2c.4 0 .7-.1.9-.2c.3-.2.4-.4.4-.7c0-.2-.1-.4-.4-.6c-.2-.2-.5-.2-.9-.2c-.3 0-.6 0-.8.2c-.3.2-.4.4-.4.6zm-.2 5.3v-3h5.9v3h-5.9zm1.1-2.2v1.4h3.8V7.4h-3.8zM240 .5h1v9.3h-1V.5zm-1.7 3.6V.8h1v8.5h-1V4.9s-1.14.05-1.1 0c-.1.6-.3 1.2-.5 1.7c-.2.6-.4 1.1-.8 1.6l-.8-.4c.3-.4.5-.9.7-1.3c.2-.4.3-.9.4-1.3c.1-.5.2-.9.2-1.4c.1-.4.1-.9.1-1.3c-.01-.02-.9 0-.9 0v-.9s1.78.02 1.8 0v1.2c-.1.4-.1.9-.1 1.3h1zm-5-2.5s2.04.02 2 0v1.6c0 .5-.1 1.1-.2 1.6c-.1.5-.3 1-.5 1.5c-.2.5-.4.9-.7 1.4l-.9-.5c.3-.3.5-.7.7-1.1c.2-.4.3-.7.4-1.1c.1-.4.2-.8.2-1.2c.1-.5.1-.9.2-1.3c-.04-.02-1.2 0-1.2 0v-.9zm15.2 2.6c-.5 0-.9 0-1.3-.1c-.4-.1-.8-.2-1.1-.4c-.3-.1-.5-.3-.6-.5c-.2-.2-.3-.5-.3-.7c0-.3.1-.6.3-.8c.1-.2.3-.4.6-.5c.3-.2.7-.3 1.1-.4c.4-.1.8-.1 1.3-.1c.5 0 1 0 1.4.1c.4.1.7.2 1 .4c.3.1.5.3.7.5c.1.2.2.5.2.8c0 .2-.1.5-.2.7c-.2.2-.4.4-.7.5c-.3.2-.6.3-1 .4c-.4.1-.9.1-1.4.1zm0-2.7c-.7 0-1.2.1-1.6.3c-.4.1-.6.4-.6.7c0 .3.2.5.6.7c.4.1.9.2 1.6.2c.7 0 1.3-.1 1.6-.2c.4-.2.6-.4.6-.7c0-.3-.2-.6-.6-.7c-.3-.2-.9-.3-1.6-.3zm4.2 4.1H249v1h2.7v3h-6.4v-3h2.7v-1h-3.6v-.8h8.3v.8zm-2.1 3.2V7.4h-4.2v1.4h4.2zm9.5-8.3h1v5.6h-1V.5zm-.9 4.4l-.5.8c-.5-.1-1-.4-1.4-.7c-.4-.4-.6-.8-.9-1.2c-.2.5-.5.9-.8 1.3c-.4.3-.9.6-1.4.8l-.6-.8c.4-.1.7-.3 1-.5c.3-.2.5-.4.7-.7c.2-.3.3-.5.4-.8c.1-.3.2-.6.2-.9v-.2h-2v-.9h5v.9H257s-.03.16 0 .2c0 .3 0 .5.1.8c.1.3.3.6.5.8c.2.3.4.5.7.7c.3.2.6.3.9.4zm-4.3 2.5v-.8h6.2v3.2h-1V7.4h-5.2zM269.2.5h1.1v9.3h-1.1V.5zm-3.8.7c.3 0 .7.1.9.3c.3.1.6.3.8.6c.2.3.4.6.5 1c.1.4.2.9.2 1.4c0 .5-.1.9-.2 1.3c-.1.4-.3.8-.5 1c-.2.3-.5.5-.8.7c-.2.1-.6.2-.9.2c-.3 0-.7-.1-1-.2c-.2-.2-.5-.4-.7-.7c-.2-.2-.4-.6-.5-1c-.1-.4-.2-.8-.2-1.3c0-.5.1-1 .2-1.4c.1-.4.3-.7.5-1c.2-.3.5-.5.7-.6c.3-.2.7-.3 1-.3zm0 1c-.4 0-.7.2-1 .6c-.2.4-.4.9-.4 1.7c0 .7.2 1.3.4 1.7c.3.4.6.6 1 .6c.4 0 .7-.2 1-.6c.2-.4.4-1 .4-1.7c0-.8-.2-1.3-.4-1.7c-.3-.4-.6-.6-1-.6zm13.9 1v.8H273V.9h1v2.3h5.3zm-7.4 2h8.4v.8h-8.4v-.8zm2.1 1.6v1.9h5.3v.9h-6.4V6.8h1.1zm16-6.2h1v9.2h-1V.6zm-1.9 3.2V.7h1v8.6h-1V4.6h-1.3v-.8h1.3zM286 1.4v1.6c0 .4 0 .8.1 1.1c.1.4.2.8.3 1.1l.6.9c.2.3.5.5.8.7l-.6.9c-.4-.3-.8-.6-1.1-1.1c-.2-.4-.5-.9-.6-1.4c-.2.6-.4 1.1-.7 1.6c-.3.4-.7.8-1.1 1.1l-.7-.8c.4-.2.6-.5.9-.8l.6-.9c.2-.4.3-.8.3-1.2c.1-.4.2-.7.2-1.1c-.03-.04 0-1.7 0-1.7h1zm13.5 1.4h1.3v.9h-1.3v2.4h-1V.5h1v2.3zm-1.8 2l-.6.8c-.5-.2-.9-.4-1.2-.8c-.4-.3-.7-.7-.9-1.1c-.2.5-.5.9-.8 1.3c-.4.4-.9.6-1.4.8l-.6-.8c.4-.1.7-.3 1-.5c.3-.2.5-.4.7-.7c.2-.3.3-.6.4-.9c.1-.3.2-.6.2-1c-.02.03 0-.9 0-.9h1s.04 1.01 0 1c0 .3.1.6.2.9c.1.3.2.5.4.8c.2.2.4.4.7.6c.3.2.6.3.9.5zm-1.1 1.5c.9 0 1.7.2 2.2.5c.6.3.8.7.8 1.2c0 .6-.2 1-.8 1.3c-.5.3-1.3.5-2.2.5c-.5 0-.9-.1-1.3-.2c-.4 0-.7-.1-1-.3c-.2-.1-.4-.3-.6-.5c-.1-.3-.2-.5-.2-.8c0-.2.1-.5.2-.7c.2-.2.4-.4.6-.5c.3-.2.6-.3 1-.4c.4-.1.8-.1 1.3-.1zm0 2.6c.6 0 1.1 0 1.5-.2c.3-.1.5-.4.5-.7c0-.3-.2-.5-.5-.6c-.4-.2-.9-.3-1.5-.3c-.7 0-1.2.1-1.5.3c-.4.1-.6.3-.6.6c0 .3.2.6.6.7c.3.2.8.2 1.5.2zm4.7-7.6V0h1.2v1.3c0 .3-.1.7-.3.9c-.2.3-.5.4-.9.5v-.6c.2 0 .4-.1.5-.3c0-.1.1-.3.1-.5c-.02-.04-.6 0-.6 0zm6.2 2.6c-1 0-1.8-.2-2.4-.4c-.6-.3-.8-.7-.8-1.2c0-.5.2-.9.8-1.2c.6-.3 1.4-.4 2.4-.4c1.1 0 1.9.1 2.5.4c.6.3.8.7.8 1.2c0 .5-.2.9-.8 1.2c-.6.2-1.4.4-2.5.4zm0-2.4c-.7 0-1.2 0-1.6.2c-.4.1-.5.3-.5.6c0 .2.1.4.5.6c.4.1.9.2 1.6.2c.8 0 1.3-.1 1.7-.2c.4-.2.5-.4.5-.6c0-.3-.1-.5-.5-.6c-.4-.2-.9-.2-1.7-.2zm-4.1 2.9h8.3v.8h-8.3v-.8zm2 3.7v.8h5.5v.8h-6.5V7.4h5.2v-.7h-5.2v-.8h6.3v2.2h-5.3zM322.2.6v4.7h-1V.6h1zm-2 3.6l-.5.9c-.5-.2-.9-.5-1.3-.8c-.4-.3-.7-.7-.9-1.2c-.2.5-.5.9-.9 1.3c-.4.4-.9.7-1.4.8l-.6-.8c.4-.1.7-.3 1-.5c.3-.2.5-.4.7-.7c.2-.2.4-.5.5-.8c.1-.3.1-.6.1-.9c.03-.01 0-.7 0-.7h1.1v.7c0 .3.1.6.2.9c.1.2.2.5.4.7c.2.3.4.5.7.7c.3.2.6.3.9.4zm-3 4.7h5.3v.8h-6.3V7.3h5v-.8h-5v-.8h6v2.3h-5v.9zM329 1.6v.8h-5.2v-.8h2.1V.5h1.1v1.1h2zm1.4 6V5.7H329v-.8h1.4V3.8H329v-.9h1.4V.6h1.1v7h-1.1zm-1.8-2.9c0 .2-.1.5-.2.7c-.1.2-.2.4-.4.5c-.2.2-.4.3-.7.4c-.3.1-.5.1-.9.1c-.3 0-.6 0-.8-.1c-.3-.1-.5-.2-.7-.4c-.2-.1-.3-.3-.4-.5c-.1-.2-.2-.5-.2-.7c0-.3.1-.6.2-.8c.1-.2.2-.4.4-.5c.2-.2.4-.3.7-.4c.2-.1.5-.1.8-.1c.4 0 .6 0 .9.1c.3.1.5.2.7.4c.2.1.3.3.4.5c.1.2.2.5.2.8zm-3.3 0c0 .3.1.5.3.7c.2.1.5.2.8.2c.4 0 .7-.1.9-.2c.2-.2.3-.4.3-.7c0-.4-.1-.6-.3-.8c-.2-.1-.5-.2-.9-.2c-.3 0-.6.1-.8.2c-.2.2-.3.4-.3.8zm1.2 4h5.2v.9h-6.2V7h1v1.7zm15.1-4.4v.8h-1.4v4.7h-1.1V.6h1.1v3.7h1.4zM336.2.7v1.3h2.2v.8H333v-.8h2.2V.7h1zm-.5 2.8c.3 0 .6 0 .9.1c.3.1.5.3.7.5c.2.2.4.4.5.7c.1.2.2.5.2.8c0 .3-.1.6-.2.9c-.1.3-.3.5-.5.7c-.2.2-.4.3-.7.4c-.3.1-.6.2-.9.2c-.3 0-.6-.1-.9-.2c-.3-.1-.5-.2-.8-.4c-.2-.2-.3-.4-.4-.7c-.1-.3-.2-.6-.2-.9c0-.3.1-.6.2-.8c.1-.3.2-.5.4-.7c.3-.2.5-.4.8-.5c.3-.1.6-.1.9-.1zm0 3.4c.4 0 .7-.1.9-.3c.3-.3.4-.6.4-1c0-.4-.1-.7-.4-.9c-.2-.2-.5-.4-.9-.4c-.4 0-.7.2-.9.4c-.3.2-.4.5-.4.9c0 .4.1.7.4 1c.2.2.5.3.9.3zm12.9-4.6c-.05.02 0 0 0 0h-5.5v-.9h6.5s.01.92 0 .9v1.9c-.1.3-.1.7-.1 1.1c-.1.4-.2.9-.2 1.3l-1.1-.1c.2-.9.3-1.7.3-2.3c0-.7.1-1.3.1-1.9zm-2.3 5.4h4.2v.9h-8.3v-.9h3.1V4.4h1v3.3zm4.8 2.1l.3-2.1h1.2l-.6 2.1h-.9z" stroke="none" fill="#fff"/></g></svg>