<?xml version="1.0" standalone="no"?><!DOCTYPE svg PUBLIC "-//W3C//DTD SVG 1.1//EN" "http://www.w3.org/Graphics/SVG/1.1/DTD/svg11.dtd"><svg xmlns="http://www.w3.org/2000/svg" version="1.1" width="204px" height="76.1px" viewBox="0 -7 204 76.1" style="top:-7px"><desc>16</desc><defs/><g id="Polygon33777"><path d="m13.9 15.4v-1.2c0-.05-6 5-6 5l-3.1-3.7L14.9 7h4.5v32.2h6.9v4.8H6.2v-4.8h7.7V15.4s-.05 0 0 0zm31.3-8.3h6.8L39.5 22.6c1.8-1 3.6-1.5 5.6-1.5c1.7 0 3.2.3 4.6.8c1.3.6 2.5 1.3 3.4 2.3c1 1 1.7 2.2 2.2 3.5c.5 1.4.8 2.9.8 4.5c0 1.8-.3 3.4-1 4.9c-.7 1.5-1.6 2.8-2.8 3.9c-1.1 1.1-2.5 1.9-4.1 2.5c-1.5.6-3.2.9-5 .9c-1.9 0-3.6-.3-5.2-.9c-1.5-.6-2.8-1.5-3.9-2.6c-1.1-1.1-1.9-2.4-2.5-4c-.6-1.6-.9-3.4-.9-5.3c0-2 .4-4 1.3-5.9c.9-1.9 1.9-3.6 3.1-5.1c0-.05 10.1-13.5 10.1-13.5zm-2.1 32.8c1 0 2-.2 2.9-.6c.9-.3 1.7-.8 2.4-1.5c.7-.6 1.2-1.4 1.6-2.3c.4-.9.6-1.8.6-2.9c0-2.2-.7-4-2-5.3c-1.3-1.3-3.1-2-5.3-2c-1 0-2 .2-2.9.6c-.9.3-1.7.8-2.3 1.5c-.7.6-1.2 1.3-1.6 2.2c-.3.9-.5 1.8-.5 2.9c0 2.1.6 3.9 1.8 5.3c1.2 1.4 3 2.1 5.3 2.1z" stroke="none" fill="#fff"/></g></svg>