<?xml version="1.0" standalone="no"?><!DOCTYPE svg PUBLIC "-//W3C//DTD SVG 1.1//EN" "http://www.w3.org/Graphics/SVG/1.1/DTD/svg11.dtd"><svg xmlns="http://www.w3.org/2000/svg" version="1.1" width="288.3px" height="400.3px" viewBox="0 -2 288.3 400.3" style="top:-2px"><desc>2_주요활동</desc><defs/><g id="Polygon42425"><path d="m10.2 393.6l-.6.3c-.5-.8-.8-1.6-1.1-2.4c-.2-.8-.4-1.8-.4-2.8c0-1 .2-1.9.4-2.8c.3-.8.6-1.6 1.1-2.4l.6.3c-.4.7-.8 1.5-1 2.3c-.2.9-.3 1.7-.3 2.6c0 .9.1 1.8.3 2.6c.2.8.6 1.6 1 2.3zm7.8-6.2c-.01.05 1.3 0 1.3 0v.7H11v-.7s6.16.05 6.2 0c.1-.5.1-.9.1-1.3c.1-.4.1-.7.1-1H12v-.7h6.2v1.7c0 .4-.1.8-.2 1.3zm-5.2 3.9v1.1h5.7v.7H12v-2.4h5.4v-1h-5.5v-.7h6.3v2.3h-5.4zm11.9.1h3.7v.7h-8.3v-.7h3.8v-1.7h-2.7v-2.9h5.4v-1.4h-5.4v-.7h6.2v2.8H22v1.5h5.6v.7h-2.9v1.7zm9.2-4.6v1.6h-4.1v-3.9h.8v1.3h2.5v-1.3h.8v1.6h2.1v-2h.9v4.7h-.9v-2h-2.1zm-.8 1v-1.4h-2.5v1.4h2.5zm-1.3 4.6h5.4v.7H31v-2.3h5v-.9h-5v-.6h5.9v2.1h-5.1v1zm12.1.2c-.5 0-.9-.1-1.3-.3c-.4-.2-.7-.4-1-.8c-.3-.3-.5-.7-.7-1.2c-.2-.5-.3-1-.3-1.6c0-.6.1-1.1.3-1.6c.2-.5.4-.9.7-1.2c.3-.4.6-.6 1-.8c.4-.2.9-.3 1.4-.3c.4 0 .8.1 1.2.3c.3.2.6.4.8.6l-.5.7c-.2-.3-.4-.4-.7-.6c-.2-.1-.5-.2-.8-.2c-.4 0-.7.1-1 .3c-.3.1-.5.3-.7.6c-.3.2-.4.5-.5.9c-.1.4-.2.8-.2 1.3c0 .4.1.9.2 1.2c.1.4.2.8.4 1c.2.3.5.5.8.6c.3.2.6.2.9.2c.4 0 .7 0 1-.2c.3-.1.5-.3.8-.6l.5.6c-.3.3-.7.6-1 .8c-.4.2-.8.3-1.3.3zm5.5 0c-.5 0-1-.1-1.4-.3c-.5-.2-.8-.5-1.2-.8l.6-.7c.3.3.6.5.9.7c.4.2.8.2 1.2.2c.4 0 .8-.1 1.1-.3c.3-.2.4-.5.4-.9c0-.2 0-.3-.1-.5c0-.1-.1-.2-.2-.3c-.1-.1-.3-.2-.4-.3c-.2 0-.3-.1-.5-.2l-1.1-.5c-.2-.1-.3-.1-.5-.2c-.2-.2-.4-.3-.5-.4c-.2-.2-.3-.4-.4-.6c-.1-.2-.1-.4-.1-.7c0-.3 0-.5.2-.8c.1-.2.2-.4.5-.6c.2-.2.4-.3.7-.4c.3-.1.6-.2.9-.2c.5 0 .9.1 1.3.3c.4.1.7.4.9.6l-.5.6c-.2-.2-.4-.3-.7-.5c-.3-.1-.6-.2-1-.2c-.4 0-.7.1-1 .3c-.2.2-.4.5-.4.8c0 .2.1.4.2.5c0 .1.1.3.2.3c.2.1.3.2.4.3c.2.1.3.1.5.2l1 .4c.3.1.5.2.7.4c.1.1.3.2.4.4c.2.1.3.3.4.5c0 .2.1.5.1.7c0 .3-.1.6-.2.9c-.1.2-.3.5-.5.7c-.2.1-.5.3-.8.4c-.3.1-.7.2-1.1.2zm9-.2h-1l-1.9-3.1h-1.3v3.1h-.9V385s2.3-.04 2.3 0c.4 0 .7 0 1.1.1c.3 0 .5.2.8.3c.2.2.4.4.5.7c.1.2.2.6.2 1c0 .6-.1 1-.5 1.4c-.3.3-.7.5-1.2.7c.02-.04 1.9 3.2 1.9 3.2zm-4.2-6.7v2.8h1.3c.6 0 1-.1 1.3-.4c.3-.2.5-.6.5-1c0-.5-.2-.9-.5-1.1c-.3-.2-.7-.3-1.3-.3c-.04.02-1.3 0-1.3 0zm14.2-1.3v4h-6.2v-4h.8v1.3h4.5v-1.3h.9zm-.9 3.3v-1.4H63v1.4h4.5zm1.9 1.8v.6h-3.7v3.1h-.9v-3.1h-3.7v-.6h8.3zm8.1-5v3.2h-6.1v-3.2h6.1zm-.8 2.5v-1.9h-4.5v1.9h4.5zm-6.4 1.7h8.3v.7h-3.7v1.8h-.8v-1.8h-3.8v-.7zm1.9 1.7v1.9h5.5v.7h-6.4v-2.6h.9zm7 2.8l.3-2.1h.9l-.6 2.1h-.6zM90 384h.8v9.2h-.8v-5h-1.8v-.6h1.8V384zm-5.5 4.1s-.04 2.2 0 2.2h1.1c.3 0 .6 0 .9-.1h1c.3-.1.6-.1.9-.2l.1.7c-.3.1-.7.1-1 .1c-.3.1-.6.1-1 .1c-.3.1-.7.1-1 .1h-1.9v-3.6h3.3v-1.8h-3.3v-.7h4.1v3.2h-3.2zm14.6-4.1h.9v9.2h-.9V384zm-3.4.8s.02 1.68 0 1.7c0 .4.1.8.2 1.2c.1.4.3.8.5 1.2c.3.3.5.6.8.9c.3.3.6.5 1 .6l-.5.7c-.6-.2-1-.6-1.4-1.1c-.5-.5-.8-1.1-1-1.8c-.2.7-.5 1.3-.9 1.9c-.4.5-.9.9-1.5 1.2l-.5-.7c.4-.2.7-.4 1-.7c.3-.2.5-.6.8-.9c.2-.4.4-.8.5-1.2c.1-.5.2-.9.2-1.3c-.01-.02 0-1.7 0-1.7h.8zm14.5 2.9v.7h-1.5v4.8h-.8v-9.1h.8v3.6h1.5zm-6.1-3c.3 0 .6.1.9.3c.3.1.5.3.7.6c.2.3.4.6.5 1c.1.4.2.8.2 1.3c0 .5-.1 1-.2 1.4c-.1.3-.3.7-.5 1c-.2.2-.4.5-.7.6c-.3.2-.6.2-.9.2c-.3 0-.7 0-.9-.2c-.3-.1-.6-.4-.8-.6c-.2-.3-.3-.7-.4-1c-.2-.4-.2-.9-.2-1.4c0-.5 0-.9.2-1.3c.1-.4.2-.7.4-1c.2-.3.5-.5.8-.6c.2-.2.6-.3.9-.3zm0 5.7c.2 0 .4-.1.6-.2c.2-.1.3-.3.5-.5c.1-.2.2-.5.3-.8c.1-.3.1-.6.1-1c0-.3 0-.7-.1-1c-.1-.3-.2-.5-.3-.7c-.2-.2-.3-.4-.5-.5c-.2-.1-.4-.2-.6-.2c-.2 0-.4.1-.6.2c-.2.1-.4.3-.5.5c-.1.2-.2.4-.3.7c-.1.3-.1.7-.1 1c0 .4 0 .7.1 1c.1.3.2.6.3.8c.1.2.3.4.5.5c.2.1.4.2.6.2zm12.5-3.2v2.2h-.8v-5.2h.8v2.3h1.1v-2.4h.9v5.6h-.9v-2.5h-1.1zm-1.2 1.1l-.4.7c-.5-.2-.8-.4-1.1-.8c-.3-.3-.6-.6-.7-1c-.2.4-.4.8-.8 1.2c-.3.4-.7.6-1.1.8l-.5-.6c.3-.1.6-.3.8-.5c.3-.2.5-.5.6-.7c.2-.2.3-.5.4-.8c.1-.2.1-.5.1-.8c.05.05 0-1.2 0-1.2h.9s-.04 1.25 0 1.2c0 .3 0 .5.1.8c.1.2.2.5.3.7l.6.6c.3.2.5.3.8.4zm.1 1.6c.5 0 .9 0 1.3.1c.4.1.7.2 1 .3c.2.2.4.3.6.5c.1.2.2.5.2.7c0 .3-.1.5-.2.7c-.2.2-.4.4-.6.5c-.3.2-.6.3-1 .4c-.4 0-.8.1-1.3.1c-.4 0-.9-.1-1.2-.1c-.4-.1-.7-.2-1-.4c-.3-.1-.5-.3-.6-.5c-.1-.2-.2-.4-.2-.7c0-.2.1-.5.2-.7c.1-.2.3-.3.6-.5c.3-.1.6-.2 1-.3c.3-.1.8-.1 1.2-.1zm0 2.6c.7 0 1.3 0 1.7-.2c.4-.2.6-.4.6-.8c0-.3-.2-.5-.6-.7c-.4-.2-1-.3-1.7-.3c-.7 0-1.2.1-1.6.3c-.4.2-.6.4-.6.7c0 .4.2.6.6.8c.4.2.9.2 1.6.2zm11.6-5.7h1.4v.7h-1.4v3.3h-.8V384h.8v2.8zm-1.8 1.8l-.4.7c-.5-.2-.9-.5-1.3-.8c-.4-.4-.7-.8-.9-1.3c-.2.6-.5 1-.9 1.4c-.4.4-.8.7-1.4.9l-.4-.6c.3-.2.6-.3.9-.5c.3-.2.5-.5.7-.8c.2-.2.4-.5.5-.9c.1-.3.2-.6.2-1c-.04.02 0-1.1 0-1.1h.8s-.01 1.14 0 1.1c0 .4 0 .7.2 1c.1.3.2.5.4.8c.2.2.4.5.7.7c.3.2.6.3.9.4zm-3 1.6v2.1h5.2v.7h-6.1v-2.8h.9zm13.6-6.1h.8v4.9h-.8v-2h-2.1v1.7h-4.1v-4.2h.8v1.4h2.4v-1.4h.9v1.8h2.1v-2.2zm-3 3.9v-1.4h-2.4v1.4h2.4zm3 2.6v-1.1h.8v3.6h-5.8v-3.6h.8v1.1h4.2zm0 1.8v-1.2h-4.2v1.2h4.2zm10-8.3v6.6h-.9v-6.6h.9zm-2.5 2.8c0 .4-.1.7-.2.9c-.1.3-.3.6-.5.8c-.2.2-.5.3-.8.4c-.3.1-.6.2-.9.2c-.4 0-.7-.1-1-.2c-.3-.1-.5-.2-.7-.4c-.2-.2-.4-.5-.5-.8c-.2-.2-.2-.5-.2-.9c0-.3 0-.6.2-.9c.1-.3.3-.5.5-.7c.2-.2.4-.3.7-.5c.3-.1.6-.1 1-.1c.3 0 .6 0 .9.1c.3.2.6.3.8.5c.2.2.4.4.5.7c.1.3.2.6.2.9zm-4 0c0 .3 0 .5.1.6c.1.2.2.4.3.5c.2.2.4.3.5.4c.2 0 .4.1.7.1c.2 0 .4-.1.6-.1c.2-.1.4-.2.5-.4c.1-.1.2-.3.3-.5c.1-.1.1-.3.1-.6c0-.2 0-.4-.1-.6c-.1-.2-.2-.3-.3-.5c-.1-.1-.3-.2-.5-.3c-.2-.1-.4-.1-.6-.1c-.3 0-.5 0-.7.1c-.1.1-.3.2-.5.3c-.1.2-.2.3-.3.5c-.1.2-.1.4-.1.6zm1.4 5.4h5.4v.7H140v-3h.8v2.3zm16.7-4.8l-.3.7l-1.1-.3c-.3-.1-.6-.3-.9-.4c-.3-.2-.6-.4-.8-.7c-.3-.2-.5-.5-.6-.7c-.2.2-.4.5-.6.7c-.2.3-.5.5-.8.7c-.3.1-.6.3-1 .4c-.3.1-.6.2-1 .3l-.3-.7c.4 0 .8-.1 1.2-.3c.4-.2.7-.4 1-.6c.3-.2.6-.5.8-.8c.1-.3.2-.6.2-.9c.04-.02 0-.5 0-.5h.9v.5c0 .3.1.6.3.9c.2.3.4.6.7.8c.3.2.7.4 1.1.6c.4.2.8.3 1.2.3zm.4 1.7v.7h-3.7v3.3h-.9v-3.3h-3.7v-.7h8.3zm8-2.8h1.4v.7h-1.4v2.5h-.8v-5.5h.8v2.3zm-1.8 1.9l-.4.7c-.5-.2-1-.5-1.4-.8c-.3-.4-.6-.8-.8-1.3c-.2.6-.5 1-.9 1.4c-.4.4-.9.7-1.4 1l-.4-.7c.3-.1.6-.3.9-.5c.3-.2.5-.5.7-.7c.2-.3.4-.6.5-.9c.1-.4.1-.7.1-1.1c.05.05 0-.9 0-.9h.9s-.02 1.02 0 1c0 .3 0 .6.1.9c.2.3.3.6.5.8c.2.3.4.5.7.7c.3.2.6.3.9.4zm-1.1 1.5c.5 0 .9.1 1.3.2c.3 0 .6.1.9.3c.3.1.5.3.6.5c.1.2.2.5.2.7c0 .3-.1.5-.2.7c-.1.2-.3.4-.6.5c-.3.2-.6.3-.9.4c-.4 0-.8.1-1.3.1c-.9 0-1.7-.2-2.2-.5c-.5-.2-.8-.7-.8-1.2c0-.2.1-.5.2-.7c.1-.2.3-.4.6-.5c.3-.2.6-.3.9-.3c.4-.1.8-.2 1.3-.2zm0 2.7c.7 0 1.2-.1 1.6-.2c.4-.2.6-.5.6-.8c0-.3-.2-.6-.6-.7c-.4-.2-.9-.3-1.6-.3c-.7 0-1.2.1-1.6.3c-.4.1-.6.4-.6.7c0 .3.2.6.6.8c.4.1.9.2 1.6.2zm5.5 1.3l-.6-.2c.4-.8.8-1.6 1-2.4c.2-.8.3-1.7.3-2.5c0-.9-.1-1.8-.3-2.6c-.2-.8-.6-1.6-1-2.4l.6-.2c.4.7.8 1.5 1.1 2.4c.2.8.4 1.7.4 2.8c0 1-.2 1.9-.4 2.7c-.3.9-.7 1.7-1.1 2.4z" stroke="none" fill="#fff"/></g><g id="Polygon42424"><path d="m3.1 369.7v1h-1v-1h1zm11.6-4.2h.8v9.2h-.8v-4.8h-1.3v4.3h-.8v-8.5h.8v3.5h1.3v-3.7zm-5.8 1.8s-.03 4.44 0 4.4h1.6c.5-.1 1-.1 1.5-.2v.7c-.2 0-.5.1-.8.1c-.2 0-.5.1-.8.1H8.6c.05.04-.6 0-.6 0v-5.7h3.5v.6H8.9zm13.4-.6v.6h-5.4v-.6h2.3v-1.1h.8v1.1h2.3zm1.7 1.9h1.4v.7H24v3.1h-.8v-6.8h.8v3zm-2.2.9c0 .3 0 .5-.1.7c-.1.3-.3.4-.5.6c-.2.1-.4.2-.7.3c-.3.1-.5.1-.9.1c-.3 0-.6 0-.9-.1c-.2-.1-.5-.2-.7-.3c-.1-.2-.3-.3-.4-.6c-.1-.2-.2-.4-.2-.7c0-.2.1-.5.2-.7c.1-.2.3-.3.4-.5c.2-.1.5-.3.7-.3c.3-.1.6-.2.9-.2c.4 0 .6.1.9.2c.3 0 .5.2.7.3c.2.2.4.3.5.5c.1.2.1.5.1.7zm-3.6 0c0 .4.2.6.4.8c.3.2.6.3 1 .3c.4 0 .8-.1 1-.3c.3-.2.4-.4.4-.8c0-.3-.1-.5-.4-.7c-.2-.2-.6-.3-1-.3c-.4 0-.7.1-1 .3c-.2.2-.4.4-.4.7zm.9 2.4v1.9h5.3v.7h-6.1v-2.6h.8zm14.5-6.3v6.5h-.8v-6.5h.8zm-2.8.7v4.3h-4.2v-4.3h4.2zm-.8 3.6V367h-2.6v2.9h2.6zm-1.5 3.8h5.4v.7h-6.2v-2.9h.8v2.2zm15.1-3.8h-3.8v1.7h2.7v3.1h-.8v-2.4h-5.6v-.7h2.9v-1.7h-3.7v-.7s6.12.04 6.1 0c.1-.5.2-1 .2-1.4c.1-.4.1-.8.1-1.1c-.03-.05-5.4 0-5.4 0v-.7h6.2v1.8c0 .4-.1.9-.2 1.4c-.03.04 1.3 0 1.3 0v.7zm11.5-.6v.6h-1.5v4.8h-.9v-9.1h.9v3.7h1.5zm-5.5-3s-.01 1.68 0 1.7c0 .4.1.8.2 1.2c.1.4.3.7.5 1.1c.2.3.4.7.7.9c.3.3.6.5.9.7l-.5.7c-.5-.3-.9-.7-1.3-1.2c-.4-.5-.7-1-.9-1.7c-.2.7-.5 1.3-.9 1.8c-.4.5-.9 1-1.4 1.2l-.5-.6c.3-.2.6-.4.9-.7c.3-.3.6-.6.8-1c.2-.4.4-.8.5-1.2c.1-.4.2-.8.2-1.2c-.03-.02 0-1.7 0-1.7h.8zm13.2 1.5h1.4v.7h-1.4v2.6h-.8v-5.5h.8v2.2zm-1.7 1.8l.1.6c-.4.1-.7.2-1.1.2c-.3 0-.7.1-1 .1h-2.3c.02.04-.7 0-.7 0v-2.6h3.3v-1.1h-3.3v-.7h4.1v2.5h-3.3s.03 1.26 0 1.3c.4 0 .8 0 1.2-.1h1c.3 0 .7-.1 1-.1c.3 0 .6-.1 1-.1zm-1.2 1.7c.4 0 .9.1 1.2.2c.4 0 .7.1 1 .3c.2.1.4.3.6.5c.1.2.2.5.2.7c0 .3-.1.5-.2.7c-.2.2-.4.4-.6.5c-.3.2-.6.3-1 .4c-.3 0-.8.1-1.2.1c-.9 0-1.7-.2-2.2-.5c-.6-.2-.8-.7-.8-1.2c0-.5.2-.9.8-1.2c.5-.3 1.3-.5 2.2-.5zm0 2.7c.7 0 1.2-.1 1.6-.2c.4-.2.6-.5.6-.8c0-.3-.2-.6-.6-.7c-.4-.2-.9-.3-1.6-.3c-.7 0-1.3.1-1.6.3c-.4.1-.6.4-.6.7c0 .3.2.6.6.8c.3.1.9.2 1.6.2zm12.1-6.3h1.3v.7H72v2.5h-.9v-5.3h.9v2.1zm-2.5-1.6v4.2h-4.2v-4.2h.8v1.3h2.6v-1.3h.8zm-.8 3.5v-1.5h-2.6v1.5h2.6zm-1.6 2.5v1.8h5.1v.7h-5.9v-3.2h5.8v.7h-5zm14.3-3.8v.7h-6.2v-3.1h.8v2.4h5.4zm-7.3 1.9h8.2v.7h-8.2v-.7zm1.8 1.6v2h5.5v.7h-6.3v-2.7h.8zm14-6.3h.8v9.2h-.8v-9.2zm-6.1 1s4.27.03 4.3 0c0 .7-.1 1.3-.3 1.9c-.1.7-.4 1.2-.7 1.8c-.4.5-.8 1-1.3 1.5c-.6.5-1.2.9-2 1.3l-.4-.7c1.2-.6 2.1-1.3 2.7-2.2c.7-.8 1-1.8 1.1-2.9h-3.4v-.7zm15.3-.9h.9v4.9h-.9v-2.1s-1.84.01-1.8 0c-.1.6-.4 1-.8 1.3c-.4.3-.9.5-1.6.5c-.3 0-.6 0-.9-.2c-.3-.1-.6-.2-.8-.4c-.2-.2-.3-.4-.5-.7c-.1-.2-.1-.5-.1-.8c0-.3 0-.6.1-.9c.2-.2.3-.5.5-.6c.2-.2.5-.4.8-.5c.3-.1.6-.1.9-.1c.3 0 .6 0 .9.1c.2.1.5.2.7.4c.2.1.4.3.5.5c.1.2.2.5.2.7c.05.02 1.9 0 1.9 0v-2.1zm-4.2 3.9c.2 0 .5 0 .6-.1c.2-.1.4-.2.5-.3c.2-.1.3-.3.4-.4c0-.2.1-.4.1-.6c0-.2-.1-.4-.1-.6c-.1-.2-.2-.3-.4-.4c-.1-.2-.3-.3-.5-.3c-.1-.1-.4-.1-.6-.1c-.2 0-.4 0-.6.1c-.2 0-.4.1-.5.3c-.1.1-.2.2-.3.4c-.1.2-.1.4-.1.6c0 .2 0 .4.1.6c.1.1.2.3.3.4c.1.1.3.2.5.3c.2.1.4.1.6.1zm4.2 2.6v-1.2h.9v3.7h-5.9v-3.7h.8v1.2h4.2zm0 1.8v-1.2h-4.2v1.2h4.2zm9.5-6h1.8v-2.3h.8v5.4h-.8v-2.4h-1.8v-.7zm.5 2.1l-.4.7c-.5-.2-1-.5-1.4-.9c-.4-.3-.6-.7-.8-1.2c-.2.5-.5 1-.9 1.4c-.4.4-.9.7-1.4.9l-.5-.6c.4-.2.7-.3.9-.5c.3-.3.6-.5.8-.8c.2-.2.3-.5.5-.8c.1-.4.1-.7.1-1c.02 0 0-.3 0-.3h-2v-.7h4.9v.7h-2s-.05.3 0 .3c0 .3 0 .6.1.9c.1.3.3.5.5.8c.2.2.4.4.7.6c.2.2.5.4.9.5zm-.9 1.3c.5 0 .9 0 1.3.1c.3.1.7.2.9.3c.3.2.5.4.6.6c.2.2.2.4.2.7c0 .3 0 .5-.2.7c-.1.2-.3.4-.6.5c-.2.2-.6.3-.9.4c-.4.1-.8.1-1.3.1c-.5 0-.9 0-1.3-.1c-.3-.1-.7-.2-.9-.4c-.3-.1-.5-.3-.6-.5c-.2-.2-.2-.4-.2-.7c0-.3 0-.5.2-.7c.1-.2.3-.4.6-.6c.2-.1.6-.2.9-.3c.4-.1.8-.1 1.3-.1zm0 2.7c.7 0 1.2-.1 1.6-.2c.4-.2.6-.5.6-.8c0-.3-.2-.6-.6-.8c-.4-.2-.9-.3-1.6-.3c-.7 0-1.2.1-1.6.3c-.4.2-.6.5-.6.8c0 .3.2.6.6.8c.4.1.9.2 1.6.2zm11.9-8.1v4h-6.2v-4h.8v1.3h4.6v-1.3h.8zm-.8 3.3v-1.4h-4.6v1.4h4.6zm1.9 1.8v.6h-3.8v3.1h-.8v-3.1h-3.7v-.6h8.3zm7.5 1.9h3.7v.6h-8.3v-.6h3.7v-2.1h-2.9v-.7h1.4v-3h-1.4v-.7h6.7v.7h-1.4v3h1.4v.7h-2.9v2.1zm-1.6-5.8v3h2.3v-3h-2.3zm13.3.8h1.4v.7h-1.4v2.5h-.8v-5.5h.8v2.3zm-1.8 1.9l-.5.7c-.4-.2-.9-.5-1.3-.8c-.3-.4-.6-.8-.8-1.3c-.2.6-.5 1-.9 1.4c-.4.4-.9.7-1.4 1l-.4-.7c.3-.1.6-.3.9-.5c.3-.2.5-.5.7-.7c.2-.3.4-.6.5-.9c.1-.4.1-.7.1-1.1c.04.05 0-.9 0-.9h.9s-.03 1.02 0 1c0 .3 0 .6.1.9c.1.3.3.6.5.8c.2.3.4.5.7.7c.3.2.6.3.9.4zm-1.1 1.5c.5 0 .9.1 1.2.2c.4 0 .7.1 1 .3c.3.1.5.3.6.5c.1.2.2.5.2.7c0 .3-.1.5-.2.7c-.1.2-.3.4-.6.5c-.3.2-.6.3-1 .4c-.3 0-.7.1-1.2.1c-.9 0-1.7-.2-2.2-.5c-.6-.2-.8-.7-.8-1.2c0-.2 0-.5.2-.7c.1-.2.3-.4.6-.5c.2-.2.6-.3.9-.3c.4-.1.8-.2 1.3-.2zm0 2.7c.7 0 1.2-.1 1.6-.2c.4-.2.6-.5.6-.8c0-.3-.2-.6-.6-.7c-.4-.2-.9-.3-1.6-.3c-.7 0-1.2.1-1.6.3c-.4.1-.6.4-.6.7c0 .3.2.6.6.8c.4.1.9.2 1.6.2z" stroke="none" fill="#fff"/></g><g id="Polygon42423"><path d="m3.1 351.2v1h-1v-1h1zm5.8-3.2v1.1H7.8s.02-1.09 0-1.1c0-.4.1-.7.2-.9c.1-.2.2-.3.4-.4c.2-.1.3-.1.5-.1v.4c-.1 0-.2.1-.3.1c-.1.1-.1.2-.2.3v.3c-.1.1-.1.2-.1.3h.6zm8.1-1h.8v9.2h-.8v-4.8h-1.2v4.3h-.8v-8.5h.8v3.5h1.2V347zm-4.3 1.8s-.02.72 0 .7c0 .4 0 .8.1 1.2c.1.4.2.8.4 1.1c.1.3.3.6.6.9c.2.3.5.5.8.6l-.5.7c-.4-.3-.8-.6-1.1-1c-.3-.4-.5-.9-.7-1.5c-.3 1.3-1 2.2-1.9 2.8l-.5-.6c.3-.2.6-.4.8-.7c.3-.3.5-.6.7-1c.1-.3.3-.7.3-1.2c.1-.4.2-.8.2-1.3c-.03.02 0-.7 0-.7h-1.8v-.7h4.2v.7h-1.6zm7.2 2l-.3-.7c.4 0 .8-.1 1.2-.2c.4-.1.7-.3 1-.5c.3-.1.5-.3.7-.6c.1-.2.2-.4.3-.7c-.04.03-2.9 0-2.9 0v-.6h6.8v.6s-2.86.03-2.9 0c.1.3.2.5.3.7c.2.3.4.5.7.6c.3.2.6.4 1 .5c.4.1.8.2 1.2.2l-.3.7c-.4-.1-.8-.2-1.1-.3c-.4-.1-.7-.2-1-.3c-.3-.2-.5-.4-.8-.6c-.2-.2-.4-.4-.5-.7c-.1.3-.3.5-.5.7c-.3.2-.5.4-.8.6c-.3.1-.6.2-1 .3c-.3.1-.7.2-1.1.3zm7.5 1.2h-3.7v1c.9 0 1.6.2 2 .4c.5.3.7.7.7 1.2c0 .5-.3.9-.8 1.2c-.6.2-1.3.4-2.3.4c-1 0-1.8-.2-2.3-.4c-.6-.3-.8-.7-.8-1.2c0-.5.2-.9.7-1.2c.4-.2 1.1-.4 2-.4c-.03-.02 0-1 0-1h-3.7v-.7h8.2v.7zm-1.8 2.6c0-.3-.2-.6-.6-.7c-.4-.2-1-.3-1.7-.3c-.7 0-1.3.1-1.7.3c-.4.1-.6.4-.6.7c0 .3.2.5.6.7c.4.2 1 .2 1.7.2c.7 0 1.3 0 1.7-.2c.4-.2.6-.4.6-.7zm10.2-6.4v.6h-5.4v-.6h2.3v-1.1h.9v1.1h2.2zm1.7 1.9h1.4v.7h-1.4v3.1h-.8v-6.8h.8v3zm-2.2.9c0 .3 0 .5-.1.7c-.1.3-.3.4-.5.6c-.2.1-.4.2-.7.3c-.2.1-.5.1-.9.1c-.3 0-.6 0-.8-.1c-.3-.1-.5-.2-.7-.3c-.2-.2-.4-.3-.5-.6c-.1-.2-.1-.4-.1-.7c0-.2 0-.5.1-.7c.1-.2.3-.3.5-.5c.2-.1.4-.3.7-.3c.2-.1.5-.2.8-.2c.4 0 .7.1.9.2c.3 0 .5.2.7.3c.2.2.4.3.5.5c.1.2.1.5.1.7zm-3.5 0c0 .4.1.6.3.8c.3.2.6.3 1 .3c.5 0 .8-.1 1-.3c.3-.2.4-.4.4-.8c0-.3-.1-.5-.4-.7c-.2-.2-.5-.3-1-.3c-.4 0-.7.1-1 .3c-.2.2-.3.4-.3.7zm.9 2.4v1.9h5.2v.7h-6.1v-2.6h.9zm15.2-2h-3.7v1.7h2.7v3.1h-.9v-2.4h-5.5v-.7h2.8v-1.7h-3.7v-.7s6.16.04 6.2 0c.1-.5.2-1 .2-1.4v-1.1c0-.05-5.3 0-5.3 0v-.7h6.1s.03.64 0 .6v1.2c0 .4-.1.9-.2 1.4c0 .04 1.3 0 1.3 0v.7zm6.3 4.2c-.5 0-.9-.1-1.3-.3c-.4-.2-.8-.4-1.1-.8c-.2-.3-.5-.7-.6-1.2c-.2-.5-.3-1-.3-1.6c0-.6.1-1.1.3-1.6c.1-.5.4-.9.7-1.2c.2-.4.6-.6 1-.8c.4-.2.8-.3 1.3-.3c.5 0 .9.1 1.2.3c.4.2.7.4.9.6l-.5.7c-.2-.3-.5-.4-.7-.6c-.3-.1-.5-.2-.9-.2c-.3 0-.6.1-.9.3c-.3.1-.6.3-.8.6c-.2.2-.3.5-.5.9c-.1.4-.1.8-.1 1.3c0 .4 0 .9.1 1.2c.1.4.3.8.5 1c.2.3.4.5.7.6c.3.2.6.2 1 .2c.4 0 .7 0 1-.2c.2-.1.5-.3.7-.6l.6.6c-.3.3-.7.6-1.1.8c-.3.2-.7.3-1.2.3zm5.5 0c-.5 0-1-.1-1.4-.3c-.5-.2-.9-.5-1.2-.8l.6-.7c.2.3.5.5.9.7c.4.2.7.2 1.1.2c.5 0 .9-.1 1.2-.3c.3-.2.4-.5.4-.9c0-.2 0-.3-.1-.5c-.1-.1-.1-.2-.3-.3c-.1-.1-.2-.2-.4-.3c-.1 0-.3-.1-.4-.2l-1.1-.5c-.2-.1-.4-.1-.5-.2c-.2-.2-.4-.3-.5-.4c-.2-.2-.3-.4-.4-.6c-.1-.2-.1-.4-.1-.7c0-.3 0-.5.1-.8c.2-.2.3-.4.5-.6c.2-.2.5-.3.8-.4c.3-.1.6-.2.9-.2c.5 0 .9.1 1.3.3c.3.1.7.4.9.6l-.5.6c-.2-.2-.5-.3-.7-.5c-.3-.1-.6-.2-1-.2c-.4 0-.8.1-1 .3c-.3.2-.4.5-.4.8c0 .2.1.4.1.5c.1.1.2.3.3.3c.1.1.3.2.4.3c.2.1.3.1.4.2l1.1.4c.2.1.4.2.6.4c.2.1.4.2.5.4c.2.1.3.3.3.5c.1.2.2.5.2.7c0 .3-.1.6-.2.9c-.1.2-.3.5-.5.7c-.2.1-.5.3-.8.4c-.3.1-.7.2-1.1.2zm9-.2h-1.1l-1.8-3.1h-1.3v3.1h-1V348s2.37-.04 2.4 0c.4 0 .7 0 1 .1c.3 0 .6.2.8.3c.3.2.5.4.6.7c.1.2.2.6.2 1c0 .6-.2 1-.5 1.4c-.3.3-.7.5-1.2.7c-.01-.04 1.9 3.2 1.9 3.2zm-4.2-6.7v2.8h1.2c.6 0 1.1-.1 1.4-.4c.3-.2.4-.6.4-1c0-.5-.1-.9-.4-1.1c-.3-.2-.8-.3-1.4-.3c.03.02-1.2 0-1.2 0zm11.5 5.6h3.7v.7h-8.3v-.7h3.7v-2.2h-2.7v-4.3h6.3v4.3H76v2.2zm-2.8-5.8v2.9h4.7v-2.9h-4.7zm14.1-1.4l.8-.1v5.3h-.8V350h-2.1v1.8H81v-4.2h.9v1.4h2.4v-1.4h.9v1.8h2.1v-2.3zm-3 4.1v-1.5h-2.4v1.5h2.4zm-2.1 4.9v-3.3h5.9v3.3h-5.9zm.8-2.6v1.9h4.3v-1.9H83zm13.4-6.5h.9v9.2h-.9V347zm-6.1 1s4.28.03 4.3 0c0 .7-.1 1.3-.3 1.9c-.1.7-.4 1.2-.7 1.8c-.3.5-.8 1-1.3 1.5c-.6.5-1.2.9-2 1.3l-.4-.7c1.2-.6 2.1-1.3 2.8-2.2c.6-.8.9-1.8 1-2.9h-3.4v-.7zm15.3-.9h.9v4.9h-.9v-2.1s-1.83.01-1.8 0c-.1.6-.4 1-.8 1.3c-.4.3-.9.5-1.6.5c-.3 0-.6 0-.9-.2c-.3-.1-.5-.2-.7-.4c-.3-.2-.4-.4-.5-.7c-.2-.2-.2-.5-.2-.8c0-.3 0-.6.2-.9c.1-.2.2-.5.5-.6c.2-.2.4-.4.7-.5c.3-.1.6-.1.9-.1c.3 0 .6 0 .9.1c.3.1.5.2.7.4c.2.1.4.3.5.5c.1.2.2.5.3.7c-.04.02 1.8 0 1.8 0v-2.1zm-4.2 3.9c.3 0 .5 0 .7-.1c.2-.1.3-.2.5-.3c.1-.1.2-.3.3-.4c.1-.2.1-.4.1-.6c0-.2 0-.4-.1-.6c-.1-.2-.2-.3-.3-.4c-.2-.2-.3-.3-.5-.3c-.2-.1-.4-.1-.7-.1c-.2 0-.4 0-.6.1c-.2 0-.3.1-.5.3c-.1.1-.2.2-.3.4c-.1.2-.1.4-.1.6c0 .2 0 .4.1.6c.1.1.2.3.3.4c.2.1.3.2.5.3c.2.1.4.1.6.1zm4.2 2.6v-1.2h.9v3.7h-5.9v-3.7h.8v1.2h4.2zm0 1.8v-1.2h-4.2v1.2h4.2zm2.7-7.8v-1.1h1.1s-.01 1.08 0 1.1c0 .2 0 .3-.1.5c0 .2-.1.3-.1.5c-.1.1-.2.2-.4.3c-.1.1-.3.1-.5.1v-.4c.1 0 .2-.1.3-.1c.1-.1.1-.2.2-.3c0-.1.1-.2.1-.3v-.3c-.02-.02-.6 0-.6 0zm12 2.9l-.3.7l-1.1-.3c-.3-.1-.6-.3-.9-.4c-.3-.2-.6-.4-.8-.7c-.3-.2-.5-.5-.6-.7c-.1.2-.3.5-.6.7c-.2.3-.5.5-.8.7c-.3.1-.6.3-.9.4l-1.1.3l-.3-.7c.4 0 .8-.1 1.2-.3c.4-.2.7-.4 1-.6c.4-.2.6-.5.8-.8c.2-.3.3-.6.3-.9c-.04-.02 0-.5 0-.5h.8s.03.48 0 .5c0 .3.1.6.3.9c.2.3.4.6.8.8c.3.2.6.4 1 .6c.4.2.8.3 1.2.3zm.4 1.7v.7H117v3.3h-.8v-3.3h-3.7v-.7h8.2zm8-2.8h1.4v.7h-1.4v2.5h-.8v-5.5h.8v2.3zm-1.8 1.9l-.4.7c-.5-.2-1-.5-1.3-.8c-.4-.4-.7-.8-.9-1.3c-.2.6-.5 1-.9 1.4c-.4.4-.8.7-1.4 1l-.4-.7c.3-.1.7-.3.9-.5c.3-.2.6-.5.8-.7c.2-.3.3-.6.4-.9c.1-.4.2-.7.2-1.1c-.03.05 0-.9 0-.9h.8v1c0 .3.1.6.2.9c.1.3.2.6.4.8c.2.3.4.5.7.7c.3.2.6.3.9.4zm-1.1 1.5c.5 0 .9.1 1.3.2c.3 0 .7.1.9.3c.3.1.5.3.6.5c.2.2.2.5.2.7c0 .3 0 .5-.2.7c-.1.2-.3.4-.6.5c-.2.2-.6.3-.9.4c-.4 0-.8.1-1.3.1c-.9 0-1.6-.2-2.2-.5c-.5-.2-.8-.7-.8-1.2c0-.2.1-.5.2-.7c.2-.2.4-.4.6-.5c.3-.2.6-.3 1-.3c.3-.1.8-.2 1.2-.2zm0 2.7c.7 0 1.2-.1 1.6-.2c.4-.2.6-.5.6-.8c0-.3-.2-.6-.6-.7c-.4-.2-.9-.3-1.6-.3c-.7 0-1.2.1-1.6.3c-.4.1-.6.4-.6.7c0 .3.2.6.6.8c.4.1.9.2 1.6.2z" stroke="none" fill="#fff"/></g><g id="Polygon42422"><path d="m3.1 332.7v1h-1v-1h1zm7.9 4.4c-.4 0-.9-.1-1.3-.3c-.4-.2-.7-.4-1-.8c-.3-.3-.5-.7-.7-1.2c-.1-.5-.2-1-.2-1.6c0-.6.1-1.1.2-1.6c.2-.5.4-.9.7-1.2c.3-.4.7-.6 1.1-.8c.4-.2.8-.3 1.3-.3c.4 0 .8.1 1.2.3c.3.2.6.4.8.6l-.5.7c-.2-.3-.4-.4-.6-.6c-.3-.1-.6-.2-.9-.2c-.4 0-.7.1-1 .3c-.3.1-.5.3-.7.6c-.2.2-.4.5-.5.9c-.1.4-.2.8-.2 1.3c0 .4.1.9.2 1.2c.1.4.3.8.5 1c.2.3.4.5.7.6c.3.2.6.2 1 .2c.3 0 .7 0 .9-.2c.3-.1.6-.3.8-.6l.5.6c-.3.3-.6.6-1 .8c-.4.2-.8.3-1.3.3zm3.5-.2v-7.4s1.88-.04 1.9 0c1.2 0 2 .3 2.6.9c.6.6.9 1.5.9 2.8c0 .6-.1 1.1-.2 1.6c-.2.4-.4.8-.7 1.1c-.3.4-.7.6-1.1.8c-.4.2-.9.2-1.5.2c.02.04-1.9 0-1.9 0zm1-.7s.8-.04.8 0c.9 0 1.6-.3 2-.8c.4-.5.6-1.3.6-2.2c0-1-.2-1.7-.6-2.2c-.4-.5-1.1-.8-2-.8c0 .02-.8 0-.8 0v6zm5.8.7v-7.4s2.14-.04 2.1 0c.5 0 .8 0 1.2.1c.3 0 .6.2.9.3c.2.2.4.4.5.7c.2.3.2.6.2 1.1c0 .3 0 .7-.2 1c-.1.3-.3.5-.5.7c-.3.2-.6.3-.9.4c-.3.1-.7.2-1.1.2c-.01-.03-1.2 0-1.2 0v2.9h-1zm1-3.7h1.1c.6 0 1.1-.1 1.4-.4c.3-.2.5-.6.5-1.1c0-.6-.2-1-.5-1.2c-.3-.2-.8-.3-1.5-.3c.03.02-1 0-1 0v3zm13.5-4.7h.9v9.2h-.9v-9.2zm-6.1 1s4.28.03 4.3 0c0 .7-.1 1.3-.3 1.9c-.1.7-.4 1.2-.7 1.8c-.4.5-.8 1-1.3 1.5c-.6.5-1.2.9-2 1.3l-.4-.7c1.2-.6 2.1-1.3 2.8-2.2c.6-.8.9-1.8 1-2.9h-3.4v-.7zm16.4.1v.7h-7.3v-.7h3.2v-1.1h.9v1.1h3.2zm-6.6 2.7c0-.5.3-.9.8-1.1c.5-.3 1.2-.4 2.2-.4c.9 0 1.6.1 2.1.4c.6.2.8.6.8 1.1c0 .5-.2.9-.8 1.1c-.5.3-1.2.4-2.1.4c-1 0-1.7-.1-2.2-.4c-.5-.2-.8-.6-.8-1.1zm5.1 0c0-.3-.2-.5-.6-.6c-.3-.2-.8-.3-1.5-.3c-.7 0-1.2.1-1.6.3c-.4.1-.5.3-.5.6c0 .3.1.5.5.7c.4.1.9.2 1.6.2c.7 0 1.2-.1 1.5-.2c.4-.2.6-.4.6-.7zm2 2.2v.7h-3.7v2.5h-.9v-2.5h-3.7v-.7h8.3zm5.5-1.6v.9H48v-4.6h.8v1.6h2.5v-1.6h.8v1h2.1v-1.6h.8v6.7h-.8v-2.4h-2.1zm2.1-2h-2.1v1.3h2.1v-1.3zm-2.9 2.2v-1.7h-2.5v1.7h2.5zm-1.3 3.7h5.3v.7h-6.1v-2.8h.8v2.1zm15.2-4.4v.7h-1.5v4.6h-.8v-9.2h.8v3.9h1.5zm-3-2.7v.6h-5.5v-.6h2.4v-1.1h.8v1.1h2.3zm-2.3 4.5v1c.4 0 .8-.1 1.2-.1c.5 0 .9-.1 1.3-.1v.6c-.5.1-1 .1-1.5.2c-.5 0-1 .1-1.5.1c-.5 0-.9 0-1.4.1h-1.3l-.1-.7c.4 0 .7 0 1.2-.1h1.3v-1c-.6 0-1-.2-1.3-.5c-.3-.3-.5-.7-.5-1.2c0-.2.1-.4.2-.6c.1-.3.2-.4.4-.6c.2-.1.4-.2.7-.3c.3-.1.6-.1.9-.1c.3 0 .6 0 .9.1c.2.1.5.2.6.3c.2.2.4.3.5.6c.1.2.1.4.1.6c0 .5-.1.9-.4 1.2c-.3.3-.8.5-1.3.5zm-1.8-1.7c0 .4.1.6.4.8c.2.2.6.3 1 .3c.4 0 .7-.1 1-.3c.2-.2.4-.4.4-.8c0-.3-.2-.5-.4-.7c-.3-.2-.6-.3-1-.3c-.4 0-.8.1-1 .3c-.3.2-.4.4-.4.7zm16.8-4h.8v9.2h-.8v-4.8h-1.3v4.3h-.8v-8.5h.8v3.5h1.3v-3.7zm-5.8 1.8v4.4h1.6c.5-.1 1-.1 1.5-.2l.1.7c-.3 0-.6.1-.8.1c-.3 0-.6.1-.8.1h-1.8c-.02.04-.6 0-.6 0v-5.7h3.4v.6h-2.6zm12.2-1.5c.5 0 .9 0 1.3.1c.4.1.7.2 1 .3c.3.2.5.4.7.6c.1.2.2.4.2.7c0 .3-.1.5-.2.7c-.2.3-.4.4-.7.6c-.3.1-.6.3-1 .3c-.4.1-.8.2-1.3.2c-.5 0-1-.1-1.4-.2c-.4 0-.7-.2-1-.3c-.3-.2-.5-.3-.6-.6c-.2-.2-.3-.4-.3-.7c0-.3.1-.5.3-.7c.1-.2.3-.4.6-.6c.3-.1.6-.2 1-.3c.4-.1.9-.1 1.4-.1zm0 .6c-.8 0-1.4.1-1.8.3c-.4.2-.6.5-.6.8c0 .4.2.6.6.8c.4.2 1 .3 1.8.3c.7 0 1.3-.1 1.7-.3c.4-.2.6-.4.6-.8c0-.3-.2-.6-.6-.8c-.4-.2-1-.3-1.7-.3zm-4.2 3.6h8.3v.7h-8.3v-.7zm4.2 1.4c.9 0 1.7.2 2.3.4c.5.3.8.7.8 1.3c0 .5-.3.9-.8 1.2c-.6.3-1.4.4-2.3.4c-1 0-1.8-.2-2.3-.4c-.6-.3-.9-.7-.9-1.2c0-.6.3-1 .9-1.3c.5-.2 1.3-.4 2.3-.4zm0 .7c-.8 0-1.3.1-1.7.2c-.4.2-.6.4-.6.8c0 .3.2.5.6.7c.4.2.9.2 1.7.2c.7 0 1.2 0 1.6-.2c.4-.2.6-.4.6-.7c0-.4-.2-.6-.6-.8c-.4-.1-.9-.2-1.6-.2zm13.7-6.6h.8v9.2h-.8v-9.2zm-5.9 5.2l-.4-.7c.4-.1.7-.2.9-.4c.3-.2.6-.4.8-.6c.2-.2.3-.5.4-.7c.1-.3.2-.6.2-.9h-2.1v-.7h2.1v-1.1h.9v1.1h2.1v.7h-2.1c0 .3 0 .6.1.8c.1.3.3.5.5.8c.2.2.5.4.7.5c.3.2.6.3 1 .4l-.4.7c-.6-.2-1-.4-1.4-.8c-.4-.3-.7-.7-1-1.1c-.2.4-.5.9-.9 1.2c-.4.3-.8.6-1.4.8zm2.8-.3s-.05 1.64 0 1.6c.4 0 .8 0 1.2-.1c.5 0 .9 0 1.3-.1l.1.6c-.5.1-1 .2-1.6.2c-.5.1-1 .1-1.5.2h-2.8l-.2-.7h2.6c.01-.02 0-1.7 0-1.7h.9zm9.8-.5c-.5 0-.9 0-1.3-.1c-.4-.1-.7-.3-1-.4c-.3-.2-.5-.4-.7-.7c-.1-.2-.2-.5-.2-.8c0-.3.1-.6.2-.8c.2-.3.4-.5.7-.6c.3-.2.6-.4 1-.4c.4-.1.8-.2 1.3-.2c.5 0 .9.1 1.3.2c.4 0 .7.2 1 .4c.3.1.5.3.7.6c.1.2.2.5.2.8c0 .3-.1.6-.2.8c-.2.3-.4.5-.7.7c-.3.1-.6.3-1 .4c-.4.1-.8.1-1.3.1zm0-3.3c-.4 0-.7 0-1 .1c-.2 0-.5.1-.7.2c-.2.2-.4.3-.5.5c-.1.1-.1.3-.1.5c0 .2 0 .4.1.6c.1.1.3.3.5.4c.2.1.5.2.7.3h1.9c.3-.1.6-.2.8-.3c.2-.1.4-.3.5-.4c.1-.2.1-.4.1-.6c0-.2 0-.4-.1-.5c-.1-.2-.3-.3-.5-.5c-.2-.1-.5-.2-.8-.2c-.2-.1-.6-.1-.9-.1zm4.2 4.2v.7h-3.8v3.2h-.8v-3.2h-3.7v-.7h8.3zm8.7-1.8l-.3.7l-1.1-.3c-.3-.1-.6-.3-.9-.4c-.3-.2-.6-.4-.8-.7c-.3-.2-.5-.5-.6-.7c-.1.2-.3.5-.6.7c-.2.3-.5.5-.8.7c-.3.1-.6.3-.9.4l-1.1.3l-.3-.7c.4 0 .8-.1 1.2-.3c.4-.2.7-.4 1-.6c.4-.2.6-.5.8-.8c.2-.3.3-.6.3-.9c-.04-.02 0-.5 0-.5h.8s.03.48 0 .5c0 .3.1.6.3.9c.2.3.4.6.8.8c.3.2.6.4 1 .6c.4.2.8.3 1.2.3zm.4 1.7v.7h-3.7v3.3h-.8v-3.3h-3.7v-.7h8.2zm9.7-5.2h.8v9.2h-.8v-9.2zm-6.1 1s4.24.03 4.2 0c0 .7 0 1.3-.2 1.9c-.2.7-.4 1.2-.7 1.8c-.4.5-.8 1-1.4 1.5c-.5.5-1.2.9-1.9 1.3l-.5-.7c1.3-.6 2.2-1.3 2.8-2.2c.6-.8 1-1.8 1.1-2.9h-3.4v-.7zm15.3-.9h.8v4.9h-.8v-2.1H132c-.1.6-.3 1-.7 1.3c-.4.3-1 .5-1.6.5c-.3 0-.7 0-1-.2c-.2-.1-.5-.2-.7-.4c-.2-.2-.4-.4-.5-.7c-.1-.2-.2-.5-.2-.8c0-.3.1-.6.2-.9c.1-.2.3-.5.5-.6c.2-.2.5-.4.7-.5c.3-.1.7-.1 1-.1c.3 0 .6 0 .8.1c.3.1.5.2.8.4c.2.1.3.3.5.5c.1.2.2.5.2.7c.02.02 1.9 0 1.9 0v-2.1zm-4.2 3.9c.2 0 .4 0 .6-.1c.2-.1.4-.2.5-.3c.2-.1.3-.3.3-.4c.1-.2.2-.4.2-.6c0-.2-.1-.4-.2-.6c0-.2-.1-.3-.3-.4c-.1-.2-.3-.3-.5-.3c-.2-.1-.4-.1-.6-.1c-.2 0-.4 0-.6.1c-.2 0-.4.1-.5.3c-.2.1-.3.2-.4.4c0 .2-.1.4-.1.6c0 .2.1.4.1.6c.1.1.2.3.4.4c.1.1.3.2.5.3c.2.1.4.1.6.1zm4.2 2.6v-1.2h.8v3.7h-5.8v-3.7h.8v1.2h4.2zm0 1.8v-1.2h-4.2v1.2h4.2zm11.2-1.5v-4h-2v-.7h2v-2.1h.9v6.8h-.9zm-1.3-2.2l-.4.7c-.5-.2-1-.5-1.4-.9c-.3-.4-.6-.8-.8-1.3c-.2.5-.5 1-.9 1.4c-.4.4-.9.8-1.4 1l-.4-.7c.3-.1.6-.3.9-.5c.3-.2.5-.5.7-.7c.2-.3.4-.6.5-1c.1-.3.1-.6.1-1c.05.02 0-1.1 0-1.1h.9v1.2c0 .3 0 .6.1.9c.2.3.3.6.5.8c.2.3.4.5.7.7c.3.2.6.4.9.5zm-2.9 3.6h5.3v.7h-6.1v-2.9h.8v2.2zm11.6-5.9h1.8v-2.3h.9v5.4h-.9v-2.4h-1.8v-.7zm.5 2.1l-.4.7c-.5-.2-.9-.5-1.3-.9c-.4-.3-.7-.7-.9-1.2c-.2.5-.5 1-.9 1.4c-.4.4-.9.7-1.4.9l-.4-.6c.3-.2.6-.3.9-.5c.3-.3.5-.5.7-.8c.2-.2.4-.5.5-.8c.1-.4.2-.7.2-1c-.03 0 0-.3 0-.3h-2.1v-.7h4.9v.7h-2v.3c0 .3.1.6.2.9c.1.3.2.5.4.8c.2.2.4.4.7.6c.3.2.6.4.9.5zm-.8 1.3c.4 0 .8 0 1.2.1c.4.1.7.2 1 .3l.6.6c.1.2.2.4.2.7c0 .3-.1.5-.2.7c-.2.2-.4.4-.6.5c-.3.2-.6.3-1 .4c-.4.1-.8.1-1.2.1c-.5 0-.9 0-1.3-.1c-.4-.1-.7-.2-1-.4c-.2-.1-.4-.3-.6-.5c-.1-.2-.2-.4-.2-.7c0-.3.1-.5.2-.7l.6-.6c.3-.1.6-.2 1-.3c.4-.1.8-.1 1.3-.1zm0 2.7c.7 0 1.2-.1 1.6-.2c.4-.2.6-.5.6-.8c0-.3-.2-.6-.6-.8c-.4-.2-.9-.3-1.6-.3c-.7 0-1.3.1-1.7.3c-.4.2-.6.5-.6.8c0 .3.2.6.6.8c.4.1 1 .2 1.7.2zm9.2 1.1l-.6.3c-.5-.8-.8-1.6-1.1-2.4c-.3-.8-.4-1.8-.4-2.8c0-1 .1-1.9.4-2.8c.3-.8.6-1.6 1.1-2.4l.6.3c-.5.7-.8 1.5-1 2.3c-.2.9-.3 1.7-.3 2.6c0 .9.1 1.8.3 2.6c.2.8.5 1.6 1 2.3zm7.8-6.7h1.4v.7h-1.4v3.2h-.8v-6.8h.8v2.9zm-1.9 1.6l.1.7c-.3 0-.6.1-.9.1c-.3 0-.6.1-.9.1h-2.3c-.05.02-.7 0-.7 0v-4.6h4.1v.6h-3.3v1.3h3.2v.7h-3.2v1.4c.4 0 .8-.1 1.2-.1h1c.3 0 .6 0 .9-.1c.3 0 .5-.1.8-.1zm-2.9 1.7v2.1h5.2v.7h-6.1v-2.8h.9zm14.8-1.7l-.3.7l-1.1-.3c-.3-.2-.7-.4-1-.6c-.3-.2-.5-.5-.8-.7l-.6-.9c-.1.3-.3.6-.6.9c-.2.2-.5.5-.8.7c-.3.2-.6.4-1 .6c-.3.1-.6.2-1 .3l-.3-.7c.4-.1.8-.2 1.2-.4c.4-.2.7-.4 1-.7c.3-.3.6-.6.8-.9c.2-.4.3-.8.3-1.1v-.7h.9s-.03.66 0 .7c0 .3.1.7.3 1.1c.2.3.4.6.7.9c.4.3.7.5 1.1.7c.4.2.8.3 1.2.4zm-3.4 2.8h3.8v.7h-8.3v-.7h3.7v-2.2h.8v2.2zm13.5-4.9H187c-.6 1.5-1.9 2.5-4 3.1l-.3-.6c1.1-.4 2-.8 2.6-1.4c.7-.6 1-1.3 1.1-2.1h-3.2v-.7s4.1.03 4.1 0v.5c0 .2-.1.4-.1.5c0 .02 2.1 0 2.1 0v-1.6h.8v5.4h-.8v-1.2h-2.4v-.7h2.4v-1.2zm-2.2 3.2c.5 0 .9.1 1.3.1c.4.1.7.2.9.4c.3.1.5.3.6.5c.2.3.3.5.3.8c0 .3-.1.5-.3.7c-.1.2-.3.4-.6.6c-.2.1-.5.2-.9.3c-.4.1-.8.1-1.3.1c-.4 0-.9 0-1.2-.1c-.4-.1-.7-.2-1-.3l-.6-.6c-.1-.2-.2-.4-.2-.7c0-.3.1-.5.2-.8c.2-.2.4-.4.6-.5c.3-.2.6-.3 1-.4c.3 0 .8-.1 1.2-.1zm0 2.9c.7 0 1.2-.1 1.6-.3c.4-.2.6-.5.6-.8c0-.4-.2-.6-.6-.8c-.4-.2-.9-.3-1.6-.3c-.7 0-1.2.1-1.6.3c-.4.2-.6.4-.6.8c0 .3.2.6.6.8c.4.2.9.3 1.6.3zm11.4-4.3s-2.4-.05-2.4 0c-.2.2-.5.4-.8.5c-.3.2-.7.2-1 .2c-.4 0-.7 0-1-.1c-.3-.1-.5-.3-.7-.5c-.2-.2-.4-.4-.5-.7c-.1-.2-.2-.5-.2-.8c0-.4.1-.7.2-.9c.1-.3.3-.5.5-.7c.2-.2.4-.3.7-.5c.3-.1.6-.1 1-.1c.3 0 .7.1 1 .2c.3.1.6.3.8.6c0-.04 2.4 0 2.4 0v-1.4h.8v5.5h-.8v-1.3zm-5.8-1.4c0 .2 0 .4.1.5c.1.2.2.4.3.5c.2.1.3.2.5.3c.2.1.4.1.7.1c.2 0 .4 0 .6-.1c.2-.1.3-.2.5-.3c.1-.1.2-.3.3-.5c.1-.1.1-.3.1-.5c0-.3 0-.5-.1-.6c-.1-.2-.2-.4-.3-.5c-.2-.1-.3-.2-.5-.3c-.2-.1-.4-.1-.6-.1c-.3 0-.5 0-.7.1c-.2.1-.3.2-.5.3c-.1.1-.2.3-.3.5c-.1.1-.1.3-.1.6zm5.8-.8s-2.01.04-2 0c.1.3.1.5.1.8c0 .2 0 .4-.1.7c-.02-.03 2 0 2 0v-1.5zm-2.2 3.7c.4 0 .9 0 1.2.1c.4.1.7.2 1 .3c.3.2.5.4.6.6c.2.2.2.4.2.7c0 .3 0 .6-.2.8c-.1.2-.3.4-.6.5c-.3.2-.6.3-1 .4c-.3 0-.8.1-1.2.1c-.5 0-.9-.1-1.3-.1c-.4-.1-.7-.2-1-.4c-.2-.1-.4-.3-.6-.5c-.1-.2-.2-.5-.2-.8c0-.3.1-.5.2-.7l.6-.6c.3-.1.6-.2 1-.3c.4-.1.8-.1 1.3-.1zm0 2.8c.7 0 1.2-.1 1.6-.3c.4-.2.6-.4.6-.8c0-.3-.2-.6-.6-.8c-.4-.2-.9-.3-1.6-.3c-.7 0-1.3.1-1.7.3c-.4.2-.5.5-.5.8c0 .4.1.6.5.8c.4.2 1 .3 1.7.3zm15.3-4.8v.7h-1.5v4.8h-.9v-9.1h.9v3.6h1.5zm-6.1-3c.3 0 .6.1.9.3c.3.1.5.3.7.6c.2.3.4.6.5 1c.1.4.2.8.2 1.3c0 .5-.1 1-.2 1.4c-.1.3-.3.7-.5 1c-.2.2-.4.5-.7.6c-.3.2-.6.2-.9.2c-.4 0-.7 0-1-.2c-.3-.1-.5-.4-.7-.6c-.2-.3-.4-.7-.5-1c-.1-.4-.1-.9-.1-1.4c0-.5 0-.9.1-1.3c.1-.4.3-.7.5-1c.2-.3.4-.5.7-.6c.3-.2.6-.3 1-.3zm0 5.7c.2 0 .4-.1.6-.2c.1-.1.3-.3.4-.5c.2-.2.3-.5.3-.8c.1-.3.2-.6.2-1c0-.3-.1-.7-.2-1c0-.3-.1-.5-.3-.7c-.1-.2-.3-.4-.4-.5c-.2-.1-.4-.2-.6-.2c-.3 0-.5.1-.7.2c-.1.1-.3.3-.4.5c-.2.2-.3.4-.3.7c-.1.3-.2.7-.2 1c0 .4.1.7.2 1c0 .3.1.6.3.8c.1.2.3.4.4.5c.2.1.4.2.7.2zm13.4-6.4h.8v9.2h-.8v-5.4h-2.8v-.7h2.8v-3.1zm-5.4 1.1s.04 5.19 0 5.2c.7 0 1.4 0 2-.1c.6-.1 1.3-.1 2-.3l.1.7c-.7.2-1.4.3-2.1.3c-.7.1-1.4.1-2.1.1h-.7v-5.9h.8zm15.8 3.5l-.4.7c-.4 0-.7-.2-1-.3c-.4-.2-.7-.4-1-.6c-.3-.2-.6-.5-.8-.8c-.3-.3-.5-.6-.6-.9c-.2.3-.3.6-.6.9c-.2.3-.5.6-.8.8c-.3.2-.6.4-1 .6c-.3.1-.7.3-1 .3l-.4-.7c.4 0 .8-.2 1.2-.4c.4-.2.8-.4 1.1-.7c.3-.3.6-.6.8-1c.2-.3.3-.7.3-1.1c-.05-.01 0-.7 0-.7h.8s.03.69 0 .7c0 .4.1.7.3 1.1c.2.4.5.7.8 1c.3.3.7.5 1.1.7c.4.2.8.4 1.2.4zm-7.9 2.7h8.3v.7h-8.3v-.7zm18.3-3.5c-.04-.02 1.2 0 1.2 0v.7h-8.2v-.7s6.11-.02 6.1 0c.1-.2.1-.4.1-.6c.1-.2.1-.4.1-.6c-.01.02-5.4.3-5.4.3l-.1-.7s5.54-.17 5.5-.2v-.2c.05.01 0-.7 0-.7h-5.3v-.6h6.2s-.03.67 0 .7c0 .3 0 .7-.1 1.1c0 .5 0 .9-.1 1.5zm-5.2 3.7v.9h5.7v.7h-6.6v-2.3h5.5v-.8h-5.5v-.7h6.3v2.2h-5.4zm14-7.4h.9v5h-.9v-2.5h-1.7v-.7h1.7v-1.8zm-1.5 3.8l.1.7c-.4 0-.7.1-1.1.1c-.3 0-.6.1-1 .1h-2.1c0 .02-.7 0-.7 0v-2.5h3.2v-1.2h-3.2v-.7h4v2.5H243s.02 1.24 0 1.2h2c.4 0 .7 0 1-.1c.3 0 .6-.1 1-.1zm1.5 2.7V334h.9v3.6h-6V334h.8v1.1h4.3zm0 1.8v-1.1h-4.3v1.1h4.3zm3 1.4l-.6-.2c.4-.8.8-1.6 1-2.4c.2-.8.3-1.7.3-2.5c0-.9-.1-1.8-.3-2.6c-.2-.8-.6-1.6-1-2.4l.6-.2c.4.7.8 1.5 1.1 2.4c.2.8.4 1.7.4 2.8c0 1-.2 1.9-.4 2.7c-.3.9-.7 1.7-1.1 2.4z" stroke="none" fill="#fff"/></g><g id="Polygon42421"><path d="m3.1 314.2v1h-1v-1h1zm12 .2v.7H8.8v-4.2h6.2v.7H9.6v2.8h5.5zm-7.4 2.9h8.3v.7H7.7v-.7zm17.7-3.6v.7h-1.5v4.8h-.8V310h.8v3.7h1.5zm-7.3.5v2.1h1.2c.3 0 .7 0 1-.1c.3 0 .7 0 1-.1c.3 0 .7-.1 1-.1l.1.7c-.4 0-.7.1-1.1.1c-.3.1-.6.1-1 .1c-.3 0-.7.1-1.1.1h-1.9v-3.5h3.3v-1.9h-3.4v-.7h4.2v3.3h-3.3zm14.6-4.2h.9v9.2h-.9V310zm-4 .7c.4 0 .7.1 1 .3c.3.1.5.3.7.6c.2.3.4.6.5 1c.1.4.2.8.2 1.3c0 .5-.1 1-.2 1.4c-.1.3-.3.7-.5 1c-.2.2-.4.5-.7.6c-.3.2-.6.2-1 .2c-.3 0-.6 0-.9-.2c-.3-.1-.5-.4-.7-.6c-.2-.3-.4-.7-.5-1c-.1-.4-.2-.9-.2-1.4c0-.5.1-.9.2-1.3c.1-.4.3-.7.5-1c.2-.3.4-.5.7-.6c.3-.2.6-.3.9-.3zm0 .8c-.2 0-.4.1-.6.2c-.2.1-.3.3-.5.5c-.1.2-.2.4-.3.7c0 .3-.1.7-.1 1c0 .4.1.7.1 1c.1.3.2.6.3.8c.2.2.3.4.5.5c.2.1.4.2.6.2c.3 0 .5-.1.7-.2c.1-.1.3-.3.4-.5c.2-.2.3-.5.4-.8c0-.3.1-.6.1-1c0-.3-.1-.7-.1-1c-.1-.3-.2-.5-.4-.7c-.1-.2-.3-.4-.4-.5c-.2-.1-.4-.2-.7-.2zm13.2-1.4h.9v5.5h-.9v-5.5zm-6.2.5h.9v1.4h2.6v-1.4h.8v4.3h-4.3v-4.3zm.9 2.1v1.5h2.6v-1.5h-2.6zm3.1 3.1c.5 0 .9 0 1.3.1c.4.1.7.2 1 .3c.2.2.4.3.6.6c.1.2.2.4.2.7c0 .2-.1.5-.2.7c-.2.2-.4.4-.6.5c-.3.2-.6.3-1 .4c-.4 0-.8.1-1.3.1c-.4 0-.9-.1-1.3-.1c-.3-.1-.7-.2-.9-.4c-.3-.1-.5-.3-.6-.5c-.2-.2-.2-.5-.2-.7c0-.3 0-.5.2-.7c.1-.3.3-.4.6-.6c.2-.1.6-.2.9-.3c.4-.1.9-.1 1.3-.1zm0 .6c-.7 0-1.2.1-1.6.3c-.4.2-.6.4-.6.8c0 .3.2.6.6.7c.4.2.9.3 1.6.3c.7 0 1.3-.1 1.7-.3c.4-.1.6-.4.6-.7c0-.4-.2-.6-.6-.8c-.4-.2-1-.3-1.7-.3zm9-3.7V311h-1.4v-.7h6.7v.7h-1.4v1.7h1.4v.7h-6.7v-.7h1.4zm3.1 0V311h-2.3v1.7h2.3zm-5.3 1.4h8.3v.7h-8.3v-.7zm1.9 3.5v.9h5.6v.6h-6.5V317h5.4v-.8h-5.4v-.6h6.2v2h-5.3zm14-7.6h.8v9.2h-.8v-5h-1.8v-.6h1.8V310zm-5.5 4.1s-.04 2.2 0 2.2h1.1c.3 0 .6 0 1-.1h.9c.3-.1.6-.1 1-.2v.7c-.3.1-.6.1-1 .1c-.3.1-.6.1-1 .1c-.3.1-.6.1-1 .1H56v-3.6h3.3v-1.8H56v-.7h4.1v3.2h-3.2zm15.9.5l-.4.7c-.4 0-.7-.2-1-.3c-.4-.2-.7-.4-1-.6c-.3-.2-.6-.5-.8-.8c-.3-.3-.5-.6-.6-.9c-.2.3-.3.6-.6.9c-.2.3-.5.6-.8.8c-.3.2-.6.4-1 .6c-.3.1-.7.3-1 .3l-.4-.7c.4 0 .8-.2 1.2-.4c.4-.2.8-.4 1.1-.7c.3-.3.6-.6.8-1c.2-.3.3-.7.3-1.1c-.05-.01 0-.7 0-.7h.8s.03.69 0 .7c0 .4.1.7.3 1.1c.2.4.5.7.8 1c.3.3.7.5 1.1.7c.4.2.8.4 1.2.4zm-7.9 2.7h8.3v.7h-8.3v-.7zm17.9-.5v-3.7h-1.7v-.7h1.7v-2.3h.9v6.7h-.9zm-1.5-2.2l.1.7c-.3 0-.7.1-1 .1c-.3 0-.6 0-.9.1h-3v-2.8h3.2v-1.3h-3.2v-.7h4.1v2.7h-3.3s.05 1.42 0 1.4h2.2c.3 0 .6-.1.9-.1c.3 0 .6-.1.9-.1zm-2.7 3.7h5.4v.7h-6.2v-2.7h.8v2zm12.4-3.8l-.4.7c-.6-.2-1-.4-1.4-.8c-.4-.3-.7-.7-1-1.1c-.2.5-.5.9-.9 1.3c-.4.3-.8.6-1.4.8l-.4-.7c.3-.1.7-.2.9-.4c.3-.2.6-.4.8-.6c.2-.3.3-.6.4-.8c.2-.3.2-.6.2-1v-.1h-2.1v-.6h2.1V310h.8v1.2h2.1v.6h-2.1s.04.15 0 .1c0 .3.1.6.2.9c.1.2.3.5.5.7c.2.2.4.4.7.6c.3.2.6.3 1 .4zm1.8-4.4v5.6h-.8v-5.6h.8zm-3 5.7c1 0 1.7.2 2.2.5c.6.3.9.7.9 1.2c0 .5-.3 1-.9 1.2c-.5.3-1.2.5-2.2.5c-1 0-1.7-.2-2.3-.5c-.5-.2-.8-.7-.8-1.2c0-.5.3-.9.8-1.2c.6-.3 1.3-.5 2.3-.5zm0 2.7c.7 0 1.2-.1 1.6-.2c.4-.2.6-.5.6-.8c0-.3-.2-.6-.6-.7c-.4-.2-.9-.3-1.6-.3c-.7 0-1.3.1-1.7.3c-.4.1-.6.4-.6.7c0 .3.2.6.6.8c.4.1 1 .2 1.7.2z" stroke="none" fill="#fff"/></g><g id="Polygon42420"><path d="m2.6 299.1h3v.8H.5v-.6s2.62-2.5 2.6-2.5l.6-.6c.1-.2.3-.4.4-.6c.1-.1.2-.3.3-.5c0-.2.1-.4.1-.7c0-.4-.2-.7-.4-.9c-.3-.3-.6-.4-1-.4c-.2 0-.4.1-.6.1c-.2.1-.3.2-.5.3c-.1.2-.2.3-.3.5c-.1.2-.1.4-.1.6l-.9-.2c0-.3.1-.6.3-.9c.1-.2.3-.4.5-.6c.2-.2.5-.3.8-.4c.2-.1.5-.2.9-.2c.3 0 .6.1.8.2c.3.1.6.2.8.4c.2.2.3.4.4.6c.2.3.2.6.2.9c0 .3 0 .6-.1.8c-.1.2-.2.5-.3.7c-.2.2-.4.4-.5.6c-.2.2-.4.5-.6.7l-2.1 2c.1 0 .3 0 .4-.1h.4zm9.1-2.9c0 .7-.1 1.2-.2 1.7c-.2.5-.4.9-.6 1.2c-.3.4-.6.6-.9.7c-.3.2-.7.3-1.1.3c-.4 0-.7-.1-1-.3c-.4-.1-.7-.3-.9-.7c-.3-.3-.5-.7-.6-1.2c-.1-.5-.2-1-.2-1.7c0-.7.1-1.2.2-1.7c.1-.5.3-.9.6-1.2c.2-.3.5-.6.9-.7c.3-.2.6-.3 1-.3c.4 0 .8.1 1.1.3c.3.1.6.4.9.7c.2.3.4.7.6 1.2c.1.5.2 1 .2 1.7zm-1 0c0-.6 0-1.1-.1-1.5c-.1-.4-.2-.7-.4-.9c-.2-.3-.4-.4-.6-.5c-.2-.1-.4-.2-.7-.2c-.2 0-.4.1-.6.2c-.3.1-.5.2-.6.5c-.2.2-.3.5-.4.9c-.1.4-.2.9-.2 1.5c0 .6.1 1.1.2 1.5c.1.4.2.7.4.9c.1.3.3.5.6.6c.2.1.4.1.6.1c.3 0 .5 0 .7-.1c.2-.1.4-.3.6-.6c.2-.2.3-.5.4-.9c.1-.4.1-.9.1-1.5zm4.9 3h1.5v.7h-4v-.7h1.6s.04-5.55 0-5.5v-.2c.05.04-1.3 1.3-1.3 1.3l-.5-.6l2-1.8h.7v6.8zm3.4.7s2.35-2.93 2.3-2.9c.2-.2.2-.3.3-.4c.1-.1.1-.2.2-.2c-.4.3-.9.5-1.5.5c-.3 0-.6-.1-.8-.2c-.3-.1-.5-.2-.7-.4c-.2-.2-.3-.4-.5-.7c-.1-.3-.1-.6-.1-.9c0-.4 0-.7.2-1c.1-.2.3-.5.5-.7c.2-.2.5-.4.8-.5c.3-.2.6-.2 1-.2c.4 0 .7 0 1 .2c.3.1.6.3.8.5c.2.2.4.4.5.7c.1.4.1.7.1 1.1c0 .4 0 .8-.2 1.2c-.1.3-.4.7-.7 1.1c.05.01-2 2.8-2 2.8H19zm.1-5.3c0 .5.1.9.4 1.1c.3.3.7.4 1.1.4c.3 0 .5 0 .7-.1c.2-.1.4-.2.5-.3c.2-.2.3-.3.3-.5c.1-.2.1-.4.1-.6c0-.2 0-.4-.1-.6c-.1-.2-.2-.4-.3-.5c-.1-.1-.3-.2-.5-.3c-.2-.1-.4-.1-.6-.1c-.5 0-.9.1-1.2.4c-.2.3-.4.7-.4 1.1z" stroke="none" fill="#fff"/></g><g id="Polygon42419"><path d="m3.1 258.7v1h-1v-1h1zm12.1-4.1v6.6h-.8v-6.6h.8zm-2.5 2.8c0 .4-.1.7-.2.9c-.1.3-.3.6-.5.8c-.2.2-.4.3-.7.4c-.3.1-.6.2-1 .2c-.3 0-.6-.1-.9-.2c-.3-.1-.6-.2-.8-.4c-.2-.2-.4-.5-.5-.8c-.1-.2-.2-.5-.2-.9c0-.3.1-.6.2-.9c.1-.3.3-.5.5-.7c.2-.2.5-.3.8-.5c.3-.1.6-.1.9-.1c.4 0 .7 0 1 .1c.3.2.5.3.7.5c.2.2.4.4.5.7c.1.3.2.6.2.9zm-3.9 0c0 .3 0 .5.1.6c0 .2.2.4.3.5c.1.2.3.3.5.4c.2 0 .4.1.6.1c.2 0 .4-.1.6-.1c.2-.1.4-.2.5-.4c.2-.1.3-.3.4-.5c.1-.1.1-.3.1-.6c0-.2 0-.4-.1-.6c-.1-.2-.2-.3-.4-.5c-.1-.1-.3-.2-.5-.3c-.2-.1-.4-.1-.6-.1c-.2 0-.4 0-.6.1c-.2.1-.4.2-.5.3c-.1.2-.3.3-.3.5c-.1.2-.1.4-.1.6zm1.4 5.4h5.3v.7H9.3v-3h.9v2.3zm11.3-1h3.7v.7h-8.3v-.7h3.7v-2.3H18v-4.2h6.2v.7h-5.4v2.8h5.4v.7h-2.7v2.3zm11.6-7.3h.8v9.2h-.8v-9.2zm-2 3.1v-2.8h.8v8.4h-.8v-4.9h-2v-.7h2zm-3.7-2.1s-.04 5.15 0 5.2c.4-.1.9-.1 1.4-.1c.5-.1 1-.1 1.5-.2l.1.7c-.6.1-1.1.2-1.7.2c-.5.1-1 .1-1.6.1c.01-.03-.6 0-.6 0v-5.9h.9zm14.5-1h.8v9.2h-.8v-9.2zm-3.4.8v1.7c0 .4.1.8.2 1.2c.1.4.3.8.5 1.2c.2.3.5.6.8.9c.3.3.6.5 1 .6l-.5.7c-.6-.2-1-.6-1.5-1.1c-.4-.5-.7-1.1-.9-1.8c-.2.7-.5 1.3-.9 1.9c-.5.5-.9.9-1.5 1.2l-.5-.7c.4-.2.7-.4 1-.7c.3-.2.5-.6.8-.9c.2-.4.4-.8.5-1.2c.1-.5.2-.9.2-1.3c-.02-.02 0-1.7 0-1.7h.8zm14.5 2.9v.7h-1.5v4.8h-.9v-9.1h.9v3.6h1.5zm-6.1-3c.3 0 .6.1.9.3c.3.1.5.3.7.6c.2.3.4.6.5 1c.1.4.2.8.2 1.3c0 .5-.1 1-.2 1.4c-.1.3-.3.7-.5 1c-.2.2-.4.5-.7.6c-.3.2-.6.2-.9.2c-.4 0-.7 0-1-.2c-.2-.1-.5-.4-.7-.6c-.2-.3-.3-.7-.5-1c-.1-.4-.1-.9-.1-1.4c0-.5 0-.9.1-1.3c.2-.4.3-.7.5-1c.2-.3.5-.5.7-.6c.3-.2.6-.3 1-.3zm0 5.7c.2 0 .4-.1.6-.2c.2-.1.3-.3.5-.5c.1-.2.2-.5.3-.8c0-.3.1-.6.1-1c0-.3-.1-.7-.1-1c-.1-.3-.2-.5-.3-.7c-.2-.2-.3-.4-.5-.5c-.2-.1-.4-.2-.6-.2c-.2 0-.4.1-.6.2c-.2.1-.4.3-.5.5c-.1.2-.2.4-.3.7c-.1.3-.1.7-.1 1c0 .4 0 .7.1 1c.1.3.2.6.3.8c.1.2.3.4.5.5c.2.1.4.2.6.2zm15.5-6.4h.8v9.2h-.8v-9.2zm-4 .7c.3 0 .6.1.9.3c.3.1.5.3.7.6c.2.3.4.6.5 1c.1.4.2.8.2 1.3c0 .5-.1 1-.2 1.4c-.1.3-.3.7-.5 1c-.2.2-.4.5-.7.6c-.3.2-.6.2-.9.2c-.4 0-.7 0-1-.2c-.3-.1-.5-.4-.7-.6c-.2-.3-.4-.7-.5-1c-.1-.4-.2-.9-.2-1.4c0-.5.1-.9.2-1.3c.1-.4.3-.7.5-1c.2-.3.4-.5.7-.6c.3-.2.6-.3 1-.3zm0 .8c-.3 0-.5.1-.7.2c-.1.1-.3.3-.4.5c-.2.2-.3.4-.4.7c0 .3-.1.7-.1 1c0 .4.1.7.1 1c.1.3.2.6.4.8c.1.2.3.4.4.5c.2.1.4.2.7.2c.2 0 .4-.1.6-.2c.2-.1.3-.3.5-.5c.1-.2.2-.5.3-.8c0-.3.1-.6.1-1c0-.3-.1-.7-.1-1c-.1-.3-.2-.5-.3-.7c-.2-.2-.3-.4-.5-.5c-.2-.1-.4-.2-.6-.2zm11 3.1h3.8v.6h-8.3v-.6h3.7V258h-2.7v-3h6.2v.6h-5.3v1.7h5.4v.7h-2.8v1.1zm-.4 1.3c1 0 1.8.1 2.3.4c.6.3.8.7.8 1.2c0 .6-.2 1-.8 1.3c-.5.2-1.3.4-2.3.4c-1 0-1.7-.2-2.3-.4c-.5-.3-.8-.7-.8-1.3c0-.5.3-.9.8-1.2c.6-.3 1.3-.4 2.3-.4zm0 2.6c.7 0 1.3 0 1.7-.2c.4-.2.6-.4.6-.8c0-.3-.2-.5-.6-.7c-.4-.2-1-.3-1.7-.3c-.7 0-1.3.1-1.7.3c-.4.2-.6.4-.6.7c0 .4.2.6.6.8c.4.2 1 .2 1.7.2zm11.7-8.4h.9v5.4h-.9v-5.4zm-1.1 4.2l-.4.7c-.6-.2-1-.5-1.4-.8c-.4-.4-.7-.9-.9-1.4c-.2.6-.5 1.1-.9 1.5c-.4.4-.9.7-1.4.9l-.5-.7c.4-.1.7-.3 1-.5c.3-.2.5-.5.7-.7c.2-.3.4-.6.5-.9c.1-.4.1-.7.1-1c.05-.03 0-.9 0-.9h.9s-.01.87 0 .9c0 .3 0 .6.2.9c.1.3.2.6.4.9l.7.7c.3.2.6.3 1 .4zm-4.2 2.4v-.7h6.2v3.2h-.9v-2.5h-5.3zm14.5.6h3.7v.7h-8.3v-.7h3.7v-2.3h-2.6v-4.2h6.2v.7h-5.4v2.8h5.5v.7h-2.8v2.3zm11.3-7.3h.8v9.2h-.8v-5.4h-2.1v-.7h2.1v-3.1zm-3.5.8s.01 1.67 0 1.7c0 .4.1.8.2 1.2c.1.4.3.8.5 1.1c.2.4.5.7.7 1c.3.3.6.5 1 .6l-.5.7c-.5-.3-1-.7-1.4-1.2c-.4-.5-.7-1.1-.9-1.7c-.2.7-.5 1.3-.9 1.8c-.4.6-.9 1-1.4 1.3l-.5-.7c.3-.2.6-.4.9-.7c.3-.3.6-.6.8-1c.2-.4.4-.7.5-1.2c.1-.4.2-.8.2-1.2c-.03-.03 0-1.7 0-1.7h.8zm13.1 2.2h1.3v.7h-1.3v3.2h-.8v-6.9h.8v3zm-2.3.9h-.8c.1-.6.1-1 .2-1.4v-1.1c.01.04-3.7 0-3.7 0v-.6h4.5s.02.43 0 .4v1.2c0 .4-.1.9-.2 1.5zm.9.6v.6c-.5.1-.9.2-1.4.2c-.5.1-1 .1-1.5.1c-.5 0-1 .1-1.5.1h-1.3l-.1-.7h2c-.04-.03 0-2 0-2h.8v1.9h1.5c.5-.1 1-.1 1.5-.2zm-3.5 1.8v2h5.2v.7H105v-2.7h.9zm13.2-2.4c-.5 0-.9 0-1.3-.1c-.4-.1-.8-.2-1.1-.3l-.6-.6c-.2-.2-.2-.5-.2-.8c0-.3 0-.5.2-.8c.2-.2.4-.4.6-.5c.3-.2.7-.3 1.1-.4c.4-.1.8-.1 1.3-.1c.5 0 .9 0 1.3.1c.4.1.7.2 1 .4c.3.1.5.3.6.5c.2.3.3.5.3.8c0 .3-.1.6-.3.8c-.1.2-.3.4-.6.6c-.3.1-.6.2-1 .3c-.4.1-.8.1-1.3.1zm0-3c-.4 0-.7.1-1 .1c-.3.1-.5.2-.7.3c-.2.1-.4.2-.5.3c-.1.2-.2.3-.2.5c0 .2.1.3.2.5c.1.1.3.3.5.4c.2.1.4.1.7.2c.3 0 .6.1 1 .1c.7 0 1.2-.1 1.7-.3c.4-.3.6-.5.6-.9c0-.4-.2-.6-.6-.8c-.4-.2-1-.4-1.7-.4zm-4.2 3.8h8.3v.7h-3.6v1.8h-.9v-1.8h-3.8v-.7zm1.9 1.6v2h5.5v.7H116v-2.7h.8zm14-2.1s-2.33-.05-2.3 0c-.2.2-.5.4-.8.5c-.3.2-.7.2-1.1.2c-.3 0-.6 0-.9-.1c-.3-.1-.6-.3-.8-.5c-.2-.2-.3-.4-.5-.7c-.1-.2-.1-.5-.1-.8c0-.4 0-.7.1-.9c.2-.3.3-.5.5-.7c.2-.2.5-.3.8-.5c.3-.1.6-.1.9-.1c.4 0 .8.1 1.1.2c.3.1.6.3.8.6c-.03-.04 2.3 0 2.3 0v-1.4h.9v5.5h-.9v-1.3zm-5.7-1.4c0 .2 0 .4.1.5c.1.2.2.4.3.5c.1.1.3.2.5.3c.2.1.4.1.6.1c.2 0 .5 0 .6-.1c.2-.1.4-.2.5-.3c.2-.1.3-.3.4-.5c0-.1.1-.3.1-.5c0-.3-.1-.5-.1-.6c-.1-.2-.2-.4-.4-.5c-.1-.1-.3-.2-.5-.3c-.1-.1-.4-.1-.6-.1c-.2 0-.4 0-.6.1c-.2.1-.4.2-.5.3c-.1.1-.2.3-.3.5c-.1.1-.1.3-.1.6zm5.7-.8s-1.94.04-1.9 0c0 .3.1.5.1.8c0 .2-.1.4-.2.7c.05-.03 2 0 2 0v-1.5zm-2.2 3.7c.5 0 .9 0 1.3.1c.4.1.7.2 1 .3l.6.6c.1.2.2.4.2.7c0 .3-.1.6-.2.8c-.2.2-.4.4-.6.5c-.3.2-.6.3-1 .4c-.4 0-.8.1-1.3.1c-.4 0-.9-.1-1.2-.1c-.4-.1-.7-.2-1-.4c-.3-.1-.5-.3-.6-.5c-.1-.2-.2-.5-.2-.8c0-.3.1-.5.2-.7c.1-.2.3-.4.6-.6c.3-.1.6-.2 1-.3c.3-.1.8-.1 1.2-.1zm0 2.8c.7 0 1.3-.1 1.7-.3c.4-.2.6-.4.6-.8c0-.3-.2-.6-.6-.8c-.4-.2-1-.3-1.7-.3c-.7 0-1.2.1-1.6.3c-.4.2-.6.5-.6.8c0 .4.2.6.6.8c.4.2.9.3 1.6.3z" stroke="none" fill="#fff"/></g><g id="Polygon42418"><path d="m3.1 240.2v1h-1v-1h1zm5.1 4.2V237h.9v3.1h3.5V237h1v7.4h-1v-3.5H9.1v3.5h-.9zm6.7-3.4v-.7h3.4v.7h-3.4zm8.8 2.3h3.7v.7h-8.3v-.7h3.7v-2.2h-2.7v-4.3h6.3v4.3h-2.7v2.2zm-2.8-5.8v2.9h4.7v-2.9h-4.7zm14.9-1.4v4.7h-.8v-4.7h.8zm-2.7.3v4h-4.3v-4h.8v1.3h2.6v-1.3h.9zm-.9 3.3v-1.3h-2.6v1.3h2.6zm-1.5 4.7h5.4v.7h-6.2v-2.3h5.1v-.9h-5.1v-.6h5.9v2.2h-5.1v.9zm13.5-8.4h.8v9.2h-.8V236zm-5.3 4.2s-.05 2.09 0 2.1c.7 0 1.4 0 2.1-.1c.7 0 1.5-.1 2.3-.2l.1.7c-.4 0-.8.1-1.2.1c-.4.1-.8.1-1.2.1c-.3 0-.7.1-1.1.1H38v-3.5h3.4v-1.9H38v-.7h4.2v3.3h-3.3zm14.4-4.2h.9v9.2h-.9V236zm-5.2 4.1s-.03 2.2 0 2.2h1.1c.4 0 .8 0 1.1-.1h1c.3-.1.6-.1 1-.2l.1.7c-.4 0-.7.1-1.1.1c-.3.1-.7.1-1 .1c-.4 0-.7.1-1.1.1h-2v-6.1h4.5v.7h-3.6v1.8h3.2v.7h-3.2zm16.8-.3c.04-.02 1.3 0 1.3 0v.7h-8.3v-.7s6.2-.02 6.2 0c0-.2.1-.4.1-.6c0-.2.1-.4.1-.6c-.02.02-5.4.3-5.4.3l-.1-.7s5.52-.17 5.5-.2v-.2c.03.01 0-.7 0-.7H59v-.6h6.2s-.04.67 0 .7c0 .3-.1.7-.1 1.1c0 .5 0 .9-.2 1.5zm-5.1 3.7v.9h5.7v.7h-6.6v-2.3h5.5v-.8h-5.5v-.7h6.3v2.2h-5.4zm14.3-7.5h.8v9.2h-.8v-4.9h-1.3v4.4h-.8v-8.5h.8v3.5h1.3V236zm-5.9 4.3s.02 2 0 2c.5 0 1.1 0 1.6-.1c.5 0 1 0 1.6-.2v.7c-.6.2-1.2.2-1.7.3h-2.3v-3.4h2.6v-1.9h-2.6v-.7h3.4v3.3h-2.6zm16 .3l-.4.7c-.4 0-.7-.2-1-.3c-.4-.2-.7-.4-1-.6c-.3-.2-.6-.5-.8-.8c-.3-.3-.5-.6-.6-.9c-.1.3-.3.6-.6.9c-.2.3-.5.6-.8.8c-.3.2-.6.4-1 .6c-.3.1-.7.3-1 .3l-.4-.7c.4 0 .8-.2 1.2-.4c.4-.2.8-.4 1.1-.7c.3-.3.6-.6.8-1c.2-.3.3-.7.3-1.1c-.04-.01 0-.7 0-.7h.8s.03.69 0 .7c0 .4.1.7.3 1.1c.2.4.5.7.8 1c.3.3.7.5 1.1.7c.4.2.8.4 1.2.4zm-7.9 2.7h8.3v.7h-8.3v-.7zm17.9-.5v-3.7h-1.7v-.7h1.7v-2.3h.9v6.7h-.9zm-1.5-2.2l.1.7c-.3 0-.7.1-1 .1c-.3 0-.6 0-.9.1h-3v-2.8h3.2v-1.3h-3.2v-.7h4.1v2.7h-3.3s.05 1.42 0 1.4h2.2c.3 0 .6-.1.9-.1c.3 0 .6-.1.9-.1zm-2.7 3.7h5.4v.7h-6.2v-2.7h.8v2zm12.4-3.8l-.4.7c-.5-.2-1-.4-1.4-.8c-.4-.3-.7-.7-1-1.1c-.2.5-.5.9-.9 1.3c-.4.3-.8.6-1.4.8l-.4-.7c.3-.1.7-.2.9-.4c.3-.2.6-.4.8-.6c.2-.3.3-.6.4-.8c.2-.3.2-.6.2-1v-.1h-2.1v-.6h2.1V236h.9v1.2h2v.6H100s.04.15 0 .1c0 .3.1.6.2.9c.1.2.3.5.5.7c.2.2.5.4.7.6c.3.2.6.3 1 .4zm1.8-4.4v5.6h-.8v-5.6h.8zm-3 5.7c1 0 1.7.2 2.3.5c.5.3.8.7.8 1.2c0 .5-.3 1-.8 1.2c-.6.3-1.3.5-2.3.5c-1 0-1.7-.2-2.3-.5c-.5-.2-.8-.7-.8-1.2c0-.5.3-.9.8-1.2c.6-.3 1.3-.5 2.3-.5zm0 2.7c.7 0 1.2-.1 1.6-.2c.4-.2.6-.5.6-.8c0-.3-.2-.6-.6-.7c-.4-.2-.9-.3-1.6-.3c-.7 0-1.3.1-1.7.3c-.4.1-.6.4-.6.7c0 .3.2.6.6.8c.4.1 1 .2 1.7.2z" stroke="none" fill="#fff"/></g><g id="Polygon42417"><path d="m3.1 221.7v1h-1v-1h1zm7.9 4.4c-.4 0-.9-.1-1.3-.3c-.4-.2-.7-.4-1-.8c-.3-.3-.5-.7-.7-1.2c-.1-.5-.2-1-.2-1.6c0-.6.1-1.1.2-1.6c.2-.5.4-.9.7-1.2c.3-.4.7-.6 1.1-.8c.4-.2.8-.3 1.3-.3c.4 0 .8.1 1.2.3c.3.2.6.4.8.6l-.5.7c-.2-.3-.4-.4-.6-.6c-.3-.1-.6-.2-.9-.2c-.4 0-.7.1-1 .3c-.3.1-.5.3-.7.6c-.2.2-.4.5-.5.9c-.1.4-.2.8-.2 1.3c0 .4.1.9.2 1.2c.1.4.3.8.5 1c.2.3.4.5.7.6c.3.2.6.2 1 .2c.3 0 .7 0 .9-.2c.3-.1.6-.3.8-.6l.5.6c-.3.3-.6.6-1 .8c-.4.2-.8.3-1.3.3zm6.3 0c-.5 0-.9-.1-1.3-.3c-.4-.2-.7-.4-1-.8c-.3-.3-.5-.7-.7-1.2c-.1-.5-.2-1-.2-1.6c0-.6.1-1.2.2-1.6c.2-.5.4-.9.7-1.3c.3-.3.6-.5 1-.7c.4-.2.8-.3 1.3-.3c.4 0 .9.1 1.3.3c.3.2.7.4 1 .7c.3.4.5.8.6 1.3c.2.4.3 1 .3 1.6c0 .6-.1 1.1-.3 1.6c-.1.5-.3.9-.6 1.2c-.3.4-.7.6-1 .8c-.4.2-.9.3-1.3.3zm0-.9c.3 0 .6 0 .9-.2c.3-.1.5-.3.7-.6c.2-.3.3-.6.4-1c.1-.3.2-.8.2-1.2c0-.5-.1-.9-.2-1.3c-.1-.4-.2-.7-.4-.9c-.2-.3-.4-.5-.7-.6c-.3-.2-.6-.3-.9-.3c-.4 0-.7.1-.9.3c-.3.1-.6.3-.7.6c-.2.2-.4.5-.5.9c-.1.4-.2.8-.2 1.3c0 .4.1.9.2 1.2c.1.4.3.7.5 1c.1.3.4.5.7.6c.2.2.5.2.9.2zm5.9.7l-2.3-7.4h.9s1.26 4.01 1.3 4c.1.4.2.9.3 1.2c.1.4.2.8.4 1.3c.2-.5.3-.9.4-1.3c.1-.3.2-.7.4-1.2c-.05.01 1.2-4 1.2-4h.9l-2.4 7.4h-1.1zm4.3 0v-7.4h1v7.4h-1zm2.8 0v-7.4s1.89-.04 1.9 0c1.2 0 2.1.3 2.6.9c.6.6.9 1.5.9 2.8c0 .6-.1 1.1-.2 1.6c-.2.4-.4.8-.7 1.1c-.3.4-.6.6-1.1.8c-.4.2-.9.2-1.5.2c.03.04-1.9 0-1.9 0zm1-.7s.81-.04.8 0c.9 0 1.6-.3 2-.8c.4-.5.6-1.3.6-2.2c0-1-.2-1.7-.6-2.2c-.4-.5-1.1-.8-2-.8c.01.02-.8 0-.8 0v6zm5.3-2.7v-.7h3.4v.7h-3.4zm7.6 2.7h1.4v.7h-4v-.7h1.7s-.03-5.55 0-5.5v-.2c-.02.04-1.4 1.3-1.4 1.3l-.5-.6l2-1.8h.8v6.8zm3.4.7s2.28-2.93 2.3-2.9c.1-.2.2-.3.2-.4l.2-.2c-.4.3-.9.5-1.5.5c-.2 0-.5-.1-.8-.2c-.2-.1-.5-.2-.7-.4c-.2-.2-.3-.4-.4-.7c-.1-.3-.2-.6-.2-.9c0-.4.1-.7.2-1c.1-.2.3-.5.5-.7c.2-.2.5-.4.8-.5c.3-.2.7-.2 1-.2c.4 0 .7 0 1 .2c.3.1.6.3.8.5c.2.2.4.4.5.7c.1.4.2.7.2 1.1c0 .4-.1.8-.3 1.2c-.1.3-.3.7-.6 1.1c-.03.01-2.1 2.8-2.1 2.8h-1.1zm0-5.3c0 .5.2.9.4 1.1c.3.3.7.4 1.2.4c.2 0 .4 0 .6-.1c.2-.1.4-.2.5-.3c.2-.2.3-.3.4-.5c0-.2.1-.4.1-.6c0-.2-.1-.4-.2-.6c0-.2-.1-.4-.3-.5c-.1-.1-.3-.2-.5-.3c-.2-.1-.4-.1-.6-.1c-.5 0-.8.1-1.1.4c-.3.3-.5.7-.5 1.1zm13.7-3h.9v9.1h-.9v-9.1zm-3.7 4.1c-.3 0-.6 0-.9-.1c-.3-.1-.5-.2-.7-.4c-.2-.2-.4-.3-.5-.6c-.1-.2-.2-.5-.2-.7c0-.3.1-.6.2-.8c.1-.2.3-.4.5-.6c.2-.2.4-.3.7-.4c.3-.1.6-.1.9-.1c.4 0 .7 0 1 .1c.3.1.5.2.7.4c.2.2.4.4.5.6c.1.2.2.5.2.8c0 .2-.1.5-.2.7c-.1.3-.3.4-.5.6c-.2.2-.4.3-.7.4c-.3.1-.6.1-1 .1zm0-3c-.4 0-.8.1-1.1.3c-.2.2-.4.5-.4.9c0 .3.2.6.4.8c.3.2.7.3 1.1.3c.5 0 .9-.1 1.1-.3c.3-.2.5-.5.5-.8c0-.4-.2-.7-.5-.9c-.2-.2-.6-.3-1.1-.3zm3.1 3.5v.6c-.8.2-1.7.3-2.6.3c.01.01 0 3.3 0 3.3h-.8s-.03-3.24 0-3.2h-2.6l-.1-.7h2.9c.6-.1 1.1-.1 1.6-.1c.5-.1 1.1-.1 1.6-.2zm9.8-4.7h.8v9.2h-.8v-9.2zm-6.1 1s4.26.03 4.3 0c0 .7-.1 1.3-.3 1.9c-.1.7-.4 1.2-.7 1.8c-.4.5-.8 1-1.3 1.5c-.6.5-1.2.9-2 1.3l-.4-.7c1.2-.6 2.1-1.3 2.7-2.2c.7-.8 1-1.8 1.1-2.9h-3.4v-.7zm17.7 2.9h1.3v.7h-8.3v-.7h6.2c.1-.6.1-1.1.2-1.6v-1.1c0-.04-5.3 0-5.3 0v-.7h6.1s.02.6 0 .6v1.2c0 .4-.1 1-.2 1.6zm-6.1 2.7v-.7h6.4v3.3h-.9v-2.6H76zm12.8-1.8h3.7v.6h-8.2v-.6h3.7v-1.1h-2.6v-3.4h.8v1h4.4v-1h.9v3.4h-2.7v1.1zm-2.6-2.9v1.1h4.4v-1.1h-4.4zm-1 5.1v-.7h6.3v2.9h-.8v-2.2h-5.5zm17-6.9h.8v9.1h-.8v-9.1zm-3.4 1.6v1.1c0 .4.1.8.2 1.2c.1.4.3.7.5 1.1c.2.3.5.6.8.8c.3.3.6.5.9.6l-.4.7c-.6-.2-1-.6-1.5-1.1c-.4-.5-.7-1.1-.9-1.7c-.1.3-.3.7-.4 1c-.2.3-.4.6-.6.8c-.2.3-.4.5-.6.7c-.3.2-.5.4-.8.5l-.5-.6c.4-.2.7-.4 1-.7c.3-.3.5-.6.7-.9c.3-.4.4-.8.6-1.2c.1-.4.2-.8.2-1.2c-.04.04 0-1.1 0-1.1h-2.2v-.7h5.1v.7h-2.1zm10.7 3.7h1.9v-5.4h.8v7h-.8v-.9h-1.9v-.7zm-1.9-1.8c-.3 0-.6 0-.9-.1c-.2-.1-.5-.2-.7-.3l-.5-.5c-.1-.2-.1-.5-.1-.7c0-.2 0-.5.1-.7l.5-.5c.2-.1.5-.2.7-.3c.3-.1.6-.1.9-.1c.4 0 .7 0 1 .1c.2.1.5.2.7.3c.2.2.3.3.4.5c.1.2.2.5.2.7c0 .2-.1.5-.2.7c-.1.2-.2.3-.4.5c-.2.1-.5.2-.7.3c-.3.1-.6.1-1 .1zm0-2.6c-.4 0-.7.1-1 .3c-.3.2-.4.4-.4.7c0 .3.1.5.4.7c.3.2.6.3 1 .3c.5 0 .8-.1 1.1-.3c.3-.2.4-.4.4-.7c0-.3-.1-.5-.4-.7c-.3-.2-.6-.3-1.1-.3zm-.3 5.7s.01-1.78 0-1.8c-.4 0-.9.1-1.3.1h-1.2l-.1-.7h1.3c.5 0 1 0 1.5-.1h1.6c.5-.1 1-.1 1.5-.2v.6c-.4.1-.8.1-1.2.2c-.4 0-.8 0-1.3.1c.05-.02 0 1.8 0 1.8h-.8zm-.5 1.6h5.6v.7H106v-2.7h.8v2z" stroke="none" fill="#fff"/></g><g id="Polygon42416"><path d="m2.6 206.6h3v.8H.5v-.6s2.62-2.5 2.6-2.5l.6-.6c.1-.2.3-.4.4-.6c.1-.1.2-.3.3-.5c0-.2.1-.4.1-.7c0-.4-.2-.7-.4-.9c-.3-.3-.6-.4-1-.4c-.2 0-.4.1-.6.1c-.2.1-.3.2-.5.3c-.1.2-.2.3-.3.5c-.1.2-.1.4-.1.6l-.9-.2c0-.3.1-.6.3-.9c.1-.2.3-.4.5-.6c.2-.2.5-.3.8-.4c.2-.1.5-.2.9-.2c.3 0 .6.1.8.2c.3.1.6.2.8.4c.2.2.3.4.4.6c.2.3.2.6.2.9c0 .3 0 .6-.1.8c-.1.2-.2.5-.3.7c-.2.2-.4.4-.5.6c-.2.2-.4.5-.6.7l-2.1 2c.1 0 .3 0 .4-.1h.4zm9.1-2.9c0 .7-.1 1.2-.2 1.7c-.2.5-.4.9-.6 1.2c-.3.4-.6.6-.9.7c-.3.2-.7.3-1.1.3c-.4 0-.7-.1-1-.3c-.4-.1-.7-.3-.9-.7c-.3-.3-.5-.7-.6-1.2c-.1-.5-.2-1-.2-1.7c0-.7.1-1.2.2-1.7c.1-.5.3-.9.6-1.2c.2-.3.5-.6.9-.7c.3-.2.6-.3 1-.3c.4 0 .8.1 1.1.3c.3.1.6.4.9.7c.2.3.4.7.6 1.2c.1.5.2 1 .2 1.7zm-1 0c0-.6 0-1.1-.1-1.5c-.1-.4-.2-.7-.4-.9c-.2-.3-.4-.4-.6-.5c-.2-.1-.4-.2-.7-.2c-.2 0-.4.1-.6.2c-.3.1-.5.2-.6.5c-.2.2-.3.5-.4.9c-.1.4-.2.9-.2 1.5c0 .6.1 1.1.2 1.5c.1.4.2.7.4.9c.1.3.3.5.6.6c.2.1.4.1.6.1c.3 0 .5 0 .7-.1c.2-.1.4-.3.6-.6c.2-.2.3-.5.4-.9c.1-.4.1-.9.1-1.5zm3.7 2.9h2.9v.8h-5v-.6s2.57-2.5 2.6-2.5c.2-.2.4-.4.5-.6c.2-.2.3-.4.4-.6c.2-.1.3-.3.3-.5c.1-.2.1-.4.1-.7c0-.4-.1-.7-.4-.9c-.2-.3-.6-.4-.9-.4c-.3 0-.5.1-.6.1c-.2.1-.4.2-.5.3c-.1.2-.3.3-.3.5c-.1.2-.1.4-.1.6l-1-.2l.3-.9l.6-.6c.2-.2.4-.3.7-.4c.3-.1.6-.2.9-.2c.3 0 .6.1.9.2c.3.1.5.2.7.4c.2.2.4.4.5.6c.1.3.2.6.2.9c0 .3-.1.6-.2.8c0 .2-.1.5-.3.7c-.1.2-.3.4-.5.6c-.2.2-.4.5-.6.7l-2.1 2c.2 0 .3 0 .4-.1h.5zm9-2.9c0 .7 0 1.2-.2 1.7c-.1.5-.3.9-.6 1.2c-.2.4-.5.6-.8.7c-.4.2-.7.3-1.1.3c-.4 0-.8-.1-1.1-.3c-.3-.1-.6-.3-.9-.7c-.2-.3-.4-.7-.5-1.2c-.2-.5-.3-1-.3-1.7c0-.7.1-1.2.3-1.7c.1-.5.3-.9.5-1.2c.3-.3.6-.6.9-.7c.3-.2.7-.3 1.1-.3c.4 0 .7.1 1.1.3c.3.1.6.4.8.7c.3.3.5.7.6 1.2c.2.5.2 1 .2 1.7zm-.9 0c0-.6-.1-1.1-.2-1.5c-.1-.4-.2-.7-.4-.9c-.1-.3-.3-.4-.5-.5c-.2-.1-.5-.2-.7-.2c-.3 0-.5.1-.7.2c-.2.1-.4.2-.6.5c-.1.2-.3.5-.4.9c-.1.4-.1.9-.1 1.5c0 .6 0 1.1.1 1.5c.1.4.3.7.4.9c.2.3.4.5.6.6c.2.1.4.1.7.1c.2 0 .5 0 .7-.1c.2-.1.4-.3.5-.6c.2-.2.3-.5.4-.9c.1-.4.2-.9.2-1.5z" stroke="none" fill="#fff"/></g><g id="Polygon42415"><path d="m3.1 166.2v1h-1v-1h1zm10-3v.6H7.8v-.6h2.2v-1.1h.9v1.1h2.2zm1.7 1.9h1.4v.7h-1.4v3.1h-.8v-6.8h.8v3zm-2.2.9c0 .3 0 .5-.1.7c-.1.3-.3.4-.5.6c-.2.1-.4.2-.7.3c-.2.1-.5.1-.9.1c-.3 0-.6 0-.8-.1c-.3-.1-.5-.2-.7-.3c-.2-.2-.4-.3-.5-.6c-.1-.2-.1-.4-.1-.7c0-.2 0-.5.1-.7c.1-.2.3-.3.5-.5c.2-.1.4-.3.7-.3c.2-.1.5-.2.8-.2c.4 0 .7.1.9.2c.3 0 .5.2.7.3c.2.2.4.3.5.5c.1.2.1.5.1.7zm-3.5 0c0 .4.1.6.3.8c.3.2.6.3 1 .3c.5 0 .8-.1 1.1-.3c.2-.2.3-.4.3-.8c0-.3-.1-.5-.3-.7c-.3-.2-.6-.3-1.1-.3c-.4 0-.7.1-1 .3c-.2.2-.3.4-.3.7zm.9 2.4v1.9h5.2v.7H9.1v-2.6h.9zm15.2-2h-3.7v1.7h2.7v3.1h-.9v-2.4h-5.5v-.7h2.8v-1.7h-3.7v-.7s6.16.04 6.2 0c.1-.5.2-1 .2-1.4v-1.1c.01-.05-5.3 0-5.3 0v-.7h6.1s.03.64 0 .6v1.2c0 .4-.1.9-.2 1.4c.01.04 1.3 0 1.3 0v.7zm10.8.2l-.3.7c-.4 0-.7-.2-1.1-.3l-.9-.6c-.3-.2-.6-.5-.9-.8c-.2-.3-.4-.6-.5-.9l-.6.9c-.2.3-.5.6-.8.8c-.3.2-.6.4-1 .6c-.3.1-.7.3-1 .3l-.4-.7c.4 0 .8-.2 1.2-.4c.4-.2.8-.4 1.1-.7c.3-.3.5-.6.7-1c.2-.3.3-.7.3-1.1c.03-.01 0-.7 0-.7h.9v.7c0 .4.1.7.3 1.1c.2.4.5.7.8 1c.3.3.7.5 1 .7c.4.2.8.4 1.2.4zm-7.8 2.7h8.3v.7h-8.3v-.7zm13.7.1h3.7v.6h-8.3v-.6h3.7v-2.1h-2.9v-.7h1.4v-3h-1.4v-.7h6.8v.7h-1.5v3h1.4v.7h-2.9v2.1zm-1.6-5.8v3h2.3v-3h-2.3zm7 4.2l-.3-.7c.5-.1.9-.2 1.3-.4c.4-.1.7-.3 1-.6c.3-.3.5-.5.7-.9c.2-.3.2-.6.2-1c.04-.02-2.9 0-2.9 0v-.7h2.9v-1.2h.9v1.2h2.9v.7s-2.91-.02-2.9 0c0 .4.1.7.2 1c.2.4.4.6.7.9c.3.3.7.5 1.1.6c.4.2.8.3 1.2.4l-.3.7l-1.1-.3c-.3-.1-.6-.3-.9-.5c-.3-.2-.5-.4-.8-.6c-.2-.3-.4-.5-.5-.8c-.2.3-.4.5-.6.8c-.2.2-.5.4-.8.6c-.2.2-.6.4-.9.5c-.3.1-.7.2-1.1.3zm-.8 1.5h8.3v.7h-8.3v-.7zm16.2-7.3h.8v9.2h-.8V162zm-1.8 3.5v-3.3h.8v8.5h-.8v-4.5h-1.4v2.5H56v-5.6h3.5v2.4h1.4zm-2.2 2.6v-4.3h-1.9v4.3h1.9zm13.2-6.1h.8v9.2h-.8V162zm-1.9 3.3v-3.1h.8v8.5h-.8V166h-1.5v-.7h1.5zm-2.4-2.4v1.7c0 .4 0 .8.1 1.1c.1.4.2.7.4 1.1c.1.3.3.6.6.9c.2.3.5.5.8.7l-.5.6c-.4-.2-.8-.6-1.1-1.1c-.3-.4-.5-.9-.7-1.5c-.2.6-.4 1.2-.7 1.7c-.4.5-.7.8-1.2 1.1l-.5-.6c.3-.2.6-.4.8-.7c.3-.3.5-.6.7-1c.1-.3.3-.7.4-1.1c0-.4.1-.8.1-1.1c-.01-.05 0-1.8 0-1.8h.8zm15 2.8v.7h-1.5v4.8h-.8V162h.8v3.7h1.5zm-7.3-2.8s-.04 5.27 0 5.3c.6 0 1.3-.1 2-.1l2.1-.3l.1.7l-2.2.3c-.7 0-1.4.1-2.1.1c-.05-.03-.8 0-.8 0v-6h.9zm15 1.5h1.4v.7h-1.4v2.5h-.8v-5.5h.8v2.3zm-1.8 1.9l-.4.7c-.5-.2-.9-.5-1.3-.8c-.4-.4-.7-.8-.9-1.3c-.2.6-.5 1-.9 1.4c-.4.4-.8.7-1.4 1l-.4-.7c.3-.1.7-.3.9-.5c.3-.2.6-.5.8-.7c.2-.3.3-.6.4-.9c.1-.4.2-.7.2-1.1c-.02.05 0-.9 0-.9h.8v1c0 .3.1.6.2.9c.1.3.2.6.4.8c.2.3.5.5.7.7c.3.2.6.3.9.4zm-1.1 1.5c.5 0 .9.1 1.3.2c.4 0 .7.1.9.3c.3.1.5.3.6.5c.2.2.2.5.2.7c0 .3 0 .5-.2.7c-.1.2-.3.4-.6.5c-.2.2-.5.3-.9.4c-.4 0-.8.1-1.3.1c-.9 0-1.6-.2-2.2-.5c-.5-.2-.8-.7-.8-1.2c0-.2.1-.5.2-.7c.2-.2.4-.4.6-.5c.3-.2.6-.3 1-.3c.3-.1.8-.2 1.2-.2zm0 2.7c.7 0 1.2-.1 1.6-.2c.4-.2.6-.5.6-.8c0-.3-.2-.6-.6-.7c-.4-.2-.9-.3-1.6-.3c-.6 0-1.2.1-1.6.3c-.4.1-.5.4-.5.7c0 .3.1.6.5.8c.4.1 1 .2 1.6.2zm15-5l-.4.7l-1-.3c-.4-.1-.7-.3-1-.4c-.3-.2-.5-.4-.8-.7c-.2-.2-.4-.5-.6-.7c-.1.2-.3.5-.5.7c-.3.3-.5.5-.8.7c-.3.1-.6.3-1 .4l-1 .3l-.4-.7c.5 0 .9-.1 1.2-.3c.4-.2.8-.4 1.1-.6c.3-.2.5-.5.7-.8c.2-.3.3-.6.3-.9v-.5h.9s-.02.48 0 .5c0 .3.1.6.3.9c.1.3.4.6.7.8c.3.2.7.4 1.1.6c.4.2.8.3 1.2.3zm.4 1.7v.7H99v3.3h-.8v-3.3h-3.7v-.7h8.3zm8-2.8h1.3v.7h-1.3v2.5h-.9v-5.5h.9v2.3zm-1.8 1.9l-.5.7c-.5-.2-.9-.5-1.3-.8c-.4-.4-.7-.8-.9-1.3c-.1.6-.4 1-.8 1.4c-.4.4-.9.7-1.4 1l-.5-.7c.4-.1.7-.3 1-.5c.3-.2.5-.5.7-.7c.2-.3.4-.6.5-.9c.1-.4.1-.7.1-1.1c.02.05 0-.9 0-.9h.9s-.05 1.02 0 1c0 .3 0 .6.1.9c.1.3.3.6.5.8c.2.3.4.5.7.7c.2.2.5.3.9.4zm-1.1 1.5c.4 0 .9.1 1.2.2c.4 0 .7.1 1 .3c.2.1.4.3.6.5c.1.2.2.5.2.7c0 .3-.1.5-.2.7c-.2.2-.4.4-.6.5c-.3.2-.6.3-1 .4c-.3 0-.8.1-1.2.1c-1 0-1.7-.2-2.2-.5c-.6-.2-.8-.7-.8-1.2c0-.2 0-.5.2-.7c.1-.2.3-.4.6-.5c.2-.2.5-.3.9-.3c.4-.1.8-.2 1.3-.2zm0 2.7c.7 0 1.2-.1 1.6-.2c.4-.2.5-.5.5-.8c0-.3-.1-.6-.5-.7c-.4-.2-.9-.3-1.6-.3c-.7 0-1.2.1-1.6.3c-.4.1-.6.4-.6.7c0 .3.2.6.6.8c.4.1.9.2 1.6.2zm9.5 1.1l-.6.3c-.4-.8-.8-1.6-1.1-2.4c-.2-.8-.4-1.8-.4-2.8c0-1 .2-1.9.4-2.8c.3-.8.7-1.6 1.1-2.4l.6.3c-.4.7-.8 1.5-1 2.3c-.2.9-.3 1.7-.3 2.6c0 .9.1 1.8.3 2.6c.2.8.6 1.6 1 2.3zm9.2-7.5h-1.3v1.3h1.3v.6h-1.3v1.5h-.9v-5.4h.9v1.3h1.3v.7zm-3.5.6c0 .4 0 .6-.1.9c-.2.3-.3.5-.5.7c-.3.2-.5.3-.8.4c-.3.1-.6.2-1 .2c-.3 0-.6-.1-.9-.2c-.3-.1-.6-.2-.8-.4c-.2-.2-.3-.4-.5-.7c-.1-.3-.1-.5-.1-.9c0-.3 0-.6.1-.8c.2-.3.3-.5.5-.7c.2-.2.5-.3.8-.5c.3-.1.6-.1.9-.1c.4 0 .7 0 1 .1c.3.2.5.3.8.5c.2.2.3.4.5.7c.1.2.1.5.1.8zm-3.9 0c0 .2 0 .4.1.6c.1.2.2.4.3.5c.2.1.3.2.5.3c.2.1.4.1.6.1c.3 0 .5 0 .7-.1c.2-.1.3-.2.5-.3c.1-.1.2-.3.3-.5c.1-.2.1-.4.1-.6c0-.2 0-.4-.1-.6c-.1-.1-.2-.3-.3-.4c-.2-.1-.3-.2-.5-.3c-.2-.1-.4-.1-.7-.1c-.2 0-.4 0-.6.1c-.2.1-.3.2-.5.3c-.1.1-.2.3-.3.4c-.1.2-.1.4-.1.6zm3.2 3.1c.4 0 .9 0 1.2.1c.4 0 .7.2 1 .3c.2.1.4.3.6.5c.1.2.2.5.2.8c0 .2-.1.5-.2.7c-.2.2-.4.4-.6.5c-.3.2-.6.3-1 .4c-.3 0-.8.1-1.2.1c-.5 0-.9-.1-1.3-.1c-.3-.1-.7-.2-.9-.4c-.3-.1-.5-.3-.6-.5c-.2-.2-.2-.5-.2-.7c0-.3 0-.6.2-.8c.1-.2.3-.4.6-.5c.2-.1.6-.3.9-.3c.4-.1.8-.1 1.3-.1zm0 2.7c.7 0 1.2-.1 1.6-.3c.4-.2.6-.4.6-.7c0-.4-.2-.6-.6-.8c-.4-.2-.9-.3-1.6-.3c-.7 0-1.2.1-1.6.3c-.4.2-.6.4-.6.8c0 .3.2.5.6.7c.4.2.9.3 1.6.3zm13.3-4.1h-3.8s.03 1.41 0 1.4c.9.1 1.6.2 2.1.5c.4.3.7.7.7 1.2c0 .5-.3.9-.9 1.2c-.5.3-1.3.5-2.3.5c-1 0-1.8-.2-2.3-.5c-.6-.2-.9-.7-.9-1.2c0-.5.3-.9.7-1.2c.5-.3 1.2-.4 2.1-.5c-.02.01 0-1.4 0-1.4h-3.7v-.7h6.1c.1-.5.2-1 .2-1.4c.1-.5.1-.8.1-1.2h-5.4v-.7h6.2v1.8c-.1.5-.1 1-.2 1.5h1.3v.7zm-1.9 3.1c0-.3-.2-.6-.6-.8c-.4-.1-1-.2-1.7-.2c-.7 0-1.3.1-1.7.2c-.4.2-.6.5-.6.8c0 .3.2.6.6.7c.4.2 1 .3 1.7.3c.7 0 1.3-.1 1.7-.3c.4-.1.6-.4.6-.7zm12.6-6.4v.7h-7.3v-.7h3.2V162h.9v1.1h3.2zm-6.6 2.7c0-.5.2-.9.8-1.1c.5-.3 1.2-.4 2.2-.4c.9 0 1.6.1 2.1.4c.6.2.8.6.8 1.1c0 .5-.2.9-.8 1.1c-.5.3-1.2.4-2.1.4c-1 0-1.7-.1-2.2-.4c-.6-.2-.8-.6-.8-1.1zm5.1 0c0-.3-.2-.5-.6-.6c-.3-.2-.9-.3-1.5-.3c-.7 0-1.2.1-1.6.3c-.4.1-.5.3-.5.6c0 .3.1.5.5.7c.4.1.9.2 1.6.2c.6 0 1.2-.1 1.5-.2c.4-.2.6-.4.6-.7zm2 2.2v.7h-3.7v2.5h-.9v-2.5h-3.7v-.7h8.3zm5.7-.6h1.9V162h.8v7h-.8v-.9h-1.9v-.7zm-1.9-1.8c-.3 0-.6 0-.9-.1c-.3-.1-.5-.2-.7-.3l-.5-.5c-.1-.2-.1-.5-.1-.7c0-.2 0-.5.1-.7l.5-.5c.2-.1.4-.2.7-.3c.3-.1.6-.1.9-.1c.4 0 .7 0 .9.1c.3.1.6.2.8.3c.2.2.3.3.4.5c.1.2.2.5.2.7c0 .2-.1.5-.2.7c-.1.2-.2.3-.4.5c-.2.1-.5.2-.8.3c-.2.1-.5.1-.9.1zm0-2.6c-.4 0-.8.1-1 .3c-.3.2-.4.4-.4.7c0 .3.1.5.4.7c.2.2.6.3 1 .3c.5 0 .8-.1 1.1-.3c.3-.2.4-.4.4-.7c0-.3-.1-.5-.4-.7c-.3-.2-.6-.3-1.1-.3zm-.3 5.7s.01-1.78 0-1.8c-.4 0-.9.1-1.3.1h-1.2l-.1-.7h1.3c.5 0 1 0 1.5-.1h1.6c.5-.1 1-.1 1.5-.2v.6c-.4.1-.8.1-1.2.2c-.4 0-.8 0-1.3.1c.04-.02 0 1.8 0 1.8h-.8zm-.5 1.6h5.6v.7h-6.4v-2.7h.8v2zm15.6-7c-.04-.02 0-.1 0-.1h-5.4v-.7h6.2v1.9c-.1.4-.1.8-.3 1.3l-.8-.1c.1-.5.2-.9.2-1.2c.1-.4.1-.8.1-1.1zm-2.2 3h4v.7h-8.2v-.7h3.4v-1.8h.8v1.8zm-.1 1.5c.5 0 .9.1 1.3.1c.4.1.7.2 1 .4c.3.1.5.3.6.5c.2.2.3.4.3.7c0 .3-.1.5-.3.7c-.1.2-.3.4-.6.5c-.3.2-.6.3-1 .4c-.4 0-.8.1-1.3.1c-.5 0-1-.1-1.4-.1c-.3-.1-.7-.2-1-.4c-.2-.1-.4-.3-.6-.5c-.1-.2-.2-.4-.2-.7c0-.3.1-.5.2-.7c.2-.2.4-.4.6-.5c.3-.2.7-.3 1-.4c.4 0 .9-.1 1.4-.1zm0 2.7c.7 0 1.3-.1 1.7-.2c.4-.2.6-.5.6-.8c0-.3-.2-.6-.6-.8c-.4-.1-1-.2-1.7-.2c-.7 0-1.3.1-1.7.2c-.5.2-.7.5-.7.8c0 .3.2.6.7.8c.4.1 1 .2 1.7.2zm9.6-1.1h3.8v.7h-8.4v-.7h3.8v-1.7h-2.7v-2.9h5.4v-1.4h-5.4v-.7h6.2v2.8h-5.4v1.5h5.6v.7h-2.9v1.7zm5.1 2.4l-.6-.2c.5-.8.8-1.6 1-2.4c.2-.8.3-1.7.3-2.5c0-.9-.1-1.8-.3-2.6c-.2-.8-.5-1.6-1-2.4l.6-.2c.5.7.8 1.5 1.1 2.4c.3.8.4 1.7.4 2.8c0 1-.1 1.9-.4 2.7c-.3.9-.6 1.7-1.1 2.4z" stroke="none" fill="#fff"/></g><g id="Polygon42414"><path d="m10.2 153.1l-.6.3c-.5-.8-.8-1.6-1.1-2.4c-.2-.8-.4-1.8-.4-2.8c0-1 .2-1.9.4-2.8c.3-.8.6-1.6 1.1-2.4l.6.3c-.4.7-.8 1.5-1 2.3c-.2.9-.3 1.7-.3 2.6c0 .9.1 1.8.3 2.6c.2.8.6 1.6 1 2.3zm2.8-2h3v.8h-5v-.6s2.55-2.5 2.5-2.5l.6-.6c.2-.2.3-.4.4-.6c.1-.1.2-.3.3-.5c.1-.2.1-.4.1-.7c0-.4-.1-.7-.4-.9c-.3-.3-.6-.4-1-.4c-.2 0-.4.1-.6.1c-.2.1-.3.2-.4.3c-.2.2-.3.3-.4.5c0 .2-.1.4-.1.6l-.9-.2l.3-.9c.1-.2.3-.4.5-.6c.3-.2.5-.3.8-.4c.3-.1.6-.2.9-.2c.3 0 .6.1.9.2c.2.1.5.2.7.4c.2.2.4.4.5.6c.1.3.1.6.1.9c0 .3 0 .6-.1.8c-.1.2-.2.5-.3.7c-.2.2-.3.4-.5.6c-.2.2-.4.5-.6.7l-2.1 2c.1 0 .3 0 .4-.1h.4zm9.1-2.9c0 .7-.1 1.2-.2 1.7c-.2.5-.3.9-.6 1.2c-.2.4-.5.6-.9.7c-.3.2-.7.3-1 .3c-.4 0-.8-.1-1.1-.3c-.4-.1-.6-.3-.9-.7c-.2-.3-.4-.7-.6-1.2c-.1-.5-.2-1-.2-1.7c0-.7.1-1.2.2-1.7c.2-.5.4-.9.6-1.2c.3-.3.5-.6.9-.7c.3-.2.7-.3 1.1-.3c.3 0 .7.1 1 .3c.4.1.7.4.9.7c.3.3.4.7.6 1.2c.1.5.2 1 .2 1.7zm-.9 0c0-.6-.1-1.1-.2-1.5c-.1-.4-.2-.7-.4-.9c-.1-.3-.3-.4-.6-.5c-.2-.1-.4-.2-.6-.2c-.3 0-.5.1-.7.2c-.2.1-.4.2-.6.5c-.2.2-.3.5-.4.9c-.1.4-.1.9-.1 1.5c0 .6 0 1.1.1 1.5c.1.4.2.7.4.9c.2.3.4.5.6.6c.2.1.4.1.7.1c.2 0 .4 0 .6-.1c.3-.1.5-.3.6-.6c.2-.2.3-.5.4-.9c.1-.4.2-.9.2-1.5zm4.9 3h1.4v.7h-4v-.7h1.7s-.04-5.55 0-5.5v-.2l-1.4 1.3l-.5-.6l2-1.8h.8v6.8zm3.3.7s2.37-2.93 2.4-2.9c.1-.2.2-.3.2-.4c.1-.1.1-.2.2-.2c-.4.3-.9.5-1.5.5c-.3 0-.5-.1-.8-.2c-.3-.1-.5-.2-.7-.4c-.2-.2-.3-.4-.4-.7c-.2-.3-.2-.6-.2-.9c0-.4.1-.7.2-1c.1-.2.3-.5.5-.7c.2-.2.5-.4.8-.5c.3-.2.7-.2 1-.2c.4 0 .7 0 1 .2c.3.1.6.3.8.5c.2.2.4.4.5.7c.1.4.2.7.2 1.1c0 .4-.1.8-.3 1.2c-.1.3-.3.7-.6 1.1c-.03.01-2.1 2.8-2.1 2.8h-1.2zm.1-5.3c0 .5.2.9.4 1.1c.3.3.7.4 1.1.4c.3 0 .5 0 .7-.1c.2-.1.4-.2.5-.3c.2-.2.3-.3.4-.5c0-.2.1-.4.1-.6c0-.2-.1-.4-.2-.6c0-.2-.1-.4-.3-.5c-.1-.1-.3-.2-.5-.3c-.2-.1-.4-.1-.6-.1c-.5 0-.8.1-1.1.4c-.3.3-.5.7-.5 1.1zm8.3 2.4c-.3 0-.5 0-.6-.1c-.2-.1-.4-.3-.6-.4c-.1-.1-.3-.2-.4-.3c-.2-.1-.3-.2-.5-.2c-.1 0-.3.1-.4.2c-.2.1-.3.3-.4.5l-.6-.3c.2-.4.5-.7.7-.8c.3-.2.5-.3.8-.3c.2 0 .4.1.6.2c.1.1.3.2.5.3l.4.4c.2.1.3.1.5.1c.1 0 .3-.1.4-.2c.2-.1.3-.2.4-.5l.6.4c-.2.4-.5.6-.7.8c-.3.1-.5.2-.7.2zm4.2 2.1h2.9v.8h-5v-.6l2.6-2.5c.2-.2.4-.4.5-.6c.2-.2.4-.4.5-.6c.1-.1.2-.3.3-.5c0-.2.1-.4.1-.7c-.1-.4-.2-.7-.4-.9c-.3-.3-.6-.4-1-.4c-.2 0-.4.1-.6.1c-.2.1-.4.2-.5.3c-.1.2-.2.3-.3.5c-.1.2-.1.4-.1.6l-.9-.2c0-.3.1-.6.3-.9c.1-.2.3-.4.5-.6c.2-.2.5-.3.7-.4c.3-.1.6-.2.9-.2c.4 0 .7.1.9.2c.3.1.5.2.7.4c.2.2.4.4.5.6c.1.3.2.6.2.9c0 .3 0 .6-.1.8c-.1.2-.2.5-.4.7c-.1.2-.3.4-.5.6c-.2.2-.4.5-.6.7l-2.1 2c.2 0 .3 0 .5-.1h.4zm9.1-2.9c0 .7-.1 1.2-.3 1.7c-.1.5-.3.9-.5 1.2c-.3.4-.6.6-.9.7c-.3.2-.7.3-1.1.3c-.4 0-.7-.1-1.1-.3c-.3-.1-.6-.3-.8-.7c-.3-.3-.5-.7-.6-1.2c-.2-.5-.2-1-.2-1.7c0-.7 0-1.2.2-1.7c.1-.5.3-.9.6-1.2c.2-.3.5-.6.8-.7c.4-.2.7-.3 1.1-.3c.4 0 .8.1 1.1.3c.3.1.6.4.9.7c.2.3.4.7.5 1.2c.2.5.3 1 .3 1.7zm-1 0c0-.6 0-1.1-.1-1.5c-.1-.4-.3-.7-.4-.9c-.2-.3-.4-.4-.6-.5c-.2-.1-.4-.2-.7-.2c-.2 0-.4.1-.7.2c-.2.1-.4.2-.5.5c-.2.2-.3.5-.4.9c-.1.4-.2.9-.2 1.5c0 .6.1 1.1.2 1.5c.1.4.2.7.4.9c.1.3.3.5.5.6c.3.1.5.1.7.1c.3 0 .5 0 .7-.1c.2-.1.4-.3.6-.6c.1-.2.3-.5.4-.9c.1-.4.1-.9.1-1.5zm3.6 2.9h3v.8h-5v-.6s2.55-2.5 2.6-2.5c.2-.2.3-.4.5-.6c.2-.2.3-.4.4-.6c.1-.1.2-.3.3-.5c.1-.2.1-.4.1-.7c0-.4-.1-.7-.4-.9c-.3-.3-.6-.4-1-.4c-.2 0-.4.1-.6.1c-.1.1-.3.2-.4.3c-.2.2-.3.3-.3.5c-.1.2-.2.4-.2.6l-.9-.2l.3-.9c.2-.2.3-.4.5-.6c.3-.2.5-.3.8-.4c.3-.1.6-.2.9-.2c.3 0 .6.1.9.2c.3.1.5.2.7.4c.2.2.4.4.5.6c.1.3.1.6.1.9c0 .3 0 .6-.1.8c-.1.2-.2.5-.3.7c-.2.2-.3.4-.5.6c-.2.2-.4.5-.6.7l-2.1 2c.1 0 .3 0 .4-.1h.4zm7.2.1h1.5v.7h-4.1v-.7h1.7v-5.7c.01.04-1.4 1.3-1.4 1.3l-.5-.6l2.1-1.8h.7v6.8zm3 2.1l-.6-.2c.5-.8.8-1.6 1-2.4c.2-.8.3-1.7.3-2.5c0-.9-.1-1.8-.3-2.6c-.2-.8-.5-1.6-1-2.4l.6-.2c.5.7.8 1.5 1.1 2.4c.3.8.4 1.7.4 2.8c0 1-.1 1.9-.4 2.7c-.3.9-.6 1.7-1.1 2.4z" stroke="none" fill="#fff"/></g><g id="Polygon42413"><path d="m3.1 129.2v1h-1v-1h1zm5.1 4.2V126s1.88-.04 1.9 0c1.2 0 2 .3 2.6.9c.6.6.9 1.5.9 2.8c0 .6-.1 1.1-.2 1.6c-.2.4-.4.8-.7 1.1c-.3.4-.7.6-1.1.8c-.4.2-.9.2-1.5.2c.02.04-1.9 0-1.9 0zm.9-.7s.9-.04.9 0c.9 0 1.5-.3 2-.8c.4-.5.6-1.3.6-2.2c0-1-.2-1.7-.6-2.2c-.4-.5-1.1-.8-2-.8c0 .02-.9 0-.9 0v6zm7.3.9c-.5 0-.9-.1-1.2-.3c-.4-.2-.6-.5-.9-.9l.7-.5c.2.3.4.5.6.7c.2.1.4.1.7.1c.4 0 .7-.1.9-.3c.2-.3.3-.7.3-1.2V126h1s-.05 5.24 0 5.2c0 .4-.1.7-.2.9c0 .3-.2.6-.3.8c-.2.2-.4.4-.7.5c-.2.1-.5.2-.9.2zm5.9 0c-.5 0-1-.1-1.4-.3c-.5-.2-.8-.5-1.2-.8l.6-.7c.3.3.6.5.9.7c.4.2.8.2 1.2.2c.4 0 .8-.1 1.1-.3c.3-.2.4-.5.4-.9c0-.2 0-.3-.1-.5c0-.1-.1-.2-.2-.3c-.1-.1-.3-.2-.4-.3c-.2 0-.3-.1-.5-.2l-1.1-.5c-.2-.1-.3-.1-.5-.2c-.2-.2-.4-.3-.5-.4c-.2-.2-.3-.4-.4-.6c-.1-.2-.1-.4-.1-.7c0-.3 0-.5.2-.8c.1-.2.2-.4.5-.6c.2-.2.4-.3.7-.4c.3-.1.6-.2.9-.2c.5 0 .9.1 1.3.3c.4.1.7.4.9.6l-.5.6c-.2-.2-.4-.3-.7-.5c-.3-.1-.6-.2-1-.2c-.4 0-.7.1-1 .3c-.2.2-.4.5-.4.8c0 .2.1.4.2.5c0 .1.1.3.2.3c.2.1.3.2.4.3c.2.1.3.1.5.2l1 .4c.3.1.5.2.7.4c.1.1.3.2.4.4c.2.1.3.3.4.5c0 .2.1.5.1.7c0 .3-.1.6-.2.9c-.1.2-.3.5-.5.7c-.2.1-.5.3-.8.4c-.3.1-.7.2-1.1.2zm3.9-.2V126h.9v7.4h-.9zm4.7 1.2l-.5.3c-.5-.8-.9-1.6-1.1-2.4c-.3-.8-.4-1.8-.4-2.8c0-1 .1-1.9.4-2.8c.2-.8.6-1.6 1.1-2.4l.5.3c-.4.7-.7 1.5-1 2.3c-.2.9-.3 1.7-.3 2.6c0 .9.1 1.8.3 2.6c.3.8.6 1.6 1 2.3zm9.3-5.9v.6h-1.5v4.9h-.8V125h.8v3.7h1.5zm-7.3-2.1s.03 4.61 0 4.6h2.2c.3-.1.7-.1 1-.1c.3-.1.6-.1.9-.2l.1.7c-.3.1-.6.1-1 .2c-.3 0-.7 0-1 .1h-2.3c.01.03-.7 0-.7 0v-6h4.2v.7h-3.4zm12.1 2.8c-.5 0-.9 0-1.3-.1c-.4-.1-.7-.3-1-.4c-.3-.2-.5-.4-.7-.7c-.1-.2-.2-.5-.2-.8c0-.3.1-.6.2-.8c.2-.3.4-.5.7-.6c.3-.2.6-.4 1-.4c.4-.1.8-.2 1.3-.2c.5 0 .9.1 1.3.2c.4 0 .7.2 1 .4c.3.1.5.3.7.6c.1.2.2.5.2.8c0 .3-.1.6-.2.8c-.2.3-.4.5-.7.7c-.3.1-.6.3-1 .4c-.4.1-.8.1-1.3.1zm0-3.3c-.3 0-.7 0-.9.1c-.3 0-.6.1-.8.2c-.2.2-.4.3-.5.5c-.1.1-.1.3-.1.5c0 .2 0 .4.1.6c.1.1.3.3.5.4c.2.1.5.2.8.3h1.9c.2-.1.5-.2.7-.3c.2-.1.4-.3.5-.4c.1-.2.1-.4.1-.6c0-.2 0-.4-.1-.5c-.1-.2-.3-.3-.5-.5c-.2-.1-.5-.2-.7-.2c-.3-.1-.7-.1-1-.1zm4.2 4.2v.7h-3.8v3.2h-.8V131h-3.7v-.7h8.3zm1.7-1.2l-.3-.7c.4 0 .8-.1 1.1-.3c.4-.1.7-.3 1-.5c.3-.2.5-.4.7-.6c.2-.3.3-.5.3-.8c-.04-.02 0 0 0 0h-2.9v-.7h6.8v.7h-2.9s.04-.02 0 0c0 .3.1.5.3.8c.2.2.4.4.7.6c.3.2.6.4 1 .5c.3.2.7.3 1.1.3l-.3.7c-.3-.1-.7-.1-1-.3c-.4-.1-.7-.2-1-.4c-.3-.2-.6-.4-.8-.6c-.2-.2-.4-.5-.5-.7c-.1.2-.3.5-.5.7c-.2.2-.5.4-.8.6c-.3.2-.6.3-1 .4c-.3.2-.7.2-1 .3zm3.7.9h3.8v.7h-8.3v-.7h3.7v-1.5h.8v1.5zm-2.6 1.4v1.9h5.4v.7h-6.3v-2.6h.9zm15.1-1.8l-.4.7c-.3 0-.6-.2-1-.3c-.3-.2-.7-.4-1-.6c-.3-.2-.5-.5-.8-.8c-.2-.3-.4-.6-.5-.9l-.6.9c-.3.3-.5.6-.8.8c-.3.2-.7.4-1 .6c-.4.1-.7.3-1 .3l-.4-.7c.4 0 .8-.2 1.2-.4c.4-.2.7-.4 1-.7c.4-.3.6-.6.8-1c.2-.3.3-.7.3-1.1v-.7h.9v.7c0 .4.1.7.3 1.1c.2.4.4.7.8 1c.3.3.6.5 1 .7c.4.2.8.4 1.2.4zm-7.9 2.7h8.3v.7h-8.3v-.7zm18-7.2h.8v9.1h-.8v-9.1zm-3.4 1.6s-.03 1.14 0 1.1c0 .4 0 .8.2 1.2c.1.4.3.7.5 1.1c.2.3.5.6.8.8c.3.3.6.5.9.6l-.5.7c-.5-.2-1-.6-1.4-1.1c-.4-.5-.7-1.1-1-1.7c-.1.3-.2.7-.4 1c-.1.3-.3.6-.5.8c-.2.3-.4.5-.7.7c-.2.2-.5.4-.7.5l-.5-.6c.3-.2.6-.4.9-.7c.3-.3.6-.6.8-.9c.2-.4.4-.8.5-1.2c.2-.4.2-.8.2-1.2c.03.04 0-1.1 0-1.1h-2.1v-.7h5.1v.7h-2.1zm13.7 1.3l-.4.7c-.3 0-.7-.1-1-.2c-.3-.2-.6-.3-.9-.5c-.3-.1-.6-.3-.8-.6c-.3-.2-.4-.4-.6-.7c-.1.3-.3.5-.5.7c-.3.3-.5.5-.8.6c-.3.2-.6.3-1 .5c-.3.1-.7.2-1 .2l-.3-.7c.4 0 .8-.1 1.2-.3c.4-.1.7-.3 1-.5c.3-.2.5-.5.7-.7c.2-.3.3-.6.3-.9c-.02-.01 0-.4 0-.4h.8s.04.39 0 .4c0 .3.1.6.3.9c.2.2.4.5.7.7c.3.2.7.4 1.1.5c.3.2.7.3 1.2.3zm-3.3 1.6h3.8v.7h-8.3v-.7h3.7v-1.4h.8v1.4zm-3.6 2.3v-.7h6.3v3h-.8v-2.3h-5.5zm16.8-3.1v.6h-1.5v4.8h-.8V125h.8v3.8h1.5zm-8-2.8s4.13.02 4.1 0c0 .7 0 1.3-.2 1.9c-.2.6-.4 1.2-.7 1.8c-.4.5-.8 1-1.3 1.5c-.5.5-1.2.9-1.9 1.3l-.5-.7c1.2-.6 2.1-1.3 2.7-2.2c.7-.8 1-1.8 1.1-2.9c.01.01-3.3 0-3.3 0v-.7zm16 1.6v.7h-6.2v-3.1h.8v2.4h5.4zm-7.3 1.7h8.2v.7h-8.2v-.7zm4.1 1.5c.9 0 1.7.2 2.3.5c.5.3.8.7.8 1.2c0 .5-.3.9-.8 1.2c-.6.3-1.4.5-2.3.5c-1 0-1.8-.2-2.3-.5c-.6-.3-.9-.7-.9-1.2c0-.5.3-.9.9-1.2c.5-.3 1.3-.5 2.3-.5zm0 2.7c.7 0 1.3-.1 1.7-.3c.4-.1.6-.4.6-.7c0-.3-.2-.6-.6-.8c-.4-.1-1-.2-1.7-.2c-.7 0-1.3.1-1.7.2c-.4.2-.6.5-.6.8c0 .3.2.6.6.7c.4.2 1 .3 1.7.3zm11.7-6.1h-2.3c-.6 1.5-1.9 2.5-3.9 3.1l-.4-.6c1.2-.4 2-.8 2.7-1.4c.6-.6 1-1.3 1-2.1h-3.2v-.7s4.14.03 4.1 0v.5c0 .2 0 .4-.1.5c.04.02 2.1 0 2.1 0v-1.6h.9v5.4h-.9v-1.2h-2.4v-.7h2.4v-1.2zm-2.1 3.2c.4 0 .9.1 1.2.1c.4.1.7.2 1 .4c.2.1.4.3.6.5c.1.3.2.5.2.8c0 .3-.1.5-.2.7l-.6.6c-.3.1-.6.2-1 .3c-.3.1-.8.1-1.2.1c-.5 0-.9 0-1.3-.1c-.4-.1-.7-.2-.9-.3c-.3-.2-.5-.4-.6-.6c-.2-.2-.3-.4-.3-.7c0-.3.1-.5.3-.8c.1-.2.3-.4.6-.5c.2-.2.5-.3.9-.4c.4 0 .8-.1 1.3-.1zm0 2.9c.7 0 1.2-.1 1.6-.3c.4-.2.6-.5.6-.8c0-.4-.2-.6-.6-.8c-.4-.2-.9-.3-1.6-.3c-.7 0-1.2.1-1.6.3c-.4.2-.6.4-.6.8c0 .3.2.6.6.8c.4.2.9.3 1.6.3zm11.3-4.3s-2.35-.05-2.4 0c-.2.2-.4.4-.7.5c-.4.2-.7.2-1.1.2c-.3 0-.7 0-.9-.1c-.3-.1-.6-.3-.8-.5c-.2-.2-.4-.4-.5-.7c-.1-.2-.2-.5-.2-.8c0-.4.1-.7.2-.9c.1-.3.3-.5.5-.7c.2-.2.5-.3.8-.5c.2-.1.6-.1.9-.1c.4 0 .7.1 1.1.2c.3.1.5.3.7.6c.05-.04 2.4 0 2.4 0V125h.8v5.5h-.8v-1.3zm-5.8-1.4c0 .2.1.4.2.5c0 .2.1.4.3.5c.1.1.3.2.5.3c.2.1.4.1.6.1c.2 0 .4 0 .6-.1c.2-.1.4-.2.5-.3c.1-.1.3-.3.3-.5c.1-.1.2-.3.2-.5c0-.3-.1-.5-.2-.6c0-.2-.2-.4-.3-.5c-.1-.1-.3-.2-.5-.3c-.2-.1-.4-.1-.6-.1c-.2 0-.4 0-.6.1c-.2.1-.4.2-.5.3c-.2.1-.3.3-.3.5c-.1.1-.2.3-.2.6zm5.8-.8s-1.97.04-2 0c.1.3.1.5.1.8c0 .2 0 .4-.1.7c.02-.03 2 0 2 0V127zm-2.2 3.7c.5 0 .9 0 1.3.1c.4.1.7.2.9.3c.3.2.5.4.7.6c.1.2.2.4.2.7c0 .3-.1.6-.2.8c-.2.2-.4.4-.7.5c-.2.2-.5.3-.9.4c-.4 0-.8.1-1.3.1c-.5 0-.9-.1-1.3-.1c-.3-.1-.6-.2-.9-.4c-.3-.1-.5-.3-.6-.5c-.2-.2-.2-.5-.2-.8c0-.3 0-.5.2-.7c.1-.2.3-.4.6-.6l.9-.3c.4-.1.8-.1 1.3-.1zm0 2.8c.7 0 1.3-.1 1.7-.3c.3-.2.5-.4.5-.8c0-.3-.2-.6-.5-.8c-.4-.2-1-.3-1.7-.3c-.7 0-1.2.1-1.6.3c-.4.2-.6.5-.6.8c0 .4.2.6.6.8c.4.2.9.3 1.6.3zm11.3-8.4h.9v9.1h-.9v-9.1zm-3.4 1.6s.05 1.14 0 1.1c0 .4.1.8.2 1.2c.2.4.3.7.6 1.1c.2.3.4.6.7.8c.3.3.7.5 1 .6l-.5.7c-.5-.2-1-.6-1.4-1.1c-.4-.5-.8-1.1-1-1.7c-.1.3-.2.7-.4 1c-.1.3-.3.6-.5.8c-.2.3-.4.5-.7.7c-.2.2-.5.4-.7.5l-.5-.6c.3-.2.6-.4.9-.7c.3-.3.6-.6.8-.9c.2-.4.4-.8.5-1.2c.1-.4.2-.8.2-1.2c.01.04 0-1.1 0-1.1h-2.1v-.7h5.1v.7h-2.2zm13.8 1.8l-.3.7l-1.1-.3c-.3-.1-.6-.3-.9-.4c-.3-.2-.6-.4-.8-.7c-.3-.2-.4-.5-.6-.7c-.1.2-.3.5-.6.7c-.2.3-.5.5-.8.7c-.3.1-.6.3-.9.4l-1.1.3l-.3-.7c.4 0 .8-.1 1.2-.3c.4-.2.7-.4 1.1-.6c.3-.2.5-.5.7-.8c.2-.3.3-.6.3-.9c-.04-.02 0-.5 0-.5h.8s.04.48 0 .5c0 .3.1.6.3.9c.2.3.5.6.8.8c.3.2.6.4 1 .6c.4.2.8.3 1.2.3zm.4 1.7v.7h-3.7v3.3h-.8v-3.3h-3.7v-.7h8.2zm1.4 4.6l-.6-.2c.5-.8.8-1.6 1-2.4c.2-.8.3-1.7.3-2.5c0-.9-.1-1.8-.3-2.6c-.2-.8-.5-1.6-1-2.4l.6-.2c.5.7.9 1.5 1.1 2.4c.3.8.4 1.7.4 2.8c0 1-.1 1.9-.4 2.7c-.2.9-.6 1.7-1.1 2.4zm6.2-1.4L149 126h1s.74 4.03.7 4l.3 1.2c0 .4.1.8.2 1.2l.3-1.2l.3-1.2c-.04.03 1-4 1-4h.9l1 4l.3 1.2c.1.4.1.8.2 1.2h.1c.1-.8.3-1.6.4-2.4c.01.03.8-4 .8-4h.9l-1.5 7.4h-1.2s-1.11-4.47-1.1-4.5c-.1-.3-.1-.6-.2-.8c-.1-.3-.1-.6-.2-.9c-.1.3-.1.6-.2.9c-.1.2-.1.5-.2.8c.01.03-1.1 4.5-1.1 4.5h-1.1zm10 .2c-.4 0-.7-.1-1-.2c-.3-.2-.6-.3-.8-.6c-.3-.2-.5-.5-.6-.9c-.1-.4-.2-.8-.2-1.2c0-.5.1-.9.2-1.3c.1-.3.3-.6.6-.9c.2-.2.5-.4.8-.6c.3-.1.6-.1 1-.1c.3 0 .6 0 .9.1c.4.2.6.4.9.6c.2.3.4.6.5.9c.2.4.2.8.2 1.3c0 .4 0 .8-.2 1.2c-.1.4-.3.7-.5.9c-.3.3-.5.4-.9.6c-.3.1-.6.2-.9.2zm0-.8c.2 0 .4-.1.6-.2c.2-.1.4-.2.5-.4c.2-.2.3-.4.4-.7c0-.2.1-.5.1-.8c0-.3-.1-.6-.1-.9c-.1-.3-.2-.5-.4-.7c-.1-.2-.3-.3-.5-.4c-.2-.1-.4-.2-.6-.2c-.3 0-.5.1-.7.2c-.2.1-.4.2-.5.4c-.1.2-.2.4-.3.7c-.1.3-.1.6-.1.9c0 .3 0 .6.1.8c.1.3.2.5.3.7c.1.2.3.3.5.4c.2.1.4.2.7.2zm3.8.6v-5.5h.8v1h.1c.2-.3.4-.6.7-.8c.2-.2.5-.3.8-.3h.4c.1 0 .1 0 .2.1l-.1.8c-.1 0-.2-.1-.3-.1h-.3c-.1 0-.2 0-.3.1c-.2 0-.3.1-.4.2c-.1.1-.3.2-.4.4c-.1.1-.2.3-.3.6c.02-.02 0 3.5 0 3.5h-.9zm4.7 0h-1v-8.1h1v8.1zm3.5.2c-.3 0-.6-.1-.9-.2c-.3-.2-.6-.3-.7-.6c-.2-.2-.4-.5-.5-.9c-.1-.4-.2-.8-.2-1.2c0-.5.1-.9.2-1.2c.2-.4.3-.7.6-1c.2-.2.4-.4.7-.5c.3-.2.6-.2.9-.2c.4 0 .6 0 .9.1c.2.1.4.3.7.5c-.01.01-.1-1-.1-1v-2.1h1v8.1h-.8l-.1-.6s0-.02 0 0c-.2.2-.5.4-.8.5c-.2.2-.6.3-.9.3zm.2-.8c.3 0 .5-.1.7-.2c.3-.1.5-.3.7-.6v-2.9c-.2-.2-.4-.3-.6-.4c-.3-.1-.5-.2-.7-.2c-.2 0-.4.1-.6.2c-.2.1-.4.2-.5.4c-.2.2-.3.4-.4.7c-.1.3-.1.5-.1.9c0 .6.1 1.2.4 1.5c.3.4.6.6 1.1.6zm12.4-1v-2.6h-1.5v-.7h1.5v-1h-1.5v-.7h1.5v-1.7h.9v6.7h-.9zm-1.3-2.3l.1.7c-.5 0-.9.1-1.4.1c-.5.1-.9.1-1.4.1c-.5 0-.9.1-1.3.1h-1.2c-.05-.03-.1-.7-.1-.7c0 0 .82-.03.8 0h.3c.01-.04 0-3.3 0-3.3h-.9v-.7h4.8v.7h-.9v3.2c.2-.1.4-.1.6-.1c.2 0 .4 0 .6-.1zm-3.4-3s.02 3.25 0 3.3c.2-.1.5-.1.7-.1h.7v-3.2h-1.4zm.5 6.8h5.3v.7h-6.1v-2.7h.8v2zm13.4-8.2h.8v4.9h-.8v-4.9zm-4.1.4c.3 0 .7 0 1 .1c.3.1.5.3.7.5c.2.1.4.4.5.6c.1.3.2.6.2.9c0 .3-.1.6-.2.8c-.1.3-.3.5-.5.7c-.2.2-.4.3-.7.4c-.3.1-.7.2-1 .2c-.3 0-.7-.1-1-.2c-.2-.1-.5-.2-.7-.4c-.2-.2-.4-.4-.5-.7c-.1-.2-.2-.5-.2-.8c0-.3.1-.6.2-.9c.1-.2.3-.5.5-.6c.2-.2.5-.4.7-.5c.3-.1.7-.1 1-.1zm0 .7c-.2 0-.4 0-.6.1c-.2 0-.4.1-.5.3c-.2.1-.3.2-.3.4c-.1.2-.2.4-.2.6c0 .2.1.4.2.6c0 .1.1.3.3.4c.1.1.3.2.5.3c.2.1.4.1.6.1c.5 0 .8-.1 1.1-.4c.3-.2.5-.6.5-1c0-.2-.1-.4-.1-.6c-.1-.2-.2-.3-.4-.4c-.1-.2-.3-.3-.5-.3c-.2-.1-.4-.1-.6-.1zm-1 4.2h.8v1.1h4.3v-1.1h.8v3.7h-5.9v-3.7zm.8 1.8v1.2h4.3v-1.2h-4.3z" stroke="none" fill="#fff"/></g><g id="Polygon42412"><path d="m10.2 116.1l-.6.3c-.5-.8-.8-1.6-1.1-2.4c-.2-.8-.4-1.8-.4-2.8c0-1 .2-1.9.4-2.8c.3-.8.6-1.6 1.1-2.4l.6.3c-.4.7-.8 1.5-1 2.3c-.2.9-.3 1.7-.3 2.6c0 .9.1 1.8.3 2.6c.2.8.6 1.6 1 2.3zm2.8-2h3v.8h-5v-.6s2.55-2.5 2.5-2.5l.6-.6c.2-.2.3-.4.4-.6c.1-.1.2-.3.3-.5c.1-.2.1-.4.1-.7c0-.4-.1-.7-.4-.9c-.3-.3-.6-.4-1-.4c-.2 0-.4.1-.6.1c-.2.1-.3.2-.4.3c-.2.2-.3.3-.4.5c0 .2-.1.4-.1.6l-.9-.2l.3-.9c.1-.2.3-.4.5-.6c.3-.2.5-.3.8-.4c.3-.1.6-.2.9-.2c.3 0 .6.1.9.2c.2.1.5.2.7.4c.2.2.4.4.5.6c.1.3.1.6.1.9c0 .3 0 .6-.1.8c-.1.2-.2.5-.3.7c-.2.2-.3.4-.5.6c-.2.2-.4.5-.6.7l-2.1 2c.1 0 .3 0 .4-.1h.4zm9.1-2.9c0 .7-.1 1.2-.2 1.7c-.2.5-.3.9-.6 1.2c-.2.4-.5.6-.9.7c-.3.2-.7.3-1 .3c-.4 0-.8-.1-1.1-.3c-.4-.1-.6-.3-.9-.7c-.2-.3-.4-.7-.6-1.2c-.1-.5-.2-1-.2-1.7c0-.7.1-1.2.2-1.7c.2-.5.4-.9.6-1.2c.3-.3.5-.6.9-.7c.3-.2.7-.3 1.1-.3c.3 0 .7.1 1 .3c.4.1.7.4.9.7c.3.3.4.7.6 1.2c.1.5.2 1 .2 1.7zm-.9 0c0-.6-.1-1.1-.2-1.5c-.1-.4-.2-.7-.4-.9c-.1-.3-.3-.4-.6-.5c-.2-.1-.4-.2-.6-.2c-.3 0-.5.1-.7.2c-.2.1-.4.2-.6.5c-.2.2-.3.5-.4.9c-.1.4-.1.9-.1 1.5c0 .6 0 1.1.1 1.5c.1.4.2.7.4.9c.2.3.4.5.6.6c.2.1.4.1.7.1c.2 0 .4 0 .6-.1c.3-.1.5-.3.6-.6c.2-.2.3-.5.4-.9c.1-.4.2-.9.2-1.5zm3.6 2.9h2.9v.8h-5v-.6l2.6-2.5c.2-.2.4-.4.5-.6c.2-.2.4-.4.5-.6c.1-.1.2-.3.3-.5c0-.2.1-.4.1-.7c-.1-.4-.2-.7-.5-.9c-.2-.3-.5-.4-.9-.4c-.2 0-.4.1-.6.1c-.2.1-.4.2-.5.3c-.1.2-.2.3-.3.5c-.1.2-.1.4-.1.6l-.9-.2c0-.3.1-.6.3-.9c.1-.2.3-.4.5-.6c.2-.2.4-.3.7-.4c.3-.1.6-.2.9-.2c.3 0 .6.1.9.2c.3.1.5.2.7.4c.2.2.4.4.5.6c.1.3.2.6.2.9c0 .3-.1.6-.1.8c-.1.2-.2.5-.4.7c-.1.2-.3.4-.5.6c-.2.2-.4.5-.6.7l-2.1 2c.2 0 .3 0 .5-.1h.4zm9.1-2.9c0 .7-.1 1.2-.3 1.7c-.1.5-.3.9-.5 1.2c-.3.4-.6.6-.9.7c-.3.2-.7.3-1.1.3c-.4 0-.7-.1-1.1-.3c-.3-.1-.6-.3-.8-.7c-.3-.3-.5-.7-.6-1.2c-.2-.5-.2-1-.2-1.7c0-.7 0-1.2.2-1.7c.1-.5.3-.9.6-1.2c.2-.3.5-.6.8-.7c.4-.2.7-.3 1.1-.3c.4 0 .8.1 1.1.3c.3.1.6.4.9.7c.2.3.4.7.5 1.2c.2.5.3 1 .3 1.7zm-1 0c0-.6 0-1.1-.1-1.5c-.1-.4-.3-.7-.4-.9c-.2-.3-.4-.4-.6-.5c-.2-.1-.5-.2-.7-.2c-.2 0-.5.1-.7.2c-.2.1-.4.2-.5.5c-.2.2-.3.5-.4.9c-.1.4-.2.9-.2 1.5c0 .6.1 1.1.2 1.5c.1.4.2.7.4.9c.1.3.3.5.5.6c.2.1.5.1.7.1c.2 0 .5 0 .7-.1c.2-.1.4-.3.6-.6c.1-.2.3-.5.4-.9c.1-.4.1-.9.1-1.5zm4.9.8c-.3 0-.5 0-.6-.1c-.2-.1-.4-.3-.6-.4c-.1-.1-.3-.2-.4-.3c-.2-.1-.3-.2-.5-.2c-.1 0-.3.1-.4.2c-.2.1-.3.3-.4.5l-.6-.3c.2-.4.5-.7.7-.8c.3-.2.5-.3.8-.3c.2 0 .4.1.6.2c.1.1.3.2.5.3l.4.4c.2.1.3.1.5.1c.1 0 .3-.1.4-.2c.2-.1.3-.2.4-.5l.6.4c-.2.4-.5.6-.7.8c-.3.1-.5.2-.7.2zm4.2 2.1h2.9v.8h-5v-.6l2.6-2.5c.2-.2.4-.4.5-.6c.2-.2.4-.4.5-.6c.1-.1.2-.3.3-.5c0-.2.1-.4.1-.7c-.1-.4-.2-.7-.4-.9c-.3-.3-.6-.4-1-.4c-.2 0-.4.1-.6.1c-.2.1-.4.2-.5.3c-.1.2-.2.3-.3.5c-.1.2-.1.4-.1.6l-.9-.2c0-.3.1-.6.3-.9c.1-.2.3-.4.5-.6c.2-.2.5-.3.7-.4c.3-.1.6-.2.9-.2c.4 0 .7.1.9.2c.3.1.5.2.7.4c.2.2.4.4.5.6c.1.3.2.6.2.9c0 .3 0 .6-.1.8c-.1.2-.2.5-.4.7c-.1.2-.3.4-.5.6c-.2.2-.4.5-.6.7l-2.1 2c.2 0 .3 0 .5-.1h.4zm9.1-2.9c0 .7-.1 1.2-.3 1.7c-.1.5-.3.9-.5 1.2c-.3.4-.6.6-.9.7c-.3.2-.7.3-1.1.3c-.4 0-.7-.1-1.1-.3c-.3-.1-.6-.3-.8-.7c-.3-.3-.5-.7-.6-1.2c-.2-.5-.2-1-.2-1.7c0-.7 0-1.2.2-1.7c.1-.5.3-.9.6-1.2c.2-.3.5-.6.8-.7c.4-.2.7-.3 1.1-.3c.4 0 .8.1 1.1.3c.3.1.6.4.9.7c.2.3.4.7.5 1.2c.2.5.3 1 .3 1.7zm-1 0c0-.6 0-1.1-.1-1.5c-.1-.4-.3-.7-.4-.9c-.2-.3-.4-.4-.6-.5c-.2-.1-.4-.2-.7-.2c-.2 0-.4.1-.7.2c-.2.1-.4.2-.5.5c-.2.2-.3.5-.4.9c-.1.4-.2.9-.2 1.5c0 .6.1 1.1.2 1.5c.1.4.2.7.4.9c.1.3.3.5.5.6c.3.1.5.1.7.1c.3 0 .5 0 .7-.1c.2-.1.4-.3.6-.6c.1-.2.3-.5.4-.9c.1-.4.1-.9.1-1.5zm3.6 2.9h3v.8h-5v-.6s2.55-2.5 2.6-2.5c.2-.2.3-.4.5-.6c.2-.2.3-.4.4-.6c.1-.1.2-.3.3-.5c.1-.2.1-.4.1-.7c0-.4-.1-.7-.4-.9c-.3-.3-.6-.4-1-.4c-.2 0-.4.1-.6.1c-.1.1-.3.2-.4.3c-.2.2-.3.3-.3.5c-.1.2-.2.4-.2.6l-.9-.2l.3-.9c.2-.2.3-.4.5-.6c.3-.2.5-.3.8-.4c.3-.1.6-.2.9-.2c.3 0 .6.1.9.2c.3.1.5.2.7.4c.2.2.4.4.5.6c.1.3.1.6.1.9c0 .3 0 .6-.1.8c-.1.2-.2.5-.3.7c-.2.2-.3.4-.5.6c-.2.2-.4.5-.6.7l-2.1 2c.1 0 .3 0 .4-.1h.4zm7.2.1h1.5v.7h-4.1v-.7h1.7v-5.7c.01.04-1.4 1.3-1.4 1.3l-.5-.6l2.1-1.8h.7v6.8zm4.2 2.1l3-10h.7l-3 10h-.7zm11.7-8.9v.7h-5.2v-.7h2.2v-.9h.8v.9h2.2zm1.7 2.3h1.3v.7h-1.3v3.3h-.9v-7.2h.9v3.2zm-1.4 2l.1.6c-.5 0-1 .1-1.5.2c-.5 0-1 .1-1.5.1h-1.5c-.4 0-.9.1-1.3.1l-.1-.7h1.2c.4 0 .8 0 1.3-.1v-.7c-.6 0-1-.2-1.3-.4c-.3-.2-.4-.6-.4-1c0-.2 0-.4.1-.5c.1-.2.3-.4.4-.5c.2-.1.5-.2.7-.3c.3 0 .6-.1.9-.1c.3 0 .6.1.9.1c.2.1.5.2.6.3c.2.1.4.3.5.5c.1.1.1.3.1.5c0 .4-.1.8-.4 1c-.3.2-.8.4-1.3.4v.7c.4 0 .9-.1 1.3-.1c.4 0 .8-.1 1.2-.1zm-4.3-1.9c0 .3.2.5.4.6c.3.2.6.3 1 .3c.4 0 .7-.1 1-.3c.2-.1.3-.3.3-.6c0-.2-.1-.4-.3-.5c-.3-.2-.6-.3-1-.3c-.4 0-.7.1-1 .3c-.2.1-.4.3-.4.5zm.7 3.4v1.6h5.3v.7h-6.1v-2.3h.8zm13.7-4.3s-2.24.01-2.2 0c-.7 1.5-2 2.5-4 3.1l-.3-.6c1.1-.4 2-.8 2.6-1.4c.6-.6 1-1.3 1.1-2.1h-3.2v-.7s4.08.03 4.1 0v.5c-.1.2-.1.4-.1.5c-.02.02 2 0 2 0v-1.6h.9v5.4h-.9v-1.2h-2.3v-.7h2.3v-1.2zm-2.1 3.2c.5 0 .9.1 1.3.1c.3.1.7.2.9.4c.3.1.5.3.6.5c.2.3.2.5.2.8c0 .3 0 .5-.2.7c-.1.2-.3.4-.6.6c-.2.1-.6.2-.9.3c-.4.1-.8.1-1.3.1c-.5 0-.9 0-1.2-.1c-.4-.1-.7-.2-1-.3c-.3-.2-.5-.4-.6-.6c-.2-.2-.2-.4-.2-.7c0-.3 0-.5.2-.8c.1-.2.3-.4.6-.5c.3-.2.6-.3 1-.4c.3 0 .7-.1 1.2-.1zm0 2.9c.7 0 1.2-.1 1.6-.3c.4-.2.6-.5.6-.8c0-.4-.2-.6-.6-.8c-.4-.2-.9-.3-1.6-.3c-.7 0-1.2.1-1.6.3c-.4.2-.6.4-.6.8c0 .3.2.6.6.8c.4.2.9.3 1.6.3zm9.3-.1l-.8-2.2h-2.7l-.7 2.2h-1l2.6-7.4h1l2.6 7.4h-1zm-3.3-3h2.3s-.35-1.15-.3-1.1c-.2-.5-.3-.9-.4-1.3c-.2-.4-.3-.8-.4-1.3c-.2.5-.3.9-.4 1.3c-.1.4-.3.8-.4 1.3l-.4 1.1zm4.3 3.8l.4-2.1h.9l-.6 2.1h-.7zm12.7-5.4v.6h-1.5v4.8h-.9v-9.1h.9v3.7h1.5zm-5.5-3v1.7c0 .4.1.8.2 1.2c.1.4.3.7.5 1.1c.2.3.4.7.7.9c.3.3.6.5.9.7l-.5.7c-.5-.3-.9-.7-1.3-1.2c-.4-.5-.7-1-.9-1.7c-.2.7-.5 1.3-.9 1.8c-.4.5-.9 1-1.4 1.2l-.5-.6c.3-.2.7-.4.9-.7c.3-.3.6-.6.8-1c.2-.4.4-.8.5-1.2c.1-.4.2-.8.2-1.2c-.03-.02 0-1.7 0-1.7h.8zm11.9.4v.6H109v-.6h2.3v-1.1h.9v1.1h2.3zm.8-1.1h.9v9.1h-.9v-9.1zm-3.1 5.6v1c.4 0 .8-.1 1.3-.1c.4 0 .8-.1 1.2-.1l.1.6c-.5.1-1 .1-1.5.2c-.6 0-1.1.1-1.6.1h-1.5c-.4.1-.9.1-1.3.1l-.1-.7c.3 0 .8-.1 1.2-.1h1.3v-1c-.5 0-1-.2-1.3-.5c-.3-.3-.5-.7-.5-1.2c0-.2.1-.4.2-.6c.1-.3.2-.4.4-.6c.2-.1.5-.2.7-.3c.3-.1.6-.1.9-.1c.4 0 .7 0 .9.1c.3.1.5.2.7.3c.2.2.4.3.5.6c.1.2.1.4.1.6c0 .5-.1.9-.4 1.2c-.4.3-.8.5-1.3.5zm-1.9-1.7c0 .4.2.6.4.8c.3.2.6.3 1 .3c.5 0 .8-.1 1-.3c.3-.2.4-.4.4-.8c0-.3-.1-.5-.4-.7c-.2-.2-.5-.3-1-.3c-.4 0-.7.1-1 .3c-.2.2-.4.4-.4.7zm12.2 4.4l-.7-2.2h-2.7l-.8 2.2h-.9l2.5-7.4h1.1l2.5 7.4h-1zm-3.2-3h2.3s-.39-1.15-.4-1.1c-.1-.5-.3-.9-.4-1.3c-.1-.4-.2-.8-.3-1.3h-.1c-.1.5-.2.9-.3 1.3c-.2.4-.3.8-.4 1.3c-.03-.05-.4 1.1-.4 1.1zm6.5 1.9v-2.3h-2.1v-.7h2.1v-2.2h.7v2.2h2.1v.7h-2.1v2.3h-.7zm3.2 1.9l.4-2.1h.9l-.6 2.1h-.7zm10.8-9.1h.8v9.1h-.8v-9.1zm-3.4 1.6v1.1c0 .4.1.8.2 1.2c.1.4.3.7.5 1.1c.2.3.5.6.8.8c.3.3.6.5 1 .6l-.5.7c-.5-.2-1-.6-1.5-1.1c-.4-.5-.7-1.1-.9-1.7c-.1.3-.2.7-.4 1c-.2.3-.4.6-.6.8c-.2.3-.4.5-.6.7c-.3.2-.5.4-.8.5l-.5-.6c.4-.2.7-.4 1-.7c.3-.3.5-.6.7-.9c.3-.4.4-.8.6-1.2c.1-.4.2-.8.2-1.2c-.03.04 0-1.1 0-1.1h-2.2v-.7h5.2v.7h-2.2zm12.9-1.7h.8v9.2h-.8v-4.9h-1.2v4.4h-.8v-8.5h.8v3.5h1.2v-3.7zm-3.9 3.1v-2.2h.7v6h-3.5v-6h.8v2.2h2zm0 3.1v-2.4h-2v2.4h2zm14.4-1.6v.7H156v3.9h-.8v-3.9h-3.7v-.7s6.08-.03 6.1 0c.1-.7.2-1.3.2-1.8c.1-.5.1-.9.1-1.4c-.04.03 0-.1 0-.1h-5.4v-.7h6.2s-.02.83 0 .8c0 .5 0 .9-.1 1.4c0 .5 0 1.1-.2 1.8c.02-.03 1.4 0 1.4 0zm1.6.8l-.3-.6c.4-.1.8-.2 1.2-.4c.4-.2.7-.4 1-.7c.3-.3.6-.6.8-.9c.2-.3.3-.7.3-1v-.2h-3v-.7h6.9v.7h-3s-.04.15 0 .2c0 .3.1.7.3 1c.2.3.4.6.7.9c.3.3.7.5 1.1.7c.4.1.8.3 1.2.3l-.3.7l-1.1-.3c-.3-.2-.7-.3-1-.6c-.3-.2-.5-.4-.8-.7c-.2-.2-.4-.5-.6-.8c-.1.3-.3.6-.6.9c-.2.2-.5.5-.8.7c-.3.2-.6.4-.9.5c-.4.2-.7.3-1.1.3zm3.8 1.9h3.8v.7h-8.3v-.7h3.7v-2.2h.8v2.2zm9.3 1.1l-.7-2.2H171l-.7 2.2h-1l2.6-7.4h1l2.6 7.4h-1zm-3.2-3h2.2s-.33-1.15-.3-1.1c-.2-.5-.3-.9-.4-1.3c-.1-.4-.3-.8-.4-1.3c-.1.5-.3.9-.4 1.3c-.1.4-.2.8-.4 1.3c.03-.05-.3 1.1-.3 1.1zm5 4.4l-.6-.2c.5-.8.8-1.6 1-2.4c.2-.8.3-1.7.3-2.5c0-.9-.1-1.8-.3-2.6c-.2-.8-.5-1.6-1-2.4l.6-.2c.5.7.9 1.5 1.1 2.4c.3.8.4 1.7.4 2.8c0 1-.1 1.9-.4 2.7c-.2.9-.6 1.7-1.1 2.4z" stroke="none" fill="#fff"/></g><g id="Polygon42411"><path d="m3.1 92.2v1h-1v-1h1zm5.1 4.2V89h.9v3.7h.1l3.1-3.7h1.1L11 91.8l2.7 4.6h-1l-2.3-3.9l-1.3 1.6v2.3h-.9zm9.2.2c-.5 0-.9-.1-1.3-.3c-.4-.2-.7-.4-1-.8c-.3-.3-.5-.7-.7-1.2c-.2-.5-.2-1-.2-1.6c0-.6 0-1.1.2-1.6c.2-.5.4-.9.7-1.2c.3-.4.6-.6 1.1-.8c.4-.2.8-.3 1.3-.3c.4 0 .8.1 1.2.3c.3.2.6.4.8.6l-.5.7c-.2-.3-.4-.4-.7-.6c-.2-.1-.5-.2-.8-.2c-.4 0-.7.1-1 .3c-.3.1-.5.3-.7.6c-.2.2-.4.5-.5.9c-.1.4-.2.8-.2 1.3c0 .4.1.9.2 1.2c.1.4.3.8.5 1c.2.3.4.5.7.6c.3.2.6.2 1 .2c.3 0 .6 0 .9-.2c.3-.1.5-.3.8-.6l.5.6c-.3.3-.6.6-1 .8c-.4.2-.8.3-1.3.3zm6.4 0c-.5 0-.9-.1-1.3-.3c-.4-.2-.8-.4-1.1-.8c-.3-.3-.5-.7-.7-1.2c-.2-.5-.2-1-.2-1.6c0-.6 0-1.1.2-1.6c.2-.5.4-.9.7-1.2c.3-.4.7-.6 1.1-.8c.4-.2.9-.3 1.4-.3c.2 0 .5 0 .7.1c.2.1.4.1.6.2c.2.1.3.2.5.3l.3.3l-.5.7c-.2-.2-.4-.4-.6-.5c-.3-.2-.6-.3-1-.3c-.4 0-.7.1-1 .3c-.3.1-.6.3-.8.6c-.2.2-.4.5-.5.9c-.1.4-.2.8-.2 1.3c0 .4.1.9.2 1.2c.1.4.3.8.5 1c.2.3.4.5.8.6c.3.2.6.2 1 .2c.3 0 .5 0 .8-.1l.6-.3c-.02 0 0-2 0-2h-1.6v-.7h2.4s.04 3.1 0 3.1c-.2.3-.5.5-.9.6c-.4.2-.9.3-1.4.3zm6 0c-.5 0-1-.1-1.5-.3c-.4-.2-.8-.5-1.1-.8l.5-.7c.3.3.6.5 1 .7c.3.2.7.2 1.1.2c.5 0 .9-.1 1.2-.3c.2-.2.4-.5.4-.9c0-.2-.1-.3-.1-.5l-.3-.3c-.1-.1-.2-.2-.4-.3c-.1 0-.3-.1-.5-.2l-1.1-.5c-.1-.1-.3-.1-.5-.2c-.2-.2-.3-.3-.5-.4l-.3-.6c-.1-.2-.2-.4-.2-.7c0-.3.1-.5.2-.8c.1-.2.3-.4.5-.6c.2-.2.5-.3.7-.4c.3-.1.6-.2 1-.2c.4 0 .8.1 1.2.3c.4.1.7.4 1 .6l-.5.6c-.2-.2-.5-.3-.8-.5c-.3-.1-.6-.2-.9-.2c-.4 0-.8.1-1 .3c-.3.2-.4.5-.4.8c0 .2 0 .4.1.5c.1.1.2.3.3.3c.1.1.2.2.4.3c.1.1.3.1.4.2l1.1.4c.2.1.4.2.6.4c.2.1.4.2.5.4c.1.1.2.3.3.5c.1.2.1.5.1.7c0 .3 0 .6-.1.9c-.2.2-.3.5-.5.7c-.3.1-.5.3-.9.4c-.3.1-.6.2-1 .2zm5.8 1l-.6.3c-.5-.8-.8-1.6-1.1-2.4c-.3-.8-.4-1.8-.4-2.8c0-1 .1-1.9.4-2.8c.3-.8.6-1.6 1.1-2.4l.6.3c-.5.7-.8 1.5-1 2.3c-.2.9-.3 1.7-.3 2.6c0 .9.1 1.8.3 2.6c.2.8.5 1.6 1 2.3zm6.2-8.4v.6h-5.4v-.6h2.3v-1.1h.8v1.1h2.3zm1.7 1.9h1.3v.7h-1.3v3.1h-.9v-6.8h.9v3zm-2.2.9c0 .3-.1.5-.2.7c-.1.3-.2.4-.4.6c-.2.1-.5.2-.7.3c-.3.1-.6.1-.9.1c-.3 0-.6 0-.9-.1c-.3-.1-.5-.2-.7-.3c-.2-.2-.3-.3-.4-.6c-.1-.2-.2-.4-.2-.7c0-.2.1-.5.2-.7c.1-.2.2-.3.4-.5c.2-.1.4-.3.7-.3c.3-.1.6-.2.9-.2c.3 0 .6.1.9.2c.2 0 .5.2.7.3c.2.2.3.3.4.5c.1.2.2.5.2.7zm-3.6 0c0 .4.1.6.4.8c.2.2.6.3 1 .3c.4 0 .7-.1 1-.3c.3-.2.4-.4.4-.8c0-.3-.1-.5-.4-.7c-.3-.2-.6-.3-1-.3c-.4 0-.8.1-1 .3c-.3.2-.4.4-.4.7zm.9 2.4v1.9h5.3v.7h-6.1v-2.6h.8zm15.2-2h-3.7v1.7h2.7v3.1h-.8v-2.4h-5.6v-.7h2.9v-1.7h-3.8v-.7s6.2.04 6.2 0c.1-.5.2-1 .2-1.4v-1.1c.05-.05-5.3 0-5.3 0v-.7h6.2s-.03.64 0 .6c0 .4 0 .8-.1 1.2c0 .4 0 .9-.2 1.4c.05.04 1.3 0 1.3 0v.7zm7.6-4.4h.8v9.2h-.8V88zm-6.1 1s4.25.03 4.2 0c0 .7 0 1.3-.2 1.9c-.1.7-.4 1.2-.7 1.8c-.4.5-.8 1-1.4 1.5c-.5.5-1.1.9-1.9 1.3l-.5-.7c1.3-.6 2.2-1.3 2.8-2.2c.7-.8 1-1.8 1.1-2.9h-3.4v-.7zm15.3-.9h.8v4.9h-.8v-2.1h-1.9c0 .6-.3 1-.7 1.3c-.4.3-1 .5-1.6.5c-.3 0-.7 0-.9-.2c-.3-.1-.6-.2-.8-.4c-.2-.2-.4-.4-.5-.7c-.1-.2-.2-.5-.2-.8c0-.3.1-.6.2-.9c.1-.2.3-.5.5-.6c.2-.2.5-.4.8-.5c.2-.1.6-.1.9-.1c.3 0 .6 0 .9.1c.2.1.5.2.7.4c.2.1.3.3.5.5c.1.2.2.5.2.7c.03.02 1.9 0 1.9 0v-2.1zM66.4 92c.2 0 .4 0 .6-.1c.2-.1.4-.2.5-.3c.2-.1.3-.3.3-.4c.1-.2.2-.4.2-.6c0-.2-.1-.4-.2-.6c0-.2-.1-.3-.3-.4c-.1-.2-.3-.3-.5-.3c-.2-.1-.4-.1-.6-.1c-.2 0-.4 0-.6.1c-.2 0-.4.1-.5.3c-.2.1-.3.2-.3.4c-.1.2-.2.4-.2.6c0 .2.1.4.2.6c0 .1.1.3.3.4c.1.1.3.2.5.3c.2.1.4.1.6.1zm4.2 2.6v-1.2h.8v3.7h-5.8v-3.7h.8v1.2h4.2zm0 1.8v-1.2h-4.2v1.2h4.2zm9.1-8.3h.9v9.1h-.9v-9.1zm-3.4 1.6s.05 1.14 0 1.1c0 .4.1.8.2 1.2c.2.4.3.7.6 1.1c.2.3.4.6.7.8c.3.3.7.5 1 .6l-.5.7c-.5-.2-1-.6-1.4-1.1c-.4-.5-.8-1.1-1-1.7c-.1.3-.2.7-.4 1c-.1.3-.3.6-.5.8c-.2.3-.4.5-.7.7c-.2.2-.5.4-.7.5l-.5-.6c.3-.2.6-.4.9-.7c.3-.3.6-.6.8-.9c.2-.4.4-.8.5-1.2c.1-.4.2-.8.2-1.2c.01.04 0-1.1 0-1.1h-2.1v-.7h5.1v.7h-2.2zM89.2 88h.8v9.2h-.8v-4.9H88v4.4h-.8v-8.5h.8v3.5h1.2V88zm-3.9 3.1v-2.2h.8v6h-3.5v-6h.8v2.2h1.9zm0 3.1v-2.4h-1.9v2.4h1.9zm14.4-1.6v.7H96v3.9h-.9v-3.9h-3.6v-.7s6.02-.03 6 0c.2-.7.2-1.3.3-1.8v-1.5h-5.3v-.7h6.1s.02.83 0 .8v1.4c0 .5-.1 1.1-.2 1.8c-.03-.03 1.3 0 1.3 0zm1.7.8l-.4-.6c.4-.1.8-.2 1.2-.4c.4-.2.8-.4 1.1-.7c.3-.3.5-.6.7-.9c.2-.3.3-.7.3-1c.04-.05 0-.2 0-.2h-3v-.7h6.9v.7h-3v.2c0 .3.1.7.3 1c.2.3.5.6.8.9c.3.3.7.5 1 .7c.4.1.8.3 1.2.3l-.3.7l-1-.3c-.4-.2-.7-.3-1-.6c-.3-.2-.6-.4-.8-.7c-.3-.2-.5-.5-.6-.8l-.6.9c-.3.2-.5.5-.8.7c-.3.2-.7.4-1 .5c-.3.2-.7.3-1 .3zm3.8 1.9h3.7v.7h-8.3v-.7h3.8v-2.2h.8v2.2zm9.4-1.9h1.9V88h.8v7h-.8v-.9h-1.9v-.7zm-1.9-1.8c-.3 0-.6 0-.9-.1c-.3-.1-.5-.2-.7-.3c-.2-.2-.4-.3-.5-.5c-.1-.2-.1-.5-.1-.7c0-.2 0-.5.1-.7c.1-.2.3-.3.5-.5c.2-.1.4-.2.7-.3c.3-.1.6-.1.9-.1c.4 0 .7 0 .9.1c.3.1.6.2.8.3c.2.2.3.3.4.5c.1.2.2.5.2.7c0 .2-.1.5-.2.7c-.1.2-.2.3-.4.5c-.2.1-.5.2-.8.3c-.2.1-.5.1-.9.1zm0-2.6c-.4 0-.8.1-1 .3c-.3.2-.4.4-.4.7c0 .3.1.5.4.7c.2.2.6.3 1 .3c.5 0 .8-.1 1.1-.3c.3-.2.4-.4.4-.7c0-.3-.1-.5-.4-.7c-.3-.2-.6-.3-1.1-.3zm-.3 5.7v-1.8c-.5 0-.9.1-1.3.1h-1.2l-.1-.7h1.3c.5 0 1 0 1.5-.1h1.5c.6-.1 1.1-.1 1.5-.2l.1.6c-.4.1-.8.1-1.2.2c-.4 0-.8 0-1.3.1c.04-.02 0 1.8 0 1.8h-.8zm-.5 1.6h5.6v.7h-6.4v-2.7h.8v2zm7.6 1.5l-.6-.2c.4-.8.8-1.6 1-2.4c.2-.8.3-1.7.3-2.5c0-.9-.1-1.8-.3-2.6c-.2-.8-.6-1.6-1-2.4l.6-.2c.4.7.8 1.5 1.1 2.4c.2.8.4 1.7.4 2.8c0 1-.2 1.9-.4 2.7c-.3.9-.7 1.7-1.1 2.4zm9.4-4.9h3.7v.7h-8.3v-.7h3.7v-.9h-2.6v-3.7h6.2v.7h-5.4v.8h5.1v.6h-5.1v.9h5.4v.7h-2.7v.9zm-.5 1.4c1.1 0 1.8.1 2.4.3c.5.3.8.6.8 1.1c0 .5-.3.9-.8 1.1c-.6.3-1.3.4-2.4.4c-1 0-1.8-.1-2.3-.4c-.5-.2-.8-.6-.8-1.1c0-.5.3-.8.8-1.1c.5-.2 1.3-.3 2.3-.3zm0 2.2c.8 0 1.3 0 1.7-.2c.4-.1.6-.3.6-.6c0-.3-.2-.5-.6-.6c-.4-.2-.9-.2-1.7-.2c-.7 0-1.3 0-1.7.2c-.4.1-.6.3-.6.6c0 .3.2.5.6.6c.4.2 1 .2 1.7.2zm10.5-7.5v.7h-5.4v-.7h2.3v-1.1h.8v1.1h2.3zm3 1.4v.7h-1.3v2.3h-.9V88h.9v2.4h1.3zm-3.5 1.3c0 .2 0 .4-.2.6c-.1.2-.2.4-.4.5c-.2.2-.4.3-.7.4c-.3 0-.6.1-.9.1c-.3 0-.6-.1-.9-.1c-.3-.1-.5-.2-.7-.4c-.2-.1-.3-.3-.4-.5c-.1-.2-.2-.4-.2-.6c0-.3.1-.5.2-.7c.1-.2.2-.3.4-.5c.2-.1.4-.2.7-.3c.3-.1.6-.1.9-.1c.3 0 .6 0 .9.1c.3.1.5.2.7.3c.2.2.3.3.4.5c.2.2.2.4.2.7zm-3.6 0c0 .3.1.5.4.7c.2.2.6.3 1 .3c.4 0 .8-.1 1-.3c.3-.2.4-.4.4-.7c0-.3-.1-.6-.4-.7c-.2-.2-.6-.3-1-.3c-.4 0-.8.1-1 .3c-.3.1-.4.4-.4.7zm5 3v-.9h.8v3.3h-5.8v-3.3h.9v.9h4.1zm0 1.7v-1h-4.1v1h4.1zm10.2-5.6v.7h-6.3v-3.1h6.2v.7h-5.4v1.7h5.5zm-7.3 1.6h8.2v.7h-8.2v-.7zm4.1 1.5c1 0 1.7.1 2.3.4c.5.3.8.7.8 1.2c0 .6-.3 1-.8 1.3c-.6.2-1.3.4-2.3.4c-1 0-1.7-.2-2.3-.4c-.6-.3-.8-.7-.8-1.3c0-.5.2-.9.8-1.2c.6-.3 1.3-.4 2.3-.4zm0 2.6c.7 0 1.3-.1 1.7-.2c.4-.2.6-.4.6-.8c0-.3-.2-.5-.6-.7c-.4-.2-1-.3-1.7-.3c-.7 0-1.3.1-1.7.3c-.4.2-.6.4-.6.7c0 .4.2.6.6.8c.4.1 1 .2 1.7.2zm12-4.7c.03-.03 1.3 0 1.3 0v.7h-8.3v-.7s6.2-.03 6.2 0c.1-.6.2-1.1.2-1.5c0-.4.1-.8.1-1.2c-.05.04-5.4 0-5.4 0v-.6h6.2s-.02.62 0 .6c0 .4 0 .8-.1 1.2c0 .4 0 .9-.2 1.5zm-.6 2.7v-1.2h.9v3.8h-6.2v-3.8h.8v1.2h4.5zm0 1.9v-1.3h-4.5v1.3h4.5zm9.5 0l-.7-2.2h-2.7l-.7 2.2h-1l2.5-7.4h1.1l2.5 7.4h-1zm-3.2-3h2.3s-.38-1.15-.4-1.1c-.1-.5-.2-.9-.4-1.3c-.1-.4-.2-.8-.3-1.3h-.1c-.1.5-.2.9-.3 1.3c-.2.4-.3.8-.4 1.3c-.02-.05-.4 1.1-.4 1.1zm12.4-4.5v.6h-5.4v-.6h2.3v-.9h.8v.9h2.3zm.9-.8h.9v6.1h-.9v-6.1zm-.7 4.8l.1.6c-.5.1-1 .2-1.6.2c-.5.1-1 .1-1.5.1c-.5.1-1 .1-1.4.1h-1.4l-.1-.7h2.6v-.6c-.6-.1-1-.2-1.3-.5c-.3-.2-.5-.5-.5-.9c0-.2.1-.4.2-.6c.1-.1.2-.3.4-.4c.2-.1.4-.2.7-.3c.3 0 .6-.1.9-.1c.3 0 .6.1.9.1c.3.1.5.2.7.3c.2.1.3.3.4.4c.1.2.2.4.2.6c0 .4-.2.7-.5.9c-.3.3-.7.4-1.3.5v.6c.4-.1.9-.1 1.3-.1c.4-.1.8-.1 1.2-.2zm-4.3-1.7c0 .3.1.4.4.6c.2.1.6.2 1 .2c.4 0 .8-.1 1-.2c.3-.2.4-.3.4-.6c0-.2-.1-.4-.4-.6c-.2-.1-.6-.2-1-.2c-.4 0-.8.1-1 .2c-.3.2-.4.4-.4.6zm-.3 4.1v-.7h6.2v2.6h-.9v-1.9h-5.3zm15.2-4.5v.7h-6.3v-3.1h6.2v.7h-5.4v1.7h5.5zm-7.3 1.7h8.2v.7h-8.2v-.7zm.9 2.4v-.6h6.3v2.9h-.8v-2.3h-5.5z" stroke="none" fill="#fff"/></g><g id="Polygon42410"><path d="m3.1 73.7v1h-1v-1h1zm8.7.2c-.4 0-.9 0-1.3-.1c-.3-.1-.7-.3-1-.4c-.3-.2-.5-.4-.6-.7c-.2-.2-.3-.5-.3-.8c0-.3.1-.6.3-.8c.1-.3.3-.5.6-.7c.3-.1.7-.3 1-.4c.4 0 .9-.1 1.3-.1c.5 0 1 .1 1.3.1c.4.1.8.3 1.1.4c.2.2.5.4.6.7c.2.2.2.5.2.8c0 .3 0 .6-.2.8c-.1.3-.4.5-.6.7c-.3.1-.7.3-1.1.4c-.3.1-.8.1-1.3.1zm0-3.3c-.3 0-.6 0-.9.1c-.3 0-.5.1-.7.2c-.3.2-.4.3-.5.5c-.1.1-.2.3-.2.5c0 .2.1.4.2.5c.1.2.2.4.5.5c.2.1.4.2.7.2c.3.1.6.1.9.1c.4 0 .7 0 1-.1c.3 0 .5-.1.7-.2c.2-.1.4-.3.5-.5c.1-.1.2-.3.2-.5c0-.2-.1-.4-.2-.5c-.1-.2-.3-.3-.5-.5c-.2-.1-.4-.2-.7-.2c-.3-.1-.6-.1-1-.1zm4.2 4.2v.6h-2.2v3.3h-.8v-3.3h-2.3v3.3h-.8v-3.3H7.7v-.6h8.3zm7.6-5.2h.8v5h-.8v-2.5h-1.7v-.7h1.7v-1.8zm-1.5 3.8v.7c-.3 0-.7.1-1 .1c-.3 0-.7.1-1 .1H18c-.02.02-.7 0-.7 0v-2.5h3.2v-1.2h-3.2v-.7h4v2.5h-3.2v1.2h2c.3 0 .7 0 1-.1c.3 0 .6-.1 1-.1zm1.5 2.7V75h.8v3.6h-5.9V75h.8v1.1h4.3zm0 1.8v-1.1h-4.3v1.1h4.3zm11.5-8.4h.8v9.2h-.8v-4.6h-1.2v4.1h-.8v-8.5h.8v3.7h1.2v-3.9zm-4.3.3v1.3h1.9v.7h-4.5v-.7h1.8v-1.3h.8zm-.4 2.6c.3 0 .6 0 .8.1c.2.2.5.3.6.5c.2.2.3.4.4.6c.1.3.2.6.2.9c0 .3-.1.6-.2.8c-.1.3-.2.5-.4.7c-.1.2-.4.3-.6.4c-.2.1-.5.2-.8.2c-.3 0-.5-.1-.8-.2c-.2-.1-.4-.2-.6-.4c-.1-.2-.3-.4-.4-.7c-.1-.2-.1-.5-.1-.8c0-.3 0-.6.1-.9c.1-.2.3-.4.4-.6c.2-.2.4-.3.6-.5c.3-.1.5-.1.8-.1zm0 3.5c.4 0 .7-.2.9-.4c.2-.3.3-.6.3-1c0-.2 0-.4-.1-.6c0-.1-.1-.3-.2-.4c-.1-.1-.2-.2-.4-.3c-.1-.1-.3-.1-.5-.1c-.3 0-.6.1-.9.4c-.2.2-.3.6-.3 1c0 .4.1.7.4 1c.2.2.5.4.8.4zm15.4-4.3h-1.4v1.3h1.4v.6h-1.4v1.5h-.8v-5.4h.8v1.3h1.4v.7zm-3.5.6c0 .4-.1.6-.2.9c-.1.3-.3.5-.5.7c-.2.2-.5.3-.7.4c-.3.1-.7.2-1 .2c-.3 0-.7-.1-1-.2c-.2-.1-.5-.2-.7-.4c-.2-.2-.4-.4-.5-.7c-.1-.3-.2-.5-.2-.9c0-.3.1-.6.2-.8c.1-.3.3-.5.5-.7c.2-.2.5-.3.7-.5c.3-.1.7-.1 1-.1c.3 0 .7 0 1 .1c.2.2.5.3.7.5c.2.2.4.4.5.7c.1.2.2.5.2.8zm-4 0c0 .2.1.4.1.6c.1.2.2.4.4.5c.1.1.3.2.5.3c.2.1.4.1.6.1c.2 0 .4 0 .6-.1c.2-.1.4-.2.5-.3c.2-.1.3-.3.4-.5c0-.2.1-.4.1-.6c0-.2-.1-.4-.1-.6c-.1-.1-.2-.3-.4-.4c-.1-.1-.3-.2-.5-.3c-.2-.1-.4-.1-.6-.1c-.2 0-.4 0-.6.1c-.2.1-.4.2-.5.3c-.2.1-.3.3-.4.4c0 .2-.1.4-.1.6zm3.2 3.1c.5 0 .9 0 1.3.1c.4 0 .7.2.9.3c.3.1.5.3.6.5c.2.2.2.5.2.8c0 .2 0 .5-.2.7c-.1.2-.3.4-.6.5c-.2.2-.5.3-.9.4c-.4 0-.8.1-1.3.1c-.4 0-.8-.1-1.2-.1c-.4-.1-.7-.2-1-.4c-.2-.1-.4-.3-.6-.5c-.1-.2-.2-.5-.2-.7c0-.3.1-.6.2-.8c.2-.2.4-.4.6-.5c.3-.1.6-.3 1-.3c.4-.1.8-.1 1.2-.1zm0 2.7c.7 0 1.2-.1 1.6-.3c.4-.2.6-.4.6-.7c0-.4-.2-.6-.6-.8c-.4-.2-.9-.3-1.6-.3c-.6 0-1.2.1-1.6.3c-.4.2-.5.4-.5.8c0 .3.1.5.5.7c.4.2 1 .3 1.6.3zm10.8-5.3v2.2h-.8v-5.2h.8v2.3h1.1v-2.4h.8v5.6h-.8v-2.5h-1.1zm-1.2 1.1l-.4.7c-.5-.2-.8-.4-1.1-.8c-.4-.3-.6-.6-.8-1c-.1.4-.4.8-.7 1.2c-.3.4-.7.6-1.1.8l-.5-.6c.3-.1.6-.3.8-.5c.3-.2.5-.5.6-.7c.2-.2.3-.5.4-.8c.1-.2.1-.5.1-.8c.04.05 0-1.2 0-1.2h.8s.05 1.25 0 1.2c0 .3.1.5.2.8c.1.2.2.5.3.7l.6.6c.2.2.5.3.8.4zm.1 1.6c.5 0 .9 0 1.3.1c.4.1.7.2 1 .3c.2.2.4.3.6.5c.1.2.2.5.2.7c0 .3-.1.5-.2.7c-.2.2-.4.4-.6.5c-.3.2-.6.3-1 .4c-.4 0-.8.1-1.3.1c-.4 0-.9-.1-1.2-.1c-.4-.1-.7-.2-1-.4c-.3-.1-.5-.3-.6-.5c-.2-.2-.2-.4-.2-.7c0-.2 0-.5.2-.7c.1-.2.3-.3.6-.5c.3-.1.6-.2 1-.3c.3-.1.8-.1 1.2-.1zm0 2.6c.7 0 1.3 0 1.7-.2c.4-.2.6-.4.6-.8c0-.3-.2-.5-.6-.7c-.4-.2-1-.3-1.7-.3c-.7 0-1.2.1-1.6.3c-.4.2-.6.4-.6.7c0 .4.2.6.6.8c.4.2.9.2 1.6.2zm11.5-8.5h.8v9.2h-.8v-4.8h-1.2v4.3h-.8v-8.5h.8v3.5h1.2v-3.7zm-5.8 4.2s-.04 2.03 0 2h1.7c.2 0 .5-.1.7-.1c.2 0 .5-.1.7-.1l.1.7c-.3 0-.5.1-.8.1c-.2 0-.5.1-.8.1h-1.8c-.04.03-.6 0-.6 0v-5.8h3.6v.7h-2.8v1.7h2.6v.7h-2.6zm15-4.2h.8v9.2h-.8v-9.2zM70 72.1v-2.3h.8v8.4h-.8v-3.1h-1.6v-.7h1.6v-1.6s-1.49-.04-1.5 0c-.2.7-.6 1.5-1.1 2.1c-.5.7-1.2 1.3-2 1.8l-.5-.6c1-.6 1.7-1.3 2.2-2.1c.5-.8.8-1.6.9-2.6h-2.7v-.7h3.5c0 .5-.1.9-.1 1.4h1.3zm10.7 2.2h3.7v.6h-8.3v-.6h3.8v-1.1h-2.7v-3.4h.9v1h4.4v-1h.8v3.4h-2.6v1.1zm-2.6-2.9v1.1h4.4v-1.1h-4.4zm-1 5.1v-.7h6.3v2.9h-.8v-2.2h-5.5zm13-1.6h1.9v-5.4h.8v7h-.8v-.9h-1.9v-.7zm-1.9-1.8c-.3 0-.6 0-.9-.1c-.2-.1-.5-.2-.7-.3c-.2-.2-.3-.3-.4-.5c-.1-.2-.2-.5-.2-.7c0-.2.1-.5.2-.7c.1-.2.2-.3.4-.5c.2-.1.5-.2.7-.3c.3-.1.6-.1.9-.1c.4 0 .7 0 1 .1c.2.1.5.2.7.3c.2.2.3.3.4.5c.1.2.2.5.2.7c0 .2-.1.5-.2.7c-.1.2-.2.3-.4.5c-.2.1-.5.2-.7.3c-.3.1-.6.1-1 .1zm0-2.6c-.4 0-.7.1-1 .3c-.3.2-.4.4-.4.7c0 .3.1.5.4.7c.3.2.6.3 1 .3c.5 0 .8-.1 1.1-.3c.3-.2.4-.4.4-.7c0-.3-.1-.5-.4-.7c-.3-.2-.6-.3-1.1-.3zm-.3 5.7s.02-1.78 0-1.8c-.4 0-.9.1-1.3.1h-1.2l-.1-.7h1.3c.5 0 1 0 1.5-.1h1.6c.5-.1 1-.1 1.5-.2v.6c-.4.1-.8.1-1.2.2c-.4 0-.8 0-1.2.1c-.04-.02 0 1.8 0 1.8h-.9zm-.5 1.6h5.6v.7h-6.4v-2.7h.8v2zm16.7-8.3v5.3h-.9v-5.3h.9zm-2.8.6v3.8h-4.2v-3.8h4.2zm-.8 3.1v-2.4h-2.6v2.4h2.6zm3.8 2.9s-2.69-.04-2.7 0c0 .2.1.4.3.6c.1.2.4.4.6.6c.3.2.6.3 1 .5c.3.1.7.2 1.1.2l-.3.7c-.3-.1-.6-.2-1-.3l-.9-.3c-.2-.2-.5-.3-.7-.5c-.2-.2-.4-.4-.5-.6c-.1.2-.3.4-.5.6c-.3.2-.5.3-.8.5l-.9.3l-1 .3l-.3-.7c.4 0 .8-.1 1.2-.2c.3-.2.6-.3.9-.5c.3-.2.5-.4.7-.6c.2-.2.3-.4.3-.6c-.04-.04-2.7 0-2.7 0v-.7h2.7v-.9h.8v.9h2.7v.7zm10.2-6.5h.9v4.9h-.9v-2.1s-1.82.01-1.8 0c-.1.6-.4 1-.8 1.3c-.4.3-.9.5-1.6.5c-.3 0-.6 0-.9-.2c-.3-.1-.5-.2-.7-.4c-.3-.2-.4-.4-.5-.7c-.2-.2-.2-.5-.2-.8c0-.3 0-.6.2-.9c.1-.2.2-.5.5-.6c.2-.2.4-.4.7-.5c.3-.1.6-.1.9-.1c.3 0 .6 0 .9.1c.3.1.5.2.7.4c.2.1.4.3.5.5c.1.2.2.5.3.7c-.03.02 1.8 0 1.8 0v-2.1zm-4.2 3.9c.3 0 .5 0 .7-.1c.2-.1.3-.2.5-.3c.1-.1.2-.3.3-.4c.1-.2.1-.4.1-.6c0-.2 0-.4-.1-.6c-.1-.2-.2-.3-.3-.4c-.2-.2-.3-.3-.5-.3c-.2-.1-.4-.1-.7-.1c-.2 0-.4 0-.6.1c-.2 0-.3.1-.5.3c-.1.1-.2.2-.3.4c-.1.2-.1.4-.1.6c0 .2 0 .4.1.6c.1.1.2.3.3.4c.2.1.3.2.5.3c.2.1.4.1.6.1zm4.2 2.6v-1.2h.9v3.7h-5.9v-3.7h.9v1.2h4.1zm0 1.8v-1.2h-4.1v1.2h4.1zm11.1-4.6v.6h-1.5v4.8h-.9v-9.1h.9v3.7h1.5zm-5.5-3s-.01 1.68 0 1.7c0 .4.1.8.2 1.2c.1.4.3.7.5 1.1c.2.3.4.7.7.9c.3.3.6.5.9.7l-.5.7c-.5-.3-.9-.7-1.3-1.2c-.4-.5-.7-1-.9-1.7c-.2.7-.5 1.3-.9 1.8c-.4.5-.9 1-1.4 1.2l-.5-.6c.3-.2.6-.4.9-.7c.3-.3.6-.6.8-1c.2-.4.4-.8.5-1.2c.1-.4.2-.8.2-1.2c-.03-.02 0-1.7 0-1.7h.8zm12.8-.8h.8v9.2h-.8v-9.2zm-4 .7c.3 0 .6.1.9.3c.3.1.5.3.7.6c.2.3.4.6.5 1c.1.4.2.8.2 1.3c0 .5-.1 1-.2 1.4c-.1.3-.3.7-.5 1c-.2.2-.4.5-.7.6c-.3.2-.6.2-.9.2c-.4 0-.7 0-1-.2c-.3-.1-.5-.4-.7-.6c-.2-.3-.4-.7-.5-1c-.1-.4-.2-.9-.2-1.4c0-.5.1-.9.2-1.3c.1-.4.3-.7.5-1c.2-.3.4-.5.7-.6c.3-.2.6-.3 1-.3zm0 .8c-.3 0-.5.1-.7.2c-.1.1-.3.3-.4.5c-.2.2-.3.4-.4.7c0 .3-.1.7-.1 1c0 .4.1.7.1 1c.1.3.2.6.4.8c.1.2.3.4.4.5c.2.1.4.2.7.2c.2 0 .4-.1.6-.2c.2-.1.3-.3.5-.5c.1-.2.2-.5.3-.8c0-.3.1-.6.1-1c0-.3-.1-.7-.1-1c-.1-.3-.2-.5-.3-.7c-.2-.2-.3-.4-.5-.5c-.2-.1-.4-.2-.6-.2zm13.5 2.3c0-.02 1.2 0 1.2 0v.7h-8.2v-.7s6.15-.02 6.2 0c0-.2 0-.4.1-.6v-.6c.04.02-5.4.3-5.4.3l-.1-.7s5.58-.17 5.6-.2v-.9h-5.4v-.6h6.2s.02.67 0 .7v1.1c0 .5-.1.9-.2 1.5zm-5.2 3.7v.9h5.8v.7h-6.6v-2.3h5.5v-.8h-5.5v-.7h6.3v2.2h-5.5zm14.9-7.5v5.7h-.9v-5.7h.9zm-2 4.1l.1.7c-.4.1-.7.1-1.1.2c-.3 0-.7 0-1 .1H145V72h3.3v-1.2H145v-.7h4.2v2.5h-3.3s-.04 1.33 0 1.3h2.2c.3 0 .6-.1 1-.1c.3 0 .7-.1 1-.2zm-1.1 1.8c.5 0 .9 0 1.3.1c.4.1.7.2 1 .3c.3.1.5.3.6.5c.2.2.2.5.2.7c0 .5-.3 1-.8 1.2c-.6.3-1.3.5-2.3.5c-.9 0-1.7-.2-2.2-.5c-.5-.2-.8-.7-.8-1.2c0-.5.3-.9.8-1.2c.5-.3 1.3-.4 2.2-.4zm0 2.6c.8 0 1.3-.1 1.7-.2c.4-.2.6-.5.6-.8c0-.3-.2-.5-.6-.7c-.4-.2-.9-.3-1.7-.3c-.7 0-1.2.1-1.6.3c-.4.2-.6.4-.6.7c0 .3.2.6.6.8c.4.1.9.2 1.6.2zm13.5-1.7v-3.7h-1.7v-.7h1.7v-2.3h.9v6.7h-.9zm-1.5-2.2l.1.7c-.4 0-.7.1-1 .1c-.3 0-.6 0-.9.1h-3v-2.8h3.2v-1.3h-3.2v-.7h4v2.7H157s.03 1.42 0 1.4h2.2c.3 0 .6-.1.9-.1c.3 0 .6-.1.9-.1zm-2.7 3.7h5.3v.7h-6.1v-2.7h.8v2zm12.4-3.8l-.4.7c-.6-.2-1-.4-1.4-.8c-.4-.3-.8-.7-1-1.1c-.2.5-.5.9-.9 1.3c-.4.3-.9.6-1.4.8l-.4-.7c.3-.1.6-.2.9-.4c.3-.2.5-.4.8-.6c.2-.3.3-.6.4-.8c.1-.3.2-.6.2-1v-.1h-2.1v-.6h2.1v-1.2h.8v1.2h2.1v.6h-2.1s.02.15 0 .1c0 .3.1.6.2.9c.1.2.3.5.5.7c.2.2.4.4.7.6c.3.2.6.3 1 .4zm1.8-4.4v5.6h-.8v-5.6h.8zm-3 5.7c.9 0 1.7.2 2.2.5c.6.3.8.7.8 1.2c0 .5-.2 1-.8 1.2c-.5.3-1.3.5-2.2.5c-1 0-1.7-.2-2.3-.5c-.5-.2-.8-.7-.8-1.2c0-.5.3-.9.8-1.2c.6-.3 1.3-.5 2.3-.5zm0 2.7c.7 0 1.2-.1 1.6-.2c.4-.2.6-.5.6-.8c0-.3-.2-.6-.6-.7c-.4-.2-.9-.3-1.6-.3c-.7 0-1.3.1-1.7.3c-.4.1-.6.4-.6.7c0 .3.2.6.6.8c.4.1 1 .2 1.7.2z" stroke="none" fill="#fff"/></g><g id="Polygon42409"><path d="m3.1 55.2v1h-1v-1h1zm12.9.2h-3.7v1.7h2.7v3.1h-.8v-2.4H8.6v-.7h2.8v-1.7H7.7v-.7s6.18.04 6.2 0c.1-.5.2-1 .2-1.4v-1.1c.03-.05-5.3 0-5.3 0v-.7h6.2s-.05.64 0 .6c0 .4-.1.8-.1 1.2c0 .4-.1.9-.2 1.4c.03.04 1.3 0 1.3 0v.7zm7.6-4.3h.8v5h-.8v-5zm-1.1 3.8l.1.7c-.4 0-.8.1-1.1.1c-.4.1-.7.1-1.1.1c-.4 0-.7.1-1.1.1h-1.2c.02-.02-.7 0-.7 0v-2.6h3.3v-1.1h-3.3v-.7h4.1v2.5h-3.3v1.2h1.1c.4 0 .8 0 1.1-.1h1c.4-.1.7-.1 1.1-.2zm1.1 2.7v-1.1h.8v3.6h-5.9v-3.6h.8v1.1h4.3zm0 1.8v-1.1h-4.3v1.1h4.3zm10-8.4v6.8h-.8V51h.8zm-2 4.6l-.4.7c-.6-.2-1-.5-1.4-.9c-.4-.4-.7-.9-.9-1.4c-.2.6-.5 1-.9 1.5c-.4.4-.9.7-1.4.9l-.4-.6c.3-.2.6-.3.9-.6c.3-.2.5-.4.7-.7c.2-.3.4-.6.5-1c.1-.3.2-.7.2-1c-.03-.02 0-.9 0-.9h.8v.9c0 .3.1.7.2 1c.1.3.2.6.4.9c.2.2.5.5.8.7c.2.2.6.4.9.5zm-3.1 3.7h5.4v.7h-6.2v-2.9h.8v2.2zM41.9 51h.8v9.2h-.8V51zm-3.4.8v1.7c0 .4.1.8.2 1.2c.1.4.3.8.5 1.2c.2.3.5.6.8.9c.3.3.6.5 1 .6l-.5.7c-.6-.2-1-.6-1.5-1.1c-.4-.5-.7-1.1-.9-1.8c-.2.7-.5 1.3-.9 1.9c-.5.5-.9.9-1.5 1.2l-.5-.7c.4-.2.7-.4 1-.7c.3-.2.5-.6.8-.9c.2-.4.4-.8.5-1.2c.1-.5.2-.9.2-1.3c-.02-.02 0-1.7 0-1.7h.8zM49 58.3h3.7v.7h-8.3v-.7h3.8V56h-2.7v-4.2h6.2v.7h-5.4v2.8h5.5v.7H49v2.3zm13.2-3.6v.7h-1.5v4.8h-.9v-9.1h.9v3.6h1.5zm-5.5-2v1.1c0 .4.1.8.2 1.1c.1.4.3.8.5 1.1c.2.3.5.6.7.9c.3.3.6.5 1 .6l-.5.7c-.5-.2-1-.6-1.4-1.1c-.4-.5-.7-1.1-.9-1.7c-.1.3-.2.7-.4 1c-.2.3-.3.6-.5.8c-.2.3-.5.5-.7.7c-.2.2-.5.4-.7.5l-.5-.6c.3-.2.6-.4.9-.7c.3-.3.5-.6.8-1c.2-.3.4-.7.5-1.1c.1-.4.2-.8.2-1.2c-.02.04 0-1.1 0-1.1h-2.1v-.7h4.9v.7h-2zm12.8 2.6s-2.32.04-2.3 0c-.2.3-.5.5-.8.7c-.3.1-.7.2-1.1.2c-.3 0-.6 0-.9-.2c-.3-.1-.6-.2-.8-.4c-.2-.2-.4-.5-.5-.8c-.1-.2-.2-.5-.2-.9c0-.3.1-.6.2-.9c.1-.3.3-.5.5-.7c.2-.2.5-.4.8-.5c.3-.1.6-.2.9-.2c.4 0 .7.1 1.1.3c.3.1.5.3.8.6c-.03-.02 2.3 0 2.3 0v-1.4h.8v6.7h-.8v-2.5zm-5.8-1.4c0 .2.1.5.2.6c0 .2.1.4.3.5c.1.2.3.3.5.4c.2 0 .4.1.6.1c.2 0 .4-.1.6-.1c.2-.1.4-.2.5-.4c.1-.1.3-.3.3-.5c.1-.1.2-.4.2-.6c0-.2-.1-.4-.2-.6c0-.2-.2-.4-.3-.5c-.1-.1-.3-.2-.5-.3c-.2-.1-.4-.1-.6-.1c-.2 0-.4 0-.6.1c-.2.1-.4.2-.5.3c-.2.1-.3.3-.3.5c-.1.2-.2.4-.2.6zm5.8-.7s-1.98-.05-2 0c.1.2.1.4.1.7c0 .3 0 .5-.1.8c.02-.03 2 0 2 0v-1.5zm-4.2 6.1h5.3v.7h-6.1v-2.9h.8v2.2zm14.5-7.2v.6h-7.4v-.6h3.3V51h.8v1.1h3.3zm-6.7 2.7c0-.5.3-.9.8-1.2c.5-.2 1.3-.4 2.2-.4c1 0 1.7.2 2.2.4c.5.3.8.7.8 1.2c0 .4-.3.8-.8 1.1c-.5.2-1.2.4-2.2.4c-.9 0-1.7-.2-2.2-.4c-.5-.3-.8-.7-.8-1.1zm5.1 0c0-.3-.2-.5-.5-.7c-.4-.1-.9-.2-1.6-.2c-.7 0-1.2.1-1.5.2c-.4.2-.6.4-.6.7c0 .2.2.5.6.6c.3.2.8.2 1.5.2c.7 0 1.2 0 1.6-.2c.3-.1.5-.4.5-.6zm2.1 2.1v.7h-2.2v2.6h-.8v-2.6H75v2.6h-.9v-2.6H72v-.7h8.3zm9.3-3.8h-1.3v1.3h1.3v.6h-1.3v1.5h-.9v-5.4h.9v1.3h1.3v.7zm-3.5.6c0 .4-.1.6-.2.9c-.1.3-.3.5-.5.7c-.2.2-.4.3-.7.4c-.3.1-.6.2-1 .2c-.3 0-.6-.1-.9-.2c-.3-.1-.6-.2-.8-.4c-.2-.2-.4-.4-.5-.7c-.1-.3-.2-.5-.2-.9c0-.3.1-.6.2-.8c.1-.3.3-.5.5-.7c.2-.2.5-.3.8-.5c.3-.1.6-.1.9-.1c.4 0 .7 0 1 .1c.3.2.5.3.7.5c.2.2.4.4.5.7c.1.2.2.5.2.8zm-3.9 0c0 .2 0 .4.1.6c0 .2.2.4.3.5c.1.1.3.2.5.3c.2.1.4.1.6.1c.2 0 .5 0 .6-.1c.2-.1.4-.2.5-.3c.2-.1.3-.3.4-.5c.1-.2.1-.4.1-.6c0-.2 0-.4-.1-.6c-.1-.1-.2-.3-.4-.4c-.1-.1-.3-.2-.5-.3c-.1-.1-.4-.1-.6-.1c-.2 0-.4 0-.6.1c-.2.1-.4.2-.5.3c-.1.1-.3.3-.3.4c-.1.2-.1.4-.1.6zm3.2 3.1c.4 0 .8 0 1.2.1c.4 0 .7.2 1 .3c.2.1.4.3.6.5c.1.2.2.5.2.8c0 .2-.1.5-.2.7c-.2.2-.4.4-.6.5c-.3.2-.6.3-1 .4c-.4 0-.8.1-1.2.1c-.5 0-.9-.1-1.3-.1c-.4-.1-.7-.2-1-.4c-.2-.1-.4-.3-.6-.5c-.1-.2-.2-.5-.2-.7c0-.3.1-.6.2-.8c.2-.2.4-.4.6-.5c.3-.1.6-.3 1-.3c.4-.1.8-.1 1.3-.1zm0 2.7c.6 0 1.2-.1 1.5-.3c.4-.2.6-.4.6-.7c0-.4-.2-.6-.6-.8c-.3-.2-.9-.3-1.5-.3c-.7 0-1.3.1-1.6.3c-.4.2-.6.4-.6.8c0 .3.2.5.6.7c.3.2.9.3 1.6.3zM97 51.1h.8v5.4h-.8v-5.4zm-1.1 4l.1.6c-.4.1-.7.1-1.1.2c-.3 0-.7 0-1.1.1h-2.2c-.05.03-.8 0-.8 0v-2.6h3.3v-1.1h-3.3v-.7h4.2v2.5h-3.4s.04 1.24 0 1.2h2.2c.4 0 .7-.1 1.1-.1c.3 0 .6-.1 1-.1zm-4 5V57h5.9v3.1h-5.9zm.8-2.5v1.8h4.3v-1.8h-4.3zm17.4-2.9v.7h-1.5v4.8h-.8v-9.1h.8v3.6h1.5zm-6.1-3c.4 0 .7.1 1 .3c.2.1.5.3.7.6c.2.3.4.6.5 1c.1.4.1.8.1 1.3c0 .5 0 1-.1 1.4c-.1.3-.3.7-.5 1c-.2.2-.5.5-.7.6c-.3.2-.6.2-1 .2c-.3 0-.6 0-.9-.2c-.3-.1-.5-.4-.7-.6c-.2-.3-.4-.7-.5-1c-.1-.4-.2-.9-.2-1.4c0-.5.1-.9.2-1.3c.1-.4.3-.7.5-1c.2-.3.4-.5.7-.6c.3-.2.6-.3.9-.3zm0 5.7c.3 0 .5-.1.6-.2c.2-.1.4-.3.5-.5c.1-.2.3-.5.3-.8c.1-.3.1-.6.1-1c0-.3 0-.7-.1-1c0-.3-.2-.5-.3-.7c-.1-.2-.3-.4-.5-.5c-.1-.1-.3-.2-.6-.2c-.2 0-.4.1-.6.2c-.2.1-.3.3-.4.5c-.2.2-.3.4-.4.7c0 .3-.1.7-.1 1c0 .4.1.7.1 1c.1.3.2.6.4.8c.1.2.2.4.4.5c.2.1.4.2.6.2zm13.4-6.4h.9v9.2h-.9V51zm-4 .7c.4 0 .7.1 1 .3c.3.1.5.3.7.6c.2.3.4.6.5 1c.1.4.2.8.2 1.3c0 .5-.1 1-.2 1.4c-.1.3-.3.7-.5 1c-.2.2-.4.5-.7.6c-.3.2-.6.2-1 .2c-.3 0-.6 0-.9-.2c-.3-.1-.5-.4-.7-.6c-.2-.3-.4-.7-.5-1c-.1-.4-.2-.9-.2-1.4c0-.5.1-.9.2-1.3c.1-.4.3-.7.5-1c.2-.3.4-.5.7-.6c.3-.2.6-.3.9-.3zm0 .8c-.2 0-.4.1-.6.2c-.2.1-.3.3-.5.5c-.1.2-.2.4-.3.7c0 .3-.1.7-.1 1c0 .4.1.7.1 1c.1.3.2.6.3.8c.2.2.3.4.5.5c.2.1.4.2.6.2c.3 0 .5-.1.7-.2c.1-.1.3-.3.4-.5c.2-.2.3-.5.4-.8c0-.3.1-.6.1-1c0-.3-.1-.7-.1-1c-.1-.3-.2-.5-.4-.7c-.1-.2-.3-.4-.4-.5c-.2-.1-.4-.2-.7-.2zm11.1 5.8h3.8v.7H120v-.7h3.7s-.03-1.88 0-1.9c-.5 0-.8-.1-1.2-.2c-.4-.1-.7-.3-.9-.5c-.3-.2-.5-.5-.6-.7c-.2-.3-.2-.6-.2-1c0-.3.1-.7.2-1c.2-.2.4-.5.7-.7c.3-.2.7-.4 1.1-.5c.4-.1.8-.2 1.3-.2c.5 0 .9.1 1.3.2c.4.1.8.3 1.1.5c.3.2.5.5.7.7c.1.3.2.7.2 1c0 .4-.1.7-.2 1c-.1.2-.3.5-.6.7c-.2.2-.6.4-.9.5c-.4.1-.8.2-1.2.2c.02.02 0 1.9 0 1.9zm-2.9-4.3c0 .3 0 .5.2.8c.1.2.3.3.5.5c.2.2.5.3.8.4c.3 0 .6.1 1 .1c.4 0 .7-.1 1-.1c.3-.1.6-.2.8-.4c.2-.2.4-.3.5-.5c.2-.3.2-.5.2-.8c0-.2 0-.5-.2-.7c-.1-.2-.3-.4-.5-.5c-.2-.2-.5-.3-.8-.4c-.3-.1-.6-.1-1-.1c-.4 0-.7 0-1 .1c-.3.1-.6.2-.8.4c-.2.1-.4.3-.5.5c-.2.2-.2.5-.2.7zm14.2-2.9h.8v5.2h-.8v-5.2zm-1 3.4l.1.7l-2.3.3c-.7.1-1.4.1-2.2.1h-.7v-4h.8s.04 3.31 0 3.3c.7 0 1.4 0 2.1-.1c.7 0 1.5-.2 2.2-.3zm-4.3 3v-.7h6.1v3.4h-.8v-2.7h-5.3zm14.5.9h3.7v.6h-8.3v-.6h3.7v-2.1h-2.9v-.7h1.4v-3h-1.5v-.7h6.8v.7h-1.4v3h1.4v.7H145v2.1zm-1.6-5.8v3h2.3v-3h-2.3zm13.1-1.6h.9v9.2h-.9V51zm-1.8 3.3v-3h.8v8.4h-.8V55h-1.1v-.7h1.1zm-4 .9v2h1.5c.5 0 1.1-.1 1.7-.2l.1.7c-.7.1-1.3.2-1.8.2h-1.7c-.01.05-.6 0-.6 0v-3.3h2.4v-1.9h-2.4v-.6h3.2v3.1h-2.4zm15.9.4l-.3.7c-.4 0-.7-.2-1.1-.3l-.9-.6c-.3-.2-.6-.5-.9-.8c-.2-.3-.4-.6-.5-.9l-.6.9c-.2.3-.5.6-.8.8c-.3.2-.6.4-1 .6c-.3.1-.7.3-1 .3l-.4-.7c.4 0 .8-.2 1.2-.4c.4-.2.8-.4 1.1-.7c.3-.3.5-.6.7-1c.2-.3.3-.7.3-1.1c.03-.01 0-.7 0-.7h.9v.7c0 .4.1.7.3 1.1c.2.4.5.7.8 1c.3.3.7.5 1 .7c.4.2.8.4 1.2.4zm-7.8 2.7h8.3v.7h-8.3v-.7zm16.5-2.3v.7H169v-4.9h6.2v.7h-5.4v1.4h5.2v.6h-5.2v1.5h5.5zm-7.4 2.3h8.3v.7h-8.3v-.7zm12.1-1.9l-.4-.6c.4-.1.8-.2 1.2-.4c.4-.2.7-.4 1-.7c.4-.3.6-.6.8-.9c.2-.3.3-.7.3-1c.02-.05 0-.2 0-.2h-3v-.7h6.9v.7h-3s-.02.15 0 .2c0 .3.1.7.3 1c.2.3.4.6.8.9c.3.3.6.5 1 .7c.4.1.8.3 1.2.3l-.3.7l-1.1-.3c-.3-.2-.6-.3-.9-.6c-.3-.2-.6-.4-.9-.7c-.2-.2-.4-.5-.5-.8l-.6.9c-.3.2-.5.5-.8.7c-.4.2-.7.4-1 .5c-.4.2-.7.3-1 .3zm3.8 1.9h3.7v.7h-8.3v-.7h3.7v-2.2h.9v2.2zm11.3-1.8v-2.8h-2v-.7h2v-1.9h.8v5.4h-.8zm-1.4-1.1l-.4.6c-.5-.2-1-.4-1.3-.8c-.4-.3-.7-.7-.9-1.2c-.2.5-.5 1-.9 1.4c-.4.4-.8.7-1.4.9l-.4-.7c.3-.1.6-.3.9-.5c.3-.2.6-.4.8-.7c.2-.3.3-.6.4-.9c.1-.3.2-.7.2-1c-.01 0 0-.9 0-.9h.8s.02.87 0 .9c0 .3.1.6.2.9c.1.3.2.6.4.8c.2.3.5.5.7.7c.3.2.6.4.9.5zm-.8 1.3c.5 0 .9.1 1.3.1c.3.1.7.2.9.4c.3.1.5.3.6.5c.2.2.2.5.2.8c0 .2 0 .5-.2.7c-.1.2-.3.4-.6.5c-.2.2-.6.3-.9.4c-.4 0-.8.1-1.3.1c-.5 0-.9-.1-1.3-.1c-.3-.1-.7-.2-.9-.4c-.3-.1-.5-.3-.6-.5c-.2-.2-.2-.5-.2-.7c0-.3 0-.6.2-.8c.1-.2.3-.4.6-.5c.2-.2.6-.3.9-.4c.4 0 .8-.1 1.3-.1zm0 2.8c.7 0 1.2-.1 1.6-.3c.4-.2.6-.4.6-.7c0-.4-.2-.7-.6-.8c-.4-.2-.9-.3-1.6-.3c-.7 0-1.2.1-1.6.3c-.4.1-.6.4-.6.8c0 .3.2.5.6.7c.4.2.9.3 1.6.3z" stroke="none" fill="#fff"/></g><g id="Polygon42408"><path d="m2.6 40.1h3v.8H.5v-.6s2.62-2.5 2.6-2.5l.6-.6c.1-.2.3-.4.4-.6c.1-.1.2-.3.3-.5c0-.2.1-.4.1-.7c0-.4-.2-.7-.4-.9c-.3-.3-.6-.4-1-.4c-.2 0-.4.1-.6.1c-.2.1-.3.2-.5.3c-.1.2-.2.3-.3.5c-.1.2-.1.4-.1.6l-.9-.2c0-.3.1-.6.3-.9c.1-.2.3-.4.5-.6c.2-.2.5-.3.8-.4c.2-.1.5-.2.9-.2c.3 0 .6.1.8.2c.3.1.6.2.8.4c.2.2.3.4.4.6c.2.3.2.6.2.9c0 .3 0 .6-.1.8c-.1.2-.2.5-.3.7c-.2.2-.4.4-.5.6c-.2.2-.4.5-.6.7l-2.1 2c.1 0 .3 0 .4-.1h.4zm9.1-2.9c0 .7-.1 1.2-.2 1.7c-.2.5-.4.9-.6 1.2c-.3.4-.6.6-.9.7c-.3.2-.7.3-1.1.3c-.4 0-.7-.1-1-.3c-.4-.1-.7-.3-.9-.7c-.3-.3-.5-.7-.6-1.2c-.1-.5-.2-1-.2-1.7c0-.7.1-1.2.2-1.7c.1-.5.3-.9.6-1.2c.2-.3.5-.6.9-.7c.3-.2.6-.3 1-.3c.4 0 .8.1 1.1.3c.3.1.6.4.9.7c.2.3.4.7.6 1.2c.1.5.2 1 .2 1.7zm-1 0c0-.6 0-1.1-.1-1.5c-.1-.4-.2-.7-.4-.9c-.2-.3-.4-.4-.6-.5c-.2-.1-.4-.2-.7-.2c-.2 0-.4.1-.6.2c-.3.1-.5.2-.6.5c-.2.2-.3.5-.4.9c-.1.4-.2.9-.2 1.5c0 .6.1 1.1.2 1.5c.1.4.2.7.4.9c.1.3.3.5.6.6c.2.1.4.1.6.1c.3 0 .5 0 .7-.1c.2-.1.4-.3.6-.6c.2-.2.3-.5.4-.9c.1-.4.1-.9.1-1.5zm3.7 2.9h2.9v.8h-5v-.6s2.57-2.5 2.6-2.5c.2-.2.4-.4.5-.6c.2-.2.3-.4.4-.6c.2-.1.3-.3.3-.5c.1-.2.1-.4.1-.7c0-.4-.1-.7-.4-.9c-.2-.3-.6-.4-.9-.4c-.3 0-.5.1-.6.1c-.2.1-.4.2-.5.3c-.1.2-.3.3-.3.5c-.1.2-.1.4-.1.6l-1-.2l.3-.9l.6-.6c.2-.2.4-.3.7-.4c.3-.1.6-.2.9-.2c.3 0 .6.1.9.2c.3.1.5.2.7.4c.2.2.4.4.5.6c.1.3.2.6.2.9c0 .3-.1.6-.2.8c0 .2-.1.5-.3.7c-.1.2-.3.4-.5.6c-.2.2-.4.5-.6.7l-2.1 2c.2 0 .3 0 .4-.1h.5zm7.1.1h1.5v.7h-4v-.7h1.6v-5.7c.02.04-1.3 1.3-1.3 1.3l-.5-.6l2-1.8h.7v6.8z" stroke="none" fill="#fff"/></g><g id="Polygon42407"><path d="m1.6 6l-.4-1c.5-.1.9-.2 1.4-.4c.4-.2.8-.4 1.1-.6c.4-.3.6-.5.8-.8c.2-.3.3-.6.3-.9c.01-.04-3.3 0-3.3 0v-1h8v1s-3.28-.04-3.3 0c0 .3.1.6.3.9c.2.3.5.5.8.8c.3.2.7.4 1.1.6c.5.2 1 .3 1.5.4l-.5 1c-.9-.2-1.7-.5-2.3-.9c-.7-.4-1.2-.9-1.6-1.5c-.3.6-.8 1.1-1.5 1.5c-.7.4-1.5.7-2.4.9zm8.8.7v1H6.1v3.8H4.9V7.7H.6v-1h9.8zm8.7 2.4h2.3v1.1h-9.8V9.1h2.3s-.02-2.78 0-2.8c-.4-.2-.8-.5-1-.9c-.3-.4-.4-.8-.4-1.3c0-.4.1-.8.3-1.2c.2-.3.5-.6.8-.9c.4-.2.8-.4 1.3-.5c.5-.2 1-.2 1.6-.2c.6 0 1.1 0 1.6.2c.5.1.9.3 1.2.5c.4.3.7.6.9.9c.2.4.3.8.3 1.2c0 .5-.2.9-.4 1.3c-.2.4-.6.7-1 .9v2.8zm-2.6-6.9c-.4 0-.8.1-1.1.2c-.4.1-.7.2-.9.3c-.3.2-.5.4-.6.6c-.1.3-.2.5-.2.8c0 .3.1.6.2.8c.1.2.3.4.6.6c.2.1.5.3.9.3c.3.1.7.2 1.1.2c.4 0 .8-.1 1.1-.2c.3 0 .6-.2.9-.3l.6-.6c.1-.2.2-.5.2-.8c0-.3-.1-.5-.2-.8l-.6-.6l-.9-.3c-.3-.1-.7-.2-1.1-.2zm0 4.7c-.5 0-1 0-1.4-.1c.02-.01 0 2.3 0 2.3h2.8s-.04-2.32 0-2.3c-.3 0-.5.1-.7.1h-.7zm12.4-5.5v.9h-6.1v-.9h2.4v-.9h1.3v.9h2.4zm2.2 1.9h1.4v1h-1.4v2.7h-1.3V.6h1.3v2.7zm-1.9 2.4l.1.7c-.5.1-1.1.2-1.7.3c-.6 0-1.2.1-1.8.1h-1.7c-.5.1-1 .1-1.5.1c.01-.05-.1-.9-.1-.9c0 0 1.28-.02 1.3 0h1.4v-.7c-.6 0-1.1-.2-1.4-.4c-.4-.2-.5-.6-.5-1c0-.4.2-.8.7-1c.4-.2 1-.4 1.8-.4c.8 0 1.5.2 1.9.4c.5.2.7.6.7 1c0 .4-.1.8-.5 1c-.3.2-.8.4-1.4.4v.6c.5 0 .9 0 1.4-.1c.5 0 .9-.1 1.3-.1zm-4.8-1.8c0 .3.2.4.4.5c.3.1.6.2 1 .2c.5 0 .8-.1 1.1-.2c.2-.1.4-.2.4-.5c0-.2-.2-.3-.4-.4c-.3-.1-.6-.2-1.1-.2c-.4 0-.7.1-1 .2c-.2.1-.4.2-.4.4zm.8 5.9v.7h6.3v.9h-7.6V9h5.9v-.7h-5.9v-.8h7.2v2.3h-5.9zm13.9-3.9h4.3v1h-9.8v-1h4.2V4.8h-3V1.1h7.4v1H36v1.7h6.2v1h-3.1v1.1zm-.7 1.6c1.2 0 2.1.2 2.8.6c.6.3 1 .8 1 1.4c0 .6-.4 1.1-1 1.5c-.7.3-1.6.5-2.8.5c-.6 0-1.1 0-1.5-.1c-.5-.1-.9-.3-1.2-.4c-.3-.2-.6-.4-.8-.6c-.1-.3-.2-.6-.2-.9c0-.3.1-.6.2-.8c.2-.3.5-.5.8-.6c.3-.2.7-.3 1.2-.4c.4-.1.9-.2 1.5-.2zm0 3c.8 0 1.4 0 1.9-.2c.4-.2.6-.4.6-.8c0-.3-.2-.6-.6-.7c-.5-.2-1.1-.3-1.9-.3c-.8 0-1.4.1-1.8.3c-.4.1-.6.4-.6.7c0 .4.2.6.6.8c.4.2 1 .2 1.8.2zm11.8 1.4l-.8.4c-.6-.9-1-1.9-1.3-2.9c-.3-1-.5-2.1-.5-3.2c0-1.2.2-2.3.5-3.3c.3-1 .7-2 1.3-2.9l.8.4c-.5.9-.9 1.8-1.1 2.8c-.2.9-.4 1.9-.4 3c0 1 .2 2 .4 3c.2.9.6 1.8 1.1 2.7zM59 .6h1.3v10.9H59V.6zm-6.7 6.2l-.6-1c.8-.2 1.5-.6 1.9-1.1c.4-.5.7-1.1.7-1.7H52v-1h2.3V.7h1.3v1.3h2.3v1h-2.3c0 .6.2 1.2.7 1.7c.5.4 1.1.8 1.9 1l-.6 1c-.6-.2-1.2-.5-1.6-.8c-.5-.4-.8-.8-1.1-1.3c-.2.5-.5.9-1 1.3c-.4.4-1 .7-1.6.9zm3.3-.4s-.04 1.84 0 1.8c.4 0 .9 0 1.4-.1c.4 0 .9-.1 1.4-.1l.1.9c-.6.1-1.2.2-1.9.3c-.6 0-1.2.1-1.8.1h-1.7c-.5.1-1.1.1-1.5.1l-.2-1.1h2.9c.02 0 0-1.9 0-1.9h1.3zm15.1-.9c-.02.04 1.5 0 1.5 0v1.1h-9.9V5.5s7.13.04 7.1 0c.2-.6.2-1.2.3-1.8V2.3c.02-.04-6.1 0-6.1 0v-1h7.3s.04.85 0 .8v1.6c0 .5-.1 1.1-.2 1.8zm-5.9 2.1v2.7h6.5v1h-7.7V7.6h1.2zm8.5.7l1.1-.5c0 .3.1.5.2.7c.1.2.3.4.5.5c.1.2.3.3.5.4c.3.1.5.1.7.1c.2 0 .4 0 .6-.1c.2 0 .4-.1.6-.3c.1-.1.3-.3.3-.5c.1-.1.2-.4.2-.6c0-.3-.1-.6-.2-.8c-.1-.2-.3-.3-.5-.4c-.2-.1-.4-.2-.7-.2c-.2-.1-.5-.1-.8-.1v-1h.8c.2-.1.4-.1.6-.2c.2-.1.3-.3.5-.5c.1-.2.1-.4.1-.7c0-.4-.1-.8-.3-1c-.3-.3-.6-.4-1.1-.4c-.2 0-.4.1-.6.2c-.2 0-.4.1-.5.3c-.2.1-.3.3-.4.5c-.1.2-.1.4-.1.7l-1.3-.3c.1-.8.5-1.4 1-1.8c.5-.5 1.2-.7 2-.7c.3 0 .6 0 1 .1c.3.1.6.3.8.5c.2.2.4.4.6.7c.1.3.2.6.2 1c0 .5-.1.9-.3 1.2c-.3.4-.6.6-1.1.8c.5.1.9.4 1.2.7c.3.4.4.8.4 1.4c0 .4-.1.8-.2 1.1c-.2.3-.4.6-.7.9c-.3.2-.6.4-.9.5c-.4.1-.8.2-1.2.2c-.8 0-1.5-.2-1.9-.6c-.5-.4-.9-1-1.1-1.8zm14.9.4V5h-2.9v-1h2.9v-1h-2.9v-1h2.9V.6h1.2v8.1h-1.2zm-1.7-3l.1 1.1l-2.4.3h-2.3c-.04.03-.9 0-.9 0V1.4h1.3s-.04 4.71 0 4.7c.7 0 1.4 0 2-.1c.7 0 1.4-.1 2.2-.3zm-2.9 4.6h6.1v1h-7.3V7.9h1.2v2.4zm8.6 2l-.9-.4c.5-.9.9-1.8 1.2-2.7c.2-1 .3-2 .3-3c0-1.1-.1-2.1-.3-3c-.3-1-.7-1.9-1.2-2.8l.9-.4c.6.9 1 1.9 1.3 2.9c.3 1 .5 2.1.5 3.3c0 1.1-.2 2.2-.5 3.2c-.3 1-.7 2-1.3 2.9z" stroke="none" fill="#fff"/></g></svg>