<?xml version="1.0" standalone="no"?><!DOCTYPE svg PUBLIC "-//W3C//DTD SVG 1.1//EN" "http://www.w3.org/Graphics/SVG/1.1/DTD/svg11.dtd"><svg xmlns="http://www.w3.org/2000/svg" version="1.1" width="204px" height="76.1px" viewBox="0 -7 204 76.1" style="top:-7px"><desc>114,558</desc><defs/><g id="Polygon33679"><path d="m13.9 15.4v-1.2c0-.05-6 5-6 5l-3.1-3.7L14.9 7h4.5v32.2h6.9v4.8H6.2v-4.8h7.7V15.4s-.05 0 0 0zm28.2 0c0-.4.1-.8.1-1.2c0-.05-6 5-6 5l-3.1-3.7l10-8.5h4.5v32.2h7v4.8H34.4v-4.8h7.7V15.4s.05 0 0 0zm43.4 15v4.3h-5.1v9.3h-4.8v-9.3H57.5v-4L75.2 7h5.2v23.4h5.1zm-22.1 0h12.2V16.9c0-.6 0-1.2.1-1.7c0-.6.1-1.2.1-1.9c.05 0-12.4 17.1-12.4 17.1zm22.5 17.7l1.9-10.4h5.9l-3.2 10.4h-4.6zM99 41.8c-.7-.5-1.4-1-2-1.5l2.8-4c1.1 1 2.3 1.8 3.7 2.4c1.4.7 2.9 1 4.4 1c1.2 0 2.3-.2 3.2-.6c1-.4 1.8-1 2.5-1.7c.6-.7 1.1-1.6 1.5-2.6c.3-1 .5-2 .5-3.1c0-2.3-.7-4.1-2-5.2c-1.4-1.2-3.2-1.8-5.5-1.8c-1 0-1.9.1-2.9.3c-.9.2-1.9.4-2.8.7c0-.05-3.4-1-3.4-1l3-17.6h17.9v5h-14.1s-1.45 8.6-1.5 8.6c1.7-.4 3.3-.5 4.9-.5c1.7 0 3.3.2 4.7.7c1.5.5 2.7 1.2 3.8 2.1c1.1 1 1.9 2.1 2.5 3.5c.6 1.4.9 3 .9 4.9c0 1.9-.3 3.7-1 5.3c-.7 1.6-1.6 3-2.8 4.1c-1.2 1.1-2.6 2-4.3 2.7c-1.7.6-3.5.9-5.5.9c-1.4 0-2.9-.2-4.4-.6c-1.5-.5-2.9-1.1-4.1-2zm28.3 0c-.7-.5-1.4-1-2-1.5l2.8-4c1.1 1 2.3 1.8 3.7 2.4c1.4.7 2.9 1 4.4 1c1.2 0 2.3-.2 3.2-.6c1-.4 1.8-1 2.5-1.7c.6-.7 1.1-1.6 1.5-2.6c.3-1 .5-2 .5-3.1c0-2.3-.7-4.1-2-5.2c-1.4-1.2-3.2-1.8-5.5-1.8c-1 0-1.9.1-2.9.3c-.9.2-1.9.4-2.8.7c0-.05-3.4-1-3.4-1l3-17.6h17.9v5h-14.1s-1.45 8.6-1.5 8.6c1.7-.4 3.3-.5 4.9-.5c1.7 0 3.3.2 4.7.7c1.5.5 2.7 1.2 3.8 2.1c1.1 1 1.9 2.1 2.5 3.5c.6 1.4.9 3 .9 4.9c0 1.9-.3 3.7-1 5.3c-.7 1.6-1.6 3-2.8 4.1c-1.2 1.1-2.6 2-4.3 2.7c-1.7.6-3.5.9-5.5.9c-1.4 0-2.9-.2-4.4-.6c-1.5-.5-2.9-1.1-4.1-2zm44.2-17.1c2.2.7 3.9 1.8 5 3.3c1.2 1.5 1.8 3.4 1.8 5.7c0 1.8-.4 3.4-1.1 4.8c-.7 1.3-1.6 2.4-2.8 3.3c-1.2.9-2.5 1.5-4 2c-1.5.4-3.1.6-4.8.6c-1.7 0-3.3-.2-4.8-.6c-1.5-.5-2.9-1.1-4-2c-1.2-.9-2.1-2.1-2.8-3.4c-.7-1.3-1-2.9-1-4.7c0-2.3.6-4.2 1.8-5.7c1.2-1.5 2.8-2.6 5-3.3c-1.8-.7-3.2-1.8-4.2-3.2c-.9-1.4-1.4-3.1-1.4-5c0-1.6.4-3 1-4.2c.6-1.2 1.5-2.3 2.5-3.1c1.1-.8 2.3-1.5 3.7-1.9c1.4-.4 2.8-.6 4.2-.6c1.5 0 2.9.2 4.3.6c1.4.4 2.6 1.1 3.7 1.9c1 .8 1.9 1.9 2.5 3.1c.6 1.2.9 2.6.9 4.2c0 1.9-.4 3.6-1.4 5c-.9 1.4-2.3 2.5-4.1 3.2zm-5.9-13.8c-1.8 0-3.2.5-4.3 1.5c-1.1 1-1.7 2.4-1.7 4.2c0 1.9.5 3.4 1.6 4.5c1.1 1 2.5 1.6 4.4 1.6c1.9 0 3.4-.6 4.5-1.6c1.1-1.1 1.6-2.6 1.6-4.5c0-1.9-.6-3.3-1.8-4.3c-1.1-1-2.6-1.4-4.3-1.4zm0 29.2c1 0 1.9-.2 2.8-.4c.8-.3 1.6-.7 2.2-1.3c.6-.5 1.1-1.2 1.5-2c.4-.8.5-1.7.5-2.8c0-2.2-.6-3.8-2-4.9c-1.3-1.1-3-1.6-5-1.6c-2 0-3.6.5-5 1.6c-1.3 1.1-2 2.7-2 4.9c0 2 .7 3.6 2 4.8c1.3 1.1 3 1.7 5 1.7z" stroke="none" fill="#fff"/></g></svg>