<?xml version="1.0" standalone="no"?><!DOCTYPE svg PUBLIC "-//W3C//DTD SVG 1.1//EN" "http://www.w3.org/Graphics/SVG/1.1/DTD/svg11.dtd"><svg xmlns="http://www.w3.org/2000/svg" version="1.1" width="246px" height="31px" viewBox="0 -4 246 31" style="top:-4px"><desc>기아</desc><defs/><g id="Polygon34908"><path d="m12.9 1h2.5v20.1h-2.5V1zm-3.5.9c0 3.5-.9 6.5-2.6 9c-1.5 2.3-3.6 4.3-6.2 5.9l-1.7-1.7c2.5-1.5 4.3-3.2 5.7-5.3C5.9 8 6.5 6.1 6.7 4.1c-.04.04-6.7 0-6.7 0V1.9h9.4zm20.2 5.9c0 .8-.2 1.6-.5 2.2c-.3.7-.7 1.3-1.3 1.8c-.5.6-1.1 1-1.8 1.3c-.8.3-1.5.4-2.3.4c-.9 0-1.6-.1-2.3-.4c-.8-.3-1.4-.7-1.9-1.3c-.6-.5-1-1.1-1.3-1.8c-.3-.6-.5-1.4-.5-2.2c0-.7.2-1.5.5-2.2c.3-.6.7-1.2 1.3-1.8c.5-.5 1.1-.9 1.9-1.2c.7-.3 1.4-.4 2.3-.4c.8 0 1.5.1 2.3.4c.7.3 1.3.7 1.8 1.2c.6.6 1 1.2 1.3 1.8c.3.7.5 1.5.5 2.2zm-2.5 0c0-.4-.1-.9-.3-1.3c-.2-.4-.4-.8-.7-1.1c-.3-.3-.7-.5-1.1-.7c-.4-.2-.9-.3-1.3-.3c-.5 0-1 .1-1.4.3c-.4.2-.8.4-1.1.7c-.3.3-.5.7-.7 1.1c-.2.4-.3.9-.3 1.3c0 .5.1 1 .3 1.4c.2.4.4.8.7 1.1c.3.3.7.5 1.1.7c.4.2.9.3 1.4.3c.4 0 .9-.1 1.3-.3c.4-.2.8-.4 1.1-.7c.3-.3.5-.7.7-1.1c.2-.4.3-.9.3-1.4zM33.9 1v5.6h2.8v2.4h-2.8v12.1h-2.4V1h2.4z" stroke="none" fill="#111111"/></g></svg>