<?xml version="1.0" standalone="no"?><!DOCTYPE svg PUBLIC "-//W3C//DTD SVG 1.1//EN" "http://www.w3.org/Graphics/SVG/1.1/DTD/svg11.dtd"><svg xmlns="http://www.w3.org/2000/svg" version="1.1" width="94px" height="26.3px" viewBox="0 -2 94 26.3" style="top:-2px"><desc>HYUNDAI MOTOR GROUP</desc><defs/><g id="Polygon40314"><path d="m.6.8h.6v2.1h2.8V.8h.6v4.8h-.6V3.5H1.2v2.1h-.6V.8zm6.5 2.8L5.3.9v-.1h.7l1.4 2.1L8.8.8h.8v.1L7.7 3.6v2h-.6v-2zm3.1 0c-.03 0 0-2.8 0-2.8h.6v2.7c0 1 .4 1.6 1.3 1.6c.9 0 1.3-.6 1.3-1.6c.02.04 0-2.7 0-2.7h.7s-.04 2.8 0 2.8c0 1.2-.7 2.1-2 2.1c-1.2 0-1.9-.9-1.9-2.1zm5-2.8h.6l2.9 3.7V.8h.6v4.8h-.5l-2.9-3.7v3.7h-.7V.8zm5.3 0s1.86.04 1.9 0c1.3 0 2.3.9 2.3 2.4c0 1.6-1 2.4-2.3 2.4h-1.9V.8zm.7.6v3.6s1.12.03 1.1 0c1 0 1.7-.6 1.7-1.8c0-1.2-.7-1.8-1.7-1.8c.02.01-1.1 0-1.1 0zm5.6-.6h.8l1.9 4.8h-.7l-.5-1.1H26l-.4 1.1h-.7L26.8.8zm-.5 3.1h1.8l-.9-2.3l-.9 2.3zM30.1.8h.7v4.8h-.7V.8zm3.5 0h.9l1.7 4l1.7-4h.8v4.8h-.6V1.8l-1.6 3.8h-.6l-1.6-3.8v3.8h-.7V.8zm6 2.4c0-1.4 1-2.4 2.4-2.4c1.4 0 2.4 1 2.4 2.4c0 1.4-1 2.5-2.4 2.5c-1.4 0-2.4-1.1-2.4-2.5zm4.1 0c0-1-.7-1.8-1.7-1.8c-1 0-1.7.8-1.7 1.8c0 1.1.7 1.9 1.7 1.9c1 0 1.7-.8 1.7-1.9zm2.4-1.8h-1.5v-.6h3.6v.6h-1.5v4.2h-.6V1.4zm2.5 1.8c0-1.4 1.1-2.4 2.4-2.4c1.4 0 2.4 1 2.4 2.4c0 1.4-1 2.5-2.4 2.5c-1.3 0-2.4-1.1-2.4-2.5zm4.2 0c0-1-.7-1.8-1.8-1.8c-1 0-1.7.8-1.7 1.8c0 1.1.7 1.9 1.7 1.9c1.1 0 1.8-.8 1.8-1.9zm3.2.4h-1v2h-.7V.8s1.99.04 2 0c.9 0 1.6.6 1.6 1.4c0 .7-.5 1.2-1.2 1.3l1.7 2.1h-.8l-1.6-2zm.2-.6c.7 0 1-.3 1-.8c0-.5-.3-.8-1-.8H55v1.6h1.2zm4.1.2c0-1.4 1-2.4 2.4-2.4c.9 0 1.7.4 2.1 1.1l-.5.4c-.3-.6-.9-.9-1.6-.9c-1 0-1.7.8-1.7 1.8c0 1.1.7 1.9 1.7 1.9c.6 0 1.1-.2 1.4-.5v-1h-1.2v-.6h1.9s-.04 1.97 0 2c-.5.4-1.3.7-2.1.7c-1.4 0-2.4-1.1-2.4-2.5zm7.1.4h-1v2h-.7V.8s2.02.04 2 0c.9 0 1.6.6 1.6 1.4c0 .7-.5 1.2-1.2 1.3c.04.03 1.7 2.1 1.7 2.1h-.8l-1.6-2zm.3-.6c.6 0 .9-.3.9-.8c0-.5-.3-.8-.9-.8h-1.3v1.6h1.3zm2.4.2c0-1.4 1-2.4 2.4-2.4c1.4 0 2.4 1 2.4 2.4c0 1.4-1 2.5-2.4 2.5c-1.4 0-2.4-1.1-2.4-2.5zm4.1 0c0-1-.7-1.8-1.7-1.8c-1.1 0-1.8.8-1.8 1.8c0 1.1.7 1.9 1.8 1.9c1 0 1.7-.8 1.7-1.9zm1.5.4V.8h.6s.04 2.74 0 2.7c0 1 .5 1.6 1.3 1.6c.9 0 1.3-.6 1.3-1.6c.04.04 0-2.7 0-2.7h.7v2.8c0 1.2-.7 2.1-2 2.1c-1.2 0-1.9-.9-1.9-2.1zm5-2.8s1.86.04 1.9 0c1 0 1.6.5 1.6 1.5c0 .9-.6 1.4-1.6 1.4h-1.2v1.9h-.7V.8zm1.8 2.3c.7 0 1-.3 1-.8c0-.6-.3-.9-1-.9c-.02.01-1.1 0-1.1 0v1.7s1.08.02 1.1 0z" stroke="none" fill="#b4b4b4"/></g></svg>