<?xml version="1.0" standalone="no"?><!DOCTYPE svg PUBLIC "-//W3C//DTD SVG 1.1//EN" "http://www.w3.org/Graphics/SVG/1.1/DTD/svg11.dtd"><svg xmlns="http://www.w3.org/2000/svg" version="1.1" width="162.1px" height="26.3px" viewBox="0 -2 162.1 26.3" style="top:-2px"><desc>Participated Companies</desc><defs/><g id="Polygon40879"><path d="m.6.8s1.82.04 1.8 0c1 0 1.6.5 1.6 1.5c0 .9-.6 1.4-1.6 1.4H1.2v1.9h-.6V.8zm1.7 2.3c.7 0 1.1-.3 1.1-.8c0-.6-.4-.9-1.1-.9c.05.01-1.1 0-1.1 0v1.7s1.15.02 1.1 0zM5.9.8h.7l1.9 4.8h-.6l-.5-1.1H5.1l-.5 1.1h-.6L5.9.8zm-.6 3.1h1.9l-.9-2.3l-1 2.3zm5.6-.3H9.8v2h-.6V.8s1.96.04 2 0c.9 0 1.5.6 1.5 1.4c0 .7-.4 1.2-1.1 1.3c-.01.03 1.6 2.1 1.6 2.1h-.7l-1.6-2zm.2-.6c.6 0 1-.3 1-.8c0-.5-.4-.8-1-.8H9.8v1.6h1.3zm3.6-1.6h-1.5v-.6h3.7v.6h-1.5v4.2h-.7V1.4zm2.9-.6h.7v4.8h-.7V.8zm1.6 2.4c0-1.4 1-2.4 2.3-2.4c1 0 1.8.4 2.2 1.2l-.6.3c-.3-.5-.8-.9-1.6-.9c-1 0-1.7.8-1.7 1.8c0 1.1.7 1.9 1.7 1.9c.8 0 1.3-.4 1.6-1l.6.4c-.4.7-1.2 1.2-2.2 1.2c-1.3 0-2.3-1.1-2.3-2.5zM24.5.8h.6v4.8h-.6V.8zm1.8 0s1.83.04 1.8 0c1 0 1.6.5 1.6 1.5c0 .9-.6 1.4-1.6 1.4h-1.2v1.9h-.6V.8zM28 3.1c.7 0 1.1-.3 1.1-.8c0-.6-.4-.9-1.1-.9c.05.01-1.1 0-1.1 0v1.7s1.15.02 1.1 0zM31.6.8h.7l1.9 4.8h-.6l-.5-1.1h-2.3l-.4 1.1h-.7L31.6.8zM31 3.9h1.9L32 1.6l-1 2.3zm4.5-2.5h-1.6v-.6h3.7v.6h-1.5v4.2h-.6V1.4zm2.8-.6h3.3v.6H39v1.5h2.2v.6H39v1.5h2.6v.6h-3.3V.8zm4.2 0s1.82.04 1.8 0c1.3 0 2.3.9 2.3 2.4c0 1.6-1 2.4-2.3 2.4h-1.8V.8zm.6.6v3.6s1.17.03 1.2 0c1 0 1.7-.6 1.7-1.8c0-1.2-.7-1.8-1.7-1.8h-1.2zm5.8 1.8c0-1.4 1-2.4 2.4-2.4c.9 0 1.7.4 2.1 1.2l-.5.3c-.3-.5-.9-.9-1.6-.9c-1.1 0-1.7.8-1.7 1.8c0 1.1.6 1.9 1.7 1.9c.7 0 1.3-.4 1.6-1l.5.4c-.4.7-1.2 1.2-2.1 1.2c-1.4 0-2.4-1.1-2.4-2.5zm5 0c0-1.4 1-2.4 2.4-2.4c1.4 0 2.4 1 2.4 2.4c0 1.4-1 2.5-2.4 2.5c-1.4 0-2.4-1.1-2.4-2.5zm4.1 0c0-1-.7-1.8-1.7-1.8c-1.1 0-1.7.8-1.7 1.8c0 1.1.6 1.9 1.7 1.9c1 0 1.7-.8 1.7-1.9zM59.6.8h.8l1.7 4l1.7-4h.9v4.8h-.7V1.8l-1.6 3.8h-.6l-1.6-3.8v3.8h-.6V.8zm6.3 0s1.78.04 1.8 0c1 0 1.6.5 1.6 1.5c0 .9-.6 1.4-1.6 1.4h-1.2v1.9h-.6V.8zm1.7 2.3c.7 0 1-.3 1-.8c0-.6-.3-.9-1-.9c0 .01-1.1 0-1.1 0v1.7s1.1.02 1.1 0zM71.1.8h.8l1.9 4.8h-.7l-.4-1.1h-2.3l-.5 1.1h-.7L71.1.8zm-.5 3.1h1.8l-.9-2.3l-.9 2.3zM74.4.8h.6l2.9 3.7V.8h.7v4.8h-.6l-2.9-3.7v3.7h-.7V.8zm5.4 0h.6v4.8h-.6V.8zm1.8 0h3.2v.6h-2.5v1.5h2.2v.6h-2.2v1.5h2.5v.6h-3.2V.8zm3.7 3.8l.5-.4c.2.4.7.9 1.5.9c.7 0 1.1-.4 1.1-.9c0-.4-.4-.7-1-.8h-.4c-.8-.2-1.3-.6-1.3-1.3c0-.7.6-1.3 1.6-1.3c.7 0 1.3.3 1.6.7l-.4.5c-.3-.4-.7-.6-1.2-.6c-.6 0-1 .3-1 .7c0 .3.3.6.8.6l.5.1c.9.2 1.4.6 1.4 1.4c0 .8-.6 1.5-1.7 1.5c-1.1 0-1.7-.6-2-1.1z" stroke="none" fill="#b4b4b4"/></g></svg>