<?xml version="1.0" standalone="no"?><!DOCTYPE svg PUBLIC "-//W3C//DTD SVG 1.1//EN" "http://www.w3.org/Graphics/SVG/1.1/DTD/svg11.dtd"><svg xmlns="http://www.w3.org/2000/svg" version="1.1" width="284.2px" height="52.4px" viewBox="0 -5 284.2 52.4" style="top:-5px"><desc>스텝 05@중제</desc><defs/><g id="Polygon60079"><path d="m59.2 1.3v1.1h-1.7v13h1.7v1.1h-3.1V1.3h3.1zm1.9.9h1.5v12.2h-1.5V2.2zm4.3 3.3h1.4s-.04 1.2 0 1.2c.4-.7 1.4-1.4 2.7-1.4c2.1 0 3.2 1.3 3.2 3.5c.02.04 0 5.6 0 5.6h-1.4s-.02-5.42 0-5.4c0-1.6-.8-2.4-2.2-2.4c-1.2 0-2 .7-2.3 1.6c.02-.05 0 6.2 0 6.2h-1.4V5.5zm10.3 6.1c-.04-.04 0-4.9 0-4.9h-1.6V5.5h1.6V3.2h1.4v2.3h2v1.2h-2v4.9c0 1.2.5 1.6 1.7 1.6h.3v1.2c-.2.1-.4.1-.7.1c-1.8 0-2.7-.9-2.7-2.9zm5-6.1h1.4s.02 1.57 0 1.6c.5-1 1.4-1.8 2.7-1.8h.3c.04.01 0 1.5 0 1.5c0 0-.45-.03-.4 0c-1.2 0-2.1.6-2.5 2c-.03-.03 0 5.6 0 5.6h-1.5V5.5zm12.2 4.4c0-2.1-1.1-3.3-2.8-3.3c-1.6 0-2.7 1.2-2.7 3.3c0 2.2 1.1 3.4 2.7 3.4c1.7 0 2.8-1.2 2.8-3.4zm1.5 0c0 2.8-1.7 4.7-4.3 4.7c-2.5 0-4.2-1.9-4.2-4.7c0-2.7 1.7-4.6 4.2-4.6c2.6 0 4.3 1.9 4.3 4.6zm6.1 1.7V6.7h-1.6V5.5h1.6V3.2h1.5v2.3h2v1.2h-2s-.05 4.86 0 4.9c0 1.2.5 1.6 1.7 1.6h.3s-.05 1.22 0 1.2c-.2.1-.5.1-.7.1c-1.8 0-2.8-.9-2.8-2.9zm11.4-1.7c0-2.1-1-3.3-2.7-3.3c-1.6 0-2.7 1.2-2.7 3.3c0 2.2 1.1 3.4 2.7 3.4c1.7 0 2.7-1.2 2.7-3.4zm1.5 0c0 2.8-1.6 4.7-4.2 4.7c-2.5 0-4.2-1.9-4.2-4.7c0-2.7 1.7-4.6 4.2-4.6c2.6 0 4.2 1.9 4.2 4.6zm8.8-7.7h1.7l4.5 12.2h-1.6l-1.1-3.1h-5.3l-1.1 3.1h-1.6l4.5-12.2zm-1.4 7.8h4.4s-1.67-4.74-1.7-4.7c-.2-.8-.4-1.5-.4-1.7h-.1c0 .2-.2.9-.5 1.7c.03-.04-1.7 4.7-1.7 4.7zm9-7.8s4.23-.04 4.2 0c3.2 0 5.6 2.1 5.6 6.1c0 3.9-2.4 6.1-5.6 6.1h-4.2V2.2zm1.5 1.2v9.7s2.62.02 2.6 0c2.5 0 4.1-1.6 4.1-4.8c0-3.2-1.6-4.9-4.1-4.9c.02.04-2.6 0-2.6 0zm13.3-1.2h1.6l4.5 12.2h-1.6l-1.1-3.1h-5.2l-1.1 3.1h-1.6l4.5-12.2zm-1.4 7.8h4.4s-1.69-4.74-1.7-4.7c-.2-.8-.5-1.5-.5-1.7c0 .2-.2.9-.5 1.7c0-.04-1.7 4.7-1.7 4.7zm7.8 1.9l1.1-.8c.6 1.1 1.6 2.2 3.3 2.2c1.7 0 2.7-1 2.7-2.3c0-1.3-.8-1.8-2.3-2.2l-.9-.3c-2-.5-3.1-1.6-3.1-3.3c0-1.7 1.2-3.2 3.6-3.2c1.8 0 3 .8 3.7 2l-1.1.8c-.7-1.1-1.6-1.5-2.6-1.5c-1.4 0-2 .9-2 1.8c0 1.1.5 1.6 1.9 2l.9.2c2.2.6 3.4 1.8 3.4 3.7c0 2-1.6 3.6-4.2 3.6c-2.4 0-3.7-1.4-4.4-2.7zm14.7-5.2h-1.5V5.5h1.5s.03-1.34 0-1.3c0-1.6.9-2.7 2.7-2.7h.7c.03.05 0 1.2 0 1.2c0 0-.4.04-.4 0c-1 0-1.5.5-1.5 1.5c-.03-.02 0 1.3 0 1.3h1.9v1.2h-1.9v7.7h-1.5V6.7zm4.1 3.2c0-2.8 1.6-4.6 4.1-4.6c2.4 0 3.9 1.8 3.9 4.4c0 .2-.1.5-.1.7h-6.4c.2 1.8 1.1 2.9 2.7 2.9c1.1 0 2-.4 2.5-1.3l1 .8c-.7 1-1.8 1.8-3.6 1.8c-2.5 0-4.1-1.8-4.1-4.7zm1.6-.7h4.9c-.1-1.6-1.1-2.6-2.4-2.6c-1.4 0-2.3.9-2.5 2.6zm7.4 2.5c0-1.7 1.3-3 3.3-3c1 0 1.9.4 2.5 1.1v-.9c0-1.3-.7-2.3-2.2-2.3c-1 0-1.6.3-2.2 1l-.8-1c.6-.7 1.5-1.3 3.1-1.3c2.3 0 3.6 1.4 3.6 3.5c-.03-.03 0 5.6 0 5.6h-1.4s-.02-.88 0-.9c-.7.7-1.6 1.1-2.6 1.1c-2 0-3.3-1.3-3.3-2.9zm5.8.6v-1.2c-.4-.8-1.5-1.2-2.3-1.2c-1.4 0-2 1-2 1.8c0 .8.6 1.7 2 1.7c.8 0 1.9-.3 2.3-1.1zm4.3-.7c-.03-.04 0-4.9 0-4.9h-1.6V5.5h1.6V3.2h1.4v2.3h2v1.2h-2v4.9c0 1.2.6 1.6 1.8 1.6h.2v1.2c-.2.1-.4.1-.6.1c-1.9 0-2.8-.9-2.8-2.9zm12.3 2.8h-1.4v-1.2c-.5.7-1.5 1.4-2.7 1.4c-2.1 0-3.3-1.3-3.3-3.6c.04.03 0-5.5 0-5.5h1.5s-.02 5.39 0 5.4c0 1.6.8 2.4 2.1 2.4c1.2 0 2.1-.7 2.3-1.6c.05.02 0-6.2 0-6.2h1.5v8.9zm2.4-8.9h1.4s-.02 1.57 0 1.6c.5-1 1.4-1.8 2.6-1.8h.4v1.5s-.48-.03-.5 0c-1.2 0-2 .6-2.5 2c.04-.03 0 5.6 0 5.6h-1.4V5.5zm5.2 4.4c0-2.8 1.6-4.6 4.1-4.6c2.4 0 3.9 1.8 3.9 4.4c0 .2-.1.5-.1.7h-6.4c.2 1.8 1.1 2.9 2.7 2.9c1.1 0 2-.4 2.5-1.3l1 .8c-.7 1-1.8 1.8-3.6 1.8c-2.5 0-4.1-1.8-4.1-4.7zm1.5-.7h4.9c0-1.6-1-2.6-2.3-2.6c-1.4 0-2.3.9-2.6 2.6zm12.8-1.7c-.6-.7-1.2-1-2-1c-.9 0-1.3.6-1.3 1.2c0 .7.4 1.1 1.1 1.2l.8.2c1.7.4 2.7 1.1 2.7 2.7c0 1.4-1.3 2.8-3.4 2.8c-1.6 0-2.7-.9-3.4-1.9l1-.8c.5.8 1.3 1.5 2.4 1.5c1.2 0 1.9-.6 1.9-1.5c0-.8-.7-1.2-1.6-1.4l-.8-.2c-1.4-.3-2.2-1.1-2.2-2.4c0-1.4 1-2.6 2.9-2.6c1.2 0 2.2.6 2.8 1.4l-.9.8zm5-6.2v15.2H225v-1.1h1.7v-13H225V1.3h3.1z" stroke="none" fill="#e93312"/></g></svg>