<?xml version="1.0" standalone="no"?><!DOCTYPE svg PUBLIC "-//W3C//DTD SVG 1.1//EN" "http://www.w3.org/Graphics/SVG/1.1/DTD/svg11.dtd"><svg xmlns="http://www.w3.org/2000/svg" version="1.1" width="434px" height="74.1px" viewBox="0 -5 434 74.1" style="top:-5px"><desc>스텝 01-1@2타이틀</desc><defs/><g id="Polygon56897"><path d="m1.3 26.2h8.5v2H3.7v3.1h5.4v2H3.7v5.1H1.3V26.2zm9.2 2.9h2.3v1.5c.5-1 1.4-1.7 2.7-1.7h.2s.03 2.19 0 2.2c-1.3 0-2.5.4-2.9 1.8v5.5h-2.3v-9.3zm5.4 4.7c0-2.6 1.7-4.9 5-4.9c3.2 0 4.9 2.3 4.9 4.9c0 2.5-1.7 4.9-4.9 4.9c-3.3 0-5-2.4-5-4.9zm2.4 0c0 1.7 1.1 2.8 2.6 2.8c1.5 0 2.6-1.1 2.6-2.8c0-1.7-1.1-2.9-2.6-2.9c-1.5 0-2.6 1.2-2.6 2.9zm8.6-4.7h2.3s-.04 1.33 0 1.3c.5-.8 1.5-1.5 2.9-1.5c2.4 0 3.5 1.7 3.5 4c.02.05 0 5.5 0 5.5h-2.3s.04-5.2 0-5.2c0-1.5-.7-2.3-2-2.3c-1.2 0-1.9.8-2.1 1.7c-.04-.03 0 5.8 0 5.8h-2.3v-9.3zm10.9 5.8c.02-.05 0-3.9 0-3.9h-1.5v-1.9h1.6v-2.3h2.2v2.3h2.1v1.9h-2.1v4c0 1.2.6 1.6 1.7 1.6c.01-.04.4 0 .4 0c0 0 .05 1.8 0 1.8c-.3.1-.6.1-1 .1c-2.2 0-3.4-1.1-3.4-3.6zm9-8.7s5.08-.04 5.1 0c2.4 0 4 1.2 4 3.2c0 1-.5 1.9-1.4 2.5c1.3.4 2.3 1.4 2.3 3c0 2.2-1.6 3.5-4.4 3.5h-5.6V26.2zm5.5 10.3c1.4 0 2.1-.7 2.1-1.7c0-1-.7-1.7-2.1-1.7c.01.04-3.1 0-3.1 0v3.4s3.11-.04 3.1 0zm-.7-5.3c1.3 0 1.9-.6 1.9-1.5c0-1-.6-1.6-1.9-1.6h-2.4v3.1h2.4zm14.9 7.2h-2.3s.02-1.3 0-1.3c-.5.8-1.5 1.5-2.9 1.5c-2.4 0-3.5-1.6-3.5-4c-.04-.02 0-5.5 0-5.5h2.2s.05 5.23 0 5.2c0 1.5.7 2.3 2.1 2.3c1.1 0 1.9-.8 2.1-1.6c.02-.04 0-5.9 0-5.9h2.3v9.3zm14.3-5.2c0-1.5-.6-2.3-2-2.3c-1.2 0-1.8.8-2.1 1.7c.03-.03 0 5.8 0 5.8h-2.3s.05-5.2 0-5.2c0-1.5-.6-2.3-1.9-2.3c-1.2 0-1.9.8-2.1 1.7v5.8h-2.3v-9.3h2.3v1.3c.5-.8 1.4-1.5 2.9-1.5c1.5 0 2.5.7 3 1.8c.7-1.1 1.7-1.8 3.3-1.8c2.4 0 3.5 1.7 3.5 4c-.05.05 0 5.5 0 5.5h-2.3s-.04-5.2 0-5.2zm3.8-4.1h2.2s.05 1.13 0 1.1c.7-.7 1.7-1.3 3-1.3c2.5 0 4.4 1.9 4.4 4.9c0 2.9-1.9 4.8-4.4 4.8c-1.3 0-2.3-.5-3-1.3c.05.02 0 4.2 0 4.2h-2.2V29.1zm7.3 4.7c0-1.8-1.2-2.9-2.7-2.9c-1 0-1.9.6-2.4 1.5v2.8c.5.9 1.4 1.4 2.4 1.4c1.5 0 2.7-1 2.7-2.8zm2.9 0c0-2.9 2-4.9 4.7-4.9c2.7 0 4.4 1.9 4.4 4.6c0 .3 0 .7-.1 1.1h-6.7c.3 1.2 1.1 2.1 2.7 2.1c1.2 0 2.1-.7 2.7-1.4l1.2 1.5c-.8 1-2.2 1.8-4 1.8c-3 0-4.9-2.1-4.9-4.8zm2.4-1.1h4.5c-.1-1.2-1-1.9-2.2-1.9c-1.2 0-2 .7-2.3 1.9zm7.8-3.6h2.3v1.5c.6-1 1.5-1.7 2.7-1.7h.2s.05 2.19 0 2.2c-1.3 0-2.4.4-2.9 1.8v5.5H105v-9.3zm8.7 6c0-1.8 1.1-2.9 2.9-3.6c-.6-.7-.9-1.4-.9-2.3c0-1.7 1.4-3.3 3.6-3.3c2 0 3.5 1.4 3.5 3.1c0 1.6-1.2 2.6-2.8 3.2c-.01-.05 1.8 1.9 1.8 1.9l2.2-2.5l1.5 1.3l-2.4 2.7l2.6 2.7v.1h-3s-1.13-1.28-1.1-1.3c-1.1 1-2.4 1.6-3.8 1.6c-2.6 0-4.1-1.6-4.1-3.6zm6.6.6l-2.5-2.8c-1.1.4-1.9 1-1.9 2c0 1.1.8 1.8 1.9 1.8c1 0 1.8-.4 2.5-1zm-1.5-4.9c1.3-.4 1.8-1 1.8-1.8c0-.5-.5-1.2-1.3-1.2c-1 0-1.4.7-1.4 1.3c0 .6.3 1 .9 1.7zm11.2-4.6h2.3v10.1h5.9v2.1H130V26.2zm9 2.9h2.3v9.3H139v-9.3zm0-3.9h2.3v2.4H139v-2.4zm4 3.9h2.2s.04 1.13 0 1.1c.7-.7 1.7-1.3 3-1.3c2.5 0 4.4 1.9 4.4 4.9c0 2.9-1.9 4.8-4.4 4.8c-1.3 0-2.3-.5-3-1.3c.04.02 0 4.2 0 4.2H143V29.1zm7.3 4.7c0-1.8-1.2-2.9-2.7-2.9c-1 0-1.9.6-2.4 1.5v2.8c.5.9 1.4 1.4 2.4 1.4c1.5 0 2.7-1 2.7-2.8zm5.9 2.1l1.5-1.5c.7 1.1 1.9 2.1 3.8 2.1c1.5 0 2.3-.7 2.3-1.7c0-.7-.6-1.3-2-1.5l-1.1-.2c-2.1-.3-3.6-1.6-3.6-3.5c0-2 1.7-3.7 4.4-3.7c1.9 0 3.5.8 4.4 2l-1.5 1.5c-.8-.9-1.8-1.4-2.9-1.4c-1.2 0-2 .7-2 1.4c0 .7.6 1.2 1.7 1.4l1 .2c2.5.3 4 1.6 4 3.7c0 2.3-1.9 4-4.8 4c-2.8 0-4.3-1.5-5.2-2.8zm11.1-6.8h2.3s.01 1.13 0 1.1c.7-.7 1.7-1.3 2.9-1.3c2.6 0 4.5 1.9 4.5 4.9c0 2.9-1.9 4.8-4.5 4.8c-1.2 0-2.2-.5-2.9-1.3v4.2h-2.3V29.1zm7.4 4.7c0-1.8-1.2-2.9-2.7-2.9c-1 0-2 .6-2.4 1.5v2.8c.4.9 1.4 1.4 2.4 1.4c1.5 0 2.7-1 2.7-2.8zm2.9 0c0-2.6 1.7-4.9 4.9-4.9c3.2 0 4.9 2.3 4.9 4.9c0 2.5-1.7 4.9-4.9 4.9c-3.2 0-4.9-2.4-4.9-4.9zm2.3 0c0 1.7 1.1 2.8 2.6 2.8c1.5 0 2.6-1.1 2.6-2.8c0-1.7-1.1-2.9-2.6-2.9c-1.5 0-2.6 1.2-2.6 2.9zm8.6-4.7h2.3v9.3h-2.3v-9.3zm0-3.9h2.3v2.4h-2.3v-2.4zm3.9.4h2.3v12.8h-2.3V25.6zm3.4 8.2c0-2.9 2-4.9 4.7-4.9c2.7 0 4.5 1.9 4.5 4.6c0 .3-.1.7-.1 1.1h-6.8c.3 1.2 1.1 2.1 2.7 2.1c1.2 0 2.1-.7 2.7-1.4l1.2 1.5c-.8 1-2.2 1.8-4 1.8c-3 0-4.9-2.1-4.9-4.8zm2.4-1.1h4.5c-.1-1.2-1-1.9-2.2-1.9c-1.2 0-2 .7-2.3 1.9zm7.8-3.6h2.3s.03 1.47 0 1.5c.6-1 1.5-1.7 2.7-1.7h.3s-.04 2.19 0 2.2c-1.4 0-2.5.4-3 1.8c.03-.01 0 5.5 0 5.5H206v-9.3z" stroke="none" fill="#fff"/></g><g id="Polygon56896"><path d="m1.3 2.2s5.09-.04 5.1 0c2.5 0 4 1.2 4 3.2c0 1-.5 1.9-1.4 2.5c1.3.4 2.3 1.4 2.3 3c0 2.2-1.5 3.5-4.4 3.5H1.3V2.2zm5.5 10.3c1.4 0 2.1-.7 2.1-1.7c0-1-.7-1.7-2.1-1.7c.02.04-3.1 0-3.1 0v3.4s3.12-.04 3.1 0zm-.7-5.3C7.5 7.2 8 6.6 8 5.7c0-1-.5-1.6-1.9-1.6H3.7v3.1h2.4zm6.3-5.6h2.3v12.8h-2.3V1.6zm10.8 11.7c-.7.8-1.7 1.3-2.9 1.3c-2.6 0-4.5-1.9-4.5-4.8c0-3 1.9-4.9 4.5-4.9c1.2 0 2.2.5 2.9 1.3c-.03.01 0-1.1 0-1.1h2.3v9.3h-2.3s-.03-1.06 0-1.1zm0-2.1V8.4c-.4-.9-1.4-1.5-2.4-1.5c-1.5 0-2.7 1.1-2.7 2.9c0 1.8 1.2 2.8 2.7 2.8c1 0 2-.5 2.4-1.4zm3.4-1.4c0-2.6 1.7-4.9 4.8-4.9c1.9 0 3.2.9 4.1 2.3l-1.6 1.3c-.5-.9-1.3-1.6-2.4-1.6c-1.6 0-2.6 1.1-2.6 2.9c0 1.7 1 2.8 2.6 2.8c1.1 0 1.9-.6 2.4-1.5l1.6 1.2c-.9 1.5-2.2 2.3-4.1 2.3c-3.1 0-4.8-2.3-4.8-4.8zm9.8-8.2h2.3v7.5l3.6-4h2.6v.1l-3.5 3.9l3.9 5.2v.1h-2.7L40 10.7l-1.3 1.3v2.4h-2.3V1.6zm12.8.6h8.7v2h-6.3v3h5.4v2h-5.4v3.1h6.3v2.1h-8.7V2.2zm22.5 7c0-1.5-.6-2.3-2-2.3c-1.2 0-1.8.8-2.1 1.7c.04-.03 0 5.8 0 5.8h-2.2s-.04-5.2 0-5.2c0-1.5-.7-2.3-2-2.3c-1.2 0-1.8.8-2.1 1.7c.03-.03 0 5.8 0 5.8H59V5.1h2.3s.03 1.33 0 1.3c.5-.8 1.4-1.5 2.9-1.5c1.5 0 2.5.7 3 1.8c.7-1.1 1.7-1.8 3.3-1.8c2.4 0 3.5 1.7 3.5 4c-.04.05 0 5.5 0 5.5h-2.3s-.02-5.2 0-5.2zm6.1 5.2h-2.3V1.6h2.3s-.02 4.61 0 4.6c.6-.8 1.7-1.3 2.9-1.3c2.5 0 4.4 1.9 4.4 4.9c0 2.9-1.9 4.8-4.4 4.8c-1.2 0-2.3-.5-2.9-1.3c-.02.04 0 1.1 0 1.1zm5-4.6c0-1.8-1.1-2.9-2.6-2.9c-1.1 0-2 .6-2.4 1.5v2.8c.4.9 1.3 1.4 2.4 1.4c1.5 0 2.6-1 2.6-2.8zm3.5-8.2h2.2v12.8h-2.2V1.6zm3.4 8.2c0-2.9 1.9-4.9 4.6-4.9c2.7 0 4.5 1.9 4.5 4.6c0 .3-.1.7-.1 1.1H92c.2 1.2 1.1 2.1 2.7 2.1c1.1 0 2.1-.7 2.6-1.4l1.3 1.5c-.9 1-2.3 1.8-4 1.8c-3 0-4.9-2.1-4.9-4.8zM92 8.7h4.5c-.1-1.2-.9-1.9-2.2-1.9c-1.2 0-2 .7-2.3 1.9zm20.5.5c0-1.5-.6-2.3-2-2.3c-1.1 0-1.8.8-2 1.7c-.02-.03 0 5.8 0 5.8h-2.3V9.2c0-1.5-.6-2.3-2-2.3c-1.1 0-1.8.8-2 1.7c-.03-.03 0 5.8 0 5.8h-2.3V5.1h2.3s-.03 1.33 0 1.3c.5-.8 1.4-1.5 2.8-1.5c1.6 0 2.5.7 3 1.8c.7-1.1 1.8-1.8 3.3-1.8c2.5 0 3.5 1.7 3.5 4v5.5h-2.3s.02-5.2 0-5.2zm4.9 6h-1.2v-2.7h2.8v2.4l-1.3 3h-1.3l1-2.7z" stroke="none" fill="#fff"/></g></svg>