<?xml version="1.0" standalone="no"?><!DOCTYPE svg PUBLIC "-//W3C//DTD SVG 1.1//EN" "http://www.w3.org/Graphics/SVG/1.1/DTD/svg11.dtd"><svg xmlns="http://www.w3.org/2000/svg" version="1.1" width="284.2px" height="28.1px" viewBox="0 -5 284.2 28.1" style="top:-5px"><desc>스텝 05-1@3이미지</desc><defs/><g id="Polygon60229"><path d="m1 8h5.2v1.9H1V8zm10.3-5.8h8.4v2h-6.1v3.1h5.4v2h-5.4v5.1h-2.3V2.2zm8.8 6.1c0-3.7 2.6-6.4 6.2-6.4c2.5 0 4.4 1.2 5.5 3L30 6.2c-.7-1.3-1.9-2.1-3.6-2.1c-2.4 0-3.9 1.8-3.9 4.2c0 2.4 1.5 4.2 3.9 4.2c1.7 0 2.9-.9 3.6-2.1l1.8 1.2c-1.1 1.9-3 3.1-5.5 3.1c-3.6 0-6.2-2.8-6.2-6.4zm16.1-6.1h2.8l4.7 12.2h-2.4l-1-2.6h-5.4l-1 2.6h-2.5l4.8-12.2zm-.6 7.6h3.9l-1.9-5.1l-2 5.1zM70.8 8h5.2v1.9h-5.2V8zm10.3-5.8s5.08-.04 5.1 0c2.4 0 4 1.2 4 3.2c0 1-.5 1.9-1.4 2.5c1.3.4 2.3 1.4 2.3 3c0 2.2-1.6 3.5-4.4 3.5h-5.6V2.2zm5.5 10.3c1.4 0 2.1-.7 2.1-1.7c0-1-.7-1.7-2.1-1.7c.01.04-3.1 0-3.1 0v3.4s3.11-.04 3.1 0zm-.7-5.3c1.3 0 1.9-.6 1.9-1.5c0-1-.6-1.6-1.9-1.6h-2.4v3.1h2.4zm5.8 1.1c0-3.7 2.6-6.4 6.3-6.4c2.5 0 4.4 1.2 5.4 3l-1.7 1.3c-.8-1.3-1.9-2.1-3.7-2.1c-2.4 0-3.9 1.8-3.9 4.2c0 2.4 1.5 4.2 3.9 4.2c1.8 0 2.9-.9 3.7-2.1l1.7 1.2c-1 1.9-2.9 3.1-5.4 3.1c-3.7 0-6.3-2.8-6.3-6.4zm16.2-6.1h2.7l4.8 12.2H113l-1-2.6h-5.5l-1 2.6h-2.4l4.8-12.2zm-.6 7.6h3.9l-2-5.1l-1.9 5.1zM139.1 8h5.3v1.9h-5.3V8zm9.3 3.9l1.5-1.5c.7 1.1 1.9 2.1 3.7 2.1c1.5 0 2.3-.7 2.3-1.7c0-.7-.5-1.3-1.9-1.5l-1.1-.2c-2.2-.3-3.6-1.6-3.6-3.5c0-2 1.7-3.7 4.4-3.7c1.9 0 3.4.8 4.3 2l-1.5 1.5c-.7-.9-1.8-1.4-2.9-1.4c-1.2 0-1.9.7-1.9 1.4c0 .7.5 1.2 1.6 1.4l1 .2c2.6.3 4 1.6 4 3.7c0 2.3-1.9 4-4.7 4c-2.8 0-4.4-1.5-5.2-2.8zm11.3-9.7h8.6v2h-6.2v3h5.4v2h-5.4v3.1h6.2v2.1h-8.6V2.2zm8.9 0h2.4l2.5 9.1l2.8-9.1h2.6l2.8 9.1l2.5-9.1h2.4l-3.5 12.2h-2.7l-2.8-9.1l-2.8 9.1h-2.6l-3.6-12.2z" stroke="none" fill="#fff"/></g></svg>