<?xml version="1.0" standalone="no"?><!DOCTYPE svg PUBLIC "-//W3C//DTD SVG 1.1//EN" "http://www.w3.org/Graphics/SVG/1.1/DTD/svg11.dtd"><svg xmlns="http://www.w3.org/2000/svg" version="1.1" width="284.2px" height="74.1px" viewBox="0 -5 284.2 74.1" style="top:-5px"><desc>스텝 06-3@2타이틀</desc><defs/><g id="Polygon60972"><path d="m4 28.2H.3v-2h9.8v2H6.3v10.2H4V28.2zm6.4 5.6c0-2.9 1.9-4.9 4.6-4.9c2.7 0 4.5 1.9 4.5 4.6c0 .3-.1.7-.1 1.1h-6.7c.2 1.2 1.1 2.1 2.7 2.1c1.1 0 2.1-.7 2.6-1.4l1.3 1.5c-.9 1-2.3 1.8-4 1.8c-3 0-4.9-2.1-4.9-4.8zm2.3-1.1h4.5c-.1-1.2-.9-1.9-2.2-1.9c-1.2 0-2 .7-2.3 1.9zm7.4 1.1c0-2.6 1.7-4.9 4.8-4.9c1.8 0 3.2.9 4.1 2.3l-1.6 1.3c-.5-.9-1.3-1.6-2.4-1.6c-1.6 0-2.6 1.1-2.6 2.9c0 1.7 1 2.8 2.6 2.8c1.1 0 1.9-.6 2.4-1.5l1.6 1.2c-.9 1.5-2.3 2.3-4.1 2.3c-3.1 0-4.8-2.3-4.8-4.8zm9.8-8.2h2.3s.02 4.83 0 4.8c.5-.8 1.5-1.5 3-1.5c2.4 0 3.5 1.7 3.5 4c-.02.05 0 5.5 0 5.5h-2.3v-5.2c0-1.5-.7-2.3-2.1-2.3c-1.2 0-1.9.9-2.1 1.7c.02-.03 0 5.8 0 5.8h-2.3V25.6zm10.3 3.5h2.3s-.02 1.33 0 1.3c.5-.8 1.5-1.5 2.9-1.5c2.4 0 3.5 1.7 3.5 4c.04.05 0 5.5 0 5.5h-2.2s-.04-5.2 0-5.2c0-1.5-.7-2.3-2.1-2.3c-1.1 0-1.9.8-2.1 1.7c-.02-.03 0 5.8 0 5.8h-2.3v-9.3zm9.7 4.7c0-2.6 1.7-4.9 4.9-4.9c3.3 0 5 2.3 5 4.9c0 2.5-1.7 4.9-5 4.9c-3.2 0-4.9-2.4-4.9-4.9zm2.4 0c0 1.7 1.1 2.8 2.5 2.8c1.5 0 2.6-1.1 2.6-2.8c0-1.7-1.1-2.9-2.6-2.9c-1.4 0-2.5 1.2-2.5 2.9zm8.6-8.2h2.2v12.8h-2.2V25.6zm3.4 8.2c0-2.6 1.7-4.9 4.9-4.9c3.2 0 4.9 2.3 4.9 4.9c0 2.5-1.7 4.9-4.9 4.9c-3.2 0-4.9-2.4-4.9-4.9zm2.3 0c0 1.7 1.1 2.8 2.6 2.8c1.5 0 2.6-1.1 2.6-2.8c0-1.7-1.1-2.9-2.6-2.9c-1.5 0-2.6 1.2-2.6 2.9zm8.1-.5c0-2.6 1.6-4.4 4.2-4.4c1.2 0 2.2.5 2.8 1.3c.02.01 0-1.1 0-1.1h2.3v7.7c0 3.4-2.4 4.9-4.9 4.9c-2.2 0-3.5-.8-4.2-1.8l1.3-1.5c.7.8 1.5 1.4 2.8 1.4c1.4 0 2.7-.8 2.7-2.8v-.5c-.6.7-1.6 1.3-2.8 1.3c-2.6 0-4.2-1.8-4.2-4.5zm7 1.2v-2.3c-.4-.8-1.2-1.3-2.2-1.3c-1.5 0-2.5 1-2.5 2.4c0 1.5 1 2.5 2.5 2.5c1 0 1.8-.5 2.2-1.3zm6.6 2.7l-3.7-8.1h2.4l2.5 5.6l2.3-5.6h2.4l-5.4 12.4h-2.5l2-4.3z" stroke="none" fill="#fff"/></g><g id="Polygon60971"><path d="m1.3 2.2s4.98-.04 5 0c3.5 0 6.1 2.1 6.1 6.1c0 3.9-2.6 6.1-6.1 6.1h-5V2.2zm2.4 2v8.2s2.46-.03 2.5 0c2.3 0 3.8-1.5 3.8-4.1c0-2.7-1.5-4.1-3.8-4.1c-.04-.01-2.5 0-2.5 0zm9.9.9h2.3s-.04 1.47 0 1.5c.5-1 1.4-1.7 2.6-1.7h.3s-.01 2.19 0 2.2c-1.4 0-2.5.4-2.9 1.8c-.04-.01 0 5.5 0 5.5h-2.3V5.1zm5.9 0h2.3v9.3h-2.3V5.1zm0-3.9h2.3v2.4h-2.3V1.2zm2.9 3.9h2.5l2.5 6.5l2.4-6.5h2.5l-3.8 9.3h-2.3l-3.8-9.3zm10.5 0h2.3v9.3h-2.3V5.1zm-.1-3.9h2.4v2.4h-2.4V1.2zm4 3.9h2.3v1.3c.5-.8 1.5-1.5 2.9-1.5c2.4 0 3.6 1.7 3.6 4c-.04.05 0 5.5 0 5.5h-2.3s-.03-5.2 0-5.2c0-1.5-.7-2.3-2.1-2.3c-1.1 0-1.9.8-2.1 1.7v5.8h-2.3V5.1zm9.8 4.2c0-2.6 1.6-4.4 4.2-4.4c1.2 0 2.2.5 2.8 1.3V5.1h2.3v7.7c0 3.4-2.4 4.9-4.9 4.9c-2.2 0-3.6-.8-4.3-1.8l1.4-1.5c.6.8 1.4 1.4 2.8 1.4c1.4 0 2.7-.8 2.7-2.8v-.5c-.6.7-1.6 1.3-2.8 1.3c-2.6 0-4.2-1.8-4.2-4.5zm7 1.2V8.2c-.4-.8-1.2-1.3-2.2-1.3c-1.6 0-2.5 1-2.5 2.4c0 1.5.9 2.5 2.5 2.5c1 0 1.8-.5 2.2-1.3zm7.5-8.3h8.6v2h-6.3v3h5.4v2h-5.4v3.1h6.3v2.1h-8.6V2.2zm22.4 7c0-1.5-.6-2.3-2-2.3c-1.1 0-1.8.8-2 1.7c-.05-.03 0 5.8 0 5.8h-2.3s-.04-5.2 0-5.2c0-1.5-.7-2.3-2-2.3c-1.1 0-1.8.8-2.1 1.7c.03-.03 0 5.8 0 5.8h-2.3V5.1h2.3s.03 1.33 0 1.3c.5-.8 1.5-1.5 2.9-1.5c1.5 0 2.5.7 3 1.8c.7-1.1 1.7-1.8 3.3-1.8c2.4 0 3.5 1.7 3.5 4c-.03.05 0 5.5 0 5.5h-2.3s-.02-5.2 0-5.2zm3.3.6c0-2.6 1.7-4.9 4.9-4.9c3.2 0 4.9 2.3 4.9 4.9c0 2.5-1.7 4.9-4.9 4.9c-3.2 0-4.9-2.4-4.9-4.9zm2.3 0c0 1.7 1.1 2.8 2.6 2.8c1.5 0 2.6-1.1 2.6-2.8c0-1.7-1.1-2.9-2.6-2.9c-1.5 0-2.6 1.2-2.6 2.9zm9.1 1.1V7h-1.6V5.1h1.7V2.8h2.2v2.3h2.1v1.9h-2.1s-.03 3.96 0 4c0 1.2.5 1.6 1.7 1.6c-.02-.04.4 0 .4 0c0 0 .02 1.8 0 1.8c-.3.1-.7.1-1 .1c-2.3 0-3.4-1.1-3.4-3.6zm5.4-5.8h2.3v9.3h-2.3V5.1zm0-3.9h2.3v2.4h-2.3V1.2zm3.4 8.6c0-2.6 1.7-4.9 4.9-4.9c3.2 0 4.9 2.3 4.9 4.9c0 2.5-1.7 4.9-4.9 4.9c-3.2 0-4.9-2.4-4.9-4.9zm2.3 0c0 1.7 1.1 2.8 2.6 2.8c1.5 0 2.6-1.1 2.6-2.8c0-1.7-1.1-2.9-2.6-2.9c-1.5 0-2.6 1.2-2.6 2.9zm8.6-4.7h2.3s.02 1.33 0 1.3c.5-.8 1.5-1.5 3-1.5c2.4 0 3.5 1.7 3.5 4c-.02.05 0 5.5 0 5.5h-2.3V9.2c0-1.5-.7-2.3-2.1-2.3c-1.1 0-1.8.8-2.1 1.7c.02-.03 0 5.8 0 5.8h-2.3V5.1z" stroke="none" fill="#fff"/></g></svg>