<?xml version="1.0" standalone="no"?><!DOCTYPE svg PUBLIC "-//W3C//DTD SVG 1.1//EN" "http://www.w3.org/Graphics/SVG/1.1/DTD/svg11.dtd"><svg xmlns="http://www.w3.org/2000/svg" version="1.1" width="434px" height="74.1px" viewBox="0 -5 434 74.1" style="top:-5px"><desc>스텝 03-1@2타이틀</desc><defs/><g id="Polygon58653"><path d="m1.3 26.2s4.98-.04 5 0c3.5 0 6.1 2.1 6.1 6.1c0 3.9-2.6 6.1-6.1 6.1h-5V26.2zm2.4 2v8.2s2.46-.03 2.5 0c2.3 0 3.8-1.5 3.8-4.1c0-2.7-1.5-4.1-3.8-4.1c-.04-.01-2.5 0-2.5 0zm18.5 10.2h-2.3s.03-1.3 0-1.3c-.5.8-1.5 1.5-2.9 1.5c-2.4 0-3.5-1.6-3.5-4c-.04-.02 0-5.5 0-5.5h2.2s.05 5.23 0 5.2c0 1.5.8 2.3 2.1 2.3c1.1 0 1.9-.8 2.1-1.6c.03-.04 0-5.9 0-5.9h2.3v9.3zm8.5-1.1c-.7.8-1.7 1.3-2.9 1.3c-2.6 0-4.5-1.9-4.5-4.8c0-3 1.9-4.9 4.5-4.9c1.2 0 2.2.5 2.9 1.3c-.01.01 0-1.1 0-1.1h2.3v9.3h-2.3s-.01-1.06 0-1.1zm0-2.1v-2.8c-.4-.9-1.4-1.5-2.4-1.5c-1.5 0-2.7 1.1-2.7 2.9c0 1.8 1.2 2.8 2.7 2.8c1 0 2-.5 2.4-1.4zm3.9-9.6h2.3v12.8h-2.3V25.6zm7.5.6h8.6v2h-6.2v3h5.4v2h-5.4v3.1h6.2v2.1h-8.6V26.2zM51 38.3l3.3-4.7l-3.1-4.4v-.1h2.6l2 3.1l2-3.1h2.6v.1l-3.1 4.4l3.3 4.7v.1h-2.5l-2.3-3.3l-2.3 3.3H51v-.1zm10.2-12.7h2.3s-.03 4.83 0 4.8c.5-.8 1.5-1.5 2.9-1.5c2.4 0 3.5 1.7 3.5 4c.03.05 0 5.5 0 5.5h-2.3s.04-5.2 0-5.2c0-1.5-.7-2.3-2-2.3c-1.2 0-1.9.9-2.1 1.7c-.03-.03 0 5.8 0 5.8h-2.3V25.6zm17.1 11.7c-.7.8-1.7 1.3-2.9 1.3c-2.6 0-4.5-1.9-4.5-4.8c0-3 1.9-4.9 4.5-4.9c1.2 0 2.2.5 2.9 1.3v-1.1h2.3v9.3h-2.3v-1.1zm0-2.1v-2.8c-.4-.9-1.4-1.5-2.4-1.5c-1.5 0-2.6 1.1-2.6 2.9c0 1.8 1.1 2.8 2.6 2.8c1 0 2-.5 2.4-1.4zm12.6 3.2h-2.3s-.02-1.3 0-1.3c-.5.8-1.5 1.5-3 1.5c-2.4 0-3.5-1.6-3.5-4v-5.5h2.3v5.2c0 1.5.7 2.3 2.1 2.3c1.1 0 1.8-.8 2.1-1.6c-.02-.04 0-5.9 0-5.9h2.3v9.3zm.8-1.6l1.2-1.4c.6.8 1.7 1.4 2.8 1.4c1 0 1.7-.4 1.7-1.1c0-.6-.6-.9-1.5-1l-.8-.1c-1.7-.3-2.8-1.3-2.8-2.8c0-1.6 1.4-2.9 3.7-2.9c1.5 0 2.6.6 3.3 1.4l-1.2 1.5c-.6-.7-1.3-1-2.2-1c-.8 0-1.3.4-1.3.9c0 .5.4.7 1.1.8l.8.1c2.1.4 3.2 1.4 3.2 3c0 1.6-1.5 3.1-4.1 3.1c-1.7 0-3.1-.9-3.9-1.9zm9.5-1.9V31h-1.5v-1.9h1.6v-2.3h2.2v2.3h2.1v1.9h-2.1v4c0 1.2.6 1.6 1.7 1.6c.01-.04.4 0 .4 0c0 0 .04 1.8 0 1.8c-.3.1-.6.1-1 .1c-2.2 0-3.4-1.1-3.4-3.6zm4.6 1.9l1.3-1.4c.6.8 1.6 1.4 2.7 1.4c1 0 1.7-.4 1.7-1.1c0-.6-.5-.9-1.4-1l-.8-.1c-1.8-.3-2.8-1.3-2.8-2.8c0-1.6 1.4-2.9 3.7-2.9c1.4 0 2.6.6 3.2 1.4l-1.2 1.5c-.6-.7-1.3-1-2.1-1c-.9 0-1.3.4-1.3.9c0 .5.3.7 1 .8l.8.1c2.2.4 3.2 1.4 3.2 3c0 1.6-1.4 3.1-4.1 3.1c-1.7 0-3-.9-3.9-1.9zm11.7-1.7c0-1.8 1.2-2.9 3-3.6c-.6-.7-.9-1.4-.9-2.3c0-1.7 1.4-3.3 3.6-3.3c2 0 3.4 1.4 3.4 3.1c0 1.6-1.1 2.6-2.7 3.2l1.8 1.9l2.2-2.5l1.4 1.3l-2.3 2.7l2.5 2.7v.1h-2.9s-1.16-1.28-1.2-1.3c-1.1 1-2.4 1.6-3.8 1.6c-2.5 0-4.1-1.6-4.1-3.6zm6.6.6l-2.5-2.8c-1 .4-1.8 1-1.8 2c0 1.1.8 1.8 1.9 1.8c.9 0 1.7-.4 2.4-1zm-1.5-4.9c1.3-.4 1.9-1 1.9-1.8c0-.5-.5-1.2-1.4-1.2c-.9 0-1.3.7-1.3 1.3c0 .6.3 1 .8 1.7zm15.5 2.7h-1.9v4.9h-2.4V26.2s5.46-.04 5.5 0c2.3 0 4 1.3 4 3.6c0 1.8-1 3.1-2.7 3.5c.03-.01 4 5 4 5v.1h-2.8l-3.7-4.9zm.9-2.1c1.3 0 1.9-.6 1.9-1.6c0-1-.6-1.6-1.9-1.6h-2.8v3.2s2.81.02 2.8 0zm5.6 2.4c0-2.9 1.9-4.9 4.6-4.9c2.7 0 4.5 1.9 4.5 4.6c0 .3-.1.7-.1 1.1h-6.7c.2 1.2 1.1 2.1 2.7 2.1c1.1 0 2-.7 2.6-1.4l1.2 1.5c-.8 1-2.2 1.8-3.9 1.8c-3.1 0-4.9-2.1-4.9-4.8zm2.3-1.1h4.5c-.1-1.2-.9-1.9-2.2-1.9c-1.2 0-2 .7-2.3 1.9zm14.7 4.6c-.7.8-1.7 1.3-2.9 1.3c-2.6 0-4.4-1.9-4.4-4.8c0-3 1.8-4.9 4.4-4.9c1.2 0 2.2.5 2.9 1.3c.02.01 0-1.1 0-1.1h2.3v9.3h-2.3s.02-1.06 0-1.1zm0-2.1v-2.8c-.4-.9-1.3-1.5-2.4-1.5c-1.5 0-2.6 1.1-2.6 2.9c0 1.8 1.1 2.8 2.6 2.8c1.1 0 2-.5 2.4-1.4zm3.9-6.1h2.3s.03 1.47 0 1.5c.6-1 1.5-1.7 2.7-1.7h.3s-.04 2.19 0 2.2c-1.4 0-2.5.4-3 1.8c.03-.01 0 5.5 0 5.5h-2.3v-9.3zm9.6-2.9s4.93-.04 4.9 0c3.6 0 6.1 2.1 6.1 6.1c0 3.9-2.5 6.1-6.1 6.1h-4.9V26.2zm2.3 2v8.2s2.51-.03 2.5 0c2.3 0 3.8-1.5 3.8-4.1c0-2.7-1.5-4.1-3.8-4.1c.01-.01-2.5 0-2.5 0zm9.9.9h2.3v9.3h-2.3v-9.3zm0-3.9h2.3v2.4h-2.3v-2.4zM192 31h-1.4v-1.9h1.4s.02-.51 0-.5c0-1.8 1.1-3.1 3.3-3.1h.8c.03.01 0 1.9 0 1.9c0 0-.37-.03-.4 0c-.8 0-1.4.3-1.4 1.2v.5h1.8v1.9h-1.8v7.4H192V31zm5.7 0h-1.4v-1.9h1.4v-.5c0-1.8 1.1-3.1 3.2-3.1h.9v1.9s-.38-.03-.4 0c-.8 0-1.4.3-1.4 1.2v.5h1.8v1.9H200v7.4h-2.3V31zm13.6 7.4H209s-.02-1.3 0-1.3c-.5.8-1.5 1.5-3 1.5c-2.4 0-3.5-1.6-3.5-4c.02-.02 0-5.5 0-5.5h2.3v5.2c0 1.5.7 2.3 2.1 2.3c1.1 0 1.8-.8 2.1-1.6c-.02-.04 0-5.9 0-5.9h2.3v9.3zm.8-1.6l1.2-1.4c.6.8 1.7 1.4 2.8 1.4c1 0 1.7-.4 1.7-1.1c0-.6-.6-.9-1.5-1l-.8-.1c-1.7-.3-2.8-1.3-2.8-2.8c0-1.6 1.4-2.9 3.7-2.9c1.5 0 2.6.6 3.3 1.4l-1.2 1.5c-.6-.7-1.3-1-2.2-1c-.8 0-1.3.4-1.3.9c0 .5.4.7 1.1.8l.8.1c2.1.4 3.2 1.4 3.2 3c0 1.6-1.5 3.1-4.1 3.1c-1.7 0-3.1-.9-3.9-1.9zm8.5-3c0-2.9 2-4.9 4.7-4.9c2.7 0 4.4 1.9 4.4 4.6c0 .3 0 .7-.1 1.1h-6.7c.2 1.2 1.1 2.1 2.7 2.1c1.1 0 2.1-.7 2.6-1.4l1.3 1.5c-.9 1-2.2 1.8-4 1.8c-3 0-4.9-2.1-4.9-4.8zm2.3-1.1h4.6c-.2-1.2-1-1.9-2.2-1.9c-1.2 0-2 .7-2.4 1.9zm7.9-3.6h2.3v1.5c.5-1 1.4-1.7 2.7-1.7h.2s.03 2.19 0 2.2c-1.3 0-2.5.4-2.9 1.8v5.5h-2.3v-9.3z" stroke="none" fill="#fff"/></g><g id="Polygon58652"><path d="m.1 2.2h2.3L5 11.3l2.8-9.1h2.5l2.8 9.1l2.6-9.1h2.3l-3.5 12.2h-2.6L9.1 5.3l-2.9 9.1H3.6L.1 2.2zm18.5 2.9h2.3v9.3h-2.3V5.1zm0-3.9h2.4v2.4h-2.4V1.2zm4 3.9h2.3s-.04 1.33 0 1.3c.5-.8 1.5-1.5 2.9-1.5c2.4 0 3.5 1.7 3.5 4c.02.05 0 5.5 0 5.5H29s.03-5.2 0-5.2c0-1.5-.7-2.3-2-2.3c-1.2 0-1.9.8-2.1 1.7c-.04-.03 0 5.8 0 5.8h-2.3V5.1zm9.7 4.2c0-2.6 1.7-4.4 4.3-4.4c1.1 0 2.1.5 2.8 1.3c-.03.01 0-1.1 0-1.1h2.3s-.05 7.72 0 7.7c0 3.4-2.4 4.9-4.9 4.9c-2.3 0-3.6-.8-4.3-1.8l1.4-1.5c.6.8 1.4 1.4 2.8 1.4c1.3 0 2.7-.8 2.7-2.8v-.5c-.7.7-1.7 1.3-2.8 1.3c-2.6 0-4.3-1.8-4.3-4.5zm7.1 1.2V8.2c-.4-.8-1.3-1.3-2.3-1.3c-1.5 0-2.5 1-2.5 2.4c0 1.5 1 2.5 2.5 2.5c1 0 1.9-.5 2.3-1.3zM43.1 8h5.3v1.9h-5.3V8zm7.4 2.9V7h-1.6V5.1h1.7V2.8h2.2v2.3h2.1v1.9h-2.1s-.02 3.96 0 4c0 1.2.5 1.6 1.7 1.6c-.01-.04.4 0 .4 0c0 0 .02 1.8 0 1.8c-.3.1-.7.1-1 .1c-2.3 0-3.4-1.1-3.4-3.6zm8.1 2.3l-3.7-8.1h2.4l2.5 5.6l2.3-5.6h2.5l-5.5 12.4h-2.4l1.9-4.3zm6.5-8.1h2.3s.01 1.13 0 1.1c.7-.7 1.7-1.3 2.9-1.3c2.6 0 4.5 1.9 4.5 4.9c0 2.9-1.9 4.8-4.5 4.8c-1.2 0-2.2-.5-2.9-1.3v4.2h-2.3V5.1zm7.3 4.7c0-1.8-1.1-2.9-2.6-2.9c-1 0-2 .6-2.4 1.5v2.8c.4.9 1.4 1.4 2.4 1.4c1.5 0 2.6-1 2.6-2.8zm3 0c0-2.9 1.9-4.9 4.6-4.9c2.7 0 4.5 1.9 4.5 4.6c0 .3 0 .7-.1 1.1h-6.7c.2 1.2 1.1 2.1 2.7 2.1c1.1 0 2.1-.7 2.6-1.4l1.3 1.5c-.9 1-2.3 1.8-4 1.8c-3 0-4.9-2.1-4.9-4.8zm2.3-1.1h4.5c-.1-1.2-.9-1.9-2.2-1.9c-1.1 0-2 .7-2.3 1.9zm10.4 3.2l1.5-1.5c.7 1.1 1.9 2.1 3.7 2.1c1.6 0 2.4-.7 2.4-1.7c0-.7-.6-1.3-2-1.5l-1.1-.2C90.4 8.8 89 7.5 89 5.6c0-2 1.7-3.7 4.4-3.7c1.9 0 3.5.8 4.3 2l-1.5 1.5c-.7-.9-1.7-1.4-2.8-1.4c-1.3 0-2 .7-2 1.4c0 .7.6 1.2 1.6 1.4l1.1.2c2.5.3 4 1.6 4 3.7c0 2.3-2 4-4.8 4c-2.8 0-4.4-1.5-5.2-2.8zm11.1-6.8h2.3s-.02 1.13 0 1.1c.6-.7 1.7-1.3 2.9-1.3c2.6 0 4.4 1.9 4.4 4.9c0 2.9-1.8 4.8-4.4 4.8c-1.2 0-2.3-.5-2.9-1.3c-.02.02 0 4.2 0 4.2h-2.3V5.1zm7.3 4.7c0-1.8-1.1-2.9-2.6-2.9c-1 0-2 .6-2.4 1.5v2.8c.4.9 1.4 1.4 2.4 1.4c1.5 0 2.6-1 2.6-2.8zm2.9 0c0-2.6 1.7-4.9 5-4.9c3.2 0 4.9 2.3 4.9 4.9c0 2.5-1.7 4.9-4.9 4.9c-3.3 0-5-2.4-5-4.9zm2.4 0c0 1.7 1.1 2.8 2.6 2.8c1.4 0 2.5-1.1 2.5-2.8c0-1.7-1.1-2.9-2.5-2.9c-1.5 0-2.6 1.2-2.6 2.9zm8.6-4.7h2.2v9.3h-2.2V5.1zm-.1-3.9h2.4v2.4h-2.4V1.2zm4 .4h2.3v12.8h-2.3V1.6zm3.4 8.2c0-2.9 2-4.9 4.7-4.9c2.7 0 4.4 1.9 4.4 4.6c0 .3 0 .7-.1 1.1H130c.2 1.2 1.1 2.1 2.7 2.1c1.1 0 2.1-.7 2.6-1.4l1.3 1.5c-.9 1-2.2 1.8-4 1.8c-3 0-4.9-2.1-4.9-4.8zm2.3-1.1h4.6c-.2-1.2-1-1.9-2.2-1.9c-1.2 0-2 .7-2.4 1.9zm7.9-3.6h2.3v1.5c.5-1 1.4-1.7 2.7-1.7h.2s.03 2.19 0 2.2c-1.3 0-2.5.4-2.9 1.8v5.5h-2.3V5.1zm6.3 10.1h-1.3v-2.7h2.8v2.4l-1.3 3h-1.3l1.1-2.7z" stroke="none" fill="#fff"/></g></svg>