<?xml version="1.0" standalone="no"?><!DOCTYPE svg PUBLIC "-//W3C//DTD SVG 1.1//EN" "http://www.w3.org/Graphics/SVG/1.1/DTD/svg11.dtd"><svg xmlns="http://www.w3.org/2000/svg" version="1.1" width="229px" height="30.1px" viewBox="0 -2 229 30.1" style="top:-2px"><desc>“I hope to see you soon !”</desc><defs/><g id="Polygon61755"><path d="m20.9 4.1h1.4l-1.1 2.5h1.2v2.7h-2.7V6.9l1.2-2.8zm-3.8 0h1.3l-1.1 2.5h1.3v2.7h-2.8V6.9l1.3-2.8zm7 1.1h2.3v12.2h-2.3V5.2zm7.5-.6h2.3s.02 4.83 0 4.8c.5-.8 1.5-1.5 3-1.5c2.4 0 3.5 1.7 3.5 4v5.5h-2.3v-5.2c0-1.5-.7-2.3-2.1-2.3c-1.2 0-1.9.9-2.1 1.7c.02-.03 0 5.8 0 5.8h-2.3V4.6zm9.8 8.2c0-2.6 1.7-4.9 4.9-4.9c3.2 0 4.9 2.3 4.9 4.9c0 2.5-1.7 4.9-4.9 4.9c-3.2 0-4.9-2.4-4.9-4.9zm2.3 0c0 1.7 1.1 2.8 2.6 2.8c1.5 0 2.6-1.1 2.6-2.8c0-1.7-1.1-2.9-2.6-2.9c-1.5 0-2.6 1.2-2.6 2.9zm8.6-4.7h2.3s-.01 1.13 0 1.1c.7-.7 1.7-1.3 2.9-1.3c2.6 0 4.5 1.9 4.5 4.9c0 2.9-1.9 4.8-4.5 4.8c-1.2 0-2.2-.5-2.9-1.3v4.2h-2.3V8.1zm7.3 4.7c0-1.8-1.1-2.9-2.6-2.9c-1 0-2 .6-2.4 1.5v2.8c.4.9 1.4 1.4 2.4 1.4c1.5 0 2.6-1 2.6-2.8zm3 0c0-2.9 1.9-4.9 4.6-4.9c2.7 0 4.5 1.9 4.5 4.6c0 .3-.1.7-.1 1.1h-6.7c.2 1.2 1.1 2.1 2.7 2.1c1.1 0 2.1-.7 2.6-1.4l1.3 1.5c-.9 1-2.3 1.8-4 1.8c-3 0-4.9-2.1-4.9-4.8zm2.3-1.1h4.5c-.1-1.2-.9-1.9-2.2-1.9c-1.2 0-2 .7-2.3 1.9zm11.9 2.2c-.02-.05 0-3.9 0-3.9h-1.6V8.1h1.7V5.8h2.2v2.3h2.1v1.9h-2.1s-.03 3.96 0 4c0 1.2.5 1.6 1.7 1.6c-.02-.04.4 0 .4 0c0 0 .01 1.8 0 1.8c-.3.1-.7.1-1 .1c-2.3 0-3.4-1.1-3.4-3.6zm4.9-1.1c0-2.6 1.7-4.9 4.9-4.9c3.2 0 4.9 2.3 4.9 4.9c0 2.5-1.7 4.9-4.9 4.9c-3.2 0-4.9-2.4-4.9-4.9zm2.3 0c0 1.7 1.1 2.8 2.6 2.8c1.5 0 2.6-1.1 2.6-2.8c0-1.7-1.1-2.9-2.6-2.9c-1.5 0-2.6 1.2-2.6 2.9zm11.1 3l1.3-1.4c.6.8 1.6 1.4 2.7 1.4c1 0 1.7-.4 1.7-1.1c0-.6-.5-.9-1.4-1l-.8-.1c-1.8-.3-2.8-1.3-2.8-2.8c0-1.6 1.4-2.9 3.7-2.9c1.4 0 2.6.6 3.2 1.4l-1.2 1.5c-.6-.7-1.3-1-2.1-1c-.9 0-1.3.4-1.3.9c0 .5.3.7 1 .8l.8.1c2.2.4 3.2 1.4 3.2 3c0 1.6-1.4 3.1-4.1 3.1c-1.7 0-3-.9-3.9-1.9zm8.6-3c0-2.9 1.9-4.9 4.6-4.9c2.7 0 4.5 1.9 4.5 4.6c0 .3-.1.7-.1 1.1H106c.2 1.2 1.1 2.1 2.7 2.1c1.1 0 2-.7 2.6-1.4l1.2 1.5c-.8 1-2.2 1.8-3.9 1.8c-3.1 0-4.9-2.1-4.9-4.8zm2.3-1.1h4.5c-.1-1.2-.9-1.9-2.2-1.9c-1.2 0-2 .7-2.3 1.9zm7.4 1.1c0-2.9 1.9-4.9 4.6-4.9c2.7 0 4.5 1.9 4.5 4.6c0 .3-.1.7-.1 1.1h-6.7c.2 1.2 1.1 2.1 2.7 2.1c1.1 0 2-.7 2.6-1.4l1.2 1.5c-.8 1-2.2 1.8-3.9 1.8c-3.1 0-4.9-2.1-4.9-4.8zm2.3-1.1h4.5c-.1-1.2-.9-1.9-2.2-1.9c-1.2 0-2 .7-2.3 1.9zm13.9 4.5l-3.7-8.1h2.4l2.5 5.6l2.3-5.6h2.5l-5.5 12.4h-2.5l2-4.3zm6-3.4c0-2.6 1.7-4.9 4.9-4.9c3.2 0 4.9 2.3 4.9 4.9c0 2.5-1.7 4.9-4.9 4.9c-3.2 0-4.9-2.4-4.9-4.9zm2.3 0c0 1.7 1.1 2.8 2.6 2.8c1.5 0 2.6-1.1 2.6-2.8c0-1.7-1.1-2.9-2.6-2.9c-1.5 0-2.6 1.2-2.6 2.9zm17.3 4.6h-2.3s-.03-1.3 0-1.3c-.5.8-1.5 1.5-3 1.5c-2.4 0-3.5-1.6-3.5-4V8.1h2.3v5.2c0 1.5.7 2.3 2 2.3c1.2 0 1.9-.8 2.2-1.6c-.03-.04 0-5.9 0-5.9h2.3v9.3zm4.1-1.6l1.3-1.4c.6.8 1.6 1.4 2.7 1.4c1 0 1.7-.4 1.7-1.1c0-.6-.6-.9-1.4-1l-.9-.1c-1.7-.3-2.7-1.3-2.7-2.8c0-1.6 1.3-2.9 3.6-2.9c1.5 0 2.6.6 3.3 1.4l-1.2 1.5c-.6-.7-1.3-1-2.1-1c-.9 0-1.4.4-1.4.9c0 .5.4.7 1.1.8l.8.1c2.1.4 3.2 1.4 3.2 3c0 1.6-1.5 3.1-4.1 3.1c-1.7 0-3-.9-3.9-1.9zm8.5-3c0-2.6 1.7-4.9 4.9-4.9c3.2 0 4.9 2.3 4.9 4.9c0 2.5-1.7 4.9-4.9 4.9c-3.2 0-4.9-2.4-4.9-4.9zm2.3 0c0 1.7 1.1 2.8 2.6 2.8c1.5 0 2.6-1.1 2.6-2.8c0-1.7-1.1-2.9-2.6-2.9c-1.5 0-2.6 1.2-2.6 2.9zm8.1 0c0-2.6 1.7-4.9 4.9-4.9c3.2 0 4.9 2.3 4.9 4.9c0 2.5-1.7 4.9-4.9 4.9c-3.2 0-4.9-2.4-4.9-4.9zm2.3 0c0 1.7 1.1 2.8 2.6 2.8c1.5 0 2.6-1.1 2.6-2.8c0-1.7-1.1-2.9-2.6-2.9c-1.5 0-2.6 1.2-2.6 2.9zm8.6-4.7h2.3s.02 1.33 0 1.3c.5-.8 1.5-1.5 3-1.5c2.4 0 3.5 1.7 3.5 4c-.02.05 0 5.5 0 5.5h-2.3v-5.2c0-1.5-.7-2.3-2.1-2.3c-1.1 0-1.8.8-2.1 1.7c.02-.03 0 5.8 0 5.8h-2.3V8.1zm13.7-2.9h2.4l-.5 8.1h-1.4l-.5-8.1zm-.2 9.4h2.8v2.8h-2.8v-2.8zm4.1-10.5h2.7v2.4l-1.2 2.8h-1.4l1.1-2.5h-1.2V4.1zm3.8 0h2.8v2.4l-1.2 2.8h-1.4l1.1-2.5h-1.3V4.1z" stroke="none" fill="#000"/></g></svg>