<?xml version="1.0" standalone="no"?><!DOCTYPE svg PUBLIC "-//W3C//DTD SVG 1.1//EN" "http://www.w3.org/Graphics/SVG/1.1/DTD/svg11.dtd"><svg xmlns="http://www.w3.org/2000/svg" version="1.1" width="82.1px" height="29px" viewBox="0 -1 82.1 29" style="top:-1px"><desc>스텝 01-2@4세일즈톡</desc><defs/><g id="Polygon57334"><path d="m5.7 8.7c1.5 0 2.7.8 3.2 2.1l-1.1.5c-.3-1-1.1-1.5-2.1-1.5c-1.4 0-2.4 1.1-2.4 3c0 1.9 1 3 2.4 3c1 0 1.8-.5 2.1-1.4l1.1.5C8.4 16.2 7.2 17 5.7 17C3.4 17 2 15.3 2 12.8c0-2.4 1.4-4.1 3.7-4.1zm5.9-3.3v11.4h-1.3V5.4h1.3zM15 8.9v7.9h-1.2V8.9h1.2zm.2-3.5v1.6h-1.6V5.4h1.6zm5.2 3.3c1.5 0 2.7.8 3.1 2.1l-1 .5c-.4-1-1.1-1.5-2.1-1.5c-1.5 0-2.4 1.1-2.4 3c0 1.9.9 3 2.4 3c1 0 1.7-.5 2.1-1.4l1 .5c-.4 1.3-1.6 2.1-3.1 2.1c-2.3 0-3.7-1.7-3.7-4.2c0-2.4 1.4-4.1 3.7-4.1zm7.1 4.3l-1.2 1.3v2.5H25V5.4h1.3v7.3l3.4-3.8h1.5l-2.9 3.2l3.3 4.7h-1.5L27.5 13zm8.9 1.3V10H35V8.9h1.4V6.8h1.3v2.1h1.7v1.1h-1.7s-.03 4.27 0 4.3c0 1.1.4 1.4 1.5 1.4c.02.03.2 0 .2 0c0 0 .04 1.12 0 1.1c-.1 0-.3.1-.5.1c-1.7 0-2.5-.8-2.5-2.6zm10.1-1.5c0-1.9-.9-3-2.4-3c-1.4 0-2.4 1.1-2.4 3c0 1.9 1 3 2.4 3c1.5 0 2.4-1.1 2.4-3zm1.4 0c0 2.5-1.5 4.2-3.8 4.2c-2.2 0-3.7-1.7-3.7-4.2c0-2.4 1.5-4.1 3.7-4.1c2.3 0 3.8 1.7 3.8 4.1zm4.9-3.9h1.2s.02 1.05 0 1.1c.4-.7 1.3-1.3 2.4-1.3c1.9 0 2.9 1.2 2.9 3.2v4.9H58s.03-4.82 0-4.8c0-1.4-.7-2.2-1.9-2.2c-1.1 0-1.8.7-2 1.4c-.04.05 0 5.6 0 5.6h-1.3V8.9zm8.1 3.9c0-2.5 1.4-4.1 3.6-4.1c2.1 0 3.4 1.7 3.4 3.9v.6h-5.7c.1 1.7 1 2.6 2.4 2.6c1 0 1.8-.4 2.2-1.1l.9.7c-.6.9-1.6 1.6-3.2 1.6c-2.2 0-3.6-1.6-3.6-4.2zm1.3-.7h4.4c-.1-1.4-.9-2.3-2.1-2.3c-1.3 0-2.1.9-2.3 2.3zm10.6.7l2.6 4H74l-2.1-3.2l-2 3.2h-1.5l2.6-4l-2.5-3.9h1.5l1.9 3.1l1.9-3.1h1.5l-2.5 3.9zm4.4 1.5V10h-1.4V8.9h1.4V6.8h1.3v2.1h1.8v1.1h-1.8s-.02 4.27 0 4.3c0 1.1.5 1.4 1.5 1.4c.03.03.3 0 .3 0c0 0-.04 1.12 0 1.1c-.2 0-.4.1-.6.1c-1.7 0-2.5-.8-2.5-2.6z" stroke="none" fill="#e93312"/></g></svg>