<?xml version="1.0" standalone="no"?><!DOCTYPE svg PUBLIC "-//W3C//DTD SVG 1.1//EN" "http://www.w3.org/Graphics/SVG/1.1/DTD/svg11.dtd"><svg xmlns="http://www.w3.org/2000/svg" version="1.1" width="147px" height="33.3px" viewBox="0 -1 147 33.3" style="top:-1px"><desc>스텝 01@스타트A</desc><defs/><g id="Polygon57565"><path d="m25 13.1c0-3.6 2.6-6.3 6.1-6.3c2.5 0 4.4 1.2 5.5 3.1l-1.3.9c-.8-1.5-2.2-2.5-4.2-2.5c-2.6 0-4.4 2.1-4.4 4.8c0 2.7 1.8 4.8 4.4 4.8c2 0 3.4-1 4.2-2.5l1.3.9c-1.1 1.9-3 3.1-5.5 3.1c-3.5 0-6.1-2.7-6.1-6.3zm12.8-6.6h1.6v12.7h-1.6V6.5zm3.5 3.7h1.7v9h-1.7v-9zm0-4h1.7v2h-1.7v-2zm3 8.5c0-2.6 1.8-4.7 4.7-4.7c1.7 0 3.1.9 3.9 2.3l-1.2.8c-.5-1-1.5-1.6-2.7-1.6c-1.7 0-3 1.2-3 3.2c0 2 1.3 3.3 3 3.3c1.2 0 2.2-.7 2.7-1.7l1.2.8c-.8 1.5-2.2 2.3-3.9 2.3c-2.9 0-4.7-2.1-4.7-4.7zm9.9-8.2h1.6v8l4.2-4.3h1.9v.1L58.3 14l4.1 5.2h-1.9L57.2 15l-1.4 1.5v2.7h-1.6V6.5zm13.1 9.6c-.02-.03 0-4.6 0-4.6h-1.6v-1.3h1.6V7.9h1.6v2.3h2.2v1.3h-2.2v4.6c0 1.4.6 1.8 1.9 1.8c.03.02.3 0 .3 0v1.4h-.7c-2.1 0-3.1-1-3.1-3.2zm4.4-1.4c0-2.6 1.8-4.7 4.7-4.7c2.9 0 4.6 2.1 4.6 4.7c0 2.6-1.7 4.7-4.6 4.7c-2.9 0-4.7-2.1-4.7-4.7zm7.7 0c0-1.9-1.4-3.2-3-3.2c-1.7 0-3 1.3-3 3.2c0 2 1.3 3.3 3 3.3c1.6 0 3-1.3 3-3.3zm5.8 1.9l1.2-1.1c.6 1.2 1.8 2.4 3.8 2.4c1.9 0 2.9-1 2.9-2.2c0-1.1-.9-1.8-2.4-2l-1.2-.2c-2-.3-3.4-1.5-3.4-3.3c0-1.8 1.6-3.4 4.2-3.4c1.9 0 3.3.8 4.2 2l-1.2 1.1c-.8-1.1-1.8-1.6-3-1.6c-1.5 0-2.5.9-2.5 1.8c0 1 .8 1.6 2 1.8l1.1.2c2.4.3 3.9 1.5 3.9 3.5c0 2.2-1.8 3.8-4.6 3.8c-2.7 0-4.2-1.4-5-2.8zm11.5-.5c-.03-.03 0-4.6 0-4.6h-1.6v-1.3h1.6V7.9h1.6v2.3h2.2v1.3h-2.2v4.6c0 1.4.6 1.8 1.9 1.8c.02.02.3 0 .3 0v1.4h-.7c-2.1 0-3.1-1-3.1-3.2zm11.8 1.9c-.7.9-1.8 1.4-3.1 1.4c-2.5 0-4.4-1.9-4.4-4.7c0-2.8 1.9-4.7 4.4-4.7c1.3 0 2.4.6 3.1 1.5v-1.3h1.6v9h-1.6V18zm0-1.7v-3.1c-.5-1-1.5-1.7-2.8-1.7c-1.7 0-3 1.2-3 3.2c0 2 1.3 3.3 3 3.3c1.3 0 2.3-.7 2.8-1.7zm3.6-6.1h1.6s-.02 1.56 0 1.6c.5-1 1.4-1.8 2.8-1.8c.03.02.2 0 .2 0c0 0 .03 1.58 0 1.6c-1.4 0-2.5.6-3 2c-.02.02 0 5.6 0 5.6h-1.6v-9zm6.2 5.9c.03-.03 0-4.6 0-4.6h-1.5v-1.3h1.6V7.9h1.5v2.3h2.3v1.3h-2.3s.05 4.62 0 4.6c0 1.4.6 1.8 2 1.8c-.03.02.3 0 .3 0c0 0-.04 1.35 0 1.4h-.8c-2 0-3.1-1-3.1-3.2z" stroke="none" fill="#e93312"/></g></svg>