<?xml version="1.0" standalone="no"?><!DOCTYPE svg PUBLIC "-//W3C//DTD SVG 1.1//EN" "http://www.w3.org/Graphics/SVG/1.1/DTD/svg11.dtd"><svg xmlns="http://www.w3.org/2000/svg" version="1.1" width="366.5px" height="408.4px" viewBox="0 -5 366.5 408.4" style="top:-5px"><desc>① “ Pressing the N button to engage the N Drive Mode transforms the screen into a one circle, high performance themed...</desc><defs/><g id="Polygon61351"><path d="m27 333.7c0-1.7 1.3-3 3.3-3c.9 0 1.8.4 2.5 1.1v-.9c0-1.3-.7-2.3-2.2-2.3c-1.1 0-1.6.3-2.3 1l-.8-1c.7-.7 1.6-1.3 3.1-1.3c2.4 0 3.6 1.4 3.6 3.5c.02-.03 0 5.6 0 5.6h-1.4s.03-.88 0-.9c-.6.7-1.6 1.1-2.5 1.1c-2 0-3.3-1.3-3.3-2.9zm5.8.6v-1.2c-.5-.8-1.5-1.2-2.3-1.2c-1.5 0-2 1-2 1.8c0 .8.5 1.7 2 1.7c.8 0 1.8-.3 2.3-1.1zm3.7-6.8h1.4v1.2c.5-.7 1.5-1.4 2.7-1.4c2.1 0 3.3 1.3 3.3 3.5c-.03.04 0 5.6 0 5.6h-1.5s.03-5.42 0-5.4c0-1.6-.8-2.4-2.1-2.4c-1.2 0-2.1.7-2.3 1.6c-.04-.05 0 6.2 0 6.2h-1.5v-8.9zm15.8 7.6c-.6.9-1.7 1.5-2.8 1.5c-2.4 0-3.9-1.9-3.9-4.7c0-2.7 1.5-4.6 3.9-4.6c1.1 0 2.1.5 2.8 1.4v-5.1h1.4v12.8h-1.4s.04-1.26 0-1.3zm0-1.4v-3.5c-.4-1-1.4-1.6-2.5-1.6c-1.7 0-2.7 1.2-2.7 3.3c0 2.1 1 3.4 2.7 3.4c1.1 0 2.1-.6 2.5-1.6zm12.1-4.2c-.6-.7-1.2-1-2-1c-.9 0-1.3.6-1.3 1.2c0 .7.4 1.1 1.1 1.2l.8.2c1.7.4 2.7 1.1 2.7 2.7c0 1.4-1.3 2.8-3.4 2.8c-1.6 0-2.7-.9-3.4-1.9l1-.8c.5.8 1.3 1.5 2.5 1.5c1.1 0 1.8-.6 1.8-1.5c0-.8-.6-1.2-1.6-1.4l-.8-.2c-1.4-.3-2.2-1.1-2.2-2.4c0-1.4 1-2.6 2.9-2.6c1.2 0 2.2.6 2.8 1.4l-.9.8zm3-2h1.4v1.3c.7-.9 1.7-1.5 2.9-1.5c2.3 0 3.8 1.9 3.8 4.6c0 2.8-1.5 4.7-3.8 4.7c-1.2 0-2.2-.5-2.8-1.4c-.03.01 0 4.6 0 4.6h-1.5v-12.3zm6.7 4.4c0-2.1-1.1-3.3-2.7-3.3c-1.2 0-2.1.6-2.5 1.6v3.5c.4 1 1.3 1.6 2.5 1.6c1.6 0 2.7-1.3 2.7-3.4zm9.7 0c0-2.1-1.1-3.3-2.8-3.3c-1.6 0-2.7 1.2-2.7 3.3c0 2.2 1.1 3.4 2.7 3.4c1.7 0 2.8-1.2 2.8-3.4zm1.4 0c0 2.8-1.6 4.7-4.2 4.7c-2.5 0-4.2-1.9-4.2-4.7c0-2.7 1.7-4.6 4.2-4.6c2.6 0 4.2 1.9 4.2 4.6zm1.9-4.4h1.4s-.03 1.57 0 1.6c.5-1 1.3-1.8 2.6-1.8h.4v1.5s-.49-.03-.5 0c-1.2 0-2 .6-2.5 2c.02-.03 0 5.6 0 5.6h-1.4v-8.9zm6.4 6.1v-4.9h-1.6v-1.2h1.6v-2.3h1.4v2.3h2v1.2h-2s.03 4.86 0 4.9c0 1.2.6 1.6 1.8 1.6h.2s.03 1.22 0 1.2c-.2.1-.4.1-.6.1c-1.9 0-2.8-.9-2.8-2.9zm7.5 1.9l-3.4-8h1.5s2.08 5.08 2.1 5.1c.2.7.5 1.3.5 1.6c.1-.5.3-.9.5-1.6c.02-.02 1.9-5.1 1.9-5.1h1.6l-4.9 12.3h-1.6l1.8-4.3zm15.9-.4c-.6.9-1.7 1.5-2.8 1.5c-2.4 0-3.9-1.9-3.9-4.7c0-2.7 1.5-4.6 3.9-4.6c1.1 0 2.1.5 2.8 1.4c-.03-.02 0-5.1 0-5.1h1.4v12.8h-1.4s.03-1.26 0-1.3zm0-1.4v-3.5c-.4-1-1.4-1.6-2.5-1.6c-1.7 0-2.7 1.2-2.7 3.3c0 2.1 1 3.4 2.7 3.4c1.1 0 2.1-.6 2.5-1.6zm3.8-6.2h1.4v1.6c.5-1 1.4-1.8 2.7-1.8h.3c.03.01 0 1.5 0 1.5c0 0-.45-.03-.5 0c-1.1 0-2 .6-2.4 2c-.04-.03 0 5.6 0 5.6h-1.5v-8.9zm7.2 0v8.9h-1.4v-8.9h1.4zm.2-3.9v1.8h-1.8v-1.8h1.8zm1.3 3.9h1.5s2.05 5.73 2 5.7c.3.7.5 1.4.5 1.7h.1c0-.3.2-1 .5-1.7c-.05.03 2-5.7 2-5.7h1.5l-3.3 8.9h-1.5l-3.3-8.9zm11 0v8.9H139v-8.9h1.4zm.2-3.9v1.8h-1.8v-1.8h1.8zm2.2 3.9h1.4v1.2c.5-.7 1.5-1.4 2.7-1.4c2.1 0 3.3 1.3 3.3 3.5c-.05.04 0 5.6 0 5.6h-1.5V331c0-1.6-.8-2.4-2.1-2.4c-1.3 0-2.1.7-2.4 1.6c.05-.05 0 6.2 0 6.2h-1.4v-8.9zm9.1 4.2c0-2.6 1.5-4.4 3.7-4.4c1.1 0 2.2.5 2.8 1.4c.02.01 0-1.2 0-1.2h1.4v8.1c0 2.3-1.3 4.4-4 4.4c-1.9 0-3.1-1-3.7-2.2l1.1-.7c.4.9 1.3 1.6 2.5 1.6c1.9 0 2.7-1.4 2.7-3v-1c-.7.8-1.7 1.4-2.8 1.4c-2.2 0-3.7-1.9-3.7-4.4zm6.5 1.5v-3.1c-.5-.9-1.4-1.5-2.5-1.5c-1.6 0-2.5 1.2-2.5 3.1c0 1.9.9 3.1 2.5 3.1c1.1 0 2-.6 2.5-1.6zm6.9-1.3c0-2.8 1.6-4.6 4.1-4.6c2.4 0 3.9 1.8 3.9 4.4c0 .2 0 .5-.1.7h-6.3c.1 1.8 1.1 2.9 2.6 2.9c1.1 0 2-.4 2.6-1.3l.9.8c-.6 1-1.8 1.8-3.6 1.8c-2.5 0-4.1-1.8-4.1-4.7zm1.6-.7h4.9c-.1-1.6-1.1-2.6-2.4-2.6c-1.4 0-2.3.9-2.5 2.6zm11.9.7l2.9 4.4v.1h-1.6l-2.3-3.7l-2.3 3.7h-1.7v-.1l3-4.4l-2.8-4.4h1.6l2.2 3.4l2.1-3.4h1.7l-2.8 4.4zm4.3-4.4h1.4s-.02 1.25 0 1.3c.6-.9 1.7-1.5 2.8-1.5c2.4 0 3.9 1.9 3.9 4.6c0 2.8-1.5 4.7-3.9 4.7c-1.1 0-2.1-.5-2.8-1.4c.03.01 0 4.6 0 4.6h-1.4v-12.3zm6.6 4.4c0-2.1-1-3.3-2.7-3.3c-1.1 0-2.1.6-2.5 1.6v3.5c.4 1 1.4 1.6 2.5 1.6c1.7 0 2.7-1.3 2.7-3.4zm2.8 0c0-2.8 1.6-4.6 4.1-4.6c2.4 0 3.8 1.8 3.8 4.4v.7H194c.1 1.8 1.1 2.9 2.7 2.9c1.1 0 2-.4 2.5-1.3l1 .8c-.7 1-1.8 1.8-3.6 1.8c-2.5 0-4.1-1.8-4.1-4.7zm1.5-.7h4.9c-.1-1.6-1-2.6-2.3-2.6c-1.4 0-2.3.9-2.6 2.6zm8.2-3.7h1.4v1.6c.5-1 1.4-1.8 2.6-1.8h.4c.02.01 0 1.5 0 1.5c0 0-.47-.03-.5 0c-1.2 0-2 .6-2.5 2c.05-.03 0 5.6 0 5.6h-1.4v-8.9zm7.2 0v8.9H208v-8.9h1.4zm.2-3.9v1.8h-1.8v-1.8h1.8zm1.7 8.3c0-2.8 1.6-4.6 4-4.6c2.4 0 3.9 1.8 3.9 4.4v.7h-6.4c.1 1.8 1.1 2.9 2.7 2.9c1.1 0 2-.4 2.5-1.3l1 .8c-.7 1-1.9 1.8-3.6 1.8c-2.6 0-4.1-1.8-4.1-4.7zm1.5-.7h4.9c-.1-1.6-1-2.6-2.4-2.6c-1.3 0-2.3.9-2.5 2.6zm8.2-3.7h1.4s-.03 1.2 0 1.2c.4-.7 1.4-1.4 2.7-1.4c2.1 0 3.2 1.3 3.2 3.5c.03.04 0 5.6 0 5.6h-1.4V331c0-1.6-.8-2.4-2.2-2.4c-1.2 0-2 .7-2.3 1.6c.02-.05 0 6.2 0 6.2H221v-8.9zm13.2-.2c1.7 0 3.1.9 3.6 2.3l-1.2.6c-.4-1.1-1.3-1.6-2.4-1.6c-1.6 0-2.6 1.2-2.6 3.3c0 2.2 1 3.4 2.6 3.4c1.1 0 2-.6 2.4-1.6l1.2.5c-.5 1.5-1.9 2.4-3.6 2.4c-2.6 0-4.1-1.9-4.1-4.7c0-2.7 1.5-4.6 4.1-4.6zm4.7 4.6c0-2.8 1.6-4.6 4-4.6c2.4 0 3.9 1.8 3.9 4.4v.7h-6.4c.1 1.8 1.1 2.9 2.7 2.9c1.1 0 2-.4 2.5-1.3l1 .8c-.7 1-1.9 1.8-3.6 1.8c-2.6 0-4.1-1.8-4.1-4.7zm1.5-.7h4.9c-.1-1.6-1-2.6-2.4-2.6c-1.3 0-2.3.9-2.5 2.6zm8 4h2.1v2.2h-2.1v-2.2zm4.3-7.2l.8-2.9h-1v-1.8h2.1v1.6l-.9 3.1h-1zm3.5 0l.9-2.9h-1v-1.8h2v1.6l-.8 3.1h-1.1z" stroke="none" fill="#fff"/></g><g id="Polygon61350"><path d="m27.7 303.5h1.4s-.03 1.25 0 1.3c.6-.9 1.7-1.5 2.8-1.5c2.4 0 3.9 1.9 3.9 4.6c0 2.8-1.5 4.7-3.9 4.7c-1.1 0-2.1-.5-2.8-1.4c.02.01 0 4.6 0 4.6h-1.4v-12.3zm6.6 4.4c0-2.1-1-3.3-2.7-3.3c-1.1 0-2.1.6-2.5 1.6v3.5c.4 1 1.4 1.6 2.5 1.6c1.7 0 2.7-1.3 2.7-3.4zm3.4-4.4h1.3s.04 1.57 0 1.6c.5-1 1.4-1.8 2.7-1.8h.4c-.03.01 0 1.5 0 1.5c0 0-.52-.03-.5 0c-1.2 0-2.1.6-2.5 2v5.6h-1.4v-8.9zm5.2 4.4c0-2.8 1.6-4.6 4-4.6c2.4 0 3.9 1.8 3.9 4.4v.7h-6.4c.1 1.8 1.1 2.9 2.7 2.9c1.1 0 2-.4 2.5-1.3l1 .8c-.7 1-1.9 1.8-3.6 1.8c-2.6 0-4.1-1.8-4.1-4.7zm1.5-.7h4.9c-.1-1.6-1-2.6-2.4-2.6c-1.3 0-2.3.9-2.5 2.6zm8.7-2.5h-1.5v-1.2h1.5s-.02-1.34 0-1.3c0-1.6.9-2.7 2.6-2.7h.8c-.02.05 0 1.2 0 1.2c0 0-.45.04-.4 0c-1.1 0-1.6.5-1.6 1.5c.02-.02 0 1.3 0 1.3h2v1.2h-2v7.7h-1.4v-7.7zm4.1 3.2c0-2.8 1.6-4.6 4-4.6c2.4 0 3.9 1.8 3.9 4.4v.7h-6.4c.1 1.8 1.1 2.9 2.7 2.9c1.1 0 2-.4 2.5-1.3l1 .8c-.7 1-1.8 1.8-3.6 1.8c-2.5 0-4.1-1.8-4.1-4.7zm1.5-.7h4.9c-.1-1.6-1-2.6-2.4-2.6c-1.3 0-2.3.9-2.5 2.6zm8.2-3.7h1.4s-.03 1.57 0 1.6c.5-1 1.3-1.8 2.6-1.8h.4v1.5s-.49-.03-.5 0c-1.2 0-2 .6-2.5 2c.03-.03 0 5.6 0 5.6h-1.4v-8.9zm5.2 4.4c0-2.8 1.6-4.6 4.1-4.6c2.4 0 3.8 1.8 3.8 4.4v.7h-6.4c.1 1.8 1.1 2.9 2.7 2.9c1.1 0 2-.4 2.5-1.3l1 .8c-.7 1-1.8 1.8-3.6 1.8c-2.5 0-4.1-1.8-4.1-4.7zm1.5-.7h4.9c-.1-1.6-1-2.6-2.3-2.6c-1.4 0-2.3.9-2.6 2.6zm8.2-3.7h1.4v1.2c.5-.7 1.5-1.4 2.7-1.4c2.1 0 3.3 1.3 3.3 3.5c-.05.04 0 5.6 0 5.6h-1.5V307c0-1.6-.8-2.4-2.1-2.4c-1.3 0-2.1.7-2.4 1.6c.05-.05 0 6.2 0 6.2h-1.4v-8.9zm13.2-.2c1.7 0 3.1.9 3.6 2.3l-1.1.6c-.5-1.1-1.3-1.6-2.5-1.6c-1.6 0-2.6 1.2-2.6 3.3c0 2.2 1 3.4 2.6 3.4c1.2 0 2-.6 2.5-1.6l1.1.5c-.5 1.5-1.9 2.4-3.6 2.4c-2.6 0-4.1-1.9-4.1-4.7c0-2.7 1.5-4.6 4.1-4.6zm4.7 4.6c0-2.8 1.6-4.6 4.1-4.6c2.3 0 3.8 1.8 3.8 4.4v.7h-6.4c.1 1.8 1.1 2.9 2.7 2.9c1.1 0 2-.4 2.5-1.3l1 .8c-.7 1-1.8 1.8-3.6 1.8c-2.5 0-4.1-1.8-4.1-4.7zm1.5-.7h4.9c-.1-1.6-1-2.6-2.3-2.6c-1.4 0-2.4.9-2.6 2.6zm12.7-1.7c-.5-.7-1.1-1-1.9-1c-.9 0-1.4.6-1.4 1.2c0 .7.5 1.1 1.2 1.2l.8.2c1.6.4 2.7 1.1 2.7 2.7c0 1.4-1.3 2.8-3.4 2.8c-1.6 0-2.7-.9-3.4-1.9l1-.8c.5.8 1.3 1.5 2.4 1.5c1.2 0 1.9-.6 1.9-1.5c0-.8-.7-1.2-1.7-1.4l-.7-.2c-1.4-.3-2.2-1.1-2.2-2.4c0-1.4 1-2.6 2.8-2.6c1.3 0 2.3.6 2.9 1.4l-1 .8zm3.1 10.9l.9-3h-1.1v-2.2h2.3v2l-1 3.2H117zm8-12.9h1.4s-.04 1.57 0 1.6c.4-1 1.3-1.8 2.6-1.8h.4c-.02.01 0 1.5 0 1.5c0 0-.5-.03-.5 0c-1.2 0-2.1.6-2.5 2v5.6H125v-8.9zm5.2 4.4c0-2.8 1.6-4.6 4-4.6c2.4 0 3.9 1.8 3.9 4.4v.7h-6.4c.1 1.8 1.1 2.9 2.7 2.9c1.1 0 2-.4 2.5-1.3l1 .8c-.7 1-1.8 1.8-3.6 1.8c-2.5 0-4.1-1.8-4.1-4.7zm1.5-.7h4.9c-.1-1.6-1-2.6-2.4-2.6c-1.3 0-2.3.9-2.5 2.6zm12.7-1.7c-.5-.7-1.2-1-1.9-1c-.9 0-1.4.6-1.4 1.2c0 .7.4 1.1 1.2 1.2l.7.2c1.7.4 2.7 1.1 2.7 2.7c0 1.4-1.2 2.8-3.3 2.8c-1.6 0-2.7-.9-3.4-1.9l.9-.8c.6.8 1.4 1.5 2.5 1.5c1.1 0 1.9-.6 1.9-1.5c0-.8-.7-1.2-1.7-1.4l-.7-.2c-1.4-.3-2.2-1.1-2.2-2.4c0-1.4 1-2.6 2.8-2.6c1.3 0 2.3.6 2.9 1.4l-1 .8zm10.3 6.9h-1.4s.04-1.21 0-1.2c-.4.7-1.4 1.4-2.7 1.4c-2 0-3.2-1.3-3.2-3.6c-.02.03 0-5.5 0-5.5h1.4s.02 5.39 0 5.4c0 1.6.8 2.4 2.2 2.4c1.2 0 2-.7 2.3-1.6v-6.2h1.4v8.9zm3.9-12.8v12.8h-1.5v-12.8h1.5zm3 10c.02-.04 0-4.9 0-4.9H160v-1.2h1.6v-2.3h1.5v2.3h2v1.2h-2s-.04 4.86 0 4.9c0 1.2.5 1.6 1.7 1.6h.3s-.04 1.22 0 1.2c-.2.1-.5.1-.7.1c-1.8 0-2.8-.9-2.8-2.9zm6.5-6.1v8.9h-1.4v-8.9h1.4zm.2-3.9v1.8h-1.8v-1.8h1.8zm2.2 3.9h1.4s.03 1.2 0 1.2c.5-.7 1.5-1.4 2.8-1.4c2 0 3.2 1.3 3.2 3.5v5.6h-1.4s-.05-5.42 0-5.4c0-1.6-.8-2.4-2.2-2.4c-1.2 0-2.1.7-2.3 1.6v6.2h-1.5v-8.9zm9.1 4.2c0-2.6 1.5-4.4 3.7-4.4c1.2 0 2.2.5 2.9 1.4c-.05.01 0-1.2 0-1.2h1.3s.04 8.13 0 8.1c0 2.3-1.2 4.4-4 4.4c-1.9 0-3.1-1-3.6-2.2l1-.7c.5.9 1.3 1.6 2.6 1.6c1.9 0 2.6-1.4 2.6-3v-1c-.6.8-1.6 1.4-2.8 1.4c-2.2 0-3.7-1.9-3.7-4.4zm6.5 1.5v-3.1c-.4-.9-1.3-1.5-2.4-1.5c-1.6 0-2.6 1.2-2.6 3.1c0 1.9 1 3.1 2.6 3.1c1.1 0 2-.6 2.4-1.6zm9-5.7v8.9h-1.5v-8.9h1.5zm.2-3.9v1.8h-1.8v-1.8h1.8zm2.2 3.9h1.4s-.02 1.2 0 1.2c.4-.7 1.5-1.4 2.7-1.4c2.1 0 3.2 1.3 3.2 3.5c.04.04 0 5.6 0 5.6h-1.4V307c0-1.6-.8-2.4-2.2-2.4c-1.2 0-2 .7-2.3 1.6c.03-.05 0 6.2 0 6.2h-1.4v-8.9zm12.6 6.2c0-1.7 1.3-3 3.3-3c1 0 1.9.4 2.5 1.1v-.9c0-1.3-.7-2.3-2.2-2.3c-1 0-1.6.3-2.2 1l-.8-1c.6-.7 1.5-1.3 3.1-1.3c2.3 0 3.6 1.4 3.6 3.5c-.04-.03 0 5.6 0 5.6H216s-.02-.88 0-.9c-.7.7-1.6 1.1-2.6 1.1c-2 0-3.3-1.3-3.3-2.9zm5.8.6v-1.2c-.4-.8-1.5-1.2-2.3-1.2c-1.4 0-2 1-2 1.8c0 .8.6 1.7 2 1.7c.8 0 1.9-.3 2.3-1.1zm7.5-6.8h1.3s.04 1.2 0 1.2c.5-.7 1.5-1.4 2.8-1.4c1.3 0 2.2.5 2.7 1.6c.4-.8 1.5-1.6 2.9-1.6c2.1 0 3.3 1.3 3.3 3.5c-.05 0 0 5.6 0 5.6h-1.5v-5.5c0-1.5-.7-2.3-2-2.3c-1.2 0-2.1.7-2.3 1.6c-.02-.05 0 6.2 0 6.2h-1.5s.04-5.45 0-5.5c0-1.5-.7-2.3-2-2.3c-1.2 0-2.1.7-2.3 1.6v6.2h-1.4v-8.9zm21.6 4.4c0-2.1-1.1-3.3-2.7-3.3c-1.7 0-2.7 1.2-2.7 3.3c0 2.2 1 3.4 2.7 3.4c1.6 0 2.7-1.2 2.7-3.4zm1.5 0c0 2.8-1.7 4.7-4.2 4.7c-2.6 0-4.2-1.9-4.2-4.7c0-2.7 1.6-4.6 4.2-4.6c2.5 0 4.2 1.9 4.2 4.6zm1.8-4.4h1.4s.03 1.57 0 1.6c.5-1 1.4-1.8 2.7-1.8h.4c-.05.01 0 1.5 0 1.5c0 0-.53-.03-.5 0c-1.2 0-2.1.6-2.5 2c-.02-.03 0 5.6 0 5.6h-1.5v-8.9zm5.3 4.4c0-2.8 1.6-4.6 4-4.6c2.4 0 3.9 1.8 3.9 4.4c0 .2 0 .5-.1.7h-6.3c.1 1.8 1.1 2.9 2.7 2.9c1.1 0 2-.4 2.5-1.3l.9.8c-.6 1-1.8 1.8-3.5 1.8c-2.6 0-4.1-1.8-4.1-4.7zm1.5-.7h4.9c-.1-1.6-1-2.6-2.4-2.6c-1.4 0-2.3.9-2.5 2.6zm11.9-3.7h1.3s.04 1.25 0 1.3c.7-.9 1.7-1.5 2.9-1.5c2.4 0 3.9 1.9 3.9 4.6c0 2.8-1.5 4.7-3.9 4.7c-1.1 0-2.2-.5-2.8-1.4v4.6H267v-12.3zm6.6 4.4c0-2.1-1-3.3-2.7-3.3c-1.1 0-2.1.6-2.5 1.6v3.5c.4 1 1.4 1.6 2.5 1.6c1.7 0 2.7-1.3 2.7-3.4zm2.8 0c0-2.8 1.6-4.6 4-4.6c2.4 0 3.9 1.8 3.9 4.4v.7h-6.4c.1 1.8 1.1 2.9 2.7 2.9c1.1 0 2-.4 2.5-1.3l1 .8c-.7 1-1.9 1.8-3.6 1.8c-2.6 0-4.1-1.8-4.1-4.7zm1.5-.7h4.9c-.1-1.6-1-2.6-2.4-2.6c-1.4 0-2.3.9-2.5 2.6zm8.2-3.7h1.4s-.05 1.57 0 1.6c.4-1 1.3-1.8 2.6-1.8h.4c-.02.01 0 1.5 0 1.5c0 0-.51-.03-.5 0c-1.2 0-2.1.6-2.5 2v5.6h-1.4v-8.9zm10.1 2c-.5-.7-1.2-1-1.9-1c-.9 0-1.4.6-1.4 1.2c0 .7.4 1.1 1.2 1.2l.7.2c1.7.4 2.7 1.1 2.7 2.7c0 1.4-1.2 2.8-3.3 2.8c-1.6 0-2.7-.9-3.4-1.9l.9-.8c.6.8 1.4 1.5 2.5 1.5c1.1 0 1.9-.6 1.9-1.5c0-.8-.7-1.2-1.7-1.4l-.7-.2c-1.4-.3-2.2-1.1-2.2-2.4c0-1.4 1-2.6 2.8-2.6c1.3 0 2.3.6 2.9 1.4l-1 .8zm9.4 2.4c0-2.1-1-3.3-2.7-3.3c-1.6 0-2.7 1.2-2.7 3.3c0 2.2 1.1 3.4 2.7 3.4c1.7 0 2.7-1.2 2.7-3.4zm1.5 0c0 2.8-1.6 4.7-4.2 4.7c-2.5 0-4.2-1.9-4.2-4.7c0-2.7 1.7-4.6 4.2-4.6c2.6 0 4.2 1.9 4.2 4.6zm1.9-4.4h1.4s-.05 1.2 0 1.2c.4-.7 1.4-1.4 2.7-1.4c2 0 3.2 1.3 3.2 3.5v5.6h-1.4s-.03-5.42 0-5.4c0-1.6-.8-2.4-2.2-2.4c-1.2 0-2 .7-2.3 1.6v6.2H309v-8.9zm8.9 6.2c0-1.7 1.3-3 3.3-3c1 0 1.9.4 2.5 1.1v-.9c0-1.3-.7-2.3-2.2-2.3c-1 0-1.6.3-2.2 1l-.8-1c.6-.7 1.5-1.3 3.1-1.3c2.3 0 3.5 1.4 3.5 3.5c.05-.03 0 5.6 0 5.6h-1.3s-.04-.88 0-.9c-.7.7-1.6 1.1-2.6 1.1c-2 0-3.3-1.3-3.3-2.9zm5.8.6v-1.2c-.5-.8-1.5-1.2-2.3-1.2c-1.4 0-2 1-2 1.8c0 .8.6 1.7 2 1.7c.8 0 1.8-.3 2.3-1.1zm5.2-10.7v12.8h-1.4v-12.8h1.4zm3.8 3.9v8.9h-1.4v-8.9h1.4zm.2-3.9v1.8h-1.8v-1.8h1.8zm8 4.9l-4.6 6.7h4.7v1.2h-6.6v-1l4.6-6.7h-4.3v-1.2h6.2v1zm1.3 3.4c0-2.8 1.6-4.6 4-4.6c2.4 0 3.9 1.8 3.9 4.4v.7h-6.4c.1 1.8 1.1 2.9 2.7 2.9c1.1 0 2-.4 2.5-1.3l1 .8c-.7 1-1.9 1.8-3.6 1.8c-2.6 0-4.1-1.8-4.1-4.7zm1.5-.7h4.9c-.1-1.6-1-2.6-2.4-2.6c-1.3 0-2.3.9-2.5 2.6zm14.3 3.9c-.6.9-1.7 1.5-2.8 1.5c-2.4 0-3.9-1.9-3.9-4.7c0-2.7 1.5-4.6 3.9-4.6c1.1 0 2.1.5 2.8 1.4v-5.1h1.4v12.8H358s.05-1.26 0-1.3zm0-1.4v-3.5c-.4-1-1.4-1.6-2.5-1.6c-1.7 0-2.7 1.2-2.7 3.3c0 2.1 1 3.4 2.7 3.4c1.1 0 2.1-.6 2.5-1.6z" stroke="none" fill="#fff"/></g><g id="Polygon61349"><path d="m31.2 279.3c1.7 0 3.1.9 3.6 2.3l-1.1.6c-.4-1.1-1.3-1.6-2.5-1.6c-1.6 0-2.6 1.2-2.6 3.3c0 2.2 1 3.4 2.6 3.4c1.2 0 2.1-.6 2.5-1.6l1.1.5c-.5 1.5-1.9 2.4-3.6 2.4c-2.5 0-4.1-1.9-4.1-4.7c0-2.7 1.6-4.6 4.1-4.6zm5.3-3.7h1.4s.03 5.01 0 5c.5-.7 1.5-1.3 2.7-1.3c2.1 0 3.2 1.3 3.2 3.5c.03.04 0 5.6 0 5.6h-1.4V283c0-1.6-.8-2.4-2.2-2.4c-1.2 0-2 .7-2.3 1.6c.03-.05 0 6.2 0 6.2h-1.4v-12.8zm8.9 10.1c0-1.7 1.3-3 3.3-3c1 0 1.9.4 2.5 1.1v-.9c0-1.3-.7-2.3-2.2-2.3c-1 0-1.6.3-2.2 1l-.8-1c.6-.7 1.5-1.3 3.1-1.3c2.3 0 3.6 1.4 3.6 3.5c-.03-.03 0 5.6 0 5.6h-1.4s-.02-.88 0-.9c-.7.7-1.6 1.1-2.6 1.1c-2 0-3.3-1.3-3.3-2.9zm5.8.6v-1.2c-.4-.8-1.4-1.2-2.3-1.2c-1.4 0-2 1-2 1.8c0 .8.6 1.7 2 1.7c.9 0 1.9-.3 2.3-1.1zm3.8-6.8h1.4s-.04 1.57 0 1.6c.4-1 1.3-1.8 2.6-1.8h.4c-.02.01 0 1.5 0 1.5c0 0-.5-.03-.5 0c-1.2 0-2.1.6-2.5 2v5.6H55v-8.9zm4.8 6.2c0-1.7 1.3-3 3.3-3c.9 0 1.8.4 2.5 1.1v-.9c0-1.3-.7-2.3-2.2-2.3c-1 0-1.6.3-2.2 1l-.9-1c.7-.7 1.6-1.3 3.1-1.3c2.4 0 3.6 1.4 3.6 3.5c.03-.03 0 5.6 0 5.6h-1.4s.05-.88 0-.9c-.6.7-1.5 1.1-2.5 1.1c-2 0-3.3-1.3-3.3-2.9zm5.8.6v-1.2c-.5-.8-1.5-1.2-2.3-1.2c-1.5 0-2 1-2 1.8c0 .8.5 1.7 2 1.7c.8 0 1.8-.3 2.3-1.1zm7.3-7c1.7 0 3.1.9 3.6 2.3l-1.2.6c-.4-1.1-1.2-1.6-2.4-1.6c-1.6 0-2.6 1.2-2.6 3.3c0 2.2 1 3.4 2.6 3.4c1.2 0 2-.6 2.4-1.6l1.2.5c-.5 1.5-1.9 2.4-3.6 2.4c-2.6 0-4.1-1.9-4.1-4.7c0-2.7 1.5-4.6 4.1-4.6zm5.9 6.3c-.03-.04 0-4.9 0-4.9h-1.6v-1.2h1.6v-2.3h1.4v2.3h2v1.2h-2v4.9c0 1.2.5 1.6 1.8 1.6h.2v1.2c-.2.1-.4.1-.6.1c-1.9 0-2.8-.9-2.8-2.9zm4.5-1.7c0-2.8 1.6-4.6 4-4.6c2.4 0 3.9 1.8 3.9 4.4v.7h-6.4c.1 1.8 1.1 2.9 2.7 2.9c1.1 0 2-.4 2.5-1.3l1 .8c-.7 1-1.8 1.8-3.6 1.8c-2.5 0-4.1-1.8-4.1-4.7zm1.5-.7h4.9c-.1-1.6-1-2.6-2.4-2.6c-1.3 0-2.3.9-2.5 2.6zm8.2-3.7h1.4s-.03 1.57 0 1.6c.5-1 1.3-1.8 2.6-1.8h.4v1.5s-.49-.03-.5 0c-1.2 0-2 .6-2.5 2c.03-.03 0 5.6 0 5.6H93v-8.9zm7.2 0v8.9h-1.4v-8.9h1.4zm.2-3.9v1.8h-1.8v-1.8h1.8zm6.8 5.9c-.6-.7-1.2-1-2-1c-.9 0-1.3.6-1.3 1.2c0 .7.4 1.1 1.1 1.2l.8.2c1.7.4 2.7 1.1 2.7 2.7c0 1.4-1.3 2.8-3.4 2.8c-1.6 0-2.7-.9-3.4-1.9l1-.8c.5.8 1.3 1.5 2.4 1.5c1.2 0 1.9-.6 1.9-1.5c0-.8-.7-1.2-1.6-1.4l-.8-.2c-1.4-.3-2.2-1.1-2.2-2.4c0-1.4 1-2.6 2.9-2.6c1.2 0 2.2.6 2.8 1.4l-.9.8zm3.5 4.1v-4.9h-1.6v-1.2h1.6v-2.3h1.4v2.3h2v1.2h-2s.04 4.86 0 4.9c0 1.2.6 1.6 1.8 1.6h.2s.04 1.22 0 1.2c-.1.1-.4.1-.6.1c-1.8 0-2.8-.9-2.8-2.9zm6.5-6.1v8.9h-1.4v-8.9h1.4zm.2-3.9v1.8h-1.8v-1.8h1.8zm5.8 3.7c1.7 0 3 .9 3.6 2.3l-1.2.6c-.4-1.1-1.3-1.6-2.4-1.6c-1.6 0-2.6 1.2-2.6 3.3c0 2.2 1 3.4 2.6 3.4c1.1 0 2-.6 2.4-1.6l1.2.5c-.6 1.5-1.9 2.4-3.6 2.4c-2.6 0-4.1-1.9-4.1-4.7c0-2.7 1.5-4.6 4.1-4.6zm9.8 2.2c-.6-.7-1.2-1-2-1c-.9 0-1.3.6-1.3 1.2c0 .7.4 1.1 1.1 1.2l.8.2c1.7.4 2.7 1.1 2.7 2.7c0 1.4-1.3 2.8-3.4 2.8c-1.6 0-2.7-.9-3.4-1.9l1-.8c.5.8 1.3 1.5 2.4 1.5c1.2 0 1.9-.6 1.9-1.5c0-.8-.6-1.2-1.6-1.4l-.8-.2c-1.4-.3-2.2-1.1-2.2-2.4c0-1.4 1-2.6 2.9-2.6c1.2 0 2.2.6 2.8 1.4l-.9.8zm3 10.9l.9-3h-1.1v-2.2h2.3v2l-1 3.2H136zm7.3-6.7c0-1.7 1.3-3 3.3-3c.9 0 1.8.4 2.5 1.1v-.9c0-1.3-.7-2.3-2.2-2.3c-1 0-1.6.3-2.2 1l-.9-1c.7-.7 1.6-1.3 3.1-1.3c2.4 0 3.6 1.4 3.6 3.5c.03-.03 0 5.6 0 5.6h-1.4s.05-.88 0-.9c-.6.7-1.5 1.1-2.5 1.1c-2 0-3.3-1.3-3.3-2.9zm5.8.6v-1.2c-.5-.8-1.5-1.2-2.3-1.2c-1.5 0-2 1-2 1.8c0 .8.5 1.7 2 1.7c.8 0 1.8-.3 2.3-1.1zm7.3-7c1.7 0 3.1.9 3.6 2.3l-1.2.6c-.4-1.1-1.2-1.6-2.4-1.6c-1.6 0-2.6 1.2-2.6 3.3c0 2.2 1 3.4 2.6 3.4c1.2 0 2-.6 2.4-1.6l1.2.5c-.5 1.5-1.9 2.4-3.6 2.4c-2.6 0-4.1-1.9-4.1-4.7c0-2.7 1.5-4.6 4.1-4.6zm8.8 0c1.7 0 3.1.9 3.6 2.3l-1.2.6c-.4-1.1-1.2-1.6-2.4-1.6c-1.6 0-2.6 1.2-2.6 3.3c0 2.2 1 3.4 2.6 3.4c1.2 0 2-.6 2.4-1.6l1.2.5c-.5 1.5-1.9 2.4-3.6 2.4c-2.6 0-4.1-1.9-4.1-4.7c0-2.7 1.5-4.6 4.1-4.6zm11.6 4.6c0-2.1-1.1-3.3-2.7-3.3c-1.7 0-2.7 1.2-2.7 3.3c0 2.2 1 3.4 2.7 3.4c1.6 0 2.7-1.2 2.7-3.4zm1.5 0c0 2.8-1.7 4.7-4.2 4.7c-2.6 0-4.2-1.9-4.2-4.7c0-2.7 1.6-4.6 4.2-4.6c2.5 0 4.2 1.9 4.2 4.6zm1.8-4.4h1.4v1.6c.5-1 1.4-1.8 2.7-1.8h.3c.03.01 0 1.5 0 1.5c0 0-.45-.03-.5 0c-1.1 0-2 .6-2.4 2c-.04-.03 0 5.6 0 5.6h-1.5v-8.9zm11.7 7.6c-.6.9-1.7 1.5-2.8 1.5c-2.4 0-3.9-1.9-3.9-4.7c0-2.7 1.5-4.6 3.9-4.6c1.1 0 2.1.5 2.8 1.4v-5.1h1.4v12.8h-1.4s.04-1.26 0-1.3zm0-1.4v-3.5c-.4-1-1.4-1.6-2.5-1.6c-1.7 0-2.7 1.2-2.7 3.3c0 2.1 1 3.4 2.7 3.4c1.1 0 2.1-.6 2.5-1.6zm5.3-6.2v8.9h-1.5v-8.9h1.5zm.2-3.9v1.8h-1.8v-1.8h1.8zm2.2 3.9h1.4s-.02 1.2 0 1.2c.4-.7 1.5-1.4 2.7-1.4c2.1 0 3.2 1.3 3.2 3.5c.04.04 0 5.6 0 5.6h-1.4V283c0-1.6-.8-2.4-2.2-2.4c-1.2 0-2 .7-2.3 1.6c.03-.05 0 6.2 0 6.2h-1.4v-8.9zm9.1 4.2c0-2.6 1.4-4.4 3.7-4.4c1.1 0 2.1.5 2.8 1.4v-1.2h1.4s-.02 8.13 0 8.1c0 2.3-1.3 4.4-4 4.4c-2 0-3.2-1-3.7-2.2l1.1-.7c.4.9 1.3 1.6 2.5 1.6c1.9 0 2.6-1.4 2.6-3v-1c-.6.8-1.6 1.4-2.7 1.4c-2.3 0-3.7-1.9-3.7-4.4zm6.4 1.5v-3.1c-.4-.9-1.3-1.5-2.4-1.5c-1.6 0-2.5 1.2-2.5 3.1c0 1.9.9 3.1 2.5 3.1c1.1 0 2-.6 2.4-1.6zm8.2.4v-4.9h-1.6v-1.2h1.6v-2.3h1.5v2.3h2v1.2h-2s-.05 4.86 0 4.9c0 1.2.5 1.6 1.7 1.6h.3s-.05 1.22 0 1.2c-.2.1-.5.1-.7.1c-1.8 0-2.8-.9-2.8-2.9zm11.4-1.7c0-2.1-1-3.3-2.7-3.3c-1.6 0-2.7 1.2-2.7 3.3c0 2.2 1.1 3.4 2.7 3.4c1.7 0 2.7-1.2 2.7-3.4zm1.5 0c0 2.8-1.6 4.7-4.2 4.7c-2.5 0-4.2-1.9-4.2-4.7c0-2.7 1.7-4.6 4.2-4.6c2.6 0 4.2 1.9 4.2 4.6zm8 3.6l-3.4-8h1.5s2.07 5.08 2.1 5.1c.2.7.5 1.3.5 1.6c.1-.5.3-.9.5-1.6c.02-.02 1.9-5.1 1.9-5.1h1.6l-4.9 12.3h-1.6l1.8-4.3zm12.4-3.6c0-2.1-1-3.3-2.7-3.3c-1.7 0-2.7 1.2-2.7 3.3c0 2.2 1 3.4 2.7 3.4c1.7 0 2.7-1.2 2.7-3.4zm1.5 0c0 2.8-1.6 4.7-4.2 4.7c-2.6 0-4.2-1.9-4.2-4.7c0-2.7 1.6-4.6 4.2-4.6c2.6 0 4.2 1.9 4.2 4.6zm9.1 4.5h-1.4v-1.2c-.5.7-1.5 1.4-2.7 1.4c-2.1 0-3.3-1.3-3.3-3.6c.04.03 0-5.5 0-5.5h1.5s-.02 5.39 0 5.4c0 1.6.8 2.4 2.1 2.4c1.2 0 2.1-.7 2.3-1.6c.04.02 0-6.2 0-6.2h1.5v8.9zm2.4-8.9h1.4s-.02 1.57 0 1.6c.5-1 1.3-1.8 2.6-1.8h.4v1.5s-.48-.03-.5 0c-1.2 0-2 .6-2.5 2c.03-.03 0 5.6 0 5.6h-1.4v-8.9z" stroke="none" fill="#fff"/></g><g id="Polygon61348"><path d="m32.2 257.5c-.5-.7-1.2-1-1.9-1c-.9 0-1.4.6-1.4 1.2c0 .7.4 1.1 1.2 1.2l.7.2c1.7.4 2.7 1.1 2.7 2.7c0 1.4-1.2 2.8-3.3 2.8c-1.6 0-2.8-.9-3.4-1.9l.9-.8c.6.8 1.4 1.5 2.5 1.5c1.1 0 1.9-.6 1.9-1.5c0-.8-.7-1.2-1.7-1.4l-.7-.2c-1.4-.3-2.2-1.1-2.2-2.4c0-1.4 1-2.6 2.8-2.6c1.3 0 2.3.6 2.9 1.4l-1 .8zm10.3 6.9h-1.4s.03-1.21 0-1.2c-.5.7-1.4 1.4-2.7 1.4c-2.1 0-3.2-1.3-3.2-3.6c-.03.03 0-5.5 0-5.5h1.4v5.4c0 1.6.8 2.4 2.2 2.4c1.2 0 2-.7 2.3-1.6c-.02.02 0-6.2 0-6.2h1.4v8.9zm6-9.1c1.7 0 3.1.9 3.6 2.3l-1.2.6c-.4-1.1-1.3-1.6-2.4-1.6c-1.6 0-2.6 1.2-2.6 3.3c0 2.2 1 3.4 2.6 3.4c1.1 0 2-.6 2.4-1.6l1.2.5c-.5 1.5-1.9 2.4-3.6 2.4c-2.6 0-4.1-1.9-4.1-4.7c0-2.7 1.5-4.6 4.1-4.6zm5.2-3.7h1.5s-.03 5.01 0 5c.5-.7 1.4-1.3 2.6-1.3c2.1 0 3.3 1.3 3.3 3.5c-.03.04 0 5.6 0 5.6h-1.5s.03-5.42 0-5.4c0-1.6-.8-2.4-2.1-2.4c-1.2 0-2.1.7-2.3 1.6c-.03-.05 0 6.2 0 6.2h-1.5v-12.8zm12.7 10.1c0-1.7 1.3-3 3.3-3c.9 0 1.8.4 2.5 1.1v-.9c0-1.3-.7-2.3-2.2-2.3c-1.1 0-1.6.3-2.3 1l-.8-1c.7-.7 1.6-1.3 3.1-1.3c2.4 0 3.6 1.4 3.6 3.5v5.6h-1.4s.01-.88 0-.9c-.7.7-1.6 1.1-2.5 1.1c-2 0-3.3-1.3-3.3-2.9zm5.8.6v-1.2c-.5-.8-1.5-1.2-2.3-1.2c-1.5 0-2.1 1-2.1 1.8c0 .8.6 1.7 2.1 1.7c.8 0 1.8-.3 2.3-1.1zm8.2-4.8c-.5-.7-1.1-1-1.9-1c-.9 0-1.4.6-1.4 1.2c0 .7.5 1.1 1.2 1.2l.8.2c1.6.4 2.7 1.1 2.7 2.7c0 1.4-1.3 2.8-3.4 2.8c-1.6 0-2.7-.9-3.4-1.9l1-.8c.5.8 1.3 1.5 2.4 1.5c1.2 0 1.9-.6 1.9-1.5c0-.8-.7-1.2-1.7-1.4l-.7-.2c-1.4-.3-2.2-1.1-2.2-2.4c0-1.4 1-2.6 2.9-2.6c1.2 0 2.2.6 2.8 1.4l-1 .8zm6.2 2.4c0-2.8 1.6-4.6 4.1-4.6c2.4 0 3.9 1.8 3.9 4.4c0 .2 0 .5-.1.7h-6.4c.2 1.8 1.1 2.9 2.7 2.9c1.1 0 2-.4 2.5-1.3l1 .8c-.6 1-1.8 1.8-3.6 1.8c-2.5 0-4.1-1.8-4.1-4.7zm1.6-.7h4.9c-.1-1.6-1.1-2.6-2.4-2.6c-1.4 0-2.3.9-2.5 2.6zm8.1-3.7h1.4s.02 1.2 0 1.2c.5-.7 1.5-1.4 2.7-1.4c2.1 0 3.3 1.3 3.3 3.5c-.02.04 0 5.6 0 5.6h-1.5s.04-5.42 0-5.4c0-1.6-.8-2.4-2.1-2.4c-1.2 0-2.1.7-2.3 1.6c-.03-.05 0 6.2 0 6.2h-1.5v-8.9zm9.1 4.2c0-2.6 1.5-4.4 3.7-4.4c1.2 0 2.2.5 2.8 1.4c.04.01 0-1.2 0-1.2h1.4s.03 8.13 0 8.1c0 2.3-1.2 4.4-4 4.4c-1.9 0-3.1-1-3.7-2.2l1.1-.7c.5.9 1.3 1.6 2.5 1.6c1.9 0 2.7-1.4 2.7-3v-1c-.7.8-1.7 1.4-2.8 1.4c-2.2 0-3.7-1.9-3.7-4.4zm6.5 1.5v-3.1c-.4-.9-1.3-1.5-2.4-1.5c-1.6 0-2.6 1.2-2.6 3.1c0 1.9 1 3.1 2.6 3.1c1.1 0 2-.6 2.4-1.6zm5.3-5.7v8.9h-1.5v-8.9h1.5zm.2-3.9v1.8h-1.8v-1.8h1.8zm2.2 3.9h1.4s-.02 1.2 0 1.2c.4-.7 1.5-1.4 2.7-1.4c2.1 0 3.2 1.3 3.2 3.5c.03.04 0 5.6 0 5.6h-1.4V259c0-1.6-.8-2.4-2.2-2.4c-1.2 0-2 .7-2.3 1.6c.03-.05 0 6.2 0 6.2h-1.4v-8.9zm9.1 4.4c0-2.8 1.6-4.6 4-4.6c2.4 0 3.9 1.8 3.9 4.4v.7h-6.4c.1 1.8 1.1 2.9 2.7 2.9c1.1 0 2-.4 2.5-1.3l1 .8c-.7 1-1.9 1.8-3.6 1.8c-2.6 0-4.1-1.8-4.1-4.7zm1.5-.7h4.9c-.1-1.6-1-2.6-2.4-2.6c-1.3 0-2.3.9-2.5 2.6zm8.1 9.2l1-3h-1.1v-2.2h2.3v2l-1 3.2h-1.2zm12.6-10.9c-.5-.7-1.2-1-2-1c-.8 0-1.3.6-1.3 1.2c0 .7.4 1.1 1.1 1.2l.8.2c1.7.4 2.7 1.1 2.7 2.7c0 1.4-1.2 2.8-3.4 2.8c-1.5 0-2.7-.9-3.3-1.9l.9-.8c.5.8 1.4 1.5 2.5 1.5c1.1 0 1.8-.6 1.8-1.5c0-.8-.6-1.2-1.6-1.4l-.8-.2c-1.4-.3-2.2-1.1-2.2-2.4c0-1.4 1.1-2.6 2.9-2.6c1.2 0 2.2.6 2.8 1.4l-.9.8zm3.5 4.1c.04-.04 0-4.9 0-4.9h-1.6v-1.2h1.7v-2.3h1.4v2.3h2v1.2h-2s-.02 4.86 0 4.9c0 1.2.5 1.6 1.7 1.6h.3s-.02 1.22 0 1.2c-.2.1-.4.1-.7.1c-1.8 0-2.8-.9-2.8-2.9zm4.6-1.7c0-2.8 1.6-4.6 4-4.6c2.4 0 3.9 1.8 3.9 4.4c0 .2 0 .5-.1.7h-6.3c.1 1.8 1.1 2.9 2.6 2.9c1.1 0 2-.4 2.6-1.3l.9.8c-.6 1-1.8 1.8-3.5 1.8c-2.6 0-4.1-1.8-4.1-4.7zm1.5-.7h4.9c-.1-1.6-1-2.6-2.4-2.6c-1.4 0-2.3.9-2.5 2.6zm7.6.7c0-2.8 1.6-4.6 4-4.6c2.4 0 3.9 1.8 3.9 4.4v.7h-6.4c.1 1.8 1.1 2.9 2.7 2.9c1.1 0 2-.4 2.5-1.3l1 .8c-.7 1-1.8 1.8-3.6 1.8c-2.5 0-4.1-1.8-4.1-4.7zm1.5-.7h4.9c-.1-1.6-1-2.6-2.4-2.6c-1.3 0-2.3.9-2.5 2.6zm8.2-3.7h1.4v1.6c.5-1 1.4-1.8 2.6-1.8h.4v1.5s-.48-.03-.5 0c-1.2 0-2 .6-2.5 2c.04-.03 0 5.6 0 5.6h-1.4v-8.9zm7.2 0v8.9h-1.4v-8.9h1.4zm.2-3.9v1.8h-1.8v-1.8h1.8zm2.2 3.9h1.4s.02 1.2 0 1.2c.5-.7 1.5-1.4 2.7-1.4c2.1 0 3.3 1.3 3.3 3.5c-.03.04 0 5.6 0 5.6h-1.5s.03-5.42 0-5.4c0-1.6-.8-2.4-2.1-2.4c-1.2 0-2.1.7-2.3 1.6c-.03-.05 0 6.2 0 6.2h-1.5v-8.9zm9.1 4.2c0-2.6 1.5-4.4 3.7-4.4c1.2 0 2.2.5 2.8 1.4c.04.01 0-1.2 0-1.2h1.4s.02 8.13 0 8.1c0 2.3-1.2 4.4-4 4.4c-1.9 0-3.1-1-3.7-2.2l1.1-.7c.4.9 1.3 1.6 2.5 1.6c1.9 0 2.7-1.4 2.7-3v-1c-.7.8-1.7 1.4-2.8 1.4c-2.2 0-3.7-1.9-3.7-4.4zm6.5 1.5v-3.1c-.4-.9-1.3-1.5-2.4-1.5c-1.6 0-2.6 1.2-2.6 3.1c0 1.9 1 3.1 2.6 3.1c1.1 0 2-.6 2.4-1.6zm3.8 7.2l.9-3h-1.1v-2.2h2.3v2l-1 3.2h-1.1zm7.3-6.7c0-1.7 1.3-3 3.3-3c1 0 1.9.4 2.5 1.1v-.9c0-1.3-.7-2.3-2.2-2.3c-1 0-1.6.3-2.2 1l-.9-1c.7-.7 1.6-1.3 3.2-1.3c2.3 0 3.5 1.4 3.5 3.5c.04-.03 0 5.6 0 5.6H220s-.04-.88 0-.9c-.7.7-1.6 1.1-2.6 1.1c-2 0-3.3-1.3-3.3-2.9zm5.8.6v-1.2c-.5-.8-1.5-1.2-2.3-1.2c-1.4 0-2 1-2 1.8c0 .8.6 1.7 2 1.7c.8 0 1.8-.3 2.3-1.1zm3.7-6.8h1.4s.03 1.2 0 1.2c.5-.7 1.5-1.4 2.7-1.4c2.1 0 3.3 1.3 3.3 3.5v5.6h-1.5s.05-5.42 0-5.4c0-1.6-.7-2.4-2.1-2.4c-1.2 0-2.1.7-2.3 1.6v6.2h-1.5v-8.9zm15.9 7.6c-.7.9-1.7 1.5-2.9 1.5c-2.4 0-3.9-1.9-3.9-4.7c0-2.7 1.5-4.6 3.9-4.6c1.1 0 2.1.5 2.8 1.4v-5.1h1.5v12.8h-1.4s-.03-1.26 0-1.3zm-.1-1.4v-3.5c-.4-1-1.4-1.6-2.5-1.6c-1.7 0-2.7 1.2-2.7 3.3c0 2.1 1 3.4 2.7 3.4c1.1 0 2.1-.6 2.5-1.6zm12.1-4.2c-.5-.7-1.2-1-2-1c-.8 0-1.3.6-1.3 1.2c0 .7.4 1.1 1.1 1.2l.8.2c1.7.4 2.7 1.1 2.7 2.7c0 1.4-1.2 2.8-3.4 2.8c-1.5 0-2.7-.9-3.3-1.9l.9-.8c.5.8 1.4 1.5 2.5 1.5c1.1 0 1.8-.6 1.8-1.5c0-.8-.6-1.2-1.6-1.4l-.8-.2c-1.4-.3-2.2-1.1-2.2-2.4c0-1.4 1.1-2.6 2.9-2.6c1.2 0 2.2.6 2.8 1.4l-.9.8zm10.3 6.9h-1.4v-1.2c-.5.7-1.5 1.4-2.7 1.4c-2.1 0-3.3-1.3-3.3-3.6c.04.03 0-5.5 0-5.5h1.5s-.02 5.39 0 5.4c0 1.6.8 2.4 2.1 2.4c1.2 0 2.1-.7 2.3-1.6c.05.02 0-6.2 0-6.2h1.5v8.9zm6.9-6.9c-.5-.7-1.2-1-1.9-1c-.9 0-1.4.6-1.4 1.2c0 .7.5 1.1 1.2 1.2l.7.2c1.7.4 2.7 1.1 2.7 2.7c0 1.4-1.2 2.8-3.3 2.8c-1.6 0-2.7-.9-3.4-1.9l1-.8c.5.8 1.3 1.5 2.4 1.5c1.2 0 1.9-.6 1.9-1.5c0-.8-.7-1.2-1.7-1.4l-.7-.2c-1.4-.3-2.2-1.1-2.2-2.4c0-1.4 1-2.6 2.8-2.6c1.3 0 2.3.6 2.9 1.4l-1 .8zm3.1-2h1.4s-.02 1.25 0 1.3c.6-.9 1.7-1.5 2.8-1.5c2.4 0 3.9 1.9 3.9 4.6c0 2.8-1.5 4.7-3.9 4.7c-1.1 0-2.1-.5-2.8-1.4c.03.01 0 4.6 0 4.6h-1.4v-12.3zm6.6 4.4c0-2.1-1-3.3-2.7-3.3c-1.1 0-2.1.6-2.5 1.6v3.5c.4 1 1.4 1.6 2.5 1.6c1.7 0 2.7-1.3 2.7-3.4zm2.8 0c0-2.8 1.6-4.6 4.1-4.6c2.4 0 3.8 1.8 3.8 4.4v.7h-6.4c.1 1.8 1.1 2.9 2.7 2.9c1.1 0 2-.4 2.5-1.3l1 .8c-.7 1-1.8 1.8-3.6 1.8c-2.5 0-4.1-1.8-4.1-4.7zm1.5-.7h4.9c-.1-1.6-1-2.6-2.3-2.6c-1.4 0-2.3.9-2.6 2.6zm8.2-3.7h1.4v1.2c.5-.7 1.5-1.4 2.7-1.4c2.1 0 3.3 1.3 3.3 3.5c-.05.04 0 5.6 0 5.6h-1.5V259c0-1.6-.8-2.4-2.1-2.4c-1.3 0-2.1.7-2.3 1.6c-.05-.05 0 6.2 0 6.2h-1.5v-8.9zm14.2 2c-.5-.7-1.2-1-1.9-1c-.9 0-1.4.6-1.4 1.2c0 .7.4 1.1 1.2 1.2l.7.2c1.7.4 2.7 1.1 2.7 2.7c0 1.4-1.2 2.8-3.4 2.8c-1.5 0-2.7-.9-3.3-1.9l.9-.8c.5.8 1.4 1.5 2.5 1.5c1.1 0 1.9-.6 1.9-1.5c0-.8-.7-1.2-1.7-1.4l-.8-.2c-1.4-.3-2.2-1.1-2.2-2.4c0-1.4 1.1-2.6 2.9-2.6c1.2 0 2.2.6 2.8 1.4l-.9.8zm4.5-2v8.9h-1.4v-8.9h1.4zm.2-3.9v1.8H308v-1.8h1.8zm8.6 8.3c0-2.1-1.1-3.3-2.8-3.3c-1.6 0-2.7 1.2-2.7 3.3c0 2.2 1.1 3.4 2.7 3.4c1.7 0 2.8-1.2 2.8-3.4zm1.5 0c0 2.8-1.7 4.7-4.3 4.7c-2.5 0-4.2-1.9-4.2-4.7c0-2.7 1.7-4.6 4.2-4.6c2.6 0 4.3 1.9 4.3 4.6zm1.8-4.4h1.4s-.02 1.2 0 1.2c.4-.7 1.5-1.4 2.7-1.4c2.1 0 3.2 1.3 3.2 3.5c.03.04 0 5.6 0 5.6h-1.4V259c0-1.6-.8-2.4-2.2-2.4c-1.2 0-2 .7-2.3 1.6c.03-.05 0 6.2 0 6.2h-1.4v-8.9z" stroke="none" fill="#fff"/></g><g id="Polygon61347"><path d="m28.3 237.6v-4.9h-1.6v-1.2h1.6v-2.3h1.5v2.3h2v1.2h-2s-.05 4.86 0 4.9c0 1.2.5 1.6 1.7 1.6h.3s-.05 1.22 0 1.2c-.2.1-.5.1-.7.1c-1.8 0-2.8-.9-2.8-2.9zm5.1-10h1.4s.03 5.01 0 5c.5-.7 1.5-1.3 2.7-1.3c2.1 0 3.2 1.3 3.2 3.5c.03.04 0 5.6 0 5.6h-1.4V235c0-1.6-.8-2.4-2.2-2.4c-1.2 0-2 .7-2.3 1.6c.03-.05 0 6.2 0 6.2h-1.4v-12.8zm9.1 8.3c0-2.8 1.6-4.6 4-4.6c2.4 0 3.9 1.8 3.9 4.4v.7H44c.1 1.8 1.1 2.9 2.7 2.9c1.1 0 2-.4 2.5-1.3l1 .8c-.7 1-1.9 1.8-3.6 1.8c-2.6 0-4.1-1.8-4.1-4.7zm1.5-.7h4.9c-.1-1.6-1-2.6-2.4-2.6c-1.3 0-2.3.9-2.5 2.6zm10.9-3.7h1.5s2.06 5.73 2.1 5.7c.2.7.4 1.4.4 1.7h.1c0-.3.2-1 .5-1.7c-.03.03 2-5.7 2-5.7h1.6l-3.4 8.9h-1.4l-3.4-8.9zm8.8 4.4c0-2.8 1.6-4.6 4-4.6c2.4 0 3.9 1.8 3.9 4.4c0 .2 0 .5-.1.7h-6.3c.1 1.8 1.1 2.9 2.7 2.9c1.1 0 2-.4 2.5-1.3l1 .8c-.7 1-1.9 1.8-3.6 1.8c-2.6 0-4.1-1.8-4.1-4.7zm1.5-.7h4.9c-.1-1.6-1-2.6-2.4-2.6c-1.4 0-2.3.9-2.5 2.6zm8.2-7.6h1.4s.01 5.01 0 5c.5-.7 1.5-1.3 2.7-1.3c2 0 3.2 1.3 3.2 3.5v5.6h-1.4s-.03-5.42 0-5.4c0-1.6-.8-2.4-2.2-2.4c-1.2 0-2 .7-2.3 1.6v6.2h-1.4v-12.8zm11.1 3.9v8.9H83v-8.9h1.5zm.1-3.9v1.8h-1.8v-1.8h1.8zm5.8 3.7c1.7 0 3.1.9 3.6 2.3l-1.1.6c-.5-1.1-1.3-1.6-2.5-1.6c-1.6 0-2.6 1.2-2.6 3.3c0 2.2 1 3.4 2.6 3.4c1.2 0 2-.6 2.5-1.6l1.1.5c-.5 1.5-1.9 2.4-3.6 2.4c-2.5 0-4.1-1.9-4.1-4.7c0-2.7 1.6-4.6 4.1-4.6zm6.7-3.7v12.8h-1.4v-12.8h1.4zm1.9 8.3c0-2.8 1.6-4.6 4-4.6c2.4 0 3.9 1.8 3.9 4.4c0 .2 0 .5-.1.7h-6.3c.1 1.8 1.1 2.9 2.7 2.9c1.1 0 2-.4 2.5-1.3l.9.8c-.6 1-1.8 1.8-3.5 1.8c-2.6 0-4.1-1.8-4.1-4.7zm1.5-.7h4.9c-.1-1.6-1-2.6-2.4-2.6c-1.4 0-2.3.9-2.5 2.6zm9.1-3.5h-1l-.3-4.4h1.6l-.3 4.4zm6.9 1.8c-.5-.7-1.2-1-2-1c-.8 0-1.3.6-1.3 1.2c0 .7.4 1.1 1.2 1.2l.7.2c1.7.4 2.7 1.1 2.7 2.7c0 1.4-1.2 2.8-3.4 2.8c-1.5 0-2.7-.9-3.3-1.9l.9-.8c.5.8 1.4 1.5 2.5 1.5c1.1 0 1.8-.6 1.8-1.5c0-.8-.6-1.2-1.6-1.4l-.8-.2c-1.4-.3-2.2-1.1-2.2-2.4c0-1.4 1.1-2.6 2.9-2.6c1.2 0 2.2.6 2.8 1.4l-.9.8zm12.9 5.6c-.6.9-1.7 1.5-2.8 1.5c-2.4 0-3.9-1.9-3.9-4.7c0-2.7 1.5-4.6 3.9-4.6c1.1 0 2.1.5 2.8 1.4c-.04-.02 0-5.1 0-5.1h1.4v12.8h-1.4s.02-1.26 0-1.3zm0-1.4v-3.5c-.5-1-1.4-1.6-2.5-1.6c-1.7 0-2.7 1.2-2.7 3.3c0 2.1 1 3.4 2.7 3.4c1.1 0 2-.6 2.5-1.6zm3.8-6.2h1.4v1.6c.5-1 1.4-1.8 2.6-1.8h.4c.03.01 0 1.5 0 1.5c0 0-.46-.03-.5 0c-1.1 0-2 .6-2.4 2c-.04-.03 0 5.6 0 5.6h-1.5v-8.9zm7.2 0v8.9H139v-8.9h1.4zm.2-3.9v1.8h-1.8v-1.8h1.8zm1.3 3.9h1.5s2.04 5.73 2 5.7c.3.7.5 1.4.5 1.7h.1c0-.3.2-1 .4-1.7c.05.03 2.1-5.7 2.1-5.7h1.5l-3.4 8.9h-1.4l-3.3-8.9zm11 0v8.9h-1.5v-8.9h1.5zm.2-3.9v1.8h-1.8v-1.8h1.8zm2.2 3.9h1.4v1.2c.5-.7 1.5-1.4 2.7-1.4c2.1 0 3.2 1.3 3.2 3.5c.04.04 0 5.6 0 5.6h-1.4V235c0-1.6-.8-2.4-2.2-2.4c-1.2 0-2 .7-2.3 1.6c.04-.05 0 6.2 0 6.2h-1.4v-8.9zm9.1 4.2c0-2.6 1.4-4.4 3.7-4.4c1.1 0 2.2.5 2.8 1.4v-1.2h1.4v8.1c0 2.3-1.3 4.4-4 4.4c-1.9 0-3.2-1-3.7-2.2l1.1-.7c.4.9 1.3 1.6 2.5 1.6c1.9 0 2.7-1.4 2.7-3v-1c-.7.8-1.7 1.4-2.8 1.4c-2.3 0-3.7-1.9-3.7-4.4zm6.5 1.5v-3.1c-.5-.9-1.4-1.5-2.5-1.5c-1.6 0-2.5 1.2-2.5 3.1c0 1.9.9 3.1 2.5 3.1c1.1 0 2-.6 2.5-1.6zm7.5-5.7h1.4s-.02 1.25 0 1.3c.6-.9 1.7-1.5 2.8-1.5c2.4 0 3.9 1.9 3.9 4.6c0 2.8-1.5 4.7-3.9 4.7c-1.1 0-2.1-.5-2.8-1.4c.03.01 0 4.6 0 4.6h-1.4v-12.3zm6.6 4.4c0-2.1-1-3.3-2.7-3.3c-1.1 0-2.1.6-2.5 1.6v3.5c.4 1 1.4 1.6 2.5 1.6c1.7 0 2.7-1.3 2.7-3.4zm2.8 0c0-2.8 1.6-4.6 4.1-4.6c2.4 0 3.8 1.8 3.8 4.4v.7h-6.4c.1 1.8 1.1 2.9 2.7 2.9c1.1 0 2-.4 2.5-1.3l1 .8c-.7 1-1.8 1.8-3.6 1.8c-2.5 0-4.1-1.8-4.1-4.7zm1.5-.7h4.9c-.1-1.6-1-2.6-2.3-2.6c-1.4 0-2.3.9-2.6 2.6zm8.2-3.7h1.4v1.6c.5-1 1.4-1.8 2.6-1.8h.4c.02.01 0 1.5 0 1.5c0 0-.47-.03-.5 0c-1.2 0-2 .6-2.4 2c-.05-.03 0 5.6 0 5.6h-1.5v-8.9zm6.4 1.2h-1.5v-1.2h1.5v-1.3c0-1.6.9-2.7 2.6-2.7h.8v1.2s-.43.04-.4 0c-1.1 0-1.6.5-1.6 1.5c.04-.02 0 1.3 0 1.3h2v1.2h-2v7.7h-1.4v-7.7zm11 3.2c0-2.1-1-3.3-2.7-3.3c-1.7 0-2.7 1.2-2.7 3.3c0 2.2 1 3.4 2.7 3.4c1.7 0 2.7-1.2 2.7-3.4zm1.5 0c0 2.8-1.6 4.7-4.2 4.7c-2.6 0-4.2-1.9-4.2-4.7c0-2.7 1.6-4.6 4.2-4.6c2.6 0 4.2 1.9 4.2 4.6zm1.8-4.4h1.4s.03 1.57 0 1.6c.5-1 1.4-1.8 2.7-1.8h.4c-.04.01 0 1.5 0 1.5c0 0-.53-.03-.5 0c-1.2 0-2.1.6-2.5 2v5.6h-1.5v-8.9zm5.8 0h1.4v1.2c.5-.7 1.5-1.4 2.7-1.4c1.3 0 2.3.5 2.8 1.6c.4-.8 1.5-1.6 2.9-1.6c2.1 0 3.2 1.3 3.2 3.5c.02 0 0 5.6 0 5.6h-1.4s-.02-5.45 0-5.5c0-1.5-.8-2.3-2.1-2.3c-1.2 0-2 .7-2.3 1.6c.04-.05 0 6.2 0 6.2h-1.4v-5.5c0-1.5-.7-2.3-2-2.3c-1.2 0-2.1.7-2.3 1.6c-.04-.05 0 6.2 0 6.2H224v-8.9zm14.6 6.2c0-1.7 1.3-3 3.3-3c1 0 1.9.4 2.5 1.1v-.9c0-1.3-.7-2.3-2.2-2.3c-1 0-1.6.3-2.2 1l-.8-1c.6-.7 1.5-1.3 3.1-1.3c2.3 0 3.6 1.4 3.6 3.5c-.04-.03 0 5.6 0 5.6h-1.4s-.03-.88 0-.9c-.7.7-1.6 1.1-2.6 1.1c-2 0-3.3-1.3-3.3-2.9zm5.8.6v-1.2c-.5-.8-1.5-1.2-2.3-1.2c-1.4 0-2 1-2 1.8c0 .8.6 1.7 2 1.7c.8 0 1.8-.3 2.3-1.1zm3.8-6.8h1.3s.05 1.2 0 1.2c.5-.7 1.5-1.4 2.8-1.4c2 0 3.2 1.3 3.2 3.5v5.6h-1.4s-.03-5.42 0-5.4c0-1.6-.8-2.4-2.2-2.4c-1.2 0-2 .7-2.3 1.6v6.2h-1.4v-8.9zm13.2-.2c1.7 0 3 .9 3.5 2.3l-1.1.6c-.4-1.1-1.3-1.6-2.4-1.6c-1.6 0-2.7 1.2-2.7 3.3c0 2.2 1.1 3.4 2.7 3.4c1.1 0 2-.6 2.4-1.6l1.1.5c-.5 1.5-1.8 2.4-3.5 2.4c-2.6 0-4.1-1.9-4.1-4.7c0-2.7 1.5-4.6 4.1-4.6zm4.7 4.6c0-2.8 1.6-4.6 4-4.6c2.4 0 3.9 1.8 3.9 4.4c0 .2 0 .5-.1.7h-6.3c.1 1.8 1.1 2.9 2.6 2.9c1.1 0 2-.4 2.6-1.3l.9.8c-.6 1-1.8 1.8-3.5 1.8c-2.6 0-4.1-1.8-4.1-4.7zm1.5-.7h4.9c-.1-1.6-1-2.6-2.4-2.6c-1.4 0-2.3.9-2.5 2.6zm11.2 2.5c0-1.7 1.2-3 3.3-3c.9 0 1.8.4 2.4 1.1v-.9c0-1.3-.7-2.3-2.1-2.3c-1.1 0-1.6.3-2.3 1l-.8-1c.6-.7 1.5-1.3 3.1-1.3c2.3 0 3.6 1.4 3.6 3.5c-.02-.03 0 5.6 0 5.6h-1.4s-.01-.88 0-.9c-.7.7-1.6 1.1-2.5 1.1c-2.1 0-3.3-1.3-3.3-2.9zm5.7.6v-1.2c-.4-.8-1.4-1.2-2.2-1.2c-1.5 0-2.1 1-2.1 1.8c0 .8.6 1.7 2.1 1.7c.8 0 1.8-.3 2.2-1.1zm4.3-.7v-4.9h-1.6v-1.2h1.6v-2.3h1.4v2.3h2v1.2h-2s.03 4.86 0 4.9c0 1.2.6 1.6 1.8 1.6h.2s.03 1.22 0 1.2c-.2.1-.4.1-.6.1c-1.9 0-2.8-.9-2.8-2.9zm5.7 0v-4.9h-1.6v-1.2h1.6v-2.3h1.4v2.3h2v1.2h-2s.03 4.86 0 4.9c0 1.2.6 1.6 1.8 1.6h.2s.03 1.22 0 1.2c-.1.1-.4.1-.6.1c-1.9 0-2.8-.9-2.8-2.9zm5.1-6.1h1.4s-.05 1.57 0 1.6c.4-1 1.3-1.8 2.6-1.8h.4c-.02.01 0 1.5 0 1.5c0 0-.51-.03-.5 0c-1.2 0-2.1.6-2.5 2v5.6h-1.4v-8.9zm7.2 0v8.9h-1.5v-8.9h1.5zm.2-3.9v1.8h-1.8v-1.8h1.8zm3.6 12.8h-1.4v-12.8h1.4s.04 5.08 0 5.1c.7-.9 1.7-1.4 2.8-1.4c2.4 0 3.9 1.9 3.9 4.6c0 2.8-1.5 4.7-3.9 4.7c-1.1 0-2.1-.6-2.8-1.5c-.02.04 0 1.3 0 1.3zm5.2-4.5c0-2.1-1-3.3-2.7-3.3c-1.1 0-2 .6-2.5 1.6v3.5c.5 1 1.4 1.6 2.5 1.6c1.7 0 2.7-1.3 2.7-3.4zm10.6 4.5H325s.02-1.21 0-1.2c-.5.7-1.5 1.4-2.7 1.4c-2.1 0-3.2-1.3-3.2-3.6c-.04.03 0-5.5 0-5.5h1.4v5.4c0 1.6.8 2.4 2.2 2.4c1.2 0 2-.7 2.3-1.6c-.03.02 0-6.2 0-6.2h1.4v8.9zm3-2.8c.05-.04 0-4.9 0-4.9h-1.6v-1.2h1.7v-2.3h1.4v2.3h2v1.2h-2v4.9c0 1.2.5 1.6 1.7 1.6h.3v1.2c-.2.1-.4.1-.7.1c-1.8 0-2.8-.9-2.8-2.9zm4.6-1.7c0-2.8 1.6-4.6 4-4.6c2.4 0 3.9 1.8 3.9 4.4v.7h-6.4c.1 1.8 1.1 2.9 2.7 2.9c1.1 0 2-.4 2.5-1.3l1 .8c-.7 1-1.9 1.8-3.6 1.8c-2.6 0-4.1-1.8-4.1-4.7zm1.5-.7h4.9c-.1-1.6-1-2.6-2.4-2.6c-1.4 0-2.3.9-2.5 2.6zm12.7-1.7c-.5-.7-1.2-1-1.9-1c-.9 0-1.4.6-1.4 1.2c0 .7.4 1.1 1.2 1.2l.7.2c1.7.4 2.7 1.1 2.7 2.7c0 1.4-1.2 2.8-3.3 2.8c-1.6 0-2.8-.9-3.4-1.9l.9-.8c.5.8 1.4 1.5 2.5 1.5c1.1 0 1.9-.6 1.9-1.5c0-.8-.7-1.2-1.7-1.4l-.8-.2c-1.4-.3-2.1-1.1-2.1-2.4c0-1.4 1-2.6 2.8-2.6c1.3 0 2.2.6 2.8 1.4l-.9.8zm3 10.9l1-3h-1.1v-2.2h2.2v2l-1 3.2h-1.1z" stroke="none" fill="#fff"/></g><g id="Polygon61346"><path d="m7.8 218.3c-4.2 0-7.4-3.3-7.4-7.4c0-4.1 3.2-7.4 7.4-7.4c4.1 0 7.3 3.3 7.3 7.4c0 4.1-3.2 7.4-7.3 7.4zm0-13.7c-3.7 0-6.3 2.7-6.3 6.3c0 3.6 2.6 6.3 6.3 6.3c3.6 0 6.2-2.7 6.2-6.3c0-3.6-2.6-6.3-6.2-6.3zm-2.9 3.7c.4-1 1.2-2.2 2.8-2.2c1.8 0 2.9 1.2 2.9 2.8c0 2.7-3.2 3.9-3.9 5.3c-.04-.03 3.9 0 3.9 0v1.1H5v-1c1-2.2 4.3-3.2 4.3-5.4c0-1-.5-1.6-1.5-1.6c-.9 0-1.5.5-1.8 1.4l-1.1-.4zm20.4-5l-.8 2.9h1v1.8h-2.1v-1.6l.9-3.1h1zm-3.6 0l-.8 2.9h1v1.8h-2v-1.6l.8-3.1h1zm4.9 2.1v-1.2h8.8v1.2h-3.6v11h-1.5v-11h-3.7zm10.2-1.8h1.4s.01 5.01 0 5c.5-.7 1.5-1.3 2.7-1.3c2 0 3.2 1.3 3.2 3.5c.02.04 0 5.6 0 5.6h-1.4s-.02-5.42 0-5.4c0-1.6-.8-2.4-2.2-2.4c-1.2 0-2 .7-2.3 1.6v6.2h-1.4v-12.8zm9.1 8.3c0-2.8 1.6-4.6 4-4.6c2.4 0 3.9 1.8 3.9 4.4c0 .2 0 .5-.1.7h-6.3c.1 1.8 1.1 2.9 2.7 2.9c1.1 0 2-.4 2.5-1.3l.9.8c-.6 1-1.8 1.8-3.5 1.8c-2.6 0-4.1-1.8-4.1-4.7zm1.5-.7h4.9c-.1-1.6-1-2.6-2.4-2.6c-1.4 0-2.3.9-2.5 2.6zm15.4-3.9c1.7 0 3.1.9 3.6 2.3l-1.2.6c-.4-1.1-1.2-1.6-2.4-1.6c-1.6 0-2.6 1.2-2.6 3.3c0 2.2 1 3.4 2.6 3.4c1.2 0 2-.6 2.4-1.6l1.2.5c-.5 1.5-1.9 2.4-3.6 2.4c-2.6 0-4.1-1.9-4.1-4.7c0-2.7 1.5-4.6 4.1-4.6zm12.5 9.1h-1.4v-1.2c-.5.7-1.5 1.4-2.7 1.4c-2.1 0-3.3-1.3-3.3-3.6c.05.03 0-5.5 0-5.5h1.5v5.4c0 1.6.8 2.4 2.1 2.4c1.3 0 2.1-.7 2.4-1.6c-.05.02 0-6.2 0-6.2h1.4v8.9zm6.9-6.9c-.5-.7-1.1-1-1.9-1c-.9 0-1.4.6-1.4 1.2c0 .7.5 1.1 1.2 1.2l.8.2c1.6.4 2.7 1.1 2.7 2.7c0 1.4-1.3 2.8-3.4 2.8c-1.6 0-2.7-.9-3.4-1.9l1-.8c.5.8 1.3 1.5 2.4 1.5c1.2 0 1.9-.6 1.9-1.5c0-.8-.7-1.2-1.7-1.4l-.7-.2c-1.4-.3-2.2-1.1-2.2-2.4c0-1.4 1-2.6 2.9-2.6c1.2 0 2.2.6 2.8 1.4l-1 .8zm3.6 4.1v-4.9h-1.6v-1.2h1.6v-2.3h1.4v2.3h2v1.2h-2s.03 4.86 0 4.9c0 1.2.6 1.6 1.8 1.6h.2s.02 1.22 0 1.2c-.2.1-.4.1-.6.1c-1.9 0-2.8-.9-2.8-2.9zm11.4-1.7c0-2.1-1-3.3-2.7-3.3c-1.7 0-2.7 1.2-2.7 3.3c0 2.2 1 3.4 2.7 3.4c1.7 0 2.7-1.2 2.7-3.4zm1.5 0c0 2.8-1.6 4.7-4.2 4.7c-2.6 0-4.2-1.9-4.2-4.7c0-2.7 1.6-4.6 4.2-4.6c2.6 0 4.2 1.9 4.2 4.6zm1.8-4.4h1.4s.03 1.2 0 1.2c.5-.7 1.5-1.4 2.8-1.4c1.3 0 2.2.5 2.7 1.6c.4-.8 1.5-1.6 2.9-1.6c2.1 0 3.2 1.3 3.2 3.5c.04 0 0 5.6 0 5.6h-1.4v-5.5c0-1.5-.7-2.3-2-2.3c-1.2 0-2.1.7-2.3 1.6c-.04-.05 0 6.2 0 6.2h-1.5s.02-5.45 0-5.5c0-1.5-.7-2.3-2-2.3c-1.2 0-2.1.7-2.3 1.6v6.2h-1.5v-8.9zm19 0h1.4s.02 1.2 0 1.2c.5-.7 1.5-1.4 2.7-1.4c1.4 0 2.3.5 2.8 1.6c.4-.8 1.5-1.6 2.9-1.6c2.1 0 3.2 1.3 3.2 3.5c.03 0 0 5.6 0 5.6h-1.4v-5.5c0-1.5-.7-2.3-2-2.3c-1.2 0-2.1.7-2.3 1.6c-.05-.05 0 6.2 0 6.2h-1.5v-5.5c0-1.5-.7-2.3-2-2.3c-1.2 0-2.1.7-2.3 1.6c-.02-.05 0 6.2 0 6.2h-1.5v-8.9zm21.7 4.4c0-2.1-1.1-3.3-2.7-3.3c-1.7 0-2.7 1.2-2.7 3.3c0 2.2 1 3.4 2.7 3.4c1.6 0 2.7-1.2 2.7-3.4zm1.5 0c0 2.8-1.7 4.7-4.2 4.7c-2.6 0-4.2-1.9-4.2-4.7c0-2.7 1.6-4.6 4.2-4.6c2.5 0 4.2 1.9 4.2 4.6zm8 3.2c-.7.9-1.7 1.5-2.9 1.5c-2.3 0-3.8-1.9-3.8-4.7c0-2.7 1.5-4.6 3.8-4.6c1.2 0 2.2.5 2.8 1.4c.04-.02 0-5.1 0-5.1h1.5v12.8h-1.4v-1.3zm-.1-1.4v-3.5c-.4-1-1.3-1.6-2.4-1.6c-1.7 0-2.7 1.2-2.7 3.3c0 2.1 1 3.4 2.7 3.4c1.1 0 2-.6 2.4-1.6zm3.3-1.8c0-2.8 1.6-4.6 4.1-4.6c2.4 0 3.9 1.8 3.9 4.4c0 .2 0 .5-.1.7h-6.4c.2 1.8 1.1 2.9 2.7 2.9c1.1 0 2-.4 2.5-1.3l1 .8c-.6 1-1.8 1.8-3.6 1.8c-2.5 0-4.1-1.8-4.1-4.7zm1.6-.7h4.9c-.1-1.6-1.1-2.6-2.4-2.6c-1.4 0-2.3.9-2.5 2.6zm11.3.7c0-2.8 1.6-4.6 4-4.6c2.4 0 3.9 1.8 3.9 4.4v.7h-6.4c.1 1.8 1.1 2.9 2.7 2.9c1.1 0 2-.4 2.5-1.3l1 .8c-.7 1-1.9 1.8-3.6 1.8c-2.6 0-4.1-1.8-4.1-4.7zm1.5-.7h4.9c-.1-1.6-1-2.6-2.4-2.6c-1.4 0-2.3.9-2.5 2.6zm8.2-3.7h1.4s-.05 1.2 0 1.2c.4-.7 1.4-1.4 2.7-1.4c2 0 3.2 1.3 3.2 3.5v5.6h-1.4s-.03-5.42 0-5.4c0-1.6-.8-2.4-2.2-2.4c-1.2 0-2 .7-2.3 1.6v6.2h-1.4v-8.9zm8.9 6.2c0-1.7 1.3-3 3.3-3c1 0 1.9.4 2.5 1.1v-.9c0-1.3-.7-2.3-2.2-2.3c-1 0-1.6.3-2.2 1l-.8-1c.6-.7 1.5-1.3 3.1-1.3c2.3 0 3.6 1.4 3.6 3.5c-.05-.03 0 5.6 0 5.6h-1.4s-.04-.88 0-.9c-.7.7-1.6 1.1-2.6 1.1c-2 0-3.3-1.3-3.3-2.9zm5.8.6v-1.2c-.5-.8-1.5-1.2-2.3-1.2c-1.4 0-2 1-2 1.8c0 .8.6 1.7 2 1.7c.8 0 1.8-.3 2.3-1.1zm5.1 2.1H195v-12.8h1.4v5.1c.7-.9 1.7-1.4 2.8-1.4c2.4 0 3.9 1.9 3.9 4.6c0 2.8-1.5 4.7-3.9 4.7c-1.1 0-2.2-.6-2.9-1.5c.04.04 0 1.3 0 1.3zm5.3-4.5c0-2.1-1-3.3-2.7-3.3c-1.1 0-2.1.6-2.5 1.6v3.5c.4 1 1.4 1.6 2.5 1.6c1.7 0 2.7-1.3 2.7-3.4zm4.8-8.3v12.8h-1.5v-12.8h1.5zm1.8 8.3c0-2.8 1.6-4.6 4.1-4.6c2.4 0 3.9 1.8 3.9 4.4c0 .2-.1.5-.1.7h-6.4c.2 1.8 1.1 2.9 2.7 2.9c1.1 0 2-.4 2.5-1.3l1 .8c-.7 1-1.8 1.8-3.6 1.8c-2.5 0-4.1-1.8-4.1-4.7zm1.6-.7h4.8c0-1.6-1-2.6-2.3-2.6c-1.4 0-2.3.9-2.5 2.6zm12.7-1.7c-.6-.7-1.2-1-2-1c-.9 0-1.3.6-1.3 1.2c0 .7.4 1.1 1.1 1.2l.8.2c1.7.4 2.7 1.1 2.7 2.7c0 1.4-1.3 2.8-3.4 2.8c-1.6 0-2.7-.9-3.4-1.9l1-.8c.5.8 1.3 1.5 2.4 1.5c1.2 0 1.9-.6 1.9-1.5c0-.8-.7-1.2-1.6-1.4l-.8-.2c-1.4-.3-2.2-1.1-2.2-2.4c0-1.4 1-2.6 2.9-2.6c1.2 0 2.2.6 2.8 1.4l-.9.8zm9.2 6l-3.5-8h1.6s2.02 5.08 2 5.1c.3.7.5 1.3.5 1.6h.1c.1-.5.2-.9.5-1.6c-.04-.02 1.9-5.1 1.9-5.1h1.5l-4.9 12.3h-1.6l1.9-4.3zm12.4-3.6c0-2.1-1.1-3.3-2.8-3.3c-1.6 0-2.7 1.2-2.7 3.3c0 2.2 1.1 3.4 2.7 3.4c1.7 0 2.8-1.2 2.8-3.4zm1.5 0c0 2.8-1.7 4.7-4.3 4.7c-2.5 0-4.2-1.9-4.2-4.7c0-2.7 1.7-4.6 4.2-4.6c2.6 0 4.3 1.9 4.3 4.6zm9 4.5h-1.4s.04-1.21 0-1.2c-.4.7-1.4 1.4-2.7 1.4c-2.1 0-3.2-1.3-3.2-3.6c-.02.03 0-5.5 0-5.5h1.4s.02 5.39 0 5.4c0 1.6.8 2.4 2.2 2.4c1.2 0 2-.7 2.3-1.6c-.02.02 0-6.2 0-6.2h1.4v8.9zm6.8-2.8c-.04-.04 0-4.9 0-4.9h-1.6v-1.2h1.6v-2.3h1.4v2.3h2v1.2h-2v4.9c0 1.2.5 1.6 1.7 1.6h.3v1.2c-.2.1-.4.1-.7.1c-1.8 0-2.7-.9-2.7-2.9zm11.4-1.7c0-2.1-1.1-3.3-2.7-3.3c-1.7 0-2.8 1.2-2.8 3.3c0 2.2 1.1 3.4 2.8 3.4c1.6 0 2.7-1.2 2.7-3.4zm1.5 0c0 2.8-1.7 4.7-4.2 4.7c-2.6 0-4.2-1.9-4.2-4.7c0-2.7 1.6-4.6 4.2-4.6c2.5 0 4.2 1.9 4.2 4.6zm5.5-4.4h1.4v1.3c.6-.9 1.7-1.5 2.8-1.5c2.4 0 3.9 1.9 3.9 4.6c0 2.8-1.5 4.7-3.9 4.7c-1.1 0-2.1-.5-2.8-1.4c.04.01 0 4.6 0 4.6h-1.4v-12.3zm6.6 4.4c0-2.1-1-3.3-2.7-3.3c-1.1 0-2 .6-2.5 1.6v3.5c.5 1 1.4 1.6 2.5 1.6c1.7 0 2.7-1.3 2.7-3.4zm2.8 0c0-2.8 1.6-4.6 4.1-4.6c2.4 0 3.9 1.8 3.9 4.4c0 .2-.1.5-.1.7h-6.4c.2 1.8 1.1 2.9 2.7 2.9c1.1 0 2-.4 2.5-1.3l1 .8c-.7 1-1.8 1.8-3.6 1.8c-2.5 0-4.1-1.8-4.1-4.7zm1.5-.7h4.9c0-1.6-1-2.6-2.3-2.6c-1.4 0-2.3.9-2.6 2.6zm8.2-3.7h1.4v1.6c.5-1 1.4-1.8 2.7-1.8h.3c.03.01 0 1.5 0 1.5c0 0-.46-.03-.5 0c-1.1 0-2 .6-2.4 2c-.04-.03 0 5.6 0 5.6h-1.5v-8.9zm10.2 2c-.5-.7-1.2-1-2-1c-.9 0-1.3.6-1.3 1.2c0 .7.4 1.1 1.1 1.2l.8.2c1.7.4 2.7 1.1 2.7 2.7c0 1.4-1.3 2.8-3.4 2.8c-1.5 0-2.7-.9-3.3-1.9l.9-.8c.5.8 1.3 1.5 2.5 1.5c1.1 0 1.8-.6 1.8-1.5c0-.8-.6-1.2-1.6-1.4l-.8-.2c-1.4-.3-2.2-1.1-2.2-2.4c0-1.4 1-2.6 2.9-2.6c1.2 0 2.2.6 2.8 1.4l-.9.8zm9.4 2.4c0-2.1-1.1-3.3-2.7-3.3c-1.7 0-2.7 1.2-2.7 3.3c0 2.2 1 3.4 2.7 3.4c1.6 0 2.7-1.2 2.7-3.4zm1.5 0c0 2.8-1.7 4.7-4.2 4.7c-2.6 0-4.2-1.9-4.2-4.7c0-2.7 1.6-4.6 4.2-4.6c2.5 0 4.2 1.9 4.2 4.6zm1.8-4.4h1.4v1.2c.5-.7 1.5-1.4 2.7-1.4c2.1 0 3.3 1.3 3.3 3.5c-.04.04 0 5.6 0 5.6h-1.5s.02-5.42 0-5.4c0-1.6-.8-2.4-2.1-2.4c-1.2 0-2.1.7-2.3 1.6c-.04-.05 0 6.2 0 6.2h-1.5v-8.9zm9 6.2c0-1.7 1.3-3 3.3-3c.9 0 1.8.4 2.5 1.1v-.9c0-1.3-.7-2.3-2.2-2.3c-1.1 0-1.6.3-2.3 1l-.8-1c.7-.7 1.6-1.3 3.1-1.3c2.4 0 3.6 1.4 3.6 3.5v5.6h-1.4s.01-.88 0-.9c-.7.7-1.6 1.1-2.5 1.1c-2 0-3.3-1.3-3.3-2.9zm5.8.6v-1.2c-.5-.8-1.5-1.2-2.3-1.2c-1.5 0-2.1 1-2.1 1.8c0 .8.6 1.7 2.1 1.7c.8 0 1.8-.3 2.3-1.1zm5.1-10.7v12.8h-1.4v-12.8h1.4zm3.9 3.9v8.9h-1.4v-8.9h1.4zm.2-3.9v1.8H344v-1.8h1.8zm8 4.9l-4.7 6.7h4.8v1.2h-6.7v-1l4.6-6.7h-4.3v-1.2h6.3v1zm1.2 3.4c0-2.8 1.6-4.6 4.1-4.6c2.4 0 3.9 1.8 3.9 4.4c0 .2-.1.5-.1.7h-6.4c.2 1.8 1.1 2.9 2.7 2.9c1.1 0 2-.4 2.5-1.3l1 .8c-.7 1-1.8 1.8-3.6 1.8c-2.5 0-4.1-1.8-4.1-4.7zm1.6-.7h4.9c-.1-1.6-1.1-2.6-2.4-2.6c-1.4 0-2.3.9-2.5 2.6z" stroke="none" fill="#fff"/></g><g id="Polygon61345"><path d="m27 179.7c0-1.7 1.3-3 3.3-3c.9 0 1.8.4 2.5 1.1v-.9c0-1.3-.7-2.3-2.2-2.3c-1.1 0-1.6.3-2.3 1l-.8-1c.7-.7 1.6-1.3 3.1-1.3c2.4 0 3.6 1.4 3.6 3.5c.02-.03 0 5.6 0 5.6h-1.4s.03-.88 0-.9c-.6.7-1.6 1.1-2.5 1.1c-2 0-3.3-1.3-3.3-2.9zm5.8.6v-1.2c-.5-.8-1.5-1.2-2.3-1.2c-1.5 0-2 1-2 1.8c0 .8.5 1.7 2 1.7c.8 0 1.8-.3 2.3-1.1zm3.7-6.8h1.4v1.2c.5-.7 1.5-1.4 2.7-1.4c2.1 0 3.3 1.3 3.3 3.5c-.03.04 0 5.6 0 5.6h-1.5s.03-5.42 0-5.4c0-1.6-.8-2.4-2.1-2.4c-1.2 0-2.1.7-2.3 1.6c-.04-.05 0 6.2 0 6.2h-1.5v-8.9zm15.8 7.6c-.6.9-1.7 1.5-2.8 1.5c-2.4 0-3.9-1.9-3.9-4.7c0-2.7 1.5-4.6 3.9-4.6c1.1 0 2.1.5 2.8 1.4v-5.1h1.4v12.8h-1.4s.04-1.26 0-1.3zm0-1.4v-3.5c-.4-1-1.4-1.6-2.5-1.6c-1.7 0-2.7 1.2-2.7 3.3c0 2.1 1 3.4 2.7 3.4c1.1 0 2.1-.6 2.5-1.6zm11.1-6.4c1.7 0 3.1.9 3.6 2.3l-1.2.6c-.4-1.1-1.3-1.6-2.4-1.6c-1.6 0-2.6 1.2-2.6 3.3c0 2.2 1 3.4 2.6 3.4c1.1 0 2-.6 2.4-1.6l1.2.5c-.5 1.5-1.9 2.4-3.6 2.4c-2.6 0-4.1-1.9-4.1-4.7c0-2.7 1.5-4.6 4.1-4.6zm12.5 9.1h-1.4s-.02-1.21 0-1.2c-.5.7-1.5 1.4-2.7 1.4c-2.1 0-3.3-1.3-3.3-3.6c.02.03 0-5.5 0-5.5h1.5s-.04 5.39 0 5.4c0 1.6.8 2.4 2.1 2.4c1.2 0 2.1-.7 2.3-1.6c.03.02 0-6.2 0-6.2h1.5v8.9zm6.9-6.9c-.5-.7-1.2-1-1.9-1c-.9 0-1.4.6-1.4 1.2c0 .7.4 1.1 1.2 1.2l.7.2c1.7.4 2.7 1.1 2.7 2.7c0 1.4-1.2 2.8-3.3 2.8c-1.6 0-2.8-.9-3.4-1.9l.9-.8c.6.8 1.4 1.5 2.5 1.5c1.1 0 1.9-.6 1.9-1.5c0-.8-.7-1.2-1.7-1.4l-.7-.2c-1.4-.3-2.2-1.1-2.2-2.4c0-1.4 1-2.6 2.8-2.6c1.3 0 2.3.6 2.9 1.4l-1 .8zm3.6 4.1c-.04-.04 0-4.9 0-4.9h-1.6v-1.2h1.6v-2.3h1.4v2.3h2v1.2h-2v4.9c0 1.2.5 1.6 1.7 1.6h.3v1.2c-.2.1-.4.1-.6.1c-1.9 0-2.8-.9-2.8-2.9zm11.4-1.7c0-2.1-1.1-3.3-2.7-3.3c-1.7 0-2.7 1.2-2.7 3.3c0 2.2 1 3.4 2.7 3.4c1.6 0 2.7-1.2 2.7-3.4zm1.5 0c0 2.8-1.7 4.7-4.2 4.7c-2.6 0-4.2-1.9-4.2-4.7c0-2.7 1.6-4.6 4.2-4.6c2.5 0 4.2 1.9 4.2 4.6zm1.8-4.4h1.4v1.2c.5-.7 1.5-1.4 2.7-1.4c1.3 0 2.3.5 2.8 1.6c.4-.8 1.5-1.6 2.9-1.6c2.1 0 3.2 1.3 3.2 3.5c.02 0 0 5.6 0 5.6h-1.4s-.02-5.45 0-5.5c0-1.5-.8-2.3-2.1-2.3c-1.2 0-2 .7-2.3 1.6c.04-.05 0 6.2 0 6.2h-1.4v-5.5c0-1.5-.7-2.3-2-2.3c-1.2 0-2.1.7-2.3 1.6c-.04-.05 0 6.2 0 6.2h-1.5v-8.9zm19 0h1.4v1.2c.5-.7 1.5-1.4 2.7-1.4c1.3 0 2.3.5 2.8 1.6c.4-.8 1.5-1.6 2.9-1.6c2.1 0 3.2 1.3 3.2 3.5v5.6h-1.4s-.03-5.45 0-5.5c0-1.5-.8-2.3-2.1-2.3c-1.2 0-2 .7-2.3 1.6c.03-.05 0 6.2 0 6.2h-1.4v-5.5c0-1.5-.7-2.3-2-2.3c-1.3 0-2.1.7-2.3 1.6c-.05-.05 0 6.2 0 6.2h-1.5v-8.9zm21.7 4.4c0-2.1-1.1-3.3-2.8-3.3c-1.6 0-2.7 1.2-2.7 3.3c0 2.2 1.1 3.4 2.7 3.4c1.7 0 2.8-1.2 2.8-3.4zm1.5 0c0 2.8-1.7 4.7-4.3 4.7c-2.5 0-4.2-1.9-4.2-4.7c0-2.7 1.7-4.6 4.2-4.6c2.6 0 4.3 1.9 4.3 4.6zm8 3.2c-.7.9-1.7 1.5-2.9 1.5c-2.4 0-3.9-1.9-3.9-4.7c0-2.7 1.5-4.6 3.9-4.6c1.1 0 2.1.5 2.8 1.4c.02-.02 0-5.1 0-5.1h1.5v12.8h-1.4s-.03-1.26 0-1.3zm-.1-1.4v-3.5c-.4-1-1.4-1.6-2.5-1.6c-1.7 0-2.7 1.2-2.7 3.3c0 2.1 1 3.4 2.7 3.4c1.1 0 2.1-.6 2.5-1.6zm3.3-1.8c0-2.8 1.6-4.6 4.1-4.6c2.4 0 3.8 1.8 3.8 4.4v.7H156c.1 1.8 1.1 2.9 2.7 2.9c1.1 0 2-.4 2.5-1.3l1 .8c-.7 1-1.8 1.8-3.6 1.8c-2.5 0-4.1-1.8-4.1-4.7zm1.5-.7h4.9c-.1-1.6-1-2.6-2.3-2.6c-1.4 0-2.3.9-2.6 2.6zm16.4-1.7c-.5-.7-1.2-1-1.9-1c-.9 0-1.4.6-1.4 1.2c0 .7.5 1.1 1.2 1.2l.8.2c1.6.4 2.7 1.1 2.7 2.7c0 1.4-1.3 2.8-3.4 2.8c-1.6 0-2.7-.9-3.4-1.9l1-.8c.5.8 1.3 1.5 2.4 1.5c1.2 0 1.9-.6 1.9-1.5c0-.8-.7-1.2-1.7-1.4l-.7-.2c-1.4-.3-2.2-1.1-2.2-2.4c0-1.4 1-2.6 2.8-2.6c1.3 0 2.3.6 2.9 1.4l-1 .8zm2.5 2.4c0-2.8 1.6-4.6 4.1-4.6c2.4 0 3.9 1.8 3.9 4.4c0 .2 0 .5-.1.7h-6.3c.1 1.8 1 2.9 2.6 2.9c1.1 0 2-.4 2.6-1.3l.9.8c-.6 1-1.8 1.8-3.6 1.8c-2.5 0-4.1-1.8-4.1-4.7zm1.6-.7h4.9c-.1-1.6-1.1-2.6-2.4-2.6c-1.4 0-2.3.9-2.5 2.6zm8.6 2.4v-4.9h-1.6v-1.2h1.6v-2.3h1.4v2.3h2v1.2h-2s.05 4.86 0 4.9c0 1.2.6 1.6 1.8 1.6h.2s.05 1.22 0 1.2c-.1.1-.4.1-.6.1c-1.8 0-2.8-.9-2.8-2.9zm5.7 0v-4.9h-1.6v-1.2h1.6v-2.3h1.5v2.3h2v1.2h-2s-.05 4.86 0 4.9c0 1.2.5 1.6 1.7 1.6h.3s-.05 1.22 0 1.2c-.2.1-.5.1-.7.1c-1.8 0-2.8-.9-2.8-2.9zm6.5-6.1v8.9h-1.4v-8.9h1.4zm.2-3.9v1.8h-1.8v-1.8h1.8zm2.2 3.9h1.4s.03 1.2 0 1.2c.5-.7 1.5-1.4 2.7-1.4c2.1 0 3.3 1.3 3.3 3.5v5.6h-1.5s.05-5.42 0-5.4c0-1.6-.7-2.4-2.1-2.4c-1.2 0-2.1.7-2.3 1.6c-.02-.05 0 6.2 0 6.2h-1.5v-8.9zm9.1 4.2c0-2.6 1.5-4.4 3.7-4.4c1.2 0 2.2.5 2.8 1.4c.05.01 0-1.2 0-1.2h1.4s.03 8.13 0 8.1c0 2.3-1.2 4.4-4 4.4c-1.9 0-3.1-1-3.7-2.2l1.1-.7c.5.9 1.3 1.6 2.5 1.6c2 0 2.7-1.4 2.7-3v-1c-.7.8-1.6 1.4-2.8 1.4c-2.2 0-3.7-1.9-3.7-4.4zm6.5 1.5v-3.1c-.4-.9-1.3-1.5-2.4-1.5c-1.6 0-2.6 1.2-2.6 3.1c0 1.9 1 3.1 2.6 3.1c1.1 0 2-.6 2.4-1.6zm8.4-3.7c-.5-.7-1.2-1-2-1c-.8 0-1.3.6-1.3 1.2c0 .7.4 1.1 1.1 1.2l.8.2c1.7.4 2.7 1.1 2.7 2.7c0 1.4-1.2 2.8-3.4 2.8c-1.5 0-2.7-.9-3.3-1.9l.9-.8c.5.8 1.4 1.5 2.5 1.5c1.1 0 1.8-.6 1.8-1.5c0-.8-.6-1.2-1.6-1.4l-.8-.2c-1.4-.3-2.2-1.1-2.2-2.4c0-1.4 1.1-2.6 2.9-2.6c1.2 0 2.2.6 2.8 1.4l-.9.8zm2.8 5.7h2.2v2.2h-2.2v-2.2zm4.4-7.2l.8-2.9h-1v-1.8h2v1.6l-.8 3.1h-1zm3.5 0l.8-2.9h-1v-1.8h2.1v1.6l-.9 3.1h-1z" stroke="none" fill="#fff"/></g><g id="Polygon61344"><path d="m32.2 151.5c-.5-.7-1.2-1-1.9-1c-.9 0-1.4.6-1.4 1.2c0 .7.4 1.1 1.2 1.2l.7.2c1.7.4 2.7 1.1 2.7 2.7c0 1.4-1.2 2.8-3.3 2.8c-1.6 0-2.8-.9-3.4-1.9l.9-.8c.6.8 1.4 1.5 2.5 1.5c1.1 0 1.9-.6 1.9-1.5c0-.8-.7-1.2-1.7-1.4l-.7-.2c-1.4-.3-2.2-1.1-2.2-2.4c0-1.4 1-2.6 2.8-2.6c1.3 0 2.3.6 2.9 1.4l-1 .8zm3.1-5.9h1.4s.02 5.01 0 5c.5-.7 1.5-1.3 2.7-1.3c2.1 0 3.2 1.3 3.2 3.5c.02.04 0 5.6 0 5.6h-1.4s-.02-5.42 0-5.4c0-1.6-.8-2.4-2.2-2.4c-1.2 0-2 .7-2.3 1.6c.02-.05 0 6.2 0 6.2h-1.4v-12.8zm11.1 3.9v8.9h-1.5v-8.9h1.5zm.1-3.9v1.8h-1.8v-1.8h1.8zm2.9 5.1h-1.5v-1.2h1.5v-1.3c0-1.6.9-2.7 2.6-2.7h.8v1.2s-.44.04-.4 0c-1.1 0-1.6.5-1.6 1.5c.03-.02 0 1.3 0 1.3h2v1.2h-2v7.7h-1.4v-7.7zm5.5 4.9c-.04-.04 0-4.9 0-4.9h-1.6v-1.2h1.6v-2.3h1.4v2.3h2v1.2h-2v4.9c0 1.2.5 1.6 1.7 1.6h.3v1.2c-.2.1-.4.1-.6.1c-1.9 0-2.8-.9-2.8-2.9zm8.7-6.1h1.4v1.3c.7-.9 1.7-1.5 2.9-1.5c2.3 0 3.8 1.9 3.8 4.6c0 2.8-1.5 4.7-3.8 4.7c-1.2 0-2.2-.5-2.8-1.4c-.03.01 0 4.6 0 4.6h-1.5v-12.3zm6.7 4.4c0-2.1-1.1-3.3-2.7-3.3c-1.2 0-2.1.6-2.5 1.6v3.5c.4 1 1.3 1.6 2.5 1.6c1.6 0 2.7-1.3 2.7-3.4zm9.7 0c0-2.1-1.1-3.3-2.8-3.3c-1.6 0-2.7 1.2-2.7 3.3c0 2.2 1.1 3.4 2.7 3.4c1.7 0 2.8-1.2 2.8-3.4zm1.4 0c0 2.8-1.6 4.7-4.2 4.7c-2.5 0-4.2-1.9-4.2-4.7c0-2.7 1.7-4.6 4.2-4.6c2.6 0 4.2 1.9 4.2 4.6zm3.3-4.4v8.9h-1.4v-8.9h1.4zm.2-3.9v1.8h-1.8v-1.8h1.8zm2.2 3.9h1.4s.02 1.2 0 1.2c.5-.7 1.5-1.4 2.7-1.4c2.1 0 3.3 1.3 3.3 3.5c-.02.04 0 5.6 0 5.6H93s.04-5.42 0-5.4c0-1.6-.8-2.4-2.1-2.4c-1.2 0-2.1.7-2.3 1.6c-.02-.05 0 6.2 0 6.2h-1.5v-8.9zm10.3 6.1v-4.9h-1.6v-1.2h1.6v-2.3h1.5v2.3h2v1.2h-2s-.05 4.86 0 4.9c0 1.2.5 1.6 1.7 1.6h.3s-.05 1.22 0 1.2c-.2.1-.5.1-.7.1c-1.8 0-2.8-.9-2.8-2.9zm8.8-6.1h1.4s-.03 1.2 0 1.2c.4-.7 1.4-1.4 2.7-1.4c2.1 0 3.2 1.3 3.2 3.5c.02.04 0 5.6 0 5.6h-1.4s-.02-5.42 0-5.4c0-1.6-.8-2.4-2.2-2.4c-1.2 0-2 .7-2.3 1.6c.02-.05 0 6.2 0 6.2h-1.4v-8.9zm16 4.4c0-2.1-1.1-3.3-2.7-3.3c-1.7 0-2.8 1.2-2.8 3.3c0 2.2 1.1 3.4 2.8 3.4c1.6 0 2.7-1.2 2.7-3.4zm1.5 0c0 2.8-1.7 4.7-4.2 4.7c-2.6 0-4.2-1.9-4.2-4.7c0-2.7 1.6-4.6 4.2-4.6c2.5 0 4.2 1.9 4.2 4.6zm2.3 1.7v-4.9h-1.6v-1.2h1.6v-2.3h1.4v2.3h2v1.2h-2s.04 4.86 0 4.9c0 1.2.6 1.6 1.8 1.6h.2s.04 1.22 0 1.2c-.1.1-.4.1-.6.1c-1.8 0-2.8-.9-2.8-2.9zm6.5-6.1v8.9h-1.4v-8.9h1.4zm.2-3.9v1.8h-1.8v-1.8h1.8zm2.8 5.1H134v-1.2h1.5s.04-1.34 0-1.3c0-1.6.9-2.7 2.7-2.7h.7c.04.05 0 1.2 0 1.2c0 0-.39.04-.4 0c-1 0-1.5.5-1.5 1.5c-.02-.02 0 1.3 0 1.3h1.9v1.2H137v7.7h-1.5v-7.7zm6.3-1.2v8.9h-1.4v-8.9h1.4zm.2-3.9v1.8h-1.8v-1.8h1.8zm5.8 3.7c1.7 0 3.1.9 3.6 2.3l-1.2.6c-.4-1.1-1.3-1.6-2.4-1.6c-1.6 0-2.6 1.2-2.6 3.3c0 2.2 1 3.4 2.6 3.4c1.1 0 2-.6 2.4-1.6l1.2.5c-.5 1.5-1.9 2.4-3.6 2.4c-2.6 0-4.1-1.9-4.1-4.7c0-2.7 1.5-4.6 4.1-4.6zm4.5 6.4c0-1.7 1.3-3 3.3-3c1 0 1.9.4 2.5 1.1v-.9c0-1.3-.7-2.3-2.2-2.3c-1 0-1.6.3-2.2 1l-.8-1c.6-.7 1.5-1.3 3.1-1.3c2.3 0 3.6 1.4 3.6 3.5c-.03-.03 0 5.6 0 5.6h-1.4s-.02-.88 0-.9c-.7.7-1.6 1.1-2.6 1.1c-2 0-3.3-1.3-3.3-2.9zm5.8.6v-1.2c-.4-.8-1.4-1.2-2.3-1.2c-1.4 0-2 1-2 1.8c0 .8.6 1.7 2 1.7c.9 0 1.9-.3 2.3-1.1zm4.3-.7c-.03-.04 0-4.9 0-4.9h-1.6v-1.2h1.6v-2.3h1.4v2.3h2v1.2h-2v4.9c0 1.2.6 1.6 1.8 1.6h.2v1.2c-.2.1-.4.1-.6.1c-1.9 0-2.8-.9-2.8-2.9zm6.5-6.1v8.9h-1.4v-8.9h1.4zm.2-3.9v1.8h-1.8v-1.8h1.8zm8.6 8.3c0-2.1-1.1-3.3-2.8-3.3c-1.6 0-2.7 1.2-2.7 3.3c0 2.2 1.1 3.4 2.7 3.4c1.7 0 2.8-1.2 2.8-3.4zm1.4 0c0 2.8-1.6 4.7-4.2 4.7c-2.5 0-4.2-1.9-4.2-4.7c0-2.7 1.7-4.6 4.2-4.6c2.6 0 4.2 1.9 4.2 4.6zm1.9-4.4h1.4s-.03 1.2 0 1.2c.4-.7 1.4-1.4 2.7-1.4c2.1 0 3.2 1.3 3.2 3.5c.03.04 0 5.6 0 5.6h-1.4V153c0-1.6-.8-2.4-2.2-2.4c-1.2 0-2 .7-2.3 1.6c.03-.05 0 6.2 0 6.2H181v-8.9zm14.2 2c-.6-.7-1.2-1-2-1c-.9 0-1.3.6-1.3 1.2c0 .7.4 1.1 1.1 1.2l.8.2c1.7.4 2.7 1.1 2.7 2.7c0 1.4-1.3 2.8-3.4 2.8c-1.5 0-2.7-.9-3.3-1.9l.9-.8c.5.8 1.3 1.5 2.5 1.5c1.1 0 1.8-.6 1.8-1.5c0-.8-.6-1.2-1.6-1.4l-.8-.2c-1.4-.3-2.2-1.1-2.2-2.4c0-1.4 1-2.6 2.9-2.6c1.2 0 2.2.6 2.8 1.4l-.9.8zm3 10.9l.9-3H198v-2.2h2.3v2l-1 3.2h-1.1zm9.4-16.8v12.8h-1.4v-12.8h1.4zm1.8 10.1c0-1.7 1.2-3 3.3-3c.9 0 1.8.4 2.4 1.1v-.9c0-1.3-.7-2.3-2.1-2.3c-1.1 0-1.6.3-2.3 1l-.8-1c.6-.7 1.5-1.3 3.1-1.3c2.3 0 3.6 1.4 3.6 3.5v5.6h-1.4v-.9c-.7.7-1.6 1.1-2.5 1.1c-2.1 0-3.3-1.3-3.3-2.9zm5.7.6v-1.2c-.4-.8-1.4-1.2-2.2-1.2c-1.5 0-2.1 1-2.1 1.8c0 .8.6 1.7 2.1 1.7c.8 0 1.8-.3 2.2-1.1zm11 2.1h-1.4s.04-1.21 0-1.2c-.4.7-1.4 1.4-2.7 1.4c-2 0-3.2-1.3-3.2-3.6c-.02.03 0-5.5 0-5.5h1.4s.02 5.39 0 5.4c0 1.6.8 2.4 2.2 2.4c1.2 0 2-.7 2.3-1.6v-6.2h1.4v8.9zm2.4-8.9h1.4s.03 1.2 0 1.2c.5-.7 1.5-1.4 2.7-1.4c2.1 0 3.3 1.3 3.3 3.5c-.02.04 0 5.6 0 5.6h-1.5s.04-5.42 0-5.4c0-1.6-.7-2.4-2.1-2.4c-1.2 0-2.1.7-2.3 1.6c-.02-.05 0 6.2 0 6.2h-1.5v-8.9zm13.3-.2c1.6 0 3 .9 3.5 2.3l-1.1.6c-.4-1.1-1.3-1.6-2.4-1.6c-1.6 0-2.7 1.2-2.7 3.3c0 2.2 1.1 3.4 2.7 3.4c1.1 0 2-.6 2.4-1.6l1.1.5c-.5 1.5-1.9 2.4-3.5 2.4c-2.6 0-4.2-1.9-4.2-4.7c0-2.7 1.6-4.6 4.2-4.6zm5.2-3.7h1.4s.03 5.01 0 5c.5-.7 1.5-1.3 2.7-1.3c2.1 0 3.2 1.3 3.2 3.5c.03.04 0 5.6 0 5.6h-1.4V153c0-1.6-.8-2.4-2.2-2.4c-1.2 0-2 .7-2.3 1.6c.03-.05 0 6.2 0 6.2H247v-12.8zm16.9 3.7c1.7 0 3.1.9 3.6 2.3l-1.2.6c-.4-1.1-1.3-1.6-2.4-1.6c-1.6 0-2.6 1.2-2.6 3.3c0 2.2 1 3.4 2.6 3.4c1.1 0 2-.6 2.4-1.6l1.2.5c-.5 1.5-1.9 2.4-3.6 2.4c-2.6 0-4.1-1.9-4.1-4.7c0-2.7 1.5-4.6 4.1-4.6zm11.6 4.6c0-2.1-1.1-3.3-2.7-3.3c-1.7 0-2.8 1.2-2.8 3.3c0 2.2 1.1 3.4 2.8 3.4c1.6 0 2.7-1.2 2.7-3.4zm1.5 0c0 2.8-1.7 4.7-4.2 4.7c-2.6 0-4.2-1.9-4.2-4.7c0-2.7 1.6-4.6 4.2-4.6c2.5 0 4.2 1.9 4.2 4.6zm1.8-4.4h1.4v1.2c.5-.7 1.5-1.4 2.7-1.4c2.1 0 3.3 1.3 3.3 3.5c-.04.04 0 5.6 0 5.6h-1.5s.02-5.42 0-5.4c0-1.6-.8-2.4-2.1-2.4c-1.2 0-2.1.7-2.3 1.6c-.05-.05 0 6.2 0 6.2h-1.5v-8.9zm10.3 6.1v-4.9h-1.6v-1.2h1.6v-2.3h1.4v2.3h2v1.2h-2s.03 4.86 0 4.9c0 1.2.6 1.6 1.8 1.6h.2s.03 1.22 0 1.2c-.2.1-.4.1-.6.1c-1.9 0-2.8-.9-2.8-2.9zm5.1-6.1h1.4s-.05 1.57 0 1.6c.4-1 1.3-1.8 2.6-1.8h.4c-.02.01 0 1.5 0 1.5c0 0-.51-.03-.5 0c-1.2 0-2.1.6-2.5 2v5.6h-1.4v-8.9zm12.1 4.4c0-2.1-1.1-3.3-2.7-3.3c-1.7 0-2.7 1.2-2.7 3.3c0 2.2 1 3.4 2.7 3.4c1.6 0 2.7-1.2 2.7-3.4zm1.5 0c0 2.8-1.7 4.7-4.2 4.7c-2.6 0-4.2-1.9-4.2-4.7c0-2.7 1.6-4.6 4.2-4.6c2.5 0 4.2 1.9 4.2 4.6zm3.3-8.3v12.8h-1.5v-12.8h1.5zm10.6 5.9c-.5-.7-1.2-1-1.9-1c-.9 0-1.4.6-1.4 1.2c0 .7.4 1.1 1.2 1.2l.7.2c1.7.4 2.7 1.1 2.7 2.7c0 1.4-1.2 2.8-3.3 2.8c-1.6 0-2.8-.9-3.4-1.9l.9-.8c.5.8 1.4 1.5 2.5 1.5c1.1 0 1.9-.6 1.9-1.5c0-.8-.7-1.2-1.7-1.4l-.7-.2c-1.5-.3-2.2-1.1-2.2-2.4c0-1.4 1-2.6 2.8-2.6c1.3 0 2.2.6 2.8 1.4l-.9.8zm3.6 4.1c-.05-.04 0-4.9 0-4.9h-1.6v-1.2h1.6v-2.3h1.4v2.3h2v1.2h-2v4.9c0 1.2.5 1.6 1.7 1.6h.3v1.2c-.2.1-.4.1-.7.1c-1.8 0-2.7-.9-2.7-2.9zm4.3.1c0-1.7 1.3-3 3.3-3c1 0 1.9.4 2.5 1.1v-.9c0-1.3-.7-2.3-2.2-2.3c-1 0-1.6.3-2.2 1l-.8-1c.6-.7 1.5-1.3 3.1-1.3c2.3 0 3.6 1.4 3.6 3.5c-.04-.03 0 5.6 0 5.6h-1.4s-.02-.88 0-.9c-.7.7-1.6 1.1-2.6 1.1c-2 0-3.3-1.3-3.3-2.9zm5.8.6v-1.2c-.4-.8-1.5-1.2-2.3-1.2c-1.4 0-2 1-2 1.8c0 .8.6 1.7 2 1.7c.8 0 1.9-.3 2.3-1.1zm4.3-.7c-.03-.04 0-4.9 0-4.9h-1.6v-1.2h1.6v-2.3h1.4v2.3h2v1.2h-2v4.9c0 1.2.6 1.6 1.8 1.6h.2v1.2c-.2.1-.4.1-.6.1c-1.9 0-2.8-.9-2.8-2.9zm12.3 2.8h-1.4v-1.2c-.5.7-1.5 1.4-2.7 1.4c-2.1 0-3.3-1.3-3.3-3.6c.04.03 0-5.5 0-5.5h1.5s-.02 5.39 0 5.4c0 1.6.8 2.4 2.1 2.4c1.2 0 2.1-.7 2.3-1.6c.04.02 0-6.2 0-6.2h1.5v8.9zm6.9-6.9c-.5-.7-1.2-1-1.9-1c-.9 0-1.4.6-1.4 1.2c0 .7.5 1.1 1.2 1.2l.7.2c1.7.4 2.7 1.1 2.7 2.7c0 1.4-1.2 2.8-3.3 2.8c-1.6 0-2.7-.9-3.4-1.9l.9-.8c.6.8 1.4 1.5 2.5 1.5c1.1 0 1.9-.6 1.9-1.5c0-.8-.7-1.2-1.7-1.4l-.7-.2c-1.4-.3-2.2-1.1-2.2-2.4c0-1.4 1-2.6 2.8-2.6c1.3 0 2.3.6 2.9 1.4l-1 .8zm3.1 10.9l.9-3h-1.1v-2.2h2.3v2l-1 3.2H362z" stroke="none" fill="#fff"/></g><g id="Polygon61343"><path d="m32.2 127.5c-.5-.7-1.2-1-1.9-1c-.9 0-1.4.6-1.4 1.2c0 .7.4 1.1 1.2 1.2l.7.2c1.7.4 2.7 1.1 2.7 2.7c0 1.4-1.2 2.8-3.3 2.8c-1.6 0-2.8-.9-3.4-1.9l.9-.8c.6.8 1.4 1.5 2.5 1.5c1.1 0 1.9-.6 1.9-1.5c0-.8-.7-1.2-1.7-1.4l-.7-.2c-1.4-.3-2.2-1.1-2.2-2.4c0-1.4 1-2.6 2.8-2.6c1.3 0 2.3.6 2.9 1.4l-1 .8zm10.3 6.9h-1.4s.03-1.21 0-1.2c-.5.7-1.4 1.4-2.7 1.4c-2.1 0-3.2-1.3-3.2-3.6c-.03.03 0-5.5 0-5.5h1.4v5.4c0 1.6.8 2.4 2.2 2.4c1.2 0 2-.7 2.3-1.6c-.02.02 0-6.2 0-6.2h1.4v8.9zm6-9.1c1.7 0 3.1.9 3.6 2.3l-1.2.6c-.4-1.1-1.3-1.6-2.4-1.6c-1.6 0-2.6 1.2-2.6 3.3c0 2.2 1 3.4 2.6 3.4c1.1 0 2-.6 2.4-1.6l1.2.5c-.5 1.5-1.9 2.4-3.6 2.4c-2.6 0-4.1-1.9-4.1-4.7c0-2.7 1.5-4.6 4.1-4.6zm5.2-3.7h1.5s-.03 5.01 0 5c.5-.7 1.4-1.3 2.6-1.3c2.1 0 3.3 1.3 3.3 3.5c-.03.04 0 5.6 0 5.6h-1.5s.03-5.42 0-5.4c0-1.6-.8-2.4-2.1-2.4c-1.2 0-2.1.7-2.3 1.6c-.03-.05 0 6.2 0 6.2h-1.5v-12.8zm12.7 10.1c0-1.7 1.3-3 3.3-3c.9 0 1.8.4 2.5 1.1v-.9c0-1.3-.7-2.3-2.2-2.3c-1.1 0-1.6.3-2.3 1l-.8-1c.7-.7 1.6-1.3 3.1-1.3c2.4 0 3.6 1.4 3.6 3.5v5.6h-1.4s.01-.88 0-.9c-.7.7-1.6 1.1-2.5 1.1c-2 0-3.3-1.3-3.3-2.9zm5.8.6v-1.2c-.5-.8-1.5-1.2-2.3-1.2c-1.5 0-2.1 1-2.1 1.8c0 .8.6 1.7 2.1 1.7c.8 0 1.8-.3 2.3-1.1zm8.2-4.8c-.5-.7-1.1-1-1.9-1c-.9 0-1.4.6-1.4 1.2c0 .7.5 1.1 1.2 1.2l.8.2c1.6.4 2.7 1.1 2.7 2.7c0 1.4-1.3 2.8-3.4 2.8c-1.6 0-2.7-.9-3.4-1.9l1-.8c.5.8 1.3 1.5 2.4 1.5c1.2 0 1.9-.6 1.9-1.5c0-.8-.7-1.2-1.7-1.4l-.7-.2c-1.4-.3-2.2-1.1-2.2-2.4c0-1.4 1-2.6 2.9-2.6c1.2 0 2.2.6 2.8 1.4l-1 .8zm11.8-5.5c2.2 0 3.8 1.1 4.8 2.7l-1.3.8c-.7-1.2-1.8-2.2-3.4-2.2c-2.5 0-4 1.8-4 5c0 3.1 1.5 5 3.9 5c1.3 0 2.5-.5 3.3-1.2c-.05-.04 0-2.9 0-2.9h-2.9v-1.3h4.3s.05 4.86 0 4.9c-1.1 1-2.9 1.8-4.7 1.8c-3.3 0-5.5-2.5-5.5-6.3c0-3.8 2.3-6.3 5.5-6.3zm6.7 7.6v-1.3h4.6v1.3h-4.6zm8.7-.7v5.5h-1.5v-12.2h7.3v1.2h-5.8v4.3h5v1.2h-5zm13.4 1c0-2.1-1.1-3.3-2.8-3.3c-1.6 0-2.7 1.2-2.7 3.3c0 2.2 1.1 3.4 2.7 3.4c1.7 0 2.8-1.2 2.8-3.4zm1.5 0c0 2.8-1.7 4.7-4.3 4.7c-2.5 0-4.2-1.9-4.2-4.7c0-2.7 1.7-4.6 4.2-4.6c2.6 0 4.3 1.9 4.3 4.6zm1.8-4.4h1.4s-.03 1.57 0 1.6c.5-1 1.3-1.8 2.6-1.8h.4v1.5s-.49-.03-.5 0c-1.2 0-2 .6-2.5 2c.03-.03 0 5.6 0 5.6h-1.4v-8.9zm9.1-.2c1.7 0 3 .9 3.5 2.3l-1.1.6c-.4-1.1-1.3-1.6-2.4-1.6c-1.6 0-2.7 1.2-2.7 3.3c0 2.2 1.1 3.4 2.7 3.4c1.1 0 2-.6 2.4-1.6l1.1.5c-.5 1.5-1.8 2.4-3.5 2.4c-2.6 0-4.2-1.9-4.2-4.7c0-2.7 1.6-4.6 4.2-4.6zm4.6 4.6c0-2.8 1.6-4.6 4.1-4.6c2.4 0 3.9 1.8 3.9 4.4c0 .2 0 .5-.1.7h-6.3c.1 1.8 1 2.9 2.6 2.9c1.1 0 2-.4 2.6-1.3l.9.8c-.6 1-1.8 1.8-3.6 1.8c-2.5 0-4.1-1.8-4.1-4.7zm1.6-.7h4.9c-.1-1.6-1.1-2.6-2.4-2.6c-1.4 0-2.3.9-2.5 2.6zm8.1 9.2l.9-3h-1.1v-2.2h2.3v2l-1 3.2h-1.1zm8.6-6.8c.05-.04 0-4.9 0-4.9h-1.6v-1.2h1.7v-2.3h1.4v2.3h2v1.2h-2v4.9c0 1.2.5 1.6 1.7 1.6h.3s-.02 1.22 0 1.2c-.2.1-.4.1-.7.1c-1.8 0-2.8-.9-2.8-2.9zm11.5-1.7c0-2.1-1.1-3.3-2.7-3.3c-1.7 0-2.8 1.2-2.8 3.3c0 2.2 1.1 3.4 2.8 3.4c1.6 0 2.7-1.2 2.7-3.4zm1.5 0c0 2.8-1.7 4.7-4.2 4.7c-2.6 0-4.3-1.9-4.3-4.7c0-2.7 1.7-4.6 4.3-4.6c2.5 0 4.2 1.9 4.2 4.6zm1.8-4.4h1.4v1.6c.5-1 1.4-1.8 2.6-1.8h.4v1.5s-.47-.03-.5 0c-1.2 0-2 .6-2.5 2c.04-.03 0 5.6 0 5.6h-1.4v-8.9zm13.3 12.3H183v-4.6c-.6.9-1.7 1.4-2.8 1.4c-2.4 0-3.9-1.9-3.9-4.7c0-2.7 1.5-4.6 3.9-4.6c1.2 0 2.2.6 2.9 1.5c-.04-.05 0-1.3 0-1.3h1.3v12.3zm-1.4-6.1v-3.5c-.4-1-1.4-1.6-2.5-1.6c-1.7 0-2.7 1.2-2.7 3.3c0 2.1 1 3.4 2.7 3.4c1.1 0 2.1-.6 2.5-1.6zm11.1 2.7h-1.4v-1.2c-.5.7-1.5 1.4-2.7 1.4c-2.1 0-3.3-1.3-3.3-3.6c.05.03 0-5.5 0-5.5h1.5v5.4c0 1.6.8 2.4 2.1 2.4c1.3 0 2.1-.7 2.4-1.6c-.05.02 0-6.2 0-6.2h1.4v8.9zm1.8-4.5c0-2.8 1.6-4.6 4.1-4.6c2.4 0 3.9 1.8 3.9 4.4c0 .2 0 .5-.1.7h-6.3c.1 1.8 1.1 2.9 2.6 2.9c1.1 0 2-.4 2.6-1.3l.9.8c-.6 1-1.8 1.8-3.6 1.8c-2.5 0-4.1-1.8-4.1-4.7zm1.6-.7h4.9c-.1-1.6-1.1-2.6-2.4-2.6c-1.4 0-2.3.9-2.5 2.6zm8.1 9.2l.9-3h-1.1v-2.2h2.3v2l-1 3.2h-1.1zm9.4-4h-1.4v-12.8h1.5s-.04 5.08 0 5.1c.6-.9 1.6-1.4 2.8-1.4c2.3 0 3.8 1.9 3.8 4.6c0 2.8-1.5 4.7-3.8 4.7c-1.2 0-2.2-.6-2.9-1.5v1.3zm5.2-4.5c0-2.1-1-3.3-2.7-3.3c-1.1 0-2 .6-2.4 1.6v3.5c.4 1 1.3 1.6 2.4 1.6c1.7 0 2.7-1.3 2.7-3.4zm9.7 0c0-2.1-1-3.3-2.7-3.3c-1.6 0-2.7 1.2-2.7 3.3c0 2.2 1.1 3.4 2.7 3.4c1.7 0 2.7-1.2 2.7-3.4zm1.5 0c0 2.8-1.6 4.7-4.2 4.7c-2.5 0-4.2-1.9-4.2-4.7c0-2.7 1.7-4.6 4.2-4.6c2.6 0 4.2 1.9 4.2 4.6zm8.2 0c0-2.1-1-3.3-2.7-3.3c-1.6 0-2.7 1.2-2.7 3.3c0 2.2 1.1 3.4 2.7 3.4c1.7 0 2.7-1.2 2.7-3.4zm1.5 0c0 2.8-1.6 4.7-4.2 4.7c-2.5 0-4.2-1.9-4.2-4.7c0-2.7 1.7-4.6 4.2-4.6c2.6 0 4.2 1.9 4.2 4.6zm6.4-2.4c-.5-.7-1.2-1-1.9-1c-.9 0-1.4.6-1.4 1.2c0 .7.4 1.1 1.2 1.2l.7.2c1.7.4 2.7 1.1 2.7 2.7c0 1.4-1.2 2.8-3.4 2.8c-1.5 0-2.7-.9-3.3-1.9l.9-.8c.5.8 1.4 1.5 2.5 1.5c1.1 0 1.9-.6 1.9-1.5c0-.8-.7-1.2-1.7-1.4l-.8-.2c-1.4-.3-2.2-1.1-2.2-2.4c0-1.4 1.1-2.6 2.9-2.6c1.2 0 2.2.6 2.8 1.4l-.9.8zm3.5 4.1c.04-.04 0-4.9 0-4.9h-1.6v-1.2h1.7v-2.3h1.4v2.3h2v1.2h-2s-.02 4.86 0 4.9c0 1.2.5 1.6 1.7 1.6h.3s-.02 1.22 0 1.2c-.2.1-.4.1-.7.1c-1.8 0-2.8-.9-2.8-2.9zm4.6-1.7c0-2.8 1.6-4.6 4-4.6c2.4 0 3.9 1.8 3.9 4.4c0 .2 0 .5-.1.7h-6.3c.1 1.8 1.1 2.9 2.7 2.9c1.1 0 2-.4 2.5-1.3l.9.8c-.6 1-1.8 1.8-3.5 1.8c-2.6 0-4.1-1.8-4.1-4.7zm1.5-.7h4.9c-.1-1.6-1-2.6-2.4-2.6c-1.4 0-2.3.9-2.5 2.6zm8.2-3.7h1.3s.05 1.57 0 1.6c.5-1 1.4-1.8 2.7-1.8h.4c-.03.01 0 1.5 0 1.5c0 0-.51-.03-.5 0c-1.2 0-2.1.6-2.5 2v5.6h-1.4v-8.9zm9.4 0h1.4s.02 1.25 0 1.3c.7-.9 1.7-1.5 2.9-1.5c2.3 0 3.8 1.9 3.8 4.6c0 2.8-1.5 4.7-3.8 4.7c-1.2 0-2.2-.5-2.8-1.4c-.03.01 0 4.6 0 4.6h-1.5v-12.3zm6.7 4.4c0-2.1-1.1-3.3-2.7-3.3c-1.2 0-2.1.6-2.5 1.6v3.5c.4 1 1.3 1.6 2.5 1.6c1.6 0 2.7-1.3 2.7-3.4zm3.3-4.4h1.4v1.6c.5-1 1.4-1.8 2.6-1.8h.4v1.5s-.47-.03-.5 0c-1.2 0-2 .6-2.5 2c.04-.03 0 5.6 0 5.6h-1.4v-8.9zm5.2 4.4c0-2.8 1.6-4.6 4.1-4.6c2.4 0 3.9 1.8 3.9 4.4c0 .2-.1.5-.1.7h-6.4c.2 1.8 1.1 2.9 2.7 2.9c1.1 0 2-.4 2.5-1.3l1 .8c-.7 1-1.8 1.8-3.6 1.8c-2.5 0-4.1-1.8-4.1-4.7zm1.6-.7h4.8c0-1.6-1-2.6-2.3-2.6c-1.4 0-2.3.9-2.5 2.6zm12.7-1.7c-.6-.7-1.2-1-2-1c-.9 0-1.3.6-1.3 1.2c0 .7.4 1.1 1.1 1.2l.8.2c1.7.4 2.7 1.1 2.7 2.7c0 1.4-1.3 2.8-3.4 2.8c-1.6 0-2.7-.9-3.4-1.9l1-.8c.5.8 1.3 1.5 2.4 1.5c1.2 0 1.9-.6 1.9-1.5c0-.8-.7-1.2-1.6-1.4l-.8-.2c-1.4-.3-2.2-1.1-2.2-2.4c0-1.4 1-2.6 2.9-2.6c1.2 0 2.2.6 2.8 1.4l-.9.8zm7.6 0c-.6-.7-1.2-1-2-1c-.9 0-1.3.6-1.3 1.2c0 .7.4 1.1 1.1 1.2l.8.2c1.7.4 2.7 1.1 2.7 2.7c0 1.4-1.3 2.8-3.4 2.8c-1.6 0-2.7-.9-3.4-1.9l1-.8c.5.8 1.3 1.5 2.4 1.5c1.2 0 1.9-.6 1.9-1.5c0-.8-.7-1.2-1.6-1.4l-.8-.2c-1.4-.3-2.2-1.1-2.2-2.4c0-1.4 1-2.6 2.9-2.6c1.2 0 2.2.6 2.8 1.4l-.9.8zm10.3 6.9h-1.4s-.04-1.21 0-1.2c-.5.7-1.5 1.4-2.8 1.4c-2 0-3.2-1.3-3.2-3.6v-5.5h1.4s.05 5.39 0 5.4c0 1.6.8 2.4 2.2 2.4c1.2 0 2-.7 2.3-1.6v-6.2h1.5v8.9zm2.4-8.9h1.3s.05 1.57 0 1.6c.5-1 1.4-1.8 2.7-1.8h.4c-.03.01 0 1.5 0 1.5c0 0-.51-.03-.5 0c-1.2 0-2.1.6-2.5 2v5.6h-1.4v-8.9zm5.2 4.4c0-2.8 1.6-4.6 4-4.6c2.4 0 3.9 1.8 3.9 4.4v.7h-6.4c.1 1.8 1.1 2.9 2.7 2.9c1.1 0 2-.4 2.5-1.3l1 .8c-.7 1-1.8 1.8-3.6 1.8c-2.6 0-4.1-1.8-4.1-4.7zm1.5-.7h4.9c-.1-1.6-1-2.6-2.4-2.6c-1.3 0-2.3.9-2.5 2.6zm8.1 9.2l1-3h-1.1v-2.2h2.3v2l-1 3.2h-1.2z" stroke="none" fill="#fff"/></g><g id="Polygon61342"><path d="m32.2 103.5c-.5-.7-1.2-1-1.9-1c-.9 0-1.4.6-1.4 1.2c0 .7.4 1.1 1.2 1.2l.7.2c1.7.4 2.7 1.1 2.7 2.7c0 1.4-1.2 2.8-3.3 2.8c-1.6 0-2.8-.9-3.4-1.9l.9-.8c.6.8 1.4 1.5 2.5 1.5c1.1 0 1.9-.6 1.9-1.5c0-.8-.7-1.2-1.7-1.4l-.7-.2c-1.4-.3-2.2-1.1-2.2-2.4c0-1.4 1-2.6 2.8-2.6c1.3 0 2.3.6 2.9 1.4l-1 .8zm3.1-2h1.4s-.03 1.25 0 1.3c.6-.9 1.7-1.5 2.8-1.5c2.4 0 3.9 1.9 3.9 4.6c0 2.8-1.5 4.7-3.9 4.7c-1.1 0-2.1-.5-2.8-1.4c.02.01 0 4.6 0 4.6h-1.4v-12.3zm6.6 4.4c0-2.1-1-3.3-2.7-3.3c-1.1 0-2.1.6-2.5 1.6v3.5c.4 1 1.4 1.6 2.5 1.6c1.7 0 2.7-1.3 2.7-3.4zm2.8 0c0-2.8 1.6-4.6 4-4.6c2.4 0 3.9 1.8 3.9 4.4v.7h-6.4c.1 1.8 1.1 2.9 2.7 2.9c1.1 0 2-.4 2.5-1.3l1 .8c-.7 1-1.8 1.8-3.6 1.8c-2.5 0-4.1-1.8-4.1-4.7zm1.5-.7h4.9c-.1-1.6-1-2.6-2.4-2.6c-1.3 0-2.3.9-2.5 2.6zm11.8-3.9c1.7 0 3 .9 3.5 2.3l-1.1.6c-.4-1.1-1.3-1.6-2.4-1.6c-1.6 0-2.7 1.2-2.7 3.3c0 2.2 1.1 3.4 2.7 3.4c1.1 0 2-.6 2.4-1.6l1.1.5c-.5 1.5-1.8 2.4-3.5 2.4c-2.6 0-4.2-1.9-4.2-4.7c0-2.7 1.6-4.6 4.2-4.6zm6.6.2v8.9h-1.4v-8.9h1.4zm.2-3.9v1.8H63v-1.8h1.8zm2.9 5.1h-1.6v-1.2h1.6s-.04-1.34 0-1.3c0-1.6.8-2.7 2.6-2.7h.8c-.04.05 0 1.2 0 1.2c0 0-.47.04-.5 0c-1 0-1.5.5-1.5 1.5v1.3h2v1.2h-2v7.7h-1.4v-7.7zm6.2-1.2v8.9h-1.4v-8.9h1.4zm.2-3.9v1.8h-1.8v-1.8h1.8zm5.8 3.7c1.7 0 3.1.9 3.6 2.3l-1.2.6c-.4-1.1-1.2-1.6-2.4-1.6c-1.6 0-2.6 1.2-2.6 3.3c0 2.2 1 3.4 2.6 3.4c1.2 0 2-.6 2.4-1.6l1.2.5c-.5 1.5-1.9 2.4-3.6 2.4c-2.6 0-4.1-1.9-4.1-4.7c0-2.7 1.5-4.6 4.1-4.6zm10.4.2v8.9h-1.5v-8.9h1.5zm.2-3.9v1.8h-1.8v-1.8h1.8zm2.2 3.9h1.4s-.02 1.2 0 1.2c.5-.7 1.5-1.4 2.7-1.4c2.1 0 3.2 1.3 3.2 3.5c.04.04 0 5.6 0 5.6h-1.4V105c0-1.6-.8-2.4-2.2-2.4c-1.2 0-2 .7-2.3 1.6c.04-.05 0 6.2 0 6.2h-1.4v-8.9zm10.3 1.2h-1.6v-1.2h1.6s-.04-1.34 0-1.3c0-1.6.8-2.7 2.6-2.7h.8c-.04.05 0 1.2 0 1.2c0 0-.47.04-.5 0c-1 0-1.5.5-1.5 1.5v1.3h2v1.2h-2v7.7H103v-7.7zm11 3.2c0-2.1-1.1-3.3-2.7-3.3c-1.7 0-2.8 1.2-2.8 3.3c0 2.2 1.1 3.4 2.8 3.4c1.6 0 2.7-1.2 2.7-3.4zm1.5 0c0 2.8-1.7 4.7-4.2 4.7c-2.6 0-4.3-1.9-4.3-4.7c0-2.7 1.7-4.6 4.3-4.6c2.5 0 4.2 1.9 4.2 4.6zm1.8-4.4h1.4v1.6c.5-1 1.4-1.8 2.6-1.8h.4v1.5s-.47-.03-.5 0c-1.2 0-2 .6-2.5 2c.04-.03 0 5.6 0 5.6h-1.4v-8.9zm5.8 0h1.4s-.03 1.2 0 1.2c.4-.7 1.4-1.4 2.7-1.4c1.3 0 2.2.5 2.7 1.6c.5-.8 1.6-1.6 3-1.6c2 0 3.2 1.3 3.2 3.5c-.02 0 0 5.6 0 5.6h-1.5s.04-5.45 0-5.5c0-1.5-.7-2.3-2-2.3c-1.2 0-2 .7-2.3 1.6v6.2h-1.4s-.04-5.45 0-5.5c0-1.5-.8-2.3-2.1-2.3c-1.2 0-2 .7-2.3 1.6c.02-.05 0 6.2 0 6.2h-1.4v-8.9zm14.6 6.2c0-1.7 1.3-3 3.3-3c.9 0 1.8.4 2.5 1.1v-.9c0-1.3-.7-2.3-2.2-2.3c-1.1 0-1.6.3-2.3 1l-.8-1c.7-.7 1.6-1.3 3.1-1.3c2.4 0 3.6 1.4 3.6 3.5c.02-.03 0 5.6 0 5.6h-1.4s.03-.88 0-.9c-.6.7-1.6 1.1-2.5 1.1c-2 0-3.3-1.3-3.3-2.9zm5.8.6v-1.2c-.5-.8-1.5-1.2-2.3-1.2c-1.5 0-2 1-2 1.8c0 .8.5 1.7 2 1.7c.8 0 1.8-.3 2.3-1.1zm4.2-.7c.02-.04 0-4.9 0-4.9h-1.6v-1.2h1.6v-2.3h1.5v2.3h2v1.2h-2s-.04 4.86 0 4.9c0 1.2.5 1.6 1.7 1.6h.3s-.04 1.22 0 1.2c-.2.1-.5.1-.7.1c-1.8 0-2.8-.9-2.8-2.9zm6.5-6.1v8.9h-1.4v-8.9h1.4zm.2-3.9v1.8h-1.8v-1.8h1.8zm8.6 8.3c0-2.1-1.1-3.3-2.7-3.3c-1.7 0-2.7 1.2-2.7 3.3c0 2.2 1 3.4 2.7 3.4c1.6 0 2.7-1.2 2.7-3.4zm1.5 0c0 2.8-1.7 4.7-4.2 4.7c-2.6 0-4.2-1.9-4.2-4.7c0-2.7 1.6-4.6 4.2-4.6c2.5 0 4.2 1.9 4.2 4.6zm1.8-4.4h1.4s.02 1.2 0 1.2c.5-.7 1.5-1.4 2.7-1.4c2.1 0 3.3 1.3 3.3 3.5c-.02.04 0 5.6 0 5.6h-1.5s.04-5.42 0-5.4c0-1.6-.8-2.4-2.1-2.4c-1.2 0-2.1.7-2.3 1.6c-.03-.05 0 6.2 0 6.2h-1.5v-8.9zm13.4 0h1.4s-.04 1.57 0 1.6c.4-1 1.3-1.8 2.6-1.8h.4c-.02.01 0 1.5 0 1.5c0 0-.5-.03-.5 0c-1.2 0-2.1.6-2.5 2v5.6h-1.4v-8.9zm5.2 4.4c0-2.8 1.6-4.6 4-4.6c2.4 0 3.9 1.8 3.9 4.4v.7h-6.4c.1 1.8 1.1 2.9 2.7 2.9c1.1 0 2-.4 2.5-1.3l1 .8c-.7 1-1.8 1.8-3.6 1.8c-2.5 0-4.1-1.8-4.1-4.7zm1.5-.7h4.9c-.1-1.6-1-2.6-2.4-2.6c-1.3 0-2.3.9-2.5 2.6zm15.8 8.6h-1.5v-4.6c-.6.9-1.7 1.4-2.8 1.4c-2.4 0-3.9-1.9-3.9-4.7c0-2.7 1.5-4.6 3.9-4.6c1.2 0 2.2.6 2.9 1.5c-.03-.05 0-1.3 0-1.3h1.4v12.3zm-1.5-6.1v-3.5c-.4-1-1.4-1.6-2.5-1.6c-1.7 0-2.7 1.2-2.7 3.3c0 2.1 1 3.4 2.7 3.4c1.1 0 2.1-.6 2.5-1.6zm11.1 2.7h-1.4s.02-1.21 0-1.2c-.5.7-1.5 1.4-2.7 1.4c-2.1 0-3.2-1.3-3.2-3.6c-.04.03 0-5.5 0-5.5h1.4v5.4c0 1.6.8 2.4 2.2 2.4c1.2 0 2-.7 2.3-1.6c-.04.02 0-6.2 0-6.2h1.4v8.9zm3.9-8.9v8.9h-1.5v-8.9h1.5zm.1-3.9v1.8H214v-1.8h1.8zm2.3 3.9h1.4s-.05 1.57 0 1.6c.4-1 1.3-1.8 2.6-1.8h.4c-.02.01 0 1.5 0 1.5c0 0-.51-.03-.5 0c-1.2 0-2.1.6-2.5 2v5.6h-1.4v-8.9zm5.2 4.4c0-2.8 1.6-4.6 4-4.6c2.4 0 3.9 1.8 3.9 4.4v.7h-6.4c.1 1.8 1.1 2.9 2.7 2.9c1.1 0 2-.4 2.5-1.3l1 .8c-.7 1-1.8 1.8-3.6 1.8c-2.5 0-4.1-1.8-4.1-4.7zm1.5-.7h4.9c-.1-1.6-1-2.6-2.4-2.6c-1.3 0-2.3.9-2.5 2.6zm14.4 3.9c-.7.9-1.7 1.5-2.9 1.5c-2.4 0-3.9-1.9-3.9-4.7c0-2.7 1.5-4.6 3.9-4.6c1.1 0 2.1.5 2.8 1.4v-5.1h1.4v12.8h-1.3s-.04-1.26 0-1.3zm-.1-1.4v-3.5c-.4-1-1.4-1.6-2.5-1.6c-1.7 0-2.7 1.2-2.7 3.3c0 2.1 1 3.4 2.7 3.4c1.1 0 2.1-.6 2.5-1.6zm13.9-1.8c0-2.1-1.1-3.3-2.7-3.3c-1.7 0-2.7 1.2-2.7 3.3c0 2.2 1 3.4 2.7 3.4c1.6 0 2.7-1.2 2.7-3.4zm1.5 0c0 2.8-1.7 4.7-4.2 4.7c-2.6 0-4.2-1.9-4.2-4.7c0-2.7 1.6-4.6 4.2-4.6c2.5 0 4.2 1.9 4.2 4.6zm1.8-4.4h1.4s.02 1.2 0 1.2c.5-.7 1.5-1.4 2.7-1.4c2.1 0 3.3 1.3 3.3 3.5c-.02.04 0 5.6 0 5.6h-1.5s.04-5.42 0-5.4c0-1.6-.8-2.4-2.1-2.4c-1.2 0-2.1.7-2.3 1.6c-.03-.05 0 6.2 0 6.2h-1.5v-8.9zm14 6.1v-4.9h-1.6v-1.2h1.6v-2.3h1.4v2.3h2v1.2h-2s.04 4.86 0 4.9c0 1.2.6 1.6 1.8 1.6h.2s.04 1.22 0 1.2c-.1.1-.4.1-.6.1c-1.8 0-2.8-.9-2.8-2.9zm5.1-10h1.4s.02 5.01 0 5c.5-.7 1.5-1.3 2.7-1.3c2.1 0 3.2 1.3 3.2 3.5c.02.04 0 5.6 0 5.6h-1.4s-.02-5.42 0-5.4c0-1.6-.8-2.4-2.2-2.4c-1.2 0-2 .7-2.3 1.6c.02-.05 0 6.2 0 6.2h-1.4V97.6zm9.1 8.3c0-2.8 1.6-4.6 4-4.6c2.4 0 3.9 1.8 3.9 4.4v.7H286c.1 1.8 1.1 2.9 2.7 2.9c1.1 0 2-.4 2.5-1.3l1 .8c-.7 1-1.9 1.8-3.6 1.8c-2.6 0-4.1-1.8-4.1-4.7zm1.5-.7h4.9c-.1-1.6-1-2.6-2.4-2.6c-1.4 0-2.3.9-2.5 2.6zm12.5 2.4v-4.9h-1.6v-1.2h1.6v-2.3h1.4v2.3h2v1.2h-2s.03 4.86 0 4.9c0 1.2.6 1.6 1.8 1.6h.2s.03 1.22 0 1.2c-.2.1-.4.1-.6.1c-1.9 0-2.8-.9-2.8-2.9zm5.1-6.1h1.4s-.05 1.57 0 1.6c.4-1 1.3-1.8 2.6-1.8h.4c-.03.01 0 1.5 0 1.5c0 0-.51-.03-.5 0c-1.2 0-2.1.6-2.5 2v5.6h-1.4v-8.9zm4.8 6.2c0-1.7 1.3-3 3.3-3c.9 0 1.8.4 2.5 1.1v-.9c0-1.3-.7-2.3-2.2-2.3c-1.1 0-1.6.3-2.2 1l-.9-1c.7-.7 1.6-1.3 3.1-1.3c2.4 0 3.6 1.4 3.6 3.5c.02-.03 0 5.6 0 5.6h-1.4s.04-.88 0-.9c-.6.7-1.5 1.1-2.5 1.1c-2 0-3.3-1.3-3.3-2.9zm5.8.6v-1.2c-.5-.8-1.5-1.2-2.3-1.2c-1.5 0-2 1-2 1.8c0 .8.5 1.7 2 1.7c.8 0 1.8-.3 2.3-1.1zm7.3-7c1.7 0 3.1.9 3.6 2.3l-1.2.6c-.4-1.1-1.3-1.6-2.4-1.6c-1.6 0-2.6 1.2-2.6 3.3c0 2.2 1 3.4 2.6 3.4c1.1 0 2-.6 2.4-1.6l1.2.5c-.5 1.5-1.9 2.4-3.6 2.4c-2.6 0-4.1-1.9-4.1-4.7c0-2.7 1.5-4.6 4.1-4.6zm8 4.8l-1.3 1.5v2.8h-1.5V97.6h1.5v8.2l3.8-4.3h1.7l-3.3 3.6l3.8 5.2v.1h-1.7l-3-4.3zm5.7 8.3l.9-3H335v-2.2h2.3v2l-1 3.2h-1.1z" stroke="none" fill="#fff"/></g><g id="Polygon61341"><path d="m33.9 85.1c-.7.9-1.8 1.5-2.9 1.5c-2.4 0-3.9-1.9-3.9-4.7c0-2.7 1.5-4.6 3.9-4.6c1.1 0 2.1.5 2.8 1.4v-5.1h1.4v12.8h-1.3s-.04-1.26 0-1.3zm-.1-1.4v-3.5c-.4-1-1.4-1.6-2.5-1.6c-1.7 0-2.7 1.2-2.7 3.3c0 2.1 1 3.4 2.7 3.4c1.1 0 2.1-.6 2.5-1.6zm5.3-6.2v8.9h-1.4v-8.9h1.4zm.2-3.9v1.8h-1.8v-1.8h1.8zm1.6 8.1c0-2.6 1.5-4.4 3.8-4.4c1.1 0 2.1.5 2.8 1.4c-.03.01 0-1.2 0-1.2h1.4s-.05 8.13 0 8.1c0 2.3-1.3 4.4-4.1 4.4c-1.9 0-3.1-1-3.6-2.2l1-.7c.5.9 1.3 1.6 2.6 1.6c1.9 0 2.6-1.4 2.6-3v-1c-.6.8-1.6 1.4-2.7 1.4c-2.3 0-3.8-1.9-3.8-4.4zm6.5 1.5v-3.1c-.4-.9-1.3-1.5-2.4-1.5c-1.6 0-2.6 1.2-2.6 3.1c0 1.9 1 3.1 2.6 3.1c1.1 0 2-.6 2.4-1.6zm5.3-5.7v8.9h-1.4v-8.9h1.4zm.2-3.9v1.8h-1.8v-1.8h1.8zm2.8 10c.04-.04 0-4.9 0-4.9h-1.6v-1.2h1.7v-2.3h1.4v2.3h2v1.2h-2s-.02 4.86 0 4.9c0 1.2.5 1.6 1.7 1.6h.3s-.02 1.22 0 1.2c-.2.1-.4.1-.7.1c-1.8 0-2.8-.9-2.8-2.9zm4.4.1c0-1.7 1.3-3 3.3-3c1 0 1.9.4 2.5 1.1v-.9c0-1.3-.7-2.3-2.2-2.3c-1 0-1.6.3-2.2 1l-.8-1c.6-.7 1.5-1.3 3.1-1.3c2.3 0 3.6 1.4 3.6 3.5c-.05-.03 0 5.6 0 5.6H66s-.03-.88 0-.9c-.7.7-1.6 1.1-2.6 1.1c-2 0-3.3-1.3-3.3-2.9zm5.8.6v-1.2c-.5-.8-1.5-1.2-2.3-1.2c-1.4 0-2 1-2 1.8c0 .8.6 1.7 2 1.7c.8 0 1.8-.3 2.3-1.1zm5.2-10.7v12.8h-1.4V73.6h1.4zm3.9 0v12.8h-1.5V73.6h1.5zm4.8 11.9l-3.4-8h1.5s2.07 5.08 2.1 5.1c.2.7.5 1.3.5 1.6c.1-.5.3-.9.5-1.6c.02-.02 1.9-5.1 1.9-5.1h1.6l-4.9 12.3H78l1.8-4.3zm9.7-8h1.4s.03 1.25 0 1.3c.7-.9 1.7-1.5 2.9-1.5c2.4 0 3.9 1.9 3.9 4.6c0 2.8-1.5 4.7-3.9 4.7c-1.1 0-2.2-.5-2.8-1.4v4.6h-1.5V77.5zm6.7 4.4c0-2.1-1-3.3-2.7-3.3c-1.1 0-2.1.6-2.5 1.6v3.5c.4 1 1.4 1.6 2.5 1.6c1.7 0 2.7-1.3 2.7-3.4zm3.3-4.4h1.4v1.6c.5-1 1.4-1.8 2.7-1.8h.3c.03.01 0 1.5 0 1.5c0 0-.46-.03-.5 0c-1.1 0-2 .6-2.4 2c-.04-.03 0 5.6 0 5.6h-1.5v-8.9zm5.2 4.4c0-2.8 1.6-4.6 4.1-4.6c2.4 0 3.9 1.8 3.9 4.4c0 .2 0 .5-.1.7h-6.3c.1 1.8 1 2.9 2.6 2.9c1.1 0 2-.4 2.6-1.3l.9.8c-.6 1-1.8 1.8-3.6 1.8c-2.5 0-4.1-1.8-4.1-4.7zm1.6-.7h4.9c-.1-1.6-1.1-2.6-2.4-2.6c-1.4 0-2.3.9-2.5 2.6zm12.7-1.7c-.5-.7-1.2-1-2-1c-.8 0-1.3.6-1.3 1.2c0 .7.4 1.1 1.1 1.2l.8.2c1.7.4 2.7 1.1 2.7 2.7c0 1.4-1.3 2.8-3.4 2.8c-1.5 0-2.7-.9-3.3-1.9l.9-.8c.5.8 1.3 1.5 2.5 1.5c1.1 0 1.8-.6 1.8-1.5c0-.8-.6-1.2-1.6-1.4l-.8-.2c-1.4-.3-2.2-1.1-2.2-2.4c0-1.4 1.1-2.6 2.9-2.6c1.2 0 2.2.6 2.8 1.4l-.9.8zm2.5 2.4c0-2.8 1.6-4.6 4-4.6c2.4 0 3.9 1.8 3.9 4.4v.7H123c.1 1.8 1.1 2.9 2.7 2.9c1.1 0 2-.4 2.5-1.3l1 .8c-.7 1-1.9 1.8-3.6 1.8c-2.6 0-4.1-1.8-4.1-4.7zm1.5-.7h4.9c-.1-1.6-1-2.6-2.4-2.6c-1.3 0-2.3.9-2.5 2.6zm8.2-3.7h1.4s-.03 1.2 0 1.2c.4-.7 1.4-1.4 2.7-1.4c2.1 0 3.2 1.3 3.2 3.5c.03.04 0 5.6 0 5.6h-1.4V81c0-1.6-.8-2.4-2.2-2.4c-1.2 0-2 .7-2.3 1.6c.02-.05 0 6.2 0 6.2h-1.4v-8.9zm10.3 6.1c-.04-.04 0-4.9 0-4.9h-1.6v-1.2h1.6v-2.3h1.4v2.3h2v1.2h-2v4.9c0 1.2.5 1.6 1.7 1.6h.3v1.2c-.2.1-.4.1-.7.1c-1.8 0-2.7-.9-2.7-2.9zm9.6-4.1c-.6-.7-1.2-1-2-1c-.9 0-1.3.6-1.3 1.2c0 .7.4 1.1 1.1 1.2l.8.2c1.7.4 2.7 1.1 2.7 2.7c0 1.4-1.3 2.8-3.4 2.8c-1.5 0-2.7-.9-3.3-1.9l.9-.8c.5.8 1.3 1.5 2.5 1.5c1.1 0 1.8-.6 1.8-1.5c0-.8-.6-1.2-1.6-1.4l-.8-.2c-1.4-.3-2.2-1.1-2.2-2.4c0-1.4 1-2.6 2.9-2.6c1.2 0 2.2.6 2.8 1.4l-.9.8zm6.2 2.4c0-2.8 1.6-4.6 4-4.6c2.4 0 3.9 1.8 3.9 4.4c0 .2 0 .5-.1.7h-6.3c.1 1.8 1.1 2.9 2.7 2.9c1.1 0 2-.4 2.5-1.3l.9.8c-.6 1-1.8 1.8-3.5 1.8c-2.6 0-4.1-1.8-4.1-4.7zm1.5-.7h4.9c-.1-1.6-1-2.6-2.4-2.6c-1.4 0-2.3.9-2.5 2.6zm12.7-1.7c-.5-.7-1.2-1-1.9-1c-.9 0-1.4.6-1.4 1.2c0 .7.4 1.1 1.2 1.2l.7.2c1.7.4 2.7 1.1 2.7 2.7c0 1.4-1.2 2.8-3.4 2.8c-1.5 0-2.7-.9-3.3-1.9l.9-.8c.5.8 1.4 1.5 2.5 1.5c1.1 0 1.9-.6 1.9-1.5c0-.8-.7-1.2-1.7-1.4l-.8-.2c-1.4-.3-2.2-1.1-2.2-2.4c0-1.4 1.1-2.6 2.9-2.6c1.3 0 2.2.6 2.8 1.4l-.9.8zm7.6 0c-.5-.7-1.2-1-1.9-1c-.9 0-1.4.6-1.4 1.2c0 .7.4 1.1 1.2 1.2l.7.2c1.7.4 2.7 1.1 2.7 2.7c0 1.4-1.2 2.8-3.4 2.8c-1.5 0-2.7-.9-3.3-1.9l.9-.8c.5.8 1.4 1.5 2.5 1.5c1.1 0 1.9-.6 1.9-1.5c0-.8-.7-1.2-1.7-1.4l-.8-.2c-1.4-.3-2.2-1.1-2.2-2.4c0-1.4 1.1-2.6 2.9-2.6c1.2 0 2.2.6 2.8 1.4l-.9.8zm2.5 2.4c0-2.8 1.6-4.6 4-4.6c2.4 0 3.9 1.8 3.9 4.4v.7h-6.4c.1 1.8 1.1 2.9 2.7 2.9c1.1 0 2-.4 2.5-1.3l1 .8c-.7 1-1.8 1.8-3.6 1.8c-2.5 0-4.1-1.8-4.1-4.7zm1.5-.7h4.9c-.1-1.6-1-2.6-2.4-2.6c-1.3 0-2.3.9-2.5 2.6zm8.2-3.7h1.4v1.2c.5-.7 1.5-1.4 2.7-1.4c2.1 0 3.2 1.3 3.2 3.5c.04.04 0 5.6 0 5.6h-1.4V81c0-1.6-.8-2.4-2.2-2.4c-1.2 0-2 .7-2.3 1.6c.04-.05 0 6.2 0 6.2h-1.4v-8.9zm10.3 6.1c-.02-.04 0-4.9 0-4.9H200v-1.2h1.6v-2.3h1.4v2.3h2v1.2h-2s.02 4.86 0 4.9c0 1.2.6 1.6 1.8 1.6h.2s.02 1.22 0 1.2c-.2.1-.4.1-.6.1c-1.9 0-2.8-.9-2.8-2.9zm6.5-6.1v8.9h-1.4v-8.9h1.4zm.2-3.9v1.8h-1.8v-1.8h1.8zm1.5 10.1c0-1.7 1.3-3 3.3-3c1 0 1.9.4 2.5 1.1v-.9c0-1.3-.7-2.3-2.2-2.3c-1 0-1.6.3-2.2 1l-.9-1c.7-.7 1.6-1.3 3.2-1.3c2.3 0 3.5 1.4 3.5 3.5c.04-.03 0 5.6 0 5.6h-1.3s-.05-.88 0-.9c-.7.7-1.6 1.1-2.6 1.1c-2 0-3.3-1.3-3.3-2.9zm5.8.6v-1.2c-.5-.8-1.5-1.2-2.3-1.2c-1.4 0-2 1-2 1.8c0 .8.6 1.7 2 1.7c.8 0 1.8-.3 2.3-1.1zm5.2-10.7v12.8h-1.5V73.6h1.5zm6.1 3.9h1.4s-.03 1.25 0 1.3c.6-.9 1.7-1.5 2.8-1.5c2.4 0 3.9 1.9 3.9 4.6c0 2.8-1.5 4.7-3.9 4.7c-1.1 0-2.1-.5-2.8-1.4c.03.01 0 4.6 0 4.6h-1.4V77.5zm6.6 4.4c0-2.1-1-3.3-2.7-3.3c-1.1 0-2.1.6-2.5 1.6v3.5c.4 1 1.4 1.6 2.5 1.6c1.7 0 2.7-1.3 2.7-3.4zm2.8 0c0-2.8 1.6-4.6 4-4.6c2.4 0 3.9 1.8 3.9 4.4v.7h-6.4c.1 1.8 1.1 2.9 2.7 2.9c1.1 0 2-.4 2.5-1.3l1 .8c-.7 1-1.8 1.8-3.6 1.8c-2.5 0-4.1-1.8-4.1-4.7zm1.5-.7h4.9c-.1-1.6-1-2.6-2.4-2.6c-1.3 0-2.3.9-2.5 2.6zm8.2-3.7h1.4v1.6c.5-1 1.4-1.8 2.6-1.8h.4v1.5s-.48-.03-.5 0c-1.2 0-2 .6-2.5 2c.04-.03 0 5.6 0 5.6H246v-8.9zm6.4 1.2h-1.5v-1.2h1.5v-1.3c0-1.6.9-2.7 2.6-2.7h.8v1.2s-.44.04-.4 0c-1.1 0-1.6.5-1.6 1.5c.03-.02 0 1.3 0 1.3h2v1.2h-2v7.7h-1.4v-7.7zm11 3.2c0-2.1-1.1-3.3-2.7-3.3c-1.7 0-2.7 1.2-2.7 3.3c0 2.2 1 3.4 2.7 3.4c1.6 0 2.7-1.2 2.7-3.4zm1.5 0c0 2.8-1.7 4.7-4.2 4.7c-2.6 0-4.2-1.9-4.2-4.7c0-2.7 1.6-4.6 4.2-4.6c2.5 0 4.2 1.9 4.2 4.6zm1.8-4.4h1.4s.02 1.57 0 1.6c.5-1 1.4-1.8 2.7-1.8h.3c.05.01 0 1.5 0 1.5c0 0-.44-.03-.4 0c-1.2 0-2.1.6-2.5 2c-.02-.03 0 5.6 0 5.6h-1.5v-8.9zm5.8 0h1.4v1.2c.5-.7 1.5-1.4 2.7-1.4c1.3 0 2.3.5 2.8 1.6c.4-.8 1.5-1.6 2.9-1.6c2.1 0 3.2 1.3 3.2 3.5v5.6h-1.4s-.03-5.45 0-5.5c0-1.5-.8-2.3-2.1-2.3c-1.2 0-2 .7-2.3 1.6c.03-.05 0 6.2 0 6.2h-1.4v-5.5c0-1.5-.7-2.3-2-2.3c-1.2 0-2.1.7-2.3 1.6c-.05-.05 0 6.2 0 6.2h-1.5v-8.9zm14.6 6.2c0-1.7 1.3-3 3.3-3c1 0 1.9.4 2.5 1.1v-.9c0-1.3-.7-2.3-2.2-2.3c-1 0-1.6.3-2.2 1l-.8-1c.6-.7 1.5-1.3 3.1-1.3c2.3 0 3.5 1.4 3.5 3.5c.05-.03 0 5.6 0 5.6H293s-.04-.88 0-.9c-.7.7-1.6 1.1-2.6 1.1c-2 0-3.3-1.3-3.3-2.9zm5.8.6v-1.2c-.5-.8-1.5-1.2-2.3-1.2c-1.4 0-2 1-2 1.8c0 .8.6 1.7 2 1.7c.8 0 1.8-.3 2.3-1.1zm3.8-6.8h1.3s.04 1.2 0 1.2c.5-.7 1.5-1.4 2.8-1.4c2 0 3.2 1.3 3.2 3.5v5.6h-1.4s-.04-5.42 0-5.4c0-1.6-.8-2.4-2.2-2.4c-1.2 0-2.1.7-2.3 1.6v6.2h-1.4v-8.9zm13.2-.2c1.7 0 3 .9 3.5 2.3l-1.1.6c-.4-1.1-1.3-1.6-2.4-1.6c-1.6 0-2.7 1.2-2.7 3.3c0 2.2 1.1 3.4 2.7 3.4c1.1 0 2-.6 2.4-1.6l1.1.5c-.5 1.5-1.8 2.4-3.5 2.4c-2.6 0-4.2-1.9-4.2-4.7c0-2.7 1.6-4.6 4.2-4.6zm4.6 4.6c0-2.8 1.6-4.6 4.1-4.6c2.4 0 3.9 1.8 3.9 4.4c0 .2 0 .5-.1.7h-6.3c.1 1.8 1.1 2.9 2.6 2.9c1.1 0 2-.4 2.6-1.3l.9.8c-.6 1-1.8 1.8-3.6 1.8c-2.5 0-4.1-1.8-4.1-4.7zm1.6-.7h4.9c-.1-1.6-1.1-2.6-2.4-2.6c-1.4 0-2.3.9-2.5 2.6zm8 .4v-1.3h4.6v1.3h-4.6z" stroke="none" fill="#fff"/></g><g id="Polygon61340"><path d="m27.7 49.6h1.4s.02 5.01 0 5c.5-.7 1.5-1.3 2.7-1.3c2.1 0 3.2 1.3 3.2 3.5c.03.04 0 5.6 0 5.6h-1.4V57c0-1.6-.8-2.4-2.2-2.4c-1.2 0-2 .7-2.3 1.6c.02-.05 0 6.2 0 6.2h-1.4V49.6zm11.1 3.9v8.9h-1.5v-8.9h1.5zm.2-3.9v1.8h-1.8v-1.8h1.8zm1.6 8.1c0-2.6 1.5-4.4 3.7-4.4c1.2 0 2.2.5 2.8 1.4c.04.01 0-1.2 0-1.2h1.4s.03 8.13 0 8.1c0 2.3-1.2 4.4-4 4.4c-1.9 0-3.1-1-3.7-2.2l1.1-.7c.5.9 1.3 1.6 2.5 1.6c1.9 0 2.7-1.4 2.7-3v-1c-.7.8-1.7 1.4-2.8 1.4c-2.2 0-3.7-1.9-3.7-4.4zm6.5 1.5v-3.1c-.4-.9-1.3-1.5-2.4-1.5c-1.6 0-2.6 1.2-2.6 3.1c0 1.9 1 3.1 2.6 3.1c1.1 0 2-.6 2.4-1.6zm3.8-9.6h1.5s-.02 5.01 0 5c.5-.7 1.5-1.3 2.6-1.3c2.1 0 3.3 1.3 3.3 3.5c-.02.04 0 5.6 0 5.6h-1.5s.04-5.42 0-5.4c0-1.6-.7-2.4-2.1-2.4c-1.2 0-2.1.7-2.3 1.6c-.02-.05 0 6.2 0 6.2h-1.5V49.6zm9.5 8v-1.3h4.6v1.3h-4.6zm6.9-4.1h1.4s-.05 1.25 0 1.3c.6-.9 1.6-1.5 2.8-1.5c2.4 0 3.9 1.9 3.9 4.6c0 2.8-1.5 4.7-3.9 4.7c-1.1 0-2.1-.5-2.8-1.4v4.6h-1.4V53.5zm6.6 4.4c0-2.1-1-3.3-2.7-3.3c-1.1 0-2.1.6-2.5 1.6v3.5c.4 1 1.4 1.6 2.5 1.6c1.7 0 2.7-1.3 2.7-3.4zm2.8 0c0-2.8 1.6-4.6 4-4.6c2.4 0 3.9 1.8 3.9 4.4v.7h-6.4c.1 1.8 1.1 2.9 2.7 2.9c1.1 0 2-.4 2.5-1.3l1 .8c-.7 1-1.9 1.8-3.6 1.8c-2.6 0-4.1-1.8-4.1-4.7zm1.5-.7h4.9c-.1-1.6-1-2.6-2.4-2.6c-1.3 0-2.3.9-2.5 2.6zm8.2-3.7h1.4s-.03 1.57 0 1.6c.5-1 1.3-1.8 2.6-1.8h.4v1.5s-.5-.03-.5 0c-1.2 0-2 .6-2.5 2c.02-.03 0 5.6 0 5.6h-1.4v-8.9zm6.4 1.2h-1.6v-1.2h1.6s-.03-1.34 0-1.3c0-1.6.9-2.7 2.6-2.7h.8c-.03.05 0 1.2 0 1.2c0 0-.46.04-.5 0c-1 0-1.5.5-1.5 1.5v1.3h2v1.2h-2v7.7h-1.4v-7.7zm11 3.2c0-2.1-1.1-3.3-2.7-3.3c-1.7 0-2.7 1.2-2.7 3.3c0 2.2 1 3.4 2.7 3.4c1.6 0 2.7-1.2 2.7-3.4zm1.5 0c0 2.8-1.7 4.7-4.2 4.7c-2.6 0-4.2-1.9-4.2-4.7c0-2.7 1.6-4.6 4.2-4.6c2.5 0 4.2 1.9 4.2 4.6zm1.8-4.4h1.4v1.6c.5-1 1.4-1.8 2.6-1.8h.4c.03.01 0 1.5 0 1.5c0 0-.46-.03-.5 0c-1.1 0-2 .6-2.4 2c-.04-.03 0 5.6 0 5.6h-1.5v-8.9zm5.8 0h1.4s-.02 1.2 0 1.2c.4-.7 1.5-1.4 2.7-1.4c1.3 0 2.2.5 2.7 1.6c.5-.8 1.6-1.6 3-1.6c2 0 3.2 1.3 3.2 3.5v5.6h-1.4s-.05-5.45 0-5.5c0-1.5-.8-2.3-2.1-2.3c-1.2 0-2 .7-2.3 1.6v6.2h-1.4s-.03-5.45 0-5.5c0-1.5-.8-2.3-2.1-2.3c-1.2 0-2 .7-2.3 1.6c.03-.05 0 6.2 0 6.2h-1.4v-8.9zm14.6 6.2c0-1.7 1.3-3 3.3-3c.9 0 1.8.4 2.5 1.1v-.9c0-1.3-.7-2.3-2.2-2.3c-1.1 0-1.6.3-2.2 1l-.9-1c.7-.7 1.6-1.3 3.1-1.3c2.4 0 3.6 1.4 3.6 3.5c.03-.03 0 5.6 0 5.6h-1.4s.04-.88 0-.9c-.6.7-1.5 1.1-2.5 1.1c-2 0-3.3-1.3-3.3-2.9zm5.8.6v-1.2c-.5-.8-1.5-1.2-2.3-1.2c-1.5 0-2 1-2 1.8c0 .8.5 1.7 2 1.7c.8 0 1.8-.3 2.3-1.1zm3.7-6.8h1.4s.02 1.2 0 1.2c.5-.7 1.5-1.4 2.7-1.4c2.1 0 3.3 1.3 3.3 3.5c-.02.04 0 5.6 0 5.6h-1.5s.04-5.42 0-5.4c0-1.6-.8-2.4-2.1-2.4c-1.2 0-2.1.7-2.3 1.6c-.03-.05 0 6.2 0 6.2H137v-8.9zm13.2-.2c1.7 0 3.1.9 3.6 2.3l-1.1.6c-.4-1.1-1.3-1.6-2.5-1.6c-1.6 0-2.6 1.2-2.6 3.3c0 2.2 1 3.4 2.6 3.4c1.2 0 2.1-.6 2.5-1.6l1.1.5c-.5 1.5-1.9 2.4-3.6 2.4c-2.5 0-4.1-1.9-4.1-4.7c0-2.7 1.6-4.6 4.1-4.6zm4.7 4.6c0-2.8 1.6-4.6 4.1-4.6c2.4 0 3.9 1.8 3.9 4.4c0 .2-.1.5-.1.7h-6.4c.2 1.8 1.1 2.9 2.7 2.9c1.1 0 2-.4 2.5-1.3l1 .8c-.7 1-1.8 1.8-3.6 1.8c-2.5 0-4.1-1.8-4.1-4.7zm1.6-.7h4.8c0-1.6-1-2.6-2.3-2.6c-1.4 0-2.3.9-2.5 2.6zm7.9.4v-1.3h4.7v1.3h-4.7zm7.2 2v-4.9H170v-1.2h1.6v-2.3h1.4v2.3h2v1.2h-2s.05 4.86 0 4.9c0 1.2.6 1.6 1.8 1.6h.2s.05 1.22 0 1.2c-.1.1-.4.1-.6.1c-1.8 0-2.8-.9-2.8-2.9zm5.1-10h1.4s.03 5.01 0 5c.5-.7 1.5-1.3 2.7-1.3c2.1 0 3.2 1.3 3.2 3.5c.03.04 0 5.6 0 5.6h-1.4V57c0-1.6-.8-2.4-2.2-2.4c-1.2 0-2 .7-2.3 1.6c.03-.05 0 6.2 0 6.2h-1.4V49.6zm9.1 8.3c0-2.8 1.6-4.6 4-4.6c2.4 0 3.9 1.8 3.9 4.4v.7h-6.4c.1 1.8 1.1 2.9 2.7 2.9c1.1 0 2-.4 2.5-1.3l1 .8c-.7 1-1.9 1.8-3.6 1.8c-2.6 0-4.1-1.8-4.1-4.7zm1.5-.7h4.9c-.1-1.6-1-2.6-2.4-2.6c-1.3 0-2.3.9-2.5 2.6zm8.2-3.7h1.4s-.04 1.2 0 1.2c.4-.7 1.4-1.4 2.7-1.4c1.3 0 2.2.5 2.7 1.6c.4-.8 1.6-1.6 3-1.6c2 0 3.2 1.3 3.2 3.5c-.03 0 0 5.6 0 5.6H207s.03-5.45 0-5.5c0-1.5-.7-2.3-2-2.3c-1.2 0-2.1.7-2.3 1.6v6.2h-1.4s-.04-5.45 0-5.5c0-1.5-.8-2.3-2.1-2.3c-1.2 0-2 .7-2.3 1.6c.02-.05 0 6.2 0 6.2h-1.4v-8.9zm14.7 4.4c0-2.8 1.6-4.6 4.1-4.6c2.4 0 3.9 1.8 3.9 4.4c0 .2-.1.5-.1.7h-6.4c.2 1.8 1.1 2.9 2.7 2.9c1.1 0 2-.4 2.5-1.3l1 .8c-.7 1-1.8 1.8-3.6 1.8c-2.5 0-4.1-1.8-4.1-4.7zm1.5-.7h4.9c0-1.6-1-2.6-2.3-2.6c-1.4 0-2.3.9-2.6 2.6zm14.4 3.9c-.7.9-1.7 1.5-2.8 1.5c-2.4 0-3.9-1.9-3.9-4.7c0-2.7 1.5-4.6 3.9-4.6c1.1 0 2.1.5 2.7 1.4c.04-.02 0-5.1 0-5.1h1.5v12.8h-1.4v-1.3zm-.1-1.4v-3.5c-.4-1-1.3-1.6-2.4-1.6c-1.7 0-2.7 1.2-2.7 3.3c0 2.1 1 3.4 2.7 3.4c1.1 0 2-.6 2.4-1.6zm9-10.1v12.8h-1.4V49.6h1.4zm1.8 10.1c0-1.7 1.2-3 3.2-3c1 0 1.9.4 2.5 1.1v-.9c0-1.3-.7-2.3-2.1-2.3c-1.1 0-1.7.3-2.3 1l-.8-1c.6-.7 1.5-1.3 3.1-1.3c2.3 0 3.6 1.4 3.6 3.5c-.03-.03 0 5.6 0 5.6h-1.4s-.02-.88 0-.9c-.7.7-1.6 1.1-2.6 1.1c-2 0-3.2-1.3-3.2-2.9zm5.7.6v-1.2c-.4-.8-1.4-1.2-2.3-1.2c-1.4 0-2 1-2 1.8c0 .8.6 1.7 2 1.7c.9 0 1.9-.3 2.3-1.1zm5.9 1.2l-3.4-8h1.5s2.08 5.08 2.1 5.1c.2.7.5 1.3.5 1.6c.1-.5.3-.9.5-1.6c.02-.02 1.9-5.1 1.9-5.1h1.6l-4.9 12.3h-1.6l1.8-4.3zm12.4-3.6c0-2.1-1-3.3-2.7-3.3c-1.7 0-2.7 1.2-2.7 3.3c0 2.2 1 3.4 2.7 3.4c1.7 0 2.7-1.2 2.7-3.4zm1.5 0c0 2.8-1.6 4.7-4.2 4.7c-2.6 0-4.2-1.9-4.2-4.7c0-2.7 1.6-4.6 4.2-4.6c2.6 0 4.2 1.9 4.2 4.6zm9.1 4.5H270v-1.2c-.5.7-1.5 1.4-2.7 1.4c-2.1 0-3.3-1.3-3.3-3.6c.04.03 0-5.5 0-5.5h1.5s-.02 5.39 0 5.4c0 1.6.8 2.4 2.1 2.4c1.2 0 2.1-.7 2.3-1.6c.04.02 0-6.2 0-6.2h1.5v8.9zm3-2.8c.02-.04 0-4.9 0-4.9h-1.6v-1.2h1.6v-2.3h1.5v2.3h2v1.2h-2s-.04 4.86 0 4.9c0 1.2.5 1.6 1.7 1.6h.3s-.04 1.22 0 1.2c-.2.1-.5.1-.7.1c-1.8 0-2.8-.9-2.8-2.9zm4.9 1.6h2.1v2.2h-2.1v-2.2zm7-9.8v-1.2h8.8v1.2h-3.7v11h-1.5v-11h-3.6zm10.1-1.8h1.5s-.02 5.01 0 5c.5-.7 1.5-1.3 2.6-1.3c2.1 0 3.3 1.3 3.3 3.5c-.02.04 0 5.6 0 5.6h-1.5s.04-5.42 0-5.4c0-1.6-.8-2.4-2.1-2.4c-1.2 0-2.1.7-2.3 1.6c-.02-.05 0 6.2 0 6.2h-1.5V49.6zm11.1 3.9v8.9h-1.4v-8.9h1.4zm.2-3.9v1.8h-1.8v-1.8h1.8zm6.8 5.9c-.5-.7-1.2-1-2-1c-.9 0-1.3.6-1.3 1.2c0 .7.4 1.1 1.1 1.2l.8.2c1.7.4 2.7 1.1 2.7 2.7c0 1.4-1.3 2.8-3.4 2.8c-1.5 0-2.7-.9-3.3-1.9l.9-.8c.5.8 1.3 1.5 2.5 1.5c1.1 0 1.8-.6 1.8-1.5c0-.8-.6-1.2-1.6-1.4l-.8-.2c-1.4-.3-2.2-1.1-2.2-2.4c0-1.4 1-2.6 2.9-2.6c1.2 0 2.2.6 2.8 1.4l-.9.8zm8.2-5.9v12.8h-1.5V49.6h1.5zm1.7 10.1c0-1.7 1.3-3 3.3-3c.9 0 1.8.4 2.5 1.1v-.9c0-1.3-.7-2.3-2.2-2.3c-1.1 0-1.6.3-2.3 1l-.8-1c.7-.7 1.6-1.3 3.1-1.3c2.4 0 3.6 1.4 3.6 3.5v5.6h-1.4s.02-.88 0-.9c-.6.7-1.6 1.1-2.5 1.1c-2 0-3.3-1.3-3.3-2.9zm5.8.6v-1.2c-.5-.8-1.5-1.2-2.3-1.2c-1.5 0-2.1 1-2.1 1.8c0 .8.6 1.7 2.1 1.7c.8 0 1.8-.3 2.3-1.1zm5.9 1.2l-3.5-8h1.6s2.02 5.08 2 5.1c.3.7.5 1.3.5 1.6h.1c.1-.5.2-.9.5-1.6c-.04-.02 1.9-5.1 1.9-5.1h1.5l-4.9 12.3h-1.6l1.9-4.3zm12.4-3.6c0-2.1-1.1-3.3-2.8-3.3c-1.6 0-2.7 1.2-2.7 3.3c0 2.2 1.1 3.4 2.7 3.4c1.7 0 2.8-1.2 2.8-3.4zm1.5 0c0 2.8-1.7 4.7-4.3 4.7c-2.5 0-4.2-1.9-4.2-4.7c0-2.7 1.7-4.6 4.2-4.6c2.6 0 4.3 1.9 4.3 4.6zm9 4.5h-1.4s.04-1.21 0-1.2c-.5.7-1.4 1.4-2.7 1.4c-2.1 0-3.2-1.3-3.2-3.6c-.02.03 0-5.5 0-5.5h1.4s.02 5.39 0 5.4c0 1.6.8 2.4 2.2 2.4c1.2 0 2-.7 2.3-1.6c-.02.02 0-6.2 0-6.2h1.4v8.9zm3.1-2.8c-.04-.04 0-4.9 0-4.9h-1.6v-1.2h1.6v-2.3h1.4v2.3h2v1.2h-2v4.9c0 1.2.5 1.6 1.7 1.6h.3v1.2c-.2.1-.4.1-.6.1c-1.9 0-2.8-.9-2.8-2.9z" stroke="none" fill="#fff"/></g><g id="Polygon61339"><path d="m30.3 30.8c-.4-1-.8-2-.8-2.3h-.1c.1.3.1 1.4.1 2.4v7.5H28V26.2h1.9s3.58 8.83 3.6 8.8c.2.7.5 1.3.5 1.6c0-.3.3-.9.5-1.6c.02.03 3.6-8.8 3.6-8.8h1.9v12.2h-1.5v-7.5c0-1 0-2.1.1-2.4h-.1c0 .3-.4 1.3-.8 2.3l-3 7.6h-1.4l-3-7.6zm18.8 3.1c0-2.1-1.1-3.3-2.7-3.3c-1.7 0-2.8 1.2-2.8 3.3c0 2.2 1.1 3.4 2.8 3.4c1.6 0 2.7-1.2 2.7-3.4zm1.5 0c0 2.8-1.7 4.7-4.2 4.7c-2.6 0-4.2-1.9-4.2-4.7c0-2.7 1.6-4.6 4.2-4.6c2.5 0 4.2 1.9 4.2 4.6zm8 3.2c-.7.9-1.7 1.5-2.9 1.5c-2.3 0-3.8-1.9-3.8-4.7c0-2.7 1.5-4.6 3.8-4.6c1.2 0 2.2.5 2.8 1.4c.04-.02 0-5.1 0-5.1h1.5v12.8h-1.4v-1.3zm-.1-1.4v-3.5c-.4-1-1.3-1.6-2.4-1.6c-1.7 0-2.7 1.2-2.7 3.3c0 2.1 1 3.4 2.7 3.4c1.1 0 2-.6 2.4-1.6zm3.3-1.8c0-2.8 1.6-4.6 4.1-4.6c2.4 0 3.9 1.8 3.9 4.4c0 .2-.1.5-.1.7h-6.4c.2 1.8 1.1 2.9 2.7 2.9c1.1 0 2-.4 2.5-1.3l1 .8c-.7 1-1.8 1.8-3.6 1.8c-2.5 0-4.1-1.8-4.1-4.7zm1.6-.7h4.9c-.1-1.6-1.1-2.6-2.4-2.6c-1.4 0-2.3.9-2.5 2.6zm12.5 2.4c-.05-.04 0-4.9 0-4.9h-1.7v-1.2h1.7v-2.3h1.4v2.3h2v1.2h-2v4.9c0 1.2.5 1.6 1.7 1.6h.3v1.2c-.2.1-.4.1-.7.1c-1.8 0-2.7-.9-2.7-2.9zm5-6.1h1.4v1.6c.5-1 1.4-1.8 2.7-1.8h.3c.04.01 0 1.5 0 1.5c0 0-.45-.03-.4 0c-1.2 0-2.1.6-2.5 2c-.03-.03 0 5.6 0 5.6h-1.5v-8.9zm4.9 6.2c0-1.7 1.2-3 3.3-3c.9 0 1.8.4 2.4 1.1v-.9c0-1.3-.7-2.3-2.1-2.3c-1.1 0-1.6.3-2.3 1l-.8-1c.6-.7 1.5-1.3 3.1-1.3c2.3 0 3.6 1.4 3.6 3.5v5.6h-1.4v-.9c-.7.7-1.6 1.1-2.5 1.1c-2.1 0-3.3-1.3-3.3-2.9zm5.7.6v-1.2c-.4-.8-1.4-1.2-2.2-1.2c-1.5 0-2.1 1-2.1 1.8c0 .8.6 1.7 2.1 1.7c.8 0 1.8-.3 2.2-1.1zm3.8-6.8h1.4s-.02 1.2 0 1.2c.4-.7 1.5-1.4 2.7-1.4c2.1 0 3.2 1.3 3.2 3.5c.03.04 0 5.6 0 5.6h-1.4V33c0-1.6-.8-2.4-2.2-2.4c-1.2 0-2 .7-2.3 1.6c.03-.05 0 6.2 0 6.2h-1.4v-8.9zm14.2 2c-.5-.7-1.2-1-2-1c-.9 0-1.3.6-1.3 1.2c0 .7.4 1.1 1.1 1.2l.8.2c1.7.4 2.7 1.1 2.7 2.7c0 1.4-1.3 2.8-3.4 2.8c-1.5 0-2.7-.9-3.3-1.9l.9-.8c.5.8 1.3 1.5 2.5 1.5c1.1 0 1.8-.6 1.8-1.5c0-.8-.6-1.2-1.6-1.4l-.8-.2c-1.4-.3-2.2-1.1-2.2-2.4c0-1.4 1-2.6 2.9-2.6c1.2 0 2.2.6 2.8 1.4l-.9.8zm3.6-.8h-1.6v-1.2h1.6s-.03-1.34 0-1.3c0-1.6.9-2.7 2.6-2.7h.8c-.02.05 0 1.2 0 1.2c0 0-.46.04-.5 0c-1 0-1.5.5-1.5 1.5v1.3h2v1.2h-2v7.7h-1.4v-7.7zm11 3.2c0-2.1-1.1-3.3-2.7-3.3c-1.7 0-2.7 1.2-2.7 3.3c0 2.2 1 3.4 2.7 3.4c1.6 0 2.7-1.2 2.7-3.4zm1.5 0c0 2.8-1.7 4.7-4.2 4.7c-2.6 0-4.2-1.9-4.2-4.7c0-2.7 1.6-4.6 4.2-4.6c2.5 0 4.2 1.9 4.2 4.6zm1.8-4.4h1.4v1.6c.5-1 1.4-1.8 2.7-1.8h.3c.03.01 0 1.5 0 1.5c0 0-.46-.03-.5 0c-1.1 0-2 .6-2.4 2c-.04-.03 0 5.6 0 5.6h-1.5v-8.9zm5.8 0h1.4s-.02 1.2 0 1.2c.5-.7 1.5-1.4 2.7-1.4c1.3 0 2.3.5 2.7 1.6c.5-.8 1.6-1.6 3-1.6c2 0 3.2 1.3 3.2 3.5v5.6h-1.4s-.05-5.45 0-5.5c0-1.5-.8-2.3-2.1-2.3c-1.2 0-2 .7-2.3 1.6c.02-.05 0 6.2 0 6.2H139s-.02-5.45 0-5.5c0-1.5-.8-2.3-2.1-2.3c-1.2 0-2 .7-2.3 1.6c.04-.05 0 6.2 0 6.2h-1.4v-8.9zm19.8 2c-.5-.7-1.2-1-1.9-1c-.9 0-1.4.6-1.4 1.2c0 .7.5 1.1 1.2 1.2l.7.2c1.7.4 2.7 1.1 2.7 2.7c0 1.4-1.2 2.8-3.3 2.8c-1.6 0-2.7-.9-3.4-1.9l1-.8c.5.8 1.3 1.5 2.4 1.5c1.2 0 1.9-.6 1.9-1.5c0-.8-.7-1.2-1.7-1.4l-.7-.2c-1.4-.3-2.2-1.1-2.2-2.4c0-1.4 1-2.6 2.8-2.6c1.3 0 2.3.6 2.9 1.4l-1 .8zm7.4 4.1v-4.9h-1.6v-1.2h1.6v-2.3h1.5v2.3h2v1.2h-2s-.05 4.86 0 4.9c0 1.2.5 1.6 1.7 1.6h.3s-.05 1.22 0 1.2c-.2.1-.5.1-.7.1c-1.8 0-2.8-.9-2.8-2.9zm5.1-10h1.4s.03 5.01 0 5c.5-.7 1.5-1.3 2.7-1.3c2.1 0 3.2 1.3 3.2 3.5c.03.04 0 5.6 0 5.6h-1.4V33c0-1.6-.8-2.4-2.2-2.4c-1.2 0-2 .7-2.3 1.6c.03-.05 0 6.2 0 6.2h-1.4V25.6zm9.1 8.3c0-2.8 1.6-4.6 4-4.6c2.4 0 3.9 1.8 3.9 4.4v.7h-6.4c.1 1.8 1.1 2.9 2.7 2.9c1.1 0 2-.4 2.5-1.3l1 .8c-.7 1-1.9 1.8-3.6 1.8c-2.6 0-4.1-1.8-4.1-4.7zm1.5-.7h4.9c-.1-1.6-1-2.6-2.4-2.6c-1.3 0-2.3.9-2.5 2.6zm16.4-1.7c-.5-.7-1.2-1-1.9-1c-.9 0-1.4.6-1.4 1.2c0 .7.4 1.1 1.2 1.2l.7.2c1.7.4 2.7 1.1 2.7 2.7c0 1.4-1.2 2.8-3.3 2.8c-1.6 0-2.8-.9-3.4-1.9l.9-.8c.5.8 1.4 1.5 2.5 1.5c1.1 0 1.9-.6 1.9-1.5c0-.8-.7-1.2-1.7-1.4l-.7-.2c-1.5-.3-2.2-1.1-2.2-2.4c0-1.4 1-2.6 2.8-2.6c1.3 0 2.2.6 2.8 1.4l-.9.8zm6.6-2.2c1.7 0 3.1.9 3.6 2.3l-1.1.6c-.5-1.1-1.3-1.6-2.5-1.6c-1.6 0-2.6 1.2-2.6 3.3c0 2.2 1 3.4 2.6 3.4c1.2 0 2-.6 2.5-1.6l1.1.5c-.5 1.5-1.9 2.4-3.6 2.4c-2.5 0-4.1-1.9-4.1-4.7c0-2.7 1.6-4.6 4.1-4.6zm5.3.2h1.4s-.05 1.57 0 1.6c.4-1 1.3-1.8 2.6-1.8h.4c-.02.01 0 1.5 0 1.5c0 0-.51-.03-.5 0c-1.2 0-2.1.6-2.5 2v5.6h-1.4v-8.9zm5.2 4.4c0-2.8 1.6-4.6 4-4.6c2.4 0 3.9 1.8 3.9 4.4v.7h-6.4c.1 1.8 1.1 2.9 2.7 2.9c1.1 0 2-.4 2.5-1.3l1 .8c-.7 1-1.8 1.8-3.6 1.8c-2.5 0-4.1-1.8-4.1-4.7zm1.5-.7h4.9c-.1-1.6-1-2.6-2.4-2.6c-1.3 0-2.3.9-2.5 2.6zm7.6.7c0-2.8 1.6-4.6 4.1-4.6c2.4 0 3.9 1.8 3.9 4.4c0 .2 0 .5-.1.7h-6.4c.2 1.8 1.1 2.9 2.7 2.9c1.1 0 2-.4 2.5-1.3l1 .8c-.6 1-1.8 1.8-3.6 1.8c-2.5 0-4.1-1.8-4.1-4.7zm1.6-.7h4.9c-.1-1.6-1.1-2.6-2.4-2.6c-1.4 0-2.3.9-2.5 2.6zm8.1-3.7h1.4s.02 1.2 0 1.2c.5-.7 1.5-1.4 2.7-1.4c2.1 0 3.3 1.3 3.3 3.5c-.02.04 0 5.6 0 5.6h-1.5s.04-5.42 0-5.4c0-1.6-.8-2.4-2.1-2.4c-1.2 0-2.1.7-2.3 1.6c-.03-.05 0 6.2 0 6.2h-1.5v-8.9zm14.8 0v8.9h-1.4v-8.9h1.4zm.2-3.9v1.8h-1.8v-1.8h1.8zm2.2 3.9h1.4v1.2c.5-.7 1.5-1.4 2.7-1.4c2.1 0 3.3 1.3 3.3 3.5c-.03.04 0 5.6 0 5.6h-1.5s.03-5.42 0-5.4c0-1.6-.8-2.4-2.1-2.4c-1.2 0-2.1.7-2.3 1.6c-.04-.05 0 6.2 0 6.2h-1.5v-8.9zm10.3 6.1v-4.9h-1.6v-1.2h1.6v-2.3h1.4v2.3h2v1.2h-2s.04 4.86 0 4.9c0 1.2.6 1.6 1.8 1.6h.2s.04 1.22 0 1.2c-.1.1-.4.1-.6.1c-1.8 0-2.8-.9-2.8-2.9zm11.4-1.7c0-2.1-1-3.3-2.7-3.3c-1.6 0-2.7 1.2-2.7 3.3c0 2.2 1.1 3.4 2.7 3.4c1.7 0 2.7-1.2 2.7-3.4zm1.5 0c0 2.8-1.6 4.7-4.2 4.7c-2.5 0-4.2-1.9-4.2-4.7c0-2.7 1.7-4.6 4.2-4.6c2.6 0 4.2 1.9 4.2 4.6zm4.9 1.8c0-1.7 1.2-3 3.3-3c.9 0 1.8.4 2.4 1.1v-.9c0-1.3-.7-2.3-2.1-2.3c-1.1 0-1.6.3-2.3 1l-.8-1c.6-.7 1.5-1.3 3.1-1.3c2.3 0 3.6 1.4 3.6 3.5v5.6h-1.4v-.9c-.7.7-1.6 1.1-2.5 1.1c-2.1 0-3.3-1.3-3.3-2.9zm5.7.6v-1.2c-.4-.8-1.4-1.2-2.2-1.2c-1.5 0-2.1 1-2.1 1.8c0 .8.6 1.7 2.1 1.7c.8 0 1.8-.3 2.2-1.1zm13.8-2.4c0-2.1-1-3.3-2.7-3.3c-1.6 0-2.7 1.2-2.7 3.3c0 2.2 1.1 3.4 2.7 3.4c1.7 0 2.7-1.2 2.7-3.4zm1.5 0c0 2.8-1.6 4.7-4.2 4.7c-2.5 0-4.2-1.9-4.2-4.7c0-2.7 1.7-4.6 4.2-4.6c2.6 0 4.2 1.9 4.2 4.6zm1.9-4.4h1.3s.05 1.2 0 1.2c.5-.7 1.5-1.4 2.8-1.4c2 0 3.2 1.3 3.2 3.5v5.6h-1.4s-.03-5.42 0-5.4c0-1.6-.8-2.4-2.2-2.4c-1.2 0-2 .7-2.3 1.6v6.2h-1.4v-8.9zm9.1 4.4c0-2.8 1.6-4.6 4-4.6c2.4 0 3.9 1.8 3.9 4.4c0 .2 0 .5-.1.7h-6.3c.1 1.8 1.1 2.9 2.6 2.9c1.1 0 2-.4 2.6-1.3l.9.8c-.6 1-1.8 1.8-3.5 1.8c-2.6 0-4.1-1.8-4.1-4.7zm1.5-.7h4.9c-.1-1.6-1-2.6-2.4-2.6c-1.4 0-2.3.9-2.5 2.6zm8 .4v-1.3h4.6v1.3h-4.6zm10.4-4.3c1.7 0 3.1.9 3.6 2.3l-1.2.6c-.4-1.1-1.3-1.6-2.4-1.6c-1.6 0-2.6 1.2-2.6 3.3c0 2.2 1 3.4 2.6 3.4c1.1 0 2-.6 2.4-1.6l1.2.5c-.5 1.5-1.9 2.4-3.6 2.4c-2.6 0-4.1-1.9-4.1-4.7c0-2.7 1.5-4.6 4.1-4.6zm6.7.2v8.9h-1.5v-8.9h1.5zm.2-3.9v1.8h-1.8v-1.8h1.8zm2.2 3.9h1.4s-.03 1.57 0 1.6c.5-1 1.3-1.8 2.6-1.8h.4v1.5s-.49-.03-.5 0c-1.2 0-2 .6-2.5 2c.03-.03 0 5.6 0 5.6h-1.4v-8.9zm9.1-.2c1.6 0 3 .9 3.5 2.3l-1.1.6c-.4-1.1-1.3-1.6-2.4-1.6c-1.6 0-2.7 1.2-2.7 3.3c0 2.2 1.1 3.4 2.7 3.4c1.1 0 2-.6 2.4-1.6l1.1.5c-.5 1.5-1.9 2.4-3.5 2.4c-2.6 0-4.2-1.9-4.2-4.7c0-2.7 1.6-4.6 4.2-4.6zm6.6-3.7v12.8H349V25.6h1.4zm1.9 8.3c0-2.8 1.6-4.6 4-4.6c2.4 0 3.9 1.8 3.9 4.4v.7h-6.4c.1 1.8 1.1 2.9 2.7 2.9c1.1 0 2-.4 2.5-1.3l1 .8c-.7 1-1.8 1.8-3.6 1.8c-2.5 0-4.1-1.8-4.1-4.7zm1.5-.7h4.9c-.1-1.6-1-2.6-2.4-2.6c-1.3 0-2.3.9-2.5 2.6zm8.2 9.2l.9-3h-1.1v-2.2h2.3v2l-1 3.2H362z" stroke="none" fill="#fff"/></g><g id="Polygon61338"><path d="m7.8 16.3C3.6 16.3.4 13 .4 8.9c0-4.1 3.2-7.4 7.4-7.4c4.1 0 7.3 3.3 7.3 7.4c0 4.1-3.2 7.4-7.3 7.4zm0-13.7c-3.7 0-6.3 2.7-6.3 6.3c0 3.6 2.6 6.3 6.3 6.3c3.6 0 6.2-2.7 6.2-6.3c0-3.6-2.6-6.3-6.2-6.3zm.9 10.7H7.4V5.9l-1.5 1l-.6-1.1l2.3-1.4h1.1v8.9zm16.6-12l-.8 2.9h1v1.8h-2.1V4.4l.9-3.1h1zm-3.6 0l-.8 2.9h1v1.8h-2V4.4l.8-3.1h1zm10.4 8.1h-2.6v5H28V2.2s4.08-.04 4.1 0c2.4 0 3.9 1.3 3.9 3.6c0 2.3-1.5 3.6-3.9 3.6zm-.2-6c0 .04-2.4 0-2.4 0v4.7s2.4.02 2.4 0c1.7 0 2.5-.8 2.5-2.3c0-1.5-.8-2.4-2.5-2.4zm5.7 2.1h1.4s-.03 1.57 0 1.6c.5-1 1.3-1.8 2.6-1.8h.4v1.5s-.49-.03-.5 0c-1.2 0-2 .6-2.5 2c.02-.03 0 5.6 0 5.6h-1.4V5.5zm5.2 4.4c0-2.8 1.6-4.6 4.1-4.6c2.3 0 3.8 1.8 3.8 4.4v.7h-6.4c.1 1.8 1.1 2.9 2.7 2.9c1.1 0 2-.4 2.5-1.3l1 .8c-.7 1-1.8 1.8-3.6 1.8c-2.5 0-4.1-1.8-4.1-4.7zm1.5-.7h4.9c-.1-1.6-1-2.6-2.3-2.6c-1.4 0-2.4.9-2.6 2.6zM57 7.5c-.5-.7-1.1-1-1.9-1c-.9 0-1.4.6-1.4 1.2c0 .7.5 1.1 1.2 1.2l.8.2c1.6.4 2.7 1.1 2.7 2.7c0 1.4-1.3 2.8-3.4 2.8c-1.6 0-2.7-.9-3.4-1.9l1-.8c.5.8 1.3 1.5 2.4 1.5c1.2 0 1.9-.6 1.9-1.5c0-.8-.7-1.2-1.7-1.4l-.7-.2c-1.4-.3-2.2-1.1-2.2-2.4c0-1.4 1-2.6 2.9-2.6c1.2 0 2.2.6 2.8 1.4l-1 .8zm7.6 0c-.5-.7-1.2-1-1.9-1c-.9 0-1.4.6-1.4 1.2c0 .7.5 1.1 1.2 1.2l.8.2c1.6.4 2.7 1.1 2.7 2.7c0 1.4-1.3 2.8-3.4 2.8c-1.6 0-2.7-.9-3.4-1.9l1-.8c.5.8 1.3 1.5 2.4 1.5c1.2 0 1.9-.6 1.9-1.5c0-.8-.7-1.2-1.7-1.4l-.7-.2c-1.4-.3-2.2-1.1-2.2-2.4c0-1.4 1-2.6 2.8-2.6c1.3 0 2.3.6 2.9 1.4l-1 .8zm4.5-2v8.9h-1.4V5.5h1.4zm.2-3.9v1.8h-1.8V1.6h1.8zm2.2 3.9h1.4s.03 1.2 0 1.2c.5-.7 1.5-1.4 2.8-1.4c2 0 3.2 1.3 3.2 3.5v5.6h-1.4s-.05-5.42 0-5.4c0-1.6-.8-2.4-2.2-2.4c-1.2 0-2.1.7-2.3 1.6v6.2h-1.5V5.5zm9.1 4.2c0-2.6 1.5-4.4 3.7-4.4c1.2 0 2.2.5 2.9 1.4c-.05.01 0-1.2 0-1.2h1.3s.04 8.13 0 8.1c0 2.3-1.2 4.4-4 4.4c-1.9 0-3.1-1-3.6-2.2l1-.7c.5.9 1.3 1.6 2.6 1.6c1.9 0 2.6-1.4 2.6-3v-1c-.6.8-1.6 1.4-2.8 1.4c-2.2 0-3.7-1.9-3.7-4.4zm6.5 1.5V8.1c-.4-.9-1.3-1.5-2.4-1.5c-1.6 0-2.6 1.2-2.6 3.1c0 1.9 1 3.1 2.6 3.1c1.1 0 2-.6 2.4-1.6zm8.2.4c-.03-.04 0-4.9 0-4.9h-1.6V5.5h1.6V3.2h1.4v2.3h2v1.2h-2v4.9c0 1.2.6 1.6 1.8 1.6h.2v1.2c-.2.1-.4.1-.6.1c-1.9 0-2.8-.9-2.8-2.9zm5-10h1.5s-.01 5.01 0 5c.5-.7 1.5-1.3 2.7-1.3c2 0 3.2 1.3 3.2 3.5v5.6h-1.4s-.05-5.42 0-5.4c0-1.6-.8-2.4-2.2-2.4c-1.2 0-2.1.7-2.3 1.6v6.2h-1.5V1.6zm9.1 8.3c0-2.8 1.6-4.6 4.1-4.6c2.4 0 3.9 1.8 3.9 4.4c0 .2 0 .5-.1.7h-6.4c.2 1.8 1.1 2.9 2.7 2.9c1.1 0 2-.4 2.6-1.3l.9.8c-.6 1-1.8 1.8-3.6 1.8c-2.5 0-4.1-1.8-4.1-4.7zm1.6-.7h4.9c-.1-1.6-1.1-2.6-2.4-2.6c-1.4 0-2.3.9-2.5 2.6zm12.2-7h1.3s5.8 8.28 5.8 8.3c.5.6.9 1.3 1 1.5c0-.2-.1-1-.1-1.8c.02-.03 0-8 0-8h1.5v12.2h-1.3s-5.83-8.32-5.8-8.3c-.5-.7-.9-1.3-1-1.6h-.1c.1.3.1 1.1.1 1.9c.05-.01 0 8 0 8h-1.4V2.2zm17.3 12.2h-1.4V1.6h1.5s-.02 5.08 0 5.1c.6-.9 1.7-1.4 2.8-1.4c2.3 0 3.9 1.9 3.9 4.6c0 2.8-1.6 4.7-3.9 4.7c-1.2 0-2.2-.6-2.9-1.5c.02.04 0 1.3 0 1.3zm5.3-4.5c0-2.1-1-3.3-2.7-3.3c-1.2 0-2.1.6-2.5 1.6v3.5c.4 1 1.3 1.6 2.5 1.6c1.7 0 2.7-1.3 2.7-3.4zm10.5 4.5H155s-.04-1.21 0-1.2c-.5.7-1.5 1.4-2.8 1.4c-2 0-3.2-1.3-3.2-3.6V5.5h1.4s.04 5.39 0 5.4c0 1.6.8 2.4 2.2 2.4c1.2 0 2-.7 2.3-1.6V5.5h1.4v8.9zm3.1-2.8V6.7h-1.6V5.5h1.6V3.2h1.4v2.3h2v1.2h-2s.03 4.86 0 4.9c0 1.2.6 1.6 1.8 1.6h.2s.02 1.22 0 1.2c-.2.1-.4.1-.6.1c-1.9 0-2.8-.9-2.8-2.9zm5.7 0V6.7h-1.6V5.5h1.6V3.2h1.4v2.3h2v1.2h-2s.03 4.86 0 4.9c0 1.2.6 1.6 1.8 1.6h.2s.03 1.22 0 1.2c-.1.1-.4.1-.6.1c-1.9 0-2.8-.9-2.8-2.9zm11.4-1.7c0-2.1-1-3.3-2.7-3.3c-1.7 0-2.7 1.2-2.7 3.3c0 2.2 1 3.4 2.7 3.4c1.7 0 2.7-1.2 2.7-3.4zm1.5 0c0 2.8-1.6 4.7-4.2 4.7c-2.6 0-4.2-1.9-4.2-4.7c0-2.7 1.6-4.6 4.2-4.6c2.6 0 4.2 1.9 4.2 4.6zm1.9-4.4h1.3s.04 1.2 0 1.2c.5-.7 1.5-1.4 2.8-1.4c2 0 3.2 1.3 3.2 3.5v5.6h-1.4s-.04-5.42 0-5.4c0-1.6-.8-2.4-2.2-2.4c-1.2 0-2.1.7-2.3 1.6v6.2h-1.4V5.5zm13.9 6.1c.02-.04 0-4.9 0-4.9h-1.6V5.5h1.6V3.2h1.5v2.3h2v1.2h-2s-.04 4.86 0 4.9c0 1.2.5 1.6 1.7 1.6h.3s-.04 1.22 0 1.2c-.2.1-.5.1-.7.1c-1.8 0-2.8-.9-2.8-2.9zm11.4-1.7c0-2.1-1-3.3-2.7-3.3c-1.6 0-2.7 1.2-2.7 3.3c0 2.2 1.1 3.4 2.7 3.4c1.7 0 2.7-1.2 2.7-3.4zm1.5 0c0 2.8-1.6 4.7-4.2 4.7c-2.5 0-4.2-1.9-4.2-4.7c0-2.7 1.7-4.6 4.2-4.6c2.6 0 4.2 1.9 4.2 4.6zm5 0c0-2.8 1.6-4.6 4.1-4.6c2.4 0 3.8 1.8 3.8 4.4v.7h-6.4c.1 1.8 1.1 2.9 2.7 2.9c1.1 0 2-.4 2.5-1.3l1 .8c-.7 1-1.8 1.8-3.6 1.8c-2.5 0-4.1-1.8-4.1-4.7zm1.5-.7h4.9c-.1-1.6-1-2.6-2.3-2.6c-1.4 0-2.3.9-2.6 2.6zm8.2-3.7h1.4v1.2c.5-.7 1.5-1.4 2.7-1.4c2.1 0 3.3 1.3 3.3 3.5c-.04.04 0 5.6 0 5.6h-1.5s.02-5.42 0-5.4c0-1.6-.8-2.4-2.1-2.4c-1.2 0-2.1.7-2.3 1.6c-.05-.05 0 6.2 0 6.2h-1.5V5.5zm9.1 4.2c0-2.6 1.5-4.4 3.7-4.4c1.1 0 2.2.5 2.8 1.4c.02.01 0-1.2 0-1.2h1.4v8.1c0 2.3-1.3 4.4-4 4.4c-1.9 0-3.1-1-3.7-2.2l1.1-.7c.4.9 1.3 1.6 2.5 1.6c1.9 0 2.7-1.4 2.7-3v-1c-.7.8-1.7 1.4-2.8 1.4c-2.2 0-3.7-1.9-3.7-4.4zm6.5 1.5V8.1c-.4-.9-1.4-1.5-2.5-1.5c-1.5 0-2.5 1.2-2.5 3.1c0 1.9 1 3.1 2.5 3.1c1.1 0 2.1-.6 2.5-1.6zm3.1.5c0-1.7 1.3-3 3.3-3c1 0 1.9.4 2.5 1.1v-.9c0-1.3-.7-2.3-2.2-2.3c-1 0-1.6.3-2.2 1l-.8-1c.6-.7 1.5-1.3 3.1-1.3c2.3 0 3.6 1.4 3.6 3.5c-.05-.03 0 5.6 0 5.6H246s-.04-.88 0-.9c-.7.7-1.6 1.1-2.6 1.1c-2 0-3.3-1.3-3.3-2.9zm5.8.6v-1.2c-.5-.8-1.5-1.2-2.3-1.2c-1.4 0-2 1-2 1.8c0 .8.6 1.7 2 1.7c.8 0 1.8-.3 2.3-1.1zm3.2-2.6c0-2.6 1.5-4.4 3.7-4.4c1.1 0 2.2.5 2.8 1.4V5.5h1.4v8.1c0 2.3-1.3 4.4-4 4.4c-1.9 0-3.1-1-3.7-2.2l1.1-.7c.4.9 1.3 1.6 2.5 1.6c1.9 0 2.7-1.4 2.7-3v-1c-.7.8-1.7 1.4-2.8 1.4c-2.2 0-3.7-1.9-3.7-4.4zm6.5 1.5V8.1c-.5-.9-1.4-1.5-2.5-1.5c-1.6 0-2.5 1.2-2.5 3.1c0 1.9.9 3.1 2.5 3.1c1.1 0 2-.6 2.5-1.6zm3.3-1.3c0-2.8 1.6-4.6 4-4.6c2.4 0 3.9 1.8 3.9 4.4c0 .2 0 .5-.1.7h-6.3c.1 1.8 1.1 2.9 2.6 2.9c1.1 0 2-.4 2.6-1.3l.9.8c-.6 1-1.8 1.8-3.5 1.8c-2.6 0-4.1-1.8-4.1-4.7zm1.5-.7h4.9c-.1-1.6-1-2.6-2.4-2.6c-1.4 0-2.3.9-2.5 2.6zm12.5 2.4c-.03-.04 0-4.9 0-4.9h-1.6V5.5h1.6V3.2h1.4v2.3h2v1.2h-2v4.9c0 1.2.6 1.6 1.8 1.6h.2v1.2c-.2.1-.4.1-.6.1c-1.9 0-2.8-.9-2.8-2.9zm5-10h1.5s-.01 5.01 0 5c.5-.7 1.5-1.3 2.7-1.3c2 0 3.2 1.3 3.2 3.5v5.6h-1.4s-.05-5.42 0-5.4c0-1.6-.8-2.4-2.2-2.4c-1.2 0-2.1.7-2.3 1.6v6.2h-1.5V1.6zm9.1 8.3c0-2.8 1.6-4.6 4.1-4.6c2.4 0 3.9 1.8 3.9 4.4c0 .2 0 .5-.1.7h-6.3c.1 1.8 1 2.9 2.6 2.9c1.1 0 2-.4 2.6-1.3l.9.8c-.6 1-1.8 1.8-3.6 1.8c-2.5 0-4.1-1.8-4.1-4.7zm1.6-.7h4.9c-.1-1.6-1.1-2.6-2.4-2.6c-1.4 0-2.3.9-2.5 2.6zm12.2-7h1.3s5.8 8.28 5.8 8.3c.5.6.9 1.3 1 1.5c0-.2-.1-1-.1-1.8c.02-.03 0-8 0-8h1.5v12.2H309s-5.83-8.32-5.8-8.3c-.5-.7-.9-1.3-1-1.6h-.1c.1.3.1 1.1.1 1.9c.05-.01 0 8 0 8h-1.4V2.2zm16.3 0s4.16-.04 4.2 0c3.1 0 5.5 2.1 5.5 6.1c0 3.9-2.4 6.1-5.5 6.1h-4.2V2.2zm1.5 1.2v9.7s2.55.02 2.5 0c2.5 0 4.2-1.6 4.2-4.8c0-3.2-1.7-4.9-4.2-4.9c.05.04-2.5 0-2.5 0zm10.2 2.1h1.3s.05 1.57 0 1.6c.5-1 1.4-1.8 2.7-1.8h.4c-.03.01 0 1.5 0 1.5c0 0-.51-.03-.5 0c-1.2 0-2.1.6-2.5 2v5.6h-1.4V5.5zm7.2 0v8.9h-1.5V5.5h1.5zm.2-3.9v1.8h-1.8V1.6h1.8zm1.2 3.9h1.5s2.08 5.73 2.1 5.7c.2.7.5 1.4.5 1.7c0-.3.2-1 .5-1.7l2-5.7h1.6l-3.4 8.9h-1.4l-3.4-8.9zm8.8 4.4c0-2.8 1.6-4.6 4-4.6c2.4 0 3.9 1.8 3.9 4.4v.7h-6.4c.1 1.8 1.1 2.9 2.7 2.9c1.1 0 2-.4 2.5-1.3l1 .8c-.7 1-1.8 1.8-3.6 1.8c-2.5 0-4.1-1.8-4.1-4.7zm1.5-.7h4.9c-.1-1.6-1-2.6-2.4-2.6c-1.3 0-2.3.9-2.5 2.6z" stroke="none" fill="#fff"/></g></svg>