<?xml version="1.0" standalone="no"?><!DOCTYPE svg PUBLIC "-//W3C//DTD SVG 1.1//EN" "http://www.w3.org/Graphics/SVG/1.1/DTD/svg11.dtd"><svg xmlns="http://www.w3.org/2000/svg" version="1.1" width="434px" height="110.4px" viewBox="0 -5 434 110.4" style="top:-5px"><desc>스텝 02-2@4세일즈톡</desc><defs/><g id="Polygon57875"><path d="m15.4 91.9c0-2.1-1.1-3.3-2.7-3.3c-1.7 0-2.7 1.2-2.7 3.3c0 2.2 1 3.4 2.7 3.4c1.6 0 2.7-1.2 2.7-3.4zm1.5 0c0 2.8-1.7 4.7-4.2 4.7c-2.6 0-4.2-1.9-4.2-4.7c0-2.7 1.6-4.6 4.2-4.6c2.5 0 4.2 1.9 4.2 4.6zm1.8-4.4h1.4s.02 1.57 0 1.6c.5-1 1.4-1.8 2.7-1.8h.3c.05.01 0 1.5 0 1.5c0 0-.44-.03-.4 0c-1.2 0-2.1.6-2.5 2c-.02-.03 0 5.6 0 5.6h-1.5v-8.9zm14 2c-.5-.7-1.1-1-1.9-1c-.9 0-1.4.6-1.4 1.2c0 .7.5 1.1 1.2 1.2l.8.2c1.6.4 2.7 1.1 2.7 2.7c0 1.4-1.3 2.8-3.4 2.8c-1.6 0-2.7-.9-3.4-1.9l1-.8c.5.8 1.3 1.5 2.4 1.5c1.2 0 1.9-.6 1.9-1.5c0-.8-.7-1.2-1.7-1.4l-.7-.2c-1.4-.3-2.2-1.1-2.2-2.4c0-1.4 1-2.6 2.9-2.6c1.2 0 2.2.6 2.8 1.4l-1 .8zm3.1-2h1.4v1.2c.5-.7 1.5-1.4 2.7-1.4c1.3 0 2.3.5 2.7 1.6c.5-.8 1.6-1.6 3-1.6c2 0 3.2 1.3 3.2 3.5v5.6h-1.4s-.04-5.45 0-5.5c0-1.5-.8-2.3-2.1-2.3c-1.2 0-2 .7-2.3 1.6c.02-.05 0 6.2 0 6.2h-1.4s-.02-5.45 0-5.5c0-1.5-.8-2.3-2.1-2.3c-1.2 0-2 .7-2.3 1.6c.04-.05 0 6.2 0 6.2h-1.4v-8.9zm14.6 6.2c0-1.7 1.3-3 3.3-3c.9 0 1.8.4 2.5 1.1v-.9c0-1.3-.7-2.3-2.2-2.3c-1 0-1.6.3-2.2 1l-.9-1c.7-.7 1.6-1.3 3.2-1.3c2.3 0 3.5 1.4 3.5 3.5c.04-.03 0 5.6 0 5.6h-1.4s.05-.88 0-.9c-.6.7-1.5 1.1-2.5 1.1c-2 0-3.3-1.3-3.3-2.9zm5.8.6v-1.2c-.5-.8-1.5-1.2-2.3-1.2c-1.4 0-2 1-2 1.8c0 .8.6 1.7 2 1.7c.8 0 1.8-.3 2.3-1.1zm3.7-6.8h1.4s.03 1.57 0 1.6c.5-1 1.4-1.8 2.7-1.8h.3c.05.01 0 1.5 0 1.5c0 0-.44-.03-.4 0c-1.2 0-2.1.6-2.5 2c-.02-.03 0 5.6 0 5.6h-1.5v-8.9zm6.4 6.1c.05-.04 0-4.9 0-4.9h-1.6v-1.2h1.7v-2.3h1.4v2.3h2v1.2h-2v4.9c0 1.2.5 1.6 1.7 1.6h.3v1.2c-.2.1-.4.1-.7.1c-1.8 0-2.8-.9-2.8-2.9zm4.2-6.1h1.5l1.5 5.4c.2.8.4 1.6.4 1.9h.1c0-.3.2-1.1.5-1.9c-.04.03 1.7-5.4 1.7-5.4h1.5s1.66 5.43 1.7 5.4c.2.8.4 1.6.4 1.9h.1c0-.3.2-1.1.4-1.9c.01.01 1.5-5.4 1.5-5.4h1.6l-2.8 8.9h-1.4s-1.8-5.65-1.8-5.7c-.3-.7-.5-1.4-.5-1.7c0 .3-.2 1-.5 1.7c.03.05-1.8 5.7-1.8 5.7h-1.4l-2.7-8.9zm13.4 6.2c0-1.7 1.3-3 3.3-3c.9 0 1.8.4 2.5 1.1v-.9c0-1.3-.7-2.3-2.2-2.3c-1.1 0-1.6.3-2.3 1l-.8-1c.6-.7 1.5-1.3 3.1-1.3c2.4 0 3.6 1.4 3.6 3.5v5.6h-1.4s.01-.88 0-.9c-.7.7-1.6 1.1-2.5 1.1c-2 0-3.3-1.3-3.3-2.9zm5.8.6v-1.2c-.5-.8-1.5-1.2-2.3-1.2c-1.5 0-2.1 1-2.1 1.8c0 .8.6 1.7 2.1 1.7c.8 0 1.8-.3 2.3-1.1zm4.2-.7v-4.9h-1.6v-1.2h1.6v-2.3h1.4v2.3h2v1.2h-2s.04 4.86 0 4.9c0 1.2.6 1.6 1.8 1.6h.2s.04 1.22 0 1.2c-.1.1-.4.1-.6.1c-1.8 0-2.8-.9-2.8-2.9zm8.5-6.3c1.7 0 3.1.9 3.6 2.3l-1.1.6c-.4-1.1-1.3-1.6-2.5-1.6c-1.6 0-2.6 1.2-2.6 3.3c0 2.2 1 3.4 2.6 3.4c1.2 0 2.1-.6 2.5-1.6l1.1.5c-.5 1.5-1.9 2.4-3.6 2.4c-2.5 0-4.1-1.9-4.1-4.7c0-2.7 1.6-4.6 4.1-4.6zm5.3-3.7h1.4s.01 5.01 0 5c.5-.7 1.5-1.3 2.7-1.3c2 0 3.2 1.3 3.2 3.5c.02.04 0 5.6 0 5.6h-1.4s-.02-5.42 0-5.4c0-1.6-.8-2.4-2.2-2.4c-1.2 0-2 .7-2.3 1.6v6.2h-1.4V83.6zm9.6 16.8l.9-3h-1.1v-2.2h2.3v2l-1 3.2h-1.1zm7.4-8.5c0-2.8 1.6-4.6 4.1-4.6c2.4 0 3.9 1.8 3.9 4.4c0 .2 0 .5-.1.7h-6.4c.2 1.8 1.1 2.9 2.7 2.9c1.1 0 2-.4 2.6-1.3l.9.8c-.6 1-1.8 1.8-3.6 1.8c-2.5 0-4.1-1.8-4.1-4.7zm1.6-.7h4.9c-.1-1.6-1.1-2.6-2.4-2.6c-1.4 0-2.3.9-2.5 2.6zm9.6-7.6v12.8h-1.5V83.6h1.5zm3.8 3.9v8.9h-1.4v-8.9h1.4zm.2-3.9v1.8h-1.8v-1.8h1.8zm2.2 3.9h1.4s.03 1.2 0 1.2c.5-.7 1.5-1.4 2.7-1.4c1.4 0 2.3.5 2.8 1.6c.4-.8 1.5-1.6 2.9-1.6c2.1 0 3.2 1.3 3.2 3.5c.04 0 0 5.6 0 5.6h-1.4v-5.5c0-1.5-.7-2.3-2-2.3c-1.2 0-2.1.7-2.3 1.6c-.04-.05 0 6.2 0 6.2h-1.5s.02-5.45 0-5.5c0-1.5-.7-2.3-2-2.3c-1.2 0-2.1.7-2.3 1.6c-.02-.05 0 6.2 0 6.2h-1.5v-8.9zm16.8 0v8.9h-1.5v-8.9h1.5zm.2-3.9v1.8h-1.8v-1.8h1.8zm2.2 3.9h1.4s-.02 1.2 0 1.2c.4-.7 1.5-1.4 2.7-1.4c2.1 0 3.2 1.3 3.2 3.5c.04.04 0 5.6 0 5.6h-1.4V91c0-1.6-.8-2.4-2.2-2.4c-1.2 0-2 .7-2.3 1.6c.04-.05 0 6.2 0 6.2h-1.4v-8.9zm9 6.2c0-1.7 1.2-3 3.3-3c.9 0 1.8.4 2.4 1.1v-.9c0-1.3-.7-2.3-2.1-2.3c-1.1 0-1.6.3-2.3 1l-.8-1c.6-.7 1.5-1.3 3.1-1.3c2.3 0 3.6 1.4 3.6 3.5c-.02-.03 0 5.6 0 5.6h-1.4s-.01-.88 0-.9c-.7.7-1.6 1.1-2.5 1.1c-2.1 0-3.3-1.3-3.3-2.9zm5.7.6v-1.2c-.4-.8-1.4-1.2-2.2-1.2c-1.5 0-2.1 1-2.1 1.8c0 .8.6 1.7 2.1 1.7c.8 0 1.8-.3 2.2-1.1zm4.3-.7v-4.9h-1.6v-1.2h1.6v-2.3h1.4v2.3h2v1.2h-2s.03 4.86 0 4.9c0 1.2.6 1.6 1.8 1.6h.2s.02 1.22 0 1.2c-.2.1-.4.1-.6.1c-1.9 0-2.8-.9-2.8-2.9zm6.5-6.1v8.9h-1.4v-8.9h1.4zm.2-3.9v1.8h-1.8v-1.8h1.8zm2.2 3.9h1.4v1.2c.5-.7 1.5-1.4 2.7-1.4c2.1 0 3.3 1.3 3.3 3.5c-.04.04 0 5.6 0 5.6h-1.5s.02-5.42 0-5.4c0-1.6-.8-2.4-2.1-2.4c-1.2 0-2.1.7-2.3 1.6c-.05-.05 0 6.2 0 6.2h-1.5v-8.9zm9.1 4.2c0-2.6 1.5-4.4 3.7-4.4c1.1 0 2.2.5 2.8 1.4c.02.01 0-1.2 0-1.2h1.4v8.1c0 2.3-1.3 4.4-4 4.4c-1.9 0-3.1-1-3.7-2.2l1.1-.7c.4.9 1.3 1.6 2.5 1.6c1.9 0 2.7-1.4 2.7-3v-1c-.7.8-1.7 1.4-2.8 1.4c-2.2 0-3.7-1.9-3.7-4.4zm6.5 1.5v-3.1c-.4-.9-1.4-1.5-2.5-1.5c-1.5 0-2.5 1.2-2.5 3.1c0 1.9 1 3.1 2.5 3.1c1.1 0 2.1-.6 2.5-1.6zm8.1.4c.04-.04 0-4.9 0-4.9h-1.6v-1.2h1.7v-2.3h1.4v2.3h2v1.2h-2s-.02 4.86 0 4.9c0 1.2.5 1.6 1.7 1.6h.3s-.03 1.22 0 1.2c-.2.1-.4.1-.7.1c-1.8 0-2.8-.9-2.8-2.9zm5.1-10h1.5s-.05 5.01 0 5c.4-.7 1.4-1.3 2.6-1.3c2.1 0 3.3 1.3 3.3 3.5c-.04.04 0 5.6 0 5.6h-1.5s.02-5.42 0-5.4c0-1.6-.8-2.4-2.1-2.4c-1.3 0-2.1.7-2.3 1.6c-.05-.05 0 6.2 0 6.2H218V83.6zm9.1 8.3c0-2.8 1.6-4.6 4.1-4.6c2.3 0 3.8 1.8 3.8 4.4v.7h-6.4c.1 1.8 1.1 2.9 2.7 2.9c1.1 0 2-.4 2.5-1.3l1 .8c-.7 1-1.8 1.8-3.6 1.8c-2.5 0-4.1-1.8-4.1-4.7zm1.5-.7h4.9c-.1-1.6-1-2.6-2.3-2.6c-1.4 0-2.4.9-2.6 2.6zm11.9-3.7h1.4s-.02 1.2 0 1.2c.4-.7 1.5-1.4 2.7-1.4c2.1 0 3.2 1.3 3.2 3.5c.04.04 0 5.6 0 5.6h-1.4V91c0-1.6-.8-2.4-2.2-2.4c-1.2 0-2 .7-2.3 1.6c.03-.05 0 6.2 0 6.2h-1.4v-8.9zm9.1 4.4c0-2.8 1.6-4.6 4-4.6c2.4 0 3.9 1.8 3.9 4.4v.7h-6.4c.1 1.8 1.1 2.9 2.7 2.9c1.1 0 2-.4 2.5-1.3l1 .8c-.7 1-1.8 1.8-3.6 1.8c-2.6 0-4.1-1.8-4.1-4.7zm1.5-.7h4.9c-.1-1.6-1-2.6-2.4-2.6c-1.3 0-2.3.9-2.5 2.6zm7.6.7c0-2.8 1.6-4.6 4.1-4.6c2.4 0 3.9 1.8 3.9 4.4c0 .2-.1.5-.1.7h-6.4c.2 1.8 1.1 2.9 2.7 2.9c1.1 0 2-.4 2.5-1.3l1 .8c-.7 1-1.8 1.8-3.6 1.8c-2.5 0-4.1-1.8-4.1-4.7zm1.6-.7h4.9c-.1-1.6-1.1-2.6-2.4-2.6c-1.4 0-2.3.9-2.5 2.6zm14.3 3.9c-.7.9-1.7 1.5-2.8 1.5c-2.4 0-3.9-1.9-3.9-4.7c0-2.7 1.5-4.6 3.9-4.6c1.1 0 2.1.5 2.7 1.4c.05-.02 0-5.1 0-5.1h1.5v12.8h-1.4v-1.3zm-.1-1.4v-3.5c-.4-1-1.3-1.6-2.4-1.6c-1.7 0-2.7 1.2-2.7 3.3c0 2.1 1 3.4 2.7 3.4c1.1 0 2-.6 2.4-1.6zm8.2-5h-1.5v-1.2h1.5v-1.3c0-1.6.9-2.7 2.6-2.7h.8v1.2s-.43.04-.4 0c-1.1 0-1.6.5-1.6 1.5c.04-.02 0 1.3 0 1.3h2v1.2h-2v7.7h-1.4v-7.7zm11 3.2c0-2.1-1-3.3-2.7-3.3c-1.7 0-2.7 1.2-2.7 3.3c0 2.2 1 3.4 2.7 3.4c1.7 0 2.7-1.2 2.7-3.4zm1.5 0c0 2.8-1.6 4.7-4.2 4.7c-2.6 0-4.2-1.9-4.2-4.7c0-2.7 1.6-4.6 4.2-4.6c2.6 0 4.2 1.9 4.2 4.6zm1.8-4.4h1.4s.03 1.57 0 1.6c.5-1 1.4-1.8 2.7-1.8h.4c-.04.01 0 1.5 0 1.5c0 0-.53-.03-.5 0c-1.2 0-2.1.6-2.5 2v5.6H297v-8.9zm8.8 6.2c0-1.7 1.3-3 3.3-3c1 0 1.9.4 2.5 1.1v-.9c0-1.3-.7-2.3-2.2-2.3c-1 0-1.6.3-2.2 1l-.8-1c.6-.7 1.5-1.3 3.1-1.3c2.3 0 3.6 1.4 3.6 3.5c-.05-.03 0 5.6 0 5.6h-1.4s-.04-.88 0-.9c-.7.7-1.6 1.1-2.6 1.1c-2 0-3.3-1.3-3.3-2.9zm5.8.6v-1.2c-.5-.8-1.5-1.2-2.3-1.2c-1.4 0-2 1-2 1.8c0 .8.6 1.7 2 1.7c.8 0 1.8-.3 2.3-1.1zm7.4-6.8h1.4s.03 1.25 0 1.3c.7-.9 1.7-1.5 2.9-1.5c2.3 0 3.9 1.9 3.9 4.6c0 2.8-1.6 4.7-3.9 4.7c-1.1 0-2.2-.5-2.8-1.4c-.02.01 0 4.6 0 4.6H319V87.5zm6.7 4.4c0-2.1-1-3.3-2.7-3.3c-1.1 0-2.1.6-2.5 1.6v3.5c.4 1 1.4 1.6 2.5 1.6c1.7 0 2.7-1.3 2.7-3.4zm3.3-8.3h1.5s-.04 5.01 0 5c.4-.7 1.4-1.3 2.6-1.3c2.1 0 3.3 1.3 3.3 3.5c-.04.04 0 5.6 0 5.6h-1.5s.02-5.42 0-5.4c0-1.6-.8-2.4-2.1-2.4c-1.2 0-2.1.7-2.3 1.6c-.04-.05 0 6.2 0 6.2H329V83.6zm11.8 11.9l-3.4-8h1.5l2.1 5.1c.3.7.5 1.3.5 1.6c.1-.5.3-.9.5-1.6c.03-.02 1.9-5.1 1.9-5.1h1.6l-4.9 12.3H339l1.8-4.3zm10.4-6c-.6-.7-1.2-1-2-1c-.9 0-1.3.6-1.3 1.2c0 .7.4 1.1 1.1 1.2l.8.2c1.7.4 2.7 1.1 2.7 2.7c0 1.4-1.3 2.8-3.4 2.8c-1.6 0-2.7-.9-3.4-1.9l1-.8c.5.8 1.3 1.5 2.4 1.5c1.2 0 1.9-.6 1.9-1.5c0-.8-.7-1.2-1.6-1.4l-.8-.2c-1.4-.3-2.2-1.1-2.2-2.4c0-1.4 1-2.6 2.9-2.6c1.2 0 2.2.6 2.8 1.4l-.9.8zm4.5-2v8.9h-1.5v-8.9h1.5zm.1-3.9v1.8H354v-1.8h1.8zm5.8 3.7c1.7 0 3.1.9 3.6 2.3l-1.1.6c-.5-1.1-1.3-1.6-2.5-1.6c-1.6 0-2.6 1.2-2.6 3.3c0 2.2 1 3.4 2.6 3.4c1.2 0 2-.6 2.5-1.6l1.1.5c-.5 1.5-1.9 2.4-3.6 2.4c-2.5 0-4.1-1.9-4.1-4.7c0-2.7 1.6-4.6 4.1-4.6zm4.6 6.4c0-1.7 1.3-3 3.3-3c.9 0 1.8.4 2.5 1.1v-.9c0-1.3-.7-2.3-2.2-2.3c-1.1 0-1.6.3-2.3 1l-.8-1c.7-.7 1.6-1.3 3.1-1.3c2.4 0 3.6 1.4 3.6 3.5v5.6H372s.02-.88 0-.9c-.6.7-1.6 1.1-2.5 1.1c-2 0-3.3-1.3-3.3-2.9zm5.8.6v-1.2c-.5-.8-1.5-1.2-2.3-1.2c-1.5 0-2.1 1-2.1 1.8c0 .8.6 1.7 2.1 1.7c.8 0 1.8-.3 2.3-1.1zm5.1-10.7v12.8h-1.4V83.6h1.4zm8.9 8.5l-1.3 1.5v2.8h-1.5V83.6h1.5v8.2l3.8-4.3h1.7l-3.3 3.6l3.8 5.2v.1H389l-3-4.3zm5.2-.2c0-2.8 1.6-4.6 4-4.6c2.4 0 3.9 1.8 3.9 4.4v.7h-6.4c.1 1.8 1.1 2.9 2.7 2.9c1.1 0 2-.4 2.5-1.3l1 .8c-.7 1-1.9 1.8-3.6 1.8c-2.6 0-4.1-1.8-4.1-4.7zm1.5-.7h4.9c-.1-1.6-1-2.6-2.4-2.6c-1.3 0-2.3.9-2.5 2.6zm10.3 4.3l-3.4-8h1.5l2.1 5.1c.3.7.5 1.3.5 1.6h.1c0-.5.2-.9.4-1.6c.04-.02 1.9-5.1 1.9-5.1h1.6l-4.9 12.3h-1.6l1.8-4.3zm5.9-.3h2.1v2.2h-2.1v-2.2zm4.3-7.2l.8-2.9h-1v-1.8h2.1v1.6l-.9 3.1h-1zm3.5 0l.9-2.9h-1v-1.8h2v1.6l-.8 3.1h-1.1z" stroke="none" fill="#fff"/></g><g id="Polygon57874"><path d="m8.1 63.5h1.5s2.05 5.73 2 5.7c.3.7.5 1.4.5 1.7h.1c0-.3.2-1 .5-1.7c-.05.03 2-5.7 2-5.7h1.5l-3.3 8.9h-1.5l-3.3-8.9zm8.7 4.4c0-2.8 1.6-4.6 4.1-4.6c2.4 0 3.9 1.8 3.9 4.4c0 .2 0 .5-.1.7h-6.3c.1 1.8 1.1 2.9 2.6 2.9c1.1 0 2-.4 2.6-1.3l.9.8c-.6 1-1.8 1.8-3.5 1.8c-2.6 0-4.2-1.8-4.2-4.7zm1.6-.7h4.9c-.1-1.6-1.1-2.6-2.4-2.6c-1.4 0-2.3.9-2.5 2.6zm8.1-7.6h1.5s-.01 5.01 0 5c.5-.7 1.5-1.3 2.7-1.3c2 0 3.2 1.3 3.2 3.5v5.6h-1.4s-.05-5.42 0-5.4c0-1.6-.8-2.4-2.2-2.4c-1.2 0-2.1.7-2.3 1.6v6.2h-1.5V59.6zm11.1 3.9v8.9h-1.4v-8.9h1.4zm.2-3.9v1.8H36v-1.8h1.8zm5.8 3.7c1.7 0 3.1.9 3.6 2.3l-1.2.6c-.4-1.1-1.2-1.6-2.4-1.6c-1.6 0-2.6 1.2-2.6 3.3c0 2.2 1 3.4 2.6 3.4c1.2 0 2-.6 2.4-1.6l1.2.5c-.5 1.5-1.9 2.4-3.6 2.4c-2.6 0-4.1-1.9-4.1-4.7c0-2.7 1.5-4.6 4.1-4.6zm6.7-3.7v12.8h-1.4V59.6h1.4zm1.8 8.3c0-2.8 1.6-4.6 4.1-4.6c2.4 0 3.9 1.8 3.9 4.4c0 .2 0 .5-.1.7h-6.3c.1 1.8 1.1 2.9 2.6 2.9c1.1 0 2-.4 2.6-1.3l.9.8c-.6 1-1.8 1.8-3.6 1.8c-2.5 0-4.1-1.8-4.1-4.7zm1.6-.7h4.9c-.1-1.6-1.1-2.6-2.4-2.6c-1.4 0-2.3.9-2.5 2.6zm18 3.9c-.7.9-1.7 1.5-2.8 1.5c-2.4 0-3.9-1.9-3.9-4.7c0-2.7 1.5-4.6 3.9-4.6c1.1 0 2.1.5 2.8 1.4c-.04-.02 0-5.1 0-5.1h1.4v12.8h-1.4v-1.3zm0-1.4v-3.5c-.5-1-1.4-1.6-2.5-1.6c-1.7 0-2.7 1.2-2.7 3.3c0 2.1 1 3.4 2.7 3.4c1.1 0 2-.6 2.5-1.6zm10.2-1.8c0-2.1-1.1-3.3-2.8-3.3c-1.6 0-2.7 1.2-2.7 3.3c0 2.2 1.1 3.4 2.7 3.4c1.7 0 2.8-1.2 2.8-3.4zm1.5 0c0 2.8-1.7 4.7-4.3 4.7c-2.5 0-4.2-1.9-4.2-4.7c0-2.7 1.7-4.6 4.2-4.6c2.6 0 4.3 1.9 4.3 4.6zm8.1 0c0-2.1-1-3.3-2.7-3.3c-1.6 0-2.7 1.2-2.7 3.3c0 2.2 1.1 3.4 2.7 3.4c1.7 0 2.7-1.2 2.7-3.4zm1.5 0c0 2.8-1.6 4.7-4.2 4.7c-2.5 0-4.2-1.9-4.2-4.7c0-2.7 1.7-4.6 4.2-4.6c2.6 0 4.2 1.9 4.2 4.6zm1.9-4.4h1.4s-.04 1.57 0 1.6c.4-1 1.3-1.8 2.6-1.8h.4v1.5s-.5-.03-.5 0c-1.2 0-2.1.6-2.5 2c.02-.03 0 5.6 0 5.6h-1.4v-8.9zm10.1 2c-.5-.7-1.2-1-1.9-1c-.9 0-1.4.6-1.4 1.2c0 .7.4 1.1 1.2 1.2l.7.2c1.7.4 2.7 1.1 2.7 2.7c0 1.4-1.2 2.8-3.3 2.8c-1.6 0-2.7-.9-3.4-1.9l.9-.8c.6.8 1.4 1.5 2.5 1.5c1.1 0 1.9-.6 1.9-1.5c0-.8-.7-1.2-1.7-1.4l-.7-.2c-1.4-.3-2.2-1.1-2.2-2.4c0-1.4 1-2.6 2.8-2.6c1.3 0 2.3.6 2.9 1.4l-1 .8zm7.4 4.1v-4.9h-1.6v-1.2h1.6v-2.3h1.4v2.3h2v1.2h-2s.05 4.86 0 4.9c0 1.2.6 1.6 1.8 1.6h.2s.05 1.22 0 1.2c-.1.1-.4.1-.6.1c-1.8 0-2.8-.9-2.8-2.9zm5.1-10h1.4s.02 5.01 0 5c.5-.7 1.5-1.3 2.7-1.3c2.1 0 3.2 1.3 3.2 3.5c.03.04 0 5.6 0 5.6h-1.4V67c0-1.6-.8-2.4-2.2-2.4c-1.2 0-2 .7-2.3 1.6c.02-.05 0 6.2 0 6.2h-1.4V59.6zm9.6 3.9h1.4s.02 1.57 0 1.6c.5-1 1.4-1.8 2.7-1.8h.3c.04.01 0 1.5 0 1.5c0 0-.44-.03-.4 0c-1.2 0-2.1.6-2.5 2c-.03-.03 0 5.6 0 5.6h-1.5v-8.9zm12.2 4.4c0-2.1-1.1-3.3-2.8-3.3c-1.6 0-2.7 1.2-2.7 3.3c0 2.2 1.1 3.4 2.7 3.4c1.7 0 2.8-1.2 2.8-3.4zm1.5 0c0 2.8-1.7 4.7-4.3 4.7c-2.5 0-4.2-1.9-4.2-4.7c0-2.7 1.7-4.6 4.2-4.6c2.6 0 4.3 1.9 4.3 4.6zm9 4.5h-1.4s.04-1.21 0-1.2c-.4.7-1.4 1.4-2.7 1.4c-2 0-3.2-1.3-3.2-3.6v-5.5h1.4s.03 5.39 0 5.4c0 1.6.8 2.4 2.2 2.4c1.2 0 2-.7 2.3-1.6v-6.2h1.4v8.9zm1.9-4.7c0-2.6 1.4-4.4 3.7-4.4c1.1 0 2.2.5 2.8 1.4v-1.2h1.4v8.1c0 2.3-1.3 4.4-4 4.4c-2 0-3.2-1-3.7-2.2l1.1-.7c.4.9 1.3 1.6 2.5 1.6c1.9 0 2.6-1.4 2.6-3v-1c-.6.8-1.6 1.4-2.7 1.4c-2.3 0-3.7-1.9-3.7-4.4zm6.4 1.5v-3.1c-.4-.9-1.3-1.5-2.4-1.5c-1.6 0-2.5 1.2-2.5 3.1c0 1.9.9 3.1 2.5 3.1c1.1 0 2-.6 2.4-1.6zm3.9-9.6h1.4s.04 5.01 0 5c.5-.7 1.5-1.3 2.7-1.3c2.1 0 3.2 1.3 3.2 3.5c.04.04 0 5.6 0 5.6h-1.4V67c0-1.6-.8-2.4-2.2-2.4c-1.2 0-2 .7-2.3 1.6c.04-.05 0 6.2 0 6.2H162V59.6zm12.7 10.1c0-1.7 1.2-3 3.2-3c1 0 1.9.4 2.5 1.1v-.9c0-1.3-.7-2.3-2.1-2.3c-1.1 0-1.7.3-2.3 1l-.8-1c.6-.7 1.5-1.3 3.1-1.3c2.3 0 3.6 1.4 3.6 3.5c-.03-.03 0 5.6 0 5.6h-1.4s-.02-.88 0-.9c-.7.7-1.6 1.1-2.6 1.1c-2 0-3.2-1.3-3.2-2.9zm5.7.6v-1.2c-.4-.8-1.4-1.2-2.3-1.2c-1.4 0-2 1-2 1.8c0 .8.6 1.7 2 1.7c.9 0 1.9-.3 2.3-1.1zm13.6.8c-.6.9-1.7 1.5-2.8 1.5c-2.4 0-3.9-1.9-3.9-4.7c0-2.7 1.5-4.6 3.9-4.6c1.1 0 2.1.5 2.8 1.4c-.02-.02 0-5.1 0-5.1h1.4v12.8H194s.04-1.26 0-1.3zm0-1.4v-3.5c-.4-1-1.4-1.6-2.5-1.6c-1.7 0-2.7 1.2-2.7 3.3c0 2.1 1 3.4 2.7 3.4c1.1 0 2.1-.6 2.5-1.6zm5.3-6.2v8.9h-1.5v-8.9h1.5zm.2-3.9v1.8h-1.8v-1.8h1.8zm1.6 8.1c0-2.6 1.5-4.4 3.7-4.4c1.2 0 2.2.5 2.8 1.4c.04.01 0-1.2 0-1.2h1.4s.03 8.13 0 8.1c0 2.3-1.2 4.4-4 4.4c-1.9 0-3.1-1-3.7-2.2l1.1-.7c.5.9 1.3 1.6 2.5 1.6c2 0 2.7-1.4 2.7-3v-1c-.7.8-1.6 1.4-2.8 1.4c-2.2 0-3.7-1.9-3.7-4.4zm6.5 1.5v-3.1c-.4-.9-1.3-1.5-2.4-1.5c-1.6 0-2.6 1.2-2.6 3.1c0 1.9 1 3.1 2.6 3.1c1.1 0 2-.6 2.4-1.6zm5.3-5.7v8.9h-1.5v-8.9h1.5zm.2-3.9v1.8h-1.8v-1.8h1.8zm2.8 10c.02-.04 0-4.9 0-4.9h-1.6v-1.2h1.6v-2.3h1.5v2.3h2v1.2h-2s-.04 4.86 0 4.9c0 1.2.5 1.6 1.7 1.6h.3s-.04 1.22 0 1.2c-.2.1-.5.1-.7.1c-1.8 0-2.8-.9-2.8-2.9zm4.4.1c0-1.7 1.3-3 3.3-3c.9 0 1.8.4 2.5 1.1v-.9c0-1.3-.7-2.3-2.2-2.3c-1 0-1.6.3-2.2 1l-.9-1c.7-.7 1.6-1.3 3.2-1.3c2.3 0 3.5 1.4 3.5 3.5c.03-.03 0 5.6 0 5.6h-1.4s.05-.88 0-.9c-.6.7-1.5 1.1-2.5 1.1c-2 0-3.3-1.3-3.3-2.9zm5.8.6v-1.2c-.5-.8-1.5-1.2-2.3-1.2c-1.4 0-2 1-2 1.8c0 .8.6 1.7 2 1.7c.8 0 1.8-.3 2.3-1.1zm5.2-10.7v12.8h-1.5V59.6h1.5zm8.9 8.5l-1.4 1.5v2.8h-1.4V59.6h1.4v8.2l3.8-4.3h1.8l-3.3 3.6l3.7 5.2v.1h-1.6l-3-4.3zm5.1-.2c0-2.8 1.6-4.6 4-4.6c2.4 0 3.9 1.8 3.9 4.4v.7h-6.4c.1 1.8 1.1 2.9 2.7 2.9c1.1 0 2-.4 2.5-1.3l1 .8c-.7 1-1.8 1.8-3.6 1.8c-2.5 0-4.1-1.8-4.1-4.7zm1.5-.7h4.9c-.1-1.6-1-2.6-2.4-2.6c-1.3 0-2.3.9-2.5 2.6zm10.4 4.3l-3.5-8h1.6s2.02 5.08 2 5.1c.3.7.5 1.3.5 1.6h.1c.1-.5.2-.9.5-1.6c-.03-.02 1.9-5.1 1.9-5.1h1.5l-4.9 12.3h-1.6l1.9-4.3zm9-1.8c0-1.7 1.3-3 3.3-3c.9 0 1.8.4 2.5 1.1v-.9c0-1.3-.7-2.3-2.2-2.3c-1 0-1.6.3-2.2 1l-.9-1c.7-.7 1.6-1.3 3.2-1.3c2.3 0 3.5 1.4 3.5 3.5c.03-.03 0 5.6 0 5.6H272s.05-.88 0-.9c-.6.7-1.5 1.1-2.5 1.1c-2 0-3.3-1.3-3.3-2.9zm5.8.6v-1.2c-.5-.8-1.5-1.2-2.3-1.2c-1.5 0-2 1-2 1.8c0 .8.5 1.7 2 1.7c.8 0 1.8-.3 2.3-1.1zm3.7-6.8h1.4s.02 1.25 0 1.3c.7-.9 1.7-1.5 2.9-1.5c2.3 0 3.9 1.9 3.9 4.6c0 2.8-1.6 4.7-3.9 4.7c-1.1 0-2.2-.5-2.8-1.4c-.02.01 0 4.6 0 4.6h-1.5V63.5zm6.7 4.4c0-2.1-1-3.3-2.7-3.3c-1.2 0-2.1.6-2.5 1.6v3.5c.4 1 1.3 1.6 2.5 1.6c1.7 0 2.7-1.3 2.7-3.4zm3.3-4.4h1.4v1.3c.6-.9 1.7-1.5 2.8-1.5c2.4 0 3.9 1.9 3.9 4.6c0 2.8-1.5 4.7-3.9 4.7c-1.1 0-2.1-.5-2.8-1.4c.05.01 0 4.6 0 4.6h-1.4V63.5zm6.6 4.4c0-2.1-1-3.3-2.7-3.3c-1.1 0-2 .6-2.5 1.6v3.5c.5 1 1.4 1.6 2.5 1.6c1.7 0 2.7-1.3 2.7-3.4zm13.4 0c0-2.1-1-3.3-2.7-3.3c-1.6 0-2.7 1.2-2.7 3.3c0 2.2 1.1 3.4 2.7 3.4c1.7 0 2.7-1.2 2.7-3.4zm1.5 0c0 2.8-1.6 4.7-4.2 4.7c-2.5 0-4.2-1.9-4.2-4.7c0-2.7 1.7-4.6 4.2-4.6c2.6 0 4.2 1.9 4.2 4.6zm1.9-4.4h1.3s.04 1.2 0 1.2c.5-.7 1.5-1.4 2.8-1.4c2 0 3.2 1.3 3.2 3.5v5.6H315s-.04-5.42 0-5.4c0-1.6-.8-2.4-2.2-2.4c-1.2 0-2.1.7-2.3 1.6v6.2h-1.4v-8.9zm12.6 6.2c0-1.7 1.3-3 3.3-3c.9 0 1.8.4 2.5 1.1v-.9c0-1.3-.7-2.3-2.2-2.3c-1.1 0-1.6.3-2.2 1l-.9-1c.7-.7 1.6-1.3 3.1-1.3c2.4 0 3.6 1.4 3.6 3.5c.03-.03 0 5.6 0 5.6h-1.4s.04-.88 0-.9c-.6.7-1.5 1.1-2.5 1.1c-2 0-3.3-1.3-3.3-2.9zm5.8.6v-1.2c-.5-.8-1.5-1.2-2.3-1.2c-1.5 0-2 1-2 1.8c0 .8.5 1.7 2 1.7c.8 0 1.8-.3 2.3-1.1zm12-4.8c-.6-.7-1.2-1-2-1c-.9 0-1.3.6-1.3 1.2c0 .7.4 1.1 1.1 1.2l.8.2c1.7.4 2.7 1.1 2.7 2.7c0 1.4-1.3 2.8-3.4 2.8c-1.6 0-2.7-.9-3.4-1.9l1-.8c.5.8 1.3 1.5 2.4 1.5c1.2 0 1.9-.6 1.9-1.5c0-.8-.7-1.2-1.6-1.4l-.8-.2c-1.4-.3-2.2-1.1-2.2-2.4c0-1.4 1-2.6 2.9-2.6c1.2 0 2.2.6 2.8 1.4l-.9.8zm3-2h1.4v1.2c.5-.7 1.5-1.4 2.7-1.4c1.3 0 2.3.5 2.8 1.6c.4-.8 1.5-1.6 2.9-1.6c2.1 0 3.2 1.3 3.2 3.5v5.6h-1.4s-.03-5.45 0-5.5c0-1.5-.8-2.3-2.1-2.3c-1.2 0-2 .7-2.3 1.6c.03-.05 0 6.2 0 6.2h-1.4v-5.5c0-1.5-.7-2.3-2-2.3c-1.2 0-2.1.7-2.3 1.6c-.04-.05 0 6.2 0 6.2h-1.5v-8.9zm14.6 6.2c0-1.7 1.3-3 3.3-3c1 0 1.9.4 2.5 1.1v-.9c0-1.3-.7-2.3-2.2-2.3c-1 0-1.6.3-2.2 1l-.8-1c.6-.7 1.5-1.3 3.1-1.3c2.3 0 3.5 1.4 3.5 3.5c.05-.03 0 5.6 0 5.6H363s-.04-.88 0-.9c-.7.7-1.6 1.1-2.6 1.1c-2 0-3.3-1.3-3.3-2.9zm5.8.6v-1.2c-.5-.8-1.5-1.2-2.3-1.2c-1.4 0-2 1-2 1.8c0 .8.6 1.7 2 1.7c.8 0 1.8-.3 2.3-1.1zm3.8-6.8h1.3s.04 1.57 0 1.6c.5-1 1.4-1.8 2.7-1.8h.4c-.04.01 0 1.5 0 1.5c0 0-.52-.03-.5 0c-1.2 0-2.1.6-2.5 2v5.6h-1.4v-8.9zm6.4 6.1c-.04-.04 0-4.9 0-4.9h-1.6v-1.2h1.6v-2.3h1.4v2.3h2v1.2h-2v4.9c0 1.2.5 1.6 1.7 1.6h.3v1.2c-.2.1-.4.1-.6.1c-1.9 0-2.8-.9-2.8-2.9zm5-6.1h1.4s.02 1.25 0 1.3c.7-.9 1.7-1.5 2.9-1.5c2.3 0 3.9 1.9 3.9 4.6c0 2.8-1.6 4.7-3.9 4.7c-1.1 0-2.2-.5-2.8-1.4c-.02.01 0 4.6 0 4.6h-1.5V63.5zm6.7 4.4c0-2.1-1-3.3-2.7-3.3c-1.2 0-2.1.6-2.5 1.6v3.5c.4 1 1.3 1.6 2.5 1.6c1.7 0 2.7-1.3 2.7-3.4zm3.3-8.3h1.4s.05 5.01 0 5c.5-.7 1.5-1.3 2.7-1.3c2.1 0 3.3 1.3 3.3 3.5c-.05.04 0 5.6 0 5.6H394V67c0-1.6-.8-2.4-2.1-2.4c-1.3 0-2.1.7-2.4 1.6c.05-.05 0 6.2 0 6.2h-1.4V59.6zm16 8.3c0-2.1-1.1-3.3-2.7-3.3c-1.7 0-2.7 1.2-2.7 3.3c0 2.2 1 3.4 2.7 3.4c1.6 0 2.7-1.2 2.7-3.4zm1.5 0c0 2.8-1.7 4.7-4.2 4.7c-2.6 0-4.2-1.9-4.2-4.7c0-2.7 1.6-4.6 4.2-4.6c2.5 0 4.2 1.9 4.2 4.6zm1.8-4.4h1.4s.03 1.2 0 1.2c.5-.7 1.5-1.4 2.7-1.4c2.1 0 3.3 1.3 3.3 3.5v5.6h-1.5s.05-5.42 0-5.4c0-1.6-.7-2.4-2.1-2.4c-1.2 0-2.1.7-2.3 1.6c-.02-.05 0 6.2 0 6.2h-1.5v-8.9zm9.1 4.4c0-2.8 1.6-4.6 4.1-4.6c2.4 0 3.9 1.8 3.9 4.4c0 .2 0 .5-.1.7H418c.2 1.8 1.1 2.9 2.7 2.9c1.1 0 2-.4 2.5-1.3l1 .8c-.6 1-1.8 1.8-3.6 1.8c-2.5 0-4.1-1.8-4.1-4.7zm1.6-.7h4.9c-.1-1.6-1.1-2.6-2.4-2.6c-1.4 0-2.3.9-2.5 2.6z" stroke="none" fill="#fff"/></g><g id="Polygon57873"><path d="m6.7 35.3l-.9 2.9h1v1.8h-2v-1.6l.9-3.1h1zm-3.6 0l-.8 2.9h1v1.8H1.2v-1.6l.9-3.1h1zm16.6 7c0 3.8-2.3 6.3-5.6 6.3c-3.3 0-5.5-2.5-5.5-6.3c0-3.8 2.2-6.3 5.5-6.3c3.3 0 5.6 2.5 5.6 6.3zm-9.6 0c0 3.1 1.6 5 4 5c2.4 0 4-1.9 4-5c0-3.2-1.6-5-4-5c-2.4 0-4 1.8-4 5zm12.1-1.6h-1.5v-1.2h1.5v-1.3c0-1.6.9-2.7 2.6-2.7h.8v1.2s-.44.04-.4 0c-1.1 0-1.6.5-1.6 1.5c.03-.02 0 1.3 0 1.3h2v1.2h-2v7.7h-1.4v-7.7zm5.4 0h-1.5v-1.2h1.5s.05-1.34 0-1.3c0-1.6.9-2.7 2.7-2.7h.7c.05.05 0 1.2 0 1.2c0 0-.38.04-.4 0c-1 0-1.5.5-1.5 1.5v1.3h1.9v1.2h-1.9v7.7h-1.5v-7.7zm4.2 3.2c0-2.8 1.6-4.6 4-4.6c2.4 0 3.9 1.8 3.9 4.4c0 .2 0 .5-.1.7h-6.3c.1 1.8 1.1 2.9 2.6 2.9c1.1 0 2-.4 2.6-1.3l.9.8c-.6 1-1.8 1.8-3.5 1.8c-2.6 0-4.1-1.8-4.1-4.7zm1.5-.7h4.9c-.1-1.6-1-2.6-2.4-2.6c-1.4 0-2.3.9-2.5 2.6zm8.2-3.7h1.3s.04 1.57 0 1.6c.5-1 1.4-1.8 2.7-1.8h.4c-.04.01 0 1.5 0 1.5c0 0-.52-.03-.5 0c-1.2 0-2.1.6-2.5 2v5.6h-1.4v-8.9zm10.1 2c-.5-.7-1.2-1-1.9-1c-.9 0-1.4.6-1.4 1.2c0 .7.4 1.1 1.2 1.2l.7.2c1.7.4 2.7 1.1 2.7 2.7c0 1.4-1.2 2.8-3.3 2.8c-1.6 0-2.8-.9-3.4-1.9l.9-.8c.5.8 1.4 1.5 2.5 1.5c1.1 0 1.9-.6 1.9-1.5c0-.8-.7-1.2-1.7-1.4l-.8-.2c-1.4-.3-2.1-1.1-2.1-2.4c0-1.4 1-2.6 2.8-2.6c1.3 0 2.2.6 2.8 1.4l-.9.8zm7.4 4.1v-4.9h-1.6v-1.2h1.6v-2.3h1.4v2.3h2v1.2h-2s.03 4.86 0 4.9c0 1.2.6 1.6 1.8 1.6h.2s.02 1.22 0 1.2c-.2.1-.4.1-.6.1c-1.9 0-2.8-.9-2.8-2.9zm5.1-10h1.4v5c.5-.7 1.5-1.3 2.7-1.3c2 0 3.2 1.3 3.2 3.5v5.6H70s-.03-5.42 0-5.4c0-1.6-.8-2.4-2.2-2.4c-1.2 0-2 .7-2.3 1.6v6.2h-1.4V35.6zm9.1 8.3c0-2.8 1.6-4.6 4-4.6c2.4 0 3.9 1.8 3.9 4.4c0 .2 0 .5-.1.7h-6.3c.1 1.8 1.1 2.9 2.6 2.9c1.1 0 2-.4 2.6-1.3l.9.8c-.6 1-1.8 1.8-3.5 1.8c-2.6 0-4.1-1.8-4.1-4.7zm1.5-.7h4.9c-.1-1.6-1-2.6-2.4-2.6c-1.4 0-2.3.9-2.5 2.6zm15.4-3.9c1.7 0 3.1.9 3.6 2.3l-1.2.6c-.4-1.1-1.2-1.6-2.4-1.6c-1.6 0-2.6 1.2-2.6 3.3c0 2.2 1 3.4 2.6 3.4c1.2 0 2-.6 2.4-1.6l1.2.5c-.5 1.5-1.9 2.4-3.6 2.4c-2.6 0-4.1-1.9-4.1-4.7c0-2.7 1.5-4.6 4.1-4.6zm11.6 4.6c0-2.1-1.1-3.3-2.7-3.3c-1.7 0-2.7 1.2-2.7 3.3c0 2.2 1 3.4 2.7 3.4c1.6 0 2.7-1.2 2.7-3.4zm1.5 0c0 2.8-1.7 4.7-4.2 4.7c-2.6 0-4.2-1.9-4.2-4.7c0-2.7 1.6-4.6 4.2-4.6c2.5 0 4.2 1.9 4.2 4.6zm1.8-4.4h1.4v1.2c.5-.7 1.5-1.4 2.7-1.4c2.1 0 3.3 1.3 3.3 3.5c-.03.04 0 5.6 0 5.6h-1.5s.03-5.42 0-5.4c0-1.6-.8-2.4-2.1-2.4c-1.2 0-2.1.7-2.3 1.6c-.03-.05 0 6.2 0 6.2H105v-8.9zm8.5 0h1.5s2.03 5.73 2 5.7c.3.7.5 1.4.5 1.7h.1c0-.3.2-1 .4-1.7c.04.03 2.1-5.7 2.1-5.7h1.5l-3.4 8.9h-1.4l-3.3-8.9zm8.7 4.4c0-2.8 1.6-4.6 4.1-4.6c2.4 0 3.9 1.8 3.9 4.4c0 .2 0 .5-.1.7h-6.4c.2 1.8 1.1 2.9 2.7 2.9c1.1 0 2-.4 2.6-1.3l.9.8c-.6 1-1.8 1.8-3.6 1.8c-2.5 0-4.1-1.8-4.1-4.7zm1.6-.7h4.9c-.1-1.6-1.1-2.6-2.4-2.6c-1.4 0-2.3.9-2.5 2.6zm8.1-3.7h1.4s.02 1.2 0 1.2c.5-.7 1.5-1.4 2.7-1.4c2.1 0 3.3 1.3 3.3 3.5c-.02.04 0 5.6 0 5.6h-1.5s.04-5.42 0-5.4c0-1.6-.7-2.4-2.1-2.4c-1.2 0-2.1.7-2.3 1.6c-.02-.05 0 6.2 0 6.2h-1.5v-8.9zm11.1 0v8.9h-1.4v-8.9h1.4zm.2-3.9v1.8h-1.8v-1.8h1.8zm1.7 8.3c0-2.8 1.6-4.6 4-4.6c2.4 0 3.9 1.8 3.9 4.4v.7h-6.4c.1 1.8 1.1 2.9 2.7 2.9c1.1 0 2-.4 2.5-1.3l1 .8c-.7 1-1.9 1.8-3.6 1.8c-2.6 0-4.1-1.8-4.1-4.7zm1.5-.7h4.9c-.1-1.6-1-2.6-2.4-2.6c-1.3 0-2.3.9-2.5 2.6zm8.2-3.7h1.4s-.03 1.2 0 1.2c.4-.7 1.4-1.4 2.7-1.4c2.1 0 3.2 1.3 3.2 3.5c.03.04 0 5.6 0 5.6h-1.4V43c0-1.6-.8-2.4-2.2-2.4c-1.2 0-2 .7-2.3 1.6c.02-.05 0 6.2 0 6.2h-1.4v-8.9zm13.2-.2c1.7 0 3.1.9 3.6 2.3l-1.2.6c-.4-1.1-1.3-1.6-2.4-1.6c-1.6 0-2.6 1.2-2.6 3.3c0 2.2 1 3.4 2.6 3.4c1.1 0 2-.6 2.4-1.6l1.2.5c-.5 1.5-1.9 2.4-3.6 2.4c-2.6 0-4.1-1.9-4.1-4.7c0-2.7 1.5-4.6 4.1-4.6zm4.7 4.6c0-2.8 1.6-4.6 4-4.6c2.4 0 3.9 1.8 3.9 4.4v.7H174c.1 1.8 1.1 2.9 2.7 2.9c1.1 0 2-.4 2.5-1.3l1 .8c-.7 1-1.9 1.8-3.6 1.8c-2.6 0-4.1-1.8-4.1-4.7zm1.5-.7h4.9c-.1-1.6-1-2.6-2.4-2.6c-1.3 0-2.3.9-2.5 2.6zm18.2.7c0-2.1-1-3.3-2.7-3.3c-1.7 0-2.7 1.2-2.7 3.3c0 2.2 1 3.4 2.7 3.4c1.7 0 2.7-1.2 2.7-3.4zm1.5 0c0 2.8-1.6 4.7-4.2 4.7c-2.6 0-4.2-1.9-4.2-4.7c0-2.7 1.6-4.6 4.2-4.6c2.6 0 4.2 1.9 4.2 4.6zm2.3-3.2h-1.5v-1.2h1.5s.04-1.34 0-1.3c0-1.6.9-2.7 2.7-2.7h.7c.04.05 0 1.2 0 1.2c0 0-.39.04-.4 0c-1 0-1.5.5-1.5 1.5c-.02-.02 0 1.3 0 1.3h1.9v1.2h-1.9v7.7H196v-7.7zm10-5.1v12.8h-1.4V35.6h1.4zm8.8 8.3c0-2.1-1.1-3.3-2.7-3.3c-1.7 0-2.8 1.2-2.8 3.3c0 2.2 1.1 3.4 2.8 3.4c1.6 0 2.7-1.2 2.7-3.4zm1.5 0c0 2.8-1.7 4.7-4.2 4.7c-2.6 0-4.3-1.9-4.3-4.7c0-2.7 1.7-4.6 4.3-4.6c2.5 0 4.2 1.9 4.2 4.6zm5.4-4.6c1.7 0 3 .9 3.5 2.3l-1.1.6c-.4-1.1-1.3-1.6-2.4-1.6c-1.6 0-2.7 1.2-2.7 3.3c0 2.2 1.1 3.4 2.7 3.4c1.1 0 2-.6 2.4-1.6l1.1.5c-.5 1.5-1.8 2.4-3.5 2.4c-2.6 0-4.2-1.9-4.2-4.7c0-2.7 1.6-4.6 4.2-4.6zm8 4.8l-1.4 1.5v2.8h-1.4V35.6h1.4v8.2l3.9-4.3h1.7l-3.3 3.6l3.7 5.2v.1h-1.6l-3-4.3zm7.1-4.6v8.9h-1.4v-8.9h1.4zm.2-3.9v1.8h-1.8v-1.8h1.8zm2.2 3.9h1.4s.02 1.2 0 1.2c.5-.7 1.5-1.4 2.7-1.4c2.1 0 3.3 1.3 3.3 3.5c-.02.04 0 5.6 0 5.6h-1.5s.04-5.42 0-5.4c0-1.6-.8-2.4-2.1-2.4c-1.2 0-2.1.7-2.3 1.6c-.03-.05 0 6.2 0 6.2h-1.5v-8.9zm9.1 4.2c0-2.6 1.5-4.4 3.7-4.4c1.2 0 2.2.5 2.8 1.4c.04.01 0-1.2 0-1.2h1.4s.03 8.13 0 8.1c0 2.3-1.2 4.4-4 4.4c-1.9 0-3.1-1-3.7-2.2l1.1-.7c.5.9 1.3 1.6 2.5 1.6c1.9 0 2.7-1.4 2.7-3v-1c-.7.8-1.7 1.4-2.8 1.4c-2.2 0-3.7-1.9-3.7-4.4zm6.5 1.5v-3.1c-.4-.9-1.3-1.5-2.4-1.5c-1.6 0-2.6 1.2-2.6 3.1c0 1.9 1 3.1 2.6 3.1c1.1 0 2-.6 2.4-1.6zm6.8.5c0-1.7 1.3-3 3.3-3c1 0 1.9.4 2.5 1.1v-.9c0-1.3-.7-2.3-2.2-2.3c-1 0-1.6.3-2.2 1l-.8-1c.6-.7 1.5-1.3 3.1-1.3c2.3 0 3.6 1.4 3.6 3.5c-.04-.03 0 5.6 0 5.6h-1.4s-.02-.88 0-.9c-.7.7-1.6 1.1-2.6 1.1c-2 0-3.3-1.3-3.3-2.9zm5.8.6v-1.2c-.4-.8-1.5-1.2-2.3-1.2c-1.4 0-2 1-2 1.8c0 .8.6 1.7 2 1.7c.8 0 1.9-.3 2.3-1.1zm3.8-6.8h1.4s-.05 1.2 0 1.2c.4-.7 1.4-1.4 2.7-1.4c2 0 3.2 1.3 3.2 3.5v5.6h-1.4s-.03-5.42 0-5.4c0-1.6-.8-2.4-2.2-2.4c-1.2 0-2 .7-2.3 1.6v6.2h-1.4v-8.9zm15.8 7.6c-.7.9-1.7 1.5-2.9 1.5c-2.3 0-3.8-1.9-3.8-4.7c0-2.7 1.5-4.6 3.8-4.6c1.2 0 2.2.5 2.8 1.4c.03-.02 0-5.1 0-5.1h1.5v12.8H287v-1.3zm-.1-1.4v-3.5c-.4-1-1.3-1.6-2.5-1.6c-1.6 0-2.7 1.2-2.7 3.3c0 2.1 1.1 3.4 2.7 3.4c1.2 0 2.1-.6 2.5-1.6zm14.8 2.7h-1.4s.03-1.21 0-1.2c-.5.7-1.5 1.4-2.7 1.4c-2.1 0-3.2-1.3-3.2-3.6c-.03.03 0-5.5 0-5.5h1.4v5.4c0 1.6.8 2.4 2.2 2.4c1.2 0 2-.7 2.3-1.6c-.03.02 0-6.2 0-6.2h1.4v8.9zm2.4-8.9h1.4v1.2c.5-.7 1.5-1.4 2.7-1.4c2.1 0 3.3 1.3 3.3 3.5c-.03.04 0 5.6 0 5.6H310s.03-5.42 0-5.4c0-1.6-.8-2.4-2.1-2.4c-1.2 0-2.1.7-2.3 1.6c-.04-.05 0 6.2 0 6.2h-1.5v-8.9zm11.1-3.9v12.8h-1.4V35.6h1.4zm8.8 8.3c0-2.1-1.1-3.3-2.7-3.3c-1.7 0-2.8 1.2-2.8 3.3c0 2.2 1.1 3.4 2.8 3.4c1.6 0 2.7-1.2 2.7-3.4zm1.5 0c0 2.8-1.7 4.7-4.2 4.7c-2.6 0-4.3-1.9-4.3-4.7c0-2.7 1.7-4.6 4.3-4.6c2.5 0 4.2 1.9 4.2 4.6zm5.4-4.6c1.7 0 3 .9 3.5 2.3l-1.1.6c-.4-1.1-1.3-1.6-2.4-1.6c-1.6 0-2.7 1.2-2.7 3.3c0 2.2 1.1 3.4 2.7 3.4c1.1 0 2-.6 2.4-1.6l1.1.5c-.5 1.5-1.8 2.4-3.5 2.4c-2.6 0-4.2-1.9-4.2-4.7c0-2.7 1.6-4.6 4.2-4.6zm8 4.8l-1.4 1.5v2.8h-1.4V35.6h1.4v8.2l3.9-4.3h1.7l-3.3 3.6l3.7 5.2v.1h-1.6l-3-4.3zm7.1-4.6v8.9h-1.4v-8.9h1.4zm.2-3.9v1.8h-1.8v-1.8h1.8zm2.2 3.9h1.4s.02 1.2 0 1.2c.5-.7 1.5-1.4 2.7-1.4c2.1 0 3.3 1.3 3.3 3.5c-.02.04 0 5.6 0 5.6h-1.5s.04-5.42 0-5.4c0-1.6-.7-2.4-2.1-2.4c-1.2 0-2.1.7-2.3 1.6c-.02-.05 0 6.2 0 6.2h-1.5v-8.9zm9.1 4.2c0-2.6 1.5-4.4 3.7-4.4c1.2 0 2.2.5 2.8 1.4c.04.01 0-1.2 0-1.2h1.4s.03 8.13 0 8.1c0 2.3-1.2 4.4-4 4.4c-1.9 0-3.1-1-3.7-2.2l1.1-.7c.5.9 1.3 1.6 2.5 1.6c2 0 2.7-1.4 2.7-3v-1c-.7.8-1.6 1.4-2.8 1.4c-2.2 0-3.7-1.9-3.7-4.4zm6.5 1.5v-3.1c-.4-.9-1.3-1.5-2.4-1.5c-1.6 0-2.6 1.2-2.6 3.1c0 1.9 1 3.1 2.6 3.1c1.1 0 2-.6 2.4-1.6z" stroke="none" fill="#fff"/></g><g id="Polygon57872"><path d="m.3 11.9L2 10.6c.6 1.1 1.5 2 3.1 2c1.3 0 1.9-.7 1.9-1.6c0-.8-.4-1.4-1.8-1.8l-.9-.3c-1.8-.4-3.1-1.5-3.1-3.5c0-1.9 1.4-3.5 4-3.5c1.7 0 3 .8 3.9 2.1L7.4 5.3c-.6-.9-1.3-1.4-2.2-1.4c-1 0-1.5.7-1.5 1.4c0 .7.4 1.1 1.4 1.4l.9.2c2 .6 3.6 1.7 3.6 4c0 2.2-1.9 3.8-4.5 3.8c-2.5 0-3.9-1.4-4.8-2.8zm9.9-.2c0-1.8 1.3-3 3.4-3c.9 0 1.7.2 2.3.8v-.6c0-1.1-.5-2-1.8-2c-1.1 0-1.8.5-2.1.9l-1.3-1.5c.6-.7 1.8-1.4 3.4-1.4c2.7 0 4.2 1.6 4.2 3.8c-.03-.02 0 5.7 0 5.7H16s.04-.65 0-.6c-.6.5-1.5.9-2.4.9c-2.1 0-3.4-1.3-3.4-3zm5.7.4v-.9c-.3-.5-1-.8-1.8-.8c-1.1 0-1.5.6-1.5 1.3c0 .6.4 1.3 1.5 1.3c.8 0 1.5-.4 1.8-.9zm4.2-10.5h2.3v12.8h-2.3V1.6zm3.7 8.2c0-3.1 2.1-4.9 4.5-4.9c2.4 0 4.2 1.9 4.2 4.6c0 .3 0 .7-.1.9h-6.2c.1 1.4.9 2.3 2.3 2.3c1.1 0 1.8-.5 2.3-1.3l1.5 1.3c-1.1 1.3-2.3 2-4 2c-2.6 0-4.5-1.9-4.5-4.9zm2.4-1h4c-.1-1.4-.9-2-1.9-2c-1.1 0-1.9.7-2.1 2zm12.3-1.1c-.5-.6-1-.9-1.6-.9c-.6 0-1 .3-1 .8c0 .5.2.8.9.9l.6.2c2 .4 2.9 1.3 2.9 3c0 1.6-1.4 3-3.7 3c-1.6 0-2.8-.8-3.6-2l1.4-1.3c.6 1 1.4 1.4 2.3 1.4c.8 0 1.3-.4 1.3-1c0-.6-.4-.8-1.3-1.1l-.7-.1c-1.6-.4-2.4-1.3-2.4-2.8c0-1.6 1.2-2.9 3.3-2.9c1.4 0 2.4.7 3 1.5l-1.4 1.3zm8.8-3.6H44V2.2h9v1.9h-3.3v10.3h-2.4V4.1zm4.9 7.6c0-1.8 1.2-3 3.3-3c.9 0 1.7.2 2.3.8v-.6c0-1.1-.5-2-1.8-2c-1 0-1.7.5-2.1.9l-1.2-1.5c.5-.7 1.7-1.4 3.4-1.4c2.7 0 4.1 1.6 4.1 3.8v5.7H58s-.02-.65 0-.6c-.7.5-1.5.9-2.5.9c-2.1 0-3.3-1.3-3.3-3zm5.6.4v-.9c-.3-.5-.9-.8-1.7-.8c-1.1 0-1.5.6-1.5 1.3c0 .6.4 1.3 1.5 1.3c.8 0 1.4-.4 1.7-.9zM62 1.6h2.4v12.8H62V1.6zm10 12.8l-2.3-3.7l-1 1.2v2.5h-2.4V1.6h2.4v7.2l2.9-3.6h2.7L71.2 9l3.5 5.3v.1H72z" stroke="none" fill="#cccccc"/></g></svg>