<?xml version="1.0" standalone="no"?><!DOCTYPE svg PUBLIC "-//W3C//DTD SVG 1.1//EN" "http://www.w3.org/Graphics/SVG/1.1/DTD/svg11.dtd"><svg xmlns="http://www.w3.org/2000/svg" version="1.1" width="434px" height="74.1px" viewBox="0 -5 434 74.1" style="top:-5px"><desc>스텝 02-2@2타이틀</desc><defs/><g id="Polygon57819"><path d="m.6 36.7c1.5-2.9 6.1-4.3 6.1-6.7c0-1-.5-2-2.1-2c-1.1 0-1.8.6-2.2 1.7l-1.7-1c.4-1.3 1.6-2.8 4-2.8c2.8 0 4.3 1.8 4.3 4c0 3.6-4.2 4.8-5.4 6.4c.04.05 5.7 0 5.7 0v2.1H.6s.01-1.75 0-1.7zm16.1-8.5H13v-2h9.8v2h-3.7v10.2h-2.4V28.2zm6.4 5.6c0-2.6 1.7-4.9 4.9-4.9c3.2 0 4.9 2.3 4.9 4.9c0 2.5-1.7 4.9-4.9 4.9c-3.2 0-4.9-2.4-4.9-4.9zm2.3 0c0 1.7 1.1 2.8 2.6 2.8c1.5 0 2.6-1.1 2.6-2.8c0-1.7-1.1-2.9-2.6-2.9c-1.5 0-2.6 1.2-2.6 2.9zm17.3 4.6h-2.3s-.03-1.3 0-1.3c-.5.8-1.5 1.5-3 1.5c-2.4 0-3.5-1.6-3.5-4v-5.5h2.3v5.2c0 1.5.7 2.3 2 2.3c1.2 0 1.9-.8 2.2-1.6c-.03-.04 0-5.9 0-5.9h2.3v9.3zm1.1-4.6c0-2.6 1.7-4.9 4.8-4.9c1.9 0 3.2.9 4.1 2.3l-1.6 1.3c-.5-.9-1.3-1.6-2.4-1.6c-1.6 0-2.6 1.1-2.6 2.9c0 1.7 1 2.8 2.6 2.8c1.1 0 1.9-.6 2.4-1.5l1.6 1.2c-.9 1.5-2.2 2.3-4.1 2.3c-3.1 0-4.8-2.3-4.8-4.8zm9.8-8.2h2.3s.03 4.83 0 4.8c.5-.8 1.5-1.5 3-1.5c2.4 0 3.5 1.7 3.5 4v5.5h-2.3v-5.2c0-1.5-.7-2.3-2.1-2.3c-1.2 0-1.9.9-2.1 1.7c.03-.03 0 5.8 0 5.8h-2.3V25.6z" stroke="none" fill="#fff"/></g><g id="Polygon57818"><path d="m1.3 2.2s4.98-.04 5 0c3.5 0 6.1 2.1 6.1 6.1c0 3.9-2.6 6.1-6.1 6.1h-5V2.2zm2.4 2v8.2s2.46-.03 2.5 0c2.3 0 3.8-1.5 3.8-4.1c0-2.7-1.5-4.1-3.8-4.1c-.04-.01-2.5 0-2.5 0zm9.9.9h2.3v9.3h-2.3V5.1zm-.1-3.9h2.4v2.4h-2.4V1.2zM17 9.3c0-2.6 1.6-4.4 4.2-4.4c1.2 0 2.2.5 2.8 1.3c.03.01 0-1.1 0-1.1h2.3s.02 7.72 0 7.7c0 3.4-2.3 4.9-4.8 4.9c-2.3 0-3.6-.8-4.3-1.8l1.4-1.5c.6.8 1.4 1.4 2.7 1.4c1.4 0 2.7-.8 2.7-2.8v-.5c-.6.7-1.6 1.3-2.8 1.3c-2.6 0-4.2-1.8-4.2-4.5zm7 1.2V8.2c-.4-.8-1.2-1.3-2.2-1.3c-1.5 0-2.5 1-2.5 2.4c0 1.5 1 2.5 2.5 2.5c1 0 1.8-.5 2.2-1.3zm3.9-5.4h2.3v9.3h-2.3V5.1zm0-3.9h2.3v2.4h-2.3V1.2zm4.6 9.7V7H31V5.1h1.6V2.8h2.2v2.3h2.1v1.9h-2.1v4c0 1.2.6 1.6 1.7 1.6c0-.04.4 0 .4 0c0 0 .04 1.8 0 1.8c-.3.1-.6.1-1 .1c-2.2 0-3.4-1.1-3.4-3.6zm12.2 2.4c-.7.8-1.7 1.3-2.9 1.3c-2.6 0-4.5-1.9-4.5-4.8c0-3 1.9-4.9 4.5-4.9c1.2 0 2.2.5 2.9 1.3c-.04.01 0-1.1 0-1.1h2.2v9.3h-2.2s-.04-1.06 0-1.1zm0-2.1V8.4c-.5-.9-1.4-1.5-2.4-1.5c-1.5 0-2.7 1.1-2.7 2.9c0 1.8 1.2 2.8 2.7 2.8c1 0 1.9-.5 2.4-1.4zm3.9-9.6h2.3v12.8h-2.3V1.6zm7.5.6h2.3v5.7l5-5.7h2.8l-4.5 5.1l4.8 7v.1h-2.8l-3.6-5.3l-1.7 1.9v3.4h-2.3V2.2zm10.3 7.6c0-2.9 2-4.9 4.7-4.9c2.7 0 4.4 1.9 4.4 4.6c0 .3 0 .7-.1 1.1h-6.7c.2 1.2 1.1 2.1 2.7 2.1c1.1 0 2.1-.7 2.6-1.4l1.3 1.5c-.9 1-2.2 1.8-4 1.8c-3 0-4.9-2.1-4.9-4.8zm2.3-1.1h4.6c-.2-1.2-1-1.9-2.2-1.9c-1.2 0-2.1.7-2.4 1.9zM79 13.2l-3.7-8.1h2.4l2.5 5.6l2.3-5.6h2.4l-5.4 12.4H77l2-4.3z" stroke="none" fill="#fff"/></g></svg>