<?xml version="1.0" standalone="no"?><!DOCTYPE svg PUBLIC "-//W3C//DTD SVG 1.1//EN" "http://www.w3.org/Graphics/SVG/1.1/DTD/svg11.dtd"><svg xmlns="http://www.w3.org/2000/svg" version="1.1" width="434px" height="99.4px" viewBox="0 -5 434 99.4" style="top:-5px"><desc>스텝 02-1@5키메세지</desc><defs/><g id="Polygon57990"><path d="m2.9 63.5v8.9H1.5v-8.9h1.4zm.2-3.9v1.8H1.3v-1.8h1.8zm2.9 10c-.04-.04 0-4.9 0-4.9H4.4v-1.2h1.6v-2.3h1.4v2.3h2v1.2h-2v4.9c0 1.2.5 1.6 1.7 1.6h.3v1.2c-.2.1-.4.1-.7.1c-1.8 0-2.7-.9-2.7-2.9zm9.6-4.1c-.6-.7-1.2-1-2-1c-.9 0-1.3.6-1.3 1.2c0 .7.4 1.1 1.1 1.2l.8.2c1.7.4 2.7 1.1 2.7 2.7c0 1.4-1.3 2.8-3.4 2.8c-1.5 0-2.7-.9-3.3-1.9l.9-.8c.5.8 1.3 1.5 2.5 1.5c1.1 0 1.8-.6 1.8-1.5c0-.8-.6-1.2-1.6-1.4l-.8-.2c-1.4-.3-2.2-1.1-2.2-2.4c0-1.4 1-2.6 2.9-2.6c1.2 0 2.2.6 2.8 1.4l-.9.8zm14 6.9h-1.4s-.03-1.21 0-1.2c-.5.7-1.5 1.4-2.7 1.4c-2.1 0-3.3-1.3-3.3-3.6v-5.5h1.5s-.05 5.39 0 5.4c0 1.6.7 2.4 2.1 2.4c1.2 0 2-.7 2.3-1.6c.02.02 0-6.2 0-6.2h1.5v8.9zm2.4-8.9h1.4s-.05 1.2 0 1.2c.4-.7 1.4-1.4 2.7-1.4c2 0 3.2 1.3 3.2 3.5v5.6h-1.4s-.03-5.42 0-5.4c0-1.6-.8-2.4-2.2-2.4c-1.2 0-2 .7-2.3 1.6v6.2H32v-8.9zm11.1 0v8.9h-1.5v-8.9h1.5zm.1-3.9v1.8h-1.8v-1.8h1.8zM53 75.8h-1.4v-4.6c-.7.9-1.7 1.4-2.8 1.4c-2.4 0-3.9-1.9-3.9-4.7c0-2.7 1.5-4.6 3.9-4.6c1.1 0 2.2.6 2.8 1.5c.04-.05 0-1.3 0-1.3h1.4v12.3zm-1.4-6.1v-3.5c-.4-1-1.4-1.6-2.5-1.6c-1.7 0-2.7 1.2-2.7 3.3c0 2.1 1 3.4 2.7 3.4c1.1 0 2.1-.6 2.5-1.6zm11.1 2.7h-1.4v-1.2c-.5.7-1.5 1.4-2.7 1.4c-2.1 0-3.3-1.3-3.3-3.6c.03.03 0-5.5 0-5.5h1.5s-.03 5.39 0 5.4c0 1.6.8 2.4 2.1 2.4c1.2 0 2.1-.7 2.3-1.6c.03.02 0-6.2 0-6.2h1.5v8.9zm1.8-4.5c0-2.8 1.6-4.6 4.1-4.6c2.4 0 3.9 1.8 3.9 4.4c0 .2-.1.5-.1.7H66c.2 1.8 1.1 2.9 2.7 2.9c1.1 0 2-.4 2.5-1.3l1 .8c-.7 1-1.8 1.8-3.6 1.8c-2.5 0-4.1-1.8-4.1-4.7zm1.6-.7h4.9c-.1-1.6-1.1-2.6-2.4-2.6c-1.4 0-2.3.9-2.5 2.6zm16.4-1.7c-.6-.7-1.2-1-2-1c-.9 0-1.3.6-1.3 1.2c0 .7.4 1.1 1.1 1.2l.8.2c1.7.4 2.7 1.1 2.7 2.7c0 1.4-1.3 2.8-3.4 2.8c-1.6 0-2.7-.9-3.4-1.9l1-.8c.5.8 1.3 1.5 2.4 1.5c1.2 0 1.9-.6 1.9-1.5c0-.8-.7-1.2-1.6-1.4l-.8-.2c-1.4-.3-2.2-1.1-2.2-2.4c0-1.4 1-2.6 2.9-2.6c1.2 0 2.2.6 2.8 1.4l-.9.8zm4.5-2v8.9h-1.5v-8.9h1.5zm.1-3.9v1.8h-1.8v-1.8h1.8zm8.4 11.5c-.6.9-1.7 1.5-2.8 1.5c-2.4 0-3.9-1.9-3.9-4.7c0-2.7 1.5-4.6 3.9-4.6c1.1 0 2.1.5 2.8 1.4v-5.1h1.4v12.8h-1.4s.04-1.26 0-1.3zm0-1.4v-3.5c-.4-1-1.4-1.6-2.5-1.6c-1.7 0-2.7 1.2-2.7 3.3c0 2.1 1 3.4 2.7 3.4c1.1 0 2.1-.6 2.5-1.6zm3.3-1.8c0-2.8 1.6-4.6 4-4.6c2.4 0 3.9 1.8 3.9 4.4v.7h-6.4c.1 1.8 1.1 2.9 2.7 2.9c1.1 0 2-.4 2.5-1.3l1 .8c-.7 1-1.9 1.8-3.6 1.8c-2.6 0-4.1-1.8-4.1-4.7zm1.5-.7h4.9c-.1-1.6-1-2.6-2.4-2.6c-1.3 0-2.3.9-2.5 2.6zm18 3.9c-.6.9-1.7 1.5-2.8 1.5c-2.4 0-3.9-1.9-3.9-4.7c0-2.7 1.5-4.6 3.9-4.6c1.1 0 2.1.5 2.8 1.4v-5.1h1.4v12.8h-1.4s.05-1.26 0-1.3zm0-1.4v-3.5c-.4-1-1.4-1.6-2.5-1.6c-1.7 0-2.7 1.2-2.7 3.3c0 2.1 1 3.4 2.7 3.4c1.1 0 2.1-.6 2.5-1.6zm3.3-1.8c0-2.8 1.6-4.6 4-4.6c2.4 0 3.9 1.8 3.9 4.4v.7h-6.4c.1 1.8 1.1 2.9 2.7 2.9c1.1 0 2-.4 2.5-1.3l1 .8c-.7 1-1.8 1.8-3.6 1.8c-2.5 0-4.1-1.8-4.1-4.7zm1.5-.7h4.9c-.1-1.6-1-2.6-2.4-2.6c-1.3 0-2.3.9-2.5 2.6zm12.7-1.7c-.5-.7-1.2-1-1.9-1c-.9 0-1.4.6-1.4 1.2c0 .7.4 1.1 1.2 1.2l.7.2c1.7.4 2.7 1.1 2.7 2.7c0 1.4-1.2 2.8-3.3 2.8c-1.6 0-2.7-.9-3.4-1.9l.9-.8c.6.8 1.4 1.5 2.5 1.5c1.1 0 1.9-.6 1.9-1.5c0-.8-.7-1.2-1.7-1.4l-.7-.2c-1.4-.3-2.2-1.1-2.2-2.4c0-1.4 1-2.6 2.8-2.6c1.3 0 2.3.6 2.9 1.4l-1 .8zm4.5-2v8.9h-1.4v-8.9h1.4zm.2-3.9v1.8h-1.8v-1.8h1.8zm1.7 8.1c0-2.6 1.4-4.4 3.7-4.4c1.1 0 2.1.5 2.8 1.4v-1.2h1.4s-.02 8.13 0 8.1c0 2.3-1.3 4.4-4.1 4.4c-1.9 0-3.1-1-3.6-2.2l1.1-.7c.4.9 1.3 1.6 2.5 1.6c1.9 0 2.6-1.4 2.6-3v-1c-.6.8-1.6 1.4-2.7 1.4c-2.3 0-3.7-1.9-3.7-4.4zm6.4 1.5v-3.1c-.4-.9-1.3-1.5-2.4-1.5c-1.6 0-2.5 1.2-2.5 3.1c0 1.9.9 3.1 2.5 3.1c1.1 0 2-.6 2.4-1.6zm3.9-5.7h1.4s-.02 1.2 0 1.2c.4-.7 1.5-1.4 2.7-1.4c2.1 0 3.2 1.3 3.2 3.5c.04.04 0 5.6 0 5.6h-1.4V67c0-1.6-.8-2.4-2.2-2.4c-1.2 0-2 .7-2.3 1.6c.03-.05 0 6.2 0 6.2h-1.4v-8.9zm16.9-.2c1.7 0 3.1.9 3.6 2.3l-1.2.6c-.4-1.1-1.3-1.6-2.4-1.6c-1.6 0-2.6 1.2-2.6 3.3c0 2.2 1 3.4 2.6 3.4c1.1 0 2-.6 2.4-1.6l1.2.5c-.5 1.5-1.9 2.4-3.6 2.4c-2.6 0-4.1-1.9-4.1-4.7c0-2.7 1.5-4.6 4.1-4.6zm11.6 4.6c0-2.1-1.1-3.3-2.7-3.3c-1.7 0-2.7 1.2-2.7 3.3c0 2.2 1 3.4 2.7 3.4c1.6 0 2.7-1.2 2.7-3.4zm1.5 0c0 2.8-1.7 4.7-4.2 4.7c-2.6 0-4.2-1.9-4.2-4.7c0-2.7 1.6-4.6 4.2-4.6c2.5 0 4.2 1.9 4.2 4.6zm1.8-4.4h1.4v1.2c.5-.7 1.5-1.4 2.7-1.4c1.3 0 2.3.5 2.8 1.6c.4-.8 1.5-1.6 2.9-1.6c2.1 0 3.2 1.3 3.2 3.5v5.6h-1.4s-.03-5.45 0-5.5c0-1.5-.8-2.3-2.1-2.3c-1.2 0-2 .7-2.3 1.6c.03-.05 0 6.2 0 6.2h-1.4v-5.5c0-1.5-.7-2.3-2-2.3c-1.2 0-2.1.7-2.3 1.6c-.04-.05 0 6.2 0 6.2h-1.5v-8.9zm15.3 0h1.4v1.3c.7-.9 1.7-1.5 2.8-1.5c2.4 0 3.9 1.9 3.9 4.6c0 2.8-1.5 4.7-3.9 4.7c-1.1 0-2.1-.5-2.7-1.4c-.04.01 0 4.6 0 4.6h-1.5V63.5zm6.6 4.4c0-2.1-1-3.3-2.7-3.3c-1.1 0-2 .6-2.4 1.6v3.5c.4 1 1.3 1.6 2.4 1.6c1.7 0 2.7-1.3 2.7-3.4zm2.7 1.8c0-1.7 1.3-3 3.3-3c.9 0 1.8.4 2.5 1.1v-.9c0-1.3-.7-2.3-2.2-2.3c-1.1 0-1.6.3-2.2 1l-.9-1c.7-.7 1.6-1.3 3.1-1.3c2.4 0 3.6 1.4 3.6 3.5c.02-.03 0 5.6 0 5.6h-1.4s.04-.88 0-.9c-.6.7-1.5 1.1-2.5 1.1c-2 0-3.3-1.3-3.3-2.9zm5.8.6v-1.2c-.5-.8-1.5-1.2-2.3-1.2c-1.5 0-2 1-2 1.8c0 .8.5 1.7 2 1.7c.8 0 1.8-.3 2.3-1.1zm3.7-6.8h1.4v1.6c.5-1 1.4-1.8 2.7-1.8h.3c.04.01 0 1.5 0 1.5c0 0-.45-.03-.4 0c-1.2 0-2.1.6-2.5 2c-.03-.03 0 5.6 0 5.6h-1.5v-8.9zm5.2 4.4c0-2.8 1.6-4.6 4.1-4.6c2.4 0 3.9 1.8 3.9 4.4c0 .2 0 .5-.1.7h-6.3c.1 1.8 1.1 2.9 2.6 2.9c1.1 0 2-.4 2.6-1.3l.9.8c-.6 1-1.8 1.8-3.5 1.8c-2.6 0-4.2-1.8-4.2-4.7zm1.6-.7h4.9c-.1-1.6-1.1-2.6-2.4-2.6c-1.4 0-2.3.9-2.5 2.6zm14.3 3.9c-.6.9-1.7 1.5-2.8 1.5c-2.4 0-3.9-1.9-3.9-4.7c0-2.7 1.5-4.6 3.9-4.6c1.1 0 2.1.5 2.8 1.4c-.03-.02 0-5.1 0-5.1h1.4v12.8h-1.4s.02-1.26 0-1.3zm0-1.4v-3.5c-.4-1-1.4-1.6-2.5-1.6c-1.7 0-2.7 1.2-2.7 3.3c0 2.1 1 3.4 2.7 3.4c1.1 0 2.1-.6 2.5-1.6zm8.1-.1c.04-.04 0-4.9 0-4.9H246v-1.2h1.7v-2.3h1.4v2.3h2v1.2h-2s-.02 4.86 0 4.9c0 1.2.5 1.6 1.7 1.6h.3s-.02 1.22 0 1.2c-.2.1-.4.1-.7.1c-1.8 0-2.8-.9-2.8-2.9zm11.5-1.7c0-2.1-1.1-3.3-2.7-3.3c-1.7 0-2.8 1.2-2.8 3.3c0 2.2 1.1 3.4 2.8 3.4c1.6 0 2.7-1.2 2.7-3.4zm1.5 0c0 2.8-1.7 4.7-4.2 4.7c-2.6 0-4.3-1.9-4.3-4.7c0-2.7 1.7-4.6 4.3-4.6c2.5 0 4.2 1.9 4.2 4.6zm6.1 1.7c.02-.04 0-4.9 0-4.9h-1.6v-1.2h1.6v-2.3h1.5v2.3h2v1.2h-2s-.04 4.86 0 4.9c0 1.2.5 1.6 1.7 1.6h.3s-.04 1.22 0 1.2c-.2.1-.5.1-.7.1c-1.8 0-2.8-.9-2.8-2.9zm5.1-10h1.4s.03 5.01 0 5c.5-.7 1.5-1.3 2.7-1.3c2.1 0 3.2 1.3 3.2 3.5c.04.04 0 5.6 0 5.6h-1.4V67c0-1.6-.8-2.4-2.2-2.4c-1.2 0-2 .7-2.3 1.6c.03-.05 0 6.2 0 6.2h-1.4V59.6zm9.1 8.3c0-2.8 1.6-4.6 4-4.6c2.4 0 3.9 1.8 3.9 4.4v.7h-6.4c.1 1.8 1.1 2.9 2.7 2.9c1.1 0 2-.4 2.5-1.3l1 .8c-.7 1-1.8 1.8-3.6 1.8c-2.5 0-4.1-1.8-4.1-4.7zm1.5-.7h4.9c-.1-1.6-1-2.6-2.4-2.6c-1.3 0-2.3.9-2.5 2.6zm13.3 5.2h-1.4V59.6h1.4s.02 5.08 0 5.1c.7-.9 1.7-1.4 2.8-1.4c2.4 0 3.9 1.9 3.9 4.6c0 2.8-1.5 4.7-3.9 4.7c-1.1 0-2.2-.6-2.8-1.5c-.04.04 0 1.3 0 1.3zm5.2-4.5c0-2.1-1-3.3-2.7-3.3c-1.1 0-2.1.6-2.5 1.6v3.5c.4 1 1.4 1.6 2.5 1.6c1.7 0 2.7-1.3 2.7-3.4zm2.7 1.8c0-1.7 1.2-3 3.3-3c.9 0 1.8.4 2.4 1.1v-.9c0-1.3-.7-2.3-2.1-2.3c-1.1 0-1.6.3-2.3 1l-.8-1c.6-.7 1.5-1.3 3.1-1.3c2.3 0 3.6 1.4 3.6 3.5c-.02-.03 0 5.6 0 5.6h-1.4v-.9c-.7.7-1.6 1.1-2.5 1.1c-2.1 0-3.3-1.3-3.3-2.9zm5.7.6v-1.2c-.4-.8-1.4-1.2-2.2-1.2c-1.5 0-2.1 1-2.1 1.8c0 .8.6 1.7 2.1 1.7c.8 0 1.8-.3 2.2-1.1zm8.3-4.8c-.5-.7-1.2-1-1.9-1c-.9 0-1.4.6-1.4 1.2c0 .7.4 1.1 1.2 1.2l.7.2c1.7.4 2.7 1.1 2.7 2.7c0 1.4-1.2 2.8-3.3 2.8c-1.6 0-2.7-.9-3.4-1.9l.9-.8c.6.8 1.4 1.5 2.5 1.5c1.1 0 1.9-.6 1.9-1.5c0-.8-.7-1.2-1.7-1.4l-.7-.2c-1.4-.3-2.2-1.1-2.2-2.4c0-1.4 1-2.6 2.8-2.6c1.3 0 2.3.6 2.9 1.4l-1 .8zm2.5 2.4c0-2.8 1.6-4.6 4.1-4.6c2.4 0 3.9 1.8 3.9 4.4c0 .2-.1.5-.1.7h-6.4c.2 1.8 1.1 2.9 2.7 2.9c1.1 0 2-.4 2.5-1.3l1 .8c-.7 1-1.8 1.8-3.6 1.8c-2.5 0-4.1-1.8-4.1-4.7zm1.6-.7h4.9c-.1-1.6-1.1-2.6-2.4-2.6c-1.4 0-2.3.9-2.5 2.6zm15.4-3.9c1.7 0 3 .9 3.5 2.3l-1.1.6c-.4-1.1-1.3-1.6-2.4-1.6c-1.6 0-2.6 1.2-2.6 3.3c0 2.2 1 3.4 2.6 3.4c1.1 0 2-.6 2.4-1.6l1.1.5c-.5 1.5-1.8 2.4-3.5 2.4c-2.6 0-4.1-1.9-4.1-4.7c0-2.7 1.5-4.6 4.1-4.6zm4.5 6.4c0-1.7 1.3-3 3.3-3c1 0 1.9.4 2.5 1.1v-.9c0-1.3-.7-2.3-2.2-2.3c-1 0-1.6.3-2.2 1l-.8-1c.6-.7 1.5-1.3 3.1-1.3c2.3 0 3.6 1.4 3.6 3.5c-.05-.03 0 5.6 0 5.6h-1.4s-.03-.88 0-.9c-.7.7-1.6 1.1-2.6 1.1c-2 0-3.3-1.3-3.3-2.9zm5.8.6v-1.2c-.5-.8-1.5-1.2-2.3-1.2c-1.4 0-2 1-2 1.8c0 .8.6 1.7 2 1.7c.8 0 1.8-.3 2.3-1.1zm3.8-6.8h1.3s.04 1.57 0 1.6c.5-1 1.4-1.8 2.7-1.8h.4c-.03.01 0 1.5 0 1.5c0 0-.52-.03-.5 0c-1.2 0-2.1.6-2.5 2v5.6h-1.4v-8.9zm5.5 7.7h2.2v2.2h-2.2v-2.2z" stroke="none" fill="#fff"/></g><g id="Polygon57989"><path d="m5.9 43.4H3.3v5H1.8V36.2s4.07-.04 4.1 0c2.4 0 3.9 1.3 3.9 3.6c0 2.3-1.5 3.6-3.9 3.6zm-.2-6c-.01.04-2.4 0-2.4 0v4.7s2.39.02 2.4 0c1.7 0 2.5-.8 2.5-2.3c0-1.5-.8-2.4-2.5-2.4zm5.7 2.1h1.4s-.04 1.57 0 1.6c.4-1 1.3-1.8 2.6-1.8h.4v1.5s-.5-.03-.5 0c-1.2 0-2.1.6-2.5 2c.02-.03 0 5.6 0 5.6h-1.4v-8.9zm12.1 4.4c0-2.1-1.1-3.3-2.7-3.3c-1.7 0-2.7 1.2-2.7 3.3c0 2.2 1 3.4 2.7 3.4c1.6 0 2.7-1.2 2.7-3.4zm1.5 0c0 2.8-1.7 4.7-4.2 4.7c-2.6 0-4.2-1.9-4.2-4.7c0-2.7 1.6-4.6 4.2-4.6c2.5 0 4.2 1.9 4.2 4.6zm3.3 4.4c0 1.8-.8 2.9-1.9 3.7l-.9-1c.9-.8 1.3-1.5 1.3-2.8c.04.04 0-8.7 0-8.7h1.5s-.02 8.79 0 8.8zm.2-12.7v1.8h-1.8v-1.8h1.8zm1.6 8.3c0-2.8 1.6-4.6 4.1-4.6c2.4 0 3.9 1.8 3.9 4.4c0 .2 0 .5-.1.7h-6.4c.2 1.8 1.1 2.9 2.7 2.9c1.1 0 2-.4 2.5-1.3l1 .8c-.6 1-1.8 1.8-3.6 1.8c-2.5 0-4.1-1.8-4.1-4.7zm1.6-.7h4.9c-.1-1.6-1.1-2.6-2.4-2.6c-1.4 0-2.3.9-2.5 2.6zm11.7-3.9c1.7 0 3.1.9 3.6 2.3l-1.2.6c-.4-1.1-1.3-1.6-2.4-1.6c-1.6 0-2.6 1.2-2.6 3.3c0 2.2 1 3.4 2.6 3.4c1.1 0 2-.6 2.4-1.6l1.2.5c-.5 1.5-1.9 2.4-3.6 2.4c-2.6 0-4.1-1.9-4.1-4.7c0-2.7 1.5-4.6 4.1-4.6zm5.9 6.3c-.03-.04 0-4.9 0-4.9h-1.6v-1.2h1.6v-2.3h1.4v2.3h2v1.2h-2v4.9c0 1.2.5 1.6 1.8 1.6h.2v1.2c-.2.1-.4.1-.6.1c-1.9 0-2.8-.9-2.8-2.9zm6.5-6.1v8.9h-1.5v-8.9h1.5zm.2-3.9v1.8h-1.8v-1.8h1.8zm2.2 3.9h1.4s-.02 1.2 0 1.2c.4-.7 1.5-1.4 2.7-1.4c2.1 0 3.2 1.3 3.2 3.5c.04.04 0 5.6 0 5.6h-1.4V43c0-1.6-.8-2.4-2.2-2.4c-1.2 0-2 .7-2.3 1.6c.03-.05 0 6.2 0 6.2h-1.4v-8.9zm9.1 4.2c0-2.6 1.4-4.4 3.7-4.4c1.1 0 2.2.5 2.8 1.4v-1.2h1.4s-.02 8.13 0 8.1c0 2.3-1.3 4.4-4 4.4c-2 0-3.2-1-3.7-2.2l1.1-.7c.4.9 1.3 1.6 2.5 1.6c1.9 0 2.6-1.4 2.6-3v-1c-.6.8-1.6 1.4-2.7 1.4c-2.3 0-3.7-1.9-3.7-4.4zm6.4 1.5v-3.1c-.4-.9-1.3-1.5-2.4-1.5c-1.6 0-2.5 1.2-2.5 3.1c0 1.9.9 3.1 2.5 3.1c1.1 0 2-.6 2.4-1.6zm6.9.5c0-1.7 1.3-3 3.3-3c.9 0 1.8.4 2.5 1.1v-.9c0-1.3-.7-2.3-2.2-2.3c-1.1 0-1.6.3-2.2 1l-.9-1c.7-.7 1.6-1.3 3.1-1.3c2.4 0 3.6 1.4 3.6 3.5c.02-.03 0 5.6 0 5.6h-1.4s.03-.88 0-.9c-.6.7-1.5 1.1-2.5 1.1c-2 0-3.3-1.3-3.3-2.9zm5.8.6v-1.2c-.5-.8-1.5-1.2-2.3-1.2c-1.5 0-2 1-2 1.8c0 .8.5 1.7 2 1.7c.8 0 1.8-.3 2.3-1.1zm7.4-10.7h1.5s-.05 5.01 0 5c.4-.7 1.4-1.3 2.6-1.3c2.1 0 3.3 1.3 3.3 3.5c-.04.04 0 5.6 0 5.6h-1.5s.02-5.42 0-5.4c0-1.6-.8-2.4-2.1-2.4c-1.2 0-2.1.7-2.3 1.6c-.05-.05 0 6.2 0 6.2h-1.5V35.6zm11.1 3.9v8.9h-1.4v-8.9h1.4zm.2-3.9v1.8h-1.8v-1.8h1.8zm1.7 8.1c0-2.6 1.4-4.4 3.7-4.4c1.1 0 2.1.5 2.8 1.4c-.03.01 0-1.2 0-1.2h1.4s-.04 8.13 0 8.1c0 2.3-1.3 4.4-4.1 4.4c-1.9 0-3.1-1-3.6-2.2l1.1-.7c.4.9 1.2 1.6 2.5 1.6c1.9 0 2.6-1.4 2.6-3v-1c-.6.8-1.6 1.4-2.7 1.4c-2.3 0-3.7-1.9-3.7-4.4zm6.4 1.5v-3.1c-.4-.9-1.3-1.5-2.4-1.5c-1.6 0-2.6 1.2-2.6 3.1c0 1.9 1 3.1 2.6 3.1c1.1 0 2-.6 2.4-1.6zm3.9-9.6h1.4s.01 5.01 0 5c.5-.7 1.5-1.3 2.7-1.3c2 0 3.2 1.3 3.2 3.5v5.6H123s-.03-5.42 0-5.4c0-1.6-.8-2.4-2.2-2.4c-1.2 0-2 .7-2.3 1.6v6.2h-1.4V35.6zm9.4 8v-1.3h4.7v1.3h-4.7zm6.9-4.1h1.4s-.02 1.25 0 1.3c.6-.9 1.7-1.5 2.8-1.5c2.4 0 3.9 1.9 3.9 4.6c0 2.8-1.5 4.7-3.9 4.7c-1.1 0-2.1-.5-2.8-1.4c.04.01 0 4.6 0 4.6h-1.4V39.5zm6.6 4.4c0-2.1-1-3.3-2.7-3.3c-1.1 0-2.1.6-2.5 1.6v3.5c.4 1 1.4 1.6 2.5 1.6c1.7 0 2.7-1.3 2.7-3.4zm2.8 0c0-2.8 1.6-4.6 4.1-4.6c2.4 0 3.8 1.8 3.8 4.4v.7h-6.4c.1 1.8 1.1 2.9 2.7 2.9c1.1 0 2-.4 2.5-1.3l1 .8c-.7 1-1.8 1.8-3.6 1.8c-2.5 0-4.1-1.8-4.1-4.7zm1.5-.7h4.9c-.1-1.6-1-2.6-2.3-2.6c-1.4 0-2.3.9-2.6 2.6zm8.2-3.7h1.4v1.6c.5-1 1.4-1.8 2.6-1.8h.4c.02.01 0 1.5 0 1.5c0 0-.47-.03-.5 0c-1.2 0-2 .6-2.4 2c-.05-.03 0 5.6 0 5.6h-1.5v-8.9zm6.4 1.2h-1.5v-1.2h1.5v-1.3c0-1.6.9-2.7 2.6-2.7h.8v1.2s-.43.04-.4 0c-1.1 0-1.6.5-1.6 1.5c.04-.02 0 1.3 0 1.3h2v1.2h-2v7.7h-1.4v-7.7zm11 3.2c0-2.1-1-3.3-2.7-3.3c-1.7 0-2.7 1.2-2.7 3.3c0 2.2 1 3.4 2.7 3.4c1.7 0 2.7-1.2 2.7-3.4zm1.5 0c0 2.8-1.6 4.7-4.2 4.7c-2.6 0-4.2-1.9-4.2-4.7c0-2.7 1.6-4.6 4.2-4.6c2.6 0 4.2 1.9 4.2 4.6zm1.8-4.4h1.4s.03 1.57 0 1.6c.5-1 1.4-1.8 2.7-1.8h.4c-.04.01 0 1.5 0 1.5c0 0-.53-.03-.5 0c-1.2 0-2.1.6-2.5 2v5.6h-1.5v-8.9zm5.8 0h1.4v1.2c.5-.7 1.5-1.4 2.7-1.4c1.3 0 2.3.5 2.8 1.6c.4-.8 1.5-1.6 2.9-1.6c2.1 0 3.2 1.3 3.2 3.5c.02 0 0 5.6 0 5.6h-1.4s-.02-5.45 0-5.5c0-1.5-.8-2.3-2.1-2.3c-1.2 0-2 .7-2.3 1.6c.04-.05 0 6.2 0 6.2h-1.4v-5.5c0-1.5-.7-2.3-2-2.3c-1.2 0-2.1.7-2.3 1.6c-.04-.05 0 6.2 0 6.2H179v-8.9zm14.6 6.2c0-1.7 1.3-3 3.3-3c1 0 1.9.4 2.5 1.1v-.9c0-1.3-.7-2.3-2.2-2.3c-1 0-1.6.3-2.2 1l-.8-1c.6-.7 1.5-1.3 3.1-1.3c2.3 0 3.6 1.4 3.6 3.5c-.04-.03 0 5.6 0 5.6h-1.4s-.03-.88 0-.9c-.7.7-1.6 1.1-2.6 1.1c-2 0-3.3-1.3-3.3-2.9zm5.8.6v-1.2c-.4-.8-1.5-1.2-2.3-1.2c-1.4 0-2 1-2 1.8c0 .8.6 1.7 2 1.7c.8 0 1.9-.3 2.3-1.1zm3.8-6.8h1.3s.05 1.2 0 1.2c.5-.7 1.5-1.4 2.8-1.4c2 0 3.2 1.3 3.2 3.5v5.6h-1.4s-.03-5.42 0-5.4c0-1.6-.8-2.4-2.2-2.4c-1.2 0-2 .7-2.3 1.6v6.2h-1.4v-8.9zm13.2-.2c1.7 0 3 .9 3.5 2.3l-1.1.6c-.4-1.1-1.3-1.6-2.4-1.6c-1.6 0-2.7 1.2-2.7 3.3c0 2.2 1.1 3.4 2.7 3.4c1.1 0 2-.6 2.4-1.6l1.1.5c-.5 1.5-1.8 2.4-3.5 2.4c-2.6 0-4.1-1.9-4.1-4.7c0-2.7 1.5-4.6 4.1-4.6zm4.7 4.6c0-2.8 1.6-4.6 4-4.6c2.4 0 3.9 1.8 3.9 4.4c0 .2 0 .5-.1.7h-6.3c.1 1.8 1.1 2.9 2.6 2.9c1.1 0 2-.4 2.6-1.3l.9.8c-.6 1-1.8 1.8-3.5 1.8c-2.6 0-4.1-1.8-4.1-4.7zm1.5-.7h4.9c-.1-1.6-1-2.6-2.4-2.6c-1.4 0-2.3.9-2.5 2.6zm13.3-3.7v8.9h-1.5v-8.9h1.5zm.2-3.9v1.8h-1.8v-1.8h1.8zm2.2 3.9h1.4s-.02 1.2 0 1.2c.5-.7 1.5-1.4 2.7-1.4c1.3 0 2.3.5 2.7 1.6c.5-.8 1.6-1.6 3-1.6c2 0 3.2 1.3 3.2 3.5v5.6h-1.4s-.05-5.45 0-5.5c0-1.5-.8-2.3-2.1-2.3c-1.2 0-2 .7-2.3 1.6c.02-.05 0 6.2 0 6.2h-1.4s-.02-5.45 0-5.5c0-1.5-.8-2.3-2.1-2.3c-1.2 0-2 .7-2.3 1.6c.04-.05 0 6.2 0 6.2h-1.4v-8.9zm14.6 6.2c0-1.7 1.3-3 3.3-3c.9 0 1.8.4 2.5 1.1v-.9c0-1.3-.7-2.3-2.2-2.3c-1 0-1.6.3-2.2 1l-.9-1c.7-.7 1.6-1.3 3.1-1.3c2.4 0 3.6 1.4 3.6 3.5c.03-.03 0 5.6 0 5.6h-1.4s.05-.88 0-.9c-.6.7-1.5 1.1-2.5 1.1c-2 0-3.3-1.3-3.3-2.9zm5.8.6v-1.2c-.5-.8-1.5-1.2-2.3-1.2c-1.5 0-2 1-2 1.8c0 .8.5 1.7 2 1.7c.8 0 1.8-.3 2.3-1.1zm3.2-2.6c0-2.6 1.4-4.4 3.7-4.4c1.1 0 2.1.5 2.8 1.4v-1.2h1.4s-.02 8.13 0 8.1c0 2.3-1.3 4.4-4.1 4.4c-1.9 0-3.1-1-3.6-2.2l1.1-.7c.4.9 1.3 1.6 2.5 1.6c1.9 0 2.6-1.4 2.6-3v-1c-.6.8-1.6 1.4-2.7 1.4c-2.3 0-3.7-1.9-3.7-4.4zm6.4 1.5v-3.1c-.4-.9-1.3-1.5-2.4-1.5c-1.6 0-2.5 1.2-2.5 3.1c0 1.9.9 3.1 2.5 3.1c1.1 0 2-.6 2.4-1.6zm3.3-1.3c0-2.8 1.6-4.6 4.1-4.6c2.4 0 3.9 1.8 3.9 4.4c0 .2 0 .5-.1.7h-6.4c.2 1.8 1.1 2.9 2.7 2.9c1.1 0 2-.4 2.5-1.3l1 .8c-.6 1-1.8 1.8-3.6 1.8c-2.5 0-4.1-1.8-4.1-4.7zm1.6-.7h4.9c-.1-1.6-1.1-2.6-2.4-2.6c-1.4 0-2.3.9-2.5 2.6zm8.1 9.2l.9-3h-1.1v-2.2h2.3v2l-1 3.2h-1.1zm14.2-5.3c-.7.9-1.7 1.5-2.9 1.5c-2.3 0-3.8-1.9-3.8-4.7c0-2.7 1.5-4.6 3.8-4.6c1.2 0 2.2.5 2.8 1.4c.03-.02 0-5.1 0-5.1h1.5v12.8h-1.4s-.02-1.26 0-1.3zm-.1-1.4v-3.5c-.4-1-1.3-1.6-2.5-1.6c-1.6 0-2.7 1.2-2.7 3.3c0 2.1 1.1 3.4 2.7 3.4c1.2 0 2.1-.6 2.5-1.6zm5.3-6.2v8.9h-1.4v-8.9h1.4zm.2-3.9v1.8h-1.8v-1.8h1.8zm6.8 5.9c-.6-.7-1.2-1-2-1c-.9 0-1.3.6-1.3 1.2c0 .7.4 1.1 1.1 1.2l.8.2c1.7.4 2.7 1.1 2.7 2.7c0 1.4-1.3 2.8-3.4 2.8c-1.5 0-2.7-.9-3.3-1.9l.9-.8c.5.8 1.3 1.5 2.5 1.5c1.1 0 1.8-.6 1.8-1.5c0-.8-.6-1.2-1.6-1.4l-.8-.2c-1.4-.3-2.2-1.1-2.2-2.4c0-1.4 1-2.6 2.9-2.6c1.2 0 2.2.6 2.8 1.4l-.9.8zm3.5 4.1v-4.9h-1.6v-1.2h1.6v-2.3h1.5v2.3h2v1.2h-2s-.05 4.86 0 4.9c0 1.2.5 1.6 1.7 1.6h.3s-.05 1.22 0 1.2c-.2.1-.5.1-.7.1c-1.8 0-2.8-.9-2.8-2.9zm6.5-6.1v8.9h-1.4v-8.9h1.4zm.2-3.9v1.8h-1.8v-1.8h1.8zm2.2 3.9h1.4s.03 1.2 0 1.2c.5-.7 1.5-1.4 2.7-1.4c2.1 0 3.3 1.3 3.3 3.5v5.6H326s.05-5.42 0-5.4c0-1.6-.7-2.4-2.1-2.4c-1.2 0-2.1.7-2.3 1.6c-.02-.05 0 6.2 0 6.2h-1.5v-8.9zm9.1 4.2c0-2.6 1.5-4.4 3.7-4.4c1.2 0 2.2.5 2.8 1.4c.05.01 0-1.2 0-1.2h1.4s.03 8.13 0 8.1c0 2.3-1.2 4.4-4 4.4c-1.9 0-3.1-1-3.7-2.2l1.1-.7c.5.9 1.3 1.6 2.5 1.6c2 0 2.7-1.4 2.7-3v-1c-.7.8-1.6 1.4-2.8 1.4c-2.2 0-3.7-1.9-3.7-4.4zm6.5 1.5v-3.1c-.4-.9-1.3-1.5-2.4-1.5c-1.6 0-2.6 1.2-2.6 3.1c0 1.9 1 3.1 2.6 3.1c1.1 0 2-.6 2.4-1.6zm11.1 3.2h-1.4v-1.2c-.5.7-1.5 1.4-2.7 1.4c-2.1 0-3.3-1.3-3.3-3.6c.04.03 0-5.5 0-5.5h1.5s-.02 5.39 0 5.4c0 1.6.8 2.4 2.1 2.4c1.2 0 2.1-.7 2.3-1.6c.04.02 0-6.2 0-6.2h1.5v8.9zm3.8-8.9v8.9h-1.4v-8.9h1.4zm.2-3.9v1.8H349v-1.8h1.8zm6.8 5.9c-.5-.7-1.2-1-2-1c-.8 0-1.3.6-1.3 1.2c0 .7.4 1.1 1.1 1.2l.8.2c1.7.4 2.7 1.1 2.7 2.7c0 1.4-1.2 2.8-3.4 2.8c-1.5 0-2.7-.9-3.3-1.9l.9-.8c.5.8 1.3 1.5 2.5 1.5c1.1 0 1.8-.6 1.8-1.5c0-.8-.6-1.2-1.6-1.4l-.8-.2c-1.4-.3-2.2-1.1-2.2-2.4c0-1.4 1.1-2.6 2.9-2.6c1.2 0 2.2.6 2.8 1.4l-.9.8zm3-5.9h1.5s-.02 5.01 0 5c.5-.7 1.5-1.3 2.6-1.3c2.1 0 3.3 1.3 3.3 3.5v5.6h-1.5s.05-5.42 0-5.4c0-1.6-.7-2.4-2.1-2.4c-1.2 0-2.1.7-2.3 1.6c-.02-.05 0 6.2 0 6.2h-1.5V35.6zm9.1 8.3c0-2.8 1.6-4.6 4.1-4.6c2.4 0 3.9 1.8 3.9 4.4c0 .2 0 .5-.1.7h-6.4c.2 1.8 1.1 2.9 2.7 2.9c1.1 0 2-.4 2.5-1.3l1 .8c-.6 1-1.8 1.8-3.6 1.8c-2.5 0-4.1-1.8-4.1-4.7zm1.6-.7h4.9c-.1-1.6-1.1-2.6-2.4-2.6c-1.4 0-2.3.9-2.5 2.6zm14.3 3.9c-.7.9-1.7 1.5-2.8 1.5c-2.4 0-3.9-1.9-3.9-4.7c0-2.7 1.5-4.6 3.9-4.6c1.1 0 2.1.5 2.8 1.4c-.05-.02 0-5.1 0-5.1h1.4v12.8h-1.4v-1.3zm0-1.4v-3.5c-.5-1-1.4-1.6-2.5-1.6c-1.7 0-2.7 1.2-2.7 3.3c0 2.1 1 3.4 2.7 3.4c1.1 0 2-.6 2.5-1.6zm8.9 2.7h-1.4V35.6h1.4s.03 5.08 0 5.1c.7-.9 1.7-1.4 2.8-1.4c2.4 0 3.9 1.9 3.9 4.6c0 2.8-1.5 4.7-3.9 4.7c-1.1 0-2.2-.6-2.8-1.5c-.02.04 0 1.3 0 1.3zm5.2-4.5c0-2.1-1-3.3-2.7-3.3c-1.1 0-2.1.6-2.5 1.6v3.5c.4 1 1.4 1.6 2.5 1.6c1.7 0 2.7-1.3 2.7-3.4zm5.5 3.6l-3.4-8h1.5s2.07 5.08 2.1 5.1c.2.7.5 1.3.5 1.6c.1-.5.3-.9.5-1.6l1.9-5.1h1.6L405 51.8h-1.6l1.8-4.3z" stroke="none" fill="#fff"/></g><g id="Polygon57988"><path d="m8.4 14.4L5.3 9.1l-1.4 1.7v3.6H1.5V2.2h2.4v5.4L8 2.2h2.9l-4.1 5l4.4 7.1v.1H8.4zm3-4.6c0-3.1 2.1-4.9 4.5-4.9c2.4 0 4.2 1.9 4.2 4.6c0 .3 0 .7-.1.9h-6.3c.2 1.4 1 2.3 2.4 2.3c1.1 0 1.8-.5 2.3-1.3l1.5 1.3c-1.1 1.3-2.3 2-4 2c-2.6 0-4.5-1.9-4.5-4.9zm2.4-1h4c-.1-1.4-.9-2-1.9-2c-1.2 0-1.9.7-2.1 2zm9.6 4.4l-3.3-8h2.5s1.56 4.18 1.6 4.2c.2.8.4 1.5.4 1.9h.1c.1-.6.2-1.1.5-1.9c-.04-.02 1.4-4.2 1.4-4.2h2.6l-5 12.3h-2.5l1.7-4.3zm16-3.4c.3.8.5 1.6.5 1.8c0-.2.2-1 .5-1.8c-.03.03 2.7-7.6 2.7-7.6h3.2v12.2h-2.4s.02-6.1 0-6.1c0-1.3 0-2.2.1-2.8h-.1c0 .4-.3 1.5-.7 2.7c-.02-.03-2.2 6.2-2.2 6.2h-2.2s-2.17-6.23-2.2-6.2c-.4-1.2-.7-2.4-.7-2.7h-.1c.1.6.1 1.5.1 2.8c-.01 0 0 6.1 0 6.1h-2.4V2.2h3.3s2.64 7.63 2.6 7.6zm8.6 0c0-3.1 2.1-4.9 4.5-4.9c2.4 0 4.2 1.9 4.2 4.6c0 .3-.1.7-.1.9h-6.3c.2 1.4 1 2.3 2.4 2.3c1.1 0 1.8-.5 2.3-1.3l1.5 1.3c-1.1 1.3-2.3 2-4 2c-2.6 0-4.5-1.9-4.5-4.9zm2.4-1h4c-.1-1.4-.9-2-1.9-2c-1.2 0-1.9.7-2.1 2zm12.2-1.1c-.4-.6-.9-.9-1.6-.9c-.5 0-.9.3-.9.8c0 .5.2.8.8.9l.7.2c2 .4 2.9 1.3 2.9 3c0 1.6-1.4 3-3.7 3c-1.6 0-2.8-.8-3.7-2l1.5-1.3c.6 1 1.4 1.4 2.3 1.4c.7 0 1.3-.4 1.3-1c0-.6-.4-.8-1.3-1.1l-.7-.1c-1.6-.4-2.5-1.3-2.5-2.8c0-1.6 1.2-2.9 3.4-2.9c1.4 0 2.4.7 3 1.5l-1.5 1.3zm7.8 0c-.5-.6-.9-.9-1.6-.9c-.5 0-1 .3-1 .8c0 .5.3.8.9.9l.7.2c1.9.4 2.9 1.3 2.9 3c0 1.6-1.5 3-3.7 3c-1.6 0-2.9-.8-3.7-2l1.4-1.3c.7 1 1.4 1.4 2.4 1.4c.7 0 1.2-.4 1.2-1c0-.6-.3-.8-1.2-1.1l-.7-.1c-1.6-.4-2.5-1.3-2.5-2.8c0-1.6 1.2-2.9 3.3-2.9c1.5 0 2.4.7 3.1 1.5l-1.5 1.3zm2.5 4c0-1.8 1.2-3 3.3-3c.9 0 1.7.2 2.4.8v-.6c0-1.1-.6-2-1.9-2c-1 0-1.7.5-2.1.9l-1.2-1.5c.6-.7 1.8-1.4 3.4-1.4c2.7 0 4.1 1.6 4.1 3.8c.03-.02 0 5.7 0 5.7h-2.2v-.6c-.7.5-1.5.9-2.5.9c-2.1 0-3.3-1.3-3.3-3zm5.7.4v-.9c-.4-.5-1-.8-1.8-.8c-1.1 0-1.5.6-1.5 1.3c0 .6.4 1.3 1.5 1.3c.8 0 1.4-.4 1.8-.9zm3.6-2.8c0-2.7 1.7-4.4 3.9-4.4c1 0 1.9.6 2.5 1.4c.03-.04 0-1.1 0-1.1h2.3s.02 8.05 0 8c0 3.1-2.2 4.6-4.6 4.6c-2.1 0-3.3-1-3.9-2.2l1.6-1.1c.5.8 1.1 1.4 2.3 1.4c1 0 2.2-.7 2.2-2.5v-.8c-.6.7-1.4 1.2-2.4 1.2c-2.2 0-3.9-1.7-3.9-4.5zm6.3 1.2V8.2c-.3-.8-1.1-1.3-1.9-1.3c-1.2 0-2 .8-2 2.4c0 1.7.8 2.5 2 2.5c.8 0 1.6-.5 1.9-1.3zm3.8-.7c0-3.1 2.1-4.9 4.4-4.9c2.5 0 4.3 1.9 4.3 4.6c0 .3-.1.7-.1.9h-6.3c.2 1.4 1 2.3 2.4 2.3c1 0 1.8-.5 2.3-1.3l1.4 1.3c-1 1.3-2.3 2-3.9 2c-2.7 0-4.5-1.9-4.5-4.9zm2.3-1h4.1c-.2-1.4-.9-2-2-2c-1.1 0-1.8.7-2.1 2z" stroke="none" fill="#cccccc"/></g></svg>