<?xml version="1.0" standalone="no"?><!DOCTYPE svg PUBLIC "-//W3C//DTD SVG 1.1//EN" "http://www.w3.org/Graphics/SVG/1.1/DTD/svg11.dtd"><svg xmlns="http://www.w3.org/2000/svg" version="1.1" width="366.5px" height="96.3px" viewBox="0 -5 366.5 96.3" style="top:-5px"><desc>스텝 06-2@3이미지</desc><defs/><g id="Polygon61132"><path d="m7.7 84.2C3.6 84.2.4 81 .4 76.9c0-4.1 3.2-7.3 7.3-7.3c4.1 0 7.3 3.2 7.3 7.3c0 4.1-3.2 7.3-7.3 7.3zm0-13.5c-3.5 0-6.2 2.7-6.2 6.2c0 3.5 2.7 6.2 6.2 6.2c3.6 0 6.2-2.7 6.2-6.2c0-3.5-2.6-6.2-6.2-6.2zm-3.5 9.6l1-.9c.5.6 1.2 1.2 2.4 1.2c1.2 0 2.1-.8 2.1-2c0-1.1-.8-1.9-1.9-1.9c-.9 0-1.4.3-1.9.8l-1-.4v-.4c.03.03.5-4.5.5-4.5h5.3v1.5h-4l-.2 2c.4-.2.8-.4 1.3-.4c2 0 3.5 1.1 3.5 3.3c0 2.1-1.4 3.4-3.7 3.4c-1.7 0-2.8-.9-3.4-1.7zm15.4-10.1h8.6v2h-6.3v3h5.4v2h-5.4v3.1h6.3v2.1h-8.6V70.2zm9.5 5.8h5.2v1.9h-5.2V76zm7-5.8h2.3v10.1h5.9v2.1h-8.2V70.2zm8.1 9.7l1.6-1.5c.7 1.1 1.8 2.1 3.7 2.1c1.5 0 2.3-.7 2.3-1.7c0-.7-.5-1.3-2-1.5l-1-.2c-2.2-.3-3.7-1.6-3.7-3.5c0-2 1.7-3.7 4.5-3.7c1.9 0 3.4.8 4.3 2l-1.5 1.5c-.8-.9-1.8-1.4-2.9-1.4c-1.2 0-1.9.7-1.9 1.4c0 .7.5 1.2 1.6 1.4l1 .2c2.5.3 4 1.6 4 3.7c0 2.3-1.9 4-4.7 4c-2.9 0-4.4-1.5-5.3-2.8zm11.4-9.7s4.95-.04 5 0c3.5 0 6 2.1 6 6.1c0 3.9-2.5 6.1-6 6.1h-5V70.2zm2.3 2v8.2s2.53-.03 2.5 0c2.3 0 3.8-1.5 3.8-4.1c0-2.7-1.5-4.1-3.8-4.1c.03-.01-2.5 0-2.5 0zm93.8 12c-4.1 0-7.3-3.2-7.3-7.3c0-4.1 3.2-7.3 7.3-7.3c4.1 0 7.3 3.2 7.3 7.3c0 4.1-3.2 7.3-7.3 7.3zm0-13.5c-3.5 0-6.2 2.7-6.2 6.2c0 3.5 2.7 6.2 6.2 6.2c3.6 0 6.2-2.7 6.2-6.2c0-3.5-2.6-6.2-6.2-6.2zm-3.9 6.4c0-3.3 1.7-5.2 4.3-5.2c1.5 0 2.6.7 3.2 1.6l-1.1.9c-.4-.7-1.2-1.1-2.1-1.1c-1.5 0-2.5 1.2-2.6 3c.4-.7 1.3-1.2 2.5-1.2c1.8 0 3.3 1.3 3.3 3.3c0 2-1.6 3.4-3.6 3.4c-2.6 0-3.9-1.9-3.9-4.7zm6 1.3c0-1-.8-1.9-2.1-1.9c-1.3 0-2 .9-2 1.9c0 1.1.7 2 2 2c1.3 0 2.1-.9 2.1-2zm9.8-8.2h8.6v2h-6.3v3h5.4v2h-5.4v3.1h6.3v2.1h-8.6V70.2zm9.2 6.1c0-3.7 2.6-6.4 6.2-6.4c2.5 0 4.4 1.2 5.5 3l-1.8 1.3c-.7-1.3-1.9-2.1-3.7-2.1c-2.3 0-3.8 1.8-3.8 4.2c0 2.4 1.5 4.2 3.8 4.2c1.8 0 3-.9 3.7-2.1l1.8 1.2c-1.1 1.9-3 3.1-5.5 3.1c-3.6 0-6.2-2.8-6.2-6.4zm11.8 3.6l1.5-1.5c.7 1.1 1.9 2.1 3.7 2.1c1.5 0 2.3-.7 2.3-1.7c0-.7-.5-1.3-1.9-1.5l-1.1-.2c-2.2-.3-3.6-1.6-3.6-3.5c0-2 1.7-3.7 4.4-3.7c1.9 0 3.4.8 4.3 2l-1.5 1.5c-.7-.9-1.8-1.4-2.9-1.4c-1.2 0-1.9.7-1.9 1.4c0 .7.5 1.2 1.6 1.4l1 .2c2.6.3 4 1.6 4 3.7c0 2.3-1.9 4-4.7 4c-2.8 0-4.4-1.5-5.2-2.8z" stroke="none" fill="#fff"/></g><g id="Polygon61131"><path d="m7.7 50.2C3.6 50.2.4 47 .4 42.9c0-4.1 3.2-7.3 7.3-7.3c4.1 0 7.3 3.2 7.3 7.3c0 4.1-3.2 7.3-7.3 7.3zm0-13.5c-3.5 0-6.2 2.7-6.2 6.2c0 3.5 2.7 6.2 6.2 6.2c3.6 0 6.2-2.7 6.2-6.2c0-3.5-2.6-6.2-6.2-6.2zm-3.5 9.5l1-1c.5.6 1.2 1.2 2.4 1.2c1.3 0 2.2-.6 2.2-1.6c0-.9-.7-1.5-2.2-1.5c.03.02-.8 0-.8 0V42s.83-.04.8 0c1.2 0 1.7-.7 1.7-1.4c0-.9-.8-1.3-1.7-1.3c-.9 0-1.6.4-1.9 1l-1-.9c.6-.8 1.6-1.5 3-1.5c1.9 0 3.2 1 3.2 2.6c0 .9-.5 1.6-1.3 2c1.2.4 1.8 1.3 1.8 2.4c0 1.8-1.6 2.9-3.8 2.9c-1.7 0-2.8-.9-3.4-1.6zm15.4-10h2.1l6.6 8.3v-8.3h2.4v12.2h-2.1L21.9 40v8.4h-2.3V36.2zm12.5 6.1c0-3.7 2.6-6.4 6.3-6.4c2.5 0 4.3 1.1 5.4 2.9l-1.7 1.3c-.8-1.2-1.9-2-3.7-2c-2.4 0-3.9 1.8-3.9 4.2c0 2.4 1.5 4.2 3.9 4.2c1.2 0 2.4-.3 3-.9c.04.05 0-2 0-2h-2.7v-2.1h5.1s-.02 5.35 0 5.4c-1.2.9-3.4 1.8-5.4 1.8c-3.7 0-6.3-2.8-6.3-6.4zm12.2 3.6l1.6-1.5c.7 1.1 1.9 2.1 3.7 2.1c1.5 0 2.3-.7 2.3-1.7c0-.7-.5-1.3-2-1.5l-1-.2c-2.2-.3-3.6-1.6-3.6-3.5c0-2 1.6-3.7 4.4-3.7c1.9 0 3.4.8 4.3 2l-1.5 1.5c-.8-.9-1.8-1.4-2.9-1.4c-1.2 0-1.9.7-1.9 1.4c0 .7.5 1.2 1.6 1.4l1 .2c2.5.3 4 1.6 4 3.7c0 2.3-1.9 4-4.7 4c-2.9 0-4.4-1.5-5.3-2.8zm107.4 4.3c-4.1 0-7.3-3.2-7.3-7.3c0-4.1 3.2-7.3 7.3-7.3c4.1 0 7.3 3.2 7.3 7.3c0 4.1-3.2 7.3-7.3 7.3zm0-13.5c-3.5 0-6.2 2.7-6.2 6.2c0 3.5 2.7 6.2 6.2 6.2c3.6 0 6.2-2.7 6.2-6.2c0-3.5-2.6-6.2-6.2-6.2zm-4.1 7.3l4.4-5.9h1.9v5.7h1.5v1.4h-1.5v2.5h-1.5v-2.5h-4.8V44zm4.8-.2V40l-2.9 3.8h2.9zm11.2-7.6h2.3v10.1h6v2.1h-8.3V36.2zm8.6 7.6c0-2.9 1.9-4.9 4.6-4.9c2.7 0 4.5 1.9 4.5 4.6c0 .3-.1.7-.1 1.1h-6.7c.2 1.2 1.1 2.1 2.7 2.1c1.1 0 2.1-.7 2.6-1.4l1.3 1.5c-.9 1-2.3 1.8-4 1.8c-3 0-4.9-2.1-4.9-4.8zm2.3-1.1h4.5c-.1-1.2-.9-1.9-2.2-1.9c-1.2 0-2 .7-2.3 1.9zM183 41h-1.5v-1.9h1.5v-.5c0-1.8 1-3.1 3.2-3.1h.9v1.9s-.4-.03-.4 0c-.9 0-1.4.3-1.4 1.2c-.03.01 0 .5 0 .5h1.8v1.9h-1.8v7.4H183V41zm5.6 3.9V41H187v-1.9h1.7v-2.3h2.2v2.3h2.1v1.9h-2.1s-.03 3.96 0 4c0 1.2.5 1.6 1.7 1.6c-.02-.04.4 0 .4 0c0 0 .01 1.8 0 1.8c-.3.1-.7.1-1 .1c-2.3 0-3.4-1.1-3.4-3.6zm5.3-2.9h5.3v1.9h-5.3V42zm7.3-1h-1.5v-1.9h1.5v-.5c0-1.8 1-3.1 3.2-3.1h.9v1.9s-.41-.03-.4 0c-.9 0-1.4.3-1.4 1.2c-.03.01 0 .5 0 .5h1.8v1.9h-1.8v7.4h-2.3V41zm4.2 2.8c0-2.6 1.7-4.9 4.9-4.9c3.2 0 4.9 2.3 4.9 4.9c0 2.5-1.7 4.9-4.9 4.9c-3.2 0-4.9-2.4-4.9-4.9zm2.3 0c0 1.7 1.1 2.8 2.6 2.8c1.5 0 2.6-1.1 2.6-2.8c0-1.7-1.1-2.9-2.6-2.9c-1.5 0-2.6 1.2-2.6 2.9zm8.1 0c0-2.6 1.7-4.9 4.9-4.9c3.2 0 4.9 2.3 4.9 4.9c0 2.5-1.7 4.9-4.9 4.9c-3.2 0-4.9-2.4-4.9-4.9zm2.3 0c0 1.7 1.1 2.8 2.6 2.8c1.5 0 2.6-1.1 2.6-2.8c0-1.7-1.1-2.9-2.6-2.9c-1.5 0-2.6 1.2-2.6 2.9zm9.1 1.1V41h-1.6v-1.9h1.7v-2.3h2.2v2.3h2.1v1.9h-2.1s-.02 3.96 0 4c0 1.2.5 1.6 1.7 1.6c-.01-.04.4 0 .4 0c0 0 .02 1.8 0 1.8c-.3.1-.7.1-1 .1c-2.3 0-3.4-1.1-3.4-3.6zm9-8.7s5.05-.04 5.1 0c2.4 0 3.9 1.2 3.9 3.2c0 1-.5 1.9-1.4 2.5c1.4.4 2.4 1.4 2.4 3c0 2.2-1.6 3.5-4.4 3.5h-5.6V36.2zm5.5 10.3c1.4 0 2.1-.7 2.1-1.7c0-1-.7-1.7-2.1-1.7c-.02.04-3.2 0-3.2 0v3.4s3.18-.04 3.2 0zm-.8-5.3c1.4 0 1.9-.6 1.9-1.5c0-1-.5-1.6-1.9-1.6h-2.4v3.1h2.4zm6.3-2.1h2.3s.03 1.47 0 1.5c.6-1 1.5-1.7 2.7-1.7h.3s-.03 2.19 0 2.2c-1.4 0-2.5.4-3 1.8c.03-.01 0 5.5 0 5.5h-2.3v-9.3zm12.5 8.2c-.6.8-1.7 1.3-2.9 1.3c-2.5 0-4.4-1.9-4.4-4.8c0-3 1.9-4.9 4.4-4.9c1.2 0 2.3.5 2.9 1.3c.04.01 0-1.1 0-1.1h2.3v9.3h-2.3s.04-1.06 0-1.1zm0-2.1v-2.8c-.4-.9-1.3-1.5-2.4-1.5c-1.4 0-2.6 1.1-2.6 2.9c0 1.8 1.2 2.8 2.6 2.8c1.1 0 2-.5 2.4-1.4zm4-9.6h2.2v7.5l3.6-4h2.6v.1l-3.5 3.9l3.9 5.2v.1h-2.7l-2.6-3.7l-1.3 1.3v2.4h-2.2V35.6zm9.2 3.5h2.3v9.3h-2.3v-9.3zm-.1-3.9h2.4v2.4h-2.4v-2.4zm4 3.9h2.3v1.3c.5-.8 1.5-1.5 2.9-1.5c2.4 0 3.5 1.7 3.5 4c.05.05 0 5.5 0 5.5h-2.2s-.04-5.2 0-5.2c0-1.5-.7-2.3-2.1-2.3c-1.1 0-1.9.8-2.1 1.7v5.8h-2.3v-9.3zm9.8 4.2c0-2.6 1.6-4.4 4.2-4.4c1.2 0 2.1.5 2.8 1.3v-1.1h2.3s-.02 7.72 0 7.7c0 3.4-2.4 4.9-4.9 4.9c-2.2 0-3.6-.8-4.3-1.8l1.4-1.5c.6.8 1.4 1.4 2.8 1.4c1.3 0 2.7-.8 2.7-2.8v-.5c-.7.7-1.6 1.3-2.8 1.3c-2.6 0-4.2-1.8-4.2-4.5zm7 1.2v-2.3c-.4-.8-1.2-1.3-2.3-1.3c-1.5 0-2.4 1-2.4 2.4c0 1.5.9 2.5 2.4 2.5c1.1 0 1.9-.5 2.3-1.3z" stroke="none" fill="#fff"/></g><g id="Polygon61130"><path d="m7.7 16.2C3.6 16.2.4 13 .4 8.9c0-4.1 3.2-7.3 7.3-7.3c4.1 0 7.3 3.2 7.3 7.3c0 4.1-3.2 7.3-7.3 7.3zm0-13.5c-3.5 0-6.2 2.7-6.2 6.2c0 3.5 2.7 6.2 6.2 6.2c3.6 0 6.2-2.7 6.2-6.2c0-3.5-2.6-6.2-6.2-6.2zm-.4 3.2L5.3 7l-.6-1.3l2.9-1.6h1.3v9.6H7.3V5.9zm16.6 3.6h-2v4.9h-2.3V2.2s5.44-.04 5.4 0c2.4 0 4.1 1.3 4.1 3.6c0 1.8-1.1 3.1-2.7 3.5c.01-.01 4 5 4 5v.1h-2.8l-3.7-4.9zm.9-2.1c1.2 0 1.9-.6 1.9-1.6c0-1-.7-1.6-1.9-1.6h-2.9v3.2s2.89.02 2.9 0zm5.5 2.4c0-2.9 2-4.9 4.7-4.9c2.7 0 4.5 1.9 4.5 4.6c0 .3-.1.7-.2 1.1h-6.7c.3 1.2 1.1 2.1 2.7 2.1c1.2 0 2.1-.7 2.7-1.4l1.2 1.5c-.8 1-2.2 1.8-4 1.8c-3 0-4.9-2.1-4.9-4.8zm2.4-1.1h4.5c-.1-1.2-1-1.9-2.2-1.9c-1.2 0-2 .7-2.3 1.9zm6.5-3.6h2.5l2.4 6.5l2.5-6.5h2.4l-3.7 9.3H43l-3.8-9.3zm14-2.9h3.2l3.6 9.2l3.7-9.2h3.1v12.2h-2.3V5.7l-3.4 8.7H59l-3.4-8.7v8.7h-2.4V2.2zm22.3 11.1c-.7.8-1.7 1.3-2.9 1.3c-2.5 0-4.4-1.9-4.4-4.8c0-3 1.9-4.9 4.4-4.9c1.2 0 2.2.5 2.9 1.3c.03.01 0-1.1 0-1.1h2.3v9.3h-2.3s.03-1.06 0-1.1zm0-2.1V8.4c-.4-.9-1.3-1.5-2.4-1.5c-1.5 0-2.6 1.1-2.6 2.9c0 1.8 1.1 2.8 2.6 2.8c1.1 0 2-.5 2.4-1.4zm4.6-.3c.03-.05 0-3.9 0-3.9h-1.5V5.1h1.6V2.8h2.2v2.3h2.2v1.9h-2.2s.02 3.96 0 4c0 1.2.6 1.6 1.7 1.6c.03-.04.5 0 .5 0c0 0-.04 1.8 0 1.8c-.3.1-.7.1-1.1.1c-2.2 0-3.4-1.1-3.4-3.6zm4.8-1.1c0-2.6 1.8-4.9 4.8-4.9c1.9 0 3.3.9 4.2 2.3l-1.7 1.3c-.5-.9-1.2-1.6-2.3-1.6c-1.6 0-2.7 1.1-2.7 2.9c0 1.7 1.1 2.8 2.7 2.8c1.1 0 1.8-.6 2.3-1.5l1.7 1.2c-.9 1.5-2.3 2.3-4.2 2.3c-3 0-4.8-2.3-4.8-4.8zm9.9-8.2h2.3s-.03 4.83 0 4.8c.5-.8 1.5-1.5 2.9-1.5c2.4 0 3.5 1.7 3.5 4c.03.05 0 5.5 0 5.5h-2.3s.05-5.2 0-5.2c0-1.5-.7-2.3-2-2.3c-1.2 0-1.9.9-2.1 1.7c-.03-.03 0 5.8 0 5.8h-2.3V1.6zm56.9 14.6c-4.1 0-7.3-3.2-7.3-7.3c0-4.1 3.2-7.3 7.3-7.3c4.1 0 7.3 3.2 7.3 7.3c0 4.1-3.2 7.3-7.3 7.3zm0-13.5c-3.5 0-6.2 2.7-6.2 6.2c0 3.5 2.7 6.2 6.2 6.2c3.6 0 6.2-2.7 6.2-6.2c0-3.5-2.6-6.2-6.2-6.2zm-3.2 9.6c1.2-2.3 4.9-3.3 4.9-5.4c0-1-.6-1.6-1.7-1.6c-.9 0-1.5.5-1.8 1.4l-1.3-.7c.3-1 1.3-2.1 3.1-2.1c2.1 0 3.3 1.2 3.3 2.9c0 2.8-3.5 3.9-4.4 5.3c.04-.02 4.5 0 4.5 0v1.3h-6.6s.04-1.12 0-1.1zm15.1-10.1h2.3v10.1h6v2.1h-8.3V2.2zm15.7 11.1c-.7.8-1.7 1.3-2.9 1.3c-2.6 0-4.5-1.9-4.5-4.8c0-3 1.9-4.9 4.5-4.9c1.2 0 2.2.5 2.9 1.3c-.04.01 0-1.1 0-1.1h2.2v9.3h-2.2s-.04-1.06 0-1.1zm0-2.1V8.4c-.5-.9-1.4-1.5-2.4-1.5c-1.5 0-2.7 1.1-2.7 2.9c0 1.8 1.2 2.8 2.7 2.8c1 0 1.9-.5 2.4-1.4zm12.5 3.2h-2.3s.04-1.3 0-1.3c-.5.8-1.5 1.5-2.9 1.5c-2.4 0-3.5-1.6-3.5-4c-.02-.02 0-5.5 0-5.5h2.3s-.04 5.23 0 5.2c0 1.5.7 2.3 2 2.3c1.1 0 1.9-.8 2.1-1.6c.04-.04 0-5.9 0-5.9h2.3v9.3zm1.6-9.3h2.3s.03 1.33 0 1.3c.5-.8 1.5-1.5 3-1.5c2.4 0 3.5 1.7 3.5 4v5.5h-2.3V9.2c0-1.5-.7-2.3-2-2.3c-1.2 0-1.9.8-2.2 1.7c.03-.03 0 5.8 0 5.8h-2.3V5.1zm9.8 4.7c0-2.6 1.7-4.9 4.8-4.9c1.9 0 3.2.9 4.1 2.3l-1.6 1.3c-.5-.9-1.3-1.6-2.4-1.6c-1.6 0-2.6 1.1-2.6 2.9c0 1.7 1 2.8 2.6 2.8c1.1 0 1.9-.6 2.4-1.5l1.6 1.2c-.9 1.5-2.2 2.3-4.1 2.3c-3.1 0-4.8-2.3-4.8-4.8zm9.9-8.2h2.3s-.05 4.83 0 4.8c.5-.8 1.4-1.5 2.9-1.5c2.4 0 3.5 1.7 3.5 4v5.5h-2.3s.03-5.2 0-5.2c0-1.5-.7-2.3-2-2.3c-1.2 0-2 .9-2.1 1.7c-.05-.03 0 5.8 0 5.8h-2.3V1.6zm13.1 6.7c0-3.7 2.6-6.4 6.2-6.4c2.6 0 4.5 1.2 5.5 3l-1.7 1.3c-.8-1.3-1.9-2.1-3.7-2.1c-2.4 0-3.9 1.8-3.9 4.2c0 2.4 1.5 4.2 3.9 4.2c1.8 0 2.9-.9 3.7-2.1l1.7 1.2c-1 1.9-2.9 3.1-5.5 3.1c-3.6 0-6.2-2.8-6.2-6.4zm12.1 1.5c0-2.6 1.7-4.9 4.9-4.9c3.3 0 4.9 2.3 4.9 4.9c0 2.5-1.6 4.9-4.9 4.9c-3.2 0-4.9-2.4-4.9-4.9zm2.3 0c0 1.7 1.1 2.8 2.6 2.8c1.5 0 2.6-1.1 2.6-2.8c0-1.7-1.1-2.9-2.6-2.9c-1.5 0-2.6 1.2-2.6 2.9zm8.6-4.7h2.3s.03 1.33 0 1.3c.5-.8 1.5-1.5 3-1.5c2.4 0 3.5 1.7 3.5 4v5.5h-2.3V9.2c0-1.5-.7-2.3-2-2.3c-1.2 0-1.9.8-2.2 1.7c.03-.03 0 5.8 0 5.8h-2.3V5.1zm11 5.8V7h-1.6V5.1h1.7V2.8h2.2v2.3h2.1v1.9h-2.1s-.03 3.96 0 4c0 1.2.5 1.6 1.7 1.6c-.02-.04.4 0 .4 0c0 0 .02 1.8 0 1.8c-.3.1-.7.1-1 .1c-2.3 0-3.4-1.1-3.4-3.6zm5.4-5.8h2.3v1.5c.5-1 1.4-1.7 2.7-1.7h.2s.03 2.19 0 2.2c-1.3 0-2.5.4-2.9 1.8v5.5h-2.3V5.1zm5.4 4.7c0-2.6 1.7-4.9 5-4.9c3.2 0 4.9 2.3 4.9 4.9c0 2.5-1.7 4.9-4.9 4.9c-3.3 0-5-2.4-5-4.9zm2.4 0c0 1.7 1.1 2.8 2.6 2.8c1.4 0 2.5-1.1 2.5-2.8c0-1.7-1.1-2.9-2.5-2.9c-1.5 0-2.6 1.2-2.6 2.9zm8.6-8.2h2.3v12.8H282V1.6z" stroke="none" fill="#fff"/></g></svg>