<?xml version="1.0" standalone="no"?><!DOCTYPE svg PUBLIC "-//W3C//DTD SVG 1.1//EN" "http://www.w3.org/Graphics/SVG/1.1/DTD/svg11.dtd"><svg xmlns="http://www.w3.org/2000/svg" version="1.1" width="434px" height="74.1px" viewBox="0 -5 434 74.1" style="top:-5px"><desc>스텝 05-1@2타이틀</desc><defs/><g id="Polygon60178"><path d="m1.3 26.2h8.5v2H3.7v3.1h5.4v2H3.7v5.1H1.3V26.2zm8.6 7.6c0-2.9 2-4.9 4.7-4.9c2.7 0 4.5 1.9 4.5 4.6c0 .3-.1.7-.1 1.1h-6.8c.3 1.2 1.1 2.1 2.7 2.1c1.2 0 2.1-.7 2.7-1.4l1.2 1.5c-.8 1-2.2 1.8-4 1.8c-3 0-4.9-2.1-4.9-4.8zm2.4-1.1h4.5c-.1-1.2-1-1.9-2.2-1.9c-1.2 0-2 .7-2.3 1.9zM27 37.3c-.7.8-1.7 1.3-2.9 1.3c-2.6 0-4.5-1.9-4.5-4.8c0-3 1.9-4.9 4.5-4.9c1.2 0 2.2.5 2.9 1.3v-1.1h2.3v9.3H27v-1.1zm0-2.1v-2.8c-.4-.9-1.4-1.5-2.4-1.5c-1.5 0-2.6 1.1-2.6 2.9c0 1.8 1.1 2.8 2.6 2.8c1 0 2-.5 2.4-1.4zm4.6-.3V31h-1.5v-1.9h1.6v-2.3h2.2v2.3h2.1v1.9h-2.1v4c0 1.2.6 1.6 1.7 1.6c0-.04.4 0 .4 0c0 0 .04 1.8 0 1.8c-.3.1-.6.1-1 .1c-2.2 0-3.4-1.1-3.4-3.6zm14.1 3.5h-2.3s-.02-1.3 0-1.3c-.5.8-1.5 1.5-3 1.5c-2.4 0-3.5-1.6-3.5-4c.02-.02 0-5.5 0-5.5h2.3v5.2c0 1.5.7 2.3 2.1 2.3c1.1 0 1.8-.8 2.1-1.6c-.02-.04 0-5.9 0-5.9h2.3v9.3zm1.6-9.3h2.3s-.03 1.47 0 1.5c.5-1 1.4-1.7 2.6-1.7h.3s.01 2.19 0 2.2c-1.4 0-2.5.4-2.9 1.8c-.03-.01 0 5.5 0 5.5h-2.3v-9.3zm5.4 4.7c0-2.9 2-4.9 4.7-4.9c2.7 0 4.5 1.9 4.5 4.6c0 .3-.1.7-.1 1.1H55c.3 1.2 1.1 2.1 2.7 2.1c1.2 0 2.1-.7 2.7-1.4l1.2 1.5c-.8 1-2.2 1.8-4 1.8c-3 0-4.9-2.1-4.9-4.8zm2.4-1.1h4.5c-.1-1.2-1-1.9-2.2-1.9c-1.2 0-2 .7-2.3 1.9zm7.1 4.1l1.2-1.4c.6.8 1.7 1.4 2.7 1.4c1 0 1.7-.4 1.7-1.1c0-.6-.5-.9-1.4-1l-.8-.1c-1.8-.3-2.8-1.3-2.8-2.8c0-1.6 1.4-2.9 3.7-2.9c1.4 0 2.6.6 3.2 1.4l-1.2 1.5c-.6-.7-1.3-1-2.1-1c-.9 0-1.3.4-1.3.9c0 .5.3.7 1 .8l.8.1c2.2.4 3.2 1.4 3.2 3c0 1.6-1.4 3.1-4 3.1c-1.8 0-3.1-.9-3.9-1.9z" stroke="none" fill="#fff"/></g><g id="Polygon60177"><path d="m1.3 2.2s4.98-.04 5 0c3.5 0 6.1 2.1 6.1 6.1c0 3.9-2.6 6.1-6.1 6.1h-5V2.2zm2.4 2v8.2s2.46-.03 2.5 0c2.3 0 3.8-1.5 3.8-4.1c0-2.7-1.5-4.1-3.8-4.1c-.04-.01-2.5 0-2.5 0zm9.9.9h2.3s-.04 1.47 0 1.5c.5-1 1.4-1.7 2.6-1.7h.3s-.01 2.19 0 2.2c-1.4 0-2.5.4-2.9 1.8c-.04-.01 0 5.5 0 5.5h-2.3V5.1zm5.9 0h2.3v9.3h-2.3V5.1zm0-3.9h2.3v2.4h-2.3V1.2zm2.9 3.9h2.5l2.5 6.5l2.4-6.5h2.5l-3.8 9.3h-2.3l-3.8-9.3zm10.5 0h2.3v9.3h-2.3V5.1zm-.1-3.9h2.4v2.4h-2.4V1.2zm4 3.9h2.3v1.3c.5-.8 1.5-1.5 2.9-1.5c2.4 0 3.6 1.7 3.6 4c-.04.05 0 5.5 0 5.5h-2.3s-.03-5.2 0-5.2c0-1.5-.7-2.3-2.1-2.3c-1.1 0-1.9.8-2.1 1.7v5.8h-2.3V5.1zm9.8 4.2c0-2.6 1.6-4.4 4.2-4.4c1.2 0 2.2.5 2.8 1.3V5.1h2.3v7.7c0 3.4-2.4 4.9-4.9 4.9c-2.2 0-3.6-.8-4.3-1.8l1.4-1.5c.6.8 1.4 1.4 2.8 1.4c1.4 0 2.7-.8 2.7-2.8v-.5c-.6.7-1.6 1.3-2.8 1.3c-2.6 0-4.2-1.8-4.2-4.5zm7 1.2V8.2c-.4-.8-1.2-1.3-2.2-1.3c-1.6 0-2.5 1-2.5 2.4c0 1.5.9 2.5 2.5 2.5c1 0 1.8-.5 2.2-1.3zm6.4 1.4l1.5-1.5c.7 1.1 1.9 2.1 3.7 2.1c1.5 0 2.3-.7 2.3-1.7c0-.7-.5-1.3-1.9-1.5l-1.1-.2c-2.2-.3-3.6-1.6-3.6-3.5c0-2 1.7-3.7 4.4-3.7c1.9 0 3.4.8 4.3 2l-1.5 1.5c-.7-.9-1.8-1.4-2.9-1.4c-1.2 0-1.9.7-1.9 1.4c0 .7.5 1.2 1.6 1.4L66 7c2.5.3 3.9 1.6 3.9 3.7c0 2.3-1.9 4-4.7 4c-2.8 0-4.4-1.5-5.2-2.8zm17.9 1.4c-.6.8-1.7 1.3-2.9 1.3c-2.5 0-4.4-1.9-4.4-4.8c0-3 1.9-4.9 4.4-4.9c1.2 0 2.3.5 2.9 1.3c.04.01 0-1.1 0-1.1h2.3v9.3h-2.3s.04-1.06 0-1.1zm0-2.1V8.4c-.4-.9-1.3-1.5-2.4-1.5c-1.4 0-2.6 1.1-2.6 2.9c0 1.8 1.2 2.8 2.6 2.8c1.1 0 2-.5 2.4-1.4zM82.6 7h-1.4V5.1h1.4s.04-.51 0-.5c0-1.8 1.1-3.1 3.3-3.1h.8c.04.01 0 1.9 0 1.9c0 0-.36-.03-.4 0c-.8 0-1.4.3-1.4 1.2c.02.01 0 .5 0 .5h1.8v1.9h-1.8v7.4h-2.3V7zm4.2 2.8c0-2.9 2-4.9 4.7-4.9c2.7 0 4.5 1.9 4.5 4.6c0 .3-.1.7-.2 1.1h-6.7c.3 1.2 1.1 2.1 2.7 2.1c1.2 0 2.1-.7 2.7-1.4l1.2 1.5c-.8 1-2.2 1.8-4 1.8c-3 0-4.9-2.1-4.9-4.8zm2.4-1.1h4.5c-.1-1.2-1-1.9-2.2-1.9c-1.2 0-2 .7-2.3 1.9zm8.3 2.2c.04-.05 0-3.9 0-3.9H96V5.1h1.6V2.8h2.2v2.3h2.2v1.9h-2.2s.03 3.96 0 4c0 1.2.6 1.6 1.7 1.6c.04-.04.5 0 .5 0c0 0-.03 1.8 0 1.8c-.3.1-.7.1-1.1.1c-2.2 0-3.4-1.1-3.4-3.6zm8.2 2.3L102 5.1h2.4l2.5 5.6l2.3-5.6h2.4l-5.4 12.4h-2.5l2-4.3z" stroke="none" fill="#fff"/></g></svg>