<?xml version="1.0" standalone="no"?><!DOCTYPE svg PUBLIC "-//W3C//DTD SVG 1.1//EN" "http://www.w3.org/Graphics/SVG/1.1/DTD/svg11.dtd"><svg xmlns="http://www.w3.org/2000/svg" version="1.1" width="208px" height="30.5px" viewBox="0 -5 208 30.5" style="top:-5px"><desc>스텝 01@피니쉬A</desc><defs/><g id="Polygon61706"><path d="m3.1 2.4h2.6v11.3h6.6v2.3H3.1V2.4zm9.5 8.5c0-3.2 2.2-5.4 5.2-5.4c3 0 5 2 5 5c0 .3-.1.8-.2 1.2h-7.4c.2 1.4 1.2 2.4 3 2.4c1.2 0 2.3-.7 2.9-1.6l1.4 1.7c-1 1.2-2.5 2.1-4.4 2.1c-3.4 0-5.5-2.4-5.5-5.4zm2.6-1.2h5c-.1-1.4-1-2.1-2.4-2.1c-1.3 0-2.2.7-2.6 2.1zm16.4 5.1c-.8.9-1.9 1.4-3.2 1.4c-2.9 0-5-2.1-5-5.3c0-3.3 2.1-5.4 5-5.4c1.3 0 2.4.5 3.2 1.4V5.7h2.5V16h-2.5v-1.2zm0-2.4V9.3c-.5-1-1.5-1.6-2.7-1.6c-1.6 0-2.9 1.2-2.9 3.2c0 1.9 1.3 3.1 2.9 3.1c1.2 0 2.2-.6 2.7-1.6zm3.2-6.7h2.7l2.8 7.2L43 5.7h2.7L41.5 16H39L34.8 5.7zm11.6 0h2.6V16h-2.6V5.7zm0-4.4h2.6v2.7h-2.6V1.3zm4.4 4.4h2.5s.03 1.44 0 1.4c.6-.9 1.7-1.6 3.3-1.6c2.7 0 3.9 1.8 3.9 4.4c.01.04 0 6.1 0 6.1H58s-.03-5.78 0-5.8c0-1.6-.8-2.5-2.3-2.5c-1.3 0-2.1.9-2.4 1.8c.03.02 0 6.5 0 6.5h-2.5V5.7zm10.8 4.7c0-3 1.8-4.9 4.7-4.9c1.3 0 2.4.5 3.1 1.4c.05 0 0-1.2 0-1.2h2.6s-.01 8.54 0 8.5c0 3.8-2.6 5.5-5.4 5.5c-2.5 0-4-1-4.8-2.1l1.6-1.6c.6.9 1.5 1.5 3.1 1.5c1.4 0 2.9-.8 2.9-3.1v-.5c-.7.8-1.8 1.4-3.1 1.4c-2.9 0-4.7-2-4.7-4.9zm7.8 1.2V9.1c-.4-.9-1.3-1.5-2.5-1.5c-1.6 0-2.7 1.1-2.7 2.8c0 1.6 1.1 2.7 2.7 2.7c1.2 0 2.1-.5 2.5-1.5zm8.8.5c.01-.04 0-4.4 0-4.4h-1.7v-2h1.8V3.1h2.4v2.6h2.4v2h-2.4s.05 4.48 0 4.5c0 1.3.7 1.8 1.9 1.8c.05-.04.5 0 .5 0c0 0 .03 2 0 2c-.3.1-.7.1-1.1.1c-2.5 0-3.8-1.2-3.8-4zm6-10.3h2.6s-.03 5.34 0 5.3c.5-.9 1.6-1.6 3.2-1.6c2.7 0 3.9 1.8 3.9 4.4c.05.04 0 6.1 0 6.1h-2.5v-5.8c0-1.6-.8-2.5-2.3-2.5c-1.3 0-2.1 1-2.3 1.8c-.03.02 0 6.5 0 6.5h-2.6V1.8zm10.9 9.1c0-3.2 2.1-5.4 5.1-5.4c3 0 5 2 5 5c0 .3-.1.8-.1 1.2h-7.5c.3 1.4 1.2 2.4 3 2.4c1.3 0 2.3-.7 2.9-1.6l1.4 1.7c-.9 1.2-2.4 2.1-4.4 2.1c-3.3 0-5.4-2.4-5.4-5.4zm2.6-1.2h5c-.2-1.4-1.1-2.1-2.5-2.1c-1.3 0-2.2.7-2.5 2.1zm11.5 4.6l1.4-1.6c.7.8 1.8 1.5 3.1 1.5c1.1 0 1.8-.4 1.8-1.2c0-.7-.6-1-1.6-1.1l-.9-.2c-1.9-.3-3.1-1.3-3.1-3c0-1.8 1.6-3.2 4.1-3.2c1.7 0 2.9.6 3.7 1.5l-1.4 1.6c-.6-.7-1.4-1.1-2.4-1.1c-.9 0-1.4.5-1.4 1c0 .6.4.8 1.1 1l.9.1c2.4.4 3.6 1.5 3.6 3.3c0 1.8-1.6 3.4-4.5 3.4c-2 0-3.4-.9-4.4-2zm10-12.5h2.6v5.3c.5-.9 1.6-1.6 3.2-1.6c2.7 0 4 1.8 4 4.4c-.03.04 0 6.1 0 6.1h-2.6s.03-5.78 0-5.8c0-1.6-.8-2.5-2.3-2.5c-1.3 0-2.1 1-2.3 1.8v6.5h-2.6V1.8zm10.9 9.1c0-2.9 1.8-5.4 5.4-5.4c3.6 0 5.5 2.5 5.5 5.4c0 2.8-1.9 5.4-5.5 5.4c-3.6 0-5.4-2.6-5.4-5.4zm2.5 0c0 1.9 1.3 3.1 2.9 3.1c1.7 0 2.9-1.2 2.9-3.1c0-1.9-1.2-3.2-2.9-3.2c-1.6 0-2.9 1.3-2.9 3.2zm8.3-5.2h2.7l2.1 6.9l2.3-6.9h2.7l2.4 6.9l2-6.9h2.7L154.5 16h-2.6l-2.5-7.2l-2.6 7.2h-2.5l-3.4-10.3zm17.6 0h2.6s-.03 1.6 0 1.6c.6-1.1 1.6-1.8 2.9-1.8c.03-.04.3 0 .3 0c0 0 .03 2.38 0 2.4c-1.5 0-2.7.4-3.2 2c-.03-.02 0 6.1 0 6.1h-2.6V5.7zm6.1 5.2c0-2.9 1.8-5.4 5.4-5.4c3.6 0 5.5 2.5 5.5 5.4c0 2.8-1.9 5.4-5.5 5.4c-3.6 0-5.4-2.6-5.4-5.4zm2.5 0c0 1.9 1.3 3.1 2.9 3.1c1.7 0 2.9-1.2 2.9-3.1c0-1.9-1.2-3.2-2.9-3.2c-1.6 0-2.9 1.3-2.9 3.2zm9 0c0-2.9 1.9-5.4 5.5-5.4c3.6 0 5.4 2.5 5.4 5.4c0 2.8-1.8 5.4-5.4 5.4c-3.6 0-5.5-2.6-5.5-5.4zm2.6 0c0 1.9 1.2 3.1 2.9 3.1c1.6 0 2.9-1.2 2.9-3.1c0-1.9-1.3-3.2-2.9-3.2c-1.7 0-2.9 1.3-2.9 3.2zm23.6-.7c0-1.6-.7-2.5-2.2-2.5c-1.3 0-2 .9-2.3 1.8c.03.02 0 6.5 0 6.5h-2.5v-5.8c0-1.6-.7-2.5-2.2-2.5c-1.3 0-2 .9-2.3 1.8v6.5h-2.5V5.7h2.5v1.4c.6-.9 1.6-1.6 3.2-1.6c1.7 0 2.8.7 3.3 1.9c.8-1.2 1.9-1.9 3.7-1.9c2.7 0 3.8 1.8 3.8 4.4c.05.04 0 6.1 0 6.1h-2.5v-5.8z" stroke="none" fill="#fff"/></g></svg>