<?xml version="1.0" standalone="no"?><!DOCTYPE svg PUBLIC "-//W3C//DTD SVG 1.1//EN" "http://www.w3.org/Graphics/SVG/1.1/DTD/svg11.dtd"><svg xmlns="http://www.w3.org/2000/svg" version="1.1" width="232px" height="124.3px" viewBox="0 -2 232 124.3" style="top:-2px"><desc>사회공헌 임팩트 확산 고객경험 혁신 제품 신뢰성 향상 지속가능한 공급망 구축 미래 일자리 창출</desc><defs/><g id="Polygon110960"><path d="m6.8 74.5h.8v9.2h-.8v-9.2zm-6.2.9h4.3v6H.6v-6zm3.4.7H1.5v4.6h2.5v-4.6zm12.3-1.6h.8v9.2h-.8v-4.9H15v4.4h-.8v-8.5h.8v3.5h1.3v-3.7zm-5.9 4.3v2c.5 0 1 0 1.5-.1c.5 0 1.1 0 1.7-.2v.7c-.6.2-1.2.2-1.7.3H9.6v-3.4h2.6v-1.9H9.6v-.7h3.4v3.3h-2.6zm17.7-4.3v4.7h-.9v-4.7h.9zm-2.6 2.4c0 .3-.1.6-.2.8c-.1.3-.3.5-.5.7c-.2.1-.4.3-.7.4c-.3.1-.6.1-1 .1c-.3 0-.6 0-.9-.1c-.3-.1-.6-.3-.8-.4c-.2-.2-.3-.4-.4-.7c-.2-.2-.2-.5-.2-.8c0-.3 0-.6.2-.8c.1-.3.2-.5.4-.7c.2-.1.5-.3.8-.4c.3-.1.6-.1.9-.1c.4 0 .7 0 1 .1c.3.1.5.3.7.4c.2.2.4.4.5.7c.1.2.2.5.2.8zm-3.9 0c0 .2 0 .4.1.5c.1.2.2.4.3.5c.2.1.3.2.5.3c.2 0 .4.1.6.1c.3 0 .5-.1.7-.1c.1-.1.3-.2.4-.3c.2-.1.3-.3.4-.5c0-.1.1-.3.1-.5c0-.2-.1-.4-.1-.5c-.1-.2-.2-.3-.4-.5c-.1-.1-.3-.2-.4-.2c-.2-.1-.4-.1-.7-.1c-.2 0-.4 0-.6.1c-.2 0-.3.1-.5.2c-.1.2-.2.3-.3.5c-.1.1-.1.3-.1.5zm1.4 6h5.4v.7h-6.2v-2.3h5v-1h-5.1v-.6h6v2.2H23v1zm15.3-4.7v.7h-1.5v4.8h-.9v-9.1h.9v3.6h1.5zm-5.5-2s.02 1.14 0 1.1c0 .4.1.8.2 1.1c.1.4.3.8.5 1.1c.2.3.5.6.8.9c.2.3.6.5.9.6l-.5.7c-.5-.2-1-.6-1.4-1.1c-.4-.5-.7-1.1-.9-1.7c-.1.3-.2.7-.4 1c-.1.3-.3.6-.5.8c-.2.3-.4.5-.7.7c-.2.2-.5.4-.7.5l-.5-.6c.3-.2.6-.4.9-.7c.3-.3.6-.6.8-1c.2-.3.4-.7.5-1.1c.1-.4.2-.8.2-1.2c-.01.04 0-1.1 0-1.1h-2.1v-.7h5v.7h-2.1zm12.8-1.7h.8v9.2h-.8v-9.2zm-5.3 4.2v2.1c.7 0 1.5 0 2.2-.1c.7 0 1.4-.1 2.2-.2l.1.7c-.4 0-.8.1-1.2.1c-.4.1-.7.1-1.1.1c-.4 0-.8.1-1.1.1h-1.9V78h3.3v-1.9h-3.4v-.7h4.3v3.3h-3.4zm15.2.3l-.4.7c-.5-.2-.9-.4-1.3-.7c-.4-.4-.7-.7-.9-1.2c-.2.5-.5.9-.9 1.3c-.4.4-.9.6-1.4.8l-.4-.6c.3-.1.6-.3.9-.5c.3-.2.5-.4.7-.6c.2-.3.4-.5.5-.8c.1-.3.2-.6.2-.9c-.03.01 0-.2 0-.2h-2.1v-.6h2.1v-1.2h.8v1.2h2v.6h-2v.2c0 .3.1.6.2.8c.1.3.2.5.4.7c.2.3.4.5.7.6c.3.2.6.3.9.4zm1.8-2.1h1.3v.7h-1.3v2.6h-.9v-5.7h.9v2.4zm-2.9 3.5c.9 0 1.6.1 2.2.4c.5.3.8.7.8 1.2c0 .6-.3 1-.8 1.2c-.6.3-1.3.5-2.2.5c-1 0-1.7-.2-2.3-.5c-.5-.2-.7-.6-.7-1.2c0-.5.2-.9.7-1.2c.6-.3 1.3-.4 2.3-.4zm0 2.6c.7 0 1.2-.1 1.6-.2c.4-.2.5-.4.5-.8c0-.3-.1-.5-.5-.7c-.4-.2-.9-.3-1.6-.3c-.7 0-1.3.1-1.6.3c-.4.2-.6.4-.6.7c0 .4.2.6.6.8c.3.1.9.2 1.6.2zm5.6-4.8l-.2-.6c.4-.1.8-.1 1.2-.2c.4-.1.7-.2 1-.3c.3-.2.5-.3.7-.5c.2-.2.3-.4.3-.6c.03-.02-2.8 0-2.8 0v-.7h2.9v-.8h.8v.8h2.9v.7s-2.83-.02-2.8 0c0 .2.1.4.3.6c.2.2.4.3.7.5c.3.1.6.2 1 .3c.4.1.8.1 1.2.2l-.3.6c-.3 0-.7-.1-1.1-.2c-.3 0-.6-.1-.9-.3c-.3-.1-.6-.2-.8-.4c-.3-.1-.5-.3-.6-.5c-.1.2-.3.4-.6.5c-.2.2-.5.3-.8.4c-.3.2-.6.3-.9.3c-.4.1-.8.2-1.2.2zm7.6 1h-3.7v.9h2.7v2h-5.4v.9h5.6v.6h-6.4v-2.1h5.3v-.8h-5.3v-.6h2.7v-.9h-3.7v-.6h8.2v.6z" stroke="none" fill="#fff"/></g><g id="Polygon110959"><path d="m6.4 56.1h.8v9.1h-.8v-9.1zM3 57.7s.02 1.14 0 1.1c0 .4.1.8.2 1.2c.1.4.3.7.5 1.1c.3.3.5.6.8.8c.3.3.6.5 1 .6l-.5.7c-.5-.2-1-.6-1.4-1.1c-.5-.5-.8-1.1-1-1.7c-.1.3-.2.7-.4 1c-.2.3-.3.6-.5.8c-.2.3-.5.5-.7.7c-.2.2-.5.4-.8.5l-.4-.6c.3-.2.6-.4.9-.7c.3-.3.5-.6.8-.9c.2-.4.4-.8.5-1.2c.1-.4.2-.8.2-1.2c-.02.04 0-1.1 0-1.1H.1v-.7h5.1v.7H3zM16.7 59l-.3.7c-.4 0-.7-.1-1-.2c-.4-.2-.7-.3-1-.5c-.3-.1-.5-.3-.8-.6c-.2-.2-.4-.4-.5-.7c-.2.3-.4.5-.6.7c-.2.3-.5.5-.8.6c-.3.2-.6.3-.9.5c-.4.1-.7.2-1 .2l-.4-.7c.4 0 .8-.1 1.2-.3c.4-.1.8-.3 1.1-.5l.7-.7c.1-.3.2-.6.2-.9c.04-.01 0-.4 0-.4h.9v.4c0 .3.1.6.3.9c.1.2.4.5.7.7c.3.2.6.4 1 .5c.4.2.8.3 1.2.3zm-3.2 1.6h3.7v.7H8.9v-.7h3.7v-1.4h.9v1.4zm-3.6 2.3v-.7h6.3v3h-.8v-2.3H9.9zm16.7-3.1v.6h-1.4v4.8h-.9V56h.9v3.8h1.4zm-8-2.8s4.19.02 4.2 0c0 .7-.1 1.3-.2 1.9c-.2.6-.4 1.2-.8 1.8c-.3.5-.7 1-1.3 1.5c-.5.5-1.1.9-1.9 1.3l-.4-.7c1.2-.6 2.1-1.3 2.7-2.2c.6-.8 1-1.8 1.1-2.9c-.04.01-3.4 0-3.4 0v-.7zm16 1.6v.7h-6.2v-3.1h.9v2.4h5.3zm-7.3 1.7h8.3v.7h-8.3v-.7zm4.1 1.5c1 0 1.8.2 2.3.5c.6.3.9.7.9 1.2c0 .5-.3.9-.9 1.2c-.5.3-1.3.5-2.3.5c-.9 0-1.7-.2-2.3-.5c-.5-.3-.8-.7-.8-1.2c0-.5.3-.9.8-1.2c.6-.3 1.4-.5 2.3-.5zm0 2.7c.7 0 1.3-.1 1.7-.3c.4-.1.6-.4.6-.7c0-.3-.2-.6-.6-.8c-.4-.1-1-.2-1.7-.2c-.7 0-1.3.1-1.7.2c-.4.2-.6.5-.6.8c0 .3.2.6.6.7c.4.2 1 .3 1.7.3zm10.5-7.3v.6h-5.4v-.6h2.3v-1.1h.8v1.1h2.3zm1.7 1.9h1.3v.7h-1.3v3.1h-.9v-6.8h.9v3zm-2.2.9c0 .3-.1.5-.2.7c-.1.3-.2.4-.4.6c-.2.1-.4.2-.7.3c-.3.1-.6.1-.9.1c-.3 0-.6 0-.9-.1c-.3-.1-.5-.2-.7-.3c-.2-.2-.3-.3-.4-.6c-.1-.2-.2-.4-.2-.7c0-.2.1-.5.2-.7c.1-.2.2-.3.4-.5c.2-.1.4-.3.7-.3c.3-.1.6-.2.9-.2c.3 0 .6.1.9.2c.3 0 .5.2.7.3c.2.2.3.3.4.5c.1.2.2.5.2.7zm-3.6 0c0 .4.1.6.4.8c.2.2.6.3 1 .3c.4 0 .8-.1 1-.3c.3-.2.4-.4.4-.8c0-.3-.1-.5-.4-.7c-.2-.2-.6-.3-1-.3c-.4 0-.8.1-1 .3c-.3.2-.4.4-.4.7zm.9 2.4v1.9h5.3v.7h-6.1v-2.6h.8zm15.4-5.1c.03-.02 0-.1 0-.1h-5.4v-.7h6.3s-.04.78 0 .8c0 .4-.1.7-.1 1.1c0 .4-.1.8-.2 1.3l-.8-.1c.1-.5.2-.9.2-1.2v-1.1zm-2.1 3h4v.7h-8.2v-.7h3.3v-1.8h.9v1.8zm-.2 1.5c.5 0 1 .1 1.4.1c.3.1.7.2 1 .4c.2.1.5.3.6.5c.2.2.2.4.2.7c0 .3 0 .5-.2.7c-.1.2-.4.4-.6.5c-.3.2-.7.3-1 .4c-.4 0-.9.1-1.4.1c-.5 0-.9-.1-1.3-.1c-.4-.1-.7-.2-1-.4c-.3-.1-.5-.3-.6-.5c-.2-.2-.2-.4-.2-.7c0-.3 0-.5.2-.7c.1-.2.3-.4.6-.5c.3-.2.6-.3 1-.4c.4 0 .8-.1 1.3-.1zm0 2.7c.8 0 1.3-.1 1.8-.2c.4-.2.6-.5.6-.8c0-.3-.2-.6-.6-.8c-.5-.1-1-.2-1.8-.2c-.7 0-1.2.1-1.7.2c-.4.2-.6.5-.6.8c0 .3.2.6.6.8c.5.1 1 .2 1.7.2zm12.1-4.7c0-.03 1.3 0 1.3 0v.7h-8.3v-.7s6.17-.03 6.2 0c.1-.6.2-1.1.2-1.5v-1.2c.02.04-5.3 0-5.3 0v-.6h6.1s.05.62 0 .6v1.2c0 .4-.1.9-.2 1.5zm-.6 2.7v-1.2h.8v3.8H58v-3.8h.8v1.2h4.5zm0 1.9v-1.3h-4.5v1.3h4.5zm9.9-6.1h1.4v.7h-1.4v2.4h-.8v-5.3h.8v2.2zm-2.5-1.6v4h-4.2v-4h4.2zm-.8 3.3v-2.6h-2.6v2.6h2.6zm.4 1.8c.4 0 .9 0 1.2.1c.4 0 .7.2 1 .3c.2.2.5.3.6.5c.1.3.2.5.2.8c0 .2-.1.5-.2.7c-.1.2-.4.4-.6.5c-.3.2-.6.3-1 .4c-.3.1-.8.1-1.2.1c-.5 0-.9 0-1.3-.1c-.3-.1-.7-.2-.9-.4c-.3-.1-.5-.3-.6-.5c-.2-.2-.2-.5-.2-.7c0-.3 0-.5.2-.8c.1-.2.3-.3.6-.5c.2-.1.6-.3.9-.3c.4-.1.8-.1 1.3-.1zm0 2.7c.7 0 1.2-.1 1.6-.3c.4-.1.6-.4.6-.7c0-.4-.2-.6-.6-.8c-.4-.2-.9-.3-1.6-.3c-.7 0-1.2.1-1.6.3c-.4.2-.6.4-.6.8c0 .3.2.6.6.7c.4.2.9.3 1.6.3zm15.3-3.9v.7h-3.7v3.9h-.8v-3.9h-3.7v-.7s6.04-.03 6 0c.2-.7.3-1.3.3-1.8v-1.4c.02.03 0-.1 0-.1h-5.3v-.7h6.1s.04.83 0 .8v1.4c0 .5-.1 1.1-.2 1.8c-.02-.03 1.3 0 1.3 0zm1.7-.5l-.3-.6c.5 0 .9-.1 1.3-.2c.3-.1.7-.3 1-.4c.2-.2.5-.4.6-.6c.2-.2.3-.4.3-.7h-2.8v-.7h2.9v-.9h.8v.9h2.9v.7h-2.9c0 .3.1.5.3.7c.2.2.4.4.7.6c.3.1.6.3 1 .4c.4.1.8.2 1.2.2l-.2.6c-.4 0-.8-.1-1.1-.2c-.4-.1-.7-.2-1-.3c-.3-.1-.5-.3-.8-.5c-.2-.2-.4-.4-.5-.6c-.2.2-.3.4-.6.6c-.2.2-.5.4-.8.5c-.3.1-.6.3-.9.3c-.4.1-.7.2-1.1.2zm7.5 1.2h-3.7v1.1h2.7v2.8h-.8V63h-5.5v-.6h2.8v-1.1h-3.8v-.7h8.3v.7z" stroke="none" fill="#fff"/></g><g id="Polygon110958"><path d="m7 37.5h.8v9.2h-.8v-9.2zm-1.8 3.3v-3.1h.8v8.5h-.8v-4.7H3.6v-.7h1.6zm-2.5-1.5v.8c0 .4 0 .8.1 1.2c.1.4.2.8.4 1.1c.2.3.4.7.6.9c.3.3.5.5.9.7l-.6.6c-.4-.2-.8-.6-1.1-1.1c-.3-.4-.5-.9-.7-1.5c-.1.6-.4 1.2-.7 1.7c-.3.5-.7.9-1.2 1.2l-.5-.7c.3-.2.6-.4.9-.7c.2-.3.4-.6.6-1c.2-.3.3-.7.4-1.1c.1-.4.1-.9.1-1.3v-.8H.2v-.7h4.1v.7H2.7zm8.7 1.1v-1.9H10v-.7h6.7v.7h-1.4v1.9h1.4v.7H10v-.7h1.4zm3.1 0v-1.9h-2.3v1.9h2.3zm3 2.2h-3.7v1.1h2.7v2.9h-6.3v-2.9h2.7v-1.1H9.2v-.6h8.3v.6zm-1.8 3.3v-1.5H11v1.5h4.7zM28 37.5v6.8h-.9v-6.8h.9zm-2 4.6l-.5.7c-.5-.2-1-.5-1.3-.9c-.4-.4-.7-.9-.9-1.4c-.2.6-.5 1-.9 1.5c-.4.4-.9.7-1.4.9l-.4-.6c.3-.2.6-.3.9-.6c.3-.2.5-.4.7-.7c.2-.3.4-.6.5-1c.1-.3.2-.7.2-1c-.05-.02 0-.9 0-.9h.8s-.01.88 0 .9c0 .3 0 .7.2 1c.1.3.2.6.4.9c.2.2.5.5.8.7c.2.2.5.4.9.5zm-3.1 3.7h5.3v.7h-6.1v-2.9h.8v2.2zm13.4-8.3h.8v9.2h-.8v-9.2zm-3.2 5.1v1.6c.5-.1.9-.1 1.3-.1c.4 0 .9-.1 1.3-.1v.6c-.5 0-1 .1-1.5.1c-.5.1-1 .1-1.5.2h-2.9l-.1-.7h2.6c-.03-.02 0-1.6 0-1.6h-1.9v-2.4h3.7v-1.1h-3.8v-.7h4.6v2.4h-3.7v1.2h4v.6h-2.1zm12.4.4v-2.8h-2v-.7h2v-1.9h.9v5.4h-.9zm-1.3-1.1l-.5.6c-.5-.2-.9-.4-1.3-.8c-.3-.3-.6-.7-.8-1.2c-.2.5-.5 1-.9 1.4c-.4.4-.9.7-1.4.9l-.5-.7c.4-.1.7-.3 1-.5c.3-.2.5-.4.7-.7c.2-.3.4-.6.5-.9c.1-.3.1-.7.1-1c.03 0 0-.9 0-.9h.9s-.03.87 0 .9c0 .3 0 .6.1.9c.1.3.3.6.5.8c.2.3.4.5.7.7c.3.2.6.4.9.5zm-.9 1.3c.5 0 .9.1 1.3.1c.4.1.7.2 1 .4c.2.1.4.3.6.5c.1.2.2.5.2.8c0 .2-.1.5-.2.7c-.2.2-.4.4-.6.5c-.3.2-.6.3-1 .4c-.4 0-.8.1-1.3.1c-.4 0-.8-.1-1.2-.1c-.4-.1-.7-.2-1-.4c-.2-.1-.4-.3-.6-.5c-.1-.2-.2-.5-.2-.7c0-.3.1-.6.2-.8c.2-.2.4-.4.6-.5c.3-.2.6-.3 1-.4c.4 0 .8-.1 1.2-.1zm0 2.8c.7 0 1.3-.1 1.7-.3c.4-.2.6-.4.6-.7c0-.4-.2-.7-.6-.8c-.4-.2-1-.3-1.7-.3c-.7 0-1.2.1-1.6.3c-.4.1-.6.4-.6.8c0 .3.2.5.6.7c.4.2.9.3 1.6.3zm12.2-7.4v.6h-5.4v-.6h2.3v-1.1h.8v1.1h2.3zm3 1.2h-1.3v1.3h1.3v.7h-1.3v1.6h-.9v-5.9h.9v1.6h1.3v.7zM55 41.3c0 .3-.1.5-.2.7c-.1.2-.2.4-.4.5c-.2.1-.4.2-.7.3c-.3.1-.6.1-.9.1c-.3 0-.6 0-.9-.1c-.3-.1-.5-.2-.7-.3c-.2-.1-.3-.3-.4-.5c-.1-.2-.2-.4-.2-.7c0-.2.1-.5.2-.6c.1-.2.2-.4.4-.6c.2-.1.4-.2.7-.3c.3-.1.6-.1.9-.1c.3 0 .6 0 .9.1c.3.1.5.2.7.3c.2.2.3.4.4.6c.1.1.2.4.2.6zm-3.6 0c0 .3.1.6.4.7c.2.2.6.3 1 .3c.4 0 .8-.1 1-.3c.3-.1.4-.4.4-.7c0-.3-.1-.5-.4-.7c-.2-.2-.6-.3-1-.3c-.4 0-.8.1-1 .3c-.3.2-.4.4-.4.7zm2.9 2.2c.5 0 .9.1 1.3.1l.9.3c.3.2.4.3.6.5c.1.2.2.4.2.7c0 .3-.1.5-.2.7c-.2.2-.3.3-.6.5l-.9.3c-.4 0-.8.1-1.3.1c-.9 0-1.6-.2-2.2-.4c-.5-.3-.8-.7-.8-1.2c0-.5.3-.9.8-1.2c.6-.2 1.3-.4 2.2-.4zm0 2.5c.7 0 1.2 0 1.6-.2c.4-.2.6-.4.6-.7c0-.3-.2-.5-.6-.7c-.4-.2-.9-.2-1.6-.2c-.7 0-1.2 0-1.6.2c-.3.2-.5.4-.5.7c0 .3.2.5.5.7c.4.2.9.2 1.6.2zm12.1-6.1h1.3v.7h-1.3v2.5h-.9v-5.5h.9v2.3zm-1.9 1.9l-.4.7c-.5-.2-.9-.5-1.3-.8c-.4-.4-.7-.8-.9-1.3c-.2.6-.5 1-.8 1.4c-.4.4-.9.7-1.4 1l-.5-.7c.4-.1.7-.3 1-.5l.7-.7c.2-.3.3-.6.4-.9c.1-.4.2-.7.2-1.1v-.9h.8s.04 1.02 0 1c0 .3.1.6.2.9c.1.3.3.6.5.8c.1.3.4.5.7.7c.2.2.5.3.8.4zm-1 1.5c.4 0 .8.1 1.2.2c.4 0 .7.1 1 .3c.2.1.4.3.6.5c.1.2.2.5.2.7c0 .3-.1.5-.2.7c-.2.2-.4.4-.6.5c-.3.2-.6.3-1 .4c-.4 0-.8.1-1.2.1c-1 0-1.7-.2-2.3-.5c-.5-.2-.8-.7-.8-1.2c0-.2.1-.5.2-.7c.2-.2.4-.4.6-.5c.3-.2.6-.3 1-.3c.4-.1.8-.2 1.3-.2zm0 2.7c.6 0 1.2-.1 1.6-.2c.3-.2.5-.5.5-.8c0-.3-.2-.6-.5-.7c-.4-.2-1-.3-1.6-.3c-.7 0-1.3.1-1.6.3c-.4.1-.6.4-.6.7c0 .3.2.6.6.8c.3.1.9.2 1.6.2z" stroke="none" fill="#fff"/></g><g id="Polygon110957"><path d="m6 20.9c.05-.03 0-.3 0-.3H.5v-.6h6.4s-.02.87 0 .9v.8c0 .4 0 .7-.1 1c0 .4 0 .7-.1 1.1c0 .4-.1.8-.2 1.3l-.8-.1c.2-.9.3-1.6.3-2.3v-1.8zm-2.4 5.3h4.3v.7H-.4v-.7h3.2v-3.3h.8v3.3zm12.1-7.1h.8v5.3h-.8V22h-1.2v2.4h-.8v-5.2h.8v2.1h1.2v-2.2zm-6.5.6s3.55.02 3.5 0c0 2.2-1.1 3.8-3.5 4.8l-.4-.6c1-.4 1.7-.9 2.2-1.5c.5-.6.8-1.2.9-2H9.2v-.7zm1.1 5.8v-.6h6.2v3.3h-.8v-2.7h-5.4zm14.3-4.1s-2.24.01-2.2 0c-.7 1.5-2 2.5-4 3.1l-.3-.6c1.1-.4 2-.8 2.6-1.4c.6-.6 1-1.3 1.1-2.1c-.04.01-3.3 0-3.3 0v-.7s4.17.03 4.2 0c0 .2 0 .4-.1.5v.5c-.03.02 2 0 2 0v-1.6h.9v5.4h-.9v-1.2h-2.4v-.7h2.4v-1.2zm-2.1 3.2c.5 0 .9.1 1.3.1c.3.1.6.2.9.4c.3.1.5.3.6.5c.2.3.2.5.2.8c0 .3 0 .5-.2.7c-.1.2-.3.4-.6.6l-.9.3c-.4.1-.8.1-1.3.1c-.5 0-.9 0-1.3-.1l-.9-.3c-.3-.2-.5-.4-.6-.6c-.2-.2-.2-.4-.2-.7c0-.3 0-.5.2-.8c.1-.2.3-.4.6-.5c.3-.2.6-.3.9-.4c.4 0 .8-.1 1.3-.1zm0 2.9c.7 0 1.2-.1 1.6-.3c.4-.2.6-.5.6-.8c0-.4-.2-.6-.6-.8c-.4-.2-.9-.3-1.6-.3c-.7 0-1.2.1-1.6.3c-.4.2-.6.4-.6.8c0 .3.2.6.6.8c.4.2.9.3 1.6.3zm9.9-7.5v.7h-5.3v-.7h2.3v-1.1h.8v1.1h2.2zm1.4-.9h.9v5.5h-.9v-2.1h-1.5v-.7h1.5v-2.7zm-1.9 3.7c0 .2 0 .4-.2.6c-.1.2-.2.4-.4.6c-.2.1-.4.2-.7.3c-.2.1-.5.1-.8.1c-.3 0-.6 0-.9-.1l-.6-.3c-.2-.2-.4-.4-.5-.6c-.1-.2-.1-.4-.1-.6c0-.3 0-.5.1-.7c.1-.2.3-.4.5-.5c.2-.2.4-.3.6-.3c.3-.1.6-.2.9-.2c.3 0 .6.1.8.2c.3 0 .5.1.7.3c.2.1.3.3.4.5c.2.2.2.4.2.7zm-3.4 0c0 .3.1.5.3.7c.3.2.6.3 1 .3c.4 0 .7-.1.9-.3c.3-.2.4-.4.4-.7c0-.3-.1-.6-.4-.8c-.2-.1-.5-.2-.9-.2c-.4 0-.7.1-1 .2c-.2.2-.3.5-.3.8zm.2 5.3v-3h6v3h-6zm.8-2.4v1.7h4.4v-1.7h-4.4zm14-5.7v.7h-5.1v-.7h2.2v-1h.8v1h2.1zm1.6-.9h.8v5.8h-.8v-1.2h-1.6v-.7h1.6v-1h-1.6v-.7h1.6v-2.2zm-2 3.8c0 .2-.1.4-.2.7c-.1.2-.2.4-.4.5c-.2.2-.4.3-.7.4c-.2 0-.5.1-.8.1c-.3 0-.6-.1-.8-.1c-.3-.1-.5-.2-.7-.4c-.2-.1-.3-.3-.4-.5c-.1-.3-.2-.5-.2-.7c0-.3.1-.5.2-.7c.1-.2.2-.4.4-.6c.2-.1.4-.2.7-.3c.2-.1.5-.1.8-.1c.3 0 .6 0 .8.1c.3.1.5.2.7.3c.2.2.3.4.4.6c.1.2.2.4.2.7zm-3.4 0c0 .3.1.6.4.7c.2.2.5.3.9.3c.4 0 .7-.1.9-.3c.3-.1.4-.4.4-.7c0-.4-.1-.6-.4-.8c-.2-.2-.5-.3-.9-.3c-.4 0-.7.1-.9.3c-.3.2-.4.4-.4.8zm.1 3.1v-.6h6.1v2.8h-.8V26h-5.3zm15.3-7v6.8h-.9V19h.9zm-2 4.6l-.5.7c-.5-.2-.9-.5-1.3-.9c-.4-.4-.7-.9-.9-1.4c-.2.6-.5 1-.9 1.5c-.4.4-.9.7-1.4.9l-.4-.6c.3-.2.6-.3.9-.6c.3-.2.5-.4.7-.7c.2-.3.4-.6.5-1c.1-.3.2-.7.2-1c-.04-.02 0-.9 0-.9h.8s-.01.88 0 .9c0 .3.1.7.2 1c.1.3.2.6.4.9c.2.2.5.5.8.7c.2.2.5.4.9.5zM50 27.3h5.4v.7h-6.2v-2.9h.8v2.2z" stroke="none" fill="#fff"/></g><g id="Polygon110956"><path d="m8.3 4.3v.6H6.8v4.8h-.9V.6h.9v3.7h1.5zm-5.5-3s-.02 1.68 0 1.7c0 .4 0 .8.2 1.2c.1.4.3.7.5 1.1c.2.3.4.7.7.9c.3.3.6.5.9.7l-.5.7c-.5-.3-.9-.7-1.3-1.2c-.4-.5-.7-1-.9-1.7c-.2.7-.5 1.3-.9 1.8c-.4.5-.9 1-1.4 1.2l-.5-.6c.3-.2.6-.4.9-.7c.3-.3.6-.6.8-1c.2-.4.4-.8.5-1.2c.1-.4.2-.8.2-1.2c-.04-.02 0-1.7 0-1.7h.8zm11.9.4v.6H9.1v-.6h2.4V.6h.8v1.1h2.4zm.8-1.1h.8v9.1h-.8V.6zm-3.2 5.6v1c.5 0 .9-.1 1.3-.1c.5 0 .9-.1 1.3-.1l.1.6c-.5.1-1 .1-1.6.2c-.5 0-1 .1-1.5.1h-1.5c-.5.1-.9.1-1.3.1l-.2-.7c.4 0 .8-.1 1.3-.1h1.3v-1c-.5 0-1-.2-1.3-.5c-.3-.3-.5-.7-.5-1.2c0-.2.1-.4.2-.6c.1-.3.2-.4.4-.6c.2-.1.5-.2.7-.3c.3-.1.6-.1.9-.1c.3 0 .6 0 .9.1c.3.1.5.2.7.3c.2.2.4.3.5.6c.1.2.1.4.1.6c0 .5-.1.9-.5 1.2c-.3.3-.7.5-1.3.5zm-1.8-1.7c0 .4.1.6.4.8c.3.2.6.3 1 .3c.4 0 .8-.1 1-.3c.3-.2.4-.4.4-.8c0-.3-.1-.5-.4-.7c-.2-.2-.6-.3-1-.3c-.4 0-.7.1-1 .3c-.3.2-.4.4-.4.7zm14-2.7c-.03-.02 0-.1 0-.1h-5.4v-.7h6.2v1.9c-.1.4-.1.8-.3 1.3l-.8-.1c.1-.5.2-.9.2-1.2c.1-.4.1-.8.1-1.1zm-2.2 3h4v.7h-8.2v-.7h3.4V3h.8v1.8zm-.1 1.5c.5 0 .9.1 1.3.1c.4.1.7.2 1 .4c.3.1.5.3.6.5c.2.2.3.4.3.7c0 .3-.1.5-.3.7c-.1.2-.3.4-.6.5c-.3.2-.6.3-1 .4c-.4 0-.8.1-1.3.1c-.5 0-1-.1-1.3-.1c-.4-.1-.8-.2-1-.4c-.3-.1-.5-.3-.7-.5c-.1-.2-.2-.4-.2-.7c0-.3.1-.5.2-.7c.2-.2.4-.4.7-.5c.2-.2.6-.3 1-.4c.3 0 .8-.1 1.3-.1zm0 2.7c.7 0 1.3-.1 1.7-.2c.4-.2.6-.5.6-.8c0-.3-.2-.6-.6-.8c-.4-.1-1-.2-1.7-.2c-.7 0-1.3.1-1.7.2c-.5.2-.7.5-.7.8c0 .3.2.6.7.8c.4.1 1 .2 1.7.2zm10.4-7.3v.6h-5.3v-.6h2.2V.5h.8v1.2h2.3zm-.2 2h1.5V.6h.9v6.8h-.9v-3h-1.5v-.7zm-.4.8c0 .3 0 .5-.1.7c-.1.2-.3.4-.5.6l-.6.3c-.3.1-.6.1-.9.1c-.3 0-.6 0-.8-.1c-.3-.1-.5-.2-.7-.3c-.2-.2-.3-.4-.4-.6c-.2-.2-.2-.4-.2-.7c0-.2 0-.4.2-.6c.1-.3.2-.4.4-.6c.2-.1.4-.3.7-.3c.2-.1.5-.2.8-.2c.3 0 .6.1.9.2c.2 0 .4.2.6.3c.2.2.4.3.5.6c.1.2.1.4.1.6zm-3.4 0c0 .4.1.6.4.8c.2.2.5.3.9.3c.4 0 .7-.1 1-.3c.2-.2.3-.4.3-.8c0-.3-.1-.5-.3-.7c-.3-.2-.6-.3-1-.3c-.4 0-.7.1-.9.3c-.3.2-.4.4-.4.7zm1.1 4.3h5.3v.7h-6.1V6.9h.8v1.9zM45.2.6h.8v5.2h-.8V.6zm-4.1.4c.4 0 .7.1 1 .2c.3.1.5.2.7.4c.2.2.4.4.5.7c.1.3.2.5.2.9c0 .3-.1.6-.2.8c-.1.3-.3.5-.5.7c-.2.2-.4.3-.7.4c-.3.1-.6.2-1 .2c-.3 0-.7-.1-.9-.2c-.3-.1-.6-.2-.8-.4c-.2-.2-.4-.4-.5-.7c-.1-.2-.2-.5-.2-.8c0-.4.1-.6.2-.9c.1-.3.3-.5.5-.7c.2-.2.5-.3.8-.4c.2-.1.6-.2.9-.2zm0 .7c-.2 0-.4.1-.6.1c-.2.1-.4.2-.5.3c-.2.2-.3.3-.3.5c-.1.2-.2.4-.2.6c0 .2.1.4.2.5c0 .2.1.4.3.5c.1.1.3.2.5.3c.2.1.4.1.6.1c.2 0 .4 0 .6-.1c.2-.1.4-.2.5-.3c.2-.1.3-.3.4-.5c0-.1.1-.3.1-.5c0-.2-.1-.4-.1-.6c-.1-.2-.2-.3-.4-.5c-.1-.1-.3-.2-.5-.3c-.2 0-.4-.1-.6-.1zm-1 4.6h5.9v3.3h-5.9V6.3zm5.1.6h-4.3v2h4.3v-2zM54.6.6h.8v5.5h-.8V3.6h-1.1v2.4h-.8V.7h.8v2.2h1.1V.6zm-3.3 4.2c.3 0 .7-.1 1-.1v.6c-.4.1-.7.1-1.1.1c-.5.1-.9.1-1.3.1c-.4 0-.8.1-1.1.1h-1.1c.04-.02 0-.7 0-.7h.9V2h-.8v-.7h4.3v.7h-.8v2.8s-.01-.03 0 0zM49.4 2s-.04 2.87 0 2.9h.5c.2-.1.4-.1.6-.1c.03.02 0-2.8 0-2.8h-1.1zm-.2 5.2v-.6h6.2v3.1h-.8V7.2h-5.4zm15-1.7v.7h-6.3V1.3h6.2v.7h-5.3v1.4h5.1v.6h-5.1v1.5h5.4zm-7.3 2.3h8.3v.7h-8.3v-.7zm16.7-6.4v.6h-5.3v-.6h2.2v-.9h.9v.9h2.2zm3 1.9v.7h-1.4v2.7h-.8V.6h.8v2.7h1.4zm-2.8 2.2l.1.6c-.5 0-1 .1-1.5.2c-.5 0-1 0-1.5.1h-2.7l-.1-.7h2.4v-.7c-.5 0-.9-.1-1.2-.4c-.3-.2-.5-.5-.5-.9c0-.4.2-.8.6-1c.4-.2.9-.4 1.5-.4c.7 0 1.2.2 1.6.4c.4.2.6.6.6 1c0 .4-.2.7-.5.9c-.3.3-.7.4-1.2.4v.7c.4 0 .8-.1 1.2-.1c.4 0 .8-.1 1.2-.1zm-4.2-1.8c0 .2.1.4.4.6c.2.1.5.2.9.2c.5 0 .8-.1 1-.2c.3-.2.4-.4.4-.6c0-.2-.1-.4-.4-.6c-.2-.1-.5-.2-1-.2c-.4 0-.7.1-.9.2c-.3.2-.4.4-.4.6zm-.4 4.1v-.7h6v2.6h-.8V7.8h-5.2zm15.2-4.5h1.4v.7h-1.4v3.3h-.8V.5h.8v2.8zm-1.8 1.8l-.4.7c-.5-.2-.9-.5-1.3-.8c-.4-.4-.7-.8-.9-1.3c-.2.6-.5 1-.9 1.4c-.4.4-.8.7-1.4.9l-.4-.6c.3-.2.6-.3.9-.5c.3-.2.5-.5.7-.8c.2-.2.4-.5.5-.9c.1-.3.2-.6.2-1c-.04.02 0-1.1 0-1.1h.8s-.01 1.14 0 1.1c0 .4 0 .7.2 1c.1.3.2.5.4.8l.7.7c.3.2.6.3.9.4zm-3 1.6v2.1h5.2v.7h-6.1V6.7h.9z" stroke="none" fill="#fff"/></g></svg>