<?xml version="1.0" standalone="no"?><!DOCTYPE svg PUBLIC "-//W3C//DTD SVG 1.1//EN" "http://www.w3.org/Graphics/SVG/1.1/DTD/svg11.dtd"><svg xmlns="http://www.w3.org/2000/svg" version="1.1" width="232px" height="73.7px" viewBox="0 -5 232 73.7" style="top:-5px"><desc>우리의 성장을 위한 올바른 방향 The Right Move for Our People</desc><defs/><g id="Polygon110801"><path d="m1.7 35.1v-7.7H-.9v-1.2h6.6v1.2H3.1v7.7H1.7zm5.4 0v-9.6h1.3v2.5s-.02 1.34 0 1.3c.3-.2.6-.5.9-.7c.4-.2.8-.3 1.2-.3c.7 0 1.2.2 1.6.7c.3.4.4 1.1.4 1.9c.04.01 0 4.2 0 4.2h-1.3s-.04-4.02 0-4c0-.6-.1-1-.3-1.3c-.2-.2-.5-.3-.9-.3c-.3 0-.5.1-.8.2c-.2.2-.5.4-.8.7c.03-.02 0 4.7 0 4.7H7.1zm10.1.1c-.5 0-.9-.1-1.3-.2c-.4-.2-.7-.4-1-.7c-.3-.3-.5-.6-.7-1.1c-.1-.4-.2-.9-.2-1.4c0-.6.1-1.1.2-1.5c.2-.4.4-.8.7-1.1c.3-.3.6-.5 1-.7c.3-.1.7-.2 1.1-.2c.4 0 .8.1 1.1.2c.4.2.7.4.9.7c.2.2.4.6.5.9c.1.4.2.9.2 1.3v.4c-.1.1-.1.2-.1.3h-4.3c.1.7.3 1.1.7 1.5c.3.4.8.5 1.4.5c.3 0 .5 0 .8-.1c.3-.1.5-.2.7-.4l.5.9c-.3.2-.6.4-1 .5c-.4.2-.8.2-1.2.2zm-1.9-4h3.2c0-.6-.1-1-.4-1.4c-.2-.3-.6-.4-1.1-.4c-.2 0-.4 0-.6.1c-.2.1-.3.2-.5.3c-.1.2-.3.4-.4.6c-.1.2-.2.5-.2.8zm15 3.9h-1.6l-2-3.6h-1.4v3.6h-1.4v-8.9s2.91.03 2.9 0c.5 0 .9.1 1.3.2c.4 0 .7.2 1 .4c.3.2.5.5.7.8c.1.3.2.7.2 1.2c0 .7-.2 1.2-.5 1.6c-.3.5-.8.7-1.3.9c-.05.02 2.1 3.8 2.1 3.8zm-5-7.8v3.1s1.34-.02 1.3 0c.7 0 1.2-.2 1.5-.4c.4-.3.5-.7.5-1.2c0-.6-.1-.9-.5-1.1c-.3-.2-.8-.4-1.5-.4c.04.04-1.3 0-1.3 0zm6.1-1.6h1.4v1.5h-1.4v-1.5zm1.4 9.4h-1.4v-6.6h1.4v6.6zm4.1 2.9c-.4 0-.8 0-1.1-.1c-.4-.1-.6-.2-.9-.3c-.2-.2-.4-.3-.6-.6c-.1-.2-.2-.4-.2-.7c0-.3.1-.6.3-.8c.2-.3.4-.5.7-.7c-.2-.1-.3-.3-.4-.4c-.1-.2-.2-.4-.2-.7c0-.3.1-.5.2-.7c.2-.2.3-.4.5-.5v-.1c-.2-.2-.4-.4-.6-.7c-.1-.3-.2-.6-.2-1c0-.4 0-.7.2-1c.1-.3.3-.6.5-.8c.3-.2.5-.3.8-.4c.4-.2.7-.2 1-.2h.5c.2.1.4.1.5.2c-.01-.04 2.3 0 2.3 0v1H39c.1.1.2.3.3.5c.1.2.1.4.1.7c0 .4-.1.7-.2 1c-.1.2-.3.5-.5.7c-.2.2-.5.3-.8.4c-.3.1-.6.2-1 .2c-.2 0-.6-.1-.9-.2l-.3.3c0 .1-.1.2-.1.4c0 .2.1.3.3.4c.1.2.4.2.8.2h1.3c.8 0 1.4.1 1.7.4c.4.2.6.6.6 1.2c0 .3 0 .6-.2.9c-.2.3-.4.5-.7.8c-.3.2-.7.3-1.1.4c-.4.2-.9.2-1.4.2zm0-5.9c.4 0 .7-.1.9-.4c.3-.2.4-.6.4-1c0-.5-.1-.8-.4-1.1c-.2-.2-.5-.3-.9-.3c-.3 0-.6.1-.9.3c-.2.3-.3.6-.3 1.1c0 .4.1.8.3 1c.3.3.6.4.9.4zm.2 5c.3 0 .5 0 .8-.1c.2 0 .4-.1.6-.2l.4-.4c.1-.2.1-.3.1-.5c0-.2-.1-.4-.3-.5c-.2-.1-.5-.2-.9-.2h-1.5c-.1 0-.3 0-.4-.1c-.2.2-.4.3-.5.5c0 .1-.1.3-.1.5c0 .3.2.6.5.7c.3.2.7.3 1.3.3zm4.4-2v-9.6h1.4v2.5s-.07 1.34-.1 1.3c.3-.2.6-.5 1-.7c.3-.2.7-.3 1.2-.3c.7 0 1.2.2 1.5.7c.3.4.5 1.1.5 1.9v4.2h-1.4v-4c0-.6-.1-1-.3-1.3c-.1-.2-.4-.3-.8-.3c-.3 0-.6.1-.8.2c-.3.2-.5.4-.8.7c-.02-.02 0 4.7 0 4.7h-1.4zm9.6.1c-.4 0-.7 0-.9-.2c-.3-.1-.5-.2-.7-.4c-.1-.2-.2-.5-.3-.8c-.1-.2-.1-.6-.1-.9c.01 0 0-3.3 0-3.3h-1v-1.1h1.1l.1-1.9h1.2v1.9h1.7v1.1h-1.7s-.01 3.31 0 3.3c0 .4.1.7.2.9c.2.2.4.3.7.3h.4c.1-.1.3-.1.4-.1l.2 1c-.2 0-.4.1-.6.1c-.2.1-.5.1-.7.1zm5.2-.1v-8.9h1.6s1.66 4.49 1.7 4.5l.3.9c0 .3.1.6.2.9h.1l.3-.9l.3-.9c-.02-.01 1.6-4.5 1.6-4.5h1.6v8.9h-1.3s-.01-4.41 0-4.4v-.7c0-.2 0-.4.1-.7v-.7c0-.2.1-.4.1-.6c-.03-.04-.1 0-.1 0l-.7 2l-1.5 4.2h-.9L58.2 30l-.7-2s-.08-.04-.1 0c0 .2.1.4.1.6v.7c0 .3.1.5.1.7v.7c-.01-.01 0 4.4 0 4.4h-1.3zm12.5.1c-.4 0-.8-.1-1.2-.2c-.4-.2-.7-.4-1-.7c-.3-.3-.5-.6-.7-1.1c-.2-.4-.2-.9-.2-1.4c0-.6 0-1.1.2-1.5c.2-.4.4-.8.7-1.1c.3-.3.6-.5 1-.7c.4-.1.8-.2 1.2-.2c.4 0 .8.1 1.1.2c.4.2.7.4 1 .7c.3.3.5.7.7 1.1c.2.4.3.9.3 1.5c0 .5-.1 1-.3 1.4c-.2.5-.4.8-.7 1.1c-.3.3-.6.5-1 .7c-.3.1-.7.2-1.1.2zm0-1.1c.5 0 .9-.2 1.2-.6c.3-.5.5-1 .5-1.7c0-.7-.2-1.3-.5-1.7c-.3-.5-.7-.7-1.2-.7c-.6 0-1 .2-1.3.7c-.3.4-.4 1-.4 1.7c0 .7.1 1.2.4 1.7c.3.4.7.6 1.3.6zm6.1 1l-2.4-6.6h1.5s1.09 3.51 1.1 3.5l.3 1c.1.3.2.6.3 1c.1-.4.2-.7.3-1l.3-1l1.1-3.5h1.4l-2.3 6.6h-1.6zm7.7.1c-.4 0-.8-.1-1.2-.2c-.4-.2-.7-.4-1-.7c-.3-.3-.6-.6-.7-1.1c-.2-.4-.3-.9-.3-1.4c0-.6.1-1.1.3-1.5c.1-.4.4-.8.7-1.1c.2-.3.6-.5.9-.7c.4-.1.8-.2 1.1-.2c.5 0 .9.1 1.2.2c.3.2.6.4.8.7c.3.2.4.6.6.9c.1.4.1.9.1 1.3v.7h-4.3c0 .7.3 1.1.6 1.5c.4.4.8.5 1.4.5c.3 0 .6 0 .9-.1c.2-.1.5-.2.7-.4l.5.9c-.3.2-.7.4-1 .5c-.4.2-.8.2-1.3.2zm-1.8-4h3.1c0-.6-.1-1-.3-1.4c-.3-.3-.7-.4-1.1-.4c-.2 0-.4 0-.6.1c-.2.1-.4.2-.5.3c-.2.2-.3.4-.4.6c-.1.2-.2.5-.2.8zm11.9-5.6l-.2 1c-.3-.1-.6-.2-.8-.2c-.5 0-.8.4-.8 1.2c-.03.02 0 .9 0 .9h1.3v1.1h-1.3v5.5h-1.4v-5.5h-.9v-1.1h.9s-.01-.87 0-.9c0-.3 0-.6.1-.9c.1-.3.2-.5.4-.7c.1-.2.4-.4.6-.5c.3-.1.6-.2 1-.2c.2 0 .4.1.6.1c.2.1.4.1.5.2zm3.3 9.6c-.4 0-.8-.1-1.2-.2c-.4-.2-.7-.4-1-.7c-.3-.3-.5-.6-.7-1.1c-.1-.4-.2-.9-.2-1.4c0-.6.1-1.1.2-1.5c.2-.4.4-.8.7-1.1c.3-.3.6-.5 1-.7c.4-.1.8-.2 1.2-.2c.4 0 .8.1 1.2.2c.3.2.7.4.9.7c.3.3.6.7.7 1.1c.2.4.3.9.3 1.5c0 .5-.1 1-.3 1.4c-.1.5-.4.8-.7 1.1c-.2.3-.6.5-.9.7c-.4.1-.8.2-1.2.2zm0-1.1c.5 0 .9-.2 1.2-.6c.3-.5.5-1 .5-1.7c0-.7-.2-1.3-.5-1.7c-.3-.5-.7-.7-1.2-.7c-.6 0-1 .2-1.3.7c-.3.4-.4 1-.4 1.7c0 .7.1 1.2.5 1.7c.3.4.7.6 1.2.6zm4.6 1v-6.6h1.2l.1 1.1s0 .05 0 0c.2-.4.5-.7.8-1c.4-.2.7-.3 1.1-.3h.4c.1.1.2.1.3.1l-.2 1.2h-.3c-.1-.1-.3-.1-.4-.1c-.3 0-.5.1-.8.3c-.3.2-.6.6-.8 1.1v4.2h-1.4zm11 .1c-.6 0-1.1-.1-1.6-.3c-.4-.2-.8-.5-1.2-.9c-.3-.4-.6-.9-.8-1.5c-.1-.5-.2-1.2-.2-1.9c0-.7.1-1.3.2-1.9c.2-.6.5-1 .8-1.4c.4-.4.8-.7 1.2-.9c.5-.2 1-.3 1.6-.3c.6 0 1.1.1 1.6.3c.4.2.8.5 1.2.9c.3.4.6.8.8 1.4c.2.6.3 1.2.3 1.9c0 .7-.1 1.4-.3 1.9c-.2.6-.5 1.1-.8 1.5c-.4.4-.8.7-1.2.9c-.5.2-1 .3-1.6.3zm0-1.2c.4 0 .7-.1 1-.2c.3-.2.5-.4.8-.7c.2-.3.3-.7.5-1.1c.1-.4.1-.9.1-1.4c0-.5 0-1-.1-1.4c-.2-.4-.3-.8-.5-1c-.3-.3-.5-.5-.8-.7c-.3-.2-.6-.2-1-.2c-.4 0-.7 0-1 .2c-.3.2-.5.4-.8.7c-.2.2-.3.6-.4 1c-.2.4-.2.9-.2 1.4c0 .5 0 1 .2 1.4c.1.4.2.8.4 1.1c.3.3.5.5.8.7c.3.1.6.2 1 .2zm7.4 1.2c-.7 0-1.2-.2-1.5-.6c-.3-.5-.5-1.1-.5-2v-4.1h1.4v3.9c0 .6.1 1 .3 1.3c.1.2.4.3.8.3c.3 0 .6 0 .8-.2c.3-.2.5-.4.8-.8c-.02.04 0-4.5 0-4.5h1.4v6.6h-1.2l-.1-1s-.01-.04 0 0c-.3.3-.6.6-1 .8c-.3.2-.7.3-1.2.3zm5.5-.1v-6.6h1.1l.1 1.1s.05.05 0 0c.3-.4.6-.7.9-1c.3-.2.7-.3 1-.3h.4c.2.1.3.1.4.1l-.3 1.2h-.3c-.1-.1-.2-.1-.3-.1c-.3 0-.6.1-.9.3c-.3.2-.5.6-.8 1.1c.04.04 0 4.2 0 4.2h-1.3zm7.6 0v-8.9s2.65.03 2.6 0c.5 0 1 .1 1.4.2c.4.1.8.2 1.1.4c.3.2.5.5.7.8c.1.4.2.8.2 1.3c0 .5-.1.9-.2 1.2c-.2.4-.4.7-.7.9c-.3.3-.7.4-1.1.5c-.4.2-.8.2-1.3.2h-1.3v3.4h-1.4zm1.4-4.5h1.2c.7 0 1.2-.1 1.6-.4c.3-.3.5-.7.5-1.3c0-.6-.2-1-.6-1.2c-.3-.2-.9-.4-1.6-.4c.02.04-1.1 0-1.1 0v3.3zm8.9 4.6c-.4 0-.9-.1-1.3-.2c-.3-.2-.7-.4-1-.7c-.3-.3-.5-.6-.7-1.1c-.1-.4-.2-.9-.2-1.4c0-.6.1-1.1.2-1.5c.2-.4.4-.8.7-1.1c.3-.3.6-.5 1-.7c.3-.1.7-.2 1.1-.2c.4 0 .8.1 1.2.2c.3.2.6.4.8.7c.2.2.4.6.5.9c.1.4.2.9.2 1.3v.4c0 .1-.1.2-.1.3h-4.3c.1.7.3 1.1.7 1.5c.3.4.8.5 1.4.5c.3 0 .6 0 .8-.1c.3-.1.5-.2.8-.4l.4.9c-.3.2-.6.4-1 .5c-.4.2-.8.2-1.2.2zm-1.9-4h3.2c0-.6-.1-1-.4-1.4c-.2-.3-.6-.4-1.1-.4c-.2 0-.4 0-.6.1c-.2.1-.3.2-.5.3c-.1.2-.3.4-.4.6c-.1.2-.1.5-.2.8zm8.5 4c-.4 0-.8-.1-1.1-.2c-.4-.2-.8-.4-1-.7c-.3-.3-.5-.6-.7-1.1c-.2-.4-.3-.9-.3-1.4c0-.6.1-1.1.3-1.5c.2-.4.4-.8.7-1.1c.2-.3.6-.5 1-.7c.3-.1.7-.2 1.1-.2c.4 0 .8.1 1.2.2c.4.2.7.4 1 .7c.3.3.5.7.7 1.1c.2.4.2.9.2 1.5c0 .5 0 1-.2 1.4c-.2.5-.4.8-.7 1.1c-.3.3-.6.5-1 .7c-.4.1-.8.2-1.2.2zm0-1.1c.6 0 1-.2 1.3-.6c.3-.5.4-1 .4-1.7c0-.7-.1-1.3-.4-1.7c-.3-.5-.7-.7-1.3-.7c-.5 0-.9.2-1.2.7c-.3.4-.5 1-.5 1.7c0 .7.2 1.2.5 1.7c.3.4.7.6 1.2.6zm4.7 3.6v-9.2h1.1l.1.7s.07-.02.1 0c.3-.3.6-.5.9-.6c.4-.2.7-.3 1.1-.3c.4 0 .8.1 1.1.2c.3.2.6.4.8.7c.3.3.4.7.5 1.1c.2.4.2.8.2 1.4c0 .5-.1 1-.2 1.5c-.2.4-.4.8-.7 1.1c-.2.3-.5.5-.9.7c-.3.1-.7.2-1 .2c-.3 0-.6 0-.9-.2c-.3-.1-.6-.3-.9-.5c.03-.03.1 1.1.1 1.1v2.1h-1.4zm2.8-3.6c.5 0 .9-.2 1.2-.6c.3-.5.5-1 .5-1.8c0-.7-.1-1.3-.4-1.7c-.2-.4-.6-.6-1.2-.6c-.2 0-.5.1-.7.2c-.3.2-.6.4-.8.6v3.3c.2.2.5.4.7.4c.3.1.5.2.7.2zm4.6 1v-9.6h1.4v9.6h-1.4zm6 .1c-.4 0-.8-.1-1.2-.2c-.4-.2-.7-.4-1-.7c-.3-.3-.5-.6-.7-1.1c-.2-.4-.3-.9-.3-1.4c0-.6.1-1.1.3-1.5c.2-.4.4-.8.7-1.1c.2-.3.6-.5.9-.7c.4-.1.8-.2 1.1-.2c.5 0 .9.1 1.2.2c.3.2.6.4.8.7c.3.2.4.6.6.9c.1.4.1.9.1 1.3v.7h-4.3c0 .7.3 1.1.6 1.5c.4.4.9.5 1.4.5c.3 0 .6 0 .9-.1c.2-.1.5-.2.7-.4l.5.9c-.3.2-.7.4-1 .5c-.4.2-.8.2-1.3.2zm-1.8-4h3.1c0-.6-.1-1-.3-1.4c-.3-.3-.7-.4-1.1-.4c-.2 0-.4 0-.6.1c-.2.1-.4.2-.5.3c-.2.2-.3.4-.4.6c-.1.2-.2.5-.2.8z" stroke="none" fill="#fff"/></g><g id="Polygon110800"><path d="m6.7 8.3c-.9 0-1.6 0-2.3-.2c-.7-.2-1.3-.4-1.8-.7c-.5-.3-.9-.7-1.2-1.1c-.3-.5-.4-.9-.4-1.5c0-.5.1-1 .4-1.4c.3-.5.7-.8 1.2-1.1c.5-.3 1.1-.6 1.8-.8c.7-.1 1.4-.2 2.3-.2c.8 0 1.6.1 2.3.2c.6.2 1.2.5 1.7.8c.5.3.9.6 1.2 1.1c.3.4.4.9.4 1.4c0 .6-.1 1-.4 1.5c-.3.4-.7.8-1.2 1.1c-.5.3-1.1.5-1.7.7c-.7.2-1.5.2-2.3.2zm0-5.2c-1.1 0-1.9.1-2.5.4c-.6.3-.9.7-.9 1.3c0 .6.3 1 .9 1.3c.6.3 1.4.5 2.5.5c1 0 1.8-.2 2.4-.5c.6-.3.9-.7.9-1.3c0-.6-.3-1-.9-1.3c-.6-.3-1.4-.4-2.4-.4zm7.1 6.4v1.8h-6v5.1H5.5v-5.1H-.4V9.5h14.2zM25.9.7h2.3v15.8h-2.3V.7zm-7.6 7.4v2.9c1.2 0 2.3-.1 3.3-.2c1.1 0 2.2-.2 3.3-.3l.2 1.8c-.7.1-1.3.2-1.9.3c-.6 0-1.2.1-1.9.1c-.6.1-1.2.1-1.9.1h-2c.01.02-1.4 0-1.4 0V6.4h5.1V3.9H16V2.1h7.4v6h-5.1zM41.5.7h2.3v15.8h-2.3V.7zm-5.8 1.1c.7 0 1.2.1 1.8.3c.5.2.9.5 1.3.8c.4.3.7.7.9 1.2c.3.5.4 1 .4 1.6c0 .5-.1 1-.4 1.5c-.2.5-.5.9-.9 1.2c-.4.4-.8.6-1.3.8c-.6.2-1.1.3-1.8.3c-.6 0-1.1-.1-1.7-.3c-.5-.2-.9-.4-1.3-.8c-.4-.3-.7-.7-.9-1.2c-.2-.5-.4-1-.4-1.5c0-.6.2-1.1.4-1.6c.2-.5.5-.9.9-1.2c.4-.3.8-.6 1.3-.8c.6-.2 1.1-.3 1.7-.3zm0 1.9c-.6 0-1.1.2-1.5.5c-.4.4-.6.8-.6 1.5c0 .6.2 1 .6 1.4c.4.3.9.5 1.5.5c.7 0 1.2-.2 1.6-.5c.4-.4.6-.8.6-1.4c0-.7-.2-1.1-.6-1.5c-.4-.3-.9-.5-1.6-.5zm-4.6 9.6l-.3-1.8c.7 0 1.4 0 2.2-.1h2.5c.9 0 1.8-.1 2.6-.2c.9 0 1.8-.1 2.6-.3l.1 1.7c-.8.1-1.7.3-2.5.4c-.9.1-1.8.1-2.6.2c-.8 0-1.7 0-2.4.1h-2.2zm29.8-3.4V5.4H58V3.6h2.9V.8h2.2v9.1h-2.2zm-1.4-2.2l-1.2 1.8c-.8-.3-1.5-.7-2.1-1.2c-.6-.5-1-1.2-1.3-1.9c-.4.8-.9 1.5-1.5 2.1c-.6.6-1.4 1.1-2.3 1.4l-1.2-1.8c.7-.2 1.3-.5 1.7-.8c.5-.4.9-.8 1.2-1.3c.3-.4.5-.9.7-1.4c.1-.5.2-1.1.2-1.6c-.02-.02 0-1.4 0-1.4h2.3s-.04 1.27 0 1.3c0 .5 0 1 .2 1.5c.1.5.3.9.6 1.4c.3.4.6.8 1.1 1.1c.4.3.9.6 1.6.8zm-1.7 2.6c.9 0 1.6.1 2.3.2c.6.2 1.2.4 1.7.6c.4.3.8.6 1 1c.3.4.4.8.4 1.3c0 .5-.1.9-.4 1.3c-.2.3-.6.7-1 .9c-.5.3-1.1.5-1.7.6c-.7.2-1.4.2-2.3.2c-.8 0-1.5 0-2.2-.2c-.7-.1-1.2-.3-1.7-.6c-.4-.2-.8-.6-1-.9c-.3-.4-.4-.8-.4-1.3c0-.5.1-.9.4-1.3c.2-.4.6-.7 1-1c.5-.2 1-.4 1.7-.6c.7-.1 1.4-.2 2.2-.2zm-3.1 3.1c0 .9 1.1 1.3 3.1 1.3c2.1 0 3.2-.4 3.2-1.3c0-.9-1.1-1.3-3.2-1.3c-2 0-3.1.4-3.1 1.3zm23.2-9h2.1v1.8h-2.1v3.9h-2.2V.8h2.2v3.6zm-3 3.5l-1 1.7c-.9-.3-1.6-.6-2.2-1.1c-.6-.5-1.1-1.1-1.4-1.7c-.4.7-.9 1.4-1.5 2c-.6.6-1.4 1.1-2.3 1.3l-1.1-1.7c.6-.2 1.2-.5 1.6-.8c.5-.4.9-.8 1.2-1.2c.3-.4.5-.9.6-1.3c.2-.5.3-1 .3-1.5H66V1.8h8.4v1.8h-3c0 .4.1.9.2 1.3c.1.5.3.9.6 1.2c.3.4.7.7 1.1 1c.5.3 1 .6 1.6.8zm-2.1 2.4c.8 0 1.6.1 2.2.2c.7.2 1.2.4 1.7.6c.4.3.8.6 1 1c.3.4.4.8.4 1.3c0 .5-.1.9-.4 1.3c-.2.3-.6.7-1 .9c-.5.3-1 .5-1.7.6c-.6.2-1.4.2-2.2.2c-.8 0-1.5 0-2.2-.2c-.7-.1-1.2-.3-1.7-.6c-.4-.2-.8-.6-1-.9c-.3-.4-.4-.8-.4-1.3c0-.5.1-.9.4-1.3c.2-.4.6-.7 1-1c.5-.2 1-.4 1.7-.6c.7-.1 1.4-.2 2.2-.2zm-3.1 3.1c0 .9 1.1 1.3 3.1 1.3c1 0 1.8-.1 2.3-.3c.5-.2.8-.6.8-1c0-.5-.3-.8-.8-1c-.5-.2-1.3-.3-2.3-.3c-2 0-3.1.4-3.1 1.3zm18.5-7.1c-1.8 0-3.2-.2-4.2-.6c-1-.5-1.4-1.2-1.4-2c0-.9.4-1.6 1.4-2c1-.5 2.4-.7 4.2-.7c1.9 0 3.3.2 4.3.7c.9.4 1.4 1.1 1.4 2c0 .8-.5 1.5-1.4 2c-1 .4-2.4.6-4.3.6zm0-3.7c-1.1 0-1.9.1-2.5.3c-.5.1-.8.4-.8.8c0 .3.3.6.8.7c.6.2 1.4.3 2.5.3c1.2 0 2-.1 2.6-.3c.5-.1.8-.4.8-.7c0-.4-.3-.7-.8-.8c-.6-.2-1.4-.3-2.6-.3zm-7 4.5h14.1v1.7H81.2V7.1zm3.8 6.6v.9h9v1.7H82.8v-4.1h8.6v-.8h-8.6V9.7h10.8v4H85zM111.3.8h2.3v15.6h-2.3V.8zm-5.7 7.3c-.6 0-1.2-.1-1.7-.3c-.5-.1-.9-.4-1.3-.7c-.3-.3-.6-.6-.8-1c-.2-.4-.3-.9-.3-1.4c0-.5.1-.9.3-1.3c.2-.4.5-.8.8-1.1c.4-.3.8-.5 1.3-.7c.5-.1 1.1-.2 1.7-.2c.6 0 1.1.1 1.6.2c.5.2.9.4 1.3.7c.4.3.7.7.9 1.1c.2.4.3.8.3 1.3c0 .5-.1 1-.3 1.4c-.2.4-.5.7-.9 1c-.4.3-.8.6-1.3.7c-.5.2-1 .3-1.6.3zm0-4.9c-.6 0-1.1.1-1.4.4c-.4.3-.6.6-.6 1.1c0 .5.2.9.6 1.1c.3.3.8.4 1.4.4c.5 0 1-.1 1.4-.4c.3-.2.5-.6.5-1.1c0-.5-.2-.8-.5-1.1c-.4-.3-.9-.4-1.4-.4zm4.9 5.3l.1 1.6l-1.9.3c-.7.1-1.3.2-1.9.2c-.04.03 0 5.3 0 5.3h-2.3v-5.1h-3.7l-.3-1.8h2.3c.8 0 1.6-.1 2.5-.1c.8 0 1.7-.1 2.6-.1l2.6-.3zm14.8-6.1v1.8H116V2.4h3.5V.7h2.3v1.7h3.5zm3.1 3.1h2v1.9h-2v5.1h-2.3V.8h2.3v4.7zm-3.9 2.2c0 .5-.1.9-.3 1.3c-.2.3-.5.7-.8.9c-.3.3-.7.5-1.2.6c-.5.2-1 .3-1.6.3c-.5 0-1-.1-1.5-.3c-.5-.1-.9-.3-1.2-.6c-.4-.2-.6-.6-.8-.9c-.2-.4-.3-.8-.3-1.3c0-.4.1-.8.3-1.2c.2-.3.4-.7.8-.9c.3-.3.7-.5 1.2-.7c.5-.1 1-.2 1.5-.2c.6 0 1.1.1 1.6.2c.5.2.9.4 1.2.7c.3.2.6.6.8.9c.2.4.3.8.3 1.2zm-5.6 0c0 .5.2.8.5 1c.3.2.7.4 1.2.4c.6 0 1-.2 1.3-.4c.3-.2.4-.5.4-1c0-.4-.1-.7-.4-.9c-.3-.3-.7-.4-1.3-.4c-.5 0-.9.1-1.2.4c-.3.2-.5.5-.5.9zm1.6 3.9v2.8h8.4v1.8h-10.6v-4.6h2.2zm23-4.5h6v1.8h-14.1V7.1h5.9s-.02-.89 0-.9c-3-.2-4.5-1.1-4.5-2.6c0-.9.5-1.6 1.4-2c1-.5 2.4-.7 4.2-.7c1.9 0 3.3.2 4.3.7c.9.4 1.4 1.1 1.4 2c0 1.5-1.5 2.4-4.6 2.6c.03.01 0 .9 0 .9zm-4.4-3.5c0 .3.3.6.8.8c.6.1 1.4.2 2.5.2c1.2 0 2.1-.1 2.6-.2c.5-.2.8-.5.8-.8c0-.4-.3-.6-.8-.8c-.5-.2-1.4-.2-2.6-.2c-1.1 0-1.9 0-2.5.2c-.5.2-.8.4-.8.8zm.1 10.1v.9h9v1.7H137v-4.1h8.6v-.8H137V9.7h10.8v4h-8.6zm26.3-7.1v1.9h-2.3v7.9h-2.3V.8h2.3v5.8h2.3zm-8.7-.8V2h2.2v10.8h-7.6V2h2.2v3.8h3.2zm0 5.2V7.5h-3.2v3.5h3.2zm19.9-7.1V2.8h-8.5V1.1h10.7v4.4h-8.4v1.1h8.7v1.7h-11V3.9h8.5zm-10.2 5.3h14.2v1.8h-14.2V9.2zm4 2.7v2.5h8.8v1.8h-11v-4.3h2.2zm27.6-7.5h2.1v1.9h-2.1v3.7h-2.2V.8h2.2v3.6zm-4.3-2.6v7.3h-7.5V1.8h2.2v1.9h3.1V1.8h2.2zm-2.2 5.6v-2h-3.1v2h3.1zm1.4 2.9c.8 0 1.5.1 2.2.2c.7.2 1.2.4 1.7.6c.4.3.8.6 1 1c.3.4.4.8.4 1.3c0 .5-.1.9-.4 1.3c-.2.4-.6.7-1 .9c-.5.3-1 .5-1.7.6c-.7.2-1.4.3-2.2.3c-.8 0-1.6-.1-2.2-.3c-.7-.1-1.2-.3-1.7-.6c-.4-.2-.8-.5-1-.9c-.3-.4-.4-.8-.4-1.3c0-.5.1-.9.4-1.3c.2-.4.6-.7 1-1c.5-.2 1-.4 1.7-.6c.6-.1 1.4-.2 2.2-.2zm0 4.4c2 0 3.1-.4 3.1-1.3c0-.9-1.1-1.3-3.1-1.3c-1 0-1.8.1-2.3.3c-.5.2-.8.6-.8 1c0 .4.3.8.8 1c.5.2 1.3.3 2.3.3zm17.6-12.4v1.7h-9.2V2.3h3.4V.7h2.3v1.6h3.5zm5.1 2.5h-2v1.6h2v1.8h-2v2.5h-2.3V.8h2.3v2.2h2v1.8zm-5.9 2.5c0 .4-.1.8-.3 1.2c-.2.3-.4.6-.8.8c-.3.3-.7.5-1.2.6c-.4.1-1 .2-1.5.2c-.6 0-1.1-.1-1.6-.2c-.5-.1-.9-.3-1.2-.6c-.3-.2-.6-.5-.8-.8c-.2-.4-.3-.8-.3-1.2c0-.4.1-.8.3-1.1c.2-.4.5-.7.8-.9c.3-.2.7-.4 1.2-.6c.5-.1 1-.2 1.6-.2c.5 0 1.1.1 1.5.2c.5.2.9.4 1.2.6c.4.2.6.5.8.9c.2.3.3.7.3 1.1zm-5.5 0c0 .4.1.7.4.9c.3.2.8.3 1.3.3c.5 0 .9-.1 1.2-.3c.3-.2.5-.5.5-.9c0-.4-.2-.6-.5-.8c-.3-.2-.7-.3-1.2-.3c-.5 0-1 .1-1.3.3c-.3.2-.4.4-.4.8zm4.3 3.6c.8 0 1.5 0 2.2.2c.6.1 1.2.3 1.6.5c.5.2.8.5 1.1.9c.2.3.3.7.3 1.2c0 .4-.1.8-.3 1.1c-.3.4-.6.7-1.1.9c-.4.2-1 .4-1.6.5c-.7.2-1.4.2-2.2.2c-.8 0-1.5 0-2.2-.2c-.6-.1-1.2-.3-1.7-.5c-.4-.2-.8-.5-1-.9c-.2-.3-.4-.7-.4-1.1c0-.5.2-.9.4-1.2c.2-.4.6-.7 1-.9c.5-.2 1.1-.4 1.7-.5c.7-.2 1.4-.2 2.2-.2zm-3 2.8c0 .7 1 1.1 3 1.1c2 0 3-.4 3-1.1c0-.8-1-1.2-3-1.2c-2 0-3 .4-3 1.2z" stroke="none" fill="#fff"/></g></svg>