<?xml version="1.0" standalone="no"?><!DOCTYPE svg PUBLIC "-//W3C//DTD SVG 1.1//EN" "http://www.w3.org/Graphics/SVG/1.1/DTD/svg11.dtd"><svg xmlns="http://www.w3.org/2000/svg" version="1.1" width="23px" height="88.4px" viewBox="0 -11 23 88.4" style="top:-11px"><desc>f</desc><defs/><g id="Polygon110499"><path d="m22.8 19.6v7.5h-8.1v26.8H6V27.1H.2v-7.5h5.8s.03-1.17 0-1.2c0-4.4 1.2-7.7 3.6-10c2.6-2.4 5.9-3.5 9.8-3.3c1.4.1 2.9.3 4.4.5v7.5c-1.1-.2-2.2-.4-3.2-.4c-2.1-.2-3.6.4-4.7 1.6c-.8 1-1.2 2.4-1.2 4.2c.04-.01 0 1.1 0 1.1h8.1z" stroke="none" fill="#fff"/></g></svg>