<?xml version="1.0" standalone="no"?><!DOCTYPE svg PUBLIC "-//W3C//DTD SVG 1.1//EN" "http://www.w3.org/Graphics/SVG/1.1/DTD/svg11.dtd"><svg xmlns="http://www.w3.org/2000/svg" version="1.1" width="41px" height="88.4px" viewBox="0 -11 41 88.4" style="top:-11px"><desc>R</desc><defs/><g id="Polygon109176"><path d="m13.6 27h6.8c2.7 0 4.7-.6 5.9-1.8c1.2-1.2 1.8-2.6 1.8-4.2c0-1.6-.6-3-1.8-4.2c-1.2-1.3-3.2-1.9-5.9-1.9c.04.04-6.8 0-6.8 0V27zm3.5 7.8h-3.5v19.1H4.7V7s14.6-.03 14.6 0c5.9 0 10.3 1.3 13.2 3.9c3 2.8 4.6 6.2 4.6 10.2c0 4.2-1.6 7.6-4.8 10.1c-1.7 1.4-3.6 2.3-6 2.9c.03 0 13.8 19.8 13.8 19.8H30L17.1 34.8z" stroke="none" fill="#fff"/></g></svg>