<?xml version="1.0" standalone="no"?><!DOCTYPE svg PUBLIC "-//W3C//DTD SVG 1.1//EN" "http://www.w3.org/Graphics/SVG/1.1/DTD/svg11.dtd"><svg xmlns="http://www.w3.org/2000/svg" version="1.1" width="876.4px" height="52.8px" viewBox="0 -7 876.4 52.8" style="top:-7px"><desc>외장_사이드_텍스트_1@</desc><defs/><g id="Polygon59818"><path d="m2.3 3.4h3.4S13.13 14 13.1 14c.8 1.1 1.4 2.3 1.5 2.7h.1c-.1-.6-.2-1.9-.2-3.1c-.02-.05 0-10.2 0-10.2h3.8v19h-3.4S7.45 11.76 7.4 11.8C6.7 10.6 6.1 9.5 6 9h-.1c.1.5.2 1.9.2 3.2v10.2H2.3v-19zM29.9 3c3.8 0 6.2 1.6 7.8 4.2l-2.9 2c-1-1.8-2.4-3-4.8-3c-3.6 0-5.1 2.9-5.1 6.7c0 3.8 1.5 6.6 5.1 6.6c1.8 0 3-.4 3.9-1.2c.01.01 0-3.3 0-3.3h-3.6v-3h7.4v7.9c-1.7 1.6-4.6 2.9-7.8 2.9c-5.4 0-9-4.3-9-9.9c0-5.7 3.6-9.9 9-9.9zm8.9 15.5l2.6-2c1 1.7 2.4 3.2 4.9 3.2c1.9 0 3-1.2 3-2.6c0-1.3-.8-2.2-2.9-2.8l-1.4-.4c-2.8-.7-4.8-2.4-4.8-5.5c0-3 2.2-5.4 6.3-5.4c2.6 0 4.7 1.3 5.9 3.2l-2.6 2c-.9-1.4-2-2.1-3.4-2.1c-1.5 0-2.3 1-2.3 2.1c0 1.2.6 1.7 2.2 2.2l1.4.4c3 .8 5.5 2.6 5.5 6.1c0 3.4-2.9 5.9-7 5.9c-3.8 0-6-2.1-7.4-4.3zM65.5 1.3l1.6 1.8c-2.4 2.4-4 5.4-4 10.6c0 5.2 1.6 8.2 4 10.6l-1.6 1.8c-2.7-1.9-6-5.7-6-12.4c0-6.7 3.3-10.5 6-12.4zm3.6 2.1h3.4S79.88 14 79.9 14c.8 1.1 1.3 2.3 1.4 2.7h.2c-.2-.6-.3-1.9-.3-3.1c.03-.05 0-10.2 0-10.2h3.8v19h-3.4s-7.4-10.64-7.4-10.6c-.8-1.2-1.3-2.3-1.5-2.8h-.1c.1.5.3 1.9.3 3.2c-.05.01 0 10.2 0 10.2h-3.8v-19zm32.6-.4c3.8 0 6.2 1.6 7.8 4.2l-2.9 2c-1-1.8-2.4-3-4.9-3c-3.5 0-5 2.9-5 6.7c0 3.8 1.5 6.6 5.1 6.6c1.8 0 2.9-.4 3.9-1.2V15h-3.6v-3h7.4s-.02 7.94 0 7.9c-1.7 1.6-4.6 2.9-7.8 2.9c-5.4 0-9-4.3-9-9.9c0-5.7 3.6-9.9 9-9.9zM112 22.4V8h3.6s-.05 2.14 0 2.1c.7-1.4 2.1-2.5 3.8-2.5c.4 0 .6.1.9.1c.04 0 0 3.5 0 3.5c0 0-.77-.03-.8 0c-1.6 0-3.1.5-3.8 2.2c.02.04 0 9 0 9H112zM121.9 8h3.7v14.4h-3.7V8zm-.2-5.8h4v3.5h-4V2.2zm6.8 5.8h3.6v1.6c.9-1.1 2.3-2 4.1-2c3.6 0 5.2 2.4 5.2 5.7c-.03.03 0 9.1 0 9.1h-3.7s-.03-8.6 0-8.6c0-2-1.1-3.1-2.7-3.1c-1.3 0-2.3.9-2.8 2.1c.04 0 0 9.6 0 9.6h-3.7V8zm19.3 10.5l2.6-2c1 1.7 2.4 3.2 4.9 3.2c1.9 0 3-1.2 3-2.6c0-1.3-.8-2.2-2.9-2.8l-1.4-.4c-2.8-.7-4.8-2.4-4.8-5.5c0-3 2.2-5.4 6.3-5.4c2.6 0 4.7 1.3 5.9 3.2l-2.6 2c-.9-1.4-2-2.1-3.4-2.1c-1.5 0-2.3 1-2.3 2.1c0 1.2.6 1.7 2.2 2.2l1.4.4c3 .8 5.5 2.6 5.5 6.1c0 3.4-2.9 5.9-7 5.9c-3.8 0-6-2.1-7.4-4.3zm16.4-16h3.7s.04 6.94 0 6.9c.9-1 2.3-1.8 4-1.8c3.6 0 5.2 2.4 5.2 5.7c-.03.03 0 9.1 0 9.1h-3.7s-.03-8.6 0-8.6c0-2-1.1-3.1-2.7-3.1c-1.3 0-2.3.9-2.8 2.1c.04 0 0 9.6 0 9.6h-3.7V2.5zM179.9 8h3.7v14.4h-3.7V8zm-.2-5.8h4.1v3.5h-4.1V2.2zm7.9 8.6h-2.3V8h2.3s.02-.94 0-.9c0-2.8 1.5-4.9 4.7-4.9c.6 0 1.1 0 1.7.1c.04 0 0 2.9 0 2.9h-.6c-1.5 0-2.1.5-2.1 1.9c.02.01 0 .9 0 .9h2.7v2.8h-2.7v11.6h-3.7V10.8zm9 6.5c-.04.03 0-6.5 0-6.5h-2.4V8h2.5V4.4h3.6v3.6h3.1v2.8h-3.1s-.05 6.42 0 6.4c0 1.7.6 2.3 2.2 2.3c-.01.02.9 0 .9 0v2.9c-.6.1-1.4.2-2.1.2c-3.1 0-4.7-1.6-4.7-5.3zm8.9 8.8l-1.7-1.8c2.5-2.4 4-5.4 4-10.6c0-5.2-1.5-8.2-4-10.6l1.7-1.8c2.6 1.9 5.9 5.7 5.9 12.4c0 6.7-3.3 10.5-5.9 12.4z" stroke="none" fill="#fff"/></g></svg>