<?xml version="1.0" standalone="no"?><!DOCTYPE svg PUBLIC "-//W3C//DTD SVG 1.1//EN" "http://www.w3.org/Graphics/SVG/1.1/DTD/svg11.dtd"><svg xmlns="http://www.w3.org/2000/svg" version="1.1" width="1038.4px" height="144.6px" viewBox="0 -21 1038.4 144.6" style="top:-21px"><desc>The all new IONIQ 5 N</desc><defs/><g id="Polygon53713"><path d="m21.3 25.5H1.2V12H57v13.5H36.9V80H21.3V25.5zM63.6 9h15.3v25.4c2.8-4.7 8.3-8.1 16.1-8.1c13.7 0 19.4 9.8 19.4 22.7v31H99.1V50.6c0-7.1-3.2-10.9-10-10.9c-5.6 0-9.1 4-10.2 8.1V80H63.6v-71zm58.3 45c0-16.6 11.4-27.7 26.8-27.7c15.4 0 25.2 10.2 25.2 25.5c0 1.9-.3 4.8-.5 6.3H137c1.2 6 5.4 10.3 14.1 10.3c6 0 10.8-3.5 13.4-6.8l8.1 10.1c-4.7 5.2-12.3 9.7-22.3 9.7c-17.6 0-28.4-12.4-28.4-27.4zm15.6-7h21.6c-.6-5.5-4.4-8.4-10.4-8.4c-5.6 0-9.5 2.8-11.2 8.4zm102.6 27.6c-3.7 3.9-9.1 6.7-15.6 6.7c-14.5 0-25-10.7-25-27.5c0-16.8 10.5-27.5 25-27.5c6.5 0 11.9 2.8 15.6 6.8v-5.5h15.3V80h-15.3v-5.4zm0-13.4V46.5c-2.2-4.4-7-6.8-11.8-6.8c-7.6 0-13.3 5-13.3 14.1c0 9.1 5.7 14.1 13.3 14.1c4.8 0 9.6-2.4 11.8-6.7zM266.2 9h15.3v71h-15.3v-71zm26.1 0h15.3v71h-15.3v-71zm25.6 34.6h29.7v12.2h-29.7V43.6zm40-16h15.3s-.01 6.8 0 6.8c2.8-4.7 8.3-8.1 16.1-8.1c13.7 0 19.4 9.8 19.4 22.7c-.01 0 0 31 0 31h-15.3V50.6c0-7.1-3.2-10.9-10-10.9c-5.6 0-9.1 4-10.2 8.1V80h-15.3V27.6zM416.2 54c0-16.6 11.4-27.7 26.8-27.7c15.4 0 25.2 10.2 25.2 25.5c0 1.9-.3 4.8-.5 6.3h-36.4c1.2 6 5.4 10.3 14.1 10.3c6 0 10.8-3.5 13.4-6.8l8.1 10.1c-4.7 5.2-12.3 9.7-22.3 9.7c-17.6 0-28.4-12.4-28.4-27.4zm15.6-7h21.6c-.6-5.5-4.4-8.4-10.4-8.4c-5.6 0-9.5 2.8-11.2 8.4zm38.1-19.4h16.3l9.2 31.9l10.4-31.9h16.4l10.4 31.9l9.2-31.9h16.3L541.2 80h-15.4L514 46.3L502.2 80h-15.4l-16.9-52.4zM584.8 12h15.6v68h-15.6v-68zM610 46c0-20.6 14.6-35.5 35-35.5c20.4 0 35 14.9 35 35.5c0 20.6-14.6 35.5-35 35.5c-20.4 0-35-14.9-35-35.5zm53.9 0c0-12-7-21.1-18.9-21.1c-11.9 0-18.9 9.1-18.9 21.1c0 12 7 21.1 18.9 21.1c11.9 0 18.9-9.1 18.9-21.1zm25.7-34h13.6l33.9 42.2V12h15.6v68h-13.5l-34-42.2V80h-15.6v-68zm76.3 0h15.6v68h-15.6v-68zm83.9 60.9l11 14.8l-12.6 8.2L836.8 80c-3.3 1-6.9 1.5-10.7 1.5c-20.4 0-35-14.9-35-35.5c0-20.6 14.6-35.5 35-35.5c20.4 0 35 14.9 35 35.5c0 11.1-4.2 20.5-11.3 26.9zm-23.7-5.8C838 67.1 845 58 845 46c0-12-7-21.1-18.9-21.1c-11.9 0-18.9 9.1-18.9 21.1c0 12 7 21.1 18.9 21.1zm59.3 3.1l8.7-10.6c3.2 3.6 8.4 7.9 16.5 7.9c7.4 0 12.6-3.9 12.6-10.3c0-5.6-4.7-9.4-11.1-9.4c-4.6 0-8.4 1.5-11.1 3.2l-9.7-3.2l3.1-35.8h40.8v13.5h-27.6s-1.12 9.2-1.1 9.2c2.2-.6 4.5-.9 6.9-.9c13.9 0 25.4 7.5 25.4 23.4c0 15.6-11.2 24.3-28.2 24.3c-12.2 0-20.7-6.3-25.2-11.3zM968.7 12h13.6l33.9 42.2V12h15.6v68h-13.5l-34-42.2V80h-15.6v-68z" stroke="none" fill="#fff"/></g></svg>