<?xml version="1.0" standalone="no"?><!DOCTYPE svg PUBLIC "-//W3C//DTD SVG 1.1//EN" "http://www.w3.org/Graphics/SVG/1.1/DTD/svg11.dtd"><svg xmlns="http://www.w3.org/2000/svg" version="1.1" width="284.2px" height="40.6px" viewBox="0 -1 284.2 40.6" style="top:-1px"><desc>Powertrain &amp; Drive Mode</desc><defs/><g id="Polygon55890"><path d="m63.4 12.7s3.63-.02 3.6 0c2 0 3.3 1 3.3 2.9c0 1.8-1.3 2.8-3.3 2.8h-2.3v3.8h-1.3v-9.5zm3.5 4.5c1.4 0 2-.5 2-1.6c0-1.2-.6-1.8-2-1.8c-.02.03-2.2 0-2.2 0v3.4s2.18.04 2.2 0zm4.1 1.5c0-2 1.4-3.7 3.6-3.7c2.3 0 3.6 1.7 3.6 3.7c0 2-1.3 3.7-3.6 3.7c-2.2 0-3.6-1.7-3.6-3.7zm6 0c0-1.5-1.1-2.5-2.4-2.5c-1.3 0-2.3 1-2.3 2.5c0 1.5 1 2.5 2.3 2.5c1.3 0 2.4-1 2.4-2.5zm1.8-3.5h1.4l1.7 5.3l1.9-5.3h1.2l1.9 5.3l1.7-5.3h1.4l-2.4 7h-1.2l-2-5.4l-2 5.4h-1.2l-2.4-7zm11.9 3.5c0-2.2 1.4-3.7 3.4-3.7c2.1 0 3.4 1.5 3.4 3.5v.6H92c.1 1.3.9 2.1 2.3 2.1c.9 0 1.8-.5 2.3-1.2l.8.8c-.7.9-1.8 1.6-3.2 1.6c-2.1 0-3.5-1.6-3.5-3.7zm1.3-.6h4.2c0-1.2-.9-2-2.1-2c-1.1 0-1.9.8-2.1 2zm7-2.9h1.2v1.2c.4-.8 1.1-1.4 2.2-1.4c.02.03.2 0 .2 0c0 0-.02 1.25 0 1.3c-1.2 0-2 .4-2.4 1.5c.01.03 0 4.4 0 4.4H99v-7zm5.2 4.5c.04.04 0-3.5 0-3.5H103v-1h1.3v-1.8h1.2v1.8h1.7v1h-1.7v3.6c0 1 .5 1.4 1.5 1.4c0-.02.2 0 .2 0c0 0 .02 1.01 0 1c-.1 0-.3.1-.5.1c-1.6 0-2.5-.8-2.5-2.6zm4.4-4.5h1.2v1.2c.4-.8 1.1-1.4 2.2-1.4c.03.03.2 0 .2 0c0 0-.02 1.25 0 1.3c-1.2 0-2 .4-2.4 1.5c.01.03 0 4.4 0 4.4h-1.2v-7zm9.9 6c-.6.7-1.4 1.2-2.4 1.2c-2 0-3.4-1.5-3.4-3.7c0-2.2 1.4-3.7 3.4-3.7c1 0 1.8.5 2.4 1.2c-.02-.02 0-1 0-1h1.2v7h-1.2s-.02-.99 0-1zm0-1.3v-2.4c-.4-.8-1.2-1.3-2.2-1.3c-1.3 0-2.4.9-2.4 2.5c0 1.6 1.1 2.5 2.4 2.5c1 0 1.8-.5 2.2-1.3zm3.2-4.7h1.2v7h-1.2v-7zm-.1-3.1h1.4v1.5h-1.4v-1.5zm3.3 3.1h1.2s.02 1.05 0 1.1c.4-.7 1.2-1.3 2.3-1.3c1.9 0 2.8 1.2 2.8 3.1c.02.01 0 4.1 0 4.1H130s-.04-3.96 0-4c0-1.3-.7-2-1.9-2c-1.1 0-1.8.7-2 1.4c.02.02 0 4.6 0 4.6h-1.2v-7zm10.9 4.4c0-1.5.9-2.3 2.4-2.9c-.4-.5-.7-1.1-.7-1.8c0-1.3 1-2.4 2.6-2.4c1.5 0 2.5 1 2.5 2.3c0 1.3-.9 2-2.3 2.4h-.1l1.8 1.9l1.7-2.1l.9.8l-1.8 2.2l2 2.2h-1.7s-1.11-1.26-1.1-1.3c-.9.9-1.9 1.5-3.1 1.5c-1.9 0-3.1-1.2-3.1-2.8zm5.4.5l-2.2-2.5c-1.1.4-2 .9-2 1.9c0 1 .8 1.7 1.9 1.7c.9 0 1.7-.4 2.3-1.1zm-1.8-3.8l.3-.1c1.1-.3 1.7-.7 1.7-1.4c0-.6-.6-1.2-1.3-1.2c-.9 0-1.4.6-1.4 1.3c0 .5.3.9.7 1.4zm10.1-3.6s3.6-.02 3.6 0c2.6 0 4.6 1.7 4.6 4.7c0 3.1-2 4.8-4.6 4.8h-3.6v-9.5zm1.2 1.1v7.3s2.32-.05 2.3 0c2.1 0 3.4-1.3 3.4-3.7c0-2.3-1.3-3.6-3.4-3.6c.02.03-2.3 0-2.3 0zm8.6 1.4h1.3v1.2c.4-.8 1.1-1.4 2.2-1.4c0 .03.2 0 .2 0c0 0-.04 1.25 0 1.3c-1.2 0-2 .4-2.4 1.5c-.01.03 0 4.4 0 4.4h-1.3v-7zm4.8 0h1.3v7h-1.3v-7zm0-3.1h1.3v1.5h-1.3v-1.5zm2.4 3.1h1.4l2.2 5.4l2.2-5.4h1.3l-2.9 7h-1.2l-3-7zm7.6 3.5c0-2.2 1.4-3.7 3.4-3.7c2.1 0 3.4 1.5 3.4 3.5c0 .2 0 .4-.1.6h-5.4c.1 1.3.9 2.1 2.3 2.1c.9 0 1.8-.5 2.3-1.2l.8.8c-.7.9-1.8 1.6-3.2 1.6c-2.1 0-3.5-1.6-3.5-3.7zm1.3-.6h4.2c-.1-1.2-.9-2-2.1-2c-1.1 0-1.9.8-2.1 2zm10.5-5.4h1.7l3.4 7.8l3.3-7.8h1.8v9.5h-1.3v-7.5l-3.2 7.5h-1.2l-3.2-7.5v7.5h-1.3v-9.5zm11.9 6c0-2 1.4-3.7 3.6-3.7c2.3 0 3.6 1.7 3.6 3.7c0 2-1.3 3.7-3.6 3.7c-2.2 0-3.6-1.7-3.6-3.7zm5.9 0c0-1.5-1-2.5-2.3-2.5c-1.3 0-2.3 1-2.3 2.5c0 1.5 1 2.5 2.3 2.5c1.3 0 2.3-1 2.3-2.5zm8.2 2.5c-.5.7-1.4 1.2-2.4 1.2c-2 0-3.4-1.5-3.4-3.7c0-2.2 1.4-3.7 3.4-3.7c1 0 1.9.5 2.4 1.2v-3.9h1.3v9.9h-1.3v-1zm0-1.3v-2.4c-.3-.8-1.2-1.3-2.2-1.3c-1.3 0-2.3.9-2.3 2.5c0 1.6 1 2.5 2.3 2.5c1 0 1.9-.5 2.2-1.3zm2.8-1.2c0-2.2 1.4-3.7 3.4-3.7c2.1 0 3.4 1.5 3.4 3.5c0 .2 0 .4-.1.6H216c.1 1.3.9 2.1 2.3 2.1c.9 0 1.8-.5 2.3-1.2l.8.8c-.7.9-1.8 1.6-3.2 1.6c-2.1 0-3.5-1.6-3.5-3.7zm1.3-.6h4.2c-.1-1.2-.9-2-2.1-2c-1.1 0-1.9.8-2.1 2z" stroke="none" fill="#fff"/></g></svg>