<?xml version="1.0" standalone="no"?><!DOCTYPE svg PUBLIC "-//W3C//DTD SVG 1.1//EN" "http://www.w3.org/Graphics/SVG/1.1/DTD/svg11.dtd"><svg xmlns="http://www.w3.org/2000/svg" version="1.1" width="284.2px" height="40.6px" viewBox="0 -1 284.2 40.6" style="top:-1px"><desc>8 Airbags</desc><defs/><g id="Polygon55458"><path d="m112 19.5c0-1.2.7-2.2 1.8-2.5c-.8-.4-1.2-1.1-1.2-2c0-1.4 1.1-2.5 3.1-2.5c2.1 0 3.2 1.1 3.2 2.5c0 .9-.4 1.6-1.3 2c1.1.3 1.9 1.3 1.9 2.5c0 1.7-1.4 2.9-3.8 2.9c-2.4 0-3.7-1.2-3.7-2.9zm6.2-.1c0-1-.9-1.8-2.5-1.8c-1.6 0-2.4.8-2.4 1.8c0 1 .8 1.8 2.4 1.8c1.6 0 2.5-.8 2.5-1.8zm-.6-4.3c0-.9-.8-1.4-1.9-1.4c-1 0-1.8.5-1.8 1.4c0 .8.8 1.4 1.8 1.4c1.1 0 1.9-.6 1.9-1.4zm9.7-2.4h1.4l3.9 9.5h-1.4l-.9-2.3h-4.6l-.9 2.3h-1.4l3.9-9.5zm-1.1 6.1h3.6l-1.8-4.7l-1.8 4.7zm7.4-3.6h1.3v7h-1.3v-7zm0-3.1h1.3v1.5h-1.3v-1.5zm3.2 3.1h1.3v1.2c.4-.8 1.1-1.4 2.2-1.4c0 .03.2 0 .2 0c0 0-.05 1.25 0 1.3c-1.2 0-2 .4-2.4 1.5c-.01.03 0 4.4 0 4.4h-1.3v-7zm6.1 7h-1.3v-9.9h1.3v3.9c.5-.7 1.4-1.2 2.4-1.2c2 0 3.4 1.5 3.4 3.7c0 2.2-1.4 3.7-3.4 3.7c-1 0-1.9-.5-2.4-1.2v1zm4.5-3.5c0-1.6-1-2.5-2.3-2.5c-1 0-1.8.5-2.2 1.3v2.4c.4.8 1.2 1.3 2.2 1.3c1.3 0 2.3-.9 2.3-2.5zm8.2 2.5c-.5.7-1.4 1.2-2.4 1.2c-2 0-3.4-1.5-3.4-3.7c0-2.2 1.4-3.7 3.4-3.7c1 0 1.9.5 2.4 1.2v-1h1.3v7h-1.3v-1zm0-1.3v-2.4c-.4-.8-1.2-1.3-2.2-1.3c-1.3 0-2.3.9-2.3 2.5c0 1.6 1 2.5 2.3 2.5c1 0 1.8-.5 2.2-1.3zm2.8-1.5c0-2 1.3-3.4 3.2-3.4c1 0 1.8.5 2.3 1.1c.04.04 0-.9 0-.9h1.3v6.1c0 2.4-1.6 3.6-3.5 3.6c-1.5 0-2.6-.6-3.2-1.5l.9-.8c.5.7 1.2 1.2 2.3 1.2c1.2 0 2.2-.8 2.2-2.4v-.6c-.5.7-1.3 1.1-2.3 1.1c-1.9 0-3.2-1.4-3.2-3.5zm5.5 1.1v-2.1c-.3-.7-1.1-1.2-2-1.2c-1.3 0-2.2.9-2.2 2.2c0 1.4.9 2.3 2.2 2.3c.9 0 1.7-.5 2-1.2zm2.5 1.4l.8-.9c.5.7 1.3 1.2 2.2 1.2c.9 0 1.6-.3 1.6-1.1c0-.5-.5-.8-1.3-1l-.7-.1c-1.2-.2-2-.8-2-1.9c0-1.1.9-2.1 2.6-2.1c1.1 0 1.9.5 2.4 1.2l-.7.8c-.5-.5-1.1-.8-1.7-.8c-.9 0-1.3.4-1.3.9c0 .4.4.7 1 .8l.6.1c1.6.2 2.4.9 2.4 2.1c0 1.3-1.1 2.3-2.9 2.3c-1.4 0-2.4-.7-3-1.5z" stroke="none" fill="#fff"/></g></svg>