<?xml version="1.0" standalone="no"?><!DOCTYPE svg PUBLIC "-//W3C//DTD SVG 1.1//EN" "http://www.w3.org/Graphics/SVG/1.1/DTD/svg11.dtd"><svg xmlns="http://www.w3.org/2000/svg" version="1.1" width="58px" height="145.7px" viewBox="0 -21 58 145.7" style="top:-21px"><desc>4</desc><defs/><g id="Polygon58050"><path d="m1 70.7L9.8 60c3.2 3.6 8.4 8 16.6 8c7.4 0 12.7-4 12.7-10.4c0-5.7-4.8-9.5-11.2-9.5c-4.6 0-8.5 1.5-11.2 3.2c.01.04-9.8-3.2-9.8-3.2l3.2-36h41v13.6H23.4s-1.15 9.23-1.2 9.2c2.3-.6 4.6-.9 7-.9c14 0 25.6 7.6 25.6 23.6c0 15.7-11.3 24.4-28.4 24.4C14.1 82 5.5 75.7 1 70.7z" stroke="none" fill="#fff"/></g></svg>