<?xml version="1.0" standalone="no"?><!DOCTYPE svg PUBLIC "-//W3C//DTD SVG 1.1//EN" "http://www.w3.org/Graphics/SVG/1.1/DTD/svg11.dtd"><svg xmlns="http://www.w3.org/2000/svg" version="1.1" width="284.2px" height="40.6px" viewBox="0 -1 284.2 40.6" style="top:-1px"><desc>N Light Sports Bucket Seats</desc><defs/><g id="Polygon54810"><path d="m54.2 12.7h1.2l5.8 7.3v-7.3h1.3v9.5h-1.2l-5.8-7.4v7.4h-1.3v-9.5zm14 0h1.3v8.4h4.9v1.1h-6.2v-9.5zm7.4 2.5h1.2v7h-1.2v-7zm-.1-3.1h1.4v1.5h-1.4v-1.5zm2.8 6.3c0-2 1.4-3.4 3.3-3.4c1 0 1.8.5 2.3 1.1c.01.04 0-.9 0-.9h1.3s-.03 6.08 0 6.1c0 2.4-1.7 3.6-3.5 3.6c-1.6 0-2.6-.6-3.2-1.5l.8-.8c.5.7 1.3 1.2 2.3 1.2c1.3 0 2.3-.8 2.3-2.4v-.6c-.5.7-1.3 1.1-2.3 1.1c-1.9 0-3.3-1.4-3.3-3.5zm5.6 1.1v-2.1c-.3-.7-1.1-1.2-2-1.2c-1.4 0-2.3.9-2.3 2.2c0 1.4.9 2.3 2.3 2.3c.9 0 1.7-.5 2-1.2zm3.2-7.2h1.3s-.03 3.98 0 4c.3-.6 1.1-1.3 2.3-1.3c1.8 0 2.8 1.2 2.8 3.1c-.04.01 0 4.1 0 4.1h-1.3v-4c0-1.3-.7-2-1.9-2c-1.1 0-1.8.9-1.9 1.4c-.03.02 0 4.6 0 4.6h-1.3v-9.9zm8.6 7.4c.02.04 0-3.5 0-3.5h-1.2v-1h1.2v-1.8h1.3v1.8h1.7v1H97s-.02 3.58 0 3.6c0 1 .4 1.4 1.5 1.4c-.03-.02.2 0 .2 0v1c-.2 0-.4.1-.6.1c-1.6 0-2.4-.8-2.4-2.6zm6.9.5l.9-.9c.6 1 1.5 1.9 3 1.9c1.5 0 2.2-.8 2.2-1.8c0-.8-.6-1.3-1.8-1.5l-.9-.2c-1.6-.2-2.7-1.1-2.7-2.5c0-1.4 1.2-2.7 3.3-2.7c1.4 0 2.6.7 3.2 1.6l-.9.8c-.6-.8-1.4-1.2-2.3-1.2c-1.2 0-1.9.7-1.9 1.4c0 .8.5 1.2 1.5 1.4l.9.1c1.9.3 3 1.2 3 2.8c0 1.7-1.4 3-3.6 3c-2.1 0-3.3-1.2-3.9-2.2zm9-5h1.2s.04.98 0 1c.6-.7 1.4-1.2 2.4-1.2c2 0 3.4 1.5 3.4 3.7c0 2.2-1.4 3.7-3.4 3.7c-1 0-1.8-.5-2.4-1.2c.04.02 0 3.6 0 3.6h-1.2v-9.6zm5.8 3.5c0-1.6-1.1-2.5-2.4-2.5c-1 0-1.8.5-2.2 1.3v2.4c.4.8 1.2 1.3 2.2 1.3c1.3 0 2.4-.9 2.4-2.5zm2.3 0c0-2 1.4-3.7 3.6-3.7c2.3 0 3.6 1.7 3.6 3.7c0 2-1.3 3.7-3.6 3.7c-2.2 0-3.6-1.7-3.6-3.7zm5.9 0c0-1.5-1-2.5-2.3-2.5c-1.3 0-2.3 1-2.3 2.5c0 1.5 1 2.5 2.3 2.5c1.3 0 2.3-1 2.3-2.5zm2.8-3.5h1.3v1.2c.4-.8 1.1-1.4 2.2-1.4c.01.03.2 0 .2 0c0 0-.04 1.25 0 1.3c-1.2 0-2 .4-2.4 1.5c-.01.03 0 4.4 0 4.4h-1.3v-7zm5.3 4.5c.03.04 0-3.5 0-3.5h-1.2v-1h1.3v-1.8h1.2v1.8h1.7v1H135s-.01 3.58 0 3.6c0 1 .4 1.4 1.5 1.4c-.02-.02.2 0 .2 0v1c-.1 0-.4.1-.6.1c-1.5 0-2.4-.8-2.4-2.6zm3.6 1.2l.8-.9c.5.7 1.3 1.2 2.2 1.2c.9 0 1.6-.3 1.6-1.1c0-.5-.5-.8-1.3-1l-.7-.1c-1.2-.2-2-.8-2-1.9c0-1.1.9-2.1 2.6-2.1c1.1 0 1.9.5 2.4 1.2l-.7.8c-.5-.5-1.1-.8-1.7-.8c-.9 0-1.3.4-1.3.9c0 .4.4.7 1 .8l.6.1c1.6.2 2.4.9 2.4 2.1c0 1.3-1.1 2.3-2.9 2.3c-1.4 0-2.4-.7-3-1.5zm10.9-8.2s3.64-.02 3.6 0c2 0 3.1.9 3.1 2.5c0 .8-.4 1.5-1.2 1.9c1.1.4 1.9 1.1 1.9 2.4c0 1.7-1.1 2.7-3.3 2.7h-4.1v-9.5zm4.1 8.4c1.4 0 2-.6 2-1.6c0-1-.6-1.6-2-1.6c-.04-.03-2.8 0-2.8 0v3.2s2.76-.02 2.8 0zm-.6-4.3c1.3 0 1.9-.6 1.9-1.5c0-.9-.6-1.5-1.9-1.5h-2.2v3s2.19-.03 2.2 0zm11.7 5.4h-1.2s-.03-1.06 0-1.1c-.4.7-1.2 1.3-2.3 1.3c-1.9 0-2.8-1.2-2.8-3.1c-.02-.03 0-4.1 0-4.1h1.2s.04 3.95 0 3.9c0 1.4.7 2.1 1.9 2.1c1 0 1.8-.7 2-1.4c-.03-.04 0-4.6 0-4.6h1.2v7zm1.5-3.5c0-2 1.4-3.7 3.6-3.7c1.4 0 2.5.7 3.1 1.8l-.9.7c-.4-.8-1.2-1.3-2.1-1.3c-1.4 0-2.4.9-2.4 2.5c0 1.5 1 2.5 2.4 2.5c.9 0 1.7-.5 2.1-1.3l.9.7c-.6 1.1-1.7 1.8-3.1 1.8c-2.2 0-3.6-1.7-3.6-3.7zm8.1-6.4h1.2v6.2l3.3-3.3h1.5l-2.8 2.9l3.2 4.1h-1.5l-2.5-3.3l-1.2 1.2v2.1H173v-9.9zm6.8 6.4c0-2.2 1.5-3.7 3.5-3.7c2 0 3.3 1.5 3.3 3.5v.6h-5.5c.2 1.3 1 2.1 2.3 2.1c1 0 1.8-.5 2.3-1.2l.8.8c-.7.9-1.8 1.6-3.1 1.6c-2.2 0-3.6-1.6-3.6-3.7zm1.3-.6h4.3c-.1-1.2-1-2-2.1-2c-1.2 0-2 .8-2.2 2zm7.3 1.6c.02.04 0-3.5 0-3.5h-1.2v-1h1.3v-1.8h1.2v1.8h1.7v1h-1.7s-.02 3.58 0 3.6c0 1 .4 1.4 1.5 1.4c-.02-.02.2 0 .2 0v1c-.1 0-.4.1-.6.1c-1.6 0-2.4-.8-2.4-2.6zm6.9.5l.9-.9c.6 1 1.5 1.9 3 1.9c1.5 0 2.3-.8 2.3-1.8c0-.8-.7-1.3-1.9-1.5l-.9-.2c-1.6-.2-2.7-1.1-2.7-2.5c0-1.4 1.2-2.7 3.3-2.7c1.5 0 2.6.7 3.2 1.6l-.9.8c-.6-.8-1.4-1.2-2.3-1.2c-1.2 0-1.9.7-1.9 1.4c0 .8.6 1.2 1.5 1.4l.9.1c1.9.3 3 1.2 3 2.8c0 1.7-1.4 3-3.6 3c-2.1 0-3.2-1.2-3.9-2.2zm8.6-1.5c0-2.2 1.4-3.7 3.4-3.7c2 0 3.4 1.5 3.4 3.5c0 .2 0 .4-.1.6h-5.5c.2 1.3 1 2.1 2.4 2.1c.9 0 1.8-.5 2.3-1.2l.7.8c-.7.9-1.7 1.6-3.1 1.6c-2.1 0-3.5-1.6-3.5-3.7zm1.3-.6h4.2c-.1-1.2-.9-2-2.1-2c-1.1 0-2 .8-2.1 2zm12.3 3.1c-.5.7-1.4 1.2-2.4 1.2c-2 0-3.4-1.5-3.4-3.7c0-2.2 1.4-3.7 3.4-3.7c1 0 1.9.5 2.4 1.2v-1h1.3v7h-1.3v-1zm0-1.3v-2.4c-.3-.8-1.2-1.3-2.2-1.3c-1.3 0-2.3.9-2.3 2.5c0 1.6 1 2.5 2.3 2.5c1 0 1.9-.5 2.2-1.3zm3.7-.2v-3.5H220v-1h1.2v-1.8h1.3v1.8h1.7v1h-1.7s-.04 3.58 0 3.6c0 1 .4 1.4 1.5 1.4c-.05-.02.2 0 .2 0c0 0-.02 1.01 0 1c-.2 0-.4.1-.6.1c-1.6 0-2.4-.8-2.4-2.6zm3.6 1.2l.8-.9c.5.7 1.3 1.2 2.2 1.2c.9 0 1.6-.3 1.6-1.1c0-.5-.5-.8-1.4-1l-.6-.1c-1.2-.2-2-.8-2-1.9c0-1.1.9-2.1 2.6-2.1c1 0 1.9.5 2.4 1.2l-.8.8c-.4-.5-1-.8-1.7-.8c-.8 0-1.3.4-1.3.9c0 .4.4.7 1.1.8l.6.1c1.5.2 2.4.9 2.4 2.1c0 1.3-1.1 2.3-2.9 2.3c-1.4 0-2.4-.7-3-1.5z" stroke="none" fill="#fff"/></g></svg>