<?xml version="1.0" standalone="no"?><!DOCTYPE svg PUBLIC "-//W3C//DTD SVG 1.1//EN" "http://www.w3.org/Graphics/SVG/1.1/DTD/svg11.dtd"><svg xmlns="http://www.w3.org/2000/svg" version="1.1" width="1481px" height="63.3px" viewBox="0 -7 1481 63.3" style="top:-7px"><desc>외장_사이드_텍스트_1@</desc><defs/><g id="Polygon59225"><path d="m9.1 14.6c.03.02-4 0-4 0v7.8H2.8v-19s6.33-.04 6.3 0c3.8 0 6.1 2 6.1 5.6c0 3.6-2.3 5.6-6.1 5.6zm-.3-9.3c.05.05-3.7 0-3.7 0v7.3s3.75.03 3.7 0c2.7 0 4-1.3 4-3.6c0-2.4-1.3-3.7-4-3.7zm8.9 3.2h2.2s-.05 2.5 0 2.5c.7-1.5 2.1-2.8 4.1-2.8c.2 0 .4 0 .6.1c-.04-.04 0 2.2 0 2.2c0 0-.8.03-.8 0c-1.8 0-3.2 1-3.9 3.1c.04.04 0 8.8 0 8.8h-2.2V8.5zm18.9 7c0-3.3-1.7-5.3-4.3-5.3c-2.5 0-4.2 2-4.2 5.3c0 3.3 1.7 5.2 4.2 5.2c2.6 0 4.3-1.9 4.3-5.2zm2.3 0c0 4.2-2.6 7.2-6.6 7.2c-3.9 0-6.5-3-6.5-7.2c0-4.3 2.6-7.3 6.5-7.3c4 0 6.6 3 6.6 7.3zm12.5 4.9c-1.1 1.4-2.7 2.3-4.5 2.3c-3.7 0-6-3-6-7.2c0-4.3 2.3-7.3 6-7.3c1.8 0 3.3.8 4.4 2.2c-.03-.01 0-7.9 0-7.9h2.2v19.9h-2.1s-.05-1.96 0-2zm-.1-2.2v-5.5c-.7-1.5-2.2-2.5-3.9-2.5c-2.6 0-4.2 2-4.2 5.3c0 3.2 1.6 5.2 4.2 5.2c1.7 0 3.2-1 3.9-2.5zm17.2 4.2h-2.1s-.04-1.88 0-1.9c-.8 1.1-2.3 2.2-4.3 2.2c-3.2 0-5-2.1-5-5.5c-.01-.04 0-8.7 0-8.7h2.2s.03 8.44 0 8.4c0 2.5 1.3 3.8 3.4 3.8c1.9 0 3.2-1.2 3.6-2.5c-.02.03 0-9.7 0-9.7h2.2v13.9zm9.3-14.2c2.6 0 4.8 1.4 5.6 3.7l-1.8.9c-.7-1.7-2-2.6-3.8-2.6c-2.5 0-4.1 2-4.1 5.3c0 3.3 1.6 5.2 4.1 5.2c1.8 0 3.1-.9 3.8-2.6l1.8.9c-.8 2.3-3 3.7-5.6 3.7c-4 0-6.4-3-6.4-7.2c0-4.3 2.4-7.3 6.4-7.3zm9.1 9.8c.04-.02 0-7.6 0-7.6h-2.5V8.5h2.6V4.9h2.2v3.6h3.1v1.9h-3.1s-.02 7.58 0 7.6c0 1.9.8 2.5 2.7 2.5c0 .02.4 0 .4 0v1.9c-.3.1-.7.1-1 .1c-2.9 0-4.4-1.4-4.4-4.5zm21.3-14.9c3.7 0 6.5 2 7.6 5.1l-2 1c-.9-2.6-2.8-4.1-5.6-4.1c-3.6 0-6 2.9-6 7.8c0 4.9 2.4 7.7 6 7.7c2.8 0 4.7-1.4 5.6-4l2 .9c-1.1 3.1-3.9 5.2-7.6 5.2c-4.9 0-8.4-3.9-8.4-9.8c0-5.9 3.5-9.8 8.4-9.8zm20.1 12.4c0-3.3-1.7-5.3-4.3-5.3c-2.5 0-4.2 2-4.2 5.3c0 3.3 1.7 5.2 4.2 5.2c2.6 0 4.3-1.9 4.3-5.2zm2.3 0c0 4.2-2.6 7.2-6.6 7.2c-3.9 0-6.5-3-6.5-7.2c0-4.3 2.6-7.3 6.5-7.3c4 0 6.6 3 6.6 7.3zm2.8-7h2.2v1.9c.7-1.1 2.3-2.2 4.2-2.2c3.2 0 5.1 2.1 5.1 5.5c-.03.05 0 8.7 0 8.7h-2.3s.03-8.43 0-8.4c0-2.5-1.2-3.8-3.3-3.8c-1.9 0-3.2 1.2-3.6 2.5v9.7h-2.3V8.5zm20.6-.3c2.6 0 4.8 1.4 5.5 3.7l-1.7.9c-.7-1.7-2-2.6-3.8-2.6c-2.5 0-4.1 2-4.1 5.3c0 3.3 1.6 5.2 4.1 5.2c1.8 0 3.1-.9 3.8-2.6l1.7.9c-.7 2.3-2.9 3.7-5.5 3.7c-4 0-6.4-3-6.4-7.2c0-4.3 2.4-7.3 6.4-7.3zm7.3 7.3c0-4.5 2.5-7.3 6.3-7.3c3.7 0 6 2.9 6 6.9c0 .3 0 .7-.1 1.1h-9.9c.2 2.8 1.7 4.5 4.2 4.5c1.7 0 3.1-.7 3.9-2l1.5 1.2c-1 1.6-2.8 2.8-5.5 2.8c-4 0-6.4-2.8-6.4-7.2zm2.4-1.2h7.6c-.2-2.5-1.6-4.1-3.7-4.1c-2.2 0-3.6 1.4-3.9 4.1zm12.7-5.8h2.1s.03 2 0 2c1-1.4 2.7-2.3 4.4-2.3c3.7 0 6.1 3 6.1 7.3c0 4.2-2.4 7.2-6.1 7.2c-1.7 0-3.3-.8-4.3-2.1v7.1h-2.2V8.5zm10.3 7c0-3.3-1.6-5.3-4.2-5.3c-1.8 0-3.2 1-3.9 2.5v5.5c.7 1.5 2.1 2.5 3.9 2.5c2.6 0 4.2-2 4.2-5.2zm6.2 2.5c-.04-.02 0-7.6 0-7.6h-2.5V8.5h2.5V4.9h2.2v3.6h3.1v1.9h-3.1v7.6c0 1.9.8 2.5 2.7 2.5c.02.02.4 0 .4 0v1.9c-.3.1-.6.1-1 .1c-2.9 0-4.3-1.4-4.3-4.5zm13.3-11.2h3.3v3.3h-3.3V6.8zm0 10.7h3.3v3.2h-3.3v-3.2zm17.5-14.1h2.6l7 19h-2.5l-1.7-4.8h-8.2l-1.7 4.8h-2.5l7-19zm-2.1 12.2h6.8l-2.6-7.4c-.4-1.1-.7-2.2-.7-2.7h-.1c0 .5-.4 1.6-.8 2.7c.02-.02-2.6 7.4-2.6 7.4zm19.2-13.1h2.3s-.04 7.78 0 7.8c.7-1.1 2.3-2.1 4.1-2.1c3.2 0 5 2.1 5 5.5c.05.05 0 8.7 0 8.7H250V14c0-2.5-1.2-3.8-3.4-3.8c-1.8 0-3.1 1.2-3.5 2.5c-.04-.02 0 9.7 0 9.7h-2.3V2.5zm17.3 6v13.9h-2.3V8.5h2.3zm.3-6v2.8h-2.8V2.5h2.8zM261 15c0-3.9 2.2-6.8 5.7-6.8c1.8 0 3.4.9 4.4 2.2V8.5h2.1s.05 12.7 0 12.7c0 3.6-1.9 6.8-6.2 6.8c-3 0-4.9-1.6-5.7-3.5l1.7-1c.6 1.4 2 2.5 3.9 2.5c3 0 4.1-2.2 4.1-4.7v-1.6c-1 1.4-2.5 2.2-4.3 2.2c-3.5 0-5.7-2.9-5.7-6.9zm10 2.5v-4.9c-.6-1.4-2.1-2.4-3.8-2.4c-2.4 0-3.9 1.9-3.9 4.8c0 3 1.5 4.9 3.9 4.9c1.7 0 3.2-1 3.8-2.4zm6-15h2.2s.04 7.78 0 7.8c.8-1.1 2.3-2.1 4.2-2.1c3.2 0 5 2.1 5 5.5c.02.05 0 8.7 0 8.7h-2.2s-.02-8.43 0-8.4c0-2.5-1.2-3.8-3.4-3.8c-1.9 0-3.2 1.2-3.6 2.5c.04-.02 0 9.7 0 9.7H277V2.5zM291.7 15v-2.1h7.2v2.1h-7.2zm10.7-6.5h2.2s-.05 2 0 2c1-1.4 2.6-2.3 4.4-2.3c3.7 0 6 3 6 7.3c0 4.2-2.3 7.2-6 7.2c-1.8 0-3.4-.8-4.4-2.1c.03-.05 0 7.1 0 7.1h-2.2V8.5zm10.3 7c0-3.3-1.6-5.3-4.2-5.3c-1.7 0-3.2 1-3.9 2.5v5.5c.7 1.5 2.2 2.5 3.9 2.5c2.6 0 4.2-2 4.2-5.2zm4.3 0c0-4.5 2.5-7.3 6.3-7.3c3.8 0 6.1 2.9 6.1 6.9c0 .3 0 .7-.1 1.1h-9.9c.2 2.8 1.7 4.5 4.2 4.5c1.7 0 3.1-.7 3.9-2l1.5 1.2c-1 1.6-2.8 2.8-5.6 2.8c-3.9 0-6.4-2.8-6.4-7.2zm2.4-1.2h7.6c-.1-2.5-1.6-4.1-3.7-4.1c-2.1 0-3.5 1.4-3.9 4.1zm12.7-5.8h2.2s-.01 2.5 0 2.5c.7-1.5 2.1-2.8 4.1-2.8c.2 0 .4 0 .6.1c-.01-.04 0 2.2 0 2.2c0 0-.77.03-.8 0c-1.8 0-3.2 1-3.8 3.1c-.03.04 0 8.8 0 8.8h-2.3V8.5zm10 1.9h-2.4V8.5h2.4s-.03-2.03 0-2c0-2.4 1.3-4.1 4.1-4.1h1.2c-.04.01 0 1.9 0 1.9c0 0-.71-.04-.7 0c-1.6 0-2.4.7-2.4 2.2v2h3.1v1.9h-3.1v12h-2.2v-12zm17.1 5.1c0-3.3-1.6-5.3-4.2-5.3c-2.6 0-4.3 2-4.3 5.3c0 3.3 1.7 5.2 4.3 5.2c2.6 0 4.2-1.9 4.2-5.2zm2.3 0c0 4.2-2.5 7.2-6.5 7.2c-4 0-6.6-3-6.6-7.2c0-4.3 2.6-7.3 6.6-7.3c4 0 6.5 3 6.5 7.3zm2.9-7h2.1s.04 2.5 0 2.5c.8-1.5 2.2-2.8 4.2-2.8c.2 0 .3 0 .5.1c.05-.04 0 2.2 0 2.2c0 0-.71.03-.7 0c-1.9 0-3.2 1-3.9 3.1c.03.04 0 8.8 0 8.8h-2.2V8.5zm9 0h2.1s.03 1.92 0 1.9c.8-1.1 2.3-2.2 4.3-2.2c2 0 3.5.9 4.2 2.5c.7-1.2 2.4-2.5 4.6-2.5c3.2 0 5 2 5 5.5c-.01-.01 0 8.7 0 8.7h-2.3s.05-8.48 0-8.5c0-2.4-1.1-3.7-3.1-3.7c-1.9 0-3.2 1.2-3.6 2.5v9.7h-2.2s-.04-8.48 0-8.5c0-2.4-1.2-3.7-3.2-3.7c-1.9 0-3.2 1.2-3.6 2.5v9.7h-2.2V8.5zm22.7 9.6c0-2.5 2-4.5 5.1-4.5c1.5 0 2.9.5 3.9 1.6v-1.4c0-2-1.1-3.6-3.4-3.6c-1.6 0-2.5.6-3.5 1.6l-1.3-1.5c1-1.1 2.4-2.1 4.9-2.1c3.6 0 5.5 2.2 5.5 5.4c.04.04 0 8.8 0 8.8h-2.1s-.02-1.37 0-1.4c-1.1 1.1-2.5 1.7-4 1.7c-3.1 0-5.1-2-5.1-4.6zm9 1v-1.9c-.7-1.2-2.3-1.7-3.6-1.7c-2.2 0-3.1 1.4-3.1 2.6c0 1.3.9 2.7 3.1 2.7c1.3 0 2.9-.4 3.6-1.7zm5.8-10.6h2.2s-.02 1.92 0 1.9c.7-1.1 2.3-2.2 4.2-2.2c3.2 0 5 2.1 5 5.5c.05.05 0 8.7 0 8.7h-2.2V14c0-2.5-1.2-3.8-3.4-3.8c-1.8 0-3.1 1.2-3.5 2.5c-.04-.02 0 9.7 0 9.7h-2.3V8.5zm20.6-.3c2.6 0 4.7 1.4 5.5 3.7l-1.7.9c-.7-1.7-2-2.6-3.8-2.6c-2.5 0-4.1 2-4.1 5.3c0 3.3 1.6 5.2 4.1 5.2c1.8 0 3.1-.9 3.8-2.6l1.7.9c-.8 2.3-2.9 3.7-5.5 3.7c-4 0-6.4-3-6.4-7.2c0-4.3 2.4-7.3 6.4-7.3zm7.3 7.3c0-4.5 2.4-7.3 6.3-7.3c3.7 0 6 2.9 6 6.9c0 .3 0 .7-.1 1.1h-9.9c.2 2.8 1.7 4.5 4.2 4.5c1.7 0 3.1-.7 3.9-2l1.5 1.2c-1 1.6-2.8 2.8-5.6 2.8c-3.9 0-6.3-2.8-6.3-7.2zm2.3-1.2h7.6c-.1-2.5-1.5-4.1-3.6-4.1c-2.2 0-3.6 1.4-4 4.1zm24-6.1c2.7 0 4.8 1.4 5.6 3.7l-1.8.9c-.6-1.7-2-2.6-3.8-2.6c-2.5 0-4.1 2-4.1 5.3c0 3.3 1.6 5.2 4.1 5.2c1.8 0 3.2-.9 3.8-2.6l1.8.9c-.8 2.3-2.9 3.7-5.6 3.7c-4 0-6.4-3-6.4-7.2c0-4.3 2.4-7.3 6.4-7.3zm18.1 7.3c0-3.3-1.7-5.3-4.3-5.3c-2.5 0-4.2 2-4.2 5.3c0 3.3 1.7 5.2 4.2 5.2c2.6 0 4.3-1.9 4.3-5.2zm2.3 0c0 4.2-2.6 7.2-6.6 7.2c-3.9 0-6.5-3-6.5-7.2c0-4.3 2.6-7.3 6.5-7.3c4 0 6.6 3 6.6 7.3zm2.8-7h2.2v1.9c.7-1.1 2.3-2.2 4.2-2.2c2.1 0 3.5.9 4.3 2.5c.7-1.2 2.4-2.5 4.6-2.5c3.2 0 5 2 5 5.5c-.04-.01 0 8.7 0 8.7h-2.3s.02-8.48 0-8.5c0-2.4-1.1-3.7-3.1-3.7c-1.9 0-3.2 1.2-3.6 2.5c-.03-.02 0 9.7 0 9.7h-2.3s.03-8.48 0-8.5c0-2.4-1.1-3.7-3.1-3.7c-1.9 0-3.2 1.2-3.6 2.5c-.02-.02 0 9.7 0 9.7h-2.3V8.5zm23.8 0h2.2v2c1-1.4 2.6-2.3 4.4-2.3c3.7 0 6.1 3 6.1 7.3c0 4.2-2.4 7.2-6.1 7.2c-1.7 0-3.3-.8-4.3-2.1c-.02-.05 0 7.1 0 7.1h-2.3V8.5zm10.3 7c0-3.3-1.5-5.3-4.2-5.3c-1.7 0-3.2 1-3.8 2.5v5.5c.6 1.5 2.1 2.5 3.8 2.5c2.7 0 4.2-2 4.2-5.2zm4.2 2.6c0-2.5 2-4.5 5.1-4.5c1.5 0 2.9.5 3.9 1.6v-1.4c0-2-1.1-3.6-3.4-3.6c-1.7 0-2.5.6-3.5 1.6l-1.3-1.5c1-1.1 2.4-2.1 4.8-2.1c3.7 0 5.6 2.2 5.6 5.4c.02.04 0 8.8 0 8.8h-2.1s-.04-1.37 0-1.4c-1.1 1.1-2.5 1.7-4 1.7c-3.1 0-5.1-2-5.1-4.6zm9 1v-1.9c-.8-1.2-2.3-1.7-3.6-1.7c-2.2 0-3.1 1.4-3.1 2.6c0 1.3.9 2.7 3.1 2.7c1.3 0 2.8-.4 3.6-1.7zm11.3-10.9c2.7 0 4.8 1.4 5.6 3.7l-1.8.9c-.6-1.7-2-2.6-3.8-2.6c-2.4 0-4 2-4 5.3c0 3.3 1.6 5.2 4 5.2c1.8 0 3.2-.9 3.8-2.6l1.8.9c-.8 2.3-2.9 3.7-5.6 3.7c-4 0-6.4-3-6.4-7.2c0-4.3 2.4-7.3 6.4-7.3zm9.2 9.8c-.03-.02 0-7.6 0-7.6h-2.5V8.5h2.5V4.9h2.2v3.6h3.1v1.9h-3.1v7.6c0 1.9.9 2.5 2.7 2.5c.03.02.4 0 .4 0c0 0 .02 1.93 0 1.9c-.3.1-.6.1-1 .1c-2.8 0-4.3-1.4-4.3-4.5zm20.7-6.3c-.8-1.1-1.9-1.6-3.1-1.6c-1.3 0-2.1.9-2.1 1.9c0 1 .7 1.7 1.8 1.9l1.2.3c2.6.5 4.2 1.7 4.2 4.2c0 2.2-1.9 4.3-5.2 4.3c-2.5 0-4.3-1.4-5.3-2.9l1.5-1.3c.8 1.2 2.1 2.3 3.8 2.3c1.8 0 2.9-.9 2.9-2.3c0-1.3-1-1.9-2.5-2.2l-1.2-.3c-2.2-.5-3.4-1.7-3.4-3.8c0-2.1 1.6-4 4.4-4c2 0 3.5.9 4.4 2.3l-1.4 1.2zm3.9 3.8c0-4.5 2.4-7.3 6.3-7.3c3.7 0 6 2.9 6 6.9c0 .3 0 .7-.1 1.1H583c.2 2.8 1.7 4.5 4.2 4.5c1.7 0 3.1-.7 3.9-2l1.5 1.2c-1 1.6-2.8 2.8-5.6 2.8c-3.9 0-6.3-2.8-6.3-7.2zm2.3-1.2h7.7c-.2-2.5-1.6-4.1-3.7-4.1c-2.2 0-3.6 1.4-4 4.1zm22.4 6.1c-1.1 1.4-2.7 2.3-4.5 2.3c-3.7 0-6-3-6-7.2c0-4.3 2.3-7.3 6-7.3c1.8 0 3.3.8 4.4 2.2c-.03-.01 0-7.9 0-7.9h2.2v19.9h-2.1s-.05-1.96 0-2zm-.1-2.2v-5.5c-.7-1.5-2.2-2.5-3.9-2.5c-2.6 0-4.2 2-4.2 5.3c0 3.2 1.6 5.2 4.2 5.2c1.7 0 3.2-1 3.9-2.5zm4.9-.1c0-2.5 2-4.5 5.1-4.5c1.5 0 2.9.5 3.9 1.6v-1.4c0-2-1.1-3.6-3.4-3.6c-1.7 0-2.5.6-3.5 1.6l-1.3-1.5c1-1.1 2.4-2.1 4.9-2.1c3.6 0 5.5 2.2 5.5 5.4c.02.04 0 8.8 0 8.8h-2.1s-.03-1.37 0-1.4c-1.1 1.1-2.5 1.7-4 1.7c-3.1 0-5.1-2-5.1-4.6zm9 1v-1.9c-.7-1.2-2.3-1.7-3.6-1.7c-2.2 0-3.1 1.4-3.1 2.6c0 1.3.9 2.7 3.1 2.7c1.3 0 2.9-.4 3.6-1.7zM625 8.5h2.2s-.04 1.92 0 1.9c.7-1.1 2.3-2.2 4.2-2.2c3.2 0 5 2.1 5 5.5c.03.05 0 8.7 0 8.7h-2.2V14c0-2.5-1.2-3.8-3.4-3.8c-1.8 0-3.2 1.2-3.6 2.5c.05-.02 0 9.7 0 9.7H625V8.5zm21.7 9.5c.03-.02 0-7.6 0-7.6h-2.5V8.5h2.6V4.9h2.2v3.6h3.1v1.9H649s-.03 7.58 0 7.6c0 1.9.8 2.5 2.7 2.5c-.01.02.4 0 .4 0c0 0-.02 1.93 0 1.9c-.3.1-.7.1-1 .1c-2.9 0-4.4-1.4-4.4-4.5zm7.9-15.5h2.3s-.03 7.78 0 7.8c.7-1.1 2.3-2.1 4.1-2.1c3.2 0 5.1 2.1 5.1 5.5c-.05.05 0 8.7 0 8.7h-2.3V14c0-2.5-1.2-3.8-3.3-3.8c-1.9 0-3.2 1.2-3.6 2.5c-.03-.02 0 9.7 0 9.7h-2.3V2.5zm14 15.6c0-2.5 2-4.5 5.1-4.5c1.5 0 2.9.5 3.9 1.6v-1.4c0-2-1.1-3.6-3.4-3.6c-1.7 0-2.5.6-3.5 1.6l-1.3-1.5c1-1.1 2.4-2.1 4.8-2.1c3.7 0 5.6 2.2 5.6 5.4v8.8h-2.2s.05-1.37 0-1.4c-1 1.1-2.4 1.7-3.9 1.7c-3.1 0-5.1-2-5.1-4.6zm9 1v-1.9c-.8-1.2-2.3-1.7-3.6-1.7c-2.3 0-3.2 1.4-3.2 2.6c0 1.3.9 2.7 3.2 2.7c1.3 0 2.8-.4 3.6-1.7zm6.6-1.1c-.03-.02 0-7.6 0-7.6h-2.5V8.5h2.5V4.9h2.2v3.6h3.1v1.9h-3.1v7.6c0 1.9.8 2.5 2.7 2.5c.03.02.4 0 .4 0c0 0 .02 1.93 0 1.9c-.3.1-.6.1-1 .1c-2.8 0-4.3-1.4-4.3-4.5zm9.3-9.2H692l-.5-6.8h2.5l-.5 6.8zm10.7 2.9c-.8-1.1-1.8-1.6-3-1.6c-1.4 0-2.1.9-2.1 1.9c0 1 .7 1.7 1.8 1.9l1.2.3c2.6.5 4.2 1.7 4.2 4.2c0 2.2-1.9 4.3-5.2 4.3c-2.5 0-4.3-1.4-5.3-2.9l1.5-1.3c.8 1.2 2.1 2.3 3.8 2.3c1.8 0 2.9-.9 2.9-2.3c0-1.3-1-1.9-2.6-2.2l-1.1-.3c-2.2-.5-3.4-1.7-3.4-3.8c0-2.1 1.5-4 4.4-4c1.9 0 3.5.9 4.4 2.3l-1.5 1.2zm11.5-1.3h-2.4V8.5h2.4v-2c0-2.4 1.4-4.1 4.1-4.1h1.2v1.9s-.68-.04-.7 0c-1.6 0-2.4.7-2.4 2.2c.04 0 0 2 0 2h3.1v1.9h-3.1v12h-2.2v-12zm18.8 12h-2.2s.03-1.88 0-1.9c-.7 1.1-2.3 2.2-4.2 2.2c-3.2 0-5-2.1-5-5.5c-.04-.04 0-8.7 0-8.7h2.2v8.4c0 2.5 1.2 3.8 3.4 3.8c1.8 0 3.1-1.2 3.5-2.5c.04.03 0-9.7 0-9.7h2.3v13.9zm3.7-13.9h2.2v1.9c.7-1.1 2.3-2.2 4.2-2.2c3.2 0 5.1 2.1 5.1 5.5c-.04.05 0 8.7 0 8.7h-2.3s.02-8.43 0-8.4c0-2.5-1.2-3.8-3.3-3.8c-1.9 0-3.2 1.2-3.6 2.5c-.02-.02 0 9.7 0 9.7h-2.3V8.5zM753 15v-2.1h7.2v2.1H753zm11.1 3v-7.6h-2.5V8.5h2.5V4.9h2.2v3.6h3.2v1.9h-3.2s.05 7.58 0 7.6c0 1.9.9 2.5 2.8 2.5c-.04.02.4 0 .4 0c0 0-.04 1.93 0 1.9c-.3.1-.7.1-1.1.1c-2.8 0-4.3-1.4-4.3-4.5zm17.8-2.5c0-3.3-1.7-5.3-4.2-5.3c-2.6 0-4.3 2-4.3 5.3c0 3.3 1.7 5.2 4.3 5.2c2.5 0 4.2-1.9 4.2-5.2zm2.3 0c0 4.2-2.6 7.2-6.5 7.2c-4 0-6.6-3-6.6-7.2c0-4.3 2.6-7.3 6.6-7.3c3.9 0 6.5 3 6.5 7.3zm2.6-.5v-2.1h7.2v2.1h-7.2zm20.3 5.4c-1.1 1.4-2.7 2.3-4.5 2.3c-3.7 0-6-3-6-7.2c0-4.3 2.3-7.3 6-7.3c1.8 0 3.3.8 4.4 2.2c-.03-.01 0-7.9 0-7.9h2.2v19.9h-2.1s-.04-1.96 0-2zm-.1-2.2v-5.5c-.7-1.5-2.2-2.5-3.9-2.5c-2.6 0-4.2 2-4.2 5.3c0 3.2 1.6 5.2 4.2 5.2c1.7 0 3.2-1 3.9-2.5zm6-9.7h2.1s.02 2.5 0 2.5c.8-1.5 2.2-2.8 4.1-2.8c.2 0 .4 0 .6.1c.03-.04 0 2.2 0 2.2c0 0-.73.03-.7 0c-1.9 0-3.2 1-3.9 3.1c.01.04 0 8.8 0 8.8H813V8.5zm11.2 0v13.9H822V8.5h2.2zm.3-6v2.8h-2.8V2.5h2.8zm1.9 6h2.4l3.2 9c.4 1.1.7 2.2.7 2.6h.1c0-.4.4-1.5.7-2.6c.05-.03 3.2-9 3.2-9h2.4l-5.2 13.9h-2.2l-5.3-13.9zm13.7 7c0-4.5 2.5-7.3 6.3-7.3c3.7 0 6 2.9 6 6.9c0 .3 0 .7-.1 1.1h-9.9c.2 2.8 1.7 4.5 4.2 4.5c1.7 0 3.1-.7 3.9-2l1.5 1.2c-1 1.6-2.8 2.8-5.5 2.8c-4 0-6.4-2.8-6.4-7.2zm2.4-1.2h7.6c-.2-2.5-1.6-4.1-3.7-4.1c-2.2 0-3.6 1.4-3.9 4.1zm17.3 3.8c0-2.5 2-4.5 5.2-4.5c1.4 0 2.8.5 3.8 1.6v-1.4c0-2-1.1-3.6-3.4-3.6c-1.6 0-2.5.6-3.5 1.6l-1.3-1.5c1.1-1.1 2.5-2.1 4.9-2.1c3.6 0 5.6 2.2 5.6 5.4c-.03.04 0 8.8 0 8.8h-2.2V21c-1 1.1-2.5 1.7-3.9 1.7c-3.2 0-5.2-2-5.2-4.6zm9 1v-1.9c-.7-1.2-2.3-1.7-3.5-1.7c-2.3 0-3.2 1.4-3.2 2.6c0 1.3.9 2.7 3.2 2.7c1.2 0 2.8-.4 3.5-1.7zm5.8-10.6h2.2v1.9c.7-1.1 2.3-2.2 4.2-2.2c3.3 0 5.1 2.1 5.1 5.5c-.03.05 0 8.7 0 8.7h-2.3s.03-8.43 0-8.4c0-2.5-1.2-3.8-3.3-3.8c-1.9 0-3.2 1.2-3.6 2.5v9.7h-2.3V8.5zm24.7 11.9c-1.1 1.4-2.7 2.3-4.5 2.3c-3.7 0-6-3-6-7.2c0-4.3 2.3-7.3 6-7.3c1.8 0 3.3.8 4.4 2.2c-.02-.01 0-7.9 0-7.9h2.2v19.9h-2.1s-.04-1.96 0-2zm-.1-2.2v-5.5c-.7-1.5-2.2-2.5-3.9-2.5c-2.6 0-4.2 2-4.2 5.3c0 3.2 1.6 5.2 4.2 5.2c1.7 0 3.2-1 3.9-2.5zm10.2-9.7h2.3s3.24 8.97 3.2 9c.4 1.1.8 2.2.8 2.6h.1c0-.4.3-1.5.7-2.6l3.2-9h2.4l-5.3 13.9h-2.2l-5.2-13.9zm13.6 7c0-4.5 2.5-7.3 6.3-7.3c3.8 0 6.1 2.9 6.1 6.9c0 .3 0 .7-.1 1.1h-9.9c.2 2.8 1.7 4.5 4.2 4.5c1.7 0 3.1-.7 3.9-2l1.5 1.2c-1 1.6-2.8 2.8-5.6 2.8c-3.9 0-6.4-2.8-6.4-7.2zm2.4-1.2h7.6c-.1-2.5-1.6-4.1-3.7-4.1c-2.1 0-3.6 1.4-3.9 4.1zm12.7-5.8h2.2s-.02 2.5 0 2.5c.7-1.5 2.1-2.8 4.1-2.8c.2 0 .4 0 .6.1c-.01-.04 0 2.2 0 2.2c0 0-.77.03-.8 0c-1.8 0-3.2 1-3.8 3.1c-.03.04 0 8.8 0 8.8h-2.3V8.5zm15.8 3.2c-.8-1.1-1.8-1.6-3-1.6c-1.4 0-2.1.9-2.1 1.9c0 1 .6 1.7 1.8 1.9l1.2.3c2.6.5 4.2 1.7 4.2 4.2c0 2.2-2 4.3-5.3 4.3c-2.4 0-4.2-1.4-5.2-2.9l1.4-1.3c.9 1.2 2.1 2.3 3.9 2.3c1.7 0 2.9-.9 2.9-2.3c0-1.3-1-1.9-2.6-2.2l-1.2-.3c-2.1-.5-3.4-1.7-3.4-3.8c0-2.1 1.6-4 4.5-4c1.9 0 3.4.9 4.4 2.3l-1.5 1.2zm3.7 6.4c0-2.5 2-4.5 5.1-4.5c1.5 0 2.9.5 3.9 1.6v-1.4c0-2-1.1-3.6-3.4-3.6c-1.6 0-2.5.6-3.5 1.6l-1.3-1.5c1-1.1 2.4-2.1 4.9-2.1c3.6 0 5.5 2.2 5.5 5.4c.04.04 0 8.8 0 8.8h-2.1V21c-1.1 1.1-2.5 1.7-4 1.7c-3.1 0-5.1-2-5.1-4.6zm9 1v-1.9c-.7-1.2-2.3-1.7-3.6-1.7c-2.2 0-3.1 1.4-3.1 2.6c0 1.3.9 2.7 3.1 2.7c1.3 0 2.9-.4 3.6-1.7zm6.6-1.1v-7.6h-2.5V8.5h2.5V4.9h2.2v3.6h3.2v1.9h-3.2s.05 7.58 0 7.6c0 1.9.9 2.5 2.8 2.5c-.03.02.4 0 .4 0c0 0-.04 1.93 0 1.9c-.3.1-.7.1-1.1.1c-2.8 0-4.3-1.4-4.3-4.5zm10.1-9.5v13.9h-2.2V8.5h2.2zm.3-6v2.8h-2.8V2.5h2.8zm5.7 0v19.9h-2.2V2.5h2.2zm2.9 13c0-4.5 2.5-7.3 6.3-7.3c3.7 0 6.1 2.9 6.1 6.9c0 .3-.1.7-.1 1.1h-9.9c.2 2.8 1.7 4.5 4.1 4.5c1.8 0 3.2-.7 4-2l1.5 1.2c-1.1 1.6-2.9 2.8-5.6 2.8c-3.9 0-6.4-2.8-6.4-7.2zm2.4-1.2h7.6c-.1-2.5-1.6-4.1-3.7-4.1c-2.1 0-3.6 1.4-3.9 4.1zm17.6 1.2c0-4.5 2.5-7.3 6.3-7.3c3.7 0 6 2.9 6 6.9c0 .3 0 .7-.1 1.1h-9.9c.2 2.8 1.7 4.5 4.2 4.5c1.7 0 3.1-.7 3.9-2l1.5 1.2c-1 1.6-2.8 2.8-5.5 2.8c-4 0-6.4-2.8-6.4-7.2zm2.4-1.2h7.6c-.2-2.5-1.6-4.1-3.7-4.1c-2.1 0-3.6 1.4-3.9 4.1zm12.7-5.8h2.1s.03 1.92 0 1.9c.8-1.1 2.3-2.2 4.3-2.2c3.2 0 5 2.1 5 5.5v8.7h-2.2s-.04-8.43 0-8.4c0-2.5-1.3-3.8-3.4-3.8c-1.9 0-3.2 1.2-3.6 2.5c.02-.02 0 9.7 0 9.7h-2.2V8.5zm24.9 7c0-3.3-1.7-5.3-4.3-5.3c-2.5 0-4.2 2-4.2 5.3c0 3.3 1.7 5.2 4.2 5.2c2.6 0 4.3-1.9 4.3-5.2zm2.3 0c0 4.2-2.6 7.2-6.6 7.2c-3.9 0-6.5-3-6.5-7.2c0-4.3 2.6-7.3 6.5-7.3c4 0 6.6 3 6.6 7.3zm14.1 6.9h-2.2s.05-1.88 0-1.9c-.7 1.1-2.2 2.2-4.2 2.2c-3.2 0-5-2.1-5-5.5c-.02-.04 0-8.7 0-8.7h2.2s.02 8.44 0 8.4c0 2.5 1.3 3.8 3.4 3.8c1.9 0 3.1-1.2 3.6-2.5c-.04.03 0-9.7 0-9.7h2.2v13.9zm2.9-7.4c0-3.9 2.3-6.8 5.8-6.8c1.7 0 3.3.9 4.3 2.2c.02.04 0-1.9 0-1.9h2.2s-.02 12.7 0 12.7c0 3.6-2 6.8-6.3 6.8c-3 0-4.8-1.6-5.7-3.5l1.7-1c.7 1.4 2 2.5 3.9 2.5c3 0 4.1-2.2 4.1-4.7v-1.6c-1 1.4-2.5 2.2-4.2 2.2c-3.5 0-5.8-2.9-5.8-6.9zm10 2.5v-4.9c-.6-1.4-2-2.4-3.7-2.4c-2.5 0-4 1.9-4 4.8c0 3 1.5 4.9 4 4.9c1.7 0 3.1-1 3.7-2.4zm6-15h2.3s-.03 7.78 0 7.8c.7-1.1 2.3-2.1 4.1-2.1c3.2 0 5.1 2.1 5.1 5.5c-.05.05 0 8.7 0 8.7h-2.3V14c0-2.5-1.2-3.8-3.3-3.8c-1.9 0-3.2 1.2-3.6 2.5c-.03-.02 0 9.7 0 9.7h-2.3V2.5zm21.7 7.9h-2.3V8.5h2.3s.03-2.03 0-2c0-2.4 1.4-4.1 4.1-4.1h1.2c.02.01 0 1.9 0 1.9c0 0-.65-.04-.6 0c-1.7 0-2.4.7-2.4 2.2c-.03 0 0 2 0 2h3v1.9h-3v12h-2.3v-12zm17.2 5.1c0-3.3-1.7-5.3-4.3-5.3c-2.5 0-4.2 2-4.2 5.3c0 3.3 1.7 5.2 4.2 5.2c2.6 0 4.3-1.9 4.3-5.2zm2.3 0c0 4.2-2.6 7.2-6.6 7.2c-3.9 0-6.5-3-6.5-7.2c0-4.3 2.6-7.3 6.5-7.3c4 0 6.6 3 6.6 7.3zm2.8-7h2.2v2.5c.8-1.5 2.1-2.8 4.1-2.8c.2 0 .4 0 .6.1c.01-.04 0 2.2 0 2.2c0 0-.75.03-.7 0c-1.9 0-3.2 1-3.9 3.1c-.01.04 0 8.8 0 8.8h-2.3V8.5zm13.9 7c0-4.5 2.5-7.3 6.3-7.3c3.7 0 6.1 2.9 6.1 6.9c0 .3-.1.7-.1 1.1h-9.9c.2 2.8 1.7 4.5 4.1 4.5c1.7 0 3.1-.7 3.9-2l1.6 1.2c-1.1 1.6-2.9 2.8-5.6 2.8c-4 0-6.4-2.8-6.4-7.2zm2.4-1.2h7.6c-.1-2.5-1.6-4.1-3.7-4.1c-2.1 0-3.6 1.4-3.9 4.1zm10.8-5.8h2.3s3.24 8.97 3.2 9c.4 1.1.8 2.2.8 2.6h.1c0-.4.3-1.5.7-2.6l3.2-9h2.4l-5.3 13.9h-2.2l-5.2-13.9zm13.6 7c0-4.5 2.5-7.3 6.3-7.3c3.8 0 6.1 2.9 6.1 6.9c0 .3-.1.7-.1 1.1h-9.9c.2 2.8 1.7 4.5 4.2 4.5c1.7 0 3.1-.7 3.9-2l1.5 1.2c-1.1 1.6-2.8 2.8-5.6 2.8c-3.9 0-6.4-2.8-6.4-7.2zm2.4-1.2h7.6c-.1-2.5-1.6-4.1-3.7-4.1c-2.1 0-3.6 1.4-3.9 4.1zm12.7-5.8h2.2s-.02 2.5 0 2.5c.7-1.5 2.1-2.8 4.1-2.8c.2 0 .4 0 .6.1c-.02-.04 0 2.2 0 2.2c0 0-.77.03-.8 0c-1.8 0-3.2 1-3.8 3.1c-.04.04 0 8.8 0 8.8h-2.3V8.5zm12.8 12.5l-5.3-12.5h2.4s3.17 7.96 3.2 8c.4 1 .8 2 .8 2.5c.2-.8.4-1.5.8-2.5c-.01-.04 3-8 3-8h2.4l-7.7 19.2h-2.4l2.8-6.7zm18.6-.6c-1 1.4-2.6 2.3-4.4 2.3c-3.7 0-6-3-6-7.2c0-4.3 2.3-7.3 6-7.3c1.7 0 3.3.8 4.4 2.2c-.05-.01 0-7.9 0-7.9h2.2v19.9h-2.2s.04-1.96 0-2zm0-2.2v-5.5c-.7-1.5-2.2-2.5-3.9-2.5c-2.6 0-4.2 2-4.2 5.3c0 3.2 1.6 5.2 4.2 5.2c1.7 0 3.2-1 3.9-2.5zm4.9-.1c0-2.5 2-4.5 5.1-4.5c1.5 0 2.9.5 3.9 1.6v-1.4c0-2-1.1-3.6-3.4-3.6c-1.7 0-2.5.6-3.5 1.6l-1.3-1.5c1-1.1 2.4-2.1 4.8-2.1c3.7 0 5.6 2.2 5.6 5.4c.01.04 0 8.8 0 8.8h-2.1s-.05-1.37 0-1.4c-1.1 1.1-2.5 1.7-4 1.7c-3.1 0-5.1-2-5.1-4.6zm9 1v-1.9c-.8-1.2-2.3-1.7-3.6-1.7c-2.3 0-3.2 1.4-3.2 2.6c0 1.3.9 2.7 3.2 2.7c1.3 0 2.8-.4 3.6-1.7zm9.2 1.9l-5.4-12.5h2.4l3.2 8c.4 1 .8 2 .8 2.5c.2-.8.4-1.5.8-2.5c0-.04 3-8 3-8h2.4l-7.7 19.2h-2.4l2.9-6.7zm26.3 1.4h-2.1s-.03-1.88 0-1.9c-.8 1.1-2.3 2.2-4.3 2.2c-3.2 0-5-2.1-5-5.5c.01-.04 0-8.7 0-8.7h2.2s.05 8.44 0 8.4c0 2.5 1.3 3.8 3.4 3.8c1.9 0 3.2-1.2 3.6-2.5V8.5h2.2v13.9zm10.8-10.7c-.8-1.1-1.8-1.6-3-1.6c-1.4 0-2.1.9-2.1 1.9c0 1 .7 1.7 1.8 1.9l1.2.3c2.6.5 4.2 1.7 4.2 4.2c0 2.2-2 4.3-5.3 4.3c-2.4 0-4.2-1.4-5.2-2.9l1.5-1.3c.8 1.2 2.1 2.3 3.8 2.3c1.8 0 2.9-.9 2.9-2.3c0-1.3-1-1.9-2.6-2.2l-1.1-.3c-2.2-.5-3.5-1.7-3.5-3.8c0-2.1 1.6-4 4.5-4c1.9 0 3.5.9 4.4 2.3l-1.5 1.2zm3.9 3.8c0-4.5 2.5-7.3 6.3-7.3c3.8 0 6.1 2.9 6.1 6.9c0 .3-.1.7-.1 1.1h-9.9c.2 2.8 1.7 4.5 4.2 4.5c1.7 0 3.1-.7 3.9-2l1.5 1.2c-1.1 1.6-2.8 2.8-5.6 2.8c-3.9 0-6.4-2.8-6.4-7.2zm2.4-1.2h7.6c-.1-2.5-1.6-4.1-3.7-4.1c-2.1 0-3.6 1.4-3.9 4.1zm12.4 6.3h3.3v3.3h-3.3v-3.3z" stroke="none" fill="#fff"/></g></svg>