<?xml version="1.0" standalone="no"?><!DOCTYPE svg PUBLIC "-//W3C//DTD SVG 1.1//EN" "http://www.w3.org/Graphics/SVG/1.1/DTD/svg11.dtd"><svg xmlns="http://www.w3.org/2000/svg" version="1.1" width="36px" height="20.4px" viewBox="0 -4 36 20.4" style="top:-4px"><desc>Menu</desc><defs/><g id="Polygon57667"><path d="m1.8 1.6h1.6l3.1 7.3l3.2-7.3h1.6v8.8h-1.2v-7l-3 7H6l-3-7v7H1.8V1.6zm11.1 5.6c0-2.1 1.3-3.5 3.2-3.5c1.9 0 3.1 1.4 3.1 3.2v.7h-5.1c.1 1.1.9 1.9 2.2 1.9c.8 0 1.6-.5 2.1-1.1l.7.7c-.7.9-1.6 1.5-2.9 1.5c-2 0-3.3-1.5-3.3-3.4zm1.2-.6h3.9c0-1.1-.8-1.8-1.9-1.8c-1.1 0-1.8.6-2 1.8zm6.5-2.7h1.1s.04.98 0 1c.4-.6 1.1-1.2 2.2-1.2c1.7 0 2.6 1.1 2.6 2.9c-.03 0 0 3.8 0 3.8h-1.2V6.7c0-1.2-.6-1.9-1.7-1.9c-1 0-1.7.6-1.9 1.3c.04.05 0 4.3 0 4.3h-1.1V3.9zM34 10.4h-1.1s-.03-.99 0-1c-.4.6-1.1 1.1-2.2 1.1c-1.7 0-2.6-1-2.6-2.8c.04-.02 0-3.8 0-3.8h1.2s.01 3.67 0 3.7c0 1.2.6 1.9 1.7 1.9c1 0 1.7-.6 1.9-1.4c-.03.04 0-4.2 0-4.2h1.1v6.5z" stroke="none" fill="#676767"/></g></svg>