<?xml version="1.0" standalone="no"?><!DOCTYPE svg PUBLIC "-//W3C//DTD SVG 1.1//EN" "http://www.w3.org/Graphics/SVG/1.1/DTD/svg11.dtd"><svg xmlns="http://www.w3.org/2000/svg" version="1.1" width="70px" height="20.4px" viewBox="0 -4 70 20.4" style="top:-4px"><desc>Full Screen</desc><defs/><g id="Polygon57569"><path d="m3.5 1.6h5.9v1H4.7v2.8h4.2v1.1H4.7v3.9H3.5V1.6zm12.8 8.8h-1.1s-.04-.99 0-1c-.4.6-1.1 1.1-2.2 1.1c-1.7 0-2.6-1-2.6-2.8c.02-.02 0-3.8 0-3.8h1.2s-.01 3.67 0 3.7c0 1.2.6 1.9 1.7 1.9c1 0 1.7-.6 1.9-1.4c-.04.04 0-4.2 0-4.2h1.1v6.5zm1.8-9.2h1.2v9.2h-1.2V1.2zm3 0h1.2v9.2h-1.2V1.2zm5.3 7.3l.9-.8c.5.9 1.4 1.7 2.8 1.7c1.3 0 2-.7 2-1.6c0-.8-.6-1.2-1.7-1.4l-.8-.1c-1.5-.3-2.5-1.1-2.5-2.4c0-1.3 1.1-2.5 3.1-2.5c1.3 0 2.4.6 2.9 1.5l-.8.8c-.5-.8-1.3-1.2-2.2-1.2c-1.1 0-1.7.6-1.7 1.3c0 .7.5 1.2 1.4 1.3l.8.1c1.7.3 2.8 1.1 2.8 2.6c0 1.6-1.3 2.8-3.3 2.8c-2 0-3.1-1.1-3.7-2.1zm8-1.4c0-1.8 1.3-3.4 3.3-3.4c1.3 0 2.3.7 2.9 1.7l-.9.6c-.4-.7-1.1-1.2-2-1.2c-1.2 0-2.1.9-2.1 2.3c0 1.5.9 2.4 2.1 2.4c.9 0 1.6-.5 2-1.2l.9.6c-.6 1-1.6 1.6-2.9 1.6c-2 0-3.3-1.5-3.3-3.4zm7.4-3.2h1.2s.01 1.11 0 1.1c.4-.7 1.1-1.3 2.1-1.3c-.03.04.1 0 .1 0v1.2c-1 0-1.8.4-2.2 1.4v4.1h-1.2V3.9zm4.1 3.3c0-2.1 1.3-3.5 3.2-3.5c1.9 0 3.1 1.4 3.1 3.2v.7h-5.1c.1 1.1.9 1.9 2.2 1.9c.8 0 1.6-.5 2.1-1.1l.7.7c-.6.9-1.6 1.5-2.9 1.5c-2 0-3.3-1.5-3.3-3.4zm1.2-.6h4c-.1-1.1-.9-1.8-2-1.8c-1 0-1.8.6-2 1.8zm6.1.6c0-2.1 1.3-3.5 3.2-3.5c1.9 0 3.1 1.4 3.1 3.2v.7h-5.1c.1 1.1.9 1.9 2.1 1.9c.9 0 1.7-.5 2.2-1.1l.7.7c-.7.9-1.7 1.5-2.9 1.5c-2 0-3.3-1.5-3.3-3.4zm1.2-.6h3.9c0-1.1-.8-1.8-1.9-1.8c-1.1 0-1.8.6-2 1.8zm6.5-2.7h1.1s.03.98 0 1c.4-.6 1.1-1.2 2.2-1.2c1.7 0 2.6 1.1 2.6 2.9c-.03 0 0 3.8 0 3.8h-1.2V6.7c0-1.2-.6-1.9-1.7-1.9c-1 0-1.7.6-1.9 1.3c.03.05 0 4.3 0 4.3h-1.1V3.9z" stroke="none" fill="#676767"/></g></svg>