<?xml version="1.0" standalone="no"?><!DOCTYPE svg PUBLIC "-//W3C//DTD SVG 1.1//EN" "http://www.w3.org/Graphics/SVG/1.1/DTD/svg11.dtd"><svg xmlns="http://www.w3.org/2000/svg" version="1.1" width="1481px" height="151.5px" viewBox="0 -6 1481 151.5" style="top:-6px"><desc>외장_사이드_텍스트_1@</desc><defs/><g id="Polygon59384"><path d="m8.9 105.7l-1.1 3.9h1.3v2.4H6.4v-2.2l1.1-4.1h1.4zm-4.7 0L3 109.6h1.4v2.4H1.7v-2.2l1.1-4.1h1.4zm12.2 1.2h2.2l6 16.3h-2.1l-1.5-4.1h-7l-1.5 4.1h-2.1l6-16.3zm-1.8 10.5h5.8s-2.23-6.39-2.2-6.4c-.4-1-.7-1.9-.7-2.2c0 .3-.3 1.2-.7 2.2c.02.01-2.2 6.4-2.2 6.4zm17.3-4.5h-2.1v-1.6h2.1s-.03-1.76 0-1.8c0-2 1.1-3.5 3.5-3.5c.3 0 .7 0 1 .1v1.5s-.57.05-.6 0c-1.4 0-2 .6-2 2c-.01-.03 0 1.7 0 1.7h2.6v1.6h-2.6v10.3h-1.9v-10.3zm6.4-1.6h1.9s-.02 2.13 0 2.1c.6-1.3 1.8-2.4 3.5-2.4c.2 0 .3 0 .5.1v1.9s-.64.02-.6 0c-1.6 0-2.8.9-3.4 2.7c.05-.01 0 7.5 0 7.5h-1.9v-11.9zm16.2 5.9c0-2.8-1.4-4.5-3.6-4.5c-2.2 0-3.6 1.7-3.6 4.5c0 2.9 1.4 4.6 3.6 4.6c2.2 0 3.6-1.7 3.6-4.6zm2 0c0 3.7-2.2 6.3-5.6 6.3c-3.4 0-5.6-2.6-5.6-6.3c0-3.6 2.2-6.2 5.6-6.2c3.4 0 5.6 2.6 5.6 6.2zm2.4-5.9h1.9v1.6c.6-.9 2-1.9 3.6-1.9c2.8 0 4.3 1.8 4.3 4.8c.03-.02 0 7.4 0 7.4h-1.9s.01-7.22 0-7.2c0-2.2-1-3.3-2.9-3.3c-1.6 0-2.7 1-3 2.2c-.04-.03 0 8.3 0 8.3h-2v-11.9zm13.7 8.1c.05.01 0-6.5 0-6.5h-2.1v-1.6h2.2v-3.1h1.9v3.1h2.6v1.6h-2.6s-.03 6.51 0 6.5c0 1.6.7 2.2 2.3 2.2h.3s.03 1.62 0 1.6c-.2.1-.5.1-.8.1c-2.5 0-3.8-1.2-3.8-3.9zm13.7-13.2v17h-2v-17h2zm5.1 5.1v11.9h-1.9v-11.9h1.9zm.2-5.1v2.4h-2.4v-2.4h2.4zm3 5.1h1.9s-.05 1.7 0 1.7c.8-1.2 2.2-2 3.7-2c3.2 0 5.2 2.6 5.2 6.2c0 3.7-2 6.3-5.2 6.3c-1.4 0-2.8-.8-3.7-1.9c.03.02 0 6.1 0 6.1h-1.9v-16.4zm8.8 5.9c0-2.8-1.3-4.5-3.6-4.5c-1.5 0-2.7.9-3.3 2.2v4.7c.6 1.3 1.8 2.2 3.3 2.2c2.3 0 3.6-1.7 3.6-4.6zm15.5-3.1c-.7-1-1.6-1.4-2.6-1.4c-1.2 0-1.8.7-1.8 1.6c0 .9.5 1.4 1.5 1.6l1 .2c2.3.5 3.6 1.6 3.6 3.6c0 2-1.6 3.8-4.5 3.8c-2.1 0-3.6-1.2-4.5-2.5l1.3-1.2c.7 1.1 1.8 2 3.3 2c1.5 0 2.5-.7 2.5-1.9c0-1.1-.9-1.7-2.2-2l-1-.2c-1.9-.4-3-1.5-3-3.2c0-1.8 1.4-3.5 3.8-3.5c1.7 0 3 .8 3.8 2l-1.2 1.1zm4-2.8h1.9v1.7c.9-1.2 2.3-2 3.8-2c3.2 0 5.2 2.6 5.2 6.2c0 3.7-2 6.3-5.2 6.3c-1.5 0-2.9-.8-3.7-1.9c-.03.02 0 6.1 0 6.1h-2v-16.4zm8.9 5.9c0-2.8-1.4-4.5-3.6-4.5c-1.5 0-2.8.9-3.3 2.2v4.7c.5 1.3 1.8 2.2 3.3 2.2c2.2 0 3.6-1.7 3.6-4.6zm12.9 0c0-2.8-1.4-4.5-3.6-4.5c-2.2 0-3.6 1.7-3.6 4.5c0 2.9 1.4 4.6 3.6 4.6c2.2 0 3.6-1.7 3.6-4.6zm2 0c0 3.7-2.2 6.3-5.6 6.3c-3.4 0-5.6-2.6-5.6-6.3c0-3.6 2.2-6.2 5.6-6.2c3.4 0 5.6 2.6 5.6 6.2zm4.4-5.9v11.9h-1.9v-11.9h1.9zm.2-5.1v2.4h-2.4v-2.4h2.4zm4.9 0v17h-1.9v-17h1.9zm2.5 11c0-3.7 2.1-6.2 5.4-6.2c3.2 0 5.2 2.5 5.2 5.9c0 .3-.1.7-.1.9h-8.5c.2 2.5 1.5 4 3.6 4c1.4 0 2.6-.7 3.3-1.8l1.3 1.1c-.9 1.3-2.4 2.4-4.7 2.4c-3.4 0-5.5-2.4-5.5-6.3zm2-1h6.6c-.2-2.1-1.4-3.5-3.2-3.5c-1.8 0-3.1 1.3-3.4 3.5zm10.9-4.9h1.9s-.03 2.13 0 2.1c.6-1.3 1.8-2.4 3.5-2.4c.2 0 .3 0 .5.1v1.9s-.65.02-.6 0c-1.6 0-2.8.9-3.4 2.7c.04-.01 0 7.5 0 7.5h-1.9v-11.9zm11.9 5.9c0-3.7 2.1-6.2 5.4-6.2c3.2 0 5.2 2.5 5.2 5.9c0 .3 0 .7-.1.9h-8.5c.2 2.5 1.5 4 3.6 4c1.5 0 2.7-.7 3.4-1.8l1.2 1.1c-.8 1.3-2.4 2.4-4.7 2.4c-3.4 0-5.5-2.4-5.5-6.3zm2-1h6.6c-.2-2.1-1.4-3.5-3.2-3.5c-1.8 0-3.1 1.3-3.4 3.5zm10.9-4.9h1.9s-.02 1.63 0 1.6c.6-.9 2-1.9 3.6-1.9c2.8 0 4.3 1.8 4.3 4.8c.03-.02 0 7.4 0 7.4h-1.9s.01-7.22 0-7.2c0-2.2-1-3.3-2.9-3.3c-1.6 0-2.7 1-3 2.2c-.04-.03 0 8.3 0 8.3h-2v-11.9zm12.9-5.1h1.9s.02 6.61 0 6.6c.7-.9 2-1.8 3.6-1.8c2.7 0 4.3 1.8 4.3 4.8c-.01-.02 0 7.4 0 7.4h-1.9s-.03-7.22 0-7.2c0-2.2-1.1-3.3-2.9-3.3c-1.6 0-2.7 1-3.1 2.2c.02-.03 0 8.3 0 8.3h-1.9v-17zm12 13.4c0-2.2 1.7-4 4.3-4c1.3 0 2.5.5 3.4 1.4v-1.2c0-1.7-1-3.1-2.9-3.1c-1.5 0-2.2.5-3 1.4l-1.2-1.3c.9-.9 2.1-1.8 4.2-1.8c3.1 0 4.8 1.9 4.8 4.7c-.02-.01 0 7.5 0 7.5H229s.03-1.18 0-1.2c-.9 1-2.1 1.5-3.4 1.5c-2.6 0-4.3-1.8-4.3-3.9zm7.7.8v-1.7c-.7-1-2-1.5-3.1-1.5c-1.9 0-2.7 1.3-2.7 2.4c0 1 .8 2.3 2.7 2.3c1.1 0 2.4-.5 3.1-1.5zm4.9-9.1h1.9v1.6c.6-.9 2-1.9 3.6-1.9c2.8 0 4.3 1.8 4.3 4.8c.04-.02 0 7.4 0 7.4h-1.9s.02-7.22 0-7.2c0-2.2-1-3.3-2.9-3.3c-1.6 0-2.7 1-3 2.2c-.03-.03 0 8.3 0 8.3h-2v-11.9zm17.7-.3c2.2 0 4 1.3 4.7 3.2l-1.5.7c-.5-1.4-1.7-2.2-3.2-2.2c-2.2 0-3.5 1.7-3.5 4.5c0 2.9 1.3 4.6 3.5 4.6c1.5 0 2.7-.8 3.2-2.2l1.5.7c-.7 1.9-2.5 3.2-4.7 3.2c-3.5 0-5.5-2.6-5.5-6.3c0-3.6 2-6.2 5.5-6.2zm6.2 6.2c0-3.7 2.1-6.2 5.4-6.2c3.2 0 5.2 2.5 5.2 5.9c0 .3 0 .7-.1.9h-8.5c.2 2.5 1.5 4 3.6 4c1.5 0 2.7-.7 3.4-1.8l1.3 1.1c-.9 1.3-2.5 2.4-4.8 2.4c-3.4 0-5.5-2.4-5.5-6.3zm2-1h6.6c-.1-2.1-1.4-3.5-3.2-3.5c-1.8 0-3.1 1.3-3.4 3.5zm17-2.1c-.7-1-1.6-1.4-2.6-1.4c-1.2 0-1.8.7-1.8 1.6c0 .9.5 1.4 1.5 1.6l1 .2c2.3.5 3.6 1.6 3.6 3.6c0 2-1.6 3.8-4.4 3.8c-2.1 0-3.7-1.2-4.5-2.5l1.2-1.2c.7 1.1 1.8 2 3.3 2c1.5 0 2.5-.7 2.5-1.9c0-1.1-.9-1.7-2.2-2l-1-.2c-1.9-.4-2.9-1.5-2.9-3.2c0-1.8 1.3-3.5 3.8-3.5c1.6 0 2.9.8 3.7 2l-1.2 1.1zm8.1 5.5c0-2.2 1.7-4 4.4-4c1.2 0 2.4.5 3.3 1.4v-1.2c0-1.7-1-3.1-2.9-3.1c-1.4 0-2.2.5-3 1.4l-1.1-1.3c.8-.9 2-1.8 4.1-1.8c3.1 0 4.8 1.9 4.8 4.7v7.5h-1.8s-.05-1.18 0-1.2c-.9 1-2.2 1.5-3.4 1.5c-2.7 0-4.4-1.8-4.4-3.9zm7.7.8v-1.7c-.6-1-2-1.5-3.1-1.5c-1.9 0-2.7 1.3-2.7 2.4c0 1 .8 2.3 2.7 2.3c1.1 0 2.5-.5 3.1-1.5zm4.2-3.2c0-3.7 2.2-6.2 5.4-6.2c3.2 0 5.2 2.5 5.2 5.9c0 .3 0 .7-.1.9h-8.5c.2 2.5 1.5 4 3.6 4c1.5 0 2.7-.7 3.4-1.8l1.3 1.1c-.9 1.3-2.4 2.4-4.8 2.4c-3.4 0-5.5-2.4-5.5-6.3zm2.1-1h6.5c-.1-2.1-1.4-3.5-3.2-3.5c-1.8 0-3 1.3-3.3 3.5zm10.9-4.9h1.8v2.1c.7-1.3 1.8-2.4 3.5-2.4c.2 0 .4 0 .5.1c.04-.02 0 1.9 0 1.9c0 0-.61.02-.6 0c-1.6 0-2.7.9-3.3 2.7c-.02-.01 0 7.5 0 7.5h-1.9v-11.9zm16.1 5.9c0-2.8-1.4-4.5-3.6-4.5c-2.2 0-3.6 1.7-3.6 4.5c0 2.9 1.4 4.6 3.6 4.6c2.2 0 3.6-1.7 3.6-4.6zm2 0c0 3.7-2.2 6.3-5.6 6.3c-3.4 0-5.6-2.6-5.6-6.3c0-3.6 2.2-6.2 5.6-6.2c3.4 0 5.6 2.6 5.6 6.2zm10.7 4.3c-.9 1.2-2.3 2-3.8 2c-3.2 0-5.2-2.6-5.2-6.3c0-3.6 2-6.2 5.2-6.2c1.5 0 2.8.8 3.7 1.9c.04 0 0-6.7 0-6.7h2v17h-1.9s.01-1.68 0-1.7zm-.1-1.9v-4.7c-.5-1.3-1.8-2.2-3.3-2.2c-2.2 0-3.6 1.7-3.6 4.5c0 2.9 1.4 4.6 3.6 4.6c1.5 0 2.8-.9 3.3-2.2zm8.5 2.4l-4.6-10.7h2s2.75 6.81 2.8 6.8c.3.9.6 1.8.6 2.1h.1c.1-.6.3-1.2.6-2.1c.05.01 2.6-6.8 2.6-6.8h2.1l-6.6 16.4h-2.1l2.5-5.7zm8-10.7h1.8s.05 1.63 0 1.6c.7-.9 2-1.9 3.7-1.9c2.7 0 4.3 1.8 4.3 4.8c-.01-.02 0 7.4 0 7.4h-1.9s-.03-7.22 0-7.2c0-2.2-1.1-3.3-2.9-3.3c-1.6 0-2.7 1-3.1 2.2c.02-.03 0 8.3 0 8.3H355v-11.9zm12 8.3c0-2.2 1.7-4 4.3-4c1.3 0 2.5.5 3.4 1.4v-1.2c0-1.7-1-3.1-2.9-3.1c-1.5 0-2.2.5-3 1.4l-1.2-1.3c.9-.9 2.1-1.8 4.2-1.8c3.1 0 4.8 1.9 4.8 4.7c-.02-.01 0 7.5 0 7.5h-1.9s.03-1.18 0-1.2c-.9 1-2.1 1.5-3.4 1.5c-2.6 0-4.3-1.8-4.3-3.9zm7.7.8v-1.7c-.7-1-2-1.5-3.1-1.5c-1.9 0-2.7 1.3-2.7 2.4c0 1 .8 2.3 2.7 2.3c1.1 0 2.4-.5 3.1-1.5zm4.9-9.1h1.9v1.6c.6-.9 2-1.9 3.6-1.9c1.8 0 3 .8 3.7 2.1c.5-1 2-2.1 3.9-2.1c2.7 0 4.3 1.8 4.3 4.7c-.02.04 0 7.5 0 7.5h-1.9s-.04-7.27 0-7.3c0-2.1-1-3.2-2.8-3.2c-1.6 0-2.7 1-3 2.2c-.03-.03 0 8.3 0 8.3h-1.9s-.05-7.27 0-7.3c0-2.1-1-3.2-2.8-3.2c-1.6 0-2.7 1-3 2.2c-.03-.03 0 8.3 0 8.3h-2v-11.9zm22.4 0v11.9h-2v-11.9h2zm.2-5.1v2.4h-2.4v-2.4h2.4zm7.7 4.8c2.3 0 4.1 1.3 4.8 3.2l-1.5.7c-.6-1.4-1.7-2.2-3.3-2.2c-2.1 0-3.5 1.7-3.5 4.5c0 2.9 1.4 4.6 3.5 4.6c1.6 0 2.7-.8 3.3-2.2l1.5.7c-.7 1.9-2.5 3.2-4.8 3.2c-3.4 0-5.5-2.6-5.5-6.3c0-3.6 2.1-6.2 5.5-6.2zm16.7 0c2.2 0 4.1 1.3 4.7 3.2l-1.5.7c-.5-1.4-1.7-2.2-3.2-2.2c-2.1 0-3.5 1.7-3.5 4.5c0 2.9 1.4 4.6 3.5 4.6c1.5 0 2.7-.8 3.2-2.2l1.5.7c-.6 1.9-2.5 3.2-4.7 3.2c-3.4 0-5.5-2.6-5.5-6.3c0-3.6 2.1-6.2 5.5-6.2zm7-4.8h1.9v6.6c.6-.9 2-1.8 3.5-1.8c2.8 0 4.4 1.8 4.4 4.8c-.03-.02 0 7.4 0 7.4h-2s.05-7.22 0-7.2c0-2.2-1-3.3-2.8-3.3c-1.6 0-2.8 1-3.1 2.2v8.3h-1.9v-17zm11.9 13.4c0-2.2 1.7-4 4.4-4c1.3 0 2.5.5 3.3 1.4v-1.2c0-1.7-.9-3.1-2.9-3.1c-1.4 0-2.1.5-3 1.4l-1.1-1.3c.9-.9 2.1-1.8 4.2-1.8c3.1 0 4.8 1.9 4.8 4.7c-.05-.01 0 7.5 0 7.5h-1.9V122c-.9 1-2.1 1.5-3.4 1.5c-2.7 0-4.4-1.8-4.4-3.9zm7.7.8v-1.7c-.6-1-1.9-1.5-3-1.5c-2 0-2.7 1.3-2.7 2.4c0 1 .7 2.3 2.7 2.3c1.1 0 2.4-.5 3-1.5zm5-9.1h1.9s-.03 2.13 0 2.1c.6-1.3 1.8-2.4 3.5-2.4c.2 0 .3 0 .5.1v1.9s-.64.02-.6 0c-1.6 0-2.8.9-3.4 2.7c.04-.01 0 7.5 0 7.5h-1.9v-11.9zm6.5 8.3c0-2.2 1.7-4 4.4-4c1.2 0 2.4.5 3.3 1.4v-1.2c0-1.7-1-3.1-2.9-3.1c-1.4 0-2.2.5-3 1.4l-1.1-1.3c.8-.9 2-1.8 4.1-1.8c3.1 0 4.8 1.9 4.8 4.7v7.5h-1.8s-.04-1.18 0-1.2c-.9 1-2.2 1.5-3.4 1.5c-2.7 0-4.4-1.8-4.4-3.9zm7.7.8v-1.7c-.6-1-2-1.5-3.1-1.5c-1.9 0-2.7 1.3-2.7 2.4c0 1 .8 2.3 2.7 2.3c1.1 0 2.5-.5 3.1-1.5zm9.7-9.4c2.3 0 4.1 1.3 4.8 3.2l-1.5.7c-.6-1.4-1.7-2.2-3.3-2.2c-2.1 0-3.5 1.7-3.5 4.5c0 2.9 1.4 4.6 3.5 4.6c1.6 0 2.7-.8 3.3-2.2l1.5.7c-.7 1.9-2.5 3.2-4.8 3.2c-3.4 0-5.5-2.6-5.5-6.3c0-3.6 2.1-6.2 5.5-6.2zm7.9 8.4c-.05.01 0-6.5 0-6.5h-2.2v-1.6h2.2v-3.1h1.9v3.1h2.6v1.6h-2.6s-.03 6.51 0 6.5c0 1.6.7 2.2 2.3 2.2h.3s.04 1.62 0 1.6c-.2.1-.5.1-.8.1c-2.5 0-3.7-1.2-3.7-3.9zm6-2.2c0-3.7 2.1-6.2 5.4-6.2c3.2 0 5.2 2.5 5.2 5.9c0 .3-.1.7-.1.9H498c.2 2.5 1.5 4 3.6 4c1.4 0 2.6-.7 3.3-1.8l1.3 1.1c-.9 1.3-2.4 2.4-4.8 2.4c-3.3 0-5.4-2.4-5.4-6.3zm2-1h6.5c-.1-2.1-1.3-3.5-3.1-3.5c-1.8 0-3.1 1.3-3.4 3.5zm10.9-4.9h1.9s-.04 2.13 0 2.1c.6-1.3 1.8-2.4 3.5-2.4c.2 0 .3 0 .5.1v1.9s-.66.02-.7 0c-1.5 0-2.7.9-3.3 2.7c.03-.01 0 7.5 0 7.5h-1.9v-11.9zm9.6 0v11.9h-1.9v-11.9h1.9zm.3-5.1v2.4h-2.4v-2.4h2.4zm9 7.9c-.7-1-1.6-1.4-2.6-1.4c-1.2 0-1.8.7-1.8 1.6c0 .9.6 1.4 1.5 1.6l1.1.2c2.2.5 3.6 1.6 3.6 3.6c0 2-1.7 3.8-4.5 3.8c-2.1 0-3.7-1.2-4.5-2.5l1.2-1.2c.7 1.1 1.8 2 3.3 2c1.5 0 2.5-.7 2.5-1.9c0-1.1-.9-1.7-2.2-2l-1-.2c-1.9-.4-2.9-1.5-2.9-3.2c0-1.8 1.3-3.5 3.8-3.5c1.6 0 3 .8 3.7 2l-1.2 1.1zm4.7 5.3c.03.01 0-6.5 0-6.5h-2.1v-1.6h2.2v-3.1h1.8v3.1h2.7v1.6h-2.7s.05 6.51 0 6.5c0 1.6.8 2.2 2.4 2.2h.3v1.6c-.2.1-.5.1-.9.1c-2.4 0-3.7-1.2-3.7-3.9zm8.7-8.1v11.9h-1.9v-11.9h1.9zm.3-5.1v2.4h-2.4v-2.4h2.4zm7.7 4.8c2.2 0 4.1 1.3 4.7 3.2l-1.5.7c-.5-1.4-1.7-2.2-3.2-2.2c-2.2 0-3.5 1.7-3.5 4.5c0 2.9 1.3 4.6 3.5 4.6c1.5 0 2.7-.8 3.2-2.2l1.5.7c-.6 1.9-2.5 3.2-4.7 3.2c-3.4 0-5.5-2.6-5.5-6.3c0-3.6 2.1-6.2 5.5-6.2zm13 3.1c-.7-1-1.6-1.4-2.6-1.4c-1.2 0-1.8.7-1.8 1.6c0 .9.6 1.4 1.6 1.6l1 .2c2.2.5 3.6 1.6 3.6 3.6c0 2-1.7 3.8-4.5 3.8c-2.1 0-3.6-1.2-4.5-2.5l1.2-1.2c.7 1.1 1.8 2 3.3 2c1.5 0 2.5-.7 2.5-1.9c0-1.1-.9-1.7-2.2-2l-1-.2c-1.9-.4-2.9-1.5-2.9-3.2c0-1.8 1.3-3.5 3.8-3.5c1.7 0 3 .8 3.8 2l-1.3 1.1zm4 14.4l1.3-4H566v-2.8h3.1v2.5l-1.4 4.3h-1.5zm9.5-17.2h2l2 7.2c.3 1.1.6 2.2.6 2.5h.1c0-.3.2-1.4.6-2.4c-.02-.03 2.3-7.3 2.3-7.3h1.9s2.31 7.27 2.3 7.3c.3 1 .6 2.1.6 2.4h.1c0-.3.2-1.4.6-2.5l2-7.2h2l-3.6 11.9h-1.9l-2.4-7.5c-.3-1-.6-2-.6-2.4h-.1c0 .4-.3 1.4-.6 2.4c0-.04-2.4 7.5-2.4 7.5h-1.9l-3.6-11.9zm19.1-5.1h1.9v6.6c.6-.9 2-1.8 3.6-1.8c2.7 0 4.3 1.8 4.3 4.8c-.03-.02 0 7.4 0 7.4h-1.9s-.05-7.22 0-7.2c0-2.2-1.1-3.3-2.9-3.3c-1.6 0-2.8 1-3.1 2.2v8.3h-1.9v-17zm14.8 5.1v11.9h-2v-11.9h2zm.2-5.1v2.4h-2.4v-2.4h2.4zm4.9 0v17h-1.9v-17h1.9zm2.5 11c0-3.7 2.1-6.2 5.4-6.2c3.2 0 5.2 2.5 5.2 5.9c0 .3-.1.7-.1.9h-8.5c.2 2.5 1.5 4 3.6 4c1.4 0 2.6-.7 3.3-1.8l1.3 1.1c-.9 1.3-2.4 2.4-4.8 2.4c-3.3 0-5.4-2.4-5.4-6.3zm2-1h6.5c-.1-2.1-1.3-3.5-3.1-3.5c-1.9 0-3.1 1.3-3.4 3.5zm14.9 3.4c0-2.2 1.7-4 4.4-4c1.3 0 2.5.5 3.3 1.4v-1.2c0-1.7-.9-3.1-2.9-3.1c-1.4 0-2.1.5-3 1.4l-1.1-1.3c.9-.9 2.1-1.8 4.2-1.8c3.1 0 4.7 1.9 4.7 4.7c.04-.01 0 7.5 0 7.5h-1.8V122c-.9 1-2.1 1.5-3.4 1.5c-2.7 0-4.4-1.8-4.4-3.9zm7.7.8v-1.7c-.6-1-1.9-1.5-3-1.5c-2 0-2.7 1.3-2.7 2.4c0 1 .7 2.3 2.7 2.3c1.1 0 2.4-.5 3-1.5zm9.9-9.1h1.9s-.02 1.7 0 1.7c.8-1.2 2.2-2 3.8-2c3.1 0 5.2 2.6 5.2 6.2c0 3.7-2.1 6.3-5.2 6.3c-1.5 0-2.9-.8-3.7-1.9c-.05.02 0 6.1 0 6.1h-2v-16.4zm8.9 5.9c0-2.8-1.4-4.5-3.6-4.5c-1.5 0-2.8.9-3.3 2.2v4.7c.5 1.3 1.8 2.2 3.3 2.2c2.2 0 3.6-1.7 3.6-4.6zm4.4-5.9h1.9s-.02 2.13 0 2.1c.6-1.3 1.8-2.4 3.5-2.4c.2 0 .3 0 .5.1v1.9s-.64.02-.6 0c-1.6 0-2.8.9-3.4 2.7c.05-.01 0 7.5 0 7.5H665v-11.9zm16.2 5.9c0-2.8-1.4-4.5-3.6-4.5c-2.2 0-3.6 1.7-3.6 4.5c0 2.9 1.4 4.6 3.6 4.6c2.2 0 3.6-1.7 3.6-4.6zm2 0c0 3.7-2.2 6.3-5.6 6.3c-3.4 0-5.6-2.6-5.6-6.3c0-3.6 2.2-6.2 5.6-6.2c3.4 0 5.6 2.6 5.6 6.2zm2.4-5.9h1.9v1.6c.6-.9 2-1.9 3.6-1.9c1.8 0 3 .8 3.7 2.1c.5-1 2-2.1 3.9-2.1c2.7 0 4.3 1.8 4.3 4.7c-.03.04 0 7.5 0 7.5h-1.9s-.05-7.27 0-7.3c0-2.1-1-3.2-2.8-3.2c-1.6 0-2.7 1-3 2.2c-.03-.03 0 8.3 0 8.3h-2s.05-7.27 0-7.3c0-2.1-.9-3.2-2.7-3.2c-1.6 0-2.7 1-3 2.2c-.04-.03 0 8.3 0 8.3h-2v-11.9zm22.4 0v11.9h-2v-11.9h2zm.2-5.1v2.4h-2.4v-2.4h2.4zm3 5.1h1.8s.03 1.63 0 1.6c.7-.9 2-1.9 3.7-1.9c2.7 0 4.3 1.8 4.3 4.8c-.03-.02 0 7.4 0 7.4h-1.9s-.05-7.22 0-7.2c0-2.2-1.1-3.3-2.9-3.3c-1.6 0-2.8 1-3.1 2.2v8.3h-1.9v-11.9zm12.1 5.9c0-3.7 2.1-6.2 5.4-6.2c3.2 0 5.2 2.5 5.2 5.9c0 .3 0 .7-.1.9h-8.5c.2 2.5 1.5 4 3.6 4c1.5 0 2.7-.7 3.4-1.8l1.2 1.1c-.8 1.3-2.4 2.4-4.7 2.4c-3.4 0-5.5-2.4-5.5-6.3zm2-1h6.6c-.2-2.1-1.4-3.5-3.2-3.5c-1.8 0-3.1 1.3-3.4 3.5zm10.9-4.9h1.9s-.02 1.63 0 1.6c.6-.9 2-1.9 3.6-1.9c2.8 0 4.3 1.8 4.3 4.8c.03-.02 0 7.4 0 7.4h-1.9s.01-7.22 0-7.2c0-2.2-1-3.3-2.9-3.3c-1.6 0-2.7 1-3 2.2c-.04-.03 0 8.3 0 8.3h-2v-11.9zm13.7 8.1c.04.01 0-6.5 0-6.5h-2.1v-1.6h2.2v-3.1h1.9v3.1h2.6v1.6h-2.6s-.04 6.51 0 6.5c0 1.6.7 2.2 2.3 2.2h.3s.02 1.62 0 1.6c-.2.1-.5.1-.8.1c-2.5 0-3.8-1.2-3.8-3.9zm11.7-8.1h1.9s-.03 2.13 0 2.1c.6-1.3 1.8-2.4 3.5-2.4c.2 0 .3 0 .5.1v1.9s-.64.02-.6 0c-1.6 0-2.8.9-3.4 2.7c.05-.01 0 7.5 0 7.5h-1.9v-11.9zm7 5.9c0-3.7 2.1-6.2 5.4-6.2c3.2 0 5.2 2.5 5.2 5.9c0 .3-.1.7-.1.9h-8.5c.2 2.5 1.5 4 3.6 4c1.4 0 2.6-.7 3.3-1.8l1.3 1.1c-.9 1.3-2.4 2.4-4.7 2.4c-3.4 0-5.5-2.4-5.5-6.3zm2-1h6.6c-.2-2.1-1.4-3.5-3.2-3.5c-1.8 0-3.1 1.3-3.4 3.5zm19.2 5.3c-.9 1.2-2.3 2-3.8 2c-3.2 0-5.2-2.6-5.2-6.3c0-3.6 2-6.2 5.2-6.2c1.5 0 2.8.8 3.7 1.9c-.02 0 0-6.7 0-6.7h1.9v17h-1.8s-.05-1.68 0-1.7zm-.1-1.9v-4.7c-.6-1.3-1.8-2.2-3.3-2.2c-2.3 0-3.6 1.7-3.6 4.5c0 2.9 1.3 4.6 3.6 4.6c1.5 0 2.7-.9 3.3-2.2zm16.1-5.5c-.7-1-1.6-1.4-2.6-1.4c-1.2 0-1.8.7-1.8 1.6c0 .9.5 1.4 1.5 1.6l1 .2c2.3.5 3.6 1.6 3.6 3.6c0 2-1.6 3.8-4.5 3.8c-2 0-3.6-1.2-4.4-2.5l1.2-1.2c.7 1.1 1.8 2 3.3 2c1.5 0 2.5-.7 2.5-1.9c0-1.1-.9-1.7-2.2-2l-1-.2c-1.9-.4-3-1.5-3-3.2c0-1.8 1.4-3.5 3.9-3.5c1.6 0 2.9.8 3.7 2l-1.2 1.1zm4.7 5.3v-6.5h-2.1v-1.6h2.1v-3.1h1.9v3.1h2.7v1.6h-2.7s.03 6.51 0 6.5c0 1.6.8 2.2 2.4 2.2h.3v1.6c-.2.1-.6.1-.9.1c-2.4 0-3.7-1.2-3.7-3.9zm6.8-8.1h1.8s.03 2.13 0 2.1c.7-1.3 1.9-2.4 3.6-2.4c.1 0 .3 0 .5.1c-.04-.02 0 1.9 0 1.9c0 0-.69.02-.7 0c-1.6 0-2.7.9-3.3 2.7v7.5h-1.9v-11.9zm9.6 0v11.9H825v-11.9h1.9zm.2-5.1v2.4h-2.4v-2.4h2.4zm3 5.1h1.9s-.03 1.7 0 1.7c.8-1.2 2.2-2 3.8-2c3.1 0 5.1 2.6 5.1 6.2c0 3.7-2 6.3-5.1 6.3c-1.5 0-2.9-.8-3.8-1.9c.04.02 0 6.1 0 6.1h-1.9v-16.4zm8.9 5.9c0-2.8-1.4-4.5-3.6-4.5c-1.5 0-2.8.9-3.4 2.2v4.7c.6 1.3 1.9 2.2 3.4 2.2c2.2 0 3.6-1.7 3.6-4.6zm3.7 0c0-3.7 2.1-6.2 5.4-6.2c3.2 0 5.2 2.5 5.2 5.9c0 .3-.1.7-.1.9h-8.5c.2 2.5 1.5 4 3.6 4c1.4 0 2.6-.7 3.3-1.8l1.3 1.1c-.9 1.3-2.4 2.4-4.8 2.4c-3.3 0-5.4-2.4-5.4-6.3zm2-1h6.5c-.1-2.1-1.3-3.5-3.1-3.5c-1.9 0-3.1 1.3-3.4 3.5zm14.9 3.4c0-2.2 1.7-4 4.4-4c1.3 0 2.5.5 3.3 1.4v-1.2c0-1.7-.9-3.1-2.9-3.1c-1.4 0-2.1.5-3 1.4l-1.1-1.3c.9-.9 2.1-1.8 4.2-1.8c3.1 0 4.7 1.9 4.7 4.7c.04-.01 0 7.5 0 7.5h-1.8V122c-.9 1-2.1 1.5-3.4 1.5c-2.7 0-4.4-1.8-4.4-3.9zm7.7.8v-1.7c-.6-1-1.9-1.5-3-1.5c-2 0-2.7 1.3-2.7 2.4c0 1 .7 2.3 2.7 2.3c1.1 0 2.4-.5 3-1.5zm13.2 1.1c-.8 1.2-2.2 2-3.7 2c-3.2 0-5.2-2.6-5.2-6.3c0-3.6 2-6.2 5.2-6.2c1.4 0 2.8.8 3.7 1.9c-.03 0 0-6.7 0-6.7h1.9v17h-1.9s.04-1.68 0-1.7zm0-1.9v-4.7c-.6-1.3-1.9-2.2-3.3-2.2c-2.3 0-3.6 1.7-3.6 4.5c0 2.9 1.3 4.6 3.6 4.6c1.4 0 2.7-.9 3.3-2.2zm13.3 1.9c-.8 1.2-2.2 2-3.8 2c-3.1 0-5.1-2.6-5.1-6.3c0-3.6 2-6.2 5.1-6.2c1.5 0 2.9.8 3.8 1.9c-.03 0 0-6.7 0-6.7h1.9v17h-1.9s.04-1.68 0-1.7zm0-1.9v-4.7c-.6-1.3-1.9-2.2-3.3-2.2c-2.3 0-3.6 1.7-3.6 4.5c0 2.9 1.3 4.6 3.6 4.6c1.4 0 2.7-.9 3.3-2.2zm11.2-5.5c-.7-1-1.6-1.4-2.6-1.4c-1.2 0-1.8.7-1.8 1.6c0 .9.5 1.4 1.5 1.6l1 .2c2.3.5 3.6 1.6 3.6 3.6c0 2-1.7 3.8-4.5 3.8c-2.1 0-3.6-1.2-4.5-2.5l1.3-1.2c.7 1.1 1.8 2 3.3 2c1.5 0 2.5-.7 2.5-1.9c0-1.1-.9-1.7-2.2-2l-1.1-.2c-1.8-.4-2.9-1.5-2.9-3.2c0-1.8 1.4-3.5 3.8-3.5c1.7 0 3 .8 3.8 2l-1.2 1.1zm8 5.5c0-2.2 1.7-4 4.4-4c1.3 0 2.5.5 3.3 1.4v-1.2c0-1.7-.9-3.1-2.9-3.1c-1.4 0-2.1.5-3 1.4l-1.1-1.3c.9-.9 2.1-1.8 4.2-1.8c3.1 0 4.8 1.9 4.8 4.7c-.04-.01 0 7.5 0 7.5h-1.9s.02-1.18 0-1.2c-.9 1-2.1 1.5-3.4 1.5c-2.7 0-4.4-1.8-4.4-3.9zm7.7.8v-1.7c-.6-1-1.9-1.5-3-1.5c-1.9 0-2.7 1.3-2.7 2.4c0 1 .8 2.3 2.7 2.3c1.1 0 2.4-.5 3-1.5zm18.2 1.1c-.9 1.2-2.3 2-3.8 2c-3.2 0-5.2-2.6-5.2-6.3c0-3.6 2-6.2 5.2-6.2c1.5 0 2.8.8 3.7 1.9c.02 0 0-6.7 0-6.7h1.9v17h-1.8s-.01-1.68 0-1.7zm-.1-1.9v-4.7c-.5-1.3-1.8-2.2-3.3-2.2c-2.3 0-3.6 1.7-3.6 4.5c0 2.9 1.3 4.6 3.6 4.6c1.5 0 2.8-.9 3.3-2.2zm7.1-8.3v11.9H944v-11.9h1.9zm.2-5.1v2.4h-2.4v-2.4h2.4zm9 7.9c-.7-1-1.5-1.4-2.6-1.4c-1.1 0-1.8.7-1.8 1.6c0 .9.6 1.4 1.6 1.6l1 .2c2.2.5 3.6 1.6 3.6 3.6c0 2-1.7 3.8-4.5 3.8c-2.1 0-3.6-1.2-4.5-2.5l1.3-1.2c.7 1.1 1.8 2 3.2 2c1.6 0 2.5-.7 2.5-1.9c0-1.1-.8-1.7-2.2-2l-1-.2c-1.8-.4-2.9-1.5-2.9-3.2c0-1.8 1.4-3.5 3.8-3.5c1.7 0 3 .8 3.8 2l-1.3 1.1zm4.8 5.3c-.04.01 0-6.5 0-6.5h-2.2v-1.6h2.2v-3.1h1.9v3.1h2.6v1.6h-2.6s-.02 6.51 0 6.5c0 1.6.7 2.2 2.3 2.2h.3s.05 1.62 0 1.6c-.2.1-.5.1-.8.1c-2.5 0-3.7-1.2-3.7-3.9zm8.7-8.1v11.9h-2v-11.9h2zm.2-5.1v2.4h-2.4v-2.4h2.4zm3 5.1h1.8v1.6c.6-.9 2-1.9 3.6-1.9c2.8 0 4.4 1.8 4.4 4.8c-.04-.02 0 7.4 0 7.4h-2s.04-7.22 0-7.2c0-2.2-1-3.3-2.8-3.3c-1.6 0-2.8 1-3.1 2.2v8.3h-1.9v-11.9zm17.6-.3c2.2 0 4.1 1.3 4.7 3.2l-1.5.7c-.5-1.4-1.7-2.2-3.2-2.2c-2.2 0-3.5 1.7-3.5 4.5c0 2.9 1.3 4.6 3.5 4.6c1.5 0 2.7-.8 3.2-2.2l1.5.7c-.6 1.9-2.5 3.2-4.7 3.2c-3.4 0-5.5-2.6-5.5-6.3c0-3.6 2.1-6.2 5.5-6.2zm7.8 8.4v-6.5h-2.1v-1.6h2.1v-3.1h1.9v3.1h2.7v1.6h-2.7s.03 6.51 0 6.5c0 1.6.7 2.2 2.4 2.2h.3v1.6c-.2.1-.6.1-.9.1c-2.4 0-3.7-1.2-3.7-3.9zm8.7-8.1v11.9h-1.9v-11.9h1.9zm.2-5.1v2.4h-2.4v-2.4h2.4zm1.7 5.1h2s2.77 7.68 2.8 7.7c.3.9.6 1.8.6 2.2h.1c0-.4.3-1.3.6-2.2l2.7-7.7h2.1l-4.5 11.9h-1.9l-4.5-11.9zm11.7 5.9c0-3.7 2.1-6.2 5.4-6.2c3.2 0 5.2 2.5 5.2 5.9c0 .3 0 .7-.1.9h-8.5c.2 2.5 1.5 4 3.6 4c1.5 0 2.7-.7 3.4-1.8l1.3 1.1c-.9 1.3-2.5 2.4-4.8 2.4c-3.4 0-5.5-2.4-5.5-6.3zm2-1h6.6c-.2-2.1-1.4-3.5-3.2-3.5c-1.8 0-3.1 1.3-3.4 3.5zm24.1 5.3c-.9 1.2-2.3 2-3.8 2c-3.2 0-5.2-2.6-5.2-6.3c0-3.6 2-6.2 5.2-6.2c1.5 0 2.8.8 3.7 1.9c.02 0 0-6.7 0-6.7h1.9v17h-1.8s-.01-1.68 0-1.7zm-.1-1.9v-4.7c-.5-1.3-1.8-2.2-3.3-2.2c-2.3 0-3.6 1.7-3.6 4.5c0 2.9 1.3 4.6 3.6 4.6c1.5 0 2.8-.9 3.3-2.2zm4.4-2.4c0-3.7 2.1-6.2 5.4-6.2c3.2 0 5.2 2.5 5.2 5.9c0 .3 0 .7-.1.9h-8.5c.2 2.5 1.5 4 3.6 4c1.5 0 2.7-.7 3.4-1.8l1.3 1.1c-.9 1.3-2.5 2.4-4.8 2.4c-3.4 0-5.5-2.4-5.5-6.3zm2-1h6.6c-.1-2.1-1.4-3.5-3.2-3.5c-1.8 0-3.1 1.3-3.4 3.5zm17-2.1c-.7-1-1.6-1.4-2.6-1.4c-1.2 0-1.8.7-1.8 1.6c0 .9.6 1.4 1.5 1.6l1 .2c2.3.5 3.6 1.6 3.6 3.6c0 2-1.6 3.8-4.4 3.8c-2.1 0-3.7-1.2-4.5-2.5l1.2-1.2c.7 1.1 1.8 2 3.3 2c1.5 0 2.5-.7 2.5-1.9c0-1.1-.9-1.7-2.2-2l-1-.2c-1.9-.4-2.9-1.5-2.9-3.2c0-1.8 1.3-3.5 3.8-3.5c1.6 0 2.9.8 3.7 2l-1.2 1.1zm6-2.8v11.9h-1.9v-11.9h1.9zm.2-5.1v2.4h-2.4v-2.4h2.4zm2.3 10.7c0-3.4 1.9-5.9 4.9-5.9c1.5 0 2.9.8 3.8 2c-.05-.05 0-1.7 0-1.7h1.8v10.9c0 3-1.7 5.8-5.4 5.8c-2.5 0-4.1-1.4-4.8-3l1.4-.9c.6 1.3 1.7 2.2 3.4 2.2c2.5 0 3.5-1.9 3.5-4.1v-1.3c-.9 1.1-2.2 1.8-3.7 1.8c-3 0-4.9-2.4-4.9-5.8zm8.6 2.1v-4.2c-.6-1.2-1.8-2.1-3.3-2.1c-2.1 0-3.3 1.6-3.3 4.2c0 2.5 1.2 4.1 3.3 4.1c1.5 0 2.7-.8 3.3-2zm5.1-7.7h1.9s-.04 1.63 0 1.6c.6-.9 1.9-1.9 3.6-1.9c2.7 0 4.3 1.8 4.3 4.8c.01-.02 0 7.4 0 7.4h-1.9s-.01-7.22 0-7.2c0-2.2-1.1-3.3-2.9-3.3c-1.6 0-2.7 1-3.1 2.2c.04-.03 0 8.3 0 8.3h-1.9v-11.9zm17.1 5.9c0-3.7 2.1-6.2 5.4-6.2c3.1 0 5.1 2.5 5.1 5.9v.9h-8.5c.1 2.5 1.4 4 3.5 4c1.5 0 2.7-.7 3.4-1.8l1.3 1.1c-.9 1.3-2.4 2.4-4.8 2.4c-3.4 0-5.4-2.4-5.4-6.3zm2-1h6.5c-.1-2.1-1.3-3.5-3.1-3.5c-1.9 0-3.1 1.3-3.4 3.5zm12.8-10v17h-1.9v-17h1.9zm2.5 11c0-3.7 2.1-6.2 5.4-6.2c3.2 0 5.2 2.5 5.2 5.9c0 .3-.1.7-.1.9h-8.5c.2 2.5 1.5 4 3.6 4c1.4 0 2.6-.7 3.3-1.8l1.3 1.1c-.9 1.3-2.4 2.4-4.7 2.4c-3.4 0-5.5-2.4-5.5-6.3zm2-1h6.6c-.2-2.1-1.4-3.5-3.2-3.5c-1.8 0-3.1 1.3-3.4 3.5zm10.9-4.9h1.9s-.03 1.63 0 1.6c.6-.9 1.9-1.9 3.6-1.9c1.7 0 3 .8 3.6 2.1c.6-1 2.1-2.1 4-2.1c2.7 0 4.2 1.8 4.2 4.7c.05.04 0 7.5 0 7.5h-1.9s.03-7.27 0-7.3c0-2.1-1-3.2-2.7-3.2c-1.6 0-2.7 1-3.1 2.2c.04-.03 0 8.3 0 8.3h-1.9s.02-7.27 0-7.3c0-2.1-1-3.2-2.7-3.2c-1.6 0-2.7 1-3.1 2.2c.04-.03 0 8.3 0 8.3h-1.9v-11.9zm19.7 5.9c0-3.7 2.1-6.2 5.4-6.2c3.2 0 5.2 2.5 5.2 5.9c0 .3-.1.7-.1.9h-8.5c.2 2.5 1.5 4 3.6 4c1.4 0 2.6-.7 3.3-1.8l1.3 1.1c-.9 1.3-2.4 2.4-4.8 2.4c-3.3 0-5.4-2.4-5.4-6.3zm2-1h6.5c-.1-2.1-1.3-3.5-3.1-3.5c-1.8 0-3.1 1.3-3.4 3.5zm10.9-4.9h1.9s-.04 1.63 0 1.6c.6-.9 1.9-1.9 3.6-1.9c2.7 0 4.3 1.8 4.3 4.8v7.4h-1.9s-.02-7.22 0-7.2c0-2.2-1.1-3.3-2.9-3.3c-1.6 0-2.7 1-3.1 2.2c.03-.03 0 8.3 0 8.3h-1.9v-11.9zm13.7 8.1c.02.01 0-6.5 0-6.5h-2.1v-1.6h2.1v-3.1h1.9v3.1h2.7v1.6h-2.7s.04 6.51 0 6.5c0 1.6.8 2.2 2.4 2.2h.3v1.6c-.2.1-.6.1-.9.1c-2.4 0-3.7-1.2-3.7-3.9zm12.5 0c.04.01 0-6.5 0-6.5h-2.1v-1.6h2.2v-3.1h1.9v3.1h2.6v1.6h-2.6s-.04 6.51 0 6.5c0 1.6.7 2.2 2.3 2.2h.3s.03 1.62 0 1.6c-.2.1-.5.1-.8.1c-2.5 0-3.8-1.2-3.8-3.9zm15.3-2.2c0-2.8-1.4-4.5-3.6-4.5c-2.2 0-3.7 1.7-3.7 4.5c0 2.9 1.5 4.6 3.7 4.6c2.2 0 3.6-1.7 3.6-4.6zm2 0c0 3.7-2.2 6.3-5.6 6.3c-3.5 0-5.7-2.6-5.7-6.3c0-3.6 2.2-6.2 5.7-6.2c3.4 0 5.6 2.6 5.6 6.2zm8.2 2.2c-.02.01 0-6.5 0-6.5h-2.2v-1.6h2.2v-3.1h1.9v3.1h2.7v1.6h-2.7v6.5c0 1.6.7 2.2 2.3 2.2h.4s-.03 1.62 0 1.6c-.3.1-.6.1-.9.1c-2.4 0-3.7-1.2-3.7-3.9zm6.7-13.2h2s-.03 6.61 0 6.6c.6-.9 1.9-1.8 3.5-1.8c2.8 0 4.3 1.8 4.3 4.8c.04-.02 0 7.4 0 7.4h-1.9s.02-7.22 0-7.2c0-2.2-1-3.3-2.9-3.3c-1.6 0-2.7 1-3 2.2c-.03-.03 0 8.3 0 8.3h-2v-17zm12.2 11c0-3.7 2.1-6.2 5.4-6.2c3.2 0 5.2 2.5 5.2 5.9c0 .3-.1.7-.1.9h-8.5c.2 2.5 1.4 4 3.6 4c1.4 0 2.6-.7 3.3-1.8l1.3 1.1c-.9 1.3-2.4 2.4-4.8 2.4c-3.3 0-5.4-2.4-5.4-6.3zm2-1h6.5c-.1-2.1-1.3-3.5-3.1-3.5c-1.9 0-3.1 1.3-3.4 3.5zm16.6-3.3h-2v-1.6h2s.04-1.76 0-1.8c0-2 1.2-3.5 3.6-3.5c.3 0 .7 0 1 .1c-.02-.04 0 1.5 0 1.5c0 0-.6.05-.6 0c-1.4 0-2 .6-2 2c-.04-.03 0 1.7 0 1.7h2.6v1.6h-2.6v10.3h-2v-10.3zm6.5-1.6h1.8s.04 2.13 0 2.1c.7-1.3 1.9-2.4 3.6-2.4c.1 0 .3 0 .5.1c-.02-.02 0 1.9 0 1.9c0 0-.67.02-.7 0c-1.6 0-2.7.9-3.3 2.7c.02-.01 0 7.5 0 7.5h-1.9v-11.9zm16.2 5.9c0-2.8-1.4-4.5-3.7-4.5c-2.2 0-3.6 1.7-3.6 4.5c0 2.9 1.4 4.6 3.6 4.6c2.3 0 3.7-1.7 3.7-4.6zm2 0c0 3.7-2.2 6.3-5.7 6.3c-3.4 0-5.6-2.6-5.6-6.3c0-3.6 2.2-6.2 5.6-6.2c3.5 0 5.7 2.6 5.7 6.2zm2.4-5.9h1.9s-.04 1.63 0 1.6c.6-.9 1.9-1.9 3.6-1.9c2.7 0 4.3 1.8 4.3 4.8v7.4h-1.9s-.02-7.22 0-7.2c0-2.2-1.1-3.3-2.9-3.3c-1.6 0-2.7 1-3.1 2.2c.03-.03 0 8.3 0 8.3h-1.9v-11.9zm13.7 8.1c.02.01 0-6.5 0-6.5h-2.1v-1.6h2.1v-3.1h1.9v3.1h2.7v1.6h-2.7s.04 6.51 0 6.5c0 1.6.8 2.2 2.4 2.2h.3v1.6c-.2.1-.6.1-.9.1c-2.4 0-3.7-1.2-3.7-3.9zm6.5 2.3h2.9v2.8h-2.9v-2.8zm5.8-9.7l1.1-3.9h-1.4v-2.4h2.8v2.1l-1.2 4.2h-1.3zm4.7 0l1.1-3.9h-1.3v-2.4h2.7v2.1l-1.1 4.2h-1.4z" stroke="none" fill="#fff"/></g><g id="Polygon59383"><path d="m8.9 53.7l-1.1 3.9h1.3v2.4H6.4v-2.2l1.1-4.1h1.4zm-4.7 0L3 57.6h1.4v2.4H1.7v-2.2l1.1-4.1h1.4zm6.4 2.9v-1.7h11.8v1.7h-4.9v14.6h-2V56.6h-4.9zm13.6-2.4h1.9s.01 6.61 0 6.6c.7-.9 2-1.8 3.6-1.8c2.7 0 4.3 1.8 4.3 4.8c-.02-.02 0 7.4 0 7.4h-1.9s-.04-7.22 0-7.2c0-2.2-1.1-3.3-2.9-3.3c-1.6 0-2.8 1-3.1 2.2v8.3h-1.9v-17zm12.1 11c0-3.7 2.1-6.2 5.4-6.2c3.2 0 5.2 2.5 5.2 5.9c0 .3 0 .7-.1.9h-8.5c.2 2.5 1.5 4 3.6 4c1.5 0 2.7-.7 3.4-1.8l1.3 1.1c-.9 1.3-2.5 2.4-4.8 2.4c-3.4 0-5.5-2.4-5.5-6.3zm2.1-1h6.5c-.1-2.1-1.4-3.5-3.2-3.5c-1.8 0-3.1 1.3-3.3 3.5zm15.8-4.9h1.8s.01 1.7 0 1.7c.9-1.2 2.3-2 3.8-2c3.2 0 5.2 2.6 5.2 6.2c0 3.7-2 6.3-5.2 6.3c-1.5 0-2.8-.8-3.7-1.9c-.01.02 0 6.1 0 6.1h-1.9V59.3zm8.8 5.9c0-2.8-1.3-4.5-3.6-4.5c-1.5 0-2.8.9-3.3 2.2v4.7c.5 1.3 1.8 2.2 3.3 2.2c2.3 0 3.6-1.7 3.6-4.6zm3.6 2.4c0-2.2 1.7-4 4.3-4c1.3 0 2.5.5 3.4 1.4v-1.2c0-1.7-1-3.1-2.9-3.1c-1.5 0-2.2.5-3 1.4l-1.2-1.3c.9-.9 2.1-1.8 4.2-1.8c3.1 0 4.8 1.9 4.8 4.7c-.03-.01 0 7.5 0 7.5h-1.9s.03-1.18 0-1.2c-.9 1-2.1 1.5-3.4 1.5c-2.6 0-4.3-1.8-4.3-3.9zm7.7.8v-1.7c-.7-1-2-1.5-3.1-1.5c-1.9 0-2.7 1.3-2.7 2.4c0 1 .8 2.3 2.7 2.3c1.1 0 2.4-.5 3.1-1.5zm6.9-9.1v11.9h-2V59.3h2zm.2-5.1v2.4H79v-2.4h2.4zm3 5.1h1.8s.03 2.13 0 2.1c.7-1.3 1.9-2.4 3.6-2.4c.1 0 .3 0 .5.1c-.04-.02 0 1.9 0 1.9c0 0-.69.02-.7 0c-1.6 0-2.7.9-3.3 2.7v7.5h-1.9V59.3zm9.6 0v11.9h-1.9V59.3h1.9zm.2-5.1v2.4h-2.4v-2.4h2.4zm3 5.1h1.9s-.03 1.63 0 1.6c.6-.9 1.9-1.9 3.6-1.9c2.8 0 4.3 1.8 4.3 4.8c.01-.02 0 7.4 0 7.4h-1.9s-.01-7.22 0-7.2c0-2.2-1.1-3.3-2.9-3.3c-1.6 0-2.7 1-3.1 2.2c.04-.03 0 8.3 0 8.3h-1.9V59.3zm12.1 5.6c0-3.4 2-5.9 5-5.9c1.5 0 2.9.8 3.7 2c.03-.05 0-1.7 0-1.7h1.9s-.02 10.87 0 10.9c0 3-1.7 5.8-5.4 5.8c-2.5 0-4.2-1.4-4.9-3l1.5-.9c.5 1.3 1.7 2.2 3.3 2.2c2.6 0 3.6-1.9 3.6-4.1v-1.3c-.9 1.1-2.2 1.8-3.7 1.8c-3 0-5-2.4-5-5.8zM118 67v-4.2c-.6-1.2-1.8-2.1-3.3-2.1c-2.1 0-3.4 1.6-3.4 4.2c0 2.5 1.3 4.1 3.4 4.1c1.5 0 2.7-.8 3.3-2zm18.5-1.8c0-2.8-1.4-4.5-3.6-4.5c-2.2 0-3.7 1.7-3.7 4.5c0 2.9 1.5 4.6 3.7 4.6c2.2 0 3.6-1.7 3.6-4.6zm2 0c0 3.7-2.2 6.3-5.6 6.3c-3.4 0-5.7-2.6-5.7-6.3c0-3.6 2.3-6.2 5.7-6.2c3.4 0 5.6 2.6 5.6 6.2zm3.1-4.3h-2.1v-1.6h2.1s-.03-1.76 0-1.8c0-2 1.1-3.5 3.5-3.5c.3 0 .7 0 1 .1v1.5s-.57.05-.6 0c-1.4 0-2 .6-2 2c-.01-.03 0 1.7 0 1.7h2.6v1.6h-2.6v10.3h-1.9V60.9zm12.2 6.5v-6.5h-2.1v-1.6h2.1v-3.1h1.9v3.1h2.7v1.6h-2.7v6.5c0 1.6.7 2.2 2.3 2.2h.4s-.03 1.62 0 1.6c-.3.1-.6.1-.9.1c-2.4 0-3.7-1.2-3.7-3.9zm6.8-13.2h1.9s-.02 6.61 0 6.6c.6-.9 1.9-1.8 3.5-1.8c2.8 0 4.3 1.8 4.3 4.8c.05-.02 0 7.4 0 7.4h-1.9s.03-7.22 0-7.2c0-2.2-1-3.3-2.9-3.3c-1.6 0-2.7 1-3 2.2c-.02-.03 0 8.3 0 8.3h-1.9v-17zm12.1 11c0-3.7 2.1-6.2 5.4-6.2c3.2 0 5.2 2.5 5.2 5.9c0 .3-.1.7-.1.9h-8.5c.2 2.5 1.5 4 3.6 4c1.4 0 2.6-.7 3.3-1.8l1.3 1.1c-.9 1.3-2.4 2.4-4.8 2.4c-3.3 0-5.4-2.4-5.4-6.3zm2-1h6.5c-.1-2.1-1.3-3.5-3.1-3.5c-1.8 0-3.1 1.3-3.4 3.5zm21.9-2.1c-.7-1-1.6-1.4-2.6-1.4c-1.2 0-1.8.7-1.8 1.6c0 .9.5 1.4 1.5 1.6l1 .2c2.3.5 3.6 1.6 3.6 3.6c0 2-1.6 3.8-4.5 3.8c-2 0-3.6-1.2-4.4-2.5l1.2-1.2c.7 1.1 1.8 2 3.3 2c1.5 0 2.5-.7 2.5-1.9c0-1.1-.9-1.7-2.2-2l-1-.2c-1.9-.4-3-1.5-3-3.2c0-1.8 1.4-3.5 3.9-3.5c1.6 0 2.9.8 3.7 2l-1.2 1.1zm3.3 3.1c0-3.7 2.2-6.2 5.4-6.2c3.2 0 5.2 2.5 5.2 5.9c0 .3 0 .7-.1.9h-8.5c.2 2.5 1.5 4 3.6 4c1.5 0 2.7-.7 3.4-1.8l1.3 1.1c-.9 1.3-2.5 2.4-4.8 2.4c-3.4 0-5.5-2.4-5.5-6.3zm2.1-1h6.5c-.1-2.1-1.4-3.5-3.2-3.5c-1.8 0-3.1 1.3-3.3 3.5zm10.9-4.9h1.8v1.6c.6-.9 2-1.9 3.6-1.9c1.8 0 3 .8 3.7 2.1c.5-1 2-2.1 3.9-2.1c2.7 0 4.3 1.8 4.3 4.7c-.02.04 0 7.5 0 7.5h-1.9s-.04-7.27 0-7.3c0-2.1-1-3.2-2.8-3.2c-1.6 0-2.7 1-3 2.2c-.02-.03 0 8.3 0 8.3h-1.9s-.04-7.27 0-7.3c0-2.1-1-3.2-2.8-3.2c-1.6 0-2.7 1-3 2.2c-.03-.03 0 8.3 0 8.3h-1.9V59.3zm22.3 0v11.9h-1.9V59.3h1.9zm.2-5.1v2.4H233v-2.4h2.4zm2.7 10.6v-1.7h6.2v1.7h-6.2zm8.4.1c0-3.4 2-5.9 5-5.9c1.5 0 2.9.8 3.7 2c.03-.05 0-1.7 0-1.7h1.9s-.02 10.87 0 10.9c0 3-1.7 5.8-5.4 5.8c-2.5 0-4.1-1.4-4.9-3l1.5-.9c.6 1.3 1.7 2.2 3.3 2.2c2.6 0 3.6-1.9 3.6-4.1v-1.3c-.9 1.1-2.2 1.8-3.7 1.8c-3 0-5-2.4-5-5.8zm8.7 2.1v-4.2c-.6-1.2-1.8-2.1-3.3-2.1c-2.1 0-3.4 1.6-3.4 4.2c0 2.5 1.3 4.1 3.4 4.1c1.5 0 2.7-.8 3.3-2zm7-12.8v17h-1.9v-17h1.9zm11.7 11c0-2.8-1.4-4.5-3.6-4.5c-2.2 0-3.6 1.7-3.6 4.5c0 2.9 1.4 4.6 3.6 4.6c2.2 0 3.6-1.7 3.6-4.6zm2 0c0 3.7-2.2 6.3-5.6 6.3c-3.4 0-5.6-2.6-5.6-6.3c0-3.6 2.2-6.2 5.6-6.2c3.4 0 5.6 2.6 5.6 6.2zm8.5-3.1c-.7-1-1.6-1.4-2.6-1.4c-1.2 0-1.8.7-1.8 1.6c0 .9.6 1.4 1.5 1.6l1 .2c2.3.5 3.6 1.6 3.6 3.6c0 2-1.6 3.8-4.4 3.8c-2.1 0-3.7-1.2-4.5-2.5l1.2-1.2c.7 1.1 1.8 2 3.3 2c1.5 0 2.5-.7 2.5-1.9c0-1.1-.9-1.7-2.2-2l-1-.2c-1.9-.4-2.9-1.5-2.9-3.2c0-1.8 1.3-3.5 3.8-3.5c1.6 0 3 .8 3.7 2l-1.2 1.1zm10.1 0c-.7-1-1.6-1.4-2.6-1.4c-1.1 0-1.8.7-1.8 1.6c0 .9.6 1.4 1.6 1.6l1 .2c2.2.5 3.6 1.6 3.6 3.6c0 2-1.7 3.8-4.5 3.8c-2.1 0-3.6-1.2-4.5-2.5l1.2-1.2c.7 1.1 1.8 2 3.3 2c1.5 0 2.5-.7 2.5-1.9c0-1.1-.9-1.7-2.2-2l-1-.2c-1.9-.4-2.9-1.5-2.9-3.2c0-1.8 1.4-3.5 3.8-3.5c1.7 0 3 .8 3.8 2l-1.3 1.1zm10.9 9.1h-1.9v-17h1.9s.04 6.7 0 6.7c.9-1.1 2.3-1.9 3.8-1.9c3.1 0 5.1 2.6 5.1 6.2c0 3.7-2 6.3-5.1 6.3c-1.6 0-2.9-.8-3.8-2c-.03.02 0 1.7 0 1.7zm7-6c0-2.8-1.4-4.5-3.6-4.5c-1.5 0-2.8.9-3.4 2.2v4.7c.6 1.3 1.9 2.2 3.4 2.2c2.2 0 3.6-1.7 3.6-4.6zm6.3-11v17h-1.9v-17h1.9zm2.3 13.4c0-2.2 1.7-4 4.4-4c1.3 0 2.5.5 3.3 1.4v-1.2c0-1.7-.9-3.1-2.9-3.1c-1.4 0-2.1.5-3 1.4l-1.1-1.3c.9-.9 2.1-1.8 4.2-1.8c3.1 0 4.8 1.9 4.8 4.7c-.03-.01 0 7.5 0 7.5h-1.9s.02-1.18 0-1.2c-.9 1-2.1 1.5-3.4 1.5c-2.7 0-4.4-1.8-4.4-3.9zm7.7.8v-1.7c-.6-1-1.9-1.5-3-1.5c-1.9 0-2.7 1.3-2.7 2.4c0 1 .8 2.3 2.7 2.3c1.1 0 2.4-.5 3-1.5zm9.8-9.4c2.2 0 4.1 1.3 4.7 3.2l-1.5.7c-.5-1.4-1.7-2.2-3.2-2.2c-2.1 0-3.5 1.7-3.5 4.5c0 2.9 1.4 4.6 3.5 4.6c1.5 0 2.7-.8 3.2-2.2l1.5.7c-.6 1.9-2.5 3.2-4.7 3.2c-3.4 0-5.5-2.6-5.5-6.3c0-3.6 2.1-6.2 5.5-6.2zm10.7 6.5l-1.8 2v3.7h-1.9v-17h1.9v10.9l5.1-5.8h2.3v.1l-4.4 4.8l5 6.9v.1h-2.2l-4-5.7zm12.5-6.2h1.8s.04 1.7 0 1.7c.9-1.2 2.3-2 3.8-2c3.2 0 5.2 2.6 5.2 6.2c0 3.7-2 6.3-5.2 6.3c-1.5 0-2.8-.8-3.7-1.9c.02.02 0 6.1 0 6.1h-1.9V59.3zm8.8 5.9c0-2.8-1.3-4.5-3.6-4.5c-1.5 0-2.7.9-3.3 2.2v4.7c.6 1.3 1.8 2.2 3.3 2.2c2.3 0 3.6-1.7 3.6-4.6zm3.7 0c0-3.7 2.2-6.2 5.4-6.2c3.2 0 5.2 2.5 5.2 5.9v.9h-8.5c.1 2.5 1.4 4 3.5 4c1.5 0 2.7-.7 3.4-1.8l1.3 1.1c-.9 1.3-2.4 2.4-4.8 2.4c-3.4 0-5.5-2.4-5.5-6.3zm2.1-1h6.5c-.1-2.1-1.4-3.5-3.2-3.5c-1.8 0-3 1.3-3.3 3.5zm10 3.4c0-2.2 1.7-4 4.4-4c1.2 0 2.4.5 3.3 1.4v-1.2c0-1.7-1-3.1-2.9-3.1c-1.4 0-2.2.5-3 1.4l-1.1-1.3c.8-.9 2-1.8 4.1-1.8c3.1 0 4.8 1.9 4.8 4.7v7.5H394s.05-1.18 0-1.2c-.8 1-2.1 1.5-3.3 1.5c-2.7 0-4.4-1.8-4.4-3.9zm7.7.8v-1.7c-.6-1-2-1.5-3.1-1.5c-1.9 0-2.7 1.3-2.7 2.4c0 1 .8 2.3 2.7 2.3c1.1 0 2.5-.5 3.1-1.5zm5-9.1h1.8s.02 2.13 0 2.1c.7-1.3 1.8-2.4 3.5-2.4c.2 0 .4 0 .5.1c.05-.02 0 1.9 0 1.9c0 0-.6.02-.6 0c-1.6 0-2.7.9-3.3 2.7v7.5H399V59.3zm9.6-5.1v17h-1.9v-17h1.9zm10 17h-1.9v-17h1.9s.05 6.7 0 6.7c.9-1.1 2.3-1.9 3.8-1.9c3.1 0 5.2 2.6 5.2 6.2c0 3.7-2.1 6.3-5.2 6.3c-1.5 0-2.9-.8-3.8-2c-.02.02 0 1.7 0 1.7zm7-6c0-2.8-1.4-4.5-3.6-4.5c-1.5 0-2.8.9-3.4 2.2v4.7c.6 1.3 1.9 2.2 3.4 2.2c2.2 0 3.6-1.7 3.6-4.6zm14.1 6h-1.9s.02-1.61 0-1.6c-.6.9-1.9 1.9-3.6 1.9c-2.8 0-4.3-1.8-4.3-4.8c-.02.01 0-7.4 0-7.4h1.9v7.2c0 2.2 1.1 3.3 2.9 3.3c1.6 0 2.7-1 3.1-2.2c-.05.02 0-8.3 0-8.3h1.9v11.9zm3.2-11.9h1.8s.04 1.63 0 1.6c.7-.9 2-1.9 3.7-1.9c1.7 0 3 .8 3.6 2.1c.6-1 2.1-2.1 3.9-2.1c2.8 0 4.3 1.8 4.3 4.7c.02.04 0 7.5 0 7.5h-1.9v-7.3c0-2.1-1-3.2-2.7-3.2c-1.6 0-2.8 1-3.1 2.2v8.3h-1.9v-7.3c0-2.1-1-3.2-2.7-3.2c-1.6 0-2.8 1-3.1 2.2v8.3h-1.9V59.3zm20.4 0h1.8s.04 1.7 0 1.7c.9-1.2 2.3-2 3.8-2c3.2 0 5.2 2.6 5.2 6.2c0 3.7-2 6.3-5.2 6.3c-1.5 0-2.8-.8-3.7-1.9c.01.02 0 6.1 0 6.1h-1.9V59.3zm8.8 5.9c0-2.8-1.3-4.5-3.6-4.5c-1.5 0-2.7.9-3.3 2.2v4.7c.6 1.3 1.8 2.2 3.3 2.2c2.3 0 3.6-1.7 3.6-4.6zm3.7 0c0-3.7 2.2-6.2 5.4-6.2c3.2 0 5.2 2.5 5.2 5.9v.9h-8.5c.1 2.5 1.4 4 3.5 4c1.5 0 2.7-.7 3.4-1.8l1.3 1.1c-.9 1.3-2.4 2.4-4.8 2.4c-3.4 0-5.5-2.4-5.5-6.3zm2.1-1h6.5c-.1-2.1-1.4-3.5-3.2-3.5c-1.8 0-3 1.3-3.3 3.5zm10.9-4.9h1.8s.02 2.13 0 2.1c.7-1.3 1.8-2.4 3.6-2.4c.1 0 .3 0 .5.1c-.04-.02 0 1.9 0 1.9c0 0-.69.02-.7 0c-1.6 0-2.7.9-3.3 2.7v7.5h-1.9V59.3zm11.9 5.6c0-3.4 1.9-5.9 4.9-5.9c1.5 0 2.9.8 3.7 2c.04-.05 0-1.7 0-1.7h1.9v10.9c0 3-1.7 5.8-5.4 5.8c-2.5 0-4.1-1.4-4.9-3l1.5-.9c.6 1.3 1.7 2.2 3.3 2.2c2.6 0 3.6-1.9 3.6-4.1v-1.3c-.9 1.1-2.2 1.8-3.7 1.8c-3 0-4.9-2.4-4.9-5.8zm8.6 2.1v-4.2c-.6-1.2-1.8-2.1-3.3-2.1c-2.1 0-3.4 1.6-3.4 4.2c0 2.5 1.3 4.1 3.4 4.1c1.5 0 2.7-.8 3.3-2zm4.2.6c0-2.2 1.7-4 4.4-4c1.2 0 2.4.5 3.3 1.4v-1.2c0-1.7-.9-3.1-2.9-3.1c-1.4 0-2.1.5-3 1.4l-1.1-1.3c.9-.9 2.1-1.8 4.1-1.8c3.2 0 4.8 1.9 4.8 4.7c.02-.01 0 7.5 0 7.5h-1.8s-.03-1.18 0-1.2c-.9 1-2.1 1.5-3.4 1.5c-2.7 0-4.4-1.8-4.4-3.9zm7.7.8v-1.7c-.6-1-2-1.5-3-1.5c-2 0-2.8 1.3-2.8 2.4c0 1 .8 2.3 2.8 2.3c1 0 2.4-.5 3-1.5zm5-9.1h1.8s.04 2.13 0 2.1c.7-1.3 1.9-2.4 3.6-2.4c.1 0 .3 0 .5.1c-.03-.02 0 1.9 0 1.9c0 0-.68.02-.7 0c-1.6 0-2.7.9-3.3 2.7v7.5h-1.9V59.3zm7.7 0h1.8s.04 1.63 0 1.6c.7-.9 2-1.9 3.7-1.9c2.7 0 4.3 1.8 4.3 4.8c-.01-.02 0 7.4 0 7.4h-1.9s-.03-7.22 0-7.2c0-2.2-1.1-3.3-2.9-3.3c-1.6 0-2.7 1-3.1 2.2v8.3h-1.9V59.3zm14.8 0v11.9h-1.9V59.3h1.9zm.2-5.1v2.4h-2.4v-2.4h2.4zm9 7.9c-.7-1-1.5-1.4-2.5-1.4c-1.2 0-1.8.7-1.8 1.6c0 .9.5 1.4 1.5 1.6l1 .2c2.3.5 3.6 1.6 3.6 3.6c0 2-1.7 3.8-4.5 3.8c-2.1 0-3.6-1.2-4.5-2.5l1.3-1.2c.7 1.1 1.8 2 3.3 2c1.5 0 2.5-.7 2.5-1.9c0-1.1-.9-1.7-2.3-2l-1-.2c-1.8-.4-2.9-1.5-2.9-3.2c0-1.8 1.4-3.5 3.8-3.5c1.7 0 3 .8 3.8 2l-1.3 1.1zm4.1-7.9h1.9s.04 6.61 0 6.6c.7-.9 2-1.8 3.6-1.8c2.8 0 4.3 1.8 4.3 4.8c.01-.02 0 7.4 0 7.4h-1.9s-.01-7.22 0-7.2c0-2.2-1.1-3.3-2.9-3.3c-1.6 0-2.7 1-3.1 2.2c.04-.03 0 8.3 0 8.3H562v-17zm16.5 5.1h2.1s1.99 7.24 2 7.2c.3 1.1.6 2.2.6 2.5c0-.3.3-1.4.7-2.4c-.04-.03 2.2-7.3 2.2-7.3h2l2.3 7.3c.3 1 .6 2.1.6 2.4h.1c0-.3.2-1.4.6-2.5c-.04.04 2-7.2 2-7.2h2l-3.6 11.9h-1.9s-2.43-7.54-2.4-7.5c-.4-1-.6-2-.6-2.4h-.1c0 .4-.3 1.4-.6 2.4c-.02-.04-2.5 7.5-2.5 7.5h-1.8l-3.7-11.9zm21.1 0v11.9h-1.9V59.3h1.9zm.2-5.1v2.4h-2.4v-2.4h2.4zm3.8 13.2c.04.01 0-6.5 0-6.5h-2.1v-1.6h2.2v-3.1h1.9v3.1h2.6v1.6h-2.6s-.04 6.51 0 6.5c0 1.6.7 2.2 2.3 2.2h.3s.02 1.62 0 1.6c-.2.1-.5.1-.8.1c-2.5 0-3.8-1.2-3.8-3.9zm6.8-13.2h1.9s.02 6.61 0 6.6c.7-.9 2-1.8 3.6-1.8c2.7 0 4.3 1.8 4.3 4.8v7.4h-1.9s-.02-7.22 0-7.2c0-2.2-1.1-3.3-2.9-3.3c-1.6 0-2.7 1-3.1 2.2c.02-.03 0 8.3 0 8.3h-1.9v-17zM629 67.4c.03.01 0-6.5 0-6.5h-2.1v-1.6h2.2v-3.1h1.8v3.1h2.7v1.6h-2.7s.05 6.51 0 6.5c0 1.6.8 2.2 2.4 2.2h.3v1.6c-.2.1-.5.1-.9.1c-2.4 0-3.7-1.2-3.7-3.9zm6.8-13.2h1.9s.02 6.61 0 6.6c.7-.9 2-1.8 3.6-1.8c2.7 0 4.3 1.8 4.3 4.8c-.01-.02 0 7.4 0 7.4h-1.9s-.03-7.22 0-7.2c0-2.2-1.1-3.3-2.9-3.3c-1.6 0-2.7 1-3.1 2.2c.02-.03 0 8.3 0 8.3h-1.9v-17zm12.1 11c0-3.7 2.2-6.2 5.4-6.2c3.2 0 5.2 2.5 5.2 5.9c0 .3 0 .7-.1.9h-8.5c.2 2.5 1.5 4 3.6 4c1.5 0 2.7-.7 3.4-1.8l1.3 1.1c-.9 1.3-2.5 2.4-4.8 2.4c-3.4 0-5.5-2.4-5.5-6.3zm2.1-1h6.5c-.1-2.1-1.4-3.5-3.2-3.5c-1.8 0-3.1 1.3-3.3 3.5zm15 .7c0-3.4 2-5.9 5-5.9c1.5 0 2.9.8 3.7 2c.01-.05 0-1.7 0-1.7h1.9s-.04 10.87 0 10.9c0 3-1.7 5.8-5.4 5.8c-2.6 0-4.2-1.4-4.9-3l1.5-.9c.5 1.3 1.7 2.2 3.3 2.2c2.6 0 3.5-1.9 3.5-4.1v-1.3c-.8 1.1-2.1 1.8-3.6 1.8c-3 0-5-2.4-5-5.8zm8.6 2.1v-4.2c-.5-1.2-1.7-2.1-3.2-2.1c-2.1 0-3.4 1.6-3.4 4.2c0 2.5 1.3 4.1 3.4 4.1c1.5 0 2.7-.8 3.2-2zm5.2-7.7h1.8s.03 2.13 0 2.1c.7-1.3 1.9-2.4 3.6-2.4c.1 0 .3 0 .5.1c-.04-.02 0 1.9 0 1.9c0 0-.69.02-.7 0c-1.6 0-2.7.9-3.3 2.7v7.5h-1.9V59.3zm9.6 0v11.9h-1.9V59.3h1.9zm.2-5.1v2.4h-2.4v-2.4h2.4zm4.9 0v17h-1.9v-17h1.9zm5.2 0v17h-1.9v-17h1.9zm2.4 11c0-3.7 2.2-6.2 5.4-6.2c3.2 0 5.2 2.5 5.2 5.9v.9h-8.5c.1 2.5 1.4 4 3.5 4c1.5 0 2.7-.7 3.4-1.8l1.3 1.1c-.9 1.3-2.4 2.4-4.8 2.4c-3.4 0-5.5-2.4-5.5-6.3zm2.1-1h6.5c-.1-2.1-1.4-3.5-3.2-3.5c-1.8 0-3 1.3-3.3 3.5zm14.9 3.4c0-2.2 1.7-4 4.4-4c1.2 0 2.4.5 3.3 1.4v-1.2c0-1.7-.9-3.1-2.9-3.1c-1.4 0-2.1.5-3 1.4l-1.1-1.3c.8-.9 2-1.8 4.1-1.8c3.2 0 4.8 1.9 4.8 4.7v7.5h-1.8s-.03-1.18 0-1.2c-.9 1-2.1 1.5-3.4 1.5c-2.7 0-4.4-1.8-4.4-3.9zm7.7.8v-1.7c-.6-1-2-1.5-3.1-1.5c-1.9 0-2.7 1.3-2.7 2.4c0 1 .8 2.3 2.7 2.3c1.1 0 2.5-.5 3.1-1.5zm13.2 1.1c-.9 1.2-2.3 2-3.8 2c-3.1 0-5.2-2.6-5.2-6.3c0-3.6 2.1-6.2 5.2-6.2c1.5 0 2.9.8 3.7 1.9c.05 0 0-6.7 0-6.7h2v17H739s.02-1.68 0-1.7zm-.1-1.9v-4.7c-.5-1.3-1.8-2.2-3.3-2.2c-2.2 0-3.6 1.7-3.6 4.5c0 2.9 1.4 4.6 3.6 4.6c1.5 0 2.8-.9 3.3-2.2zm13.4 1.9c-.9 1.2-2.3 2-3.8 2c-3.1 0-5.2-2.6-5.2-6.3c0-3.6 2.1-6.2 5.2-6.2c1.5 0 2.9.8 3.7 1.9c.04 0 0-6.7 0-6.7h2v17h-1.9s.01-1.68 0-1.7zm-.1-1.9v-4.7c-.5-1.3-1.8-2.2-3.3-2.2c-2.2 0-3.6 1.7-3.6 4.5c0 2.9 1.4 4.6 3.6 4.6c1.5 0 2.8-.9 3.3-2.2zm11.2-5.5c-.7-1-1.6-1.4-2.6-1.4c-1.1 0-1.8.7-1.8 1.6c0 .9.6 1.4 1.6 1.6l1 .2c2.2.5 3.6 1.6 3.6 3.6c0 2-1.7 3.8-4.5 3.8c-2.1 0-3.6-1.2-4.5-2.5l1.2-1.2c.7 1.1 1.8 2 3.3 2c1.5 0 2.5-.7 2.5-1.9c0-1.1-.9-1.7-2.2-2l-1-.2c-1.9-.4-2.9-1.5-2.9-3.2c0-1.8 1.4-3.5 3.8-3.5c1.7 0 3 .8 3.8 2l-1.3 1.1zm8.1 5.5c0-2.2 1.7-4 4.4-4c1.3 0 2.5.5 3.3 1.4v-1.2c0-1.7-.9-3.1-2.9-3.1c-1.4 0-2.1.5-3 1.4l-1.1-1.3c.9-.9 2.1-1.8 4.2-1.8c3.1 0 4.7 1.9 4.7 4.7c.04-.01 0 7.5 0 7.5h-1.8V70c-.9 1-2.1 1.5-3.4 1.5c-2.7 0-4.4-1.8-4.4-3.9zm7.7.8v-1.7c-.6-1-2-1.5-3-1.5c-2 0-2.7 1.3-2.7 2.4c0 1 .7 2.3 2.7 2.3c1 0 2.4-.5 3-1.5zm9.9-9.1h1.9s-.02 2.13 0 2.1c.6-1.3 1.8-2.4 3.5-2.4c.2 0 .3 0 .5.1v1.9s-.64.02-.6 0c-1.6 0-2.8.9-3.4 2.7c.05-.01 0 7.5 0 7.5h-1.9V59.3zm16.2 5.9c0-2.8-1.4-4.5-3.6-4.5c-2.2 0-3.6 1.7-3.6 4.5c0 2.9 1.4 4.6 3.6 4.6c2.2 0 3.6-1.7 3.6-4.6zm2 0c0 3.7-2.2 6.3-5.6 6.3c-3.4 0-5.6-2.6-5.6-6.3c0-3.6 2.2-6.2 5.6-6.2c3.4 0 5.6 2.6 5.6 6.2zm4.3 6h-1.9v-17h2s-.04 6.7 0 6.7c.9-1.1 2.2-1.9 3.7-1.9c3.2 0 5.2 2.6 5.2 6.2c0 3.7-2 6.3-5.2 6.3c-1.5 0-2.9-.8-3.8-2c-.01.02 0 1.7 0 1.7zm7-6c0-2.8-1.4-4.5-3.6-4.5c-1.5 0-2.8.9-3.3 2.2v4.7c.5 1.3 1.8 2.2 3.3 2.2c2.2 0 3.6-1.7 3.6-4.6zm14.1 6h-1.9s.04-1.61 0-1.6c-.6.9-1.9 1.9-3.6 1.9c-2.7 0-4.3-1.8-4.3-4.8v-7.4h1.9s.02 7.22 0 7.2c0 2.2 1.1 3.3 2.9 3.3c1.6 0 2.7-1 3.1-2.2c-.03.02 0-8.3 0-8.3h1.9v11.9zm9.3-9.1c-.7-1-1.6-1.4-2.6-1.4c-1.2 0-1.8.7-1.8 1.6c0 .9.5 1.4 1.5 1.6l1 .2c2.3.5 3.6 1.6 3.6 3.6c0 2-1.7 3.8-4.5 3.8c-2.1 0-3.6-1.2-4.5-2.5l1.3-1.2c.7 1.1 1.8 2 3.3 2c1.5 0 2.5-.7 2.5-1.9c0-1.1-.9-1.7-2.2-2l-1.1-.2c-1.8-.4-2.9-1.5-2.9-3.2c0-1.8 1.4-3.5 3.8-3.5c1.7 0 3 .8 3.8 2l-1.2 1.1zm4.7 5.3c-.02.01 0-6.5 0-6.5h-2.2v-1.6h2.2v-3.1h1.9v3.1h2.7v1.6h-2.7v6.5c0 1.6.7 2.2 2.3 2.2h.4s-.04 1.62 0 1.6c-.3.1-.6.1-.9.1c-2.4 0-3.7-1.2-3.7-3.9zm12.5-6.5h-2.1v-1.6h2.1s-.02-1.76 0-1.8c0-2 1.2-3.5 3.5-3.5c.3 0 .7 0 1 .1c.02-.04 0 1.5 0 1.5c0 0-.56.05-.6 0c-1.3 0-2 .6-2 2v1.7h2.6v1.6h-2.6v10.3h-1.9V60.9zm6.4-1.6h1.9v2.1c.6-1.3 1.8-2.4 3.5-2.4c.2 0 .4 0 .5.1c.02-.02 0 1.9 0 1.9c0 0-.63.02-.6 0c-1.6 0-2.8.9-3.3 2.7c-.04-.01 0 7.5 0 7.5h-2V59.3zm16.2 5.9c0-2.8-1.4-4.5-3.6-4.5c-2.2 0-3.6 1.7-3.6 4.5c0 2.9 1.4 4.6 3.6 4.6c2.2 0 3.6-1.7 3.6-4.6zm2 0c0 3.7-2.2 6.3-5.6 6.3c-3.4 0-5.6-2.6-5.6-6.3c0-3.6 2.2-6.2 5.6-6.2c3.4 0 5.6 2.6 5.6 6.2zm2.5-5.9h1.8v1.6c.6-.9 2-1.9 3.6-1.9c2.8 0 4.3 1.8 4.3 4.8c.05-.02 0 7.4 0 7.4h-1.9s.03-7.22 0-7.2c0-2.2-1-3.3-2.9-3.3c-1.6 0-2.7 1-3 2.2c-.03-.03 0 8.3 0 8.3h-1.9V59.3zm13.7 8.1c-.04.01 0-6.5 0-6.5h-2.2v-1.6h2.2v-3.1h1.9v3.1h2.6v1.6h-2.6s-.02 6.51 0 6.5c0 1.6.7 2.2 2.3 2.2h.3s.04 1.62 0 1.6c-.2.1-.5.1-.8.1c-2.5 0-3.7-1.2-3.7-3.9zm10.9-2.2c0-3.7 2.1-6.2 5.4-6.2c3.2 0 5.2 2.5 5.2 5.9c0 .3 0 .7-.1.9h-8.5c.2 2.5 1.5 4 3.6 4c1.5 0 2.7-.7 3.4-1.8l1.3 1.1c-.9 1.3-2.5 2.4-4.8 2.4c-3.4 0-5.5-2.4-5.5-6.3zm2-1h6.6c-.1-2.1-1.4-3.5-3.2-3.5c-1.8 0-3.1 1.3-3.4 3.5zm10.9-4.9h1.9v1.6c.6-.9 2-1.9 3.6-1.9c2.8 0 4.3 1.8 4.3 4.8c.03-.02 0 7.4 0 7.4h-1.9s.01-7.22 0-7.2c0-2.2-1-3.3-2.9-3.3c-1.6 0-2.7 1-3 2.2c-.04-.03 0 8.3 0 8.3h-2V59.3zm21.1 10.2c-.9 1.2-2.2 2-3.8 2c-3.1 0-5.1-2.6-5.1-6.3c0-3.6 2-6.2 5.1-6.2c1.5 0 2.9.8 3.8 1.9c-.04 0 0-6.7 0-6.7h1.9v17h-1.9s.03-1.68 0-1.7zm0-1.9v-4.7c-.6-1.3-1.9-2.2-3.4-2.2c-2.2 0-3.6 1.7-3.6 4.5c0 2.9 1.4 4.6 3.6 4.6c1.5 0 2.8-.9 3.4-2.2zm10.9-.2c-.04.01 0-6.5 0-6.5h-2.2v-1.6h2.2v-3.1h1.9v3.1h2.6v1.6h-2.6s-.02 6.51 0 6.5c0 1.6.7 2.2 2.3 2.2h.3s.04 1.62 0 1.6c-.2.1-.5.1-.8.1c-2.5 0-3.7-1.2-3.7-3.9zm15.2-2.2c0-2.8-1.4-4.5-3.6-4.5c-2.2 0-3.7 1.7-3.7 4.5c0 2.9 1.5 4.6 3.7 4.6c2.2 0 3.6-1.7 3.6-4.6zm2 0c0 3.7-2.2 6.3-5.6 6.3c-3.4 0-5.6-2.6-5.6-6.3c0-3.6 2.2-6.2 5.6-6.2c3.4 0 5.6 2.6 5.6 6.2zm8.2 2.2v-6.5h-2.1v-1.6h2.1v-3.1h1.9v3.1h2.7v1.6h-2.7s.02 6.51 0 6.5c0 1.6.7 2.2 2.3 2.2h.4s-.02 1.62 0 1.6c-.3.1-.6.1-.9.1c-2.4 0-3.7-1.2-3.7-3.9zm6.8-13.2h1.9s-.02 6.61 0 6.6c.6-.9 2-1.8 3.5-1.8c2.8 0 4.4 1.8 4.4 4.8c-.04-.02 0 7.4 0 7.4h-2s.04-7.22 0-7.2c0-2.2-1-3.3-2.8-3.3c-1.7 0-2.8 1-3.1 2.2c-.02-.03 0 8.3 0 8.3H988v-17zm12.1 11c0-3.7 2.1-6.2 5.4-6.2c3.2 0 5.2 2.5 5.2 5.9c0 .3-.1.7-.1.9h-8.5c.2 2.5 1.5 4 3.6 4c1.4 0 2.6-.7 3.3-1.8l1.3 1.1c-.9 1.3-2.4 2.4-4.7 2.4c-3.4 0-5.5-2.4-5.5-6.3zm2-1h6.6c-.2-2.1-1.4-3.5-3.2-3.5c-1.8 0-3.1 1.3-3.4 3.5zm17.8-10v17h-2v-17h2zm11.6 11c0-2.8-1.4-4.5-3.6-4.5c-2.2 0-3.6 1.7-3.6 4.5c0 2.9 1.4 4.6 3.6 4.6c2.2 0 3.6-1.7 3.6-4.6zm2 0c0 3.7-2.2 6.3-5.6 6.3c-3.4 0-5.6-2.6-5.6-6.3c0-3.6 2.2-6.2 5.6-6.2c3.4 0 5.6 2.6 5.6 6.2zm1-5.9h2.1s1.98 7.24 2 7.2c.3 1.1.6 2.2.6 2.5c0-.3.3-1.4.7-2.4c-.05-.03 2.2-7.3 2.2-7.3h2s2.28 7.27 2.3 7.3c.3 1 .6 2.1.6 2.4h.1c0-.3.2-1.4.6-2.5c-.05.04 2-7.2 2-7.2h2l-3.6 11.9h-1.9s-2.44-7.54-2.4-7.5c-.4-1-.6-2-.6-2.4h-.1c0 .4-.3 1.4-.6 2.4c-.03-.04-2.5 7.5-2.5 7.5h-1.9l-3.6-11.9zm23.2 8.3c0-2.2 1.7-4 4.4-4c1.2 0 2.4.5 3.3 1.4v-1.2c0-1.7-1-3.1-2.9-3.1c-1.5 0-2.2.5-3 1.4l-1.1-1.3c.8-.9 2-1.8 4.1-1.8c3.1 0 4.8 1.9 4.8 4.7c-.02-.01 0 7.5 0 7.5h-1.9s.03-1.18 0-1.2c-.9 1-2.1 1.5-3.3 1.5c-2.7 0-4.4-1.8-4.4-3.9zm7.7.8v-1.7c-.7-1-2-1.5-3.1-1.5c-1.9 0-2.7 1.3-2.7 2.4c0 1 .8 2.3 2.7 2.3c1.1 0 2.4-.5 3.1-1.5zm5-9.1h1.8v1.6c.6-.9 2-1.9 3.6-1.9c2.8 0 4.3 1.8 4.3 4.8c.05-.02 0 7.4 0 7.4h-1.9s.03-7.22 0-7.2c0-2.2-1-3.3-2.9-3.3c-1.6 0-2.7 1-3 2.2c-.03-.03 0 8.3 0 8.3h-1.9V59.3zm21.1 10.2c-.9 1.2-2.3 2-3.8 2c-3.2 0-5.2-2.6-5.2-6.3c0-3.6 2-6.2 5.2-6.2c1.4 0 2.8.8 3.7 1.9c-.02 0 0-6.7 0-6.7h1.9v17h-1.8s-.05-1.68 0-1.7zm-.1-1.9v-4.7c-.6-1.3-1.8-2.2-3.3-2.2c-2.3 0-3.6 1.7-3.6 4.5c0 2.9 1.3 4.6 3.6 4.6c1.5 0 2.7-.9 3.3-2.2zm8.8-8.3h2l2 7.2c.3 1.1.6 2.2.6 2.5h.1c0-.3.3-1.4.6-2.4c-.01-.03 2.3-7.3 2.3-7.3h1.9s2.32 7.27 2.3 7.3c.4 1 .6 2.1.6 2.4h.1c0-.3.3-1.4.6-2.5l2-7.2h2l-3.6 11.9h-1.9s-2.4-7.54-2.4-7.5c-.3-1-.6-2-.6-2.4h-.1c0 .4-.3 1.4-.6 2.4l-2.4 7.5h-1.9l-3.6-11.9zm21 0v11.9h-1.9V59.3h1.9zm.2-5.1v2.4h-2.4v-2.4h2.4zm11.3 15.3c-.9 1.2-2.3 2-3.8 2c-3.2 0-5.2-2.6-5.2-6.3c0-3.6 2-6.2 5.2-6.2c1.5 0 2.8.8 3.7 1.9c-.01 0 0-6.7 0-6.7h1.9v17h-1.8s-.04-1.68 0-1.7zm-.1-1.9v-4.7c-.6-1.3-1.8-2.2-3.3-2.2c-2.3 0-3.6 1.7-3.6 4.5c0 2.9 1.3 4.6 3.6 4.6c1.5 0 2.7-.9 3.3-2.2zm4.4-2.4c0-3.7 2.1-6.2 5.4-6.2c3.2 0 5.2 2.5 5.2 5.9c0 .3-.1.7-.1.9h-8.5c.2 2.5 1.5 4 3.6 4c1.4 0 2.6-.7 3.3-1.8l1.3 1.1c-.9 1.3-2.4 2.4-4.8 2.4c-3.3 0-5.4-2.4-5.4-6.3zm2-1h6.5c-.1-2.1-1.3-3.5-3.1-3.5c-1.8 0-3.1 1.3-3.4 3.5zm21.9-2.1c-.7-1-1.6-1.4-2.6-1.4c-1.2 0-1.8.7-1.8 1.6c0 .9.5 1.4 1.5 1.6l1 .2c2.3.5 3.6 1.6 3.6 3.6c0 2-1.6 3.8-4.5 3.8c-2 0-3.6-1.2-4.4-2.5l1.2-1.2c.7 1.1 1.8 2 3.3 2c1.5 0 2.5-.7 2.5-1.9c0-1.1-.9-1.7-2.2-2l-1-.2c-1.9-.4-3-1.5-3-3.2c0-1.8 1.4-3.5 3.9-3.5c1.6 0 2.9.8 3.7 2l-1.2 1.1zm4.7 5.3v-6.5h-2.1v-1.6h2.1v-3.1h1.9v3.1h2.7v1.6h-2.7s.03 6.51 0 6.5c0 1.6.7 2.2 2.4 2.2h.3v1.6c-.2.1-.6.1-.9.1c-2.4 0-3.7-1.2-3.7-3.9zm5.9.2c0-2.2 1.7-4 4.4-4c1.2 0 2.4.5 3.3 1.4v-1.2c0-1.7-1-3.1-2.9-3.1c-1.5 0-2.2.5-3 1.4l-1.1-1.3c.8-.9 2-1.8 4.1-1.8c3.1 0 4.8 1.9 4.8 4.7v7.5h-1.9s.04-1.18 0-1.2c-.8 1-2.1 1.5-3.3 1.5c-2.7 0-4.4-1.8-4.4-3.9zm7.7.8v-1.7c-.7-1-2-1.5-3.1-1.5c-1.9 0-2.7 1.3-2.7 2.4c0 1 .8 2.3 2.7 2.3c1.1 0 2.4-.5 3.1-1.5zm5-9.1h1.8v1.6c.6-.9 2-1.9 3.6-1.9c2.8 0 4.4 1.8 4.4 4.8c-.05-.02 0 7.4 0 7.4h-2s.03-7.22 0-7.2c0-2.2-1-3.3-2.8-3.3c-1.7 0-2.8 1-3.1 2.2c-.02-.03 0 8.3 0 8.3h-1.9V59.3zm17.6-.3c2.2 0 4.1 1.3 4.7 3.2l-1.5.7c-.5-1.4-1.7-2.2-3.2-2.2c-2.2 0-3.5 1.7-3.5 4.5c0 2.9 1.3 4.6 3.5 4.6c1.5 0 2.7-.8 3.2-2.2l1.5.7c-.6 1.9-2.5 3.2-4.7 3.2c-3.5 0-5.5-2.6-5.5-6.3c0-3.6 2-6.2 5.5-6.2zm6.2 6.2c0-3.7 2.2-6.2 5.4-6.2c3.2 0 5.2 2.5 5.2 5.9c0 .3 0 .7-.1.9h-8.5c.2 2.5 1.5 4 3.6 4c1.5 0 2.7-.7 3.4-1.8l1.3 1.1c-.9 1.3-2.5 2.4-4.8 2.4c-3.4 0-5.5-2.4-5.5-6.3zm2.1-1h6.5c-.1-2.1-1.4-3.5-3.2-3.5c-1.8 0-3.1 1.3-3.3 3.5zm10.6 5.5h2.8v2.8h-2.8v-2.8zm5.7-9.7l1.2-3.9h-1.4v-2.4h2.7v2.1l-1.1 4.2h-1.4zm4.8 0l1.1-3.9h-1.3v-2.4h2.7v2.1l-1.2 4.2h-1.3z" stroke="none" fill="#fff"/></g><g id="Polygon59382"><path d="m8.9 1.7L7.8 5.6h1.3v2.4H6.4V5.8l1.1-4.1h1.4zm-4.7 0L3 5.6h1.4v2.4H1.7V5.8l1.1-4.1h1.4zm8.3 1.2s5.31-.02 5.3 0c3.2 0 5 1.6 5 4.3c0 1.4-.7 2.6-2 3.3c1.9.5 3.2 1.7 3.2 4.1c0 2.8-1.8 4.6-5.3 4.6h-6.2V2.9zm6.1 14.6c2.3 0 3.4-1.1 3.4-2.9c0-1.9-1.1-3-3.4-3c.02.04-4.1 0-4.1 0v5.9s4.12.04 4.1 0zm-1-7.5c2.1 0 3.1-1 3.1-2.7c0-1.7-1-2.8-3.1-2.8c-.03.04-3.1 0-3.1 0v5.5s3.07-.02 3.1 0zm11.8 8L24.8 7.3h2.1s2.69 6.81 2.7 6.8c.4.9.7 1.8.7 2.1c.2-.6.3-1.2.7-2.1c-.02.01 2.5-6.8 2.5-6.8h2.1L29 23.7h-2l2.4-5.7zm12-2.4c0-2.2 1.8-4 4.4-4c1.3 0 2.5.5 3.4 1.4v-1.2c0-1.7-1-3.1-3-3.1c-1.4 0-2.1.5-3 1.4l-1.1-1.3C43 7.9 44.2 7 46.3 7c3.1 0 4.8 1.9 4.8 4.7c-.03-.01 0 7.5 0 7.5h-1.9s.02-1.18 0-1.2c-.9 1-2.1 1.5-3.4 1.5c-2.6 0-4.4-1.8-4.4-3.9zm7.8.8v-1.7c-.7-1-2-1.5-3.1-1.5c-1.9 0-2.7 1.3-2.7 2.4c0 1 .8 2.3 2.7 2.3c1.1 0 2.4-.5 3.1-1.5zm4.9-9.1h1.9S55.99 9 56 9c.9-1.2 2.2-2 3.8-2C63 7 65 9.6 65 13.2c0 3.7-2 6.3-5.2 6.3c-1.5 0-2.9-.8-3.7-1.9c-.04.02 0 6.1 0 6.1h-2V7.3zm8.9 5.9c0-2.8-1.4-4.5-3.6-4.5c-1.5 0-2.8.9-3.3 2.2v4.7c.5 1.3 1.8 2.2 3.3 2.2c2.2 0 3.6-1.7 3.6-4.6zm4.4-5.9h1.9s-.01 1.7 0 1.7c.9-1.2 2.2-2 3.8-2c3.1 0 5.2 2.6 5.2 6.2c0 3.7-2.1 6.3-5.2 6.3c-1.5 0-2.9-.8-3.7-1.9c-.04.02 0 6.1 0 6.1h-2V7.3zm8.9 5.9c0-2.8-1.4-4.5-3.6-4.5c-1.5 0-2.8.9-3.3 2.2v4.7c.5 1.3 1.8 2.2 3.3 2.2c2.2 0 3.6-1.7 3.6-4.6zm6.4-11v17h-2v-17h2zM89.2 18L84.6 7.3h2s2.75 6.81 2.8 6.8c.3.9.6 1.8.6 2.1h.1c.1-.6.3-1.2.6-2.1c.04.01 2.6-6.8 2.6-6.8h2.1l-6.6 16.4h-2.1l2.5-5.7zm9.9-10.7v11.9h-1.9V7.3h1.9zm.3-5.1v2.4H97V2.2h2.4zm2.9 5.1h1.9s-.02 1.63 0 1.6c.6-.9 2-1.9 3.6-1.9c2.8 0 4.3 1.8 4.3 4.8c.03-.02 0 7.4 0 7.4h-1.9s.01-7.22 0-7.2c0-2.2-1-3.3-2.9-3.3c-1.6 0-2.7 1-3 2.2c-.05-.03 0 8.3 0 8.3h-2V7.3zm12.2 5.6c0-3.4 1.9-5.9 4.9-5.9c1.5 0 2.9.8 3.7 2c.04-.05 0-1.7 0-1.7h1.9v10.9c0 3-1.7 5.8-5.4 5.8c-2.5 0-4.1-1.4-4.9-3l1.5-.9c.6 1.3 1.7 2.2 3.3 2.2c2.6 0 3.6-1.9 3.6-4.1v-1.3c-.9 1.1-2.2 1.8-3.7 1.8c-3 0-4.9-2.4-4.9-5.8zm8.6 2.1v-4.2c-.6-1.2-1.8-2.1-3.3-2.1c-2.1 0-3.4 1.6-3.4 4.2c0 2.5 1.3 4.1 3.4 4.1c1.5 0 2.7-.8 3.3-2zm9.1.6c0-2.2 1.7-4 4.4-4c1.3 0 2.5.5 3.3 1.4v-1.2c0-1.7-.9-3.1-2.9-3.1c-1.4 0-2.1.5-3 1.4l-1.1-1.3c.9-.9 2.1-1.8 4.2-1.8c3.1 0 4.7 1.9 4.7 4.7c.04-.01 0 7.5 0 7.5H140V18c-.9 1-2.1 1.5-3.4 1.5c-2.7 0-4.4-1.8-4.4-3.9zm7.7.8v-1.7c-.6-1-1.9-1.5-3-1.5c-2 0-2.7 1.3-2.7 2.4c0 1 .7 2.3 2.7 2.3c1.1 0 2.4-.5 3-1.5zm11.8 2.8h-1.9v-17h1.9s.05 6.7 0 6.7c.9-1.1 2.3-1.9 3.8-1.9c3.1 0 5.2 2.6 5.2 6.2c0 3.7-2.1 6.3-5.2 6.3c-1.5 0-2.9-.8-3.8-2c-.02.02 0 1.7 0 1.7zm7-6c0-2.8-1.4-4.5-3.6-4.5c-1.5 0-2.8.9-3.4 2.2v4.7c.6 1.3 1.9 2.2 3.4 2.2c2.2 0 3.6-1.7 3.6-4.6zm6.3-11v17h-1.9v-17h1.9zm2.3 13.4c0-2.2 1.8-4 4.4-4c1.3 0 2.5.5 3.4 1.4v-1.2c0-1.7-1-3.1-3-3.1c-1.4 0-2.1.5-3 1.4L168 8.8c.9-.9 2.1-1.8 4.2-1.8c3.1 0 4.8 1.9 4.8 4.7c-.03-.01 0 7.5 0 7.5h-1.9s.03-1.18 0-1.2c-.9 1-2.1 1.5-3.4 1.5c-2.6 0-4.4-1.8-4.4-3.9zm7.8.8v-1.7c-.7-1-2-1.5-3.1-1.5c-1.9 0-2.7 1.3-2.7 2.4c0 1 .8 2.3 2.7 2.3c1.1 0 2.4-.5 3.1-1.5zm9.7-9.4c2.3 0 4.1 1.3 4.7 3.2l-1.5.7c-.5-1.4-1.7-2.2-3.2-2.2c-2.1 0-3.5 1.7-3.5 4.5c0 2.9 1.4 4.6 3.5 4.6c1.5 0 2.7-.8 3.2-2.2l1.5.7c-.6 1.9-2.4 3.2-4.7 3.2c-3.4 0-5.5-2.6-5.5-6.3c0-3.6 2.1-6.2 5.5-6.2zm10.7 6.5l-1.8 2v3.7h-1.9v-17h1.9v10.9l5.1-5.8h2.3v.1l-4.4 4.8l5 6.9v.1h-2.2l-4-5.7zm11.8-.3c0-3.7 2.1-6.2 5.4-6.2c3.2 0 5.1 2.5 5.1 5.9v.9h-8.5c.1 2.5 1.4 4 3.6 4c1.4 0 2.6-.7 3.3-1.8l1.3 1.1c-.9 1.3-2.4 2.4-4.8 2.4c-3.4 0-5.4-2.4-5.4-6.3zm2-1h6.5c-.1-2.1-1.3-3.5-3.1-3.5c-1.9 0-3.1 1.3-3.4 3.5zm10.9-4.9h1.8s.04 1.63 0 1.6c.7-.9 2-1.9 3.7-1.9c1.7 0 3 .8 3.6 2.1c.6-1 2.1-2.1 4-2.1c2.7 0 4.2 1.8 4.2 4.7c.02.04 0 7.5 0 7.5h-1.9v-7.3c0-2.1-1-3.2-2.7-3.2c-1.6 0-2.7 1-3.1 2.2c.02-.03 0 8.3 0 8.3h-1.9v-7.3c0-2.1-1-3.2-2.7-3.2c-1.6 0-2.7 1-3.1 2.2c.02-.03 0 8.3 0 8.3h-1.9V7.3zm22.2 11.9h-1.8v-17h1.9s.02 6.7 0 6.7c.9-1.1 2.2-1.9 3.7-1.9c3.2 0 5.2 2.6 5.2 6.2c0 3.7-2 6.3-5.2 6.3c-1.5 0-2.9-.8-3.8-2c.04.02 0 1.7 0 1.7zm7-6c0-2.8-1.3-4.5-3.6-4.5c-1.5 0-2.7.9-3.3 2.2v4.7c.6 1.3 1.8 2.2 3.3 2.2c2.3 0 3.6-1.7 3.6-4.6zm6.4-11v17h-1.9v-17h1.9zm2.5 11c0-3.7 2.1-6.2 5.4-6.2c3.2 0 5.2 2.5 5.2 5.9c0 .3-.1.7-.1.9h-8.5c.2 2.5 1.5 4 3.6 4c1.4 0 2.6-.7 3.3-1.8l1.3 1.1c-.9 1.3-2.4 2.4-4.7 2.4c-3.4 0-5.5-2.4-5.5-6.3zm2-1h6.6c-.2-2.1-1.4-3.5-3.2-3.5c-1.8 0-3.1 1.3-3.4 3.5zm10.9-4.9h1.9s-.03 1.63 0 1.6c.6-.9 1.9-1.9 3.6-1.9c1.7 0 3 .8 3.6 2.1c.6-1 2.1-2.1 4-2.1c2.7 0 4.2 1.8 4.2 4.7c.05.04 0 7.5 0 7.5h-1.9s.03-7.27 0-7.3c0-2.1-1-3.2-2.7-3.2c-1.6 0-2.7 1-3.1 2.2c.04-.03 0 8.3 0 8.3h-1.9s.02-7.27 0-7.3c0-2.1-1-3.2-2.7-3.2c-1.6 0-2.7 1-3.1 2.2c.04-.03 0 8.3 0 8.3h-1.9V7.3zm24.6 5.9c0-3.7 2.1-6.2 5.4-6.2c3.2 0 5.2 2.5 5.2 5.9c0 .3 0 .7-.1.9h-8.5c.2 2.5 1.5 4 3.6 4c1.5 0 2.7-.7 3.3-1.8l1.3 1.1c-.8 1.3-2.4 2.4-4.7 2.4c-3.4 0-5.5-2.4-5.5-6.3zm2-1h6.6c-.2-2.1-1.4-3.5-3.2-3.5c-1.8 0-3.1 1.3-3.4 3.5zm15.9 1l3.9 5.9v.1h-2.2l-3-4.9l-3.1 4.9h-2.2v-.1l3.9-5.9l-3.7-5.8v-.1h2.2l2.9 4.6l2.8-4.6h2.2v.1l-3.7 5.8zM323.8 7c2.2 0 4 1.3 4.7 3.2l-1.5.7c-.6-1.4-1.7-2.2-3.2-2.2c-2.2 0-3.5 1.7-3.5 4.5c0 2.9 1.3 4.6 3.5 4.6c1.5 0 2.6-.8 3.2-2.2l1.5.7c-.7 1.9-2.5 3.2-4.7 3.2c-3.5 0-5.5-2.6-5.5-6.3c0-3.6 2-6.2 5.5-6.2zm8.9-4.8v17h-2v-17h2zm12.8 17h-1.8s-.03-1.61 0-1.6c-.7.9-2 1.9-3.6 1.9c-2.8 0-4.4-1.8-4.4-4.8c.03.01 0-7.4 0-7.4h2s-.05 7.22 0 7.2c0 2.2 1 3.3 2.8 3.3c1.6 0 2.7-1 3.1-2.2V7.3h1.9v11.9zm9.3-9.1c-.7-1-1.6-1.4-2.6-1.4c-1.2 0-1.8.7-1.8 1.6c0 .9.5 1.4 1.5 1.6l1 .2c2.3.5 3.6 1.6 3.6 3.6c0 2-1.6 3.8-4.4 3.8c-2.1 0-3.7-1.2-4.5-2.5l1.2-1.2c.7 1.1 1.8 2 3.3 2c1.5 0 2.5-.7 2.5-1.9c0-1.1-.9-1.7-2.2-2l-1-.2c-1.9-.4-2.9-1.5-2.9-3.2c0-1.8 1.3-3.5 3.8-3.5c1.6 0 2.9.8 3.7 2l-1.2 1.1zm6-2.8v11.9h-1.9V7.3h1.9zm.2-5.1v2.4h-2.4V2.2h2.4zm1.7 5.1h2s2.76 7.68 2.8 7.7c.3.9.6 1.8.6 2.2h.1c0-.4.3-1.3.6-2.2l2.7-7.7h2.1l-4.5 11.9h-1.9l-4.5-11.9zm11.7 5.9c0-3.7 2.1-6.2 5.4-6.2c3.2 0 5.2 2.5 5.2 5.9c0 .3 0 .7-.1.9h-8.5c.2 2.5 1.5 4 3.6 4c1.5 0 2.7-.7 3.3-1.8l1.3 1.1c-.8 1.3-2.4 2.4-4.7 2.4c-3.4 0-5.5-2.4-5.5-6.3zm2-1h6.6c-.2-2.1-1.4-3.5-3.2-3.5c-1.8 0-3.1 1.3-3.4 3.5zm12.9-10v17h-2v-17h2zm6.5 15.8l-4.7-10.7h2.1s2.75 6.81 2.7 6.8c.4.9.7 1.8.7 2.1h.1c.1-.6.3-1.2.6-2.1c.04.01 2.6-6.8 2.6-6.8h2.1l-6.6 16.4h-2.1l2.5-5.7zm13.7-9.1h-2V7.3h2s.03-1.76 0-1.8c0-2 1.2-3.5 3.6-3.5c.3 0 .7 0 1 .1c-.03-.04 0 1.5 0 1.5c0 0-.61.05-.6 0c-1.4 0-2.1.6-2.1 2c.05-.03 0 1.7 0 1.7h2.7v1.6h-2.7v10.3h-1.9V8.9zm14.7 4.3c0-2.8-1.4-4.5-3.6-4.5c-2.2 0-3.6 1.7-3.6 4.5c0 2.9 1.4 4.6 3.6 4.6c2.2 0 3.6-1.7 3.6-4.6zm2 0c0 3.7-2.2 6.3-5.6 6.3c-3.4 0-5.6-2.6-5.6-6.3c0-3.6 2.2-6.2 5.6-6.2c3.4 0 5.6 2.6 5.6 6.2zm2.5-5.9h1.8v2.1c.7-1.3 1.8-2.4 3.5-2.4c.2 0 .4 0 .5.1c.04-.02 0 1.9 0 1.9c0 0-.61.02-.6 0c-1.6 0-2.7.9-3.3 2.7c-.02-.01 0 7.5 0 7.5h-1.9V7.3zm13.4 8.1c.02.01 0-6.5 0-6.5H440V7.3h2.1V4.2h1.9v3.1h2.7v1.6H444s.04 6.51 0 6.5c0 1.6.8 2.2 2.4 2.2h.3v1.6c-.2.1-.5.1-.9.1c-2.4 0-3.7-1.2-3.7-3.9zm6.8-13.2h1.9s.01 6.61 0 6.6c.7-.9 2-1.8 3.6-1.8c2.7 0 4.3 1.8 4.3 4.8c-.02-.02 0 7.4 0 7.4h-1.9s-.04-7.22 0-7.2c0-2.2-1.1-3.3-2.9-3.3c-1.6 0-2.8 1-3.1 2.2v8.3h-1.9v-17zm12.1 11c0-3.7 2.1-6.2 5.4-6.2c3.2 0 5.2 2.5 5.2 5.9c0 .3 0 .7-.1.9H463c.2 2.5 1.5 4 3.6 4c1.5 0 2.7-.7 3.4-1.8l1.3 1.1c-.9 1.3-2.5 2.4-4.8 2.4c-3.4 0-5.5-2.4-5.5-6.3zm2-1h6.6c-.1-2.1-1.4-3.5-3.2-3.5c-1.8 0-3.1 1.3-3.4 3.5zm16.3-9.3h1.7s7.82 11.07 7.8 11.1c.6.8 1.2 1.7 1.3 2h.1c-.1-.3-.2-1.4-.2-2.4c.05-.04 0-10.7 0-10.7h2v16.3h-1.7l-7.8-11.1c-.6-.9-1.2-1.7-1.3-2.1h-.1c.1.4.2 1.4.2 2.5c-.01.02 0 10.7 0 10.7h-2V2.9zm16.3 21.6l1.3-4h-1.5v-2.8h3v2.5l-1.3 4.3h-1.5zm11.6-9.1c-.04.01 0-6.5 0-6.5H505V7.3h2.2V4.2h1.9v3.1h2.6v1.6h-2.6s-.02 6.51 0 6.5c0 1.6.7 2.2 2.3 2.2h.3s.04 1.62 0 1.6c-.2.1-.5.1-.8.1c-2.5 0-3.7-1.2-3.7-3.9zm6.7-13.2h1.9s.05 6.61 0 6.6c.7-.9 2-1.8 3.6-1.8c2.8 0 4.3 1.8 4.3 4.8c.02-.02 0 7.4 0 7.4h-1.9V12c0-2.2-1.1-3.3-2.9-3.3c-1.6 0-2.7 1-3.1 2.2c.05-.03 0 8.3 0 8.3h-1.9v-17zm12.1 11c0-3.7 2.2-6.2 5.4-6.2c3.2 0 5.2 2.5 5.2 5.9v.9h-8.5c.1 2.5 1.4 4 3.5 4c1.5 0 2.7-.7 3.4-1.8l1.3 1.1c-.9 1.3-2.4 2.4-4.8 2.4c-3.4 0-5.5-2.4-5.5-6.3zm2.1-1h6.5c-.1-2.1-1.4-3.5-3.2-3.5c-1.8 0-3 1.3-3.3 3.5zm16.6-3.3h-2V7.3h2s.02-1.76 0-1.8c0-2 1.2-3.5 3.5-3.5c.4 0 .8 0 1.1.1c-.05-.04 0 1.5 0 1.5c0 0-.62.05-.6 0c-1.4 0-2.1.6-2.1 2c.04-.03 0 1.7 0 1.7h2.7v1.6h-2.7v10.3h-1.9V8.9zm6.5-1.6h1.8s.02 2.13 0 2.1c.7-1.3 1.8-2.4 3.5-2.4c.2 0 .4 0 .6.1c-.05-.02 0 1.9 0 1.9c0 0-.69.02-.7 0c-1.6 0-2.7.9-3.3 2.7v7.5h-1.9V7.3zm16.1 5.9c0-2.8-1.4-4.5-3.6-4.5c-2.2 0-3.6 1.7-3.6 4.5c0 2.9 1.4 4.6 3.6 4.6c2.2 0 3.6-1.7 3.6-4.6zm2 0c0 3.7-2.2 6.3-5.6 6.3c-3.4 0-5.6-2.6-5.6-6.3c0-3.6 2.2-6.2 5.6-6.2c3.4 0 5.6 2.6 5.6 6.2zm2.5-5.9h1.8s.04 1.63 0 1.6c.7-.9 2-1.9 3.7-1.9c2.7 0 4.3 1.8 4.3 4.8c-.02-.02 0 7.4 0 7.4h-1.9s-.04-7.22 0-7.2c0-2.2-1.1-3.3-2.9-3.3c-1.6 0-2.8 1-3.1 2.2v8.3h-1.9V7.3zm13.7 8.1V8.9h-2.1V7.3h2.1V4.2h1.9v3.1h2.7v1.6h-2.7v6.5c0 1.6.7 2.2 2.3 2.2h.4s-.02 1.62 0 1.6c-.3.1-.6.1-.9.1c-2.4 0-3.7-1.2-3.7-3.9zm20.2-2.2c0-2.8-1.5-4.5-3.7-4.5c-2.2 0-3.6 1.7-3.6 4.5c0 2.9 1.4 4.6 3.6 4.6c2.2 0 3.7-1.7 3.7-4.6zm1.9 0c0 3.7-2.2 6.3-5.6 6.3c-3.4 0-5.6-2.6-5.6-6.3c0-3.6 2.2-6.2 5.6-6.2c3.4 0 5.6 2.6 5.6 6.2zm3.1-4.3h-2V7.3h2s.04-1.76 0-1.8c0-2 1.2-3.5 3.6-3.5c.3 0 .7 0 1 .1c-.02-.04 0 1.5 0 1.5c0 0-.6.05-.6 0c-1.4 0-2 .6-2 2c-.04-.03 0 1.7 0 1.7h2.6v1.6h-2.6v10.3h-2V8.9zm12.3 6.5c-.04.01 0-6.5 0-6.5h-2.2V7.3h2.2V4.2h1.9v3.1h2.6v1.6h-2.6s-.02 6.51 0 6.5c0 1.6.7 2.2 2.3 2.2h.3s.04 1.62 0 1.6c-.2.1-.5.1-.8.1c-2.5 0-3.7-1.2-3.7-3.9zm6.7-13.2h1.9s.04 6.61 0 6.6c.7-.9 2-1.8 3.6-1.8c2.8 0 4.3 1.8 4.3 4.8c.02-.02 0 7.4 0 7.4h-1.9V12c0-2.2-1.1-3.3-2.9-3.3c-1.6 0-2.7 1-3.1 2.2c.04-.03 0 8.3 0 8.3h-1.9v-17zm12.1 11c0-3.7 2.2-6.2 5.4-6.2c3.2 0 5.2 2.5 5.2 5.9v.9h-8.5c.1 2.5 1.4 4 3.5 4c1.5 0 2.7-.7 3.4-1.8l1.3 1.1c-.9 1.3-2.4 2.4-4.8 2.4c-3.4 0-5.5-2.4-5.5-6.3zm2.1-1h6.5c-.1-2.1-1.4-3.5-3.2-3.5c-1.8 0-3 1.3-3.3 3.5zm16.2-9.3h1.8s7.76 11.07 7.8 11.1c.6.8 1.1 1.7 1.3 2c-.1-.3-.1-1.4-.1-2.4c-.02-.04 0-10.7 0-10.7h2v16.3h-1.8s-7.75-11.09-7.8-11.1c-.6-.9-1.1-1.7-1.2-2.1h-.1c.1.4.1 1.4.1 2.5c.02.02 0 10.7 0 10.7h-2V2.9zm21.3 4.4h1.9v1.6c.6-.9 2-1.9 3.6-1.9c1.8 0 3 .8 3.7 2.1c.5-1 2-2.1 3.9-2.1c2.7 0 4.3 1.8 4.3 4.7c-.03.04 0 7.5 0 7.5h-1.9s-.05-7.27 0-7.3c0-2.1-1-3.2-2.8-3.2c-1.6 0-2.7 1-3 2.2c-.03-.03 0 8.3 0 8.3h-2s.05-7.27 0-7.3c0-2.1-.9-3.2-2.7-3.2c-1.6 0-2.7 1-3 2.2c-.04-.03 0 8.3 0 8.3h-2V7.3zm28.9 5.9c0-2.8-1.4-4.5-3.6-4.5c-2.2 0-3.6 1.7-3.6 4.5c0 2.9 1.4 4.6 3.6 4.6c2.2 0 3.6-1.7 3.6-4.6zm2 0c0 3.7-2.2 6.3-5.6 6.3c-3.4 0-5.6-2.6-5.6-6.3c0-3.6 2.2-6.2 5.6-6.2c3.4 0 5.6 2.6 5.6 6.2zm10.7 4.3c-.9 1.2-2.3 2-3.8 2c-3.2 0-5.2-2.6-5.2-6.3c0-3.6 2-6.2 5.2-6.2c1.5 0 2.8.8 3.7 1.9c.01 0 0-6.7 0-6.7h1.9v17H723s-.01-1.68 0-1.7zm-.1-1.9v-4.7c-.5-1.3-1.8-2.2-3.3-2.2c-2.3 0-3.6 1.7-3.6 4.5c0 2.9 1.3 4.6 3.6 4.6c1.5 0 2.8-.9 3.3-2.2zm4.4-2.4c0-3.7 2.1-6.2 5.4-6.2c3.2 0 5.2 2.5 5.2 5.9c0 .3 0 .7-.1.9h-8.5c.2 2.5 1.5 4 3.6 4c1.5 0 2.7-.7 3.4-1.8l1.3 1.1c-.9 1.3-2.5 2.4-4.8 2.4c-3.4 0-5.5-2.4-5.5-6.3zm2-1h6.6c-.1-2.1-1.4-3.5-3.2-3.5c-1.8 0-3.1 1.3-3.4 3.5zm12.9-10v17h-2v-17h2zm8.1 0h1.9s.02 6.61 0 6.6c.7-.9 2-1.8 3.6-1.8c2.7 0 4.3 1.8 4.3 4.8c-.01-.02 0 7.4 0 7.4h-1.9s-.03-7.22 0-7.2c0-2.2-1.1-3.3-2.9-3.3c-1.6 0-2.7 1-3.1 2.2c.02-.03 0 8.3 0 8.3h-1.9v-17zm11.9 13.4c0-2.2 1.8-4 4.4-4c1.3 0 2.5.5 3.4 1.4v-1.2c0-1.7-1-3.1-3-3.1c-1.4 0-2.1.5-3 1.4l-1.1-1.3c.9-.9 2.1-1.8 4.2-1.8c3.1 0 4.8 1.9 4.8 4.7c-.03-.01 0 7.5 0 7.5H770s.03-1.18 0-1.2c-.9 1-2.1 1.5-3.4 1.5c-2.6 0-4.4-1.8-4.4-3.9zm7.8.8v-1.7c-.7-1-2-1.5-3.1-1.5c-1.9 0-2.7 1.3-2.7 2.4c0 1 .8 2.3 2.7 2.3c1.1 0 2.4-.5 3.1-1.5zm11-6.3c-.7-1-1.6-1.4-2.6-1.4c-1.2 0-1.8.7-1.8 1.6c0 .9.6 1.4 1.5 1.6l1 .2c2.3.5 3.6 1.6 3.6 3.6c0 2-1.6 3.8-4.4 3.8c-2.1 0-3.7-1.2-4.5-2.5l1.2-1.2c.7 1.1 1.8 2 3.3 2c1.5 0 2.5-.7 2.5-1.9c0-1.1-.9-1.7-2.2-2l-1-.2c-1.9-.4-2.9-1.5-2.9-3.2c0-1.8 1.3-3.5 3.8-3.5c1.6 0 2.9.8 3.7 2l-1.2 1.1zm10.8 9.1H790v-17h1.9s.01 6.7 0 6.7c.9-1.1 2.2-1.9 3.7-1.9c3.2 0 5.2 2.6 5.2 6.2c0 3.7-2 6.3-5.2 6.3c-1.5 0-2.9-.8-3.8-2c.04.02 0 1.7 0 1.7zm7-6c0-2.8-1.3-4.5-3.6-4.5c-1.5 0-2.7.9-3.3 2.2v4.7c.6 1.3 1.8 2.2 3.3 2.2c2.3 0 3.6-1.7 3.6-4.6zm3.7 0c0-3.7 2.2-6.2 5.4-6.2c3.2 0 5.2 2.5 5.2 5.9v.9h-8.5c.1 2.5 1.4 4 3.5 4c1.5 0 2.7-.7 3.4-1.8l1.3 1.1c-.9 1.3-2.4 2.4-4.8 2.4c-3.4 0-5.5-2.4-5.5-6.3zm2.1-1h6.5c-.1-2.1-1.4-3.5-3.2-3.5c-1.8 0-3 1.3-3.3 3.5zm10.1 1c0-3.7 2.2-6.2 5.4-6.2c3.2 0 5.2 2.5 5.2 5.9c0 .3 0 .7-.1.9h-8.4c.1 2.5 1.4 4 3.5 4c1.5 0 2.7-.7 3.4-1.8l1.3 1.1c-.9 1.3-2.4 2.4-4.8 2.4c-3.4 0-5.5-2.4-5.5-6.3zm2.1-1h6.5c-.1-2.1-1.4-3.5-3.2-3.5c-1.8 0-3 1.3-3.3 3.5zm10.9-4.9h1.8s.02 1.63 0 1.6c.6-.9 2-1.9 3.6-1.9c2.8 0 4.4 1.8 4.4 4.8c-.04-.02 0 7.4 0 7.4h-2s.04-7.22 0-7.2c0-2.2-1-3.3-2.8-3.3c-1.6 0-2.8 1-3.1 2.2v8.3h-1.9V7.3zm26 10.2c-.9 1.2-2.3 2-3.8 2c-3.2 0-5.2-2.6-5.2-6.3c0-3.6 2-6.2 5.2-6.2c1.5 0 2.8.8 3.7 1.9c.02 0 0-6.7 0-6.7h1.9v17h-1.8s-.01-1.68 0-1.7zm-.1-1.9v-4.7c-.5-1.3-1.8-2.2-3.3-2.2c-2.3 0-3.6 1.7-3.6 4.5c0 2.9 1.3 4.6 3.6 4.6c1.5 0 2.8-.9 3.3-2.2zm7.1-8.3v11.9h-1.9V7.3h1.9zm.2-5.1v2.4h-2.4V2.2h2.4zm3.8 6.7h-2V7.3h2V5.5c0-2 1.2-3.5 3.5-3.5c.3 0 .8 0 1 .1c.04-.04 0 1.5 0 1.5c0 0-.54.05-.5 0c-1.4 0-2.1.6-2.1 2c.02-.03 0 1.7 0 1.7h2.6v1.6h-2.6v10.3h-1.9V8.9zm7.3 0h-2.1V7.3h2.1s-.02-1.76 0-1.8c0-2 1.2-3.5 3.5-3.5c.3 0 .7 0 1 .1v1.5s-.56.05-.6 0c-1.4 0-2 .6-2 2v1.7h2.6v1.6h-2.6v10.3H872V8.9zm5.4 4.3c0-3.7 2.2-6.2 5.4-6.2c3.2 0 5.2 2.5 5.2 5.9v.9h-8.5c.1 2.5 1.4 4 3.5 4c1.5 0 2.7-.7 3.4-1.8l1.3 1.1c-.9 1.3-2.4 2.4-4.8 2.4c-3.4 0-5.5-2.4-5.5-6.3zm2.1-1h6.5c-.1-2.1-1.4-3.5-3.2-3.5c-1.8 0-3 1.3-3.3 3.5zm10.9-4.9h1.8s.03 2.13 0 2.1c.7-1.3 1.9-2.4 3.6-2.4c.1 0 .3 0 .5.1c-.04-.02 0 1.9 0 1.9c0 0-.68.02-.7 0c-1.6 0-2.7.9-3.3 2.7v7.5h-1.9V7.3zm6.9 5.9c0-3.7 2.2-6.2 5.4-6.2c3.2 0 5.2 2.5 5.2 5.9v.9h-8.5c.1 2.5 1.4 4 3.5 4c1.5 0 2.7-.7 3.4-1.8l1.3 1.1c-.9 1.3-2.4 2.4-4.8 2.4c-3.4 0-5.5-2.4-5.5-6.3zm2.1-1h6.5c-.1-2.1-1.4-3.5-3.2-3.5c-1.8 0-3 1.3-3.3 3.5zm10.9-4.9h1.8s.03 1.63 0 1.6c.7-.9 2-1.9 3.7-1.9c2.7 0 4.3 1.8 4.3 4.8c-.03-.02 0 7.4 0 7.4h-1.9s-.05-7.22 0-7.2c0-2.2-1.1-3.3-2.9-3.3c-1.6 0-2.8 1-3.1 2.2v8.3h-1.9V7.3zm13.7 8.1c-.02.01 0-6.5 0-6.5h-2.2V7.3h2.2V4.2h1.9v3.1h2.7v1.6h-2.7v6.5c0 1.6.7 2.2 2.3 2.2h.4s-.03 1.62 0 1.6c-.3.1-.6.1-.9.1c-2.4 0-3.7-1.2-3.7-3.9zm8.7-8.1v11.9h-1.9V7.3h1.9zm.2-5.1v2.4h-2.4V2.2h2.4zm2.1 13.4c0-2.2 1.7-4 4.4-4c1.2 0 2.4.5 3.3 1.4v-1.2c0-1.7-1-3.1-2.9-3.1c-1.4 0-2.2.5-3 1.4l-1.1-1.3c.8-.9 2-1.8 4.1-1.8c3.1 0 4.8 1.9 4.8 4.7v7.5h-1.8s-.05-1.18 0-1.2c-.9 1-2.2 1.5-3.4 1.5c-2.7 0-4.4-1.8-4.4-3.9zm7.7.8v-1.7c-.6-1-2-1.5-3.1-1.5c-1.9 0-2.7 1.3-2.7 2.4c0 1 .8 2.3 2.7 2.3c1.1 0 2.5-.5 3.1-1.5zm5.6-1c.04.01 0-6.5 0-6.5h-2.1V7.3h2.2V4.2h1.9v3.1h2.6v1.6h-2.6s-.04 6.51 0 6.5c0 1.6.7 2.2 2.3 2.2h.3s.03 1.62 0 1.6c-.2.1-.5.1-.8.1c-2.5 0-3.8-1.2-3.8-3.9zm6.1-2.2c0-3.7 2.1-6.2 5.4-6.2c3.2 0 5.2 2.5 5.2 5.9c0 .3-.1.7-.1.9h-8.5c.2 2.5 1.4 4 3.6 4c1.4 0 2.6-.7 3.3-1.8l1.3 1.1c-.9 1.3-2.4 2.4-4.8 2.4c-3.3 0-5.4-2.4-5.4-6.3zm2-1h6.5c-.1-2.1-1.3-3.5-3.1-3.5c-1.9 0-3.1 1.3-3.4 3.5zm19.1 5.3c-.9 1.2-2.2 2-3.8 2c-3.1 0-5.1-2.6-5.1-6.3c0-3.6 2-6.2 5.1-6.2c1.5 0 2.9.8 3.8 1.9c-.04 0 0-6.7 0-6.7h1.9v17h-1.9s.03-1.68 0-1.7zm0-1.9v-4.7c-.6-1.3-1.9-2.2-3.3-2.2c-2.3 0-3.6 1.7-3.6 4.5c0 2.9 1.3 4.6 3.6 4.6c1.4 0 2.7-.9 3.3-2.2zm10.8-6.7h-2V7.3h2s.03-1.76 0-1.8c0-2 1.2-3.5 3.6-3.5c.3 0 .7 0 1 .1c-.03-.04 0 1.5 0 1.5c0 0-.61.05-.6 0c-1.4 0-2 .6-2 2c-.05-.03 0 1.7 0 1.7h2.6v1.6h-2.6v10.3h-2V8.9zm6.5-1.6h1.8s.04 2.13 0 2.1c.7-1.3 1.9-2.4 3.6-2.4c.1 0 .3 0 .5.1c-.03-.02 0 1.9 0 1.9c0 0-.68.02-.7 0c-1.6 0-2.7.9-3.3 2.7v7.5h-1.9V7.3zm16.2 5.9c0-2.8-1.5-4.5-3.7-4.5c-2.2 0-3.6 1.7-3.6 4.5c0 2.9 1.4 4.6 3.6 4.6c2.2 0 3.7-1.7 3.7-4.6zm2 0c0 3.7-2.3 6.3-5.7 6.3c-3.4 0-5.6-2.6-5.6-6.3c0-3.6 2.2-6.2 5.6-6.2c3.4 0 5.7 2.6 5.7 6.2zm2.4-5.9h1.9s-.05 1.63 0 1.6c.6-.9 1.9-1.9 3.6-1.9c1.7 0 3 .8 3.6 2.1c.6-1 2.1-2.1 4-2.1c2.7 0 4.2 1.8 4.2 4.7c.03.04 0 7.5 0 7.5h-1.9v-7.3c0-2.1-1-3.2-2.7-3.2c-1.6 0-2.7 1-3.1 2.2c.03-.03 0 8.3 0 8.3h-1.9v-7.3c0-2.1-1-3.2-2.7-3.2c-1.6 0-2.7 1-3.1 2.2c.03-.03 0 8.3 0 8.3h-1.9V7.3zm26.2 8.1c-.04.01 0-6.5 0-6.5h-2.2V7.3h2.2V4.2h1.9v3.1h2.6v1.6h-2.6s-.02 6.51 0 6.5c0 1.6.7 2.2 2.3 2.2h.3s.05 1.62 0 1.6c-.2.1-.5.1-.8.1c-2.5 0-3.7-1.2-3.7-3.9zm6.7-13.2h2s-.05 6.61 0 6.6c.6-.9 1.9-1.8 3.5-1.8c2.8 0 4.3 1.8 4.3 4.8c.02-.02 0 7.4 0 7.4h-1.9V12c0-2.2-1.1-3.3-2.9-3.3c-1.6 0-2.7 1-3 2.2c-.05-.03 0 8.3 0 8.3h-2v-17zm12.2 11c0-3.7 2.1-6.2 5.4-6.2c3.1 0 5.1 2.5 5.1 5.9v.9h-8.5c.1 2.5 1.4 4 3.5 4c1.5 0 2.7-.7 3.4-1.8l1.3 1.1c-.9 1.3-2.4 2.4-4.8 2.4c-3.4 0-5.4-2.4-5.4-6.3zm2-1h6.5c-.1-2.1-1.3-3.5-3.1-3.5c-1.9 0-3.1 1.3-3.4 3.5zm17.7 7h-1.9v-17h1.9s.03 6.7 0 6.7c.9-1.1 2.3-1.9 3.7-1.9c3.2 0 5.2 2.6 5.2 6.2c0 3.7-2 6.3-5.2 6.3c-1.5 0-2.9-.8-3.7-2c-.04.02 0 1.7 0 1.7zm6.9-6c0-2.8-1.3-4.5-3.6-4.5c-1.4 0-2.7.9-3.3 2.2v4.7c.6 1.3 1.9 2.2 3.3 2.2c2.3 0 3.6-1.7 3.6-4.6zm3.6 2.4c0-2.2 1.7-4 4.4-4c1.2 0 2.4.5 3.3 1.4v-1.2c0-1.7-.9-3.1-2.9-3.1c-1.4 0-2.1.5-3 1.4l-1.1-1.3c.9-.9 2.1-1.8 4.1-1.8c3.2 0 4.8 1.9 4.8 4.7c.02-.01 0 7.5 0 7.5h-1.8s-.03-1.18 0-1.2c-.9 1-2.1 1.5-3.4 1.5c-2.7 0-4.4-1.8-4.4-3.9zm7.7.8v-1.7c-.6-1-2-1.5-3.1-1.5c-1.9 0-2.7 1.3-2.7 2.4c0 1 .8 2.3 2.7 2.3c1.1 0 2.5-.5 3.1-1.5zm11-6.3c-.7-1-1.5-1.4-2.6-1.4c-1.1 0-1.8.7-1.8 1.6c0 .9.6 1.4 1.6 1.6l1 .2c2.2.5 3.6 1.6 3.6 3.6c0 2-1.7 3.8-4.5 3.8c-2.1 0-3.6-1.2-4.5-2.5l1.3-1.2c.7 1.1 1.8 2 3.2 2c1.6 0 2.5-.7 2.5-1.9c0-1.1-.8-1.7-2.2-2l-1-.2c-1.8-.4-2.9-1.5-2.9-3.2c0-1.8 1.4-3.5 3.8-3.5c1.7 0 3 .8 3.8 2l-1.3 1.1zm3.4 3.1c0-3.7 2.1-6.2 5.4-6.2c3.2 0 5.2 2.5 5.2 5.9c0 .3-.1.7-.1.9h-8.5c.2 2.5 1.5 4 3.6 4c1.4 0 2.6-.7 3.3-1.8l1.3 1.1c-.9 1.3-2.4 2.4-4.8 2.4c-3.3 0-5.4-2.4-5.4-6.3zm2-1h6.5c-.1-2.1-1.3-3.5-3.1-3.5c-1.9 0-3.1 1.3-3.4 3.5zm20.6-5.2c2.2 0 4.1 1.3 4.7 3.2l-1.5.7c-.5-1.4-1.7-2.2-3.2-2.2c-2.2 0-3.5 1.7-3.5 4.5c0 2.9 1.3 4.6 3.5 4.6c1.5 0 2.7-.8 3.2-2.2l1.5.7c-.6 1.9-2.5 3.2-4.7 3.2c-3.5 0-5.5-2.6-5.5-6.3c0-3.6 2-6.2 5.5-6.2zm6.1 8.6c0-2.2 1.7-4 4.3-4c1.3 0 2.5.5 3.4 1.4v-1.2c0-1.7-1-3.1-2.9-3.1c-1.5 0-2.2.5-3 1.4l-1.2-1.3c.9-.9 2.1-1.8 4.2-1.8c3.1 0 4.8 1.9 4.8 4.7c-.02-.01 0 7.5 0 7.5h-1.9s.03-1.18 0-1.2c-.9 1-2.1 1.5-3.4 1.5c-2.6 0-4.3-1.8-4.3-3.9zm7.7.8v-1.7c-.7-1-2-1.5-3.1-1.5c-1.9 0-2.7 1.3-2.7 2.4c0 1 .8 2.3 2.7 2.3c1.1 0 2.4-.5 3.1-1.5zm4.9-9.1h1.9v2.1c.6-1.3 1.8-2.4 3.5-2.4c.2 0 .4 0 .5.1c.03-.02 0 1.9 0 1.9c0 0-.62.02-.6 0c-1.6 0-2.8.9-3.3 2.7c-.03-.01 0 7.5 0 7.5h-2V7.3zm7.5 10.4h2.8v2.8h-2.8v-2.8zm5.7-9.7l1.2-3.9h-1.4V1.7h2.7v2.1l-1.1 4.2h-1.4zm4.8 0l1.1-3.9h-1.3V1.7h2.7v2.1l-1.2 4.2h-1.3z" stroke="none" fill="#fff"/></g></svg>