<?xml version="1.0" standalone="no"?><!DOCTYPE svg PUBLIC "-//W3C//DTD SVG 1.1//EN" "http://www.w3.org/Graphics/SVG/1.1/DTD/svg11.dtd"><svg xmlns="http://www.w3.org/2000/svg" version="1.1" width="284.2px" height="40.6px" viewBox="0 -1 284.2 40.6" style="top:-1px"><desc>Dual Exhausts &amp; Rear Diffuser</desc><defs/><g id="Polygon54666"><path d="m47.5 12.7s3.63-.02 3.6 0c2.7 0 4.7 1.7 4.7 4.7c0 3.1-2 4.8-4.7 4.8h-3.6v-9.5zm1.3 1.1v7.3s2.24-.05 2.2 0c2.1 0 3.4-1.3 3.4-3.7c0-2.3-1.3-3.6-3.4-3.6c.04.03-2.2 0-2.2 0zm14.8 8.4h-1.2s-.02-1.06 0-1.1c-.4.7-1.2 1.3-2.3 1.3c-1.8 0-2.8-1.2-2.8-3.1v-4.1h1.2s.05 3.95 0 3.9c0 1.4.7 2.1 1.9 2.1c1.1 0 1.8-.7 2-1.4c-.02-.04 0-4.6 0-4.6h1.2v7zm7.4-1c-.6.7-1.4 1.2-2.4 1.2c-2 0-3.5-1.5-3.5-3.7c0-2.2 1.5-3.7 3.5-3.7c1 0 1.8.5 2.4 1.2c-.04-.02 0-1 0-1h1.2v7H71s-.04-.99 0-1zm0-1.3v-2.4c-.4-.8-1.2-1.3-2.2-1.3c-1.3 0-2.4.9-2.4 2.5c0 1.6 1.1 2.5 2.4 2.5c1 0 1.8-.5 2.2-1.3zm3.2-7.6h1.2v9.9h-1.2v-9.9zm6.7.4h6.4v1.1h-5.1v3h4.5v1.2h-4.5v3.1h5.1v1.1h-6.4v-9.5zm7.2 9.5l2.6-3.6l-2.4-3.4h1.4l1.9 2.6l1.8-2.6h1.4l-2.4 3.4l2.6 3.6h-1.5l-1.9-2.8l-2 2.8h-1.5zm8-9.9h1.3s-.05 3.98 0 4c.3-.6 1.1-1.3 2.3-1.3c1.8 0 2.8 1.2 2.8 3.1c-.05.01 0 4.1 0 4.1h-1.3v-4c0-1.3-.7-2-1.9-2c-1.2 0-1.8.9-1.9 1.4c-.05.02 0 4.6 0 4.6h-1.3v-9.9zm13.6 8.9c-.5.7-1.4 1.2-2.4 1.2c-2 0-3.4-1.5-3.4-3.7c0-2.2 1.4-3.7 3.4-3.7c1 0 1.9.5 2.4 1.2v-1h1.3v7h-1.3v-1zm0-1.3v-2.4c-.4-.8-1.2-1.3-2.2-1.3c-1.3 0-2.3.9-2.3 2.5c0 1.6 1 2.5 2.3 2.5c1 0 1.8-.5 2.2-1.3zm9.5 2.3h-1.3s.02-1.06 0-1.1c-.3.7-1.1 1.3-2.3 1.3c-1.8 0-2.8-1.2-2.8-3.1c.02-.03 0-4.1 0-4.1h1.3s-.02 3.95 0 3.9c0 1.4.7 2.1 1.8 2.1c1.1 0 1.8-.7 2-1.4c.02-.04 0-4.6 0-4.6h1.3v7zm1.2-1.3l.8-.9c.5.7 1.3 1.2 2.2 1.2c.9 0 1.6-.3 1.6-1.1c0-.5-.5-.8-1.4-1l-.6-.1c-1.2-.2-2-.8-2-1.9c0-1.1.9-2.1 2.6-2.1c1 0 1.9.5 2.4 1.2l-.8.8c-.4-.5-1-.8-1.7-.8c-.8 0-1.3.4-1.3.9c0 .4.4.7 1.1.8l.6.1c1.5.2 2.4.9 2.4 2.1c0 1.3-1.1 2.3-2.9 2.3c-1.4 0-2.4-.7-3-1.5zm7.7-1.2v-3.5h-1.2v-1h1.2v-1.8h1.3v1.8h1.7v1h-1.7s-.03 3.58 0 3.6c0 1 .4 1.4 1.5 1.4c-.03-.02.2 0 .2 0v1c-.2 0-.4.1-.6.1c-1.6 0-2.4-.8-2.4-2.6zm3.6 1.2l.8-.9c.5.7 1.3 1.2 2.2 1.2c.9 0 1.6-.3 1.6-1.1c0-.5-.5-.8-1.4-1l-.6-.1c-1.2-.2-2-.8-2-1.9c0-1.1.9-2.1 2.6-2.1c1.1 0 1.9.5 2.4 1.2l-.8.8c-.4-.5-1-.8-1.7-.8c-.8 0-1.2.4-1.2.9c0 .4.3.7 1 .8l.6.1c1.5.2 2.4.9 2.4 2.1c0 1.3-1.1 2.3-2.9 2.3c-1.4 0-2.4-.7-3-1.5zm10-1.3c0-1.5 1-2.3 2.5-2.9c-.4-.5-.8-1.1-.8-1.8c0-1.3 1.1-2.4 2.6-2.4c1.5 0 2.6 1 2.6 2.3c0 1.3-1 2-2.3 2.4h-.1l1.7 1.9l1.7-2.1l.9.8l-1.8 2.2l2 2.2h-1.6l-1.2-1.3c-.8.9-1.9 1.5-3.1 1.5c-1.8 0-3.1-1.2-3.1-2.8zm5.5.5l-2.3-2.5c-1.1.4-1.9.9-1.9 1.9c0 1 .8 1.7 1.9 1.7c.9 0 1.6-.4 2.3-1.1zm-1.8-3.8l.3-.1c1.1-.3 1.6-.7 1.6-1.4c0-.6-.5-1.2-1.3-1.2c-.8 0-1.3.6-1.3 1.3c0 .5.3.9.7 1.4zm13.4 1.8h-2.1v4.1h-1.3v-9.5s3.96-.02 4 0c1.8 0 3.1 1 3.1 2.7c0 1.5-.9 2.4-2.3 2.7c.01-.04 3.3 4.1 3.3 4.1h-1.6l-3.1-4.1zm.4-1.1c1.3 0 2-.6 2-1.6c0-1-.7-1.6-2-1.6c.03.03-2.5 0-2.5 0v3.2s2.53-.01 2.5 0zm4.8 1.7c0-2.2 1.5-3.7 3.5-3.7c2 0 3.4 1.5 3.4 3.5c0 .2-.1.4-.1.6h-5.5c.2 1.3 1 2.1 2.4 2.1c.9 0 1.8-.5 2.2-1.2l.8.8c-.7.9-1.8 1.6-3.1 1.6c-2.1 0-3.6-1.6-3.6-3.7zm1.3-.6h4.3c-.1-1.2-1-2-2.1-2c-1.1 0-2 .8-2.2 2zm12.4 3.1c-.5.7-1.4 1.2-2.4 1.2c-2 0-3.4-1.5-3.4-3.7c0-2.2 1.4-3.7 3.4-3.7c1 0 1.9.5 2.4 1.2v-1h1.3v7h-1.3v-1zm0-1.3v-2.4c-.4-.8-1.2-1.3-2.2-1.3c-1.3 0-2.3.9-2.3 2.5c0 1.6 1 2.5 2.3 2.5c1 0 1.8-.5 2.2-1.3zm3.2-4.7h1.3s-.05 1.19 0 1.2c.3-.8 1.1-1.4 2.2-1.4c-.04.03.1 0 .1 0c0 0 .02 1.25 0 1.3c-1.1 0-2 .4-2.3 1.5c-.05.03 0 4.4 0 4.4h-1.3v-7zm8.3-2.5s3.66-.02 3.7 0c2.6 0 4.6 1.7 4.6 4.7c0 3.1-2 4.8-4.6 4.8h-3.7v-9.5zm1.3 1.1v7.3s2.28-.05 2.3 0c2 0 3.4-1.3 3.4-3.7c0-2.3-1.4-3.6-3.4-3.6c-.02.03-2.3 0-2.3 0zm8.6 1.4h1.3v7h-1.3v-7zm-.1-3.1h1.4v1.5H199v-1.5zm3.8 4.1h-1.1v-1h1.1s.04-.78 0-.8c0-1.3.8-2.2 2.3-2.2h.5c.03-.01 0 1 0 1c0 0-.18.04-.2 0c-.9 0-1.3.4-1.3 1.2v.8h1.5v1h-1.5v6h-1.3v-6zm4.6 0h-1.2v-1h1.2v-.8c0-1.3.8-2.2 2.3-2.2h.5c-.02-.01 0 1 0 1c0 0-.23.04-.2 0c-.9 0-1.3.4-1.3 1.2c-.05.03 0 .8 0 .8h1.5v1h-1.5v6h-1.3v-6zm10.3 6h-1.3s.01-1.06 0-1.1c-.4.7-1.1 1.3-2.3 1.3c-1.8 0-2.8-1.2-2.8-3.1v-4.1h1.3s-.03 3.95 0 3.9c0 1.4.6 2.1 1.8 2.1c1.1 0 1.8-.7 2-1.4v-4.6h1.3v7zm1.2-1.3l.8-.9c.4.7 1.3 1.2 2.2 1.2c.9 0 1.6-.3 1.6-1.1c0-.5-.5-.8-1.4-1l-.6-.1c-1.2-.2-2.1-.8-2.1-1.9c0-1.1 1-2.1 2.6-2.1c1.1 0 2 .5 2.5 1.2l-.8.8c-.4-.5-1-.8-1.7-.8c-.8 0-1.3.4-1.3.9c0 .4.4.7 1.1.8l.6.1c1.5.2 2.4.9 2.4 2.1c0 1.3-1.1 2.3-2.9 2.3c-1.4 0-2.4-.7-3-1.5zm6.9-2.2c0-2.2 1.4-3.7 3.4-3.7c2.1 0 3.4 1.5 3.4 3.5c0 .2 0 .4-.1.6h-5.4c.1 1.3.9 2.1 2.3 2.1c.9 0 1.8-.5 2.3-1.2l.8.8c-.7.9-1.8 1.6-3.2 1.6c-2.1 0-3.5-1.6-3.5-3.7zm1.3-.6h4.2c-.1-1.2-.9-2-2.1-2c-1.1 0-1.9.8-2.1 2zm6.9-2.9h1.3v1.2c.4-.8 1.1-1.4 2.2-1.4c.02.03.2 0 .2 0c0 0-.03 1.25 0 1.3c-1.2 0-2 .4-2.4 1.5c.01.03 0 4.4 0 4.4H234v-7z" stroke="none" fill="#fff"/></g></svg>