<?xml version="1.0" standalone="no"?><!DOCTYPE svg PUBLIC "-//W3C//DTD SVG 1.1//EN" "http://www.w3.org/Graphics/SVG/1.1/DTD/svg11.dtd"><svg xmlns="http://www.w3.org/2000/svg" version="1.1" width="284.2px" height="40.6px" viewBox="0 -1 284.2 40.6" style="top:-1px"><desc>Ambient Mood Lamp</desc><defs/><g id="Polygon55026"><path d="m77.4 12.7h1.5l3.8 9.5h-1.3l-1-2.3h-4.6l-.9 2.3h-1.3l3.8-9.5zm-1.1 6.1h3.7l-1.8-4.7l-1.9 4.7zm17.5-.6c0-1.3-.6-2-1.8-2c-1 0-1.7.7-1.9 1.4c-.03.02 0 4.6 0 4.6h-1.3v-4c0-1.3-.6-2-1.8-2c-1.1 0-1.7.7-2 1.4c.04.02 0 4.6 0 4.6h-1.2v-7h1.2s.04 1.05 0 1.1c.4-.7 1.1-1.3 2.3-1.3c1.2 0 2 .6 2.4 1.5c.5-.9 1.4-1.5 2.6-1.5c1.9 0 2.8 1.2 2.8 3.1v4.1h-1.3s.03-3.96 0-4zm4.4 4H97v-9.9h1.2s.02 3.88 0 3.9c.6-.7 1.4-1.2 2.4-1.2c2 0 3.4 1.5 3.4 3.7c0 2.2-1.4 3.7-3.4 3.7c-1 0-1.8-.5-2.4-1.2c.02.01 0 1 0 1zm4.6-3.5c0-1.6-1.1-2.5-2.4-2.5c-1 0-1.8.5-2.2 1.3v2.4c.4.8 1.2 1.3 2.2 1.3c1.3 0 2.4-.9 2.4-2.5zm2.7-3.5h1.3v7h-1.3v-7zm0-3.1h1.3v1.5h-1.3v-1.5zm2.8 6.6c0-2.2 1.4-3.7 3.5-3.7c2 0 3.3 1.5 3.3 3.5v.6h-5.5c.1 1.3 1 2.1 2.3 2.1c1 0 1.8-.5 2.3-1.2l.8.8c-.7.9-1.8 1.6-3.1 1.6c-2.2 0-3.6-1.6-3.6-3.7zm1.3-.6h4.3c-.1-1.2-1-2-2.1-2c-1.2 0-2 .8-2.2 2zm7-2.9h1.2s.03 1.05 0 1.1c.4-.7 1.2-1.3 2.3-1.3c1.9 0 2.8 1.2 2.8 3.1c.02.01 0 4.1 0 4.1h-1.2s-.04-3.96 0-4c0-1.3-.7-2-1.9-2c-1 0-1.8.7-2 1.4c.03.02 0 4.6 0 4.6h-1.2v-7zm8.7 4.5c-.02.04 0-3.5 0-3.5h-1.2v-1h1.2v-1.8h1.2v1.8h1.8v1h-1.8s.04 3.58 0 3.6c0 1 .5 1.4 1.5 1.4c.03-.02.3 0 .3 0c0 0-.04 1.01 0 1c-.2 0-.4.1-.6.1c-1.6 0-2.4-.8-2.4-2.6zm7.8-7h1.7l3.4 7.8l3.4-7.8h1.7v9.5H142v-7.5l-3.2 7.5h-1.2l-3.2-7.5v7.5h-1.3v-9.5zm11.9 6c0-2 1.4-3.7 3.7-3.7c2.2 0 3.6 1.7 3.6 3.7c0 2-1.4 3.7-3.6 3.7c-2.3 0-3.7-1.7-3.7-3.7zm6 0c0-1.5-1-2.5-2.3-2.5c-1.3 0-2.4 1-2.4 2.5c0 1.5 1.1 2.5 2.4 2.5c1.3 0 2.3-1 2.3-2.5zm2.3 0c0-2 1.4-3.7 3.6-3.7c2.3 0 3.7 1.7 3.7 3.7c0 2-1.4 3.7-3.7 3.7c-2.2 0-3.6-1.7-3.6-3.7zm6 0c0-1.5-1.1-2.5-2.4-2.5c-1.3 0-2.3 1-2.3 2.5c0 1.5 1 2.5 2.3 2.5c1.3 0 2.4-1 2.4-2.5zm8.1 2.5c-.5.7-1.4 1.2-2.3 1.2c-2 0-3.5-1.5-3.5-3.7c0-2.2 1.5-3.7 3.5-3.7c.9 0 1.8.5 2.3 1.2c.04-.02 0-3.9 0-3.9h1.3v9.9h-1.3s.04-.99 0-1zm0-1.3v-2.4c-.3-.8-1.1-1.3-2.1-1.3c-1.3 0-2.4.9-2.4 2.5c0 1.6 1.1 2.5 2.4 2.5c1 0 1.8-.5 2.1-1.3zm6.8-7.2h1.3v8.4h4.9v1.1h-6.2v-9.5zm12.5 8.5c-.5.7-1.4 1.2-2.4 1.2c-1.9 0-3.4-1.5-3.4-3.7c0-2.2 1.5-3.7 3.4-3.7c1 0 1.9.5 2.4 1.2c.02-.02 0-1 0-1h1.3v7h-1.3s.02-.99 0-1zm0-1.3v-2.4c-.3-.8-1.2-1.3-2.1-1.3c-1.4 0-2.4.9-2.4 2.5c0 1.6 1 2.5 2.4 2.5c.9 0 1.8-.5 2.1-1.3zm13.3-1.7c0-1.3-.7-2-1.9-2c-1 0-1.7.7-1.9 1.4v4.6h-1.3s.04-3.96 0-4c0-1.3-.6-2-1.8-2c-1 0-1.7.7-1.9 1.4c-.03.02 0 4.6 0 4.6h-1.3v-7h1.3s-.03 1.05 0 1.1c.3-.7 1.1-1.3 2.3-1.3c1.2 0 2 .6 2.4 1.5c.4-.9 1.3-1.5 2.6-1.5c1.8 0 2.7 1.2 2.7 3.1c.03.01 0 4.1 0 4.1H200s-.03-3.96 0-4zm3.1-3h1.2s.05.98 0 1c.6-.7 1.4-1.2 2.4-1.2c2 0 3.5 1.5 3.5 3.7c0 2.2-1.5 3.7-3.5 3.7c-1 0-1.8-.5-2.4-1.2c.05.02 0 3.6 0 3.6h-1.2v-9.6zm5.8 3.5c0-1.6-1.1-2.5-2.4-2.5c-1 0-1.8.5-2.2 1.3v2.4c.4.8 1.2 1.3 2.2 1.3c1.3 0 2.4-.9 2.4-2.5z" stroke="none" fill="#fff"/></g></svg>