<?xml version="1.0" standalone="no"?><!DOCTYPE svg PUBLIC "-//W3C//DTD SVG 1.1//EN" "http://www.w3.org/Graphics/SVG/1.1/DTD/svg11.dtd"><svg xmlns="http://www.w3.org/2000/svg" version="1.1" width="284.2px" height="30.7px" viewBox="0 -5 284.2 30.7" style="top:-5px"><desc>Front of the vehicle</desc><defs/><g id="Polygon54041"><path d="m56.5 2.4h9v1.6h-7.2v4.4h6.4v1.6h-6.4v6h-1.8V2.4zM67.1 6h1.8v1.7c.6-1.1 1.6-1.9 3.2-1.9c-.04-.04.2 0 .2 0c0 0-.02 1.7 0 1.7c-1.6 0-2.9.7-3.4 2.3v6.2h-1.8v-10zm6.2 5c0-2.9 2-5.2 5.2-5.2c3.2 0 5.2 2.3 5.2 5.2c0 2.9-2 5.2-5.2 5.2c-3.2 0-5.2-2.3-5.2-5.2zm8.5 0c0-2.2-1.4-3.6-3.3-3.6c-1.9 0-3.3 1.4-3.3 3.6c0 2.2 1.4 3.6 3.3 3.6c1.9 0 3.3-1.4 3.3-3.6zm4-5h1.8v1.5c.5-.9 1.6-1.7 3.3-1.7c2.6 0 4 1.6 4 4.4c-.02-.04 0 5.8 0 5.8h-1.8s-.02-5.66 0-5.7c0-1.9-1-2.9-2.7-2.9c-1.5 0-2.5 1-2.8 2.1v6.5h-1.8v-10zm12.4 6.5c.04-.02 0-5 0-5h-1.7V6h1.8V3.4h1.7v2.6h2.5v1.5H100s.04 5.04 0 5c0 1.5.7 2 2.2 2c-.02.04.3 0 .3 0v1.5c-.2.1-.5.1-.8.1c-2.3 0-3.5-1.1-3.5-3.6zm10.3-1.5c0-2.9 1.9-5.2 5.1-5.2c3.2 0 5.2 2.3 5.2 5.2c0 2.9-2 5.2-5.2 5.2c-3.2 0-5.1-2.3-5.1-5.2zm8.5 0c0-2.2-1.5-3.6-3.4-3.6c-1.8 0-3.3 1.4-3.3 3.6c0 2.2 1.5 3.6 3.3 3.6c1.9 0 3.4-1.4 3.4-3.6zm4.5-3.5h-1.7V6h1.7V4.9c0-1.9 1.1-3.2 3.3-3.2h.7c-.02 0 0 1.5 0 1.5h-.3c-1.3 0-1.9.5-1.9 1.7v1.1h2.2v1.5h-2.2v8.5h-1.8V7.5zm11.1 5v-5h-1.7V6h1.7V3.4h1.8v2.6h2.5v1.5h-2.5v5c0 1.5.7 2 2.1 2c.04.04.4 0 .4 0c0 0-.04 1.52 0 1.5c-.3.1-.6.1-.8.1c-2.3 0-3.5-1.1-3.5-3.6zm6.2-10.7h1.8s-.04 5.74 0 5.7c.5-.8 1.6-1.7 3.3-1.7c2.6 0 3.9 1.6 3.9 4.4c.04-.04 0 5.8 0 5.8H146s.04-5.66 0-5.7c0-1.9-.9-2.9-2.6-2.9c-1.7 0-2.6 1.3-2.8 2.1c-.04-.04 0 6.5 0 6.5h-1.8V1.8zm11.1 9.2c0-3.1 2-5.2 4.9-5.2c2.9 0 4.8 2.1 4.8 4.9v.9h-7.9c.2 1.8 1.4 3 3.4 3c1.3 0 2.5-.7 3.2-1.7l1.1 1.1c-1 1.3-2.5 2.2-4.4 2.2c-3.1 0-5.1-2.2-5.1-5.2zm1.8-.9h6.1c-.1-1.7-1.3-2.8-3-2.8c-1.6 0-2.8 1.1-3.1 2.8zM165.3 6h1.9l3.1 7.7l3.2-7.7h1.9l-4.2 10h-1.7l-4.2-10zm10.8 5c0-3.1 2-5.2 4.9-5.2c2.9 0 4.8 2.1 4.8 4.9c0 .3 0 .6-.1.9h-7.8c.2 1.8 1.4 3 3.3 3c1.4 0 2.6-.7 3.3-1.7l1.1 1.1c-1 1.3-2.5 2.2-4.5 2.2c-3 0-5-2.2-5-5.2zm1.8-.9h6.1c-.1-1.7-1.4-2.8-3-2.8c-1.6 0-2.8 1.1-3.1 2.8zm10-8.3h1.8s-.04 5.74 0 5.7c.5-.8 1.6-1.7 3.3-1.7c2.6 0 3.9 1.6 3.9 4.4c.04-.04 0 5.8 0 5.8h-1.8s.04-5.66 0-5.7c0-1.9-.9-2.9-2.6-2.9c-1.7 0-2.6 1.3-2.8 2.1c-.04-.04 0 6.5 0 6.5h-1.8V1.8zM199.6 6h1.8v10h-1.8v-10zm-.1-4.5h2v2.2h-2V1.5zm4 9.5c0-2.9 2-5.2 5.2-5.2c1.9 0 3.5.9 4.4 2.5l-1.4.9c-.6-1.1-1.6-1.8-3-1.8c-1.9 0-3.3 1.4-3.3 3.6c0 2.2 1.4 3.6 3.3 3.6c1.4 0 2.4-.7 3-1.9l1.4 1c-.9 1.6-2.5 2.5-4.4 2.5c-3.2 0-5.2-2.3-5.2-5.2zM215 1.8h1.8V16H215V1.8zm4 9.2c0-3.1 2-5.2 4.9-5.2c2.9 0 4.8 2.1 4.8 4.9v.9h-7.9c.2 1.8 1.4 3 3.4 3c1.3 0 2.5-.7 3.2-1.7l1.1 1.1c-1 1.3-2.5 2.2-4.4 2.2c-3.1 0-5.1-2.2-5.1-5.2zm1.8-.9h6.1c-.1-1.7-1.3-2.8-3-2.8c-1.6 0-2.8 1.1-3.1 2.8z" stroke="none" fill="#fff"/></g></svg>