<?xml version="1.0" standalone="no"?><!DOCTYPE svg PUBLIC "-//W3C//DTD SVG 1.1//EN" "http://www.w3.org/Graphics/SVG/1.1/DTD/svg11.dtd"><svg xmlns="http://www.w3.org/2000/svg" version="1.1" width="876.4px" height="52.8px" viewBox="0 -7 876.4 52.8" style="top:-7px"><desc>외장_사이드_텍스트_1@</desc><defs/><g id="Polygon60088"><path d="m2.3 3.4s7.14-.04 7.1 0c3.6 0 5.9 2.1 5.9 5c0 1.7-.8 3.1-2.3 3.9c2.2.8 3.7 2.4 3.7 4.7c0 3.4-2.3 5.4-6.5 5.4H2.3v-19zm7.5 16c2.1 0 3-1 3-2.6c0-1.6-.9-2.6-3-2.6c.03-.03-3.7 0-3.7 0v5.2s3.73.03 3.7 0zm-1.2-8.2c2.1 0 2.8-1 2.8-2.4c0-1.4-.7-2.5-2.8-2.5c.02.03-2.5 0-2.5 0v4.9h2.5zm9.2 6.9c0-2.7 1.9-4.6 5.2-4.6c1.4 0 2.6.4 3.6 1.2v-.9c0-1.7-.8-3.1-2.9-3.1c-1.6 0-2.6.8-3.2 1.5l-1.9-2.3c.9-1.2 2.7-2.3 5.2-2.3c4.3 0 6.5 2.5 6.5 5.9v8.9h-3.5s.02-1.01 0-1c-1 .9-2.3 1.4-3.8 1.4c-3.3 0-5.2-1.9-5.2-4.7zm8.8.7v-1.4c-.5-.7-1.5-1.3-2.7-1.3c-1.7 0-2.4 1-2.4 2c0 1.1.7 2.1 2.4 2.1c1.2 0 2.2-.6 2.7-1.4zM33.1 8h3.6s-.05 1.6 0 1.6c.8-1.1 2.2-2 4.1-2c3.6 0 5.1 2.4 5.1 5.7c.02.03 0 9.1 0 9.1h-3.7s.02-8.6 0-8.6c0-2-1.1-3.1-2.6-3.1c-1.4 0-2.3.9-2.8 2.1v9.6h-3.7V8zm14.8 6.5c0-4.3 2.6-6.9 6-6.9c1.7 0 3.1.9 4 2.1c.03.04 0-1.7 0-1.7h3.6v12.6c0 4.8-3.5 7-7.1 7c-3.4 0-5.2-1.5-6.2-3.4l2.6-1.6c.8 1.3 1.7 2.1 3.5 2.1c1.6 0 3.5-1.1 3.5-3.8v-1.4c-.9 1.2-2.3 1.9-3.9 1.9c-3.4 0-6-2.6-6-6.9zm9.9 1.8v-3.5c-.6-1.3-1.8-2.1-3.1-2.1c-1.7 0-3.1 1.2-3.1 3.8c0 2.7 1.4 3.9 3.1 3.9c1.3 0 2.5-.8 3.1-2.1zM68 18.5l2.6-2c1.1 1.7 2.5 3.2 4.9 3.2c1.9 0 3-1.2 3-2.6c0-1.3-.7-2.2-2.9-2.8l-1.4-.4c-2.8-.7-4.8-2.4-4.8-5.5c0-3 2.2-5.4 6.3-5.4c2.6 0 4.7 1.3 6 3.2l-2.7 2c-.9-1.4-2-2.1-3.4-2.1c-1.5 0-2.3 1-2.3 2.1c0 1.2.6 1.7 2.2 2.2l1.4.4c3.1.8 5.5 2.6 5.5 6.1c0 3.4-2.9 5.9-6.9 5.9c-3.8 0-6.1-2.1-7.5-4.3zm26.2-3.3c0-2.6-1.1-4.5-3.4-4.5c-2.3 0-3.4 1.9-3.4 4.5c0 2.6 1.1 4.5 3.4 4.5c2.3 0 3.4-1.9 3.4-4.5zm3.7 0c0 4.4-2.8 7.6-7.1 7.6c-4.4 0-7.2-3.2-7.2-7.6c0-4.4 2.8-7.6 7.2-7.6c4.3 0 7.1 3.2 7.1 7.6zm14.8 7.2h-3.5s-.03-1.57 0-1.6c-.9 1.2-2.3 2-4.1 2c-3.7 0-5.2-2.3-5.2-5.7V8h3.7v8.6c0 2.1 1.1 3.1 2.6 3.1c1.3 0 2.3-.9 2.8-2.1c.03.04 0-9.6 0-9.6h3.7v14.4zm3-14.4h3.6s-.05 1.6 0 1.6c.8-1.1 2.2-2 4.1-2c3.6 0 5.1 2.4 5.1 5.7c.02.03 0 9.1 0 9.1h-3.7s.02-8.6 0-8.6c0-2-1.1-3.1-2.6-3.1c-1.4 0-2.3.9-2.8 2.1v9.6h-3.7V8zM141 20.7c-1 1.3-2.4 2.1-4.1 2.1c-3.6 0-6.4-2.8-6.4-7.6c0-4.8 2.8-7.6 6.4-7.6c1.6 0 3 .8 3.9 1.9v-7h3.7v19.9H141s-.05-1.71 0-1.7zm-.2-3.1v-4.7c-.6-1.4-1.8-2.2-3-2.2c-2 0-3.5 1.4-3.5 4.5c0 3.1 1.5 4.5 3.5 4.5c1.2 0 2.4-.8 3-2.1z" stroke="none" fill="#fff"/></g></svg>