<?xml version="1.0" standalone="no"?><!DOCTYPE svg PUBLIC "-//W3C//DTD SVG 1.1//EN" "http://www.w3.org/Graphics/SVG/1.1/DTD/svg11.dtd"><svg xmlns="http://www.w3.org/2000/svg" version="1.1" width="231.1px" height="24.3px" viewBox="0 -3 231.1 24.3" style="top:-3px"><desc>계열사 사업 역량을 활용한 사회공헌</desc><defs/><g id="Polygon110550"><path d="m9.2.8h1.5v13.6H9.2V.8zM6.5 4.5V1.1h1.5v12.6H6.5V9.1H4.3V7.9h2.2V5.7s-1.97.03-2 0C4.2 6.9 3.7 7.9 3 8.9c-.8 1-1.8 1.8-3.1 2.6l-.8-1.1c1.4-.9 2.4-1.8 3.1-2.9c.7-1.1 1.1-2.4 1.2-3.8c.02.02-3.7 0-3.7 0V2.5s5.25-.02 5.3 0c0 .3-.1.7-.1 1c0 .3 0 .7-.1 1c0-.03 1.7 0 1.7 0zm16 1.8s-3.13.02-3.1 0c-.3.4-.7.6-1.2.8c-.5.3-1 .4-1.6.4c-.5 0-1-.1-1.4-.3c-.4-.1-.8-.3-1.1-.6c-.3-.3-.6-.6-.8-1c-.2-.4-.2-.8-.2-1.3c0-.4 0-.8.2-1.2c.2-.4.5-.7.8-1c.3-.3.7-.5 1.1-.7c.4-.1.9-.2 1.4-.2c.6 0 1.1.1 1.6.3c.4.2.8.5 1.1.8h3.2V.8h1.6v6.9h-1.6V6.3zm-8-2c0 .6.2 1 .6 1.4c.4.3.9.5 1.5.5c.6 0 1.1-.2 1.5-.5c.3-.3.5-.8.5-1.4c0-.5-.2-1-.5-1.3c-.4-.3-.9-.5-1.5-.5c-.6 0-1.1.2-1.5.5c-.4.3-.6.8-.6 1.3zm8-.8s-2.5.03-2.5 0c.1.2.1.5.1.8c0 .3 0 .6-.1.8h2.5V3.5zM16.8 13h7.7v1.2h-9.2v-3.6h7.3V9.5h-7.3V8.3h8.8v3.5h-7.3v1.2zm22.4-6.8v1.3h-2.1v6.9h-1.6V.8h1.6v5.4h2.1zm-7.9-4.3s.04 2.26 0 2.3c0 .6.1 1.2.3 1.7c.1.6.3 1.2.6 1.7c.3.5.7 1 1.1 1.4c.4.4.8.8 1.3 1l-.9 1.3c-.7-.4-1.4-1-1.9-1.6c-.5-.7-.9-1.5-1.2-2.4c-.3.9-.7 1.7-1.3 2.5c-.5.7-1.2 1.3-2 1.7l-.9-1.2c.5-.3 1-.6 1.4-1.1c.4-.4.8-.9 1.1-1.4c.3-.6.5-1.2.7-1.8c.1-.6.2-1.2.2-1.8V1.9h1.5zm24.9 4.3v1.3h-2.1v6.9h-1.6V.8h1.6v5.4h2.1zm-7.9-4.3s.05 2.26 0 2.3c0 .6.1 1.2.3 1.7c.1.6.4 1.2.6 1.7c.3.5.7 1 1.1 1.4c.4.4.8.8 1.3 1l-.9 1.3c-.7-.4-1.4-1-1.9-1.6c-.5-.7-.9-1.5-1.2-2.4c-.3.9-.7 1.7-1.3 2.5c-.5.7-1.2 1.3-2 1.7l-.9-1.2c.5-.3 1-.6 1.4-1.1c.4-.4.8-.9 1.1-1.4c.3-.6.5-1.2.7-1.8c.1-.6.2-1.2.2-1.8V1.9h1.5zM67 .8h1.6v7.3H67V5.2s-2.5-.01-2.5 0c-.1.4-.2.7-.4 1c-.2.3-.5.6-.8.8c-.3.3-.6.4-1 .6c-.4.1-.8.2-1.2.2c-.6 0-1-.1-1.5-.3c-.4-.1-.8-.3-1.1-.6c-.3-.3-.5-.6-.7-1c-.2-.4-.3-.9-.3-1.3c0-.5.1-.9.3-1.3c.2-.4.4-.7.7-1c.3-.3.7-.5 1.1-.7c.5-.1.9-.2 1.5-.2c.4 0 .8.1 1.2.2c.4.1.7.3 1 .5c.3.2.6.5.8.8c.2.3.3.7.4 1c0 .03 2.5 0 2.5 0V.8zm-5.9 5.7c.2 0 .5-.1.8-.2c.2 0 .4-.2.6-.3c.2-.2.3-.4.4-.7c.1-.2.2-.4.2-.7c0-.6-.2-1.1-.6-1.4c-.4-.3-.8-.5-1.4-.5c-.6 0-1.1.2-1.5.5c-.4.3-.6.8-.6 1.4c0 .5.2 1 .6 1.4c.4.3.9.5 1.5.5zm5.9 3.7V8.7h1.6v5.5h-8.9V8.7h1.6v1.5h5.7zm0 2.7v-1.5h-5.7v1.5h5.7zM84 .8h1.6v8H84V7s-3.19-.02-3.2 0c-.3.3-.7.6-1.2.8c-.5.3-1 .4-1.6.3c-.5 0-.9 0-1.3-.2c-.5-.2-.8-.4-1.2-.7c-.3-.3-.5-.6-.7-1c-.2-.4-.3-.9-.3-1.4c0-.4.1-.9.3-1.3c.2-.4.4-.7.7-1c.4-.3.7-.6 1.2-.7c.4-.2.8-.3 1.3-.3c.6 0 1.1.2 1.6.4c.5.2.9.5 1.2.8c.01.02 3.2 0 3.2 0V.8zm-6 6c.6 0 1.1-.2 1.5-.5c.4-.4.6-.9.6-1.5c0-.3 0-.5-.2-.8c-.1-.2-.2-.4-.4-.6c-.2-.2-.4-.3-.6-.4c-.3-.1-.6-.1-.9-.1c-.2 0-.5 0-.8.1c-.2.1-.4.2-.6.4c-.2.2-.3.4-.4.6c-.2.3-.2.5-.2.8c0 .6.2 1.1.6 1.5c.4.3.8.5 1.4.5zm3.6-2c0 .3-.1.5-.1.9c-.05.02 2.5 0 2.5 0V4s-2.53-.02-2.5 0v.4c.1.1.1.3.1.4zm-5.2 5.9V9.5h9.2v4.9H84v-3.7h-7.6zm24.2-6.6h-2v1.5h2v1.3h-2v2.1h-1.5V.8h1.5v2h2v1.3zm-4.7 2.5l.2 1.3c-.5.1-1 .1-1.5.2c-.5 0-1 .1-1.5.1c-.5 0-1 .1-1.6.1h-2.9v-4h4.6V2.9h-4.6V1.6h6.1v3.9h-4.6s.02 1.54 0 1.5h3.1c.5-.1.9-.1 1.4-.2c.4 0 .9-.1 1.3-.2zm-1.6 2.7c1.4 0 2.5.2 3.3.7c.8.4 1.2 1 1.2 1.8c0 .8-.4 1.4-1.2 1.9c-.8.4-1.9.7-3.3.7c-1.4 0-2.6-.3-3.4-.7c-.8-.5-1.2-1.1-1.2-1.9c0-.8.4-1.4 1.2-1.8c.8-.5 1.9-.7 3.4-.7zm0 3.9c.9 0 1.7-.1 2.2-.4c.5-.2.8-.5.8-1c0-.4-.3-.7-.8-.9c-.5-.3-1.3-.4-2.2-.4c-1 0-1.7.1-2.3.4c-.5.2-.7.5-.7.9c0 .5.2.8.7 1c.6.3 1.3.4 2.3.4zm13.6-7.5c-1.6 0-2.8-.2-3.6-.6c-.8-.4-1.2-1-1.2-1.7c0-.8.4-1.4 1.2-1.8c.8-.4 2-.6 3.6-.6c1.6 0 2.8.2 3.6.6c.8.4 1.2 1 1.2 1.8c0 .7-.4 1.3-1.2 1.7c-.8.4-2 .6-3.6.6zm0-3.5c-1 0-1.8.1-2.4.3c-.5.2-.8.5-.8.9c0 .3.3.6.8.8c.6.2 1.4.3 2.4.3c1.1 0 1.9-.1 2.4-.3c.6-.2.8-.5.8-.8c0-.4-.2-.7-.8-.9c-.5-.2-1.3-.3-2.4-.3zm-6.1 4.3H114v1.2h-12.2V6.5zm3 5.4v1.2h8.1v1.1h-9.6v-3.4h7.7v-.9h-7.8V8.7h9.3v3.2h-7.7zm22-10.1v1H119v-1h3.1V.7h1.6v1.1h3.1zm2.6 2.4h1.9v1.2h-1.9v3.4h-1.5v-8h1.5v3.4zm-2.3 2.9l.2.9c-.8.2-1.5.3-2.2.3c-.8.1-1.5.2-2.2.2c-.8 0-1.5.1-2.1.1h-2c.05-.03-.1-1.1-.1-1.1c0 0 1.62-.03 1.6 0c.6 0 1.2 0 1.8-.1v-.7c-.7-.1-1.4-.3-1.8-.6c-.4-.3-.6-.7-.6-1.2c0-.5.3-1 .8-1.3c.6-.3 1.4-.4 2.4-.4c1 0 1.8.1 2.4.4c.5.3.8.8.8 1.3c0 .5-.2.9-.6 1.2c-.5.3-1 .5-1.8.6v.7c.6 0 1.2-.1 1.8-.1c.5-.1 1.1-.1 1.6-.2zm-6-2.2c0 .3.2.5.5.6c.3.2.8.2 1.3.2c.5 0 1 0 1.3-.2c.3-.1.5-.3.5-.6c0-.2-.2-.4-.5-.6c-.3-.1-.8-.2-1.3-.2c-.5 0-1 .1-1.3.2c-.3.2-.5.4-.5.6zm.9 7.3v1h7.9v1h-9.4v-2.9h7.4v-.9h-7.4V9.3h8.9v2.9H122zm19.8-4.8h3v1.2h-12.3V7.4h2.9s.02-1.8 0-1.8c-.5-.2-.9-.5-1.2-.8c-.2-.4-.4-.8-.4-1.2c0-.4.1-.8.4-1.1c.2-.3.5-.6.9-.8c.4-.2 1-.4 1.5-.5c.6-.1 1.3-.2 2-.2c.8 0 1.5.1 2.1.2c.5.1 1.1.3 1.5.5c.4.2.7.5.9.8c.3.3.4.7.4 1.1c0 .4-.2.8-.4 1.2c-.3.3-.7.6-1.3.8c.04.01 0 1.8 0 1.8zm-3.2-5.2c-1 0-1.8.1-2.3.4c-.6.2-.9.5-.9 1c0 .4.3.8.9 1c.5.2 1.3.4 2.3.4c1.1 0 1.9-.2 2.4-.4c.6-.2.9-.6.9-1c0-.5-.3-.8-.9-1c-.5-.3-1.3-.4-2.4-.4zM137 6c-.03.02 0 1.4 0 1.4h3.3V6c-.3.1-.5.1-.8.1h-1.7c-.3 0-.6 0-.8-.1zm1.6 3.5c1.5 0 2.7.2 3.5.6c.8.4 1.2 1 1.2 1.8c0 .8-.4 1.4-1.2 1.8c-.8.4-2 .7-3.5.7c-1.4 0-2.6-.3-3.4-.7c-.8-.4-1.2-1-1.2-1.8c0-.8.4-1.4 1.2-1.8c.8-.4 1.9-.6 3.4-.6zm0 3.7c1 0 1.8-.1 2.3-.3c.6-.2.8-.6.8-1c0-.4-.2-.7-.8-.9c-.5-.2-1.3-.3-2.3-.3c-1 0-1.7.1-2.3.3c-.5.2-.8.5-.8.9c0 .4.3.8.8 1c.6.2 1.3.3 2.3.3zm15.7-10.8v1.2h-8V2.4h3.2V.8h1.5v1.6h3.3zm2.5 2.7h1.9v1.3h-1.9v4.6h-1.5V.8h1.5v4.3zm-3.3 1.7c0 .4 0 .7-.2 1c-.2.4-.4.6-.7.8c-.3.3-.6.4-1 .6c-.4.1-.9.1-1.3.1c-.5 0-1 0-1.4-.1c-.4-.2-.7-.3-1-.6c-.3-.2-.5-.4-.7-.8c-.1-.3-.2-.6-.2-1c0-.4.1-.7.2-1.1c.2-.3.4-.5.7-.8c.3-.2.6-.4 1-.5c.4-.1.9-.2 1.4-.2c.4 0 .9.1 1.3.2c.4.1.7.3 1 .5c.3.3.5.5.7.8c.2.4.2.7.2 1.1zm-5 0c0 .4.1.7.5 1c.3.2.7.3 1.3.3c.5 0 .9-.1 1.3-.3c.3-.3.5-.6.5-1c0-.4-.2-.8-.5-1c-.4-.3-.8-.4-1.3-.4c-.6 0-1 .1-1.3.4c-.4.2-.5.6-.5 1zm1.3 3.4v2.6h7.6v1.3h-9.2v-3.9h1.6zm26.1-4v1.3h-2.2v6.9h-1.5V.8h1.5v5.4h2.2zM168 1.9v2.3c0 .6.1 1.2.2 1.7c.2.6.4 1.2.7 1.7c.3.5.6 1 1 1.4c.4.4.9.8 1.4 1l-.9 1.3c-.8-.4-1.4-1-1.9-1.6c-.6-.7-1-1.5-1.3-2.4c-.3.9-.7 1.7-1.2 2.5c-.6.7-1.3 1.3-2 1.7l-1-1.2c.6-.3 1-.6 1.5-1.1c.4-.4.7-.9 1-1.4c.3-.6.6-1.2.7-1.8c.2-.6.3-1.2.3-1.8c-.04-.04 0-2.3 0-2.3h1.5zM186.6.8h1.5v13.6h-1.5V.8zm-1.1 1.6v1.2h-8.2V2.4h3.4V.8h1.5v1.6h3.3zm-3.3 6.9v1.3c.6-.1 1.2-.1 1.8-.2c.6 0 1.2-.1 1.8-.2l.1 1.2l-2.3.3c-.7 0-1.5.1-2.2.1c-.8.1-1.5.1-2.2.1h-1.9l-.2-1.2c.5 0 1.1-.1 1.7-.1h1.9V9.3c-.8-.1-1.4-.4-1.9-.8c-.4-.5-.7-1-.7-1.7c0-.4.1-.7.3-1c.1-.3.4-.6.7-.8c.2-.2.6-.4 1-.5c.4-.1.9-.2 1.3-.2c.5 0 1 .1 1.4.2c.4.1.7.3 1 .5c.3.2.5.5.7.8c.2.3.2.6.2 1c0 .7-.2 1.2-.6 1.7c-.5.4-1.1.7-1.9.8zm-2.6-2.5c0 .4.2.8.5 1c.3.2.8.4 1.3.4c.6 0 1-.2 1.4-.4c.3-.2.5-.6.5-1c0-.4-.2-.7-.5-1c-.4-.2-.8-.3-1.4-.3c-.5 0-1 .1-1.3.3c-.3.3-.5.6-.5 1zm21.5-.6l-1.6-.2c.2-.6.3-1.2.4-1.8V2.7h-7.8V1.5h9.3s.04 1.1 0 1.1v1.7c0 .6-.1 1.2-.3 1.9zm-4 .8h5.8v1.3h-12.2V7h4.8V4.5h1.6v2.5zm-.3 2.3c.7 0 1.4.1 1.9.2c.6.1 1.1.3 1.5.5c.4.2.8.5 1 .8c.2.3.3.6.3 1c0 .4-.1.8-.3 1.1c-.2.3-.6.6-1 .8c-.4.2-.9.4-1.5.5c-.5.1-1.2.2-1.9.2c-.7 0-1.4-.1-2-.2c-.6-.1-1.1-.3-1.5-.5c-.4-.2-.7-.5-.9-.8c-.3-.3-.4-.7-.4-1.1c0-.4.1-.7.4-1c.2-.3.5-.6.9-.8c.4-.2.9-.4 1.5-.5c.6-.1 1.3-.2 2-.2zm0 3.9c1 0 1.8-.1 2.3-.4c.6-.2.9-.5.9-1c0-.4-.3-.7-.9-1c-.5-.2-1.3-.3-2.3-.3c-1 0-1.8.1-2.4.3c-.6.3-.9.6-.9 1c0 .5.3.8.9 1c.6.3 1.4.4 2.4.4zm15.5-10.8v1.2h-7.8V2.4h3.1V.8h1.6v1.6h3.1zm-.2 3h2V.8h1.6V11h-1.6V6.7h-2V5.4zm-.5 1.4c0 .4-.1.7-.3 1c-.1.3-.3.6-.6.8c-.3.3-.6.4-1 .6c-.4.1-.8.1-1.3.1c-.5 0-.9 0-1.3-.1c-.4-.2-.7-.3-1-.6c-.3-.2-.5-.5-.6-.8c-.2-.3-.3-.6-.3-1c0-.4.1-.7.3-1.1c.1-.3.3-.5.6-.8c.3-.2.6-.4 1-.5c.4-.1.8-.2 1.3-.2c.5 0 .9.1 1.3.2c.4.1.7.3 1 .5c.3.3.5.5.6.8c.2.4.3.7.3 1.1zm-4.9 0c0 .4.1.7.5 1c.3.2.7.3 1.2.3c.5 0 .9-.1 1.2-.3c.4-.3.5-.6.5-1c0-.4-.1-.8-.5-1c-.3-.3-.7-.4-1.2-.4c-.5 0-.9.1-1.2.4c-.4.2-.5.6-.5 1zm1.7 6h7.6v1.3h-9.2v-3.9h1.6v2.6z" stroke="none" fill="#fff"/></g></svg>