<?xml version="1.0" standalone="no"?><!DOCTYPE svg PUBLIC "-//W3C//DTD SVG 1.1//EN" "http://www.w3.org/Graphics/SVG/1.1/DTD/svg11.dtd"><svg xmlns="http://www.w3.org/2000/svg" version="1.1" width="211.4px" height="27.7px" viewBox="0 -3 211.4 27.7" style="top:-3px"><desc>SAFE MOVE</desc><defs/><g id="Polygon110501"><path d="m4.8 15.2c-.9 0-1.7-.2-2.5-.5c-.8-.3-1.5-.7-2.1-1.3l1.4-1.8c.5.4 1 .8 1.5 1c.6.3 1.2.4 1.7.4c.7 0 1.2-.1 1.5-.4c.3-.2.5-.6.5-1c0-.3 0-.5-.1-.6c-.1-.2-.2-.3-.4-.4c-.2-.2-.4-.3-.6-.4c-.2-.1-.5-.2-.8-.3l-1.7-.7c-.3-.2-.6-.3-.9-.5c-.3-.2-.6-.5-.8-.7c-.2-.3-.4-.6-.6-1c-.1-.4-.2-.8-.2-1.2c0-.5.1-1 .3-1.5c.2-.4.5-.8.9-1.1c.4-.3.9-.6 1.4-.8c.5-.2 1.1-.3 1.8-.3c.7 0 1.4.2 2.1.5c.7.2 1.3.6 1.8 1.2L7.7 5.3c-.4-.3-.8-.5-1.2-.7c-.5-.2-.9-.3-1.4-.3c-.6 0-1 .1-1.4.3c-.3.3-.5.6-.5 1c0 .2.1.4.2.6c.1.1.2.3.4.4c.2.1.4.3.6.4c.3.1.5.2.8.3l1.7.7c.7.3 1.4.7 1.8 1.2c.5.6.7 1.3.7 2.2c0 .5-.1 1-.3 1.5c-.2.4-.5.8-.9 1.2c-.4.3-.9.6-1.5.8c-.6.2-1.2.3-1.9.3zm13.5-.2l-.9-3.3h-4.1l-.8 3.3H9.9l4-12.6h3l4 12.6h-2.6zm-4.4-5.2h3l-.4-1.4c-.2-.7-.4-1.3-.5-2l-.6-2.1h-.1c-.1.7-.3 1.4-.5 2.1c-.2.7-.3 1.3-.5 2c-.03 0-.4 1.4-.4 1.4zm8.4 5.2V2.4h7.8v2.1h-5.2v3.3h4.4v2.1h-4.4v5.1h-2.6zm9.9 0V2.4h7.7v2.1h-5.2v2.9h4.4v2.1h-4.4v3.4h5.4v2.1h-7.9zm14.1 0V2.4h2.8s2.17 5.86 2.2 5.9c.1.4.2.8.4 1.2c-.04-.03.3 1.2.3 1.2h.1c.2-.4.3-.8.4-1.2c.1-.4.3-.8.4-1.2c-.01-.04 2.1-5.9 2.1-5.9h2.8V15h-2.3s-.03-5.29 0-5.3v-1c0-.3 0-.7.1-1.1c0-.3 0-.7.1-1c0-.4 0-.7.1-1c-.02-.02-.1 0-.1 0l-1 2.9l-1.9 5.3h-1.5l-1.9-5.3l-1.1-2.9s-.02-.02 0 0c0 .3.1.6.1 1c0 .3.1.7.1 1c0 .4 0 .8.1 1.1v6.3h-2.3zm19.5.2c-.9 0-1.6-.2-2.3-.5c-.7-.3-1.3-.7-1.8-1.3c-.5-.5-.9-1.2-1.1-2c-.3-.8-.5-1.8-.5-2.8c0-1 .2-1.9.5-2.7c.2-.8.6-1.5 1.1-2.1c.5-.5 1.1-.9 1.8-1.2c.7-.3 1.4-.5 2.3-.5c.8 0 1.6.2 2.3.5c.6.3 1.2.7 1.7 1.3c.5.5.9 1.2 1.2 2c.3.8.4 1.7.4 2.7c0 1-.1 2-.4 2.8c-.3.8-.7 1.5-1.2 2c-.5.6-1.1 1-1.7 1.3c-.7.3-1.5.5-2.3.5zm0-2.2c.4 0 .9-.1 1.2-.3c.4-.2.7-.5 1-.9c.3-.4.5-.8.6-1.4c.2-.5.2-1.1.2-1.8c0-1.4-.2-2.4-.8-3.2c-.5-.7-1.3-1.1-2.2-1.1c-1 0-1.7.4-2.3 1.1c-.5.8-.8 1.8-.8 3.2c0 .7.1 1.3.2 1.8c.2.6.4 1 .6 1.4c.3.4.6.7 1 .9c.4.2.8.3 1.3.3zM76 15L72.1 2.4h2.7s1.65 6.1 1.6 6.1c.2.7.4 1.4.6 2c.1.7.3 1.3.5 2.1h.1c.2-.8.4-1.4.5-2.1c.2-.6.4-1.3.6-2c-.04 0 1.6-6.1 1.6-6.1h2.5L79 15h-3zm8.2 0V2.4h7.7v2.1h-5.2v2.9h4.4v2.1h-4.4v3.4h5.4v2.1h-7.9z" stroke="none" fill="#fff"/></g></svg>