<?xml version="1.0" standalone="no"?><!DOCTYPE svg PUBLIC "-//W3C//DTD SVG 1.1//EN" "http://www.w3.org/Graphics/SVG/1.1/DTD/svg11.dtd"><svg xmlns="http://www.w3.org/2000/svg" version="1.1" width="231.1px" height="24.3px" viewBox="0 -3 231.1 24.3" style="top:-3px"><desc>교통 및 사회적 약자 이동편의 증진</desc><defs/><g id="Polygon110746"><path d="m8.8 3.5c.05 0 0-.2 0-.2H.6V2.1h9.8v2.7c0 .5 0 .9-.1 1.4c0 .5 0 1-.1 1.6l-.3 1.8l-1.5-.1c.2-1.3.3-2.4.4-3.3V3.5zm-1.7 7.8h4.6v1.3H-.6v-1.3h2.8V6.9h1.6v4.4h1.8V6.9h1.5v4.4zM20 7.9h5.4v1.2H13.1V7.9h5.4V6.8h-3.8V1.2h9.2v1.2h-7.7v1h7.4v1.1h-7.4v1.1h7.8v1.2h-4v1.1zm-.8 2.1c1.6 0 2.7.2 3.5.5c.8.4 1.2.9 1.2 1.7c0 .7-.4 1.2-1.2 1.6c-.8.4-1.9.6-3.5.6c-1.5 0-2.6-.2-3.4-.6c-.8-.4-1.2-.9-1.2-1.6c0-.8.4-1.3 1.2-1.7c.8-.3 1.9-.5 3.4-.5zm-3.1 2.2c0 .7 1.1 1 3.1 1c2.1 0 3.2-.3 3.2-1c0-.7-1.1-1.1-3.2-1.1c-2 0-3.1.4-3.1 1.1zM41.3.8v7.7h-1.5V.8h1.5zm-4 .9v5.6h-6.4V1.7h6.4zM35.8 6V2.9h-3.4v3.1h3.4zm5.8 4.6s-3.89-.04-3.9 0c0 .2.2.5.4.8c.2.3.5.5.9.8c.4.2.8.4 1.3.6c.6.2 1.1.3 1.8.4l-.5 1.1c-1.1-.1-2.1-.4-2.9-.8c-.8-.4-1.4-.9-1.8-1.5c-.4.6-1 1.1-1.8 1.5c-.8.4-1.8.7-2.9.8l-.5-1.1c.6-.1 1.2-.2 1.7-.4c.6-.2 1-.4 1.4-.6c.4-.2.7-.5.9-.8c.3-.3.4-.6.4-.8c.02-.04-3.9 0-3.9 0V9.4h3.9V8.2h1.6v1.2h3.9v1.2zm18.2-4.4v1.3h-2.1v6.9h-1.6V.8h1.6v5.4h2.1zm-7.9-4.3v2.3c0 .6.1 1.2.2 1.7c.2.6.4 1.2.7 1.7c.3.5.6 1 1 1.4c.4.4.9.8 1.4 1l-.9 1.3c-.8-.4-1.4-1-1.9-1.6c-.6-.7-1-1.5-1.3-2.4c-.2.9-.7 1.7-1.2 2.5c-.6.7-1.2 1.3-2 1.7l-1-1.2c.6-.3 1-.6 1.5-1.1c.4-.4.7-.9 1-1.4c.3-.6.6-1.2.7-1.8c.2-.6.3-1.2.3-1.8c-.03-.04 0-2.3 0-2.3h1.5zM70.5.8h1.5v13.6h-1.5V.8zm-1.1 1.6v1.2h-8.2V2.4h3.4V.8h1.5v1.6h3.3zm-3.3 6.9v1.3c.6-.1 1.2-.1 1.8-.2c.6 0 1.2-.1 1.8-.2l.1 1.2l-2.2.3c-.8 0-1.6.1-2.3.1c-.7.1-1.5.1-2.2.1h-1.9l-.2-1.2c.5 0 1.1-.1 1.7-.1h1.9V9.3c-.8-.1-1.4-.4-1.9-.8c-.4-.5-.7-1-.7-1.7c0-.4.1-.7.3-1c.1-.3.4-.6.7-.8c.3-.2.6-.4 1-.5c.4-.1.9-.2 1.4-.2c.4 0 .9.1 1.3.2c.4.1.7.3 1 .5c.3.2.6.5.7.8c.2.3.3.6.3 1c0 .7-.3 1.2-.7 1.7c-.5.4-1.1.7-1.9.8zm-2.6-2.5c0 .4.2.8.5 1c.4.2.8.4 1.4.4c.5 0 .9-.2 1.3-.4c.3-.2.5-.6.5-1c0-.4-.2-.7-.5-1c-.4-.2-.8-.3-1.3-.3c-.6 0-1 .1-1.4.3c-.3.3-.5.6-.5 1zm20.8-6h1.5v8.1h-1.5V5.5h-2.4V4.2h2.4V.8zm-1.6 6.4l-.8 1.2c-.7-.2-1.4-.6-1.9-1.1c-.6-.5-1-1.1-1.3-1.8c-.3.8-.7 1.4-1.2 2c-.6.5-1.3.9-2.1 1.2l-.8-1.2c.5-.2 1-.4 1.4-.7c.4-.3.8-.7 1.1-1.1c.2-.3.5-.7.6-1.2c.2-.4.2-.9.2-1.3c.04-.03 0-.3 0-.3h-2.8V1.7h7.2v1.2h-2.8v.3c0 .4.1.8.2 1.2c.1.4.4.8.6 1.2c.3.3.6.6 1 .9c.4.3.9.6 1.4.7zm-6 3.6V9.6h9.1v4.8h-1.5v-3.6h-7.6zM104.1 4h-1.9v1.7h1.9v1.2h-1.9v1.9h-1.5v-8h1.5v1.9h1.9v1.3zm-5.1.8c0 .5-.1 1-.3 1.4c-.1.4-.4.7-.7 1c-.3.3-.7.5-1.2.7c-.4.1-.9.2-1.4.2c-.5 0-1-.1-1.4-.2c-.5-.2-.9-.4-1.2-.7c-.3-.3-.6-.6-.7-1c-.2-.4-.3-.9-.3-1.4c0-.4.1-.9.3-1.3c.1-.4.4-.7.7-1c.3-.3.7-.5 1.2-.7c.4-.1.9-.2 1.4-.2c.5 0 1 .1 1.4.2c.5.2.9.4 1.2.7c.3.3.6.6.7 1c.2.4.3.9.3 1.3zm-5.7 0c0 .6.2 1.1.6 1.5c.4.3.9.5 1.5.5c.6 0 1.1-.2 1.5-.5c.4-.4.6-.9.6-1.5c0-.6-.2-1-.6-1.4c-.4-.3-.9-.5-1.5-.5c-.6 0-1.1.2-1.5.5c-.4.4-.6.8-.6 1.4zm0 5.9V9.4h8.9v5h-1.5v-3.7h-7.4zM118 6.2v1.2h-2.2v7h-1.5V.8h1.5v5.4h2.2zm-7.9-2.8v1.3c0 .6.1 1.1.2 1.6c.2.6.4 1.1.7 1.6c.3.5.7.9 1.1 1.3c.4.5.9.8 1.4 1l-.9 1.2c-.7-.3-1.4-.9-1.9-1.5c-.6-.7-1-1.5-1.4-2.4c-.3 1-.7 1.8-1.3 2.6c-.5.7-1.2 1.3-2 1.7l-.9-1.3c.5-.2 1-.5 1.4-1c.4-.4.8-.9 1.1-1.4c.3-.5.5-1.1.7-1.6c.2-.6.3-1.2.3-1.8c-.05.04 0-1.3 0-1.3h-3V2.2h7.4v1.2h-2.9zM132 .8h1.5v13.6H132V.8zm-5.7 1c.5 0 1 .1 1.4.3c.4.3.8.6 1.1 1c.3.4.6.9.7 1.5c.2.6.3 1.2.3 2c0 .7-.1 1.4-.3 2c-.1.6-.4 1.1-.7 1.5c-.3.4-.7.7-1.1.9c-.4.2-.9.4-1.4.4c-.5 0-1-.2-1.4-.4c-.4-.2-.8-.5-1.1-.9c-.3-.4-.5-.9-.7-1.5c-.2-.6-.3-1.3-.3-2c0-.8.1-1.4.3-2c.2-.6.4-1.1.7-1.5c.3-.4.7-.7 1.1-1c.4-.2.9-.3 1.4-.3zm0 1.4c-.6 0-1.1.3-1.5.9c-.3.6-.5 1.4-.5 2.5c0 1.1.2 1.9.5 2.5c.4.6.9.9 1.5.9c.6 0 1.1-.3 1.5-.9c.3-.6.5-1.4.5-2.5c0-1.1-.2-1.9-.5-2.5c-.4-.6-.9-.9-1.5-.9zM143 7.4h5.3v1.2h-12.2V7.4h5.3V6h-3.8V1.4h9.2v1.2h-7.6v2.2h7.7v1.2H143v1.4zm-.8 2c1.4 0 2.6.3 3.4.7c.8.4 1.2 1 1.2 1.8c0 .8-.4 1.4-1.2 1.8c-.8.5-1.9.7-3.4.7c-.7 0-1.4-.1-2-.2c-.5-.1-1-.3-1.4-.5c-.4-.2-.7-.4-1-.8c-.2-.3-.3-.6-.3-1c0-.4.1-.7.3-1c.3-.4.6-.6 1-.8c.4-.2.9-.4 1.4-.5c.6-.1 1.3-.2 2-.2zm0 3.8c1 0 1.7-.1 2.3-.4c.5-.2.8-.5.8-.9c0-.4-.3-.7-.8-1c-.6-.2-1.3-.3-2.3-.3c-1 0-1.8.1-2.3.3c-.5.3-.8.6-.8 1c0 .4.3.7.8.9c.5.3 1.3.4 2.3.4zm17.3-2.4V7.2h-2V5.9h2V4.5h-2V3.3h2V.8h1.5v10h-1.5zm-3.4-3.3c.6 0 1.1-.1 1.5-.1l.1 1.1l-2 .3c-.6 0-1.3.1-2 .1c-.7 0-1.3.1-1.9.1H150l-.2-1.3h1.6V3.1h-1.2V1.8h7.1v1.3h-1.2v4.4s0 .02 0 0zm-3.2-4.4v4.6h.9c.2 0 .5-.1.8-.1c.02.02 0-4.5 0-4.5h-1.7zm.9 9.7h7.6v1.3h-9.2v-4h1.6v2.7zm19.3-12h1.6v13.6h-1.6V.8zm-5.2 1c.5 0 1 0 1.5.2c.4.2.8.4 1.1.7c.4.2.6.6.8 1c.2.4.3.8.3 1.3c0 .5-.1.9-.3 1.3c-.2.4-.4.8-.8 1.1c-.3.2-.7.5-1.1.6c-.5.2-1 .3-1.5.3c-.5 0-1-.1-1.5-.3c-.4-.1-.8-.4-1.1-.6c-.4-.3-.6-.7-.8-1.1c-.2-.4-.3-.8-.3-1.3c0-.5.1-.9.3-1.3c.2-.4.4-.8.8-1c.3-.3.7-.5 1.1-.7c.5-.2 1-.2 1.5-.2zm0 1.3c-.6 0-1.1.1-1.5.5c-.5.3-.7.8-.7 1.4c0 .6.2 1.1.7 1.4c.4.4.9.5 1.5.5c.6 0 1.2-.1 1.6-.5c.4-.3.6-.8.6-1.4c0-.6-.2-1.1-.6-1.4c-.4-.4-1-.5-1.6-.5zm-4.1 8.4l-.2-1.3h4.2c.7-.1 1.5-.1 2.3-.2c.7 0 1.5-.1 2.2-.2l.1 1.1c-.7.1-1.5.3-2.3.3c-.7.1-1.5.2-2.2.2c-.7.1-1.5.1-2.2.1h-1.9zm17.9-5l-.5-1.2c.6-.1 1.2-.2 1.7-.3c.5-.2 1-.4 1.4-.6c.3-.3.7-.5.9-.8c.2-.3.4-.6.4-.9c.02.02-3.9 0-3.9 0V1.5h10v1.2s-3.99.02-4 0c.1.3.2.6.4.9c.3.3.6.5 1 .8c.4.2.8.4 1.3.6c.6.1 1.1.2 1.8.3l-.6 1.2c-1.2-.1-2.2-.4-3.1-.9c-.9-.5-1.5-1-1.8-1.7c-.4.7-1 1.2-1.9 1.7c-.8.5-1.9.8-3.1.9zm-1.2.7h12.3v1.2h-12.3V7.2zm6.1 2.2c1.5 0 2.6.2 3.5.6c.8.5 1.2 1.1 1.2 1.9c0 .8-.4 1.4-1.2 1.8c-.8.4-2 .7-3.5.7c-.7 0-1.3-.1-1.9-.2c-.6-.1-1.1-.3-1.5-.5c-.4-.2-.7-.5-.9-.8c-.2-.3-.3-.6-.3-1c0-.4.1-.8.3-1.1c.2-.3.5-.5.9-.8c.4-.2.9-.3 1.5-.4c.6-.2 1.2-.2 1.9-.2zm0 3.7c1 0 1.8-.1 2.3-.3c.6-.2.8-.5.8-.9c0-.4-.2-.8-.8-1c-.5-.2-1.3-.3-2.3-.3c-1 0-1.7.1-2.3.3c-.5.2-.7.6-.7 1c0 .4.2.7.7.9c.6.2 1.3.3 2.3.3zM205.4.8v9.9h-1.5V.8h1.5zm-2.8 6.9l-.7 1.2c-.8-.3-1.5-.7-2.1-1.2c-.5-.5-.9-1.1-1.2-1.7c-.3.7-.8 1.3-1.3 1.9c-.6.5-1.3.9-2.1 1.2l-.8-1.2c.5-.2 1-.4 1.4-.7c.4-.3.8-.7 1.1-1c.2-.4.5-.8.6-1.3c.2-.4.2-.8.2-1.3c.04 0 0-.5 0-.5h-2.9V1.9h7.4v1.2h-2.9s.02.5 0 .5c0 .4.1.9.2 1.3c.2.4.4.8.7 1.1c.3.4.6.7 1 1c.4.3.9.5 1.4.7zm-4.5 5.1h7.7v1.3h-9.2V9.8h1.5v3z" stroke="none" fill="#fff"/></g></svg>