<?xml version="1.0" standalone="no"?><!DOCTYPE svg PUBLIC "-//W3C//DTD SVG 1.1//EN" "http://www.w3.org/Graphics/SVG/1.1/DTD/svg11.dtd"><svg xmlns="http://www.w3.org/2000/svg" version="1.1" width="211.4px" height="27.7px" viewBox="0 -3 211.4 27.7" style="top:-3px"><desc>NEXT MOVE</desc><defs/><g id="Polygon110599"><path d="m1.4 15V2.4h2.5l3.7 6.7l1.3 2.7s.04 0 0 0c0-.7-.1-1.4-.2-2.2c0-.7-.1-1.5-.1-2.2c.02 0 0-5 0-5h2.4V15H8.4L4.8 8.2l-1.3-2.7s-.05.03-.1 0c.1.7.2 1.4.2 2.2c.1.7.2 1.5.2 2.2c-.05.01 0 5.1 0 5.1H1.4zM14 15V2.4h7.7v2.1h-5.2v2.9h4.5v2.1h-4.5v3.4h5.4v2.1H14zm9.1 0l3.5-6.5l-3.3-6.1h2.8s1.25 2.56 1.3 2.6c.1.3.2.6.4.9c.1.3.3.7.5 1.1h.1c.1-.4.3-.8.4-1.1c.1-.3.3-.6.4-.9c0-.04 1.2-2.6 1.2-2.6h2.6l-3.3 6.2l3.6 6.4h-2.8s-1.43-2.83-1.4-2.8c-.2-.4-.3-.7-.5-1c-.2-.4-.3-.7-.5-1.1h-.1c-.1.4-.3.7-.4 1.1c-.2.3-.3.6-.5 1c0-.03-1.3 2.8-1.3 2.8h-2.7zm14.4 0V4.5h-3.6V2.4h9.7v2.1H40V15h-2.5zm11.8 0V2.4h2.8s2.11 5.86 2.1 5.9c.1.4.3.8.4 1.2l.4 1.2h.1l.3-1.2c.2-.4.3-.8.4-1.2c.03-.04 2.1-5.9 2.1-5.9h2.8V15h-2.3V8.7c.1-.3.1-.7.1-1.1c0-.3.1-.7.1-1c0-.4.1-.7.1-1c.02-.02-.1 0-.1 0l-1 2.9l-1.9 5.3h-1.5l-1.9-5.3l-1-2.9s-.08-.02-.1 0c.1.3.1.6.1 1c.1.3.1.7.1 1c.1.4.1.8.1 1.1v1c.04.01 0 5.3 0 5.3h-2.2zm19.4.2c-.8 0-1.6-.2-2.3-.5c-.7-.3-1.3-.7-1.8-1.3c-.5-.5-.8-1.2-1.1-2c-.3-.8-.4-1.8-.4-2.8c0-1 .1-1.9.4-2.7c.3-.8.6-1.5 1.1-2.1c.5-.5 1.1-.9 1.8-1.2c.7-.3 1.5-.5 2.3-.5c.8 0 1.6.2 2.3.5c.7.3 1.3.7 1.8 1.3c.5.5.9 1.2 1.1 2c.3.8.4 1.7.4 2.7c0 1-.1 2-.4 2.8c-.2.8-.6 1.5-1.1 2c-.5.6-1.1 1-1.8 1.3c-.7.3-1.5.5-2.3.5zm0-2.2c.5 0 .9-.1 1.3-.3c.4-.2.7-.5.9-.9c.3-.4.5-.8.7-1.4c.1-.5.2-1.1.2-1.8c0-1.4-.3-2.4-.8-3.2c-.6-.7-1.3-1.1-2.3-1.1c-1 0-1.7.4-2.2 1.1c-.6.8-.8 1.8-.8 3.2c0 .7 0 1.3.2 1.8c.1.6.3 1 .6 1.4c.2.4.6.7.9.9c.4.2.8.3 1.3.3zm10.2 2L75.1 2.4h2.6l1.7 6.1c.2.7.4 1.4.5 2c.2.7.3 1.3.5 2.1h.1c.2-.8.4-1.4.6-2.1c.1-.6.3-1.3.5-2l1.6-6.1h2.6L81.9 15h-3zm8.2 0V2.4h7.8v2.1h-5.2v2.9h4.4v2.1h-4.4v3.4h5.3v2.1h-7.9z" stroke="none" fill="#fff"/></g></svg>