<?xml version="1.0" standalone="no"?><!DOCTYPE svg PUBLIC "-//W3C//DTD SVG 1.1//EN" "http://www.w3.org/Graphics/SVG/1.1/DTD/svg11.dtd"><svg xmlns="http://www.w3.org/2000/svg" version="1.1" width="231.1px" height="24.3px" viewBox="0 -3 231.1 24.3" style="top:-3px"><desc>사회적 약자 자립 지원 및 인재육성</desc><defs/><g id="Polygon110354"><path d="m11.9 6.2v1.3H9.8v6.9H8.2V.8h1.6v5.4h2.1zM4 1.9s.04 2.26 0 2.3c0 .6.1 1.2.3 1.7c.1.6.3 1.2.6 1.7c.3.5.7 1 1.1 1.4c.4.4.8.8 1.3 1l-.9 1.3c-.7-.4-1.4-1-1.9-1.6C4 9 3.6 8.2 3.3 7.3C3 8.2 2.6 9 2 9.8c-.5.7-1.2 1.3-2 1.7l-.9-1.2c.5-.3 1-.6 1.4-1.1c.4-.4.8-.9 1.1-1.4c.3-.6.5-1.2.7-1.8c.1-.6.2-1.2.2-1.8V1.9h1.5zM22.6.8h1.6v13.6h-1.6V.8zm-1 1.6v1.2h-8.2V2.4h3.3V.8h1.5v1.6h3.4zm-3.4 6.9v1.3c.7-.1 1.3-.1 1.9-.2c.6 0 1.2-.1 1.7-.2l.1 1.2l-2.2.3c-.8 0-1.5.1-2.3.1c-.7.1-1.4.1-2.1.1h-2l-.2-1.2c.5 0 1.1-.1 1.7-.1h1.9V9.3c-.8-.1-1.4-.4-1.9-.8c-.4-.5-.6-1-.6-1.7c0-.4 0-.7.2-1c.2-.3.4-.6.7-.8c.3-.2.6-.4 1-.5c.4-.1.9-.2 1.4-.2c.5 0 .9.1 1.3.2c.4.1.8.3 1.1.5c.3.2.5.5.6.8c.2.3.3.6.3 1c0 .7-.2 1.2-.7 1.7c-.5.4-1.1.7-1.9.8zm-2.6-2.5c0 .4.2.8.5 1c.4.2.8.4 1.4.4c.5 0 1-.2 1.3-.4c.3-.2.5-.6.5-1c0-.4-.2-.7-.5-1c-.3-.2-.8-.3-1.3-.3c-.6 0-1 .1-1.4.3c-.3.3-.5.6-.5 1zm20.8-6h1.6v8.1h-1.6V5.5h-2.3V4.2h2.3V.8zm-1.6 6.4L34 8.4c-.7-.2-1.4-.6-1.9-1.1c-.5-.5-.9-1.1-1.2-1.8c-.3.8-.8 1.4-1.3 2c-.6.5-1.3.9-2.1 1.2l-.8-1.2c.6-.2 1-.4 1.4-.7c.5-.3.8-.7 1.1-1.1c.3-.3.5-.7.6-1.2c.2-.4.3-.9.3-1.3c-.04-.03 0-.3 0-.3h-2.9V1.7h7.2v1.2h-2.8s.02.25 0 .3c0 .4.1.8.2 1.2l.6 1.2c.3.3.7.6 1 .9c.4.3.9.6 1.4.7zm-6 3.6V9.6h9.2v4.8h-1.6v-3.6h-7.6zM56.2 4h-1.9v1.7h1.9v1.2h-1.9v1.9h-1.5v-8h1.5v1.9h1.9v1.3zm-5.1.8c0 .5-.1 1-.2 1.4c-.2.4-.5.7-.8 1c-.3.3-.7.5-1.1.7c-.5.1-1 .2-1.5.2c-.5 0-1-.1-1.4-.2c-.4-.2-.8-.4-1.1-.7c-.4-.3-.6-.6-.8-1c-.2-.4-.3-.9-.3-1.4c0-.4.1-.9.3-1.3c.2-.4.4-.7.8-1c.3-.3.7-.5 1.1-.7c.4-.1.9-.2 1.4-.2c.5 0 1 .1 1.5.2c.4.2.8.4 1.1.7c.3.3.6.6.8 1c.1.4.2.9.2 1.3zm-5.7 0c0 .6.2 1.1.6 1.5c.4.3.9.5 1.5.5c.6 0 1.1-.2 1.5-.5c.4-.4.6-.9.6-1.5c0-.6-.2-1-.6-1.4c-.4-.3-.9-.5-1.5-.5c-.6 0-1.1.2-1.5.5c-.4.4-.6.8-.6 1.4zm0 5.9V9.4h8.9v5h-1.5v-3.7h-7.4zm24.7-4.5v1.2H68v7h-1.6V.8h1.6v5.4h2.1zm-7.9-2.8s.02 1.34 0 1.3c0 .6.1 1.1.3 1.6c.1.6.4 1.1.6 1.6c.3.5.7.9 1.1 1.3c.4.5.9.8 1.4 1l-.8 1.2c-.8-.3-1.5-.9-2-1.5c-.6-.7-1-1.5-1.3-2.4c-.3 1-.8 1.8-1.3 2.6c-.6.7-1.3 1.3-2.1 1.7l-.9-1.3c.5-.2 1-.5 1.4-1c.5-.4.8-.9 1.1-1.4c.3-.5.6-1.1.7-1.6c.2-.6.3-1.2.3-1.8c-.02.04 0-1.3 0-1.3h-3V2.2h7.4v1.2h-2.9zm24.9 2.8v1.2H85v7h-1.6V.8h1.6v5.4h2.1zm-7.9-2.8s.03 1.34 0 1.3c0 .6.1 1.1.3 1.6c.1.6.4 1.1.7 1.6c.3.5.6.9 1 1.3c.4.5.9.8 1.4 1l-.8 1.2c-.8-.3-1.5-.9-2-1.5c-.6-.7-1-1.5-1.3-2.4c-.3 1-.8 1.8-1.3 2.6c-.6.7-1.3 1.3-2.1 1.7l-.9-1.3c.6-.2 1-.5 1.5-1c.4-.4.7-.9 1-1.4c.3-.5.6-1.1.7-1.6c.2-.6.3-1.2.3-1.8V3.4h-3V2.2h7.4v1.2h-2.9zM97.8.8h1.6v7.5h-1.6V.8zm-1.4 5.6l.2 1.2l-1.5.3c-.6 0-1.1 0-1.6.1H90c.05.04-1.1 0-1.1 0V4.1h4.7V2.7h-4.7V1.4h6.2v3.9h-4.7s.04 1.48 0 1.5h1.7c.5-.1 1-.1 1.5-.1c.5 0 .9-.1 1.4-.1c.5-.1.9-.1 1.4-.2zm1.4 3.9V8.9h1.6v5.3h-8.9V8.9h1.5v1.4h5.8zm0 2.6v-1.4H92v1.4h5.8zm17-12.1h1.6v13.6h-1.6V.8zm-4.6 2.6s.02 1.33 0 1.3c0 .6.1 1.2.3 1.7c.1.6.4 1.1.7 1.6c.3.5.7.9 1.1 1.3c.4.4.9.7 1.4.9l-.8 1.2c-.8-.3-1.5-.8-2.1-1.5c-.6-.7-1-1.5-1.3-2.4c-.3 1-.8 1.8-1.4 2.6c-.6.7-1.2 1.3-2 1.7l-.9-1.3c.5-.2 1-.5 1.4-.9c.4-.5.8-.9 1.1-1.5c.3-.5.6-1 .7-1.6c.2-.6.3-1.2.3-1.8c-.04.03 0-1.3 0-1.3h-3.1V2.2h7.6v1.2h-3zM126 8.8h2.6v-8h1.6v10.3h-1.6V9.8H126v-1zm-2.7-2.7c-.5 0-1-.1-1.4-.2c-.4-.1-.8-.3-1-.5c-.3-.2-.6-.4-.7-.7c-.2-.3-.3-.6-.3-1c0-.4.1-.7.3-1c.1-.3.4-.5.7-.7c.2-.2.6-.4 1-.5c.4-.1.9-.2 1.4-.2c.5 0 .9.1 1.3.2c.4.1.8.3 1.1.5c.3.2.5.4.7.7c.1.3.2.6.2 1c0 .4-.1.7-.2 1c-.2.3-.4.5-.7.7c-.3.2-.7.4-1.1.5c-.4.1-.8.2-1.3.2zm0-3.6c-.6 0-1.1.1-1.4.3c-.3.2-.5.5-.5.9c0 .4.2.7.5.9c.3.2.8.4 1.4.4c.5 0 1-.2 1.3-.4c.4-.2.5-.5.5-.9c0-.4-.1-.7-.5-.9c-.3-.2-.8-.3-1.3-.3zm-.6 8.2s-.04-2.55 0-2.6c-.7.1-1.3.1-1.9.1h-1.7l-.2-1.2c.6 0 1.3 0 2-.1h2.2c.7 0 1.5-.1 2.2-.1c.8-.1 1.5-.2 2.3-.2l.1 1.1c-.6.1-1.2.1-1.7.2c-.6.1-1.2.1-1.8.2v2.6h-1.5zm-.4 2.1h8.2v1.3h-9.8v-4h1.6v2.7zm24.8-12v7.7h-1.5V.8h1.5zm-4 .9v5.6h-6.4V1.7h6.4zM141.6 6V2.9h-3.4v3.1h3.4zm5.8 4.6s-3.89-.04-3.9 0c0 .2.2.5.4.8c.2.3.5.5.9.8c.4.2.8.4 1.3.6c.6.2 1.1.3 1.8.4l-.5 1.1c-1.1-.1-2.1-.4-2.9-.8c-.8-.4-1.4-.9-1.8-1.5c-.4.6-1 1.1-1.8 1.5c-.8.4-1.8.7-2.9.8l-.5-1.1c.6-.1 1.2-.2 1.7-.4c.6-.2 1-.4 1.4-.6c.4-.2.7-.5.9-.8c.3-.3.4-.6.4-.8c.02-.04-3.9 0-3.9 0V9.4h3.9V8.2h1.6v1.2h3.9v1.2zM164.1.8v9.9h-1.5V.8h1.5zm-3.7 4.3c0 .5-.1.9-.3 1.4c-.1.4-.4.7-.7 1c-.3.3-.7.6-1.2.7c-.4.2-.9.3-1.4.3c-.5 0-1-.1-1.4-.3c-.4-.1-.8-.4-1.1-.7c-.4-.3-.6-.6-.8-1c-.2-.5-.3-.9-.3-1.4c0-.5.1-1 .3-1.4c.2-.4.4-.7.8-1c.3-.3.7-.6 1.1-.7c.4-.2.9-.3 1.4-.3c.5 0 1 .1 1.4.3c.5.1.9.4 1.2.7c.3.3.6.6.7 1c.2.4.3.9.3 1.4zm-5.7 0c0 .6.2 1.1.6 1.5c.4.4.9.6 1.5.6c.3 0 .6-.1.9-.2c.2-.1.4-.2.6-.4c.2-.2.4-.4.5-.7c.1-.2.1-.5.1-.8c0-.3 0-.6-.1-.9c-.1-.2-.3-.4-.5-.6c-.2-.2-.4-.3-.6-.4c-.3-.1-.6-.2-.9-.2c-.6 0-1.1.2-1.5.6c-.4.4-.6.9-.6 1.5zm2.1 7.7h7.7v1.3h-9.2V9.7h1.5v3.1zm20.1-12h1.4v13.6h-1.4v-7h-1.5v6.3h-1.5V1.1h1.5v5.1h1.5V.8zm-6.1 2.8s.02.72 0 .7c0 .6.1 1.2.2 1.8c.1.6.3 1.1.5 1.6c.2.5.5.9.9 1.3c.3.4.8.7 1.2 1l-.9 1.2c-.6-.4-1.2-.8-1.6-1.4c-.4-.6-.7-1.3-1-2c-.2.8-.5 1.6-1 2.3c-.4.6-1 1.2-1.7 1.6l-.9-1.2c.5-.3.9-.6 1.3-1.1c.3-.4.6-.9.8-1.4c.3-.5.4-1.1.6-1.7c.1-.7.1-1.3.1-2c.02.02 0-.7 0-.7h-2.4V2.3h6.2v1.3h-2.3zm15.7 2.8c-.7 0-1.4-.1-2-.2c-.6-.1-1.1-.3-1.5-.5c-.4-.3-.7-.5-.9-.9c-.3-.3-.4-.7-.4-1.1c0-.4.1-.7.4-1.1c.2-.3.5-.6.9-.8c.4-.2.9-.4 1.5-.5c.6-.1 1.3-.2 2-.2c.8 0 1.5.1 2 .2c.6.1 1.1.3 1.6.5c.4.2.7.5.9.8c.3.4.4.7.4 1.1c0 .4-.1.8-.4 1.1c-.2.4-.5.6-.9.9c-.5.2-1 .4-1.6.5c-.5.1-1.2.2-2 .2zm0-4.1c-1 0-1.8.1-2.3.4c-.6.2-.9.6-.9 1c0 .5.3.8.9 1.1c.5.2 1.3.3 2.3.3c1.1 0 1.9-.1 2.4-.3c.6-.3.9-.6.9-1.1c0-.4-.3-.8-.9-1c-.5-.3-1.3-.4-2.4-.4zm6.2 6.2h-3.1v1.5h1.6v4.4h-1.6v-3.2h-7.8V10h1.7V8.5h-3.1V7.2h12.3v1.3zM188 10V8.5h-3v1.5h3zm15.8-1.2v-4h-2.7V3.5h2.7V.8h1.6v8h-1.6zM202.2 7l-.8 1.3c-.8-.3-1.4-.7-1.9-1.2c-.5-.5-.9-1.1-1.2-1.7c-.3.7-.8 1.4-1.3 2c-.6.5-1.3 1-2.1 1.3l-.8-1.3c.5-.2 1-.4 1.4-.7c.4-.3.8-.7 1.1-1.1c.3-.4.5-.8.6-1.3c.2-.5.2-.9.2-1.4c.05-.03 0-1.4 0-1.4h1.6v1.3c0 .5.1.9.2 1.3c.2.5.4.9.6 1.3c.3.3.6.7 1 1c.4.2.9.5 1.4.6zm-1.3 2.2c.7 0 1.3 0 1.9.1c.5.2 1 .3 1.4.5c.4.3.7.5.9.9c.2.3.3.7.3 1.1c0 .4-.1.7-.3 1.1c-.2.3-.5.5-.9.8c-.4.2-.9.4-1.4.5c-.6.1-1.2.2-1.9.2c-.7 0-1.4-.1-1.9-.2c-.6-.1-1.1-.3-1.5-.5c-.4-.3-.7-.5-.9-.8c-.2-.4-.3-.7-.3-1.1c0-.4.1-.8.3-1.1c.2-.4.5-.6.9-.9c.4-.2.9-.3 1.5-.5c.5-.1 1.2-.1 1.9-.1zm0 3.9c.9 0 1.7-.1 2.2-.3c.5-.2.8-.6.8-1c0-.5-.3-.8-.8-1.1c-.5-.2-1.3-.3-2.2-.3c-1 0-1.8.1-2.3.3c-.5.3-.8.6-.8 1.1c0 .4.3.8.8 1c.5.2 1.3.3 2.3.3z" stroke="none" fill="#fff"/></g></svg>