<?xml version="1.0" standalone="no"?><!DOCTYPE svg PUBLIC "-//W3C//DTD SVG 1.1//EN" "http://www.w3.org/Graphics/SVG/1.1/DTD/svg11.dtd"><svg xmlns="http://www.w3.org/2000/svg" version="1.1" width="231.1px" height="24.3px" viewBox="0 -3 231.1 24.3" style="top:-3px"><desc>임직원 및 고객 참여 자원봉사</desc><defs/><g id="Polygon110844"><path d="m9 .8h1.5v7.7H9V.8zm-5.8.7c.5 0 1 .1 1.4.2c.5.2.9.4 1.2.7c.3.3.5.6.7 1c.2.4.3.8.3 1.3c0 .5-.1.9-.3 1.3c-.2.4-.4.7-.7 1c-.3.3-.7.5-1.2.6c-.4.2-.9.3-1.4.3c-.5 0-1-.1-1.4-.3C1.3 7.5.9 7.3.6 7c-.3-.3-.5-.6-.7-1c-.2-.4-.3-.8-.3-1.3c0-.5.1-.9.3-1.3c.2-.4.4-.7.7-1c.3-.3.7-.5 1.2-.7c.4-.1.9-.2 1.4-.2zm0 1.3c-.6 0-1.1.1-1.5.5c-.4.3-.6.8-.6 1.4c0 .6.2 1.1.6 1.4c.4.3.9.5 1.5.5c.6 0 1.1-.2 1.5-.5c.4-.4.6-.8.6-1.4c0-.6-.2-1.1-.6-1.4c-.4-.4-.9-.5-1.5-.5zM1.6 9.2h8.9v5H1.6v-5zM9 10.4H3.2v2.6h5.8v-2.6zM22.7.8h1.5v8.2h-1.5V.8zm-1.3 6.4l-.7 1.2c-.8-.2-1.5-.6-2.1-1.1c-.5-.5-.9-1.1-1.2-1.7c-.3.7-.8 1.3-1.3 1.9c-.6.5-1.3.9-2.1 1.2l-.8-1.2c.5-.2 1-.4 1.4-.7c.4-.3.8-.7 1.1-1.1c.2-.3.5-.7.6-1.2c.2-.4.2-.9.2-1.3c.04-.02 0-.3 0-.3h-2.9V1.7h7.4v1.2h-2.9s.02.28 0 .3c0 .4.1.8.2 1.2c.2.5.4.9.7 1.2c.3.4.6.7 1 1c.4.3.9.5 1.4.6zm-6.3 3.7V9.7h9.1v4.7h-1.5v-3.5h-7.6zm18.7-2.1h2.7v-8h1.5v10.3h-1.5V9.8h-2.7v-1zm-2.7-2.7c-.5 0-.9-.1-1.3-.2c-.5-.1-.8-.3-1.1-.5c-.3-.2-.5-.4-.7-.7c-.2-.3-.2-.6-.2-1c0-.4 0-.7.2-1c.2-.3.4-.5.7-.7c.3-.2.6-.4 1.1-.5c.4-.1.8-.2 1.3-.2c.5 0 1 .1 1.4.2c.4.1.7.3 1 .5c.3.2.6.4.7.7c.2.3.3.6.3 1c0 .4-.1.7-.3 1c-.1.3-.4.5-.7.7c-.3.2-.6.4-1 .5c-.4.1-.9.2-1.4.2zm0-3.6c-.5 0-1 .1-1.4.3c-.3.2-.5.5-.5.9c0 .4.2.7.5.9c.4.2.9.4 1.4.4c.6 0 1-.2 1.4-.4c.3-.2.5-.5.5-.9c0-.4-.2-.7-.5-.9c-.4-.2-.8-.3-1.4-.3zm-.6 8.2V8.1c-.7.1-1.3.1-1.9.1h-1.7L26.7 7c.6 0 1.3 0 2-.1h2.2c.8 0 1.5-.1 2.3-.1c.7-.1 1.5-.2 2.2-.2l.1 1.1c-.5.1-1.1.1-1.7.2c-.6.1-1.2.1-1.7.2c-.05-.04 0 2.6 0 2.6h-1.6zm-.4 2.1h8.2v1.3h-9.7v-4h1.5v2.7zM55 .8v7.7h-1.6V.8h1.6zm-4.1.9v5.6h-6.4V1.7h6.4zM49.4 6V2.9H46v3.1h3.4zm5.8 4.6s-3.84-.04-3.8 0c0 .2.1.5.3.8c.3.3.6.5.9.8c.4.2.9.4 1.4.6c.5.2 1.1.3 1.7.4l-.5 1.1c-1.1-.1-2-.4-2.8-.8c-.8-.4-1.4-.9-1.8-1.5c-.5.6-1.1 1.1-1.9 1.5c-.8.4-1.7.7-2.8.8l-.5-1.1c.6-.1 1.2-.2 1.7-.4c.5-.2 1-.4 1.4-.6c.4-.2.7-.5.9-.8c.2-.3.3-.6.4-.8c-.03-.04-3.9 0-3.9 0V9.4h3.9V8.2h1.5v1.2h3.9v1.2zm15-7.2c-.02.01 0-.1 0-.1h-8.1V2.1h9.6s.04 1.31 0 1.3v2.8c-.1.5-.1 1-.2 1.6l-.3 2l-1.5-.2c.2-1.3.4-2.5.4-3.5c.1-1 .1-1.9.1-2.7zm-3.3 7.9h6.2v1.3H60.8v-1.3h4.6V6.5h1.5v4.8zM84.5.8h1.5v8h-1.5V5.4H83v3.3h-1.4V1.1h1.4v3h1.5V.8zm-9.4 1h5.3c0 1.7-.4 3.1-1.2 4.3c-.9 1.2-2.2 2.1-3.9 2.8l-.8-1.1c1.4-.6 2.4-1.2 3.1-2c.7-.8 1.1-1.7 1.2-2.8c.04.03-3.7 0-3.7 0V1.8zm1.7 8.8V9.4h9.2v5h-1.5v-3.8h-7.7zm22.7-3.4l-.7 1.2c-.7-.3-1.4-.6-2-1c-.5-.5-.9-1-1.2-1.6c-.3.7-.8 1.2-1.3 1.7c-.6.5-1.2.9-2.1 1.1l-.7-1.2c.5-.2 1-.4 1.4-.6c.4-.3.7-.6 1-.9c.3-.3.5-.7.7-1.1c.1-.4.2-.8.2-1.2c-.02 0 0-.1 0-.1h-2.9V2.3h2.9V.8h1.5v1.5h2.9v1.2h-2.9s.02.1 0 .1c0 .4.1.8.2 1.1c.2.4.4.7.7 1c.2.4.6.6 1 .9c.4.2.8.4 1.3.6zm4.5-3.1v1.3h-1.9v3.4h-1.5v-8h1.5v3.3h1.9zM93.5 14.2V9.4h8.6v4.8h-8.6zm1.5-3.6v2.4h5.6v-2.4H95zm20-9.8h1.5v13.6H115V9.2s-3.15.04-3.2 0c-.2.7-.6 1.2-1.1 1.6c-.5.4-1.1.6-1.8.6c-.5 0-.9-.2-1.4-.4c-.4-.2-.7-.5-1-.9c-.3-.4-.6-.9-.7-1.5c-.2-.6-.3-1.3-.3-2c0-.8.1-1.4.3-2c.1-.6.4-1.1.7-1.5c.3-.4.6-.7 1-1c.5-.2.9-.3 1.4-.3c.7 0 1.2.2 1.7.5c.5.3.9.8 1.2 1.4c-.03.02 3.2 0 3.2 0V.8zm-6.1 9.2c.6 0 1.1-.3 1.5-.9c.3-.6.5-1.4.5-2.5c0-1.1-.2-1.9-.5-2.5c-.4-.6-.9-.9-1.5-.9c-.6 0-1 .3-1.4.9c-.4.6-.5 1.4-.5 2.5c0 1.1.1 1.9.5 2.5c.4.6.8.9 1.4.9zm3.3-2c.04-.03 2.8 0 2.8 0v-3h-2.8c0 .2.1.5.1.8c0 .2.1.5.1.8c0 .2-.1.5-.1.7c0 .2 0 .4-.1.7zm22.7-1.8v1.2h-2.1v7h-1.6V.8h1.6v5.4h2.1zM127 3.4s.03 1.34 0 1.3c0 .6.1 1.1.3 1.6c.1.6.4 1.1.7 1.6c.2.5.6.9 1 1.3c.4.5.9.8 1.4 1l-.8 1.2c-.8-.3-1.5-.9-2-1.5c-.6-.7-1-1.5-1.3-2.4c-.3 1-.8 1.8-1.3 2.6c-.6.7-1.3 1.3-2.1 1.7l-.9-1.3c.6-.2 1-.5 1.5-1c.4-.4.7-.9 1-1.4c.3-.5.6-1.1.7-1.6c.2-.6.3-1.2.3-1.8c-.02.04 0-1.3 0-1.3h-3V2.2h7.4v1.2H127zm16 5.4h2.7v-8h1.5v10.3h-1.5V9.8H143v-1zm-2.7-2.7c-.5 0-.9-.1-1.3-.2c-.4-.1-.8-.3-1.1-.5c-.3-.2-.5-.4-.7-.7c-.1-.3-.2-.6-.2-1c0-.4.1-.7.2-1c.2-.3.4-.5.7-.7c.3-.2.7-.4 1.1-.5c.4-.1.8-.2 1.3-.2c.5 0 1 .1 1.4.2c.4.1.8.3 1 .5c.3.2.6.4.7.7c.2.3.3.6.3 1c0 .4-.1.7-.3 1c-.1.3-.4.5-.7.7c-.2.2-.6.4-1 .5c-.4.1-.9.2-1.4.2zm0-3.6c-.5 0-1 .1-1.3.3c-.4.2-.6.5-.6.9c0 .4.2.7.6.9c.3.2.8.4 1.3.4c.6 0 1.1-.2 1.4-.4c.3-.2.5-.5.5-.9c0-.4-.2-.7-.5-.9c-.3-.2-.8-.3-1.4-.3zm-.6 8.2s.02-2.55 0-2.6c-.6.1-1.3.1-1.9.1h-1.7l-.2-1.2c.7 0 1.3 0 2-.1h2.2c.8 0 1.5-.1 2.3-.1c.8-.1 1.5-.2 2.2-.2l.1 1.1c-.5.1-1.1.1-1.7.2c-.6.1-1.2.1-1.7.2c-.04-.04 0 2.6 0 2.6h-1.6zm-.4 2.1h8.2v1.3h-9.7v-4h1.5v2.7zm17.3-5.3h5.4v1.2h-12.3V7.5h5.4V6.2h-3.8v-5h1.5v1.3h6.1V1.2h1.5v5h-3.8v1.3zm-3.8-3.8v1.3h6.1V3.7h-6.1zm3 5.9c1.5 0 2.7.2 3.5.6c.8.4 1.2 1 1.2 1.8c0 .8-.4 1.3-1.2 1.7c-.8.5-2 .7-3.5.7c-1.5 0-2.6-.2-3.4-.7c-.8-.4-1.2-.9-1.2-1.7c0-.8.4-1.4 1.2-1.8c.8-.4 1.9-.6 3.4-.6zm0 3.6c1 0 1.8-.1 2.3-.3c.6-.2.8-.5.8-.9c0-.4-.2-.7-.8-.9c-.5-.2-1.3-.3-2.3-.3c-1 0-1.7.1-2.3.3c-.5.2-.8.5-.8.9c0 .4.3.7.8.9c.6.2 1.3.3 2.3.3zm20.3-7v1.3h-2.2v6.9h-1.5V.8h1.5v5.4h2.2zm-7.9-4.3v2.3c0 .6.1 1.2.2 1.7c.2.6.4 1.2.7 1.7c.3.5.6 1 1 1.4c.4.4.9.8 1.4 1l-.9 1.3c-.8-.4-1.4-1-1.9-1.6c-.6-.7-1-1.5-1.3-2.4c-.3.9-.7 1.7-1.2 2.5c-.6.7-1.3 1.3-2 1.7l-1-1.2c.6-.3 1-.6 1.5-1.1c.4-.4.7-.9 1-1.4c.3-.6.6-1.2.7-1.8c.2-.6.3-1.2.3-1.8c-.04-.04 0-2.3 0-2.3h1.5z" stroke="none" fill="#fff"/></g></svg>