<?xml version="1.0" standalone="no"?><!DOCTYPE svg PUBLIC "-//W3C//DTD SVG 1.1//EN" "http://www.w3.org/Graphics/SVG/1.1/DTD/svg11.dtd"><svg xmlns="http://www.w3.org/2000/svg" version="1.1" width="231.1px" height="24.3px" viewBox="0 -3 231.1 24.3" style="top:-3px"><desc>환경보전 및 기후변화 대응</desc><defs/><g id="Polygon110648"><path d="m8 2v1.2H.3V2h3.1V.8h1.6v1.2h3zm2.7 3.4h1.8v1.3h-1.8v4.7H9.1V.8h1.6v4.6zM8.4 8.3l.1 1c-.7.2-1.4.3-2.1.4c-.8 0-1.5.1-2.3.1c-.7.1-1.4.1-2.1.1c-.6.1-1.3.1-1.9.1L0 8.7h3.4v-.9c-.8-.1-1.4-.4-1.8-.7c-.4-.3-.7-.8-.7-1.4c0-.6.3-1.1.9-1.5c.6-.4 1.4-.6 2.4-.6c1 0 1.8.2 2.3.6c.6.4.9.9.9 1.5c0 .6-.2 1-.7 1.4c-.4.3-1 .6-1.7.7v.8c.6 0 1.1-.1 1.7-.1c.6-.1 1.2-.1 1.7-.2zm-6-2.6c0 .4.2.6.5.8c.3.1.7.2 1.3.2c.5 0 .9-.1 1.3-.2c.3-.2.4-.4.4-.8c0-.3-.1-.5-.4-.7c-.4-.2-.8-.3-1.3-.3c-.6 0-1 .1-1.3.3c-.3.2-.5.4-.5.7zm1.1 5v2.1h7.6v1.3H1.9v-3.4h1.6zm20-6.3h-3.2c-.8 2.2-2.7 3.7-5.7 4.5l-.7-1.2c1.7-.5 2.9-1.1 3.8-1.9C18.5 5 19 4.1 19.2 3c-.05.03-4.5 0-4.5 0V1.8s6.1-.01 6.1 0v.7c0 .2-.1.4-.1.6c-.02.04 2.8 0 2.8 0V.8h1.5v8h-1.5V7.2h-3.3V6h3.3V4.4zm-2.9 4.5c.7 0 1.3.1 1.8.2c.6.2 1.1.3 1.5.6c.4.2.7.5.9.8c.2.3.3.7.3 1.1c0 .4-.1.8-.3 1.1c-.2.4-.5.6-.9.9c-.4.2-.9.4-1.5.5c-.5.1-1.1.2-1.8.2c-.7 0-1.3-.1-1.9-.2c-.5-.1-1-.3-1.4-.5c-.4-.3-.7-.5-.9-.9c-.2-.3-.3-.7-.3-1.1c0-.4.1-.8.3-1.1c.2-.3.5-.6.9-.8c.4-.3.9-.4 1.4-.6c.6-.1 1.2-.2 1.9-.2zm0 4.2c.9 0 1.7-.1 2.2-.4c.5-.2.8-.6.8-1.1c0-.5-.3-.8-.8-1.1c-.5-.2-1.3-.3-2.2-.3c-1 0-1.7.1-2.2.3c-.5.3-.8.6-.8 1.1c0 .5.3.9.8 1.1c.5.3 1.2.4 2.2.4zm13.8-1.7h5.4v1.3H27.5v-1.3h5.4V8.7h-4v-7h1.5v2.3h6.5V1.7h1.5v7h-4v2.7zm-4-6.2v2.3h6.5V5.2h-6.5zm18.1-.8h2.4V.8h1.6v9.9h-1.6v-5h-2.4V4.4zm.8 3.2l-.8 1.2c-.7-.3-1.4-.6-1.9-1.1c-.5-.5-.9-1.1-1.2-1.8c-.3.7-.8 1.4-1.3 2c-.6.5-1.3.9-2.1 1.2l-.8-1.2c.6-.2 1-.4 1.4-.7c.5-.3.8-.7 1.1-1.1c.3-.4.5-.8.6-1.2c.2-.5.3-.9.3-1.4c-.04.04 0-.4 0-.4h-2.9V1.8h7.2v1.3h-2.8s.02.44 0 .4c0 .5.1.9.2 1.3c.2.4.4.8.6 1.1c.3.4.6.7 1 1c.4.3.9.5 1.4.7zm-4.1 5.2h7.6v1.3h-9.1V9.9h1.5v2.9zM69.4.8v7.7h-1.5V.8h1.5zm-4 .9v5.6h-6.5V1.7h6.5zM63.9 6V2.9h-3.4v3.1h3.4zm5.8 4.6s-3.9-.04-3.9 0c0 .2.2.5.4.8c.2.3.5.5.9.8c.4.2.8.4 1.3.6c.6.2 1.1.3 1.8.4l-.5 1.1c-1.1-.1-2.1-.4-2.9-.8c-.8-.4-1.4-.9-1.8-1.5c-.4.6-1 1.1-1.8 1.5c-.8.4-1.8.7-2.9.8l-.5-1.1c.6-.1 1.2-.2 1.7-.4c.6-.2 1-.4 1.4-.6c.4-.2.7-.5.9-.8c.3-.3.4-.6.4-.8c.01-.04-3.9 0-3.9 0V9.4h3.9V8.2h1.6v1.2h3.9v1.2zM84.9.8h1.5v13.6h-1.5V.8zM76 2.2s6.45.04 6.5 0c0 1-.2 2-.4 2.9c-.2 1-.5 1.8-1 2.7c-.5.8-1.2 1.5-2 2.2c-.8.7-1.8 1.4-2.9 1.9l-.8-1.2c1.7-.8 3.1-1.9 3.9-3.1c.9-1.2 1.4-2.5 1.6-4.1H76V2.2zm24.6.1v1.2h-11V2.3h4.7V.8h1.6v1.5h4.7zm-10 4.2c0-.8.4-1.3 1.2-1.7c.8-.4 1.9-.6 3.3-.6c1.4 0 2.5.2 3.3.6c.8.4 1.2.9 1.2 1.7c0 .7-.4 1.3-1.2 1.7c-.8.4-1.9.6-3.3.6c-1.4 0-2.5-.2-3.3-.6c-.8-.4-1.2-1-1.2-1.7zm4.5 1.1c1.9 0 2.9-.4 2.9-1.1c0-.8-1-1.1-2.9-1.1c-1.9 0-2.9.3-2.9 1.1c0 .7 1 1.1 2.9 1.1zm6.2 2v1.2h-5.4v3.6h-1.6v-3.6H89V9.6h12.3zm8.3-2.2v1.2h-6.3V1.7h1.6v2.2h3.2V1.7h1.5v1.5h2.8V.8h1.5v10h-1.5V7.4h-2.8zm2.8-3h-2.8v1.7h2.8V4.4zm-4.3 3V5.2h-3.2v2.2h3.2zm-1.4 5.4h7.6v1.3h-9.2V9.9h1.6v2.9zM129 6.5v1.2h-2v6.7h-1.5V.8h1.5v5.7h2zm-4.4-4.1v1.2h-8.1V2.4h3.3V.8h1.5v1.6h3.3zm-3.3 6.9v1.2c.6 0 1.2 0 1.8-.1c.5 0 1.1-.1 1.6-.2l.1 1.2l-2.2.3c-.7.1-1.4.1-2.2.2h-3.9l-.2-1.2c.5 0 1.1-.1 1.6-.1h1.9V9.3c-.8-.1-1.4-.4-1.8-.8c-.5-.5-.7-1-.7-1.7c0-.4.1-.7.3-1c.1-.3.3-.6.6-.8c.3-.2.6-.4 1-.5c.4-.1.9-.2 1.4-.2c.4 0 .9.1 1.3.2c.4.1.7.3 1 .5c.3.2.5.5.7.8c.1.3.2.6.2 1c0 .7-.2 1.2-.7 1.7c-.4.4-1 .7-1.8.8zm-2.5-2.5c0 .4.1.8.5 1c.3.2.7.4 1.3.4c.5 0 .9-.2 1.3-.4c.3-.2.5-.6.5-1c0-.4-.2-.7-.5-1c-.4-.2-.8-.3-1.3-.3c-.6 0-1 .1-1.3.3c-.4.3-.5.6-.5 1zm24.7-6h1.5v13.5h-1.5V7.4h-1.6v6.3h-1.4V1.1h1.4v5.1h1.6V.8zm-8.1 2.9s.02 6.16 0 6.2c.8-.1 1.5-.1 2.2-.1l2-.3l.1 1.3c-.4 0-.8.1-1.2.2c-.3 0-.7 0-1.1.1h-2.6c0 .03-.9 0-.9 0V2.4h5v1.3h-3.5zm17.9-2.6c.7 0 1.4.1 2 .2c.6.1 1.1.3 1.5.5c.4.2.8.5 1 .8c.2.4.3.7.3 1.2c0 .4-.1.7-.3 1c-.2.4-.6.6-1 .9c-.4.2-.9.4-1.5.5c-.6.1-1.3.2-2 .2c-.7 0-1.4-.1-2-.2c-.6-.1-1.1-.3-1.5-.5c-.4-.3-.8-.5-1-.9c-.2-.3-.3-.6-.3-1c0-.5.1-.8.3-1.2c.2-.3.6-.6 1-.8c.4-.2.9-.4 1.5-.5c.6-.1 1.3-.2 2-.2zm0 1.2c-1 0-1.8.2-2.4.4c-.6.3-.8.6-.8 1.1c0 .4.2.7.8 1c.6.2 1.4.3 2.4.3c1 0 1.8-.1 2.4-.3c.5-.3.8-.6.8-1c0-.5-.3-.8-.8-1.1c-.6-.2-1.4-.4-2.4-.4zm-6.1 5h12.2v1.2h-12.2V7.3zm6.1 2.2c1.5 0 2.6.2 3.4.6c.8.4 1.2 1 1.2 1.8c0 .8-.4 1.4-1.2 1.8c-.8.5-1.9.7-3.4.7c-1.5 0-2.6-.2-3.5-.7c-.8-.4-1.2-1-1.2-1.8c0-.8.4-1.4 1.2-1.8c.9-.4 2-.6 3.5-.6zm0 1.2c-1 0-1.8.1-2.3.3c-.6.2-.8.5-.8.9c0 .4.2.8.8 1c.5.2 1.3.3 2.3.3c1 0 1.7-.1 2.3-.3c.5-.2.8-.6.8-1c0-.4-.3-.7-.8-.9c-.6-.2-1.3-.3-2.3-.3z" stroke="none" fill="#fff"/></g></svg>