<?xml version="1.0" standalone="no"?><!DOCTYPE svg PUBLIC "-//W3C//DTD SVG 1.1//EN" "http://www.w3.org/Graphics/SVG/1.1/DTD/svg11.dtd"><svg xmlns="http://www.w3.org/2000/svg" version="1.1" width="41px" height="88.4px" viewBox="0 -11 41 88.4" style="top:-11px"><desc>o</desc><defs/><g id="Polygon109276"><path d="m38.6 36.9c0 5.2-1.8 9.5-5.4 12.9c-3.5 3.4-7.8 5.1-12.8 5.1c-4.9 0-9.2-1.7-12.8-5.1c-3.6-3.3-5.5-7.6-5.5-12.9c0-5.4 1.8-9.8 5.4-13.1c3.6-3.4 7.9-5.1 12.9-5.1c5 0 9.3 1.7 12.8 5.1c3.6 3.4 5.4 7.8 5.4 13.1zm-27.6 0c0 3 .9 5.4 2.6 7.3c1.7 1.8 4 2.8 6.8 2.8c2.7 0 5-1 6.7-2.8c1.8-1.9 2.6-4.3 2.6-7.3c0-3-.8-5.5-2.6-7.4c-1.7-1.9-4-2.9-6.7-2.9c-2.8 0-5.1 1-6.8 2.9c-1.7 1.9-2.6 4.4-2.6 7.4z" stroke="none" fill="#fff"/></g></svg>