<?xml version="1.0" standalone="no"?><!DOCTYPE svg PUBLIC "-//W3C//DTD SVG 1.1//EN" "http://www.w3.org/Graphics/SVG/1.1/DTD/svg11.dtd"><svg xmlns="http://www.w3.org/2000/svg" version="1.1" width="413px" height="31px" viewBox="0 -4 413 31" style="top:-4px"><desc>함께 움직이는 세상</desc><defs/><g id="Polygon110207"><path d="m5.6 2.6V.7h2.8v1.9h4.4v2h-2.2s-.02.07 0 .1c.4.4.8.9 1.1 1.5c.2.5.4 1.1.4 1.7c0 .7-.2 1.3-.4 1.8c-.3.6-.7 1.1-1.1 1.5c-.5.4-1 .7-1.6 1c-.7.2-1.3.4-2 .4c-.7 0-1.4-.2-2-.4c-.6-.3-1.1-.6-1.6-1c-.5-.4-.8-.9-1.1-1.5c-.3-.5-.4-1.1-.4-1.8c0-.6.1-1.2.4-1.7c.3-.6.6-1.1 1.1-1.5v-.1H1.2v-2h4.4zm4 5.2c0-.7-.2-1.3-.8-1.8c-.5-.5-1.1-.8-1.8-.8c-.7 0-1.3.3-1.9.8c-.5.5-.7 1.1-.7 1.8c0 .7.2 1.3.7 1.8c.6.6 1.2.8 1.9.8c.7 0 1.3-.2 1.8-.8c.6-.5.8-1.1.8-1.8zM17.1 1v5.2h2.7v2.3h-2.7v4.1h-2.5V1h2.5zm-2.5 14.8H6.7v3.2h7.9v-3.2zm2.5 5.3H4.3v-7.4h12.8v7.4zM35.4 1h2.3v20.1h-2.3V1zm-5.3.9c0 1.7-.1 3.3-.3 4.8c-.04.02 1.9 0 1.9 0V1h2.3v20.1h-2.3V9s-2.38-.03-2.4 0l-.3 1.3c-.9 2.7-2 4.9-3.4 6.7l-1.9-1c1.4-1.8 2.5-3.9 3.3-6.5c.5-1.6.7-3.4.8-5.4H26c-.1 2.2-.5 4.1-1.1 5.7c-1 2.4-2.2 4.4-3.6 6.1l-1.8-1c1.5-1.7 2.6-3.7 3.4-5.9c.5-1.4.8-3.1.9-4.9h-2.7V1.9h9zm28 3.9c0-.4-.1-.8-.3-1.2c-.1-.4-.4-.7-.6-1c-.3-.2-.7-.5-1.1-.6c-.4-.2-.8-.3-1.2-.3c-.4 0-.8.1-1.2.3c-.4.1-.8.4-1.1.6c-.2.3-.5.6-.6 1c-.2.4-.3.8-.3 1.2c0 .4.1.8.3 1.2c.1.4.4.7.6 1c.3.3.7.5 1.1.6c.4.2.8.3 1.2.3c.4 0 .8-.1 1.2-.3c.4-.1.8-.3 1.1-.6c.2-.3.5-.6.6-1c.2-.4.3-.8.3-1.2zm2.5-.1c0 .7-.2 1.4-.5 2c-.3.6-.7 1.2-1.2 1.6c-.1.1-.2.2-.3.2c.05.05 5.2 0 5.2 0v2.2h-7.6v2.1h5.4v7.3H48.2v-7.3h5.4v-2.1H46V9.5s5.15.05 5.2 0c-.1 0-.2-.1-.3-.2c-.5-.4-.9-1-1.2-1.6c-.3-.6-.5-1.3-.5-2c0-.7.2-1.4.5-2c.3-.6.7-1.1 1.2-1.6c.5-.5 1.1-.8 1.8-1.1c.7-.3 1.4-.4 2.2-.4c.8 0 1.5.1 2.2.4c.7.3 1.3.6 1.8 1.1c.5.5.9 1 1.2 1.6c.3.6.5 1.3.5 2zm-1.4 10.2h-8.6v3.1h8.6v-3.1zM81.9 1v11.5h-2.5V1h2.5zm-2.5 20.3v-5.2H69v-2.2h12.9v7.4h-2.5zM72.5 4h4.3V1.8H66v2.2h4v.8c0 1.3-.3 2.4-1 3.2c-1.2 1.3-2.5 2.3-3.8 2.9l1.5 1.7c1.9-1 3.4-2.3 4.6-3.9c1.2 1.6 2.8 2.8 4.9 3.6l1.2-1.7c-1.3-.6-2.5-1.4-3.6-2.4c-.8-.9-1.3-2-1.3-3.5c.04.04 0-.7 0-.7zm24 3.8c0 .8-.2 1.6-.5 2.2c-.3.7-.8 1.3-1.3 1.8c-.5.6-1.2 1-1.9 1.3c-.7.3-1.5.4-2.3.4c-.8 0-1.6-.1-2.3-.4c-.7-.3-1.3-.7-1.9-1.3c-.5-.5-.9-1.1-1.2-1.8c-.3-.6-.5-1.4-.5-2.2c0-.7.2-1.5.5-2.2c.3-.6.7-1.2 1.2-1.8c.6-.5 1.2-.9 1.9-1.2c.7-.3 1.5-.4 2.3-.4c.8 0 1.6.1 2.3.4c.7.3 1.4.7 1.9 1.2c.5.6 1 1.2 1.3 1.8c.3.7.5 1.5.5 2.2zm-2.5 0c0-.4-.1-.9-.3-1.3c-.2-.4-.4-.8-.7-1.1c-.4-.3-.7-.5-1.1-.7c-.5-.2-.9-.3-1.4-.3c-.4 0-.9.1-1.3.3c-.4.2-.8.4-1.1.7c-.3.3-.6.7-.7 1.1c-.2.4-.3.9-.3 1.3c0 .5.1 1 .3 1.4c.1.4.4.8.7 1.1c.3.3.7.5 1.1.7c.4.2.9.3 1.3.3c.5 0 .9-.1 1.4-.3c.4-.2.7-.4 1.1-.7c.3-.3.5-.7.7-1.1c.2-.4.3-.9.3-1.4zM98.9 1h2.5v20.1h-2.5V1zm7.4.3h2.4v5.5H120v2.3h-13.7V1.3zm-2.2 12.1v-2.3h17.8v2.3h-17.8zm16 7.7h-13.7v-5.9h2.5v3.6h11.2v2.3zM144.4 1h2.4v20.1h-2.4V1zm-1.7 20.1h-2.4V9.2h-2.8V6.9h2.8V1h2.4v20.1zM135.5 5c0 2.4.4 4.3 1.2 5.9c.7 1.7 1.7 3.1 2.8 4.3l-1.7 1.3c-1-1-2.1-2.6-3.2-4.6c-.1-.2-.2-.5-.3-.8c-.2.3-.3.5-.4.8c-1.1 2.1-2.2 3.6-3.3 4.6l-1.8-1.3c1.2-1.2 2.3-2.6 3.1-4.3c.8-1.6 1.2-3.6 1.2-5.9V1.6h2.4s-.01 3.41 0 3.4zm28.9-4v4.5h2.8v2.3h-2.8v4.8H162V1h2.4zm0 16.2c0 .7-.1 1.3-.4 1.9c-.3.6-.6 1.1-1.1 1.6c-.5.4-1.1.8-1.7 1c-.7.3-1.4.4-2.1.4c-.7 0-1.4-.1-2.1-.4c-.6-.2-1.2-.6-1.7-1c-.4-.5-.8-1-1.1-1.6c-.3-.6-.4-1.2-.4-1.9c0-.6.1-1.3.4-1.9c.3-.6.7-1.1 1.1-1.5c.5-.5 1.1-.8 1.7-1.1c.7-.2 1.4-.3 2.1-.3c.7 0 1.4.1 2.1.3c.6.3 1.2.6 1.7 1.1c.5.4.8.9 1.1 1.5c.3.6.4 1.3.4 1.9zm-2.4 0c0-.7-.3-1.3-.9-1.9c-.5-.5-1.2-.8-2-.8c-.8 0-1.4.3-2 .8c-.6.6-.8 1.2-.8 1.9c0 .8.2 1.4.8 1.9c.6.6 1.2.8 2 .8c.8 0 1.5-.2 2-.8c.6-.5.9-1.1.9-1.9zm-6.2-13.9c0 1.6.4 2.9 1.3 4c.8 1 2 1.9 3.4 2.8l-1.4 1.7c-1.6-.8-2.9-1.9-4.1-3.3c-.1-.1-.2-.3-.4-.5c-.1.3-.3.7-.6.9c-1.2 1.6-2.5 2.8-4 3.7l-1.6-1.7c1.4-.8 2.7-1.9 3.6-3.2c.8-1.1 1.2-2.6 1.2-4.4c.05-.03 0-1.8 0-1.8h2.6s-.02 1.77 0 1.8z" stroke="none" fill="#fff"/></g></svg>