<?xml version="1.0" standalone="no"?><!DOCTYPE svg PUBLIC "-//W3C//DTD SVG 1.1//EN" "http://www.w3.org/Graphics/SVG/1.1/DTD/svg11.dtd"><svg xmlns="http://www.w3.org/2000/svg" version="1.1" width="575px" height="31.2px" viewBox="0 -6 575 31.2" style="top:-6px"><desc>텍스트 B</desc><defs/><g id="Polygon7512"><path d="m214.3 8.1c0-1.3.2-2.5.8-3.5c.5-1.1 1.3-1.9 2.4-2.5c1-.6 2.2-.9 3.6-.9c.8 0 1.6.1 2.3.4c.8.2 1.4.5 1.9.9v2.8c-.5-.7-1.1-1.2-1.8-1.6c-.7-.4-1.5-.5-2.3-.5c-.8 0-1.5.2-2.2.6c-.6.4-1.2 1-1.5 1.7c-.4.8-.6 1.7-.6 2.6v.4c0 .9.2 1.8.6 2.6c.3.7.9 1.3 1.5 1.7c.7.4 1.4.6 2.2.6c.8 0 1.6-.1 2.3-.5c.7-.4 1.3-.9 1.8-1.6v2.8c-.5.4-1.1.7-1.9.9c-.7.3-1.5.4-2.3.4c-1.4 0-2.6-.3-3.6-.9c-1.1-.6-1.9-1.4-2.4-2.5c-.6-1-.8-2.2-.8-3.5v-.4zm13 7V5.3h2.2s.08 1.63.1 1.6c.2-.5.5-1 1.1-1.3c.5-.4 1.1-.6 1.8-.6c.3 0 .6.1.8.1v2.1c-.3-.1-.5-.1-.9-.1c-.6 0-1.2.2-1.7.5c-.6.4-.9 1-1.1 1.6v5.9h-2.3zm6.5-5.1c0-.9.2-1.8.6-2.5c.4-.8 1-1.4 1.7-1.8c.7-.4 1.5-.7 2.4-.7c1.4 0 2.5.5 3.3 1.4c.8.9 1.2 2.2 1.2 3.7c-.01.03 0 .9 0 .9c0 0-6.87.03-6.9 0c.1.9.4 1.5.9 2c.5.4 1.1.6 1.9.6c.7 0 1.2-.1 1.8-.3c.6-.2 1.1-.6 1.6-1.2v2.2c-.4.4-.9.6-1.5.8c-.6.2-1.3.3-2 .3c-1 0-1.9-.2-2.7-.6c-.7-.5-1.3-1-1.7-1.8c-.4-.8-.6-1.6-.6-2.6v-.4zm6.9-.7c0-.8-.2-1.4-.6-1.9c-.4-.4-1-.6-1.6-.6c-.7 0-1.2.2-1.6.7c-.5.4-.7 1-.8 1.8h4.6zm3.4 3.1c0-.8.2-1.4.6-1.9c.4-.4.8-.7 1.4-1c.6-.2 1.3-.3 2.2-.5l2-.3c-.1-1.3-.9-1.9-2.3-1.9c-.6 0-1.1.1-1.7.4c-.5.3-1 .7-1.3 1.2V6.2c.9-.8 2.1-1.2 3.5-1.2c1.2 0 2.2.4 3 1c.8.7 1.2 1.7 1.2 3.1v6h-2s-.17-1.1-.2-1.1c-.5.5-1 .8-1.5 1.1c-.5.2-1.1.3-1.8.3c-1 0-1.7-.3-2.3-.8c-.6-.5-.8-1.3-.8-2.2zm2.3-.1c0 .4.1.7.3.9c.3.2.6.4 1 .4c.6 0 1.1-.2 1.6-.6c.5-.3.9-.8 1.1-1.3v-1.4s-1.17.23-1.2.2c-.8.2-1.4.3-1.7.4c-.3.2-.6.3-.8.5c-.2.2-.3.5-.3.9zm9.5-5.2h-2.1V5.3h2.1v-3h2.3v3h2.2v1.8h-2.2v8h-2.3v-8zm8.1-3.3h-2.3V1.4h2.3v2.4zm0 11.3h-2.3V5.3h2.3v9.8zm4.9 0l-3.7-9.8h2.5l2.6 7.4l2.6-7.4h2.2l-3.7 9.8h-2.5zm6.6-5.1c0-.9.2-1.8.6-2.5c.4-.8.9-1.4 1.6-1.8c.7-.4 1.5-.7 2.4-.7c1.4 0 2.6.5 3.3 1.4c.8.9 1.2 2.2 1.2 3.7c.02.03 0 .9 0 .9c0 0-6.84.03-6.8 0c0 .9.3 1.5.8 2c.5.4 1.1.6 2 .6c.6 0 1.2-.1 1.7-.3c.6-.2 1.1-.6 1.7-1.2v2.2c-.5.4-1 .6-1.6.8c-.6.2-1.3.3-1.9.3c-1.1 0-2-.2-2.7-.6c-.8-.5-1.4-1-1.7-1.8c-.4-.8-.6-1.6-.6-2.6v-.4zm6.8-.7c0-.8-.2-1.4-.6-1.9c-.4-.4-.9-.6-1.6-.6c-.6 0-1.2.2-1.6.7c-.4.4-.7 1-.7 1.8h4.5zm11.2 5.8h-2.4V1.5h3.3l3.8 9.4l3.9-9.4h2.8v13.6h-2.3V5.2l-4.1 9.9h-1l-4-9.8v9.8zm13.3-5c0-1 .2-1.8.6-2.6c.4-.8 1-1.4 1.8-1.8c.7-.4 1.6-.7 2.5-.7c.9 0 1.8.3 2.5.7c.8.4 1.4 1 1.8 1.8c.4.8.6 1.6.6 2.6v.3c0 .9-.2 1.8-.6 2.6c-.4.7-1 1.3-1.8 1.8c-.7.4-1.6.6-2.5.6c-.9 0-1.8-.2-2.5-.6c-.8-.5-1.4-1.1-1.8-1.9c-.4-.7-.6-1.6-.6-2.5v-.3zm2.4.3c0 .9.2 1.7.7 2.3c.4.6 1 .9 1.8.9c.8 0 1.4-.3 1.9-.9c.4-.6.6-1.4.6-2.3v-.3c0-1-.2-1.7-.6-2.4c-.5-.6-1.1-.9-1.9-.9c-.8 0-1.4.3-1.8.9c-.5.7-.7 1.4-.7 2.4v.3zm9.2 4.7V5.3h2.1s.07 1.31.1 1.3c.4-.5.8-.9 1.3-1.1c.4-.3 1-.5 1.6-.5c.6 0 1.1.2 1.6.5c.5.3.8.7 1.1 1.3c.4-.6.8-1 1.4-1.3c.5-.3 1.1-.5 1.7-.5c.6 0 1.1.2 1.5.4c.5.3.9.7 1.1 1.2c.3.5.5 1.1.5 1.8c-.03.02 0 6.7 0 6.7h-2.3s-.05-6.68 0-6.7c0-1.1-.5-1.6-1.3-1.6c-.5 0-.9.2-1.4.6c-.4.4-.7.8-.9 1.4v6.3h-2.3s.02-6.77 0-6.8c0-.5-.1-.9-.3-1.1c-.3-.3-.6-.4-1-.4c-.5 0-.9.2-1.3.5c-.4.4-.7.9-.9 1.4c-.03.03 0 6.4 0 6.4h-2.3zm15.4-5.1c0-.9.2-1.8.6-2.5c.4-.8.9-1.4 1.6-1.8c.7-.4 1.5-.7 2.5-.7c1.4 0 2.5.5 3.3 1.4c.8.9 1.2 2.2 1.2 3.7c-.04.03 0 .9 0 .9c0 0-6.9.03-6.9 0c.1.9.4 1.5.8 2c.5.4 1.2.6 2 .6c.6 0 1.2-.1 1.8-.3c.5-.2 1.1-.6 1.6-1.2v2.2c-.4.4-1 .6-1.6.8c-.6.2-1.2.3-1.9.3c-1.1 0-2-.2-2.7-.6c-.8-.5-1.3-1-1.7-1.8c-.4-.8-.6-1.6-.6-2.6v-.4zm6.9-.7c0-.8-.2-1.4-.6-1.9c-.5-.4-1-.6-1.7-.6c-.6 0-1.1.2-1.6.7c-.4.4-.6 1-.7 1.8h4.6zm4 5.8V5.3h2.1s.19 1.43.2 1.4c.3-.4.8-.8 1.3-1.2c.6-.3 1.2-.5 1.8-.5c1.1 0 2 .4 2.6 1c.6.6.9 1.5.9 2.7c-.02.01 0 6.4 0 6.4h-2.3s-.04-6.39 0-6.4c0-1.2-.5-1.9-1.6-1.9c-.5 0-1.1.3-1.6.7c-.5.5-.9 1-1.1 1.6v6h-2.3zm12.1-8h-2.1V5.3h2.1v-3h2.3v3h2.2v1.8h-2.2v8h-2.3v-8z" stroke="none" fill="#fff"/></g></svg>