<?xml version="1.0" standalone="no"?><!DOCTYPE svg PUBLIC "-//W3C//DTD SVG 1.1//EN" "http://www.w3.org/Graphics/SVG/1.1/DTD/svg11.dtd"><svg xmlns="http://www.w3.org/2000/svg" version="1.1" width="170px" height="36.5px" viewBox="0 -1 170 36.5" style="top:-1px"><desc>텍스트 B</desc><defs/><g id="Polygon7625"><path d="m19.6 20.7h-1.4V9.3h1.6l5.9 9.2V9.3h1.4v11.4h-1.5l-6-9.4v9.4zm11.8-5.9c0-1.1.2-2.1.6-3c.5-.9 1.1-1.5 1.9-2c.8-.5 1.7-.8 2.7-.8c1.1 0 2 .3 2.8.8c.8.5 1.4 1.1 1.8 2c.5.9.7 1.9.7 3v.3c0 1.1-.2 2.1-.7 3c-.4.9-1 1.5-1.8 2c-.8.5-1.7.8-2.8.8c-1 0-1.9-.3-2.7-.8c-.8-.5-1.4-1.1-1.9-2c-.4-.9-.6-1.9-.6-3v-.3zm1.4.3c0 .9.2 1.7.5 2.4c.3.7.7 1.3 1.3 1.7c.6.4 1.3.6 2 .6c.8 0 1.4-.2 2-.6c.6-.4 1-1 1.3-1.7c.4-.7.5-1.5.5-2.4v-.3c0-.9-.1-1.7-.5-2.4c-.3-.7-.7-1.3-1.3-1.7c-.6-.3-1.2-.5-2-.5c-.7 0-1.4.2-2 .5c-.6.4-1 1-1.3 1.7c-.3.7-.5 1.5-.5 2.4v.3zm13.3-5.8h1.3s.05 7.14 0 7.1c0 1.1.3 1.9.8 2.5c.6.6 1.3.8 2.3.8c1 0 1.8-.2 2.3-.8c.5-.6.7-1.4.7-2.5c.04.04 0-7.1 0-7.1h1.3s.04 7.2 0 7.2c0 .9-.1 1.6-.5 2.3c-.3.6-.8 1.1-1.5 1.5c-.7.4-1.4.6-2.4.6c-.9 0-1.6-.2-2.3-.6c-.7-.4-1.2-.9-1.5-1.5c-.4-.7-.5-1.4-.5-2.3c-.05 0 0-7.2 0-7.2zm12.8 5.5c0-1.1.2-2.1.7-3c.4-.8 1.1-1.5 1.9-2c.8-.5 1.8-.8 2.9-.8c.7 0 1.4.2 2.1.5c.7.2 1.3.6 1.7 1v1.7c-.4-.7-1-1.1-1.7-1.5c-.6-.4-1.4-.5-2.1-.5c-.8 0-1.5.2-2.1.6c-.6.4-1.1.9-1.4 1.7c-.4.7-.5 1.4-.5 2.3v.2c0 .9.1 1.7.5 2.4c.3.8.8 1.3 1.3 1.7c.6.5 1.3.7 2 .7c.8 0 1.4-.2 2-.6c.5-.3.9-.8 1.2-1.4c.3-.7.5-1.4.5-2.2h-3.5v-1.1h4.9s-.04 1.13 0 1.1c0 1-.2 1.9-.6 2.7c-.5.8-1 1.4-1.8 1.9c-.8.5-1.6.7-2.7.7c-1 0-1.9-.3-2.7-.8c-.8-.5-1.5-1.1-1.9-2c-.5-.9-.7-1.9-.7-3.1v-.2zm14.4 5.9h-1.4l4.3-11.4h1.4l4.3 11.4h-1.5l-1.2-3.3h-4.7l-1.2 3.3zm3.5-9.7l-1.9 5.2h3.9l-2-5.2zm10.3-.6h-3.5V9.3h8.4v1.1h-3.5v10.3h-1.4V10.4zm20.8 4.3c.6.2 1.1.5 1.6 1c.4.4.6 1 .6 1.7v.2c0 .6-.2 1.2-.5 1.6c-.3.5-.8.9-1.3 1.1c-.6.2-1.2.4-1.9.4c0-.04-4.2 0-4.2 0V9.3s3.99-.04 4 0c.7 0 1.2.1 1.8.3c.5.3.9.6 1.2 1.1c.3.4.4.9.4 1.5v.1c0 .6-.2 1.1-.5 1.5c-.3.4-.7.7-1.2.9zm-4.4-4.3v3.8s2.49.02 2.5 0c.6 0 1.2-.1 1.6-.5c.4-.3.6-.8.6-1.3v-.2c0-.5-.2-.9-.6-1.3c-.4-.3-1-.5-1.6-.5h-2.5zm5.1 7c0-.7-.2-1.1-.7-1.5c-.4-.4-1-.5-1.7-.5c0-.04-2.7 0-2.7 0v4.1s2.7.02 2.7 0c.7 0 1.3-.2 1.7-.5c.5-.3.7-.8.7-1.4v-.2zm12.5 3.3h-6.9V9.3h6.8v1.1h-5.4v3.8h4.6v1.2h-4.6v4.1h5.5v1.2zm5.7 0h-1.4V9.3h1.4v11.4zm4.1-5.9c0-1.1.2-2.1.7-3c.4-.8 1.1-1.5 1.9-2c.8-.5 1.8-.8 2.9-.8c.7 0 1.4.2 2.1.5c.7.2 1.3.6 1.7 1v1.7c-.4-.7-1-1.1-1.7-1.5c-.6-.4-1.4-.5-2.1-.5c-.8 0-1.5.2-2.1.6c-.6.4-1.1.9-1.4 1.7c-.4.7-.5 1.4-.5 2.3v.2c0 .9.1 1.7.5 2.4c.3.8.8 1.3 1.3 1.7c.6.5 1.3.7 2 .7c.8 0 1.4-.2 2-.6c.5-.3.9-.8 1.2-1.4c.3-.7.5-1.4.5-2.2h-3.5v-1.1h4.9s-.04 1.13 0 1.1c0 1-.2 1.9-.7 2.7c-.4.8-.9 1.4-1.7 1.9c-.8.5-1.6.7-2.7.7c-1 0-1.9-.3-2.7-.8c-.8-.5-1.5-1.1-1.9-2c-.5-.9-.7-1.9-.7-3.1v-.2zm21.3 5.9h-6.9V9.3h6.8v1.1h-5.4v3.8h4.6v1.2h-4.6v4.1h5.5v1.2z" stroke="none" fill="#fff"/></g></svg>