<?xml version="1.0" standalone="no"?><!DOCTYPE svg PUBLIC "-//W3C//DTD SVG 1.1//EN" "http://www.w3.org/Graphics/SVG/1.1/DTD/svg11.dtd"><svg xmlns="http://www.w3.org/2000/svg" version="1.1" width="575px" height="31.2px" viewBox="0 -6 575 31.2" style="top:-6px"><desc>텍스트 B</desc><defs/><g id="Polygon7229"><path d="m247 15.1h-2.3V1.5h3.2l3.8 9.4l3.9-9.4h2.9v13.6h-2.4V5.2l-4 9.9h-1L247 5.3v9.8zm16.3-11.3H261V1.4h2.3v2.4zm0 11.3H261V5.3h2.3v9.8zm2.3 0V5.3h2.2s.13 1.43.1 1.4c.4-.4.8-.8 1.4-1.2c.5-.3 1.1-.5 1.8-.5c1.1 0 1.9.4 2.5 1c.6.6.9 1.5.9 2.7c.02.01 0 6.4 0 6.4h-2.3V8.7c0-1.2-.5-1.9-1.5-1.9c-.6 0-1.2.3-1.7.7c-.5.5-.9 1-1.1 1.6c.03.04 0 6 0 6h-2.3zm10.5-4.9c0-1 .2-1.9.5-2.7c.4-.8 1-1.4 1.6-1.8c.7-.4 1.5-.7 2.3-.7c.5 0 1.1.2 1.6.4c.5.2.9.5 1.3 1v-5h2.3v13.7h-2.2l-.1-1.1c-.3.4-.7.7-1.2 1c-.6.3-1.1.4-1.7.4c-.8 0-1.6-.2-2.3-.6c-.6-.4-1.2-1-1.6-1.8c-.3-.8-.5-1.7-.5-2.8zm2.4 0c0 .8.1 1.4.3 1.9c.3.5.6.9 1 1.1c.3.3.8.4 1.2.4c.5 0 1-.1 1.4-.4c.4-.3.8-.7 1-1.1V8.4c-.2-.5-.6-.9-1-1.2c-.4-.2-.9-.4-1.4-.4c-.4 0-.8.1-1.2.4c-.4.3-.7.6-1 1.2c-.2.5-.3 1.1-.3 1.8zm13.7-2.1c0-1.3.3-2.5.8-3.5c.6-1.1 1.4-1.9 2.4-2.5c1-.6 2.3-.9 3.7-.9c.7 0 1.5.1 2.3.4c.7.2 1.4.5 1.9.9v2.8c-.6-.7-1.2-1.2-1.9-1.6c-.6-.4-1.4-.5-2.3-.5c-.8 0-1.5.2-2.1.6c-.7.4-1.2 1-1.6 1.7c-.4.8-.6 1.7-.6 2.6v.4c0 .9.2 1.8.6 2.6c.4.7.9 1.3 1.6 1.7c.6.4 1.4.6 2.1.6c.9 0 1.7-.1 2.3-.5c.7-.4 1.3-.9 1.9-1.6v2.8c-.5.4-1.2.7-1.9.9c-.8.3-1.6.4-2.3.4c-1.4 0-2.7-.3-3.7-.9c-1-.6-1.8-1.4-2.4-2.5c-.5-1-.8-2.2-.8-3.5v-.4zm12.4 4.3c0-.8.2-1.4.6-1.9c.4-.4.9-.7 1.5-1c.6-.2 1.3-.3 2.1-.5l2.1-.3c-.1-1.3-.9-1.9-2.4-1.9c-.5 0-1.1.1-1.6.4c-.6.3-1 .7-1.4 1.2V6.2c.9-.8 2.1-1.2 3.5-1.2c1.2 0 2.3.4 3 1c.8.7 1.2 1.7 1.2 3.1c.02.01 0 6 0 6h-1.9s-.24-1.1-.2-1.1c-.5.5-1 .8-1.6 1.1c-.5.2-1.1.3-1.8.3c-.9 0-1.7-.3-2.3-.8c-.5-.5-.8-1.3-.8-2.2zm2.3-.1c0 .4.1.7.4.9c.2.2.5.4.9.4c.6 0 1.1-.2 1.6-.6c.5-.3.9-.8 1.1-1.3c.04 0 0-1.4 0-1.4c0 0-1.13.23-1.1.2c-.9.2-1.4.3-1.8.4c-.3.2-.6.3-.8.5c-.2.2-.3.5-.3.9zm8.5 2.8V5.3h2.2s.07 1.63.1 1.6c.2-.5.5-1 1.1-1.3c.5-.4 1.1-.6 1.8-.6c.3 0 .6.1.8.1v2.1c-.3-.1-.6-.1-.9-.1c-.6 0-1.2.2-1.8.5c-.5.4-.8 1-1 1.6v5.9h-2.3zm6.5-5.1c0-.9.2-1.8.6-2.5c.4-.8 1-1.4 1.7-1.8c.7-.4 1.5-.7 2.4-.7c1.4 0 2.5.5 3.3 1.4c.8.9 1.2 2.2 1.2 3.7c-.02.03 0 .9 0 .9c0 0-6.88.03-6.9 0c.1.9.4 1.5.9 2c.4.4 1.1.6 1.9.6c.6 0 1.2-.1 1.8-.3c.5-.2 1.1-.6 1.6-1.2v2.2c-.4.4-.9.6-1.5.8c-.7.2-1.3.3-2 .3c-1 0-1.9-.2-2.7-.6c-.7-.5-1.3-1-1.7-1.8c-.4-.8-.6-1.6-.6-2.6v-.4zm6.9-.7c0-.8-.2-1.4-.6-1.9c-.4-.4-1-.6-1.6-.6c-.7 0-1.2.2-1.6.7c-.5.4-.7 1-.8 1.8h4.6z" stroke="none" fill="#fff"/></g></svg>