<?xml version="1.0" standalone="no"?><!DOCTYPE svg PUBLIC "-//W3C//DTD SVG 1.1//EN" "http://www.w3.org/Graphics/SVG/1.1/DTD/svg11.dtd"><svg xmlns="http://www.w3.org/2000/svg" version="1.1" width="575px" height="32.2px" viewBox="0 -6 575 32.2" style="top:-6px"><desc>텍스트 B</desc><defs/><g id="Polygon7107"><path d="m2.1 1.5H.4l3.5 13.7h2L8.7 3.8l2.8 11.4h2L17 1.5h-1.6l-2.8 11.4L9.8 1.5H7.7L4.9 13L2.1 1.5zm15 8.6c0-.9.2-1.8.6-2.6c.4-.8.9-1.4 1.6-1.8c.7-.4 1.5-.6 2.4-.6c.9 0 1.7.2 2.4.6c.7.4 1.2 1 1.6 1.8c.4.8.6 1.7.6 2.6v.3c0 1-.2 1.9-.6 2.7c-.4.7-.9 1.3-1.6 1.7c-.7.5-1.5.7-2.4.7c-.9 0-1.7-.2-2.4-.7c-.7-.4-1.2-1-1.6-1.7c-.4-.8-.6-1.7-.6-2.7v-.3zm1.6.3c0 1.2.3 2.1.8 2.8c.6.7 1.3 1 2.2 1c.9 0 1.6-.3 2.2-1c.5-.7.8-1.6.8-2.8v-.3c0-1.1-.3-2-.8-2.7c-.6-.7-1.3-1-2.2-1c-.9 0-1.6.3-2.2 1c-.5.7-.8 1.6-.8 2.7v.3zm9.5 4.8V5.4h1.4s.17 1.94.2 1.9c.3-.6.8-1.1 1.4-1.5c.6-.5 1.3-.7 2.1-.7c1 0 1.8.3 2.4.9c.5.7.8 1.6.8 2.7v6.5h-1.6V8.9c0-.9-.1-1.5-.4-1.9c-.3-.4-.8-.6-1.5-.6c-.4 0-.9.1-1.3.4c-.5.3-.9.7-1.2 1.1c-.3.5-.6 1-.7 1.5v5.8h-1.6zm10-4.9c0-1.1.2-2 .6-2.8c.3-.7.8-1.3 1.5-1.8c.7-.4 1.4-.6 2.2-.6c.6 0 1.2.2 1.8.5c.5.3 1 .7 1.4 1.2c-.03.02 0-5.4 0-5.4h1.5v13.8h-1.4s-.12-1.54-.1-1.5c-.4.5-.8.9-1.4 1.3c-.5.3-1.1.5-1.8.5c-.8 0-1.5-.3-2.2-.7c-.7-.4-1.2-1-1.5-1.8c-.4-.8-.6-1.7-.6-2.7zm1.7 0c0 .8.1 1.5.3 2.1c.3.6.6 1 1.1 1.3c.4.3.9.5 1.5.5c.6 0 1.2-.2 1.7-.7c.5-.4.9-1 1.2-1.6V8.7C45.4 8 45 7.4 44.5 7c-.5-.4-1.1-.6-1.7-.6c-.6 0-1.1.1-1.5.4c-.5.3-.8.8-1.1 1.4c-.2.6-.3 1.3-.3 2.1zm9.2-.3c0-.9.2-1.8.6-2.5c.4-.8.9-1.4 1.5-1.8c.7-.4 1.5-.6 2.3-.6c1.4 0 2.4.4 3.1 1.3c.8.9 1.2 2.1 1.2 3.8c-.04-.05 0 .6 0 .6h-7.1c.1 1 .4 1.8.9 2.4c.5.7 1.2 1 2.1 1c1.4 0 2.6-.5 3.5-1.5v1.6c-.4.4-.9.7-1.5.9c-.5.2-1.2.3-2 .3c-.9 0-1.8-.2-2.4-.7c-.7-.4-1.3-1-1.6-1.7c-.4-.8-.6-1.7-.6-2.7v-.4zm7.1-.4c0-1.1-.3-1.9-.8-2.4c-.4-.6-1.1-.8-1.9-.8c-.5 0-.9.1-1.3.3c-.4.3-.8.7-1 1.2c-.3.4-.4 1-.5 1.7h5.5zm3.5 5.6V5.4h1.4s.12 1.67.1 1.7c.3-.6.7-1.1 1.2-1.5c.5-.3 1.1-.5 1.8-.5h.5c.2.1.3.1.4.1v1.4c-.3-.1-.6-.1-1-.1c-.7 0-1.2.2-1.7.6c-.6.4-.9 1-1.1 1.7c-.05 0 0 6.4 0 6.4h-1.6zm6.1-8.6V5.4h2s-.05-1.01 0-1c0-.6.1-1.2.3-1.7c.2-.5.6-.9 1-1.2c.5-.3 1.1-.5 1.7-.5c.5 0 .9.1 1.3.3v1.4c-.3-.2-.7-.3-1.2-.3c-.5 0-.8.1-1.1.5c-.3.3-.4.8-.4 1.5c-.05.01 0 1 0 1h2.3v1.2h-2.3v8.6h-1.6V6.6h-2zm7.4 5.2c0 1.2.3 2.1.9 2.7c.5.6 1.3 1 2.3 1c.8 0 1.5-.3 2.1-.7c.6-.4 1.1-1 1.5-1.6c-.04.01.1 2 .1 2h1.4V5.4h-1.6s.04 5.76 0 5.8c-.1.5-.3 1-.7 1.4c-.3.5-.7.9-1.1 1.2c-.5.2-.9.4-1.4.4c-.7 0-1.2-.2-1.4-.6c-.3-.5-.5-1.1-.5-1.9c.03 0 0-6.3 0-6.3h-1.6s.04 6.43 0 6.4zm12.5 3.4h-1.6V1.4h1.6v13.8zm7.4 0V1.5h4.2c1.3 0 2.4.3 3.4.9c1 .6 1.8 1.4 2.3 2.4c.6 1 .9 2.1.9 3.4v.3c0 1.3-.3 2.4-.9 3.4c-.5 1-1.3 1.8-2.3 2.4c-1 .6-2.1.9-3.4.9h-4.2zm4.1-1.4c1 0 1.8-.2 2.5-.6c.8-.5 1.4-1.1 1.8-1.9c.4-.8.6-1.8.6-2.8v-.3c0-1.1-.2-2-.6-2.8c-.4-.8-1-1.4-1.8-1.9c-.7-.4-1.5-.6-2.5-.6c.02-.02-2.5 0-2.5 0v10.9s2.52.02 2.5 0zm7.9-1.2c0-.7.2-1.2.6-1.7c.3-.4.7-.7 1.3-.9c.5-.3 1.3-.5 2.3-.7l2.4-.4c0-.9-.2-1.5-.6-1.9c-.5-.5-1.1-.7-2-.7c-.6 0-1.2.2-1.8.5c-.5.3-1 .6-1.4 1.1V6.4c.4-.4.9-.7 1.5-.9c.5-.3 1.2-.4 1.9-.4c1.2 0 2.2.3 2.9.9c.7.7 1.1 1.6 1.1 2.9v6.3h-1.2s-.32-1.52-.3-1.5c-.5.5-1 1-1.6 1.3c-.7.3-1.3.5-2.1.5c-.9 0-1.6-.3-2.1-.8c-.6-.5-.9-1.2-.9-2.1zm1.6-.1c0 .6.2 1 .5 1.2c.3.3.7.5 1.2.5c.7 0 1.3-.2 1.9-.6c.6-.4 1.1-.9 1.4-1.6c.04.01 0-1.9 0-1.9c0 0-1.6.32-1.6.3c-.9.2-1.6.3-2 .5c-.5.1-.8.3-1 .6c-.3.3-.4.6-.4 1zm11.8 2.7l-3.9-9.8h1.8l3 7.8l3-7.8h1.6l-5.5 13.8h-1.7l1.7-4z" stroke="none" fill="#6d6e71"/></g></svg>