<?xml version="1.0" standalone="no"?><!DOCTYPE svg PUBLIC "-//W3C//DTD SVG 1.1//EN" "http://www.w3.org/Graphics/SVG/1.1/DTD/svg11.dtd"><svg xmlns="http://www.w3.org/2000/svg" version="1.1" width="170px" height="36.8px" viewBox="0 -1 170 36.8" style="top:-1px"><desc>텍스트 B</desc><defs/><g id="Polygon7553"><path d="m15.6 18.1c.3.6.8 1 1.5 1.4c.6.4 1.2.5 1.9.5c.6 0 1-.1 1.4-.3c.4-.1.7-.4.9-.7c.2-.3.3-.7.3-1c0-.5-.2-.9-.5-1.3c-.3-.3-.7-.7-1.4-1l-1.7-.9c-.7-.4-1.3-.8-1.7-1.3c-.4-.5-.6-1.1-.6-1.9c0-.5.2-1 .4-1.5c.3-.5.8-.8 1.3-1.1c.5-.3 1.2-.4 1.9-.4c.6 0 1.2.1 1.8.4c.6.2 1.1.6 1.5.9v1.8c-.4-.6-.9-1-1.5-1.4c-.6-.3-1.2-.5-1.8-.5c-.6 0-1.1.2-1.5.5c-.4.3-.6.8-.6 1.3c0 .4.2.7.4 1c.3.3.8.6 1.4 1l1.7.9c.8.4 1.4.9 1.8 1.4c.4.6.6 1.2.6 2c0 .7-.2 1.2-.5 1.7c-.3.5-.8.9-1.4 1.2c-.6.3-1.3.4-2.2.4c-.7 0-1.4-.1-2-.4c-.6-.2-1.1-.5-1.4-.9v-1.8zM28.3 21h-1.5V8.8h1.9l4 9.6l4-9.6h1.8V21H37v-9.6L32.9 21h-.6l-4-9.6v9.6zm13.9-6.3c0-1.2.2-2.2.7-3.1c.4-1 1.1-1.7 1.9-2.2c.9-.5 1.9-.8 3-.8c1.1 0 2.1.3 2.9.8c.9.5 1.5 1.2 2 2.2c.5.9.7 1.9.7 3.1v.4c0 1.1-.2 2.2-.7 3.2c-.5.9-1.1 1.6-2 2.2c-.8.5-1.8.7-2.9.7c-1.1 0-2.1-.2-3-.7c-.8-.6-1.5-1.3-1.9-2.3c-.5-.9-.7-2-.7-3.1v-.4zm1.5.4c0 .9.2 1.8.5 2.6c.4.7.8 1.3 1.4 1.7c.7.4 1.4.6 2.2.6c.8 0 1.5-.2 2.1-.6c.6-.4 1.1-1 1.4-1.7c.4-.8.5-1.7.5-2.6v-.4c0-.9-.1-1.8-.5-2.5c-.3-.8-.8-1.4-1.4-1.8c-.6-.4-1.3-.6-2.1-.6c-.8 0-1.5.2-2.2.6c-.6.4-1 1-1.4 1.8c-.3.7-.5 1.6-.5 2.5v.4zM58.6 21h-1.5V8.8h1.5v5.6l5.6-5.6h1.9l-6.1 6l6.4 6.2h-2.2l-5.6-5.7v5.7zm18.2 0h-7.4V8.8h7.3v1.3h-5.8v4h4.9v1.3h-4.9v4.4h5.9v1.2zm7-4.6l-4.4-7.6h1.7l3.5 6.1l3.5-6.1h1.6l-4.4 7.5v4.7h-1.5v-4.6zm21-1.8c.7.2 1.2.6 1.7 1.1c.4.5.7 1.1.7 1.8v.2c0 .7-.2 1.3-.6 1.8c-.3.5-.8.9-1.4 1.1c-.6.3-1.2.4-2 .4h-4.5V8.8s4.31.04 4.3 0c.7 0 1.4.2 1.9.4c.6.3 1 .7 1.3 1.1c.3.5.4 1 .4 1.6v.2c0 .6-.1 1.1-.5 1.6c-.3.4-.8.7-1.3.9zm-4.6-4.5v4s2.6.04 2.6 0c.7 0 1.3-.1 1.7-.5c.4-.4.6-.8.6-1.4v-.2c0-.5-.2-1-.6-1.4c-.4-.4-1-.5-1.7-.5c0-.04-2.6 0-2.6 0zm5.4 7.4c0-.7-.2-1.2-.7-1.6c-.5-.4-1.1-.5-1.9-.5c.02-.04-2.8 0-2.8 0v4.4h2.8c.8 0 1.4-.2 1.9-.6c.5-.3.7-.8.7-1.5v-.2zm12.3 3.5h-7.1V8.8h1.5v11h5.6v1.2zm3.7 0h-1.5l4.6-12.2h1.4l4.6 12.2h-1.5l-1.3-3.5h-5l-1.3 3.5zm3.8-10.3l-2.1 5.6h4.1l-2-5.6zm7.4 4.1c0-1.2.2-2.3.7-3.2c.5-1 1.1-1.7 2-2.2c.9-.5 1.8-.8 2.9-.8c.8 0 1.6.1 2.2.4c.7.3 1.3.6 1.7 1.1v1.7c-.5-.6-1-1.1-1.7-1.5c-.6-.3-1.3-.5-2.1-.5c-.8 0-1.5.2-2.1.6c-.7.5-1.2 1-1.5 1.8c-.4.7-.6 1.6-.6 2.6v.3c0 .9.2 1.8.6 2.5c.3.8.8 1.4 1.5 1.8c.6.4 1.3.6 2 .6c.8 0 1.6-.1 2.2-.5c.7-.3 1.2-.8 1.7-1.4v1.7c-.4.4-1 .8-1.7 1c-.7.3-1.4.4-2.2.4c-1.1 0-2-.2-2.9-.7c-.9-.6-1.5-1.3-2-2.2c-.5-1-.7-2-.7-3.2v-.3zm14.7 6.2H146V8.8h1.5v5.6l5.7-5.6h1.9l-6.1 6l6.3 6.2h-2.1l-5.7-5.7v5.7z" stroke="none" fill="#fff"/></g></svg>