<?xml version="1.0" standalone="no"?><!DOCTYPE svg PUBLIC "-//W3C//DTD SVG 1.1//EN" "http://www.w3.org/Graphics/SVG/1.1/DTD/svg11.dtd"><svg xmlns="http://www.w3.org/2000/svg" version="1.1" width="68px" height="43.1px" viewBox="0 -8 68 43.1" style="top:-8px"><desc>black</desc><defs/><g id="Polygon7402"><path d="m2.2 21.6V1.7h1.8s-.02 8.13 0 8.1c.5-.8 1.2-1.5 2-2c.9-.5 1.7-.8 2.7-.8c1.2 0 2.2.3 3.2.9c.9.7 1.6 1.5 2.2 2.7c.5 1.1.7 2.4.7 3.9c0 1.5-.2 2.8-.7 3.9c-.6 1.2-1.3 2-2.2 2.7c-1 .6-2 .9-3.2.9c-1 0-1.9-.3-2.7-.8c-.8-.5-1.5-1.2-2-2.1c-.05.04-.2 2.5-.2 2.5H2.2zm1.8-5c.3 1.1.9 2.1 1.8 2.8c.8.8 1.8 1.1 2.7 1.1c.9 0 1.7-.2 2.4-.7c.7-.5 1.2-1.2 1.6-2.1c.3-1 .5-2 .5-3.2c0-1.2-.2-2.2-.5-3.2c-.4-.9-.9-1.6-1.6-2.1c-.7-.5-1.5-.7-2.4-.7c-.9 0-1.9.4-2.7 1.1c-.9.8-1.5 1.7-1.8 2.8v4.2zm16 5h-1.8V1.7h1.8v19.9zm3.4-3.6c0-.9.2-1.7.6-2.4c.4-.5 1-1 1.8-1.3c.8-.3 2-.6 3.5-.9l3.8-.8c0-1.4-.3-2.4-.9-3.1c-.7-.7-1.7-1-3-1c-1 0-1.9.2-2.7.6c-.8.4-1.5 1-2.1 1.6V8.9c.6-.5 1.3-1 2.1-1.3c.8-.4 1.7-.6 2.7-.6c1.8 0 3.2.5 4.2 1.3c.9.9 1.4 2.2 1.4 3.9c.04.02 0 9.4 0 9.4h-1.3l-.4-2.4c-.6.8-1.4 1.5-2.4 2c-1 .5-2 .8-3.1.8c-1.3 0-2.3-.4-3.1-1c-.7-.7-1.1-1.7-1.1-3zm1.8-.1c0 .9.2 1.5.7 2c.5.4 1.2.6 2 .6c1 0 1.9-.3 2.9-.8c.9-.6 1.7-1.5 2.3-2.5v-3.1l-2.7.5l-.6.1c-1.1.2-2 .4-2.7.6c-.6.2-1.1.6-1.5 1c-.3.4-.4.9-.4 1.6zm12.9-3.7c0-1.4.3-2.6.8-3.7c.6-1.1 1.4-2 2.4-2.6c1-.6 2.2-.9 3.4-.9c.8 0 1.6.2 2.3.5c.8.3 1.4.7 1.9 1.3v1.9c-1.1-1.5-2.6-2.2-4.3-2.2c-.9 0-1.7.2-2.4.7c-.7.5-1.3 1.2-1.7 2c-.4.9-.6 1.9-.6 3v.5c0 1.1.2 2.1.6 3c.4.9 1 1.6 1.7 2.1c.7.5 1.5.7 2.4.7c1.7 0 3.2-.7 4.3-2.2v2c-.5.5-1.1.9-1.9 1.2c-.7.3-1.5.5-2.3.5c-1.2 0-2.4-.3-3.4-.9c-1-.6-1.8-1.5-2.4-2.6c-.5-1.1-.8-2.4-.8-3.8v-.5zm16.1 7.4h-1.8V1.7h1.8V14l7.1-6.6h2.3l-7.4 6.9l8 7.3h-2.6l-7.4-6.8v6.8z" stroke="none" fill="#fff"/></g></svg>