<?xml version="1.0" standalone="no"?><!DOCTYPE svg PUBLIC "-//W3C//DTD SVG 1.1//EN" "http://www.w3.org/Graphics/SVG/1.1/DTD/svg11.dtd"><svg xmlns="http://www.w3.org/2000/svg" version="1.1" width="390px" height="91.3px" viewBox="0 -2 390 91.3" style="top:-2px"><desc>교통사고 유자녀의 학업 지원을 위한 장학기금으로 2012년부터 노사합의로 매년 5억 원 상당의 기금을 조성해 운영하고 있다. 2021년에는 총 184명의 초·중·고등학생과 대학생에게 위로와 도움의 손길을 건넸다...</desc><defs/><g id="Polygon123524"><path d="m2.6 82.1h3v.8H.5v-.6s2.62-2.5 2.6-2.5l.6-.6c.1-.2.3-.4.4-.6c.1-.1.2-.3.3-.5c0-.2.1-.4.1-.7c0-.4-.2-.7-.4-.9c-.3-.3-.6-.4-1-.4c-.2 0-.4.1-.6.1c-.2.1-.3.2-.5.3c-.1.2-.2.3-.3.5c-.1.2-.1.4-.1.6l-.9-.2c0-.3.1-.6.3-.9c.1-.2.3-.4.5-.6c.2-.2.5-.3.8-.4c.2-.1.5-.2.9-.2c.3 0 .6.1.8.2c.3.1.6.2.8.4c.2.2.3.4.4.6c.2.3.2.6.2.9c0 .3 0 .6-.1.8c-.1.2-.2.5-.3.7c-.2.2-.4.4-.5.6c-.2.2-.4.5-.6.7l-2.1 2c.1 0 .3 0 .4-.1h.4zm3.5 1.6l.3-2.1h1l-.6 2.1h-.7zm7.3-4.5c0 .7-.1 1.2-.2 1.7c-.2.5-.3.9-.6 1.2c-.2.4-.5.6-.9.7c-.3.2-.7.3-1 .3c-.4 0-.8-.1-1.1-.3c-.4-.1-.6-.3-.9-.7c-.2-.3-.4-.7-.6-1.2c-.1-.5-.2-1-.2-1.7c0-.7.1-1.2.2-1.7c.2-.5.4-.9.6-1.2c.3-.3.5-.6.9-.7c.3-.2.7-.3 1.1-.3c.3 0 .7.1 1 .3c.4.1.7.4.9.7c.3.3.4.7.6 1.2c.1.5.2 1 .2 1.7zm-.9 0c0-.6-.1-1.1-.2-1.5c-.1-.4-.2-.7-.4-.9c-.1-.3-.3-.4-.6-.5c-.2-.1-.4-.2-.6-.2c-.3 0-.5.1-.7.2c-.2.1-.4.2-.6.5c-.2.2-.3.5-.4.9c-.1.4-.1.9-.1 1.5c0 .6 0 1.1.1 1.5c.1.4.2.7.4.9c.2.3.4.5.6.6c.2.1.4.1.7.1c.2 0 .4 0 .6-.1c.3-.1.5-.3.6-.6c.2-.2.3-.5.4-.9c.1-.4.2-.9.2-1.5zm6.8 0c0 .7-.1 1.2-.2 1.7c-.2.5-.4.9-.6 1.2c-.3.4-.6.6-.9.7c-.3.2-.7.3-1.1.3c-.4 0-.7-.1-1-.3c-.4-.1-.7-.3-.9-.7c-.3-.3-.5-.7-.6-1.2c-.1-.5-.2-1-.2-1.7c0-.7.1-1.2.2-1.7c.1-.5.3-.9.6-1.2c.2-.3.5-.6.9-.7c.3-.2.6-.3 1-.3c.4 0 .8.1 1.1.3c.3.1.6.4.9.7c.2.3.4.7.6 1.2c.1.5.2 1 .2 1.7zm-1 0c0-.6 0-1.1-.1-1.5c-.1-.4-.2-.7-.4-.9c-.2-.3-.4-.4-.6-.5c-.2-.1-.4-.2-.7-.2c-.2 0-.4.1-.6.2c-.3.1-.5.2-.6.5c-.2.2-.3.5-.4.9c-.1.4-.2.9-.2 1.5c0 .6.1 1.1.2 1.5c.1.4.2.7.4.9c.1.3.3.5.6.6c.2.1.4.1.6.1c.3 0 .5 0 .7-.1c.2-.1.4-.3.6-.6c.2-.2.3-.5.4-.9c.1-.4.1-.9.1-1.5zm6.9 0c0 .7-.1 1.2-.3 1.7c-.1.5-.3.9-.5 1.2c-.3.4-.6.6-.9.7c-.3.2-.7.3-1.1.3c-.4 0-.7-.1-1.1-.3c-.3-.1-.6-.3-.8-.7c-.3-.3-.5-.7-.6-1.2c-.2-.5-.2-1-.2-1.7c0-.7 0-1.2.2-1.7c.1-.5.3-.9.6-1.2c.2-.3.5-.6.8-.7c.4-.2.7-.3 1.1-.3c.4 0 .8.1 1.1.3c.3.1.6.4.9.7c.2.3.4.7.5 1.2c.2.5.3 1 .3 1.7zm-1 0c0-.6 0-1.1-.1-1.5c-.1-.4-.3-.7-.4-.9c-.2-.3-.4-.4-.6-.5c-.2-.1-.5-.2-.7-.2c-.2 0-.5.1-.7.2c-.2.1-.4.2-.5.5c-.2.2-.3.5-.4.9c-.1.4-.2.9-.2 1.5c0 .6.1 1.1.2 1.5c.1.4.2.7.4.9c.1.3.3.5.5.6c.2.1.5.1.7.1c.2 0 .5 0 .7-.1c.2-.1.4-.3.6-.6c.1-.2.3-.5.4-.9c.1-.4.1-.9.1-1.5zm8.3-4.7h.8v9.2h-.8v-3.5s-2.32-.04-2.3 0c-.2.4-.5.8-.8 1c-.3.3-.7.4-1.2.4c-.3 0-.6 0-.9-.2c-.3-.1-.5-.4-.7-.6c-.2-.3-.4-.7-.5-1c-.1-.4-.2-.9-.2-1.4c0-.5.1-.9.2-1.3c.1-.4.3-.7.5-1c.2-.3.4-.5.7-.6c.3-.2.6-.3.9-.3c.4 0 .8.2 1.1.4c.4.2.6.6.8 1h2.4v-2.1zm-4.3 6.4c.2 0 .4-.1.6-.2c.2-.1.3-.3.5-.5c.1-.2.2-.5.3-.8c.1-.3.1-.6.1-1c0-.3 0-.7-.1-1c-.1-.3-.2-.5-.3-.7c-.2-.2-.3-.4-.5-.5c-.2-.1-.4-.2-.6-.2c-.2 0-.4.1-.6.2c-.2.1-.3.3-.5.5c-.1.2-.2.4-.3.7c0 .3-.1.7-.1 1c0 .4.1.7.1 1c.1.3.2.6.3.8c.2.2.3.4.5.5c.2.1.4.2.6.2zm2.3-2.5c0 .5 0 .8-.1 1.1c-.01-.02 2.1 0 2.1 0v-2.2s-2.15-.03-2.1 0c0 .2 0 .3.1.5v.6zm11.1.1v.8h-4.2v-4.1h4.2v.8h2.1v-1.4h.9v5.4h-.9v-1.5h-2.1zm-.8.1v-2.7h-2.5v2.7h2.5zm2.9-1.9h-2.1v1.1h2.1v-1.1zm-2.2 3.5c1 0 1.7.2 2.3.5c.5.3.8.7.8 1.3c0 .2-.1.5-.2.7c-.2.2-.4.4-.6.5c-.3.2-.6.3-1 .4c-.4 0-.8.1-1.3.1c-.4 0-.9-.1-1.2-.1c-.4-.1-.7-.2-1-.4c-.3-.1-.5-.3-.6-.5c-.1-.2-.2-.5-.2-.7c0-.3.1-.6.2-.8c.1-.2.3-.4.6-.5c.3-.2.6-.3 1-.4c.3 0 .8-.1 1.2-.1zm0 2.8c.7 0 1.3-.1 1.7-.2c.4-.2.6-.5.6-.8c0-.4-.2-.7-.6-.8c-.4-.2-1-.3-1.7-.3c-.7 0-1.2.1-1.6.3c-.4.1-.6.4-.6.8c0 .3.2.6.6.8c.4.1.9.2 1.6.2zm11.7-8.5h.8v9.2h-.8v-9.2zm-1.8 3.6v-3.4h.8v8.5h-.8v-4.4s-1.19-.02-1.2 0c0 .4-.1.8-.2 1.2c-.1.3-.2.7-.4.9c-.1.3-.3.4-.6.6c-.2.1-.4.2-.7.2c-.3 0-.6-.1-.8-.2c-.3-.2-.5-.4-.7-.7c-.1-.3-.3-.6-.3-1c-.1-.4-.2-.8-.2-1.3c0-.5.1-1 .2-1.3c0-.4.2-.8.3-1c.2-.3.4-.5.7-.7c.2-.1.5-.2.8-.2c.3 0 .5.1.7.2c.3.1.5.3.6.6c.2.2.3.5.4.8c.1.4.2.8.2 1.2h1.2zm-3.1 2.8c.3 0 .6-.2.8-.6c.3-.5.4-1.1.4-1.8c0-.4-.1-.7-.1-1c-.1-.3-.2-.6-.3-.8c-.1-.2-.2-.3-.3-.5c-.2-.1-.3-.1-.5-.1c-.4 0-.7.2-.9.6c-.2.5-.3 1-.3 1.8c0 .7.1 1.3.3 1.8c.2.4.5.6.9.6zm16.3-4.4h1.3v.7h-1.3v1.9h-.9v-4.6h.9v2zm-1.8 1.3l.1.7c-.4 0-.7.1-1 .1c-.3.1-.6.1-1 .1c-.3.1-.6.1-1 .1h-2v-3.7h4v.6h-3.2v2.4h2.2c.4-.1.7-.1 1-.1c.3-.1.6-.1.9-.2zm-3.2 4.1v1h5.3v.7h-6.1v-2.4h4.9v-.9h-4.9v-.7h5.8v2.3h-5zm12.5-6.2v.6h-5.4v-.6h2.3v-1.1h.8v1.1h2.3zm1.6 1.9h1.4v.7h-1.4v3.1h-.8v-6.8h.8v3zm-2.1.9c0 .3-.1.5-.2.7c-.1.3-.3.4-.4.6c-.2.1-.5.2-.7.3c-.3.1-.6.1-.9.1c-.4 0-.7 0-.9-.1c-.3-.1-.5-.2-.7-.3c-.2-.2-.3-.3-.5-.6c-.1-.2-.1-.4-.1-.7c0-.2 0-.5.1-.7l.5-.5c.2-.1.4-.3.7-.3c.2-.1.5-.2.9-.2c.3 0 .6.1.9.2c.2 0 .5.2.7.3c.1.2.3.3.4.5c.1.2.2.5.2.7zm-3.6 0c0 .4.1.6.4.8c.2.2.5.3 1 .3c.4 0 .7-.1 1-.3c.2-.2.4-.4.4-.8c0-.3-.2-.5-.4-.7c-.3-.2-.6-.3-1-.3c-.5 0-.8.1-1 .3c-.3.2-.4.4-.4.7zm.9 2.4v1.9h5.3v.7h-6.1v-2.6h.8zm15.5-2.7v.6h-1.5v4.9h-.9v-9.2h.9v3.7h1.5zm-7.3-2.1s-.05 4.61 0 4.6h2.1c.4-.1.7-.1 1-.1c.3-.1.6-.1 1-.2l.1.7c-.4.1-.7.1-1.1.2c-.3 0-.6 0-1 .1h-2.3c.04.03-.7 0-.7 0v-6h4.3v.7h-3.4zm7.8 7v-1h.9v1h-.9z" stroke="none" fill="#111111"/></g><g id="Polygon123523"><path d="m6 57.2v.6H.6v-.6h2.2v-1.1h.9v1.1h2.3zm1.6 1.9h1.4v.7H7.6v3.1h-.8v-6.8h.8v3zm-2.1.9c0 .3-.1.5-.2.7c-.1.3-.3.4-.4.6c-.2.1-.5.2-.7.3c-.3.1-.6.1-.9.1c-.4 0-.7 0-.9-.1c-.3-.1-.5-.2-.7-.3c-.2-.2-.4-.3-.5-.6c-.1-.2-.1-.4-.1-.7c0-.2 0-.5.1-.7c.1-.2.3-.3.5-.5c.2-.1.4-.3.7-.3c.2-.1.5-.2.9-.2c.3 0 .6.1.9.2c.2 0 .5.2.7.3c.1.2.3.3.4.5c.1.2.2.5.2.7zm-3.6 0c0 .4.1.6.3.8c.3.2.6.3 1.1.3c.4 0 .7-.1 1-.3c.2-.2.4-.4.4-.8c0-.3-.2-.5-.4-.7c-.3-.2-.6-.3-1-.3c-.5 0-.8.1-1.1.3c-.2.2-.3.4-.3.7zm.9 2.4v1.9h5.2v.7H1.9v-2.6h.9zm13.6.4v-2.6h-1.5v-.7h1.5v-1h-1.5v-.7h1.5v-1.7h.9v6.7h-.9zm-1.3-2.3v.7c-.4 0-.8.1-1.3.1c-.5.1-.9.1-1.4.1c-.5 0-.9.1-1.4.1H9.8c.04-.03 0-.7 0-.7c0 0 .81-.03.8 0h.3v-3.3h-.9v-.7h4.8v.7h-.9v3.2c.2-.1.4-.1.6-.1c.2 0 .4 0 .6-.1zm-3.4-3s.01 3.25 0 3.3c.2-.1.5-.1.7-.1h.7v-3.2h-1.4zm.5 6.8h5.3v.7h-6.1v-2.7h.8v2zm6.4.9l.3-2.1h1l-.7 2.1h-.6zm6.2-1.6h2.9v.8h-5v-.6l2.6-2.5c.2-.2.4-.4.5-.6c.2-.2.3-.4.5-.6c.1-.1.2-.3.2-.5c.1-.2.1-.4.1-.7c0-.4-.1-.7-.4-.9c-.2-.3-.5-.4-.9-.4c-.2 0-.4.1-.6.1c-.2.1-.4.2-.5.3c-.1.2-.2.3-.3.5c-.1.2-.1.4-.1.6l-.9-.2c0-.3.1-.6.2-.9l.6-.6c.2-.2.4-.3.7-.4c.3-.1.6-.2.9-.2c.3 0 .6.1.9.2c.3.1.5.2.7.4c.2.2.4.4.5.6c.1.3.2.6.2.9c0 .3-.1.6-.1.8c-.1.2-.2.5-.4.7c-.1.2-.3.4-.5.6c-.2.2-.4.5-.6.7l-2.1 2c.2 0 .3 0 .5-.1h.4zm9-2.9c0 .7 0 1.2-.2 1.7c-.1.5-.3.9-.6 1.2c-.2.4-.5.6-.8.7c-.4.2-.7.3-1.1.3c-.4 0-.7-.1-1.1-.3c-.3-.1-.6-.3-.9-.7c-.2-.3-.4-.7-.5-1.2c-.2-.5-.2-1-.2-1.7c0-.7 0-1.2.2-1.7c.1-.5.3-.9.5-1.2c.3-.3.6-.6.9-.7c.4-.2.7-.3 1.1-.3c.4 0 .7.1 1.1.3c.3.1.6.4.8.7c.3.3.5.7.6 1.2c.2.5.2 1 .2 1.7zm-.9 0c0-.6 0-1.1-.1-1.5c-.1-.4-.3-.7-.4-.9c-.2-.3-.4-.4-.6-.5c-.2-.1-.5-.2-.7-.2c-.2 0-.5.1-.7.2c-.2.1-.4.2-.6.5c-.1.2-.2.5-.3.9c-.1.4-.2.9-.2 1.5c0 .6.1 1.1.2 1.5c.1.4.2.7.3.9c.2.3.4.5.6.6c.2.1.5.1.7.1c.2 0 .5 0 .7-.1c.2-.1.4-.3.6-.6c.1-.2.3-.5.4-.9c.1-.4.1-.9.1-1.5zm4.9 3h1.5v.7h-4.1v-.7h1.7V58c.01.04-1.3 1.3-1.3 1.3l-.5-.6l2-1.8h.7v6.8zm4.6-.1h2.9v.8h-5v-.6l2.6-2.5l.6-.6c.1-.2.3-.4.4-.6c.1-.1.2-.3.3-.5c0-.2.1-.4.1-.7c0-.4-.2-.7-.4-.9c-.3-.3-.6-.4-1-.4c-.2 0-.4.1-.6.1c-.2.1-.3.2-.5.3c-.1.2-.2.3-.3.5c-.1.2-.1.4-.1.6l-.9-.2c0-.3.1-.6.3-.9c.1-.2.3-.4.5-.6c.2-.2.5-.3.7-.4c.3-.1.6-.2.9-.2c.4 0 .7.1.9.2c.3.1.5.2.8.4c.2.2.3.4.4.6c.1.3.2.6.2.9c0 .3 0 .6-.1.8c-.1.2-.2.5-.4.7c-.1.2-.3.4-.5.6c-.1.2-.3.5-.6.7l-2 2c.1 0 .2 0 .4-.1h.4zm10.5-.8v-3.1h-2.6v-.7h2.6v-1.1h-2.6v-.7h2.6v-1.1h.8v6.7h-.8zm-1.5-2.4l.1.7c-.8.2-1.4.3-2.1.3c-.6 0-1.3.1-2 .1c.03-.03-.7 0-.7 0v-4.8h.9s-.03 4.06 0 4.1c.6 0 1.2-.1 1.8-.1c.6-.1 1.3-.1 2-.3zm-2.7 3.9h5.3v.7h-6.1v-2.8h.8v2.1zm13.9-7.9v4h-6.2v-4h.9v1.3h4.5v-1.3h.8zm-.8 3.3v-1.4h-4.5v1.4h4.5zm1.9 1.8v.6h-3.8v3.1h-.8v-3.1h-3.7v-.6h8.3zm7.6-5.5h.8v9.2h-.8v-5h-1.9v-.7h1.9V56zm-5.5 4.1s.02 2.21 0 2.2h2.2c.3-.1.6-.1.9-.1c.3-.1.6-.1.9-.2l.1.7c-.4.1-.7.1-1 .2h-1c-.3.1-.6.1-1 .1H65v-6.1h4.2v.7h-3.4v1.8h3v.7h-3zm12.1 3.5h2.9v.8h-5v-.6l2.6-2.5l.6-.6c.1-.2.3-.4.4-.6c.1-.1.2-.3.3-.5c0-.2.1-.4.1-.7c-.1-.4-.2-.7-.4-.9c-.3-.3-.6-.4-1-.4c-.2 0-.4.1-.6.1c-.2.1-.3.2-.5.3c-.1.2-.2.3-.3.5c-.1.2-.1.4-.1.6l-.9-.2c0-.3.1-.6.3-.9c.1-.2.3-.4.5-.6c.2-.2.5-.3.7-.4c.3-.1.6-.2.9-.2c.4 0 .7.1.9.2c.3.1.5.2.7.4c.3.2.4.4.5.6c.1.3.2.6.2.9c0 .3 0 .6-.1.8c-.1.2-.2.5-.4.7c-.1.2-.3.4-.5.6c-.1.2-.3.5-.6.7l-2 2c.1 0 .2 0 .4-.1h.4zm9.1-2.9c0 .7-.1 1.2-.2 1.7c-.2.5-.4.9-.6 1.2c-.3.4-.6.6-.9.7c-.3.2-.7.3-1.1.3c-.4 0-.7-.1-1.1-.3c-.3-.1-.6-.3-.8-.7c-.3-.3-.5-.7-.6-1.2c-.2-.5-.2-1-.2-1.7c0-.7 0-1.2.2-1.7c.1-.5.3-.9.6-1.2c.2-.3.5-.6.8-.7c.4-.2.7-.3 1.1-.3c.4 0 .8.1 1.1.3c.3.1.6.4.9.7c.2.3.4.7.6 1.2c.1.5.2 1 .2 1.7zm-1 0c0-.6 0-1.1-.1-1.5c-.1-.4-.3-.7-.4-.9c-.2-.3-.4-.4-.6-.5c-.2-.1-.4-.2-.7-.2c-.2 0-.4.1-.7.2c-.2.1-.4.2-.5.5c-.2.2-.3.5-.4.9c-.1.4-.2.9-.2 1.5c0 .6.1 1.1.2 1.5c.1.4.2.7.4.9c.1.3.3.5.5.6c.3.1.5.1.7.1c.3 0 .5 0 .7-.1c.2-.1.4-.3.6-.6c.1-.2.3-.5.4-.9c.1-.4.1-.9.1-1.5zm3.6 2.9h3v.8h-5v-.6s2.56-2.5 2.6-2.5c.2-.2.3-.4.5-.6c.2-.2.3-.4.4-.6c.2-.1.2-.3.3-.5c.1-.2.1-.4.1-.7c0-.4-.1-.7-.4-.9c-.3-.3-.6-.4-1-.4c-.2 0-.4.1-.6.1c-.1.1-.3.2-.4.3c-.2.2-.3.3-.3.5c-.1.2-.2.4-.2.6l-.9-.2l.3-.9c.2-.2.3-.4.6-.6c.2-.2.4-.3.7-.4c.3-.1.6-.2.9-.2c.3 0 .6.1.9.2c.3.1.5.2.7.4c.2.2.4.4.5.6c.1.3.2.6.2.9c0 .3-.1.6-.2.8c-.1.2-.2.5-.3.7c-.1.2-.3.4-.5.6c-.2.2-.4.5-.6.7l-2.1 2c.1 0 .3 0 .4-.1h.4zm7.2.1h1.5v.7h-4.1v-.7h1.7V58c.01.04-1.3 1.3-1.3 1.3l-.5-.6l2-1.8h.7v6.8zm9.2-.9v-3.1h-2.6v-.7h2.6v-1.1h-2.6v-.7h2.6v-1.1h.9v6.7h-.9zm-1.5-2.4l.1.7c-.7.2-1.4.3-2.1.3c-.6 0-1.3.1-1.9.1c-.05-.03-.7 0-.7 0v-4.8h.8v4.1c.6 0 1.3-.1 1.9-.1c.6-.1 1.2-.1 1.9-.3zm-2.7 3.9h5.3v.7H101v-2.8h.8v2.1zm15.3-4.5v.7h-1.4v4.7h-.8V56h.8v3.8h1.4zm-8.3-2.8s2.45.03 2.5 0c0 .6-.1 1.1-.1 1.7c-.1.5-.2 1-.4 1.5c-.2.6-.4 1.1-.6 1.5c-.3.5-.7 1-1.1 1.4l-.6-.4c.7-.8 1.1-1.5 1.4-2.3c.3-.9.5-1.7.6-2.7c-.05.02-1.7 0-1.7 0v-.7zm2.8 0s2.15.03 2.1 0v1.7l-.3 1.8c-.2.5-.4 1.1-.6 1.7c-.3.5-.6 1-1 1.5l-.7-.4c.3-.4.6-.9.9-1.3c.2-.4.4-.9.5-1.4c.2-.4.3-.9.3-1.4c.1-.5.1-1 .2-1.5c-.04.02-1.4 0-1.4 0v-.7zm12.7-.9h.9v9.1h-.9v-9.1zm-3.3 1.6s-.05 1.14 0 1.1c0 .4 0 .8.1 1.2c.2.4.3.7.6 1.1c.2.3.5.6.8.8c.2.3.6.5.9.6l-.5.7c-.5-.2-1-.6-1.4-1.1c-.4-.5-.8-1.1-1-1.7c-.1.3-.2.7-.4 1c-.1.3-.3.6-.5.8c-.2.3-.4.5-.7.7c-.2.2-.5.4-.7.5l-.5-.6c.3-.2.6-.4.9-.7c.3-.3.6-.6.8-.9c.2-.4.4-.8.5-1.2c.1-.4.2-.8.2-1.2c.01.04 0-1.1 0-1.1H118v-.7h5.1v.7H121zm11.3 6h1.5v.7h-4.1v-.7h1.7V58c.01.04-1.4 1.3-1.4 1.3l-.5-.6l2.1-1.8h.7v6.8zm7.8-3c0 .7-.1 1.2-.2 1.7c-.2.5-.4.9-.6 1.2c-.3.4-.5.6-.9.7c-.3.2-.7.3-1.1.3c-.3 0-.7-.1-1-.3c-.4-.1-.7-.3-.9-.7c-.3-.3-.5-.7-.6-1.2c-.1-.5-.2-1-.2-1.7c0-.7.1-1.2.2-1.7c.1-.5.3-.9.6-1.2c.2-.3.5-.6.9-.7c.3-.2.7-.3 1-.3c.4 0 .8.1 1.1.3c.4.1.6.4.9.7c.2.3.4.7.6 1.2c.1.5.2 1 .2 1.7zm-1 0c0-.6 0-1.1-.1-1.5c-.1-.4-.2-.7-.4-.9c-.2-.3-.4-.4-.6-.5c-.2-.1-.4-.2-.7-.2c-.2 0-.4.1-.6.2c-.3.1-.4.2-.6.5c-.2.2-.3.5-.4.9c-.1.4-.2.9-.2 1.5c0 .6.1 1.1.2 1.5c.1.4.2.7.4.9c.2.3.3.5.6.6c.2.1.4.1.6.1c.3 0 .5 0 .7-.1c.2-.1.4-.3.6-.6c.2-.2.3-.5.4-.9c.1-.4.1-.9.1-1.5zm8.3 2.1v-3.1h-2.6v-.7h2.6v-1.1h-2.6v-.7h2.6v-1.1h.8v6.7h-.8zm-1.5-2.4l.1.7c-.8.2-1.5.3-2.1.3c-.6 0-1.3.1-2 .1c.02-.03-.7 0-.7 0v-4.8h.9s-.04 4.06 0 4.1c.6 0 1.2-.1 1.8-.1c.6-.1 1.3-.1 2-.3zm-2.7 3.9h5.3v.7h-6.1v-2.8h.8v2.1zm13.8-5.5h1.3v.7H157v3.2h-.9v-6.6h.9v2.7zm-6.7-2s4.23-.05 4.2 0c0 .5-.1 1.1-.3 1.6c-.2.5-.5 1-.8 1.4c-.4.4-.9.8-1.4 1.1c-.5.3-1.1.6-1.8.8l-.3-.7l1.5-.6c.4-.2.8-.5 1.1-.8c.3-.3.6-.7.8-1c.2-.4.3-.8.3-1.2c.03.04-3.3 0-3.3 0v-.6zm1.8 5.2v2.3h5.3v.7h-6.1v-3h.8zm15.7-5.9h.8v9.1h-.8v-9.1zm-3.4 1.6v1.1c0 .4.1.8.2 1.2c.1.4.3.7.5 1.1c.2.3.5.6.8.8c.3.3.6.5 1 .6l-.5.7c-.5-.2-1-.6-1.5-1.1c-.4-.5-.7-1.1-.9-1.7c-.1.3-.3.7-.4 1c-.2.3-.4.6-.6.8c-.2.3-.4.5-.6.7c-.3.2-.5.4-.8.5l-.5-.6c.4-.2.7-.4 1-.7c.3-.3.5-.6.7-.9c.3-.4.4-.8.6-1.2c.1-.4.2-.8.2-1.2c-.03.04 0-1.1 0-1.1h-2.2v-.7h5.2v.7h-2.2zm10.7 3.7h1.9V56h.8v7h-.8v-.9h-1.9v-.7zm-1.9-1.8c-.3 0-.6 0-.9-.1c-.2-.1-.5-.2-.7-.3c-.2-.2-.3-.3-.4-.5c-.2-.2-.2-.5-.2-.7c0-.2 0-.5.2-.7c.1-.2.2-.3.4-.5c.2-.1.5-.2.7-.3c.3-.1.6-.1.9-.1c.4 0 .7 0 1 .1c.2.1.5.2.7.3c.2.2.3.3.4.5c.1.2.2.5.2.7c0 .2-.1.5-.2.7c-.1.2-.2.3-.4.5c-.2.1-.5.2-.7.3c-.3.1-.6.1-1 .1zm0-2.6c-.4 0-.7.1-1 .3c-.3.2-.4.4-.4.7c0 .3.1.5.4.7c.3.2.6.3 1 .3c.5 0 .8-.1 1.1-.3c.3-.2.4-.4.4-.7c0-.3-.1-.5-.4-.7c-.3-.2-.6-.3-1.1-.3zm-.3 5.7s.02-1.78 0-1.8c-.4 0-.9.1-1.3.1h-1.2l-.1-.7h1.3c.5 0 1 0 1.5-.1h1.6c.5-.1 1-.1 1.5-.2v.6c-.4.1-.8.1-1.2.2c-.4 0-.8 0-1.2.1c-.04-.02 0 1.8 0 1.8h-.9zm-.5 1.6h5.6v.7h-6.4v-2.7h.8v2zM187 56v6.9h-.9V56h.9zm-1.6 4.8l.1.6c-.5.1-1 .1-1.5.2c-.5 0-1 0-1.5.1h-2.8l-.2-.7h2.6c.02.01 0-1.3 0-1.3h-1.7v-3.1h4.3v.7h-3.5v1.7h3.6v.7H183s-.04 1.28 0 1.3c.4 0 .8-.1 1.2-.1c.4 0 .8-.1 1.2-.1zm-3.5 3.5h5.4v.7h-6.2v-2.6h.8v1.9zm16-5.9h1.3v.7h-1.3v2.5h-.9v-5.5h.9v2.3zm-1.8 2.1l-.4.6c-.6-.1-1-.4-1.4-.7c-.4-.4-.7-.8-.8-1.2c-.2.5-.5.9-.9 1.3c-.4.4-.9.7-1.5.9l-.4-.7c.4-.1.7-.3 1-.5c.2-.2.5-.4.7-.6c.2-.3.3-.6.5-.9c.1-.3.1-.6.1-.9v-.4h-2v-.7h4.9v.7h-2.1s.05.35 0 .4c0 .3.1.5.2.8c.1.3.3.6.4.8c.2.2.5.4.7.6c.3.2.6.4 1 .5zm-1.1 1.3c.4 0 .8 0 1.2.1c.4.1.7.2.9.3c.3.2.5.4.7.6c.1.2.2.4.2.7c0 .3-.1.5-.2.7c-.2.2-.4.4-.7.5c-.2.2-.5.3-.9.4c-.4 0-.8.1-1.2.1c-1 0-1.7-.2-2.3-.5c-.5-.3-.8-.7-.8-1.2c0-.5.3-1 .8-1.3c.6-.2 1.3-.4 2.3-.4zm0 2.7c.6 0 1.2-.1 1.5-.3c.4-.1.6-.4.6-.7c0-.3-.2-.6-.6-.8c-.3-.1-.9-.2-1.5-.2c-.7 0-1.3.1-1.7.2c-.3.2-.5.5-.5.8c0 .3.2.6.5.7c.4.2 1 .3 1.7.3zm10.4-7.5v.7H200v-.7h2.2v-1h.9v1h2.3zm3 1.6v.7H207v2.5h-.8v-5.7h.8v2.5h1.4zm-3.5 1.2c0 .3-.1.5-.2.7c-.1.2-.3.4-.5.5c-.1.2-.4.3-.6.3c-.3.1-.6.2-.9.2c-.4 0-.7-.1-.9-.2c-.3 0-.5-.1-.7-.3c-.2-.1-.4-.3-.5-.5c-.1-.2-.1-.4-.1-.7c0-.2 0-.5.1-.7c.1-.2.3-.4.5-.5c.2-.1.4-.3.7-.3c.2-.1.5-.1.9-.1c.3 0 .6 0 .9.1c.2 0 .5.2.6.3c.2.2.4.3.5.5c.1.2.2.5.2.7zm-3.6 0c0 .3.1.6.3.7c.3.2.6.3 1.1.3c.4 0 .7-.1 1-.3c.2-.1.4-.4.4-.7c0-.3-.2-.5-.4-.7c-.3-.2-.6-.3-1-.3c-.5 0-.8.1-1.1.3c-.2.2-.3.4-.3.7zm-.2 3.1v-.6h5.9v2.9h-.8v-2.3h-5.1zm15-3h1.3v.7h-8.3v-.7h6.2c.1-.6.2-1.1.2-1.5v-1.2h-5.3v-.7h6.2s-.05.7 0 .7c0 .4-.1.8-.1 1.2c0 .4-.1.9-.2 1.5zm-6 5.2v-3.3h6.3v3.3h-6.3zm.9-2.6v1.9h4.6v-1.9H211zm11.4-2.5c-.5 0-.9 0-1.3-.1c-.4-.1-.7-.2-1-.4c-.3-.1-.5-.3-.7-.6c-.1-.2-.2-.4-.2-.7c0-.3.1-.6.2-.8c.2-.2.4-.4.7-.6c.3-.1.6-.2 1-.3c.4-.1.8-.1 1.3-.1c.5 0 1 0 1.4.1c.4.1.7.2 1 .3c.3.2.5.4.6.6c.2.2.2.5.2.8c0 .3 0 .5-.2.7c-.1.3-.3.5-.6.6c-.3.2-.6.3-1 .4c-.4.1-.9.1-1.4.1zm0-3c-.7 0-1.3.1-1.7.3c-.4.2-.6.5-.6.9c0 .3.2.6.6.8c.4.2 1 .3 1.7.3c.8 0 1.3-.1 1.7-.3c.5-.2.7-.5.7-.8c0-.4-.2-.7-.7-.9c-.4-.2-.9-.3-1.7-.3zm-4.1 3.9h8.3v.6h-8.3v-.6zm1.9 1.4v2h5.5v.7h-6.3v-2.7h.8zm10.1-2.2l-.3-.7c.5 0 .9-.1 1.3-.2c.3-.1.7-.2 1-.4c.2-.1.5-.3.6-.5c.2-.2.3-.4.3-.7h-2.8v-.7h2.9v-.9h.8v.9h2.9v.7h-2.9c.1.3.2.5.3.7c.2.2.4.4.7.5c.3.2.7.3 1 .4c.4.1.8.2 1.3.2l-.3.7c-.4 0-.7-.1-1.1-.2l-1-.3c-.3-.2-.5-.3-.7-.5c-.3-.2-.5-.4-.6-.6c-.1.2-.3.4-.6.6c-.2.2-.4.3-.7.5l-1 .3c-.4.1-.7.2-1.1.2zm3.8.7h3.7v.7h-8.2v-.7h3.7v-1.1h.8v1.1zm-.4 1.3c1 0 1.8.2 2.3.4c.6.3.8.7.8 1.2c0 .5-.2.8-.8 1.1c-.5.3-1.3.4-2.3.4c-1 0-1.8-.1-2.3-.4c-.6-.3-.8-.6-.8-1.1c0-.5.2-.9.8-1.2c.5-.2 1.3-.4 2.3-.4zm0 2.4c.7 0 1.3 0 1.7-.2c.4-.1.6-.4.6-.6c0-.3-.2-.5-.6-.7c-.4-.2-1-.2-1.7-.2c-.8 0-1.3 0-1.7.2c-.4.2-.6.4-.6.7c0 .2.2.5.6.6c.4.2.9.2 1.7.2zm8.9-6.7s-.37 1.94-.4 1.9c.4 0 .7-.1 1.1-.1c.4 0 .7.1 1 .2c.3.1.6.3.8.5c.2.2.4.4.5.7c.1.3.1.6.1.9c0 .4 0 .8-.2 1.1c-.1.3-.3.6-.6.8c-.2.2-.5.4-.8.5c-.4.2-.7.2-1.1.2c-.4 0-.8-.1-1.2-.2c-.4-.2-.7-.4-.9-.6l.5-.7c.2.2.5.4.8.5c.3.1.5.2.9.2c.2 0 .5 0 .7-.1c.2-.1.4-.2.5-.4c.2-.1.3-.3.4-.5c.1-.2.1-.5.1-.8c0-.4-.1-.8-.4-1.1c-.3-.3-.7-.4-1.3-.4c-.2 0-.4 0-.6.1c-.2 0-.4.1-.6.1c0 .04-.6-.1-.6-.1l.6-3.6h3.6v.9h-2.9zm9.4 2.9c0 .7-.1 1.2-.3 1.7c-.1.5-.3.9-.5 1.2c-.3.4-.6.6-.9.7c-.3.2-.7.3-1.1.3c-.4 0-.7-.1-1.1-.3c-.3-.1-.6-.3-.8-.7c-.3-.3-.5-.7-.6-1.2c-.2-.5-.2-1-.2-1.7c0-.7 0-1.2.2-1.7c.1-.5.3-.9.6-1.2c.2-.3.5-.6.8-.7c.4-.2.7-.3 1.1-.3c.4 0 .8.1 1.1.3c.3.1.6.4.9.7c.2.3.4.7.5 1.2c.2.5.3 1 .3 1.7zm-1 0c0-.6 0-1.1-.1-1.5c-.1-.4-.3-.7-.4-.9c-.2-.3-.4-.4-.6-.5c-.2-.1-.4-.2-.7-.2c-.2 0-.5.1-.7.2c-.2.1-.4.2-.5.5c-.2.2-.3.5-.4.9c-.1.4-.2.9-.2 1.5c0 .6.1 1.1.2 1.5c.1.4.2.7.4.9c.1.3.3.5.5.6c.2.1.5.1.7.1c.3 0 .5 0 .7-.1c.2-.1.4-.3.6-.6c.1-.2.3-.5.4-.9c.1-.4.1-.9.1-1.5zm8.3-4.6h.8v5.3h-.8v-2.3s-1.9-.02-1.9 0c0 .3-.1.5-.3.7c-.1.3-.3.5-.5.6c-.2.2-.4.3-.7.4c-.2.1-.5.2-.8.2c-.4 0-.7-.1-1-.2c-.3-.1-.5-.3-.7-.5c-.2-.2-.4-.4-.5-.7c-.1-.2-.2-.5-.2-.9c0-.3.1-.6.2-.8c.1-.3.3-.5.5-.7c.2-.2.4-.4.7-.5c.3-.1.6-.1 1-.1c.3 0 .6 0 .8.1c.3.1.5.2.7.4c.2.1.4.3.5.5c.2.3.2.5.3.8h1.9v-2.3zm-4.2 4.1c.2 0 .4 0 .6-.1c.2 0 .3-.1.5-.3c.1-.1.2-.3.3-.5c.1-.1.1-.3.1-.6c0-.2 0-.4-.1-.6c-.1-.1-.2-.3-.3-.4c-.2-.1-.3-.2-.5-.3c-.2-.1-.4-.1-.6-.1c-.3 0-.5 0-.7.1c-.1.1-.3.2-.4.3c-.2.1-.3.3-.4.4c-.1.2-.1.4-.1.6c0 .3 0 .5.1.6c.1.2.2.4.4.5c.1.2.3.3.4.3c.2.1.4.1.7.1zm-1.1 2.4v-.7h6.1v3.3h-.8v-2.6H254zm14.6-1.2h1.9V56h.8v7h-.8v-.9h-1.9v-.7zm-1.8-1.8c-.4 0-.7 0-1-.1c-.2-.1-.5-.2-.7-.3c-.2-.2-.3-.3-.4-.5c-.1-.2-.2-.5-.2-.7c0-.2.1-.5.2-.7c.1-.2.2-.3.4-.5c.2-.1.5-.2.7-.3c.3-.1.6-.1 1-.1c.3 0 .6 0 .9.1c.2.1.5.2.7.3c.2.2.3.3.4.5c.2.2.2.5.2.7c0 .2 0 .5-.2.7c-.1.2-.2.3-.4.5c-.2.1-.5.2-.7.3c-.3.1-.6.1-.9.1zm0-2.6c-.5 0-.8.1-1.1.3c-.3.2-.4.4-.4.7c0 .3.1.5.4.7c.3.2.6.3 1.1.3c.4 0 .7-.1 1-.3c.3-.2.4-.4.4-.7c0-.3-.1-.5-.4-.7c-.3-.2-.6-.3-1-.3zm-.4 5.7s.03-1.78 0-1.8c-.4 0-.9.1-1.3.1h-1.2l-.1-.7h1.3c.5 0 1 0 1.5-.1h1.6c.5-.1 1-.1 1.5-.2v.6c-.4.1-.8.1-1.2.2c-.4 0-.8 0-1.2.1c-.03-.02 0 1.8 0 1.8h-.9zm-.5 1.6h5.7v.7h-6.5v-2.7h.8v2zm6.8.9l.3-2.1h1l-.7 2.1h-.6zm11.1-9.2h.8v9.2h-.8V56zm-1.7 3.1v-2.9h.8v8.5h-.8v-2.8h-1.3c-.1.4-.4.7-.7.9c-.3.2-.6.3-1.1.3c-.2 0-.5 0-.7-.1c-.3-.1-.5-.3-.6-.4c-.2-.2-.3-.5-.4-.7c-.1-.3-.2-.6-.2-.9c0-.3.1-.6.2-.8c.1-.3.2-.5.4-.7c.1-.2.3-.3.6-.4c.2-.1.5-.2.7-.2c.3 0 .6.1.8.2c.2.1.4.2.6.4c.2.2.3.4.4.7c.1.2.2.5.2.8v.1c0 .1 0 .1-.1.1c.05.03 1.2 0 1.2 0v-1.4h-1.3v-.7h1.3zm-.8-1.5v.7h-4.5v-.7h1.8v-1.3h.9v1.3h1.8zm-2.3 4.8c.4 0 .7-.1.9-.4c.2-.2.3-.6.3-1c0-.4-.1-.7-.3-1c-.2-.2-.5-.4-.9-.4c-.3 0-.6.2-.8.4c-.2.3-.3.6-.3 1c0 .4.1.8.3 1c.2.3.5.4.8.4zm13.9-6.3h.8v5.5h-.8v-2.5h-1.2v2.4h-.8v-5.3h.8v2.2h1.2v-2.3zm-2.6 4.1l.1.7c-.3 0-.6.1-.8.1c-.3 0-.5 0-.8.1h-2.4v-4.4h3.5v.7h-2.7v1.1h2.6v.7h-2.6v1.2h1.7c.2 0 .5-.1.7-.1c.2 0 .4-.1.7-.1zm-2.7 2.5v-.6h6.1v3.1h-.8v-2.5h-5.3zm11.7-3.3c-1 0-1.8-.2-2.4-.4c-.5-.3-.8-.7-.8-1.2c0-.5.3-.9.8-1.2c.6-.3 1.4-.4 2.4-.4c1 0 1.8.1 2.4.4c.5.3.8.7.8 1.2c0 .5-.3.9-.8 1.2c-.6.2-1.4.4-2.4.4zm0-2.6c-.8 0-1.3.1-1.7.3c-.4.1-.6.4-.6.7c0 .3.2.5.6.7c.4.2.9.2 1.7.2c.8 0 1.4 0 1.8-.2c.4-.2.6-.4.6-.7c0-.3-.2-.6-.6-.7c-.4-.2-1-.3-1.8-.3zm-4.1 3.2h8.2v.7h-8.2v-.7zm1.8 3.5v.9h5.7v.7h-6.5v-2.2h5.4v-.8h-5.4v-.7h6.2v2.1H297zm16.5-5.3h1.4v.7h-1.4v2.5h-.8v-5.3h.8v2.1zm-2.5-1.6v4.2h-4.2v-4.2h.8v1.3h2.6v-1.3h.8zm-.8 3.5v-1.5h-2.6v1.5h2.6zm-1.5 2.5v1.8h5.1v.7h-6v-3.2h5.8v.7h-4.9zm11-2.6c-.4 0-.9 0-1.3-.1c-.4-.1-.7-.2-1-.4c-.3-.1-.5-.3-.6-.6c-.2-.2-.3-.4-.3-.7c0-.3.1-.6.3-.8c.1-.2.3-.4.6-.6c.3-.1.6-.2 1-.3c.4-.1.9-.1 1.3-.1c.5 0 1 0 1.4.1c.4.1.7.2 1 .3c.3.2.5.4.6.6c.2.2.3.5.3.8c0 .3-.1.5-.3.7c-.1.3-.3.5-.6.6c-.3.2-.6.3-1 .4c-.4.1-.9.1-1.4.1zm0-3c-.7 0-1.2.1-1.7.3c-.4.2-.6.5-.6.9c0 .3.2.6.6.8c.5.2 1 .3 1.7.3c.8 0 1.3-.1 1.8-.3c.4-.2.6-.5.6-.8c0-.4-.2-.7-.6-.9c-.5-.2-1-.3-1.8-.3zm-4.1 3.9h8.3v.6h-8.3v-.6zm1.9 1.4v2h5.5v.7h-6.3v-2.7h.8zm13.5-1.9c-.5 0-.9 0-1.3-.1c-.4-.1-.7-.3-1-.4c-.3-.2-.5-.4-.7-.7c-.1-.2-.2-.5-.2-.8c0-.3.1-.6.2-.8c.2-.3.4-.5.7-.7c.3-.1.6-.3 1-.4c.4 0 .8-.1 1.3-.1c.5 0 .9.1 1.3.1c.4.1.7.3 1 .4c.3.2.5.4.7.7c.1.2.2.5.2.8c0 .3-.1.6-.2.8c-.2.3-.4.5-.7.7c-.3.1-.6.3-1 .4c-.4.1-.8.1-1.3.1zm0-3.3c-.3 0-.7 0-1 .1c-.2 0-.5.1-.7.2c-.2.2-.4.3-.5.5c-.1.1-.1.3-.1.5c0 .2 0 .4.1.5c.1.2.3.4.5.5c.2.1.5.2.7.2c.3.1.7.1 1 .1c.3 0 .7 0 1-.1c.2 0 .5-.1.7-.2c.2-.1.4-.3.5-.5c.1-.1.1-.3.1-.5c0-.2 0-.4-.1-.5c-.1-.2-.3-.3-.5-.5c-.2-.1-.5-.2-.7-.2c-.3-.1-.7-.1-1-.1zm4.2 4.2v.6H333v3.3h-.8v-3.3h-2.3v3.3h-.9v-3.3h-2.1v-.6h8.3zm9.4-1.6v.7h-1.5v4.8h-.8v-9.1h.8v3.6h1.5zm-5.5-2s.04 1.14 0 1.1c0 .4.1.8.2 1.1c.1.4.3.8.5 1.1c.2.3.5.6.8.9c.3.3.6.5.9.6l-.5.7c-.5-.2-.9-.6-1.4-1.1c-.4-.5-.7-1.1-.9-1.7c-.1.3-.2.7-.4 1c-.1.3-.3.6-.5.8c-.2.3-.4.5-.7.7c-.2.2-.4.4-.7.5l-.5-.6c.3-.2.6-.4.9-.7c.3-.3.6-.6.8-1c.2-.3.4-.7.5-1.1c.1-.4.2-.8.2-1.2c.01.04 0-1.1 0-1.1h-2.1v-.7h5v.7h-2.1zm12.8-1.7h.9v9.2h-.9v-4.3h-2.7v-.6h2.7v-1.4h-2.7v-.7h2.7V56zm-5.3 1.1s-.03 5.27 0 5.3h1c.3-.1.7-.1 1-.1c.3 0 .6-.1.9-.1c.3 0 .6-.1.9-.2l.1.7c-.3.1-.7.2-1 .2c-.3.1-.6.1-.9.1c-.4 0-.7.1-1.1.1h-1.1c.03-.02-.7 0-.7 0v-6h.9zm15.2 1.7v.7h-6.3v-3.1h.9v2.4h5.4zm-7.4 1.9h8.3v.7h-8.3v-.7zm1.9 1.6v2h5.5v.7h-6.3v-2.7h.8z" stroke="none" fill="#111111"/></g><g id="Polygon123522"><path d="m5.1 44.8h3.7v.7H.5v-.7h3.8v-2.3H1.6v-4.2h6.2v.7H2.4v2.8h5.5v.7H5.1v2.3zm8.8-3.7c-.5 0-1 0-1.4-.1c-.4 0-.7-.2-1-.3c-.3-.1-.5-.3-.6-.5c-.2-.2-.3-.5-.3-.8c0-.2.1-.5.3-.7c.1-.2.3-.4.6-.5c.3-.2.6-.3 1-.4c.4 0 .9-.1 1.4-.1c.5 0 .9.1 1.3.1c.4.1.7.2 1 .4c.3.1.5.3.6.5c.2.2.3.5.3.7c0 .3-.1.6-.3.8c-.1.2-.3.4-.6.5c-.3.1-.6.3-1 .3c-.4.1-.8.1-1.3.1zm0-2.7c-.8 0-1.4.1-1.8.2c-.4.2-.6.5-.6.8c0 .4.2.6.6.8c.4.2 1 .3 1.8.3c.7 0 1.3-.1 1.7-.3c.4-.2.6-.4.6-.8c0-.3-.2-.6-.6-.8c-.4-.1-1-.2-1.7-.2zm4.1 4.1h-3.7v1.1h2.7v3h-6.3v-3h2.7v-1.1H9.7v-.7h8.3v.7zm-1.8 3.4v-1.7h-4.6v1.7h4.6zm9.3-8.4h.9v9.2h-.9v-9.2zm-3.6.7c.3 0 .7.1 1 .2c.3.1.5.2.7.4c.2.2.4.4.5.7c.2.3.2.5.2.9c0 .3 0 .6-.2.8c-.1.3-.3.5-.5.7c-.2.2-.4.4-.7.5c-.3.1-.7.1-1 .1c-.4 0-.7 0-1-.1c-.3-.1-.6-.3-.8-.5c-.2-.2-.4-.4-.5-.7c-.1-.2-.2-.5-.2-.8c0-.4.1-.6.2-.9c.1-.3.3-.5.5-.7c.2-.2.5-.3.8-.4c.3-.1.6-.2 1-.2zm0 .7c-.3 0-.5.1-.7.1c-.2.1-.4.2-.5.3c-.1.2-.3.3-.3.5c-.1.2-.2.3-.2.6c0 .2.1.4.2.5c0 .2.2.4.3.5c.1.1.3.2.5.3c.2.1.4.1.7.1c.2 0 .4 0 .6-.1c.2-.1.4-.2.5-.3c.2-.1.3-.3.4-.5c.1-.1.1-.3.1-.5c0-.3 0-.4-.1-.6c-.1-.2-.2-.3-.4-.5c-.1-.1-.3-.2-.5-.3c-.2 0-.4-.1-.6-.1zm-2.8 5.8L19 44h1.3c.5 0 1 0 1.5-.1h1.6c.5-.1 1-.1 1.5-.2l.1.6c-.5.1-1 .2-1.6.2c-.5.1-1 .1-1.5.1c-.5.1-1 .1-1.5.1h-1.3zm18.8-3.9l-.3.7l-1.1-.3c-.3-.1-.6-.3-.9-.5c-.3-.1-.5-.3-.8-.6c-.2-.2-.4-.5-.5-.7c-.2.2-.3.5-.6.7c-.2.3-.4.5-.7.7c-.3.1-.6.3-1 .4c-.3.1-.6.2-1 .3l-.3-.7c.4 0 .8-.1 1.2-.3c.4-.2.7-.4 1-.6c.3-.2.5-.5.7-.8c.2-.3.3-.6.3-.9c-.04-.01 0-.4 0-.4h.8s.02.39 0 .4c0 .3.1.6.3.9c.2.3.4.6.7.8c.3.2.6.4 1 .6c.4.2.8.3 1.2.3zm-3.2 1.7h3.8v.6h-8.3v-.6h3.7v-1.6h.8v1.6zm-2.6 1.4v1.9h5.4v.7h-6.3v-2.6h.9zm14.7-6.4v4.7h-.8v-4.7h.8zM40 38h4.1c0 .6-.1 1.1-.3 1.6c-.2.4-.5.9-.8 1.2c-.4.4-.9.7-1.4 1c-.5.2-1.1.4-1.8.6l-.3-.7c1.2-.2 2.1-.6 2.7-1.1c.6-.6.9-1.2 1-1.9c.01-.03-3.2 0-3.2 0v-.7zm1.8 7.9h5.4v.7h-6.3v-2.3h5.1v-1h-5.1v-.6h5.9v2.2h-5v1zm10.9-5c-1.1 0-1.8-.2-2.4-.4c-.6-.3-.9-.7-.9-1.2c0-.5.3-.9.9-1.2c.6-.3 1.3-.4 2.4-.4c1 0 1.7.1 2.3.4c.6.3.9.7.9 1.2c0 .5-.3.9-.9 1.2c-.6.2-1.3.4-2.3.4zm0-2.6c-.8 0-1.4.1-1.8.3c-.4.1-.6.4-.6.7c0 .3.2.5.6.7c.4.2 1 .2 1.8.2c.7 0 1.3 0 1.7-.2c.4-.2.6-.4.6-.7c0-.3-.2-.6-.6-.7c-.4-.2-1-.3-1.7-.3zm-4.2 3.2h8.3v.7h-8.3v-.7zm1.9 3.5v.9h5.6v.7h-6.5v-2.2h5.4v-.8h-5.4v-.7h6.2v2.1h-5.3zm14.1-4.6h2v-2.8h.8v6.7h-.8V41h-2v-.6zm-4.1-2.1s4.14-.05 4.1 0c0 .5-.1 1.1-.3 1.6c-.2.5-.5 1-.8 1.4c-.4.4-.8.8-1.4 1.1c-.5.4-1.1.6-1.7.9l-.4-.7l1.5-.6c.4-.3.8-.6 1.1-.9c.3-.3.6-.6.8-1c.2-.4.3-.8.3-1.2c.04.04-3.2 0-3.2 0v-.6zm2 7.5h5.2v.7h-6.1v-2.9h.9v2.2zm14.3-8.2v5.3h-.8v-5.3h.8zm-2.6 5.2v-2.7h-2v-.7h2v-1.7h.8v5.1h-.8zm-.9-1.5l.1.7c-.6.1-1.2.2-1.7.2c-.5.1-1 .1-1.6.1c.03-.02-.5 0-.5 0v-4.1h.8s-.02 3.39 0 3.4c.5 0 .9 0 1.4-.1c.5 0 1-.1 1.5-.2zm2.4 1.9s-.04.45 0 .5c0 .2 0 .4.1.7l.3.6l.6.6c.3.1.5.3.8.4l-.4.6c-.5-.2-.8-.4-1.2-.7c-.3-.3-.5-.7-.7-1.1c-.1.4-.3.8-.6 1.1c-.2.3-.6.6-1 .7c-.5-.1-.8-.4-1.1-.7c-.3-.3-.5-.6-.6-1c-.2.4-.4.7-.7 1c-.3.3-.7.5-1.1.7l-.5-.6c.3-.1.6-.3.8-.5c.2-.1.4-.3.6-.5c.1-.2.3-.4.4-.7c0-.2.1-.4.1-.6c-.02-.05 0-.5 0-.5h.8v.5c0 .4.1.8.3 1.2c.2.4.5.7.9.9c.3-.1.5-.2.6-.4c.2-.2.3-.4.4-.6l.3-.6v-.5c.05-.05 0-.5 0-.5h.9zm11.1-2v.6h-1.5v4.9h-.9v-9.2h.9v3.7h1.5zm-7.3-2.1s-.03 4.61 0 4.6h2.1c.4-.1.7-.1 1-.1c.3-.1.7-.1 1-.2l.1.7c-.4.1-.7.1-1 .2c-.4 0-.7 0-1.1.1h-2.2c-.05.03-.8 0-.8 0v-6h4.3v.7h-3.4zm7.8 7v-1h.9v1h-.9z" stroke="none" fill="#111111"/></g><g id="Polygon123521"><path d="m7.2 19h.8v9.2h-.8V19zm-6.1 1s4.27.03 4.3 0c0 .7-.1 1.3-.3 1.9c-.1.7-.4 1.2-.7 1.8c-.4.5-.8 1-1.3 1.5c-.6.5-1.2.9-2 1.3l-.4-.7c1.2-.6 2.1-1.3 2.7-2.2c.7-.8 1-1.8 1.1-2.9H1.1v-.7zm15.6 2.9h1.3v.7H9.7v-.7h6.2c.1-.6.2-1.1.2-1.5v-1.2h-5.3v-.7h6.2s-.05.7 0 .7c0 .4-.1.8-.1 1.2c0 .4-.1.9-.2 1.5zm-6 5.2v-3.3h6.3v3.3h-6.3zm.9-2.6v1.9h4.6v-1.9h-4.6zM23 22.4c-1 0-1.8-.2-2.3-.4c-.6-.3-.9-.7-.9-1.2c0-.5.3-.9.9-1.2c.5-.3 1.3-.4 2.3-.4c1 0 1.8.1 2.4.4c.6.3.8.7.8 1.2c0 .5-.2.9-.8 1.2c-.6.2-1.4.4-2.4.4zm0-2.6c-.7 0-1.3.1-1.7.3c-.4.1-.6.4-.6.7c0 .3.2.5.6.7c.4.2 1 .2 1.7.2c.8 0 1.4 0 1.8-.2c.4-.2.6-.4.6-.7c0-.3-.2-.6-.6-.7c-.4-.2-1-.3-1.8-.3zM18.9 23h8.3v.7h-8.3v-.7zm1.8 3.5v.9h5.7v.7h-6.5v-2.2h5.4v-.8h-5.4v-.7h6.2v2.1h-5.4zm10.2-2.1l-.3-.6c.4-.1.7-.2 1.1-.4c.4-.2.8-.4 1.1-.7c.3-.3.6-.6.8-.9c.2-.3.3-.7.3-1c-.03-.05 0-.2 0-.2h-3.1v-.7h7v.7h-3.1s.04.15 0 .2c0 .3.1.7.3 1c.2.3.5.6.8.9c.3.3.7.5 1.1.7c.4.1.8.3 1.2.3l-.4.7l-1-.3c-.3-.2-.7-.3-1-.6c-.3-.2-.6-.4-.8-.7c-.3-.2-.4-.5-.6-.8c-.1.3-.3.6-.6.9c-.2.2-.5.5-.8.7c-.3.2-.6.4-1 .5c-.3.2-.6.3-1 .3zm3.8 1.9h3.8v.7h-8.3v-.7h3.7v-2.2h.8v2.2zM46 24.5v-2.8h-2v-.7h2v-1.9h.9v5.4h-.9zm-1.3-1.1l-.4.6c-.6-.2-1-.4-1.4-.8c-.3-.3-.6-.7-.8-1.2c-.2.5-.5 1-.9 1.4c-.4.4-.9.7-1.4.9l-.5-.7c.4-.1.7-.3 1-.5c.3-.2.5-.4.7-.7c.2-.3.4-.6.5-.9c.1-.3.1-.7.1-1c.05 0 0-.9 0-.9h.9s-.02.87 0 .9c0 .3 0 .6.1.9c.1.3.3.6.5.8c.2.3.4.5.7.7c.3.2.6.4.9.5zm-.8 1.3c.4 0 .9.1 1.2.1c.4.1.7.2 1 .4c.2.1.5.3.6.5c.1.2.2.5.2.8c0 .2-.1.5-.2.7c-.1.2-.4.4-.6.5c-.3.2-.6.3-1 .4c-.3 0-.8.1-1.2.1c-.5 0-.9-.1-1.3-.1c-.4-.1-.7-.2-1-.4c-.2-.1-.4-.3-.6-.5c-.1-.2-.2-.5-.2-.7c0-.3.1-.6.2-.8c.2-.2.4-.4.6-.5c.3-.2.6-.3 1-.4c.4 0 .8-.1 1.3-.1zm0 2.8c.7 0 1.2-.1 1.6-.3c.4-.2.6-.4.6-.7c0-.4-.2-.7-.6-.8c-.4-.2-.9-.3-1.6-.3c-.7 0-1.3.1-1.7.3c-.4.1-.6.4-.6.8c0 .3.2.5.6.7c.4.2 1 .3 1.7.3zM55.5 19h.8v9.2h-.8v-4.6h-1.2v4.1h-.8v-8.5h.8v3.7h1.2V19zm-4.3.3v1.3h1.9v.7h-4.6v-.7h1.9v-1.3h.8zm-.4 2.6c.3 0 .5 0 .8.1c.2.2.4.3.6.5c.2.2.3.4.4.6c.1.3.1.6.1.9c0 .3 0 .6-.1.8c-.1.3-.2.5-.4.7c-.2.2-.4.3-.6.4c-.3.1-.5.2-.8.2c-.3 0-.6-.1-.8-.2c-.2-.1-.4-.2-.6-.4c-.2-.2-.3-.4-.4-.7c-.1-.2-.2-.5-.2-.8c0-.3.1-.6.2-.9c.1-.2.2-.4.4-.6c.2-.2.4-.3.6-.5c.2-.1.5-.1.8-.1zm0 3.5c.3 0 .6-.2.9-.4c.2-.3.3-.6.3-1c0-.2 0-.4-.1-.6c-.1-.1-.1-.3-.2-.4c-.1-.1-.3-.2-.4-.3c-.2-.1-.3-.1-.5-.1c-.4 0-.7.1-.9.4c-.2.2-.3.6-.3 1c0 .4.1.7.3 1c.2.2.5.4.9.4zm13.1-2.5c-.5 0-.9 0-1.3-.1c-.4-.1-.7-.2-1-.3c-.3-.2-.5-.4-.7-.6c-.1-.2-.2-.5-.2-.8c0-.3.1-.5.2-.8c.2-.2.4-.4.7-.5c.3-.2.6-.3 1-.4c.4-.1.8-.1 1.3-.1c.5 0 .9 0 1.3.1c.4.1.8.2 1 .4c.3.1.5.3.7.5c.1.3.2.5.2.8c0 .3-.1.6-.2.8c-.2.2-.4.4-.7.6c-.2.1-.6.2-1 .3c-.4.1-.8.1-1.3.1zm0-3c-.3 0-.7.1-.9.1c-.3.1-.6.2-.8.3c-.2.1-.3.2-.4.3c-.2.2-.2.3-.2.5c0 .2 0 .3.2.5c.1.1.2.3.4.4c.2.1.5.1.8.2c.2 0 .6.1.9.1c.7 0 1.3-.1 1.7-.3c.4-.3.6-.5.6-.9c0-.4-.2-.6-.6-.8c-.4-.2-1-.4-1.7-.4zm-4.1 3.8h8.3v.7h-3.7v1.8h-.8v-1.8h-3.8v-.7zm1.9 1.6v2h5.5v.7h-6.4v-2.7h.9zm14-2.1s-2.39-.05-2.4 0c-.2.2-.5.4-.8.5c-.3.2-.7.2-1 .2c-.4 0-.7 0-1-.1c-.3-.1-.5-.3-.7-.5c-.2-.2-.4-.4-.5-.7c-.1-.2-.2-.5-.2-.8c0-.4.1-.7.2-.9c.1-.3.3-.5.5-.7c.2-.2.4-.3.7-.5c.3-.1.6-.1 1-.1c.3 0 .7.1 1 .2c.3.1.6.3.8.6c.01-.04 2.4 0 2.4 0V19h.8v5.5h-.8v-1.3zm-5.8-1.4c0 .2 0 .4.1.5c.1.2.2.4.3.5c.2.1.3.2.5.3c.2.1.4.1.7.1c.2 0 .4 0 .6-.1c.2-.1.3-.2.5-.3c.1-.1.2-.3.3-.5c.1-.1.1-.3.1-.5c0-.3 0-.5-.1-.6c-.1-.2-.2-.4-.3-.5c-.2-.1-.3-.2-.5-.3c-.2-.1-.4-.1-.6-.1c-.3 0-.5 0-.7.1c-.2.1-.3.2-.5.3c-.1.1-.2.3-.3.5c-.1.1-.1.3-.1.6zm5.8-.8s-2.01.04-2 0c.1.3.1.5.1.8c0 .2 0 .4-.1.7c-.02-.03 2 0 2 0V21zm-2.2 3.7c.4 0 .9 0 1.2.1c.4.1.7.2 1 .3c.3.2.5.4.6.6c.2.2.2.4.2.7c0 .3 0 .6-.2.8c-.1.2-.3.4-.6.5c-.3.2-.6.3-1 .4c-.3 0-.8.1-1.2.1c-.5 0-.9-.1-1.3-.1c-.4-.1-.7-.2-1-.4c-.2-.1-.4-.3-.6-.5c-.1-.2-.2-.5-.2-.8c0-.3.1-.5.2-.7l.6-.6c.3-.1.6-.2 1-.3c.4-.1.8-.1 1.3-.1zm0 2.8c.7 0 1.2-.1 1.6-.3c.4-.2.6-.4.6-.8c0-.3-.2-.6-.6-.8c-.4-.2-.9-.3-1.6-.3c-.7 0-1.3.1-1.7.3c-.3.2-.5.5-.5.8c0 .4.2.6.5.8c.4.2 1 .3 1.7.3zm13.2-4.7v.7h-1.5v4.7h-.8v-9.1h.8v3.7h1.5zm-5.5-3.6v1.3h2.3v.7h-5.4v-.7h2.3v-1.3h.8zm-.4 2.7c.4 0 .7.1.9.2c.3.1.5.2.7.4c.2.2.4.4.5.7c.1.3.2.5.2.8c0 .4-.1.6-.2.9c-.1.3-.3.5-.5.7c-.2.2-.4.3-.7.4c-.2.1-.5.1-.9.1c-.3 0-.6 0-.9-.1c-.2-.1-.5-.2-.7-.4c-.2-.2-.3-.4-.4-.7c-.1-.3-.2-.5-.2-.9c0-.3.1-.5.2-.8c.1-.3.2-.5.4-.7c.2-.2.5-.3.7-.4c.3-.1.6-.2.9-.2zm0 3.6c.2 0 .4-.1.6-.2c.2 0 .3-.1.5-.2c.1-.2.2-.3.3-.5c0-.2.1-.3.1-.6c0-.2-.1-.3-.1-.5c-.1-.2-.2-.3-.3-.5c-.2-.1-.3-.2-.5-.3c-.2 0-.4-.1-.6-.1c-.2 0-.4.1-.5.1c-.2.1-.4.2-.5.3c-.1.2-.2.3-.3.5c-.1.2-.1.3-.1.5c0 .3 0 .4.1.6c.1.2.2.3.3.5c.1.1.3.2.5.2c.1.1.3.2.5.2zm13-4.6c-.02-.03 0-.3 0-.3h-5.6v-.6h6.4s.01.87 0 .9v1.8c0 .4-.1.7-.1 1.1c-.1.4-.1.8-.2 1.3l-.9-.1c.2-.9.3-1.6.3-2.3c.1-.7.1-1.3.1-1.8zm-2.4 5.3h4.2v.7h-8.3v-.7h3.2v-3.3h.9v3.3zm14.7-7.1v5.2h-.8v-5.2h.8zm-4.9 4.7c-.4 0-.7 0-1-.1c-.3-.1-.5-.3-.7-.4c-.2-.2-.4-.5-.5-.7c-.1-.3-.2-.6-.2-.9c0-.3.1-.6.2-.9c.1-.2.3-.4.5-.6c.2-.2.4-.4.7-.5c.3-.1.6-.1 1-.1c.3 0 .6 0 .9.1c.3.1.6.3.8.5c.2.2.4.4.5.6c.1.3.2.6.2.9c0 .3-.1.6-.2.9c-.1.2-.3.5-.5.7c-.2.1-.5.3-.8.4c-.3.1-.6.1-.9.1zm0-3.5c-.3 0-.5 0-.7.1c-.1.1-.3.2-.4.3c-.2.1-.3.3-.4.4c0 .2-.1.4-.1.6c0 .2.1.4.1.6c.1.2.2.3.4.4c.1.2.3.3.4.3c.2.1.4.2.7.2c.2 0 .4-.1.6-.2c.2 0 .4-.1.5-.3c.1-.1.3-.2.3-.4c.1-.2.2-.4.2-.6c0-.2-.1-.4-.2-.6c0-.1-.2-.3-.3-.4c-.1-.1-.3-.2-.5-.3c-.2-.1-.4-.1-.6-.1zm3.9 4.4s-.03.46 0 .5c0 .2 0 .4.1.7l.3.6l.6.6c.3.1.5.2.8.3l-.4.7c-.5-.2-.8-.4-1.1-.7c-.4-.3-.6-.7-.7-1.1c-.2.4-.4.8-.7 1.1c-.3.3-.6.6-1 .7c-.5-.1-.9-.4-1.1-.7c-.3-.3-.5-.6-.6-1c-.2.3-.4.7-.7 1c-.4.3-.7.5-1.2.7l-.4-.7c.3-.1.6-.2.8-.4c.2-.1.4-.3.6-.5c.1-.2.3-.4.3-.7c.1-.2.2-.4.2-.6c-.03-.04 0-.5 0-.5h.8s-.03.46 0 .5c0 .4.1.8.3 1.2c.2.4.5.7.9.9c.3-.1.4-.3.6-.4c.2-.2.3-.4.4-.6l.3-.6c0-.2.1-.4.1-.5c-.05-.04 0-.5 0-.5h.8zm11.2-2v.6h-1.5v4.9h-.8V19h.8v3.7h1.5zm-7.3-2.1v4.6h2.2c.3-.1.6-.1.9-.1c.4-.1.7-.1 1-.2l.1.7c-.3.1-.7.1-1 .2c-.4 0-.7 0-1 .1h-2.3c-.03.03-.7 0-.7 0v-6h4.2v.7H109zm7.8 7v-1h1v1h-1zm6.4-1h3v.8h-5v-.6s2.55-2.5 2.5-2.5l.6-.6c.2-.2.3-.4.4-.6c.1-.1.2-.3.3-.5c.1-.2.1-.4.1-.7c0-.4-.1-.7-.4-.9c-.3-.3-.6-.4-1-.4c-.2 0-.4.1-.6.1c-.1.1-.3.2-.4.3c-.2.2-.3.3-.4.5c0 .2-.1.4-.1.6l-.9-.2l.3-.9c.1-.2.3-.4.5-.6c.3-.2.5-.3.8-.4c.3-.1.6-.2.9-.2c.3 0 .6.1.9.2c.2.1.5.2.7.4c.2.2.4.4.5.6c.1.3.1.6.1.9c0 .3 0 .6-.1.8c-.1.2-.2.5-.3.7c-.2.2-.3.4-.5.6c-.2.2-.4.5-.6.7l-2.1 2c.1 0 .3 0 .4-.1h.4zm9.1-2.9c0 .7-.1 1.2-.2 1.7c-.2.5-.3.9-.6 1.2c-.2.4-.5.6-.9.7c-.3.2-.7.3-1 .3c-.4 0-.8-.1-1.1-.3c-.4-.1-.6-.3-.9-.7c-.2-.3-.4-.7-.6-1.2c-.1-.5-.2-1-.2-1.7c0-.7.1-1.2.2-1.7c.2-.5.4-.9.6-1.2c.3-.3.5-.6.9-.7c.3-.2.7-.3 1.1-.3c.3 0 .7.1 1 .3c.4.1.7.4.9.7c.3.3.4.7.6 1.2c.1.5.2 1 .2 1.7zm-.9 0c0-.6-.1-1.1-.2-1.5c-.1-.4-.2-.7-.4-.9c-.1-.3-.3-.4-.6-.5c-.2-.1-.4-.2-.6-.2c-.3 0-.5.1-.7.2c-.2.1-.4.2-.6.5c-.2.2-.3.5-.4.9c-.1.4-.1.9-.1 1.5c0 .6 0 1.1.1 1.5c.1.4.2.7.4.9c.2.3.4.5.6.6c.2.1.4.1.7.1c.2 0 .4 0 .6-.1c.3-.1.5-.3.6-.6c.2-.2.3-.5.4-.9c.1-.4.2-.9.2-1.5zm3.6 2.9h2.9v.8h-5v-.6l2.6-2.5c.2-.2.4-.4.5-.6c.2-.2.4-.4.5-.6c.1-.1.2-.3.3-.5c0-.2.1-.4.1-.7c-.1-.4-.2-.7-.5-.9c-.2-.3-.5-.4-.9-.4c-.2 0-.4.1-.6.1c-.2.1-.4.2-.5.3c-.1.2-.2.3-.3.5c-.1.2-.1.4-.1.6l-.9-.2c0-.3.1-.6.3-.9c.1-.2.3-.4.5-.6c.2-.2.5-.3.7-.4c.3-.1.6-.2.9-.2c.3 0 .6.1.9.2c.3.1.5.2.7.4c.2.2.4.4.5.6c.1.3.2.6.2.9c0 .3 0 .6-.1.8c-.1.2-.2.5-.4.7c-.1.2-.3.4-.5.6c-.2.2-.4.5-.6.7l-2.1 2c.2 0 .3 0 .5-.1h.4zm7.1.1h1.5v.7h-4v-.7h1.6s.04-5.55 0-5.5v-.2c.05.04-1.3 1.3-1.3 1.3l-.5-.6l2-1.8h.7v6.8zm9.3-.9v-3.1h-2.6v-.7h2.6v-1.1h-2.6v-.7h2.6v-1.1h.8v6.7h-.8zm-1.6-2.4l.1.7c-.7.2-1.4.3-2 .3c-.7 0-1.3.1-2 .1c-.01-.03-.7 0-.7 0v-4.8h.8s.03 4.06 0 4.1c.7 0 1.3-.1 1.9-.1c.6-.1 1.3-.1 1.9-.3zm-2.6 3.9h5.2v.7h-6.1v-2.8h.9v2.1zm13.6-8.3h.8v9.2h-.8V19zm-1.8 3.6v-3.4h.8v8.5h-.8v-4.4s-1.15-.02-1.1 0c-.1.4-.1.8-.2 1.2c-.1.3-.3.7-.4.9c-.2.3-.4.4-.6.6c-.2.1-.5.2-.8.2c-.3 0-.6-.1-.8-.2c-.2-.2-.4-.4-.6-.7c-.2-.3-.3-.6-.4-1c-.1-.4-.1-.8-.1-1.3c0-.5 0-1 .1-1.3c.1-.4.2-.8.4-1c.2-.3.4-.5.6-.7c.2-.1.5-.2.8-.2c.3 0 .5.1.8.2c.2.1.4.3.6.6c.1.2.3.5.4.8c.1.4.1.8.2 1.2h1.1zm-3.1 2.8c.4 0 .7-.2.9-.6c.2-.5.3-1.1.3-1.8c0-.4 0-.7-.1-1c0-.3-.1-.6-.2-.8c-.1-.2-.3-.3-.4-.5c-.1-.1-.3-.1-.5-.1c-.4 0-.6.2-.9.6c-.2.5-.3 1-.3 1.8c0 .7.1 1.3.3 1.8c.3.4.5.6.9.6zm14.5-3.6v.7h-6.3v-3.1h.9v2.4h5.4zm-7.4 1.9h8.3v.7H163v-.7zm1.9 1.6v2h5.5v.7h-6.3v-2.7h.8zm10.1-2.2l-.2-.7c.4 0 .8-.1 1.2-.2c.4-.1.7-.2 1-.4c.3-.1.5-.3.7-.5c.1-.2.2-.4.3-.7h-2.9v-.7h2.9v-.9h.8v.9h2.9v.7h-2.8c0 .3.1.5.3.7c.1.2.4.4.7.5c.2.2.6.3 1 .4c.3.1.8.2 1.2.2l-.3.7c-.3 0-.7-.1-1.1-.2l-.9-.3c-.3-.2-.6-.3-.8-.5c-.3-.2-.4-.4-.6-.6c-.1.2-.3.4-.5.6c-.3.2-.5.3-.8.5c-.3.1-.6.2-1 .3c-.3.1-.7.2-1.1.2zm3.8.7h3.8v.7h-8.3v-.7h3.7v-1.1h.8v1.1zm-.4 1.3c1 0 1.8.2 2.3.4c.6.3.8.7.8 1.2c0 .5-.2.8-.8 1.1c-.5.3-1.3.4-2.3.4c-1 0-1.8-.1-2.3-.4c-.5-.3-.8-.6-.8-1.1c0-.5.3-.9.8-1.2c.5-.2 1.3-.4 2.3-.4zm0 2.4c.7 0 1.3 0 1.7-.2c.4-.1.6-.4.6-.6c0-.3-.2-.5-.6-.7c-.4-.2-1-.2-1.7-.2c-.7 0-1.3 0-1.7.2c-.4.2-.6.4-.6.7c0 .2.2.5.6.6c.4.2 1 .2 1.7.2zm10.5-.8h1.5v.7h-4.1v-.7h1.7V21c.01.04-1.4 1.3-1.4 1.3l-.5-.6l2.1-1.8h.7v6.8zm7.3-4.9c0 .9-.4 1.4-1.2 1.7c.5.2.9.4 1.1.7c.3.3.4.7.4 1.2c0 .4-.1.7-.2.9c-.1.3-.3.5-.5.7c-.3.2-.5.4-.8.5c-.4.1-.7.1-1.1.1c-.4 0-.7 0-1-.1c-.3-.1-.6-.3-.9-.5c-.2-.2-.4-.4-.5-.7c-.1-.2-.2-.5-.2-.9c0-.5.2-.9.4-1.2c.3-.3.6-.5 1.1-.7c-.4-.1-.7-.3-.9-.6c-.2-.3-.3-.7-.3-1.1c0-.3.1-.6.2-.8c.1-.2.2-.4.4-.6c.2-.2.5-.4.8-.5c.2-.1.6-.1.9-.1c.4 0 .7 0 1 .1c.2.1.5.3.7.5c.2.2.4.4.5.6c.1.2.1.5.1.8zm-2.3-1.3c-.4 0-.8.1-1 .4c-.3.2-.4.6-.4.9c0 .2.1.4.1.5c.1.2.1.3.2.5c.1.1.3.2.5.3c.1 0 .4.1.6.1c.3 0 .5-.1.7-.1c.1-.1.3-.2.4-.3c.1-.2.2-.3.2-.5c.1-.1.1-.3.1-.5c0-.3-.1-.7-.3-.9c-.3-.3-.6-.4-1.1-.4zm0 6.3c.5 0 .9-.1 1.2-.3c.3-.3.4-.7.4-1.1c0-.2 0-.5-.1-.7c-.1-.1-.2-.3-.4-.4c-.1-.1-.3-.2-.5-.3c-.2 0-.4-.1-.6-.1c-.2 0-.4.1-.6.1c-.2.1-.4.2-.5.3c-.2.1-.3.3-.4.4c0 .2-.1.5-.1.7c0 .4.2.8.4 1.1c.3.2.7.3 1.2.3zm7.6-2.1h1.2v.7h-1.2v2h-.8v-2H197v-.6l3.7-4.9h.8v4.8zm-3.5 0h2.7v-3.4c0-.1 0-.2.1-.3c-.04-.04-2.8 3.7-2.8 3.7zm9.8-1.7v.8h-4.2v-4.1h4.2v.8h2.1v-1.4h.8v5.4h-.8V23h-2.1zm-.9.1v-2.7h-2.5v2.7h2.5zm3-1.9h-2.1v1.1h2.1v-1.1zm-2.2 3.5c.9 0 1.7.2 2.2.5c.6.3.8.7.8 1.3c0 .2 0 .5-.2.7c-.1.2-.3.4-.6.5c-.3.2-.6.3-.9.4c-.4 0-.8.1-1.3.1c-.5 0-.9-.1-1.3-.1c-.4-.1-.7-.2-.9-.4c-.3-.1-.5-.3-.6-.5c-.2-.2-.3-.5-.3-.7c0-.3.1-.6.3-.8c.1-.2.3-.4.6-.5c.2-.2.5-.3.9-.4c.4 0 .8-.1 1.3-.1zm0 2.8c.7 0 1.2-.1 1.6-.2c.4-.2.6-.5.6-.8c0-.4-.2-.7-.6-.8c-.4-.2-.9-.3-1.6-.3c-.7 0-1.3.1-1.6.3c-.4.1-.6.4-.6.8c0 .3.2.6.6.8c.3.1.9.2 1.6.2zM219 19h.8v9.2h-.8V19zm-3.7.7c.4 0 .7.1 1 .2c.3.1.6.2.8.4c.2.2.4.4.5.7c.1.3.2.5.2.9c0 .3-.1.6-.2.8c-.1.3-.3.5-.5.7c-.2.2-.5.4-.8.5c-.3.1-.6.1-1 .1c-.3 0-.7 0-1-.1c-.3-.1-.5-.3-.7-.5c-.3-.2-.4-.4-.5-.7c-.2-.2-.2-.5-.2-.8c0-.4 0-.6.2-.9c.1-.3.2-.5.5-.7c.2-.2.4-.3.7-.4c.3-.1.7-.2 1-.2zm0 .7c-.2 0-.4.1-.6.1l-.6.3c-.1.2-.2.3-.3.5c-.1.2-.1.3-.1.6c0 .2 0 .4.1.5c.1.2.2.4.3.5l.6.3c.2.1.4.1.6.1c.3 0 .5 0 .7-.1c.2-.1.4-.2.5-.3c.1-.1.2-.3.3-.5c.1-.1.2-.3.2-.5c0-.3-.1-.4-.2-.6c-.1-.2-.2-.3-.3-.5c-.1-.1-.3-.2-.5-.3c-.2 0-.4-.1-.7-.1zm-2.8 5.8l-.1-.7h1.4c.5 0 1 0 1.5-.1h1.5c.6-.1 1.1-.1 1.6-.2v.6c-.5.1-1 .2-1.5.2c-.6.1-1.1.1-1.6.1c-.5.1-1 .1-1.4.1h-1.4zm11.9-1.6l-.3-.7c.4 0 .8-.2 1.2-.3c.4-.2.8-.4 1.1-.6c.3-.3.5-.5.7-.8c.1-.4.2-.7.2-1c.04-.04-2.9 0-2.9 0v-.7h2.9v-1.3h.9v1.3h2.9v.7s-2.92-.04-2.9 0c0 .3.1.6.2 1c.2.3.5.5.7.8c.3.2.7.4 1.1.6c.4.1.8.3 1.2.3l-.3.7l-1-.3c-.4-.1-.7-.3-1-.5c-.3-.1-.5-.3-.8-.6c-.2-.2-.4-.5-.5-.7c-.2.2-.4.5-.6.7c-.2.3-.5.5-.8.6c-.3.2-.6.4-.9.5l-1.1.3zm3.8 1.7h3.7v.7h-8.3v-.7h3.7v-2h.9v2zm7.1-3.1v1h-.9v-1h.9zm3.4-.4l-.3-.7c.4 0 .7-.1 1.1-.2c.4-.1.7-.3 1-.5c.3-.1.5-.3.7-.6c.2-.2.3-.4.3-.7c-.01.03-2.8 0-2.8 0v-.6h6.7v.6s-2.83.03-2.8 0c0 .3.1.5.3.7c.1.3.4.5.7.6c.2.2.6.4.9.5c.4.1.8.2 1.2.2l-.3.7l-1.1-.3l-.9-.3c-.3-.2-.6-.4-.8-.6c-.3-.2-.4-.4-.6-.7c-.1.3-.3.5-.5.7c-.2.2-.5.4-.8.6c-.3.1-.6.2-1 .3l-1 .3zm7.5 1.2h-3.7s-.05.98 0 1c.8 0 1.5.2 2 .4c.4.3.7.7.7 1.2c0 .5-.3.9-.9 1.2c-.5.2-1.3.4-2.3.4c-.9 0-1.7-.2-2.3-.4c-.5-.3-.8-.7-.8-1.2c0-.5.2-.9.7-1.2c.5-.2 1.1-.4 2-.4v-1h-3.7v-.7h8.3v.7zm-1.9 2.6c0-.3-.2-.6-.6-.7c-.4-.2-1-.3-1.7-.3c-.7 0-1.3.1-1.7.3c-.4.1-.6.4-.6.7c0 .3.2.5.6.7c.4.2 1 .2 1.7.2c.7 0 1.3 0 1.7-.2c.4-.2.6-.4.6-.7zm5.3-3.4v1h-.9v-1h.9zm9-2.3c.03-.03 0-.3 0-.3h-5.5v-.6h6.4s-.03.87 0 .9v.8c0 .4-.1.7-.1 1c0 .4 0 .7-.1 1.1c0 .4-.1.8-.2 1.3l-.8-.1c.2-.9.3-1.6.3-2.3v-1.8zm-2.4 5.3h4.3v.7h-8.3v-.7h3.2v-3.3h.8v3.3zm12.5-4.4v.7h-6.3v-3.1h6.2v.7h-5.4v1.7h5.5zm-7.3 1.6h8.2v.7h-8.2v-.7zm4.1 1.5c1 0 1.7.1 2.3.4c.5.3.8.7.8 1.2c0 .6-.3 1-.8 1.3c-.6.2-1.3.4-2.3.4c-1 0-1.8-.2-2.3-.4c-.6-.3-.8-.7-.8-1.3c0-.5.2-.9.8-1.2c.5-.3 1.3-.4 2.3-.4zm0 2.6c.7 0 1.3-.1 1.7-.2c.4-.2.6-.4.6-.8c0-.3-.2-.5-.6-.7c-.4-.2-1-.3-1.7-.3c-.7 0-1.3.1-1.7.3c-.4.2-.6.4-.6.7c0 .4.2.6.6.8c.4.1 1 .2 1.7.2zM276 20v.7h-5.4v-.7h2.2v-1h.9v1h2.3zm3 1.6v.7h-1.4v2.5h-.8v-5.7h.8v2.5h1.4zm-3.6 1.2c0 .3 0 .5-.1.7c-.1.2-.3.4-.5.5c-.2.2-.4.3-.7.3c-.2.1-.5.2-.8.2c-.4 0-.7-.1-.9-.2c-.3 0-.5-.1-.7-.3c-.2-.1-.4-.3-.5-.5c-.1-.2-.1-.4-.1-.7c0-.2 0-.5.1-.7c.1-.2.3-.4.5-.5c.2-.1.4-.3.7-.3c.2-.1.5-.1.9-.1c.3 0 .6 0 .8.1c.3 0 .5.2.7.3c.2.2.4.3.5.5c.1.2.1.5.1.7zm-3.5 0c0 .3.1.6.3.7c.3.2.6.3 1.1.3c.4 0 .7-.1 1-.3c.2-.1.4-.4.4-.7c0-.3-.2-.5-.4-.7c-.3-.2-.6-.3-1-.3c-.5 0-.8.1-1.1.3c-.2.2-.3.4-.3.7zm-.2 3.1v-.6h5.9v2.9h-.8v-2.3h-5.1zm13.8-3.7v2.2h-.8v-5.2h.8v2.3h1.1v-2.4h.8v5.6h-.8v-2.5h-1.1zm-1.2 1.1l-.5.7c-.4-.2-.8-.4-1.1-.8c-.3-.3-.5-.6-.7-1c-.1.4-.4.8-.7 1.2c-.3.4-.7.6-1.1.8l-.5-.6c.3-.1.6-.3.8-.5c.3-.2.5-.5.6-.7c.2-.2.3-.5.4-.8c.1-.2.1-.5.1-.8c.03.05 0-1.2 0-1.2h.8s.04 1.25 0 1.2c0 .3.1.5.2.8c0 .2.2.5.3.7l.6.6c.2.2.5.3.8.4zm.1 1.6c.5 0 .9 0 1.3.1c.4.1.7.2.9.3c.3.2.5.3.7.5c.1.2.2.5.2.7c0 .3-.1.5-.2.7c-.2.2-.4.4-.7.5c-.2.2-.5.3-.9.4c-.4 0-.8.1-1.3.1c-.5 0-.9-.1-1.3-.1c-.3-.1-.7-.2-.9-.4c-.3-.1-.5-.3-.6-.5c-.2-.2-.2-.4-.2-.7c0-.2 0-.5.2-.7c.1-.2.3-.3.6-.5c.2-.1.6-.2.9-.3c.4-.1.8-.1 1.3-.1zm0 2.6c.7 0 1.3 0 1.7-.2c.4-.2.5-.4.5-.8c0-.3-.1-.5-.5-.7c-.4-.2-1-.3-1.7-.3c-.7 0-1.2.1-1.6.3c-.4.2-.6.4-.6.7c0 .4.2.6.6.8c.4.2.9.2 1.6.2zm13-4.6v.7h-1.5v4.6h-.8V19h.8v3.9h1.5zm-3.7 1.3l-.9-.1c.2-.8.2-1.4.3-2v-1.4c.01.02-3.8 0-3.8 0v-.7h4.6s.02.54 0 .5v1.5c0 .6-.1 1.3-.2 2.2zm-2.1-1.5s-.03 2.75 0 2.7h1.5c.5-.1.9-.1 1.4-.2l.1.6c-.5.1-1 .2-1.5.2c-.5.1-1 .1-1.5.1c-.5.1-.9.1-1.4.1h-1.3l-.1-.7h1.9c.04-.03 0-2.8 0-2.8h.9zm15.5-3.7h.8v9.2h-.8v-4.8h-1.3v4.3h-.8v-8.5h.8v3.5h1.3V19zm-5.8 1.8s.01 4.44 0 4.4h1.6c.5-.1 1-.1 1.5-.2l.1.7c-.3 0-.6.1-.8.1c-.3 0-.6.1-.8.1h-1.8c-.02.04-.6 0-.6 0v-5.7h3.4v.6h-2.6zm13.5-.8v.7h-5.4v-.7h2.2v-1h.9v1h2.3zm3 1.6v.7h-1.4v2.5h-.8v-5.7h.8v2.5h1.4zm-3.6 1.2c0 .3 0 .5-.1.7c-.1.2-.3.4-.5.5c-.2.2-.4.3-.7.3c-.2.1-.5.2-.8.2c-.4 0-.7-.1-.9-.2c-.3 0-.5-.1-.7-.3c-.2-.1-.4-.3-.5-.5c-.1-.2-.1-.4-.1-.7c0-.2 0-.5.1-.7c.1-.2.3-.4.5-.5c.2-.1.4-.3.7-.3c.2-.1.5-.1.9-.1c.3 0 .6 0 .8.1c.3 0 .5.2.7.3c.2.2.4.3.5.5c.1.2.1.5.1.7zm-3.5 0c0 .3.1.6.3.7c.3.2.6.3 1.1.3c.4 0 .7-.1 1-.3c.2-.1.4-.4.4-.7c0-.3-.2-.5-.4-.7c-.3-.2-.6-.3-1-.3c-.5 0-.8.1-1.1.3c-.2.2-.3.4-.3.7zm-.2 3.1v-.6h5.9v2.9h-.8v-2.3h-5.1zm13.8-3.7v2.2h-.8v-5.2h.8v2.3h1.1v-2.4h.8v5.6h-.8v-2.5h-1.1zm-1.2 1.1l-.5.7c-.4-.2-.8-.4-1.1-.8c-.3-.3-.5-.6-.7-1c-.1.4-.4.8-.7 1.2c-.3.4-.7.6-1.1.8l-.5-.6c.3-.1.6-.3.8-.5c.3-.2.5-.5.6-.7c.2-.2.3-.5.4-.8c.1-.2.1-.5.1-.8c.03.05 0-1.2 0-1.2h.8s.04 1.25 0 1.2c0 .3.1.5.2.8c0 .2.2.5.3.7l.6.6c.2.2.5.3.8.4zm.1 1.6c.5 0 .9 0 1.3.1c.4.1.7.2.9.3c.3.2.5.3.7.5c.1.2.2.5.2.7c0 .3-.1.5-.2.7c-.2.2-.4.4-.7.5c-.2.2-.5.3-.9.4c-.4 0-.8.1-1.3.1c-.5 0-.9-.1-1.3-.1c-.3-.1-.7-.2-.9-.4c-.3-.1-.5-.3-.6-.5c-.2-.2-.2-.4-.2-.7c0-.2 0-.5.2-.7c.1-.2.3-.3.6-.5c.2-.1.6-.2.9-.3c.4-.1.8-.1 1.3-.1zm0 2.6c.7 0 1.3 0 1.7-.2c.4-.2.5-.4.5-.8c0-.3-.1-.5-.5-.7c-.4-.2-1-.3-1.7-.3c-.7 0-1.2.1-1.6.3c-.4.2-.6.4-.6.7c0 .4.2.6.6.8c.4.2.9.2 1.6.2zm11.5-8.5h.8v9.2h-.8V19zm-1.8 3.6v-3.4h.8v8.5h-.8v-4.4s-1.2-.02-1.2 0c0 .4-.1.8-.2 1.2c-.1.3-.2.7-.4.9c-.1.3-.3.4-.6.6c-.2.1-.5.2-.7.2c-.3 0-.6-.1-.8-.2c-.3-.2-.5-.4-.7-.7c-.1-.3-.3-.6-.4-1c0-.4-.1-.8-.1-1.3c0-.5.1-1 .1-1.3c.1-.4.3-.8.4-1c.2-.3.4-.5.7-.7c.2-.1.5-.2.8-.2c.2 0 .5.1.7.2c.2.1.4.3.6.6c.2.2.3.5.4.8c.1.4.2.8.2 1.2h1.2zm-3.1 2.8c.3 0 .6-.2.8-.6c.2-.5.3-1.1.3-1.8v-1c-.1-.3-.2-.6-.3-.8c-.1-.2-.2-.3-.4-.5c-.1-.1-.3-.1-.4-.1c-.4 0-.7.2-.9.6c-.2.5-.3 1-.3 1.8c0 .7.1 1.3.3 1.8c.2.4.5.6.9.6zm14.1-6.4h.7v9.2h-.7V19zm-2 3.8v-3.5h.8v8.4h-.8v-4.2s-1.83-.04-1.8 0c-.3.5-.7 1-1.1 1.4c-.5.5-1 .9-1.6 1.3l-.5-.6c1-.6 1.7-1.3 2.2-2.1c.5-.8.8-1.6.9-2.6h-2.7v-.7h3.5c0 .5 0 .9-.1 1.3c-.1.5-.2.9-.3 1.3c-.04-.02 1.5 0 1.5 0zm12.9-3.7h.8v9.1h-.8v-9.1zm-3.7 4.1c-.3 0-.6 0-.9-.1c-.3-.1-.5-.2-.7-.4c-.3-.2-.4-.3-.5-.6c-.1-.2-.2-.5-.2-.7c0-.3.1-.6.2-.8c.1-.2.2-.4.5-.6c.2-.2.4-.3.7-.4c.3-.1.6-.1.9-.1c.4 0 .7 0 1 .1c.3.1.5.2.7.4c.2.2.4.4.5.6c.1.2.2.5.2.8c0 .2-.1.5-.2.7c-.1.3-.3.4-.5.6c-.2.2-.4.3-.7.4c-.3.1-.6.1-1 .1zm0-3c-.4 0-.8.1-1.1.3c-.3.2-.4.5-.4.9c0 .3.1.6.4.8c.3.2.7.3 1.1.3c.5 0 .8-.1 1.1-.3c.3-.2.5-.5.5-.8c0-.4-.2-.7-.5-.9c-.3-.2-.6-.3-1.1-.3zm3 3.5l.1.6c-.9.2-1.7.3-2.6.3c-.01.01 0 3.3 0 3.3h-.8s-.04-3.24 0-3.2h-2.6l-.1-.7h2.9c.5-.1 1.1-.1 1.6-.1c.5-.1 1-.1 1.5-.2zm7.8 2.7h3.7v.7h-8.3v-.7h3.7v-1.7h-2.7v-2.9h5.5v-1.4h-5.5v-.7h6.3v2.8h-5.4v1.5h5.6v.7h-2.9v1.7zm13.1-3.6v.7h-1.5v4.7h-.8V19h.8v3.8h1.5zm-5.4 1.1v1.6c.5-.1.9-.1 1.3-.1c.4-.1.8-.1 1.2-.1l.1.6c-.5 0-1 .1-1.5.2c-.5 0-1 0-1.5.1h-2.7l-.1-.7h2.4v-1.6c-.3 0-.6-.1-.8-.2c-.2-.1-.5-.3-.6-.5c-.2-.2-.4-.4-.5-.6c-.1-.3-.1-.5-.1-.8c0-.3.1-.6.2-.9c.1-.3.3-.5.5-.7c.2-.2.4-.3.7-.4c.3-.1.7-.2 1-.2c.4 0 .7.1 1 .2c.3.1.5.2.8.4c.2.2.3.4.5.7c.1.3.1.6.1.9c0 .3 0 .5-.1.8c-.1.2-.2.4-.4.6c-.2.2-.4.3-.6.5c-.3.1-.6.2-.9.2zm-2-2.1c0 .4.2.8.5 1c.3.3.7.4 1.1.4c.5 0 .9-.1 1.2-.4c.3-.2.4-.6.4-1c0-.2 0-.4-.1-.6c-.1-.2-.2-.3-.3-.5c-.2-.1-.3-.2-.5-.3c-.2 0-.4-.1-.7-.1c-.2 0-.4.1-.6.1c-.2.1-.4.2-.5.3c-.2.2-.3.3-.4.5c0 .2-.1.4-.1.6z" stroke="none" fill="#111111"/></g><g id="Polygon123520"><path d="m7 2.5v-.4H1.4v-.6h6.4s.04.97 0 1v1.8c0 .3 0 .7-.1 1c0 .4-.1.8-.2 1.2l-.8-.1c.1-.7.2-1.3.2-1.9c.1-.7.1-1.3.1-2zM5.7 7.7h3.1v.7H.5v-.7h2.1v-3h.8v3h1.4v-3h.9v3zm8.6-2.3h3.7v.7H9.7v-.7h3.7v-.9h-2.6V.8h6.2v.7h-5.4v.8h5.1v.6h-5.1v.9h5.4v.7h-2.7v.9zm-.4 1.4c1 0 1.7.1 2.3.3c.5.3.8.6.8 1.1c0 .5-.3.9-.8 1.1c-.6.3-1.3.4-2.3.4c-1.1 0-1.8-.1-2.4-.4c-.5-.2-.8-.6-.8-1.1c0-.5.3-.8.8-1.1c.6-.2 1.3-.3 2.4-.3zm0 2.2c.7 0 1.3 0 1.7-.2c.3-.1.5-.3.5-.6c0-.3-.2-.5-.5-.6c-.4-.2-1-.2-1.7-.2c-.8 0-1.4 0-1.8.2c-.3.1-.5.3-.5.6c0 .3.2.5.5.6c.4.2 1 .2 1.8.2zm13.5-4.7v.6h-1.5v4.8h-.8V.6h.8v3.7h1.5zm-5.4-3s-.03 1.68 0 1.7c0 .4 0 .8.2 1.2c.1.4.2.7.5 1.1c.2.3.4.7.7.9c.3.3.6.5.9.7l-.5.7c-.5-.3-1-.7-1.3-1.2c-.4-.5-.7-1-.9-1.7c-.2.7-.5 1.3-.9 1.8c-.4.5-.9 1-1.4 1.2l-.5-.6c.3-.2.6-.4.9-.7c.3-.3.6-.6.8-1c.2-.4.3-.8.5-1.2c.1-.4.1-.8.1-1.2c.04-.02 0-1.7 0-1.7h.9zm12.5 1.1c.04-.03 0-.3 0-.3H29v-.6h6.4s-.03.87 0 .9v.8c0 .4 0 .7-.1 1c0 .4 0 .7-.1 1.1c0 .4-.1.8-.2 1.3l-.8-.1c.2-.9.3-1.6.3-2.3V2.4zm-2.4 5.3h4.3v.7h-8.3v-.7h3.2V4.4h.8v3.3zm11.4-2.8c-.5 0-.9 0-1.3-.1c-.4-.1-.8-.3-1-.4c-.3-.2-.5-.4-.7-.7c-.2-.2-.2-.5-.2-.8c0-.3 0-.6.2-.8c.2-.3.4-.5.7-.7c.2-.1.6-.3 1-.4c.4 0 .8-.1 1.3-.1c.4 0 .9.1 1.3.1c.4.1.7.3 1 .4c.3.2.5.4.6.7c.2.2.3.5.3.8c0 .3-.1.6-.3.8c-.1.3-.3.5-.6.7c-.3.1-.6.3-1 .4c-.4.1-.9.1-1.3.1zm0-3.3c-.4 0-.7 0-1 .1c-.3 0-.5.1-.7.2c-.2.2-.4.3-.5.5c-.1.1-.2.3-.2.5c0 .2.1.4.2.5c.1.2.3.4.5.5c.2.1.4.2.7.2c.3.1.6.1 1 .1c.3 0 .6 0 .9-.1c.3 0 .6-.1.8-.2c.2-.1.3-.3.4-.5c.2-.1.2-.3.2-.5c0-.2 0-.4-.2-.5c-.1-.2-.2-.3-.4-.5c-.2-.1-.5-.2-.8-.2c-.3-.1-.6-.1-.9-.1zm4.1 4.2v.6h-2.1v3.3h-.9V6.4h-2.3v3.3h-.8V6.4h-2.2v-.6h8.3zm9.5-1.6v.7h-1.5v4.8h-.9V.6h.9v3.6h1.5zm-5.5-2v1.1c0 .4.1.8.2 1.1c.1.4.3.8.5 1.1c.2.3.5.6.7.9c.3.3.6.5 1 .6l-.5.7c-.5-.2-1-.6-1.4-1.1c-.4-.5-.7-1.1-.9-1.7c-.1.3-.2.7-.4 1c-.2.3-.3.6-.5.8c-.2.3-.5.5-.7.7c-.2.2-.5.4-.7.5l-.5-.6c.3-.2.6-.4.9-.7c.3-.3.5-.6.8-1c.2-.3.4-.7.5-1.1c.1-.4.2-.8.2-1.2c-.02.04 0-1.1 0-1.1h-2.1v-.7h4.9v.7h-2zM64.4.5h.8v9.2h-.8V5.4h-2.7v-.6h2.7V3.4h-2.7v-.7h2.7V.5zM59 1.6s.04 5.27 0 5.3h1.1c.3-.1.6-.1.9-.1c.3 0 .6-.1.9-.1c.4 0 .7-.1 1-.2l.1.7c-.4.1-.7.2-1 .2c-.3.1-.6.1-1 .1c-.3 0-.6.1-1 .1h-1.1c-.01-.02-.7 0-.7 0v-6h.8zM73.5.5h.8v9.2h-.8V.5zm-3.7.7c.4 0 .7.1 1 .2c.3.1.6.2.8.4c.2.2.4.4.5.7c.1.3.2.5.2.9c0 .3-.1.6-.2.8c-.1.3-.3.5-.5.7c-.2.2-.5.4-.8.5c-.3.1-.6.1-1 .1c-.3 0-.6 0-.9-.1c-.3-.1-.6-.3-.8-.5c-.2-.2-.4-.4-.5-.7c-.1-.2-.2-.5-.2-.8c0-.4.1-.6.2-.9c.1-.3.3-.5.5-.7c.2-.2.5-.3.8-.4c.3-.1.6-.2.9-.2zm0 .7c-.2 0-.4.1-.6.1c-.2.1-.4.2-.5.3c-.2.2-.3.3-.4.5c0 .2-.1.3-.1.6c0 .2.1.4.1.5c.1.2.2.4.4.5c.1.1.3.2.5.3c.2.1.4.1.6.1c.3 0 .5 0 .7-.1c.2-.1.4-.2.5-.3c.2-.1.3-.3.4-.5c0-.1.1-.3.1-.5c0-.3-.1-.4-.1-.6c-.1-.2-.2-.3-.4-.5c-.1-.1-.3-.2-.5-.3c-.2 0-.4-.1-.7-.1zM67 7.7l-.1-.7h1.4c.5 0 1 0 1.5-.1h1.6c.5-.1 1-.1 1.5-.2l.1.6c-.5.1-1.1.2-1.6.2c-.5.1-1 .1-1.5.1c-.6.1-1 .1-1.5.1H67zm16.6-6.2v.7h-5.4v-.7h2.2v-1h.9v1h2.3zm3 1.6v.7h-1.4v2.5h-.8V.6h.8v2.5h1.4zm-3.5 1.2c0 .3-.1.5-.2.7c-.1.2-.3.4-.4.5c-.2.2-.5.3-.7.3c-.3.1-.6.2-.9.2c-.4 0-.7-.1-.9-.2c-.3 0-.5-.1-.7-.3c-.2-.1-.4-.3-.5-.5c-.1-.2-.1-.4-.1-.7c0-.2 0-.5.1-.7c.1-.2.3-.4.5-.5c.2-.1.4-.3.7-.3c.2-.1.5-.1.9-.1c.3 0 .6 0 .9.1c.2 0 .5.2.7.3c.1.2.3.3.4.5c.1.2.2.5.2.7zm-3.6 0c0 .3.1.6.4.7c.2.2.5.3 1 .3c.4 0 .7-.1 1-.3c.2-.1.4-.4.4-.7c0-.3-.2-.5-.4-.7c-.3-.2-.6-.3-1-.3c-.5 0-.8.1-1 .3c-.3.2-.4.4-.4.7zm-.2 3.1v-.6h5.9v2.9h-.8V7.4h-5.1zM94 .6h.9v4.9h-.9V3.4s-1.84.01-1.8 0c-.1.6-.4 1-.8 1.3c-.4.3-.9.5-1.6.5c-.3 0-.6 0-.9-.2c-.3-.1-.6-.2-.8-.4c-.2-.2-.3-.4-.5-.7c-.1-.2-.1-.5-.1-.8c0-.3 0-.6.1-.9c.2-.2.3-.5.5-.6c.2-.2.5-.4.8-.5c.3-.1.6-.1.9-.1c.3 0 .6 0 .9.1c.2.1.5.2.7.4c.2.1.4.3.5.5c.1.2.2.5.2.7c.05.02 1.9 0 1.9 0V.6zm-4.2 3.9c.2 0 .5 0 .6-.1c.2-.1.4-.2.5-.3c.2-.1.3-.3.4-.4c0-.2.1-.4.1-.6c0-.2-.1-.4-.1-.6c-.1-.2-.2-.3-.4-.4c-.1-.2-.3-.3-.5-.3c-.1-.1-.4-.1-.6-.1c-.2 0-.4 0-.6.1c-.2 0-.4.1-.5.3c-.1.1-.2.2-.3.4c-.1.2-.1.4-.1.6c0 .2 0 .4.1.6c.1.1.2.3.3.4c.1.1.3.2.5.3c.2.1.4.1.6.1zM94 7.1V5.9h.9v3.7H89V5.9h.8v1.2h4.2zm0 1.8V7.7h-4.2v1.2h4.2zM105.2.6h.9v9.1h-.9V.6zm-3.4 1.6s.05 1.14 0 1.1c0 .4.1.8.2 1.2c.2.4.3.7.6 1.1c.2.3.4.6.7.8c.3.3.7.5 1 .6l-.5.7c-.5-.2-1-.6-1.4-1.1c-.4-.5-.8-1.1-1-1.7c-.1.3-.2.7-.4 1c-.1.3-.3.6-.5.8c-.2.3-.4.5-.7.7c-.2.2-.5.4-.7.5l-.5-.6c.3-.2.6-.4.9-.7c.3-.3.6-.6.8-.9c.2-.4.4-.8.5-1.2c.1-.4.2-.8.2-1.2c.01.04 0-1.1 0-1.1h-2.1v-.7h5.1v.7h-2.2zm10.8 3.7h1.8V.5h.8v7h-.8v-.9h-1.8v-.7zm-1.9-1.8c-.3 0-.6 0-.9-.1c-.3-.1-.5-.2-.7-.3c-.2-.2-.4-.3-.5-.5c-.1-.2-.2-.5-.2-.7c0-.2.1-.5.2-.7c.1-.2.3-.3.5-.5c.2-.1.4-.2.7-.3c.3-.1.6-.1.9-.1c.3 0 .6 0 .9.1c.3.1.5.2.7.3c.2.2.4.3.5.5c.1.2.1.5.1.7c0 .2 0 .5-.1.7c-.1.2-.3.3-.5.5c-.2.1-.4.2-.7.3c-.3.1-.6.1-.9.1zm0-2.6c-.4 0-.8.1-1.1.3c-.2.2-.4.4-.4.7c0 .3.2.5.4.7c.3.2.7.3 1.1.3c.4 0 .8-.1 1-.3c.3-.2.4-.4.4-.7c0-.3-.1-.5-.4-.7c-.2-.2-.6-.3-1-.3zm-.3 5.7s-.04-1.78 0-1.8c-.5 0-.9.1-1.4.1h-1.2l-.1-.7h1.4c.5 0 1 0 1.5-.1h1.5c.5-.1 1-.1 1.5-.2l.1.6c-.4.1-.8.1-1.3.2c-.4 0-.8 0-1.2.1v1.8h-.8zm-.5 1.6h5.6v.7H109V6.8h.9v2zm11.2-4.9c-1 0-1.8-.2-2.4-.4c-.6-.3-.8-.7-.8-1.2c0-.5.2-.9.8-1.2c.6-.3 1.4-.4 2.4-.4c1 0 1.8.1 2.3.4c.6.3.9.7.9 1.2c0 .5-.3.9-.9 1.2c-.5.2-1.3.4-2.3.4zm0-2.6c-.8 0-1.4.1-1.8.3c-.4.1-.6.4-.6.7c0 .3.2.5.6.7c.4.2 1 .2 1.8.2c.7 0 1.3 0 1.7-.2c.4-.2.6-.4.6-.7c0-.3-.2-.6-.6-.7c-.4-.2-1-.3-1.7-.3zm-4.2 3.2h8.3v.7h-8.3v-.7zm1.9 3.5v.9h5.6v.7H118V7.4h5.3v-.8h-5.4v-.7h6.3v2.1h-5.4zM134.9.6h.8v9.1h-.8V.6zm-3.7 4.1c-.3 0-.7 0-.9-.1c-.3-.1-.6-.2-.8-.4c-.2-.2-.3-.3-.5-.6c-.1-.2-.1-.5-.1-.7c0-.3 0-.6.1-.8c.2-.2.3-.4.5-.6c.2-.2.5-.3.8-.4c.2-.1.6-.1.9-.1c.3 0 .7 0 .9.1c.3.1.6.2.8.4c.2.2.3.4.5.6c.1.2.1.5.1.8c0 .2 0 .5-.1.7c-.2.3-.3.4-.5.6c-.2.2-.5.3-.8.4c-.2.1-.6.1-.9.1zm0-3c-.4 0-.8.1-1.1.3c-.3.2-.4.5-.4.9c0 .3.1.6.4.8c.3.2.7.3 1.1.3c.5 0 .8-.1 1.1-.3c.3-.2.4-.5.4-.8c0-.4-.1-.7-.4-.9c-.3-.2-.6-.3-1.1-.3zm3 3.5l.1.6c-.9.2-1.8.3-2.6.3c-.04.01 0 3.3 0 3.3h-.9s.02-3.24 0-3.2h-2.5l-.1-.7h2.9c.5-.1 1-.1 1.6-.1c.5-.1 1-.1 1.5-.2zm8.6-3.5v.6h-5.4v-.6h2.3V.6h.8v1.1h2.3zm1.7 1.9h1.3v.7h-1.3v3.1h-.9V.6h.9v3zm-2.2.9c0 .3-.1.5-.2.7c-.1.3-.2.4-.4.6c-.2.1-.4.2-.7.3c-.3.1-.6.1-.9.1c-.3 0-.6 0-.9-.1c-.2-.1-.5-.2-.7-.3c-.2-.2-.3-.3-.4-.6c-.1-.2-.2-.4-.2-.7c0-.2.1-.5.2-.7c.1-.2.2-.3.4-.5c.2-.1.5-.3.7-.3c.3-.1.6-.2.9-.2c.3 0 .6.1.9.2c.3 0 .5.2.7.3c.2.2.3.3.4.5c.1.2.2.5.2.7zm-3.6 0c0 .4.1.6.4.8c.2.2.6.3 1 .3c.4 0 .8-.1 1-.3c.3-.2.4-.4.4-.8c0-.3-.1-.5-.4-.7c-.2-.2-.6-.3-1-.3c-.4 0-.8.1-1 .3c-.3.2-.4.4-.4.7zm.9 2.4v1.9h5.3v.7h-6.1V6.9h.8zm16.1-4h1.4v.7h-1.4v2.5h-.8V.6h.8v2.3zM153.9 5l-.3.6c-.6-.1-1-.4-1.4-.7c-.4-.4-.7-.8-.9-1.2c-.2.5-.5.9-.9 1.3c-.3.4-.8.7-1.4.9l-.4-.7c.4-.1.7-.3.9-.5c.3-.2.6-.4.8-.6c.2-.3.3-.6.4-.9c.1-.3.2-.6.2-.9v-.4h-2.1v-.7h5v.7h-2.1s.03.35 0 .4c0 .3.1.5.2.8c.1.3.2.6.4.8c.2.2.5.4.7.6c.3.2.6.4.9.5zm-1.1 1.3c.5 0 .9 0 1.3.1c.4.1.7.2.9.3c.3.2.5.4.6.6c.2.2.2.4.2.7c0 .3 0 .5-.2.7c-.1.2-.3.4-.6.5c-.2.2-.5.3-.9.4c-.4 0-.8.1-1.3.1c-.9 0-1.6-.2-2.2-.5c-.5-.3-.8-.7-.8-1.2c0-.5.3-1 .8-1.3c.6-.2 1.3-.4 2.2-.4zm0 2.7c.7 0 1.2-.1 1.6-.3c.4-.1.6-.4.6-.7c0-.3-.2-.6-.6-.8c-.4-.1-.9-.2-1.6-.2c-.7 0-1.2.1-1.6.2c-.4.2-.5.5-.5.8c0 .3.1.6.5.7c.4.2.9.3 1.6.3zm10.5-7.5v.7h-5.4v-.7h2.2v-1h.9v1h2.3zm3 1.6v.7h-1.4v2.5h-.8V.6h.8v2.5h1.4zm-3.6 1.2c0 .3 0 .5-.1.7c-.1.2-.3.4-.5.5c-.2.2-.4.3-.7.3c-.2.1-.5.2-.9.2c-.3 0-.6-.1-.8-.2c-.3 0-.5-.1-.7-.3c-.2-.1-.4-.3-.5-.5c-.1-.2-.1-.4-.1-.7c0-.2 0-.5.1-.7c.1-.2.3-.4.5-.5c.2-.1.4-.3.7-.3c.2-.1.5-.1.8-.1c.4 0 .7 0 .9.1c.3 0 .5.2.7.3c.2.2.4.3.5.5c.1.2.1.5.1.7zm-3.5 0c0 .3.1.6.3.7c.3.2.6.3 1 .3c.5 0 .8-.1 1.1-.3c.2-.1.3-.4.3-.7c0-.3-.1-.5-.3-.7c-.3-.2-.6-.3-1.1-.3c-.4 0-.7.1-1 .3c-.2.2-.3.4-.3.7zm-.2 3.1v-.6h5.9v2.9h-.8V7.4H159zM173.7.5h.8v9.2h-.8V.5zm-6.2 1s4.33.03 4.3 0c0 .7 0 1.3-.2 1.9c-.2.7-.4 1.2-.8 1.8c-.3.5-.7 1-1.3 1.5c-.5.5-1.2.9-1.9 1.3l-.5-.7c1.3-.6 2.2-1.3 2.8-2.2c.6-.8 1-1.8 1.1-2.9h-3.5v-.7zm15.7 2.9h1.3v.7h-8.3v-.7h6.1c.2-.6.2-1.1.3-1.5V1.7h-5.4v-.7h6.2s.02.7 0 .7v1.2c0 .4-.1.9-.2 1.5zm-6 5.2V6.3h6.2v3.3h-6.2zM178 7v1.9h4.6V7H178zm11.5-5.9c.5 0 .9.1 1.3.2c.4.1.8.3 1.1.5c.3.2.5.5.7.8c.1.3.2.7.2 1c0 .4-.1.8-.2 1.1c-.2.3-.4.6-.7.8c-.3.2-.7.4-1.1.5c-.4.1-.8.2-1.3.2c-.5 0-.9-.1-1.3-.2c-.4-.1-.8-.3-1.1-.5c-.3-.2-.5-.5-.7-.8c-.1-.3-.2-.7-.2-1.1c0-.3.1-.7.2-1c.2-.3.4-.6.7-.8c.3-.2.7-.4 1.1-.5c.4-.1.8-.2 1.3-.2zm0 .7c-.4 0-.7 0-1 .1c-.3.1-.6.2-.8.4c-.2.2-.4.4-.5.6c-.2.2-.2.5-.2.7c0 .3 0 .6.2.8c.1.2.3.4.5.6c.2.1.5.3.8.4c.3 0 .6.1 1 .1c.4 0 .7-.1 1-.1c.3-.1.6-.3.8-.4c.2-.2.4-.4.5-.6c.2-.2.2-.5.2-.8c0-.2 0-.5-.2-.7c-.1-.2-.3-.4-.5-.6c-.2-.2-.5-.3-.8-.4c-.3-.1-.6-.1-1-.1zm-4.1 6h8.3v.7h-8.3v-.7zm13.7.1h3.7v.7h-8.3v-.7h3.8V6.2h-2.7V3.3h5.4V1.9h-5.4v-.7h6.2v2.8h-5.4v1.5h5.6v.7h-2.9v1.7zm8.8.2h2.9v.8h-5v-.6l2.6-2.5c.2-.2.4-.4.5-.6c.2-.2.3-.4.5-.6c.1-.1.2-.3.2-.5c.1-.2.1-.4.1-.7c0-.4-.1-.7-.4-.9c-.2-.3-.5-.4-.9-.4c-.2 0-.4.1-.6.1c-.2.1-.4.2-.5.3c-.1.2-.2.3-.3.5c-.1.2-.1.4-.1.6l-.9-.2c0-.3.1-.6.2-.9l.6-.6c.2-.2.4-.3.7-.4c.3-.1.6-.2.9-.2c.3 0 .6.1.9.2c.3.1.5.2.7.4c.2.2.4.4.5.6c.1.3.2.6.2.9c0 .3-.1.6-.1.8c-.1.2-.2.5-.4.7c-.1.2-.3.4-.5.6c-.2.2-.4.5-.6.7l-2.1 2c.2 0 .3 0 .5-.1h.4zm9-2.9c0 .7 0 1.2-.2 1.7c-.1.5-.3.9-.6 1.2c-.2.4-.5.6-.8.7c-.4.2-.7.3-1.1.3c-.4 0-.7-.1-1.1-.3c-.3-.1-.6-.3-.9-.7c-.2-.3-.4-.7-.5-1.2c-.2-.5-.2-1-.2-1.7c0-.7 0-1.2.2-1.7c.1-.5.3-.9.5-1.2c.3-.3.6-.6.9-.7c.4-.2.7-.3 1.1-.3c.4 0 .7.1 1.1.3c.3.1.6.4.8.7c.3.3.5.7.6 1.2c.2.5.2 1 .2 1.7zm-.9 0c0-.6 0-1.1-.1-1.5c-.1-.4-.3-.7-.4-.9c-.2-.3-.4-.4-.6-.5c-.2-.1-.5-.2-.7-.2c-.2 0-.5.1-.7.2c-.2.1-.4.2-.6.5c-.1.2-.2.5-.3.9c-.1.4-.2.9-.2 1.5c0 .6.1 1.1.2 1.5c.1.4.2.7.3.9c.2.3.4.5.6.6c.2.1.5.1.7.1c.2 0 .5 0 .7-.1c.2-.1.4-.3.6-.6c.1-.2.3-.5.4-.9c.1-.4.1-.9.1-1.5zm4.9 3h1.5v.7h-4.1v-.7h1.7V2.5c.01.04-1.3 1.3-1.3 1.3l-.5-.6l2-1.8h.7v6.8zm4.6-.1h2.9v.8h-5v-.6l2.6-2.5l.6-.6c.1-.2.3-.4.4-.6c.1-.1.2-.3.3-.5c0-.2.1-.4.1-.7c0-.4-.2-.7-.4-.9c-.3-.3-.6-.4-1-.4c-.2 0-.4.1-.6.1c-.2.1-.3.2-.5.3c-.1.2-.2.3-.3.5c-.1.2-.1.4-.1.6l-.9-.2c0-.3.1-.6.3-.9c.1-.2.3-.4.5-.6c.2-.2.5-.3.7-.4c.3-.1.6-.2.9-.2c.4 0 .7.1.9.2c.3.1.5.2.8.4c.2.2.3.4.4.6c.1.3.2.6.2.9c0 .3 0 .6-.1.8c-.1.2-.2.5-.4.7c-.1.2-.3.4-.5.6c-.1.2-.3.5-.6.7l-2 2c.1 0 .2 0 .4-.1h.4zm10.5-.8V4.2h-2.6v-.7h2.6V2.4h-2.6v-.7h2.6V.6h.8v6.7h-.8zm-1.5-2.4l.1.7c-.8.2-1.4.3-2.1.3c-.6 0-1.3.1-2 .1c.03-.03-.7 0-.7 0V1.2h.9s-.03 4.06 0 4.1c.6 0 1.2-.1 1.8-.1c.6-.1 1.3-.1 2-.3zm-2.7 3.9h5.3v.7H231V6.7h.8v2.1zM245.7.9v4h-6.2v-4h.9v1.3h4.5V.9h.8zm-.8 3.3V2.8h-4.5v1.4h4.5zm1.9 1.8v.6H243v3.1h-.8V6.6h-3.7v-.6h8.3zm7.6-5.5h.8v9.2h-.8v-5h-1.9v-.7h1.9V.5zm-5.5 4.1s.02 2.21 0 2.2h2.2c.3-.1.6-.1.9-.1c.3-.1.6-.1.9-.2l.1.7c-.4.1-.7.1-1 .2h-1c-.3.1-.6.1-1 .1h-1.9V1.4h4.2v.7h-3.4v1.8h3v.7h-3zm14.6 3.2h3.7v.7h-8.3v-.7h3.7V5.4h-2.7V1.3h.9v3.4h5.5v.7h-2.8v2.4zm13.2-3.5v.6h-1.6v4.8h-.8V.6h.8v3.7h1.6zm-5.5-3s-.02 1.68 0 1.7c0 .4 0 .8.2 1.2c.1.4.2.7.5 1.1c.2.3.4.7.7.9c.3.3.6.5.9.7l-.5.7c-.5-.3-.9-.7-1.3-1.2c-.4-.5-.7-1-.9-1.7c-.2.7-.5 1.3-.9 1.8c-.4.5-.9 1-1.4 1.2l-.5-.6c.3-.2.6-.4.9-.7c.3-.3.6-.6.8-1c.2-.4.3-.8.5-1.2c.1-.4.1-.8.1-1.2c.05-.02 0-1.7 0-1.7h.9zm11.5.2v.7h-5.4v-.7h2.3V.4h.8v1.1h2.3zm3 1.4v.7h-1.3v2.3h-.9V.5h.9v2.4h1.3zm-3.5 1.3c0 .2-.1.4-.2.6c-.1.2-.2.4-.4.5c-.2.2-.4.3-.7.4c-.3 0-.6.1-.9.1c-.3 0-.6-.1-.9-.1c-.3-.1-.5-.2-.7-.4c-.2-.1-.3-.3-.4-.5c-.1-.2-.2-.4-.2-.6c0-.3.1-.5.2-.7c.1-.2.2-.3.4-.5c.2-.1.4-.2.7-.3c.3-.1.6-.1.9-.1c.3 0 .6 0 .9.1c.3.1.5.2.7.3c.2.2.3.3.4.5c.1.2.2.4.2.7zm-3.6 0c0 .3.1.5.4.7c.2.2.6.3 1 .3c.4 0 .8-.1 1-.3c.3-.2.4-.4.4-.7c0-.3-.1-.6-.4-.7c-.2-.2-.6-.3-1-.3c-.4 0-.8.1-1 .3c-.3.1-.4.4-.4.7zm5 3v-.9h.8v3.3h-5.8V6.3h.9v.9h4.1zm0 1.7v-1h-4.1v1h4.1zm9.5-8.4h.8v9.2h-.8V.5zm-3.7.7c.4 0 .7.1 1 .2c.3.1.6.2.8.4c.2.2.4.4.5.7c.1.3.2.5.2.9c0 .3-.1.6-.2.8c-.1.3-.3.5-.5.7c-.2.2-.5.4-.8.5c-.3.1-.6.1-1 .1c-.3 0-.6 0-.9-.1c-.3-.1-.6-.3-.8-.5c-.2-.2-.4-.4-.5-.7c-.2-.2-.2-.5-.2-.8c0-.4 0-.6.2-.9c.1-.3.3-.5.5-.7c.2-.2.5-.3.8-.4c.3-.1.6-.2.9-.2zm0 .7c-.2 0-.4.1-.6.1c-.2.1-.4.2-.5.3c-.2.2-.3.3-.4.5c-.1.2-.1.3-.1.6c0 .2 0 .4.1.5c.1.2.2.4.4.5c.1.1.3.2.5.3c.2.1.4.1.6.1c.3 0 .5 0 .7-.1c.2-.1.4-.2.5-.3c.1-.1.3-.3.3-.5c.1-.1.2-.3.2-.5c0-.3-.1-.4-.2-.6c0-.2-.2-.3-.3-.5c-.1-.1-.3-.2-.5-.3c-.2 0-.4-.1-.7-.1zm-2.8 5.8l-.1-.7h1.4c.5 0 1 0 1.5-.1h1.5c.6-.1 1.1-.1 1.6-.2l.1.6c-.6.1-1.1.2-1.6.2c-.5.1-1.1.1-1.6.1c-.5.1-1 .1-1.4.1h-1.4zm13.6.2h3.7v.7h-8.3v-.7h3.8V6.2h-2.7V3.3h5.4V1.9h-5.4v-.7h6.2v2.8h-5.4v1.5h5.6v.7h-2.9v1.7zM313.9.5h.8v9.2h-.8V4.8h-1.3v4.4h-.7V.7h.7v3.5h1.3V.5zm-6.7 6.7V1.6h3.5v5.6h-3.5zm.8-4.9v4.3h1.9V2.3H308zm14.8 5V4.2h-2.6v-.7h2.6V2.4h-2.6v-.7h2.6V.6h.8v6.7h-.8zm-1.5-2.4l.1.7c-.8.2-1.5.3-2.1.3c-.7 0-1.3.1-2 .1c.01-.03-.7 0-.7 0V1.2h.9s-.05 4.06 0 4.1c.6 0 1.2-.1 1.8-.1c.6-.1 1.3-.1 2-.3zm-2.7 3.9h5.3v.7h-6.1V6.7h.8v2.1zm10.5-6.5s-.35 1.94-.3 1.9c.3 0 .6-.1 1-.1c.4 0 .8.1 1.1.2c.3.1.5.3.7.5c.2.2.4.4.5.7c.1.3.2.6.2.9c0 .4-.1.8-.3 1.1c-.1.3-.3.6-.5.8c-.3.2-.6.4-.9.5c-.3.2-.7.2-1.1.2c-.4 0-.8-.1-1.2-.2l-.9-.6l.5-.7c.3.2.5.4.8.5c.3.1.6.2.9.2c.2 0 .5 0 .7-.1c.2-.1.4-.2.6-.4c.1-.1.2-.3.3-.5c.1-.2.2-.5.2-.8c0-.4-.2-.8-.5-1.1c-.3-.3-.7-.4-1.2-.4c-.2 0-.4 0-.6.1c-.2 0-.5.1-.7.1c.03.04-.6-.1-.6-.1l.6-3.6h3.6v.9h-2.9zM339.9.6h.9v5.3h-.9V3.6s-1.85-.02-1.9 0c0 .3-.1.5-.2.7c-.1.3-.3.5-.5.6c-.2.2-.4.3-.7.4c-.3.1-.6.2-.9.2c-.3 0-.6-.1-.9-.2c-.3-.1-.6-.3-.8-.5c-.2-.2-.3-.4-.5-.7c-.1-.2-.1-.5-.1-.9c0-.3 0-.6.1-.8c.2-.3.3-.5.5-.7c.2-.2.5-.4.8-.5c.3-.1.6-.1.9-.1c.3 0 .6 0 .9.1c.2.1.5.2.7.4c.2.1.4.3.5.5c.1.3.2.5.2.8h1.9V.6zm-4.2 4.1c.2 0 .5 0 .6-.1c.2 0 .4-.1.5-.3c.2-.1.3-.3.4-.5c0-.1.1-.3.1-.6c0-.2-.1-.4-.1-.6c-.1-.1-.2-.3-.4-.4c-.1-.1-.3-.2-.5-.3c-.1-.1-.4-.1-.6-.1c-.2 0-.4 0-.6.1c-.2.1-.4.2-.5.3c-.1.1-.2.3-.3.4c-.1.2-.1.4-.1.6c0 .3 0 .5.1.6c.1.2.2.4.3.5c.1.2.3.3.5.3c.2.1.4.1.6.1zm-1.1 2.4v-.7h6.2v3.3h-.9V7.1h-5.3zm14.7-1.2h1.8V.5h.9v7h-.9v-.9h-1.8v-.7zm-1.9-1.8c-.3 0-.6 0-.9-.1c-.3-.1-.5-.2-.7-.3c-.2-.2-.4-.3-.5-.5c-.1-.2-.1-.5-.1-.7c0-.2 0-.5.1-.7c.1-.2.3-.3.5-.5c.2-.1.4-.2.7-.3c.3-.1.6-.1.9-.1c.3 0 .6 0 .9.1c.3.1.5.2.7.3c.2.2.4.3.5.5c.1.2.2.5.2.7c0 .2-.1.5-.2.7c-.1.2-.3.3-.5.5c-.2.1-.4.2-.7.3c-.3.1-.6.1-.9.1zm0-2.6c-.4 0-.8.1-1 .3c-.3.2-.4.4-.4.7c0 .3.1.5.4.7c.2.2.6.3 1 .3c.4 0 .8-.1 1.1-.3c.2-.2.4-.4.4-.7c0-.3-.2-.5-.4-.7c-.3-.2-.7-.3-1.1-.3zm-.3 5.7s-.02-1.78 0-1.8c-.5 0-.9.1-1.3.1h-1.3l-.1-.7h1.4c.5 0 1 0 1.5-.1h1.5c.5-.1 1-.1 1.5-.2l.1.6c-.4.1-.8.1-1.2.2c-.4 0-.9 0-1.3.1c.02-.02 0 1.8 0 1.8h-.8zm-.5 1.6h5.6v.7h-6.5V6.8h.9v2zm16.2-5.9h1.4v.7h-1.4v2.5h-.8V.6h.8v2.3zM361 4.8l-.4.7c-.5-.2-.9-.5-1.3-.8c-.4-.4-.7-.8-.9-1.3c-.2.6-.5 1-.9 1.4c-.4.4-.8.7-1.4 1l-.4-.7c.3-.1.7-.3.9-.5c.3-.2.6-.5.8-.7c.2-.3.3-.6.4-.9c.1-.4.2-.7.2-1.1c-.02.05 0-.9 0-.9h.8v1c0 .3.1.6.2.9c.1.3.2.6.4.8c.2.3.5.5.7.7c.3.2.6.3.9.4zm-1.1 1.5c.5 0 .9.1 1.3.2c.4 0 .7.1.9.3c.3.1.5.3.6.5c.2.2.2.5.2.7c0 .3 0 .5-.2.7c-.1.2-.3.4-.6.5c-.2.2-.5.3-.9.4c-.4 0-.8.1-1.3.1c-.9 0-1.6-.2-2.2-.5c-.5-.2-.8-.7-.8-1.2c0-.2.1-.5.2-.7c.2-.2.4-.4.6-.5c.3-.2.6-.3 1-.3c.3-.1.8-.2 1.2-.2zm0 2.7c.7 0 1.2-.1 1.6-.2c.4-.2.6-.5.6-.8c0-.3-.2-.6-.6-.7c-.4-.2-.9-.3-1.6-.3c-.6 0-1.2.1-1.6.3c-.4.1-.5.4-.5.7c0 .3.1.6.5.8c.4.1 1 .2 1.6.2zM372 2.9h1.4v.7H372v2.4h-.8V.5h.8v2.4zm-1.8 1.4l.1.6c-.3.1-.6.1-.9.2c-.3 0-.6.1-1 .1h-1c-.4 0-.9.1-1.4.1c.05-.05-.7 0-.7 0V1.2h4.1v.7h-3.2s-.04 2.67 0 2.7h1.2c.4-.1.7-.1 1-.1c.3 0 .6-.1.9-.1c.3 0 .6-.1.9-.1zm-1.1 1.9c.5 0 .9 0 1.3.1c.3.1.7.2.9.3c.3.2.5.4.6.6c.2.2.2.4.2.7c0 .3 0 .5-.2.8c-.1.2-.3.4-.6.5c-.2.2-.6.3-.9.4c-.4 0-.8.1-1.3.1c-.4 0-.9-.1-1.2-.1c-.4-.1-.7-.2-1-.4c-.3-.1-.5-.3-.6-.5c-.1-.3-.2-.5-.2-.8c0-.3.1-.5.2-.7c.1-.2.3-.4.6-.6c.3-.1.6-.2 1-.3c.3-.1.8-.1 1.2-.1zm0 2.8c.7 0 1.2-.1 1.6-.3c.4-.2.6-.4.6-.8c0-.3-.2-.6-.6-.8c-.4-.2-.9-.3-1.6-.3c-.7 0-1.2.1-1.6.3c-.4.2-.6.5-.6.8c0 .4.2.6.6.8c.4.2.9.3 1.6.3zM380.7.5h.9v9.2h-.9V.5zm-3.6.7c.3 0 .7.1 1 .2c.3.1.5.2.7.4c.2.2.4.4.5.7c.2.3.2.5.2.9c0 .3 0 .6-.2.8c-.1.3-.3.5-.5.7c-.2.2-.4.4-.7.5c-.3.1-.7.1-1 .1c-.4 0-.7 0-1-.1c-.3-.1-.6-.3-.8-.5c-.2-.2-.4-.4-.5-.7c-.1-.2-.2-.5-.2-.8c0-.4.1-.6.2-.9c.1-.3.3-.5.5-.7c.2-.2.5-.3.8-.4c.3-.1.6-.2 1-.2zm0 .7c-.3 0-.5.1-.7.1c-.2.1-.4.2-.5.3c-.1.2-.3.3-.3.5c-.1.2-.2.3-.2.6c0 .2.1.4.2.5c0 .2.2.4.3.5c.1.1.3.2.5.3c.2.1.4.1.7.1c.2 0 .4 0 .6-.1c.2-.1.4-.2.5-.3c.2-.1.3-.3.4-.5c.1-.1.1-.3.1-.5c0-.3 0-.4-.1-.6c-.1-.2-.2-.3-.4-.5c-.1-.1-.3-.2-.5-.3c-.2 0-.4-.1-.6-.1zm-2.8 5.8l-.1-.7h1.3c.5 0 1 0 1.5-.1h1.6c.5-.1 1-.1 1.5-.2l.1.6c-.5.1-1 .2-1.6.2c-.5.1-1 .1-1.5.1c-.5.1-1 .1-1.5.1h-1.3z" stroke="none" fill="#111111"/></g></svg>