<?xml version="1.0" standalone="no"?><!DOCTYPE svg PUBLIC "-//W3C//DTD SVG 1.1//EN" "http://www.w3.org/Graphics/SVG/1.1/DTD/svg11.dtd"><svg xmlns="http://www.w3.org/2000/svg" version="1.1" width="162px" height="19.6px" viewBox="0 -2 162 19.6" style="top:-2px"><desc>기아 해피 모빌리티 나눔 캠페인</desc><defs/><g id="Polygon109790"><path d="m8.1.5h1.6v11.1H8.1V.5zm-7 1.2s5.33-.02 5.3 0c0 .8 0 1.6-.2 2.4c-.2.8-.4 1.5-.8 2.2c-.4.6-.9 1.3-1.6 1.8c-.6.6-1.4 1.1-2.4 1.6L.5 8.5c.7-.4 1.4-.7 1.9-1.1c.5-.4.9-.8 1.2-1.3c.4-.4.7-.9.8-1.5c.2-.5.4-1.1.4-1.7c.01.04-3.7 0-3.7 0V1.7zm20.7 3v1.3h-1.7v5.6h-1.5V.5h1.5v4.2h1.7zm-7.3-3.4c.4 0 .8.1 1.1.3c.4.2.7.4.9.8c.3.3.5.7.6 1.2c.2.5.3 1 .3 1.6c0 .7-.1 1.2-.3 1.7c-.1.5-.3.9-.6 1.2c-.2.4-.5.6-.9.8c-.3.2-.7.3-1.1.3c-.5 0-.8-.1-1.2-.3c-.4-.2-.7-.4-.9-.8c-.3-.3-.5-.7-.6-1.2c-.2-.5-.2-1-.2-1.7c0-.6 0-1.1.2-1.6c.1-.5.3-.9.6-1.2c.2-.4.5-.6.9-.8c.4-.2.7-.3 1.2-.3zm0 6.5c.4 0 .7-.2 1-.7c.2-.4.3-1 .3-1.9c0-.8-.1-1.4-.3-1.8c-.3-.5-.6-.7-1-.7c-.5 0-.8.2-1 .7c-.3.4-.4 1-.4 1.8c0 .9.1 1.5.4 1.9c.2.5.5.7 1 .7zM33.1.5h1.5v11.1h-1.5V6.3h-.8v4.8h-1.5V.7h1.5v4.3h.8V.5zm-4.5.3v1.4h1.8v1.3h-5.3V2.2h1.9V.8h1.6zm-.8 3.1c.3 0 .7.1 1 .2c.3.2.5.4.7.6c.2.2.4.5.5.8c.2.4.2.7.2 1.1c0 .4 0 .7-.2 1c-.1.4-.3.6-.5.9c-.2.2-.4.4-.7.5c-.3.2-.7.2-1 .2c-.4 0-.7 0-1-.2c-.3-.1-.5-.3-.7-.5c-.3-.3-.4-.5-.6-.9c-.1-.3-.1-.6-.1-1c0-.4 0-.7.1-1.1c.2-.3.3-.6.6-.8c.2-.2.4-.4.7-.6c.3-.1.6-.2 1-.2zm0 4c.3 0 .5-.1.7-.3c.2-.3.3-.6.3-1c0-.4-.1-.8-.3-1c-.2-.2-.4-.3-.7-.3c-.3 0-.6.1-.8.3c-.1.2-.2.6-.2 1c0 .4.1.7.2 1c.2.2.5.3.8.3zM43.7.6h1.6v11h-1.6v-11zm-2.1 2.2s.04 4.81 0 4.8h.7c.3-.1.5-.1.7-.1l.1 1.1l-1.8.3c-.6 0-1.2.1-1.7.1c-.6 0-1.2 0-1.8.1h-1.5c-.04-.03-.2-1.3-.2-1.3h1.2v-5h-.9V1.6h6.2v1.2h-1zm-2.7 0s-.02 4.94 0 4.9h1.2c.02 0 0-4.9 0-4.9h-1.2zM55.5 9h4.3v1.3h-10V9h4.2V6.8h-3.2V1.4h7.9v5.4h-3.2v2.2zm-3.1-6.4v2.9h4.7V2.6h-4.7zM69.9.5v5.7h-1.6V.5h1.6zm-3.2.5v4.9h-5.4V1h1.6v1.3h2.2V1h1.6zm-1.6 3.6V3.4h-2.2v1.2h2.2zm-1 5.7h6.1v1.2h-7.6v-3h5.8v-.6h-5.8V6.7h7.3v2.9h-5.8v.7zM79.3.5h1.6v11.1h-1.6V.5zm-5.4 5.2s.03 2.04 0 2h2.4l2.3-.3l.1 1.3c-.4 0-.9.1-1.3.2c-.4 0-.9.1-1.3.1h-2.8c.01.05-1 0-1 0V4.5h3.6V2.7h-3.6V1.5h5.2v4.2h-3.6zM90.3.5h1.6v11.1h-1.6V.5zm-5.4 5.3s-.02 2.02 0 2h2.3l2.2-.3l.1 1.3c-.4 0-.8.1-1.3.1c-.4.1-.8.1-1.2.1c-.4.1-.9.1-1.3.1h-2.4V1.5h5.6v1.2h-4v1.8h3.5v1.3h-3.5zm21.6-1.1v1.3H105v5.6h-1.6V.5h1.6v4.2h1.5zm-8.2-3.1s-.03 5.96 0 6c.7-.1 1.4-.1 2.1-.2c.8 0 1.5-.1 2.3-.3l.2 1.3c-1 .2-1.9.3-2.7.4c-.9 0-1.7.1-2.6.1c.04-.02-.9 0-.9 0V1.6h1.6zm17.9 1.6v1.3h-7.6V.7h1.6v2.5h6zm1.1 3.4h-4.2v1h3v3.9h-7.5V7.6h2.9v-1h-4.2V5.3h10v1.3zm-2.7 3.6V8.8h-4.5v1.4h4.5zM128.9.5h1.5v6.5h-1.5V4.4h-1v2.5h-1.4V.7h1.4v2.4h1V.5zm-7.4.7s4.33.04 4.3 0c0 .8 0 1.4-.2 2c-.1.6-.4 1.2-.7 1.7c-.4.5-.8 1-1.3 1.4c-.5.4-1.2.7-1.9 1l-.8-1.1c.6-.2 1.2-.5 1.6-.8c.4-.3.7-.6 1-1c0 .03-2.3.3-2.3.3l-.2-1.3s3.08-.14 3.1-.1c0-.2.1-.3.1-.4v-.4h-2.7V1.2zm1.4 10.3V7.4h7.5v4.1h-7.5zm1.6-2.8v1.5h4.3V8.7h-4.3zM140 .5h1.5v11.1H140V.5zm-2.2 4.1V.8h1.5v10.3h-1.5V6h-1V4.6h1zM136.4 3s-.04 4.63 0 4.6h.4c.1 0 .3 0 .4-.1l.1 1.2c-.4.1-.9.1-1.3.2c-.5.1-1 .1-1.5.1c-.4 0-.9.1-1.3.1H132c.01-.02-.2-1.3-.2-1.3h.9V3h-.7V1.8h5.1v1.2h-.7zm-2.3 0s.02 4.76 0 4.8c.3 0 .6 0 .8-.1c.04.03 0-4.7 0-4.7h-.8zm18-2.4v7.9h-1.6V.6h1.6zm-3 3.5c0 .4-.1.7-.2 1.1c-.2.3-.4.6-.7.9c-.2.2-.6.4-.9.5c-.4.2-.8.3-1.2.3c-.4 0-.8-.1-1.2-.3c-.4-.1-.7-.3-.9-.5c-.3-.3-.5-.6-.7-.9c-.1-.4-.2-.7-.2-1.1c0-.5.1-.8.2-1.2c.2-.3.4-.6.7-.9c.2-.2.5-.4.9-.5c.4-.2.8-.3 1.2-.3c.4 0 .8.1 1.2.3c.3.1.7.3.9.5c.3.3.5.6.7.9c.1.4.2.7.2 1.2zm-4.5 0c0 .4.2.8.5 1c.2.3.6.4 1 .4c.4 0 .8-.1 1-.4c.3-.2.5-.6.5-1c0-.5-.2-.9-.5-1.1c-.2-.3-.6-.4-1-.4c-.4 0-.8.1-1 .4c-.3.2-.5.6-.5 1.1zm1.7 6h6.1v1.3h-7.6V7.7h1.5v2.4z" stroke="none" fill="#fff"/></g></svg>