<?xml version="1.0" standalone="no"?><!DOCTYPE svg PUBLIC "-//W3C//DTD SVG 1.1//EN" "http://www.w3.org/Graphics/SVG/1.1/DTD/svg11.dtd"><svg xmlns="http://www.w3.org/2000/svg" version="1.1" width="162px" height="19.6px" viewBox="0 -2 162 19.6" style="top:-2px"><desc>K Mobility Care</desc><defs/><g id="Polygon110249"><path d="m1.1 10.6V1.7h1.8v3.8l2.9-3.8h2L5.1 5.2l3.2 5.4h-2L4 6.6l-1.1 1.5v2.5H1.1zm7.7-3.9V5.4h4.2v1.3H8.8zm5.8 3.9V1.7h2l1.5 4.1l.3.9c-.02-.02.2.8.2.8c0 0 .11.05.1 0c.1-.2.2-.5.3-.8c.1-.3.2-.6.2-.9c.05.03 1.5-4.1 1.5-4.1h2v8.9h-1.6s-.03-3.75 0-3.7V5.4c.1-.3.1-.5.1-.8c0-.2.1-.5.1-.7c-.01.04-.1 0-.1 0L20.5 6l-1.3 3.8h-1.1L16.8 6l-.8-2.1s0 .04 0 0c0 .2 0 .5.1.7v.8c.1.3.1.5.1.8v.7c.02-.05 0 3.7 0 3.7h-1.6zm12.9.1c-.4 0-.8-.1-1.2-.2c-.4-.2-.8-.4-1.1-.7c-.3-.3-.5-.7-.7-1.1c-.2-.4-.2-.9-.2-1.5c0-.5 0-1 .2-1.5c.2-.4.4-.8.7-1.1c.3-.3.7-.5 1.1-.7c.4-.1.8-.2 1.2-.2c.4 0 .8.1 1.2.2c.4.2.7.4 1 .7c.3.3.6.7.7 1.1c.2.5.3 1 .3 1.5c0 .6-.1 1.1-.3 1.5c-.1.4-.4.8-.7 1.1c-.3.3-.6.5-1 .7c-.4.1-.8.2-1.2.2zm0-1.4c.4 0 .8-.2 1-.6c.3-.4.4-.9.4-1.5c0-.6-.1-1.1-.4-1.5c-.2-.4-.6-.6-1-.6c-.5 0-.8.2-1.1.6c-.2.4-.3.9-.3 1.5c0 .6.1 1.1.3 1.5c.3.4.6.6 1.1.6zm8 1.4c-.3 0-.6 0-.9-.2l-.9-.6c0-.05 0 0 0 0l-.2.7h-1.4V1h1.8v2.4s-.06 1.08-.1 1.1c.3-.3.6-.5.9-.6c.3-.2.7-.2 1-.2c.4 0 .8.1 1.1.2c.3.2.6.4.8.7c.3.3.5.7.6 1.1c.1.4.2.9.2 1.4c0 .6-.1 1.1-.3 1.5c-.1.5-.4.9-.6 1.2c-.3.3-.6.5-.9.7c-.4.1-.7.2-1.1.2zm-.4-1.4c.4 0 .7-.2 1-.5c.3-.4.4-.9.4-1.7c0-.6-.1-1.1-.3-1.5c-.2-.3-.5-.5-1-.5c-.2 0-.4.1-.7.2c-.2.1-.4.3-.6.5v3c.2.2.4.3.6.4c.2 0 .4.1.6.1zm6.3-8.2v1.7h-1.8V1.1h1.8zm0 9.5h-1.8V3.8h1.8v6.8zm3.4 0H43V1h1.8v9.6zm3.6-9.5v1.7h-1.8V1.1h1.8zm-.1 9.5h-1.7V3.8h1.7v6.8zm4.2.1c-.4 0-.8 0-1-.2c-.3-.1-.6-.2-.7-.5c-.2-.2-.3-.4-.4-.8c-.1-.3-.1-.6-.1-1c-.03.01 0-3 0-3h-1V3.9l1.1-.1l.2-1.8h1.4v1.8h1.7v1.4H52s.03 3.01 0 3c0 .8.3 1.1.9 1.1h.4c.1 0 .2-.1.3-.1l.3 1.3c-.2 0-.4.1-.6.2h-.8zm5.9.1l-.8 2.5h-1.7l.9-2.7l-2.6-6.8h1.8s1.05 3.16 1 3.2c.2.3.2.6.3.9c.1.3.2.6.3 1h.1c.1-.4.1-.7.2-1l.3-.9c-.05-.04.9-3.2.9-3.2h1.7l-2.4 7zm12.7-1.4c-.7.9-1.7 1.3-2.8 1.3c-.6 0-1.1-.1-1.6-.3c-.5-.2-1-.5-1.3-.8c-.4-.4-.7-.9-.9-1.5c-.2-.5-.3-1.2-.3-1.9c0-.8.1-1.4.3-2c.2-.6.5-1.1.9-1.5c.4-.4.8-.7 1.3-.9c.5-.2 1.1-.3 1.6-.3c.6 0 1.1.1 1.5.4c.5.2.8.4 1.1.8L70 3.8c-.2-.2-.5-.4-.7-.6c-.3-.1-.6-.2-.9-.2c-.4 0-.7.1-1 .2c-.3.2-.5.4-.7.7c-.2.2-.4.5-.5.9c-.1.4-.2.8-.2 1.3c0 1 .2 1.7.6 2.3c.4.5 1 .8 1.7.8c.4 0 .7-.1 1-.3c.3-.1.6-.3.9-.6c-.05.02.9 1.1.9 1.1c0 0-.01.02 0 0zm2.9 1.3c-.6 0-1.1-.2-1.5-.6c-.3-.3-.5-.8-.5-1.4c-.1-.8.2-1.4.8-1.8c.6-.4 1.6-.6 3-.6c.1-.3 0-.6-.1-.9c-.2-.2-.5-.3-1-.3c-.3 0-.6 0-1 .2c-.3.1-.6.2-.9.4l-.6-1.2c.4-.3.8-.4 1.3-.6c.5-.2 1-.2 1.5-.2c1.7 0 2.6 1 2.6 2.9v4h-1.4l-.2-.7s-.01-.02 0 0l-.9.6c-.4.1-.7.2-1.1.2zm.5-1.4c.3 0 .5 0 .7-.1c.2-.1.4-.3.6-.5V7.3c-.2 0-.4.1-.6.1c-.2 0-.4 0-.6.1c-.4 0-.6.1-.8.3c-.1.2-.2.4-.2.6c0 .3.1.5.3.7c.1.2.4.2.6.2zm4.8 1.3V3.8h1.5l.1 1.2s.05.03.1 0c.2-.4.5-.7.8-1c.4-.2.7-.3 1.1-.3h.4c.1 0 .2.1.4.1l-.4 1.5h-.3c-.1-.1-.2-.1-.4-.1c-.2 0-.5.1-.8.3c-.3.2-.5.6-.7 1.1v4h-1.8zm8.1.1c-.4 0-.9-.1-1.3-.2c-.4-.2-.7-.4-1-.7c-.3-.3-.6-.7-.7-1.1c-.2-.4-.3-.9-.3-1.5c0-.5.1-1 .3-1.5c.1-.4.4-.8.7-1.1c.3-.3.6-.5 1-.7c.3-.1.7-.2 1.1-.2c.5 0 .9.1 1.2.2c.4.2.7.4.9.7c.3.3.4.6.6 1c.1.4.1.8.1 1.3v.8h-4.2c.1.5.3 1 .6 1.2c.3.3.8.5 1.3.5c.3 0 .5-.1.8-.1c.2-.1.4-.2.7-.4l.6 1.1c-.4.2-.7.4-1.1.5c-.4.2-.8.2-1.3.2zm-1.6-4.2h2.7c0-.4-.1-.8-.3-1.1c-.2-.2-.5-.4-.9-.4c-.4 0-.7.2-1 .4c-.3.3-.4.6-.5 1.1z" stroke="none" fill="#fff"/></g></svg>