<?xml version="1.0" standalone="no"?><!DOCTYPE svg PUBLIC "-//W3C//DTD SVG 1.1//EN" "http://www.w3.org/Graphics/SVG/1.1/DTD/svg11.dtd"><svg xmlns="http://www.w3.org/2000/svg" version="1.1" width="409.3px" height="26.8px" viewBox="0 -3 409.3 26.8" style="top:-3px"><desc>임직원 봉사단</desc><defs/><g id="Polygon116367"><path d="m11.8.9h1.7v8.8h-1.7V.9zm-6.6.8c.6 0 1.2.1 1.7.2c.5.2.9.5 1.2.8c.4.3.7.7.9 1.1c.2.5.3 1 .3 1.5c0 .5-.1 1-.3 1.5c-.2.4-.5.8-.9 1.1c-.3.3-.7.6-1.2.8c-.5.1-1.1.2-1.7.2c-.6 0-1.1-.1-1.6-.2c-.5-.2-.9-.5-1.3-.8c-.4-.3-.6-.7-.8-1.1c-.2-.5-.3-1-.3-1.5c0-.5.1-1 .3-1.5c.2-.4.4-.8.8-1.1c.4-.3.8-.6 1.3-.8c.5-.1 1-.2 1.6-.2zm0 1.4c-.7 0-1.2.2-1.7.6c-.4.4-.6.9-.6 1.6c0 .7.2 1.2.6 1.6c.5.4 1 .6 1.7.6c.7 0 1.3-.2 1.7-.6c.5-.4.7-.9.7-1.6c0-.7-.2-1.2-.7-1.6c-.4-.4-1-.6-1.7-.6zm-1.7 7.3h10v5.7h-10v-5.7zm8.3 1.4H5.2v2.9h6.6v-2.9zM27.3.9h1.8v9.3h-1.8V.9zm-1.4 7.3L25 9.6c-.9-.3-1.6-.7-2.3-1.3c-.6-.6-1.1-1.2-1.4-2c-.4.8-.9 1.5-1.5 2.1c-.6.7-1.4 1.1-2.3 1.5l-1-1.4c.7-.2 1.2-.5 1.7-.8l1.2-1.2c.3-.4.5-.9.7-1.4c.2-.5.2-1 .2-1.5c.05 0 0-.3 0-.3H17V1.9h8.4v1.4h-3.3s.03.3 0 .3c0 .5.1 1 .3 1.4c.2.5.4 1 .7 1.4c.4.4.7.7 1.2 1c.5.4 1 .6 1.6.8zm-7.2 4.2v-1.5h10.4v5.4h-1.8v-3.9h-8.6zm21.2-2.5h3v-9h1.8v11.7h-1.8v-1.4h-3V9.9zm-3-3c-.6 0-1.1-.1-1.6-.2c-.4-.1-.8-.3-1.2-.5c-.3-.3-.6-.6-.8-.9c-.1-.3-.2-.7-.2-1.1c0-.4.1-.8.2-1.1c.2-.3.5-.6.8-.9c.4-.2.8-.4 1.2-.5c.5-.1 1-.2 1.6-.2c.5 0 1.1.1 1.5.2c.5.1.9.3 1.2.5c.3.3.6.6.8.9c.2.3.3.7.3 1.1c0 .4-.1.8-.3 1.1c-.2.3-.5.6-.8.9c-.3.2-.7.4-1.2.5c-.4.1-1 .2-1.5.2zm0-4.1c-.7 0-1.2.1-1.6.4c-.4.2-.6.6-.6 1c0 .4.2.8.6 1c.4.3.9.4 1.6.4c.6 0 1.1-.1 1.5-.4c.4-.2.6-.6.6-1c0-.4-.2-.8-.6-1c-.4-.3-.9-.4-1.5-.4zm-.7 9.3s-.02-2.87 0-2.9c-.8.1-1.5.1-2.2.1h-1.9l-.2-1.4h2.3c.8 0 1.6-.1 2.5-.1c.8 0 1.7-.1 2.5-.1l2.5-.3l.2 1.3l-2 .3c-.7 0-1.3.1-2 .1c.03.03 0 3 0 3h-1.7zm-.5 2.5h9.3v1.4h-11v-4.6h1.7v3.2zm23.4-6.1h6v1.4H51.2V8.5h6.1V7.1H53V1.3h1.8v1.6h6.8V1.3h1.7v5.8h-4.2v1.4zm-4.3-4.3v1.5h6.8V4.2h-6.8zm3.4 6.7c1.7 0 3 .2 3.9.7c.9.4 1.3 1.1 1.3 2c0 .9-.4 1.5-1.3 2c-.9.4-2.2.7-3.9.7c-1.7 0-3-.3-4-.7c-.9-.5-1.3-1.1-1.3-2c0-.9.4-1.6 1.3-2c1-.5 2.3-.7 4-.7zm0 4c1.1 0 2-.1 2.6-.3c.6-.2.9-.6.9-1c0-.5-.3-.8-.9-1.1c-.6-.2-1.5-.3-2.6-.3c-1.2 0-2 .1-2.6.3c-.6.3-.9.6-.9 1.1c0 .4.3.8.9 1c.6.2 1.4.3 2.6.3zM81.1 7v1.4h-2.4v7.9h-1.8V.9h1.8v6.1h2.4zm-8.9-4.8s-.02 2.51 0 2.5c0 .7.1 1.4.2 2c.2.7.5 1.3.8 1.9c.3.6.7 1.2 1.2 1.6c.4.5.9.9 1.5 1.2l-1 1.4c-.9-.5-1.6-1.1-2.2-1.9c-.6-.7-1.1-1.6-1.4-2.7c-.3 1.1-.8 2-1.4 2.9c-.7.8-1.4 1.5-2.3 1.9l-1.1-1.4c.6-.3 1.2-.7 1.7-1.2c.4-.4.9-1 1.2-1.6c.3-.6.6-1.3.8-2c.1-.7.2-1.4.2-2.1c.03.01 0-2.5 0-2.5h1.8zm22.1 3.1h2.2v1.4h-2.2v5.3h-1.7V.9h1.7v4.4zm-3.1 2.2l.1 1.4c-.5.1-1 .2-1.5.2c-.5.1-1 .2-1.5.2c-.6 0-1.2.1-1.8.1H83V2.2h6.8v1.4h-5.1s.04 4.36 0 4.4c.8 0 1.4 0 2-.1h1.6c.5-.1 1-.1 1.5-.2c.4-.1.9-.1 1.4-.2zm-4.8 3.4v3.7h8.6v1.4H84.6v-5.1h1.8z" stroke="none" fill="#111111"/></g></svg>