<?xml version="1.0" standalone="no"?><!DOCTYPE svg PUBLIC "-//W3C//DTD SVG 1.1//EN" "http://www.w3.org/Graphics/SVG/1.1/DTD/svg11.dtd"><svg xmlns="http://www.w3.org/2000/svg" version="1.1" width="409.3px" height="26.8px" viewBox="0 -3 409.3 26.8" style="top:-3px"><desc>기아 가원</desc><defs/><g id="Polygon114840"><path d="m11.8.9h1.7v15.4h-1.7V.9zM1.7 2.5s7.31.03 7.3 0c0 1.2-.1 2.3-.4 3.3c-.2 1.1-.6 2.1-1.2 3c-.5.9-1.3 1.8-2.2 2.6c-.9.8-2 1.5-3.3 2.1L1 12.1c2-.9 3.5-2.1 4.5-3.5c1-1.3 1.6-2.9 1.7-4.6c.01-.04-5.5 0-5.5 0V2.5zm29 4.4v1.5h-2.4v7.9h-1.7V.9h1.7v6h2.4zM20.5 2c.6 0 1.1.2 1.6.4c.5.3.9.6 1.2 1.1c.4.5.7 1.1.8 1.7c.2.7.3 1.4.3 2.3c0 .8-.1 1.5-.3 2.2c-.1.7-.4 1.2-.8 1.7c-.3.5-.7.8-1.2 1.1c-.5.2-1 .4-1.6.4c-.6 0-1.1-.2-1.6-.4c-.5-.3-.9-.6-1.2-1.1c-.4-.5-.6-1-.8-1.7c-.2-.7-.3-1.4-.3-2.2c0-.9.1-1.6.3-2.3c.2-.6.4-1.2.8-1.7c.3-.5.7-.8 1.2-1.1c.5-.2 1-.4 1.6-.4zm0 9.3c.7 0 1.2-.3 1.6-1c.5-.7.7-1.6.7-2.8c0-1.2-.2-2.2-.7-2.9c-.4-.6-.9-1-1.6-1c-.7 0-1.2.4-1.6 1c-.5.7-.7 1.7-.7 2.9c0 1.2.2 2.1.7 2.8c.4.7.9 1 1.6 1zM49.9 7v1.4h-2.3v7.9h-1.8V.9h1.8v6.1h2.3zM36.4 2.5s7.17.03 7.2 0c0 1.1-.2 2.2-.4 3.3c-.3 1-.7 2-1.2 2.9c-.6 1-1.3 1.8-2.2 2.6c-.8.8-1.9 1.5-3.1 2.2l-1-1.4c3.7-1.9 5.8-4.6 6.1-8.1c.02-.04-5.4 0-5.4 0V2.5zm22.8 7.4h3v-9h1.8v11.7h-1.8v-1.4h-3V9.9zm-3-3c-.6 0-1.1-.1-1.6-.2c-.5-.1-.9-.3-1.2-.5c-.3-.3-.6-.6-.8-.9c-.2-.3-.3-.7-.3-1.1c0-.4.1-.8.3-1.1c.2-.3.5-.6.8-.9c.3-.2.7-.4 1.2-.5c.5-.1 1-.2 1.6-.2c.5 0 1 .1 1.5.2c.5.1.9.3 1.2.5c.3.3.6.6.8.9c.1.3.2.7.2 1.1c0 .4-.1.8-.2 1.1c-.2.3-.5.6-.8.9c-.3.2-.7.4-1.2.5c-.5.1-1 .2-1.5.2zm0-4.1c-.7 0-1.2.1-1.6.4c-.4.2-.6.6-.6 1c0 .4.2.8.6 1c.4.3.9.4 1.6.4c.6 0 1.1-.1 1.5-.4c.4-.2.6-.6.6-1c0-.4-.2-.8-.6-1c-.4-.3-.9-.4-1.5-.4zm-.7 9.3s-.05-2.87 0-2.9c-.8.1-1.5.1-2.2.1h-1.9l-.2-1.4h2.2c.8 0 1.7-.1 2.5-.1c.9 0 1.7-.1 2.6-.1l2.5-.3l.1 1.3l-1.9.3c-.7 0-1.3.1-2 .1v3h-1.7zm-.5 2.5h9.3v1.4H53.2v-4.6h1.8v3.2z" stroke="none" fill="#111111"/></g></svg>