<?xml version="1.0" standalone="no"?><!DOCTYPE svg PUBLIC "-//W3C//DTD SVG 1.1//EN" "http://www.w3.org/Graphics/SVG/1.1/DTD/svg11.dtd"><svg xmlns="http://www.w3.org/2000/svg" version="1.1" width="409.3px" height="26.8px" viewBox="0 -3 409.3 26.8" style="top:-3px"><desc>노사합동 사회공헌</desc><defs/><g id="Polygon122216"><path d="m8.7 13h6.1v1.4H.9V13h6V9.1H2.5V2.2h1.8v5.5h8.9v1.4H8.7v3.9zm22-6v1.4h-2.4v7.9h-1.7V.9h1.7v6.1h2.4zm-8.9-4.8s-.01 2.51 0 2.5c0 .7.1 1.4.3 2c.1.7.4 1.3.7 1.9c.3.6.7 1.2 1.2 1.6c.4.5 1 .9 1.5 1.2l-1 1.4c-.9-.5-1.6-1.1-2.2-1.9c-.6-.7-1-1.6-1.4-2.7c-.3 1.1-.8 2-1.4 2.9c-.6.8-1.4 1.5-2.3 1.9l-1.1-1.4c.7-.3 1.2-.7 1.7-1.2c.5-.4.9-1 1.2-1.6c.3-.6.6-1.3.8-2c.2-.7.2-1.4.2-2.1c.04.01 0-2.5 0-2.5h1.8zm19.3.2v1.4H32V2.4h3.6V.8h1.8v1.6h3.7zm5 2.3v1.5H44v3.7h-1.8v-9h1.8v3.8h2.1zm-5.9 2.4c0 .4-.1.7-.2 1.1c-.2.3-.5.6-.8.8c-.3.3-.7.4-1.2.6c-.4.1-.9.2-1.5.2c-.5 0-1-.1-1.5-.2c-.5-.2-.8-.3-1.2-.6c-.3-.2-.6-.5-.7-.8c-.2-.4-.3-.7-.3-1.1c0-.5.1-.8.3-1.1c.1-.4.4-.7.7-.9c.4-.2.7-.4 1.2-.6c.5-.1 1-.1 1.5-.1c.6 0 1.1 0 1.5.1c.5.2.9.4 1.2.6c.3.2.6.5.8.9c.1.3.2.6.2 1.1zm-5.7 0c0 .4.2.7.5 1c.4.2.9.4 1.5.4c.6 0 1.1-.2 1.5-.4c.4-.3.6-.6.6-1c0-.5-.2-.8-.6-1.1c-.4-.2-.9-.3-1.5-.3c-.6 0-1.1.1-1.5.3c-.3.3-.5.6-.5 1.1zm7.7 4.8v-1.4h1.8v5.6h-9.8v-5.6h1.7v1.4h6.3zm0 2.8v-1.4h-6.3v1.4h6.3zm13.2-6.4h6v1.5H47.5V8.3h6.1V6.8h-4.3V1.6h10.4v1.4H51v2.4h8.8v1.4h-4.4v1.5zm-1 2.4c1.7 0 3 .2 3.9.7c1 .5 1.4 1.2 1.4 2.1c0 .9-.4 1.6-1.3 2.1c-1 .4-2.3.7-4 .7c-.8 0-1.5-.1-2.2-.2c-.6-.1-1.2-.3-1.6-.5c-.5-.3-.8-.6-1.1-.9c-.2-.4-.4-.8-.4-1.2c0-.5.2-.9.4-1.2c.3-.3.6-.6 1.1-.9c.4-.2 1-.4 1.6-.5c.7-.1 1.4-.2 2.2-.2zm0 4.2c1.2 0 2-.1 2.6-.3c.6-.3 1-.6 1-1.1c0-.5-.4-.9-1-1.1c-.6-.2-1.4-.4-2.6-.4c-1.1 0-2 .2-2.6.4c-.6.2-.9.6-.9 1.1c0 .5.3.8.9 1.1c.6.2 1.5.3 2.6.3zM81.1 7v1.4h-2.4v7.9h-1.8V.9h1.8v6.1h2.4zm-8.9-4.8s-.02 2.51 0 2.5c0 .7.1 1.4.2 2c.2.7.5 1.3.8 1.9c.3.6.7 1.2 1.2 1.6c.4.5.9.9 1.5 1.2l-1 1.4c-.9-.5-1.6-1.1-2.2-1.9c-.6-.7-1.1-1.6-1.4-2.7c-.3 1.1-.8 2-1.4 2.9c-.7.8-1.4 1.5-2.3 1.9l-1.1-1.4c.6-.3 1.2-.7 1.7-1.2c.4-.4.9-1 1.2-1.6c.3-.6.6-1.3.8-2c.1-.7.2-1.4.2-2.1c.03.01 0-2.5 0-2.5h1.8zm21-1.3h1.8v15.4h-1.8V.9zM92 2.7v1.4h-9.2V2.7h3.7V.9h1.8v1.8h3.7zm-3.7 7.8v1.5c.7-.1 1.4-.1 2-.2c.7 0 1.4-.1 2.1-.2l.1 1.3l-2.6.3c-.8.1-1.7.2-2.5.2c-.9.1-1.7.1-2.5.1h-2.2l-.3-1.4h2c.7 0 1.4-.1 2.1-.1v-1.5c-.9-.1-1.6-.4-2.1-.9c-.5-.5-.7-1.1-.7-1.9c0-.4 0-.8.2-1.2c.2-.3.5-.6.8-.9c.3-.2.7-.4 1.2-.5c.5-.2 1-.2 1.5-.2c.6 0 1.1 0 1.5.2c.5.1.9.3 1.2.5c.3.3.6.6.8.9c.2.4.3.8.3 1.2c0 .8-.3 1.4-.8 1.9c-.5.5-1.2.8-2.1.9zm-3-2.8c0 .5.2.9.6 1.1c.4.3.9.4 1.5.4c.6 0 1.1-.1 1.5-.4c.4-.2.6-.6.6-1.1c0-.5-.2-.8-.6-1.1c-.4-.3-.9-.4-1.5-.4c-.6 0-1.1.1-1.5.4c-.4.3-.6.6-.6 1.1zm24.3-.7l-1.7-.2c.2-.7.3-1.4.4-2V3.1c.04-.04-8.8 0-8.8 0V1.6h10.6s-.03 1.34 0 1.3c0 .7 0 1.3-.1 1.9c0 .7-.1 1.4-.4 2.2zm-4.5.9h6.7v1.5H97.9V7.9h5.5V5.1h1.7v2.8zm-.3 2.6c.8 0 1.6.1 2.2.2c.7.2 1.2.4 1.7.6c.5.3.8.6 1.1.9c.2.4.4.8.4 1.2c0 .4-.2.8-.4 1.2c-.3.4-.6.7-1.1.9c-.5.3-1 .4-1.7.6c-.6.1-1.4.2-2.2.2c-.8 0-1.6-.1-2.2-.2c-.7-.2-1.3-.3-1.7-.6c-.5-.2-.9-.5-1.1-.9c-.3-.4-.4-.8-.4-1.2c0-.4.1-.8.4-1.2c.2-.3.6-.6 1.1-.9c.4-.2 1-.4 1.7-.6c.6-.1 1.4-.2 2.2-.2zm0 4.4c1.1 0 2-.1 2.7-.4c.6-.2.9-.6.9-1.1c0-.5-.3-.9-.9-1.1c-.7-.3-1.6-.4-2.7-.4c-1.2 0-2.1.1-2.7.4c-.6.2-1 .6-1 1.1c0 .5.4.9 1 1.1c.6.3 1.5.4 2.7.4zm17.6-12.2v1.4h-8.9V2.7h3.6V.9h1.7v1.8h3.6zm-.3 3.5h2.3V.9h1.8v11.6h-1.8V7.6h-2.3V6.2zm-.5 1.5c0 .4-.1.8-.3 1.2c-.2.3-.4.6-.8.9c-.3.2-.7.4-1.1.6c-.4.1-.9.2-1.4.2c-.6 0-1-.1-1.5-.2c-.4-.2-.8-.4-1.1-.6c-.3-.3-.6-.6-.8-.9c-.2-.4-.2-.8-.2-1.2c0-.4 0-.8.2-1.2c.2-.4.5-.7.8-.9c.3-.3.7-.5 1.1-.6c.5-.2.9-.2 1.5-.2c.5 0 1 0 1.4.2c.4.1.8.3 1.1.6c.4.2.6.5.8.9c.2.4.3.8.3 1.2zm-5.6 0c0 .5.2.8.6 1.1c.3.3.8.4 1.4.4c.5 0 1-.1 1.4-.4c.3-.3.5-.6.5-1.1c0-.5-.2-.9-.5-1.1c-.4-.3-.9-.5-1.4-.5c-.6 0-1.1.2-1.4.5c-.4.2-.6.6-.6 1.1zm2 6.9h8.5v1.4h-10.3v-4.5h1.8v3.1z" stroke="none" fill="#111111"/></g></svg>