<?xml version="1.0" standalone="no"?><!DOCTYPE svg PUBLIC "-//W3C//DTD SVG 1.1//EN" "http://www.w3.org/Graphics/SVG/1.1/DTD/svg11.dtd"><svg xmlns="http://www.w3.org/2000/svg" version="1.1" width="199.3px" height="23.3px" viewBox="0 -2 199.3 23.3" style="top:-2px"><desc>학습 지원 인원 (단위: 명)</desc><defs/><g id="Polygon121664"><path d="m6 1.4v.9H.5v-.9h2.2v-.9h1.1v.9h2.2zM9 3v.9H7.7v2.4h-1V.6h1v2.4h1.3zM5.5 4.4c0 .2-.1.4-.2.6c-.1.3-.2.4-.4.6c-.2.1-.5.2-.7.3c-.3.1-.6.1-1 .1c-.3 0-.6 0-.9-.1c-.2-.1-.5-.2-.7-.3c-.2-.2-.3-.3-.4-.6c-.1-.2-.2-.4-.2-.6c0-.3.1-.5.2-.7c.1-.2.2-.4.4-.6c.2-.1.5-.2.7-.3c.3-.1.6-.1.9-.1c.4 0 .7 0 1 .1c.2.1.5.2.7.3c.2.2.3.4.4.6c.1.2.2.4.2.7zM2 4.4c0 .2.1.5.4.6c.2.2.5.2.8.2c.4 0 .7 0 .9-.2c.3-.1.4-.4.4-.6c0-.3-.1-.5-.4-.7c-.2-.1-.5-.2-.9-.2c-.3 0-.6.1-.8.2c-.3.2-.4.4-.4.7zm-.3 3.2v-.8h6v3h-1V7.6h-5zm15.9-4.3l-.4.8c-.8-.1-1.4-.3-2-.6c-.6-.3-1-.7-1.3-1.2c-.3.5-.8.9-1.4 1.2c-.5.3-1.2.5-2 .6l-.4-.8c.5-.1.9-.2 1.3-.3c.4-.2.7-.3 1-.5c.3-.2.5-.5.7-.7c.1-.3.2-.5.2-.8c.02 0 0-.4 0-.4h1.1v.4c0 .3.1.5.2.8c.2.2.4.5.7.7c.3.2.6.3 1 .5c.4.1.8.2 1.3.3zM9.7 4.7h8.3v.8H9.7v-.8zM15.9 7v-.9h1.1v3.5h-6.3V6.1h1.1v.9h4.1zm0 1.8v-1h-4.1v1h4.1zM27.5.6h1v9.2h-1V.6zm-3.1 1.7s-.04.91 0 .9c0 .4 0 .8.1 1.2c.1.3.3.7.5 1c.2.4.5.6.8.9c.3.3.6.5.9.6l-.5.9c-.6-.3-1-.6-1.4-1.1c-.4-.5-.7-1-1-1.6c-.2.6-.5 1.2-.9 1.7c-.4.6-.8.9-1.4 1.2l-.6-.8c.4-.2.7-.4 1-.7c.3-.3.5-.6.7-1c.3-.3.4-.7.5-1.1c.1-.4.2-.8.2-1.2v-.9h-2.1v-.8h5.2v.8h-2zM34.9 6h1.8V.5h1.1v7h-1.1v-.8h-1.8v-.7zm-1.8-1.9c-.4 0-.7 0-.9-.1c-.3-.1-.6-.2-.8-.3c-.2-.1-.3-.3-.4-.5c-.2-.2-.2-.4-.2-.7c0-.2 0-.4.2-.6c.1-.2.2-.4.4-.6c.2-.1.5-.2.8-.3c.2-.1.5-.1.9-.1c.3 0 .6 0 .9.1c.3.1.5.2.7.3c.2.2.4.4.5.6c.1.2.2.4.2.6c0 .3-.1.5-.2.7c-.1.2-.3.4-.5.5c-.2.1-.4.2-.7.3c-.3.1-.6.1-.9.1zm0-2.4c-.4 0-.7 0-1 .2c-.2.2-.3.4-.3.6c0 .3.1.5.3.6c.3.2.6.3 1 .3c.4 0 .7-.1.9-.3c.2-.1.4-.3.4-.6c0-.2-.2-.4-.4-.6c-.2-.2-.5-.2-.9-.2zm-.4 5.6s-.04-1.76 0-1.8c-.5.1-.9.1-1.3.1h-1.2l-.1-.9h2.8c.6 0 1.1-.1 1.6-.1c.5 0 1-.1 1.5-.1l.1.7c-.4.1-.8.1-1.2.2c-.4 0-.8.1-1.2.1c.01-.02 0 1.8 0 1.8h-1zm-.3 1.4h5.6v.9h-6.7V6.9h1.1v1.8zM49 .6v6.6h-1.1V.6h1.1zm-2.5 2.9c0 .3-.1.6-.2.9c-.1.3-.3.5-.5.7c-.3.2-.5.4-.8.5c-.3.1-.6.2-1 .2c-.3 0-.6-.1-.9-.2c-.3-.1-.6-.3-.8-.5c-.2-.2-.4-.4-.5-.7c-.2-.3-.2-.6-.2-.9c0-.4 0-.7.2-1c.1-.2.3-.5.5-.7c.2-.2.5-.4.8-.5c.3-.1.6-.1.9-.1c.4 0 .7 0 1 .1c.3.1.5.3.8.5c.2.2.4.5.5.7c.1.3.2.6.2 1zm-3.9 0c0 .4.1.7.4 1c.3.2.6.4 1 .4c.2 0 .4-.1.6-.1c.2-.1.3-.2.4-.3c.2-.1.3-.3.3-.5c.1-.1.1-.3.1-.5c0-.2 0-.4-.1-.6c0-.2-.1-.3-.3-.5c-.1-.1-.2-.2-.4-.2c-.2-.1-.4-.1-.6-.1c-.4 0-.7.1-1 .3c-.3.3-.4.6-.4 1.1zM44 8.7h5.3v.9H43v-3h1v2.1zM55.4 6h1.8V.5h1v7h-1v-.8h-1.8v-.7zm-1.9-1.9c-.3 0-.6 0-.9-.1c-.3-.1-.5-.2-.7-.3c-.2-.1-.4-.3-.5-.5c-.1-.2-.2-.4-.2-.7c0-.2.1-.4.2-.6c.1-.2.3-.4.5-.6c.2-.1.4-.2.7-.3c.3-.1.6-.1.9-.1c.4 0 .7 0 .9.1c.3.1.6.2.8.3c.2.2.3.4.4.6c.1.2.2.4.2.6c0 .3-.1.5-.2.7c-.1.2-.2.4-.4.5c-.2.1-.5.2-.8.3c-.2.1-.5.1-.9.1zm0-2.4c-.4 0-.7 0-.9.2c-.2.2-.4.4-.4.6c0 .3.2.5.4.6c.2.2.5.3.9.3c.4 0 .7-.1.9-.3c.3-.1.4-.3.4-.6c0-.2-.1-.4-.4-.6c-.2-.2-.5-.2-.9-.2zm-.4 5.6V5.5c-.4.1-.9.1-1.3.1h-1.1l-.2-.9h2.9c.5 0 1-.1 1.5-.1c.5 0 1-.1 1.5-.1l.1.7c-.4.1-.8.1-1.2.2c-.4 0-.8.1-1.1.1c-.05-.02 0 1.8 0 1.8h-1.1zm-.3 1.4h5.6v.9h-6.6V6.9h1v1.8zm11.7 1.4l-.8.4c-.4-.8-.8-1.6-1.1-2.5c-.2-.8-.4-1.8-.4-2.8c0-1 .2-1.9.4-2.8c.3-.8.7-1.6 1.1-2.4l.8.3c-.5.8-.8 1.6-1 2.4c-.2.8-.3 1.6-.3 2.5c0 .9.1 1.8.3 2.6c.2.8.5 1.6 1 2.3zm8-6.9h1.3v.8h-1.3v3.2h-1.1V.5h1.1v2.7zm-2 1.3l.1.8c-.3.1-.6.1-.9.2c-.3 0-.6.1-.9.1h-2.4c-.02.04-.8 0-.8 0V1.3h4.1v.9h-3v2.6h1.2c.3 0 .6-.1.9-.1c.3 0 .6 0 .9-.1c.3 0 .6-.1.8-.1zm-2.8 2v2.2h5.1v.9h-6.2V6.5h1.1zM81 .6h1.1v9.2H81V.6zm-3.6 4.2c-.3 0-.6 0-.9-.1c-.3-.1-.6-.3-.8-.4c-.2-.2-.3-.4-.5-.6c-.1-.3-.1-.5-.1-.8c0-.3 0-.6.1-.8c.2-.2.3-.4.5-.6c.2-.2.5-.3.8-.4c.3-.1.6-.2.9-.2c.4 0 .7.1 1 .2c.3.1.5.2.7.4c.3.2.4.4.5.6c.2.2.2.5.2.8c0 .3 0 .5-.2.8c-.1.2-.2.4-.5.6c-.2.1-.4.3-.7.4c-.3.1-.6.1-1 .1zm0-3c-.4 0-.7.1-1 .3c-.2.2-.3.5-.3.8c0 .3.1.6.3.8c.3.2.6.2 1 .2c.4 0 .8 0 1-.2c.3-.2.4-.5.4-.8c0-.3-.1-.6-.4-.8c-.2-.2-.6-.3-1-.3zm3 3.4l.1.7c-.4.1-.8.2-1.3.2c-.4.1-.8.1-1.2.2v3.2h-1s-.04-3.19 0-3.2h-1.3c-.4.1-.8.1-1.1.1l-.2-.9h1.4c.5 0 1 0 1.5-.1c.5 0 1 0 1.6-.1c.5 0 1-.1 1.5-.1zM85 2.9v1.3h-1.2V2.9h1.2zm0 4.2v1.3h-1.2V7.1h1.2zm9.9-2.4v.7h-4.3V1.2h4.3v.8h1.9V.6h1.1v5.4h-1.1V4.7h-1.9zm-1-.2V2.1h-2.2v2.4h2.2zm2.9-1.7h-1.9v1h1.9v-1zm-2 3.4c.5 0 .9.1 1.3.1c.4.1.7.2 1 .4c.3.1.5.3.6.6c.1.2.2.4.2.7c0 .3-.1.5-.2.7c-.1.3-.3.4-.6.6c-.3.2-.6.3-1 .3c-.4.1-.8.2-1.3.2c-.5 0-.9-.1-1.3-.2c-.4 0-.7-.1-1-.3c-.2-.2-.4-.3-.6-.6c-.1-.2-.2-.4-.2-.7c0-.3.1-.5.2-.7c.2-.3.4-.5.6-.6c.3-.2.6-.3 1-.4c.4 0 .8-.1 1.3-.1zm0 2.7c.7 0 1.2 0 1.5-.2c.4-.2.6-.4.6-.7c0-.3-.2-.5-.6-.7c-.3-.2-.8-.2-1.5-.2c-.7 0-1.2 0-1.5.2c-.4.2-.5.4-.5.7c0 .3.1.5.5.7c.3.2.8.2 1.5.2zm5.3 1.6l-.7-.4c.4-.7.7-1.5.9-2.3c.3-.8.4-1.7.4-2.6c0-.9-.1-1.7-.4-2.5c-.2-.8-.5-1.6-.9-2.4l.7-.3c.5.8.9 1.6 1.1 2.4c.3.9.4 1.8.4 2.8c0 1-.1 2-.4 2.8c-.2.9-.6 1.7-1.1 2.5z" stroke="none" fill="#949596"/></g></svg>