<?xml version="1.0" standalone="no"?><!DOCTYPE svg PUBLIC "-//W3C//DTD SVG 1.1//EN" "http://www.w3.org/Graphics/SVG/1.1/DTD/svg11.dtd"><svg xmlns="http://www.w3.org/2000/svg" version="1.1" width="162px" height="19.6px" viewBox="0 -2 162 19.6" style="top:-2px"><desc>THINC</desc><defs/><g id="Polygon109631"><path d="m2.9 10.6V3.2H.4V1.7h6.8v1.5H4.6v7.4H2.9zm5.6 0V1.7h1.8v3.5h3.4V1.7h1.7v8.9h-1.7V6.7h-3.4v3.9H8.5zm9.1 0V1.7h1.7v8.9h-1.7zm3.9 0V1.7h1.8l2.5 4.7l.9 1.9s.1.03.1 0c-.1-.4-.1-.9-.2-1.5V5.2c-.03.02 0-3.5 0-3.5h1.6v8.9h-1.8l-2.5-4.8l-.9-1.9h-.1c.1.5.1 1 .2 1.5v1.6c.04 0 0 3.6 0 3.6h-1.6zm15.3-1.2c-.7.9-1.6 1.3-2.8 1.3c-.6 0-1.1-.1-1.6-.3c-.5-.2-.9-.5-1.3-.8c-.3-.4-.6-.9-.8-1.5c-.3-.5-.4-1.2-.4-1.9c0-.8.1-1.4.4-2c.2-.6.5-1.1.9-1.5c.3-.4.8-.7 1.3-.9c.5-.2 1-.3 1.6-.3c.5 0 1 .1 1.5.4c.4.2.8.4 1.1.8l-1 1.1c-.2-.2-.4-.4-.7-.6c-.3-.1-.6-.2-.9-.2c-.3 0-.6.1-.9.2c-.3.2-.6.4-.8.7c-.2.2-.3.5-.5.9c-.1.4-.1.8-.1 1.3c0 1 .2 1.7.6 2.3c.4.5 1 .8 1.7.8c.4 0 .7-.1 1-.3c.3-.1.6-.3.8-.6c0 .02.9 1.1.9 1.1c0 0 .04.02 0 0z" stroke="none" fill="#fff"/></g></svg>