<?xml version="1.0" standalone="no"?><!DOCTYPE svg PUBLIC "-//W3C//DTD SVG 1.1//EN" "http://www.w3.org/Graphics/SVG/1.1/DTD/svg11.dtd"><svg xmlns="http://www.w3.org/2000/svg" version="1.1" width="390px" height="91.3px" viewBox="0 -2 390 91.3" style="top:-2px"><desc>슬로바키아 공장 인근의 공원, 호수 주변에 자전거 길을 조성·보수하는 프로젝트다. 2018년부터 5년간에 걸쳐 추진하고 있으며, 3개 노선의 자전거 길은 질리나 지역의 문화적, 자연적 교감 창출에 기여하고 있다...</desc><defs/><g id="Polygon112807"><path d="m6.2 75.4v.6H.9v-.6h2.2v-.9h.9v.9h2.2zm1.8-.8v6.7h-.8v-6.7h.8zm-1.5 4.9v.5c-.5.1-1 .2-1.5.2c-.5.1-1 .1-1.5.1c-.5.1-1 .1-1.5.1H.7l-.1-.7h2.5v-.7c-.5-.1-.9-.2-1.2-.4c-.3-.3-.5-.6-.5-.9c0-.2 0-.4.2-.6c.1-.1.2-.3.4-.4c.2-.1.4-.2.7-.3h1.8c.2.1.5.2.6.3c.2.1.4.3.5.4c.1.2.1.4.1.6c0 .3-.1.6-.4.9c-.3.2-.8.3-1.3.4v.7c.4 0 .8-.1 1.2-.1c.4 0 .9-.1 1.3-.1zm-4.3-1.8c0 .2.1.4.4.5c.2.2.5.2 1 .2c.4 0 .7 0 1-.2c.2-.1.3-.3.3-.5c0-.2-.1-.4-.3-.6c-.3-.1-.6-.2-1-.2c-.5 0-.8.1-1 .2c-.3.2-.4.4-.4.6zm3.2 3.1v.1c0 .3.1.6.3.8c.1.2.3.4.6.6c.3.2.6.3 1 .5c.3.1.7.2 1.2.2l-.3.7c-.4-.1-.7-.2-1-.3c-.4-.1-.7-.2-.9-.3c-.3-.1-.6-.3-.8-.5c-.2-.2-.4-.4-.5-.6c-.3.4-.7.8-1.3 1.1c-.5.3-1.2.5-1.9.6l-.3-.7c.4 0 .8-.1 1.2-.2c.4-.2.7-.3 1-.5c.2-.2.5-.4.6-.6c.2-.2.3-.5.3-.8c-.04.04 0-.1 0-.1h.8zM17.6 78l-.4.7l-1-.3c-.3-.1-.7-.3-1-.4c-.3-.2-.5-.4-.8-.7c-.2-.2-.4-.5-.5-.7c-.2.2-.4.5-.6.7c-.2.3-.5.5-.8.7c-.3.1-.6.3-1 .4l-1 .3l-.4-.7c.5 0 .9-.1 1.3-.3c.4-.2.7-.4 1-.6c.3-.2.6-.5.7-.8c.2-.3.3-.6.3-.9c.02-.02 0-.5 0-.5h.9v.5c0 .3.1.6.3.9c.2.3.4.6.7.8c.3.2.7.4 1.1.6c.4.2.8.3 1.2.3zm.4 1.7v.7h-3.7v3.3h-.9v-3.3H9.7v-.7h8.3zm8.2-2.4v.7H20v-3.1h.8v2.4h5.4zm-7.3 1.9h8.3v.7h-8.3v-.7zm1.9 1.6v2h5.5v.7H20v-2.7h.8zm12.7 1.4h1.5v.7h-4.1v-.7h1.7v-5.7c.02.04-1.3 1.3-1.3 1.3l-.5-.6l2-1.8h.7v6.8zm3.6-4.6l-.9-.1c.1-.4.2-.7.3-.9c.1-.3.3-.5.5-.7c.3-.2.5-.3.8-.4c.3-.1.6-.2.9-.2c.3 0 .6.1.9.2c.2.1.5.2.7.4c.2.1.3.4.4.6c.1.2.2.5.2.8c0 .5-.1.8-.4 1.1c-.2.3-.5.5-.9.6c1 .3 1.5.9 1.5 1.8c0 .4-.1.7-.2 1c-.2.2-.3.5-.6.7c-.2.2-.5.3-.8.4c-.3.1-.6.2-1 .2c-.4 0-.7-.1-1-.2c-.3-.1-.5-.2-.7-.4c-.2-.2-.4-.4-.5-.6c-.1-.3-.2-.5-.3-.8l.8-.3c0 .1.1.2.2.4c.1.3.3.6.6.8c.2.2.5.3.9.3c.3 0 .5-.1.7-.2c.2-.1.4-.2.5-.3c.2-.1.3-.3.3-.5c.1-.1.1-.3.1-.5c0-.2 0-.3-.1-.5c0-.2-.1-.3-.3-.5c-.1-.1-.3-.2-.5-.2c-.3-.1-.6-.2-1-.2v-.6c.3 0 .6-.1.8-.1l.6-.3c.1-.1.2-.3.3-.4c0-.2.1-.4.1-.6c0-.4-.2-.7-.4-.9c-.3-.2-.6-.3-1-.3c-.2 0-.4 0-.6.1c-.1 0-.3.1-.4.3c-.2.1-.3.3-.3.4c-.1.2-.2.4-.2.6zm9-2.2s-2.27 2.84-2.3 2.8c-.1.2-.1.3-.2.3c0 .1-.1.2-.1.2l.6-.3c.2 0 .4-.1.7-.1c.3 0 .6.1.8.2c.3.1.5.2.7.4c.2.2.4.5.5.7c.1.3.2.6.2 1c0 .3-.1.7-.2 1c-.1.3-.3.5-.5.8c-.2.2-.5.4-.8.5c-.4.1-.7.2-1.1.2c-.4 0-.7-.1-1-.2c-.3-.1-.6-.3-.8-.5c-.2-.3-.4-.5-.5-.8c-.1-.4-.2-.7-.2-1.1c0-.3.1-.7.2-1.1c.2-.3.4-.7.7-1.2c.03.02 2.1-2.8 2.1-2.8h1.2zm-1.7 6.9c.2 0 .5-.1.7-.1c.2-.1.4-.2.5-.4c.1-.1.3-.3.3-.5c.1-.2.2-.4.2-.6c0-.3-.1-.5-.2-.7c0-.2-.2-.4-.3-.5c-.1-.1-.3-.2-.5-.3c-.2-.1-.4-.1-.6-.1c-.3 0-.5 0-.7.1c-.2.1-.4.2-.5.3c-.2.2-.3.4-.4.5c-.1.2-.1.4-.1.7c0 .4.1.8.4 1.1c.3.3.7.5 1.2.5zm3.1 1.4l.3-2.1h.9l-.6 2.1h-.6zm2.9-.8s2.29-2.93 2.3-2.9c.1-.2.2-.3.3-.4c0-.1.1-.2.1-.2c-.4.3-.9.5-1.4.5c-.3 0-.6-.1-.9-.2c-.2-.1-.5-.2-.7-.4c-.1-.2-.3-.4-.4-.7c-.1-.3-.2-.6-.2-.9c0-.4.1-.7.2-1c.1-.2.3-.5.5-.7c.2-.2.5-.4.8-.5c.3-.2.7-.2 1.1-.2c.3 0 .7 0 .9.2c.3.1.6.3.8.5c.2.2.4.4.5.7c.1.4.2.7.2 1.1c0 .4-.1.8-.2 1.2c-.2.3-.4.7-.7 1.1l-2.1 2.8h-1.1zm.1-5.3c0 .5.1.9.4 1.1c.2.3.6.4 1.1.4c.2 0 .5 0 .7-.1c.1-.1.3-.2.5-.3c.1-.2.2-.3.3-.5c0-.2.1-.4.1-.6c0-.2-.1-.4-.1-.6c-.1-.2-.2-.4-.4-.5c-.1-.1-.3-.2-.4-.3c-.2-.1-.4-.1-.7-.1c-.4 0-.8.1-1.1.4c-.3.3-.4.7-.4 1.1zm9.1 2.6h1.2v.7h-1.2v2h-.8v-2h-3.7v-.6l3.7-4.9h.8v4.8zm-3.5 0h2.7v-3.7l-2.7 3.7zm10-2.9c0 .9-.4 1.4-1.2 1.7c.4.2.8.4 1 .7c.3.3.4.7.4 1.2c0 .4 0 .7-.2.9c-.1.3-.3.5-.5.7c-.2.2-.5.4-.8.5c-.3.1-.7.1-1 .1c-.4 0-.8 0-1.1-.1c-.3-.1-.6-.3-.8-.5c-.2-.2-.4-.4-.5-.7c-.2-.2-.2-.5-.2-.9c0-.5.1-.9.4-1.2c.2-.3.6-.5 1-.7c-.3-.1-.6-.3-.8-.6c-.3-.3-.4-.7-.4-1.1c0-.3.1-.6.2-.8c.1-.2.3-.4.5-.6c.2-.2.4-.4.7-.5c.3-.1.6-.1 1-.1c.3 0 .6 0 .9.1c.3.1.5.3.7.5c.2.2.4.4.5.6c.1.2.2.5.2.8zM63.8 76c-.5 0-.9.1-1.1.4c-.2.2-.3.6-.3.9v.5c.1.2.2.3.3.5c.1.1.2.2.4.3c.2 0 .4.1.7.1c.2 0 .4-.1.6-.1c.2-.1.3-.2.4-.3c.1-.2.2-.3.3-.5v-.5c0-.3-.1-.7-.3-.9c-.2-.3-.6-.4-1-.4zm0 6.3c.5 0 .9-.1 1.1-.3c.3-.3.4-.7.4-1.1c0-.2 0-.5-.1-.7c-.1-.1-.2-.3-.3-.4c-.2-.1-.3-.2-.5-.3c-.2 0-.4-.1-.6-.1c-.3 0-.5.1-.6.1l-.6.3c-.1.1-.2.3-.3.4c-.1.2-.1.5-.1.7c0 .4.1.8.4 1.1c.3.2.6.3 1.2.3zm10.3-7.8h.8v9.2h-.8v-4.8h-1.3v4.3h-.8v-8.5h.8v3.5h1.3v-3.7zm-5.8 1.8s-.01 4.44 0 4.4h1.6c.5-.1 1-.1 1.5-.2l.1.7c-.3 0-.6.1-.8.1c-.3 0-.6.1-.8.1h-1.8c-.04.04-.6 0-.6 0v-5.7h3.4v.6h-2.6zm15-1.8h.8v9.2h-.8v-9.2zm-1.8 3.6v-3.4h.8v8.5h-.8v-4.4s-1.18-.02-1.2 0c0 .4-.1.8-.2 1.2c-.1.3-.2.7-.4.9c-.1.3-.3.4-.5.6c-.3.1-.5.2-.8.2c-.3 0-.6-.1-.8-.2c-.3-.2-.5-.4-.6-.7c-.2-.3-.3-.6-.4-1c-.1-.4-.2-.8-.2-1.3c0-.5.1-1 .2-1.3c.1-.4.2-.8.4-1c.1-.3.3-.5.6-.7c.2-.1.5-.2.8-.2c.3 0 .5.1.7.2c.3.1.5.3.6.6c.2.2.3.5.4.8c.1.4.2.8.2 1.2h1.2zm-3.1 2.8c.4 0 .6-.2.9-.6c.2-.5.3-1.1.3-1.8c0-.4-.1-.7-.1-1c-.1-.3-.2-.6-.3-.8c-.1-.2-.2-.3-.3-.5c-.2-.1-.3-.1-.5-.1c-.4 0-.7.2-.9.6c-.2.5-.3 1-.3 1.8c0 .7.1 1.3.3 1.8c.2.4.5.6.9.6zm16.3-4.4h1.3v.7h-1.3v1.9h-.9v-4.6h.9v2zm-1.8 1.3l.1.7c-.3 0-.7.1-1 .1c-.3.1-.6.1-.9.1c-.4.1-.7.1-1.1.1h-2v-3.7h4v.6h-3.2v2.4h2.2c.4-.1.7-.1 1-.1c.3-.1.6-.1.9-.2zm-3.2 4.1v1h5.3v.7h-6.1v-2.4h4.9v-.9h-4.9v-.7h5.8v2.3h-5zm12.5-6.2v.6h-5.4v-.6h2.3v-1.1h.8v1.1h2.3zm1.7 1.9h1.3v.7h-1.3v3.1h-.9v-6.8h.9v3zm-2.2.9c0 .3-.1.5-.2.7c-.1.3-.2.4-.4.6c-.2.1-.5.2-.7.3c-.3.1-.6.1-.9.1c-.3 0-.6 0-.9-.1c-.3-.1-.5-.2-.7-.3c-.2-.2-.3-.3-.4-.6c-.2-.2-.2-.4-.2-.7c0-.2 0-.5.2-.7c.1-.2.2-.3.4-.5c.2-.1.4-.3.7-.3c.3-.1.6-.2.9-.2c.3 0 .6.1.9.2c.2 0 .5.2.7.3c.2.2.3.3.4.5c.1.2.2.5.2.7zm-3.6 0c0 .4.1.6.4.8c.2.2.6.3 1 .3c.4 0 .7-.1 1-.3c.2-.2.4-.4.4-.8c0-.3-.2-.5-.4-.7c-.3-.2-.6-.3-1-.3c-.4 0-.8.1-1 .3c-.3.2-.4.4-.4.7zm.9 2.4v1.9h5.3v.7h-6.1v-2.6h.8zm15.5-2.7v.6H113v4.9h-.9v-9.2h.9v3.7h1.5zm-7.3-2.1s-.04 4.61 0 4.6h2.1c.4-.1.7-.1 1-.1c.3-.1.7-.1 1-.2l.1.7c-.4.1-.7.1-1 .2c-.4 0-.7 0-1.1.1H107c.05.03-.7 0-.7 0v-6h4.3v.7h-3.4zm7.8 7v-1h.9v1h-.9z" stroke="none" fill="#111111"/></g><g id="Polygon112806"><path d="m9.1 59.7v.7H7.6v4.8h-.9v-9.1h.9v3.6h1.5zm-6.1-3c.3 0 .6.1.9.3c.3.1.5.3.7.6c.2.3.4.6.5 1c.1.4.2.8.2 1.3c0 .5-.1 1-.2 1.4c-.1.3-.3.7-.5 1c-.2.2-.4.5-.7.6c-.3.2-.6.2-.9.2c-.4 0-.7 0-1-.2c-.2-.1-.5-.4-.7-.6c-.2-.3-.3-.7-.5-1c-.1-.4-.1-.9-.1-1.4c0-.5 0-.9.1-1.3c.2-.4.3-.7.5-1c.2-.3.5-.5.7-.6c.3-.2.6-.3 1-.3zm0 5.7c.2 0 .4-.1.6-.2c.2-.1.3-.3.5-.5c.1-.2.2-.5.3-.8c0-.3.1-.6.1-1c0-.3-.1-.7-.1-1c-.1-.3-.2-.5-.3-.7c-.2-.2-.3-.4-.5-.5c-.2-.1-.4-.2-.6-.2c-.2 0-.5.1-.6.2c-.2.1-.4.3-.5.5c-.1.2-.2.4-.3.7c-.1.3-.1.7-.1 1c0 .4 0 .7.1 1c.1.3.2.6.3.8c.1.2.3.4.5.5c.1.1.4.2.6.2zm10.9-3.1c-1.1 0-1.8-.1-2.4-.4c-.6-.3-.9-.6-.9-1.2c0-.5.3-.9.9-1.1c.6-.3 1.3-.5 2.4-.5c1 0 1.8.2 2.3.5c.6.2.9.6.9 1.1c0 .6-.3.9-.9 1.2c-.5.3-1.3.4-2.3.4zm0-2.5c-.8 0-1.4.1-1.8.2c-.4.2-.6.4-.6.7c0 .3.2.6.6.7c.4.2 1 .3 1.8.3c.7 0 1.3-.1 1.7-.3c.4-.1.6-.4.6-.7c0-.3-.2-.5-.6-.7c-.4-.1-1-.2-1.7-.2zm4.1 3.8h-3.7v.8h2.6v2.1h-5.3v.9h5.6v.7h-6.5v-2.2h5.4v-.8h-5.4v-.7h2.7v-.8H9.7v-.7h8.3v.7zm7.6-4.6h.8v9.2h-.8v-5h-1.8v-.6h1.8V56zm-5.5 4.1s-.04 2.2 0 2.2h1.1c.3 0 .6 0 .9-.1h1c.3-.1.6-.1 1-.2v.7c-.3.1-.6.1-1 .1c-.3.1-.6.1-1 .1c-.3.1-.6.1-1 .1h-1.9v-3.6h3.3v-1.8h-3.3v-.7h4.1v3.2h-3.2zm15.2-2.9v.6h-5.1v-.6h2.2V56h.8v1.2h2.1zm0 1.3h1.6v-2.4h.8v6.9h-.8v-1.9h-1.6v-.7h1.6v-1.2h-1.6v-.7zm-.5 1.6c0 .2 0 .5-.1.7c-.1.2-.3.4-.4.5c-.2.2-.4.3-.7.4c-.2.1-.5.1-.8.1c-.3 0-.6 0-.9-.1c-.2-.1-.4-.2-.6-.4c-.2-.1-.3-.3-.4-.5c-.1-.2-.2-.5-.2-.7c0-.3.1-.5.2-.7c.1-.2.2-.4.4-.6c.2-.1.4-.3.6-.3c.3-.1.6-.2.9-.2c.3 0 .6.1.8.2c.3 0 .5.2.7.3c.1.2.3.4.4.6c.1.2.1.4.1.7zm-3.3 0c0 .3.1.6.3.8c.3.2.6.3 1 .3c.4 0 .7-.1.9-.3c.2-.2.3-.5.3-.8c0-.3-.1-.6-.3-.8c-.2-.2-.5-.3-.9-.3c-.4 0-.7.1-1 .3c-.2.2-.3.5-.3.8zm1.2 4.2h5.2v.7h-6.1v-2.6h.9v1.9zM46.3 56h.8v9.2h-.8v-4.8h-1.2v4.3h-.8v-8.5h.8v3.5h1.2V56zM42 57.8s.04.72 0 .7c0 .4.1.8.2 1.2c0 .4.2.8.3 1.1l.6.9c.3.3.6.5.9.6l-.5.7c-.4-.3-.8-.6-1.1-1c-.3-.4-.6-.9-.7-1.5c-.4 1.3-1 2.2-1.9 2.8l-.6-.6c.4-.2.7-.4.9-.7c.3-.3.5-.6.6-1c.2-.3.3-.7.4-1.2c.1-.4.1-.8.1-1.3c.04.02 0-.7 0-.7h-1.7v-.7h4.2v.7H42zm16.1-1.7v4.7h-.8v-4.7h.8zM56.2 60l-.4.6c-.5-.2-1-.4-1.4-.8c-.4-.3-.7-.7-.9-1.2c-.2.5-.5 1-.9 1.4c-.4.3-.9.6-1.5.8l-.4-.7c.4-.1.7-.2 1-.4c.3-.2.5-.4.7-.7c.2-.2.4-.5.5-.8c.1-.3.1-.6.1-.9c.04.04 0-.1 0-.1h-2.1v-.6h5.1v.6h-2.1v.1c0 .3.1.6.2.9c.1.3.2.5.4.7c.2.3.5.5.8.6c.3.2.6.4.9.5zM53 64.4h5.4v.7h-6.2v-2.3h5.1v-.9h-5.1v-.7h5.9v2.2H53v1zM66.5 56h.8v9.2h-.8V56zm-5.4 4.2s.05 2.09 0 2.1c.8 0 1.5 0 2.2-.1c.7 0 1.5-.1 2.3-.2l.1.7c-.4 0-.8.1-1.2.1c-.4.1-.8.1-1.2.1c-.3 0-.7.1-1.1.1h-1.9v-3.5h3.4v-1.9h-3.4v-.7h4.2v3.3h-3.4zm16.4-.5v.7H76v4.8h-.8V56h.8v3.7h1.5zm-7.3-2.8s-.04 5.27 0 5.3c.6 0 1.3-.1 2-.1l2.1-.3l.1.7l-2.2.3c-.7 0-1.4.1-2.1.1c-.05-.03-.8 0-.8 0v-6h.9zm14.6-.9h.8v9.2h-.8V56zm-3.4.8s-.01 1.68 0 1.7c0 .4.1.8.2 1.2c.1.4.3.8.5 1.2c.2.3.5.6.8.9c.3.3.6.5.9.6l-.5.7c-.5-.2-1-.6-1.4-1.1c-.4-.5-.7-1.1-.9-1.8c-.2.7-.5 1.3-1 1.9c-.4.5-.9.9-1.4 1.2l-.5-.7c.3-.2.7-.4.9-.7c.3-.2.6-.6.8-.9c.3-.4.4-.8.6-1.2c.1-.5.2-.9.2-1.3c-.04-.02 0-1.7 0-1.7h.8zm15-.8h.8v9.2h-.8v-4.7h-1.3v4.2h-.8v-8.5h.8v3.6h1.3V56zm-5.7 1.2v4.9c.4 0 .9 0 1.4-.1c.5 0 1-.1 1.5-.2l.1.7c-.6.1-1.2.2-1.7.3h-2.1v-5.6h.8zm10.4 7.2V57s2.27-.04 2.3 0c.3 0 .7 0 1 .1c.3 0 .6.1.8.3c.2.1.4.3.5.5c.2.3.2.6.2.9c0 .4-.1.7-.2 1c-.2.3-.5.5-.9.6v.1c.5 0 .9.2 1.1.5c.3.3.5.7.5 1.2c0 .4-.1.7-.2 1c-.2.3-.4.5-.6.7c-.3.2-.6.3-.9.4c-.4.1-.7.1-1.2.1c.03.04-2.4 0-2.4 0zm1-4.3s1.1.04 1.1 0c.6 0 1.1-.1 1.4-.3c.3-.2.4-.5.4-.9c0-.4-.1-.8-.4-.9c-.3-.2-.8-.3-1.4-.3h-1.1v2.4zm0 3.6s1.3-.02 1.3 0c.7 0 1.2-.1 1.5-.4c.4-.2.5-.6.5-1.1c0-.5-.1-.8-.5-1c-.3-.2-.8-.3-1.5-.3c0-.03-1.3 0-1.3 0v2.8zm6.2-6.9v1h-.9v-1h.9zm0 7.6h-.9v-5.5h.9v5.5zm1.5 0v-8.1h.9v5.5h.1l2.3-2.9h1.1l-1.9 2.2l2.1 3.3h-1l-1.6-2.6l-1.1 1.2v1.4h-.9zm7.7.2c-.4 0-.7-.1-1.1-.2c-.3-.2-.6-.3-.8-.6c-.2-.2-.4-.5-.6-.9c-.1-.4-.2-.8-.2-1.2c0-.5.1-.9.2-1.2c.2-.4.4-.7.6-1c.2-.2.5-.4.8-.5c.3-.2.6-.2.9-.2c.4 0 .7 0 1 .1c.2.2.5.3.6.6c.2.2.4.5.5.8c.1.3.1.7.1 1.1v.5h-3.8c.1.6.3 1.1.6 1.4c.3.3.8.5 1.3.5c.3 0 .5 0 .7-.1c.3-.1.5-.2.7-.3l.3.6c-.2.2-.5.3-.8.4c-.3.1-.6.2-1 .2zm-1.8-3.4h3c0-.6-.1-1-.4-1.3c-.2-.3-.5-.4-1-.4c-.2 0-.4 0-.5.1c-.2.1-.4.2-.5.4c-.2.1-.3.3-.4.5c-.1.2-.1.5-.2.7zm9.2 3.4c-.5 0-1-.1-1.4-.3c-.5-.2-.9-.5-1.2-.8l.6-.7c.2.3.6.5.9.7c.4.2.8.2 1.1.2c.5 0 .9-.1 1.2-.3c.3-.2.4-.5.4-.9c0-.2 0-.3-.1-.5c-.1-.1-.1-.2-.3-.3l-.3-.3c-.2 0-.4-.1-.5-.2l-1.1-.5c-.2-.1-.4-.1-.5-.2c-.2-.2-.4-.3-.5-.4c-.2-.2-.3-.4-.4-.6c-.1-.2-.1-.4-.1-.7c0-.3 0-.5.1-.8c.2-.2.3-.4.5-.6c.2-.2.5-.3.8-.4c.3-.1.6-.2.9-.2c.5 0 .9.1 1.3.3c.3.1.7.4.9.6l-.5.6c-.2-.2-.5-.3-.7-.5c-.3-.1-.6-.2-1-.2c-.4 0-.7.1-1 .3c-.3.2-.4.5-.4.8c0 .2.1.4.1.5c.1.1.2.3.3.3c.1.1.3.2.4.3c.2.1.3.1.5.2l1 .4c.2.1.4.2.6.4c.2.1.4.2.5.4c.2.1.3.3.4.5c0 .2.1.5.1.7c0 .3-.1.6-.2.9c-.1.2-.3.5-.5.7c-.2.1-.5.3-.8.4c-.3.1-.7.2-1.1.2zm3.8-.2v-8.1h.9v2.2s-.05 1.18-.1 1.2c.3-.3.6-.5.9-.7c.3-.2.6-.2 1-.2c.6 0 1 .1 1.3.5c.2.4.4.9.4 1.6c-.02.03 0 3.5 0 3.5h-.9s-.05-3.35 0-3.4c0-.5-.1-.9-.3-1.1c-.2-.2-.4-.3-.8-.3c-.3 0-.5 0-.8.2c-.2.1-.4.3-.7.6c-.02.02 0 4 0 4h-.9zm7.2.2c-.2 0-.4-.1-.6-.1c-.2-.1-.4-.2-.5-.4c-.2-.1-.3-.3-.4-.5c-.1-.2-.1-.4-.1-.7c0-.7.3-1.2.9-1.5c.6-.3 1.4-.5 2.5-.5c0-.2 0-.3-.1-.5c0-.2 0-.3-.1-.4c-.1-.2-.2-.3-.4-.4c-.1 0-.3-.1-.5-.1c-.4 0-.7.1-1 .2c-.3.1-.5.2-.8.4l-.3-.7c.2-.2.6-.3.9-.4c.4-.2.9-.2 1.3-.2c.3 0 .6 0 .9.1c.2.1.4.3.6.5c.1.2.2.4.3.7c.1.3.1.6.1.9c.03.03 0 3.4 0 3.4h-.7l-.1-.6s-.05.04-.1 0c-.2.3-.5.4-.8.6c-.3.1-.6.2-1 .2zm.3-.8c.2 0 .5 0 .7-.1c.3-.1.5-.3.8-.5v-1.7c-.5.1-.9.1-1.2.2c-.3.1-.6.1-.8.2c-.2.1-.3.3-.4.4c-.1.2-.1.4-.1.6c0 .3.1.5.3.7c.2.1.4.2.7.2zm4 .6v-5.5h.8v1h.1c.2-.3.4-.6.7-.8c.2-.2.5-.3.8-.3h.4s.1 0 .2.1l-.1.8c-.1 0-.2-.1-.3-.1h-.3c-.1 0-.2 0-.3.1c-.2 0-.3.1-.4.2c-.1.1-.3.2-.4.4c-.1.1-.2.3-.3.6c.02-.02 0 3.5 0 3.5h-.9zm4.5-7.6v1h-.9v-1h.9zm0 7.6h-.9v-5.5h.9v5.5zm1.5 0v-5.5h.8v.8h.1c.2-.3.5-.5.8-.7c.3-.2.6-.2 1-.2c.6 0 1.1.1 1.3.5c.3.4.4.9.4 1.6c.02.03 0 3.5 0 3.5h-.9s-.01-3.35 0-3.4c0-.5-.1-.9-.3-1.1c-.1-.2-.4-.3-.8-.3c-.2 0-.5 0-.7.2c-.2.1-.5.3-.8.6c.02.02 0 4 0 4h-.9zm7.9 2.6c-.4 0-.7 0-.9-.1c-.3-.1-.6-.2-.8-.3c-.2-.1-.3-.3-.4-.5c-.1-.2-.2-.4-.2-.6c0-.2.1-.5.2-.7l.6-.6c-.1-.1-.3-.2-.3-.4c-.1-.1-.2-.3-.2-.5c0-.2.1-.4.2-.6l.4-.4v-.1c-.2-.1-.3-.3-.5-.6c-.1-.2-.2-.5-.2-.9c0-.3.1-.5.2-.8c.1-.2.2-.4.4-.6c.2-.2.4-.3.7-.4c.2-.1.5-.1.8-.1h.4c.2 0 .3.1.4.1h1.9v.7s-1.14.01-1.1 0c.1.1.2.3.3.5c.1.2.1.4.1.7c0 .2 0 .5-.1.7c-.2.3-.3.5-.5.7c-.2.1-.4.3-.6.3c-.3.1-.5.2-.8.2c-.3 0-.6-.1-.8-.2l-.3.3c-.1.1-.1.2-.1.3c0 .2.1.4.2.5c.1.1.4.2.8.2h1.1c.6 0 1.1.1 1.4.3c.3.2.5.5.5 1c0 .2-.1.5-.2.7c-.1.2-.3.4-.6.6c-.2.2-.5.3-.9.4c-.3.1-.7.2-1.1.2zm0-5h.4c.2-.1.3-.2.4-.3c.1-.1.2-.3.3-.4c0-.2.1-.4.1-.6c0-.4-.2-.7-.4-.9c-.2-.2-.5-.4-.8-.4c-.3 0-.6.2-.8.4c-.3.2-.4.5-.4.9c0 .2 0 .4.1.6c.1.1.2.3.3.4l.3.3h.5zm.1 4.4c.3 0 .5-.1.7-.1c.3-.1.4-.2.6-.3c.2-.1.3-.2.4-.4c0-.1.1-.2.1-.4c0-.2-.1-.4-.3-.5c-.2-.1-.5-.2-.8-.2h-1.3c-.2 0-.3 0-.4-.1c-.2.2-.4.3-.5.5c0 .1-.1.3-.1.5c0 .3.2.5.4.7c.3.2.7.3 1.2.3zm7.7-3.1h3.8v.7h-8.3v-.7h3.7V61h-2.7v-4.2h6.2v.7h-5.3v2.8h5.4v.7h-2.8v2.3zm13.7-7.3h.8v9.2h-.8V56zm-1.8 3.3v-3.1h.8v8.5h-.8V60h-1.6v-.7h1.6zm-2.5-1.5v.8c0 .4 0 .8.1 1.2c.1.4.2.8.4 1.1c.2.3.4.7.6.9c.3.3.5.5.9.7l-.6.6c-.4-.2-.8-.6-1.1-1.1c-.3-.4-.5-.9-.7-1.5c-.1.6-.4 1.2-.7 1.7c-.3.5-.7.9-1.2 1.2l-.5-.7c.3-.2.6-.4.9-.7c.2-.3.4-.6.6-1c.2-.3.3-.7.4-1.1c.1-.4.1-.9.1-1.3v-.8h-1.7v-.7h4.1v.7h-1.6zm12.9-.5v-.1h-5.4v-.7h6.2s.03.78 0 .8v1.1c0 .4-.1.8-.2 1.3l-.8-.1c.1-.5.1-.9.2-1.2v-1.1zm-2.2 3h4.1v.7h-8.3v-.7h3.4v-1.8h.8v1.8zm-.1 1.5c.5 0 .9.1 1.3.1c.4.1.8.2 1 .4c.3.1.5.3.7.5c.1.2.2.4.2.7c0 .3-.1.5-.2.7c-.2.2-.4.4-.7.5c-.2.2-.6.3-1 .4c-.4 0-.8.1-1.3.1c-.5 0-.9-.1-1.3-.1c-.4-.1-.7-.2-1-.4c-.3-.1-.5-.3-.7-.5c-.1-.2-.2-.4-.2-.7c0-.3.1-.5.2-.7c.2-.2.4-.4.7-.5c.3-.2.6-.3 1-.4c.4 0 .8-.1 1.3-.1zm0 2.7c.7 0 1.3-.1 1.7-.2c.4-.2.7-.5.7-.8c0-.3-.3-.6-.7-.8c-.4-.1-1-.2-1.7-.2c-.7 0-1.3.1-1.7.2c-.4.2-.6.5-.6.8c0 .3.2.6.6.8c.4.1 1 .2 1.7.2zm7.9-4.7l-.3-.7c.4 0 .8-.1 1.2-.2c.4-.1.7-.3 1-.5c.3-.1.5-.3.7-.6c.1-.2.2-.4.3-.7c-.03.03-2.9 0-2.9 0v-.6h6.8v.6s-2.85.03-2.9 0c.1.3.2.5.3.7c.2.3.5.5.7.6c.3.2.7.4 1 .5c.4.1.8.2 1.2.2l-.3.7c-.4-.1-.8-.2-1.1-.3c-.4-.1-.7-.2-1-.3c-.3-.2-.5-.4-.8-.6c-.2-.2-.4-.4-.5-.7c-.1.3-.3.5-.5.7c-.2.2-.5.4-.8.6c-.3.1-.6.2-1 .3c-.3.1-.7.2-1.1.3zm7.5 1.2h-3.7s.03.98 0 1c.9 0 1.6.2 2 .4c.5.3.7.7.7 1.2c0 .5-.2.9-.8 1.2c-.5.2-1.3.4-2.3.4c-1 0-1.7-.2-2.3-.4c-.6-.3-.8-.7-.8-1.2c0-.5.2-.9.7-1.2c.4-.2 1.1-.4 2-.4c-.02-.02 0-1 0-1h-3.7v-.7h8.2v.7zm-1.8 2.6c0-.3-.2-.6-.6-.7c-.4-.2-1-.3-1.7-.3c-.7 0-1.3.1-1.7.3c-.4.1-.6.4-.6.7c0 .3.2.5.6.7c.4.2 1 .2 1.7.2c.7 0 1.3 0 1.7-.2c.4-.2.6-.4.6-.7zm9.4-7.6h.8v9.2h-.8V56zm-4 .7c.3 0 .7.1.9.3c.3.1.6.3.8.6c.2.3.3.6.5 1c.1.4.1.8.1 1.3c0 .5 0 1-.1 1.4c-.2.3-.3.7-.5 1c-.2.2-.5.5-.8.6c-.2.2-.6.2-.9.2c-.3 0-.6 0-.9-.2c-.3-.1-.6-.4-.8-.6c-.2-.3-.3-.7-.4-1c-.2-.4-.2-.9-.2-1.4c0-.5 0-.9.2-1.3c.1-.4.2-.7.4-1c.2-.3.5-.5.8-.6c.3-.2.6-.3.9-.3zm0 .8c-.2 0-.4.1-.6.2c-.2.1-.4.3-.5.5c-.1.2-.2.4-.3.7c-.1.3-.1.7-.1 1c0 .4 0 .7.1 1c.1.3.2.6.3.8c.1.2.3.4.5.5c.2.1.4.2.6.2c.2 0 .4-.1.6-.2c.2-.1.4-.3.5-.5c.1-.2.2-.5.3-.8c.1-.3.1-.6.1-1c0-.3 0-.7-.1-1c-.1-.3-.2-.5-.3-.7c-.1-.2-.3-.4-.5-.5c-.2-.1-.4-.2-.6-.2zm15.1 2.2v.6h-1.5v4.9h-.9V56h.9v3.7h1.5zm-7.4-2.1s.05 4.61 0 4.6h2.2c.4-.1.7-.1 1-.1c.3-.1.6-.1 1-.2l.1.7c-.4.1-.7.1-1.1.2c-.3 0-.6 0-1 .1h-2.3c.04.03-.7 0-.7 0v-6h4.3v.7h-3.5zm7.9 7v-1h.9v1h-.9zm6.4-1h2.9v.8h-5v-.6l2.6-2.5l.6-.6c.1-.2.3-.4.4-.6c.1-.1.2-.3.3-.5c0-.2.1-.4.1-.7c0-.4-.2-.7-.4-.9c-.3-.3-.6-.4-1-.4c-.2 0-.4.1-.6.1c-.2.1-.3.2-.5.3c-.1.2-.2.3-.3.5c-.1.2-.1.4-.1.6l-.9-.2c0-.3.1-.6.3-.9c.1-.2.3-.4.5-.6c.2-.2.5-.3.7-.4c.3-.1.6-.2.9-.2c.4 0 .7.1.9.2c.3.1.5.2.8.4c.2.2.3.4.4.6c.1.3.2.6.2.9c0 .3 0 .6-.1.8c-.1.2-.2.5-.4.7c-.1.2-.3.4-.5.6c-.1.2-.3.5-.6.7l-2 2c.1 0 .2 0 .4-.1h.4zm9.1-2.9c0 .7-.1 1.2-.2 1.7c-.2.5-.4.9-.6 1.2c-.3.4-.6.6-.9.7c-.3.2-.7.3-1.1.3c-.4 0-.7-.1-1.1-.3c-.3-.1-.6-.3-.8-.7c-.3-.3-.5-.7-.6-1.2c-.2-.5-.2-1-.2-1.7c0-.7 0-1.2.2-1.7c.1-.5.3-.9.6-1.2c.2-.3.5-.6.8-.7c.4-.2.7-.3 1.1-.3c.4 0 .8.1 1.1.3c.3.1.6.4.9.7c.2.3.4.7.6 1.2c.1.5.2 1 .2 1.7zm-1 0c0-.6 0-1.1-.1-1.5c-.1-.4-.3-.7-.4-.9c-.2-.3-.4-.4-.6-.5c-.2-.1-.4-.2-.7-.2c-.2 0-.4.1-.7.2c-.2.1-.4.2-.5.5c-.2.2-.3.5-.4.9c-.1.4-.2.9-.2 1.5c0 .6.1 1.1.2 1.5c.1.4.2.7.4.9c.1.3.3.5.5.6c.3.1.5.1.7.1c.3 0 .5 0 .7-.1c.2-.1.4-.3.6-.6c.1-.2.3-.5.4-.9c.1-.4.1-.9.1-1.5zm3.6 2.9h3v.8h-5v-.6s2.56-2.5 2.6-2.5c.2-.2.3-.4.5-.6c.2-.2.3-.4.4-.6c.2-.1.2-.3.3-.5c.1-.2.1-.4.1-.7c0-.4-.1-.7-.4-.9c-.3-.3-.6-.4-1-.4c-.2 0-.4.1-.6.1c-.1.1-.3.2-.4.3c-.2.2-.3.3-.3.5c-.1.2-.2.4-.2.6l-.9-.2l.3-.9c.2-.2.3-.4.6-.6c.2-.2.4-.3.7-.4c.3-.1.6-.2.9-.2c.3 0 .6.1.9.2c.3.1.5.2.7.4c.2.2.4.4.5.6c.1.3.2.6.2.9c0 .3-.1.6-.2.8c0 .2-.2.5-.3.7c-.1.2-.3.4-.5.6c-.2.2-.4.5-.6.7l-2.1 2c.1 0 .3 0 .4-.1h.4zm7.2.1h1.5v.7h-4.1v-.7h1.7V58c.01.04-1.3 1.3-1.3 1.3l-.5-.6l2-1.8h.7v6.8zm9.2-.9v-3.1h-2.6v-.7h2.6v-1.1h-2.6v-.7h2.6v-1.1h.9v6.7h-.9zm-1.5-2.4l.1.7c-.7.2-1.4.3-2.1.3c-.6 0-1.3.1-1.9.1c-.05-.03-.7 0-.7 0v-4.8h.8v4.1c.6 0 1.3-.1 1.9-.1c.6-.1 1.2-.1 1.9-.3zm-2.7 3.9h5.3v.7H246v-2.8h.8v2.1zm15.3-4.5v.7h-1.4v4.7h-.8V56h.8v3.8h1.4zm-8.3-2.8s2.45.03 2.5 0c0 .6-.1 1.1-.1 1.7c-.1.5-.2 1-.4 1.5c-.1.6-.4 1.1-.6 1.5c-.3.5-.7 1-1.1 1.4l-.6-.4c.7-.8 1.1-1.5 1.4-2.3c.3-.9.5-1.7.6-2.7c-.04.02-1.7 0-1.7 0v-.7zm2.8 0s2.15.03 2.2 0c0 .6-.1 1.1-.1 1.7l-.3 1.8c-.2.5-.4 1.1-.6 1.7c-.3.5-.6 1-1 1.5l-.7-.4c.3-.4.6-.9.9-1.3c.2-.4.4-.9.5-1.4c.2-.4.3-.9.3-1.4c.1-.5.1-1 .2-1.5c-.03.02-1.4 0-1.4 0v-.7zm12.7-.9h.9v9.1h-.9v-9.1zm-3.3 1.6s-.05 1.14 0 1.1c0 .4 0 .8.1 1.2c.2.4.4.7.6 1.1c.2.3.5.6.8.8c.3.3.6.5.9.6l-.5.7c-.5-.2-1-.6-1.4-1.1c-.4-.5-.7-1.1-1-1.7c-.1.3-.2.7-.4 1c-.1.3-.3.6-.5.8c-.2.3-.4.5-.7.7c-.2.2-.5.4-.7.5l-.5-.6c.3-.2.6-.4.9-.7c.3-.3.6-.6.8-.9c.2-.4.4-.8.5-1.2c.2-.4.2-.8.2-1.2c.02.04 0-1.1 0-1.1H263v-.7h5.1v.7H266zm8.4 6.7V57s2.25-.04 2.3 0c.3 0 .7 0 1 .1c.3 0 .6.1.8.3c.2.1.4.3.5.5c.2.3.2.6.2.9c0 .4-.1.7-.3 1c-.2.3-.4.5-.8.6v.1c.5 0 .8.2 1.1.5c.3.3.5.7.5 1.2c0 .4-.1.7-.3 1c-.1.3-.3.5-.5.7c-.3.2-.6.3-.9.4c-.4.1-.8.1-1.2.1c.02.04-2.4 0-2.4 0zm1-4.3s1.09.04 1.1 0c.6 0 1.1-.1 1.4-.3c.3-.2.4-.5.4-.9c0-.4-.1-.8-.4-.9c-.3-.2-.8-.3-1.4-.3h-1.1v2.4zm0 3.6s1.28-.02 1.3 0c.6 0 1.1-.1 1.5-.4c.3-.2.5-.6.5-1.1c0-.5-.2-.8-.5-1c-.4-.2-.9-.3-1.5-.3c-.02-.03-1.3 0-1.3 0v2.8zm6.2-6.9v1h-.9v-1h.9zm0 7.6h-.9v-5.5h.9v5.5zm1.5 0v-8.1h.9v5.5l2.4-2.9h1l-1.8 2.2l2.1 3.3h-1l-1.6-2.6L284 63v1.4h-.9zm7.7.2c-.4 0-.8-.1-1.1-.2c-.3-.2-.6-.3-.8-.6c-.3-.2-.4-.5-.6-.9c-.1-.4-.2-.8-.2-1.2c0-.5.1-.9.2-1.2c.2-.4.3-.7.6-1c.2-.2.5-.4.8-.5c.3-.2.6-.2.9-.2c.4 0 .7 0 .9.1c.3.2.5.3.7.6c.2.2.4.5.5.8c.1.3.1.7.1 1.1v.5H289c.1.6.3 1.1.6 1.4c.3.3.7.5 1.3.5c.2 0 .5 0 .7-.1c.2-.1.5-.2.7-.3l.3.6c-.3.2-.5.3-.8.4c-.3.1-.7.2-1 .2zm-1.8-3.4h3c0-.6-.1-1-.4-1.3c-.2-.3-.5-.4-1-.4c-.2 0-.4 0-.6.1c-.1.1-.3.2-.4.4c-.2.1-.3.3-.4.5c-.1.2-.1.5-.2.7zm9.2 3.4c-.5 0-1-.1-1.4-.3c-.5-.2-.9-.5-1.2-.8l.6-.7c.2.3.5.5.9.7c.4.2.7.2 1.1.2c.5 0 .9-.1 1.2-.3c.3-.2.4-.5.4-.9c0-.2 0-.3-.1-.5l-.3-.3c-.1-.1-.2-.2-.4-.3c-.1 0-.3-.1-.4-.2l-1.1-.5c-.2-.1-.4-.1-.6-.2c-.1-.2-.3-.3-.4-.4c-.2-.2-.3-.4-.4-.6c-.1-.2-.1-.4-.1-.7c0-.3 0-.5.1-.8c.1-.2.3-.4.5-.6c.2-.2.5-.3.8-.4c.3-.1.6-.2.9-.2c.5 0 .9.1 1.2.3c.4.1.7.4 1 .6l-.5.6c-.2-.2-.5-.3-.8-.5c-.2-.1-.5-.2-.9-.2c-.4 0-.8.1-1 .3c-.3.2-.4.5-.4.8c0 .2 0 .4.1.5c.1.1.2.3.3.3c.1.1.3.2.4.3c.2.1.3.1.4.2l1.1.4c.2.1.4.2.6.4c.2.1.4.2.5.4c.2.1.3.3.3.5c.1.2.2.5.2.7c0 .3-.1.6-.2.9c-.1.2-.3.5-.5.7c-.2.1-.5.3-.8.4c-.3.1-.7.2-1.1.2zm3.7-.2v-8.1h1v2.2s-.06 1.18-.1 1.2c.3-.3.6-.5.9-.7c.2-.2.6-.2 1-.2c.6 0 1 .1 1.3.5c.2.4.4.9.4 1.6c-.04.03 0 3.5 0 3.5h-1s.04-3.35 0-3.4c0-.5 0-.9-.2-1.1c-.2-.2-.4-.3-.8-.3c-.3 0-.6 0-.8.2c-.2.1-.4.3-.7.6c-.03.02 0 4 0 4h-1zm7.3.2c-.2 0-.5-.1-.7-.1c-.2-.1-.3-.2-.5-.4c-.1-.1-.2-.3-.3-.5c-.1-.2-.1-.4-.1-.7c0-.7.3-1.2.9-1.5c.5-.3 1.4-.5 2.5-.5c0-.2 0-.3-.1-.5c0-.2-.1-.3-.1-.4c-.1-.2-.2-.3-.4-.4c-.1 0-.3-.1-.6-.1c-.3 0-.6.1-.9.2c-.3.1-.6.2-.8.4l-.3-.7c.2-.2.5-.3.9-.4c.4-.2.8-.2 1.3-.2c.3 0 .6 0 .9.1c.2.1.4.3.6.5c.1.2.2.4.3.7c.1.3.1.6.1.9c.01.03 0 3.4 0 3.4h-.8v-.6s-.06.04-.1 0c-.2.3-.5.4-.8.6c-.3.1-.7.2-1 .2zm.3-.8c.2 0 .5 0 .7-.1c.3-.1.5-.3.8-.5v-1.7c-.5.1-.9.1-1.2.2c-.4.1-.6.1-.8.2c-.2.1-.3.3-.4.4c-.1.2-.1.4-.1.6c0 .3.1.5.3.7c.1.1.4.2.7.2zm4 .6v-5.5h.7l.1 1h.1c.1-.3.4-.6.6-.8c.3-.2.6-.3.9-.3h.3c.1 0 .2 0 .3.1l-.2.8c-.1 0-.1-.1-.2-.1h-.3c-.1 0-.2 0-.4.1c-.1 0-.2.1-.3.2c-.2.1-.3.2-.4.4c-.1.1-.2.3-.3.6v3.5h-.9zm4.5-7.6v1h-.9v-1h.9zm0 7.6h-.9v-5.5h.9v5.5zm1.5 0v-5.5h.7l.1.8h.1c.2-.3.5-.5.8-.7c.3-.2.6-.2 1-.2c.6 0 1 .1 1.3.5c.3.4.4.9.4 1.6v3.5h-.9s-.02-3.35 0-3.4c0-.5-.1-.9-.3-1.1c-.1-.2-.4-.3-.8-.3c-.3 0-.5 0-.7.2c-.3.1-.5.3-.8.6v4h-.9zm7.9 2.6c-.4 0-.7 0-1-.1c-.2-.1-.5-.2-.7-.3c-.2-.1-.3-.3-.5-.5c-.1-.2-.1-.4-.1-.6c0-.2.1-.5.2-.7c.1-.2.3-.4.6-.6c-.1-.1-.3-.2-.4-.4c-.1-.1-.1-.3-.1-.5c0-.2.1-.4.2-.6c.1-.2.3-.3.4-.4v-.1c-.2-.1-.3-.3-.5-.6c-.1-.2-.2-.5-.2-.9c0-.3.1-.5.2-.8c.1-.2.2-.4.4-.6c.2-.2.4-.3.7-.4c.2-.1.5-.1.8-.1h.4c.1 0 .3.1.4.1h1.9v.7h-1.2c.2.1.3.3.4.5c.1.2.1.4.1.7c0 .2-.1.5-.2.7c-.1.3-.2.5-.4.7c-.2.1-.4.3-.6.3c-.3.1-.5.2-.8.2c-.3 0-.6-.1-.9-.2c-.1.1-.1.2-.2.3c-.1.1-.1.2-.1.3c0 .2.1.4.2.5c.1.1.4.2.8.2h1c.7 0 1.2.1 1.5.3c.3.2.5.5.5 1c0 .2-.1.5-.2.7c-.2.2-.3.4-.6.6c-.2.2-.5.3-.9.4c-.3.1-.7.2-1.1.2zm0-5h.4c.2-.1.3-.2.4-.3c.1-.1.2-.3.3-.4v-.6c0-.4-.1-.7-.3-.9c-.2-.2-.5-.4-.8-.4c-.4 0-.6.2-.9.4c-.2.2-.3.5-.3.9c0 .2 0 .4.1.6c.1.1.1.3.2.4c.2.1.3.2.4.3h.5zm.1 4.4c.3 0 .5-.1.7-.1c.3-.1.4-.2.6-.3c.1-.1.3-.2.3-.4c.1-.1.2-.2.2-.4c0-.2-.1-.4-.3-.5c-.2-.1-.5-.2-.9-.2h-1.3c-.1 0-.2 0-.3-.1c-.2.2-.4.3-.5.5c-.1.1-.1.3-.1.5c0 .3.1.5.4.7c.3.2.7.3 1.2.3zm12.6-7.3v.7h-6.3v-3.3h.8v2.6h5.5zm.9 2.1v.7h-3.7v3.3h-.9v-3.3h-3.7v-.7h8.3zm7.6-5.2h.8v5.5h-.8v-2.4h-1.8v-.7h1.8V56zm-1.3 4.5l-.4.7c-.5-.2-1-.5-1.3-.9c-.4-.3-.7-.7-.9-1.2c-.2.5-.5 1-.9 1.4c-.4.4-.9.7-1.4.9l-.5-.7c.4-.1.7-.3 1-.5c.3-.2.5-.4.7-.7c.2-.2.4-.5.5-.8c.1-.3.1-.7.1-1c.05.01 0-.4 0-.4h-2v-.6h4.9v.6h-2s-.02.41 0 .4c0 .3 0 .6.1.9c.2.3.3.5.5.8c.2.2.4.5.7.6c.3.2.6.4.9.5zm-4 2.2v-.7h6.1v3.2h-.8v-2.5h-5.3zm16.8-6.7h.8v9.2h-.8v-4.8h-1.3v4.3h-.7v-8.5h.7v3.5h1.3V56zm-5.8 1.8s.02 4.44 0 4.4h1.7c.4-.1.9-.1 1.4-.2l.1.7c-.3 0-.6.1-.8.1c-.3 0-.5.1-.8.1h-1.8c0 .04-.6 0-.6 0v-5.7h3.4v.6h-2.6zm14.8-1.8h.8v9.2h-.8v-3.5s-2.33-.04-2.3 0c-.2.4-.5.8-.8 1c-.4.3-.8.4-1.2.4c-.3 0-.6 0-.9-.2c-.3-.1-.5-.4-.7-.6c-.2-.3-.4-.7-.5-1c-.1-.4-.2-.9-.2-1.4c0-.5.1-.9.2-1.3c.1-.4.3-.7.5-1c.2-.3.4-.5.7-.6c.3-.2.6-.3.9-.3c.4 0 .8.2 1.1.4c.3.2.6.6.8 1h2.4V56zm-4.3 6.4c.2 0 .4-.1.6-.2c.2-.1.3-.3.5-.5c.1-.2.2-.5.3-.8c.1-.3.1-.6.1-1c0-.3 0-.7-.1-1c-.1-.3-.2-.5-.3-.7c-.2-.2-.3-.4-.5-.5c-.2-.1-.4-.2-.6-.2c-.2 0-.4.1-.6.2c-.2.1-.3.3-.5.5c-.1.2-.2.4-.3.7c-.1.3-.1.7-.1 1c0 .4 0 .7.1 1c.1.3.2.6.3.8c.2.2.3.4.5.5c.2.1.4.2.6.2zm2.3-2.5c0 .5-.1.8-.1 1.1c-.03-.02 2.1 0 2.1 0v-2.2s-2.16-.03-2.2 0c.1.2.1.3.1.5c.1.2.1.4.1.6z" stroke="none" fill="#111111"/></g><g id="Polygon112805"><path d="m9.1 41.2v.7H7.6v4.8h-.9v-9.1h.9v3.6h1.5zm-5.5-2s.02 1.14 0 1.1c0 .4.1.8.2 1.1c.1.4.3.8.5 1.1c.2.3.5.6.8.9c.2.3.6.5.9.6l-.5.7c-.5-.2-1-.6-1.4-1.1c-.4-.5-.7-1.1-.9-1.7c-.1.3-.2.7-.4 1c-.1.3-.3.6-.5.8c-.2.3-.4.5-.7.7c-.2.2-.5.4-.7.5l-.5-.6c.3-.2.6-.4.9-.7c.3-.3.6-.6.8-1c.2-.3.4-.7.5-1.1c.1-.4.2-.8.2-1.2c-.01.04 0-1.1 0-1.1H.7v-.7h5v.7H3.6zm12.8 2.6s-2.3.04-2.3 0c-.2.3-.5.5-.8.7c-.3.1-.7.2-1.1.2c-.3 0-.6 0-.9-.2c-.3-.1-.6-.2-.8-.4c-.2-.2-.3-.5-.5-.8c-.1-.2-.1-.5-.1-.9c0-.3 0-.6.1-.9c.2-.3.3-.5.5-.7c.2-.2.5-.4.8-.5c.3-.1.6-.2.9-.2c.4 0 .8.1 1.1.3c.3.1.6.3.8.6c-.01-.02 2.3 0 2.3 0v-1.4h.9v6.7h-.9v-2.5zm-5.7-1.4c0 .2 0 .5.1.6c.1.2.2.4.3.5c.1.2.3.3.5.4c.2 0 .4.1.6.1c.2 0 .4-.1.6-.1c.2-.1.4-.2.5-.4c.2-.1.3-.3.4-.5c0-.1.1-.4.1-.6c0-.2-.1-.4-.1-.6c-.1-.2-.2-.4-.4-.5c-.1-.1-.3-.2-.5-.3c-.2-.1-.4-.1-.6-.1c-.2 0-.4 0-.6.1c-.2.1-.4.2-.5.3c-.1.1-.2.3-.3.5c-.1.2-.1.4-.1.6zm5.7-.7s-1.96-.05-2 0c.1.2.2.4.2.7c0 .3-.1.5-.2.8c.04-.03 2 0 2 0v-1.5zm-4.1 6.1h5.2v.7h-6.1v-2.9h.9v2.2zm13.3-8.3h.8v5.5h-.8v-2.4h-1.8v-.7h1.8v-2.4zM24.3 42l-.4.7c-.5-.2-1-.5-1.4-.9c-.3-.3-.6-.7-.8-1.2c-.2.5-.5 1-.9 1.4c-.4.4-.9.7-1.4.9l-.5-.7c.4-.1.7-.3 1-.5c.2-.2.5-.4.7-.7c.2-.2.4-.5.5-.8c.1-.3.1-.7.1-1c.04.01 0-.4 0-.4h-2v-.6h4.9v.6h-2s-.03.41 0 .4c0 .3 0 .6.1.9c.1.3.3.5.5.8c.2.2.4.5.7.6c.3.2.6.4.9.5zm-4 2.2v-.7h6.1v3.2h-.8v-2.5h-5.3zm16.3-4.7c.03-.03 0-.4 0-.4H31v-.6h6.5s-.04.97 0 1v.9c0 .3-.1.6-.1.9c0 .3 0 .7-.1 1c0 .4-.1.8-.2 1.2l-.8-.1c.1-.7.2-1.3.3-1.9v-2zm-1.3 5.2h3.1v.7h-8.2v-.7h2v-3h.8v3h1.5v-3h.8v3zm12.5-4.9v.7h-1.4v2.2h-.8v-5.2h.8v2.3h1.4zm-8.1-1.7s4.26.02 4.3 0c0 .6-.1 1.1-.3 1.6c-.2.5-.5 1-.9 1.4c-.3.4-.8.7-1.3 1c-.6.3-1.2.5-1.8.7l-.4-.6c1.2-.3 2.1-.8 2.7-1.4c.6-.5 1-1.2 1.1-2c-.04.01-3.4 0-3.4 0v-.7zm1 8.5v-3.4h5.7v3.4h-5.7zm.8-2.8v2.1h4.1v-2.1h-4.1zM56 42l-.4.7c-.6-.2-1-.4-1.4-.7c-.4-.4-.7-.7-.9-1.2c-.2.5-.5.9-.9 1.3c-.4.4-.8.6-1.4.8l-.4-.6c.4-.1.7-.3.9-.5c.3-.2.6-.4.8-.6c.2-.3.3-.5.4-.8c.1-.3.2-.6.2-.9v-.2h-2v-.6h2v-1.2h.8v1.2h2v.6h-2s.02.21 0 .2c0 .3.1.6.2.8c.1.3.2.5.4.7c.2.3.5.5.7.6c.3.2.6.3 1 .4zm1.7-2.1h1.4v.7h-1.4v2.6h-.8v-5.7h.8v2.4zm-2.9 3.5c.9 0 1.7.1 2.2.4c.5.3.8.7.8 1.2c0 .6-.3 1-.8 1.2c-.5.3-1.3.5-2.2.5c-1 0-1.7-.2-2.2-.5c-.6-.2-.8-.6-.8-1.2c0-.5.2-.9.8-1.2c.5-.3 1.2-.4 2.2-.4zm0 2.6c.7 0 1.2-.1 1.6-.2c.4-.2.6-.4.6-.8c0-.3-.2-.5-.6-.7c-.4-.2-.9-.3-1.6-.3c-.7 0-1.2.1-1.6.3c-.4.2-.6.4-.6.7c0 .4.2.6.6.8c.4.1.9.2 1.6.2zm5.7-4.8l-.3-.6c.4-.1.8-.1 1.2-.2c.4-.1.7-.2 1-.3c.3-.2.5-.3.7-.5c.2-.2.3-.4.4-.6c-.05-.02-2.9 0-2.9 0v-.7h2.9v-.8h.8v.8h2.9v.7s-2.81-.02-2.8 0c0 .2.1.4.3.6c.2.2.4.3.7.5c.3.1.6.2 1 .3c.4.1.8.1 1.2.2l-.2.6c-.4 0-.8-.1-1.1-.2c-.4 0-.7-.1-1-.3c-.3-.1-.6-.2-.8-.4c-.2-.1-.4-.3-.6-.5c-.1.2-.3.4-.5.5c-.3.2-.5.3-.8.4c-.3.2-.7.3-1 .3c-.4.1-.7.2-1.1.2zm7.5 1h-3.7v.9h2.7v2h-5.4v.9h5.7v.6h-6.5v-2.1h5.4v-.8h-5.4v-.6h2.7v-.9h-3.7v-.6h8.2v.6zm7.9-4.7h.8v9.2h-.8v-9.2zm-1.8 3.6v-3.4h.8v8.5h-.8v-4.4s-1.13-.02-1.1 0c0 .4-.1.8-.2 1.2c-.1.3-.2.7-.4.9c-.2.3-.4.4-.6.6c-.2.1-.5.2-.8.2c-.3 0-.5-.1-.8-.2c-.2-.2-.4-.4-.6-.7c-.2-.3-.3-.6-.4-1c-.1-.4-.1-.8-.1-1.3c0-.5 0-1 .1-1.3c.1-.4.2-.8.4-1c.2-.3.4-.5.6-.7c.3-.1.5-.2.8-.2c.3 0 .6.1.8.2c.2.1.4.3.6.6c.1.2.3.5.4.8c.1.4.1.8.2 1.2h1.1zM71 43.9c.4 0 .7-.2.9-.6c.2-.5.3-1.1.3-1.8c0-.4 0-.7-.1-1c0-.3-.1-.6-.2-.8c-.1-.2-.2-.3-.4-.5c-.1-.1-.3-.1-.5-.1c-.3 0-.6.2-.8.6c-.3.5-.4 1-.4 1.8c0 .7.1 1.3.4 1.8c.2.4.5.6.8.6zm15.9-6.4h.8v9.2h-.8v-9.2zm-6.1 1s4.25.03 4.2 0c0 .7 0 1.3-.2 1.9c-.1.7-.4 1.2-.7 1.8c-.4.5-.8 1-1.4 1.5c-.5.5-1.1.9-1.9 1.3l-.5-.7c1.3-.6 2.2-1.3 2.8-2.2c.7-.8 1-1.8 1.1-2.9h-3.4v-.7zm15.3-1h.8v9.2h-.8v-3.5s-2.28-.04-2.3 0c-.2.4-.4.8-.8 1c-.3.3-.7.4-1.1.4c-.4 0-.7 0-1-.2c-.2-.1-.5-.4-.7-.6c-.2-.3-.4-.7-.5-1c-.1-.4-.1-.9-.1-1.4c0-.5 0-.9.1-1.3c.1-.4.3-.7.5-1c.2-.3.5-.5.7-.6c.3-.2.6-.3 1-.3c.4 0 .8.2 1.1.4c.3.2.6.6.8 1h2.3v-2.1zm-4.2 6.4c.2 0 .4-.1.5-.2c.2-.1.4-.3.5-.5c.1-.2.3-.5.3-.8c.1-.3.1-.6.1-1c0-.3 0-.7-.1-1c0-.3-.2-.5-.3-.7c-.1-.2-.3-.4-.5-.5c-.1-.1-.3-.2-.5-.2c-.3 0-.5.1-.7.2c-.1.1-.3.3-.4.5c-.2.2-.3.4-.3.7c-.1.3-.1.7-.1 1c0 .4 0 .7.1 1c0 .3.1.6.3.8c.1.2.3.4.4.5c.2.1.4.2.7.2zm2.2-2.5c0 .5 0 .8-.1 1.1c.02-.02 2.1 0 2.1 0v-2.2s-2.11-.03-2.1 0c0 .2.1.3.1.5v.6zm13-.1v.7h-1.5v4.7h-.8v-9.1h.8v3.7h1.5zm-5.4-3.6v1.3h2.2v.7h-5.4v-.7h2.3v-1.3h.9zm-.4 2.7c.3 0 .6.1.9.2c.2.1.5.2.7.4c.2.2.3.4.4.7c.1.3.2.5.2.8c0 .4-.1.6-.2.9c-.1.3-.2.5-.4.7c-.2.2-.5.3-.7.4c-.3.1-.6.1-.9.1c-.4 0-.7 0-.9-.1c-.3-.1-.5-.2-.7-.4c-.2-.2-.4-.4-.5-.7c-.1-.3-.1-.5-.1-.9c0-.3 0-.5.1-.8c.1-.3.3-.5.5-.7c.2-.2.4-.3.7-.4c.2-.1.5-.2.9-.2zm0 3.6c.2 0 .4-.1.5-.2c.2 0 .4-.1.5-.2c.1-.2.2-.3.3-.5c.1-.2.1-.3.1-.6c0-.2 0-.3-.1-.5c-.1-.2-.2-.3-.3-.5c-.1-.1-.3-.2-.5-.3c-.1 0-.3-.1-.5-.1c-.2 0-.4.1-.6.1c-.2.1-.3.2-.5.3c-.1.2-.2.3-.3.5c0 .2-.1.3-.1.5c0 .3.1.4.1.6c.1.2.2.3.3.5c.2.1.3.2.5.2c.2.1.4.2.6.2zm12.9-4.6c.02-.03 0-.3 0-.3h-5.6v-.6h6.5s-.04.87 0 .9v.8c-.1.4-.1.7-.1 1c0 .4 0 .7-.1 1.1c0 .4-.1.8-.2 1.3l-.8-.1c.1-.9.3-1.6.3-2.3v-1.8zm-2.4 5.3h4.2v.7h-8.2v-.7h3.2v-3.3h.8v3.3zm14.7-7.1v5.2h-.8v-5.2h.8zm-4.9 4.7c-.3 0-.7 0-.9-.1c-.3-.1-.6-.3-.8-.4c-.2-.2-.4-.5-.5-.7c-.1-.3-.2-.6-.2-.9c0-.3.1-.6.2-.9c.1-.2.3-.4.5-.6c.2-.2.5-.4.8-.5c.2-.1.6-.1.9-.1c.4 0 .7 0 1 .1c.3.1.5.3.7.5c.2.2.4.4.5.6c.2.3.2.6.2.9c0 .3 0 .6-.2.9c-.1.2-.3.5-.5.7c-.2.1-.4.3-.7.4c-.3.1-.6.1-1 .1zm0-3.5c-.2 0-.4 0-.6.1c-.2.1-.4.2-.5.3c-.1.1-.3.3-.3.4c-.1.2-.1.4-.1.6c0 .2 0 .4.1.6c0 .2.2.3.3.4c.1.2.3.3.5.3c.2.1.4.2.6.2c.2 0 .4-.1.6-.2c.2 0 .4-.1.5-.3c.2-.1.3-.2.4-.4c.1-.2.1-.4.1-.6c0-.2 0-.4-.1-.6c-.1-.1-.2-.3-.4-.4c-.1-.1-.3-.2-.5-.3c-.2-.1-.4-.1-.6-.1zm3.9 4.4v.5c0 .2.1.4.1.7c.1.2.2.4.4.6c.1.2.3.4.6.6c.2.1.5.2.7.3l-.4.7c-.4-.2-.8-.4-1.1-.7c-.3-.3-.6-.7-.7-1.1c-.2.4-.4.8-.6 1.1c-.3.3-.7.6-1.1.7c-.4-.1-.8-.4-1.1-.7c-.3-.3-.5-.6-.6-1c-.2.3-.4.7-.7 1c-.3.3-.7.5-1.1.7l-.4-.7c.3-.1.5-.2.7-.4c.3-.1.5-.3.6-.5c.2-.2.3-.4.4-.7c.1-.2.1-.4.1-.6v-.5h.8v.5c0 .4.1.8.3 1.2c.2.4.6.7 1 .9c.2-.1.4-.3.6-.4c.1-.2.3-.4.4-.6c.1-.2.2-.4.2-.6c.1-.2.1-.4.1-.5v-.5h.8zm11.3-2v.6h-1.6v4.9h-.8v-9.2h.8v3.7h1.6zm-7.4-2.1s.03 4.61 0 4.6h2.2c.3-.1.7-.1 1-.1c.3-.1.6-.1.9-.2l.1.7c-.3.1-.6.1-1 .2c-.3 0-.7 0-1 .1h-2.3c.02.03-.7 0-.7 0v-6h4.2v.7h-3.4zm7.9 7v-1h.9v1h-.9z" stroke="none" fill="#111111"/></g><g id="Polygon112804"><path d="m2.6 26.6h3v.8H.5v-.6s2.62-2.5 2.6-2.5l.6-.6c.1-.2.3-.4.4-.6c.1-.1.2-.3.3-.5c0-.2.1-.4.1-.7c0-.4-.2-.7-.4-.9c-.3-.3-.6-.4-1-.4c-.2 0-.4.1-.6.1c-.2.1-.3.2-.5.3c-.1.2-.2.3-.3.5c-.1.2-.1.4-.1.6l-.9-.2c0-.3.1-.6.3-.9c.1-.2.3-.4.5-.6c.2-.2.5-.3.8-.4c.2-.1.5-.2.9-.2c.3 0 .6.1.8.2c.3.1.6.2.8.4c.2.2.3.4.4.6c.2.3.2.6.2.9c0 .3 0 .6-.1.8c-.1.2-.2.5-.3.7c-.2.2-.4.4-.5.6c-.2.2-.4.5-.6.7l-2.1 2c.1 0 .3 0 .4-.1h.4zm9.1-2.9c0 .7-.1 1.2-.2 1.7c-.2.5-.4.9-.6 1.2c-.3.4-.6.6-.9.7c-.3.2-.7.3-1.1.3c-.4 0-.7-.1-1-.3c-.4-.1-.7-.3-.9-.7c-.3-.3-.5-.7-.6-1.2c-.1-.5-.2-1-.2-1.7c0-.7.1-1.2.2-1.7c.1-.5.3-.9.6-1.2c.2-.3.5-.6.9-.7c.3-.2.6-.3 1-.3c.4 0 .8.1 1.1.3c.3.1.6.4.9.7c.2.3.4.7.6 1.2c.1.5.2 1 .2 1.7zm-1 0c0-.6 0-1.1-.1-1.5c-.1-.4-.2-.7-.4-.9c-.2-.3-.4-.4-.6-.5c-.2-.1-.4-.2-.7-.2c-.2 0-.4.1-.6.2c-.3.1-.5.2-.6.5c-.2.2-.3.5-.4.9c-.1.4-.2.9-.2 1.5c0 .6.1 1.1.2 1.5c.1.4.2.7.4.9c.1.3.3.5.6.6c.2.1.4.1.6.1c.3 0 .5 0 .7-.1c.2-.1.4-.3.6-.6c.2-.2.3-.5.4-.9c.1-.4.1-.9.1-1.5zm4.9 3h1.5v.7h-4v-.7h1.6s.04-5.55 0-5.5v-.2c.05.04-1.3 1.3-1.3 1.3l-.5-.6l2-1.8h.7v6.8zm7.4-4.9c0 .9-.4 1.4-1.2 1.7c.4.2.8.4 1.1.7c.2.3.3.7.3 1.2c0 .4 0 .7-.2.9c-.1.3-.3.5-.5.7c-.2.2-.5.4-.8.5c-.3.1-.7.1-1 .1c-.4 0-.8 0-1.1-.1c-.3-.1-.6-.3-.8-.5c-.2-.2-.4-.4-.5-.7c-.2-.2-.2-.5-.2-.9c0-.5.1-.9.4-1.2c.2-.3.6-.5 1.1-.7c-.4-.1-.7-.3-.9-.6c-.2-.3-.4-.7-.4-1.1c0-.3.1-.6.2-.8c.1-.2.3-.4.5-.6c.2-.2.4-.4.7-.5c.3-.1.6-.1 1-.1c.3 0 .6 0 .9.1c.3.1.5.3.7.5c.2.2.4.4.5.6c.1.2.2.5.2.8zm-2.3-1.3c-.5 0-.9.1-1.1.4c-.2.2-.3.6-.3.9v.5c.1.2.2.3.3.5c.1.1.2.2.4.3c.2 0 .4.1.7.1c.2 0 .4-.1.6-.1c.2-.1.3-.2.4-.3c.1-.2.2-.3.3-.5v-.5c0-.3-.1-.7-.3-.9c-.2-.3-.6-.4-1-.4zm0 6.3c.5 0 .9-.1 1.1-.3c.3-.3.4-.7.4-1.1c0-.2 0-.5-.1-.7c-.1-.1-.2-.3-.3-.4c-.2-.1-.3-.2-.5-.3c-.2 0-.4-.1-.6-.1c-.2 0-.4.1-.6.1l-.6.3c-.1.1-.2.3-.3.4c-.1.2-.1.5-.1.7c0 .4.1.8.4 1.1c.3.2.7.3 1.2.3zm10-1v-3.1h-2.5v-.7h2.5v-1.1h-2.5v-.7h2.5v-1.1h.9v6.7h-.9zm-1.5-2.4l.1.7c-.7.2-1.4.3-2.1.3c-.6 0-1.3.1-1.9.1c-.03-.03-.7 0-.7 0v-4.8h.8v4.1c.6 0 1.3-.1 1.9-.1c.6-.1 1.2-.1 1.9-.3zm-2.6 3.9h5.2v.7h-6.1v-2.8h.9v2.1zm13.9-7.9v4h-6.2v-4h.8v1.3h4.5v-1.3h.9zm-.9 3.3v-1.4h-4.5v1.4h4.5zm1.9 1.8v.6h-3.7v3.1h-.9v-3.1h-3.7v-.6h8.3zm7.6-5.5h.8v9.2h-.8v-5h-1.9v-.7h1.9V19zm-5.4 4.1s-.04 2.21 0 2.2h2.1c.3-.1.6-.1.9-.1c.3-.1.6-.1.9-.2l.1.7c-.3.1-.7.1-1 .2h-.9c-.4.1-.7.1-1.1.1h-1.9v-6.1h4.3v.7h-3.4v1.8h3v.7h-3zm11.7-2.3s-.33 1.94-.3 1.9c.3 0 .7-.1 1-.1c.4 0 .8.1 1.1.2c.3.1.5.3.7.5c.2.2.4.4.5.7c.1.3.2.6.2.9c0 .4-.1.8-.2 1.1c-.2.3-.4.6-.6.8c-.3.2-.5.4-.9.5c-.3.2-.7.2-1 .2c-.5 0-.9-.1-1.3-.2l-.9-.6l.5-.7c.3.2.5.4.8.5c.3.1.6.2.9.2c.3 0 .5 0 .7-.1c.2-.1.4-.2.6-.4c.1-.1.2-.3.3-.5c.1-.2.2-.5.2-.8c0-.4-.2-.8-.5-1.1c-.3-.3-.7-.4-1.2-.4c-.2 0-.4 0-.6.1c-.2 0-.4.1-.7.1c.04.04-.6-.1-.6-.1l.7-3.6h3.5v.9h-2.9zm10.8 5v-3.1h-2.6v-.7h2.6v-1.1h-2.6v-.7h2.6v-1.1h.9v6.7h-.9zm-1.5-2.4l.1.7c-.7.2-1.4.3-2.1.3c-.6 0-1.3.1-1.9.1c-.04-.03-.7 0-.7 0v-4.8h.8v4.1c.6 0 1.3-.1 1.9-.1c.6-.1 1.2-.1 1.9-.3zM62 27.3h5.3v.7h-6.1v-2.8h.8v2.1zm13.8-5.5h1.4v.7h-1.4v3.2h-.8v-6.6h.8v2.7zm-6.7-2s4.27-.05 4.3 0c0 .5-.1 1.1-.3 1.6c-.2.5-.5 1-.9 1.4c-.4.4-.8.8-1.3 1.1c-.6.3-1.2.6-1.8.8l-.4-.7c.6-.2 1.1-.4 1.5-.6c.4-.2.8-.5 1.1-.8c.4-.3.6-.7.8-1c.2-.4.3-.8.4-1.2c-.03.04-3.4 0-3.4 0v-.6zM71 25v2.3h5.2v.7h-6.1v-3h.9zm13.9-6h.8v9.2h-.8V19zm-1.8 3.6v-3.4h.8v8.5h-.8v-4.4s-1.19-.02-1.2 0c0 .4-.1.8-.2 1.2c-.1.3-.2.7-.4.9c-.1.3-.3.4-.6.6c-.2.1-.5.2-.7.2c-.3 0-.6-.1-.8-.2c-.3-.2-.5-.4-.7-.7c-.1-.3-.3-.6-.4-1c0-.4-.1-.8-.1-1.3c0-.5.1-1 .1-1.3c.1-.4.3-.8.4-1c.2-.3.4-.5.7-.7c.2-.1.5-.2.8-.2c.2 0 .5.1.7.2c.2.1.4.3.6.6c.2.2.3.5.4.8c.1.4.2.8.2 1.2h1.2zM80 25.4c.3 0 .6-.2.8-.6c.2-.5.4-1.1.4-1.8c0-.4-.1-.7-.1-1c-.1-.3-.2-.6-.3-.8c-.1-.2-.2-.3-.3-.5c-.2-.1-.4-.1-.5-.1c-.4 0-.7.2-.9.6c-.2.5-.3 1-.3 1.8c0 .7.1 1.3.3 1.8c.2.4.5.6.9.6zm15.8-1.7v-1.8h-1.9v-.7h1.9V19h.9v4.7h-.9zm-6-4.2h4c0 .6-.1 1.1-.3 1.5c-.2.5-.5.9-.8 1.3c-.4.4-.8.7-1.3 1c-.6.2-1.2.5-1.8.6l-.3-.6c1.1-.3 2-.7 2.6-1.2c.6-.6.9-1.2 1-1.9c0-.04-3.1 0-3.1 0v-.7zm1.8 7.9h5.4v.7h-6.2v-2.4h5.1v-.9h-5.1v-.7h5.9v2.3h-5.1v1zM105 19h.9v9.2h-.9v-3.7h-1.8v-.7h1.8v-1.2h-1.8v-.7h1.8V19zm-3.5 2.3v.7c0 .4.1.8.2 1.1c.1.4.3.7.5 1.1c.2.3.4.6.7.8c.3.3.6.5.9.6l-.4.7c-.6-.3-1-.6-1.4-1.1c-.4-.4-.7-1-.9-1.6c-.2.6-.5 1.2-.9 1.7c-.4.5-.9.9-1.4 1.1l-.5-.6c.4-.2.7-.4 1-.7c.3-.2.5-.5.7-.9c.2-.3.4-.6.5-1c.1-.4.2-.8.2-1.2c-.03.01 0-.7 0-.7h-2.1v-.7h2.1v-1.4h.8v1.4h2v.7h-2zm8.9 2.6l-.3-.7l1.2-.3c.4-.1.7-.3 1-.5c.3-.2.6-.5.7-.7c.2-.3.3-.6.3-.9c.01.05-2.9 0-2.9 0v-.6h2.9v-1.1h.9v1.1h2.9v.6s-2.94.05-2.9 0c0 .3 0 .6.2.9c.2.2.4.5.7.7c.3.2.7.4 1.1.5c.3.1.7.2 1.1.3l-.3.7l-1-.3c-.3-.1-.6-.2-.9-.4c-.3-.2-.6-.3-.8-.5c-.2-.3-.4-.5-.6-.7c-.1.2-.3.4-.5.7c-.3.2-.5.3-.8.5c-.3.2-.6.3-.9.4l-1.1.3zm7.5.7v.7h-3.7v2.9h-.9v-2.9h-3.7v-.7h8.3zm8.4-5.5v6.6h-.9v-6.6h.9zm-1.9 4.7l-.4.6c-.6-.1-1-.4-1.4-.8c-.4-.3-.7-.8-.9-1.2c-.2.5-.5.9-.9 1.3c-.4.4-.9.7-1.5.9l-.4-.6c.3-.2.7-.3.9-.5c.3-.2.6-.5.8-.7c.2-.3.3-.6.4-.9c.2-.3.2-.6.2-.9c.02-.02 0-.5 0-.5h-2.1v-.7h5v.7h-2s-.03.48 0 .5c0 .3 0 .6.1.9c.2.3.3.5.5.8c.2.2.5.4.7.6c.3.2.6.4 1 .5zm-3.2 3.5h5.4v.7h-6.2v-2.9h.8v2.2zm15.3-4.5v.7H135v4.7h-.8v-9.1h.8v3.7h1.5zm-5.5-3.6v1.3h2.3v.7h-5.4v-.7h2.3v-1.3h.8zm-.4 2.7c.4 0 .7.1.9.2c.3.1.5.2.7.4c.2.2.4.4.5.7c.1.3.2.5.2.8c0 .4-.1.6-.2.9c-.1.3-.3.5-.5.7c-.2.2-.4.3-.7.4c-.2.1-.5.1-.9.1c-.3 0-.6 0-.8-.1c-.3-.1-.6-.2-.8-.4c-.1-.2-.3-.4-.4-.7c-.1-.3-.2-.5-.2-.9c0-.3.1-.5.2-.8c.1-.3.3-.5.4-.7c.2-.2.5-.3.8-.4c.2-.1.5-.2.8-.2zm0 3.6c.3 0 .4-.1.6-.2c.2 0 .4-.1.5-.2c.1-.2.2-.3.3-.5c0-.2.1-.3.1-.6c0-.2-.1-.3-.1-.5c-.1-.2-.2-.3-.3-.5c-.1-.1-.3-.2-.5-.3c-.2 0-.3-.1-.6-.1c-.2 0-.4.1-.5.1c-.2.1-.4.2-.5.3c-.1.2-.2.3-.3.5c-.1.2-.1.3-.1.5c0 .3 0 .4.1.6c.1.2.2.3.3.5c.1.1.3.2.5.2c.1.1.3.2.5.2zm13-4.6v-.3H138v-.6h6.4s.03.87 0 .9v1.8c0 .4-.1.7-.1 1.1c-.1.4-.1.8-.2 1.3l-.9-.1c.2-.9.3-1.6.4-2.3v-1.8zm-2.4 5.3h4.2v.7h-8.3v-.7h3.3v-3.3h.8v3.3zm14.7-7.1v5.2h-.8v-5.2h.8zm-4.9 4.7c-.4 0-.7 0-1-.1c-.3-.1-.5-.3-.7-.4c-.2-.2-.4-.5-.5-.7c-.1-.3-.2-.6-.2-.9c0-.3.1-.6.2-.9c.1-.2.3-.4.5-.6c.2-.2.4-.4.7-.5c.3-.1.6-.1 1-.1c.3 0 .7 0 .9.1c.3.1.6.3.8.5c.2.2.4.4.5.6c.1.3.2.6.2.9c0 .3-.1.6-.2.9c-.1.2-.3.5-.5.7c-.2.1-.5.3-.8.4c-.2.1-.6.1-.9.1zm0-3.5c-.2 0-.4 0-.6.1c-.2.1-.4.2-.5.3c-.2.1-.3.3-.4.4c0 .2-.1.4-.1.6c0 .2.1.4.1.6c.1.2.2.3.4.4c.1.2.3.3.5.3c.2.1.4.2.6.2c.2 0 .4-.1.6-.2c.2 0 .4-.1.5-.3c.2-.1.3-.2.4-.4c0-.2.1-.4.1-.6c0-.2-.1-.4-.1-.6c-.1-.1-.2-.3-.4-.4c-.1-.1-.3-.2-.5-.3c-.2-.1-.4-.1-.6-.1zm3.9 4.4v.5c0 .2 0 .4.1.7c.1.2.2.4.4.6c.1.2.3.4.5.6c.3.1.5.2.8.3l-.4.7c-.4-.2-.8-.4-1.1-.7c-.3-.3-.6-.7-.7-1.1c-.2.4-.4.8-.7 1.1c-.2.3-.6.6-1 .7c-.5-.1-.8-.4-1.1-.7c-.3-.3-.5-.6-.6-1c-.2.3-.4.7-.7 1c-.3.3-.7.5-1.1.7l-.5-.7c.3-.1.6-.2.8-.4c.2-.1.4-.3.6-.5c.2-.2.3-.4.4-.7c0-.2.1-.4.1-.6c-.02-.04 0-.5 0-.5h.8v.5c0 .4.1.8.3 1.2c.2.4.5.7 1 .9c.2-.1.4-.3.5-.4c.2-.2.3-.4.4-.6c.2-.2.2-.4.3-.6c0-.2.1-.4.1-.5c-.03-.04 0-.5 0-.5h.8zm6.8-5.1c.5 0 .9.1 1.3.2c.4.1.8.3 1.1.5c.3.2.5.5.7.8c.2.3.2.7.2 1c0 .4 0 .8-.2 1.1c-.2.3-.4.6-.7.8c-.3.2-.7.4-1.1.5c-.4.1-.8.2-1.3.2c-.5 0-.9-.1-1.3-.2c-.4-.1-.8-.3-1.1-.5c-.3-.2-.5-.5-.7-.8c-.1-.3-.2-.7-.2-1.1c0-.3.1-.7.2-1c.2-.3.4-.6.7-.8c.3-.2.7-.4 1.1-.5c.4-.1.8-.2 1.3-.2zm0 .7c-.4 0-.7 0-1 .1c-.3.1-.6.2-.8.4c-.2.2-.4.4-.5.6c-.2.2-.2.5-.2.7c0 .3 0 .6.2.8c.1.2.3.4.5.6c.2.1.5.3.8.4c.3 0 .6.1 1 .1c.4 0 .7-.1 1-.1c.3-.1.6-.3.8-.4c.2-.2.4-.4.5-.6c.2-.2.2-.5.2-.8c0-.2 0-.5-.2-.7c-.1-.2-.3-.4-.5-.6c-.2-.2-.5-.3-.8-.4c-.3-.1-.6-.1-1-.1zm-4.1 6h8.3v.7h-8.3v-.7zm15.9-7.3h.8v9.2h-.8v-3.8h-2.2v1.5h-4.2v-6h4.2v1.3h2.2V19zm-3 6.2v-4.6h-2.6v4.6h2.6zm.8-1.4h2.2v-1.9h-2.2v1.9zm4.3 4.4l.4-2.1h.9l-.6 2.1h-.7zm5.3-6.1l-1-.1c.1-.4.2-.7.3-.9c.2-.3.3-.5.5-.7c.3-.2.5-.3.8-.4c.3-.1.6-.2.9-.2c.3 0 .6.1.9.2c.2.1.5.2.7.4c.2.1.3.4.4.6c.1.2.2.5.2.8c0 .5-.1.8-.4 1.1c-.2.3-.5.5-.9.6c1 .3 1.5.9 1.5 1.8c0 .4-.1.7-.2 1c-.2.2-.3.5-.6.7c-.2.2-.5.3-.8.4c-.3.1-.6.2-1 .2c-.4 0-.7-.1-1-.2c-.3-.1-.5-.2-.7-.4c-.2-.2-.4-.4-.5-.6c-.1-.3-.2-.5-.3-.8l.8-.3c0 .1.1.2.2.4c.1.3.3.6.6.8c.2.2.5.3.9.3c.3 0 .5-.1.7-.2c.2-.1.4-.2.5-.3c.2-.1.3-.3.3-.5c.1-.1.1-.3.1-.5c0-.2 0-.3-.1-.5c0-.2-.1-.3-.2-.5c-.2-.1-.4-.2-.6-.2c-.3-.1-.6-.2-1-.2v-.6c.3 0 .6-.1.8-.1l.6-.3c.1-.1.2-.3.3-.4c0-.2.1-.4.1-.6c0-.4-.2-.7-.4-.9c-.3-.2-.6-.3-1-.3c-.2 0-.4 0-.6.1c-.1 0-.3.1-.4.3c-.2.1-.3.3-.3.4c-.1.2-.1.4-.1.6zm11.7-3.1h.8v9.2h-.8v-4.8h-1.3v4.3h-.8v-8.4h.8v3.4h1.3V19zm-6.6 1.2s3.54.02 3.5 0c0 .6 0 1.2-.1 1.8c-.1.5-.3 1-.6 1.6c-.3.5-.6 1-1.1 1.4c-.4.5-.9.9-1.6 1.2l-.5-.6c.5-.3 1-.6 1.4-.9c.3-.4.7-.8.9-1.2l.6-1.2c.1-.5.2-.9.2-1.4H186v-.7zm15.4 6.1h3.8v.7h-8.3v-.7h3.7v-2.4h-2.7v-4.1h.8v3.4h5.5v.7h-2.8v2.4zm11.4-.4v-4h-2v-.7h2v-2.1h.8v6.8h-.8zm-1.4-2.2l-.4.7c-.5-.2-1-.5-1.4-.9c-.3-.4-.6-.8-.8-1.3c-.2.5-.5 1-.9 1.4c-.4.4-.9.8-1.4 1l-.4-.7c.3-.1.6-.3.9-.5c.3-.2.5-.5.7-.7c.2-.3.4-.6.5-1c.1-.3.2-.6.2-1c-.05.02 0-1.1 0-1.1h.8v1.2c0 .3 0 .6.2.9c.1.3.2.6.4.8c.2.3.4.5.7.7c.3.2.6.4.9.5zm-2.9 3.6h5.3v.7h-6.1v-2.9h.8v2.2zm13.4-8.3h.8v9.2h-.8V19zm-3.7.7c.4 0 .7.1 1 .2c.3.1.6.2.8.4c.2.2.3.4.5.7c.1.3.2.5.2.9c0 .3-.1.6-.2.8c-.2.3-.3.5-.5.7c-.2.2-.5.4-.8.5c-.3.1-.6.1-1 .1c-.3 0-.7 0-1-.1c-.3-.1-.5-.3-.7-.5c-.3-.2-.4-.4-.6-.7c-.1-.2-.1-.5-.1-.8c0-.4 0-.6.1-.9c.2-.3.3-.5.6-.7c.2-.2.4-.3.7-.4c.3-.1.7-.2 1-.2zm0 .7c-.2 0-.5.1-.7.1c-.2.1-.3.2-.5.3c-.1.2-.2.3-.3.5c-.1.2-.1.3-.1.6c0 .2 0 .4.1.5c.1.2.2.4.3.5c.2.1.3.2.5.3c.2.1.5.1.7.1c.2 0 .5 0 .7-.1c.2-.1.3-.2.5-.3c.1-.1.2-.3.3-.5c.1-.1.1-.3.1-.5c0-.3 0-.4-.1-.6c-.1-.2-.2-.3-.3-.5c-.2-.1-.3-.2-.5-.3c-.2 0-.5-.1-.7-.1zm-2.8 5.8l-.1-.7h1.4c.4 0 .9 0 1.5-.1h1.5c.5-.1 1.1-.1 1.6-.2v.6c-.5.1-1 .2-1.5.2c-.6.1-1.1.1-1.6.1c-.5.1-1 .1-1.5.1h-1.3zm19.6-3.5v.7h-1.5v4.8h-.8v-9.1h.8v3.6h1.5zm-5.4-2s-.02 1.14 0 1.1c0 .4 0 .8.2 1.1c.1.4.3.8.5 1.1c.2.3.4.6.7.9c.3.3.6.5.9.6l-.4.7c-.5-.2-1-.6-1.4-1.1c-.4-.5-.7-1.1-.9-1.7c-.1.3-.3.7-.4 1c-.2.3-.4.6-.6.8c-.2.3-.4.5-.6.7c-.3.2-.5.4-.8.5l-.5-.6c.4-.2.7-.4 1-.7c.3-.3.5-.6.7-1c.3-.3.4-.7.6-1.1c.1-.4.2-.8.2-1.2c-.05.04 0-1.1 0-1.1h-2.1v-.7h4.9v.7h-2zm10.9.9h1.9v-2.5h.8v6.7h-.8v-3.5h-1.9v-.7zm.6 2.1l-.4.7c-.6-.2-1-.5-1.4-.8c-.4-.4-.6-.8-.8-1.3c-.2.5-.5 1-.9 1.4c-.4.4-.9.7-1.5.9l-.4-.7c.4-.1.7-.3.9-.5c.3-.2.6-.4.8-.7c.2-.2.3-.5.4-.8c.2-.3.2-.6.2-1c.02.03 0-.4 0-.4h-2v-.7h4.9v.7h-2s-.05.42 0 .4c0 .3 0 .6.1.9c.1.3.3.5.5.8c.2.2.4.5.7.7c.2.2.5.3.9.4zm-2.9 3.6h5.3v.7h-6.1v-2.8h.8v2.1zm13.4-8.2h.8v9.1h-.8v-4.8h-2.2v-.7h2.2v-3.6zm-6.3.9s4.13.03 4.1 0c0 .7 0 1.3-.2 1.9c-.1.6-.4 1.2-.7 1.8c-.3.5-.7 1-1.3 1.5c-.5.4-1.1.9-1.9 1.2l-.5-.6c1.3-.6 2.2-1.3 2.8-2.2c.6-.9.9-1.8 1-2.9h-3.3v-.7zm18.3-1v4.7h-.8V19h.8zm-6.9.5h4.2c0 .6-.1 1.1-.3 1.6c-.2.4-.5.9-.9 1.2c-.3.4-.8.7-1.3 1c-.5.2-1.1.4-1.8.6l-.3-.7c1.1-.2 2-.6 2.7-1.1c.6-.6.9-1.2 1-1.9c-.01-.03-3.3 0-3.3 0v-.7zm1.9 7.9h5.3v.7h-6.2v-2.3h5.1v-1h-5.1v-.6h5.9v2.2h-5v1zm10.8-4.4c-.5 0-.9 0-1.3-.1c-.4-.1-.7-.2-1-.4c-.3-.1-.5-.3-.7-.6c-.1-.2-.2-.4-.2-.7c0-.3.1-.6.2-.8c.2-.2.4-.4.7-.6c.3-.1.6-.2 1-.3c.4-.1.8-.1 1.3-.1c.5 0 1 0 1.4.1c.4.1.7.2 1 .3c.3.2.5.4.6.6c.2.2.2.5.2.8c0 .3 0 .5-.2.7c-.1.3-.3.5-.6.6c-.3.2-.6.3-1 .4c-.4.1-.9.1-1.4.1zm0-3c-.7 0-1.3.1-1.7.3c-.4.2-.6.5-.6.9c0 .3.2.6.6.8c.4.2 1 .3 1.7.3c.8 0 1.3-.1 1.8-.3c.4-.2.6-.5.6-.8c0-.4-.2-.7-.6-.9c-.5-.2-1-.3-1.8-.3zm-4.1 3.9h8.3v.6h-8.3v-.6zm1.9 1.4v2h5.5v.7h-6.3v-2.7h.8zm16.9-6.2v4.7h-.9v-4.7h.9zm-1.9 3.9l-.4.6c-.6-.2-1-.4-1.4-.8c-.4-.3-.8-.7-1-1.2c-.2.5-.5 1-.9 1.4c-.4.3-.9.6-1.4.8l-.4-.7c.3-.1.6-.2.9-.4c.3-.2.6-.4.8-.7c.2-.2.3-.5.4-.8c.1-.3.2-.6.2-.9v-.1h-2.1v-.6h5v.6h-2s-.04.14 0 .1c0 .3 0 .6.1.9c.1.3.3.5.5.7c.2.3.4.5.7.6c.3.2.6.4 1 .5zm-3.2 4.4h5.4v.7h-6.2v-2.3h5v-.9h-5.1v-.7h6v2.2H279v1zm13.4-8.4h.8v9.2h-.8V19zm-5.3 4.2v2.1c.8 0 1.5 0 2.2-.1c.7 0 1.5-.1 2.3-.2v.7c-.4 0-.8.1-1.2.1c-.3.1-.7.1-1.1.1c-.4 0-.7.1-1.1.1h-1.9v-3.5h3.3v-1.9h-3.4v-.7h4.3v3.3h-3.4zm16.3-.5v.7H302v4.8h-.9V19h.9v3.7h1.4zm-7.3-2.8v5.3c.7 0 1.3-.1 2-.1l2.2-.3l.1.7l-2.3.3c-.7 0-1.4.1-2.1.1c.01-.03-.7 0-.7 0v-6h.8zm16.7-.8h.9v9.1h-.9v-9.1zm-3.4 1.6s.05 1.14 0 1.1c0 .4.1.8.2 1.2c.2.4.3.7.6 1.1c.2.3.4.6.7.8c.3.3.7.5 1 .6l-.5.7c-.5-.2-1-.6-1.4-1.1c-.4-.5-.8-1.1-1-1.7c-.1.3-.2.7-.4 1c-.1.3-.3.6-.5.8c-.2.3-.4.5-.7.7c-.2.2-.5.4-.7.5l-.5-.6c.3-.2.6-.4.9-.7c.3-.3.6-.6.8-.9c.2-.4.4-.8.5-1.2c.1-.4.2-.8.2-1.2c.01.04 0-1.1 0-1.1h-2.1v-.7h5.1v.7h-2.2zm12.7-1.6l.8-.1v5.4h-.8v-1.3s-2.36.02-2.4 0c-.2.3-.4.5-.8.6c-.3.2-.6.3-1 .3c-.4 0-.7-.1-1-.2c-.3-.1-.5-.3-.7-.5c-.2-.2-.4-.4-.5-.7c-.1-.2-.2-.5-.2-.9c0-.3.1-.6.2-.8c.1-.3.3-.5.5-.7c.2-.2.4-.4.7-.5c.3-.1.6-.1 1-.1c.4 0 .7 0 1 .2c.4.1.6.3.8.6h2.4v-1.3zm-4.2 4.1c.2 0 .4 0 .6-.1c.2 0 .3-.1.5-.3c.1-.1.2-.3.3-.5c.1-.1.1-.3.1-.6c0-.2 0-.4-.1-.6c-.1-.1-.2-.3-.3-.4c-.2-.1-.3-.2-.5-.3c-.2-.1-.4-.1-.6-.1c-.3 0-.5 0-.7.1c-.2.1-.3.2-.5.3c-.1.1-.2.3-.3.4c-.1.2-.1.4-.1.6c0 .3 0 .5.1.6c.1.2.2.4.3.5c.2.2.3.3.5.3c.2.1.4.1.7.1zm2.3-1.5c0 .3 0 .6-.1.7c.01.04 2 0 2 0v-1.3s-1.99-.04-2 0c.1.1.1.4.1.6zm-3.4 3.9v-.7h6.1v3.3h-.8v-2.6h-5.3zm14.4-6.6h.8v9.2h-.8V19zm-3.7.7c.4 0 .7.1 1 .2c.3.1.6.2.8.4c.2.2.4.4.5.7c.1.3.2.5.2.9c0 .3-.1.6-.2.8c-.1.3-.3.5-.5.7c-.2.2-.5.4-.8.5c-.3.1-.6.1-1 .1c-.3 0-.7 0-1-.1c-.3-.1-.5-.3-.7-.5c-.3-.2-.4-.4-.6-.7c-.1-.2-.1-.5-.1-.8c0-.4 0-.6.1-.9c.2-.3.3-.5.6-.7c.2-.2.4-.3.7-.4c.3-.1.7-.2 1-.2zm0 .7c-.2 0-.4.1-.6.1l-.6.3c-.1.2-.2.3-.3.5c-.1.2-.1.3-.1.6c0 .2 0 .4.1.5c.1.2.2.4.3.5l.6.3c.2.1.4.1.6.1c.2 0 .5 0 .7-.1c.2-.1.3-.2.5-.3c.1-.1.2-.3.3-.5c.1-.1.1-.3.1-.5c0-.3 0-.4-.1-.6c-.1-.2-.2-.3-.3-.5c-.2-.1-.3-.2-.5-.3c-.2 0-.5-.1-.7-.1zm-2.8 5.8l-.1-.7h1.4c.4 0 .9 0 1.5-.1h1.5c.5-.1 1.1-.1 1.6-.2v.6c-.5.1-1 .2-1.5.2c-.6.1-1.1.1-1.6.1c-.5.1-1 .1-1.5.1h-1.3zm18.3-6.7v3.2h-6.1v-3.2h6.1zm-.8 2.5v-1.9h-4.5v1.9h4.5zm-6.4 1.7h8.3v.7h-3.7v1.8h-.8v-1.8h-3.8v-.7zm1.9 1.7v1.9h5.5v.7h-6.4v-2.6h.9zm15.8-2.5v.7H352v4.6h-.8V19h.8v3.9h1.5zm-3-2.7v.6H345v-.6h2.4v-1.1h.8v1.1h2.3zm-2.3 4.5v1c.4 0 .8-.1 1.2-.1c.5 0 .9-.1 1.3-.1v.6c-.5.1-1 .1-1.5.2c-.5 0-1 .1-1.5.1c-.5 0-.9 0-1.4.1H345l-.1-.7c.3 0 .7 0 1.2-.1h1.3v-1c-.6 0-1-.2-1.3-.5c-.3-.3-.5-.7-.5-1.2c0-.2.1-.4.2-.6c.1-.3.2-.4.4-.6c.2-.1.4-.2.7-.3c.3-.1.6-.1.9-.1c.3 0 .6 0 .9.1l.6.3c.2.2.4.3.5.6c.1.2.1.4.1.6c0 .5-.1.9-.4 1.2c-.4.3-.8.5-1.3.5zm-1.8-1.7c0 .4.1.6.4.8c.2.2.6.3 1 .3c.4 0 .7-.1 1-.3c.2-.2.3-.4.3-.8c0-.3-.1-.5-.3-.7c-.3-.2-.6-.3-1-.3c-.4 0-.8.1-1 .3c-.3.2-.4.4-.4.7zm14.5-4h.8v5.5h-.8v-2.4h-1.8v-.7h1.8V19zm-1.3 4.5l-.5.7c-.5-.2-.9-.5-1.3-.9c-.4-.3-.7-.7-.9-1.2c-.2.5-.5 1-.9 1.4c-.4.4-.8.7-1.4.9l-.4-.7c.3-.1.6-.3.9-.5c.3-.2.6-.4.8-.7c.2-.2.3-.5.4-.8c.1-.3.2-.7.2-1v-.4h-2v-.6h4.8v.6h-2s.03.41 0 .4c0 .3.1.6.2.9c.1.3.3.5.5.8c.1.2.4.5.7.6c.2.2.5.4.9.5zm-4 2.2v-.7h6.1v3.2h-.8v-2.5h-5.3zm7.4 2.5l.4-2.1h.9l-.6 2.1h-.7z" stroke="none" fill="#111111"/></g><g id="Polygon112803"><path d="m8.4 3.2l-.3.6c-.4 0-.8-.1-1.1-.2c-.3-.1-.7-.3-1-.4c-.3-.2-.5-.3-.8-.5c-.2-.3-.4-.5-.5-.7c-.2.2-.4.4-.6.7c-.2.2-.5.3-.8.5c-.3.1-.6.3-1 .4c-.3.1-.7.2-1 .2L1 3.2l1.2-.3c.4-.1.7-.3 1-.5c.3-.2.6-.4.8-.7c.2-.2.3-.5.3-.8c-.05.05 0-.3 0-.3h.8v.3c0 .3.1.6.3.8c.2.3.4.5.7.7c.3.2.7.4 1.1.5c.3.1.7.2 1.2.3zM.5 4.4h8.3v.7H.5v-.7zM2.4 8v.9h5.6v.7H1.6V7.4h5.3v-.9H1.5v-.6h6.3v2.1H2.4zm11.9-.1h3.7v.7H9.7v-.7h3.7V6.2h-2.6V3.3h5.4V1.9h-5.5v-.7h6.3v2.8h-5.4v1.5h5.6v.7h-2.9v1.7zm13.1-3.8v.7h-1.5v4.9h-.8V.6h.8v3.5h1.5zm-4.7-.4V1.3h.8v6.2h-4.2V1.3h.8v2.4h2.6zm0 3.1V4.4h-2.6v2.4h2.6zM34.8.5h.8v9.2h-.8V.5zm-6 1h4.1c0 .7 0 1.3-.2 1.9c-.1.7-.3 1.3-.6 1.8c-.4.6-.8 1.1-1.3 1.6c-.6.5-1.3 1-2.1 1.4l-.4-.7c.8-.4 1.5-.8 2-1.3c.6-.6 1-1.1 1.3-1.8c-.04.05-3.2.3-3.2.3l-.1-.7s3.52-.23 3.5-.2c.1-.3.2-.5.2-.8c.1-.3.1-.5.1-.8c.02-.03-3.3 0-3.3 0v-.7zm17 2.7v.7h-1.5v4.8h-.8V.6h.8v3.6h1.5zm-6.1-3c.3 0 .6.1.9.3c.3.1.5.3.8.6c.2.3.3.6.4 1c.1.4.2.8.2 1.3c0 .5-.1 1-.2 1.4c-.1.3-.2.7-.4 1c-.3.2-.5.5-.8.6c-.3.2-.6.2-.9.2c-.3 0-.7 0-.9-.2c-.3-.1-.6-.4-.8-.6c-.2-.3-.3-.7-.4-1c-.2-.4-.2-.9-.2-1.4c0-.5 0-.9.2-1.3c.1-.4.2-.7.4-1c.2-.3.5-.5.8-.6c.2-.2.6-.3.9-.3zm0 5.7c.2 0 .4-.1.6-.2c.2-.1.3-.3.5-.5c.1-.2.2-.5.3-.8c.1-.3.1-.6.1-1c0-.3 0-.7-.1-1c-.1-.3-.2-.5-.3-.7c-.2-.2-.3-.4-.5-.5c-.2-.1-.4-.2-.6-.2c-.2 0-.4.1-.6.2c-.2.1-.4.3-.5.5c-.1.2-.2.4-.3.7c-.1.3-.1.7-.1 1c0 .4 0 .7.1 1c.1.3.2.6.3.8c.1.2.3.4.5.5c.2.1.4.2.6.2zm15.2-5.1c.02-.02 0-.1 0-.1h-5.4v-.7h6.2s.04.78 0 .8v1.1c0 .4-.1.8-.2 1.3l-.8-.1c.1-.5.2-.9.2-1.2V1.8zm-2.1 3h4v.7h-8.3v-.7h3.4V3h.9v1.8zm-.2 1.5c.5 0 1 .1 1.3.1c.4.1.8.2 1 .4c.3.1.5.3.7.5c.1.2.2.4.2.7c0 .3-.1.5-.2.7c-.2.2-.4.4-.7.5c-.2.2-.6.3-1 .4c-.3 0-.8.1-1.3.1c-.5 0-.9-.1-1.3-.1c-.4-.1-.7-.2-1-.4c-.3-.1-.5-.3-.6-.5c-.2-.2-.3-.4-.3-.7c0-.3.1-.5.3-.7c.1-.2.3-.4.6-.5c.3-.2.6-.3 1-.4c.4 0 .8-.1 1.3-.1zm0 2.7c.7 0 1.3-.1 1.7-.2c.5-.2.7-.5.7-.8c0-.3-.2-.6-.7-.8c-.4-.1-1-.2-1.7-.2c-.7 0-1.3.1-1.7.2c-.4.2-.6.5-.6.8c0 .3.2.6.6.8c.4.1 1 .2 1.7.2zm12.2-6.1h1.4v.7h-1.4v2.5h-.8V.6h.8v2.3zM63 5l-.4.6c-.5-.1-1-.4-1.3-.7c-.4-.4-.7-.8-.9-1.2c-.2.5-.5.9-.9 1.3c-.4.4-.9.7-1.4.9l-.4-.7c.3-.1.6-.3.9-.5c.3-.2.5-.4.7-.6c.2-.3.4-.6.5-.9c.1-.3.2-.6.2-.9c-.04-.05 0-.4 0-.4h-2.1v-.7h4.9v.7h-2v.4c0 .3 0 .5.1.8c.1.3.3.6.5.8c.2.2.4.4.7.6c.3.2.6.4.9.5zm-1.1 1.3c.5 0 .9 0 1.2.1c.4.1.7.2 1 .3c.3.2.5.4.6.6c.1.2.2.4.2.7c0 .3-.1.5-.2.7c-.1.2-.3.4-.6.5c-.3.2-.6.3-1 .4c-.3 0-.7.1-1.2.1c-.9 0-1.7-.2-2.2-.5c-.6-.3-.8-.7-.8-1.2c0-.5.2-1 .8-1.3c.5-.2 1.3-.4 2.2-.4zm0 2.7c.7 0 1.2-.1 1.6-.3c.4-.1.6-.4.6-.7c0-.3-.2-.6-.6-.8c-.4-.1-.9-.2-1.6-.2c-.7 0-1.2.1-1.6.2c-.4.2-.6.5-.6.8c0 .3.2.6.6.7c.4.2.9.3 1.6.3zM76.5.6v6.6h-.9V.6h.9zm-2.6 2.8c0 .4 0 .7-.1.9c-.2.3-.3.6-.5.8c-.3.2-.5.3-.8.4c-.3.1-.6.2-.9.2c-.4 0-.7-.1-1-.2c-.3-.1-.5-.2-.7-.4c-.3-.2-.4-.5-.5-.8c-.2-.2-.2-.5-.2-.9c0-.3 0-.6.2-.9c.1-.3.2-.5.5-.7c.2-.2.4-.3.7-.5c.3-.1.6-.1 1-.1c.3 0 .6 0 .9.1c.3.2.5.3.8.5c.2.2.3.4.5.7c.1.3.1.6.1.9zm-3.9 0c0 .3 0 .5.1.6c.1.2.2.4.3.5c.2.2.3.3.5.4c.2 0 .4.1.7.1c.2 0 .4-.1.6-.1c.2-.1.3-.2.5-.4c.1-.1.2-.3.3-.5c.1-.1.1-.3.1-.6c0-.2 0-.4-.1-.6c-.1-.2-.2-.3-.3-.5c-.2-.1-.3-.2-.5-.3c-.2-.1-.4-.1-.6-.1c-.3 0-.5 0-.7.1c-.2.1-.3.2-.5.3c-.1.2-.2.3-.3.5c-.1.2-.1.4-.1.6zm1.4 5.4h5.3v.7h-6.1v-3h.8v2.3zm13.7-4c.04-.05 1.3 0 1.3 0v.6h-8.3v-.6s6.19-.05 6.2 0c.1-.7.2-1.2.2-1.7V1.8c.05 0 0 0 0 0h-5.3v-.7h6.2s-.03.7 0 .7c0 .4 0 .8-.1 1.3c0 .5 0 1-.2 1.7zm-5 1.7v2.3h5.5v.7h-6.4v-3h.9zm13.8-6h.9v9.2h-.9V.5zm-3.6.7c.4 0 .7.1 1 .2c.3.1.5.2.7.4c.3.2.4.4.6.7c.1.3.1.5.1.9c0 .3 0 .6-.1.8c-.2.3-.3.5-.6.7c-.2.2-.4.4-.7.5c-.3.1-.6.1-1 .1c-.4 0-.7 0-1-.1c-.3-.1-.5-.3-.8-.5c-.2-.2-.4-.4-.5-.7c-.1-.2-.2-.5-.2-.8c0-.4.1-.6.2-.9c.1-.3.3-.5.5-.7c.3-.2.5-.3.8-.4c.3-.1.6-.2 1-.2zm0 .7c-.2 0-.5.1-.7.1c-.2.1-.3.2-.5.3c-.1.2-.2.3-.3.5c-.1.2-.1.3-.1.6c0 .2 0 .4.1.5c.1.2.2.4.3.5c.2.1.3.2.5.3c.2.1.5.1.7.1c.2 0 .4 0 .6-.1l.6-.3c.1-.1.2-.3.3-.5c.1-.1.1-.3.1-.5c0-.3 0-.4-.1-.6c-.1-.2-.2-.3-.3-.5l-.6-.3c-.2 0-.4-.1-.6-.1zm-2.8 5.8l-.1-.7h1.3c.5 0 1 0 1.5-.1h1.6c.5-.1 1-.1 1.5-.2l.1.6c-.5.1-1 .2-1.6.2c-.5.1-1 .1-1.5.1c-.5.1-1 .1-1.5.1h-1.3zM105 1.8c-.02-.02 0-.1 0-.1h-5.4v-.7h6.2v1.9c0 .4-.1.8-.3 1.3l-.8-.1c.2-.5.2-.9.2-1.2c.1-.4.1-.8.1-1.1zm-2.2 3h4v.7h-8.2v-.7h3.4V3h.8v1.8zm-.1 1.5c.5 0 .9.1 1.3.1c.4.1.7.2 1 .4c.3.1.5.3.7.5c.1.2.2.4.2.7c0 .3-.1.5-.2.7c-.2.2-.4.4-.7.5c-.3.2-.6.3-1 .4c-.4 0-.8.1-1.3.1c-.5 0-.9-.1-1.3-.1c-.4-.1-.8-.2-1-.4c-.3-.1-.5-.3-.7-.5c-.1-.2-.2-.4-.2-.7c0-.3.1-.5.2-.7c.2-.2.4-.4.7-.5c.2-.2.6-.3 1-.4c.4 0 .8-.1 1.3-.1zm0 2.7c.7 0 1.3-.1 1.7-.2c.4-.2.6-.5.6-.8c0-.3-.2-.6-.6-.8c-.4-.1-1-.2-1.7-.2c-.7 0-1.3.1-1.7.2c-.5.2-.7.5-.7.8c0 .3.2.6.7.8c.4.1 1 .2 1.7.2zm9.9-3.1h1.8V.5h.8v7h-.8v-.9h-1.8v-.7zm-1.9-1.8c-.3 0-.6 0-.9-.1c-.3-.1-.5-.2-.7-.3c-.2-.2-.4-.3-.5-.5c-.1-.2-.2-.5-.2-.7c0-.2.1-.5.2-.7c.1-.2.3-.3.5-.5c.2-.1.4-.2.7-.3c.3-.1.6-.1.9-.1c.3 0 .6 0 .9.1c.3.1.5.2.7.3c.2.2.4.3.5.5c.1.2.1.5.1.7c0 .2 0 .5-.1.7c-.1.2-.3.3-.5.5c-.2.1-.4.2-.7.3c-.3.1-.6.1-.9.1zm0-2.6c-.4 0-.8.1-1.1.3c-.2.2-.4.4-.4.7c0 .3.2.5.4.7c.3.2.7.3 1.1.3c.4 0 .8-.1 1-.3c.3-.2.4-.4.4-.7c0-.3-.1-.5-.4-.7c-.2-.2-.6-.3-1-.3zm-.3 5.7s-.04-1.78 0-1.8c-.5 0-.9.1-1.4.1h-1.2l-.1-.7h1.4c.5 0 1 0 1.5-.1h1.5c.5-.1 1-.1 1.5-.2l.1.6c-.4.1-.8.1-1.3.2c-.4 0-.8 0-1.2.1v1.8h-.8zm-.5 1.6h5.6v.7H109V6.8h.9v2zm6.7.9l.4-2.1h.9l-.6 2.1h-.7zm12-7.8v.7h-7.4v-.7h3.3V.7h.8v1.2h3.3zm-3.3 6h3.7v.7h-8.3v-.7h3.8s-.03-1.25 0-1.2c-.9-.1-1.5-.3-1.9-.6c-.5-.3-.7-.7-.7-1.2c0-.3 0-.5.2-.7c.1-.2.3-.4.6-.6l.9-.3c.4-.1.8-.1 1.3-.1c.4 0 .9 0 1.2.1c.4.1.7.2 1 .3l.6.6c.1.2.2.4.2.7c0 .5-.3.9-.7 1.2c-.5.3-1.1.5-1.9.6v1.2zm-2.6-3c0 .4.2.6.6.8c.4.2.9.3 1.6.3c.6 0 1.2-.1 1.5-.3c.4-.2.6-.4.6-.8c0-.3-.2-.6-.6-.8c-.3-.2-.9-.3-1.5-.3c-.7 0-1.2.1-1.6.3c-.4.2-.6.5-.6.8zm15.1-.9l-.3.7l-1.1-.3c-.3-.1-.7-.3-.9-.4c-.3-.2-.6-.4-.9-.7c-.2-.2-.4-.5-.5-.7c-.2.2-.4.5-.6.7c-.2.3-.5.5-.8.7c-.3.1-.6.3-1 .4l-1 .3l-.3-.7c.4 0 .8-.1 1.2-.3c.4-.2.7-.4 1-.6c.3-.2.6-.5.8-.8c.1-.3.2-.6.2-.9c.03-.02 0-.5 0-.5h.9v.5c0 .3.1.6.3.9c.2.3.4.6.7.8c.3.2.7.4 1.1.6c.4.2.8.3 1.2.3zm.4 1.7v.7h-3.7v3.3h-.9V6.4h-3.7v-.7h8.3zM142 5l-.3-.7c.4 0 .8-.1 1.2-.3c.3-.1.7-.3 1-.6c.3-.2.5-.4.7-.7c.2-.3.3-.6.3-.9c-.04.04 0 0 0 0H142v-.7h6.7v.7h-2.9s-.01.04 0 0c0 .3.1.6.3.9c.1.3.4.5.7.7c.3.3.6.5 1 .6c.4.2.8.3 1.2.3l-.3.7l-1.1-.3c-.3-.1-.6-.3-.9-.4c-.3-.2-.6-.4-.8-.7c-.3-.2-.4-.4-.6-.7c-.1.3-.3.5-.5.7c-.3.3-.5.5-.8.7c-.3.1-.6.3-1 .4c-.3.1-.6.2-1 .3zm7.5.8v.6h-3.8v3.3h-.8V6.4h-3.7v-.6h8.3zm5.4-.9v.9h-4.1V1.2h.9v1.6h2.4V1.2h.8v1h2.2V.6h.8v6.7h-.8V4.9h-2.2zm2.2-2h-2.2v1.3h2.2V2.9zm-3 2.2V3.4h-2.4v1.7h2.4zm-1.2 3.7h5.2v.7H152V6.7h.9v2.1zM166.5.5h.8v9.2h-.8V.5zm-1.8 3.6V.7h.8v8.5h-.8V4.8s-1.14-.02-1.1 0c-.1.4-.1.8-.2 1.2c-.1.3-.3.7-.4.9c-.2.3-.4.4-.6.6c-.2.1-.5.2-.8.2c-.3 0-.6-.1-.8-.2c-.2-.2-.4-.4-.6-.7c-.2-.3-.3-.6-.4-1c-.1-.4-.1-.8-.1-1.3c0-.5 0-1 .1-1.3c.1-.4.2-.8.4-1c.2-.3.4-.5.6-.7c.2-.1.5-.2.8-.2c.3 0 .5.1.8.2c.2.1.4.3.6.6c.1.2.3.5.4.8c.1.4.1.8.2 1.2h1.1zm-3.1 2.8c.4 0 .7-.2.9-.6c.2-.5.3-1.1.3-1.8c0-.4 0-.7-.1-1c0-.3-.1-.6-.2-.8c-.1-.2-.3-.3-.4-.5c-.1-.1-.3-.1-.5-.1c-.3 0-.6.2-.9.6c-.2.5-.3 1-.3 1.8c0 .7.1 1.3.3 1.8c.3.4.6.6.9.6zm17.8-2.7v.7h-1.6v4.8h-.8V.6h.8v3.6h1.6zm-5.5-2s-.01 1.14 0 1.1c0 .4.1.8.2 1.1c.1.4.3.8.5 1.1c.2.3.4.6.7.9c.3.3.6.5 1 .6l-.5.7c-.5-.2-1-.6-1.4-1.1c-.4-.5-.7-1.1-.9-1.7c-.1.3-.3.7-.4 1c-.2.3-.4.6-.6.8c-.2.3-.4.5-.6.7c-.2.2-.5.4-.8.5l-.4-.6c.3-.2.6-.4.9-.7c.3-.3.5-.6.7-1c.3-.3.4-.7.6-1.1c.1-.4.2-.8.2-1.2c-.04.04 0-1.1 0-1.1H171v-.7h4.9v.7h-2zm10.9.9h1.9V.6h.8v6.7h-.8V3.8h-1.9v-.7zm.6 2.1l-.4.7c-.5-.2-1-.5-1.4-.8c-.4-.4-.6-.8-.8-1.3c-.2.5-.5 1-.9 1.4c-.4.4-.9.7-1.4.9l-.5-.7c.4-.1.7-.3 1-.5c.2-.2.5-.4.7-.7c.2-.2.3-.5.5-.8c.1-.3.1-.6.1-1c.02.03 0-.4 0-.4h-2v-.7h4.9v.7h-2s-.04.42 0 .4c0 .3 0 .6.1.9c.1.3.3.5.5.8c.2.2.4.5.7.7c.2.2.6.3.9.4zm-2.9 3.6h5.3v.7h-6.1V6.7h.8v2.1zM195.9.6h.8v9.1h-.8V4.9h-2.2v-.7h2.2V.6zm-6.3.9s4.14.03 4.1 0c0 .7 0 1.3-.2 1.9c-.1.6-.4 1.2-.7 1.8c-.3.5-.7 1-1.3 1.5c-.5.4-1.1.9-1.9 1.2l-.4-.6c1.2-.6 2.1-1.3 2.7-2.2c.6-.9.9-1.8 1-2.9h-3.3v-.7zm18.3-1v4.7h-.8V.5h.8zM201 1h4.2c0 .6-.1 1.1-.3 1.6c-.2.4-.5.9-.8 1.2c-.4.4-.9.7-1.4 1c-.5.2-1.1.4-1.8.6l-.3-.7c1.2-.2 2-.6 2.7-1.1c.6-.6.9-1.2 1-1.9c0-.03-3.3 0-3.3 0v-.7zm1.9 7.9h5.3v.7H202V7.3h5.1v-1H202v-.6h5.9v2.2h-5v1zm10.8-5c-1 0-1.8-.2-2.3-.4c-.6-.3-.9-.7-.9-1.2c0-.5.3-.9.9-1.2c.5-.3 1.3-.4 2.3-.4c1 0 1.8.1 2.4.4c.6.3.9.7.9 1.2c0 .5-.3.9-.9 1.2c-.6.2-1.4.4-2.4.4zm0-2.6c-.7 0-1.3.1-1.7.3c-.4.1-.6.4-.6.7c0 .3.2.5.6.7c.4.2 1 .2 1.7.2c.8 0 1.4 0 1.8-.2c.4-.2.6-.4.6-.7c0-.3-.2-.6-.6-.7c-.4-.2-1-.3-1.8-.3zm-4.1 3.2h8.3v.7h-8.3v-.7zm1.8 3.5v.9h5.7v.7h-6.5V7.4h5.4v-.8h-5.4v-.7h6.2v2.1h-5.4zm10.2-2.1l-.3-.6c.4-.1.8-.2 1.2-.4c.3-.2.7-.4 1-.7c.3-.3.6-.6.8-.9c.2-.3.3-.7.3-1c-.02-.05 0-.2 0-.2h-3v-.7h6.9v.7h-3.1s.05.15 0 .2c0 .3.1.7.3 1c.2.3.5.6.8.9c.3.3.7.5 1.1.7c.4.1.8.3 1.2.3l-.4.7c-.3-.1-.6-.2-1-.3c-.3-.2-.7-.3-1-.6c-.3-.2-.6-.4-.8-.7c-.2-.2-.4-.5-.6-.8c-.1.3-.3.6-.6.9c-.2.2-.5.5-.8.7c-.3.2-.6.4-1 .5c-.3.2-.6.3-1 .3zm3.8 1.9h3.8v.7h-8.3v-.7h3.7V5.6h.8v2.2zM236.7 6V3.2h-1.9v-.7h1.9V.6h.9v5.4h-.9zm-1.3-1.1l-.4.6c-.5-.2-1-.4-1.4-.8c-.3-.3-.6-.7-.8-1.2c-.2.5-.5 1-.9 1.4c-.4.4-.9.7-1.4.9l-.5-.7c.4-.1.7-.3 1-.5c.3-.2.5-.4.7-.7c.2-.3.4-.6.5-.9c.1-.3.2-.7.2-1c-.04 0 0-.9 0-.9h.8s-.01.87 0 .9c0 .3 0 .6.1.9c.2.3.3.6.5.8c.2.3.4.5.7.7c.3.2.6.4.9.5zm-.8 1.3c.4 0 .9.1 1.2.1c.4.1.7.2 1 .4c.3.1.5.3.6.5c.1.2.2.5.2.8c0 .2-.1.5-.2.7c-.1.2-.3.4-.6.5c-.3.2-.6.3-1 .4c-.3 0-.8.1-1.2.1c-.5 0-.9-.1-1.3-.1c-.4-.1-.7-.2-1-.4c-.2-.1-.4-.3-.6-.5c-.1-.2-.2-.5-.2-.7c0-.3.1-.6.2-.8c.2-.2.4-.4.6-.5c.3-.2.6-.3 1-.4c.4 0 .8-.1 1.3-.1zm0 2.8c.7 0 1.2-.1 1.6-.3c.4-.2.6-.4.6-.7c0-.4-.2-.7-.6-.8c-.4-.2-.9-.3-1.6-.3c-.7 0-1.3.1-1.7.3c-.4.1-.5.4-.5.8c0 .3.1.5.5.7c.4.2 1 .3 1.7.3zm7.2-4.3v1h-1v-1h1zm7.1 3.1h3.7v.7h-8.3v-.7h3.7V5.9h-2.7V1.2h.8v1.6h4.7V1.2h.8v4.7h-2.7v1.9zm-2.8-4.3v1.7h4.7V3.5h-4.7zm15.3.5l-.4.7l-1-.3c-.4-.1-.7-.3-1-.4c-.3-.2-.5-.4-.8-.7c-.2-.2-.4-.5-.5-.7c-.2.2-.4.5-.6.7c-.3.3-.5.5-.8.7c-.3.1-.6.3-1 .4l-1 .3l-.4-.7c.5 0 .9-.1 1.3-.3c.3-.2.7-.4 1-.6c.3-.2.6-.5.7-.8c.2-.3.3-.6.3-.9v-.5h.9v.5c0 .3.1.6.3.9c.2.3.4.6.7.8c.3.2.7.4 1.1.6c.4.2.8.3 1.2.3zm.4 1.7v.7H258v3.3h-.8V6.4h-3.7v-.7h8.3zm9.4-1.4v.7h-1.5v4.7h-.8V.6h.8v3.7h1.5zM265.8.7v1.3h2.2v.7h-5.4v-.7h2.3V.7h.9zm-.4 2.7c.3 0 .6.1.9.2c.2.1.5.2.7.4c.2.2.3.4.4.7c.2.3.2.5.2.8c0 .4 0 .6-.2.9c-.1.3-.2.5-.4.7c-.2.2-.5.3-.7.4c-.3.1-.6.1-.9.1c-.3 0-.6 0-.9-.1c-.3-.1-.5-.2-.7-.4c-.2-.2-.4-.4-.5-.7c-.1-.3-.1-.5-.1-.9c0-.3 0-.5.1-.8c.1-.3.3-.5.5-.7c.2-.2.4-.3.7-.4c.3-.1.6-.2.9-.2zm0 3.6c.2 0 .4-.1.6-.2c.1 0 .3-.1.4-.2c.1-.2.2-.3.3-.5c.1-.2.1-.3.1-.6c0-.2 0-.3-.1-.5c-.1-.2-.2-.3-.3-.5c-.1-.1-.3-.2-.4-.3c-.2 0-.4-.1-.6-.1c-.2 0-.4.1-.6.1c-.2.1-.3.2-.5.3c-.1.2-.2.3-.2.5c-.1.2-.2.3-.2.5c0 .3.1.4.2.6c0 .2.1.3.2.5c.2.1.3.2.5.2c.2.1.4.2.6.2zm13.8-3.7v.7H273V.9h.8v2.4h5.4zm-7.3 1.9h8.3v.7h-8.3v-.7zm1.9 1.6v2h5.5v.7h-6.4V6.8h.9zm11.5-1.5V2.1h-1.4v-.6h6.7v.6h-1.4v3.2h1.4v.7h-6.7v-.7h1.4zm3.1 0V2.1h-2.3v3.2h2.3zm-5.3 2.5h8.3v.7h-8.3v-.7zm13.8.1h3.7v.7h-8.3v-.7h3.7V6.2h-2.7V3.3h5.5V1.9h-5.5v-.7h6.3v2.8h-5.4v1.5h5.6v.7h-2.9v1.7zM308.4.6h.8v5.5h-.8V.6zm-3.1 2.3h1.3V.7h.8v5.4h-.8V3.6h-1.3v-.7zm.7 2.2l-.4.6c-.5-.2-.8-.4-1.1-.7c-.3-.4-.5-.7-.7-1.1c-.2.4-.4.8-.7 1.2c-.3.3-.7.6-1.1.8l-.5-.6c.3-.2.6-.3.8-.5c.2-.2.4-.5.6-.7c.2-.3.3-.5.4-.8c0-.3.1-.5.1-.8v-.5h-1.7v-.7h4.1v.7h-1.6v.5c0 .2 0 .5.1.7c.1.3.2.5.4.8c.1.2.3.4.5.6c.2.2.5.3.8.5zm-2.9 2.1v-.7h6.1v3.2h-.8V7.2h-5.3zM318 5.5v.7h-6.3V1.3h6.2v.7h-5.3v1.4h5.1v.6h-5.1v1.5h5.4zm-7.3 2.3h8.3v.7h-8.3v-.7zm17.7-3.6v.6h-1.5v4.9h-.8V.5h.8v3.7h1.5zm-7.3-2.1s-.03 4.61 0 4.6h2.2c.3-.1.6-.1.9-.1c.3-.1.7-.1 1-.2l.1.7c-.4.1-.7.1-1 .2c-.4 0-.7 0-1.1.1H321c-.04.03-.8 0-.8 0v-6h4.3v.7h-3.4zm7.8 7v-1h.9v1h-.9z" stroke="none" fill="#111111"/></g></svg>