<?xml version="1.0" standalone="no"?><!DOCTYPE svg PUBLIC "-//W3C//DTD SVG 1.1//EN" "http://www.w3.org/Graphics/SVG/1.1/DTD/svg11.dtd"><svg xmlns="http://www.w3.org/2000/svg" version="1.1" width="409.3px" height="26.8px" viewBox="0 -3 409.3 26.8" style="top:-3px"><desc>기아 챌린지 콘서트</desc><defs/><g id="Polygon118334"><path d="m11.8.9h1.7v15.4h-1.7V.9zM1.7 2.5s7.31.03 7.3 0c0 1.2-.1 2.3-.4 3.3c-.2 1.1-.6 2.1-1.2 3c-.5.9-1.3 1.8-2.2 2.6c-.9.8-2 1.5-3.3 2.1L1 12.1c2-.9 3.5-2.1 4.5-3.5c1-1.3 1.6-2.9 1.7-4.6c.01-.04-5.5 0-5.5 0V2.5zm29 4.4v1.5h-2.4v7.9h-1.7V.9h1.7v6h2.4zM20.5 2c.6 0 1.1.2 1.6.4c.5.3.9.6 1.2 1.1c.4.5.7 1.1.8 1.7c.2.7.3 1.4.3 2.3c0 .8-.1 1.5-.3 2.2c-.1.7-.4 1.2-.8 1.7c-.3.5-.7.8-1.2 1.1c-.5.2-1 .4-1.6.4c-.6 0-1.1-.2-1.6-.4c-.5-.3-.9-.6-1.2-1.1c-.4-.5-.6-1-.8-1.7c-.2-.7-.3-1.4-.3-2.2c0-.9.1-1.6.3-2.3c.2-.6.4-1.2.8-1.7c.3-.5.7-.8 1.2-1.1c.5-.2 1-.4 1.6-.4zm0 9.3c.7 0 1.2-.3 1.6-1c.5-.7.7-1.6.7-2.8c0-1.2-.2-2.2-.7-2.9c-.4-.6-.9-1-1.6-1c-.7 0-1.2.4-1.6 1c-.5.7-.7 1.7-.7 2.9c0 1.2.2 2.1.7 2.8c.4.7.9 1 1.6 1zm24.9-5.6v3.2h-1.6V1.2h1.6v3.1h1.6V.9h1.7v8.2H47V5.7h-1.6zm-2.1 1.7l-.7 1.3c-.7-.2-1.4-.6-1.9-1c-.5-.5-.9-1-1.1-1.6c-.3.6-.7 1.2-1.2 1.7c-.5.5-1.1.9-1.9 1.2l-.8-1.3c.5-.2.9-.4 1.3-.7c.4-.3.7-.6.9-.9c.3-.4.5-.7.6-1.1c.1-.3.2-.7.2-1.1h-2.6V2.5h2.6V1h1.7v1.5h2.5v1.4s-2.53.01-2.5 0c0 .4 0 .7.2 1.1c.1.3.3.6.6 1c.2.3.5.5.9.8c.4.2.8.5 1.2.6zm-3.1 7.4h9v1.3H38.5v-3.9h8.5V11h-8.6V9.7h10.3v3.7h-8.5v1.4zM63.9.9v11.3h-1.8V.9h1.8zm-3.3 7.3l.2 1.5c-.6.1-1.2.1-1.8.2c-.5.1-1.1.1-1.7.2h-1.8c-.7.1-1.4.1-2.2.1c.03-.03-1.3 0-1.3 0V5.3h5.3V3.4H52V2h7v4.6h-5.2s-.03 2.14 0 2.1h1.9c.6 0 1.2 0 1.7-.1c.6 0 1.1 0 1.6-.1c.5-.1 1-.2 1.6-.3zm-5.1 6.4h8.8v1.4H53.8v-4.7h1.7v3.3zM77.7.9h1.7v15.4h-1.7V.9zm-5.2 3s-.03 1.46 0 1.5c0 .6.1 1.2.3 1.9c.1.6.4 1.2.8 1.7c.3.6.7 1.1 1.2 1.5c.5.5 1 .8 1.6 1.1l-.9 1.4c-.9-.4-1.7-1-2.4-1.8c-.6-.8-1.1-1.7-1.5-2.7c-.3 1.1-.8 2-1.5 2.9c-.7.9-1.4 1.5-2.4 1.9l-1-1.3c.6-.3 1.2-.7 1.7-1.2c.4-.4.9-1 1.2-1.6c.4-.6.6-1.2.8-1.9c.2-.6.3-1.3.3-1.9V3.9h-3.4V2.4h8.6v1.5h-3.4zm14.8.8s9.24-.28 9.2-.3c.1-.2.1-.5.1-.7c-.04.01 0-.7 0-.7h-8.9V1.6h10.6v1.4c0 .7 0 1.5-.1 2.3c0 .8-.1 1.7-.3 2.7l-1.8-.1c.1-.4.2-.8.2-1.1c.1-.4.1-.7.2-1.1c-.04.03-9 .4-9 .4l-.2-1.4zm6 4.2h6.6v1.4H86.1V8.9h5.4v-2h1.8v2zm-3.7 2.6v3.1h9v1.4H87.8v-4.5h1.8zm23-10.6h1.8v15.4h-1.8V7.4h-3.3V5.9h3.3v-5zm-5.4 1.3v2.5c0 .7.1 1.4.3 2.1c.1.7.4 1.3.7 1.9c.4.6.7 1.1 1.2 1.6c.5.5 1 .9 1.6 1.1l-1 1.4c-.9-.4-1.7-1-2.3-1.8c-.6-.8-1-1.7-1.4-2.8c-.3 1.1-.8 2.1-1.4 2.9c-.6.9-1.4 1.5-2.3 2l-1.1-1.4c.6-.3 1.2-.7 1.7-1.2c.4-.5.9-1.1 1.2-1.7c.3-.6.6-1.3.8-2c.1-.7.2-1.4.2-2.1c.03-.01 0-2.5 0-2.5h1.8zM129.6 9v1.4h-10.7V2.2h10.5v1.4h-8.7v1.9h8.4v1.4h-8.4v2.1h8.9zm-12.4 4h13.9v1.4h-13.9V13z" stroke="none" fill="#111111"/></g></svg>