<?xml version="1.0" standalone="no"?><!DOCTYPE svg PUBLIC "-//W3C//DTD SVG 1.1//EN" "http://www.w3.org/Graphics/SVG/1.1/DTD/svg11.dtd"><svg xmlns="http://www.w3.org/2000/svg" version="1.1" width="409.3px" height="26.8px" viewBox="0 -3 409.3 26.8" style="top:-3px"><desc>기아 드림(Dream) 장학금</desc><defs/><g id="Polygon123471"><path d="m11.8.9h1.7v15.4h-1.7V.9zM1.7 2.5s7.31.03 7.3 0c0 1.2-.1 2.3-.4 3.3c-.2 1.1-.6 2.1-1.2 3c-.5.9-1.3 1.8-2.2 2.6c-.9.8-2 1.5-3.3 2.1L1 12.1c2-.9 3.5-2.1 4.5-3.5c1-1.3 1.6-2.9 1.7-4.6c.01-.04-5.5 0-5.5 0V2.5zm29 4.4v1.5h-2.4v7.9h-1.7V.9h1.7v6h2.4zM20.5 2c.6 0 1.1.2 1.6.4c.5.3.9.6 1.2 1.1c.4.5.7 1.1.8 1.7c.2.7.3 1.4.3 2.3c0 .8-.1 1.5-.3 2.2c-.1.7-.4 1.2-.8 1.7c-.3.5-.7.8-1.2 1.1c-.5.2-1 .4-1.6.4c-.6 0-1.1-.2-1.6-.4c-.5-.3-.9-.6-1.2-1.1c-.4-.5-.6-1-.8-1.7c-.2-.7-.3-1.4-.3-2.2c0-.9.1-1.6.3-2.3c.2-.6.4-1.2.8-1.7c.3-.5.7-.8 1.2-1.1c.5-.2 1-.4 1.6-.4zm0 9.3c.7 0 1.2-.3 1.6-1c.5-.7.7-1.6.7-2.8c0-1.2-.2-2.2-.7-2.9c-.4-.6-.9-1-1.6-1c-.7 0-1.2.4-1.6 1c-.5.7-.7 1.7-.7 2.9c0 1.2.2 2.1.7 2.8c.4.7.9 1 1.6 1zM48 8.2v1.4H37.4V2.3h10.5v1.4h-8.7v4.5h8.8zm-12.3 4.7h13.9v1.4H35.7v-1.4zM62.2.9h1.7v9.1h-1.7V.9zm-1.6 6.6l.2 1.4l-1.8.3c-.6 0-1.2.1-1.8.1c-.5 0-1.2.1-1.8.1h-2.1c.03-.02-1.3 0-1.3 0V4.9h5.3V3.2H52V1.8h7v4.4h-5.2s-.03 1.76 0 1.8c.6 0 1.3-.1 1.8-.1h1.7c.6-.1 1.1-.1 1.6-.2c.6 0 1.1-.1 1.7-.2zm-6.7 8.6v-5.3h10v5.3h-10zm1.7-3.9v2.5h6.6v-2.5h-6.6zm15.6 4.7l-1.2.5c-.8-1.3-1.5-2.6-1.9-4c-.4-1.4-.7-3-.7-4.7c0-1.7.3-3.2.7-4.6c.4-1.4 1.1-2.8 1.9-4.1l1.2.6c-.8 1.2-1.3 2.5-1.7 3.9c-.3 1.3-.5 2.7-.5 4.2c0 1.5.2 2.9.5 4.3c.4 1.3.9 2.6 1.7 3.9zm2.3-1.9V2.4s3.29.05 3.3 0c2 0 3.5.6 4.5 1.6c1 1 1.5 2.6 1.5 4.7c0 1-.1 1.9-.4 2.7c-.2.7-.6 1.4-1.1 1.9c-.6.6-1.2 1-1.9 1.2c-.7.3-1.6.5-2.5.5c-.01-.04-3.4 0-3.4 0zm2-1.7s1.15.05 1.2 0c1.3 0 2.4-.3 3-1.1c.7-.8 1.1-1.9 1.1-3.5c0-1.6-.4-2.8-1.1-3.5C79 4.4 78 4 76.7 4c-.05.05-1.2 0-1.2 0v9.3zm9.7 1.7V5.6h1.6l.1 1.7h.1c.3-.6.7-1.1 1.1-1.4c.5-.4 1-.5 1.5-.5h.6c.2.1.3.1.5.2l-.4 1.7c-.2-.1-.3-.1-.4-.1c-.2-.1-.3-.1-.5-.1c-.4 0-.8.2-1.2.5c-.5.3-.8.8-1.1 1.5v5.9h-1.9zm10.7.2c-.6 0-1.2-.1-1.8-.4c-.5-.2-1-.5-1.4-.9c-.4-.4-.7-.9-1-1.5c-.2-.6-.3-1.3-.3-2.1c0-.8.1-1.5.3-2.1c.3-.6.6-1.1 1-1.5c.4-.4.8-.8 1.3-1c.6-.2 1.1-.3 1.6-.3c.6 0 1.2.1 1.7.3c.4.2.8.5 1.2.9c.3.4.5.8.7 1.4c.2.5.2 1.1.2 1.8v.6c0 .1 0 .3-.1.4h-6c.1.9.4 1.6.9 2.1c.5.5 1.2.8 2 .8c.4 0 .8-.1 1.1-.2c.4-.1.8-.3 1.1-.5l.7 1.2c-.5.3-.9.5-1.5.7c-.5.2-1.1.3-1.7.3zm-2.6-5.7h4.4c0-.9-.1-1.5-.5-1.9c-.3-.5-.9-.7-1.5-.7c-.3 0-.6.1-.9.2c-.2.1-.5.2-.7.5c-.2.2-.4.4-.5.8c-.2.3-.3.6-.3 1.1zm10.5 5.7c-.5 0-.8-.1-1.2-.2c-.3-.1-.6-.3-.8-.5c-.3-.3-.5-.6-.6-.9c-.1-.3-.2-.7-.2-1.1c0-.5.1-1 .3-1.5c.2-.5.5-.9 1-1.2c.5-.2 1.1-.4 1.8-.5c.7-.1 1.5-.2 2.5-.3c0-.3 0-.5-.1-.8c-.1-.2-.1-.4-.3-.6c-.1-.2-.3-.4-.5-.5c-.3-.1-.6-.1-.9-.1c-.5 0-1 .1-1.5.3c-.5.2-.9.4-1.3.7l-.6-1.5c.5-.3 1-.5 1.7-.8c.6-.2 1.3-.3 2-.3c1.2 0 2.1.3 2.6 1c.6.7.8 1.7.8 2.9c.04.03 0 5.7 0 5.7h-1.6l-.1-1.1s-.07.04-.1 0c-.4.4-.9.7-1.4.9c-.4.3-1 .4-1.5.4zm.5-1.6c.5 0 .8-.1 1.2-.2c.3-.2.7-.5 1.1-.8v-2.3c-.5 0-.9.1-1.2.1c-.3.1-.6.1-.9.1c-.3.1-.5.2-.7.2c-.2.1-.3.2-.5.4c-.2.2-.4.4-.4.6v.6c0 .5.1.9.4 1c.3.2.6.3 1 .3zm6.9 1.4V5.6h1.6l.2 1.3s.05.02 0 0c.4-.4.9-.8 1.4-1.1c.4-.3 1-.4 1.5-.4c.8 0 1.3.1 1.7.4c.4.3.7.7.9 1.3c.5-.5 1-.9 1.5-1.3c.4-.3 1-.4 1.6-.4c1 0 1.7.3 2.2.9c.4.7.6 1.6.6 2.8c.04-.02 0 5.9 0 5.9h-1.9s-.02-5.68 0-5.7c0-.8-.1-1.4-.4-1.7c-.2-.4-.6-.5-1.2-.5c-.6 0-1.3.4-2.1 1.2c.01.03 0 6.7 0 6.7h-1.9s-.04-5.68 0-5.7c0-.8-.2-1.4-.4-1.7c-.3-.4-.7-.5-1.2-.5c-.6 0-1.3.4-2.1 1.2c-.01.03 0 6.7 0 6.7h-2zm16.5 2.4l-1.2-.5c.7-1.3 1.3-2.6 1.6-3.9c.3-1.4.5-2.8.5-4.3c0-1.5-.2-2.9-.5-4.2c-.3-1.4-.9-2.7-1.6-3.9l1.2-.6c.8 1.3 1.4 2.7 1.9 4.1c.4 1.4.6 2.9.6 4.6c0 1.7-.2 3.3-.6 4.7c-.5 1.4-1.1 2.7-1.9 4zm20.5-12.7h2.2v1.4h-2.2v4h-1.7V.9h1.7v3.8zm-3 3.4l-.8 1.4c-.9-.3-1.6-.7-2.2-1.2c-.6-.5-1.1-1.2-1.4-1.9c-.3.8-.8 1.6-1.5 2.2c-.6.6-1.4 1.1-2.3 1.4l-.9-1.4c.6-.2 1.1-.5 1.6-.8c.5-.3.9-.7 1.2-1.2c.3-.4.5-.8.7-1.3c.2-.5.3-1.1.3-1.6c-.04.02 0-.3 0-.3h-3.3V2h8.2v1.4h-3.2s.03.31 0 .3c0 .5.1.9.3 1.4c.1.5.4.9.7 1.3c.3.3.6.7 1.1 1c.4.3 1 .6 1.5.7zm-1.9 2.4c.8 0 1.5 0 2.1.2c.6.1 1.2.3 1.6.5c.5.3.8.6 1 .9c.3.4.4.8.4 1.3c0 .4-.1.8-.4 1.2c-.2.3-.5.7-1 .9c-.4.3-1 .4-1.6.6c-.6.1-1.3.2-2.1.2c-.8 0-1.5-.1-2.2-.2c-.6-.2-1.1-.3-1.6-.6c-.4-.2-.7-.6-1-.9c-.2-.4-.3-.8-.3-1.2c0-.5.1-.9.3-1.3c.3-.3.6-.6 1-.9c.5-.2 1-.4 1.6-.5c.7-.2 1.4-.2 2.2-.2zm0 4.4c1.1 0 1.9-.1 2.5-.4c.6-.2.9-.6.9-1.1c0-.5-.3-.9-.9-1.2c-.6-.2-1.4-.4-2.5-.4c-1.1 0-2 .2-2.5.4c-.6.3-.9.7-.9 1.2c0 .5.3.9.9 1.1c.5.3 1.4.4 2.5.4zm17.6-12.5v1.4h-9.1V2.4h3.7V.8h1.7v1.6h3.7zM166 5v1.5h-2.2v4H162V.9h1.8v4.1h2.2zm-5.9 2.3c0 .4-.1.8-.3 1.1c-.2.4-.5.6-.8.9c-.3.2-.7.4-1.2.6c-.4.1-.9.2-1.5.2c-.5 0-1-.1-1.5-.2l-1.2-.6c-.3-.3-.5-.5-.7-.9c-.2-.3-.3-.7-.3-1.1c0-.4.1-.8.3-1.2c.2-.3.4-.6.7-.9c.4-.2.8-.4 1.2-.5c.5-.2 1-.2 1.5-.2c.6 0 1.1 0 1.5.2c.5.1.9.3 1.2.5c.3.3.6.6.8.9c.2.4.3.8.3 1.2zm-5.8 0c0 .4.2.8.6 1c.3.3.8.4 1.4.4c.6 0 1.1-.1 1.5-.4c.4-.2.6-.6.6-1c0-.5-.2-.9-.6-1.1c-.4-.3-.9-.4-1.5-.4c-.6 0-1.1.1-1.4.4c-.4.2-.6.6-.6 1.1zm-.6 5.4v-1.4h10.1v5H162v-3.6h-8.3zm25.4-5.4c.03-.04 2.2 0 2.2 0v1.4h-14V7.3s10.08-.04 10.1 0c.2-.9.3-1.7.3-2.3c.1-.7.1-1.3.1-1.9c0-.01-8.7 0-8.7 0V1.7h10.4s.02 1.16 0 1.2v1.9c-.1.7-.2 1.5-.4 2.5zM169 16.1v-5.6h10.5v5.6H169zm1.7-4.2v2.8h7.1v-2.8h-7.1z" stroke="none" fill="#111111"/></g></svg>