<?xml version="1.0" standalone="no"?><!DOCTYPE svg PUBLIC "-//W3C//DTD SVG 1.1//EN" "http://www.w3.org/Graphics/SVG/1.1/DTD/svg11.dtd"><svg xmlns="http://www.w3.org/2000/svg" version="1.1" width="199.3px" height="23.3px" viewBox="0 -2 199.3 23.3" style="top:-2px"><desc>지원 차량 수 (단위: 대)</desc><defs/><g id="Polygon124789"><path d="m7 .6h1.1v9.2H7V.6zM3.9 2.3s.02.91 0 .9c0 .4.1.8.2 1.2c.1.3.3.7.5 1c.2.4.4.6.7.9c.3.3.6.5 1 .6l-.6.9c-.5-.3-1-.6-1.4-1.1c-.4-.5-.7-1-.9-1.6c-.2.6-.5 1.2-.9 1.7c-.4.6-.9.9-1.4 1.2l-.6-.8c.3-.2.7-.4 1-.7c.2-.3.5-.6.7-1c.2-.3.4-.7.5-1.1c.1-.4.2-.8.2-1.2c-.04.01 0-.9 0-.9H.8v-.8h5.2v.8H3.9zM14.5 6h1.8V.5h1v7h-1v-.8h-1.8v-.7zm-1.9-1.9c-.3 0-.6 0-.9-.1c-.3-.1-.5-.2-.7-.3c-.2-.1-.4-.3-.5-.5c-.1-.2-.1-.4-.1-.7c0-.2 0-.4.1-.6c.1-.2.3-.4.5-.6c.2-.1.4-.2.7-.3c.3-.1.6-.1.9-.1c.4 0 .7 0 1 .1c.2.1.5.2.7.3c.2.2.3.4.4.6c.2.2.2.4.2.6c0 .3 0 .5-.2.7c-.1.2-.2.4-.4.5c-.2.1-.5.2-.7.3c-.3.1-.6.1-1 .1zm0-2.4c-.3 0-.7 0-.9.2c-.2.2-.3.4-.3.6c0 .3.1.5.3.6c.2.2.6.3.9.3c.4 0 .7-.1 1-.3c.2-.1.3-.3.3-.6c0-.2-.1-.4-.3-.6c-.3-.2-.6-.2-1-.2zm-.4 5.6s.02-1.76 0-1.8c-.4.1-.9.1-1.3.1H9.8l-.2-.9h2.9c.5 0 1-.1 1.5-.1c.6 0 1.1-.1 1.6-.1v.7c-.4.1-.7.1-1.1.2c-.4 0-.8.1-1.2.1c-.03-.02 0 1.8 0 1.8h-1.1zm-.3 1.4h5.6v.9h-6.6V6.9h1v1.8zm17.6-4.5v.9h-1.4v4.7H27V.5h1.1v3.7h1.4zm-5.4-1.3s.04.58 0 .6c0 .3.1.7.2 1c.1.4.2.7.4 1c.2.4.4.6.7.9c.3.3.6.5.9.6l-.6.9c-.5-.3-.9-.6-1.2-1.1c-.4-.4-.7-.9-.9-1.5c-.2.6-.5 1.2-.8 1.6c-.4.5-.9.9-1.4 1.1l-.6-.8c.4-.2.7-.4 1-.6c.3-.3.5-.6.7-.9c.2-.4.3-.7.4-1.1c.1-.4.2-.7.2-1.1v-.6h-2v-.8h2V.7h1v1.4h2v.8h-2zm14.5-.1h-1.3v1h1.3v.9h-1.3v1.4h-1V.5h1v1.4h1.3v.9zm-3.1 1.7l.1.8c-.3.1-.7.2-1 .2c-.3 0-.7.1-1 .1h-2.3c-.05.04-.8 0-.8 0V2.9h3.1v-1h-3.1v-.8h4.2v2.6h-3.2s.04 1.08 0 1.1h1.1c.4 0 .7 0 1-.1c.4 0 .7 0 1-.1c.3 0 .6-.1.9-.1zm-1.1 1.8c.9 0 1.7.2 2.2.5c.6.3.8.7.8 1.2c0 .6-.2 1-.8 1.3c-.5.3-1.3.5-2.2.5c-1 0-1.8-.2-2.3-.5c-.5-.3-.8-.7-.8-1.3c0-.5.3-.9.8-1.2c.5-.3 1.3-.5 2.3-.5zm0 2.7c.6 0 1.1-.1 1.5-.3c.3-.1.5-.3.5-.7c0-.2-.2-.5-.5-.6c-.4-.2-.9-.2-1.5-.2c-.7 0-1.2 0-1.6.2c-.3.1-.5.4-.5.6c0 .4.2.6.5.7c.4.2.9.3 1.6.3zm15-5.1l-.4.9c-.8-.1-1.5-.4-2.1-.7c-.6-.4-1-.9-1.3-1.4c-.3.6-.8 1-1.4 1.4c-.6.3-1.2.6-2 .7l-.4-.9c.4 0 .9-.1 1.3-.3c.4-.2.7-.4 1-.6c.3-.2.5-.5.7-.8c.1-.3.2-.6.2-.9v-.5h1.1s.02.54 0 .5c0 .3.1.6.3.9c.1.3.4.6.6.8c.3.2.7.4 1.1.6c.4.2.8.3 1.3.3zm.3 1.8v.8h-3.6v3.3H45V6.5h-3.6v-.8h8.3zm5.6 4.4l-.8.4c-.4-.8-.8-1.6-1.1-2.5c-.2-.8-.4-1.8-.4-2.8c0-1 .2-1.9.4-2.8c.3-.8.7-1.6 1.1-2.4l.8.3c-.5.8-.8 1.6-1 2.4c-.2.8-.3 1.6-.3 2.5c0 .9.1 1.8.3 2.6c.2.8.5 1.6 1 2.3zm8-6.9h1.3v.8h-1.3v3.2h-1.1V.5h1.1v2.7zm-1.9 1.3l.1.8c-.3.1-.6.1-.9.2c-.3 0-.6.1-1 .1h-2.4c0 .04-.7 0-.7 0V1.3h4.1v.9h-3.1v2.6h1.2c.3 0 .7-.1 1-.1c.3 0 .6 0 .8-.1c.3 0 .6-.1.9-.1zm-2.9 2v2.2h5.1v.9h-6.2V6.5h1.1zM71.8.6h1.1v9.2h-1.1V.6zm-3.5 4.2c-.4 0-.7 0-1-.1c-.3-.1-.5-.3-.7-.4c-.3-.2-.4-.4-.5-.6c-.2-.3-.2-.5-.2-.8c0-.3 0-.6.2-.8c.1-.2.2-.4.5-.6c.2-.2.4-.3.7-.4c.3-.1.6-.2 1-.2c.3 0 .6.1.9.2c.3.1.6.2.8.4c.2.2.3.4.5.6c.1.2.1.5.1.8c0 .3 0 .5-.1.8c-.2.2-.3.4-.5.6c-.2.1-.5.3-.8.4c-.3.1-.6.1-.9.1zm0-3c-.4 0-.8.1-1 .3c-.3.2-.4.5-.4.8c0 .3.1.6.4.8c.2.2.6.2 1 .2c.4 0 .7 0 .9-.2c.3-.2.4-.5.4-.8c0-.3-.1-.6-.4-.8c-.2-.2-.5-.3-.9-.3zm2.9 3.4l.1.7c-.4.1-.8.2-1.2.2c-.5.1-.9.1-1.3.2c.03-.05 0 3.2 0 3.2h-1s-.02-3.19 0-3.2h-1.3c-.4.1-.8.1-1.1.1l-.1-.9h1.3c.5 0 1 0 1.5-.1c.5 0 1.1 0 1.6-.1c.5 0 1-.1 1.5-.1zm4.7-2.3v1.3h-1.2V2.9h1.2zm0 4.2v1.3h-1.2V7.1h1.2zm12-6.6h1v9.3h-1V5h-1.1v4.3h-1V.7h1v3.5h1.1V.5zm-5.5 2v4.2c.5 0 1 0 1.5-.1c.4 0 .9-.1 1.4-.2v.9c-.2.1-.5.1-.8.1c-.2.1-.5.1-.8.1c-.2 0-.5.1-.8.1h-.9c-.01-.03-.6 0-.6 0v-6h3.4v.9h-2.4zm8.5 8l-.7-.4c.4-.7.8-1.5 1-2.3c.2-.8.3-1.7.3-2.6c0-.9-.1-1.7-.3-2.5c-.2-.8-.6-1.6-1-2.4l.7-.3c.5.8.9 1.6 1.1 2.4c.3.9.4 1.8.4 2.8c0 1-.1 2-.4 2.8c-.2.9-.6 1.7-1.1 2.5z" stroke="none" fill="#949596"/></g></svg>