<?xml version="1.0" standalone="no"?><!DOCTYPE svg PUBLIC "-//W3C//DTD SVG 1.1//EN" "http://www.w3.org/Graphics/SVG/1.1/DTD/svg11.dtd"><svg xmlns="http://www.w3.org/2000/svg" version="1.1" width="390px" height="91.3px" viewBox="0 -2 390 91.3" style="top:-2px"><desc>기아차량으로 카셰어링 서비스 이용 시 거리당 일정 금액을 적립해 기부하는 캠페인이다. 해당 기금은 사회문제 해결에 앞장서는 벤처기업·사회적기업의 창업·경영지원기금으로 활용된다. 2021년에는 환경문제 관련 소셜...</desc><defs/><g id="Polygon115852"><path d="m7.2 74.5h.9v5.5h-.9v-2.4H5.4v-.7h1.8v-2.4zM5.9 79l-.4.7c-.5-.2-.9-.5-1.3-.9c-.4-.3-.7-.7-.9-1.2c-.2.5-.5 1-.9 1.4c-.4.4-.9.7-1.4.9l-.4-.7c.3-.1.6-.3.9-.5c.3-.2.5-.4.7-.7c.2-.2.4-.5.5-.8c.1-.3.2-.7.2-1c-.02.01 0-.4 0-.4H.8v-.6h4.9v.6h-2v.4c0 .3.1.6.2.9c.1.3.2.5.4.8c.2.2.5.5.7.6c.3.2.6.4.9.5zM2 81.2v-.7h6.1v3.2h-.9v-2.5H2zm14.4-6.6h.8v5h-.8v-5zm-1.1 3.8l.1.7c-.4 0-.8.1-1.1.1c-.4.1-.7.1-1.1.1c-.3 0-.7.1-1.1.1h-1.2c.03-.02-.7 0-.7 0v-2.6h3.3v-1.1h-3.3v-.7h4.1v2.5H11s.02 1.19 0 1.2h1.2c.3 0 .7 0 1-.1h1c.4-.1.7-.1 1.1-.2zm1.1 2.7V80h.8v3.6h-5.9V80h.8v1.1h4.3zm0 1.8v-1.1h-4.3v1.1h4.3zm9.5-4.5h1.3v.7h-8.3v-.7h6.1c.2-.6.2-1.1.3-1.5v-1.2H20v-.7h6.1s.03.7 0 .7v1.2c0 .4-.1.9-.2 1.5zm-6 5.2v-3.3h6.3v3.3h-6.3zm.8-2.6v1.9h4.6V81h-4.6zm11.5 1.1h3v.8h-5v-.6s2.54-2.5 2.5-2.5l.6-.6c.2-.2.3-.4.4-.6c.1-.1.2-.3.3-.5c.1-.2.1-.4.1-.7c0-.4-.2-.7-.4-.9c-.3-.3-.6-.4-1-.4c-.2 0-.4.1-.6.1c-.2.1-.3.2-.4.3c-.2.2-.3.3-.4.5c0 .2-.1.4-.1.6l-.9-.2l.3-.9c.1-.2.3-.4.5-.6c.2-.2.5-.3.8-.4c.3-.1.6-.2.9-.2c.3 0 .6.1.9.2c.2.1.5.2.7.4c.2.2.3.4.5.6c.1.3.1.6.1.9c0 .3 0 .6-.1.8c-.1.2-.2.5-.3.7c-.2.2-.3.4-.5.6c-.2.2-.4.5-.6.7l-2.1 2c.1 0 .3 0 .4-.1h.4zm3.7 1v-1h1v1h-1zm4-6.8l-.3 1.9c.3 0 .7-.1 1.1-.1c.4 0 .7.1 1 .2c.3.1.6.3.8.5c.2.2.3.4.4.7c.1.3.2.6.2.9c0 .4-.1.8-.2 1.1c-.2.3-.4.6-.6.8c-.2.2-.5.4-.9.5c-.3.2-.6.2-1 .2c-.5 0-.9-.1-1.2-.2c-.4-.2-.7-.4-.9-.6l.5-.7c.2.2.4.4.7.5c.3.1.6.2.9.2c.3 0 .5 0 .7-.1c.2-.1.4-.2.6-.4c.1-.1.3-.3.4-.5c0-.2.1-.5.1-.8c0-.4-.2-.8-.5-1.1c-.3-.3-.7-.4-1.2-.4c-.2 0-.4 0-.6.1c-.2 0-.4.1-.6.1c-.04.04-.6-.1-.6-.1l.6-3.6h3.5v.9h-2.9zm10.8-1.7h.9v5.3h-.9v-2.3s-1.82-.02-1.8 0c-.1.3-.1.5-.3.7c-.1.3-.3.5-.5.6c-.2.2-.4.3-.7.4c-.2.1-.5.2-.8.2c-.4 0-.7-.1-1-.2c-.3-.1-.5-.3-.7-.5c-.2-.2-.4-.4-.5-.7c-.1-.2-.2-.5-.2-.9c0-.3.1-.6.2-.8c.1-.3.3-.5.5-.7c.2-.2.4-.4.7-.5c.3-.1.6-.1 1-.1c.3 0 .5 0 .8.1c.3.1.5.2.7.4c.2.1.4.3.5.5c.1.3.2.5.3.8h1.8v-2.3zm-4.1 4.1c.2 0 .4 0 .6-.1c.2 0 .3-.1.5-.3c.1-.1.2-.3.3-.5c.1-.1.1-.3.1-.6c0-.2 0-.4-.1-.6c-.1-.1-.2-.3-.3-.4c-.2-.1-.3-.2-.5-.3c-.2-.1-.4-.1-.6-.1c-.3 0-.5 0-.7.1c-.2.1-.3.2-.5.3c-.1.1-.2.3-.3.4c-.1.2-.1.4-.1.6c0 .3 0 .5.1.6c.1.2.2.4.3.5c.2.2.3.3.5.3c.2.1.4.1.7.1zm-1.1 2.4v-.7h6.1v3.3h-.9v-2.6h-5.2zm14.6-1.2h1.9v-5.4h.8v7h-.8v-.9h-1.9v-.7zm-1.9-1.8c-.3 0-.6 0-.9-.1c-.2-.1-.5-.2-.7-.3c-.2-.2-.3-.3-.4-.5c-.2-.2-.2-.5-.2-.7c0-.2 0-.5.2-.7c.1-.2.2-.3.4-.5c.2-.1.5-.2.7-.3c.3-.1.6-.1.9-.1c.4 0 .7 0 1 .1c.2.1.5.2.7.3c.2.2.3.3.4.5c.1.2.2.5.2.7c0 .2-.1.5-.2.7c-.1.2-.2.3-.4.5c-.2.1-.5.2-.7.3c-.3.1-.6.1-1 .1zm0-2.6c-.4 0-.7.1-1 .3c-.3.2-.4.4-.4.7c0 .3.1.5.4.7c.3.2.6.3 1 .3c.5 0 .8-.1 1.1-.3c.3-.2.4-.4.4-.7c0-.3-.1-.5-.4-.7c-.3-.2-.6-.3-1.1-.3zm-.3 5.7s.02-1.78 0-1.8c-.4 0-.9.1-1.3.1h-1.2l-.1-.7h1.3c.5 0 1 0 1.5-.1h1.6c.5-.1 1-.1 1.5-.2v.6c-.4.1-.8.1-1.2.2c-.4 0-.8 0-1.2.1c-.05-.02 0 1.8 0 1.8h-.9zm-.5 1.6h5.6v.7h-6.4v-2.7h.8v2zm11.2-4.9c-1 0-1.8-.2-2.3-.4c-.6-.3-.9-.7-.9-1.2c0-.5.3-.9.9-1.2c.5-.3 1.3-.4 2.3-.4c1 0 1.8.1 2.4.4c.6.3.8.7.8 1.2c0 .5-.2.9-.8 1.2c-.6.2-1.4.4-2.4.4zm0-2.6c-.7 0-1.3.1-1.7.3c-.4.1-.6.4-.6.7c0 .3.2.5.6.7c.4.2 1 .2 1.7.2c.8 0 1.4 0 1.8-.2c.4-.2.6-.4.6-.7c0-.3-.2-.6-.6-.7c-.4-.2-1-.3-1.8-.3zm-4.1 3.2h8.3v.7h-8.3v-.7zm1.8 3.5v.9h5.7v.7h-6.5v-2.2h5.4v-.8h-5.4v-.7h6.2v2.1h-5.4zm15.9-5.5c.02-.03 0-.4 0-.4h-5.6v-.6h6.5s-.04.97 0 1v.9c-.1.3-.1.6-.1.9c0 .3 0 .7-.1 1c0 .4-.1.8-.2 1.2l-.8-.1c.1-.7.2-1.3.3-1.9v-2zm-1.3 5.2h3.1v.7h-8.2v-.7h2v-3h.8v3h1.4v-3h.9v3zm8.6-2.3h3.7v.7h-8.3v-.7h3.7v-.9H86v-3.7h6.2v.7h-5.3v.8h5v.6h-5v.9h5.3v.7h-2.7v.9zm-.4 1.4c1 0 1.8.1 2.3.3c.5.3.8.6.8 1.1c0 .5-.3.9-.8 1.1c-.5.3-1.3.4-2.3.4c-1.1 0-1.8-.1-2.4-.4c-.5-.2-.8-.6-.8-1.1c0-.5.3-.8.8-1.1c.6-.2 1.3-.3 2.4-.3zm0 2.2c.7 0 1.3 0 1.7-.2c.4-.1.6-.3.6-.6c0-.3-.2-.5-.6-.6c-.4-.2-1-.2-1.7-.2c-.8 0-1.3 0-1.7.2c-.4.1-.6.3-.6.6c0 .3.2.5.6.6c.4.2.9.2 1.7.2zm13.6-4.7v.6h-1.5v4.8h-.9v-9.1h.9v3.7h1.5zm-5.5-3s-.01 1.68 0 1.7c0 .4 0 .8.2 1.2c.1.4.3.7.5 1.1c.2.3.4.7.7.9c.3.3.6.5.9.7l-.5.7c-.5-.3-.9-.7-1.3-1.2c-.4-.5-.7-1-.9-1.7c-.2.7-.5 1.3-.9 1.8c-.4.5-.9 1-1.4 1.2l-.5-.6c.3-.2.6-.4.9-.7c.3-.3.6-.6.8-1c.2-.4.4-.8.5-1.2c.1-.4.2-.8.2-1.2c-.04-.02 0-1.7 0-1.7h.8zm12.6 1.1c-.05-.03 0-.3 0-.3h-5.6v-.6h6.4s-.01.87 0 .9v.8c0 .4 0 .7-.1 1c0 .4 0 .7-.1 1.1c0 .4-.1.8-.2 1.3l-.8-.1c.2-.9.3-1.6.3-2.3c0-.7.1-1.3.1-1.8zm-2.4 5.3h4.2v.7h-8.3v-.7h3.2v-3.3h.9v3.3zm13.8-7.1h.9v9.1h-.9v-9.1zm-2.3 1.6s.04 4.4 0 4.4c.3 0 .6 0 .8-.1h.7l.1.6c-.5.1-1 .1-1.5.2c-.5 0-1 .1-1.5.1h-2.9c.05.03 0-.7 0-.7c0 0 .88.02.9 0h.3v-4.5h-1v-.7h5.2v.7h-1.1zm-2.3 0v4.5h1.5c.04-.05 0-4.5 0-4.5h-1.5zm14.1-1.7h.8v9.2h-.8v-4.6h-1.2v4.1h-.8v-8.5h.8v3.7h1.2v-3.9zm-4.3.3v1.3h1.9v.7h-4.6v-.7h1.9v-1.3h.8zm-.4 2.6c.3 0 .5 0 .8.1c.2.2.4.3.6.5c.2.2.3.4.4.6c.1.3.2.6.2.9c0 .3-.1.6-.2.8c-.1.3-.2.5-.4.7c-.2.2-.4.3-.6.4c-.3.1-.5.2-.8.2c-.3 0-.5-.1-.8-.2c-.2-.1-.4-.2-.6-.4c-.2-.2-.3-.4-.4-.7c-.1-.2-.2-.5-.2-.8c0-.3.1-.6.2-.9c.1-.2.2-.4.4-.6c.2-.2.4-.3.6-.5c.3-.1.5-.1.8-.1zm0 3.5c.4 0 .6-.2.9-.4c.2-.3.3-.6.3-1c0-.2 0-.4-.1-.6c0-.1-.1-.3-.2-.4c-.1-.1-.3-.2-.4-.3c-.2-.1-.3-.1-.5-.1c-.4 0-.7.1-.9.4c-.2.2-.3.6-.3 1c0 .4.1.7.3 1c.3.2.5.4.9.4zm17.5-2.6v.6H142v4.8h-.8v-9.2h.8v3.8h1.5zm-8-2.8s4.17.02 4.2 0c0 .7-.1 1.3-.3 1.9c-.1.6-.4 1.2-.7 1.8c-.3.5-.8 1-1.3 1.5c-.5.5-1.1.9-1.9 1.3l-.4-.7c1.2-.6 2.1-1.3 2.7-2.2c.6-.8.9-1.8 1-2.9c.04.01-3.3 0-3.3 0v-.7zm13.6 1.4h1.8v-2.3h.8v5.4h-.8v-2.4h-1.8v-.7zm.5 2.1l-.4.7c-.6-.2-1-.5-1.4-.9c-.4-.3-.7-.7-.8-1.2c-.2.5-.5 1-.9 1.4c-.4.4-.9.7-1.5.9l-.4-.6c.3-.2.7-.3.9-.5c.3-.3.6-.5.8-.8c.2-.2.3-.5.4-.8c.2-.4.2-.7.2-1v-.3h-2v-.7h4.9v.7h-2.1s.05.3 0 .3c0 .3.1.6.2.9c.1.3.3.5.5.8c.2.2.4.4.7.6c.2.2.5.4.9.5zm-.9 1.3c.5 0 .9 0 1.3.1c.3.1.7.2.9.3c.3.2.5.4.6.6c.2.2.2.4.2.7c0 .3 0 .5-.2.7c-.1.2-.3.4-.6.5c-.2.2-.6.3-.9.4c-.4.1-.8.1-1.3.1c-.5 0-.9 0-1.3-.1c-.4-.1-.7-.2-.9-.4c-.3-.1-.5-.3-.6-.5c-.2-.2-.3-.4-.3-.7c0-.3.1-.5.3-.7c.1-.2.3-.4.6-.6c.2-.1.5-.2.9-.3c.4-.1.8-.1 1.3-.1zm0 2.7c.7 0 1.2-.1 1.6-.2c.4-.2.6-.5.6-.8c0-.3-.2-.6-.6-.8c-.4-.2-.9-.3-1.6-.3c-.7 0-1.2.1-1.6.3c-.4.2-.6.5-.6.8c0 .3.2.6.6.8c.4.1.9.2 1.6.2zm11.3-8.5h.8v9.2h-.8v-9.2zm-3.7.7c.4 0 .7.1 1 .2c.3.1.6.2.8.4c.2.2.4.4.5.7c.1.3.2.5.2.9c0 .3-.1.6-.2.8c-.1.3-.3.5-.5.7c-.2.2-.5.4-.8.5c-.3.1-.6.1-1 .1c-.3 0-.7 0-1-.1c-.3-.1-.5-.3-.7-.5c-.2-.2-.4-.4-.5-.7c-.2-.2-.2-.5-.2-.8c0-.4 0-.6.2-.9c.1-.3.3-.5.5-.7c.2-.2.4-.3.7-.4c.3-.1.7-.2 1-.2zm0 .7c-.2 0-.4.1-.6.1c-.2.1-.4.2-.5.3c-.2.2-.3.3-.4.5c-.1.2-.1.3-.1.6c0 .2 0 .4.1.5c.1.2.2.4.4.5c.1.1.3.2.5.3c.2.1.4.1.6.1c.3 0 .5 0 .7-.1c.2-.1.4-.2.5-.3c.1-.1.3-.3.3-.5c.1-.1.2-.3.2-.5c0-.3-.1-.4-.2-.6c0-.2-.2-.3-.3-.5c-.1-.1-.3-.2-.5-.3c-.2 0-.4-.1-.7-.1zm-2.8 5.8l-.1-.7h1.4c.5 0 1 0 1.5-.1h1.5c.6-.1 1.1-.1 1.6-.2v.6c-.5.1-1 .2-1.5.2c-.5.1-1.1.1-1.6.1c-.5.1-1 .1-1.4.1h-1.4zm19.7-3.5v.7h-1.5v4.8h-.9v-9.1h.9v3.6h1.5zm-5.5-2v1.1c0 .4.1.8.2 1.1c.1.4.3.8.5 1.1c.2.3.5.6.7.9c.3.3.6.5 1 .6l-.5.7c-.5-.2-1-.6-1.4-1.1c-.4-.5-.7-1.1-.9-1.7c-.1.3-.2.7-.4 1c-.2.3-.3.6-.5.8l-.7.7c-.2.2-.5.4-.7.5l-.5-.6c.3-.2.6-.4.9-.7c.3-.3.5-.6.8-1c.2-.3.3-.7.5-1.1c.1-.4.2-.8.2-1.2c-.03.04 0-1.1 0-1.1h-2.1v-.7h4.9v.7h-2zm12.8-1.6h.8v5h-.8v-5zm-1.1 3.8v.7c-.3 0-.7.1-1 .1c-.4.1-.7.1-1.1.1c-.4 0-.7.1-1.1.1H175c.01-.02-.7 0-.7 0v-2.6h3.3v-1.1h-3.4v-.7h4.2v2.5h-3.3v1.2h1.1c.4 0 .8 0 1.1-.1h1c.3-.1.7-.1 1.1-.2zm1.1 2.7V80h.8v3.6h-5.9V80h.8v1.1h4.3zm0 1.8v-1.1h-4.3v1.1h4.3zm6.6-5c-1 0-1.8-.2-2.4-.4c-.5-.3-.8-.7-.8-1.2c0-.5.3-.9.8-1.2c.6-.3 1.4-.4 2.4-.4c1 0 1.8.1 2.4.4c.5.3.8.7.8 1.2c0 .5-.3.9-.8 1.2c-.6.2-1.4.4-2.4.4zm0-2.6c-.8 0-1.3.1-1.7.3c-.4.1-.6.4-.6.7c0 .3.2.5.6.7c.4.2.9.2 1.7.2c.8 0 1.4 0 1.8-.2c.4-.2.6-.4.6-.7c0-.3-.2-.6-.6-.7c-.4-.2-1-.3-1.8-.3zm-4.1 3.2h8.2v.7H183v-.7zm1.8 3.5v.9h5.7v.7H184v-2.2h5.4v-.8H184v-.7h6.2v2.1h-5.4zm16.1-7.4h.8v9.1h-.8v-9.1zm-3.7 4.1c-.3 0-.6 0-.9-.1c-.3-.1-.5-.2-.7-.4c-.2-.2-.4-.3-.5-.6c-.1-.2-.2-.5-.2-.7c0-.3.1-.6.2-.8c.1-.2.3-.4.5-.6c.2-.2.4-.3.7-.4c.3-.1.6-.1.9-.1c.4 0 .7 0 1 .1c.3.1.5.2.7.4c.2.2.4.4.5.6c.1.2.2.5.2.8c0 .2-.1.5-.2.7c-.1.3-.3.4-.5.6c-.2.2-.4.3-.7.4c-.3.1-.6.1-1 .1zm0-3c-.4 0-.8.1-1.1.3c-.3.2-.4.5-.4.9c0 .3.1.6.4.8c.3.2.7.3 1.1.3c.5 0 .9-.1 1.1-.3c.3-.2.5-.5.5-.8c0-.4-.2-.7-.5-.9c-.2-.2-.6-.3-1.1-.3zm3 3.5l.1.6c-.9.2-1.7.3-2.6.3v3.3h-.8s-.04-3.24 0-3.2h-2.6l-.1-.7h2.9c.5-.1 1.1-.1 1.6-.1c.5-.1 1-.1 1.5-.2zm10.2-4.7h.8v9.2h-.8v-4.6h-1.2v4.1h-.8v-8.5h.8v3.7h1.2v-3.9zm-4.3.3v1.3h1.8v.7h-4.5v-.7h1.9v-1.3h.8zm-.4 2.6c.3 0 .5 0 .8.1c.2.2.4.3.6.5c.2.2.3.4.4.6c.1.3.1.6.1.9c0 .3 0 .6-.1.8c-.1.3-.2.5-.4.7c-.2.2-.4.3-.6.4c-.3.1-.5.2-.8.2c-.3 0-.6-.1-.8-.2c-.2-.1-.4-.2-.6-.4c-.2-.2-.3-.4-.4-.7c-.1-.2-.2-.5-.2-.8c0-.3.1-.6.2-.9c.1-.2.2-.4.4-.6c.2-.2.4-.3.6-.5c.2-.1.5-.1.8-.1zm0 3.5c.3 0 .6-.2.9-.4c.2-.3.3-.6.3-1c0-.2 0-.4-.1-.6c-.1-.1-.1-.3-.2-.4c-.2-.1-.3-.2-.4-.3c-.2-.1-.3-.1-.5-.1c-.4 0-.7.1-.9.4c-.2.2-.3.6-.3 1c0 .4.1.7.3 1c.2.2.5.4.9.4zm15.6-6.4h.9v9.2h-.9v-9.2zm-6.1 1s4.3.03 4.3 0c0 .7-.1 1.3-.2 1.9c-.2.7-.4 1.2-.8 1.8c-.3.5-.8 1-1.3 1.5c-.5.5-1.2.9-2 1.3l-.4-.7c1.2-.6 2.2-1.3 2.8-2.2c.6-.8 1-1.8 1.1-2.9h-3.5v-.7zm15.9-.6v4h-6.2v-4h.8v1.3h4.6v-1.3h.8zm-.8 3.3v-1.4h-4.6v1.4h4.6zm1.9 1.8v.6h-3.8v3.1h-.8v-3.1h-3.8v-.6h8.4zm6.6-2.3v2.4h-.8v-5.4h.8v2.4h1.2v-2.5h.8v5.6h-.8v-2.5h-1.2zm-1.2-2.1v.7H233v-.7h1.9v-1h.8v1h1.9zm-2.3 4.2c-.3 0-.5 0-.8-.1c-.2 0-.4-.1-.6-.3c-.2-.1-.3-.3-.4-.5c-.1-.2-.1-.4-.1-.6c0-.3 0-.5.1-.7c.1-.2.2-.3.4-.5l.6-.3c.3 0 .5-.1.8-.1c.3 0 .6.1.8.1c.3.1.5.2.6.3c.2.2.3.3.4.5c.1.2.2.4.2.7c0 .2-.1.4-.2.6c-.1.2-.2.4-.4.5c-.1.2-.3.3-.6.3c-.2.1-.5.1-.8.1zm0-2.5c-.3 0-.6.1-.9.3c-.2.2-.3.4-.3.7c0 .3.1.5.3.7c.3.1.6.2.9.2c.4 0 .7-.1.9-.2c.2-.2.3-.4.3-.7c0-.3-.1-.5-.3-.7c-.2-.2-.5-.3-.9-.3zm4.3 3.2s.04.29 0 .3c0 .2.1.4.2.7c0 .2.2.4.3.6c.2.2.4.3.6.5c.2.1.5.3.8.4l-.4.6c-.5-.2-.9-.4-1.2-.7c-.3-.3-.5-.6-.7-1c-.1.4-.3.7-.6 1c-.3.3-.6.6-1.1.8c-.4-.2-.8-.4-1-.7c-.3-.3-.5-.7-.6-1.1c-.2.4-.5.7-.8 1c-.3.3-.6.5-1.1.7l-.4-.6c.3-.1.6-.3.8-.4l.6-.6l.3-.6c.1-.2.2-.4.2-.6c-.04-.01 0-.3 0-.3h.8s-.04.29 0 .3c0 .4.1.8.3 1.1c.2.4.5.7.9 1c.2-.2.4-.3.6-.5c.2-.2.3-.3.4-.5c.1-.2.2-.4.2-.6c.1-.2.1-.3.1-.5v-.3h.8zm11.2-2.3v.6h-1.5v4.9h-.9v-9.2h.9v3.7h1.5zm-7.4-2.1s.04 4.61 0 4.6h2.2c.3-.1.7-.1 1-.1c.3-.1.6-.1 1-.2l.1.7c-.4.1-.7.1-1.1.2c-.3 0-.6 0-1 .1h-2.3c.03.03-.7 0-.7 0v-6h4.3v.7h-3.5zm7.9 7v-1h.9v1h-.9z" stroke="none" fill="#111111"/></g><g id="Polygon115851"><path d="m8.3 56.1v6.8h-.8v-6.8h.8zm-3.8 3.2v1.8H.9v-4.2h3.6v1.7h1.2v-2.4h.8v6.4h-.8v-3.3H4.5zm-.8 1.1v-2.8h-2v2.8h2zm-.6 3.9h5.4v.7H2.3v-3h.8v2.3zm11.2-.9h3.7v.7H9.7v-.7h3.7v-1.9h-2.6v-4.7h6.2v.7h-5.4v1.3h5.2v.6h-5.2v1.4h5.5v.7h-2.8v1.9zM26.4 56v5.7h-.8V56h.8zm-1.9 4.1l.1.7c-.4.1-.8.1-1.1.2c-.4 0-.7 0-1.1.1h-3v-2.6h3.3v-1.2h-3.4v-.7h4.2v2.5h-3.3v1.3h2.2c.3 0 .7-.1 1-.1c.4 0 .7-.1 1.1-.2zm-1.1 1.8c.5 0 .9 0 1.3.1c.3.1.7.2.9.3c.3.1.5.3.6.5c.2.2.3.5.3.7c0 .5-.3 1-.9 1.2c-.5.3-1.3.5-2.2.5c-1 0-1.7-.2-2.3-.5c-.5-.2-.8-.7-.8-1.2c0-.5.3-.9.8-1.2c.6-.3 1.3-.4 2.3-.4zm0 2.6c.7 0 1.3-.1 1.6-.2c.4-.2.6-.5.6-.8c0-.3-.2-.5-.6-.7c-.3-.2-.9-.3-1.6-.3c-.7 0-1.3.1-1.7.3c-.3.2-.5.4-.5.7c0 .3.2.6.5.8c.4.1 1 .2 1.7.2zm8.8-5.1c-1 0-1.8-.2-2.3-.4c-.6-.3-.9-.7-.9-1.2c0-.5.3-.9.9-1.2c.5-.3 1.3-.4 2.3-.4c1 0 1.8.1 2.4.4c.5.3.8.7.8 1.2c0 .5-.3.9-.8 1.2c-.6.2-1.4.4-2.4.4zm0-2.6c-.8 0-1.3.1-1.7.3c-.4.1-.6.4-.6.7c0 .3.2.5.6.7c.4.2.9.2 1.7.2c.8 0 1.4 0 1.8-.2c.4-.2.6-.4.6-.7c0-.3-.2-.6-.6-.7c-.4-.2-1-.3-1.8-.3zM28.1 60h8.3v.7h-8.3v-.7zm1.8 3.5v.9h5.7v.7h-6.5v-2.2h5.4v-.8h-5.4v-.7h6.2v2.1h-5.4zM46.3 56h.8v9.2h-.8V56zm-1.8 3.3v-3.1h.8v8.5h-.8V60H43v-.7h1.5zM42 57.8s.02.82 0 .8c0 .4.1.8.2 1.2c0 .4.2.8.3 1.1c.2.3.4.7.6.9c.3.3.6.5.9.7l-.5.6c-.5-.2-.9-.6-1.2-1.1c-.3-.4-.5-.9-.7-1.5c-.1.6-.4 1.2-.7 1.7c-.3.5-.7.9-1.2 1.2l-.5-.7c.3-.2.6-.4.9-.7c.2-.3.4-.6.6-1c.2-.3.3-.7.4-1.1c.1-.4.1-.9.1-1.3c.02.02 0-.8 0-.8h-1.7v-.7h4.2v.7H42zm12.9-.5c.02-.02 0-.1 0-.1h-5.4v-.7h6.2s.04.78 0 .8v1.1c0 .4-.1.8-.2 1.3l-.8-.1c.1-.5.2-.9.2-1.2v-1.1zm-2.1 3h4v.7h-8.3v-.7h3.4v-1.8h.9v1.8zm-.2 1.5c.5 0 1 .1 1.3.1c.4.1.8.2 1 .4c.3.1.5.3.7.5c.1.2.2.4.2.7c0 .3-.1.5-.2.7c-.2.2-.4.4-.7.5c-.2.2-.6.3-1 .4c-.3 0-.8.1-1.3.1c-.5 0-.9-.1-1.3-.1c-.4-.1-.7-.2-1-.4c-.3-.1-.5-.3-.6-.5c-.2-.2-.3-.4-.3-.7c0-.3.1-.5.3-.7c.1-.2.3-.4.6-.5c.3-.2.6-.3 1-.4c.4 0 .8-.1 1.3-.1zm0 2.7c.7 0 1.3-.1 1.7-.2c.5-.2.7-.5.7-.8c0-.3-.2-.6-.7-.8c-.4-.1-1-.2-1.7-.2c-.7 0-1.3.1-1.7.2c-.4.2-.6.5-.6.8c0 .3.2.6.6.8c.4.1 1 .2 1.7.2zm10.9-5.3v2.4h-.8v-5.4h.8v2.4h1.1v-2.5h.8v5.6h-.8v-2.5h-1.1zm-1.2-2.1v.7h-4.6v-.7h1.9v-1h.8v1h1.9zM60 61.3c-.3 0-.6 0-.8-.1c-.2 0-.5-.1-.6-.3c-.2-.1-.3-.3-.4-.5c-.1-.2-.2-.4-.2-.6c0-.3.1-.5.2-.7c.1-.2.2-.3.4-.5c.1-.1.4-.2.6-.3c.2 0 .5-.1.8-.1c.3 0 .5.1.8.1l.6.3c.2.2.3.3.4.5c.1.2.1.4.1.7c0 .2 0 .4-.1.6c-.1.2-.2.4-.4.5c-.2.2-.4.3-.6.3c-.3.1-.5.1-.8.1zm0-2.5c-.4 0-.7.1-.9.3c-.2.2-.3.4-.3.7c0 .3.1.5.3.7c.2.1.5.2.9.2c.4 0 .6-.1.9-.2c.2-.2.3-.4.3-.7c0-.3-.1-.5-.3-.7c-.3-.2-.5-.3-.9-.3zm4.3 3.2v.3c0 .2 0 .4.1.7c.1.2.2.4.4.6c.1.2.3.3.6.5c.2.1.5.3.7.4l-.4.6c-.4-.2-.8-.4-1.1-.7c-.3-.3-.6-.6-.7-1c-.2.4-.4.7-.6 1c-.3.3-.7.6-1.1.8c-.4-.2-.8-.4-1.1-.7c-.2-.3-.4-.7-.6-1.1c-.2.4-.4.7-.7 1c-.3.3-.7.5-1.1.7l-.4-.6c.3-.1.5-.3.8-.4c.2-.2.4-.4.5-.6c.2-.2.3-.4.4-.6c.1-.2.1-.4.1-.6c.02-.01 0-.3 0-.3h.8s.02.29 0 .3c0 .4.1.8.3 1.1c.2.4.6.7 1 1c.2-.2.4-.3.6-.5c.1-.2.2-.3.4-.5c.1-.2.1-.4.2-.6c0-.2.1-.3.1-.5c-.03-.01 0-.3 0-.3h.8zm6.7-5.4c.5 0 .9.1 1.3.2c.4.1.8.3 1.1.5c.3.2.5.5.7.8c.2.3.2.7.2 1c0 .4 0 .8-.2 1.1c-.2.3-.4.6-.7.8c-.3.2-.7.4-1.1.5c-.4.1-.8.2-1.3.2c-.5 0-.9-.1-1.3-.2c-.4-.1-.8-.3-1.1-.5c-.3-.2-.5-.5-.7-.8c-.1-.3-.2-.7-.2-1.1c0-.3.1-.7.2-1c.2-.3.4-.6.7-.8c.3-.2.7-.4 1.1-.5c.4-.1.8-.2 1.3-.2zm0 .7c-.3 0-.7 0-1 .1c-.3.1-.6.2-.8.4c-.2.2-.4.4-.5.6c-.2.2-.2.5-.2.7c0 .3 0 .6.2.8c.1.2.3.4.5.6c.2.1.5.3.8.4c.3 0 .7.1 1 .1c.4 0 .7-.1 1-.1c.3-.1.6-.3.8-.4c.2-.2.4-.4.5-.6c.2-.2.2-.5.2-.8c0-.2 0-.5-.2-.7c-.1-.2-.3-.4-.5-.6c-.2-.2-.5-.3-.8-.4c-.3-.1-.6-.1-1-.1zm-4.1 6h8.3v.7h-8.3v-.7zM82.8 56h.8v9.2h-.8v-3.8h-2.2v1.5h-4.2v-6h4.2v1.3h2.2V56zm-3 6.2v-4.6h-2.6v4.6h2.6zm.8-1.4h2.2v-1.9h-2.2v1.9zm4.3 4.4l.4-2.1h.9l-.6 2.1h-.7zm12.7-5.4v.6h-1.5v4.8h-.9V56h.9v3.8h1.5zm-8-2.8h4.2c0 .6-.1 1.3-.2 1.9c-.2.7-.4 1.3-.7 1.8c-.3.6-.7 1.1-1.3 1.6c-.5.5-1.2 1-2 1.4l-.5-.7c.9-.4 1.6-.8 2.1-1.4c.5-.5.9-1 1.2-1.7c-.01.05-3.1.3-3.1.3l-.1-.7s3.45-.23 3.4-.2c.2-.5.3-1.1.3-1.6c.02-.03-3.3 0-3.3 0v-.7zm17.1 2.8v.6h-1.4v4.8h-.9V56h.9v3.8h1.4zM98.8 57h4.1c0 .6 0 1.3-.2 1.9c-.1.7-.3 1.3-.6 1.8c-.3.6-.8 1.1-1.3 1.6c-.5.5-1.2 1-2 1.4l-.5-.7c.9-.4 1.5-.8 2.1-1.4c.5-.5.9-1 1.2-1.7c-.03.05-3.1.3-3.1.3l-.2-.7s3.53-.23 3.5-.2c.2-.5.3-1.1.3-1.6c0-.03-3.3 0-3.3 0v-.7zm13.2 6.3h3.7v.7h-8.3v-.7h3.7s.02-1.88 0-1.9c-.4 0-.8-.1-1.2-.2c-.3-.1-.6-.3-.9-.5c-.2-.2-.4-.5-.6-.7c-.1-.3-.2-.6-.2-1c0-.3.1-.7.3-1c.1-.2.4-.5.7-.7c.3-.2.6-.4 1-.5c.4-.1.9-.2 1.3-.2c.5 0 1 .1 1.4.2c.4.1.7.3 1 .5c.3.2.6.5.7.7c.2.3.3.7.3 1c0 .4-.1.7-.3 1c-.1.2-.3.5-.5.7c-.3.2-.6.4-1 .5c-.3.1-.7.2-1.1.2c-.04.02 0 1.9 0 1.9zm-3-4.3c0 .3.1.5.2.8c.1.2.3.3.5.5c.3.2.5.3.8.4c.3 0 .7.1 1 .1c.4 0 .8-.1 1.1-.1c.3-.1.5-.2.8-.4c.2-.2.4-.3.5-.5c.1-.3.2-.5.2-.8c0-.2-.1-.5-.2-.7c-.1-.2-.3-.4-.5-.5c-.3-.2-.5-.3-.8-.4c-.3-.1-.7-.1-1.1-.1c-.3 0-.7 0-1 .1c-.3.1-.5.2-.8.4c-.2.1-.4.3-.5.5c-.1.2-.2.5-.2.7zm12.1 4.3h3.8v.7h-8.3v-.7h3.7v-2.2h-2.7v-4.3h6.3v4.3h-2.8v2.2zm-2.7-5.8v2.9h4.7v-2.9h-4.7zm14.9-1.4v4.7h-.9v-4.7h.9zm-2.8.3v4h-4.3v-4h.9v1.3h2.6v-1.3h.8zm-.8 3.3v-1.3h-2.6v1.3h2.6zm-1.5 4.7h5.4v.7h-6.2v-2.3h5v-.9h-5.1v-.6h6v2.2h-5.1v.9zm13.4-8.4h.9v9.2h-.9V56zm-5.3 4.2v2.1c.8 0 1.5 0 2.2-.1c.7 0 1.5-.1 2.3-.2v.7c-.4 0-.8.1-1.2.1c-.3.1-.7.1-1.1.1c-.4 0-.7.1-1.1.1h-1.9v-3.5h3.3v-1.9h-3.4v-.7h4.3v3.3h-3.4zm14.5-4.2h.8v9.2h-.8V56zm-5.3 4.1s.03 2.2 0 2.2h1.2c.4 0 .7 0 1.1-.1h.9c.4-.1.7-.1 1-.2l.1.7c-.3 0-.7.1-1 .1c-.4.1-.7.1-1.1.1c-.3 0-.7.1-1.1.1h-1.9v-6.1h4.4v.7h-3.6v1.8h3.3v.7h-3.3zm16.3-.3v.7h-1.5v4.7h-.8V56h.8v3.8h1.5zm-5.3 1.1v1.6c.4-.1.8-.1 1.2-.1c.4-.1.8-.1 1.2-.1l.1.6c-.5 0-1 .1-1.5.2c-.5 0-1 0-1.5.1h-2.7l-.1-.7h2.4v-1.6c-.3 0-.5-.1-.8-.2c-.2-.1-.5-.3-.6-.5c-.2-.2-.3-.4-.4-.6c-.1-.3-.2-.5-.2-.8c0-.3.1-.6.2-.9c.1-.3.3-.5.5-.7c.2-.2.5-.3.8-.4c.3-.1.6-.2.9-.2c.4 0 .7.1 1 .2c.3.1.6.2.8.4c.2.2.4.4.5.7c.1.3.2.6.2.9c0 .3-.1.5-.2.8c-.1.2-.2.4-.4.6c-.2.2-.4.3-.6.5c-.3.1-.6.2-.8.2zm-2.1-2.1c0 .4.2.8.5 1c.3.3.7.4 1.1.4c.5 0 .9-.1 1.2-.4c.3-.2.4-.6.4-1c0-.2 0-.4-.1-.6c-.1-.2-.2-.3-.3-.5c-.2-.1-.3-.2-.5-.3c-.2 0-.4-.1-.7-.1c-.2 0-.4.1-.6.1c-.2.1-.4.2-.5.3c-.2.2-.3.3-.4.5c0 .2-.1.4-.1.6zm14.7-2.8h.8v9.2h-.8V56zm-3.6.7c.3 0 .6.1.9.2c.3.1.6.2.8.4c.2.2.4.4.5.7c.1.3.2.5.2.9c0 .3-.1.6-.2.8c-.1.3-.3.5-.5.7c-.2.2-.5.4-.8.5c-.3.1-.6.1-.9.1c-.4 0-.7 0-1-.1c-.3-.1-.6-.3-.8-.5c-.2-.2-.4-.4-.5-.7c-.1-.2-.2-.5-.2-.8c0-.4.1-.6.2-.9c.1-.3.3-.5.5-.7c.2-.2.5-.3.8-.4c.3-.1.6-.2 1-.2zm0 .7c-.3 0-.5.1-.7.1c-.2.1-.4.2-.5.3c-.2.2-.3.3-.4.5c0 .2-.1.3-.1.6c0 .2.1.4.1.5c.1.2.2.4.4.5c.1.1.3.2.5.3c.2.1.4.1.7.1c.2 0 .4 0 .6-.1c.2-.1.4-.2.5-.3c.2-.1.3-.3.4-.5c0-.1.1-.3.1-.5c0-.3-.1-.4-.1-.6c-.1-.2-.2-.3-.4-.5c-.1-.1-.3-.2-.5-.3c-.2 0-.4-.1-.6-.1zm-2.9 5.8l-.1-.7h1.4c.5 0 1 0 1.5-.1h1.6c.5-.1 1-.1 1.5-.2l.1.6c-.5.1-1.1.2-1.6.2c-.5.1-1 .1-1.5.1c-.5.1-1 .1-1.5.1h-1.4zm16.3-6.2v.6h-5.1v-.6h2.1v-1.1h.9v1.1h2.1zm1.5-.9h.9v5.3h-.9v-.8h-1.5v-.6h1.5v-1.1h-1.5v-.7h1.5v-2.1zm-2 3.6c0 .3 0 .5-.1.7c-.1.2-.3.4-.5.5c-.1.2-.4.3-.6.4c-.3 0-.5.1-.8.1c-.3 0-.6-.1-.9-.1c-.2-.1-.5-.2-.6-.4c-.2-.1-.4-.3-.5-.5c-.1-.2-.1-.4-.1-.7c0-.2 0-.4.1-.6c.1-.2.3-.4.5-.6c.1-.1.4-.2.6-.3c.3-.1.6-.1.9-.1c.3 0 .5 0 .8.1c.2.1.5.2.6.3c.2.2.4.4.5.6c.1.2.1.4.1.6zm-3.3 0c0 .3.1.6.3.8c.3.2.6.2 1 .2c.3 0 .7 0 .9-.2c.2-.2.3-.5.3-.8c0-.3-.1-.5-.3-.7c-.2-.2-.6-.3-.9-.3c-.4 0-.7.1-1 .3c-.2.2-.3.4-.3.7zm5.4 3.1v-.9h.8v3.2h-5.9v-3.2h.8v.9h4.3zm0 1.6v-1h-4.3v1h4.3zm9.1-8.3h.9v4.9h-.9v-2.1s-1.84.01-1.8 0c-.1.6-.4 1-.8 1.3c-.4.3-.9.5-1.6.5c-.3 0-.6 0-.9-.2c-.3-.1-.6-.2-.8-.4c-.2-.2-.3-.4-.5-.7c-.1-.2-.1-.5-.1-.8c0-.3 0-.6.1-.9c.2-.2.3-.5.5-.6c.2-.2.5-.4.8-.5c.3-.1.6-.1.9-.1c.3 0 .6 0 .9.1c.2.1.5.2.7.4c.2.1.4.3.5.5c.1.2.2.5.3.7c-.05.02 1.8 0 1.8 0v-2.1zm-4.2 3.9c.2 0 .5 0 .7-.1c.1-.1.3-.2.4-.3c.2-.1.3-.3.4-.4c0-.2.1-.4.1-.6c0-.2-.1-.4-.1-.6c-.1-.2-.2-.3-.4-.4c-.1-.2-.3-.3-.4-.3c-.2-.1-.5-.1-.7-.1c-.2 0-.4 0-.6.1c-.2 0-.4.1-.5.3c-.1.1-.2.2-.3.4c-.1.2-.1.4-.1.6c0 .2 0 .4.1.6c.1.1.2.3.3.4c.1.1.3.2.5.3c.2.1.4.1.6.1zm4.2 2.6v-1.2h.9v3.7h-5.9v-3.7h.8v1.2h4.2zm0 1.8v-1.2h-4.2v1.2h4.2zm6.6-5c-1 0-1.8-.2-2.3-.4c-.6-.3-.9-.7-.9-1.2c0-.5.3-.9.9-1.2c.5-.3 1.3-.4 2.3-.4c1 0 1.8.1 2.4.4c.6.3.9.7.9 1.2c0 .5-.3.9-.9 1.2c-.6.2-1.4.4-2.4.4zm0-2.6c-.7 0-1.3.1-1.7.3c-.4.1-.6.4-.6.7c0 .3.2.5.6.7c.4.2 1 .2 1.7.2c.8 0 1.4 0 1.8-.2c.4-.2.6-.4.6-.7c0-.3-.2-.6-.6-.7c-.4-.2-1-.3-1.8-.3zm-4.1 3.2h8.3v.7h-8.3v-.7zm1.8 3.5v.9h5.7v.7h-6.5v-2.2h5.4v-.8h-5.4v-.7h6.2v2.1h-5.4zm14-2.6h3.7v.7h-8.2v-.7h3.7v-.9h-2.7v-3.7h6.2v.7h-5.3v.8h5.1v.6h-5.1v.9h5.4v.7h-2.8v.9zm-.4 1.4c1 0 1.8.1 2.3.3c.6.3.8.6.8 1.1c0 .5-.2.9-.8 1.1c-.5.3-1.3.4-2.3.4c-1 0-1.8-.1-2.3-.4c-.6-.2-.8-.6-.8-1.1c0-.5.2-.8.8-1.1c.5-.2 1.3-.3 2.3-.3zm0 2.2c.7 0 1.3 0 1.7-.2c.4-.1.6-.3.6-.6c0-.3-.2-.5-.6-.6c-.4-.2-1-.2-1.7-.2c-.7 0-1.3 0-1.7.2c-.4.1-.6.3-.6.6c0 .3.2.5.6.6c.4.2 1 .2 1.7.2zm12-8.5h.8v9.2h-.8v-4.6h-1.2v4.1h-.8v-8.5h.8v3.7h1.2V56zm-4.3.3v1.3h1.9v.7h-4.6v-.7h1.9v-1.3h.8zm-.4 2.6c.3 0 .6 0 .8.1c.2.2.4.3.6.5c.2.2.3.4.4.6c.1.3.2.6.2.9c0 .3-.1.6-.2.8c-.1.3-.2.5-.4.7c-.2.2-.4.3-.6.4c-.2.1-.5.2-.8.2c-.3 0-.5-.1-.8-.2c-.2-.1-.4-.2-.6-.4c-.2-.2-.3-.4-.4-.7c-.1-.2-.1-.5-.1-.8c0-.3 0-.6.1-.9c.1-.2.2-.4.4-.6c.2-.2.4-.3.6-.5c.3-.1.5-.1.8-.1zm0 3.5c.4 0 .7-.2.9-.4c.2-.3.3-.6.3-1c0-.2 0-.4-.1-.6c0-.1-.1-.3-.2-.4c-.1-.1-.2-.2-.4-.3c-.1-.1-.3-.1-.5-.1c-.4 0-.7.1-.9.4c-.2.2-.3.6-.3 1c0 .4.1.7.3 1c.3.2.6.4.9.4zm15.7-2.1s-2.32.04-2.3 0c-.2.3-.5.5-.8.7c-.3.1-.7.2-1.1.2c-.3 0-.6 0-.9-.2c-.3-.1-.6-.2-.8-.4c-.2-.2-.4-.5-.5-.8c-.1-.2-.1-.5-.1-.9c0-.3 0-.6.1-.9c.1-.3.3-.5.5-.7c.2-.2.5-.4.8-.5c.3-.1.6-.2.9-.2c.4 0 .8.1 1.1.3c.3.1.6.3.8.6c-.03-.02 2.3 0 2.3 0v-1.4h.8v6.7h-.8v-2.5zm-5.8-1.4c0 .2.1.5.2.6c0 .2.2.4.3.5c.1.2.3.3.5.4c.2 0 .4.1.6.1c.2 0 .4-.1.6-.1c.2-.1.4-.2.5-.4c.2-.1.3-.3.3-.5c.1-.1.2-.4.2-.6c0-.2-.1-.4-.2-.6c0-.2-.1-.4-.3-.5c-.1-.1-.3-.2-.5-.3c-.2-.1-.4-.1-.6-.1c-.2 0-.4 0-.6.1c-.2.1-.4.2-.5.3c-.1.1-.3.3-.3.5c-.1.2-.2.4-.2.6zm5.8-.7s-1.97-.05-2 0c.1.2.2.4.2.7c0 .3-.1.5-.2.8c.03-.03 2 0 2 0v-1.5zm-4.2 6.1h5.3v.7h-6.1v-2.9h.8v2.2zm13.8-6.3h1.3v.7h-1.3v2h-.8v-4.6h.8v1.9zm-2.5-1.4v3.6h-4.2v-3.6h4.2zm-.8 3v-2.4h-2.6v2.4h2.6zm-1.7 3.8v1h5.3v.7h-6.1v-2.3h5v-1h-5v-.7h5.8v2.3h-5zm13.8-3.1s-2.36.04-2.4 0c-.2.3-.4.5-.8.7c-.3.1-.6.2-1 .2c-.4 0-.7 0-1-.2c-.3-.1-.5-.2-.7-.4c-.2-.2-.4-.5-.5-.8c-.1-.2-.2-.5-.2-.9c0-.3.1-.6.2-.9c.1-.3.3-.5.5-.7c.2-.2.4-.4.7-.5c.3-.1.6-.2 1-.2c.4 0 .7.1 1 .3c.3.1.6.3.8.6c.03-.02 2.4 0 2.4 0v-1.4h.8v6.7h-.8v-2.5zm-5.8-1.4c0 .2 0 .5.1.6c.1.2.2.4.3.5c.2.2.4.3.5.4c.2 0 .4.1.7.1c.2 0 .4-.1.6-.1c.2-.1.3-.2.5-.4c.1-.1.2-.3.3-.5c.1-.1.1-.4.1-.6c0-.2 0-.4-.1-.6c-.1-.2-.2-.4-.3-.5c-.2-.1-.3-.2-.5-.3c-.2-.1-.4-.1-.6-.1c-.3 0-.5 0-.7.1c-.1.1-.3.2-.5.3c-.1.1-.2.3-.3.5c-.1.2-.1.4-.1.6zm5.8-.7s-2.01-.05-2 0c.1.2.1.4.1.7c0 .3 0 .5-.1.8c-.01-.03 2 0 2 0v-1.5zm-4.2 6.1h5.3v.7h-6.1v-2.9h.8v2.2zM258 56h.8v9.2h-.8V56zm-3.4.8s-.01 1.68 0 1.7c0 .4.1.8.2 1.2c.1.4.3.8.5 1.2c.2.3.5.6.8.9c.3.3.6.5.9.6l-.5.7c-.5-.2-1-.6-1.4-1.1c-.4-.5-.7-1.1-.9-1.8c-.2.7-.5 1.3-1 1.9c-.4.5-.8.9-1.4 1.2l-.5-.7c.3-.2.7-.4 1-.7c.3-.2.5-.6.7-.9c.3-.4.4-.8.6-1.2c.1-.5.2-.9.2-1.3c-.04-.02 0-1.7 0-1.7h.8zm12.1-.6c.5 0 1 .1 1.4.2c.4 0 .7.2 1 .3c.3.2.5.3.6.5c.2.3.3.5.3.8c0 .3-.1.5-.3.7c-.1.2-.3.4-.6.5c-.3.2-.6.3-1 .4c-.4.1-.9.1-1.4.1c-.5 0-.9 0-1.3-.1c-.4-.1-.7-.2-1-.4c-.3-.1-.5-.3-.6-.5c-.2-.2-.3-.4-.3-.7c0-.3.1-.5.3-.8c.1-.2.3-.3.6-.5c.3-.1.6-.3 1-.3c.4-.1.8-.2 1.3-.2zm0 .7c-.7 0-1.3.1-1.7.3c-.4.2-.6.4-.6.8c0 .3.2.6.6.8c.4.2 1 .2 1.7.2c.8 0 1.4 0 1.8-.2c.4-.2.6-.5.6-.8c0-.4-.2-.6-.6-.8c-.4-.2-1-.3-1.8-.3zm-4.1 3.6h8.3v.7h-8.3v-.7zm1 1.6h6.3v3h-6.3v-3zm5.5.6h-4.7v1.7h4.7v-1.7zm3.5-2.2l-.3-.7c.4 0 .8-.1 1.2-.3c.3-.1.7-.3 1-.6c.3-.2.5-.4.7-.7c.2-.3.3-.6.3-.9c-.04.04 0 0 0 0h-2.9v-.7h6.7v.7h-2.9s-.01.04 0 0c0 .3.1.6.3.9c.1.3.4.5.7.7c.3.3.6.5 1 .6c.4.2.8.3 1.2.3l-.3.7l-1.1-.3c-.3-.1-.6-.3-.9-.4c-.3-.2-.6-.4-.8-.7c-.3-.2-.4-.4-.6-.7c-.1.3-.3.5-.5.7c-.3.3-.5.5-.8.7c-.3.1-.6.3-1 .4c-.3.1-.6.2-1 .3zm7.5.8v.6h-3.8v3.3h-.8v-3.3h-3.7v-.6h8.3zm5-1.4c-.5 0-.9 0-1.3-.1c-.4-.1-.7-.2-1-.3c-.3-.2-.5-.4-.7-.6c-.1-.2-.2-.5-.2-.8c0-.3.1-.5.2-.8c.2-.2.4-.4.7-.5c.3-.2.6-.3 1-.4c.4-.1.8-.1 1.3-.1c.5 0 .9 0 1.3.1c.4.1.7.2 1 .4c.3.1.5.3.7.5c.1.3.2.5.2.8c0 .3-.1.6-.2.8c-.2.2-.4.4-.7.6c-.3.1-.6.2-1 .3c-.4.1-.8.1-1.3.1zm0-3c-.3 0-.7.1-.9.1c-.3.1-.6.2-.8.3c-.2.1-.3.2-.5.3c-.1.2-.1.3-.1.5c0 .2 0 .3.1.5c.2.1.3.3.5.4c.2.1.5.1.8.2c.2 0 .6.1.9.1c.7 0 1.3-.1 1.7-.3c.4-.3.6-.5.6-.9c0-.4-.2-.6-.6-.8c-.4-.2-1-.4-1.7-.4zm-4.1 3.8h8.3v.7h-3.7v1.8h-.8v-1.8H281v-.7zm1.9 1.6v2h5.4v.7H282v-2.7h.9zm12.1-3.7h1.8v-2.5h.9v6.7h-.9v-3.5H295v-.7zm.5 2.1l-.4.7c-.5-.2-.9-.5-1.3-.8c-.4-.4-.7-.8-.9-1.3c-.2.5-.5 1-.9 1.4c-.4.4-.8.7-1.4.9l-.4-.7c.3-.1.6-.3.9-.5c.3-.2.5-.4.7-.7c.2-.2.4-.5.5-.8c.1-.3.2-.6.2-1c-.02.03 0-.4 0-.4h-2.1v-.7h4.9v.7h-2s.02.42 0 .4c0 .3.1.6.2.9c.1.3.2.5.4.8l.7.7c.3.2.6.3.9.4zm-2.8 3.6h5.2v.7h-6.1v-2.8h.9v2.1zm15.7-8.3h.8v9.2h-.8V56zm-1.8 2.3v-2.1h.8v8.5h-.8v-3s-1.43.03-1.4 0c-.2.5-.4.9-.7 1.1c-.3.3-.6.4-1 .4c-.3 0-.6-.1-.8-.2c-.3-.2-.5-.4-.6-.7c-.2-.3-.3-.6-.4-1c-.1-.4-.2-.8-.2-1.3c0-.5.1-.9.2-1.3c.1-.4.2-.8.4-1c.1-.3.3-.5.6-.7c.2-.1.5-.2.8-.2c.4 0 .7.1 1 .4c.3.2.5.6.7 1.1c-.03-.05 1.4 0 1.4 0zm-3.1 4.1c.3 0 .6-.2.8-.6c.3-.5.4-1.1.4-1.8c0-.8-.1-1.3-.4-1.8c-.2-.4-.5-.6-.8-.6c-.4 0-.7.2-.9.6c-.2.5-.3 1-.3 1.8c0 .7.1 1.3.3 1.8c.2.4.5.6.9.6zm1.8-1.4c.05.04 1.3 0 1.3 0v-2.1s-1.25.04-1.3 0c.1.2.1.4.1.5v1.1c0 .2 0 .4-.1.5zm12.4-2.7h1.3v.7h-1.3v2.5h-.8V56h.8v2.3zm-2.5-1.7v4.2H311v-4.2h.8v1.4h2.6v-1.4h.8zm-.8 3.6v-1.5h-2.6v1.5h2.6zm.4 1.6c.4 0 .9 0 1.2.1c.4.1.7.2 1 .3l.6.6c.1.2.2.4.2.7c0 .3-.1.5-.2.7c-.2.2-.4.4-.6.5c-.3.2-.6.3-1 .4c-.3.1-.8.1-1.2.1c-1 0-1.7-.2-2.2-.5c-.6-.2-.8-.7-.8-1.2c0-.6.2-1 .8-1.3c.5-.3 1.2-.4 2.2-.4zm0 2.7c.7 0 1.2-.1 1.6-.2c.4-.2.6-.5.6-.8c0-.3-.2-.6-.6-.8c-.4-.2-.9-.2-1.6-.2c-.7 0-1.3 0-1.6.2c-.4.2-.6.5-.6.8c0 .3.2.6.6.8c.3.1.9.2 1.6.2zm14-8.5h.8v5.4h-.8V59h-1.2v2.4h-.8v-5.2h.8v2.2h1.2V56zm-6.4.7s3.52-.05 3.5 0c0 1.1-.3 2-.8 2.9c-.6.8-1.5 1.5-2.7 2l-.4-.6c.6-.3 1.2-.6 1.6-.9c.4-.3.7-.7 1-1.2c-.01.04-2.5.3-2.5.3l-.2-.7s2.98-.17 3-.2c0-.1.1-.3.1-.5c0-.1.1-.3.1-.5c-.02.04-2.7 0-2.7 0v-.6zm1.2 8.4v-3.2h6v3.2h-6zm.8-2.6v1.9h4.3v-1.9h-4.3zm13.6-6.4h.8v9.1h-.8v-9.1zm-1.7 3.4v-3.2h.8v8.4h-.8v-4.4H335v-.8h1.3zm-1.8-1.6s.04 4.22 0 4.2h.5c.2 0 .3-.1.5-.1v.6c-.3.1-.7.2-1.1.2c-.4 0-.8.1-1.2.1H331c.02.04-.1-.7-.1-.7c0 0 .71.04.7 0h.3c-.03.03 0-4.3 0-4.3h-.8v-.7h4.2v.7h-.8zm-1.9 0s.03 4.31 0 4.3h1.2c-.03-.03 0-4.3 0-4.3h-1.2zm15.1-1.8v6.6h-.8v-6.6h.8zm-2.5 2.8c0 .4-.1.7-.2.9c-.1.3-.3.6-.5.8c-.2.2-.5.3-.8.4c-.2.1-.6.2-.9.2c-.3 0-.7-.1-.9-.2c-.3-.1-.6-.2-.8-.4c-.2-.2-.4-.5-.5-.8c-.1-.2-.2-.5-.2-.9c0-.3.1-.6.2-.9c.1-.3.3-.5.5-.7c.2-.2.5-.3.8-.5c.2-.1.6-.1.9-.1c.3 0 .7 0 .9.1c.3.2.6.3.8.5c.2.2.4.4.5.7c.1.3.2.6.2.9zm-4 0c0 .3.1.5.2.6c0 .2.1.4.3.5c.1.2.3.3.5.4c.2 0 .4.1.6.1c.2 0 .4-.1.6-.1c.2-.1.4-.2.5-.4c.2-.1.3-.3.4-.5c0-.1.1-.3.1-.6c0-.2-.1-.4-.1-.6c-.1-.2-.2-.3-.4-.5c-.1-.1-.3-.2-.5-.3c-.2-.1-.4-.1-.6-.1c-.2 0-.4 0-.6.1c-.2.1-.4.2-.5.3c-.2.2-.3.3-.3.5c-.1.2-.2.4-.2.6zm1.5 5.4h5.3v.7h-6.2v-3h.9v2.3zm10.8-4.9c-1 0-1.8-.2-2.3-.4c-.6-.3-.9-.7-.9-1.2c0-.5.3-.9.9-1.2c.5-.3 1.3-.4 2.3-.4c1 0 1.8.1 2.4.4c.5.3.8.7.8 1.2c0 .5-.3.9-.8 1.2c-.6.2-1.4.4-2.4.4zm0-2.6c-.7 0-1.3.1-1.7.3c-.4.1-.6.4-.6.7c0 .3.2.5.6.7c.4.2 1 .2 1.7.2c.8 0 1.4 0 1.8-.2c.4-.2.6-.4.6-.7c0-.3-.2-.6-.6-.7c-.4-.2-1-.3-1.8-.3zm-4.1 3.2h8.3v.7h-8.3v-.7zm1.8 3.5v.9h5.7v.7h-6.5v-2.2h5.4v-.8h-5.4v-.7h6.2v2.1h-5.4zm17-7.4v6.6h-.9v-6.6h.9zm-2 4.7l-.4.6c-.5-.1-1-.4-1.4-.8c-.4-.3-.7-.8-.9-1.2c-.2.5-.5.9-.9 1.3c-.4.4-.8.7-1.4.9l-.4-.6c.3-.2.6-.3.9-.5c.3-.2.5-.5.8-.7c.2-.3.3-.6.4-.9c.1-.3.2-.6.2-.9v-.5H361v-.7h5v.7h-2.1s.04.48 0 .5c0 .3.1.6.2.9c.1.3.3.5.5.8c.2.2.4.4.7.6c.3.2.6.4.9.5zm-3.1 3.5h5.3v.7h-6.1v-2.9h.8v2.2zm12.5-5.1v2.3h-.8v-5.3h.8v2.3h1.1V56h.9v5.8h-.9v-2.6h-1.1zm-1.2-2.1v.7h-4.6v-.7h1.9v-1h.8v1h1.9zm-.3 2.7c0 .3-.1.5-.2.7c-.1.2-.2.3-.4.5c-.1.1-.4.2-.6.3c-.2.1-.5.1-.8.1c-.3 0-.5 0-.8-.1l-.6-.3c-.2-.2-.3-.3-.4-.5c-.1-.2-.1-.4-.1-.7c0-.2 0-.4.1-.6c.1-.2.2-.4.4-.5l.6-.3c.3-.1.5-.1.8-.1c.3 0 .6 0 .8.1c.2.1.5.2.6.3c.2.1.3.3.4.5c.1.2.2.4.2.6zm-3.2 0c0 .3.1.6.3.7c.3.2.5.3.9.3c.4 0 .7-.1.9-.3c.2-.1.3-.4.3-.7c0-.3-.1-.5-.3-.6c-.2-.2-.5-.3-.9-.3c-.4 0-.6.1-.9.3c-.2.1-.3.3-.3.6zm3.6 2.2c1 0 1.7.1 2.3.4c.5.3.8.7.8 1.2c0 .5-.3.9-.8 1.2c-.6.2-1.3.4-2.3.4c-.9 0-1.7-.2-2.2-.4c-.5-.3-.8-.7-.8-1.2c0-.5.3-.9.8-1.2c.5-.3 1.3-.4 2.2-.4zm0 2.5c.7 0 1.3 0 1.7-.2c.4-.2.6-.4.6-.7c0-.3-.2-.6-.6-.7c-.4-.2-1-.3-1.7-.3c-.7 0-1.2.1-1.6.3c-.4.1-.6.4-.6.7c0 .3.2.5.6.7c.4.2.9.2 1.6.2zm4.2.7l.3-2.1h1l-.7 2.1h-.6z" stroke="none" fill="#111111"/></g><g id="Polygon115850"><path d="m6 38.2v.6H.7v-.6h2.2v-.8h.9v.8h2.2zm1.6 1.7h1.4v.7H7.6v2.3h-.8v-5.4h.8v2.4zm-1.3 1.9v.6c-.5.1-1 .1-1.5.2c-.5 0-1 .1-1.5.1H.6l-.1-.6h2.4v-.6c-.5 0-.9-.1-1.2-.3c-.3-.3-.5-.5-.5-.9c0-.4.2-.7.6-.9c.4-.2.9-.3 1.6-.3c.6 0 1.1.1 1.5.3c.4.2.6.5.6.9c0 .4-.2.6-.5.8c-.3.2-.7.4-1.2.4v.5h1.2c.5-.1.9-.1 1.3-.2zM2 40.3c0 .2.1.4.4.5c.2.1.5.2 1 .2c.4 0 .7-.1.9-.2c.3-.1.4-.3.4-.5c0-.2-.1-.3-.4-.5c-.2-.1-.5-.1-.9-.1c-.5 0-.8 0-1 .1c-.3.2-.4.3-.4.5zm.5 4.9v.8h5.5v.6H1.7v-2h5.1v-.7H1.7v-.6h5.9v1.9H2.5zM16 42.1h2v.6H9.7v-.6h2.1s-.04-1.32 0-1.3c-.8-.3-1.2-.8-1.2-1.4c0-.3.1-.5.3-.7c.1-.2.3-.4.6-.5c.3-.2.6-.3 1-.4c.4-.1.9-.1 1.4-.1c.4 0 .9 0 1.3.1c.4.1.7.2 1 .4c.3.1.5.3.6.5c.2.2.3.4.3.7c0 .3-.1.6-.3.8c-.2.2-.5.4-.8.6c-.05-.03 0 1.3 0 1.3zm-4.5-2.7c0 .3.2.6.6.8c.4.2 1 .3 1.8.3c.7 0 1.3-.1 1.7-.3c.4-.2.6-.5.6-.8c0-.3-.2-.6-.6-.8c-.4-.2-1-.2-1.7-.2c-.8 0-1.4 0-1.8.2c-.4.2-.6.5-.6.8zm1.1 1.6c-.01 0 0 1.1 0 1.1h2.5s.03-1.1 0-1.1c-.2 0-.3.1-.6.1h-1.3c-.2 0-.4-.1-.6-.1zm1.3 2.4c.9 0 1.7.2 2.3.4c.5.3.8.7.8 1.3c0 .5-.3.9-.8 1.2c-.6.2-1.4.4-2.3.4c-1 0-1.8-.2-2.4-.4c-.5-.3-.8-.7-.8-1.2c0-.6.3-1 .8-1.3c.6-.2 1.4-.4 2.4-.4zm0 2.6c.7 0 1.2 0 1.6-.2c.4-.2.6-.4.6-.7c0-.4-.2-.6-.6-.8c-.4-.1-.9-.2-1.6-.2c-.8 0-1.3.1-1.7.2c-.4.2-.6.4-.6.8c0 .3.2.5.6.7c.4.2.9.2 1.7.2zm12.5-8.5v6.9h-.8v-6.9h.8zm-1.6 4.8l.1.6c-.5.1-1 .1-1.5.2c-.5 0-1 0-1.5.1h-2.8l-.2-.7h2.6c.02.01 0-1.3 0-1.3h-1.7v-3.1h4.3v.7h-3.5v1.7h3.6v.7h-1.8s-.04 1.28 0 1.3c.4 0 .8-.1 1.2-.1c.4 0 .8-.1 1.2-.1zm-3.5 3.5h5.4v.7h-6.2v-2.6h.8v1.9zm15.3-4.6v.6h-1.5v4.9h-.8v-9.2h.8v3.7h1.5zm-7.3-2.1v4.6h2.2c.3-.1.6-.1 1-.1c.3-.1.6-.1.9-.2l.1.7c-.3.1-.7.1-1 .2c-.3 0-.7 0-1 .1h-2.3c-.01.03-.7 0-.7 0v-6h4.2v.7h-3.4zm7.8 7v-1h1v1h-1zm6.5-1h2.9v.8h-5v-.6s2.56-2.5 2.6-2.5c.2-.2.3-.4.5-.6c.2-.2.3-.4.4-.6c.2-.1.3-.3.3-.5c.1-.2.1-.4.1-.7c0-.4-.1-.7-.4-.9c-.2-.3-.6-.4-1-.4c-.2 0-.4.1-.5.1c-.2.1-.4.2-.5.3c-.2.2-.3.3-.3.5c-.1.2-.1.4-.1.6l-1-.2l.3-.9c.2-.2.3-.4.6-.6c.2-.2.4-.3.7-.4c.3-.1.6-.2.9-.2c.3 0 .6.1.9.2c.3.1.5.2.7.4c.2.2.4.4.5.6c.1.3.2.6.2.9c0 .3-.1.6-.2.8c0 .2-.2.5-.3.7c-.1.2-.3.4-.5.6c-.2.2-.4.5-.6.7l-2.1 2c.2 0 .3 0 .4-.1h.5zm9-2.9c0 .7 0 1.2-.2 1.7c-.1.5-.3.9-.6 1.2c-.2.4-.5.6-.8.7c-.4.2-.7.3-1.1.3c-.4 0-.8-.1-1.1-.3c-.3-.1-.6-.3-.9-.7c-.2-.3-.4-.7-.6-1.2c-.1-.5-.2-1-.2-1.7c0-.7.1-1.2.2-1.7c.2-.5.4-.9.6-1.2c.3-.3.6-.6.9-.7c.3-.2.7-.3 1.1-.3c.4 0 .7.1 1.1.3c.3.1.6.4.8.7c.3.3.5.7.6 1.2c.2.5.2 1 .2 1.7zm-.9 0c0-.6-.1-1.1-.2-1.5c-.1-.4-.2-.7-.4-.9c-.1-.3-.3-.4-.5-.5c-.3-.1-.5-.2-.7-.2c-.3 0-.5.1-.7.2c-.2.1-.4.2-.6.5c-.1.2-.3.5-.4.9c-.1.4-.1.9-.1 1.5c0 .6 0 1.1.1 1.5c.1.4.3.7.4.9c.2.3.4.5.6.6c.2.1.4.1.7.1c.2 0 .4 0 .7-.1c.2-.1.4-.3.5-.6c.2-.2.3-.5.4-.9c.1-.4.2-.9.2-1.5zm3.6 2.9h3v.8h-5.1v-.6l2.6-2.5l.6-.6c.1-.2.3-.4.4-.6c.1-.1.2-.3.3-.5c0-.2.1-.4.1-.7c0-.4-.2-.7-.4-.9c-.3-.3-.6-.4-1-.4c-.2 0-.4.1-.6.1c-.2.1-.3.2-.5.3c-.1.2-.2.3-.3.5c-.1.2-.1.4-.1.6l-.9-.2c0-.3.1-.6.3-.9c.1-.2.3-.4.5-.6c.2-.2.5-.3.7-.4c.3-.1.6-.2.9-.2c.4 0 .7.1.9.2c.3.1.6.2.8.4c.2.2.3.4.4.6c.2.3.2.6.2.9c0 .3 0 .6-.1.8c-.1.2-.2.5-.3.7c-.2.2-.4.4-.5.6c-.2.2-.4.5-.7.7l-2 2c.1 0 .2 0 .4-.1h.4zm7.2.1h1.4v.7h-4v-.7h1.7s-.04-5.55 0-5.5v-.2l-1.4 1.3l-.5-.6l2-1.8h.8v6.8zm9.2-.9v-3.1h-2.6v-.7h2.6v-1.1h-2.6v-.7h2.6v-1.1h.8v6.7h-.8zm-1.5-2.4l.1.7c-.8.2-1.5.3-2.1.3c-.7 0-1.3.1-2 .1c.01-.03-.7 0-.7 0v-4.8h.9s-.05 4.06 0 4.1c.6 0 1.2-.1 1.8-.1c.6-.1 1.3-.1 2-.3zm-2.7 3.9h5.3v.7h-6.1v-2.8h.8v2.1zm13.6-8.3h.8v9.2h-.8v-9.2zm-1.8 3.6v-3.4h.8v8.5h-.8v-4.4s-1.13-.02-1.1 0c0 .4-.1.8-.2 1.2c-.1.3-.2.7-.4.9c-.2.3-.4.4-.6.6c-.2.1-.5.2-.8.2c-.3 0-.5-.1-.8-.2c-.2-.2-.4-.4-.6-.7c-.2-.3-.3-.6-.4-1c-.1-.4-.1-.8-.1-1.3c0-.5 0-1 .1-1.3c.1-.4.2-.8.4-1c.2-.3.4-.5.6-.7c.3-.1.5-.2.8-.2c.3 0 .6.1.8.2c.2.1.4.3.6.6c.1.2.3.5.4.8c.1.4.1.8.2 1.2h1.1zm-3.1 2.8c.4 0 .7-.2.9-.6c.2-.5.3-1.1.3-1.8c0-.4 0-.7-.1-1c0-.3-.1-.6-.2-.8c-.1-.2-.2-.3-.4-.5c-.1-.1-.3-.1-.5-.1c-.3 0-.6.2-.8.6c-.3.5-.4 1-.4 1.8c0 .7.1 1.3.4 1.8c.2.4.5.6.8.6zm14.5-3.6v.7h-6.2v-3.1h.8v2.4h5.4zm-7.4 1.9h8.3v.7h-8.3v-.7zm1.9 1.6v2h5.5v.7h-6.3v-2.7h.8zm14.8-5.4v.7h-5.2v-.7h2.2v-.9h.8v.9h2.2zm1.7 2.3h1.3v.7h-1.3v3.3h-.8v-7.2h.8v3.2zm-1.4 2l.1.6c-.5 0-1 .1-1.5.2c-.5 0-1 .1-1.5.1H96c-.5 0-.9.1-1.3.1l-.1-.7h1.1c.4 0 .9 0 1.3-.1v-.7c-.5 0-.9-.2-1.3-.4c-.3-.2-.4-.6-.4-1c0-.2 0-.4.1-.5c.1-.2.3-.4.5-.5l.6-.3c.3 0 .6-.1.9-.1c.3 0 .6.1.9.1c.3.1.5.2.7.3c.2.1.3.3.4.5c.1.1.2.3.2.5c0 .4-.2.8-.5 1c-.3.2-.7.4-1.3.4v.7c.5 0 .9-.1 1.3-.1c.4 0 .8-.1 1.2-.1zm-4.2-1.9c0 .3.1.5.3.6c.3.2.6.3 1 .3c.4 0 .8-.1 1-.3c.2-.1.4-.3.4-.6c0-.2-.2-.4-.4-.5c-.2-.2-.6-.3-1-.3c-.4 0-.7.1-1 .3c-.2.1-.3.3-.3.5zm.6 3.4v1.6h5.3v.7h-6.1v-2.3h.8zm13.8-4.3h-2.3c-.6 1.5-1.9 2.5-4 3.1l-.3-.6c1.1-.4 2-.8 2.6-1.4c.7-.6 1-1.3 1.1-2.1h-3.2v-.7s4.11.03 4.1 0v.5c0 .2-.1.4-.1.5c0 .02 2.1 0 2.1 0v-1.6h.8v5.4h-.8v-1.2h-2.4v-.7h2.4v-1.2zm-2.2 3.2c.5 0 .9.1 1.3.1c.4.1.7.2.9.4c.3.1.5.3.6.5c.2.3.3.5.3.8c0 .3-.1.5-.3.7c-.1.2-.3.4-.6.6c-.2.1-.5.2-.9.3c-.4.1-.8.1-1.3.1c-.4 0-.8 0-1.2-.1c-.4-.1-.7-.2-1-.3l-.6-.6c-.1-.2-.2-.4-.2-.7c0-.3.1-.5.2-.8c.2-.2.4-.4.6-.5c.3-.2.6-.3 1-.4c.4 0 .8-.1 1.2-.1zm0 2.9c.7 0 1.3-.1 1.6-.3c.4-.2.6-.5.6-.8c0-.4-.2-.6-.6-.8c-.3-.2-.9-.3-1.6-.3c-.6 0-1.2.1-1.6.3c-.4.2-.6.4-.6.8c0 .3.2.6.6.8c.4.2 1 .3 1.6.3zm11.9-8v3.2H114V38h6.2zm-.9 2.5v-1.9h-4.5v1.9h4.5zm-6.4 1.7h8.4v.7h-3.7v1.8h-.9v-1.8h-3.8v-.7zm1.9 1.7v1.9h5.5v.7H114v-2.6h.8zm14.3-6.4h.8v9.2h-.8v-9.2zm-1.8 3.3v-3.1h.8v8.5h-.8v-4.7h-1.5v-.7h1.5zm-2.5-1.5s.03.82 0 .8c0 .4.1.8.2 1.2c0 .4.2.8.3 1.1c.2.3.4.7.6.9c.3.3.6.5.9.7l-.5.6c-.5-.2-.9-.6-1.2-1.1c-.3-.4-.5-.9-.7-1.5c-.1.6-.4 1.2-.7 1.7c-.3.5-.7.9-1.2 1.2l-.5-.7c.4-.2.6-.4.9-.7c.2-.3.4-.6.6-1c.2-.3.3-.7.4-1.1c.1-.4.1-.9.1-1.3c.02.02 0-.8 0-.8h-1.7v-.7h4.2v.7h-1.7zm15.7 1.2h1.3v.7h-1.3v3.2h-.8v-6.9h.8v3zm-2.3.9h-.8c.1-.6.2-1 .2-1.4v-1.1c.03.04-3.7 0-3.7 0v-.6h4.5s.04.43 0 .4v1.2c0 .4-.1.9-.2 1.5zm.9.6v.6c-.4.1-.9.2-1.4.2c-.5.1-1 .1-1.5.1c-.5 0-1 .1-1.5.1h-1.3l-.1-.7h2c-.02-.03 0-2 0-2h.8v1.9h1.5c.5-.1 1-.1 1.5-.2zm-3.5 1.8v2h5.2v.7h-6.1v-2.7h.9zm13.7.5v-2.5h-1.8v-.7h1.8v-1.3h-1.8v-.7h1.8v-1.5h.8v6.7h-.8zm-1.9-2.2l.1.7c-.3.1-.6.1-.8.1c-.3.1-.6.1-.9.1h-2.2c.03.05-.6 0-.6 0v-2.8h3.1v-1.3h-3.2v-.7h4v2.7h-3.1v1.5h1.1c.3-.1.6-.1.9-.1c.3 0 .6 0 .8-.1c.3 0 .6 0 .8-.1zm-2.4 3.7h5.4v.6h-6.2v-2.6h.8v2zm16.7-3.8l-.3.7l-1.1-.3l-.9-.6c-.3-.2-.6-.5-.9-.7c-.2-.3-.4-.6-.5-.9l-.6.9c-.3.2-.6.5-.9.7l-.9.6l-1.1.3l-.3-.7c.4-.1.8-.2 1.2-.4c.4-.2.7-.4 1.1-.7c.3-.3.5-.6.7-.9c.2-.4.3-.8.3-1.1c.02-.04 0-.7 0-.7h.9v.7c0 .3.1.7.3 1.1c.2.3.4.6.8.9c.3.3.6.5 1 .7c.4.2.8.3 1.2.4zm-3.3 2.8h3.7v.7h-8.3v-.7h3.7v-2.2h.9v2.2zm11.3-2.5v-1.5h-1.8v-.7h1.8v-1h-1.8v-.6h1.8v-.9h.9v4.7h-.9zm-1.3-.8l-.5.7c-.5-.2-.9-.5-1.3-.8c-.4-.4-.7-.8-.9-1.3c-.2.5-.5 1-.9 1.4c-.4.4-.8.7-1.3.9l-.5-.7c.4-.1.7-.3 1-.5c.2-.2.5-.4.7-.7c.2-.2.3-.5.4-.8c.1-.3.2-.6.2-1v-.9h.8s.03.93 0 .9c0 .3.1.6.2.9c.1.3.3.6.5.8c.2.3.4.5.7.7c.2.2.5.3.9.4zm-2.9 4.4h5.4v.7h-6.2v-2.3h5v-.9h-5v-.6h5.9v2.1h-5.1v1zm14.4-8.3v6.9h-.8v-6.9h.8zm-3.7 3.3v1.9h-3.6v-4.5h.8v1.5h2v-1.5h.8v1.9h1.2v-2.5h.8v6.5h-.8v-3.3h-1.2zm-.8 1.2v-1.6h-2v1.6h2zm-.6 3.7h5.4v.7H174v-2.9h.8v2.2zm13.3-8.3h.8v9.2h-.8v-4.8h-2v-.7h2v-3.7zm-3.6 2.3s.05.7 0 .7c0 .4.1.8.2 1.1c.1.4.3.7.5 1.1c.2.3.5.6.8.8c.2.3.6.5.9.6l-.5.7c-.5-.3-1-.6-1.4-1.1c-.4-.5-.7-1-.9-1.6c-.2.6-.5 1.2-.8 1.7c-.4.5-.9.9-1.4 1.1l-.5-.6c.3-.2.6-.4.9-.7c.3-.2.6-.5.8-.9c.2-.3.3-.6.4-1c.2-.4.2-.8.2-1.2c.02 0 0-.7 0-.7h-2v-.7h2v-1.4h.8v1.4h2.1v.7h-2.1zm9.9-.5s-.35 1.94-.3 1.9c.3 0 .6-.1 1-.1c.4 0 .8.1 1.1.2c.3.1.5.3.7.5c.2.2.4.4.5.7c.1.3.2.6.2.9c0 .4-.1.8-.3 1.1c-.1.3-.3.6-.5.8c-.3.2-.6.4-.9.5c-.3.2-.7.2-1.1.2c-.4 0-.8-.1-1.2-.2l-.9-.6l.5-.7c.3.2.5.4.8.5c.3.1.6.2.9.2c.2 0 .5 0 .7-.1c.2-.1.4-.2.6-.4c.1-.1.2-.3.3-.5c.1-.2.2-.5.2-.8c0-.4-.2-.8-.5-1.1c-.3-.3-.7-.4-1.2-.4c-.2 0-.4 0-.6.1c-.2 0-.5.1-.7.1c.03.04-.6-.1-.6-.1l.6-3.6h3.6v.9h-2.9zm11.1-1.8h.8v9.2h-.8v-4.8h-1.3v4.3h-.8v-8.4h.8v3.4h1.3v-3.7zm-6.6 1.2s3.54.02 3.5 0c0 .6 0 1.2-.1 1.8c-.1.5-.3 1-.6 1.6c-.3.5-.6 1-1.1 1.4c-.4.5-.9.9-1.6 1.2l-.5-.6c.6-.3 1-.6 1.4-.9c.4-.4.7-.8.9-1.2c.3-.4.4-.8.6-1.2c.1-.5.2-.9.2-1.4h-2.7v-.7zm17.6-1.1h.8v5.4h-.8v-5.4zm-1.1 3.9l.1.7c-.3 0-.7.1-1 .1c-.3 0-.6.1-1 .1H211c.05.05-.7 0-.7 0v-4.3h4.4v.7h-3.6v1.1h3.3v.7h-3.3s.04 1.17 0 1.2h1.3c.4 0 .8-.1 1.1-.1h1c.3-.1.6-.1.9-.2zm-4 5.1v-3.1h5.9v3.1h-5.9zm.8-2.5v1.8h4.3v-1.8h-4.3zm13.7-6.6h.8v9.2h-.8v-9.2zm-1.8 3.6v-3.4h.8v8.5h-.8v-4.4s-1.13-.02-1.1 0c0 .4-.1.8-.2 1.2c-.1.3-.2.7-.4.9c-.2.3-.4.4-.6.6c-.2.1-.5.2-.8.2c-.3 0-.5-.1-.8-.2c-.2-.2-.4-.4-.6-.7c-.2-.3-.3-.6-.4-1c-.1-.4-.1-.8-.1-1.3c0-.5 0-1 .1-1.3c.1-.4.2-.8.4-1c.2-.3.4-.5.6-.7c.3-.1.5-.2.8-.2c.3 0 .6.1.8.2c.2.1.4.3.6.6c.1.2.3.5.4.8c.1.4.1.8.2 1.2h1.1zm-3.1 2.8c.4 0 .7-.2.9-.6c.2-.5.3-1.1.3-1.8c0-.4 0-.7-.1-1c0-.3-.1-.6-.2-.8c-.1-.2-.2-.3-.4-.5c-.1-.1-.3-.1-.5-.1c-.3 0-.6.2-.8.6c-.3.5-.4 1-.4 1.8c0 .7.1 1.3.4 1.8c.2.4.5.6.8.6zm10-2.3l-.3-.7c.4 0 .8-.1 1.2-.2c.4-.1.7-.2 1-.4c.3-.1.5-.3.7-.5c.2-.2.3-.4.3-.7h-2.8v-.7h2.8v-.9h.9v.9h2.8v.7h-2.8c0 .3.1.5.3.7c.2.2.4.4.7.5c.3.2.6.3 1 .4c.4.1.8.2 1.2.2l-.2.7c-.4 0-.8-.1-1.1-.2c-.4-.1-.7-.2-1-.3c-.3-.2-.6-.3-.8-.5c-.2-.2-.4-.4-.5-.6l-.6.6c-.2.2-.5.3-.8.5l-.9.3c-.4.1-.8.2-1.1.2zm3.8.7h3.7v.7h-8.3v-.7h3.7v-1.1h.9v1.1zm-.4 1.3c1 0 1.7.2 2.3.4c.5.3.8.7.8 1.2c0 .5-.3.8-.8 1.1c-.6.3-1.3.4-2.3.4c-1.1 0-1.8-.1-2.4-.4c-.5-.3-.8-.6-.8-1.1c0-.5.3-.9.8-1.2c.6-.2 1.3-.4 2.4-.4zm0 2.4c.7 0 1.2 0 1.6-.2c.4-.1.6-.4.6-.6c0-.3-.2-.5-.6-.7c-.4-.2-.9-.2-1.6-.2c-.8 0-1.4 0-1.7.2c-.4.2-.6.4-.6.7c0 .2.2.5.6.6c.3.2.9.2 1.7.2zm9.2-.9h2.9v.8h-5v-.6s2.56-2.5 2.6-2.5c.2-.2.3-.4.5-.6c.2-.2.3-.4.4-.6c.2-.1.3-.3.3-.5c.1-.2.1-.4.1-.7c0-.4-.1-.7-.4-.9c-.2-.3-.6-.4-1-.4c-.2 0-.4.1-.5.1c-.2.1-.4.2-.5.3c-.2.2-.3.3-.3.5c-.1.2-.1.4-.1.6l-1-.2l.3-.9c.2-.2.3-.4.6-.6c.2-.2.4-.3.7-.4c.3-.1.6-.2.9-.2c.3 0 .6.1.9.2c.3.1.5.2.7.4c.2.2.4.4.5.6c.1.3.2.6.2.9c0 .3-.1.6-.2.8c0 .2-.2.5-.3.7c-.1.2-.3.4-.5.6c-.2.2-.4.5-.6.7l-2.1 2c.2 0 .3 0 .4-.1h.5zm10.5-7.5h.8v5.3h-.8v-2.3s-1.92-.02-1.9 0c-.1.3-.1.5-.3.7c-.1.3-.3.5-.5.6c-.2.2-.4.3-.7.4c-.2.1-.5.2-.8.2c-.4 0-.7-.1-1-.2c-.3-.1-.5-.3-.7-.5c-.2-.2-.4-.4-.5-.7c-.1-.2-.2-.5-.2-.9c0-.3.1-.6.2-.8c.1-.3.3-.5.5-.7c.2-.2.4-.4.7-.5c.3-.1.6-.1 1-.1c.3 0 .5 0 .8.1c.3.1.5.2.7.4c.2.1.4.3.5.5c.1.3.2.5.3.8h1.9v-2.3zm-4.2 4.1c.2 0 .4 0 .6-.1c.2 0 .3-.1.5-.3c.1-.1.2-.3.3-.5c.1-.1.1-.3.1-.6c0-.2 0-.4-.1-.6c-.1-.1-.2-.3-.3-.4c-.2-.1-.3-.2-.5-.3c-.2-.1-.4-.1-.6-.1c-.3 0-.5 0-.7.1c-.2.1-.3.2-.5.3c-.1.1-.2.3-.3.4c-.1.2-.1.4-.1.6c0 .3 0 .5.1.6c.1.2.2.4.3.5c.2.2.3.3.5.3c.2.1.4.1.7.1zm-1.1 2.4v-.7h6.1v3.3h-.8v-2.6h-5.3zm14.6-1.2h1.9v-5.4h.8v7h-.8v-.9h-1.9v-.7zm-1.9-1.8c-.3 0-.6 0-.9-.1c-.2-.1-.5-.2-.7-.3c-.2-.2-.3-.3-.4-.5c-.2-.2-.2-.5-.2-.7c0-.2 0-.5.2-.7c.1-.2.2-.3.4-.5c.2-.1.5-.2.7-.3c.3-.1.6-.1.9-.1c.4 0 .7 0 1 .1c.2.1.5.2.7.3c.2.2.3.3.4.5c.1.2.2.5.2.7c0 .2-.1.5-.2.7c-.1.2-.2.3-.4.5c-.2.1-.5.2-.7.3c-.3.1-.6.1-1 .1zm0-2.6c-.4 0-.7.1-1 .3c-.3.2-.4.4-.4.7c0 .3.1.5.4.7c.3.2.6.3 1 .3c.5 0 .8-.1 1.1-.3c.3-.2.4-.4.4-.7c0-.3-.1-.5-.4-.7c-.3-.2-.6-.3-1.1-.3zm-.3 5.7s.02-1.78 0-1.8c-.4 0-.9.1-1.3.1h-1.2l-.1-.7h1.3c.5 0 1 0 1.5-.1h1.6c.5-.1 1-.1 1.5-.2v.6c-.4.1-.8.1-1.2.2c-.4 0-.8 0-1.2.1c-.04-.02 0 1.8 0 1.8h-.9zm-.5 1.6h5.6v.7h-6.4v-2.7h.8v2zm16.3-5.9h1.3v.7H277v2.5h-.9v-5.5h.9v2.3zm-1.8 1.9l-.5.7c-.5-.2-.9-.5-1.3-.8c-.4-.4-.7-.8-.9-1.3c-.1.6-.4 1-.8 1.4c-.4.4-.9.7-1.4 1l-.5-.7c.4-.1.7-.3 1-.5c.3-.2.5-.5.7-.7c.2-.3.4-.6.5-.9c.1-.4.1-.7.1-1.1c.01.05 0-.9 0-.9h.9s-.05 1.02 0 1c0 .3 0 .6.1.9c.1.3.3.6.5.8c.2.3.4.5.7.7c.2.2.5.3.9.4zm-1.1 1.5c.4 0 .9.1 1.2.2c.4 0 .7.1 1 .3c.2.1.4.3.6.5c.1.2.2.5.2.7c0 .3-.1.5-.2.7c-.2.2-.4.4-.6.5c-.3.2-.6.3-1 .4c-.3 0-.8.1-1.2.1c-1 0-1.7-.2-2.2-.5c-.6-.2-.8-.7-.8-1.2c0-.2 0-.5.2-.7c.1-.2.3-.4.6-.5c.2-.2.5-.3.9-.3c.4-.1.8-.2 1.3-.2zm0 2.7c.7 0 1.2-.1 1.6-.2c.4-.2.5-.5.5-.8c0-.3-.1-.6-.5-.7c-.4-.2-.9-.3-1.6-.3c-.7 0-1.2.1-1.6.3c-.4.1-.6.4-.6.7c0 .3.2.6.6.8c.4.1.9.2 1.6.2zm12.1-6.1h1.3v.7h-1.3v2.4h-.9v-5.5h.9v2.4zm-1.8 1.4l.1.6c-.4.1-.7.1-1 .2c-.3 0-.6.1-.9.1h-1.1c-.4 0-.8.1-1.3.1c-.02-.05-.7 0-.7 0v-4.1h4v.7h-3.2v2.7h1.2c.4-.1.7-.1 1.1-.1c.3 0 .6-.1.9-.1c.3 0 .6-.1.9-.1zm-1.1 1.9c.4 0 .8 0 1.2.1c.4.1.7.2 1 .3l.6.6c.1.2.2.4.2.7c0 .3-.1.5-.2.8c-.2.2-.4.4-.6.5c-.3.2-.6.3-1 .4c-.4 0-.8.1-1.2.1c-.5 0-.9-.1-1.3-.1c-.4-.1-.7-.2-1-.4c-.2-.1-.4-.3-.6-.5c-.1-.3-.2-.5-.2-.8c0-.3.1-.5.2-.7l.6-.6c.3-.1.6-.2 1-.3c.4-.1.8-.1 1.3-.1zm0 2.8c.6 0 1.2-.1 1.6-.3c.3-.2.5-.4.5-.8c0-.3-.2-.6-.5-.8c-.4-.2-1-.3-1.6-.3c-.7 0-1.3.1-1.7.3c-.3.2-.5.5-.5.8c0 .4.2.6.5.8c.4.2 1 .3 1.7.3zm11.6-8.5h.8v9.2h-.8v-9.2zm-3.7.7c.4 0 .7.1 1 .2c.3.1.6.2.8.4c.2.2.4.4.5.7c.1.3.2.5.2.9c0 .3-.1.6-.2.8c-.1.3-.3.5-.5.7c-.2.2-.5.4-.8.5c-.3.1-.6.1-1 .1c-.3 0-.7 0-1-.1c-.3-.1-.5-.3-.7-.5c-.3-.2-.4-.4-.6-.7c-.1-.2-.1-.5-.1-.8c0-.4 0-.6.1-.9c.2-.3.3-.5.6-.7c.2-.2.4-.3.7-.4c.3-.1.7-.2 1-.2zm0 .7c-.2 0-.4.1-.6.1c-.3.1-.4.2-.6.3c-.1.2-.2.3-.3.5c-.1.2-.1.3-.1.6c0 .2 0 .4.1.5c.1.2.2.4.3.5c.2.1.3.2.6.3c.2.1.4.1.6.1c.2 0 .5 0 .7-.1c.2-.1.3-.2.5-.3c.1-.1.2-.3.3-.5c.1-.1.1-.3.1-.5c0-.3 0-.4-.1-.6c-.1-.2-.2-.3-.3-.5c-.2-.1-.3-.2-.5-.3c-.2 0-.5-.1-.7-.1zm-2.8 5.8l-.1-.7h1.4c.4 0 .9 0 1.5-.1h1.5c.5-.1 1.1-.1 1.6-.2v.6c-.5.1-1 .2-1.5.2c-.6.1-1.1.1-1.6.1c-.5.1-1 .1-1.5.1h-1.3zm17.8-7.1h.8v9.1h-.8v-9.1zm-3.4 1.6s-.03 1.14 0 1.1c0 .4 0 .8.2 1.2c.1.4.3.7.5 1.1c.2.3.5.6.8.8c.3.3.6.5.9.6l-.5.7c-.5-.2-1-.6-1.4-1.1c-.4-.5-.7-1.1-1-1.7c-.1.3-.2.7-.4 1c-.1.3-.3.6-.5.8c-.2.3-.4.5-.7.7c-.2.2-.5.4-.7.5l-.5-.6c.3-.2.6-.4.9-.7c.3-.3.6-.6.8-.9c.2-.4.4-.8.5-1.2c.2-.4.2-.8.2-1.2c.03.04 0-1.1 0-1.1h-2.1v-.7h5.1v.7h-2.1zm10.7 3.7h1.8v-5.4h.9v7h-.9v-.9h-1.8v-.7zm-1.9-1.8c-.3 0-.6 0-.9-.1c-.3-.1-.5-.2-.7-.3c-.2-.2-.4-.3-.5-.5c-.1-.2-.1-.5-.1-.7c0-.2 0-.5.1-.7c.1-.2.3-.3.5-.5c.2-.1.4-.2.7-.3c.3-.1.6-.1.9-.1c.3 0 .6 0 .9.1c.3.1.5.2.7.3c.2.2.4.3.5.5c.1.2.2.5.2.7c0 .2-.1.5-.2.7c-.1.2-.3.3-.5.5c-.2.1-.4.2-.7.3c-.3.1-.6.1-.9.1zm0-2.6c-.4 0-.8.1-1 .3c-.3.2-.5.4-.5.7c0 .3.2.5.5.7c.2.2.6.3 1 .3c.4 0 .8-.1 1.1-.3c.2-.2.4-.4.4-.7c0-.3-.2-.5-.4-.7c-.3-.2-.7-.3-1.1-.3zm-.3 5.7s-.02-1.78 0-1.8c-.5 0-.9.1-1.3.1h-1.3l-.1-.7h1.4c.5 0 1 0 1.5-.1h1.5c.5-.1 1-.1 1.5-.2l.1.6c-.4.1-.8.1-1.2.2c-.5 0-.9 0-1.3.1c.02-.02 0 1.8 0 1.8h-.8zm-.5 1.6h5.6v.7h-6.5v-2.7h.9v2zm14-4.4h1.4v.7h-8.3v-.7h6.1c.1-.6.2-1.1.2-1.5c.1-.4.1-.8.1-1.2h-5.4v-.7h6.2v1.9c-.1.4-.1.9-.3 1.5zm-5.9 5.2v-3.3h6.2v3.3h-6.2zm.8-2.6v1.9h4.6V44h-4.6zm15.8-2.6v.7h-1.4v4.6h-.9v-9.2h.9v3.9h1.4zm-3.7 1.3l-.8-.1c.1-.8.2-1.4.2-2c0-.5.1-1 .1-1.4c-.05.02-3.9 0-3.9 0v-.7h4.7s-.03.54 0 .5c0 .4 0 .9-.1 1.5c0 .6-.1 1.3-.2 2.2zm-2.1-1.5v2.7h1.5c.5-.1 1-.1 1.5-.2v.6c-.5.1-1 .2-1.4.2c-.5.1-1 .1-1.5.1c-.5.1-1 .1-1.5.1H327l-.1-.7h2v-2.8h.8zm15.3-1.3h-2.3c-.6 1.5-1.9 2.5-3.9 3.1l-.4-.6c1.1-.4 2-.8 2.6-1.4c.7-.6 1-1.3 1.1-2.1h-3.2v-.7s4.12.03 4.1 0v.5c0 .2 0 .4-.1.5c.02.02 2.1 0 2.1 0v-1.6h.8v5.4h-.8v-1.2h-2.4v-.7h2.4v-1.2zm-2.1 3.2c.4 0 .8.1 1.2.1c.4.1.7.2 1 .4c.2.1.4.3.6.5c.1.3.2.5.2.8c0 .3-.1.5-.2.7l-.6.6c-.3.1-.6.2-1 .3c-.4.1-.8.1-1.2.1c-.5 0-.9 0-1.3-.1c-.4-.1-.7-.2-1-.3l-.6-.6c-.1-.2-.2-.4-.2-.7c0-.3.1-.5.2-.8c.2-.2.4-.4.6-.5c.3-.2.6-.3 1-.4c.4 0 .8-.1 1.3-.1zm0 2.9c.6 0 1.2-.1 1.6-.3c.4-.2.6-.5.6-.8c0-.4-.2-.6-.6-.8c-.4-.2-1-.3-1.6-.3c-.7 0-1.3.1-1.7.3c-.4.2-.6.4-.6.8c0 .3.2.6.6.8c.4.2 1 .3 1.7.3zm11.3-4.3s-2.37-.05-2.4 0c-.2.2-.4.4-.8.5c-.3.2-.6.2-1 .2c-.4 0-.7 0-1-.1c-.3-.1-.5-.3-.7-.5c-.2-.2-.4-.4-.5-.7c-.1-.2-.2-.5-.2-.8c0-.4.1-.7.2-.9c.1-.3.3-.5.5-.7c.2-.2.4-.3.7-.5c.3-.1.6-.1 1-.1c.4 0 .7.1 1 .2c.4.1.6.3.8.6c.03-.04 2.4 0 2.4 0v-1.4h.8v5.5h-.8v-1.3zm-5.8-1.4c0 .2.1.4.1.5c.1.2.2.4.4.5c.1.1.3.2.5.3c.1.1.4.1.6.1c.2 0 .4 0 .6-.1c.2-.1.4-.2.5-.3c.1-.1.2-.3.3-.5c.1-.1.1-.3.1-.5c0-.3 0-.5-.1-.6c-.1-.2-.2-.4-.3-.5c-.1-.1-.3-.2-.5-.3c-.2-.1-.4-.1-.6-.1c-.2 0-.5 0-.6.1c-.2.1-.4.2-.5.3c-.2.1-.3.3-.4.5c0 .1-.1.3-.1.6zm5.8-.8s-1.99.04-2 0c.1.3.1.5.1.8c0 .2 0 .4-.1.7c0-.03 2 0 2 0v-1.5zm-2.2 3.7c.5 0 .9 0 1.3.1c.3.1.7.2.9.3c.3.2.5.4.6.6c.2.2.3.4.3.7c0 .3-.1.6-.3.8c-.1.2-.3.4-.6.5c-.2.2-.6.3-.9.4c-.4 0-.8.1-1.3.1c-.5 0-.9-.1-1.3-.1c-.3-.1-.7-.2-.9-.4c-.3-.1-.5-.3-.6-.5c-.2-.2-.2-.5-.2-.8c0-.3 0-.5.2-.7c.1-.2.3-.4.6-.6c.2-.1.6-.2.9-.3c.4-.1.8-.1 1.3-.1zm0 2.8c.7 0 1.2-.1 1.6-.3c.4-.2.6-.4.6-.8c0-.3-.2-.6-.6-.8c-.4-.2-.9-.3-1.6-.3c-.7 0-1.3.1-1.6.3c-.4.2-.6.5-.6.8c0 .4.2.6.6.8c.3.2.9.3 1.6.3z" stroke="none" fill="#111111"/></g><g id="Polygon115849"><path d="m7.5 19h.8v9.2h-.8v-4.6H6.3v4.1h-.8v-8.5h.8v3.7h1.2V19zm-4.3.3v1.3h1.9v.7H.5v-.7h1.9v-1.3h.8zm-.4 2.6c.3 0 .6 0 .8.1c.2.2.4.3.6.5c.2.2.3.4.4.6c.1.3.2.6.2.9c0 .3-.1.6-.2.8c-.1.3-.2.5-.4.7c-.2.2-.4.3-.6.4c-.2.1-.5.2-.8.2c-.3 0-.5-.1-.8-.2c-.2-.1-.4-.2-.6-.4c-.2-.2-.3-.4-.4-.7c-.1-.2-.2-.5-.2-.8c0-.3.1-.6.2-.9c.1-.2.2-.4.4-.6c.2-.2.4-.3.6-.5c.3-.1.5-.1.8-.1zm0 3.5c.4 0 .6-.2.9-.4c.2-.3.3-.6.3-1c0-.2 0-.4-.1-.6c0-.1-.1-.3-.2-.4c-.1-.1-.3-.2-.4-.3c-.2-.1-.3-.1-.5-.1c-.4 0-.7.1-.9.4c-.2.2-.3.6-.3 1c0 .4.1.7.3 1c.3.2.6.4.9.4zm14-4h1.4v.7h-1.4v2.4h-.8V19h.8v2.4zM15 22.8l.1.6c-.3.1-.6.1-.9.2c-.3 0-.6.1-1 .1h-1.1c-.3 0-.8.1-1.3.1c.04-.05-.7 0-.7 0v-4.1h4.1v.7H11s-.05 2.67 0 2.7h1.2c.4-.1.7-.1 1-.1c.3 0 .6-.1.9-.1c.3 0 .6-.1.9-.1zm-1.1 1.9c.5 0 .9 0 1.3.1l.9.3c.3.2.5.4.6.6c.2.2.2.4.2.7c0 .3 0 .5-.2.8c-.1.2-.3.4-.6.5c-.3.2-.6.3-.9.4c-.4 0-.8.1-1.3.1c-.4 0-.9-.1-1.2-.1c-.4-.1-.7-.2-1-.4c-.3-.1-.5-.3-.6-.5c-.1-.3-.2-.5-.2-.8c0-.3.1-.5.2-.7c.1-.2.3-.4.6-.6c.3-.1.6-.2 1-.3c.3-.1.8-.1 1.2-.1zm0 2.8c.7 0 1.2-.1 1.6-.3c.4-.2.6-.4.6-.8c0-.3-.2-.6-.6-.8c-.4-.2-.9-.3-1.6-.3c-.7 0-1.2.1-1.6.3c-.4.2-.6.5-.6.8c0 .4.2.6.6.8c.4.2.9.3 1.6.3zM27.7 19h.8v9.2h-.8V19zm-6.2 1s4.31.03 4.3 0c0 .7-.1 1.3-.2 1.9c-.2.7-.4 1.2-.8 1.8c-.3.5-.8 1-1.3 1.5c-.5.5-1.2.9-1.9 1.3l-.5-.7c1.2-.6 2.2-1.3 2.8-2.2c.6-.8 1-1.8 1.1-2.9h-3.5v-.7zm15.6 2.9h1.4v.7h-8.3v-.7h6.1c.1-.6.2-1.1.2-1.5c.1-.4.1-.8.1-1.2h-5.4v-.7h6.2v1.9c-.1.4-.1.9-.3 1.5zm-5.9 5.2v-3.3h6.2v3.3h-6.2zm.8-2.6v1.9h4.6v-1.9H32zM43.5 23c-.5 0-1 0-1.4-.1c-.3-.1-.7-.2-1-.4c-.3-.1-.5-.3-.6-.6c-.2-.2-.2-.4-.2-.7c0-.3 0-.6.2-.8c.1-.2.3-.4.6-.6l1-.3c.4-.1.9-.1 1.4-.1c.5 0 .9 0 1.3.1c.4.1.7.2 1 .3c.3.2.5.4.7.6c.1.2.2.5.2.8c0 .3-.1.5-.2.7c-.2.3-.4.5-.7.6c-.3.2-.6.3-1 .4c-.4.1-.8.1-1.3.1zm0-3c-.7 0-1.3.1-1.7.3c-.5.2-.7.5-.7.9c0 .3.2.6.7.8c.4.2 1 .3 1.7.3c.7 0 1.3-.1 1.7-.3c.4-.2.6-.5.6-.8c0-.4-.2-.7-.6-.9c-.4-.2-1-.3-1.7-.3zm-4.2 3.9h8.3v.6h-8.3v-.6zm1.9 1.4v2h5.5v.7h-6.3v-2.7h.8zm17.9-2.5v.6h-1.5v4.8h-.8v-9.1h.8v3.7h1.5zm-5.4-3s-.03 1.68 0 1.7c0 .4 0 .8.2 1.2c.1.4.2.7.5 1.1c.2.3.4.7.7.9c.3.3.6.5.9.7l-.5.7c-.5-.3-1-.7-1.3-1.2c-.4-.5-.7-1-.9-1.7c-.2.7-.5 1.3-.9 1.8c-.4.5-.9 1-1.4 1.2l-.5-.6c.3-.2.6-.4.9-.7c.3-.3.6-.6.8-1c.2-.4.3-.8.5-1.2c.1-.4.1-.8.1-1.2c.05-.02 0-1.7 0-1.7h.9zm11.9.4v.6H60v-.6h2.4v-1.1h.8v1.1h2.4zm.8-1.1h.8v9.1h-.8v-9.1zm-3.2 5.6v1c.5 0 .9-.1 1.3-.1c.5 0 .9-.1 1.3-.1l.1.6c-.5.1-1 .1-1.6.2c-.5 0-1 .1-1.5.1h-1.5c-.5.1-.9.1-1.3.1l-.2-.7c.4 0 .8-.1 1.3-.1h1.3v-1c-.6 0-1-.2-1.3-.5c-.3-.3-.5-.7-.5-1.2c0-.2.1-.4.2-.6c.1-.3.2-.4.4-.6c.2-.1.4-.2.7-.3c.3-.1.6-.1.9-.1c.3 0 .6 0 .9.1c.3.1.5.2.7.3c.2.2.3.3.4.6c.2.2.2.4.2.6c0 .5-.2.9-.5 1.2c-.3.3-.7.5-1.3.5zM61.4 23c0 .4.1.6.4.8c.2.2.6.3 1 .3c.4 0 .8-.1 1-.3c.3-.2.4-.4.4-.8c0-.3-.1-.5-.4-.7c-.2-.2-.6-.3-1-.3c-.4 0-.8.1-1 .3c-.3.2-.4.4-.4.7zm14.8-3.5v3.2H70v-3.2h6.2zm-.9 2.5v-1.9h-4.5v1.9h4.5zm-6.4 1.7h8.4v.7h-3.7v1.8h-.9v-1.8h-3.8v-.7zm1.9 1.7v1.9h5.5v.7H70v-2.6h.8zM85.1 19h.8v9.2h-.8V19zm-1.8 3.3v-3.1h.8v8.5h-.8V23h-1.5v-.7h1.5zm-2.5-1.5s.02.82 0 .8c0 .4.1.8.2 1.2c0 .4.2.8.3 1.1c.2.3.4.7.6.9c.3.3.6.5.9.7l-.5.6c-.5-.2-.9-.6-1.2-1.1c-.3-.4-.5-.9-.7-1.5c-.1.6-.4 1.2-.7 1.7c-.3.5-.7.9-1.2 1.2l-.5-.7c.3-.2.6-.4.9-.7c.2-.3.4-.6.6-1c.2-.3.3-.7.4-1.1c.1-.4.1-.9.1-1.3c.02.02 0-.8 0-.8h-1.7v-.7h4.2v.7h-1.7zM96.3 19h.9v9.2h-.9v-4.6h-1.1v4.1h-.8v-8.5h.8v3.7h1.1V19zm-4.2.3v1.3h1.8v.7h-4.5v-.7h1.8v-1.3h.9zm-.4 2.6c.3 0 .5 0 .8.1c.2.2.4.3.6.5c.1.2.3.4.4.6c.1.3.1.6.1.9c0 .3 0 .6-.1.8c-.1.3-.3.5-.4.7c-.2.2-.4.3-.6.4c-.3.1-.5.2-.8.2c-.3 0-.6-.1-.8-.2c-.3-.1-.5-.2-.6-.4c-.2-.2-.3-.4-.4-.7c-.1-.2-.2-.5-.2-.8c0-.3.1-.6.2-.9c.1-.2.2-.4.4-.6c.1-.2.3-.3.6-.5c.2-.1.5-.1.8-.1zm0 3.5c.3 0 .6-.2.8-.4c.3-.3.4-.6.4-1c0-.2 0-.4-.1-.6c-.1-.1-.2-.3-.3-.4l-.3-.3c-.2-.1-.4-.1-.5-.1c-.4 0-.7.1-.9.4c-.2.2-.3.6-.3 1c0 .4.1.7.3 1c.2.2.5.4.9.4zm13.6-4.4s-2.28.02-2.3 0c-.3.7-.7 1.3-1.4 1.8c-.7.5-1.5.9-2.6 1.1l-.3-.7c1.2-.2 2-.6 2.7-1.1c.6-.6.9-1.2 1-1.9c-.01-.03-3.2 0-3.2 0v-.7h4.1c0 .3 0 .6-.1.9c0-.03 2.1 0 2.1 0V19h.8v4.7h-.8v-.9h-2.4v-.7h2.4V21zm-4.2 6.4h5.3v.7h-6.2v-2.4h5.1v-.9h-5.1v-.7h5.9v2.3h-5v1zm13.6-8.4h.8v9.2h-.8V19zm-1.8 3.6v-3.4h.8v8.5h-.8v-4.4s-1.13-.02-1.1 0c0 .4-.1.8-.2 1.2c-.1.3-.2.7-.4.9c-.2.3-.4.4-.6.6c-.2.1-.5.2-.8.2c-.3 0-.5-.1-.8-.2c-.2-.2-.4-.4-.6-.7c-.2-.3-.3-.6-.4-1c-.1-.4-.1-.8-.1-1.3c0-.5 0-1 .1-1.3c.1-.4.2-.8.4-1c.2-.3.4-.5.6-.7c.3-.1.5-.2.8-.2c.3 0 .6.1.8.2c.2.1.4.3.6.6c.1.2.3.5.4.8c.1.4.1.8.2 1.2h1.1zm-3.1 2.8c.4 0 .7-.2.9-.6c.2-.5.3-1.1.3-1.8c0-.4 0-.7-.1-1c0-.3-.1-.6-.2-.8c-.1-.2-.2-.3-.4-.5c-.1-.1-.3-.1-.5-.1c-.3 0-.6.2-.8.6c-.3.5-.4 1-.4 1.8c0 .7.1 1.3.4 1.8c.2.4.5.6.8.6zm16.3-4.1h1.4v.7h-1.4v2.2h-.8v-5.1h.8v2.2zm-2.1.4c0 .3-.1.6-.2.9c-.1.2-.3.5-.5.7c-.2.2-.5.3-.8.4c-.3.1-.6.2-.9.2c-.4 0-.7-.1-1-.2c-.3-.1-.5-.2-.7-.4c-.2-.2-.4-.5-.5-.7c-.1-.3-.2-.6-.2-.9c0-.3.1-.6.2-.9c.1-.2.3-.4.5-.6c.2-.2.4-.4.7-.5c.3-.1.6-.1 1-.1c.3 0 .6 0 .9.1c.3.1.6.3.8.5c.2.2.4.4.5.6c.1.3.2.6.2.9zm-4 0c0 .2.1.4.1.6c.1.2.2.3.4.5c.1.1.3.2.4.3c.2 0 .4.1.7.1c.2 0 .4-.1.6-.1c.2-.1.4-.2.5-.3c.1-.2.3-.3.3-.5c.1-.2.2-.4.2-.6c0-.2-.1-.4-.2-.6c0-.1-.2-.3-.3-.4c-.1-.2-.3-.3-.5-.3c-.2-.1-.4-.1-.6-.1c-.3 0-.5 0-.7.1c-.1 0-.3.1-.4.3c-.2.1-.3.3-.4.4c0 .2-.1.4-.1.6zm5.1 3.7v2h1.4v.6h-6.3v-.6h1.4v-2h-1.3v-.7h6.1v.7h-1.3zm-2.7 0v2h1.9v-2h-1.9zm12.9-4h1.4v.7h-1.4v2.5h-.8v-5.5h.8v2.3zm-1.8 2.1l-.4.6c-.5-.1-1-.4-1.3-.7c-.4-.4-.7-.8-.9-1.2c-.2.5-.5.9-.9 1.3c-.4.4-.9.7-1.4.9l-.4-.7c.3-.1.6-.3.9-.5c.3-.2.5-.4.7-.6c.2-.3.4-.6.5-.9c.1-.3.2-.6.2-.9c-.04-.05 0-.4 0-.4h-2.1v-.7h4.9v.7h-2v.4c0 .3 0 .5.1.8c.1.3.3.6.5.8c.2.2.4.4.7.6c.3.2.6.4.9.5zm-1.1 1.3c.5 0 .9 0 1.2.1c.4.1.7.2 1 .3c.3.2.5.4.6.6c.1.2.2.4.2.7c0 .3-.1.5-.2.7c-.1.2-.3.4-.6.5c-.3.2-.6.3-1 .4c-.3 0-.7.1-1.2.1c-.9 0-1.7-.2-2.2-.5c-.6-.3-.8-.7-.8-1.2c0-.5.2-1 .8-1.3c.5-.2 1.3-.4 2.2-.4zm0 2.7c.7 0 1.2-.1 1.6-.3c.4-.1.6-.4.6-.7c0-.3-.2-.6-.6-.8c-.4-.1-.9-.2-1.6-.2c-.7 0-1.2.1-1.6.2c-.4.2-.6.5-.6.8c0 .3.2.6.6.7c.4.2.9.3 1.6.3zm11.7-8.5h.8v9.2h-.8v-5.4H142v-.7h2.1V19zm-3.5.8s-.01 1.67 0 1.7c0 .4 0 .8.2 1.2c.1.4.3.8.5 1.1c.2.4.4.7.7 1c.3.3.6.5 1 .6l-.5.7c-.5-.3-1-.7-1.4-1.2c-.4-.5-.7-1.1-.9-1.7c-.2.7-.5 1.3-.9 1.8c-.4.6-.9 1-1.4 1.3l-.5-.7c.3-.2.6-.4.9-.7c.3-.3.5-.6.8-1c.2-.4.3-.7.5-1.2c.1-.4.1-.8.1-1.2c.05-.03 0-1.7 0-1.7h.9zm13.3 2v.7h-6.2v-3.1h.8v2.4h5.4zm-7.3 1.9h8.2v.7h-8.2v-.7zm1.9 1.6v2h5.4v.7h-6.3v-2.7h.9zm17-6.2v6.9h-.8v-6.9h.8zm-3.7 3.3v1.9h-3.6v-4.5h.8v1.5h2v-1.5h.8v1.9h1.2v-2.5h.8v6.5h-.8v-3.3h-1.2zm-.8 1.2V22h-2v1.6h2zm-.6 3.7h5.4v.7h-6.2v-2.9h.8v2.2zm13.3-8.3h.8v9.2h-.8v-4.8h-2v-.7h2V19zm-3.5 2.3s-.03.7 0 .7c0 .4 0 .8.1 1.1c.2.4.3.7.5 1.1c.2.3.5.6.8.8c.3.3.6.5.9.6l-.4.7c-.6-.3-1-.6-1.4-1.1c-.4-.5-.7-1-.9-1.6c-.2.6-.5 1.2-.9 1.7c-.4.5-.9.9-1.4 1.1l-.5-.6c.3-.2.7-.4.9-.7c.3-.2.6-.5.8-.9c.2-.3.4-.6.5-1c.1-.4.1-.8.1-1.2c.04 0 0-.7 0-.7h-2v-.7h2v-1.4h.9v1.4h2v.7h-2zm12.7-2.3h.8v9.2h-.8V19zm-6.2 1s4.31.03 4.3 0c0 .7-.1 1.3-.2 1.9c-.2.7-.4 1.2-.8 1.8c-.3.5-.8 1-1.3 1.5c-.5.5-1.2.9-1.9 1.3l-.5-.7c1.2-.6 2.2-1.3 2.8-2.2c.6-.8 1-1.8 1.1-2.9h-3.5v-.7zm15.4-.9h.8v4.9h-.8v-2.1h-1.9c-.1.6-.3 1-.8 1.3c-.4.3-.9.5-1.5.5c-.4 0-.7 0-1-.2c-.3-.1-.5-.2-.7-.4c-.2-.2-.4-.4-.5-.7c-.1-.2-.2-.5-.2-.8c0-.3.1-.6.2-.9c.1-.2.3-.5.5-.6c.2-.2.4-.4.7-.5c.3-.1.6-.1 1-.1c.3 0 .6 0 .8.1c.3.1.5.2.7.4c.2.1.4.3.5.5c.2.2.2.5.3.7c-.01.02 1.9 0 1.9 0v-2.1zm-4.2 3.9c.2 0 .4 0 .6-.1c.2-.1.3-.2.5-.3c.1-.1.2-.3.3-.4c.1-.2.1-.4.1-.6c0-.2 0-.4-.1-.6c-.1-.2-.2-.3-.3-.4c-.2-.2-.3-.3-.5-.3c-.2-.1-.4-.1-.6-.1c-.3 0-.5 0-.7.1c-.2 0-.3.1-.5.3c-.1.1-.2.2-.3.4c-.1.2-.1.4-.1.6c0 .2 0 .4.1.6c.1.1.2.3.3.4c.2.1.3.2.5.3c.2.1.4.1.7.1zm4.2 2.6v-1.2h.8v3.7H187v-3.7h.9v1.2h4.2zm0 1.8v-1.2h-4.2v1.2h4.2zm5-4.2v1h-1v-1h1zm11.1-.4v.6h-1.5v4.8h-.9v-9.1h.9v3.7h1.5zm-5.5-3s.01 1.68 0 1.7c0 .4.1.8.2 1.2c.1.4.3.7.5 1.1c.2.3.5.7.7.9c.3.3.6.5.9.7l-.5.7c-.5-.3-.9-.7-1.3-1.2c-.4-.5-.7-1-.9-1.7c-.2.7-.5 1.3-.9 1.8c-.4.5-.9 1-1.4 1.2l-.5-.6c.4-.2.7-.4 1-.7c.2-.3.5-.6.7-1c.2-.4.4-.8.5-1.2c.1-.4.2-.8.2-1.2c-.01-.02 0-1.7 0-1.7h.8zm11.9.4v.6h-5.5v-.6h2.3v-1.1h.9v1.1h2.3zm.8-1.1h.9v9.1h-.9v-9.1zm-3.1 5.6v1c.4 0 .8-.1 1.3-.1c.4 0 .8-.1 1.3-.1v.6c-.5.1-1 .1-1.5.2c-.6 0-1.1.1-1.6.1h-1.5c-.4.1-.9.1-1.3.1l-.1-.7c.4 0 .8-.1 1.2-.1h1.3v-1c-.5 0-1-.2-1.3-.5c-.3-.3-.5-.7-.5-1.2c0-.2.1-.4.2-.6c.1-.3.3-.4.5-.6c.2-.1.4-.2.7-.3c.2-.1.5-.1.9-.1c.3 0 .6 0 .8.1c.3.1.5.2.7.3c.2.2.4.3.5.6c.1.2.1.4.1.6c0 .5-.1.9-.4 1.2c-.3.3-.8.5-1.3.5zm-1.9-1.7c0 .4.2.6.4.8c.3.2.6.3 1.1.3c.4 0 .7-.1 1-.3c.2-.2.4-.4.4-.8c0-.3-.2-.5-.4-.7c-.3-.2-.6-.3-1-.3c-.5 0-.8.1-1.1.3c-.2.2-.4.4-.4.7zm14.3-4h.8v5.5h-.8v-2.4h-1.8v-.7h1.8V19zm-1.3 4.5l-.4.7c-.5-.2-1-.5-1.4-.9c-.3-.3-.6-.7-.8-1.2c-.2.5-.5 1-.9 1.4c-.4.4-.9.7-1.4.9l-.5-.7c.4-.1.7-.3 1-.5c.2-.2.5-.4.7-.7c.2-.2.4-.5.5-.8c.1-.3.1-.7.1-1c.04.01 0-.4 0-.4h-2v-.6h4.9v.6h-2s-.02.41 0 .4c0 .3 0 .6.1.9c.1.3.3.5.5.8c.2.2.4.5.7.6c.3.2.6.4.9.5zm-4 2.2v-.7h6.1v3.2h-.8v-2.5h-5.3zm14.5-6.7h.8v9.2h-.8V19zm-6.2 1s4.31.03 4.3 0c0 .7-.1 1.3-.2 1.9c-.2.7-.4 1.2-.8 1.8c-.3.5-.8 1-1.3 1.5c-.5.5-1.2.9-1.9 1.3l-.5-.7c1.2-.6 2.2-1.3 2.8-2.2c.6-.8 1-1.8 1.1-2.9h-3.5v-.7zm15.4-.9h.8v4.9h-.8v-2.1h-1.9c-.1.6-.3 1-.8 1.3c-.4.3-.9.5-1.5.5c-.4 0-.7 0-1-.2c-.3-.1-.5-.2-.7-.4c-.2-.2-.4-.4-.5-.7c-.1-.2-.2-.5-.2-.8c0-.3.1-.6.2-.9c.1-.2.3-.5.5-.6c.2-.2.4-.4.7-.5c.3-.1.6-.1 1-.1c.3 0 .6 0 .8.1c.3.1.5.2.7.4c.2.1.4.3.5.5c.2.2.2.5.3.7c-.01.02 1.9 0 1.9 0v-2.1zm-4.2 3.9c.2 0 .4 0 .6-.1c.2-.1.3-.2.5-.3c.1-.1.2-.3.3-.4c.1-.2.1-.4.1-.6c0-.2 0-.4-.1-.6c-.1-.2-.2-.3-.3-.4c-.2-.2-.3-.3-.5-.3c-.2-.1-.4-.1-.6-.1c-.3 0-.5 0-.7.1c-.2 0-.3.1-.5.3c-.1.1-.2.2-.3.4c-.1.2-.1.4-.1.6c0 .2 0 .4.1.6c.1.1.2.3.3.4c.2.1.3.2.5.3c.2.1.4.1.7.1zm4.2 2.6v-1.2h.8v3.7H238v-3.7h.9v1.2h4.2zm0 1.8v-1.2h-4.2v1.2h4.2zm9.1-8.4h.8v9.2h-.8V19zm-3.7.7c.4 0 .7.1 1 .2c.3.1.6.2.8.4c.2.2.4.4.5.7c.1.3.2.5.2.9c0 .3-.1.6-.2.8c-.1.3-.3.5-.5.7c-.2.2-.5.4-.8.5c-.3.1-.6.1-1 .1c-.3 0-.7 0-1-.1c-.3-.1-.5-.3-.7-.5c-.3-.2-.4-.4-.6-.7c-.1-.2-.1-.5-.1-.8c0-.4 0-.6.1-.9c.2-.3.3-.5.6-.7c.2-.2.4-.3.7-.4c.3-.1.7-.2 1-.2zm0 .7c-.2 0-.4.1-.6.1l-.6.3c-.1.2-.2.3-.3.5c-.1.2-.1.3-.1.6c0 .2 0 .4.1.5c.1.2.2.4.3.5l.6.3c.2.1.4.1.6.1c.2 0 .5 0 .7-.1c.2-.1.3-.2.5-.3c.1-.1.2-.3.3-.5c.1-.1.1-.3.1-.5c0-.3 0-.4-.1-.6c-.1-.2-.2-.3-.3-.5c-.2-.1-.3-.2-.5-.3c-.2 0-.5-.1-.7-.1zm-2.8 5.8l-.1-.7h1.4c.4 0 .9 0 1.5-.1h1.5c.5-.1 1.1-.1 1.6-.2v.6c-.5.1-1 .2-1.5.2c-.6.1-1.1.1-1.6.1c-.5.1-1 .1-1.5.1h-1.3zm16.5-2.7l-.4.7c-.6-.2-1-.4-1.4-.7c-.4-.4-.7-.7-.9-1.2c-.2.5-.5.9-.9 1.3c-.4.4-.8.6-1.4.8l-.4-.6c.4-.1.7-.3.9-.5c.3-.2.6-.4.8-.6c.2-.3.3-.5.4-.8c.1-.3.2-.6.2-.9v-.2h-2v-.6h2V19h.8v1.2h2v.6h-2s.03.21 0 .2c0 .3.1.6.2.8c.1.3.2.5.4.7c.2.3.5.5.7.6c.3.2.6.3 1 .4zm1.7-2.1h1.4v.7h-1.4v2.6h-.8V19h.8v2.4zm-2.9 3.5c.9 0 1.7.1 2.2.4c.5.3.8.7.8 1.2c0 .6-.3 1-.8 1.2c-.5.3-1.3.5-2.2.5c-1 0-1.7-.2-2.2-.5c-.6-.2-.8-.6-.8-1.2c0-.5.2-.9.8-1.2c.5-.3 1.2-.4 2.2-.4zm0 2.6c.7 0 1.2-.1 1.6-.2c.4-.2.6-.4.6-.8c0-.3-.2-.5-.6-.7c-.4-.2-.9-.3-1.6-.3c-.7 0-1.2.1-1.6.3c-.4.2-.6.4-.6.7c0 .4.2.6.6.8c.4.1.9.2 1.6.2zm11.7-8.4h.8v4.9h-.8v-2.1h-1.9c-.1.6-.3 1-.7 1.3c-.4.3-1 .5-1.6.5c-.4 0-.7 0-1-.2c-.2-.1-.5-.2-.7-.4c-.2-.2-.4-.4-.5-.7c-.1-.2-.2-.5-.2-.8c0-.3.1-.6.2-.9c.1-.2.3-.5.5-.6c.2-.2.5-.4.7-.5c.3-.1.6-.1 1-.1c.3 0 .6 0 .8.1c.3.1.5.2.7.4c.2.1.4.3.5.5c.2.2.3.5.3.7c.01.02 1.9 0 1.9 0v-2.1zm-4.2 3.9c.2 0 .4 0 .6-.1c.2-.1.4-.2.5-.3c.1-.1.2-.3.3-.4c.1-.2.1-.4.1-.6c0-.2 0-.4-.1-.6c-.1-.2-.2-.3-.3-.4c-.1-.2-.3-.3-.5-.3c-.2-.1-.4-.1-.6-.1c-.2 0-.5 0-.6.1c-.2 0-.4.1-.5.3c-.2.1-.3.2-.4.4c0 .2-.1.4-.1.6c0 .2.1.4.1.6c.1.1.2.3.4.4c.1.1.3.2.5.3c.1.1.4.1.6.1zm4.2 2.6v-1.2h.8v3.7h-5.8v-3.7h.8v1.2h4.2zm0 1.8v-1.2h-4.2v1.2h4.2zm5-4.2v1h-.9v-1h.9zm9.3-1.8h-2.3c-.6 1.5-2 2.5-4 3.1l-.3-.6c1.1-.4 2-.8 2.6-1.4c.6-.6 1-1.3 1.1-2.1h-3.2v-.7s4.09.03 4.1 0v.5c-.1.2-.1.4-.1.5c-.02.02 2.1 0 2.1 0v-1.6h.8v5.4h-.8v-1.2h-2.4v-.7h2.4v-1.2zm-2.2 3.2c.5 0 .9.1 1.3.1c.3.1.7.2.9.4c.3.1.5.3.6.5c.2.3.2.5.2.8c0 .3 0 .5-.2.7c-.1.2-.3.4-.6.6c-.2.1-.6.2-.9.3c-.4.1-.8.1-1.3.1c-.4 0-.9 0-1.2-.1c-.4-.1-.7-.2-1-.3c-.3-.2-.5-.4-.6-.6c-.1-.2-.2-.4-.2-.7c0-.3.1-.5.2-.8c.1-.2.3-.4.6-.5c.3-.2.6-.3 1-.4c.3 0 .8-.1 1.2-.1zm0 2.9c.7 0 1.2-.1 1.6-.3c.4-.2.6-.5.6-.8c0-.4-.2-.6-.6-.8c-.4-.2-.9-.3-1.6-.3c-.7 0-1.2.1-1.6.3c-.4.2-.6.4-.6.8c0 .3.2.6.6.8c.4.2.9.3 1.6.3zm11.3-4.3s-2.31-.05-2.3 0c-.2.2-.5.4-.8.5c-.3.2-.7.2-1.1.2c-.3 0-.6 0-.9-.1c-.3-.1-.5-.3-.7-.5c-.3-.2-.4-.4-.5-.7c-.2-.2-.2-.5-.2-.8c0-.4 0-.7.2-.9c.1-.3.2-.5.5-.7c.2-.2.4-.3.7-.5c.3-.1.6-.1.9-.1c.4 0 .8.1 1.1.2c.3.1.6.3.8.6c-.01-.04 2.3 0 2.3 0V19h.9v5.5h-.9v-1.3zm-5.7-1.4c0 .2 0 .4.1.5c.1.2.2.4.3.5c.2.1.3.2.5.3c.2.1.4.1.6.1c.3 0 .5 0 .7-.1c.2-.1.3-.2.5-.3c.1-.1.2-.3.3-.5c.1-.1.1-.3.1-.5c0-.3 0-.5-.1-.6c-.1-.2-.2-.4-.3-.5c-.2-.1-.3-.2-.5-.3c-.2-.1-.4-.1-.7-.1c-.2 0-.4 0-.6.1c-.2.1-.3.2-.5.3c-.1.1-.2.3-.3.5c-.1.1-.1.3-.1.6zm5.7-.8s-1.92.04-1.9 0c.1.3.1.5.1.8c0 .2-.1.4-.1.7c-.03-.03 1.9 0 1.9 0V21zm-2.1 3.7c.4 0 .8 0 1.2.1c.4.1.7.2 1 .3c.3.2.5.4.6.6c.1.2.2.4.2.7c0 .3-.1.6-.2.8c-.1.2-.3.4-.6.5c-.3.2-.6.3-1 .4c-.4 0-.8.1-1.2.1c-.5 0-.9-.1-1.3-.1c-.4-.1-.7-.2-1-.4c-.2-.1-.4-.3-.6-.5c-.1-.2-.2-.5-.2-.8c0-.3.1-.5.2-.7l.6-.6c.3-.1.6-.2 1-.3c.4-.1.8-.1 1.3-.1zm0 2.8c.7 0 1.2-.1 1.6-.3c.4-.2.6-.4.6-.8c0-.3-.2-.6-.6-.8c-.4-.2-.9-.3-1.6-.3c-.7 0-1.3.1-1.7.3c-.4.2-.6.5-.6.8c0 .4.2.6.6.8c.4.2 1 .3 1.7.3zm11.3-8.4h.8v9.1h-.8v-9.1zm-3.4 1.6s-.01 1.14 0 1.1c0 .4.1.8.2 1.2c.1.4.3.7.5 1.1c.2.3.5.6.8.8c.3.3.6.5.9.6l-.4.7c-.6-.2-1-.6-1.5-1.1c-.4-.5-.7-1.1-.9-1.7c-.1.3-.3.7-.4 1c-.2.3-.4.6-.6.8c-.2.3-.4.5-.6.7c-.3.2-.5.4-.8.5l-.5-.6c.4-.2.7-.4 1-.7c.3-.3.5-.6.7-.9c.3-.4.4-.8.6-1.2c.1-.4.2-.8.2-1.2c-.05.04 0-1.1 0-1.1h-2.2v-.7h5.1v.7h-2.1zm10.7 3.7h1.9V19h.8v7h-.8v-.9h-1.9v-.7zm-1.9-1.8c-.3 0-.6 0-.9-.1c-.3-.1-.5-.2-.7-.3c-.2-.2-.4-.3-.5-.5c-.1-.2-.1-.5-.1-.7c0-.2 0-.5.1-.7c.1-.2.3-.3.5-.5c.2-.1.4-.2.7-.3c.3-.1.6-.1.9-.1c.4 0 .7 0 .9.1c.3.1.6.2.8.3c.2.2.3.3.4.5c.1.2.2.5.2.7c0 .2-.1.5-.2.7c-.1.2-.2.3-.4.5c-.2.1-.5.2-.8.3c-.2.1-.5.1-.9.1zm0-2.6c-.4 0-.8.1-1 .3c-.3.2-.4.4-.4.7c0 .3.1.5.4.7c.2.2.6.3 1 .3c.5 0 .8-.1 1.1-.3c.3-.2.4-.4.4-.7c0-.3-.1-.5-.4-.7c-.3-.2-.6-.3-1.1-.3zm-.3 5.7s.01-1.78 0-1.8c-.5 0-.9.1-1.3.1h-1.2l-.1-.7h1.3c.5 0 1 0 1.5-.1h1.5c.6-.1 1.1-.1 1.5-.2l.1.6c-.4.1-.8.1-1.2.2c-.4 0-.8 0-1.3.1c.04-.02 0 1.8 0 1.8h-.8zm-.5 1.6h5.6v.7h-6.4v-2.7h.8v2zm13.8-8.3h.8v9.2h-.8V19zm-6.2 1s4.31.03 4.3 0c0 .7-.1 1.3-.2 1.9c-.2.7-.4 1.2-.8 1.8c-.3.5-.8 1-1.3 1.5c-.5.5-1.2.9-1.9 1.3l-.5-.7c1.2-.6 2.2-1.3 2.8-2.2c.6-.8 1-1.8 1.1-2.9h-3.5v-.7zm15.7 2.9h1.3v.7h-8.3v-.7h6.1c.1-.6.2-1.1.2-1.5c.1-.4.1-.8.1-1.2h-5.4v-.7h6.2v1.9c-.1.4-.1.9-.2 1.5zm-6 5.2v-3.3h6.2v3.3h-6.2zm.8-2.6v1.9h4.6v-1.9H328zm11.5-5.9c.5 0 .9.1 1.3.2c.4.1.8.3 1 .5c.3.2.6.5.7.8c.2.3.3.7.3 1c0 .4-.1.8-.3 1.1c-.1.3-.4.6-.7.8c-.2.2-.6.4-1 .5c-.4.1-.8.2-1.3.2c-.5 0-.9-.1-1.3-.2c-.5-.1-.8-.3-1.1-.5c-.3-.2-.5-.5-.7-.8c-.2-.3-.3-.7-.3-1.1c0-.3.1-.7.3-1c.2-.3.4-.6.7-.8c.3-.2.6-.4 1.1-.5c.4-.1.8-.2 1.3-.2zm0 .7c-.4 0-.7 0-1 .1c-.3.1-.6.2-.8.4c-.3.2-.4.4-.6.6c-.1.2-.2.5-.2.7c0 .3.1.6.2.8c.2.2.3.4.6.6c.2.1.5.3.8.4c.3 0 .6.1 1 .1c.3 0 .7-.1 1-.1c.3-.1.6-.3.8-.4c.2-.2.4-.4.5-.6c.1-.2.2-.5.2-.8c0-.2-.1-.5-.2-.7c-.1-.2-.3-.4-.5-.6c-.2-.2-.5-.3-.8-.4c-.3-.1-.7-.1-1-.1zm-4.2 6h8.3v.7h-8.3v-.7zm13.8.1h3.7v.7h-8.3v-.7h3.7v-1.7h-2.6v-2.9h5.4v-1.4h-5.5v-.7h6.3v2.8h-5.4v1.5h5.6v.7h-2.9v1.7z" stroke="none" fill="#111111"/></g><g id="Polygon115848"><path d="m7.2.5h.8v9.2h-.8V.5zm-6.1 1s4.27.03 4.3 0c0 .7-.1 1.3-.3 1.9c-.1.7-.4 1.2-.7 1.8c-.4.5-.8 1-1.3 1.5c-.6.5-1.2.9-2 1.3l-.4-.7C1.9 6.7 2.8 6 3.4 5.1c.7-.8 1-1.8 1.1-2.9H1.1v-.7zm17.2 2.7v.7h-1.5v4.8h-.9V.6h.9v3.6h1.5zm-6.1-3c.3 0 .6.1.9.3c.3.1.5.3.7.6c.2.3.4.6.5 1c.1.4.2.8.2 1.3c0 .5-.1 1-.2 1.4c-.1.3-.3.7-.5 1c-.2.2-.4.5-.7.6c-.3.2-.6.2-.9.2c-.4 0-.7 0-1-.2c-.3-.1-.5-.4-.7-.6c-.2-.3-.4-.7-.5-1c-.1-.4-.1-.9-.1-1.4c0-.5 0-.9.1-1.3c.1-.4.3-.7.5-1c.2-.3.4-.5.7-.6c.3-.2.6-.3 1-.3zm0 5.7c.2 0 .4-.1.6-.2c.1-.1.3-.3.4-.5c.2-.2.3-.5.3-.8c.1-.3.2-.6.2-1c0-.3-.1-.7-.2-1c0-.3-.1-.5-.3-.7c-.1-.2-.3-.4-.4-.5c-.2-.1-.4-.2-.6-.2c-.3 0-.5.1-.7.2c-.1.1-.3.3-.4.5c-.2.2-.3.4-.3.7c-.1.3-.2.7-.2 1c0 .4.1.7.2 1c0 .3.1.6.3.8c.1.2.3.4.4.5c.2.1.4.2.7.2zm15.2-2.6v.7h-1.5v4.7h-.8V.5h.8v3.8h1.5zM22 2.8s-.04.71 0 .7c0 .4 0 .7.1 1.1c.1.4.3.7.5 1c.2.3.4.6.7.9c.3.2.6.5.9.6l-.5.7c-.5-.3-.9-.6-1.3-1.1c-.4-.5-.7-1-.8-1.6c-.2.6-.5 1.2-.9 1.7c-.4.5-.9.9-1.4 1.1l-.5-.6c.4-.2.7-.4.9-.6c.3-.3.6-.6.8-.9c.2-.4.3-.7.5-1.1c.1-.4.1-.8.1-1.2c.03.01 0-.7 0-.7h-2v-.7h2V.7h.9v1.4h2v.7h-2zm14.5-.1h-1.3v1.2h1.3v.7h-1.3v1.5h-.9V.6h.9v1.4h1.3v.7zm-3 1.9v.6c-.3.1-.7.2-1 .2c-.3 0-.7.1-1 .1h-2.3c0 .04-.7 0-.7 0V2.9h3.3V1.8h-3.3v-.7h4.1v2.5h-3.3v1.3c.4 0 .8 0 1.1-.1h1.1c.3 0 .6-.1 1-.1c.3 0 .6-.1 1-.1zm-1.2 1.7c.4 0 .8.1 1.2.2c.4 0 .7.1 1 .3c.2.1.4.3.6.5c.1.2.2.5.2.7c0 .3-.1.5-.2.7c-.2.2-.4.4-.6.5c-.3.2-.6.3-1 .4c-.4 0-.8.1-1.2.1c-1 0-1.7-.2-2.2-.5c-.6-.2-.8-.7-.8-1.2c0-.5.2-.9.8-1.2c.5-.3 1.2-.5 2.2-.5zm0 2.7c.7 0 1.2-.1 1.6-.2c.4-.2.5-.5.5-.8c0-.3-.1-.6-.5-.7c-.4-.2-.9-.3-1.6-.3c-.7 0-1.3.1-1.7.3c-.3.1-.5.4-.5.7c0 .3.2.6.5.8c.4.1 1 .2 1.7.2zm9.1-7.9c.5 0 .9.1 1.3.2c.4.1.8.3 1.1.5c.3.2.5.5.7.8c.1.3.2.7.2 1c0 .4-.1.8-.2 1.1c-.2.3-.4.6-.7.8c-.3.2-.7.4-1.1.5c-.4.1-.8.2-1.3.2c-.5 0-.9-.1-1.3-.2c-.4-.1-.8-.3-1.1-.5c-.3-.2-.5-.5-.7-.8c-.1-.3-.2-.7-.2-1.1c0-.3.1-.7.2-1c.2-.3.4-.6.7-.8c.3-.2.7-.4 1.1-.5c.4-.1.8-.2 1.3-.2zm0 .7c-.4 0-.7 0-1 .1c-.3.1-.6.2-.8.4c-.2.2-.4.4-.5.6c-.2.2-.2.5-.2.7c0 .3 0 .6.2.8c.1.2.3.4.5.6c.2.1.5.3.8.4c.3 0 .6.1 1 .1c.4 0 .7-.1 1-.1c.3-.1.6-.3.8-.4c.2-.2.4-.4.5-.6c.2-.2.2-.5.2-.8c0-.2 0-.5-.2-.7c-.1-.2-.3-.4-.5-.6c-.2-.2-.5-.3-.8-.4c-.3-.1-.6-.1-1-.1zm-4.1 6h8.3v.7h-8.3v-.7zm13.7.1h3.7v.7h-8.3v-.7h3.8V6.2h-2.7V3.3h5.4V1.9h-5.4v-.7h6.2v2.8h-5.4v1.5h5.6v.7H51v1.7zm15.2-3.6v.6h-1.5v4.8h-.8V.5h.8v3.8h1.5zm-7.9-2.8h4.1c0 .6-.1 1.3-.2 1.9c-.1.7-.3 1.3-.6 1.8c-.4.6-.8 1.1-1.3 1.6c-.6.5-1.2 1-2.1 1.4l-.4-.7c.8-.4 1.5-.8 2-1.4c.6-.5 1-1 1.2-1.7c.05.05-3 .3-3 .3l-.2-.7s3.5-.23 3.5-.2c.2-.5.2-1.1.3-1.6c-.02-.03-3.3 0-3.3 0v-.7zm15.6-1h.8v9.2h-.8V.5zM72 2.7v-2h.8v8.5h-.8V5.4h-1.4v-.7h1.4V3.4h-1.4v-.7h1.4zm-2.4-1.3s-.04 1.81 0 1.8c0 .4 0 .7.1 1.1c.1.4.2.7.4 1.1c.1.3.3.6.6.9c.2.3.5.5.8.7l-.5.6c-.5-.3-.8-.6-1.2-1.1c-.3-.4-.5-.9-.6-1.5c-.2.6-.4 1.1-.8 1.6c-.3.5-.7.9-1.1 1.2l-.5-.6c.3-.2.6-.4.8-.7c.2-.3.5-.6.6-1c.2-.3.3-.7.4-1.1c.1-.4.2-.8.2-1.2c-.04.01 0-1.8 0-1.8h.8zM82.8.5h.8v9.2h-.8v-5h-2c0 .5-.1.9-.2 1.2c-.2.4-.3.7-.5.9c-.2.3-.4.5-.7.6c-.3.2-.6.2-.9.2c-.3 0-.6 0-.9-.2c-.3-.1-.5-.4-.7-.6c-.2-.3-.4-.7-.5-1c-.1-.4-.2-.9-.2-1.4c0-.5.1-.9.2-1.3c.1-.4.3-.7.5-1c.2-.3.4-.5.7-.6c.3-.2.6-.3.9-.3c.3 0 .6.1.9.2c.2.2.5.4.7.6c.2.2.3.5.4.9c.2.3.2.7.3 1.1c-.03.03 2 0 2 0V.5zm-4.3 6.4c.2 0 .4-.1.6-.2c.2-.1.3-.3.5-.5c.1-.2.2-.5.3-.8c.1-.3.1-.6.1-1c0-.3 0-.7-.1-1c-.1-.3-.2-.5-.3-.7c-.2-.2-.3-.4-.5-.5c-.2-.1-.4-.2-.6-.2c-.2 0-.4.1-.6.2c-.2.1-.3.3-.5.5c-.1.2-.2.4-.3.7c0 .3-.1.7-.1 1c0 .4.1.7.1 1c.1.3.2.6.3.8c.2.2.3.4.5.5c.2.1.4.2.6.2zM92.7.5v5.7h-.8V.5h.8zm-1.9 4.1l.1.7c-.4.1-.7.1-1.1.2c-.3 0-.7 0-1.1.1h-3V3h3.3V1.8h-3.3v-.7h4.2v2.5h-3.4s.04 1.33 0 1.3h2.2c.4 0 .7-.1 1.1-.1c.3 0 .6-.1 1-.2zm-1.1 1.8c.5 0 .9 0 1.3.1c.4.1.7.2 1 .3c.2.1.4.3.6.5c.1.2.2.5.2.7c0 .5-.3 1-.8 1.2c-.6.3-1.3.5-2.3.5c-.9 0-1.7-.2-2.2-.5c-.6-.2-.8-.7-.8-1.2c0-.5.2-.9.8-1.2c.5-.3 1.3-.4 2.2-.4zm0 2.6c.7 0 1.3-.1 1.7-.2c.4-.2.6-.5.6-.8c0-.3-.2-.5-.6-.7c-.4-.2-1-.3-1.7-.3c-.7 0-1.2.1-1.6.3c-.4.2-.6.4-.6.7c0 .3.2.6.6.8c.4.1.9.2 1.6.2zM103.2.5h.8v9.2h-.8V4.3h-2.1v-.7h2.1V.5zm-3.5.8v1.7c0 .4.1.8.2 1.2c.1.4.3.8.5 1.1c.2.4.5.7.7 1c.3.3.6.5 1 .6l-.5.7c-.5-.3-1-.7-1.4-1.2c-.4-.5-.7-1.1-.9-1.7c-.2.7-.5 1.3-.9 1.8c-.4.6-.9 1-1.4 1.3l-.5-.7c.3-.2.6-.4.9-.7c.3-.3.6-.6.8-1c.2-.4.4-.7.5-1.2c.1-.4.2-.8.2-1.2c-.03-.03 0-1.7 0-1.7h.8zm12.6-.8h.9v9.2h-.9V.5zm-6.1.8h.8v2.4h2.7V1.3h.8v6.2h-4.3V1.3zm.8 3.1v2.4h2.7V4.4H107zm15.7.7l-.3.7c-.4 0-.7-.2-1.1-.3l-.9-.6c-.3-.2-.6-.5-.9-.8c-.2-.3-.4-.6-.5-.9l-.6.9c-.2.3-.5.6-.8.8c-.3.2-.6.4-1 .6c-.3.1-.7.3-1 .3l-.4-.7c.4 0 .8-.2 1.2-.4c.4-.2.8-.4 1.1-.7c.3-.3.5-.6.7-1c.2-.3.3-.7.3-1.1c.03-.01 0-.7 0-.7h.9v.7c0 .4.1.7.3 1.1c.2.4.5.7.8 1c.3.3.7.5 1 .7c.4.2.8.4 1.2.4zm-7.8 2.7h8.3v.7h-8.3v-.7zM132.8.5h.8v9.2h-.8V.5zm-4 .7c.3 0 .6.1.9.3c.3.1.6.3.8.6c.2.3.3.6.4 1c.2.4.2.8.2 1.3c0 .5 0 1-.2 1.4c-.1.3-.2.7-.4 1c-.2.2-.5.5-.8.6c-.3.2-.6.2-.9.2c-.4 0-.7 0-1-.2c-.2-.1-.5-.4-.7-.6c-.2-.3-.4-.7-.5-1c-.1-.4-.1-.9-.1-1.4c0-.5 0-.9.1-1.3c.1-.4.3-.7.5-1c.2-.3.5-.5.7-.6c.3-.2.6-.3 1-.3zm0 .8c-.2 0-.4.1-.6.2c-.2.1-.4.3-.5.5c-.2.2-.3.4-.3.7c-.1.3-.1.7-.1 1c0 .4 0 .7.1 1c0 .3.1.6.3.8c.1.2.3.4.5.5c.2.1.4.2.6.2c.2 0 .4-.1.6-.2c.2-.1.3-.3.5-.5c.1-.2.2-.5.3-.8c.1-.3.1-.6.1-1c0-.3 0-.7-.1-1c-.1-.3-.2-.5-.3-.7c-.2-.2-.3-.4-.5-.5c-.2-.1-.4-.2-.6-.2zm12.7 3.1h2.1v.6h-8.3v-.6h2s.04-1.32 0-1.3c-.7-.3-1.1-.8-1.1-1.4c0-.3.1-.5.2-.7c.2-.2.4-.4.7-.5c.3-.2.6-.3 1-.4c.4-.1.8-.1 1.3-.1c.5 0 1 0 1.4.1c.4.1.7.2 1 .4c.3.1.5.3.6.5c.2.2.2.4.2.7c0 .3-.1.6-.2.8c-.2.2-.5.4-.9.6c.03-.03 0 1.3 0 1.3zm-4.4-2.7c0 .3.2.6.6.8c.4.2 1 .3 1.7.3c.8 0 1.4-.1 1.8-.3c.4-.2.6-.5.6-.8c0-.3-.2-.6-.6-.8c-.4-.2-1-.2-1.8-.2c-.7 0-1.3 0-1.7.2c-.4.2-.6.5-.6.8zm1.1 1.6c-.03 0 0 1.1 0 1.1h2.5s.01-1.1 0-1.1c-.2 0-.4.1-.6.1h-1.3c-.2 0-.4-.1-.6-.1zm1.2 2.4c1 0 1.8.2 2.3.4c.6.3.9.7.9 1.3c0 .5-.3.9-.9 1.2c-.5.2-1.3.4-2.3.4c-1 0-1.7-.2-2.3-.4c-.5-.3-.8-.7-.8-1.2c0-.6.3-1 .8-1.3c.6-.2 1.3-.4 2.3-.4zm0 2.6c.8 0 1.3 0 1.7-.2c.4-.2.6-.4.6-.7c0-.4-.2-.6-.6-.8c-.4-.1-.9-.2-1.7-.2c-.7 0-1.2.1-1.6.2c-.5.2-.7.4-.7.8c0 .3.2.5.7.7c.4.2.9.2 1.6.2zM153.2.5h.9v9.2h-.9V.5zm-3.4.8s.01 1.68 0 1.7c0 .4.1.8.2 1.2c.1.4.3.8.5 1.2c.2.3.5.6.8.9c.3.3.6.5 1 .6l-.5.7c-.6-.2-1-.6-1.5-1.1c-.4-.5-.7-1.1-.9-1.8c-.2.7-.5 1.3-.9 1.9c-.5.5-.9.9-1.5 1.2l-.5-.7c.4-.2.7-.4 1-.7c.3-.2.5-.6.8-.9c.2-.4.4-.8.5-1.2c.1-.5.2-.9.2-1.3c-.02-.02 0-1.7 0-1.7h.8zm14.7-.7h.9v9.1h-.9V4.9h-2.1v-.7h2.1V.6zm-6.3.9s4.19.03 4.2 0c0 .7-.1 1.3-.2 1.9c-.2.6-.4 1.2-.7 1.8c-.4.5-.8 1-1.3 1.5c-.5.4-1.2.9-1.9 1.2l-.5-.6c1.2-.6 2.2-1.3 2.7-2.2c.6-.9 1-1.8 1.1-2.9h-3.4v-.7zm15.5-1h.8v9.2h-.8V.5zm-5.3 4.2s-.03 2.09 0 2.1c.7 0 1.4 0 2.2-.1c.7 0 1.4-.1 2.2-.2l.1.7c-.4 0-.8.1-1.2.1c-.4.1-.8.1-1.1.1c-.4 0-.8.1-1.2.1h-1.9V4h3.4V2.1h-3.4v-.7h4.2v3.3h-3.3zm14.9-1.8h1.3v.7h-1.3v2.4h-.9V.5h.9v2.4zm-1.8 1.4l.1.6c-.3.1-.6.1-.9.2c-.3 0-.7.1-1 .1h-1.1c-.4 0-.8.1-1.3.1c.01-.05-.7 0-.7 0V1.2h4v.7h-3.2s.02 2.67 0 2.7h1.3c.3-.1.7-.1 1-.1c.3 0 .6-.1.9-.1c.3 0 .6-.1.9-.1zm-1.1 1.9c.4 0 .9 0 1.2.1c.4.1.7.2 1 .3l.6.6c.1.2.2.4.2.7c0 .3-.1.5-.2.8c-.2.2-.4.4-.6.5c-.3.2-.6.3-1 .4c-.3 0-.8.1-1.2.1c-.5 0-.9-.1-1.3-.1c-.4-.1-.7-.2-.9-.4c-.3-.1-.5-.3-.6-.5c-.2-.3-.2-.5-.2-.8c0-.3 0-.5.2-.7c.1-.2.3-.4.6-.6c.2-.1.5-.2.9-.3c.4-.1.8-.1 1.3-.1zm0 2.8c.7 0 1.2-.1 1.6-.3c.4-.2.6-.4.6-.8c0-.3-.2-.6-.6-.8c-.4-.2-.9-.3-1.6-.3c-.7 0-1.2.1-1.6.3c-.4.2-.6.5-.6.8c0 .4.2.6.6.8c.4.2.9.3 1.6.3zM195 .5v4.7h-.9V.5h.9zm-2.6 2.4c0 .3-.1.6-.2.8c-.1.3-.3.5-.5.7c-.2.1-.5.3-.7.4c-.3.1-.6.1-1 .1c-.3 0-.6 0-.9-.1c-.3-.1-.6-.3-.8-.4c-.2-.2-.3-.4-.5-.7c-.1-.2-.1-.5-.1-.8c0-.3 0-.6.1-.8c.2-.3.3-.5.5-.7c.2-.1.5-.3.8-.4c.3-.1.6-.1.9-.1c.4 0 .7 0 1 .1c.2.1.5.3.7.4c.2.2.4.4.5.7c.1.2.2.5.2.8zm-3.9 0c0 .2 0 .4.1.5c.1.2.2.4.3.5c.1.1.3.2.5.3c.2 0 .4.1.6.1c.2 0 .4-.1.6-.1c.2-.1.4-.2.5-.3c.2-.1.3-.3.3-.5c.1-.1.2-.3.2-.5c0-.2-.1-.4-.2-.5c0-.2-.1-.3-.3-.5c-.1-.1-.3-.2-.5-.2c-.2-.1-.4-.1-.6-.1c-.2 0-.4 0-.6.1c-.2 0-.4.1-.5.2c-.1.2-.2.3-.3.5c-.1.1-.1.3-.1.5zm1.4 6h5.4v.7H189V7.3h5.1v-1H189v-.6h6v2.2h-5.1v1zm11.6-6h1.8V.6h.9v5.4h-.9V3.6h-1.8v-.7zM202 5l-.4.7c-.5-.2-1-.5-1.3-.9c-.4-.3-.7-.7-.9-1.2c-.2.5-.5 1-.9 1.4c-.4.4-.9.7-1.4.9l-.4-.6c.3-.2.6-.3.9-.5c.3-.3.5-.5.7-.8c.2-.2.4-.5.5-.8c.1-.4.2-.7.2-1c-.04 0 0-.3 0-.3h-2.1v-.7h4.9v.7h-2v.3c0 .3.1.6.2.9c.1.3.2.5.4.8c.2.2.4.4.7.6c.3.2.6.4.9.5zm-.9 1.3c.5 0 .9 0 1.3.1c.4.1.7.2 1 .3l.6.6c.1.2.2.4.2.7c0 .3-.1.5-.2.7c-.2.2-.4.4-.6.5c-.3.2-.6.3-1 .4c-.4.1-.8.1-1.3.1c-.4 0-.8 0-1.2-.1c-.4-.1-.7-.2-1-.4c-.2-.1-.4-.3-.6-.5c-.1-.2-.2-.4-.2-.7c0-.3.1-.5.2-.7l.6-.6c.3-.1.6-.2 1-.3c.4-.1.8-.1 1.2-.1zm0 2.7c.7 0 1.3-.1 1.7-.2c.4-.2.6-.5.6-.8c0-.3-.2-.6-.6-.8c-.4-.2-1-.3-1.7-.3c-.7 0-1.2.1-1.6.3c-.4.2-.6.5-.6.8c0 .3.2.6.6.8c.4.1.9.2 1.6.2zm13.8-4.6h1.3v.7h-8.3v-.7h6.1c.2-.6.2-1.1.3-1.5V1.7h-5.4v-.7h6.2s.02.7 0 .7v1.2c0 .4-.1.9-.2 1.5zm-6 5.2V6.3h6.2v3.3h-6.2zm.8-2.6v1.9h4.6V7h-4.6zM224 .5h.8v5.5h-.8V3.6h-1.2v2.3h-.8V.7h.8v2.2h1.2V.5zm-2.7 2.8c0 .3 0 .6-.1.9c-.1.2-.3.4-.5.6c-.2.2-.4.4-.6.5c-.3.1-.6.1-.9.1c-.3 0-.5 0-.8-.1c-.2-.1-.5-.3-.7-.5c-.1-.2-.3-.4-.4-.6c-.1-.3-.1-.6-.1-.9c0-.3 0-.6.1-.9c.1-.3.3-.5.4-.7c.2-.2.5-.3.7-.4c.3-.1.5-.2.8-.2c.3 0 .6.1.9.2c.2.1.4.2.6.4c.2.2.4.4.5.7c.1.3.1.6.1.9zm-3.4 0c0 .2 0 .4.1.6c.1.1.2.3.3.4c.1.2.2.3.4.3c.2.1.3.1.5.1c.4 0 .7-.1 1-.4c.2-.2.4-.6.4-1c0-.5-.2-.8-.4-1.1c-.3-.2-.6-.4-1-.4c-.2 0-.3.1-.5.1c-.2.1-.3.2-.4.3c-.1.2-.2.3-.3.5c-.1.2-.1.4-.1.6zm.7 3.9v-.7h6.2v3.2h-.8V7.2h-5.4zm11.8-3.3c-1 0-1.8-.2-2.4-.4c-.6-.3-.8-.7-.8-1.2c0-.5.2-.9.8-1.2c.6-.3 1.4-.4 2.4-.4c1 0 1.8.1 2.3.4c.6.3.9.7.9 1.2c0 .5-.3.9-.9 1.2c-.5.2-1.3.4-2.3.4zm0-2.6c-.8 0-1.4.1-1.8.3c-.4.1-.6.4-.6.7c0 .3.2.5.6.7c.4.2 1 .2 1.8.2c.7 0 1.3 0 1.7-.2c.4-.2.6-.4.6-.7c0-.3-.2-.6-.6-.7c-.4-.2-1-.3-1.7-.3zm-4.2 3.2h8.3v.7h-8.3v-.7zm1.9 3.5v.9h5.6v.7h-6.4V7.4h5.3v-.8h-5.4v-.7h6.3v2.1h-5.4zM244.2.5h.8v5.5h-.8V3.6h-1.8v-.7h1.8V.5zM242.9 5l-.4.7c-.5-.2-1-.5-1.4-.9c-.3-.3-.6-.7-.8-1.2c-.2.5-.5 1-.9 1.4c-.4.4-.9.7-1.4.9l-.5-.7c.4-.1.7-.3 1-.5c.3-.2.5-.4.7-.7c.2-.2.4-.5.5-.8c.1-.3.1-.7.1-1c.04.01 0-.4 0-.4h-2v-.6h4.9v.6h-2s-.02.41 0 .4c0 .3 0 .6.1.9c.2.3.3.5.5.8c.2.2.4.5.7.6c.3.2.6.4.9.5zm-4 2.2v-.7h6.1v3.2h-.8V7.2h-5.3zM253.4.6h.8v5h-.8v-5zm-1.2 3.8l.1.7c-.3 0-.7.1-1 .1c-.4.1-.8.1-1.1.1c-.4 0-.7.1-1.1.1h-1.2c0-.02-.7 0-.7 0V2.8h3.3V1.7h-3.4v-.7h4.2v2.5H248s-.02 1.19 0 1.2h1.1c.4 0 .7 0 1.1-.1h1c.3-.1.7-.1 1-.2zm1.2 2.7V6h.8v3.6h-5.9V6h.8v1.1h4.3zm0 1.8V7.8h-4.3v1.1h4.3zm9.4-8.4h.8v9.2h-.8V5.1h-1.2v4.1h-.7V.7h.7v3.7h1.2V.5zm-4.3.3v1.3h1.9v.7h-4.5v-.7h1.8V.8h.8zm-.4 2.6c.3 0 .6 0 .8.1c.3.2.5.3.6.5c.2.2.3.4.4.6c.1.3.2.6.2.9c0 .3-.1.6-.2.8c-.1.3-.2.5-.4.7c-.1.2-.3.3-.6.4c-.2.1-.5.2-.8.2c-.3 0-.5-.1-.8-.2c-.2-.1-.4-.2-.6-.4c-.1-.2-.3-.4-.4-.7c-.1-.2-.1-.5-.1-.8c0-.3 0-.6.1-.9c.1-.2.3-.4.4-.6c.2-.2.4-.3.6-.5c.3-.1.5-.1.8-.1zm0 3.5c.4 0 .7-.2.9-.4c.2-.3.3-.6.3-1v-.6c-.1-.1-.2-.3-.3-.4c-.1-.1-.2-.2-.4-.3c-.1-.1-.3-.1-.5-.1c-.3 0-.6.1-.9.4c-.2.2-.3.6-.3 1c0 .4.1.7.4 1c.2.2.5.4.8.4zM273.8.5h.8v9.2h-.8V.5zm-6.1 1s4.25.03 4.3 0c0 .7-.1 1.3-.3 1.9c-.1.7-.4 1.2-.7 1.8c-.4.5-.8 1-1.4 1.5c-.5.5-1.1.9-1.9 1.3l-.5-.7c1.3-.6 2.2-1.3 2.8-2.2c.7-.8 1-1.8 1.1-2.9h-3.4v-.7zm15.8-.6v4h-6.2v-4h.9v1.3h4.5V.9h.8zm-.8 3.3V2.8h-4.5v1.4h4.5zm1.9 1.8v.6h-3.8v3.1h-.8V6.6h-3.7v-.6h8.3zm9.4-1.7v.7h-1.5v4.7h-.8V.6h.8v3.7h1.5zM288.6.7v1.3h2.2v.7h-5.4v-.7h2.3V.7h.9zm-.4 2.7c.3 0 .6.1.9.2c.2.1.5.2.7.4c.2.2.3.4.4.7c.1.3.2.5.2.8c0 .4-.1.6-.2.9c-.1.3-.2.5-.4.7c-.2.2-.5.3-.7.4c-.3.1-.6.1-.9.1c-.4 0-.6 0-.9-.1c-.3-.1-.5-.2-.7-.4c-.2-.2-.4-.4-.5-.7c-.1-.3-.1-.5-.1-.9c0-.3 0-.5.1-.8c.1-.3.3-.5.5-.7c.2-.2.4-.3.7-.4c.3-.1.5-.2.9-.2zm0 3.6c.2 0 .4-.1.6-.2c.1 0 .3-.1.4-.2c.1-.2.2-.3.3-.5c.1-.2.1-.3.1-.6c0-.2 0-.3-.1-.5c-.1-.2-.2-.3-.3-.5c-.1-.1-.3-.2-.4-.3c-.2 0-.4-.1-.6-.1c-.2 0-.4.1-.6.1c-.2.1-.3.2-.5.3c-.1.2-.2.3-.3.5c0 .2-.1.3-.1.5c0 .3.1.4.1.6c.1.2.2.3.3.5c.2.1.3.2.5.2c.2.1.4.2.6.2zM302 3.3v.7h-6.2V.9h.8v2.4h5.4zm-7.3 1.9h8.2v.7h-8.2v-.7zm1.9 1.6v2h5.5v.7h-6.4V6.8h.9zM312.8.5h.8v5.4h-.8V3.5h-1.2v2.4h-.8V.7h.8v2.2h1.2V.5zm-6.4.7s3.6-.05 3.6 0c0 1.1-.3 2-.8 2.9c-.6.8-1.5 1.5-2.8 2l-.4-.6c.7-.3 1.2-.6 1.7-.9c.4-.3.7-.7 1-1.2c-.03.04-2.6.3-2.6.3L306 3s2.96-.17 3-.2c0-.1.1-.3.1-.5c0-.1 0-.3.1-.5c-.04.04-2.8 0-2.8 0v-.6zm1.2 8.4V6.4h6v3.2h-6zm.9-2.6v1.9h4.3V7h-4.3zM322.1.6h.8v9.1h-.8V.6zM320.4 4V.8h.7v8.4h-.7V4.8h-1.3v-.8h1.3zm-1.8-1.6s.02 4.22 0 4.2h.5c.2 0 .3-.1.5-.1v.6c-.3.1-.7.2-1.1.2c-.4 0-.8.1-1.2.1h-2.2l-.1-.7s.69.04.7 0h.2c.04.03 0-4.3 0-4.3h-.7v-.7h4.2v.7h-.8zm-1.9 0v4.3h1.2c-.05-.03 0-4.3 0-4.3h-1.2zM331.8.6v6.6h-.8V.6h.8zm-2.5 2.8c0 .4-.1.7-.2.9c-.1.3-.3.6-.5.8c-.2.2-.5.3-.8.4c-.3.1-.6.2-.9.2c-.4 0-.7-.1-1-.2c-.3-.1-.5-.2-.7-.4c-.2-.2-.4-.5-.5-.8c-.1-.2-.2-.5-.2-.9c0-.3.1-.6.2-.9c.1-.3.3-.5.5-.7c.2-.2.4-.3.7-.5c.3-.1.6-.1 1-.1c.3 0 .6 0 .9.1c.3.2.6.3.8.5c.2.2.4.4.5.7c.1.3.2.6.2.9zm-4 0c0 .3.1.5.1.6c.1.2.2.4.4.5c.1.2.3.3.5.4c.1 0 .4.1.6.1c.2 0 .4-.1.6-.1c.2-.1.4-.2.5-.4c.2-.1.3-.3.3-.5c.1-.1.2-.3.2-.6c0-.2-.1-.4-.2-.6c0-.2-.1-.3-.3-.5c-.1-.1-.3-.2-.5-.3c-.2-.1-.4-.1-.6-.1c-.2 0-.5 0-.6.1c-.2.1-.4.2-.5.3c-.2.2-.3.3-.4.5c0 .2-.1.4-.1.6zm1.4 5.4h5.4v.7h-6.2v-3h.8v2.3zM340.1.5h.9v9.2h-.9V.5zm-4 .7c.4 0 .7.1 1 .3c.3.1.5.3.7.6c.2.3.4.6.5 1c.1.4.2.8.2 1.3c0 .5-.1 1-.2 1.4c-.1.3-.3.7-.5 1c-.2.2-.4.5-.7.6c-.3.2-.6.2-1 .2c-.3 0-.6 0-.9-.2c-.3-.1-.5-.4-.7-.6c-.2-.3-.4-.7-.5-1c-.1-.4-.2-.9-.2-1.4c0-.5.1-.9.2-1.3c.1-.4.3-.7.5-1c.2-.3.4-.5.7-.6c.3-.2.6-.3.9-.3zm0 .8c-.2 0-.4.1-.6.2c-.2.1-.3.3-.5.5c-.1.2-.2.4-.3.7c-.1.3-.1.7-.1 1c0 .4 0 .7.1 1c.1.3.2.6.3.8c.2.2.3.4.5.5c.2.1.4.2.6.2c.3 0 .5-.1.6-.2c.2-.1.4-.3.5-.5c.2-.2.3-.5.3-.8c.1-.3.1-.6.1-1c0-.3 0-.7-.1-1c0-.3-.1-.5-.3-.7c-.1-.2-.3-.4-.5-.5c-.1-.1-.3-.2-.6-.2zm15.1 2.2v.6h-1.5v4.9h-.9V.5h.9v3.7h1.5zm-7.3-2.1s-.03 4.61 0 4.6h2.1c.4-.1.7-.1 1-.1c.3-.1.7-.1 1-.2l.1.7c-.4.1-.7.1-1 .2c-.4 0-.7 0-1.1.1h-2.2c-.04.03-.8 0-.8 0v-6h4.3v.7h-3.4zm7.8 7v-1h.9v1h-.9z" stroke="none" fill="#111111"/></g></svg>