<?xml version="1.0" standalone="no"?><!DOCTYPE svg PUBLIC "-//W3C//DTD SVG 1.1//EN" "http://www.w3.org/Graphics/SVG/1.1/DTD/svg11.dtd"><svg xmlns="http://www.w3.org/2000/svg" version="1.1" width="162px" height="19.6px" viewBox="0 -2 162 19.6" style="top:-2px"><desc>기아 드림(Dream) 장학금</desc><defs/><g id="Polygon110177"><path d="m8.1.5h1.6v11.1H8.1V.5zm-7 1.2s5.33-.02 5.3 0c0 .8 0 1.6-.2 2.4c-.2.8-.4 1.5-.8 2.2c-.4.6-.9 1.3-1.6 1.8c-.6.6-1.4 1.1-2.4 1.6L.5 8.5c.7-.4 1.4-.7 1.9-1.1c.5-.4.9-.8 1.2-1.3c.4-.4.7-.9.8-1.5c.2-.5.4-1.1.4-1.7c.01.04-3.7 0-3.7 0V1.7zm20.7 3v1.3h-1.7v5.6h-1.5V.5h1.5v4.2h1.7zm-7.3-3.4c.4 0 .8.1 1.1.3c.4.2.7.4.9.8c.3.3.5.7.6 1.2c.2.5.3 1 .3 1.6c0 .7-.1 1.2-.3 1.7c-.1.5-.3.9-.6 1.2c-.2.4-.5.6-.9.8c-.3.2-.7.3-1.1.3c-.5 0-.8-.1-1.2-.3c-.4-.2-.7-.4-.9-.8c-.3-.3-.5-.7-.6-1.2c-.2-.5-.2-1-.2-1.7c0-.6 0-1.1.2-1.6c.1-.5.3-.9.6-1.2c.2-.4.5-.6.9-.8c.4-.2.7-.3 1.2-.3zm0 6.5c.4 0 .7-.2 1-.7c.2-.4.3-1 .3-1.9c0-.8-.1-1.4-.3-1.8c-.3-.5-.6-.7-1-.7c-.5 0-.8.2-1 .7c-.3.4-.4 1-.4 1.8c0 .9.1 1.5.4 1.9c.2.5.5.7 1 .7zm19.6-2.2v1.3h-7.8V1.5h7.7v1.2h-6.1v2.9h6.2zm-9 3.4h10v1.3h-10V9zM43.7.6h1.6v6.5h-1.6V.6zm-.9 4.6l.2 1.2c-.4.1-.8.1-1.2.2c-.4 0-.9 0-1.3.1h-2.8c-.04.03-1 0-1 0V3.3h3.5v-.9h-3.5V1.2h5.1v3.3h-3.6s.04.96 0 1c.5 0 .9 0 1.3-.1h1.2c.3 0 .7-.1 1-.1c.4 0 .7-.1 1.1-.1zm-4.9 6.3V7.6h7.4v3.9h-7.4zm1.6-2.7v1.4h4.3V8.8h-4.3zm11 3.2l-1.1.5c-.6-.9-1-1.9-1.3-2.9c-.3-1-.5-2.1-.5-3.3c0-1.2.2-2.3.5-3.3c.3-1 .7-2 1.3-2.9l1.1.5c-.5.8-.9 1.8-1.1 2.7c-.3 1-.4 2-.4 3c0 1 .1 2 .4 3c.2.9.6 1.8 1.1 2.7zm1.7-1.4V1.7s2.39-.02 2.4 0c.7 0 1.3.1 1.8.2c.6.2 1 .5 1.4.9c.4.3.7.8.9 1.3c.2.6.3 1.2.3 2c0 .7-.1 1.4-.3 1.9c-.2.6-.5 1.1-.9 1.4c-.4.4-.8.7-1.3.9c-.6.2-1.2.3-1.8.3c-.02-.04-2.5 0-2.5 0zm1.7-1.5s.58.03.6 0c.8 0 1.5-.2 1.9-.7c.5-.5.8-1.2.8-2.3c0-.6-.1-1-.2-1.4c-.1-.4-.3-.7-.6-.9c-.2-.3-.5-.4-.8-.5c-.3-.1-.7-.2-1.1-.2h-.6v6zm6.6 1.5V3.8h1.5l.1 1.2s.02.03 0 0c.3-.4.6-.7.9-1c.3-.2.7-.3 1-.3h.5c.1 0 .2.1.3.1l-.3 1.5h-.3c-.1-.1-.2-.1-.4-.1c-.2 0-.5.1-.8.3c-.3.2-.5.6-.7 1.1c-.03-.05 0 4 0 4h-1.8zm8.1.1c-.5 0-.9-.1-1.3-.2c-.4-.2-.8-.4-1.1-.7c-.3-.3-.5-.7-.7-1.1c-.1-.4-.2-.9-.2-1.5c0-.5.1-1 .2-1.5c.2-.4.4-.8.7-1.1c.3-.3.7-.5 1-.7c.4-.1.8-.2 1.2-.2c.5 0 .9.1 1.2.2c.4.2.7.4.9.7c.2.3.4.6.5 1c.1.4.2.8.2 1.3v.5c0 .1-.1.2-.1.3H67c.1.5.3 1 .6 1.2c.3.3.7.5 1.2.5c.3 0 .6-.1.8-.1c.3-.1.5-.2.8-.4L71 10c-.4.2-.7.4-1.1.5c-.4.2-.9.2-1.3.2zM67 6.5h2.7c0-.4-.1-.8-.3-1.1c-.2-.2-.5-.4-1-.4c-.3 0-.7.2-.9.4c-.3.3-.5.6-.5 1.1zm7.3 4.2c-.6 0-1.1-.2-1.5-.6c-.4-.3-.5-.8-.5-1.4c-.1-.8.2-1.4.8-1.8c.6-.4 1.6-.6 3-.6c.1-.3 0-.6-.1-.9c-.2-.2-.5-.3-1-.3c-.3 0-.7 0-1 .2c-.3.1-.7.2-1 .4l-.5-1.2c.4-.3.8-.4 1.3-.6c.5-.2 1-.2 1.5-.2c1.7 0 2.6 1 2.6 2.9v4h-1.4l-.2-.7s-.02-.02 0 0c-.3.2-.6.4-1 .6c-.3.1-.7.2-1 .2zm.5-1.4c.3 0 .5 0 .7-.1c.2-.1.4-.3.6-.5V7.3c-.2 0-.4.1-.6.1c-.2 0-.4 0-.6.1c-.4 0-.6.1-.8.3c-.2.2-.2.4-.2.6c0 .3.1.5.3.7c.1.2.3.2.6.2zm4.8 1.3V3.8h1.5l.1.9s.04.04 0 0c.3-.3.6-.5 1-.7c.3-.2.7-.3 1.1-.3c.5 0 .9.1 1.2.3c.3.2.5.5.7.8c.3-.3.6-.6.9-.8c.4-.2.7-.3 1.2-.3c.7 0 1.2.2 1.6.7c.3.5.5 1.1.5 2c-.02-.03 0 4.2 0 4.2h-1.8v-4c0-.5-.1-.9-.2-1.1c-.2-.2-.4-.3-.7-.3c-.4 0-.8.2-1.3.7c-.02.04 0 4.7 0 4.7h-1.8s.02-4.01 0-4c0-.5-.1-.9-.2-1.1c-.2-.2-.4-.3-.7-.3c-.4 0-.8.2-1.3.7c-.02.04 0 4.7 0 4.7h-1.8zm12.3 1.9l-1.1-.5c.5-.9.9-1.8 1.1-2.7c.3-1 .4-2 .4-3c0-1-.1-2-.4-3c-.2-.9-.6-1.9-1.1-2.7l1.1-.5c.6.9 1 1.9 1.3 2.9c.4 1 .5 2.1.5 3.3c0 1.2-.2 2.3-.5 3.3c-.3 1-.7 2-1.3 2.9zm14.6-9.4h1.5v1.3h-1.5v2.7H105V.5h1.5v2.6zm-2.1 2.5l-.7 1.2c-.6-.2-1.1-.5-1.6-.8c-.4-.4-.7-.8-1-1.2c-.2.5-.5 1-1 1.4c-.4.4-1 .8-1.6 1l-.8-1.3c.4-.1.8-.3 1.1-.6c.4-.2.6-.5.9-.8c.2-.3.3-.6.4-.9c.1-.4.2-.7.2-1.1c-.01.04-2.2 0-2.2 0V1.3h6v1.2s-2.19.04-2.2 0c0 .4.1.7.2 1c.1.3.2.6.4.8c.2.3.5.5.8.7c.3.3.7.4 1.1.6zm-1.5 1.7c.6 0 1.1 0 1.6.1c.4.1.8.3 1.2.5c.3.2.5.4.7.7c.2.2.3.5.3.9c0 .3-.1.6-.3.9c-.2.2-.4.4-.7.6c-.4.2-.8.4-1.2.4c-.5.1-1 .2-1.6.2c-.5 0-1.1-.1-1.5-.2c-.5 0-.9-.2-1.2-.4c-.3-.2-.6-.4-.8-.6c-.1-.3-.2-.6-.2-.9c0-.4.1-.7.2-.9c.2-.3.5-.5.8-.7c.3-.2.7-.4 1.2-.5c.4-.1 1-.1 1.5-.1zm-2.1 2.2c0 .6.7.9 2.1.9c.7 0 1.3-.1 1.6-.2c.4-.2.6-.4.6-.7c0-.4-.2-.6-.6-.8c-.3-.1-.9-.2-1.6-.2c-1.4 0-2.1.3-2.1 1zm14.5-8v1.3h-6.5V1.5h2.5v-1h1.6v1h2.4zm3.7 1.9v1.3h-1.5v2.8h-1.6v-7h1.6v2.9h1.5zm-4.2 1.7c0 .3-.1.6-.2.9c-.1.2-.3.4-.6.6c-.2.2-.5.3-.8.4c-.4.1-.7.2-1.1.2c-.4 0-.8-.1-1.1-.2c-.4-.1-.6-.2-.9-.4c-.2-.2-.4-.4-.5-.6c-.2-.3-.2-.6-.2-.9c0-.3 0-.5.2-.8c.1-.2.3-.5.5-.6c.3-.2.5-.3.9-.4c.3-.1.7-.2 1.1-.2c.4 0 .7.1 1.1.2c.3.1.6.2.8.4c.3.1.5.4.6.6c.1.3.2.5.2.8zm-3.9 0c0 .3.1.5.3.7c.2.1.5.2.9.2c.3 0 .6-.1.8-.2c.3-.2.4-.4.4-.7c0-.2-.1-.5-.4-.6c-.2-.1-.5-.2-.8-.2c-.4 0-.7.1-.9.2c-.2.1-.3.4-.3.6zm-.7 4.1V7.9h7.3v3.7h-1.6V9.2h-5.7zM128.4 5c-.01.02 1.4 0 1.4 0v1.3h-10V5s7.01.02 7 0c.1-.5.2-1 .2-1.5c.1-.4.1-.8.1-1.2c-.02-.01-6.1 0-6.1 0V1h7.6s.04.92 0 .9v1.4c0 .5-.1 1.1-.2 1.7zm-7.4 6.5V7.4h7.6v4.1H121zm1.5-2.8v1.5h4.5V8.7h-4.5z" stroke="none" fill="#fff"/></g></svg>