<?xml version="1.0" standalone="no"?><!DOCTYPE svg PUBLIC "-//W3C//DTD SVG 1.1//EN" "http://www.w3.org/Graphics/SVG/1.1/DTD/svg11.dtd"><svg xmlns="http://www.w3.org/2000/svg" version="1.1" width="30px" height="76.1px" viewBox="0 -7 30 76.1" style="top:-7px"><desc>3</desc><defs/><g id="Polygon119188"><path d="m2.3 34.7l4.9-2c.1.9.3 1.8.8 2.7c.5.9 1.1 1.6 1.8 2.3c.7.6 1.5 1.1 2.4 1.5c.9.4 1.8.6 2.7.6c1 0 1.9-.2 2.7-.5c.9-.3 1.6-.7 2.3-1.3c.6-.5 1.1-1.2 1.5-2c.4-.8.6-1.6.6-2.6c0-1.4-.3-2.5-.8-3.3c-.5-.9-1.2-1.5-2-1.9c-.8-.5-1.8-.8-2.8-.9c-1.1-.1-2.2-.2-3.3-.2v-4c1 0 2-.1 3-.2c1-.2 1.9-.5 2.7-1c.7-.4 1.3-1 1.8-1.8c.5-.8.8-1.8.8-3c0-1.8-.6-3.2-1.6-4.2c-1.1-1-2.5-1.5-4.4-1.5c-.9 0-1.8.1-2.6.5c-.9.3-1.6.8-2.2 1.4c-.6.6-1.1 1.3-1.4 2.2c-.3.8-.4 1.7-.3 2.7l-5.5-.9c.5-3.3 1.8-5.9 3.9-7.8c2.2-1.9 5-2.8 8.5-2.8c1.3 0 2.7.2 4 .6c1.3.4 2.5 1 3.5 1.8c1 .8 1.9 1.7 2.5 2.9c.6 1.2.9 2.6.9 4.2c0 2.1-.5 3.9-1.4 5.3c-1 1.4-2.6 2.4-4.7 3.1c2.2.6 3.9 1.6 5.1 3c1.2 1.4 1.8 3.3 1.8 5.7c0 1.7-.3 3.3-1 4.7c-.7 1.4-1.6 2.5-2.7 3.5c-1.1 1-2.5 1.7-4 2.2c-1.5.5-3.1.8-4.8.8c-3.4 0-6.1-.8-8.2-2.4c-2-1.6-3.5-4-4.5-7.4z" stroke="none" fill="#949596"/></g></svg>