<?xml version="1.0" standalone="no"?><!DOCTYPE svg PUBLIC "-//W3C//DTD SVG 1.1//EN" "http://www.w3.org/Graphics/SVG/1.1/DTD/svg11.dtd"><svg xmlns="http://www.w3.org/2000/svg" version="1.1" width="409.3px" height="26.8px" viewBox="0 -3 409.3 26.8" style="top:-3px"><desc>굿 모빌리티 캠페인</desc><defs/><g id="Polygon115799"><path d="m12.7 6.9c0-.05 2.1 0 2.1 0v1.4H8.7v2.2H6.9V8.3h-6V6.9s10.05-.05 10 0c.2-.9.3-1.6.4-2.2V2.9c.02.04-8.7 0-8.7 0V1.5H13s.04 1.07 0 1.1v1.8c0 .7-.1 1.5-.3 2.5zm-4 4.2s-.03.51 0 .5c0 .4.1.8.3 1.1c.3.4.6.7 1 1c.5.3 1 .5 1.6.8c.6.2 1.3.3 2.1.4l-.6 1.3c-1.2-.1-2.3-.4-3.2-.9c-1-.4-1.7-1-2.1-1.7c-.5.7-1.2 1.3-2.1 1.7c-.9.5-2 .8-3.3.9l-.6-1.3c.8-.1 1.5-.2 2.1-.5c.6-.2 1.1-.4 1.6-.7c.4-.3.8-.6 1-1c.2-.3.4-.7.4-1.1c-.03.01 0-.5 0-.5h1.8zM27.9 13h6.2v1.4h-14V13h6.1V9.5h-4.5V2.1h10.7v7.4h-4.5v3.5zm-4.5-9.5v4.6h7.3V3.5h-7.3zM48.3.9v8h-1.7v-8h1.7zm-4.5.6v6.8h-7.3V1.5h1.7v2.1h3.8V1.5h1.8zM42 6.9v-2h-3.8v2h3.8zm-2 7.9h8.8v1.3H38.3v-3.9h8.3V11h-8.3V9.6h10v3.8H40v1.4zM62.2.9h1.7v15.4h-1.7V.9zM53.9 8v3.2c1.2 0 2.4-.1 3.5-.1c1.1-.1 2.3-.2 3.5-.4l.2 1.4l-2 .3c-.6.1-1.2.1-1.8.2h-3.9c.03.05-1.3 0-1.3 0v-6h5.4V3.7h-5.4V2.3h7.1v5.7h-5.3zM77.7.9h1.8v15.4h-1.8V.9zM69.5 8s-.04 3.25 0 3.3c.6 0 1.2-.1 1.8-.1h1.6c.6-.1 1.1-.1 1.6-.2c.6 0 1.1-.1 1.7-.2l.1 1.4c-.6.1-1.2.2-1.7.3c-.6 0-1.2.1-1.8.1c-.6 0-1.2.1-1.8.1h-2c-.01-.02-1.3 0-1.3 0V2.2h7.6v1.5h-5.8v2.8h5.2v1.5h-5.2zM97.4.9h1.7v9h-1.7V6.1h-1.7v3.7h-1.6V1.2h1.6v3.5h1.7V.9zm-10.5 1s5.99.02 6 0c0 1-.1 1.9-.3 2.7c-.3.8-.6 1.6-1.1 2.3c-.5.7-1.1 1.3-1.8 1.9c-.8.6-1.7 1.1-2.7 1.5L86.1 9c1-.4 1.9-.8 2.5-1.3c.7-.5 1.2-1.1 1.6-1.7l-3.8.4l-.2-1.4s4.63-.29 4.6-.3c.1-.2.2-.4.2-.7c.1-.2.1-.4.1-.7c.02.03-4.2 0-4.2 0V1.9zm2 14.2v-5.5h10.2v5.5H88.9zm1.7-4.1v2.7h6.8V12h-6.8zM113.2.9h1.7v15.4h-1.7V.9zm-3 5.7V1.3h1.6v14.2h-1.6V8.2h-1.9V6.6h1.9zm-2.6-2.4s.03 6.77 0 6.8c.3-.1.5-.1.8-.1c.2 0 .4-.1.7-.1l.1 1.3l-1.9.3c-.7 0-1.4.1-2 .1c-.7.1-1.3.1-2 .1h-1.6c-.02.01-.2-1.4-.2-1.4h1.4v-7h-1.1V2.8h7v1.4h-1.2zm-3.1 0s-.02 6.94 0 6.9h1.5c.03-.03 0-6.9 0-6.9h-1.5zM129.8.9v11.2h-1.7V.9h1.7zm-4.2 4.9c0 .5-.1 1-.3 1.5c-.2.5-.5.9-.8 1.2c-.4.4-.8.6-1.3.8c-.5.2-1.1.3-1.6.3c-.6 0-1.1-.1-1.6-.3c-.5-.2-1-.4-1.3-.8c-.4-.3-.7-.7-.9-1.2c-.2-.5-.3-1-.3-1.5c0-.6.1-1.1.3-1.6c.2-.4.5-.9.9-1.2c.3-.3.8-.6 1.3-.8c.5-.2 1-.3 1.6-.3c.5 0 1.1.1 1.6.3c.5.2.9.5 1.3.8c.3.3.6.8.8 1.2c.2.5.3 1 .3 1.6zm-6.4 0c0 .7.2 1.2.7 1.7c.4.4 1 .6 1.7.6c.3 0 .6 0 .9-.2c.3-.1.5-.2.7-.4c.3-.2.4-.5.6-.8c.1-.3.1-.6.1-.9c0-.4 0-.7-.1-1c-.2-.3-.3-.5-.6-.7c-.2-.2-.4-.4-.7-.5c-.3-.1-.6-.1-.9-.1c-.7 0-1.3.2-1.7.6c-.5.4-.7 1-.7 1.7zm2.4 8.8h8.7v1.4h-10.5v-5.1h1.8v3.7z" stroke="none" fill="#111111"/></g></svg>