<?xml version="1.0" standalone="no"?><!DOCTYPE svg PUBLIC "-//W3C//DTD SVG 1.1//EN" "http://www.w3.org/Graphics/SVG/1.1/DTD/svg11.dtd"><svg xmlns="http://www.w3.org/2000/svg" version="1.1" width="162px" height="19.6px" viewBox="0 -2 162 19.6" style="top:-2px"><desc>임직원 봉사단</desc><defs/><g id="Polygon110595"><path d="m8.1.5h1.6v6.3H8.1V.5zM3.7 1c.4 0 .8.1 1.2.2c.3.2.7.4.9.6c.3.2.5.5.7.8c.1.4.2.7.2 1.1c0 .4-.1.7-.2 1.1c-.2.3-.4.6-.7.8c-.2.2-.6.4-.9.6c-.4.1-.8.2-1.2.2c-.4 0-.8-.1-1.2-.2c-.4-.2-.7-.4-1-.6c-.2-.2-.4-.5-.6-.8c-.2-.4-.2-.7-.2-1.1c0-.4 0-.7.2-1.1c.2-.3.4-.6.6-.8c.3-.2.6-.4 1-.6c.4-.1.8-.2 1.2-.2zm0 1.4c-.4 0-.8.1-1.1.3c-.2.2-.4.6-.4 1c0 .4.2.8.4 1c.3.2.7.3 1.1.3c.4 0 .7-.1 1-.3c.3-.2.4-.6.4-1c0-.4-.1-.8-.4-1c-.3-.2-.6-.3-1-.3zM2.3 7.3h7.4v4.2H2.3V7.3zm5.8 1.2H3.9v1.7h4.2V8.5zm11-8h1.6v6.7h-1.6V.5zm-.7 5.1l-.8 1.2c-.6-.2-1.2-.4-1.6-.8c-.4-.4-.7-.8-1-1.3c-.2.5-.6 1-1 1.4c-.5.4-1 .7-1.7.9l-.8-1.2c.5-.1.9-.3 1.2-.6c.3-.2.6-.5.8-.8c.2-.3.4-.6.5-.9c.1-.4.2-.7.2-1.1c-.02.05-2.2 0-2.2 0V1.2h6v1.2s-2.21.05-2.2 0c0 .4.1.7.2 1c.1.3.2.6.4.9c.2.3.5.5.8.8c.4.2.7.4 1.2.5zM13.2 9V7.7h7.5v3.9h-1.6V9h-5.9zm14.9-2h2.1V.5h1.6v8.4h-1.6v-.9h-2.1v-1zM26 4.9c-.4 0-.8-.1-1.1-.2c-.4-.1-.7-.2-.9-.4l-.6-.6c-.1-.2-.2-.5-.2-.8c0-.3.1-.6.2-.8c.2-.3.4-.5.6-.6c.2-.2.5-.3.9-.4c.3-.1.7-.2 1.1-.2c.4 0 .8.1 1.1.2c.3.1.6.2.9.4c.2.1.4.3.5.6c.2.2.2.5.2.8c0 .3 0 .6-.2.8c-.1.2-.3.4-.5.6c-.3.2-.6.3-.9.4c-.3.1-.7.2-1.1.2zm0-2.8c-.4 0-.7 0-.9.2c-.3.1-.4.3-.4.6c0 .3.1.5.4.6c.2.1.5.2.9.2c.4 0 .7-.1.9-.2c.2-.1.3-.3.3-.6c0-.3-.1-.5-.3-.6c-.2-.2-.5-.2-.9-.2zm-.6 8h6.6v1.3h-8.2V8.1h1.6s-.04-1.46 0-1.5c-.5.1-1 .1-1.5.1h-1.3l-.2-1.3h3.4c.6 0 1.2-.1 1.9-.1c.6-.1 1.2-.1 1.8-.2l.1 1.1c-.5.1-.9.2-1.3.2c-.5.1-.9.1-1.4.1c.03.04 0 2.1 0 2.1h-1.5v1.5zm16.5-4.2h4.2v1.2h-10V5.9h4.2v-.9h-2.9V.9h1.6v.9h4.3v-.9h1.5v4.1h-2.9v.9zM39 3v.8h4.3v-.8H39zm2.1 4.7c1.2 0 2.1.1 2.8.5c.7.3 1 .8 1 1.4c0 .7-.3 1.2-1 1.5c-.7.3-1.6.5-2.8.5c-1.2 0-2.1-.2-2.8-.5c-.7-.3-1-.8-1-1.5c0-.6.3-1.1 1-1.4c.7-.4 1.6-.5 2.8-.5zm0 2.7c.7 0 1.3 0 1.7-.2c.3-.1.5-.3.5-.6c0-.3-.2-.5-.5-.6c-.4-.1-1-.2-1.7-.2c-.8 0-1.3.1-1.7.2c-.4.1-.5.3-.5.6c0 .3.1.5.5.6c.4.2.9.2 1.7.2zm16.3-5.6v1.3h-1.6v5.5h-1.6V.5h1.6v4.3h1.6zm-6.2-3.4s-.03 1.6 0 1.6c0 .5 0 1 .1 1.5c.1.5.3.9.5 1.4c.2.4.5.8.8 1.1c.3.4.7.7 1.1.9l-.9 1.2c-.6-.3-1.1-.7-1.5-1.2c-.4-.5-.7-1.1-.9-1.8c-.3.7-.6 1.4-1 1.9c-.4.6-1 1-1.6 1.3L46.9 8c.4-.2.8-.5 1.2-.8c.3-.4.6-.8.8-1.2c.2-.5.4-1 .5-1.5c.1-.5.2-1 .2-1.5c-.03 0 0-1.6 0-1.6h1.6zm15.6 2.2h1.4v1.2h-1.4v3.7h-1.6v-8h1.6v3.1zm-2.5 1.5l.2 1.3c-.3 0-.7.1-1 .2c-.4 0-.7 0-1.1.1h-3c.02.03-.9 0-.9 0V1.4h4.9v1.3h-3.3s-.03 2.76 0 2.8c.5 0 .9 0 1.3-.1h1.1c.3 0 .6-.1.9-.1c.3-.1.6-.1.9-.2zm-3.1 2.6v2.4h6v1.3h-7.5V7.7h1.5z" stroke="none" fill="#fff"/></g></svg>