<?xml version="1.0" standalone="no"?><!DOCTYPE svg PUBLIC "-//W3C//DTD SVG 1.1//EN" "http://www.w3.org/Graphics/SVG/1.1/DTD/svg11.dtd"><svg xmlns="http://www.w3.org/2000/svg" version="1.1" width="30px" height="76.1px" viewBox="0 -7 30 76.1" style="top:-7px"><desc>8</desc><defs/><g id="Polygon125230"><path d="m20.8 24.7c2.2.7 3.8 1.8 5 3.3c1.2 1.5 1.8 3.4 1.8 5.7c0 1.8-.4 3.4-1.1 4.8c-.7 1.3-1.6 2.4-2.8 3.3c-1.2.9-2.6 1.5-4.1 2c-1.5.4-3.1.6-4.7.6c-1.7 0-3.3-.2-4.8-.6c-1.6-.5-2.9-1.1-4.1-2c-1.1-.9-2-2.1-2.7-3.4c-.7-1.3-1-2.9-1-4.7c0-2.3.5-4.2 1.7-5.7c1.2-1.5 2.9-2.6 5.1-3.3c-1.9-.7-3.3-1.8-4.2-3.2c-.9-1.4-1.4-3.1-1.4-5c0-1.6.3-3 1-4.2C5.1 11.1 5.9 10 7 9.2c1-.8 2.2-1.5 3.6-1.9c1.4-.4 2.8-.6 4.3-.6c1.5 0 2.9.2 4.3.6c1.4.4 2.6 1.1 3.6 1.9c1.1.8 1.9 1.9 2.6 3.1c.6 1.2.9 2.6.9 4.2c0 1.9-.5 3.6-1.4 5c-.9 1.4-2.3 2.5-4.1 3.2zm-5.9-13.8c-1.8 0-3.3.5-4.4 1.5c-1.1 1-1.6 2.4-1.6 4.2c0 1.9.5 3.4 1.5 4.5c1.1 1 2.6 1.6 4.5 1.6c1.9 0 3.3-.6 4.4-1.6c1.1-1.1 1.7-2.6 1.7-4.5c0-1.9-.6-3.3-1.8-4.3c-1.2-1-2.6-1.4-4.3-1.4zm0 29.2c1 0 1.9-.2 2.7-.4c.9-.3 1.6-.7 2.3-1.3c.6-.5 1.1-1.2 1.5-2c.3-.8.5-1.7.5-2.8c0-2.2-.7-3.8-2-4.9c-1.3-1.1-3-1.6-5-1.6c-2 0-3.7.5-5 1.6c-1.3 1.1-2 2.7-2 4.9c0 2 .7 3.6 2 4.8c1.3 1.1 3 1.7 5 1.7z" stroke="none" fill="#949596"/></g></svg>