<?xml version="1.0" standalone="no"?><!DOCTYPE svg PUBLIC "-//W3C//DTD SVG 1.1//EN" "http://www.w3.org/Graphics/SVG/1.1/DTD/svg11.dtd"><svg xmlns="http://www.w3.org/2000/svg" version="1.1" width="390px" height="128.3px" viewBox="0 -2 390 128.3" style="top:-2px"><desc>그린라이트 임직원 봉사단은 사업장별 자율봉사단과 전사합동 봉사주간의 2개 축으로 이루어져 있다. ‘사업장 봉사단’은 각 사업장별로 인근 지역사회 문제해결을 위해 임직원이 자발적으로 참여하는 정규 봉사단이며, 전...</desc><defs/><g id="Polygon116422"><path d="m7.7 111.8v3.7H1.6v-3.7h.9v1.2h4.4v-1.2h.8zm-.8 3v-1.2H2.5v1.2h4.4zm-6.4 1.6h8.3v.6H5.2v1.8h-.9V117H.5v-.6zm1.9 1.6v1.8h5.5v.7H1.6V118h.8zm14.6-4.1v.7h-6.2v-2.8h6.1v.7h-5.2v1.4h5.3zm-7.3 1.5h8.3v.6H9.7v-.6zm1.9 3.6v.9h5.6v.7h-6.5v-2.2h5.4v-.9h-5.4v-.7h6.2v2.2h-5.3zm14.3-7.5h.8v9.2h-.8v-9.2zm-1.7 3.6v-3.3h.8v8.4h-.8v-4.4h-1.3c-.1.6-.2 1.2-.4 1.7c-.2.6-.5 1.1-.9 1.6l-.6-.4c.3-.4.5-.8.7-1.3c.2-.4.3-.9.4-1.3c.2-.5.2-1 .3-1.4v-1.4c.04.02-.9 0-.9 0v-.7s1.66.03 1.7 0c0 .4 0 .8-.1 1.2c0 .5 0 .9-.1 1.3c.04.03 1.2 0 1.2 0zm-5.1-2.5s2.04.03 2 0v1.5c-.1.5-.1 1-.2 1.5c-.2.5-.3 1-.5 1.5c-.2.5-.5 1-.8 1.4l-.7-.3c.3-.4.5-.8.7-1.2c.2-.4.4-.8.5-1.2c.1-.4.2-.8.2-1.2c.1-.4.1-.9.1-1.3c.03.02-1.3 0-1.3 0v-.7zm17.7-1.1h.9v9.2h-.9v-9.2zm-6.1 1s4.29.03 4.3 0c0 .7-.1 1.3-.2 1.9c-.2.7-.5 1.2-.8 1.8c-.3.5-.8 1-1.3 1.5c-.6.5-1.2.9-2 1.3l-.4-.7c1.2-.6 2.1-1.3 2.8-2.2c.6-.8 1-1.8 1-2.9h-3.4v-.7zm15.9-.6v4h-6.2v-4h.8v1.3h4.5v-1.3h.9zm-.9 3.3v-1.4h-4.5v1.4h4.5zm1.9 1.8v.6h-3.7v3.1h-.9v-3.1h-3.7v-.6h8.3zm6.7-2.3v2.4h-.8v-5.4h.8v2.4h1.1v-2.5h.8v5.6h-.8v-2.5h-1.1zm-1.2-2.1v.7h-4.6v-.7h1.9v-1h.8v1h1.9zm-2.3 4.2c-.3 0-.5 0-.8-.1c-.2 0-.4-.1-.6-.3c-.2-.1-.3-.3-.4-.5c-.1-.2-.2-.4-.2-.6c0-.3.1-.5.2-.7c.1-.2.2-.3.4-.5l.6-.3c.3 0 .5-.1.8-.1c.3 0 .6.1.8.1l.6.3c.2.2.3.3.4.5c.1.2.2.4.2.7c0 .2-.1.4-.2.6c-.1.2-.2.4-.4.5c-.2.2-.4.3-.6.3c-.2.1-.5.1-.8.1zm0-2.5c-.4 0-.7.1-.9.3c-.2.2-.3.4-.3.7c0 .3.1.5.3.7c.2.1.5.2.9.2c.4 0 .7-.1.9-.2c.2-.2.3-.4.3-.7c0-.3-.1-.5-.3-.7c-.2-.2-.5-.3-.9-.3zm4.3 3.2s.02.29 0 .3c0 .2.1.4.1.7c.1.2.2.4.4.6c.2.2.4.3.6.5c.2.1.5.3.8.4l-.4.6c-.5-.2-.9-.4-1.2-.7c-.3-.3-.5-.6-.7-1c-.1.4-.3.7-.6 1c-.3.3-.6.6-1.1.8c-.4-.2-.8-.4-1.1-.7c-.2-.3-.4-.7-.6-1.1c-.1.4-.4.7-.7 1c-.3.3-.7.5-1.1.7l-.4-.6c.3-.1.5-.3.8-.4c.2-.2.4-.4.5-.6c.2-.2.3-.4.4-.6c.1-.2.1-.4.1-.6c.04-.01 0-.3 0-.3h.8s.04.29 0 .3c0 .4.1.8.4 1.1c.2.4.5.7.9 1c.2-.2.4-.3.6-.5c.1-.2.3-.3.4-.5c.1-.2.2-.4.2-.6c.1-.2.1-.3.1-.5v-.3h.8zm11.1-2.3v.6h-1.5v4.9h-.8v-9.2h.8v3.7h1.5zm-7.3-2.1s.03 4.61 0 4.6h2.2c.3-.1.7-.1 1-.1c.3-.1.6-.1.9-.2l.1.7c-.3.1-.6.1-1 .2c-.3 0-.7 0-1 .1h-2.3c.01.03-.7 0-.7 0v-6h4.2v.7h-3.4zm7.9 7v-1h.9v1h-.9z" stroke="none" fill="#111111"/></g><g id="Polygon116421"><path d="m5.7 94v.6H.6v-.6h2.1v-1.1h.9v1.1h2.1zm1.5-.9h.9v5.3h-.9v-.8H5.7v-.6h1.5v-1.1H5.7v-.7h1.5v-2.1zm-2 3.6c0 .3 0 .5-.1.7c-.1.2-.3.4-.5.5c-.1.2-.4.3-.6.4c-.3 0-.5.1-.8.1c-.4 0-.6-.1-.9-.1c-.2-.1-.5-.2-.6-.4c-.2-.1-.4-.3-.5-.5c-.1-.2-.1-.4-.1-.7c0-.2 0-.4.1-.6c.1-.2.3-.4.5-.6c.1-.1.4-.2.6-.3c.3-.1.5-.1.9-.1c.3 0 .5 0 .8.1c.2.1.5.2.6.3c.2.2.4.4.5.6c.1.2.1.4.1.6zm-3.3 0c0 .3.1.6.3.8c.3.2.6.2 1 .2c.3 0 .7 0 .9-.2c.2-.2.3-.5.3-.8c0-.3-.1-.5-.3-.7c-.2-.2-.6-.3-.9-.3c-.4 0-.7.1-1 .3c-.2.2-.3.4-.3.7zm5.4 3.1v-.9h.8v3.2H2.2v-3.2h.8v.9h4.3zm0 1.6v-1H3v1h4.3zm9.1-8.3h.9v4.9h-.9v-2.1s-1.84.01-1.8 0c-.1.6-.4 1-.8 1.3c-.4.3-.9.5-1.6.5c-.3 0-.6 0-.9-.2c-.3-.1-.6-.2-.8-.4c-.2-.2-.3-.4-.5-.7c-.1-.2-.1-.5-.1-.8c0-.3 0-.6.1-.9c.2-.2.3-.5.5-.6c.2-.2.5-.4.8-.5c.3-.1.6-.1.9-.1c.3 0 .6 0 .9.1c.2.1.5.2.7.4c.2.1.4.3.5.5c.1.2.2.5.2.7c.05.02 1.9 0 1.9 0v-2.1zM12.2 97c.2 0 .5 0 .6-.1c.2-.1.4-.2.5-.3c.2-.1.3-.3.4-.4c0-.2.1-.4.1-.6c0-.2-.1-.4-.1-.6c-.1-.2-.2-.3-.4-.4c-.1-.2-.3-.3-.5-.3c-.1-.1-.4-.1-.6-.1c-.2 0-.4 0-.6.1c-.2 0-.4.1-.5.3c-.1.1-.2.2-.3.4c-.1.2-.1.4-.1.6c0 .2 0 .4.1.6c.1.1.2.3.3.4c.1.1.3.2.5.3c.2.1.4.1.6.1zm4.2 2.6v-1.2h.9v3.7h-5.9v-3.7h.8v1.2h4.2zm0 1.8v-1.2h-4.2v1.2h4.2zm9.4-8.4h.9v9.2h-.9v-4.6h-1.1v4.1h-.8v-8.5h.8v3.7h1.1V93zm-4.2.3v1.3h1.8v.7h-4.5v-.7h1.8v-1.3h.9zm-.4 2.6c.3 0 .5 0 .8.1c.2.2.4.3.6.5c.1.2.3.4.4.6c.1.3.1.6.1.9c0 .3 0 .6-.1.8c-.1.3-.3.5-.4.7c-.2.2-.4.3-.6.4c-.3.1-.5.2-.8.2c-.3 0-.6-.1-.8-.2c-.3-.1-.5-.2-.6-.4c-.2-.2-.3-.4-.4-.7c-.1-.2-.2-.5-.2-.8c0-.3.1-.6.2-.9c.1-.2.2-.4.4-.6c.1-.2.3-.3.6-.5c.2-.1.5-.1.8-.1zm0 3.5c.3 0 .6-.2.8-.4c.3-.3.4-.6.4-1c0-.2-.1-.4-.1-.6c-.1-.1-.2-.3-.3-.4l-.3-.3c-.2-.1-.4-.1-.5-.1c-.4 0-.7.1-.9.4c-.2.2-.3.6-.3 1c0 .4.1.7.3 1c.2.2.5.4.9.4zm15.7-1.2v-2h-2v-.7h2V93h.8v5.2h-.8zm-6.2-4.6s4.14.02 4.1 0c0 .6-.1 1.1-.2 1.6c-.2.5-.5 1-.9 1.4c-.4.4-.8.7-1.3 1c-.5.3-1.1.6-1.8.8l-.3-.7c1.1-.3 2-.8 2.6-1.3c.6-.6 1-1.3 1.1-2.1c-.03.01-3.3 0-3.3 0v-.7zm1.9 7.8h5.3v.7h-6.1v-3.3h5.9v.6h-5.1v2zm14.1-5.6v.7h-6.2v-3.1h.8v2.4h5.4zm-7.4 1.9h8.3v.7h-8.3v-.7zm1.9 1.6v2h5.5v.7h-6.3v-2.7h.8zm16.5-3.5h1.4v.7h-1.4v3.2h-.8V93h.8v2.8zm-2.5-1.9v4.2H51v-4.2h4.2zm-.8 3.5v-2.9h-2.6v2.9h2.6zm-1.6 1.7v2.2h5.3v.7H52v-2.9h.8zm14-1.9c-.04.03 1.3 0 1.3 0v.7h-8.3v-.7s6.11.03 6.1 0c.1-.2.1-.5.1-.7c.1-.2.1-.5.1-.7c.03.01-5.4.3-5.4.3l-.1-.7s5.57-.21 5.6-.2v-1.1h-5.4v-.7h6.2v2.1c0 .5-.1 1.1-.2 1.7zm-6 4.9V99h6.2v3.1h-6.2zm.8-2.5v1.8h4.6v-1.8h-4.6zM77.7 93h.8v9.2h-.8V93zm-6.1 1s4.27.03 4.3 0c0 .7-.1 1.3-.3 1.9c-.1.7-.4 1.2-.7 1.8c-.4.5-.8 1-1.3 1.5c-.6.5-1.2.9-2 1.3l-.4-.7c1.2-.6 2.1-1.3 2.7-2.2c.7-.8 1-1.8 1.1-2.9h-3.4v-.7zm15.9-.6v4h-6.2v-4h.8v1.3h4.5v-1.3h.9zm-.9 3.3v-1.4h-4.5v1.4h4.5zm1.9 1.8v.6h-3.7v3.1h-.9v-3.1h-3.7v-.6h8.3zm9.4-1.7v.6h-1.5v4.8h-.8V93h.8v3.8h1.5zm-8-2.8s4.17.02 4.2 0c0 .7-.1 1.3-.3 1.9c-.1.6-.4 1.2-.7 1.8c-.3.5-.8 1-1.3 1.5c-.5.5-1.1.9-1.9 1.3l-.4-.7c1.2-.6 2.1-1.3 2.7-2.2c.6-.8 1-1.8 1-2.9c.05.01-3.3 0-3.3 0v-.7zm17.4-1h.8v9.2h-.8V93zm-3.2 4.7v1.8c.4-.1.9-.1 1.3-.1c.5 0 .9-.1 1.3-.1l.1.6c-.6 0-1.1.1-1.6.2c-.5 0-1 0-1.5.1h-2.9l-.1-.7h2.6c-.04-.01 0-1.8 0-1.8h-1.9v-3.8h4.6v.7h-3.8v2.4h3.9v.7h-2zm13.1-1.9v.7H111v-3.1h.8v2.4h5.4zm-7.4 1.9h8.3v.7h-8.3v-.7zm1.9 1.6v2h5.5v.7h-6.3v-2.7h.8zM128 93h.8v5.4h-.8V96h-1.2v2.4h-.8v-5.2h.8v2.2h1.2V93zm-6.4.7s3.57-.05 3.6 0c0 1.1-.3 2-.9 2.9c-.5.8-1.4 1.5-2.7 2l-.4-.6c.7-.3 1.2-.6 1.6-.9c.5-.3.8-.7 1-1.2c.05.04-2.5.3-2.5.3l-.1-.7s2.93-.17 2.9-.2c.1-.1.1-.3.2-.5v-.5c.04.04-2.7 0-2.7 0v-.6zm1.2 8.4v-3.2h6v3.2h-6zm.8-2.6v1.9h4.4v-1.9h-4.4zm13.7-6.4h.8v9.1h-.8v-9.1zm-1.8 3.4v-3.2h.8v8.4h-.8v-4.4h-1.2v-.8h1.2zm-1.7-1.6v4.2h.5c.1 0 .3-.1.5-.1v.6c-.4.1-.7.2-1.1.2c-.4 0-.8.1-1.2.1h-2.2c-.03.04-.1-.7-.1-.7c0 0 .67.04.7 0h.2c.02.03 0-4.3 0-4.3h-.7v-.7h4.1v.7h-.7zm-1.9 0v4.3h1.1c.03-.03 0-4.3 0-4.3h-1.1zm15.1-1.8v6.6h-.9v-6.6h.9zm-2.5 2.8c0 .4-.1.7-.2.9c-.2.3-.3.6-.5.8c-.3.2-.5.3-.8.4c-.3.1-.6.2-.9.2c-.4 0-.7-.1-1-.2c-.3-.1-.5-.2-.7-.4c-.3-.2-.4-.5-.5-.8c-.2-.2-.2-.5-.2-.9c0-.3 0-.6.2-.9c.1-.3.2-.5.5-.7c.2-.2.4-.3.7-.5c.3-.1.6-.1 1-.1c.3 0 .6 0 .9.1c.3.2.5.3.8.5c.2.2.3.4.5.7c.1.3.2.6.2.9zm-4 0c0 .3 0 .5.1.6c.1.2.2.4.3.5c.2.2.3.3.5.4c.2 0 .4.1.7.1c.2 0 .4-.1.6-.1c.2-.1.3-.2.5-.4c.1-.1.2-.3.3-.5c.1-.1.1-.3.1-.6c0-.2 0-.4-.1-.6c-.1-.2-.2-.3-.3-.5c-.2-.1-.3-.2-.5-.3c-.2-.1-.4-.1-.6-.1c-.3 0-.5 0-.7.1c-.2.1-.3.2-.5.3c-.1.2-.2.3-.3.5c-.1.2-.1.4-.1.6zm1.4 5.4h5.3v.7h-6.1v-3h.8v2.3zm10.9-7.7c.5 0 .9.1 1.3.2c.4.1.8.3 1 .5c.3.2.6.5.7.8c.2.3.3.7.3 1c0 .4-.1.8-.3 1.1c-.1.3-.4.6-.7.8c-.2.2-.6.4-1 .5c-.4.1-.8.2-1.3.2c-.5 0-.9-.1-1.3-.2c-.5-.1-.8-.3-1.1-.5c-.3-.2-.5-.5-.7-.8c-.2-.3-.3-.7-.3-1.1c0-.3.1-.7.3-1c.2-.3.4-.6.7-.8c.3-.2.6-.4 1.1-.5c.4-.1.8-.2 1.3-.2zm0 .7c-.4 0-.7 0-1 .1c-.3.1-.6.2-.8.4c-.3.2-.4.4-.6.6c-.1.2-.2.5-.2.7c0 .3.1.6.2.8c.2.2.3.4.6.6c.2.1.5.3.8.4c.3 0 .6.1 1 .1c.3 0 .7-.1 1-.1c.3-.1.6-.3.8-.4c.2-.2.4-.4.5-.6c.1-.2.2-.5.2-.8c0-.2-.1-.5-.2-.7c-.1-.2-.3-.4-.5-.6c-.2-.2-.5-.3-.8-.4c-.3-.1-.7-.1-1-.1zm-4.2 6h8.3v.7h-8.3v-.7zm13.8.1h3.7v.7h-8.3v-.7h3.7v-1.7h-2.6v-2.9h5.4v-1.4h-5.5v-.7h6.3v2.8h-5.4v1.5h5.6v.7h-2.9v1.7zm14.2-7.3v6.6h-.8v-6.6h.8zm-1.9 4.7l-.4.6c-.6-.1-1-.4-1.4-.8c-.4-.3-.7-.8-.9-1.2c-.2.5-.5.9-.9 1.3c-.4.4-.9.7-1.5.9l-.4-.6c.4-.2.7-.3 1-.5l.7-.7c.2-.3.3-.6.5-.9c.1-.3.1-.6.1-.9c.02-.02 0-.5 0-.5h-2.1v-.7h5v.7h-2s-.02.48 0 .5c0 .3 0 .6.1.9c.2.3.3.5.5.8c.2.2.5.4.8.6c.2.2.5.4.9.5zm-3.2 3.5h5.4v.7h-6.2v-2.9h.8v2.2zm12.5-5.1v2.3h-.8v-5.3h.8v2.3h1.2V93h.8v5.8h-.8v-2.6H184zm-1.1-2.1v.7h-4.7v-.7h1.9v-1h.9v1h1.9zm-.4 2.7c0 .3 0 .5-.1.7c-.1.2-.3.3-.4.5c-.2.1-.4.2-.7.3c-.2.1-.5.1-.8.1c-.2 0-.5 0-.7-.1c-.3-.1-.5-.2-.7-.3c-.1-.2-.3-.3-.4-.5c-.1-.2-.1-.4-.1-.7c0-.2 0-.4.1-.6c.1-.2.3-.4.4-.5c.2-.1.4-.2.7-.3c.2-.1.5-.1.7-.1c.3 0 .6 0 .8.1c.3.1.5.2.7.3c.1.1.3.3.4.5c.1.2.1.4.1.6zm-3.2 0c0 .3.2.6.4.7c.2.2.5.3.8.3c.4 0 .7-.1.9-.3c.2-.1.4-.4.4-.7c0-.3-.2-.5-.4-.6c-.2-.2-.5-.3-.9-.3c-.3 0-.6.1-.8.3c-.2.1-.4.3-.4.6zM183 99c.9 0 1.7.1 2.2.4c.6.3.8.7.8 1.2c0 .5-.2.9-.8 1.2c-.5.2-1.3.4-2.2.4c-1 0-1.7-.2-2.3-.4c-.5-.3-.8-.7-.8-1.2c0-.5.3-.9.8-1.2c.6-.3 1.3-.4 2.3-.4zm0 2.5c.7 0 1.2 0 1.6-.2c.4-.2.6-.4.6-.7c0-.3-.2-.6-.6-.7c-.4-.2-.9-.3-1.6-.3c-.7 0-1.3.1-1.7.3c-.4.1-.6.4-.6.7c0 .3.2.5.6.7c.4.2 1 .2 1.7.2zm10.2-5.3v2.4h-.8v-5.4h.8v2.4h1.2v-2.5h.8v5.6h-.8v-2.5h-1.2zm-1.2-2.1v.7h-4.6v-.7h1.9v-1h.8v1h1.9zm-2.3 4.2c-.3 0-.5 0-.8-.1c-.2 0-.4-.1-.6-.3c-.2-.1-.3-.3-.4-.5c-.1-.2-.1-.4-.1-.6c0-.3 0-.5.1-.7c.1-.2.2-.3.4-.5l.6-.3c.3 0 .5-.1.8-.1c.3 0 .6.1.8.1c.3.1.5.2.6.3c.2.2.3.3.4.5c.1.2.2.4.2.7c0 .2-.1.4-.2.6c-.1.2-.2.4-.4.5c-.1.2-.3.3-.6.3c-.2.1-.5.1-.8.1zm0-2.5c-.3 0-.6.1-.8.3c-.3.2-.4.4-.4.7c0 .3.1.5.4.7c.2.1.5.2.8.2c.4 0 .7-.1.9-.2c.2-.2.3-.4.3-.7c0-.3-.1-.5-.3-.7c-.2-.2-.5-.3-.9-.3zM194 99s.04.29 0 .3c0 .2.1.4.2.7c0 .2.2.4.3.6c.2.2.4.3.6.5c.2.1.5.3.8.4l-.4.6c-.5-.2-.9-.4-1.2-.7c-.3-.3-.5-.6-.7-1c-.1.4-.3.7-.6 1c-.3.3-.6.6-1 .8c-.5-.2-.9-.4-1.1-.7c-.3-.3-.5-.7-.6-1.1c-.2.4-.4.7-.8 1c-.3.3-.6.5-1.1.7l-.4-.6c.3-.1.6-.3.8-.4l.6-.6l.3-.6c.1-.2.2-.4.2-.6c-.04-.01 0-.3 0-.3h.8s-.03.29 0 .3c0 .4.1.8.3 1.1c.2.4.5.7.9 1c.3-.2.4-.3.6-.5c.2-.2.3-.3.4-.5c.1-.2.2-.4.2-.6c.1-.2.1-.3.1-.5c.02-.01 0-.3 0-.3h.8zm6.8-5.4c.4 0 .9.1 1.3.2c.4.1.7.3 1 .5c.3.2.6.5.7.8c.2.3.3.7.3 1c0 .4-.1.8-.3 1.1c-.1.3-.4.6-.7.8c-.3.2-.6.4-1 .5c-.4.1-.9.2-1.3.2c-.5 0-1-.1-1.4-.2c-.4-.1-.7-.3-1-.5c-.3-.2-.5-.5-.7-.8c-.2-.3-.3-.7-.3-1.1c0-.3.1-.7.3-1c.2-.3.4-.6.7-.8c.3-.2.6-.4 1-.5c.4-.1.9-.2 1.4-.2zm0 .7c-.4 0-.7 0-1 .1c-.4.1-.6.2-.8.4c-.3.2-.5.4-.6.6c-.1.2-.2.5-.2.7c0 .3.1.6.2.8c.1.2.3.4.6.6c.2.1.4.3.8.4c.3 0 .6.1 1 .1c.3 0 .7-.1 1-.1c.3-.1.5-.3.8-.4c.2-.2.4-.4.5-.6c.1-.2.2-.5.2-.8c0-.2-.1-.5-.2-.7c-.1-.2-.3-.4-.5-.6c-.3-.2-.5-.3-.8-.4c-.3-.1-.7-.1-1-.1zm-4.2 6h8.3v.7h-8.3v-.7zm15.9-7.3h.8v9.2h-.8v-3.8h-2.2v1.5h-4.1v-6h4.1v1.3h2.2V93zm-3 6.2v-4.6H207v4.6h2.5zm.8-1.4h2.2v-1.9h-2.2v1.9zm4.3 4.4l.4-2.1h.9l-.6 2.1h-.7zm8.7-1.9h3.8v.7h-8.3v-.7h3.7v-2.2h-2.7v-4.3h6.3v4.3h-2.8v2.2zm-2.7-5.8v2.9h4.7v-2.9h-4.7zm14.9-1.4v6.6h-.9v-6.6h.9zm-2.5 2.8c0 .4-.1.7-.2.9c-.1.3-.3.6-.5.8c-.2.2-.5.3-.8.4c-.3.1-.6.2-.9.2c-.4 0-.7-.1-1-.2c-.3-.1-.5-.2-.7-.4c-.3-.2-.4-.5-.5-.8c-.2-.2-.2-.5-.2-.9c0-.3 0-.6.2-.9c.1-.3.2-.5.5-.7c.2-.2.4-.3.7-.5c.3-.1.6-.1 1-.1c.3 0 .6 0 .9.1c.3.2.6.3.8.5c.2.2.4.4.5.7c.1.3.2.6.2.9zm-4 0c0 .3 0 .5.1.6c.1.2.2.4.3.5c.2.2.3.3.5.4c.2 0 .4.1.7.1c.2 0 .4-.1.6-.1c.2-.1.3-.2.5-.4c.1-.1.2-.3.3-.5c.1-.1.1-.3.1-.6c0-.2 0-.4-.1-.6c-.1-.2-.2-.3-.3-.5c-.2-.1-.3-.2-.5-.3c-.2-.1-.4-.1-.6-.1c-.3 0-.5 0-.7.1c-.2.1-.3.2-.5.3c-.1.2-.2.3-.3.5c-.1.2-.1.4-.1.6zm1.4 5.4h5.4v.7h-6.2v-3h.8v2.3zm15.5-8.3h.8v9.2h-.8V93zm-6.1 1s4.25.03 4.3 0c0 .7-.1 1.3-.3 1.9c-.1.7-.4 1.2-.7 1.8c-.4.5-.8 1-1.4 1.5c-.5.5-1.1.9-1.9 1.3l-.4-.7c1.2-.6 2.1-1.3 2.7-2.2c.7-.8 1-1.8 1.1-2.9h-3.4v-.7zm15.9-.6v4h-6.2v-4h.8v1.3h4.5v-1.3h.9zm-.9 3.3v-1.4h-4.5v1.4h4.5zm1.9 1.8v.6h-3.8v3.1h-.8v-3.1h-3.7v-.6h8.3zm7.9-1.6h1.3v.7h-8.3v-.7h6.1c.2-.6.2-1.1.3-1.5v-1.2h-5.4v-.7h6.2s.02.7 0 .7v1.2c0 .4-.1.9-.2 1.5zm-6 5.2v-3.3h6.3v3.3h-6.3zm.8-2.6v1.9h4.6v-1.9h-4.6zm11.5-2.5c-.5 0-.9 0-1.3-.1c-.4-.1-.8-.2-1-.4c-.3-.1-.5-.3-.7-.6c-.1-.2-.2-.4-.2-.7c0-.3.1-.6.2-.8c.2-.2.4-.4.7-.6c.2-.1.6-.2 1-.3c.4-.1.8-.1 1.3-.1c.5 0 .9 0 1.3.1c.4.1.8.2 1 .3c.3.2.5.4.7.6c.1.2.2.5.2.8c0 .3-.1.5-.2.7c-.2.3-.4.5-.7.6c-.2.2-.6.3-1 .4c-.4.1-.8.1-1.3.1zm0-3c-.7 0-1.3.1-1.7.3c-.4.2-.7.5-.7.9c0 .3.3.6.7.8c.4.2 1 .3 1.7.3c.7 0 1.3-.1 1.7-.3c.4-.2.7-.5.7-.8c0-.4-.3-.7-.7-.9c-.4-.2-1-.3-1.7-.3zm-4.1 3.9h8.2v.6h-8.2v-.6zm1.9 1.4v2h5.4v.7h-6.3v-2.7h.9zm16-6.3h.8v9.2h-.8V93zm-4 .7c.3 0 .6.1.9.3c.3.1.6.3.8.6c.2.3.3.6.4 1c.2.4.2.8.2 1.3c0 .5 0 1-.2 1.4c-.1.3-.2.7-.4 1c-.2.2-.5.5-.8.6c-.3.2-.6.2-.9.2c-.3 0-.7 0-.9-.2c-.3-.1-.6-.4-.8-.6c-.2-.3-.3-.7-.5-1c-.1-.4-.1-.9-.1-1.4c0-.5 0-.9.1-1.3c.2-.4.3-.7.5-1c.2-.3.5-.5.8-.6c.2-.2.6-.3.9-.3zm0 .8c-.2 0-.4.1-.6.2c-.2.1-.4.3-.5.5c-.1.2-.3.4-.3.7c-.1.3-.1.7-.1 1c0 .4 0 .7.1 1c0 .3.2.6.3.8c.1.2.3.4.5.5c.2.1.4.2.6.2c.2 0 .4-.1.6-.2c.2-.1.3-.3.5-.5c.1-.2.2-.5.3-.8c.1-.3.1-.6.1-1c0-.3 0-.7-.1-1c-.1-.3-.2-.5-.3-.7c-.2-.2-.3-.4-.5-.5c-.2-.1-.4-.2-.6-.2zm11.1 3.1h3.7v.6h-8.3v-.6h3.7v-1.1h-2.6v-3h6.2v.6h-5.4v1.7h5.4v.7h-2.7v1.1zm-.4 1.3c.9 0 1.7.1 2.2.4c.6.3.9.7.9 1.2c0 .6-.3 1-.9 1.3c-.5.2-1.3.4-2.2.4c-1 0-1.8-.2-2.4-.4c-.5-.3-.8-.7-.8-1.3c0-.5.3-.9.8-1.2c.6-.3 1.4-.4 2.4-.4zm0 2.6c.7 0 1.2 0 1.6-.2c.4-.2.6-.4.6-.8c0-.3-.2-.5-.6-.7c-.4-.2-.9-.3-1.6-.3c-.8 0-1.4.1-1.8.3c-.3.2-.5.4-.5.7c0 .4.2.6.5.8c.4.2 1 .2 1.8.2zM303 93h.9v9.2h-.9V93zm-3.9.7c.3 0 .6.1.9.3c.3.1.5.3.7.6c.2.3.4.6.5 1c.1.4.2.8.2 1.3c0 .5-.1 1-.2 1.4c-.1.3-.3.7-.5 1c-.2.2-.4.5-.7.6c-.3.2-.6.2-.9.2c-.4 0-.7 0-1-.2c-.3-.1-.5-.4-.7-.6c-.2-.3-.4-.7-.5-1c-.1-.4-.2-.9-.2-1.4c0-.5.1-.9.2-1.3c.1-.4.3-.7.5-1c.2-.3.4-.5.7-.6c.3-.2.6-.3 1-.3zm0 .8c-.3 0-.5.1-.7.2c-.2.1-.3.3-.4.5c-.2.2-.3.4-.4.7c0 .3-.1.7-.1 1c0 .4.1.7.1 1c.1.3.2.6.4.8c.1.2.2.4.4.5c.2.1.4.2.7.2c.2 0 .4-.1.6-.2c.1-.1.3-.3.4-.5c.2-.2.3-.5.4-.8c0-.3.1-.6.1-1c0-.3-.1-.7-.1-1c-.1-.3-.2-.5-.4-.7c-.1-.2-.3-.4-.4-.5c-.2-.1-.4-.2-.6-.2zm15.7-1.3v3h-6.1v-3h.9v.9h4.4v-.9h.8zm-.8 2.4v-.9h-4.4v.9h4.4zm1.9 2h-3.7v.9h2.7v2.1h-5.4v.8h5.6v.7h-6.4v-2.2h5.3v-.7h-5.4v-.7h2.8v-.9h-3.8v-.7h8.3v.7zm7.6 2.2v-2.6H322v-.7h1.5v-1H322v-.7h1.5v-1.7h.9v6.7h-.9zm-1.3-2.3l.1.7c-.5 0-.9.1-1.4.1c-.5.1-.9.1-1.4.1c-.5 0-.9.1-1.3.1H317c-.05-.03-.1-.7-.1-.7c0 0 .82-.03.8 0h.3c.01-.04 0-3.3 0-3.3h-.9v-.7h4.8v.7h-.9v3.2c.2-.1.4-.1.6-.1c.2 0 .4 0 .6-.1zm-3.4-3s.02 3.25 0 3.3c.2-.1.5-.1.7-.1h.7v-3.2h-1.4zm.5 6.8h5.3v.7h-6.1v-2.7h.8v2zm12.1-7.1v.6H326v-.6h2.3v-1.1h.9v1.1h2.2zm1.7 1.9h1.4v.7h-1.4v3.1h-.8v-6.8h.8v3zm-2.2.9c0 .3 0 .5-.1.7c-.1.3-.3.4-.5.6c-.2.1-.4.2-.7.3c-.2.1-.5.1-.9.1c-.3 0-.6 0-.9-.1l-.6-.3c-.2-.2-.4-.3-.5-.6c-.1-.2-.1-.4-.1-.7c0-.2 0-.5.1-.7c.1-.2.3-.3.5-.5c.2-.1.4-.3.6-.3c.3-.1.6-.2.9-.2c.4 0 .7.1.9.2c.3 0 .5.2.7.3c.2.2.4.3.5.5c.1.2.1.5.1.7zm-3.6 0c0 .4.2.6.4.8c.3.2.6.3 1 .3c.4 0 .8-.1 1-.3c.3-.2.4-.4.4-.8c0-.3-.1-.5-.4-.7c-.2-.2-.6-.3-1-.3c-.4 0-.7.1-1 .3c-.2.2-.4.4-.4.7zm1 2.4v1.9h5.2v.7h-6.1v-2.6h.9zm15.6-6.3h.9v9.1h-.9v-9.1zm-3.4 1.6s.04 1.14 0 1.1c0 .4.1.8.2 1.2c.2.4.3.7.6 1.1c.2.3.4.6.7.8c.3.3.7.5 1 .6l-.5.7c-.5-.2-1-.6-1.4-1.1c-.4-.5-.8-1.1-1-1.7c-.1.3-.2.7-.4 1c-.1.3-.3.6-.5.8c-.2.3-.5.5-.7.7c-.2.2-.5.4-.7.5l-.5-.6c.3-.2.6-.4.9-.7c.3-.3.6-.6.8-.9c.2-.4.4-.8.5-1.2c.1-.4.2-.8.2-1.2v-1.1h-2.1v-.7h5.1v.7h-2.2zm12.9-1.7h.8v9.2h-.8V93zm-1.8 3.7v-3.4h.8v8.4h-.8v-4.4h-1.4v-.6h1.4zm-2.5-1.3v.5c0 .3.1.7.1 1c.1.4.3.7.4 1.1c.2.3.4.6.7.8c.2.3.5.5.8.7l-.5.6c-.4-.2-.8-.6-1.1-1c-.4-.5-.6-1-.8-1.5c-.1.6-.4 1.1-.7 1.6c-.3.5-.7.8-1.1 1.1l-.5-.6c.3-.2.6-.4.8-.7l.6-.9c.2-.4.3-.7.4-1.1c.1-.4.1-.8.1-1.1c.02-.04 0-.5 0-.5h-1.7v-.7h1.7v-1.3h.8v1.3h1.7v.7h-1.7zm13.6 0h1.4v.7h-1.4v2.5h-.8v-5.5h.8v2.3zm-1.8 2.1l-.4.6c-.5-.1-.9-.4-1.3-.7c-.4-.4-.7-.8-.9-1.2c-.2.5-.5.9-.9 1.3c-.4.4-.8.7-1.4.9l-.4-.7c.3-.1.7-.3.9-.5c.3-.2.6-.4.8-.6c.2-.3.3-.6.4-.9c.1-.3.2-.6.2-.9v-.4h-2.1v-.7h4.9v.7h-2s.02.35 0 .4c0 .3.1.5.2.8c.1.3.2.6.4.8c.2.2.4.4.7.6c.3.2.6.4.9.5zm-1.1 1.3c.5 0 .9 0 1.3.1c.3.1.7.2.9.3c.3.2.5.4.6.6c.2.2.2.4.2.7c0 .3 0 .5-.2.7c-.1.2-.3.4-.6.5c-.2.2-.6.3-.9.4c-.4 0-.8.1-1.3.1c-.9 0-1.7-.2-2.2-.5c-.5-.3-.8-.7-.8-1.2c0-.5.3-1 .8-1.3c.5-.2 1.3-.4 2.2-.4zm0 2.7c.7 0 1.2-.1 1.6-.3c.4-.1.6-.4.6-.7c0-.3-.2-.6-.6-.8c-.4-.1-.9-.2-1.6-.2c-.7 0-1.2.1-1.6.2c-.4.2-.6.5-.6.8c0 .3.2.6.6.7c.4.2.9.3 1.6.3zm12-8.5h.8v9.2h-.8v-4.9h-1.2v4.4h-.8v-8.5h.8v3.5h1.2V93zm-4.9.8c.3 0 .5.1.8.2c.2.2.4.4.6.7c.2.2.3.6.4 1c.1.4.1.8.1 1.3c0 .5 0 .9-.1 1.3c-.1.4-.2.7-.4 1c-.2.3-.4.5-.6.7c-.3.1-.5.2-.8.2c-.3 0-.6-.1-.8-.2c-.3-.2-.5-.4-.6-.7c-.2-.3-.3-.6-.4-1c-.1-.4-.2-.8-.2-1.3c0-.5.1-.9.2-1.3c.1-.4.2-.8.4-1c.1-.3.3-.5.6-.7c.2-.1.5-.2.8-.2zm0 5.6c.3 0 .6-.2.8-.6c.2-.5.4-1.1.4-1.8c0-.8-.2-1.3-.4-1.8c-.2-.4-.5-.6-.8-.6c-.4 0-.7.2-.9.6c-.2.5-.3 1-.3 1.8c0 .7.1 1.3.3 1.8c.2.4.5.6.9.6zm14.6-6.3v6.6h-.8v-6.6h.8zm-2.5 2.8c0 .4-.1.7-.2.9c-.1.3-.3.6-.5.8c-.2.2-.5.3-.8.4c-.3.1-.6.2-.9.2c-.4 0-.7-.1-1-.2c-.2-.1-.5-.2-.7-.4c-.2-.2-.4-.5-.5-.8c-.1-.2-.2-.5-.2-.9c0-.3.1-.6.2-.9c.1-.3.3-.5.5-.7c.2-.2.5-.3.7-.5c.3-.1.6-.1 1-.1c.3 0 .6 0 .9.1c.3.2.6.3.8.5c.2.2.4.4.5.7c.1.3.2.6.2.9zm-4 0c0 .3.1.5.1.6c.1.2.2.4.4.5c.1.2.3.3.5.4c.2 0 .4.1.6.1c.2 0 .4-.1.6-.1c.2-.1.4-.2.5-.4c.2-.1.3-.3.3-.5c.1-.1.2-.3.2-.6c0-.2-.1-.4-.2-.6c0-.2-.1-.3-.3-.5c-.1-.1-.3-.2-.5-.3c-.2-.1-.4-.1-.6-.1c-.2 0-.4 0-.6.1c-.2.1-.4.2-.5.3c-.2.2-.3.3-.4.5c0 .2-.1.4-.1.6zm1.5 5.4h5.3v.7h-6.2v-3h.9v2.3z" stroke="none" fill="#111111"/></g><g id="Polygon116420"><path d="m2.6 82.1h3v.8H.5v-.6s2.62-2.5 2.6-2.5l.6-.6c.1-.2.3-.4.4-.6c.1-.1.2-.3.3-.5c0-.2.1-.4.1-.7c0-.4-.2-.7-.4-.9c-.3-.3-.6-.4-1-.4c-.2 0-.4.1-.6.1c-.2.1-.3.2-.5.3c-.1.2-.2.3-.3.5c-.1.2-.1.4-.1.6l-.9-.2c0-.3.1-.6.3-.9c.1-.2.3-.4.5-.6c.2-.2.5-.3.8-.4c.2-.1.5-.2.9-.2c.3 0 .6.1.8.2c.3.1.6.2.8.4c.2.2.3.4.4.6c.2.3.2.6.2.9c0 .3 0 .6-.1.8c-.1.2-.2.5-.3.7c-.2.2-.4.4-.5.6c-.2.2-.4.5-.6.7l-2.1 2c.1 0 .3 0 .4-.1h.4zm9.1-2.9c0 .7-.1 1.2-.2 1.7c-.2.5-.4.9-.6 1.2c-.3.4-.6.6-.9.7c-.3.2-.7.3-1.1.3c-.4 0-.7-.1-1-.3c-.4-.1-.7-.3-.9-.7c-.3-.3-.5-.7-.6-1.2c-.1-.5-.2-1-.2-1.7c0-.7.1-1.2.2-1.7c.1-.5.3-.9.6-1.2c.2-.3.5-.6.9-.7c.3-.2.6-.3 1-.3c.4 0 .8.1 1.1.3c.3.1.6.4.9.7c.2.3.4.7.6 1.2c.1.5.2 1 .2 1.7zm-1 0c0-.6 0-1.1-.1-1.5c-.1-.4-.2-.7-.4-.9c-.2-.3-.4-.4-.6-.5c-.2-.1-.4-.2-.7-.2c-.2 0-.4.1-.6.2c-.3.1-.5.2-.6.5c-.2.2-.3.5-.4.9c-.1.4-.2.9-.2 1.5c0 .6.1 1.1.2 1.5c.1.4.2.7.4.9c.1.3.3.5.6.6c.2.1.4.1.6.1c.3 0 .5 0 .7-.1c.2-.1.4-.3.6-.6c.2-.2.3-.5.4-.9c.1-.4.1-.9.1-1.5zm3.7 2.9h2.9v.8h-5v-.6s2.57-2.5 2.6-2.5c.2-.2.4-.4.5-.6c.2-.2.3-.4.4-.6c.2-.1.3-.3.3-.5c.1-.2.1-.4.1-.7c0-.4-.1-.7-.4-.9c-.2-.3-.6-.4-.9-.4c-.3 0-.5.1-.6.1c-.2.1-.4.2-.5.3c-.1.2-.3.3-.3.5c-.1.2-.1.4-.1.6l-1-.2l.3-.9l.6-.6c.2-.2.4-.3.7-.4c.3-.1.6-.2.9-.2c.3 0 .6.1.9.2c.3.1.5.2.7.4c.2.2.4.4.5.6c.1.3.2.6.2.9c0 .3-.1.6-.2.8c0 .2-.1.5-.3.7c-.1.2-.3.4-.5.6c-.2.2-.4.5-.6.7l-2.1 2c.2 0 .3 0 .4-.1h.5zm7.1.1h1.5v.7h-4v-.7h1.6v-5.7c.02.04-1.3 1.3-1.3 1.3l-.5-.6l2-1.8h.7v6.8zm9.2-.9v-3.1h-2.5v-.7h2.5v-1.1h-2.5v-.7h2.5v-1.1h.9v6.7h-.9zm-1.5-2.4l.1.7c-.7.2-1.4.3-2.1.3c-.6 0-1.3.1-1.9.1c-.03-.03-.7 0-.7 0v-4.8h.8v4.1c.6 0 1.3-.1 1.9-.1c.6-.1 1.2-.1 1.9-.3zm-2.6 3.9h5.2v.7h-6.1v-2.8h.9v2.1zm13.6-5.7h1.8v-2.5h.8v6.7h-.8v-3.5h-1.8v-.7zm.5 2.1l-.4.7c-.5-.2-1-.5-1.4-.8c-.3-.4-.6-.8-.8-1.3c-.2.5-.5 1-.9 1.4c-.4.4-.9.7-1.4.9l-.5-.7c.4-.1.7-.3 1-.5c.2-.2.5-.4.7-.7c.2-.2.4-.5.5-.8c.1-.3.1-.6.1-1c.04.03 0-.4 0-.4h-2v-.7h4.9v.7h-2s-.03.42 0 .4c0 .3 0 .6.1.9c.1.3.3.5.5.8c.2.2.4.5.7.7c.3.2.6.3.9.4zm-2.9 3.6h5.3v.7H37v-2.8h.8v2.1zM53 78.3v.6h-1.5v4.8h-.8v-9.1h.8v3.7h1.5zm-5.4-3s-.05 1.68 0 1.7c0 .4 0 .8.1 1.2c.2.4.3.7.5 1.1c.2.3.5.7.8.9c.3.3.6.5.9.7l-.5.7c-.5-.3-1-.7-1.4-1.2c-.4-.5-.7-1-.9-1.7c-.2.7-.5 1.3-.9 1.8c-.4.5-.8 1-1.3 1.2l-.5-.6c.3-.2.6-.4.9-.7c.3-.3.5-.6.7-1c.3-.4.4-.8.5-1.2c.2-.4.2-.8.2-1.2c.03-.02 0-1.7 0-1.7h.9zm11.5.2v.7h-5.4v-.7h2.3v-1.1h.8v1.1h2.3zm3 1.4v.7h-1.3v2.3h-.9v-5.4h.9v2.4h1.3zm-3.5 1.3c0 .2-.1.4-.2.6c-.1.2-.2.4-.4.5c-.2.2-.5.3-.7.4c-.3 0-.6.1-.9.1c-.3 0-.6-.1-.9-.1c-.3-.1-.5-.2-.7-.4c-.2-.1-.3-.3-.4-.5c-.1-.2-.2-.4-.2-.6c0-.3.1-.5.2-.7c.1-.2.2-.3.4-.5c.2-.1.4-.2.7-.3c.3-.1.6-.1.9-.1c.3 0 .6 0 .9.1c.2.1.5.2.7.3c.2.2.3.3.4.5c.1.2.2.4.2.7zm-3.6 0c0 .3.1.5.4.7c.2.2.6.3 1 .3c.4 0 .8-.1 1-.3c.3-.2.4-.4.4-.7c0-.3-.1-.6-.4-.7c-.2-.2-.6-.3-1-.3c-.4 0-.8.1-1 .3c-.3.1-.4.4-.4.7zm4.9 3v-.9h.9v3.3H55v-3.3h.8v.9h4.1zm0 1.7v-1h-4.1v1h4.1zm7.5-3.8h3.7v.6h-8.3v-.6h3.8V78h-2.7v-3h6.2v.6h-5.4v1.7h5.5v.7h-2.8v1.1zm-.4 1.3c1 0 1.7.1 2.3.4c.5.3.8.7.8 1.2c0 .6-.3 1-.8 1.3c-.6.2-1.3.4-2.3.4c-1 0-1.8-.2-2.3-.4c-.6-.3-.9-.7-.9-1.3c0-.5.3-.9.9-1.2c.5-.3 1.3-.4 2.3-.4zm0 2.6c.7 0 1.3 0 1.7-.2c.4-.2.6-.4.6-.8c0-.3-.2-.5-.6-.7c-.4-.2-1-.3-1.7-.3c-.8 0-1.3.1-1.7.3c-.4.2-.6.4-.6.7c0 .4.2.6.6.8c.4.2.9.2 1.7.2zm11.7-3.9h3.7v.7h-8.3v-.7h3.7v-.9h-2.6v-3.4h.8v1h4.5v-1h.8v3.4h-2.6v.9zM76 76.4v1.1h4.5v-1.1H76zm2.2 4.1c1 0 1.8.1 2.3.4c.6.3.9.7.9 1.2c0 .5-.3.9-.9 1.2c-.5.2-1.3.4-2.3.4c-.9 0-1.7-.2-2.3-.4c-.5-.3-.8-.7-.8-1.2c0-.5.3-.9.8-1.2c.6-.3 1.4-.4 2.3-.4zm0 2.5c.8 0 1.3 0 1.7-.2c.4-.2.6-.4.6-.7c0-.3-.2-.6-.6-.7c-.4-.2-.9-.3-1.7-.3c-.7 0-1.3.1-1.7.3c-.4.1-.6.4-.6.7c0 .3.2.5.6.7c.4.2 1 .2 1.7.2zm13.6-4.7v.6h-1.5v4.8h-.8v-9.1h.8v3.7h1.5zm-5.4-3s-.05 1.68 0 1.7c0 .4 0 .8.1 1.2c.2.4.3.7.5 1.1c.2.3.5.7.8.9c.3.3.6.5.9.7l-.5.7c-.5-.3-1-.7-1.4-1.2c-.4-.5-.7-1-.9-1.7c-.2.7-.5 1.3-.9 1.8c-.4.5-.8 1-1.3 1.2l-.5-.6c.3-.2.6-.4.9-.7c.3-.3.5-.6.7-1c.3-.4.4-.8.5-1.2c.2-.4.2-.8.2-1.2c.03-.02 0-1.7 0-1.7h.9zm6.9 3.7l-.3-.7c.4 0 .8-.1 1.1-.3c.4-.1.7-.3 1-.6c.3-.2.6-.4.8-.7c.1-.3.2-.6.2-.9c.03.04 0 0 0 0h-2.9v-.7h6.7v.7h-2.8s-.04.04 0 0c0 .3.1.6.2.9c.2.3.5.5.8.7c.3.3.6.5 1 .6c.4.2.8.3 1.2.3l-.4.7l-1-.3c-.4-.1-.7-.3-1-.4c-.3-.2-.5-.4-.7-.7c-.3-.2-.5-.4-.6-.7c-.1.3-.3.5-.6.7c-.2.3-.4.5-.7.7c-.3.1-.6.3-1 .4l-1 .3zm7.4.8v.6H97v3.3h-.8v-3.3h-3.7v-.6h8.2zm8-2.5h1.4v.7h-1.4v3.2h-.8v-6.6h.8v2.7zm-6.7-2s4.29-.05 4.3 0c0 .5-.1 1.1-.3 1.6c-.2.5-.5 1-.9 1.4c-.3.4-.8.8-1.3 1.1c-.5.3-1.1.6-1.8.8l-.3-.7c.5-.2 1-.4 1.4-.6c.5-.2.8-.5 1.2-.8c.3-.3.6-.7.7-1c.2-.4.4-.8.4-1.2c0 .04-3.4 0-3.4 0v-.6zm1.9 5.2v2.3h5.2v.7H103v-3h.9zm11.1-2c-.5 0-1 0-1.4-.1c-.4-.1-.7-.2-1-.4c-.3-.1-.5-.3-.6-.6c-.2-.2-.3-.4-.3-.7c0-.3.1-.6.3-.8c.1-.2.3-.4.6-.6c.3-.1.6-.2 1-.3c.4-.1.9-.1 1.4-.1c.4 0 .9 0 1.3.1c.4.1.7.2 1 .3c.3.2.5.4.6.6c.2.2.3.5.3.8c0 .3-.1.5-.3.7c-.1.3-.3.5-.6.6c-.3.2-.6.3-1 .4c-.4.1-.9.1-1.3.1zm0-3c-.8 0-1.3.1-1.8.3c-.4.2-.6.5-.6.9c0 .3.2.6.6.8c.5.2 1 .3 1.8.3c.7 0 1.2-.1 1.7-.3c.4-.2.6-.5.6-.8c0-.4-.2-.7-.6-.9c-.5-.2-1-.3-1.7-.3zm-4.2 3.9h8.3v.6h-8.3v-.6zm1.9 1.4v2h5.5v.7h-6.3v-2.7h.8zm10.6-5.3v1.1h-1.1s-.01-1.09 0-1.1c0-.4.1-.7.2-.9c.1-.2.2-.3.3-.4c.2-.1.4-.1.6-.1v.4c-.1 0-.2.1-.3.1c-.1.1-.2.2-.2.3c0 .1-.1.2-.1.3v.3h.6zm1.5 7.4v-7.4h1v3.7l3.1-3.7h1.1l-2.4 2.8l2.7 4.6h-1l-2.2-3.9l-1.3 1.6v2.3h-1zm7.1-7.6v1h-.9v-1h.9zm0 7.6h-1v-5.5h1v5.5zm2.7.2c-.2 0-.4-.1-.6-.1c-.2-.1-.4-.2-.5-.4c-.2-.1-.3-.3-.4-.5c0-.2-.1-.4-.1-.7c0-.7.3-1.2.9-1.5c.6-.3 1.4-.5 2.5-.5v-.5c-.1-.2-.1-.3-.2-.4c-.1-.2-.2-.3-.3-.4c-.2 0-.4-.1-.6-.1c-.3 0-.6.1-.9.2c-.3.1-.6.2-.8.4l-.4-.7c.3-.2.6-.3 1-.4c.4-.2.8-.2 1.2-.2c.4 0 .7 0 .9.1c.3.1.5.3.6.5c.2.2.3.4.4.7c0 .3.1.6.1.9c-.04.03 0 3.4 0 3.4h-.8l-.1-.6s-.01.04 0 0c-.3.3-.6.4-.9.6c-.3.1-.6.2-1 .2zm.3-.8c.3 0 .5 0 .8-.1c.2-.1.5-.3.7-.5V80c-.5.1-.9.1-1.2.2c-.3.1-.6.1-.8.2l-.4.4c0 .2-.1.4-.1.6c0 .3.1.5.3.7c.2.1.4.2.7.2zm6.2.6v-7.4h1.1s1.47 3.96 1.5 4c.1.2.1.5.2.7c.1.3.2.6.3.8c.1-.2.2-.5.3-.8c.1-.2.2-.5.3-.7c-.04-.04 1.4-4 1.4-4h1.1v7.4h-.9s.04-4.11 0-4.1c0-.3.1-.7.1-1.1c0-.4 0-.8.1-1.1h-.1l-.6 1.7l-1.4 3.9h-.6l-1.4-3.9l-.6-1.7h-.1c0 .2 0 .3.1.5v1.7c.04-.01 0 4.1 0 4.1h-.8zm10.1.2c-.3 0-.6-.1-.9-.2c-.3-.2-.6-.3-.9-.6c-.2-.2-.4-.5-.5-.9c-.2-.4-.2-.8-.2-1.2c0-.5 0-.9.2-1.3c.1-.3.3-.6.5-.9l.9-.6c.3-.1.6-.1.9-.1c.4 0 .7 0 1 .1c.3.2.6.4.8.6c.3.3.5.6.6.9c.1.4.2.8.2 1.3c0 .4-.1.8-.2 1.2c-.1.4-.3.7-.6.9c-.2.3-.5.4-.8.6c-.3.1-.6.2-1 .2zm0-.8c.3 0 .5-.1.7-.2c.2-.1.4-.2.5-.4c.1-.2.3-.4.3-.7c.1-.2.1-.5.1-.8c0-.3 0-.6-.1-.9c0-.3-.2-.5-.3-.7c-.1-.2-.3-.3-.5-.4c-.2-.1-.4-.2-.7-.2c-.2 0-.4.1-.6.2c-.2.1-.4.2-.5.4c-.2.2-.3.4-.3.7c-.1.3-.2.6-.2.9c0 .3.1.6.2.8c0 .3.1.5.3.7c.1.2.3.3.5.4c.2.1.4.2.6.2zm5.1.6l-2-5.5h.9s1.06 3.15 1.1 3.1c.1.3.1.6.2.9c.1.3.2.5.3.8c.1-.3.2-.5.3-.8c.1-.3.2-.6.2-.9c.03.05 1.1-3.1 1.1-3.1h.9l-2 5.5h-1zm6.1.2c-.4 0-.7-.1-1-.2c-.4-.2-.6-.3-.9-.6c-.2-.2-.4-.5-.5-.9c-.2-.4-.2-.8-.2-1.2c0-.5 0-.9.2-1.2c.1-.4.3-.7.5-1c.2-.2.5-.4.8-.5c.3-.2.6-.2 1-.2c.3 0 .6 0 .9.1c.3.2.5.3.7.6c.2.2.3.5.4.8c.1.3.2.7.2 1.1c0 .1-.1.2-.1.2v.3h-3.7c0 .6.2 1.1.5 1.4c.4.3.8.5 1.3.5c.3 0 .5 0 .8-.1l.6-.3l.3.6c-.2.2-.5.3-.8.4c-.3.1-.6.2-1 .2zm-1.7-3.4h2.9c0-.6-.1-1-.3-1.3c-.3-.3-.6-.4-1-.4c-.2 0-.4 0-.6.1c-.2.1-.3.2-.5.4c-.1.1-.3.3-.3.5c-.1.2-.2.5-.2.7zm4.9 3.2v-5.5h.8l.1.8s-.01 0 0 0c.2-.3.5-.5.8-.7c.3-.2.6-.2.9-.2c.4 0 .8 0 1 .2c.3.2.4.5.5.8c.3-.3.6-.6.9-.8c.3-.1.6-.2 1-.2c.6 0 1 .1 1.2.5c.3.4.5.9.5 1.6c-.04.03 0 3.5 0 3.5h-1s.03-3.35 0-3.4c0-.5-.1-.9-.2-1.1c-.2-.2-.4-.3-.8-.3c-.4 0-.9.3-1.4.8v4h-.9s-.03-3.35 0-3.4c0-.5-.1-.9-.3-1.1c-.1-.2-.4-.3-.8-.3c-.4 0-.9.3-1.4.8c.04.02 0 4 0 4h-.9zm11.5.2c-.4 0-.7-.1-1-.2c-.4-.2-.6-.3-.9-.6c-.2-.2-.4-.5-.6-.9c-.1-.4-.2-.8-.2-1.2c0-.5.1-.9.2-1.2c.2-.4.4-.7.6-1c.2-.2.5-.4.8-.5c.3-.2.6-.2.9-.2c.4 0 .7 0 1 .1c.2.2.5.3.7.6c.2.2.3.5.4.8c.1.3.1.7.1 1.1v.5h-3.7c0 .6.2 1.1.5 1.4c.3.3.8.5 1.3.5c.3 0 .5 0 .7-.1c.3-.1.5-.2.7-.3l.3.6c-.2.2-.5.3-.8.4c-.3.1-.6.2-1 .2zm-1.7-3.4h2.9c0-.6-.1-1-.3-1.3c-.3-.3-.6-.4-1.1-.4c-.1 0-.3 0-.5.1c-.2.1-.4.2-.5.4c-.1.1-.3.3-.4.5c-.1.2-.1.5-.1.7zm4.9 3.2v-5.5h.8l.1.8s-.02-.01 0 0c.2-.3.5-.5.8-.7c.3-.2.6-.2 1-.2c.6 0 1.1.1 1.3.5c.3.4.4.9.4 1.6c.03.03 0 3.5 0 3.5h-.9v-3.4c0-.5-.1-.9-.2-1.1c-.2-.2-.5-.3-.8-.3c-.3 0-.6 0-.8.2c-.2.1-.5.3-.8.6c.03.02 0 4 0 4h-.9zm7.8.2c-.3 0-.6-.1-.8-.2c-.2-.1-.3-.2-.5-.3c-.1-.2-.2-.4-.2-.6c-.1-.2-.1-.5-.1-.8v-3h-.8v-.8h.8l.1-1.6h.8v1.6h1.5v.8h-1.5s.02 3.04 0 3c0 .4.1.7.2.8c.1.2.4.3.7.3h.3c.1-.1.2-.1.3-.1l.2.7c-.2 0-.3.1-.5.1c-.2 0-.4.1-.5.1zm4.9-.2l-1.6-7.4h.9s.84 4.03.8 4l.3 1.2c0 .4.1.8.2 1.2l.3-1.2l.3-1.2c-.04.03 1-4 1-4h.8s1.09 4.03 1.1 4l.3 1.2c0 .4.1.8.2 1.2h.1c.1-.8.3-1.6.4-2.4l.8-4h.9l-1.6 7.4h-1.1s-1.12-4.47-1.1-4.5c-.1-.3-.1-.6-.2-.8c-.1-.3-.1-.6-.2-.9c-.1.3-.2.6-.2.9c-.1.2-.1.5-.2.8l-1.1 4.5H193zm10 .2c-.3 0-.7-.1-1-.2c-.3-.2-.6-.3-.8-.6c-.3-.2-.5-.5-.6-.9c-.1-.4-.2-.8-.2-1.2c0-.5.1-.9.2-1.2c.1-.4.3-.7.6-1c.2-.2.5-.4.8-.5c.3-.2.6-.2.9-.2c.3 0 .7 0 .9.1c.3.2.5.3.7.6c.2.2.3.5.4.8c.1.3.2.7.2 1.1v.2c0 .1 0 .2-.1.3h-3.7c0 .6.2 1.1.6 1.4c.3.3.7.5 1.3.5c.2 0 .5 0 .7-.1l.6-.3l.4.6c-.3.2-.5.3-.8.4c-.3.1-.7.2-1.1.2zm-1.7-3.4h3c0-.6-.1-1-.4-1.3c-.2-.3-.6-.4-1-.4c-.2 0-.4 0-.6.1c-.1.1-.3.2-.5.4c-.1.1-.2.3-.3.5c-.1.2-.2.5-.2.7zm7.2 3.4c-.4 0-.7-.1-1-.2c-.4-.2-.7-.3-.9-.6c-.2-.2-.4-.5-.6-.9c-.1-.4-.2-.8-.2-1.2c0-.5.1-.9.2-1.2c.2-.4.4-.7.6-1c.2-.2.5-.4.8-.5c.3-.2.6-.2.9-.2c.4 0 .7 0 1 .1c.2.2.5.3.7.6c.1.2.3.5.4.8c.1.3.1.7.1 1.1v.5h-3.7c0 .6.2 1.1.5 1.4c.3.3.8.5 1.3.5c.3 0 .5 0 .7-.1c.3-.1.5-.2.7-.3l.3.6c-.2.2-.5.3-.8.4c-.3.1-.6.2-1 .2zm-1.7-3.4h2.9c0-.6-.1-1-.3-1.3c-.3-.3-.6-.4-1.1-.4c-.2 0-.3 0-.5.1c-.2.1-.4.2-.5.4c-.2.1-.3.3-.4.5c-.1.2-.1.5-.1.7zm4.9 3.2v-8.1h.9v5.5l2.4-2.9h1l-1.8 2.2l2.1 3.3h-1l-1.6-2.6l-1.1 1.2v1.4h-.9zm5.2-7.8V74h1.1v1.1c0 .2 0 .3-.1.5c0 .2-.1.3-.1.5c-.1.1-.2.2-.4.3c-.1.1-.3.1-.5.1v-.4c.1 0 .2-.1.3-.1c.1-.1.1-.2.2-.3c0-.1.1-.2.1-.3v-.3c-.01-.02-.6 0-.6 0zm8.5 1v-.7H220v-.6h6.2v1.9h-5.3v.8h5.5v.6H220v-2h5.4zm-6.4 2.7h8.3v.6H219v-.6zm1.8 3.3v.9h5.7v.6H220v-2.1h5.4v-.7H220v-.6h6.2v1.9h-5.4zm10.3-3.1l-.4-.7c.4 0 .8-.1 1.2-.3c.4-.1.7-.3 1-.6c.3-.2.6-.4.7-.7c.2-.3.3-.6.3-.9c.01.04 0 0 0 0H231v-.7h6.7v.7h-2.9s.04.04 0 0c0 .3.1.6.3.9c.2.3.4.5.7.7c.3.3.7.5 1.1.6c.3.2.7.3 1.1.3l-.3.7l-1-.3c-.4-.1-.7-.3-1-.4c-.3-.2-.5-.4-.8-.7c-.2-.2-.4-.4-.5-.7c-.2.3-.3.5-.6.7c-.2.3-.5.5-.8.7c-.2.1-.6.3-.9.4l-1 .3zm7.4.8v.6h-3.7v3.3h-.9v-3.3h-3.6v-.6h8.2zm7.9-5.3h.8v9.2h-.8v-9.2zm-1.8 3.3v-3.1h.7v8.5h-.7v-4.7H243v-.7h1.6zm-2.5-1.5v.8c0 .4 0 .8.1 1.2c.1.4.2.8.4 1.1c.2.3.4.7.6.9c.3.3.5.5.9.7l-.6.6c-.4-.2-.8-.6-1.1-1.1c-.3-.4-.5-.9-.7-1.5c-.1.6-.4 1.2-.7 1.7c-.3.5-.7.9-1.2 1.2l-.5-.7c.3-.2.6-.4.9-.7c.2-.3.4-.6.6-1c.2-.3.3-.7.4-1.1c.1-.4.1-.9.1-1.3v-.8h-1.7v-.7h4.1v.7h-1.6zm11.1 5.6h3.7v.7h-8.3v-.7h3.7v-1.7h-2.7v-2.9h5.5v-1.4h-5.5v-.7h6.3v2.8h-5.4v1.5h5.6v.7h-2.9v1.7zm13.4-2.2v-2h-2v-.7h2v-2.5h.8v5.2h-.8zm-6.2-4.6s4.14.02 4.1 0c0 .6-.1 1.1-.2 1.6c-.2.5-.5 1-.9 1.4c-.4.4-.8.7-1.3 1c-.5.3-1.1.6-1.8.8l-.3-.7c1.1-.3 2-.8 2.6-1.3c.6-.6 1-1.3 1.1-2.1c-.03.01-3.3 0-3.3 0v-.7zm1.9 7.8h5.3v.7h-6.1v-3.3h5.9v.6h-5.1v2zm13.4-8.4h.9v9.2h-.9v-9.2zm-6.1 1s4.27.03 4.3 0c0 .7-.1 1.3-.3 1.9c-.1.7-.4 1.2-.7 1.8c-.4.5-.8 1-1.3 1.5c-.6.5-1.2.9-2 1.3l-.4-.7c1.2-.6 2.1-1.3 2.8-2.2c.6-.8.9-1.8 1-2.9h-3.4v-.7zm17.4-1h.8v9.2h-.8v-9.2zm-6.2 1s4.33.03 4.3 0c0 .7 0 1.3-.2 1.9c-.2.7-.4 1.2-.8 1.8c-.3.5-.7 1-1.3 1.5c-.5.5-1.2.9-1.9 1.3l-.5-.7c1.3-.6 2.2-1.3 2.8-2.2c.6-.8 1-1.8 1.1-2.9h-3.5v-.7zm15.9-.6v4h-6.2v-4h.9v1.3h4.5v-1.3h.8zm-.8 3.3v-1.4h-4.5v1.4h4.5zm1.9 1.8v.6H294v3.1h-.8v-3.1h-3.7v-.6h8.3zm5.1-2.8v-1.7h-1.4v-.7h6.7v.7h-1.4v1.7h1.4v.7h-6.7v-.7h1.4zm3.1 0v-1.7h-2.3v1.7h2.3zm-5.3 1.4h8.3v.7h-8.3v-.7zm1.9 3.5v.9h5.6v.6h-6.4v-2.1h5.3v-.8h-5.4v-.6h6.3v2h-5.4zm13-4.5v2.4h-.8v-5.3h.8v2.2h1.2v-2.3h.8v6.2h-.8v-3.2h-1.2zm-1.3 1.3l.1.7c-.3 0-.6.1-.9.1c-.2 0-.5.1-.8.1h-1.8c.04.04-.6 0-.6 0v-2.6h2.7v-1.3h-2.7v-.6h3.5v2.5h-2.7s.05 1.37 0 1.4c.6 0 1.2 0 1.7-.1c.5 0 1-.1 1.5-.2zm.7 1.5v.2c0 .3.1.6.3.8c.1.3.4.5.7.7c.2.3.6.4 1 .6c.3.1.7.2 1.1.3l-.3.7c-.4-.1-.7-.2-1-.3c-.3-.1-.6-.3-.9-.4c-.3-.2-.5-.4-.8-.6c-.2-.2-.4-.4-.5-.7c-.1.3-.3.5-.6.7c-.2.2-.4.4-.7.6c-.3.1-.6.3-.9.4c-.3.1-.6.2-1 .3l-.3-.7c.4-.1.8-.2 1.1-.3c.4-.2.7-.3 1-.6c.3-.2.5-.4.7-.7c.2-.2.3-.5.3-.8c-.03-.01 0-.2 0-.2h.8zm8.7-1.2h3.7v.6h-8.3v-.6h3.7v-1.1h-2.9v-.7h1.4v-1.9h-1.4v-.7h6.7v.7h-1.4v1.9h1.4v.7h-2.9v1.1zm-1.6-3.7v1.9h2.3v-1.9h-2.3zm-2 8.1v-2.9h6.3v2.9h-6.3zm.8-2.2v1.5h4.7v-1.5h-4.7zm10.7-5.9v1.1h-1.1s-.03-1.09 0-1.1c0-.4 0-.7.1-.9l.4-.4c.2-.1.4-.1.6-.1v.4c-.2 0-.3.1-.3.1c-.1.1-.2.2-.2.3c-.1.1-.1.2-.1.3v.3h.6zm7.7-.9h.8v5.5h-.8v-5.5zm-6.2.5h.8v1.4h2.7v-1.4h.8v4.3h-4.3v-4.3zm.8 2.1v1.6h2.7v-1.6h-2.7zm.1 3.4h6.1v3.1h-.8v-2.4H334v-.7zm14.5-6h.8v9.1h-.8v-2.3h-2.1v-.6h2.1v-6.2zm-3.8 4c-.3 0-.6 0-.9-.1c-.3-.1-.5-.2-.7-.4c-.2-.2-.4-.3-.5-.6c-.1-.2-.1-.4-.1-.7c0-.3 0-.5.1-.7c.1-.3.3-.4.5-.6c.2-.2.4-.3.7-.4c.3-.1.6-.1.9-.1c.4 0 .7 0 1 .1c.3.1.5.2.7.4c.2.2.4.3.5.6c.1.2.1.4.1.7c0 .3 0 .5-.1.7c-.1.3-.3.4-.5.6c-.2.2-.4.3-.7.4c-.3.1-.6.1-1 .1zm0-3c-.4 0-.8.1-1 .4c-.3.2-.5.4-.5.8c0 .3.2.6.5.8c.2.3.6.4 1 .4c.5 0 .9-.1 1.1-.4c.3-.2.5-.5.5-.8c0-.4-.2-.6-.5-.8c-.2-.3-.6-.4-1.1-.4zm3.1 3.5v.6c-.4.1-.9.1-1.3.2c-.5 0-.9.1-1.4.1c.02-.02 0 3.4 0 3.4h-.8s-.01-3.38 0-3.4H343c-.4.1-.8.1-1.1.1l-.1-.7c.4 0 .9 0 1.4-.1h1.5c.5 0 1 0 1.6-.1c.5 0 1-.1 1.5-.1zm3.9-.8s5.71-.29 5.7-.3v-.7c.03-.01 0-1.1 0-1.1H352v-.7h6.2s.04 1.09 0 1.1v2c0 .4-.1.8-.1 1.2c-.1.4-.2.8-.3 1.3l-.8-.1c.1-.5.2-.9.3-1.3c0-.3 0-.7.1-1.1c-.03.04-5.5.3-5.5.3l-.2-.6zm-.7 3.4h8.3v.7H351v-.7zm9.3-6.6V74h1.1s.03 1.08 0 1.1v.5c-.1.2-.1.3-.2.5l-.3.3c-.2.1-.4.1-.6.1v-.4c.2 0 .3-.1.3-.1c.1-.1.2-.2.2-.3c.1-.1.1-.2.1-.3v-.3c.02-.02-.6 0-.6 0zm10.6 3.2v.7h-1.4v4.7h-.9v-9.2h.9v3.8h1.4zm-5.3 1.1v1.6c.4-.1.8-.1 1.2-.1c.4-.1.8-.1 1.2-.1l.1.6c-.5 0-1 .1-1.5.2c-.5 0-1 0-1.5.1h-2.7l-.1-.7h2.4v-1.6c-.3 0-.5-.1-.8-.2c-.2-.1-.4-.3-.6-.5c-.2-.2-.3-.4-.4-.6c-.1-.3-.2-.5-.2-.8c0-.3.1-.6.2-.9c.1-.3.3-.5.5-.7c.2-.2.5-.3.8-.4c.3-.1.6-.2.9-.2c.4 0 .7.1 1 .2c.3.1.6.2.8.4c.2.2.4.4.5.7c.1.3.2.6.2.9c0 .3-.1.5-.2.8c-.1.2-.2.4-.4.6c-.2.2-.4.3-.6.5c-.3.1-.5.2-.8.2zm-2.1-2.1c0 .4.2.8.5 1c.3.3.7.4 1.1.4c.5 0 .9-.1 1.2-.4c.3-.2.4-.6.4-1c0-.2 0-.4-.1-.6c0-.2-.2-.3-.3-.5c-.1-.1-.3-.2-.5-.3c-.2 0-.4-.1-.7-.1c-.2 0-.4.1-.6.1c-.2.1-.4.2-.5.3c-.2.2-.3.3-.3.5c-.1.2-.2.4-.2.6z" stroke="none" fill="#111111"/></g><g id="Polygon116419"><path d="m5.1 60.6h3.7v.7H.5v-.7h3.8v-.9H1.6v-3.4h.9v1h4.4v-1h.8v3.4H5.1v.9zm-2.6-2.7v1.1h4.4v-1.1H2.5zM4.7 62c1 0 1.7.1 2.3.4c.5.3.8.7.8 1.2c0 .5-.3.9-.8 1.2c-.6.2-1.3.4-2.3.4c-1 0-1.8-.2-2.3-.4c-.6-.3-.9-.7-.9-1.2c0-.5.3-.9.9-1.2c.5-.3 1.3-.4 2.3-.4zm0 2.5c.7 0 1.3 0 1.7-.2c.4-.2.6-.4.6-.7c0-.3-.2-.6-.6-.7c-.4-.2-1-.3-1.7-.3c-.8 0-1.3.1-1.7.3c-.4.1-.6.4-.6.7c0 .3.2.5.6.7c.4.2.9.2 1.7.2zm13.6-4.7v.6h-1.5v4.8h-.9v-9.1h.9v3.7h1.5zm-5.5-3s-.01 1.68 0 1.7c0 .4.1.8.2 1.2c.1.4.3.7.5 1.1c.2.3.4.7.7.9c.3.3.6.5.9.7l-.5.7c-.5-.3-.9-.7-1.3-1.2c-.4-.5-.7-1-.9-1.7c-.2.7-.5 1.3-.9 1.8c-.4.5-.9 1-1.4 1.2l-.5-.6c.3-.2.6-.4.9-.7c.3-.3.6-.6.8-1c.2-.4.4-.8.5-1.2c.1-.4.2-.8.2-1.2c-.04-.02 0-1.7 0-1.7h.8zm14.6 3v.7h-1.5v4.7h-.8v-9.1h.8v3.7h1.5zM22 56.2v1.3h2.2v.7h-5.4v-.7h2.4v-1.3h.8zm-.4 2.7c.3 0 .6.1.9.2c.3.1.5.2.7.4c.2.2.3.4.5.7c.1.3.1.5.1.8c0 .4 0 .6-.1.9c-.2.3-.3.5-.5.7c-.2.2-.4.3-.7.4c-.3.1-.6.1-.9.1c-.3 0-.6 0-.9-.1c-.3-.1-.5-.2-.7-.4c-.2-.2-.4-.4-.5-.7c-.1-.3-.1-.5-.1-.9c0-.3 0-.5.1-.8c.1-.3.3-.5.5-.7c.2-.2.4-.3.7-.4c.3-.1.6-.2.9-.2zm0 3.6c.2 0 .4-.1.6-.2c.1 0 .3-.1.4-.2c.1-.2.2-.3.3-.5c.1-.2.1-.3.1-.6c0-.2 0-.3-.1-.5c-.1-.2-.2-.3-.3-.5c-.1-.1-.3-.2-.4-.3c-.2 0-.4-.1-.6-.1c-.2 0-.4.1-.6.1c-.2.1-.3.2-.4.3c-.2.2-.3.3-.3.5c-.1.2-.1.3-.1.5c0 .3 0 .4.1.6c0 .2.1.3.3.5c.1.1.2.2.4.2c.2.1.4.2.6.2zm13.8-3.7v.7h-6.2v-3.1h.8v2.4h5.4zm-7.3 1.9h8.3v.7h-8.3v-.7zm1.9 1.6v2h5.5v.7h-6.4v-2.7h.9zm11.5-1.5v-3.2h-1.4v-.6h6.8v.6h-1.5v3.2h1.4v.7h-6.7v-.7h1.4zm3.1 0v-3.2h-2.3v3.2h2.3zm-5.3 2.5h8.3v.7h-8.3v-.7zm13.8.1h3.7v.7h-8.3v-.7h3.7v-1.7h-2.6v-2.9h5.4v-1.4h-5.5v-.7h6.3v2.8h-5.4v1.5h5.6v.7h-2.9v1.7zM64 57.9c.05.03 0-.2 0-.2h-5.4v-.7h6.3s-.03.93 0 .9v.9c0 .3-.1.7-.1 1.1c0 .3 0 .7-.1 1.1c0 .4-.1.9-.2 1.4l-.8-.1c.2-.9.3-1.8.3-2.5v-1.9zm-6.3 5.3h8.3v.7h-8.3v-.7zM73.8 56h.8v5.5h-.8V59h-1.2v2.4h-.8v-5.2h.8v2.2h1.2V56zm-2.5 4.2v.6c-.3.1-.5.1-.8.2h-.8c-.3.1-.6.1-.9.1h-1.5v-2.6h2.6v-1.2h-2.6v-.7h3.4v2.5h-2.6v1.3h1.6c.5-.1 1-.1 1.6-.2zm-2.7 4.9v-3.2h6v3.2h-6zm.8-2.5v1.8h4.4v-1.8h-4.4zM82.7 56h.8v9.2h-.8V56zm-4 .7c.4 0 .7.1 1 .3c.2.1.5.3.7.6c.2.3.4.6.5 1c.1.4.1.8.1 1.3c0 .5 0 1-.1 1.4c-.1.3-.3.7-.5 1c-.2.2-.5.5-.7.6c-.3.2-.6.2-1 .2c-.3 0-.6 0-.9-.2c-.3-.1-.5-.4-.7-.6c-.3-.3-.4-.7-.5-1c-.1-.4-.2-.9-.2-1.4c0-.5.1-.9.2-1.3c.1-.4.2-.7.5-1c.2-.3.4-.5.7-.6c.3-.2.6-.3.9-.3zm0 .8c-.2 0-.4.1-.6.2c-.2.1-.3.3-.5.5c-.1.2-.2.4-.3.7c-.1.3-.1.7-.1 1c0 .4 0 .7.1 1c.1.3.2.6.3.8c.2.2.3.4.5.5c.2.1.4.2.6.2c.2 0 .5-.1.6-.2c.2-.1.4-.3.5-.5c.2-.2.3-.5.3-.8c.1-.3.1-.6.1-1c0-.3 0-.7-.1-1c0-.3-.1-.5-.3-.7c-.1-.2-.3-.4-.5-.5c-.1-.1-.4-.2-.6-.2zm15.1 2.2v.6h-1.5v4.9h-.9V56h.9v3.7h1.5zm-7.3-2.1s-.03 4.61 0 4.6h2.1c.4-.1.7-.1 1-.1c.3-.1.7-.1 1-.2l.1.7c-.4.1-.7.1-1 .2c-.4 0-.7 0-1.1.1h-2.2c-.05.03-.8 0-.8 0v-6h4.3v.7h-3.4zm7.8 7v-1h.9v1h-.9z" stroke="none" fill="#111111"/></g><g id="Polygon116418"><path d="m5.9 42l-.4.6c-.5-.2-1-.4-1.4-.7c-.3-.4-.6-.7-.8-1.2c-.2.5-.5.9-.9 1.3c-.4.3-.9.6-1.5.8l-.4-.7c.4-.1.7-.2 1-.4c.2-.2.5-.4.7-.6c.2-.3.3-.5.5-.8c.1-.3.1-.6.1-.9c.03.03 0-.1 0-.1h-2v-.7h2v-1.1h.9v1.1h2v.7h-2s-.04.13 0 .1c0 .3 0 .6.1.8c.1.3.3.5.5.8c.2.2.4.4.7.5c.3.2.6.4.9.5zM9 39.9v.6H7.6v2.5h-.8v-5.5h.8v2.4h1.4zm-7.1 6.7v-3.2h5.7v3.2H1.9zm.8-2.6v1.9h4.1V44H2.7zm13.7-6.5h.9v9.2h-.9v-3.5s-2.26-.04-2.3 0c-.2.4-.4.8-.8 1c-.3.3-.7.4-1.1.4c-.4 0-.7 0-.9-.2c-.3-.1-.6-.4-.8-.6c-.2-.3-.3-.7-.4-1c-.2-.4-.2-.9-.2-1.4c0-.5 0-.9.2-1.3c.1-.4.2-.7.4-1c.2-.3.5-.5.8-.6c.2-.2.5-.3.9-.3c.4 0 .8.2 1.1.4c.3.2.6.6.8 1h2.3v-2.1zm-4.2 6.4c.2 0 .4-.1.6-.2c.1-.1.3-.3.4-.5c.2-.2.3-.5.3-.8c.1-.3.2-.6.2-1c0-.3-.1-.7-.2-1c0-.3-.1-.5-.3-.7c-.1-.2-.3-.4-.4-.5c-.2-.1-.4-.2-.6-.2c-.2 0-.4.1-.6.2c-.2.1-.4.3-.5.5c-.1.2-.2.4-.3.7c-.1.3-.1.7-.1 1c0 .4 0 .7.1 1c.1.3.2.6.3.8c.1.2.3.4.5.5c.2.1.4.2.6.2zm2.2-2.5c0 .5 0 .8-.1 1.1c.04-.02 2.1 0 2.1 0v-2.2s-2.09-.03-2.1 0c.1.2.1.3.1.5v.6zm13-.1v.7h-1.5v4.7h-.8v-9.1h.8v3.7h1.5zM22 37.7v1.3h2.2v.7h-5.4v-.7h2.4v-1.3h.8zm-.4 2.7c.3 0 .6.1.9.2c.3.1.5.2.7.4c.2.2.3.4.5.7c.1.3.1.5.1.8c0 .4 0 .6-.1.9c-.2.3-.3.5-.5.7c-.2.2-.4.3-.7.4c-.3.1-.6.1-.9.1c-.3 0-.6 0-.9-.1c-.3-.1-.5-.2-.7-.4c-.2-.2-.4-.4-.5-.7c-.1-.3-.1-.5-.1-.9c0-.3 0-.5.1-.8c.1-.3.3-.5.5-.7c.2-.2.4-.3.7-.4c.3-.1.6-.2.9-.2zm0 3.6c.2 0 .4-.1.6-.2c.1 0 .3-.1.4-.2c.1-.2.2-.3.3-.5c.1-.2.1-.3.1-.6c0-.2 0-.3-.1-.5c-.1-.2-.2-.3-.3-.5c-.1-.1-.3-.2-.4-.3c-.2 0-.4-.1-.6-.1c-.2 0-.4.1-.6.1c-.2.1-.3.2-.4.3c-.2.2-.3.3-.3.5c-.1.2-.1.3-.1.5c0 .3 0 .4.1.6c0 .2.1.3.3.5c.1.1.2.2.4.2c.2.1.4.2.6.2zm13.8-3.7v.7h-6.2v-3.1h.8v2.4h5.4zm-7.3 1.9h8.3v.7h-8.3v-.7zm1.9 1.6v2h5.5v.7h-6.4v-2.7h.9zm14.2-3.9h1.8v-2.3h.9v5.4h-.9v-2.4h-1.8v-.7zm.5 2.1l-.4.7c-.5-.2-.9-.5-1.3-.9c-.4-.3-.7-.7-.9-1.2c-.2.5-.5 1-.9 1.4c-.4.4-.9.7-1.4.9l-.4-.6c.3-.2.6-.3.9-.5c.3-.3.5-.5.7-.8c.2-.2.4-.5.5-.8c.1-.4.2-.7.2-1c-.02 0 0-.3 0-.3h-2.1v-.7h4.9v.7h-2v.3c0 .3.1.6.2.9c.1.3.2.5.4.8c.2.2.5.4.7.6c.3.2.6.4.9.5zm-.8 1.3c.4 0 .9 0 1.2.1c.4.1.7.2 1 .3c.2.2.5.4.6.6c.1.2.2.4.2.7c0 .3-.1.5-.2.7c-.1.2-.4.4-.6.5c-.3.2-.6.3-1 .4c-.3.1-.8.1-1.2.1c-.5 0-.9 0-1.3-.1c-.4-.1-.7-.2-1-.4c-.2-.1-.4-.3-.6-.5c-.1-.2-.2-.4-.2-.7c0-.3.1-.5.2-.7l.6-.6c.3-.1.6-.2 1-.3c.4-.1.8-.1 1.3-.1zm0 2.7c.7 0 1.2-.1 1.6-.2c.4-.2.6-.5.6-.8c0-.3-.2-.6-.6-.8c-.4-.2-.9-.3-1.6-.3c-.7 0-1.3.1-1.7.3c-.4.2-.6.5-.6.8c0 .3.2.6.6.8c.4.1 1 .2 1.7.2zm12.9-3.9v.7h-2.2v3.9h-.8v-3.9h-2.3v3.9h-.8v-3.9h-2.2v-.7s6.05.02 6 0c.2-.7.3-1.3.3-1.9v-1.4c.04.02-5.2 0-5.2 0v-.7h6.1s-.04.71 0 .7c0 .4-.1.9-.1 1.4c0 .6-.1 1.2-.2 1.9c-.01.02 1.4 0 1.4 0zm7.5 0h3.8v.7h-8.3v-.7h3.7v-.9h-2.6v-3.4h.8v1h4.4v-1h.9v3.4h-2.7v.9zm-2.6-2.7v1.1h4.4v-1.1h-4.4zm2.2 4.1c1 0 1.8.1 2.3.4c.6.3.8.7.8 1.2c0 .5-.2.9-.8 1.2c-.5.2-1.3.4-2.3.4c-1 0-1.7-.2-2.3-.4c-.5-.3-.8-.7-.8-1.2c0-.5.3-.9.8-1.2c.6-.3 1.3-.4 2.3-.4zm0 2.5c.7 0 1.3 0 1.7-.2c.4-.2.6-.4.6-.7c0-.3-.2-.6-.6-.7c-.4-.2-1-.3-1.7-.3c-.7 0-1.3.1-1.7.3c-.4.1-.6.4-.6.7c0 .3.2.5.6.7c.4.2 1 .2 1.7.2zm13.6-4.7v.6H76v4.8h-.8v-9.1h.8v3.7h1.5zm-5.5-3s.03 1.68 0 1.7c0 .4.1.8.2 1.2c.1.4.3.7.5 1.1c.2.3.5.7.8.9c.2.3.5.5.9.7l-.6.7c-.5-.3-.9-.7-1.3-1.2c-.4-.5-.7-1-.9-1.7c-.2.7-.5 1.3-.9 1.8c-.4.5-.8 1-1.4 1.2l-.5-.6c.4-.2.7-.4 1-.7c.3-.3.5-.6.7-1c.2-.4.4-.8.5-1.2c.1-.4.2-.8.2-1.2c.01-.02 0-1.7 0-1.7h.8zm13.2 2h1.4v.6h-1.4v3.3h-.8v-6.7h.8v2.8zm-1.8 1.2l.1.7c-.3.1-.6.1-.9.2c-.3 0-.6 0-.9.1h-2.4c-.03.04-.7 0-.7 0v-4.2h4v.7h-3.2v2.9c.4 0 .9 0 1.2-.1h1c.4 0 .7-.1 1-.1c.2 0 .5-.1.8-.2zm-3 2v2.3h5.2v.7h-6.1v-3h.9zm13.6-6h.8v9.2h-.8v-9.2zm-4 .7c.3 0 .6.1.9.3c.3.1.6.3.8.6c.2.3.3.6.4 1c.2.4.2.8.2 1.3c0 .5 0 1-.2 1.4c-.1.3-.2.7-.4 1c-.2.2-.5.5-.8.6c-.3.2-.6.2-.9.2c-.4 0-.7 0-1-.2c-.2-.1-.5-.4-.7-.6c-.2-.3-.4-.7-.5-1c-.1-.4-.1-.9-.1-1.4c0-.5 0-.9.1-1.3c.1-.4.3-.7.5-1c.2-.3.5-.5.7-.6c.3-.2.6-.3 1-.3zm0 .8c-.2 0-.4.1-.6.2c-.2.1-.4.3-.5.5c-.2.2-.3.4-.3.7c-.1.3-.1.7-.1 1c0 .4 0 .7.1 1c0 .3.1.6.3.8c.1.2.3.4.5.5c.2.1.4.2.6.2c.2 0 .4-.1.6-.2c.2-.1.3-.3.5-.5c.1-.2.2-.5.3-.8c.1-.3.1-.6.1-1c0-.3 0-.7-.1-1c-.1-.3-.2-.5-.3-.7c-.2-.2-.3-.4-.5-.5c-.2-.1-.4-.2-.6-.2zm13.2-1.5h.8v9.2h-.8v-3.8H101v1.5h-4.1v-6h4.1v1.3h2.2v-2.2zm-3 6.2v-4.6h-2.5v4.6h2.5zm.8-1.4h2.2v-1.9H101v1.9zm4.3 4.4l.4-2.1h.9l-.6 2.1h-.7zm9-6.6h1.9v-2.5h.8v6.7h-.8v-3.5h-1.9v-.7zm.6 2.1l-.4.7c-.5-.2-1-.5-1.4-.8c-.4-.4-.6-.8-.8-1.3c-.2.5-.5 1-.9 1.4c-.4.4-.9.7-1.4.9l-.5-.7c.4-.1.7-.3 1-.5c.2-.2.5-.4.7-.7c.2-.2.3-.5.5-.8c.1-.3.1-.6.1-1c.02.03 0-.4 0-.4h-2v-.7h4.9v.7h-2s-.04.42 0 .4c0 .3 0 .6.1.9c.1.3.3.5.5.8c.2.2.4.5.7.7c.2.2.5.3.9.4zm-2.9 3.6h5.3v.7h-6.1v-2.8h.8v2.1zm15.2-4.5v.6h-1.5v4.8h-.8v-9.1h.8v3.7h1.5zm-5.5-3s.04 1.68 0 1.7c0 .4.1.8.2 1.2c.1.4.3.7.5 1.1c.2.3.5.7.8.9c.2.3.5.5.9.7l-.6.7c-.4-.3-.9-.7-1.3-1.2c-.4-.5-.7-1-.9-1.7c-.2.7-.5 1.3-.9 1.8c-.4.5-.8 1-1.3 1.2l-.5-.6c.3-.2.6-.4.9-.7c.3-.3.5-.6.7-1c.2-.4.4-.8.5-1.2c.1-.4.2-.8.2-1.2c.01-.02 0-1.7 0-1.7h.8zm11.6.2v.7h-5.4v-.7h2.3v-1.1h.8v1.1h2.3zm3 1.4v.7h-1.4v2.3h-.8v-5.4h.8v2.4h1.4zm-3.5 1.3c0 .2-.1.4-.2.6c-.1.2-.3.4-.4.5c-.2.2-.5.3-.7.4c-.3 0-.6.1-.9.1c-.4 0-.7-.1-.9-.1c-.3-.1-.5-.2-.7-.4c-.2-.1-.3-.3-.5-.5c-.1-.2-.1-.4-.1-.6c0-.3 0-.5.1-.7l.5-.5c.2-.1.4-.2.7-.3c.2-.1.5-.1.9-.1c.3 0 .6 0 .9.1c.2.1.5.2.7.3c.1.2.3.3.4.5c.1.2.2.4.2.7zm-3.6 0c0 .3.1.5.4.7c.2.2.5.3 1 .3c.4 0 .7-.1 1-.3c.2-.2.4-.4.4-.7c0-.3-.2-.6-.4-.7c-.3-.2-.6-.3-1-.3c-.5 0-.8.1-1 .3c-.3.1-.4.4-.4.7zm4.9 3v-.9h.8v3.3h-5.7v-3.3h.8v.9h4.1zm0 1.7v-1H130v1h4.1zm7.5-3.8h3.7v.6H137v-.6h3.7V41h-2.6v-3h6.2v.6h-5.4v1.7h5.4v.7h-2.7v1.1zm-.4 1.3c.9 0 1.7.1 2.3.4c.5.3.8.7.8 1.2c0 .6-.3 1-.8 1.3c-.6.2-1.4.4-2.3.4c-1 0-1.8-.2-2.3-.4c-.6-.3-.9-.7-.9-1.3c0-.5.3-.9.9-1.2c.5-.3 1.3-.4 2.3-.4zm0 2.6c.7 0 1.2 0 1.6-.2c.4-.2.6-.4.6-.8c0-.3-.2-.5-.6-.7c-.4-.2-.9-.3-1.6-.3c-.8 0-1.3.1-1.7.3c-.4.2-.6.4-.6.7c0 .4.2.6.6.8c.4.2.9.2 1.7.2zm11.6-3.9h3.8v.7h-8.3v-.7h3.7v-.9h-2.6v-3.4h.8v1h4.5v-1h.8v3.4h-2.7v.9zm-2.6-2.7v1.1h4.5v-1.1h-4.5zm2.2 4.1c1 0 1.8.1 2.3.4c.6.3.8.7.8 1.2c0 .5-.2.9-.8 1.2c-.5.2-1.3.4-2.3.4c-1 0-1.7-.2-2.3-.4c-.5-.3-.8-.7-.8-1.2c0-.5.3-.9.8-1.2c.6-.3 1.3-.4 2.3-.4zm0 2.5c.7 0 1.3 0 1.7-.2c.4-.2.6-.4.6-.7c0-.3-.2-.6-.6-.7c-.4-.2-1-.3-1.7-.3c-.7 0-1.3.1-1.7.3c-.4.1-.6.4-.6.7c0 .3.2.5.6.7c.4.2 1 .2 1.7.2zm13.6-4.7v.6h-1.5v4.8h-.8v-9.1h.8v3.7h1.5zm-5.5-3s.04 1.68 0 1.7c0 .4.1.8.2 1.2c.1.4.3.7.5 1.1c.2.3.5.7.8.9c.2.3.5.5.9.7l-.6.7c-.4-.3-.9-.7-1.3-1.2c-.4-.5-.7-1-.9-1.7c-.2.7-.5 1.3-.9 1.8c-.4.5-.8 1-1.3 1.2l-.5-.6c.3-.2.6-.4.9-.7c.3-.3.5-.6.7-1c.2-.4.4-.8.5-1.2c.1-.4.2-.8.2-1.2c.01-.02 0-1.7 0-1.7h.8zm7 3.7l-.4-.7c.4 0 .8-.1 1.2-.3c.4-.1.7-.3 1-.6c.3-.2.6-.4.7-.7c.2-.3.3-.6.3-.9c.02.04 0 0 0 0h-2.9v-.7h6.7v.7h-2.9s.05.04 0 0c0 .3.1.6.3.9c.2.3.4.5.7.7c.3.3.7.5 1.1.6c.3.2.7.3 1.1.3l-.3.7l-1-.3c-.4-.1-.7-.3-1-.4c-.3-.2-.5-.4-.8-.7c-.2-.2-.4-.4-.5-.7c-.2.3-.3.5-.6.7c-.2.3-.5.5-.8.7c-.2.1-.6.3-.9.4l-1 .3zm7.4.8v.6h-3.7v3.3h-.9v-3.3h-3.6v-.6h8.2zm8-2.5h1.4v.7h-1.4v3.2h-.8v-6.6h.8v2.7zm-6.7-2s4.28-.05 4.3 0c0 .5-.1 1.1-.3 1.6c-.2.5-.5 1-.9 1.4c-.4.4-.8.8-1.3 1.1c-.6.3-1.2.6-1.8.8l-.4-.7c.6-.2 1.1-.4 1.5-.6c.4-.2.8-.5 1.2-.8c.3-.3.5-.7.7-1c.2-.4.3-.8.4-1.2c-.02.04-3.4 0-3.4 0v-.6zm1.9 5.2v2.3h5.2v.7h-6.1v-3h.9zm11-2c-.5 0-.9 0-1.3-.1c-.4-.1-.7-.2-1-.4c-.3-.1-.5-.3-.7-.6c-.1-.2-.2-.4-.2-.7c0-.3.1-.6.2-.8c.2-.2.4-.4.7-.6c.3-.1.6-.2 1-.3c.4-.1.8-.1 1.3-.1c.5 0 1 0 1.4.1c.4.1.7.2 1 .3c.3.2.5.4.6.6c.2.2.3.5.3.8c0 .3-.1.5-.3.7c-.1.3-.3.5-.6.6c-.3.2-.6.3-1 .4c-.4.1-.9.1-1.4.1zm0-3c-.7 0-1.3.1-1.7.3c-.4.2-.6.5-.6.9c0 .3.2.6.6.8c.4.2 1 .3 1.7.3c.8 0 1.3-.1 1.8-.3c.4-.2.6-.5.6-.8c0-.4-.2-.7-.6-.9c-.5-.2-1-.3-1.8-.3zm-4.1 3.9h8.3v.6H185v-.6zm1.9 1.4v2h5.5v.7h-6.3v-2.7h.8zm15.2-5.1v.6h-5.6v-.6h2.4v-1.1h.8v1.1h2.4zm.8-1.1h.8v9.1h-.8v-9.1zm-3.2 5.6v1c.5 0 .9-.1 1.3-.1c.4 0 .9-.1 1.3-.1l.1.6c-.5.1-1.1.1-1.6.2c-.5 0-1 .1-1.5.1h-1.5c-.5.1-.9.1-1.4.1l-.1-.7c.4 0 .8-.1 1.2-.1h1.4v-1c-.6 0-1-.2-1.3-.5c-.3-.3-.5-.7-.5-1.2c0-.2 0-.4.2-.6c.1-.3.2-.4.4-.6c.2-.1.4-.2.7-.3c.3-.1.6-.1.9-.1c.3 0 .6 0 .9.1c.3.1.5.2.7.3c.2.2.3.3.4.6c.1.2.2.4.2.6c0 .5-.2.9-.5 1.2c-.3.3-.7.5-1.3.5zm-1.8-1.7c0 .4.1.6.4.8c.2.2.6.3 1 .3c.4 0 .7-.1 1-.3c.3-.2.4-.4.4-.8c0-.3-.1-.5-.4-.7c-.3-.2-.6-.3-1-.3c-.4 0-.8.1-1 .3c-.3.2-.4.4-.4.7zm16.1-.2v.6h-1.5v4.8h-.9v-9.1h.9v3.7h1.5zm-5.5-3s.02 1.68 0 1.7c0 .4.1.8.2 1.2c.1.4.3.7.5 1.1c.2.3.5.7.7.9c.3.3.6.5.9.7l-.5.7c-.5-.3-.9-.7-1.3-1.2c-.4-.5-.7-1-.9-1.7c-.2.7-.5 1.3-.9 1.8c-.4.5-.8 1-1.4 1.2l-.5-.6c.4-.2.7-.4 1-.7c.2-.3.5-.6.7-1c.2-.4.4-.8.5-1.2c.1-.4.2-.8.2-1.2c-.01-.02 0-1.7 0-1.7h.8zM220 42l-.4.7c-.5-.2-1-.4-1.4-.7c-.4-.4-.7-.7-.9-1.2c-.2.5-.5.9-.8 1.3c-.4.4-.9.6-1.4.8l-.5-.6c.4-.1.7-.3 1-.5c.2-.2.5-.4.7-.6c.2-.3.3-.5.4-.8c.2-.3.2-.6.2-.9v-.2h-2v-.6h2v-1.2h.8v1.2h2.1v.6h-2.1s.05.21 0 .2c0 .3.1.6.2.8c.1.3.3.5.5.7c.2.3.4.5.7.6c.2.2.5.3.9.4zm1.7-2.1h1.4v.7h-1.4v2.6h-.8v-5.7h.8v2.4zm-2.9 3.5c1 0 1.7.1 2.2.4c.6.3.8.7.8 1.2c0 .6-.2 1-.8 1.2c-.5.3-1.2.5-2.2.5c-.9 0-1.7-.2-2.2-.5c-.5-.2-.8-.6-.8-1.2c0-.5.3-.9.8-1.2c.5-.3 1.3-.4 2.2-.4zm0 2.6c.7 0 1.2-.1 1.6-.2c.4-.2.6-.4.6-.8c0-.3-.2-.5-.6-.7c-.4-.2-.9-.3-1.6-.3c-.7 0-1.2.1-1.6.3c-.4.2-.6.4-.6.7c0 .4.2.6.6.8c.4.1.9.2 1.6.2zm11.7-8.4h.8v5h-.8v-5zm-1.1 3.8l.1.7c-.4 0-.8.1-1.1.1c-.4.1-.7.1-1.1.1c-.3 0-.7.1-1.1.1H225c.02-.02-.7 0-.7 0v-2.6h3.3v-1.1h-3.3v-.7h4.1v2.5h-3.3v1.2h1.2c.3 0 .7 0 1-.1h1c.4-.1.7-.1 1.1-.2zm1.1 2.7V43h.8v3.6h-5.9V43h.8v1.1h4.3zm0 1.8v-1.1h-4.3v1.1h4.3zm9.2-8.4h.8v9.2h-.8v-9.2zm-6.2 1s4.31.03 4.3 0c0 .7-.1 1.3-.2 1.9c-.2.7-.4 1.2-.8 1.8c-.3.5-.8 1-1.3 1.5c-.5.5-1.2.9-1.9 1.3l-.5-.7c1.2-.6 2.2-1.3 2.8-2.2c.6-.8 1-1.8 1.1-2.9h-3.5v-.7zm15.4-1h.8v5.4h-.8v-2.1h-2.6v-.6h2.6v-1h-2.6v-.6h2.6v-1.1zm-1.6 4l.1.7c-.4 0-.7.1-1 .1c-.3.1-.6.1-.9.1c-.4.1-.7.1-1 .1h-1.8V38h.8s.04 3.82 0 3.8h2l1.8-.3zm-3.5 5.1v-3.3h5.9v3.3h-5.9zm.8-2.6v1.9h4.3V44h-4.3zm14.3-6.5v4.7h-.9v-4.7h.9zm-2.6 2.4c0 .3-.1.6-.2.8c-.1.3-.3.5-.5.7c-.2.1-.4.3-.7.4c-.3.1-.6.1-1 .1c-.3 0-.6 0-.9-.1c-.3-.1-.6-.3-.8-.4c-.2-.2-.3-.4-.5-.7c-.1-.2-.1-.5-.1-.8c0-.3 0-.6.1-.8c.2-.3.3-.5.5-.7c.2-.1.5-.3.8-.4c.3-.1.6-.1.9-.1c.4 0 .7 0 1 .1c.3.1.5.3.7.4c.2.2.4.4.5.7c.1.2.2.5.2.8zm-3.9 0c0 .2 0 .4.1.5c.1.2.2.4.3.5c.2.1.3.2.5.3c.2 0 .4.1.6.1c.2 0 .4-.1.6-.1c.2-.1.4-.2.5-.3c.2-.1.3-.3.4-.5c0-.1.1-.3.1-.5c0-.2-.1-.4-.1-.5c-.1-.2-.2-.3-.4-.5c-.1-.1-.3-.2-.5-.2c-.2-.1-.4-.1-.6-.1c-.2 0-.4 0-.6.1c-.2 0-.3.1-.5.2c-.1.2-.2.3-.3.5c-.1.1-.1.3-.1.5zm1.4 6h5.4v.7h-6.3v-2.3h5.1v-1h-5.1v-.6h6v2.2h-5.1v1zm10.9-5c-1 0-1.8-.2-2.4-.4c-.6-.3-.9-.7-.9-1.2c0-.5.3-.9.9-1.2c.6-.3 1.4-.4 2.4-.4c1 0 1.8.1 2.3.4c.6.3.9.7.9 1.2c0 .5-.3.9-.9 1.2c-.5.2-1.3.4-2.3.4zm0-2.6c-.8 0-1.4.1-1.8.3c-.4.1-.6.4-.6.7c0 .3.2.5.6.7c.4.2 1 .2 1.8.2c.7 0 1.3 0 1.7-.2c.4-.2.6-.4.6-.7c0-.3-.2-.6-.6-.7c-.4-.2-1-.3-1.7-.3zm-4.2 3.2h8.3v.7h-8.3v-.7zm1.9 3.5v.9h5.6v.7h-6.5v-2.2h5.4v-.8h-5.4v-.7h6.2v2.1h-5.3zm16.5-5.3h1.3v.7h-1.3v2.4h-.8v-5.3h.8v2.2zm-2.5-1.5v3.9h-4.2v-3.9h4.2zm-.8 3.2v-2.6H273v2.6h2.6zM279 44s-2.51-.02-2.5 0c0 .2.1.4.3.7c.1.2.4.4.6.6c.3.1.6.3.9.4c.4.2.7.3 1.1.3l-.3.7l-1-.3c-.3-.1-.6-.2-.8-.4c-.3-.1-.5-.3-.7-.5c-.2-.2-.4-.4-.5-.6c-.2.2-.3.4-.5.6c-.3.2-.5.4-.8.5c-.2.2-.5.3-.8.4c-.3.1-.6.2-1 .3l-.3-.7c.4 0 .7-.1 1.1-.3c.3-.1.6-.2.9-.4c.3-.2.5-.4.6-.6c.2-.2.3-.5.3-.7c.01-.02-2.5 0-2.5 0v-.7h5.9v.7zm10.5-2.8v.7H288v4.8h-.8v-9.1h.8v3.6h1.5zm-6.1-3c.3 0 .7.1.9.3c.3.1.6.3.8.6c.2.3.3.6.4 1c.1.4.2.8.2 1.3c0 .5-.1 1-.2 1.4c-.1.3-.2.7-.4 1c-.2.2-.5.5-.8.6c-.2.2-.6.2-.9.2c-.3 0-.6 0-.9-.2c-.3-.1-.6-.4-.8-.6c-.2-.3-.3-.7-.4-1c-.1-.4-.2-.9-.2-1.4c0-.5.1-.9.2-1.3c.1-.4.2-.7.4-1c.2-.3.5-.5.8-.6c.3-.2.6-.3.9-.3zm0 5.7c.2 0 .4-.1.6-.2c.2-.1.3-.3.5-.5c.1-.2.2-.5.3-.8c.1-.3.1-.6.1-1c0-.3 0-.7-.1-1c-.1-.3-.2-.5-.3-.7c-.2-.2-.3-.4-.5-.5c-.2-.1-.4-.2-.6-.2c-.2 0-.4.1-.6.2c-.2.1-.3.3-.5.5c-.1.2-.2.4-.3.7c-.1.3-.1.7-.1 1c0 .4 0 .7.1 1c.1.3.2.6.3.8c.2.2.3.4.5.5c.2.1.4.2.6.2zm13.4.9h3.7v.7h-8.3v-.7h3.7v-2.2h-2.7v-4.3h6.3v4.3h-2.7v2.2zM294 39v2.9h4.7V39H294zm14.7 1.9v.7h-6.2v-3.5h6v.7h-5.1v2.1h5.3zm1 1.9v.7h-3.8v3.1h-.8v-3.1h-3.7v-.7h8.3zm9.4-1.5v.6h-1.5v4.8h-.8v-9.2h.8v3.8h1.5zm-8-2.8s4.16.02 4.2 0c0 .7-.1 1.3-.3 1.9c-.1.6-.4 1.2-.7 1.8c-.3.5-.8 1-1.3 1.5c-.5.5-1.1.9-1.9 1.3l-.4-.7c1.1-.6 2.1-1.3 2.7-2.2c.6-.8.9-1.8 1-2.9c.03.01-3.3 0-3.3 0v-.7zm16.2.2v.6h-5.4v-.6h2.3v-1.1h.8v1.1h2.3zm1.6 1.9h1.4v.7h-1.4v3.1h-.8v-6.8h.8v3zm-2.1.9c0 .3-.1.5-.2.7c-.1.3-.2.4-.4.6c-.2.1-.5.2-.7.3c-.3.1-.6.1-.9.1c-.4 0-.6 0-.9-.1c-.3-.1-.5-.2-.7-.3c-.2-.2-.3-.3-.5-.6c-.1-.2-.1-.4-.1-.7c0-.2 0-.5.1-.7l.5-.5c.2-.1.4-.3.7-.3c.3-.1.5-.2.9-.2c.3 0 .6.1.9.2c.2 0 .5.2.7.3c.2.2.3.3.4.5c.1.2.2.5.2.7zm-3.6 0c0 .4.1.6.4.8c.2.2.5.3 1 .3c.4 0 .7-.1 1-.3c.2-.2.4-.4.4-.8c0-.3-.2-.5-.4-.7c-.3-.2-.6-.3-1-.3c-.5 0-.8.1-1 .3c-.3.2-.4.4-.4.7zm.9 2.4v1.9h5.3v.7h-6.1v-2.6h.8zm15.5-2.7v.7h-1.5v4.8h-.9v-9.1h.9v3.6h1.5zm-8.2 3.2v-5.9h4.2v5.9h-4.2zm.8-5.3v4.6h2.6v-4.6h-2.6zm12.1-1.4c.5 0 1 .1 1.4.2c.4 0 .7.2 1 .3c.3.2.5.3.6.5c.2.3.3.5.3.8c0 .3-.1.5-.3.7c-.1.2-.3.4-.6.5c-.3.2-.6.3-1 .4c-.4.1-.9.1-1.4.1c-.5 0-.9 0-1.3-.1c-.4-.1-.7-.2-1-.4c-.3-.1-.5-.3-.6-.5c-.2-.2-.3-.4-.3-.7c0-.3.1-.5.3-.8c.1-.2.3-.3.6-.5c.3-.1.6-.3 1-.3c.4-.1.8-.2 1.3-.2zm0 .7c-.7 0-1.3.1-1.7.3c-.4.2-.6.4-.6.8c0 .3.2.6.6.8c.4.2 1 .2 1.7.2c.8 0 1.4 0 1.8-.2c.4-.2.6-.5.6-.8c0-.4-.2-.6-.6-.8c-.4-.2-1-.3-1.8-.3zm-4.1 3.6h8.3v.7h-8.3v-.7zm1 1.6h6.3v3h-6.3v-3zm5.5.6H342v1.7h4.7v-1.7zm10.2-5.5v.6h-5.4v-.6h2.3v-1.1h.8v1.1h2.3zm1.7 1.9h1.3v.7h-1.3v3.1h-.9v-6.8h.9v3zm-2.2.9c0 .3-.1.5-.2.7c-.1.3-.2.4-.4.6c-.2.1-.4.2-.7.3c-.3.1-.6.1-.9.1c-.3 0-.6 0-.9-.1c-.3-.1-.5-.2-.7-.3c-.2-.2-.3-.3-.4-.6c-.1-.2-.2-.4-.2-.7c0-.2.1-.5.2-.7c.1-.2.2-.3.4-.5c.2-.1.4-.3.7-.3c.3-.1.6-.2.9-.2c.3 0 .6.1.9.2c.3 0 .5.2.7.3c.2.2.3.3.4.5c.1.2.2.5.2.7zm-3.6 0c0 .4.1.6.4.8c.2.2.6.3 1 .3c.4 0 .7-.1 1-.3c.3-.2.4-.4.4-.8c0-.3-.1-.5-.4-.7c-.3-.2-.6-.3-1-.3c-.4 0-.8.1-1 .3c-.3.2-.4.4-.4.7zm.9 2.4v1.9h5.3v.7h-6.1v-2.6h.8zm14.5-3.5v.7h-3.1V38h3v.7h-2.2v1.7h2.3zm-3.5-.2l.1.6c-.6.1-1 .2-1.5.2c-.4.1-.9.1-1.4.1c.04-.02-.5 0-.5 0V38h3.1v.7h-2.2s-.04 1.71 0 1.7c.4 0 .7 0 1.1-.1c.4 0 .8-.1 1.3-.1zm-4.1 1.7h8.3v.7h-8.3v-.7zm4.6 1.4s.03.33 0 .3c0 .3.1.6.3.9c.1.2.4.5.6.7c.3.2.6.4 1 .5l1.2.3l-.3.6c-.4 0-.7-.1-1-.2c-.4-.1-.7-.2-.9-.4c-.3-.2-.6-.3-.8-.5c-.2-.3-.4-.5-.5-.7c-.1.2-.3.4-.5.6c-.3.2-.5.4-.8.6c-.3.2-.6.3-.9.4c-.3.1-.6.2-1 .2l-.3-.6l1.2-.3c.4-.1.7-.3 1-.5c.2-.2.5-.5.6-.7c.2-.3.3-.6.3-.9c-.03.03 0-.3 0-.3h.8zm8.8-5.2c.4 0 .9.1 1.3.2c.4.1.7.3 1 .5c.3.2.6.5.7.8c.2.3.3.7.3 1c0 .4-.1.8-.3 1.1c-.1.3-.4.6-.7.8c-.3.2-.6.4-1 .5c-.4.1-.9.2-1.3.2c-.5 0-1-.1-1.4-.2c-.4-.1-.7-.3-1-.5c-.3-.2-.5-.5-.7-.8c-.2-.3-.3-.7-.3-1.1c0-.3.1-.7.3-1c.2-.3.4-.6.7-.8c.3-.2.6-.4 1-.5c.4-.1.9-.2 1.4-.2zm0 .7c-.4 0-.7 0-1 .1c-.4.1-.6.2-.8.4c-.3.2-.4.4-.6.6c-.1.2-.2.5-.2.7c0 .3.1.6.2.8c.2.2.3.4.6.6c.2.1.4.3.8.4c.3 0 .6.1 1 .1c.3 0 .7-.1 1-.1c.3-.1.5-.3.8-.4c.2-.2.4-.4.5-.6c.1-.2.2-.5.2-.8c0-.2-.1-.5-.2-.7c-.1-.2-.3-.4-.5-.6c-.3-.2-.5-.3-.8-.4c-.3-.1-.7-.1-1-.1zm-4.2 6h8.3v.7h-8.3v-.7zm13.8.1h3.7v.7H379v-.7h3.7v-1.7H380v-2.9h5.5v-1.4H380v-.7h6.3v2.8h-5.4v1.5h5.6v.7h-2.9v1.7z" stroke="none" fill="#111111"/></g><g id="Polygon116417"><path d="m8 19.1v5.2h-.8v-5.2h.8zm-4.9 4.7c-.3 0-.6 0-.9-.1c-.3-.1-.6-.3-.8-.4c-.2-.2-.3-.5-.5-.7c-.1-.3-.1-.6-.1-.9c0-.3 0-.6.1-.9c.2-.2.3-.4.5-.6c.2-.2.5-.4.8-.5c.3-.1.6-.1.9-.1c.4 0 .7 0 1 .1c.3.1.5.3.8.5c.2.2.3.4.4.6c.2.3.2.6.2.9c0 .3 0 .6-.2.9c-.1.2-.2.5-.4.7c-.3.1-.5.3-.8.4c-.3.1-.6.1-1 .1zm0-3.5c-.2 0-.4 0-.6.1c-.2.1-.4.2-.5.3c-.1.1-.2.3-.3.4c-.1.2-.1.4-.1.6c0 .2 0 .4.1.6c.1.2.2.3.3.4c.1.2.3.3.5.3c.2.1.4.2.6.2c.3 0 .5-.1.7-.2c.2 0 .3-.1.5-.3c.1-.1.2-.2.3-.4c.1-.2.1-.4.1-.6c0-.2 0-.4-.1-.6c-.1-.1-.2-.3-.3-.4c-.2-.1-.3-.2-.5-.3c-.2-.1-.4-.1-.7-.1zM7 24.7s.03.46 0 .5c0 .2.1.4.2.7c0 .2.2.4.3.6l.6.6c.2.1.5.2.8.3l-.5.7c-.4-.2-.8-.4-1.1-.7c-.3-.3-.5-.7-.7-1.1c-.1.4-.3.8-.6 1.1c-.3.3-.7.6-1.1.7c-.4-.1-.8-.4-1.1-.7c-.2-.3-.5-.6-.6-1c-.2.3-.4.7-.7 1c-.3.3-.7.5-1.1.7l-.4-.7c.3-.1.5-.2.8-.4c.2-.1.4-.3.5-.5c.2-.2.3-.4.4-.7c.1-.2.1-.4.1-.6c.03-.04 0-.5 0-.5h.8s.03.46 0 .5c0 .4.1.8.3 1.2c.2.4.6.7 1 .9c.2-.1.4-.3.6-.4c.1-.2.3-.4.4-.6c.1-.2.2-.4.2-.6c.1-.2.1-.4.1-.5v-.5h.8zm11.3-2v.6h-1.5v4.9h-.9V19h.9v3.7h1.5zm-7.4-2.1s.04 4.61 0 4.6h2.2c.4-.1.7-.1 1-.1c.3-.1.6-.1 1-.2l.1.7c-.4.1-.7.1-1.1.2c-.3 0-.6 0-1 .1h-2.3c.03.03-.7 0-.7 0v-6h4.3v.7h-3.5zm7.9 7v-1h.9v1h-.9zm5.5-7.6v1.1h-1.1s.03-1.09 0-1.1c0-.4.1-.7.2-.9c.1-.2.2-.3.4-.4c.2-.1.3-.1.5-.1v.4c-.1 0-.2.1-.3.1c-.1.1-.1.2-.2.3v.3c-.1.1-.1.2-.1.3h.6zm9.6 2.8v.6h-1.5v4.8h-.8v-9.1h.8v3.7h1.5zm-5.5-3s.05 1.68 0 1.7c0 .4.1.8.2 1.2c.2.4.3.7.5 1.1c.2.3.5.7.8.9c.3.3.6.5.9.7l-.5.7c-.5-.3-1-.7-1.4-1.2c-.4-.5-.7-1-.9-1.7c-.2.7-.5 1.3-.9 1.8c-.4.5-.8 1-1.3 1.2l-.5-.6c.3-.2.6-.4.9-.7c.3-.3.5-.6.7-1c.2-.4.4-.8.5-1.2c.2-.4.2-.8.2-1.2c.02-.02 0-1.7 0-1.7h.8zm12.8-.7h.9v4.9h-.9v-2.1s-1.81.01-1.8 0c-.1.6-.3 1-.8 1.3c-.4.3-.9.5-1.5.5c-.4 0-.7 0-1-.2c-.3-.1-.5-.2-.7-.4c-.2-.2-.4-.4-.5-.7c-.1-.2-.2-.5-.2-.8c0-.3.1-.6.2-.9c.1-.2.3-.5.5-.6c.2-.2.4-.4.7-.5c.3-.1.6-.1 1-.1c.3 0 .5 0 .8.1c.3.1.5.2.7.4c.2.1.4.3.5.5c.2.2.2.5.3.7c-.02.02 1.8 0 1.8 0v-2.1zM37.1 23c.2 0 .4 0 .6-.1c.2-.1.3-.2.5-.3c.1-.1.2-.3.3-.4c.1-.2.1-.4.1-.6c0-.2 0-.4-.1-.6c-.1-.2-.2-.3-.3-.4c-.2-.2-.3-.3-.5-.3c-.2-.1-.4-.1-.6-.1c-.3 0-.5 0-.7.1c-.2 0-.3.1-.5.3c-.1.1-.2.2-.3.4c-.1.2-.1.4-.1.6c0 .2 0 .4.1.6c.1.1.2.3.3.4c.2.1.3.2.5.3c.2.1.4.1.7.1zm4.2 2.6v-1.2h.8v3.7h-5.9v-3.7h.9v1.2h4.2zm0 1.8v-1.2h-4.2v1.2h4.2zm9.5-6h1.4v.7h-1.4v2.5h-.8v-5.5h.8v2.3zM49 23.5l-.4.6c-.5-.1-.9-.4-1.3-.7c-.4-.4-.7-.8-.9-1.2c-.2.5-.5.9-.9 1.3c-.4.4-.8.7-1.4.9l-.4-.7c.3-.1.7-.3.9-.5c.3-.2.6-.4.8-.6c.2-.3.3-.6.4-.9c.1-.3.2-.6.2-.9v-.4h-2.1v-.7h4.9v.7h-2s.03.35 0 .4c0 .3.1.5.2.8c.1.3.2.6.4.8c.2.2.5.4.7.6c.3.2.6.4.9.5zm-1.1 1.3c.5 0 .9 0 1.3.1c.3.1.7.2.9.3c.3.2.5.4.6.6c.2.2.2.4.2.7c0 .3 0 .5-.2.7c-.1.2-.3.4-.6.5c-.2.2-.6.3-.9.4c-.4 0-.8.1-1.3.1c-.9 0-1.6-.2-2.2-.5c-.5-.3-.8-.7-.8-1.2c0-.5.3-1 .8-1.3c.6-.2 1.3-.4 2.2-.4zm0 2.7c.7 0 1.2-.1 1.6-.3c.4-.1.6-.4.6-.7c0-.3-.2-.6-.6-.8c-.4-.1-.9-.2-1.6-.2c-.7 0-1.2.1-1.6.2c-.4.2-.6.5-.6.8c0 .3.2.6.6.7c.4.2.9.3 1.6.3zm11.7-3.9h3.7v.7H55v-.7h3.7v-.9h-2.6v-3.4h.8v1h4.5v-1h.8v3.4h-2.6v.9zm-2.7-2.7v1.1h4.5v-1.1h-4.5zm2.2 4.1c1 0 1.8.1 2.3.4c.6.3.9.7.9 1.2c0 .5-.3.9-.9 1.2c-.5.2-1.3.4-2.3.4c-.9 0-1.7-.2-2.3-.4c-.5-.3-.8-.7-.8-1.2c0-.5.3-.9.8-1.2c.6-.3 1.4-.4 2.3-.4zm0 2.5c.8 0 1.3 0 1.7-.2c.4-.2.6-.4.6-.7c0-.3-.2-.6-.6-.7c-.4-.2-.9-.3-1.7-.3c-.7 0-1.3.1-1.7.3c-.4.1-.6.4-.6.7c0 .3.2.5.6.7c.4.2 1 .2 1.7.2zm13.6-4.7v.6h-1.5v4.8h-.8v-9.1h.8v3.7h1.5zm-5.5-3s.05 1.68 0 1.7c0 .4.1.8.2 1.2c.2.4.3.7.5 1.1c.2.3.5.7.8.9c.3.3.6.5.9.7l-.5.7c-.5-.3-1-.7-1.4-1.2c-.4-.5-.7-1-.9-1.7c-.2.7-.5 1.3-.9 1.8c-.4.5-.8 1-1.3 1.2l-.5-.6c.3-.2.6-.4.9-.7c.3-.3.5-.6.7-1c.2-.4.4-.8.5-1.2c.2-.4.2-.8.2-1.2c.02-.02 0-1.7 0-1.7h.8zm13.3 2h1.3v.6h-1.3v3.3h-.9V19h.9v2.8zM78.7 23v.7c-.3.1-.6.1-.9.2c-.3 0-.6 0-.9.1h-2.4c-.01.04-.7 0-.7 0v-4.2h4v.7h-3.2v2.9c.5 0 .9 0 1.2-.1h1.1c.3 0 .6-.1.9-.1c.3 0 .6-.1.9-.2zm-3.1 2v2.3h5.3v.7h-6.1v-3h.8zm7.1-5.4v-1.1h1.1s.01 1.08 0 1.1v.5c-.1.2-.1.3-.2.5c-.1.1-.2.2-.4.3c-.1.1-.3.1-.5.1v-.4c.1 0 .2-.1.3-.1c.1-.1.2-.2.2-.3c0-.1.1-.2.1-.3v-.3c0-.02-.6 0-.6 0zm6.2 3.4c-.5 0-.9 0-1.3-.1c-.4-.1-.7-.2-1-.4c-.3-.1-.5-.3-.7-.6c-.1-.2-.2-.4-.2-.7c0-.3.1-.6.2-.8c.2-.2.4-.4.7-.6c.3-.1.6-.2 1-.3c.4-.1.8-.1 1.3-.1c.5 0 1 0 1.3.1c.4.1.8.2 1.1.3c.2.2.5.4.6.6c.2.2.2.5.2.8c0 .3 0 .5-.2.7c-.1.3-.4.5-.6.6c-.3.2-.7.3-1.1.4c-.3.1-.8.1-1.3.1zm0-3c-.7 0-1.3.1-1.7.3c-.4.2-.6.5-.6.9c0 .3.2.6.6.8c.4.2 1 .3 1.7.3c.7 0 1.3-.1 1.7-.3c.5-.2.7-.5.7-.8c0-.4-.2-.7-.7-.9c-.4-.2-1-.3-1.7-.3zm-4.1 3.9h8.3v.6h-8.3v-.6zm1.9 1.4v2h5.4v.7h-6.2v-2.7h.8zm17.8-3.9v.6h-1.3v2.4h-.9V19h.9v2.4h1.3zm-8-1.8s4.16.02 4.2 0c0 .6-.1 1.1-.3 1.6c-.2.5-.5 1-.9 1.4c-.3.4-.8.7-1.3 1c-.6.3-1.2.5-1.8.7l-.4-.6c1.2-.4 2.1-.8 2.7-1.4c.6-.5 1-1.2 1.1-2c-.03.01-3.3 0-3.3 0v-.7zm.7 5.9v-.7h6v3.4h-.9v-2.7h-5.1zm18.7-2.7v.6h-1.5v4.8h-.9v-9.1h.9v3.7h1.5zm-5.5-3s-.02 1.68 0 1.7c0 .4 0 .8.2 1.2c.1.4.3.7.5 1.1c.2.3.4.7.7.9c.3.3.6.5.9.7l-.5.7c-.5-.3-.9-.7-1.3-1.2c-.4-.5-.7-1-.9-1.7c-.2.7-.5 1.3-.9 1.8c-.4.5-.9 1-1.4 1.2l-.5-.6c.3-.2.6-.4.9-.7c.3-.3.6-.6.8-1c.2-.4.4-.8.5-1.2c.1-.4.2-.8.2-1.2c-.04-.02 0-1.7 0-1.7h.8zm12.8-.7h.8v4.9h-.8v-2.1h-1.9c-.1.6-.3 1-.7 1.3c-.4.3-1 .5-1.6.5c-.3 0-.7 0-1-.2c-.2-.1-.5-.2-.7-.4c-.2-.2-.4-.4-.5-.7c-.1-.2-.2-.5-.2-.8c0-.3.1-.6.2-.9c.1-.2.3-.5.5-.6c.2-.2.5-.4.7-.5c.3-.1.7-.1 1-.1c.3 0 .6 0 .8.1c.3.1.5.2.8.4c.2.1.3.3.5.5c.1.2.2.5.2.7c.02.02 1.9 0 1.9 0v-2.1zM119 23c.2 0 .4 0 .6-.1c.2-.1.4-.2.5-.3c.2-.1.3-.3.3-.4c.1-.2.2-.4.2-.6c0-.2-.1-.4-.2-.6c0-.2-.1-.3-.3-.4c-.1-.2-.3-.3-.5-.3c-.2-.1-.4-.1-.6-.1c-.2 0-.4 0-.6.1c-.2 0-.4.1-.5.3c-.2.1-.3.2-.4.4c0 .2-.1.4-.1.6c0 .2.1.4.1.6c.1.1.2.3.4.4c.1.1.3.2.5.3c.2.1.4.1.6.1zm4.2 2.6v-1.2h.8v3.7h-5.8v-3.7h.8v1.2h4.2zm0 1.8v-1.2H119v1.2h4.2zm9.6-6h1.3v.7h-1.3v2.5h-.9v-5.5h.9v2.3zm-1.8 2.1l-.4.6c-.6-.1-1-.4-1.4-.7c-.4-.4-.6-.8-.8-1.2c-.2.5-.5.9-.9 1.3c-.4.4-.9.7-1.4.9l-.5-.7c.4-.1.7-.3 1-.5c.3-.2.5-.4.7-.6c.2-.3.4-.6.5-.9c.1-.3.1-.6.1-.9c.03-.05 0-.4 0-.4h-2v-.7h4.9v.7h-2s-.04.35 0 .4c0 .3 0 .5.1.8c.1.3.3.6.5.8c.2.2.4.4.7.6c.2.2.5.4.9.5zm-1.1 1.3c.4 0 .8 0 1.2.1c.4.1.7.2 1 .3l.6.6c.1.2.2.4.2.7c0 .3-.1.5-.2.7c-.2.2-.4.4-.6.5c-.3.2-.6.3-1 .4c-.4 0-.8.1-1.2.1c-1 0-1.7-.2-2.2-.5c-.6-.3-.9-.7-.9-1.2c0-.5.3-1 .9-1.3c.5-.2 1.2-.4 2.2-.4zm0 2.7c.6 0 1.2-.1 1.6-.3c.3-.1.5-.4.5-.7c0-.3-.2-.6-.5-.8c-.4-.1-1-.2-1.6-.2c-.7 0-1.3.1-1.7.2c-.3.2-.5.5-.5.8c0 .3.2.6.5.7c.4.2 1 .3 1.7.3zm9.5-4.8v.8h-4.1v-4h.8v1.3h2.5v-1.3h.8v.8h2.1v-1.2h.9v4.7h-.9v-1.1h-2.1zm2.1-1.7h-2.1v1h2.1v-1zm-2.9 1.8v-1.4h-2.5v1.4h2.5zm-1.3 4.6h5.4v.7h-6.2v-2.3h5.1v-.9h-5.1v-.6h5.9v2.1h-5.1v1zm11.3-1h3.7v.7H144v-.7h3.7v-1.7h-2.6v-2.9h5.4v-1.4H145v-.7h6.3v2.8h-5.4v1.5h5.6v.7h-2.9v1.7zm14.2-7.3v6.6h-.8v-6.6h.8zm-2.5 2.8c0 .4-.1.7-.2.9c-.1.3-.3.6-.5.8c-.2.2-.5.3-.8.4c-.3.1-.6.2-.9.2c-.4 0-.7-.1-1-.2c-.2-.1-.5-.2-.7-.4c-.2-.2-.4-.5-.5-.8c-.1-.2-.2-.5-.2-.9c0-.3.1-.6.2-.9c.1-.3.3-.5.5-.7c.2-.2.5-.3.7-.5c.3-.1.6-.1 1-.1c.3 0 .6 0 .9.1c.3.2.6.3.8.5c.2.2.4.4.5.7c.1.3.2.6.2.9zm-4 0c0 .3.1.5.1.6c.1.2.2.4.4.5c.1.2.3.3.5.4c.2 0 .4.1.6.1c.2 0 .4-.1.6-.1c.2-.1.4-.2.5-.4c.2-.1.3-.3.3-.5c.1-.1.2-.3.2-.6c0-.2-.1-.4-.2-.6c0-.2-.1-.3-.3-.5c-.1-.1-.3-.2-.5-.3c-.2-.1-.4-.1-.6-.1c-.2 0-.4 0-.6.1c-.2.1-.4.2-.5.3c-.2.2-.3.3-.4.5c0 .2-.1.4-.1.6zm1.5 5.4h5.3v.7h-6.2v-3h.9v2.3zm13.7-4c-.03-.05 1.3 0 1.3 0v.6h-8.3v-.6s6.12-.05 6.1 0c.2-.7.2-1.2.2-1.7c.1-.5.1-.9.1-1.3c-.02 0 0 0 0 0h-5.4v-.7h6.2v2c0 .5-.1 1-.2 1.7zm-5.1 1.7v2.3h5.6v.7h-6.4v-3h.8zm16-5.9h.8v9.1h-.8v-9.1zm-3.4 1.6v1.1c0 .4.1.8.2 1.2c.1.4.3.7.5 1.1c.2.3.5.6.8.8c.3.3.6.5.9.6l-.4.7c-.6-.2-1-.6-1.5-1.1c-.4-.5-.7-1.1-.9-1.7c-.1.3-.3.7-.4 1c-.2.3-.4.6-.6.8c-.2.3-.4.5-.6.7c-.3.2-.5.4-.8.5l-.5-.6c.4-.2.7-.4 1-.7c.3-.3.5-.6.7-.9c.3-.4.4-.8.6-1.2c.1-.4.2-.8.2-1.2c-.04.04 0-1.1 0-1.1H176v-.7h5.2v.7H179zm12.6-1.6l.9-.1v5.4h-.9v-1.3s-2.31.02-2.3 0c-.2.3-.5.5-.8.6c-.3.2-.7.3-1.1.3c-.3 0-.6-.1-.9-.2c-.3-.1-.6-.3-.8-.5c-.2-.2-.3-.4-.5-.7c-.1-.2-.1-.5-.1-.9c0-.3 0-.6.1-.8c.2-.3.3-.5.5-.7c.2-.2.5-.4.8-.5c.3-.1.6-.1.9-.1c.4 0 .8 0 1.1.2c.3.1.6.3.8.6h2.3v-1.3zm-4.2 4.1c.2 0 .4 0 .6-.1c.2 0 .4-.1.5-.3c.2-.1.3-.3.3-.5c.1-.1.2-.3.2-.6c0-.2-.1-.4-.2-.6c0-.1-.1-.3-.3-.4c-.1-.1-.3-.2-.5-.3c-.2-.1-.4-.1-.6-.1c-.2 0-.4 0-.6.1c-.2.1-.4.2-.5.3c-.1.1-.3.3-.3.4c-.1.2-.1.4-.1.6c0 .3 0 .5.1.6c0 .2.2.4.3.5c.1.2.3.3.5.3c.2.1.4.1.6.1zm2.4-1.5c0 .3-.1.6-.1.7c-.04.04 1.9 0 1.9 0v-1.3s-1.94-.04-1.9 0c0 .1.1.4.1.6zm-3.5 3.9v-.7h6.2v3.3h-.9v-2.6h-5.3zm16.3-2.8v.6h-1.5v4.8h-.8v-9.1h.8v3.7h1.5zm-5.4-3s-.03 1.68 0 1.7c0 .4 0 .8.1 1.2c.2.4.3.7.5 1.1c.3.3.5.7.8.9c.3.3.6.5.9.7l-.5.7c-.5-.3-1-.7-1.4-1.2c-.3-.5-.6-1-.8-1.7c-.2.7-.5 1.3-.9 1.8c-.4.5-.9 1-1.4 1.2l-.5-.6c.3-.2.6-.4.9-.7c.3-.3.5-.6.8-1c.2-.4.3-.8.5-1.2c.1-.4.1-.8.1-1.2c.04-.02 0-1.7 0-1.7h.9zm11.9.4v.6h-5.6v-.6h2.4v-1.1h.8v1.1h2.4zm.8-1.1h.8v9.1h-.8v-9.1zm-3.2 5.6v1c.5 0 .9-.1 1.3-.1c.5 0 .9-.1 1.3-.1l.1.6c-.5.1-1.1.1-1.6.2c-.5 0-1 .1-1.5.1h-1.5c-.5.1-.9.1-1.4.1l-.1-.7c.4 0 .8-.1 1.3-.1h1.3v-1c-.6 0-1-.2-1.3-.5c-.3-.3-.5-.7-.5-1.2c0-.2.1-.4.2-.6c.1-.3.2-.4.4-.6c.2-.1.4-.2.7-.3c.3-.1.6-.1.9-.1c.3 0 .6 0 .9.1c.3.1.5.2.7.3c.2.2.3.3.4.6c.1.2.2.4.2.6c0 .5-.2.9-.5 1.2c-.3.3-.7.5-1.3.5zm-1.8-1.7c0 .4.1.6.4.8c.2.2.6.3 1 .3c.4 0 .8-.1 1-.3c.3-.2.4-.4.4-.8c0-.3-.1-.5-.4-.7c-.2-.2-.6-.3-1-.3c-.4 0-.8.1-1 .3c-.3.2-.4.4-.4.7zm16.8-3.5v3.2h-6.1v-3.2h6.1zm-.8 2.5v-1.9h-4.5v1.9h4.5zm-6.4 1.7h8.3v.7h-3.6v1.8h-.9v-1.8h-3.8v-.7zm1.9 1.7v1.9h5.5v.7h-6.3v-2.6h.8zm14.3-6.4h.8v9.2h-.8V19zm-1.9 3.3v-3.1h.8v8.5h-.8V23h-1.5v-.7h1.5zm-2.4-1.5v.8c0 .4 0 .8.1 1.2c.1.4.2.8.4 1.1c.2.3.4.7.6.9c.3.3.5.5.8.7l-.5.6c-.4-.2-.8-.6-1.1-1.1c-.3-.4-.5-.9-.7-1.5c-.2.6-.4 1.2-.7 1.7c-.3.5-.7.9-1.2 1.2l-.5-.7c.3-.2.6-.4.9-.7c.2-.3.4-.6.6-1c.2-.3.3-.7.4-1.1c0-.4.1-.9.1-1.3v-.8h-1.7v-.7h4.1v.7h-1.6zm13.4-1.8h.8v9.2h-.8v-4.6h-1.1v4.1h-.8v-8.5h.8v3.7h1.1V19zm-4.2.3v1.3h1.8v.7h-4.5v-.7h1.8v-1.3h.9zm-.4 2.6c.2 0 .5 0 .7.1c.3.2.5.3.7.5c.1.2.3.4.4.6c.1.3.1.6.1.9c0 .3 0 .6-.1.8c-.1.3-.3.5-.4.7c-.2.2-.4.3-.7.4c-.2.1-.5.2-.7.2c-.3 0-.6-.1-.8-.2c-.3-.1-.5-.2-.6-.4c-.2-.2-.4-.4-.5-.7c0-.2-.1-.5-.1-.8c0-.3.1-.6.1-.9c.1-.2.3-.4.5-.6c.1-.2.3-.3.6-.5c.2-.1.5-.1.8-.1zm0 3.5c.3 0 .6-.2.8-.4c.3-.3.4-.6.4-1c0-.2-.1-.4-.1-.6c-.1-.1-.2-.3-.3-.4c-.1-.1-.2-.2-.4-.3c-.1-.1-.3-.1-.4-.1c-.4 0-.7.1-.9.4c-.2.2-.4.6-.4 1c0 .4.2.7.4 1c.2.2.5.4.9.4zm13.6-4.4s-2.29.02-2.3 0c-.3.7-.8 1.3-1.4 1.8c-.7.5-1.5.9-2.6 1.1l-.3-.7c1.2-.2 2-.6 2.7-1.1c.6-.6.9-1.2 1-1.9c-.02-.03-3.2 0-3.2 0v-.7h4.1c0 .3 0 .6-.1.9c0-.03 2.1 0 2.1 0V19h.8v4.7h-.8v-.9h-2.4v-.7h2.4V21zm-4.2 6.4h5.3v.7h-6.2v-2.4h5.1v-.9h-5.1v-.7h5.9v2.3h-5v1zm10.8-5c-1 0-1.8-.2-2.4-.4c-.5-.3-.8-.7-.8-1.2c0-.5.3-.9.8-1.2c.6-.3 1.4-.4 2.4-.4c1 0 1.8.1 2.3.4c.6.3.9.7.9 1.2c0 .5-.3.9-.9 1.2c-.5.2-1.3.4-2.3.4zm0-2.6c-.8 0-1.4.1-1.8.3c-.4.1-.6.4-.6.7c0 .3.2.5.6.7c.4.2 1 .2 1.8.2c.7 0 1.3 0 1.7-.2c.4-.2.6-.4.6-.7c0-.3-.2-.6-.6-.7c-.4-.2-1-.3-1.7-.3zm-4.2 3.2h8.3v.7h-8.3v-.7zm1.9 3.5v.9h5.6v.7h-6.4v-2.2h5.3v-.8h-5.4v-.7h6.3v2.1h-5.4zm16.1-7.4h.8v9.1h-.8v-9.1zm-3.7 4.1c-.3 0-.6 0-.9-.1c-.3-.1-.6-.2-.8-.4c-.2-.2-.3-.3-.4-.6c-.2-.2-.2-.5-.2-.7c0-.3 0-.6.2-.8c.1-.2.2-.4.4-.6c.2-.2.5-.3.8-.4c.3-.1.6-.1.9-.1c.4 0 .7 0 1 .1c.2.1.5.2.7.4c.2.2.4.4.5.6c.1.2.1.5.1.8c0 .2 0 .5-.1.7c-.1.3-.3.4-.5.6c-.2.2-.5.3-.7.4c-.3.1-.6.1-1 .1zm0-3c-.4 0-.8.1-1.1.3c-.3.2-.4.5-.4.9c0 .3.1.6.4.8c.3.2.7.3 1.1.3c.5 0 .8-.1 1.1-.3c.3-.2.4-.5.4-.8c0-.4-.1-.7-.4-.9c-.3-.2-.6-.3-1.1-.3zm3 3.5l.1.6c-.9.2-1.7.3-2.6.3c-.03.01 0 3.3 0 3.3h-.9s.04-3.24 0-3.2h-2.5l-.1-.7h2.9c.5-.1 1-.1 1.6-.1c.5-.1 1-.1 1.5-.2zm10.1-4.7h.8v9.2h-.8v-4.6h-1.1v4.1h-.8v-8.5h.8v3.7h1.1V19zm-4.2.3v1.3h1.8v.7h-4.5v-.7h1.8v-1.3h.9zm-.4 2.6c.2 0 .5 0 .7.1c.3.2.5.3.7.5c.1.2.3.4.4.6c.1.3.1.6.1.9c0 .3 0 .6-.1.8c-.1.3-.3.5-.4.7c-.2.2-.4.3-.7.4c-.2.1-.5.2-.7.2c-.3 0-.6-.1-.8-.2c-.3-.1-.5-.2-.6-.4c-.2-.2-.4-.4-.4-.7c-.1-.2-.2-.5-.2-.8c0-.3.1-.6.2-.9c0-.2.2-.4.4-.6c.1-.2.3-.3.6-.5c.2-.1.5-.1.8-.1zm0 3.5c.3 0 .6-.2.8-.4c.3-.3.4-.6.4-1c0-.2-.1-.4-.1-.6c-.1-.1-.2-.3-.3-.4l-.3-.3c-.2-.1-.4-.1-.5-.1c-.4 0-.7.1-.9.4c-.2.2-.4.6-.4 1c0 .4.2.7.4 1c.2.2.5.4.9.4zm15.6-6.3h.9v5.2h-.9v-5.2zm-4.1.4c.4 0 .7.1 1 .2c.3.1.6.2.8.4c.2.2.3.4.5.7c.1.3.1.5.1.9c0 .3 0 .6-.1.8c-.2.3-.3.5-.5.7c-.2.2-.5.3-.8.4c-.3.1-.6.2-1 .2c-.3 0-.6-.1-.9-.2c-.3-.1-.5-.2-.8-.4c-.2-.2-.3-.4-.5-.7c-.1-.2-.1-.5-.1-.8c0-.4 0-.6.1-.9c.2-.3.3-.5.5-.7c.3-.2.5-.3.8-.4c.3-.1.6-.2.9-.2zm0 .7c-.2 0-.4.1-.6.1c-.2.1-.3.2-.5.3c-.1.2-.2.3-.3.5c-.1.2-.1.4-.1.6c0 .2 0 .4.1.5c.1.2.2.4.3.5c.2.1.3.2.5.3c.2.1.4.1.6.1c.3 0 .5 0 .7-.1c.2-.1.3-.2.5-.3c.1-.1.2-.3.3-.5c.1-.1.1-.3.1-.5c0-.2 0-.4-.1-.6c-.1-.2-.2-.3-.3-.5c-.2-.1-.3-.2-.5-.3c-.2 0-.4-.1-.7-.1zm-1 4.6h6v3.3h-6v-3.3zm5.1.6h-4.2v2h4.2v-2zm9.2-6.4h.8v5.6h-.8V19zm-1.1 4.5l-.4.7c-.5-.2-1-.5-1.4-.8c-.4-.4-.7-.8-.9-1.3c-.2.5-.5 1-.9 1.4c-.4.4-.9.6-1.4.8l-.4-.6c.3-.1.6-.3.9-.5c.3-.2.5-.4.7-.7c.2-.3.4-.5.5-.8c.1-.3.2-.7.2-1c-.03.02 0-.3 0-.3h-2.1v-.7h5v.7h-2.1s.03.32 0 .3c0 .3.1.6.2.9c.1.3.3.6.5.8c.2.3.4.5.7.7c.3.1.6.3.9.4zm-4.2 2.2v-.6h6.1v3.1h-.8v-2.5h-5.3zm12.6-1.3h1.9V19h.8v7h-.8v-.9h-1.9v-.7zm-1.9-1.8c-.3 0-.6 0-.9-.1c-.2-.1-.5-.2-.7-.3c-.2-.2-.3-.3-.4-.5c-.2-.2-.2-.5-.2-.7c0-.2 0-.5.2-.7c.1-.2.2-.3.4-.5c.2-.1.5-.2.7-.3c.3-.1.6-.1.9-.1c.4 0 .7 0 1 .1c.2.1.5.2.7.3c.2.2.3.3.4.5c.1.2.2.5.2.7c0 .2-.1.5-.2.7c-.1.2-.2.3-.4.5c-.2.1-.5.2-.7.3c-.3.1-.6.1-1 .1zm0-2.6c-.4 0-.7.1-1 .3c-.3.2-.4.4-.4.7c0 .3.1.5.4.7c.3.2.6.3 1 .3c.5 0 .8-.1 1.1-.3c.3-.2.4-.4.4-.7c0-.3-.1-.5-.4-.7c-.3-.2-.6-.3-1.1-.3zm-.3 5.7s.02-1.78 0-1.8c-.4 0-.9.1-1.3.1h-1.2l-.1-.7h1.3c.5 0 1 0 1.5-.1h1.6c.5-.1 1-.1 1.5-.2v.6c-.4.1-.8.1-1.2.2c-.4 0-.8 0-1.2.1c-.05-.02 0 1.8 0 1.8h-.9zm-.5 1.6h5.6v.7h-6.4v-2.7h.8v2zm13.7-8.3h.9v9.2h-.9V19zm-3.9.7c.3 0 .6.1.9.3c.3.1.5.3.7.6c.2.3.4.6.5 1c.1.4.2.8.2 1.3c0 .5-.1 1-.2 1.4c-.1.3-.3.7-.5 1c-.2.2-.4.5-.7.6c-.3.2-.6.2-.9.2c-.4 0-.7 0-1-.2c-.3-.1-.5-.4-.7-.6c-.2-.3-.4-.7-.5-1c-.1-.4-.2-.9-.2-1.4c0-.5.1-.9.2-1.3c.1-.4.3-.7.5-1c.2-.3.4-.5.7-.6c.3-.2.6-.3 1-.3zm0 .8c-.3 0-.5.1-.7.2c-.1.1-.3.3-.4.5c-.2.2-.3.4-.4.7c0 .3-.1.7-.1 1c0 .4.1.7.1 1c.1.3.2.6.4.8c.1.2.3.4.4.5c.2.1.4.2.7.2c.2 0 .4-.1.6-.2c.2-.1.3-.3.5-.5c.1-.2.2-.5.3-.8c0-.3.1-.6.1-1c0-.3-.1-.7-.1-1c-.1-.3-.2-.5-.3-.7c-.2-.2-.3-.4-.5-.5c-.2-.1-.4-.2-.6-.2zm17.1 2.2v.7h-1.5v4.8h-.8v-9.1h.8v3.6h1.5zm-5.5-2s.04 1.14 0 1.1c0 .4.1.8.2 1.1c.1.4.3.8.5 1.1c.2.3.5.6.8.9c.3.3.6.5.9.6l-.5.7c-.5-.2-.9-.6-1.4-1.1c-.4-.5-.7-1.1-.9-1.7c-.1.3-.2.7-.4 1c-.1.3-.3.6-.5.8c-.2.3-.4.5-.7.7c-.2.2-.4.4-.7.5l-.5-.6c.3-.2.6-.4.9-.7c.3-.3.6-.6.8-1c.2-.3.4-.7.5-1.1c.1-.4.2-.8.2-1.2c.01.04 0-1.1 0-1.1h-2.1v-.7h5v.7h-2.1zm13.2.3h1.4v.7H338v2.1h-.8v-4.7h.8v1.9zm-2.5-1.6v4h-4.2v-4h.8v1.3h2.6v-1.3h.8zm-.8 3.3v-1.3h-2.6v1.3h2.6zm-1.6 3.7v1h5.3v.7h-6.1v-2.3h4.9v-.9h-5v-.7h5.8v2.2h-4.9zm13.7-7.4h.8v5.5h-.8v-2.4H345v-.7h1.8V19zm-1.3 4.5l-.4.7c-.5-.2-1-.5-1.3-.9c-.4-.3-.7-.7-.9-1.2c-.2.5-.5 1-.9 1.4c-.4.4-.9.7-1.4.9l-.5-.7c.4-.1.7-.3 1-.5c.3-.2.5-.4.7-.7c.2-.2.4-.5.5-.8c.1-.3.2-.7.2-1c-.05.01 0-.4 0-.4h-2.1v-.6h4.9v.6h-2v.4c0 .3 0 .6.2.9c.1.3.2.5.4.8c.2.2.4.5.7.6c.3.2.6.4.9.5zm-4 2.2v-.7h6.1v3.2h-.8v-2.5h-5.3zm11.9-6.1c.5 0 .9.1 1.3.2c.5.1.8.3 1.1.5c.3.2.5.5.7.8c.2.3.3.7.3 1c0 .4-.1.8-.3 1.1c-.2.3-.4.6-.7.8c-.3.2-.6.4-1.1.5c-.4.1-.8.2-1.3.2c-.4 0-.9-.1-1.3-.2c-.4-.1-.7-.3-1-.5c-.3-.2-.6-.5-.7-.8c-.2-.3-.3-.7-.3-1.1c0-.3.1-.7.3-1c.1-.3.4-.6.7-.8c.3-.2.6-.4 1-.5c.4-.1.9-.2 1.3-.2zm0 .7c-.3 0-.7 0-1 .1c-.3.1-.6.2-.8.4c-.2.2-.4.4-.5.6c-.1.2-.2.5-.2.7c0 .3.1.6.2.8c.1.2.3.4.5.6c.2.1.5.3.8.4c.3 0 .7.1 1 .1c.4 0 .7-.1 1-.1c.3-.1.6-.3.8-.4c.3-.2.4-.4.6-.6c.1-.2.2-.5.2-.8c0-.2-.1-.5-.2-.7c-.2-.2-.3-.4-.6-.6c-.2-.2-.5-.3-.8-.4c-.3-.1-.6-.1-1-.1zm-4.1 6h8.3v.7h-8.3v-.7zm13.7.1h3.8v.7h-8.3v-.7h3.7v-1.7h-2.7v-2.9h5.4v-1.4h-5.4v-.7h6.3v2.8h-5.5v1.5h5.7v.7h-3v1.7z" stroke="none" fill="#111111"/></g><g id="Polygon116416"><path d="m6.9 2.4c-.02.03 0-.2 0-.2H1.4v-.7h6.3s.01.93 0 .9v2c-.1.3-.1.7-.1 1.1c-.1.4-.2.9-.2 1.4l-.9-.1c.2-.9.3-1.8.3-2.5c.1-.7.1-1.3.1-1.9zM.6 7.7h8.2v.7H.6v-.7zM17.2.6v6.7h-.8V.6h.8zM15.3 5l.1.7c-.4 0-.8.1-1.1.1c-.3.1-.7.1-1 .1c-.4 0-.8.1-1.1.1h-2V3.2h3.3V1.9h-3.3v-.7h4.1v2.6H11s.02 1.5 0 1.5h1.2c.4 0 .7 0 1-.1h1.1c.3-.1.6-.1 1-.2zm-3.2 3.8h5.4v.7h-6.2V6.8h.8v2zm15.3-4.6v.7h-1.5v4.8h-.8V.5h.8v3.7h1.5zm-7.3.5v2.1h1.2c.3 0 .7 0 1-.1c.3 0 .7 0 1-.1c.3 0 .7-.1 1-.1l.1.7c-.4 0-.7.1-1.1.1c-.3.1-.6.1-1 .1c-.3 0-.7.1-1.1.1h-1.9V4h3.3V2.1h-3.4v-.7h4.2v3.3h-3.3zM34.7.5h.9v9.2h-.9V.5zm-4 .7c.4 0 .7.1 1 .3c.3.1.5.3.7.6c.2.3.4.6.5 1c.1.4.2.8.2 1.3c0 .5-.1 1-.2 1.4c-.1.3-.3.7-.5 1c-.2.2-.4.5-.7.6c-.3.2-.6.2-1 .2c-.3 0-.6 0-.9-.2c-.3-.1-.5-.4-.7-.6c-.2-.3-.4-.7-.5-1c-.1-.4-.2-.9-.2-1.4c0-.5.1-.9.2-1.3c.1-.4.3-.7.5-1c.2-.3.4-.5.7-.6c.3-.2.6-.3.9-.3zm0 .8c-.2 0-.4.1-.6.2c-.2.1-.3.3-.5.5c-.1.2-.2.4-.3.7c0 .3-.1.7-.1 1c0 .4.1.7.1 1c.1.3.2.6.3.8c.2.2.3.4.5.5c.2.1.4.2.6.2c.3 0 .5-.1.7-.2c.1-.1.3-.3.4-.5c.2-.2.3-.5.4-.8c0-.3.1-.6.1-1c0-.3-.1-.7-.1-1c-.1-.3-.2-.5-.4-.7c-.1-.2-.3-.4-.4-.5c-.2-.1-.4-.2-.7-.2zm13.9 3.5v.7h-6.3V1.3h6.2v.7h-5.3v1.4h5.1v.6h-5.1v1.5h5.4zm-7.3 2.3h8.3v.7h-8.3v-.7zM55.2.6h.8v5.2h-.8V.6zm-4.1.4c.4 0 .7.1 1 .2c.3.1.5.2.7.4c.2.2.4.4.5.7c.1.3.2.5.2.9c0 .3-.1.6-.2.8c-.1.3-.3.5-.5.7c-.2.2-.4.3-.7.4c-.3.1-.6.2-1 .2c-.3 0-.7-.1-.9-.2c-.3-.1-.6-.2-.8-.4c-.2-.2-.4-.4-.5-.7c-.1-.2-.2-.5-.2-.8c0-.4.1-.6.2-.9c.1-.3.3-.5.5-.7c.2-.2.5-.3.8-.4c.2-.1.6-.2.9-.2zm0 .7c-.2 0-.4.1-.6.1c-.2.1-.4.2-.5.3c-.1.2-.3.3-.3.5c-.1.2-.1.4-.1.6c0 .2 0 .4.1.5c0 .2.2.4.3.5c.1.1.3.2.5.3c.2.1.4.1.6.1c.2 0 .5 0 .6-.1c.2-.1.4-.2.5-.3c.2-.1.3-.3.4-.5c.1-.1.1-.3.1-.5c0-.2 0-.4-.1-.6c-.1-.2-.2-.3-.4-.5c-.1-.1-.3-.2-.5-.3c-.1 0-.4-.1-.6-.1zm-1 4.6h5.9v3.3h-5.9V6.3zm5.1.6h-4.3v2h4.3v-2zM64.4.5h.8v5.6h-.8V.5zM63.3 5l-.4.7c-.5-.2-1-.5-1.4-.8c-.4-.4-.7-.8-.9-1.3c-.2.5-.5 1-.9 1.4c-.4.4-.9.6-1.4.8l-.5-.6c.4-.1.7-.3 1-.5c.3-.2.5-.4.7-.7c.2-.3.4-.5.5-.8c.1-.3.1-.7.1-1c.04.02 0-.3 0-.3H58v-.7h5.1v.7H61v.3c0 .3.1.6.2.9c.1.3.2.6.4.8c.2.3.5.5.8.7c.2.1.6.3.9.4zm-4.2 2.2v-.6h6.1v3.1h-.8V7.2h-5.3zm12.6-1.3h1.8V.5h.9v7h-.9v-.9h-1.8v-.7zm-1.9-1.8c-.3 0-.6 0-.9-.1c-.3-.1-.5-.2-.7-.3c-.2-.2-.4-.3-.5-.5c-.1-.2-.1-.5-.1-.7c0-.2 0-.5.1-.7c.1-.2.3-.3.5-.5c.2-.1.4-.2.7-.3c.3-.1.6-.1.9-.1c.3 0 .6 0 .9.1c.3.1.5.2.7.3c.2.2.4.3.5.5c.1.2.2.5.2.7c0 .2-.1.5-.2.7c-.1.2-.3.3-.5.5c-.2.1-.4.2-.7.3c-.3.1-.6.1-.9.1zm0-2.6c-.4 0-.8.1-1 .3c-.3.2-.5.4-.5.7c0 .3.2.5.5.7c.2.2.6.3 1 .3c.4 0 .8-.1 1.1-.3c.2-.2.4-.4.4-.7c0-.3-.2-.5-.4-.7c-.3-.2-.7-.3-1.1-.3zm-.3 5.7s-.02-1.78 0-1.8c-.5 0-.9.1-1.3.1h-1.3l-.1-.7h1.4c.5 0 1 0 1.5-.1h1.5c.5-.1 1-.1 1.5-.2l.1.6c-.4.1-.8.1-1.2.2c-.5 0-.9 0-1.3.1c.02-.02 0 1.8 0 1.8h-.8zM69 8.8h5.6v.7h-6.5V6.8h.9v2zm13.7-3.7h3.7v.7h-8.3v-.7h3.8v-.9h-2.7V.8h.9v1h4.4v-1h.8v3.4h-2.6v.9zm-2.6-2.7v1.1h4.4V2.4h-4.4zm2.2 4.1c1 0 1.7.1 2.3.4c.5.3.8.7.8 1.2c0 .5-.3.9-.8 1.2c-.6.2-1.3.4-2.3.4c-1 0-1.8-.2-2.3-.4c-.6-.3-.9-.7-.9-1.2c0-.5.3-.9.9-1.2c.5-.3 1.3-.4 2.3-.4zm0 2.5c.7 0 1.3 0 1.7-.2c.4-.2.6-.4.6-.7c0-.3-.2-.6-.6-.7c-.4-.2-1-.3-1.7-.3c-.8 0-1.3.1-1.7.3c-.4.1-.6.4-.6.7c0 .3.2.5.6.7c.4.2.9.2 1.7.2zm13.6-4.7v.6h-1.5v4.8h-.9V.6h.9v3.7h1.5zm-5.5-3s-.01 1.68 0 1.7c0 .4.1.8.2 1.2c.1.4.3.7.5 1.1c.2.3.4.7.7.9c.3.3.6.5.9.7l-.5.7c-.5-.3-.9-.7-1.3-1.2c-.4-.5-.7-1-.9-1.7c-.2.7-.5 1.3-.9 1.8c-.4.5-.9 1-1.4 1.2l-.5-.6c.3-.2.6-.4.9-.7c.3-.3.6-.6.8-1c.2-.4.4-.8.5-1.2c.1-.4.2-.8.2-1.2c-.03-.02 0-1.7 0-1.7h.8zm13.2 2h1.4v.6h-1.4v3.3h-.8V.5h.8v2.8zm-1.8 1.2l.1.7c-.3.1-.6.1-.9.2c-.3 0-.7 0-1 .1h-2.4c.03.04-.7 0-.7 0V1.3h4.1v.7h-3.2s-.04 2.86 0 2.9c.4 0 .8 0 1.2-.1h1c.3 0 .6-.1.9-.1c.3 0 .6-.1.9-.2zm-3.1 2v2.3h5.3v.7h-6.1v-3h.8zm11.1-2c-.5 0-.9 0-1.3-.1c-.4-.1-.7-.2-1-.4c-.3-.1-.5-.3-.7-.6c-.1-.2-.2-.4-.2-.7c0-.3.1-.6.2-.8c.2-.2.4-.4.7-.6c.3-.1.6-.2 1-.3c.4-.1.8-.1 1.3-.1c.5 0 .9 0 1.3.1c.4.1.8.2 1.1.3c.2.2.5.4.6.6c.2.2.2.5.2.8c0 .3 0 .5-.2.7c-.1.3-.4.5-.6.6c-.3.2-.7.3-1.1.4c-.4.1-.8.1-1.3.1zm0-3c-.7 0-1.3.1-1.7.3c-.4.2-.6.5-.6.9c0 .3.2.6.6.8c.4.2 1 .3 1.7.3c.7 0 1.3-.1 1.7-.3c.5-.2.7-.5.7-.8c0-.4-.2-.7-.7-.9c-.4-.2-1-.3-1.7-.3zm-4.1 3.9h8.2v.6h-8.2v-.6zm1.9 1.4v2h5.4v.7h-6.3V6.8h.9zm17.9-2.5v.6H124v4.8h-.9V.6h.9v3.7h1.5zm-5.5-3s.01 1.68 0 1.7c0 .4.1.8.2 1.2c.1.4.3.7.5 1.1c.2.3.5.7.7.9c.3.3.6.5.9.7l-.5.7c-.5-.3-.9-.7-1.3-1.2c-.4-.5-.7-1-.9-1.7c-.2.7-.5 1.3-.9 1.8c-.4.5-.9 1-1.4 1.2l-.5-.6c.4-.2.7-.4 1-.7c.2-.3.5-.6.7-1c.2-.4.4-.8.5-1.2c.1-.4.2-.8.2-1.2c-.01-.02 0-1.7 0-1.7h.8zm12.8-.7h.9v4.9h-.9V3.4s-1.84.01-1.8 0c-.1.6-.4 1-.8 1.3c-.4.3-.9.5-1.6.5c-.3 0-.6 0-.9-.2c-.3-.1-.6-.2-.8-.4c-.2-.2-.3-.4-.5-.7c-.1-.2-.1-.5-.1-.8c0-.3 0-.6.1-.9c.2-.2.3-.5.5-.6c.2-.2.5-.4.8-.5c.3-.1.6-.1.9-.1c.3 0 .6 0 .9.1c.2.1.5.2.7.4c.2.1.4.3.5.5c.1.2.2.5.2.7c.05.02 1.9 0 1.9 0V.6zm-4.2 3.9c.2 0 .5 0 .6-.1c.2-.1.4-.2.5-.3c.2-.1.3-.3.4-.4c0-.2.1-.4.1-.6c0-.2-.1-.4-.1-.6c-.1-.2-.2-.3-.4-.4c-.1-.2-.3-.3-.5-.3c-.1-.1-.4-.1-.6-.1c-.2 0-.4 0-.6.1c-.2 0-.4.1-.5.3c-.1.1-.2.2-.3.4c-.1.2-.1.4-.1.6c0 .2 0 .4.1.6c.1.1.2.3.3.4c.1.1.3.2.5.3c.2.1.4.1.6.1zm4.2 2.6V5.9h.9v3.7h-5.9V5.9h.8v1.2h4.2zm0 1.8V7.7h-4.2v1.2h4.2zm9.6-6h1.4v.7h-1.4v2.5h-.8V.6h.8v2.3zM140.6 5l-.4.6c-.5-.1-1-.4-1.3-.7c-.4-.4-.7-.8-.9-1.2c-.2.5-.5.9-.9 1.3c-.4.4-.9.7-1.4.9l-.4-.7c.3-.1.6-.3.9-.5c.3-.2.5-.4.7-.6c.2-.3.4-.6.5-.9c.1-.3.2-.6.2-.9c-.04-.05 0-.4 0-.4h-2.1v-.7h4.9v.7h-2v.4c0 .3 0 .5.1.8c.1.3.3.6.5.8c.2.2.4.4.7.6c.3.2.6.4.9.5zm-1.1 1.3c.5 0 .9 0 1.2.1c.4.1.7.2 1 .3c.3.2.5.4.6.6c.1.2.2.4.2.7c0 .3-.1.5-.2.7c-.1.2-.3.4-.6.5c-.3.2-.6.3-1 .4c-.3 0-.7.1-1.2.1c-.9 0-1.7-.2-2.2-.5c-.6-.3-.8-.7-.8-1.2c0-.5.2-1 .8-1.3c.5-.2 1.3-.4 2.2-.4zm0 2.7c.7 0 1.2-.1 1.6-.3c.4-.1.6-.4.6-.7c0-.3-.2-.6-.6-.8c-.4-.1-.9-.2-1.6-.2c-.7 0-1.2.1-1.6.2c-.4.2-.6.5-.6.8c0 .3.2.6.6.7c.4.2.9.3 1.6.3zm9.6-4.8v.8h-4.2v-4h.9v1.3h2.4V1h.9v.8h2.1V.6h.8v4.7h-.8V4.2h-2.1zm2.1-1.7h-2.1v1h2.1v-1zm-3 1.8V2.9h-2.4v1.4h2.4zM147 8.9h5.4v.7h-6.3V7.3h5.1v-.9h-5.1v-.6h5.9v2.1h-5v1zm17.3-4.7v.7h-1.5v4.8h-.9V.6h.9v3.6h1.5zm-5.5-2s.02 1.14 0 1.1c0 .4.1.8.2 1.1c.1.4.3.8.5 1.1c.2.3.5.6.8.9c.2.3.6.5.9.6l-.5.7c-.5-.2-1-.6-1.4-1.1c-.4-.5-.7-1.1-.9-1.7c-.1.3-.2.7-.4 1c-.1.3-.3.6-.5.8c-.2.3-.4.5-.7.7c-.2.2-.5.4-.7.5l-.5-.6c.3-.2.6-.4.9-.7c.3-.3.6-.6.8-1c.2-.3.4-.7.5-1.1c.1-.4.2-.8.2-1.2V2.2h-2.1v-.7h5v.7h-2.1zm10.3 1.6c-1.1 0-1.8-.1-2.4-.4c-.6-.3-.9-.6-.9-1.2c0-.5.3-.9.9-1.1c.6-.3 1.3-.5 2.4-.5c1 0 1.8.2 2.3.5c.6.2.9.6.9 1.1c0 .6-.3.9-.9 1.2c-.5.3-1.3.4-2.3.4zm0-2.5c-.8 0-1.4.1-1.8.2c-.4.2-.6.4-.6.7c0 .3.2.6.6.7c.4.2 1 .3 1.8.3c.7 0 1.3-.1 1.7-.3c.4-.1.6-.4.6-.7c0-.3-.2-.5-.6-.7c-.4-.1-1-.2-1.7-.2zm4.1 3.7h-2.3v.9h1.2v2.1h-5.3v.9h5.6v.7h-6.5V7.4h5.4v-.8h-5.4v-.7h1.3v-.9h-2.3v-.6h8.3v.6zm-3.1.9v-.9H168v.9h2.1zm8.6-.8h3.7v.7h-8.3v-.7h3.7v-.9h-2.6V.8h.8v1h4.5v-1h.8v3.4h-2.6v.9zM176 2.4v1.1h4.5V2.4H176zm2.2 4.1c1 0 1.8.1 2.3.4c.6.3.9.7.9 1.2c0 .5-.3.9-.9 1.2c-.5.2-1.3.4-2.3.4c-.9 0-1.7-.2-2.3-.4c-.5-.3-.8-.7-.8-1.2c0-.5.3-.9.8-1.2c.6-.3 1.4-.4 2.3-.4zm0 2.5c.8 0 1.3 0 1.7-.2c.4-.2.6-.4.6-.7c0-.3-.2-.6-.6-.7c-.4-.2-.9-.3-1.7-.3c-.7 0-1.3.1-1.7.3c-.4.1-.6.4-.6.7c0 .3.2.5.6.7c.4.2 1 .2 1.7.2zm13.6-4.7v.6h-1.5v4.8h-.8V.6h.8v3.7h1.5zm-5.4-3s-.05 1.68 0 1.7c0 .4 0 .8.1 1.2c.2.4.3.7.5 1.1c.2.3.5.7.8.9c.3.3.6.5.9.7l-.5.7c-.5-.3-1-.7-1.4-1.2c-.4-.5-.7-1-.9-1.7c-.2.7-.5 1.3-.9 1.8c-.4.5-.8 1-1.3 1.2l-.5-.6c.3-.2.6-.4.9-.7c.3-.3.5-.6.7-1c.3-.4.4-.8.5-1.2c.2-.4.2-.8.2-1.2c.03-.02 0-1.7 0-1.7h.9zm13.2 2h1.3v.6h-1.3v3.3h-.9V.5h.9v2.8zm-1.8 1.2v.7c-.3.1-.6.1-.9.2c-.3 0-.6 0-.9.1h-2.4c0 .04-.7 0-.7 0V1.3h4v.7h-3.2s.02 2.86 0 2.9c.5 0 .9 0 1.2-.1h1.1c.3 0 .6-.1.9-.1c.3 0 .6-.1.9-.2zm-3.1 2v2.3h5.3v.7h-6.1v-3h.8zm15.4-2.1v.7h-1.4v4.6h-.9V.5h.9v3.9h1.4zm-3.7 1.3l-.8-.1c.1-.8.2-1.4.2-2c0-.5.1-1 .1-1.4c-.04.02-3.8 0-3.8 0v-.7h4.6s-.03.54 0 .5c0 .4 0 .9-.1 1.5c0 .6-.1 1.3-.2 2.2zm-2.1-1.5s.02 2.75 0 2.7h1.5c.5-.1 1-.1 1.5-.2v.6c-.5.1-.9.2-1.4.2c-.5.1-1 .1-1.5.1c-.5.1-1 .1-1.5.1h-1.3v-.7h1.9V4.2h.8zm13.5-1.1h1.8V.6h.8v6.7h-.8V3.8h-1.8v-.7zm.5 2.1l-.4.7c-.5-.2-1-.5-1.4-.8c-.3-.4-.6-.8-.8-1.3c-.2.5-.5 1-.9 1.4c-.4.4-.9.7-1.4.9l-.5-.7c.4-.1.7-.3 1-.5c.2-.2.5-.4.7-.7c.2-.2.4-.5.5-.8c.1-.3.1-.6.1-1c.04.03 0-.4 0-.4h-2v-.7h4.9v.7h-2s-.02.42 0 .4c0 .3 0 .6.1.9c.1.3.3.5.5.8c.2.2.4.5.7.7c.3.2.6.3.9.4zm-2.9 3.6h5.3v.7h-6.1V6.7h.8v2.1zm15.2-4.5v.6h-1.5v4.8h-.8V.6h.8v3.7h1.5zm-5.4-3s-.05 1.68 0 1.7c0 .4 0 .8.1 1.2c.2.4.3.7.5 1.1c.2.3.5.7.8.9c.3.3.6.5.9.7l-.5.7c-.5-.3-1-.7-1.4-1.2c-.4-.5-.6-1-.9-1.7c-.2.7-.5 1.3-.9 1.8c-.4.5-.8 1-1.3 1.2l-.5-.6c.3-.2.6-.4.9-.7c.3-.3.5-.6.7-1c.3-.4.4-.8.5-1.2c.2-.4.2-.8.2-1.2c.03-.02 0-1.7 0-1.7h.9zm11.5.2v.7h-5.4v-.7h2.3V.4h.8v1.1h2.3zm3 1.4v.7h-1.3v2.3h-.9V.5h.9v2.4h1.3zm-3.5 1.3c0 .2-.1.4-.2.6c-.1.2-.2.4-.4.5c-.2.2-.5.3-.7.4c-.3 0-.6.1-.9.1c-.3 0-.6-.1-.9-.1c-.3-.1-.5-.2-.7-.4c-.2-.1-.3-.3-.4-.5c-.1-.2-.2-.4-.2-.6c0-.3.1-.5.2-.7c.1-.2.2-.3.4-.5c.2-.1.4-.2.7-.3c.3-.1.6-.1.9-.1c.3 0 .6 0 .9.1c.2.1.5.2.7.3c.2.2.3.3.4.5c.1.2.2.4.2.7zm-3.6 0c0 .3.1.5.4.7c.2.2.6.3 1 .3c.4 0 .8-.1 1-.3c.3-.2.4-.4.4-.7c0-.3-.1-.6-.4-.7c-.2-.2-.6-.3-1-.3c-.4 0-.8.1-1 .3c-.3.1-.4.4-.4.7zm4.9 3v-.9h.9v3.3h-5.8V6.3h.8v.9h4.1zm0 1.7v-1h-4.1v1h4.1zm7.5-3.8h3.7v.6h-8.3v-.6h3.8V4h-2.7v-3h6.2v.6h-5.4v1.7h5.5v.7H245v1.1zm-.4 1.3c1 0 1.7.1 2.3.4c.5.3.8.7.8 1.2c0 .6-.3 1-.8 1.3c-.6.2-1.3.4-2.3.4c-1 0-1.8-.2-2.3-.4c-.6-.3-.9-.7-.9-1.3c0-.5.3-.9.9-1.2c.5-.3 1.3-.4 2.3-.4zm0 2.6c.7 0 1.3 0 1.7-.2c.4-.2.6-.4.6-.8c0-.3-.2-.5-.6-.7c-.4-.2-1-.3-1.7-.3c-.8 0-1.3.1-1.7.3c-.4.2-.6.4-.6.7c0 .4.2.6.6.8c.4.2.9.2 1.7.2zm11.7-3.9h3.7v.7h-8.3v-.7h3.7v-.9h-2.6V.8h.8v1h4.5v-1h.8v3.4h-2.6v.9zm-2.7-2.7v1.1h4.5V2.4h-4.5zm2.2 4.1c1 0 1.8.1 2.3.4c.6.3.9.7.9 1.2c0 .5-.3.9-.9 1.2c-.5.2-1.3.4-2.3.4c-.9 0-1.7-.2-2.3-.4c-.5-.3-.8-.7-.8-1.2c0-.5.3-.9.8-1.2c.6-.3 1.4-.4 2.3-.4zm0 2.5c.8 0 1.3 0 1.7-.2c.4-.2.6-.4.6-.7c0-.3-.2-.6-.6-.7c-.4-.2-.9-.3-1.7-.3c-.7 0-1.3.1-1.7.3c-.4.1-.5.4-.5.7c0 .3.1.5.5.7c.4.2 1 .2 1.7.2zm13.6-4.7v.6h-1.5v4.8h-.8V.6h.8v3.7h1.5zm-5.4-3s-.05 1.68 0 1.7c0 .4 0 .8.1 1.2c.2.4.3.7.5 1.1c.2.3.5.7.8.9c.3.3.6.5.9.7l-.5.7c-.5-.3-1-.7-1.4-1.2c-.4-.5-.6-1-.9-1.7c-.2.7-.4 1.3-.9 1.8c-.4.5-.8 1-1.3 1.2l-.5-.6c.3-.2.6-.4.9-.7c.3-.3.5-.6.7-1c.3-.4.4-.8.5-1.2c.2-.4.2-.8.2-1.2c.03-.02 0-1.7 0-1.7h.9zm6.9 3.7l-.3-.7c.4 0 .8-.1 1.1-.3c.4-.1.7-.3 1-.6c.3-.2.6-.4.8-.7c.1-.3.2-.6.2-.9c.04.04 0 0 0 0h-2.9v-.7h6.7v.7h-2.8s-.04.04 0 0c0 .3.1.6.2.9c.2.3.5.5.8.7c.3.3.6.5 1 .6c.4.2.8.3 1.2.3l-.4.7l-1-.3c-.3-.1-.7-.3-1-.4c-.3-.2-.5-.4-.7-.7c-.3-.2-.5-.4-.6-.7c-.1.3-.3.5-.6.7c-.2.3-.4.5-.7.7c-.3.1-.6.3-1 .4l-1 .3zm7.4.8v.6h-3.7v3.3h-.8V6.4h-3.7v-.6h8.2zm8-2.5h1.4v.7h-1.4v3.2h-.8V.6h.8v2.7zm-6.7-2s4.3-.05 4.3 0c0 .5-.1 1.1-.3 1.6c-.2.5-.5 1-.9 1.4c-.3.4-.8.8-1.3 1.1c-.5.3-1.1.6-1.8.8l-.3-.7c.5-.2 1-.4 1.4-.6c.5-.2.8-.5 1.2-.8c.3-.3.6-.7.7-1c.2-.4.4-.8.4-1.2c0 .04-3.4 0-3.4 0v-.6zm1.9 5.2v2.3h5.2v.7h-6.1v-3h.9zm13.5-6h.9v9.2h-.9V.5zm-3.6.7c.4 0 .7.1 1 .2c.3.1.5.2.8.4c.2.2.3.4.5.7c.1.3.1.5.1.9c0 .3 0 .6-.1.8c-.2.3-.3.5-.5.7c-.3.2-.5.4-.8.5c-.3.1-.6.1-1 .1c-.4 0-.7 0-1-.1c-.3-.1-.5-.3-.8-.5c-.2-.2-.3-.4-.5-.7c-.1-.2-.2-.5-.2-.8c0-.4.1-.6.2-.9c.2-.3.3-.5.5-.7c.3-.2.5-.3.8-.4c.3-.1.6-.2 1-.2zm0 .7c-.2 0-.5.1-.7.1c-.2.1-.3.2-.5.3c-.1.2-.2.3-.3.5c-.1.2-.1.3-.1.6c0 .2 0 .4.1.5c.1.2.2.4.3.5c.2.1.3.2.5.3c.2.1.5.1.7.1c.2 0 .4 0 .7-.1c.2-.1.3-.2.5-.3c.1-.1.2-.3.3-.5c.1-.1.1-.3.1-.5c0-.3 0-.4-.1-.6c-.1-.2-.2-.3-.3-.5c-.2-.1-.3-.2-.5-.3c-.3 0-.5-.1-.7-.1zm-2.8 5.8l-.1-.7h1.3c.5 0 1 0 1.5-.1h1.6c.5-.1 1-.1 1.5-.2l.1.6c-.5.1-1 .2-1.6.2c-.5.1-1 .1-1.5.1c-.5.1-1 .1-1.5.1h-1.3zm13.2.4h2.9v.8h-5v-.6s2.57-2.5 2.6-2.5c.2-.2.3-.4.5-.6c.2-.2.3-.4.4-.6c.2-.1.3-.3.3-.5c.1-.2.1-.4.1-.7c0-.4-.1-.7-.4-.9c-.2-.3-.6-.4-1-.4c-.2 0-.4.1-.5.1c-.2.1-.4.2-.5.3c-.2.2-.3.3-.3.5c-.1.2-.1.4-.1.6l-1-.2l.3-.9c.2-.2.3-.4.6-.6c.2-.2.4-.3.7-.4c.3-.1.6-.2.9-.2c.3 0 .6.1.9.2c.3.1.5.2.7.4c.2.2.4.4.5.6c.1.3.2.6.2.9c0 .3-.1.6-.2.8c0 .2-.2.5-.3.7c-.1.2-.3.4-.5.6c-.2.2-.4.5-.6.7l-2.1 2c.2 0 .3 0 .4-.1h.5zM312.5.5h.8v9.2h-.8V4.9h-1.2v4.3h-.8V.8h.8v3.4h1.2V.5zm-6.6 1.2s3.58.02 3.6 0c0 .6-.1 1.2-.2 1.8c-.1.5-.3 1-.6 1.6c-.2.5-.6 1-1 1.4c-.5.5-1 .9-1.7 1.2l-.4-.6c.5-.3.9-.6 1.3-.9c.4-.4.7-.8.9-1.2c.3-.4.5-.8.6-1.2l.3-1.4h-2.8v-.7zm11.7 2.9l-.3-.6c.5 0 .9-.1 1.2-.2c.4-.1.7-.3 1-.4c.3-.2.5-.4.7-.6c.2-.2.3-.4.3-.7h-2.8v-.7h2.8v-.9h.9v.9h2.8v.7h-2.8c0 .3.1.5.3.7c.2.2.4.4.7.6c.3.1.6.3 1 .4c.4.1.8.2 1.2.2l-.3.6c-.3 0-.7-.1-1-.2c-.4-.1-.7-.2-1-.3c-.3-.1-.6-.3-.8-.5c-.2-.2-.4-.4-.5-.6l-.6.6c-.2.2-.5.4-.8.5c-.3.1-.6.3-.9.3c-.4.1-.8.2-1.1.2zm7.5 1.2h-3.7v1.1h2.7v2.8h-.9V7.5h-5.5v-.6h2.8V5.8h-3.7v-.7h8.3v.7zm5-4.7c.5 0 .9.1 1.4.2c.4.1.7.3 1 .5c.3.2.5.5.7.8c.2.3.3.7.3 1c0 .4-.1.8-.3 1.1c-.2.3-.4.6-.7.8c-.3.2-.6.4-1 .5c-.5.1-.9.2-1.4.2c-.4 0-.9-.1-1.3-.2c-.4-.1-.7-.3-1-.5c-.3-.2-.6-.5-.7-.8c-.2-.3-.3-.7-.3-1.1c0-.3.1-.7.3-1c.1-.3.4-.6.7-.8c.3-.2.6-.4 1-.5c.4-.1.9-.2 1.3-.2zm0 .7c-.3 0-.7 0-1 .1c-.3.1-.5.2-.8.4c-.2.2-.4.4-.5.6c-.1.2-.2.5-.2.7c0 .3.1.6.2.8c.1.2.3.4.5.6c.3.1.5.3.8.4c.3 0 .7.1 1 .1c.4 0 .7-.1 1-.1c.3-.1.6-.3.8-.4c.3-.2.4-.4.6-.6c.1-.2.2-.5.2-.8c0-.2-.1-.5-.2-.7c-.2-.2-.3-.4-.6-.6c-.2-.2-.5-.3-.8-.4c-.3-.1-.6-.1-1-.1zm-4.1 6h8.3v.7H326v-.7zm13.7.1h3.8v.7h-8.3v-.7h3.7V6.2h-2.7V3.3h5.4V1.9h-5.4v-.7h6.3v2.8H337v1.5h5.7v.7h-3v1.7zM353.1.5h.8v9.2h-.8V.5zm-4 .7c.3 0 .7.1.9.3c.3.1.6.3.8.6c.2.3.3.6.5 1c.1.4.1.8.1 1.3c0 .5 0 1-.1 1.4c-.2.3-.3.7-.5 1c-.2.2-.5.5-.8.6c-.2.2-.6.2-.9.2c-.3 0-.6 0-.9-.2c-.3-.1-.6-.4-.8-.6c-.2-.3-.3-.7-.4-1c-.2-.4-.2-.9-.2-1.4c0-.5 0-.9.2-1.3c.1-.4.2-.7.4-1c.2-.3.5-.5.8-.6c.3-.2.6-.3.9-.3zm0 .8c-.2 0-.4.1-.6.2c-.2.1-.4.3-.5.5c-.1.2-.2.4-.3.7c-.1.3-.1.7-.1 1c0 .4 0 .7.1 1c.1.3.2.6.3.8c.1.2.3.4.5.5c.2.1.4.2.6.2c.2 0 .4-.1.6-.2c.2-.1.4-.3.5-.5c.1-.2.2-.5.3-.8c.1-.3.1-.6.1-1c0-.3 0-.7-.1-1c-.1-.3-.2-.5-.3-.7c-.1-.2-.3-.4-.5-.5c-.2-.1-.4-.2-.6-.2zm13 .7V1.6h-5.5v-.7h6.3v2.4h-5.4v1.2h5.6v.7h-6.5V2.7h5.5zm1.8 3.4v.7h-3.7v2.9h-.9V6.8h-3.7v-.7h8.3zm7.6-5.6h.8v9.2h-.8v-5h-2c0 .5-.1.9-.2 1.2c-.1.4-.3.7-.5.9c-.2.3-.4.5-.7.6c-.2.2-.5.2-.9.2c-.3 0-.6 0-.9-.2c-.2-.1-.5-.4-.7-.6c-.2-.3-.4-.7-.5-1c-.1-.4-.1-.9-.1-1.4c0-.5 0-.9.1-1.3c.1-.4.3-.7.5-1c.2-.3.5-.5.7-.6c.3-.2.6-.3.9-.3c.4 0 .6.1.9.2c.3.2.5.4.7.6c.2.2.4.5.5.9c.1.3.2.7.2 1.1c.01.03 2 0 2 0V.5zm-4.3 6.4c.3 0 .5-.1.6-.2c.2-.1.4-.3.5-.5c.1-.2.3-.5.3-.8c.1-.3.1-.6.1-1c0-.3 0-.7-.1-1c0-.3-.2-.5-.3-.7c-.1-.2-.3-.4-.5-.5c-.1-.1-.3-.2-.6-.2c-.2 0-.4.1-.6.2c-.1.1-.3.3-.4.5c-.2.2-.3.4-.3.7c-.1.3-.1.7-.1 1c0 .4 0 .7.1 1c0 .3.1.6.3.8c.1.2.3.4.4.5c.2.1.4.2.6.2zM380.7.6h.8v9.1h-.8V5.8h-1.9v-.7h1.9V3.8h-1.9v-.7h1.9V.6zm-3.6 1.6s.04 1.02 0 1c0 .4.1.8.2 1.1c.2.4.3.8.5 1.1c.3.4.5.7.8 1c.3.3.6.5.9.7l-.5.6c-.5-.3-.9-.7-1.3-1.2c-.4-.5-.7-1.1-1-1.7l-.3 1l-.6.9c-.2.2-.4.5-.6.7c-.2.2-.5.4-.7.5l-.6-.6c.3-.2.6-.4.9-.7c.3-.3.6-.6.8-1c.2-.3.4-.7.5-1.1c.1-.5.2-.9.2-1.3v-1h-2.1v-.7h5v.7h-2.1z" stroke="none" fill="#111111"/></g></svg>