<?xml version="1.0" standalone="no"?><!DOCTYPE svg PUBLIC "-//W3C//DTD SVG 1.1//EN" "http://www.w3.org/Graphics/SVG/1.1/DTD/svg11.dtd"><svg xmlns="http://www.w3.org/2000/svg" version="1.1" width="199.3px" height="23.3px" viewBox="0 -2 199.3 23.3" style="top:-2px"><desc>참여 인원 (단위: 명)</desc><defs/><g id="Polygon116479"><path d="m6 4.9l-.5.8c-.6-.2-1-.4-1.4-.7c-.4-.3-.6-.7-.8-1.1c-.2.5-.5.9-.9 1.2c-.4.3-.9.6-1.4.8L.5 5c.3-.1.7-.2.9-.4c.3-.2.5-.4.7-.6c.2-.2.4-.5.5-.7c.1-.3.1-.6.1-.9c.01.05 0 0 0 0H.8v-.8h1.9V.5h1.1v1.1h1.9v.8H3.8s-.04.05 0 0c0 .3 0 .6.1.8c.1.3.3.5.4.7c.2.2.5.4.7.6c.3.1.6.3 1 .4zm3-2.1v.9H7.7v2.3h-1V.6h1v2.2h1.3zM1.8 9.6V6.4h5.9v3.2H1.8zm1.1-2.4v1.6h3.8V7.2H2.9zM16.3.5h1.1v9.3h-1.1V6.3s-2.13-.02-2.1 0c-.2.4-.5.8-.8 1c-.4.3-.8.4-1.2.4c-.4 0-.7-.1-1-.2c-.2-.2-.5-.4-.7-.7c-.2-.2-.4-.6-.5-1c-.1-.4-.1-.8-.1-1.3c0-.5 0-1 .1-1.4c.1-.4.3-.7.5-1c.2-.3.5-.5.7-.6c.3-.2.6-.3 1-.3c.4 0 .8.1 1.1.4c.3.2.6.5.8.9c.02.03 2.2 0 2.2 0v-2zm-4.1 6.3c.4 0 .7-.2 1-.6c.2-.4.3-1 .3-1.7c0-.8-.1-1.3-.3-1.7c-.3-.4-.6-.6-1-.6c-.4 0-.7.2-1 .6c-.2.4-.4.9-.4 1.7c0 .7.2 1.3.4 1.7c.3.4.6.6 1 .6zm2.2-1.4c.03.02 1.9 0 1.9 0v-2h-1.9c0 .2.1.3.1.5v1.1c0 .1 0 .3-.1.4zM28.5.6v6.6h-1V.6h1zM26 3.5c0 .3 0 .6-.2.9c-.1.3-.3.5-.5.7c-.2.2-.5.4-.8.5c-.2.1-.6.2-.9.2c-.4 0-.7-.1-1-.2c-.3-.1-.5-.3-.8-.5c-.2-.2-.4-.4-.5-.7c-.1-.3-.2-.6-.2-.9c0-.4.1-.7.2-1c.1-.2.3-.5.5-.7c.3-.2.5-.4.8-.5c.3-.1.6-.1 1-.1c.3 0 .7 0 .9.1c.3.1.6.3.8.5c.2.2.4.5.5.7c.2.3.2.6.2 1zm-3.8 0c0 .4.1.7.4 1c.2.2.6.4 1 .4c.2 0 .4-.1.5-.1c.2-.1.4-.2.5-.3c.1-.1.2-.3.3-.5c.1-.1.1-.3.1-.5c0-.2 0-.4-.1-.6c-.1-.2-.2-.3-.3-.5c-.1-.1-.3-.2-.5-.2c-.1-.1-.3-.1-.5-.1c-.4 0-.8.1-1 .3c-.3.3-.4.6-.4 1.1zm1.4 5.2h5.2v.9h-6.3v-3h1.1v2.1zM34.9 6h1.8V.5h1.1v7h-1.1v-.8h-1.8v-.7zm-1.8-1.9c-.4 0-.7 0-.9-.1c-.3-.1-.6-.2-.8-.3c-.2-.1-.3-.3-.4-.5c-.2-.2-.2-.4-.2-.7c0-.2 0-.4.2-.6c.1-.2.2-.4.4-.6c.2-.1.5-.2.8-.3c.2-.1.5-.1.9-.1c.3 0 .6 0 .9.1c.3.1.5.2.7.3c.2.2.4.4.5.6c.1.2.2.4.2.6c0 .3-.1.5-.2.7c-.1.2-.3.4-.5.5c-.2.1-.4.2-.7.3c-.3.1-.6.1-.9.1zm0-2.4c-.4 0-.7 0-1 .2c-.2.2-.3.4-.3.6c0 .3.1.5.3.6c.3.2.6.3 1 .3c.4 0 .7-.1.9-.3c.2-.1.4-.3.4-.6c0-.2-.2-.4-.4-.6c-.2-.2-.5-.2-.9-.2zm-.4 5.6s-.04-1.76 0-1.8c-.5.1-.9.1-1.3.1h-1.2l-.1-.9h2.8c.6 0 1.1-.1 1.6-.1c.5 0 1-.1 1.5-.1l.1.7c-.4.1-.8.1-1.2.2c-.4 0-.8.1-1.2.1c.01-.02 0 1.8 0 1.8h-1zm-.3 1.4h5.6v.9h-6.7V6.9h1.1v1.8zM44 10.1l-.7.4c-.5-.8-.9-1.6-1.1-2.5c-.3-.8-.4-1.8-.4-2.8c0-1 .1-1.9.4-2.8c.2-.8.6-1.6 1.1-2.4l.7.3c-.4.8-.8 1.6-1 2.4c-.2.8-.3 1.6-.3 2.5c0 .9.1 1.8.3 2.6c.2.8.6 1.6 1 2.3zm8-6.9h1.3v.8H52v3.2h-1V.5h1v2.7zm-1.9 1.3l.1.8c-.3.1-.6.1-.9.2c-.3 0-.6.1-.9.1h-2.5c.04.04-.7 0-.7 0V1.3h4.1v.9h-3.1s.05 2.57 0 2.6h1.2c.4 0 .7-.1 1-.1c.3 0 .6 0 .9-.1c.2 0 .5-.1.8-.1zm-2.9 2v2.2h5.2v.9h-6.2V6.5h1zM60.6.6h1v9.2h-1V.6zM57 4.8c-.3 0-.7 0-1-.1c-.2-.1-.5-.3-.7-.4c-.2-.2-.4-.4-.5-.6c-.1-.3-.2-.5-.2-.8c0-.3.1-.6.2-.8c.1-.2.3-.4.5-.6c.2-.2.5-.3.7-.4c.3-.1.7-.2 1-.2c.3 0 .7.1 1 .2c.2.1.5.2.7.4c.2.2.4.4.5.6c.1.2.2.5.2.8c0 .3-.1.5-.2.8c-.1.2-.3.4-.5.6c-.2.1-.5.3-.7.4c-.3.1-.7.1-1 .1zm0-3c-.4 0-.7.1-1 .3c-.2.2-.4.5-.4.8c0 .3.2.6.4.8c.3.2.6.2 1 .2c.4 0 .7 0 1-.2c.2-.2.4-.5.4-.8c0-.3-.2-.6-.4-.8c-.3-.2-.6-.3-1-.3zm3 3.4v.7c-.4.1-.8.2-1.2.2c-.4.1-.8.1-1.2.2c-.03-.05 0 3.2 0 3.2h-1.1s.02-3.19 0-3.2h-1.2c-.4.1-.8.1-1.2.1l-.1-.9h1.4c.4 0 .9 0 1.5-.1c.5 0 1 0 1.5-.1c.6 0 1.1-.1 1.6-.1zm4.6-2.3v1.3h-1.2V2.9h1.2zm0 4.2v1.3h-1.2V7.1h1.2zm9.9-2.4v.7h-4.3V1.2h4.3v.8h1.9V.6h1v5.4h-1V4.7h-1.9zm-1.1-.2V2.1h-2.2v2.4h2.2zm3-1.7h-1.9v1h1.9v-1zm-2 3.4c.5 0 .9.1 1.3.1c.4.1.7.2.9.4c.3.1.5.3.7.6c.1.2.2.4.2.7c0 .3-.1.5-.2.7c-.2.3-.4.4-.7.6c-.2.2-.5.3-.9.3c-.4.1-.8.2-1.3.2c-.5 0-.9-.1-1.3-.2c-.4 0-.7-.1-1-.3c-.3-.2-.5-.3-.6-.6c-.2-.2-.2-.4-.2-.7c0-.3 0-.5.2-.7c.1-.3.3-.5.6-.6c.3-.2.6-.3 1-.4c.4 0 .8-.1 1.3-.1zm0 2.7c.6 0 1.1 0 1.5-.2c.3-.2.5-.4.5-.7c0-.3-.2-.5-.5-.7c-.4-.2-.9-.2-1.5-.2c-.7 0-1.2 0-1.6.2c-.3.2-.5.4-.5.7c0 .3.2.5.5.7c.4.2.9.2 1.6.2zm5.3 1.6l-.8-.4c.5-.7.8-1.5 1-2.3c.2-.8.3-1.7.3-2.6c0-.9-.1-1.7-.3-2.5c-.2-.8-.5-1.6-1-2.4l.8-.3c.5.8.8 1.6 1.1 2.4c.3.9.4 1.8.4 2.8c0 1-.2 2-.4 2.8c-.3.9-.7 1.7-1.1 2.5z" stroke="none" fill="#949596"/></g></svg>