<?xml version="1.0" standalone="no"?><!DOCTYPE svg PUBLIC "-//W3C//DTD SVG 1.1//EN" "http://www.w3.org/Graphics/SVG/1.1/DTD/svg11.dtd"><svg xmlns="http://www.w3.org/2000/svg" version="1.1" width="575px" height="32.2px" viewBox="0 -6 575 32.2" style="top:-6px"><desc>텍스트 B</desc><defs/><g id="Polygon6908"><path d="m.9 8.2c0-1.4.2-2.6.8-3.6C2.2 3.5 3 2.7 4 2.1c.9-.6 2-.9 3.3-.9c.8 0 1.7.2 2.4.5c.8.3 1.4.7 1.9 1.2v1.9c-.5-.7-1.1-1.2-1.9-1.6c-.7-.4-1.5-.6-2.4-.6c-.9 0-1.6.2-2.4.7c-.7.5-1.2 1.1-1.7 2c-.4.8-.6 1.8-.6 2.9v.3c0 1.1.2 2.1.6 2.9c.5.9 1 1.5 1.7 2c.7.5 1.5.7 2.4.7c.9 0 1.7-.2 2.4-.6c.8-.4 1.4-.9 1.9-1.6v1.9c-.5.5-1.1.9-1.9 1.2c-.8.3-1.6.5-2.4.5c-1.3 0-2.4-.3-3.3-.9c-1-.6-1.8-1.4-2.3-2.5c-.6-1-.8-2.2-.8-3.6v-.3zM13 10.1c0-.9.2-1.8.6-2.6c.4-.8 1-1.4 1.7-1.8c.7-.4 1.5-.6 2.4-.6c.9 0 1.7.2 2.4.6c.6.4 1.2 1 1.6 1.8c.4.8.6 1.7.6 2.6v.3c0 1-.2 1.9-.6 2.7c-.4.7-1 1.3-1.6 1.7c-.7.5-1.5.7-2.4.7c-.9 0-1.7-.2-2.4-.7c-.7-.4-1.3-1-1.7-1.7c-.4-.8-.6-1.7-.6-2.7v-.3zm1.7.3c0 1.2.3 2.1.8 2.8c.5.7 1.2 1 2.2 1c.9 0 1.6-.3 2.1-1c.6-.7.8-1.6.8-2.8v-.3c0-1.1-.2-2-.8-2.7c-.5-.7-1.2-1-2.1-1c-1 0-1.7.3-2.2 1c-.5.7-.8 1.6-.8 2.7v.3zm9.5 4.8V5.4h1.4s.14 1.94.1 1.9c.4-.6.9-1.1 1.5-1.5c.6-.5 1.3-.7 2-.7c1.1 0 1.9.3 2.4.9c.6.7.9 1.6.9 2.7c-.03.03 0 6.5 0 6.5h-1.6s-.03-6.34 0-6.3c0-.9-.2-1.5-.5-1.9c-.3-.4-.7-.6-1.4-.6c-.4 0-.9.1-1.3.4c-.5.3-.9.7-1.2 1.1c-.4.5-.6 1-.7 1.5c-.04 0 0 5.8 0 5.8h-1.6zm10-5.1c0-1 .2-1.8.6-2.6c.4-.7 1-1.3 1.7-1.8c.7-.4 1.6-.6 2.5-.6c.5 0 1.1.1 1.6.3c.5.2.9.5 1.3.8v1.7c-.4-.5-.9-.9-1.3-1.2c-.5-.2-1.1-.3-1.6-.3c-.6 0-1.2.1-1.6.4c-.5.4-.9.8-1.2 1.4c-.2.5-.4 1.2-.4 1.9v.3c0 .7.2 1.4.4 2c.3.5.7 1 1.2 1.3c.5.3 1 .5 1.6.5c1.1 0 2.1-.5 2.9-1.5v1.7c-.4.3-.8.6-1.3.8c-.6.2-1.1.3-1.6.3c-1 0-1.8-.3-2.5-.7c-.7-.4-1.3-1-1.7-1.8c-.4-.8-.6-1.6-.6-2.6v-.3zm8.9-.1c0-.9.2-1.8.6-2.5c.4-.8.9-1.4 1.5-1.8c.7-.4 1.5-.6 2.3-.6c1.4 0 2.4.4 3.1 1.3c.8.9 1.2 2.1 1.2 3.8c-.03-.05 0 .6 0 .6h-7.1c.1 1 .4 1.8.9 2.4c.5.7 1.2 1 2.1 1c1.4 0 2.6-.5 3.5-1.5v1.6c-.4.4-.9.7-1.5.9c-.5.2-1.2.3-2 .3c-.9 0-1.7-.2-2.4-.7c-.7-.4-1.3-1-1.6-1.7c-.4-.8-.6-1.7-.6-2.7v-.4zm7.1-.4c0-1.1-.3-1.9-.8-2.4c-.4-.6-1.1-.8-1.8-.8c-.5 0-1 .1-1.4.3c-.4.3-.8.7-1 1.2c-.3.4-.4 1-.5 1.7h5.5zm3.5 5.6V5.4h1.4s.14 1.94.1 1.9c.4-.6.9-1.1 1.5-1.5c.6-.5 1.3-.7 2.1-.7c1 0 1.8.3 2.3.9c.6.7.9 1.6.9 2.7c-.03.03 0 6.5 0 6.5h-1.6s-.03-6.34 0-6.3c0-.9-.2-1.5-.5-1.9c-.2-.4-.7-.6-1.4-.6c-.4 0-.9.1-1.3.4c-.5.3-.9.7-1.2 1.1c-.4.5-.6 1-.7 1.5c-.04 0 0 5.8 0 5.8h-1.6zm11.6-8.6h-2.1V5.4h2.1v-3h1.6v3h2.2v1.2h-2.2v8.6h-1.6V6.6zm5.2 8.6V5.4h1.4s.12 1.67.1 1.7c.3-.6.7-1.1 1.2-1.5c.5-.3 1.1-.5 1.8-.5h.5c.2.1.3.1.4.1v1.4c-.3-.1-.6-.1-1-.1c-.7 0-1.2.2-1.7.6c-.6.4-.9 1-1.1 1.7c-.05 0 0 6.4 0 6.4h-1.6zm6.1-2.6c0-.7.1-1.2.5-1.7c.3-.4.7-.7 1.3-.9c.5-.3 1.3-.5 2.3-.7l2.4-.4c0-.9-.2-1.5-.6-1.9c-.4-.5-1.1-.7-2-.7c-.6 0-1.2.2-1.7.5c-.6.3-1.1.6-1.5 1.1V6.4c.4-.4.9-.7 1.5-.9c.6-.3 1.2-.4 1.9-.4c1.2 0 2.2.3 2.9.9c.8.7 1.1 1.6 1.1 2.9c.03-.04 0 6.3 0 6.3h-1.2l-.3-1.5c-.5.5-1 1-1.6 1.3c-.6.3-1.3.5-2 .5c-1 0-1.7-.3-2.2-.8c-.6-.5-.8-1.2-.8-2.1zm1.6-.1c0 .6.1 1 .4 1.2c.3.3.7.5 1.3.5c.6 0 1.2-.2 1.8-.6c.6-.4 1.1-.9 1.5-1.6c-.04.01 0-1.9 0-1.9c0 0-1.68.32-1.7.3c-.9.2-1.6.3-2 .5c-.5.1-.8.3-1 .6c-.2.3-.3.6-.3 1zm9.9-5.9H86V5.4h2.1v-3h1.6v3h2.2v1.2h-2.2v8.6h-1.6V6.6zm6.8-2.9h-1.6v-2h1.6v2zm0 11.5h-1.6V5.4h1.6v9.8zm1.9-5.1c0-.9.2-1.8.6-2.6c.3-.8.9-1.4 1.6-1.8c.7-.4 1.5-.6 2.4-.6c.9 0 1.7.2 2.4.6c.7.4 1.2 1 1.6 1.8c.4.8.6 1.7.6 2.6v.3c0 1-.2 1.9-.6 2.7c-.4.7-.9 1.3-1.6 1.7c-.7.5-1.5.7-2.4.7c-.9 0-1.7-.2-2.4-.7c-.7-.4-1.3-1-1.6-1.7c-.4-.8-.6-1.7-.6-2.7v-.3zm1.6.3c0 1.2.3 2.1.8 2.8c.5.7 1.3 1 2.2 1c.9 0 1.6-.3 2.2-1c.5-.7.7-1.6.7-2.8v-.3c0-1.1-.2-2-.7-2.7c-.6-.7-1.3-1-2.2-1c-.9 0-1.7.3-2.2 1c-.5.7-.8 1.6-.8 2.7v.3zm9.5 4.8V5.4h1.4s.16 1.94.2 1.9c.3-.6.8-1.1 1.4-1.5c.6-.5 1.3-.7 2.1-.7c1 0 1.8.3 2.4.9c.5.7.8 1.6.8 2.7v6.5h-1.6V8.9c0-.9-.2-1.5-.4-1.9c-.3-.4-.8-.6-1.5-.6c-.4 0-.9.1-1.3.4c-.5.3-.9.7-1.2 1.1c-.4.5-.6 1-.7 1.5c-.02 0 0 5.8 0 5.8h-1.6z" stroke="none" fill="#6d6e71"/></g></svg>