<?xml version="1.0" standalone="no"?><!DOCTYPE svg PUBLIC "-//W3C//DTD SVG 1.1//EN" "http://www.w3.org/Graphics/SVG/1.1/DTD/svg11.dtd"><svg xmlns="http://www.w3.org/2000/svg" version="1.1" width="575px" height="32.2px" viewBox="0 -6 575 32.2" style="top:-6px"><desc>텍스트 B</desc><defs/><g id="Polygon7008"><path d="m3.2 15.2H1.6V1.5h1.6v6h7.7v-6h1.6v13.7h-1.6V8.8H3.2v6.4zM14.7 10c0-.9.2-1.8.6-2.5c.4-.8.9-1.4 1.6-1.8c.6-.4 1.4-.6 2.3-.6c1.3 0 2.3.4 3.1 1.3c.7.9 1.1 2.1 1.1 3.8c-.02-.05 0 .6 0 .6h-7.1c.1 1 .4 1.8.9 2.4c.5.7 1.2 1 2.1 1c1.4 0 2.6-.5 3.5-1.5v1.6c-.4.4-.9.7-1.4.9c-.6.2-1.3.3-2.1.3c-.9 0-1.7-.2-2.4-.7c-.7-.4-1.2-1-1.6-1.7c-.4-.8-.6-1.7-.6-2.7v-.4zm7.1-.4c0-1.1-.3-1.9-.7-2.4c-.5-.6-1.2-.8-1.9-.8c-.5 0-1 .1-1.4.3c-.4.3-.8.7-1 1.2c-.3.4-.4 1-.5 1.7h5.5zm2.8 3c0-.7.2-1.2.5-1.7c.3-.4.7-.7 1.3-.9c.6-.3 1.3-.5 2.3-.7l2.5-.4c0-.9-.3-1.5-.7-1.9c-.4-.5-1.1-.7-1.9-.7c-.7 0-1.2.2-1.8.5c-.6.3-1 .6-1.4 1.1V6.4c.4-.4.8-.7 1.4-.9c.6-.3 1.2-.4 1.9-.4c1.3 0 2.3.3 3 .9c.7.7 1.1 1.6 1.1 2.9c-.04-.04 0 6.3 0 6.3h-1.3s-.27-1.52-.3-1.5c-.4.5-1 1-1.6 1.3c-.6.3-1.3.5-2 .5c-.9 0-1.6-.3-2.2-.8c-.5-.5-.8-1.2-.8-2.1zm1.6-.1c0 .6.1 1 .5 1.2c.3.3.7.5 1.2.5c.6 0 1.2-.2 1.8-.6c.7-.4 1.1-.9 1.5-1.6v-1.9s-1.64.32-1.6.3c-.9.2-1.6.3-2.1.5c-.4.1-.8.3-1 .6c-.2.3-.3.6-.3 1zm10.6 2.7h-1.6V1.4h1.6v13.8zM41 3.7h-1.6v-2h1.6v2zm0 11.5h-1.6V5.4h1.6v9.8zm2.6 0V5.4h1.4s.14 1.94.1 1.9c.4-.6.9-1.1 1.5-1.5c.6-.5 1.3-.7 2.1-.7c1 0 1.8.3 2.3.9c.6.7.9 1.6.9 2.7c-.02.03 0 6.5 0 6.5h-1.6s-.03-6.34 0-6.3c0-.9-.2-1.5-.5-1.9c-.2-.4-.7-.6-1.4-.6c-.4 0-.9.1-1.3.4c-.5.3-.9.7-1.2 1.1c-.4.5-.6 1-.7 1.5c-.04 0 0 5.8 0 5.8h-1.6zm10-5.2c0-1 .1-1.8.5-2.6c.4-.7.9-1.3 1.5-1.7c.7-.4 1.4-.6 2.3-.6c.6 0 1.2.2 1.7.5c.6.3 1 .7 1.4 1.3c-.03-.04.1-1.5.1-1.5h1.4s.03 9.43 0 9.4c0 .9-.2 1.7-.5 2.4c-.4.7-1 1.2-1.7 1.6c-.8.3-1.6.5-2.6.5c-.7 0-1.3 0-1.8-.2c-.5-.1-1-.4-1.4-.7v-1.5c.9.7 2 1.1 3.2 1.1c1 0 1.8-.3 2.4-.8c.6-.6.8-1.4.8-2.4v-1.5c-.3.5-.7.9-1.3 1.2c-.5.3-1.1.5-1.7.5c-.9 0-1.6-.2-2.3-.6c-.6-.4-1.1-1-1.5-1.7c-.4-.8-.5-1.7-.5-2.7zm1.6 0c0 .8.2 1.4.4 2c.3.5.6 1 1.1 1.3c.4.3.9.4 1.4.4c.6 0 1.2-.2 1.7-.6c.5-.5.9-1 1.1-1.7V8.6c-.2-.6-.6-1.2-1.1-1.6c-.6-.4-1.1-.6-1.7-.6c-.5 0-1 .1-1.5.4c-.4.3-.7.7-1 1.3c-.3.5-.4 1.2-.4 1.9zm16.4 5.2h-1.7V1.5h8.2v1.4h-6.5v4.7h5.5v1.4h-5.5v6.2zm7.1-5.1c0-.9.2-1.8.6-2.6c.4-.8.9-1.4 1.6-1.8c.7-.4 1.5-.6 2.4-.6c.9 0 1.7.2 2.4.6c.7.4 1.3 1 1.6 1.8c.4.8.6 1.7.6 2.6v.3c0 1-.2 1.9-.6 2.7c-.3.7-.9 1.3-1.6 1.7c-.7.5-1.5.7-2.4.7c-.9 0-1.7-.2-2.4-.7c-.7-.4-1.2-1-1.6-1.7c-.4-.8-.6-1.7-.6-2.7v-.3zm1.7.3c0 1.2.2 2.1.8 2.8c.5.7 1.2 1 2.1 1c.9 0 1.7-.3 2.2-1c.5-.7.8-1.6.8-2.8v-.3c0-1.1-.3-2-.8-2.7c-.5-.7-1.3-1-2.2-1c-.9 0-1.6.3-2.1 1c-.6.7-.8 1.6-.8 2.7v.3zm9.4 4.8V5.4h1.5l.1 1.7c.3-.6.6-1.1 1.1-1.5c.5-.3 1.1-.5 1.8-.5h.5c.2.1.4.1.4.1v1.4c-.2-.1-.6-.1-1-.1c-.6 0-1.2.2-1.7.6c-.5.4-.9 1-1.1 1.7c.02 0 0 6.4 0 6.4h-1.6zm6.1-5.2c0-.9.2-1.8.6-2.5c.3-.8.9-1.4 1.5-1.8c.7-.4 1.4-.6 2.3-.6c1.3 0 2.4.4 3.1 1.3c.8.9 1.1 2.1 1.1 3.8c.04-.05 0 .6 0 .6h-7c0 1 .3 1.8.9 2.4c.5.7 1.2 1 2.1 1c1.4 0 2.5-.5 3.5-1.5v1.6c-.4.4-.9.7-1.5.9c-.5.2-1.2.3-2 .3c-.9 0-1.8-.2-2.5-.7c-.7-.4-1.2-1-1.5-1.7c-.4-.8-.6-1.7-.6-2.7v-.4zm7.1-.4c-.1-1.1-.3-1.9-.8-2.4c-.5-.6-1.1-.8-1.9-.8c-.5 0-.9.1-1.3.3c-.5.3-.8.7-1.1 1.2c-.2.4-.4 1-.4 1.7h5.5zm3.1 3.1c.8 1 1.8 1.5 3.1 1.5c.6 0 1.1-.2 1.5-.4c.4-.3.6-.7.6-1.1c0-.4-.1-.7-.3-.9c-.2-.3-.6-.5-1.1-.7l-1.4-.6c-.8-.3-1.4-.7-1.8-1.1c-.4-.5-.6-1-.6-1.7c0-.4.2-.9.4-1.3c.3-.4.7-.7 1.2-.9c.5-.3 1.1-.4 1.8-.4c.6 0 1.1.1 1.6.3c.6.2 1 .5 1.4.8v1.7c-.5-.5-.9-.9-1.5-1.2c-.5-.2-1-.3-1.5-.3c-.6 0-1.1.1-1.3.4c-.3.2-.5.5-.5.9c0 .3.1.6.4.8c.2.2.6.4 1.1.6l1.3.5c.9.4 1.4.8 1.8 1.2c.4.5.6 1.1.6 1.8c0 .9-.4 1.6-1.1 2.1c-.6.5-1.5.8-2.6.8c-.7 0-1.3-.1-1.8-.3c-.6-.2-1-.5-1.3-.8v-1.7zm9.6-6.1h-2.1V5.4h2.1v-3h1.6v3h2.2v1.2h-2.2v8.6h-1.6V6.6z" stroke="none" fill="#6d6e71"/></g></svg>