<?xml version="1.0" standalone="no"?><!DOCTYPE svg PUBLIC "-//W3C//DTD SVG 1.1//EN" "http://www.w3.org/Graphics/SVG/1.1/DTD/svg11.dtd"><svg xmlns="http://www.w3.org/2000/svg" version="1.1" width="428.4px" height="63.1px" viewBox="0 -1 428.4 63.1" style="top:-1px"><desc>Hyundai Motor Group's Hydrogen Vision 2040</desc><defs/><g id="Polygon2080"><path d="m42.1 22.3h2.4v5.1h6.1v-5.1h2.3v12.3h-2.3v-5.2h-6.1v5.2h-2.4V22.3zM58 33.4l-3.7-8.1h2.4l2.5 5.5l2.3-5.5h2.5l-5.5 12.4h-2.4l1.9-4.3zm15.7 1.2h-2.3s.02-1.35 0-1.3c-.5.8-1.5 1.5-2.9 1.5c-2.4 0-3.5-1.7-3.5-4.1c-.05.03 0-5.4 0-5.4h2.2s.04 5.18 0 5.2c0 1.5.7 2.2 2.1 2.2c1.1 0 1.9-.7 2.1-1.6c.02.01 0-5.8 0-5.8h2.3v9.3zm2.2-9.3h2.2s.05 1.28 0 1.3c.6-.9 1.5-1.5 3-1.5c2.4 0 3.5 1.6 3.5 4v5.5h-2.3s.02-5.25 0-5.3c0-1.4-.7-2.2-2-2.2c-1.2 0-1.9.8-2.2 1.6c.05.02 0 5.9 0 5.9h-2.2v-9.3zm17.6 8.2c-.7.8-1.7 1.3-2.9 1.3c-2.6 0-4.4-1.9-4.4-4.9c0-2.9 1.8-4.8 4.4-4.8c1.2 0 2.2.5 2.9 1.3c.02-.04 0-4.6 0-4.6h2.3v12.8h-2.3s.02-1.11 0-1.1zm0-2.2v-2.8c-.4-.9-1.3-1.4-2.4-1.4c-1.5 0-2.6 1-2.6 2.8c0 1.8 1.1 2.8 2.6 2.8c1.1 0 2-.5 2.4-1.4zm11.3 2.2c-.6.8-1.7 1.3-2.9 1.3c-2.5 0-4.4-1.9-4.4-4.9c0-2.9 1.9-4.8 4.4-4.8c1.2 0 2.3.5 2.9 1.3c.04-.04 0-1.1 0-1.1h2.3v9.3h-2.3s.04-1.11 0-1.1zm0-2.2v-2.8c-.4-.9-1.3-1.4-2.4-1.4c-1.4 0-2.6 1-2.6 2.8c0 1.8 1.2 2.8 2.6 2.8c1.1 0 2-.5 2.4-1.4zm4.5-6h2.3v9.3h-2.3v-9.3zm0-4h2.3v2.4h-2.3v-2.4zm8.6 1h3.1l3.7 9.2l3.6-9.2h3.1v12.3h-2.3v-8.7l-3.4 8.7h-2.1l-3.4-8.7v8.7h-2.3V22.3zm15.4 7.6c0-2.5 1.7-4.8 4.9-4.8c3.3 0 5 2.3 5 4.8c0 2.6-1.7 4.9-5 4.9c-3.2 0-4.9-2.3-4.9-4.9zm2.4 0c0 1.8 1.1 2.9 2.5 2.9c1.5 0 2.6-1.1 2.6-2.9c0-1.7-1.1-2.8-2.6-2.8c-1.4 0-2.5 1.1-2.5 2.8zm9.6 1.1v-3.9h-1.5v-1.8h1.6v-2.4h2.2v2.4h2.1v1.8h-2.1v4c0 1.2.5 1.6 1.7 1.6h.4s.03 1.85 0 1.9c-.3 0-.7.1-1 .1c-2.2 0-3.4-1.2-3.4-3.7zm5.4-1.1c0-2.5 1.7-4.8 5-4.8c3.2 0 4.9 2.3 4.9 4.8c0 2.6-1.7 4.9-4.9 4.9c-3.3 0-5-2.3-5-4.9zm2.4 0c0 1.8 1.1 2.9 2.6 2.9c1.4 0 2.5-1.1 2.5-2.9c0-1.7-1.1-2.8-2.5-2.8c-1.5 0-2.6 1.1-2.6 2.8zm9.1-4.6h2.3v1.4c.5-1 1.4-1.6 2.7-1.6c-.04-.04.2 0 .2 0c0 0 .03 2.14 0 2.1c-1.3.1-2.5.5-2.9 1.8v5.6h-2.3v-9.3zm9.9 3.1c0-3.6 2.7-6.3 6.3-6.3c2.5 0 4.4 1.1 5.5 2.9l-1.8 1.3c-.8-1.3-1.9-2.1-3.7-2.1c-2.3 0-3.9 1.9-3.9 4.2c0 2.4 1.6 4.2 4 4.2c1.1 0 2.3-.3 3-.8c-.02 0 0-2.1 0-2.1h-2.8v-2h5.1s.02 5.3 0 5.3c-1.2 1-3.3 1.8-5.4 1.8c-3.6 0-6.3-2.7-6.3-6.4zm13.7-3.1h2.3s-.05 1.42 0 1.4c.5-1 1.4-1.6 2.6-1.6c.02-.04.3 0 .3 0v2.1c-1.4.1-2.5.5-2.9 1.8c-.05.04 0 5.6 0 5.6h-2.3v-9.3zm5.9 4.6c0-2.5 1.7-4.8 5-4.8c3.2 0 4.9 2.3 4.9 4.8c0 2.6-1.7 4.9-4.9 4.9c-3.3 0-5-2.3-5-4.9zm2.4 0c0 1.8 1.1 2.9 2.6 2.9c1.5 0 2.5-1.1 2.5-2.9c0-1.7-1-2.8-2.5-2.8c-1.5 0-2.6 1.1-2.6 2.8zm17.7 4.7h-2.2s-.04-1.35 0-1.3c-.5.8-1.5 1.5-3 1.5c-2.4 0-3.5-1.7-3.5-4.1v-5.4h2.3v5.2c0 1.5.7 2.2 2 2.2c1.2 0 1.9-.7 2.2-1.6c-.04.01 0-5.8 0-5.8h2.2v9.3zm2.2-9.3h2.3v1.1c.7-.8 1.7-1.3 2.9-1.3c2.6 0 4.5 1.9 4.5 4.8c0 3-1.9 4.9-4.5 4.9c-1.2 0-2.2-.6-2.9-1.3v4.2H214V25.3zm7.3 4.6c0-1.8-1.1-2.8-2.6-2.8c-1 0-2 .5-2.4 1.4v2.8c.4.9 1.4 1.4 2.4 1.4c1.5 0 2.6-1 2.6-2.8zm3.7-8.7h2.3l-.4 5.1h-1.5l-.4-5.1zm3.4 11.8l1.2-1.5c.6.8 1.7 1.4 2.8 1.4c1 0 1.7-.4 1.7-1c0-.7-.6-.9-1.5-1.1l-.8-.1c-1.7-.3-2.8-1.2-2.8-2.7c0-1.6 1.4-2.9 3.7-2.9c1.5 0 2.6.6 3.3 1.4l-1.2 1.4c-.6-.6-1.3-1-2.2-1c-.8 0-1.3.4-1.3.9c0 .5.4.8 1.1.9l.8.1c2.1.3 3.2 1.3 3.2 2.9c0 1.7-1.5 3.1-4.1 3.1c-1.7 0-3.1-.8-3.9-1.8zm13.7-10.7h2.3v5.1h6.1v-5.1h2.3v12.3h-2.3v-5.2h-6.1v5.2h-2.3V22.3zm15.8 11.1l-3.7-8.1h2.5l2.4 5.5l2.3-5.5h2.5l-5.4 12.4H256l1.9-4.3zm13.6.1c-.7.8-1.7 1.3-2.9 1.3c-2.6 0-4.5-1.9-4.5-4.9c0-2.9 1.9-4.8 4.5-4.8c1.2 0 2.2.5 2.9 1.3v-4.6h2.3v12.8h-2.3v-1.1zm0-2.2v-2.8c-.4-.9-1.4-1.4-2.4-1.4c-1.5 0-2.6 1-2.6 2.8c0 1.8 1.1 2.8 2.6 2.8c1 0 2-.5 2.4-1.4zm4.5-6h2.3s-.05 1.42 0 1.4c.5-1 1.4-1.6 2.6-1.6c.01-.04.3 0 .3 0c0 0-.02 2.14 0 2.1c-1.4.1-2.5.5-2.9 1.8c-.05.04 0 5.6 0 5.6H276v-9.3zm5.9 4.6c0-2.5 1.7-4.8 5-4.8c3.2 0 4.9 2.3 4.9 4.8c0 2.6-1.7 4.9-4.9 4.9c-3.3 0-5-2.3-5-4.9zm2.4 0c0 1.8 1.1 2.9 2.6 2.9c1.4 0 2.5-1.1 2.5-2.9c0-1.7-1.1-2.8-2.5-2.8c-1.5 0-2.6 1.1-2.6 2.8zm8.6-.4c0-2.7 1.6-4.4 4.2-4.4c1.2 0 2.2.5 2.8 1.3c.04-.04 0-1.1 0-1.1h2.3s.03 7.67 0 7.7c0 3.3-2.3 4.9-4.8 4.9c-2.3 0-3.6-.9-4.3-1.9l1.4-1.4c.6.8 1.4 1.3 2.8 1.3c1.3 0 2.6-.7 2.6-2.8v-.5c-.6.8-1.6 1.3-2.8 1.3c-2.6 0-4.2-1.7-4.2-4.4zm7 1.1v-2.2c-.4-.9-1.2-1.4-2.2-1.4c-1.5 0-2.5 1-2.5 2.5c0 1.5 1 2.5 2.5 2.5c1 0 1.8-.5 2.2-1.4zm3.9-.7c0-2.9 2-4.8 4.7-4.8c2.7 0 4.5 1.8 4.5 4.5c0 .3-.1.7-.1 1.1h-6.8c.3 1.3 1.1 2.1 2.7 2.1c1.2 0 2.1-.6 2.7-1.4l1.2 1.5c-.8 1.1-2.2 1.9-4 1.9c-3 0-4.9-2.2-4.9-4.9zm2.4-1.1h4.5c-.1-1.2-1-1.8-2.2-1.8c-1.2 0-2 .6-2.3 1.8zm8.4-3.5h2.3s-.02 1.28 0 1.3c.5-.9 1.5-1.5 2.9-1.5c2.4 0 3.5 1.6 3.5 4c.04 0 0 5.5 0 5.5h-2.2s-.05-5.25 0-5.3c0-1.4-.7-2.2-2.1-2.2c-1.1 0-1.9.8-2.1 1.6c-.02.02 0 5.9 0 5.9h-2.3v-9.3zm13.6-3h2.4l3.6 9.7l3.6-9.7h2.4l-4.6 12.3h-2.8l-4.6-12.3zm13.1 3h2.3v9.3h-2.3v-9.3zm0-4h2.3v2.4h-2.3v-2.4zM345 33l1.2-1.5c.6.8 1.7 1.4 2.8 1.4c1 0 1.7-.4 1.7-1c0-.7-.6-.9-1.5-1.1l-.8-.1c-1.7-.3-2.8-1.2-2.8-2.7c0-1.6 1.4-2.9 3.7-2.9c1.5 0 2.6.6 3.3 1.4l-1.2 1.4c-.6-.6-1.3-1-2.2-1c-.8 0-1.3.4-1.3.9c0 .5.4.8 1 .9l.9.1c2.1.3 3.1 1.3 3.1 2.9c0 1.7-1.4 3.1-4 3.1c-1.7 0-3.1-.8-3.9-1.8zm9.5-7.7h2.3v9.3h-2.3v-9.3zm0-4h2.3v2.4h-2.3v-2.4zm4 8.6c0-2.5 1.7-4.8 4.9-4.8c3.2 0 4.9 2.3 4.9 4.8c0 2.6-1.7 4.9-4.9 4.9c-3.2 0-4.9-2.3-4.9-4.9zm2.3 0c0 1.8 1.1 2.9 2.6 2.9c1.5 0 2.6-1.1 2.6-2.9c0-1.7-1.1-2.8-2.6-2.8c-1.5 0-2.6 1.1-2.6 2.8zm9.1-4.6h2.3s.03 1.28 0 1.3c.5-.9 1.5-1.5 3-1.5c2.4 0 3.5 1.6 3.5 4v5.5h-2.3v-5.3c0-1.4-.7-2.2-2-2.2c-1.2 0-1.9.8-2.2 1.6c.03.02 0 5.9 0 5.9h-2.3v-9.3zm14.2 7.5c1.6-2.9 6.2-4.2 6.2-6.6c0-1.1-.6-2-2.2-2c-1.1 0-1.8.6-2.1 1.6l-1.8-1c.4-1.2 1.6-2.7 4-2.7c2.8 0 4.3 1.7 4.3 3.9c0 3.6-4.2 4.9-5.3 6.5h5.6v2.1h-8.7s.04-1.8 0-1.8zm10.1-4.4c0-3.8 1.9-6.3 5.2-6.3c3.3 0 5.1 2.5 5.1 6.3c0 3.9-1.8 6.4-5.1 6.4c-3.3 0-5.2-2.5-5.2-6.4zm8 0c0-2.5-.8-4.2-2.8-4.2c-2 0-2.8 1.7-2.8 4.2c0 2.5.8 4.3 2.8 4.3c2 0 2.8-1.8 2.8-4.3zm3.4 1.4l5.6-7.5h2.9v7.2h2.1v2h-2.1v3.1h-2.2v-3.1h-6.3v-1.7zm6.3-.3v-4.8l-3.5 4.8h3.5zm5.4-1.1c0-3.8 1.9-6.3 5.2-6.3c3.3 0 5.1 2.5 5.1 6.3c0 3.9-1.8 6.4-5.1 6.4c-3.3 0-5.2-2.5-5.2-6.4zm8 0c0-2.5-.8-4.2-2.8-4.2c-2 0-2.8 1.7-2.8 4.2c0 2.5.8 4.3 2.8 4.3c2 0 2.8-1.8 2.8-4.3z" stroke="none" fill="#48a6d7"/></g></svg>