<?xml version="1.0" standalone="no"?><!DOCTYPE svg PUBLIC "-//W3C//DTD SVG 1.1//EN" "http://www.w3.org/Graphics/SVG/1.1/DTD/svg11.dtd"><svg xmlns="http://www.w3.org/2000/svg" version="1.1" width="126px" height="36.1px" viewBox="0 -5 126 36.1" style="top:-5px"><desc>Everything,</desc><defs/><g id="Polygon2031"><path d="m1.8 3.2h11.3v2.7H4.9v4h7.1v2.7H4.9v4.1h8.2v2.7H1.8V3.2zm12.1 3.9h3.3l3.2 8.6l3.3-8.6h3.2l-5 12.3h-3l-5-12.3zm13.4 6.2c0-3.8 2.6-6.4 6.2-6.4c3.6 0 5.9 2.4 5.9 6c0 .4-.1.9-.1 1.4h-8.9c.3 1.7 1.4 2.8 3.6 2.8c1.5 0 2.7-.8 3.4-1.8l1.7 2c-1.1 1.3-3 2.4-5.3 2.4c-4 0-6.5-2.8-6.5-6.4zm3.1-1.4h6c-.2-1.6-1.3-2.5-2.9-2.5c-1.6 0-2.7.8-3.1 2.5zm11.2-4.8h3s-.03 1.94 0 1.9c.7-1.3 1.9-2.1 3.5-2.1c0-.05.4 0 .4 0c0 0-.05 2.83 0 2.8c-1.9.1-3.3.6-3.9 2.4c-.03.01 0 7.3 0 7.3h-3V7.1zm12.1 10.7L48.8 7.1h3.2l3.3 7.4l3-7.4h3.3l-7.2 16.4h-3.3l2.6-5.7zm10.2-3.1c.04.01 0-5.1 0-5.1h-2V7.1h2.1V4h3v3.1h2.8v2.5H67s-.03 5.25 0 5.2c0 1.6.7 2.2 2.2 2.2c.03-.03.6 0 .6 0v2.4c-.4.1-.9.1-1.4.1c-2.9 0-4.5-1.4-4.5-4.8zm7.9-12.2h3s.04 6.35 0 6.4c.7-1.1 2-2 3.9-2c3.2 0 4.7 2.1 4.7 5.3c-.01-.02 0 7.2 0 7.2h-3s-.04-6.88 0-6.9c0-1.9-1-3-2.7-3c-1.7 0-2.6 1.2-2.9 2.2c.04-.02 0 7.7 0 7.7h-3V2.5zm14.3 4.6h3v12.3h-3V7.1zm0-5.2h3v3.2h-3V1.9zM92 7.1h3s.02 1.75 0 1.8c.7-1.1 2-2 3.9-2c3.2 0 4.7 2.1 4.7 5.3c-.03-.02 0 7.2 0 7.2h-3.1s.04-6.88 0-6.9c0-1.9-.9-3-2.7-3c-1.5 0-2.5 1.1-2.8 2.2c.02-.02 0 7.7 0 7.7h-3V7.1zm13.6 5.6c0-3.5 2.2-5.8 5.6-5.8c1.6 0 2.9.6 3.7 1.7c.02-.03 0-1.5 0-1.5h3s.04 10.2 0 10.2c0 4.5-3.1 6.5-6.4 6.5c-3 0-4.7-1.1-5.6-2.5l1.8-1.9c.8 1.1 1.8 1.8 3.7 1.8c1.7 0 3.5-1 3.5-3.7v-.6c-.8 1-2.1 1.7-3.7 1.7c-3.4 0-5.6-2.4-5.6-5.9zm9.3 1.5v-3c-.5-1.1-1.6-1.8-3-1.8c-2 0-3.2 1.4-3.2 3.3c0 2 1.2 3.3 3.2 3.3c1.4 0 2.5-.7 3-1.8zm7.3 6.3h-1.6v-3.7h3.6v3.2l-1.6 4h-1.8l1.4-3.5z" stroke="none" fill="#48a6d7"/></g></svg>