<?xml version="1.0" standalone="no"?><!DOCTYPE svg PUBLIC "-//W3C//DTD SVG 1.1//EN" "http://www.w3.org/Graphics/SVG/1.1/DTD/svg11.dtd"><svg xmlns="http://www.w3.org/2000/svg" version="1.1" width="116.2px" height="44.7px" viewBox="0 -3 116.2 44.7" style="top:-3px"><desc>도전적 실행 Challenge</desc><defs/><g id="Polygon110557"><path d="m4.6 35.2c-.6 0-1.1-.1-1.6-.3c-.5-.2-.9-.5-1.2-.9c-.4-.4-.6-.8-.8-1.4c-.2-.6-.3-1.2-.3-1.9c0-.8.1-1.4.3-2c.2-.5.4-1 .8-1.4c.4-.4.8-.7 1.3-.9c.5-.2 1-.3 1.5-.3c.6 0 1.1.1 1.5.3c.4.2.8.5 1 .8l-.7.9c-.2-.3-.5-.5-.8-.6c-.3-.2-.6-.2-.9-.2c-.4 0-.8.1-1.1.2c-.3.2-.6.4-.8.7c-.2.3-.4.6-.5 1c-.2.4-.2.9-.2 1.4c0 .5 0 1 .2 1.4c.1.5.2.8.5 1.1c.2.3.5.5.8.7c.3.1.6.2 1 .2c.4 0 .8-.1 1.1-.2c.3-.2.6-.4.9-.7l.7.8c-.3.5-.7.8-1.2 1c-.4.2-.9.3-1.5.3zm4.1-.1v-9.6h1.4v2.5s-.08 1.34-.1 1.3c.3-.2.6-.5 1-.7c.3-.2.7-.3 1.2-.3c.7 0 1.2.2 1.5.7c.3.4.5 1.1.5 1.9v4.2h-1.4v-4c0-.6-.1-1-.3-1.3c-.1-.2-.4-.3-.8-.3c-.3 0-.6.1-.8.2c-.3.2-.5.4-.8.7c-.03-.02 0 4.7 0 4.7H8.7zm8.9.1c-.2 0-.5 0-.7-.1c-.3-.1-.5-.2-.7-.4c-.1-.2-.3-.4-.4-.6c-.1-.2-.1-.5-.1-.8c0-.4.1-.7.2-1c.1-.4.4-.7.7-.9c.4-.1.8-.3 1.3-.4c.5 0 1.1-.1 1.7-.1v-.6c-.1-.2-.1-.3-.2-.5c-.1-.1-.2-.2-.4-.3c-.2 0-.4-.1-.6-.1c-.4 0-.7.1-1.1.2c-.3.2-.6.3-.9.5l-.4-1c.3-.2.7-.4 1.2-.6c.4-.1.9-.2 1.4-.2c.9 0 1.5.2 1.8.7c.4.5.6 1.2.6 2.1c.03-.01 0 4 0 4h-1.1l-.1-.8s-.06.04-.1 0c-.3.3-.6.5-.9.7c-.4.1-.7.2-1.2.2zm.5-1.1c.3 0 .5 0 .8-.2c.2-.1.5-.3.7-.5v-1.6c-.3 0-.6 0-.8.1h-.6c-.2.1-.4.1-.5.2c-.1 0-.3.1-.4.2c-.1.2-.2.3-.3.5v.4c0 .3.1.6.3.7c.2.2.5.2.8.2zm4.8 1v-9.6h1.3v9.6h-1.3zm3.2 0v-9.6h1.3v9.6h-1.3zm6 .1c-.4 0-.9-.1-1.3-.2c-.4-.2-.7-.4-1-.7c-.3-.3-.5-.6-.7-1.1c-.1-.4-.2-.9-.2-1.4c0-.6.1-1.1.2-1.5c.2-.4.4-.8.7-1.1c.3-.3.6-.5 1-.7c.3-.1.7-.2 1.1-.2c.4 0 .8.1 1.2.2c.3.2.6.4.8.7c.2.2.4.6.5.9c.1.4.2.9.2 1.3v.4c0 .1-.1.2-.1.3h-4.3c.1.7.3 1.1.7 1.5c.3.4.8.5 1.4.5c.3 0 .6 0 .8-.1c.3-.1.5-.2.8-.4l.4.9c-.3.2-.6.4-1 .5c-.4.2-.8.2-1.2.2zm-1.9-4h3.2c0-.6-.1-1-.4-1.4c-.2-.3-.6-.4-1.1-.4c-.2 0-.4 0-.6.1c-.2.1-.3.2-.5.3c-.1.2-.3.4-.4.6c-.1.2-.1.5-.2.8zm5.9 3.9v-6.6h1.1l.1.9s.05-.03 0 0c.3-.3.7-.6 1-.8c.4-.2.8-.3 1.2-.3c.7 0 1.2.2 1.6.7c.3.4.5 1.1.5 1.9c-.04.01 0 4.2 0 4.2h-1.4s-.02-4.02 0-4c0-.6-.1-1-.3-1.3c-.2-.2-.4-.3-.8-.3c-.3 0-.6.1-.9.2c-.2.2-.5.4-.8.7c.04-.02 0 4.7 0 4.7h-1.3zm9.7 2.9c-.4 0-.8 0-1.1-.1c-.4-.1-.7-.2-.9-.3c-.2-.2-.4-.3-.6-.6c-.1-.2-.2-.4-.2-.7c0-.3.1-.6.3-.8c.1-.3.4-.5.7-.7c-.2-.1-.3-.3-.4-.4c-.2-.2-.2-.4-.2-.7c0-.3.1-.5.2-.7c.2-.2.3-.4.5-.5v-.1c-.2-.2-.4-.4-.6-.7c-.2-.3-.3-.6-.3-1c0-.4.1-.7.3-1c.1-.3.3-.6.5-.8c.2-.2.5-.3.8-.4c.3-.2.7-.2 1-.2h.5c.2.1.3.1.5.2c-.03-.04 2.3 0 2.3 0v1h-1.3c.2.1.3.3.4.5c0 .2.1.4.1.7c0 .4-.1.7-.2 1c-.1.2-.3.5-.5.7c-.3.2-.5.3-.8.4c-.3.1-.7.2-1 .2c-.3 0-.6-.1-.9-.2l-.3.3c0 .1-.1.2-.1.4c0 .2.1.3.2.4c.2.2.5.2.9.2h1.2c.8 0 1.4.1 1.8.4c.4.2.6.6.6 1.2c0 .3-.1.6-.2.9c-.2.3-.4.5-.7.8c-.3.2-.7.3-1.1.4c-.4.2-.9.2-1.4.2zm0-5.9c.3 0 .6-.1.9-.4c.2-.2.4-.6.4-1c0-.5-.2-.8-.4-1.1c-.2-.2-.5-.3-.9-.3c-.4 0-.7.1-.9.3c-.2.3-.3.6-.3 1.1c0 .4.1.8.3 1c.3.3.6.4.9.4zm.2 5c.2 0 .5 0 .7-.1c.3 0 .5-.1.7-.2c.1-.1.3-.3.3-.4c.1-.2.2-.3.2-.5c0-.2-.1-.4-.3-.5c-.2-.1-.5-.2-1-.2h-1.4c-.1 0-.3 0-.4-.1c-.2.2-.4.3-.5.5c-.1.1-.1.3-.1.5c0 .3.2.6.5.7c.3.2.7.3 1.3.3zm7.1-1.9c-.4 0-.8-.1-1.2-.2c-.4-.2-.8-.4-1.1-.7c-.2-.3-.5-.6-.6-1.1c-.2-.4-.3-.9-.3-1.4c0-.6.1-1.1.3-1.5c.1-.4.4-.8.6-1.1c.3-.3.6-.5 1-.7c.4-.1.7-.2 1.1-.2c.5 0 .8.1 1.2.2c.3.2.6.4.8.7c.2.2.4.6.5.9c.2.4.2.9.2 1.3v.4c0 .1 0 .2-.1.3h-4.2c0 .7.2 1.1.6 1.5c.4.4.8.5 1.4.5c.3 0 .6 0 .8-.1c.3-.1.5-.2.8-.4l.5.9c-.3.2-.7.4-1.1.5c-.3.2-.7.2-1.2.2zm-1.8-4h3.1c0-.6-.1-1-.4-1.4c-.2-.3-.6-.4-1.1-.4c-.2 0-.4 0-.5.1l-.6.3l-.3.6c-.1.2-.2.5-.2.8z" stroke="none" fill="#fff"/></g><g id="Polygon110556"><path d="m8.4 12.8h6v1.9H.2v-1.9h5.9V9.6H1.8V1.8h10.9v1.8H4.1v4.2h8.7v1.8H8.4v3.2zm15.7-8h2.5v-4h2.2v11.4h-2.2V6.6h-2.5V4.8zm1.1 3.6l-1.1 1.8c-.9-.3-1.6-.7-2.2-1.3c-.6-.5-1-1.1-1.4-1.8c-.3.8-.8 1.4-1.4 2c-.6.6-1.4 1.1-2.3 1.4l-1.2-1.8c.7-.2 1.2-.5 1.7-.8c.5-.4.9-.8 1.2-1.2c.3-.4.5-.9.6-1.4c.2-.5.2-1 .2-1.5c.03.03 0-.2 0-.2h-3V1.8h8.4v1.8h-3.1s.03.21 0 .2c0 .5.1.9.2 1.4c.2.5.4.9.7 1.3c.3.4.6.8 1.1 1.1c.4.3 1 .6 1.6.8zm-4.5 6h8.5v1.8H18.5v-5h2.2v3.2zM42.1.8h2.3v9.3h-2.3V6.3h-2.3V4.5h2.3V.8zm-1.4 7.1l-1.1 1.8c-.8-.3-1.6-.7-2.1-1.3c-.6-.5-1.1-1.1-1.4-1.8c-.4.8-.9 1.4-1.5 2c-.6.6-1.3 1.1-2.3 1.4l-1.1-1.8c.6-.2 1.2-.5 1.6-.8c.5-.4.9-.8 1.2-1.2c.3-.4.5-.9.6-1.3c.2-.5.3-1 .3-1.5c-.01.02-3.1 0-3.1 0V1.6h8.4v1.8s-3.02.02-3 0c0 .5.1.9.2 1.4c.2.4.4.8.7 1.2c.2.4.6.8 1.1 1.1c.4.3.9.6 1.5.8zm-7 4.7v-1.8h10.7v5.6h-2.3v-3.8h-8.4zM63.6.8v7.9h-2.2V.8h2.2zm-3.4 5.9l-1.1 1.8c-.9-.3-1.6-.7-2.2-1.2c-.6-.5-1.1-1.1-1.4-1.8c-.4.8-.9 1.4-1.5 2c-.7.5-1.5 1-2.4 1.2L50.5 7c.7-.2 1.2-.5 1.7-.8c.5-.4.9-.7 1.2-1.1c.3-.5.5-.9.7-1.4c.1-.4.2-.9.2-1.4c-.02.01 0-1.2 0-1.2h2.3s-.04 1.21 0 1.2c0 .5 0 .9.2 1.4c.1.4.3.8.6 1.2c.3.4.7.8 1.2 1.1c.4.3 1 .6 1.6.7zm-4.8 7.9h8.6v1.7H53.2V12h8.2v-.9h-8.2V9.4h10.4v4.2h-8.2v1zm20.8-8.2v3.7h-2.1v-9h2.1v3.5h1.2V.8h2.1v9.8h-2.1V6.4h-1.2zm-2.5-4v1.7h-7.6V2.4h2.7V.9h2.2v1.5h2.7zm-.4 4.9c0 .4-.1.8-.3 1.1c-.1.4-.4.7-.7.9c-.3.2-.6.4-1 .6c-.4.1-.9.2-1.4.2c-.5 0-.9-.1-1.3-.2c-.5-.2-.8-.4-1.1-.6c-.3-.2-.5-.5-.7-.9c-.2-.3-.3-.7-.3-1.1c0-.4.1-.8.3-1.1c.2-.3.4-.6.7-.8c.3-.3.6-.5 1.1-.6c.4-.1.8-.2 1.3-.2c.5 0 1 .1 1.4.2c.4.1.7.3 1 .6c.3.2.6.5.7.8c.2.3.3.7.3 1.1zm-4.8 0c0 .4.2.7.4.9c.3.2.6.3 1 .3c.4 0 .8-.1 1-.3c.3-.2.4-.5.4-.9c0-.3-.1-.6-.4-.8c-.2-.2-.6-.3-1-.3c-.4 0-.7.1-1 .3c-.2.2-.4.5-.4.8zm5.7 3.4c1.8 0 3.1.3 4 .8c.9.5 1.4 1.2 1.4 2.1c0 .9-.5 1.6-1.4 2.1c-.9.5-2.2.7-4 .7c-1.7 0-3.1-.2-4-.7c-.9-.5-1.4-1.2-1.4-2.1c0-.9.5-1.6 1.4-2.1c.9-.5 2.3-.8 4-.8zm0 4.1c1.1 0 1.9-.1 2.4-.3c.5-.2.8-.5.8-.9c0-.4-.3-.7-.8-.9c-.5-.2-1.3-.3-2.4-.3c-1.1 0-1.8.1-2.4.3c-.5.2-.7.5-.7.9c0 .4.2.7.7.9c.6.2 1.3.3 2.4.3z" stroke="none" fill="#fff"/></g></svg>