<?xml version="1.0" standalone="no"?><!DOCTYPE svg PUBLIC "-//W3C//DTD SVG 1.1//EN" "http://www.w3.org/Graphics/SVG/1.1/DTD/svg11.dtd"><svg xmlns="http://www.w3.org/2000/svg" version="1.1" width="116.2px" height="44.7px" viewBox="0 -3 116.2 44.7" style="top:-3px"><desc>고객 최우선 Customer</desc><defs/><g id="Polygon110454"><path d="m4.6 35.2c-.6 0-1.1-.1-1.6-.3c-.5-.2-.9-.5-1.2-.9c-.4-.4-.6-.8-.8-1.4c-.2-.6-.3-1.2-.3-1.9c0-.8.1-1.4.3-2c.2-.5.4-1 .8-1.4c.4-.4.8-.7 1.3-.9c.5-.2 1-.3 1.5-.3c.6 0 1.1.1 1.5.3c.4.2.8.5 1 .8l-.7.9c-.2-.3-.5-.5-.8-.6c-.3-.2-.6-.2-.9-.2c-.4 0-.8.1-1.1.2c-.3.2-.6.4-.8.7c-.2.3-.4.6-.5 1c-.2.4-.2.9-.2 1.4c0 .5 0 1 .2 1.4c.1.5.2.8.5 1.1c.2.3.5.5.8.7c.3.1.6.2 1 .2c.4 0 .8-.1 1.1-.2c.3-.2.6-.4.9-.7l.7.8c-.3.5-.7.8-1.2 1c-.4.2-.9.3-1.5.3zm6 0c-.7 0-1.2-.2-1.5-.6c-.3-.5-.5-1.1-.5-2v-4.1h1.4v3.9c0 .6.1 1 .2 1.3c.2.2.5.3.9.3c.3 0 .6 0 .8-.2c.2-.2.5-.4.8-.8c-.03.04 0-4.5 0-4.5h1.4v6.6h-1.2l-.1-1s-.02-.04 0 0c-.3.3-.6.6-1 .8c-.3.2-.7.3-1.2.3zm7.3 0c-.5 0-.9-.1-1.4-.2c-.4-.2-.8-.4-1.1-.7l.6-.9l.9.6c.3.1.6.2 1 .2c.4 0 .7-.1.9-.3c.2-.1.3-.4.3-.6c0-.2-.1-.3-.2-.4c0-.1-.2-.2-.3-.3c-.1-.1-.3-.2-.5-.2c-.1-.1-.3-.2-.5-.3c-.2 0-.4-.1-.7-.2c-.2-.1-.4-.3-.6-.4c-.1-.2-.3-.3-.4-.5c-.1-.3-.2-.5-.2-.8c0-.3.1-.5.2-.7c.1-.3.2-.5.4-.7c.2-.1.5-.3.8-.4c.3-.1.6-.1 1-.1c.4 0 .8.1 1.2.2l.9.6l-.6.8c-.3-.1-.5-.3-.7-.4c-.3-.1-.5-.2-.8-.2c-.4 0-.6.1-.8.3c-.2.1-.3.3-.3.6c0 .1.1.2.2.3c0 .1.1.2.3.3c.1.1.2.2.4.2c.2.1.4.1.5.2c.3.1.5.2.7.3c.3.1.5.2.7.4c.1.1.3.3.4.5c.1.2.2.5.2.8c0 .3-.1.5-.2.8c-.1.2-.3.4-.5.6c-.2.2-.4.4-.7.5c-.4.1-.7.1-1.1.1zm6.1 0c-.4 0-.7 0-.9-.2c-.3-.1-.5-.2-.7-.4c-.1-.2-.2-.5-.3-.8c-.1-.2-.1-.6-.1-.9c-.01 0 0-3.3 0-3.3h-1v-1.1h1l.2-1.9h1.2v1.9h1.7v1.1h-1.7s-.03 3.31 0 3.3c0 .4 0 .7.2.9c.1.2.4.3.7.3h.4c.1-.1.2-.1.3-.1l.3 1c-.2 0-.4.1-.6.1c-.2.1-.5.1-.7.1zm5.1 0c-.4 0-.8-.1-1.2-.2c-.3-.2-.7-.4-1-.7c-.2-.3-.5-.6-.6-1.1c-.2-.4-.3-.9-.3-1.4c0-.6.1-1.1.3-1.5c.1-.4.4-.8.6-1.1c.3-.3.7-.5 1-.7c.4-.1.8-.2 1.2-.2c.4 0 .8.1 1.2.2c.4.2.7.4 1 .7c.3.3.5.7.7 1.1c.1.4.2.9.2 1.5c0 .5-.1 1-.2 1.4c-.2.5-.4.8-.7 1.1c-.3.3-.6.5-1 .7c-.4.1-.8.2-1.2.2zm0-1.1c.5 0 1-.2 1.3-.6c.3-.5.4-1 .4-1.7c0-.7-.1-1.3-.4-1.7c-.3-.5-.8-.7-1.3-.7c-.5 0-.9.2-1.2.7c-.3.4-.5 1-.5 1.7c0 .7.2 1.2.5 1.7c.3.4.7.6 1.2.6zm4.7 1v-6.6h1.1l.1.9s.05-.02.1 0c.2-.3.5-.6.9-.8c.3-.2.7-.3 1.1-.3c.5 0 .9.1 1.2.3c.3.2.5.5.6.9c.4-.4.7-.6 1-.9c.4-.2.8-.3 1.2-.3c.7 0 1.2.2 1.5.7c.3.4.5 1.1.5 1.9v4.2h-1.4v-4c0-.6-.1-1-.2-1.3c-.2-.2-.5-.3-.9-.3c-.4 0-.9.3-1.5.9c.02-.02 0 4.7 0 4.7h-1.4s.04-4.02 0-4c0-.6 0-1-.2-1.3c-.2-.2-.5-.3-.9-.3c-.4 0-.9.3-1.4.9c-.05-.02 0 4.7 0 4.7h-1.4zm14 .1c-.5 0-.9-.1-1.3-.2c-.4-.2-.7-.4-1-.7c-.3-.3-.5-.6-.7-1.1c-.2-.4-.3-.9-.3-1.4c0-.6.1-1.1.3-1.5c.2-.4.4-.8.7-1.1c.2-.3.6-.5.9-.7c.4-.1.8-.2 1.2-.2c.4 0 .8.1 1.1.2c.3.2.6.4.9.7c.2.2.4.6.5.9c.1.4.1.9.1 1.3v.7h-4.3c.1.7.3 1.1.6 1.5c.4.4.9.5 1.4.5c.3 0 .6 0 .9-.1c.2-.1.5-.2.7-.4l.5.9c-.3.2-.7.4-1 .5c-.4.2-.8.2-1.2.2zm-1.9-4h3.2c0-.6-.2-1-.4-1.4c-.3-.3-.6-.4-1.1-.4c-.2 0-.4 0-.6.1c-.2.1-.4.2-.5.3c-.2.2-.3.4-.4.6c-.1.2-.2.5-.2.8zm5.8 3.9v-6.6h1.2l.1 1.1s.01.05 0 0c.2-.4.5-.7.8-1c.4-.2.7-.3 1.1-.3h.4c.1.1.2.1.3.1l-.2 1.2h-.3c-.1-.1-.3-.1-.4-.1c-.3 0-.5.1-.8.3c-.3.2-.6.6-.8 1.1v4.2h-1.4z" stroke="none" fill="#fff"/></g><g id="Polygon110453"><path d="m11.6 11.1l-2.3-.3c.3-1.4.5-2.7.6-3.9c0-1.1.1-2.1.1-3H.8V2.1h11.4v3c0 .6 0 1.1-.1 1.7c0 .6-.1 1.3-.2 2c0 .7-.2 1.5-.3 2.3zm-4.9 1.6h6.9v1.8H-.6v-1.8h5V7.3h2.3v5.4zM26.2.8h2.1v9.1h-2.1V6.2h-1.4v3.7h-2.1V1h2.1v3.4h1.4V.8zM15.5 1.9s6.23-.05 6.2 0c0 1.9-.4 3.6-1.4 4.9c-.9 1.4-2.4 2.4-4.5 3.2l-1-1.6c1.4-.5 2.5-1.2 3.3-2c.7-.8 1.1-1.7 1.3-2.8c0 .04-3.9 0-3.9 0V1.9zm1.9 10.5v-1.8h10.9v5.8H26v-4h-8.6zM45.1.7h2.2v15.8h-2.2V.7zm-9.4 9l-1-1.7c.6-.1 1.1-.3 1.5-.6c.4-.2.8-.5 1.1-.8c.3-.4.5-.7.7-1.1c.1-.3.2-.7.3-1.1h-3.2V2.6h3.2V.9h2.3v1.7h3.1v1.8h-3.1c0 .4.1.7.3 1.1c.1.3.4.7.7 1c.2.3.6.6 1 .8c.5.2 1 .4 1.6.6l-1 1.7c-.9-.2-1.7-.6-2.3-1.1c-.6-.5-1.1-1-1.5-1.7c-.3.7-.8 1.3-1.4 1.8c-.6.5-1.4.9-2.3 1.1zm4.9-.4s-.05 2.26 0 2.3c.6-.1 1.2-.1 1.8-.2c.6 0 1.2-.1 1.8-.2l.2 1.6c-.9.2-1.7.3-2.6.4c-.9.1-1.7.2-2.6.2c-.8.1-1.6.1-2.4.1h-2.2l-.3-1.8h4V9.3h2.3zm16.3-1c-.8 0-1.6 0-2.3-.2c-.7-.2-1.3-.4-1.8-.7c-.5-.3-.9-.7-1.2-1.1c-.2-.5-.4-.9-.4-1.5c0-.5.2-1 .4-1.4c.3-.5.7-.8 1.2-1.1c.5-.3 1.1-.6 1.8-.8c.7-.1 1.5-.2 2.3-.2c.8 0 1.6.1 2.3.2c.7.2 1.3.5 1.8.8c.5.3.9.6 1.1 1.1c.3.4.4.9.4 1.4c0 .6-.1 1-.4 1.5c-.2.4-.6.8-1.1 1.1c-.5.3-1.1.5-1.8.7c-.7.2-1.5.2-2.3.2zm0-5.2c-1 0-1.9.1-2.5.4c-.6.3-.9.7-.9 1.3c0 .6.3 1 .9 1.3c.6.3 1.5.5 2.5.5c1 0 1.8-.2 2.4-.5c.6-.3.9-.7.9-1.3c0-.6-.3-1-.9-1.3c-.6-.3-1.4-.4-2.4-.4zM64 9.5v1.8h-6v5.1h-2.3v-5.1h-5.9V9.5H64zm12.2 2.8V5.9h-2.8V4.1h2.8V.8h2.3v11.5h-2.3zm-1.5-4L73.5 10c-.8-.2-1.5-.7-2-1.2c-.6-.6-1-1.2-1.4-1.9c-.3.8-.7 1.5-1.4 2.1c-.6.6-1.3 1.1-2.2 1.4l-1.2-1.7c.6-.2 1.2-.5 1.7-.9c.4-.4.8-.8 1.1-1.3c.3-.4.5-.9.6-1.5c.2-.5.3-1 .3-1.6c-.04 0 0-1.7 0-1.7h2.2s.04 1.72 0 1.7c0 .5.1 1 .2 1.5c.2.5.4 1 .7 1.4c.3.4.6.8 1.1 1.2c.4.3.9.6 1.5.8zm-4.3 6.1h8.4v1.8H68.1v-5h2.3v3.2z" stroke="none" fill="#fff"/></g></svg>