<?xml version="1.0" standalone="no"?><!DOCTYPE svg PUBLIC "-//W3C//DTD SVG 1.1//EN" "http://www.w3.org/Graphics/SVG/1.1/DTD/svg11.dtd"><svg xmlns="http://www.w3.org/2000/svg" version="1.1" width="839.3px" height="140.9px" viewBox="0 -3 839.3 140.9" style="top:-3px"><desc>현대자동차그룹은 창의적 사고와 끝없는 도전을 통해 새로운 미래를 창조함으로써 인류의 꿈을 실현합니다. 앞선 생각과 도전정신으로 새로운 ‘가능성을 실현’하고 고객의 안전과 인류의 보다 가치 있는 삶을 위해 ‘무한...</desc><defs/><g id="Polygon109031"><path d="m12.4 114.9h1.4v9.4h-1.4v-4.2h-1.9v4.1H9.2v-9h1.3v3.8h1.9v-4.1zm-3.9 7.6l-.7 1c-.7-.3-1.3-.7-1.9-1.2c-.5-.6-.9-1.2-1.1-1.9c-.3.8-.7 1.5-1.2 2c-.5.6-1.1 1.1-1.9 1.4l-.7-1c.5-.2.9-.5 1.3-.8c.4-.3.7-.7 1-1.1c.2-.4.4-.8.6-1.3c.1-.4.2-.9.2-1.4c-.02 0 0-.2 0-.2H1.3v-1.1h2.8v-1.8h1.3v1.8h2.7v1.1H5.4v.2c0 .4.1.9.2 1.3c.2.5.4.9.6 1.2c.3.4.6.7 1 1c.4.3.8.6 1.3.8zm-5 3.7v-1.1h10.3v5h-1.4v-3.9H3.5zm24.1-11.3h1.4v8.7h-1.4v-8.7zm-6.8.8c.6 0 1.1.1 1.6.3c.5.1.9.4 1.2.7c.4.3.7.7.9 1.1c.2.5.3.9.3 1.5c0 .5-.1 1-.3 1.4c-.2.4-.5.8-.9 1.1c-.3.4-.7.6-1.2.8c-.5.1-1 .2-1.6.2c-.6 0-1.1-.1-1.6-.2c-.5-.2-.9-.4-1.3-.8c-.3-.3-.6-.7-.8-1.1c-.2-.4-.3-.9-.3-1.4c0-.6.1-1 .3-1.5c.2-.4.5-.8.8-1.1c.4-.3.8-.6 1.3-.7c.5-.2 1-.3 1.6-.3zm0 1.2c-.4 0-.7 0-1.1.2c-.3.1-.6.2-.8.4c-.2.3-.4.5-.5.8c-.2.3-.2.6-.2 1c0 .3 0 .6.2.9c.1.3.3.6.5.8c.2.2.5.4.8.5c.4.1.7.2 1.1.2c.4 0 .7-.1 1-.2c.4-.1.6-.3.9-.5c.2-.2.4-.5.5-.8c.1-.3.2-.6.2-.9c0-.4-.1-.7-.2-1c-.1-.3-.3-.5-.5-.8c-.3-.2-.5-.3-.9-.4c-.3-.2-.6-.2-1-.2zm-1.7 7.6h9.9v5.4h-9.9v-5.4zm8.5 1.1h-7.1v3.2h7.1v-3.2zm18.5-4.3v1.1h-2.4v7.7h-1.4v-15.2h1.4v6.4h2.4zm-6.1 2.2l-1.4-.2c.2-1.3.3-2.4.4-3.3v-2.3h-6.3v-1.1h7.7v.8c0 .6 0 1.4-.1 2.4c0 1-.1 2.2-.3 3.7zm-3.5-2.6s-.04 4.68 0 4.7c.8-.1 1.7-.1 2.5-.2c.8 0 1.6-.1 2.4-.2l.1 1c-.8.2-1.6.3-2.5.3c-.8.1-1.6.2-2.4.2c-.8.1-1.6.1-2.4.1H32l-.1-1.1h1.5c.5-.1 1.1-.1 1.7-.1v-4.7h1.4zm25.9-6h1.5v9h-1.5v-2.2h-3.8c-.4.4-.8.8-1.4 1c-.5.3-1.1.4-1.8.4c-.5 0-1-.1-1.5-.3c-.5-.2-.9-.4-1.3-.7c-.3-.4-.6-.8-.8-1.2c-.2-.5-.3-1-.3-1.5c0-.5.1-1 .3-1.5c.2-.4.5-.8.8-1.1c.4-.3.8-.6 1.3-.8c.5-.2 1-.2 1.5-.2c.7 0 1.3.1 1.9.3c.5.3.9.6 1.3 1c0 .04 3.8 0 3.8 0v-2.2zm-7 7c.4 0 .8-.1 1.1-.2c.3-.1.6-.3.8-.5c.2-.2.4-.5.5-.8c.2-.3.2-.6.2-1c0-.4 0-.7-.2-1c-.1-.3-.3-.5-.5-.8c-.2-.2-.5-.3-.8-.5c-.3-.1-.7-.2-1.1-.2c-.3 0-.7.1-1 .2c-.3.2-.6.3-.8.5c-.2.3-.4.5-.6.8c-.1.3-.1.6-.1 1c0 .4 0 .7.1 1c.2.3.4.6.6.8c.2.2.5.4.8.5c.3.1.7.2 1 .2zm4-2.5c0 .5-.1.9-.2 1.2c-.01-.04 3.2 0 3.2 0v-2.3s-3.21-.03-3.2 0c.1.3.2.7.2 1.1zm-5.7 6.5v-1.2h10.2v5.5h-1.5v-4.3h-8.7zm22.2-9.6v1.1h-9v-1.1h3.8v-1.6h1.4v1.6h3.8zm2.8 2.2h2.2v1.2h-2.2v3.6h-1.4v-8.5h1.4v3.7zm-3.7 2c0 .8-.3 1.4-.9 1.9c-.7.4-1.6.6-2.7.6c-.6 0-1.1 0-1.5-.1c-.5-.1-.8-.3-1.2-.5c-.3-.2-.5-.5-.7-.8c-.2-.3-.3-.7-.3-1.1c0-.4.1-.7.3-1c.2-.3.4-.6.7-.8c.4-.2.7-.4 1.2-.5c.4-.1.9-.2 1.5-.2c1.1 0 2 .3 2.7.7c.6.5.9 1.1.9 1.8zm-5.9 0c0 .5.2.9.6 1.1c.4.3 1 .4 1.7.4c.7 0 1.3-.1 1.7-.4c.4-.2.6-.6.6-1.1c0-.4-.2-.8-.6-1c-.4-.3-1-.4-1.7-.4c-.7 0-1.3.1-1.7.4c-.4.2-.6.6-.6 1zm1.3 6.9v1.5h8.8v1.1H69v-3.6h8.3v-1.3H69v-1h9.7v3.3h-8.3zm18.9-7c-1.7 0-3-.2-4-.6c-.9-.5-1.4-1.1-1.4-2c0-.9.5-1.5 1.4-2c1-.4 2.3-.6 4-.6c1.7 0 3 .2 3.9.6c1 .5 1.4 1.1 1.4 2c0 .9-.4 1.5-1.4 2c-.9.4-2.2.6-3.9.6zm0-4.2c-1.3 0-2.3.1-2.9.4c-.7.3-1 .7-1 1.2c0 .5.3.9 1 1.2c.6.3 1.6.4 2.9.4c1.3 0 2.2-.1 2.9-.4c.7-.3 1-.7 1-1.2c0-.5-.3-.9-1-1.2c-.7-.3-1.6-.4-2.9-.4zm-6.9 5.3h13.8v1.1H82.4v-1.1zm3.1 5.8v1.6h9.4v1.1H84.1v-3.7h8.9V125h-9v-1.1h10.4v3.4h-8.9zm30.4-6.4v1.2h-2.5v8.1H112v-15.3h1.4v6h2.5zm-12.2-3.4s.02 7.69 0 7.7h1.9c.6-.1 1.2-.1 1.7-.1c.6-.1 1.1-.1 1.7-.2c.5 0 1-.1 1.6-.2l.1 1.1c-.5.1-1.1.2-1.7.3c-.5.1-1.1.1-1.7.2c-.5 0-1.1 0-1.8.1h-2c.03-.02-1.2 0-1.2 0v-10h7.1v1.1h-5.7zm27.8 3.7v1.1H129v7.8h-1.4v-15.2h1.4v6.3h2.5zm-9.1-6.1v2.2h3.7v1.2h-9v-1.2h3.9v-2.2h1.4zm-.7 4.6c.5 0 1 .1 1.5.3c.5.2.8.4 1.2.7c.3.3.6.7.8 1.1c.1.5.2.9.2 1.4c0 .6-.1 1-.2 1.5c-.2.4-.5.8-.8 1.1c-.4.3-.7.5-1.2.7c-.5.2-1 .2-1.5.2c-.5 0-1 0-1.5-.2c-.4-.2-.8-.4-1.1-.7c-.4-.3-.6-.7-.8-1.1c-.2-.5-.3-.9-.3-1.5c0-.5.1-.9.3-1.4c.2-.4.4-.8.8-1.1c.3-.3.7-.5 1.1-.7c.5-.2 1-.3 1.5-.3zm0 5.9c.4 0 .7-.1 1-.2c.3-.1.5-.3.7-.5c.2-.2.4-.4.5-.7c.1-.3.2-.6.2-1c0-.3-.1-.6-.2-.9c-.1-.3-.3-.5-.5-.7c-.2-.3-.4-.4-.7-.5c-.3-.2-.6-.2-1-.2c-.3 0-.7 0-.9.2c-.3.1-.6.2-.8.5c-.2.2-.4.4-.5.7c-.1.3-.2.6-.2.9c0 .4.1.7.2 1c.1.3.3.5.5.7c.2.2.5.4.8.5c.2.1.6.2.9.2zm24-10.7v8.8h-1.4v-8.8h1.4zm-4.4 5.5s-3.01-.04-3 0c-1 1.5-2.5 2.7-4.6 3.6l-.8-1c3.2-1.3 4.9-3.2 5.2-5.8c-.04-.04-4.5 0-4.5 0V116s5.88.04 5.9 0c0 1.2-.2 2.3-.6 3.2c-.03.04 2.4 0 2.4 0v-4h1.3v8.3h-1.3v-3.1zm2.4 3.8s.02 1.02 0 1c0 .4.1.8.2 1.2c.2.4.4.7.6 1.1c.3.3.6.6 1 .9c.4.3.8.5 1.3.7l-.7 1c-.8-.3-1.4-.7-1.9-1.2c-.5-.5-.9-1.1-1.2-1.7c-.2.6-.6 1.2-1 1.8c-.5.5-1.1.9-1.8 1.2c-.7-.3-1.3-.7-1.8-1.2c-.4-.5-.8-1.1-1-1.8c-.3.7-.7 1.2-1.2 1.7c-.5.5-1.1.9-1.8 1.2l-.7-1c.4-.2.9-.4 1.3-.7c.3-.3.7-.6.9-1c.3-.3.5-.7.6-1c.2-.4.2-.8.2-1.2c.05.02 0-1 0-1h1.4v1c0 .7.2 1.4.5 2c.4.7.9 1.2 1.6 1.7c.4-.3.7-.5 1-.8c.2-.3.4-.6.6-1c.2-.3.3-.6.4-.9c.1-.4.2-.7.2-1c-.04.02 0-1 0-1h1.3zm17.6-4.5l-.5 1.1c-.6-.1-1.1-.2-1.7-.4c-.6-.2-1.1-.5-1.6-.7c-.5-.3-.9-.6-1.3-1c-.4-.4-.7-.8-1-1.2c-.2.4-.5.8-.9 1.2c-.4.4-.8.7-1.3 1c-.5.2-1 .5-1.6.7c-.6.2-1.2.3-1.8.4l-.5-1.1c.7-.1 1.4-.3 2-.5c.7-.3 1.3-.5 1.8-.9c.5-.3.9-.7 1.2-1.2c.3-.4.4-.9.4-1.3c.03-.05 0-.7 0-.7h1.5s-.04.65 0 .7c0 .4.1.9.4 1.3c.3.4.7.8 1.2 1.2c.5.3 1.1.6 1.8.9c.6.2 1.3.4 1.9.5zm-13 2.2h13.8v1.1h-13.8v-1.1zm10.6 3.9V124h1.4v5.9h-10.2V124h1.4v1.8h7.4zm0 3v-1.9h-7.4v1.9h7.4zm16.1-13.9h1.4v15.2H175v-15.2zm-8.8 1.5s.04 8.62 0 8.6c1.2 0 2.4 0 3.6-.1c1.1-.2 2.4-.3 3.6-.6l.2 1.2c-1.4.3-2.6.5-3.8.6c-1.2.1-2.5.1-3.7.1h-1.3v-9.8h1.4zm27.5 4.5v1.2h-2.5v8.1h-1.4v-15.3h1.4v6h2.5zm-12.2-3.4v7.7h1.9c.6-.1 1.2-.1 1.7-.1c.6-.1 1.1-.1 1.6-.2c.6 0 1.1-.1 1.7-.2l.1 1.1l-1.7.3c-.5.1-1.1.1-1.7.2c-.6 0-1.2 0-1.8.1h-2c0-.02-1.2 0-1.2 0v-10h7.1v1.1h-5.7zm13.3 11.6v-1.6h1.6v1.6h-1.6z" stroke="none" fill="#fff"/></g><g id="Polygon109030"><path d="m12.1 86.4h1.4v15.3h-1.4v-8.6H7.7v-1.2h4.4v-5.5zm-9 2.6s-.04 7.74 0 7.7h1.8c.6 0 1.2 0 1.7-.1c.5 0 1 0 1.5-.1l1.5-.3l.2 1.2c-.6.1-1.1.2-1.6.3c-.6 0-1.1.1-1.6.1c-.6 0-1.2.1-1.8.1h-2c.04.01-1.1 0-1.1 0V87.8h6.9v1.2H3.1zm31.3 3.5v1.1h-2.5v8h-1.4V86.4h1.4v6.1h2.5zm-12.2-4.6s-.03 8.72 0 8.7c1.1 0 2.2 0 3.3-.1c1.2-.1 2.4-.3 3.6-.6l.2 1.2c-1.3.3-2.6.4-3.8.5c-1.2.1-2.3.2-3.5.2h-1.2v-9.9h1.4zM42.6 93c-.8 0-1.5-.1-2.2-.2c-.6-.1-1.2-.3-1.7-.6c-.5-.3-.8-.6-1.1-1c-.2-.3-.3-.8-.3-1.2c0-.5.1-.9.3-1.3c.3-.4.6-.7 1.1-1c.5-.2 1.1-.4 1.7-.6c.7-.1 1.4-.2 2.2-.2c.8 0 1.6.1 2.2.2c.7.2 1.2.4 1.7.6c.5.3.9.6 1.1 1c.2.4.4.8.4 1.3c0 .4-.2.9-.4 1.2c-.2.4-.6.7-1.1 1c-.5.3-1 .5-1.7.6c-.6.1-1.4.2-2.2.2zm0-5c-1.2 0-2.1.2-2.8.6c-.8.3-1.1.8-1.1 1.4c0 .6.3 1.1 1.1 1.4c.7.3 1.6.5 2.8.5c1.2 0 2.2-.2 2.9-.5c.7-.3 1-.8 1-1.4c0-.6-.3-1.1-1-1.4c-.7-.4-1.7-.6-2.9-.6zm-6.9 6.4h13.8v1.1H35.7v-1.1zm3.2 2.5v3.3h9.1v1.1H37.5v-4.4h1.4zm27.2-10.5h1.4v15.3h-1.4V86.4zm-10.2 1.5h7v9.9h-7v-9.9zm5.6 1.1h-4.2v7.7h4.2V89zm20.7-2.6h1.3v15.2h-1.3v-8H80v7.3h-1.3V86.7h1.3v5.7h2.2v-6zm-9.8 7s.02 3.44 0 3.4c.9 0 1.7 0 2.6-.1c.8 0 1.7-.1 2.7-.3l.1 1.2c-1.1.2-2 .3-2.9.3c-1 .1-1.9.1-2.8.1h-1v-5.7h4.3v-3.1H71v-1.1h5.8v5.3h-4.4zm24.4-4.3v-1.3h-8.9v-1h10.3v3.2h-8.9v1.3h9.1v1H87.9v-3.2h8.9zm-10.7 4.4h13.8v1H86.1v-1zm3.1 5.5v1.4h9.5v1H87.8v-3.3h9v-1.3h-9v-1h10.4v3.2h-9zm25.2-10.9v1.1h-8.9v-1.1h3.7v-1.8h1.4v1.8h3.8zm5.1 2.1h-2.3v2.1h2.3v1.1h-2.3v2.8h-1.4v-9.8h1.4v2.6h2.3v1.2zm-5.9 2.5c0 .4-.1.8-.3 1.1c-.1.3-.4.6-.7.9c-.3.2-.7.4-1.2.5c-.4.1-.9.2-1.5.2c-.5 0-1-.1-1.4-.2c-.5-.1-.9-.3-1.2-.5c-.3-.3-.6-.6-.7-.9c-.2-.3-.3-.7-.3-1.1c0-.4.1-.8.3-1.1c.1-.3.4-.6.7-.9c.3-.2.7-.4 1.2-.5c.4-.1.9-.2 1.4-.2c.6 0 1.1.1 1.5.2c.5.1.9.3 1.2.5c.3.3.6.6.7.9c.2.3.3.7.3 1.1zm-6 0c0 .5.2.9.6 1.2c.5.3 1 .4 1.7.4c.8 0 1.3-.1 1.7-.4c.5-.3.7-.7.7-1.2c0-.5-.2-.9-.7-1.2c-.4-.3-.9-.4-1.7-.4c-.7 0-1.2.1-1.7.4c-.4.3-.6.7-.6 1.2zm4.9 3.7c.7 0 1.4 0 2 .1c.6.2 1.2.3 1.6.6c.4.2.7.4 1 .8c.2.3.3.7.3 1.1c0 .4-.1.8-.3 1.1c-.3.3-.6.6-1 .8c-.4.3-1 .4-1.6.6c-.6.1-1.3.1-2 .1c-1.6 0-2.8-.2-3.7-.7c-.9-.4-1.3-1.1-1.3-1.9c0-.8.4-1.5 1.3-1.9c.9-.5 2.1-.7 3.7-.7zm0 4.2c1.1 0 2-.2 2.6-.4c.6-.3.9-.7.9-1.2c0-.5-.3-.9-.9-1.2c-.6-.2-1.5-.4-2.6-.4c-1.2 0-2.1.2-2.7.4c-.6.3-.9.7-.9 1.2c0 .5.3.9.9 1.2c.6.2 1.5.4 2.7.4zm20-14.2h1.4v15.2h-1.4V94h-1.9v6.9h-1.3V86.7h1.3v6.1h1.9v-6.4zm-7.1.4v2.2h3.1v1.1h-7.6V89h3.1v-2.2h1.4zm-.7 4.4c.5 0 .9 0 1.3.2c.4.2.8.4 1.1.7c.3.3.5.7.6 1.1c.2.5.3.9.3 1.4c0 .6-.1 1-.3 1.4c-.1.5-.3.8-.6 1.1c-.3.4-.7.6-1.1.8c-.4.1-.8.2-1.3.2c-.4 0-.9-.1-1.3-.2c-.4-.2-.7-.4-1-.8c-.3-.3-.5-.6-.7-1.1c-.2-.4-.2-.8-.2-1.4c0-.5 0-.9.2-1.4c.2-.4.4-.8.7-1.1c.3-.3.6-.5 1-.7c.4-.2.9-.2 1.3-.2zm0 5.8c.6 0 1.1-.3 1.5-.7c.4-.4.6-1 .6-1.7c0-.3-.1-.6-.2-.9c-.1-.3-.2-.5-.4-.7c-.2-.2-.4-.4-.7-.5c-.2-.1-.5-.2-.8-.2c-.6 0-1.1.2-1.4.7c-.4.4-.6.9-.6 1.6c0 .7.2 1.3.6 1.7c.4.4.8.7 1.4.7zm29.7-4.4v1.1H152v7.9h-1.4V86.4h1.4v6.2h2.4zM141 88s7.02.03 7 0c0 1.1-.1 2.2-.4 3.2c-.2 1-.6 2-1.2 2.9c-.6.9-1.3 1.8-2.1 2.6c-.9.7-2 1.4-3.2 2.1l-.8-1.1c2-1 3.5-2.2 4.6-3.6c1-1.4 1.6-3.1 1.7-4.9H141V88zm27 3v1.1h-10.4V87h1.4v4h9zm-12.2 3.2h13.8v1.1h-13.8v-1.1zm3.1 2.6v3.3h9.2v1.2h-10.6v-4.5h1.4zm23.8-2.9h6.2v1.2h-13.8v-1.2h6.2v-1.7h-4.5v-5.1h10.4v1.1h-9v2.8h9.1v1.2h-4.6v1.7zm-.7 2.2c1.6 0 2.9.3 3.8.8c.9.4 1.4 1.1 1.4 2c0 .9-.5 1.6-1.4 2c-.9.5-2.2.7-3.8.7c-1.7 0-2.9-.2-3.9-.7c-.9-.4-1.4-1.1-1.4-2c0-.9.5-1.6 1.4-2c1-.5 2.2-.8 3.9-.8zm0 4.5c1.2 0 2.1-.2 2.8-.5c.6-.2 1-.7 1-1.2c0-.5-.4-1-1-1.2c-.7-.3-1.6-.5-2.8-.5c-1.3 0-2.2.2-2.9.5c-.6.2-1 .7-1 1.2c0 .5.4 1 1 1.2c.7.3 1.6.5 2.9.5zm20.5-9.6h2.2v1.2h-2.2v5.4h-1.4V86.4h1.4v4.6zm-4.2-3.5v7.6h-7.1v-7.6h1.4v2.6h4.3v-2.6h1.4zm-1.4 6.4v-2.8h-4.3v2.8h4.3zm-2.5 2.6v3.7h8.7v1.1H193v-4.8h1.4zm26-3.9v1.1h-2.5v7.9h-1.4V86.4h1.4v6.2h2.5zm-9.1-3.5v2c0 .6.1 1.2.3 1.8c.2.6.5 1.2.9 1.8c.3.5.7 1 1.2 1.5c.5.4 1 .8 1.6 1l-.8 1.2c-.9-.5-1.7-1.1-2.3-1.9c-.7-.9-1.2-1.8-1.6-2.8c-.1.5-.4 1.1-.6 1.6c-.3.5-.6 1-.9 1.4c-.4.4-.7.8-1.1 1.2c-.4.3-.8.6-1.3.8l-.8-1.1c.6-.3 1.1-.6 1.6-1.1c.5-.5.9-1 1.2-1.6c.4-.6.7-1.2.9-1.9c.2-.6.3-1.3.3-1.9c.03-.04 0-2 0-2h-3.5V88h8.3v1.1h-3.4zm18 9.5h6.3v1.2h-13.9v-1.2h6.2v-2.8h-4.5V91h9.1v-2.3h-9.1v-1.2h10.5v4.7h-9.1v2.4h9.4v1.2h-4.9v2.8zm19.2-12.2h1.3v15.3h-1.3v-9h-3.6v-1.1h3.6v-5.2zm-5.9 1.3s.02 2.75 0 2.7c0 .7.1 1.4.3 2.1c.2.7.5 1.3.9 1.9c.3.6.7 1.1 1.2 1.6c.5.4 1 .8 1.6 1l-.8 1.1c-.9-.4-1.7-1-2.3-1.9c-.7-.9-1.2-1.8-1.6-2.9c-.3 1.2-.8 2.2-1.5 3.1c-.6.9-1.4 1.6-2.3 2l-.8-1.1c.5-.3 1.1-.6 1.5-1.1c.5-.5.9-1.1 1.3-1.7c.3-.6.6-1.2.8-1.9c.2-.7.3-1.5.3-2.2c.03.05 0-2.7 0-2.7h1.4zm9.7 14l.6-3.5h1.5l-1 3.5h-1.1zm16-13.4v1.1h-8.6v-1.1h3.7v-1.9h1.4v1.9h3.5zm0 2.2h2.5v-4.1h1.5V98h-1.5v-3.2h-2.5v-1.1h2.5v-2.1h-2.5v-1.1zm-.8 2.6c0 .5-.1.9-.3 1.2c-.1.4-.4.7-.7.9c-.3.3-.6.5-1.1.6c-.4.2-.8.3-1.4.3c-.5 0-.9-.1-1.4-.3c-.4-.1-.7-.3-1-.6c-.3-.2-.6-.5-.8-.9c-.1-.3-.2-.7-.2-1.2c0-.4.1-.8.2-1.1c.2-.4.5-.7.8-1c.3-.2.6-.4 1-.6c.5-.1.9-.2 1.4-.2c.6 0 1 .1 1.4.2c.5.2.8.4 1.1.6c.3.3.6.6.7 1c.2.3.3.7.3 1.1zm-5.6 0c0 .6.2 1 .6 1.4c.4.3.9.5 1.5.5c.7 0 1.2-.2 1.6-.5c.4-.4.6-.8.6-1.4c0-.5-.2-.9-.6-1.3c-.4-.3-.9-.5-1.6-.5c-.6 0-1.1.2-1.5.5c-.4.4-.6.8-.6 1.3zm1.9 7.1h8.8v1.1h-10.2V97h1.4v3.2zm23.1-13.8h1.3v15.2h-1.3v-7.9h-2.2v7.2h-1.3V86.7h1.3v5.8h2.2v-6.1zm-9.7 3s-.03 7.34 0 7.3c1 0 1.9 0 2.7-.1c.8 0 1.6-.1 2.4-.3l.1 1.1l-1.3.3c-.4 0-.9.1-1.3.1c-.5 0-.9.1-1.4.1h-2.6v-9.6h5.7v1.1h-4.3zm27.8 3.2v1.1h-2.5v7.9h-1.4V86.4h1.4v6.2h2.5zm-9.1-3.5s.04 1.96 0 2c0 .6.1 1.2.3 1.8c.2.6.5 1.2.9 1.8c.3.5.8 1 1.2 1.5c.5.4 1 .8 1.6 1l-.8 1.2c-.9-.5-1.6-1.1-2.3-1.9c-.7-.9-1.2-1.8-1.5-2.8c-.2.5-.4 1.1-.7 1.6c-.3.5-.6 1-.9 1.4c-.3.4-.7.8-1.1 1.2c-.4.3-.8.6-1.2.8l-.9-1.1c.6-.3 1.1-.6 1.6-1.1c.5-.5.9-1 1.3-1.6c.3-.6.6-1.2.8-1.9c.3-.6.4-1.3.4-1.9c-.04-.04 0-2 0-2h-3.5V88h8.2v1.1h-3.4zm18.1 4.8h6.2v1.2h-13.8v-1.2h6.2v-1.7h-4.5v-5.1h10.3v1.1h-8.9v2.8h9v1.2H314v1.7zm-.7 2.2c1.6 0 2.9.3 3.8.8c.9.4 1.4 1.1 1.4 2c0 .9-.5 1.6-1.4 2c-.9.5-2.2.7-3.8.7c-1.7 0-3-.2-3.9-.7c-.9-.4-1.4-1.1-1.4-2c0-.9.5-1.6 1.4-2c.9-.5 2.2-.8 3.9-.8zm0 4.5c1.2 0 2.1-.2 2.8-.5c.6-.2.9-.7.9-1.2c0-.5-.3-1-.9-1.2c-.7-.3-1.6-.5-2.8-.5c-1.3 0-2.2.2-2.9.5c-.6.2-1 .7-1 1.2c0 .5.4 1 1 1.2c.7.3 1.6.5 2.9.5zm22.9-7.9v1.1h-2.6v7.8h-1.4V86.4h1.4v6.3h2.6zm-9.2-2.5s.01 1.15 0 1.1c0 .7.1 1.3.3 1.9c.2.6.4 1.1.7 1.7c.4.5.8 1 1.2 1.4c.5.4 1 .8 1.5 1l-.8 1.1c-.8-.4-1.5-1-2.2-1.7c-.6-.8-1-1.7-1.4-2.7c-.3 1.1-.8 2-1.4 2.8c-.7.9-1.5 1.5-2.3 1.9l-.8-1c.5-.3 1-.7 1.5-1.1c.5-.5.9-1 1.2-1.5c.4-.6.7-1.2.8-1.8c.2-.6.3-1.3.3-2c.03.05 0-1.1 0-1.1h-3.4V89h3.4v-2.3h1.4v2.3h3.4v1.2H327zm21-.7c.04.05 0-.3 0-.3h-9V88h10.4s.02 1.55 0 1.5v1.6c0 .5 0 1-.1 1.7c0 .6-.1 1.2-.1 1.9c-.1.7-.2 1.4-.4 2.3l-1.4-.2c.3-1.5.5-2.9.6-4.1v-3.2zm-10.5 8.8h13.8v1.1h-13.8v-1.1zm26.2-9.1v-1.4h-8.9v-1.1h10.3v3.5h-8.9v1.5h9.2v1h-10.6v-3.5h8.9zM353 93.9h13.8v1.2h-6.2v1.9h-1.4v-1.9H353v-1.2zm10.7 3.8V96h1.4v5.4h-10.3V96h1.4v1.7h7.5zm0 2.7v-1.6h-7.5v1.6h7.5zm11.8-7.4c-.9 0-1.6-.1-2.2-.2c-.7-.1-1.3-.3-1.7-.6c-.5-.3-.9-.6-1.1-1c-.3-.3-.4-.8-.4-1.2c0-.5.1-.9.4-1.3c.2-.4.6-.7 1.1-1c.4-.2 1-.4 1.7-.6c.6-.1 1.3-.2 2.2-.2c.8 0 1.5.1 2.2.2c.6.2 1.2.4 1.7.6c.4.3.8.6 1 1c.3.4.4.8.4 1.3c0 .4-.1.9-.4 1.2c-.2.4-.6.7-1 1c-.5.3-1.1.5-1.7.6c-.7.1-1.4.2-2.2.2zm0-5c-1.2 0-2.2.2-2.9.6c-.7.3-1.1.8-1.1 1.4c0 .6.4 1.1 1.1 1.4c.7.3 1.7.5 2.9.5c1.2 0 2.1-.2 2.8-.5c.7-.3 1.1-.8 1.1-1.4c0-.6-.4-1.1-1.1-1.4c-.7-.4-1.6-.6-2.8-.6zm-6.9 6.4h13.7v1.1h-13.7v-1.1zm3.1 2.5v3.3h9.1v1.1h-10.5v-4.4h1.4zm23.8 1.6h6.2v1.2h-13.8v-1.2h6.1v-3.7h-4.5v-7.1H400v7.1h-4.5v3.7zm-4.7-9.7v4.9h7.8v-4.9h-7.8zm24.8 2.5v1.1h-10.5V87h10.4v1.2h-9v3.1h9.1zm-12.2 2.8h13.8v1.1h-13.8v-1.1zm3.2 2.7v3.4h9.2v1.1h-10.6v-4.5h1.4zm28.6-10.4v11.2h-1.4V86.4h1.4zm-4.2 4.8c0 .6-.1 1.1-.3 1.5c-.2.5-.5.9-.8 1.2c-.4.4-.8.6-1.3.8c-.5.2-1 .3-1.6.3c-.6 0-1.1-.1-1.6-.3c-.4-.2-.9-.4-1.2-.8c-.4-.3-.7-.7-.9-1.2c-.2-.4-.3-.9-.3-1.5c0-.5.1-1 .3-1.5c.2-.5.5-.8.9-1.2c.3-.3.8-.6 1.2-.8c.5-.1 1-.2 1.6-.2c.6 0 1.1.1 1.6.2c.5.2.9.5 1.3.8c.3.4.6.7.8 1.2c.2.5.3 1 .3 1.5zm-6.6 0c0 .4.1.7.2 1c.1.4.3.6.5.9c.3.2.6.4.9.5c.3.1.6.2 1 .2c.4 0 .7-.1 1.1-.2c.3-.1.6-.3.8-.5c.2-.3.4-.5.5-.9c.2-.3.2-.6.2-1c0-.4 0-.7-.2-1c-.1-.3-.3-.6-.5-.8c-.2-.2-.5-.4-.8-.5c-.4-.2-.7-.2-1.1-.2c-.4 0-.7 0-1 .2c-.3.1-.6.3-.9.5c-.2.2-.4.5-.5.8c-.1.3-.2.6-.2 1zm2.4 9h8.9v1.1h-10.3v-4.9h1.4v3.8zM449 89.9v-1.8h-9.1V87h10.5v3.9h-9.1v1.9h9.4v1.1h-10.8v-4h9.1zm3.1 5.6v1.1h-3.6v5.1h-1.4v-5.1h-3.9v5.1h-1.4v-5.1h-3.6v-1.1h13.9zm15.9-2.9v1.1h-2.5v7.9h-1.4V86.4h1.4v6.2h2.5zM454.6 88s6.98.03 7 0c0 1.1-.1 2.2-.4 3.2c-.3 1-.7 2-1.2 2.9c-.6.9-1.3 1.8-2.2 2.6c-.8.7-1.9 1.4-3.1 2.1l-.8-1.1c2-1 3.5-2.2 4.5-3.6c1.1-1.4 1.6-3.1 1.8-4.9h-5.6V88zm29.6-1.6h1.4v15.3h-1.4v-8.6h-4.3v-1.2h4.3v-5.5zm-9 2.6s.03 7.74 0 7.7h1.9c.6 0 1.1 0 1.7-.1c.5 0 1 0 1.5-.1l1.5-.3l.1 1.2c-.5.1-1 .2-1.6.3c-.5 0-1 .1-1.6.1c-.5 0-1.1.1-1.7.1h-3.2V87.8h7v1.2h-5.6zm26.7 2.7v3.8h-1.3v-8.8h1.3v3.8h2v-4.1h1.3v9.7h-1.3v-4.4h-2zm-1.9-3.5v1.1h-7.7v-1.1h3.2v-1.7h1.3v1.7h3.2zm-.6 4.5c0 .4-.1.8-.2 1.1c-.2.3-.4.6-.7.8c-.3.3-.6.4-1 .6c-.4.1-.9.1-1.3.1c-.5 0-1 0-1.4-.1c-.4-.2-.7-.3-1-.6c-.3-.2-.5-.5-.7-.8c-.1-.3-.2-.7-.2-1.1c0-.4.1-.7.2-1c.2-.4.4-.6.7-.9c.3-.2.6-.4 1-.5c.4-.1.9-.2 1.4-.2c.4 0 .9.1 1.3.2c.4.1.7.3 1 .5c.3.3.5.5.7.9c.1.3.2.6.2 1zm-5.2 0c0 .5.1.9.5 1.2c.4.3.8.4 1.5.4c.6 0 1.1-.1 1.4-.4c.4-.3.6-.7.6-1.2c0-.5-.2-.8-.6-1.1c-.3-.3-.8-.4-1.4-.4c-.7 0-1.1.1-1.5.4c-.4.3-.5.6-.5 1.1zm6 3.6c1.6 0 2.8.2 3.7.7c1 .5 1.4 1.1 1.4 2c0 .8-.4 1.5-1.4 1.9c-.9.5-2.1.7-3.7.7c-1.6 0-2.8-.2-3.7-.7c-.9-.4-1.4-1.1-1.4-1.9c0-.9.5-1.5 1.4-2c.9-.5 2.1-.7 3.7-.7zm0 4.3c1.2 0 2.1-.2 2.7-.4c.7-.3 1-.7 1-1.2c0-.5-.3-.9-1-1.2c-.6-.3-1.5-.4-2.7-.4c-1.2 0-2.1.1-2.7.4c-.7.3-1 .7-1 1.2c0 .5.3.9 1 1.2c.6.2 1.5.4 2.7.4zm15.3-6.3h6.2v1.1h-13.8v-1.1h6.2v-1.8h-4.4v-5.7h1.4v1.7h7.4v-1.7h1.4v5.7h-4.4v1.8zm-4.4-4.7v1.7h7.4v-1.7h-7.4zm-1.7 8.4v-1.1H520v4.7h-1.4V98h-9.2zM535 86.4h1.4v15.2H535V94h-1.9v6.9h-1.3V86.7h1.3v6.1h1.9v-6.4zm-7.1.4v2.2h3.1v1.1h-7.6V89h3.1v-2.2h1.4zm-.7 4.4c.5 0 .9 0 1.3.2c.4.2.8.4 1.1.7c.3.3.5.7.7 1.1c.1.5.2.9.2 1.4c0 .6-.1 1-.2 1.4c-.2.5-.4.8-.7 1.1c-.3.4-.7.6-1.1.8c-.4.1-.8.2-1.3.2c-.4 0-.9-.1-1.3-.2c-.4-.2-.7-.4-1-.8c-.3-.3-.5-.6-.7-1.1c-.1-.4-.2-.8-.2-1.4c0-.5.1-.9.2-1.4c.2-.4.4-.8.7-1.1c.3-.3.6-.5 1-.7c.4-.2.9-.2 1.3-.2zm0 5.8c.6 0 1.1-.3 1.5-.7c.4-.4.6-1 .6-1.7c0-.3-.1-.6-.2-.9c-.1-.3-.2-.5-.4-.7c-.2-.2-.4-.4-.6-.5c-.3-.1-.6-.2-.9-.2c-.6 0-1.1.2-1.4.7c-.4.4-.6.9-.6 1.6c0 .7.2 1.3.6 1.7c.4.4.8.7 1.4.7zm24.3-10.6v7.9h-1.4v-7.9h1.4zm-3.1 6.5l-.7 1.1c-.9-.3-1.7-.7-2.3-1.3c-.7-.5-1.2-1.2-1.6-2c-.3.9-.8 1.6-1.5 2.2c-.7.6-1.5 1.1-2.4 1.4l-.7-1.1c.6-.1 1.1-.4 1.6-.7c.5-.3.9-.7 1.2-1.1c.3-.4.6-.9.8-1.3c.2-.5.3-1 .3-1.5c-.02-.04 0-.2 0-.2h-3.5v-1.1h8.4v1.1h-3.5v.2c0 .4.1.9.3 1.4c.2.4.4.8.8 1.2c.3.4.7.7 1.2 1c.5.3 1 .6 1.6.7zm-5.3 7.5h8.9v1.1h-10.3v-3.8h8.5v-1.6h-8.5v-1h9.8v3.6h-8.4v1.7zm28.3-8.2l-.6 1.1c-.5-.1-1.1-.2-1.7-.4c-.6-.2-1.1-.5-1.6-.8c-.5-.3-.9-.7-1.3-1c-.4-.4-.8-.9-1-1.3c-.2.4-.6.9-1 1.3c-.4.3-.8.7-1.3 1c-.5.3-1 .6-1.6.8c-.6.2-1.1.3-1.7.4l-.6-1.1c.7-.1 1.4-.3 2-.5c.7-.3 1.3-.6 1.8-1c.5-.4.9-.9 1.2-1.3c.3-.5.5-1.1.5-1.6c-.03-.01 0-.9 0-.9h1.4s.03.89 0 .9c0 .5.2 1 .5 1.5c.3.5.7 1 1.2 1.4c.6.3 1.1.7 1.8 1c.7.2 1.3.4 2 .5zm.7 2.8v1.1h-6.2v5.6h-1.4v-5.6h-6.2V95h13.8zm18-8.6v8.7h-1.4v-8.7h1.4zm-8.2 8c-.6 0-1.1-.1-1.6-.2c-.5-.2-.9-.5-1.2-.8c-.4-.3-.7-.7-.9-1.1c-.2-.4-.3-.9-.3-1.4c0-.6.1-1.1.3-1.5c.2-.4.5-.8.9-1.1c.3-.3.7-.6 1.2-.7c.5-.2 1-.3 1.6-.3c.6 0 1.1.1 1.6.3c.5.1.9.4 1.3.7c.3.3.6.7.8 1.1c.2.4.3.9.3 1.5c0 .5-.1 1-.3 1.4c-.2.4-.5.8-.8 1.1c-.4.3-.8.6-1.3.8c-.5.1-1 .2-1.6.2zm0-5.9c-.4 0-.7 0-1.1.1c-.3.2-.6.3-.8.5c-.2.2-.4.5-.5.8c-.1.3-.2.6-.2 1c0 .3.1.6.2.9c.1.3.3.6.5.8c.2.2.5.4.8.5c.4.1.7.2 1.1.2c.4 0 .7-.1 1-.2c.4-.1.6-.3.9-.5c.2-.2.4-.5.5-.8c.2-.3.2-.6.2-.9c0-.4 0-.7-.2-1c-.1-.3-.3-.6-.5-.8c-.3-.2-.5-.3-.9-.5c-.3-.1-.6-.1-1-.1zm6.5 7.3v.8c0 .4.1.8.2 1.2c.1.4.3.7.6 1.1c.2.3.6.6.9.9c.4.2.9.4 1.3.6l-.7 1c-.7-.2-1.3-.6-1.8-1.1c-.6-.5-1-1.1-1.2-1.7c-.2.6-.6 1.2-1.1 1.7c-.4.6-1 1-1.7 1.3c-.8-.3-1.4-.7-1.8-1.2c-.5-.5-.8-1.1-1.1-1.8c-.2.6-.6 1.2-1.1 1.7c-.6.5-1.2.9-1.9 1.1l-.7-1c.5-.2.9-.4 1.3-.7c.4-.3.7-.6 1-.9c.2-.3.4-.7.6-1.1c.1-.4.2-.7.2-1.1c-.02 0 0-.8 0-.8h1.3s.02.8 0 .8c0 .7.2 1.3.5 2c.4.7.9 1.2 1.6 1.6c.4-.2.7-.5 1-.8c.3-.3.5-.6.7-.9c.2-.3.3-.6.4-1c.1-.3.1-.6.1-.9c.03 0 0-.8 0-.8h1.4zm12.3 2.8h6.3v1.1h-13.9v-1.1h6.2v-3.9h-4.4v-7.1h10.3v1.2h-8.9v4.7h9.1v1.2h-4.7v3.9zm15.6-3.8h6.2v1.1h-13.8v-1.1h6.2v-1.6h-4.4v-3.7h8.9v-1.6h-9v-1.1h10.3v3.7h-8.9v1.6h9.3v1.1h-4.8v1.6zm-6.1 3.4v-1.1h10.6v4.4h-1.4v-3.3h-9.2zm29.5-6.1c-.03-.02 2.1 0 2.1 0v1.1H628v-1.1s10.28-.02 10.3 0c.2-.9.3-1.6.3-2.2v-1.7c.04-.03-8.9 0-8.9 0V87H640v2.8c-.1.7-.2 1.4-.3 2.3zm-8.7 6.5v1.8h9.4v1.1h-10.8v-4h9.1v-1.7h-9.1v-1.1h10.5v3.9H631zm20.1 0h6.3v1.2h-13.9v-1.2h6.2v-2.8h-4.5V91h9.1v-2.3h-9.1v-1.2h10.4v4.7h-9v2.4h9.4v1.2h-4.9v2.8zm15.6-7.7v2.8h-6.9v-6.6h1.4v2.2h4.1v-2.2h1.4v2.7h3.5v-3.4h1.4v7.9h-1.4v-3.4h-3.5zm-1.4 1.7v-2.2h-4.1v2.2h4.1zm-2.1 7.7h9v1.1h-10.4v-3.7h8.4v-1.5h-8.4v-1.1h9.8v3.6h-8.4v1.6zm26.3-13.9h1.4v15.3h-1.4V86.4zm-8.9 6.9s.03 3.52 0 3.5c1.3 0 2.5 0 3.7-.1c1.2-.1 2.4-.2 3.7-.4l.2 1.1l-2 .3c-.7.1-1.3.1-1.9.2c-.6 0-1.3 0-1.9.1h-1.9c-.01-.02-1.3 0-1.3 0v-5.9h5.6V89h-5.6v-1.2h7.1v5.5h-5.7zm25.8-6.9v9.4H705v-9.4h1.4zm-2.9 6.2l.1 1.1c-.5.2-1.1.3-1.6.3c-.6.1-1.1.2-1.7.2c-.6 0-1.3.1-1.9.1h-3.6v-6.7h7.2v1.1h-5.8s.02 4.45 0 4.4h4c.6-.1 1.2-.1 1.7-.2c.5-.1 1-.2 1.6-.3zm-2.1 3.2c.7 0 1.4.1 2.1.2c.6.1 1.1.3 1.6.6c.4.2.8.5 1 .9c.2.3.4.8.4 1.2c0 .5-.2.9-.4 1.3c-.2.3-.6.6-1 .9c-.5.2-1 .4-1.6.6c-.7.1-1.4.1-2.1.1c-.8 0-1.5 0-2.2-.1c-.6-.2-1.1-.4-1.6-.6c-.4-.3-.8-.6-1-.9c-.2-.4-.4-.8-.4-1.3c0-.4.2-.9.4-1.2c.2-.4.6-.7 1-.9c.5-.3 1-.5 1.6-.6c.7-.1 1.4-.2 2.2-.2zm0 4.7c1.1 0 2-.1 2.7-.4c.6-.3 1-.8 1-1.4c0-.6-.4-1-1-1.3c-.7-.3-1.6-.5-2.7-.5c-1.2 0-2.1.2-2.8.5c-.7.3-1 .7-1 1.3c0 .6.3 1.1 1 1.4c.7.3 1.6.4 2.8.4zm19.2-14.1h1.4v15.2h-1.4V86.4zM710.4 88s7.1.05 7.1 0c0 1.1-.1 2.2-.4 3.2c-.3 1.1-.7 2-1.2 2.9c-.6 1-1.3 1.8-2.2 2.6c-.9.8-2 1.5-3.3 2.1l-.7-1.1c2-1 3.6-2.2 4.6-3.6c1-1.5 1.6-3.1 1.8-4.9c-.01-.03-5.7 0-5.7 0V88zm25.8-1.6h1.4v8.2h-1.4v-3.4s-3.13-.02-3.1 0c-.2.9-.6 1.6-1.3 2.2c-.7.5-1.6.8-2.6.8c-.6 0-1.1-.1-1.6-.3c-.5-.2-.9-.4-1.2-.7c-.4-.3-.7-.7-.9-1.1c-.1-.5-.2-.9-.2-1.5c0-.5.1-1 .2-1.4c.2-.4.5-.8.9-1.1c.3-.3.7-.6 1.2-.7c.5-.2 1-.3 1.6-.3c.5 0 1 .1 1.4.2l1.2.6c.3.3.6.6.8.9c.2.4.4.8.5 1.2c-.04.04 3.1 0 3.1 0v-3.6zm-7 6.6c.4 0 .7 0 1-.2c.3-.1.6-.2.8-.5c.3-.2.5-.4.6-.7c.1-.3.2-.6.2-1c0-.3-.1-.6-.2-.9c-.1-.3-.3-.6-.6-.8c-.2-.2-.5-.3-.8-.5c-.3-.1-.6-.1-1-.1c-.4 0-.7 0-1.1.1c-.3.2-.6.3-.8.5c-.2.2-.4.5-.5.8c-.2.3-.2.6-.2.9c0 .4 0 .7.2 1c.1.3.3.5.5.7c.2.3.5.4.8.5c.4.2.7.2 1.1.2zm7 4.3v-2h1.4v6.1h-9.8v-6.1h1.4v2h7zm0 3v-1.9h-7v1.9h7zm11.3-12.9c.7 0 1.5.1 2.2.3c.6.2 1.2.4 1.7.8c.5.4.9.8 1.2 1.3c.3.6.4 1.1.4 1.8c0 .6-.1 1.2-.4 1.7c-.3.5-.7 1-1.2 1.3c-.5.4-1.1.7-1.7.9c-.7.2-1.5.3-2.2.3c-.8 0-1.6-.1-2.2-.3c-.7-.2-1.3-.5-1.8-.9c-.5-.3-.9-.8-1.2-1.3c-.2-.5-.4-1.1-.4-1.7c0-.7.2-1.2.4-1.8c.3-.5.7-.9 1.2-1.3c.5-.4 1.1-.6 1.8-.8c.6-.2 1.4-.3 2.2-.3zm0 1.1c-.6 0-1.2.1-1.7.2c-.5.2-1 .4-1.4.6c-.3.3-.6.6-.8 1c-.3.4-.4.8-.4 1.3c0 .4.1.9.4 1.2c.2.4.5.7.8 1c.4.3.9.5 1.4.6c.5.2 1.1.2 1.7.2c.6 0 1.1 0 1.6-.2c.5-.1 1-.3 1.4-.6c.3-.3.6-.6.8-1c.3-.3.4-.8.4-1.2c0-.5-.1-.9-.4-1.3c-.2-.4-.5-.7-.8-1c-.4-.2-.9-.4-1.4-.6c-.5-.1-1-.2-1.6-.2zm-6.9 10h13.8v1.1h-13.8v-1.1zm23.1.1h6.3v1.2h-13.9v-1.2h6.2v-2.8h-4.5V91h9.1v-2.3h-9.1v-1.2h10.4v4.7h-9v2.4h9.4v1.2h-4.9v2.8zm19.1-12.2h1.4v15.3h-1.4v-9h-3.5v-1.1h3.5v-5.2zm-5.8 1.3s.02 2.75 0 2.7c0 .7.1 1.4.3 2.1c.2.7.5 1.3.9 1.9c.3.6.7 1.1 1.2 1.6c.5.4 1 .8 1.6 1l-.9 1.1c-.8-.4-1.6-1-2.2-1.9c-.7-.9-1.2-1.8-1.6-2.9c-.3 1.2-.8 2.2-1.5 3.1c-.6.9-1.4 1.6-2.3 2l-.8-1.1c.5-.3 1.1-.6 1.5-1.1c.5-.5.9-1.1 1.3-1.7c.3-.6.6-1.2.8-1.9c.2-.7.3-1.5.3-2.2c.02.05 0-2.7 0-2.7h1.4zm21.3-1.3h1.4v15.3h-1.4V86.4zm-6.1 1.1c.6 0 1.1.1 1.6.3c.5.2 1 .4 1.3.7c.4.3.7.7.9 1.1c.2.5.3 1 .3 1.5c0 .5-.1 1-.3 1.5c-.2.4-.5.8-.9 1.1c-.3.3-.8.6-1.3.7c-.5.2-1 .3-1.6.3c-.6 0-1.2-.1-1.7-.3c-.4-.1-.9-.4-1.2-.7c-.4-.3-.7-.7-.9-1.1c-.2-.5-.3-1-.3-1.5c0-.5.1-1 .3-1.5c.2-.4.5-.8.9-1.1c.3-.3.8-.5 1.2-.7c.5-.2 1.1-.3 1.7-.3zm0 1.2c-.4 0-.8.1-1.1.2c-.3.1-.6.3-.9.5c-.2.2-.4.4-.5.7c-.2.3-.2.6-.2 1c0 .4 0 .7.2 1c.1.3.3.5.5.7c.3.2.6.4.9.5c.3.1.7.2 1.1.2c.4 0 .7-.1 1.1-.2c.3-.1.6-.3.8-.5c.3-.2.5-.4.6-.7c.1-.3.2-.6.2-1c0-.4-.1-.7-.2-1c-.1-.3-.3-.5-.6-.7c-.2-.2-.5-.4-.8-.5c-.4-.1-.7-.2-1.1-.2zm-4.7 9.6l-.2-1.1c.7 0 1.5 0 2.3-.1h2.5c.8-.1 1.7-.1 2.6-.2c.9 0 1.7-.1 2.6-.3l.1 1.1c-.9.1-1.7.3-2.6.3c-.9.1-1.8.2-2.6.2c-.9.1-1.7.1-2.5.1h-2.2z" stroke="none" fill="#fff"/></g><g id="Polygon109029"><path d="m2.9 59.5v1.9H1.1s-.03-1.88 0-1.9c0-.6.1-1.1.3-1.5c.2-.3.4-.5.6-.7c.3-.1.6-.2.9-.2v.8c-.2 0-.4.1-.5.2c-.1.1-.2.2-.3.4c-.1.1-.1.3-.1.5c-.1.2-.1.4-.1.5c.02.02 1 0 1 0zm14.1-.7v5.9H6.7v-5.9H17zm-1.4 4.8v-3.7H8v3.7h7.6zm3.1 3.2v1.1h-6.2v5.2h-1.4v-5.2H4.9v-1.1h13.8zm10.8-7v1.1h-9v-1.1h3.8v-1.9h1.4v1.9h3.8zm2.8 3.1h2.3v1.2h-2.3v5.2h-1.4V57.9h1.4v5zm-3.6 1.7c0 .4-.1.8-.3 1.1c-.2.4-.4.7-.7.9c-.4.3-.8.5-1.2.6c-.5.1-.9.2-1.5.2c-.5 0-1-.1-1.5-.2c-.4-.1-.8-.3-1.1-.6c-.3-.2-.6-.5-.8-.9c-.1-.3-.2-.7-.2-1.1c0-.5.1-.9.2-1.2c.2-.3.5-.6.8-.9c.3-.2.7-.4 1.1-.6c.5-.1 1-.2 1.5-.2c.6 0 1 .1 1.5.2l1.2.6c.3.3.5.6.7.9c.2.3.3.7.3 1.2zm-6 0c0 .5.2.9.6 1.2c.4.4 1 .5 1.7.5c.7 0 1.3-.1 1.7-.5c.4-.3.6-.7.6-1.2c0-.6-.2-1-.6-1.3c-.4-.3-1-.5-1.7-.5c-.7 0-1.3.2-1.7.5c-.4.3-.6.7-.6 1.3zm1.5 3.8v3.3h8.8v1.1H22.8v-4.4h1.4zm23.3-10.5h1.4v9.4h-1.4v-4.2h-1.9v4.1h-1.3v-9h1.3v3.8h1.9v-4.1zm-3.9 7.6l-.6 1c-.8-.3-1.4-.7-1.9-1.2c-.6-.6-.9-1.2-1.2-1.9c-.3.8-.7 1.5-1.2 2c-.5.6-1.1 1.1-1.9 1.4l-.7-1c.5-.2 1-.5 1.3-.8c.4-.3.7-.7 1-1.1c.3-.4.5-.8.6-1.3c.1-.4.2-.9.2-1.4v-.2h-2.8v-1.1h2.8v-1.8h1.3v1.8h2.7v1.1h-2.7s.03.2 0 .2c0 .4.1.9.2 1.3c.2.5.4.9.7 1.2c.2.4.5.7.9 1c.4.3.8.6 1.3.8zm-5 3.7v-1.1h10.3v5h-1.4v-3.9h-8.9zm24.1-11.3h1.4v8.7h-1.4v-8.7zm-6.8.8c.6 0 1.1.1 1.6.3c.5.1.9.4 1.3.7c.3.3.6.7.8 1.1c.2.5.3.9.3 1.5c0 .5-.1 1-.3 1.4c-.2.4-.5.8-.8 1.1c-.4.4-.8.6-1.3.8c-.5.1-1 .2-1.6.2c-.6 0-1.1-.1-1.6-.2c-.5-.2-.9-.4-1.2-.8c-.4-.3-.7-.7-.9-1.1c-.2-.4-.3-.9-.3-1.4c0-.6.1-1 .3-1.5c.2-.4.5-.8.9-1.1c.3-.3.7-.6 1.2-.7c.5-.2 1-.3 1.6-.3zm0 1.2c-.4 0-.7 0-1 .2c-.4.1-.6.2-.9.4c-.2.3-.4.5-.5.8c-.1.3-.2.6-.2 1c0 .3.1.6.2.9c.1.3.3.6.5.8c.3.2.5.4.9.5c.3.1.6.2 1 .2c.4 0 .7-.1 1.1-.2c.3-.1.6-.3.8-.5c.2-.2.4-.5.5-.8c.2-.3.2-.6.2-.9c0-.4 0-.7-.2-1c-.1-.3-.3-.5-.5-.8c-.2-.2-.5-.3-.8-.4c-.4-.2-.7-.2-1.1-.2zm-1.7 7.6h9.9v5.4h-9.9v-5.4zm8.5 1.1h-7.1v3.2h7.1v-3.2zM79 61.9h3v-4h1.4v9.1H82v-4h-3v-1.1zm.8 3.4l-.6 1.1c-.9-.3-1.6-.7-2.3-1.3c-.6-.6-1.1-1.3-1.4-2.1c-.3.9-.8 1.6-1.5 2.3c-.7.7-1.5 1.2-2.4 1.6l-.7-1.1c.6-.2 1.1-.5 1.6-.9c.4-.3.8-.7 1.2-1.2c.3-.4.6-.9.8-1.4c.2-.6.2-1.1.2-1.6c.05-.03 0-.6 0-.6h-3.4V59h8.2v1.1h-3.4s.04.57 0 .6c0 .5.1.9.3 1.4c.2.5.4.9.8 1.4c.3.4.7.7 1.1 1.1c.5.3 1 .5 1.5.7zm-1.4 2.2c.8 0 1.5 0 2.1.2c.6.1 1.2.3 1.6.5c.4.3.8.6 1 .9c.2.4.4.8.4 1.2c0 .5-.2.9-.4 1.2c-.2.4-.6.7-1 .9c-.4.3-1 .4-1.6.6c-.6.1-1.3.1-2.1.1c-.8 0-1.5 0-2.1-.1c-.7-.2-1.2-.3-1.6-.6c-.5-.2-.8-.5-1-.9c-.3-.3-.4-.7-.4-1.2c0-.4.1-.8.4-1.2c.2-.3.5-.6 1-.9c.4-.2.9-.4 1.6-.5c.6-.2 1.3-.2 2.1-.2zm0 4.6c1.2 0 2.1-.2 2.7-.5c.7-.3 1-.7 1-1.3c0-.5-.3-1-1-1.3c-.6-.3-1.5-.5-2.7-.5c-1.2 0-2.1.2-2.7.5c-.7.3-1 .8-1 1.3c0 .6.3 1 1 1.3c.6.3 1.5.5 2.7.5zm20.5-14.2v11.2h-1.4V57.9h1.4zm-3.3 7.6l-.7 1.1c-.9-.3-1.7-.8-2.3-1.5c-.7-.6-1.2-1.4-1.5-2.3c-.3 1-.8 1.8-1.5 2.5c-.6.7-1.4 1.2-2.3 1.6l-.7-1.1c.5-.2 1.1-.5 1.5-.9c.5-.4.9-.8 1.2-1.3c.4-.5.6-1 .8-1.6c.2-.5.3-1.1.3-1.7v-1.5h1.4s-.02 1.5 0 1.5c0 .6.1 1.1.3 1.7c.2.5.4 1 .7 1.5c.4.4.8.8 1.3 1.2c.4.3.9.6 1.5.8zm-5.1 6.2h8.9v1.1H89.1V68h1.4v3.7zm11.8-12.9v-1.9h1.8v1.9c0 .3 0 .6-.1.9c-.1.3-.2.5-.3.8c-.2.2-.3.4-.6.5c-.2.2-.5.2-.8.2v-.8c.2 0 .3 0 .5-.1c.1-.2.2-.3.3-.5c0-.1.1-.3.1-.5v-.5h-.9zm10.6 4.6c-1.7 0-3-.2-4-.6c-.9-.5-1.4-1.1-1.4-2c0-.9.5-1.5 1.4-2c1-.4 2.3-.6 4-.6c1.6 0 3 .2 3.9.6c.9.5 1.4 1.1 1.4 2c0 .9-.5 1.5-1.4 2c-.9.4-2.3.6-3.9.6zm0-4.2c-1.3 0-2.3.1-3 .4c-.6.3-1 .7-1 1.2c0 .5.4.9 1 1.2c.7.3 1.7.4 3 .4c1.2 0 2.2-.1 2.9-.4c.7-.3 1-.7 1-1.2c0-.5-.3-.9-1-1.2c-.7-.3-1.7-.4-2.9-.4zm-6.9 5.3h13.8v1.1H106v-1.1zm3 5.8v1.6h9.5v1.1h-10.8v-3.7h8.9V68h-9v-1.1H118v3.4h-9zm30.5-6.4v1.2H137v8h-1.4V57.9h1.4v6h2.5zm-7.9-.7v-4h1.4v10.3h-7.1V59.2h1.3v4h4.4zm0 5.1v-4h-4.4v4h4.4zm21-6.5h2.3v1.2h-2.3v4.3h-1.4v-9.4h1.4v3.9zm-3.1 2.9l.1 1.1c-.5.1-1 .2-1.5.2c-.5.1-1 .1-1.6.2h-3.8c-.04.05-1.2 0-1.2 0V59h7v1.1h-5.6v1.9h5.3v1.1h-5.3v2h2c.6 0 1.1 0 1.6-.1c.5 0 1 0 1.5-.1c.5-.1 1-.1 1.5-.2zm-1.7 3c1.6 0 2.8.2 3.7.7c.9.5 1.3 1.1 1.3 2c0 .9-.4 1.6-1.3 2c-.9.5-2.1.7-3.7.7c-1.5 0-2.8-.2-3.7-.7c-.9-.4-1.3-1.1-1.3-2c0-.9.4-1.5 1.3-2c.9-.5 2.2-.7 3.7-.7zm0 4.4c1.1 0 2-.2 2.7-.5c.6-.2 1-.7 1-1.2c0-.5-.4-.9-1-1.2c-.7-.3-1.6-.5-2.7-.5c-1.1 0-2 .2-2.7.5c-.6.3-.9.7-.9 1.2c0 .5.3 1 .9 1.2c.7.3 1.6.5 2.7.5zm15.5-13.2c.7 0 1.5.1 2.2.3c.6.2 1.2.4 1.7.8c.5.4.9.8 1.2 1.3c.3.6.4 1.1.4 1.8c0 .6-.1 1.2-.4 1.7c-.3.5-.7 1-1.2 1.3c-.5.4-1.1.7-1.7.9c-.7.2-1.5.3-2.2.3c-.8 0-1.6-.1-2.3-.3c-.6-.2-1.2-.5-1.7-.9c-.5-.3-.9-.8-1.2-1.3c-.2-.5-.4-1.1-.4-1.7c0-.7.2-1.2.4-1.8c.3-.5.7-.9 1.2-1.3c.5-.4 1.1-.6 1.7-.8c.7-.2 1.5-.3 2.3-.3zm0 1.1c-.7 0-1.2.1-1.7.2c-.5.2-1 .4-1.4.6c-.3.3-.6.6-.8 1c-.3.4-.4.8-.4 1.3c0 .4.1.9.4 1.2c.2.4.5.7.8 1c.4.3.9.5 1.4.6c.5.2 1 .2 1.7.2c.6 0 1.1 0 1.6-.2c.5-.1 1-.3 1.4-.6c.3-.3.6-.6.8-1c.3-.3.4-.8.4-1.2c0-.5-.1-.9-.4-1.3c-.2-.4-.5-.7-.8-1c-.4-.2-.9-.4-1.4-.6c-.5-.1-1-.2-1.6-.2zm-7 10h13.9v1.1h-13.9V70zm23.2.1h6.3v1.2h-13.9v-1.2h6.2v-2.8h-4.5v-4.8h9.1v-2.3h-9.1V59H184v4.7h-9v2.4h9.4v1.2h-4.9v2.8zm13.7-10.6v1.9h-1.8s-.03-1.88 0-1.9c0-.6.1-1.1.3-1.5c.2-.3.4-.5.6-.7c.3-.1.6-.2.9-.2v.8c-.2 0-.4.1-.5.2c-.1.1-.2.2-.3.4c-.1.1-.1.3-.1.5c-.1.2-.1.4-.1.5c.02.02 1 0 1 0zm14.5-1.6v11.2h-1.4V57.9h1.4zm-4.2 4.8c0 .6-.1 1.1-.3 1.5c-.2.5-.5.9-.8 1.2c-.4.4-.8.6-1.3.8c-.5.2-1 .3-1.6.3c-.5 0-1.1-.1-1.5-.3c-.5-.2-.9-.4-1.3-.8c-.4-.3-.6-.7-.8-1.2c-.2-.4-.3-.9-.3-1.5c0-.5.1-1 .3-1.5c.2-.5.4-.8.8-1.2c.4-.3.8-.6 1.3-.8c.4-.1 1-.2 1.5-.2c.6 0 1.1.1 1.6.2c.5.2.9.5 1.3.8c.3.4.6.7.8 1.2c.2.5.3 1 .3 1.5zm-6.6 0c0 .4.1.7.2 1c.2.4.3.6.6.9c.2.2.5.4.8.5c.3.1.7.2 1 .2c.4 0 .8-.1 1.1-.2c.3-.1.6-.3.8-.5c.3-.3.4-.5.6-.9c.1-.3.2-.6.2-1c0-.4-.1-.7-.2-1c-.2-.3-.3-.6-.6-.8c-.2-.2-.5-.4-.8-.5c-.3-.2-.7-.2-1.1-.2c-.3 0-.7 0-1 .2c-.3.1-.6.3-.8.5c-.3.2-.4.5-.6.8c-.1.3-.2.6-.2 1zm2.4 9h8.9v1.1h-10.3v-4.9h1.4v3.8zm22.2-10.3v-1.8h-9.1v-1.1h10.5v3.9h-9.1v1.9h9.5v1.1h-10.9v-4h9.1zm3.1 5.6v1.1H221v5.1h-1.4v-5.1h-3.9v5.1h-1.3v-5.1h-3.7V67h13.9zm13.3-9.1h1.4v15.2h-1.4v-8h-2v7.3h-1.3V58.2h1.3v5.7h2v-6zm-8.1 1.3c.5 0 .9.1 1.3.3c.4.3.8.7 1 1.1c.3.5.5 1 .7 1.7c.1.6.2 1.4.2 2.2c0 .8-.1 1.5-.2 2.2c-.2.6-.4 1.2-.7 1.7c-.2.4-.6.8-1 1c-.4.3-.8.4-1.3.4c-.5 0-1-.1-1.4-.4c-.4-.2-.7-.6-1-1c-.3-.5-.5-1.1-.7-1.7c-.1-.7-.2-1.4-.2-2.2c0-.8.1-1.6.2-2.2c.2-.7.4-1.2.7-1.7c.3-.4.6-.8 1-1.1c.4-.2.9-.3 1.4-.3zm0 9.3c.6 0 1-.3 1.4-1.1c.4-.7.5-1.7.5-2.9c0-1.3-.1-2.2-.5-3c-.4-.7-.8-1-1.4-1c-.7 0-1.1.3-1.5 1c-.3.8-.5 1.7-.5 3c0 1.2.2 2.2.5 2.9c.4.8.8 1.1 1.5 1.1zm22.8-7.9v-1.3h-9v-1h10.3v3.2H245v1.3h9.2v1h-10.6v-3.2h9zM241.9 65h13.8v1h-13.8v-1zm3 5.5v1.4h9.6v1h-10.9v-3.3h9v-1.3h-9.1v-1H254v3.2h-9.1zm30.1-5.1v1.2h-6.3v6.6h-1.4v-6.6h-6.1v-1.2s10.09.05 10.1 0c.2-1.1.4-2 .4-2.9c0-.8.1-1.6.1-2.3c-.04.01 0-.2 0-.2h-8.9v-1.1h10.2s.02 1.31 0 1.3v2.3c-.1.9-.2 1.8-.4 2.9c0 .05 2.3 0 2.3 0zm10.3-5.6v1.1h-8.6v-1.1h3.7v-1.9h1.4v1.9h3.5zm0 2.2h2.6v-4.1h1.4v11.6h-1.4v-3.2h-2.6v-1.1h2.6v-2.1h-2.6V62zm-.8 2.6c0 .5-.1.9-.2 1.2c-.2.4-.5.7-.8.9c-.3.3-.6.5-1 .6c-.5.2-.9.3-1.4.3c-.5 0-1-.1-1.4-.3c-.5-.1-.8-.3-1.1-.6c-.3-.2-.6-.5-.7-.9c-.2-.3-.3-.7-.3-1.2c0-.4.1-.8.3-1.1c.1-.4.4-.7.7-1c.3-.2.6-.4 1.1-.6c.4-.1.9-.2 1.4-.2c.5 0 .9.1 1.4.2c.4.2.7.4 1 .6c.3.3.6.6.8 1c.1.3.2.7.2 1.1zm-5.6 0c0 .6.2 1 .6 1.4c.4.3.9.5 1.6.5c.6 0 1.1-.2 1.5-.5c.4-.4.6-.8.6-1.4c0-.5-.2-.9-.6-1.3c-.4-.3-.9-.5-1.5-.5c-.7 0-1.2.2-1.6.5c-.4.4-.6.8-.6 1.3zm2 7.1h8.7v1.1h-10.1v-4.3h1.4v3.2zm11.7-12.9v-1.9h1.8v1.9c0 .3 0 .6-.1.9c-.1.3-.2.5-.3.8c-.2.2-.3.4-.6.5c-.2.2-.5.2-.8.2v-.8c.2 0 .3 0 .5-.1c.1-.2.2-.3.3-.5c0-.1.1-.3.1-.5v-.5h-.9zm17.9 5.4v1.1H308v7.8h-1.4V57.9h1.4v6.3h2.5zm-9.1-6.1v2.2h3.8v1.2h-9v-1.2h3.8v-2.2h1.4zm-.7 4.6c.6 0 1.1.1 1.5.3c.5.2.9.4 1.2.7c.4.3.6.7.8 1.1c.2.5.3.9.3 1.4c0 .6-.1 1-.3 1.5c-.2.4-.4.8-.8 1.1c-.3.3-.7.5-1.2.7c-.4.2-.9.2-1.5.2c-.5 0-1 0-1.4-.2c-.5-.2-.9-.4-1.2-.7c-.3-.3-.6-.7-.8-1.1c-.2-.5-.2-.9-.2-1.5c0-.5 0-.9.2-1.4c.2-.4.5-.8.8-1.1c.3-.3.7-.5 1.2-.7c.4-.2.9-.3 1.4-.3zm0 5.9c.4 0 .7-.1 1-.2c.3-.1.6-.3.8-.5c.2-.2.3-.4.5-.7c.1-.3.1-.6.1-1c0-.3 0-.6-.1-.9c-.2-.3-.3-.5-.5-.7c-.2-.3-.5-.4-.8-.5c-.3-.2-.6-.2-1-.2c-.3 0-.6 0-.9.2c-.3.1-.6.2-.8.5c-.2.2-.3.4-.5.7c-.1.3-.1.6-.1.9c0 .4 0 .7.1 1c.2.3.3.5.5.7c.2.2.5.4.8.5c.3.1.6.2.9.2zm23.4-6.1v1.1h-10.4v-5.1h1.4v4h9zm-12.3 3.2h13.8v1.1h-13.8v-1.1zm3.2 2.6v3.3h9.1v1.2h-10.5v-4.5h1.4zm27.7-10.4h1.3v15.2h-1.3V57.9zm-3 5.8v-5.4h1.3v14.1h-1.3v-7.5h-3.3v-1.2h3.3zm-6.7-2.8s.05 7.42 0 7.4h1.5c.5 0 .9 0 1.3-.1c.4 0 .8 0 1.2-.1c.4 0 .8-.1 1.2-.2l.1 1.1l-1.3.3c-.4 0-.8.1-1.3.1c-.4 0-.9 0-1.4.1h-1.6c-.04-.02-1 0-1 0v-9.7h5.7v1.1H333zm28.5-3h1.4v15.2h-1.4V57.9zm-10.2 1.6s7.13.05 7.1 0c0 1.1-.1 2.2-.4 3.2c-.2 1.1-.6 2-1.2 2.9c-.6 1-1.3 1.8-2.2 2.6c-.9.8-2 1.5-3.3 2.1l-.7-1.1c2-1 3.6-2.2 4.6-3.6c1.1-1.5 1.7-3.1 1.8-4.9c.02-.03-5.7 0-5.7 0v-1.2zm25.8-1.6h1.4v15.3h-1.4v-5.9s-3.8-.03-3.8 0c-.3.7-.8 1.4-1.3 1.8c-.6.4-1.2.6-2 .6c-.5 0-1-.1-1.5-.4c-.5-.2-.9-.6-1.2-1c-.4-.5-.6-1.1-.8-1.7c-.2-.7-.3-1.4-.3-2.2c0-.8.1-1.6.3-2.2c.2-.7.4-1.2.8-1.7c.3-.4.7-.8 1.2-1.1c.5-.2 1-.3 1.5-.3c.7 0 1.4.2 1.9.6c.5.4 1 .9 1.3 1.6c0 .02 3.9 0 3.9 0v-3.4zM370 68.5c.4 0 .7-.1 1-.3c.3-.2.6-.5.8-.8c.2-.4.4-.8.5-1.3c.1-.5.2-1.1.2-1.7c0-.6-.1-1.2-.2-1.7c-.1-.5-.3-.9-.5-1.3c-.2-.3-.5-.6-.8-.8c-.3-.2-.6-.3-1-.3c-.3 0-.7.1-1 .3c-.3.2-.6.5-.8.8c-.2.4-.4.8-.5 1.3c-.1.5-.2 1.1-.2 1.7c0 .6.1 1.2.2 1.7c.1.5.3.9.5 1.3c.2.3.5.6.8.8c.3.2.7.3 1 .3zm3.8-4.1c0 .7 0 1.3-.2 1.7c.04.03 3.5 0 3.5 0v-3.6s-3.51-.04-3.5 0c.1.3.1.6.2.9v1zm16.7-4.9v1.1h-9v-1.1h3.8v-1.8h1.4v1.8h3.8zm5.1 2.3v1.1h-2.3v3.9h-1.4v-8.9h1.4v3.9h2.3zm-5.9 2.2c0 .4-.1.7-.3 1.1c-.1.3-.4.6-.7.8c-.3.2-.7.4-1.2.6c-.4.1-.9.1-1.5.1c-.5 0-1 0-1.5-.1c-.4-.2-.8-.4-1.1-.6c-.3-.2-.6-.5-.7-.8c-.2-.4-.3-.7-.3-1.1c0-.4.1-.8.3-1.1c.1-.3.4-.6.7-.9c.3-.2.7-.4 1.1-.5c.5-.1 1-.2 1.5-.2c.6 0 1.1.1 1.5.2c.5.1.9.3 1.2.5c.3.3.6.6.7.9c.2.3.3.7.3 1.1zm-6 0c0 .5.2.9.6 1.2c.5.2 1 .4 1.7.4c.7 0 1.3-.2 1.7-.4c.5-.3.7-.7.7-1.2c0-.5-.2-.9-.7-1.2c-.4-.3-1-.4-1.7-.4c-.7 0-1.2.1-1.7.4c-.4.3-.6.7-.6 1.2zm8.3 5.1v-1.7h1.3v5.5h-9.6v-5.5h1.4v1.7h6.9zm0 2.7v-1.7h-6.9v1.7h6.9zm16.2-13.9h1.3v15.2h-1.3V57.9zm-8.8 1.5v8.6c1.2 0 2.3 0 3.5-.1c1.2-.2 2.4-.3 3.7-.6l.1 1.2c-1.3.3-2.6.5-3.8.6c-1.2.1-2.4.1-3.6.1H398v-9.8h1.4zm27.5 4.5v1.2h-2.6v8.1h-1.4V57.9h1.4v6h2.6zm-12.3-3.4s.05 7.69 0 7.7h2c.6-.1 1.1-.1 1.7-.1c.5-.1 1.1-.1 1.6-.2c.5 0 1.1-.1 1.6-.2l.2 1.1c-.6.1-1.2.2-1.7.3c-.6.1-1.2.1-1.7.2c-.6 0-1.2 0-1.8.1h-2c-.04-.02-1.2 0-1.2 0v-10h7v1.1h-5.7zM428 72.1v-1.6h1.5v1.6H428z" stroke="none" fill="#fff"/></g><g id="Polygon109028"><path d="m12.7 33.1h2.3v1.2h-2.3v3.7h-1.4v-8.6h1.4v3.7zm-3.6.8c0 .5-.1 1-.3 1.4c-.1.4-.4.8-.8 1.1c-.3.4-.7.6-1.2.8c-.5.1-1.1.2-1.6.2c-.6 0-1.2-.1-1.6-.2c-.5-.2-.9-.4-1.3-.8c-.3-.3-.6-.7-.8-1.1c-.2-.4-.3-.9-.3-1.4c0-.6.1-1.1.3-1.5c.2-.4.5-.8.8-1.1c.4-.3.8-.6 1.3-.8c.4-.1 1-.2 1.6-.2c.5 0 1.1.1 1.6.2c.5.2.9.5 1.2.8c.4.3.7.7.8 1.1c.2.4.3.9.3 1.5zm-6.5 0c0 .3 0 .6.1.9c.2.3.4.6.6.8c.2.2.5.4.8.5c.3.1.7.2 1.1.2c.3 0 .7-.1 1-.2c.3-.1.6-.3.8-.5c.3-.2.5-.5.6-.8c.1-.3.2-.6.2-.9c0-.4-.1-.7-.2-1c-.1-.3-.3-.6-.6-.8c-.2-.2-.5-.4-.8-.5c-.3-.1-.7-.2-1-.2c-.4 0-.8.1-1.1.2c-.3.1-.6.3-.8.5c-.2.2-.4.5-.6.8c-.1.3-.1.6-.1 1zM11 40v3.3h2.3v1.1H2.9v-1.1h2.2V40H3v-1.1h10.1v1.1H11zm-4.5 0v3.3h3.2V40H6.5zm21.1.8v-6.7h-3.3V33h3.3v-3.6h1.4v11.4h-1.4zm-2.2-3.6l-.8 1.1c-.8-.4-1.6-.8-2.2-1.5c-.6-.6-1.1-1.3-1.4-2.1c-.3.9-.8 1.7-1.5 2.4c-.6.6-1.4 1.2-2.3 1.5l-.7-1.1c.5-.2 1.1-.5 1.5-.8c.5-.4.9-.8 1.2-1.3c.4-.4.6-1 .8-1.5c.2-.6.3-1.1.3-1.7c-.02.01 0-1.9 0-1.9h1.4s-.03 1.96 0 2c0 .5.1 1 .2 1.5c.2.5.5 1 .8 1.4c.3.5.7.8 1.2 1.2c.4.3.9.6 1.5.8zm-4.8 6h8.8v1.1H19.2v-4.8h1.4v3.7zm24.7-8.6v3.7H44v-8.6h1.3v3.8h2v-4.1h1.3v9.4h-1.3v-4.2h-2zm-1.9 2l-.8 1c-.7-.3-1.3-.7-1.8-1.2c-.5-.5-.9-1.1-1.2-1.7c-.3.7-.7 1.3-1.2 2c-.5.6-1.2 1-1.9 1.4l-.7-1.1c.4-.2.9-.5 1.3-.9c.4-.3.7-.7 1-1.1c.3-.4.5-.8.6-1.3c.2-.4.2-.9.2-1.3c.03.01 0-2 0-2h1.4s-.03 2.01 0 2c0 .4 0 .8.2 1.3c.1.4.3.8.6 1.1c.2.4.6.7 1 1c.3.3.8.6 1.3.8zm.2 2.6c.8 0 1.5 0 2.1.1c.6.2 1.2.3 1.6.6c.4.2.8.5 1 .8c.3.4.4.8.4 1.2c0 .4-.1.8-.4 1.2c-.2.3-.6.6-1 .8c-.4.2-1 .4-1.6.5c-.6.2-1.3.2-2.1.2c-.8 0-1.5 0-2.1-.2c-.7-.1-1.2-.3-1.6-.5c-.5-.2-.8-.5-1.1-.8c-.2-.4-.3-.8-.3-1.2c0-.4.1-.8.3-1.2c.3-.3.6-.6 1.1-.8c.4-.3.9-.4 1.6-.6c.6-.1 1.3-.1 2.1-.1zm0 4.4c1.1 0 2.1-.2 2.7-.5c.7-.2 1-.7 1-1.2c0-.5-.3-1-1-1.2c-.6-.3-1.6-.5-2.7-.5c-1.2 0-2.1.2-2.8.5c-.6.2-.9.7-.9 1.2c0 .5.3 1 .9 1.2c.7.3 1.6.5 2.8.5zm21.8-10.3v1.1h-2.3v3.9h-1.4v-8.9h1.4v3.9h2.3zM52 30.4s6.97-.03 7 0c0 .9-.2 1.8-.5 2.6c-.3.9-.8 1.6-1.4 2.3c-.6.6-1.4 1.2-2.3 1.7c-.9.5-1.9.9-3 1.2l-.5-1.1c1.8-.5 3.3-1.3 4.4-2.2c1-1 1.6-2.1 1.8-3.4H52v-1.1zm1.2 9.8V39h9.9v5.6h-1.4v-4.4h-8.5zM81 35.8v1.1h-2.5v7.7h-1.4V29.4h1.4v6.4h2.5zM74.8 38l-1.4-.2c.2-1.3.4-2.4.4-3.3c0-.9.1-1.7.1-2.3h-6.4v-1.1h7.7s.02.8 0 .8v2.4c-.1 1-.2 2.2-.4 3.7zm-3.5-2.6v4.7c.8-.1 1.7-.1 2.5-.2c.8 0 1.6-.1 2.4-.2l.1 1c-.8.2-1.6.3-2.4.3c-.9.1-1.7.2-2.5.2c-.8.1-1.6.1-2.4.1h-2.2l-.1-1.1h1.5c.6-.1 1.1-.1 1.7-.1c.02.01 0-4.7 0-4.7h1.4zm22.4 6.2h6.3v1.1H86.1v-1.1h6.2v-3.9h-4.4v-7.1h10.3v1.2h-8.9v4.7h9.1v1.2h-4.7v3.9zm16.1-8h3v-4.2h1.4v11.2h-1.4v-5.8h-3v-1.2zm.9 3.6l-.7 1.1c-.9-.3-1.6-.8-2.3-1.4c-.6-.6-1.1-1.3-1.4-2.1c-.3.9-.8 1.7-1.5 2.4c-.7.6-1.4 1.1-2.3 1.4l-.8-1.1c.6-.2 1.1-.4 1.6-.8c.5-.3.9-.7 1.2-1.2c.3-.4.6-.9.8-1.4c.2-.5.3-1 .3-1.6c-.03.05 0-.7 0-.7h-3.4v-1.2h8.1v1.2H107s-.04.73 0 .7c0 .5.1 1 .2 1.5c.2.5.5.9.8 1.3c.3.4.7.8 1.2 1.1c.4.4.9.6 1.5.8zm-4.8 6h8.8v1.1h-10.2v-4.7h1.4v3.6zm19.5-9.8h3v-4h1.4v9.1h-1.4v-4h-3v-1.1zm.8 3.4l-.7 1.1c-.8-.3-1.6-.7-2.2-1.3c-.6-.6-1.1-1.3-1.4-2.1c-.4.9-.9 1.6-1.5 2.3c-.7.7-1.5 1.2-2.4 1.6l-.7-1.1c.5-.2 1.1-.5 1.5-.9c.5-.3.9-.7 1.3-1.2c.3-.4.6-.9.7-1.4c.2-.6.3-1.1.3-1.6c.02-.03 0-.6 0-.6h-3.4v-1.1h8.2v1.1h-3.4s.02.57 0 .6c0 .5.1.9.3 1.4c.2.5.4.9.7 1.4c.4.4.8.7 1.2 1.1c.5.3 1 .5 1.5.7zm-1.4 2.2c.7 0 1.4 0 2.1.2c.6.1 1.1.3 1.6.5c.4.3.7.6 1 .9c.2.4.3.8.3 1.2c0 .5-.1.9-.3 1.2c-.3.4-.6.7-1 .9c-.5.3-1 .4-1.6.6c-.7.1-1.4.1-2.1.1c-.8 0-1.5 0-2.2-.1c-.6-.2-1.1-.3-1.6-.6c-.4-.2-.7-.5-1-.9c-.2-.3-.3-.7-.3-1.2c0-.4.1-.8.3-1.2c.3-.3.6-.6 1-.9c.5-.2 1-.4 1.6-.5c.7-.2 1.4-.2 2.2-.2zm0 4.6c1.1 0 2-.2 2.7-.5c.6-.3 1-.7 1-1.3c0-.5-.4-1-1-1.3c-.7-.3-1.6-.5-2.7-.5c-1.2 0-2.1.2-2.8.5c-.6.3-.9.8-.9 1.3c0 .6.3 1 .9 1.3c.7.3 1.6.5 2.8.5zm20.5-14.2v11.2h-1.4V29.4h1.4zM142 37l-.8 1.1c-.8-.3-1.6-.8-2.3-1.5c-.6-.6-1.1-1.4-1.4-2.3c-.4 1-.8 1.8-1.5 2.5c-.7.7-1.4 1.2-2.3 1.6l-.8-1.1c.6-.2 1.1-.5 1.6-.9c.5-.4.9-.8 1.2-1.3c.4-.5.6-1 .8-1.6c.2-.5.3-1.1.3-1.7c-.04 0 0-1.5 0-1.5h1.4s-.04 1.5 0 1.5c0 .6.1 1.1.2 1.7c.2.5.5 1 .8 1.5l1.2 1.2c.5.3 1 .6 1.6.8zm-5.1 6.2h8.9v1.1h-10.3v-4.8h1.4v3.7zm18.3-12.8c.8 0 1.6.1 2.2.3c.7.2 1.3.4 1.8.8c.5.4.9.8 1.1 1.3c.3.6.5 1.1.5 1.8c0 .6-.2 1.2-.5 1.7c-.2.5-.6 1-1.1 1.3c-.5.4-1.1.7-1.8.9c-.6.2-1.4.3-2.2.3c-.8 0-1.5-.1-2.2-.3c-.6-.2-1.2-.5-1.7-.9c-.5-.3-.9-.8-1.2-1.3c-.3-.5-.4-1.1-.4-1.7c0-.7.1-1.2.4-1.8c.3-.5.7-.9 1.2-1.3c.5-.4 1.1-.6 1.7-.8c.7-.2 1.4-.3 2.2-.3zm0 1.1c-.6 0-1.1.1-1.6.2c-.6.2-1 .4-1.4.6c-.4.3-.7.6-.9 1c-.2.4-.3.8-.3 1.3c0 .4.1.9.3 1.2c.2.4.5.7.9 1c.4.3.8.5 1.4.6c.5.2 1 .2 1.6.2c.6 0 1.2 0 1.7-.2c.5-.1 1-.3 1.3-.6c.4-.3.7-.6.9-1c.2-.3.3-.8.3-1.2c0-.5-.1-.9-.3-1.3c-.2-.4-.5-.7-.9-1c-.3-.2-.8-.4-1.3-.6c-.5-.1-1.1-.2-1.7-.2zm-6.9 10h13.9v1.1h-13.9v-1.1zm23.2.1h6.2v1.2h-13.8v-1.2h6.2v-2.8h-4.5V34h9.1v-2.3h-9.1v-1.2H176v4.7h-9v2.4h9.4v1.2h-4.9v2.8zm23.3-12.2h1.3v15.2h-1.3v-7.9h-2v7.2h-1.3V29.7h1.3v5.8h2v-6.1zm-7.1 1.4s.03 2.88 0 2.9c0 .6.1 1.2.2 1.8c.2.7.4 1.2.7 1.8c.2.5.6 1 1 1.5c.4.4.8.8 1.3 1.1l-.8 1.1c-.7-.5-1.4-1-1.9-1.8c-.5-.7-.9-1.5-1.1-2.5c-.3 1-.7 1.9-1.3 2.7c-.5.9-1.2 1.5-1.9 2l-.9-1.1c.5-.3 1-.7 1.4-1.2c.4-.4.8-1 1.1-1.5c.3-.6.5-1.2.6-1.9c.2-.7.3-1.3.3-2v-2.9h1.3zm18.6 10.8h6.3v1.2h-13.9v-1.2h6.2v-2.8h-4.5V34h9.1v-2.3h-9.1v-1.2h10.5v4.7h-9.1v2.4h9.4v1.2h-4.9v2.8zm14.9-5.7c-.8 0-1.6-.1-2.2-.2c-.7-.1-1.2-.3-1.7-.6c-.5-.3-.8-.6-1.1-1c-.2-.3-.4-.8-.4-1.2c0-.5.2-.9.4-1.3c.3-.4.6-.7 1.1-1c.5-.2 1-.5 1.7-.6c.6-.1 1.4-.2 2.2-.2c.8 0 1.5.1 2.2.2c.6.1 1.2.4 1.6.6c.5.3.9.6 1.1 1c.3.4.4.8.4 1.3c0 .4-.1.9-.4 1.2c-.2.4-.6.7-1.1 1c-.4.3-1 .5-1.6.6c-.7.1-1.4.2-2.2.2zm0-5c-.6 0-1.1.1-1.6.1c-.5.1-.9.3-1.2.4c-.4.2-.6.4-.8.6c-.2.3-.3.5-.3.9c0 .2.1.5.3.8c.2.2.4.4.8.6c.3.1.7.2 1.2.3c.5.1 1 .2 1.6.2c1.1 0 2.1-.2 2.8-.5c.7-.4 1-.9 1-1.4c0-.7-.3-1.1-1-1.5c-.7-.3-1.6-.5-2.8-.5zm-6.9 6.2h13.8v1.2H222v3.1h-1.4v-3.1h-6.3v-1.2zm3.1 2.8v3.3h9.2v1.1H216v-4.4h1.4zm18.2-8.9v1.9h-1.9s.03-1.88 0-1.9c0-.6.1-1.1.3-1.5c.2-.3.4-.5.7-.7c.2-.1.5-.2.9-.2v.8c-.3 0-.4.1-.5.2c-.2.1-.3.2-.3.4c-.1.1-.2.3-.2.5v.5c-.02.02 1 0 1 0zm16.2 4.6v1.1h-2.5v7.9h-1.4V29.4h1.4v6.2h2.5zM238.4 31s6.96.03 7 0c0 1.1-.2 2.2-.4 3.2c-.3 1-.7 2-1.3 2.9c-.5.9-1.2 1.8-2.1 2.6c-.9.7-1.9 1.4-3.2 2.1l-.7-1.1c2-1 3.5-2.2 4.5-3.6c1-1.4 1.6-3.1 1.8-4.9h-5.6V31zm27 2.7v1.1H255v-5.1h1.4v4h9zm-12.3 2.8h13.8v1.2h-13.8v-1.2zM260 39c1.6 0 2.9.3 3.8.8c1 .5 1.4 1.1 1.4 2c0 .9-.4 1.6-1.4 2.1c-.9.5-2.2.7-3.8.7c-1.6 0-2.9-.2-3.8-.7c-.9-.5-1.4-1.2-1.4-2.1c0-.9.5-1.5 1.4-2c.9-.5 2.2-.8 3.8-.8zm0 4.5c1.2 0 2.2-.1 2.8-.4c.7-.3 1-.7 1-1.3c0-.5-.3-.9-1-1.2c-.6-.3-1.6-.5-2.8-.5c-1.2 0-2.1.2-2.8.5c-.7.3-1 .7-1 1.2c0 .6.3 1 1 1.3c.7.3 1.6.4 2.8.4zm19.8-5.1v-4.6h-3.3v-1.2h3.3v-3.2h1.4v9h-1.4zm-2.2-1.8l-.7 1.1c-.9-.3-1.6-.8-2.2-1.3c-.6-.6-1.1-1.3-1.4-2.1c-.4.9-.9 1.7-1.5 2.4c-.7.6-1.5 1.1-2.4 1.5l-.7-1.2c.6-.2 1.1-.4 1.6-.8l1.2-1.2c.3-.5.6-1 .8-1.5c.1-.5.2-1.1.2-1.7c.03.03 0-1.5 0-1.5h1.4s.02 1.48 0 1.5c0 .5.1 1 .3 1.5c.2.5.4 1 .7 1.4c.4.4.7.8 1.2 1.1c.5.4 1 .6 1.5.8zm-1.4 2.3c.8 0 1.5 0 2.1.2c.6.1 1.2.3 1.6.5c.5.3.8.6 1 .9c.3.4.4.8.4 1.3c0 .4-.1.8-.4 1.2c-.2.3-.5.6-1 .9c-.4.2-1 .4-1.6.5c-.6.2-1.3.2-2.1.2c-.8 0-1.5 0-2.1-.2c-.6-.1-1.2-.3-1.6-.5c-.4-.3-.8-.6-1-.9c-.2-.4-.4-.8-.4-1.2c0-.5.2-.9.4-1.3c.2-.3.6-.6 1-.9c.4-.2 1-.4 1.6-.5c.6-.2 1.3-.2 2.1-.2zm0 4.6c1.2 0 2.1-.1 2.7-.4c.7-.4 1-.8 1-1.3c0-.6-.3-1.1-1-1.4c-.6-.3-1.5-.4-2.7-.4c-1.2 0-2.1.1-2.7.4c-.7.3-1 .8-1 1.4c0 .5.3.9 1 1.3c.6.3 1.5.4 2.7.4zm14.9-8.6c-1.7 0-3-.2-3.9-.6c-1-.5-1.4-1.1-1.4-2c0-.9.4-1.5 1.4-2c.9-.4 2.2-.6 3.9-.6c1.7 0 3 .2 4 .6c.9.5 1.4 1.1 1.4 2c0 .9-.5 1.5-1.4 2c-1 .4-2.3.6-4 .6zm0-4.2c-1.2 0-2.2.1-2.9.4c-.7.3-1 .7-1 1.2c0 .5.3.9 1 1.2c.7.3 1.7.4 2.9.4c1.3 0 2.3-.1 2.9-.4c.7-.3 1.1-.7 1.1-1.2c0-.5-.4-.9-1.1-1.2c-.6-.3-1.6-.4-2.9-.4zm-6.9 5.3H298v1.1h-13.8V36zm3.1 5.8v1.6h9.4v1.1h-10.8v-3.7h9v-1.3h-9v-1.1h10.4v3.4h-9zM316 29.4v7.9h-1.4v-7.9h1.4zm-3.3 6.4l-.6 1.1c-.9-.3-1.7-.8-2.4-1.4c-.6-.6-1.1-1.3-1.5-2.1c-.3.8-.8 1.6-1.5 2.3c-.7.6-1.4 1.1-2.4 1.5l-.7-1.1c.6-.2 1.1-.5 1.6-.9c.5-.3.9-.7 1.2-1.1c.4-.5.6-.9.8-1.5c.2-.5.3-1 .3-1.6v-1.1h1.4s-.01 1.12 0 1.1c0 .5.1 1 .3 1.5c.2.5.4 1 .8 1.4c.3.4.7.8 1.2 1.1c.5.3 1 .6 1.5.8zm-5.1 7.6h8.9v1.1h-10.3v-3.8h8.5v-1.5h-8.5v-1.1h9.8v3.6h-8.4v1.7zm20-12.1v1.1h-8.5v-1.1h3.6v-1.9h1.4v1.9h3.5zm0 2.2h2.6v-4.1h1.4V41h-1.4v-3.2h-2.6v-1.1h2.6v-2.1h-2.6v-1.1zm-.7 2.6c0 .5-.1.9-.3 1.2c-.1.4-.4.7-.7.9c-.3.3-.7.5-1.1.6c-.4.2-.9.3-1.4.3c-.5 0-1-.1-1.4-.3c-.4-.1-.8-.3-1.1-.6c-.3-.2-.5-.5-.7-.9c-.1-.3-.2-.7-.2-1.2c0-.4.1-.8.2-1.1c.2-.4.4-.7.7-1c.3-.2.7-.4 1.1-.6c.4-.1.9-.2 1.4-.2c.5 0 1 .1 1.4.2c.4.2.8.4 1.1.6c.3.3.6.6.7 1c.2.3.3.7.3 1.1zm-5.6 0c0 .6.2 1 .6 1.4c.4.3.9.5 1.5.5c.7 0 1.2-.2 1.6-.5c.4-.4.5-.8.5-1.4c0-.5-.1-.9-.5-1.3c-.4-.3-.9-.5-1.6-.5c-.6 0-1.1.2-1.5.5c-.4.4-.6.8-.6 1.3zm1.9 7.1h8.8v1.1h-10.2V40h1.4v3.2zm11.7-12.9v-1.9h1.9s-.05 1.9 0 1.9c0 .3-.1.6-.1.9c-.1.3-.2.5-.3.8c-.2.2-.4.4-.6.5c-.2.2-.5.2-.9.2v-.8c.2 0 .4 0 .5-.1c.2-.2.3-.3.3-.5c.1-.1.1-.3.2-.5v-.5h-1zm18 5.4v1.1h-2.5v7.8H349V29.4h1.4v6.3h2.5zm-9.1-6.1v2.2h3.7v1.2h-8.9v-1.2h3.8v-2.2h1.4zm-.7 4.6c.6 0 1.1.1 1.5.3c.5.2.9.4 1.2.7c.3.3.6.7.8 1.1c.1.5.2.9.2 1.4c0 .6-.1 1-.2 1.5c-.2.4-.5.8-.8 1.1c-.3.3-.7.5-1.2.7c-.4.2-.9.2-1.5.2c-.5 0-1 0-1.5-.2c-.4-.2-.8-.4-1.1-.7c-.4-.3-.6-.7-.8-1.1c-.2-.5-.3-.9-.3-1.5c0-.5.1-.9.3-1.4c.2-.4.4-.8.8-1.1c.3-.3.7-.5 1.1-.7c.5-.2 1-.3 1.5-.3zm0 5.9c.4 0 .7-.1 1-.2c.3-.1.5-.3.7-.5c.2-.2.4-.4.5-.7c.1-.3.2-.6.2-1c0-.3-.1-.6-.2-.9c-.1-.3-.3-.5-.5-.7c-.2-.3-.4-.4-.7-.5c-.3-.2-.6-.2-1-.2c-.3 0-.6 0-.9.2c-.3.1-.6.2-.8.5c-.2.2-.4.4-.5.7c-.1.3-.2.6-.2.9c0 .4.1.7.2 1c.1.3.3.5.5.7c.2.2.5.4.8.5c.3.1.6.2.9.2zm21.9-7.7c-.04.04 0-.3 0-.3h-9.3v-1.2h10.6s.05 1.54 0 1.5v3.1c-.1.6-.1 1.2-.2 1.9c-.1.6-.2 1.3-.3 2.1l-1.4-.2c.3-1.4.4-2.7.5-3.8c0-1.1.1-2.1.1-3.1zm-4 9h7v1.1h-13.8v-1.1h5.4v-5.5h1.4v5.5zm23.2-9c.03.04 0-.3 0-.3h-9.3v-1.2h10.7s.03 1.54 0 1.5v3.1c-.1.6-.1 1.2-.2 1.9c-.1.6-.2 1.3-.4 2.1l-1.3-.2c.2-1.4.4-2.7.5-3.8v-3.1zm-4 9h7.1v1.1h-13.8v-1.1h5.3v-5.5h1.4v5.5zm20.4-12h1.3v9h-1.3v-4h-2.1v3.9h-1.3v-8.6h1.3v3.5h2.1v-3.8zm-10.9 1.1s5.96.04 6 0c0 3.7-2 6.4-5.9 8l-.7-1c1.6-.6 2.8-1.4 3.7-2.4c.8-1 1.3-2.2 1.4-3.4c.03-.04-4.5 0-4.5 0v-1.2zm1.9 9.7v-1.1h10.3v5.5h-1.4v-4.4h-8.9zm24-10.8h1.4v15.3h-1.4V29.4zm-6.1 1.1c.6 0 1.2.1 1.7.3c.5.2.9.4 1.3.7c.3.3.6.7.8 1.1c.2.5.3 1 .3 1.5c0 .5-.1 1-.3 1.5c-.2.4-.5.8-.8 1.1c-.4.3-.8.6-1.3.7c-.5.2-1.1.3-1.7.3c-.6 0-1.1-.1-1.6-.3c-.5-.1-.9-.4-1.3-.7c-.4-.3-.6-.7-.8-1.1c-.2-.5-.4-1-.4-1.5c0-.5.2-1 .4-1.5c.2-.4.4-.8.8-1.1c.4-.3.8-.5 1.3-.7c.5-.2 1-.3 1.6-.3zm0 1.2c-.4 0-.7.1-1.1.2c-.3.1-.6.3-.8.5c-.3.2-.5.4-.6.7c-.1.3-.2.6-.2 1c0 .4.1.7.2 1c.1.3.3.5.6.7c.2.2.5.4.8.5c.4.1.7.2 1.1.2c.4 0 .8-.1 1.1-.2c.4-.1.6-.3.9-.5c.2-.2.4-.4.5-.7c.2-.3.2-.6.2-1c0-.4 0-.7-.2-1c-.1-.3-.3-.5-.5-.7c-.3-.2-.5-.4-.9-.5c-.3-.1-.7-.2-1.1-.2zm-4.6 9.6l-.2-1.1c.7 0 1.4 0 2.2-.1h2.5c.9-.1 1.8-.1 2.6-.2c.9 0 1.8-.1 2.6-.3l.1 1.1c-.8.1-1.7.3-2.6.3c-.9.1-1.7.2-2.6.2c-.8.1-1.6.1-2.4.1h-2.2zm30.8-7.3h2.3v1.2h-2.3v5.4h-1.4V29.4h1.4v4.6zm-3.6.2c0 .6-.1 1.1-.3 1.6c-.2.4-.5.8-.8 1.1c-.4.4-.8.6-1.3.8c-.5.2-1 .3-1.6.3c-.5 0-1.1-.1-1.6-.3c-.4-.2-.9-.4-1.2-.8c-.4-.3-.7-.7-.9-1.1c-.2-.5-.3-1-.3-1.6c0-.5.1-1 .3-1.5c.2-.5.5-.8.9-1.2c.3-.3.8-.6 1.2-.8c.5-.1 1.1-.2 1.6-.2c.6 0 1.1.1 1.6.2c.5.2.9.5 1.3.8c.3.4.6.7.8 1.2c.2.5.3 1 .3 1.5zm-6.6 0c0 .4.1.7.2 1.1c.1.3.3.5.6.8c.2.2.5.4.8.5c.3.1.7.2 1 .2c.4 0 .7-.1 1.1-.2c.3-.1.6-.3.8-.5c.2-.3.4-.5.5-.8c.2-.4.2-.7.2-1.1c0-.3 0-.7-.2-1c-.1-.3-.3-.6-.5-.8c-.2-.2-.5-.4-.8-.5c-.4-.2-.7-.2-1.1-.2c-.3 0-.7 0-1 .2c-.3.1-.6.3-.8.5c-.3.2-.5.5-.6.8c-.1.3-.2.7-.2 1zm2.1 5.3v3.7h8.8v1.1h-10.2v-4.8h1.4zm19.9-5.9h3.1v-4.2h1.4v11.2h-1.4v-5.8h-3.1v-1.2zm.9 3.6l-.7 1.1c-.8-.3-1.6-.8-2.2-1.4c-.7-.6-1.1-1.3-1.5-2.1c-.3.9-.8 1.7-1.5 2.4c-.6.6-1.4 1.1-2.3 1.4l-.7-1.1c.5-.2 1.1-.4 1.5-.8c.5-.3.9-.7 1.2-1.2c.4-.4.6-.9.8-1.4c.2-.5.3-1 .3-1.6v-.7h-3.4v-1.2h8.2v1.2h-3.4v.7c0 .5.1 1 .3 1.5c.2.5.4.9.7 1.3c.4.4.7.8 1.2 1.1c.4.4 1 .6 1.5.8zm-4.8 6h8.8v1.1h-10.2v-4.7h1.4v3.6zm25.5-7.4v1.1h-2.4v7.7h-1.4V29.4h1.4v6.4h2.4zm-6.2 2.2l-1.4-.2c.2-1.3.4-2.4.4-3.3c.1-.9.1-1.7.1-2.3h-6.4v-1.1h7.8s-.05.8 0 .8c0 .6-.1 1.4-.1 2.4c0 1-.2 2.2-.4 3.7zm-3.5-2.6s.02 4.68 0 4.7c.9-.1 1.7-.1 2.5-.2c.9 0 1.7-.1 2.4-.2l.1 1c-.8.2-1.6.3-2.4.3c-.8.1-1.7.2-2.5.2c-.8.1-1.6.1-2.4.1H455l-.2-1.1h1.6c.5-.1 1.1-.1 1.6-.1c.05.01 0-4.7 0-4.7h1.4zm27.4-6v11.2h-1.4V29.4h1.4zm-4.2 4.8c0 .6-.1 1.1-.3 1.5c-.2.5-.5.9-.9 1.2c-.3.4-.8.6-1.3.8c-.4.2-1 .3-1.5.3c-.6 0-1.1-.1-1.6-.3c-.5-.2-.9-.4-1.3-.8c-.3-.3-.6-.7-.8-1.2c-.2-.4-.3-.9-.3-1.5c0-.5.1-1 .3-1.5c.2-.5.5-.8.8-1.2c.4-.3.8-.6 1.3-.8c.5-.1 1-.2 1.6-.2c.5 0 1.1.1 1.5.2c.5.2 1 .5 1.3.8c.4.4.7.7.9 1.2c.2.5.3 1 .3 1.5zm-6.6 0c0 .4 0 .7.2 1c.1.4.3.6.5.9c.2.2.5.4.8.5c.3.1.7.2 1.1.2c.3 0 .7-.1 1-.2c.3-.1.6-.3.9-.5c.2-.3.4-.5.5-.9c.1-.3.2-.6.2-1c0-.4-.1-.7-.2-1c-.1-.3-.3-.6-.5-.8c-.3-.2-.6-.4-.9-.5c-.3-.2-.7-.2-1-.2c-.4 0-.8 0-1.1.2c-.3.1-.6.3-.8.5c-.2.2-.4.5-.5.8c-.2.3-.2.6-.2 1zm2.3 9h8.9v1.1H477v-4.9h1.3v3.8zm22.2-10.3v-1.8h-9.1V30H502v3.9h-9.1v1.9h9.4v1.1h-10.8v-4h9zm3.1 5.6v1.1H500v5.1h-1.4v-5.1h-3.8v5.1h-1.4v-5.1h-3.6v-1.1h13.8zm12.8-9.1h1.4v15.3h-1.4V29.4zm-6.1 1.1c.6 0 1.2.1 1.7.3c.5.2.9.4 1.2.7c.4.3.7.7.9 1.1c.2.5.3 1 .3 1.5c0 .5-.1 1-.3 1.5c-.2.4-.5.8-.9 1.1c-.3.3-.7.6-1.2.7c-.5.2-1.1.3-1.7.3c-.6 0-1.1-.1-1.6-.3c-.5-.1-1-.4-1.3-.7c-.4-.3-.7-.7-.9-1.1c-.2-.5-.3-1-.3-1.5c0-.5.1-1 .3-1.5c.2-.4.5-.8.9-1.1c.3-.3.8-.5 1.3-.7c.5-.2 1-.3 1.6-.3zm0 1.2c-.4 0-.8.1-1.1.2c-.3.1-.6.3-.9.5c-.2.2-.4.4-.5.7c-.1.3-.2.6-.2 1c0 .4.1.7.2 1c.1.3.3.5.5.7c.3.2.6.4.9.5c.3.1.7.2 1.1.2c.4 0 .8-.1 1.1-.2c.3-.1.6-.3.9-.5c.2-.2.4-.4.5-.7c.2-.3.2-.6.2-1c0-.4 0-.7-.2-1c-.1-.3-.3-.5-.5-.7c-.3-.2-.6-.4-.9-.5c-.3-.1-.7-.2-1.1-.2zm-4.7 9.6l-.1-1.1c.7 0 1.4 0 2.2-.1h2.5c.9-.1 1.7-.1 2.6-.2c.9 0 1.7-.1 2.6-.3l.1 1.1c-.9.1-1.7.3-2.6.3c-.9.1-1.7.2-2.6.2c-.8.1-1.7.1-2.4.1h-2.3zm26.6.3h6.3v1.1h-13.9v-1.1h6.2v-3.3h-4.5v-7.8h1.3v2.7h7.8v-2.7h1.4v7.8h-4.6v3.3zm-4.6-7.3v2.9h7.8v-2.9h-7.8zm26.8 1.1v1.2h-2.5v8.1h-1.4V29.4h1.4v6h2.5zM542.2 32s.03 7.69 0 7.7h1.9c.6-.1 1.2-.1 1.8-.1c.5-.1 1.1-.1 1.6-.2c.5 0 1.1-.1 1.6-.2l.2 1.1c-.6.1-1.2.2-1.7.3c-.6.1-1.2.1-1.7.2c-.6 0-1.2 0-1.9.1h-2c.04-.02-1.2 0-1.2 0v-10h7.1v1.1h-5.7zm31.4 3.6v1.1h-2.4v7.9h-1.4V29.4h1.4v6.2h2.4zM560.3 31s6.95.03 7 0c0 1.1-.2 2.2-.4 3.2c-.3 1-.7 2-1.3 2.9c-.5.9-1.2 1.8-2.1 2.6c-.9.7-1.9 1.4-3.2 2.1l-.7-1.1c2-1 3.5-2.2 4.5-3.6c1-1.4 1.6-3.1 1.8-4.9h-5.6V31zm25.8-1.6h1.4v15.2h-1.4V29.4zm-5.5 3.8s.03 1.13 0 1.1c0 .7.1 1.3.3 1.9c.2.6.5 1.2.9 1.7c.3.6.8 1 1.3 1.4c.4.5 1 .8 1.5 1l-.7 1.1c-.9-.4-1.7-.9-2.4-1.7c-.7-.8-1.2-1.7-1.5-2.7c-.4 1-.9 2-1.6 2.8c-.6.8-1.4 1.5-2.3 1.9l-.8-1.1c.6-.2 1.1-.6 1.6-1c.5-.5.9-1 1.2-1.5c.4-.6.7-1.2.9-1.8c.2-.6.3-1.3.3-2c-.04.03 0-1.1 0-1.1h-3.6V32h3.5v-2.3h1.5v2.3h3.4v1.2h-3.5zm26.2-3.8v8.7h-1.4v-8.7h1.4zm-8.2 8c-.6 0-1.1-.1-1.6-.2c-.5-.2-.9-.5-1.2-.8c-.4-.3-.6-.7-.8-1.1c-.2-.4-.3-.9-.3-1.4c0-.6.1-1.1.3-1.5c.2-.4.4-.8.8-1.1c.3-.3.7-.6 1.2-.7c.5-.2 1-.3 1.6-.3c.6 0 1.1.1 1.6.3c.5.1.9.4 1.3.7c.3.3.6.7.8 1.1c.2.4.3.9.3 1.5c0 .5-.1 1-.3 1.4c-.2.4-.5.8-.8 1.1c-.4.3-.8.6-1.3.8c-.5.1-1 .2-1.6.2zm0-5.9c-.4 0-.7 0-1 .1c-.3.2-.6.3-.9.5c-.2.2-.4.5-.5.8c-.1.3-.2.6-.2 1c0 .3.1.6.2.9c.1.3.3.6.5.8c.3.2.6.4.9.5c.3.1.6.2 1 .2c.4 0 .7-.1 1.1-.2c.3-.1.6-.3.8-.5c.2-.2.4-.5.6-.8c.1-.3.2-.6.2-.9c0-.4-.1-.7-.2-1c-.2-.3-.4-.6-.6-.8c-.2-.2-.5-.3-.8-.5c-.4-.1-.7-.1-1.1-.1zm6.5 7.3v.8c0 .4.1.8.2 1.2c.2.4.4.7.6 1.1c.3.3.6.6 1 .9c.4.2.8.4 1.3.6l-.7 1c-.8-.2-1.4-.6-1.9-1.1c-.5-.5-.9-1.1-1.2-1.7c-.2.6-.6 1.2-1 1.7c-.5.6-1.1 1-1.8 1.3c-.8-.3-1.4-.7-1.8-1.2c-.5-.5-.8-1.1-1-1.8c-.3.6-.7 1.2-1.2 1.7c-.5.5-1.1.9-1.9 1.1l-.7-1c.5-.2 1-.4 1.3-.7c.4-.3.7-.6 1-.9c.3-.3.5-.7.6-1.1c.1-.4.2-.7.2-1.1v-.8h1.4s-.05.8 0 .8c0 .7.1 1.3.5 2c.3.7.8 1.2 1.6 1.6c.3-.2.6-.5.9-.8c.3-.3.5-.6.7-.9c.2-.3.3-.6.4-1c.1-.3.2-.6.2-.9c-.05 0 0-.8 0-.8h1.3zm17-4.8v1.1h-10.4V30h1.4v4h9zm-12.3 3.2h13.9v1.1h-13.9v-1.1zm3.2 2.6v3.3h9.2v1.2h-10.6v-4.5h1.4zm30.2-7.1v1.2H641v3.6h-1.4v-8.1h1.4v3.3h2.2zm-5.2 3.1l-.8 1.1c-.8-.3-1.5-.7-2.2-1.3c-.6-.5-1.1-1.2-1.4-2c-.3.9-.8 1.7-1.5 2.4c-.6.6-1.4 1.1-2.4 1.4l-.7-1.1c.6-.2 1.1-.5 1.6-.8c.5-.3.9-.7 1.2-1.1c.3-.5.6-1 .8-1.5c.2-.5.3-1.1.3-1.6c-.04-.03 0-1.3 0-1.3h1.4s-.05 1.24 0 1.2c0 .6 0 1.1.2 1.5c.2.5.4 1 .8 1.4c.3.4.7.7 1.2 1c.4.3.9.6 1.5.7zm-6.2 6s.02 1.64 0 1.6h2c.3 0 .6 0 .9-.1c.3 0 .6-.1.9-.1l.1 1l-1.5.3h-3.7v-3.7h3.4v-1.4h-3.5v-1.1h4.9v3.5h-3.5zm4.4 2.7v-6.2h4.8v6.2h-4.8zm1.2-5.1v4.1h2.3v-4.1h-2.3zm14.2-4.5c-1.7 0-3-.2-4-.6c-.9-.5-1.4-1.1-1.4-2c0-.9.5-1.5 1.4-2c1-.4 2.3-.6 4-.6c1.7 0 3 .2 3.9.6c1 .5 1.4 1.1 1.4 2c0 .9-.4 1.5-1.4 2c-.9.4-2.2.6-3.9.6zm0-4.2c-1.3 0-2.3.1-2.9.4c-.7.3-1.1.7-1.1 1.2c0 .5.4.9 1.1 1.2c.6.3 1.6.4 2.9.4c1.2 0 2.2-.1 2.9-.4c.7-.3 1-.7 1-1.2c0-.5-.3-.9-1-1.2c-.7-.3-1.7-.4-2.9-.4zm-6.9 5.3h13.8v1.1h-13.8V36zm3 5.8v1.6h9.5v1.1h-10.8v-3.7h8.9v-1.3h-9v-1.1h10.4v3.4h-9zm27.4-12.4h1.4v15.3h-1.4V29.4zm-6.1 7c-.6 0-1.1-.1-1.6-.2c-.5-.2-.9-.4-1.2-.7c-.4-.3-.6-.6-.8-1c-.2-.4-.3-.8-.3-1.2c0-.5.1-.9.3-1.3c.2-.4.4-.7.8-1c.3-.3.7-.5 1.2-.7c.5-.1 1-.2 1.6-.2c.5 0 1.1.1 1.5.2c.5.2.9.4 1.3.7c.3.3.6.6.8 1c.1.4.2.8.2 1.3c0 .4-.1.8-.2 1.2c-.2.4-.5.7-.8 1c-.4.3-.8.5-1.3.7c-.4.1-1 .2-1.5.2zm0-5.1c-.8 0-1.4.2-1.9.5c-.4.4-.7.9-.7 1.5c0 .5.3 1 .7 1.4c.5.4 1.1.5 1.9.5c.7 0 1.3-.1 1.8-.5c.5-.3.7-.8.7-1.4c0-.7-.2-1.1-.7-1.5c-.5-.4-1.1-.5-1.8-.5zm5 5.8l.1 1.1c-1.5.2-2.9.4-4.4.5c.03-.02 0 5.5 0 5.5h-1.4s.04-5.43 0-5.4h-2.2c-.7 0-1.3.1-2 .1l-.2-1.2h2.3c.9 0 1.7-.1 2.6-.1c.8 0 1.7-.1 2.6-.2c.9 0 1.7-.1 2.6-.3zm17.1-7.7h1.3v15.2h-1.3V37h-2v6.9h-1.3V29.7h1.3v6.1h2v-6.4zm-7.1.4v2.2h3.1v1.1h-7.6V32h3.1v-2.2h1.4zm-.7 4.4c.5 0 .9 0 1.3.2c.4.2.7.4 1 .7c.3.3.5.7.7 1.1c.2.5.3.9.3 1.4c0 .6-.1 1-.3 1.4c-.2.5-.4.8-.7 1.1c-.3.4-.6.6-1 .8c-.4.1-.8.2-1.3.2c-.5 0-.9-.1-1.3-.2c-.4-.2-.8-.4-1-.8c-.3-.3-.6-.6-.7-1.1c-.2-.4-.3-.8-.3-1.4c0-.5.1-.9.3-1.4c.1-.4.4-.8.7-1.1c.2-.3.6-.5 1-.7c.4-.2.8-.2 1.3-.2zm0 5.8c.6 0 1.1-.3 1.4-.7c.4-.4.6-1 .6-1.7c0-.3 0-.6-.1-.9c-.1-.3-.3-.5-.5-.7c-.1-.2-.3-.4-.6-.5c-.2-.1-.5-.2-.8-.2c-.6 0-1.1.2-1.5.7c-.3.4-.5.9-.5 1.6c0 .7.2 1.3.5 1.7c.4.4.9.7 1.5.7z" stroke="none" fill="#fff"/></g><g id="Polygon109027"><path d="m9.5 2.8v1.1H.9V2.8h3.7V.9h1.4v1.9h3.5zm0 2.2h2.6V.9h1.4v11.6h-1.4V9.3H9.5V8.2h2.6V6.1H9.5V5zm-.8 2.6c0 .5-.1.9-.3 1.2c-.1.4-.4.7-.7.9c-.3.3-.6.5-1.1.6c-.4.2-.8.3-1.3.3c-.6 0-1-.1-1.4-.3c-.5-.1-.8-.3-1.1-.6c-.3-.2-.6-.5-.7-.9c-.2-.3-.3-.7-.3-1.2c0-.4.1-.8.3-1.1c.1-.4.4-.7.7-1c.3-.2.6-.4 1.1-.6c.4-.1.8-.2 1.4-.2c.5 0 .9.1 1.3.2c.5.2.8.4 1.1.6c.3.3.6.6.7 1c.2.3.3.7.3 1.1zm-5.6 0c0 .6.2 1 .6 1.4c.4.3.9.5 1.6.5c.6 0 1.1-.2 1.5-.5c.4-.4.6-.8.6-1.4c0-.5-.2-.9-.6-1.3c-.4-.3-.9-.5-1.5-.5c-.7 0-1.2.2-1.6.5c-.4.4-.6.8-.6 1.3zM5 14.7h8.8v1.1H3.7v-4.3h1.3v3.2zM28.1.9h1.3v15.2h-1.3V8.2h-2.2v7.2h-1.3V1.2h1.3v5.8h2.2V.9zm-9.7 3s-.02 7.34 0 7.3c1 0 1.9 0 2.7-.1c.8 0 1.6-.1 2.4-.3l.1 1.1c-.4.1-.8.2-1.3.3c-.4 0-.9.1-1.3.1c-.5 0-.9.1-1.4.1H17V2.8h5.7v1.1h-4.3zm27.9 3.2v1.1h-2.6v7.9h-1.4V.9h1.4v6.2h2.6zm-9.2-3.5s.04 1.96 0 2c0 .6.1 1.2.4 1.8c.2.6.4 1.2.8 1.8c.3.5.8 1 1.2 1.5c.5.4 1 .8 1.6 1l-.8 1.2c-.9-.5-1.6-1.1-2.3-1.9c-.7-.9-1.2-1.8-1.5-2.8c-.2.5-.4 1.1-.7 1.6c-.3.5-.6 1-.9 1.4c-.3.4-.7.8-1.1 1.2c-.4.3-.8.6-1.2.8l-.8-1.1c.5-.3 1-.6 1.5-1.1c.5-.5.9-1 1.3-1.6c.3-.6.6-1.2.8-1.9c.3-.6.4-1.3.4-1.9c-.03-.04 0-2 0-2h-3.5V2.5h8.2v1.1h-3.4zm18.1 4.8h6.2v1.2H47.6V8.4h6.2V6.7h-4.5V1.6h10.4v1.1h-9v2.8h9.1v1.2h-4.6v1.7zm-.7 2.2c1.6 0 2.9.3 3.8.8c.9.4 1.4 1.1 1.4 2c0 .9-.5 1.6-1.4 2c-.9.5-2.2.7-3.8.7c-1.7 0-2.9-.2-3.9-.7c-.9-.4-1.4-1.1-1.4-2c0-.9.5-1.6 1.4-2c1-.5 2.2-.8 3.9-.8zm0 4.5c1.2 0 2.1-.2 2.8-.5c.6-.2 1-.7 1-1.2c0-.5-.4-1-1-1.2c-.7-.3-1.6-.5-2.8-.5c-1.3 0-2.2.2-2.9.5c-.6.2-1 .7-1 1.2c0 .5.4 1 1 1.2c.7.3 1.6.5 2.9.5zm22.9-7.9v1.1h-2.5v7.8h-1.4V.9h1.4v6.3h2.5zm-9.2-2.5s.02 1.15 0 1.1c0 .7.1 1.3.3 1.9c.2.6.4 1.1.7 1.7c.4.5.8 1 1.2 1.4c.5.4 1 .8 1.5 1l-.8 1.1c-.8-.4-1.5-1-2.1-1.7c-.7-.8-1.1-1.7-1.5-2.7c-.3 1.1-.8 2-1.4 2.8c-.7.9-1.4 1.5-2.3 1.9l-.8-1c.5-.3 1.1-.7 1.5-1.1c.5-.5.9-1 1.2-1.5c.4-.6.7-1.2.9-1.8c.1-.6.2-1.3.2-2c.04.05 0-1.1 0-1.1h-3.4V3.5h3.4V1.2h1.4v2.3h3.4v1.2h-3.4zm21-.7c.05.05 0-.3 0-.3h-9V2.5h10.4s.03 1.55 0 1.5v3.3c-.1.6-.1 1.2-.2 1.9c-.1.7-.2 1.4-.4 2.3l-1.4-.2c.3-1.5.5-2.9.6-4.1V4zm-10.5 8.8h13.8v1.1H78.7v-1.1zm26.2-9.1V2.3H96V1.2h10.3v3.5h-8.9v1.5h9.2v1H96V3.7h8.9zM94.2 8.4h13.9v1.2h-6.3v1.9h-1.4V9.6h-6.2V8.4zm10.7 3.8v-1.7h1.4v5.4H96v-5.4h1.4v1.7h7.5zm0 2.7v-1.6h-7.5v1.6h7.5zm11.8-7.4c-.8 0-1.6-.1-2.2-.2c-.7-.1-1.3-.3-1.7-.6c-.5-.3-.9-.6-1.1-1c-.3-.3-.4-.8-.4-1.2c0-.5.1-.9.4-1.3c.2-.4.6-.7 1.1-1c.4-.2 1-.4 1.7-.6c.6-.1 1.4-.2 2.2-.2c.8 0 1.5.1 2.2.2c.6.2 1.2.4 1.7.6c.4.3.8.6 1.1 1c.2.4.3.8.3 1.3c0 .4-.1.9-.3 1.2c-.3.4-.7.7-1.1 1c-.5.3-1.1.5-1.7.6c-.7.1-1.4.2-2.2.2zm0-5c-1.2 0-2.2.2-2.9.6c-.7.3-1.1.8-1.1 1.4c0 .6.4 1.1 1.1 1.4c.7.3 1.7.5 2.9.5c1.2 0 2.1-.2 2.8-.5c.7-.3 1.1-.8 1.1-1.4c0-.6-.4-1.1-1.1-1.4c-.7-.4-1.6-.6-2.8-.6zm-6.9 6.4h13.8v1.1h-13.8V8.9zm3.1 2.5v3.3h9.1v1.1h-10.4v-4.4h1.3zm25.1-3l-.7 1.1c-.8-.3-1.6-.7-2.2-1.2c-.7-.6-1.2-1.2-1.5-1.9c-.3.8-.8 1.5-1.5 2.1c-.7.6-1.4 1.1-2.3 1.4l-.7-1.1c.5-.2 1.1-.5 1.5-.8c.5-.3.9-.6 1.2-1c.4-.4.6-.9.8-1.3c.2-.5.3-1 .3-1.5c-.03-.02 0-.3 0-.3h-3.4V2.8h3.4v-2h1.4v2h3.3v1.1h-3.3s-.03.28 0 .3c0 .4.1.9.2 1.3c.2.5.5.9.8 1.2c.3.4.7.7 1.2 1c.4.3.9.5 1.5.7zm2.9-3.6h2.3v1.2h-2.3v4.3h-1.4V.9h1.4v3.9zm-4.8 5.8c1.5 0 2.7.3 3.6.7c.9.5 1.4 1.2 1.4 2.1c0 .9-.5 1.5-1.4 2c-.9.5-2.1.7-3.6.7c-1.6 0-2.9-.2-3.8-.7c-.8-.5-1.3-1.1-1.3-2c0-.9.5-1.6 1.3-2.1c.9-.4 2.2-.7 3.8-.7zm0 4.4c1.1 0 2-.1 2.6-.4c.7-.3 1-.7 1-1.2c0-.6-.3-1-1-1.3c-.6-.2-1.5-.4-2.6-.4c-1.2 0-2.1.2-2.7.4c-.7.3-1 .7-1 1.3c0 .5.3.9 1 1.2c.6.3 1.5.4 2.7.4zM155.7.9h1.3v15.3h-1.3V.9zM149.6 2c.6 0 1.1.1 1.6.3c.5.2.9.4 1.3.7c.4.3.6.7.8 1.1c.2.5.3 1 .3 1.5c0 .5-.1 1-.3 1.5c-.2.4-.4.8-.8 1.1c-.4.3-.8.6-1.3.7c-.5.2-1 .3-1.6.3c-.6 0-1.2-.1-1.7-.3c-.5-.1-.9-.4-1.3-.7c-.3-.3-.6-.7-.8-1.1c-.2-.5-.3-1-.3-1.5c0-.5.1-1 .3-1.5c.2-.4.5-.8.8-1.1c.4-.3.8-.5 1.3-.7c.5-.2 1.1-.3 1.7-.3zm0 1.2c-.4 0-.8.1-1.1.2c-.4.1-.7.3-.9.5c-.2.2-.4.4-.6.7c-.1.3-.2.6-.2 1c0 .4.1.7.2 1c.2.3.4.5.6.7c.2.2.5.4.9.5c.3.1.7.2 1.1.2c.4 0 .7-.1 1.1-.2c.3-.1.6-.3.8-.5c.3-.2.4-.4.6-.7c.1-.3.2-.6.2-1c0-.4-.1-.7-.2-1c-.2-.3-.3-.5-.6-.7c-.2-.2-.5-.4-.8-.5c-.4-.1-.7-.2-1.1-.2zm-4.7 9.6l-.2-1.1c.7 0 1.5 0 2.3-.1h2.5c.8-.1 1.7-.1 2.6-.2c.9 0 1.7-.1 2.5-.3l.2 1.1c-.9.1-1.8.3-2.6.3c-.9.1-1.8.2-2.6.2c-.9.1-1.7.1-2.5.1h-2.2zM171.3.9h1.4v9.1h-1.4v-4h-2.9V4.9h2.9v-4zm-2.1 7.4l-.7 1.1c-.9-.3-1.6-.7-2.3-1.3c-.6-.6-1.1-1.3-1.4-2.1c-.3.9-.8 1.6-1.5 2.3c-.7.7-1.4 1.2-2.3 1.5l-.8-1.1c.6-.2 1.1-.5 1.6-.8c.5-.4.9-.8 1.2-1.2c.3-.4.6-.9.8-1.4c.2-.5.3-1.1.3-1.6c-.03-.01 0-.6 0-.6h-3.4V1.9h8.1v1.2h-3.3s-.04.59 0 .6c0 .5.1 1 .2 1.4c.2.5.5 1 .8 1.4c.3.4.7.8 1.2 1.1c.4.3.9.6 1.5.7zm-6.7 3.7v-1.1h10.2v5.3h-1.4V12h-8.8zm31.2-4.9v1.1h-2.5v7.9h-1.4V.9h1.4v6.2h2.5zm-9.1-4.9s-.03 2.76 0 2.8c0 .6.1 1.3.3 2c.2.6.5 1.2.8 1.8c.4.6.8 1.1 1.2 1.6c.5.5 1 .8 1.5 1.1l-.8 1.1c-.8-.4-1.6-1.1-2.2-1.9c-.7-.8-1.2-1.8-1.5-2.8c-.3 1.1-.8 2.1-1.5 3c-.7.8-1.4 1.5-2.3 2l-.8-1.1c.5-.3 1-.7 1.5-1.2c.5-.5.9-1 1.3-1.6c.3-.6.6-1.3.8-2c.2-.7.3-1.3.3-2V2.2h1.4zm21.2 1.7c-.03.04 0-.3 0-.3h-9.3V2.4h10.7s-.04 1.54 0 1.5v1.5c-.1.5-.1 1.1-.1 1.6c0 .6-.1 1.2-.2 1.9c-.1.6-.2 1.3-.3 2.1l-1.4-.2c.3-1.4.5-2.7.5-3.8c0-1.1.1-2.1.1-3.1zm-4 9h7v1.1H195v-1.1h5.4V7.4h1.4v5.5zm22.9-5.7v1.2h-2.4v7.7h-1.4V.9h1.4v6.3h2.4zM215.8 9v2.6c.7 0 1.4-.1 2.1-.1c.7-.1 1.4-.2 2-.2l.1 1l-2.4.3c-.9.1-1.7.1-2.5.2c-.8 0-1.6 0-2.4.1h-2.1l-.2-1.2h1.9c.7 0 1.4 0 2.1-.1V9c-.5 0-.9-.2-1.3-.4c-.4-.2-.8-.4-1.1-.7c-.3-.3-.5-.7-.7-1.1c-.1-.4-.2-.9-.2-1.3c0-.6.1-1 .3-1.5c.2-.4.4-.8.8-1.1c.4-.3.8-.6 1.3-.7c.5-.2 1-.3 1.6-.3c.6 0 1.1.1 1.6.3c.5.1.9.4 1.3.7c.4.3.6.7.8 1.1c.2.5.3.9.3 1.5c0 .4 0 .9-.2 1.3c-.2.4-.4.7-.7 1.1c-.3.3-.6.5-1 .7c-.5.2-.9.3-1.4.4zm-3.4-3.5c0 .7.3 1.3.8 1.7c.5.5 1.1.7 1.9.7c.8 0 1.4-.2 1.9-.7c.5-.4.8-1 .8-1.7c0-.4-.1-.7-.2-1c-.1-.3-.3-.6-.6-.8c-.2-.2-.5-.3-.8-.5c-.3-.1-.7-.1-1.1-.1c-.4 0-.7 0-1.1.1c-.3.2-.6.3-.8.5c-.3.2-.4.5-.6.8c-.1.3-.2.6-.2 1zm29.1 1.3c-.05-.02 2.2 0 2.2 0v1.1h-13.9V6.8s4.26-.02 4.3 0c.2-.9.4-1.8.4-2.4c.1-.7.2-1.3.2-1.8c0 .02-3.6 0-3.6 0V1.5h5s-.04.42 0 .4c0 .4-.1 1-.1 1.9c-.1.8-.2 1.8-.5 3h4.6c.2-.9.3-1.8.4-2.4c.1-.7.1-1.3.1-1.8c0 .02-3.5 0-3.5 0V1.5h4.9s-.04.64 0 .6c0 .5-.1 1.1-.1 1.9c0 .8-.2 1.7-.4 2.8zm-8.5 6.4v1.7h9.1v1h-10.5V9.5H242v1.1h-9v1.6h8.6v1H233zm23.5-7.6s-3.06.03-3.1 0c0 .5-.2.9-.4 1.2c-.2.4-.5.7-.8 1c-.3.2-.7.4-1.2.6c-.4.1-.9.2-1.4.2c-.6 0-1.1-.1-1.6-.3c-.5-.1-.9-.4-1.3-.7c-.3-.3-.6-.7-.8-1.1c-.2-.4-.3-.9-.3-1.4c0-.5.1-1 .3-1.4c.2-.5.5-.8.8-1.2c.4-.3.8-.5 1.3-.7c.5-.1 1-.2 1.6-.2c.5 0 .9 0 1.4.2c.4.1.8.3 1.2.6c.3.2.6.5.8.9c.2.3.4.7.4 1.2h3.1V.9h1.5v8.1h-1.5V5.6zm-6.9 1.8c.3 0 .7 0 1-.1c.3-.2.6-.3.8-.5c.3-.2.4-.5.6-.8c.1-.3.2-.6.2-.9c0-.4-.1-.7-.2-1c-.2-.2-.3-.5-.6-.7c-.2-.2-.5-.4-.8-.5c-.3-.1-.7-.2-1-.2c-.4 0-.8.1-1.1.2c-.3.1-.6.3-.8.5c-.2.2-.4.5-.5.7c-.2.3-.2.6-.2 1c0 .3 0 .6.2.9c.1.3.3.6.5.8c.2.2.5.3.8.5c.3.1.7.1 1.1.1zm7.1 2.3s.03 1.33 0 1.3c0 .4.1.8.2 1.2c.1.4.3.8.5 1.2l.9.9c.4.3.8.5 1.2.7l-.7 1.1c-.7-.3-1.3-.7-1.7-1.2c-.5-.5-.8-1-1-1.7c-.3.6-.6 1.2-1.1 1.7c-.4.5-1 .9-1.7 1.2l-.7-1.1c.5-.2.9-.4 1.2-.7c.3-.3.6-.6.9-1c.2-.3.4-.7.5-1.1c.1-.4.2-.8.2-1.2c-.03.03 0-1.3 0-1.3h1.3zm-5.6 2.1v-2h1.3v6.1h-5.3V9.8h1.3v2h2.7zm0 3.1v-2.1h-2.7v2.1h2.7zm22.1-9.4v1.1h-10.4V1.5h1.4v4h9zm-12.3 3.2h13.9v1.1h-13.9V8.7zm3.2 2.6v3.3h9.2v1.2h-10.6v-4.5h1.4zm23.7 1.8h6.3v1.1h-13.9v-1.1h6.2V9.2H282V2.1h10.3v1.2h-8.9v4.7h9.1v1.2h-4.7v3.9zm16.1-8h3V.9h1.4v11.2h-1.4V6.3h-3V5.1zm.9 3.6l-.7 1.1c-.9-.3-1.6-.8-2.2-1.4c-.7-.6-1.2-1.3-1.5-2.1c-.3.9-.8 1.7-1.5 2.4c-.7.6-1.4 1.1-2.3 1.4l-.8-1.1c.6-.2 1.1-.4 1.6-.8c.5-.3.9-.7 1.2-1.2c.3-.4.6-.9.8-1.4c.2-.5.3-1 .3-1.6c-.02.05 0-.7 0-.7h-3.4V2.1h8.1v1.2h-3.3s-.03.73 0 .7c0 .5.1 1 .2 1.5c.2.5.5.9.8 1.3c.3.4.7.8 1.2 1.1c.4.4.9.6 1.5.8zm-4.8 6h8.8v1.1h-10.2v-4.7h1.4v3.6zm18.2-8.3c-1.7 0-3-.2-3.9-.6c-1-.5-1.4-1.1-1.4-2c0-.9.4-1.5 1.4-2c.9-.4 2.2-.6 3.9-.6c1.7 0 3 .2 4 .6c.9.5 1.4 1.1 1.4 2c0 .9-.5 1.5-1.4 2c-1 .4-2.3.6-4 .6zm0-4.2c-1.2 0-2.2.1-2.9.4c-.7.3-1 .7-1 1.2c0 .5.3.9 1 1.2c.7.3 1.7.4 2.9.4c1.3 0 2.3-.1 2.9-.4c.7-.3 1-.7 1-1.2c0-.5-.3-.9-1-1.2c-.6-.3-1.6-.4-2.9-.4zm-6.9 5.3h13.8v1.1h-13.8V7.5zm3.1 5.8v1.6h9.4v1.1H313v-3.7h9V11h-9V9.9h10.4v3.4h-9zM338.2 9h6.2v1.1h-13.8V9h6.2V7.5h-4.4V1.3h10.3v1.1h-8.9v1.4h8.5v1.1h-8.5v1.5h9v1.1h-4.6v1.5zm-.7 2.3c1.7 0 3 .2 3.9.6c.9.4 1.3 1 1.3 1.8c0 .8-.4 1.4-1.3 1.8c-.9.4-2.2.6-3.9.6c-1.7 0-3-.2-3.9-.6c-.9-.4-1.3-1-1.3-1.8c0-.8.4-1.4 1.3-1.8c.9-.4 2.2-.6 3.9-.6zm0 3.8c1.2 0 2.2-.1 2.8-.4c.7-.2 1-.5 1-1c0-.5-.3-.8-1-1.1c-.6-.2-1.6-.3-2.8-.3c-1.2 0-2.2.1-2.8.3c-.7.3-1 .6-1 1.1c0 .5.3.8 1 1c.6.3 1.6.4 2.8.4zM357.7.9h1.4v15.2h-1.4V8.5h-1.9v6.9h-1.3V1.2h1.3v6.1h1.9V.9zm-7.1.4v2.2h3.1v1.1h-7.5V3.5h3V1.3h1.4zm-.7 4.4c.5 0 1 0 1.4.2c.3.2.7.4 1 .7c.3.3.5.7.7 1.1c.1.5.2.9.2 1.4c0 .6-.1 1-.2 1.4c-.2.5-.4.8-.7 1.1c-.3.4-.7.6-1 .8c-.4.1-.9.2-1.4.2c-.4 0-.9-.1-1.3-.2c-.4-.2-.7-.4-1-.8c-.3-.3-.5-.6-.7-1.1c-.1-.4-.2-.8-.2-1.4c0-.5.1-.9.2-1.4c.2-.4.4-.8.7-1.1c.3-.3.6-.5 1-.7c.4-.2.9-.2 1.3-.2zm0 5.8c.6 0 1.1-.3 1.5-.7c.4-.4.6-1 .6-1.7c0-.3-.1-.6-.2-.9c-.1-.3-.2-.5-.4-.7c-.2-.2-.4-.4-.6-.5c-.3-.1-.6-.2-.9-.2c-.6 0-1.1.2-1.4.7c-.4.4-.6.9-.6 1.6c0 .7.2 1.3.6 1.7c.4.4.9.7 1.4.7zM377.1.9h1.3v15.2h-1.3V8.2h-2v7.2h-1.4V1.2h1.4v5.8h2V.9zM370 2.3v2.9c0 .6.1 1.2.2 1.8c.2.7.4 1.2.6 1.8c.3.5.6 1 1 1.5c.4.4.9.8 1.4 1.1l-.8 1.1c-.8-.5-1.4-1-1.9-1.8c-.5-.7-.9-1.5-1.2-2.5c-.2 1-.7 1.9-1.2 2.7c-.5.9-1.2 1.5-1.9 2l-.9-1.1c.5-.3 1-.7 1.4-1.2c.4-.4.8-1 1.1-1.5c.2-.6.5-1.2.6-1.9c.2-.7.3-1.3.3-2c-.04.04 0-2.9 0-2.9h1.3zm18.6 10.8h6.2v1.2H381v-1.2h6.2v-2.8h-4.5V5.5h9.1V3.2h-9.1V2h10.4v4.7h-9v2.4h9.4v1.2h-4.9v2.8zm14.8-5.7c-.8 0-1.5-.1-2.1-.2c-.7-.1-1.3-.3-1.7-.6c-.5-.3-.9-.6-1.1-1c-.3-.3-.4-.8-.4-1.2c0-.5.1-.9.4-1.3c.2-.4.6-.7 1.1-1c.4-.2 1-.5 1.7-.6c.6-.1 1.3-.2 2.1-.2c.8 0 1.6.1 2.2.2c.7.1 1.3.4 1.7.6c.5.3.8.6 1.1 1c.3.4.4.8.4 1.3c0 .4-.1.9-.4 1.2c-.3.4-.6.7-1.1 1c-.4.3-1 .5-1.7.6c-.6.1-1.4.2-2.2.2zm0-5c-.5 0-1.1.1-1.5.1c-.5.1-.9.3-1.3.4c-.3.2-.6.4-.8.6c-.1.3-.2.5-.2.9c0 .2.1.5.2.8c.2.2.5.4.8.6c.4.1.8.2 1.3.3c.4.1 1 .2 1.5.2c1.2 0 2.2-.2 2.9-.5c.7-.4 1-.9 1-1.4c0-.7-.3-1.1-1-1.5c-.7-.3-1.7-.5-2.9-.5zm-6.9 6.2h13.9v1.2h-6.1v3.1h-1.4V9.8h-6.4V8.6zm3.2 2.8v3.3h9.1v1.1h-10.5v-4.4h1.4zM426.9.9h1.4v15.3h-1.4V.9zm-10.2 1.5h7v9.9h-7V2.4zm5.7 1.1h-4.3v7.7h4.3V3.5zM443 .9h1.3v15.2H443v-8h-2.2v7.3h-1.3V1.2h1.3v5.7h2.2v-6zm-9.8 7s.04 3.44 0 3.4c.9 0 1.8 0 2.6-.1c.8 0 1.7-.1 2.7-.3l.1 1.2c-1 .2-2 .3-2.9.3c-.9.1-1.9.1-2.8.1h-1V6.8h4.3V3.7h-4.3V2.6h5.7v5.3h-4.4zm24.4-4.3V2.3h-8.9v-1H459v3.2h-8.9v1.3h9.2v1h-10.6V3.6h8.9zM446.9 8h13.9v1h-13.9v-1zm3.1 5.5v1.4h9.5v1h-10.9v-3.3h9.1v-1.3h-9.1v-1h10.5v3.2H450zm25.1-5.1l-.6 1.1c-.9-.3-1.6-.7-2.3-1.2c-.6-.6-1.1-1.2-1.5-1.9c-.3.8-.8 1.5-1.4 2.1c-.7.6-1.5 1.1-2.4 1.4l-.7-1.1c.6-.2 1.1-.5 1.6-.8c.5-.3.9-.6 1.2-1c.3-.4.6-.9.8-1.3c.1-.5.2-1 .2-1.5c.03-.02 0-.3 0-.3h-3.4V2.8h3.4v-2h1.4v2h3.4v1.1h-3.4s.03.28 0 .3c0 .4.1.9.3 1.3c.2.5.4.9.8 1.2c.3.4.7.7 1.1 1c.5.3 1 .5 1.5.7zm3-3.6h2.2v1.2h-2.2v4.3h-1.4V.9h1.4v3.9zm-4.9 5.8c1.6 0 2.8.3 3.7.7c.9.5 1.3 1.2 1.3 2.1c0 .9-.4 1.5-1.3 2c-.9.5-2.1.7-3.7.7c-1.6 0-2.8-.2-3.7-.7c-.9-.5-1.3-1.1-1.3-2c0-.9.4-1.6 1.3-2.1c.9-.4 2.1-.7 3.7-.7zm0 4.4c1.1 0 2-.1 2.7-.4c.6-.3.9-.7.9-1.2c0-.6-.3-1-.9-1.3c-.7-.2-1.6-.4-2.7-.4c-1.2 0-2.1.2-2.7.4c-.6.3-.9.7-.9 1.3c0 .5.3.9.9 1.2c.6.3 1.5.4 2.7.4zm9.8-5.1l-.6-1.1c.7-.2 1.4-.4 2-.7c.7-.3 1.3-.7 1.8-1.1c.5-.4.9-.9 1.3-1.5c.3-.5.5-1.1.5-1.7c-.03-.04 0-.4 0-.4h-5.1V2.3h11.6v1.1h-5.1v.4c0 .6.2 1.1.5 1.7c.3.5.8 1 1.3 1.5c.5.4 1.1.8 1.8 1.1c.7.3 1.3.5 2 .6l-.6 1.1c-.6-.1-1.1-.3-1.7-.5c-.6-.3-1.1-.5-1.7-.9c-.5-.3-.9-.7-1.3-1.2c-.4-.4-.8-.9-1-1.4c-.2.5-.6 1-1 1.5c-.4.4-.8.8-1.3 1.1c-.5.4-1.1.7-1.7.9c-.5.3-1.1.5-1.7.6zm6.4 3.1h6.2v1.2h-13.8V13h6.2V9.3h1.4v3.7zm17-10.5v1.1h-9V2.5h3.8V.8h1.4v1.7h3.8zm5 2.5v1.1h-2.2v4h-1.4V.9h1.4v4.1h2.2zm-5.9 2.1c0 .4-.1.8-.2 1.1c-.2.4-.5.7-.8.9c-.3.2-.7.4-1.1.5c-.5.2-1 .2-1.5.2c-.6 0-1.1 0-1.5-.2c-.5-.1-.8-.3-1.2-.5c-.3-.2-.5-.5-.7-.9c-.2-.3-.3-.7-.3-1.1c0-.4.1-.8.3-1.1c.2-.3.4-.6.7-.9c.4-.2.7-.4 1.2-.5c.4-.1.9-.2 1.5-.2c.5 0 1 .1 1.5.2c.4.1.8.3 1.1.5c.3.3.6.6.8.9c.1.3.2.7.2 1.1zm-5.9 0c0 .5.2.9.6 1.2c.4.3 1 .5 1.7.5c.7 0 1.3-.2 1.7-.5c.4-.3.6-.7.6-1.2c0-.5-.2-.9-.6-1.2c-.4-.3-1-.4-1.7-.4c-.7 0-1.3.1-1.7.4c-.4.3-.6.7-.6 1.2zm0 8.8v-5h9.6v5h-9.6zm1.4-3.8v2.7h6.8v-2.7H501zm18.8-10.2c.8 0 1.5.1 2.2.3c.6.2 1.2.4 1.7.8c.5.4.9.8 1.2 1.3c.3.6.4 1.1.4 1.8c0 .6-.1 1.2-.4 1.7c-.3.5-.7 1-1.2 1.3c-.5.4-1.1.7-1.7.9c-.7.2-1.4.3-2.2.3c-.8 0-1.6-.1-2.2-.3c-.7-.2-1.3-.5-1.8-.9c-.5-.3-.9-.8-1.1-1.3c-.3-.5-.5-1.1-.5-1.7c0-.7.2-1.2.5-1.8c.2-.5.6-.9 1.1-1.3c.5-.4 1.1-.6 1.8-.8c.6-.2 1.4-.3 2.2-.3zm0 1.1c-.6 0-1.2.1-1.7.2c-.5.2-1 .4-1.3.6c-.4.3-.7.6-.9 1c-.2.4-.3.8-.3 1.3c0 .4.1.9.3 1.2c.2.4.5.7.9 1c.3.3.8.5 1.3.6c.5.2 1.1.2 1.7.2c.6 0 1.1 0 1.6-.2c.6-.1 1-.3 1.4-.6c.4-.3.7-.6.9-1c.2-.3.3-.8.3-1.2c0-.5-.1-.9-.3-1.3c-.2-.4-.5-.7-.9-1c-.4-.2-.8-.4-1.4-.6c-.5-.1-1-.2-1.6-.2zm-6.9 10h13.8v1.1h-13.8V13zm23.1.1h6.3v1.2h-13.9v-1.2h6.2v-2.8h-4.4V5.5h9V3.2h-9.1V2h10.5v4.7h-9.1v2.4h9.4v1.2H536v2.8zM555.4.9h1.4v15.2h-1.4V7.6h-2.7V6.4h2.7V.9zm-3.7 1.3v3.5c0 .5 0 1 .1 1.6c.1.5.2 1.1.4 1.6c.2.6.4 1.1.7 1.5c.3.5.7.9 1.2 1.3l-.9 1c-.6-.4-1-1-1.4-1.6c-.3-.6-.6-1.3-.8-2.1c-.1.8-.4 1.5-.7 2.2c-.4.6-.8 1.2-1.4 1.6c-.6-.4-1-1-1.4-1.6c-.3-.7-.6-1.4-.7-2.2c-.2.8-.5 1.4-.8 2.1c-.3.6-.8 1.1-1.3 1.5l-.9-.9c.4-.4.8-.8 1.1-1.3c.3-.5.6-1 .7-1.5c.2-.6.4-1.1.4-1.7c.1-.5.1-1 .1-1.5c.02-.02 0-3.5 0-3.5h1.3s.05 3.48 0 3.5c0 .4.1.8.1 1.2c0 .5.1 1 .2 1.4c.1.5.3 1 .5 1.4c.2.5.4.9.7 1.3c.3-.4.6-.8.8-1.2c.2-.5.3-.9.4-1.4c.1-.5.2-.9.2-1.4c.1-.5.1-.9.1-1.3c-.03-.02 0-3.5 0-3.5h1.3zM575.8.9v11.2h-1.4V.9h1.4zm-4.2 4.8c0 .6-.1 1.1-.3 1.5c-.2.5-.5.9-.9 1.2c-.3.4-.7.6-1.2.8c-.5.2-1 .3-1.6.3c-.6 0-1.1-.1-1.6-.3c-.5-.2-.9-.4-1.2-.8c-.4-.3-.7-.7-.9-1.2c-.2-.4-.3-.9-.3-1.5c0-.5.1-1 .3-1.5c.2-.5.5-.8.9-1.2c.3-.3.7-.6 1.2-.8c.5-.1 1-.2 1.6-.2c.6 0 1.1.1 1.6.2c.5.2.9.5 1.2.8c.4.4.7.7.9 1.2c.2.5.3 1 .3 1.5zm-6.6 0c0 .4.1.7.2 1c.1.4.3.6.5.9c.3.2.5.4.9.5c.3.1.6.2 1 .2c.4 0 .7-.1 1-.2c.4-.1.6-.3.9-.5c.2-.3.4-.5.5-.9c.2-.3.2-.6.2-1c0-.4 0-.7-.2-1c-.1-.3-.3-.6-.5-.8c-.3-.2-.5-.4-.9-.5c-.3-.2-.6-.2-1-.2c-.4 0-.7 0-1 .2c-.4.1-.6.3-.9.5c-.2.2-.4.5-.5.8c-.1.3-.2.6-.2 1zm2.4 9h8.8v1.1H566v-4.9h1.4v3.8zm22.2-10.3V2.6h-9.1V1.5H591v3.9h-9.1v1.9h9.4v1.1h-10.8v-4h9.1zm3.1 5.6v1.1H589v5.1h-1.3v-5.1h-3.9v5.1h-1.4v-5.1h-3.6V10h13.9zM605.4.9h1.4v15.3h-1.4V.9zM599.3 2c.6 0 1.2.1 1.7.3c.5.2.9.4 1.3.7c.3.3.6.7.8 1.1c.2.5.3 1 .3 1.5c0 .5-.1 1-.3 1.5c-.2.4-.5.8-.8 1.1c-.4.3-.8.6-1.3.7c-.5.2-1.1.3-1.7.3c-.6 0-1.1-.1-1.6-.3c-.5-.1-.9-.4-1.3-.7c-.4-.3-.6-.7-.8-1.1c-.2-.5-.3-1-.3-1.5c0-.5.1-1 .3-1.5c.2-.4.4-.8.8-1.1c.4-.3.8-.5 1.3-.7c.5-.2 1-.3 1.6-.3zm0 1.2c-.4 0-.7.1-1.1.2c-.3.1-.6.3-.8.5c-.3.2-.4.4-.6.7c-.1.3-.2.6-.2 1c0 .4.1.7.2 1c.2.3.3.5.6.7c.2.2.5.4.8.5c.4.1.7.2 1.1.2c.4 0 .8-.1 1.1-.2c.4-.1.7-.3.9-.5c.2-.2.4-.4.5-.7c.2-.3.3-.6.3-1c0-.4-.1-.7-.3-1c-.1-.3-.3-.5-.5-.7c-.2-.2-.5-.4-.9-.5c-.3-.1-.7-.2-1.1-.2zm-4.6 9.6l-.2-1.1c.7 0 1.4 0 2.2-.1h2.5c.9-.1 1.8-.1 2.6-.2c.9 0 1.8-.1 2.6-.3l.1 1.1c-.8.1-1.7.3-2.6.3c-.9.1-1.7.2-2.6.2c-.8.1-1.6.1-2.4.1h-2.2zM627.5 8h-6.3v2.6h4.5v5.3h-10.3v-5.3h4.5V8h-6.3V6.9s4.31-.02 4.3 0c.3-.9.4-1.7.5-2.4c.1-.7.1-1.3.1-1.7c.04-.05-3.5 0-3.5 0V1.6h4.9v.5c0 .4 0 1-.1 1.8c0 .8-.2 1.8-.5 3h4.7c.2-.9.3-1.7.4-2.4c0-.7.1-1.3.1-1.7c-.02-.05-3.5 0-3.5 0V1.6h4.8s.04.63 0 .6v1.9c-.1.8-.2 1.7-.4 2.8c-.04-.02 2.1 0 2.1 0v1.1zm-3.1 6.8v-3.1h-7.6v3.1h7.6zm11.7-8.4c-1.7 0-3-.2-3.9-.6c-1-.5-1.5-1.1-1.5-2c0-.9.5-1.5 1.5-2c.9-.4 2.2-.6 3.9-.6c1.7 0 3 .2 3.9.6c1 .5 1.5 1.1 1.5 2c0 .9-.5 1.5-1.5 2c-.9.4-2.2.6-3.9.6zm0-4.2c-1.3 0-2.2.1-2.9.4c-.7.3-1 .7-1 1.2c0 .5.3.9 1 1.2c.7.3 1.6.4 2.9.4c1.3 0 2.2-.1 2.9-.4c.7-.3 1-.7 1-1.2c0-.5-.3-.9-1-1.2c-.7-.3-1.6-.4-2.9-.4zm-6.9 5.3H643v1.1h-13.8V7.5zm3.1 5.8v1.6h9.4v1.1h-10.8v-3.7h9V11h-9V9.9h10.3v3.4h-8.9zM661 .9v7.9h-1.4V.9h1.4zm-3.3 6.4l-.7 1.1c-.9-.3-1.6-.8-2.3-1.4c-.7-.6-1.2-1.3-1.5-2.1c-.3.8-.8 1.6-1.5 2.3c-.7.6-1.5 1.1-2.4 1.5l-.7-1.1c.6-.2 1.1-.5 1.6-.9c.5-.3.9-.7 1.2-1.1c.3-.5.6-.9.8-1.5c.2-.5.3-1 .3-1.6c-.02.02 0-1.1 0-1.1h1.4s-.03 1.12 0 1.1c0 .5.1 1 .3 1.5c.2.5.4 1 .8 1.4c.3.4.7.8 1.2 1.1c.5.3 1 .6 1.5.8zm-5.2 7.6h9v1.1h-10.3v-3.8h8.4v-1.5h-8.5V9.6h9.9v3.6h-8.5v1.7zm20.1-12.1v1.1h-8.5V2.8h3.6V.9h1.4v1.9h3.5zm0 2.2h2.6V.9h1.4v11.6h-1.4V9.3h-2.6V8.2h2.6V6.1h-2.6V5zm-.7 2.6c0 .5-.1.9-.3 1.2c-.2.4-.4.7-.7.9c-.3.3-.7.5-1.1.6c-.4.2-.9.3-1.4.3c-.5 0-1-.1-1.4-.3c-.4-.1-.8-.3-1.1-.6c-.3-.2-.5-.5-.7-.9c-.2-.3-.2-.7-.2-1.2c0-.4 0-.8.2-1.1c.2-.4.4-.7.7-1c.3-.2.7-.4 1.1-.6c.4-.1.9-.2 1.4-.2c.5 0 1 .1 1.4.2c.4.2.8.4 1.1.6c.3.3.5.6.7 1c.2.3.3.7.3 1.1zm-5.6 0c0 .6.2 1 .6 1.4c.3.3.9.5 1.5.5c.7 0 1.2-.2 1.6-.5c.3-.4.5-.8.5-1.4c0-.5-.2-.9-.5-1.3c-.4-.3-.9-.5-1.6-.5c-.6 0-1.2.2-1.5.5c-.4.4-.6.8-.6 1.3zm1.9 7.1h8.8v1.1h-10.2v-4.3h1.4v3.2zm20.5-12.2v1.1h-9V2.5h3.7V.7h1.4v1.8h3.9zm5 2.3v1.1h-2.3v3.9H690V.9h1.4v3.9h2.3zM687.8 7c0 .4-.1.7-.3 1.1c-.1.3-.4.6-.7.8c-.3.2-.7.4-1.2.6c-.4.1-.9.1-1.5.1c-.5 0-1 0-1.4-.1c-.5-.2-.9-.4-1.2-.6c-.3-.2-.6-.5-.7-.8c-.2-.4-.3-.7-.3-1.1c0-.4.1-.8.3-1.1c.1-.3.4-.6.7-.9c.3-.2.7-.4 1.2-.5c.4-.1.9-.2 1.4-.2c.6 0 1.1.1 1.5.2c.5.1.9.3 1.2.5c.3.3.6.6.7.9c.2.3.3.7.3 1.1zm-6 0c0 .5.2.9.7 1.2c.4.2.9.4 1.6.4c.8 0 1.3-.2 1.7-.4c.5-.3.7-.7.7-1.2c0-.5-.2-.9-.7-1.2c-.4-.3-.9-.4-1.7-.4c-.7 0-1.2.1-1.6.4c-.5.3-.7.7-.7 1.2zm8.3 5.1v-1.7h1.3v5.5h-9.5v-5.5h1.3v1.7h6.9zm0 2.7v-1.7h-6.9v1.7h6.9zM706.3.9h1.4v15.2h-1.4V.9zm-8.8 1.5v8.6c1.2 0 2.3 0 3.5-.1c1.2-.2 2.4-.3 3.7-.6l.2 1.2c-1.4.3-2.7.5-3.9.6c-1.2.1-2.4.1-3.6.1h-1.3V2.4h1.4zM725 6.9v1.2h-2.6v8.1h-1.3V.9h1.3v6h2.6zm-12.2-3.4s-.04 7.69 0 7.7h1.9c.6-.1 1.1-.1 1.7-.1c.5-.1 1.1-.1 1.6-.2c.5 0 1.1-.1 1.6-.2l.2 1.1c-.6.1-1.2.2-1.7.3c-.6.1-1.1.1-1.7.2c-.6 0-1.2 0-1.8.1h-2c-.03-.02-1.2 0-1.2 0v-10h7.1v1.1h-5.7zm13.3 11.6v-1.6h1.5v1.6h-1.5z" stroke="none" fill="#fff"/></g></svg>