<?xml version="1.0" standalone="no"?><!DOCTYPE svg PUBLIC "-//W3C//DTD SVG 1.1//EN" "http://www.w3.org/Graphics/SVG/1.1/DTD/svg11.dtd"><svg xmlns="http://www.w3.org/2000/svg" version="1.1" width="109.1px" height="44.7px" viewBox="0 -3 109.1 44.7" style="top:-3px"><desc>글로벌 지향 Globality</desc><defs/><g id="Polygon110865"><path d="m4.7 35.2c-.6 0-1.1-.1-1.6-.3c-.5-.2-.9-.5-1.3-.9c-.4-.4-.6-.8-.8-1.4c-.2-.6-.3-1.2-.3-1.9c0-.8.1-1.4.3-2c.2-.5.5-1 .8-1.4c.4-.4.8-.7 1.3-.9c.5-.2 1.1-.3 1.7-.3c.3 0 .6 0 .8.1c.3 0 .5.1.8.2c.2.1.4.2.5.4c.2.1.4.2.5.4l-.8.9c-.2-.3-.4-.4-.7-.6c-.3-.2-.7-.2-1.1-.2c-.4 0-.8.1-1.1.2c-.3.2-.6.4-.9.7c-.2.3-.4.6-.5 1c-.2.4-.2.9-.2 1.4c0 1.1.2 1.9.7 2.5c.5.6 1.2.9 2.1.9c.2 0 .5 0 .8-.1l.6-.3c-.03-.03 0-2.1 0-2.1H4.5v-1.1h3s.03 3.78 0 3.8c-.3.3-.7.5-1.1.7c-.5.2-1.1.3-1.7.3zm4.6-.1v-9.6h1.3v9.6H9.3zm5.9.1c-.4 0-.8-.1-1.2-.2c-.3-.2-.7-.4-.9-.7c-.3-.3-.6-.6-.7-1.1c-.2-.4-.3-.9-.3-1.4c0-.6.1-1.1.3-1.5c.1-.4.4-.8.7-1.1c.2-.3.6-.5.9-.7c.4-.1.8-.2 1.2-.2c.4 0 .8.1 1.2.2c.4.2.7.4 1 .7c.3.3.5.7.7 1.1c.1.4.2.9.2 1.5c0 .5-.1 1-.2 1.4c-.2.5-.4.8-.7 1.1c-.3.3-.6.5-1 .7c-.4.1-.8.2-1.2.2zm0-1.1c.5 0 1-.2 1.3-.6c.3-.5.4-1 .4-1.7c0-.7-.1-1.3-.4-1.7c-.3-.5-.8-.7-1.3-.7c-.5 0-.9.2-1.2.7c-.3.4-.5 1-.5 1.7c0 .7.2 1.2.5 1.7c.3.4.7.6 1.2.6zm7.7 1.1c-.3 0-.6-.1-.9-.2c-.3-.1-.6-.4-.9-.6c.02-.02 0 0 0 0l-.1.7h-1.1v-9.6h1.3v3.7c.3-.3.6-.5.9-.7c.4-.1.7-.2 1.1-.2c.4 0 .8.1 1.1.2c.3.2.6.4.8.7c.2.3.4.7.5 1.1c.1.4.2.8.2 1.4c0 .5-.1 1-.2 1.5c-.2.4-.4.8-.7 1.1c-.2.3-.5.5-.9.7c-.3.1-.7.2-1.1.2zm-.2-1.1c.5 0 .9-.2 1.2-.6c.3-.5.5-1 .5-1.8c0-.7-.2-1.3-.4-1.7c-.2-.4-.6-.6-1.2-.6c-.5 0-1 .3-1.6.8v3.3c.3.2.6.4.8.4c.2.1.5.2.7.2zm6.2 1.1c-.3 0-.5 0-.8-.1c-.2-.1-.4-.2-.6-.4c-.1-.2-.3-.4-.4-.6c-.1-.2-.1-.5-.1-.8c0-.4 0-.7.2-1c.1-.4.4-.7.7-.9c.3-.1.8-.3 1.3-.4c.5 0 1-.1 1.7-.1v-.6c-.1-.2-.1-.3-.2-.5c-.1-.1-.3-.2-.4-.3c-.2 0-.4-.1-.6-.1c-.4 0-.7.1-1.1.2c-.3.2-.6.3-.9.5l-.4-1c.3-.2.7-.4 1.1-.6c.5-.1 1-.2 1.5-.2c.8 0 1.4.2 1.8.7c.4.5.6 1.2.6 2.1v4h-1.1l-.1-.8s-.08.04-.1 0c-.3.3-.6.5-.9.7c-.4.1-.8.2-1.2.2zm.4-1.1c.3 0 .6 0 .8-.2c.3-.1.6-.3.8-.5v-1.6c-.3 0-.6 0-.8.1h-.6c-.2.1-.4.1-.5.2c-.2 0-.3.1-.4.2c-.2.2-.3.3-.3.5v.4c0 .3.1.6.3.7c.2.2.4.2.7.2zm4.8 1v-9.6h1.4v9.6h-1.4zm3.1-9.4h1.5v1.5h-1.5v-1.5zm1.4 9.4h-1.3v-6.6h1.3v6.6zm4.1.1c-.4 0-.7 0-1-.2c-.2-.1-.4-.2-.6-.4c-.1-.2-.3-.5-.3-.8c-.1-.2-.1-.6-.1-.9c-.03 0 0-3.3 0-3.3h-1v-1.1h1l.2-1.9h1.2v1.9h1.7v1.1h-1.7s-.05 3.31 0 3.3c0 .4 0 .7.2.9c.1.2.4.3.7.3h.4c.1-.1.2-.1.3-.1l.3 1c-.2 0-.4.1-.6.1c-.3.1-.5.1-.7.1zm7.8-6.7l-3.3 9.3h-1.3l1-2.8l-2.6-6.5h1.4s1.21 3.36 1.2 3.4l.3.9l.3.9c.01.02.1 0 .1 0l.5-1.8l1-3.4h1.4z" stroke="none" fill="#fff"/></g><g id="Polygon110864"><path d="m12.4 6.3c0-.03 2 0 2 0v1.7H.2V6.3s9.95-.03 10 0c.1-.7.2-1.2.2-1.7c0-.5.1-1 .1-1.4c-.03-.04-8.6 0-8.6 0V1.4h10.8s-.02 1.05 0 1v1.8c-.1.6-.2 1.3-.3 2.1zM4 13.5v1.1h9v1.7H1.8v-4.4h8.6v-1.1H1.8V9.1h10.9v4.4H4zm19.9-.6h6v1.8H15.7v-1.8h6v-2.4h-4.3V5.2h8.7V3.6h-8.8V1.8h11v5.2h-8.7v1.7h9.1v1.8h-4.8v2.4zm15.4-7.2v2.6h-7.4V1.4h2.3v1.8h2.9V1.4h2.2v2.5h2.8V.8h2.3v7.9h-2.3v-3h-2.8zm-2.2.9V4.9h-2.9v1.7h2.9zm-.8 7.9h8.5v1.7H34.1V12h8v-.9H34V9.4h10.4v4.2h-8.1v.9zM61.3.8h2.3v15.6h-2.3V.8zm-4.6 3.3s-.04.88 0 .9c0 .6 0 1.3.2 1.9c.2.6.4 1.2.7 1.8c.3.6.7 1.1 1.2 1.5c.5.5 1.1.9 1.7 1.1l-1.2 1.8c-.9-.4-1.7-1-2.3-1.7c-.6-.7-1.1-1.5-1.4-2.5c-.4 1-.9 1.9-1.5 2.7c-.6.8-1.4 1.5-2.3 1.9l-1.3-1.8c.6-.3 1.2-.7 1.7-1.2c.5-.5.9-1 1.2-1.6c.3-.6.6-1.2.7-1.9c.2-.7.3-1.4.3-2c-.01-.02 0-.9 0-.9h-3.3V2.3h8.8v1.8h-3.2zm18.7-1.8v1.7h-9.2V2.3h3.4V.7h2.3v1.6h3.5zm5.1 2.5h-2v1.6h2v1.8h-2v2.5h-2.3V.8h2.3v2.2h2v1.8zm-5.9 2.5c0 .4-.1.8-.3 1.2c-.2.3-.4.6-.8.8c-.3.3-.7.5-1.2.6c-.4.1-1 .2-1.5.2c-.6 0-1.1-.1-1.6-.2c-.5-.1-.9-.3-1.2-.6c-.3-.2-.6-.5-.8-.8c-.2-.4-.3-.8-.3-1.2c0-.4.1-.8.3-1.1c.2-.4.5-.7.8-.9c.3-.2.7-.4 1.2-.6c.5-.1 1-.2 1.6-.2c.5 0 1.1.1 1.5.2c.5.2.9.4 1.2.6c.4.2.6.5.8.9c.2.3.3.7.3 1.1zm-5.5 0c0 .4.1.7.4.9c.4.2.8.3 1.3.3c.5 0 .9-.1 1.2-.3c.3-.2.5-.5.5-.9c0-.4-.2-.6-.5-.8c-.3-.2-.7-.3-1.2-.3c-.5 0-.9.1-1.3.3c-.3.2-.4.4-.4.8zm4.3 3.6c.8 0 1.5 0 2.2.2c.6.1 1.2.3 1.6.5c.5.2.8.5 1.1.9c.2.3.3.7.3 1.2c0 .4-.1.8-.3 1.1c-.3.4-.6.7-1.1.9c-.4.2-1 .4-1.6.5c-.7.2-1.4.2-2.2.2c-.8 0-1.5 0-2.2-.2c-.6-.1-1.2-.3-1.7-.5c-.4-.2-.8-.5-1-.9c-.2-.3-.4-.7-.4-1.1c0-.5.2-.9.4-1.2c.2-.4.6-.7 1-.9c.5-.2 1.1-.4 1.7-.5c.7-.2 1.4-.2 2.2-.2zm-3 2.8c0 .7 1 1.1 3 1.1c2 0 3-.4 3-1.1c0-.8-1-1.2-3-1.2c-2 0-3 .4-3 1.2z" stroke="none" fill="#fff"/></g></svg>