<?xml version="1.0" standalone="no"?><!DOCTYPE svg PUBLIC "-//W3C//DTD SVG 1.1//EN" "http://www.w3.org/Graphics/SVG/1.1/DTD/svg11.dtd"><svg xmlns="http://www.w3.org/2000/svg" version="1.1" width="36px" height="88.4px" viewBox="0 -11 36 88.4" style="top:-11px"><desc>e</desc><defs/><g id="Polygon109277"><path d="m11.3 33.8h13.4c0-1.9-.6-3.6-1.8-5.2c-1.1-1.6-2.8-2.3-5-2.3c-2.2 0-3.9.8-5 2.3c-1.1 1.6-1.6 3.4-1.6 5.2zm0 7.1c.2 1.6.9 3 2.3 4.3c1.3 1.3 3.3 2.1 6 2.2c3.6.3 7.7-.2 12.3-1.4v7.3c-4.1 1.2-8.2 1.8-12.3 1.6c-5.4-.1-9.6-1.7-12.7-4.8c-3.1-3-4.7-7.4-4.7-13.2c0-5.6 1.5-10 4.5-13.2c3-3.3 6.8-4.9 11.2-4.9c4.6 0 8.4 1.6 11.3 5c2.9 3.3 4.4 7.8 4.4 13.5c-.03-.05 0 3.6 0 3.6c0 0-22.28.04-22.3 0z" stroke="none" fill="#fff"/></g></svg>