<?xml version="1.0" standalone="no"?><!DOCTYPE svg PUBLIC "-//W3C//DTD SVG 1.1//EN" "http://www.w3.org/Graphics/SVG/1.1/DTD/svg11.dtd"><svg xmlns="http://www.w3.org/2000/svg" version="1.1" width="120px" height="52.3px" viewBox="0 -2 120 52.3" style="top:-2px"><desc>새로운 가능성에 도전하며, 반드시 목표를 달성합니다.</desc><defs/><g id="Polygon110608"><path d="m7.6 21.8h1.4v.7H7.6v3.3h-.8v-6.7h.8v2.7zm-2.4-2.1v4.5H.9v-4.5h.8v1.5h2.6v-1.5h.9zm-.9 3.9v-1.7H1.7v1.7h2.6zm-1.5 1.5v2.2h5.2v.7H1.9v-2.9h.9zm14.3-1.7v.7h-6.3v-4.2h6.2v.7h-5.4v2.8h5.5zm-7.4 2.9h8.3v.7H9.7v-.7zM25.6 19h.8v9.2h-.8V19zm-3.5.8s.04 1.68 0 1.7c0 .4.1.8.2 1.2c.2.4.3.8.6 1.2c.2.3.4.6.7.9c.3.3.7.5 1 .6l-.5.7c-.5-.2-1-.6-1.4-1.1c-.4-.5-.7-1.1-1-1.8c-.2.7-.5 1.3-.9 1.9c-.4.5-.9.9-1.4 1.2l-.5-.7c.3-.2.6-.4.9-.7c.3-.2.6-.6.8-.9c.2-.4.4-.8.5-1.2c.2-.5.2-.9.2-1.3c.02-.02 0-1.7 0-1.7h.8zm12.6 3.9h3.7v.7h-8.2v-.7h3.7v-1.2h-2.7v-3.1h6.2v3.1h-2.7v1.2zM32 20.1v1.8h4.5v-1.8H32zm-.9 5.9v-.7h6.3v2.9h-.8V26h-5.5zm14.2.4h2.3v.7h-8.3v-.7h2.3v-2.2h-1.5v-.7h1.4v-2.9h-1.4v-.7h6.8v.7h-1.5v2.9h1.4v.7h-1.5v2.2zm-3-5.8v2.9h2.3v-2.9h-2.3zm.2 3.6v2.2h2v-2.2h-2zm12.4-3.6v-.7h-5.3v-.6h6.2v1.9h-5.4v.8h5.5v.6h-6.3v-2h5.3zm-6.4 2.7h8.3v.6h-8.3v-.6zm1.9 3.3v.9h5.7v.6h-6.6V26h5.5v-.7h-5.5v-.6h6.3v1.9h-5.4zM66.9 21h1.3v.7h-1.3v1.9h-.9V19h.9v2zm-1.8 1.3l.1.7c-.3 0-.7.1-1 .1c-.3.1-.6.1-.9.1c-.4.1-.7.1-1.1.1h-2v-3.7h4v.6H61s.02 2.43 0 2.4h2.2c.4-.1.7-.1 1-.1c.3-.1.6-.1.9-.2zm-3.2 4.1v1h5.3v.7h-6.1v-2.4h5v-.9h-5v-.7h5.8v2.3h-5zm13.8-1.9v-2.8h-2v-.7h2v-1.9h.8v5.4h-.8zm-1.4-1.1l-.4.6c-.5-.2-1-.4-1.3-.8c-.4-.3-.7-.7-.9-1.2c-.2.5-.5 1-.9 1.4c-.4.4-.9.7-1.4.9l-.4-.7c.3-.1.6-.3.9-.5c.3-.2.5-.4.7-.7c.2-.3.4-.6.5-.9c.1-.3.2-.7.2-1c-.03 0 0-.9 0-.9h.8v.9c0 .3.1.6.2.9c.1.3.2.6.4.8c.2.3.4.5.7.7c.3.2.6.4.9.5zm-.8 1.3c.4 0 .9.1 1.2.1c.4.1.7.2 1 .4c.3.1.5.3.6.5c.2.2.2.5.2.8c0 .2 0 .5-.2.7c-.1.2-.3.4-.6.5c-.3.2-.6.3-1 .4c-.3 0-.8.1-1.2.1c-.5 0-.9-.1-1.3-.1c-.4-.1-.7-.2-.9-.4c-.3-.1-.5-.3-.7-.5c-.1-.2-.2-.5-.2-.7c0-.3.1-.6.2-.8c.2-.2.4-.4.7-.5c.2-.2.5-.3.9-.4c.4 0 .8-.1 1.3-.1zm0 2.8c.7 0 1.2-.1 1.6-.3c.4-.2.6-.4.6-.7c0-.4-.2-.7-.6-.8c-.4-.2-.9-.3-1.6-.3c-.7 0-1.3.1-1.7.3c-.3.1-.5.4-.5.8c0 .3.2.5.5.7c.4.2 1 .3 1.7.3zM83.6 20v.7h-5.4v-.7h2.2v-1.1h.9v1.1h2.3zm3 1.4v.7h-1.4v2.3h-.8V19h.8v2.4h1.4zm-3.5 1.3c0 .2-.1.4-.2.6c-.1.2-.3.4-.4.5c-.2.2-.5.3-.7.4c-.3 0-.6.1-.9.1c-.4 0-.7-.1-.9-.1c-.3-.1-.5-.2-.7-.4c-.2-.1-.4-.3-.5-.5c-.1-.2-.1-.4-.1-.6c0-.3 0-.5.1-.7c.1-.2.3-.3.5-.5c.2-.1.4-.2.7-.3c.2-.1.5-.1.9-.1c.3 0 .6 0 .9.1c.2.1.5.2.7.3c.1.2.3.3.4.5c.1.2.2.4.2.7zm-3.6 0c0 .3.1.5.4.7c.2.2.5.3 1 .3c.4 0 .7-.1 1-.3c.2-.2.4-.4.4-.7c0-.3-.2-.6-.4-.7c-.3-.2-.6-.3-1-.3c-.5 0-.8.1-1 .3c-.3.1-.4.4-.4.7zm4.9 3v-.9h.8v3.3h-5.7v-3.3h.8v.9h4.1zm0 1.7v-1h-4.1v1h4.1zM94 19h.8v9.2h-.8V19zm-5.3.9s.03 5.21 0 5.2c.7 0 1.4 0 2.1-.1l2.2-.3l.1.7c-.8.2-1.5.3-2.3.3c-.7.1-1.4.1-2.2.1c.05.02-.7 0-.7 0v-5.9h.8zm16.3 2.8v.6h-1.5v4.9h-.8V19h.8v3.7h1.5zm-7.3-2.1s.03 4.61 0 4.6h2.2c.3-.1.7-.1 1-.1c.3-.1.6-.1.9-.2l.1.7c-.3.1-.6.1-1 .2c-.3 0-.7 0-1 .1h-2.3c.01.03-.7 0-.7 0v-6h4.2v.7h-3.4zm7.9 7v-1h.9v1h-.9z" stroke="none" fill="#fff"/></g><g id="Polygon110607"><path d="m7.5.5h.8v9.2h-.8V4.9H6.3v4.3h-.8V.7h.8v3.5h1.2V.5zm-4.2.9s-.03 1.71 0 1.7c0 .4 0 .8.1 1.1c.1.4.2.7.4 1.1c.1.3.3.6.6.9c.2.2.5.5.8.6l-.5.7c-.4-.3-.8-.6-1.1-1.1c-.3-.4-.6-.9-.7-1.5c-.2.6-.4 1.2-.8 1.7c-.3.5-.7.8-1.1 1.1l-.6-.6c.4-.2.6-.4.9-.7c.2-.3.4-.6.6-1c.2-.3.3-.7.4-1.1c.1-.4.2-.8.2-1.2c-.03.04 0-1.7 0-1.7h.8zm11 6.5h3.7v.7H9.7v-.7h3.7V6.2h-2.6V3.3h5.4V1.9h-5.5v-.7h6.3v2.8h-5.4v1.5h5.6v.7h-2.9v1.7zM23 4.4c-.5 0-.9 0-1.3-.1c-.4-.1-.7-.2-1-.3c-.3-.2-.5-.4-.6-.6c-.2-.2-.3-.5-.3-.8c0-.3.1-.5.3-.8c.1-.2.3-.4.6-.5c.3-.2.6-.3 1-.4c.4-.1.8-.1 1.3-.1c.5 0 1 0 1.3.1c.4.1.8.2 1.1.4c.2.1.5.3.6.5c.2.3.2.5.2.8c0 .3 0 .6-.2.8c-.1.2-.4.4-.6.6c-.3.1-.7.2-1.1.3c-.3.1-.8.1-1.3.1zm0-3c-.3 0-.6.1-.9.1c-.3.1-.5.2-.8.3c-.2.1-.3.2-.4.3c-.1.2-.2.3-.2.5c0 .2.1.3.2.5c.1.1.2.3.4.4c.3.1.5.1.8.2c.3 0 .6.1.9.1c.7 0 1.3-.1 1.7-.3c.4-.3.7-.5.7-.9c0-.4-.3-.6-.7-.8c-.4-.2-.9-.4-1.7-.4zm-4.1 3.8h8.3v.7h-3.7v1.8h-.8V5.9h-3.8v-.7zm1.9 1.6v2h5.5v.7H20V6.8h.8zm17.9-2.5v.6h-1.5v4.8h-.8V.5h.8v3.8h1.5zm-8-2.8s4.13.02 4.1 0c0 .7 0 1.3-.2 1.9c-.2.6-.4 1.2-.7 1.8c-.4.5-.8 1-1.3 1.5c-.5.5-1.2.9-1.9 1.3l-.5-.7c1.2-.6 2.1-1.3 2.7-2.2c.7-.8 1-1.8 1.1-2.9c.01.01-3.3 0-3.3 0v-.7zm16 1.6v.7h-6.2V.7h.8v2.4h5.4zm-7.3 1.7h8.2v.7h-8.2v-.7zm4.1 1.5c.9 0 1.7.2 2.3.5c.5.3.8.7.8 1.2c0 .5-.3.9-.8 1.2c-.6.3-1.4.5-2.3.5c-1 0-1.8-.2-2.3-.5c-.6-.3-.9-.7-.9-1.2c0-.5.3-.9.9-1.2c.5-.3 1.3-.5 2.3-.5zm0 2.7c.7 0 1.3-.1 1.7-.3c.4-.1.6-.4.6-.7c0-.3-.2-.6-.6-.8c-.4-.1-1-.2-1.7-.2c-.7 0-1.3.1-1.7.2c-.4.2-.6.5-.6.8c0 .3.2.6.6.7c.4.2 1 .3 1.7.3zm11.7-3V3.2h-2v-.7h2V.6h.9v5.4h-.9zm-1.3-1.1l-.5.6c-.5-.2-.9-.4-1.3-.8c-.4-.3-.6-.7-.8-1.2c-.2.5-.5 1-.9 1.4c-.4.4-.9.7-1.5.9l-.4-.7c.4-.1.7-.3 1-.5c.3-.2.5-.4.7-.7c.2-.3.4-.6.5-.9c.1-.3.1-.7.1-1c.03 0 0-.9 0-.9h.9s-.04.87 0 .9c0 .3 0 .6.1.9c.1.3.3.6.5.8c.2.3.4.5.7.7c.2.2.6.4.9.5zM53 6.2c.5 0 .9.1 1.3.1c.4.1.7.2 1 .4c.2.1.4.3.6.5c.1.2.2.5.2.8c0 .2-.1.5-.2.7c-.2.2-.4.4-.6.5c-.3.2-.6.3-1 .4c-.4 0-.8.1-1.3.1c-.4 0-.9-.1-1.2-.1c-.4-.1-.7-.2-1-.4c-.3-.1-.5-.3-.6-.5c-.1-.2-.2-.5-.2-.7c0-.3.1-.6.2-.8c.1-.2.3-.4.6-.5c.3-.2.6-.3 1-.4c.3 0 .8-.1 1.2-.1zM53 9c.7 0 1.3-.1 1.7-.3c.4-.2.6-.4.6-.7c0-.4-.2-.7-.6-.8c-.4-.2-1-.3-1.7-.3c-.7 0-1.2.1-1.6.3c-.4.1-.6.4-.6.8c0 .3.2.5.6.7c.4.2.9.3 1.6.3zM64.7.5h.8v9.2h-.8V.5zm-1.8 3.6V.7h.8v8.5h-.8V4.8s-1.19-.02-1.2 0c0 .4-.1.8-.2 1.2c-.1.3-.2.7-.4.9c-.1.3-.3.4-.6.6c-.2.1-.4.2-.7.2c-.3 0-.6-.1-.8-.2c-.3-.2-.5-.4-.7-.7c-.1-.3-.3-.6-.3-1c-.1-.4-.2-.8-.2-1.3c0-.5.1-1 .2-1.3c0-.4.2-.8.3-1c.2-.3.4-.5.7-.7c.2-.1.5-.2.8-.2c.3 0 .5.1.7.2c.3.1.4.3.6.6c.2.2.3.5.4.8c.1.4.2.8.2 1.2h1.2zm-3.1 2.8c.3 0 .6-.2.8-.6c.2-.5.4-1.1.4-1.8c0-.4-.1-.7-.1-1c-.1-.3-.2-.6-.3-.8c-.1-.2-.2-.3-.3-.5c-.2-.1-.4-.1-.5-.1c-.4 0-.7.2-.9.6c-.2.5-.3 1-.3 1.8c0 .7.1 1.3.3 1.8c.2.4.5.6.9.6zm13.7.9h3.8v.7H69v-.7h3.7V5.5H70V1.3h6.2v.7h-5.4v2.8h5.5v.7h-2.8v2.3zM83 3.1h1.8V.6h.9v6.7h-.9V3.8H83v-.7zm.5 2.1l-.4.7c-.5-.2-.9-.5-1.3-.8c-.4-.4-.7-.8-.9-1.3c-.2.5-.5 1-.9 1.4c-.4.4-.9.7-1.4.9l-.4-.7c.3-.1.6-.3.9-.5c.3-.2.5-.4.7-.7c.2-.2.4-.5.5-.8c.1-.3.2-.6.2-1c-.02.03 0-.4 0-.4h-2.1v-.7h4.9v.7h-2v.4c0 .3.1.6.2.9c.1.3.2.5.4.8l.7.7c.3.2.6.3.9.4zm-2.8 3.6h5.2v.7h-6.1V6.7h.9v2.1zm15.2-4.5v.7h-1.5v4.7h-.9V.6h.9v3.7h1.5zM90.4.7v1.3h2.3v.7h-5.4v-.7h2.3V.7h.8zM90 3.4c.3 0 .6.1.9.2c.3.1.5.2.7.4c.2.2.4.4.5.7c.1.3.1.5.1.8c0 .4 0 .6-.1.9c-.1.3-.3.5-.5.7c-.2.2-.4.3-.7.4c-.3.1-.6.1-.9.1c-.3 0-.6 0-.9-.1c-.3-.1-.5-.2-.7-.4c-.2-.2-.3-.4-.4-.7c-.2-.3-.2-.5-.2-.9c0-.3 0-.5.2-.8c.1-.3.2-.5.4-.7c.2-.2.4-.3.7-.4c.3-.1.6-.2.9-.2zM90 7c.2 0 .4-.1.6-.2c.2 0 .3-.1.4-.2c.2-.2.3-.3.3-.5c.1-.2.1-.3.1-.6c0-.2 0-.3-.1-.5c0-.2-.1-.3-.3-.5c-.1-.1-.2-.2-.4-.3c-.2 0-.4-.1-.6-.1c-.2 0-.4.1-.6.1c-.1.1-.3.2-.4.3c-.1.2-.2.3-.3.5c-.1.2-.1.3-.1.5c0 .3 0 .4.1.6c.1.2.2.3.3.5c.1.1.3.2.4.2c.2.1.4.2.6.2zM103.2.5h.8v9.2h-.8V5.9H101v1.5h-4.1v-6h4.1v1.3h2.2V.5zm-3 6.2V2.1h-2.5v4.6h2.5zm.8-1.4h2.2V3.4H101v1.9zm4.3 4.4l.4-2.1h.9l-.6 2.1h-.7z" stroke="none" fill="#fff"/></g></svg>