<?xml version="1.0" standalone="no"?><!DOCTYPE svg PUBLIC "-//W3C//DTD SVG 1.1//EN" "http://www.w3.org/Graphics/SVG/1.1/DTD/svg11.dtd"><svg xmlns="http://www.w3.org/2000/svg" version="1.1" width="120px" height="54.3px" viewBox="0 -2 120 54.3" style="top:-2px"><desc>문화의 다양성을 존중하며, 글로벌 시민으로서 존경받는 개인과 조직이 되고자 합니다.</desc><defs/><g id="Polygon110917"><path d="m7.5 37.5h.8v9.2h-.8v-4.8H6.3v4.3h-.8v-8.4h.8v3.4h1.2v-3.7zM.9 38.7s3.56.02 3.6 0c0 .6-.1 1.2-.2 1.8c-.1.5-.3 1-.6 1.6c-.2.5-.6 1-1 1.4c-.5.5-1 .9-1.7 1.2l-.5-.6c.6-.3 1-.6 1.4-.9c.4-.4.7-.8.9-1.2c.3-.4.5-.8.6-1.2c.1-.5.2-.9.2-1.4H.9v-.7zm16.3-1.1v6.6h-.8v-6.6h.8zm-2.5 2.8c0 .4-.1.7-.2.9c-.1.3-.3.6-.5.8c-.2.2-.4.3-.7.4c-.3.1-.6.2-1 .2c-.3 0-.6-.1-.9-.2c-.3-.1-.6-.2-.8-.4c-.2-.2-.4-.5-.5-.8c-.1-.2-.2-.5-.2-.9c0-.3.1-.6.2-.9c.1-.3.3-.5.5-.7c.2-.2.5-.3.8-.5c.3-.1.6-.1.9-.1c.4 0 .7 0 1 .1c.3.2.5.3.7.5c.2.2.4.4.5.7c.1.3.2.6.2.9zm-3.9 0c0 .3 0 .5.1.6c0 .2.2.4.3.5c.1.2.3.3.5.4c.2 0 .4.1.6.1c.2 0 .4-.1.6-.1c.2-.1.4-.2.5-.4c.2-.1.3-.3.4-.5c.1-.1.1-.3.1-.6c0-.2 0-.4-.1-.6c-.1-.2-.2-.3-.4-.5c-.1-.1-.3-.2-.5-.3c-.2-.1-.4-.1-.6-.1c-.2 0-.4 0-.6.1c-.2.1-.4.2-.5.3c-.1.2-.3.3-.3.5c-.1.2-.1.4-.1.6zm1.4 5.4h5.3v.7h-6.2v-3h.9v2.3zm15.2-4.4v.7h-1.5v4.6h-.8v-9.2h.8v3.9h1.5zm-3.7 1.3l-.9-.1c.2-.8.2-1.4.3-2v-1.4c.01.02-3.8 0-3.8 0v-.7h4.6s.03.54 0 .5v1.5c0 .6-.1 1.3-.2 2.2zm-2.1-1.5s-.03 2.75 0 2.7h1.5c.5-.1 1-.1 1.4-.2l.1.6c-.5.1-1 .2-1.5.2c-.5.1-1 .1-1.5.1c-.5.1-.9.1-1.4.1h-1.3l-.1-.7h1.9c.05-.03 0-2.8 0-2.8h.9zm9.3 1.7l-.3-.6c.4-.1.7-.2 1.1-.4c.4-.2.8-.4 1.1-.7c.3-.3.6-.6.8-.9c.2-.3.3-.7.3-1c-.03-.05 0-.2 0-.2h-3.1v-.7h7v.7h-3.1s.04.15 0 .2c0 .3.1.7.3 1c.2.3.5.6.8.9c.3.3.7.5 1.1.7c.4.1.8.3 1.2.3l-.4.7l-1-.3c-.3-.2-.7-.3-1-.6c-.3-.2-.6-.4-.8-.7c-.3-.2-.4-.5-.6-.8c-.1.3-.3.6-.6.9c-.2.2-.5.5-.8.7c-.3.2-.6.4-1 .5c-.3.2-.6.3-1 .3zm3.8 1.9h3.8v.7h-8.3v-.7h3.7v-2.2h.8v2.2zM46 37.5h.8v5.6h-.8v-5.6zM44.9 42l-.4.7c-.5-.2-1-.5-1.4-.8c-.4-.4-.7-.8-.9-1.3c-.2.5-.5 1-.9 1.4c-.4.4-.8.6-1.4.8l-.4-.6c.3-.1.6-.3.9-.5c.3-.2.5-.4.7-.7c.2-.3.4-.5.5-.8c.1-.3.2-.7.2-1c-.02.02 0-.3 0-.3h-2.1v-.7h5v.7h-2.1s.04.32 0 .3c0 .3.1.6.2.9c.1.3.3.6.5.8c.2.3.4.5.7.7c.3.1.6.3.9.4zm-4.2 2.2v-.6h6.1v3.1h-.8v-2.5h-5.3zm14.5-6.7h.8v9.2h-.8v-9.2zm-4 .7c.3 0 .6.1.9.3c.3.1.6.3.8.6c.2.3.3.6.4 1c.2.4.2.8.2 1.3c0 .5 0 1-.2 1.4c-.1.3-.2.7-.4 1c-.2.2-.5.5-.8.6c-.3.2-.6.2-.9.2c-.4 0-.7 0-1-.2c-.2-.1-.5-.4-.7-.6c-.2-.3-.4-.7-.5-1c-.1-.4-.1-.9-.1-1.4c0-.5 0-.9.1-1.3c.1-.4.3-.7.5-1c.2-.3.5-.5.7-.6c.3-.2.6-.3 1-.3zm0 .8c-.2 0-.4.1-.6.2c-.2.1-.4.3-.5.5c-.2.2-.3.4-.3.7c-.1.3-.1.7-.1 1c0 .4 0 .7.1 1c0 .3.1.6.3.8c.1.2.3.4.5.5c.2.1.4.2.6.2c.2 0 .4-.1.6-.2c.2-.1.3-.3.5-.5c.1-.2.2-.5.3-.8c.1-.3.1-.6.1-1c0-.3 0-.7-.1-1c-.1-.3-.2-.5-.3-.7c-.2-.2-.3-.4-.5-.5c-.2-.1-.4-.2-.6-.2zm15.2-1.5h.8v9.2h-.8v-9.2zm-3.2 4.7s.02 1.76 0 1.8c.5-.1.9-.1 1.3-.1c.5 0 .9-.1 1.3-.1l.1.6c-.5 0-1 .1-1.6.2c-.5 0-1 0-1.5.1h-2.9l-.1-.7h2.6c-.02-.01 0-1.8 0-1.8h-1.9v-3.8h4.6v.7h-3.8v2.4h3.9v.7h-2zm12.2-2.8c.02-.03 0-.3 0-.3h-5.6v-.6h6.5s-.05.87 0 .9c0 .3 0 .5-.1.8v1c0 .4 0 .7-.1 1.1c0 .4-.1.8-.2 1.3l-.8-.1c.1-.9.3-1.6.3-2.3v-1.8zM73 44.7h4.2v.7H69v-.7h3.2v-3.3h.8v3.3zm13.7-3.5v.7h-1.5v4.8h-.9v-9.1h.9v3.6h1.5zm-5.5-2s.02 1.14 0 1.1c0 .4.1.8.2 1.1c.1.4.3.8.5 1.1c.2.3.5.6.8.9c.2.3.6.5.9.6l-.5.7c-.5-.2-1-.6-1.4-1.1c-.4-.5-.7-1.1-.9-1.7c-.1.3-.2.7-.4 1c-.1.3-.3.6-.5.8c-.2.3-.4.5-.7.7c-.2.2-.5.4-.7.5l-.5-.6c.3-.2.6-.4.9-.7c.3-.3.6-.6.8-1c.2-.3.4-.7.5-1.1c.1-.4.2-.8.2-1.2v-1.1h-2.1v-.7h5v.7h-2.1zm13.6-.7v.7h-5.4v-.7h2.3v-1.1h.8v1.1h2.3zm3.1 1.4v.7h-1.4v2.3h-.8v-5.4h.8v2.4h1.4zm-3.6 1.3c0 .2 0 .4-.1.6c-.1.2-.3.4-.5.5c-.2.2-.4.3-.7.4c-.3 0-.5.1-.9.1c-.3 0-.6-.1-.9-.1c-.2-.1-.5-.2-.7-.4c-.1-.1-.3-.3-.4-.5c-.1-.2-.2-.4-.2-.6c0-.3.1-.5.2-.7c.1-.2.3-.3.4-.5c.2-.1.5-.2.7-.3c.3-.1.6-.1.9-.1c.4 0 .6 0 .9.1c.3.1.5.2.7.3c.2.2.4.3.5.5c.1.2.1.4.1.7zm-3.6 0c0 .3.2.5.4.7c.3.2.6.3 1 .3c.5 0 .8-.1 1-.3c.3-.2.4-.4.4-.7c0-.3-.1-.6-.4-.7c-.2-.2-.5-.3-1-.3c-.4 0-.7.1-1 .3c-.2.1-.4.4-.4.7zm5 3v-.9h.8v3.3h-5.8v-3.3h.9v.9h4.1zm0 1.7v-1h-4.1v1h4.1zm9.5-8.4h.9v9.2h-.9v-9.2zm-5.2.9v5.2c.7 0 1.4 0 2.1-.1l2.2-.3l.1.7c-.8.2-1.6.3-2.3.3c-.7.1-1.5.1-2.2.1c.01.02-.7 0-.7 0v-5.9h.8zm16.3 2.8v.6h-1.5v4.9h-.8v-9.2h.8v3.7h1.5zm-7.3-2.1v4.6h2.2c.3-.1.6-.1.9-.1c.4-.1.7-.1 1-.2l.1.7c-.3.1-.7.1-1 .2c-.4 0-.7 0-1 .1h-2.3c-.03.03-.7 0-.7 0v-6h4.2v.7H109zm7.8 7v-1h1v1h-1z" stroke="none" fill="#fff"/></g><g id="Polygon110916"><path d="m7.6 22.4c-.03.05 1.2 0 1.2 0v.7H.5v-.7s6.23.05 6.2 0c.1-.5.2-.9.2-1.3v-1H1.6v-.7h6.2s-.03.61 0 .6c0 .3 0 .7-.1 1.1c0 .4 0 .8-.1 1.3zm-5.2 3.9v1.1h5.6v.7H1.6v-2.4h5.4v-1H1.5v-.7h6.3v2.3H2.4zm11.9.1h3.7v.7H9.7v-.7h3.7v-1.7h-2.6v-2.9h5.4v-1.4h-5.5v-.7h6.3v2.8h-5.4v1.5h5.6v.7h-2.9v1.7zm9.2-4.6v1.6h-4.1v-3.9h.8v1.3h2.5v-1.3h.8v1.6h2.1v-2h.8v4.7h-.8v-2h-2.1zm-.8 1v-1.4h-2.5v1.4h2.5zm-1.3 4.6h5.4v.7h-6.2v-2.3h5v-.9h-5.1v-.6h5.9v2.1h-5v1zM36.8 19h.8v9.2h-.8V19zm-3.4.8v1.7c0 .4.1.8.2 1.2c.1.4.3.8.5 1.2c.2.3.5.6.8.9c.3.3.6.5 1 .6l-.5.7c-.6-.2-1-.6-1.5-1.1c-.4-.5-.7-1.1-.9-1.8c-.2.7-.5 1.3-.9 1.9c-.5.5-.9.9-1.5 1.2l-.5-.7c.4-.2.7-.4 1-.7c.3-.2.5-.6.8-.9c.2-.4.4-.8.5-1.2c.1-.5.2-.9.2-1.3c-.02-.02 0-1.7 0-1.7h.8zm13.4-.7v6.5h-.8v-6.5h.8zm-2.7.7v4.3h-4.3v-4.3h4.3zm-.8 3.6v-2.9h-2.7v2.9h2.7zm-1.5 3.8h5.3v.7H41V25h.8v2.2zm10.9-7.6c.4 0 .9.1 1.3.2c.4.1.7.3 1 .5c.3.2.6.5.7.8c.2.3.3.7.3 1c0 .4-.1.8-.3 1.1c-.1.3-.4.6-.7.8c-.3.2-.6.4-1 .5c-.4.1-.9.2-1.3.2c-.5 0-1-.1-1.4-.2c-.4-.1-.7-.3-1-.5c-.3-.2-.5-.5-.7-.8c-.2-.3-.3-.7-.3-1.1c0-.3.1-.7.3-1c.2-.3.4-.6.7-.8c.3-.2.6-.4 1-.5c.4-.1.9-.2 1.4-.2zm0 .7c-.4 0-.7 0-1.1.1c-.3.1-.5.2-.8.4c-.2.2-.4.4-.5.6c-.1.2-.2.5-.2.7c0 .3.1.6.2.8c.1.2.3.4.5.6c.3.1.5.3.8.4c.4 0 .7.1 1.1.1c.3 0 .6-.1 1-.1c.3-.1.5-.3.8-.4c.2-.2.4-.4.5-.6c.1-.2.2-.5.2-.8c0-.2-.1-.5-.2-.7c-.1-.2-.3-.4-.5-.6c-.3-.2-.5-.3-.8-.4c-.4-.1-.7-.1-1-.1zm-4.2 6h8.3v.7h-8.3v-.7zm13.8.1h3.7v.7h-8.3v-.7h3.7v-1.7h-2.7v-2.9h5.5v-1.4h-5.5v-.7h6.3v2.8h-5.4v1.5h5.6v.7h-2.9v1.7zM73.6 19h.8v9.2h-.8v-5.4h-2.1v-.7h2.1V19zm-3.5.8s-.02 1.67 0 1.7c0 .4 0 .8.2 1.2c.1.4.3.8.5 1.1c.2.4.4.7.7 1c.3.3.6.5 1 .6l-.5.7c-.5-.3-1-.7-1.4-1.2c-.4-.5-.7-1.1-.9-1.7c-.2.7-.5 1.3-.9 1.8c-.4.6-.9 1-1.4 1.3l-.5-.7c.3-.2.6-.4.9-.7c.3-.3.5-.6.8-1c.2-.4.3-.7.5-1.2c.1-.4.1-.8.1-1.2c.05-.03 0-1.7 0-1.7h.9zm8.9 3.3l-.4-.7c.4 0 .8-.1 1.2-.3c.4-.1.7-.3 1-.5c.3-.2.5-.4.7-.6c.2-.3.2-.5.2-.8c.04-.02 0 0 0 0h-2.8v-.7h6.8v.7h-2.9s.02-.02 0 0c0 .3.1.5.3.8c.1.2.4.4.7.6c.2.2.6.4 1 .5c.3.2.7.3 1.1.3l-.3.7c-.4-.1-.7-.1-1.1-.3c-.3-.1-.6-.2-.9-.4c-.3-.2-.6-.4-.8-.6c-.2-.2-.4-.5-.5-.7c-.1.2-.3.5-.5.7c-.3.2-.5.4-.8.6c-.3.2-.6.3-1 .4c-.3.2-.7.2-1 .3zm3.7.9h3.7v.7h-8.3v-.7h3.8v-1.5h.8v1.5zM80 25.4v1.9h5.5v.7h-6.3v-2.6h.8zm14-4h-2.3c-.6 1.5-1.9 2.5-3.9 3.1l-.4-.6c1.2-.4 2-.8 2.7-1.4c.6-.6 1-1.3 1-2.1h-3.2v-.7s4.14.03 4.1 0v.5c0 .2 0 .4-.1.5c.04.02 2.1 0 2.1 0v-1.6h.9v5.4h-.9v-1.2h-2.4v-.7h2.4v-1.2zm-2.1 3.2c.4 0 .9.1 1.2.1c.4.1.7.2 1 .4c.2.1.4.3.6.5c.1.3.2.5.2.8c0 .3-.1.5-.2.7l-.6.6c-.3.1-.6.2-1 .3c-.3.1-.8.1-1.2.1c-.5 0-.9 0-1.3-.1c-.4-.1-.7-.2-.9-.3c-.3-.2-.5-.4-.6-.6c-.2-.2-.3-.4-.3-.7c0-.3.1-.5.3-.8c.1-.2.3-.4.6-.5c.2-.2.5-.3.9-.4c.4 0 .8-.1 1.3-.1zm0 2.9c.7 0 1.2-.1 1.6-.3c.4-.2.6-.5.6-.8c0-.4-.2-.6-.6-.8c-.4-.2-.9-.3-1.6-.3c-.7 0-1.2.1-1.6.3c-.4.2-.6.4-.6.8c0 .3.2.6.6.8c.4.2.9.3 1.6.3zm11.7-6.3h1.4v.7h-1.4v2.5h-.8v-5.3h.8v2.1zm-2.5-1.6v4.2h-4.2v-4.2h.8v1.3h2.6v-1.3h.8zm-.8 3.5v-1.5h-2.6v1.5h2.6zm-1.6 2.5v1.8h5.1v.7h-5.9v-3.2h5.8v.7h-5zm14.3-3.8v.7h-6.2v-3.1h.8v2.4h5.4zm-7.3 1.9h8.3v.7h-8.3v-.7zm1.9 1.6v2h5.5v.7h-6.4v-2.7h.9z" stroke="none" fill="#fff"/></g><g id="Polygon110915"><path d="m7.8 1v3.2H1.6V1h6.2zm-.9 2.5V1.6H2.4v1.9h4.5zM.5 5.2h8.3v.7H5.2v1.8h-.9V5.9H.5v-.7zm1.9 1.7v1.9h5.5v.7H1.6V6.9h.8zm15.8-2.5v.7h-1.4v4.6h-.9V.5h.9v3.9h1.4zm-3-2.7v.6H9.8v-.6h2.3V.6h.8v1.1h2.3zm-2.3 4.5v1c.4 0 .9-.1 1.3-.1c.4 0 .8-.1 1.2-.1v.6c-.4.1-.9.1-1.5.2c-.5 0-1 .1-1.4.1c-.5 0-1 0-1.5.1H9.7l-.1-.7c.4 0 .8 0 1.2-.1h1.3v-1c-.5 0-1-.2-1.3-.5c-.3-.3-.4-.7-.4-1.2c0-.2 0-.4.1-.6c.1-.3.3-.4.5-.6c.1-.1.4-.2.6-.3c.3-.1.6-.1.9-.1c.3 0 .6 0 .9.1c.3.1.5.2.7.3c.2.2.3.3.4.6c.1.2.2.4.2.6c0 .5-.2.9-.5 1.2c-.3.3-.7.5-1.3.5zm-1.8-1.7c0 .4.2.6.4.8c.3.2.6.3 1 .3c.4 0 .8-.1 1-.3c.3-.2.4-.4.4-.8c0-.3-.1-.5-.4-.7c-.2-.2-.6-.3-1-.3c-.4 0-.7.1-1 .3c-.2.2-.4.4-.4.7zm14.4-4h.9v9.2h-.9V.5zm-3.6.7c.3 0 .7.1 1 .2c.3.1.5.2.7.4c.2.2.4.4.5.7c.2.3.2.5.2.9c0 .3 0 .6-.2.8c-.1.3-.3.5-.5.7c-.2.2-.4.4-.7.5c-.3.1-.7.1-1 .1c-.4 0-.7 0-1-.1c-.3-.1-.6-.3-.8-.5c-.2-.2-.4-.4-.5-.7c-.1-.2-.2-.5-.2-.8c0-.4.1-.6.2-.9c.1-.3.3-.5.5-.7c.2-.2.5-.3.8-.4c.3-.1.6-.2 1-.2zm0 .7c-.3 0-.5.1-.7.1c-.2.1-.4.2-.5.3c-.1.2-.3.3-.3.5c-.1.2-.2.3-.2.6c0 .2.1.4.2.5c0 .2.2.4.3.5c.1.1.3.2.5.3c.2.1.4.1.7.1c.2 0 .4 0 .6-.1c.2-.1.4-.2.5-.3c.2-.1.3-.3.4-.5c.1-.1.1-.3.1-.5c0-.3 0-.4-.1-.6c-.1-.2-.2-.3-.4-.5c-.1-.1-.3-.2-.5-.3c-.2 0-.4-.1-.6-.1zm-2.8 5.8L19 7h1.3c.5 0 1 0 1.5-.1h1.6c.5-.1 1-.1 1.5-.2l.1.6c-.5.1-1 .2-1.6.2c-.5.1-1 .1-1.5.1c-.5.1-1 .1-1.5.1h-1.3zm19.6-3.5v.6h-1.5v4.9h-.8V.5h.8v3.7h1.5zm-7.3-2.1v4.6h2.2c.3-.1.6-.1.9-.1c.4-.1.7-.1 1-.2l.1.7c-.3.1-.7.1-1 .2c-.4 0-.7 0-1 .1h-2.3c-.03.03-.8 0-.8 0v-6h4.3v.7h-3.4zm16.4.5h-1.4v1.3h1.4v.6h-1.4v1.5h-.8V.6h.8v1.3h1.4v.7zm-3.5.6c0 .4-.1.6-.2.9c-.1.3-.3.5-.5.7c-.2.2-.5.3-.7.4c-.3.1-.7.2-1 .2c-.3 0-.7-.1-1-.2c-.2-.1-.5-.2-.7-.4c-.2-.2-.4-.4-.5-.7c-.1-.3-.2-.5-.2-.9c0-.3.1-.6.2-.8c.1-.3.3-.5.5-.7c.2-.2.5-.3.7-.5c.3-.1.7-.1 1-.1c.3 0 .7 0 1 .1c.2.2.5.3.7.5c.2.2.4.4.5.7c.1.2.2.5.2.8zm-4 0c0 .2.1.4.1.6c.1.2.2.4.4.5c.1.1.3.2.5.3c.2.1.4.1.6.1c.2 0 .4 0 .6-.1c.2-.1.4-.2.5-.3c.2-.1.3-.3.4-.5c0-.2.1-.4.1-.6c0-.2-.1-.4-.1-.6c-.1-.1-.2-.3-.4-.4c-.1-.1-.3-.2-.5-.3c-.2-.1-.4-.1-.6-.1c-.2 0-.4 0-.6.1c-.2.1-.4.2-.5.3c-.2.1-.3.3-.4.4c0 .2-.1.4-.1.6zm3.2 3.1c.5 0 .9 0 1.3.1c.4 0 .7.2.9.3c.3.1.5.3.6.5c.2.2.2.5.2.8c0 .2 0 .5-.2.7c-.1.2-.3.4-.6.5c-.2.2-.5.3-.9.4c-.4 0-.8.1-1.3.1c-.4 0-.8-.1-1.2-.1c-.4-.1-.7-.2-1-.4c-.2-.1-.4-.3-.6-.5c-.1-.2-.2-.5-.2-.7c0-.3.1-.6.2-.8c.2-.2.4-.4.6-.5c.3-.1.6-.3 1-.3c.4-.1.8-.1 1.2-.1zm0 2.7c.7 0 1.2-.1 1.6-.3c.4-.2.6-.4.6-.7c0-.4-.2-.6-.6-.8c-.4-.2-.9-.3-1.6-.3c-.6 0-1.2.1-1.6.3c-.4.2-.5.4-.5.8c0 .3.1.5.5.7c.4.2 1 .3 1.6.3zm11.7-3V3.2h-2v-.7h2V.6h.9v5.4h-.9zm-1.3-1.1l-.5.6c-.5-.2-.9-.4-1.3-.8c-.4-.3-.6-.7-.8-1.2c-.2.5-.5 1-.9 1.4c-.4.4-.9.7-1.5.9l-.4-.7c.4-.1.7-.3 1-.5c.3-.2.5-.4.7-.7c.2-.3.4-.6.5-.9c.1-.3.1-.7.1-1c.03 0 0-.9 0-.9h.9s-.04.87 0 .9c0 .3 0 .6.1.9c.1.3.3.6.5.8c.2.3.4.5.7.7c.2.2.6.4.9.5zM53 6.2c.5 0 .9.1 1.3.1c.4.1.7.2 1 .4c.2.1.4.3.6.5c.1.2.2.5.2.8c0 .2-.1.5-.2.7c-.2.2-.4.4-.6.5c-.3.2-.6.3-1 .4c-.4 0-.8.1-1.3.1c-.4 0-.9-.1-1.2-.1c-.4-.1-.7-.2-1-.4c-.3-.1-.5-.3-.6-.5c-.1-.2-.2-.5-.2-.7c0-.3.1-.6.2-.8c.1-.2.3-.4.6-.5c.3-.2.6-.3 1-.4c.3 0 .8-.1 1.2-.1zM53 9c.7 0 1.3-.1 1.7-.3c.4-.2.6-.4.6-.7c0-.4-.2-.7-.6-.8c-.4-.2-1-.3-1.7-.3c-.7 0-1.2.1-1.6.3c-.4.1-.6.4-.6.8c0 .3.2.5.6.7c.4.2.9.3 1.6.3zm8.8-5.1c-1 0-1.8-.2-2.3-.4c-.6-.3-.9-.7-.9-1.2c0-.5.3-.9.9-1.2c.5-.3 1.3-.4 2.3-.4c1 0 1.8.1 2.4.4c.6.3.8.7.8 1.2c0 .5-.2.9-.8 1.2c-.6.2-1.4.4-2.4.4zm0-2.6c-.7 0-1.3.1-1.7.3c-.4.1-.6.4-.6.7c0 .3.2.5.6.7c.4.2 1 .2 1.7.2c.8 0 1.4 0 1.8-.2c.4-.2.6-.4.6-.7c0-.3-.2-.6-.6-.7c-.4-.2-1-.3-1.8-.3zm-4.1 3.2h8.3v.7h-8.3v-.7zM59.5 8v.9h5.7v.7h-6.5V7.4h5.4v-.8h-5.4v-.7h6.2v2.1h-5.4zm10.3-3.4l-.3-.7c.4 0 .8-.1 1.1-.3c.4-.1.7-.3 1-.5c.3-.2.5-.4.7-.6c.2-.3.3-.5.3-.8c-.04-.02 0 0 0 0h-2.9v-.7h6.8v.7h-2.9s.04-.02 0 0c0 .3.1.5.3.8c.2.2.4.4.7.6c.3.2.6.4 1 .5c.3.2.7.3 1.1.3l-.3.7c-.3-.1-.7-.1-1-.3c-.4-.1-.7-.2-1-.4c-.3-.2-.6-.4-.8-.6c-.2-.2-.4-.5-.5-.7c-.1.2-.3.5-.5.7c-.2.2-.5.4-.8.6c-.3.2-.6.3-1 .4c-.3.2-.7.2-1 .3zm3.7.9h3.8v.7H69v-.7h3.7V4h.8v1.5zm-2.6 1.4v1.9h5.4v.7H70V6.9h.9zm8-2.6l-.3-.7c.4 0 .8-.1 1.2-.2c.3-.1.7-.3 1-.5c.2-.1.5-.3.6-.6c.2-.2.3-.4.3-.7c.04.03-2.8 0-2.8 0v-.6h6.8v.6s-2.88.03-2.9 0c0 .3.1.5.3.7c.2.3.4.5.7.6c.3.2.6.4 1 .5c.4.1.8.2 1.2.2l-.3.7c-.4-.1-.8-.2-1.1-.3c-.4-.1-.7-.2-1-.3c-.3-.2-.6-.4-.8-.6c-.2-.2-.4-.4-.5-.7c-.1.3-.3.5-.5.7c-.3.2-.5.4-.8.6c-.3.1-.6.2-1 .3l-1.1.3zm7.5 1.2h-3.7v1c.9 0 1.5.2 2 .4c.5.3.7.7.7 1.2c0 .5-.3.9-.8 1.2c-.6.2-1.3.4-2.3.4c-1 0-1.8-.2-2.3-.4c-.6-.3-.9-.7-.9-1.2c0-.5.3-.9.7-1.2c.5-.2 1.2-.4 2.1-.4c-.05-.02 0-1 0-1h-3.8v-.7h8.3v.7zm-1.8 2.6c0-.3-.2-.6-.6-.7c-.4-.2-1-.3-1.7-.3c-.7 0-1.3.1-1.7.3c-.4.1-.6.4-.6.7c0 .3.2.5.6.7c.4.2 1 .2 1.7.2c.7 0 1.3 0 1.7-.2c.4-.2.6-.4.6-.7zm11.3-3.8v.7h-1.5v4.7h-.9V.6h.9v3.7h1.5zM90.4.7v1.3h2.3v.7h-5.4v-.7h2.3V.7h.8zM90 3.4c.3 0 .6.1.9.2c.3.1.5.2.7.4c.2.2.4.4.5.7c.1.3.1.5.1.8c0 .4 0 .6-.1.9c-.1.3-.3.5-.5.7c-.2.2-.4.3-.7.4c-.3.1-.6.1-.9.1c-.3 0-.6 0-.9-.1c-.3-.1-.5-.2-.7-.4c-.2-.2-.3-.4-.4-.7c-.2-.3-.2-.5-.2-.9c0-.3 0-.5.2-.8c.1-.3.2-.5.4-.7c.2-.2.4-.3.7-.4c.3-.1.6-.2.9-.2zM90 7c.2 0 .4-.1.6-.2c.2 0 .3-.1.4-.2c.2-.2.3-.3.3-.5c.1-.2.1-.3.1-.6c0-.2 0-.3-.1-.5c0-.2-.1-.3-.3-.5c-.1-.1-.2-.2-.4-.3c-.2 0-.4-.1-.6-.1c-.2 0-.4.1-.6.1c-.1.1-.3.2-.4.3c-.1.2-.2.3-.3.5c-.1.2-.1.3-.1.5c0 .3 0 .4.1.6c.1.2.2.3.3.5c.1.1.3.2.4.2c.2.1.4.2.6.2zM103.2.5h.8v9.2h-.8V5.9H101v1.5h-4.1v-6h4.1v1.3h2.2V.5zm-3 6.2V2.1h-2.5v4.6h2.5zm.8-1.4h2.2V3.4H101v1.9zm4.3 4.4l.4-2.1h.9l-.6 2.1h-.7z" stroke="none" fill="#fff"/></g></svg>