<?xml version="1.0" standalone="no"?><!DOCTYPE svg PUBLIC "-//W3C//DTD SVG 1.1//EN" "http://www.w3.org/Graphics/SVG/1.1/DTD/svg11.dtd"><svg xmlns="http://www.w3.org/2000/svg" version="1.1" width="137px" height="36.8px" viewBox="0 -1 137 36.8" style="top:-1px"><desc>텍스트 B</desc><defs/><g id="Polygon52011"><path d="m12.3 21L7.7 8.8h1.6l3.8 10.4l3.8-10.4h1.5L13.9 21h-1.6zm11.5 0h-1.5V8.8h1.5V21zm12.4 0h-7.4V8.8h7.3v1.3h-5.8v4h4.9v1.3h-4.9v4.4h5.9v1.2zm5-12.2h-1.5L42.8 21h1.8l2.5-10.1L49.6 21h1.8l3.1-12.2h-1.4L50.5 19l-2.4-10.2h-1.9l-2.5 10.3l-2.5-10.3zM65.1 21V8.8s3.78.04 3.8 0c1.1 0 2.2.3 3.1.8c.8.5 1.5 1.2 2 2.1c.5.9.7 1.9.7 3v.4c0 1.1-.2 2.1-.7 3c-.5.9-1.2 1.6-2 2.1c-.9.5-2 .8-3.1.8h-3.8zm3.7-1.2c.9 0 1.6-.2 2.3-.6c.6-.4 1.2-1 1.5-1.7c.4-.7.6-1.5.6-2.4v-.4c0-.9-.2-1.7-.6-2.4c-.3-.7-.9-1.3-1.5-1.7c-.7-.3-1.4-.5-2.3-.5c.04-.04-2.2 0-2.2 0v9.7s2.24-.01 2.2 0zM86.5 21h-7.4V8.8h7.3v1.3h-5.8v4h4.9v1.3h-4.9v4.4h5.9v1.2zm7.4-10.9h-3.7V8.8h8.9v1.3h-3.7V21h-1.5V10.1zm8.5 10.9h-1.5l4.6-12.2h1.5l4.6 12.2H110l-1.3-3.5h-5l-1.3 3.5zm3.8-10.3l-2 5.6h4.1l-2.1-5.6zM117 21h-1.5V8.8h1.5V21zm12.1 0H122V8.8h1.5v11h5.6v1.2z" stroke="none" fill="#fff"/></g></svg>