<?xml version="1.0" standalone="no"?><!DOCTYPE svg PUBLIC "-//W3C//DTD SVG 1.1//EN" "http://www.w3.org/Graphics/SVG/1.1/DTD/svg11.dtd"><svg xmlns="http://www.w3.org/2000/svg" version="1.1" width="239px" height="54.2px" viewBox="0 -6 239 54.2" style="top:-6px"><desc>B-텍스트</desc><defs/><g id="Polygon51913"><path d="m.7 15.1v-1.7S5.09 8.96 5.1 9c.6-.7 1-1.2 1.3-1.7c.3-.5.4-1 .4-1.6c0-.6-.2-1.2-.6-1.6c-.5-.4-1-.6-1.7-.6c-.7 0-1.3.1-1.9.5c-.5.3-1 .8-1.4 1.4V2.7c.4-.3.9-.6 1.5-.9c.6-.2 1.3-.3 2.1-.3c.9 0 1.8.1 2.4.5c.7.4 1.2.9 1.6 1.5c.3.6.5 1.4.5 2.2c0 .9-.2 1.7-.6 2.4c-.4.8-1.1 1.5-1.9 2.4c-.03-.01-2.7 2.6-2.7 2.6h5.6v2h-9zM11.3 6V3.7l3.1-2.1h2.3v13.5h-2.4v-11l-3 1.9zm14.3 4h-5.4v-2h5.4v2zm4.7-6.2H28V1.4h2.3v2.4zm0 11.3H28V5.3h2.3v9.8zm2.7 0V5.3h2.2s.17 1.43.2 1.4c.3-.4.8-.8 1.3-1.2c.5-.3 1.1-.5 1.8-.5c1.1 0 1.9.4 2.5 1c.7.6 1 1.5 1 2.7c-.04.01 0 6.4 0 6.4h-2.4s.04-6.39 0-6.4c0-1.2-.5-1.9-1.5-1.9c-.6 0-1.1.3-1.6.7c-.6.5-.9 1-1.1 1.6c-.03.04 0 6 0 6H33zM43.8 10c0-.9.3-1.7.7-2.5c.4-.7 1-1.3 1.8-1.8c.8-.4 1.7-.7 2.8-.7c.5 0 1.1.1 1.6.3c.4.1.9.4 1.2.6v2.4c-.3-.5-.7-.8-1.2-1.1c-.5-.2-1-.3-1.5-.3c-.5 0-1 .1-1.4.4c-.5.2-.8.6-1.1 1.1c-.3.5-.4 1-.4 1.6v.4c0 .6.1 1.1.4 1.6c.3.5.6.9 1.1 1.1c.4.3.9.5 1.4.5c1 0 1.9-.5 2.7-1.4v2.3c-.3.3-.7.5-1.2.7c-.5.1-1.1.2-1.7.2c-1 0-1.9-.2-2.7-.7c-.8-.4-1.4-1-1.8-1.8c-.4-.7-.7-1.6-.7-2.5v-.4zm10.3 5.1V1.4h2.3v5.3c.3-.4.8-.8 1.3-1.2c.6-.3 1.2-.5 1.8-.5c1.1 0 2 .4 2.6 1c.6.6.9 1.5.9 2.7c-.02.01 0 6.4 0 6.4h-2.3s-.04-6.39 0-6.4c0-1.2-.5-1.9-1.6-1.9c-.5 0-1.1.3-1.6.7c-.5.5-.9 1-1.1 1.6v6h-2.3zm15.8-2.7c0-.8.2-1.4.7-1.9c.3-.4.8-.7 1.4-1c.6-.2 1.3-.3 2.1-.5l2.1-.3c-.1-1.3-.9-1.9-2.4-1.9c-.5 0-1.1.1-1.6.4c-.6.3-1 .7-1.4 1.2V6.2c.9-.8 2.1-1.2 3.5-1.2c1.3 0 2.3.4 3.1 1c.7.7 1.1 1.7 1.1 3.1c.03.01 0 6 0 6h-1.9s-.23-1.1-.2-1.1c-.5.5-1 .8-1.5 1.1c-.6.2-1.2.3-1.8.3c-1 0-1.8-.3-2.4-.8c-.5-.5-.8-1.3-.8-2.2zm2.3-.1c0 .4.1.7.4.9c.2.2.5.4.9.4c.6 0 1.1-.2 1.6-.6c.5-.3.9-.8 1.1-1.3c.05 0 0-1.4 0-1.4c0 0-1.12.23-1.1.2c-.8.2-1.4.3-1.8.4c-.3.2-.6.3-.7.5c-.3.2-.4.5-.4.9zm11.2 2.8h-2.3V1.4h2.3v13.7zm5 0h-2.3V1.4h2.3v13.7zm2.1-5c0-1 .2-1.8.6-2.6c.4-.8 1-1.4 1.8-1.8c.7-.4 1.6-.7 2.5-.7c.9 0 1.8.3 2.5.7c.8.4 1.4 1 1.8 1.8c.4.8.6 1.6.6 2.6v.3c0 .9-.2 1.8-.6 2.6c-.4.7-1 1.3-1.8 1.8c-.7.4-1.6.6-2.5.6c-.9 0-1.8-.2-2.5-.6c-.8-.5-1.4-1.1-1.8-1.9c-.4-.7-.6-1.6-.6-2.5v-.3zm2.4.3c0 .9.2 1.7.6 2.3c.5.6 1.1.9 1.9.9c.8 0 1.4-.3 1.9-.9c.4-.6.6-1.4.6-2.3v-.3c0-1-.2-1.7-.6-2.4c-.5-.6-1.1-.9-1.9-.9c-.8 0-1.4.3-1.9.9c-.4.7-.6 1.4-.6 2.4v.3zm12.1 4.7l-3.9-9.8h2.5l2.6 7l2.6-7h2.3l-5.5 13.8h-2.4l1.8-4zm14.5.1l-2.8-9.9h2.3l1.9 7.1l1.9-7.1h2.8l1.9 7.2l2-7.2h2l-2.8 9.8h-2.6l-2-7.4l-2 7.4l-2.6.1zm13.6-.1V1.4h2.3s.05 5.33 0 5.3c.4-.4.8-.8 1.4-1.2c.5-.3 1.1-.5 1.8-.5c1.1 0 1.9.4 2.5 1c.6.6.9 1.5.9 2.7c.04.01 0 6.4 0 6.4h-2.3V8.7c0-1.2-.5-1.9-1.5-1.9c-.6 0-1.1.3-1.7.7c-.5.5-.8 1-1.1 1.6c.05.04 0 6 0 6h-2.3zm10.7-5.1c0-.9.2-1.8.6-2.5c.4-.8 1-1.4 1.7-1.8c.7-.4 1.5-.7 2.4-.7c1.4 0 2.5.5 3.3 1.4c.8.9 1.2 2.2 1.2 3.7c-.02.03 0 .9 0 .9c0 0-6.88.03-6.9 0c.1.9.4 1.5.9 2c.4.4 1.1.6 1.9.6c.6 0 1.2-.1 1.8-.3c.5-.2 1.1-.6 1.6-1.2v2.2c-.4.4-.9.6-1.5.8c-.6.2-1.3.3-2 .3c-1 0-1.9-.2-2.7-.6c-.7-.5-1.3-1-1.7-1.8c-.4-.8-.6-1.6-.6-2.6v-.4zm6.9-.7c0-.8-.2-1.4-.6-1.9c-.4-.4-1-.6-1.6-.6c-.7 0-1.2.2-1.6.7c-.5.4-.7 1-.8 1.8h4.6zm3.6.7c0-.9.2-1.8.6-2.5c.4-.8 1-1.4 1.7-1.8c.7-.4 1.5-.7 2.4-.7c1.4 0 2.5.5 3.3 1.4c.8.9 1.2 2.2 1.2 3.7c-.03.03 0 .9 0 .9c0 0-6.88.03-6.9 0c.1.9.4 1.5.9 2c.4.4 1.1.6 1.9.6c.6 0 1.2-.1 1.8-.3c.5-.2 1.1-.6 1.6-1.2v2.2c-.4.4-.9.6-1.5.8c-.7.2-1.3.3-2 .3c-1 0-1.9-.2-2.7-.6c-.7-.5-1.3-1-1.7-1.8c-.4-.8-.6-1.6-.6-2.6v-.4zm6.9-.7c0-.8-.2-1.4-.6-1.9c-.4-.4-1-.6-1.6-.6c-.7 0-1.2.2-1.6.7c-.5.4-.7 1-.8 1.8h4.6zm6.7 5.8h-2.4V1.4h2.4v13.7zm2.4-3c.4.5.9.8 1.4 1.1c.5.3 1.1.4 1.7.4c.6 0 1-.1 1.3-.3c.3-.2.4-.5.4-.8c0-.3-.1-.5-.3-.7c-.1-.2-.5-.3-.9-.5l-1-.4c-.9-.3-1.5-.7-2-1.2c-.4-.5-.6-1.1-.6-1.8c0-.5.1-1 .4-1.4c.3-.5.7-.8 1.2-1.1c.5-.2 1.2-.4 1.9-.4c.6 0 1.2.1 1.7.3c.6.2 1 .5 1.4.7v2.3c-.5-.5-1-.9-1.5-1.1c-.5-.2-1-.4-1.5-.4c-.5 0-.9.1-1.1.3c-.2.2-.3.4-.3.6c0 .3.1.5.3.6c.2.2.6.4 1.1.6l.9.3c.9.4 1.5.8 1.9 1.2c.5.5.7 1.1.7 1.9c0 1-.4 1.7-1.1 2.3c-.8.5-1.7.8-2.9.8c-.6 0-1.2-.1-1.8-.3c-.5-.2-1-.5-1.3-.8v-2.2z" stroke="none" fill="#fff"/></g></svg>