<?xml version="1.0" standalone="no"?><!DOCTYPE svg PUBLIC "-//W3C//DTD SVG 1.1//EN" "http://www.w3.org/Graphics/SVG/1.1/DTD/svg11.dtd"><svg xmlns="http://www.w3.org/2000/svg" version="1.1" width="137px" height="36.8px" viewBox="0 -1 137 36.8" style="top:-1px"><desc>텍스트 B</desc><defs/><g id="Polygon52011"><path d="m37 21V8.8s3.7.04 3.7 0c1.2 0 2.2.3 3.1.8c.9.5 1.6 1.2 2 2.1c.5.9.8 1.9.8 3v.4c0 1.1-.3 2.1-.8 3c-.4.9-1.1 1.6-2 2.1c-.9.5-1.9.8-3.1.8H37zm3.7-1.2c.8 0 1.5-.2 2.2-.6c.7-.4 1.2-1 1.6-1.7c.3-.7.5-1.5.5-2.4v-.4c0-.9-.2-1.7-.5-2.4c-.4-.7-.9-1.3-1.6-1.7c-.7-.3-1.4-.5-2.2-.5c-.03-.04-2.2 0-2.2 0v9.7s2.17-.01 2.2 0zM58.3 21H51V8.8h7.2v1.3h-5.7v4h4.8v1.3h-4.8v4.4h5.8v1.2zm7.4-10.9H62V8.8h8.9v1.3h-3.7V21h-1.5V10.1zM74.3 21h-1.5l4.6-12.2h1.4L83.4 21h-1.6l-1.3-3.5h-5L74.3 21zM78 10.7l-2 5.6h4.1L78 10.7zM88.8 21h-1.5V8.8h1.5V21zm12.1 0h-7.1V8.8h1.5v11h5.6v1.2z" stroke="none" fill="#fff"/></g></svg>