<?xml version="1.0" standalone="no"?><!DOCTYPE svg PUBLIC "-//W3C//DTD SVG 1.1//EN" "http://www.w3.org/Graphics/SVG/1.1/DTD/svg11.dtd"><svg xmlns="http://www.w3.org/2000/svg" version="1.1" width="368px" height="108.3px" viewBox="0 -20 368 108.3" style="top:-20px"><desc>타이틀_GT-line</desc><defs/><g id="Polygon51811"><path d="m2.9 29.4c0-4.8 1-9.1 3-12.9c2-3.8 4.9-6.8 8.6-9c3.7-2.1 8.1-3.2 13.2-3.2c2.8 0 5.6.4 8.4 1.4c2.7.9 5 2 6.7 3.4v9.9c-1.8-2.3-4-4.2-6.5-5.6c-2.5-1.3-5.3-2-8.3-2c-2.9 0-5.5.7-7.9 2.2c-2.3 1.5-4.2 3.6-5.6 6.4c-1.4 2.7-2.1 5.8-2.1 9.4v1.2c0 3.3.6 6.4 1.8 9.1c1.2 2.7 2.9 4.9 5 6.5c2.2 1.6 4.7 2.4 7.4 2.4c2.8 0 5.2-.7 7.2-2c2.1-1.2 3.7-3 4.7-5.2c1.1-2.1 1.7-4.6 1.7-7.3c.03.03-12.8 0-12.8 0V27h21.5s.04 5.96 0 6c0 4.1-.8 7.9-2.5 11.3c-1.7 3.4-4.3 6.2-7.6 8.3c-3.4 2-7.4 3-12.2 3c-4.7 0-8.9-1-12.5-3.2c-3.6-2.1-6.4-5.1-8.3-8.9c-1.9-3.8-2.9-8.1-2.9-12.9v-1.2zm62.2-17H49.9V5.3h39v7.1H73.8v42.3h-8.7V12.4zm44.4 23.8H89.8v-7.5h19.7v7.5zm15.8 18.5h-8.4V4.9h8.4v49.8zm16.9-40.9h-8.4V4.9h8.4v8.9zm0 40.9h-8.4V19.2h8.4v35.5zm8.4 0V19.2h7.9s.49 5.11.5 5.1c1.2-1.7 2.8-3.2 4.8-4.3c1.9-1.2 4.1-1.8 6.5-1.8c3.9 0 7 1.1 9.2 3.4c2.2 2.3 3.3 5.6 3.3 9.9c-.02-.04 0 23.2 0 23.2h-8.4V31.5c0-4.5-1.8-6.8-5.5-6.8c-2.1 0-4.1.8-6 2.4c-1.9 1.7-3.2 3.6-3.9 5.9v21.7h-8.4zM188 36.2c0-3.4.7-6.5 2.1-9.3c1.4-2.7 3.4-4.9 5.9-6.4c2.5-1.5 5.5-2.3 8.7-2.3c5.2 0 9.2 1.6 12 4.9c2.9 3.3 4.3 7.8 4.3 13.5v3.2s-24.77.05-24.8 0c.3 3 1.4 5.3 3.1 7c1.7 1.6 4.1 2.4 7 2.4c2.3 0 4.4-.4 6.4-1.2c2-.9 4-2.2 5.9-4.2v8c-1.6 1.2-3.4 2.2-5.6 2.8c-2.2.7-4.5 1-7 1c-3.8 0-7.1-.7-9.8-2.3c-2.7-1.5-4.8-3.6-6.1-6.4c-1.4-2.7-2.1-5.8-2.1-9.4v-1.3zm24.7-2.7c0-2.8-.7-5-2.2-6.6c-1.5-1.6-3.4-2.4-5.8-2.4c-2.3 0-4.2.8-5.8 2.5c-1.6 1.6-2.4 3.8-2.6 6.5h16.4z" stroke="none" fill="#000"/></g></svg>