<?xml version="1.0" encoding="utf-8"?>
<!-- Generator: Adobe Illustrator 27.5.0, SVG Export Plug-In . SVG Version: 6.00 Build 0)  -->
<svg version="1.1" id="레이어_1" xmlns="http://www.w3.org/2000/svg" xmlns:xlink="http://www.w3.org/1999/xlink" x="0px"
	 y="0px" viewBox="0 0 640 1085" style="enable-background:new 0 0 640 1085;" xml:space="preserve">
<style type="text/css">
	.st0{fill:none;}
	.st1{fill:#FFFFFF;}
</style>
<rect y="412.4" class="st0" width="640" height="260.3"/>
<rect class="st0" width="44" height="41.4"/>
<g>
	<path class="st1" d="M26.6,467.9h-4.9v-1.6h11.7v1.6h-4.9v14.4h-1.9V467.9z"/>
	<path class="st1" d="M35.4,482.2v-16.1h1.8v6.9c0.4-0.7,1-1.3,1.7-1.8c0.7-0.5,1.5-0.8,2.4-0.8c1.2,0,2.1,0.4,2.8,1.1
		c0.6,0.7,1,1.8,1,3.2v7.5h-1.8v-7.4c0-1-0.2-1.7-0.5-2.2c-0.3-0.5-0.9-0.7-1.7-0.7c-0.5,0-1,0.2-1.6,0.5c-0.5,0.3-1,0.7-1.4,1.3
		s-0.7,1.1-0.8,1.7v6.8H35.4z"/>
	<path class="st1" d="M47,476.2c0-1.1,0.2-2.1,0.7-3c0.4-0.9,1-1.6,1.8-2.1c0.8-0.5,1.7-0.7,2.7-0.7c1.5,0,2.7,0.5,3.6,1.5
		s1.3,2.5,1.3,4.4v0.8h-8.2c0.1,1.2,0.4,2.1,1,2.8c0.6,0.7,1.4,1.1,2.5,1.1c1.6,0,3-0.6,4.1-1.7v1.9c-0.5,0.4-1.1,0.7-1.7,1
		c-0.7,0.2-1.4,0.4-2.3,0.4c-1.1,0-2.1-0.2-2.9-0.7c-0.8-0.5-1.4-1.2-1.8-2.1c-0.4-0.9-0.6-1.9-0.6-3.1V476.2z M55.3,475.7
		c0-1.2-0.3-2.2-0.9-2.8s-1.3-0.9-2.2-0.9c-0.6,0-1.1,0.2-1.6,0.5c-0.5,0.3-0.9,0.7-1.2,1.3c-0.3,0.6-0.5,1.2-0.5,2H55.3z"/>
	<path class="st1" d="M63.4,472.2v-1.5h2.3v-1.1c0-0.7,0.1-1.3,0.4-1.9c0.3-0.6,0.7-1.1,1.2-1.4c0.5-0.4,1.2-0.5,2-0.5
		c0.5,0,1,0.1,1.4,0.3v1.6c-0.3-0.3-0.8-0.4-1.3-0.4c-0.6,0-1,0.2-1.4,0.6s-0.5,1-0.5,1.8v1.1h2.7v1.5h-2.7v10h-1.9v-10H63.4z"/>
	<path class="st1" d="M72.1,470.8H74v7.4c0,1,0.2,1.7,0.5,2.2c0.3,0.5,0.9,0.7,1.7,0.7c0.5,0,1.1-0.2,1.6-0.5s1-0.8,1.4-1.3
		s0.7-1.1,0.8-1.7v-6.8h1.9v11.5h-1.7l-0.1-2.3c-0.4,0.7-1,1.3-1.7,1.9s-1.5,0.8-2.4,0.8c-1.2,0-2.1-0.4-2.8-1.1
		c-0.6-0.7-1-1.8-1-3.2V470.8z"/>
	<path class="st1" d="M86,472.2h-2.5v-1.5H86v-3.5h1.8v3.5h2.5v1.5h-2.5v10H86V472.2z"/>
	<path class="st1" d="M91.8,470.8h1.8v7.4c0,1,0.2,1.7,0.5,2.2c0.3,0.5,0.9,0.7,1.7,0.7c0.5,0,1.1-0.2,1.6-0.5s1-0.8,1.4-1.3
		s0.7-1.1,0.8-1.7v-6.8h1.9v11.5h-1.7l-0.1-2.3c-0.4,0.7-1,1.3-1.7,1.9s-1.5,0.8-2.4,0.8c-1.2,0-2.1-0.4-2.8-1.1
		c-0.6-0.7-1-1.8-1-3.2V470.8z"/>
	<path class="st1" d="M104.5,482.2v-11.5h1.7l0.1,2c0.3-0.7,0.8-1.3,1.4-1.7s1.3-0.6,2.1-0.6c0.2,0,0.4,0,0.6,0s0.4,0.1,0.5,0.1v1.6
		c-0.3-0.1-0.7-0.2-1.2-0.2c-0.7,0-1.4,0.2-2,0.7c-0.6,0.5-1,1.1-1.3,2v7.5H104.5z"/>
	<path class="st1" d="M111.6,476.2c0-1.1,0.2-2.1,0.7-3c0.4-0.9,1-1.6,1.8-2.1c0.8-0.5,1.7-0.7,2.7-0.7c1.5,0,2.7,0.5,3.6,1.5
		s1.3,2.5,1.3,4.4v0.8h-8.2c0.1,1.2,0.4,2.1,1,2.8c0.6,0.7,1.4,1.1,2.5,1.1c1.6,0,3-0.6,4.1-1.7v1.9c-0.5,0.4-1.1,0.7-1.7,1
		c-0.7,0.2-1.4,0.4-2.3,0.4c-1.1,0-2.1-0.2-2.9-0.7c-0.8-0.5-1.4-1.2-1.8-2.1c-0.4-0.9-0.6-1.9-0.6-3.1V476.2z M119.8,475.7
		c0-1.2-0.3-2.2-0.9-2.8s-1.3-0.9-2.2-0.9c-0.6,0-1.1,0.2-1.6,0.5c-0.5,0.3-0.9,0.7-1.2,1.3c-0.3,0.6-0.5,1.2-0.5,2H119.8z"/>
	<path class="st1" d="M128.5,476.3c0-1.1,0.2-2.2,0.7-3.1c0.5-0.9,1.1-1.6,1.9-2.1c0.8-0.5,1.7-0.7,2.8-0.7c1.1,0,2,0.2,2.8,0.7
		c0.8,0.5,1.4,1.2,1.9,2.1c0.5,0.9,0.7,1.9,0.7,3.1v0.4c0,1.1-0.2,2.2-0.7,3.1c-0.5,0.9-1.1,1.6-1.9,2.1c-0.8,0.5-1.7,0.7-2.8,0.7
		c-1,0-2-0.2-2.8-0.7c-0.8-0.5-1.5-1.2-1.9-2.1c-0.5-0.9-0.7-1.9-0.7-3.1V476.3z M130.5,476.7c0,1.3,0.3,2.4,0.9,3.2
		s1.5,1.2,2.5,1.2c1.1,0,1.9-0.4,2.5-1.2s0.9-1.9,0.9-3.2v-0.4c0-1.3-0.3-2.4-0.9-3.2c-0.6-0.8-1.5-1.2-2.5-1.2
		c-1.1,0-1.9,0.4-2.5,1.2c-0.6,0.8-0.9,1.9-0.9,3.2V476.7z"/>
	<path class="st1" d="M140.1,472.2v-1.5h2.3v-1.1c0-0.7,0.1-1.3,0.4-1.9c0.3-0.6,0.7-1.1,1.2-1.4c0.5-0.4,1.2-0.5,2-0.5
		c0.5,0,1,0.1,1.4,0.3v1.6c-0.3-0.3-0.8-0.4-1.3-0.4c-0.6,0-1,0.2-1.4,0.6s-0.5,1-0.5,1.8v1.1h2.7v1.5h-2.7v10h-1.9v-10H140.1z"/>
	<path class="st1" d="M164.3,482.2h-9.6v-16h9.5v1.6h-7.6v5.4h6.4v1.6h-6.4v5.8h7.7V482.2z"/>
	<path class="st1" d="M171.5,482.2l-6-16h2.1l5,13.6l4.9-13.6h2l-5.8,16H171.5z"/>
	<path class="st1" d="M186.7,482.2v-11.5h1.7l0.1,2.1c0.4-0.7,1-1.3,1.6-1.7c0.6-0.4,1.3-0.7,2.2-0.7c0.8,0,1.5,0.2,2.1,0.7
		c0.6,0.4,0.9,1.1,1.1,1.9c0.5-0.8,1-1.4,1.7-1.8s1.4-0.7,2.2-0.7c1.1,0,1.9,0.3,2.5,1c0.6,0.7,0.9,1.7,0.9,3v7.8h-1.8v-7.6
		c0-0.9-0.2-1.6-0.5-2c-0.3-0.4-0.8-0.7-1.5-0.7c-0.4,0-0.9,0.1-1.3,0.4s-0.9,0.7-1.2,1.1c-0.4,0.5-0.6,1-0.8,1.5v7.2h-1.8v-7.7
		c0-0.9-0.2-1.6-0.5-2c-0.3-0.4-0.8-0.6-1.5-0.6c-0.4,0-0.9,0.1-1.3,0.4c-0.5,0.3-0.9,0.7-1.2,1.1c-0.4,0.5-0.6,1-0.8,1.5v7.2H186.7
		z"/>
	<path class="st1" d="M204.8,476.3c0-1.1,0.2-2.2,0.7-3.1c0.5-0.9,1.1-1.6,1.9-2.1c0.8-0.5,1.7-0.7,2.8-0.7c1.1,0,2,0.2,2.8,0.7
		c0.8,0.5,1.4,1.2,1.9,2.1c0.5,0.9,0.7,1.9,0.7,3.1v0.4c0,1.1-0.2,2.2-0.7,3.1c-0.5,0.9-1.1,1.6-1.9,2.1c-0.8,0.5-1.7,0.7-2.8,0.7
		c-1,0-2-0.2-2.8-0.7c-0.8-0.5-1.5-1.2-1.9-2.1c-0.5-0.9-0.7-1.9-0.7-3.1V476.3z M206.7,476.7c0,1.3,0.3,2.4,0.9,3.2
		s1.5,1.2,2.5,1.2c1.1,0,1.9-0.4,2.5-1.2s0.9-1.9,0.9-3.2v-0.4c0-1.3-0.3-2.4-0.9-3.2c-0.6-0.8-1.5-1.2-2.5-1.2
		c-1.1,0-1.9,0.4-2.5,1.2c-0.6,0.8-0.9,1.9-0.9,3.2V476.7z"/>
	<path class="st1" d="M217.8,482.2v-16.1h1.8v6.3c0.4-0.6,1-1.1,1.6-1.5c0.7-0.4,1.3-0.6,2.1-0.6c1,0,1.8,0.2,2.6,0.7
		c0.8,0.5,1.4,1.2,1.8,2.1c0.4,0.9,0.7,2,0.7,3.2c0,1.2-0.2,2.3-0.7,3.2s-1,1.6-1.8,2.1c-0.8,0.5-1.6,0.7-2.6,0.7
		c-0.8,0-1.5-0.2-2.1-0.6c-0.7-0.4-1.2-0.9-1.6-1.5l-0.1,1.8H217.8z M219.6,478.4c0.3,0.8,0.8,1.4,1.4,1.9c0.6,0.5,1.3,0.8,2,0.8
		c0.6,0,1.2-0.2,1.7-0.6s0.9-0.9,1.2-1.6c0.3-0.7,0.4-1.5,0.4-2.4c0-0.9-0.2-1.7-0.5-2.4c-0.3-0.7-0.7-1.2-1.2-1.6s-1.1-0.6-1.7-0.6
		c-0.7,0-1.4,0.3-2,0.8s-1.1,1.2-1.4,1.9V478.4z"/>
	<path class="st1" d="M232.4,468.9h-1.8v-2.3h1.8V468.9z M232.4,482.2h-1.8v-11.5h1.8V482.2z"/>
	<path class="st1" d="M237.3,482.2h-1.8v-16.1h1.8V482.2z"/>
	<path class="st1" d="M242.2,468.9h-1.8v-2.3h1.8V468.9z M242.2,482.2h-1.8v-11.5h1.8V482.2z"/>
	<path class="st1" d="M246.3,472.2h-2.5v-1.5h2.5v-3.5h1.8v3.5h2.5v1.5h-2.5v10h-1.8V472.2z"/>
	<path class="st1" d="M255.9,482.2l-4.5-11.4h2l3.5,9.2l3.5-9.2h1.9l-6.4,16.1h-2L255.9,482.2z"/>
	<path class="st1" d="M271.8,482.2h-2.4v-2.7h2.4V482.2z M271.8,473.5h-2.4v-2.7h2.4V473.5z"/>
	<path class="st1" d="M279.8,479.3c0.9,1.1,2.1,1.7,3.6,1.7c0.8,0,1.4-0.2,1.8-0.5s0.7-0.7,0.7-1.3c0-0.4-0.1-0.7-0.3-1
		c-0.2-0.3-0.7-0.6-1.3-0.8l-1.6-0.6c-0.9-0.4-1.6-0.8-2.1-1.4s-0.7-1.2-0.7-1.9c0-0.6,0.1-1.1,0.5-1.5c0.3-0.5,0.7-0.8,1.3-1.1
		c0.6-0.3,1.3-0.4,2.1-0.4c0.7,0,1.3,0.1,2,0.4c0.6,0.3,1.1,0.6,1.6,0.9v2c-0.5-0.6-1.1-1-1.7-1.3c-0.6-0.3-1.2-0.4-1.8-0.4
		c-0.7,0-1.2,0.2-1.5,0.5c-0.3,0.3-0.5,0.7-0.5,1.1c0,0.4,0.1,0.7,0.4,0.9s0.7,0.5,1.4,0.8l1.5,0.6c1,0.4,1.6,0.9,2.1,1.4
		c0.4,0.5,0.7,1.2,0.7,2c0,1-0.4,1.9-1.2,2.5c-0.8,0.6-1.8,0.9-3.1,0.9c-0.8,0-1.5-0.1-2.1-0.4c-0.6-0.2-1.1-0.5-1.5-0.9V479.3z"/>
	<path class="st1" d="M290,482.2v-11.5h1.7l0.1,2.1c0.4-0.7,1-1.3,1.6-1.7c0.6-0.4,1.3-0.7,2.2-0.7c0.8,0,1.5,0.2,2.1,0.7
		c0.6,0.4,0.9,1.1,1.1,1.9c0.5-0.8,1-1.4,1.7-1.8s1.4-0.7,2.2-0.7c1.1,0,1.9,0.3,2.5,1c0.6,0.7,0.9,1.7,0.9,3v7.8h-1.8v-7.6
		c0-0.9-0.2-1.6-0.5-2c-0.3-0.4-0.8-0.7-1.5-0.7c-0.4,0-0.9,0.1-1.3,0.4s-0.9,0.7-1.2,1.1c-0.4,0.5-0.6,1-0.8,1.5v7.2h-1.8v-7.7
		c0-0.9-0.2-1.6-0.5-2c-0.3-0.4-0.8-0.6-1.5-0.6c-0.4,0-0.9,0.1-1.3,0.4c-0.5,0.3-0.9,0.7-1.2,1.1c-0.4,0.5-0.6,1-0.8,1.5v7.2H290z"
		/>
	<path class="st1" d="M308.7,477.2c0.3-0.5,0.8-0.8,1.5-1.1s1.6-0.5,2.7-0.7l2.9-0.5c0-1-0.3-1.8-0.8-2.3c-0.5-0.5-1.2-0.7-2.3-0.7
		c-0.7,0-1.4,0.2-2.1,0.5s-1.2,0.8-1.6,1.3v-1.8c0.4-0.4,1-0.8,1.7-1c0.7-0.3,1.4-0.4,2.2-0.4c1.5,0,2.6,0.4,3.4,1.1
		c0.8,0.7,1.3,1.8,1.3,3.3v7.4h-1.4l-0.3-1.8c-0.5,0.7-1.2,1.2-1.9,1.5c-0.7,0.4-1.5,0.5-2.4,0.5c-1.1,0-1.9-0.3-2.6-0.9
		s-1-1.4-1-2.5C308,478.4,308.3,477.8,308.7,477.2z M310.5,480.5c0.4,0.3,0.8,0.5,1.4,0.5c0.7,0,1.4-0.2,2.2-0.7s1.3-1.1,1.7-1.8
		v-2.2l-1.9,0.4c-1.1,0.2-1.8,0.4-2.4,0.5c-0.5,0.2-0.9,0.4-1.2,0.7c-0.3,0.3-0.4,0.7-0.4,1.2C309.9,479.7,310.1,480.2,310.5,480.5z
		"/>
	<path class="st1" d="M320.5,482.2v-11.5h1.7l0.1,2c0.3-0.7,0.8-1.3,1.4-1.7c0.6-0.4,1.3-0.6,2.1-0.6c0.2,0,0.4,0,0.6,0
		s0.4,0.1,0.5,0.1v1.6c-0.3-0.1-0.7-0.2-1.2-0.2c-0.7,0-1.4,0.2-2,0.7c-0.6,0.5-1,1.1-1.3,2v7.5H320.5z"/>
	<path class="st1" d="M330.1,472.2h-2.5v-1.5h2.5v-3.5h1.8v3.5h2.5v1.5H332v10h-1.8V472.2z"/>
	<path class="st1" d="M336.6,484.8h-1.5l0.9-5.4h2.4L336.6,484.8z"/>
</g>
<g>
	<path class="st1" d="M22.3,524.3c0.9,1.1,2.1,1.7,3.6,1.7c0.8,0,1.4-0.2,1.8-0.5s0.7-0.7,0.7-1.3c0-0.4-0.1-0.7-0.3-1
		c-0.2-0.3-0.7-0.6-1.3-0.8l-1.6-0.6c-0.9-0.4-1.6-0.8-2.1-1.4s-0.7-1.2-0.7-1.9c0-0.6,0.1-1.1,0.5-1.5c0.3-0.5,0.7-0.8,1.3-1.1
		c0.6-0.3,1.3-0.4,2.1-0.4c0.7,0,1.3,0.1,2,0.4c0.6,0.3,1.1,0.6,1.6,0.9v2c-0.5-0.6-1.1-1-1.7-1.3c-0.6-0.3-1.2-0.4-1.8-0.4
		c-0.7,0-1.2,0.2-1.5,0.5c-0.3,0.3-0.5,0.7-0.5,1.1c0,0.4,0.1,0.7,0.4,0.9s0.7,0.5,1.4,0.8l1.5,0.6c1,0.4,1.6,0.9,2.1,1.4
		c0.4,0.5,0.7,1.2,0.7,2c0,1-0.4,1.9-1.2,2.5c-0.8,0.6-1.8,0.9-3.1,0.9c-0.8,0-1.5-0.1-2.1-0.4c-0.6-0.2-1.1-0.5-1.5-0.9V524.3z"/>
	<path class="st1" d="M32.5,531.8v-16.1h1.7l0.1,1.8c0.4-0.6,0.9-1.2,1.6-1.6c0.7-0.4,1.4-0.6,2.1-0.6c1,0,1.8,0.2,2.6,0.7
		c0.8,0.5,1.4,1.2,1.8,2.1c0.4,0.9,0.7,2,0.7,3.2c0,1.2-0.2,2.3-0.7,3.2s-1,1.6-1.8,2.1c-0.8,0.5-1.6,0.7-2.6,0.7
		c-0.7,0-1.4-0.2-2.1-0.6c-0.7-0.4-1.2-0.9-1.6-1.5v6.3H32.5z M34.3,523.3c0.3,0.8,0.7,1.4,1.4,2c0.6,0.5,1.3,0.8,2,0.8
		c0.6,0,1.2-0.2,1.7-0.6c0.5-0.4,0.9-0.9,1.2-1.6c0.3-0.7,0.5-1.5,0.5-2.4c0-0.9-0.1-1.7-0.4-2.4c-0.3-0.7-0.7-1.2-1.2-1.6
		s-1.1-0.6-1.7-0.6c-0.7,0-1.4,0.3-2,0.8c-0.6,0.5-1.1,1.2-1.4,2V523.3z"/>
	<path class="st1" d="M45.1,522.2c0.3-0.5,0.8-0.8,1.5-1.1s1.6-0.5,2.7-0.7l2.9-0.5c0-1-0.3-1.8-0.8-2.3c-0.5-0.5-1.2-0.7-2.3-0.7
		c-0.7,0-1.4,0.2-2.1,0.5s-1.2,0.8-1.6,1.3v-1.8c0.4-0.4,1-0.8,1.7-1c0.7-0.3,1.4-0.4,2.2-0.4c1.5,0,2.6,0.4,3.4,1.1
		c0.8,0.7,1.3,1.8,1.3,3.3v7.4h-1.4l-0.3-1.8c-0.5,0.7-1.2,1.2-1.9,1.5c-0.7,0.4-1.5,0.5-2.4,0.5c-1.1,0-1.9-0.3-2.6-0.9
		s-1-1.4-1-2.5C44.4,523.4,44.6,522.8,45.1,522.2z M46.9,525.5c0.4,0.3,0.8,0.5,1.4,0.5c0.7,0,1.4-0.2,2.2-0.7s1.3-1.1,1.7-1.8v-2.2
		l-1.9,0.4c-1.1,0.2-1.8,0.4-2.4,0.5c-0.5,0.2-0.9,0.4-1.2,0.7c-0.3,0.3-0.4,0.7-0.4,1.2C46.3,524.7,46.5,525.2,46.9,525.5z"/>
	<path class="st1" d="M56,521.3c0-1.1,0.2-2.1,0.7-3c0.5-0.9,1.1-1.6,2-2.1c0.9-0.5,1.8-0.7,2.9-0.7c0.6,0,1.2,0.1,1.8,0.3
		c0.6,0.2,1.1,0.5,1.5,0.9v2c-0.4-0.6-1-1-1.5-1.3s-1.2-0.4-1.8-0.4c-0.7,0-1.3,0.2-1.9,0.5c-0.6,0.4-1,0.9-1.3,1.5
		c-0.3,0.7-0.5,1.4-0.5,2.2v0.4c0,0.9,0.2,1.6,0.5,2.3c0.3,0.7,0.8,1.2,1.3,1.6c0.6,0.4,1.2,0.6,1.8,0.6c1.3,0,2.4-0.6,3.4-1.7v1.9
		c-0.4,0.4-0.9,0.7-1.5,0.9c-0.6,0.2-1.2,0.4-1.9,0.4c-1.1,0-2-0.3-2.9-0.8s-1.5-1.2-2-2.1c-0.5-0.9-0.7-1.9-0.7-3V521.3z"/>
	<path class="st1" d="M69.2,513.9h-1.8v-2.3h1.8V513.9z M69.2,527.2h-1.8v-11.5h1.8V527.2z"/>
	<path class="st1" d="M71.4,521.3c0-1.1,0.2-2.2,0.7-3.1c0.5-0.9,1.1-1.6,1.9-2.1c0.8-0.5,1.7-0.7,2.8-0.7c1.1,0,2,0.2,2.8,0.7
		c0.8,0.5,1.4,1.2,1.9,2.1c0.5,0.9,0.7,1.9,0.7,3.1v0.4c0,1.1-0.2,2.2-0.7,3.1c-0.5,0.9-1.1,1.6-1.9,2.1c-0.8,0.5-1.7,0.7-2.8,0.7
		c-1,0-2-0.2-2.8-0.7c-0.8-0.5-1.5-1.2-1.9-2.1c-0.5-0.9-0.7-1.9-0.7-3.1V521.3z M73.4,521.7c0,1.3,0.3,2.4,0.9,3.2s1.5,1.2,2.5,1.2
		c1.1,0,1.9-0.4,2.5-1.2s0.9-1.9,0.9-3.2v-0.4c0-1.3-0.3-2.4-0.9-3.2c-0.6-0.8-1.5-1.2-2.5-1.2c-1.1,0-1.9,0.4-2.5,1.2
		c-0.6,0.8-0.9,1.9-0.9,3.2V521.7z"/>
	<path class="st1" d="M84.2,515.8h1.8v7.4c0,1,0.2,1.7,0.5,2.2c0.3,0.5,0.9,0.7,1.7,0.7c0.5,0,1.1-0.2,1.6-0.5s1-0.8,1.4-1.3
		s0.7-1.1,0.8-1.7v-6.8h1.9v11.5h-1.7l-0.1-2.3c-0.4,0.7-1,1.3-1.7,1.9s-1.5,0.8-2.4,0.8c-1.2,0-2.1-0.4-2.8-1.1
		c-0.6-0.7-1-1.8-1-3.2V515.8z"/>
	<path class="st1" d="M96.5,524.3c0.9,1.1,2.1,1.7,3.6,1.7c0.8,0,1.4-0.2,1.8-0.5s0.7-0.7,0.7-1.3c0-0.4-0.1-0.7-0.3-1
		c-0.2-0.3-0.7-0.6-1.3-0.8l-1.6-0.6c-0.9-0.4-1.6-0.8-2.1-1.4s-0.7-1.2-0.7-1.9c0-0.6,0.1-1.1,0.5-1.5c0.3-0.5,0.7-0.8,1.3-1.1
		c0.6-0.3,1.3-0.4,2.1-0.4c0.7,0,1.3,0.1,2,0.4c0.6,0.3,1.1,0.6,1.6,0.9v2c-0.5-0.6-1.1-1-1.7-1.3c-0.6-0.3-1.2-0.4-1.8-0.4
		c-0.7,0-1.2,0.2-1.5,0.5c-0.3,0.3-0.5,0.7-0.5,1.1c0,0.4,0.1,0.7,0.4,0.9s0.7,0.5,1.4,0.8l1.5,0.6c1,0.4,1.6,0.9,2.1,1.4
		c0.4,0.5,0.7,1.2,0.7,2c0,1-0.4,1.9-1.2,2.5c-0.8,0.6-1.8,0.9-3.1,0.9c-0.8,0-1.5-0.1-2.1-0.4c-0.6-0.2-1.1-0.5-1.5-0.9V524.3z"/>
	<path class="st1" d="M107.1,529.8h-1.5l0.9-5.4h2.4L107.1,529.8z"/>
	<path class="st1" d="M116.6,524.3c0.9,1.1,2.1,1.7,3.6,1.7c0.8,0,1.4-0.2,1.8-0.5s0.7-0.7,0.7-1.3c0-0.4-0.1-0.7-0.3-1
		c-0.2-0.3-0.7-0.6-1.3-0.8l-1.6-0.6c-0.9-0.4-1.6-0.8-2.1-1.4s-0.7-1.2-0.7-1.9c0-0.6,0.1-1.1,0.5-1.5c0.3-0.5,0.7-0.8,1.3-1.1
		c0.6-0.3,1.3-0.4,2.1-0.4c0.7,0,1.3,0.1,2,0.4c0.6,0.3,1.1,0.6,1.6,0.9v2c-0.5-0.6-1.1-1-1.7-1.3c-0.6-0.3-1.2-0.4-1.8-0.4
		c-0.7,0-1.2,0.2-1.5,0.5c-0.3,0.3-0.5,0.7-0.5,1.1c0,0.4,0.1,0.7,0.4,0.9s0.7,0.5,1.4,0.8l1.5,0.6c1,0.4,1.6,0.9,2.1,1.4
		c0.4,0.5,0.7,1.2,0.7,2c0,1-0.4,1.9-1.2,2.5c-0.8,0.6-1.8,0.9-3.1,0.9c-0.8,0-1.5-0.1-2.1-0.4c-0.6-0.2-1.1-0.5-1.5-0.9V524.3z"/>
	<path class="st1" d="M126.6,515.8h1.8v7.4c0,1,0.2,1.7,0.5,2.2c0.3,0.5,0.9,0.7,1.7,0.7c0.5,0,1.1-0.2,1.6-0.5s1-0.8,1.4-1.3
		s0.7-1.1,0.8-1.7v-6.8h1.9v11.5h-1.7l-0.1-2.3c-0.4,0.7-1,1.3-1.7,1.9s-1.5,0.8-2.4,0.8c-1.2,0-2.1-0.4-2.8-1.1
		c-0.6-0.7-1-1.8-1-3.2V515.8z"/>
	<path class="st1" d="M138.8,524.3c0.9,1.1,2.1,1.7,3.6,1.7c0.8,0,1.4-0.2,1.8-0.5s0.7-0.7,0.7-1.3c0-0.4-0.1-0.7-0.3-1
		c-0.2-0.3-0.7-0.6-1.3-0.8l-1.6-0.6c-0.9-0.4-1.6-0.8-2.1-1.4s-0.7-1.2-0.7-1.9c0-0.6,0.1-1.1,0.5-1.5c0.3-0.5,0.7-0.8,1.3-1.1
		c0.6-0.3,1.3-0.4,2.1-0.4c0.7,0,1.3,0.1,2,0.4c0.6,0.3,1.1,0.6,1.6,0.9v2c-0.5-0.6-1.1-1-1.7-1.3c-0.6-0.3-1.2-0.4-1.8-0.4
		c-0.7,0-1.2,0.2-1.5,0.5c-0.3,0.3-0.5,0.7-0.5,1.1c0,0.4,0.1,0.7,0.4,0.9s0.7,0.5,1.4,0.8l1.5,0.6c1,0.4,1.6,0.9,2.1,1.4
		c0.4,0.5,0.7,1.2,0.7,2c0,1-0.4,1.9-1.2,2.5c-0.8,0.6-1.8,0.9-3.1,0.9c-0.8,0-1.5-0.1-2.1-0.4c-0.6-0.2-1.1-0.5-1.5-0.9V524.3z"/>
	<path class="st1" d="M150.1,517.3h-2.5v-1.5h2.5v-3.5h1.8v3.5h2.5v1.5H152v10h-1.8V517.3z"/>
	<path class="st1" d="M156,522.2c0.3-0.5,0.8-0.8,1.5-1.1s1.6-0.5,2.7-0.7l2.9-0.5c0-1-0.3-1.8-0.8-2.3c-0.5-0.5-1.2-0.7-2.3-0.7
		c-0.7,0-1.4,0.2-2.1,0.5s-1.2,0.8-1.6,1.3v-1.8c0.4-0.4,1-0.8,1.7-1c0.7-0.3,1.4-0.4,2.2-0.4c1.5,0,2.6,0.4,3.4,1.1
		c0.8,0.7,1.3,1.8,1.3,3.3v7.4h-1.4l-0.3-1.8c-0.5,0.7-1.2,1.2-1.9,1.5c-0.7,0.4-1.5,0.5-2.4,0.5c-1.1,0-1.9-0.3-2.6-0.9
		s-1-1.4-1-2.5C155.3,523.4,155.5,522.8,156,522.2z M157.8,525.5c0.4,0.3,0.8,0.5,1.4,0.5c0.7,0,1.4-0.2,2.2-0.7s1.3-1.1,1.7-1.8
		v-2.2l-1.9,0.4c-1.1,0.2-1.8,0.4-2.4,0.5c-0.5,0.2-0.9,0.4-1.2,0.7c-0.3,0.3-0.4,0.7-0.4,1.2C157.2,524.7,157.4,525.2,157.8,525.5z
		"/>
	<path class="st1" d="M169.6,513.9h-1.8v-2.3h1.8V513.9z M169.6,527.2h-1.8v-11.5h1.8V527.2z"/>
	<path class="st1" d="M172.7,527.2v-11.5h1.7l0.1,2.3c0.4-0.7,1-1.3,1.7-1.9s1.5-0.8,2.4-0.8c1.2,0,2.1,0.4,2.8,1.1
		c0.7,0.7,1,1.8,1,3.2v7.5h-1.9v-7.4c0-1-0.2-1.7-0.5-2.2c-0.3-0.5-0.9-0.7-1.7-0.7c-0.5,0-1,0.2-1.6,0.5s-1,0.8-1.4,1.3
		s-0.7,1.1-0.8,1.7v6.8H172.7z"/>
	<path class="st1" d="M184.9,522.2c0.3-0.5,0.8-0.8,1.5-1.1s1.6-0.5,2.7-0.7l2.9-0.5c0-1-0.3-1.8-0.8-2.3c-0.5-0.5-1.2-0.7-2.3-0.7
		c-0.7,0-1.4,0.2-2.1,0.5s-1.2,0.8-1.6,1.3v-1.8c0.4-0.4,1-0.8,1.7-1c0.7-0.3,1.4-0.4,2.2-0.4c1.5,0,2.6,0.4,3.4,1.1
		c0.8,0.7,1.3,1.8,1.3,3.3v7.4h-1.4l-0.3-1.8c-0.5,0.7-1.2,1.2-1.9,1.5c-0.7,0.4-1.5,0.5-2.4,0.5c-1.1,0-1.9-0.3-2.6-0.9
		s-1-1.4-1-2.5C184.3,523.4,184.5,522.8,184.9,522.2z M186.7,525.5c0.4,0.3,0.8,0.5,1.4,0.5c0.7,0,1.4-0.2,2.2-0.7s1.3-1.1,1.7-1.8
		v-2.2l-1.9,0.4c-1.1,0.2-1.8,0.4-2.4,0.5c-0.5,0.2-0.9,0.4-1.2,0.7c-0.3,0.3-0.4,0.7-0.4,1.2C186.2,524.7,186.4,525.2,186.7,525.5z
		"/>
	<path class="st1" d="M196.7,527.2v-16.1h1.8v6.3c0.4-0.6,1-1.1,1.6-1.5c0.7-0.4,1.3-0.6,2.1-0.6c1,0,1.8,0.2,2.6,0.7
		c0.8,0.5,1.4,1.2,1.8,2.1c0.4,0.9,0.7,2,0.7,3.2c0,1.2-0.2,2.3-0.7,3.2s-1,1.6-1.8,2.1c-0.8,0.5-1.6,0.7-2.6,0.7
		c-0.8,0-1.5-0.2-2.1-0.6c-0.7-0.4-1.2-0.9-1.6-1.5l-0.1,1.8H196.7z M198.6,523.4c0.3,0.8,0.8,1.4,1.4,1.9c0.6,0.5,1.3,0.8,2,0.8
		c0.6,0,1.2-0.2,1.7-0.6s0.9-0.9,1.2-1.6c0.3-0.7,0.4-1.5,0.4-2.4c0-0.9-0.2-1.7-0.5-2.4c-0.3-0.7-0.7-1.2-1.2-1.6s-1.1-0.6-1.7-0.6
		c-0.7,0-1.4,0.3-2,0.8s-1.1,1.2-1.4,1.9V523.4z"/>
	<path class="st1" d="M211.4,527.2h-1.8v-16.1h1.8V527.2z"/>
	<path class="st1" d="M213.6,521.2c0-1.1,0.2-2.1,0.7-3c0.4-0.9,1-1.6,1.8-2.1c0.8-0.5,1.7-0.7,2.7-0.7c1.5,0,2.7,0.5,3.6,1.5
		s1.3,2.5,1.3,4.4v0.8h-8.2c0.1,1.2,0.4,2.1,1,2.8c0.6,0.7,1.4,1.1,2.5,1.1c1.6,0,3-0.6,4.1-1.7v1.9c-0.5,0.4-1.1,0.7-1.7,1
		c-0.7,0.2-1.4,0.4-2.3,0.4c-1.1,0-2.1-0.2-2.9-0.7c-0.8-0.5-1.4-1.2-1.8-2.1c-0.4-0.9-0.6-1.9-0.6-3.1V521.2z M221.8,520.7
		c0-1.2-0.3-2.2-0.9-2.8s-1.3-0.9-2.2-0.9c-0.6,0-1.1,0.2-1.6,0.5c-0.5,0.3-0.9,0.7-1.2,1.3c-0.3,0.6-0.5,1.2-0.5,2H221.8z"/>
	<path class="st1" d="M227.9,527.2h-2.4v-2.7h2.4V527.2z"/>
</g>
<g>
	<path class="st1" d="M26.6,557.9h-4.9v-1.6h11.7v1.6h-4.9v14.4h-1.9V557.9z"/>
	<path class="st1" d="M35.4,572.2v-16.1h1.8v6.9c0.4-0.7,1-1.3,1.7-1.8c0.7-0.5,1.5-0.8,2.4-0.8c1.2,0,2.1,0.4,2.8,1.1
		c0.6,0.7,1,1.8,1,3.2v7.5h-1.8v-7.4c0-1-0.2-1.7-0.5-2.2c-0.3-0.5-0.9-0.7-1.7-0.7c-0.5,0-1,0.2-1.6,0.5c-0.5,0.3-1,0.8-1.4,1.3
		c-0.4,0.5-0.7,1.1-0.8,1.7v6.8H35.4z"/>
	<path class="st1" d="M47,566.2c0-1.1,0.2-2.1,0.7-3c0.4-0.9,1-1.6,1.8-2.1c0.8-0.5,1.7-0.7,2.7-0.7c1.5,0,2.7,0.5,3.6,1.5
		c0.9,1,1.3,2.5,1.3,4.4v0.8h-8.2c0.1,1.2,0.4,2.1,1,2.8s1.4,1.1,2.5,1.1c1.6,0,3-0.6,4.1-1.7v1.9c-0.5,0.4-1.1,0.7-1.7,1
		s-1.4,0.4-2.3,0.4c-1.1,0-2.1-0.2-2.9-0.7c-0.8-0.5-1.4-1.2-1.8-2.1c-0.4-0.9-0.6-1.9-0.6-3.1V566.2z M55.3,565.7
		c0-1.2-0.3-2.2-0.9-2.8c-0.6-0.6-1.3-0.9-2.2-0.9c-0.6,0-1.1,0.2-1.6,0.5s-0.9,0.7-1.2,1.3c-0.3,0.6-0.5,1.2-0.5,2H55.3z"/>
	<path class="st1" d="M66.9,572.2h-2v-16h2v7.2l7.4-7.2h2.5l-8,7.8l8.3,8.2h-2.8l-7.4-7.4V572.2z"/>
	<path class="st1" d="M80.6,558.9h-1.8v-2.3h1.8V558.9z M80.6,572.2h-1.8v-11.5h1.8V572.2z"/>
	<path class="st1" d="M83.4,567.2c0.3-0.5,0.8-0.8,1.5-1.1s1.6-0.5,2.7-0.7l2.9-0.5c0-1-0.3-1.8-0.8-2.3c-0.5-0.5-1.2-0.7-2.3-0.7
		c-0.7,0-1.4,0.2-2.1,0.5s-1.2,0.8-1.6,1.3v-1.8c0.4-0.4,1-0.8,1.7-1c0.7-0.3,1.4-0.4,2.2-0.4c1.5,0,2.6,0.4,3.4,1.1
		c0.8,0.7,1.3,1.8,1.3,3.3v7.4h-1.4l-0.3-1.8c-0.5,0.7-1.2,1.2-1.9,1.5c-0.7,0.4-1.5,0.5-2.4,0.5c-1.1,0-1.9-0.3-2.6-0.9
		s-1-1.4-1-2.5C82.8,568.4,83,567.8,83.4,567.2z M85.2,570.5c0.4,0.3,0.8,0.5,1.4,0.5c0.7,0,1.4-0.2,2.2-0.7s1.3-1.1,1.7-1.8v-2.2
		l-1.9,0.4c-1.1,0.2-1.8,0.4-2.4,0.5c-0.5,0.2-0.9,0.4-1.2,0.7c-0.3,0.3-0.4,0.7-0.4,1.2C84.7,569.7,84.8,570.2,85.2,570.5z"/>
	<path class="st1" d="M110.4,572.2h-9.6v-16h9.5v1.6h-7.6v5.4h6.4v1.6h-6.4v5.8h7.7V572.2z"/>
	<path class="st1" d="M117.6,572.2l-6-16h2.1l5,13.6l4.9-13.6h2l-5.8,16H117.6z"/>
	<path class="st1" d="M127.1,568.4c0.5,0.8,1.1,1.4,1.8,1.8c0.7,0.4,1.5,0.6,2.3,0.6c0.7,0,1.4-0.2,1.9-0.5c0.6-0.3,1-0.8,1.3-1.3
		s0.5-1.2,0.5-1.9c0-0.7-0.1-1.2-0.4-1.8c-0.3-0.5-0.7-0.9-1.1-1.2c-0.5-0.3-1-0.4-1.5-0.4c-0.6,0-1.2,0.1-1.7,0.4
		c-0.5,0.2-0.9,0.5-1.1,0.8h-1.4l0.8-8.6h7.9v1.6h-6.1l-0.4,5c0.7-0.5,1.5-0.8,2.5-0.8c0.8,0,1.6,0.2,2.3,0.6c0.7,0.4,1.3,1,1.7,1.7
		c0.4,0.7,0.6,1.6,0.6,2.6c0,1.1-0.2,2-0.7,2.8c-0.5,0.8-1.2,1.4-2,1.8s-1.8,0.6-2.9,0.6c-0.9,0-1.7-0.2-2.5-0.5s-1.3-0.7-1.7-1.2
		V568.4z"/>
	<path class="st1" d="M141.9,572.2h-2.4v-2.7h2.4V572.2z M141.9,563.5h-2.4v-2.7h2.4V563.5z"/>
	<path class="st1" d="M150.1,567.2c0.3-0.5,0.8-0.8,1.5-1.1s1.6-0.5,2.7-0.7l2.9-0.5c0-1-0.3-1.8-0.8-2.3c-0.5-0.5-1.2-0.7-2.3-0.7
		c-0.7,0-1.4,0.2-2.1,0.5s-1.2,0.8-1.6,1.3v-1.8c0.4-0.4,1-0.8,1.7-1c0.7-0.3,1.4-0.4,2.2-0.4c1.5,0,2.6,0.4,3.4,1.1
		c0.8,0.7,1.3,1.8,1.3,3.3v7.4h-1.4l-0.3-1.8c-0.5,0.7-1.2,1.2-1.9,1.5c-0.7,0.4-1.5,0.5-2.4,0.5c-1.1,0-1.9-0.3-2.6-0.9
		s-1-1.4-1-2.5C149.5,568.4,149.7,567.8,150.1,567.2z M151.9,570.5c0.4,0.3,0.8,0.5,1.4,0.5c0.7,0,1.4-0.2,2.2-0.7s1.3-1.1,1.7-1.8
		v-2.2l-1.9,0.4c-1.1,0.2-1.8,0.4-2.4,0.5c-0.5,0.2-0.9,0.4-1.2,0.7c-0.3,0.3-0.4,0.7-0.4,1.2C151.4,569.7,151.6,570.2,151.9,570.5z
		"/>
	<path class="st1" d="M166.6,566.3c0-1.1,0.2-2.1,0.7-3c0.5-0.9,1.1-1.6,2-2.1c0.9-0.5,1.8-0.7,2.9-0.7c0.6,0,1.2,0.1,1.8,0.3
		c0.6,0.2,1.1,0.5,1.5,0.9v2c-0.4-0.6-1-1-1.5-1.3c-0.6-0.3-1.2-0.4-1.8-0.4c-0.7,0-1.3,0.2-1.9,0.5c-0.6,0.4-1,0.9-1.3,1.5
		c-0.3,0.7-0.5,1.4-0.5,2.2v0.4c0,0.9,0.2,1.6,0.5,2.3c0.3,0.7,0.8,1.2,1.3,1.6c0.6,0.4,1.2,0.6,1.8,0.6c1.3,0,2.4-0.6,3.4-1.7v1.9
		c-0.4,0.4-0.9,0.7-1.5,0.9s-1.2,0.4-1.9,0.4c-1.1,0-2-0.3-2.9-0.8c-0.9-0.5-1.5-1.2-2-2.1c-0.5-0.9-0.7-1.9-0.7-3V566.3z"/>
	<path class="st1" d="M177.1,566.3c0-1.1,0.2-2.2,0.7-3.1c0.5-0.9,1.1-1.6,1.9-2.1s1.7-0.7,2.8-0.7c1.1,0,2,0.2,2.8,0.7
		s1.4,1.2,1.9,2.1c0.5,0.9,0.7,1.9,0.7,3.1v0.4c0,1.1-0.2,2.2-0.7,3.1c-0.5,0.9-1.1,1.6-1.9,2.1c-0.8,0.5-1.7,0.7-2.8,0.7
		c-1,0-2-0.2-2.8-0.7c-0.8-0.5-1.5-1.2-1.9-2.1c-0.5-0.9-0.7-1.9-0.7-3.1V566.3z M179,566.7c0,1.3,0.3,2.4,0.9,3.2
		c0.6,0.8,1.5,1.2,2.5,1.2c1.1,0,1.9-0.4,2.5-1.2c0.6-0.8,0.9-1.9,0.9-3.2v-0.4c0-1.3-0.3-2.4-0.9-3.2c-0.6-0.8-1.5-1.2-2.5-1.2
		c-1.1,0-1.9,0.4-2.5,1.2c-0.6,0.8-0.9,1.9-0.9,3.2V566.7z"/>
	<path class="st1" d="M190.1,572.2v-11.5h1.7l0.1,2.1c0.4-0.7,1-1.3,1.6-1.7c0.6-0.4,1.3-0.7,2.2-0.7c0.8,0,1.5,0.2,2.1,0.7
		c0.6,0.4,0.9,1.1,1.1,1.9c0.5-0.8,1-1.4,1.7-1.8s1.4-0.7,2.2-0.7c1.1,0,1.9,0.3,2.5,1c0.6,0.7,0.9,1.7,0.9,3v7.8h-1.8v-7.6
		c0-0.9-0.2-1.6-0.5-2c-0.3-0.4-0.8-0.7-1.5-0.7c-0.4,0-0.9,0.1-1.3,0.4s-0.9,0.7-1.2,1.1c-0.4,0.5-0.6,1-0.8,1.5v7.2h-1.8v-7.7
		c0-0.9-0.2-1.6-0.5-2c-0.3-0.4-0.8-0.6-1.5-0.6c-0.4,0-0.9,0.1-1.3,0.4c-0.5,0.3-0.9,0.7-1.2,1.1c-0.4,0.5-0.6,1-0.8,1.5v7.2H190.1
		z"/>
	<path class="st1" d="M209,576.8v-16.1h1.7l0.1,1.8c0.4-0.6,0.9-1.2,1.6-1.6c0.7-0.4,1.4-0.6,2.1-0.6c1,0,1.8,0.2,2.6,0.7
		c0.8,0.5,1.4,1.2,1.8,2.1s0.7,2,0.7,3.2c0,1.2-0.2,2.3-0.7,3.2c-0.4,0.9-1,1.6-1.8,2.1s-1.6,0.7-2.6,0.7c-0.7,0-1.4-0.2-2.1-0.6
		c-0.7-0.4-1.2-0.9-1.6-1.5v6.3H209z M210.8,568.3c0.3,0.8,0.7,1.4,1.4,2c0.6,0.5,1.3,0.8,2,0.8c0.6,0,1.2-0.2,1.7-0.6
		c0.5-0.4,0.9-0.9,1.2-1.6c0.3-0.7,0.5-1.5,0.5-2.4c0-0.9-0.1-1.7-0.4-2.4s-0.7-1.2-1.2-1.6s-1.1-0.6-1.7-0.6c-0.7,0-1.4,0.3-2,0.8
		c-0.6,0.5-1.1,1.2-1.4,2V568.3z"/>
	<path class="st1" d="M221.6,567.2c0.3-0.5,0.8-0.8,1.5-1.1s1.6-0.5,2.7-0.7l2.9-0.5c0-1-0.3-1.8-0.8-2.3c-0.5-0.5-1.2-0.7-2.3-0.7
		c-0.7,0-1.4,0.2-2.1,0.5s-1.2,0.8-1.6,1.3v-1.8c0.4-0.4,1-0.8,1.7-1c0.7-0.3,1.4-0.4,2.2-0.4c1.5,0,2.6,0.4,3.4,1.1
		c0.8,0.7,1.3,1.8,1.3,3.3v7.4h-1.4l-0.3-1.8c-0.5,0.7-1.2,1.2-1.9,1.5c-0.7,0.4-1.5,0.5-2.4,0.5c-1.1,0-1.9-0.3-2.6-0.9
		s-1-1.4-1-2.5C221,568.4,221.2,567.8,221.6,567.2z M223.4,570.5c0.4,0.3,0.8,0.5,1.4,0.5c0.7,0,1.4-0.2,2.2-0.7s1.3-1.1,1.7-1.8
		v-2.2l-1.9,0.4c-1.1,0.2-1.8,0.4-2.4,0.5c-0.5,0.2-0.9,0.4-1.2,0.7c-0.3,0.3-0.4,0.7-0.4,1.2C222.8,569.7,223,570.2,223.4,570.5z"
		/>
	<path class="st1" d="M232.6,566.3c0-1.1,0.2-2.1,0.7-3c0.5-0.9,1.1-1.6,2-2.1c0.9-0.5,1.8-0.7,2.9-0.7c0.6,0,1.2,0.1,1.8,0.3
		c0.6,0.2,1.1,0.5,1.5,0.9v2c-0.4-0.6-1-1-1.5-1.3c-0.6-0.3-1.2-0.4-1.8-0.4c-0.7,0-1.3,0.2-1.9,0.5c-0.6,0.4-1,0.9-1.3,1.5
		c-0.3,0.7-0.5,1.4-0.5,2.2v0.4c0,0.9,0.2,1.6,0.5,2.3c0.3,0.7,0.8,1.2,1.3,1.6c0.6,0.4,1.2,0.6,1.8,0.6c1.3,0,2.4-0.6,3.4-1.7v1.9
		c-0.4,0.4-0.9,0.7-1.5,0.9s-1.2,0.4-1.9,0.4c-1.1,0-2-0.3-2.9-0.8c-0.9-0.5-1.5-1.2-2-2.1c-0.5-0.9-0.7-1.9-0.7-3V566.3z"/>
	<path class="st1" d="M245.4,562.3h-2.5v-1.5h2.5v-3.5h1.8v3.5h2.5v1.5h-2.5v10h-1.8V562.3z"/>
	<path class="st1" d="M256.5,568.4c0.5,0.8,1.2,1.4,2,1.9s1.7,0.7,2.6,0.7c0.7,0,1.3-0.1,1.8-0.4c0.5-0.3,0.9-0.6,1.1-1
		s0.4-0.9,0.4-1.3c0-0.6-0.2-1.2-0.6-1.6s-1-0.9-1.8-1.3l-2.3-1.2c-1-0.5-1.7-1.1-2.2-1.7c-0.5-0.6-0.8-1.4-0.8-2.4
		c0-0.7,0.2-1.4,0.6-2s0.9-1.1,1.6-1.4c0.7-0.4,1.6-0.5,2.5-0.5c0.8,0,1.6,0.2,2.4,0.5c0.8,0.3,1.4,0.8,2,1.3v2.3
		c-0.6-0.8-1.2-1.4-2-1.8c-0.8-0.4-1.6-0.7-2.3-0.7c-0.8,0-1.5,0.2-2,0.7s-0.7,1-0.7,1.7c0,0.5,0.2,1,0.5,1.4
		c0.3,0.4,0.9,0.8,1.8,1.2l2.2,1.2c1.1,0.6,1.9,1.2,2.4,1.9c0.5,0.7,0.8,1.6,0.8,2.6c0,0.8-0.2,1.6-0.6,2.3c-0.4,0.7-1,1.2-1.8,1.6
		c-0.8,0.4-1.7,0.6-2.8,0.6c-1,0-1.9-0.2-2.7-0.5c-0.8-0.3-1.4-0.8-1.9-1.3V568.4z"/>
	<path class="st1" d="M268.9,556.3h2v10.1c0,1.4,0.4,2.6,1.1,3.4c0.7,0.8,1.8,1.2,3.2,1.2c1.4,0,2.4-0.4,3.1-1.2
		c0.7-0.8,1.1-1.9,1.1-3.4v-10.1h1.8v10.1c0,1.2-0.2,2.2-0.7,3.2c-0.5,0.9-1.2,1.6-2.1,2.2c-0.9,0.5-2,0.8-3.3,0.8s-2.4-0.3-3.3-0.8
		c-0.9-0.5-1.6-1.2-2.1-2.2c-0.5-0.9-0.7-2-0.7-3.2V556.3z"/>
	<path class="st1" d="M289,572.2l-6-16h2.1l5,13.6l4.9-13.6h2l-5.8,16H289z"/>
	<path class="st1" d="M313.9,572.2h-9.6v-16h9.5v1.6h-7.6v5.4h6.4v1.6h-6.4v5.8h7.7V572.2z"/>
	<path class="st1" d="M321.1,572.2l-6-16h2.1l5,13.6l4.9-13.6h2l-5.8,16H321.1z"/>
</g>
<g>
	<path class="st1" d="M22.6,608.3c0.4-0.9,1-1.6,1.8-2.1s1.6-0.7,2.6-0.7c0.7,0,1.4,0.2,2.1,0.6c0.7,0.4,1.2,0.9,1.6,1.5v-6.3h1.8
		v16.1h-1.7l-0.1-1.8c-0.4,0.6-0.9,1.1-1.6,1.5c-0.7,0.4-1.4,0.6-2.1,0.6c-1,0-1.8-0.2-2.6-0.7c-0.8-0.5-1.4-1.2-1.8-2.1
		c-0.4-0.9-0.7-2-0.7-3.2C21.9,610.3,22.1,609.2,22.6,608.3z M24.3,613.9c0.3,0.7,0.7,1.2,1.2,1.6c0.5,0.4,1.1,0.6,1.7,0.6
		c0.7,0,1.4-0.3,2-0.8c0.6-0.5,1.1-1.2,1.4-1.9v-3.7c-0.3-0.8-0.8-1.4-1.4-1.9c-0.6-0.5-1.3-0.8-2-0.8c-0.6,0-1.2,0.2-1.7,0.6
		c-0.5,0.4-0.9,0.9-1.2,1.6c-0.3,0.7-0.5,1.5-0.5,2.4C23.8,612.4,24,613.2,24.3,613.9z"/>
	<path class="st1" d="M34.7,611.2c0-1.1,0.2-2.1,0.7-3c0.4-0.9,1-1.6,1.8-2.1c0.8-0.5,1.7-0.7,2.7-0.7c1.5,0,2.7,0.5,3.6,1.5
		c0.9,1,1.3,2.5,1.3,4.4v0.8h-8.2c0.1,1.2,0.4,2.1,1,2.8c0.6,0.7,1.4,1.1,2.5,1.1c1.6,0,3-0.6,4.1-1.7v1.9c-0.5,0.4-1.1,0.8-1.7,1
		c-0.7,0.2-1.4,0.4-2.3,0.4c-1.1,0-2.1-0.2-2.9-0.7c-0.8-0.5-1.4-1.2-1.8-2.1c-0.4-0.9-0.6-1.9-0.6-3.1V611.2z M42.9,610.7
		c0-1.2-0.3-2.2-0.9-2.8c-0.6-0.6-1.3-0.9-2.2-0.9c-0.6,0-1.1,0.2-1.6,0.5c-0.5,0.3-0.9,0.7-1.2,1.3c-0.3,0.6-0.5,1.2-0.5,2H42.9z"
		/>
	<path class="st1" d="M48.8,617.2H47v-16.1h1.8V617.2z"/>
	<path class="st1" d="M53.7,603.9h-1.8v-2.3h1.8V603.9z M53.7,617.2h-1.8v-11.5h1.8V617.2z"/>
	<path class="st1" d="M59.8,617.2l-4.4-11.5h2l3.5,9.5l3.5-9.5h1.8l-4.4,11.5H59.8z"/>
	<path class="st1" d="M67,611.2c0-1.1,0.2-2.1,0.7-3c0.4-0.9,1-1.6,1.8-2.1c0.8-0.5,1.7-0.7,2.7-0.7c1.5,0,2.7,0.5,3.6,1.5
		c0.9,1,1.3,2.5,1.3,4.4v0.8h-8.2c0.1,1.2,0.4,2.1,1,2.8c0.6,0.7,1.4,1.1,2.5,1.1c1.6,0,3-0.6,4.1-1.7v1.9c-0.5,0.4-1.1,0.8-1.7,1
		c-0.7,0.2-1.4,0.4-2.3,0.4c-1.1,0-2.1-0.2-2.9-0.7c-0.8-0.5-1.4-1.2-1.8-2.1c-0.4-0.9-0.6-1.9-0.6-3.1V611.2z M75.3,610.7
		c0-1.2-0.3-2.2-0.9-2.8c-0.6-0.6-1.3-0.9-2.2-0.9c-0.6,0-1.1,0.2-1.6,0.5c-0.5,0.3-0.9,0.7-1.2,1.3c-0.3,0.6-0.5,1.2-0.5,2H75.3z"
		/>
	<path class="st1" d="M79.4,617.2v-11.5H81l0.1,2c0.3-0.7,0.8-1.3,1.4-1.7c0.6-0.4,1.3-0.6,2.1-0.6c0.2,0,0.4,0,0.6,0
		c0.2,0,0.4,0.1,0.5,0.1v1.6c-0.3-0.1-0.7-0.2-1.2-0.2c-0.7,0-1.4,0.2-2,0.7c-0.6,0.5-1,1.1-1.3,2v7.5H79.4z"/>
	<path class="st1" d="M89.1,603.9h-1.8v-2.3h1.8V603.9z M89.1,617.2h-1.8v-11.5h1.8V617.2z"/>
	<path class="st1" d="M92.2,617.2v-11.5h1.7l0.1,2.3c0.4-0.7,1-1.3,1.7-1.9c0.7-0.5,1.5-0.8,2.4-0.8c1.2,0,2.1,0.4,2.8,1.1
		c0.7,0.7,1,1.8,1,3.2v7.5H100v-7.4c0-1-0.2-1.7-0.5-2.2c-0.3-0.5-0.9-0.7-1.7-0.7c-0.5,0-1,0.2-1.6,0.5c-0.5,0.3-1,0.8-1.4,1.3
		c-0.4,0.5-0.7,1.1-0.8,1.7v6.8H92.2z"/>
	<path class="st1" d="M104.5,608.2c0.4-0.9,1-1.5,1.8-2c0.8-0.5,1.6-0.7,2.6-0.7c0.7,0,1.4,0.2,2.1,0.6c0.6,0.4,1.2,0.9,1.6,1.5
		l0.1-1.7h1.7v11c0,1.1-0.2,2-0.7,2.8c-0.4,0.8-1.1,1.4-2,1.8c-0.9,0.4-1.9,0.7-3.1,0.7c-0.8,0-1.5-0.1-2-0.3
		c-0.6-0.2-1.1-0.4-1.6-0.8v-1.8c1.1,0.9,2.3,1.3,3.7,1.3c1.2,0,2.1-0.3,2.8-1c0.7-0.6,1-1.6,1-2.8V615c-0.4,0.6-0.9,1.1-1.6,1.4
		c-0.6,0.4-1.3,0.5-2,0.5c-1,0-1.8-0.2-2.6-0.7c-0.8-0.5-1.3-1.1-1.8-2c-0.4-0.9-0.6-1.9-0.6-3.1C103.9,610,104.1,609,104.5,608.2z
		 M106.2,613.5c0.3,0.6,0.7,1.1,1.2,1.5c0.5,0.3,1.1,0.5,1.7,0.5c0.7,0,1.4-0.2,2-0.7c0.6-0.5,1.1-1.1,1.4-1.9v-3.3
		c-0.3-0.8-0.7-1.4-1.4-1.9c-0.6-0.5-1.3-0.8-2-0.8c-0.6,0-1.2,0.2-1.7,0.5c-0.5,0.3-0.9,0.8-1.2,1.5c-0.3,0.6-0.4,1.4-0.4,2.3
		C105.8,612.1,105.9,612.9,106.2,613.5z"/>
	<path class="st1" d="M124,607.3h-2.5v-1.5h2.5v-3.5h1.8v3.5h2.5v1.5h-2.5v10H124V607.3z"/>
	<path class="st1" d="M130,617.2v-16.1h1.8v6.9c0.4-0.7,1-1.3,1.7-1.8c0.7-0.5,1.5-0.8,2.4-0.8c1.2,0,2.1,0.4,2.8,1.1
		c0.6,0.7,1,1.8,1,3.2v7.5h-1.8v-7.4c0-1-0.2-1.7-0.5-2.2c-0.3-0.5-0.9-0.7-1.7-0.7c-0.5,0-1,0.2-1.6,0.5s-1,0.7-1.4,1.3
		c-0.4,0.5-0.7,1.1-0.8,1.7v6.8H130z"/>
	<path class="st1" d="M141.6,611.2c0-1.1,0.2-2.1,0.7-3c0.4-0.9,1-1.6,1.8-2.1c0.8-0.5,1.7-0.7,2.7-0.7c1.5,0,2.7,0.5,3.6,1.5
		c0.9,1,1.3,2.5,1.3,4.4v0.8h-8.2c0.1,1.2,0.4,2.1,1,2.8c0.6,0.7,1.4,1.1,2.5,1.1c1.6,0,3-0.6,4.1-1.7v1.9c-0.5,0.4-1.1,0.8-1.7,1
		c-0.7,0.2-1.4,0.4-2.3,0.4c-1.1,0-2.1-0.2-2.9-0.7c-0.8-0.5-1.4-1.2-1.8-2.1c-0.4-0.9-0.6-1.9-0.6-3.1V611.2z M149.9,610.7
		c0-1.2-0.3-2.2-0.9-2.8c-0.6-0.6-1.3-0.9-2.2-0.9c-0.6,0-1.1,0.2-1.6,0.5c-0.5,0.3-0.9,0.7-1.2,1.3c-0.3,0.6-0.5,1.2-0.5,2H149.9z"
		/>
	<path class="st1" d="M158,607.3v-1.5h2.3v-1.1c0-0.7,0.1-1.3,0.4-1.9c0.3-0.6,0.7-1.1,1.2-1.4s1.2-0.5,2-0.5c0.5,0,1,0.1,1.4,0.3
		v1.6c-0.3-0.3-0.8-0.4-1.3-0.4c-0.6,0-1,0.2-1.4,0.6c-0.3,0.4-0.5,1-0.5,1.8v1.1h2.7v1.5h-2.7v10h-1.9v-10H158z"/>
	<path class="st1" d="M166.7,605.8h1.8v7.4c0,1,0.2,1.7,0.5,2.2c0.3,0.5,0.9,0.7,1.7,0.7c0.5,0,1.1-0.2,1.6-0.5
		c0.5-0.3,1-0.8,1.4-1.3s0.7-1.1,0.8-1.7v-6.8h1.9v11.5h-1.7l-0.1-2.3c-0.4,0.7-1,1.3-1.7,1.9c-0.7,0.5-1.5,0.8-2.4,0.8
		c-1.2,0-2.1-0.4-2.8-1.1c-0.6-0.7-1-1.8-1-3.2V605.8z"/>
	<path class="st1" d="M180.5,607.3H178v-1.5h2.5v-3.5h1.8v3.5h2.5v1.5h-2.5v10h-1.8V607.3z"/>
	<path class="st1" d="M186.4,605.8h1.8v7.4c0,1,0.2,1.7,0.5,2.2c0.3,0.5,0.9,0.7,1.7,0.7c0.5,0,1.1-0.2,1.6-0.5
		c0.5-0.3,1-0.8,1.4-1.3s0.7-1.1,0.8-1.7v-6.8h1.9v11.5h-1.7l-0.1-2.3c-0.4,0.7-1,1.3-1.7,1.9c-0.7,0.5-1.5,0.8-2.4,0.8
		c-1.2,0-2.1-0.4-2.8-1.1c-0.6-0.7-1-1.8-1-3.2V605.8z"/>
	<path class="st1" d="M199.1,617.2v-11.5h1.7l0.1,2c0.3-0.7,0.8-1.3,1.4-1.7c0.6-0.4,1.3-0.6,2.1-0.6c0.2,0,0.4,0,0.6,0
		c0.2,0,0.4,0.1,0.5,0.1v1.6c-0.3-0.1-0.7-0.2-1.2-0.2c-0.7,0-1.4,0.2-2,0.7c-0.6,0.5-1,1.1-1.3,2v7.5H199.1z"/>
	<path class="st1" d="M206.2,611.2c0-1.1,0.2-2.1,0.7-3c0.4-0.9,1-1.6,1.8-2.1c0.8-0.5,1.7-0.7,2.7-0.7c1.5,0,2.7,0.5,3.6,1.5
		c0.9,1,1.3,2.5,1.3,4.4v0.8H208c0.1,1.2,0.4,2.1,1,2.8c0.6,0.7,1.4,1.1,2.5,1.1c1.6,0,3-0.6,4.1-1.7v1.9c-0.5,0.4-1.1,0.8-1.7,1
		c-0.7,0.2-1.4,0.4-2.3,0.4c-1.1,0-2.1-0.2-2.9-0.7c-0.8-0.5-1.4-1.2-1.8-2.1c-0.4-0.9-0.6-1.9-0.6-3.1V611.2z M214.4,610.7
		c0-1.2-0.3-2.2-0.9-2.8c-0.6-0.6-1.3-0.9-2.2-0.9c-0.6,0-1.1,0.2-1.6,0.5c-0.5,0.3-0.9,0.7-1.2,1.3c-0.3,0.6-0.5,1.2-0.5,2H214.4z"
		/>
	<path class="st1" d="M223.1,611.3c0-1.1,0.2-2.2,0.7-3.1c0.5-0.9,1.1-1.6,1.9-2.1c0.8-0.5,1.7-0.7,2.8-0.7c1.1,0,2,0.2,2.8,0.7
		c0.8,0.5,1.4,1.2,1.9,2.1c0.5,0.9,0.7,1.9,0.7,3.1v0.4c0,1.1-0.2,2.2-0.7,3.1c-0.5,0.9-1.1,1.6-1.9,2.1s-1.7,0.7-2.8,0.7
		c-1,0-2-0.2-2.8-0.7s-1.5-1.2-1.9-2.1c-0.5-0.9-0.7-1.9-0.7-3.1V611.3z M225.1,611.7c0,1.3,0.3,2.4,0.9,3.2
		c0.6,0.8,1.5,1.2,2.5,1.2c1.1,0,1.9-0.4,2.5-1.2c0.6-0.8,0.9-1.9,0.9-3.2v-0.4c0-1.3-0.3-2.4-0.9-3.2s-1.5-1.2-2.5-1.2
		c-1.1,0-1.9,0.4-2.5,1.2s-0.9,1.9-0.9,3.2V611.7z"/>
	<path class="st1" d="M234.7,607.3v-1.5h2.3v-1.1c0-0.7,0.1-1.3,0.4-1.9c0.3-0.6,0.7-1.1,1.2-1.4s1.2-0.5,2-0.5c0.5,0,1,0.1,1.4,0.3
		v1.6c-0.3-0.3-0.8-0.4-1.3-0.4c-0.6,0-1,0.2-1.4,0.6c-0.3,0.4-0.5,1-0.5,1.8v1.1h2.7v1.5h-2.7v10H237v-10H234.7z"/>
	<path class="st1" d="M249.1,617.2v-11.5h1.7l0.1,2.1c0.4-0.7,1-1.3,1.6-1.7s1.3-0.7,2.2-0.7c0.8,0,1.5,0.2,2.1,0.7
		c0.6,0.4,0.9,1.1,1.1,1.9c0.5-0.8,1-1.4,1.7-1.8s1.4-0.7,2.2-0.7c1.1,0,1.9,0.3,2.5,1s0.9,1.7,0.9,3v7.8h-1.8v-7.6
		c0-0.9-0.2-1.6-0.5-2c-0.3-0.4-0.8-0.7-1.5-0.7c-0.4,0-0.9,0.1-1.3,0.4s-0.9,0.7-1.2,1.1s-0.6,1-0.8,1.5v7.2h-1.8v-7.7
		c0-0.9-0.2-1.6-0.5-2c-0.3-0.4-0.8-0.6-1.5-0.6c-0.4,0-0.9,0.1-1.3,0.4c-0.5,0.3-0.9,0.7-1.2,1.1s-0.6,1-0.8,1.5v7.2H249.1z"/>
	<path class="st1" d="M267.1,611.3c0-1.1,0.2-2.2,0.7-3.1c0.5-0.9,1.1-1.6,1.9-2.1c0.8-0.5,1.7-0.7,2.8-0.7c1.1,0,2,0.2,2.8,0.7
		c0.8,0.5,1.4,1.2,1.9,2.1c0.5,0.9,0.7,1.9,0.7,3.1v0.4c0,1.1-0.2,2.2-0.7,3.1c-0.5,0.9-1.1,1.6-1.9,2.1s-1.7,0.7-2.8,0.7
		c-1,0-2-0.2-2.8-0.7s-1.5-1.2-1.9-2.1c-0.5-0.9-0.7-1.9-0.7-3.1V611.3z M269.1,611.7c0,1.3,0.3,2.4,0.9,3.2
		c0.6,0.8,1.5,1.2,2.5,1.2c1.1,0,1.9-0.4,2.5-1.2c0.6-0.8,0.9-1.9,0.9-3.2v-0.4c0-1.3-0.3-2.4-0.9-3.2s-1.5-1.2-2.5-1.2
		c-1.1,0-1.9,0.4-2.5,1.2s-0.9,1.9-0.9,3.2V611.7z"/>
	<path class="st1" d="M280.1,617.2v-16.1h1.8v6.3c0.4-0.6,1-1.1,1.6-1.5c0.7-0.4,1.3-0.6,2.1-0.6c1,0,1.8,0.2,2.6,0.7
		c0.8,0.5,1.4,1.2,1.8,2.1c0.4,0.9,0.7,2,0.7,3.2c0,1.2-0.2,2.3-0.7,3.2c-0.4,0.9-1,1.6-1.8,2.1c-0.8,0.5-1.6,0.7-2.6,0.7
		c-0.8,0-1.5-0.2-2.1-0.6c-0.7-0.4-1.2-0.9-1.6-1.5l-0.1,1.8H280.1z M282,613.4c0.3,0.8,0.8,1.4,1.4,1.9s1.3,0.8,2,0.8
		c0.6,0,1.2-0.2,1.7-0.6s0.9-0.9,1.2-1.6c0.3-0.7,0.4-1.5,0.4-2.4c0-0.9-0.2-1.7-0.5-2.4c-0.3-0.7-0.7-1.2-1.2-1.6s-1.1-0.6-1.7-0.6
		c-0.7,0-1.4,0.3-2,0.8c-0.6,0.5-1.1,1.2-1.4,1.9V613.4z"/>
	<path class="st1" d="M294.8,603.9h-1.8v-2.3h1.8V603.9z M294.8,617.2h-1.8v-11.5h1.8V617.2z"/>
	<path class="st1" d="M299.6,617.2h-1.8v-16.1h1.8V617.2z"/>
	<path class="st1" d="M304.5,603.9h-1.8v-2.3h1.8V603.9z M304.5,617.2h-1.8v-11.5h1.8V617.2z"/>
	<path class="st1" d="M308.7,607.3h-2.5v-1.5h2.5v-3.5h1.8v3.5h2.5v1.5h-2.5v10h-1.8V607.3z"/>
	<path class="st1" d="M318.3,617.2l-4.5-11.4h2l3.5,9.2l3.5-9.2h1.9l-6.4,16.1h-2L318.3,617.2z"/>
	<path class="st1" d="M327.4,617.2H325v-2.7h2.4V617.2z"/>
</g>
</svg>
