<?xml version="1.0" standalone="no"?><!DOCTYPE svg PUBLIC "-//W3C//DTD SVG 1.1//EN" "http://www.w3.org/Graphics/SVG/1.1/DTD/svg11.dtd"><svg xmlns="http://www.w3.org/2000/svg" version="1.1" width="246px" height="31px" viewBox="0 -4 246 31" style="top:-4px"><desc>현대자동차그룹</desc><defs/><g id="Polygon115148"><path d="m3.5 2.7v-2h2.8v2h4.5v2.1H8.4c.1.1.2.1.2.2c.5.4.9.9 1.2 1.5c.2.6.4 1.2.4 1.9c0 .7-.2 1.3-.4 1.9c-.3.6-.7 1.1-1.2 1.6c-.5.4-1 .8-1.7 1c-.6.3-1.3.4-2 .4c-.7 0-1.4-.1-2-.4c-.7-.2-1.2-.6-1.7-1c-.5-.5-.8-1-1.1-1.6c-.3-.6-.5-1.2-.5-1.9c0-.7.2-1.3.5-1.9C.4 5.9.7 5.4 1.2 5l.2-.2c-.01.01-2.5 0-2.5 0V2.7h4.6zm4.2 5.6c0-.7-.3-1.4-.8-1.9c-.6-.6-1.2-.9-2-.9c-.8 0-1.4.3-2 .9c-.5.5-.8 1.2-.8 1.9c0 .8.3 1.4.8 1.9c.6.6 1.2.9 2 .9c.8 0 1.4-.3 2-.9c.5-.5.8-1.1.8-1.9zm5.2-1.1h-2.3V4.9h2.3V1h2.5v14.9h-2.5V12h-2.3V9.7h2.3V7.2zm3.2 13.9H2.7v-6.2h2.7v3.9h10.7v2.3zm3.3-5.2v-14h6.7v2.2h-4.2v9.6s1.67-.01 1.7 0c1.5 0 3.1-.1 4.8-.4c-.05-.01 0-12.3 0-12.3h2.3v6.7h2.2V1h2.5v20.1h-2.5V10h-2.2v11.1h-2.3s-.05-5.55 0-5.6c-1.5.3-3.1.4-4.9.4c0 .04-4.1 0-4.1 0zM53 1v6.5h3v2.4h-3v11.2h-2.5V1h2.5zm-12.2 9.9c.9-1.5 1.3-3.2 1.3-5.1c.03-.05 0-1.7 0-1.7h-4.2V1.9h10.9v2.2h-4.1s-.04 1.77 0 1.8c-.1 1.8.4 3.5 1.3 4.9c.8 1.4 2.1 2.7 3.6 4l-1.5 1.6c-1.7-1.4-3.1-3-4.4-4.9c-.1-.1-.2-.3-.3-.4c-.1.3-.3.6-.5.9c-1.3 1.9-2.7 3.4-4.4 4.6L36.8 15c1.6-1.1 2.9-2.5 4-4.1zm18.3-9.4h13.4v2.2H61.6v3.5h11.1v2.1h-5.6v2.2h7.7v2.1s-5.05.04-5 0c.4.5.8 1 1.1 1.6c.3.6.4 1.2.4 1.9c0 .7-.1 1.3-.4 2c-.3.6-.7 1.1-1.2 1.5c-.5.5-1.1.8-1.7 1.1c-.7.3-1.4.4-2.1.4c-.7 0-1.4-.1-2.1-.4c-.7-.3-1.2-.6-1.7-1.1c-.5-.4-.9-.9-1.2-1.5c-.3-.7-.4-1.3-.4-2c0-.7.1-1.3.4-1.9c.3-.6.6-1.1 1.1-1.6c.02.04-5.1 0-5.1 0v-2.1h7.7V9.3h-5.5V1.5zM68.8 17c0-.8-.3-1.4-.8-2c-.6-.6-1.3-.9-2.1-.9c-.8 0-1.5.3-2.1.9c-.6.6-.9 1.2-.9 2c0 .8.3 1.5.9 2.1c.6.6 1.3.8 2.1.8c.8 0 1.5-.2 2.1-.8c.5-.6.8-1.3.8-2.1zM91.7 1v7h3v2.3h-3v10.8h-2.5V1h2.5zm-12.2 9.8c.8-1.4 1.2-2.9 1.2-4.7v-.8h-4.5V3h4.5V.7h2.5v2.3h4.3v2.3h-4.3s.03.84 0 .8c0 1.7.4 3.3 1.2 4.7c.8 1.4 2 2.9 3.7 4.3l-1.6 1.6c-1.8-1.5-3.2-3.1-4.2-4.9l-.3-.6c-.1.2-.3.5-.4.7c-1.1 1.8-2.5 3.5-4.3 4.9l-1.8-1.6c1.7-1.3 3-2.8 4-4.4zM111 2s.04 5.82 0 5.8c0 2.8-.2 5.6-.8 8.3h3.4v2.3H95.7v-2.3h12.1c.5-2.6.8-5.1.8-7.5c-.05-.02 0-4.3 0-4.3h-11V2H111zm19.8 8h-13.6V4.7h11V3.4h-11v-2h13.5v5.2h-11v1.4h11.1v2zm2.1 3.2h-7.6v1.3h-2.6v-1.3H115v-2.1h17.9v2.1zm-2.2 7.9h-13.5v-6.8h2.5v1.2h8.5v-1.2h2.5v6.8zm-2.5-2v-1.6h-8.5v1.6h8.5z" stroke="none" fill="#111111"/></g></svg>