<?xml version="1.0" standalone="no"?><!DOCTYPE svg PUBLIC "-//W3C//DTD SVG 1.1//EN" "http://www.w3.org/Graphics/SVG/1.1/DTD/svg11.dtd"><svg xmlns="http://www.w3.org/2000/svg" version="1.1" width="390px" height="128.3px" viewBox="0 -2 390 128.3" style="top:-2px"><desc>강릉 중앙동 서부시장 일원의 지역재생 모델 구축 및 지역경제 활성화를 위한 민·관 협력사업으로 2020년부터 3년간에 걸친 사업계획하에 진행되고 있다. 2021년에는 건물 외관을 정비하고 푸드홀을 특색화했으며,...</desc><defs/><g id="Polygon99542"><path d="m5.9 116l-.4.6c-.5-.2-1-.4-1.4-.7c-.3-.4-.6-.7-.8-1.2c-.2.5-.5.9-.9 1.3c-.4.3-.9.6-1.5.8l-.4-.7c.4-.1.7-.2 1-.4c.2-.2.5-.4.7-.6c.2-.3.3-.5.5-.8c.1-.3.1-.6.1-.9c.03.03 0-.1 0-.1h-2v-.7h2v-1.1h.9v1.1h2v.7h-2s-.04.13 0 .1c0 .3 0 .6.1.8c.1.3.3.5.5.8c.2.2.4.4.7.5c.3.2.6.4.9.5zm3.1-2.1v.6H7.6v2.5h-.8v-5.5h.8v2.4h1.4zm-7.1 6.7v-3.2h5.7v3.2H1.9zm.8-2.6v1.9h4.1V118H2.7zm13.7-6.5h.9v9.2h-.9v-3.5s-2.26-.04-2.3 0c-.2.4-.4.8-.8 1c-.3.3-.7.4-1.1.4c-.4 0-.7 0-.9-.2c-.3-.1-.6-.4-.8-.6c-.2-.3-.3-.7-.4-1c-.2-.4-.2-.9-.2-1.4c0-.5 0-.9.2-1.3c.1-.4.2-.7.4-1c.2-.3.5-.5.8-.6c.2-.2.5-.3.9-.3c.4 0 .8.2 1.1.4c.3.2.6.6.8 1h2.3v-2.1zm-4.2 6.4c.2 0 .4-.1.6-.2c.1-.1.3-.3.4-.5c.2-.2.3-.5.3-.8c.1-.3.2-.6.2-1c0-.3-.1-.7-.2-1c0-.3-.1-.5-.3-.7c-.1-.2-.3-.4-.4-.5c-.2-.1-.4-.2-.6-.2c-.2 0-.4.1-.6.2c-.2.1-.4.3-.5.5c-.1.2-.2.4-.3.7c-.1.3-.1.7-.1 1c0 .4 0 .7.1 1c.1.3.2.6.3.8c.1.2.3.4.5.5c.2.1.4.2.6.2zm2.2-2.5c0 .5 0 .8-.1 1.1c.04-.02 2.1 0 2.1 0v-2.2s-2.09-.03-2.1 0c.1.2.1.3.1.5v.6zm10.3-.7v2.4h-.8v-5.4h.8v2.4h1.1v-2.5h.8v5.6h-.8v-2.5h-1.1zm-1.2-2.1v.7h-4.7v-.7h2v-1h.8v1h1.9zm-2.3 4.2c-.3 0-.6 0-.8-.1c-.2 0-.5-.1-.6-.3c-.2-.1-.3-.3-.4-.5c-.1-.2-.2-.4-.2-.6c0-.3.1-.5.2-.7c.1-.2.2-.3.4-.5c.1-.1.4-.2.6-.3c.2 0 .5-.1.8-.1c.3 0 .5.1.8.1l.6.3c.2.2.3.3.4.5c.1.2.1.4.1.7c0 .2 0 .4-.1.6c-.1.2-.2.4-.4.5c-.2.2-.4.3-.6.3c-.3.1-.5.1-.8.1zm0-2.5c-.4 0-.7.1-.9.3c-.2.2-.3.4-.3.7c0 .3.1.5.3.7c.2.1.5.2.9.2c.4 0 .6-.1.9-.2c.2-.2.3-.4.3-.7c0-.3-.1-.5-.3-.7c-.3-.2-.5-.3-.9-.3zm4.3 3.2v.3c0 .2 0 .4.1.7c.1.2.2.4.4.6c.1.2.3.3.6.5c.2.1.5.3.7.4l-.4.6c-.4-.2-.8-.4-1.1-.7c-.3-.3-.6-.6-.7-1c-.2.4-.4.7-.6 1c-.3.3-.7.6-1.1.8c-.4-.2-.8-.4-1.1-.7c-.2-.3-.4-.7-.6-1.1c-.2.4-.4.7-.7 1c-.3.3-.7.5-1.1.7l-.4-.6c.3-.1.5-.3.8-.4c.2-.2.4-.4.5-.6c.2-.2.3-.4.4-.6c.1-.2.1-.4.1-.6c.02-.01 0-.3 0-.3h.8s.02.29 0 .3c0 .4.1.8.3 1.1c.2.4.6.7 1 1c.2-.2.4-.3.6-.5c.1-.2.2-.3.4-.5c.1-.2.1-.4.2-.6c0-.2.1-.3.1-.5c-.03-.01 0-.3 0-.3h.8zm6.7-5.4c.5 0 .9.1 1.3.2c.4.1.8.3 1.1.5c.3.2.5.5.7.8c.2.3.2.7.2 1c0 .4 0 .8-.2 1.1c-.2.3-.4.6-.7.8c-.3.2-.7.4-1.1.5c-.4.1-.8.2-1.3.2c-.5 0-.9-.1-1.3-.2c-.4-.1-.8-.3-1.1-.5c-.3-.2-.5-.5-.7-.8c-.1-.3-.2-.7-.2-1.1c0-.3.1-.7.2-1c.2-.3.4-.6.7-.8c.3-.2.7-.4 1.1-.5c.4-.1.8-.2 1.3-.2zm0 .7c-.3 0-.7 0-1 .1c-.3.1-.6.2-.8.4c-.2.2-.4.4-.5.6c-.2.2-.2.5-.2.7c0 .3 0 .6.2.8c.1.2.3.4.5.6c.2.1.5.3.8.4c.3 0 .7.1 1 .1c.4 0 .7-.1 1-.1c.3-.1.6-.3.8-.4c.2-.2.4-.4.5-.6c.2-.2.2-.5.2-.8c0-.2 0-.5-.2-.7c-.1-.2-.3-.4-.5-.6c-.2-.2-.5-.3-.8-.4c-.3-.1-.6-.1-1-.1zm-4.1 6h8.3v.7h-8.3v-.7zm15.9-7.3h.8v9.2h-.8v-3.8h-2.2v1.5h-4.2v-6h4.2v1.3h2.2v-2.2zm-3 6.2v-4.6h-2.6v4.6h2.6zm.8-1.4h2.2v-1.9h-2.2v1.9zm4.3 4.4l.4-2.1h.9l-.6 2.1h-.7zm12.7-5.4v.6h-1.5v4.8h-.9v-9.1h.9v3.7h1.5zm-5.5-3s.02 1.68 0 1.7c0 .4.1.8.2 1.2c.1.4.3.7.5 1.1c.2.3.5.7.7.9c.3.3.6.5.9.7l-.5.7c-.5-.3-.9-.7-1.3-1.2c-.4-.5-.7-1-.9-1.7c-.2.7-.5 1.3-.9 1.8c-.4.5-.9 1-1.4 1.2l-.5-.6c.4-.2.7-.4 1-.7c.2-.3.5-.6.7-1c.2-.4.4-.8.5-1.2c.1-.4.2-.8.2-1.2c-.01-.02 0-1.7 0-1.7h.8zm12.8-.7h.9v4.9h-.9v-2.1s-1.84.01-1.8 0c-.1.6-.4 1-.8 1.3c-.4.3-.9.5-1.6.5c-.3 0-.6 0-.9-.2c-.3-.1-.6-.2-.8-.4c-.2-.2-.3-.4-.5-.7c-.1-.2-.1-.5-.1-.8c0-.3 0-.6.1-.9c.2-.2.3-.5.5-.6c.2-.2.5-.4.8-.5c.3-.1.6-.1.9-.1c.3 0 .6 0 .9.1c.2.1.5.2.7.4c.2.1.4.3.5.5c.1.2.2.5.2.7c.05.02 1.9 0 1.9 0v-2.1zm-4.2 3.9c.2 0 .5 0 .7-.1c.1-.1.3-.2.4-.3c.2-.1.3-.3.4-.4c0-.2.1-.4.1-.6c0-.2-.1-.4-.1-.6c-.1-.2-.2-.3-.4-.4c-.1-.2-.3-.3-.4-.3c-.2-.1-.5-.1-.7-.1c-.2 0-.4 0-.6.1c-.2 0-.4.1-.5.3c-.1.1-.2.2-.3.4c-.1.2-.1.4-.1.6c0 .2 0 .4.1.6c.1.1.2.3.3.4c.1.1.3.2.5.3c.2.1.4.1.6.1zm4.2 2.6v-1.2h.9v3.7h-5.9v-3.7h.8v1.2h4.2zm0 1.8v-1.2h-4.2v1.2h4.2zm9.5-8.4h.8v9.2h-.8v-4.8h-1.3v4.3h-.8v-8.5h.8v3.5h1.3v-3.7zm-5.8 1.8s-.04 4.44 0 4.4h1.6c.5-.1 1-.1 1.4-.2l.1.7c-.3 0-.5.1-.8.1c-.2 0-.5.1-.8.1h-1.8c.03.04-.6 0-.6 0v-5.7h3.4v.6h-2.5zm15.1.6h1.3v.7h-1.3v2.5h-.9v-5.5h.9v2.3zm-1.8 1.9l-.5.7c-.5-.2-.9-.5-1.3-.8c-.4-.4-.6-.8-.9-1.3c-.1.6-.4 1-.8 1.4c-.4.4-.9.7-1.4 1l-.5-.7c.4-.1.7-.3 1-.5c.3-.2.5-.5.7-.7c.2-.3.4-.6.5-.9c.1-.4.1-.7.1-1.1c.02.05 0-.9 0-.9h.9s-.04 1.02 0 1c0 .3 0 .6.1.9c.1.3.3.6.5.8c.2.3.4.5.7.7c.2.2.5.3.9.4zm-1.1 1.5c.4 0 .9.1 1.2.2c.4 0 .7.1 1 .3c.2.1.4.3.6.5c.1.2.2.5.2.7c0 .3-.1.5-.2.7c-.2.2-.4.4-.6.5c-.3.2-.6.3-1 .4c-.3 0-.8.1-1.2.1c-1 0-1.7-.2-2.2-.5c-.6-.2-.8-.7-.8-1.2c0-.2 0-.5.2-.7c.1-.2.3-.4.6-.5c.2-.2.5-.3.9-.3c.4-.1.8-.2 1.3-.2zm0 2.7c.7 0 1.2-.1 1.6-.2c.4-.2.5-.5.5-.8c0-.3-.1-.6-.5-.7c-.4-.2-.9-.3-1.6-.3c-.7 0-1.2.1-1.6.3c-.4.1-.6.4-.6.7c0 .3.2.6.6.8c.4.1.9.2 1.6.2zm11.6-8.4h.9v9.1h-.9v-9.1zm-3.4 1.6s.03 1.14 0 1.1c0 .4.1.8.2 1.2c.2.4.3.7.5 1.1c.3.3.5.6.8.8c.3.3.6.5 1 .6l-.5.7c-.5-.2-1-.6-1.4-1.1c-.5-.5-.8-1.1-1-1.7c-.1.3-.2.7-.4 1c-.2.3-.3.6-.5.8c-.2.3-.5.5-.7.7c-.2.2-.5.4-.7.5l-.5-.6c.3-.2.6-.4.9-.7c.3-.3.6-.6.8-.9c.2-.4.4-.8.5-1.2c.1-.4.2-.8.2-1.2c-.01.04 0-1.1 0-1.1h-2.1v-.7h5.1v.7h-2.2zm15.5-1.6v6.6h-.8v-6.6h.8zm-2.5 2.8c0 .4 0 .7-.2.9c-.1.3-.3.6-.5.8c-.2.2-.4.3-.7.4c-.3.1-.6.2-1 .2c-.3 0-.6-.1-.9-.2c-.3-.1-.6-.2-.8-.4c-.2-.2-.4-.5-.5-.8c-.1-.2-.2-.5-.2-.9c0-.3.1-.6.2-.9c.1-.3.3-.5.5-.7c.2-.2.5-.3.8-.5c.3-.1.6-.1.9-.1c.4 0 .7 0 1 .1c.3.2.5.3.7.5c.2.2.4.4.5.7c.2.3.2.6.2.9zm-3.9 0c0 .3 0 .5.1.6c.1.2.2.4.3.5c.1.2.3.3.5.4c.2 0 .4.1.6.1c.2 0 .4-.1.6-.1c.2-.1.4-.2.5-.4c.2-.1.3-.3.4-.5c.1-.1.1-.3.1-.6c0-.2 0-.4-.1-.6c-.1-.2-.2-.3-.4-.5c-.1-.1-.3-.2-.5-.3c-.2-.1-.4-.1-.6-.1c-.2 0-.4 0-.6.1c-.2.1-.4.2-.5.3c-.1.2-.2.3-.3.5c-.1.2-.1.4-.1.6zm1.4 5.4h5.3v.7h-6.2v-3h.9v2.3zm13.7-4c0-.05 1.3 0 1.3 0v.6h-8.3v-.6s6.16-.05 6.2 0c.1-.7.2-1.2.2-1.7v-1.3c.01 0 0 0 0 0h-5.3v-.7h6.1s.04.7 0 .7v1.3c0 .5-.1 1-.2 1.7zm-5.1 1.7v2.3h5.6v.7h-6.4v-3h.8zm16-5.9h.9v9.1h-.9v-9.1zm-3.4 1.6s.03 1.14 0 1.1c0 .4.1.8.2 1.2c.2.4.3.7.5 1.1c.3.3.5.6.8.8c.3.3.6.5 1 .6l-.5.7c-.5-.2-1-.6-1.4-1.1c-.4-.5-.8-1.1-1-1.7c-.1.3-.2.7-.4 1c-.1.3-.3.6-.5.8c-.2.3-.5.5-.7.7c-.2.2-.5.4-.7.5l-.5-.6c.3-.2.6-.4.9-.7c.3-.3.6-.6.8-.9c.2-.4.4-.8.5-1.2c.1-.4.2-.8.2-1.2c-.01.04 0-1.1 0-1.1H119v-.7h5.1v.7h-2.2zm12.6-1.6l.9-.1v5.4h-.9v-1.3s-2.28.02-2.3 0c-.2.3-.5.5-.8.6c-.3.2-.7.3-1.1.3c-.3 0-.6-.1-.9-.2c-.3-.1-.5-.3-.7-.5c-.3-.2-.4-.4-.5-.7c-.2-.2-.2-.5-.2-.9c0-.3 0-.6.2-.8c.1-.3.2-.5.5-.7c.2-.2.4-.4.7-.5c.3-.1.6-.1.9-.1c.4 0 .8 0 1.1.2c.3.1.6.3.8.6h2.3v-1.3zm-4.2 4.1c.3 0 .5 0 .7-.1c.1 0 .3-.1.5-.3c.1-.1.2-.3.3-.5c.1-.1.1-.3.1-.6c0-.2 0-.4-.1-.6c-.1-.1-.2-.3-.3-.4c-.2-.1-.4-.2-.5-.3c-.2-.1-.4-.1-.7-.1c-.2 0-.4 0-.6.1c-.2.1-.3.2-.5.3c-.1.1-.2.3-.3.4c-.1.2-.1.4-.1.6c0 .3 0 .5.1.6c.1.2.2.4.3.5c.2.2.3.3.5.3c.2.1.4.1.6.1zm2.4-1.5c0 .3 0 .6-.1.7c-.01.04 1.9 0 1.9 0v-1.3s-1.91-.04-1.9 0c.1.1.1.4.1.6zm-3.4 3.9v-.7h6.1v3.3h-.9v-2.6h-5.2zm11.9-3.2c-1 0-1.8-.2-2.4-.4c-.6-.3-.9-.7-.9-1.2c0-.5.3-.9.9-1.2c.6-.3 1.4-.4 2.4-.4c1 0 1.8.1 2.3.4c.6.3.9.7.9 1.2c0 .5-.3.9-.9 1.2c-.5.2-1.3.4-2.3.4zm0-2.6c-.8 0-1.4.1-1.8.3c-.4.1-.6.4-.6.7c0 .3.2.5.6.7c.4.2 1 .2 1.8.2c.7 0 1.3 0 1.7-.2c.4-.2.6-.4.6-.7c0-.3-.2-.6-.6-.7c-.4-.2-1-.3-1.7-.3zm-4.2 3.2h8.3v.7H137v-.7zm1.9 3.5v.9h5.6v.7H138v-2.2h5.4v-.8H138v-.7h6.2v2.1h-5.3zm13.9-.1h3.8v.6h-8.3v-.6h3.7v-2.1h-3v-.7h1.4v-3H149v-.7h6.8v.7h-1.4v3h1.4v.7h-3v2.1zm-1.5-5.8v3h2.3v-3h-2.3zm11.6-.6v.7h-5.4v-.7h2.3v-1h.8v1h2.3zm3 1.5v.7h-1.3v2.3h-.9v-5.4h.9v2.4h1.3zm-3.5 1.3c0 .2-.1.4-.2.6c-.1.2-.2.4-.4.6c-.2.1-.4.2-.7.3c-.3.1-.6.1-.9.1c-.3 0-.6 0-.9-.1c-.3-.1-.5-.2-.7-.3c-.2-.2-.3-.4-.4-.6c-.1-.2-.2-.4-.2-.6c0-.3.1-.5.2-.7c.1-.2.2-.4.4-.5c.2-.2.4-.3.7-.3c.3-.1.6-.2.9-.2c.3 0 .6.1.9.2c.3 0 .5.1.7.3c.2.1.3.3.4.5c.1.2.2.4.2.7zm-3.6 0c0 .3.1.5.4.7c.2.2.6.3 1 .3c.4 0 .8-.1 1-.3c.3-.2.4-.4.4-.7c0-.3-.1-.6-.4-.8c-.2-.1-.6-.2-1-.2c-.4 0-.8.1-1 .2c-.3.2-.4.5-.4.8zm0 5.3v-3h5.8v3h-5.8zm.8-2.4v1.7h4.1v-1.7h-4.1zm14-6.7h.8v9.2h-.8v-4.6h-1.2v4.1h-.8v-8.5h.8v3.7h1.2v-3.9zm-4.3.3v1.3h1.9v.7h-4.6v-.7h1.9v-1.3h.8zm-.4 2.6c.3 0 .6 0 .8.1c.2.2.4.3.6.5c.2.2.3.4.4.6c.1.3.2.6.2.9c0 .3-.1.6-.2.8c-.1.3-.2.5-.4.7c-.2.2-.4.3-.6.4c-.2.1-.5.2-.8.2c-.3 0-.5-.1-.8-.2c-.2-.1-.4-.2-.6-.4c-.2-.2-.3-.4-.4-.7c-.1-.2-.1-.5-.1-.8c0-.3 0-.6.1-.9c.1-.2.2-.4.4-.6c.2-.2.4-.3.6-.5c.3-.1.5-.1.8-.1zm0 3.5c.4 0 .7-.2.9-.4c.2-.3.3-.6.3-1c0-.2 0-.4-.1-.6c0-.1-.1-.3-.2-.4c-.1-.1-.2-.2-.4-.3c-.1-.1-.3-.1-.5-.1c-.4 0-.7.1-.9.4c-.2.2-.3.6-.3 1c0 .4.1.7.3 1c.3.2.6.4.9.4zm9.8-2.3l-.3-.7c.4 0 .8-.1 1.2-.2c.4-.1.7-.2 1-.4c.3-.1.5-.3.7-.5c.2-.2.3-.4.3-.7h-2.8v-.7h2.8v-.9h.9v.9h2.8v.7h-2.8c0 .3.1.5.3.7c.2.2.4.4.7.5c.3.2.6.3 1 .4c.4.1.8.2 1.2.2l-.3.7c-.3 0-.7-.1-1-.2c-.4-.1-.7-.2-1-.3c-.3-.2-.6-.3-.8-.5l-.6-.6c-.1.2-.3.4-.5.6c-.2.2-.5.3-.8.5c-.3.1-.6.2-1 .3c-.3.1-.7.2-1 .2zm3.8.7h3.7v.7h-8.3v-.7h3.7v-1.1h.9v1.1zm-.5 1.3c1.1 0 1.8.2 2.4.4c.5.3.8.7.8 1.2c0 .5-.3.8-.8 1.1c-.6.3-1.3.4-2.4.4c-1 0-1.7-.1-2.3-.4c-.5-.3-.8-.6-.8-1.1c0-.5.3-.9.8-1.2c.6-.2 1.3-.4 2.3-.4zm0 2.4c.8 0 1.3 0 1.7-.2c.4-.1.6-.4.6-.6c0-.3-.2-.5-.6-.7c-.4-.2-.9-.2-1.7-.2c-.7 0-1.3 0-1.7.2c-.4.2-.5.4-.5.7c0 .2.1.5.5.6c.4.2 1 .2 1.7.2zm9.2-.9h3v.8h-5v-.6s2.55-2.5 2.5-2.5l.6-.6c.2-.2.3-.4.4-.6c.1-.1.2-.3.3-.5c.1-.2.1-.4.1-.7c0-.4-.1-.7-.4-.9c-.3-.3-.6-.4-1-.4c-.2 0-.4.1-.6.1c-.1.1-.3.2-.4.3c-.2.2-.3.3-.3.5c-.1.2-.2.4-.2.6l-.9-.2l.3-.9c.1-.2.3-.4.5-.6c.3-.2.5-.3.8-.4c.3-.1.6-.2.9-.2c.3 0 .6.1.9.2c.2.1.5.2.7.4c.2.2.4.4.5.6c.1.3.1.6.1.9c0 .3 0 .6-.1.8c-.1.2-.2.5-.3.7c-.2.2-.3.4-.5.6c-.2.2-.4.5-.6.7l-2.1 2c.1 0 .3 0 .4-.1h.4zm8-6.7l-2.2 2.8c-.1.2-.2.3-.3.3c0 .1-.1.2-.1.2l.6-.3c.2 0 .4-.1.7-.1c.3 0 .6.1.9.2c.2.1.5.2.7.4c.2.2.3.5.5.7c.1.3.1.6.1 1c0 .3 0 .7-.2 1c-.1.3-.3.5-.5.8c-.2.2-.5.4-.8.5c-.3.1-.7.2-1.1.2c-.3 0-.7-.1-1-.2c-.3-.1-.6-.3-.8-.5c-.2-.3-.4-.5-.5-.8c-.1-.4-.2-.7-.2-1.1c0-.3.1-.7.3-1.1c.1-.3.3-.7.7-1.2c-.04.02 2-2.8 2-2.8h1.2zm-1.7 6.9c.3 0 .5-.1.7-.1c.2-.1.4-.2.5-.4c.2-.1.3-.3.4-.5c.1-.2.1-.4.1-.6c0-.3 0-.5-.1-.7c-.1-.2-.2-.4-.4-.5c-.1-.1-.3-.2-.5-.3c-.2-.1-.4-.1-.6-.1c-.3 0-.5 0-.7.1c-.2.1-.4.2-.5.3c-.2.2-.3.4-.3.5c-.1.2-.2.4-.2.7c0 .4.2.8.4 1.1c.3.3.7.5 1.2.5zm10.4-7.8h.8v9.2h-.8v-4.8h-1.3v4.3h-.8v-8.4h.8v3.4h1.3v-3.7zm-6.6 1.2s3.54.02 3.5 0c0 .6 0 1.2-.1 1.8c-.1.5-.3 1-.6 1.6c-.3.5-.6 1-1.1 1.4c-.4.5-.9.9-1.6 1.2l-.5-.6c.5-.3 1-.6 1.4-.9c.3-.4.7-.8.9-1.2l.6-1.2c.1-.5.2-.9.2-1.4h-2.7v-.7zm18 1.2h1.3v.7h-1.3v2.5h-.9v-5.5h.9v2.3zm-1.8 1.9l-.5.7c-.5-.2-.9-.5-1.3-.8c-.4-.4-.7-.8-.9-1.3c-.1.6-.4 1-.8 1.4c-.4.4-.9.7-1.4 1l-.5-.7c.4-.1.7-.3 1-.5c.3-.2.5-.5.7-.7c.2-.3.3-.6.5-.9c.1-.4.1-.7.1-1.1c.01.05 0-.9 0-.9h.8s.05 1.02 0 1c0 .3.1.6.2.9c.1.3.3.6.5.8c.2.3.4.5.7.7c.2.2.5.3.9.4zm-1.1 1.5c.4 0 .9.1 1.2.2c.4 0 .7.1 1 .3c.2.1.4.3.6.5c.1.2.2.5.2.7c0 .3-.1.5-.2.7c-.2.2-.4.4-.6.5c-.3.2-.6.3-1 .4c-.3 0-.8.1-1.2.1c-1 0-1.7-.2-2.2-.5c-.6-.2-.8-.7-.8-1.2c0-.2 0-.5.2-.7c.1-.2.3-.4.6-.5c.2-.2.5-.3.9-.3c.4-.1.8-.2 1.3-.2zm0 2.7c.7 0 1.2-.1 1.6-.2c.4-.2.5-.5.5-.8c0-.3-.1-.6-.5-.7c-.4-.2-.9-.3-1.6-.3c-.7 0-1.2.1-1.6.3c-.4.1-.6.4-.6.7c0 .3.2.6.6.8c.4.1.9.2 1.6.2zm13.5-4.7v.6h-1.5v4.8h-.8v-9.2h.8v3.8h1.5zm-8.1-2.8s4.23.02 4.2 0c0 .7 0 1.3-.2 1.9c-.2.6-.4 1.2-.7 1.8c-.4.5-.8 1-1.3 1.5c-.5.5-1.2.9-1.9 1.3l-.5-.7c1.2-.6 2.1-1.3 2.7-2.2c.7-.8 1-1.8 1.1-2.9c0 .01-3.4 0-3.4 0v-.7zm17.2 2.8v.6h-1.4v4.8h-.9v-9.2h.9v3.8h1.4zm-8-2.8s4.21.02 4.2 0c0 .7-.1 1.3-.2 1.9c-.2.6-.4 1.2-.8 1.8c-.3.5-.7 1-1.2 1.5c-.6.5-1.2.9-1.9 1.3l-.5-.7c1.2-.6 2.1-1.3 2.7-2.2c.6-.8 1-1.8 1.1-2.9c-.02.01-3.4 0-3.4 0v-.7zm18.3-1v6.8h-.8v-6.8h.8zm-2 4.6l-.4.7c-.6-.2-1-.5-1.4-.9c-.4-.4-.7-.9-.9-1.4c-.2.6-.5 1-.9 1.5c-.4.4-.8.7-1.4.9l-.4-.6c.3-.2.7-.3.9-.6c.3-.2.6-.4.8-.7c.2-.3.3-.6.4-1c.1-.3.2-.7.2-1c-.01-.02 0-.9 0-.9h.8s.02.88 0 .9c0 .3.1.7.2 1c.1.3.3.6.5.9c.2.2.4.5.7.7c.3.2.6.4.9.5zm-3 3.7h5.3v.7h-6.2v-2.9h.9v2.2zm15-3.7v.7h-2.2v3.9h-.9v-3.9h-2.3v3.9h-.8v-3.9H251v-.7s6.01.02 6 0c.2-.7.2-1.3.3-1.9v-1.4c-.01.02-5.3 0-5.3 0v-.7h6.1s.02.71 0 .7v1.4c0 .6-.1 1.2-.3 1.9c.04.02 1.5 0 1.5 0zm9.6-4.5h.8v4.9h-.8v-4.9zm-4.1.4c.4 0 .7 0 1 .1c.3.1.5.3.8.5c.2.1.3.4.5.6c.1.3.1.6.1.9c0 .3 0 .6-.1.8c-.2.3-.3.5-.5.7c-.3.2-.5.3-.8.4c-.3.1-.6.2-1 .2c-.3 0-.6-.1-.9-.2c-.3-.1-.6-.2-.8-.4c-.2-.2-.3-.4-.5-.7c-.1-.2-.1-.5-.1-.8c0-.3 0-.6.1-.9c.2-.2.3-.5.5-.6c.2-.2.5-.4.8-.5c.3-.1.6-.1.9-.1zm0 .7c-.2 0-.4 0-.6.1c-.2 0-.4.1-.5.3c-.1.1-.2.2-.3.4c-.1.2-.1.4-.1.6c0 .2 0 .4.1.6c.1.1.2.3.3.4c.1.1.3.2.5.3c.2.1.4.1.6.1c.5 0 .9-.1 1.2-.4c.3-.2.4-.6.4-1c0-.2 0-.4-.1-.6c-.1-.2-.2-.3-.3-.4c-.2-.2-.3-.3-.5-.3c-.2-.1-.4-.1-.7-.1zm-.9 4.2h.8v1.1h4.2v-1.1h.8v3.7h-5.8v-3.7zm.8 1.8v1.2h4.2v-1.2h-4.2zm13.4-7.2h.9v5.4h-.9v-2.4h-1.8v-.7h1.8v-2.3zm-1.3 4.4l-.4.7c-.5-.2-1-.5-1.3-.8c-.4-.4-.7-.8-.9-1.3c-.2.6-.5 1-.9 1.4c-.4.4-.9.7-1.4.9l-.4-.6c.3-.2.6-.3.9-.5l.7-.7c.2-.3.4-.6.5-.9c.1-.3.2-.6.2-.9c-.04-.05 0-.4 0-.4h-2.1v-.7h4.9v.7h-2v.3c0 .3 0 .6.2.9c.1.3.2.6.4.8c.2.3.4.5.7.7c.3.2.6.3.9.4zm-3.8 4.7v-3.3h6v3.3h-6zm.8-2.6v1.9h4.3V118h-4.3zm15.3-2.7v.7h-1.5v4.7h-.8v-9.1h.8v3.7h1.5zm-5.4-3.6v1.3h2.2v.7h-5.4v-.7h2.4v-1.3h.8zm-.4 2.7c.3 0 .6.1.9.2c.3.1.5.2.7.4c.2.2.3.4.5.7c.1.3.1.5.1.8c0 .4 0 .6-.1.9c-.2.3-.3.5-.5.7c-.2.2-.4.3-.7.4c-.3.1-.6.1-.9.1c-.3 0-.6 0-.9-.1c-.3-.1-.5-.2-.7-.4c-.2-.2-.4-.4-.5-.7c-.1-.3-.1-.5-.1-.9c0-.3 0-.5.1-.8c.1-.3.3-.5.5-.7c.2-.2.4-.3.7-.4c.3-.1.6-.2.9-.2zm0 3.6c.2 0 .4-.1.6-.2c.1 0 .3-.1.4-.2c.1-.2.2-.3.3-.5c.1-.2.1-.3.1-.6c0-.2 0-.3-.1-.5c-.1-.2-.2-.3-.3-.5c-.1-.1-.3-.2-.4-.3c-.2 0-.4-.1-.6-.1c-.2 0-.4.1-.6.1c-.2.1-.3.2-.4.3c-.2.2-.3.3-.3.5c-.1.2-.1.3-.1.5c0 .3 0 .4.1.6c0 .2.1.3.3.5c.1.1.2.2.4.2c.2.1.4.2.6.2zm13.8-3.7v.7h-6.2v-3.1h.8v2.4h5.4zm-7.3 1.9h8.3v.7h-8.3v-.7zm1.9 1.6v2h5.5v.7h-6.4v-2.7h.9zm16.7-3.5v.7h-6.3v-3.1h6.2v.7h-5.4v1.7h5.5zm-7.4 1.6h8.3v.7H301v-.7zm4.2 1.5c.9 0 1.7.1 2.3.4c.5.3.8.7.8 1.2c0 .6-.3 1-.8 1.3c-.6.2-1.4.4-2.3.4c-1 0-1.8-.2-2.3-.4c-.6-.3-.9-.7-.9-1.3c0-.5.3-.9.9-1.2c.5-.3 1.3-.4 2.3-.4zm0 2.6c.7 0 1.3-.1 1.7-.2c.4-.2.6-.4.6-.8c0-.3-.2-.5-.6-.7c-.4-.2-1-.3-1.7-.3c-.7 0-1.3.1-1.7.3c-.4.2-.6.4-.6.7c0 .4.2.6.6.8c.4.1 1 .2 1.7.2zm11.6-8.5h.9v9.2h-.9v-9.2zm-3.6.7c.4 0 .7.1 1 .2c.3.1.5.2.7.4c.3.2.4.4.6.7c.1.3.1.5.1.9c0 .3 0 .6-.1.8c-.2.3-.3.5-.6.7c-.2.2-.4.4-.7.5c-.3.1-.6.1-1 .1c-.4 0-.7 0-1-.1c-.3-.1-.5-.3-.8-.5c-.2-.2-.4-.4-.5-.7c-.1-.2-.2-.5-.2-.8c0-.4.1-.6.2-.9c.1-.3.3-.5.5-.7c.3-.2.5-.3.8-.4c.3-.1.6-.2 1-.2zm0 .7c-.2 0-.5.1-.7.1c-.2.1-.3.2-.5.3c-.1.2-.2.3-.3.5c-.1.2-.1.3-.1.6c0 .2 0 .4.1.5c.1.2.2.4.3.5c.2.1.3.2.5.3c.2.1.5.1.7.1c.2 0 .4 0 .6-.1l.6-.3c.1-.1.2-.3.3-.5c.1-.1.1-.3.1-.5c0-.3 0-.4-.1-.6c-.1-.2-.2-.3-.3-.5l-.6-.3c-.2 0-.4-.1-.6-.1zm-2.8 5.8l-.1-.7h1.3c.5 0 1 0 1.5-.1h1.6c.5-.1 1-.1 1.5-.2l.1.6c-.5.1-1 .2-1.6.2c-.5.1-1 .1-1.5.1c-.5.1-1 .1-1.5.1h-1.3zm17.8-1.7v-2.8h-2v-.7h2v-1.9h.8v5.4h-.8zm-1.4-1.1l-.4.6c-.5-.2-1-.4-1.3-.8c-.4-.3-.7-.7-.9-1.2c-.2.5-.5 1-.9 1.4c-.4.4-.8.7-1.4.9l-.4-.7c.3-.1.6-.3.9-.5c.3-.2.6-.4.8-.7c.2-.3.3-.6.4-.9c.1-.3.2-.7.2-1c-.01 0 0-.9 0-.9h.8s.02.87 0 .9c0 .3.1.6.2.9c.1.3.2.6.4.8c.2.3.5.5.7.7c.3.2.6.4.9.5zm-.8 1.3c.5 0 .9.1 1.3.1c.3.1.7.2.9.4c.3.1.5.3.6.5c.2.2.2.5.2.8c0 .2 0 .5-.2.7c-.1.2-.3.4-.6.5c-.2.2-.6.3-.9.4c-.4 0-.8.1-1.3.1c-.5 0-.9-.1-1.3-.1c-.3-.1-.7-.2-.9-.4c-.3-.1-.5-.3-.6-.5c-.2-.2-.2-.5-.2-.7c0-.3 0-.6.2-.8c.1-.2.3-.4.6-.5c.2-.2.6-.3.9-.4c.4 0 .8-.1 1.3-.1zm0 2.8c.7 0 1.2-.1 1.6-.3c.4-.2.6-.4.6-.7c0-.4-.2-.7-.6-.8c-.4-.2-.9-.3-1.6-.3c-.7 0-1.2.1-1.6.3c-.4.1-.6.4-.6.8c0 .3.2.5.6.7c.4.2.9.3 1.6.3zm13.1-4.6v.7h-1.4v4.6h-.9v-9.2h.9v3.9h1.4zm-3.7 1.3l-.8-.1c.1-.8.2-1.4.2-2c.1-.5.1-1 .1-1.4c-.03.02-3.8 0-3.8 0v-.7h4.6v2c-.1.6-.1 1.3-.3 2.2zm-2.1-1.5s.03 2.75 0 2.7h1.5c.5-.1 1-.1 1.5-.2v.6c-.4.1-.9.2-1.4.2c-.5.1-1 .1-1.5.1c-.5.1-1 .1-1.4.1h-1.3l-.1-.7h1.9v-2.8h.8zm12.9-2.1v-.7h-5.3v-.6h6.2v1.9h-5.4v.8h5.5v.6h-6.3v-2h5.3zm-6.4 2.7h8.3v.6h-8.3v-.6zm1.9 3.3v.9h5.7v.6h-6.5v-2.1h5.4v-.7h-5.5v-.6h6.3v1.9h-5.4zm16.1-7.5h.8v9.1h-.8v-4.8h-2.1v-.7h2.1v-3.6zm-6.3.9s4.17.03 4.2 0c0 .7-.1 1.3-.2 1.9c-.2.6-.4 1.2-.7 1.8c-.4.5-.8 1-1.3 1.5c-.5.4-1.2.9-1.9 1.2l-.5-.6c1.2-.6 2.1-1.3 2.7-2.2c.6-.9 1-1.8 1-2.9h-3.3v-.7zm13.6 3.7h1.8v-4.7h.9v5.8h-.9v-.5h-1.8v-.6zm.2-2.4v.7h-4.2v-2.7h4.2v.6H362v1.4h3.3zm-2.6 3.5s-.03-1.5 0-1.5h-2.4l-.1-.6h1.4c.5 0 1 0 1.5-.1h1.5c.5-.1 1-.1 1.5-.2v.6c-.4.1-.8.1-1.3.2c-.4 0-.8 0-1.3.1v1.5h-.8zm4.1.3v.2c0 .2 0 .4.1.7c.1.2.2.4.4.6c.1.2.3.4.6.5c.2.2.5.3.7.4l-.4.6c-.4-.2-.8-.4-1.1-.7c-.3-.3-.6-.6-.7-1c-.1.4-.4.7-.6 1.1c-.3.3-.7.5-1.1.7c-.4-.2-.8-.4-1.1-.7c-.3-.3-.5-.7-.6-1c-.2.3-.4.6-.7.9c-.3.3-.7.5-1.1.7l-.4-.6c.3-.1.5-.2.7-.4c.3-.1.5-.3.6-.5c.2-.2.3-.4.4-.6c.1-.3.1-.5.1-.7v-.2h.8v.2c0 .4.1.8.3 1.1c.2.4.6.7 1 1c.4-.3.8-.6 1-1c.2-.3.3-.7.3-1.1c-.02 0 0-.2 0-.2h.8zm11.2-2.4v.6h-1.5v4.9h-.8v-9.2h.8v3.7h1.5zm-7.3-2.1v4.6h2.2c.3-.1.6-.1.9-.1c.4-.1.7-.1 1-.2l.1.7c-.3.1-.7.1-1 .2c-.4 0-.7 0-1 .1h-2.3c-.03.03-.7 0-.7 0v-6h4.2v.7h-3.4zm7.8 7v-1h1v1h-1z" stroke="none" fill="#111111"/></g><g id="Polygon99541"><path d="m6.9 94.9c-.02.03 0-.2 0-.2H1.4v-.7h6.3s.01.93 0 .9v2c-.1.3-.1.7-.1 1.1c-.1.4-.2.9-.2 1.4l-.9-.1c.2-.9.3-1.8.3-2.5c.1-.7.1-1.3.1-1.9zm-6.3 5.3h8.2v.7H.6v-.7zM18.5 95s-2.26.02-2.3 0c-.2.7-.7 1.3-1.4 1.8c-.7.5-1.5.9-2.5 1.1l-.4-.7c1.2-.2 2.1-.6 2.7-1.1c.6-.6.9-1.2 1-1.9c.01-.03-3.2 0-3.2 0v-.7h4.1c0 .3 0 .6-.1.9c.02-.03 2.1 0 2.1 0V93h.8v4.7h-.8v-.9h-2.4v-.7h2.4V95zm-4.2 6.4h5.3v.7h-6.1v-2.4h5v-.9h-5.1v-.7h5.9v2.3h-5v1zm15.2-4.5v.7H28v4.6h-.8V93h.8v3.9h1.5zm-3.7 1.3l-.9-.1c.1-.8.2-1.4.3-2v-1.4c-.01.02-3.8 0-3.8 0v-.7h4.6v2c0 .6-.1 1.3-.2 2.2zm-2.1-1.5s-.05 2.75 0 2.7h1.5c.5-.1.9-.1 1.4-.2l.1.6c-.5.1-1 .2-1.5.2c-.5.1-1 .1-1.5.1c-.5.1-1 .1-1.4.1H21l-.1-.7h1.9c.03-.03 0-2.8 0-2.8h.9zm9.3.4l-.3-.7c.5 0 .9-.1 1.2-.2c.4-.1.7-.2 1-.4c.3-.1.6-.3.7-.5c.2-.2.3-.4.3-.7h-2.8v-.7h2.9v-.9h.8v.9h2.9v.7h-2.9c.1.3.1.5.3.7c.2.2.4.4.7.5c.3.2.6.3 1 .4c.4.1.8.2 1.2.2l-.2.7c-.4 0-.8-.1-1.1-.2c-.4-.1-.7-.2-1-.3c-.3-.2-.5-.3-.8-.5c-.2-.2-.4-.4-.5-.6c-.2.2-.3.4-.6.6c-.2.2-.5.3-.8.5l-.9.3c-.4.1-.7.2-1.1.2zm3.8.7h3.7v.7h-8.3v-.7h3.8v-1.1h.8v1.1zm-.4 1.3c1 0 1.8.2 2.3.4c.5.3.8.7.8 1.2c0 .5-.3.8-.8 1.1c-.5.3-1.3.4-2.3.4c-1 0-1.8-.1-2.4-.4c-.5-.3-.8-.6-.8-1.1c0-.5.3-.9.8-1.2c.6-.2 1.4-.4 2.4-.4zm0 2.4c.7 0 1.3 0 1.7-.2c.4-.1.6-.4.6-.6c0-.3-.2-.5-.6-.7c-.4-.2-1-.2-1.7-.2c-.8 0-1.3 0-1.7.2c-.4.2-.6.4-.6.7c0 .2.2.5.6.6c.4.2.9.2 1.7.2zm8.8-6.7s-.29 1.94-.3 1.9c.3 0 .7-.1 1.1-.1c.4 0 .7.1 1 .2c.3.1.6.3.8.5c.2.2.3.4.5.7c.1.3.1.6.1.9c0 .4-.1.8-.2 1.1c-.1.3-.3.6-.6.8c-.2.2-.5.4-.8.5c-.4.2-.7.2-1.1.2c-.5 0-.9-.1-1.2-.2c-.4-.2-.7-.4-.9-.6l.5-.7c.2.2.5.4.7.5c.3.1.6.2.9.2c.3 0 .5 0 .8-.1c.2-.1.4-.2.5-.4c.2-.1.3-.3.4-.5c.1-.2.1-.5.1-.8c0-.4-.1-.8-.4-1.1c-.3-.3-.8-.4-1.3-.4c-.2 0-.4 0-.6.1c-.2 0-.4.1-.6.1c-.02.04-.6-.1-.6-.1l.6-3.6h3.6v.9h-3zm9 1c0 .9-.4 1.4-1.2 1.7c.4.2.8.4 1.1.7c.2.3.3.7.3 1.2c0 .4 0 .7-.1.9c-.2.3-.3.5-.6.7c-.2.2-.5.4-.8.5c-.3.1-.6.1-1 .1c-.4 0-.8 0-1.1-.1c-.3-.1-.6-.3-.8-.5c-.2-.2-.4-.4-.5-.7c-.2-.2-.2-.5-.2-.9c0-.5.1-.9.4-1.2c.2-.3.6-.5 1.1-.7c-.4-.1-.7-.3-.9-.6c-.2-.3-.3-.7-.3-1.1c0-.3 0-.6.1-.8c.1-.2.3-.4.5-.6c.2-.2.4-.4.7-.5c.3-.1.6-.1 1-.1c.3 0 .6 0 .9.1c.3.1.5.3.7.5c.3.2.4.4.5.6c.1.2.2.5.2.8zm-2.3-1.3c-.5 0-.8.1-1.1.4c-.2.2-.3.6-.3.9c0 .2 0 .4.1.5c0 .2.1.3.2.5c.1.1.2.2.4.3c.2 0 .4.1.7.1c.2 0 .4-.1.6-.1c.2-.1.3-.2.4-.3c.1-.2.2-.3.3-.5v-.5c0-.3-.1-.7-.3-.9c-.2-.3-.6-.4-1-.4zm0 6.3c.5 0 .9-.1 1.1-.3c.3-.3.5-.7.5-1.1c0-.2-.1-.5-.2-.7c-.1-.1-.2-.3-.3-.4c-.2-.1-.3-.2-.5-.3c-.2 0-.4-.1-.6-.1c-.2 0-.4.1-.6.1c-.2.1-.4.2-.5.3c-.2.1-.3.3-.4.4c-.1.2-.1.5-.1.7c0 .4.1.8.4 1.1c.3.2.7.3 1.2.3zm7.9-3.8v.8h-4.1v-4.1h4.1v.8h2.1v-1.4h.9v5.4h-.9V97h-2.1zm-.8.1v-2.7h-2.5v2.7h2.5zm2.9-1.9h-2.1v1.1h2.1v-1.1zm-2.1 3.5c.9 0 1.7.2 2.2.5c.5.3.8.7.8 1.3c0 .2-.1.5-.2.7c-.1.2-.3.4-.6.5c-.3.2-.6.3-1 .4c-.3 0-.8.1-1.2.1c-.5 0-.9-.1-1.3-.1c-.4-.1-.7-.2-1-.4c-.2-.1-.4-.3-.6-.5c-.1-.2-.2-.5-.2-.7c0-.3.1-.6.2-.8c.2-.2.4-.4.6-.5c.3-.2.6-.3 1-.4c.4 0 .8-.1 1.3-.1zm0 2.8c.7 0 1.2-.1 1.6-.2c.4-.2.6-.5.6-.8c0-.4-.2-.7-.6-.8c-.4-.2-.9-.3-1.6-.3c-.7 0-1.3.1-1.7.3c-.3.1-.5.4-.5.8c0 .3.2.6.5.8c.4.1 1 .2 1.7.2zM71.1 93h.8v9.2h-.8V93zm-3.7.7c.4 0 .7.1 1 .2c.3.1.5.2.8.4c.2.2.3.4.5.7c.1.3.1.5.1.9c0 .3 0 .6-.1.8c-.2.3-.3.5-.5.7c-.3.2-.5.4-.8.5c-.3.1-.6.1-1 .1c-.4 0-.7 0-1-.1c-.3-.1-.5-.3-.8-.5c-.2-.2-.3-.4-.5-.7c-.1-.2-.1-.5-.1-.8c0-.4 0-.6.1-.9c.2-.3.3-.5.5-.7c.3-.2.5-.3.8-.4c.3-.1.6-.2 1-.2zm0 .7c-.2 0-.5.1-.7.1c-.2.1-.3.2-.5.3c-.1.2-.2.3-.3.5c-.1.2-.1.3-.1.6c0 .2 0 .4.1.5c.1.2.2.4.3.5c.2.1.3.2.5.3c.2.1.5.1.7.1c.2 0 .5 0 .7-.1c.2-.1.3-.2.5-.3c.1-.1.2-.3.3-.5c.1-.1.1-.3.1-.5c0-.3 0-.4-.1-.6c-.1-.2-.2-.3-.3-.5c-.2-.1-.3-.2-.5-.3c-.2 0-.5-.1-.7-.1zm-2.8 5.8l-.1-.7h1.4c.4 0 .9 0 1.4-.1h1.6c.5-.1 1-.1 1.6-.2v.6c-.5.1-1 .2-1.5.2c-.6.1-1.1.1-1.6.1c-.5.1-1 .1-1.5.1h-1.3zm17.7-7.1h.9v9.1h-.9v-9.1zM79 94.7s-.04 1.14 0 1.1c0 .4 0 .8.2 1.2c.1.4.3.7.5 1.1c.2.3.5.6.8.8c.3.3.6.5.9.6l-.5.7c-.5-.2-1-.6-1.4-1.1c-.4-.5-.7-1.1-1-1.7c-.1.3-.2.7-.4 1c-.1.3-.3.6-.5.8c-.2.3-.4.5-.7.7c-.2.2-.5.4-.7.5l-.5-.6c.3-.2.6-.4.9-.7c.3-.3.6-.6.8-.9c.2-.4.4-.8.5-1.2c.2-.4.2-.8.2-1.2c.02.04 0-1.1 0-1.1H76v-.7h5.1v.7H79zm12.6-1.6l.8-.1v5.4h-.8v-1.3s-2.35.02-2.4 0c-.2.3-.4.5-.8.6c-.3.2-.6.3-1 .3c-.4 0-.7-.1-1-.2c-.3-.1-.5-.3-.7-.5c-.2-.2-.4-.4-.5-.7c-.1-.2-.2-.5-.2-.9c0-.3.1-.6.2-.8c.1-.3.3-.5.5-.7c.2-.2.4-.4.7-.5c.3-.1.6-.1 1-.1c.4 0 .7 0 1.1.2c.3.1.5.3.8.6h2.3v-1.3zm-4.2 4.1c.2 0 .4 0 .6-.1c.2 0 .3-.1.5-.3c.1-.1.2-.3.3-.5c.1-.1.1-.3.1-.6c0-.2 0-.4-.1-.6c-.1-.1-.2-.3-.3-.4c-.2-.1-.3-.2-.5-.3c-.2-.1-.4-.1-.6-.1c-.3 0-.5 0-.7.1c-.1.1-.3.2-.4.3c-.2.1-.3.3-.4.4c0 .2-.1.4-.1.6c0 .3.1.5.1.6c.1.2.2.4.4.5c.1.2.3.3.4.3c.2.1.4.1.7.1zm2.3-1.5c0 .3 0 .6-.1.7c.02.04 2 0 2 0v-1.3s-1.98-.04-2 0c.1.1.1.4.1.6zm-3.4 3.9v-.7h6.1v3.3h-.8v-2.6h-5.3zm15-5.6v.7h-5.1v-.7h2.1v-1h.9v1h2.1zm1.5-.9h.9v5.8h-.9v-1.2h-1.5v-.7h1.5v-1h-1.5v-.7h1.5v-2.2zm-2 3.8c0 .2 0 .4-.1.7c-.1.2-.3.4-.5.5c-.1.2-.4.3-.6.4c-.3 0-.6.1-.9.1c-.3 0-.5-.1-.8-.1c-.2-.1-.5-.2-.6-.4c-.2-.1-.4-.3-.5-.5c-.1-.3-.1-.5-.1-.7c0-.3 0-.5.1-.7c.1-.2.3-.4.5-.6c.1-.1.4-.2.6-.3c.3-.1.5-.1.8-.1c.3 0 .6 0 .9.1c.2.1.5.2.6.3c.2.2.4.4.5.6c.1.2.1.4.1.7zm-3.3 0c0 .3.1.6.3.7c.2.2.6.3.9.3c.4 0 .7-.1 1-.3c.2-.1.3-.4.3-.7c0-.4-.1-.6-.3-.8c-.3-.2-.6-.3-1-.3c-.3 0-.7.1-.9.3c-.2.2-.3.4-.3.8zm.1 3.1v-.6h6.1v2.8h-.9V100h-5.2zm15.2-7v6.8h-.8V93h.8zm-2 4.6l-.4.7c-.5-.2-1-.5-1.4-.9c-.4-.4-.7-.9-.9-1.4c-.2.6-.5 1-.9 1.5c-.4.4-.8.7-1.4.9l-.4-.6c.4-.2.7-.3.9-.6c.3-.2.6-.4.8-.7c.2-.3.3-.6.4-1c.1-.3.2-.7.2-1v-.9h.8s.04.88 0 .9c0 .3.1.7.2 1c.1.3.3.6.5.9c.2.2.4.5.7.7c.3.2.6.4.9.5zm-3 3.7h5.3v.7h-6.2v-2.9h.9v2.2zm15.2-4.5v.6h-1.5v4.8h-.8V93h.8v3.8h1.5zm-8-2.8s4.17.02 4.2 0c0 .7-.1 1.3-.3 1.9c-.1.6-.4 1.2-.7 1.8c-.3.5-.8 1-1.3 1.5c-.5.5-1.1.9-1.9 1.3l-.4-.7c1.2-.6 2.1-1.3 2.7-2.2c.6-.8.9-1.8 1-2.9c.04.01-3.3 0-3.3 0v-.7zm15.1.6v-.7h-5.4v-.6h6.2v1.9h-5.3v.8h5.5v.6h-6.4v-2h5.4zm-6.4 2.7h8.3v.6h-8.3v-.6zm1.8 3.3v.9h5.7v.6h-6.5V100h5.4v-.7h-5.4v-.6h6.2v1.9h-5.4zM142 95h1.4v.7H142v2.1h-.8v-4.7h.8v1.9zm-2.5-1.6v4h-4.2v-4h.8v1.3h2.6v-1.3h.8zm-.8 3.3v-1.3h-2.6v1.3h2.6zm-1.6 3.7v1h5.3v.7h-6.1v-2.3h4.9v-.9h-5v-.7h5.8v2.2h-4.9zm15.3-3.4h-3.7v1.2h2.7v2.2H146v1h5.6v.7h-6.5v-2.3h5.4v-.9h-5.4v-.7h2.7V97h-3.7v-.7s6.22.04 6.2 0c.1-.5.2-.9.2-1.2v-1c.02-.03-5.3 0-5.3 0v-.7h6.1s.05.58 0 .6v1c0 .4 0 .8-.1 1.3c-.04.04 1.2 0 1.2 0v.7zm9.4-.2v.7h-1.5v4.7h-.8v-9.1h.8v3.7h1.5zm-5.4-3.6v1.3h2.2v.7h-5.4v-.7h2.3v-1.3h.9zm-.4 2.7c.3 0 .6.1.9.2c.2.1.5.2.7.4c.2.2.3.4.4.7c.2.3.2.5.2.8c0 .4 0 .6-.2.9c-.1.3-.2.5-.4.7c-.2.2-.5.3-.7.4c-.3.1-.6.1-.9.1c-.3 0-.6 0-.9-.1c-.3-.1-.5-.2-.7-.4c-.2-.2-.4-.4-.5-.7c-.1-.3-.1-.5-.1-.9c0-.3 0-.5.1-.8c.1-.3.3-.5.5-.7c.2-.2.4-.3.7-.4c.3-.1.6-.2.9-.2zm0 3.6c.2 0 .4-.1.6-.2c.1 0 .3-.1.4-.2c.1-.2.2-.3.3-.5c.1-.2.1-.3.1-.6c0-.2 0-.3-.1-.5c-.1-.2-.2-.3-.3-.5c-.1-.1-.3-.2-.4-.3c-.2 0-.4-.1-.6-.1c-.2 0-.4.1-.6.1c-.2.1-.3.2-.4.3c-.2.2-.3.3-.3.5c-.1.2-.2.3-.2.5c0 .3.1.4.2.6c0 .2.1.3.3.5c.1.1.2.2.4.2c.2.1.4.2.6.2zm12.9-4.6c.03-.03 0-.3 0-.3h-5.5v-.6h6.4s-.03.87 0 .9v.8c0 .4-.1.7-.1 1c0 .4 0 .7-.1 1.1c0 .4-.1.8-.2 1.3l-.8-.1c.2-.9.3-1.6.3-2.3v-1.8zm-2.4 5.3h4.3v.7h-8.3v-.7h3.2v-3.3h.8v3.3zm4.8 2l.4-2.1h.9l-.6 2.1h-.7zm4.9-5.1l-.3-.7c.5 0 .9-.1 1.3-.2c.3-.1.7-.2 1-.4c.2-.1.5-.3.6-.5c.2-.2.3-.4.3-.7h-2.8v-.7h2.9v-.9h.8v.9h2.9v.7H180c.1.3.2.5.3.7c.2.2.4.4.7.5c.3.2.7.3 1 .4c.4.1.8.2 1.3.2l-.3.7c-.4 0-.7-.1-1.1-.2l-1-.3c-.3-.2-.5-.3-.7-.5c-.3-.2-.5-.4-.6-.6c-.1.2-.3.4-.6.6c-.2.2-.4.3-.7.5l-1 .3c-.4.1-.7.2-1.1.2zm3.8.7h3.7v.7h-8.2v-.7h3.7v-1.1h.8v1.1zm-.4 1.3c1 0 1.8.2 2.3.4c.6.3.8.7.8 1.2c0 .5-.2.8-.8 1.1c-.5.3-1.3.4-2.3.4c-1 0-1.8-.1-2.3-.4c-.6-.3-.8-.6-.8-1.1c0-.5.2-.9.8-1.2c.5-.2 1.3-.4 2.3-.4zm0 2.4c.7 0 1.3 0 1.7-.2c.4-.1.6-.4.6-.6c0-.3-.2-.5-.6-.7c-.4-.2-1-.2-1.7-.2c-.8 0-1.3 0-1.7.2c-.4.2-.6.4-.6.7c0 .2.2.5.6.6c.4.2.9.2 1.7.2zm11.4-2.8h1.1v.7H191v2h-.9v-2h-3.7v-.6l3.7-4.9h.9v4.8zm-3.6 0h2.7s.04-3.11 0-3.1v-.3c.1-.1.1-.2.1-.3c-.02-.04-2.8 3.7-2.8 3.7zm10-2.9c0 .9-.4 1.4-1.2 1.7c.5.2.8.4 1.1.7c.2.3.4.7.4 1.2c0 .4-.1.7-.2.9c-.1.3-.3.5-.6.7c-.2.2-.5.4-.8.5c-.3.1-.6.1-1 .1c-.4 0-.7 0-1.1-.1c-.3-.1-.5-.3-.8-.5c-.2-.2-.4-.4-.5-.7c-.1-.2-.2-.5-.2-.9c0-.5.1-.9.4-1.2c.2-.3.6-.5 1.1-.7c-.4-.1-.7-.3-.9-.6c-.2-.3-.3-.7-.3-1.1c0-.3 0-.6.1-.8c.2-.2.3-.4.5-.6c.2-.2.5-.4.7-.5c.3-.1.6-.1 1-.1c.3 0 .6 0 .9.1c.3.1.6.3.8.5c.2.2.3.4.4.6c.2.2.2.5.2.8zm-2.3-1.3c-.5 0-.8.1-1.1.4c-.2.2-.3.6-.3.9c0 .2 0 .4.1.5c0 .2.1.3.2.5c.1.1.3.2.4.3c.2 0 .4.1.7.1c.2 0 .5-.1.6-.1c.2-.1.3-.2.5-.3c.1-.2.1-.3.2-.5c0-.1.1-.3.1-.5c0-.3-.2-.7-.4-.9c-.2-.3-.5-.4-1-.4zm0 6.3c.5 0 .9-.1 1.2-.3c.2-.3.4-.7.4-1.1c0-.2-.1-.5-.2-.7c0-.1-.2-.3-.3-.4c-.1-.1-.3-.2-.5-.3c-.2 0-.4-.1-.6-.1c-.2 0-.4.1-.6.1c-.2.1-.4.2-.5.3c-.2.1-.3.3-.4.4c-.1.2-.1.5-.1.7c0 .4.1.8.4 1.1c.3.2.7.3 1.2.3zm7.5-6.9s-2.21 2.84-2.2 2.8c-.1.2-.2.3-.2.3c-.1.1-.1.2-.2.2l.6-.3c.2 0 .5-.1.7-.1c.3 0 .6.1.9.2c.3.1.5.2.7.4c.2.2.4.5.5.7c.1.3.2.6.2 1c0 .3-.1.7-.2 1c-.2.3-.3.5-.6.8c-.2.2-.5.4-.8.5c-.3.1-.6.2-1 .2c-.4 0-.8-.1-1.1-.2c-.3-.1-.5-.3-.8-.5c-.2-.3-.3-.5-.5-.8c-.1-.4-.1-.7-.1-1.1c0-.3 0-.7.2-1.1c.1-.3.4-.7.7-1.2l2.1-2.8h1.1zm-1.7 6.9c.3 0 .5-.1.7-.1c.2-.1.4-.2.6-.4c.1-.1.2-.3.3-.5c.1-.2.1-.4.1-.6c0-.3 0-.5-.1-.7c-.1-.2-.2-.4-.3-.5c-.2-.1-.3-.2-.5-.3c-.2-.1-.5-.1-.7-.1c-.2 0-.5 0-.7.1c-.2.1-.3.2-.5.3c-.1.2-.2.4-.3.5c-.1.2-.1.4-.1.7c0 .4.1.8.4 1.1c.2.3.6.5 1.1.5zm8-3.8v.8h-4.1v-4.1h4.1v.8h2.1v-1.4h.9v5.4h-.9V97h-2.1zm-.8.1v-2.7h-2.5v2.7h2.5zm2.9-1.9h-2.1v1.1h2.1v-1.1zm-2.1 3.5c.9 0 1.6.2 2.2.5c.5.3.8.7.8 1.3c0 .2-.1.5-.2.7c-.1.2-.3.4-.6.5c-.3.2-.6.3-1 .4c-.4 0-.8.1-1.2.1c-.5 0-.9-.1-1.3-.1c-.4-.1-.7-.2-1-.4c-.2-.1-.4-.3-.6-.5c-.1-.2-.2-.5-.2-.7c0-.3.1-.6.2-.8c.2-.2.4-.4.6-.5c.3-.2.6-.3 1-.4c.4 0 .8-.1 1.3-.1zm0 2.8c.7 0 1.2-.1 1.6-.2c.4-.2.6-.5.6-.8c0-.4-.2-.7-.6-.8c-.4-.2-.9-.3-1.6-.3c-.7 0-1.3.1-1.7.3c-.4.1-.5.4-.5.8c0 .3.1.6.5.8c.4.1 1 .2 1.7.2zm11.2-8.5h.9v9.2h-.9V93zm-3.6.7c.4 0 .7.1 1 .2c.3.1.5.2.8.4c.2.2.3.4.5.7c.1.3.1.5.1.9c0 .3 0 .6-.1.8c-.2.3-.3.5-.5.7c-.3.2-.5.4-.8.5c-.3.1-.6.1-1 .1c-.4 0-.7 0-1-.1c-.3-.1-.5-.3-.8-.5c-.2-.2-.3-.4-.5-.7c-.1-.2-.2-.5-.2-.8c0-.4.1-.6.2-.9c.2-.3.3-.5.5-.7c.3-.2.5-.3.8-.4c.3-.1.6-.2 1-.2zm0 .7c-.2 0-.5.1-.7.1c-.2.1-.3.2-.5.3c-.1.2-.2.3-.3.5c-.1.2-.1.3-.1.6c0 .2 0 .4.1.5c.1.2.2.4.3.5c.2.1.3.2.5.3c.2.1.5.1.7.1c.2 0 .5 0 .7-.1c.2-.1.3-.2.5-.3c.1-.1.2-.3.3-.5c.1-.1.1-.3.1-.5c0-.3 0-.4-.1-.6c-.1-.2-.2-.3-.3-.5c-.2-.1-.3-.2-.5-.3c-.2 0-.5-.1-.7-.1zm-2.8 5.8l-.1-.7h1.3c.5 0 1 0 1.5-.1h1.6c.5-.1 1-.1 1.5-.2l.1.6c-.5.1-1 .2-1.6.2c-.5.1-1 .1-1.5.1c-.5.1-1 .1-1.5.1h-1.3zm18.6-7.1v6.6h-.8v-6.6h.8zm-2.5 2.8c0 .4-.1.7-.2.9c-.1.3-.3.6-.5.8c-.2.2-.5.3-.8.4c-.3.1-.6.2-.9.2c-.4 0-.7-.1-1-.2c-.3-.1-.5-.2-.7-.4c-.2-.2-.4-.5-.5-.8c-.1-.2-.2-.5-.2-.9c0-.3.1-.6.2-.9c.1-.3.3-.5.5-.7c.2-.2.4-.3.7-.5c.3-.1.6-.1 1-.1c.3 0 .6 0 .9.1c.3.2.6.3.8.5c.2.2.4.4.5.7c.1.3.2.6.2.9zm-4 0c0 .3.1.5.1.6c.1.2.2.4.4.5c.1.2.3.3.5.4c.1 0 .4.1.6.1c.2 0 .4-.1.6-.1c.2-.1.4-.2.5-.4c.2-.1.3-.3.3-.5c.1-.1.2-.3.2-.6c0-.2-.1-.4-.2-.6c0-.2-.1-.3-.3-.5c-.1-.1-.3-.2-.5-.3c-.2-.1-.4-.1-.6-.1c-.2 0-.5 0-.6.1c-.2.1-.4.2-.5.3c-.2.2-.3.3-.4.5c0 .2-.1.4-.1.6zm1.4 5.4h5.4v.7h-6.2v-3h.8v2.3zm11.6-2.9h1.8V93h.9v7h-.9v-.9h-1.8v-.7zm-1.9-1.8c-.3 0-.6 0-.9-.1c-.3-.1-.5-.2-.7-.3c-.2-.2-.4-.3-.5-.5c-.1-.2-.2-.5-.2-.7c0-.2.1-.5.2-.7c.1-.2.3-.3.5-.5c.2-.1.4-.2.7-.3c.3-.1.6-.1.9-.1c.3 0 .6 0 .9.1c.3.1.5.2.7.3c.2.2.4.3.5.5c.1.2.1.5.1.7c0 .2 0 .5-.1.7c-.1.2-.3.3-.5.5c-.2.1-.4.2-.7.3c-.3.1-.6.1-.9.1zm0-2.6c-.4 0-.8.1-1.1.3c-.2.2-.4.4-.4.7c0 .3.2.5.4.7c.3.2.7.3 1.1.3c.4 0 .8-.1 1-.3c.3-.2.5-.4.5-.7c0-.3-.2-.5-.5-.7c-.2-.2-.6-.3-1-.3zm-.3 5.7s-.03-1.78 0-1.8c-.5 0-.9.1-1.4.1H234l-.1-.7h1.4c.5 0 1 0 1.5-.1h1.5c.5-.1 1-.1 1.5-.2l.1.6c-.4.1-.8.1-1.3.2c-.4 0-.8 0-1.2.1v1.8h-.8zm-.5 1.6h5.6v.7h-6.5v-2.7h.9v2zm13.7-8.3h.8v9.2h-.8V93zm-4 .7c.3 0 .7.1.9.3c.3.1.6.3.8.6c.2.3.3.6.5 1c.1.4.1.8.1 1.3c0 .5 0 1-.1 1.4c-.2.3-.3.7-.5 1c-.2.2-.5.5-.8.6c-.2.2-.6.2-.9.2c-.3 0-.6 0-.9-.2c-.3-.1-.6-.4-.8-.6c-.2-.3-.3-.7-.4-1c-.2-.4-.2-.9-.2-1.4c0-.5 0-.9.2-1.3c.1-.4.2-.7.4-1c.2-.3.5-.5.8-.6c.3-.2.6-.3.9-.3zm0 .8c-.2 0-.4.1-.6.2c-.2.1-.4.3-.5.5c-.1.2-.2.4-.3.7c-.1.3-.1.7-.1 1c0 .4 0 .7.1 1c.1.3.2.6.3.8c.1.2.3.4.5.5c.2.1.4.2.6.2c.2 0 .4-.1.6-.2c.2-.1.4-.3.5-.5c.1-.2.2-.5.3-.8c.1-.3.1-.6.1-1c0-.3 0-.7-.1-1c-.1-.3-.2-.5-.3-.7c-.1-.2-.3-.4-.5-.5c-.2-.1-.4-.2-.6-.2zm15.3-1.5h.8v9.2h-.8V93zm-3.4.8s-.05 1.68 0 1.7c0 .4 0 .8.1 1.2c.2.4.3.8.6 1.2c.2.3.5.6.8.9c.2.3.6.5.9.6l-.5.7c-.5-.2-1-.6-1.4-1.1c-.4-.5-.7-1.1-1-1.8c-.2.7-.5 1.3-.9 1.9c-.4.5-.9.9-1.4 1.2l-.5-.7c.3-.2.6-.4.9-.7c.3-.2.6-.6.8-.9c.2-.4.4-.8.5-1.2c.2-.5.2-.9.2-1.3c.02-.02 0-1.7 0-1.7h.9zm13 1.6h1.3v.7h-1.3v2.5h-.9v-5.5h.9v2.3zm-1.8 2.1l-.4.6c-.5-.1-1-.4-1.4-.7c-.3-.4-.6-.8-.8-1.2c-.2.5-.5.9-.9 1.3c-.4.4-.9.7-1.4.9l-.5-.7c.4-.1.7-.3 1-.5c.3-.2.5-.4.7-.6c.2-.3.4-.6.5-.9c.1-.3.1-.6.1-.9c.04-.05 0-.4 0-.4h-2v-.7h4.9v.7h-2s-.02.35 0 .4c0 .3 0 .5.1.8c.1.3.3.6.5.8c.2.2.4.4.7.6c.2.2.6.4.9.5zm-1.1 1.3c.4 0 .9 0 1.2.1c.4.1.7.2 1 .3l.6.6c.1.2.2.4.2.7c0 .3-.1.5-.2.7c-.2.2-.4.4-.6.5c-.3.2-.6.3-1 .4c-.3 0-.8.1-1.2.1c-1 0-1.7-.2-2.2-.5c-.6-.3-.8-.7-.8-1.2c0-.5.2-1 .8-1.3c.5-.2 1.2-.4 2.2-.4zm0 2.7c.7 0 1.2-.1 1.6-.3c.4-.1.6-.4.6-.7c0-.3-.2-.6-.6-.8c-.4-.1-.9-.2-1.6-.2c-.7 0-1.3.1-1.6.2c-.4.2-.6.5-.6.8c0 .3.2.6.6.7c.3.2.9.3 1.6.3zm12.5-7.8v.6H275v-.6h2.2v-.8h.9v.8h2.2zm1.6 1.7h1.4v.7h-1.4v2.3h-.8V93h.8v2.4zm-1.3 1.9v.6c-.5.1-1 .1-1.5.2c-.5 0-1 .1-1.5.1h-2.7l-.1-.6h2.4v-.6c-.5 0-.9-.1-1.2-.3c-.3-.3-.5-.5-.5-.9c0-.4.2-.7.6-.9c.4-.2.9-.3 1.6-.3c.6 0 1.1.1 1.5.3c.4.2.6.5.6.9c0 .4-.2.6-.5.8c-.3.2-.7.4-1.2.4v.5h1.2c.5-.1.9-.1 1.3-.2zm-4.3-1.5c0 .2.1.4.4.5c.2.1.5.2 1 .2c.4 0 .7-.1.9-.2c.3-.1.4-.3.4-.5c0-.2-.1-.3-.4-.5c-.2-.1-.5-.1-.9-.1c-.5 0-.8 0-1 .1c-.3.2-.4.3-.4.5zm.6 4.9v.8h5.4v.6H276v-2h5.1v-.7H276v-.6h5.9v1.9h-5zm13.8-2.2v-2.8h-2v-.7h2v-1.9h.9v5.4h-.9zm-1.3-1.1l-.5.6c-.5-.2-.9-.4-1.3-.8c-.3-.3-.6-.7-.8-1.2c-.2.5-.5 1-.9 1.4c-.4.4-.9.7-1.4.9l-.5-.7c.4-.1.7-.3 1-.5c.3-.2.5-.4.7-.7c.2-.3.4-.6.5-.9c.1-.3.1-.7.1-1c.03 0 0-.9 0-.9h.9s-.03.87 0 .9c0 .3 0 .6.1.9c.1.3.3.6.5.8c.2.3.4.5.7.7c.3.2.6.4.9.5zm-.9 1.3c.5 0 .9.1 1.3.1c.4.1.7.2 1 .4c.2.1.4.3.6.5c.1.2.2.5.2.8c0 .2-.1.5-.2.7c-.2.2-.4.4-.6.5c-.3.2-.6.3-1 .4c-.4 0-.8.1-1.3.1c-.4 0-.8-.1-1.2-.1c-.4-.1-.7-.2-1-.4c-.2-.1-.4-.3-.6-.5c-.1-.2-.2-.5-.2-.7c0-.3.1-.6.2-.8c.2-.2.4-.4.6-.5c.3-.2.6-.3 1-.4c.4 0 .8-.1 1.2-.1zm0 2.8c.7 0 1.3-.1 1.7-.3c.4-.2.6-.4.6-.7c0-.4-.2-.7-.6-.8c-.4-.2-1-.3-1.7-.3c-.7 0-1.2.1-1.6.3c-.4.1-.6.4-.6.8c0 .3.2.5.6.7c.4.2.9.3 1.6.3zm13.2-4.6v.7h-1.4v4.6h-.9V93h.9v3.9h1.4zm-3-2.7v.6h-5.4v-.6h2.3v-1.1h.8v1.1h2.3zm-2.3 4.5v1c.4 0 .9-.1 1.3-.1c.4 0 .8-.1 1.2-.1v.6c-.5.1-1 .1-1.5.2c-.5 0-1 .1-1.5.1c-.4 0-.9 0-1.4.1h-1.3l-.1-.7c.4 0 .8 0 1.2-.1h1.3v-1c-.5 0-1-.2-1.3-.5c-.3-.3-.5-.7-.5-1.2c0-.2.1-.4.2-.6c.1-.3.3-.4.4-.6c.2-.1.5-.2.7-.3c.3-.1.6-.1.9-.1c.3 0 .6 0 .9.1c.2.1.5.2.7.3c.2.2.3.3.4.6c.1.2.2.4.2.6c0 .5-.2.9-.5 1.2c-.3.3-.7.5-1.3.5zm-1.8-1.7c0 .4.2.6.4.8c.3.2.6.3 1 .3c.4 0 .7-.1 1-.3c.2-.2.4-.4.4-.8c0-.3-.2-.5-.4-.7c-.3-.2-.6-.3-1-.3c-.4 0-.7.1-1 .3c-.2.2-.4.4-.4.7zm12 .8v-3.2h-1.4v-.6h6.8v.6h-1.4v3.2h1.4v.7h-6.8v-.7h1.4zm3.1 0v-3.2h-2.2v3.2h2.2zm-5.2 2.5h8.3v.7h-8.3v-.7zm13.7.1h3.8v.7h-8.4v-.7h3.8v-1.7h-2.7v-2.9h5.4v-1.4h-5.4v-.7h6.2v2.8h-5.4v1.5h5.6v.7h-2.9v1.7zm11-5.5c-.03.03 0-.2 0-.2h-5.5v-.7h6.3v2.9c-.1.3-.1.7-.2 1.1c0 .4-.1.9-.2 1.4l-.8-.1c.2-.9.3-1.8.3-2.5c.1-.7.1-1.3.1-1.9zm-6.4 5.3h8.3v.7h-8.3v-.7zm16.1-7.2h.8v5.5h-.8V96h-1.2v2.4h-.8v-5.2h.8v2.2h1.2V93zm-2.5 4.2l.1.6c-.3.1-.6.1-.9.2h-.8c-.3.1-.6.1-.8.1h-1.6v-2.6h2.6v-1.2h-2.6v-.7h3.4v2.5h-2.6s.03 1.33 0 1.3h1.6c.5-.1 1.1-.1 1.6-.2zm-2.7 4.9v-3.2h6v3.2h-6zm.8-2.5v1.8h4.4v-1.8h-4.4zm13.7-6.6h.8v9.2h-.8V93zm-1.9 3.6v-3.4h.8v8.5h-.8v-4.4s-1.1-.02-1.1 0c0 .4-.1.8-.2 1.2c-.1.3-.2.7-.4.9c-.1.3-.3.4-.6.6c-.2.1-.5.2-.7.2c-.3 0-.6-.1-.9-.2c-.2-.2-.4-.4-.6-.7c-.1-.3-.3-.6-.4-1c-.1-.4-.1-.8-.1-1.3c0-.5 0-1 .1-1.3c.1-.4.3-.8.4-1c.2-.3.4-.5.6-.7c.3-.1.6-.2.9-.2c.2 0 .5.1.7.2c.2.1.4.3.6.6c.2.2.3.5.4.8c.1.4.2.8.2 1.2h1.1zm-3 2.8c.3 0 .6-.2.8-.6c.2-.5.3-1.1.3-1.8v-1c-.1-.3-.2-.6-.3-.8c-.1-.2-.2-.3-.4-.5c-.1-.1-.3-.1-.4-.1c-.4 0-.7.2-.9.6c-.2.5-.3 1-.3 1.8c0 .7.1 1.3.3 1.8c.2.4.5.6.9.6z" stroke="none" fill="#111111"/></g><g id="Polygon99540"><path d="m7.2 74.6h.8v9.1h-.8v-9.1zm-3.4 1.6v1.1c0 .4.1.8.2 1.2c.1.4.3.7.5 1.1c.2.3.5.6.8.8c.3.3.6.5 1 .6l-.5.7c-.5-.2-1-.6-1.4-1.1c-.5-.5-.8-1.1-1-1.7c-.1.3-.2.7-.4 1c-.2.3-.4.6-.6.8c-.2.3-.4.5-.6.7c-.3.2-.5.4-.8.5l-.5-.6c.4-.2.7-.4 1-.7c.3-.3.5-.6.7-.9c.3-.4.4-.8.6-1.2c.1-.4.2-.8.2-1.2c-.03.04 0-1.1 0-1.1H.8v-.7h5.2v.7H3.8zm12.6-1.6l.9-.1v5.4h-.9v-1.3s-2.3.02-2.3 0c-.2.3-.5.5-.8.6c-.3.2-.7.3-1.1.3c-.3 0-.6-.1-.9-.2c-.3-.1-.6-.3-.8-.5c-.2-.2-.3-.4-.5-.7c-.1-.2-.1-.5-.1-.9c0-.3 0-.6.1-.8c.2-.3.3-.5.5-.7c.2-.2.5-.4.8-.5c.3-.1.6-.1.9-.1c.4 0 .8 0 1.1.2c.3.1.6.3.8.6h2.3v-1.3zm-4.2 4.1c.2 0 .4 0 .6-.1c.2 0 .4-.1.5-.3c.2-.1.3-.3.4-.5c0-.1.1-.3.1-.6c0-.2-.1-.4-.1-.6c-.1-.1-.2-.3-.4-.4c-.1-.1-.3-.2-.5-.3c-.2-.1-.4-.1-.6-.1c-.2 0-.4 0-.6.1c-.2.1-.4.2-.5.3c-.1.1-.2.3-.3.4c-.1.2-.1.4-.1.6c0 .3 0 .5.1.6c.1.2.2.4.3.5c.1.2.3.3.5.3c.2.1.4.1.6.1zm2.4-1.5c0 .3-.1.6-.1.7c-.04.04 1.9 0 1.9 0v-1.3s-1.94-.04-1.9 0c0 .1.1.4.1.6zm-3.5 3.9v-.7h6.2v3.3h-.9v-2.6h-5.3zm14.4-6.6h.9v9.2h-.9v-9.2zm-3.6.7c.3 0 .7.1 1 .2c.3.1.5.2.7.4c.2.2.4.4.5.7c.2.3.2.5.2.9c0 .3 0 .6-.2.8c-.1.3-.3.5-.5.7c-.2.2-.4.4-.7.5c-.3.1-.7.1-1 .1c-.4 0-.7 0-1-.1c-.3-.1-.6-.3-.8-.5c-.2-.2-.4-.4-.5-.7c-.1-.2-.2-.5-.2-.8c0-.4.1-.6.2-.9c.1-.3.3-.5.5-.7c.2-.2.5-.3.8-.4c.3-.1.6-.2 1-.2zm0 .7c-.3 0-.5.1-.7.1c-.2.1-.4.2-.5.3c-.1.2-.3.3-.3.5c-.1.2-.2.3-.2.6c0 .2.1.4.2.5c0 .2.2.4.3.5c.1.1.3.2.5.3c.2.1.4.1.7.1c.2 0 .4 0 .6-.1c.2-.1.4-.2.5-.3c.2-.1.3-.3.4-.5c.1-.1.1-.3.1-.5c0-.3 0-.4-.1-.6c-.1-.2-.2-.3-.4-.5c-.1-.1-.3-.2-.5-.3c-.2 0-.4-.1-.6-.1zm-2.8 5.8L19 81h1.3c.5 0 1 0 1.5-.1h1.6c.5-.1 1-.1 1.5-.2l.1.6c-.5.1-1 .2-1.6.2c-.5.1-1 .1-1.5.1c-.5.1-1 .1-1.5.1h-1.3zm18-7.2h.8v9.2h-.8v-4.8h-1.2v4.3h-.8v-8.5h.8v3.5h1.2v-3.7zm-4.2.9s-.01 1.71 0 1.7c0 .4 0 .8.1 1.1c.1.4.2.7.4 1.1l.6.9c.2.2.5.5.8.6l-.5.7c-.4-.3-.8-.6-1.1-1.1c-.3-.4-.5-.9-.7-1.5c-.2.6-.4 1.2-.7 1.7c-.4.5-.8.8-1.2 1.1l-.5-.6c.3-.2.6-.4.8-.7c.3-.3.5-.6.6-1c.2-.3.4-.7.4-1.1c.1-.4.2-.8.2-1.2c-.01.04 0-1.7 0-1.7h.8zm11 6.5h3.7v.7h-8.3v-.7h3.8v-1.7h-2.7v-2.9h5.4v-1.4h-5.4v-.7h6.2v2.8h-5.4v1.5h5.6v.7h-2.9v1.7zm8.8-3.5c-.5 0-1 0-1.4-.1c-.4-.1-.7-.2-1-.3c-.3-.2-.5-.4-.6-.6c-.2-.2-.3-.5-.3-.8c0-.3.1-.5.3-.8c.1-.2.3-.4.6-.5c.3-.2.6-.3 1-.4c.4-.1.9-.1 1.4-.1c.4 0 .9 0 1.3.1c.4.1.7.2 1 .4c.3.1.5.3.6.5c.2.3.3.5.3.8c0 .3-.1.6-.3.8c-.1.2-.3.4-.6.6c-.3.1-.6.2-1 .3c-.4.1-.9.1-1.3.1zm0-3c-.4 0-.7.1-1 .1c-.3.1-.5.2-.7.3c-.2.1-.4.2-.5.3c-.1.2-.2.3-.2.5c0 .2.1.3.2.5c.1.1.3.3.5.4c.2.1.4.1.7.2c.3 0 .6.1 1 .1c.7 0 1.2-.1 1.6-.3c.5-.3.7-.5.7-.9c0-.4-.2-.6-.6-.8c-.5-.2-1-.4-1.7-.4zm-4.2 3.8h8.3v.7h-3.6v1.8h-.9v-1.8h-3.8v-.7zm1.9 1.6v2h5.5v.7h-6.3v-2.7h.8zm14.8-5.2v.6h-5.4v-.6h2.3v-1.1h.8v1.1h2.3zm1.7 1.6h1.3v.7h-1.3v3h-.9v-6.4h.9v2.7zM62.5 80c-.3 0-.6 0-.9-.1c-.2-.1-.5-.2-.7-.3c-.2-.2-.3-.4-.4-.6c-.1-.2-.2-.4-.2-.6c0-.3.1-.5.2-.7c.1-.2.2-.4.4-.5c.2-.2.5-.3.7-.4c.3 0 .6-.1.9-.1c.3 0 .6.1.9.1c.3.1.5.2.7.4c.2.1.3.3.4.5c.1.2.2.4.2.7c0 .2-.1.4-.2.6c-.1.2-.2.4-.4.6c-.2.1-.4.2-.7.3c-.3.1-.6.1-.9.1zm0-2.6c-.4 0-.8 0-1 .2c-.3.2-.4.5-.4.8c0 .3.1.5.4.7c.2.2.6.3 1 .3c.4 0 .8-.1 1-.3c.3-.2.4-.4.4-.7c0-.3-.1-.6-.4-.8c-.2-.2-.6-.2-1-.2zm2 3s.04.19 0 .2c0 .3.1.6.3.9c.2.2.4.5.7.7c.2.2.6.4.9.5l1.2.3l-.3.6c-.4 0-.7-.1-1-.2c-.3-.1-.6-.3-.9-.4c-.3-.2-.5-.4-.7-.6c-.3-.2-.4-.4-.6-.6c-.1.2-.3.4-.5.6c-.2.2-.5.4-.8.6c-.2.2-.5.3-.8.4c-.4.1-.7.2-1 .2l-.4-.6c.5-.1.8-.2 1.2-.3c.4-.1.7-.3 1-.5c.3-.2.5-.5.7-.7c.1-.3.2-.6.2-.9v-.2h.8zm6.6-3.2v-1.7h-1.4v-.7h6.7v.7h-1.3v1.7h1.3v.7h-6.6v-.7h1.3zm3.1 0v-1.7H72v1.7h2.2zM69 78.6h8.2v.7H69v-.7zm1.8 3.5v.9h5.6v.6H70v-2.1h5.3v-.8H70v-.6h6.2v2h-5.4zm14.3-7.6h.8v9.2h-.8v-9.2zm-1.8 3.3v-3h.7v8.4h-.7v-4.7h-1.2v-.7h1.2zm-4 .9s-.05 2.04 0 2h1.5c.5 0 1.1-.1 1.7-.2v.7c-.6.1-1.2.2-1.8.2H79c.05.05-.6 0-.6 0v-3.3h2.5v-1.9h-2.5v-.6h3.3v3.1h-2.4zM94 74.5h.8v9.2h-.8v-9.2zm-4 .7c.3 0 .6.1.9.3c.3.1.6.3.8.6c.2.3.3.6.4 1c.2.4.2.8.2 1.3c0 .5 0 1-.2 1.4c-.1.3-.2.7-.4 1c-.2.2-.5.5-.8.6c-.3.2-.6.2-.9.2c-.4 0-.7 0-1-.2c-.2-.1-.5-.4-.7-.6c-.2-.3-.4-.7-.5-1c-.1-.4-.1-.9-.1-1.4c0-.5 0-.9.1-1.3c.1-.4.3-.7.5-1c.2-.3.5-.5.7-.6c.3-.2.6-.3 1-.3zm0 .8c-.2 0-.4.1-.6.2c-.2.1-.4.3-.5.5c-.2.2-.3.4-.3.7c-.1.3-.1.7-.1 1c0 .4 0 .7.1 1c0 .3.1.6.3.8c.1.2.3.4.5.5c.2.1.4.2.6.2c.2 0 .4-.1.6-.2c.2-.1.3-.3.5-.5c.1-.2.2-.5.3-.8c.1-.3.1-.6.1-1c0-.3 0-.7-.1-1c-.1-.3-.2-.5-.3-.7c-.2-.2-.3-.4-.5-.5c-.2-.1-.4-.2-.6-.2zm14.4 3.1l-.4.7c-.3 0-.7-.2-1-.3c-.4-.2-.7-.4-1-.6c-.3-.2-.6-.5-.8-.8c-.3-.3-.4-.6-.6-.9c-.1.3-.3.6-.6.9c-.2.3-.5.6-.8.8l-.9.6c-.4.1-.7.3-1.1.3l-.4-.7c.4 0 .8-.2 1.2-.4c.4-.2.8-.4 1.1-.7c.3-.3.6-.6.8-1c.2-.3.3-.7.3-1.1c-.03-.01 0-.7 0-.7h.9s-.05.69 0 .7c0 .4 0 .7.2 1.1c.2.4.5.7.8 1c.3.3.7.5 1.1.7c.4.2.8.4 1.2.4zm-7.9 2.7h8.3v.7h-8.3v-.7zm13.7.1h3.8v.7h-8.3v-.7h3.7v-1.7h-2.7v-2.9h5.4v-1.4h-5.4v-.7h6.3v2.8h-5.5v1.5h5.7v.7h-3v1.7zm11.4-7.4h.8v9.2h-.8v-5.4h-2.2v-.7h2.2v-3.1zm-3.5.8s-.04 1.67 0 1.7c0 .4 0 .8.1 1.2c.2.4.3.8.6 1.1c.2.4.4.7.7 1c.3.3.6.5.9.6l-.5.7c-.5-.3-.9-.7-1.3-1.2c-.4-.5-.7-1.1-1-1.7c-.2.7-.5 1.3-.9 1.8c-.4.6-.8 1-1.3 1.3l-.5-.7c.3-.2.6-.4.9-.7c.3-.3.5-.6.7-1c.3-.4.4-.7.5-1.2c.2-.4.2-.8.2-1.2c.03-.03 0-1.7 0-1.7h.9zm12.6 6.5h3.7v.7h-8.3v-.7h3.7v-2.3h-2.6v-4.2h6.2v.7H128v2.8h5.5v.7h-2.8v2.3zm13-5.2h-1.3v1.3h1.3v.7h-1.3v1.4h-.8v-5.4h.8v1.3h1.3v.7zm-3.5.7c0 .3 0 .6-.1.8c-.1.3-.3.5-.5.7c-.2.2-.5.4-.8.5c-.3.1-.6.1-.9.1c-.4 0-.7 0-1-.1c-.3-.1-.5-.3-.8-.5c-.2-.2-.3-.4-.4-.7c-.2-.2-.2-.5-.2-.8c0-.4 0-.7.2-.9c.1-.3.2-.5.4-.7c.3-.2.5-.3.8-.5c.3-.1.6-.1 1-.1c.3 0 .6 0 .9.1c.3.2.6.3.8.5c.2.2.4.4.5.7c.1.2.1.5.1.9zm-3.9 0c0 .2 0 .4.1.5c.1.2.2.4.3.5c.2.1.3.2.5.3c.2.1.4.1.7.1c.2 0 .4 0 .6-.1c.2-.1.4-.2.5-.3c.1-.1.2-.3.3-.5c.1-.1.1-.3.1-.5c0-.3 0-.5-.1-.6c-.1-.2-.2-.4-.3-.5c-.1-.1-.3-.2-.5-.3c-.2-.1-.4-.1-.6-.1c-.3 0-.5 0-.7.1c-.2.1-.3.2-.5.3c-.1.1-.2.3-.3.5c-.1.1-.1.3-.1.6zm.2 3.8v-.7h5.9v3.3h-.8v-2.6h-5.1zm12.1-3.2c-1 0-1.8-.2-2.3-.4c-.6-.3-.9-.7-.9-1.2c0-.5.3-.9.9-1.2c.5-.3 1.3-.4 2.3-.4c1 0 1.8.1 2.4.4c.5.3.8.7.8 1.2c0 .5-.3.9-.8 1.2c-.6.2-1.4.4-2.4.4zm0-2.6c-.7 0-1.3.1-1.7.3c-.4.1-.6.4-.6.7c0 .3.2.5.6.7c.4.2 1 .2 1.7.2c.8 0 1.4 0 1.8-.2c.4-.2.6-.4.6-.7c0-.3-.2-.6-.6-.7c-.4-.2-1-.3-1.8-.3zm-4.1 3.2h8.3v.7h-8.3v-.7zm1.8 3.5v.9h5.7v.7h-6.5v-2.2h5.4v-.8h-5.4v-.7h6.2v2.1h-5.4zm16.1-7.4h.8v9.1h-.8v-9.1zm-1.4 5l-.8-.1c.1-.8.2-1.4.2-1.9c.1-.5.1-1 .1-1.3c-.03-.03-1.7 0-1.7 0v-.7h2.4s.03.58 0 .6v1.4c0 .5-.1 1.2-.2 2zm-3.3 0l-.8-.1c.2-.7.4-1.4.4-1.9c.1-.5.1-1 .1-1.3c-.02-.03-1.4 0-1.4 0v-.7h2.2s-.05.48 0 .5c0 .2-.1.4-.1.6v.8c0 .3-.1.6-.1 1c-.1.3-.2.7-.3 1.1zm1.6-1.3v2.7c.4-.1.8-.1 1.3-.1c.4-.1.8-.1 1.2-.2l.1.7c-.6 0-1.1.1-1.6.1c-.5.1-1 .1-1.6.2h-2.8l-.1-.7h2.7c.02-.01 0-2.7 0-2.7h.8zm11.4-.6v2.4h-.8v-5.4h.8v2.4h1.1v-2.5h.8v5.6h-.8v-2.5h-1.1zm-1.2-2.1v.7h-4.6v-.7h1.9v-1h.8v1h1.9zm-2.3 4.2c-.3 0-.5 0-.8-.1c-.2 0-.4-.1-.6-.3c-.2-.1-.3-.3-.4-.5c-.1-.2-.2-.4-.2-.6c0-.3.1-.5.2-.7c.1-.2.2-.3.4-.5l.6-.3c.3 0 .5-.1.8-.1c.3 0 .6.1.8.1l.6.3c.2.2.3.3.4.5c.1.2.2.4.2.7c0 .2-.1.4-.2.6c-.1.2-.2.4-.4.5c-.2.2-.4.3-.6.3c-.2.1-.5.1-.8.1zm0-2.5c-.4 0-.7.1-.9.3c-.2.2-.3.4-.3.7c0 .3.1.5.3.7c.2.1.5.2.9.2c.4 0 .7-.1.9-.2c.2-.2.3-.4.3-.7c0-.3-.1-.5-.3-.7c-.2-.2-.5-.3-.9-.3zm4.3 3.2s.02.29 0 .3c0 .2.1.4.1.7c.1.2.2.4.4.6c.2.2.4.3.6.5c.2.1.5.3.8.4l-.4.6c-.5-.2-.9-.4-1.2-.7c-.3-.3-.5-.6-.7-1c-.1.4-.3.7-.6 1c-.3.3-.6.6-1.1.8c-.4-.2-.8-.4-1-.7c-.3-.3-.5-.7-.7-1.1c-.1.4-.4.7-.7 1c-.3.3-.7.5-1.1.7l-.4-.6c.3-.1.5-.3.8-.4l.6-.6l.3-.6c.1-.2.1-.4.1-.6c.04-.01 0-.3 0-.3h.8s.05.29 0 .3c0 .4.2.8.4 1.1c.2.4.5.7.9 1c.2-.2.4-.3.6-.5c.1-.2.3-.3.4-.5c.1-.2.2-.4.2-.6c.1-.2.1-.3.1-.5v-.3h.8zm11.2-2.3v.6h-1.6v4.9h-.8v-9.2h.8v3.7h1.6zm-7.4-2.1s.03 4.61 0 4.6h2.2c.3-.1.7-.1 1-.1c.3-.1.6-.1.9-.2l.1.7c-.3.1-.6.1-1 .2c-.3 0-.7 0-1 .1h-2.3c.01.03-.7 0-.7 0v-6h4.2v.7h-3.4zm7.9 7v-1h.9v1h-.9z" stroke="none" fill="#111111"/></g><g id="Polygon99539"><path d="m7.6 58h1.4v.7H7.6v2.1h-.8v-4.7h.8v1.9zm-2.4-1.6v4H.9v-4h.8v1.3h2.6v-1.3h.9zm-.9 3.3v-1.3H1.7v1.3h2.6zm-1.6 3.7v1h5.3v.7H1.9v-2.3h4.9v-.9h-5v-.7h5.8v2.2H2.7zM18 60h-3.7v1.2h2.7v2.2h-5.4v1h5.6v.7h-6.5v-2.3h5.4v-.9h-5.4v-.7h2.7V60H9.7v-.7s6.22.04 6.2 0c.1-.5.2-.9.2-1.2v-1c.03-.03-5.3 0-5.3 0v-.7h6.2s-.05.58 0 .6c0 .3-.1.6-.1 1c0 .4 0 .8-.1 1.3c-.03.04 1.2 0 1.2 0v.7zm9.4-.2v.7h-1.5v4.7h-.8v-9.1h.8v3.7h1.5zM22 56.2v1.3h2.2v.7h-5.4v-.7h2.4v-1.3h.8zm-.4 2.7c.3 0 .6.1.9.2c.3.1.5.2.7.4c.2.2.3.4.5.7c.1.3.1.5.1.8c0 .4 0 .6-.1.9c-.2.3-.3.5-.5.7c-.2.2-.4.3-.7.4c-.3.1-.6.1-.9.1c-.3 0-.6 0-.9-.1c-.3-.1-.5-.2-.7-.4c-.2-.2-.4-.4-.5-.7c-.1-.3-.1-.5-.1-.9c0-.3 0-.5.1-.8c.1-.3.3-.5.5-.7c.2-.2.4-.3.7-.4c.3-.1.6-.2.9-.2zm0 3.6c.2 0 .4-.1.6-.2c.1 0 .3-.1.4-.2c.1-.2.2-.3.3-.5c.1-.2.1-.3.1-.6c0-.2 0-.3-.1-.5c-.1-.2-.2-.3-.3-.5c-.1-.1-.3-.2-.4-.3c-.2 0-.4-.1-.6-.1c-.2 0-.4.1-.6.1c-.2.1-.3.2-.4.3c-.2.2-.3.3-.3.5c-.1.2-.1.3-.1.5c0 .3 0 .4.1.6c0 .2.1.3.3.5c.1.1.2.2.4.2c.2.1.4.2.6.2zm13.8-3.7v.7h-6.2v-3.1h.8v2.4h5.4zm-7.3 1.9h8.3v.7h-8.3v-.7zm1.9 1.6v2h5.5v.7h-6.4v-2.7h.9zM46.3 56h.8v9.2h-.8V56zm-1.8 3.5v-3.2h.8v8.4h-.8v-4.5h-2v-.7h2zm-4-1.7v4.5h.9c.3 0 .5 0 .8-.1h.7c.2-.1.4-.1.7-.2l.1.7c-.3.1-.6.1-.8.2h-.8c-.2.1-.5.1-.8.1h-1.6v-5.8h3.4v.6h-2.6zm10.9 2.7l-.3-.7c.4 0 .8-.1 1.2-.3c.3-.1.7-.3 1-.6c.3-.2.5-.4.7-.7c.2-.3.3-.6.3-.9c-.03.04 0 0 0 0h-2.9v-.7h6.7v.7h-2.9s0 .04 0 0c0 .3.1.6.3.9c.2.3.4.5.7.7c.3.3.6.5 1 .6c.4.2.8.3 1.2.3l-.3.7l-1.1-.3c-.3-.1-.6-.3-.9-.4c-.3-.2-.6-.4-.8-.7c-.2-.2-.4-.4-.6-.7c-.1.3-.3.5-.5.7c-.2.3-.5.5-.8.7c-.3.1-.6.3-.9.4l-1.1.3zm7.5.8v.6h-3.8v3.3h-.8v-3.3h-3.7v-.6h8.3zm7.6-5.2h.8v5.6h-.8V60h-1.8v-.7h1.8v-1.2h-1.8v-.7h1.8v-1.3zm-1.9 4.3l.1.6c-.3.1-.6.1-.8.1c-.3.1-.6.1-.9.1h-1c-.3 0-.7.1-1.2.1c.02-.05-.6 0-.6 0v-2.8h3.1v-1.2h-3.2v-.7h4v2.6H61v1.4h1.1c.4 0 .7-.1.9-.1h.8c.3-.1.6-.1.8-.1zm-3.4 2.4v-.6h6.1v3h-.8v-2.4h-5.3zm13.5-3.6v2.4h-.8v-5.4h.8v2.4h1.2v-2.5h.8v5.6h-.8v-2.5h-1.2zm-1.1-2.1v.7h-4.7v-.7h1.9v-1h.9v1h1.9zm-2.4 4.2c-.2 0-.5 0-.7-.1c-.3 0-.5-.1-.7-.3c-.1-.1-.3-.3-.4-.5c-.1-.2-.1-.4-.1-.6c0-.3 0-.5.1-.7c.1-.2.3-.3.4-.5c.2-.1.4-.2.7-.3c.2 0 .5-.1.7-.1c.3 0 .6.1.8.1c.3.1.5.2.7.3c.1.2.3.3.4.5c0 .2.1.4.1.7c0 .2-.1.4-.1.6c-.1.2-.3.4-.4.5c-.2.2-.4.3-.7.3c-.2.1-.5.1-.8.1zm0-2.5c-.3 0-.6.1-.8.3c-.2.2-.4.4-.4.7c0 .3.2.5.4.7c.2.1.5.2.8.2c.4 0 .7-.1.9-.2c.2-.2.4-.4.4-.7c0-.3-.2-.5-.4-.7c-.2-.2-.5-.3-.9-.3zm4.4 3.2s-.04.29 0 .3c0 .2 0 .4.1.7l.3.6c.2.2.4.3.6.5c.3.1.5.3.8.4l-.4.6c-.5-.2-.8-.4-1.2-.7c-.3-.3-.5-.6-.7-1c-.1.4-.3.7-.6 1c-.2.3-.6.6-1 .8c-.5-.2-.8-.4-1.1-.7c-.3-.3-.5-.7-.6-1.1c-.2.4-.4.7-.7 1c-.3.3-.7.5-1.2.7l-.4-.6c.3-.1.6-.3.8-.4l.6-.6c.1-.2.3-.4.4-.6c0-.2.1-.4.1-.6c-.02-.01 0-.3 0-.3h.8v.3c0 .4.1.8.3 1.1c.2.4.5.7.9 1c.3-.2.5-.3.6-.5c.2-.2.3-.3.4-.5l.3-.6v-.5c.04-.01 0-.3 0-.3h.9zm11.1-2.3v.6h-1.5v4.9h-.9V56h.9v3.7h1.5zm-7.3-2.1s-.03 4.61 0 4.6h2.1c.4-.1.7-.1 1-.1c.3-.1.7-.1 1-.2l.1.7c-.4.1-.7.1-1 .2c-.4 0-.7 0-1.1.1h-2.2c-.05.03-.8 0-.8 0v-6h4.3v.7h-3.4zm7.8 7v-1h.9v1h-.9zm11.6-5.2v.6h-6.2v-3.7h6.2v.6h-5.3v.9h5.1v.6h-5.1v1h5.3zm-7.3 1.5h8.3v.6h-8.3v-.6zm1 2.2v-.7h6.2v2.8h-.8v-2.1h-5.4zm14.9-7.1h.8v9.2h-.8V56zm-3.3.1v1.4h2.3v.7h-5.5v-.7h2.4v-1.4h.8zm-.4 2.8c.3 0 .6.1.9.2c.3.1.5.2.7.4c.2.2.4.4.5.7c.1.3.1.5.1.8c0 .4 0 .6-.1.9c-.1.3-.3.5-.5.7c-.2.2-.4.3-.7.4c-.3.1-.6.1-.9.1c-.3 0-.6 0-.9-.1c-.3-.1-.5-.2-.7-.4c-.2-.2-.4-.4-.5-.7c-.1-.3-.2-.5-.2-.9c0-.3.1-.5.2-.8c.1-.3.3-.5.5-.7c.2-.2.4-.3.7-.4c.3-.1.6-.2.9-.2zm0 3.6c.2 0 .4-.1.6-.2c.1 0 .3-.1.4-.2c.2-.2.3-.3.3-.5c.1-.2.2-.4.2-.6c0-.2-.1-.4-.2-.5c0-.2-.1-.3-.3-.5c-.1-.1-.3-.2-.4-.3c-.2 0-.4-.1-.6-.1c-.2 0-.4.1-.6.1c-.2.1-.3.2-.5.3c-.1.2-.2.3-.3.5c0 .1-.1.3-.1.5c0 .2.1.4.1.6c.1.2.2.3.3.5c.2.1.3.2.5.2c.2.1.4.2.6.2zm13.7-1.9l-.4.6c-.5-.2-1-.4-1.4-.7c-.4-.4-.7-.7-.9-1.2c-.2.5-.5 1-.9 1.3c-.4.4-.8.7-1.4.8l-.4-.6c.3-.1.6-.3.9-.5c.3-.2.5-.4.7-.6c.2-.3.4-.5.5-.8c.1-.3.2-.6.2-.9c-.03-.01 0-.2 0-.2h-2.1v-.7h2.1V56h.8v1.1h2v.7h-2v.2c0 .3.1.5.2.8c.1.3.2.5.4.7c.3.3.5.5.8.6c.3.2.6.4.9.5zm-.5-2h1.8V56h.8v5.6h-.8v-2.3h-1.8v-.7zm-.4 3.2c.9 0 1.7.2 2.2.5c.6.3.9.7.9 1.2c0 .5-.3.9-.9 1.2c-.5.3-1.3.5-2.2.5c-.5 0-.9-.1-1.3-.1c-.3-.1-.7-.2-.9-.4c-.3-.1-.5-.3-.6-.5c-.2-.2-.2-.4-.2-.7c0-.3 0-.5.2-.7c.1-.2.3-.4.6-.5c.2-.2.6-.3.9-.4c.4 0 .8-.1 1.3-.1zm0 2.7c.7 0 1.2-.1 1.6-.2c.4-.2.6-.5.6-.8c0-.3-.2-.6-.6-.8c-.4-.1-.9-.2-1.6-.2c-.7 0-1.2.1-1.6.2c-.4.2-.6.5-.6.8c0 .3.2.6.6.8c.4.1.9.2 1.6.2zm11.4-1.7v-3.1h-2.6v-.7h2.6v-1.1h-2.6v-.7h2.6v-1.1h.8v6.7h-.8zm-1.6-2.4l.1.7c-.7.2-1.4.3-2 .3c-.7 0-1.3.1-2 .1c-.01-.03-.7 0-.7 0v-4.8h.8s.03 4.06 0 4.1c.7 0 1.3-.1 1.9-.1c.6-.1 1.3-.1 1.9-.3zm-2.6 3.9h5.2v.7h-6.1v-2.8h.9v2.1zm9.2-4.1v1h-1v-1h1zm3.4.3l-.4-.7c.4 0 .8-.1 1.2-.3c.4-.1.7-.3 1-.6c.3-.2.6-.4.7-.7c.2-.3.3-.6.3-.9c.02.04 0 0 0 0h-2.9v-.7h6.7v.7H140s.05.04 0 0c0 .3.1.6.3.9c.2.3.4.5.7.7c.3.3.7.5 1.1.6c.3.2.7.3 1.1.3l-.3.7l-1-.3c-.4-.1-.7-.3-1-.4c-.3-.2-.5-.4-.8-.7c-.2-.2-.4-.4-.5-.7c-.2.3-.3.5-.6.7c-.2.3-.5.5-.8.7c-.2.1-.6.3-.9.4l-1 .3zm7.4.8v.6H140v3.3h-.9v-3.3h-3.6v-.6h8.2zm8.4-5.2v6.5h-.8v-6.5h.8zm-2.7.7v4.3h-4.3v-4.3h4.3zm-.8 3.6v-2.9h-2.7v2.9h2.7zm-1.5 3.8h5.3v.7h-6.2V62h.9v2.2zm9.2-4v1h-.9v-1h.9zm8 .3l-.4.7c-.6-.2-1-.4-1.4-.7c-.4-.4-.7-.7-.9-1.2c-.2.5-.5.9-.9 1.3c-.4.4-.8.6-1.4.8l-.4-.6c.4-.1.7-.3.9-.5c.3-.2.6-.4.8-.6c.2-.3.3-.5.4-.8c.1-.3.2-.6.2-.9v-.2h-2v-.6h2V56h.8v1.2h2v.6h-2s.03.21 0 .2c0 .3.1.6.2.8c.1.3.2.5.4.7c.2.3.5.5.7.6c.3.2.6.3 1 .4zm1.7-2.1h1.4v.7H166v2.6h-.8V56h.8v2.4zm-2.9 3.5c.9 0 1.7.1 2.2.4c.5.3.8.7.8 1.2c0 .6-.3 1-.8 1.2c-.5.3-1.3.5-2.2.5c-1 0-1.7-.2-2.2-.5c-.6-.2-.8-.6-.8-1.2c0-.5.2-.9.8-1.2c.5-.3 1.2-.4 2.2-.4zm0 2.6c.7 0 1.2-.1 1.6-.2c.4-.2.6-.4.6-.8c0-.3-.2-.5-.6-.7c-.4-.2-.9-.3-1.6-.3c-.7 0-1.2.1-1.6.3c-.4.2-.6.4-.6.7c0 .4.2.6.6.8c.4.1.9.2 1.6.2zm11.7-8.4h.8v4.9h-.8v-2.1h-1.9c-.1.6-.3 1-.7 1.3c-.4.3-1 .5-1.6.5c-.4 0-.7 0-1-.2c-.2-.1-.5-.2-.7-.4c-.2-.2-.4-.4-.5-.7c-.1-.2-.2-.5-.2-.8c0-.3.1-.6.2-.9c.1-.2.3-.5.5-.6c.2-.2.5-.4.7-.5c.3-.1.6-.1 1-.1c.3 0 .6 0 .8.1c.3.1.5.2.7.4c.2.1.4.3.5.5c.2.2.3.5.3.7c.01.02 1.9 0 1.9 0v-2.1zm-4.2 3.9c.2 0 .4 0 .6-.1c.2-.1.4-.2.5-.3c.1-.1.2-.3.3-.4c.1-.2.1-.4.1-.6c0-.2 0-.4-.1-.6c-.1-.2-.2-.3-.3-.4c-.1-.2-.3-.3-.5-.3c-.2-.1-.4-.1-.6-.1c-.2 0-.4 0-.6.1c-.2 0-.4.1-.5.3c-.2.1-.3.2-.4.4c0 .2-.1.4-.1.6c0 .2.1.4.1.6c.1.1.2.3.4.4c.1.1.3.2.5.3c.2.1.4.1.6.1zm4.2 2.6v-1.2h.8v3.7h-5.8v-3.7h.8v1.2h4.2zm0 1.8v-1.2h-4.2v1.2h4.2zm11-4.6v.6h-1.5v4.8h-.8V56h.8v3.8h1.5zm-8-2.8s4.14.02 4.1 0c0 .7 0 1.3-.2 1.9c-.2.6-.4 1.2-.7 1.8c-.4.5-.8 1-1.3 1.5c-.5.5-1.2.9-1.9 1.3l-.5-.7c1.2-.6 2.1-1.3 2.7-2.2c.7-.8 1-1.8 1.1-2.9c.01.01-3.3 0-3.3 0v-.7zm15.1.6v-.7h-5.4v-.6h6.2v1.9h-5.4v.8h5.5v.6h-6.3v-2h5.4zm-6.5 2.7h8.3v.6h-8.3v-.6zm1.9 3.3v.9h5.7v.6h-6.5V63h5.4v-.7h-5.5v-.6h6.3v1.9h-5.4zm16.1-7.5h.8v9.1h-.8v-9.1zm-3.7 4.1c-.3 0-.6 0-.9-.1c-.3-.1-.6-.2-.8-.4c-.2-.2-.3-.3-.5-.6c-.1-.2-.1-.5-.1-.7c0-.3 0-.6.1-.8c.2-.2.3-.4.5-.6c.2-.2.5-.3.8-.4c.3-.1.6-.1.9-.1c.3 0 .7 0 .9.1c.3.1.6.2.8.4c.2.2.3.4.5.6c.1.2.1.5.1.8c0 .2 0 .5-.1.7c-.2.3-.3.4-.5.6c-.2.2-.5.3-.8.4c-.2.1-.6.1-.9.1zm0-3c-.4 0-.8.1-1.1.3c-.3.2-.4.5-.4.9c0 .3.1.6.4.8c.3.2.7.3 1.1.3c.5 0 .8-.1 1.1-.3c.3-.2.4-.5.4-.8c0-.4-.1-.7-.4-.9c-.3-.2-.6-.3-1.1-.3zm3 3.5l.1.6c-.9.2-1.8.3-2.6.3c-.04.01 0 3.3 0 3.3h-.9s.03-3.24 0-3.2h-2.5l-.1-.7h2.9c.5-.1 1-.1 1.6-.1c.5-.1 1-.1 1.5-.2zm8.6-3.5v.6h-5.4v-.6h2.3v-1.1h.8v1.1h2.3zm1.7 1.9h1.3v.7H214v3.1h-.9v-6.8h.9v3zm-2.2.9c0 .3-.1.5-.2.7c-.1.3-.2.4-.4.6c-.2.1-.4.2-.7.3c-.3.1-.6.1-.9.1c-.3 0-.6 0-.9-.1c-.2-.1-.5-.2-.7-.3c-.2-.2-.3-.3-.4-.6c-.1-.2-.2-.4-.2-.7c0-.2.1-.5.2-.7c.1-.2.2-.3.4-.5c.2-.1.5-.3.7-.3c.3-.1.6-.2.9-.2c.3 0 .6.1.9.2c.3 0 .5.2.7.3c.2.2.3.3.4.5c.1.2.2.5.2.7zm-3.6 0c0 .4.1.6.4.8c.2.2.6.3 1 .3c.4 0 .8-.1 1-.3c.3-.2.4-.4.4-.8c0-.3-.1-.5-.4-.7c-.2-.2-.6-.3-1-.3c-.4 0-.8.1-1 .3c-.3.2-.4.4-.4.7zm.9 2.4v1.9h5.3v.7h-6.1v-2.6h.8zm13.6-1.6h3.7v.6h-8.3v-.6h3.8v-1.1h-2.7v-3.4h.9v1h4.4v-1h.8v3.4h-2.6v1.1zm-2.6-2.9v1.1h4.4v-1.1h-4.4zm-1 5.1v-.7h6.3v2.9h-.8V63h-5.5zm13.7-6v.7h-5.4v-.7h2.2v-1.1h.9v1.1h2.3zm3 1.4v.7h-1.4v2.3h-.8V56h.8v2.4h1.4zm-3.6 1.3c0 .2 0 .4-.1.6c-.1.2-.3.4-.5.5c-.2.2-.4.3-.7.4c-.2 0-.5.1-.9.1c-.3 0-.6-.1-.8-.1c-.3-.1-.5-.2-.7-.4c-.2-.1-.4-.3-.5-.5c-.1-.2-.1-.4-.1-.6c0-.3 0-.5.1-.7c.1-.2.3-.3.5-.5c.2-.1.4-.2.7-.3c.2-.1.5-.1.8-.1c.4 0 .7 0 .9.1c.3.1.5.2.7.3c.2.2.4.3.5.5c.1.2.1.4.1.7zm-3.5 0c0 .3.1.5.3.7c.3.2.6.3 1 .3c.5 0 .8-.1 1.1-.3c.2-.2.3-.4.3-.7c0-.3-.1-.6-.3-.7c-.3-.2-.6-.3-1.1-.3c-.4 0-.7.1-1 .3c-.2.1-.3.4-.3.7zm4.9 3v-.9h.8v3.3h-5.7v-3.3h.8v.9h4.1zm0 1.7v-1h-4.1v1h4.1zm10.1-7.9v3.2h-6.1v-3.2h6.1zm-.8 2.5v-1.9h-4.5v1.9h4.5zm-6.4 1.7h8.3v.7h-3.7v1.8h-.8v-1.8h-3.8v-.7zm1.9 1.7v1.9h5.5v.7h-6.4v-2.6h.9zm15.8-2.5v.7h-1.5v4.6h-.8V56h.8v3.9h1.5zm-3-2.7v.6h-5.5v-.6h2.4v-1.1h.8v1.1h2.3zm-2.3 4.5v1c.4 0 .8-.1 1.2-.1c.5 0 .9-.1 1.3-.1v.6c-.5.1-1 .1-1.5.2c-.5 0-1 .1-1.5.1c-.5 0-.9 0-1.4.1h-1.3l-.1-.7c.4 0 .7 0 1.2-.1h1.3v-1c-.6 0-1-.2-1.3-.5c-.3-.3-.5-.7-.5-1.2c0-.2.1-.4.2-.6c.1-.3.2-.4.4-.6c.2-.1.4-.2.7-.3c.3-.1.6-.1.9-.1c.3 0 .6 0 .9.1c.2.1.5.2.6.3c.2.2.4.3.5.6c.1.2.1.4.1.6c0 .5-.1.9-.4 1.2c-.3.3-.8.5-1.3.5zm-1.8-1.7c0 .4.1.6.4.8c.2.2.6.3 1 .3c.4 0 .7-.1 1-.3c.2-.2.3-.4.3-.8c0-.3-.1-.5-.3-.7c-.3-.2-.6-.3-1-.3c-.4 0-.8.1-1 .3c-.3.2-.4.4-.4.7zm14.2-2.7c-.04-.02 0-.1 0-.1h-5.4v-.7h6.2v1.9c-.1.4-.1.8-.3 1.3l-.8-.1c.1-.5.2-.9.2-1.2c.1-.4.1-.8.1-1.1zm-2.2 3h4v.7h-8.2v-.7h3.4v-1.8h.8v1.8zm-.1 1.5c.5 0 .9.1 1.3.1c.4.1.7.2 1 .4c.3.1.5.3.6.5c.2.2.3.4.3.7c0 .3-.1.5-.3.7c-.1.2-.3.4-.6.5c-.3.2-.6.3-1 .4c-.4 0-.8.1-1.3.1c-.5 0-1-.1-1.4-.1c-.3-.1-.7-.2-1-.4c-.2-.1-.4-.3-.6-.5c-.1-.2-.2-.4-.2-.7c0-.3.1-.5.2-.7c.2-.2.4-.4.6-.5c.3-.2.7-.3 1-.4c.4 0 .9-.1 1.4-.1zm0 2.7c.7 0 1.3-.1 1.7-.2c.4-.2.6-.5.6-.8c0-.3-.2-.6-.6-.8c-.4-.1-1-.2-1.7-.2c-.7 0-1.3.1-1.7.2c-.5.2-.7.5-.7.8c0 .3.2.6.7.8c.4.1 1 .2 1.7.2zm12.1-5.7h1.4v.7h-1.4v3.2h-.8v-6.6h.8v2.7zm-6.7-2s4.3-.05 4.3 0c0 .5-.1 1.1-.3 1.6c-.2.5-.5 1-.9 1.4c-.3.4-.8.8-1.3 1.1c-.5.3-1.1.6-1.8.8l-.3-.7c.5-.2 1-.4 1.4-.6c.5-.2.8-.5 1.2-.8c.3-.3.6-.7.7-1c.2-.4.4-.8.4-1.2c0 .04-3.4 0-3.4 0v-.6zm1.9 5.2v2.3h5.2v.7h-6.1v-3h.9zm14.4-5.9v6.6h-.8v-6.6h.8zm-2.5 2.8c0 .4 0 .7-.2.9c-.1.3-.3.6-.5.8c-.2.2-.4.3-.7.4c-.3.1-.6.2-1 .2c-.3 0-.6-.1-.9-.2c-.3-.1-.6-.2-.8-.4c-.2-.2-.4-.5-.5-.8c-.1-.2-.2-.5-.2-.9c0-.3.1-.6.2-.9c.1-.3.3-.5.5-.7c.2-.2.5-.3.8-.5c.3-.1.6-.1.9-.1c.4 0 .7 0 1 .1c.3.2.5.3.7.5c.2.2.4.4.5.7c.2.3.2.6.2.9zm-3.9 0c0 .3 0 .5.1.6c.1.2.2.4.3.5c.1.2.3.3.5.4c.2 0 .4.1.6.1c.2 0 .5-.1.6-.1c.2-.1.4-.2.5-.4c.2-.1.3-.3.4-.5c.1-.1.1-.3.1-.6c0-.2 0-.4-.1-.6c-.1-.2-.2-.3-.4-.5c-.1-.1-.3-.2-.5-.3c-.1-.1-.4-.1-.6-.1c-.2 0-.4 0-.6.1c-.2.1-.4.2-.5.3c-.1.2-.2.3-.3.5c-.1.2-.1.4-.1.6zm1.4 5.4h5.3v.7h-6.2v-3h.9v2.3zm12.1.3c-.5 0-.9-.1-1.3-.3c-.4-.2-.7-.4-1-.8c-.3-.3-.5-.7-.7-1.2c-.2-.5-.3-1-.3-1.6c0-.6.1-1.1.3-1.6c.2-.5.4-.9.7-1.2c.3-.4.6-.6 1-.8c.4-.2.9-.3 1.4-.3c.4 0 .8.1 1.2.3c.3.2.6.4.8.6l-.5.7c-.2-.3-.4-.4-.7-.6c-.2-.1-.5-.2-.8-.2c-.4 0-.7.1-1 .3c-.3.1-.5.3-.7.6c-.3.2-.4.5-.5.9c-.1.4-.2.8-.2 1.3c0 .4.1.9.2 1.2c.1.4.2.8.4 1c.2.3.5.5.8.6c.3.2.6.2.9.2c.4 0 .7 0 1-.2c.3-.1.5-.3.8-.6l.5.6c-.3.3-.7.6-1 .8c-.4.2-.8.3-1.3.3zm6.3 0c-.5 0-.9-.1-1.3-.3c-.4-.2-.7-.4-1-.8c-.3-.3-.5-.7-.7-1.2c-.2-.5-.3-1-.3-1.6c0-.6.1-1.1.3-1.6c.2-.5.4-.9.7-1.2c.3-.4.6-.6 1-.8c.4-.2.9-.3 1.4-.3c.4 0 .8.1 1.2.3c.3.2.6.4.8.6l-.5.7c-.2-.3-.4-.4-.7-.6c-.2-.1-.5-.2-.8-.2c-.4 0-.7.1-1 .3c-.3.1-.5.3-.7.6c-.2.2-.4.5-.5.9c-.1.4-.2.8-.2 1.3c0 .4.1.9.2 1.2c.1.4.2.8.4 1c.2.3.5.5.8.6c.3.2.6.2.9.2c.4 0 .7 0 1-.2c.3-.1.5-.3.8-.6l.5.6c-.3.3-.7.6-1 .8c-.4.2-.8.3-1.3.3zm6.3 0c-.5 0-.9-.1-1.3-.3c-.4-.2-.7-.4-1-.8c-.3-.3-.5-.7-.7-1.2c-.2-.5-.3-1-.3-1.6c0-.6.1-1.1.3-1.6c.2-.5.4-.9.7-1.2c.3-.4.6-.6 1-.8c.4-.2.9-.3 1.4-.3c.4 0 .8.1 1.2.3c.3.2.6.4.8.6l-.5.7c-.2-.3-.4-.4-.7-.6c-.2-.1-.5-.2-.8-.2c-.4 0-.7.1-1 .3c-.3.1-.5.3-.7.6c-.2.2-.4.5-.5.9c-.1.4-.2.8-.2 1.3c0 .4.1.9.2 1.2c.1.4.2.8.4 1c.2.3.5.5.8.6c.3.2.6.2.9.2c.4 0 .7 0 1-.2c.3-.1.5-.3.8-.6l.5.6c-.3.3-.6.6-1 .8c-.4.2-.8.3-1.3.3zm11.5-4.9v.7h-1.5v4.8h-.8V56h.8v3.7h1.5zm-7.3.5v2.1h1.2c.3 0 .7 0 1-.1c.3 0 .7 0 1-.1c.3 0 .7-.1 1-.1l.1.7c-.4 0-.7.1-1.1.1c-.3.1-.6.1-1 .1c-.3 0-.7.1-1.1.1h-1.9v-3.5h3.3v-1.9h-3.4v-.7h4.2v3.3h-3.3zm12.1-.3c-.5 0-.9 0-1.3-.1c-.4-.1-.7-.2-1-.3c-.3-.2-.5-.4-.7-.6c-.1-.2-.2-.5-.2-.8c0-.3.1-.5.2-.8c.2-.2.4-.4.7-.5c.3-.2.6-.3 1-.4c.4-.1.8-.1 1.3-.1c.5 0 .9 0 1.3.1c.4.1.8.2 1 .4c.3.1.5.3.7.5c.1.3.2.5.2.8c0 .3-.1.6-.2.8c-.2.2-.4.4-.7.6c-.2.1-.6.2-1 .3c-.4.1-.8.1-1.3.1zm0-3c-.3 0-.7.1-.9.1c-.3.1-.6.2-.8.3c-.2.1-.3.2-.4.3c-.2.2-.2.3-.2.5c0 .2 0 .3.2.5c.1.1.2.3.4.4c.2.1.5.1.8.2c.2 0 .6.1.9.1c.7 0 1.3-.1 1.7-.3c.4-.3.6-.5.6-.9c0-.4-.2-.6-.6-.8c-.4-.2-1-.4-1.7-.4zm-4.1 3.8h8.3v.7h-3.7v1.8h-.8v-1.8h-3.8v-.7zm1.9 1.6v2h5.5v.7h-6.4v-2.7h.9zm13.9-6.2h.8v9.1h-.8v-9.1zm-3.4 1.6s.02 1.14 0 1.1c0 .4.1.8.2 1.2c.1.4.3.7.5 1.1c.3.3.5.6.8.8c.3.3.6.5 1 .6l-.5.7c-.5-.2-1-.6-1.4-1.1c-.5-.5-.8-1.1-1-1.7c-.1.3-.2.7-.4 1c-.2.3-.3.6-.5.8c-.2.3-.5.5-.7.7c-.2.2-.5.4-.8.5l-.4-.6c.3-.2.6-.4.9-.7c.3-.3.5-.6.8-.9c.2-.4.4-.8.5-1.2c.1-.4.2-.8.2-1.2c-.02.04 0-1.1 0-1.1h-2.1v-.7h5.1v.7H325zm12.3-.1v-.7H332v-.6h6.2v1.9h-5.4v.8h5.5v.6H332v-2h5.3zm-6.4 2.7h8.3v.6h-8.3v-.6zm1.9 3.3v.9h5.7v.6h-6.6V63h5.5v-.7h-5.5v-.6h6.3v1.9h-5.4zm10.2-2.2l-.4-.6c.4-.1.8-.2 1.2-.4c.4-.2.7-.4 1-.7c.4-.3.6-.6.8-.9c.2-.3.3-.7.3-1v-.2h-3v-.7h6.9v.7h-3s-.02.15 0 .2c0 .3.1.7.3 1c.2.3.4.6.7.9c.4.3.7.5 1.1.7c.4.1.8.3 1.2.3l-.3.7l-1.1-.3c-.3-.2-.6-.3-.9-.6c-.3-.2-.6-.4-.9-.7c-.2-.2-.4-.5-.6-.8c-.1.3-.3.6-.5.9c-.3.2-.6.5-.9.7c-.3.2-.6.4-.9.5c-.4.2-.7.3-1 .3zm3.8 1.9h3.7v.7h-8.3v-.7h3.7v-2.2h.9v2.2zm11.3-1.8v-2.8h-2v-.7h2v-1.9h.8v5.4h-.8zm-1.4-1.1l-.4.6c-.5-.2-1-.4-1.3-.8c-.4-.3-.7-.7-.9-1.2c-.2.5-.5 1-.9 1.4c-.4.4-.8.7-1.4.9l-.4-.7c.3-.1.6-.3.9-.5c.3-.2.6-.4.8-.7c.2-.3.3-.6.4-.9c.1-.3.2-.7.2-1c-.02 0 0-.9 0-.9h.8s.02.87 0 .9c0 .3.1.6.2.9c.1.3.2.6.4.8c.2.3.5.5.7.7c.3.2.6.4.9.5zm-.8 1.3c.5 0 .9.1 1.3.1c.3.1.7.2.9.4c.3.1.5.3.6.5c.2.2.2.5.2.8c0 .2 0 .5-.2.7c-.1.2-.3.4-.6.5c-.2.2-.6.3-.9.4c-.4 0-.8.1-1.3.1c-.5 0-.9-.1-1.3-.1c-.4-.1-.7-.2-.9-.4c-.3-.1-.5-.3-.6-.5c-.2-.2-.3-.5-.3-.7c0-.3.1-.6.3-.8c.1-.2.3-.4.6-.5c.2-.2.5-.3.9-.4c.4 0 .8-.1 1.3-.1zm0 2.8c.7 0 1.2-.1 1.6-.3c.4-.2.6-.4.6-.7c0-.4-.2-.7-.6-.8c-.4-.2-.9-.3-1.6-.3c-.7 0-1.2.1-1.6.3c-.4.1-.6.4-.6.8c0 .3.2.5.6.7c.4.2.9.3 1.6.3zm11.6-8.5h.8v9.2h-.8v-4.6h-1.2v4.1h-.8v-8.5h.8v3.7h1.2V56zm-4.3.3v1.3h1.9v.7h-4.6v-.7h1.9v-1.3h.8zm-.4 2.6c.3 0 .6 0 .8.1c.2.2.5.3.6.5c.2.2.3.4.4.6c.1.3.2.6.2.9c0 .3-.1.6-.2.8c-.1.3-.2.5-.4.7c-.1.2-.4.3-.6.4c-.2.1-.5.2-.8.2c-.3 0-.5-.1-.8-.2c-.2-.1-.4-.2-.6-.4c-.2-.2-.3-.4-.4-.7c-.1-.2-.1-.5-.1-.8c0-.3 0-.6.1-.9c.1-.2.2-.4.4-.6c.2-.2.4-.3.6-.5c.3-.1.5-.1.8-.1zm0 3.5c.4 0 .7-.2.9-.4c.2-.3.3-.6.3-1c0-.2 0-.4-.1-.6c0-.1-.1-.3-.2-.4c-.1-.1-.2-.2-.4-.3c-.1-.1-.3-.1-.5-.1c-.3 0-.6.1-.9.4c-.2.2-.3.6-.3 1c0 .4.1.7.4 1c.2.2.5.4.8.4zm16.1-4h1.4v.7h-1.4v2.4h-.8V56h.8v2.4zm-6.7-1.7s4.25.02 4.2 0c0 .6 0 1.1-.2 1.6c-.2.5-.5 1-.9 1.4c-.4.4-.8.8-1.3 1.1c-.6.3-1.2.5-1.8.7l-.4-.6c1.1-.4 2-.8 2.6-1.4c.7-.6 1.1-1.3 1.1-2.1h-3.3v-.7zm3.9 4.9c.4 0 .8.1 1.2.2c.3 0 .7.2.9.3c.3.2.5.3.6.6c.2.2.2.4.2.7c0 .3 0 .5-.2.7c-.1.3-.3.5-.6.6c-.2.2-.6.3-.9.4c-.4 0-.8.1-1.2.1c-.5 0-.9-.1-1.3-.1c-.3-.1-.7-.2-.9-.4c-.3-.1-.5-.3-.6-.6c-.2-.2-.2-.4-.2-.7c0-.3 0-.5.2-.7c.1-.3.3-.4.6-.6c.2-.1.6-.3.9-.3c.4-.1.8-.2 1.3-.2zm0 2.9c.6 0 1.1-.1 1.5-.3c.4-.2.6-.4.6-.8c0-.3-.2-.6-.6-.8c-.4-.2-.9-.3-1.5-.3c-.7 0-1.2.1-1.6.3c-.4.2-.6.5-.6.8c0 .4.2.6.6.8c.4.2.9.3 1.6.3zm11.3-6.6v-.9H382v-.7h6.2v2.2h-5.3v.9h5.5v.7h-6.3v-2.2h5.3zm-6.4 3h8.3v.6H381v-.6zm4.1 1.3c1.1 0 1.8.2 2.4.4c.5.3.8.6.8 1.1c0 .5-.3.9-.8 1.1c-.6.3-1.3.4-2.4.4c-1 0-1.8-.1-2.3-.4c-.6-.2-.8-.6-.8-1.1c0-.5.2-.8.8-1.1c.5-.2 1.3-.4 2.3-.4zm0 2.4c.8 0 1.3-.1 1.7-.3c.4-.1.6-.3.6-.6c0-.3-.2-.5-.6-.6c-.4-.2-.9-.2-1.7-.2c-.7 0-1.3 0-1.7.2c-.4.1-.6.3-.6.6c0 .3.2.5.6.6c.4.2 1 .3 1.7.3z" stroke="none" fill="#111111"/></g><g id="Polygon99538"><path d="m2.6 45.1h3v.8H.5v-.6s2.62-2.5 2.6-2.5l.6-.6c.1-.2.3-.4.4-.6c.1-.1.2-.3.3-.5c0-.2.1-.4.1-.7c0-.4-.2-.7-.4-.9c-.3-.3-.6-.4-1-.4c-.2 0-.4.1-.6.1c-.2.1-.3.2-.5.3c-.1.2-.2.3-.3.5c-.1.2-.1.4-.1.6l-.9-.2c0-.3.1-.6.3-.9c.1-.2.3-.4.5-.6c.2-.2.5-.3.8-.4c.2-.1.5-.2.9-.2c.3 0 .6.1.8.2c.3.1.6.2.8.4c.2.2.3.4.4.6c.2.3.2.6.2.9c0 .3 0 .6-.1.8c-.1.2-.2.5-.3.7c-.2.2-.4.4-.5.6c-.2.2-.4.5-.6.7l-2.1 2c.1 0 .3 0 .4-.1h.4zm9.1-2.9c0 .7-.1 1.2-.2 1.7c-.2.5-.4.9-.6 1.2c-.3.4-.6.6-.9.7c-.3.2-.7.3-1.1.3c-.4 0-.7-.1-1-.3c-.4-.1-.7-.3-.9-.7c-.3-.3-.5-.7-.6-1.2c-.1-.5-.2-1-.2-1.7c0-.7.1-1.2.2-1.7c.1-.5.3-.9.6-1.2c.2-.3.5-.6.9-.7c.3-.2.6-.3 1-.3c.4 0 .8.1 1.1.3c.3.1.6.4.9.7c.2.3.4.7.6 1.2c.1.5.2 1 .2 1.7zm-1 0c0-.6 0-1.1-.1-1.5c-.1-.4-.2-.7-.4-.9c-.2-.3-.4-.4-.6-.5c-.2-.1-.4-.2-.7-.2c-.2 0-.4.1-.6.2c-.3.1-.5.2-.6.5c-.2.2-.3.5-.4.9c-.1.4-.2.9-.2 1.5c0 .6.1 1.1.2 1.5c.1.4.2.7.4.9c.1.3.3.5.6.6c.2.1.4.1.6.1c.3 0 .5 0 .7-.1c.2-.1.4-.3.6-.6c.2-.2.3-.5.4-.9c.1-.4.1-.9.1-1.5zm3.7 2.9h2.9v.8h-5v-.6s2.57-2.5 2.6-2.5c.2-.2.4-.4.5-.6c.2-.2.3-.4.4-.6c.2-.1.3-.3.3-.5c.1-.2.1-.4.1-.7c0-.4-.1-.7-.4-.9c-.2-.3-.6-.4-.9-.4c-.3 0-.5.1-.6.1c-.2.1-.4.2-.5.3c-.1.2-.3.3-.3.5c-.1.2-.1.4-.1.6l-1-.2l.3-.9l.6-.6c.2-.2.4-.3.7-.4c.3-.1.6-.2.9-.2c.3 0 .6.1.9.2c.3.1.5.2.7.4c.2.2.4.4.5.6c.1.3.2.6.2.9c0 .3-.1.6-.2.8c0 .2-.1.5-.3.7c-.1.2-.3.4-.5.6c-.2.2-.4.5-.6.7l-2.1 2c.2 0 .3 0 .4-.1h.5zm7.1.1h1.5v.7h-4v-.7h1.6v-5.7c.02.04-1.3 1.3-1.3 1.3l-.5-.6l2-1.8h.7v6.8zm9.2-.9v-3.1h-2.5v-.7h2.5v-1.1h-2.5v-.7h2.5v-1.1h.9v6.7h-.9zm-1.5-2.4l.1.7c-.7.2-1.4.3-2.1.3c-.6 0-1.3.1-1.9.1c-.03-.03-.7 0-.7 0v-4.8h.8v4.1c.6 0 1.3-.1 1.9-.1c.6-.1 1.2-.1 1.9-.3zm-2.6 3.9h5.2v.7h-6.1v-2.8h.9v2.1zm13.6-8.3h.8v9.2h-.8v-9.2zm-1.8 3.6v-3.4h.8v8.5h-.8v-4.4s-1.17-.02-1.2 0c0 .4-.1.8-.1 1.2c-.1.3-.3.7-.4.9c-.2.3-.4.4-.6.6c-.3.1-.5.2-.8.2c-.3 0-.6-.1-.8-.2c-.3-.2-.5-.4-.6-.7c-.2-.3-.3-.6-.4-1c-.1-.4-.2-.8-.2-1.3c0-.5.1-1 .2-1.3c.1-.4.2-.8.4-1c.1-.3.3-.5.6-.7c.2-.1.5-.2.8-.2c.3 0 .5.1.7.2c.3.1.5.3.6.6c.2.2.3.5.4.8c.1.4.2.8.2 1.2h1.2zm-3.1 2.8c.4 0 .6-.2.9-.6c.2-.5.3-1.1.3-1.8c0-.4-.1-.7-.1-1c-.1-.3-.1-.6-.3-.8c-.1-.2-.2-.3-.3-.5c-.2-.1-.3-.1-.5-.1c-.4 0-.7.2-.9.6c-.2.5-.3 1-.3 1.8c0 .7.1 1.3.3 1.8c.2.4.5.6.9.6zm14.4-3.6v.7h-6.2v-3.1h.8v2.4h5.4zm-7.3 1.9h8.3v.7h-8.3v-.7zm1.9 1.6v2h5.5v.7h-6.3v-2.7h.8zm14.1-3.4h2v-2.8h.8v6.7h-.8V41h-2v-.6zm-4.1-2.1s4.11-.05 4.1 0c0 .5-.1 1.1-.3 1.6c-.2.5-.5 1-.8 1.4c-.4.4-.9.8-1.4 1.1c-.5.4-1.1.6-1.7.9l-.4-.7c.5-.2 1-.4 1.4-.6c.5-.3.9-.6 1.2-.9c.3-.3.6-.6.8-1c.1-.4.3-.8.3-1.2c.02.04-3.2 0-3.2 0v-.6zm2 7.5h5.1v.7h-6v-2.9h.9v2.2zm13.7-8v2.8h-6.1v-2.8h6.1zm-.8 2.2v-1.5h-4.5v1.5h4.5zm1.9 2.1h-3.7v.9h2.7v2h-5.4v.9h5.6v.7h-6.4v-2.2h5.3v-.8h-5.4v-.6h2.8v-.9h-3.8v-.7h8.3v.7zm9.6-4.6h.9v9.2h-.9v-9.2zm-3.2 4.9v1.6c.4-.1.9-.1 1.3-.1c.5-.1.9-.1 1.3-.2l.1.6c-.5.1-1 .2-1.6.2c-.5.1-1 .1-1.5.2h-2.8l-.1-.7h2.4v-1.6c-.3 0-.5-.1-.8-.2c-.2-.2-.4-.3-.6-.5c-.2-.2-.3-.4-.4-.6c-.1-.3-.2-.5-.2-.8c0-.3.1-.6.2-.9c.1-.3.3-.5.5-.7c.2-.2.5-.3.8-.4c.3-.1.6-.2 1-.2c.3 0 .7.1.9.2c.3.1.6.2.8.4c.2.2.4.4.5.7c.2.3.2.6.2.9c0 .3 0 .5-.1.8c-.1.2-.3.4-.4.6c-.2.2-.4.4-.7.5c-.2.1-.5.2-.8.2zm-2.1-2.1c0 .2.1.4.2.6c0 .1.2.3.3.4c.1.1.3.2.5.3c.2.1.4.1.7.1c.2 0 .4 0 .6-.1c.2-.1.4-.2.5-.3c.2-.1.3-.3.4-.4c.1-.2.1-.4.1-.6c0-.2 0-.4-.1-.6c-.1-.2-.2-.3-.4-.5c-.1-.1-.3-.2-.5-.3c-.2 0-.4-.1-.6-.1c-.3 0-.5.1-.7.1c-.2.1-.4.2-.5.3c-.1.2-.3.3-.3.5c-.1.2-.2.4-.2.6zm15 .2h1.3v.7h-1.3v3.2h-.8v-6.9h.8v3zm-2.3.9h-.8c.1-.6.1-1 .2-1.4v-1.1c.01.04-3.7 0-3.7 0v-.6h4.5s.02.43 0 .4v1.2c0 .4-.1.9-.2 1.5zm.9.6v.6c-.5.1-.9.2-1.4.2c-.5.1-1 .1-1.5.1c-.5 0-1 .1-1.5.1h-1.3l-.1-.7h2c-.04-.03 0-2 0-2h.8v1.9h1.5c.5-.1 1-.1 1.5-.2zm-3.5 1.8v2h5.2v.7h-6.1v-2.7h.9zm11.1-2.9c-1 0-1.8-.2-2.4-.4c-.5-.3-.8-.7-.8-1.2c0-.5.3-.9.8-1.2c.6-.3 1.4-.4 2.4-.4c1 0 1.8.1 2.4.4c.5.3.8.7.8 1.2c0 .5-.3.9-.8 1.2c-.6.2-1.4.4-2.4.4zm0-2.6c-.8 0-1.4.1-1.8.3c-.4.1-.6.4-.6.7c0 .3.2.5.6.7c.4.2 1 .2 1.8.2c.8 0 1.3 0 1.7-.2c.4-.2.6-.4.6-.7c0-.3-.2-.6-.6-.7c-.4-.2-.9-.3-1.7-.3zm-4.1 3.2h8.2v.7h-8.2v-.7zm1.8 3.5v.9h5.6v.7h-6.4v-2.2h5.3v-.8h-5.3v-.7h6.2v2.1h-5.4zm14.3-5.1h1.8v-2.3h.9v5.4h-.9v-2.4h-1.8v-.7zm.5 2.1l-.4.7c-.5-.2-1-.5-1.3-.9c-.4-.3-.7-.7-.9-1.2c-.2.5-.5 1-.9 1.4c-.4.4-.9.7-1.4.9l-.4-.6c.3-.2.6-.3.9-.5c.3-.3.5-.5.7-.8c.2-.2.4-.5.5-.8c.1-.4.2-.7.2-1c-.04 0 0-.3 0-.3H104v-.7h4.9v.7h-2v.3c0 .3 0 .6.2.9c.1.3.2.5.4.8c.2.2.4.4.7.6c.3.2.6.4.9.5zm-.9 1.3c.5 0 .9 0 1.3.1c.4.1.7.2 1 .3l.6.6c.1.2.2.4.2.7c0 .3-.1.5-.2.7c-.2.2-.4.4-.6.5c-.3.2-.6.3-1 .4c-.4.1-.8.1-1.3.1c-.4 0-.9 0-1.2-.1c-.4-.1-.7-.2-1-.4c-.2-.1-.5-.3-.6-.5c-.1-.2-.2-.4-.2-.7c0-.3.1-.5.2-.7c.1-.2.4-.4.6-.6c.3-.1.6-.2 1-.3c.3-.1.8-.1 1.2-.1zm0 2.7c.7 0 1.3-.1 1.7-.2c.4-.2.6-.5.6-.8c0-.3-.2-.6-.6-.8c-.4-.2-1-.3-1.7-.3c-.7 0-1.2.1-1.6.3c-.4.2-.6.5-.6.8c0 .3.2.6.6.8c.4.1.9.2 1.6.2zm11.4-8.5h.8v9.2h-.8v-9.2zm-6.2.8h.8v2.4h2.7v-2.4h.8v6.2h-4.3v-6.2zm.8 3.1v2.4h2.7v-2.4h-2.7zm16.4-.1v.7h-1.5v4.7h-.8v-9.1h.8v3.7h1.5zm-5.4-3.6v1.3h2.2v.7H122v-.7h2.3v-1.3h.9zm-.4 2.7c.3 0 .6.1.9.2c.2.1.5.2.7.4c.2.2.3.4.4.7c.1.3.2.5.2.8c0 .4-.1.6-.2.9c-.1.3-.2.5-.4.7c-.2.2-.5.3-.7.4c-.3.1-.6.1-.9.1c-.4 0-.6 0-.9-.1c-.3-.1-.5-.2-.7-.4c-.2-.2-.4-.4-.5-.7c-.1-.3-.1-.5-.1-.9c0-.3 0-.5.1-.8c.1-.3.3-.5.5-.7c.2-.2.4-.3.7-.4c.3-.1.5-.2.9-.2zm0 3.6c.2 0 .4-.1.5-.2c.2 0 .4-.1.5-.2c.1-.2.2-.3.3-.5c.1-.2.1-.3.1-.6c0-.2 0-.3-.1-.5c-.1-.2-.2-.3-.3-.5c-.1-.1-.3-.2-.5-.3c-.1 0-.3-.1-.5-.1c-.2 0-.4.1-.6.1c-.2.1-.3.2-.5.3c-.1.2-.2.3-.3.5c0 .2-.1.3-.1.5c0 .3.1.4.1.6c.1.2.2.3.3.5c.2.1.3.2.5.2c.2.1.4.2.6.2zm12.9-4.6c.02-.03 0-.3 0-.3h-5.6v-.6h6.5s-.04.87 0 .9v.8c-.1.4-.1.7-.1 1c0 .4 0 .7-.1 1.1c0 .4-.1.8-.2 1.3l-.8-.1c.1-.9.3-1.6.3-2.3v-1.8zm-2.4 5.3h4.2v.7h-8.2v-.7h3.2v-3.3h.8v3.3zm9.4-3.5v-2.5h-1.4v-.6h6.7v.6h-1.4v2.5h1.4v.7h-6.7v-.7h1.4zm3.1 0v-2.5h-2.3v2.5h2.3zm3 1.8v.7h-3.7v3h-.9v-3h-3.7v-.7h8.3zm8.2-1.1v.7h-6.2v-4.2h6.1v.7h-5.3v2.8h5.4zm-7.3 2.9h8.3v.7h-8.3v-.7zm17-6.6v.6h-7.4v-.6h3.3v-.8h.8v.8h3.3zm-3.3 4h3.7v.6h-8.2v-.6h3.7v-.7c-1.7 0-2.5-.4-2.5-1.2c0-.7 1-1.1 2.9-1.1c2 0 3 .4 3 1.1c0 .4-.2.7-.7.9c-.4.2-1 .3-1.9.3c.04.03 0 .7 0 .7zm-.4-2.5c-1.4 0-2.1.2-2.1.6c0 .5.7.7 2.1.7c1.4 0 2.1-.2 2.1-.7c0-.4-.7-.6-2.1-.6zm-2.3 5.5v.8h5.7v.6h-6.5v-2h5.3v-.6h-5.3v-.6h6.2v1.8h-5.4zm11.5-4.3c-1 0-1.8-.2-2.4-.4c-.5-.3-.8-.7-.8-1.2c0-.5.3-.9.8-1.2c.6-.3 1.4-.4 2.4-.4c1 0 1.8.1 2.4.4c.5.3.8.7.8 1.2c0 .5-.3.9-.8 1.2c-.6.2-1.4.4-2.4.4zm0-2.6c-.8 0-1.4.1-1.8.3c-.4.1-.6.4-.6.7c0 .3.2.5.6.7c.4.2 1 .2 1.8.2c.8 0 1.3 0 1.7-.2c.4-.2.7-.4.7-.7c0-.3-.3-.6-.7-.7c-.4-.2-.9-.3-1.7-.3zm-4.1 3.2h8.2v.7h-8.2v-.7zm1.8 3.5v.9h5.7v.7h-6.5v-2.2h5.3v-.8h-5.3v-.7h6.2v2.1h-5.4zm16.7-4.1v.6h-6.2v-3.7h6.2v.6h-5.4v.9h5.1v.6h-5.1v1h5.4zm-7.3 1.5h8.3v.6h-8.3v-.6zm.9 2.2v-.7h6.3v2.8h-.8v-2.1h-5.5zm15.2-7h.8v5.5h-.8v-2.5h-1.1v2.4h-.8v-5.3h.8v2.2h1.1v-2.3zm-2.3 4.3l-.5.6c-.4-.2-.8-.4-1.1-.7c-.3-.3-.5-.7-.7-1.1c-.1.4-.4.8-.7 1.2c-.3.4-.7.6-1.1.8l-.5-.6c.3-.1.6-.3.8-.5c.2-.2.4-.5.6-.7c.2-.3.3-.5.4-.8c.1-.3.1-.5.1-.8c.02.02 0-1.2 0-1.2h.8s.03 1.22 0 1.2c0 .3.1.5.2.8c0 .2.2.5.3.7l.6.6c.2.2.5.4.8.5zm-3 2.4v-.7h6.1v3.1h-.8v-2.4h-5.3zm16.1-2.9v.7h-1.5v4.6h-.8v-9.2h.8v3.9h1.5zm-3-2.7v.6h-5.5v-.6h2.4v-1.1h.8v1.1h2.3zm-2.3 4.5v1c.4 0 .8-.1 1.2-.1c.5 0 .9-.1 1.3-.1v.6c-.5.1-1 .1-1.5.2c-.5 0-1 .1-1.5.1c-.5 0-.9 0-1.4.1h-1.3l-.1-.7c.3 0 .7 0 1.2-.1h1.3v-1c-.6 0-1-.2-1.3-.5c-.3-.3-.5-.7-.5-1.2c0-.2.1-.4.2-.6c.1-.3.2-.4.4-.6c.2-.1.4-.2.7-.3c.3-.1.6-.1.9-.1c.3 0 .6 0 .9.1l.6.3c.2.2.4.3.5.6c.1.2.1.4.1.6c0 .5-.1.9-.4 1.2c-.3.3-.8.5-1.3.5zm-1.8-1.7c0 .4.1.6.4.8c.2.2.6.3 1 .3c.4 0 .7-.1 1-.3c.2-.2.3-.4.3-.8c0-.3-.1-.5-.3-.7c-.3-.2-.6-.3-1-.3c-.4 0-.8.1-1 .3c-.3.2-.4.4-.4.7zm13.5-.8v2.4h-.8v-5.4h.8v2.4h1.2v-2.5h.8v5.6h-.8v-2.5h-1.2zm-1.1-2.1v.7h-4.7v-.7h1.9v-1h.9v1h1.9zm-2.4 4.2c-.2 0-.5 0-.7-.1c-.3 0-.5-.1-.7-.3c-.1-.1-.3-.3-.4-.5c-.1-.2-.1-.4-.1-.6c0-.3 0-.5.1-.7c.1-.2.3-.3.4-.5c.2-.1.4-.2.7-.3c.2 0 .5-.1.7-.1c.3 0 .6.1.8.1c.3.1.5.2.7.3c.1.2.3.3.4.5c0 .2.1.4.1.7c0 .2-.1.4-.1.6c-.1.2-.3.4-.4.5c-.2.2-.4.3-.7.3c-.2.1-.5.1-.8.1zm0-2.5c-.3 0-.6.1-.8.3c-.2.2-.4.4-.4.7c0 .3.2.5.4.7c.2.1.5.2.8.2c.4 0 .7-.1.9-.2c.2-.2.4-.4.4-.7c0-.3-.2-.5-.4-.7c-.2-.2-.5-.3-.9-.3zm4.4 3.2s-.04.29 0 .3c0 .2 0 .4.1.7l.3.6c.2.2.4.3.6.5c.3.1.5.3.8.4l-.4.6c-.5-.2-.8-.4-1.2-.7c-.3-.3-.5-.6-.7-1c-.1.4-.3.7-.6 1c-.2.3-.6.6-1 .8c-.5-.2-.8-.4-1.1-.7c-.3-.3-.5-.7-.6-1.1c-.2.4-.4.7-.7 1c-.3.3-.7.5-1.2.7l-.4-.6c.3-.1.6-.3.8-.4l.6-.6c.1-.2.3-.4.4-.6c0-.2.1-.4.1-.6c-.02-.01 0-.3 0-.3h.8v.3c0 .4.1.8.3 1.1c.2.4.5.7 1 1c.2-.2.4-.3.5-.5c.2-.2.3-.3.4-.5l.3-.6v-.5c.04-.01 0-.3 0-.3h.9zm6.7-5.4c.5 0 .9.1 1.3.2c.4.1.8.3 1 .5c.3.2.6.5.7.8c.2.3.3.7.3 1c0 .4-.1.8-.3 1.1c-.1.3-.4.6-.7.8c-.2.2-.6.4-1 .5c-.4.1-.8.2-1.3.2c-.5 0-.9-.1-1.3-.2c-.5-.1-.8-.3-1.1-.5c-.3-.2-.5-.5-.7-.8c-.2-.3-.2-.7-.2-1.1c0-.3 0-.7.2-1c.2-.3.4-.6.7-.8c.3-.2.6-.4 1.1-.5c.4-.1.8-.2 1.3-.2zm0 .7c-.4 0-.7 0-1 .1c-.3.1-.6.2-.8.4c-.3.2-.4.4-.6.6c-.1.2-.2.5-.2.7c0 .3.1.6.2.8c.2.2.3.4.6.6c.2.1.5.3.8.4c.3 0 .6.1 1 .1c.3 0 .7-.1 1-.1c.3-.1.6-.3.8-.4c.2-.2.4-.4.5-.6c.1-.2.2-.5.2-.8c0-.2-.1-.5-.2-.7c-.1-.2-.3-.4-.5-.6c-.2-.2-.5-.3-.8-.4c-.3-.1-.7-.1-1-.1zm-4.2 6h8.3v.7H218v-.7zm15.9-7.3h.9v9.2h-.9v-3.8h-2.1v1.5h-4.2v-6h4.2v1.3h2.1v-2.2zm-3 6.2v-4.6h-2.5v4.6h2.5zm.9-1.4h2.1v-1.9h-2.1v1.9zm4.3 4.4l.3-2.1h1l-.7 2.1h-.6zm10.8-9.2h.8v9.2h-.8v-9.2zm-3.4.8s-.05 1.68 0 1.7c0 .4 0 .8.1 1.2l.6 1.2c.2.3.5.6.8.9c.3.3.6.5.9.6l-.5.7c-.5-.2-1-.6-1.4-1.1c-.4-.5-.7-1.1-1-1.8c-.2.7-.5 1.3-.9 1.9c-.4.5-.9.9-1.4 1.2l-.5-.7c.3-.2.6-.4.9-.7c.3-.2.6-.6.8-.9c.2-.4.4-.8.5-1.2c.2-.5.2-.9.2-1.3c.03-.02 0-1.7 0-1.7h.9zm13 1.6h1.3v.7h-1.3v2.5h-.8v-5.5h.8v2.3zm-1.8 2.1l-.4.6c-.5-.1-1-.4-1.4-.7c-.3-.4-.6-.8-.8-1.2c-.2.5-.5.9-.9 1.3c-.4.4-.9.7-1.4.9l-.5-.7c.4-.1.7-.3 1-.5c.3-.2.5-.4.7-.6c.2-.3.4-.6.5-.9c.1-.3.1-.6.1-.9c.04-.05 0-.4 0-.4h-2v-.7h4.9v.7h-2s-.02.35 0 .4c0 .3 0 .5.1.8c.1.3.3.6.5.8c.2.2.4.4.7.6c.2.2.6.4.9.5zm-1.1 1.3c.4 0 .9 0 1.2.1c.4.1.7.2 1 .3l.6.6c.1.2.2.4.2.7c0 .3-.1.5-.2.7c-.2.2-.4.4-.6.5c-.3.2-.6.3-1 .4c-.3 0-.8.1-1.2.1c-1 0-1.7-.2-2.2-.5c-.6-.3-.8-.7-.8-1.2c0-.5.2-1 .8-1.3c.5-.2 1.2-.4 2.2-.4zm0 2.7c.7 0 1.2-.1 1.6-.3c.4-.1.6-.4.6-.7c0-.3-.2-.6-.6-.8c-.4-.1-.9-.2-1.6-.2c-.7 0-1.3.1-1.6.2c-.4.2-.6.5-.6.8c0 .3.2.6.6.7c.3.2.9.3 1.6.3zm9.1-5.1c-1 0-1.8-.2-2.4-.4c-.5-.3-.8-.7-.8-1.2c0-.5.3-.9.8-1.2c.6-.3 1.4-.4 2.4-.4c1 0 1.8.1 2.4.4c.5.3.8.7.8 1.2c0 .5-.3.9-.8 1.2c-.6.2-1.4.4-2.4.4zm0-2.6c-.8 0-1.3.1-1.7.3c-.5.1-.7.4-.7.7c0 .3.2.5.7.7c.4.2.9.2 1.7.2c.8 0 1.3 0 1.7-.2c.5-.2.7-.4.7-.7c0-.3-.2-.6-.7-.7c-.4-.2-.9-.3-1.7-.3zm-4.1 3.2h8.2v.7h-8.2v-.7zm1.8 3.5v.9h5.7v.7h-6.5v-2.2h5.4v-.8h-5.4v-.7h6.2v2.1h-5.4zm10.4-6.8h.8v1.7h4.7v-1.7h.8v4.8h-6.3v-4.8zm.8 2.3v1.8h4.7v-1.8h-4.7zm-1.8 4.3h8.3v.7h-8.3v-.7zm14.9-3.8v3.1h-.8v-6.4h.8v2.6h1.2v-2.7h.8v6.8h-.8V41h-1.2zm-1.3 1l.1.7c-.3.1-.6.1-.9.2h-.8c-.3.1-.5.1-.8.1h-1.6v-2.7h2.6V39h-2.6v-.7h3.4v2.6h-2.6s.03 1.41 0 1.4h1.7c.2-.1.5-.1.7-.1c.3-.1.5-.1.8-.2zm-1.8 3.8h5.4v.7h-6.2v-2.8h.8v2.1zm14.1-8.3v5.7h-.8v-5.7h.8zm-1.8 3.8l.1.6c-.3.1-.6.2-1 .2c-.3.1-.6.1-1 .1c-.3 0-.7.1-1.1.1h-1.4c0-.03-.8 0-.8 0v-4h4.3v.6h-3.4s-.02 2.69 0 2.7h1.3c.4 0 .7 0 1.1-.1c.3 0 .7 0 1-.1c.3 0 .6-.1.9-.1zm-1.2 1.9c.4 0 .9 0 1.2.1c.4.1.7.2 1 .3c.3.2.5.4.6.6c.2.2.2.5.2.7c0 .3 0 .6-.2.8c-.1.2-.3.4-.6.5c-.3.2-.6.3-1 .4c-.3.1-.8.1-1.2.1c-.5 0-.9 0-1.3-.1c-.4-.1-.7-.2-1-.4c-.3-.1-.5-.3-.6-.5c-.1-.2-.2-.5-.2-.8c0-.2.1-.5.2-.7c.1-.2.3-.4.6-.6c.3-.1.6-.2 1-.3c.4-.1.8-.1 1.3-.1zm0 2.8c.7 0 1.2-.1 1.6-.3c.4-.1.6-.4.6-.8c0-.3-.2-.6-.6-.8c-.4-.2-.9-.3-1.6-.3c-.7 0-1.3.1-1.7.3c-.4.2-.6.5-.6.8c0 .4.2.7.6.8c.4.2 1 .3 1.7.3zm13.2-4.7v.7h-1.5v4.7h-.8v-9.1h.8v3.7h1.5zm-5.4-3.6v1.3h2.2v.7h-5.4v-.7h2.3v-1.3h.9zm-.4 2.7c.3 0 .6.1.8.2c.3.1.6.2.8.4c.2.2.3.4.4.7c.1.3.2.5.2.8c0 .4-.1.6-.2.9c-.1.3-.2.5-.4.7c-.2.2-.5.3-.8.4c-.2.1-.5.1-.8.1c-.4 0-.7 0-.9-.1c-.3-.1-.5-.2-.7-.4c-.2-.2-.4-.4-.5-.7c-.1-.3-.2-.5-.2-.9c0-.3.1-.5.2-.8c.1-.3.3-.5.5-.7c.2-.2.4-.3.7-.4c.2-.1.5-.2.9-.2zm0 3.6c.2 0 .4-.1.5-.2c.2 0 .4-.1.5-.2c.1-.2.2-.3.3-.5c.1-.2.1-.3.1-.6c0-.2 0-.3-.1-.5c-.1-.2-.2-.3-.3-.5c-.1-.1-.3-.2-.5-.3c-.1 0-.3-.1-.5-.1c-.3 0-.4.1-.6.1c-.2.1-.3.2-.5.3c-.1.2-.2.3-.3.5c0 .2-.1.3-.1.5c0 .3.1.4.1.6c.1.2.2.3.3.5c.2.1.3.2.5.2c.2.1.3.2.6.2zm12.9-4.6v-.3h-5.6v-.6h6.4s.04.87 0 .9v1.8c0 .4-.1.7-.1 1.1c0 .4-.1.8-.2 1.3l-.8-.1c.1-.9.2-1.6.3-2.3v-1.8zm-2.4 5.3h4.2v.7h-8.2v-.7h3.2v-3.3h.8v3.3zm13.9-7.1h.8v9.1h-.8v-9.1zm-3.4 1.6s-.03 1.14 0 1.1c0 .4 0 .8.2 1.2c.1.4.3.7.5 1.1c.2.3.5.6.8.8c.3.3.6.5.9.6l-.4.7c-.6-.2-1.1-.6-1.5-1.1c-.4-.5-.7-1.1-.9-1.7c-.1.3-.3.7-.4 1c-.2.3-.4.6-.6.8c-.2.3-.4.5-.7.7c-.2.2-.4.4-.7.5l-.5-.6c.3-.2.6-.4.9-.7c.3-.3.6-.6.8-.9c.2-.4.4-.8.5-1.2c.2-.4.2-.8.2-1.2c.04.04 0-1.1 0-1.1h-2.1v-.7h5.1v.7h-2.1zm12.6-1.6l.8-.1v5.4h-.8v-1.3s-2.33.02-2.3 0c-.3.3-.5.5-.8.6c-.4.2-.7.3-1.1.3c-.4 0-.7-.1-1-.2c-.2-.1-.5-.3-.7-.5c-.2-.2-.4-.4-.5-.7c-.1-.2-.2-.5-.2-.9c0-.3.1-.6.2-.8c.1-.3.3-.5.5-.7c.2-.2.5-.4.7-.5c.3-.1.6-.1 1-.1c.4 0 .8 0 1.1.2c.3.1.6.3.8.6h2.3v-1.3zm-4.2 4.1c.2 0 .4 0 .6-.1c.2 0 .4-.1.5-.3c.1-.1.2-.3.3-.5c.1-.1.1-.3.1-.6c0-.2 0-.4-.1-.6c-.1-.1-.2-.3-.3-.4c-.1-.1-.3-.2-.5-.3c-.2-.1-.4-.1-.6-.1c-.2 0-.5 0-.6.1c-.2.1-.4.2-.5.3c-.2.1-.3.3-.4.4c0 .2-.1.4-.1.6c0 .3.1.5.1.6c.1.2.2.4.4.5c.1.2.3.3.5.3c.1.1.4.1.6.1zm2.3-1.5c0 .3 0 .6-.1.7c.03.04 2 0 2 0v-1.3s-1.97-.04-2 0c.1.1.1.4.1.6zm-3.4 3.9v-.7h6.1v3.3h-.8v-2.6h-5.3zm15-5.6v.7h-5.1v-.7h2.2v-1h.8v1h2.1zm1.5-.9h.9v5.8h-.9v-1.2h-1.5v-.7h1.5v-1h-1.5v-.7h1.5v-2.2zm-2 3.8c0 .2 0 .4-.1.7c-.1.2-.3.4-.4.5c-.2.2-.5.3-.7.4c-.3 0-.5.1-.8.1c-.3 0-.6-.1-.9-.1c-.2-.1-.4-.2-.6-.4c-.2-.1-.4-.3-.5-.5c-.1-.3-.1-.5-.1-.7c0-.3 0-.5.1-.7c.1-.2.3-.4.5-.6l.6-.3c.3-.1.6-.1.9-.1c.3 0 .5 0 .8.1c.2.1.5.2.7.3c.1.2.3.4.4.6c.1.2.1.4.1.7zm-3.3 0c0 .3.1.6.3.7c.3.2.6.3 1 .3c.3 0 .7-.1.9-.3c.2-.1.3-.4.3-.7c0-.4-.1-.6-.3-.8c-.2-.2-.6-.3-.9-.3c-.4 0-.7.1-1 .3c-.2.2-.3.4-.3.8zm.1 3.1v-.6h6.1v2.8h-.9v-2.2h-5.2zm15.2-7v6.8h-.8v-6.8h.8zm-2 4.6l-.4.7c-.5-.2-1-.5-1.4-.9c-.4-.4-.6-.9-.9-1.4c-.2.6-.4 1-.8 1.5c-.4.4-.9.7-1.4.9l-.5-.6c.4-.2.7-.3 1-.6c.2-.2.5-.4.7-.7c.2-.3.3-.6.5-1c.1-.3.1-.7.1-1c.02-.02 0-.9 0-.9h.9s-.05.88 0 .9c0 .3 0 .7.1 1c.1.3.3.6.5.9c.2.2.4.5.7.7c.3.2.6.4.9.5zm-3 3.7h5.3v.7h-6.1v-2.9h.8v2.2zm15.2-4.5v.6h-1.5v4.8h-.8v-9.2h.8v3.8h1.5zm-8-2.8s4.18.02 4.2 0c0 .7-.1 1.3-.3 1.9c-.1.6-.4 1.2-.7 1.8c-.3.5-.7 1-1.3 1.5c-.5.5-1.1.9-1.9 1.3l-.4-.7c1.2-.6 2.1-1.3 2.7-2.2c.6-.8 1-1.8 1.1-2.9c-.04.01-3.4 0-3.4 0v-.7zm15.1.6v-.7h-5.4v-.6h6.2v1.9h-5.3v.8h5.5v.6h-6.3v-2h5.3zm-6.4 2.7h8.3v.6h-8.3v-.6zm1.8 3.3v.9h5.7v.6h-6.5v-2.1h5.4v-.7h-5.4v-.6h6.3v1.9h-5.5z" stroke="none" fill="#111111"/></g><g id="Polygon99537"><path d="m2.6 26.6h3v.8H.5v-.6s2.62-2.5 2.6-2.5l.6-.6c.1-.2.3-.4.4-.6c.1-.1.2-.3.3-.5c0-.2.1-.4.1-.7c0-.4-.2-.7-.4-.9c-.3-.3-.6-.4-1-.4c-.2 0-.4.1-.6.1c-.2.1-.3.2-.5.3c-.1.2-.2.3-.3.5c-.1.2-.1.4-.1.6l-.9-.2c0-.3.1-.6.3-.9c.1-.2.3-.4.5-.6c.2-.2.5-.3.8-.4c.2-.1.5-.2.9-.2c.3 0 .6.1.8.2c.3.1.6.2.8.4c.2.2.3.4.4.6c.2.3.2.6.2.9c0 .3 0 .6-.1.8c-.1.2-.2.5-.3.7c-.2.2-.4.4-.5.6c-.2.2-.4.5-.6.7l-2.1 2c.1 0 .3 0 .4-.1h.4zm9.1-2.9c0 .7-.1 1.2-.2 1.7c-.2.5-.4.9-.6 1.2c-.3.4-.6.6-.9.7c-.3.2-.7.3-1.1.3c-.4 0-.7-.1-1-.3c-.4-.1-.7-.3-.9-.7c-.3-.3-.5-.7-.6-1.2c-.1-.5-.2-1-.2-1.7c0-.7.1-1.2.2-1.7c.1-.5.3-.9.6-1.2c.2-.3.5-.6.9-.7c.3-.2.6-.3 1-.3c.4 0 .8.1 1.1.3c.3.1.6.4.9.7c.2.3.4.7.6 1.2c.1.5.2 1 .2 1.7zm-1 0c0-.6 0-1.1-.1-1.5c-.1-.4-.2-.7-.4-.9c-.2-.3-.4-.4-.6-.5c-.2-.1-.4-.2-.7-.2c-.2 0-.4.1-.6.2c-.3.1-.5.2-.6.5c-.2.2-.3.5-.4.9c-.1.4-.2.9-.2 1.5c0 .6.1 1.1.2 1.5c.1.4.2.7.4.9c.1.3.3.5.6.6c.2.1.4.1.6.1c.3 0 .5 0 .7-.1c.2-.1.4-.3.6-.6c.2-.2.3-.5.4-.9c.1-.4.1-.9.1-1.5zm3.7 2.9h2.9v.8h-5v-.6s2.57-2.5 2.6-2.5c.2-.2.4-.4.5-.6c.2-.2.3-.4.4-.6c.2-.1.3-.3.3-.5c.1-.2.1-.4.1-.7c0-.4-.1-.7-.4-.9c-.2-.3-.6-.4-.9-.4c-.3 0-.5.1-.6.1c-.2.1-.4.2-.5.3c-.1.2-.3.3-.3.5c-.1.2-.1.4-.1.6l-1-.2l.3-.9l.6-.6c.2-.2.4-.3.7-.4c.3-.1.6-.2.9-.2c.3 0 .6.1.9.2c.3.1.5.2.7.4c.2.2.4.4.5.6c.1.3.2.6.2.9c0 .3-.1.6-.2.8c0 .2-.1.5-.3.7c-.1.2-.3.4-.5.6c-.2.2-.4.5-.6.7l-2.1 2c.2 0 .3 0 .4-.1h.5zm9-2.9c0 .7 0 1.2-.2 1.7c-.1.5-.3.9-.6 1.2c-.2.4-.5.6-.8.7c-.4.2-.7.3-1.1.3c-.4 0-.8-.1-1.1-.3c-.3-.1-.6-.3-.9-.7c-.2-.3-.4-.7-.5-1.2c-.2-.5-.3-1-.3-1.7c0-.7.1-1.2.3-1.7c.1-.5.3-.9.5-1.2c.3-.3.6-.6.9-.7c.3-.2.7-.3 1.1-.3c.4 0 .7.1 1.1.3c.3.1.6.4.8.7c.3.3.5.7.6 1.2c.2.5.2 1 .2 1.7zm-.9 0c0-.6-.1-1.1-.2-1.5c-.1-.4-.2-.7-.4-.9c-.1-.3-.3-.4-.5-.5c-.2-.1-.5-.2-.7-.2c-.3 0-.5.1-.7.2c-.2.1-.4.2-.6.5c-.1.2-.3.5-.4.9c-.1.4-.1.9-.1 1.5c0 .6 0 1.1.1 1.5c.1.4.3.7.4.9c.2.3.4.5.6.6c.2.1.4.1.7.1c.2 0 .5 0 .7-.1c.2-.1.4-.3.5-.6c.2-.2.3-.5.4-.9c.1-.4.2-.9.2-1.5zm8.2 2.1v-3.1h-2.5v-.7h2.5v-1.1h-2.5v-.7h2.5v-1.1h.9v6.7h-.9zm-1.5-2.4l.1.7c-.7.2-1.4.3-2.1.3c-.6 0-1.3.1-1.9.1c-.03-.03-.7 0-.7 0v-4.8h.8v4.1c.6 0 1.3-.1 1.9-.1c.6-.1 1.2-.1 1.9-.3zm-2.6 3.9h5.2v.7h-6.1v-2.8h.9v2.1zm13.9-7.9v4h-6.2v-4h.8v1.3h4.5v-1.3h.9zm-.9 3.3v-1.4h-4.5v1.4h4.5zm1.9 1.8v.6h-3.7v3.1h-.9v-3.1h-3.7v-.6h8.3zm7.6-5.5h.8v9.2h-.8v-5h-1.9v-.7h1.9V19zm-5.4 4.1s-.04 2.21 0 2.2h2.1c.3-.1.6-.1.9-.1c.3-.1.6-.1.9-.2l.1.7c-.3.1-.7.1-1 .2h-.9c-.4.1-.7.1-1.1.1h-1.9v-6.1h4.3v.7h-3.4v1.8h3v.7h-3zm11.1-1l-1-.1c.1-.4.2-.7.3-.9c.2-.3.4-.5.6-.7c.2-.2.4-.3.7-.4c.3-.1.6-.2.9-.2c.3 0 .6.1.9.2c.3.1.5.2.7.4c.2.1.3.4.5.6c.1.2.1.5.1.8c0 .5-.1.8-.3 1.1c-.3.3-.6.5-1 .6c1 .3 1.5.9 1.5 1.8c0 .4-.1.7-.2 1c-.1.2-.3.5-.5.7c-.3.2-.5.3-.9.4c-.3.1-.6.2-.9.2c-.4 0-.8-.1-1.1-.2c-.2-.1-.5-.2-.7-.4c-.2-.2-.3-.4-.5-.6c-.1-.3-.2-.5-.3-.8l.8-.3c.1.1.1.2.2.4c.2.3.4.6.6.8c.2.2.6.3 1 .3c.2 0 .4-.1.6-.2c.2-.1.4-.2.5-.3c.2-.1.3-.3.3-.5c.1-.1.1-.3.1-.5v-.5c-.1-.2-.2-.3-.3-.5c-.2-.1-.4-.2-.6-.2c-.3-.1-.6-.2-1-.2v-.6c.3 0 .6-.1.8-.1c.3-.1.4-.2.6-.3c.1-.1.2-.3.3-.4c.1-.2.1-.4.1-.6c0-.4-.1-.7-.4-.9c-.2-.2-.6-.3-.9-.3c-.3 0-.5 0-.6.1c-.2 0-.4.1-.5.3c-.1.1-.2.3-.3.4c-.1.2-.1.4-.1.6zm11.4 3.7v-3.1h-2.6v-.7h2.6v-1.1h-2.6v-.7h2.6v-1.1h.9v6.7h-.9zm-1.5-2.4l.1.7c-.7.2-1.4.3-2.1.3c-.6 0-1.3.1-1.9.1c-.04-.03-.7 0-.7 0v-4.8h.8v4.1c.6 0 1.3-.1 1.9-.1c.6-.1 1.2-.1 1.9-.3zM62 27.3h5.3v.7h-6.1v-2.8h.8v2.1zm13.8-5.5h1.4v.7h-1.4v3.2h-.8v-6.6h.8v2.7zm-6.7-2s4.27-.05 4.3 0c0 .5-.1 1.1-.3 1.6c-.2.5-.5 1-.9 1.4c-.4.4-.8.8-1.3 1.1c-.6.3-1.2.6-1.8.8l-.4-.7c.6-.2 1.1-.4 1.5-.6c.4-.2.8-.5 1.1-.8c.4-.3.6-.7.8-1c.2-.4.3-.8.4-1.2c-.03.04-3.4 0-3.4 0v-.6zM71 25v2.3h5.2v.7h-6.1v-3h.9zm13.9-6h.8v9.2h-.8V19zm-1.8 3.6v-3.4h.8v8.5h-.8v-4.4s-1.19-.02-1.2 0c0 .4-.1.8-.2 1.2c-.1.3-.2.7-.4.9c-.1.3-.3.4-.6.6c-.2.1-.5.2-.7.2c-.3 0-.6-.1-.8-.2c-.3-.2-.5-.4-.7-.7c-.1-.3-.3-.6-.4-1c0-.4-.1-.8-.1-1.3c0-.5.1-1 .1-1.3c.1-.4.3-.8.4-1c.2-.3.4-.5.7-.7c.2-.1.5-.2.8-.2c.2 0 .5.1.7.2c.2.1.4.3.6.6c.2.2.3.5.4.8c.1.4.2.8.2 1.2h1.2zM80 25.4c.3 0 .6-.2.8-.6c.2-.5.4-1.1.4-1.8c0-.4-.1-.7-.1-1c-.1-.3-.2-.6-.3-.8c-.1-.2-.2-.3-.3-.5c-.2-.1-.4-.1-.5-.1c-.4 0-.7.2-.9.6c-.2.5-.3 1-.3 1.8c0 .7.1 1.3.3 1.8c.2.4.5.6.9.6zm15.8-1.7v-1.8h-1.9v-.7h1.9V19h.9v4.7h-.9zm-6-4.2h4c0 .6-.1 1.1-.3 1.5c-.2.5-.5.9-.8 1.3c-.4.4-.8.7-1.3 1c-.6.2-1.2.5-1.8.6l-.3-.6c1.1-.3 2-.7 2.6-1.2c.6-.6.9-1.2 1-1.9c0-.04-3.1 0-3.1 0v-.7zm1.8 7.9h5.4v.7h-6.2v-2.4h5.1v-.9h-5.1v-.7h5.9v2.3h-5.1v1zm14.2-8.3v6.7h-.8v-6.7h.8zm-1.8 4.8l-.4.6c-.6-.1-1-.4-1.4-.7c-.4-.4-.7-.8-.9-1.3c-.2.5-.5 1-.9 1.4c-.4.3-.9.6-1.5.8l-.4-.7c.4-.1.7-.2 1-.4c.2-.2.5-.4.7-.7c.2-.2.3-.5.5-.8c.1-.3.1-.6.1-.9c.03-.03 0-.3 0-.3h-2.1v-.6h2.1v-1.2h.9v1.2h2v.6h-2s-.05.27 0 .3c0 .3 0 .6.1.8c.1.3.3.6.5.8c.2.3.5.5.7.6c.3.2.6.4 1 .5zm-3.2 3.4h5.3v.7H100v-2.8h.8v2.1zm17.3-4.5v.6h-1.5v4.8h-.8v-9.1h.8v3.7h1.5zm-5.4-3s-.03 1.68 0 1.7c0 .4 0 .8.2 1.2c.1.4.2.7.5 1.1c.2.3.4.7.7.9c.3.3.6.5.9.7l-.5.7c-.5-.3-1-.7-1.3-1.2c-.4-.5-.7-1-.9-1.7c-.2.7-.5 1.3-.9 1.8c-.4.5-.9 1-1.4 1.2l-.5-.6c.3-.2.6-.4.9-.7c.3-.3.5-.6.8-1c.2-.4.3-.8.5-1.2c.1-.4.1-.8.1-1.2c.04-.02 0-1.7 0-1.7h.9zm12.8-.7h.8v4.9h-.8v-2.1h-1.9c-.1.6-.3 1-.7 1.3c-.5.3-1 .5-1.6.5c-.4 0-.7 0-1-.2c-.3-.1-.5-.2-.7-.4c-.2-.2-.4-.4-.5-.7c-.1-.2-.2-.5-.2-.8c0-.3.1-.6.2-.9c.1-.2.3-.5.5-.6c.2-.2.4-.4.7-.5c.3-.1.6-.1 1-.1c.3 0 .6 0 .8.1c.3.1.5.2.7.4c.2.1.4.3.5.5c.2.2.3.5.3.7c0 .02 1.9 0 1.9 0v-2.1zm-4.2 3.9c.2 0 .4 0 .6-.1c.2-.1.4-.2.5-.3c.1-.1.2-.3.3-.4c.1-.2.1-.4.1-.6c0-.2 0-.4-.1-.6c-.1-.2-.2-.3-.3-.4c-.1-.2-.3-.3-.5-.3c-.2-.1-.4-.1-.6-.1c-.2 0-.5 0-.7.1c-.1 0-.3.1-.4.3c-.2.1-.3.2-.4.4c0 .2-.1.4-.1.6c0 .2.1.4.1.6c.1.1.2.3.4.4c.1.1.3.2.4.3c.2.1.5.1.7.1zm4.2 2.6v-1.2h.8v3.7h-5.8v-3.7h.8v1.2h4.2zm0 1.8v-1.2h-4.2v1.2h4.2zm9.4-8.4h.8v9.2h-.8V19zm-1.8 2.6v-2.3h.8v8.4h-.8v-3.1h-1.7v-.7h1.7v-1.6s-1.51-.04-1.5 0c-.2.7-.6 1.5-1.1 2.1c-.5.7-1.2 1.3-2.1 1.8l-.5-.6c1-.6 1.8-1.3 2.3-2.1c.5-.8.8-1.6.8-2.6h-2.6v-.7h3.5c0 .5-.1.9-.2 1.4h1.4zm9.7-1.7v.6h-5.3v-.6h2.2v-.9h.9v.9h2.2zm1-.8h.8v6.1h-.8v-6.1zm-.7 4.8v.6c-.5.1-1 .2-1.5.2c-.5.1-1 .1-1.5.1c-.5.1-1 .1-1.5.1h-1.3l-.1-.7h2.5v-.6c-.5-.1-.9-.2-1.2-.5c-.3-.2-.5-.5-.5-.9c0-.2 0-.4.2-.6c.1-.1.2-.3.4-.4c.2-.1.4-.2.7-.3c.2 0 .5-.1.9-.1c.3 0 .6.1.8.1c.3.1.5.2.7.3c.2.1.4.3.5.4c.1.2.1.4.1.6c0 .4-.1.7-.4.9c-.3.3-.8.4-1.3.5v.6c.4-.1.8-.1 1.2-.1c.4-.1.9-.1 1.3-.2zm-4.3-1.7c0 .3.1.4.4.6c.2.1.5.2 1 .2c.4 0 .7-.1 1-.2c.2-.2.3-.3.3-.6c0-.2-.1-.4-.3-.6c-.3-.1-.6-.2-1-.2c-.5 0-.8.1-1 .2c-.3.2-.4.4-.4.6zm-.3 4.1v-.7h6.1v2.6h-.8v-1.9h-5.3zm16.4-3.5v.7h-1.5v4.7h-.9v-9.1h.9v3.7h1.5zm-5.5-3.6v1.3h2.3v.7h-5.4v-.7h2.3v-1.3h.8zm-.4 2.7c.3 0 .6.1.9.2c.3.1.5.2.7.4c.2.2.4.4.5.7c.1.3.1.5.1.8c0 .4 0 .6-.1.9c-.1.3-.3.5-.5.7c-.2.2-.4.3-.7.4c-.3.1-.6.1-.9.1c-.3 0-.6 0-.9-.1c-.3-.1-.5-.2-.7-.4c-.2-.2-.3-.4-.4-.7c-.2-.3-.2-.5-.2-.9c0-.3 0-.5.2-.8c.1-.3.2-.5.4-.7c.2-.2.4-.3.7-.4c.3-.1.6-.2.9-.2zm0 3.6c.2 0 .4-.1.6-.2c.2 0 .3-.1.4-.2c.2-.2.3-.3.3-.5c.1-.2.1-.3.1-.6c0-.2 0-.3-.1-.5c0-.2-.1-.3-.3-.5c-.1-.1-.2-.2-.4-.3c-.2 0-.4-.1-.6-.1c-.2 0-.4.1-.6.1c-.1.1-.3.2-.4.3c-.2.2-.2.3-.3.5c-.1.2-.1.3-.1.5c0 .3 0 .4.1.6c.1.2.1.3.3.5c.1.1.3.2.4.2c.2.1.4.2.6.2zm13.5-6.5h.8v9.2h-.8V19zm-1.8 3.6v-3.4h.8v8.5h-.8v-4.4s-1.19-.02-1.2 0c0 .4-.1.8-.2 1.2c-.1.3-.2.7-.4.9c-.1.3-.3.4-.6.6c-.2.1-.5.2-.7.2c-.3 0-.6-.1-.8-.2c-.3-.2-.5-.4-.7-.7c-.1-.3-.3-.6-.4-1c0-.4-.1-.8-.1-1.3c0-.5.1-1 .1-1.3c.1-.4.3-.8.4-1c.2-.3.4-.5.7-.7c.2-.1.5-.2.8-.2c.2 0 .5.1.7.2c.2.1.4.3.6.6c.2.2.3.5.4.8c.1.4.2.8.2 1.2h1.2zm-3.1 2.8c.3 0 .6-.2.8-.6c.2-.5.4-1.1.4-1.8c0-.4-.1-.7-.1-1c-.1-.3-.2-.6-.3-.8c-.1-.2-.2-.3-.3-.5c-.2-.1-.4-.1-.5-.1c-.4 0-.7.2-.9.6c-.2.5-.3 1-.3 1.8c0 .7.1 1.3.3 1.8c.2.4.5.6.9.6zm16.7-6.3v6.6h-.9v-6.6h.9zm-2 4.7l-.4.6c-.5-.1-1-.4-1.4-.8c-.3-.3-.7-.8-.9-1.2c-.2.5-.5.9-.9 1.3c-.4.4-.8.7-1.4.9l-.4-.6c.3-.2.6-.3.9-.5c.3-.2.6-.5.8-.7c.2-.3.3-.6.4-.9c.1-.3.2-.6.2-.9v-.5h-2.1v-.7h5v.7h-2s-.05.48 0 .5c0 .3 0 .6.1.9c.1.3.3.5.5.8c.2.2.4.4.7.6c.3.2.6.4.9.5zm-3.1 3.5h5.3v.7h-6.1v-2.9h.8v2.2zm12.5-5.1v2.3h-.8v-5.3h.8v2.3h1.2V19h.8v5.8h-.8v-2.6h-1.2zm-1.2-2.1v.7h-4.6v-.7h1.9v-1h.8v1h1.9zm-.3 2.7c0 .3-.1.5-.2.7c-.1.2-.2.3-.4.5c-.1.1-.3.2-.6.3c-.2.1-.5.1-.8.1c-.3 0-.5 0-.8-.1l-.6-.3c-.2-.2-.3-.3-.4-.5c-.1-.2-.1-.4-.1-.7c0-.2 0-.4.1-.6c.1-.2.2-.4.4-.5l.6-.3c.3-.1.5-.1.8-.1c.3 0 .6 0 .8.1c.3.1.5.2.6.3c.2.1.3.3.4.5c.1.2.2.4.2.6zm-3.2 0c0 .3.1.6.3.7c.3.2.6.3.9.3c.4 0 .7-.1.9-.3c.2-.1.3-.4.3-.7c0-.3-.1-.5-.3-.6c-.2-.2-.5-.3-.9-.3c-.3 0-.6.1-.9.3c-.2.1-.3.3-.3.6zm3.7 2.2c.9 0 1.7.1 2.2.4c.5.3.8.7.8 1.2c0 .5-.3.9-.8 1.2c-.5.2-1.3.4-2.2.4c-1 0-1.7-.2-2.3-.4c-.5-.3-.8-.7-.8-1.2c0-.5.3-.9.8-1.2c.6-.3 1.3-.4 2.3-.4zm0 2.5c.7 0 1.2 0 1.6-.2c.4-.2.6-.4.6-.7c0-.3-.2-.6-.6-.7c-.4-.2-.9-.3-1.6-.3c-.7 0-1.3.1-1.7.3c-.4.1-.6.4-.6.7c0 .3.2.5.6.7c.4.2 1 .2 1.7.2zm11-8.5h.9v9.2h-.9V19zm-3.1 4.7s-.04 1.76 0 1.8c.4-.1.8-.1 1.3-.1c.4 0 .8-.1 1.2-.1l.1.6c-.5 0-1 .1-1.5.2c-.5 0-1.1 0-1.6.1h-2.8l-.1-.7h2.5c.02-.01 0-1.8 0-1.8h-1.8v-3.8h4.6v.7h-3.8v2.4h3.8v.7h-1.9zm12.2-2.8c-.04-.03 0-.3 0-.3h-5.6v-.6h6.4s-.01.87 0 .9v1.8c-.1.4-.1.7-.2 1.1c0 .4-.1.8-.2 1.3l-.8-.1c.2-.9.3-1.6.3-2.3c0-.7.1-1.3.1-1.8zm-2.4 5.3h4.2v.7h-8.3v-.7h3.2v-3.3h.9v3.3zm14.7-7.1v5.2h-.9v-5.2h.9zm-4.9 4.7c-.4 0-.7 0-1-.1c-.3-.1-.5-.3-.8-.4c-.2-.2-.3-.5-.4-.7c-.2-.3-.2-.6-.2-.9c0-.3 0-.6.2-.9c.1-.2.2-.4.4-.6c.3-.2.5-.4.8-.5c.3-.1.6-.1 1-.1c.3 0 .6 0 .9.1c.3.1.6.3.8.5c.2.2.3.4.5.6c.1.3.1.6.1.9c0 .3 0 .6-.1.9c-.2.2-.3.5-.5.7c-.2.1-.5.3-.8.4c-.3.1-.6.1-.9.1zm0-3.5c-.3 0-.5 0-.7.1c-.2.1-.3.2-.5.3c-.1.1-.2.3-.3.4c-.1.2-.1.4-.1.6c0 .2 0 .4.1.6c.1.2.2.3.3.4c.2.2.3.3.5.3c.2.1.4.2.7.2c.2 0 .4-.1.6-.2c.2 0 .3-.1.5-.3c.1-.1.2-.2.3-.4c.1-.2.1-.4.1-.6c0-.2 0-.4-.1-.6c-.1-.1-.2-.3-.3-.4c-.2-.1-.3-.2-.5-.3c-.2-.1-.4-.1-.6-.1zm3.8 4.4s.05.46 0 .5c0 .2.1.4.2.7l.3.6l.6.6c.2.1.5.2.8.3l-.4.7c-.5-.2-.9-.4-1.2-.7c-.3-.3-.5-.7-.7-1.1c-.1.4-.3.8-.6 1.1c-.3.3-.6.6-1.1.7c-.4-.1-.8-.4-1.1-.7c-.2-.3-.4-.6-.6-1c-.1.3-.4.7-.7 1c-.3.3-.6.5-1.1.7l-.4-.7c.3-.1.6-.2.8-.4c.2-.1.4-.3.6-.5c.1-.2.2-.4.3-.7c.1-.2.1-.4.1-.6c.04-.04 0-.5 0-.5h.9s-.05.46 0 .5c0 .4.1.8.3 1.2c.2.4.5.7.9.9c.2-.1.4-.3.6-.4c.2-.2.3-.4.4-.6c.1-.2.2-.4.2-.6c.1-.2.1-.4.1-.5c.03-.04 0-.5 0-.5h.8zm11.3-2v.6h-1.5v4.9h-.9V19h.9v3.7h1.5zm-7.3-2.1s-.04 4.61 0 4.6h2.1c.4-.1.7-.1 1-.1c.3-.1.7-.1 1-.2l.1.7c-.4.1-.7.1-1 .2c-.4 0-.7 0-1.1.1h-2.2c-.05.03-.8 0-.8 0v-6h4.3v.7H216zm7.8 7v-1h.9v1h-.9z" stroke="none" fill="#111111"/></g><g id="Polygon99536"><path d="m7.6 2.9h1.4v.7H7.6v2.4h-.8V.5h.8v2.4zM.9 1.2s4.27.02 4.3 0c0 .6-.1 1.1-.3 1.6c-.2.5-.5 1-.9 1.4c-.3.4-.8.8-1.3 1.1c-.5.3-1.1.5-1.8.7l-.3-.6c1-.4 1.9-.8 2.6-1.4c.6-.6 1-1.3 1.1-2.1H.9v-.7zm3.9 4.9c.4 0 .8.1 1.2.2c.4 0 .7.2.9.3c.3.2.5.3.6.6c.2.2.3.4.3.7c0 .3-.1.5-.3.7c-.1.3-.3.5-.6.6c-.2.2-.5.3-.9.4c-.4 0-.8.1-1.2.1c-.5 0-.9-.1-1.3-.1c-.3-.1-.6-.2-.9-.4c-.3-.1-.5-.3-.6-.6c-.1-.2-.2-.4-.2-.7c0-.3.1-.5.2-.7c.1-.3.3-.4.6-.6c.3-.1.6-.3.9-.3c.4-.1.8-.2 1.3-.2zm0 2.9c.6 0 1.2-.1 1.5-.3c.4-.2.6-.4.6-.8c0-.3-.2-.6-.6-.8c-.3-.2-.9-.3-1.5-.3c-.7 0-1.2.1-1.6.3c-.4.2-.6.5-.6.8c0 .4.2.6.6.8c.4.2.9.3 1.6.3zm11.3-6.6v-.9h-5.3v-.7h6.2v2.2h-5.4v.9h5.5v.7h-6.3V2.4h5.3zm-6.4 3h8.3v.6H9.7v-.6zm4.2 1.3c1 0 1.8.2 2.3.4c.5.3.8.6.8 1.1c0 .5-.3.9-.8 1.1c-.5.3-1.3.4-2.3.4c-1.1 0-1.9-.1-2.4-.4c-.5-.2-.8-.6-.8-1.1c0-.5.3-.8.8-1.1c.5-.2 1.3-.4 2.4-.4zm0 2.4c.7 0 1.3-.1 1.7-.3c.4-.1.6-.3.6-.6c0-.3-.2-.5-.6-.6c-.4-.2-1-.2-1.7-.2c-.8 0-1.4 0-1.8.2c-.4.1-.6.3-.6.6c0 .3.2.5.6.6c.4.2 1 .3 1.8.3zm7.8-4.8l-.2-.7c.4 0 .7-.1 1.1-.2c.4-.1.7-.3 1-.5c.3-.1.5-.3.7-.6c.2-.2.3-.4.3-.7c-.02.03-2.9 0-2.9 0v-.6h6.8v.6s-2.84.03-2.8 0c0 .3.1.5.3.7c.1.3.4.5.7.6c.2.2.6.4.9.5c.4.1.8.2 1.2.2l-.3.7l-1.1-.3l-1-.3c-.3-.2-.5-.4-.7-.6c-.3-.2-.4-.4-.6-.7c-.1.3-.3.5-.5.7c-.2.2-.5.4-.8.6c-.3.1-.6.2-1 .3c-.3.1-.7.2-1.1.3zm7.6 1.2h-3.8s.04.98 0 1c.9 0 1.6.2 2.1.4c.4.3.6.7.6 1.2c0 .5-.2.9-.8 1.2c-.5.2-1.3.4-2.3.4c-1 0-1.7-.2-2.3-.4c-.5-.3-.8-.7-.8-1.2c0-.5.2-.9.7-1.2c.4-.2 1.1-.4 2-.4v-1H21v-.7h8.3v.7zm-1.9 2.6c0-.3-.2-.6-.6-.7c-.4-.2-1-.3-1.7-.3c-.7 0-1.3.1-1.7.3c-.4.1-.6.4-.6.7c0 .3.2.5.6.7c.4.2 1 .2 1.7.2c.7 0 1.3 0 1.7-.2c.4-.2.6-.4.6-.7zm9.9-5.3h1.3v.7h-1.3v2.5h-.9V.6h.9v2.2zm-2.2.4c0 .4-.1.7-.2.9c-.1.3-.3.5-.5.7c-.2.2-.4.3-.7.4c-.3.1-.6.2-1 .2c-.3 0-.6-.1-.9-.2c-.3-.1-.6-.2-.8-.4c-.2-.2-.4-.4-.5-.7c-.1-.2-.2-.5-.2-.9c0-.3.1-.6.2-.8c.1-.3.3-.5.5-.7c.2-.2.5-.3.8-.5c.3-.1.6-.1.9-.1c.4 0 .7 0 1 .1c.3.2.5.3.7.5c.2.2.4.4.5.7c.1.2.2.5.2.8zm-3.9 0c0 .3 0 .4.1.6c0 .2.2.4.3.5c.1.1.3.2.5.3c.2.1.4.1.6.1c.2 0 .5 0 .6-.1c.2-.1.4-.2.5-.3c.2-.1.3-.3.4-.5c.1-.2.1-.3.1-.6c0-.2 0-.4-.1-.5c-.1-.2-.2-.4-.4-.5c-.1-.1-.3-.2-.5-.3c-.1-.1-.4-.1-.6-.1c-.2 0-.4 0-.6.1c-.2.1-.4.2-.5.3c-.1.1-.3.3-.3.5c-.1.1-.1.3-.1.5zm3.2 3.1c.4 0 .8 0 1.2.1c.4 0 .7.2 1 .3c.2.1.4.3.6.5c.1.2.2.5.2.8c0 .2-.1.5-.2.7c-.2.2-.4.4-.6.5c-.3.2-.6.3-1 .4c-.4 0-.8.1-1.2.1c-.5 0-.9-.1-1.3-.1c-.4-.1-.7-.2-1-.4c-.2-.1-.4-.3-.6-.5c-.1-.2-.2-.5-.2-.7c0-.3.1-.6.2-.8c.2-.2.4-.4.6-.5c.3-.1.6-.3 1-.3c.4-.1.8-.1 1.3-.1zm0 2.7c.6 0 1.2-.1 1.5-.3c.4-.2.6-.4.6-.7c0-.4-.2-.6-.6-.8c-.3-.2-.9-.3-1.5-.3c-.7 0-1.3.1-1.6.3c-.4.2-.6.4-.6.8c0 .3.2.5.6.7c.3.2.9.3 1.6.3zm9.5-3.9h3.7v.6h-8.3v-.6h3.8V4h-2.7v-3h6.2v.6h-5.4v1.7h5.5v.7h-2.8v1.1zm-.4 1.3c1 0 1.7.1 2.3.4c.5.3.8.7.8 1.2c0 .6-.3 1-.8 1.3c-.6.2-1.3.4-2.3.4c-1 0-1.8-.2-2.3-.4c-.6-.3-.9-.7-.9-1.3c0-.5.3-.9.9-1.2c.5-.3 1.3-.4 2.3-.4zm0 2.6c.7 0 1.3 0 1.7-.2c.4-.2.6-.4.6-.8c0-.3-.2-.5-.6-.7c-.4-.2-1-.3-1.7-.3c-.8 0-1.3.1-1.7.3c-.4.2-.6.4-.6.7c0 .4.2.6.6.8c.4.2.9.2 1.7.2zM57.3.5h.8v9.2h-.8V4.3h-2.1v-.7h2.1V.5zm-3.5.8v1.7c0 .4.1.8.2 1.2c.1.4.3.8.5 1.1c.2.4.5.7.7 1c.3.3.6.5 1 .6l-.5.7c-.5-.3-1-.7-1.4-1.2c-.4-.5-.7-1.1-.9-1.7c-.2.7-.5 1.3-.9 1.8c-.4.6-.9 1-1.4 1.3l-.5-.7c.3-.2.6-.4.9-.7c.3-.3.6-.6.8-1c.2-.4.4-.7.5-1.2c.1-.4.2-.8.2-1.2c-.03-.03 0-1.7 0-1.7h.8zM67 .9v4h-6.2v-4h.8v1.3h4.6V.9h.8zm-.8 3.3V2.8h-4.6v1.4h4.6zM68.1 6v.6h-3.8v3.1h-.8V6.6h-3.7v-.6h8.3zM75.6.5h.8v9.2h-.8V.5zm-3.4.8s.01 1.68 0 1.7c0 .4.1.8.2 1.2c.1.4.3.8.5 1.2c.2.3.5.6.8.9c.3.3.6.5 1 .6l-.5.7c-.6-.2-1-.6-1.5-1.1c-.4-.5-.7-1.1-.9-1.8c-.2.7-.5 1.3-.9 1.9c-.5.5-.9.9-1.5 1.2l-.5-.7c.4-.2.7-.4 1-.7c.3-.2.5-.6.8-.9c.2-.4.4-.8.5-1.2c.1-.5.2-.9.2-1.3c-.02-.02 0-1.7 0-1.7h.8zm13 1.6h1.4v.7h-1.4v2.5h-.8V.6h.8v2.3zM83.4 5l-.4.6c-.5-.1-.9-.4-1.3-.7c-.4-.4-.7-.8-.9-1.2c-.2.5-.5.9-.9 1.3c-.3.4-.8.7-1.4.9l-.4-.7c.3-.1.7-.3.9-.5c.3-.2.6-.4.8-.6c.2-.3.3-.6.4-.9c.1-.3.2-.6.2-.9v-.4h-2.1v-.7h5v.7h-2.1s.03.35 0 .4c0 .3.1.5.2.8c.1.3.2.6.4.8c.2.2.5.4.7.6c.3.2.6.4.9.5zm-1.1 1.3c.5 0 .9 0 1.3.1c.4.1.7.2.9.3c.3.2.5.4.6.6c.2.2.2.4.2.7c0 .3 0 .5-.2.7c-.1.2-.3.4-.6.5c-.2.2-.5.3-.9.4c-.4 0-.8.1-1.3.1c-.9 0-1.6-.2-2.2-.5c-.5-.3-.8-.7-.8-1.2c0-.5.3-1 .8-1.3c.6-.2 1.3-.4 2.2-.4zm0 2.7c.7 0 1.2-.1 1.6-.3c.4-.1.6-.4.6-.7c0-.3-.2-.6-.6-.8c-.4-.1-.9-.2-1.6-.2c-.7 0-1.2.1-1.6.2c-.4.2-.5.5-.5.8c0 .3.1.6.5.7c.4.2.9.3 1.6.3zM96.9.5v4.7h-.8V.5h.8zm-2.6 2.4c0 .3 0 .6-.1.8c-.2.3-.3.5-.5.7c-.2.1-.5.3-.8.4c-.3.1-.6.1-.9.1c-.4 0-.7 0-1-.1c-.3-.1-.5-.3-.7-.4c-.2-.2-.4-.4-.5-.7c-.1-.2-.2-.5-.2-.8c0-.3.1-.6.2-.8c.1-.3.3-.5.5-.7c.2-.1.4-.3.7-.4c.3-.1.6-.1 1-.1c.3 0 .6 0 .9.1c.3.1.6.3.8.4c.2.2.3.4.5.7c.1.2.1.5.1.8zm-3.9 0c0 .2.1.4.1.5c.1.2.2.4.4.5c.1.1.3.2.5.3c.1 0 .3.1.6.1c.2 0 .4-.1.6-.1c.2-.1.3-.2.5-.3c.1-.1.2-.3.3-.5c.1-.1.1-.3.1-.5c0-.2 0-.4-.1-.5c-.1-.2-.2-.3-.3-.5c-.2-.1-.3-.2-.5-.2c-.2-.1-.4-.1-.6-.1c-.3 0-.5 0-.6.1c-.2 0-.4.1-.5.2c-.2.2-.3.3-.4.5c0 .1-.1.3-.1.5zm1.4 6h5.4v.7H91V7.3h5.1v-1H91v-.6h5.9v2.2h-5.1v1zm11.6-3h1.8V.5h.9v7h-.9v-.9h-1.8v-.7zm-1.9-1.8c-.3 0-.6 0-.9-.1c-.3-.1-.5-.2-.7-.3c-.2-.2-.4-.3-.5-.5c-.1-.2-.1-.5-.1-.7c0-.2 0-.5.1-.7c.1-.2.3-.3.5-.5c.2-.1.4-.2.7-.3c.3-.1.6-.1.9-.1c.3 0 .6 0 .9.1c.3.1.5.2.7.3c.2.2.4.3.5.5c.1.2.2.5.2.7c0 .2-.1.5-.2.7c-.1.2-.3.3-.5.5c-.2.1-.4.2-.7.3c-.3.1-.6.1-.9.1zm0-2.6c-.4 0-.8.1-1 .3c-.3.2-.4.4-.4.7c0 .3.1.5.4.7c.2.2.6.3 1 .3c.4 0 .8-.1 1.1-.3c.2-.2.4-.4.4-.7c0-.3-.2-.5-.4-.7c-.3-.2-.7-.3-1.1-.3zm-.3 5.7s-.02-1.78 0-1.8c-.5 0-.9.1-1.3.1h-1.3l-.1-.7h1.4c.5 0 1 0 1.5-.1h1.5c.5-.1 1-.1 1.5-.2l.1.6c-.4.1-.8.1-1.2.2c-.5 0-.9 0-1.3.1c.02-.02 0 1.8 0 1.8h-.8zm-.5 1.6h5.6v.7h-6.5V6.8h.9v2zM114.4.5h.8v9.2h-.8V.5zm-3.7.7c.4 0 .7.1 1 .2c.3.1.6.2.8.4c.2.2.4.4.5.7c.1.3.2.5.2.9c0 .3-.1.6-.2.8c-.1.3-.3.5-.5.7c-.2.2-.5.4-.8.5c-.3.1-.6.1-1 .1c-.3 0-.6 0-.9-.1c-.3-.1-.6-.3-.8-.5c-.2-.2-.4-.4-.5-.7c-.2-.2-.2-.5-.2-.8c0-.4 0-.6.2-.9c.1-.3.3-.5.5-.7c.2-.2.5-.3.8-.4c.3-.1.6-.2.9-.2zm0 .7c-.2 0-.4.1-.6.1c-.2.1-.4.2-.5.3c-.2.2-.3.3-.4.5c-.1.2-.1.3-.1.6c0 .2 0 .4.1.5c.1.2.2.4.4.5c.1.1.3.2.5.3c.2.1.4.1.6.1c.3 0 .5 0 .7-.1c.2-.1.4-.2.5-.3c.1-.1.3-.3.3-.5c.1-.1.2-.3.2-.5c0-.3-.1-.4-.2-.6c0-.2-.2-.3-.3-.5c-.1-.1-.3-.2-.5-.3c-.2 0-.4-.1-.7-.1zm-2.8 5.8l-.1-.7h1.4c.5 0 1 0 1.5-.1h1.5c.6-.1 1.1-.1 1.6-.2l.1.6c-.6.1-1.1.2-1.6.2c-.5.1-1.1.1-1.6.1c-.5.1-1 .1-1.4.1h-1.4zM125.7.6h.8v9.1h-.8V.6zm-3.4 1.6s-.01 1.14 0 1.1c0 .4.1.8.2 1.2c.1.4.3.7.5 1.1c.2.3.5.6.8.8c.3.3.6.5.9.6l-.4.7c-.6-.2-1-.6-1.5-1.1c-.4-.5-.7-1.1-.9-1.7c-.1.3-.3.7-.4 1c-.2.3-.4.6-.6.8c-.2.3-.4.5-.6.7c-.3.2-.5.4-.8.5l-.5-.6c.3-.2.7-.4 1-.7c.3-.3.5-.6.7-.9c.3-.4.4-.8.6-1.2c.1-.4.2-.8.2-1.2c-.05.04 0-1.1 0-1.1h-2.2v-.7h5.1v.7h-2.1zM134.9.6l.8-.1v5.4h-.8V4.6s-2.32.02-2.3 0c-.2.3-.5.5-.8.6c-.3.2-.7.3-1.1.3c-.3 0-.7-.1-.9-.2c-.3-.1-.6-.3-.8-.5c-.2-.2-.4-.4-.5-.7c-.1-.2-.2-.5-.2-.9c0-.3.1-.6.2-.8c.1-.3.3-.5.5-.7c.2-.2.5-.4.8-.5c.2-.1.6-.1.9-.1c.4 0 .8 0 1.1.2c.3.1.6.3.8.6h2.3V.6zm-4.2 4.1c.2 0 .4 0 .6-.1c.2 0 .4-.1.5-.3c.1-.1.3-.3.3-.5c.1-.1.2-.3.2-.6c0-.2-.1-.4-.2-.6c0-.1-.2-.3-.3-.4c-.1-.1-.3-.2-.5-.3c-.2-.1-.4-.1-.6-.1c-.2 0-.4 0-.6.1c-.2.1-.4.2-.5.3c-.2.1-.3.3-.3.4c-.1.2-.2.4-.2.6c0 .3.1.5.2.6c0 .2.1.4.3.5c.1.2.3.3.5.3c.2.1.4.1.6.1zm2.3-1.5c0 .3 0 .6-.1.7c.05.04 2 0 2 0V2.6s-1.95-.04-2 0c.1.1.1.4.1.6zm-3.4 3.9v-.7h6.1v3.3h-.8V7.1h-5.3zM144.4.5h.8v9.2h-.8V4.9h-1.2v4.3h-.8V.7h.8v3.5h1.2V.5zm-4.3 1.8v.7c0 .4 0 .8.1 1.2c.1.4.2.8.4 1.1c.1.3.3.6.6.9c.2.3.5.5.8.6l-.4.7c-.5-.3-.9-.6-1.2-1c-.3-.4-.5-.9-.7-1.5c-.3 1.3-1 2.2-1.9 2.8l-.5-.6c.3-.2.6-.4.9-.7c.2-.3.4-.6.6-1c.1-.3.3-.7.4-1.2c0-.4.1-.8.1-1.3c-.02.02 0-.7 0-.7h-1.8v-.7h4.2v.7h-1.6zm12.2 1.4v2.2h-.8V.7h.8v2.3h1.2V.6h.8v5.6h-.8V3.7h-1.2zm-1.2 1.1l-.4.7c-.4-.2-.8-.4-1.1-.8c-.3-.3-.5-.6-.7-1c-.2.4-.4.8-.7 1.2c-.3.4-.7.6-1.2.8l-.4-.6c.3-.1.5-.3.8-.5c.2-.2.4-.5.6-.7c.1-.2.3-.5.3-.8c.1-.2.2-.5.2-.8c-.02.05 0-1.2 0-1.2h.8v1.2c0 .3 0 .5.1.8c.1.2.2.5.4.7c.1.2.3.4.6.6c.2.2.5.3.7.4zm.2 1.6c.4 0 .9 0 1.2.1c.4.1.7.2 1 .3c.3.2.5.3.6.5c.2.2.2.5.2.7c0 .3 0 .5-.2.7c-.1.2-.3.4-.6.5c-.3.2-.6.3-1 .4c-.3 0-.8.1-1.2.1c-.5 0-.9-.1-1.3-.1c-.4-.1-.7-.2-1-.4c-.2-.1-.4-.3-.6-.5c-.1-.2-.2-.4-.2-.7c0-.2.1-.5.2-.7c.2-.2.4-.3.6-.5c.3-.1.6-.2 1-.3c.4-.1.8-.1 1.3-.1zm0 2.6c.7 0 1.2 0 1.6-.2c.4-.2.6-.4.6-.8c0-.3-.2-.5-.6-.7c-.4-.2-.9-.3-1.6-.3c-.7 0-1.3.1-1.7.3c-.4.2-.6.4-.6.7c0 .4.2.6.6.8c.4.2 1 .2 1.7.2zm11.1-1.2h3.7v.7h-8.3v-.7h3.7V5.6h-2.7V1.3h6.3v4.3h-2.7v2.2zM159.6 2v2.9h4.7V2h-4.7zM174.8.6v4.8h-.8V.6h.8zm-4.5 2h1.9V.7h.8v4.6h-.8V3.2h-1.9v-.6zm1 1.4l.1.7c-.3.1-.5.1-.8.2h-.8c-.2 0-.5 0-.8.1h-1c.03-.04-.6 0-.6 0V1.1h3.5v.6h-2.6s-.02 2.58 0 2.6h.8c.3 0 .5 0 .8-.1h.7c.2-.1.5-.1.7-.2zm-1.8 4.9h5.6v.7h-6.4V7.3h5.2v-.8h-5.2v-.7h6.1v2.2h-5.3v.9zm17-3.8v.7h-3.7v3.9h-.8V5.8h-3.7v-.7s6.04-.03 6 0c.2-.7.3-1.3.3-1.8V1.9c.03.03 0-.1 0-.1h-5.3v-.7h6.1s.05.83 0 .8v1.4c0 .5-.1 1.1-.2 1.8c-.01-.03 1.3 0 1.3 0zm1.7-.5l-.3-.6c.5 0 .9-.1 1.3-.2c.3-.1.7-.3 1-.4c.2-.2.5-.4.6-.6c.2-.2.3-.4.3-.7h-2.8v-.7h2.9v-.9h.8v.9h2.9v.7H192c.1.3.2.5.3.7c.2.2.4.4.7.6c.3.1.6.3 1 .4c.4.1.8.2 1.2.2l-.2.6c-.4 0-.8-.1-1.1-.2c-.4-.1-.7-.2-1-.3c-.3-.1-.5-.3-.8-.5c-.2-.2-.4-.4-.5-.6c-.2.2-.3.4-.6.6c-.2.2-.5.4-.8.5c-.3.1-.6.3-.9.3c-.4.1-.7.2-1.1.2zm7.5 1.2H192v1.1h2.7v2.8h-.8V7.5h-5.5v-.6h2.8V5.8h-3.8v-.7h8.3v.7zM206.2.5v5.3h-.8V.5h.8zm-2.7.6v3.8h-4.3V1.1h4.3zm-.9 3.1V1.8H200v2.4h2.6zm3.8 2.9s-2.67-.04-2.7 0c0 .2.1.4.3.6c.2.2.4.4.7.6c.2.2.6.3.9.5c.4.1.7.2 1.1.2l-.2.7c-.4-.1-.7-.2-1-.3c-.4-.1-.7-.2-.9-.3c-.3-.2-.5-.3-.8-.5c-.2-.2-.3-.4-.5-.6c-.1.2-.3.4-.5.6c-.2.2-.5.3-.8.5c-.2.1-.5.2-.9.3c-.3.1-.6.2-1 .3l-.3-.7c.4 0 .8-.1 1.2-.2c.3-.2.7-.3.9-.5c.3-.2.6-.4.7-.6c.2-.2.3-.4.3-.6c-.02-.04-2.7 0-2.7 0v-.7h2.7v-.9h.8v.9h2.7v.7zM216.6.6h.9v9.1h-.9V.6zm-3.4 1.6s.03 1.14 0 1.1c0 .4.1.8.2 1.2c.2.4.3.7.5 1.1c.3.3.5.6.8.8c.3.3.6.5 1 .6l-.5.7c-.5-.2-1-.6-1.4-1.1c-.4-.5-.8-1.1-1-1.7c-.1.3-.2.7-.4 1c-.1.3-.3.6-.5.8c-.2.3-.5.5-.7.7c-.2.2-.5.4-.7.5l-.5-.6c.3-.2.6-.4.9-.7c.3-.3.6-.6.8-.9c.2-.4.4-.8.5-1.2c.1-.4.2-.8.2-1.2c-.01.04 0-1.1 0-1.1h-2.1v-.7h5.1v.7h-2.2zM225.8.6l.9-.1v5.4h-.9V4.6s-2.28.02-2.3 0c-.2.3-.5.5-.8.6c-.3.2-.7.3-1.1.3c-.3 0-.6-.1-.9-.2c-.3-.1-.5-.3-.7-.5c-.3-.2-.4-.4-.5-.7c-.2-.2-.2-.5-.2-.9c0-.3 0-.6.2-.8c.1-.3.2-.5.5-.7c.2-.2.4-.4.7-.5c.3-.1.6-.1.9-.1c.4 0 .8 0 1.1.2c.3.1.6.3.8.6h2.3V.6zm-4.2 4.1c.3 0 .5 0 .7-.1c.1 0 .3-.1.5-.3c.1-.1.2-.3.3-.5c.1-.1.1-.3.1-.6c0-.2 0-.4-.1-.6c-.1-.1-.2-.3-.3-.4c-.2-.1-.4-.2-.5-.3c-.2-.1-.4-.1-.7-.1c-.2 0-.4 0-.6.1c-.2.1-.3.2-.5.3c-.1.1-.2.3-.3.4c-.1.2-.1.4-.1.6c0 .3 0 .5.1.6c.1.2.2.4.3.5c.2.2.3.3.5.3c.2.1.4.1.6.1zm2.4-1.5c0 .3 0 .6-.1.7c-.01.04 1.9 0 1.9 0V2.6s-1.91-.04-1.9 0c.1.1.1.4.1.6zm-3.4 3.9v-.7h6.1v3.3h-.9V7.1h-5.2zM235 2.9h-2.3c-.6 1.5-1.9 2.5-3.9 3.1l-.4-.6c1.2-.4 2-.8 2.7-1.4c.6-.6 1-1.3 1-2.1h-3.2v-.7s4.15.03 4.1 0v.5c0 .2 0 .4-.1.5c.05.02 2.1 0 2.1 0V.6h.9v5.4h-.9V4.8h-2.4v-.7h2.4V2.9zm-2.1 3.2c.4 0 .9.1 1.2.1c.4.1.7.2 1 .4c.2.1.4.3.6.5c.1.3.2.5.2.8c0 .3-.1.5-.2.7l-.6.6c-.3.1-.6.2-1 .3c-.3.1-.8.1-1.2.1c-.5 0-.9 0-1.3-.1c-.4-.1-.7-.2-.9-.3c-.3-.2-.5-.4-.6-.6c-.2-.2-.3-.4-.3-.7c0-.3.1-.5.3-.8c.1-.2.3-.4.6-.5c.2-.2.5-.3.9-.4c.4 0 .8-.1 1.3-.1zm0 2.9c.7 0 1.2-.1 1.6-.3c.4-.2.6-.5.6-.8c0-.4-.2-.6-.6-.8c-.4-.2-.9-.3-1.6-.3c-.7 0-1.2.1-1.6.3c-.4.2-.6.4-.6.8c0 .3.2.6.6.8c.4.2.9.3 1.6.3zM244.5.5h.8v9.2h-.8V.5zm-1.9 3.3V.7h.8v8.5h-.8V4.5h-1.5v-.7h1.5zm-2.4-1.5v.8c0 .4 0 .8.1 1.2c.1.4.2.8.4 1.1c.2.3.4.7.6.9c.2.3.5.5.8.7l-.5.6c-.4-.2-.8-.6-1.1-1.1c-.3-.4-.6-.9-.7-1.5c-.2.6-.4 1.2-.7 1.7c-.4.5-.7.9-1.2 1.2l-.5-.7c.3-.2.6-.4.8-.7c.3-.3.5-.6.7-1c.1-.3.3-.7.4-1.1c0-.4.1-.9.1-1.3c-.02.02 0-.8 0-.8h-1.8v-.7h4.2v.7h-1.6zm14-1.1v.6H249v-.6h2.2v-.8h.8v.8h2.2zm1.7 1.7h1.3v.7h-1.3v2.3h-.9V.5h.9v2.4zm-1.4 1.9v.6c-.5.1-1 .1-1.5.2c-.5 0-1 .1-1.5.1h-2.7l-.1-.6h2.5v-.6c-.6 0-1-.1-1.3-.3c-.3-.3-.5-.5-.5-.9c0-.4.2-.7.6-.9c.4-.2.9-.3 1.6-.3c.6 0 1.2.1 1.5.3c.4.2.6.5.6.9c0 .4-.1.6-.4.8c-.4.2-.8.4-1.3.4v.5h1.3c.4-.1.8-.1 1.2-.2zm-4.3-1.5c0 .2.2.4.4.5c.2.1.6.2 1 .2c.4 0 .7-.1 1-.2c.2-.1.3-.3.3-.5c0-.2-.1-.3-.3-.5c-.3-.1-.6-.1-1-.1c-.4 0-.8 0-1 .1c-.2.2-.4.3-.4.5zm.6 4.9v.8h5.4v.6H250v-2h5v-.7h-5.1v-.6h6v1.9h-5.1zM264.6 6V3.2h-2v-.7h2V.6h.9v5.4h-.9zm-1.3-1.1l-.4.6c-.5-.2-1-.4-1.4-.8c-.3-.3-.6-.7-.8-1.2c-.2.5-.5 1-.9 1.4c-.4.4-.9.7-1.4.9l-.5-.7c.4-.1.7-.3 1-.5c.3-.2.5-.4.7-.7c.2-.3.4-.6.5-.9c.1-.3.2-.7.2-1c-.05 0 0-.9 0-.9h.8s-.01.87 0 .9c0 .3 0 .6.1.9c.2.3.3.6.5.8c.2.3.4.5.7.7c.3.2.6.4.9.5zm-.8 1.3c.4 0 .9.1 1.2.1c.4.1.7.2 1 .4c.3.1.5.3.6.5c.1.2.2.5.2.8c0 .2-.1.5-.2.7c-.1.2-.3.4-.6.5c-.3.2-.6.3-1 .4c-.3 0-.8.1-1.2.1c-.5 0-.9-.1-1.3-.1c-.4-.1-.7-.2-1-.4c-.2-.1-.4-.3-.6-.5c-.1-.2-.2-.5-.2-.7c0-.3.1-.6.2-.8c.2-.2.4-.4.6-.5c.3-.2.6-.3 1-.4c.4 0 .8-.1 1.3-.1zm0 2.8c.7 0 1.2-.1 1.6-.3c.4-.2.6-.4.6-.7c0-.4-.2-.7-.6-.8c-.4-.2-.9-.3-1.6-.3c-.7 0-1.3.1-1.7.3c-.4.1-.5.4-.5.8c0 .3.1.5.5.7c.4.2 1 .3 1.7.3zm13.1-4.6v.7h-1.4v4.6h-.9V.5h.9v3.9h1.4zm-3-2.7v.6h-5.4v-.6h2.3V.6h.8v1.1h2.3zm-2.3 4.5v1c.5 0 .9-.1 1.3-.1c.4 0 .8-.1 1.2-.1v.6c-.4.1-.9.1-1.4.2c-.6 0-1 .1-1.5.1c-.5 0-1 0-1.5.1h-1.3l-.1-.7c.4 0 .8 0 1.2-.1h1.3v-1c-.5 0-1-.2-1.3-.5c-.3-.3-.4-.7-.4-1.2c0-.2 0-.4.1-.6c.1-.3.3-.4.5-.6l.6-.3c.3-.1.6-.1.9-.1c.3 0 .6 0 .9.1c.3.1.5.2.7.3c.2.2.3.3.4.6c.1.2.2.4.2.6c0 .5-.2.9-.5 1.2c-.3.3-.7.5-1.3.5zm-1.7-1.7c0 .4.1.6.3.8c.3.2.6.3 1 .3c.4 0 .8-.1 1-.3c.3-.2.4-.4.4-.8c0-.3-.1-.5-.4-.7c-.2-.2-.6-.3-1-.3c-.4 0-.7.1-1 .3c-.2.2-.3.4-.3.7zm14.1-2.4v-.7h-5.4v-.6h6.2v1.9h-5.3v.8h5.5v.6h-6.3v-2h5.3zm-6.4 2.7h8.3v.6h-8.3v-.6zm1.8 3.3v.9h5.8v.6h-6.6V7.5h5.4v-.7h-5.4v-.6h6.3v1.9h-5.5zM294.2.6h.9v9.1h-.9V.6zm-3.6 4.1c-.4 0-.7 0-1-.1c-.3-.1-.5-.2-.7-.4c-.2-.2-.4-.3-.5-.6c-.1-.2-.2-.5-.2-.7c0-.3.1-.6.2-.8c.1-.2.3-.4.5-.6c.2-.2.4-.3.7-.4c.3-.1.6-.1 1-.1c.3 0 .6 0 .9.1c.3.1.5.2.7.4c.2.2.4.4.5.6c.1.2.2.5.2.8c0 .2-.1.5-.2.7c-.1.3-.3.4-.5.6c-.2.2-.4.3-.7.4c-.3.1-.6.1-.9.1zm0-3c-.5 0-.8.1-1.1.3c-.3.2-.5.5-.5.9c0 .3.2.6.5.8c.3.2.6.3 1.1.3c.4 0 .8-.1 1.1-.3c.2-.2.4-.5.4-.8c0-.4-.2-.7-.4-.9c-.3-.2-.7-.3-1.1-.3zm3 3.5v.6c-.8.2-1.7.3-2.6.3c.03.01 0 3.3 0 3.3h-.8V6.2h-2.5l-.2-.7h2.9c.6-.1 1.1-.1 1.6-.1c.6-.1 1.1-.1 1.6-.2zm8.6-3.5v.6h-5.4v-.6h2.3V.6h.8v1.1h2.3zm1.6 1.9h1.4v.7h-1.4v3.1h-.8V.6h.8v3zm-2.1.9c0 .3-.1.5-.2.7c-.1.3-.2.4-.4.6c-.2.1-.5.2-.7.3c-.3.1-.6.1-.9.1c-.4 0-.7 0-.9-.1c-.3-.1-.5-.2-.7-.3c-.2-.2-.3-.3-.5-.6c-.1-.2-.1-.4-.1-.7c0-.2 0-.5.1-.7l.5-.5c.2-.1.4-.3.7-.3c.2-.1.5-.2.9-.2c.3 0 .6.1.9.2c.2 0 .5.2.7.3c.2.2.3.3.4.5c.1.2.2.5.2.7zm-3.6 0c0 .4.1.6.4.8c.2.2.5.3 1 .3c.4 0 .7-.1 1-.3c.2-.2.4-.4.4-.8c0-.3-.2-.5-.4-.7c-.3-.2-.6-.3-1-.3c-.5 0-.8.1-1 .3c-.3.2-.4.4-.4.7zm.9 2.4v1.9h5.3v.7h-6.1V6.9h.8zM315.5.6v6.5h-.8V.6h.8zm-2.7.7v4.3h-4.3V1.3h4.3zm-.9 3.6V2h-2.6v2.9h2.6zm-1.4 3.8h5.3v.7h-6.2V6.5h.9v2.2zm9.2-4v1h-.9v-1h.9zm9.7-1.2h1.3v.7h-1.3v3.2h-.8V.5h.8v3zm-2.3.9h-.8c.1-.6.1-1 .2-1.4V1.9c.01.04-3.7 0-3.7 0v-.6h4.5s.03.43 0 .4v1.2c0 .4-.1.9-.2 1.5zm.9.6v.6c-.5.1-.9.2-1.4.2c-.5.1-1 .1-1.5.1c-.5 0-1 .1-1.5.1h-1.3l-.1-.7h2c-.04-.03 0-2 0-2h.8v1.9h1.5c.5-.1 1-.1 1.5-.2zm-3.5 1.8v2h5.2v.7h-6.1V6.8h.9zm14.2-5.3v.6h-5.1v-.6h2.2V.4h.8v1.1h2.1zm1.5-.9h.9v5.3h-.9v-.8h-1.5v-.6h1.5V3.4h-1.5v-.7h1.5V.6zm-2 3.6c0 .3 0 .5-.1.7c-.1.2-.3.4-.5.5c-.1.2-.4.3-.6.4c-.3 0-.5.1-.8.1c-.3 0-.6-.1-.9-.1c-.2-.1-.5-.2-.6-.4c-.2-.1-.4-.3-.5-.5c-.1-.2-.1-.4-.1-.7c0-.2 0-.4.1-.6c.1-.2.3-.4.5-.6c.1-.1.4-.2.6-.3c.3-.1.6-.1.9-.1c.3 0 .5 0 .8.1c.2.1.5.2.6.3c.2.2.4.4.5.6c.1.2.1.4.1.6zm-3.3 0c0 .3.1.6.3.8c.3.2.6.2 1 .2c.3 0 .7 0 .9-.2c.2-.2.3-.5.3-.8c0-.3-.1-.5-.3-.7c-.2-.2-.6-.3-.9-.3c-.4 0-.7.1-1 .3c-.2.2-.3.4-.3.7zm5.4 3.1v-.9h.8v3.2h-5.9V6.4h.8v.9h4.3zm0 1.6v-1H336v1h4.3zm9.1-8.3h.9v5.6h-.9V4.5h-1.8v-.7h1.8V2.6h-1.8v-.7h1.8V.6zm-1.8 4.3v.6c-.2.1-.5.1-.8.1c-.2.1-.5.1-.8.1h-1c-.4 0-.8.1-1.2.1c-.03-.05-.7 0-.7 0V3h3.1V1.8h-3.1v-.7h3.9v2.6h-3.1s.03 1.37 0 1.4h1.2c.3 0 .6-.1.9-.1h.8c.2-.1.5-.1.8-.1zm-3.5 2.4v-.6h6.2v3h-.9V7.3h-5.3zm16.4-3v.6h-1.6v4.8h-.8V.6h.8v3.7h1.6zm-5.5-3s-.02 1.68 0 1.7c0 .4 0 .8.2 1.2c.1.4.3.7.5 1.1c.2.3.4.7.7.9c.3.3.6.5.9.7l-.5.7c-.5-.3-.9-.7-1.3-1.2c-.4-.5-.7-1-.9-1.7c-.2.7-.5 1.3-.9 1.8c-.4.5-.9 1-1.4 1.2l-.5-.6c.3-.2.6-.4.9-.7c.3-.3.6-.6.8-1c.2-.4.3-.8.5-1.2c.1-.4.2-.8.2-1.2c-.05-.02 0-1.7 0-1.7h.8zm12.8-.7h.8v4.9h-.8V3.4h-1.9c-.1.6-.3 1-.7 1.3c-.4.3-1 .5-1.6.5c-.4 0-.7 0-1-.2c-.2-.1-.5-.2-.7-.4c-.2-.2-.4-.4-.5-.7c-.1-.2-.2-.5-.2-.8c0-.3.1-.6.2-.9c.1-.2.3-.5.5-.6c.2-.2.5-.4.7-.5c.3-.1.6-.1 1-.1c.3 0 .6 0 .8.1c.3.1.5.2.7.4c.3.1.4.3.6.5c.1.2.2.5.2.7c.01.02 1.9 0 1.9 0V.6zm-4.2 3.9c.2 0 .4 0 .6-.1c.2-.1.4-.2.5-.3c.1-.1.3-.3.3-.4c.1-.2.1-.4.1-.6c0-.2 0-.4-.1-.6c0-.2-.2-.3-.3-.4c-.1-.2-.3-.3-.5-.3c-.2-.1-.4-.1-.6-.1c-.2 0-.4 0-.6.1c-.2 0-.4.1-.5.3c-.2.1-.3.2-.4.4c0 .2-.1.4-.1.6c0 .2.1.4.1.6c.1.1.2.3.4.4c.1.1.3.2.5.3c.2.1.4.1.6.1zm4.2 2.6V5.9h.8v3.7h-5.8V5.9h.8v1.2h4.2zm0 1.8V7.7h-4.2v1.2h4.2zm6.6-7.8c.5 0 .9.1 1.3.2c.4.1.8.3 1.1.5c.3.2.5.5.7.8c.1.3.2.7.2 1c0 .4-.1.8-.2 1.1c-.2.3-.4.6-.7.8c-.3.2-.7.4-1.1.5c-.4.1-.8.2-1.3.2c-.5 0-.9-.1-1.3-.2c-.4-.1-.8-.3-1.1-.5c-.3-.2-.5-.5-.7-.8c-.1-.3-.2-.7-.2-1.1c0-.3.1-.7.2-1c.2-.3.4-.6.7-.8c.3-.2.7-.4 1.1-.5c.4-.1.8-.2 1.3-.2zm0 .7c-.4 0-.7 0-1 .1c-.3.1-.6.2-.8.4c-.2.2-.4.4-.5.6c-.2.2-.2.5-.2.7c0 .3 0 .6.2.8c.1.2.3.4.5.6c.2.1.5.3.8.4c.3 0 .6.1 1 .1c.4 0 .7-.1 1-.1c.3-.1.6-.3.8-.4c.2-.2.4-.4.5-.6c.2-.2.2-.5.2-.8c0-.2 0-.5-.2-.7c-.1-.2-.3-.4-.5-.6c-.2-.2-.5-.3-.8-.4c-.3-.1-.6-.1-1-.1zm-4.1 6h8.3v.7h-8.3v-.7zm13.7.1h3.8v.7h-8.4v-.7h3.8V6.2h-2.7V3.3h5.4V1.9h-5.4v-.7h6.2v2.8h-5.4v1.5h5.6v.7H384v1.7z" stroke="none" fill="#111111"/></g></svg>