<?xml version="1.0" standalone="no"?><!DOCTYPE svg PUBLIC "-//W3C//DTD SVG 1.1//EN" "http://www.w3.org/Graphics/SVG/1.1/DTD/svg11.dtd"><svg xmlns="http://www.w3.org/2000/svg" version="1.1" width="414.3px" height="26.8px" viewBox="0 -3 414.3 26.8" style="top:-3px"><desc>기프트카 캠페인</desc><defs/><g id="Polygon97712"><path d="m11.8.9h1.7v15.4h-1.7V.9zM1.7 2.5s7.31.03 7.3 0c0 1.2-.1 2.3-.4 3.3c-.2 1.1-.6 2.1-1.2 3c-.5.9-1.3 1.8-2.2 2.6c-.9.8-2 1.5-3.3 2.1L1 12.1c2-.9 3.5-2.1 4.5-3.5c1-1.3 1.6-2.9 1.7-4.6c.01-.04-5.5 0-5.5 0V2.5zm18.1 6.3v-5h-2.2V2.4h11.5v1.4h-2.3v5h2.3v1.4H17.6V8.8h2.2zm5.3 0v-5h-3.5v5h3.5zm-8.7 4.1h13.9v1.5H16.4v-1.5zM44.3 9v1.4H33.7V2.2h10.5v1.4h-8.7v1.9h8.4v1.4h-8.4v2.1h8.8zM32 13h13.9v1.4H32V13zm29.7-6v1.4h-2.3v7.9h-1.7V.9h1.7v6.1h2.3zM48.5 2.4s6.95.05 7 0c0 1.2-.1 2.3-.3 3.4c-.2 1-.6 2.1-1.1 3c-.5 1-1.2 1.9-2.1 2.7c-.9.9-2.1 1.7-3.5 2.4l-.9-1.4c1.3-.7 2.4-1.4 3.3-2.2c.8-.8 1.4-1.7 1.9-2.6c-.02-.03-4.9.4-4.9.4l-.2-1.5s5.61-.33 5.6-.3c.2-.8.4-1.6.4-2.4c.02-.02-5.2 0-5.2 0V2.4zM78.1.9h1.7v9h-1.7V6.1h-1.7v3.7h-1.6V1.2h1.6v3.5h1.7V.9zm-10.5 1s6.01.02 6 0c0 1-.1 1.9-.3 2.7c-.2.8-.6 1.6-1.1 2.3c-.4.7-1.1 1.3-1.8 1.9c-.8.6-1.7 1.1-2.7 1.5L66.9 9c1-.4 1.8-.8 2.5-1.3c.6-.5 1.1-1.1 1.5-1.7l-3.8.4l-.2-1.4l4.7-.3c0-.2.1-.4.1-.7c.1-.2.1-.4.1-.7c.04.03-4.2 0-4.2 0V1.9zm2 14.2v-5.5h10.2v5.5H69.6zm1.7-4.1v2.7h6.8V12h-6.8zM93.9.9h1.7v15.4h-1.7V.9zm-3 5.7V1.3h1.6v14.2h-1.6V8.2h-1.8V6.6h1.8zm-2.6-2.4s.05 6.77 0 6.8c.3-.1.5-.1.8-.1c.2 0 .4-.1.7-.1l.1 1.3c-.6.1-1.2.2-1.9.3c-.7 0-1.4.1-2 .1c-.7.1-1.3.1-1.9.1h-1.7l-.2-1.4h1.4v-7h-1.1V2.8h7v1.4h-1.2zm-3.1 0v6.9h1.6c-.05-.03 0-6.9 0-6.9h-1.6zM110.6.9v11.2h-1.8V.9h1.8zm-4.2 4.9c0 .5-.2 1-.4 1.5c-.2.5-.4.9-.8 1.2c-.4.4-.8.6-1.3.8c-.5.2-1 .3-1.6.3c-.6 0-1.1-.1-1.6-.3c-.5-.2-1-.4-1.3-.8c-.4-.3-.7-.7-.9-1.2c-.2-.5-.3-1-.3-1.5c0-.6.1-1.1.3-1.6c.2-.4.5-.9.9-1.2c.3-.3.8-.6 1.3-.8c.5-.2 1-.3 1.6-.3c.6 0 1.1.1 1.6.3c.5.2.9.5 1.3.8c.4.3.6.8.8 1.2c.2.5.4 1 .4 1.6zm-6.5 0c0 .7.2 1.2.7 1.7c.4.4 1 .6 1.7.6c.3 0 .6 0 .9-.2c.3-.1.6-.2.8-.4c.2-.2.4-.5.5-.8c.1-.3.2-.6.2-.9c0-.4-.1-.7-.2-1c-.1-.3-.3-.5-.5-.7c-.2-.2-.5-.4-.8-.5c-.3-.1-.6-.1-.9-.1c-.7 0-1.3.2-1.7.6c-.5.4-.7 1-.7 1.7zm2.4 8.8h8.7v1.4h-10.5v-5.1h1.8v3.7z" stroke="none" fill="#111111"/></g></svg>