<?xml version="1.0" standalone="no"?><!DOCTYPE svg PUBLIC "-//W3C//DTD SVG 1.1//EN" "http://www.w3.org/Graphics/SVG/1.1/DTD/svg11.dtd"><svg xmlns="http://www.w3.org/2000/svg" version="1.1" width="390px" height="91.3px" viewBox="0 -2 390 91.3" style="top:-2px"><desc>현대자동차그룹은 플라스틱 폐장난감을 수거해 업사이클링에 활용하는 사회적기업 ‘그린무브공작소’를 2020년 7월 설립, 지속적으로 지원하고 있다. 장난감은 복합플라스틱으로 이루어진 경우가 많아 다른 플라스틱 폐기...</desc><defs/><g id="Polygon96757"><path d="m7.7 74.8v3.7H1.6v-3.7h.9v1.2h4.4v-1.2h.8zm-.8 3v-1.2H2.5v1.2h4.4zM.5 79.4h8.3v.6H5.2v1.8h-.9V80H.5v-.6zM2.4 81v1.8h5.5v.7H1.6V81h.8zm14.3-6.5h.8v9.2h-.8v-4.6h-1.2v4.1h-.8v-8.5h.8v3.7h1.2v-3.9zm-4.3.3v1.3h1.8v.7H9.7v-.7h1.9v-1.3h.8zm-.4 2.6c.3 0 .5 0 .8.1c.2.2.4.3.6.5c.2.2.3.4.4.6c.1.3.1.6.1.9c0 .3 0 .6-.1.8c-.1.3-.2.5-.4.7c-.2.2-.4.3-.6.4c-.3.1-.5.2-.8.2c-.3 0-.6-.1-.8-.2c-.2-.1-.4-.2-.6-.4c-.2-.2-.3-.4-.4-.7c-.1-.2-.2-.5-.2-.8c0-.3.1-.6.2-.9c.1-.2.2-.4.4-.6c.2-.2.4-.3.6-.5c.2-.1.5-.1.8-.1zm0 3.5c.3 0 .6-.2.9-.4c.2-.3.3-.6.3-1c0-.2 0-.4-.1-.6c-.1-.1-.1-.3-.2-.4c-.1-.1-.3-.2-.4-.3c-.2-.1-.3-.1-.5-.1c-.4 0-.7.1-.9.4c-.2.2-.3.6-.3 1c0 .4.1.7.3 1c.2.2.5.4.9.4zm13.8-6.4h.9v9.2h-.9v-4.6h-1.1v4.1h-.8v-8.5h.8v3.7h1.1v-3.9zm-4.2.3v1.3h1.8v.7h-4.5v-.7h1.8v-1.3h.9zm-.4 2.6c.3 0 .5 0 .8.1c.2.2.4.3.6.5c.1.2.3.4.4.6c.1.3.1.6.1.9c0 .3 0 .6-.1.8c-.1.3-.3.5-.4.7c-.2.2-.4.3-.6.4c-.3.1-.5.2-.8.2c-.3 0-.6-.1-.8-.2c-.3-.1-.5-.2-.6-.4c-.2-.2-.3-.4-.4-.7c-.1-.2-.2-.5-.2-.8c0-.3.1-.6.2-.9c.1-.2.2-.4.4-.6c.1-.2.3-.3.6-.5c.2-.1.5-.1.8-.1zm0 3.5c.3 0 .6-.2.8-.4c.3-.3.4-.6.4-1c0-.2-.1-.4-.1-.6c-.1-.1-.2-.3-.3-.4l-.3-.3c-.2-.1-.4-.1-.5-.1c-.4 0-.7.1-.9.4c-.2.2-.3.6-.3 1c0 .4.1.7.3 1c.2.2.5.4.9.4zm15.7-6.3h.8v4.9h-.8v-2.1H35c-.1.6-.3 1-.8 1.3c-.4.3-.9.5-1.5.5c-.4 0-.7 0-1-.2c-.3-.1-.5-.2-.7-.4c-.2-.2-.4-.4-.5-.7c-.1-.2-.2-.5-.2-.8c0-.3.1-.6.2-.9c.1-.2.3-.5.5-.6c.2-.2.4-.4.7-.5c.3-.1.6-.1 1-.1c.3 0 .6 0 .8.1c.3.1.5.2.7.4c.2.1.4.3.5.5c.2.2.2.5.3.7c-.01.02 1.9 0 1.9 0v-2.1zm-4.2 3.9c.2 0 .4 0 .6-.1c.2-.1.3-.2.5-.3c.1-.1.2-.3.3-.4c.1-.2.1-.4.1-.6c0-.2 0-.4-.1-.6c-.1-.2-.2-.3-.3-.4c-.2-.2-.3-.3-.5-.3c-.2-.1-.4-.1-.6-.1c-.3 0-.5 0-.7.1c-.2 0-.3.1-.5.3c-.1.1-.2.2-.3.4c-.1.2-.1.4-.1.6c0 .2 0 .4.1.6c.1.1.2.3.3.4c.2.1.3.2.5.3c.2.1.4.1.7.1zm4.2 2.6v-1.2h.8v3.7h-5.9v-3.7h.9v1.2h4.2zm0 1.8v-1.2h-4.2v1.2h4.2zm11-4.6v.6h-1.5v4.8h-.9v-9.1h.9v3.7h1.5zm-5.5-3s.01 1.68 0 1.7c0 .4.1.8.2 1.2c.1.4.3.7.5 1.1c.2.3.5.7.7.9c.3.3.6.5.9.7l-.5.7c-.5-.3-.9-.7-1.3-1.2c-.4-.5-.7-1-.9-1.7c-.2.7-.5 1.3-.9 1.8c-.4.5-.9 1-1.4 1.2l-.5-.6c.4-.2.7-.4 1-.7c.2-.3.5-.6.7-1c.2-.4.4-.8.5-1.2c.1-.4.2-.8.2-1.2c-.01-.02 0-1.7 0-1.7h.8zm12.8-.8h.8v9.2h-.8v-9.2zm-4 .7c.3 0 .6.1.9.3c.3.1.6.3.8.6c.2.3.3.6.4 1c.2.4.2.8.2 1.3c0 .5 0 1-.2 1.4c-.1.3-.2.7-.4 1c-.2.2-.5.5-.8.6c-.3.2-.6.2-.9.2c-.4 0-.7 0-1-.2c-.2-.1-.5-.4-.7-.6c-.2-.3-.4-.7-.5-1c-.1-.4-.1-.9-.1-1.4c0-.5 0-.9.1-1.3c.1-.4.3-.7.5-1c.2-.3.5-.5.7-.6c.3-.2.6-.3 1-.3zm0 .8c-.2 0-.4.1-.6.2c-.2.1-.4.3-.5.5c-.2.2-.3.4-.3.7c-.1.3-.1.7-.1 1c0 .4 0 .7.1 1c0 .3.1.6.3.8c.1.2.3.4.5.5c.2.1.4.2.6.2c.2 0 .4-.1.6-.2c.2-.1.3-.3.5-.5c.1-.2.2-.5.3-.8c.1-.3.1-.6.1-1c0-.3 0-.7-.1-1c-.1-.3-.2-.5-.3-.7c-.2-.2-.3-.4-.5-.5c-.2-.1-.4-.2-.6-.2zm13.5 2.3c.02-.02 1.3 0 1.3 0v.7h-8.3v-.7s6.17-.02 6.2 0c0-.2.1-.4.1-.6c0-.2 0-.4.1-.6c-.04.02-5.5.3-5.5.3l-.1-.7s5.6-.17 5.6-.2v-.9h-5.3v-.6h6.1s.03.67 0 .7v1.1c0 .5-.1.9-.2 1.5zM59.5 82v.9h5.8v.7h-6.6v-2.3h5.5v-.8h-5.5v-.7h6.3v2.2h-5.5zm14.9-7.5v5.7h-.8v-5.7h.8zm-2 4.1l.1.7c-.3.1-.7.1-1.1.2c-.3 0-.7 0-1 .1h-3V77h3.3v-1.2h-3.4v-.7h4.2v2.5h-3.3s-.02 1.33 0 1.3h2.2c.3 0 .7-.1 1-.1c.3 0 .7-.1 1-.2zm-1 1.8c.4 0 .9 0 1.2.1c.4.1.7.2 1 .3c.3.1.5.3.6.5c.2.2.2.5.2.7c0 .5-.2 1-.8 1.2c-.5.3-1.3.5-2.2.5c-1 0-1.7-.2-2.3-.5c-.5-.2-.8-.7-.8-1.2c0-.5.3-.9.8-1.2c.5-.3 1.3-.4 2.3-.4zm0 2.6c.7 0 1.2-.1 1.6-.2c.4-.2.6-.5.6-.8c0-.3-.2-.5-.6-.7c-.4-.2-.9-.3-1.6-.3c-.7 0-1.3.1-1.7.3c-.4.2-.6.4-.6.7c0 .3.2.6.6.8c.4.1 1 .2 1.7.2zM83 74.5h.8v9.2h-.8v-9.2zm-1.8 3.6v-3.4h.8v8.5h-.8v-4.4s-1.13-.02-1.1 0c-.1.4-.1.8-.2 1.2c-.1.3-.2.7-.4.9c-.2.3-.4.4-.6.6c-.2.1-.5.2-.8.2c-.3 0-.5-.1-.8-.2c-.2-.2-.4-.4-.6-.7c-.2-.3-.3-.6-.4-1c-.1-.4-.1-.8-.1-1.3c0-.5 0-1 .1-1.3c.1-.4.2-.8.4-1c.2-.3.4-.5.6-.7c.3-.1.5-.2.8-.2c.3 0 .6.1.8.2c.2.1.4.3.6.6c.1.2.3.5.4.8c.1.4.1.8.2 1.2h1.1zm-3.1 2.8c.4 0 .7-.2.9-.6c.2-.5.3-1.1.3-1.8c0-.4 0-.7-.1-1c0-.3-.1-.6-.2-.8c-.1-.2-.2-.3-.4-.5c-.1-.1-.3-.1-.5-.1c-.3 0-.6.2-.8.6c-.3.5-.4 1-.4 1.8c0 .7.1 1.3.4 1.8c.2.4.5.6.8.6zm14.7-5.7v.6h-5.3v-.6h2.2v-.8h.9v.8h2.2zm1.6 1.7h1.4v.7h-1.4v2.3h-.8v-5.4h.8v2.4zM93 78.8l.1.6c-.5.1-1 .1-1.5.2c-.5 0-1 .1-1.5.1h-2.7l-.1-.6h2.4v-.6c-.5 0-.9-.1-1.2-.3c-.4-.3-.5-.5-.5-.9c0-.4.2-.7.6-.9c.4-.2.9-.3 1.5-.3c.7 0 1.2.1 1.6.3c.4.2.6.5.6.9c0 .4-.2.6-.5.8c-.3.2-.7.4-1.2.4v.5h1.2c.4-.1.8-.1 1.2-.2zm-4.2-1.5c0 .2.1.4.4.5c.2.1.5.2.9.2c.4 0 .8-.1 1-.2c.3-.1.4-.3.4-.5c0-.2-.1-.3-.4-.5c-.2-.1-.6-.1-1-.1c-.4 0-.7 0-.9.1c-.3.2-.4.3-.4.5zm.5 4.9v.8h5.5v.6h-6.3v-2h5.1v-.7h-5.1v-.6h5.9v1.9h-5.1zm13.4-3.1h2.1v.6h-8.3v-.6h2s.04-1.32 0-1.3c-.7-.3-1.1-.8-1.1-1.4c0-.3.1-.5.2-.7c.2-.2.4-.4.7-.5c.3-.2.6-.3 1-.4c.4-.1.8-.1 1.3-.1c.5 0 1 0 1.4.1c.4.1.7.2 1 .4c.3.1.5.3.6.5c.2.2.2.4.2.7c0 .3-.1.6-.2.8c-.2.2-.5.4-.9.6c.03-.03 0 1.3 0 1.3zm-4.4-2.7c0 .3.2.6.6.8c.4.2 1 .3 1.7.3c.8 0 1.4-.1 1.8-.3c.4-.2.6-.5.6-.8c0-.3-.2-.6-.6-.8c-.4-.2-1-.2-1.8-.2c-.7 0-1.3 0-1.7.2c-.4.2-.6.5-.6.8zm1.1 1.6c-.03 0 0 1.1 0 1.1h2.5s.01-1.1 0-1.1c-.2 0-.4.1-.6.1H100c-.2 0-.4-.1-.6-.1zm1.2 2.4c1 0 1.8.2 2.3.4c.6.3.9.7.9 1.3c0 .5-.3.9-.9 1.2c-.5.2-1.3.4-2.3.4c-1 0-1.7-.2-2.3-.4c-.5-.3-.8-.7-.8-1.2c0-.6.3-1 .8-1.3c.6-.2 1.3-.4 2.3-.4zm0 2.6c.8 0 1.3 0 1.7-.2c.4-.2.6-.4.6-.7c0-.4-.2-.6-.6-.8c-.4-.1-.9-.2-1.7-.2c-.7 0-1.2.1-1.7.2c-.4.2-.6.4-.6.8c0 .3.2.5.6.7c.5.2 1 .2 1.7.2zm4.7.7l.4-2.1h.9l-.6 2.1h-.7zm12.5-4.8H114v1.7h2.8v3.1h-.9v-2.4h-5.5v-.7h2.8v-1.7h-3.7v-.7s6.15.04 6.1 0c.2-.5.2-1 .3-1.4v-1.1c-.01-.05-5.4 0-5.4 0v-.7h6.2s.02.64 0 .6v1.2c0 .4-.1.9-.2 1.4c-.01.04 1.3 0 1.3 0v.7zm7.8-4.4h.8v9.2h-.8V79h-1.3v4.2h-.8v-8.5h.8v3.6h1.3v-3.8zm-5.6 1.2s-.05 4.89 0 4.9c.4 0 .9 0 1.3-.1c.5 0 1-.1 1.6-.2l.1.7l-1.8.3h-2.1v-5.6h.9zm12.1 1.5v-1.7h-1.4v-.7h6.7v.7H136v1.7h1.4v.7h-6.7v-.7h1.4zm3.1 0v-1.7h-2.3v1.7h2.3zm-5.3 1.4h8.3v.7h-8.3v-.7zm1.9 3.5v.9h5.6v.6h-6.5v-2.1h5.4v-.8h-5.4v-.6h6.2v2h-5.3zm15.9-3.9v.7h-1.5v4.8h-.9v-9.2h.9v3.7h1.5zm-7.4.5v2.1h1.2c.3 0 .7 0 1-.1c.4 0 .7 0 1-.1c.3 0 .7-.1 1-.1l.1.7c-.4 0-.7.1-1 .1c-.4.1-.7.1-1.1.1c-.3 0-.7.1-1.1.1h-1.9V78h3.3v-1.9h-3.3v-.7h4.1v3.3h-3.3zm15.9.4l-.4.7c-.4 0-.7-.2-1-.3c-.4-.2-.7-.4-1-.6c-.3-.2-.6-.5-.8-.8c-.3-.3-.5-.6-.6-.9c-.1.3-.3.6-.6.9c-.2.3-.5.6-.8.8c-.3.2-.6.4-1 .6c-.3.1-.6.3-1 .3l-.4-.7c.4 0 .8-.2 1.2-.4c.4-.2.8-.4 1.1-.7c.3-.3.6-.6.8-1c.2-.3.3-.7.3-1.1c-.04-.01 0-.7 0-.7h.8s.04.69 0 .7c0 .4.1.7.3 1.1c.2.4.5.7.8 1c.3.3.7.5 1.1.7c.4.2.8.4 1.2.4zm-7.9 2.7h8.3v.7h-8.3v-.7zm15.8-7.3h.9v5.6h-.9v-5.6zm-1 4.2l.1.6c-.4.1-.7.1-1 .2h-1c-.3.1-.7.1-1.1.1H158v-4.4h4.4v.6h-3.6v1.2h3.3v.7h-3.3s.02 1.22 0 1.2h2.4c.3 0 .6-.1.9-.1c.4 0 .7-.1 1-.1zm-4.2 2.5v-.6h6.1v3.1h-.9v-2.5h-5.2zm16.8-6.6h.8v9.1h-.8v-9.1zm-1.7 2.5v-2.3h.8v8.4h-.8v-3.4h-1.2v-.7h1.2v-1.3h-1.2v-.7h1.2zm-1.8-.7s.05 4.25 0 4.3c.2-.1.4-.1.5-.1h.5v.6c-.3 0-.7.1-1.1.1c-.4.1-.8.1-1.2.1h-1.2c-.3.1-.7.1-1 .1c.02-.04-.1-.7-.1-.7c0 0 .72-.04.7 0h.3c-.03-.05 0-4.4 0-4.4h-.8v-.7h4.2v.7h-.8zm-1.9 0s.04 4.34 0 4.3h1.2c-.02-.01 0-4.3 0-4.3h-1.2zm14.3-1.9h.8v9.2h-.8v-9.2zm-6.2 1s4.33.03 4.3 0c0 .7 0 1.3-.2 1.9c-.2.7-.4 1.2-.8 1.8c-.3.5-.7 1-1.3 1.5c-.5.5-1.2.9-1.9 1.3l-.5-.7c1.3-.6 2.2-1.3 2.8-2.2c.6-.8 1-1.8 1.1-2.9h-3.5v-.7zm15.9-.7v2.8h-6.1v-2.8h6.1zm-.8 2.2v-1.5H189v1.5h4.5zm1.9 2.1h-3.8v.9h2.7v2h-5.4v.9h5.7v.7h-6.5v-2.2h5.4v-.8h-5.4v-.6h2.7v-.9h-3.7v-.7h8.3v.7zm7.8-2.5h1.8v-2h.9v4.7h-.9v-2h-1.8v-.7zm.5 1.9l-.4.7c-.5-.2-1-.5-1.3-.8c-.4-.3-.7-.7-.9-1.2c-.2.5-.5.9-.9 1.3c-.4.4-.9.7-1.4.9l-.4-.7c.3-.1.6-.2.9-.4c.3-.2.5-.5.7-.7c.2-.2.4-.5.5-.8c.1-.3.2-.6.2-.9c-.04.04 0-.2 0-.2h-2.1v-.7h4.9v.7h-2v.2c0 .3.1.6.2.8c.1.3.2.6.4.8c.2.2.4.4.7.6c.3.2.6.3.9.4zm-2.9 4.4h5.4v.7H200v-2.3h5v-.9h-5v-.7h5.9v2.2h-5.1v1zm15.2-6.1v.7h-1.4v2.2h-.8v-5.2h.8v2.3h1.4zm-8.1-1.7s4.25.02 4.2 0c0 .6 0 1.1-.2 1.6c-.2.5-.5 1-.9 1.4c-.4.4-.8.7-1.3 1c-.6.3-1.2.5-1.9.7l-.3-.6c1.2-.3 2-.8 2.7-1.4c.6-.5 1-1.2 1.1-2c-.05.01-3.4 0-3.4 0v-.7zm1 8.5v-3.4h5.7v3.4h-5.7zm.8-2.8v2.1h4.1v-2.1h-4.1zm14-6.3h.8v9.2h-.8v-9.2zm-1.8 3.6v-3.4h.8v8.5h-.8v-4.4s-1.18-.02-1.2 0c0 .4-.1.8-.2 1.2c-.1.3-.2.7-.4.9c-.1.3-.3.4-.6.6c-.2.1-.4.2-.7.2c-.3 0-.6-.1-.8-.2c-.3-.2-.5-.4-.6-.7c-.2-.3-.3-.6-.4-1c-.1-.4-.2-.8-.2-1.3c0-.5.1-1 .2-1.3c.1-.4.2-.8.4-1c.1-.3.3-.5.6-.7c.2-.1.5-.2.8-.2c.3 0 .5.1.7.2c.3.1.5.3.6.6c.2.2.3.5.4.8c.1.4.2.8.2 1.2h1.2zm-3.1 2.8c.3 0 .6-.2.8-.6c.3-.5.4-1.1.4-1.8c0-.4-.1-.7-.1-1c-.1-.3-.2-.6-.3-.8c-.1-.2-.2-.3-.3-.5c-.2-.1-.3-.1-.5-.1c-.4 0-.7.2-.9.6c-.2.5-.3 1-.3 1.8c0 .7.1 1.3.3 1.8c.2.4.5.6.9.6zm15.8-6.4h.9v9.2h-.9v-9.2zm-6.1 1s4.29.03 4.3 0c0 .7-.1 1.3-.2 1.9c-.2.7-.4 1.2-.8 1.8c-.3.5-.8 1-1.3 1.5c-.5.5-1.2.9-2 1.3l-.4-.7c1.2-.6 2.2-1.3 2.8-2.2c.6-.8 1-1.8 1-2.9h-3.4v-.7zm15.4-1h.8v9.2h-.8v-3.5s-2.33-.04-2.3 0c-.2.4-.5.8-.8 1c-.4.3-.8.4-1.2.4c-.3 0-.6 0-.9-.2c-.3-.1-.5-.4-.7-.6c-.2-.3-.4-.7-.5-1c-.1-.4-.2-.9-.2-1.4c0-.5.1-.9.2-1.3c.1-.4.3-.7.5-1c.2-.3.4-.5.7-.6c.3-.2.6-.3.9-.3c.4 0 .8.2 1.1.4c.3.2.6.6.8 1h2.4v-2.1zm-4.3 6.4c.2 0 .4-.1.6-.2c.2-.1.3-.3.5-.5c.1-.2.2-.5.3-.8c0-.3.1-.6.1-1c0-.3-.1-.7-.1-1c-.1-.3-.2-.5-.3-.7c-.2-.2-.3-.4-.5-.5c-.2-.1-.4-.2-.6-.2c-.2 0-.4.1-.6.2c-.2.1-.3.3-.5.5c-.1.2-.2.4-.3.7c-.1.3-.1.7-.1 1c0 .4 0 .7.1 1c.1.3.2.6.3.8c.2.2.3.4.5.5c.2.1.4.2.6.2zm2.3-2.5c0 .5-.1.8-.1 1.1c-.03-.02 2.1 0 2.1 0v-2.2s-2.16-.03-2.2 0c.1.2.1.3.1.5c.1.2.1.4.1.6zm13-.1v.7h-1.5v4.7h-.9v-9.1h.9v3.7h1.5zm-5.5-3.6v1.3h2.3v.7h-5.4v-.7h2.3v-1.3h.8zm-.4 2.7c.3 0 .6.1.9.2c.3.1.5.2.7.4c.2.2.4.4.5.7c.1.3.1.5.1.8c0 .4 0 .6-.1.9c-.1.3-.3.5-.5.7c-.2.2-.4.3-.7.4c-.3.1-.6.1-.9.1c-.3 0-.6 0-.9-.1c-.2-.1-.5-.2-.7-.4c-.2-.2-.3-.4-.4-.7c-.1-.3-.2-.5-.2-.9c0-.3.1-.5.2-.8c.1-.3.2-.5.4-.7c.2-.2.5-.3.7-.4c.3-.1.6-.2.9-.2zm0 3.6c.2 0 .4-.1.6-.2c.2 0 .3-.1.4-.2c.2-.2.3-.3.3-.5c.1-.2.1-.3.1-.6c0-.2 0-.3-.1-.5c0-.2-.1-.3-.3-.5c-.1-.1-.2-.2-.4-.3c-.2 0-.4-.1-.6-.1c-.2 0-.4.1-.6.1c-.1.1-.3.2-.4.3c-.1.2-.2.3-.3.5c-.1.2-.1.3-.1.5c0 .3 0 .4.1.6c.1.2.2.3.3.5c.1.1.3.2.4.2c.2.1.4.2.6.2zm13-4.6c-.03-.03 0-.3 0-.3h-5.6v-.6h6.4v2.7c-.1.4-.1.7-.1 1.1c-.1.4-.2.8-.2 1.3l-.9-.1c.2-.9.3-1.6.3-2.3c.1-.7.1-1.3.1-1.8zm-2.4 5.3h4.2v.7h-8.3v-.7h3.2v-3.3h.9v3.3zm14.7-7.1v5.2h-.9v-5.2h.9zm-4.9 4.7c-.4 0-.7 0-1-.1c-.3-.1-.5-.3-.7-.4c-.3-.2-.4-.5-.5-.7c-.2-.3-.2-.6-.2-.9c0-.3 0-.6.2-.9c.1-.2.2-.4.5-.6c.2-.2.4-.4.7-.5c.3-.1.6-.1 1-.1c.3 0 .6 0 .9.1c.3.1.6.3.8.5c.2.2.4.4.5.6c.1.3.2.6.2.9c0 .3-.1.6-.2.9c-.1.2-.3.5-.5.7c-.2.1-.5.3-.8.4c-.3.1-.6.1-.9.1zm0-3.5c-.3 0-.5 0-.7.1c-.2.1-.3.2-.5.3c-.1.1-.2.3-.3.4c-.1.2-.1.4-.1.6c0 .2 0 .4.1.6c.1.2.2.3.3.4c.2.2.3.3.5.3c.2.1.4.2.7.2c.2 0 .4-.1.6-.2c.2 0 .3-.1.5-.3c.1-.1.2-.2.3-.4c.1-.2.1-.4.1-.6c0-.2 0-.4-.1-.6c-.1-.1-.2-.3-.3-.4c-.2-.1-.3-.2-.5-.3c-.2-.1-.4-.1-.6-.1zm3.9 4.4s-.04.46 0 .5c0 .2 0 .4.1.7l.3.6l.6.6c.2.1.5.2.8.3l-.4.7c-.5-.2-.9-.4-1.2-.7c-.3-.3-.5-.7-.7-1.1c-.1.4-.3.8-.6 1.1c-.3.3-.6.6-1.1.7c-.4-.1-.8-.4-1-.7c-.3-.3-.5-.6-.7-1c-.1.3-.4.7-.7 1c-.3.3-.6.5-1.1.7l-.4-.7c.3-.1.6-.2.8-.4c.2-.1.4-.3.6-.5c.1-.2.3-.4.3-.7c.1-.2.2-.4.2-.6c-.05-.04 0-.5 0-.5h.8s-.04.46 0 .5c0 .4.1.8.3 1.2c.2.4.5.7.9.9c.2-.1.4-.3.6-.4c.2-.2.3-.4.4-.6l.3-.6v-.5c.04-.04 0-.5 0-.5h.9zm11.2-2v.6H283v4.9h-.8v-9.2h.8v3.7h1.5zm-7.3-2.1s-.03 4.61 0 4.6h2.2c.3-.1.6-.1.9-.1c.3-.1.7-.1 1-.2l.1.7c-.4.1-.7.1-1 .2c-.4 0-.7 0-1.1.1h-2.2c-.04.03-.8 0-.8 0v-6h4.3v.7h-3.4zm7.8 7v-1h.9v1h-.9z" stroke="none" fill="#111111"/></g><g id="Polygon96756"><path d="m8.4 59.5l-.3.7l-1.1-.3c-.3-.1-.6-.3-.9-.4c-.3-.2-.6-.4-.8-.7c-.3-.2-.5-.5-.6-.7c-.2.2-.4.5-.6.7c-.2.3-.5.5-.8.7c-.3.1-.6.3-.9.4l-1.1.3l-.3-.7c.4 0 .8-.1 1.2-.3c.4-.2.7-.4 1-.6c.3-.2.6-.5.8-.8c.2-.3.2-.6.2-.9c.04-.02 0-.5 0-.5h.9s.02.48 0 .5c0 .3.1.6.3.9c.2.3.4.6.7.8c.4.2.7.4 1.1.6c.4.2.8.3 1.2.3zm.4 1.7v.7H5.1v3.3h-.9v-3.3H.6v-.7h8.2zm7.6-5.2h.8v9.2h-.8V56zm-5.3 4.2v2.1c.7 0 1.5 0 2.2-.1c.7 0 1.4-.1 2.2-.2l.1.7c-.4 0-.8.1-1.2.1c-.4.1-.7.1-1.1.1c-.4 0-.8.1-1.1.1h-1.9v-3.5h3.3v-1.9h-3.4v-.7h4.3v3.3h-3.4zm18.4-.4v.6H28v4.8h-.8V56h.8v3.8h1.5zm-8-2.8s4.15.02 4.2 0c0 .7-.1 1.3-.3 1.9c-.1.6-.4 1.2-.7 1.8c-.3.5-.8 1-1.3 1.5c-.5.5-1.2.9-1.9 1.3l-.5-.7c1.2-.6 2.1-1.3 2.8-2.2c.6-.8.9-1.8 1-2.9c.03.01-3.3 0-3.3 0v-.7zm16 1.6v.7h-6.2v-3.1h.8v2.4h5.4zm-7.3 1.7h8.2v.7h-8.2v-.7zm4.1 1.5c1 0 1.7.2 2.3.5c.5.3.8.7.8 1.2c0 .5-.3.9-.8 1.2c-.6.3-1.3.5-2.3.5c-1 0-1.7-.2-2.3-.5c-.6-.3-.8-.7-.8-1.2c0-.5.2-.9.8-1.2c.6-.3 1.3-.5 2.3-.5zm0 2.7c.7 0 1.3-.1 1.7-.3c.4-.1.6-.4.6-.7c0-.3-.2-.6-.6-.8c-.4-.1-1-.2-1.7-.2c-.7 0-1.3.1-1.7.2c-.4.2-.6.5-.6.8c0 .3.2.6.6.7c.4.2 1 .3 1.7.3zm10.5-7.3v.6h-5.4v-.6h2.2v-1.1h.9v1.1h2.3zm1.6 1.9h1.4v.7h-1.4v3.1h-.8v-6.8h.8v3zm-2.1.9c0 .3-.1.5-.2.7c-.1.3-.3.4-.4.6c-.2.1-.5.2-.7.3c-.3.1-.6.1-.9.1c-.4 0-.7 0-.9-.1c-.3-.1-.5-.2-.7-.3c-.2-.2-.4-.3-.5-.6c-.1-.2-.1-.4-.1-.7c0-.2 0-.5.1-.7c.1-.2.3-.3.5-.5c.2-.1.4-.3.7-.3c.2-.1.5-.2.9-.2c.3 0 .6.1.9.2c.2 0 .5.2.7.3c.1.2.3.3.4.5c.1.2.2.5.2.7zm-3.6 0c0 .4.1.6.3.8c.3.2.6.3 1.1.3c.4 0 .7-.1 1-.3c.2-.2.4-.4.4-.8c0-.3-.2-.5-.4-.7c-.3-.2-.6-.3-1-.3c-.5 0-.8.1-1.1.3c-.2.2-.3.4-.3.7zm.9 2.4v1.9h5.2v.7h-6.1v-2.6h.9zm16.1-4h1.4v.7h-1.4v2.5h-.8v-5.5h.8v2.3zm-1.8 2.1l-.4.6c-.5-.1-1-.4-1.3-.7c-.4-.4-.7-.8-.9-1.2c-.2.5-.5.9-.9 1.3c-.4.4-.9.7-1.4.9l-.4-.7c.3-.1.6-.3.9-.5c.3-.2.5-.4.7-.6c.2-.3.4-.6.5-.9c.1-.3.2-.6.2-.9c-.04-.05 0-.4 0-.4h-2.1v-.7h4.9v.7h-2v.4c0 .3 0 .5.1.8c.1.3.3.6.5.8c.2.2.4.4.7.6c.3.2.6.4.9.5zm-1.1 1.3c.5 0 .9 0 1.2.1c.4.1.7.2 1 .3c.3.2.5.4.6.6c.1.2.2.4.2.7c0 .3-.1.5-.2.7c-.1.2-.3.4-.6.5c-.3.2-.6.3-1 .4c-.3 0-.7.1-1.2.1c-.9 0-1.7-.2-2.2-.5c-.6-.3-.8-.7-.8-1.2c0-.5.2-1 .8-1.3c.5-.2 1.3-.4 2.2-.4zm0 2.7c.7 0 1.2-.1 1.6-.3c.4-.1.6-.4.6-.7c0-.3-.2-.6-.6-.8c-.4-.1-.9-.2-1.6-.2c-.7 0-1.2.1-1.6.2c-.4.2-.6.5-.6.8c0 .3.2.6.6.7c.4.2.9.3 1.6.3zm12.1-5.7h1.3v.7h-1.3v3.2h-.9v-6.6h.9v2.7zm-1.8 1.1l.1.7c-.8.2-1.5.3-2.2.3c-.7.1-1.4.1-2.1.1h-.7v-4.3h.9s-.04 3.6 0 3.6c.6 0 1.3 0 1.9-.1c.7 0 1.4-.1 2.1-.3zm-3 2.1v2.3h5.1v.7h-6v-3h.9zm15.3-3.7v.7h-1.3v2.2h-.9V56h.9v2.3h1.3zm-8-1.7s4.18.02 4.2 0c0 .6-.1 1.1-.3 1.6c-.2.5-.5 1-.9 1.4c-.3.4-.8.7-1.3 1c-.5.3-1.1.5-1.8.7l-.3-.6c1.1-.3 2-.8 2.6-1.4c.6-.5 1-1.2 1.1-2c-.02.01-3.3 0-3.3 0v-.7zm.9 8.5v-3.4h5.8v3.4h-5.8zm.8-2.8v2.1h4.1v-2.1h-4.1zM84.8 56h.8v9.2h-.8V56zm-3.7.7c.4 0 .7.1 1 .2c.3.1.6.2.8.4c.2.2.4.4.5.7c.1.3.2.5.2.9c0 .3-.1.6-.2.8c-.1.3-.3.5-.5.7c-.2.2-.5.4-.8.5c-.3.1-.6.1-1 .1c-.3 0-.7 0-1-.1c-.3-.1-.5-.3-.7-.5c-.3-.2-.4-.4-.6-.7c-.1-.2-.1-.5-.1-.8c0-.4 0-.6.1-.9c.2-.3.3-.5.6-.7c.2-.2.4-.3.7-.4c.3-.1.7-.2 1-.2zm0 .7c-.2 0-.4.1-.6.1l-.6.3c-.1.2-.2.3-.3.5c-.1.2-.1.3-.1.6c0 .2 0 .4.1.5c.1.2.2.4.3.5l.6.3c.2.1.4.1.6.1c.2 0 .5 0 .7-.1c.2-.1.3-.2.5-.3c.1-.1.2-.3.3-.5c.1-.1.1-.3.1-.5c0-.3 0-.4-.1-.6c-.1-.2-.2-.3-.3-.5c-.2-.1-.3-.2-.5-.3c-.2 0-.5-.1-.7-.1zm-2.8 5.8l-.1-.7h1.4c.4 0 .9 0 1.5-.1h1.5c.5-.1 1.1-.1 1.6-.2v.6c-.5.1-1 .2-1.5.2c-.6.1-1.1.1-1.6.1c-.5.1-1 .1-1.5.1h-1.3zm17.8-4.8h-2.3c-.6 1.5-1.9 2.5-3.9 3.1l-.4-.6c1.1-.4 2-.8 2.6-1.4c.7-.6 1-1.3 1.1-2.1H90v-.7s4.13.03 4.1 0v.5c0 .2 0 .4-.1.5c.02.02 2.1 0 2.1 0v-1.6h.8v5.4h-.8v-1.2h-2.4v-.7h2.4v-1.2zM94 61.6c.4 0 .8.1 1.2.1c.4.1.7.2 1 .4c.2.1.4.3.6.5c.1.3.2.5.2.8c0 .3-.1.5-.2.7l-.6.6c-.3.1-.6.2-1 .3c-.4.1-.8.1-1.2.1c-.5 0-.9 0-1.3-.1c-.4-.1-.7-.2-1-.3l-.6-.6c-.1-.2-.2-.4-.2-.7c0-.3.1-.5.2-.8c.2-.2.4-.4.6-.5c.3-.2.6-.3 1-.4c.4 0 .8-.1 1.3-.1zm0 2.9c.6 0 1.2-.1 1.6-.3c.4-.2.6-.5.6-.8c0-.4-.2-.6-.6-.8c-.4-.2-1-.3-1.6-.3c-.7 0-1.3.1-1.7.3c-.4.2-.6.4-.6.8c0 .3.2.6.6.8c.4.2 1 .3 1.7.3zm8.7-4.1c-.5 0-.9 0-1.3-.1c-.4-.1-.7-.3-1-.4c-.3-.2-.5-.4-.7-.7c-.1-.2-.2-.5-.2-.8c0-.3.1-.6.2-.8c.2-.3.4-.5.7-.6c.3-.2.6-.4 1-.4c.4-.1.8-.2 1.3-.2c.5 0 .9.1 1.3.2c.4 0 .7.2 1 .4c.3.1.5.3.7.6c.1.2.2.5.2.8c0 .3-.1.6-.2.8c-.2.3-.4.5-.7.7c-.3.1-.6.3-1 .4c-.4.1-.8.1-1.3.1zm0-3.3c-.3 0-.7 0-.9.1c-.3 0-.6.1-.8.2c-.2.2-.4.3-.5.5c-.1.1-.1.3-.1.5c0 .2 0 .4.1.6c.1.1.3.3.5.4c.2.1.5.2.8.3h1.9c.2-.1.5-.2.7-.3c.2-.1.4-.3.5-.4c.1-.2.1-.4.1-.6c0-.2 0-.4-.1-.5c-.1-.2-.3-.3-.5-.5c-.2-.1-.5-.2-.7-.2c-.3-.1-.6-.1-1-.1zm4.2 4.2v.7h-3.8v3.2h-.8V62h-3.7v-.7h8.3zm10.8-.8l-.3.7l-1.1-.3l-.9-.6c-.3-.2-.6-.5-.9-.7c-.2-.3-.4-.6-.5-.9l-.6.9c-.3.2-.6.5-.9.7l-.9.6l-1.1.3l-.3-.7c.4-.1.8-.2 1.2-.4c.4-.2.7-.4 1-.7c.4-.3.6-.6.8-.9c.2-.4.3-.8.3-1.1c.02-.04 0-.7 0-.7h.9v.7c0 .3.1.7.3 1.1c.2.3.4.6.8.9c.3.3.6.5 1 .7c.4.2.8.3 1.2.4zm-3.3 2.8h3.7v.7h-8.3v-.7h3.7v-2.2h.9v2.2zm9.2-2.7h3.7v.7H119v-.7h3.7v-1.1h-2.6v-3.1h6.2v.7h-5.4v1.7h5.5v.7h-2.8v1.1zm-3.7 2.2v-.6h6.4v3.1h-.9v-2.5h-5.5zm10.8-2.6v1h-.9v-1h.9zm9.6-4.2h.8v9.2h-.8v-4.8h-1.2v4.3h-.8v-8.5h.8v3.5h1.2V56zm-4.3 1.8v.7c0 .4 0 .8.1 1.2c.1.4.2.8.4 1.1l.6.9c.3.3.5.5.9.6l-.5.7c-.5-.3-.9-.6-1.2-1c-.3-.4-.5-.9-.7-1.5c-.3 1.3-.9 2.2-1.9 2.8l-.5-.6c.3-.2.6-.4.9-.7c.2-.3.4-.6.6-1c.2-.3.3-.7.4-1.2c.1-.4.1-.8.1-1.3v-.7h-1.8v-.7h4.3v.7H136zm11.9-1.1v.6h-5.2v-.6h2.2v-.8h.8v.8h2.2zm1.7 1.7h1.3v.7h-1.3v2.3h-.9V56h.9v2.4zm-1.4 1.9v.6c-.4.1-.9.1-1.4.2c-.5 0-1 .1-1.5.1h-2.8l-.1-.6h2.5v-.6c-.6 0-1-.1-1.3-.3c-.3-.3-.4-.5-.4-.9c0-.4.1-.7.5-.9c.4-.2.9-.3 1.6-.3c.7 0 1.2.1 1.6.3c.3.2.5.5.5.9c0 .4-.1.6-.4.8c-.3.2-.8.4-1.3.4v.5h1.3c.4-.1.8-.1 1.2-.2zm-4.2-1.5c0 .2.1.4.3.5c.3.1.6.2 1 .2c.4 0 .7-.1 1-.2c.2-.1.3-.3.3-.5c0-.2-.1-.3-.3-.5c-.3-.1-.6-.1-1-.1c-.4 0-.7 0-1 .1c-.2.2-.3.3-.3.5zm.5 4.9v.8h5.4v.6h-6.2v-2h5v-.7h-5.1v-.6h6v1.9h-5.1zm13.4-3.1h2v.6h-8.2v-.6h2v-1.3c-.7-.3-1.1-.8-1.1-1.4c0-.3.1-.5.2-.7c.2-.2.4-.4.6-.5c.3-.2.7-.3 1.1-.4c.4-.1.8-.1 1.3-.1c.5 0 .9 0 1.3.1c.4.1.8.2 1 .4c.3.1.5.3.7.5c.1.2.2.4.2.7c0 .3-.1.6-.3.8c-.2.2-.5.4-.8.6v1.3zm-4.5-2.7c0 .3.2.6.7.8c.4.2 1 .3 1.7.3c.7 0 1.3-.1 1.7-.3c.4-.2.7-.5.7-.8c0-.3-.3-.6-.7-.8c-.4-.2-1-.2-1.7-.2c-.7 0-1.3 0-1.7.2c-.5.2-.7.5-.7.8zm1.1 1.6c.03 0 0 1.1 0 1.1h2.6s-.03-1.1 0-1.1c-.2 0-.4.1-.6.1h-1.4c-.2 0-.4-.1-.6-.1zm1.3 2.4c1 0 1.8.2 2.3.4c.6.3.8.7.8 1.3c0 .5-.2.9-.8 1.2c-.5.2-1.3.4-2.3.4c-1 0-1.8-.2-2.3-.4c-.6-.3-.8-.7-.8-1.2c0-.6.2-1 .8-1.3c.5-.2 1.3-.4 2.3-.4zm0 2.6c.7 0 1.3 0 1.7-.2c.4-.2.6-.4.6-.7c0-.4-.2-.6-.6-.8c-.4-.1-1-.2-1.7-.2c-.7 0-1.3.1-1.7.2c-.4.2-.6.4-.6.8c0 .3.2.5.6.7c.4.2 1 .2 1.7.2zm13.6-4.7v.7h-1.5v4.7h-.8v-9.1h.8v3.7h1.5zm-5.5-3.6v1.3h2.3v.7h-5.4v-.7h2.3v-1.3h.8zm-.4 2.7c.4 0 .7.1.9.2c.3.1.5.2.7.4c.2.2.4.4.5.7c.1.3.2.5.2.8c0 .4-.1.6-.2.9c-.1.3-.3.5-.5.7c-.2.2-.4.3-.7.4c-.2.1-.5.1-.9.1c-.3 0-.6 0-.9-.1c-.2-.1-.5-.2-.7-.4c-.2-.2-.3-.4-.4-.7c-.1-.3-.2-.5-.2-.9c0-.3.1-.5.2-.8c.1-.3.2-.5.4-.7c.2-.2.5-.3.7-.4c.3-.1.6-.2.9-.2zm0 3.6c.2 0 .4-.1.6-.2c.2 0 .3-.1.5-.2c.1-.2.2-.3.3-.5c0-.2.1-.3.1-.6c0-.2-.1-.3-.1-.5c-.1-.2-.2-.3-.3-.5c-.2-.1-.3-.2-.5-.3c-.2 0-.4-.1-.6-.1c-.2 0-.4.1-.5.1c-.2.1-.4.2-.5.3c-.1.2-.2.3-.3.5c-.1.2-.1.3-.1.5c0 .3 0 .4.1.6c.1.2.2.3.3.5c.1.1.3.2.5.2c.1.1.3.2.5.2zm13.2-6.5h.9v9.2h-.9v-3.5s-2.26-.04-2.3 0c-.2.4-.4.8-.8 1c-.3.3-.7.4-1.1.4c-.4 0-.7 0-.9-.2c-.3-.1-.6-.4-.8-.6c-.2-.3-.3-.7-.4-1c-.2-.4-.2-.9-.2-1.4c0-.5 0-.9.2-1.3c.1-.4.2-.7.4-1c.2-.3.5-.5.8-.6c.2-.2.5-.3.9-.3c.4 0 .8.2 1.1.4c.3.2.6.6.8 1h2.3V56zm-4.2 6.4c.2 0 .4-.1.6-.2c.1-.1.3-.3.4-.5c.2-.2.3-.5.3-.8c.1-.3.2-.6.2-1c0-.3-.1-.7-.2-1c0-.3-.1-.5-.3-.7c-.1-.2-.3-.4-.4-.5c-.2-.1-.4-.2-.6-.2c-.2 0-.4.1-.6.2c-.2.1-.4.3-.5.5c-.1.2-.2.4-.3.7c-.1.3-.1.7-.1 1c0 .4 0 .7.1 1c.1.3.2.6.3.8c.1.2.3.4.5.5c.2.1.4.2.6.2zm2.2-2.5c0 .5 0 .8-.1 1.1c.04-.02 2.1 0 2.1 0v-2.2s-2.09-.03-2.1 0c.1.2.1.3.1.5v.6zm11.1.9h3.8v.6h-8.3v-.6h3.7v-1.1h-2.6v-3.4h.8v1h4.4v-1h.9v3.4h-2.7v1.1zm-2.6-2.9v1.1h4.4v-1.1h-4.4zm-1 5.1v-.7h6.3v2.9h-.8V63h-5.5zm14.9-6.9h.9v9.1h-.9v-9.1zm-3.4 1.6s.03 1.14 0 1.1c0 .4.1.8.2 1.2c.2.4.3.7.5 1.1c.3.3.5.6.8.8c.3.3.6.5 1 .6l-.5.7c-.5-.2-1-.6-1.4-1.1c-.5-.5-.8-1.1-1-1.7c-.1.3-.2.7-.4 1c-.2.3-.3.6-.5.8c-.2.3-.5.5-.7.7c-.2.2-.5.4-.7.5l-.5-.6c.3-.2.6-.4.9-.7c.3-.3.6-.6.8-.9c.2-.4.4-.8.5-1.2c.1-.4.2-.8.2-1.2c-.01.04 0-1.1 0-1.1h-2.1v-.7h5.1v.7h-2.2zm12.6-1.7h.9v9.2h-.9V56zm-6.1 1s4.27.03 4.3 0c0 .7-.1 1.3-.3 1.9c-.1.7-.4 1.2-.7 1.8c-.4.5-.8 1-1.3 1.5c-.6.5-1.2.9-2 1.3l-.4-.7c1.2-.6 2.1-1.3 2.8-2.2c.6-.8.9-1.8 1-2.9h-3.4v-.7zm15.7 2h1.4v.7h-1.4v3.2h-.8V56h.8v3zm-2.3.9h-.8c.1-.6.2-1 .2-1.4v-1.1c.05.04-3.7 0-3.7 0v-.6h4.6s-.04.43 0 .4c0 .3 0 .7-.1 1.2c0 .4-.1.9-.2 1.5zm.9.6l.1.6c-.5.1-1 .2-1.5.2c-.5.1-1 .1-1.5.1c-.5 0-1 .1-1.4.1h-1.4v-.7h1.9v-2h.8s.03 1.94 0 1.9h1.5c.5-.1 1-.1 1.5-.2zm-3.5 1.8v2h5.2v.7h-6v-2.7h.8zm16.4-3.5v.7h-6.3v-3.1h6.2v.7H222v1.7h5.4zm-7.3 1.6h8.3v.7h-8.3v-.7zm4.1 1.5c1 0 1.8.1 2.3.4c.6.3.8.7.8 1.2c0 .6-.2 1-.8 1.3c-.5.2-1.3.4-2.3.4c-1 0-1.7-.2-2.3-.4c-.5-.3-.8-.7-.8-1.3c0-.5.3-.9.8-1.2c.6-.3 1.3-.4 2.3-.4zm0 2.6c.7 0 1.3-.1 1.7-.2c.4-.2.6-.4.6-.8c0-.3-.2-.5-.6-.7c-.4-.2-1-.3-1.7-.3c-.7 0-1.3.1-1.7.3c-.4.2-.6.4-.6.7c0 .4.2.6.6.8c.4.1 1 .2 1.7.2zm12-8.5h.8v9.2h-.8V56zm-1.8 3.6v-3.4h.8v8.5h-.8v-4.4s-1.13-.02-1.1 0c0 .4-.1.8-.2 1.2c-.1.3-.2.7-.4.9c-.2.3-.4.4-.6.6c-.2.1-.5.2-.8.2c-.3 0-.5-.1-.8-.2c-.2-.2-.4-.4-.6-.7c-.2-.3-.3-.6-.4-1c-.1-.4-.1-.8-.1-1.3c0-.5 0-1 .1-1.3c.1-.4.2-.8.4-1c.2-.3.4-.5.6-.7c.3-.1.5-.2.8-.2c.3 0 .6.1.8.2c.2.1.4.3.6.6c.1.2.3.5.4.8c.1.4.1.8.2 1.2h1.1zm-3.1 2.8c.4 0 .7-.2.9-.6c.2-.5.3-1.1.3-1.8c0-.4 0-.7-.1-1c0-.3-.1-.6-.2-.8c-.1-.2-.2-.3-.4-.5c-.1-.1-.3-.1-.5-.1c-.3 0-.6.2-.8.6c-.3.5-.4 1-.4 1.8c0 .7.1 1.3.4 1.8c.2.4.5.6.8.6zm15.9-6.4h.8v9.2h-.8V56zm-6.1 1s4.25.03 4.2 0c0 .7 0 1.3-.2 1.9c-.1.7-.4 1.2-.7 1.8c-.4.5-.8 1-1.4 1.5c-.5.5-1.1.9-1.9 1.3l-.5-.7c1.3-.6 2.2-1.3 2.8-2.2c.7-.8 1-1.8 1.1-2.9h-3.4v-.7zm15.8-.6v4h-6.2v-4h.9v1.3h4.5v-1.3h.8zm-.8 3.3v-1.4h-4.5v1.4h4.5zm1.9 1.8v.6h-3.8v3.1h-.8v-3.1h-3.7v-.6h8.3zm9.4-1.7v.7h-1.5v4.7h-.8v-9.1h.8v3.7h1.5zm-5.4-3.6v1.3h2.2v.7h-5.4v-.7h2.3v-1.3h.9zm-.4 2.7c.3 0 .6.1.9.2c.2.1.5.2.7.4c.2.2.3.4.4.7c.1.3.2.5.2.8c0 .4-.1.6-.2.9c-.1.3-.2.5-.4.7c-.2.2-.5.3-.7.4c-.3.1-.6.1-.9.1c-.4 0-.6 0-.9-.1c-.3-.1-.5-.2-.7-.4c-.2-.2-.4-.4-.5-.7c-.1-.3-.1-.5-.1-.9c0-.3 0-.5.1-.8c.1-.3.3-.5.5-.7c.2-.2.4-.3.7-.4c.3-.1.5-.2.9-.2zm0 3.6c.2 0 .4-.1.5-.2c.2 0 .4-.1.5-.2c.1-.2.2-.3.3-.5c.1-.2.1-.3.1-.6c0-.2 0-.3-.1-.5c-.1-.2-.2-.3-.3-.5c-.1-.1-.3-.2-.5-.3c-.1 0-.3-.1-.5-.1c-.2 0-.4.1-.6.1c-.2.1-.3.2-.5.3c-.1.2-.2.3-.3.5c0 .2-.1.3-.1.5c0 .3.1.4.1.6c.1.2.2.3.3.5c.2.1.3.2.5.2c.2.1.4.2.6.2zm12.9-4.6c.02-.03 0-.3 0-.3h-5.6v-.6h6.5s-.04.87 0 .9v.8c-.1.4-.1.7-.1 1c0 .4 0 .7-.1 1.1c0 .4-.1.8-.2 1.3l-.8-.1c.2-.9.3-1.6.3-2.3v-1.8zm-2.4 5.3h4.2v.7h-8.2v-.7h3.2v-3.3h.8v3.3zm4.8 2l.4-2.1h.9l-.6 2.1h-.7zm12-5.7l-.3.7l-1.1-.3c-.3-.1-.6-.3-.9-.4c-.3-.2-.6-.4-.8-.7c-.3-.2-.5-.5-.6-.7c-.2.2-.3.5-.6.7c-.2.3-.5.5-.8.7c-.3.1-.6.3-.9.4l-1.1.3l-.3-.7c.4 0 .8-.1 1.2-.3c.4-.2.7-.4 1-.6c.3-.2.6-.5.8-.8c.2-.3.3-.6.3-.9c-.05-.02 0-.5 0-.5h.8s.03.48 0 .5c0 .3.1.6.3.9c.2.3.4.6.8.8c.3.2.6.4 1 .6c.4.2.8.3 1.2.3zm.4 1.7v.7h-3.7v3.3h-.8v-3.3h-3.7v-.7h8.2zm7.6-5.2h.8v9.2h-.8V56zm-5.3 4.2v2.1c.7 0 1.5 0 2.2-.1c.7 0 1.4-.1 2.2-.2l.1.7c-.4 0-.8.1-1.2.1c-.4.1-.7.1-1.1.1c-.4 0-.8.1-1.1.1h-1.9v-3.5h3.3v-1.9h-3.4v-.7h4.3v3.3h-3.4zm16.3-.4v.6h-1.5v4.8h-.8V56h.8v3.8h1.5zm-8-2.8s4.18.02 4.2 0c0 .7-.1 1.3-.3 1.9c-.1.6-.4 1.2-.7 1.8c-.3.5-.7 1-1.3 1.5c-.5.5-1.1.9-1.9 1.3l-.4-.7c1.2-.6 2.1-1.3 2.7-2.2c.6-.8 1-1.8 1.1-2.9c-.05.01-3.4 0-3.4 0v-.7zm18-.8v3h-6.1v-3h.8v.9h4.4v-.9h.9zm-.9 2.4v-.9h-4.4v.9h4.4zm1.9 2h-3.7v.9h2.7v2.1h-5.4v.8h5.7v.7h-6.5v-2.2h5.4v-.7h-5.4v-.7h2.7v-.9h-3.7v-.7h8.2v.7zm9.5-.8v.6h-1.5v4.8h-.8V56h.8v3.8h1.5zm-8.1-2.8s4.22.02 4.2 0c0 .7-.1 1.3-.2 1.9c-.2.6-.4 1.2-.7 1.8c-.4.5-.8 1-1.3 1.5c-.6.5-1.2.9-1.9 1.3l-.5-.7c1.2-.6 2.1-1.3 2.7-2.2c.6-.8 1-1.8 1.1-2.9c0 .01-3.4 0-3.4 0v-.7zm16.1 1.6v.7h-6.2v-3.1h.8v2.4h5.4zm-7.4 1.7h8.3v.7H329v-.7zm4.2 1.5c.9 0 1.7.2 2.3.5c.5.3.8.7.8 1.2c0 .5-.3.9-.8 1.2c-.6.3-1.4.5-2.3.5c-1 0-1.8-.2-2.3-.5c-.6-.3-.9-.7-.9-1.2c0-.5.3-.9.9-1.2c.5-.3 1.3-.5 2.3-.5zm0 2.7c.7 0 1.2-.1 1.6-.3c.4-.1.6-.4.6-.7c0-.3-.2-.6-.6-.8c-.4-.1-.9-.2-1.6-.2c-.8 0-1.3.1-1.7.2c-.4.2-.6.5-.6.8c0 .3.2.6.6.7c.4.2.9.3 1.7.3zm10.4-7.3v.6h-5.4v-.6h2.3v-1.1h.9v1.1h2.2zm1.7 1.9h1.4v.7h-1.4v3.1h-.8v-6.8h.8v3zm-2.2.9c0 .3 0 .5-.1.7c-.1.3-.3.4-.5.6c-.2.1-.4.2-.7.3c-.2.1-.5.1-.9.1c-.3 0-.6 0-.9-.1l-.6-.3c-.2-.2-.4-.3-.5-.6c-.1-.2-.1-.4-.1-.7c0-.2 0-.5.1-.7c.1-.2.3-.3.5-.5c.2-.1.4-.3.6-.3c.3-.1.6-.2.9-.2c.4 0 .7.1.9.2c.3 0 .5.2.7.3c.2.2.4.3.5.5c.1.2.1.5.1.7zm-3.6 0c0 .4.2.6.4.8c.3.2.6.3 1 .3c.4 0 .8-.1 1-.3c.3-.2.4-.4.4-.8c0-.3-.1-.5-.4-.7c-.2-.2-.6-.3-1-.3c-.4 0-.7.1-1 .3c-.2.2-.4.4-.4.7zm1 2.4v1.9h5.2v.7h-6.1v-2.6h.9zm15.7-4h-2.3c-.6 1.5-2 2.5-4 3.1l-.3-.6c1.1-.4 2-.8 2.6-1.4c.6-.6 1-1.3 1.1-2.1h-3.2v-.7s4.09.03 4.1 0v.5c0 .2-.1.4-.1.5c-.01.02 2.1 0 2.1 0v-1.6h.8v5.4h-.8v-1.2h-2.4v-.7h2.4v-1.2zm-2.2 3.2c.5 0 .9.1 1.3.1c.3.1.7.2.9.4c.3.1.5.3.6.5c.2.3.2.5.2.8c0 .3 0 .5-.2.7c-.1.2-.3.4-.6.6c-.2.1-.6.2-.9.3c-.4.1-.8.1-1.3.1c-.4 0-.9 0-1.2-.1c-.4-.1-.7-.2-1-.3c-.2-.2-.5-.4-.6-.6c-.1-.2-.2-.4-.2-.7c0-.3.1-.5.2-.8c.1-.2.4-.4.6-.5c.3-.2.6-.3 1-.4c.3 0 .8-.1 1.2-.1zm0 2.9c.7 0 1.2-.1 1.6-.3c.4-.2.6-.5.6-.8c0-.4-.2-.6-.6-.8c-.4-.2-.9-.3-1.6-.3c-.7 0-1.2.1-1.6.3c-.4.2-.6.4-.6.8c0 .3.2.6.6.8c.4.2.9.3 1.6.3zm8.8-4.1c-.5 0-.9 0-1.3-.1c-.4-.1-.8-.3-1-.4c-.3-.2-.5-.4-.7-.7c-.1-.2-.2-.5-.2-.8c0-.3.1-.6.2-.8c.2-.3.4-.5.7-.6c.2-.2.6-.4 1-.4c.4-.1.8-.2 1.3-.2c.4 0 .9.1 1.3.2c.4 0 .7.2 1 .4c.3.1.5.3.6.6c.2.2.3.5.3.8c0 .3-.1.6-.3.8c-.1.3-.3.5-.6.7c-.3.1-.6.3-1 .4c-.4.1-.9.1-1.3.1zm0-3.3c-.4 0-.7 0-1 .1c-.3 0-.5.1-.7.2c-.2.2-.4.3-.5.5c-.1.1-.2.3-.2.5c0 .2.1.4.2.6c.1.1.3.3.5.4c.2.1.4.2.7.3h1.9c.3-.1.6-.2.8-.3c.2-.1.3-.3.4-.4c.2-.2.2-.4.2-.6c0-.2 0-.4-.2-.5c-.1-.2-.2-.3-.4-.5c-.2-.1-.5-.2-.8-.2c-.3-.1-.6-.1-.9-.1zm4.1 4.2v.7h-3.7v3.2h-.8V62h-3.7v-.7h8.2zm7.9-5.3h.8v9.2h-.8V56zm-1.8 3.6v-3.4h.8v8.5h-.8v-4.4s-1.16-.02-1.2 0c0 .4 0 .8-.1 1.2c-.1.3-.3.7-.4.9c-.2.3-.4.4-.6.6c-.3.1-.5.2-.8.2c-.3 0-.6-.1-.8-.2c-.3-.2-.5-.4-.6-.7c-.2-.3-.3-.6-.4-1c-.1-.4-.2-.8-.2-1.3c0-.5.1-1 .2-1.3c.1-.4.2-.8.4-1c.1-.3.3-.5.6-.7c.2-.1.5-.2.8-.2c.3 0 .5.1.8.2c.2.1.4.3.5.6c.2.2.3.5.4.8c.1.4.2.8.2 1.2h1.2zm-3.1 2.8c.4 0 .7-.2.9-.6c.2-.5.3-1.1.3-1.8c0-.4 0-.7-.1-1c-.1-.3-.1-.6-.2-.8c-.1-.2-.3-.3-.4-.5c-.2-.1-.3-.1-.5-.1c-.4 0-.7.2-.9.6c-.2.5-.3 1-.3 1.8c0 .7.1 1.3.3 1.8c.2.4.5.6.9.6zm14.4-3.6v.7h-6.2v-3.1h.9v2.4h5.3zm-7.3 1.9h8.3v.7H377v-.7zm1.9 1.6v2h5.5v.7h-6.3v-2.7h.8z" stroke="none" fill="#111111"/></g><g id="Polygon96755"><path d="m7.2 37.5h.8v9.2h-.8v-9.2zm-4 .7c.3 0 .7.1.9.3c.3.1.6.3.8.6c.2.3.3.6.5 1c.1.4.1.8.1 1.3c0 .5 0 1-.1 1.4c-.2.3-.3.7-.5 1c-.2.2-.5.5-.8.6c-.2.2-.6.2-.9.2c-.3 0-.7 0-.9-.2c-.3-.1-.6-.4-.8-.6c-.2-.3-.3-.7-.4-1c-.2-.4-.2-.9-.2-1.4c0-.5 0-.9.2-1.3c.1-.4.2-.7.4-1c.2-.3.5-.5.8-.6c.2-.2.6-.3.9-.3zm0 .8c-.2 0-.4.1-.6.2c-.2.1-.4.3-.5.5c-.1.2-.2.4-.3.7c-.1.3-.1.7-.1 1c0 .4 0 .7.1 1c.1.3.2.6.3.8c.1.2.3.4.5.5c.2.1.4.2.6.2c.2 0 .4-.1.6-.2c.2-.1.4-.3.5-.5c.1-.2.2-.5.3-.8c.1-.3.1-.6.1-1c0-.3 0-.7-.1-1c-.1-.3-.2-.5-.3-.7c-.1-.2-.3-.4-.5-.5c-.2-.1-.4-.2-.6-.2zm13 .7v-1.1h-5.5v-.7h6.3v2.4h-5.4v1.2h5.6v.7h-6.5v-2.5h5.5zm1.8 3.4v.7h-3.7v2.9h-.9v-2.9H9.7v-.7h8.3zm7.6-5.6h.8v9.2h-.8v-5h-2c0 .5-.1.9-.2 1.2c-.1.4-.3.7-.5.9c-.2.3-.4.5-.7.6c-.2.2-.5.2-.9.2c-.3 0-.6 0-.9-.2c-.2-.1-.5-.4-.7-.6c-.2-.3-.4-.7-.5-1c-.1-.4-.1-.9-.1-1.4c0-.5 0-.9.1-1.3c.1-.4.3-.7.5-1c.2-.3.5-.5.7-.6c.3-.2.6-.3.9-.3c.4 0 .6.1.9.2c.3.2.5.4.7.6c.2.2.4.5.5.9c.1.3.2.7.2 1.1c.01.03 2 0 2 0v-3.5zm-4.3 6.4c.3 0 .5-.1.6-.2c.2-.1.4-.3.5-.5c.1-.2.2-.5.3-.8c.1-.3.1-.6.1-1c0-.3 0-.7-.1-1c-.1-.3-.2-.5-.3-.7c-.1-.2-.3-.4-.5-.5c-.1-.1-.3-.2-.6-.2c-.2 0-.4.1-.6.2c-.1.1-.3.3-.4.5c-.2.2-.3.4-.3.7c-.1.3-.1.7-.1 1c0 .4 0 .7.1 1c0 .3.1.6.3.8c.1.2.3.4.4.5c.2.1.4.2.6.2zm14.3-6.3v6.6h-.8v-6.6h.8zm-1.9 4.7l-.4.6c-.6-.1-1-.4-1.4-.8c-.4-.3-.7-.8-.9-1.2c-.2.5-.5.9-.9 1.3c-.4.4-.9.7-1.5.9l-.4-.6c.3-.2.7-.3 1-.5l.7-.7c.2-.3.3-.6.5-.9c.1-.3.1-.6.1-.9c.02-.02 0-.5 0-.5h-2.1v-.7h5v.7h-2s-.02.48 0 .5c0 .3 0 .6.1.9c.2.3.3.5.5.8c.2.2.5.4.7.6c.3.2.6.4 1 .5zm-3.2 3.5h5.4v.7h-6.2v-2.9h.8v2.2zM46 39.9h-2.3c-.6 1.5-1.9 2.5-3.9 3.1l-.3-.6c1.1-.4 1.9-.8 2.6-1.4c.6-.6 1-1.3 1.1-2.1c-.04.01-3.3 0-3.3 0v-.7s4.16.03 4.2 0c0 .2 0 .4-.1.5v.5c-.04.02 2 0 2 0v-1.6h.9v5.4h-.9v-1.2h-2.4v-.7h2.4v-1.2zm-2.1 3.2c.5 0 .9.1 1.2.1c.4.1.7.2 1 .4c.3.1.5.3.6.5c.1.3.2.5.2.8c0 .3-.1.5-.2.7c-.1.2-.3.4-.6.6c-.3.1-.6.2-1 .3c-.3.1-.7.1-1.2.1c-.5 0-.9 0-1.3-.1c-.3-.1-.7-.2-.9-.3c-.3-.2-.5-.4-.6-.6c-.2-.2-.2-.4-.2-.7c0-.3 0-.5.2-.8c.1-.2.3-.4.6-.5c.2-.2.6-.3.9-.4c.4 0 .8-.1 1.3-.1zm0 2.9c.7 0 1.2-.1 1.6-.3c.4-.2.6-.5.6-.8c0-.4-.2-.6-.6-.8c-.4-.2-.9-.3-1.6-.3c-.7 0-1.2.1-1.6.3c-.4.2-.6.4-.6.8c0 .3.2.6.6.8c.4.2.9.3 1.6.3zm8.7-4.1c-.4 0-.9 0-1.3-.1c-.3-.1-.7-.3-1-.4c-.3-.2-.5-.4-.6-.7c-.2-.2-.3-.5-.3-.8c0-.3.1-.6.3-.8c.1-.3.3-.5.6-.6c.3-.2.7-.4 1-.4c.4-.1.9-.2 1.3-.2c.5 0 1 .1 1.3.2c.4 0 .8.2 1.1.4c.2.1.5.3.6.6c.2.2.2.5.2.8c0 .3 0 .6-.2.8c-.1.3-.4.5-.6.7c-.3.1-.7.3-1.1.4c-.3.1-.8.1-1.3.1zm0-3.3c-.3 0-.6 0-.9.1c-.3 0-.5.1-.7.2c-.3.2-.4.3-.5.5c-.1.1-.2.3-.2.5c0 .2.1.4.2.6c.1.1.2.3.5.4c.2.1.4.2.7.3h1.9c.3-.1.5-.2.7-.3c.2-.1.4-.3.5-.4c.1-.2.2-.4.2-.6c0-.2-.1-.4-.2-.5c-.1-.2-.3-.3-.5-.5c-.2-.1-.4-.2-.7-.2c-.3-.1-.6-.1-1-.1zm4.2 4.2v.7h-3.7v3.2h-.9v-3.2h-3.7v-.7h8.3zm9.4-1.5v.6h-1.5v4.8h-.8v-9.2h.8v3.8h1.5zm-8-2.8s4.17.02 4.2 0c0 .7-.1 1.3-.3 1.9c-.1.6-.4 1.2-.7 1.8c-.3.5-.8 1-1.3 1.5c-.5.5-1.1.9-1.9 1.3l-.4-.7c1.2-.6 2.1-1.3 2.7-2.2c.6-.8 1-1.8 1-2.9c.05.01-3.3 0-3.3 0v-.7zm17.9 1.1h1.3v.7h-1.3v1.9h-.9v-4.7h.9v2.1zm-2.6-1.5v3.8h-4.2v-3.8h4.2zm-.8 3.1v-2.4h-2.5v2.4h2.5zm2.4 1.1v.8h1.9v.7h-4.6v-.7h1.9v-.8h.8zm-4.4.7s.04 2.76 0 2.8c.3-.1.6-.1.9-.1c.3-.1.6-.1 1-.2l.1.6c-.4.2-.9.3-1.3.3c-.4 0-.7.1-1 .1c-.04-.04-.5 0-.5 0V43h.8zm4 1.1c.2 0 .4 0 .7.1c.2.1.3.1.5.3c.1.1.3.2.3.4c.1.1.2.3.2.5c0 .4-.2.7-.5.9c-.3.3-.7.4-1.2.4c-.5 0-.9-.1-1.2-.4c-.4-.2-.5-.5-.5-.9c0-.2 0-.4.1-.5c.1-.2.2-.3.4-.4c.1-.2.3-.2.5-.3c.2-.1.4-.1.7-.1zm0 2c.3 0 .5-.1.7-.2c.1-.1.2-.3.2-.5c0-.2-.1-.4-.2-.5c-.2-.1-.4-.2-.7-.2c-.3 0-.5.1-.7.2c-.2.1-.3.3-.3.5c0 .2.1.4.3.5c.2.1.4.2.7.2zm12-4.9v.7h-1.5v4.8h-.9v-9.1h.9v3.6h1.5zm-6.1-3c.3 0 .6.1.9.3c.3.1.5.3.7.6c.2.3.4.6.5 1c.1.4.2.8.2 1.3c0 .5-.1 1-.2 1.4c-.1.3-.3.7-.5 1c-.2.2-.4.5-.7.6c-.3.2-.6.2-.9.2c-.4 0-.7 0-1-.2c-.2-.1-.5-.4-.7-.6c-.2-.3-.3-.7-.5-1c-.1-.4-.1-.9-.1-1.4c0-.5 0-.9.1-1.3c.2-.4.3-.7.5-1c.2-.3.5-.5.7-.6c.3-.2.6-.3 1-.3zm0 5.7c.2 0 .4-.1.6-.2c.2-.1.3-.3.5-.5c.1-.2.2-.5.3-.8c0-.3.1-.6.1-1c0-.3-.1-.7-.1-1c-.1-.3-.2-.5-.3-.7c-.2-.2-.3-.4-.5-.5c-.2-.1-.4-.2-.6-.2c-.2 0-.4.1-.6.2c-.2.1-.4.3-.5.5c-.1.2-.2.4-.3.7c-.1.3-.1.7-.1 1c0 .4 0 .7.1 1c.1.3.2.6.3.8c.1.2.3.4.5.5c.2.1.4.2.6.2zM98 41.2v.6h-1.6v4.9h-.8v-9.2h.8v3.7h1.6zm-7.4-2.1s.03 4.61 0 4.6h2.2c.3-.1.7-.1 1-.1c.3-.1.6-.1.9-.2l.1.7c-.3.1-.6.1-1 .2c-.3 0-.7 0-1 .1h-2.3c.01.03-.7 0-.7 0v-6h4.2v.7h-3.4zm14.4.4v-1h-5.4v-.7h6.2v2.3h-5.3v1h5.5v.7h-6.4v-2.3h5.4zm-6.4 3.1h8.3v.7h-8.3v-.7zm1.9 1.4v1.8h5.5v.7h-6.3V44h.8zm11.5-3.8v-1.7h-1.4v-.7h6.7v.7h-1.4v1.7h1.4v.7h-6.7v-.7h1.4zm3.1 0v-1.7h-2.3v1.7h2.3zm-5.3 1.4h8.3v.7h-8.3v-.7zm1.9 3.5v.9h5.6v.6h-6.4v-2.1h5.3v-.8h-5.4v-.6h6.3v2h-5.4zm15.9-3.9v.7h-1.5v4.8h-.9v-9.2h.9v3.7h1.5zm-7.4.5s.02 2.09 0 2.1h1.2c.3 0 .7 0 1-.1c.4 0 .7 0 1-.1c.4 0 .7-.1 1-.1l.1.7c-.3 0-.7.1-1 .1c-.4.1-.7.1-1.1.1c-.3 0-.7.1-1.1.1h-1.9V41h3.3v-1.9h-3.3v-.7h4.1v3.3h-3.3zm15.9.4l-.4.7c-.3 0-.7-.2-1-.3c-.4-.2-.7-.4-1-.6c-.3-.2-.6-.5-.8-.8c-.3-.3-.4-.6-.6-.9c-.1.3-.3.6-.6.9c-.2.3-.5.6-.8.8l-.9.6c-.4.1-.7.3-1.1.3l-.3-.7c.4 0 .7-.2 1.1-.4c.4-.2.8-.4 1.1-.7c.3-.3.6-.6.8-1c.2-.3.3-.7.3-1.1c-.02-.01 0-.7 0-.7h.9s-.05.69 0 .7c0 .4.1.7.2 1.1c.2.4.5.7.8 1c.3.3.7.5 1.1.7c.4.2.8.4 1.2.4zm-7.9 2.7h8.3v.7h-8.3v-.7zm15.9-7.3h.8v5.6h-.8v-5.6zm-1.1 4.2l.1.6c-.3.1-.7.1-1 .2h-1c-.3.1-.7.1-1.1.1h-2.1v-4.4h4.4v.6h-3.6v1.2h3.3v.7h-3.3s.04 1.22 0 1.2h2.4c.3 0 .7-.1 1-.1c.3 0 .6-.1.9-.1zm-4.2 2.5v-.6h6.1v3.1h-.8v-2.5h-5.3zm16.9-6.6h.8v9.1h-.8v-9.1zm-1.8 2.5v-2.3h.8v8.4h-.8v-3.4h-1.2v-.7h1.2v-1.3h-1.2v-.7h1.2zm-1.7-.7s-.04 4.25 0 4.3c.1-.1.3-.1.4-.1h.5l.1.6c-.4 0-.8.1-1.2.1c-.4.1-.8.1-1.2.1h-1.1c-.4.1-.8.1-1.1.1c.03-.04 0-.7 0-.7c0 0 .64-.04.6 0h.3c-.01-.05 0-4.4 0-4.4h-.8v-.7h4.2v.7h-.7zm-1.9 0s-.04 4.34 0 4.3h1.1v-4.3h-1.1zm14.2-1.9h.8v9.2h-.8v-9.2zm-6.1 1s4.25.03 4.2 0c0 .7 0 1.3-.2 1.9c-.1.7-.4 1.2-.7 1.8c-.4.5-.8 1-1.4 1.5c-.5.5-1.1.9-1.9 1.3l-.5-.7c1.3-.6 2.2-1.3 2.8-2.2c.7-.8 1-1.8 1.1-2.9h-3.4v-.7zm15.8-.7v2.8h-6.1v-2.8h6.1zm-.8 2.2v-1.5h-4.5v1.5h4.5zm1.9 2.1h-3.7v.9h2.6v2h-5.4v.9h5.7v.7H168v-2.2h5.4v-.8H168v-.6h2.7v-.9H167v-.7h8.3v.7zm7.9-4.6h.8v9.2h-.8v-9.2zm-1.9 3.6v-3.4h.8v8.5h-.8v-4.4s-1.11-.02-1.1 0c0 .4-.1.8-.2 1.2c-.1.3-.2.7-.4.9c-.2.3-.3.4-.6.6c-.2.1-.5.2-.7.2c-.3 0-.6-.1-.9-.2c-.2-.2-.4-.4-.6-.7c-.1-.3-.3-.6-.4-1c-.1-.4-.1-.8-.1-1.3c0-.5 0-1 .1-1.3c.1-.4.3-.8.4-1c.2-.3.4-.5.6-.7c.3-.1.6-.2.9-.2c.2 0 .5.1.7.2c.2.1.4.3.6.6c.2.2.3.5.4.8c.1.4.2.8.2 1.2h1.1zm-3 2.8c.3 0 .6-.2.8-.6c.2-.5.3-1.1.3-1.8v-1c-.1-.3-.2-.6-.3-.8c-.1-.2-.2-.3-.4-.5c-.1-.1-.3-.1-.4-.1c-.4 0-.7.2-.9.6c-.2.5-.3 1-.3 1.8c0 .7.1 1.3.3 1.8c.2.4.5.6.9.6zm15.8-6.4h.8v9.2h-.8v-9.2zm-6.1.8h.8v2.4h2.6v-2.4h.9v6.2H188v-6.2zm.8 3.1v2.4h2.6v-2.4h-2.6zm14.8-3.9h.8v9.2h-.8v-4.6h-1.2v4.1h-.8v-8.5h.8v3.7h1.2v-3.9zm-4.3.3v1.3h1.9v.7h-4.6v-.7h1.9v-1.3h.8zm-.4 2.6c.3 0 .5 0 .8.1c.2.2.4.3.6.5c.2.2.3.4.4.6c.1.3.1.6.1.9c0 .3 0 .6-.1.8c-.1.3-.2.5-.4.7c-.2.2-.4.3-.6.4c-.3.1-.5.2-.8.2c-.3 0-.6-.1-.8-.2c-.2-.1-.4-.2-.6-.4c-.2-.2-.3-.4-.4-.7c-.1-.2-.2-.5-.2-.8c0-.3.1-.6.2-.9c.1-.2.2-.4.4-.6c.2-.2.4-.3.6-.5c.2-.1.5-.1.8-.1zm0 3.5c.3 0 .6-.2.9-.4c.2-.3.3-.6.3-1c0-.2 0-.4-.1-.6c-.1-.1-.1-.3-.2-.4c-.1-.1-.3-.2-.4-.3c-.2-.1-.3-.1-.5-.1c-.4 0-.7.1-.9.4c-.2.2-.3.6-.3 1c0 .4.1.7.3 1c.2.2.5.4.9.4zm13.6-6.4h.8v9.2h-.8v-5.4h-2.1v-.7h2.1v-3.1zm-3.5.8s.01 1.67 0 1.7c0 .4.1.8.2 1.2c.1.4.3.8.5 1.1c.2.4.5.7.7 1c.3.3.6.5 1 .6l-.5.7c-.5-.3-1-.7-1.4-1.2c-.4-.5-.7-1.1-.9-1.7c-.2.7-.5 1.3-.9 1.8c-.4.6-.9 1-1.4 1.3l-.5-.7c.3-.2.6-.4.9-.7c.3-.3.6-.6.8-1c.2-.4.4-.7.5-1.2c.1-.4.2-.8.2-1.2c-.03-.03 0-1.7 0-1.7h.8zm15.1-.8h.8v9.2h-.8v-4.8h-1.2v4.3h-.8v-8.5h.8v3.5h1.2v-3.7zm-4.3 1.8s-.03.72 0 .7c0 .4 0 .8.1 1.2c.1.4.2.8.4 1.1c.1.3.3.6.6.9c.2.3.5.5.8.6l-.5.7c-.4-.3-.8-.6-1.1-1c-.3-.4-.6-.9-.7-1.5c-.3 1.3-1 2.2-1.9 2.8l-.5-.6c.3-.2.6-.4.8-.7c.3-.3.5-.6.7-1c.1-.3.3-.7.3-1.2c.1-.4.2-.8.2-1.3c-.04.02 0-.7 0-.7h-1.8v-.7h4.2v.7h-1.6zm11.9-1.1v.6h-5.3v-.6h2.2v-.8h.9v.8h2.2zm1.6 1.7h1.4v.7h-1.4v2.3h-.8v-5.4h.8v2.4zm-1.3 1.9v.6c-.5.1-1 .1-1.5.2c-.5 0-1 .1-1.5.1h-2.7l-.1-.6h2.4v-.6c-.5 0-.9-.1-1.2-.3c-.3-.3-.5-.5-.5-.9c0-.4.2-.7.6-.9c.4-.2.9-.3 1.6-.3c.6 0 1.1.1 1.5.3c.4.2.6.5.6.9c0 .4-.2.6-.5.8c-.3.2-.7.4-1.2.4v.5h1.2c.5-.1.9-.1 1.3-.2zm-4.3-1.5c0 .2.1.4.4.5c.2.1.5.2 1 .2c.4 0 .7-.1.9-.2c.3-.1.4-.3.4-.5c0-.2-.1-.3-.4-.5c-.2-.1-.5-.1-.9-.1c-.5 0-.8 0-1 .1c-.3.2-.4.3-.4.5zm.6 4.9v.8h5.4v.6h-6.3v-2h5.1v-.7h-5.1v-.6h5.9v1.9h-5zm13.4-3.1h2v.6h-8.3v-.6h2.1s-.03-1.32 0-1.3c-.8-.3-1.2-.8-1.2-1.4c0-.3.1-.5.3-.7c.1-.2.3-.4.6-.5c.3-.2.6-.3 1-.4c.4-.1.9-.1 1.4-.1c.5 0 .9 0 1.3.1c.4.1.7.2 1 .4c.3.1.5.3.6.5c.2.2.3.4.3.7c0 .3-.1.6-.3.8c-.2.2-.5.4-.8.6c-.04-.03 0 1.3 0 1.3zm-4.5-2.7c0 .3.2.6.6.8c.4.2 1 .3 1.8.3c.7 0 1.3-.1 1.7-.3c.4-.2.6-.5.6-.8c0-.3-.2-.6-.6-.8c-.4-.2-1-.2-1.7-.2c-.8 0-1.4 0-1.8.2c-.4.2-.6.5-.6.8zm1.1 1.6c-.01 0 0 1.1 0 1.1h2.5s.03-1.1 0-1.1c-.1 0-.3.1-.6.1h-1.3c-.2 0-.4-.1-.6-.1zm1.3 2.4c.9 0 1.7.2 2.3.4c.5.3.8.7.8 1.3c0 .5-.3.9-.8 1.2c-.6.2-1.4.4-2.3.4c-1 0-1.8-.2-2.3-.4c-.6-.3-.9-.7-.9-1.2c0-.6.3-1 .9-1.3c.5-.2 1.3-.4 2.3-.4zm0 2.6c.7 0 1.2 0 1.6-.2c.4-.2.6-.4.6-.7c0-.4-.2-.6-.6-.8c-.4-.1-.9-.2-1.6-.2c-.8 0-1.3.1-1.7.2c-.4.2-.6.4-.6.8c0 .3.2.5.6.7c.4.2.9.2 1.7.2zm11.4-6.9v-.7h-5.4v-.6h6.2v1.9h-5.3v.8h5.5v.6h-6.3v-2h5.3zm1.9 3.2h-2.2v.9h1.2v1.9h-5.5v.9h5.8v.6h-6.6v-2.1h5.4v-.7h-5.4v-.6h1.2v-.9h-2.2v-.6h8.3v.6zm-3.1.9v-.9h-2.1v.9h2.1zm10.6-5.7h.9v9.2h-.9v-9.2zm-4 .7c.4 0 .7.1 1 .3c.3.1.5.3.7.6c.2.3.4.6.5 1c.1.4.2.8.2 1.3c0 .5-.1 1-.2 1.4c-.1.3-.3.7-.5 1c-.2.2-.4.5-.7.6c-.3.2-.6.2-1 .2c-.3 0-.6 0-.9-.2c-.3-.1-.5-.4-.7-.6c-.2-.3-.4-.7-.5-1c-.1-.4-.2-.9-.2-1.4c0-.5.1-.9.2-1.3c.1-.4.3-.7.5-1c.2-.3.4-.5.7-.6c.3-.2.6-.3.9-.3zm0 .8c-.2 0-.4.1-.6.2c-.2.1-.3.3-.5.5c-.1.2-.2.4-.3.7c0 .3-.1.7-.1 1c0 .4.1.7.1 1c.1.3.2.6.3.8c.2.2.3.4.5.5c.2.1.4.2.6.2c.3 0 .5-.1.7-.2c.1-.1.3-.3.4-.5c.2-.2.3-.5.4-.8c0-.3.1-.6.1-1c0-.3-.1-.7-.1-1c-.1-.3-.2-.5-.4-.7c-.1-.2-.3-.4-.4-.5c-.2-.1-.4-.2-.7-.2zm15.7.8h1.4v.7h-1.4v2.2h-.8v-5.2h.8v2.3zm-1.7 1.1l.1.7c-.8.2-1.5.3-2.2.3c-.7.1-1.4.1-2.1.1h-.7v-4h.8s.02 3.3 0 3.3c.7 0 1.3 0 2-.1c.6 0 1.3-.1 2.1-.3zm1.9 3s-2.54-.05-2.5 0c0 .2.1.4.2.7c.2.2.4.4.7.6c.2.2.5.4.9.5c.3.1.7.2 1.1.3l-.4.6c-.3 0-.5-.1-.8-.2l-.9-.3c-.2-.2-.5-.4-.7-.6c-.3-.2-.4-.4-.6-.7c-.1.3-.3.5-.5.7c-.2.2-.4.3-.7.5c-.3.2-.5.3-.8.4c-.3.1-.7.2-1 .2l-.3-.6l1.1-.3c.3-.1.6-.3.9-.5c.3-.2.5-.4.6-.6c.2-.2.3-.5.3-.7c-.02-.05-2.6 0-2.6 0v-.7h6v.7zm6.1-2.4c-.5 0-1 0-1.4-.1c-.4-.1-.7-.2-1-.4c-.3-.1-.5-.3-.6-.6c-.2-.2-.3-.4-.3-.7c0-.3.1-.6.3-.8c.1-.2.3-.4.6-.6c.3-.1.6-.2 1-.3c.4-.1.9-.1 1.4-.1c.4 0 .9 0 1.3.1c.4.1.7.2 1 .3c.3.2.5.4.6.6c.2.2.3.5.3.8c0 .3-.1.5-.3.7c-.1.3-.3.5-.6.6c-.3.2-.6.3-1 .4c-.4.1-.9.1-1.3.1zm0-3c-.8 0-1.3.1-1.8.3c-.4.2-.6.5-.6.9c0 .3.2.6.6.8c.5.2 1 .3 1.8.3c.7 0 1.3-.1 1.7-.3c.4-.2.6-.5.6-.8c0-.4-.2-.7-.6-.9c-.4-.2-1-.3-1.7-.3zm-4.2 3.9h8.3v.6h-8.3v-.6zm1.9 1.4v2h5.5v.7h-6.3v-2.7h.8zm14.3-6.3h.8v9.2h-.8v-9.2zm-1.9 3.5v-3.2h.8v8.4h-.8v-4.5h-1.9v-.7h1.9zm-3.9-1.7s-.03 4.49 0 4.5h.9c.2 0 .5 0 .7-.1h.7c.3-.1.5-.1.7-.2l.1.7c-.2.1-.5.1-.7.2h-.8c-.3.1-.6.1-.9.1h-1.6v-5.8h3.5v.6h-2.6zm7.6 7.4l.4-2.1h.9l-.6 2.1h-.7zm10.5-7.3c.03.03 0-.2 0-.2h-5.4v-.7h6.3s-.04.93 0 .9v.9c0 .3-.1.7-.1 1.1c0 .3 0 .7-.1 1.1c0 .4-.1.9-.2 1.4l-.8-.1c.2-.9.3-1.8.3-2.5v-1.9zm-6.3 5.3h8.3v.7h-8.3v-.7zm16.7-7.1v6.7h-.9v-6.7h.9zm-2 4.4l.1.7c-.3 0-.7.1-1 .1c-.4.1-.7.1-1.1.1c-.3 0-.7.1-1.1.1h-2v-2.8h3.4v-1.3H306v-.7h4.2v2.6h-3.3s-.03 1.5 0 1.5h1.1c.4 0 .8 0 1.1-.1h1c.3-.1.7-.1 1-.2zm-3.2 3.8h5.4v.7h-6.2v-2.7h.8v2zm14.1-7.7v3.5h-6.2v-3.5h6.2zm-.8 2.8v-2.2h-4.6v2.2h4.6zm1.8 2v.6h-3.7v3.2h-.8v-3.2h-3.8v-.6h8.3zm1.9-4.7h.8v1.7h4.7v-1.7h.8v4.8h-6.3v-4.8zm.8 2.3v1.8h4.7v-1.8h-4.7zm-1.8 4.3h8.3v.7h-8.3v-.7zm15.6-6v-.1h-5.4v-.7h6.2s.03.78 0 .8v1.1c0 .4-.1.8-.2 1.3l-.8-.1c.1-.5.2-.9.2-1.2v-1.1zm-2.2 3h4.1v.7h-8.3v-.7h3.4V40h.8v1.8zm-.1 1.5c.5 0 .9.1 1.3.1c.4.1.8.2 1 .4c.3.1.5.3.7.5c.1.2.2.4.2.7c0 .3-.1.5-.2.7c-.2.2-.4.4-.7.5c-.2.2-.6.3-1 .4c-.4 0-.8.1-1.3.1c-.5 0-.9-.1-1.3-.1c-.4-.1-.7-.2-1-.4c-.3-.1-.5-.3-.6-.5c-.2-.2-.3-.4-.3-.7c0-.3.1-.5.3-.7c.1-.2.3-.4.6-.5c.3-.2.6-.3 1-.4c.4 0 .8-.1 1.3-.1zm0 2.7c.7 0 1.3-.1 1.7-.2c.5-.2.7-.5.7-.8c0-.3-.2-.6-.7-.8c-.4-.1-1-.2-1.7-.2c-.7 0-1.3.1-1.7.2c-.4.2-.6.5-.6.8c0 .3.2.6.6.8c.4.1 1 .2 1.7.2zm13.5-6.1v.7h-1.3v2.5h-.8v-5.5h.8v2.3h1.3zm-3.1 2.1l-.4.7c-.5-.2-1-.5-1.4-.8c-.3-.4-.6-.8-.8-1.3c-.2.5-.5 1-.9 1.4c-.4.4-.9.7-1.4.9l-.5-.7c.4-.1.7-.3 1-.5c.3-.2.5-.4.7-.7c.2-.2.4-.5.5-.8c.1-.3.1-.7.1-1c.04.02 0-.3 0-.3h-2v-.7h4.9v.7h-2s-.02.31 0 .3c0 .3 0 .6.1.9c.1.3.3.6.5.8c.2.2.4.5.7.7c.3.1.6.3.9.4zm-4.2 2.2v-.7h6v3.2h-.8v-2.5h-5.2zm16-2.2l-.4.7l-1-.3c-.4-.2-.7-.4-1-.6c-.3-.2-.6-.5-.8-.7c-.3-.3-.5-.6-.6-.9l-.6.9c-.3.2-.5.5-.8.7c-.3.2-.7.4-1 .6l-1 .3l-.4-.7c.4-.1.8-.2 1.2-.4c.4-.2.8-.4 1.1-.7c.3-.3.5-.6.7-.9c.2-.4.3-.8.3-1.1c.04-.04 0-.7 0-.7h.9s.02.66 0 .7c0 .3.1.7.3 1.1c.2.3.5.6.8.9c.3.3.7.5 1.1.7c.4.2.8.3 1.2.4zm-3.4 2.8h3.8v.7h-8.3v-.7h3.7v-2.2h.8v2.2zm11.6-7.3h.8v9.2h-.8v-9.2zm-1.8 3.6v-3.4h.8v8.5h-.8v-4.4s-1.14-.02-1.1 0c-.1.4-.1.8-.2 1.2c-.1.3-.3.7-.4.9c-.2.3-.4.4-.6.6c-.2.1-.5.2-.8.2c-.3 0-.5-.1-.8-.2c-.2-.2-.4-.4-.6-.7c-.2-.3-.3-.6-.4-1c-.1-.4-.1-.8-.1-1.3c0-.5 0-1 .1-1.3c.1-.4.2-.8.4-1c.2-.3.4-.5.6-.7c.3-.1.5-.2.8-.2c.3 0 .6.1.8.2c.2.1.4.3.6.6c.1.2.3.5.4.8c.1.4.1.8.2 1.2h1.1zm-3.1 2.8c.4 0 .7-.2.9-.6c.2-.5.3-1.1.3-1.8c0-.4 0-.7-.1-1c0-.3-.1-.6-.2-.8c-.1-.2-.2-.3-.4-.5c-.1-.1-.3-.1-.5-.1c-.3 0-.6.2-.9.6c-.2.5-.3 1-.3 1.8c0 .7.1 1.3.3 1.8c.3.4.6.6.9.6zm13.8-6.4h.9v9.2h-.9v-5.4h-2.1v-.7h2.1v-3.1zm-3.5.8s.03 1.67 0 1.7c0 .4.1.8.2 1.2c.1.4.3.8.5 1.1c.2.4.5.7.8 1c.3.3.6.5.9.6l-.5.7c-.5-.3-1-.7-1.4-1.2c-.4-.5-.7-1.1-.9-1.7c-.2.7-.5 1.3-.9 1.8c-.4.6-.8 1-1.4 1.3l-.5-.7c.4-.2.7-.4 1-.7c.2-.3.5-.6.7-1c.2-.4.4-.7.5-1.2c.1-.4.2-.8.2-1.2v-1.7h.8zm13.3 2v.7h-6.2v-3.1h.9v2.4h5.3zm-7.3 1.9h8.3v.7H379v-.7zm1.9 1.6v2h5.5v.7h-6.3v-2.7h.8z" stroke="none" fill="#111111"/></g><g id="Polygon96754"><path d="m1.7 20v1.1H.6s.04-1.09 0-1.1c0-.4.1-.7.2-.9c.1-.2.3-.3.4-.4c.2-.1.4-.1.5-.1v.4c-.1 0-.2.1-.3.1c0 .1-.1.2-.1.3c-.1.1-.1.2-.1.3v.3h.5zm7.4.9c.04.03 0-.2 0-.2H3.7v-.7h6.3s-.03.93 0 .9v.9c0 .3-.1.7-.1 1.1c0 .3 0 .7-.1 1.1c0 .4-.1.9-.2 1.4l-.8-.1c.2-.9.3-1.8.3-2.5v-1.9zm-6.3 5.3h8.3v.7H2.8v-.7zm16.7-7.1v6.7h-.9v-6.7h.9zm-2 4.4l.1.7c-.3 0-.7.1-1 .1c-.4.1-.7.1-1.1.1c-.3 0-.7.1-1.1.1h-1.9v-2.8h3.3v-1.3h-3.4v-.7h4.2v2.6h-3.3s-.03 1.5 0 1.5h1.1c.4 0 .8 0 1.1-.1h1c.3-.1.7-.1 1-.2zm-3.2 3.8h5.4v.7h-6.2v-2.7h.8v2zm14.1-7.7v3.5h-6.2v-3.5h6.2zm-.8 2.8v-2.2H23v2.2h4.6zm1.8 2v.6h-3.7v3.2h-.8V25h-3.8v-.6h8.3zm1.9-4.7h.8v1.7h4.7v-1.7h.8v4.8h-6.3v-4.8zm.8 2.3v1.8h4.7V22h-4.7zm-1.8 4.3h8.3v.7h-8.3v-.7zm15.6-6v-.1h-5.4v-.7h6.2s.04.78 0 .8v1.1c0 .4-.1.8-.2 1.3l-.8-.1c.1-.5.2-.9.2-1.2v-1.1zm-2.2 3h4.1v.7h-8.3v-.7h3.4v-1.8h.8v1.8zm-.1 1.5c.5 0 .9.1 1.3.1c.4.1.8.2 1 .4c.3.1.5.3.7.5c.1.2.2.4.2.7c0 .3-.1.5-.2.7c-.2.2-.4.4-.7.5c-.2.2-.6.3-1 .4c-.4 0-.8.1-1.3.1c-.5 0-.9-.1-1.3-.1c-.4-.1-.7-.2-1-.4c-.3-.1-.5-.3-.6-.5c-.2-.2-.3-.4-.3-.7c0-.3.1-.5.3-.7c.1-.2.3-.4.6-.5c.3-.2.6-.3 1-.4c.4 0 .8-.1 1.3-.1zm0 2.7c.7 0 1.3-.1 1.7-.2c.5-.2.7-.5.7-.8c0-.3-.2-.6-.7-.8c-.4-.1-1-.2-1.7-.2c-.7 0-1.3.1-1.7.2c-.4.2-.6.5-.6.8c0 .3.2.6.6.8c.4.1 1 .2 1.7.2zm13.6-6.1v.7h-1.4v2.5h-.8v-5.5h.8v2.3h1.4zM54 23.5l-.4.7c-.5-.2-1-.5-1.4-.8c-.3-.4-.6-.8-.8-1.3c-.2.5-.5 1-.9 1.4c-.4.4-.9.7-1.4.9l-.4-.7c.3-.1.6-.3.9-.5c.3-.2.5-.4.7-.7c.2-.2.4-.5.5-.8c.1-.3.1-.7.1-1c.05.02 0-.3 0-.3h-2v-.7h4.9v.7h-2v.3c0 .3 0 .6.1.9c.1.3.3.6.5.8c.2.2.4.5.7.7c.3.1.6.3.9.4zm-4.2 2.2v-.7h6v3.2h-.8v-2.5h-5.2zm16-2.2l-.4.7l-1-.3c-.4-.2-.7-.4-1-.6c-.3-.2-.6-.5-.8-.7c-.3-.3-.5-.6-.6-.9l-.6.9c-.3.2-.5.5-.8.7c-.3.2-.7.4-1 .6l-1 .3l-.4-.7c.4-.1.8-.2 1.2-.4c.4-.2.8-.4 1.1-.7c.3-.3.6-.6.8-.9c.1-.4.2-.8.2-1.1c.05-.04 0-.7 0-.7h.9s.02.66 0 .7c0 .3.1.7.3 1.1c.2.3.5.6.8.9c.3.3.7.5 1.1.7c.4.2.8.3 1.2.4zm-3.4 2.8h3.8v.7h-8.3v-.7h3.7v-2.2h.8v2.2zm4.8-6.7v-1.1h1.1s.03 1.08 0 1.1v.5c-.1.2-.1.3-.2.5l-.3.3c-.2.1-.4.1-.6.1v-.4c.2 0 .3-.1.3-.1c.1-.1.2-.2.2-.3c.1-.1.1-.2.1-.3v-.3c.02-.02-.6 0-.6 0zm8.5 1v-.7h-5.4v-.6h6.2v1.9h-5.3v.8h5.5v.6h-6.3v-2h5.3zm-6.4 2.7h8.3v.6h-8.3v-.6zm1.8 3.3v.9h5.8v.6h-6.6V26h5.4v-.7h-5.4v-.6h6.3v1.9h-5.5zm11.5 0h3v.8h-5v-.6s2.55-2.5 2.6-2.5c.1-.2.3-.4.5-.6c.2-.2.3-.4.4-.6c.1-.1.2-.3.3-.5c.1-.2.1-.4.1-.7c0-.4-.1-.7-.4-.9c-.3-.3-.6-.4-1-.4c-.2 0-.4.1-.6.1c-.1.1-.3.2-.4.3c-.2.2-.3.3-.3.5c-.1.2-.2.4-.2.6l-.9-.2l.3-.9c.2-.2.3-.4.5-.6c.3-.2.5-.3.8-.4c.3-.1.6-.2.9-.2c.3 0 .6.1.9.2c.2.1.5.2.7.4c.2.2.4.4.5.6c.1.3.1.6.1.9c0 .3 0 .6-.1.8c-.1.2-.2.5-.3.7c-.2.2-.3.4-.5.6c-.2.2-.4.5-.6.7l-2.1 2c.1 0 .3 0 .4-.1h.4zm9.1-2.9c0 .7-.1 1.2-.2 1.7c-.1.5-.3.9-.6 1.2c-.2.4-.5.6-.9.7c-.3.2-.6.3-1 .3c-.4 0-.8-.1-1.1-.3c-.4-.1-.6-.3-.9-.7c-.2-.3-.4-.7-.6-1.2c-.1-.5-.2-1-.2-1.7c0-.7.1-1.2.2-1.7c.2-.5.4-.9.6-1.2c.3-.3.5-.6.9-.7c.3-.2.7-.3 1.1-.3c.4 0 .7.1 1 .3c.4.1.7.4.9.7c.3.3.5.7.6 1.2c.1.5.2 1 .2 1.7zm-.9 0c0-.6-.1-1.1-.2-1.5c-.1-.4-.2-.7-.4-.9c-.1-.3-.3-.4-.6-.5c-.2-.1-.4-.2-.6-.2c-.3 0-.5.1-.7.2c-.2.1-.4.2-.6.5c-.2.2-.3.5-.4.9c-.1.4-.1.9-.1 1.5c0 .6 0 1.1.1 1.5c.1.4.2.7.4.9c.2.3.4.5.6.6c.2.1.4.1.7.1c.2 0 .4 0 .6-.1c.3-.1.5-.3.6-.6c.2-.2.3-.5.4-.9c.1-.4.2-.9.2-1.5zm3.6 2.9h2.9v.8h-5v-.6l2.6-2.5c.2-.2.4-.4.5-.6c.2-.2.4-.4.5-.6c.1-.1.2-.3.3-.5c0-.2.1-.4.1-.7c-.1-.4-.2-.7-.5-.9c-.2-.3-.5-.4-.9-.4c-.2 0-.4.1-.6.1c-.2.1-.4.2-.5.3c-.1.2-.2.3-.3.5c-.1.2-.1.4-.1.6l-.9-.2c0-.3.1-.6.3-.9c.1-.2.3-.4.5-.6c.2-.2.5-.3.7-.4c.3-.1.6-.2.9-.2c.4 0 .6.1.9.2c.3.1.5.2.7.4c.2.2.4.4.5.6c.1.3.2.6.2.9c0 .3 0 .6-.1.8c-.1.2-.2.5-.4.7c-.1.2-.3.4-.5.6c-.2.2-.4.5-.6.7l-2.1 2c.2 0 .3 0 .5-.1h.4zm9.1-2.9c0 .7-.1 1.2-.3 1.7c-.1.5-.3.9-.5 1.2c-.3.4-.6.6-.9.7c-.3.2-.7.3-1.1.3c-.4 0-.7-.1-1.1-.3c-.3-.1-.6-.3-.8-.7c-.3-.3-.5-.7-.6-1.2c-.2-.5-.2-1-.2-1.7c0-.7 0-1.2.2-1.7c.1-.5.3-.9.6-1.2c.2-.3.5-.6.8-.7c.4-.2.7-.3 1.1-.3c.4 0 .8.1 1.1.3c.3.1.6.4.9.7c.2.3.4.7.5 1.2c.2.5.3 1 .3 1.7zm-1 0c0-.6 0-1.1-.1-1.5c-.1-.4-.3-.7-.4-.9c-.2-.3-.4-.4-.6-.5c-.2-.1-.4-.2-.7-.2c-.2 0-.5.1-.7.2c-.2.1-.4.2-.5.5c-.2.2-.3.5-.4.9c-.1.4-.2.9-.2 1.5c0 .6.1 1.1.2 1.5c.1.4.2.7.4.9c.1.3.3.5.5.6c.2.1.5.1.7.1c.3 0 .5 0 .7-.1c.2-.1.4-.3.6-.6c.1-.2.3-.5.4-.9c.1-.4.1-.9.1-1.5zm8.3 2.1v-3.1h-2.6v-.7h2.6v-1.1h-2.6v-.7h2.6v-1.1h.8v6.7h-.8zm-1.5-2.4v.7c-.7.2-1.4.3-2 .3c-.7 0-1.3.1-2 .1c-.01-.03-.7 0-.7 0v-4.8h.8s.04 4.06 0 4.1c.7 0 1.3-.1 1.9-.1c.6-.1 1.3-.1 2-.3zm-2.7 3.9h5.2v.7h-6.1v-2.8h.9v2.1zm8.9-7.3h4.9v.6l-3.4 6.8h-1l3.1-6.1l.3-.5h-3.9v-.8zm10.5 3.4h1.9v-4.3h.8v5.3h-.8v-.5H126v-.5zm-1.9-1.4c-.3 0-.6-.1-.9-.1c-.3-.1-.5-.2-.7-.3c-.2-.1-.3-.3-.5-.4c-.1-.2-.1-.4-.1-.6c0-.2 0-.4.1-.6c.2-.2.3-.3.5-.4c.2-.1.4-.2.7-.3c.3 0 .6-.1.9-.1c.4 0 .7.1 1 .1c.2.1.5.2.7.3c.2.1.3.2.4.4c.1.2.2.4.2.6c0 .2-.1.4-.2.6c-.1.1-.2.3-.4.4c-.2.1-.5.2-.7.3c-.3 0-.6.1-1 .1zm0-2.2c-.4 0-.8.1-1 .2c-.3.2-.4.4-.4.6c0 .2.1.4.4.6c.2.1.6.2 1 .2c.5 0 .8-.1 1.1-.2c.3-.2.4-.4.4-.6c0-.2-.1-.4-.4-.6c-.3-.1-.6-.2-1.1-.2zm-.4 4.7s-.04-1.41 0-1.4h-2.4l-.1-.6h2.9c.5-.1 1-.1 1.5-.1c.5 0 1-.1 1.5-.1l.1.5c-.5.1-.9.1-1.4.2h-1.3v1.5h-.8zm-.3 3h5.6v.6h-6.4v-2h5.3v-.7h-5.3v-.6h6.1v1.9h-5.3v.8zm15.8-3.7v-2.4h-2v-.7h2v-1.6h.8v4.7h-.8zm-1.4-.9l-.4.7c-.5-.2-1-.5-1.4-.8c-.3-.4-.6-.8-.8-1.2c-.2.5-.5.9-.9 1.3c-.4.4-.9.7-1.4.9l-.4-.7c.3-.1.6-.2.9-.4c.3-.2.5-.5.7-.7c.2-.3.4-.6.5-.9c.1-.3.1-.6.1-.9c.04-.02 0-.9 0-.9h.9s-.03.88 0 .9c0 .3 0 .6.1.9c.1.2.3.5.5.7c.2.3.4.5.7.7c.3.2.6.3.9.4zm-2.8 4.5h5.4v.7h-6.3v-2.3h5.1v-.9h-5.1v-.7h5.9v2.2h-5v1zm13.3-8.3h.9v5h-.9v-5zm-1.1 3.8l.1.7c-.4 0-.7.1-1.1.1c-.3.1-.7.1-1 .1c-.4 0-.8.1-1.1.1h-1.2c-.04-.02-.8 0-.8 0v-2.6h3.3v-1.1h-3.3v-.7h4.2v2.5h-3.4s.04 1.19 0 1.2h1.2c.4 0 .7 0 1-.1h1.1c.3-.1.6-.1 1-.2zm1.1 2.7v-1.1h.9v3.6h-6v-3.6h.9v1.1h4.2zm0 1.8v-1.1h-4.2v1.1h4.2zm2.2.8l.4-2.1h.9l-.6 2.1h-.7zm10.8-9.1h.8v9.1h-.8v-9.1zm-3.4 1.6v1.1c0 .4.1.8.2 1.2c.1.4.3.7.5 1.1c.2.3.5.6.8.8c.3.3.6.5.9.6l-.4.7c-.6-.2-1-.6-1.5-1.1c-.4-.5-.7-1.1-.9-1.7c-.1.3-.3.7-.4 1c-.2.3-.4.6-.6.8c-.2.3-.4.5-.6.7c-.3.2-.5.4-.8.5l-.5-.6c.4-.2.7-.4 1-.7c.3-.3.5-.6.7-.9c.3-.4.4-.8.6-1.2c.1-.4.2-.8.2-1.2c-.04.04 0-1.1 0-1.1h-2.2v-.7h5.1v.7h-2.1zm13.7 1.3l-.3.7c-.4 0-.7-.1-1.1-.2c-.3-.2-.6-.3-.9-.5c-.3-.1-.6-.3-.8-.6c-.2-.2-.4-.4-.6-.7c-.1.3-.3.5-.5.7c-.3.3-.5.5-.8.6c-.3.2-.6.3-.9.5c-.4.1-.7.2-1.1.2l-.3-.7c.4 0 .8-.1 1.2-.3c.4-.1.7-.3 1-.5c.3-.2.6-.5.7-.7c.2-.3.3-.6.3-.9v-.4h.9s-.03.39 0 .4c0 .3.1.6.2.9c.2.2.5.5.8.7c.3.2.6.4 1 .5c.4.2.8.3 1.2.3zm-3.2 1.6h3.7v.7h-8.3v-.7h3.7v-1.4h.9v1.4zm-3.7 2.3v-.7h6.4v3h-.9v-2.3h-5.5zm15-6.9h.8v5.5h-.8v-2.4h-1.8v-.7h1.8V19zm-1.3 4.5l-.4.7c-.5-.2-1-.5-1.4-.9c-.3-.3-.6-.7-.8-1.2c-.2.5-.5 1-.9 1.4c-.4.4-.9.7-1.4.9l-.5-.7c.4-.1.7-.3 1-.5c.2-.2.5-.4.7-.7c.2-.2.3-.5.5-.8c.1-.3.1-.7.1-1c.03.01 0-.4 0-.4h-2v-.6h4.9v.6h-2s-.04.41 0 .4c0 .3 0 .6.1.9c.1.3.3.5.5.8c.2.2.4.5.7.6c.3.2.6.4.9.5zm-4 2.2v-.7h6.1v3.2h-.8v-2.5h-5.3zm11.9-6.1c.5 0 .9.1 1.3.2c.4.1.8.3 1.1.5c.3.2.5.5.7.8c.1.3.2.7.2 1c0 .4-.1.8-.2 1.1c-.2.3-.4.6-.7.8c-.3.2-.7.4-1.1.5c-.4.1-.8.2-1.3.2c-.5 0-.9-.1-1.3-.2c-.4-.1-.8-.3-1.1-.5c-.3-.2-.5-.5-.7-.8c-.1-.3-.2-.7-.2-1.1c0-.3.1-.7.2-1c.2-.3.4-.6.7-.8c.3-.2.7-.4 1.1-.5c.4-.1.8-.2 1.3-.2zm0 .7c-.4 0-.7 0-1 .1c-.3.1-.6.2-.8.4c-.2.2-.4.4-.5.6c-.2.2-.2.5-.2.7c0 .3 0 .6.2.8c.1.2.3.4.5.6c.2.1.5.3.8.4c.3 0 .6.1 1 .1c.4 0 .7-.1 1-.1c.3-.1.6-.3.8-.4c.2-.2.4-.4.5-.6c.2-.2.2-.5.2-.8c0-.2 0-.5-.2-.7c-.1-.2-.3-.4-.5-.6c-.2-.2-.5-.3-.8-.4c-.3-.1-.6-.1-1-.1zm-4.1 6h8.3v.7h-8.3v-.7zm13.7.1h3.8v.7h-8.4v-.7h3.8v-1.7h-2.7v-2.9h5.4v-1.4h-5.4v-.7h6.2v2.8h-5.4v1.5h5.6v.7h-2.9v1.7zm13.4-7.3h.8v9.1h-.8v-9.1zm-3.4 1.6s-.02 1.14 0 1.1c0 .4 0 .8.2 1.2c.1.4.3.7.5 1.1c.2.3.5.6.8.8c.3.3.6.5.9.6l-.4.7c-.6-.2-1.1-.6-1.5-1.1c-.4-.5-.7-1.1-.9-1.7c-.1.3-.3.7-.4 1c-.2.3-.4.6-.6.8c-.2.3-.4.5-.7.7c-.2.2-.4.4-.7.5l-.5-.6c.3-.2.6-.4.9-.7c.3-.3.6-.6.8-.9c.2-.4.4-.8.5-1.2c.2-.4.2-.8.2-1.2c.04.04 0-1.1 0-1.1h-2.1v-.7h5.1v.7h-2.1zm10.7 3.7h1.8V19h.9v7h-.9v-.9h-1.8v-.7zm-1.9-1.8c-.3 0-.6 0-.9-.1c-.3-.1-.5-.2-.7-.3c-.2-.2-.4-.3-.5-.5c-.1-.2-.1-.5-.1-.7c0-.2 0-.5.1-.7c.1-.2.3-.3.5-.5c.2-.1.4-.2.7-.3c.3-.1.6-.1.9-.1c.4 0 .7 0 .9.1c.3.1.5.2.7.3c.2.2.4.3.5.5c.1.2.2.5.2.7c0 .2-.1.5-.2.7c-.1.2-.3.3-.5.5c-.2.1-.4.2-.7.3c-.2.1-.5.1-.9.1zm0-2.6c-.4 0-.8.1-1 .3c-.3.2-.4.4-.4.7c0 .3.1.5.4.7c.2.2.6.3 1 .3c.5 0 .8-.1 1.1-.3c.2-.2.4-.4.4-.7c0-.3-.2-.5-.4-.7c-.3-.2-.6-.3-1.1-.3zm-.3 5.7s-.01-1.78 0-1.8c-.5 0-.9.1-1.3.1h-1.2l-.2-.7h1.4c.5 0 1 0 1.5-.1h1.5c.6-.1 1.1-.1 1.5-.2l.1.6c-.4.1-.8.1-1.2.2c-.4 0-.9 0-1.3.1c.03-.02 0 1.8 0 1.8h-.8zm-.5 1.6h5.6v.7H213v-2.7h.9v2zm15.6-4.5v.7H228v4.7h-.8v-9.1h.8v3.7h1.5zm-5.4-3.6v1.3h2.2v.7h-5.4v-.7h2.3v-1.3h.9zm-.4 2.7c.3 0 .6.1.9.2c.2.1.5.2.7.4c.2.2.3.4.4.7c.1.3.2.5.2.8c0 .4-.1.6-.2.9c-.1.3-.2.5-.4.7c-.2.2-.5.3-.7.4c-.3.1-.6.1-.9.1c-.4 0-.7 0-.9-.1c-.3-.1-.5-.2-.7-.4c-.2-.2-.4-.4-.5-.7c-.1-.3-.2-.5-.2-.9c0-.3.1-.5.2-.8c.1-.3.3-.5.5-.7c.2-.2.4-.3.7-.4c.2-.1.5-.2.9-.2zm0 3.6c.2 0 .4-.1.5-.2c.2 0 .4-.1.5-.2c.1-.2.2-.3.3-.5c.1-.2.1-.3.1-.6c0-.2 0-.3-.1-.5c-.1-.2-.2-.3-.3-.5c-.1-.1-.3-.2-.5-.3c-.1 0-.3-.1-.5-.1c-.2 0-.4.1-.6.1c-.2.1-.3.2-.5.3c-.1.2-.2.3-.3.5c0 .2-.1.3-.1.5c0 .3.1.4.1.6c.1.2.2.3.3.5c.2.1.3.2.5.2c.2.1.4.2.6.2zm12.9-4.6v-.3H231v-.6h6.4s.04.87 0 .9v1.8c0 .4-.1.7-.1 1.1c0 .4-.1.8-.2 1.3l-.8-.1c.1-.9.2-1.6.3-2.3v-1.8zm-2.4 5.3h4.2v.7h-8.2v-.7h3.2v-3.3h.8v3.3zm14.7-7.1v5.2h-.8v-5.2h.8zm-4.9 4.7c-.3 0-.7 0-1-.1c-.2-.1-.5-.3-.7-.4c-.2-.2-.4-.5-.5-.7c-.1-.3-.2-.6-.2-.9c0-.3.1-.6.2-.9c.1-.2.3-.4.5-.6c.2-.2.5-.4.7-.5c.3-.1.7-.1 1-.1c.3 0 .7 0 1 .1c.3.1.5.3.7.5c.2.2.4.4.5.6c.1.3.2.6.2.9c0 .3-.1.6-.2.9c-.1.2-.3.5-.5.7c-.2.1-.4.3-.7.4c-.3.1-.7.1-1 .1zm0-3.5c-.2 0-.4 0-.6.1c-.2.1-.4.2-.5.3c-.2.1-.3.3-.3.4c-.1.2-.2.4-.2.6c0 .2.1.4.2.6c0 .2.1.3.3.4c.1.2.3.3.5.3c.2.1.4.2.6.2c.2 0 .4-.1.6-.2c.2 0 .4-.1.5-.3c.2-.1.3-.2.4-.4c0-.2.1-.4.1-.6c0-.2-.1-.4-.1-.6c-.1-.1-.2-.3-.4-.4c-.1-.1-.3-.2-.5-.3c-.2-.1-.4-.1-.6-.1zm3.9 4.4v.5c0 .2 0 .4.1.7c.1.2.2.4.4.6c.1.2.3.4.6.6c.2.1.4.2.7.3l-.4.7c-.4-.2-.8-.4-1.1-.7c-.3-.3-.6-.7-.7-1.1c-.2.4-.4.8-.7 1.1c-.2.3-.6.6-1 .7c-.5-.1-.8-.4-1.1-.7c-.3-.3-.5-.6-.6-1c-.2.3-.4.7-.7 1c-.3.3-.7.5-1.1.7l-.4-.7c.2-.1.5-.2.7-.4c.3-.1.5-.3.6-.5c.2-.2.3-.4.4-.7c.1-.2.1-.4.1-.6v-.5h.8v.5c0 .4.1.8.3 1.2c.2.4.5.7 1 .9c.2-.1.4-.3.5-.4c.2-.2.3-.4.5-.6c.1-.2.1-.4.2-.6c.1-.2.1-.4.1-.5c-.02-.04 0-.5 0-.5h.8zm11.2-2v.6h-1.5v4.9h-.8V19h.8v3.7h1.5zm-7.3-2.1s.02 4.61 0 4.6h2.2c.3-.1.6-.1 1-.1c.3-.1.6-.1.9-.2l.1.7c-.3.1-.7.1-1 .2c-.3 0-.7 0-1 .1h-2.3c0 .03-.7 0-.7 0v-6h4.2v.7h-3.4zm7.9 7v-1h.9v1h-.9zm11.4-6.2h1.4v.7h-1.4v2.5h-.8v-5.5h.8v2.3zm-1.8 2.1l-.4.6c-.5-.1-1-.4-1.4-.7c-.3-.4-.6-.8-.8-1.2c-.2.5-.5.9-.9 1.3c-.4.4-.9.7-1.4.9l-.4-.7c.3-.1.6-.3.9-.5c.3-.2.5-.4.7-.6c.2-.3.4-.6.5-.9c.1-.3.1-.6.1-.9c.05-.05 0-.4 0-.4h-2v-.7h4.9v.7h-2v.4c0 .3 0 .5.1.8c.1.3.3.6.5.8c.2.2.4.4.7.6c.3.2.6.4.9.5zm-1.1 1.3c.4 0 .9 0 1.2.1c.4.1.7.2 1 .3l.6.6c.1.2.2.4.2.7c0 .3-.1.5-.2.7c-.2.2-.4.4-.6.5c-.3.2-.6.3-1 .4c-.3 0-.8.1-1.2.1c-1 0-1.7-.2-2.2-.5c-.6-.3-.8-.7-.8-1.2c0-.5.2-1 .8-1.3c.5-.2 1.2-.4 2.2-.4zm0 2.7c.7 0 1.2-.1 1.6-.3c.4-.1.6-.4.6-.7c0-.3-.2-.6-.6-.8c-.4-.1-.9-.2-1.6-.2c-.7 0-1.3.1-1.6.2c-.4.2-.6.5-.6.8c0 .3.2.6.6.7c.3.2.9.3 1.6.3zm12.1-5.7h1.3v.7h-1.3v3.2h-.9v-6.6h.9v2.7zm-1.8 1.1l.1.7c-.8.2-1.5.3-2.2.3c-.7.1-1.4.1-2.1.1h-.7v-4.3h.8s.05 3.6 0 3.6c.7 0 1.4 0 2-.1c.7 0 1.4-.1 2.1-.3zm-3.1 2.1v2.3h5.2v.7h-6v-3h.8zm15.4-3.7v.7h-1.3v2.2h-.9V19h.9v2.3h1.3zm-8-1.7s4.18.02 4.2 0c0 .6-.1 1.1-.3 1.6c-.2.5-.5 1-.9 1.4c-.3.4-.8.7-1.3 1c-.6.3-1.2.5-1.8.7l-.4-.6c1.2-.3 2.1-.8 2.7-1.4c.6-.5 1-1.2 1.1-2c-.02.01-3.3 0-3.3 0v-.7zm.9 8.5v-3.4h5.8v3.4h-5.8zm.8-2.8v2.1h4.1v-2.1h-4.1zm11.2-2.3c-.5 0-1 0-1.4-.1c-.4-.1-.7-.2-1-.4c-.3-.1-.5-.3-.6-.6c-.2-.2-.2-.4-.2-.7c0-.3 0-.6.2-.8c.1-.2.3-.4.6-.6c.3-.1.6-.2 1-.3c.4-.1.9-.1 1.4-.1c.5 0 .9 0 1.3.1c.4.1.7.2 1 .3c.3.2.5.4.7.6c.1.2.2.5.2.8c0 .3-.1.5-.2.7c-.2.3-.4.5-.7.6c-.3.2-.6.3-1 .4c-.4.1-.8.1-1.3.1zm0-3c-.8 0-1.3.1-1.8.3c-.4.2-.6.5-.6.9c0 .3.2.6.6.8c.5.2 1 .3 1.8.3c.7 0 1.3-.1 1.7-.3c.4-.2.6-.5.6-.8c0-.4-.2-.7-.6-.9c-.4-.2-1-.3-1.7-.3zm-4.2 3.9h8.3v.6h-8.3v-.6zm1.9 1.4v2h5.5v.7h-6.3v-2.7h.8zm14-1.5h3.7v.6h-8.3v-.6h3.7v-1.1h-2.6v-3.4h.8v1h4.5v-1h.8v3.4h-2.6v1.1zm-2.7-2.9v1.1h4.5v-1.1h-4.5zm-1 5.1v-.7h6.3v2.9h-.8V26h-5.5zm13.7-6v.7H312v-.7h2.3v-1.1h.8v1.1h2.3zm3 1.4v.7h-1.3v2.3h-.9V19h.9v2.4h1.3zm-3.5 1.3c0 .2-.1.4-.2.6c-.1.2-.2.4-.4.5c-.2.2-.4.3-.7.4c-.3 0-.6.1-.9.1c-.3 0-.6-.1-.9-.1c-.3-.1-.5-.2-.7-.4c-.2-.1-.3-.3-.4-.5c-.1-.2-.2-.4-.2-.6c0-.3.1-.5.2-.7c.1-.2.2-.3.4-.5c.2-.1.4-.2.7-.3c.3-.1.6-.1.9-.1c.3 0 .6 0 .9.1c.3.1.5.2.7.3c.2.2.3.3.4.5c.1.2.2.4.2.7zm-3.6 0c0 .3.1.5.4.7c.2.2.6.3 1 .3c.4 0 .8-.1 1-.3c.3-.2.4-.4.4-.7c0-.3-.1-.6-.4-.7c-.2-.2-.6-.3-1-.3c-.4 0-.8.1-1 .3c-.3.1-.4.4-.4.7zm4.9 3v-.9h.9v3.3h-5.8v-3.3h.8v.9h4.1zm0 1.7v-1h-4.1v1h4.1zm5.1-5.7V20h-1.4v-.7h6.7v.7h-1.3v1.7h1.3v.7H322v-.7h1.3zm3.1 0V20h-2.3v1.7h2.3zm-5.3 1.4h8.3v.7h-8.3v-.7zm1.9 3.5v.9h5.6v.6h-6.4V26h5.3v-.8h-5.4v-.6h6.3v2H323zm15.9-3.9v.7h-1.5v4.8h-.9V19h.9v3.7h1.5zm-7.4.5s.03 2.09 0 2.1h1.2c.4 0 .7 0 1-.1c.4 0 .7 0 1-.1c.4 0 .7-.1 1-.1l.1.7c-.3 0-.7.1-1 .1c-.4.1-.7.1-1.1.1c-.3 0-.7.1-1 .1h-2v-3.5h3.3v-1.9h-3.3v-.7h4.1v3.3h-3.3zm15.9.4l-.4.7c-.3 0-.7-.2-1-.3c-.4-.2-.7-.4-1-.6c-.3-.2-.6-.5-.8-.8l-.6-.9c-.1.3-.3.6-.6.9c-.2.3-.5.6-.8.8l-.9.6c-.4.1-.7.3-1.1.3l-.3-.7c.4 0 .8-.2 1.2-.4c.4-.2.7-.4 1-.7c.3-.3.6-.6.8-1c.2-.3.3-.7.3-1.1v-.7h.9s-.04.69 0 .7c0 .4.1.7.3 1.1c.2.4.4.7.7 1c.3.3.7.5 1.1.7c.4.2.8.4 1.2.4zm-7.9 2.7h8.3v.7h-8.3v-.7zm15.9-7.3h.8v5.6h-.8V19zm-1.1 4.2l.1.6c-.3.1-.7.1-1 .2h-1c-.3.1-.7.1-1.1.1h-2.1v-4.4h4.4v.6h-3.5v1.2h3.2v.7h-3.2s-.05 1.22 0 1.2h2.3c.4 0 .7-.1 1-.1c.3 0 .6-.1.9-.1zm-4.2 2.5v-.6h6.1v3.1h-.8v-2.5h-5.3zm11.9-6.1c.5 0 .9.1 1.3.2c.4.1.8.3 1.1.5c.3.2.5.5.7.8c.1.3.2.7.2 1c0 .4-.1.8-.2 1.1c-.2.3-.4.6-.7.8c-.3.2-.7.4-1.1.5c-.4.1-.8.2-1.3.2c-.5 0-.9-.1-1.3-.2c-.4-.1-.8-.3-1.1-.5c-.3-.2-.5-.5-.7-.8c-.1-.3-.2-.7-.2-1.1c0-.3.1-.7.2-1c.2-.3.4-.6.7-.8c.3-.2.7-.4 1.1-.5c.4-.1.8-.2 1.3-.2zm0 .7c-.4 0-.7 0-1 .1c-.3.1-.6.2-.8.4c-.2.2-.4.4-.5.6c-.2.2-.2.5-.2.7c0 .3 0 .6.2.8c.1.2.3.4.5.6c.2.1.5.3.8.4c.3 0 .6.1 1 .1c.4 0 .7-.1 1-.1c.3-.1.6-.3.8-.4c.2-.2.4-.4.5-.6c.2-.2.2-.5.2-.8c0-.2 0-.5-.2-.7c-.1-.2-.3-.4-.5-.6c-.2-.2-.5-.3-.8-.4c-.3-.1-.6-.1-1-.1zm-4.1 6h8.3v.7h-8.3v-.7zm13.7.1h3.8v.7H367v-.7h3.8v-1.7h-2.7v-2.9h5.4v-1.4h-5.4v-.7h6.2v2.8h-5.4v1.5h5.6v.7h-2.9v1.7z" stroke="none" fill="#111111"/></g><g id="Polygon96753"><path d="m5.7 1.7v.6H.6v-.6h2.1V.5h.9v1.2h2.1zm0 1.3h1.5V.6h.9v6.9h-.9V5.6H5.7v-.7h1.5V3.7H5.7v-.7zm-.5 1.6c0 .2 0 .5-.1.7c-.1.2-.3.4-.5.5c-.1.2-.4.3-.6.4c-.3.1-.5.1-.8.1c-.4 0-.6 0-.9-.1c-.2-.1-.5-.2-.6-.4c-.2-.1-.4-.3-.5-.5c-.1-.2-.1-.5-.1-.7c0-.3 0-.5.1-.7c.1-.2.3-.4.5-.6c.1-.1.4-.3.6-.3c.3-.1.5-.2.9-.2c.3 0 .5.1.8.2c.2 0 .5.2.6.3c.2.2.4.4.5.6c.1.2.1.4.1.7zm-3.3 0c0 .3.1.6.3.8c.3.2.6.3 1 .3c.3 0 .6-.1.9-.3c.2-.2.3-.5.3-.8c0-.3-.1-.6-.3-.8c-.3-.2-.6-.3-.9-.3c-.4 0-.7.1-1 .3c-.2.2-.3.5-.3.8zM3 8.8h5.3v.7H2.2V6.9h.8v1.9zM16.7.5h.8v9.2h-.8V4.9h-1.3v4.3h-.8V.7h.8v3.5h1.3V.5zm-5.8 1.8s-.03 4.44 0 4.4h1.6c.5-.1 1-.1 1.5-.2v.7c-.2 0-.5.1-.8.1c-.2 0-.5.1-.8.1h-1.8c.05.04-.6 0-.6 0V1.7h3.5v.6h-2.6zm16.5 1.9v.7h-1.5v4.8h-.8V.6h.8v3.6h1.5zm-5.4-2s-.02 1.14 0 1.1c0 .4 0 .8.2 1.1c.1.4.3.8.5 1.1c.2.3.4.6.7.9c.3.3.6.5.9.6l-.4.7c-.5-.2-1-.6-1.4-1.1c-.4-.5-.7-1.1-.9-1.7c-.1.3-.3.7-.4 1c-.2.3-.4.6-.6.8c-.2.3-.4.5-.6.7c-.3.2-.5.4-.8.5l-.5-.6c.4-.2.7-.4 1-.7c.3-.3.5-.6.7-1c.3-.3.4-.7.6-1.1c.1-.4.2-.8.2-1.2c-.05.04 0-1.1 0-1.1h-2.1v-.7h4.9v.7h-2zm10.6 2.9h3.8v.6h-8.3v-.6h3.7V4h-2.7v-3h6.2v.6H30v1.7h5.4v.7h-2.8v1.1zm-.4 1.3c1 0 1.8.1 2.3.4c.6.3.8.7.8 1.2c0 .6-.2 1-.8 1.3c-.5.2-1.3.4-2.3.4c-1 0-1.7-.2-2.3-.4c-.5-.3-.8-.7-.8-1.3c0-.5.3-.9.8-1.2c.6-.3 1.3-.4 2.3-.4zm0 2.6c.7 0 1.3 0 1.7-.2c.4-.2.6-.4.6-.8c0-.3-.2-.5-.6-.7c-.4-.2-1-.3-1.7-.3c-.7 0-1.3.1-1.7.3c-.4.2-.6.4-.6.7c0 .4.2.6.6.8c.4.2 1 .2 1.7.2zm13.6-4.7v.7h-1.5v4.7h-.8V.5h.8v3.8h1.5zm-5.5-1.5s.02.71 0 .7c0 .4.1.7.2 1.1c.1.4.2.7.4 1c.2.3.5.6.7.9c.3.2.6.5.9.6l-.4.7c-.5-.3-1-.6-1.3-1.1c-.4-.5-.7-1-.9-1.6c-.2.6-.5 1.2-.9 1.7c-.4.5-.8.9-1.4 1.1l-.4-.6l.9-.6c.3-.3.5-.6.7-.9c.2-.4.4-.7.5-1.1c.1-.4.2-.8.2-1.2v-.7h-2.1v-.7h2.1V.7h.8v1.4h2.1v.7h-2.1zm12.5-.4c-.02.03 0-.2 0-.2h-5.5v-.7h6.3s.01.93 0 .9v2c-.1.3-.1.7-.1 1.1c-.1.4-.2.9-.2 1.4l-.9-.1c.2-.9.3-1.8.3-2.5c.1-.7.1-1.3.1-1.9zm-6.3 5.3h8.2v.7h-8.2v-.7zM62 2.2v-.8h-5.3v-.7h6.2v2.1h-5.4v.9h5.5v.6h-6.3V2.2h5.3zm-6.4 2.9h8.3v.6h-3.7v1.2h-.9V5.7h-3.7v-.6zM62 7.3v-1h.9v3.3h-6.2V6.3h.8v1h4.5zm0 1.6v-.9h-4.5v.9h4.5zm6.9-4.4c-.5 0-.9 0-1.3-.1c-.4-.1-.7-.2-1-.4c-.3-.1-.5-.3-.7-.6c-.1-.2-.2-.4-.2-.7c0-.3.1-.6.2-.8c.2-.2.4-.4.7-.6c.3-.1.6-.2 1-.3c.4-.1.8-.1 1.3-.1c.5 0 1 0 1.4.1c.4.1.7.2 1 .3c.3.2.5.4.6.6c.2.2.2.5.2.8c0 .3 0 .5-.2.7c-.1.3-.3.5-.6.6c-.3.2-.6.3-1 .4c-.4.1-.9.1-1.4.1zm0-3c-.7 0-1.3.1-1.7.3c-.4.2-.6.5-.6.9c0 .3.2.6.6.8c.4.2 1 .3 1.7.3c.8 0 1.3-.1 1.8-.3c.4-.2.6-.5.6-.8c0-.4-.2-.7-.6-.9c-.5-.2-1-.3-1.8-.3zm-4.1 3.9h8.3v.6h-8.3v-.6zm1.9 1.4v2h5.5v.7h-6.3V6.8h.8zm11.5-3.6V1.5h-1.4v-.7h6.7v.7h-1.3v1.7h1.3v.7h-6.6v-.7h1.3zm3.1 0V1.5H79v1.7h2.3zm-5.2 1.4h8.2v.7h-8.2v-.7zm1.8 3.5v.9h5.6v.6h-6.4V7.5h5.3v-.8h-5.3v-.6h6.2v2h-5.4zm15.9-3.9v.7h-1.5v4.8h-.8V.5h.8v3.7h1.5zm-7.4.5s.03 2.09 0 2.1h1.2c.4 0 .7 0 1.1-.1c.3 0 .6 0 .9-.1c.4 0 .7-.1 1-.1l.1.7c-.3 0-.7.1-1 .1c-.4.1-.7.1-1 .1c-.4 0-.8.1-1.1.1h-2V4h3.3V2.1h-3.3v-.7h4.1v3.3h-3.3zm15.9.4l-.4.7c-.3 0-.7-.2-1-.3c-.4-.2-.7-.4-1-.6c-.3-.2-.6-.5-.8-.8l-.6-.9c-.1.3-.3.6-.5.9c-.3.3-.6.6-.9.8l-.9.6c-.4.1-.7.3-1.1.3l-.3-.7c.4 0 .8-.2 1.2-.4c.4-.2.7-.4 1-.7c.3-.3.6-.6.8-1c.2-.3.3-.7.3-1.1v-.7h.9s-.03.69 0 .7c0 .4.1.7.3 1.1c.2.4.4.7.7 1c.4.3.7.5 1.1.7c.4.2.8.4 1.2.4zm-7.9 2.7h8.3v.7h-8.3v-.7zM110.3.5h.8v5.6h-.8V.5zm-1.1 4.2l.1.6c-.3.1-.6.1-1 .2h-1c-.3.1-.7.1-1.1.1h-2.1V1.2h4.4v.6H105v1.2h3.2v.7H105s-.04 1.22 0 1.2h2.3c.4 0 .7-.1 1-.1c.3 0 .6-.1.9-.1zM105 7.2v-.6h6.1v3.1h-.8V7.2H105zM121.9.6h.8v9.1h-.8V.6zm-1.8 2.5V.8h.8v8.4h-.8V5.8h-1.2v-.7h1.2V3.8h-1.2v-.7h1.2zm-1.7-.7s-.02 4.25 0 4.3c.1-.1.3-.1.5-.1h.4l.1.6c-.4 0-.8.1-1.2.1c-.4.1-.8.1-1.2.1h-1.1c-.4.1-.7.1-1 .1c-.05-.04-.1-.7-.1-.7c0 0 .65-.04.7 0h.2c.01-.05 0-4.4 0-4.4h-.8v-.7h4.2v.7h-.7zm-1.9 0s-.03 4.34 0 4.3h1.1c.02-.01 0-4.3 0-4.3h-1.1zm14.6.5h1.4v.7h-1.4v2.5h-.8V.6h.8v2.3zM129.3 5l-.4.6c-.5-.1-.9-.4-1.3-.7c-.4-.4-.7-.8-.9-1.2c-.2.5-.5.9-.9 1.3c-.3.4-.8.7-1.4.9l-.4-.7c.3-.1.7-.3.9-.5c.3-.2.6-.4.8-.6c.2-.3.3-.6.4-.9c.1-.3.2-.6.2-.9v-.4h-2.1v-.7h5v.7h-2.1s.03.35 0 .4c0 .3.1.5.2.8c.1.3.2.6.4.8c.2.2.5.4.7.6c.3.2.6.4.9.5zm-1.1 1.3c.5 0 .9 0 1.3.1c.4.1.7.2.9.3c.3.2.5.4.6.6c.2.2.2.4.2.7c0 .3 0 .5-.2.7c-.1.2-.3.4-.6.5c-.2.2-.5.3-.9.4c-.4 0-.8.1-1.3.1c-.9 0-1.6-.2-2.2-.5c-.5-.3-.8-.7-.8-1.2c0-.5.3-1 .8-1.3c.6-.2 1.3-.4 2.2-.4zm0 2.7c.7 0 1.2-.1 1.6-.3c.4-.1.6-.4.6-.7c0-.3-.2-.6-.6-.8c-.4-.1-.9-.2-1.6-.2c-.7 0-1.2.1-1.6.2c-.4.2-.5.5-.5.8c0 .3.1.6.5.7c.4.2.9.3 1.6.3zm12.1-5.7h1.4v.7h-1.4v3.2h-.8V.6h.8v2.7zm-1.7 1.1l.1.7c-.8.2-1.6.3-2.2.3c-.7.1-1.4.1-2.1.1h-.7V1.2h.8v3.6c.7 0 1.3 0 2-.1c.6 0 1.3-.1 2.1-.3zm-3.1 2.1v2.3h5.1v.7h-5.9v-3h.8zm15.4-3.7v.7h-1.4v2.2h-.8V.5h.8v2.3h1.4zm-8.1-1.7s4.22.02 4.2 0c0 .6-.1 1.1-.3 1.6c-.2.5-.5 1-.8 1.4c-.4.4-.8.7-1.4 1c-.5.3-1.1.5-1.8.7l-.3-.6c1.1-.3 2-.8 2.7-1.4c.6-.5.9-1.2 1-2c.02.01-3.3 0-3.3 0v-.7zm.9 8.5V6.2h5.8v3.4h-5.8zm.9-2.8v2.1h4.1V6.8h-4.1zm11.1-2.9c-1 0-1.8-.2-2.3-.4c-.6-.3-.9-.7-.9-1.2c0-.5.3-.9.9-1.2c.5-.3 1.3-.4 2.3-.4c1 0 1.8.1 2.4.4c.5.3.8.7.8 1.2c0 .5-.3.9-.8 1.2c-.6.2-1.4.4-2.4.4zm0-2.6c-.7 0-1.3.1-1.7.3c-.4.1-.6.4-.6.7c0 .3.2.5.6.7c.4.2 1 .2 1.7.2c.8 0 1.4 0 1.8-.2c.4-.2.6-.4.6-.7c0-.3-.2-.6-.6-.7c-.4-.2-1-.3-1.8-.3zm-4.1 3.2h8.3v.7h-8.3v-.7zm1.8 3.5v.9h5.7v.7h-6.5V7.4h5.4v-.8h-5.4v-.7h6.2v2.1h-5.4zm17.3-4l-.3.7l-1.1-.3c-.3-.1-.6-.3-.9-.4c-.3-.2-.6-.4-.8-.7c-.3-.2-.5-.5-.6-.7c-.2.2-.3.5-.6.7c-.2.3-.5.5-.8.7c-.3.1-.6.3-.9.4l-1.1.3l-.3-.7c.4 0 .8-.1 1.2-.3c.4-.2.7-.4 1-.6c.3-.2.6-.5.8-.8c.2-.3.2-.6.2-.9c.05-.02 0-.5 0-.5h.9s.02.48 0 .5c0 .3.1.6.3.9c.2.3.4.6.7.8c.4.2.7.4 1.1.6c.4.2.8.3 1.2.3zm.4 1.7v.7h-3.7v3.3h-.9V6.4h-3.6v-.7h8.2zm7.6-5.1h.9v9.1h-.9V4.9h-2.1v-.7h2.1V.6zm-6.3.9s4.19.03 4.2 0c0 .7-.1 1.3-.2 1.9c-.2.6-.4 1.2-.7 1.8c-.4.5-.8 1-1.3 1.5c-.5.4-1.2.9-1.9 1.2l-.5-.6c1.2-.6 2.2-1.3 2.7-2.2c.6-.9 1-1.8 1.1-2.9h-3.4v-.7zm15.7-1h.9v9.2h-.9V5.1H187v4.1h-.8V.7h.8v3.7h1.1V.5zm-4.2.3v1.3h1.8v.7h-4.5v-.7h1.8V.8h.9zm-.4 2.6c.3 0 .5 0 .8.1c.2.2.4.3.6.5c.1.2.3.4.4.6c.1.3.1.6.1.9c0 .3 0 .6-.1.8c-.1.3-.3.5-.4.7c-.2.2-.4.3-.6.4c-.3.1-.5.2-.8.2c-.3 0-.6-.1-.8-.2c-.3-.1-.5-.2-.6-.4c-.2-.2-.3-.4-.4-.7c-.1-.2-.2-.5-.2-.8c0-.3.1-.6.2-.9c.1-.2.2-.4.4-.6c.1-.2.3-.3.6-.5c.2-.1.5-.1.8-.1zm0 3.5c.3 0 .6-.2.8-.4c.3-.3.4-.6.4-1c0-.2-.1-.4-.1-.6c-.1-.1-.2-.3-.3-.4l-.3-.3c-.2-.1-.4-.1-.5-.1c-.4 0-.7.1-.9.4c-.2.2-.3.6-.3 1c0 .4.1.7.3 1c.2.2.5.4.9.4zM199.2.6h.8v4.9h-.8V3.4h-1.9c-.1.6-.3 1-.8 1.3c-.4.3-.9.5-1.5.5c-.4 0-.7 0-1-.2c-.3-.1-.5-.2-.7-.4c-.2-.2-.4-.4-.5-.7c-.1-.2-.2-.5-.2-.8c0-.3.1-.6.2-.9c.1-.2.3-.5.5-.6c.2-.2.4-.4.7-.5c.3-.1.6-.1 1-.1c.3 0 .6 0 .8.1c.3.1.5.2.7.4c.2.1.4.3.5.5c.2.2.2.5.3.7c-.01.02 1.9 0 1.9 0V.6zM195 4.5c.2 0 .4 0 .6-.1c.2-.1.3-.2.5-.3c.1-.1.2-.3.3-.4c.1-.2.1-.4.1-.6c0-.2 0-.4-.1-.6c-.1-.2-.2-.3-.3-.4c-.2-.2-.3-.3-.5-.3c-.2-.1-.4-.1-.6-.1c-.3 0-.5 0-.7.1c-.2 0-.3.1-.5.3c-.1.1-.2.2-.3.4c-.1.2-.1.4-.1.6c0 .2 0 .4.1.6c.1.1.2.3.3.4c.2.1.3.2.5.3c.2.1.4.1.7.1zm4.2 2.6V5.9h.8v3.7h-5.9V5.9h.9v1.2h4.2zm0 1.8V7.7H195v1.2h4.2zm11-4.6v.6h-1.5v4.8h-.9V.6h.9v3.7h1.5zm-5.5-3s.01 1.68 0 1.7c0 .4.1.8.2 1.2c.1.4.3.7.5 1.1c.2.3.5.7.7.9c.3.3.6.5.9.7l-.5.7c-.5-.3-.9-.7-1.3-1.2c-.4-.5-.7-1-.9-1.7c-.2.7-.5 1.3-.9 1.8c-.4.5-.9 1-1.4 1.2l-.5-.6c.4-.2.7-.4 1-.7c.2-.3.5-.6.7-1c.2-.4.4-.8.5-1.2c.1-.4.2-.8.2-1.2c-.01-.02 0-1.7 0-1.7h.8zm12.8-.8h.8v9.2h-.8V.5zm-4 .7c.3 0 .6.1.9.3c.3.1.6.3.8.6c.2.3.3.6.4 1c.2.4.2.8.2 1.3c0 .5 0 1-.2 1.4c-.1.3-.2.7-.4 1c-.2.2-.5.5-.8.6c-.3.2-.6.2-.9.2c-.4 0-.7 0-1-.2c-.2-.1-.5-.4-.7-.6c-.2-.3-.4-.7-.5-1c-.1-.4-.1-.9-.1-1.4c0-.5 0-.9.1-1.3c.1-.4.3-.7.5-1c.2-.3.5-.5.7-.6c.3-.2.6-.3 1-.3zm0 .8c-.2 0-.4.1-.6.2c-.2.1-.4.3-.5.5c-.2.2-.3.4-.3.7c-.1.3-.1.7-.1 1c0 .4 0 .7.1 1c0 .3.1.6.3.8c.1.2.3.4.5.5c.2.1.4.2.6.2c.2 0 .4-.1.6-.2c.2-.1.3-.3.5-.5c.1-.2.2-.5.3-.8c.1-.3.1-.6.1-1c0-.3 0-.7-.1-1c-.1-.3-.2-.5-.3-.7c-.2-.2-.3-.4-.5-.5c-.2-.1-.4-.2-.6-.2zM227 4.3c.02-.02 1.3 0 1.3 0v.7H220v-.7s6.17-.02 6.2 0c0-.2.1-.4.1-.6c0-.2 0-.4.1-.6c-.04.02-5.5.3-5.5.3l-.1-.7s5.6-.17 5.6-.2v-.9h-5.3v-.6h6.1s.03.67 0 .7v1.1c0 .5-.1.9-.2 1.5zM221.8 8v.9h5.8v.7H221V7.3h5.5v-.8H221v-.7h6.3v2.2h-5.5zM236.7.5v5.7h-.8V.5h.8zm-2 4.1l.1.7c-.3.1-.7.1-1.1.2c-.3 0-.7 0-1 .1h-3V3h3.3V1.8h-3.4v-.7h4.2v2.5h-3.3s-.02 1.33 0 1.3h2.2c.3 0 .7-.1 1-.1c.3 0 .7-.1 1-.2zm-1 1.8c.4 0 .9 0 1.2.1c.4.1.7.2 1 .3c.3.1.5.3.6.5c.2.2.2.5.2.7c0 .5-.2 1-.8 1.2c-.5.3-1.3.5-2.2.5c-1 0-1.7-.2-2.3-.5c-.5-.2-.8-.7-.8-1.2c0-.5.3-.9.8-1.2c.5-.3 1.3-.4 2.3-.4zm0 2.6c.7 0 1.2-.1 1.6-.2c.4-.2.6-.5.6-.8c0-.3-.2-.5-.6-.7c-.4-.2-.9-.3-1.6-.3c-.7 0-1.3.1-1.7.3c-.4.2-.6.4-.6.7c0 .3.2.6.6.8c.4.1 1 .2 1.7.2zM245.3.5h.8v9.2h-.8V.5zm-1.8 3.6V.7h.8v8.5h-.8V4.8s-1.13-.02-1.1 0c0 .4-.1.8-.2 1.2c-.1.3-.2.7-.4.9c-.2.3-.4.4-.6.6c-.2.1-.5.2-.8.2c-.3 0-.5-.1-.8-.2c-.2-.2-.4-.4-.6-.7c-.2-.3-.3-.6-.4-1c-.1-.4-.1-.8-.1-1.3c0-.5 0-1 .1-1.3c.1-.4.2-.8.4-1c.2-.3.4-.5.6-.7c.3-.1.5-.2.8-.2c.3 0 .6.1.8.2c.2.1.4.3.6.6c.1.2.3.5.4.8c.1.4.1.8.2 1.2h1.1zm-3.1 2.8c.4 0 .7-.2.9-.6c.2-.5.3-1.1.3-1.8c0-.4 0-.7-.1-1c0-.3-.1-.6-.2-.8c-.1-.2-.2-.3-.4-.5c-.1-.1-.3-.1-.5-.1c-.3 0-.6.2-.8.6c-.3.5-.4 1-.4 1.8c0 .7.1 1.3.4 1.8c.2.4.5.6.8.6zm14.7-5.7v.6h-5.3v-.6h2.2v-.8h.9v.8h2.2zm1.6 1.7h1.4v.7h-1.4v2.3h-.8V.5h.8v2.4zm-1.4 1.9l.1.6c-.5.1-1 .1-1.5.2c-.5 0-1 .1-1.5.1h-2.7l-.1-.6h2.4v-.6c-.5 0-.9-.1-1.2-.3c-.3-.3-.5-.5-.5-.9c0-.4.2-.7.6-.9c.4-.2.9-.3 1.5-.3c.7 0 1.2.1 1.6.3c.4.2.6.5.6.9c0 .4-.2.6-.5.8c-.3.2-.7.4-1.2.4v.5h1.2c.4-.1.8-.1 1.2-.2zm-4.2-1.5c0 .2.1.4.4.5c.2.1.5.2.9.2c.4 0 .8-.1 1-.2c.3-.1.4-.3.4-.5c0-.2-.1-.3-.4-.5c-.2-.1-.6-.1-1-.1c-.4 0-.7 0-.9.1c-.3.2-.4.3-.4.5zm.5 4.9v.8h5.5v.6h-6.3v-2h5.1v-.7h-5.1v-.6h5.9v1.9h-5.1zM265 5.1h2.1v.6h-8.3v-.6h2s.04-1.32 0-1.3c-.7-.3-1.1-.8-1.1-1.4c0-.3.1-.5.2-.7c.2-.2.4-.4.7-.5c.3-.2.6-.3 1-.4c.4-.1.8-.1 1.3-.1c.5 0 1 0 1.4.1c.4.1.7.2 1 .4c.3.1.5.3.6.5c.2.2.2.4.2.7c0 .3 0 .6-.2.8c-.2.2-.5.4-.9.6c.04-.03 0 1.3 0 1.3zm-4.4-2.7c0 .3.2.6.6.8c.4.2 1 .3 1.7.3c.8 0 1.4-.1 1.8-.3c.4-.2.6-.5.6-.8c0-.3-.2-.6-.6-.8c-.4-.2-1-.2-1.8-.2c-.7 0-1.3 0-1.7.2c-.4.2-.6.5-.6.8zm1.1 1.6c-.03 0 0 1.1 0 1.1h2.5s.01-1.1 0-1.1c-.2 0-.4.1-.6.1h-1.3c-.2 0-.4-.1-.6-.1zm1.2 2.4c1 0 1.8.2 2.3.4c.6.3.9.7.9 1.3c0 .5-.3.9-.9 1.2c-.5.2-1.3.4-2.3.4c-1 0-1.7-.2-2.3-.4c-.5-.3-.8-.7-.8-1.2c0-.6.3-1 .8-1.3c.6-.2 1.3-.4 2.3-.4zm0 2.6c.8 0 1.3 0 1.7-.2c.4-.2.6-.4.6-.7c0-.4-.2-.6-.6-.8c-.4-.1-.9-.2-1.7-.2c-.7 0-1.2.1-1.6.2c-.4.2-.7.4-.7.8c0 .3.3.5.7.7c.4.2.9.2 1.6.2zm13.6-4.7v.7H275v4.7h-.8V.6h.8v3.7h1.5zM271.1.7v1.3h2.2v.7h-5.4v-.7h2.3V.7h.9zm-.4 2.7c.3 0 .6.1.9.2c.2.1.5.2.7.4c.2.2.3.4.4.7c.1.3.2.5.2.8c0 .4-.1.6-.2.9c-.1.3-.2.5-.4.7c-.2.2-.5.3-.7.4c-.3.1-.6.1-.9.1c-.4 0-.6 0-.9-.1c-.3-.1-.5-.2-.7-.4c-.2-.2-.4-.4-.5-.7c-.1-.3-.1-.5-.1-.9c0-.3 0-.5.1-.8c.1-.3.3-.5.5-.7c.2-.2.4-.3.7-.4c.3-.1.5-.2.9-.2zm0 3.6c.2 0 .4-.1.5-.2c.2 0 .4-.1.5-.2c.1-.2.2-.3.3-.5c.1-.2.1-.3.1-.6c0-.2 0-.3-.1-.5c-.1-.2-.2-.3-.3-.5c-.1-.1-.3-.2-.5-.3c-.1 0-.3-.1-.5-.1c-.2 0-.4.1-.6.1c-.2.1-.3.2-.5.3c-.1.2-.2.3-.3.5c0 .2-.1.3-.1.5c0 .3.1.4.1.6c.1.2.2.3.3.5c.2.1.3.2.5.2c.2.1.4.2.6.2zm13.8-3.7v.7h-6.2V.9h.8v2.4h5.4zm-7.3 1.9h8.2v.7h-8.2v-.7zm1.9 1.6v2h5.4v.7h-6.3V6.8h.9zM297 4.3v.6h-1.5v4.8h-.9V.6h.9v3.7h1.5zm-5.5-3s-.01 1.68 0 1.7c0 .4.1.8.2 1.2c.1.4.3.7.5 1.1c.2.3.4.7.7.9c.3.3.6.5.9.7l-.5.7c-.5-.3-.9-.7-1.3-1.2c-.4-.5-.7-1-.9-1.7c-.2.7-.5 1.3-.9 1.8c-.4.5-.9 1-1.4 1.2l-.5-.6c.3-.2.6-.4.9-.7c.3-.3.6-.6.8-1c.2-.4.4-.8.5-1.2c.1-.4.2-.8.2-1.2c-.03-.02 0-1.7 0-1.7h.8zm11.9.4v.6h-5.6v-.6h2.4V.6h.9v1.1h2.3zm.8-1.1h.9v9.1h-.9V.6zm-3.1 5.6v1c.4 0 .8-.1 1.3-.1c.4 0 .8-.1 1.2-.1l.1.6c-.5.1-1 .1-1.5.2c-.6 0-1.1.1-1.6.1h-1.5c-.5.1-.9.1-1.3.1l-.1-.7c.3 0 .8-.1 1.2-.1h1.3v-1c-.5 0-1-.2-1.3-.5c-.3-.3-.5-.7-.5-1.2c0-.2.1-.4.2-.6c.1-.3.2-.4.4-.6c.2-.1.5-.2.7-.3c.3-.1.6-.1.9-.1c.4 0 .7 0 .9.1c.3.1.5.2.7.3c.2.2.4.3.5.6c.1.2.1.4.1.6c0 .5-.1.9-.4 1.2c-.4.3-.8.5-1.3.5zm-1.9-1.7c0 .4.2.6.4.8c.3.2.6.3 1 .3c.4 0 .8-.1 1-.3c.3-.2.4-.4.4-.8c0-.3-.1-.5-.4-.7c-.2-.2-.6-.3-1-.3c-.4 0-.7.1-1 .3c-.2.2-.4.4-.4.7zm14.3-4h.8v5.5h-.8V3.6h-1.8v-.7h1.8V.5zM312.2 5l-.4.7c-.5-.2-1-.5-1.4-.9c-.4-.3-.6-.7-.9-1.2c-.1.5-.4 1-.8 1.4c-.4.4-.9.7-1.4.9l-.5-.7c.4-.1.7-.3.9-.5c.3-.2.6-.4.8-.7c.2-.2.3-.5.5-.8c.1-.3.1-.7.1-1c.02.01 0-.4 0-.4h-2v-.6h4.9v.6h-2s-.04.41 0 .4c0 .3 0 .6.1.9c.1.3.3.5.5.8c.2.2.4.5.7.6c.2.2.5.4.9.5zm-4 2.2v-.7h6.1v3.2h-.8V7.2h-5.3zM322.6.5h.9v9.2h-.9V.5zm-6.1 1s4.29.03 4.3 0c0 .7-.1 1.3-.2 1.9c-.2.7-.5 1.2-.8 1.8c-.3.5-.8 1-1.3 1.5c-.6.5-1.2.9-2 1.3l-.4-.7c1.2-.6 2.1-1.3 2.8-2.2c.6-.8 1-1.8 1-2.9h-3.4v-.7zm15.3-.9h.9v4.9h-.9V3.4s-1.82.01-1.8 0c-.1.6-.4 1-.8 1.3c-.4.3-.9.5-1.6.5c-.3 0-.6 0-.9-.2c-.3-.1-.5-.2-.7-.4c-.3-.2-.4-.4-.5-.7c-.2-.2-.2-.5-.2-.8c0-.3 0-.6.2-.9c.1-.2.2-.5.5-.6c.2-.2.4-.4.7-.5c.3-.1.6-.1.9-.1c.3 0 .6 0 .9.1c.3.1.5.2.7.4c.2.1.4.3.5.5c.1.2.2.5.3.7c-.03.02 1.8 0 1.8 0V.6zm-4.2 3.9c.3 0 .5 0 .7-.1c.2-.1.3-.2.5-.3c.1-.1.2-.3.3-.4c.1-.2.1-.4.1-.6c0-.2 0-.4-.1-.6c-.1-.2-.2-.3-.3-.4c-.2-.2-.3-.3-.5-.3c-.2-.1-.4-.1-.7-.1c-.2 0-.4 0-.6.1c-.2 0-.3.1-.5.3c-.1.1-.2.2-.3.4c-.1.2-.1.4-.1.6c0 .2 0 .4.1.6c.1.1.2.3.3.4c.2.1.3.2.5.3c.2.1.4.1.6.1zm4.2 2.6V5.9h.9v3.7h-5.9V5.9h.9v1.2h4.1zm0 1.8V7.7h-4.1v1.2h4.1z" stroke="none" fill="#111111"/></g></svg>