<?xml version="1.0" standalone="no"?><!DOCTYPE svg PUBLIC "-//W3C//DTD SVG 1.1//EN" "http://www.w3.org/Graphics/SVG/1.1/DTD/svg11.dtd"><svg xmlns="http://www.w3.org/2000/svg" version="1.1" width="368px" height="108.3px" viewBox="0 -20 368 108.3" style="top:-20px"><desc>ADAS</desc><defs/><g id="Polygon7898"><path d="m9.6 54.7H1L19.8 5.3h9.7l18.9 49.4h-9.5l-5-13.5H14.6l-5 13.5zM24.2 15l-7 19.1h14.1L24.2 15zm29.2 39.7V5.3s17.12-.03 17.1 0c4.8 0 9.1.9 12.7 2.9c3.7 1.9 6.5 4.6 8.5 8.2c2 3.6 3 7.9 3 12.7v1.3c0 4.9-1 9.2-3 12.9c-2 3.6-4.8 6.4-8.5 8.4c-3.6 2-7.9 3-12.7 3c.02-.03-17.1 0-17.1 0zm16.7-7.1c2.6 0 5-.6 7.3-1.8c2.3-1.2 4.2-3.1 5.6-5.7c1.5-2.5 2.2-5.8 2.2-9.7v-1.3c0-3.8-.7-7-2.2-9.5c-1.4-2.5-3.3-4.4-5.6-5.5c-2.2-1.2-4.7-1.7-7.3-1.7c-.03-.05-7.9 0-7.9 0v35.2s7.87-.02 7.9 0zm33.2 7.1h-8.6l18.9-49.4h9.6l19 49.4h-9.5l-5-13.5h-19.4l-5 13.5zM118 15l-7.1 19.1h14.2L118 15zm27.1 25.1c1.6 2.4 3.7 4.4 6.4 6c2.6 1.6 5.4 2.4 8.2 2.4c2.7 0 4.8-.7 6.3-2c1.5-1.3 2.3-2.9 2.3-4.8c0-1.4-.5-2.7-1.5-3.7c-1.1-1.1-2.8-2.3-5.3-3.7l-7.3-3.8c-3-1.7-5.3-3.4-6.8-5.4c-1.5-1.9-2.3-4.5-2.3-7.6c0-2.3.6-4.5 1.8-6.5c1.2-2 3-3.6 5.4-4.9c2.4-1.2 5.4-1.8 8.9-1.8c5.1 0 9.9 1.6 14.2 4.9v9.8c-2-2.6-4.2-4.5-6.7-5.8c-2.4-1.2-4.9-1.9-7.5-1.9c-2.1 0-3.7.6-4.9 1.7c-1.3 1.1-1.9 2.4-1.9 4c0 1.2.4 2.3 1.2 3.3c.8.9 2.2 2 4.4 3l7.6 4c3.4 1.8 5.9 3.8 7.5 5.9c1.7 2.2 2.5 5 2.5 8.3c0 2.8-.8 5.3-2.2 7.4c-1.5 2.2-3.6 3.8-6.3 5c-2.7 1.2-5.8 1.7-9.4 1.7c-3.2 0-6.1-.5-8.7-1.6c-2.6-1.1-4.6-2.3-5.9-3.7V40.1z" stroke="none" fill="#fff"/></g></svg>