<?xml version="1.0" standalone="no"?><!DOCTYPE svg PUBLIC "-//W3C//DTD SVG 1.1//EN" "http://www.w3.org/Graphics/SVG/1.1/DTD/svg11.dtd"><svg xmlns="http://www.w3.org/2000/svg" version="1.1" width="430px" height="70.9px" viewBox="0 -1 430 70.9" style="top:-1px"><desc>Blind Spot View Monitor</desc><defs/><g id="Polygon7999"><path d="m109.8 30.9c.9.2 1.7.7 2.3 1.3c.6.7.8 1.5.8 2.4v.3c0 .9-.2 1.7-.6 2.3c-.5.7-1.1 1.2-1.9 1.5c-.7.4-1.6.5-2.6.5c0 .02-5.9 0-5.9 0V23.3s5.6-.04 5.6 0c.9 0 1.8.1 2.5.5c.7.3 1.3.8 1.7 1.4c.4.6.6 1.3.6 2.1v.2c0 .8-.3 1.5-.7 2.1c-.4.6-1 1-1.8 1.3zm-6-6v5.3s3.43.01 3.4 0c.9 0 1.7-.2 2.2-.7c.6-.5.9-1.1.9-1.8v-.3c0-.7-.3-1.3-.9-1.8c-.5-.5-1.3-.7-2.2-.7c.03-.04-3.4 0-3.4 0zm7.1 9.7c0-.9-.3-1.5-1-2c-.6-.5-1.4-.8-2.4-.8c.02.01-3.7 0-3.7 0v5.8s3.72.03 3.7 0c1 0 1.8-.2 2.4-.7c.7-.5 1-1.2 1-2v-.3zm6 4.6h-1.8V23.1h1.8v16.1zm4.7-13.3h-1.9v-2.4h1.9v2.4zm0 13.3h-1.9V27.8h1.9v11.4zm2.8 0V27.8h1.7s.13 2.27.1 2.3c.5-.8 1-1.4 1.7-1.9c.7-.5 1.5-.8 2.4-.8c1.2 0 2.2.4 2.8 1.1c.7.8 1 1.8 1 3.2v7.5h-1.9s.02-7.37 0-7.4c0-.9-.1-1.6-.5-2.1c-.3-.5-.9-.8-1.7-.8c-.5 0-1 .2-1.5.5c-.6.4-1 .8-1.4 1.3c-.4.6-.7 1.2-.8 1.8c-.05-.04 0 6.7 0 6.7h-1.9zm11.5-5.7c0-1.2.2-2.3.6-3.2c.4-.9 1-1.6 1.8-2.1c.8-.5 1.6-.8 2.6-.8c.7 0 1.4.2 2.1.6c.6.4 1.1.9 1.6 1.5c-.03-.04 0-6.4 0-6.4h1.8v16.1h-1.7s-.11-1.76-.1-1.8c-.4.7-.9 1.2-1.6 1.6c-.6.3-1.4.5-2.1.5c-1 0-1.8-.2-2.6-.7c-.8-.5-1.4-1.2-1.8-2.1c-.4-.9-.6-2-.6-3.2zm1.9 0c0 .9.1 1.7.4 2.4c.3.7.7 1.2 1.2 1.6c.6.4 1.1.6 1.8.6c.7 0 1.4-.3 2-.8c.6-.5 1.1-1.2 1.4-1.9v-3.8c-.3-.8-.8-1.4-1.4-1.9c-.6-.5-1.3-.8-2-.8c-.6 0-1.2.2-1.7.6c-.6.3-1 .9-1.3 1.6c-.3.6-.4 1.4-.4 2.4zm16.9-.6h-6.1v-1.7h6.1v1.7zm1.9 2.5c.5.7 1.2 1.4 2 1.8c.8.5 1.7.8 2.6.8c.7 0 1.3-.2 1.8-.4c.5-.3.8-.6 1.1-1c.2-.5.4-.9.4-1.4c0-.6-.2-1.1-.6-1.6c-.4-.5-1-.9-1.8-1.3l-2.3-1.2c-.9-.5-1.7-1.1-2.2-1.8c-.5-.6-.8-1.4-.8-2.4c0-.7.2-1.4.6-2c.4-.6.9-1.1 1.6-1.4c.7-.4 1.6-.6 2.6-.6c.7 0 1.5.2 2.3.5c.8.4 1.5.8 2 1.3v2.3c-.6-.7-1.2-1.4-2-1.8c-.8-.5-1.6-.7-2.3-.7c-.9 0-1.5.2-2 .7c-.5.4-.8 1-.8 1.7c0 .5.2.9.6 1.3c.3.4.9.8 1.7 1.3l2.2 1.2c1.1.5 1.9 1.2 2.4 1.9c.5.7.8 1.5.8 2.6c0 .8-.2 1.6-.7 2.2c-.4.7-1 1.2-1.8 1.6c-.8.4-1.7.5-2.8.5c-1 0-1.9-.1-2.7-.5c-.8-.3-1.5-.8-1.9-1.2v-2.4zm12.1 8.4v-16h1.7s.16 1.81.2 1.8c.4-.6.9-1.2 1.5-1.6c.7-.4 1.4-.6 2.2-.6c.9 0 1.8.3 2.6.8c.7.5 1.3 1.2 1.7 2.1c.5.9.7 2 .7 3.2c0 1.2-.2 2.3-.7 3.2c-.4.9-1 1.6-1.7 2.1c-.8.5-1.7.7-2.6.7c-.8 0-1.5-.1-2.1-.5c-.7-.4-1.2-.9-1.6-1.5v6.3h-1.9zm1.9-8.5c.3.8.7 1.5 1.4 2c.6.5 1.3.7 2 .7c.6 0 1.2-.1 1.7-.5c.5-.4.9-.9 1.2-1.6c.3-.7.5-1.5.5-2.4c0-1-.2-1.8-.5-2.4c-.2-.7-.7-1.3-1.2-1.6c-.5-.4-1.1-.6-1.7-.6c-.7 0-1.4.3-2 .8c-.7.5-1.1 1.2-1.4 2v3.6zm10.1-2c0-1.1.2-2.1.7-3c.4-.9 1.1-1.6 1.9-2.1c.8-.5 1.7-.8 2.8-.8c1 0 2 .3 2.8.8c.8.5 1.4 1.2 1.9 2.1c.4.9.7 1.9.7 3v.4c0 1.1-.3 2.1-.7 3c-.5.9-1.1 1.6-1.9 2.1c-.8.5-1.8.7-2.8.7c-1.1 0-2-.2-2.8-.7c-.8-.5-1.5-1.2-1.9-2.1c-.5-.9-.7-1.9-.7-3v-.4zm1.9.4c0 1.3.3 2.4 1 3.2c.6.8 1.4 1.2 2.5 1.2c1.1 0 1.9-.4 2.5-1.2c.6-.8.9-1.9.9-3.2v-.4c0-1.3-.3-2.4-.9-3.2c-.6-.8-1.4-1.2-2.5-1.2c-1.1 0-1.9.4-2.5 1.2c-.7.8-1 1.9-1 3.2v.4zm11.9-4.5H192v-1.4h2.5v-3.5h1.8v3.5h2.6v1.4h-2.6v10h-1.8v-10zm15.7 10l-6-15.9h2.1l5 13.6l4.9-13.6h2l-5.8 15.9h-2.2zm11.4-13.3h-1.9v-2.4h1.9v2.4zm0 13.3h-1.9V27.8h1.9v11.4zm1.9-6c0-1.1.2-2.1.7-3c.4-.8 1-1.5 1.8-2c.8-.5 1.7-.8 2.7-.8c1.5 0 2.7.6 3.6 1.6c.9 1 1.3 2.4 1.3 4.3v.8h-8.2c0 1.2.4 2.1 1 2.8c.6.8 1.5 1.2 2.5 1.2c1.6 0 3-.6 4.1-1.8v1.9c-.5.4-1.1.7-1.8 1c-.6.2-1.4.3-2.3.3c-1.1 0-2.1-.2-2.9-.7c-.8-.5-1.4-1.2-1.8-2.1c-.5-.9-.7-1.9-.7-3v-.5zm8.3-.5c-.1-1.3-.3-2.2-.9-2.8c-.6-.7-1.3-1-2.2-1c-.6 0-1.1.2-1.6.5c-.5.3-.9.7-1.2 1.3c-.3.5-.5 1.2-.5 2h6.4zm5.8 6.5l-3.3-11.4h1.9l2.6 9.4l2.4-9.4h2.4l2.5 9.4l2.6-9.4h1.7l-3.3 11.4h-2.2l-2.6-9.4l-2.5 9.4h-2.2zm21.6 0h-1.9V23.3h2.4l5.3 12.5l5.3-12.5h2.3v15.9h-2V26.6l-5.3 12.6h-.8l-5.3-12.6v12.6zm15.7-5.9c0-1.1.3-2.1.7-3c.5-.9 1.1-1.6 1.9-2.1c.8-.5 1.8-.8 2.8-.8c1.1 0 2 .3 2.8.8c.8.5 1.4 1.2 1.9 2.1c.5.9.7 1.9.7 3v.4c0 1.1-.2 2.1-.7 3c-.5.9-1.1 1.6-1.9 2.1c-.8.5-1.7.7-2.8.7c-1 0-2-.2-2.8-.7c-.8-.5-1.4-1.2-1.9-2.1c-.4-.9-.7-1.9-.7-3v-.4zm2 .4c0 1.3.3 2.4.9 3.2c.6.8 1.4 1.2 2.5 1.2c1.1 0 1.9-.4 2.6-1.2c.6-.8.9-1.9.9-3.2v-.4c0-1.3-.3-2.4-.9-3.2c-.7-.8-1.5-1.2-2.6-1.2c-1.1 0-1.9.4-2.5 1.2c-.6.8-.9 1.9-.9 3.2v.4zm10.8 5.5V27.8h1.7s.13 2.27.1 2.3c.4-.8 1-1.4 1.7-1.9c.7-.5 1.5-.8 2.4-.8c1.2 0 2.2.4 2.8 1.1c.7.8 1 1.8 1 3.2c-.02-.02 0 7.5 0 7.5h-1.9s.01-7.37 0-7.4c0-.9-.2-1.6-.5-2.1c-.3-.5-.9-.8-1.7-.8c-.5 0-1 .2-1.5.5c-.6.4-1 .8-1.4 1.3c-.4.6-.7 1.2-.9 1.8c.05-.04 0 6.7 0 6.7h-1.8zm14.1-13.3H300v-2.4h1.8v2.4zm0 13.3H300V27.8h1.8v11.4zm3.9-10h-2.5v-1.4h2.5v-3.5h1.9v3.5h2.5v1.4h-2.5v10h-1.9v-10zm4.9 4.1c0-1.1.2-2.1.7-3c.4-.9 1.1-1.6 1.9-2.1c.8-.5 1.7-.8 2.8-.8c1 0 1.9.3 2.8.8c.8.5 1.4 1.2 1.9 2.1c.4.9.6 1.9.6 3v.4c0 1.1-.2 2.1-.6 3c-.5.9-1.1 1.6-1.9 2.1c-.9.5-1.8.7-2.8.7c-1.1 0-2-.2-2.8-.7c-.8-.5-1.5-1.2-1.9-2.1c-.5-.9-.7-1.9-.7-3v-.4zm1.9.4c0 1.3.3 2.4.9 3.2c.7.8 1.5 1.2 2.6 1.2c1 0 1.9-.4 2.5-1.2c.6-.8.9-1.9.9-3.2v-.4c0-1.3-.3-2.4-.9-3.2c-.6-.8-1.5-1.2-2.5-1.2c-1.1 0-1.9.4-2.6 1.2c-.6.8-.9 1.9-.9 3.2v.4zm10.9 5.5V27.8h1.6s.17 1.95.2 2c.3-.8.7-1.3 1.3-1.7c.6-.5 1.3-.7 2.1-.7c.2 0 .4.1.6.1c.2 0 .4 0 .5.1v1.6c-.3-.1-.7-.1-1.2-.1c-.7 0-1.4.2-2 .7c-.6.5-1 1.1-1.3 2c.01-.03 0 7.4 0 7.4h-1.8z" stroke="none" fill="#fff"/></g></svg>