<?xml version="1.0" standalone="no"?><!DOCTYPE svg PUBLIC "-//W3C//DTD SVG 1.1//EN" "http://www.w3.org/Graphics/SVG/1.1/DTD/svg11.dtd"><svg xmlns="http://www.w3.org/2000/svg" version="1.1" width="430px" height="99.8px" viewBox="0 -5 430 99.8" style="top:-5px"><desc>텍스트 B</desc><defs/><g id="Polygon8542"><path d="m85.3 83.2c0-.6.2-1.1.5-1.5c.2-.4.6-.6 1.1-.9c.5-.2 1.2-.3 2.1-.5l2.2-.4c-.1-.7-.3-1.3-.6-1.7c-.4-.4-1-.6-1.8-.6c-.5 0-1 .2-1.5.4c-.5.3-1 .6-1.3 1v-1.4c.3-.3.8-.5 1.3-.8c.5-.2 1.1-.3 1.7-.3c1.1 0 2 .3 2.6.9c.6.5 1 1.4 1 2.5c-.04-.03 0 5.6 0 5.6h-1.1l-.3-1.3c-.4.5-.9.9-1.4 1.1c-.6.3-1.2.4-1.8.4c-.8 0-1.5-.2-2-.6c-.5-.5-.7-1.1-.7-1.9zm1.4-.1c0 .5.2.9.4 1.1c.3.3.7.4 1.1.4c.6 0 1.1-.2 1.7-.5c.5-.4 1-.8 1.3-1.4c-.03-.03 0-1.7 0-1.7c0 0-1.49.26-1.5.3c-.8.1-1.4.2-1.8.4c-.4.1-.7.3-.9.5c-.2.3-.3.6-.3.9zm6.8-2.1c0-.9.2-1.6.5-2.3c.4-.7.9-1.2 1.6-1.6c.6-.4 1.3-.6 2.2-.6c.5 0 .9.1 1.4.3c.4.2.8.4 1.1.7v1.5c-.3-.4-.7-.8-1.1-1c-.5-.2-.9-.3-1.4-.3c-.6 0-1 .1-1.5.4c-.4.3-.7.6-1 1.1c-.2.5-.3 1.1-.3 1.8v.2c0 .7.1 1.3.3 1.8c.3.5.6.9 1.1 1.2c.4.3.8.4 1.4.4c1 0 1.8-.4 2.5-1.3v1.5c-.3.3-.7.5-1.1.7c-.5.2-1 .2-1.5.2c-.8 0-1.5-.2-2.1-.5c-.7-.4-1.2-1-1.6-1.6c-.3-.7-.5-1.5-.5-2.3v-.3zm7.3 0c0-.9.2-1.6.6-2.3c.3-.7.8-1.2 1.5-1.6c.6-.4 1.4-.6 2.2-.6c.5 0 1 .1 1.4.3c.5.2.9.4 1.2.7v1.5c-.4-.4-.7-.8-1.2-1c-.4-.2-.9-.3-1.4-.3c-.5 0-1 .1-1.4.4c-.4.3-.8.6-1 1.1c-.3.5-.4 1.1-.4 1.8v.2c0 .7.1 1.3.4 1.8c.2.5.6.9 1 1.2c.4.3.9.4 1.4.4c1 0 1.9-.4 2.6-1.3v1.5c-.3.3-.7.5-1.2.7c-.4.2-.9.2-1.4.2c-.8 0-1.6-.2-2.2-.5c-.7-.4-1.2-1-1.5-1.6c-.4-.7-.6-1.5-.6-2.3v-.3zm7.4-.1c0-.8.1-1.6.5-2.2c.3-.7.7-1.2 1.3-1.6c.6-.4 1.3-.6 2.1-.6c1.2 0 2.1.4 2.7 1.2c.7.8 1 1.9 1 3.3c.04.02 0 .6 0 .6h-6.2c0 .9.3 1.6.8 2.2c.4.5 1.1.8 1.9.8c1.2 0 2.2-.4 3-1.3v1.4c-.3.3-.8.6-1.3.8c-.5.2-1 .2-1.7.2c-.9 0-1.6-.1-2.2-.5c-.7-.4-1.1-.9-1.5-1.6c-.3-.7-.4-1.4-.4-2.3v-.4zm6.2-.4c0-.9-.2-1.7-.6-2.1c-.4-.5-1-.8-1.7-.8c-.5 0-.9.2-1.2.4c-.4.2-.7.6-.9 1c-.3.4-.4.9-.4 1.5h4.8zm3.9 5h-1.4V73.2h1.4v12.3zm1-4.6c0-.8.2-1.6.5-2.2c.4-.7.8-1.2 1.4-1.6c.6-.4 1.3-.6 2-.6c1.2 0 2.1.4 2.8 1.2c.7.8 1 1.9 1 3.3v.6h-6.3c.1.9.4 1.6.8 2.2c.5.5 1.1.8 1.9.8c1.3 0 2.3-.4 3.1-1.3v1.4c-.4.3-.8.6-1.3.8c-.5.2-1.1.2-1.8.2c-.8 0-1.6-.1-2.2-.5c-.6-.4-1.1-.9-1.4-1.6c-.3-.7-.5-1.4-.5-2.3v-.4zm6.3-.4c0-.9-.2-1.7-.7-2.1c-.4-.5-.9-.8-1.6-.8c-.5 0-.9.2-1.3.4c-.3.2-.6.6-.9 1c-.2.4-.3.9-.3 1.5h4.8zm2.5 5v-8.7h1.2s.14 1.49.1 1.5c.3-.6.6-1 1.1-1.3c.4-.3.9-.5 1.5-.5c.2 0 .4 0 .5.1h.4v1.3c-.3-.1-.6-.1-.9-.1c-.6 0-1.1.1-1.6.5c-.4.4-.7.9-.9 1.5c-.03.02 0 5.7 0 5.7h-1.4zm4.7-2.3c0-.6.2-1.1.5-1.5c.3-.4.6-.6 1.1-.9c.6-.2 1.2-.3 2.1-.5l2.2-.4c0-.7-.2-1.3-.6-1.7c-.4-.4-1-.6-1.7-.6c-.6 0-1.1.2-1.6.4c-.5.3-.9.6-1.3 1v-1.4c.4-.3.8-.5 1.3-.8c.5-.2 1.1-.3 1.7-.3c1.1 0 2 .3 2.6.9c.7.5 1 1.4 1 2.5v5.6H139s-.26-1.34-.3-1.3c-.4.5-.8.9-1.4 1.1c-.5.3-1.1.4-1.8.4c-.8 0-1.5-.2-1.9-.6c-.5-.5-.8-1.1-.8-1.9zm1.5-.1c0 .5.1.9.4 1.1c.3.3.6.4 1.1.4c.5 0 1.1-.2 1.6-.5c.6-.4 1-.8 1.3-1.4c.01-.03 0-1.7 0-1.7c0 0-1.45.26-1.5.3c-.8.1-1.4.2-1.8.4c-.4.1-.7.3-.9.5c-.1.3-.2.6-.2.9zm8.2-5.2h-1.9v-1.1h1.9v-2.7h1.4v2.7h1.9v1.1h-1.9v7.6h-1.4v-7.6zm5.3-2.6h-1.4v-1.7h1.4v1.7zm0 10.2h-1.4v-8.7h1.4v8.7zm1.7 0v-8.7h1.3l.1 1.7c.3-.5.7-1 1.3-1.4c.5-.4 1.1-.6 1.8-.6c.9 0 1.6.3 2.1.9c.5.5.8 1.3.8 2.4c-.02-.04 0 5.7 0 5.7h-1.4s-.04-5.63 0-5.6c0-.8-.2-1.3-.4-1.7c-.3-.3-.7-.5-1.3-.5c-.4 0-.8.1-1.2.3c-.4.3-.8.6-1.1 1c-.3.5-.5.9-.6 1.4v5.1h-1.4zm8.2-4.6c0-.9.2-1.6.5-2.3c.3-.7.8-1.2 1.4-1.5c.5-.4 1.2-.6 2-.6c.5 0 1 .2 1.5.5c.5.2.9.6 1.2 1.1c.02 0 .1-1.3.1-1.3h1.3v8.4c0 .8-.2 1.5-.5 2.1c-.3.6-.8 1.1-1.5 1.4c-.7.3-1.4.5-2.3.5c-.6 0-1.1-.1-1.6-.2c-.4-.1-.9-.3-1.2-.6V87c.8.7 1.7 1 2.8 1c.9 0 1.6-.2 2.1-.7c.5-.5.8-1.2.8-2.1v-1.4c-.3.5-.7.8-1.2 1.1c-.5.3-1 .4-1.5.4c-.8 0-1.5-.2-2-.5c-.6-.4-1.1-.9-1.4-1.6c-.3-.6-.5-1.4-.5-2.3zm1.5 0c0 .7.1 1.3.4 1.8c.2.4.5.8.9 1.1c.4.2.8.4 1.3.4c.5 0 1-.2 1.5-.6c.4-.4.8-.9 1-1.4v-2.5c-.2-.6-.6-1.1-1-1.5c-.5-.4-1-.6-1.5-.6c-.5 0-.9.2-1.3.4c-.4.3-.7.7-.9 1.2c-.3.5-.4 1-.4 1.7zm8.5 6.6h-1.1l.7-4.1h1.8l-1.4 4.1zm5.6-6.4c0-.9.2-1.7.5-2.4c.4-.7.8-1.2 1.4-1.6c.6-.4 1.3-.6 2-.6c.5 0 1.1.2 1.6.5c.5.2.9.6 1.2 1.1c-.02-.04 0-4.9 0-4.9h1.4v12.3h-1.3l-.1-1.4c-.3.5-.7.9-1.2 1.2c-.5.3-1 .4-1.6.4c-.7 0-1.4-.1-2-.5c-.6-.4-1-.9-1.4-1.6c-.3-.7-.5-1.6-.5-2.5zm1.5 0c0 .7.1 1.4.4 1.9c.2.5.5.9.9 1.2c.4.3.8.4 1.3.4c.6 0 1.1-.2 1.5-.6c.5-.4.9-.9 1.1-1.4v-2.9c-.2-.6-.6-1.1-1.1-1.5c-.4-.4-.9-.6-1.5-.6c-.5 0-.9.2-1.3.5c-.4.3-.7.7-.9 1.2c-.3.5-.4 1.1-.4 1.8zm7.6-.2c0-.8.2-1.6.5-2.2c.3-.7.8-1.2 1.4-1.6c.6-.4 1.3-.6 2-.6c1.2 0 2.1.4 2.8 1.2c.7.8 1 1.9 1 3.3v.6h-6.3c.1.9.3 1.6.8 2.2c.5.5 1.1.8 1.9.8c1.2 0 2.3-.4 3.1-1.3v1.4c-.4.3-.8.6-1.3.8c-.5.2-1.1.2-1.8.2c-.8 0-1.6-.1-2.2-.5c-.6-.4-1.1-.9-1.4-1.6c-.3-.7-.5-1.4-.5-2.3v-.4zm6.3-.4c0-.9-.2-1.7-.7-2.1c-.4-.5-1-.8-1.6-.8c-.5 0-.9.2-1.3.4c-.3.2-.6.6-.9 1c-.2.4-.3.9-.4 1.5h4.9zm1.8.5c0-.9.2-1.6.6-2.3c.3-.7.8-1.2 1.5-1.6c.6-.4 1.4-.6 2.2-.6c.5 0 1 .1 1.4.3c.5.2.9.4 1.2.7v1.5c-.4-.4-.8-.8-1.2-1c-.4-.2-.9-.3-1.4-.3c-.5 0-1 .1-1.4.4c-.5.3-.8.6-1 1.1c-.3.5-.4 1.1-.4 1.8v.2c0 .7.1 1.3.4 1.8c.2.5.6.9 1 1.2c.4.3.9.4 1.4.4c1 0 1.9-.4 2.6-1.3v1.5c-.3.3-.7.5-1.2.7c-.5.2-.9.2-1.4.2c-.8 0-1.6-.2-2.2-.5c-.7-.4-1.2-1-1.5-1.6c-.4-.7-.6-1.5-.6-2.3v-.3zm7.4-.1c0-.8.1-1.6.5-2.2c.3-.7.7-1.2 1.3-1.6c.6-.4 1.3-.6 2.1-.6c1.1 0 2.1.4 2.7 1.2c.7.8 1 1.9 1 3.3c.04.02 0 .6 0 .6h-6.2c0 .9.3 1.6.7 2.2c.5.5 1.2.8 2 .8c1.2 0 2.2-.4 3-1.3v1.4c-.3.3-.8.6-1.3.8c-.5.2-1.1.2-1.7.2c-.9 0-1.6-.1-2.2-.5c-.7-.4-1.1-.9-1.5-1.6c-.3-.7-.4-1.4-.4-2.3v-.4zm6.2-.4c0-.9-.2-1.7-.6-2.1c-.5-.5-1-.8-1.7-.8c-.5 0-.9.2-1.2.4c-.4.2-.7.6-.9 1c-.3.4-.4.9-.4 1.5h4.8zm3.9 5h-1.4V73.2h1.4v12.3zm1-4.6c0-.8.2-1.6.5-2.2c.4-.7.8-1.2 1.4-1.6c.6-.4 1.3-.6 2-.6c1.2 0 2.1.4 2.8 1.2c.7.8 1 1.9 1 3.3v.6h-6.3c.1.9.3 1.6.8 2.2c.5.5 1.1.8 1.9.8c1.2 0 2.3-.4 3.1-1.3v1.4c-.4.3-.8.6-1.3.8c-.5.2-1.1.2-1.8.2c-.8 0-1.6-.1-2.2-.5c-.6-.4-1.1-.9-1.4-1.6c-.3-.7-.5-1.4-.5-2.3v-.4zm6.3-.4c0-.9-.2-1.7-.7-2.1c-.4-.5-.9-.8-1.6-.8c-.5 0-.9.2-1.3.4c-.3.2-.6.6-.9 1c-.2.4-.3.9-.4 1.5h4.9zm2.5 5v-8.7h1.2s.14 1.49.1 1.5c.3-.6.6-1 1.1-1.3c.4-.3.9-.5 1.5-.5c.2 0 .3 0 .5.1h.4v1.3c-.3-.1-.6-.1-.9-.1c-.6 0-1.1.1-1.6.5c-.4.4-.7.9-.9 1.5c-.03.02 0 5.7 0 5.7h-1.4zm4.7-2.3c0-.6.2-1.1.5-1.5c.3-.4.6-.6 1.1-.9c.5-.2 1.2-.3 2.1-.5l2.2-.4c0-.7-.2-1.3-.6-1.7c-.4-.4-1-.6-1.7-.6c-.6 0-1.1.2-1.6.4c-.5.3-.9.6-1.3 1v-1.4c.4-.3.8-.5 1.3-.8c.5-.2 1.1-.3 1.7-.3c1.1 0 2 .3 2.6.9c.7.5 1 1.4 1 2.5v5.6h-1.1s-.27-1.34-.3-1.3c-.4.5-.9.9-1.4 1.1c-.5.3-1.1.4-1.8.4c-.8 0-1.5-.2-1.9-.6c-.5-.5-.8-1.1-.8-1.9zm1.5-.1c0 .5.1.9.4 1.1c.2.3.6.4 1.1.4c.5 0 1.1-.2 1.6-.5c.6-.4 1-.8 1.3-1.4V81s-1.46.26-1.5.3c-.8.1-1.4.2-1.8.4c-.4.1-.7.3-.9.5c-.2.3-.2.6-.2.9zm8.2-5.2h-1.9v-1.1h1.9v-2.7h1.4v2.7h1.9v1.1h-1.9v7.6h-1.4v-7.6zm5.3-2.6h-1.4v-1.7h1.4v1.7zm0 10.2h-1.4v-8.7h1.4v8.7zm1.7 0v-8.7h1.3s.09 1.73.1 1.7c.3-.5.7-1 1.3-1.4c.5-.4 1.1-.6 1.8-.6c.9 0 1.6.3 2.1.9c.5.5.8 1.3.8 2.4c-.02-.04 0 5.7 0 5.7h-1.4s-.05-5.63 0-5.6c0-.8-.2-1.3-.4-1.7c-.3-.3-.7-.5-1.3-.5c-.4 0-.8.1-1.2.3c-.4.3-.8.6-1.1 1c-.3.5-.5.9-.6 1.4v5.1h-1.4zm8.2-4.6c0-.9.2-1.6.5-2.3c.3-.7.8-1.2 1.4-1.5c.5-.4 1.2-.6 1.9-.6c.6 0 1.1.2 1.6.5c.5.2.9.6 1.2 1.1c.02 0 .1-1.3.1-1.3h1.3v8.4c0 .8-.2 1.5-.5 2.1c-.3.6-.8 1.1-1.5 1.4c-.7.3-1.4.5-2.3.5c-.6 0-1.1-.1-1.6-.2c-.4-.1-.9-.3-1.2-.6V87c.8.7 1.7 1 2.8 1c.9 0 1.6-.2 2.1-.7c.5-.5.8-1.2.8-2.1v-1.4c-.3.5-.7.8-1.2 1.1c-.5.3-1 .4-1.6.4c-.7 0-1.4-.2-1.9-.5c-.6-.4-1.1-.9-1.4-1.6c-.3-.6-.5-1.4-.5-2.3zm1.5 0c0 .7.1 1.3.4 1.8c.2.4.5.8.9 1.1c.4.2.8.4 1.3.4c.5 0 1-.2 1.5-.6c.4-.4.8-.9 1-1.4v-2.5c-.2-.6-.6-1.1-1-1.5c-.5-.4-1-.6-1.5-.6c-.5 0-.9.2-1.3.4c-.4.3-.7.7-1 1.2c-.2.5-.3 1-.3 1.7zm8.5 6.6h-1.1l.7-4.1h1.8l-1.4 4.1zm5.6-4.3c0-.6.2-1.1.5-1.5c.3-.4.7-.6 1.2-.9c.5-.2 1.1-.3 2-.5l2.2-.4c0-.7-.2-1.3-.6-1.7c-.4-.4-.9-.6-1.7-.6c-.6 0-1.1.2-1.6.4c-.5.3-.9.6-1.3 1v-1.4c.4-.3.8-.5 1.3-.8c.5-.2 1.1-.3 1.7-.3c1.1 0 2 .3 2.6.9c.7.5 1 1.4 1 2.5v5.6h-1.1s-.26-1.34-.3-1.3c-.4.5-.8.9-1.4 1.1c-.5.3-1.1.4-1.8.4c-.8 0-1.4-.2-1.9-.6c-.5-.5-.8-1.1-.8-1.9zm1.5-.1c0 .5.1.9.4 1.1c.3.3.6.4 1.1.4c.5 0 1.1-.2 1.6-.5c.6-.4 1-.8 1.3-1.4c.01-.03 0-1.7 0-1.7c0 0-1.44.26-1.4.3c-.8.1-1.4.2-1.9.4c-.4.1-.7.3-.8.5c-.2.3-.3.6-.3.9zm7.4 2.4v-8.7h1.2s.15 1.73.1 1.7c.4-.5.8-1 1.3-1.4c.6-.4 1.2-.6 1.9-.6c.9 0 1.6.3 2.1.9c.5.5.7 1.3.7 2.4c.03-.04 0 5.7 0 5.7h-1.4v-5.6c0-.8-.1-1.3-.4-1.7c-.2-.3-.7-.5-1.3-.5c-.4 0-.7.1-1.1.3c-.4.3-.8.6-1.1 1c-.3.5-.5.9-.6 1.4c-.04-.05 0 5.1 0 5.1h-1.4zm8.2-4.4c0-.9.2-1.7.5-2.4c.3-.7.8-1.2 1.4-1.6c.6-.4 1.2-.6 1.9-.6c.6 0 1.1.2 1.6.5c.5.2.9.6 1.2 1.1c.04-.04 0-4.9 0-4.9h1.4v12.3h-1.2s-.15-1.36-.1-1.4c-.4.5-.8.9-1.3 1.2c-.5.3-1 .4-1.6.4c-.7 0-1.3-.1-1.9-.5c-.6-.4-1.1-.9-1.4-1.6c-.3-.7-.5-1.6-.5-2.5zm1.5 0c0 .7.1 1.4.3 1.9c.2.5.5.9.9 1.2c.4.3.9.4 1.4.4c.5 0 1-.2 1.5-.6c.5-.4.8-.9 1-1.4v-2.9c-.2-.6-.5-1.1-1-1.5c-.5-.4-1-.6-1.5-.6c-.5 0-1 .2-1.4.5c-.3.3-.7.7-.9 1.2c-.2.5-.3 1.1-.3 1.8zm11.4 2.2c.7.9 1.6 1.3 2.7 1.3c.6 0 1.1-.1 1.4-.4c.4-.2.5-.5.5-.9c0-.3-.1-.6-.2-.8c-.2-.2-.5-.4-1-.6l-1.2-.5c-.7-.3-1.3-.7-1.6-1.1c-.4-.4-.5-.8-.5-1.4c0-.4.1-.8.3-1.2c.2-.4.6-.6 1-.9c.4-.2 1-.3 1.6-.3c.5 0 1 .1 1.5.3c.5.2.9.4 1.2.7v1.5c-.4-.4-.8-.8-1.3-1c-.5-.2-.9-.3-1.4-.3c-.5 0-.9.1-1.2.3c-.2.2-.4.5-.4.8c0 .3.2.5.4.7c.2.2.5.4 1 .6l1.2.5c.7.3 1.2.6 1.5 1c.4.5.5 1 .5 1.6c0 .8-.3 1.4-.9 1.8c-.6.5-1.4.7-2.4.7c-.6 0-1.1 0-1.6-.2c-.4-.2-.8-.4-1.1-.7v-1.5zm7.1 2.2V73.2h1.4v5.3c.3-.5.8-1 1.3-1.4c.5-.4 1.1-.6 1.8-.6c.9 0 1.6.3 2.1.9c.5.5.8 1.3.8 2.4c-.05-.04 0 5.7 0 5.7H306s.05-5.63 0-5.6c0-.8-.1-1.3-.3-1.7c-.3-.3-.7-.5-1.3-.5c-.4 0-.8.1-1.2.3c-.4.3-.8.6-1.1 1c-.3.4-.5.8-.6 1.3v5.2h-1.4zm10.3-10.2H309v-1.7h1.4v1.7zm0 10.2H309v-8.7h1.4v8.7zm.5-7.6v-1.1h1.8v-.9c0-.5.1-1 .3-1.5c.2-.4.5-.8.9-1.1c.4-.2.9-.4 1.5-.4c.5 0 .8.1 1.1.3v1.2c-.2-.2-.6-.3-1-.3c-.4 0-.7.1-1 .5c-.2.3-.4.7-.4 1.3c.03.02 0 .9 0 .9h2.1v1.1h-2.1v7.6h-1.4v-7.6h-1.8zm7.1 0h-2v-1.1h2v-2.7h1.4v2.7h1.9v1.1h-1.9v7.6H318v-7.6zm5.3-2.6h-1.4v-1.7h1.4v1.7zm0 10.2h-1.4v-8.7h1.4v8.7zm1.7 0v-8.7h1.2s.15 1.73.2 1.7c.3-.5.7-1 1.2-1.4c.6-.4 1.2-.6 1.9-.6c.9 0 1.6.3 2.1.9c.5.5.7 1.3.7 2.4c.03-.04 0 5.7 0 5.7h-1.4v-5.6c0-.8-.1-1.3-.4-1.7c-.2-.3-.7-.5-1.3-.5c-.3 0-.7.1-1.1.3c-.4.3-.8.6-1.1 1c-.3.5-.5.9-.6 1.4c-.03-.05 0 5.1 0 5.1H325zm8.2-4.6c0-.9.2-1.6.5-2.3c.3-.7.7-1.2 1.3-1.5c.6-.4 1.3-.6 2-.6c.6 0 1.1.2 1.6.5c.5.2.9.6 1.2 1.1c-.03 0 .1-1.3.1-1.3h1.3s-.03 8.38 0 8.4c0 .8-.2 1.5-.5 2.1c-.4.6-.9 1.1-1.5 1.4c-.7.3-1.5.5-2.4.5c-.6 0-1.1-.1-1.5-.2c-.5-.1-.9-.3-1.3-.6V87c.8.7 1.8 1 2.8 1c.9 0 1.6-.2 2.2-.7c.5-.5.8-1.2.8-2.1v-1.4c-.4.5-.7.8-1.2 1.1c-.5.3-1 .4-1.6.4c-.7 0-1.4-.2-2-.5c-.6-.4-1-.9-1.3-1.6c-.3-.6-.5-1.4-.5-2.3zm1.5 0c0 .7.1 1.3.3 1.8c.2.4.6.8.9 1.1c.4.2.9.4 1.3.4c.6 0 1.1-.2 1.5-.6c.5-.4.8-.9 1.1-1.4v-2.5c-.3-.6-.6-1.1-1.1-1.5c-.5-.4-1-.6-1.5-.6c-.5 0-.9.2-1.3.4c-.4.3-.7.7-.9 1.2c-.2.5-.3 1-.3 1.7zm9.7 4.6h-1.9v-2.1h1.9v2.1z" stroke="none" fill="#fff"/></g><g id="Polygon8541"><path d="m31.1 65V52.8h1.3l.1 1.4c.3-.5.7-.9 1.2-1.2c.5-.3 1-.5 1.6-.5c.8 0 1.4.2 2 .6c.6.4 1 .9 1.4 1.6c.3.7.5 1.5.5 2.4c0 .9-.2 1.8-.5 2.5c-.4.7-.8 1.2-1.4 1.6c-.6.4-1.2.5-2 .5c-.5 0-1.1-.1-1.6-.4c-.5-.3-.9-.6-1.2-1.1v4.8h-1.4zm1.4-6.5c.2.6.6 1.1 1.1 1.5c.4.4.9.6 1.5.6c.5 0 .9-.1 1.3-.4c.4-.3.7-.7 1-1.2c.2-.6.3-1.2.3-1.9c0-.7-.1-1.3-.3-1.8c-.3-.5-.6-.9-1-1.2c-.4-.3-.8-.5-1.3-.5c-.5 0-1.1.2-1.5.6c-.5.4-.9.9-1.1 1.5v2.8zm7.1.7c0-.6.1-1.1.5-1.5c.2-.4.6-.6 1.1-.9c.5-.2 1.2-.3 2.1-.5l2.1-.4c0-.7-.2-1.3-.5-1.7c-.4-.4-1-.6-1.8-.6c-.5 0-1.1.2-1.6.4c-.4.3-.9.6-1.2 1v-1.4c.3-.3.7-.5 1.3-.8c.5-.2 1-.3 1.7-.3c1.1 0 2 .3 2.6.9c.6.5 1 1.4 1 2.5c-.05-.03 0 5.6 0 5.6h-1.2l-.2-1.3c-.4.5-.9.9-1.4 1.1c-.6.3-1.2.4-1.8.4c-.9 0-1.5-.2-2-.6c-.5-.5-.7-1.1-.7-1.9zm1.4-.1c0 .5.1.9.4 1.1c.3.3.7.4 1.1.4c.6 0 1.1-.2 1.7-.5c.5-.4.9-.8 1.3-1.4c-.04-.03 0-1.7 0-1.7c0 0-1.5.26-1.5.3c-.8.1-1.4.2-1.8.4c-.4.1-.7.3-.9.5c-.2.3-.3.6-.3.9zm7.4 2.4v-8.7h1.3s.08 1.49.1 1.5c.2-.6.6-1 1-1.3c.5-.3 1-.5 1.6-.5c.1 0 .3 0 .5.1h.3v1.3c-.2-.1-.5-.1-.9-.1c-.5 0-1.1.1-1.5.5c-.5.4-.8.9-1 1.5v5.7h-1.4zm6.8 0h-1.4V49.2h1.4v7.5l4-3.9h1.8L56.6 57l4.7 4.5h-1.9l-4.2-4v4zm8.1-10.2h-1.4v-1.7h1.4v1.7zm0 10.2h-1.4v-8.7h1.4v8.7zm1.7 0v-8.7h1.2s.15 1.73.2 1.7c.3-.5.7-1 1.2-1.4c.6-.4 1.2-.6 1.9-.6c.9 0 1.6.3 2.1.9c.5.5.7 1.3.7 2.4c.04-.04 0 5.7 0 5.7h-1.4v-5.6c0-.8-.1-1.3-.4-1.7c-.2-.3-.7-.5-1.2-.5c-.4 0-.8.1-1.2.3c-.4.3-.8.6-1.1 1c-.3.5-.5.9-.6 1.4c-.03-.05 0 5.1 0 5.1H65zm8.2-4.6c0-.9.2-1.6.5-2.3c.3-.7.8-1.2 1.3-1.5c.6-.4 1.3-.6 2-.6c.6 0 1.1.2 1.6.5c.5.2.9.6 1.2 1.1c-.02 0 .1-1.3.1-1.3h1.3s-.03 8.38 0 8.4c0 .8-.2 1.5-.5 2.1c-.4.6-.9 1.1-1.5 1.4c-.7.3-1.5.5-2.4.5c-.6 0-1.1-.1-1.5-.2c-.5-.1-.9-.3-1.3-.6V63c.8.7 1.8 1 2.9 1c.8 0 1.5-.2 2.1-.7c.5-.5.8-1.2.8-2.1v-1.4c-.3.5-.7.8-1.2 1.1c-.5.3-1 .4-1.6.4c-.7 0-1.4-.2-2-.5c-.5-.4-1-.9-1.3-1.6c-.3-.6-.5-1.4-.5-2.3zm1.5 0c0 .7.1 1.3.3 1.8c.2.4.6.8.9 1.1c.4.2.9.4 1.3.4c.6 0 1.1-.2 1.5-.6c.5-.4.8-.9 1.1-1.4v-2.5c-.3-.6-.6-1.1-1.1-1.5c-.4-.4-.9-.6-1.5-.6c-.5 0-.9.2-1.3.4c-.4.3-.7.7-.9 1.2c-.2.5-.3 1-.3 1.7zM86 59.3c.7.9 1.6 1.3 2.8 1.3c.6 0 1-.1 1.4-.4c.3-.2.5-.5.5-.9c0-.3-.1-.6-.3-.8c-.2-.2-.5-.4-1-.6l-1.2-.5c-.7-.3-1.3-.7-1.6-1.1c-.3-.4-.5-.8-.5-1.4c0-.4.1-.8.3-1.2c.3-.4.6-.6 1-.9c.5-.2 1-.3 1.6-.3c.6 0 1.1.1 1.5.3c.5.2.9.4 1.2.7v1.5c-.4-.4-.8-.8-1.3-1c-.4-.2-.9-.3-1.4-.3c-.5 0-.9.1-1.1.3c-.3.2-.4.5-.4.8c0 .3.1.5.3.7c.2.2.5.4 1 .6l1.2.5c.7.3 1.2.6 1.6 1c.3.5.5 1 .5 1.6c0 .8-.3 1.4-1 1.8c-.6.5-1.4.7-2.3.7c-.6 0-1.2 0-1.6-.2c-.5-.2-.9-.4-1.2-.7v-1.5zm7.1 5.7V52.8h1.3s.11 1.38.1 1.4c.3-.5.7-.9 1.2-1.2c.5-.3 1.1-.5 1.6-.5c.8 0 1.4.2 2 .6c.6.4 1 .9 1.4 1.6c.3.7.5 1.5.5 2.4c0 .9-.2 1.8-.5 2.5c-.4.7-.8 1.2-1.4 1.6c-.6.4-1.2.5-2 .5c-.5 0-1.1-.1-1.5-.4c-.5-.3-1-.6-1.3-1.1c.03-.01 0 4.8 0 4.8h-1.4zm1.4-6.5c.2.6.6 1.1 1.1 1.5c.4.4 1 .6 1.5.6c.5 0 .9-.1 1.3-.4c.4-.3.7-.7 1-1.2c.2-.6.3-1.2.3-1.9c0-.7-.1-1.3-.3-1.8c-.2-.5-.6-.9-1-1.2c-.3-.3-.8-.5-1.3-.5c-.5 0-1.1.2-1.5.6c-.5.4-.9.9-1.1 1.5v2.8zm7.1.7c0-.6.2-1.1.5-1.5c.2-.4.6-.6 1.1-.9c.5-.2 1.2-.3 2.1-.5l2.2-.4c-.1-.7-.3-1.3-.6-1.7c-.4-.4-1-.6-1.8-.6c-.5 0-1 .2-1.5.4c-.5.3-1 .6-1.3 1v-1.4c.3-.3.8-.5 1.3-.8c.5-.2 1.1-.3 1.7-.3c1.1 0 2 .3 2.6.9c.6.5 1 1.4 1 2.5c-.03-.03 0 5.6 0 5.6h-1.1s-.29-1.34-.3-1.3c-.4.5-.9.9-1.4 1.1c-.6.3-1.2.4-1.8.4c-.8 0-1.5-.2-2-.6c-.5-.5-.7-1.1-.7-1.9zm1.4-.1c0 .5.2.9.4 1.1c.3.3.7.4 1.1.4c.6 0 1.1-.2 1.7-.5c.5-.4 1-.8 1.3-1.4c-.03-.03 0-1.7 0-1.7c0 0-1.48.26-1.5.3c-.8.1-1.4.2-1.8.4c-.4.1-.7.3-.9.5c-.2.3-.3.6-.3.9zm6.8-2.1c0-.9.2-1.6.5-2.3c.4-.7.9-1.2 1.6-1.6c.6-.4 1.3-.6 2.2-.6c.5 0 .9.1 1.4.3c.4.2.8.4 1.1.7v1.5c-.3-.4-.7-.8-1.1-1c-.5-.2-.9-.3-1.4-.3c-.6 0-1 .1-1.5.4c-.4.3-.7.6-1 1.1c-.2.5-.3 1.1-.3 1.8v.2c0 .7.1 1.3.3 1.8c.3.5.6.9 1.1 1.2c.4.3.9.4 1.4.4c1 0 1.8-.4 2.5-1.3v1.5c-.3.3-.7.5-1.1.7c-.5.2-1 .2-1.5.2c-.8 0-1.5-.2-2.1-.5c-.7-.4-1.2-1-1.6-1.6c-.3-.7-.5-1.5-.5-2.3v-.3zm7.3-.1c0-.8.2-1.6.5-2.2c.3-.7.8-1.2 1.4-1.6c.6-.4 1.3-.6 2-.6c1.2 0 2.1.4 2.8 1.2c.7.8 1 1.9 1 3.3v.6h-6.3c.1.9.3 1.6.8 2.2c.5.5 1.1.8 1.9.8c1.2 0 2.3-.4 3.1-1.3v1.4c-.4.3-.8.6-1.3.8c-.5.2-1.1.2-1.8.2c-.8 0-1.6-.1-2.2-.5c-.6-.4-1.1-.9-1.4-1.6c-.3-.7-.5-1.4-.5-2.3v-.4zm6.3-.4c0-.9-.2-1.7-.7-2.1c-.4-.5-.9-.8-1.6-.8c-.5 0-.9.2-1.3.4c-.3.2-.6.6-.9 1c-.2.4-.3.9-.4 1.5h4.9zm2.1 2.8c.7.9 1.6 1.3 2.8 1.3c.6 0 1-.1 1.4-.4c.3-.2.5-.5.5-.9c0-.3-.1-.6-.3-.8c-.2-.2-.5-.4-1-.6l-1.2-.5c-.7-.3-1.2-.7-1.6-1.1c-.3-.4-.5-.8-.5-1.4c0-.4.1-.8.3-1.2c.3-.4.6-.6 1-.9c.5-.2 1-.3 1.6-.3c.6 0 1.1.1 1.5.3c.5.2.9.4 1.2.7v1.5c-.4-.4-.8-.8-1.3-1c-.4-.2-.9-.3-1.4-.3c-.5 0-.9.1-1.1.3c-.3.2-.4.5-.4.8c0 .3.1.5.3.7c.2.2.5.4 1 .6l1.2.5c.7.3 1.2.6 1.6 1c.3.5.5 1 .5 1.6c0 .8-.3 1.4-1 1.8c-.6.5-1.4.7-2.3.7c-.6 0-1.2 0-1.6-.2c-.5-.2-.9-.4-1.2-.7v-1.5zm10-.1c0-.6.2-1.1.5-1.5c.3-.4.6-.6 1.1-.9c.5-.2 1.2-.3 2.1-.5l2.2-.4c0-.7-.2-1.3-.6-1.7c-.4-.4-1-.6-1.7-.6c-.6 0-1.1.2-1.6.4c-.5.3-.9.6-1.3 1v-1.4c.4-.3.8-.5 1.3-.8c.5-.2 1.1-.3 1.7-.3c1.1 0 2 .3 2.6.9c.7.5 1 1.4 1 2.5v5.6h-1.1s-.27-1.34-.3-1.3c-.4.5-.9.9-1.4 1.1c-.6.3-1.2.4-1.8.4c-.8 0-1.5-.2-2-.6c-.4-.5-.7-1.1-.7-1.9zm1.4-.1c0 .5.2.9.5 1.1c.2.3.6.4 1.1.4c.5 0 1.1-.2 1.6-.5c.6-.4 1-.8 1.3-1.4c-.01-.03 0-1.7 0-1.7c0 0-1.46.26-1.5.3c-.8.1-1.4.2-1.8.4c-.4.1-.7.3-.9.5c-.2.3-.3.6-.3.9zm7.4 2.4v-8.7h1.3s.13 1.73.1 1.7c.3-.5.8-1 1.3-1.4c.6-.4 1.2-.6 1.8-.6c1 0 1.7.3 2.2.9c.5.5.7 1.3.7 2.4v5.7h-1.4v-5.6c0-.8-.1-1.3-.4-1.7c-.3-.3-.7-.5-1.3-.5c-.4 0-.8.1-1.2.3c-.4.3-.7.6-1 1c-.3.5-.5.9-.7 1.4c.05-.05 0 5.1 0 5.1h-1.4zm8.3-4.4c0-.9.1-1.7.5-2.4c.3-.7.8-1.2 1.3-1.6c.6-.4 1.3-.6 2-.6c.6 0 1.1.2 1.6.5c.5.2.9.6 1.2 1.1c.02-.04 0-4.9 0-4.9h1.4v12.3h-1.3s-.07-1.36-.1-1.4c-.3.5-.7.9-1.2 1.2c-.5.3-1 .4-1.6.4c-.7 0-1.4-.1-2-.5c-.5-.4-1-.9-1.3-1.6c-.4-.7-.5-1.6-.5-2.5zm1.4 0c0 .7.2 1.4.4 1.9c.2.5.5.9.9 1.2c.4.3.9.4 1.3.4c.6 0 1.1-.2 1.6-.6c.4-.4.8-.9 1-1.4v-2.9c-.2-.6-.6-1.1-1-1.5c-.5-.4-1-.6-1.5-.6c-.5 0-1 .2-1.4.5c-.4.3-.7.7-.9 1.2c-.2.5-.4 1.1-.4 1.8zm11.2 2.1c0-.6.1-1.1.5-1.5c.2-.4.6-.6 1.1-.9c.5-.2 1.2-.3 2.1-.5l2.1-.4c0-.7-.2-1.3-.6-1.7c-.3-.4-.9-.6-1.7-.6c-.5 0-1.1.2-1.6.4c-.5.3-.9.6-1.2 1v-1.4c.3-.3.7-.5 1.3-.8c.5-.2 1-.3 1.7-.3c1.1 0 1.9.3 2.6.9c.6.5.9 1.4.9 2.5c.05-.03 0 5.6 0 5.6h-1.1l-.2-1.3c-.4.5-.9.9-1.4 1.1c-.6.3-1.2.4-1.8.4c-.9 0-1.5-.2-2-.6c-.5-.5-.7-1.1-.7-1.9zm1.4-.1c0 .5.1.9.4 1.1c.3.3.7.4 1.1.4c.6 0 1.1-.2 1.7-.5c.5-.4.9-.8 1.3-1.4c-.04-.03 0-1.7 0-1.7c0 0-1.5.26-1.5.3c-.8.1-1.4.2-1.8.4c-.4.1-.7.3-.9.5c-.2.3-.3.6-.3.9zm7.2-.6c0 1.1.3 1.9.8 2.4c.5.6 1.2.8 2.1.8c.7 0 1.3-.2 1.8-.5c.6-.4 1-.9 1.3-1.5l.1 1.8h1.3v-8.7h-1.4v5.1c-.1.5-.3.9-.6 1.3c-.3.5-.7.8-1.1 1c-.4.3-.8.4-1.2.4c-.6 0-1-.2-1.3-.6c-.2-.3-.4-.9-.4-1.6c.05 0 0-5.6 0-5.6h-1.4s.04 5.71 0 5.7zm9.9-4.6h-1.9v-1.1h1.9v-2.7h1.4v2.7h2v1.1h-2v7.6h-1.4v-7.6zm3.9 7.6v-8.7h1.3s.12 1.49.1 1.5c.3-.6.6-1 1.1-1.3c.4-.3.9-.5 1.5-.5c.2 0 .3 0 .5.1h.3v1.3c-.2-.1-.5-.1-.8-.1c-.6 0-1.1.1-1.6.5c-.4.4-.8.9-.9 1.5c-.04.02 0 5.7 0 5.7h-1.5zm4.8-4.5c0-.9.2-1.6.5-2.3c.4-.7.9-1.2 1.5-1.6c.6-.4 1.3-.6 2.1-.6c.8 0 1.5.2 2.1.6c.7.4 1.1.9 1.5 1.6c.3.7.5 1.4.5 2.3v.3c0 .9-.2 1.6-.5 2.3c-.4.7-.8 1.2-1.5 1.6c-.6.4-1.3.5-2.1.5c-.8 0-1.5-.1-2.1-.5c-.6-.4-1.1-.9-1.5-1.6c-.3-.7-.5-1.4-.5-2.3v-.3zm1.5.3c0 1 .2 1.8.7 2.4c.5.6 1.1.9 1.9.9c.8 0 1.5-.3 1.9-.9c.5-.6.8-1.4.8-2.4v-.3c0-1-.3-1.8-.8-2.4c-.4-.6-1.1-1-1.9-1c-.8 0-1.4.4-1.9 1c-.5.6-.7 1.4-.7 2.4v.3zm7.8 4.2v-8.7h1.2s.12 1.55.1 1.6c.4-.6.8-1 1.2-1.4c.5-.3 1.1-.5 1.7-.5c.6 0 1.1.2 1.6.5c.4.4.7.8.8 1.4c.4-.5.8-1 1.3-1.4c.5-.3 1.1-.5 1.7-.5c.8 0 1.4.3 1.9.8c.5.5.7 1.3.7 2.3v5.9h-1.4v-5.8c0-.7-.1-1.2-.3-1.6c-.3-.3-.7-.5-1.2-.5c-.3 0-.6.2-1 .4c-.4.2-.7.5-.9.8c-.3.4-.5.8-.6 1.2c-.02-.02 0 5.5 0 5.5h-1.4s-.03-5.85 0-5.9c0-.6-.1-1.1-.4-1.5c-.2-.3-.6-.5-1.1-.5c-.3 0-.7.2-1 .4c-.3.2-.7.5-.9.8c-.3.4-.5.8-.6 1.2c-.03-.02 0 5.5 0 5.5h-1.4zm13.1-2.3c0-.6.1-1.1.5-1.5c.2-.4.6-.6 1.1-.9c.5-.2 1.2-.3 2.1-.5l2.1-.4c0-.7-.2-1.3-.6-1.7c-.3-.4-.9-.6-1.7-.6c-.5 0-1.1.2-1.6.4c-.5.3-.9.6-1.2 1v-1.4c.3-.3.7-.5 1.3-.8c.5-.2 1-.3 1.7-.3c1.1 0 1.9.3 2.6.9c.6.5.9 1.4.9 2.5c.05-.03 0 5.6 0 5.6h-1.1l-.2-1.3c-.4.5-.9.9-1.4 1.1c-.6.3-1.2.4-1.8.4c-.9 0-1.5-.2-2-.6c-.5-.5-.7-1.1-.7-1.9zm1.4-.1c0 .5.1.9.4 1.1c.3.3.7.4 1.1.4c.6 0 1.1-.2 1.7-.5c.5-.4.9-.8 1.3-1.4c-.04-.03 0-1.7 0-1.7c0 0-1.5.26-1.5.3c-.8.1-1.4.2-1.8.4c-.4.1-.7.3-.9.5c-.2.3-.3.6-.3.9zm8.2-5.2h-1.9v-1.1h1.9v-2.7h1.5v2.7h1.9v1.1h-1.9v7.6h-1.5v-7.6zm5.4-2.6h-1.4v-1.7h1.4v1.7zm0 10.2h-1.4v-8.7h1.4v8.7zm1-4.5c0-.9.2-1.6.6-2.3c.3-.7.8-1.2 1.5-1.6c.6-.4 1.4-.6 2.2-.6c.5 0 1 .1 1.4.3c.5.2.9.4 1.2.7v1.5c-.4-.4-.8-.8-1.2-1c-.4-.2-.9-.3-1.4-.3c-.5 0-1 .1-1.4.4c-.4.3-.8.6-1 1.1c-.3.5-.4 1.1-.4 1.8v.2c0 .7.1 1.3.4 1.8c.2.5.6.9 1 1.2c.4.3.9.4 1.4.4c1 0 1.9-.4 2.6-1.3v1.5c-.3.3-.7.5-1.2.7c-.4.2-.9.2-1.4.2c-.8 0-1.6-.2-2.2-.5c-.7-.4-1.2-1-1.5-1.6c-.4-.7-.6-1.5-.6-2.3v-.3zm7.4 2.2c0-.6.1-1.1.5-1.5c.2-.4.6-.6 1.1-.9c.5-.2 1.2-.3 2.1-.5l2.1-.4c0-.7-.2-1.3-.6-1.7c-.3-.4-.9-.6-1.7-.6c-.5 0-1.1.2-1.6.4c-.5.3-.9.6-1.2 1v-1.4c.3-.3.7-.5 1.3-.8c.5-.2 1-.3 1.7-.3c1.1 0 1.9.3 2.6.9c.6.5.9 1.4.9 2.5c.04-.03 0 5.6 0 5.6h-1.1s-.22-1.34-.2-1.3c-.4.5-.9.9-1.5 1.1c-.5.3-1.1.4-1.8.4c-.8 0-1.4-.2-1.9-.6c-.5-.5-.7-1.1-.7-1.9zm1.4-.1c0 .5.1.9.4 1.1c.3.3.7.4 1.1.4c.6 0 1.1-.2 1.7-.5c.5-.4.9-.8 1.2-1.4c.05-.03 0-1.7 0-1.7c0 0-1.41.26-1.4.3c-.8.1-1.4.2-1.8.4c-.4.1-.7.3-.9.5c-.2.3-.3.6-.3.9zm8.8 2.4H247V49.2h1.4v12.3zm3.1 0h-1.4V49.2h1.4v12.3zm4.1 0l-3.5-8.7h1.5l2.7 7l2.7-7h1.4L255.6 65h-1.5l1.5-3.5zm8.4-2.3c0-.6.1-1.1.5-1.5c.2-.4.6-.6 1.1-.9c.5-.2 1.2-.3 2.1-.5l2.1-.4c0-.7-.2-1.3-.6-1.7c-.3-.4-.9-.6-1.7-.6c-.5 0-1.1.2-1.6.4c-.5.3-.9.6-1.2 1v-1.4c.3-.3.7-.5 1.3-.8c.5-.2 1-.3 1.7-.3c1.1 0 1.9.3 2.6.9c.6.5.9 1.4.9 2.5c.05-.03 0 5.6 0 5.6h-1.1l-.2-1.3c-.4.5-.9.9-1.4 1.1c-.6.3-1.2.4-1.8.4c-.9 0-1.5-.2-2-.6c-.5-.5-.7-1.1-.7-1.9zm1.4-.1c0 .5.1.9.4 1.1c.3.3.7.4 1.1.4c.6 0 1.1-.2 1.7-.5c.5-.4.9-.8 1.3-1.4c-.04-.03 0-1.7 0-1.7c0 0-1.5.26-1.5.3c-.8.1-1.4.2-1.8.4c-.4.1-.7.3-.9.5c-.2.3-.3.6-.3.9zm7 .2c.8.9 1.7 1.3 2.8 1.3c.6 0 1.1-.1 1.4-.4c.3-.2.5-.5.5-.9c0-.3-.1-.6-.3-.8c-.1-.2-.5-.4-1-.6l-1.2-.5c-.7-.3-1.2-.7-1.6-1.1c-.3-.4-.5-.8-.5-1.4c0-.4.1-.8.4-1.2c.2-.4.5-.6 1-.9c.4-.2 1-.3 1.6-.3c.5 0 1 .1 1.5.3c.4.2.8.4 1.2.7v1.5c-.4-.4-.9-.8-1.3-1c-.5-.2-.9-.3-1.4-.3c-.5 0-.9.1-1.2.3c-.3.2-.4.5-.4.8c0 .3.1.5.3.7c.2.2.6.4 1.1.6l1.1.5c.8.3 1.3.6 1.6 1c.3.5.5 1 .5 1.6c0 .8-.3 1.4-.9 1.8c-.6.5-1.4.7-2.4.7c-.6 0-1.1 0-1.6-.2c-.5-.2-.9-.4-1.2-.7v-1.5zm6.8 0c.7.9 1.7 1.3 2.8 1.3c.6 0 1-.1 1.4-.4c.3-.2.5-.5.5-.9c0-.3-.1-.6-.3-.8c-.2-.2-.5-.4-1-.6l-1.2-.5c-.7-.3-1.2-.7-1.6-1.1c-.3-.4-.5-.8-.5-1.4c0-.4.1-.8.3-1.2c.3-.4.6-.6 1-.9c.5-.2 1-.3 1.7-.3c.5 0 1 .1 1.4.3c.5.2.9.4 1.2.7v1.5c-.4-.4-.8-.8-1.3-1c-.4-.2-.9-.3-1.3-.3c-.6 0-1 .1-1.2.3c-.3.2-.4.5-.4.8c0 .3.1.5.3.7c.2.2.6.4 1 .6l1.2.5c.7.3 1.3.6 1.6 1c.3.5.5 1 .5 1.6c0 .8-.3 1.4-.9 1.8c-.7.5-1.4.7-2.4.7c-.6 0-1.2 0-1.6-.2c-.5-.2-.9-.4-1.2-.7v-1.5zm8.5-8h-1.4v-1.7h1.4v1.7zm0 10.2h-1.4v-8.7h1.4v8.7zm1.4-2.2c.7.9 1.6 1.3 2.7 1.3c.6 0 1.1-.1 1.4-.4c.3-.2.5-.5.5-.9c0-.3-.1-.6-.3-.8c-.1-.2-.5-.4-1-.6l-1.2-.5c-.7-.3-1.2-.7-1.5-1.1c-.4-.4-.6-.8-.6-1.4c0-.4.1-.8.4-1.2c.2-.4.5-.6 1-.9c.4-.2 1-.3 1.6-.3c.5 0 1 .1 1.5.3c.5.2.8.4 1.2.7v1.5c-.4-.4-.9-.8-1.3-1c-.5-.2-.9-.3-1.4-.3c-.5 0-.9.1-1.2.3c-.2.2-.4.5-.4.8c0 .3.1.5.3.7c.2.2.6.4 1.1.6l1.1.5c.8.3 1.3.6 1.6 1c.4.5.5 1 .5 1.6c0 .8-.3 1.4-.9 1.8c-.6.5-1.4.7-2.4.7c-.6 0-1.1 0-1.6-.2c-.5-.2-.8-.4-1.1-.7v-1.5zm7.9-5.4h-1.9v-1.1h1.9v-2.7h1.4v2.7h2v1.1h-2v7.6H297v-7.6zm3.6 5.4c.7.9 1.6 1.3 2.8 1.3c.6 0 1-.1 1.4-.4c.3-.2.5-.5.5-.9c0-.3-.1-.6-.3-.8c-.2-.2-.5-.4-1-.6l-1.2-.5c-.7-.3-1.2-.7-1.6-1.1c-.3-.4-.5-.8-.5-1.4c0-.4.1-.8.3-1.2c.3-.4.6-.6 1-.9c.5-.2 1-.3 1.6-.3c.6 0 1.1.1 1.5.3c.5.2.9.4 1.2.7v1.5c-.4-.4-.8-.8-1.3-1c-.4-.2-.9-.3-1.4-.3c-.5 0-.9.1-1.1.3c-.3.2-.4.5-.4.8c0 .3.1.5.3.7c.2.2.5.4 1 .6l1.2.5c.7.3 1.2.6 1.6 1c.3.5.5 1 .5 1.6c0 .8-.3 1.4-.9 1.8c-.7.5-1.5.7-2.4.7c-.6 0-1.2 0-1.6-.2c-.5-.2-.9-.4-1.2-.7v-1.5zm12.2 2.2l-2.6-8.7h1.5l1.9 7.2l1.9-7.2h1.8l1.9 7.1l2-7.1h1.3l-2.5 8.7h-1.7l-1.9-7.2l-2 7.2h-1.6zm11.8-10.2h-1.4v-1.7h1.4v1.7zm0 10.2h-1.4v-8.7h1.4v8.7zm2.5-7.6h-1.9v-1.1h1.9v-2.7h1.4v2.7h1.9v1.1h-1.9v7.6h-1.4v-7.6zm3.9 7.6V49.2h1.4s.03 5.3 0 5.3c.4-.5.8-1 1.3-1.4c.6-.4 1.2-.6 1.8-.6c.9 0 1.7.3 2.1.9c.5.5.8 1.3.8 2.4c-.02-.04 0 5.7 0 5.7H337s-.03-5.63 0-5.6c0-.8-.2-1.3-.4-1.7c-.3-.3-.7-.5-1.3-.5c-.4 0-.8.1-1.2.3c-.4.3-.7.6-1 1c-.3.4-.6.8-.7 1.3c.03 0 0 5.2 0 5.2H331zm12.1-2.2c.7.9 1.6 1.3 2.7 1.3c.6 0 1.1-.1 1.4-.4c.3-.2.5-.5.5-.9c0-.3-.1-.6-.3-.8c-.1-.2-.5-.4-1-.6l-1.2-.5c-.7-.3-1.2-.7-1.5-1.1c-.4-.4-.6-.8-.6-1.4c0-.4.1-.8.4-1.2c.2-.4.5-.6 1-.9c.4-.2 1-.3 1.6-.3c.5 0 1 .1 1.5.3c.5.2.8.4 1.2.7v1.5c-.4-.4-.9-.8-1.3-1c-.5-.2-.9-.3-1.4-.3c-.5 0-.9.1-1.2.3c-.2.2-.4.5-.4.8c0 .3.1.5.3.7c.2.2.6.4 1.1.6l1.1.5c.8.3 1.3.6 1.6 1c.4.5.5 1 .5 1.6c0 .8-.3 1.4-.9 1.8c-.6.5-1.4.7-2.4.7c-.6 0-1.1 0-1.6-.2c-.5-.2-.8-.4-1.1-.7v-1.5zm7.9-5.4h-1.9v-1.1h1.9v-2.7h1.4v2.7h2v1.1h-2v7.6H351v-7.6zm3.3 3c0-.8.2-1.6.5-2.2c.3-.7.8-1.2 1.4-1.6c.6-.4 1.3-.6 2-.6c1.2 0 2.1.4 2.8 1.2c.7.8 1 1.9 1 3.3v.6h-6.3c.1.9.3 1.6.8 2.2c.5.5 1.1.8 1.9.8c1.2 0 2.3-.4 3.1-1.3v1.4c-.4.3-.8.6-1.3.8c-.5.2-1.1.2-1.8.2c-.8 0-1.6-.1-2.2-.5c-.6-.4-1.1-.9-1.4-1.6c-.3-.7-.5-1.4-.5-2.3v-.4zm6.3-.4c0-.9-.2-1.7-.7-2.1c-.4-.5-1-.8-1.6-.8c-.5 0-.9.2-1.3.4c-.3.2-.6.6-.9 1c-.2.4-.3.9-.4 1.5h4.9zm1.8.4c0-.8.2-1.6.5-2.2c.3-.7.8-1.2 1.4-1.6c.6-.4 1.3-.6 2-.6c1.2 0 2.1.4 2.8 1.2c.7.8 1 1.9 1 3.3v.6h-6.3c.1.9.3 1.6.8 2.2c.5.5 1.1.8 1.9.8c1.2 0 2.3-.4 3.1-1.3v1.4c-.4.3-.8.6-1.3.8c-.5.2-1.1.2-1.8.2c-.8 0-1.6-.1-2.2-.5c-.6-.4-1.1-.9-1.4-1.6c-.3-.7-.5-1.4-.5-2.3v-.4zm6.3-.4c0-.9-.2-1.7-.7-2.1c-.4-.5-1-.8-1.7-.8c-.4 0-.8.2-1.2.4c-.3.2-.6.6-.9 1c-.2.4-.3.9-.4 1.5h4.9zm2.4 5v-8.7h1.3s.13 1.49.1 1.5c.3-.6.6-1 1.1-1.3c.4-.3.9-.5 1.5-.5c.2 0 .3 0 .5.1h.3v1.3c-.2-.1-.5-.1-.8-.1c-.6 0-1.1.1-1.6.5c-.4.4-.8.9-.9 1.5c-.04.02 0 5.7 0 5.7h-1.5zm6.8-10.2h-1.4v-1.7h1.4v1.7zm0 10.2h-1.4v-8.7h1.4v8.7zm1.7 0v-8.7h1.3l.1 1.7c.3-.5.8-1 1.3-1.4c.5-.4 1.1-.6 1.8-.6c.9 0 1.6.3 2.1.9c.5.5.8 1.3.8 2.4v5.7h-1.4s-.03-5.63 0-5.6c0-.8-.2-1.3-.4-1.7c-.3-.3-.7-.5-1.3-.5c-.4 0-.8.1-1.2.3c-.4.3-.7.6-1 1c-.4.5-.6.9-.7 1.4c.02-.05 0 5.1 0 5.1h-1.4zm8.3-4.6c0-.9.1-1.6.4-2.3c.4-.7.8-1.2 1.4-1.5c.6-.4 1.2-.6 2-.6c.5 0 1.1.2 1.5.5c.5.2.9.6 1.2 1.1c.03 0 .1-1.3.1-1.3h1.3s.02 8.38 0 8.4c0 .8-.1 1.5-.5 2.1c-.3.6-.8 1.1-1.5 1.4c-.6.3-1.4.5-2.3.5c-.6 0-1.1-.1-1.6-.2c-.4-.1-.8-.3-1.2-.6V63c.8.7 1.7 1 2.8 1c.9 0 1.6-.2 2.1-.7c.5-.5.8-1.2.8-2.1v-1.4c-.3.5-.7.8-1.2 1.1c-.5.3-1 .4-1.5.4c-.8 0-1.4-.2-2-.5c-.6-.4-1-.9-1.4-1.6c-.3-.6-.4-1.4-.4-2.3zm1.4 0c0 .7.1 1.3.4 1.8c.2.4.5.8.9 1.1c.4.2.8.4 1.3.4c.5 0 1-.2 1.5-.6c.4-.4.8-.9 1-1.4v-2.5c-.2-.6-.6-1.1-1-1.5c-.5-.4-1-.6-1.5-.6c-.5 0-.9.2-1.3.4c-.4.3-.7.7-.9 1.2c-.3.5-.4 1-.4 1.7zm8.5 6.6h-1.1l.7-4.1h1.8l-1.4 4.1z" stroke="none" fill="#fff"/></g><g id="Polygon8540"><path d="m39.2 37.5l-3.4-8.7h1.6L40 36l2.7-7.2h1.4l-3.3 8.7h-1.6zm4.8-4.6c0-.8.2-1.6.5-2.2c.4-.7.8-1.2 1.4-1.6c.6-.4 1.3-.6 2.1-.6c1.1 0 2.1.4 2.7 1.2c.7.8 1 1.9 1 3.3c.03.02 0 .6 0 .6h-6.2c0 .9.3 1.6.7 2.2c.5.5 1.1.8 1.9.8c1.3 0 2.3-.4 3.1-1.3v1.4c-.3.3-.8.6-1.3.8c-.5.2-1.1.2-1.8.2c-.8 0-1.5-.1-2.2-.5c-.6-.4-1-.9-1.4-1.6c-.3-.7-.5-1.4-.5-2.3v-.4zm6.3-.4c0-.9-.2-1.7-.6-2.1c-.5-.5-1-.8-1.7-.8c-.5 0-.9.2-1.2.4c-.4.2-.7.6-.9 1c-.3.4-.4.9-.4 1.5h4.8zm2.5 5V25.2h1.4v5.3c.3-.5.7-1 1.3-1.4c.5-.4 1.1-.6 1.8-.6c.9 0 1.6.3 2.1.9c.5.5.7 1.3.7 2.4c.05-.04 0 5.7 0 5.7h-1.4s.04-5.63 0-5.6c0-.8-.1-1.3-.3-1.7c-.3-.3-.7-.5-1.3-.5c-.4 0-.8.1-1.2.3c-.4.3-.8.6-1.1 1c-.3.4-.5.8-.6 1.3v5.2h-1.4zm10.3-10.2h-1.5v-1.7h1.5v1.7zm0 10.2h-1.5v-8.7h1.5v8.7zm1-4.5c0-.9.2-1.6.5-2.3c.4-.7.9-1.2 1.6-1.6c.6-.4 1.4-.6 2.2-.6c.5 0 .9.1 1.4.3c.4.2.8.4 1.1.7v1.5c-.3-.4-.7-.8-1.1-1c-.5-.2-.9-.3-1.4-.3c-.6 0-1 .1-1.5.4c-.4.3-.7.6-1 1.1c-.2.5-.3 1.1-.3 1.8v.2c0 .7.1 1.3.3 1.8c.3.5.6.9 1.1 1.2c.4.3.9.4 1.4.4c1 0 1.8-.4 2.5-1.3v1.5c-.3.3-.7.5-1.1.7c-.5.2-1 .2-1.4.2c-.9 0-1.6-.2-2.2-.5c-.7-.4-1.2-1-1.6-1.6c-.3-.7-.5-1.5-.5-2.3v-.3zm9.4 4.5h-1.4V25.2h1.4v12.3zm1-4.6c0-.8.2-1.6.5-2.2c.3-.7.8-1.2 1.4-1.6c.6-.4 1.2-.6 2-.6c1.2 0 2.1.4 2.8 1.2c.6.8 1 1.9 1 3.3c-.02.02 0 .6 0 .6h-6.3c.1.9.3 1.6.8 2.2c.5.5 1.1.8 1.9.8c1.2 0 2.2-.4 3.1-1.3v1.4c-.4.3-.8.6-1.3.8c-.5.2-1.1.2-1.8.2c-.9 0-1.6-.1-2.2-.5c-.6-.4-1.1-.9-1.4-1.6c-.3-.7-.5-1.4-.5-2.3v-.4zm6.3-.4c0-.9-.3-1.7-.7-2.1c-.4-.5-1-.8-1.7-.8c-.4 0-.8.2-1.2.4c-.4.2-.7.6-.9 1c-.2.4-.3.9-.4 1.5h4.9zm4 5h-1.9v-2.1h1.9v2.1zm4.9-12.2h1.5s-.03 7.71 0 7.7c0 1.1.3 2 .8 2.6c.6.6 1.4.9 2.4.9c1.1 0 1.9-.3 2.4-.9c.6-.6.9-1.5.9-2.6c-.03.01 0-7.7 0-7.7h1.4s-.04 7.77 0 7.8c0 .9-.2 1.7-.6 2.4c-.4.7-.9 1.2-1.6 1.6c-.7.4-1.6.6-2.5.6c-1 0-1.8-.2-2.6-.6c-.7-.4-1.2-.9-1.6-1.6c-.3-.7-.5-1.5-.5-2.4c-.02-.03 0-7.8 0-7.8zm10.6 10c.7.9 1.6 1.3 2.8 1.3c.6 0 1-.1 1.4-.4c.3-.2.5-.5.5-.9c0-.3-.1-.6-.3-.8c-.2-.2-.5-.4-1-.6l-1.2-.5c-.7-.3-1.2-.7-1.6-1.1c-.3-.4-.5-.8-.5-1.4c0-.4.1-.8.3-1.2c.3-.4.6-.6 1-.9c.5-.2 1-.3 1.6-.3c.6 0 1.1.1 1.5.3c.5.2.9.4 1.2.7v1.5c-.4-.4-.8-.8-1.3-1c-.4-.2-.9-.3-1.4-.3c-.5 0-.9.1-1.1.3c-.3.2-.4.5-.4.8c0 .3.1.5.3.7c.2.2.5.4 1 .6l1.2.5c.7.3 1.2.6 1.6 1c.3.5.5 1 .5 1.6c0 .8-.3 1.4-1 1.8c-.6.5-1.4.7-2.3.7c-.6 0-1.2 0-1.6-.2c-.5-.2-.9-.4-1.2-.7v-1.5zm8.5-8h-1.4v-1.7h1.4v1.7zm0 10.2h-1.4v-8.7h1.4v8.7zm1.7 0v-8.7h1.3s.09 1.73.1 1.7c.3-.5.7-1 1.3-1.4c.5-.4 1.1-.6 1.8-.6c.9 0 1.6.3 2.1.9c.5.5.8 1.3.8 2.4c-.03-.04 0 5.7 0 5.7h-1.5s.05-5.63 0-5.6c0-.8-.1-1.3-.3-1.7c-.3-.3-.7-.5-1.3-.5c-.4 0-.8.1-1.2.3c-.4.3-.8.6-1.1 1c-.3.5-.5.9-.6 1.4v5.1h-1.4zm8.2-4.6c0-.9.2-1.6.5-2.3c.3-.7.8-1.2 1.4-1.5c.5-.4 1.2-.6 1.9-.6c.6 0 1.1.2 1.6.5c.5.2.9.6 1.2 1.1l.1-1.3h1.3v8.4c0 .8-.2 1.5-.5 2.1c-.3.6-.8 1.1-1.5 1.4c-.7.3-1.4.5-2.3.5c-.6 0-1.1-.1-1.6-.2c-.4-.1-.9-.3-1.2-.6V39c.8.7 1.7 1 2.8 1c.9 0 1.6-.2 2.1-.7c.5-.5.8-1.2.8-2.1v-1.4c-.3.5-.7.8-1.2 1.1c-.5.3-1 .4-1.6.4c-.7 0-1.4-.2-1.9-.5c-.6-.4-1.1-.9-1.4-1.6c-.3-.6-.5-1.4-.5-2.3zm1.5 0c0 .7.1 1.3.4 1.8c.2.4.5.8.9 1.1c.4.2.8.4 1.3.4c.5 0 1-.2 1.5-.6c.4-.4.8-.9 1-1.4v-2.5c-.2-.6-.6-1.1-1-1.5c-.5-.4-1-.6-1.5-.6c-.5 0-.9.2-1.3.4c-.4.3-.7.7-1 1.2c-.2.5-.3 1-.3 1.7zm11.3 2.4c.8.9 1.7 1.3 2.8 1.3c.6 0 1.1-.1 1.4-.4c.3-.2.5-.5.5-.9c0-.3-.1-.6-.3-.8c-.1-.2-.5-.4-1-.6l-1.2-.5c-.7-.3-1.2-.7-1.6-1.1c-.3-.4-.5-.8-.5-1.4c0-.4.1-.8.4-1.2c.2-.4.5-.6 1-.9c.4-.2.9-.3 1.6-.3c.5 0 1 .1 1.5.3c.4.2.8.4 1.1.7v1.5c-.3-.4-.8-.8-1.2-1c-.5-.2-1-.3-1.4-.3c-.5 0-.9.1-1.2.3c-.3.2-.4.5-.4.8c0 .3.1.5.3.7c.2.2.6.4 1.1.6l1.1.5c.7.3 1.3.6 1.6 1c.3.5.5 1 .5 1.6c0 .8-.3 1.4-.9 1.8c-.6.5-1.4.7-2.4.7c-.6 0-1.1 0-1.6-.2c-.5-.2-.9-.4-1.2-.7v-1.5zm6.5-2.4c0-.8.2-1.6.5-2.2c.3-.7.8-1.2 1.4-1.6c.6-.4 1.3-.6 2-.6c1.2 0 2.1.4 2.8 1.2c.7.8 1 1.9 1 3.3v.6h-6.3c.1.9.3 1.6.8 2.2c.5.5 1.1.8 1.9.8c1.2 0 2.3-.4 3.1-1.3v1.4c-.4.3-.8.6-1.3.8c-.5.2-1.1.2-1.8.2c-.8 0-1.6-.1-2.2-.5c-.6-.4-1.1-.9-1.4-1.6c-.3-.7-.5-1.4-.5-2.3v-.4zm6.3-.4c0-.9-.2-1.7-.7-2.1c-.4-.5-1-.8-1.6-.8c-.5 0-.9.2-1.3.4c-.3.2-.6.6-.9 1c-.2.4-.3.9-.4 1.5h4.9zm2.5 5v-8.7h1.2s.14 1.73.1 1.7c.4-.5.8-1 1.3-1.4c.6-.4 1.2-.6 1.9-.6c.9 0 1.6.3 2.1.9c.5.5.7 1.3.7 2.4c.03-.04 0 5.7 0 5.7h-1.4v-5.6c0-.8-.1-1.3-.4-1.7c-.2-.3-.7-.5-1.3-.5c-.4 0-.8.1-1.2.3c-.4.3-.7.6-1 1c-.3.5-.5.9-.6 1.4c-.04-.05 0 5.1 0 5.1h-1.4zm8.5-2.2c.7.9 1.6 1.3 2.7 1.3c.6 0 1.1-.1 1.4-.4c.4-.2.5-.5.5-.9c0-.3-.1-.6-.2-.8c-.2-.2-.6-.4-1.1-.6l-1.1-.5c-.8-.3-1.3-.7-1.6-1.1c-.4-.4-.6-.8-.6-1.4c0-.4.2-.8.4-1.2c.2-.4.6-.6 1-.9c.4-.2 1-.3 1.6-.3c.5 0 1 .1 1.5.3c.5.2.9.4 1.2.7v1.5c-.4-.4-.8-.8-1.3-1c-.5-.2-.9-.3-1.4-.3c-.5 0-.9.1-1.2.3c-.2.2-.4.5-.4.8c0 .3.1.5.3.7c.3.2.6.4 1.1.6l1.1.5c.8.3 1.3.6 1.6 1c.4.5.5 1 .5 1.6c0 .8-.3 1.4-.9 1.8c-.6.5-1.4.7-2.4.7c-.6 0-1.1 0-1.6-.2c-.5-.2-.8-.4-1.1-.7v-1.5zm6.5-2.3c0-.9.1-1.6.5-2.3c.3-.7.8-1.2 1.4-1.6c.7-.4 1.4-.6 2.2-.6c.8 0 1.5.2 2.1.6c.6.4 1.1.9 1.4 1.6c.4.7.6 1.4.6 2.3v.3c0 .9-.2 1.6-.6 2.3c-.3.7-.8 1.2-1.4 1.6c-.6.4-1.3.5-2.1.5c-.8 0-1.5-.1-2.2-.5c-.6-.4-1.1-.9-1.4-1.6c-.4-.7-.5-1.4-.5-2.3v-.3zm1.4.3c0 1 .3 1.8.7 2.4c.5.6 1.1.9 2 .9c.8 0 1.4-.3 1.9-.9c.5-.6.7-1.4.7-2.4v-.3c0-1-.2-1.8-.7-2.4c-.5-.6-1.1-1-1.9-1c-.9 0-1.5.4-2 1c-.4.6-.7 1.4-.7 2.4v.3zm7.8 4.2v-8.7h1.3s.08 1.49.1 1.5c.2-.6.6-1 1-1.3c.5-.3 1-.5 1.6-.5c.1 0 .3 0 .5.1h.3v1.3c-.2-.1-.5-.1-.9-.1c-.5 0-1 .1-1.5.5c-.5.4-.8.9-1 1.5c.02.02 0 5.7 0 5.7H171zm9.8-7.6h-2v-1.1h2v-2.7h1.4v2.7h1.9v1.1h-1.9v7.6h-1.4v-7.6zm3.3 3c0-.8.1-1.6.5-2.2c.3-.7.8-1.2 1.3-1.6c.6-.4 1.3-.6 2.1-.6c1.2 0 2.1.4 2.7 1.2c.7.8 1 1.9 1 3.3c.04.02 0 .6 0 .6h-6.2c0 .9.3 1.6.8 2.2c.4.5 1.1.8 1.9.8c1.2 0 2.2-.4 3-1.3v1.4c-.3.3-.8.6-1.3.8c-.5.2-1 .2-1.7.2c-.9 0-1.6-.1-2.2-.5c-.7-.4-1.1-.9-1.4-1.6c-.4-.7-.5-1.4-.5-2.3v-.4zm6.2-.4c0-.9-.2-1.7-.6-2.1c-.4-.5-1-.8-1.7-.8c-.4 0-.9.2-1.2.4c-.4.2-.7.6-.9 1c-.2.4-.4.9-.4 1.5h4.8zm1.9.5c0-.9.2-1.6.5-2.3c.4-.7.9-1.2 1.5-1.6c.7-.4 1.4-.6 2.3-.6c.4 0 .9.1 1.4.3c.4.2.8.4 1.1.7v1.5c-.3-.4-.7-.8-1.1-1c-.5-.2-1-.3-1.5-.3c-.5 0-.9.1-1.4.4c-.4.3-.7.6-1 1.1c-.2.5-.4 1.1-.4 1.8v.2c0 .7.2 1.3.4 1.8c.3.5.6.9 1 1.2c.5.3.9.4 1.4.4c1 0 1.9-.4 2.6-1.3v1.5c-.3.3-.7.5-1.1.7c-.5.2-1 .2-1.5.2c-.8 0-1.5-.2-2.2-.5c-.6-.4-1.1-1-1.5-1.6c-.3-.7-.5-1.5-.5-2.3v-.3zm7.9 4.5V25.2h1.5s-.05 5.3 0 5.3c.3-.5.7-1 1.2-1.4c.6-.4 1.2-.6 1.8-.6c1 0 1.7.3 2.2.9c.5.5.7 1.3.7 2.4v5.7h-1.4v-5.6c0-.8-.1-1.3-.4-1.7c-.2-.3-.7-.5-1.3-.5c-.4 0-.8.1-1.2.3c-.4.3-.7.6-1 1c-.3.4-.5.8-.6 1.3c-.05 0 0 5.2 0 5.2h-1.5zm8.9 0v-8.7h1.3l.1 1.7c.3-.5.7-1 1.3-1.4c.5-.4 1.1-.6 1.8-.6c.9 0 1.6.3 2.1.9c.5.5.8 1.3.8 2.4c-.02-.04 0 5.7 0 5.7H215s-.04-5.63 0-5.6c0-.8-.2-1.3-.4-1.7c-.3-.3-.7-.5-1.3-.5c-.4 0-.8.1-1.2.3c-.4.3-.7.6-1.1 1c-.3.5-.5.9-.6 1.4c.02-.05 0 5.1 0 5.1H209zm8.2-4.5c0-.9.2-1.6.6-2.3c.3-.7.8-1.2 1.4-1.6c.6-.4 1.4-.6 2.1-.6c.8 0 1.6.2 2.2.6c.6.4 1.1.9 1.4 1.6c.4.7.5 1.4.5 2.3v.3c0 .9-.1 1.6-.5 2.3c-.3.7-.8 1.2-1.4 1.6c-.6.4-1.4.5-2.2.5c-.7 0-1.5-.1-2.1-.5c-.6-.4-1.1-.9-1.4-1.6c-.4-.7-.6-1.4-.6-2.3v-.3zm1.5.3c0 1 .3 1.8.7 2.4c.5.6 1.1.9 1.9.9c.9 0 1.5-.3 2-.9c.4-.6.7-1.4.7-2.4v-.3c0-1-.3-1.8-.7-2.4c-.5-.6-1.1-1-2-1c-.8 0-1.4.4-1.9 1c-.4.6-.7 1.4-.7 2.4v.3zm9.2 4.2h-1.4V25.2h1.4v12.3zm1-4.5c0-.9.2-1.6.6-2.3c.3-.7.8-1.2 1.4-1.6c.6-.4 1.4-.6 2.1-.6c.8 0 1.5.2 2.2.6c.6.4 1.1.9 1.4 1.6c.4.7.5 1.4.5 2.3v.3c0 .9-.1 1.6-.5 2.3c-.3.7-.8 1.2-1.4 1.6c-.7.4-1.4.5-2.2.5c-.7 0-1.5-.1-2.1-.5c-.6-.4-1.1-.9-1.4-1.6c-.4-.7-.6-1.4-.6-2.3v-.3zm1.5.3c0 1 .3 1.8.7 2.4c.5.6 1.1.9 1.9.9c.9 0 1.5-.3 2-.9c.4-.6.7-1.4.7-2.4v-.3c0-1-.3-1.8-.7-2.4c-.5-.6-1.1-1-2-1c-.8 0-1.4.4-1.9 1c-.4.6-.7 1.4-.7 2.4v.3zm7.3-.4c0-.9.2-1.6.5-2.3c.3-.7.8-1.2 1.4-1.5c.5-.4 1.2-.6 1.9-.6c.6 0 1.1.2 1.6.5c.5.2.9.6 1.2 1.1l.1-1.3h1.3v8.4c0 .8-.2 1.5-.5 2.1c-.4.6-.9 1.1-1.5 1.4c-.7.3-1.4.5-2.3.5c-.6 0-1.1-.1-1.6-.2c-.5-.1-.9-.3-1.3-.6V39c.9.7 1.8 1 2.9 1c.9 0 1.6-.2 2.1-.7c.5-.5.8-1.2.8-2.1v-1.4c-.3.5-.7.8-1.2 1.1c-.5.3-1 .4-1.6.4c-.7 0-1.4-.2-1.9-.5c-.6-.4-1.1-.9-1.4-1.6c-.3-.6-.5-1.4-.5-2.3zm1.5 0c0 .7.1 1.3.3 1.8c.3.4.6.8 1 1.1c.4.2.8.4 1.3.4c.5 0 1-.2 1.5-.6c.4-.4.8-.9 1-1.4v-2.5c-.2-.6-.6-1.1-1.1-1.5c-.4-.4-.9-.6-1.5-.6c-.4 0-.9.2-1.2.4c-.4.3-.7.7-1 1.2c-.2.5-.3 1-.3 1.7zm10.6 4.6l-3.5-8.7h1.6l2.6 7l2.7-7h1.5L249.8 41h-1.5l1.5-3.5zm5.1 2h-1.2l.7-4.1h1.9l-1.4 4.1zm6.3-2V25.3s4.4.04 4.4 0c.8 0 1.5.2 2.1.5c.6.3 1.1.7 1.4 1.2c.4.5.5 1.1.5 1.7v.3c0 .9-.3 1.6-.9 2.2c-.6.6-1.4 1-2.5 1.1c.04.02 4.1 5.2 4.1 5.2h-1.9l-4-5.1h-1.7v5.1h-1.5zm4.2-6.3c.9 0 1.5-.2 2-.6c.5-.4.7-1 .7-1.6v-.3c0-.6-.2-1.2-.7-1.6c-.5-.4-1.1-.6-2-.6c.04.04-2.7 0-2.7 0v4.7s2.74-.05 2.7 0zm5.2 3.4c.4.6.9 1 1.5 1.4c.6.4 1.3.5 2 .5c.5 0 1-.1 1.4-.3c.4-.1.6-.4.8-.7c.2-.3.3-.7.3-1c0-.5-.1-.9-.4-1.3c-.3-.3-.8-.7-1.4-1l-1.7-.9c-.7-.4-1.3-.8-1.7-1.3c-.4-.5-.6-1.1-.6-1.9c0-.5.1-1 .4-1.5c.3-.5.7-.8 1.3-1.1c.5-.3 1.2-.4 1.9-.4c.6 0 1.2.1 1.8.4c.6.2 1.1.6 1.5.9v1.8c-.4-.6-.9-1-1.5-1.4c-.6-.3-1.2-.5-1.8-.5c-.6 0-1.1.2-1.5.5c-.4.3-.6.8-.6 1.3c0 .4.2.7.4 1c.3.3.7.6 1.4 1l1.6.9c.9.4 1.5.9 1.9 1.4c.4.6.6 1.2.6 2c0 .7-.2 1.2-.5 1.7c-.4.5-.8.9-1.4 1.2c-.7.3-1.4.4-2.2.4c-.8 0-1.4-.1-2.1-.4c-.6-.2-1-.5-1.4-.9v-1.8zm8.9 2.9V25.3s4.36.04 4.4 0c.8 0 1.5.2 2.1.5c.6.3 1.1.7 1.4 1.2c.3.5.5 1.1.5 1.8v.2c0 .7-.2 1.3-.5 1.8c-.3.5-.8.9-1.4 1.2c-.6.3-1.3.5-2.1.5c-.04-.02-2.9 0-2.9 0v5h-1.5zm4.2-6.2c.8 0 1.5-.2 2-.6c.4-.4.7-1 .7-1.7v-.2c0-.7-.3-1.2-.7-1.6c-.5-.5-1.2-.7-2-.7c0 .04-2.7 0-2.7 0v4.8s2.7-.04 2.7 0zm4.4 6.2h-1.5l4.6-12.2h1.5l4.6 12.2h-1.6l-1.3-3.5h-5l-1.3 3.5zm3.8-10.3l-2 5.6h4.1l-2.1-5.6zm8.8 10.3v-1s4.18-4.53 4.2-4.5c.5-.6.9-1.1 1.2-1.6c.2-.4.3-.9.3-1.5c0-.7-.2-1.2-.6-1.7c-.4-.4-1-.6-1.6-.6c-.7 0-1.2.1-1.7.5c-.5.3-.9.7-1.3 1.3v-1.8c.3-.3.7-.6 1.3-.9c.5-.2 1.1-.4 1.8-.4c.7 0 1.4.2 1.9.5c.6.3 1 .7 1.3 1.3c.3.5.4 1.1.4 1.7c0 .6-.1 1.1-.2 1.6c-.2.5-.5.9-.7 1.3c-.3.4-.7.8-1.2 1.4c-.02-.04-3 3.2-3 3.2h5.5v1.2h-7.6zm11.8-2.2c.7.9 1.7 1.3 2.8 1.3c.6 0 1-.1 1.4-.4c.3-.2.5-.5.5-.9c0-.3-.1-.6-.3-.8c-.2-.2-.5-.4-1-.6l-1.2-.5c-.7-.3-1.2-.7-1.6-1.1c-.3-.4-.5-.8-.5-1.4c0-.4.1-.8.4-1.2c.2-.4.5-.6 1-.9c.4-.2.9-.3 1.6-.3c.5 0 1 .1 1.5.3c.4.2.8.4 1.1.7v1.5c-.4-.4-.8-.8-1.2-1c-.5-.2-1-.3-1.4-.3c-.6 0-.9.1-1.2.3c-.3.2-.4.5-.4.8c0 .3.1.5.3.7c.2.2.6.4 1.1.6l1.1.5c.7.3 1.3.6 1.6 1c.3.5.5 1 .5 1.6c0 .8-.3 1.4-.9 1.8c-.6.5-1.4.7-2.4.7c-.6 0-1.1 0-1.6-.2c-.5-.2-.9-.4-1.2-.7v-1.5zm6.5-2.4c0-.8.2-1.6.5-2.2c.3-.7.8-1.2 1.4-1.6c.6-.4 1.3-.6 2-.6c1.2 0 2.1.4 2.8 1.2c.7.8 1 1.9 1 3.3v.6h-6.3c.1.9.3 1.6.8 2.2c.5.5 1.1.8 1.9.8c1.2 0 2.3-.4 3.1-1.3v1.4c-.4.3-.8.6-1.3.8c-.5.2-1.1.2-1.8.2c-.9 0-1.6-.1-2.2-.5c-.6-.4-1.1-.9-1.4-1.6c-.3-.7-.5-1.4-.5-2.3v-.4zm6.3-.4c0-.9-.3-1.7-.7-2.1c-.4-.5-1-.8-1.7-.8c-.4 0-.8.2-1.2.4c-.3.2-.6.6-.9 1c-.2.4-.3.9-.4 1.5h4.9zm1.8 2.7c0-.6.2-1.1.5-1.5c.3-.4.6-.6 1.1-.9c.5-.2 1.2-.3 2.1-.5l2.2-.4c0-.7-.2-1.3-.6-1.7c-.4-.4-1-.6-1.7-.6c-.6 0-1.1.2-1.6.4c-.5.3-.9.6-1.3 1v-1.4c.4-.3.8-.5 1.3-.8c.5-.2 1.1-.3 1.7-.3c1.1 0 2 .3 2.6.9c.7.5 1 1.4 1 2.5c-.02-.03 0 5.6 0 5.6h-1.1s-.28-1.34-.3-1.3c-.4.5-.9.9-1.4 1.1c-.6.3-1.2.4-1.8.4c-.8 0-1.5-.2-2-.6c-.4-.5-.7-1.1-.7-1.9zm1.4-.1c0 .5.2.9.5 1.1c.2.3.6.4 1.1.4c.5 0 1.1-.2 1.6-.5c.6-.4 1-.8 1.3-1.4c-.01-.03 0-1.7 0-1.7c0 0-1.47.26-1.5.3c-.8.1-1.4.2-1.8.4c-.4.1-.7.3-.9.5c-.2.3-.3.6-.3.9zm7.4 2.4v-8.7h1.3s.11 1.49.1 1.5c.3-.6.6-1 1-1.3c.5-.3 1-.5 1.6-.5c.2 0 .3 0 .5.1h.3v1.3c-.2-.1-.5-.1-.9-.1c-.5 0-1 .1-1.5.5c-.4.4-.8.9-1 1.5c.04.02 0 5.7 0 5.7h-1.4zm4.8-4.5c0-.9.2-1.6.5-2.3c.4-.7.9-1.2 1.6-1.6c.6-.4 1.4-.6 2.2-.6c.5 0 .9.1 1.4.3c.4.2.8.4 1.2.7v1.5c-.4-.4-.8-.8-1.2-1c-.5-.2-.9-.3-1.4-.3c-.5 0-1 .1-1.4.4c-.5.3-.8.6-1.1 1.1c-.2.5-.3 1.1-.3 1.8v.2c0 .7.1 1.3.4 1.8c.2.5.5.9 1 1.2c.4.3.9.4 1.4.4c1 0 1.8-.4 2.6-1.3v1.5c-.4.3-.8.5-1.2.7c-.5.2-1 .2-1.4.2c-.9 0-1.6-.2-2.2-.5c-.7-.4-1.2-1-1.6-1.6c-.3-.7-.5-1.5-.5-2.3v-.3zm8 4.5V25.2h1.4s-.02 5.3 0 5.3c.3-.5.7-1 1.3-1.4c.5-.4 1.1-.6 1.8-.6c.9 0 1.6.3 2.1.9c.5.5.7 1.3.7 2.4c.03-.04 0 5.7 0 5.7h-1.4s.02-5.63 0-5.6c0-.8-.1-1.3-.4-1.7c-.2-.3-.6-.5-1.2-.5c-.4 0-.8.1-1.2.3c-.4.3-.8.6-1.1 1c-.3.4-.5.8-.6 1.3c-.02 0 0 5.2 0 5.2h-1.4zm8.2-4.6c0-.8.2-1.6.5-2.2c.3-.7.8-1.2 1.4-1.6c.6-.4 1.2-.6 2-.6c1.2 0 2.1.4 2.8 1.2c.6.8 1 1.9 1 3.3c-.03.02 0 .6 0 .6h-6.3c.1.9.3 1.6.8 2.2c.5.5 1.1.8 1.9.8c1.2 0 2.2-.4 3.1-1.3v1.4c-.4.3-.8.6-1.3.8c-.5.2-1.1.2-1.8.2c-.9 0-1.6-.1-2.2-.5c-.6-.4-1.1-.9-1.4-1.6c-.3-.7-.5-1.4-.5-2.3v-.4zm6.3-.4c0-.9-.3-1.7-.7-2.1c-.4-.5-1-.8-1.7-.8c-.4 0-.8.2-1.2.4c-.4.2-.7.6-.9 1c-.2.4-.3.9-.4 1.5h4.9zm2.1 2.8c.7.9 1.6 1.3 2.7 1.3c.6 0 1.1-.1 1.4-.4c.4-.2.5-.5.5-.9c0-.3-.1-.6-.2-.8c-.2-.2-.5-.4-1-.6l-1.2-.5c-.7-.3-1.3-.7-1.6-1.1c-.4-.4-.5-.8-.5-1.4c0-.4.1-.8.3-1.2c.2-.4.6-.6 1-.9c.5-.2 1-.3 1.6-.3c.5 0 1 .1 1.5.3c.5.2.9.4 1.2.7v1.5c-.4-.4-.8-.8-1.3-1c-.4-.2-.9-.3-1.4-.3c-.5 0-.9.1-1.2.3c-.2.2-.3.5-.3.8c0 .3.1.5.3.7c.2.2.5.4 1 .6l1.2.5c.7.3 1.2.6 1.5 1c.4.5.5 1 .5 1.6c0 .8-.3 1.4-.9 1.8c-.6.5-1.4.7-2.4.7c-.6 0-1.1 0-1.6-.2c-.4-.2-.8-.4-1.1-.7v-1.5zm9.5-5.4v-1.1h1.8s-.01-.9 0-.9c0-.5.1-1 .3-1.5c.2-.4.5-.8.9-1.1c.4-.2.9-.4 1.5-.4c.4 0 .8.1 1.1.3v1.2c-.2-.2-.6-.3-1-.3c-.4 0-.8.1-1 .5c-.3.3-.4.7-.4 1.3c.01.02 0 .9 0 .9h2.1v1.1H378v7.6h-1.4v-7.6h-1.8zm5.4 3.1c0-.9.1-1.6.5-2.3c.3-.7.8-1.2 1.4-1.6c.7-.4 1.4-.6 2.2-.6c.8 0 1.5.2 2.1.6c.6.4 1.1.9 1.4 1.6c.4.7.6 1.4.6 2.3v.3c0 .9-.2 1.6-.6 2.3c-.3.7-.8 1.2-1.4 1.6c-.6.4-1.3.5-2.1.5c-.8 0-1.5-.1-2.2-.5c-.6-.4-1.1-.9-1.4-1.6c-.4-.7-.5-1.4-.5-2.3v-.3zm1.4.3c0 1 .3 1.8.7 2.4c.5.6 1.1.9 2 .9c.8 0 1.4-.3 1.9-.9c.5-.6.7-1.4.7-2.4v-.3c0-1-.2-1.8-.7-2.4c-.5-.6-1.1-1-1.9-1c-.9 0-1.5.4-2 1c-.4.6-.7 1.4-.7 2.4v.3zm7.8 4.2v-8.7h1.3s.08 1.49.1 1.5c.2-.6.6-1 1-1.3c.5-.3 1-.5 1.6-.5c.1 0 .3 0 .5.1h.3v1.3c-.2-.1-.5-.1-.9-.1c-.5 0-1.1.1-1.5.5c-.5.4-.8.9-1 1.5v5.7h-1.4z" stroke="none" fill="#fff"/></g><g id="Polygon8539"><path d="m14.3 13.5H7.1V1.3h1.5v11h5.7v1.2zm0-4.6c0-.8.2-1.6.5-2.2c.3-.7.8-1.2 1.4-1.6c.6-.4 1.2-.6 2-.6c1.2 0 2.1.4 2.8 1.2c.6.8 1 1.9 1 3.3c-.03.02 0 .6 0 .6h-6.3c.1.9.3 1.6.8 2.2c.5.5 1.1.8 1.9.8c1.2 0 2.2-.4 3.1-1.3v1.4c-.4.3-.8.6-1.3.8c-.5.2-1.1.2-1.8.2c-.9 0-1.6-.1-2.2-.5c-.6-.4-1.1-.9-1.4-1.6c-.3-.7-.5-1.4-.5-2.3v-.4zm6.3-.4c0-.9-.3-1.7-.7-2.1c-.4-.5-1-.8-1.7-.8c-.4 0-.8.2-1.2.4c-.4.2-.7.6-.9 1c-.2.4-.4.9-.4 1.5h4.9zm3.3-2.6H22V4.8h1.9V2.1h1.4v2.7h1.9v1.1h-1.9v7.6h-1.4V5.9zm3.6 5.4c.7.9 1.6 1.3 2.7 1.3c.6 0 1.1-.1 1.4-.4c.3-.2.5-.5.5-.9c0-.3-.1-.6-.2-.8c-.2-.2-.6-.4-1.1-.6l-1.1-.5c-.8-.3-1.3-.7-1.6-1.1c-.4-.4-.6-.8-.6-1.4c0-.4.2-.8.4-1.2c.2-.4.5-.6 1-.9c.4-.2 1-.3 1.6-.3c.5 0 1 .1 1.5.3c.5.2.9.4 1.2.7v1.5c-.4-.4-.9-.8-1.3-1c-.5-.2-.9-.3-1.4-.3c-.5 0-.9.1-1.2.3c-.2.2-.4.5-.4.8c0 .3.1.5.3.7c.3.2.6.4 1.1.6l1.1.5c.8.3 1.3.6 1.6 1c.4.5.5 1 .5 1.6c0 .8-.3 1.4-.9 1.8c-.6.5-1.4.7-2.4.7c-.6 0-1.1 0-1.6-.2c-.5-.2-.8-.4-1.1-.7v-1.5zm13 2.2l-3.4-8.7h1.5l2.7 7l2.7-7h1.4L40.5 17H39l1.5-3.5zM45.4 9c0-.9.2-1.6.5-2.3c.3-.7.8-1.2 1.5-1.6c.6-.4 1.3-.6 2.1-.6c.8 0 1.5.2 2.1.6c.6.4 1.1.9 1.4 1.6c.4.7.6 1.4.6 2.3v.3c0 .9-.2 1.6-.6 2.3c-.3.7-.8 1.2-1.4 1.6c-.6.4-1.3.5-2.1.5c-.8 0-1.5-.1-2.1-.5c-.7-.4-1.2-.9-1.5-1.6c-.3-.7-.5-1.4-.5-2.3v-.3zm1.4.3c0 1 .3 1.8.8 2.4c.4.6 1.1.9 1.9.9c.8 0 1.4-.3 1.9-.9c.5-.6.7-1.4.7-2.4v-.3c0-1-.2-1.8-.7-2.4c-.5-.6-1.1-1-1.9-1c-.8 0-1.5.4-1.9 1c-.5.6-.8 1.4-.8 2.4v.3zm7.7 1.2c0 1.1.2 1.9.7 2.4c.5.6 1.2.8 2.1.8c.7 0 1.3-.2 1.8-.5c.6-.4 1-.9 1.3-1.5c.03.04.1 1.8.1 1.8h1.3V4.8h-1.4s.02 5.12 0 5.1c-.1.5-.3.9-.6 1.3c-.3.5-.7.8-1.1 1c-.4.3-.8.4-1.2.4c-.6 0-1-.2-1.2-.6c-.3-.3-.4-.9-.4-1.6c-.03 0 0-5.6 0-5.6h-1.4s-.03 5.71 0 5.7zM67 17V4.8h1.3l.1 1.4c.3-.5.7-.9 1.2-1.2c.5-.3 1-.5 1.6-.5c.8 0 1.4.2 2 .6c.6.4 1 .9 1.4 1.6c.3.7.5 1.5.5 2.4c0 .9-.2 1.8-.5 2.5c-.4.7-.8 1.2-1.4 1.6c-.6.4-1.2.5-2 .5c-.5 0-1.1-.1-1.6-.4c-.5-.3-.9-.6-1.2-1.1c.02-.01 0 4.8 0 4.8H67zm1.4-6.5c.2.6.6 1.1 1.1 1.5c.4.4.9.6 1.5.6c.5 0 .9-.1 1.3-.4c.4-.3.7-.7 1-1.2c.2-.6.3-1.2.3-1.9c0-.7-.1-1.3-.3-1.8c-.3-.5-.6-.9-1-1.2c-.4-.3-.8-.5-1.3-.5c-.5 0-1.1.2-1.5.6c-.5.4-.9.9-1.1 1.5v2.8zm7.1.7c0-.6.1-1.1.5-1.5c.2-.4.6-.6 1.1-.9c.5-.2 1.2-.3 2.1-.5l2.1-.4c0-.7-.2-1.3-.5-1.7c-.4-.4-1-.6-1.8-.6c-.5 0-1.1.2-1.6.4c-.4.3-.9.6-1.2 1V5.6c.3-.3.7-.5 1.3-.8c.5-.2 1.1-.3 1.7-.3c1.1 0 2 .3 2.6.9c.6.5 1 1.4 1 2.5c-.05-.03 0 5.6 0 5.6h-1.2l-.2-1.3c-.4.5-.9.9-1.4 1.1c-.6.3-1.2.4-1.8.4c-.8 0-1.5-.2-2-.6c-.5-.5-.7-1.1-.7-1.9zm1.4-.1c0 .5.2.9.4 1.1c.3.3.7.4 1.1.4c.6 0 1.1-.2 1.7-.5c.5-.4 1-.8 1.3-1.4c-.04-.03 0-1.7 0-1.7c0 0-1.49.26-1.5.3c-.8.1-1.4.2-1.8.4c-.4.1-.7.3-.9.5c-.2.3-.3.6-.3.9zm7.4 2.4V4.8h1.3s.08 1.49.1 1.5c.2-.6.6-1 1-1.3c.5-.3 1-.5 1.6-.5c.1 0 .3 0 .5.1h.3v1.3c-.2-.1-.5-.1-.9-.1c-.5 0-1.1.1-1.5.5c-.5.4-.8.9-1 1.5v5.7h-1.4zm6.8 0h-1.4V1.2h1.4v7.5l4-3.9h1.8L92.5 9l4.7 4.5h-1.9l-4.2-4v4zm11.6-10.2h-1.4V1.6h1.4v1.7zm0 10.2h-1.4V4.8h1.4v8.7zm1.7 0V4.8h1.3s.08 1.73.1 1.7c.3-.5.7-1 1.3-1.4c.5-.4 1.1-.6 1.8-.6c.9 0 1.6.3 2.1.9c.5.5.8 1.3.8 2.4c-.04-.04 0 5.7 0 5.7h-1.5s.04-5.63 0-5.6c0-.8-.1-1.3-.3-1.7c-.3-.3-.7-.5-1.3-.5c-.4 0-.8.1-1.2.3c-.4.3-.8.6-1.1 1c-.3.5-.5.9-.6 1.4v5.1h-1.4zM116.1 9c0-.9.2-1.6.6-2.3c.3-.7.8-1.2 1.4-1.6c.6-.4 1.4-.6 2.1-.6c.8 0 1.6.2 2.2.6c.6.4 1.1.9 1.4 1.6c.4.7.5 1.4.5 2.3v.3c0 .9-.1 1.6-.5 2.3c-.3.7-.8 1.2-1.4 1.6c-.6.4-1.4.5-2.2.5c-.7 0-1.5-.1-2.1-.5c-.6-.4-1.1-.9-1.4-1.6c-.4-.7-.6-1.4-.6-2.3v-.3zm1.5.3c0 1 .3 1.8.7 2.4c.5.6 1.1.9 1.9.9c.9 0 1.5-.3 2-.9c.4-.6.7-1.4.7-2.4v-.3c0-1-.3-1.8-.7-2.4c-.5-.6-1.1-1-2-1c-.8 0-1.4.4-1.9 1c-.4.6-.7 1.4-.7 2.4v.3zm7.8 4.2V4.8h1.3s.07 1.49.1 1.5c.2-.6.6-1 1-1.3c.4-.3 1-.5 1.6-.5c.1 0 .3 0 .4.1h.4v1.3c-.2-.1-.5-.1-.9-.1c-.6 0-1.1.1-1.5.5c-.5.4-.8.9-1 1.5v5.7h-1.4zm8.3-4.6c0-.8.1-1.6.5-2.2c.3-.7.8-1.2 1.3-1.6c.6-.4 1.3-.6 2.1-.6c1.2 0 2.1.4 2.7 1.2c.7.8 1 1.9 1 3.3c.05.02 0 .6 0 .6h-6.2c0 .9.3 1.6.8 2.2c.4.5 1.1.8 1.9.8c1.2 0 2.2-.4 3-1.3v1.4c-.3.3-.8.6-1.3.8c-.5.2-1 .2-1.7.2c-.9 0-1.6-.1-2.2-.5c-.7-.4-1.1-.9-1.4-1.6c-.4-.7-.5-1.4-.5-2.3v-.4zm6.2-.4c0-.9-.2-1.7-.6-2.1c-.4-.5-1-.8-1.7-.8c-.4 0-.9.2-1.2.4c-.4.2-.7.6-.9 1c-.2.4-.4.9-.4 1.5h4.8zm3 5h-1.5l3.3-4.6l-3-4.1h1.7l2.2 3.1l2.2-3.1h1.5l-3 4.1l3.3 4.6h-1.7l-2.5-3.5l-2.5 3.5zm8.7-10.2h-1.4V1.6h1.4v1.7zm0 10.2h-1.4V4.8h1.4v8.7zm2.6-7.6h-2V4.8h2V2.1h1.4v2.7h1.9v1.1h-1.9v7.6h-1.4V5.9zm6.8 5.3c0-.6.2-1.1.5-1.5c.2-.4.6-.6 1.1-.9c.5-.2 1.2-.3 2.1-.5l2.1-.4c0-.7-.2-1.3-.5-1.7c-.4-.4-1-.6-1.8-.6c-.5 0-1.1.2-1.5.4c-.5.3-1 .6-1.3 1V5.6c.3-.3.8-.5 1.3-.8c.5-.2 1.1-.3 1.7-.3c1.1 0 2 .3 2.6.9c.6.5 1 1.4 1 2.5c-.04-.03 0 5.6 0 5.6h-1.1l-.3-1.3c-.4.5-.9.9-1.4 1.1c-.6.3-1.2.4-1.8.4c-.8 0-1.5-.2-2-.6c-.5-.5-.7-1.1-.7-1.9zm1.4-.1c0 .5.2.9.4 1.1c.3.3.7.4 1.1.4c.6 0 1.1-.2 1.7-.5c.5-.4 1-.8 1.3-1.4c-.04-.03 0-1.7 0-1.7c0 0-1.49.26-1.5.3c-.8.1-1.4.2-1.8.4c-.4.1-.7.3-.9.5c-.2.3-.3.6-.3.9zm10.9 5.9V4.8h1.3s.12 1.38.1 1.4c.3-.5.7-.9 1.2-1.2c.5-.3 1.1-.5 1.7-.5c.7 0 1.3.2 1.9.6c.6.4 1 .9 1.4 1.6c.3.7.5 1.5.5 2.4c0 .9-.2 1.8-.5 2.5c-.4.7-.8 1.2-1.4 1.6c-.6.4-1.2.5-1.9.5c-.6 0-1.1-.1-1.6-.4c-.5-.3-.9-.6-1.3-1.1c.04-.01 0 4.8 0 4.8h-1.4zm1.4-6.5c.2.6.6 1.1 1.1 1.5c.5.4 1 .6 1.5.6c.5 0 .9-.1 1.3-.4c.4-.3.7-.7 1-1.2c.2-.6.3-1.2.3-1.9c0-.7-.1-1.3-.3-1.8c-.2-.5-.5-.9-.9-1.2c-.4-.3-.9-.5-1.4-.5c-.5 0-1 .2-1.5.6c-.5.4-.9.9-1.1 1.5v2.8zm7.1.7c0-.6.2-1.1.5-1.5c.2-.4.6-.6 1.1-.9c.5-.2 1.2-.3 2.1-.5l2.2-.4c-.1-.7-.3-1.3-.6-1.7c-.4-.4-1-.6-1.8-.6c-.5 0-1 .2-1.5.4c-.5.3-.9.6-1.3 1V5.6c.3-.3.8-.5 1.3-.8c.5-.2 1.1-.3 1.7-.3c1.1 0 2 .3 2.6.9c.7.5 1 1.4 1 2.5c-.03-.03 0 5.6 0 5.6H188s-.29-1.34-.3-1.3c-.4.5-.9.9-1.4 1.1c-.6.3-1.2.4-1.8.4c-.8 0-1.5-.2-2-.6c-.4-.5-.7-1.1-.7-1.9zm1.4-.1c0 .5.2.9.4 1.1c.3.3.7.4 1.2.4c.5 0 1-.2 1.6-.5c.5-.4 1-.8 1.3-1.4c-.02-.03 0-1.7 0-1.7c0 0-1.48.26-1.5.3c-.8.1-1.4.2-1.8.4c-.4.1-.7.3-.9.5c-.2.3-.3.6-.3.9zm7.4 2.4V4.8h1.3l.1 1.5c.2-.6.6-1 1-1.3c.5-.3 1-.5 1.6-.5c.2 0 .3 0 .5.1h.3v1.3c-.2-.1-.5-.1-.9-.1c-.5 0-1 .1-1.5.5c-.5.4-.8.9-1 1.5c.03.02 0 5.7 0 5.7h-1.4zm6.8 0H196V1.2h1.4v7.5l4-3.9h1.8L198.8 9l4.8 4.5h-2l-4.2-4v4zm8.1-10.2h-1.4V1.6h1.4v1.7zm0 10.2h-1.4V4.8h1.4v8.7zm1.7 0V4.8h1.3s.08 1.73.1 1.7c.3-.5.7-1 1.3-1.4c.5-.4 1.1-.6 1.8-.6c.9 0 1.6.3 2.1.9c.5.5.8 1.3.8 2.4c-.04-.04 0 5.7 0 5.7h-1.5s.04-5.63 0-5.6c0-.8-.1-1.3-.3-1.7c-.3-.3-.7-.5-1.3-.5c-.4 0-.8.1-1.2.3c-.4.3-.8.6-1.1 1c-.3.5-.5.9-.6 1.4v5.1h-1.4zm8.2-4.6c0-.9.2-1.6.5-2.3c.3-.7.8-1.2 1.3-1.5c.6-.4 1.3-.6 2-.6c.6 0 1.1.2 1.6.5c.5.2.9.6 1.2 1.1l.1-1.3h1.3v8.4c0 .8-.2 1.5-.5 2.1c-.4.6-.9 1.1-1.5 1.4c-.7.3-1.4.5-2.3.5c-.6 0-1.2-.1-1.6-.2c-.5-.1-.9-.3-1.3-.6V15c.9.7 1.8 1 2.9 1c.9 0 1.6-.2 2.1-.7c.5-.5.8-1.2.8-2.1v-1.4c-.3.5-.7.8-1.2 1.1c-.5.3-1 .4-1.6.4c-.7 0-1.4-.2-2-.5c-.5-.4-1-.9-1.3-1.6c-.3-.6-.5-1.4-.5-2.3zm1.5 0c0 .7.1 1.3.3 1.8c.3.4.6.8 1 1.1c.4.2.8.4 1.3.4c.5 0 1-.2 1.5-.6c.4-.4.8-.9 1-1.4V7.7c-.2-.6-.6-1.1-1.1-1.5c-.4-.4-.9-.6-1.5-.6c-.4 0-.9.2-1.2.4c-.4.3-.7.7-1 1.2c-.2.5-.3 1-.3 1.7zm11.3 2.4c.7.9 1.7 1.3 2.8 1.3c.6 0 1-.1 1.4-.4c.3-.2.5-.5.5-.9c0-.3-.1-.6-.3-.8c-.2-.2-.5-.4-1-.6l-1.2-.5c-.7-.3-1.2-.7-1.6-1.1c-.3-.4-.5-.8-.5-1.4c0-.4.1-.8.3-1.2c.3-.4.6-.6 1.1-.9c.4-.2.9-.3 1.6-.3c.5 0 1 .1 1.5.3c.4.2.8.4 1.1.7v1.5c-.4-.4-.8-.8-1.2-1c-.5-.2-1-.3-1.4-.3c-.6 0-1 .1-1.2.3c-.3.2-.4.5-.4.8c0 .3.1.5.3.7c.2.2.6.4 1.1.6l1.1.5c.7.3 1.3.6 1.6 1c.3.5.5 1 .5 1.6c0 .8-.3 1.4-.9 1.8c-.6.5-1.4.7-2.4.7c-.6 0-1.1 0-1.6-.2c-.5-.2-.9-.4-1.2-.7v-1.5zm7.1 5.7V4.8h1.3s.14 1.38.1 1.4c.3-.5.7-.9 1.2-1.2c.5-.3 1.1-.5 1.7-.5c.7 0 1.3.2 1.9.6c.6.4 1.1.9 1.4 1.6c.3.7.5 1.5.5 2.4c0 .9-.2 1.8-.5 2.5c-.3.7-.8 1.2-1.4 1.6c-.6.4-1.2.5-1.9.5c-.6 0-1.1-.1-1.6-.4c-.5-.3-.9-.6-1.2-1.1c-.05-.01 0 4.8 0 4.8h-1.5zm1.5-6.5c.2.6.5 1.1 1 1.5c.5.4 1 .6 1.5.6c.5 0 1-.1 1.4-.4c.4-.3.7-.7.9-1.2c.2-.6.3-1.2.3-1.9c0-.7-.1-1.3-.3-1.8c-.2-.5-.5-.9-.9-1.2c-.4-.3-.9-.5-1.4-.5c-.5 0-1 .2-1.5.6c-.5.4-.8.9-1 1.5v2.8zM244 9c0-.9.2-1.6.5-2.3c.3-.7.8-1.2 1.5-1.6c.6-.4 1.3-.6 2.1-.6c.8 0 1.5.2 2.1.6c.6.4 1.1.9 1.5 1.6c.3.7.5 1.4.5 2.3v.3c0 .9-.2 1.6-.5 2.3c-.4.7-.9 1.2-1.5 1.6c-.6.4-1.3.5-2.1.5c-.8 0-1.5-.1-2.1-.5c-.7-.4-1.2-.9-1.5-1.6c-.3-.7-.5-1.4-.5-2.3v-.3zm1.5.3c0 1 .2 1.8.7 2.4c.4.6 1.1.9 1.9.9c.8 0 1.4-.3 1.9-.9c.5-.6.7-1.4.7-2.4v-.3c0-1-.2-1.8-.7-2.4c-.5-.6-1.1-1-1.9-1c-.8 0-1.5.4-1.9 1c-.5.6-.7 1.4-.7 2.4v.3zm8.5-3.4h-1.9V4.8h1.9V2.1h1.4v2.7h1.9v1.1h-1.9v7.6H254V5.9zm6.8 5.3c0-.6.2-1.1.5-1.5c.3-.4.6-.6 1.1-.9c.5-.2 1.2-.3 2.1-.5l2.2-.4c0-.7-.2-1.3-.6-1.7c-.4-.4-1-.6-1.7-.6c-.6 0-1.1.2-1.6.4c-.5.3-.9.6-1.3 1V5.6c.4-.3.8-.5 1.3-.8c.5-.2 1.1-.3 1.7-.3c1.1 0 2 .3 2.6.9c.7.5 1 1.4 1 2.5v5.6H267s-.26-1.34-.3-1.3c-.4.5-.8.9-1.4 1.1c-.5.3-1.1.4-1.8.4c-.8 0-1.5-.2-1.9-.6c-.5-.5-.8-1.1-.8-1.9zm1.5-.1c0 .5.1.9.4 1.1c.2.3.6.4 1.1.4c.5 0 1.1-.2 1.6-.5c.6-.4 1-.8 1.3-1.4V9s-1.45.26-1.5.3c-.8.1-1.4.2-1.8.4c-.4.1-.7.3-.9.5c-.1.3-.2.6-.2.9zm7 .2c.7.9 1.6 1.3 2.8 1.3c.5 0 1-.1 1.3-.4c.4-.2.6-.5.6-.9c0-.3-.1-.6-.3-.8c-.2-.2-.5-.4-1-.6l-1.2-.5c-.7-.3-1.3-.7-1.6-1.1c-.4-.4-.5-.8-.5-1.4c0-.4.1-.8.3-1.2c.2-.4.6-.6 1-.9c.5-.2 1-.3 1.6-.3c.6 0 1.1.1 1.5.3c.5.2.9.4 1.2.7v1.5c-.4-.4-.8-.8-1.3-1c-.4-.2-.9-.3-1.4-.3c-.5 0-.9.1-1.1.3c-.3.2-.4.5-.4.8c0 .3.1.5.3.7c.2.2.5.4 1 .6l1.2.5c.7.3 1.2.6 1.6 1c.3.5.5 1 .5 1.6c0 .8-.3 1.4-1 1.8c-.6.5-1.4.7-2.3.7c-.6 0-1.2 0-1.6-.2c-.5-.2-.9-.4-1.2-.7v-1.5zm13.1 2.2l-3.5-8.7h1.5l2.7 7l2.7-7h1.4L282.4 17h-1.5l1.5-3.5zm4.8-4.5c0-.9.2-1.6.5-2.3c.4-.7.9-1.2 1.5-1.6c.6-.4 1.3-.6 2.1-.6c.8 0 1.5.2 2.1.6c.7.4 1.1.9 1.5 1.6c.3.7.5 1.4.5 2.3v.3c0 .9-.2 1.6-.5 2.3c-.4.7-.8 1.2-1.5 1.6c-.6.4-1.3.5-2.1.5c-.8 0-1.5-.1-2.1-.5c-.6-.4-1.1-.9-1.5-1.6c-.3-.7-.5-1.4-.5-2.3v-.3zm1.5.3c0 1 .2 1.8.7 2.4c.5.6 1.1.9 1.9.9c.8 0 1.5-.3 1.9-.9c.5-.6.8-1.4.8-2.4v-.3c0-1-.3-1.8-.8-2.4c-.4-.6-1.1-1-1.9-1c-.8 0-1.4.4-1.9 1c-.5.6-.7 1.4-.7 2.4v.3zm7.6 1.2c0 1.1.2 1.9.7 2.4c.5.6 1.2.8 2.2.8c.6 0 1.2-.2 1.8-.5c.5-.4 1-.9 1.3-1.5c-.03.04.1 1.8.1 1.8h1.3V4.8h-1.4s-.04 5.12 0 5.1c-.2.5-.4.9-.7 1.3c-.3.5-.6.8-1 1c-.4.3-.8.4-1.2.4c-.6 0-1-.2-1.3-.6c-.3-.3-.4-.9-.4-1.6V4.8h-1.4v5.7zm12.2.8c.7.9 1.6 1.3 2.8 1.3c.5 0 1-.1 1.3-.4c.4-.2.6-.5.6-.9c0-.3-.1-.6-.3-.8c-.2-.2-.5-.4-1-.6l-1.2-.5c-.7-.3-1.3-.7-1.6-1.1c-.4-.4-.5-.8-.5-1.4c0-.4.1-.8.3-1.2c.2-.4.6-.6 1-.9c.5-.2 1-.3 1.6-.3c.6 0 1.1.1 1.5.3c.5.2.9.4 1.2.7v1.5c-.4-.4-.8-.8-1.3-1c-.4-.2-.9-.3-1.4-.3c-.5 0-.9.1-1.1.3c-.3.2-.4.5-.4.8c0 .3.1.5.3.7c.2.2.5.4 1 .6l1.2.5c.7.3 1.2.6 1.6 1c.3.5.5 1 .5 1.6c0 .8-.3 1.4-1 1.8c-.6.5-1.4.7-2.3.7c-.6 0-1.2 0-1.6-.2c-.5-.2-.9-.4-1.2-.7v-1.5zm8-5.4h-2V4.8h2V2.1h1.4v2.7h1.9v1.1h-1.9v7.6h-1.4V5.9zm3.3 5.3c0-.6.1-1.1.5-1.5c.2-.4.6-.6 1.1-.9c.5-.2 1.2-.3 2.1-.5l2.1-.4c0-.7-.2-1.3-.6-1.7c-.3-.4-.9-.6-1.7-.6c-.5 0-1.1.2-1.6.4c-.5.3-.9.6-1.2 1V5.6c.3-.3.7-.5 1.3-.8c.5-.2 1-.3 1.7-.3c1.1 0 1.9.3 2.6.9c.6.5.9 1.4.9 2.5c.04-.03 0 5.6 0 5.6h-1.1s-.22-1.34-.2-1.3c-.4.5-.9.9-1.5 1.1c-.5.3-1.1.4-1.8.4c-.8 0-1.4-.2-1.9-.6c-.5-.5-.7-1.1-.7-1.9zm1.4-.1c0 .5.1.9.4 1.1c.3.3.7.4 1.1.4c.6 0 1.1-.2 1.7-.5c.5-.4.9-.8 1.2-1.4c.05-.03 0-1.7 0-1.7c0 0-1.41.26-1.4.3c-.8.1-1.4.2-1.8.4c-.4.1-.7.3-.9.5c-.2.3-.3.6-.3.9zm7.4 2.4V4.8h1.3s.08 1.73.1 1.7c.3-.5.7-1 1.3-1.4c.5-.4 1.1-.6 1.8-.6c.9 0 1.6.3 2.1.9c.5.5.8 1.3.8 2.4c-.03-.04 0 5.7 0 5.7h-1.5s.04-5.63 0-5.6c0-.8-.1-1.3-.3-1.7c-.3-.3-.7-.5-1.3-.5c-.4 0-.8.1-1.2.3c-.4.3-.8.6-1.1 1c-.3.5-.5.9-.6 1.4v5.1h-1.4zm8.2-4.4c0-.9.2-1.7.5-2.4c.4-.7.8-1.2 1.4-1.6c.6-.4 1.2-.6 2-.6c.5 0 1.1.2 1.5.5c.5.2 1 .6 1.3 1.1c-.03-.04 0-4.9 0-4.9h1.4v12.3h-1.3s-.11-1.36-.1-1.4c-.3.5-.7.9-1.2 1.2c-.5.3-1.1.4-1.6.4c-.8 0-1.4-.1-2-.5c-.6-.4-1-.9-1.4-1.6c-.3-.7-.5-1.6-.5-2.5zm1.5 0c0 .7.1 1.4.3 1.9c.3.5.6.9 1 1.2c.4.3.8.4 1.3.4c.5 0 1-.2 1.5-.6c.5-.4.8-.9 1.1-1.4V7.7c-.3-.6-.6-1.1-1.1-1.5c-.5-.4-1-.6-1.5-.6c-.5 0-.9.2-1.3.5c-.4.3-.7.7-1 1.2c-.2.5-.3 1.1-.3 1.8zm11.1-.1c0-.9.2-1.6.6-2.3c.3-.7.8-1.2 1.4-1.6c.6-.4 1.3-.6 2.1-.6c.8 0 1.5.2 2.2.6c.6.4 1.1.9 1.4 1.6c.4.7.5 1.4.5 2.3v.3c0 .9-.1 1.6-.5 2.3c-.3.7-.8 1.2-1.4 1.6c-.7.4-1.4.5-2.2.5c-.8 0-1.5-.1-2.1-.5c-.6-.4-1.1-.9-1.4-1.6c-.4-.7-.6-1.4-.6-2.3v-.3zm1.5.3c0 1 .2 1.8.7 2.4c.5.6 1.1.9 1.9.9c.9 0 1.5-.3 2-.9c.4-.6.7-1.4.7-2.4v-.3c0-1-.3-1.8-.7-2.4c-.5-.6-1.1-1-2-1c-.8 0-1.4.4-1.9 1c-.5.6-.7 1.4-.7 2.4v.3zm7.6 1.2c0 1.1.3 1.9.8 2.4c.5.6 1.2.8 2.1.8c.7 0 1.3-.2 1.8-.5c.5-.4 1-.9 1.3-1.5c-.01.04.1 1.8.1 1.8h1.3V4.8h-1.4s-.02 5.12 0 5.1c-.1.5-.3.9-.6 1.3c-.3.5-.7.8-1.1 1c-.4.3-.8.4-1.2.4c-.6 0-1-.2-1.3-.6c-.2-.3-.4-.9-.4-1.6c.03 0 0-5.6 0-5.6h-1.4s.03 5.71 0 5.7zm9.9-4.6h-1.9V4.8h1.9V2.1h1.4v2.7h1.9v1.1h-1.9v7.6h-1.4V5.9zm3.6 5.4c.7.9 1.6 1.3 2.8 1.3c.5 0 1-.1 1.3-.4c.4-.2.5-.5.5-.9c0-.3 0-.6-.2-.8c-.2-.2-.5-.4-1-.6l-1.2-.5c-.7-.3-1.3-.7-1.6-1.1c-.4-.4-.5-.8-.5-1.4c0-.4.1-.8.3-1.2c.2-.4.6-.6 1-.9c.5-.2 1-.3 1.6-.3c.5 0 1 .1 1.5.3c.5.2.9.4 1.2.7v1.5c-.4-.4-.8-.8-1.3-1c-.4-.2-.9-.3-1.4-.3c-.5 0-.9.1-1.2.3c-.2.2-.3.5-.3.8c0 .3.1.5.3.7c.2.2.5.4 1 .6l1.2.5c.7.3 1.2.6 1.6 1c.3.5.4 1 .4 1.6c0 .8-.3 1.4-.9 1.8c-.6.5-1.4.7-2.3.7c-.6 0-1.2 0-1.7-.2c-.4-.2-.8-.4-1.1-.7v-1.5zm8.5-8h-1.4V1.6h1.4v1.7zm0 10.2h-1.4V4.8h1.4v8.7zm1-4.4c0-.9.2-1.7.5-2.4c.4-.7.8-1.2 1.4-1.6c.6-.4 1.3-.6 2-.6c.5 0 1.1.2 1.6.5c.5.2.9.6 1.2 1.1V1.2h1.4v12.3h-1.3l-.1-1.4c-.3.5-.7.9-1.2 1.2c-.5.3-1 .4-1.6.4c-.7 0-1.4-.1-2-.5c-.6-.4-1-.9-1.4-1.6c-.3-.7-.5-1.6-.5-2.5zm1.5 0c0 .7.1 1.4.4 1.9c.2.5.5.9.9 1.2c.4.3.8.4 1.3.4c.6 0 1.1-.2 1.5-.6c.5-.4.9-.9 1.1-1.4V7.7c-.2-.6-.6-1.1-1.1-1.5c-.4-.4-.9-.6-1.5-.6c-.5 0-.9.2-1.3.5c-.4.3-.7.7-.9 1.2c-.3.5-.4 1.1-.4 1.8zm7.6-.2c0-.8.2-1.6.5-2.2c.3-.7.8-1.2 1.4-1.6c.6-.4 1.3-.6 2-.6c1.2 0 2.1.4 2.8 1.2c.7.8 1 1.9 1 3.3v.6H392c.1.9.3 1.6.8 2.2c.5.5 1.1.8 1.9.8c1.2 0 2.3-.4 3.1-1.3v1.4c-.4.3-.8.6-1.3.8c-.5.2-1.1.2-1.8.2c-.8 0-1.6-.1-2.2-.5c-.6-.4-1.1-.9-1.4-1.6c-.3-.7-.5-1.4-.5-2.3v-.4zm6.3-.4c0-.9-.2-1.7-.7-2.1c-.4-.5-.9-.8-1.6-.8c-.5 0-.9.2-1.3.4c-.3.2-.6.6-.9 1c-.2.4-.3.9-.4 1.5h4.9zm6.8-2.6h-1.9V4.8h1.9V2.1h1.4v2.7h2v1.1h-2v7.6h-1.4V5.9zm4 7.6V1.2h1.4s-.03 5.3 0 5.3c.3-.5.7-1 1.3-1.4c.5-.4 1.1-.6 1.8-.6c.9 0 1.6.3 2.1.9c.5.5.7 1.3.7 2.4c.02-.04 0 5.7 0 5.7h-1.4V7.9c0-.8-.1-1.3-.4-1.7c-.2-.3-.7-.5-1.3-.5c-.3 0-.7.1-1.1.3c-.4.3-.8.6-1.1 1c-.3.4-.5.8-.6 1.3c-.03 0 0 5.2 0 5.2h-1.4zm8.2-4.6c0-.8.2-1.6.5-2.2c.3-.7.8-1.2 1.4-1.6c.6-.4 1.2-.6 2-.6c1.2 0 2.1.4 2.8 1.2c.6.8 1 1.9 1 3.3c-.03.02 0 .6 0 .6h-6.3c0 .9.3 1.6.8 2.2c.4.5 1.1.8 1.9.8c1.2 0 2.2-.4 3.1-1.3v1.4c-.4.3-.8.6-1.3.8c-.5.2-1.1.2-1.8.2c-.9 0-1.6-.1-2.2-.5c-.6-.4-1.1-.9-1.4-1.6c-.4-.7-.5-1.4-.5-2.3v-.4zm6.3-.4c-.1-.9-.3-1.7-.7-2.1c-.4-.5-1-.8-1.7-.8c-.4 0-.8.2-1.2.4c-.4.2-.7.6-.9 1c-.2.4-.4.9-.4 1.5h4.9z" stroke="none" fill="#fff"/></g></svg>