<?xml version="1.0" standalone="no"?><!DOCTYPE svg PUBLIC "-//W3C//DTD SVG 1.1//EN" "http://www.w3.org/Graphics/SVG/1.1/DTD/svg11.dtd"><svg xmlns="http://www.w3.org/2000/svg" version="1.1" width="553px" height="75.9px" viewBox="0 -6 553 75.9" style="top:-6px"><desc>텍스트 B</desc><defs/><g id="Polygon8328"><path d="m.9 47c0-1.2.2-2.3.7-3.2c.4-.9 1-1.6 1.8-2.1c.7-.5 1.6-.8 2.5-.8c.8 0 1.5.2 2.1.6c.7.4 1.2.9 1.6 1.5c.02-.04 0-6.4 0-6.4h1.9v16.1H9.8s-.16-1.76-.2-1.8c-.4.7-.9 1.2-1.5 1.6c-.7.3-1.4.5-2.2.5c-.9 0-1.8-.2-2.5-.7c-.8-.5-1.4-1.2-1.8-2.1c-.5-.9-.7-2-.7-3.2zm1.9 0c0 .9.2 1.7.5 2.4c.3.7.7 1.2 1.2 1.6c.5.4 1.1.6 1.7.6c.8 0 1.4-.3 2-.8c.7-.5 1.1-1.2 1.4-1.9v-3.8c-.3-.8-.7-1.4-1.4-1.9c-.6-.5-1.2-.8-1.9-.8c-.7 0-1.3.2-1.8.6c-.5.3-.9.9-1.2 1.6c-.3.6-.5 1.4-.5 2.4zm12.1 5.7V41.3h1.7s.12 1.95.1 2c.3-.8.8-1.3 1.4-1.7c.6-.5 1.2-.7 2-.7c.2 0 .4.1.6.1c.3 0 .4 0 .5.1v1.6c-.3-.1-.7-.1-1.2-.1c-.7 0-1.4.2-2 .7c-.6.5-1 1.1-1.2 2c-.04-.03 0 7.4 0 7.4h-1.9zm10.2-13.3h-1.9V37h1.9v2.4zm0 13.3h-1.9V41.3h1.9v11.4zm6.5 0l-4.4-11.4h2l3.5 9.4l3.5-9.4h1.8l-4.4 11.4h-2zm7.6-6c0-1.1.2-2.1.7-3c.4-.8 1-1.5 1.8-2c.8-.5 1.7-.8 2.7-.8c1.5 0 2.7.6 3.6 1.6c.9 1 1.3 2.4 1.3 4.3v.8h-8.2c0 1.2.4 2.1 1 2.8c.6.8 1.5 1.2 2.5 1.2c1.6 0 3-.6 4.1-1.8v1.9c-.5.4-1.1.7-1.8 1c-.6.2-1.4.3-2.3.3c-1.1 0-2.1-.2-2.9-.7c-.8-.5-1.4-1.2-1.8-2.1c-.5-.9-.7-1.9-.7-3v-.5zm8.3-.5c-.1-1.3-.3-2.2-.9-2.8c-.6-.7-1.3-1-2.2-1c-.6 0-1.1.2-1.6.5c-.5.3-.9.7-1.2 1.3c-.3.5-.5 1.2-.5 2h6.4zm9.5 3.5c0-.8.2-1.4.6-2c.4-.5.9-.8 1.5-1.1c.7-.3 1.6-.5 2.7-.7l2.9-.5c0-1-.3-1.8-.8-2.3c-.5-.5-1.2-.7-2.2-.7c-.8 0-1.5.2-2.1.5c-.7.3-1.2.8-1.7 1.3v-1.8c.5-.4 1-.8 1.7-1c.7-.3 1.4-.5 2.2-.5c1.5 0 2.6.4 3.5 1.1c.8.8 1.2 1.9 1.2 3.3c.05.03 0 7.4 0 7.4h-1.4s-.34-1.74-.3-1.7c-.6.6-1.2 1.1-1.9 1.5c-.7.4-1.5.5-2.4.5c-1 0-1.9-.3-2.5-.8c-.7-.6-1-1.5-1-2.5zm1.9-.1c0 .6.2 1.1.5 1.4c.4.4.9.5 1.5.5c.7 0 1.4-.2 2.1-.7c.8-.4 1.3-1 1.7-1.8c.02.01 0-2.2 0-2.2c0 0-1.89.36-1.9.4c-1 .1-1.8.3-2.4.5c-.5.2-.9.4-1.1.7c-.3.3-.4.7-.4 1.2zm10.9 3.1V41.3h1.7s.17 2.27.2 2.3c.4-.8 1-1.4 1.7-1.9c.7-.5 1.5-.8 2.4-.8c1.2 0 2.1.4 2.7 1.1c.7.8 1 1.8 1 3.2c.03-.02 0 7.5 0 7.5h-1.8s-.04-7.37 0-7.4c0-.9-.2-1.6-.5-2.1c-.4-.5-.9-.8-1.7-.8c-.5 0-1.1.2-1.6.5c-.5.4-1 .8-1.4 1.3c-.4.6-.7 1.2-.8 1.8c-.01-.04 0 6.7 0 6.7h-1.9zM81.9 47c0-1.2.2-2.3.7-3.2c.4-.9 1-1.6 1.8-2.1c.7-.5 1.6-.8 2.6-.8c.7 0 1.4.2 2 .6c.7.4 1.2.9 1.6 1.5c.04-.04 0-6.4 0-6.4h1.9v16.1h-1.7s-.14-1.76-.1-1.8c-.5.7-1 1.2-1.6 1.6c-.7.3-1.4.5-2.1.5c-1 0-1.9-.2-2.6-.7c-.8-.5-1.4-1.2-1.8-2.1c-.5-.9-.7-2-.7-3.2zm2 0c0 .9.1 1.7.4 2.4c.3.7.7 1.2 1.2 1.6c.5.4 1.1.6 1.8.6c.7 0 1.3-.3 2-.8c.6-.5 1-1.2 1.3-1.9v-3.8c-.3-.8-.7-1.4-1.3-1.9c-.7-.5-1.3-.8-2-.8c-.7 0-1.3.2-1.8.6c-.5.3-.9.9-1.2 1.6c-.3.6-.4 1.4-.4 2.4zm17.9 10.3v-16h1.7s.13 1.81.1 1.8c.4-.6 1-1.2 1.6-1.6c.7-.4 1.4-.6 2.2-.6c.9 0 1.8.3 2.5.8c.8.5 1.4 1.2 1.8 2.1c.5.9.7 2 .7 3.2c0 1.2-.2 2.3-.7 3.2c-.4.9-1 1.6-1.8 2.1c-.7.5-1.6.7-2.5.7c-.8 0-1.5-.1-2.1-.5c-.7-.4-1.2-.9-1.6-1.5c-.05 0 0 6.3 0 6.3h-1.9zm1.9-8.5c.2.8.7 1.5 1.3 2c.6.5 1.3.7 2 .7c.7 0 1.3-.1 1.8-.5c.5-.4.9-.9 1.2-1.6c.3-.7.5-1.5.5-2.4c0-1-.2-1.8-.5-2.4c-.3-.7-.7-1.3-1.2-1.6c-.5-.4-1.1-.6-1.7-.6c-.8 0-1.5.3-2.1.8c-.6.5-1.1 1.2-1.3 2v3.6zm10.5.9c0-.8.2-1.4.6-2c.4-.5.9-.8 1.5-1.1c.7-.3 1.6-.5 2.7-.7l2.9-.5c0-1-.3-1.8-.8-2.3c-.5-.5-1.2-.7-2.3-.7c-.7 0-1.4.2-2 .5c-.7.3-1.2.8-1.7 1.3v-1.8c.5-.4 1-.8 1.7-1c.7-.3 1.4-.5 2.2-.5c1.5 0 2.6.4 3.5 1.1c.8.8 1.2 1.9 1.2 3.3c.03.03 0 7.4 0 7.4h-1.4s-.35-1.74-.4-1.7c-.5.6-1.1 1.1-1.8 1.5c-.8.4-1.5.5-2.4.5c-1.1 0-1.9-.3-2.5-.8c-.7-.6-1-1.5-1-2.5zm1.9-.1c0 .6.1 1.1.5 1.4c.4.4.9.5 1.5.5c.7 0 1.4-.2 2.1-.7c.7-.4 1.3-1 1.7-1.8v-2.2s-1.91.36-1.9.4c-1.1.1-1.8.3-2.4.5c-.5.2-.9.4-1.2.7c-.2.3-.3.7-.3 1.2zm10.9 3.1V41.3h1.7s.13 1.95.1 2c.4-.8.8-1.3 1.4-1.7c.6-.5 1.3-.7 2.1-.7c.2 0 .4.1.6.1c.2 0 .3 0 .4.1v1.6c-.3-.1-.7-.1-1.1-.1c-.8 0-1.4.2-2 .7c-.6.5-1.1 1.1-1.3 2c-.02-.03 0 7.4 0 7.4H127zm10.2 0h-1.8V36.6h1.8v9.8l5.3-5.1h2.3l-5.8 5.5l6.3 5.9h-2.6l-5.5-5.2v5.2zm15.5-2.9c.9 1.2 2.1 1.7 3.6 1.7c.8 0 1.4-.1 1.8-.4c.5-.4.7-.8.7-1.3c0-.4-.1-.8-.4-1c-.2-.3-.6-.6-1.3-.9l-1.6-.6c-.9-.4-1.6-.8-2-1.4c-.5-.5-.7-1.1-.7-1.9c0-.5.1-1 .4-1.5c.3-.5.8-.9 1.3-1.1c.6-.3 1.3-.5 2.2-.5c.6 0 1.3.2 1.9.4c.6.3 1.1.6 1.6.9v2c-.6-.6-1.1-1-1.7-1.3c-.6-.3-1.2-.5-1.8-.5c-.7 0-1.2.2-1.6.5c-.3.3-.5.6-.5 1.1c0 .3.1.6.4.9c.3.2.7.5 1.4.7l1.5.7c.9.3 1.6.8 2.1 1.4c.4.5.6 1.2.6 2c0 1-.4 1.8-1.2 2.4c-.8.6-1.8.9-3.1.9c-.8 0-1.5-.1-2.1-.3c-.6-.3-1.1-.6-1.5-.9v-2zm9.8-.1c0-.8.2-1.4.6-2c.3-.5.8-.8 1.5-1.1c.6-.3 1.5-.5 2.7-.7l2.8-.5c0-1-.2-1.8-.7-2.3c-.5-.5-1.3-.7-2.3-.7c-.7 0-1.4.2-2.1.5c-.6.3-1.2.8-1.6 1.3v-1.8c.4-.4 1-.8 1.6-1c.7-.3 1.5-.5 2.3-.5c1.4 0 2.6.4 3.4 1.1c.9.8 1.3 1.9 1.3 3.3c-.01.03 0 7.4 0 7.4h-1.5l-.3-1.7c-.5.6-1.2 1.1-1.9 1.5c-.7.4-1.5.5-2.3.5c-1.1 0-2-.3-2.6-.8c-.6-.6-.9-1.5-.9-2.5zm1.8-.1c0 .6.2 1.1.6 1.4c.3.4.8.5 1.4.5c.7 0 1.4-.2 2.2-.7c.7-.4 1.3-1 1.7-1.8c-.04.01 0-2.2 0-2.2c0 0-1.95.36-2 .4c-1 .1-1.8.3-2.3.5c-.6.2-.9.4-1.2.7c-.3.3-.4.7-.4 1.2zm9.6-6.9v-1.4h2.3s-.03-1.18 0-1.2c0-.7.1-1.3.4-1.9c.2-.6.6-1.1 1.2-1.4c.5-.4 1.2-.6 2-.6c.5 0 1 .1 1.4.4v1.6c-.4-.3-.8-.4-1.3-.4c-.6 0-1 .2-1.4.5c-.3.4-.5 1-.5 1.8c.04.04 0 1.2 0 1.2h2.7v1.4H178v10h-1.8v-10h-2.3zm8.2 4c0-1.1.2-2.1.6-3c.5-.8 1.1-1.5 1.9-2c.7-.5 1.6-.8 2.6-.8c1.6 0 2.8.6 3.7 1.6c.8 1 1.3 2.4 1.3 4.3c-.03.04 0 .8 0 .8h-8.3c.1 1.2.4 2.1 1.1 2.8c.6.8 1.4 1.2 2.5 1.2c1.6 0 2.9-.6 4-1.8v1.9c-.5.4-1 .7-1.7 1c-.6.2-1.4.3-2.3.3c-1.2 0-2.1-.2-2.9-.7c-.8-.5-1.4-1.2-1.9-2.1c-.4-.9-.6-1.9-.6-3v-.5zm8.2-.5c0-1.3-.3-2.2-.8-2.8c-.6-.7-1.3-1-2.2-1c-.6 0-1.2.2-1.7.5c-.4.3-.8.7-1.1 1.3c-.3.5-.5 1.2-.5 2h6.3zm6.4 6.5h-1.9V36.6h1.9v16.1zm6.6 0l-4.5-11.4h2l3.5 9.1l3.5-9.1h1.9l-6.4 16h-2l2-4.6zm13.6-3c0-.8.2-1.4.6-2c.3-.5.8-.8 1.5-1.1c.6-.3 1.5-.5 2.7-.7l2.9-.5c-.1-1-.3-1.8-.8-2.3c-.5-.5-1.3-.7-2.3-.7c-.7 0-1.4.2-2.1.5c-.6.3-1.2.8-1.6 1.3v-1.8c.4-.4 1-.8 1.7-1c.6-.3 1.4-.5 2.2-.5c1.5 0 2.6.4 3.4 1.1c.9.8 1.3 1.9 1.3 3.3v7.4h-1.5s-.29-1.74-.3-1.7c-.5.6-1.1 1.1-1.9 1.5c-.7.4-1.5.5-2.3.5c-1.1 0-1.9-.3-2.6-.8c-.6-.6-.9-1.5-.9-2.5zm1.8-.1c0 .6.2 1.1.6 1.4c.3.4.8.5 1.4.5c.7 0 1.5-.2 2.2-.7c.7-.4 1.3-1 1.7-1.8c-.03.01 0-2.2 0-2.2c0 0-1.94.36-1.9.4c-1.1.1-1.9.3-2.4.5c-.5.2-.9.4-1.2.7c-.2.3-.4.7-.4 1.2zm11 3.1V41.3h1.7s.12 2.27.1 2.3c.4-.8 1-1.4 1.7-1.9c.7-.5 1.5-.8 2.4-.8c1.2 0 2.1.4 2.8 1.1c.7.8 1 1.8 1 3.2c-.02-.02 0 7.5 0 7.5h-1.9s.01-7.37 0-7.4c0-.9-.2-1.6-.5-2.1c-.3-.5-.9-.8-1.7-.8c-.5 0-1 .2-1.5.5c-.6.4-1 .8-1.4 1.3c-.4.6-.7 1.2-.9 1.8c.04-.04 0 6.7 0 6.7h-1.8zm12.1-5.7c0-1.2.2-2.3.6-3.2c.5-.9 1.1-1.6 1.8-2.1c.8-.5 1.7-.8 2.6-.8c.7 0 1.4.2 2.1.6c.6.4 1.2.9 1.6 1.5v-6.4h1.8v16.1h-1.6l-.2-1.8c-.4.7-.9 1.2-1.6 1.6c-.6.3-1.3.5-2.1.5c-.9 0-1.8-.2-2.6-.7c-.7-.5-1.3-1.2-1.8-2.1c-.4-.9-.6-2-.6-3.2zm1.9 0c0 .9.1 1.7.4 2.4c.3.7.7 1.2 1.3 1.6c.5.4 1.1.6 1.7.6c.7 0 1.4-.3 2-.8c.6-.5 1.1-1.2 1.4-1.9v-3.8c-.3-.8-.8-1.4-1.4-1.9c-.6-.5-1.3-.8-2-.8c-.6 0-1.2.2-1.7.6c-.5.3-.9.9-1.2 1.6c-.3.6-.5 1.4-.5 2.4zm17.1-.2c0-1.1.3-2.1.8-3c.4-.9 1.1-1.6 1.9-2.1c.9-.5 1.9-.8 3-.8c.6 0 1.2.2 1.8.4c.6.2 1.1.5 1.5.9v2c-.4-.6-.9-1-1.5-1.3c-.6-.3-1.2-.5-1.9-.5c-.6 0-1.3.2-1.8.6c-.6.3-1 .9-1.3 1.5c-.4.7-.5 1.4-.5 2.3v.3c0 .9.1 1.7.5 2.3c.3.7.7 1.2 1.3 1.6c.6.3 1.2.5 1.8.5c1.3 0 2.5-.5 3.4-1.7v2c-.4.3-.9.6-1.5.9c-.6.2-1.2.3-1.9.3c-1 0-2-.2-2.9-.7c-.8-.5-1.5-1.2-1.9-2.1c-.5-.9-.8-1.9-.8-3v-.4zm10.9 0c0-1.1.3-2.1.7-3c.5-.9 1.1-1.6 1.9-2.1c.8-.5 1.8-.8 2.8-.8c1.1 0 2 .3 2.8.8c.8.5 1.5 1.2 1.9 2.1c.5.9.7 1.9.7 3v.4c0 1.1-.2 2.1-.7 3c-.4.9-1.1 1.6-1.9 2.1c-.8.5-1.7.7-2.8.7c-1 0-2-.2-2.8-.7c-.8-.5-1.4-1.2-1.9-2.1c-.4-.9-.7-1.9-.7-3v-.4zm2 .4c0 1.3.3 2.4.9 3.2c.6.8 1.4 1.2 2.5 1.2c1.1 0 1.9-.4 2.6-1.2c.6-.8.9-1.9.9-3.2v-.4c0-1.3-.3-2.4-.9-3.2c-.7-.8-1.5-1.2-2.6-1.2c-1.1 0-1.9.4-2.5 1.2c-.6.8-.9 1.9-.9 3.2v.4zm11.4 5.5V41.3h1.7s.16 2.27.2 2.3c.4-.8.9-1.4 1.7-1.9c.7-.5 1.5-.8 2.4-.8c1.2 0 2.1.4 2.7 1.1c.7.8 1 1.8 1 3.2c.02-.02 0 7.5 0 7.5h-1.9s.05-7.37 0-7.4c0-.9-.1-1.6-.5-2.1c-.3-.5-.9-.8-1.6-.8c-.6 0-1.1.2-1.6.5c-.5.4-1 .8-1.4 1.3c-.4.6-.7 1.2-.8 1.8c-.02-.04 0 6.7 0 6.7h-1.9zm16 0l-4.4-11.4h2l3.5 9.4l3.5-9.4h1.8l-4.4 11.4h-2zm7.6-6c0-1.1.2-2.1.7-3c.4-.8 1-1.5 1.8-2c.8-.5 1.7-.8 2.7-.8c1.5 0 2.7.6 3.6 1.6c.9 1 1.3 2.4 1.3 4.3v.8h-8.2c0 1.2.4 2.1 1 2.8c.6.8 1.4 1.2 2.5 1.2c1.6 0 3-.6 4-1.8v1.9c-.4.4-1 .7-1.7 1c-.6.2-1.4.3-2.3.3c-1.1 0-2.1-.2-2.9-.7c-.8-.5-1.4-1.2-1.8-2.1c-.5-.9-.7-1.9-.7-3v-.5zm8.3-.5c-.1-1.3-.4-2.2-.9-2.8c-.6-.7-1.3-1-2.2-1c-.6 0-1.1.2-1.6.5c-.5.3-.9.7-1.2 1.3c-.3.5-.5 1.2-.5 2h6.4zm4.4 6.5V41.3h1.7s.17 2.27.2 2.3c.4-.8 1-1.4 1.7-1.9c.7-.5 1.5-.8 2.4-.8c1.2 0 2.1.4 2.7 1.1c.7.8 1 1.8 1 3.2c.02-.02 0 7.5 0 7.5h-1.8s-.04-7.37 0-7.4c0-.9-.2-1.6-.5-2.1c-.4-.5-.9-.8-1.7-.8c-.5 0-1.1.2-1.6.5c-.5.4-1 .8-1.4 1.3c-.4.6-.7 1.2-.8 1.8c-.01-.04 0 6.7 0 6.7h-1.9zm14.8-13.3h-1.9V37h1.9v2.4zm0 13.3h-1.9V41.3h1.9v11.4zm2.6-6c0-1.1.2-2.1.6-3c.5-.8 1.1-1.5 1.9-2c.7-.5 1.6-.8 2.6-.8c1.6 0 2.8.6 3.7 1.6c.8 1 1.3 2.4 1.3 4.3c-.03.04 0 .8 0 .8h-8.3c.1 1.2.5 2.1 1.1 2.8c.6.8 1.4 1.2 2.5 1.2c1.6 0 2.9-.6 4-1.8v1.9c-.5.4-1 .7-1.7 1c-.6.2-1.4.3-2.3.3c-1.2 0-2.1-.2-2.9-.7c-.8-.5-1.4-1.2-1.9-2.1c-.4-.9-.6-1.9-.6-3v-.5zm8.2-.5c0-1.3-.3-2.2-.8-2.8c-.6-.7-1.3-1-2.2-1c-.6 0-1.2.2-1.7.5c-.4.3-.8.7-1.1 1.3c-.3.5-.5 1.2-.5 2h6.3zm4.5 6.5V41.3h1.7s.14 2.27.1 2.3c.5-.8 1-1.4 1.7-1.9c.7-.5 1.5-.8 2.4-.8c1.2 0 2.2.4 2.8 1.1c.7.8 1 1.8 1 3.2v7.5h-1.9s.03-7.37 0-7.4c0-.9-.1-1.6-.5-2.1c-.3-.5-.9-.8-1.7-.8c-.5 0-1 .2-1.5.5c-.5.4-1 .8-1.4 1.3c-.4.6-.7 1.2-.8 1.8c-.04-.04 0 6.7 0 6.7h-1.9zm14-10H363v-1.4h2.5v-3.5h1.9v3.5h2.5v1.4h-2.5v10h-1.9v-10zm8.3 10h-1.9V36.6h1.9v16.1zm6.6 0l-4.5-11.4h2l3.5 9.1l3.5-9.1h1.9l-6.4 16h-1.9l1.9-4.6zm9.5 0h-2.4V50h2.4v2.7z" stroke="none" fill="#fff"/></g><g id="Polygon8327"><path d="m3.8 17.7h-2V1.8h2v7.2l7.4-7.2h2.5l-8 7.8l8.3 8.1h-2.8l-7.4-7.4v7.4zm14-13.3H16V2h1.8v2.4zm0 13.3H16V6.3h1.8v11.4zm2.7-3c0-.8.2-1.4.6-2c.3-.5.8-.8 1.5-1.1c.7-.3 1.6-.5 2.7-.7l2.9-.5c-.1-1-.3-1.8-.8-2.3c-.5-.5-1.3-.7-2.3-.7c-.7 0-1.4.2-2.1.5c-.6.3-1.2.8-1.6 1.3V7.4c.4-.4 1-.8 1.7-1c.6-.3 1.4-.5 2.2-.5c1.5 0 2.6.4 3.4 1.1c.9.8 1.3 1.9 1.3 3.3c.01.03 0 7.4 0 7.4h-1.4s-.38-1.74-.4-1.7c-.5.6-1.1 1.1-1.9 1.5c-.7.4-1.5.5-2.3.5c-1.1 0-1.9-.3-2.6-.8c-.6-.6-.9-1.5-.9-2.5zm1.8-.1c0 .6.2 1.1.6 1.4c.4.4.8.5 1.4.5c.8 0 1.5-.2 2.2-.7c.7-.4 1.3-1 1.7-1.8c-.02.01 0-2.2 0-2.2c0 0-1.93.36-1.9.4c-1.1.1-1.9.3-2.4.5c-.5.2-.9.4-1.2.7c-.2.3-.4.7-.4 1.2zm10.1-7.5L32 1.8h2.1l-.4 5.3h-1.3zm4.2 7.7c.9 1.2 2.1 1.7 3.6 1.7c.8 0 1.4-.1 1.8-.4c.5-.4.7-.8.7-1.3c0-.4-.1-.8-.4-1c-.2-.3-.7-.6-1.3-.9l-1.6-.6c-.9-.4-1.6-.8-2.1-1.4c-.4-.5-.6-1.1-.6-1.9c0-.5.1-1 .4-1.5c.3-.5.8-.9 1.3-1.1c.6-.3 1.3-.5 2.2-.5c.6 0 1.3.2 1.9.4c.6.3 1.1.6 1.6.9v2c-.6-.6-1.1-1-1.7-1.3c-.6-.3-1.2-.5-1.8-.5c-.7 0-1.3.2-1.6.5c-.3.3-.5.6-.5 1.1c0 .3.1.6.4.9c.3.2.7.5 1.4.7l1.5.7c.9.3 1.6.8 2.1 1.4c.4.5.6 1.2.6 2c0 1-.4 1.8-1.2 2.4c-.8.6-1.8.9-3.1.9c-.8 0-1.5-.1-2.1-.3c-.6-.3-1.1-.6-1.5-.9v-2zm15.6-.1c0-.8.2-1.4.7-2c.3-.5.8-.8 1.4-1.1c.7-.3 1.6-.5 2.8-.7l2.8-.5c0-1-.3-1.8-.8-2.3c-.5-.5-1.2-.7-2.2-.7c-.8 0-1.5.2-2.1.5c-.7.3-1.2.8-1.6 1.3V7.4c.4-.4.9-.8 1.6-1c.7-.3 1.4-.5 2.3-.5c1.4 0 2.6.4 3.4 1.1c.8.8 1.3 1.9 1.3 3.3c-.04.03 0 7.4 0 7.4h-1.5s-.32-1.74-.3-1.7c-.6.6-1.2 1.1-1.9 1.5c-.7.4-1.5.5-2.4.5c-1 0-1.9-.3-2.5-.8c-.7-.6-1-1.5-1-2.5zm1.9-.1c0 .6.2 1.1.5 1.4c.4.4.9.5 1.5.5c.7 0 1.4-.2 2.1-.7c.8-.4 1.3-1 1.7-1.8c.03.01 0-2.2 0-2.2c0 0-1.88.36-1.9.4c-1 .1-1.8.3-2.4.5c-.5.2-.9.4-1.1.7c-.3.3-.4.7-.4 1.2zM64.2 12c0-1.2.3-2.3.7-3.2c.4-.9 1-1.6 1.8-2.1c.8-.5 1.6-.8 2.6-.8c.7 0 1.4.2 2 .6c.7.4 1.2.9 1.7 1.5c-.05-.04 0-6.4 0-6.4h1.8v16.1h-1.7s-.13-1.76-.1-1.8c-.4.7-1 1.2-1.6 1.6c-.7.3-1.4.5-2.1.5c-1 0-1.8-.2-2.6-.7c-.8-.5-1.4-1.2-1.8-2.1c-.4-.9-.7-2-.7-3.2zm2 0c0 .9.1 1.7.4 2.4c.3.7.7 1.2 1.2 1.6c.5.4 1.1.6 1.8.6c.7 0 1.4-.3 2-.8c.6-.5 1.1-1.2 1.4-1.9v-3.8c-.3-.8-.8-1.4-1.4-1.9c-.6-.5-1.3-.8-2-.8c-.7 0-1.2.2-1.8.6c-.5.3-.9.9-1.2 1.6c-.3.6-.4 1.4-.4 2.4zm15.1 5.7L76.9 6.3h2l3.5 9.4l3.5-9.4h1.8l-4.4 11.4h-2zm7.7-3c0-.8.2-1.4.6-2c.4-.5.9-.8 1.5-1.1c.7-.3 1.6-.5 2.7-.7l2.9-.5c0-1-.3-1.8-.8-2.3c-.5-.5-1.2-.7-2.2-.7c-.8 0-1.5.2-2.1.5c-.7.3-1.2.8-1.7 1.3V7.4c.5-.4 1-.8 1.7-1c.7-.3 1.4-.5 2.2-.5c1.5 0 2.7.4 3.5 1.1c.8.8 1.3 1.9 1.3 3.3c-.05.03 0 7.4 0 7.4h-1.5s-.33-1.74-.3-1.7c-.6.6-1.2 1.1-1.9 1.5c-.7.4-1.5.5-2.4.5c-1 0-1.9-.3-2.5-.8c-.7-.6-1-1.5-1-2.5zm1.9-.1c0 .6.2 1.1.5 1.4c.4.4.9.5 1.5.5c.7 0 1.4-.2 2.1-.7c.8-.4 1.3-1 1.7-1.8c.02.01 0-2.2 0-2.2c0 0-1.89.36-1.9.4c-1 .1-1.8.3-2.4.5c-.5.2-.9.4-1.1.7c-.3.3-.4.7-.4 1.2zm10.9 3.1V6.3h1.7s.18 2.27.2 2.3c.4-.8 1-1.4 1.7-1.9c.7-.5 1.5-.8 2.4-.8c1.2 0 2.1.4 2.8 1.1c.6.8.9 1.8.9 3.2c.03-.02 0 7.5 0 7.5h-1.8s-.04-7.37 0-7.4c0-.9-.2-1.6-.5-2.1c-.4-.5-.9-.8-1.7-.8c-.5 0-1.1.2-1.6.5c-.5.4-1 .8-1.4 1.3c-.4.6-.6 1.2-.8 1.8v6.7h-1.9zm12.1-5.9c0-1.1.3-2.1.7-3c.5-.9 1.2-1.6 2-2.1c.9-.5 1.9-.8 3-.8c.6 0 1.2.2 1.8.4c.6.2 1.1.5 1.5.9v2c-.4-.6-.9-1-1.5-1.3c-.6-.3-1.2-.5-1.9-.5c-.7 0-1.3.2-1.8.6c-.6.3-1 .9-1.4 1.5c-.3.7-.4 1.4-.4 2.3v.3c0 .9.1 1.7.4 2.3c.4.7.8 1.2 1.4 1.6c.5.3 1.2.5 1.8.5c1.3 0 2.5-.5 3.4-1.7v2c-.4.3-.9.6-1.5.9c-.6.2-1.2.3-1.9.3c-1.1 0-2-.2-2.9-.7c-.8-.5-1.5-1.2-2-2.1c-.4-.9-.7-1.9-.7-3v-.4zm10.9-.1c0-1.1.2-2.1.7-3c.4-.8 1-1.5 1.8-2c.7-.5 1.6-.8 2.6-.8c1.6 0 2.8.6 3.7 1.6c.8 1 1.3 2.4 1.3 4.3c-.02.04 0 .8 0 .8h-8.3c.1 1.2.5 2.1 1.1 2.8c.6.8 1.4 1.2 2.5 1.2c1.6 0 2.9-.6 4-1.8v1.9c-.5.4-1 .7-1.7 1c-.6.2-1.4.3-2.3.3c-1.1 0-2.1-.2-2.9-.7c-.8-.5-1.4-1.2-1.9-2.1c-.4-.9-.6-1.9-.6-3v-.5zm8.2-.5c0-1.3-.3-2.2-.8-2.8c-.6-.7-1.3-1-2.2-1c-.6 0-1.2.2-1.6.5c-.5.3-.9.7-1.2 1.3c-.3.5-.5 1.2-.5 2h6.3zm3.7.8c0-1.2.2-2.3.7-3.2c.4-.9 1-1.6 1.8-2.1c.7-.5 1.6-.8 2.5-.8c.8 0 1.5.2 2.1.6c.7.4 1.2.9 1.6 1.5c.02-.04 0-6.4 0-6.4h1.9v16.1h-1.7s-.16-1.76-.2-1.8c-.4.7-.9 1.2-1.5 1.6c-.7.3-1.4.5-2.2.5c-.9 0-1.8-.2-2.5-.7c-.8-.5-1.4-1.2-1.8-2.1c-.5-.9-.7-2-.7-3.2zm1.9 0c0 .9.2 1.7.5 2.4c.3.7.7 1.2 1.2 1.6c.5.4 1.1.6 1.7.6c.8 0 1.4-.3 2-.8c.7-.5 1.1-1.2 1.4-1.9v-3.8c-.3-.8-.7-1.4-1.4-1.9c-.6-.5-1.2-.8-1.9-.8c-.7 0-1.3.2-1.8.6c-.5.3-.9.9-1.2 1.6c-.3.6-.5 1.4-.5 2.4zm17.2 0c0-1.2.2-2.3.6-3.2c.5-.9 1.1-1.6 1.8-2.1c.8-.5 1.7-.8 2.6-.8c.7 0 1.4.2 2.1.6c.6.4 1.2.9 1.6 1.5V1.6h1.8v16.1h-1.6l-.2-1.8c-.4.7-.9 1.2-1.6 1.6c-.6.3-1.3.5-2.1.5c-.9 0-1.8-.2-2.6-.7c-.7-.5-1.3-1.2-1.8-2.1c-.4-.9-.6-2-.6-3.2zm1.9 0c0 .9.2 1.7.4 2.4c.3.7.7 1.2 1.3 1.6c.5.4 1.1.6 1.7.6c.7 0 1.4-.3 2-.8c.6-.5 1.1-1.2 1.4-1.9v-3.8c-.3-.8-.8-1.4-1.4-1.9c-.6-.5-1.3-.8-2-.8c-.6 0-1.2.2-1.7.6c-.5.3-.9.9-1.2 1.6c-.3.6-.5 1.4-.5 2.4zm12.1 5.7V6.3h1.7l.1 2c.3-.8.8-1.3 1.3-1.7c.6-.5 1.3-.7 2.1-.7c.2 0 .4.1.6.1c.2 0 .4 0 .5.1v1.6c-.3-.1-.7-.1-1.2-.1c-.7 0-1.4.2-2 .7c-.6.5-1 1.1-1.3 2c.03-.03 0 7.4 0 7.4h-1.8zM180 4.4h-1.9V2h1.9v2.4zm0 13.3h-1.9V6.3h1.9v11.4zm6.4 0l-4.3-11.4h2l3.4 9.4l3.6-9.4h1.8l-4.4 11.4h-2.1zm7.7-6c0-1.1.2-2.1.7-3c.4-.8 1-1.5 1.8-2c.7-.5 1.6-.8 2.6-.8c1.6 0 2.8.6 3.7 1.6c.8 1 1.3 2.4 1.3 4.3c-.02.04 0 .8 0 .8h-8.3c.1 1.2.5 2.1 1.1 2.8c.6.8 1.4 1.2 2.5 1.2c1.6 0 2.9-.6 4-1.8v1.9c-.5.4-1 .7-1.7 1c-.6.2-1.4.3-2.3.3c-1.1 0-2.1-.2-2.9-.7c-.8-.5-1.4-1.2-1.9-2.1c-.4-.9-.6-1.9-.6-3v-.5zm8.2-.5c0-1.3-.3-2.2-.8-2.8c-.6-.7-1.3-1-2.2-1c-.6 0-1.2.2-1.6.5c-.5.3-.9.7-1.2 1.3c-.3.5-.5 1.2-.5 2h6.3zm4.5 6.5V6.3h1.7s.13 1.95.1 2c.4-.8.8-1.3 1.4-1.7c.6-.5 1.3-.7 2.1-.7c.2 0 .4.1.6.1c.2 0 .3 0 .4.1v1.6c-.3-.1-.7-.1-1.1-.1c-.8 0-1.4.2-2 .7c-.6.5-1.1 1.1-1.3 2c-.03-.03 0 7.4 0 7.4h-1.9zm13.4-3c0-.8.2-1.4.7-2c.3-.5.8-.8 1.4-1.1c.7-.3 1.6-.5 2.8-.7l2.8-.5c0-1-.3-1.8-.8-2.3c-.5-.5-1.2-.7-2.2-.7c-.8 0-1.5.2-2.1.5c-.7.3-1.2.8-1.7 1.3V7.4c.5-.4 1-.8 1.7-1c.7-.3 1.4-.5 2.3-.5c1.4 0 2.6.4 3.4 1.1c.8.8 1.3 1.9 1.3 3.3c-.04.03 0 7.4 0 7.4h-1.5s-.33-1.74-.3-1.7c-.6.6-1.2 1.1-1.9 1.5c-.7.4-1.5.5-2.4.5c-1 0-1.9-.3-2.5-.8c-.7-.6-1-1.5-1-2.5zm1.9-.1c0 .6.2 1.1.5 1.4c.4.4.9.5 1.5.5c.7 0 1.4-.2 2.1-.7c.8-.4 1.3-1 1.7-1.8c.03.01 0-2.2 0-2.2c0 0-1.88.36-1.9.4c-1 .1-1.8.3-2.4.5c-.5.2-.9.4-1.1.7c-.3.3-.4.7-.4 1.2zm10.5.2c.9 1.2 2.1 1.7 3.6 1.7c.8 0 1.4-.1 1.8-.4c.5-.4.7-.8.7-1.3c0-.4-.1-.8-.3-1c-.3-.3-.7-.6-1.4-.9l-1.5-.6c-1-.4-1.7-.8-2.1-1.4c-.5-.5-.7-1.1-.7-1.9c0-.5.1-1 .4-1.5c.3-.5.8-.9 1.4-1.1c.6-.3 1.3-.5 2.1-.5c.7 0 1.3.2 1.9.4c.7.3 1.2.6 1.6.9v2c-.5-.6-1.1-1-1.7-1.3c-.6-.3-1.2-.5-1.8-.5c-.7 0-1.2.2-1.6.5c-.3.3-.5.6-.5 1.1c0 .3.2.6.4.9c.3.2.8.5 1.4.7l1.5.7c1 .3 1.7.8 2.1 1.4c.4.5.7 1.2.7 2c0 1-.5 1.8-1.3 2.4c-.8.6-1.8.9-3.1.9c-.8 0-1.5-.1-2.1-.3c-.6-.3-1.1-.6-1.5-.9v-2zm10.1 0c1 1.2 2.2 1.7 3.7 1.7c.7 0 1.3-.1 1.8-.4c.4-.4.6-.8.6-1.3c0-.4-.1-.8-.3-1c-.2-.3-.7-.6-1.3-.9l-1.6-.6c-.9-.4-1.6-.8-2.1-1.4c-.4-.5-.7-1.1-.7-1.9c0-.5.2-1 .5-1.5c.3-.5.7-.9 1.3-1.1c.6-.3 1.3-.5 2.1-.5c.7 0 1.4.2 2 .4c.6.3 1.1.6 1.5.9v2c-.5-.6-1-1-1.6-1.3c-.6-.3-1.3-.5-1.9-.5c-.7 0-1.2.2-1.5.5c-.4.3-.5.6-.5 1.1c0 .3.1.6.4.9c.2.2.7.5 1.4.7l1.5.7c.9.3 1.6.8 2 1.4c.5.5.7 1.2.7 2c0 1-.4 1.8-1.2 2.4c-.8.6-1.9.9-3.1.9c-.8 0-1.5-.1-2.1-.3c-.7-.3-1.2-.6-1.6-.9v-2zm12.5-10.4h-1.9V2h1.9v2.4zm0 13.3h-1.9V6.3h1.9v11.4zm3-2.9c.9 1.2 2.1 1.7 3.6 1.7c.8 0 1.4-.1 1.8-.4c.5-.4.7-.8.7-1.3c0-.4-.1-.8-.4-1c-.2-.3-.6-.6-1.3-.9l-1.6-.6c-.9-.4-1.6-.8-2-1.4c-.5-.5-.7-1.1-.7-1.9c0-.5.1-1 .4-1.5c.3-.5.8-.9 1.3-1.1c.6-.3 1.3-.5 2.2-.5c.6 0 1.3.2 1.9.4c.6.3 1.1.6 1.6.9v2c-.6-.6-1.1-1-1.7-1.3c-.6-.3-1.2-.5-1.8-.5c-.7 0-1.2.2-1.6.5c-.3.3-.5.6-.5 1.1c0 .3.1.6.4.9c.3.2.7.5 1.4.7l1.5.7c1 .3 1.6.8 2.1 1.4c.4.5.6 1.2.6 2c0 1-.4 1.8-1.2 2.4c-.8.6-1.8.9-3.1.9c-.8 0-1.5-.1-2.1-.3c-.6-.3-1.1-.6-1.5-.9v-2zm11.7-7.1h-2.5V6.3h2.5V2.8h1.8v3.5h2.6v1.4h-2.6v10h-1.8v-10zm5.6 7c0-.8.2-1.4.6-2c.4-.5.9-.8 1.5-1.1c.7-.3 1.6-.5 2.7-.7l2.9-.5c0-1-.3-1.8-.8-2.3c-.5-.5-1.2-.7-2.3-.7c-.7 0-1.4.2-2 .5c-.7.3-1.2.8-1.7 1.3V7.4c.5-.4 1-.8 1.7-1c.7-.3 1.4-.5 2.2-.5c1.5 0 2.6.4 3.5 1.1c.8.8 1.2 1.9 1.2 3.3c.03.03 0 7.4 0 7.4h-1.4s-.36-1.74-.4-1.7c-.5.6-1.1 1.1-1.8 1.5c-.8.4-1.5.5-2.4.5c-1.1 0-1.9-.3-2.5-.8c-.7-.6-1-1.5-1-2.5zm1.9-.1c0 .6.1 1.1.5 1.4c.4.4.9.5 1.5.5c.7 0 1.4-.2 2.1-.7c.7-.4 1.3-1 1.7-1.8v-2.2s-1.91.36-1.9.4c-1.1.1-1.9.3-2.4.5c-.5.2-.9.4-1.2.7c-.2.3-.3.7-.3 1.2zm10.9 3.1V6.3h1.7s.15 2.27.2 2.3c.4-.8.9-1.4 1.6-1.9c.7-.5 1.6-.8 2.4-.8c1.3 0 2.2.4 2.8 1.1c.7.8 1 1.8 1 3.2v7.5h-1.9s.04-7.37 0-7.4c0-.9-.1-1.6-.5-2.1c-.3-.5-.9-.8-1.6-.8c-.6 0-1.1.2-1.6.5c-.5.4-1 .8-1.4 1.3c-.4.6-.7 1.2-.8 1.8c-.03-.04 0 6.7 0 6.7h-1.9zm12.1-5.9c0-1.1.2-2.1.7-3c.5-.9 1.2-1.6 2-2.1c.9-.5 1.8-.8 2.9-.8c.7 0 1.3.2 1.9.4c.6.2 1.1.5 1.5.9v2c-.5-.6-1-1-1.5-1.3c-.6-.3-1.2-.5-1.9-.5c-.7 0-1.3.2-1.9.6c-.5.3-1 .9-1.3 1.5c-.3.7-.5 1.4-.5 2.3v.3c0 .9.2 1.7.5 2.3c.4.7.8 1.2 1.4 1.6c.5.3 1.1.5 1.8.5c1.3 0 2.4-.5 3.4-1.7v2c-.4.3-.9.6-1.5.9c-.6.2-1.3.3-1.9.3c-1.1 0-2-.2-2.9-.7c-.8-.5-1.5-1.2-2-2.1c-.5-.9-.7-1.9-.7-3v-.4zm10.9-.1c0-1.1.2-2.1.6-3c.5-.8 1.1-1.5 1.8-2c.8-.5 1.7-.8 2.7-.8c1.6 0 2.8.6 3.6 1.6c.9 1 1.4 2.4 1.4 4.3c-.04.04 0 .8 0 .8h-8.3c.1 1.2.4 2.1 1.1 2.8c.6.8 1.4 1.2 2.5 1.2c1.6 0 2.9-.6 4-1.8v1.9c-.5.4-1.1.7-1.7 1c-.7.2-1.4.3-2.3.3c-1.2 0-2.1-.2-2.9-.7c-.8-.5-1.5-1.2-1.9-2.1c-.4-.9-.6-1.9-.6-3v-.5zm8.2-.5c0-1.3-.3-2.2-.9-2.8c-.5-.7-1.2-1-2.2-1c-.5 0-1.1.2-1.6.5c-.4.3-.8.7-1.1 1.3c-.3.5-.5 1.2-.6 2h6.4zm9.9 3.6c1 1.2 2.2 1.7 3.7 1.7c.7 0 1.3-.1 1.8-.4c.4-.4.6-.8.6-1.3c0-.4-.1-.8-.3-1c-.2-.3-.7-.6-1.3-.9l-1.6-.6c-.9-.4-1.6-.8-2.1-1.4c-.4-.5-.7-1.1-.7-1.9c0-.5.2-1 .5-1.5c.3-.5.7-.9 1.3-1.1c.6-.3 1.3-.5 2.1-.5c.7 0 1.3.2 2 .4c.6.3 1.1.6 1.5.9v2c-.5-.6-1.1-1-1.7-1.3c-.6-.3-1.2-.5-1.8-.5c-.7 0-1.2.2-1.5.5c-.4.3-.5.6-.5 1.1c0 .3.1.6.4.9c.2.2.7.5 1.3.7l1.6.7c.9.3 1.6.8 2 1.4c.5.5.7 1.2.7 2c0 1-.4 1.8-1.2 2.4c-.8.6-1.9.9-3.1.9c-.8 0-1.5-.1-2.2-.3c-.6-.3-1.1-.6-1.5-.9v-2zm13.8 2.9l-4.5-11.4h2l3.5 9.1l3.5-9.1h1.9l-6.4 16h-1.9l1.9-4.6zm8.1-2.9c.9 1.2 2.1 1.7 3.6 1.7c.8 0 1.4-.1 1.8-.4c.5-.4.7-.8.7-1.3c0-.4-.1-.8-.4-1c-.2-.3-.6-.6-1.3-.9l-1.6-.6c-.9-.4-1.6-.8-2.1-1.4c-.4-.5-.6-1.1-.6-1.9c0-.5.1-1 .4-1.5c.3-.5.8-.9 1.3-1.1c.6-.3 1.3-.5 2.2-.5c.6 0 1.3.2 1.9.4c.6.3 1.1.6 1.6.9v2c-.6-.6-1.1-1-1.7-1.3c-.6-.3-1.2-.5-1.8-.5c-.7 0-1.2.2-1.6.5c-.3.3-.5.6-.5 1.1c0 .3.1.6.4.9c.3.2.7.5 1.4.7l1.5.7c.9.3 1.6.8 2.1 1.4c.4.5.6 1.2.6 2c0 1-.4 1.8-1.2 2.4c-.8.6-1.8.9-3.1.9c-.8 0-1.5-.1-2.1-.3c-.6-.3-1.1-.6-1.5-.9v-2zM363 7.7h-2.5V6.3h2.5V2.8h1.8v3.5h2.6v1.4h-2.6v10H363v-10zm5.6 4c0-1.1.2-2.1.6-3c.5-.8 1.1-1.5 1.8-2c.8-.5 1.7-.8 2.7-.8c1.6 0 2.8.6 3.6 1.6c.9 1 1.3 2.4 1.3 4.3c.05.04 0 .8 0 .8h-8.2c.1 1.2.4 2.1 1 2.8c.7.8 1.5 1.2 2.5 1.2c1.7 0 3-.6 4.1-1.8v1.9c-.5.4-1.1.7-1.7 1c-.7.2-1.4.3-2.4.3c-1.1 0-2-.2-2.8-.7c-.9-.5-1.5-1.2-1.9-2.1c-.4-.9-.6-1.9-.6-3v-.5zm8.2-.5c0-1.3-.3-2.2-.9-2.8c-.5-.7-1.3-1-2.2-1c-.6 0-1.1.2-1.6.5c-.5.3-.9.7-1.2 1.3c-.3.5-.4 1.2-.5 2h6.4zm4.5 6.5V6.3h1.7s.08 2.04.1 2c.4-.7.9-1.3 1.6-1.7c.6-.4 1.3-.7 2.1-.7c.8 0 1.5.3 2.1.7c.6.4.9 1.1 1.1 1.9c.5-.8 1-1.4 1.7-1.9c.6-.4 1.4-.7 2.2-.7c1.1 0 1.9.4 2.5 1.1c.6.7 1 1.6 1 2.9c-.04.03 0 7.8 0 7.8h-1.9v-7.6c0-.9-.1-1.6-.4-2c-.3-.5-.8-.7-1.5-.7c-.5 0-.9.2-1.4.4c-.4.3-.8.7-1.2 1.2c-.4.4-.6.9-.8 1.5c.04-.02 0 7.2 0 7.2h-1.8V10c0-.9-.2-1.5-.5-1.9c-.3-.5-.8-.7-1.4-.7c-.5 0-.9.2-1.4.4c-.4.3-.8.7-1.2 1.2c-.3.4-.6.9-.8 1.5c.04-.02 0 7.2 0 7.2h-1.8zm25.2 0V1.6h1.8s.02 6.93 0 6.9c.4-.7 1-1.3 1.7-1.8c.7-.5 1.5-.8 2.4-.8c1.2 0 2.1.4 2.8 1.1c.6.8.9 1.8.9 3.2c.03-.02 0 7.5 0 7.5h-1.8s-.02-7.37 0-7.4c0-.9-.2-1.6-.5-2.1c-.4-.5-.9-.8-1.7-.8c-.5 0-1 .2-1.6.5c-.5.3-1 .8-1.4 1.3c-.4.5-.6 1.1-.8 1.7c.02 0 0 6.8 0 6.8h-1.8zm12-6c0-1.1.2-2.1.7-3c.4-.8 1-1.5 1.8-2c.8-.5 1.7-.8 2.7-.8c1.5 0 2.7.6 3.6 1.6c.9 1 1.3 2.4 1.3 4.3v.8h-8.2c0 1.2.4 2.1 1 2.8c.6.8 1.4 1.2 2.5 1.2c1.6 0 3-.6 4.1-1.8v1.9c-.5.4-1.1.7-1.8 1c-.6.2-1.4.3-2.3.3c-1.1 0-2.1-.2-2.9-.7c-.8-.5-1.4-1.2-1.8-2.1c-.5-.9-.7-1.9-.7-3v-.5zm8.3-.5c-.1-1.3-.3-2.2-.9-2.8c-.6-.7-1.3-1-2.2-1c-.6 0-1.1.2-1.6.5c-.5.3-.9.7-1.2 1.3c-.3.5-.5 1.2-.5 2h6.4zm6.3 6.5h-1.9V1.6h1.9v16.1zm3.4 4.6v-16h1.7s.17 1.81.2 1.8c.4-.6.9-1.2 1.5-1.6c.7-.4 1.4-.6 2.2-.6c.9 0 1.8.3 2.6.8c.7.5 1.3 1.2 1.8 2.1c.4.9.6 2 .6 3.2c0 1.2-.2 2.3-.6 3.2c-.5.9-1.1 1.6-1.8 2.1c-.8.5-1.7.7-2.6.7c-.8 0-1.5-.1-2.1-.5c-.7-.4-1.2-.9-1.6-1.5v6.3h-1.9zm1.9-8.5c.3.8.7 1.5 1.4 2c.6.5 1.3.7 2 .7c.6 0 1.2-.1 1.7-.5c.5-.4.9-.9 1.2-1.6c.3-.7.5-1.5.5-2.4c0-1-.2-1.8-.4-2.4c-.3-.7-.7-1.3-1.3-1.6c-.5-.4-1.1-.6-1.7-.6c-.7 0-1.4.3-2 .8c-.7.5-1.1 1.2-1.4 2v3.6zm10.9 1c.9 1.2 2.1 1.7 3.6 1.7c.8 0 1.4-.1 1.8-.4c.5-.4.7-.8.7-1.3c0-.4-.1-.8-.3-1c-.3-.3-.7-.6-1.4-.9l-1.5-.6c-1-.4-1.7-.8-2.1-1.4c-.5-.5-.7-1.1-.7-1.9c0-.5.1-1 .4-1.5c.3-.5.8-.9 1.4-1.1c.5-.3 1.3-.5 2.1-.5c.7 0 1.3.2 1.9.4c.6.3 1.2.6 1.6.9v2c-.5-.6-1.1-1-1.7-1.3c-.6-.3-1.2-.5-1.8-.5c-.7 0-1.2.2-1.6.5c-.3.3-.5.6-.5 1.1c0 .3.2.6.4.9c.3.2.8.5 1.4.7l1.5.7c1 .3 1.7.8 2.1 1.4c.4.5.6 1.2.6 2c0 1-.4 1.8-1.2 2.4c-.8.6-1.8.9-3.1.9c-.8 0-1.5-.1-2.1-.3c-.6-.3-1.1-.6-1.5-.9v-2zM465 12c0-1.2.2-2.3.6-3.2c.4-.9 1-1.6 1.8-2.1c.8-.5 1.6-.8 2.6-.8c.7 0 1.4.2 2.1.6c.6.4 1.1.9 1.6 1.5c-.03-.04 0-6.4 0-6.4h1.8v16.1h-1.7s-.11-1.76-.1-1.8c-.4.7-.9 1.2-1.6 1.6c-.6.3-1.3.5-2.1.5c-1 0-1.8-.2-2.6-.7c-.8-.5-1.4-1.2-1.8-2.1c-.4-.9-.6-2-.6-3.2zm1.9 0c0 .9.1 1.7.4 2.4c.3.7.7 1.2 1.2 1.6c.6.4 1.1.6 1.8.6c.7 0 1.4-.3 2-.8c.6-.5 1.1-1.2 1.4-1.9v-3.8c-.3-.8-.8-1.4-1.4-1.9c-.6-.5-1.3-.8-2-.8c-.6 0-1.2.2-1.7.6c-.6.3-1 .9-1.3 1.6c-.3.6-.4 1.4-.4 2.4zm12.1 5.7V6.3h1.6s.17 1.95.2 2c.3-.8.7-1.3 1.3-1.7c.6-.5 1.3-.7 2.1-.7c.2 0 .4.1.6.1c.2 0 .4 0 .5.1v1.6c-.3-.1-.7-.1-1.2-.1c-.7 0-1.4.2-2 .7c-.6.5-1 1.1-1.3 2c.01-.03 0 7.4 0 7.4H479zm10.1-13.3h-1.8V2h1.8v2.4zm0 13.3h-1.8V6.3h1.8v11.4zm6.5 0l-4.4-11.4h2l3.5 9.4l3.6-9.4h1.8l-4.4 11.4h-2.1zm7.7-6c0-1.1.2-2.1.6-3c.5-.8 1.1-1.5 1.8-2c.8-.5 1.7-.8 2.7-.8c1.6 0 2.8.6 3.6 1.6c.9 1 1.4 2.4 1.4 4.3c-.04.04 0 .8 0 .8h-8.3c.1 1.2.4 2.1 1.1 2.8c.6.8 1.4 1.2 2.5 1.2c1.6 0 2.9-.6 4-1.8v1.9c-.5.4-1.1.7-1.7 1c-.7.2-1.4.3-2.3.3c-1.2 0-2.1-.2-2.9-.7c-.8-.5-1.5-1.2-1.9-2.1c-.4-.9-.6-1.9-.6-3v-.5zm8.2-.5c0-1.3-.3-2.2-.9-2.8c-.5-.7-1.2-1-2.2-1c-.5 0-1.1.2-1.6.5c-.4.3-.8.7-1.1 1.3c-.3.5-.5 1.2-.6 2h6.4zm4.5 6.5V6.3h1.7s.11 1.95.1 2c.3-.8.8-1.3 1.4-1.7c.5-.5 1.2-.7 2-.7c.2 0 .4.1.6.1c.3 0 .4 0 .5.1v1.6c-.3-.1-.7-.1-1.2-.1c-.7 0-1.4.2-2 .7c-.6.5-1 1.1-1.2 2c-.05-.03 0 7.4 0 7.4H516zm7.9-2.9c.9 1.2 2.1 1.7 3.6 1.7c.8 0 1.4-.1 1.8-.4c.5-.4.7-.8.7-1.3c0-.4-.1-.8-.4-1c-.2-.3-.6-.6-1.3-.9l-1.5-.6c-1-.4-1.7-.8-2.1-1.4c-.5-.5-.7-1.1-.7-1.9c0-.5.1-1 .4-1.5c.3-.5.8-.9 1.4-1.1c.5-.3 1.2-.5 2.1-.5c.7 0 1.3.2 1.9.4c.6.3 1.2.6 1.6.9v2c-.5-.6-1.1-1-1.7-1.3c-.6-.3-1.2-.5-1.8-.5c-.7 0-1.2.2-1.6.5c-.3.3-.5.6-.5 1.1c0 .3.1.6.4.9c.3.2.8.5 1.4.7l1.5.7c1 .3 1.7.8 2.1 1.4c.4.5.6 1.2.6 2c0 1-.4 1.8-1.2 2.4c-.8.6-1.8.9-3.1.9c-.8 0-1.5-.1-2.1-.3c-.6-.3-1.1-.6-1.5-.9v-2z" stroke="none" fill="#fff"/></g></svg>