<?xml version="1.0" standalone="no"?><!DOCTYPE svg PUBLIC "-//W3C//DTD SVG 1.1//EN" "http://www.w3.org/Graphics/SVG/1.1/DTD/svg11.dtd"><svg xmlns="http://www.w3.org/2000/svg" version="1.1" width="430px" height="70.9px" viewBox="0 -1 430 70.9" style="top:-1px"><desc>Remote Smart Parking Assist 2</desc><defs/><g id="Polygon8071"><path d="m71.9 39.2V23.3s5.85-.04 5.8 0c1.1 0 2 .2 2.8.5c.8.4 1.4.9 1.9 1.6c.4.7.7 1.4.7 2.3v.3c0 1.2-.4 2.2-1.3 3c-.8.8-1.9 1.3-3.2 1.4c-.01.02 5.3 6.8 5.3 6.8h-2.5l-5.2-6.7h-2.3v6.7h-2zm5.6-8.3c1.1 0 2-.3 2.6-.8c.6-.5.9-1.2.9-2.1v-.3c0-.9-.3-1.6-.9-2.1c-.6-.5-1.5-.8-2.6-.8c.04.04-3.6 0-3.6 0v6.1s3.64-.01 3.6 0zm6.9 2.3c0-1.1.2-2.1.6-3c.4-.8 1.1-1.5 1.8-2c.8-.5 1.7-.8 2.7-.8c1.5 0 2.8.6 3.6 1.6c.9 1 1.3 2.4 1.3 4.3c.04.04 0 .8 0 .8h-8.2c.1 1.2.4 2.1 1 2.8c.7.8 1.5 1.2 2.5 1.2c1.6 0 3-.6 4.1-1.8v1.9c-.5.4-1.1.7-1.7 1c-.7.2-1.5.3-2.4.3c-1.1 0-2-.2-2.9-.7c-.8-.5-1.4-1.2-1.8-2.1c-.4-.9-.6-1.9-.6-3v-.5zm8.2-.5c0-1.3-.3-2.2-.9-2.8c-.5-.7-1.3-1-2.2-1c-.6 0-1.1.2-1.6.5c-.5.3-.9.7-1.2 1.3c-.3.5-.4 1.2-.5 2h6.4zm3.9 6.5V27.8h1.6s.14 2.04.1 2c.5-.7 1-1.3 1.6-1.7c.6-.4 1.4-.7 2.2-.7c.8 0 1.5.3 2.1.7c.5.4.9 1.1 1.1 1.9c.5-.8 1-1.4 1.7-1.9c.6-.4 1.4-.7 2.2-.7c1 0 1.9.4 2.5 1.1c.6.7.9 1.6.9 2.9c.02.03 0 7.8 0 7.8h-1.8s-.03-7.62 0-7.6c0-.9-.2-1.6-.5-2c-.3-.5-.8-.7-1.5-.7c-.4 0-.8.2-1.3.4c-.5.3-.9.7-1.2 1.2c-.4.4-.6.9-.8 1.5v7.2h-1.8s-.05-7.66 0-7.7c0-.9-.2-1.5-.5-1.9c-.3-.5-.8-.7-1.5-.7c-.4 0-.8.2-1.3.4c-.4.3-.9.7-1.2 1.2c-.4.4-.6.9-.8 1.5v7.2h-1.8zm17.8-5.9c0-1.1.2-2.1.7-3c.4-.9 1.1-1.6 1.9-2.1c.8-.5 1.7-.8 2.8-.8c1 0 2 .3 2.8.8c.8.5 1.4 1.2 1.9 2.1c.4.9.7 1.9.7 3v.4c0 1.1-.3 2.1-.7 3c-.5.9-1.1 1.6-1.9 2.1c-.8.5-1.8.7-2.8.7c-1.1 0-2-.2-2.8-.7c-.8-.5-1.5-1.2-1.9-2.1c-.5-.9-.7-1.9-.7-3v-.4zm1.9.4c0 1.3.3 2.4 1 3.2c.6.8 1.4 1.2 2.5 1.2c1.1 0 1.9-.4 2.5-1.2c.6-.8.9-1.9.9-3.2v-.4c0-1.3-.3-2.4-.9-3.2c-.6-.8-1.4-1.2-2.5-1.2c-1.1 0-1.9.4-2.5 1.2c-.7.8-1 1.9-1 3.2v.4zm11.9-4.5h-2.5v-1.4h2.5v-3.5h1.8v3.5h2.6v1.4h-2.6v10h-1.8v-10zm4.9 4c0-1.1.3-2.1.7-3c.4-.8 1-1.5 1.8-2c.8-.5 1.7-.8 2.7-.8c1.5 0 2.7.6 3.6 1.6c.9 1 1.3 2.4 1.3 4.3c.02.04 0 .8 0 .8h-8.2c.1 1.2.4 2.1 1 2.8c.6.8 1.5 1.2 2.5 1.2c1.6 0 3-.6 4.1-1.8v1.9c-.5.4-1.1.7-1.7 1c-.7.2-1.5.3-2.4.3c-1.1 0-2.1-.2-2.9-.7c-.8-.5-1.4-1.2-1.8-2.1c-.4-.9-.7-1.9-.7-3v-.5zm8.3-.5c0-1.3-.3-2.2-.9-2.8c-.6-.7-1.3-1-2.2-1c-.6 0-1.1.2-1.6.5c-.5.3-.9.7-1.2 1.3c-.3.5-.5 1.2-.5 2h6.4zm8.8 2.7c.5.7 1.2 1.4 2 1.8c.8.5 1.6.8 2.6.8c.7 0 1.3-.2 1.8-.4c.5-.3.8-.6 1.1-1c.2-.5.4-.9.4-1.4c0-.6-.2-1.1-.6-1.6c-.4-.5-1-.9-1.8-1.3l-2.3-1.2c-.9-.5-1.7-1.1-2.2-1.8c-.5-.6-.8-1.4-.8-2.4c0-.7.2-1.4.6-2c.3-.6.9-1.1 1.6-1.4c.7-.4 1.6-.6 2.5-.6c.8 0 1.6.2 2.4.5c.8.4 1.4.8 2 1.3v2.3c-.6-.7-1.3-1.4-2-1.8c-.8-.5-1.6-.7-2.4-.7c-.8 0-1.4.2-1.9.7c-.5.4-.8 1-.8 1.7c0 .5.2.9.5 1.3c.4.4 1 .8 1.8 1.3l2.2 1.2c1.1.5 1.9 1.2 2.4 1.9c.5.7.8 1.5.8 2.6c0 .8-.2 1.6-.7 2.2c-.4.7-1 1.2-1.8 1.6c-.8.4-1.8.5-2.8.5c-1 0-1.9-.1-2.8-.5c-.8-.3-1.4-.8-1.8-1.2v-2.4zm12.1 3.8V27.8h1.7l.1 2c.4-.7 1-1.3 1.6-1.7c.6-.4 1.3-.7 2.2-.7c.8 0 1.5.3 2 .7c.6.4 1 1.1 1.2 1.9c.4-.8 1-1.4 1.6-1.9c.7-.4 1.4-.7 2.3-.7c1 0 1.9.4 2.5 1.1c.6.7.9 1.6.9 2.9v7.8h-1.9s.05-7.62 0-7.6c0-.9-.1-1.6-.4-2c-.3-.5-.8-.7-1.5-.7c-.4 0-.9.2-1.3.4c-.5.3-.9.7-1.3 1.2c-.3.4-.6.9-.7 1.5c-.03-.02 0 7.2 0 7.2h-1.9s.03-7.66 0-7.7c0-.9-.1-1.5-.4-1.9c-.3-.5-.8-.7-1.5-.7c-.4 0-.9.2-1.3.4c-.5.3-.9.7-1.2 1.2c-.4.4-.7.9-.8 1.5c-.02-.02 0 7.2 0 7.2h-1.9zm17.9-3c0-.8.2-1.4.6-2c.3-.5.8-.8 1.5-1.1c.7-.3 1.6-.5 2.7-.7l2.9-.5c-.1-1-.3-1.8-.8-2.3c-.5-.5-1.3-.7-2.3-.7c-.7 0-1.4.2-2 .5c-.7.3-1.3.8-1.7 1.3v-1.8c.4-.4 1-.8 1.7-1c.7-.3 1.4-.5 2.2-.5c1.5 0 2.6.4 3.5 1.1c.8.8 1.2 1.9 1.2 3.3c.01.03 0 7.4 0 7.4h-1.4s-.37-1.74-.4-1.7c-.5.6-1.1 1.1-1.9 1.5c-.7.4-1.5.5-2.3.5c-1.1 0-1.9-.3-2.6-.8c-.6-.6-.9-1.5-.9-2.5zm1.8-.1c0 .6.2 1.1.6 1.4c.4.4.8.5 1.4.5c.8 0 1.5-.2 2.2-.7c.7-.4 1.3-1 1.7-1.8c-.02.01 0-2.2 0-2.2c0 0-1.93.36-1.9.4c-1.1.1-1.9.3-2.4.5c-.5.2-.9.4-1.2.7c-.2.3-.4.7-.4 1.2zm10.4 3.1V27.8h1.7s.08 1.95.1 2c.3-.8.8-1.3 1.3-1.7c.6-.5 1.3-.7 2.1-.7c.2 0 .4.1.6.1c.2 0 .4 0 .5.1v1.6c-.3-.1-.7-.1-1.2-.1c-.7 0-1.4.2-2 .7c-.6.5-1 1.1-1.3 2c.03-.03 0 7.4 0 7.4h-1.8zm9.4-10h-2.5v-1.4h2.5v-3.5h1.9v3.5h2.5v1.4h-2.5v10h-1.9v-10zm11.2 10V23.3s5.73-.04 5.7 0c1.1 0 2 .2 2.8.5c.8.4 1.4 1 1.9 1.6c.4.7.6 1.5.6 2.4v.3c0 .9-.2 1.7-.6 2.4c-.5.6-1.1 1.2-1.9 1.6c-.8.3-1.7.5-2.8.5c.03.03-3.8 0-3.8 0v6.6h-1.9zm5.5-8.2c1.1 0 2-.2 2.6-.8c.6-.5.9-1.2.9-2.1v-.3c0-.9-.3-1.6-.9-2.2c-.6-.5-1.5-.8-2.6-.8c.02.04-3.6 0-3.6 0v6.2s3.62.03 3.6 0zm6.3 5.2c0-.8.3-1.4.7-2c.3-.5.8-.8 1.5-1.1c.6-.3 1.5-.5 2.7-.7l2.8-.5c0-1-.3-1.8-.7-2.3c-.5-.5-1.3-.7-2.3-.7c-.7 0-1.4.2-2.1.5c-.6.3-1.2.8-1.6 1.3v-1.8c.4-.4 1-.8 1.6-1c.7-.3 1.5-.5 2.3-.5c1.4 0 2.6.4 3.4 1.1c.9.8 1.3 1.9 1.3 3.3c-.02.03 0 7.4 0 7.4h-1.5l-.3-1.7c-.5.6-1.2 1.1-1.9 1.5c-.7.4-1.5.5-2.3.5c-1.1 0-2-.3-2.6-.8c-.6-.6-1-1.5-1-2.5zm1.9-.1c0 .6.2 1.1.6 1.4c.3.4.8.5 1.4.5c.7 0 1.4-.2 2.2-.7c.7-.4 1.2-1 1.7-1.8c-.05.01 0-2.2 0-2.2c0 0-1.96.36-2 .4c-1 .1-1.8.3-2.3.5c-.6.2-1 .4-1.2.7c-.3.3-.4.7-.4 1.2zm10.3 3.1V27.8h1.7s.15 1.95.2 2c.3-.8.7-1.3 1.3-1.7c.6-.5 1.3-.7 2.1-.7c.2 0 .4.1.6.1c.2 0 .3 0 .4.1v1.6c-.3-.1-.7-.1-1.1-.1c-.8 0-1.4.2-2 .7c-.6.5-1.1 1.1-1.3 2c-.01-.03 0 7.4 0 7.4h-1.9zm9.6 0h-1.8V23.1h1.8v9.8l5.3-5.1h2.3l-5.8 5.5l6.3 5.9H252l-5.5-5.2v5.2zm11.3-13.3h-1.9v-2.4h1.9v2.4zm0 13.3h-1.9V27.8h1.9v11.4zm2.8 0V27.8h1.6l.2 2.3c.4-.8 1-1.4 1.7-1.9c.7-.5 1.5-.8 2.4-.8c1.2 0 2.1.4 2.8 1.1c.6.8 1 1.8 1 3.2c-.05-.02 0 7.5 0 7.5h-1.9s-.02-7.37 0-7.4c0-.9-.2-1.6-.5-2.1c-.4-.5-.9-.8-1.7-.8c-.5 0-1 .2-1.6.5c-.5.4-1 .8-1.4 1.3c-.4.6-.6 1.2-.8 1.8c.02-.04 0 6.7 0 6.7h-1.8zm11.4-6c0-1.2.2-2.2.6-3c.5-.9 1.1-1.6 1.8-2.1c.8-.4 1.6-.7 2.6-.7c.8 0 1.4.2 2.1.6c.6.4 1.1.9 1.5 1.5c.05 0 .2-1.7.2-1.7h1.7s-.03 11 0 11c0 1.1-.3 2-.7 2.8c-.4.8-1.1 1.4-2 1.8c-.8.4-1.8.7-3 .7c-.8 0-1.5-.1-2.1-.3c-.6-.2-1.1-.4-1.6-.8v-1.8c1 .9 2.3 1.3 3.7 1.3c1.2 0 2.1-.3 2.8-1c.7-.6 1-1.5 1-2.7V37c-.4.6-.9 1.1-1.5 1.4c-.7.4-1.4.6-2.1.6c-1 0-1.8-.3-2.6-.7c-.7-.5-1.3-1.2-1.8-2c-.4-.9-.6-1.9-.6-3.1zm1.9 0c0 .9.2 1.6.5 2.3c.3.6.7 1.1 1.2 1.5c.5.3 1.1.5 1.7.5c.7 0 1.4-.3 2-.8c.6-.5 1-1.1 1.3-1.9v-3.2c-.3-.8-.7-1.4-1.3-1.9c-.7-.5-1.3-.8-2-.8c-.6 0-1.2.2-1.7.5c-.5.4-.9.9-1.2 1.5c-.3.7-.5 1.4-.5 2.3zm17.2 6h-2l6.1-15.9h1.9l6 15.9H301l-1.7-4.6h-6.5l-1.7 4.6zm5-13.4l-2.7 7.2h5.3l-2.6-7.2zm8 10.5c.9 1.2 2.1 1.7 3.6 1.7c.8 0 1.4-.1 1.8-.4c.5-.4.7-.8.7-1.3c0-.4-.1-.8-.4-1c-.2-.3-.7-.6-1.3-.9l-1.6-.6c-.9-.4-1.6-.8-2.1-1.4c-.4-.5-.6-1.1-.6-1.9c0-.5.1-1 .4-1.5c.3-.5.8-.9 1.3-1.1c.6-.3 1.3-.5 2.2-.5c.6 0 1.3.2 1.9.4c.6.3 1.1.6 1.6.9v2c-.6-.6-1.1-1-1.7-1.3c-.6-.3-1.2-.5-1.8-.5c-.7 0-1.3.2-1.6.5c-.3.3-.5.6-.5 1.1c0 .3.1.6.4.9c.3.2.7.5 1.4.7l1.5.7c.9.3 1.6.8 2.1 1.4c.4.5.6 1.2.6 2c0 1-.4 1.8-1.2 2.4c-.8.6-1.8.9-3.1.9c-.8 0-1.5-.1-2.1-.3c-.6-.3-1.1-.6-1.5-.9v-2zm9.5 0c.9 1.2 2.1 1.7 3.6 1.7c.8 0 1.4-.1 1.8-.4c.5-.4.7-.8.7-1.3c0-.4-.1-.8-.4-1c-.2-.3-.6-.6-1.3-.9l-1.5-.6c-1-.4-1.7-.8-2.1-1.4c-.5-.5-.7-1.1-.7-1.9c0-.5.1-1 .4-1.5c.3-.5.8-.9 1.4-1.1c.5-.3 1.2-.5 2.1-.5c.6 0 1.3.2 1.9.4c.6.3 1.2.6 1.6.9v2c-.5-.6-1.1-1-1.7-1.3c-.6-.3-1.2-.5-1.8-.5c-.7 0-1.2.2-1.6.5c-.3.3-.5.6-.5 1.1c0 .3.1.6.4.9c.3.2.7.5 1.4.7l1.5.7c1 .3 1.6.8 2.1 1.4c.4.5.6 1.2.6 2c0 1-.4 1.8-1.2 2.4c-.8.6-1.8.9-3.1.9c-.8 0-1.5-.1-2.1-.3c-.6-.3-1.1-.6-1.5-.9v-2zm11.8-10.4h-1.9v-2.4h1.9v2.4zm0 13.3h-1.9V27.8h1.9v11.4zm2.3-2.9c1 1.2 2.2 1.7 3.7 1.7c.8 0 1.4-.1 1.8-.4c.4-.4.7-.8.7-1.3c0-.4-.2-.8-.4-1c-.2-.3-.7-.6-1.3-.9l-1.6-.6c-.9-.4-1.6-.8-2.1-1.4c-.4-.5-.6-1.1-.6-1.9c0-.5.1-1 .4-1.5c.3-.5.7-.9 1.3-1.1c.6-.3 1.3-.5 2.1-.5c.7 0 1.4.2 2 .4c.6.3 1.1.6 1.5.9v2c-.5-.6-1-1-1.6-1.3c-.6-.3-1.2-.5-1.9-.5c-.6 0-1.2.2-1.5.5c-.3.3-.5.6-.5 1.1c0 .3.1.6.4.9c.3.2.7.5 1.4.7l1.5.7c.9.3 1.6.8 2.1 1.4c.4.5.6 1.2.6 2c0 1-.4 1.8-1.2 2.4c-.8.6-1.8.9-3.1.9c-.8 0-1.5-.1-2.1-.3c-.7-.3-1.2-.6-1.6-.9v-2zm11.1-7.1h-2.5v-1.4h2.5v-3.5h1.9v3.5h2.5v1.4h-2.5v10h-1.9v-10zm10.2 10v-1.3s5.46-5.94 5.5-5.9c.7-.8 1.2-1.5 1.5-2.1c.3-.6.5-1.2.5-2c0-.9-.3-1.6-.8-2.2c-.6-.5-1.3-.8-2.2-.8c-.8 0-1.6.2-2.2.6c-.7.4-1.2 1-1.7 1.8v-2.4c.4-.4 1-.8 1.7-1.1c.7-.4 1.5-.5 2.3-.5c1 0 1.9.2 2.6.6c.8.4 1.3.9 1.7 1.6c.4.7.6 1.5.6 2.4c0 .7-.1 1.4-.4 2c-.2.6-.5 1.2-.9 1.7c-.4.5-.9 1.1-1.6 1.8c.04-.01-3.9 4.2-3.9 4.2h7.2v1.6H349z" stroke="none" fill="#fff"/></g></svg>