<?xml version="1.0" standalone="no"?><!DOCTYPE svg PUBLIC "-//W3C//DTD SVG 1.1//EN" "http://www.w3.org/Graphics/SVG/1.1/DTD/svg11.dtd"><svg xmlns="http://www.w3.org/2000/svg" version="1.1" width="363px" height="76.1px" viewBox="0 -7 363 76.1" style="top:-7px"><desc>19</desc><defs/><g id="Polygon110080"><path d="m318.4 15.4c0-.4 0-.8.1-1.2c-.03-.05-6 5-6 5l-3.1-3.7l10-8.5h4.5v32.2h7v4.8h-20.2v-4.8h7.7V15.4s.02 0 0 0zM346.2 44h-7l11.3-14.5s1.77-2.4 1.8-2.4c-1 .7-2 1.2-3.1 1.5c-1.1.3-2.2.5-3.4.5c-1.5 0-2.9-.3-4.2-.8c-1.3-.5-2.3-1.3-3.2-2.2c-.9-1-1.6-2.1-2.1-3.4c-.5-1.3-.8-2.7-.8-4.2c0-1.8.3-3.4 1-4.8c.6-1.5 1.5-2.7 2.6-3.7c1.2-1.1 2.5-1.9 4-2.5c1.5-.6 3.1-.8 4.9-.8c1.7 0 3.4.2 4.8.8c1.5.6 2.8 1.4 3.9 2.4c1 1 1.9 2.3 2.4 3.8c.6 1.5.9 3.1.9 5c0 2.3-.4 4.3-1.2 6.1c-.7 1.8-1.8 3.6-3 5.5c-.03-.05-9.6 13.7-9.6 13.7zM341 18.1c0 2.1.6 3.7 1.8 4.9c1.1 1.2 2.8 1.9 4.9 1.9c2.1 0 3.8-.7 5.1-1.9c1.3-1.3 1.9-2.9 1.9-4.9c0-2-.6-3.7-1.8-5c-1.2-1.3-2.9-1.9-5-1.9c-2 0-3.7.6-5 1.9c-1.2 1.2-1.9 2.9-1.9 5z" stroke="none" fill="#fff"/></g></svg>