<?xml version="1.0" standalone="no"?><!DOCTYPE svg PUBLIC "-//W3C//DTD SVG 1.1//EN" "http://www.w3.org/Graphics/SVG/1.1/DTD/svg11.dtd"><svg xmlns="http://www.w3.org/2000/svg" version="1.1" width="413px" height="31px" viewBox="0 -4 413 31" style="top:-4px"><desc>올바른 움직임으로 더 나은 변화를 만듭니다</desc><defs/><g id="Polygon109527"><path d="m15.2 4.9c0 .6-.1 1.2-.4 1.7c-.3.6-.6 1.1-1.1 1.5c-.5.4-1 .7-1.6.9c-.3.1-.5.2-.8.3v.8h7.7v2H1.1v-2h7.7s-.04-.83 0-.8c-.3-.1-.5-.2-.8-.3c-.6-.2-1.2-.5-1.6-.9c-.5-.4-.9-.9-1.2-1.5c-.2-.5-.4-1.1-.4-1.7c0-.6.2-1.2.4-1.7c.3-.6.7-1.1 1.2-1.5c.4-.4 1-.7 1.6-1c.7-.2 1.3-.3 2-.3c.7 0 1.4.1 2 .3c.7.3 1.2.6 1.7 1c.5.4.8.9 1.1 1.5c.3.5.4 1.1.4 1.7zm-2.5 0c0-.7-.2-1.3-.8-1.8c-.5-.5-1.1-.7-1.9-.7c-.7 0-1.3.2-1.9.7c-.5.5-.8 1.1-.8 1.8c0 .7.3 1.3.8 1.8c.6.5 1.2.7 1.9.7c.8 0 1.4-.2 1.9-.7c.6-.5.8-1.1.8-1.8zM17 21.1H3.3v-4.9h11v-1.1h-11v-1.9h13.5v4.8h-11v1.2H17v1.9zm13.8-4.8h-9.4V1.7h2.5v4.4h4.4V1.7h2.5v14.6zM28.3 14V8.3h-4.4v5.7h4.4zm7.5-13v6.5h3.1v2.4h-3.1v11.2h-2.5V1h2.5zm19.8 9.9H42V5.1h11V3.5h-11V1.4h13.5v5.8h-11v1.6h11.1v2.1zm-15.8 1.6h17.9v2.2H39.8v-2.2zm16 8.6H42.1v-4.9h2.6v2.7h11.1v2.2zM77.5 5.8c0-.4-.1-.8-.3-1.2c-.2-.4-.4-.7-.7-1c-.3-.2-.6-.5-1-.6c-.4-.2-.8-.3-1.2-.3c-.5 0-.9.1-1.3.3c-.4.1-.7.4-1 .6c-.3.3-.5.6-.7 1c-.1.4-.2.8-.2 1.2c0 .4.1.8.2 1.2c.2.4.4.7.7 1c.3.3.6.5 1 .6c.4.2.8.3 1.3.3c.4 0 .8-.1 1.2-.3c.4-.1.7-.3 1-.6c.3-.3.5-.6.7-1c.2-.4.3-.8.3-1.2zm2.4-.1c0 .7-.1 1.4-.4 2c-.3.6-.7 1.2-1.2 1.6c-.1.1-.2.2-.3.2c.02.05 5.2 0 5.2 0v2.2h-7.7v2.1h5.5v7.3H67.5v-7.3h5.5v-2.1h-7.7V9.5s5.22.05 5.2 0c-.1 0-.2-.1-.2-.2c-.6-.4-1-1-1.3-1.6c-.3-.6-.4-1.3-.4-2c0-.7.1-1.4.4-2c.3-.6.7-1.1 1.3-1.6c.5-.5 1.1-.8 1.8-1.1c.7-.3 1.4-.4 2.2-.4c.7 0 1.5.1 2.2.4c.6.3 1.2.6 1.8 1.1c.5.5.9 1 1.2 1.6c.3.6.4 1.3.4 2zm-1.4 10.2H70v3.1h8.5v-3.1zM101.2 1v11.5h-2.4V1h2.4zm-2.4 20.3v-5.2H88.3v-2.2h12.9v7.4h-2.4zM91.9 4h4.3V1.8H85.3v2.2h4.1s-.02.81 0 .8c0 1.3-.4 2.4-1.1 3.2c-1.1 1.3-2.4 2.3-3.8 2.9l1.6 1.7c1.9-1 3.4-2.3 4.6-3.9c1.2 1.6 2.8 2.8 4.9 3.6l1.2-1.7c-1.3-.6-2.5-1.4-3.6-2.4c-.9-.9-1.3-2-1.3-3.5v-.7zm23.2 2.6c0 .7-.2 1.3-.4 1.9c-.3.7-.7 1.2-1.2 1.7c-.5.4-1.1.8-1.7 1.1c-.7.2-1.4.4-2.2.4c-.7 0-1.4-.2-2.1-.4c-.6-.3-1.2-.7-1.7-1.1c-.5-.5-.9-1-1.2-1.7c-.3-.6-.4-1.2-.4-1.9c0-.8.1-1.4.4-2c.3-.7.7-1.2 1.2-1.7c.5-.4 1.1-.8 1.7-1c.7-.3 1.4-.5 2.1-.5c.8 0 1.5.2 2.2.5c.6.2 1.2.6 1.7 1c.5.5.9 1 1.2 1.7c.2.6.4 1.2.4 2zm-2.5 0c0-.8-.3-1.5-.9-2.1c-.5-.6-1.2-.9-2.1-.9c-.8 0-1.5.3-2.1.9c-.5.6-.8 1.3-.8 2.1c0 .8.3 1.4.8 2c.6.6 1.3.9 2.1.9c.9 0 1.6-.3 2.1-.9c.6-.6.9-1.2.9-2zm8-5.6v11.2h-2.5V1h2.5zm-2.5 14.5h-7.7v3.4h7.7v-3.4zm2.5 5.6h-12.7v-7.7h12.7v7.7zm18.1-13.5c0 .8-.2 1.6-.5 2.3c-.3.7-.8 1.4-1.4 1.9c-.5.6-1.2 1-2 1.3c-.7.3-1.6.5-2.4.5c-.9 0-1.7-.2-2.5-.5c-.8-.3-1.4-.7-2-1.3c-.6-.5-1-1.2-1.4-1.9c-.3-.7-.5-1.5-.5-2.3c0-.8.2-1.6.5-2.3c.4-.8.8-1.4 1.4-1.9c.6-.6 1.2-1 2-1.3c.8-.3 1.6-.5 2.5-.5c.8 0 1.7.2 2.4.5c.8.3 1.5.7 2 1.3c.6.5 1.1 1.1 1.4 1.9c.3.7.5 1.5.5 2.3zm-2.5 0c0-.5-.1-1-.3-1.4c-.2-.5-.5-.9-.8-1.2c-.4-.4-.8-.6-1.3-.8c-.4-.2-.9-.3-1.4-.3c-.6 0-1.1.1-1.5.3c-.5.2-.9.4-1.2.8c-.4.3-.7.7-.9 1.2c-.2.4-.3.9-.3 1.4c0 .5.1 1 .3 1.4c.2.5.5.9.9 1.2c.3.3.7.6 1.2.8c.4.2.9.3 1.5.3c.5 0 1-.1 1.4-.3c.5-.2.9-.5 1.3-.8c.3-.3.6-.7.8-1.2c.2-.4.3-.9.3-1.4zm5.1 8.7v2.3h-17.9v-2.3h17.9zm17.3-2.6H153v3.1h7.7v2.2h-17.9v-2.2h7.7v-3.1H145v-7h11V4.1h-11V1.9h13.5v7h-11v2.6h11.1v2.2zm11.2 2.2v-14h8.9v2.2h-6.4v9.6s2.45-.01 2.5 0c1.9 0 3.8-.2 5.7-.5v2.3c-1.8.3-3.8.4-5.9.4c-.01.04-4.8 0-4.8 0zM182.4 1h2.4v20.1h-2.4V9.7H177V7.5h5.4V1zM195 15.6V1.8h2.5v11.5s3.06.04 3.1 0c2.1 0 4.1-.2 6-.6c.03.02 0-11.7 0-11.7h2.5v6.4h3.1v2.3h-3.1v11.4h-2.5s.03-6.1 0-6.1c-1.9.4-3.9.6-6.1.6H195zm33.2-9.3c0 .7-.2 1.5-.5 2.1c-.3.7-.8 1.3-1.3 1.8c-.2.1-.3.3-.5.4c.03-.02 5.2 0 5.2 0v2.2h-17.9v-2.2s5.09-.02 5.1 0c-.2-.1-.3-.3-.4-.4c-.6-.5-1-1.1-1.4-1.8c-.3-.6-.4-1.4-.4-2.1c0-.8.1-1.5.4-2.2c.4-.7.8-1.2 1.4-1.8c.5-.5 1.1-.9 1.9-1.2c.7-.3 1.5-.4 2.3-.4c.8 0 1.6.1 2.4.4c.7.3 1.3.7 1.9 1.2c.5.6 1 1.1 1.3 1.8c.3.7.5 1.4.5 2.2zm-2.5.1c0-.5-.1-.9-.3-1.4c-.2-.4-.5-.7-.8-1c-.3-.4-.7-.6-1.1-.8c-.4-.2-.9-.3-1.4-.3c-.5 0-.9.1-1.4.3c-.4.2-.8.4-1.1.8c-.3.3-.6.6-.8 1c-.2.5-.3.9-.3 1.4c0 .5.1.9.3 1.3c.2.5.5.8.8 1.1c.3.4.7.6 1.1.8c.5.2.9.3 1.4.3c.5 0 1-.1 1.4-.3c.4-.2.8-.4 1.1-.8c.3-.3.6-.6.8-1.1c.2-.4.3-.8.3-1.3zm3.5 14.7h-13.7v-6.3h2.5v4h11.2v2.3zm20.2-8.1H240V1.6h2.5v3.3h4.5V1.6h2.4v2h3.3V1h2.5v14.7h-2.5v-5.2h-3.3v2.5zm0-7.3v2.7h3.3V5.7h-3.3zm-2.4 5.1V7h-4.5v3.8h4.5zm8.8 10.3h-13v-6.2h2.5v4h10.5v2.2zm7.4-18.4v-2h2.6v2h4.5v2h-2.2v.1c.4.4.8.9 1.1 1.5c.2.5.4 1.1.4 1.8c0 .6-.2 1.2-.4 1.8c-.3.6-.7 1.1-1.1 1.5c-.5.4-1 .8-1.6 1c-.3.1-.5.2-.8.3v2.5c2 0 3.9-.1 5.7-.3c.04 0 0-13.9 0-13.9h2.5v7.3h2.8v2.4h-2.8v10.4h-2.5s.04-4.03 0-4c-1.8.2-3.9.3-6.2.3h-7.5v-2.2h5.6s-.02-2.53 0-2.5c-.3-.1-.6-.2-.8-.3c-.6-.2-1.2-.6-1.6-1c-.5-.4-.9-.9-1.1-1.5c-.3-.6-.4-1.2-.4-1.8c0-.7.1-1.3.4-1.8c.2-.6.6-1.1 1.1-1.5c-.04-.04 0-.1 0-.1h-2.4v-2h4.7zm3.9 5.3c0-.7-.2-1.3-.8-1.9c-.5-.5-1.1-.7-1.8-.7c-.7 0-1.4.2-1.9.7c-.5.6-.8 1.2-.8 1.9c0 .7.3 1.3.8 1.9c.5.5 1.2.7 1.9.7c.7 0 1.3-.2 1.8-.7c.6-.6.8-1.2.8-1.9zm26.1 1.2h-13.6V4.4h11V3.2h-11V1.3h13.5v4.8h-11v1.2h11.1v1.9zm-15.8 1.1h17.9v1.9h-17.9v-1.9zm15.9 10.8h-13.7v-4.8h11v-1.1h-11v-1.8h13.5v4.7h-11v1.1h11.2v1.9zM310.8 4h-4.6v6.1h4.6V4zm2.4 8.3h-9.4V1.8h9.4v10.5zM318.4 1v5.3h2.8v2.3h-2.8v7.1h-2.5V1h2.5zm.6 20.1h-13v-6.5h2.5v4.2H319v2.3zm5.5-19.6h13.4v2.2H327v2.7h11v2.2h-13.5V1.5zm15.7 8.8v2.1h-17.9v-2.1h17.9zM338 21.1h-13.5v-7.7h2.5v1.6h8.5v-1.6h2.5v7.7zm-2.5-2.1v-2H327v2h8.5zm7.8-3.4V1.8h2.5v11.5s3.57.04 3.6 0c2.1 0 4.2-.1 6.3-.4c.02-.02 0-11.9 0-11.9h2.5v20.1h-2.5s.02-5.94 0-5.9c-2 .2-4.1.4-6.5.4h-5.9zm18.9.3v-14h8.7v2.2h-6.2v9.6s2.49-.01 2.5 0c2 0 4.3-.2 6.7-.6V1h2.5v6.5h3v2.4h-3v11.2h-2.5v-5.8c-2.3.4-4.5.6-6.8.6c.02.04-4.9 0-4.9 0z" stroke="none" fill="#fff"/></g></svg>