<?xml version="1.0" standalone="no"?><!DOCTYPE svg PUBLIC "-//W3C//DTD SVG 1.1//EN" "http://www.w3.org/Graphics/SVG/1.1/DTD/svg11.dtd"><svg xmlns="http://www.w3.org/2000/svg" version="1.1" width="158.3px" height="48.8px" viewBox="0 -6 158.3 48.8" style="top:-6px"><desc>참여 계열사 (단위: 개 사)</desc><defs/><g id="Polygon110026"><path d="m3.9 37.1l-.9.4c-.6-.9-1.1-1.9-1.4-3c-.3-1.1-.5-2.2-.5-3.5c0-1.2.2-2.4.5-3.4c.3-1.1.8-2.1 1.4-3.1l.9.4c-.5.9-.9 1.9-1.2 2.9c-.3 1.1-.4 2.1-.4 3.2c0 1.1.1 2.2.4 3.2c.3 1 .7 2 1.2 2.9zm10.2-8.6h1.6v1h-1.6v4h-1.3v-8.3h1.3v3.3zm-2.4 1.6l.1 1c-.4.1-.7.2-1.1.2c-.4.1-.8.1-1.2.2h-3c0 .03-.9 0-.9 0v-5.4h5.1v1.1H6.9s-.02 3.25 0 3.3c.5 0 1-.1 1.5-.1h1.2c.3 0 .7-.1 1-.1c.4-.1.7-.1 1.1-.2zm-3.6 2.6v2.7h6.4v1.1H6.8v-3.8h1.3zm16.8-7.5h1.3v11.5h-1.3V25.2zm-4.4 5.3c-.5 0-.8-.1-1.2-.2c-.4-.1-.7-.3-.9-.5c-.3-.2-.5-.4-.7-.7c-.1-.3-.2-.7-.2-1c0-.4.1-.7.2-1c.2-.3.4-.5.7-.7c.2-.3.5-.4.9-.5c.4-.2.7-.2 1.2-.2c.4 0 .8 0 1.2.2c.3.1.6.2.9.5c.3.2.5.4.6.7c.2.3.2.6.2 1c0 .3 0 .7-.2 1c-.1.3-.3.5-.6.7c-.3.2-.6.4-.9.5c-.4.1-.8.2-1.2.2zm0-3.7c-.5 0-.9.1-1.3.3c-.3.3-.4.6-.4 1c0 .4.1.7.4 1c.4.2.8.3 1.3.3c.5 0 .9-.1 1.2-.3c.3-.3.5-.6.5-1c0-.4-.2-.7-.5-1c-.3-.2-.7-.3-1.2-.3zm3.7 4.1l.1 1c-.5.1-1.1.2-1.6.2c-.5.1-1 .2-1.5.2v4h-1.3s-.02-3.93 0-3.9h-3l-.2-1.1h3.6c.7 0 1.3-.1 2-.1l1.9-.3zm5.9-2.7v1.5h-1.5v-1.5h1.5zm0 5.2v1.6h-1.5v-1.6h1.5zM43 25.2h1.2v11.5H43v-6h-1.4v5.4h-1.2V25.5h1.2v4.2h1.4v-4.5zm-8.1 1.4s4.47.04 4.5 0c0 .8-.1 1.5-.2 2.3c-.2.7-.4 1.4-.7 2c-.4.6-.8 1.2-1.3 1.8c-.6.6-1.3 1.1-2.1 1.6l-.7-1c.6-.3 1.1-.7 1.6-1.1c.4-.4.8-.9 1.1-1.4c.3-.4.5-.9.7-1.5c.1-.5.2-1 .3-1.6h-3.2v-1.1zm24.6 3.1v1.1h-1.8v5.9h-1.3V25.2h1.3v4.5h1.8zm-6.6-3.6s-.02 1.92 0 1.9c0 .5 0 1 .2 1.5c.1.5.3 1 .5 1.5l.9 1.2c.4.3.7.6 1.2.8l-.8 1c-.6-.3-1.2-.7-1.6-1.3c-.5-.6-.8-1.3-1.1-2c-.2.8-.6 1.5-1 2.1c-.5.6-1.1 1.1-1.7 1.5l-.8-1.1c.4-.2.8-.5 1.2-.9l.9-1.2l.6-1.5c.1-.5.2-1 .2-1.6c-.03.02 0-1.9 0-1.9h1.3zm8.4 11.4l-.9-.4c.6-.9 1-1.9 1.2-2.9c.3-1 .4-2.1.4-3.2c0-1.1-.1-2.1-.4-3.2c-.2-1-.6-2-1.2-2.9l.9-.4c.6 1 1.1 2 1.4 3.1c.4 1 .5 2.2.5 3.4c0 1.3-.1 2.4-.5 3.5c-.3 1.1-.8 2.1-1.4 3z" stroke="none" fill="#fff"/></g><g id="Polygon110025"><path d="m10.1 7.8l-1 1.8c-.9-.3-1.7-.6-2.3-1.1c-.6-.4-1-1-1.4-1.6c-.4.7-.8 1.3-1.4 1.8c-.7.5-1.4.9-2.4 1.1l-1-1.7c.6-.2 1.2-.4 1.6-.7c.4-.3.8-.6 1.1-.9c.3-.4.5-.8.7-1.2c.1-.4.2-.8.2-1.2c.03-.02-3 0-3 0V2.3h3V.7h2.3v1.6h3.1v1.8s-3.12-.02-3.1 0c0 .4.1.7.2 1.1c.2.4.4.8.7 1.1c.3.3.7.6 1.1.9c.5.3 1 .5 1.6.6zm5-3.4v1.9h-2v3.6h-2.3V.8h2.3v3.6h2zM2.9 16.2v-5.6h10.2v5.6H2.9zm2.2-3.9v2.2h5.8v-2.2H5.1zM27.2.7h2.2v15.8h-2.2v-5.9s-3.21.04-3.2 0c-.4.8-.8 1.4-1.4 1.8c-.6.4-1.3.7-2 .6c-.6 0-1.1-.1-1.6-.4c-.5-.2-1-.6-1.3-1.1c-.4-.5-.7-1.1-.9-1.7c-.2-.7-.3-1.5-.3-2.4c0-.8.1-1.6.3-2.3c.2-.7.5-1.3.9-1.7c.3-.5.8-.9 1.3-1.2c.5-.2 1-.3 1.6-.3c.7 0 1.3.1 1.9.5c.5.4 1 .9 1.4 1.6c-.05-.04 3.3 0 3.3 0V.7zM20.6 11c.5 0 1-.3 1.4-.9c.3-.6.5-1.5.5-2.7c0-1.1-.2-2-.5-2.6c-.4-.6-.9-.9-1.4-.9c-.6 0-1.1.3-1.4.9c-.4.6-.6 1.5-.6 2.6c0 1.2.2 2.1.6 2.7c.3.6.8.9 1.4.9zm4-3.6c0 .5 0 1-.1 1.4c.01.02 2.7 0 2.7 0v-3s-2.74-.04-2.7 0c.1.5.1 1 .1 1.6zM47 .7h2.1v15.7H47V.7zm-3.3 4.2V1.1h2.1v14.6h-2.1v-5.1h-2.1V8.8h2.1V6.7s-1.85-.02-1.8 0c-.4 1.3-1 2.5-1.8 3.6c-.8 1-2 2-3.4 2.9l-1.3-1.6c.8-.5 1.4-1 2-1.5c.6-.5 1-1.1 1.4-1.7c.4-.5.7-1.2.9-1.8c.2-.7.4-1.4.4-2.2h-3.8V2.6s6.06.02 6.1 0c0 .4 0 .8-.1 1.2c0 .4 0 .7-.1 1.1h1.5zM62 7.3s-3.38-.04-3.4 0c-.4.3-.8.6-1.3.8c-.6.2-1.2.3-1.8.3c-.6 0-1.1 0-1.6-.2c-.5-.2-1-.5-1.3-.8c-.4-.3-.7-.7-.9-1.1c-.2-.5-.3-1-.3-1.5c0-.5.1-1 .3-1.4c.2-.5.5-.9.9-1.2c.3-.3.8-.6 1.3-.8c.5-.1 1-.2 1.6-.2c.6 0 1.2.1 1.7.3c.6.2 1 .5 1.4.8c0 .05 3.4 0 3.4 0V.8h2.3v7.8H62V7.3zm-8.5-2.5c0 .6.2 1.1.6 1.4c.3.3.8.4 1.4.4c.6 0 1.1-.1 1.4-.4c.4-.3.6-.8.6-1.4c0-.5-.2-1-.6-1.3c-.3-.3-.8-.5-1.4-.5c-.6 0-1.1.2-1.4.5c-.4.3-.6.8-.6 1.3zm8.5.7V4.1s-2.47-.02-2.5 0c.1.1.1.2.1.3v1.1c-.05.03 2.4 0 2.4 0zm-5.8 9h8.5v1.7H54v-4.3h8v-.9h-8.1V9.3h10.4v4.2h-8.1v1zm25.1-7.7v1.9H79v7.7h-2.3V.8h2.3v6h2.3zM72.5 2v2.3c0 .7.1 1.3.2 2c.1.7.4 1.4.7 2c.2.6.6 1.2 1.1 1.7c.4.4 1 .8 1.6 1.2l-1.4 1.7c-.8-.4-1.5-1-2-1.7c-.6-.7-1-1.5-1.3-2.5c-.4 1-.8 1.9-1.4 2.7c-.6.8-1.4 1.4-2.3 1.8l-1.3-1.8c.7-.3 1.2-.7 1.7-1.2c.5-.5.9-1.1 1.2-1.8c.3-.6.5-1.3.7-2c.2-.7.2-1.4.2-2.1c.03-.05 0-2.3 0-2.3h2.3z" stroke="none" fill="#fff"/></g></svg>