<?xml version="1.0" standalone="no"?><!DOCTYPE svg PUBLIC "-//W3C//DTD SVG 1.1//EN" "http://www.w3.org/Graphics/SVG/1.1/DTD/svg11.dtd"><svg xmlns="http://www.w3.org/2000/svg" version="1.1" width="58px" height="145.7px" viewBox="0 -21 58 145.7" style="top:-21px"><desc>2-6</desc><defs/><g id="Polygon58366"><path d="m2.7 54.4c0-16.7 11.5-27.9 27-27.9c15.5 0 25.4 10.2 25.4 25.6c0 2-.3 4.9-.5 6.4H17.9c1.2 6 5.5 10.4 14.2 10.4c6.1 0 10.9-3.6 13.5-6.9l8.2 10.2c-4.8 5.2-12.4 9.7-22.5 9.7c-17.7 0-28.6-12.4-28.6-27.5zm15.7-7.1h21.8c-.6-5.5-4.5-8.4-10.5-8.4c-5.6 0-9.6 2.8-11.3 8.4z" stroke="none" fill="#fff"/></g></svg>