<?xml version="1.0" standalone="no"?><!DOCTYPE svg PUBLIC "-//W3C//DTD SVG 1.1//EN" "http://www.w3.org/Graphics/SVG/1.1/DTD/svg11.dtd"><svg xmlns="http://www.w3.org/2000/svg" version="1.1" width="1596px" height="36.5px" viewBox="0 -6 1596 36.5" style="top:-6px"><desc>외장_사이드_텍스트_1@</desc><defs/><g id="Polygon59139"><path d="m.5 4.6V2.9h11.8v1.7H7.4v14.6h-2V4.6H.5zm13.6-2.4h1.9v6.6c.6-.9 2-1.8 3.6-1.8c2.7 0 4.3 1.8 4.3 4.8c-.03-.02 0 7.4 0 7.4H22s-.05-7.22 0-7.2c0-2.2-1.1-3.3-2.9-3.3c-1.6 0-2.8 1-3.1 2.2v8.3h-1.9v-17zm12.1 11c0-3.7 2.1-6.2 5.4-6.2c3.2 0 5.2 2.5 5.2 5.9c0 .3-.1.7-.1.9h-8.5c.2 2.5 1.5 4 3.6 4c1.4 0 2.6-.7 3.3-1.8l1.3 1.1c-.9 1.3-2.4 2.4-4.7 2.4c-3.4 0-5.5-2.4-5.5-6.3zm2-1h6.6c-.2-2.1-1.4-3.5-3.2-3.5c-1.8 0-3.1 1.3-3.4 3.5zm21.9-2.1c-.7-1-1.6-1.4-2.6-1.4c-1.2 0-1.8.7-1.8 1.6c0 .9.5 1.4 1.5 1.6l1 .2c2.3.5 3.6 1.6 3.6 3.6c0 2-1.6 3.8-4.5 3.8c-2.1 0-3.6-1.2-4.5-2.5l1.3-1.2c.7 1.1 1.8 2 3.3 2c1.5 0 2.5-.7 2.5-1.9c0-1.1-.9-1.7-2.2-2l-1-.2c-1.9-.4-3-1.5-3-3.2c0-1.8 1.4-3.5 3.9-3.5c1.6 0 2.9.8 3.7 2l-1.2 1.1zm6-7.9v17h-2v-17h2zm11.6 11c0-2.8-1.4-4.5-3.6-4.5c-2.2 0-3.6 1.7-3.6 4.5c0 2.9 1.4 4.6 3.6 4.6c2.2 0 3.6-1.7 3.6-4.6zm2 0c0 3.7-2.2 6.3-5.6 6.3c-3.4 0-5.6-2.6-5.6-6.3c0-3.6 2.2-6.2 5.6-6.2c3.4 0 5.6 2.6 5.6 6.2zm1.7-.3c0-3.4 2-5.9 5-5.9c1.5 0 2.9.8 3.7 2c.02-.05 0-1.7 0-1.7h1.9s-.04 10.87 0 10.9c0 3-1.7 5.8-5.4 5.8c-2.6 0-4.2-1.4-4.9-3l1.5-.9c.5 1.3 1.7 2.2 3.3 2.2c2.6 0 3.5-1.9 3.5-4.1v-1.3c-.8 1.1-2.1 1.8-3.6 1.8c-3 0-5-2.4-5-5.8zM80 15v-4.2c-.5-1.2-1.7-2.1-3.2-2.1c-2.1 0-3.4 1.6-3.4 4.2c0 2.5 1.3 4.1 3.4 4.1c1.5 0 2.7-.8 3.2-2zm4.3.6c0-2.2 1.7-4 4.3-4c1.3 0 2.5.5 3.4 1.4v-1.2c0-1.7-1-3.1-2.9-3.1c-1.5 0-2.2.5-3 1.4L85 8.8c.8-.9 2-1.8 4.1-1.8c3.1 0 4.8 1.9 4.8 4.7c-.02-.01 0 7.5 0 7.5H92s.03-1.18 0-1.2c-.9 1-2.1 1.5-3.4 1.5c-2.6 0-4.3-1.8-4.3-3.9zm7.7.8v-1.7c-.7-1-2-1.5-3.1-1.5c-1.9 0-2.7 1.3-2.7 2.4c0 1 .8 2.3 2.7 2.3c1.1 0 2.4-.5 3.1-1.5zm4.9-9.1h1.9v1.6c.6-.9 2-1.9 3.6-1.9c2.8 0 4.3 1.8 4.3 4.8c.04-.02 0 7.4 0 7.4h-1.9s.02-7.22 0-7.2c0-2.2-1-3.3-2.9-3.3c-1.6 0-2.7 1-3 2.2c-.04-.03 0 8.3 0 8.3h-2V7.3zm18.6 1.6h-2V7.3h2s.02-1.76 0-1.8c0-2 1.2-3.5 3.6-3.5c.3 0 .7 0 1 .1c-.04-.04 0 1.5 0 1.5c0 0-.62.05-.6 0c-1.4 0-2.1.6-2.1 2c.04-.03 0 1.7 0 1.7h2.7v1.6h-2.7v10.3h-1.9V8.9zm14.7 4.3c0-2.8-1.4-4.5-3.6-4.5c-2.2 0-3.6 1.7-3.6 4.5c0 2.9 1.4 4.6 3.6 4.6c2.2 0 3.6-1.7 3.6-4.6zm2 0c0 3.7-2.2 6.3-5.6 6.3c-3.4 0-5.6-2.6-5.6-6.3c0-3.6 2.2-6.2 5.6-6.2c3.4 0 5.6 2.6 5.6 6.2zm2.4-5.9h1.9s-.02 2.13 0 2.1c.6-1.3 1.8-2.4 3.5-2.4c.2 0 .3 0 .5.1v1.9s-.64.02-.6 0c-1.6 0-2.8.9-3.3 2.7c-.05-.01 0 7.5 0 7.5h-2V7.3zm13.5 8.1c-.02.01 0-6.5 0-6.5h-2.2V7.3h2.2V4.2h1.9v3.1h2.7v1.6H150v6.5c0 1.6.7 2.2 2.3 2.2h.4s-.04 1.62 0 1.6c-.3.1-.6.1-.9.1c-2.5 0-3.7-1.2-3.7-3.9zm6.7-13.2h2s-.05 6.61 0 6.6c.6-.9 1.9-1.8 3.5-1.8c2.8 0 4.3 1.8 4.3 4.8c.03-.02 0 7.4 0 7.4h-1.9s.01-7.22 0-7.2c0-2.2-1-3.3-2.9-3.3c-1.6 0-2.7 1-3 2.2c-.05-.03 0 8.3 0 8.3h-2v-17zm12.1 11c0-3.7 2.2-6.2 5.4-6.2c3.2 0 5.2 2.5 5.2 5.9v.9H169c.1 2.5 1.4 4 3.5 4c1.5 0 2.7-.7 3.4-1.8l1.3 1.1c-.9 1.3-2.4 2.4-4.8 2.4c-3.4 0-5.5-2.4-5.5-6.3zm2.1-1h6.5c-.1-2.1-1.4-3.5-3.2-3.5c-1.8 0-3 1.3-3.3 3.5zm16.2-9.3h1.8s7.74 11.07 7.7 11.1c.7.8 1.2 1.7 1.3 2h.1c-.1-.3-.1-1.4-.1-2.4c-.03-.04 0-10.7 0-10.7h2v16.3h-1.8s-7.77-11.09-7.8-11.1c-.6-.9-1.1-1.7-1.3-2.1c.1.4.1 1.4.1 2.5c.01.02 0 10.7 0 10.7h-2V2.9zm23.2 16.3h-1.9v-17h1.9s.03 6.7 0 6.7c.9-1.1 2.3-1.9 3.7-1.9c3.2 0 5.2 2.6 5.2 6.2c0 3.7-2 6.3-5.2 6.3c-1.5 0-2.9-.8-3.7-2c-.05.02 0 1.7 0 1.7zm6.9-6c0-2.8-1.3-4.5-3.6-4.5c-1.5 0-2.7.9-3.3 2.2v4.7c.6 1.3 1.8 2.2 3.3 2.2c2.3 0 3.6-1.7 3.6-4.6zm4.5-5.9h1.8s.04 2.13 0 2.1c.7-1.3 1.9-2.4 3.6-2.4c.1 0 .3 0 .5.1c-.03-.02 0 1.9 0 1.9c0 0-.68.02-.7 0c-1.6 0-2.7.9-3.3 2.7v7.5h-1.9V7.3zm6.4 8.3c0-2.2 1.7-4 4.4-4c1.3 0 2.5.5 3.3 1.4v-1.2c0-1.7-.9-3.1-2.9-3.1c-1.4 0-2.1.5-3 1.4l-1.1-1.3c.9-.9 2.1-1.8 4.2-1.8c3.1 0 4.8 1.9 4.8 4.7c-.04-.01 0 7.5 0 7.5H234V18c-.9 1-2.1 1.5-3.4 1.5c-2.7 0-4.4-1.8-4.4-3.9zm7.7.8v-1.7c-.6-1-1.9-1.5-3-1.5c-1.9 0-2.7 1.3-2.7 2.4c0 1 .8 2.3 2.7 2.3c1.1 0 2.4-.5 3-1.5zm5-9.1h1.9s-.03 1.63 0 1.6c.6-.9 1.9-1.9 3.6-1.9c2.8 0 4.3 1.8 4.3 4.8c.02-.02 0 7.4 0 7.4h-1.9V12c0-2.2-1.1-3.3-2.9-3.3c-1.6 0-2.7 1-3.1 2.2c.04-.03 0 8.3 0 8.3h-1.9V7.3zM260 17.5c-.9 1.2-2.3 2-3.8 2c-3.1 0-5.2-2.6-5.2-6.3c0-3.6 2.1-6.2 5.2-6.2c1.5 0 2.9.8 3.7 1.9c.04 0 0-6.7 0-6.7h2v17H260s.01-1.68 0-1.7zm-.1-1.9v-4.7c-.5-1.3-1.8-2.2-3.3-2.2c-2.2 0-3.6 1.7-3.6 4.5c0 2.9 1.4 4.6 3.6 4.6c1.5 0 2.8-.9 3.3-2.2zm12-8.3v11.9H270V7.3h1.9zm.2-5.1v2.4h-2.4V2.2h2.4zm9 7.9c-.6-1-1.5-1.4-2.5-1.4c-1.2 0-1.8.7-1.8 1.6c0 .9.5 1.4 1.5 1.6l1 .2c2.3.5 3.6 1.6 3.6 3.6c0 2-1.7 3.8-4.5 3.8c-2.1 0-3.6-1.2-4.5-2.5l1.3-1.2c.7 1.1 1.8 2 3.3 2c1.5 0 2.5-.7 2.5-1.9c0-1.1-.9-1.7-2.3-2l-1-.2c-1.8-.4-2.9-1.5-2.9-3.2c0-1.8 1.4-3.5 3.8-3.5c1.7 0 3 .8 3.8 2l-1.3 1.1zm11.1-8.4l-1.1 3.8h1.4v2.4h-2.8V5.8l1.2-4.1h1.3zm3.6 1.2h1.8s7.74 11.07 7.7 11.1c.7.8 1.2 1.7 1.3 2h.1c-.1-.3-.1-1.4-.1-2.4c-.04-.04 0-10.7 0-10.7h2v16.3h-1.8S299.02 8.11 299 8.1c-.6-.9-1.2-1.7-1.3-2.1c.1.4.1 1.4.1 2.5v10.7h-2V2.9zm15.6 10.3c0-3.7 2.2-6.2 5.4-6.2c3.2 0 5.2 2.5 5.2 5.9v.9h-8.5c.1 2.5 1.4 4 3.5 4c1.5 0 2.7-.7 3.4-1.8l1.3 1.1c-.9 1.3-2.4 2.4-4.8 2.4c-3.4 0-5.5-2.4-5.5-6.3zm2.1-1h6.5c-.1-2.1-1.4-3.5-3.2-3.5c-1.8 0-3 1.3-3.3 3.5zm9.2-4.9h2.1l2.7 7.7c.3.9.6 1.8.6 2.2h.1c0-.4.3-1.3.6-2.2c.04-.02 2.8-7.7 2.8-7.7h2l-4.5 11.9h-1.9l-4.5-11.9zm11.7 5.9c0-3.7 2.2-6.2 5.4-6.2c3.2 0 5.2 2.5 5.2 5.9c0 .3 0 .7-.1.9h-8.5c.2 2.5 1.5 4 3.6 4c1.5 0 2.7-.7 3.4-1.8l1.3 1.1c-.9 1.3-2.5 2.4-4.8 2.4c-3.4 0-5.5-2.4-5.5-6.3zm2.1-1h6.5c-.1-2.1-1.4-3.5-3.2-3.5c-1.8 0-3.1 1.3-3.3 3.5zm10.8-4.9h1.9v2.1c.6-1.3 1.8-2.4 3.5-2.4c.2 0 .4 0 .5.1c.02-.02 0 1.9 0 1.9c0 0-.62.02-.6 0c-1.6 0-2.8.9-3.3 2.7c-.04-.01 0 7.5 0 7.5h-2V7.3zm14.6 11.8c0 2.3-1 3.9-2.6 4.9l-1.1-1.4c1.2-1 1.7-1.9 1.7-3.6c.05-.02 0-11.7 0-11.7h2s-.03 11.76 0 11.8zm.2-16.9v2.4h-2.4V2.2h2.4zm12.6 17h-1.8s-.02-1.61 0-1.6c-.7.9-2 1.9-3.6 1.9c-2.8 0-4.4-1.8-4.4-4.8c.03.01 0-7.4 0-7.4h2s-.05 7.22 0 7.2c0 2.2 1 3.3 2.8 3.3c1.6 0 2.7-1 3.1-2.2V7.3h1.9v11.9zm9.3-9.1c-.7-1-1.6-1.4-2.6-1.4c-1.2 0-1.8.7-1.8 1.6c0 .9.5 1.4 1.5 1.6l1 .2c2.3.5 3.6 1.6 3.6 3.6c0 2-1.6 3.8-4.5 3.8c-2 0-3.6-1.2-4.4-2.5l1.2-1.2c.7 1.1 1.8 2 3.3 2c1.5 0 2.5-.7 2.5-1.9c0-1.1-.9-1.7-2.2-2l-1-.2c-1.9-.4-3-1.5-3-3.2c0-1.8 1.4-3.5 3.9-3.5c1.6 0 2.9.8 3.7 2l-1.2 1.1zm4.7 5.3V8.9h-2.1V7.3h2.1V4.2h1.9v3.1h2.7v1.6h-2.7s.02 6.51 0 6.5c0 1.6.7 2.2 2.3 2.2h.4s-.02 1.62 0 1.6c-.3.1-.6.1-.9.1c-2.4 0-3.7-1.2-3.7-3.9zm19.9 2.1c-.9 1.2-2.3 2-3.8 2c-3.2 0-5.2-2.6-5.2-6.3c0-3.6 2-6.2 5.2-6.2c1.5 0 2.8.8 3.7 1.9c.02 0 0-6.7 0-6.7h1.9v17h-1.8v-1.7zm-.1-1.9v-4.7c-.5-1.3-1.8-2.2-3.3-2.2c-2.2 0-3.6 1.7-3.6 4.5c0 2.9 1.4 4.6 3.6 4.6c1.5 0 2.8-.9 3.3-2.2zm5.2-8.3h1.8v2.1c.6-1.3 1.8-2.4 3.5-2.4c.2 0 .4 0 .5.1c.03-.02 0 1.9 0 1.9c0 0-.62.02-.6 0c-1.6 0-2.8.9-3.3 2.7c-.03-.01 0 7.5 0 7.5h-1.9V7.3zm9.6 0v11.9h-2V7.3h2zm.2-5.1v2.4h-2.4V2.2h2.4zm1.7 5.1h2s2.73 7.68 2.7 7.7c.4.9.7 1.8.7 2.2c0-.4.3-1.3.7-2.2c-.03-.02 2.7-7.7 2.7-7.7h2l-4.5 11.9h-1.8l-4.5-11.9zm11.7 5.9c0-3.7 2.1-6.2 5.4-6.2c3.1 0 5.1 2.5 5.1 5.9v.9h-8.5c.1 2.5 1.4 4 3.5 4c1.5 0 2.7-.7 3.4-1.8l1.3 1.1c-.9 1.3-2.4 2.4-4.8 2.4c-3.4 0-5.4-2.4-5.4-6.3zm2-1h6.5c-.1-2.1-1.3-3.5-3.1-3.5c-1.9 0-3.1 1.3-3.4 3.5zm10.6 5.5h2.9v2.8h-2.9v-2.8zm5.8-9.7l1.1-3.9H455V1.7h2.7v2.1L456.6 8h-1.3zm8.6-3.4V2.9h11.8v1.7h-4.9v14.6h-2V4.6h-4.9zm13.6-2.4h1.9s-.02 6.61 0 6.6c.6-.9 1.9-1.8 3.5-1.8c2.8 0 4.4 1.8 4.4 4.8c-.05-.02 0 7.4 0 7.4h-2s.03-7.22 0-7.2c0-2.2-1-3.3-2.8-3.3c-1.7 0-2.8 1-3.1 2.2c-.02-.03 0 8.3 0 8.3h-1.9v-17zm14.7 5.1v11.9h-1.9V7.3h1.9zm.3-5.1v2.4h-2.4V2.2h2.4zm9 7.9c-.7-1-1.6-1.4-2.6-1.4c-1.2 0-1.8.7-1.8 1.6c0 .9.5 1.4 1.5 1.6l1 .2c2.3.5 3.6 1.6 3.6 3.6c0 2-1.6 3.8-4.4 3.8c-2.1 0-3.7-1.2-4.5-2.5l1.2-1.2c.7 1.1 1.8 2 3.3 2c1.5 0 2.5-.7 2.5-1.9c0-1.1-.9-1.7-2.2-2l-1-.2c-1.9-.4-2.9-1.5-2.9-3.2c0-1.8 1.3-3.5 3.8-3.5c1.6 0 2.9.8 3.7 2l-1.2 1.1zm9-2.8h1.8s.02 2.13 0 2.1c.7-1.3 1.8-2.4 3.5-2.4c.2 0 .4 0 .5.1c.05-.02 0 1.9 0 1.9c0 0-.6.02-.6 0c-1.6 0-2.7.9-3.3 2.7v7.5h-1.9V7.3zm6.9 5.9c0-3.7 2.2-6.2 5.4-6.2c3.2 0 5.2 2.5 5.2 5.9c0 .3 0 .7-.1.9h-8.5c.2 2.5 1.5 4 3.6 4c1.5 0 2.7-.7 3.4-1.8l1.3 1.1c-.9 1.3-2.5 2.4-4.8 2.4c-3.4 0-5.5-2.4-5.5-6.3zm2.1-1h6.5c-.1-2.1-1.4-3.5-3.2-3.5c-1.8 0-3.1 1.3-3.3 3.5zM531 8.9h-2V7.3h2s.02-1.76 0-1.8c0-2 1.2-3.5 3.5-3.5c.4 0 .8 0 1.1.1c-.05-.04 0 1.5 0 1.5c0 0-.62.05-.6 0c-1.4 0-2.1.6-2.1 2c.04-.03 0 1.7 0 1.7h2.7v1.6h-2.7v10.3H531V8.9zm8.4-6.7v17h-1.9v-17h1.9zm2.4 11c0-3.7 2.2-6.2 5.4-6.2c3.2 0 5.2 2.5 5.2 5.9v.9h-8.5c.1 2.5 1.4 4 3.5 4c1.5 0 2.7-.7 3.4-1.8l1.3 1.1c-.9 1.3-2.4 2.4-4.8 2.4c-3.4 0-5.5-2.4-5.5-6.3zm2.1-1h6.5c-.1-2.1-1.4-3.5-3.2-3.5c-1.8 0-3 1.3-3.3 3.5zM559.5 7c2.3 0 4.1 1.3 4.8 3.2l-1.5.7c-.6-1.4-1.7-2.2-3.3-2.2c-2.1 0-3.5 1.7-3.5 4.5c0 2.9 1.4 4.6 3.5 4.6c1.6 0 2.7-.8 3.3-2.2l1.5.7c-.7 1.9-2.5 3.2-4.8 3.2c-3.4 0-5.5-2.6-5.5-6.3c0-3.6 2.1-6.2 5.5-6.2zm7.8 8.4c.04.01 0-6.5 0-6.5h-2.1V7.3h2.2V4.2h1.9v3.1h2.6v1.6h-2.6s-.04 6.51 0 6.5c0 1.6.7 2.2 2.3 2.2h.3s.02 1.62 0 1.6c-.2.1-.5.1-.8.1c-2.5 0-3.8-1.2-3.8-3.9zm12.8-5.3c-.7-1-1.5-1.4-2.5-1.4c-1.2 0-1.8.7-1.8 1.6c0 .9.5 1.4 1.5 1.6l1 .2c2.3.5 3.6 1.6 3.6 3.6c0 2-1.7 3.8-4.5 3.8c-2.1 0-3.6-1.2-4.5-2.5l1.3-1.2c.7 1.1 1.8 2 3.3 2c1.5 0 2.5-.7 2.5-1.9c0-1.1-.9-1.7-2.3-2l-1-.2c-1.8-.4-2.9-1.5-2.9-3.2c0-1.8 1.4-3.5 3.8-3.5c1.7 0 3 .8 3.8 2l-1.3 1.1zm9.9 5.3c-.04.01 0-6.5 0-6.5h-2.2V7.3h2.2V4.2h1.9v3.1h2.6v1.6h-2.6s-.02 6.51 0 6.5c0 1.6.7 2.2 2.3 2.2h.3s.05 1.62 0 1.6c-.2.1-.5.1-.8.1c-2.5 0-3.7-1.2-3.7-3.9zm6.7-13.2h1.9s.04 6.61 0 6.6c.7-.9 2-1.8 3.6-1.8c2.8 0 4.3 1.8 4.3 4.8c.01-.02 0 7.4 0 7.4h-1.9s-.01-7.22 0-7.2c0-2.2-1.1-3.3-2.9-3.3c-1.6 0-2.7 1-3.1 2.2c.04-.03 0 8.3 0 8.3h-1.9v-17zm12.1 11c0-3.7 2.2-6.2 5.4-6.2c3.2 0 5.2 2.5 5.2 5.9c0 .3 0 .7-.1.9h-8.5c.2 2.5 1.5 4 3.6 4c1.5 0 2.7-.7 3.4-1.8l1.3 1.1c-.9 1.3-2.4 2.4-4.8 2.4c-3.4 0-5.5-2.4-5.5-6.3zm2.1-1h6.5c-.1-2.1-1.4-3.5-3.2-3.5c-1.8 0-3 1.3-3.3 3.5zm17.6 7h-1.8v-17h1.9s-.01 6.7 0 6.7c.9-1.1 2.2-1.9 3.7-1.9c3.2 0 5.2 2.6 5.2 6.2c0 3.7-2 6.3-5.2 6.3c-1.5 0-2.9-.8-3.8-2c.02.02 0 1.7 0 1.7zm7-6c0-2.8-1.3-4.5-3.6-4.5c-1.5 0-2.8.9-3.3 2.2v4.7c.5 1.3 1.8 2.2 3.3 2.2c2.3 0 3.6-1.7 3.6-4.6zm3.7 0c0-3.7 2.1-6.2 5.4-6.2c3.2 0 5.2 2.5 5.2 5.9c0 .3 0 .7-.1.9h-8.5c.2 2.5 1.5 4 3.6 4c1.5 0 2.7-.7 3.4-1.8l1.3 1.1c-.9 1.3-2.5 2.4-4.8 2.4c-3.4 0-5.5-2.4-5.5-6.3zm2.1-1h6.5c-.1-2.1-1.4-3.5-3.2-3.5c-1.8 0-3.1 1.3-3.3 3.5zm12.8-10v17h-2v-17h2zm5.1 5.1v11.9h-1.9V7.3h1.9zm.2-5.1v2.4H657V2.2h2.4zm2.2 11c0-3.7 2.2-6.2 5.4-6.2c3.2 0 5.2 2.5 5.2 5.9v.9h-8.5c.1 2.5 1.4 4 3.5 4c1.5 0 2.7-.7 3.4-1.8l1.3 1.1c-.9 1.3-2.4 2.4-4.8 2.4c-3.4 0-5.5-2.4-5.5-6.3zm2.1-1h6.5c-.1-2.1-1.4-3.5-3.2-3.5c-1.8 0-3 1.3-3.3 3.5zm11.5-3.3h-2V7.3h2s.04-1.76 0-1.8c0-2 1.2-3.5 3.6-3.5c.3 0 .7 0 1 .1c-.02-.04 0 1.5 0 1.5c0 0-.6.05-.6 0c-1.4 0-2 .6-2 2c-.04-.03 0 1.7 0 1.7h2.6v1.6h-2.6v10.3h-2V8.9zm12.2 6.5c.04.01 0-6.5 0-6.5h-2.1V7.3h2.2V4.2h1.9v3.1h2.6v1.6h-2.6s-.04 6.51 0 6.5c0 1.6.7 2.2 2.3 2.2h.3s.02 1.62 0 1.6c-.2.1-.5.1-.8.1c-2.5 0-3.8-1.2-3.8-3.9zm6.8-13.2h1.9s.02 6.61 0 6.6c.7-.9 2-1.8 3.6-1.8c2.7 0 4.3 1.8 4.3 4.8c-.01-.02 0 7.4 0 7.4h-1.9s-.03-7.22 0-7.2c0-2.2-1.1-3.3-2.9-3.3c-1.6 0-2.7 1-3.1 2.2c.02-.03 0 8.3 0 8.3h-1.9v-17zm11.9 13.4c0-2.2 1.7-4 4.4-4c1.3 0 2.5.5 3.3 1.4v-1.2c0-1.7-.9-3.1-2.9-3.1c-1.4 0-2.1.5-3 1.4l-1.1-1.3c.9-.9 2.1-1.8 4.2-1.8c3.1 0 4.8 1.9 4.8 4.7c-.04-.01 0 7.5 0 7.5h-1.9s.02-1.18 0-1.2c-.9 1-2.1 1.5-3.4 1.5c-2.7 0-4.4-1.8-4.4-3.9zm7.7.8v-1.7c-.6-1-1.9-1.5-3-1.5c-1.9 0-2.7 1.3-2.7 2.4c0 1 .8 2.3 2.7 2.3c1.1 0 2.4-.5 3-1.5zm5.7-1V8.9h-2.1V7.3h2.1V4.2h1.9v3.1h2.7v1.6h-2.7s.02 6.51 0 6.5c0 1.6.7 2.2 2.3 2.2h.4s-.02 1.62 0 1.6c-.3.1-.6.1-.9.1c-2.4 0-3.7-1.2-3.7-3.9zm10.9-2.5c0-3.4 2-5.9 5-5.9c1.5 0 2.8.8 3.7 2c.01-.05 0-1.7 0-1.7h1.9s-.04 10.87 0 10.9c0 3-1.7 5.8-5.4 5.8c-2.6 0-4.2-1.4-4.9-3l1.5-.9c.5 1.3 1.7 2.2 3.3 2.2c2.6 0 3.5-1.9 3.5-4.1v-1.3c-.8 1.1-2.1 1.8-3.6 1.8c-3 0-5-2.4-5-5.8zM739 15v-4.2c-.5-1.2-1.7-2.1-3.2-2.1c-2.1 0-3.4 1.6-3.4 4.2c0 2.5 1.3 4.1 3.4 4.1c1.5 0 2.7-.8 3.2-2zm4.4-1.8c0-3.7 2.2-6.2 5.4-6.2c3.2 0 5.2 2.5 5.2 5.9c0 .3 0 .7-.1.9h-8.5c.2 2.5 1.5 4 3.6 4c1.5 0 2.7-.7 3.4-1.8l1.3 1.1c-.9 1.3-2.5 2.4-4.8 2.4c-3.4 0-5.5-2.4-5.5-6.3zm2.1-1h6.5c-.1-2.1-1.4-3.5-3.2-3.5c-1.8 0-3.1 1.3-3.3 3.5zm11.5 3.2c-.03.01 0-6.5 0-6.5h-2.2V7.3h2.2V4.2h1.9v3.1h2.7v1.6h-2.7v6.5c0 1.6.7 2.2 2.3 2.2h.4s-.04 1.62 0 1.6c-.3.1-.6.1-.9.1c-2.5 0-3.7-1.2-3.7-3.9zm7.6 0c-.03.01 0-6.5 0-6.5h-2.2V7.3h2.2V4.2h1.9v3.1h2.7v1.6h-2.7v6.5c0 1.6.7 2.2 2.3 2.2h.4s-.05 1.62 0 1.6c-.3.1-.6.1-.9.1c-2.5 0-3.7-1.2-3.7-3.9zm8.6-8.1v11.9h-1.9V7.3h1.9zm.3-5.1v2.4h-2.4V2.2h2.4zm3 5.1h1.8v1.6c.6-.9 2-1.9 3.6-1.9c2.8 0 4.3 1.8 4.3 4.8c.05-.02 0 7.4 0 7.4h-1.9s.03-7.22 0-7.2c0-2.2-1-3.3-2.9-3.3c-1.6 0-2.7 1-3 2.2c-.03-.03 0 8.3 0 8.3h-1.9V7.3zm12.1 5.6c0-3.4 1.9-5.9 4.9-5.9c1.5 0 2.9.8 3.8 2c-.05-.05 0-1.7 0-1.7h1.8v10.9c0 3-1.7 5.8-5.4 5.8c-2.5 0-4.1-1.4-4.8-3l1.4-.9c.6 1.3 1.7 2.2 3.4 2.2c2.5 0 3.5-1.9 3.5-4.1v-1.3c-.9 1.1-2.2 1.8-3.7 1.8c-3 0-4.9-2.4-4.9-5.8zm8.6 2.1v-4.2c-.6-1.2-1.8-2.1-3.3-2.1c-2.1 0-3.3 1.6-3.3 4.2c0 2.5 1.2 4.1 3.3 4.1c1.5 0 2.7-.8 3.3-2zM808 8.9h-2V7.3h2s.03-1.76 0-1.8c0-2 1.2-3.5 3.6-3.5c.3 0 .7 0 1 .1c-.03-.04 0 1.5 0 1.5c0 0-.61.05-.6 0c-1.4 0-2 .6-2 2c-.05-.03 0 1.7 0 1.7h2.6v1.6H810v10.3h-2V8.9zm6.5-1.6h1.8s.03 2.13 0 2.1c.7-1.3 1.9-2.4 3.6-2.4c.1 0 .3 0 .5.1c-.04-.02 0 1.9 0 1.9c0 0-.69.02-.7 0c-1.6 0-2.7.9-3.3 2.7v7.5h-1.9V7.3zm16.1 5.9c0-2.8-1.4-4.5-3.6-4.5c-2.2 0-3.6 1.7-3.6 4.5c0 2.9 1.4 4.6 3.6 4.6c2.2 0 3.6-1.7 3.6-4.6zm2 0c0 3.7-2.2 6.3-5.6 6.3c-3.4 0-5.6-2.6-5.6-6.3c0-3.6 2.2-6.2 5.6-6.2c3.4 0 5.6 2.6 5.6 6.2zm2.5-5.9h1.8s.02 1.63 0 1.6c.6-.9 2-1.9 3.6-1.9c1.8 0 3 .8 3.7 2.1c.6-1 2.1-2.1 3.9-2.1c2.8 0 4.3 1.8 4.3 4.7v7.5h-1.9s-.02-7.27 0-7.3c0-2.1-1-3.2-2.7-3.2c-1.6 0-2.8 1-3.1 2.2v8.3h-1.9s-.02-7.27 0-7.3c0-2.1-1-3.2-2.7-3.2c-1.6 0-2.8 1-3.1 2.2v8.3h-1.9V7.3zm29.6-4.4h2.2l6 16.3h-2.1l-1.5-4.1h-7l-1.5 4.1h-2.1l6-16.3zm-1.8 10.5h5.8s-2.23-6.39-2.2-6.4c-.4-1-.7-1.9-.7-2.2c0 .3-.3 1.2-.7 2.2c.03.01-2.2 6.4-2.2 6.4zm17.3 2c-.02.01 0-6.5 0-6.5H878V7.3h2.2V4.2h1.9v3.1h2.7v1.6h-2.7v6.5c0 1.6.7 2.2 2.3 2.2h.4s-.04 1.62 0 1.6c-.3.1-.6.1-.9.1c-2.4 0-3.7-1.2-3.7-3.9zm15.2-2.2c0-2.8-1.4-4.5-3.6-4.5c-2.2 0-3.6 1.7-3.6 4.5c0 2.9 1.4 4.6 3.6 4.6c2.2 0 3.6-1.7 3.6-4.6zm2 0c0 3.7-2.2 6.3-5.6 6.3c-3.4 0-5.6-2.6-5.6-6.3c0-3.6 2.2-6.2 5.6-6.2c3.4 0 5.6 2.6 5.6 6.2zm7.8-10.3s5.29-.02 5.3 0c3.1 0 4.9 1.6 4.9 4.3c0 1.4-.7 2.6-1.9 3.3c1.8.5 3.2 1.7 3.2 4.1c0 2.8-1.8 4.6-5.3 4.6h-6.2V2.9zm6.1 14.6c2.3 0 3.3-1.1 3.3-2.9c0-1.9-1-3-3.3-3c0 .04-4.1 0-4.1 0v5.9s4.1.04 4.1 0zm-1.1-7.5c2.2 0 3.2-1 3.2-2.7c0-1.7-1-2.8-3.2-2.8c.05.04-3 0-3 0v5.5s3.05-.02 3 0zm19.9.1c-.7-1-1.6-1.4-2.6-1.4c-1.2 0-1.8.7-1.8 1.6c0 .9.5 1.4 1.5 1.6l1 .2c2.3.5 3.6 1.6 3.6 3.6c0 2-1.6 3.8-4.5 3.8c-2.1 0-3.6-1.2-4.5-2.5l1.3-1.2c.7 1.1 1.8 2 3.3 2c1.5 0 2.5-.7 2.5-1.9c0-1.1-.9-1.7-2.2-2l-1-.2c-1.9-.4-3-1.5-3-3.2c0-1.8 1.4-3.5 3.9-3.5c1.6 0 2.9.8 3.7 2l-1.2 1.1zm4-7.9h2s-.04 6.61 0 6.6c.6-.9 1.9-1.8 3.5-1.8c2.8 0 4.3 1.8 4.3 4.8c.04-.02 0 7.4 0 7.4H942s.02-7.22 0-7.2c0-2.2-1-3.3-2.9-3.3c-1.6 0-2.7 1-3 2.2c-.04-.03 0 8.3 0 8.3h-2v-17zm21.4 11c0-2.8-1.4-4.5-3.7-4.5c-2.2 0-3.6 1.7-3.6 4.5c0 2.9 1.4 4.6 3.6 4.6c2.3 0 3.7-1.7 3.7-4.6zm2 0c0 3.7-2.2 6.3-5.7 6.3c-3.4 0-5.6-2.6-5.6-6.3c0-3.6 2.2-6.2 5.6-6.2c3.5 0 5.7 2.6 5.7 6.2zm12 6h-1.8v-1.6c-.6.9-2 1.9-3.6 1.9c-2.8 0-4.3-1.8-4.3-4.8c-.04.01 0-7.4 0-7.4h1.9s-.02 7.22 0 7.2c0 2.2 1 3.3 2.9 3.3c1.6 0 2.7-1 3-2.2c.03.02 0-8.3 0-8.3h1.9v11.9zm5.2-17v17h-1.9v-17h1.9zm11.4 15.3c-.9 1.2-2.3 2-3.8 2c-3.1 0-5.2-2.6-5.2-6.3c0-3.6 2.1-6.2 5.2-6.2c1.5 0 2.9.8 3.7 1.9c.04 0 0-6.7 0-6.7h2v17h-1.9s.01-1.68 0-1.7zm-.1-1.9v-4.7c-.5-1.3-1.8-2.2-3.3-2.2c-2.2 0-3.6 1.7-3.6 4.5c0 2.9 1.4 4.6 3.6 4.6c1.5 0 2.8-.9 3.3-2.2zm9.2 0c0-2.2 1.7-4 4.4-4c1.2 0 2.4.5 3.3 1.4v-1.2c0-1.7-1-3.1-2.9-3.1c-1.5 0-2.2.5-3 1.4l-1.1-1.3c.8-.9 2-1.8 4.1-1.8c3.1 0 4.8 1.9 4.8 4.7v7.5h-1.9s.04-1.18 0-1.2c-.8 1-2.1 1.5-3.3 1.5c-2.7 0-4.4-1.8-4.4-3.9zm7.7.8v-1.7c-.7-1-2-1.5-3.1-1.5c-1.9 0-2.7 1.3-2.7 2.4c0 1 .8 2.3 2.7 2.3c1.1 0 2.4-.5 3.1-1.5zm6.9-14.2v17h-1.9v-17h1.9zm1.9 5.1h2s2.06 7.24 2.1 7.2c.2 1.1.5 2.2.5 2.5h.1c0-.3.3-1.4.6-2.4c.03-.03 2.3-7.3 2.3-7.3h2s2.26 7.27 2.3 7.3c.3 1 .6 2.1.6 2.4h.1c0-.3.2-1.4.5-2.5c.03.04 2-7.2 2-7.2h2.1l-3.6 11.9h-1.9s-2.45-7.54-2.5-7.5c-.3-1-.6-2-.6-2.4c0 .4-.3 1.4-.7 2.4c.05-.04-2.4 7.5-2.4 7.5h-1.9l-3.6-11.9zm17.9 8.3c0-2.2 1.7-4 4.4-4c1.2 0 2.4.5 3.3 1.4v-1.2c0-1.7-1-3.1-2.9-3.1c-1.4 0-2.2.5-3 1.4l-1.1-1.3c.8-.9 2-1.8 4.1-1.8c3.1 0 4.8 1.9 4.8 4.7v7.5h-1.8s-.05-1.18 0-1.2c-.9 1-2.2 1.5-3.4 1.5c-2.7 0-4.4-1.8-4.4-3.9zm7.7.8v-1.7c-.6-1-2-1.5-3.1-1.5c-1.9 0-2.7 1.3-2.7 2.4c0 1 .8 2.3 2.7 2.3c1.1 0 2.5-.5 3.1-1.5zm7.8 1.6l-4.6-10.7h2.1s2.73 6.81 2.7 6.8c.4.9.7 1.8.7 2.1h.1c.1-.6.3-1.2.6-2.1c.03.01 2.6-6.8 2.6-6.8h2.1l-6.6 16.4h-2.1l2.4-5.7zm13.8-7.9c-.7-1-1.6-1.4-2.6-1.4c-1.2 0-1.8.7-1.8 1.6c0 .9.5 1.4 1.5 1.6l1 .2c2.3.5 3.6 1.6 3.6 3.6c0 2-1.6 3.8-4.5 3.8c-2 0-3.6-1.2-4.4-2.5l1.2-1.2c.7 1.1 1.8 2 3.3 2c1.5 0 2.5-.7 2.5-1.9c0-1.1-.9-1.7-2.2-2l-1-.2c-1.9-.4-3-1.5-3-3.2c0-1.8 1.4-3.5 3.9-3.5c1.6 0 2.9.8 3.7 2l-1.2 1.1zm10.8 9.1h-1.8v-17h1.9s-.02 6.7 0 6.7c.9-1.1 2.2-1.9 3.7-1.9c3.2 0 5.2 2.6 5.2 6.2c0 3.7-2 6.3-5.2 6.3c-1.5 0-2.9-.8-3.8-2c.01.02 0 1.7 0 1.7zm7-6c0-2.8-1.3-4.5-3.6-4.5c-1.5 0-2.8.9-3.3 2.2v4.7c.5 1.3 1.8 2.2 3.3 2.2c2.3 0 3.6-1.7 3.6-4.6zm3.7 0c0-3.7 2.1-6.2 5.4-6.2c3.2 0 5.2 2.5 5.2 5.9c0 .3 0 .7-.1.9h-8.5c.2 2.5 1.5 4 3.6 4c1.5 0 2.7-.7 3.4-1.8l1.3 1.1c-.9 1.3-2.5 2.4-4.8 2.4c-3.4 0-5.5-2.4-5.5-6.3zm2-1h6.6c-.1-2.1-1.4-3.5-3.2-3.5c-1.8 0-3.1 1.3-3.4 3.5zm14.9 3.4c0-2.2 1.7-4 4.4-4c1.3 0 2.5.5 3.3 1.4v-1.2c0-1.7-.9-3.1-2.9-3.1c-1.4 0-2.1.5-3 1.4l-1.1-1.3c.9-.9 2.1-1.8 4.2-1.8c3.1 0 4.8 1.9 4.8 4.7c-.04-.01 0 7.5 0 7.5h-1.9V18c-.9 1-2.1 1.5-3.4 1.5c-2.7 0-4.4-1.8-4.4-3.9zm7.7.8v-1.7c-.6-1-1.9-1.5-3-1.5c-2 0-2.7 1.3-2.7 2.4c0 1 .7 2.3 2.7 2.3c1.1 0 2.4-.5 3-1.5zm5-9.1h1.9s-.03 1.63 0 1.6c.6-.9 1.9-1.9 3.6-1.9c2.7 0 4.3 1.8 4.3 4.8c.01-.02 0 7.4 0 7.4h-1.9s-.01-7.22 0-7.2c0-2.2-1.1-3.3-2.9-3.3c-1.6 0-2.7 1-3.1 2.2c.04-.03 0 8.3 0 8.3h-1.9V7.3zm17 5.9c0-3.7 2.2-6.2 5.4-6.2c3.2 0 5.2 2.5 5.2 5.9c0 .3 0 .7-.1.9h-8.4c.1 2.5 1.4 4 3.5 4c1.5 0 2.7-.7 3.4-1.8l1.3 1.1c-.9 1.3-2.4 2.4-4.8 2.4c-3.4 0-5.5-2.4-5.5-6.3zm2.1-1h6.5c-.1-2.1-1.4-3.5-3.2-3.5c-1.8 0-3 1.3-3.3 3.5zm10.9-4.9h1.8v1.6c.6-.9 2-1.9 3.6-1.9c2.8 0 4.4 1.8 4.4 4.8c-.04-.02 0 7.4 0 7.4h-2s.04-7.22 0-7.2c0-2.2-1-3.3-2.8-3.3c-1.7 0-2.8 1-3.1 2.2c-.02-.03 0 8.3 0 8.3h-1.9V7.3zm12.1 5.6c0-3.4 1.9-5.9 4.9-5.9c1.5 0 2.9.8 3.8 2c-.04-.05 0-1.7 0-1.7h1.8v10.9c0 3-1.7 5.8-5.4 5.8c-2.5 0-4.1-1.4-4.8-3l1.4-.9c.6 1.3 1.7 2.2 3.4 2.2c2.5 0 3.5-1.9 3.5-4.1v-1.3c-.9 1.1-2.2 1.8-3.7 1.8c-3 0-4.9-2.4-4.9-5.8zm8.6 2.1v-4.2c-.6-1.2-1.8-2.1-3.2-2.1c-2.2 0-3.4 1.6-3.4 4.2c0 2.5 1.2 4.1 3.4 4.1c1.4 0 2.6-.8 3.2-2zm4.2.6c0-2.2 1.7-4 4.4-4c1.2 0 2.4.5 3.3 1.4v-1.2c0-1.7-.9-3.1-2.9-3.1c-1.4 0-2.1.5-3 1.4l-1.1-1.3c.9-.9 2.1-1.8 4.2-1.8c3.1 0 4.7 1.9 4.7 4.7c.03-.01 0 7.5 0 7.5h-1.8s-.02-1.18 0-1.2c-.9 1-2.1 1.5-3.4 1.5c-2.7 0-4.4-1.8-4.4-3.9zm7.7.8v-1.7c-.6-1-2-1.5-3-1.5c-2 0-2.8 1.3-2.8 2.4c0 1 .8 2.3 2.8 2.3c1 0 2.4-.5 3-1.5zm4.2-3.5c0-3.4 2-5.9 5-5.9c1.5 0 2.9.8 3.7 2c.03-.05 0-1.7 0-1.7h1.9s-.02 10.87 0 10.9c0 3-1.7 5.8-5.4 5.8c-2.5 0-4.1-1.4-4.9-3l1.5-.9c.6 1.3 1.7 2.2 3.3 2.2c2.6 0 3.6-1.9 3.6-4.1v-1.3c-.9 1.1-2.2 1.8-3.7 1.8c-3 0-5-2.4-5-5.8zm8.7 2.1v-4.2c-.6-1.2-1.8-2.1-3.3-2.1c-2.1 0-3.4 1.6-3.4 4.2c0 2.5 1.3 4.1 3.4 4.1c1.5 0 2.7-.8 3.3-2zm7-7.7v11.9h-1.9V7.3h1.9zm.2-5.1v2.4h-2.4V2.2h2.4zm3 5.1h1.9s-.04 1.63 0 1.6c.6-.9 1.9-1.9 3.6-1.9c2.7 0 4.3 1.8 4.3 4.8c.01-.02 0 7.4 0 7.4h-1.9s-.01-7.22 0-7.2c0-2.2-1.1-3.3-2.9-3.3c-1.6 0-2.7 1-3.1 2.2c.04-.03 0 8.3 0 8.3h-1.9V7.3zm12.1 5.6c0-3.4 2-5.9 5-5.9c1.5 0 2.8.8 3.7 2c.01-.05 0-1.7 0-1.7h1.9s-.04 10.87 0 10.9c0 3-1.7 5.8-5.4 5.8c-2.6 0-4.2-1.4-4.9-3l1.5-.9c.5 1.3 1.7 2.2 3.3 2.2c2.6 0 3.5-1.9 3.5-4.1v-1.3c-.8 1.1-2.1 1.8-3.6 1.8c-3 0-5-2.4-5-5.8zm8.6 2.1v-4.2c-.5-1.2-1.7-2.1-3.2-2.1c-2.1 0-3.4 1.6-3.4 4.2c0 2.5 1.3 4.1 3.4 4.1c1.5 0 2.7-.8 3.2-2zm9.3-1.8c0-3.7 2.2-6.2 5.4-6.2c3.2 0 5.2 2.5 5.2 5.9c0 .3 0 .7-.1.9h-8.5c.2 2.5 1.5 4 3.6 4c1.5 0 2.7-.7 3.4-1.8l1.3 1.1c-.9 1.3-2.4 2.4-4.8 2.4c-3.4 0-5.5-2.4-5.5-6.3zm2.1-1h6.5c-.1-2.1-1.4-3.5-3.2-3.5c-1.8 0-3 1.3-3.3 3.5zm15.8 1l4 5.9v.1h-2.2l-3.1-4.9l-3.1 4.9h-2.2v-.1l4-5.9l-3.8-5.8v-.1h2.2l2.9 4.6l2.8-4.6h2.2v.1l-3.7 5.8zm5.8-5.9h1.8s.03 1.7 0 1.7c.9-1.2 2.3-2 3.8-2c3.2 0 5.2 2.6 5.2 6.2c0 3.7-2 6.3-5.2 6.3c-1.5 0-2.8-.8-3.7-1.9v6.1h-1.9V7.3zm8.8 5.9c0-2.8-1.3-4.5-3.6-4.5c-1.5 0-2.7.9-3.3 2.2v4.7c.6 1.3 1.8 2.2 3.3 2.2c2.3 0 3.6-1.7 3.6-4.6zm3.7 0c0-3.7 2.2-6.2 5.4-6.2c3.2 0 5.2 2.5 5.2 5.9c0 .3 0 .7-.1.9h-8.5c.2 2.5 1.5 4 3.6 4c1.5 0 2.7-.7 3.4-1.8l1.3 1.1c-.9 1.3-2.5 2.4-4.8 2.4c-3.4 0-5.5-2.4-5.5-6.3zm2.1-1h6.5c-.1-2.1-1.4-3.5-3.2-3.5c-1.8 0-3.1 1.3-3.3 3.5zm10.8-4.9h1.9v2.1c.6-1.3 1.8-2.4 3.5-2.4c.2 0 .4 0 .5.1c.03-.02 0 1.9 0 1.9c0 0-.62.02-.6 0c-1.6 0-2.8.9-3.3 2.7c-.03-.01 0 7.5 0 7.5h-2V7.3zm9.7 0v11.9h-2V7.3h2zm.2-5.1v2.4h-2.4V2.2h2.4zm2.2 11c0-3.7 2.2-6.2 5.4-6.2c3.2 0 5.2 2.5 5.2 5.9c0 .3 0 .7-.1.9h-8.5c.2 2.5 1.5 4 3.6 4c1.5 0 2.7-.7 3.4-1.8l1.3 1.1c-.9 1.3-2.5 2.4-4.8 2.4c-3.4 0-5.5-2.4-5.5-6.3zm2.1-1h6.5c-.1-2.1-1.4-3.5-3.2-3.5c-1.8 0-3 1.3-3.3 3.5zm10.8-4.9h1.9v1.6c.6-.9 2-1.9 3.6-1.9c2.8 0 4.3 1.8 4.3 4.8c.04-.02 0 7.4 0 7.4h-1.9s.02-7.22 0-7.2c0-2.2-1-3.3-2.9-3.3c-1.6 0-2.7 1-3 2.2c-.03-.03 0 8.3 0 8.3h-2V7.3zm17.7-.3c2.2 0 4 1.3 4.7 3.2l-1.5.7c-.6-1.4-1.7-2.2-3.2-2.2c-2.2 0-3.5 1.7-3.5 4.5c0 2.9 1.3 4.6 3.5 4.6c1.5 0 2.6-.8 3.2-2.2l1.5.7c-.7 1.9-2.5 3.2-4.7 3.2c-3.5 0-5.5-2.6-5.5-6.3c0-3.6 2-6.2 5.5-6.2zm6.2 6.2c0-3.7 2.1-6.2 5.4-6.2c3.2 0 5.2 2.5 5.2 5.9c0 .3-.1.7-.1.9h-8.5c.2 2.5 1.5 4 3.6 4c1.4 0 2.6-.7 3.3-1.8l1.3 1.1c-.9 1.3-2.4 2.4-4.7 2.4c-3.4 0-5.5-2.4-5.5-6.3zm2-1h6.6c-.2-2.1-1.4-3.5-3.2-3.5c-1.8 0-3.1 1.3-3.4 3.5zm10.9 12.3l1.2-4h-1.5v-2.8h3.1v2.5l-1.3 4.3h-1.5zm9.9-11.3c0-3.7 2.1-6.2 5.4-6.2c3.2 0 5.2 2.5 5.2 5.9c0 .3-.1.7-.1.9h-8.5c.2 2.5 1.5 4 3.6 4c1.4 0 2.6-.7 3.3-1.8l1.3 1.1c-.9 1.3-2.4 2.4-4.7 2.4c-3.4 0-5.5-2.4-5.5-6.3zm2-1h6.5c-.1-2.1-1.3-3.5-3.1-3.5c-1.8 0-3.1 1.3-3.4 3.5zm9.3-4.9h2s2.73 7.68 2.7 7.7c.4.9.7 1.8.7 2.2c0-.4.3-1.3.7-2.2c-.03-.02 2.7-7.7 2.7-7.7h2l-4.5 11.9h-1.8l-4.5-11.9zm11.7 5.9c0-3.7 2.1-6.2 5.4-6.2c3.1 0 5.1 2.5 5.1 5.9v.9h-8.5c.1 2.5 1.4 4 3.5 4c1.5 0 2.7-.7 3.4-1.8l1.3 1.1c-.9 1.3-2.4 2.4-4.8 2.4c-3.4 0-5.4-2.4-5.4-6.3zm2-1h6.5c-.1-2.1-1.3-3.5-3.1-3.5c-1.9 0-3.1 1.3-3.4 3.5zm10.9-4.9h1.8s.03 1.63 0 1.6c.7-.9 2-1.9 3.7-1.9c2.7 0 4.3 1.8 4.3 4.8c-.03-.02 0 7.4 0 7.4h-1.9s-.05-7.22 0-7.2c0-2.2-1.1-3.3-2.9-3.3c-1.6 0-2.8 1-3.1 2.2v8.3h-1.9V7.3zm19.7 0v11.9h-2V7.3h2zm.2-5.1v2.4h-2.4V2.2h2.4zm3 5.1h1.8s.02 1.63 0 1.6c.6-.9 2-1.9 3.6-1.9c2.8 0 4.4 1.8 4.4 4.8c-.04-.02 0 7.4 0 7.4h-2s.04-7.22 0-7.2c0-2.2-1-3.3-2.8-3.3c-1.6 0-2.8 1-3.1 2.2v8.3h-1.9V7.3zm16.8 8.3c0-2.2 1.7-4 4.4-4c1.3 0 2.5.5 3.3 1.4v-1.2c0-1.7-.9-3.1-2.9-3.1c-1.4 0-2.1.5-3 1.4l-1.1-1.3c.9-.9 2.1-1.8 4.2-1.8c3.1 0 4.7 1.9 4.7 4.7c.05-.01 0 7.5 0 7.5h-1.8V18c-.9 1-2.1 1.5-3.4 1.5c-2.7 0-4.4-1.8-4.4-3.9zm7.7.8v-1.7c-.6-1-1.9-1.5-3-1.5c-2 0-2.7 1.3-2.7 2.4c0 1 .7 2.3 2.7 2.3c1.1 0 2.4-.5 3-1.5zm5-9.1h1.9s-.04 1.63 0 1.6c.6-.9 1.9-1.9 3.6-1.9c2.7 0 4.3 1.8 4.3 4.8v7.4h-1.9s-.02-7.22 0-7.2c0-2.2-1.1-3.3-2.9-3.3c-1.6 0-2.7 1-3.1 2.2c.03-.03 0 8.3 0 8.3h-1.9V7.3zm17 5.9c0-3.7 2.2-6.2 5.4-6.2c3.2 0 5.2 2.5 5.2 5.9c0 .3 0 .7-.1.9h-8.5c.2 2.5 1.5 4 3.6 4c1.5 0 2.7-.7 3.4-1.8l1.3 1.1c-.9 1.3-2.4 2.4-4.8 2.4c-3.4 0-5.5-2.4-5.5-6.3zm2.1-1h6.5c-.1-2.1-1.4-3.5-3.2-3.5c-1.8 0-3 1.3-3.3 3.5zm12.8-10v17h-1.9v-17h1.9zm2.4 11c0-3.7 2.2-6.2 5.4-6.2c3.2 0 5.2 2.5 5.2 5.9c0 .3 0 .7-.1.9h-8.4c.1 2.5 1.4 4 3.5 4c1.5 0 2.7-.7 3.4-1.8l1.3 1.1c-.9 1.3-2.4 2.4-4.8 2.4c-3.4 0-5.5-2.4-5.5-6.3zm2.1-1h6.5c-.1-2.1-1.4-3.5-3.2-3.5c-1.8 0-3 1.3-3.3 3.5zm15.6-5.2c2.3 0 4.1 1.3 4.8 3.2l-1.5.7c-.6-1.4-1.7-2.2-3.3-2.2c-2.1 0-3.5 1.7-3.5 4.5c0 2.9 1.4 4.6 3.5 4.6c1.6 0 2.7-.8 3.3-2.2l1.5.7c-.7 1.9-2.5 3.2-4.8 3.2c-3.4 0-5.5-2.6-5.5-6.3c0-3.6 2.1-6.2 5.5-6.2zm7.8 8.4c.03.01 0-6.5 0-6.5h-2.1V7.3h2.2V4.2h1.8v3.1h2.7v1.6h-2.7s.05 6.51 0 6.5c0 1.6.8 2.2 2.4 2.2h.3v1.6c-.2.1-.5.1-.9.1c-2.4 0-3.7-1.2-3.7-3.9zm6.8-8.1h1.8s.04 2.13 0 2.1c.7-1.3 1.9-2.4 3.6-2.4c.1 0 .3 0 .5.1c-.03-.02 0 1.9 0 1.9c0 0-.68.02-.7 0c-1.6 0-2.7.9-3.3 2.7v7.5h-1.9V7.3zm9.6 0v11.9h-1.9V7.3h1.9zm.2-5.1v2.4h-2.4V2.2h2.4zM1519 7c2.2 0 4 1.3 4.7 3.2l-1.5.7c-.6-1.4-1.7-2.2-3.2-2.2c-2.2 0-3.5 1.7-3.5 4.5c0 2.9 1.3 4.6 3.5 4.6c1.5 0 2.6-.8 3.2-2.2l1.5.7c-.7 1.9-2.5 3.2-4.7 3.2c-3.5 0-5.5-2.6-5.5-6.3c0-3.6 2-6.2 5.5-6.2zm12.7 1.9h-2.1V7.3h2.1s-.04-1.76 0-1.8c0-2 1.1-3.5 3.5-3.5c.3 0 .7 0 1 .1v1.5s-.58.05-.6 0c-1.4 0-2 .6-2 2c-.02-.03 0 1.7 0 1.7h2.6v1.6h-2.6v10.3h-1.9V8.9zm16.1 10.3h-1.9v-1.6c-.6.9-2 1.9-3.6 1.9c-2.8 0-4.3-1.8-4.3-4.8c-.04.01 0-7.4 0-7.4h1.9s-.02 7.22 0 7.2c0 2.2 1 3.3 2.9 3.3c1.6 0 2.7-1 3-2.2c.03.02 0-8.3 0-8.3h2v11.9zm4-3.8V8.9h-2.1V7.3h2.1V4.2h1.9v3.1h2.7v1.6h-2.7s.02 6.51 0 6.5c0 1.6.7 2.2 2.3 2.2h.4s-.02 1.62 0 1.6c-.3.1-.6.1-.9.1c-2.4 0-3.7-1.2-3.7-3.9zm16.4 3.8h-1.8s-.04-1.61 0-1.6c-.7.9-2 1.9-3.7 1.9c-2.7 0-4.3-1.8-4.3-4.8c.01.01 0-7.4 0-7.4h1.9s.03 7.22 0 7.2c0 2.2 1.1 3.3 2.9 3.3c1.6 0 2.7-1 3.1-2.2V7.3h1.9v11.9zm3.2-11.9h1.9s-.04 2.13 0 2.1c.6-1.3 1.8-2.4 3.5-2.4c.2 0 .3 0 .5.1v1.9s-.66.02-.7 0c-1.5 0-2.7.9-3.3 2.7c.03-.01 0 7.5 0 7.5h-1.9V7.3zm7 5.9c0-3.7 2.1-6.2 5.4-6.2c3.2 0 5.1 2.5 5.1 5.9v.9h-8.5c.1 2.5 1.4 4 3.6 4c1.4 0 2.6-.7 3.3-1.8l1.3 1.1c-.9 1.3-2.4 2.4-4.8 2.4c-3.3 0-5.4-2.4-5.4-6.3zm2-1h6.5c-.1-2.1-1.3-3.5-3.1-3.5c-1.9 0-3.1 1.3-3.4 3.5zm10.6 5.5h2.9v2.8h-2.9v-2.8z" stroke="none" fill="#fff"/></g></svg>