<?xml version="1.0" standalone="no"?><!DOCTYPE svg PUBLIC "-//W3C//DTD SVG 1.1//EN" "http://www.w3.org/Graphics/SVG/1.1/DTD/svg11.dtd"><svg xmlns="http://www.w3.org/2000/svg" version="1.1" width="876.4px" height="101.5px" viewBox="0 -6 876.4 101.5" style="top:-6px"><desc>외장_사이드_텍스트_1@</desc><defs/><g id="Polygon59980"><path d="m2.8 79.4v-6.5H.7v-1.6h2.1v-3.1h1.9v3.1h2.7v1.6H4.7s.03 6.51 0 6.5c0 1.6.7 2.2 2.4 2.2h.3v1.6c-.2.1-.6.1-.9.1c-2.4 0-3.7-1.2-3.7-3.9zm6.8-13.2h1.9v6.6c.6-.9 2-1.8 3.5-1.8c2.8 0 4.4 1.8 4.4 4.8c-.03-.02 0 7.4 0 7.4h-2s.05-7.22 0-7.2c0-2.2-1-3.3-2.8-3.3c-1.6 0-2.8 1-3.1 2.2v8.3H9.6v-17zm11.9 13.4c0-2.2 1.7-4 4.4-4c1.3 0 2.5.5 3.3 1.4v-1.2c0-1.7-.9-3.1-2.9-3.1c-1.4 0-2.1.5-3 1.4l-1.1-1.3c.9-.9 2.1-1.8 4.2-1.8c3.1 0 4.8 1.9 4.8 4.7c-.05-.01 0 7.5 0 7.5h-1.9V82c-.9 1-2.1 1.5-3.4 1.5c-2.7 0-4.4-1.8-4.4-3.9zm7.7.8v-1.7c-.6-1-1.9-1.5-3-1.5c-2 0-2.7 1.3-2.7 2.4c0 1 .7 2.3 2.7 2.3c1.1 0 2.4-.5 3-1.5zm5.7-1v-6.5h-2.1v-1.6h2.1v-3.1h1.9v3.1h2.7v1.6h-2.7s.02 6.51 0 6.5c0 1.6.7 2.2 2.3 2.2h.4s-.02 1.62 0 1.6c-.3.1-.6.1-.9.1c-2.4 0-3.7-1.2-3.7-3.9zm10.8.2c0-2.2 1.7-4 4.4-4c1.2 0 2.4.5 3.3 1.4v-1.2c0-1.7-1-3.1-2.9-3.1c-1.4 0-2.2.5-3 1.4l-1.1-1.3c.8-.9 2-1.8 4.1-1.8c3.1 0 4.8 1.9 4.8 4.7v7.5h-1.9s.05-1.18 0-1.2c-.8 1-2.1 1.5-3.3 1.5c-2.7 0-4.4-1.8-4.4-3.9zm7.7.8v-1.7c-.6-1-2-1.5-3.1-1.5c-1.9 0-2.7 1.3-2.7 2.4c0 1 .8 2.3 2.7 2.3c1.1 0 2.5-.5 3.1-1.5zm5-9.1h1.8s.01 1.7 0 1.7c.9-1.2 2.3-2 3.8-2c3.2 0 5.2 2.6 5.2 6.2c0 3.7-2 6.3-5.2 6.3c-1.5 0-2.8-.8-3.7-1.9c-.01.02 0 6.1 0 6.1h-1.9V71.3zm8.8 5.9c0-2.8-1.3-4.5-3.6-4.5c-1.5 0-2.8.9-3.3 2.2v4.7c.5 1.3 1.8 2.2 3.3 2.2c2.3 0 3.6-1.7 3.6-4.6zm4.5-5.9h1.8s.01 1.7 0 1.7c.9-1.2 2.3-2 3.8-2c3.2 0 5.2 2.6 5.2 6.2c0 3.7-2 6.3-5.2 6.3c-1.5 0-2.9-.8-3.7-1.9c-.02.02 0 6.1 0 6.1h-1.9V71.3zm8.8 5.9c0-2.8-1.3-4.5-3.6-4.5c-1.5 0-2.8.9-3.3 2.2v4.7c.5 1.3 1.8 2.2 3.3 2.2c2.3 0 3.6-1.7 3.6-4.6zm3.7 0c0-3.7 2.2-6.2 5.4-6.2c3.2 0 5.2 2.5 5.2 5.9c0 .3 0 .7-.1.9h-8.5c.2 2.5 1.5 4 3.6 4c1.5 0 2.7-.7 3.4-1.8l1.3 1.1c-.9 1.3-2.5 2.4-4.8 2.4c-3.4 0-5.5-2.4-5.5-6.3zm2.1-1h6.5c-.1-2.1-1.4-3.5-3.2-3.5c-1.8 0-3.1 1.3-3.3 3.5zm9.9 3.4c0-2.2 1.7-4 4.4-4c1.3 0 2.5.5 3.3 1.4v-1.2c0-1.7-.9-3.1-2.9-3.1c-1.4 0-2.1.5-3 1.4l-1.1-1.3c.9-.9 2.1-1.8 4.2-1.8c3.1 0 4.8 1.9 4.8 4.7c-.04-.01 0 7.5 0 7.5H104V82c-.9 1-2.1 1.5-3.4 1.5c-2.7 0-4.4-1.8-4.4-3.9zm7.7.8v-1.7c-.6-1-1.9-1.5-3-1.5c-1.9 0-2.7 1.3-2.7 2.4c0 1 .8 2.3 2.7 2.3c1.1 0 2.4-.5 3-1.5zm7-14.2v17h-2v-17h2zm9.2 7.9c-.7-1-1.6-1.4-2.6-1.4c-1.1 0-1.8.7-1.8 1.6c0 .9.6 1.4 1.6 1.6l1 .2c2.2.5 3.6 1.6 3.6 3.6c0 2-1.7 3.8-4.5 3.8c-2.1 0-3.6-1.2-4.5-2.5l1.2-1.2c.7 1.1 1.8 2 3.3 2c1.5 0 2.5-.7 2.5-1.9c0-1.1-.9-1.7-2.2-2l-1-.2c-1.9-.4-2.9-1.5-2.9-3.2c0-1.8 1.4-3.5 3.8-3.5c1.7 0 3 .8 3.8 2l-1.3 1.1zm9.9 5.3c-.04.01 0-6.5 0-6.5h-2.2v-1.6h2.2v-3.1h1.9v3.1h2.6v1.6h-2.6s-.02 6.51 0 6.5c0 1.6.7 2.2 2.3 2.2h.3s.04 1.62 0 1.6c-.2.1-.5.1-.8.1c-2.5 0-3.7-1.2-3.7-3.9zm15.2-2.2c0-2.8-1.4-4.5-3.6-4.5c-2.2 0-3.7 1.7-3.7 4.5c0 2.9 1.5 4.6 3.7 4.6c2.2 0 3.6-1.7 3.6-4.6zm2 0c0 3.7-2.2 6.3-5.6 6.3c-3.4 0-5.6-2.6-5.6-6.3c0-3.6 2.2-6.2 5.6-6.2c3.4 0 5.6 2.6 5.6 6.2zm10.6 4.8l-4.6-10.7h2.1s2.74 6.81 2.7 6.8c.4.9.7 1.8.7 2.1h.1c.1-.6.3-1.2.6-2.1c.03.01 2.6-6.8 2.6-6.8h2.1l-6.6 16.4h-2.1l2.4-5.7zm16.6-4.8c0-2.8-1.5-4.5-3.7-4.5c-2.2 0-3.6 1.7-3.6 4.5c0 2.9 1.4 4.6 3.6 4.6c2.2 0 3.7-1.7 3.7-4.6zm1.9 0c0 3.7-2.2 6.3-5.6 6.3c-3.4 0-5.6-2.6-5.6-6.3c0-3.6 2.2-6.2 5.6-6.2c3.4 0 5.6 2.6 5.6 6.2zm12.1 6h-1.8v-1.6c-.7.9-2 1.9-3.6 1.9c-2.8 0-4.3-1.8-4.3-4.8c-.05.01 0-7.4 0-7.4h1.9s-.03 7.22 0 7.2c0 2.2 1 3.3 2.9 3.3c1.6 0 2.7-1 3-2.2c.02.02 0-8.3 0-8.3h1.9v11.9zm3.3-11.9h1.8v2.1c.7-1.3 1.8-2.4 3.5-2.4c.2 0 .4 0 .5.1c.04-.02 0 1.9 0 1.9c0 0-.61.02-.6 0c-1.6 0-2.7.9-3.3 2.7c-.02-.01 0 7.5 0 7.5h-1.9V71.3zm18.6 2.8c-.7-1-1.6-1.4-2.6-1.4c-1.1 0-1.8.7-1.8 1.6c0 .9.6 1.4 1.6 1.6l1 .2c2.2.5 3.6 1.6 3.6 3.6c0 2-1.7 3.8-4.5 3.8c-2.1 0-3.6-1.2-4.5-2.5l1.3-1.2c.7 1.1 1.8 2 3.2 2c1.6 0 2.5-.7 2.5-1.9c0-1.1-.8-1.7-2.2-2l-1-.2c-1.8-.4-2.9-1.5-2.9-3.2c0-1.8 1.4-3.5 3.8-3.5c1.7 0 3 .8 3.8 2l-1.3 1.1zm3.4 3.1c0-3.7 2.1-6.2 5.4-6.2c3.2 0 5.2 2.5 5.2 5.9c0 .3-.1.7-.1.9h-8.5c.2 2.5 1.4 4 3.6 4c1.4 0 2.6-.7 3.3-1.8l1.3 1.1c-.9 1.3-2.4 2.4-4.8 2.4c-3.3 0-5.4-2.4-5.4-6.3zm2-1h6.5c-.1-2.1-1.3-3.5-3.1-3.5c-1.9 0-3.1 1.3-3.4 3.5zm10.9-4.9h1.9s-.05 1.63 0 1.6c.6-.9 1.9-1.9 3.6-1.9c2.7 0 4.3 1.8 4.3 4.8v7.4h-1.9s-.02-7.22 0-7.2c0-2.2-1.1-3.3-2.9-3.3c-1.6 0-2.7 1-3.1 2.2c.02-.03 0 8.3 0 8.3h-1.9V71.3zm18.9 2.8c-.7-1-1.6-1.4-2.6-1.4c-1.2 0-1.8.7-1.8 1.6c0 .9.6 1.4 1.6 1.6l1 .2c2.2.5 3.6 1.6 3.6 3.6c0 2-1.7 3.8-4.5 3.8c-2.1 0-3.6-1.2-4.5-2.5l1.2-1.2c.7 1.1 1.8 2 3.3 2c1.5 0 2.5-.7 2.5-1.9c0-1.1-.9-1.7-2.2-2l-1-.2c-1.9-.4-2.9-1.5-2.9-3.2c0-1.8 1.3-3.5 3.8-3.5c1.7 0 3 .8 3.8 2l-1.3 1.1zm3.4 3.1c0-3.7 2.1-6.2 5.4-6.2c3.1 0 5.1 2.5 5.1 5.9v.9h-8.5c.1 2.5 1.4 4 3.5 4c1.5 0 2.7-.7 3.4-1.8l1.3 1.1c-.9 1.3-2.4 2.4-4.8 2.4c-3.4 0-5.4-2.4-5.4-6.3zm2-1h6.5c-.1-2.1-1.3-3.5-3.1-3.5c-1.9 0-3.1 1.3-3.4 3.5zm16.9-2.1c-.7-1-1.5-1.4-2.6-1.4c-1.1 0-1.8.7-1.8 1.6c0 .9.6 1.4 1.6 1.6l1 .2c2.2.5 3.6 1.6 3.6 3.6c0 2-1.7 3.8-4.5 3.8c-2.1 0-3.6-1.2-4.5-2.5l1.3-1.2c.7 1.1 1.8 2 3.2 2c1.6 0 2.5-.7 2.5-1.9c0-1.1-.8-1.7-2.2-2l-1-.2c-1.8-.4-2.9-1.5-2.9-3.2c0-1.8 1.4-3.5 3.8-3.5c1.7 0 3 .8 3.8 2l-1.3 1.1zm3.9 7.6h2.8v2.8h-2.8v-2.8z" stroke="none" fill="#fff"/></g><g id="Polygon59979"><path d="m2 39.3h1.8s.02 1.63 0 1.6c.6-.9 2-1.9 3.6-1.9c1.8 0 3 .8 3.7 2.1c.6-1 2.1-2.1 3.9-2.1c2.8 0 4.3 1.8 4.3 4.7v7.5h-1.9s-.02-7.27 0-7.3c0-2.1-1-3.2-2.7-3.2c-1.6 0-2.8 1-3.1 2.2v8.3H9.7s-.03-7.27 0-7.3c0-2.1-1-3.2-2.7-3.2c-1.6 0-2.8 1-3.1 2.2v8.3H2V39.3zm28.8 5.9c0-2.8-1.4-4.5-3.6-4.5c-2.2 0-3.6 1.7-3.6 4.5c0 2.9 1.4 4.6 3.6 4.6c2.2 0 3.6-1.7 3.6-4.6zm2 0c0 3.7-2.2 6.3-5.6 6.3c-3.4 0-5.6-2.6-5.6-6.3c0-3.6 2.2-6.2 5.6-6.2c3.4 0 5.6 2.6 5.6 6.2zm2.5-5.9h1.8s.03 1.63 0 1.6c.7-.9 2-1.9 3.7-1.9c1.7 0 3 .8 3.6 2.1c.6-1 2.1-2.1 3.9-2.1c2.8 0 4.3 1.8 4.3 4.7v7.5h-1.9v-7.3c0-2.1-1-3.2-2.7-3.2c-1.6 0-2.8 1-3.1 2.2v8.3H43s-.02-7.27 0-7.3c0-2.1-1-3.2-2.7-3.2c-1.6 0-2.8 1-3.1 2.2v8.3h-1.9V39.3zm19.6 5.9c0-3.7 2.2-6.2 5.4-6.2c3.2 0 5.2 2.5 5.2 5.9c0 .3 0 .7-.1.9H57c.1 2.5 1.4 4 3.5 4c1.5 0 2.7-.7 3.4-1.8l1.3 1.1c-.9 1.3-2.4 2.4-4.8 2.4c-3.4 0-5.5-2.4-5.5-6.3zm2.1-1h6.5c-.1-2.1-1.4-3.5-3.2-3.5c-1.8 0-3 1.3-3.3 3.5zm10.9-4.9h1.8s.02 1.63 0 1.6c.6-.9 2-1.9 3.6-1.9c2.8 0 4.4 1.8 4.4 4.8c-.04-.02 0 7.4 0 7.4h-2s.04-7.22 0-7.2c0-2.2-1-3.3-2.8-3.3c-1.6 0-2.8 1-3.1 2.2v8.3h-1.9V39.3zm13.7 8.1c-.02.01 0-6.5 0-6.5h-2.2v-1.6h2.2v-3.1h1.9v3.1h2.7v1.6h-2.7v6.5c0 1.6.7 2.2 2.3 2.2h.4s-.04 1.62 0 1.6c-.3.1-.6.1-.9.1c-2.5 0-3.7-1.2-3.7-3.9zm5.8.2c0-2.2 1.7-4 4.4-4c1.3 0 2.5.5 3.3 1.4v-1.2c0-1.7-.9-3.1-2.9-3.1c-1.4 0-2.1.5-3 1.4l-1.1-1.3c.9-.9 2.1-1.8 4.2-1.8c3.1 0 4.8 1.9 4.8 4.7c-.05-.01 0 7.5 0 7.5h-1.9V50c-.9 1-2.1 1.5-3.4 1.5c-2.7 0-4.4-1.8-4.4-3.9zm7.7.8v-1.7c-.6-1-1.9-1.5-3-1.5c-2 0-2.7 1.3-2.7 2.4c0 1 .7 2.3 2.7 2.3c1.1 0 2.4-.5 3-1.5zm5-9.1h1.9s-.03 2.13 0 2.1c.6-1.3 1.8-2.4 3.5-2.4c.2 0 .3 0 .5.1v1.9s-.64.02-.6 0c-1.6 0-2.8.9-3.4 2.7c.05-.01 0 7.5 0 7.5h-1.9V39.3zm9.7 0v11.9h-2V39.3h2zm.2-5.1v2.4h-2.4v-2.4h2.4zm4.9 0v17H113v-17h1.9zm6.5 15.8l-4.6-10.7h2s2.78 6.81 2.8 6.8c.3.9.7 1.8.7 2.1c.1-.6.3-1.2.7-2.1c-.03.01 2.5-6.8 2.5-6.8h2.1L121 55.7h-2.1l2.5-5.7zm17.7-11c2.3 0 4.1 1.3 4.8 3.2l-1.6.7c-.5-1.4-1.7-2.2-3.2-2.2c-2.1 0-3.5 1.7-3.5 4.5c0 2.9 1.4 4.6 3.5 4.6c1.5 0 2.7-.8 3.2-2.2l1.6.7c-.7 1.9-2.5 3.2-4.8 3.2c-3.4 0-5.5-2.6-5.5-6.3c0-3.6 2.1-6.2 5.5-6.2zm16.6 12.2h-1.8v-1.6c-.7.9-2 1.9-3.6 1.9c-2.8 0-4.4-1.8-4.4-4.8c.04.01 0-7.4 0-7.4h2s-.04 7.22 0 7.2c0 2.2 1 3.3 2.8 3.3c1.6 0 2.8-1 3.1-2.2v-8.3h1.9v11.9zm4.1-3.8v-6.5h-2.1v-1.6h2.1v-3.1h1.9v3.1h2.7v1.6h-2.7v6.5c0 1.6.7 2.2 2.3 2.2h.4s-.03 1.62 0 1.6c-.3.1-.6.1-.9.1c-2.4 0-3.7-1.2-3.7-3.9zm12.8-5.3c-.7-1-1.6-1.4-2.6-1.4c-1.2 0-1.8.7-1.8 1.6c0 .9.6 1.4 1.5 1.6l1.1.2c2.2.5 3.6 1.6 3.6 3.6c0 2-1.7 3.8-4.5 3.8c-2.1 0-3.7-1.2-4.5-2.5l1.2-1.2c.7 1.1 1.8 2 3.3 2c1.5 0 2.5-.7 2.5-1.9c0-1.1-.9-1.7-2.2-2l-1-.2c-1.9-.4-2.9-1.5-2.9-3.2c0-1.8 1.3-3.5 3.8-3.5c1.6 0 3 .8 3.8 2l-1.3 1.1zm17.5 3.1c0-2.8-1.4-4.5-3.6-4.5c-2.3 0-3.7 1.7-3.7 4.5c0 2.9 1.4 4.6 3.7 4.6c2.2 0 3.6-1.7 3.6-4.6zm2 0c0 3.7-2.2 6.3-5.6 6.3c-3.5 0-5.7-2.6-5.7-6.3c0-3.6 2.2-6.2 5.7-6.2c3.4 0 5.6 2.6 5.6 6.2zm3.1-4.3h-2.1v-1.6h2.1s-.04-1.76 0-1.8c0-2 1.1-3.5 3.5-3.5c.3 0 .7 0 1 .1v1.5s-.58.05-.6 0c-1.4 0-2 .6-2 2c-.02-.03 0 1.7 0 1.7h2.6v1.6h-2.6v10.3h-1.9V40.9zm7.2 0h-2v-1.6h2s.04-1.76 0-1.8c0-2 1.2-3.5 3.6-3.5c.3 0 .7 0 1 .1c-.03-.04 0 1.5 0 1.5c0 0-.6.05-.6 0c-1.4 0-2 .6-2 2c-.04-.03 0 1.7 0 1.7h2.6v1.6h-2.6v10.3h-2V40.9zm12.2 0h-2v-1.6h2s.03-1.76 0-1.8c0-2 1.2-3.5 3.6-3.5c.3 0 .7 0 1 .1c-.04-.04 0 1.5 0 1.5c0 0-.61.05-.6 0c-1.4 0-2.1.6-2.1 2c.05-.03 0 1.7 0 1.7h2.7v1.6h-2.7v10.3h-1.9V40.9zm16.1 10.3h-1.8s-.02-1.61 0-1.6c-.7.9-2 1.9-3.6 1.9c-2.8 0-4.4-1.8-4.4-4.8c.04.01 0-7.4 0-7.4h2s-.04 7.22 0 7.2c0 2.2 1 3.3 2.8 3.3c1.6 0 2.8-1 3.1-2.2v-8.3h1.9v11.9zm2.5-6c0-3.7 2.1-6.2 5.4-6.2c3.2 0 5.2 2.5 5.2 5.9c0 .3 0 .7-.1.9h-8.5c.2 2.5 1.5 4 3.6 4c1.5 0 2.7-.7 3.4-1.8l1.3 1.1c-.9 1.3-2.5 2.4-4.8 2.4c-3.4 0-5.5-2.4-5.5-6.3zm2-1h6.6c-.1-2.1-1.4-3.5-3.2-3.5c-1.8 0-3.1 1.3-3.4 3.5zm12.9-10v17h-2v-17h2zm8.9 13.2c.03.01 0-6.5 0-6.5h-2.1v-1.6h2.2v-3.1h1.9v3.1h2.6v1.6H259s-.05 6.51 0 6.5c0 1.6.7 2.2 2.3 2.2h.3s.02 1.62 0 1.6c-.2.1-.5.1-.8.1c-2.5 0-3.8-1.2-3.8-3.9zm15.3-2.2c0-2.8-1.4-4.5-3.6-4.5c-2.3 0-3.7 1.7-3.7 4.5c0 2.9 1.4 4.6 3.7 4.6c2.2 0 3.6-1.7 3.6-4.6zm2 0c0 3.7-2.2 6.3-5.6 6.3c-3.5 0-5.7-2.6-5.7-6.3c0-3.6 2.2-6.2 5.7-6.2c3.4 0 5.6 2.6 5.6 6.2zm8.2 2.2c-.03.01 0-6.5 0-6.5h-2.2v-1.6h2.2v-3.1h1.9v3.1h2.7v1.6h-2.7v6.5c0 1.6.7 2.2 2.3 2.2h.4s-.04 1.62 0 1.6c-.3.1-.6.1-.9.1c-2.5 0-3.7-1.2-3.7-3.9zm6.7-13.2h2s-.04 6.61 0 6.6c.6-.9 1.9-1.8 3.5-1.8c2.8 0 4.3 1.8 4.3 4.8c.03-.02 0 7.4 0 7.4h-1.9s.01-7.22 0-7.2c0-2.2-1-3.3-2.9-3.3c-1.6 0-2.7 1-3 2.2c-.04-.03 0 8.3 0 8.3h-2v-17zm12.2 11c0-3.7 2.1-6.2 5.4-6.2c3.2 0 5.1 2.5 5.1 5.9v.9h-8.5c.1 2.5 1.4 4 3.6 4c1.4 0 2.6-.7 3.3-1.8l1.3 1.1c-.9 1.3-2.4 2.4-4.8 2.4c-3.4 0-5.4-2.4-5.4-6.3zm2-1h6.5c-.1-2.1-1.3-3.5-3.1-3.5c-1.9 0-3.1 1.3-3.4 3.5zM324 39c2.2 0 4 1.3 4.7 3.2l-1.5.7c-.5-1.4-1.7-2.2-3.2-2.2c-2.2 0-3.5 1.7-3.5 4.5c0 2.9 1.3 4.6 3.5 4.6c1.5 0 2.7-.8 3.2-2.2l1.5.7c-.7 1.9-2.5 3.2-4.7 3.2c-3.5 0-5.5-2.6-5.5-6.3c0-3.6 2-6.2 5.5-6.2zm10 11l-4.6-10.7h2s2.77 6.81 2.8 6.8c.3.9.6 1.8.6 2.1h.1c.1-.6.3-1.2.7-2.1c-.04.01 2.5-6.8 2.5-6.8h2.1l-6.6 16.4h-2.1L334 50zm9.9-15.8v17H342v-17h1.9zm5.2 5.1v11.9h-1.9V39.3h1.9zm.2-5.1v2.4h-2.4v-2.4h2.4zm3 5.1h1.8s.04 1.63 0 1.6c.7-.9 2-1.9 3.7-1.9c2.7 0 4.3 1.8 4.3 4.8c-.02-.02 0 7.4 0 7.4h-1.9s-.04-7.22 0-7.2c0-2.2-1.1-3.3-2.9-3.3c-1.6 0-2.8 1-3.1 2.2v8.3h-1.9V39.3zm21.1 10.2c-.9 1.2-2.3 2-3.8 2c-3.2 0-5.2-2.6-5.2-6.3c0-3.6 2-6.2 5.2-6.2c1.5 0 2.8.8 3.7 1.9c.01 0 0-6.7 0-6.7h1.9v17h-1.8s-.02-1.68 0-1.7zm-.1-1.9v-4.7c-.5-1.3-1.8-2.2-3.3-2.2c-2.3 0-3.6 1.7-3.6 4.5c0 2.9 1.3 4.6 3.6 4.6c1.5 0 2.8-.9 3.3-2.2zm4.4-2.4c0-3.7 2.1-6.2 5.4-6.2c3.2 0 5.2 2.5 5.2 5.9c0 .3 0 .7-.1.9h-8.5c.2 2.5 1.5 4 3.6 4c1.5 0 2.7-.7 3.4-1.8l1.3 1.1c-.9 1.3-2.5 2.4-4.8 2.4c-3.4 0-5.5-2.4-5.5-6.3zm2-1h6.6c-.1-2.1-1.4-3.5-3.2-3.5c-1.8 0-3.1 1.3-3.4 3.5zm10.9-4.9h1.9v2.1c.6-1.3 1.8-2.4 3.5-2.4c.2 0 .4 0 .5.1c.02-.02 0 1.9 0 1.9c0 0-.63.02-.6 0c-1.6 0-2.8.9-3.3 2.7c-.04-.01 0 7.5 0 7.5h-2V39.3zm13.6 2.8c-.7-1-1.6-1.4-2.6-1.4c-1.2 0-1.8.7-1.8 1.6c0 .9.5 1.4 1.5 1.6l1 .2c2.3.5 3.6 1.6 3.6 3.6c0 2-1.6 3.8-4.5 3.8c-2 0-3.6-1.2-4.4-2.5l1.2-1.2c.7 1.1 1.8 2 3.3 2c1.5 0 2.5-.7 2.5-1.9c0-1.1-.9-1.7-2.2-2l-1-.2c-1.9-.4-3-1.5-3-3.2c0-1.8 1.4-3.5 3.9-3.5c1.6 0 2.9.8 3.7 2l-1.2 1.1zm4 14.4l1.3-4H408v-2.8h3v2.5l-1.3 4.3h-1.5zm10.7-17.2h1.8s.04 1.7 0 1.7c.9-1.2 2.3-2 3.8-2c3.2 0 5.2 2.6 5.2 6.2c0 3.7-2 6.3-5.2 6.3c-1.5 0-2.8-.8-3.7-1.9c.01.02 0 6.1 0 6.1h-1.9V39.3zm8.8 5.9c0-2.8-1.3-4.5-3.6-4.5c-1.5 0-2.7.9-3.3 2.2v4.7c.6 1.3 1.8 2.2 3.3 2.2c2.3 0 3.6-1.7 3.6-4.6zm4.5-5.9h1.8s.03 2.13 0 2.1c.7-1.3 1.9-2.4 3.6-2.4c.1 0 .3 0 .5.1c-.04-.02 0 1.9 0 1.9c0 0-.68.02-.7 0c-1.6 0-2.7.9-3.3 2.7v7.5h-1.9V39.3zm16.2 5.9c0-2.8-1.5-4.5-3.7-4.5c-2.2 0-3.6 1.7-3.6 4.5c0 2.9 1.4 4.6 3.6 4.6c2.2 0 3.7-1.7 3.7-4.6zm2 0c0 3.7-2.3 6.3-5.7 6.3c-3.4 0-5.6-2.6-5.6-6.3c0-3.6 2.2-6.2 5.6-6.2c3.4 0 5.7 2.6 5.7 6.2zm10.6 4.3c-.9 1.2-2.2 2-3.8 2c-3.1 0-5.1-2.6-5.1-6.3c0-3.6 2-6.2 5.1-6.2c1.5 0 2.9.8 3.8 1.9c-.04 0 0-6.7 0-6.7h1.9v17H461s.03-1.68 0-1.7zm0-1.9v-4.7c-.6-1.3-1.9-2.2-3.4-2.2c-2.2 0-3.6 1.7-3.6 4.5c0 2.9 1.4 4.6 3.6 4.6c1.5 0 2.8-.9 3.4-2.2zm14.7 3.6h-1.8v-1.6c-.7.9-2 1.9-3.6 1.9c-2.8 0-4.3-1.8-4.3-4.8c-.05.01 0-7.4 0-7.4h1.9s-.03 7.22 0 7.2c0 2.2 1 3.3 2.9 3.3c1.6 0 2.7-1 3-2.2c.02.02 0-8.3 0-8.3h1.9v11.9zm8-12.2c2.3 0 4.1 1.3 4.8 3.2l-1.5.7c-.6-1.4-1.8-2.2-3.3-2.2c-2.1 0-3.5 1.7-3.5 4.5c0 2.9 1.4 4.6 3.5 4.6c1.5 0 2.7-.8 3.3-2.2l1.5.7c-.7 1.9-2.5 3.2-4.8 3.2c-3.4 0-5.5-2.6-5.5-6.3c0-3.6 2.1-6.2 5.5-6.2zm8.9.3v11.9h-1.9V39.3h1.9zm.3-5.1v2.4h-2.4v-2.4h2.4zm2.9 5.1h1.9s-.02 1.63 0 1.6c.6-.9 1.9-1.9 3.6-1.9c2.8 0 4.3 1.8 4.3 4.8c.02-.02 0 7.4 0 7.4h-1.9V44c0-2.2-1.1-3.3-2.9-3.3c-1.6 0-2.7 1-3 2.2c-.05-.03 0 8.3 0 8.3h-2V39.3zm12.2 5.6c0-3.4 1.9-5.9 4.9-5.9c1.5 0 2.9.8 3.7 2c.04-.05 0-1.7 0-1.7h1.9v10.9c0 3-1.7 5.8-5.4 5.8c-2.5 0-4.1-1.4-4.9-3l1.5-.9c.6 1.3 1.7 2.2 3.3 2.2c2.6 0 3.6-1.9 3.6-4.1v-1.3c-.9 1.1-2.2 1.8-3.7 1.8c-3 0-4.9-2.4-4.9-5.8zm8.6 2.1v-4.2c-.6-1.2-1.8-2.1-3.3-2.1c-2.1 0-3.4 1.6-3.4 4.2c0 2.5 1.3 4.1 3.4 4.1c1.5 0 2.7-.8 3.3-2zm9.1.6c0-2.2 1.7-4 4.4-4c1.3 0 2.5.5 3.3 1.4v-1.2c0-1.7-.9-3.1-2.9-3.1c-1.4 0-2.1.5-3 1.4l-1.1-1.3c.9-.9 2.1-1.8 4.2-1.8c3.1 0 4.7 1.9 4.7 4.7c.03-.01 0 7.5 0 7.5h-1.8V50c-.9 1-2.1 1.5-3.4 1.5c-2.7 0-4.4-1.8-4.4-3.9zm7.7.8v-1.7c-.6-1-2-1.5-3-1.5c-2 0-2.7 1.3-2.7 2.4c0 1 .7 2.3 2.7 2.3c1 0 2.4-.5 3-1.5zm5-9.1h1.9s-.05 1.63 0 1.6c.6-.9 1.9-1.9 3.6-1.9c2.7 0 4.3 1.8 4.3 4.8v7.4h-1.9s-.02-7.22 0-7.2c0-2.2-1.1-3.3-2.9-3.3c-1.6 0-2.7 1-3.1 2.2c.03-.03 0 8.3 0 8.3h-1.9V39.3zm17 5.9c0-3.7 2.2-6.2 5.4-6.2c3.2 0 5.2 2.5 5.2 5.9v.9h-8.5c.1 2.5 1.4 4 3.5 4c1.5 0 2.7-.7 3.4-1.8l1.3 1.1c-.9 1.3-2.4 2.4-4.8 2.4c-3.4 0-5.5-2.4-5.5-6.3zm2.1-1h6.5c-.1-2.1-1.4-3.5-3.2-3.5c-1.8 0-3 1.3-3.3 3.5zm15.8 1l4 5.9v.1h-2.2l-3.1-4.9l-3.1 4.9h-2.2v-.1l4-5.9l-3.8-5.8v-.1h2.3l2.8 4.6l2.9-4.6h2.2v.1l-3.8 5.8zm10.1-6.2c2.3 0 4.1 1.3 4.8 3.2l-1.6.7c-.5-1.4-1.7-2.2-3.2-2.2c-2.1 0-3.5 1.7-3.5 4.5c0 2.9 1.4 4.6 3.5 4.6c1.5 0 2.7-.8 3.2-2.2l1.6.7c-.7 1.9-2.5 3.2-4.8 3.2c-3.4 0-5.5-2.6-5.5-6.3c0-3.6 2.1-6.2 5.5-6.2zm8.9.3v11.9h-1.9V39.3h1.9zm.2-5.1v2.4h-2.4v-2.4h2.4zm3.9 13.2c-.03.01 0-6.5 0-6.5h-2.2v-1.6h2.2v-3.1h1.9v3.1h2.6v1.6h-2.6v6.5c0 1.6.7 2.2 2.3 2.2h.3s.05 1.62 0 1.6c-.2.1-.5.1-.8.1c-2.5 0-3.7-1.2-3.7-3.9zm8.7-8.1v11.9h-2V39.3h2zm.2-5.1v2.4h-2.4v-2.4h2.4zm3 5.1h1.8s.02 1.63 0 1.6c.6-.9 2-1.9 3.6-1.9c2.8 0 4.4 1.8 4.4 4.8c-.04-.02 0 7.4 0 7.4h-2s.04-7.22 0-7.2c0-2.2-1-3.3-2.8-3.3c-1.6 0-2.8 1-3.1 2.2v8.3h-1.9V39.3zm12.1 5.6c0-3.4 1.9-5.9 4.9-5.9c1.5 0 2.9.8 3.8 2c-.02-.05 0-1.7 0-1.7h1.8s.02 10.87 0 10.9c0 3-1.7 5.8-5.4 5.8c-2.5 0-4.1-1.4-4.8-3l1.4-.9c.6 1.3 1.7 2.2 3.4 2.2c2.5 0 3.5-1.9 3.5-4.1v-1.3c-.9 1.1-2.2 1.8-3.7 1.8c-3 0-4.9-2.4-4.9-5.8zM629 47v-4.2c-.5-1.2-1.8-2.1-3.2-2.1c-2.1 0-3.4 1.6-3.4 4.2c0 2.5 1.3 4.1 3.4 4.1c1.4 0 2.7-.8 3.2-2zm9.1.6c0-2.2 1.8-4 4.4-4c1.3 0 2.5.5 3.4 1.4v-1.2c0-1.7-1-3.1-3-3.1c-1.4 0-2.1.5-3 1.4l-1.1-1.3c.9-.9 2.1-1.8 4.2-1.8c3.1 0 4.8 1.9 4.8 4.7c-.03-.01 0 7.5 0 7.5h-1.9s.02-1.18 0-1.2c-.9 1-2.1 1.5-3.4 1.5c-2.6 0-4.4-1.8-4.4-3.9zm7.8.8v-1.7c-.7-1-2-1.5-3.1-1.5c-1.9 0-2.7 1.3-2.7 2.4c0 1 .8 2.3 2.7 2.3c1.1 0 2.4-.5 3.1-1.5zm4.9-9.1h1.9v1.6c.6-.9 2-1.9 3.6-1.9c2.8 0 4.3 1.8 4.3 4.8c.04-.02 0 7.4 0 7.4h-1.9s.02-7.22 0-7.2c0-2.2-1-3.3-2.9-3.3c-1.6 0-2.7 1-3 2.2c-.04-.03 0 8.3 0 8.3h-2V39.3zm21.1 10.2c-.8 1.2-2.2 2-3.8 2c-3.1 0-5.1-2.6-5.1-6.3c0-3.6 2-6.2 5.1-6.2c1.5 0 2.9.8 3.8 1.9c-.03 0 0-6.7 0-6.7h1.9v17h-1.9s.04-1.68 0-1.7zm0-1.9v-4.7c-.6-1.3-1.9-2.2-3.3-2.2c-2.3 0-3.6 1.7-3.6 4.5c0 2.9 1.3 4.6 3.6 4.6c1.4 0 2.7-.9 3.3-2.2zm18.3 1.9c-.9 1.2-2.3 2-3.8 2c-3.2 0-5.2-2.6-5.2-6.3c0-3.6 2-6.2 5.2-6.2c1.5 0 2.8.8 3.7 1.9c-.02 0 0-6.7 0-6.7h1.9v17h-1.8s-.04-1.68 0-1.7zm-.1-1.9v-4.7c-.6-1.3-1.8-2.2-3.3-2.2c-2.3 0-3.6 1.7-3.6 4.5c0 2.9 1.3 4.6 3.6 4.6c1.5 0 2.7-.9 3.3-2.2zm8.4 2.4l-4.6-10.7h2.1l2.7 6.8c.4.9.7 1.8.7 2.1l.7-2.1l2.5-6.8h2.1l-6.6 16.4h-2l2.4-5.7zm8-10.7h1.9v1.6c.6-.9 2-1.9 3.6-1.9c2.8 0 4.3 1.8 4.3 4.8c.04-.02 0 7.4 0 7.4h-1.9s.02-7.22 0-7.2c0-2.2-1-3.3-2.9-3.3c-1.6 0-2.7 1-3 2.2c-.03-.03 0 8.3 0 8.3h-2V39.3zm12 8.3c0-2.2 1.7-4 4.4-4c1.2 0 2.4.5 3.3 1.4v-1.2c0-1.7-.9-3.1-2.9-3.1c-1.4 0-2.1.5-3 1.4l-1.1-1.3c.9-.9 2.1-1.8 4.1-1.8c3.2 0 4.8 1.9 4.8 4.7c.02-.01 0 7.5 0 7.5h-1.8s-.02-1.18 0-1.2c-.9 1-2.1 1.5-3.4 1.5c-2.7 0-4.4-1.8-4.4-3.9zm7.7.8v-1.7c-.6-1-2-1.5-3-1.5c-2 0-2.8 1.3-2.8 2.4c0 1 .8 2.3 2.8 2.3c1 0 2.4-.5 3-1.5zm5-9.1h1.8s.04 1.63 0 1.6c.7-.9 2-1.9 3.7-1.9c1.7 0 3 .8 3.6 2.1c.6-1 2.1-2.1 4-2.1c2.7 0 4.2 1.8 4.2 4.7c.02.04 0 7.5 0 7.5h-1.9v-7.3c0-2.1-1-3.2-2.7-3.2c-1.6 0-2.7 1-3.1 2.2c.02-.03 0 8.3 0 8.3h-1.9v-7.3c0-2.1-1-3.2-2.7-3.2c-1.6 0-2.7 1-3.1 2.2c.02-.03 0 8.3 0 8.3h-1.9V39.3zm22.3 0v11.9h-1.9V39.3h1.9zm.3-5.1v2.4h-2.4v-2.4h2.4zm7.7 4.8c2.2 0 4.1 1.3 4.7 3.2l-1.5.7c-.5-1.4-1.7-2.2-3.2-2.2c-2.2 0-3.5 1.7-3.5 4.5c0 2.9 1.3 4.6 3.5 4.6c1.5 0 2.7-.8 3.2-2.2l1.5.7c-.6 1.9-2.5 3.2-4.7 3.2c-3.4 0-5.5-2.6-5.5-6.3c0-3.6 2.1-6.2 5.5-6.2zm17.9 3.1c-.7-1-1.5-1.4-2.6-1.4c-1.1 0-1.8.7-1.8 1.6c0 .9.6 1.4 1.6 1.6l1 .2c2.2.5 3.6 1.6 3.6 3.6c0 2-1.7 3.8-4.5 3.8c-2.1 0-3.6-1.2-4.5-2.5l1.3-1.2c.7 1.1 1.8 2 3.2 2c1.6 0 2.5-.7 2.5-1.9c0-1.1-.8-1.7-2.2-2l-1-.2c-1.8-.4-2.9-1.5-2.9-3.2c0-1.8 1.4-3.5 3.8-3.5c1.7 0 3 .8 3.8 2l-1.3 1.1zm12.6 3.1c0-2.8-1.4-4.5-3.6-4.5c-2.2 0-3.7 1.7-3.7 4.5c0 2.9 1.5 4.6 3.7 4.6c2.2 0 3.6-1.7 3.6-4.6zm2 0c0 3.7-2.2 6.3-5.6 6.3c-3.4 0-5.7-2.6-5.7-6.3c0-3.6 2.3-6.2 5.7-6.2c3.4 0 5.6 2.6 5.6 6.2zm12.1 6h-1.9s.03-1.61 0-1.6c-.6.9-1.9 1.9-3.6 1.9c-2.8 0-4.3-1.8-4.3-4.8c-.02.01 0-7.4 0-7.4h1.9v7.2c0 2.2 1.1 3.3 2.9 3.3c1.6 0 2.7-1 3.1-2.2c-.05.02 0-8.3 0-8.3h1.9v11.9zm3.2-11.9h1.8s.04 1.63 0 1.6c.7-.9 2-1.9 3.7-1.9c2.7 0 4.3 1.8 4.3 4.8c-.02-.02 0 7.4 0 7.4h-1.9s-.04-7.22 0-7.2c0-2.2-1.1-3.3-2.9-3.3c-1.6 0-2.8 1-3.1 2.2v8.3h-1.9V39.3zm21.1 10.2c-.9 1.2-2.3 2-3.8 2c-3.2 0-5.2-2.6-5.2-6.3c0-3.6 2-6.2 5.2-6.2c1.5 0 2.8.8 3.7 1.9c.01 0 0-6.7 0-6.7h1.9v17h-1.8s-.01-1.68 0-1.7zm-.1-1.9v-4.7c-.5-1.3-1.8-2.2-3.3-2.2c-2.3 0-3.6 1.7-3.6 4.5c0 2.9 1.3 4.6 3.6 4.6c1.5 0 2.8-.9 3.3-2.2z" stroke="none" fill="#fff"/></g><g id="Polygon59978"><path d="m.6 2.9h2s2.85 11.4 2.8 11.4c.3 1.2.6 2.3.6 2.6c.1-.3.3-1.4.7-2.6c-.03.03 3.2-11.4 3.2-11.4h2.1l3.3 11.4c.3 1.2.6 2.3.6 2.6h.1c0-.3.2-1.4.5-2.6c.04 0 2.9-11.4 2.9-11.4h2l-4.3 16.3h-2.2S11.62 7.73 11.6 7.7c-.3-1.1-.6-2.1-.6-2.5c0 .4-.3 1.4-.6 2.5c-.03.03-3.3 11.5-3.3 11.5H4.9L.6 2.9zm22.6-.7h2s-.05 6.61 0 6.6c.6-.9 1.9-1.8 3.5-1.8c2.8 0 4.3 1.8 4.3 4.8c.02-.02 0 7.4 0 7.4h-1.9V12c0-2.2-1.1-3.3-2.9-3.3c-1.6 0-2.7 1-3 2.2c-.05-.03 0 8.3 0 8.3h-2v-17zm12.2 11c0-3.7 2.1-6.2 5.4-6.2c3.1 0 5.1 2.5 5.1 5.9v.9h-8.5c.1 2.5 1.4 4 3.5 4c1.5 0 2.7-.7 3.4-1.8l1.3 1.1c-.9 1.3-2.4 2.4-4.8 2.4c-3.4 0-5.4-2.4-5.4-6.3zm2-1h6.5c-.1-2.1-1.3-3.5-3.1-3.5c-1.9 0-3.1 1.3-3.4 3.5zm10.9-4.9h1.8s.04 1.63 0 1.6c.7-.9 2-1.9 3.7-1.9c2.7 0 4.3 1.8 4.3 4.8c-.02-.02 0 7.4 0 7.4h-1.9s-.04-7.22 0-7.2c0-2.2-1.1-3.3-2.9-3.3c-1.6 0-2.8 1-3.1 2.2v8.3h-1.9V7.3zm27.4 11.9h-1.8s-.03-1.61 0-1.6c-.7.9-2 1.9-3.7 1.9c-2.7 0-4.3-1.8-4.3-4.8c.03.01 0-7.4 0-7.4h1.9s.05 7.22 0 7.2c0 2.2 1.1 3.3 2.9 3.3c1.6 0 2.7-1 3.1-2.2V7.3h1.9v11.9zm3.2-11.9h1.9s-.02 1.7 0 1.7c.8-1.2 2.2-2 3.8-2c3.1 0 5.2 2.6 5.2 6.2c0 3.7-2.1 6.3-5.2 6.3c-1.5 0-2.9-.8-3.7-1.9c-.05.02 0 6.1 0 6.1h-2V7.3zm8.9 5.9c0-2.8-1.4-4.5-3.6-4.5c-1.5 0-2.8.9-3.3 2.2v4.7c.5 1.3 1.8 2.2 3.3 2.2c2.2 0 3.6-1.7 3.6-4.6zm10.5-3.1c-.7-1-1.6-1.4-2.6-1.4c-1.2 0-1.8.7-1.8 1.6c0 .9.5 1.4 1.5 1.6l1 .2c2.3.5 3.6 1.6 3.6 3.6c0 2-1.6 3.8-4.5 3.8c-2 0-3.6-1.2-4.4-2.5l1.2-1.2c.7 1.1 1.8 2 3.3 2c1.5 0 2.5-.7 2.5-1.9c0-1.1-.9-1.7-2.2-2l-1-.2c-1.9-.4-3-1.5-3-3.2c0-1.8 1.4-3.5 3.9-3.5c1.6 0 2.9.8 3.7 2l-1.2 1.1zm4.1-7.9h1.9s-.02 6.61 0 6.6c.6-.9 1.9-1.8 3.5-1.8c2.8 0 4.4 1.8 4.4 4.8c-.05-.02 0 7.4 0 7.4h-2s.03-7.22 0-7.2c0-2.2-1-3.3-2.8-3.3c-1.7 0-2.8 1-3.1 2.2c-.02-.03 0 8.3 0 8.3h-1.9v-17zm14.7 5.1v11.9h-1.9V7.3h1.9zm.3-5.1v2.4H115V2.2h2.4zm3.8 6.7h-2.1V7.3h2.1s-.03-1.76 0-1.8c0-2 1.2-3.5 3.5-3.5c.3 0 .7 0 1 .1v1.5s-.57.05-.6 0c-1.4 0-2 .6-2 2c-.01-.03 0 1.7 0 1.7h2.6v1.6h-2.6v10.3h-1.9V8.9zm7.3 6.5c-.03.01 0-6.5 0-6.5h-2.2V7.3h2.2V4.2h1.9v3.1h2.7v1.6h-2.7v6.5c0 1.6.7 2.2 2.3 2.2h.4s-.05 1.62 0 1.6c-.3.1-.6.1-.9.1c-2.5 0-3.7-1.2-3.7-3.9zm8.7-8.1v11.9h-2V7.3h2zm.2-5.1v2.4H135V2.2h2.4zm3 5.1h1.8s.02 1.63 0 1.6c.6-.9 2-1.9 3.6-1.9c2.8 0 4.4 1.8 4.4 4.8c-.03-.02 0 7.4 0 7.4h-2s.05-7.22 0-7.2c0-2.2-1-3.3-2.8-3.3c-1.6 0-2.8 1-3.1 2.2v8.3h-1.9V7.3zm12.1 5.6c0-3.4 1.9-5.9 4.9-5.9c1.5 0 2.9.8 3.8 2c-.02-.05 0-1.7 0-1.7h1.8s.03 10.87 0 10.9c0 3-1.7 5.8-5.3 5.8c-2.6 0-4.2-1.4-4.9-3l1.4-.9c.6 1.3 1.7 2.2 3.4 2.2c2.5 0 3.5-1.9 3.5-4.1v-1.3c-.9 1.1-2.2 1.8-3.7 1.8c-3 0-4.9-2.4-4.9-5.8zm8.6 2.1v-4.2c-.5-1.2-1.8-2.1-3.2-2.1c-2.1 0-3.4 1.6-3.4 4.2c0 2.5 1.3 4.1 3.4 4.1c1.4 0 2.7-.8 3.2-2zm12-7.7v11.9h-1.9V7.3h1.9zm.2-5.1v2.4h-2.4V2.2h2.4zm3 5.1h1.8s.05 1.63 0 1.6c.7-.9 2-1.9 3.7-1.9c2.7 0 4.3 1.8 4.3 4.8c-.01-.02 0 7.4 0 7.4h-1.9s-.03-7.22 0-7.2c0-2.2-1.1-3.3-2.9-3.3c-1.6 0-2.7 1-3.1 2.2c.02-.03 0 8.3 0 8.3h-1.9V7.3zm22.5-.3c2.3 0 4.1 1.3 4.8 3.2l-1.5.7c-.6-1.4-1.7-2.2-3.3-2.2c-2.1 0-3.5 1.7-3.5 4.5c0 2.9 1.4 4.6 3.5 4.6c1.6 0 2.7-.8 3.3-2.2l1.5.7c-.7 1.9-2.5 3.2-4.8 3.2c-3.4 0-5.5-2.6-5.5-6.3c0-3.6 2.1-6.2 5.5-6.2zm6.3 6.2c0-3.7 2.1-6.2 5.4-6.2c3.2 0 5.2 2.5 5.2 5.9c0 .3-.1.7-.1.9h-8.5c.2 2.5 1.5 4 3.6 4c1.4 0 2.6-.7 3.3-1.8l1.3 1.1c-.9 1.3-2.4 2.4-4.8 2.4c-3.3 0-5.4-2.4-5.4-6.3zm2-1h6.5c-.1-2.1-1.3-3.5-3.1-3.5c-1.8 0-3.1 1.3-3.4 3.5zM218 7.3h1.9s-.04 2.13 0 2.1c.6-1.3 1.8-2.4 3.5-2.4c.2 0 .3 0 .5.1v1.9s-.66.02-.7 0c-1.5 0-2.7.9-3.3 2.7c.03-.01 0 7.5 0 7.5H218V7.3zm8.6 8.1c-.04.01 0-6.5 0-6.5h-2.2V7.3h2.2V4.2h1.9v3.1h2.6v1.6h-2.6s-.02 6.51 0 6.5c0 1.6.7 2.2 2.3 2.2h.3s.04 1.62 0 1.6c-.2.1-.5.1-.8.1c-2.5 0-3.7-1.2-3.7-3.9zm5.8.2c0-2.2 1.7-4 4.4-4c1.3 0 2.5.5 3.3 1.4v-1.2c0-1.7-.9-3.1-2.9-3.1c-1.4 0-2.1.5-3 1.4l-1.1-1.3c.9-.9 2.1-1.8 4.2-1.8c3.1 0 4.7 1.9 4.7 4.7c.04-.01 0 7.5 0 7.5h-1.8V18c-.9 1-2.1 1.5-3.4 1.5c-2.7 0-4.4-1.8-4.4-3.9zm7.7.8v-1.7c-.6-1-2-1.5-3-1.5c-2 0-2.7 1.3-2.7 2.4c0 1 .7 2.3 2.7 2.3c1 0 2.4-.5 3-1.5zm6.9-9.1v11.9h-1.9V7.3h1.9zm.3-5.1v2.4h-2.4V2.2h2.4zm2.9 5.1h1.9v1.6c.6-.9 2-1.9 3.6-1.9c2.8 0 4.3 1.8 4.3 4.8c.03-.02 0 7.4 0 7.4h-1.9s.01-7.22 0-7.2c0-2.2-1-3.3-2.9-3.3c-1.6 0-2.7 1-3 2.2c-.04-.03 0 8.3 0 8.3h-2V7.3zm26.1 10.2c-.9 1.2-2.3 2-3.8 2c-3.2 0-5.2-2.6-5.2-6.3c0-3.6 2-6.2 5.2-6.2c1.5 0 2.8.8 3.7 1.9c-.01 0 0-6.7 0-6.7h1.9v17h-1.8s-.04-1.68 0-1.7zm-.1-1.9v-4.7c-.6-1.3-1.8-2.2-3.3-2.2c-2.3 0-3.6 1.7-3.6 4.5c0 2.9 1.3 4.6 3.6 4.6c1.5 0 2.7-.9 3.3-2.2zm5.1-8.3h1.9s-.03 2.13 0 2.1c.6-1.3 1.8-2.4 3.5-2.4c.2 0 .3 0 .5.1v1.9s-.65.02-.6 0c-1.6 0-2.8.9-3.4 2.7c.04-.01 0 7.5 0 7.5h-1.9V7.3zm9.6 0v11.9H289V7.3h1.9zm.3-5.1v2.4h-2.4V2.2h2.4zm1.6 5.1h2.1s2.72 7.68 2.7 7.7c.4.9.7 1.8.7 2.2c0-.4.3-1.3.7-2.2c-.04-.02 2.7-7.7 2.7-7.7h2l-4.5 11.9h-1.8l-4.6-11.9zm14.8 0v11.9h-2V7.3h2zm.2-5.1v2.4h-2.4V2.2h2.4zm3 5.1h1.8s.02 1.63 0 1.6c.6-.9 2-1.9 3.6-1.9c2.8 0 4.4 1.8 4.4 4.8c-.04-.02 0 7.4 0 7.4h-2s.04-7.22 0-7.2c0-2.2-1-3.3-2.8-3.3c-1.6 0-2.8 1-3.1 2.2v8.3h-1.9V7.3zm12.1 5.6c0-3.4 1.9-5.9 4.9-5.9c1.5 0 2.9.8 3.8 2c-.02-.05 0-1.7 0-1.7h1.8s.03 10.87 0 10.9c0 3-1.7 5.8-5.4 5.8c-2.5 0-4.1-1.4-4.8-3l1.4-.9c.6 1.3 1.7 2.2 3.4 2.2c2.5 0 3.5-1.9 3.5-4.1v-1.3c-.9 1.1-2.2 1.8-3.7 1.8c-3 0-4.9-2.4-4.9-5.8zm8.6 2.1v-4.2c-.5-1.2-1.8-2.1-3.2-2.1c-2.1 0-3.4 1.6-3.4 4.2c0 2.5 1.3 4.1 3.4 4.1c1.4 0 2.7-.8 3.2-2zm10.1-7.7h1.8v1.6c.6-.9 2-1.9 3.6-1.9c1.8 0 3 .8 3.7 2.1c.6-1 2-2.1 3.9-2.1c2.8 0 4.3 1.8 4.3 4.7v7.5H357s-.03-7.27 0-7.3c0-2.1-1-3.2-2.7-3.2c-1.7 0-2.8 1-3.1 2.2c-.02-.03 0 8.3 0 8.3h-1.9s-.04-7.27 0-7.3c0-2.1-1-3.2-2.7-3.2c-1.7 0-2.8 1-3.1 2.2c-.02-.03 0 8.3 0 8.3h-1.9V7.3zm28.8 5.9c0-2.8-1.4-4.5-3.6-4.5c-2.2 0-3.6 1.7-3.6 4.5c0 2.9 1.4 4.6 3.6 4.6c2.2 0 3.6-1.7 3.6-4.6zm2 0c0 3.7-2.2 6.3-5.6 6.3c-3.4 0-5.6-2.6-5.6-6.3c0-3.6 2.2-6.2 5.6-6.2c3.4 0 5.6 2.6 5.6 6.2zm10.7 4.3c-.9 1.2-2.3 2-3.8 2c-3.2 0-5.2-2.6-5.2-6.3c0-3.6 2-6.2 5.2-6.2c1.5 0 2.8.8 3.7 1.9c.03 0 0-6.7 0-6.7h2v17h-1.9v-1.7zm-.1-1.9v-4.7c-.5-1.3-1.8-2.2-3.3-2.2c-2.2 0-3.6 1.7-3.6 4.5c0 2.9 1.4 4.6 3.6 4.6c1.5 0 2.8-.9 3.3-2.2zm4.4-2.4c0-3.7 2.2-6.2 5.4-6.2c3.2 0 5.2 2.5 5.2 5.9c0 .3 0 .7-.1.9h-8.5c.2 2.5 1.5 4 3.6 4c1.5 0 2.7-.7 3.4-1.8l1.3 1.1c-.9 1.3-2.5 2.4-4.8 2.4c-3.4 0-5.5-2.4-5.5-6.3zm2.1-1h6.5c-.1-2.1-1.4-3.5-3.2-3.5c-1.8 0-3 1.3-3.3 3.5zm16.9-2.1c-.7-1-1.6-1.4-2.6-1.4c-1.2 0-1.8.7-1.8 1.6c0 .9.6 1.4 1.6 1.6l1 .2c2.2.5 3.6 1.6 3.6 3.6c0 2-1.7 3.8-4.5 3.8c-2.1 0-3.7-1.2-4.5-2.5l1.2-1.2c.7 1.1 1.8 2 3.3 2c1.5 0 2.5-.7 2.5-1.9c0-1.1-.9-1.7-2.2-2l-1-.2c-1.9-.4-2.9-1.5-2.9-3.2c0-1.8 1.3-3.5 3.8-3.5c1.6 0 3 .8 3.8 2l-1.3 1.1zm10.9-7.9v17h-1.9v-17h1.9zm5.2 5.1v11.9h-2V7.3h2zm.2-5.1v2.4h-2.4V2.2h2.4zm6.7 11.3l-1.8 2v3.7h-1.9v-17h1.9v10.9l5.1-5.8h2.3v.1l-4.4 4.8l5 6.9v.1h-2.2l-4-5.7zm6.8-.3c0-3.7 2.2-6.2 5.4-6.2c3.2 0 5.2 2.5 5.2 5.9v.9h-8.5c.1 2.5 1.4 4 3.5 4c1.5 0 2.7-.7 3.4-1.8l1.3 1.1c-.9 1.3-2.4 2.4-4.8 2.4c-3.4 0-5.5-2.4-5.5-6.3zm2.1-1h6.5c-.1-2.1-1.4-3.5-3.2-3.5c-1.8 0-3 1.3-3.3 3.5zm14.6 3.7l1.5-1.1c.8 1.5 2.1 2.9 4.4 2.9c2.2 0 3.6-1.4 3.6-3c0-1.7-1.1-2.4-3.1-3l-1.2-.3c-2.6-.7-4.1-2.2-4.1-4.5c0-2.2 1.6-4.3 4.8-4.3c2.3 0 4 1.1 4.9 2.8l-1.5 1c-.9-1.5-2.1-2-3.5-2c-1.7 0-2.6 1.1-2.6 2.4c0 1.4.7 2.2 2.6 2.6l1.2.4c2.9.8 4.5 2.3 4.5 4.8c0 2.8-2.1 4.9-5.6 4.9c-3.2 0-4.9-1.9-5.9-3.6zm19.8-3.4c-.03.03-3.5 0-3.5 0v6.7h-2V2.9s5.47-.02 5.5 0c3.2 0 5.2 1.7 5.2 4.8c0 3.1-2 4.8-5.2 4.8zm-.3-7.9c.03-.02-3.2 0-3.2 0v6.2s3.23.02 3.2 0c2.3 0 3.4-1.1 3.4-3.1c0-2-1.1-3.1-3.4-3.1zm21.8 6.4c0 5.1-3 8.5-7.5 8.5c-4.3 0-7.3-3.4-7.3-8.5c0-5 3-8.4 7.3-8.4c4.5 0 7.5 3.4 7.5 8.4zm-12.8 0c0 4.2 2.2 6.7 5.4 6.7c3.2 0 5.3-2.5 5.3-6.7c0-4.1-2.1-6.6-5.3-6.6c-3.2 0-5.4 2.5-5.4 6.6zm20.5 1.1h-2.8v7.1h-1.9V2.9s5.88-.02 5.9 0c2.9 0 5 1.7 5 4.6c0 2.5-1.6 4.2-4 4.5l5.7 7.1v.1h-2.4l-5.5-7.1zm1-1.7c2.1 0 3.1-1 3.1-2.9c0-1.9-1-2.9-3.1-2.9c-.01-.02-3.8 0-3.8 0v5.8h3.8zm6.5-5.8V2.9h11.8v1.7h-4.9v14.6h-2V4.6h-4.9zm27 8.6c0-2.8-1.4-4.5-3.6-4.5c-2.2 0-3.7 1.7-3.7 4.5c0 2.9 1.5 4.6 3.7 4.6c2.2 0 3.6-1.7 3.6-4.6zm2 0c0 3.7-2.2 6.3-5.6 6.3c-3.4 0-5.7-2.6-5.7-6.3c0-3.6 2.3-6.2 5.7-6.2c3.4 0 5.6 2.6 5.6 6.2zm2.4-5.9h1.9s-.02 2.13 0 2.1c.6-1.3 1.8-2.4 3.5-2.4c.2 0 .3 0 .5.1v1.9s-.64.02-.6 0c-1.6 0-2.8.9-3.4 2.7c.05-.01 0 7.5 0 7.5h-1.9V7.3zm13.1-4.4h1.7s7.81 11.07 7.8 11.1c.6.8 1.2 1.7 1.3 2h.1c-.1-.3-.2-1.4-.2-2.4c.04-.04 0-10.7 0-10.7h2v16.3h-1.7l-7.8-11.1c-.6-.9-1.2-1.7-1.3-2.1h-.1c.1.4.2 1.4.2 2.5c-.02.02 0 10.7 0 10.7h-2V2.9zm21.3 4.4h1.8s.04 1.63 0 1.6c.7-.9 2-1.9 3.7-1.9c1.7 0 3 .8 3.6 2.1c.6-1 2.1-2.1 4-2.1c2.7 0 4.2 1.8 4.2 4.7c.02.04 0 7.5 0 7.5h-1.9v-7.3c0-2.1-1-3.2-2.7-3.2c-1.6 0-2.7 1-3.1 2.2c.02-.03 0 8.3 0 8.3h-1.9v-7.3c0-2.1-1-3.2-2.7-3.2c-1.6 0-2.7 1-3.1 2.2c.02-.03 0 8.3 0 8.3h-1.9V7.3zm28.9 5.9c0-2.8-1.4-4.5-3.7-4.5c-2.2 0-3.6 1.7-3.6 4.5c0 2.9 1.4 4.6 3.6 4.6c2.3 0 3.7-1.7 3.7-4.6zm2 0c0 3.7-2.2 6.3-5.7 6.3c-3.4 0-5.6-2.6-5.6-6.3c0-3.6 2.2-6.2 5.6-6.2c3.5 0 5.7 2.6 5.7 6.2zm10.6 4.3c-.8 1.2-2.2 2-3.8 2c-3.1 0-5.1-2.6-5.1-6.3c0-3.6 2-6.2 5.1-6.2c1.5 0 2.9.8 3.8 1.9c-.03 0 0-6.7 0-6.7h1.9v17h-1.9s.04-1.68 0-1.7zm0-1.9v-4.7c-.6-1.3-1.9-2.2-3.3-2.2c-2.3 0-3.6 1.7-3.6 4.5c0 2.9 1.3 4.6 3.6 4.6c1.4 0 2.7-.9 3.3-2.2zm4.4-2.4c0-3.7 2.1-6.2 5.4-6.2c3.2 0 5.1 2.5 5.1 5.9v.9h-8.5c.1 2.5 1.4 4 3.6 4c1.4 0 2.6-.7 3.3-1.8l1.3 1.1c-.9 1.3-2.4 2.4-4.8 2.4c-3.4 0-5.4-2.4-5.4-6.3zm2-1h6.5c-.1-2.1-1.3-3.5-3.1-3.5c-1.9 0-3.1 1.3-3.4 3.5zm10.8 12.3l1.3-4h-1.5v-2.8h3.1v2.5l-1.4 4.3h-1.5zm11.6-9.1c-.03.01 0-6.5 0-6.5h-2.2V7.3h2.2V4.2h1.9v3.1h2.7v1.6h-2.7v6.5c0 1.6.7 2.2 2.3 2.2h.4s-.05 1.62 0 1.6c-.3.1-.6.1-.9.1c-2.5 0-3.7-1.2-3.7-3.9zm6.7-13.2h2s-.04 6.61 0 6.6c.6-.9 1.9-1.8 3.5-1.8c2.8 0 4.3 1.8 4.3 4.8c.03-.02 0 7.4 0 7.4h-1.9s.01-7.22 0-7.2c0-2.2-1-3.3-2.9-3.3c-1.6 0-2.7 1-3 2.2c-.04-.03 0 8.3 0 8.3h-2v-17zm12.2 11c0-3.7 2.1-6.2 5.4-6.2c3.1 0 5.1 2.5 5.1 5.9v.9h-8.5c.1 2.5 1.4 4 3.5 4c1.5 0 2.7-.7 3.4-1.8l1.3 1.1c-.9 1.3-2.4 2.4-4.8 2.4c-3.4 0-5.4-2.4-5.4-6.3zm2-1h6.5c-.1-2.1-1.3-3.5-3.1-3.5c-1.9 0-3.1 1.3-3.4 3.5zm16.2 7V2.9h10v1.7h-8v5.5h6.9v1.7h-6.9v5.7h8v1.7h-10zm16.1-10.1c-.6-1.4-1-2.7-1.1-3.1h-.1c.1.4.1 1.8.1 3.3c.02-.04 0 9.9 0 9.9h-2V2.9h2.6s4.72 11.81 4.7 11.8c.4.9.7 1.7.7 2.1h.1c0-.4.3-1.2.6-2.1c.01.01 4.8-11.8 4.8-11.8h2.5v16.3h-2s.02-9.94 0-9.9c0-1.5.1-2.9.1-3.3h-.1c0 .4-.5 1.7-1 3.1c-.04-.03-4 10.1-4 10.1h-1.9s-4.03-10.13-4-10.1zm15.4 6.8l1.5-1.1c.8 1.5 2.1 2.9 4.4 2.9c2.2 0 3.5-1.4 3.5-3c0-1.7-1-2.4-3.1-3l-1.2-.3c-2.6-.7-4-2.2-4-4.5c0-2.2 1.6-4.3 4.7-4.3c2.4 0 4 1.1 5 2.8l-1.5 1c-.9-1.5-2.1-2-3.5-2c-1.8 0-2.6 1.1-2.6 2.4c0 1.4.7 2.2 2.5 2.6l1.2.4c3 .8 4.6 2.3 4.6 4.8c0 2.8-2.2 4.9-5.7 4.9c-3.1 0-4.9-1.9-5.8-3.6zM737.7 7c2.2 0 4 1.3 4.7 3.2l-1.5.7c-.6-1.4-1.7-2.2-3.2-2.2c-2.2 0-3.6 1.7-3.6 4.5c0 2.9 1.4 4.6 3.6 4.6c1.5 0 2.6-.8 3.2-2.2l1.5.7c-.7 1.9-2.5 3.2-4.7 3.2c-3.5 0-5.5-2.6-5.5-6.3c0-3.6 2-6.2 5.5-6.2zm15.4 6.2c0-2.8-1.4-4.5-3.6-4.5c-2.2 0-3.6 1.7-3.6 4.5c0 2.9 1.4 4.6 3.6 4.6c2.2 0 3.6-1.7 3.6-4.6zm2 0c0 3.7-2.2 6.3-5.6 6.3c-3.4 0-5.6-2.6-5.6-6.3c0-3.6 2.2-6.2 5.6-6.2c3.4 0 5.6 2.6 5.6 6.2zm2.4-5.9h1.9v1.6c.6-.9 2-1.9 3.6-1.9c2.8 0 4.3 1.8 4.3 4.8c.04-.02 0 7.4 0 7.4h-1.9s.02-7.22 0-7.2c0-2.2-1-3.3-2.9-3.3c-1.6 0-2.7 1-3 2.2c-.03-.03 0 8.3 0 8.3h-2V7.3zm13.7 8.1c.05.01 0-6.5 0-6.5h-2.1V7.3h2.2V4.2h1.9v3.1h2.6v1.6h-2.6s-.03 6.51 0 6.5c0 1.6.7 2.2 2.3 2.2h.3s.03 1.62 0 1.6c-.2.1-.5.1-.8.1c-2.5 0-3.8-1.2-3.8-3.9zm6.8-8.1h1.9s-.03 2.13 0 2.1c.6-1.3 1.8-2.4 3.5-2.4c.2 0 .3 0 .5.1v1.9s-.65.02-.7 0c-1.5 0-2.7.9-3.3 2.7c.04-.01 0 7.5 0 7.5H778V7.3zm16.2 5.9c0-2.8-1.4-4.5-3.6-4.5c-2.2 0-3.7 1.7-3.7 4.5c0 2.9 1.5 4.6 3.7 4.6c2.2 0 3.6-1.7 3.6-4.6zm2 0c0 3.7-2.2 6.3-5.6 6.3c-3.4 0-5.6-2.6-5.6-6.3c0-3.6 2.2-6.2 5.6-6.2c3.4 0 5.6 2.6 5.6 6.2zm4.4-11v17h-2v-17h2z" stroke="none" fill="#fff"/></g></svg>