<?xml version="1.0" standalone="no"?><!DOCTYPE svg PUBLIC "-//W3C//DTD SVG 1.1//EN" "http://www.w3.org/Graphics/SVG/1.1/DTD/svg11.dtd"><svg xmlns="http://www.w3.org/2000/svg" version="1.1" width="80.2px" height="23.6px" viewBox="0 -4 80.2 23.6" style="top:-4px"><desc>모션_1스텝</desc><defs/><g id="Polygon59530"><path d="m.2 9.9l1.3-1.2c.6.9 1.5 1.8 3.1 1.8c1.2 0 1.9-.7 1.9-1.5c0-.6-.4-1.1-1.6-1.3L4 7.6c-1.8-.3-3-1.3-3-2.9C1 3 2.4 1.6 4.7 1.6c1.5 0 2.8.7 3.5 1.6L7 4.5c-.6-.7-1.5-1.2-2.4-1.2c-1 0-1.6.6-1.6 1.2c0 .6.4 1 1.3 1.2l.9.1c2.1.3 3.3 1.4 3.3 3.1c0 2-1.6 3.3-3.9 3.3C2.2 12.2.9 11 .2 9.9zm11.9-6.4H9V1.8h8.1v1.7H14v8.5h-1.9V3.5zm6.4-1.7h7.1v1.7h-5.2v2.5h4.5v1.7h-4.5v2.6h5.2v1.7h-7.1V1.8zm8.9 0h4c2.2 0 3.7 1 3.7 3.2c0 2.2-1.5 3.2-3.7 3.2h-2.1v3.8h-1.9V1.8zm3.8 4.7c1.1 0 1.8-.4 1.8-1.5c0-1.1-.7-1.5-1.8-1.5h-1.9v3s1.87-.02 1.9 0zm8.1.4c0-3.2 1.5-5.3 4.3-5.3c2.7 0 4.2 2.1 4.2 5.3c0 3.2-1.5 5.3-4.2 5.3c-2.8 0-4.3-2.1-4.3-5.3zm6.6 0c0-2.1-.7-3.5-2.3-3.5c-1.7 0-2.4 1.4-2.4 3.5c0 2.1.7 3.5 2.4 3.5c1.6 0 2.3-1.4 2.3-3.5zM51 4l-1.8 1l-.7-1.5l3-1.7h1.4V12H51v-8zm6.3 8.6h7.5v1.4h-7.5v-1.4zm8.1-5.7c0-3.2 1.6-5.3 4.3-5.3c2.8 0 4.3 2.1 4.3 5.3c0 3.2-1.5 5.3-4.3 5.3c-2.7 0-4.3-2.1-4.3-5.3zm6.7 0c0-2.1-.7-3.5-2.4-3.5c-1.7 0-2.3 1.4-2.3 3.5c0 2.1.6 3.5 2.3 3.5c1.7 0 2.4-1.4 2.4-3.5zM77.2 4l-1.9 1l-.7-1.5l3.1-1.7h1.4V12h-1.9v-8z" stroke="none" fill="#fff"/></g></svg>