<?xml version="1.0" standalone="no"?><!DOCTYPE svg PUBLIC "-//W3C//DTD SVG 1.1//EN" "http://www.w3.org/Graphics/SVG/1.1/DTD/svg11.dtd"><svg xmlns="http://www.w3.org/2000/svg" version="1.1" width="319px" height="47.6px" viewBox="0 -7 319 47.6" style="top:-7px"><desc>Sales Talk</desc><defs/><g id="Polygon53777"><path d="m.4 21.2l2.8-2.6c1.2 1.9 3.3 3.8 6.6 3.8c2.8 0 4.2-1.3 4.2-3c0-1.4-1-2.5-3.6-2.9l-1.9-.2c-3.8-.6-6.4-2.8-6.4-6.2c0-3.7 3-6.7 7.9-6.7c3.4 0 6.1 1.5 7.7 3.6L15 9.7C13.7 8 11.8 7.2 9.9 7.2c-2.2 0-3.5 1.1-3.5 2.5c0 1.2 1 2.2 2.9 2.5l1.8.3c4.5.6 7.2 2.9 7.2 6.6c0 4.2-3.5 7.1-8.5 7.1c-5.1 0-7.8-2.6-9.4-5zm33.1 2.6c-1.2 1.4-3 2.3-5.1 2.3c-4.6 0-8-3.4-8-8.6c0-5.3 3.4-8.7 8-8.7c2.1 0 3.9.9 5.1 2.3c.04 0 0-1.9 0-1.9h4.1v16.5h-4.1s.04-1.85 0-1.9zm0-3.8v-5.1c-.7-1.5-2.4-2.5-4.2-2.5c-2.7 0-4.8 1.9-4.8 5.1c0 3.2 2.1 5 4.8 5c1.8 0 3.5-.9 4.2-2.5zm8-17.1h4.1v22.8h-4.1V2.9zm7.1 14.6c0-5.2 3.5-8.7 8.3-8.7c4.9 0 8 3.3 8 8.1c0 .5-.1 1.3-.2 2h-12c.4 2.2 2 3.7 4.8 3.7c2.1 0 3.8-1.1 4.7-2.4l2.3 2.7c-1.5 1.8-4 3.3-7.1 3.3c-5.4 0-8.8-3.9-8.8-8.7zm4.2-2h8.1c-.3-2.1-1.7-3.3-4-3.3c-2.1 0-3.6 1.2-4.1 3.3zm13.6 7.4l2.2-2.5c1.1 1.3 3 2.5 4.9 2.5c1.8 0 3.1-.8 3.1-2c0-1.1-1-1.5-2.6-1.8l-1.5-.2c-3.1-.5-4.9-2.2-4.9-4.9c0-2.9 2.4-5.2 6.5-5.2c2.7 0 4.7 1.1 5.9 2.5l-2.2 2.6c-1-1.1-2.3-1.8-3.8-1.8c-1.6 0-2.4.7-2.4 1.6c0 .9.7 1.3 1.9 1.5l1.5.2c3.8.6 5.7 2.4 5.7 5.3c0 3-2.7 5.5-7.3 5.5c-3.1 0-5.5-1.5-7-3.3zM95.6 7.5H89V3.9h17.5v3.6h-6.7v18.2h-4.2V7.5zm22.8 16.3c-1.2 1.4-3 2.3-5.2 2.3c-4.6 0-8-3.4-8-8.6c0-5.3 3.4-8.7 8-8.7c2.2 0 4 .9 5.2 2.3V9.2h4.1v16.5h-4.1v-1.9zm0-3.8v-5.1c-.7-1.5-2.4-2.5-4.3-2.5c-2.6 0-4.7 1.9-4.7 5.1c0 3.2 2.1 5 4.7 5c1.9 0 3.6-.9 4.3-2.5zm8-17.1h4.1v22.8h-4.1V2.9zm8 0h4.1v13.3l6.4-7h4.6v.1l-6.3 7l7 9.4h-4.8l-4.8-6.6l-2.1 2.4v4.2h-4.1V2.9z" stroke="none" fill="#fff"/></g></svg>