<?xml version="1.0" standalone="no"?><!DOCTYPE svg PUBLIC "-//W3C//DTD SVG 1.1//EN" "http://www.w3.org/Graphics/SVG/1.1/DTD/svg11.dtd"><svg xmlns="http://www.w3.org/2000/svg" version="1.1" width="284.2px" height="40.6px" viewBox="0 -1 284.2 40.6" style="top:-1px"><desc>Wireless Smartphone Charging</desc><defs/><g id="Polygon55172"><path d="m41.9 12.7h1.3l2.2 7.7l2.5-7.7h1.4l2.5 7.7l2.2-7.7h1.4l-2.8 9.5h-1.4l-2.6-7.7l-2.5 7.7h-1.4l-2.8-9.5zm14.6 2.5h1.3v7h-1.3v-7zm0-3.1h1.3v1.5h-1.3v-1.5zm3.2 3.1h1.3s-.02 1.19 0 1.2c.4-.8 1.1-1.4 2.2-1.4c-.01.03.1 0 .1 0c0 0 .04 1.25 0 1.3c-1.1 0-1.9.4-2.3 1.5c-.02.03 0 4.4 0 4.4h-1.3v-7zm4.4 3.5c0-2.2 1.4-3.7 3.5-3.7c2 0 3.3 1.5 3.3 3.5v.6h-5.5c.1 1.3 1 2.1 2.3 2.1c.9 0 1.8-.5 2.3-1.2l.8.8c-.7.9-1.8 1.6-3.1 1.6c-2.2 0-3.6-1.6-3.6-3.7zm1.3-.6h4.2c0-1.2-.9-2-2-2c-1.2 0-2 .8-2.2 2zm7-5.8h1.2v9.9h-1.2v-9.9zm2.7 6.4c0-2.2 1.5-3.7 3.5-3.7c2 0 3.3 1.5 3.3 3.5v.6h-5.5c.2 1.3 1 2.1 2.3 2.1c1 0 1.8-.5 2.3-1.2l.8.8c-.7.9-1.8 1.6-3.1 1.6c-2.2 0-3.6-1.6-3.6-3.7zm1.3-.6h4.3c-.1-1.2-1-2-2.1-2c-1.2 0-2 .8-2.2 2zm6.3 2.8l.8-.9c.4.7 1.2 1.2 2.2 1.2c.9 0 1.6-.3 1.6-1.1c0-.5-.5-.8-1.4-1l-.6-.1c-1.3-.2-2.1-.8-2.1-1.9c0-1.1.9-2.1 2.6-2.1c1.1 0 2 .5 2.5 1.2l-.8.8c-.4-.5-1-.8-1.7-.8c-.9 0-1.3.4-1.3.9c0 .4.4.7 1.1.8l.6.1c1.5.2 2.4.9 2.4 2.1c0 1.3-1.1 2.3-3 2.3c-1.3 0-2.3-.7-2.9-1.5zm6.6 0l.8-.9c.4.7 1.3 1.2 2.2 1.2c.9 0 1.6-.3 1.6-1.1c0-.5-.5-.8-1.4-1l-.6-.1c-1.2-.2-2.1-.8-2.1-1.9c0-1.1 1-2.1 2.6-2.1c1.1 0 2 .5 2.5 1.2l-.8.8c-.4-.5-1-.8-1.7-.8c-.8 0-1.3.4-1.3.9c0 .4.4.7 1.1.8l.6.1c1.5.2 2.4.9 2.4 2.1c0 1.3-1.1 2.3-2.9 2.3c-1.4 0-2.4-.7-3-1.5zm9.9-.7l.9-.9c.5 1 1.5 1.9 3 1.9c1.5 0 2.2-.8 2.2-1.8c0-.8-.7-1.3-1.8-1.5l-.9-.2c-1.6-.2-2.7-1.1-2.7-2.5c0-1.4 1.2-2.7 3.3-2.7c1.4 0 2.6.7 3.2 1.6l-.9.8c-.6-.8-1.4-1.2-2.3-1.2c-1.2 0-2 .7-2 1.4c0 .8.6 1.2 1.6 1.4l.9.1c1.8.3 3 1.2 3 2.8c0 1.7-1.4 3-3.6 3c-2.1 0-3.3-1.2-3.9-2.2zm19-2c0-1.3-.6-2-1.8-2c-1.1 0-1.7.7-2 1.4c.04.02 0 4.6 0 4.6h-1.2s-.02-3.96 0-4c0-1.3-.7-2-1.9-2c-1 0-1.7.7-1.9 1.4v4.6h-1.2v-7h1.2s.01 1.05 0 1.1c.4-.7 1.1-1.3 2.3-1.3c1.2 0 2 .6 2.4 1.5c.5-.9 1.4-1.5 2.6-1.5c1.8 0 2.8 1.2 2.8 3.1c-.03.01 0 4.1 0 4.1h-1.3v-4zm8.5 3c-.5.7-1.4 1.2-2.4 1.2c-1.9 0-3.4-1.5-3.4-3.7c0-2.2 1.5-3.7 3.4-3.7c1 0 1.9.5 2.4 1.2c.02-.02 0-1 0-1h1.3v7h-1.3s.02-.99 0-1zm0-1.3v-2.4c-.3-.8-1.2-1.3-2.2-1.3c-1.3 0-2.3.9-2.3 2.5c0 1.6 1 2.5 2.3 2.5c1 0 1.9-.5 2.2-1.3zm3.2-4.7h1.3s-.03 1.19 0 1.2c.4-.8 1.1-1.4 2.2-1.4c-.02.03.1 0 .1 0c0 0 .04 1.25 0 1.3c-1.1 0-2 .4-2.3 1.5c-.03.03 0 4.4 0 4.4h-1.3v-7zm5.3 4.5v-3.5H134v-1h1.2v-1.8h1.3v1.8h1.7v1h-1.7s-.04 3.58 0 3.6c0 1 .4 1.4 1.5 1.4c-.04-.02.2 0 .2 0c0 0-.02 1.01 0 1c-.2 0-.4.1-.6.1c-1.6 0-2.4-.8-2.4-2.6zm4.3-4.5h1.3s-.03.98 0 1c.5-.7 1.3-1.2 2.4-1.2c1.9 0 3.4 1.5 3.4 3.7c0 2.2-1.5 3.7-3.4 3.7c-1.1 0-1.9-.5-2.4-1.2c-.03.02 0 3.6 0 3.6h-1.3v-9.6zm5.8 3.5c0-1.6-1.1-2.5-2.4-2.5c-.9 0-1.8.5-2.1 1.3v2.4c.3.8 1.2 1.3 2.1 1.3c1.3 0 2.4-.9 2.4-2.5zm2.8-6.4h1.2s.04 3.98 0 4c.4-.6 1.2-1.3 2.4-1.3c1.8 0 2.7 1.2 2.7 3.1c.04.01 0 4.1 0 4.1h-1.2s-.02-3.96 0-4c0-1.3-.7-2-1.9-2c-1.2 0-1.8.9-2 1.4c.04.02 0 4.6 0 4.6h-1.2v-9.9zm7.8 6.4c0-2 1.3-3.7 3.6-3.7c2.2 0 3.6 1.7 3.6 3.7c0 2-1.4 3.7-3.6 3.7c-2.3 0-3.6-1.7-3.6-3.7zm5.9 0c0-1.5-1-2.5-2.3-2.5c-1.3 0-2.3 1-2.3 2.5c0 1.5 1 2.5 2.3 2.5c1.3 0 2.3-1 2.3-2.5zm2.8-3.5h1.2s.05 1.05 0 1.1c.4-.7 1.2-1.3 2.4-1.3c1.8 0 2.7 1.2 2.7 3.1c.04.01 0 4.1 0 4.1h-1.2s-.02-3.96 0-4c0-1.3-.7-2-1.9-2c-1 0-1.7.7-2 1.4c.05.02 0 4.6 0 4.6h-1.2v-7zm7.8 3.5c0-2.2 1.4-3.7 3.4-3.7c2.1 0 3.4 1.5 3.4 3.5c0 .2 0 .4-.1.6h-5.4c.1 1.3.9 2.1 2.3 2.1c.9 0 1.8-.5 2.3-1.2l.7.8c-.7.9-1.7 1.6-3.1 1.6c-2.1 0-3.5-1.6-3.5-3.7zm1.3-.6h4.2c-.1-1.2-.9-2-2.1-2c-1.1 0-1.9.8-2.1 2zm9.9-.7c0-2.7 2-4.9 4.7-4.9c2 0 3.5 1 4.3 2.5l-1 .7c-.7-1.2-1.7-2-3.3-2c-2 0-3.4 1.6-3.4 3.7c0 2.1 1.4 3.8 3.4 3.8c1.6 0 2.6-.8 3.3-2l1 .7c-.8 1.5-2.3 2.5-4.3 2.5c-2.7 0-4.7-2.2-4.7-5zm10.3-5.1h1.3v4c.4-.6 1.1-1.3 2.3-1.3c1.8 0 2.8 1.2 2.8 3.1v4.1H199s.03-3.96 0-4c0-1.3-.6-2-1.8-2c-1.2 0-1.9.9-2 1.4v4.6h-1.3v-9.9zm13.6 8.9c-.5.7-1.4 1.2-2.4 1.2c-1.9 0-3.4-1.5-3.4-3.7c0-2.2 1.5-3.7 3.4-3.7c1 0 1.9.5 2.4 1.2c.04-.02 0-1 0-1h1.3v7h-1.3s.04-.99 0-1zm0-1.3v-2.4c-.3-.8-1.2-1.3-2.1-1.3c-1.3 0-2.4.9-2.4 2.5c0 1.6 1.1 2.5 2.4 2.5c.9 0 1.8-.5 2.1-1.3zm3.2-4.7h1.3v1.2c.4-.8 1.1-1.4 2.2-1.4c0 .03.2 0 .2 0c0 0-.04 1.25 0 1.3c-1.2 0-2 .4-2.4 1.5c-.01.03 0 4.4 0 4.4h-1.3v-7zm4.2 3.2c0-2 1.3-3.4 3.3-3.4c1 0 1.7.5 2.3 1.1c-.02.04 0-.9 0-.9h1.2s.04 6.08 0 6.1c0 2.4-1.6 3.6-3.5 3.6c-1.5 0-2.6-.6-3.1-1.5l.8-.8c.5.7 1.3 1.2 2.3 1.2c1.2 0 2.3-.8 2.3-2.4v-.6c-.6.7-1.3 1.1-2.3 1.1c-2 0-3.3-1.4-3.3-3.5zm5.6 1.1v-2.1c-.4-.7-1.1-1.2-2.1-1.2c-1.3 0-2.2.9-2.2 2.2c0 1.4.9 2.3 2.2 2.3c1 0 1.7-.5 2.1-1.2zm3.2-4.3h1.2v7h-1.2v-7zm-.1-3.1h1.4v1.5h-1.4v-1.5zm3.3 3.1h1.2s.02 1.05 0 1.1c.4-.7 1.2-1.3 2.3-1.3c1.8 0 2.8 1.2 2.8 3.1c.02.01 0 4.1 0 4.1H232s-.05-3.96 0-4c0-1.3-.7-2-1.9-2c-1.1 0-1.8.7-2 1.4c.02.02 0 4.6 0 4.6h-1.2v-7zm7.8 3.2c0-2 1.3-3.4 3.2-3.4c1 0 1.8.5 2.3 1.1c.03.04 0-.9 0-.9h1.3s-.01 6.08 0 6.1c0 2.4-1.7 3.6-3.5 3.6c-1.5 0-2.6-.6-3.2-1.5l.8-.8c.5.7 1.3 1.2 2.4 1.2c1.2 0 2.2-.8 2.2-2.4v-.6c-.5.7-1.3 1.1-2.3 1.1c-1.9 0-3.2-1.4-3.2-3.5zm5.5 1.1v-2.1c-.3-.7-1.1-1.2-2-1.2c-1.3 0-2.3.9-2.3 2.2c0 1.4 1 2.3 2.3 2.3c.9 0 1.7-.5 2-1.2z" stroke="none" fill="#fff"/></g></svg>