<?xml version="1.0" standalone="no"?><!DOCTYPE svg PUBLIC "-//W3C//DTD SVG 1.1//EN" "http://www.w3.org/Graphics/SVG/1.1/DTD/svg11.dtd"><svg xmlns="http://www.w3.org/2000/svg" version="1.1" width="91px" height="20.4px" viewBox="0 -4 91 20.4" style="top:-4px"><desc>PDF Download</desc><defs/><g id="Polygon57580"><path d="m1.8 1.6s3.38-.04 3.4 0c1.9 0 3 .9 3 2.6c0 1.7-1.1 2.7-3 2.7c-.02-.04-2.2 0-2.2 0v3.5H1.8V1.6zM5 5.8c1.3 0 2-.5 2-1.6c0-1-.7-1.6-2-1.6c.04.03-2 0-2 0v3.2h2zm4.7-4.2s3.37-.04 3.4 0c2.4 0 4.3 1.5 4.3 4.4c0 2.8-1.9 4.4-4.3 4.4H9.7V1.6zm1.2 1v6.7s2.1.03 2.1 0c1.9 0 3.2-1.1 3.2-3.3c0-2.2-1.3-3.4-3.2-3.4c0 .03-2.1 0-2.1 0zm8.2-1h5.8v1h-4.6v2.8h4.2v1.1h-4.2v3.9h-1.2V1.6zm10.4 0s3.36-.04 3.4 0c2.4 0 4.3 1.5 4.3 4.4c0 2.8-1.9 4.4-4.3 4.4h-3.4V1.6zm1.2 1v6.7s2.08.03 2.1 0c1.9 0 3.1-1.1 3.1-3.3c0-2.2-1.2-3.4-3.1-3.4c-.02.03-2.1 0-2.1 0zm7.5 4.6c0-1.9 1.3-3.5 3.4-3.5c2.1 0 3.3 1.6 3.3 3.5c0 1.8-1.2 3.4-3.3 3.4c-2.1 0-3.4-1.6-3.4-3.4zm5.6 0c0-1.5-1-2.4-2.2-2.4c-1.2 0-2.2.9-2.2 2.4c0 1.4 1 2.3 2.2 2.3c1.2 0 2.2-.9 2.2-2.3zm1.7-3.3h1.2l1.6 4.9l1.8-4.9h1.2L53 8.8l1.6-4.9h1.2l-2.2 6.5h-1.1l-1.8-5l-1.9 5h-1.1l-2.2-6.5zm11.4 0h1.2s-.03.98 0 1c.3-.6 1-1.2 2.1-1.2c1.7 0 2.6 1.1 2.6 2.9v3.8h-1.2s.03-3.68 0-3.7c0-1.2-.6-1.9-1.7-1.9c-1 0-1.6.6-1.8 1.3c-.03.05 0 4.3 0 4.3h-1.2V3.9zm7.6-2.7h1.2v9.2h-1.2V1.2zm2.6 6c0-1.9 1.3-3.5 3.3-3.5c2.1 0 3.4 1.6 3.4 3.5c0 1.8-1.3 3.4-3.4 3.4c-2 0-3.3-1.6-3.3-3.4zm5.5 0c0-1.5-.9-2.4-2.2-2.4c-1.2 0-2.1.9-2.1 2.4c0 1.4.9 2.3 2.1 2.3c1.3 0 2.2-.9 2.2-2.3zm7.6 2.3c-.5.6-1.3 1-2.2 1c-1.9 0-3.2-1.3-3.2-3.4c0-2 1.3-3.4 3.2-3.4c.9 0 1.7.5 2.2 1.1c-.01.01 0-.9 0-.9h1.2v6.5h-1.2s-.01-.92 0-.9zm0-1.2V6c-.3-.7-1.1-1.2-2-1.2c-1.2 0-2.2.9-2.2 2.3c0 1.5 1 2.4 2.2 2.4c.9 0 1.7-.5 2-1.2zm8 1.2c-.5.6-1.3 1-2.3 1c-1.8 0-3.1-1.3-3.1-3.4c0-2 1.3-3.4 3.1-3.4c1 0 1.8.5 2.3 1.1c-.04.01 0-3.6 0-3.6h1.1v9.2h-1.1s-.04-.92 0-.9zm0-1.2V6c-.4-.7-1.1-1.2-2.1-1.2c-1.2 0-2.2.9-2.2 2.3c0 1.5 1 2.4 2.2 2.4c1 0 1.7-.5 2.1-1.2z" stroke="none" fill="#676767"/></g></svg>