<?xml version="1.0" standalone="no"?><!DOCTYPE svg PUBLIC "-//W3C//DTD SVG 1.1//EN" "http://www.w3.org/Graphics/SVG/1.1/DTD/svg11.dtd"><svg xmlns="http://www.w3.org/2000/svg" version="1.1" width="284px" height="30.5px" viewBox="0 -5 284 30.5" style="top:-5px"><desc>VIEW NOW</desc><defs/><g id="Polygon53929"><path d="m87.8 2.4h2.7l4 10.7l3.9-10.7h2.7L96 16h-3.1L87.8 2.4zm15.2 0h2.6V16H103V2.4zm6 0h9.6v2.3h-7v3.3h6v2.3h-6v3.4h7v2.3H109V2.4zm10.9 0h2.6l2.8 10.1l3.1-10.1h2.9l3.1 10.1l2.8-10.1h2.6L135.9 16H133l-3.2-10.1l-3.1 10.1h-2.9l-3.9-13.6zm26.6 0h2.3l7.4 9.3V2.4h2.6V16h-2.3l-7.4-9.3v9.3h-2.6V2.4zm14.8 6.8c0-4.1 2.9-7.1 7-7.1c4 0 6.9 3 6.9 7.1c0 4.1-2.9 7.1-6.9 7.1c-4.1 0-7-3-7-7.1zm2.7 0c0 2.6 1.6 4.7 4.3 4.7c2.6 0 4.2-2.1 4.2-4.7c0-2.6-1.6-4.7-4.2-4.7c-2.7 0-4.3 2.1-4.3 4.7zm12.2-6.8h2.6l2.8 10.1l3.1-10.1h2.9l3.1 10.1l2.8-10.1h2.6L192.2 16h-2.9l-3.1-10.1L183 16h-2.9l-3.9-13.6z" stroke="none" fill="#000"/></g></svg>