<?xml version="1.0" standalone="no"?><!DOCTYPE svg PUBLIC "-//W3C//DTD SVG 1.1//EN" "http://www.w3.org/Graphics/SVG/1.1/DTD/svg11.dtd"><svg xmlns="http://www.w3.org/2000/svg" version="1.1" width="876.4px" height="84.4px" viewBox="0 -5 876.4 84.4" style="top:-5px"><desc>외장_사이드_텍스트_1@</desc><defs/><g id="Polygon60031"><path d="m15.4 33.3c1.7 0 3.1.9 3.6 2.3l-1.2.6c-.4-1.1-1.2-1.6-2.4-1.6c-1.6 0-2.6 1.2-2.6 3.3c0 2.2 1 3.4 2.6 3.4c1.2 0 2-.6 2.4-1.6l1.2.5c-.5 1.5-1.9 2.4-3.6 2.4c-2.6 0-4.1-1.9-4.1-4.7c0-2.7 1.5-4.6 4.1-4.6zm5.2.2h1.4s.03 1.57 0 1.6c.5-1 1.4-1.8 2.7-1.8h.4c-.04.01 0 1.5 0 1.5c0 0-.53-.03-.5 0c-1.2 0-2.1.6-2.5 2v5.6h-1.5v-8.9zm5.3 4.4c0-2.8 1.6-4.6 4-4.6c2.4 0 3.9 1.8 3.9 4.4c0 .2 0 .5-.1.7h-6.3c.1 1.8 1.1 2.9 2.7 2.9c1.1 0 2-.4 2.5-1.3l1 .8c-.7 1-1.9 1.8-3.6 1.8c-2.6 0-4.1-1.8-4.1-4.7zm1.5-.7h4.9c-.1-1.6-1-2.6-2.4-2.6c-1.4 0-2.3.9-2.5 2.6zm7.5 2.5c0-1.7 1.3-3 3.3-3c.9 0 1.8.4 2.5 1.1v-.9c0-1.3-.7-2.3-2.2-2.3c-1.1 0-1.6.3-2.3 1l-.8-1c.7-.7 1.6-1.3 3.1-1.3c2.4 0 3.6 1.4 3.6 3.5v5.6h-1.4s.02-.88 0-.9c-.7.7-1.6 1.1-2.5 1.1c-2 0-3.3-1.3-3.3-2.9zm5.8.6v-1.2c-.5-.8-1.5-1.2-2.3-1.2c-1.5 0-2.1 1-2.1 1.8c0 .8.6 1.7 2.1 1.7c.8 0 1.8-.3 2.3-1.1zm4.2-.7v-4.9h-1.6v-1.2h1.6v-2.3h1.4v2.3h2v1.2h-2s.05 4.86 0 4.9c0 1.2.6 1.6 1.8 1.6h.2s.05 1.22 0 1.2c-.1.1-.4.1-.6.1c-1.8 0-2.8-.9-2.8-2.9zm6.5-6.1v8.9H50v-8.9h1.4zm.2-3.9v1.8h-1.8v-1.8h1.8zm2.2 3.9h1.4s.02 1.2 0 1.2c.5-.7 1.5-1.4 2.7-1.4c2.1 0 3.3 1.3 3.3 3.5c-.02.04 0 5.6 0 5.6h-1.5s.04-5.42 0-5.4c0-1.6-.8-2.4-2.1-2.4c-1.2 0-2.1.7-2.3 1.6c-.02-.05 0 6.2 0 6.2h-1.5v-8.9zm9.1 4.2c0-2.6 1.5-4.4 3.7-4.4c1.2 0 2.2.5 2.8 1.4c.04.01 0-1.2 0-1.2h1.4s.03 8.13 0 8.1c0 2.3-1.2 4.4-4 4.4c-1.9 0-3.1-1-3.7-2.2l1.1-.7c.5.9 1.3 1.6 2.5 1.6c2 0 2.7-1.4 2.7-3v-1c-.7.8-1.6 1.4-2.8 1.4c-2.2 0-3.7-1.9-3.7-4.4zm6.5 1.5v-3.1c-.4-.9-1.3-1.5-2.4-1.5c-1.6 0-2.6 1.2-2.6 3.1c0 1.9 1 3.1 2.6 3.1c1.1 0 2-.6 2.4-1.6zm6.8.5c0-1.7 1.3-3 3.3-3c1 0 1.9.4 2.5 1.1v-.9c0-1.3-.7-2.3-2.2-2.3c-1 0-1.6.3-2.2 1l-.8-1c.6-.7 1.5-1.3 3.1-1.3c2.3 0 3.6 1.4 3.6 3.5c-.04-.03 0 5.6 0 5.6h-1.4s-.02-.88 0-.9c-.7.7-1.6 1.1-2.6 1.1c-2 0-3.3-1.3-3.3-2.9zm5.8.6v-1.2c-.4-.8-1.5-1.2-2.3-1.2c-1.4 0-2 1-2 1.8c0 .8.6 1.7 2 1.7c.8 0 1.9-.3 2.3-1.1zm7.5-6.8h1.3s.04 1.57 0 1.6c.5-1 1.4-1.8 2.7-1.8h.4c-.03.01 0 1.5 0 1.5c0 0-.52-.03-.5 0c-1.2 0-2.1.6-2.5 2v5.6h-1.4v-8.9zm12.1 4.4c0-2.1-1.1-3.3-2.7-3.3c-1.7 0-2.7 1.2-2.7 3.3c0 2.2 1 3.4 2.7 3.4c1.6 0 2.7-1.2 2.7-3.4zm1.5 0c0 2.8-1.7 4.7-4.2 4.7c-2.6 0-4.2-1.9-4.2-4.7c0-2.7 1.6-4.6 4.2-4.6c2.5 0 4.2 1.9 4.2 4.6zm3.2 4.5h-1.4V29.6h1.5s-.04 5.08 0 5.1c.6-.9 1.6-1.4 2.7-1.4c2.4 0 3.9 1.9 3.9 4.6c0 2.8-1.5 4.7-3.9 4.7c-1.1 0-2.1-.6-2.8-1.5v1.3zm5.2-4.5c0-2.1-1-3.3-2.7-3.3c-1.1 0-2 .6-2.4 1.6v3.5c.4 1 1.3 1.6 2.4 1.6c1.7 0 2.7-1.3 2.7-3.4zm10.6 4.5h-1.4s.04-1.21 0-1.2c-.4.7-1.4 1.4-2.7 1.4c-2 0-3.2-1.3-3.2-3.6c-.02.03 0-5.5 0-5.5h1.4s.02 5.39 0 5.4c0 1.6.8 2.4 2.2 2.4c1.2 0 2-.7 2.3-1.6v-6.2h1.4v8.9zm7-6.9c-.5-.7-1.2-1-2-1c-.9 0-1.3.6-1.3 1.2c0 .7.4 1.1 1.1 1.2l.8.2c1.7.4 2.7 1.1 2.7 2.7c0 1.4-1.3 2.8-3.4 2.8c-1.5 0-2.7-.9-3.3-1.9l.9-.8c.5.8 1.3 1.5 2.5 1.5c1.1 0 1.8-.6 1.8-1.5c0-.8-.6-1.2-1.6-1.4l-.8-.2c-1.4-.3-2.2-1.1-2.2-2.4c0-1.4 1-2.6 2.9-2.6c1.2 0 2.2.6 2.8 1.4l-.9.8zm3.5 4.1c.02-.04 0-4.9 0-4.9H131v-1.2h1.6v-2.3h1.5v2.3h2v1.2h-2s-.04 4.86 0 4.9c0 1.2.5 1.6 1.7 1.6h.3s-.04 1.22 0 1.2c-.2.1-.5.1-.7.1c-1.8 0-2.8-.9-2.8-2.9zm13.3-4.1c-.5-.7-1.2-1-1.9-1c-.9 0-1.4.6-1.4 1.2c0 .7.4 1.1 1.2 1.2l.7.2c1.7.4 2.7 1.1 2.7 2.7c0 1.4-1.2 2.8-3.3 2.8c-1.6 0-2.7-.9-3.4-1.9l.9-.8c.6.8 1.4 1.5 2.5 1.5c1.1 0 1.9-.6 1.9-1.5c0-.8-.7-1.2-1.7-1.4l-.7-.2c-1.4-.3-2.2-1.1-2.2-2.4c0-1.4 1-2.6 2.8-2.6c1.3 0 2.3.6 2.9 1.4l-1 .8zm9.4 2.4c0-2.1-1-3.3-2.7-3.3c-1.6 0-2.7 1.2-2.7 3.3c0 2.2 1.1 3.4 2.7 3.4c1.7 0 2.7-1.2 2.7-3.4zm1.5 0c0 2.8-1.6 4.7-4.2 4.7c-2.5 0-4.2-1.9-4.2-4.7c0-2.7 1.7-4.6 4.2-4.6c2.6 0 4.2 1.9 4.2 4.6zm9.1 4.5h-1.4s.02-1.21 0-1.2c-.5.7-1.5 1.4-2.7 1.4c-2.1 0-3.2-1.3-3.2-3.6c-.04.03 0-5.5 0-5.5h1.4v5.4c0 1.6.8 2.4 2.2 2.4c1.2 0 2-.7 2.3-1.6c-.04.02 0-6.2 0-6.2h1.4v8.9zm2.4-8.9h1.4v1.2c.5-.7 1.5-1.4 2.7-1.4c2.1 0 3.3 1.3 3.3 3.5c-.04.04 0 5.6 0 5.6h-1.5s.02-5.42 0-5.4c0-1.6-.8-2.4-2.1-2.4c-1.2 0-2.1.7-2.3 1.6c-.05-.05 0 6.2 0 6.2h-1.5v-8.9zm15.8 7.6c-.6.9-1.7 1.5-2.8 1.5c-2.4 0-3.9-1.9-3.9-4.7c0-2.7 1.5-4.6 3.9-4.6c1.1 0 2.1.5 2.8 1.4c-.02-.02 0-5.1 0-5.1h1.4v12.8h-1.4s.04-1.26 0-1.3zm0-1.4v-3.5c-.4-1-1.4-1.6-2.5-1.6c-1.7 0-2.7 1.2-2.7 3.3c0 2.1 1 3.4 2.7 3.4c1.1 0 2.1-.6 2.5-1.6zm8.1-5h-1.5v-1.2h1.5s.04-1.34 0-1.3c0-1.6.9-2.7 2.7-2.7h.7c.04.05 0 1.2 0 1.2c0 0-.39.04-.4 0c-1 0-1.5.5-1.5 1.5c-.02-.02 0 1.3 0 1.3h1.9v1.2h-1.9v7.7h-1.5v-7.7zm4.9-1.2h1.4s-.04 1.57 0 1.6c.5-1 1.3-1.8 2.6-1.8h.4v1.5s-.5-.03-.5 0c-1.2 0-2 .6-2.5 2c.02-.03 0 5.6 0 5.6h-1.4v-8.9zm12.1 4.4c0-2.1-1.1-3.3-2.7-3.3c-1.7 0-2.7 1.2-2.7 3.3c0 2.2 1 3.4 2.7 3.4c1.6 0 2.7-1.2 2.7-3.4zm1.5 0c0 2.8-1.7 4.7-4.2 4.7c-2.6 0-4.2-1.9-4.2-4.7c0-2.7 1.6-4.6 4.2-4.6c2.5 0 4.2 1.9 4.2 4.6zm1.8-4.4h1.4s.03 1.2 0 1.2c.5-.7 1.5-1.4 2.7-1.4c1.4 0 2.3.5 2.8 1.6c.4-.8 1.5-1.6 2.9-1.6c2.1 0 3.2 1.3 3.2 3.5c.04 0 0 5.6 0 5.6h-1.4v-5.5c0-1.5-.7-2.3-2-2.3c-1.2 0-2.1.7-2.3 1.6c-.04-.05 0 6.2 0 6.2h-1.5s.02-5.45 0-5.5c0-1.5-.7-2.3-2-2.3c-1.2 0-2.1.7-2.3 1.6c-.02-.05 0 6.2 0 6.2h-1.5v-8.9zm19.7 6.1c-.04-.04 0-4.9 0-4.9h-1.6v-1.2h1.6v-2.3h1.4v2.3h2v1.2h-2v4.9c0 1.2.5 1.6 1.7 1.6h.3v1.2c-.2.1-.4.1-.7.1c-1.8 0-2.7-.9-2.7-2.9zm5-10h1.5s-.02 5.01 0 5c.5-.7 1.5-1.3 2.6-1.3c2.1 0 3.3 1.3 3.3 3.5c-.02.04 0 5.6 0 5.6h-1.5s.04-5.42 0-5.4c0-1.6-.8-2.4-2.1-2.4c-1.2 0-2.1.7-2.3 1.6c-.02-.05 0 6.2 0 6.2h-1.5V29.6zm9.1 8.3c0-2.8 1.6-4.6 4.1-4.6c2.4 0 3.9 1.8 3.9 4.4c0 .2-.1.5-.1.7h-6.4c.2 1.8 1.1 2.9 2.7 2.9c1.1 0 2-.4 2.5-1.3l1 .8c-.7 1-1.8 1.8-3.6 1.8c-2.5 0-4.1-1.8-4.1-4.7zm1.6-.7h4.9c-.1-1.6-1.1-2.6-2.4-2.6c-1.4 0-2.3.9-2.5 2.6zm12.4 2.4c.05-.04 0-4.9 0-4.9h-1.6v-1.2h1.7v-2.3h1.4v2.3h2v1.2h-2v4.9c0 1.2.5 1.6 1.7 1.6h.3v1.2c-.2.1-.4.1-.7.1c-1.8 0-2.8-.9-2.8-2.9zm4.4.1c0-1.7 1.3-3 3.3-3c1 0 1.9.4 2.5 1.1v-.9c0-1.3-.7-2.3-2.2-2.3c-1 0-1.6.3-2.2 1l-.8-1c.6-.7 1.5-1.3 3.1-1.3c2.3 0 3.6 1.4 3.6 3.5c-.04-.03 0 5.6 0 5.6h-1.4s-.03-.88 0-.9c-.7.7-1.6 1.1-2.6 1.1c-2 0-3.3-1.3-3.3-2.9zm5.8.6v-1.2c-.5-.8-1.5-1.2-2.3-1.2c-1.4 0-2 1-2 1.8c0 .8.6 1.7 2 1.7c.8 0 1.8-.3 2.3-1.1zm5.2-6.8v8.9h-1.4v-8.9h1.4zm.2-3.9v1.8h-1.8v-1.8h1.8zm3.7 0v12.8h-1.5V29.6h1.5zm2.4 3.9h1.4s-.05 1.25 0 1.3c.6-.9 1.6-1.5 2.8-1.5c2.4 0 3.9 1.9 3.9 4.6c0 2.8-1.5 4.7-3.9 4.7c-1.1 0-2.1-.5-2.8-1.4v4.6H282V33.5zm6.6 4.4c0-2.1-1-3.3-2.7-3.3c-1.1 0-2.1.6-2.5 1.6v3.5c.4 1 1.4 1.6 2.5 1.6c1.7 0 2.7-1.3 2.7-3.4zm4.8-4.4v8.9h-1.5v-8.9h1.5zm.2-3.9v1.8h-1.8v-1.8h1.8zm2.2 3.9h1.4s-.03 1.25 0 1.3c.6-.9 1.7-1.5 2.8-1.5c2.4 0 3.9 1.9 3.9 4.6c0 2.8-1.5 4.7-3.9 4.7c-1.1 0-2.1-.5-2.8-1.4c.03.01 0 4.6 0 4.6h-1.4V33.5zm6.6 4.4c0-2.1-1-3.3-2.7-3.3c-1.1 0-2.1.6-2.5 1.6v3.5c.4 1 1.4 1.6 2.5 1.6c1.7 0 2.7-1.3 2.7-3.4zm2.8 0c0-2.8 1.6-4.6 4.1-4.6c2.3 0 3.8 1.8 3.8 4.4v.7h-6.4c.1 1.8 1.1 2.9 2.7 2.9c1.1 0 2-.4 2.5-1.3l1 .8c-.7 1-1.8 1.8-3.6 1.8c-2.5 0-4.1-1.8-4.1-4.7zm1.5-.7h4.9c-.1-1.6-1-2.6-2.3-2.6c-1.4 0-2.4.9-2.6 2.6zm8 4h2.1v2.2h-2.1v-2.2z" stroke="none" fill="#fff"/></g><g id="Polygon60030"><path d="m1.3 9.6V8.3h4.6v1.3H1.3zm10.9-7.4s4.16-.04 4.2 0c3.1 0 5.5 2.1 5.5 6.1c0 3.9-2.4 6.1-5.5 6.1h-4.2V2.2zm1.5 1.2v9.7s2.55.02 2.6 0c2.4 0 4.1-1.6 4.1-4.8c0-3.2-1.7-4.9-4.1-4.9c-.05.04-2.6 0-2.6 0zm17.4 11h-1.4s.02-1.21 0-1.2c-.5.7-1.5 1.4-2.7 1.4c-2.1 0-3.2-1.3-3.2-3.6c-.04.03 0-5.5 0-5.5h1.4v5.4c0 1.6.8 2.4 2.2 2.4c1.2 0 2-.7 2.3-1.6c-.04.02 0-6.2 0-6.2h1.4v8.9zm2.4-8.9h1.4v1.6c.5-1 1.4-1.8 2.6-1.8h.4c.03.01 0 1.5 0 1.5c0 0-.46-.03-.5 0c-1.1 0-2 .6-2.4 2c-.04-.03 0 5.6 0 5.6h-1.5V5.5zm7.2 0v8.9h-1.4V5.5h1.4zm.2-3.9v1.8h-1.8V1.6h1.8zm2.2 3.9h1.4s.03 1.2 0 1.2C45 6 46 5.3 47.2 5.3c2.1 0 3.3 1.3 3.3 3.5v5.6H49s.05-5.42 0-5.4c0-1.6-.7-2.4-2.1-2.4c-1.2 0-2.1.7-2.3 1.6v6.2h-1.5V5.5zm9.1 4.2c0-2.6 1.5-4.4 3.7-4.4c1.2 0 2.2.5 2.9 1.4c-.05.01 0-1.2 0-1.2h1.3s.04 8.13 0 8.1c0 2.3-1.2 4.4-4 4.4c-1.9 0-3.1-1-3.6-2.2l1-.7c.5.9 1.3 1.6 2.6 1.6c1.9 0 2.6-1.4 2.6-3v-1c-.7.8-1.6 1.4-2.8 1.4c-2.2 0-3.7-1.9-3.7-4.4zm6.5 1.5V8.1c-.4-.9-1.3-1.5-2.4-1.5c-1.6 0-2.6 1.2-2.6 3.1c0 1.9 1 3.1 2.6 3.1c1.1 0 2-.6 2.4-1.6zm8.2.4c-.03-.04 0-4.9 0-4.9h-1.6V5.5h1.6V3.2h1.4v2.3h2v1.2h-2v4.9c0 1.2.5 1.6 1.8 1.6h.2v1.2c-.2.1-.4.1-.6.1c-1.9 0-2.8-.9-2.8-2.9zm6.5-6.1v8.9h-1.5V5.5h1.5zm.2-3.9v1.8h-1.8V1.6h1.8zm2.2 3.9h1.4s-.02 1.25 0 1.3c.6-.9 1.7-1.5 2.8-1.5c2.4 0 3.9 1.9 3.9 4.6c0 2.8-1.5 4.7-3.9 4.7c-1.1 0-2.1-.5-2.8-1.4c.04.01 0 4.6 0 4.6h-1.4V5.5zm6.6 4.4c0-2.1-1-3.3-2.7-3.3c-1.1 0-2 .6-2.5 1.6v3.5c.5 1 1.4 1.6 2.5 1.6c1.7 0 2.7-1.3 2.7-3.4zm3.2-.3V8.3h4.6v1.3h-4.6zm13.2.3c0-2.1-1.1-3.3-2.7-3.3c-1.7 0-2.7 1.2-2.7 3.3c0 2.2 1 3.4 2.7 3.4c1.6 0 2.7-1.2 2.7-3.4zm1.5 0c0 2.8-1.7 4.7-4.2 4.7c-2.6 0-4.2-1.9-4.2-4.7c0-2.7 1.6-4.6 4.2-4.6c2.5 0 4.2 1.9 4.2 4.6zm9.1 4.5H108s-.02-1.21 0-1.2c-.5.7-1.5 1.4-2.7 1.4c-2.1 0-3.3-1.3-3.3-3.6c.02.03 0-5.5 0-5.5h1.5s-.04 5.39 0 5.4c0 1.6.8 2.4 2.1 2.4c1.2 0 2.1-.7 2.3-1.6c.03.02 0-6.2 0-6.2h1.5v8.9zm3-2.8V6.7h-1.6V5.5h1.6V3.2h1.4v2.3h2v1.2h-2s.05 4.86 0 4.9c0 1.2.6 1.6 1.8 1.6h.2s.05 1.22 0 1.2c-.1.1-.4.1-.6.1c-1.8 0-2.8-.9-2.8-2.9zm5 6.8l1-3h-1.1v-2.2h2.3v2l-1 3.2h-1.2zm8.7-6.8V6.7h-1.6V5.5h1.6V3.2h1.4v2.3h2v1.2h-2s.03 4.86 0 4.9c0 1.2.6 1.6 1.8 1.6h.2s.02 1.22 0 1.2c-.2.1-.4.1-.6.1c-1.9 0-2.8-.9-2.8-2.9zm5.1-10h1.4v5c.5-.7 1.5-1.3 2.7-1.3c2 0 3.2 1.3 3.2 3.5v5.6h-1.4s-.03-5.42 0-5.4c0-1.6-.8-2.4-2.2-2.4c-1.2 0-2 .7-2.3 1.6v6.2h-1.4V1.6zm9.1 8.3c0-2.8 1.6-4.6 4-4.6c2.4 0 3.9 1.8 3.9 4.4c0 .2 0 .5-.1.7h-6.3c.1 1.8 1.1 2.9 2.6 2.9c1.1 0 2-.4 2.6-1.3l.9.8c-.6 1-1.8 1.8-3.5 1.8c-2.6 0-4.1-1.8-4.1-4.7zm1.5-.7h4.9c-.1-1.6-1-2.6-2.4-2.6c-1.4 0-2.3.9-2.5 2.6zm13.3-3.7v8.9h-1.5V5.5h1.5zm.2-3.9v1.8h-1.8V1.6h1.8zm1.6 8.1c0-2.6 1.5-4.4 3.7-4.4c1.2 0 2.2.5 2.9 1.4c-.05.01 0-1.2 0-1.2h1.3s.04 8.13 0 8.1c0 2.3-1.2 4.4-4 4.4c-1.9 0-3.1-1-3.6-2.2l1-.7c.5.9 1.3 1.6 2.6 1.6c1.9 0 2.6-1.4 2.6-3v-1c-.6.8-1.6 1.4-2.8 1.4c-2.2 0-3.7-1.9-3.7-4.4zm6.5 1.5V8.1c-.4-.9-1.3-1.5-2.4-1.5c-1.6 0-2.6 1.2-2.6 3.1c0 1.9 1 3.1 2.6 3.1c1.1 0 2-.6 2.4-1.6zm3.9-5.7h1.3s.04 1.2 0 1.2c.5-.7 1.5-1.4 2.8-1.4c2 0 3.2 1.3 3.2 3.5v5.6h-1.4s-.04-5.42 0-5.4c0-1.6-.8-2.4-2.2-2.4c-1.2 0-2.1.7-2.3 1.6v6.2h-1.4V5.5zm11 0v8.9h-1.4V5.5h1.4zm.2-3.9v1.8h-1.8V1.6h1.8zm2.9 10c-.02-.04 0-4.9 0-4.9h-1.6V5.5h1.6V3.2h1.4v2.3h2v1.2h-2s.02 4.86 0 4.9c0 1.2.6 1.6 1.8 1.6h.2s.02 1.22 0 1.2c-.2.1-.4.1-.6.1c-1.9 0-2.8-.9-2.8-2.9zm6.5-6.1v8.9h-1.4V5.5h1.4zm.2-3.9v1.8h-1.8V1.6h1.8zm8.6 8.3c0-2.1-1.1-3.3-2.8-3.3c-1.6 0-2.7 1.2-2.7 3.3c0 2.2 1.1 3.4 2.7 3.4c1.7 0 2.8-1.2 2.8-3.4zm1.5 0c0 2.8-1.7 4.7-4.3 4.7c-2.5 0-4.2-1.9-4.2-4.7c0-2.7 1.7-4.6 4.2-4.6c2.6 0 4.3 1.9 4.3 4.6zm1.8-4.4h1.4s-.02 1.2 0 1.2c.4-.7 1.5-1.4 2.7-1.4c2.1 0 3.2 1.3 3.2 3.5c.04.04 0 5.6 0 5.6h-1.4V9c0-1.6-.8-2.4-2.2-2.4c-1.2 0-2 .7-2.3 1.6c.03-.05 0 6.2 0 6.2H200V5.5zm14 6.1c-.04-.04 0-4.9 0-4.9h-1.6V5.5h1.6V3.2h1.4v2.3h2v1.2h-2v4.9c0 1.2.5 1.6 1.7 1.6h.3v1.2c-.2.1-.4.1-.6.1c-1.9 0-2.8-.9-2.8-2.9zm6.5-6.1v8.9H219V5.5h1.5zm.2-3.9v1.8h-1.8V1.6h1.8zm2.2 3.9h1.4s-.03 1.2 0 1.2c.4-.7 1.4-1.4 2.7-1.4c1.3 0 2.2.5 2.7 1.6c.5-.8 1.6-1.6 3-1.6c2 0 3.2 1.3 3.2 3.5c-.02 0 0 5.6 0 5.6h-1.5s.04-5.45 0-5.5c0-1.5-.7-2.3-2-2.3c-1.2 0-2 .7-2.3 1.6v6.2h-1.4s-.03-5.45 0-5.5c0-1.5-.8-2.3-2.1-2.3c-1.2 0-2 .7-2.3 1.6c.03-.05 0 6.2 0 6.2h-1.4V5.5zm16.7 0v8.9h-1.4V5.5h1.4zm.2-3.9v1.8H238V1.6h1.8zm2.2 3.9h1.4s.03 1.2 0 1.2c.5-.7 1.5-1.4 2.7-1.4c2.1 0 3.3 1.3 3.3 3.5c-.02.04 0 5.6 0 5.6h-1.5s.04-5.42 0-5.4c0-1.6-.7-2.4-2.1-2.4c-1.2 0-2.1.7-2.3 1.6c-.02-.05 0 6.2 0 6.2H242V5.5zm9.1 4.2c0-2.6 1.5-4.4 3.7-4.4c1.2 0 2.2.5 2.8 1.4c.05.01 0-1.2 0-1.2h1.4s.03 8.13 0 8.1c0 2.3-1.2 4.4-4 4.4c-1.9 0-3.1-1-3.7-2.2l1.1-.7c.5.9 1.3 1.6 2.5 1.6c2 0 2.7-1.4 2.7-3v-1c-.7.8-1.6 1.4-2.8 1.4c-2.2 0-3.7-1.9-3.7-4.4zm6.5 1.5V8.1c-.4-.9-1.3-1.5-2.4-1.5c-1.6 0-2.6 1.2-2.6 3.1c0 1.9 1 3.1 2.6 3.1c1.1 0 2-.6 2.4-1.6zm9-5.7v8.9h-1.5V5.5h1.5zm.2-3.9v1.8H265V1.6h1.8zm6.7 5.9c-.5-.7-1.2-1-1.9-1c-.9 0-1.4.6-1.4 1.2c0 .7.4 1.1 1.2 1.2l.7.2c1.7.4 2.7 1.1 2.7 2.7c0 1.4-1.2 2.8-3.3 2.8c-1.6 0-2.7-.9-3.4-1.9l.9-.8c.6.8 1.4 1.5 2.5 1.5c1.1 0 1.9-.6 1.9-1.5c0-.8-.7-1.2-1.7-1.4l-.7-.2c-1.4-.3-2.2-1.1-2.2-2.4c0-1.4 1-2.6 2.8-2.6c1.3 0 2.3.6 2.9 1.4l-1 .8zm6.1 4.2c0-1.7 1.3-3 3.3-3c.9 0 1.8.4 2.5 1.1v-.9c0-1.3-.7-2.3-2.2-2.3c-1.1 0-1.6.3-2.3 1l-.8-1c.7-.7 1.6-1.3 3.1-1.3c2.4 0 3.6 1.4 3.6 3.5v5.6h-1.4s.02-.88 0-.9c-.6.7-1.6 1.1-2.5 1.1c-2 0-3.3-1.3-3.3-2.9zm5.8.6v-1.2c-.5-.8-1.5-1.2-2.3-1.2c-1.5 0-2.1 1-2.1 1.8c0 .8.6 1.7 2.1 1.7c.8 0 1.8-.3 2.3-1.1zm9.9.8c-.7.9-1.7 1.5-2.9 1.5c-2.3 0-3.8-1.9-3.8-4.7c0-2.7 1.5-4.6 3.8-4.6c1.2 0 2.2.5 2.8 1.4c.03-.02 0-5.1 0-5.1h1.5v12.8h-1.4s-.02-1.26 0-1.3zm-.1-1.4V8.2c-.4-1-1.3-1.6-2.5-1.6c-1.6 0-2.7 1.2-2.7 3.3c0 2.1 1.1 3.4 2.7 3.4c1.2 0 2.1-.6 2.5-1.6zm5.3 2.6c0 1.8-.7 2.9-1.9 3.7l-.9-1c.9-.8 1.4-1.5 1.4-2.8c-.02.04 0-8.7 0-8.7h1.4s.02 8.79 0 8.8zm.2-12.7v1.8h-1.8V1.6h1.8zm9.5 12.8h-1.4s-.02-1.21 0-1.2c-.5.7-1.5 1.4-2.7 1.4c-2.1 0-3.3-1.3-3.3-3.6c.02.03 0-5.5 0-5.5h1.5s-.04 5.39 0 5.4c0 1.6.8 2.4 2.1 2.4c1.2 0 2.1-.7 2.3-1.6c.03.02 0-6.2 0-6.2h1.5v8.9zm6.9-6.9c-.5-.7-1.2-1-1.9-1c-.9 0-1.4.6-1.4 1.2c0 .7.4 1.1 1.2 1.2l.7.2c1.7.4 2.7 1.1 2.7 2.7c0 1.4-1.2 2.8-3.3 2.8c-1.6 0-2.8-.9-3.4-1.9l.9-.8c.6.8 1.4 1.5 2.5 1.5c1.1 0 1.9-.6 1.9-1.5c0-.8-.7-1.2-1.7-1.4l-.7-.2c-1.4-.3-2.2-1.1-2.2-2.4c0-1.4 1-2.6 2.8-2.6c1.3 0 2.3.6 2.9 1.4l-1 .8zm3.6 4.1c-.04-.04 0-4.9 0-4.9h-1.6V5.5h1.6V3.2h1.4v2.3h2v1.2h-2v4.9c0 1.2.5 1.6 1.7 1.6h.3v1.2c-.2.1-.4.1-.6.1c-1.9 0-2.8-.9-2.8-2.9zm4.5-1.7c0-2.8 1.6-4.6 4-4.6c2.4 0 3.9 1.8 3.9 4.4v.7h-6.4c.1 1.8 1.1 2.9 2.7 2.9c1.1 0 2-.4 2.5-1.3l1 .8c-.7 1-1.9 1.8-3.6 1.8c-2.6 0-4.1-1.8-4.1-4.7zm1.5-.7h4.9c-.1-1.6-1-2.6-2.4-2.6c-1.3 0-2.3.9-2.5 2.6zm14.4 3.9c-.7.9-1.8 1.5-2.9 1.5c-2.4 0-3.9-1.9-3.9-4.7c0-2.7 1.5-4.6 3.9-4.6c1.1 0 2.1.5 2.8 1.4V1.6h1.4v12.8h-1.3s-.04-1.26 0-1.3zm-.1-1.4V8.2c-.4-1-1.4-1.6-2.5-1.6c-1.7 0-2.7 1.2-2.7 3.3c0 2.1 1 3.4 2.7 3.4c1.1 0 2.1-.6 2.5-1.6zm3.8 6.7l1-3h-1.1v-2.2h2.2v2l-1 3.2h-1.1z" stroke="none" fill="#fff"/></g></svg>