<?xml version="1.0" standalone="no"?><!DOCTYPE svg PUBLIC "-//W3C//DTD SVG 1.1//EN" "http://www.w3.org/Graphics/SVG/1.1/DTD/svg11.dtd"><svg xmlns="http://www.w3.org/2000/svg" version="1.1" width="162px" height="20.4px" viewBox="0 -4 162 20.4" style="top:-4px"><desc>IONIQ 5 N Sales Talk</desc><defs/><g id="Polygon57865"><path d="m1 1.6h1.7v8.8H1V1.6zM4.1 6c0-2.7 1.9-4.6 4.5-4.6c2.6 0 4.5 1.9 4.5 4.6c0 2.6-1.9 4.6-4.5 4.6c-2.6 0-4.5-2-4.5-4.6zm1.7 0c0 1.7 1.1 3 2.8 3c1.7 0 2.7-1.3 2.7-3c0-1.7-1-3-2.7-3c-1.7 0-2.8 1.3-2.8 3zm8.7-4.4h1.5l4.8 6v-6h1.7v8.8H21l-4.8-6v6h-1.7V1.6zm9.9 0h1.7v8.8h-1.7V1.6zM27.5 6c0-2.7 1.9-4.6 4.5-4.6c2.6 0 4.5 1.9 4.5 4.6c0 1.5-.6 2.7-1.6 3.6c.03-.04 1.5 2 1.5 2l-1.3.9l-1.6-2.2c-.5.2-1 .3-1.5.3c-2.6 0-4.5-2-4.5-4.6zm7.2 0c0-1.7-1-3-2.7-3c-1.7 0-2.8 1.3-2.8 3c0 1.7 1.1 3 2.8 3c1.7 0 2.7-1.3 2.7-3zm5.2 3.1l1-1.1c.5.5 1.1 1 2.2 1c1.1 0 1.9-.6 1.9-1.6c0-.9-.7-1.5-1.6-1.5c-.7 0-1.3.2-1.7.5c.03.05-1-.3-1-.3l.4-4.5h5.1v1.4h-3.7s-.13 1.58-.1 1.6c.3-.1.7-.2 1.1-.2c1.8 0 3.2 1 3.2 3c0 2-1.4 3.2-3.6 3.2c-1.5 0-2.6-.8-3.2-1.5zm11-7.5h1.5l4.8 6v-6h1.7v8.8h-1.5l-4.8-6v6h-1.7V1.6zm15.3 6.9l.9-.8c.4.9 1.3 1.7 2.7 1.7c1.4 0 2.1-.7 2.1-1.6c0-.8-.6-1.2-1.7-1.4l-.9-.1c-1.4-.3-2.4-1.1-2.4-2.4c0-1.3 1.1-2.5 3-2.5c1.4 0 2.4.6 3 1.5l-.8.8c-.6-.8-1.4-1.2-2.2-1.2c-1.1 0-1.8.6-1.8 1.3c0 .7.6 1.2 1.4 1.3l.9.1c1.7.3 2.7 1.1 2.7 2.6c0 1.6-1.3 2.8-3.3 2.8c-1.9 0-3-1.1-3.6-2.1zm13.3 1c-.5.6-1.3 1-2.2 1c-1.8 0-3.2-1.3-3.2-3.4c0-2 1.4-3.4 3.2-3.4c.9 0 1.7.5 2.2 1.1c.03.01 0-.9 0-.9h1.2v6.5h-1.2s.03-.92 0-.9zm0-1.2V6c-.3-.7-1.1-1.2-2-1.2c-1.2 0-2.2.9-2.2 2.3c0 1.5 1 2.4 2.2 2.4c.9 0 1.7-.5 2-1.2zm3-7.1h1.2v9.2h-1.2V1.2zm2.6 6c0-2.1 1.3-3.5 3.2-3.5c1.9 0 3.1 1.4 3.1 3.2c0 .2 0 .5-.1.7h-5c.1 1.1.9 1.9 2.1 1.9c.9 0 1.7-.5 2.1-1.1l.8.7c-.7.9-1.7 1.5-2.9 1.5c-2 0-3.3-1.5-3.3-3.4zm1.2-.6h3.9c-.1-1.1-.9-1.8-1.9-1.8c-1.1 0-1.9.6-2 1.8zm5.8 2.6l.7-.8c.4.6 1.2 1.1 2.1 1.1c.8 0 1.5-.3 1.5-1c0-.5-.5-.8-1.3-.9l-.6-.1c-1.1-.2-1.9-.8-1.9-1.8c0-1.1.8-2 2.4-2c1 0 1.8.5 2.3 1.1l-.7.8c-.5-.5-1-.8-1.6-.8c-.8 0-1.2.4-1.2.8c0 .5.4.7 1 .8l.5.1c1.5.2 2.3.8 2.3 2c0 1.1-1.1 2.1-2.8 2.1c-1.2 0-2.2-.7-2.7-1.4zm12-6.6h-2.8v-1h6.8v1h-2.8v7.8h-1.2V2.6zm8.9 6.9c-.6.6-1.3 1-2.3 1c-1.8 0-3.2-1.3-3.2-3.4c0-2 1.4-3.4 3.2-3.4c1 0 1.7.5 2.3 1.1c-.04.01 0-.9 0-.9h1.1v6.5H113s-.04-.92 0-.9zm0-1.2V6c-.4-.7-1.1-1.2-2.1-1.2c-1.2 0-2.2.9-2.2 2.3c0 1.5 1 2.4 2.2 2.4c1 0 1.7-.5 2.1-1.2zm2.9-7.1h1.2v9.2h-1.2V1.2zm3 0h1.2v5.8l3-3.1h1.4l-2.6 2.7l2.9 3.8h-1.4l-2.3-3l-1 1.1v1.9h-1.2V1.2z" stroke="none" fill="#676767"/></g></svg>