<?xml version="1.0" standalone="no"?><!DOCTYPE svg PUBLIC "-//W3C//DTD SVG 1.1//EN" "http://www.w3.org/Graphics/SVG/1.1/DTD/svg11.dtd"><svg xmlns="http://www.w3.org/2000/svg" version="1.1" width="1481px" height="145.7px" viewBox="0 -21 1481 145.7" style="top:-21px"><desc>스텝 01-1@2타이틀</desc><defs/><g id="Polygon58880"><path d="m290.3 12.1H304l34.1 42.5V12.1h15.7v68.4h-13.6L306 38.1v42.4h-15.7V12.1zm76.8 0h49.3v13.6h-33.6v13.5h28.7v13.6h-28.7v14.1h33.6v13.6h-49.3V12.1zm52.6 0h16.2l18.3 51.4l18.2-51.4h16.2l-25.1 68.4h-18.7l-25.1-68.4zm75 0h49.4v13.6h-33.7v13.5h28.7v13.6h-28.7v14.1h33.7v13.6h-49.4V12.1zM578.4 54h-8.2v26.5h-15.7V12.1s31.74-.02 31.7 0c13.2 0 22.9 8 22.9 20.9c0 9.8-5.5 16.8-14 19.7c0-.05 20.9 27.5 20.9 27.5v.3h-18.6l-19-26.5zm6.1-13.6c5.6 0 8.4-2.9 8.4-7.4c0-4.5-2.8-7.3-8.4-7.3c.03-.03-14.3 0-14.3 0v14.7s14.33-.03 14.3 0zm50.8 28.3l11.5-8.8c2.6 4.1 5.7 7.6 10.8 7.6c8.8 0 11-5.6 11-13.2c-.01-.04 0-42.2 0-42.2h15.7v42.6c0 15.6-7.7 27.3-26.3 27.3c-11 0-18.8-5.7-22.7-13.3zM696.2 51c-.03.04 0-38.9 0-38.9h15.7s-.02 38.03 0 38c0 10.3 3.6 17.4 14.1 17.4c10.4 0 14.1-7.1 14.1-17.4c-.04.03 0-38 0-38h15.7s-.03 38.94 0 38.9c0 17.7-9.5 31-29.8 31c-20.4 0-29.8-13.3-29.8-31zm66.2 15.8l10-10.1c3.9 5.8 10.4 11.5 20.4 11.5c7.1 0 10.8-3.4 10.8-7.7c0-3.1-1.7-6.1-9.6-7.2l-5.4-.9c-12.7-1.8-21.1-9.1-21.1-20c0-12.5 9.9-21.8 25.5-21.8c10.7 0 19.6 4.5 24.9 10.8l-9.7 10.5c-4.2-4.6-9.6-7.4-15.5-7.4c-5.6 0-8.9 3-8.9 6.2c0 3 2.3 5.6 7.6 6.4l5.4.9c14.5 2.1 23 9.4 23 21.4c0 13.7-11.5 22.6-27.3 22.6c-16.3 0-25.1-8-30.1-15.2zm79.8-41.1H822V12.1h56.2v13.6h-20.3v54.8h-15.7V25.7zm64.2-13.6s28.76-.02 28.8 0c20.2 0 34.5 12.1 34.5 34.2c0 22.2-14.3 34.2-34.5 34.2c-.04.04-28.8 0-28.8 0V12.1zm15.7 13.7v41s12.35.04 12.4 0c11.7 0 19-7.2 19-20.5c0-13.3-7.3-20.5-19-20.5c-.05-.03-12.4 0-12.4 0zm81.3 28.2h-8.1v26.5h-15.7V12.1s31.66-.02 31.7 0c13.1 0 22.8 8 22.8 20.9c0 9.8-5.5 16.8-14 19.7c.02-.05 21 27.5 21 27.5v.3h-18.7l-19-26.5zm6.2-13.6c5.5 0 8.3-2.9 8.3-7.4c0-4.5-2.8-7.3-8.3-7.3c-.05-.03-14.3 0-14.3 0v14.7s14.25-.03 14.3 0zm37.6-28.3h15.7v68.4h-15.7V12.1zm21.8 0h16.3l18.2 51.4l18.2-51.4h16.2l-25.1 68.4h-18.7L1069 12.1zm75 0h49.4v13.6h-33.7v13.5h28.7v13.6h-28.7v14.1h33.7v13.6H1144V12.1z" stroke="none" fill="#e93312"/></g></svg>