<?xml version="1.0" standalone="no"?><!DOCTYPE svg PUBLIC "-//W3C//DTD SVG 1.1//EN" "http://www.w3.org/Graphics/SVG/1.1/DTD/svg11.dtd"><svg xmlns="http://www.w3.org/2000/svg" version="1.1" width="284.2px" height="40.6px" viewBox="0 -1 284.2 40.6" style="top:-1px"><desc>Emblem, Bumper &amp; Lip Spoiler</desc><defs/><g id="Polygon54092"><path d="m45.5 12.7h6.4v1.1h-5.2v3h4.6v1.2h-4.6v3.1h5.2v1.1h-6.4v-9.5zm18 5.5c0-1.3-.6-2-1.8-2c-1.1 0-1.7.7-1.9 1.4c-.05.02 0 4.6 0 4.6h-1.3v-4c0-1.3-.7-2-1.8-2c-1.1 0-1.8.7-2 1.4c.02.02 0 4.6 0 4.6h-1.2v-7h1.2s.02 1.05 0 1.1c.4-.7 1.1-1.3 2.3-1.3c1.2 0 2 .6 2.4 1.5c.5-.9 1.4-1.5 2.6-1.5c1.8 0 2.8 1.2 2.8 3.1c-.02.01 0 4.1 0 4.1h-1.3s.02-3.96 0-4zm4.4 4h-1.3v-9.9h1.3v3.9c.5-.7 1.4-1.2 2.4-1.2c2 0 3.4 1.5 3.4 3.7c0 2.2-1.4 3.7-3.4 3.7c-1 0-1.9-.5-2.4-1.2v1zm4.5-3.5c0-1.6-1-2.5-2.3-2.5c-1 0-1.8.5-2.2 1.3v2.4c.4.8 1.2 1.3 2.2 1.3c1.3 0 2.3-.9 2.3-2.5zm2.8-6.4h1.3v9.9h-1.3v-9.9zm2.8 6.4c0-2.2 1.4-3.7 3.5-3.7c2 0 3.3 1.5 3.3 3.5v.6h-5.5c.1 1.3.9 2.1 2.3 2.1c.9 0 1.8-.5 2.3-1.2l.8.8c-.7.9-1.8 1.6-3.2 1.6c-2.1 0-3.5-1.6-3.5-3.7zm1.3-.6h4.2c0-1.2-.9-2-2-2c-1.2 0-2 .8-2.2 2zm17 .1c0-1.3-.6-2-1.8-2c-1.1 0-1.7.7-2 1.4c.04.02 0 4.6 0 4.6h-1.2s-.02-3.96 0-4c0-1.3-.7-2-1.9-2c-1 0-1.7.7-1.9 1.4v4.6h-1.2v-7h1.2s.01 1.05 0 1.1c.4-.7 1.1-1.3 2.3-1.3c1.2 0 2 .6 2.4 1.5c.5-.9 1.4-1.5 2.6-1.5c1.8 0 2.8 1.2 2.8 3.1c-.04.01 0 4.1 0 4.1h-1.3v-4zm3.8 4.6h-.8v-1.6h1.7v1.4l-.8 2.4h-.8l.7-2.2zm6.2-10.1s3.7-.02 3.7 0c2 0 3.1.9 3.1 2.5c0 .8-.5 1.5-1.2 1.9c1.1.4 1.9 1.1 1.9 2.4c0 1.7-1.1 2.7-3.3 2.7h-4.2v-9.5zm4.1 8.4c1.4 0 2.1-.6 2.1-1.6c0-1-.7-1.6-2.1-1.6c.02-.03-2.8 0-2.8 0v3.2s2.82-.02 2.8 0zm-.6-4.3c1.4 0 1.9-.6 1.9-1.5c0-.9-.5-1.5-1.9-1.5h-2.2v3s2.24-.03 2.2 0zm11.8 5.4h-1.3s.03-1.06 0-1.1c-.3.7-1.1 1.3-2.3 1.3c-1.8 0-2.8-1.2-2.8-3.1c.03-.03 0-4.1 0-4.1h1.3v3.9c0 1.4.7 2.1 1.9 2.1c1 0 1.7-.7 1.9-1.4c.03-.04 0-4.6 0-4.6h1.3v7zm12-4c0-1.3-.7-2-1.9-2c-1 0-1.7.7-1.9 1.4v4.6h-1.3s.05-3.96 0-4c0-1.3-.6-2-1.8-2c-1 0-1.7.7-1.9 1.4c-.02.02 0 4.6 0 4.6h-1.3v-7h1.3s-.02 1.05 0 1.1c.3-.7 1.1-1.3 2.3-1.3c1.2 0 2 .6 2.4 1.5c.4-.9 1.4-1.5 2.6-1.5c1.8 0 2.7 1.2 2.7 3.1c.03.01 0 4.1 0 4.1h-1.2s-.03-3.96 0-4zm3.1-3h1.3s-.05.98 0 1c.5-.7 1.3-1.2 2.3-1.2c2 0 3.5 1.5 3.5 3.7c0 2.2-1.5 3.7-3.5 3.7c-1 0-1.8-.5-2.3-1.2c-.05.02 0 3.6 0 3.6h-1.3v-9.6zm5.8 3.5c0-1.6-1.1-2.5-2.4-2.5c-1 0-1.8.5-2.1 1.3v2.4c.3.8 1.1 1.3 2.1 1.3c1.3 0 2.4-.9 2.4-2.5zm2.3 0c0-2.2 1.5-3.7 3.5-3.7c2 0 3.4 1.5 3.4 3.5c0 .2-.1.4-.1.6h-5.5c.2 1.3 1 2.1 2.4 2.1c.9 0 1.7-.5 2.2-1.2l.8.8c-.7.9-1.8 1.6-3.1 1.6c-2.1 0-3.6-1.6-3.6-3.7zm1.3-.6h4.3c-.1-1.2-1-2-2.1-2c-1.1 0-2 .8-2.2 2zm7-2.9h1.3s-.04 1.19 0 1.2c.4-.8 1.1-1.4 2.2-1.4c-.03.03.1 0 .1 0c0 0 .03 1.25 0 1.3c-1.1 0-2 .4-2.3 1.5c-.04.03 0 4.4 0 4.4h-1.3v-7zm7.5 4.4c0-1.5 1-2.3 2.4-2.9c-.4-.5-.7-1.1-.7-1.8c0-1.3 1.1-2.4 2.6-2.4c1.5 0 2.5 1 2.5 2.3c0 1.3-.9 2-2.3 2.4c.04 0 0 0 0 0l1.7 1.9l1.7-2.1l.9.8l-1.8 2.2l2 2.2h-1.7s-1.09-1.26-1.1-1.3c-.8.9-1.9 1.5-3.1 1.5c-1.9 0-3.1-1.2-3.1-2.8zm5.4.5l-2.2-2.5c-1.1.4-1.9.9-1.9 1.9c0 1 .7 1.7 1.8 1.7c.9 0 1.7-.4 2.3-1.1zm-1.7-3.8l.3-.1c1.1-.3 1.6-.7 1.6-1.4c0-.6-.5-1.2-1.3-1.2c-.8 0-1.3.6-1.3 1.3c0 .5.2.9.7 1.4zm10-3.6h1.3v8.4h4.9v1.1h-6.2v-9.5zm7.4 2.5h1.2v7h-1.2v-7zm-.1-3.1h1.4v1.5h-1.4v-1.5zm3.3 3.1h1.2s.04.98 0 1c.6-.7 1.4-1.2 2.4-1.2c2 0 3.5 1.5 3.5 3.7c0 2.2-1.5 3.7-3.5 3.7c-1 0-1.8-.5-2.4-1.2c.04.02 0 3.6 0 3.6h-1.2v-9.6zm5.8 3.5c0-1.6-1.1-2.5-2.4-2.5c-1 0-1.8.5-2.2 1.3v2.4c.4.8 1.2 1.3 2.2 1.3c1.3 0 2.4-.9 2.4-2.5zm5.3 1.5l.9-.9c.6 1 1.5 1.9 3.1 1.9c1.4 0 2.2-.8 2.2-1.8c0-.8-.7-1.3-1.9-1.5l-.9-.2c-1.6-.2-2.6-1.1-2.6-2.5c0-1.4 1.2-2.7 3.2-2.7c1.5 0 2.6.7 3.2 1.6l-.8.8c-.6-.8-1.5-1.2-2.4-1.2c-1.2 0-1.9.7-1.9 1.4c0 .8.6 1.2 1.5 1.4l.9.1c1.9.3 3 1.2 3 2.8c0 1.7-1.4 3-3.6 3c-2.1 0-3.2-1.2-3.9-2.2zm9-5h1.3s-.04.98 0 1c.5-.7 1.3-1.2 2.3-1.2c2 0 3.5 1.5 3.5 3.7c0 2.2-1.5 3.7-3.5 3.7c-1 0-1.8-.5-2.3-1.2c-.04.02 0 3.6 0 3.6H205v-9.6zm5.8 3.5c0-1.6-1.1-2.5-2.4-2.5c-1 0-1.8.5-2.1 1.3v2.4c.3.8 1.1 1.3 2.1 1.3c1.3 0 2.4-.9 2.4-2.5zm2.3 0c0-2 1.4-3.7 3.6-3.7c2.3 0 3.7 1.7 3.7 3.7c0 2-1.4 3.7-3.7 3.7c-2.2 0-3.6-1.7-3.6-3.7zm6 0c0-1.5-1.1-2.5-2.4-2.5c-1.3 0-2.3 1-2.3 2.5c0 1.5 1 2.5 2.3 2.5c1.3 0 2.4-1 2.4-2.5zm2.8-3.5h1.2v7h-1.2v-7zm-.1-3.1h1.4v1.5h-1.4v-1.5zm3.2.2h1.3v9.9H225v-9.9zm2.8 6.4c0-2.2 1.4-3.7 3.5-3.7c2 0 3.3 1.5 3.3 3.5v.6h-5.5c.1 1.3 1 2.1 2.3 2.1c1 0 1.8-.5 2.3-1.2l.8.8c-.7.9-1.8 1.6-3.1 1.6c-2.2 0-3.6-1.6-3.6-3.7zm1.3-.6h4.3c-.1-1.2-1-2-2.1-2c-1.2 0-2 .8-2.2 2zm7-2.9h1.2s.04 1.19 0 1.2c.4-.8 1.2-1.4 2.3-1.4c-.05.03.1 0 .1 0v1.3c-1.1 0-2 .4-2.4 1.5c.04.03 0 4.4 0 4.4h-1.2v-7z" stroke="none" fill="#fff"/></g></svg>