<?xml version="1.0" standalone="no"?><!DOCTYPE svg PUBLIC "-//W3C//DTD SVG 1.1//EN" "http://www.w3.org/Graphics/SVG/1.1/DTD/svg11.dtd"><svg xmlns="http://www.w3.org/2000/svg" version="1.1" width="77px" height="145.7px" viewBox="0 -21 77 145.7" style="top:-21px"><desc>3-5</desc><defs/><g id="Polygon58072"><path d="m62.1 73.4c.01-.01 11.1 14.9 11.1 14.9l-12.7 8.2l-11.5-16c-3.3 1-6.9 1.5-10.7 1.5C17.7 82 3 67 3 46.3c0-20.7 14.7-35.7 35.3-35.7c20.5 0 35.2 15 35.2 35.7c0 11.2-4.2 20.6-11.4 27.1zm-23.8-5.9c11.9 0 19-9.1 19-21.2c0-12.1-7.1-21.2-19-21.2c-12 0-19.1 9.1-19.1 21.2c0 12.1 7.1 21.2 19.1 21.2z" stroke="none" fill="#fff"/></g></svg>