<?xml version="1.0" standalone="no"?><!DOCTYPE svg PUBLIC "-//W3C//DTD SVG 1.1//EN" "http://www.w3.org/Graphics/SVG/1.1/DTD/svg11.dtd"><svg xmlns="http://www.w3.org/2000/svg" version="1.1" width="583.3px" height="110.4px" viewBox="0 -5 583.3 110.4" style="top:-5px"><desc>스텝 01-1@4세일즈톡</desc><defs/><g id="Polygon58932"><path d="m192.3 93.7c0-1.7 1.3-3 3.3-3c1 0 1.9.4 2.5 1.1v-.9c0-1.3-.7-2.3-2.2-2.3c-1 0-1.6.3-2.2 1l-.8-1c.6-.7 1.5-1.3 3.1-1.3c2.3 0 3.6 1.4 3.6 3.5c-.04-.03 0 5.6 0 5.6h-1.4s-.02-.88 0-.9c-.7.7-1.6 1.1-2.6 1.1c-2 0-3.3-1.3-3.3-2.9zm5.8.6v-1.2c-.4-.8-1.5-1.2-2.3-1.2c-1.4 0-2 1-2 1.8c0 .8.6 1.7 2 1.7c.8 0 1.9-.3 2.3-1.1zm3.8-6.8h1.4s-.05 1.2 0 1.2c.4-.7 1.4-1.4 2.7-1.4c2 0 3.2 1.3 3.2 3.5v5.6h-1.4s-.03-5.42 0-5.4c0-1.6-.8-2.4-2.2-2.4c-1.2 0-2 .7-2.3 1.6v6.2h-1.4v-8.9zm15.8 7.6c-.7.9-1.7 1.5-2.9 1.5c-2.3 0-3.8-1.9-3.8-4.7c0-2.7 1.5-4.6 3.8-4.6c1.2 0 2.2.5 2.8 1.4c.03-.02 0-5.1 0-5.1h1.5v12.8h-1.4v-1.3zm-.1-1.4v-3.5c-.4-1-1.3-1.6-2.4-1.6c-1.7 0-2.7 1.2-2.7 3.3c0 2.1 1 3.4 2.7 3.4c1.1 0 2-.6 2.4-1.6zm6.6-6.2h1.6s1.46 5.41 1.5 5.4c.2.8.4 1.6.4 1.9h.1c0-.3.2-1.1.4-1.9c.02.03 1.7-5.4 1.7-5.4h1.5l1.7 5.4c.3.8.5 1.6.5 1.9c0-.3.2-1.1.5-1.9c-.03.01 1.5-5.4 1.5-5.4h1.5l-2.7 8.9H233s-1.85-5.65-1.8-5.7c-.3-.7-.5-1.4-.5-1.7h-.1c0 .3-.2 1-.4 1.7l-1.9 5.7h-1.4l-2.7-8.9zm15.8 0v8.9h-1.4v-8.9h1.4zm.2-3.9v1.8h-1.8v-1.8h1.8zm2.9 10c-.05-.04 0-4.9 0-4.9h-1.7v-1.2h1.7v-2.3h1.4v2.3h2v1.2h-2v4.9c0 1.2.5 1.6 1.7 1.6h.3v1.2c-.2.1-.4.1-.7.1c-1.8 0-2.7-.9-2.7-2.9zm5-10h1.5s-.03 5.01 0 5c.5-.7 1.4-1.3 2.6-1.3c2.1 0 3.3 1.3 3.3 3.5c-.03.04 0 5.6 0 5.6H254s.03-5.42 0-5.4c0-1.6-.8-2.4-2.1-2.4c-1.2 0-2.1.7-2.3 1.6c-.03-.05 0 6.2 0 6.2h-1.5V83.6zm13.7.6h1.3s5.83 8.28 5.8 8.3c.5.6.9 1.3 1 1.5h.1c-.1-.2-.1-1-.1-1.8c-.05-.03 0-8 0-8h1.4v12.2H270s-5.8-8.32-5.8-8.3c-.5-.7-.9-1.3-1-1.6c0 .3.1 1.1.1 1.9c-.02-.01 0 8 0 8h-1.5V84.2zm12.2 16.2l1-3h-1.1v-2.2h2.3v2l-1 3.2H274zm9.5-12.9v8.9h-1.4v-8.9h1.4zm.2-3.9v1.8h-1.8v-1.8h1.8zm2.8 10c.04-.04 0-4.9 0-4.9h-1.6v-1.2h1.7v-2.3h1.4v2.3h2v1.2h-2s-.02 4.86 0 4.9c0 1.2.5 1.6 1.7 1.6h.3s-.03 1.22 0 1.2c-.2.1-.4.1-.7.1c-1.8 0-2.8-.9-2.8-2.9zm7.8-6.1h1.6s1.49 5.41 1.5 5.4c.2.8.4 1.6.4 1.9h.1c0-.3.2-1.1.4-1.9c.04.03 1.8-5.4 1.8-5.4h1.4s1.74 5.43 1.7 5.4c.3.8.5 1.6.5 1.9h.1c0-.3.1-1.1.4-1.9l1.5-5.4h1.5l-2.7 8.9h-1.4s-1.82-5.65-1.8-5.7c-.3-.7-.5-1.4-.5-1.7c0 .3-.2 1-.5 1.7c.01.05-1.8 5.7-1.8 5.7h-1.4l-2.8-8.9zm15.8 0v8.9h-1.4v-8.9h1.4zm.2-3.9v1.8h-1.8v-1.8h1.8zm3.7 0v12.8h-1.5V83.6h1.5zm3.8 0v12.8h-1.4V83.6h1.4zm6.1 3.9h1.4s.02 1.2 0 1.2c.5-.7 1.5-1.4 2.7-1.4c2.1 0 3.3 1.3 3.3 3.5c-.02.04 0 5.6 0 5.6h-1.5s.04-5.42 0-5.4c0-1.6-.7-2.4-2.1-2.4c-1.2 0-2.1.7-2.3 1.6c-.02-.05 0 6.2 0 6.2h-1.5v-8.9zm9.1 4.4c0-2.8 1.6-4.6 4.1-4.6c2.4 0 3.9 1.8 3.9 4.4c0 .2-.1.5-.1.7h-6.4c.2 1.8 1.1 2.9 2.7 2.9c1.1 0 2-.4 2.5-1.3l1 .8c-.7 1-1.8 1.8-3.6 1.8c-2.5 0-4.1-1.8-4.1-4.7zm1.6-.7h4.9c-.1-1.6-1.1-2.6-2.4-2.6c-1.4 0-2.3.9-2.5 2.6zm6.9-3.7h1.5s2.07 5.73 2.1 5.7c.2.7.5 1.4.5 1.7c0-.3.2-1 .5-1.7l2-5.7h1.6l-3.4 8.9h-1.4l-3.4-8.9zm8.8 4.4c0-2.8 1.6-4.6 4-4.6c2.4 0 3.9 1.8 3.9 4.4v.7h-6.4c.1 1.8 1.1 2.9 2.7 2.9c1.1 0 2-.4 2.5-1.3l1 .8c-.7 1-1.9 1.8-3.6 1.8c-2.6 0-4.1-1.8-4.1-4.7zm1.5-.7h4.9c-.1-1.6-1-2.6-2.4-2.6c-1.3 0-2.3.9-2.5 2.6zm8.2-3.7h1.4s-.04 1.57 0 1.6c.4-1 1.3-1.8 2.6-1.8h.4c-.02.01 0 1.5 0 1.5c0 0-.5-.03-.5 0c-1.2 0-2.1.6-2.5 2v5.6H360v-8.9zm10.8 8.9h-1.4V83.6h1.5s-.02 5.08 0 5.1c.6-.9 1.7-1.4 2.8-1.4c2.3 0 3.9 1.9 3.9 4.6c0 2.8-1.6 4.7-3.9 4.7c-1.2 0-2.2-.6-2.9-1.5c.03.04 0 1.3 0 1.3zm5.3-4.5c0-2.1-1-3.3-2.7-3.3c-1.1 0-2.1.6-2.5 1.6v3.5c.4 1 1.4 1.6 2.5 1.6c1.7 0 2.7-1.3 2.7-3.4zm2.8 0c0-2.8 1.6-4.6 4-4.6c2.4 0 3.9 1.8 3.9 4.4c0 .2 0 .5-.1.7h-6.3c.1 1.8 1.1 2.9 2.7 2.9c1 0 1.9-.4 2.5-1.3l.9.8c-.6 1-1.8 1.8-3.5 1.8c-2.6 0-4.1-1.8-4.1-4.7zm1.5-.7h4.9c-.1-1.6-1-2.6-2.4-2.6c-1.4 0-2.3.9-2.5 2.6zm8 4h2.1v2.2h-2.1v-2.2z" stroke="none" fill="#fff"/></g><g id="Polygon58931"><path d="m25.9 69.6v-4.9h-1.6v-1.2h1.6v-2.3h1.5v2.3h1.9v1.2h-1.9s-.05 4.86 0 4.9c0 1.2.5 1.6 1.7 1.6h.2s.05 1.22 0 1.2c-.1.1-.4.1-.6.1c-1.8 0-2.8-.9-2.8-2.9zm5.1-10h1.4s.03 5.01 0 5c.5-.7 1.5-1.3 2.7-1.3c2.1 0 3.2 1.3 3.2 3.5c.03.04 0 5.6 0 5.6h-1.4V67c0-1.6-.8-2.4-2.2-2.4c-1.2 0-2 .7-2.3 1.6c.03-.05 0 6.2 0 6.2H31V59.6zm9 10.1c0-1.7 1.2-3 3.2-3c1 0 1.9.4 2.5 1.1v-.9c0-1.3-.7-2.3-2.1-2.3c-1.1 0-1.7.3-2.3 1l-.8-1c.6-.7 1.5-1.3 3.1-1.3c2.3 0 3.6 1.4 3.6 3.5c-.03-.03 0 5.6 0 5.6h-1.4s-.02-.88 0-.9c-.7.7-1.6 1.1-2.6 1.1c-2 0-3.2-1.3-3.2-2.9zm5.7.6v-1.2c-.4-.8-1.4-1.2-2.3-1.2c-1.4 0-2 1-2 1.8c0 .8.6 1.7 2 1.7c.9 0 1.9-.3 2.3-1.1zm3.8-6.8h1.4s-.04 1.2 0 1.2c.4-.7 1.4-1.4 2.7-1.4c2 0 3.2 1.3 3.2 3.5c.02.04 0 5.6 0 5.6h-1.4s-.02-5.42 0-5.4c0-1.6-.8-2.4-2.2-2.4c-1.2 0-2 .7-2.3 1.6v6.2h-1.4v-8.9zm17.8 2c-.5-.7-1.1-1-1.9-1c-.9 0-1.3.6-1.3 1.2c0 .7.4 1.1 1.1 1.2l.8.2c1.7.4 2.7 1.1 2.7 2.7c0 1.4-1.3 2.8-3.4 2.8c-1.6 0-2.7-.9-3.4-1.9l1-.8c.5.8 1.3 1.5 2.4 1.5c1.2 0 1.9-.6 1.9-1.5c0-.8-.7-1.2-1.7-1.4l-.7-.2c-1.4-.3-2.2-1.1-2.2-2.4c0-1.4 1-2.6 2.9-2.6c1.2 0 2.2.6 2.8 1.4l-1 .8zm4.5-2v8.9h-1.4v-8.9h1.4zm.2-3.9v1.8h-1.8v-1.8h1.8zm2.3 3.9h1.3s.04 1.2 0 1.2c.5-.7 1.5-1.4 2.8-1.4c1.3 0 2.2.5 2.7 1.6c.4-.8 1.5-1.6 2.9-1.6c2.1 0 3.3 1.3 3.3 3.5c-.05 0 0 5.6 0 5.6h-1.5v-5.5c0-1.5-.7-2.3-2-2.3c-1.2 0-2.1.7-2.3 1.6c-.02-.05 0 6.2 0 6.2H80s.04-5.45 0-5.5c0-1.5-.7-2.3-2-2.3c-1.2 0-2.1.7-2.3 1.6v6.2h-1.4v-8.9zm15.3 0h1.3s.04 1.25 0 1.3c.7-.9 1.7-1.5 2.9-1.5c2.4 0 3.9 1.9 3.9 4.6c0 2.8-1.5 4.7-3.9 4.7c-1.1 0-2.2-.5-2.8-1.4v4.6h-1.4V63.5zm6.6 4.4c0-2.1-1-3.3-2.7-3.3c-1.1 0-2.1.6-2.5 1.6v3.5c.4 1 1.4 1.6 2.5 1.6c1.7 0 2.7-1.3 2.7-3.4zm4.8-8.3v12.8h-1.5V59.6h1.5zm4.8 11.9l-3.4-8h1.5l2.1 5.1c.3.7.5 1.3.5 1.6c.1-.5.3-.9.5-1.6c.04-.02 1.9-5.1 1.9-5.1h1.6l-4.9 12.3H104l1.8-4.3zm9.2-3.8c0-2.6 1.5-4.4 3.7-4.4c1.2 0 2.2.5 2.8 1.4c.02.01 0-1.2 0-1.2h1.4v8.1c0 2.3-1.2 4.4-4 4.4c-1.9 0-3.1-1-3.7-2.2l1.1-.7c.4.9 1.3 1.6 2.5 1.6c1.9 0 2.7-1.4 2.7-3v-1c-.7.8-1.7 1.4-2.8 1.4c-2.2 0-3.7-1.9-3.7-4.4zm6.5 1.5v-3.1c-.4-.9-1.4-1.5-2.5-1.5c-1.5 0-2.5 1.2-2.5 3.1c0 1.9 1 3.1 2.5 3.1c1.1 0 2.1-.6 2.5-1.6zm10.2-1.3c0-2.1-1.1-3.3-2.7-3.3c-1.7 0-2.8 1.2-2.8 3.3c0 2.2 1.1 3.4 2.8 3.4c1.6 0 2.7-1.2 2.7-3.4zm1.5 0c0 2.8-1.7 4.7-4.2 4.7c-2.6 0-4.3-1.9-4.3-4.7c0-2.7 1.7-4.6 4.3-4.6c2.5 0 4.2 1.9 4.2 4.6zm3.2-4.4v8.9H135v-8.9h1.4zm.2-3.9v1.8h-1.8v-1.8h1.8zm2.3 3.9h1.3s.04 1.2 0 1.2c.5-.7 1.5-1.4 2.8-1.4c2 0 3.2 1.3 3.2 3.5v5.6h-1.4s-.04-5.42 0-5.4c0-1.6-.8-2.4-2.2-2.4c-1.2 0-2 .7-2.3 1.6v6.2h-1.4v-8.9zm9 4.2c0-2.6 1.5-4.4 3.8-4.4c1.1 0 2.1.5 2.8 1.4c-.04.01 0-1.2 0-1.2h1.4s-.05 8.13 0 8.1c0 2.3-1.3 4.4-4.1 4.4c-1.9 0-3.1-1-3.6-2.2l1-.7c.5.9 1.3 1.6 2.6 1.6c1.9 0 2.6-1.4 2.6-3v-1c-.6.8-1.6 1.4-2.7 1.4c-2.3 0-3.8-1.9-3.8-4.4zm6.5 1.5v-3.1c-.4-.9-1.3-1.5-2.4-1.5c-1.6 0-2.6 1.2-2.6 3.1c0 1.9 1 3.1 2.6 3.1c1.1 0 2-.6 2.4-1.6zm8.2-4.5H161v-1.2h1.6s-.04-1.34 0-1.3c0-1.6.8-2.7 2.6-2.7h.8c-.03.05 0 1.2 0 1.2c0 0-.47.04-.5 0c-1 0-1.5.5-1.5 1.5v1.3h2v1.2h-2v7.7h-1.4v-7.7zm4.8-1.2h1.4v1.6c.5-1 1.4-1.8 2.6-1.8h.4c.02.01 0 1.5 0 1.5c0 0-.47-.03-.5 0c-1.2 0-2 .6-2.5 2c.05-.03 0 5.6 0 5.6h-1.4v-8.9zm12.1 4.4c0-2.1-1-3.3-2.7-3.3c-1.6 0-2.7 1.2-2.7 3.3c0 2.2 1.1 3.4 2.7 3.4c1.7 0 2.7-1.2 2.7-3.4zm1.5 0c0 2.8-1.6 4.7-4.2 4.7c-2.5 0-4.2-1.9-4.2-4.7c0-2.7 1.7-4.6 4.2-4.6c2.6 0 4.2 1.9 4.2 4.6zm1.9-4.4h1.4s-.05 1.2 0 1.2c.4-.7 1.4-1.4 2.7-1.4c1.3 0 2.2.5 2.7 1.6c.4-.8 1.6-1.6 3-1.6c2 0 3.2 1.3 3.2 3.5c-.04 0 0 5.6 0 5.6h-1.5s.02-5.45 0-5.5c0-1.5-.7-2.3-2-2.3c-1.2 0-2.1.7-2.3 1.6v6.2h-1.5s.05-5.45 0-5.5c0-1.5-.7-2.3-2-2.3c-1.2 0-2 .7-2.3 1.6v6.2h-1.4v-8.9zm22.2-3.3h1.7l4.5 12.2h-1.6l-1.1-3.1h-5.3l-1.1 3.1h-1.6l4.5-12.2zm-1.4 7.8h4.4s-1.67-4.74-1.7-4.7c-.2-.8-.4-1.5-.4-1.7h-.1c0 .2-.2.9-.5 1.7l-1.7 4.7zm13 1.6c.02-.04 0-4.9 0-4.9h-1.6v-1.2h1.6v-2.3h1.5v2.3h2v1.2h-2s-.04 4.86 0 4.9c0 1.2.5 1.6 1.7 1.6h.3s-.04 1.22 0 1.2c-.2.1-.5.1-.7.1c-1.8 0-2.8-.9-2.8-2.9zm11.5-1.7c0-2.1-1.1-3.3-2.8-3.3c-1.6 0-2.7 1.2-2.7 3.3c0 2.2 1.1 3.4 2.7 3.4c1.7 0 2.8-1.2 2.8-3.4zm1.4 0c0 2.8-1.6 4.7-4.2 4.7c-2.5 0-4.2-1.9-4.2-4.7c0-2.7 1.7-4.6 4.2-4.6c2.6 0 4.2 1.9 4.2 4.6zm5.9-7.7s3.98-.04 4 0c2.3 0 3.7 1.2 3.7 3.2c0 1.1-.5 1.9-1.5 2.5c1.4.3 2.4 1.3 2.4 3.1c0 2.1-1.3 3.4-3.9 3.4h-4.7V60.2zm4.6 11c1.7 0 2.5-.9 2.5-2.3c0-1.3-.8-2.2-2.5-2.2c-.01.03-3.1 0-3.1 0v4.5s3.09-.04 3.1 0zm-.8-5.7c1.6 0 2.3-.8 2.3-2c0-1.3-.7-2.1-2.3-2.1H237v4.1h2.3zm6.5 5.7h2.1v2.2h-2.1v-2.2zm8.3-11s4.22-.04 4.2 0c3.2 0 5.6 2.1 5.6 6.1c0 3.9-2.4 6.1-5.6 6.1h-4.2V60.2zm1.5 1.2v9.7s2.61.02 2.6 0c2.5 0 4.1-1.6 4.1-4.8c0-3.2-1.6-4.9-4.1-4.9c.01.04-2.6 0-2.6 0zm10.2 2.1h1.4v1.6c.5-1 1.4-1.8 2.7-1.8h.3c.04.01 0 1.5 0 1.5c0 0-.45-.03-.4 0c-1.2 0-2.1.6-2.5 2c-.03-.03 0 5.6 0 5.6h-1.5v-8.9zm7.2 0v8.9h-1.4v-8.9h1.4zm.2-3.9v1.8h-1.8v-1.8h1.8zm1.3 3.9h1.5s2.05 5.73 2 5.7c.3.7.5 1.4.5 1.7h.1c0-.3.2-1 .5-1.7c-.04.03 2-5.7 2-5.7h1.5l-3.3 8.9h-1.4l-3.4-8.9zm11 0v8.9h-1.4v-8.9h1.4zm.2-3.9v1.8h-1.8v-1.8h1.8zm2.2 3.9h1.4v1.2c.5-.7 1.5-1.4 2.7-1.4c2.1 0 3.3 1.3 3.3 3.5c-.04.04 0 5.6 0 5.6h-1.5s.02-5.42 0-5.4c0-1.6-.8-2.4-2.1-2.4c-1.2 0-2.1.7-2.3 1.6c-.05-.05 0 6.2 0 6.2h-1.5v-8.9zm9.1 4.2c0-2.6 1.5-4.4 3.7-4.4c1.1 0 2.2.5 2.8 1.4c.02.01 0-1.2 0-1.2h1.4v8.1c0 2.3-1.3 4.4-4 4.4c-1.9 0-3.1-1-3.7-2.2l1.1-.7c.4.9 1.3 1.6 2.5 1.6c1.9 0 2.7-1.4 2.7-3v-1c-.7.8-1.7 1.4-2.8 1.4c-2.2 0-3.7-1.9-3.7-4.4zm6.5 1.5v-3.1c-.4-.9-1.4-1.5-2.5-1.5c-1.5 0-2.5 1.2-2.5 3.1c0 1.9 1 3.1 2.5 3.1c1.1 0 2.1-.6 2.5-1.6zm6.6-5.7h1.5s1.49 5.41 1.5 5.4c.2.8.4 1.6.4 1.9h.1c0-.3.2-1.1.4-1.9c.05.03 1.8-5.4 1.8-5.4h1.4s1.74 5.43 1.7 5.4c.3.8.5 1.6.5 1.9h.1c0-.3.1-1.1.4-1.9l1.5-5.4h1.5l-2.7 8.9h-1.4s-1.82-5.65-1.8-5.7c-.3-.7-.5-1.4-.5-1.7c0 .3-.2 1-.5 1.7c.01.05-1.8 5.7-1.8 5.7h-1.4l-2.7-8.9zm13.4 6.2c0-1.7 1.2-3 3.3-3c.9 0 1.8.4 2.4 1.1v-.9c0-1.3-.7-2.3-2.1-2.3c-1.1 0-1.6.3-2.3 1l-.8-1c.6-.7 1.5-1.3 3.1-1.3c2.3 0 3.6 1.4 3.6 3.5c-.02-.03 0 5.6 0 5.6h-1.4s-.01-.88 0-.9c-.7.7-1.6 1.1-2.5 1.1c-2.1 0-3.3-1.3-3.3-2.9zm5.7.6v-1.2c-.4-.8-1.4-1.2-2.2-1.2c-1.5 0-2.1 1-2.1 1.8c0 .8.6 1.7 2.1 1.7c.8 0 1.8-.3 2.2-1.1zm8.3-4.8c-.5-.7-1.2-1-1.9-1c-.9 0-1.4.6-1.4 1.2c0 .7.4 1.1 1.2 1.2l.7.2c1.7.4 2.7 1.1 2.7 2.7c0 1.4-1.2 2.8-3.3 2.8c-1.6 0-2.7-.9-3.4-1.9l.9-.8c.6.8 1.4 1.5 2.5 1.5c1.1 0 1.9-.6 1.9-1.5c0-.8-.7-1.2-1.7-1.4l-.7-.2c-1.4-.3-2.2-1.1-2.2-2.4c0-1.4 1-2.6 2.8-2.6c1.3 0 2.3.6 2.9 1.4l-1 .8zm6.8-2h1.4s-.04 1.2 0 1.2c.4-.7 1.4-1.4 2.7-1.4c2 0 3.2 1.3 3.2 3.5v5.6h-1.4s-.03-5.42 0-5.4c0-1.6-.8-2.4-2.2-2.4c-1.2 0-2 .7-2.3 1.6v6.2h-1.4v-8.9zm9.1 4.4c0-2.8 1.6-4.6 4-4.6c2.4 0 3.9 1.8 3.9 4.4c0 .2 0 .5-.1.7h-6.3c.1 1.8 1.1 2.9 2.7 2.9c1.1 0 2-.4 2.5-1.3l.9.8c-.6 1-1.8 1.8-3.5 1.8c-2.6 0-4.1-1.8-4.1-4.7zm1.5-.7h4.9c-.1-1.6-1-2.6-2.4-2.6c-1.4 0-2.3.9-2.5 2.6zm6.9-3.7h1.5s2.1 5.73 2.1 5.7c.3.7.5 1.4.5 1.7c0-.3.3-1 .5-1.7c.01.03 2.1-5.7 2.1-5.7h1.5l-3.4 8.9h-1.4l-3.4-8.9zm8.8 4.4c0-2.8 1.6-4.6 4.1-4.6c2.3 0 3.8 1.8 3.8 4.4v.7h-6.4c.1 1.8 1.1 2.9 2.7 2.9c1.1 0 2-.4 2.5-1.3l1 .8c-.7 1-1.8 1.8-3.6 1.8c-2.5 0-4.1-1.8-4.1-4.7zm1.5-.7h4.9c-.1-1.6-1-2.6-2.3-2.6c-1.4 0-2.4.9-2.6 2.6zm8.2-3.7h1.4v1.6c.5-1 1.4-1.8 2.6-1.8h.4c.02.01 0 1.5 0 1.5c0 0-.47-.03-.5 0c-1.2 0-2 .6-2.5 2c.05-.03 0 5.6 0 5.6h-1.4v-8.9zm9.5 0h1.4s-.04 1.2 0 1.2c.4-.7 1.4-1.4 2.7-1.4c1.3 0 2.2.5 2.7 1.6c.4-.8 1.6-1.6 3-1.6c2 0 3.2 1.3 3.2 3.5c-.03 0 0 5.6 0 5.6h-1.5s.03-5.45 0-5.5c0-1.5-.7-2.3-2-2.3c-1.2 0-2.1.7-2.3 1.6v6.2h-1.4s-.05-5.45 0-5.5c0-1.5-.8-2.3-2.1-2.3c-1.2 0-2 .7-2.3 1.6v6.2h-1.4v-8.9zm14.7 4.4c0-2.8 1.6-4.6 4.1-4.6c2.4 0 3.9 1.8 3.9 4.4c0 .2-.1.5-.1.7H406c.2 1.8 1.1 2.9 2.7 2.9c1.1 0 2-.4 2.5-1.3l1 .8c-.7 1-1.8 1.8-3.6 1.8c-2.5 0-4.1-1.8-4.1-4.7zm1.5-.7h4.9c0-1.6-1-2.6-2.3-2.6c-1.4 0-2.3.9-2.6 2.6zm7.5 2.5c0-1.7 1.3-3 3.3-3c1 0 1.9.4 2.5 1.1v-.9c0-1.3-.7-2.3-2.2-2.3c-1 0-1.6.3-2.2 1l-.8-1c.6-.7 1.5-1.3 3.1-1.3c2.3 0 3.6 1.4 3.6 3.5c-.05-.03 0 5.6 0 5.6h-1.4s-.03-.88 0-.9c-.7.7-1.6 1.1-2.6 1.1c-2 0-3.3-1.3-3.3-2.9zm5.8.6v-1.2c-.5-.8-1.5-1.2-2.3-1.2c-1.4 0-2 1-2 1.8c0 .8.6 1.7 2 1.7c.8 0 1.8-.3 2.3-1.1zm3.8-6.8h1.3s.04 1.2 0 1.2c.5-.7 1.5-1.4 2.8-1.4c2 0 3.2 1.3 3.2 3.5v5.6H429s-.04-5.42 0-5.4c0-1.6-.8-2.4-2.2-2.4c-1.2 0-2.1.7-2.3 1.6v6.2h-1.4v-8.9zm10.2 6.1c.03-.04 0-4.9 0-4.9h-1.6v-1.2h1.7v-2.3h1.4v2.3h2v1.2h-2s-.03 4.86 0 4.9c0 1.2.5 1.6 1.7 1.6h.3s-.03 1.22 0 1.2c-.2.1-.4.1-.7.1c-1.8 0-2.8-.9-2.8-2.9zm9.4 0c.03-.04 0-4.9 0-4.9h-1.6v-1.2h1.6v-2.3h1.5v2.3h2v1.2h-2s-.03 4.86 0 4.9c0 1.2.5 1.6 1.7 1.6h.3s-.03 1.22 0 1.2c-.2.1-.4.1-.7.1c-1.8 0-2.8-.9-2.8-2.9zm11.5-1.7c0-2.1-1.1-3.3-2.8-3.3c-1.6 0-2.7 1.2-2.7 3.3c0 2.2 1.1 3.4 2.7 3.4c1.7 0 2.8-1.2 2.8-3.4zm1.5 0c0 2.8-1.7 4.7-4.3 4.7c-2.5 0-4.2-1.9-4.2-4.7c0-2.7 1.7-4.6 4.2-4.6c2.6 0 4.3 1.9 4.3 4.6zm6.9 4.5h-1.4V59.6h1.4s.02 5.08 0 5.1c.7-.9 1.7-1.4 2.8-1.4c2.4 0 3.9 1.9 3.9 4.6c0 2.8-1.5 4.7-3.9 4.7c-1.1 0-2.2-.6-2.8-1.5c-.04.04 0 1.3 0 1.3zm5.2-4.5c0-2.1-1-3.3-2.7-3.3c-1.1 0-2.1.6-2.5 1.6v3.5c.4 1 1.4 1.6 2.5 1.6c1.7 0 2.7-1.3 2.7-3.4zm2.8 0c0-2.8 1.6-4.6 4-4.6c2.4 0 3.9 1.8 3.9 4.4v.7h-6.4c.1 1.8 1.1 2.9 2.7 2.9c1.1 0 2-.4 2.5-1.3l1 .8c-.7 1-1.8 1.8-3.6 1.8c-2.5 0-4.1-1.8-4.1-4.7zm1.5-.7h4.9c-.1-1.6-1-2.6-2.4-2.6c-1.3 0-2.3.9-2.5 2.6zm11.9-3.7h1.4s-.03 1.2 0 1.2c.4-.7 1.4-1.4 2.7-1.4c1.3 0 2.2.5 2.7 1.6c.5-.8 1.6-1.6 3-1.6c2 0 3.2 1.3 3.2 3.5c-.02 0 0 5.6 0 5.6h-1.5s.04-5.45 0-5.5c0-1.5-.7-2.3-2-2.3c-1.2 0-2 .7-2.3 1.6v6.2h-1.4s-.04-5.45 0-5.5c0-1.5-.8-2.3-2.1-2.3c-1.2 0-2 .7-2.3 1.6c.02-.05 0 6.2 0 6.2H484v-8.9zm22.5 8.9h-1.4s.03-1.21 0-1.2c-.5.7-1.4 1.4-2.7 1.4c-2.1 0-3.2-1.3-3.2-3.6c-.02.03 0-5.5 0-5.5h1.4s.02 5.39 0 5.4c0 1.6.8 2.4 2.2 2.4c1.2 0 2-.7 2.3-1.6c-.02.02 0-6.2 0-6.2h1.4v8.9zm2.4-8.9h1.4s.02 1.2 0 1.2c.5-.7 1.5-1.4 2.7-1.4c2.1 0 3.3 1.3 3.3 3.5c-.02.04 0 5.6 0 5.6h-1.5s.04-5.42 0-5.4c0-1.6-.8-2.4-2.1-2.4c-1.2 0-2.1.7-2.3 1.6c-.03-.05 0 6.2 0 6.2h-1.5v-8.9zm15.9 7.6c-.7.9-1.8 1.5-2.9 1.5c-2.4 0-3.9-1.9-3.9-4.7c0-2.7 1.5-4.6 3.9-4.6c1.1 0 2.1.5 2.8 1.4v-5.1h1.4v12.8h-1.3s-.05-1.26 0-1.3zm-.1-1.4v-3.5c-.4-1-1.4-1.6-2.5-1.6c-1.7 0-2.7 1.2-2.7 3.3c0 2.1 1 3.4 2.7 3.4c1.1 0 2.1-.6 2.5-1.6zm3.2 0c0-1.7 1.2-3 3.3-3c.9 0 1.8.4 2.4 1.1v-.9c0-1.3-.7-2.3-2.1-2.3c-1.1 0-1.6.3-2.3 1l-.8-1c.6-.7 1.5-1.3 3.1-1.3c2.3 0 3.6 1.4 3.6 3.5v5.6h-1.4v-.9c-.7.7-1.6 1.1-2.5 1.1c-2.1 0-3.3-1.3-3.3-2.9zm5.7.6v-1.2c-.4-.8-1.4-1.2-2.2-1.2c-1.5 0-2.1 1-2.1 1.8c0 .8.6 1.7 2.1 1.7c.8 0 1.8-.3 2.2-1.1zm3.8-6.8h1.4s-.02 1.2 0 1.2c.4-.7 1.5-1.4 2.7-1.4c2.1 0 3.2 1.3 3.2 3.5c.03.04 0 5.6 0 5.6h-1.4V67c0-1.6-.8-2.4-2.2-2.4c-1.2 0-2 .7-2.3 1.6c.03-.05 0 6.2 0 6.2h-1.4v-8.9zm9.1 4.4c0-2.8 1.6-4.6 4-4.6c2.4 0 3.9 1.8 3.9 4.4v.7H548c.1 1.8 1.1 2.9 2.7 2.9c1.1 0 2-.4 2.5-1.3l1 .8c-.7 1-1.9 1.8-3.6 1.8c-2.6 0-4.1-1.8-4.1-4.7zm1.5-.7h4.9c-.1-1.6-1-2.6-2.4-2.6c-1.3 0-2.3.9-2.5 2.6zm8.1 9.2l1-3H556v-2.2h2.3v2l-1 3.2h-1.2z" stroke="none" fill="#fff"/></g><g id="Polygon58930"><path d="m62.4 42.9l-4.2-6.7h1.8l3.2 5.5l3.2-5.5h1.7l-4.2 6.7v5.5h-1.5v-5.5zm13.2 1c0-2.1-1.1-3.3-2.7-3.3c-1.7 0-2.7 1.2-2.7 3.3c0 2.2 1 3.4 2.7 3.4c1.6 0 2.7-1.2 2.7-3.4zm1.5 0c0 2.8-1.7 4.7-4.2 4.7c-2.6 0-4.2-1.9-4.2-4.7c0-2.7 1.6-4.6 4.2-4.6c2.5 0 4.2 1.9 4.2 4.6zm9.1 4.5h-1.4s-.03-1.21 0-1.2c-.5.7-1.5 1.4-2.7 1.4c-2.1 0-3.3-1.3-3.3-3.6v-5.5h1.5s-.05 5.39 0 5.4c0 1.6.7 2.4 2.1 2.4c1.2 0 2-.7 2.3-1.6c.02.02 0-6.2 0-6.2h1.5v8.9zm6.1-8.9h1.3s.04 1.2 0 1.2c.5-.7 1.5-1.4 2.8-1.4c2 0 3.2 1.3 3.2 3.5v5.6h-1.4s-.04-5.42 0-5.4c0-1.6-.8-2.4-2.2-2.4c-1.2 0-2.1.7-2.3 1.6v6.2h-1.4v-8.9zm9 4.4c0-2.8 1.6-4.6 4.1-4.6c2.4 0 3.9 1.8 3.9 4.4c0 .2 0 .5-.1.7h-6.3c.1 1.8 1.1 2.9 2.6 2.9c1.1 0 2-.4 2.6-1.3l.9.8c-.6 1-1.8 1.8-3.5 1.8c-2.6 0-4.2-1.8-4.2-4.7zm1.6-.7h4.9c-.1-1.6-1.1-2.6-2.4-2.6c-1.4 0-2.3.9-2.5 2.6zm6.9-3.7h1.5s2.09 5.73 2.1 5.7c.2.7.5 1.4.5 1.7c0-.3.2-1 .5-1.7l2-5.7h1.6l-3.4 8.9h-1.4l-3.4-8.9zm8.8 4.4c0-2.8 1.6-4.6 4-4.6c2.4 0 3.9 1.8 3.9 4.4v.7h-6.4c.1 1.8 1.1 2.9 2.7 2.9c1.1 0 2-.4 2.5-1.3l1 .8c-.7 1-1.8 1.8-3.6 1.8c-2.5 0-4.1-1.8-4.1-4.7zm1.5-.7h4.9c-.1-1.6-1-2.6-2.4-2.6c-1.3 0-2.3.9-2.5 2.6zm8.2-3.7h1.4s-.02 1.57 0 1.6c.5-1 1.3-1.8 2.6-1.8h.4v1.5s-.48-.03-.5 0c-1.2 0-2 .6-2.5 2c.03-.03 0 5.6 0 5.6h-1.4v-8.9zm10.9 8.8c0 1.8-.7 2.9-1.9 3.7l-.9-1c.9-.8 1.4-1.5 1.4-2.8c-.04.04 0-8.7 0-8.7h1.4v8.8zm.2-12.7v1.8h-1.8v-1.8h1.8zm9.4 12.8h-1.3s-.04-1.21 0-1.2c-.5.7-1.5 1.4-2.8 1.4c-2 0-3.2-1.3-3.2-3.6v-5.5h1.4s.04 5.39 0 5.4c0 1.6.8 2.4 2.2 2.4c1.2 0 2-.7 2.3-1.6v-6.2h1.4v8.9zm7-6.9c-.5-.7-1.2-1-1.9-1c-.9 0-1.4.6-1.4 1.2c0 .7.4 1.1 1.2 1.2l.7.2c1.7.4 2.7 1.1 2.7 2.7c0 1.4-1.2 2.8-3.4 2.8c-1.5 0-2.7-.9-3.3-1.9l.9-.8c.5.8 1.4 1.5 2.5 1.5c1.1 0 1.9-.6 1.9-1.5c0-.8-.7-1.2-1.7-1.4l-.8-.2c-1.4-.3-2.2-1.1-2.2-2.4c0-1.4 1.1-2.6 2.9-2.6c1.2 0 2.2.6 2.8 1.4l-.9.8zm3.5 4.1c.04-.04 0-4.9 0-4.9h-1.6v-1.2h1.7v-2.3h1.4v2.3h2v1.2h-2s-.02 4.86 0 4.9c0 1.2.5 1.6 1.7 1.6h.3s-.02 1.22 0 1.2c-.2.1-.4.1-.7.1c-1.8 0-2.8-.9-2.8-2.9zm15 1.5c-.7.9-1.7 1.5-2.9 1.5c-2.3 0-3.9-1.9-3.9-4.7c0-2.7 1.6-4.6 3.9-4.6c1.2 0 2.2.5 2.8 1.4c.03-.02 0-5.1 0-5.1h1.5v12.8h-1.4s-.02-1.26 0-1.3zm-.1-1.4v-3.5c-.4-1-1.3-1.6-2.5-1.6c-1.6 0-2.7 1.2-2.7 3.3c0 2.1 1.1 3.4 2.7 3.4c1.2 0 2.1-.6 2.5-1.6zm3.9-6.2h1.4s-.03 1.57 0 1.6c.5-1 1.3-1.8 2.6-1.8h.4v1.5s-.5-.03-.5 0c-1.2 0-2 .6-2.5 2c.02-.03 0 5.6 0 5.6h-1.4v-8.9zm7.2 0v8.9h-1.4v-8.9h1.4zm.2-3.9v1.8h-1.8v-1.8h1.8zm1.2 3.9h1.5s2.1 5.73 2.1 5.7c.3.7.5 1.4.5 1.7c0-.3.3-1 .5-1.7c.01.03 2.1-5.7 2.1-5.7h1.5l-3.4 8.9h-1.4l-3.4-8.9zm8.8 4.4c0-2.8 1.6-4.6 4.1-4.6c2.3 0 3.8 1.8 3.8 4.4v.7H197c.1 1.8 1.1 2.9 2.7 2.9c1.1 0 2-.4 2.5-1.3l1 .8c-.7 1-1.8 1.8-3.6 1.8c-2.5 0-4.1-1.8-4.1-4.7zm1.5-.7h4.9c-.1-1.6-1-2.6-2.3-2.6c-1.4 0-2.4.9-2.6 2.6zm11.2 2.5c0-1.7 1.3-3 3.3-3c.9 0 1.8.4 2.5 1.1v-.9c0-1.3-.7-2.3-2.2-2.3c-1.1 0-1.6.3-2.2 1l-.9-1c.7-.7 1.6-1.3 3.1-1.3c2.4 0 3.6 1.4 3.6 3.5c.03-.03 0 5.6 0 5.6H214s.04-.88 0-.9c-.6.7-1.5 1.1-2.5 1.1c-2 0-3.3-1.3-3.3-2.9zm5.8.6v-1.2c-.5-.8-1.5-1.2-2.3-1.2c-1.5 0-2 1-2 1.8c0 .8.5 1.7 2 1.7c.8 0 1.8-.3 2.3-1.1zm3.7-6.8h1.4s.02 1.2 0 1.2c.5-.7 1.5-1.4 2.7-1.4c2.1 0 3.3 1.3 3.3 3.5c-.02.04 0 5.6 0 5.6h-1.5s.04-5.42 0-5.4c0-1.6-.8-2.4-2.1-2.4c-1.2 0-2.1.7-2.3 1.6c-.03-.05 0 6.2 0 6.2h-1.5v-8.9zm13.7-3.3h1.3s5.84 8.28 5.8 8.3c.5.6.9 1.3 1 1.5h.1c-.1-.2-.1-1-.1-1.8c-.04-.03 0-8 0-8h1.5v12.2h-1.4s-5.79-8.32-5.8-8.3c-.5-.7-.9-1.3-1-1.6c.1.3.1 1.1.1 1.9v8h-1.5V36.2zm17.4 12.2h-1.4V35.6h1.4s.02 5.08 0 5.1c.7-.9 1.7-1.4 2.8-1.4c2.4 0 3.9 1.9 3.9 4.6c0 2.8-1.5 4.7-3.9 4.7c-1.1 0-2.2-.6-2.8-1.5c-.04.04 0 1.3 0 1.3zm5.2-4.5c0-2.1-1-3.3-2.7-3.3c-1.1 0-2.1.6-2.5 1.6v3.5c.4 1 1.4 1.6 2.5 1.6c1.7 0 2.7-1.3 2.7-3.4zm2.8 0c0-2.8 1.6-4.6 4-4.6c2.4 0 3.9 1.8 3.9 4.4v.7h-6.4c.1 1.8 1.1 2.9 2.7 2.9c1.1 0 2-.4 2.5-1.3l1 .8c-.7 1-1.8 1.8-3.6 1.8c-2.5 0-4.1-1.8-4.1-4.7zm1.5-.7h4.9c-.1-1.6-1-2.6-2.4-2.6c-1.3 0-2.3.9-2.5 2.6zm11.8-3.9c1.7 0 3 .9 3.5 2.3l-1.1.6c-.4-1.1-1.3-1.6-2.4-1.6c-1.6 0-2.7 1.2-2.7 3.3c0 2.2 1.1 3.4 2.7 3.4c1.1 0 2-.6 2.4-1.6l1.1.5c-.5 1.5-1.8 2.4-3.5 2.4c-2.6 0-4.2-1.9-4.2-4.7c0-2.7 1.6-4.6 4.2-4.6zm4.5 6.4c0-1.7 1.3-3 3.3-3c.9 0 1.8.4 2.5 1.1v-.9c0-1.3-.7-2.3-2.2-2.3c-1 0-1.6.3-2.2 1l-.9-1c.7-.7 1.6-1.3 3.1-1.3c2.4 0 3.6 1.4 3.6 3.5c.03-.03 0 5.6 0 5.6h-1.4s.04-.88 0-.9c-.6.7-1.5 1.1-2.5 1.1c-2 0-3.3-1.3-3.3-2.9zm5.8.6v-1.2c-.5-.8-1.5-1.2-2.3-1.2c-1.5 0-2 1-2 1.8c0 .8.5 1.7 2 1.7c.8 0 1.8-.3 2.3-1.1zm11 2.1H290s-.02-1.21 0-1.2c-.5.7-1.5 1.4-2.7 1.4c-2.1 0-3.3-1.3-3.3-3.6c.03.03 0-5.5 0-5.5h1.5s-.03 5.39 0 5.4c0 1.6.8 2.4 2.1 2.4c1.2 0 2.1-.7 2.3-1.6c.03.02 0-6.2 0-6.2h1.5v8.9zm6.9-6.9c-.5-.7-1.2-1-1.9-1c-.9 0-1.4.6-1.4 1.2c0 .7.4 1.1 1.2 1.2l.7.2c1.7.4 2.7 1.1 2.7 2.7c0 1.4-1.2 2.8-3.3 2.8c-1.6 0-2.8-.9-3.4-1.9l.9-.8c.6.8 1.4 1.5 2.5 1.5c1.1 0 1.9-.6 1.9-1.5c0-.8-.7-1.2-1.7-1.4l-.7-.2c-1.4-.3-2.2-1.1-2.2-2.4c0-1.4 1-2.6 2.8-2.6c1.3 0 2.3.6 2.9 1.4l-1 .8zm2.5 2.4c0-2.8 1.6-4.6 4.1-4.6c2.4 0 3.9 1.8 3.9 4.4c0 .2-.1.5-.1.7h-6.4c.2 1.8 1.1 2.9 2.7 2.9c1.1 0 2-.4 2.5-1.3l1 .8c-.7 1-1.8 1.8-3.6 1.8c-2.5 0-4.1-1.8-4.1-4.7zm1.5-.7h4.9c0-1.6-1-2.6-2.3-2.6c-1.4 0-2.3.9-2.6 2.6zm12.5 2.4c.04-.04 0-4.9 0-4.9h-1.6v-1.2h1.7v-2.3h1.4v2.3h2v1.2h-2s-.02 4.86 0 4.9c0 1.2.5 1.6 1.7 1.6h.3s-.02 1.22 0 1.2c-.2.1-.4.1-.7.1c-1.8 0-2.8-.9-2.8-2.9zm5.1-10h1.5s-.04 5.01 0 5c.4-.7 1.4-1.3 2.6-1.3c2.1 0 3.3 1.3 3.3 3.5c-.04.04 0 5.6 0 5.6h-1.5s.02-5.42 0-5.4c0-1.6-.8-2.4-2.1-2.4c-1.2 0-2.1.7-2.3 1.6c-.04-.05 0 6.2 0 6.2h-1.5V35.6zm9.1 8.3c0-2.8 1.6-4.6 4.1-4.6c2.4 0 3.8 1.8 3.8 4.4v.7h-6.4c.1 1.8 1.1 2.9 2.7 2.9c1.1 0 2-.4 2.5-1.3l1 .8c-.7 1-1.8 1.8-3.6 1.8c-2.5 0-4.1-1.8-4.1-4.7zm1.5-.7h4.9c-.1-1.6-1-2.6-2.3-2.6c-1.4 0-2.3.9-2.6 2.6zm8.2-3.7h1.4v1.6c.5-1 1.4-1.8 2.6-1.8h.4c.02.01 0 1.5 0 1.5c0 0-.47-.03-.5 0c-1.2 0-2 .6-2.5 2c.05-.03 0 5.6 0 5.6h-1.4v-8.9zm5.2 4.4c0-2.8 1.6-4.6 4.1-4.6c2.4 0 3.9 1.8 3.9 4.4c0 .2-.1.5-.1.7h-6.4c.2 1.8 1.1 2.9 2.7 2.9c1.1 0 2-.4 2.5-1.3l1 .8c-.7 1-1.8 1.8-3.6 1.8c-2.5 0-4.1-1.8-4.1-4.7zm1.6-.7h4.9c-.1-1.6-1.1-2.6-2.4-2.6c-1.4 0-2.3.9-2.5 2.6zm13.3-3.7v8.9h-1.5v-8.9h1.5zm.1-3.9v1.8h-1.8v-1.8h1.8zm6.8 5.9c-.5-.7-1.2-1-1.9-1c-.9 0-1.4.6-1.4 1.2c0 .7.4 1.1 1.2 1.2l.7.2c1.7.4 2.7 1.1 2.7 2.7c0 1.4-1.2 2.8-3.3 2.8c-1.6 0-2.8-.9-3.4-1.9l.9-.8c.5.8 1.4 1.5 2.5 1.5c1.1 0 1.9-.6 1.9-1.5c0-.8-.7-1.2-1.7-1.4l-.7-.2c-1.5-.3-2.2-1.1-2.2-2.4c0-1.4 1-2.6 2.8-2.6c1.3 0 2.3.6 2.8 1.4l-.9.8zm6.8-2h1.3s.04 1.2 0 1.2c.5-.7 1.5-1.4 2.8-1.4c2 0 3.2 1.3 3.2 3.5v5.6h-1.4s-.04-5.42 0-5.4c0-1.6-.8-2.4-2.2-2.4c-1.2 0-2 .7-2.3 1.6v6.2h-1.4v-8.9zm16 4.4c0-2.1-1.1-3.3-2.8-3.3c-1.6 0-2.7 1.2-2.7 3.3c0 2.2 1.1 3.4 2.7 3.4c1.7 0 2.8-1.2 2.8-3.4zm1.5 0c0 2.8-1.7 4.7-4.3 4.7c-2.5 0-4.2-1.9-4.2-4.7c0-2.7 1.7-4.6 4.2-4.6c2.6 0 4.3 1.9 4.3 4.6zm2.3 1.7c-.02-.04 0-4.9 0-4.9h-1.6v-1.2h1.6v-2.3h1.4v2.3h2v1.2h-2s.02 4.86 0 4.9c0 1.2.6 1.6 1.8 1.6h.2v1.2c-.2.1-.4.1-.6.1c-1.9 0-2.8-.9-2.8-2.9zm5.1-10h1.4s-.01 5.01 0 5c.5-.7 1.5-1.3 2.7-1.3c2 0 3.2 1.3 3.2 3.5v5.6h-1.4s-.04-5.42 0-5.4c0-1.6-.8-2.4-2.2-2.4c-1.2 0-2.1.7-2.3 1.6v6.2h-1.4V35.6zm11 3.9v8.9H407v-8.9h1.4zm.2-3.9v1.8h-1.8v-1.8h1.8zm2.3 3.9h1.3s.04 1.2 0 1.2c.5-.7 1.5-1.4 2.8-1.4c2 0 3.2 1.3 3.2 3.5v5.6h-1.4s-.04-5.42 0-5.4c0-1.6-.8-2.4-2.2-2.4c-1.2 0-2.1.7-2.3 1.6v6.2h-1.4v-8.9zm9 4.2c0-2.6 1.5-4.4 3.7-4.4c1.2 0 2.2.5 2.9 1.4c-.04.01 0-1.2 0-1.2h1.3s.04 8.13 0 8.1c0 2.3-1.2 4.4-4 4.4c-1.9 0-3.1-1-3.6-2.2l1-.7c.5.9 1.3 1.6 2.6 1.6c1.9 0 2.6-1.4 2.6-3v-1c-.6.8-1.6 1.4-2.8 1.4c-2.2 0-3.7-1.9-3.7-4.4zm6.5 1.5v-3.1c-.4-.9-1.3-1.5-2.4-1.5c-1.6 0-2.6 1.2-2.6 3.1c0 1.9 1 3.1 2.6 3.1c1.1 0 2-.6 2.4-1.6zm7.5-5.7h1.4s.03 1.2 0 1.2c.5-.7 1.5-1.4 2.7-1.4c1.4 0 2.3.5 2.8 1.6c.4-.8 1.5-1.6 2.9-1.6c2.1 0 3.2 1.3 3.2 3.5c.04 0 0 5.6 0 5.6h-1.4v-5.5c0-1.5-.7-2.3-2-2.3c-1.2 0-2.1.7-2.3 1.6c-.04-.05 0 6.2 0 6.2h-1.5s.02-5.45 0-5.5c0-1.5-.7-2.3-2-2.3c-1.2 0-2.1.7-2.3 1.6c-.02-.05 0 6.2 0 6.2h-1.5v-8.9zm21.7 4.4c0-2.1-1.1-3.3-2.7-3.3c-1.7 0-2.7 1.2-2.7 3.3c0 2.2 1 3.4 2.7 3.4c1.6 0 2.7-1.2 2.7-3.4zm1.5 0c0 2.8-1.7 4.7-4.2 4.7c-2.6 0-4.2-1.9-4.2-4.7c0-2.7 1.6-4.6 4.2-4.6c2.5 0 4.2 1.9 4.2 4.6zm1.8-4.4h1.4v1.6c.5-1 1.4-1.8 2.7-1.8h.3c.04.01 0 1.5 0 1.5c0 0-.45-.03-.4 0c-1.2 0-2.1.6-2.5 2c-.03-.03 0 5.6 0 5.6h-1.5v-8.9zm5.2 4.4c0-2.8 1.7-4.6 4.1-4.6c2.4 0 3.9 1.8 3.9 4.4c0 .2 0 .5-.1.7h-6.3c.1 1.8 1.1 2.9 2.6 2.9c1.1 0 2-.4 2.6-1.3l.9.8c-.6 1-1.8 1.8-3.5 1.8c-2.6 0-4.2-1.8-4.2-4.7zm1.6-.7h4.9c-.1-1.6-1.1-2.6-2.4-2.6c-1.4 0-2.3.9-2.5 2.6zm13.2 5.2h-1.4V35.6h1.5s-.02 5.08 0 5.1c.6-.9 1.7-1.4 2.8-1.4c2.3 0 3.9 1.9 3.9 4.6c0 2.8-1.6 4.7-3.9 4.7c-1.2 0-2.2-.6-2.9-1.5c.03.04 0 1.3 0 1.3zm5.3-4.5c0-2.1-1-3.3-2.7-3.3c-1.2 0-2.1.6-2.5 1.6v3.5c.4 1 1.3 1.6 2.5 1.6c1.7 0 2.7-1.3 2.7-3.4zm9.7 0c0-2.1-1.1-3.3-2.8-3.3c-1.6 0-2.7 1.2-2.7 3.3c0 2.2 1.1 3.4 2.7 3.4c1.7 0 2.8-1.2 2.8-3.4zm1.5 0c0 2.8-1.7 4.7-4.3 4.7c-2.5 0-4.2-1.9-4.2-4.7c0-2.7 1.7-4.6 4.2-4.6c2.6 0 4.3 1.9 4.3 4.6zm1.8-4.4h1.4s-.02 1.57 0 1.6c.5-1 1.4-1.8 2.6-1.8h.4v1.5s-.48-.03-.5 0c-1.2 0-2 .6-2.5 2c.04-.03 0 5.6 0 5.6h-1.4v-8.9zm7.2 0v8.9H503v-8.9h1.4zm.2-3.9v1.8h-1.8v-1.8h1.8zm2.2 3.9h1.4v1.2c.5-.7 1.5-1.4 2.7-1.4c2.1 0 3.3 1.3 3.3 3.5c-.03.04 0 5.6 0 5.6h-1.5s.03-5.42 0-5.4c0-1.6-.8-2.4-2.1-2.4c-1.2 0-2.1.7-2.3 1.6c-.03-.05 0 6.2 0 6.2h-1.5v-8.9zm9.1 4.2c0-2.6 1.5-4.4 3.7-4.4c1.2 0 2.2.5 2.8 1.4c.03.01 0-1.2 0-1.2h1.4s.02 8.13 0 8.1c0 2.3-1.2 4.4-4 4.4c-1.9 0-3.1-1-3.7-2.2l1.1-.7c.4.9 1.3 1.6 2.5 1.6c1.9 0 2.7-1.4 2.7-3v-1c-.7.8-1.7 1.4-2.8 1.4c-2.2 0-3.7-1.9-3.7-4.4zm6.5 1.5v-3.1c-.4-.9-1.4-1.5-2.5-1.5c-1.5 0-2.5 1.2-2.5 3.1c0 1.9 1 3.1 2.5 3.1c1.1 0 2.1-.6 2.5-1.6z" stroke="none" fill="#fff"/></g><g id="Polygon58929"><path d="m168.8 9.2c-.03-.02 0-7 0-7h2.3s.01 6.82 0 6.8c0 2.1.8 3.5 2.9 3.5c2 0 2.8-1.4 2.8-3.5c.02.02 0-6.8 0-6.8h2.4s-.04 6.98 0 7c0 3.1-1.8 5.5-5.2 5.5c-3.5 0-5.2-2.4-5.2-5.5zm12.1-4.1h2.3s-.04 1.33 0 1.3c.5-.8 1.4-1.5 2.9-1.5c2.4 0 3.5 1.7 3.5 4c.02.05 0 5.5 0 5.5h-2.3s.03-5.2 0-5.2c0-1.5-.7-2.3-2-2.3c-1.2 0-1.9.8-2.1 1.7c-.04-.03 0 5.8 0 5.8h-2.3V5.1zm10.2-3.5h2.3v12.8h-2.3V1.6zm3.4 8.2c0-2.9 2-4.9 4.7-4.9c2.7 0 4.5 1.9 4.5 4.6c0 .3-.1.7-.1 1.1h-6.7c.2 1.2 1.1 2.1 2.7 2.1c1.1 0 2-.7 2.6-1.4l1.2 1.5c-.8 1-2.2 1.8-4 1.8c-3 0-4.9-2.1-4.9-4.8zm2.4-1.1h4.5c-.1-1.2-.9-1.9-2.2-1.9c-1.2 0-2 .7-2.3 1.9zm14.7 4.6c-.7.8-1.7 1.3-2.9 1.3c-2.6 0-4.4-1.9-4.4-4.8c0-3 1.8-4.9 4.4-4.9c1.2 0 2.2.5 2.9 1.3c.01.01 0-1.1 0-1.1h2.3v9.3h-2.3s.01-1.06 0-1.1zm0-2.1V8.4c-.4-.9-1.4-1.5-2.4-1.5c-1.5 0-2.6 1.1-2.6 2.9c0 1.8 1.1 2.8 2.6 2.8c1 0 2-.5 2.4-1.4zm3.1 1.6l1.3-1.4c.6.8 1.6 1.4 2.7 1.4c1 0 1.7-.4 1.7-1.1c0-.6-.5-.9-1.4-1l-.8-.1c-1.8-.3-2.8-1.3-2.8-2.8c0-1.6 1.4-2.9 3.7-2.9c1.4 0 2.6.6 3.2 1.4l-1.2 1.5c-.6-.7-1.3-1-2.1-1c-.9 0-1.3.4-1.3.9c0 .5.3.7 1 .8l.8.1c2.2.4 3.2 1.4 3.2 3c0 1.6-1.4 3.1-4 3.1c-1.8 0-3.1-.9-4-1.9zm9.1-11.2h2.2s.05 4.83 0 4.8c.6-.8 1.5-1.5 3-1.5c2.4 0 3.5 1.7 3.5 4v5.5h-2.3s.02-5.2 0-5.2c0-1.5-.7-2.3-2-2.3c-1.3 0-2 .9-2.2 1.7c.05-.03 0 5.8 0 5.8h-2.2V1.6zM234 5.1h2.3v9.3H234V5.1zm0-3.9h2.3v2.4H234V1.2zm3.9 3.9h2.3s.03 1.33 0 1.3c.5-.8 1.5-1.5 3-1.5c2.4 0 3.5 1.7 3.5 4v5.5h-2.3V9.2c0-1.5-.7-2.3-2-2.3c-1.2 0-1.9.8-2.2 1.7c.03-.03 0 5.8 0 5.8h-2.3V5.1zm9.8 4.2c0-2.6 1.6-4.4 4.2-4.4c1.2 0 2.2.5 2.8 1.3c.04.01 0-1.1 0-1.1h2.3s.03 7.72 0 7.7c0 3.4-2.3 4.9-4.8 4.9c-2.3 0-3.6-.8-4.3-1.8l1.4-1.5c.6.8 1.4 1.4 2.8 1.4c1.3 0 2.6-.8 2.6-2.8v-.5c-.6.7-1.6 1.3-2.8 1.3c-2.6 0-4.2-1.8-4.2-4.5zm7 1.2V8.2c-.4-.8-1.2-1.3-2.2-1.3c-1.5 0-2.5 1-2.5 2.4c0 1.5 1 2.5 2.5 2.5c1 0 1.8-.5 2.2-1.3zm7.5-8.3s4.94-.04 4.9 0c3.6 0 6.1 2.1 6.1 6.1c0 3.9-2.5 6.1-6.1 6.1h-4.9V2.2zm2.3 2v8.2s2.52-.03 2.5 0c2.3 0 3.8-1.5 3.8-4.1c0-2.7-1.5-4.1-3.8-4.1c.02-.01-2.5 0-2.5 0zm9.9.9h2.3s.02 1.47 0 1.5c.6-1 1.5-1.7 2.7-1.7h.3s-.05 2.19 0 2.2c-1.4 0-2.5.4-3 1.8c.02-.01 0 5.5 0 5.5h-2.3V5.1zm6 0h2.3v9.3h-2.3V5.1zm0-3.9h2.3v2.4h-2.3V1.2zm2.9 3.9h2.5l2.4 6.5l2.5-6.5h2.4l-3.7 9.3h-2.3l-3.8-9.3zm10.4 0h2.3v9.3h-2.3V5.1zm0-3.9h2.3v2.4h-2.3V1.2zm4 3.9h2.3s-.04 1.33 0 1.3c.5-.8 1.4-1.5 2.9-1.5c2.4 0 3.5 1.7 3.5 4c.02.05 0 5.5 0 5.5h-2.3s.03-5.2 0-5.2c0-1.5-.7-2.3-2-2.3c-1.2 0-1.9.8-2.1 1.7c-.04-.03 0 5.8 0 5.8h-2.3V5.1zm9.7 4.2c0-2.6 1.7-4.4 4.3-4.4c1.1 0 2.1.5 2.8 1.3c-.04.01 0-1.1 0-1.1h2.2s.05 7.72 0 7.7c0 3.4-2.3 4.9-4.8 4.9c-2.3 0-3.6-.8-4.3-1.8l1.4-1.5c.6.8 1.4 1.4 2.8 1.4c1.3 0 2.7-.8 2.7-2.8v-.5c-.7.7-1.7 1.3-2.8 1.3c-2.6 0-4.3-1.8-4.3-4.5zm7.1 1.2V8.2c-.5-.8-1.3-1.3-2.3-1.3c-1.5 0-2.5 1-2.5 2.4c0 1.5 1 2.5 2.5 2.5c1 0 1.8-.5 2.3-1.3zm7.4-8.3h8.6v2h-6.2v3h5.4v2h-5.4v3.1h6.2v2.1h-8.6V2.2zm9.9 2.9h2.3v1.3c.5-.8 1.5-1.5 2.9-1.5c2.4 0 3.6 1.7 3.6 4c-.04.05 0 5.5 0 5.5h-2.3s-.02-5.2 0-5.2c0-1.5-.7-2.3-2.1-2.3c-1.1 0-1.9.8-2.1 1.7v5.8h-2.3V5.1zm11 5.8c-.04-.05 0-3.9 0-3.9h-1.6V5.1h1.6V2.8h2.2v2.3h2.2v1.9H345s.04 3.96 0 4c0 1.2.6 1.6 1.8 1.6c-.05-.04.4 0 .4 0c0 0-.01 1.8 0 1.8c-.3.1-.7.1-1 .1c-2.3 0-3.4-1.1-3.4-3.6zm5.4-9.3h2.3s-.04 4.83 0 4.8c.5-.8 1.5-1.5 2.9-1.5c2.4 0 3.5 1.7 3.5 4c.02.05 0 5.5 0 5.5h-2.3s.04-5.2 0-5.2c0-1.5-.7-2.3-2-2.3c-1.2 0-1.9.9-2.1 1.7c-.04-.03 0 5.8 0 5.8h-2.3V1.6zm18.9 12.8h-2.3v-1.3c-.5.8-1.5 1.5-2.9 1.5c-2.5 0-3.6-1.6-3.6-4c.03-.02 0-5.5 0-5.5h2.3v5.2c0 1.5.7 2.3 2.1 2.3c1.1 0 1.9-.8 2.1-1.6V5.1h2.3v9.3zm.8-1.6l1.2-1.4c.7.8 1.7 1.4 2.8 1.4c1 0 1.7-.4 1.7-1.1c0-.6-.6-.9-1.4-1l-.9-.1c-1.7-.3-2.7-1.3-2.7-2.8c0-1.6 1.3-2.9 3.6-2.9c1.5 0 2.6.6 3.3 1.4l-1.2 1.5c-.6-.7-1.3-1-2.1-1c-.9 0-1.4.4-1.4.9c0 .5.4.7 1.1.8l.8.1c2.1.4 3.2 1.4 3.2 3c0 1.6-1.5 3.1-4.1 3.1c-1.7 0-3.1-.9-3.9-1.9zm9-7.7h2.3v9.3h-2.3V5.1zm0-3.9h2.3v2.4h-2.3V1.2zm10.8 12.1c-.7.8-1.7 1.3-2.9 1.3c-2.6 0-4.5-1.9-4.5-4.8c0-3 1.9-4.9 4.5-4.9c1.2 0 2.2.5 2.9 1.3V5.1h2.3v9.3h-2.3v-1.1zm0-2.1V8.4c-.4-.9-1.4-1.5-2.4-1.5c-1.5 0-2.6 1.1-2.6 2.9c0 1.8 1.1 2.8 2.6 2.8c1 0 2-.5 2.4-1.4zm3.1 1.6l1.3-1.4c.6.8 1.6 1.4 2.7 1.4c1 0 1.7-.4 1.7-1.1c0-.6-.5-.9-1.4-1l-.8-.1c-1.8-.3-2.8-1.3-2.8-2.8c0-1.6 1.4-2.9 3.7-2.9c1.4 0 2.5.6 3.2 1.4l-1.2 1.5c-.6-.7-1.3-1-2.1-1c-.9 0-1.3.4-1.3.9c0 .5.3.7 1 .8l.8.1c2.1.4 3.2 1.4 3.2 3c0 1.6-1.4 3.1-4.1 3.1c-1.7 0-3-.9-3.9-1.9zm21.7-3.6c0-1.5-.6-2.3-2-2.3c-1.1 0-1.8.8-2 1.7c-.04-.03 0 5.8 0 5.8h-2.3s-.03-5.2 0-5.2c0-1.5-.7-2.3-2-2.3c-1.1 0-1.8.8-2.1 1.7c.04-.03 0 5.8 0 5.8h-2.2V5.1h2.2s.04 1.33 0 1.3c.5-.8 1.5-1.5 2.9-1.5c1.5 0 2.5.7 3 1.8c.7-1.1 1.7-1.8 3.3-1.8c2.4 0 3.5 1.7 3.5 4c-.02.05 0 5.5 0 5.5h-2.3V9.2z" stroke="none" fill="#fff"/></g></svg>