<?xml version="1.0" standalone="no"?><!DOCTYPE svg PUBLIC "-//W3C//DTD SVG 1.1//EN" "http://www.w3.org/Graphics/SVG/1.1/DTD/svg11.dtd"><svg xmlns="http://www.w3.org/2000/svg" version="1.1" width="284.2px" height="40.6px" viewBox="0 -1 284.2 40.6" style="top:-1px"><desc>Rear Seats</desc><defs/><g id="Polygon49561"><path d="m111.7 18.1h-2.1v4.1h-1.3v-9.5s3.99-.02 4 0c1.8 0 3.1 1 3.1 2.7c0 1.5-.9 2.4-2.3 2.7c.04-.04 3.3 4.1 3.3 4.1h-1.5l-3.2-4.1zm.5-1.1c1.2 0 1.9-.6 1.9-1.6c0-1-.7-1.6-1.9-1.6c-.04.03-2.6 0-2.6 0v3.2h2.6zm4.8 1.7c0-2.2 1.4-3.7 3.4-3.7c2 0 3.4 1.5 3.4 3.5c0 .2 0 .4-.1.6h-5.5c.2 1.3 1 2.1 2.4 2.1c.9 0 1.8-.5 2.3-1.2l.7.8c-.7.9-1.7 1.6-3.1 1.6c-2.1 0-3.5-1.6-3.5-3.7zm1.3-.6h4.2c-.1-1.2-.9-2-2.1-2c-1.1 0-1.9.8-2.1 2zm12.3 3.1c-.5.7-1.4 1.2-2.4 1.2c-1.9 0-3.4-1.5-3.4-3.7c0-2.2 1.5-3.7 3.4-3.7c1 0 1.9.5 2.4 1.2c.02-.02 0-1 0-1h1.3v7h-1.3s.02-.99 0-1zm0-1.3v-2.4c-.3-.8-1.2-1.3-2.1-1.3c-1.4 0-2.4.9-2.4 2.5c0 1.6 1 2.5 2.4 2.5c.9 0 1.8-.5 2.1-1.3zm3.2-4.7h1.3s-.02 1.19 0 1.2c.4-.8 1.1-1.4 2.2-1.4c-.01.03.1 0 .1 0c0 0 .04 1.25 0 1.3c-1.1 0-1.9.4-2.3 1.5c-.02.03 0 4.4 0 4.4h-1.3v-7zm7.4 5l.9-.9c.6 1 1.5 1.9 3 1.9c1.5 0 2.2-.8 2.2-1.8c0-.8-.6-1.3-1.8-1.5l-.9-.2c-1.6-.2-2.7-1.1-2.7-2.5c0-1.4 1.2-2.7 3.3-2.7c1.4 0 2.6.7 3.2 1.6l-.9.8c-.6-.8-1.4-1.2-2.3-1.2c-1.2 0-1.9.7-1.9 1.4c0 .8.5 1.2 1.5 1.4l.9.1c1.9.3 3 1.2 3 2.8c0 1.7-1.4 3-3.6 3c-2.1 0-3.3-1.2-3.9-2.2zm8.5-1.5c0-2.2 1.5-3.7 3.5-3.7c2 0 3.4 1.5 3.4 3.5c0 .2-.1.4-.1.6H151c.2 1.3 1 2.1 2.4 2.1c.9 0 1.8-.5 2.2-1.2l.8.8c-.7.9-1.8 1.6-3.1 1.6c-2.1 0-3.6-1.6-3.6-3.7zm1.3-.6h4.3c-.1-1.2-1-2-2.1-2c-1.1 0-2 .8-2.2 2zm12.4 3.1c-.5.7-1.4 1.2-2.4 1.2c-2 0-3.4-1.5-3.4-3.7c0-2.2 1.4-3.7 3.4-3.7c1 0 1.9.5 2.4 1.2v-1h1.3v7h-1.3v-1zm0-1.3v-2.4c-.4-.8-1.2-1.3-2.2-1.3c-1.3 0-2.3.9-2.3 2.5c0 1.6 1 2.5 2.3 2.5c1 0 1.8-.5 2.2-1.3zm3.7-.2c-.02.04 0-3.5 0-3.5h-1.2v-1h1.2v-1.8h1.2v1.8h1.8v1h-1.8s.04 3.58 0 3.6c0 1 .5 1.4 1.5 1.4c.04-.02.3 0 .3 0c0 0-.04 1.01 0 1c-.2 0-.4.1-.6.1c-1.6 0-2.4-.8-2.4-2.6zm3.6 1.2l.8-.9c.4.7 1.2 1.2 2.2 1.2c.9 0 1.6-.3 1.6-1.1c0-.5-.5-.8-1.4-1l-.6-.1c-1.3-.2-2.1-.8-2.1-1.9c0-1.1.9-2.1 2.6-2.1c1.1 0 2 .5 2.5 1.2l-.8.8c-.4-.5-1-.8-1.7-.8c-.9 0-1.3.4-1.3.9c0 .4.4.7 1.1.8l.6.1c1.5.2 2.4.9 2.4 2.1c0 1.3-1.1 2.3-3 2.3c-1.3 0-2.3-.7-2.9-1.5z" stroke="none" fill="#fff"/></g></svg>