<?xml version="1.0" standalone="no"?><!DOCTYPE svg PUBLIC "-//W3C//DTD SVG 1.1//EN" "http://www.w3.org/Graphics/SVG/1.1/DTD/svg11.dtd"><svg xmlns="http://www.w3.org/2000/svg" version="1.1" width="284.2px" height="40.6px" viewBox="0 -1 284.2 40.6" style="top:-1px"><desc>Wheel &amp; Tires</desc><defs/><g id="Polygon49201"><path d="m98.6 12.7h1.4l2.2 7.7l2.5-7.7h1.4l2.5 7.7l2.2-7.7h1.3l-2.8 9.5h-1.4l-2.5-7.7l-2.6 7.7h-1.3l-2.9-9.5zm14.7-.4h1.2s.03 3.98 0 4c.4-.6 1.2-1.3 2.3-1.3c1.9 0 2.8 1.2 2.8 3.1c.03.01 0 4.1 0 4.1h-1.2s-.03-3.96 0-4c0-1.3-.7-2-1.9-2c-1.2 0-1.8.9-2 1.4c.03.02 0 4.6 0 4.6h-1.2v-9.9zm7.8 6.4c0-2.2 1.4-3.7 3.4-3.7c2 0 3.4 1.5 3.4 3.5c0 .2 0 .4-.1.6h-5.5c.2 1.3 1 2.1 2.4 2.1c.9 0 1.8-.5 2.3-1.2l.7.8c-.7.9-1.7 1.6-3.1 1.6c-2.1 0-3.5-1.6-3.5-3.7zm1.3-.6h4.2c-.1-1.2-.9-2-2.1-2c-1.1 0-1.9.8-2.1 2zm6.5.6c0-2.2 1.4-3.7 3.5-3.7c2 0 3.3 1.5 3.3 3.5v.6h-5.5c.1 1.3 1 2.1 2.3 2.1c1 0 1.8-.5 2.3-1.2l.8.8c-.7.9-1.8 1.6-3.1 1.6c-2.2 0-3.6-1.6-3.6-3.7zm1.3-.6h4.3c-.1-1.2-1-2-2.1-2c-1.2 0-2 .8-2.2 2zm7-5.8h1.2v9.9h-1.2v-9.9zm5.9 7.3c0-1.5.9-2.3 2.4-2.9c-.4-.5-.7-1.1-.7-1.8c0-1.3 1-2.4 2.6-2.4c1.5 0 2.5 1 2.5 2.3c0 1.3-.9 2-2.3 2.4h-.1l1.8 1.9l1.6-2.1l1 .8l-1.8 2.2l2 2.2h-1.7s-1.13-1.26-1.1-1.3c-.9.9-2 1.5-3.2 1.5c-1.8 0-3-1.2-3-2.8zm5.4.5l-2.2-2.5c-1.2.4-2 .9-2 1.9c0 1 .8 1.7 1.9 1.7c.9 0 1.7-.4 2.3-1.1zm-1.8-3.8l.3-.1c1.1-.3 1.6-.7 1.6-1.4c0-.6-.5-1.2-1.2-1.2c-.9 0-1.4.6-1.4 1.3c0 .5.3.9.7 1.4zm12.1-2.5h-3v-1.1h7.3v1.1h-3v8.4h-1.3v-8.4zm5.4 1.4h1.3v7h-1.3v-7zm0-3.1h1.3v1.5h-1.3v-1.5zm3.2 3.1h1.3s-.02 1.19 0 1.2c.4-.8 1.1-1.4 2.2-1.4c0 .03.1 0 .1 0c0 0 .05 1.25 0 1.3c-1.1 0-1.9.4-2.3 1.5c-.02.03 0 4.4 0 4.4h-1.3v-7zm4.4 3.5c0-2.2 1.4-3.7 3.5-3.7c2 0 3.3 1.5 3.3 3.5v.6h-5.5c.1 1.3 1 2.1 2.3 2.1c1 0 1.8-.5 2.3-1.2l.8.8c-.7.9-1.8 1.6-3.1 1.6c-2.2 0-3.6-1.6-3.6-3.7zm1.3-.6h4.2c0-1.2-.9-2-2-2c-1.2 0-2 .8-2.2 2zm6.3 2.8l.8-.9c.4.7 1.2 1.2 2.1 1.2c1 0 1.7-.3 1.7-1.1c0-.5-.6-.8-1.4-1l-.6-.1c-1.3-.2-2.1-.8-2.1-1.9c0-1.1.9-2.1 2.6-2.1c1.1 0 1.9.5 2.5 1.2l-.8.8c-.5-.5-1-.8-1.7-.8c-.9 0-1.3.4-1.3.9c0 .4.4.7 1 .8l.7.1c1.5.2 2.4.9 2.4 2.1c0 1.3-1.1 2.3-3 2.3c-1.3 0-2.3-.7-2.9-1.5z" stroke="none" fill="#fff"/></g></svg>