<?xml version="1.0" standalone="no"?><!DOCTYPE svg PUBLIC "-//W3C//DTD SVG 1.1//EN" "http://www.w3.org/Graphics/SVG/1.1/DTD/svg11.dtd"><svg xmlns="http://www.w3.org/2000/svg" version="1.1" width="284.2px" height="40.6px" viewBox="0 -1 284.2 40.6" style="top:-1px"><desc>Chassis</desc><defs/><g id="Polygon50785"><path d="m117.8 17.4c0-2.7 2-4.9 4.7-4.9c2 0 3.5 1 4.3 2.5l-1 .7c-.6-1.2-1.7-2-3.2-2c-2.1 0-3.5 1.6-3.5 3.7c0 2.1 1.4 3.8 3.5 3.8c1.5 0 2.6-.8 3.2-2l1 .7c-.8 1.5-2.3 2.5-4.3 2.5c-2.7 0-4.7-2.2-4.7-5zm10.3-5.1h1.3v4c.4-.6 1.1-1.3 2.3-1.3c1.8 0 2.8 1.2 2.8 3.1v4.1h-1.3s.04-3.96 0-4c0-1.3-.6-2-1.8-2c-1.2 0-1.9.9-2 1.4v4.6h-1.3v-9.9zm13.6 8.9c-.5.7-1.4 1.2-2.3 1.2c-2 0-3.5-1.5-3.5-3.7c0-2.2 1.5-3.7 3.5-3.7c.9 0 1.8.5 2.3 1.2c.05-.02 0-1 0-1h1.3v7h-1.3s.05-.99 0-1zm0-1.3v-2.4c-.3-.8-1.1-1.3-2.1-1.3c-1.3 0-2.4.9-2.4 2.5c0 1.6 1.1 2.5 2.4 2.5c1 0 1.8-.5 2.1-1.3zm2.5 1l.9-.9c.4.7 1.2 1.2 2.1 1.2c.9 0 1.6-.3 1.6-1.1c0-.5-.5-.8-1.3-1l-.7-.1c-1.2-.2-2-.8-2-1.9c0-1.1.9-2.1 2.6-2.1c1.1 0 1.9.5 2.4 1.2l-.7.8c-.5-.5-1.1-.8-1.7-.8c-.9 0-1.3.4-1.3.9c0 .4.4.7 1 .8l.6.1c1.6.2 2.4.9 2.4 2.1c0 1.3-1.1 2.3-2.9 2.3c-1.4 0-2.4-.7-3-1.5zm6.6 0l.9-.9c.4.7 1.2 1.2 2.1 1.2c.9 0 1.7-.3 1.7-1.1c0-.5-.6-.8-1.4-1l-.6-.1c-1.3-.2-2.1-.8-2.1-1.9c0-1.1.9-2.1 2.6-2.1c1.1 0 1.9.5 2.4 1.2l-.7.8c-.5-.5-1-.8-1.7-.8c-.9 0-1.3.4-1.3.9c0 .4.4.7 1 .8l.6.1c1.6.2 2.4.9 2.4 2.1c0 1.3-1.1 2.3-2.9 2.3c-1.3 0-2.4-.7-3-1.5zm7.4-5.7h1.2v7h-1.2v-7zm-.1-3.1h1.4v1.5h-1.4v-1.5zm2.5 8.8l.9-.9c.4.7 1.2 1.2 2.1 1.2c.9 0 1.7-.3 1.7-1.1c0-.5-.6-.8-1.4-1l-.6-.1c-1.3-.2-2.1-.8-2.1-1.9c0-1.1.9-2.1 2.6-2.1c1.1 0 1.9.5 2.4 1.2l-.7.8c-.5-.5-1-.8-1.7-.8c-.9 0-1.3.4-1.3.9c0 .4.4.7 1 .8l.6.1c1.6.2 2.4.9 2.4 2.1c0 1.3-1.1 2.3-2.9 2.3c-1.3 0-2.4-.7-3-1.5z" stroke="none" fill="#fff"/></g></svg>