<?xml version="1.0" standalone="no"?><!DOCTYPE svg PUBLIC "-//W3C//DTD SVG 1.1//EN" "http://www.w3.org/Graphics/SVG/1.1/DTD/svg11.dtd"><svg xmlns="http://www.w3.org/2000/svg" version="1.1" width="39.1px" height="20.4px" viewBox="0 -4 39.1 20.4" style="top:-4px"><desc>Home</desc><defs/><g id="Polygon53808"><path d="m2.2 1.6h1.2v3.8h5.1V1.6h1.2v8.8H8.5V6.5H3.4v3.9H2.2V1.6zm9.1 5.6c0-1.9 1.3-3.5 3.3-3.5c2.1 0 3.4 1.6 3.4 3.5c0 1.8-1.3 3.4-3.4 3.4c-2 0-3.3-1.6-3.3-3.4zm5.5 0c0-1.5-.9-2.4-2.2-2.4c-1.2 0-2.1.9-2.1 2.4c0 1.4.9 2.3 2.1 2.3c1.3 0 2.2-.9 2.2-2.3zm11.9-.5c0-1.2-.6-1.9-1.7-1.9c-.9 0-1.6.6-1.8 1.3c.02.05 0 4.3 0 4.3h-1.1s-.05-3.68 0-3.7c0-1.2-.6-1.9-1.7-1.9c-1 0-1.6.6-1.8 1.3c-.04.05 0 4.3 0 4.3h-1.2V3.9h1.2s-.04.98 0 1c.3-.6 1-1.2 2.1-1.2c1.1 0 1.8.5 2.2 1.4c.5-.8 1.3-1.4 2.4-1.4c1.7 0 2.6 1.1 2.6 2.9v3.8h-1.2s.02-3.68 0-3.7zm2.5.5c0-2.1 1.4-3.5 3.2-3.5c1.9 0 3.2 1.4 3.2 3.2c0 .2-.1.5-.1.7h-5.1c.2 1.1.9 1.9 2.2 1.9c.9 0 1.6-.5 2.1-1.1l.7.7c-.6.9-1.6 1.5-2.9 1.5c-2 0-3.3-1.5-3.3-3.4zm1.2-.6h4c-.1-1.1-.9-1.8-2-1.8c-1 0-1.8.6-2 1.8z" stroke="none" fill="#676767"/></g></svg>