<?xml version="1.0" standalone="no"?><!DOCTYPE svg PUBLIC "-//W3C//DTD SVG 1.1//EN" "http://www.w3.org/Graphics/SVG/1.1/DTD/svg11.dtd"><svg xmlns="http://www.w3.org/2000/svg" version="1.1" width="284.2px" height="40.6px" viewBox="0 -1 284.2 40.6" style="top:-1px"><desc>N Line</desc><defs/><g id="Polygon51289"><path d="m122.9 12.7h1.1l5.8 7.3v-7.3h1.3v9.5H130l-5.8-7.4v7.4h-1.3v-9.5zm13.9 0h1.3v8.4h4.9v1.1h-6.2v-9.5zm7.4 2.5h1.3v7h-1.3v-7zm0-3.1h1.3v1.5h-1.3v-1.5zm3.2 3.1h1.3s-.03 1.05 0 1.1c.3-.7 1.1-1.3 2.3-1.3c1.8 0 2.8 1.2 2.8 3.1c-.03.01 0 4.1 0 4.1h-1.3v-4c0-1.3-.7-2-1.9-2c-1 0-1.7.7-1.9 1.4c-.03.02 0 4.6 0 4.6h-1.3v-7zm7.8 3.5c0-2.2 1.4-3.7 3.5-3.7c2 0 3.3 1.5 3.3 3.5v.6h-5.5c.1 1.3 1 2.1 2.3 2.1c1 0 1.8-.5 2.3-1.2l.8.8c-.7.9-1.8 1.6-3.1 1.6c-2.2 0-3.6-1.6-3.6-3.7zm1.3-.6h4.3c-.1-1.2-1-2-2.1-2c-1.2 0-2 .8-2.2 2z" stroke="none" fill="#fff"/></g></svg>