<?xml version="1.0" standalone="no"?><!DOCTYPE svg PUBLIC "-//W3C//DTD SVG 1.1//EN" "http://www.w3.org/Graphics/SVG/1.1/DTD/svg11.dtd"><svg xmlns="http://www.w3.org/2000/svg" version="1.1" width="284.2px" height="40.6px" viewBox="0 -1 284.2 40.6" style="top:-1px"><desc>About Hyundai KONA</desc><defs/><g id="Polygon47905"><path d="m76.1 12.7h1.4l3.9 9.5H80l-.9-2.3h-4.6l-.9 2.3h-1.4l3.9-9.5zm-1.2 6.1h3.7l-1.8-4.7l-1.9 4.7zm8.8 3.4h-1.3v-9.9h1.3s-.02 3.88 0 3.9c.5-.7 1.4-1.2 2.4-1.2c2 0 3.4 1.5 3.4 3.7c0 2.2-1.4 3.7-3.4 3.7c-1 0-1.9-.5-2.4-1.2c-.02.01 0 1 0 1zm4.5-3.5c0-1.6-1-2.5-2.3-2.5c-1 0-1.9.5-2.2 1.3v2.4c.3.8 1.2 1.3 2.2 1.3c1.3 0 2.3-.9 2.3-2.5zm2.4 0c0-2 1.3-3.7 3.6-3.7c2.2 0 3.6 1.7 3.6 3.7c0 2-1.4 3.7-3.6 3.7c-2.3 0-3.6-1.7-3.6-3.7zm5.9 0c0-1.5-1-2.5-2.3-2.5c-1.3 0-2.3 1-2.3 2.5c0 1.5 1 2.5 2.3 2.5c1.3 0 2.3-1 2.3-2.5zm9.1 3.5h-1.3s.02-1.06 0-1.1c-.3.7-1.1 1.3-2.3 1.3c-1.8 0-2.8-1.2-2.8-3.1c.02-.03 0-4.1 0-4.1h1.3s-.02 3.95 0 3.9c0 1.4.7 2.1 1.8 2.1c1.1 0 1.8-.7 2-1.4c.02-.04 0-4.6 0-4.6h1.3v7zm2.4-2.5v-3.5h-1.2v-1h1.2v-1.8h1.3v1.8h1.7v1h-1.7s-.04 3.58 0 3.6c0 1 .4 1.4 1.5 1.4c-.04-.02.2 0 .2 0c0 0-.02 1.01 0 1c-.2 0-.4.1-.6.1c-1.6 0-2.4-.8-2.4-2.6zm7.8-7h1.3v4.1h5.5v-4.1h1.3v9.5h-1.3V18h-5.5v4.2h-1.3v-9.5zm12.4 8.7l-2.9-6.2h1.3l2.2 4.8l2.1-4.8h1.4l-4.3 9.6h-1.3l1.5-3.4zm11.4.8h-1.2s-.03-1.06 0-1.1c-.4.7-1.2 1.3-2.3 1.3c-1.9 0-2.8-1.2-2.8-3.1c-.03-.03 0-4.1 0-4.1h1.2s.03 3.95 0 3.9c0 1.4.7 2.1 1.9 2.1c1 0 1.8-.7 2-1.4c-.03-.04 0-4.6 0-4.6h1.2v7zm2-7h1.2s.02 1.05 0 1.1c.4-.7 1.2-1.3 2.3-1.3c1.8 0 2.8 1.2 2.8 3.1v4.1h-1.2s-.05-3.96 0-4c0-1.3-.7-2-1.9-2c-1.1 0-1.8.7-2 1.4c.02.02 0 4.6 0 4.6h-1.2v-7zm13.6 6c-.6.7-1.4 1.2-2.4 1.2c-2 0-3.5-1.5-3.5-3.7c0-2.2 1.5-3.7 3.5-3.7c1 0 1.8.5 2.4 1.2c-.03-.02 0-3.9 0-3.9h1.2v9.9h-1.2s-.03-.99 0-1zm0-1.3v-2.4c-.4-.8-1.2-1.3-2.2-1.3c-1.3 0-2.4.9-2.4 2.5c0 1.6 1.1 2.5 2.4 2.5c1 0 1.8-.5 2.2-1.3zm8.5 1.3c-.5.7-1.4 1.2-2.3 1.2c-2 0-3.5-1.5-3.5-3.7c0-2.2 1.5-3.7 3.5-3.7c.9 0 1.8.5 2.3 1.2c.05-.02 0-1 0-1h1.3v7h-1.3s.05-.99 0-1zm0-1.3v-2.4c-.3-.8-1.1-1.3-2.1-1.3c-1.3 0-2.4.9-2.4 2.5c0 1.6 1.1 2.5 2.4 2.5c1 0 1.8-.5 2.1-1.3zm3.2-4.7h1.3v7h-1.3v-7zm0-3.1h1.3v1.5h-1.3v-1.5zm6.8.6h1.2v4.9l4.6-4.9h1.6l-3.7 4l3.9 5.5h-1.6l-3.2-4.5l-1.6 1.7v2.8h-1.2v-9.5zm8.2 4.7c0-2.7 2-4.9 4.8-4.9c2.8 0 4.8 2.2 4.8 4.9c0 2.8-2 5-4.8 5c-2.8 0-4.8-2.2-4.8-5zm8.2 0c0-2.1-1.3-3.7-3.4-3.7c-2.1 0-3.5 1.6-3.5 3.7c0 2.1 1.4 3.8 3.5 3.8c2.1 0 3.4-1.7 3.4-3.8zm3.2-4.7h1.1l5.8 7.3v-7.3h1.3v9.5h-1.1l-5.9-7.4v7.4h-1.2v-9.5zm13.4 0h1.4l3.8 9.5h-1.3l-.9-2.3h-4.6l-.9 2.3h-1.4l3.9-9.5zm-1.2 6.1h3.7l-1.8-4.7l-1.9 4.7z" stroke="none" fill="#fff"/></g></svg>