<?xml version="1.0" standalone="no"?><!DOCTYPE svg PUBLIC "-//W3C//DTD SVG 1.1//EN" "http://www.w3.org/Graphics/SVG/1.1/DTD/svg11.dtd"><svg xmlns="http://www.w3.org/2000/svg" version="1.1" width="30px" height="19.2px" viewBox="0 -3 30 19.2" style="top:-3px"><desc>Scroll</desc><defs/><g id="Polygon54378"><path d="m.2 7.8l.8-.7c.5.8 1.3 1.6 2.6 1.6c1.2 0 1.9-.7 1.9-1.5c0-.7-.6-1.1-1.6-1.3l-.8-.1C1.8 5.6.8 4.8.8 3.6c0-1.2 1.1-2.3 2.8-2.3c1.3 0 2.3.5 2.8 1.4l-.8.7c-.5-.7-1.2-1.1-2-1.1c-1 0-1.6.6-1.6 1.2c0 .7.5 1.1 1.3 1.2l.8.1c1.6.3 2.5 1 2.5 2.4c0 1.4-1.2 2.5-3 2.5C1.8 9.7.8 8.8.2 7.8zm7.2-1.2c0-1.7 1.2-3.1 3.1-3.1c1.2 0 2.1.5 2.6 1.5l-.8.5c-.3-.6-1-1.1-1.8-1.1c-1.1 0-2 .9-2 2.2c0 1.3.9 2.1 2 2.1c.8 0 1.5-.4 1.8-1.1l.8.6c-.5 1-1.4 1.5-2.6 1.5c-1.9 0-3.1-1.4-3.1-3.1zm6.8-3h1.1s-.02 1.02 0 1c.3-.6.9-1.1 1.9-1.1c-.03-.04.1 0 .1 0v1c-1 0-1.7.4-2 1.4c-.02-.04 0 3.7 0 3.7h-1.1v-6zm3.6 3c0-1.7 1.2-3.1 3.1-3.1c1.9 0 3.1 1.4 3.1 3.1c0 1.7-1.2 3.1-3.1 3.1c-1.9 0-3.1-1.4-3.1-3.1zm5.1 0c0-1.3-.9-2.2-2-2.2c-1.1 0-2 .9-2 2.2c0 1.3.9 2.2 2 2.2c1.1 0 2-.9 2-2.2zm2.3-5.5h1.1v8.5h-1.1V1.1zm2.6 0h1.1v8.5h-1.1V1.1z" stroke="none" fill="#fff"/></g></svg>