<?xml version="1.0" standalone="no"?><!DOCTYPE svg PUBLIC "-//W3C//DTD SVG 1.1//EN" "http://www.w3.org/Graphics/SVG/1.1/DTD/svg11.dtd"><svg xmlns="http://www.w3.org/2000/svg" version="1.1" width="284.2px" height="40.6px" viewBox="0 -1 284.2 40.6" style="top:-1px"><desc>HVAC System</desc><defs/><g id="Polygon50569"><path d="m98.9 12.7h1.3v4.1h5.5v-4.1h1.3v9.5h-1.3V18h-5.5v4.2h-1.3v-9.5zm9.4 0h1.3l3.2 8l3.1-8h1.4l-3.8 9.5h-1.4l-3.8-9.5zm12.4 0h1.4l3.9 9.5h-1.4l-.9-2.3h-4.6l-.9 2.3h-1.4l3.9-9.5zm-1.1 6.1h3.6l-1.8-4.7l-1.8 4.7zm6.8-1.4c0-2.7 2-4.9 4.8-4.9c1.9 0 3.4 1 4.2 2.5l-1 .7c-.6-1.2-1.7-2-3.2-2c-2.1 0-3.5 1.6-3.5 3.7c0 2.1 1.4 3.8 3.5 3.8c1.5 0 2.6-.8 3.2-2l1 .7c-.8 1.5-2.3 2.5-4.2 2.5c-2.8 0-4.8-2.2-4.8-5zm12.9 2.8l1-.9c.5 1 1.4 1.9 3 1.9c1.4 0 2.2-.8 2.2-1.8c0-.8-.7-1.3-1.9-1.5l-.9-.2c-1.6-.2-2.6-1.1-2.6-2.5c0-1.4 1.2-2.7 3.2-2.7c1.5 0 2.6.7 3.3 1.6l-.9.8c-.6-.8-1.5-1.2-2.4-1.2c-1.2 0-1.9.7-1.9 1.4c0 .8.6 1.2 1.5 1.4l.9.1c1.9.3 3 1.2 3 2.8c0 1.7-1.4 3-3.5 3c-2.1 0-3.3-1.2-4-2.2zm10.9 1.2l-2.9-6.2h1.3l2.2 4.8l2.1-4.8h1.4l-4.3 9.6h-1.3l1.5-3.4zm4.2-.5l.8-.9c.5.7 1.3 1.2 2.2 1.2c.9 0 1.6-.3 1.6-1.1c0-.5-.5-.8-1.4-1l-.6-.1c-1.2-.2-2-.8-2-1.9c0-1.1.9-2.1 2.6-2.1c1 0 1.9.5 2.4 1.2l-.8.8c-.4-.5-1-.8-1.7-.8c-.8 0-1.3.4-1.3.9c0 .4.4.7 1.1.8l.6.1c1.5.2 2.4.9 2.4 2.1c0 1.3-1.1 2.3-2.9 2.3c-1.4 0-2.4-.7-3-1.5zm7.7-1.2v-3.5h-1.2v-1h1.2v-1.8h1.3v1.8h1.7v1h-1.7s-.03 3.58 0 3.6c0 1 .4 1.4 1.5 1.4c-.03-.02.2 0 .2 0v1c-.2 0-.4.1-.6.1c-1.6 0-2.4-.8-2.4-2.6zm3.9-1c0-2.2 1.4-3.7 3.5-3.7c2 0 3.3 1.5 3.3 3.5v.6h-5.5c.1 1.3 1 2.1 2.3 2.1c1 0 1.8-.5 2.3-1.2l.8.8c-.7.9-1.8 1.6-3.1 1.6c-2.2 0-3.6-1.6-3.6-3.7zm1.3-.6h4.2c0-1.2-.9-2-2-2c-1.2 0-2 .8-2.2 2zm17 .1c0-1.3-.6-2-1.8-2c-1.1 0-1.7.7-2 1.4c.05.02 0 4.6 0 4.6h-1.2v-4c0-1.3-.7-2-1.8-2c-1.1 0-1.8.7-2 1.4c.02.02 0 4.6 0 4.6h-1.2v-7h1.2s.02 1.05 0 1.1c.4-.7 1.1-1.3 2.3-1.3c1.2 0 2 .6 2.4 1.5c.5-.9 1.4-1.5 2.6-1.5c1.8 0 2.8 1.2 2.8 3.1c-.03.01 0 4.1 0 4.1h-1.3v-4z" stroke="none" fill="#fff"/></g></svg>