<?xml version="1.0" standalone="no"?><!DOCTYPE svg PUBLIC "-//W3C//DTD SVG 1.1//EN" "http://www.w3.org/Graphics/SVG/1.1/DTD/svg11.dtd"><svg xmlns="http://www.w3.org/2000/svg" version="1.1" width="284.2px" height="40.6px" viewBox="0 -1 284.2 40.6" style="top:-1px"><desc>Rigidity &amp; Safety</desc><defs/><g id="Polygon50857"><path d="m94.1 18.1h-2v4.1h-1.3v-9.5s3.94-.02 3.9 0c1.9 0 3.2 1 3.2 2.7c0 1.5-.9 2.4-2.3 2.7c-.01-.04 3.3 4.1 3.3 4.1h-1.6l-3.2-4.1zm.5-1.1c1.3 0 1.9-.6 1.9-1.6c0-1-.6-1.6-1.9-1.6c.01.03-2.5 0-2.5 0v3.2s2.51-.01 2.5 0zm5.2-1.8h1.3v7h-1.3v-7zm0-3.1h1.3v1.5h-1.3v-1.5zm2.8 6.3c0-2 1.3-3.4 3.3-3.4c1 0 1.8.5 2.3 1.1c-.01.04 0-.9 0-.9h1.2s.05 6.08 0 6.1c0 2.4-1.6 3.6-3.4 3.6c-1.6 0-2.6-.6-3.2-1.5l.8-.8c.5.7 1.3 1.2 2.3 1.2c1.2 0 2.3-.8 2.3-2.4v-.6c-.5.7-1.3 1.1-2.3 1.1c-2 0-3.3-1.4-3.3-3.5zm5.6 1.1v-2.1c-.4-.7-1.1-1.2-2.1-1.2c-1.3 0-2.2.9-2.2 2.2c0 1.4.9 2.3 2.2 2.3c1 0 1.7-.5 2.1-1.2zm3.2-4.3h1.2v7h-1.2v-7zm-.1-3.1h1.4v1.5h-1.4v-1.5zm8.7 9.1c-.6.7-1.4 1.2-2.4 1.2c-2 0-3.5-1.5-3.5-3.7c0-2.2 1.5-3.7 3.5-3.7c1 0 1.8.5 2.4 1.2c-.04-.02 0-3.9 0-3.9h1.2v9.9H120s-.04-.99 0-1zm0-1.3v-2.4c-.4-.8-1.2-1.3-2.2-1.3c-1.3 0-2.4.9-2.4 2.5c0 1.6 1.1 2.5 2.4 2.5c1 0 1.8-.5 2.2-1.3zm3.2-4.7h1.2v7h-1.2v-7zm-.1-3.1h1.4v1.5h-1.4v-1.5zm3.7 7.6c.04.04 0-3.5 0-3.5h-1.2v-1h1.3v-1.8h1.2v1.8h1.7v1h-1.7v3.6c0 1 .5 1.4 1.5 1.4c0-.02.2 0 .2 0c0 0 .02 1.01 0 1c-.1 0-.3.1-.5.1c-1.6 0-2.5-.8-2.5-2.6zm6.5 1.7l-2.9-6.2h1.3l2.2 4.8l2.1-4.8h1.4l-4.3 9.6h-1.3l1.5-3.4zm7.8-1.8c0-1.5 1-2.3 2.5-2.9c-.4-.5-.8-1.1-.8-1.8c0-1.3 1.1-2.4 2.6-2.4c1.5 0 2.5 1 2.5 2.3c0 1.3-.9 2-2.2 2.4h-.1l1.7 1.9L149 17l.9.8l-1.8 2.2l2 2.2h-1.6l-1.2-1.3c-.8.9-1.9 1.5-3.1 1.5c-1.9 0-3.1-1.2-3.1-2.8zm5.5.5l-2.3-2.5c-1.1.4-1.9.9-1.9 1.9c0 1 .8 1.7 1.9 1.7c.9 0 1.6-.4 2.3-1.1zm-1.8-3.8l.3-.1c1.1-.3 1.6-.7 1.6-1.4c0-.6-.5-1.2-1.3-1.2c-.8 0-1.3.6-1.3 1.3c0 .5.3.9.7 1.4zm9.1 3.9l.9-.9c.5 1 1.5 1.9 3 1.9c1.4 0 2.2-.8 2.2-1.8c0-.8-.7-1.3-1.9-1.5l-.9-.2c-1.6-.2-2.6-1.1-2.6-2.5c0-1.4 1.2-2.7 3.3-2.7c1.4 0 2.6.7 3.2 1.6l-.9.8c-.6-.8-1.5-1.2-2.4-1.2c-1.2 0-1.9.7-1.9 1.4c0 .8.6 1.2 1.5 1.4l1 .1c1.8.3 2.9 1.2 2.9 2.8c0 1.7-1.4 3-3.5 3c-2.1 0-3.3-1.2-3.9-2.2zm14.3 1c-.5.7-1.4 1.2-2.4 1.2c-1.9 0-3.4-1.5-3.4-3.7c0-2.2 1.5-3.7 3.4-3.7c1 0 1.9.5 2.4 1.2c.02-.02 0-1 0-1h1.3v7h-1.3s.02-.99 0-1zm0-1.3v-2.4c-.3-.8-1.2-1.3-2.1-1.3c-1.4 0-2.4.9-2.4 2.5c0 1.6 1 2.5 2.4 2.5c.9 0 1.8-.5 2.1-1.3zm3.8-3.7h-1.2v-1h1.2s-.03-.78 0-.8c0-1.3.7-2.2 2.3-2.2h.5c-.04-.01 0 1 0 1c0 0-.25.04-.3 0c-.8 0-1.3.4-1.3 1.2c.03.03 0 .8 0 .8h1.6v1h-1.6v6H172v-6zm3.4 2.5c0-2.2 1.4-3.7 3.4-3.7c2 0 3.4 1.5 3.4 3.5c0 .2 0 .4-.1.6h-5.5c.2 1.3 1 2.1 2.4 2.1c.9 0 1.8-.5 2.3-1.2l.7.8c-.7.9-1.7 1.6-3.1 1.6c-2.1 0-3.5-1.6-3.5-3.7zm1.2-.6h4.3c-.1-1.2-.9-2-2.1-2c-1.1 0-2 .8-2.2 2zm7.4 1.6c-.04.04 0-3.5 0-3.5h-1.3v-1h1.3v-1.8h1.2v1.8h1.7v1h-1.7s.02 3.58 0 3.6c0 1 .5 1.4 1.5 1.4c.01-.02.2 0 .2 0c0 0 .04 1.01 0 1c-.1 0-.3.1-.5.1c-1.6 0-2.4-.8-2.4-2.6zm6.4 1.7l-2.9-6.2h1.3L191 20l2.1-4.8h1.4l-4.3 9.6h-1.3l1.5-3.4z" stroke="none" fill="#fff"/></g></svg>