<?xml version="1.0" standalone="no"?><!DOCTYPE svg PUBLIC "-//W3C//DTD SVG 1.1//EN" "http://www.w3.org/Graphics/SVG/1.1/DTD/svg11.dtd"><svg xmlns="http://www.w3.org/2000/svg" version="1.1" width="284.2px" height="30.7px" viewBox="0 -5 284.2 30.7" style="top:-5px"><desc>Interior</desc><defs/><g id="Polygon51914"><path d="m111.2 2.4h1.8V16h-1.8V2.4zm4.9 3.6h1.8s.04 1.5 0 1.5c.6-.9 1.7-1.7 3.3-1.7c2.6 0 4 1.6 4 4.4c.02-.04 0 5.8 0 5.8h-1.8s.02-5.66 0-5.7c0-1.9-.9-2.9-2.6-2.9c-1.5 0-2.6 1-2.9 2.1c.04-.04 0 6.5 0 6.5h-1.8v-10zm12.5 6.5c-.02-.02 0-5 0-5h-1.8V6h1.8V3.4h1.8v2.6h2.4v1.5h-2.4s-.02 5.04 0 5c0 1.5.6 2 2.1 2c.02.04.3 0 .3 0c0 0 .04 1.52 0 1.5c-.2.1-.5.1-.8.1c-2.2 0-3.4-1.1-3.4-3.6zm5.5-1.5c0-3.1 2.1-5.2 5-5.2c2.9 0 4.8 2.1 4.8 4.9c0 .3-.1.6-.1.9H136c.2 1.8 1.4 3 3.3 3c1.3 0 2.6-.7 3.3-1.7l1.1 1.1c-1 1.3-2.6 2.2-4.5 2.2c-3 0-5.1-2.2-5.1-5.2zm1.9-.9h6.1c-.2-1.7-1.4-2.8-3-2.8c-1.7 0-2.8 1.1-3.1 2.8zm9.9-4.1h1.8s.04 1.7 0 1.7c.6-1.1 1.7-1.9 3.2-1.9c0-.04.2 0 .2 0c0 0 .02 1.7 0 1.7c-1.6 0-2.8.7-3.4 2.3c.04-.04 0 6.2 0 6.2h-1.8v-10zm6.9 0h1.8v10h-1.8v-10zm-.1-4.5h2v2.2h-2V1.5zm4 9.5c0-2.9 2-5.2 5.2-5.2c3.2 0 5.2 2.3 5.2 5.2c0 2.9-2 5.2-5.2 5.2c-3.2 0-5.2-2.3-5.2-5.2zm8.5 0c0-2.2-1.4-3.6-3.3-3.6c-1.9 0-3.3 1.4-3.3 3.6c0 2.2 1.4 3.6 3.3 3.6c1.9 0 3.3-1.4 3.3-3.6zm4-5h1.8v1.7c.6-1.1 1.6-1.9 3.2-1.9c-.04-.04.2 0 .2 0c0 0-.02 1.7 0 1.7c-1.6 0-2.9.7-3.4 2.3v6.2h-1.8v-10z" stroke="none" fill="#fff"/></g></svg>