<?xml version="1.0" standalone="no"?><!DOCTYPE svg PUBLIC "-//W3C//DTD SVG 1.1//EN" "http://www.w3.org/Graphics/SVG/1.1/DTD/svg11.dtd"><svg xmlns="http://www.w3.org/2000/svg" version="1.1" width="109px" height="36px" viewBox="0 -6 109 36" style="top:-6px"><desc>외장_텍스트_공통_exterior</desc><defs/><g id="Polygon54305"><path d="m.7 11c0-4.9 3.5-8.5 8.4-8.5c4.9 0 8.4 3.6 8.4 8.5c0 5-3.5 8.6-8.4 8.6C4.2 19.6.7 16 .7 11zm13 0c0-2.8-1.7-5-4.6-5c-2.8 0-4.5 2.2-4.5 5c0 2.9 1.7 5.1 4.5 5.1c2.9 0 4.6-2.2 4.6-5.1zM18 6.6h4l2.9 8.1l3-8.1h3.9l-5 12.6h-3.7L18 6.6zM31.9 13c0-4 2.8-6.7 6.5-6.7c3.6 0 6 2.5 6 6.1c0 .5-.1 1.2-.1 1.5h-8.8c.3 1.5 1.3 2.5 3.4 2.5c1.5 0 2.6-.8 3.2-1.6l2 2.4c-1.1 1.3-3 2.3-5.4 2.3c-4.2 0-6.8-2.9-6.8-6.5zm3.8-1.7h5.1c-.1-1.3-1-2-2.4-2c-1.4 0-2.3.6-2.7 2zm10.6-4.7h3.7s.02 1.82 0 1.8c.7-1.3 1.9-2.1 3.4-2.1h.4v3.5c-1.7 0-3.2.3-3.8 2.2c.02-.02 0 7.2 0 7.2h-3.7V6.6zm7.7 0h3.9l2.9 8.1l3-8.1h3.9l-5 12.6H59L54 6.6zm15 0h3.6v12.6H69V6.6zm0-5.2h3.6v3.6H69V1.4zM74.6 13c0-4 2.7-6.7 6.4-6.7c3.7 0 6.1 2.5 6.1 6.1c0 .5-.1 1.2-.1 1.5h-8.8c.3 1.5 1.3 2.5 3.4 2.5c1.4 0 2.6-.8 3.2-1.6l2 2.4c-1.2 1.3-3 2.3-5.4 2.3c-4.2 0-6.8-2.9-6.8-6.5zm3.7-1.7h5.2c-.1-1.3-1-2-2.5-2c-1.3 0-2.3.6-2.7 2zm9.2-4.7h3.9l2.2 7.7l2.5-7.7h3.9l2.5 7.7l2.2-7.7h3.9l-4 12.6h-3.7l-2.8-8.1l-2.9 8.1h-3.7l-4-12.6z" stroke="none" fill="#111111"/></g></svg>