<?xml version="1.0" standalone="no"?><!DOCTYPE svg PUBLIC "-//W3C//DTD SVG 1.1//EN" "http://www.w3.org/Graphics/SVG/1.1/DTD/svg11.dtd"><svg xmlns="http://www.w3.org/2000/svg" version="1.1" width="284.2px" height="30.7px" viewBox="0 -5 284.2 30.7" style="top:-5px"><desc>Overview</desc><defs/><g id="Polygon47784"><path d="m99.9 9.2c0-4 2.8-7 6.8-7c3.9 0 6.8 3 6.8 7c0 4-2.9 7-6.8 7c-4 0-6.8-3-6.8-7zm11.7 0c0-3-1.9-5.3-4.9-5.3c-3 0-4.9 2.3-4.9 5.3c0 3 1.9 5.3 4.9 5.3c3 0 4.9-2.3 4.9-5.3zm2.9-3.2h1.9l3.1 7.7l3.2-7.7h1.9l-4.2 10h-1.7l-4.2-10zm10.8 5c0-3.1 2-5.2 4.9-5.2c2.9 0 4.8 2.1 4.8 4.9c0 .3 0 .6-.1.9h-7.8c.2 1.8 1.4 3 3.3 3c1.4 0 2.6-.7 3.3-1.7l1.1 1.1c-1 1.3-2.5 2.2-4.5 2.2c-3 0-5-2.2-5-5.2zm1.8-.9h6.1c-.1-1.7-1.4-2.8-3-2.8c-1.6 0-2.8 1.1-3.1 2.8zm10-4.1h1.8s-.04 1.7 0 1.7c.5-1.1 1.6-1.9 3.1-1.9c.02-.04.2 0 .2 0c0 0 .04 1.7 0 1.7c-1.6 0-2.8.7-3.3 2.3c-.04-.04 0 6.2 0 6.2h-1.8v-10zm5.7 0h1.9l3.1 7.7L151 6h1.9l-4.2 10H147l-4.2-10zm11.7 0h1.8v10h-1.8v-10zm0-4.5h1.9v2.2h-1.9V1.5zm4 9.5c0-3.1 2-5.2 4.9-5.2c2.9 0 4.8 2.1 4.8 4.9v.9h-7.9c.2 1.8 1.4 3 3.4 3c1.3 0 2.5-.7 3.2-1.7L168 14c-1 1.3-2.5 2.2-4.4 2.2c-3.1 0-5.1-2.2-5.1-5.2zm1.8-.9h6.1c-.1-1.7-1.3-2.8-3-2.8c-1.6 0-2.8 1.1-3.1 2.8zM169 6h1.9l2.4 7.6L176 6h1.8l2.8 7.6L183 6h1.9l-3.4 10h-1.7l-2.9-7.8l-2.8 7.8h-1.8L169 6z" stroke="none" fill="#fff"/></g></svg>