<?xml version="1.0" standalone="no"?><!DOCTYPE svg PUBLIC "-//W3C//DTD SVG 1.1//EN" "http://www.w3.org/Graphics/SVG/1.1/DTD/svg11.dtd"><svg xmlns="http://www.w3.org/2000/svg" version="1.1" width="284.2px" height="40.6px" viewBox="0 -1 284.2 40.6" style="top:-1px"><desc>Hyundai SmartSense</desc><defs/><g id="Polygon51001"><path d="m75.2 12.7h1.3v4.1h5.4v-4.1h1.3v9.5h-1.3V18h-5.4v4.2h-1.3v-9.5zm12.3 8.7l-2.9-6.2h1.4l2.2 4.8l2.1-4.8h1.3l-4.2 9.6H86l1.5-3.4zm11.5.8h-1.3s.01-1.06 0-1.1c-.4.7-1.1 1.3-2.3 1.3c-1.8 0-2.8-1.2-2.8-3.1c.02-.03 0-4.1 0-4.1h1.3s-.02 3.95 0 3.9c0 1.4.6 2.1 1.8 2.1c1.1 0 1.8-.7 2-1.4v-4.6h1.3v7zm1.9-7h1.3s-.04 1.05 0 1.1c.3-.7 1.1-1.3 2.3-1.3c1.8 0 2.8 1.2 2.8 3.1c-.04.01 0 4.1 0 4.1H106v-4c0-1.3-.7-2-1.9-2c-1 0-1.7.7-1.9 1.4c-.04.02 0 4.6 0 4.6h-1.3v-7zm13.6 6c-.5.7-1.4 1.2-2.4 1.2c-2 0-3.4-1.5-3.4-3.7c0-2.2 1.4-3.7 3.4-3.7c1 0 1.9.5 2.4 1.2v-3.9h1.3v9.9h-1.3v-1zm0-1.3v-2.4c-.4-.8-1.2-1.3-2.2-1.3c-1.3 0-2.3.9-2.3 2.5c0 1.6 1 2.5 2.3 2.5c1 0 1.8-.5 2.2-1.3zm8.6 1.3c-.6.7-1.4 1.2-2.4 1.2c-2 0-3.4-1.5-3.4-3.7c0-2.2 1.4-3.7 3.4-3.7c1 0 1.8.5 2.4 1.2v-1h1.3v7h-1.3v-1zm0-1.3v-2.4c-.4-.8-1.2-1.3-2.2-1.3c-1.3 0-2.3.9-2.3 2.5c0 1.6 1 2.5 2.3 2.5c1 0 1.8-.5 2.2-1.3zm3.2-4.7h1.2v7h-1.2v-7zm-.1-3.1h1.4v1.5h-1.4v-1.5zm5.9 8.1l.9-.9c.5 1 1.4 1.9 3 1.9c1.4 0 2.2-.8 2.2-1.8c0-.8-.7-1.3-1.9-1.5l-.9-.2c-1.6-.2-2.6-1.1-2.6-2.5c0-1.4 1.2-2.7 3.3-2.7c1.4 0 2.5.7 3.2 1.6l-.9.8c-.6-.8-1.5-1.2-2.4-1.2c-1.2 0-1.9.7-1.9 1.4c0 .8.6 1.2 1.5 1.4l.9.1c1.9.3 3 1.2 3 2.8c0 1.7-1.4 3-3.5 3c-2.1 0-3.3-1.2-3.9-2.2zm19-2c0-1.3-.7-2-1.9-2c-1 0-1.7.7-1.9 1.4v4.6h-1.2s-.05-3.96 0-4c0-1.3-.7-2-1.9-2c-1 0-1.7.7-1.9 1.4v4.6H141v-7h1.3s-.01 1.05 0 1.1c.4-.7 1.1-1.3 2.3-1.3c1.2 0 2 .6 2.4 1.5c.5-.9 1.4-1.5 2.6-1.5c1.8 0 2.7 1.2 2.7 3.1c.04.01 0 4.1 0 4.1h-1.2s-.02-3.96 0-4zm8.5 3c-.6.7-1.4 1.2-2.4 1.2c-2 0-3.4-1.5-3.4-3.7c0-2.2 1.4-3.7 3.4-3.7c1 0 1.8.5 2.4 1.2v-1h1.3v7h-1.3v-1zm0-1.3v-2.4c-.4-.8-1.2-1.3-2.2-1.3c-1.3 0-2.3.9-2.3 2.5c0 1.6 1 2.5 2.3 2.5c1 0 1.8-.5 2.2-1.3zm3.2-4.7h1.2s.04 1.19 0 1.2c.4-.8 1.2-1.4 2.3-1.4c-.05.03.1 0 .1 0v1.3c-1.1 0-2 .4-2.4 1.5c.04.03 0 4.4 0 4.4h-1.2v-7zm5.3 4.5c-.03.04 0-3.5 0-3.5h-1.2v-1h1.2v-1.8h1.2v1.8h1.8v1h-1.8s.03 3.58 0 3.6c0 1 .5 1.4 1.5 1.4c.03-.02.3 0 .3 0c0 0-.04 1.01 0 1c-.2 0-.4.1-.6.1c-1.6 0-2.4-.8-2.4-2.6zm3.6.5l.9-.9c.5 1 1.5 1.9 3 1.9c1.5 0 2.2-.8 2.2-1.8c0-.8-.7-1.3-1.8-1.5l-1-.2c-1.5-.2-2.6-1.1-2.6-2.5c0-1.4 1.2-2.7 3.3-2.7c1.4 0 2.6.7 3.2 1.6l-.9.8c-.6-.8-1.4-1.2-2.3-1.2c-1.2 0-2 .7-2 1.4c0 .8.6 1.2 1.5 1.4l1 .1c1.8.3 2.9 1.2 2.9 2.8c0 1.7-1.3 3-3.5 3c-2.1 0-3.3-1.2-3.9-2.2zm8.5-1.5c0-2.2 1.5-3.7 3.5-3.7c2 0 3.3 1.5 3.3 3.5v.6h-5.5c.2 1.3 1 2.1 2.3 2.1c1 0 1.8-.5 2.3-1.2l.8.8c-.7.9-1.8 1.6-3.1 1.6c-2.2 0-3.6-1.6-3.6-3.7zm1.3-.6h4.3c-.1-1.2-1-2-2.1-2c-1.2 0-2 .8-2.2 2zm7-2.9h1.2s.05 1.05 0 1.1c.4-.7 1.2-1.3 2.4-1.3c1.8 0 2.7 1.2 2.7 3.1c.04.01 0 4.1 0 4.1h-1.2s-.02-3.96 0-4c0-1.3-.7-2-1.9-2c-1 0-1.7.7-2 1.4c.05.02 0 4.6 0 4.6h-1.2v-7zm7.5 5.7l.8-.9c.4.7 1.3 1.2 2.2 1.2c.9 0 1.6-.3 1.6-1.1c0-.5-.5-.8-1.4-1l-.6-.1c-1.2-.2-2.1-.8-2.1-1.9c0-1.1 1-2.1 2.7-2.1c1 0 1.9.5 2.4 1.2l-.8.8c-.4-.5-1-.8-1.7-.8c-.8 0-1.3.4-1.3.9c0 .4.4.7 1.1.8l.6.1c1.5.2 2.4.9 2.4 2.1c0 1.3-1.1 2.3-2.9 2.3c-1.4 0-2.4-.7-3-1.5zm6.9-2.2c0-2.2 1.4-3.7 3.4-3.7c2.1 0 3.4 1.5 3.4 3.5v.6h-5.5c.1 1.3.9 2.1 2.3 2.1c.9 0 1.8-.5 2.3-1.2l.8.8c-.7.9-1.8 1.6-3.2 1.6c-2.1 0-3.5-1.6-3.5-3.7zm1.3-.6h4.2c0-1.2-.9-2-2.1-2c-1.1 0-1.9.8-2.1 2z" stroke="none" fill="#fff"/></g></svg>