<?xml version="1.0" standalone="no"?><!DOCTYPE svg PUBLIC "-//W3C//DTD SVG 1.1//EN" "http://www.w3.org/Graphics/SVG/1.1/DTD/svg11.dtd"><svg xmlns="http://www.w3.org/2000/svg" version="1.1" width="284.2px" height="40.6px" viewBox="0 -1 284.2 40.6" style="top:-1px"><desc>Front Design</desc><defs/><g id="Polygon48697"><path d="m102.6 12.7h6.3v1.1h-5v3.1h4.5v1.1h-4.5v4.2h-1.3v-9.5zm7.4 2.5h1.3v1.2c.4-.8 1.1-1.4 2.2-1.4c.01.03.2 0 .2 0c0 0-.04 1.25 0 1.3c-1.2 0-2 .4-2.4 1.5v4.4H110v-7zm4.4 3.5c0-2 1.4-3.7 3.6-3.7c2.3 0 3.6 1.7 3.6 3.7c0 2-1.3 3.7-3.6 3.7c-2.2 0-3.6-1.7-3.6-3.7zm5.9 0c0-1.5-1-2.5-2.3-2.5c-1.3 0-2.3 1-2.3 2.5c0 1.5 1 2.5 2.3 2.5c1.3 0 2.3-1 2.3-2.5zm2.8-3.5h1.3s-.01 1.05 0 1.1c.4-.7 1.1-1.3 2.3-1.3c1.8 0 2.8 1.2 2.8 3.1c-.02.01 0 4.1 0 4.1h-1.3s.02-3.96 0-4c0-1.3-.6-2-1.8-2c-1.1 0-1.8.7-2 1.4v4.6h-1.3v-7zm8.7 4.5c.04.04 0-3.5 0-3.5h-1.2v-1h1.3v-1.8h1.2v1.8h1.7v1h-1.7v3.6c0 1 .5 1.4 1.5 1.4c-.01-.02.2 0 .2 0c0 0 .02 1.01 0 1c-.1 0-.3.1-.5.1c-1.6 0-2.5-.8-2.5-2.6zm7.9-7s3.62-.02 3.6 0c2.7 0 4.7 1.7 4.7 4.7c0 3.1-2 4.8-4.7 4.8h-3.6v-9.5zm1.3 1.1v7.3s2.23-.05 2.2 0c2.1 0 3.4-1.3 3.4-3.7c0-2.3-1.3-3.6-3.4-3.6c.03.03-2.2 0-2.2 0zm8.1 4.9c0-2.2 1.5-3.7 3.5-3.7c2 0 3.3 1.5 3.3 3.5v.6h-5.5c.2 1.3 1 2.1 2.3 2.1c1 0 1.8-.5 2.3-1.2l.8.8c-.7.9-1.8 1.6-3.1 1.6c-2.2 0-3.6-1.6-3.6-3.7zm1.3-.6h4.3c-.1-1.2-1-2-2.1-2c-1.2 0-2 .8-2.2 2zm6.3 2.8l.8-.9c.4.7 1.2 1.2 2.2 1.2c.9 0 1.6-.3 1.6-1.1c0-.5-.5-.8-1.4-1l-.6-.1c-1.3-.2-2.1-.8-2.1-1.9c0-1.1.9-2.1 2.6-2.1c1.1 0 2 .5 2.5 1.2l-.8.8c-.4-.5-1-.8-1.7-.8c-.9 0-1.3.4-1.3.9c0 .4.4.7 1.1.8l.6.1c1.5.2 2.4.9 2.4 2.1c0 1.3-1.1 2.3-3 2.3c-1.3 0-2.3-.7-2.9-1.5zm7.3-5.7h1.3v7H164v-7zm-.1-3.1h1.4v1.5h-1.4v-1.5zm2.9 6.3c0-2 1.3-3.4 3.2-3.4c1 0 1.8.5 2.3 1.1c.04.04 0-.9 0-.9h1.3v6.1c0 2.4-1.7 3.6-3.5 3.6c-1.5 0-2.6-.6-3.2-1.5l.8-.8c.5.7 1.3 1.2 2.4 1.2c1.2 0 2.2-.8 2.2-2.4v-.6c-.5.7-1.3 1.1-2.3 1.1c-1.9 0-3.2-1.4-3.2-3.5zm5.5 1.1v-2.1c-.3-.7-1.1-1.2-2-1.2c-1.3 0-2.2.9-2.2 2.2c0 1.4.9 2.3 2.2 2.3c.9 0 1.7-.5 2-1.2zm3.2-4.3h1.3s-.01 1.05 0 1.1c.4-.7 1.1-1.3 2.3-1.3c1.8 0 2.8 1.2 2.8 3.1c-.02.01 0 4.1 0 4.1h-1.3s.02-3.96 0-4c0-1.3-.6-2-1.8-2c-1.1 0-1.8.7-2 1.4v4.6h-1.3v-7z" stroke="none" fill="#fff"/></g></svg>