<?xml version="1.0" standalone="no"?><!DOCTYPE svg PUBLIC "-//W3C//DTD SVG 1.1//EN" "http://www.w3.org/Graphics/SVG/1.1/DTD/svg11.dtd"><svg xmlns="http://www.w3.org/2000/svg" version="1.1" width="284.2px" height="40.6px" viewBox="0 -1 284.2 40.6" style="top:-1px"><desc>Other Amenities</desc><defs/><g id="Polygon51721"><path d="m90.7 17.4c0-2.7 2-4.9 4.8-4.9c2.8 0 4.8 2.2 4.8 4.9c0 2.8-2 5-4.8 5c-2.8 0-4.8-2.2-4.8-5zm8.3 0c0-2.1-1.4-3.7-3.5-3.7c-2.1 0-3.4 1.6-3.4 3.7c0 2.1 1.3 3.8 3.4 3.8c2.1 0 3.5-1.7 3.5-3.8zm3.3 2.3c.02.04 0-3.5 0-3.5h-1.2v-1h1.3v-1.8h1.2v1.8h1.7v1h-1.7s-.02 3.58 0 3.6c0 1 .4 1.4 1.5 1.4c-.02-.02.2 0 .2 0v1c-.1 0-.4.1-.6.1c-1.5 0-2.4-.8-2.4-2.6zm4.3-7.4h1.3v4c.4-.6 1.1-1.3 2.3-1.3c1.8 0 2.8 1.2 2.8 3.1v4.1h-1.3s.03-3.96 0-4c0-1.3-.6-2-1.8-2c-1.2 0-1.9.9-2 1.4v4.6h-1.3v-9.9zm7.8 6.4c0-2.2 1.5-3.7 3.5-3.7c2 0 3.4 1.5 3.4 3.5c0 .2-.1.4-.1.6h-5.5c.2 1.3 1 2.1 2.3 2.1c1 0 1.8-.5 2.3-1.2l.8.8c-.7.9-1.8 1.6-3.1 1.6c-2.2 0-3.6-1.6-3.6-3.7zm1.3-.6h4.3c-.1-1.2-1-2-2.1-2c-1.2 0-2 .8-2.2 2zm7-2.9h1.3s-.05 1.19 0 1.2c.3-.8 1.1-1.4 2.2-1.4c-.03.03.1 0 .1 0c0 0 .02 1.25 0 1.3c-1.1 0-2 .4-2.3 1.5c-.05.03 0 4.4 0 4.4h-1.3v-7zm11.1-2.5h1.4l3.9 9.5h-1.4l-.9-2.3h-4.6l-.9 2.3h-1.4l3.9-9.5zm-1.2 6.1h3.7l-1.8-4.7l-1.9 4.7zm17.6-.6c0-1.3-.7-2-1.9-2c-1 0-1.7.7-1.9 1.4v4.6h-1.3s.05-3.96 0-4c0-1.3-.6-2-1.8-2c-1 0-1.7.7-1.9 1.4c-.02.02 0 4.6 0 4.6h-1.3v-7h1.3s-.02 1.05 0 1.1c.3-.7 1.1-1.3 2.3-1.3c1.2 0 2 .6 2.4 1.5c.4-.9 1.4-1.5 2.6-1.5c1.8 0 2.7 1.2 2.7 3.1c.04.01 0 4.1 0 4.1h-1.2s-.02-3.96 0-4zm2.7.5c0-2.2 1.4-3.7 3.4-3.7c2.1 0 3.4 1.5 3.4 3.5c0 .2 0 .4-.1.6h-5.4c.1 1.3.9 2.1 2.3 2.1c.9 0 1.8-.5 2.3-1.2l.7.8c-.7.9-1.7 1.6-3.1 1.6c-2.1 0-3.5-1.6-3.5-3.7zm1.3-.6h4.2c-.1-1.2-.9-2-2.1-2c-1.1 0-1.9.8-2.1 2zm6.9-2.9h1.3v1.1c.4-.7 1.1-1.3 2.3-1.3c1.8 0 2.8 1.2 2.8 3.1v4.1h-1.3s.03-3.96 0-4c0-1.3-.6-2-1.8-2c-1.1 0-1.8.7-2 1.4v4.6h-1.3v-7zm8.3 0h1.2v7h-1.2v-7zm-.1-3.1h1.4v1.5h-1.4v-1.5zm3.7 7.6c.04.04 0-3.5 0-3.5h-1.2v-1h1.3v-1.8h1.2v1.8h1.7v1h-1.7v3.6c0 1 .5 1.4 1.5 1.4c-.01-.02.2 0 .2 0c0 0 .02 1.01 0 1c-.1 0-.3.1-.5.1c-1.6 0-2.5-.8-2.5-2.6zm4.3-4.5h1.3v7h-1.3v-7zm0-3.1h1.4v1.5h-1.4v-1.5zm2.8 6.6c0-2.2 1.4-3.7 3.5-3.7c2 0 3.3 1.5 3.3 3.5v.6h-5.5c.1 1.3 1 2.1 2.3 2.1c1 0 1.8-.5 2.3-1.2l.8.8c-.7.9-1.8 1.6-3.1 1.6c-2.2 0-3.6-1.6-3.6-3.7zm1.3-.6h4.3c-.1-1.2-1-2-2.1-2c-1.2 0-2 .8-2.2 2zm6.3 2.8l.8-.9c.4.7 1.2 1.2 2.2 1.2c.9 0 1.6-.3 1.6-1.1c0-.5-.5-.8-1.4-1l-.6-.1c-1.3-.2-2.1-.8-2.1-1.9c0-1.1.9-2.1 2.6-2.1c1.1 0 2 .5 2.5 1.2l-.8.8c-.5-.5-1-.8-1.7-.8c-.9 0-1.3.4-1.3.9c0 .4.4.7 1.1.8l.6.1c1.5.2 2.4.9 2.4 2.1c0 1.3-1.1 2.3-3 2.3c-1.3 0-2.3-.7-2.9-1.5z" stroke="none" fill="#fff"/></g></svg>