<?xml version="1.0" standalone="no"?><!DOCTYPE svg PUBLIC "-//W3C//DTD SVG 1.1//EN" "http://www.w3.org/Graphics/SVG/1.1/DTD/svg11.dtd"><svg xmlns="http://www.w3.org/2000/svg" version="1.1" width="409.3px" height="26.8px" viewBox="0 -3 409.3 26.8" style="top:-3px"><desc>LA 카운티 미술관 파트너십</desc><defs/><g id="Polygon116475"><path d="m1.6 15V2.4h2v10.9h5.3v1.7H1.6zm16.2 0l-1-3.6h-4.4l-1 3.6h-2l4.1-12.6h2.3L19.9 15h-2.1zm-4.9-5.2h3.4s-.47-1.64-.5-1.6l-.6-2.1l-.6-2.1l-.6 2.1l-.6 2.1l-.5 1.6zM38.7 7v1.4h-2.4v7.9h-1.7V.9h1.7v6.1h2.4zM25.4 2.4s6.98.05 7 0c0 1.2-.1 2.3-.3 3.4c-.2 1-.6 2.1-1.1 3c-.5 1-1.2 1.9-2.1 2.7c-.9.9-2 1.7-3.4 2.4l-1-1.4c1.4-.7 2.5-1.4 3.3-2.2c.8-.8 1.5-1.7 1.9-2.6c.02-.03-4.8.4-4.8.4l-.3-1.5s5.64-.33 5.6-.3c.2-.8.4-1.6.5-2.4c-.05-.02-5.3 0-5.3 0V2.4zM47 7.5c-.9 0-1.6-.1-2.3-.2c-.7-.2-1.2-.4-1.7-.6c-.5-.3-.8-.6-1.1-1c-.3-.4-.4-.8-.4-1.3c0-.5.1-.9.4-1.3c.3-.4.6-.7 1.1-1c.5-.3 1-.5 1.7-.6c.7-.2 1.4-.2 2.3-.2c.8 0 1.5 0 2.2.2c.6.1 1.2.3 1.7.6c.5.3.8.6 1.1 1c.3.4.4.8.4 1.3c0 .5-.1.9-.4 1.3c-.3.4-.6.7-1.1 1c-.5.2-1.1.4-1.7.6c-.7.1-1.4.2-2.2.2zm0-4.8c-1.1 0-2 .1-2.7.4c-.6.3-.9.7-.9 1.3c0 .5.3 1 .9 1.3c.7.3 1.6.4 2.7.4c1 0 1.9-.1 2.6-.4c.6-.3.9-.8.9-1.3c0-.6-.3-1-.9-1.3c-.7-.3-1.6-.4-2.6-.4zm-7 5.9h13.9v1.4H48v2.9h-1.8V10H40V8.6zm3.5 2.8v3.2h8.9v1.4H41.7v-4.6h1.8zM66.5.9h1.7v15.4h-1.7V.9zM58.2 8s.02 3.25 0 3.3c.7 0 1.3-.1 1.8-.1h1.7c.5-.1 1.1-.1 1.6-.2c.5 0 1.1-.1 1.6-.2l.2 1.4l-1.8.3c-.5 0-1.1.1-1.7.1c-.6 0-1.2.1-1.8.1h-2.1c.05-.02-1.2 0-1.2 0V2.2h7.6v1.5h-5.9v2.8h5.3v1.5h-5.3zM85.7.9h1.8v15.4h-1.8V.9zm-10 1.5h7.2v10.1h-7.2V2.4zm5.5 1.4h-3.8v7.3h3.8V3.8zM103.6 5l-.6 1.3c-1.3-.2-2.5-.5-3.4-1c-1-.5-1.7-1.1-2.3-1.9c-.5.8-1.2 1.4-2.2 1.9c-.9.5-2.1.8-3.4 1L91.1 5c.8-.1 1.5-.3 2.2-.5c.6-.2 1.2-.5 1.6-.8c.5-.3.9-.7 1.1-1c.3-.4.4-.9.4-1.3c.04.03 0-.4 0-.4h1.8s.04.43 0 .4c0 .4.2.9.4 1.3c.3.3.7.7 1.1 1c.5.3 1.1.6 1.7.8c.7.2 1.4.4 2.2.5zm.7 3.5h-6.1v1.3h4.3v3.7h-8.7v1.3h9.2v1.3H92.1v-3.8h8.7v-1.1H92V9.8h4.4V8.5h-6V7.1h13.9v1.4zM118 5.8h2.1v1.4H118v5.2h-1.7V.9h1.7v4.9zm-3.9 1.7l-1.7-.2l.3-2.2V3.5h-6V2.1h7.7s.04.86 0 .9v1.9c0 .7-.1 1.6-.3 2.6zm1.2.8l.2 1.2c-.8.2-1.6.3-2.5.4c-.8.1-1.7.1-2.5.2c-.8 0-1.6 0-2.4.1H106c-.02-.02-.2-1.4-.2-1.4c0 0 1.47-.04 1.5 0c.5 0 1-.1 1.6-.1c-.05.02 0-3.1 0-3.1h1.7s-.02 3.07 0 3.1c.8-.1 1.6-.1 2.4-.2c.8 0 1.6-.1 2.3-.2zm-5.4 3.1v3.2h8.6v1.4h-10.4v-4.6h1.8zm29.6-4.5v1.5h-2.4v7.9h-1.7V.9h1.7v6h2.4zm-7.1-3s.03 7.05 0 7c.4 0 .7 0 1.1-.1c.4 0 .7 0 1-.1l.1 1.3c-.8.2-1.6.3-2.4.3c-.8.1-1.6.2-2.4.2c-.9 0-1.6.1-2.4.1h-2.2c.04 0-.1-1.4-.1-1.4h1.8V3.9h-1.5V2.5h8.5v1.4h-1.5zm-3.8 0s.04 7.22 0 7.2h1.1c.3 0 .7 0 1-.1c.03.03 0-7.1 0-7.1h-2.1zM153.2 9v1.4h-10.7V2.2H153v1.4h-8.7v1.9h8.4v1.4h-8.4v2.1h8.9zm-12.4 4h13.9v1.4h-13.9V13zM167.3.9h1.8v15.4h-1.8v-9h-4.4V5.8h4.4V.9zm-8.4 1.7v8.6c1.1 0 2.1-.1 3.1-.2c1.1-.1 2.1-.2 3.2-.4l.2 1.4c-1.2.2-2.4.4-3.5.5c-1.1.1-2.3.1-3.5.1c-.01.03-1.2 0-1.2 0v-10h1.7zM182.8.9h1.8v8.3h-1.8V.9zm-1.6 6.5l-.8 1.4c-.9-.3-1.7-.8-2.3-1.3c-.6-.6-1.1-1.2-1.5-2c-.3.8-.8 1.6-1.5 2.2c-.6.6-1.4 1-2.3 1.3l-.9-1.3c.6-.2 1.1-.5 1.6-.8c.5-.4.9-.8 1.2-1.2c.3-.4.6-.9.8-1.4c.1-.4.2-1 .2-1.5V1.4h1.8v1.4c0 .5.1 1 .3 1.5c.1.4.4.9.7 1.3c.3.4.7.7 1.2 1.1c.4.3.9.5 1.5.7zm1.6 4.2V9.9h1.8v6.2h-10.1V9.9h1.8v1.7h6.5zm0 3.1v-1.8h-6.5v1.8h6.5z" stroke="none" fill="#111111"/></g></svg>