<?xml version="1.0" standalone="no"?><!DOCTYPE svg PUBLIC "-//W3C//DTD SVG 1.1//EN" "http://www.w3.org/Graphics/SVG/1.1/DTD/svg11.dtd"><svg xmlns="http://www.w3.org/2000/svg" version="1.1" width="162px" height="19.6px" viewBox="0 -2 162 19.6" style="top:-2px"><desc>국립현대미술관 파트너십</desc><defs/><g id="Polygon110294"><path d="m10.5 6.1H6.3v1.5h3.1v4H7.8V8.9H1.5V7.6h3.2V6.1H.5V4.8s7.05.02 7 0c.2-.5.2-.9.2-1.3c.1-.5.1-.9.1-1.2c-.01-.02-6 0-6 0V1h7.5s.05.9 0 .9v1.3c0 .5-.1 1-.2 1.6c.03.02 1.4 0 1.4 0v1.3zM19.1.5h1.6v6.2h-1.6V.5zm-.9 4.4l.1 1.3c-.4.1-.8.1-1.2.2c-.4 0-.8 0-1.2.1H13c.03.02-.9 0-.9 0V3.2h3.5v-.9H12V1h5.1v3.3h-3.5s.02.94 0 .9h2.4c.4 0 .8-.1 1.1-.1c.4 0 .7-.1 1.1-.2zm.9 3.2v-.9h1.6v4.3h-7.4V7.2h1.6v.9h4.2zm0 2.1v-.9h-4.2v.9h4.2zm9.5-8.5v1.2h-6.1V1.7h2.3V.5h1.6v1.2h2.2zM30.1 9V6.9h-1.4V5.7h1.4V4.5h-1.4V3.3h1.4V.5h1.6v8.5h-1.6zm-1.9-3.5c0 .3-.1.6-.2.9c-.1.2-.3.5-.5.7c-.3.2-.5.3-.8.4c-.4.1-.7.2-1.1.2c-.4 0-.7-.1-1-.2c-.3-.1-.6-.2-.8-.4c-.3-.2-.5-.5-.6-.7c-.1-.3-.2-.6-.2-.9c0-.3.1-.6.2-.9c.1-.2.3-.5.6-.7c.2-.2.5-.3.8-.4c.3-.1.6-.2 1-.2c.4 0 .7.1 1.1.2c.3.1.5.2.8.4c.2.2.4.5.5.7c.1.3.2.6.2.9zm-3.7 0c0 .3.1.5.3.7c.2.2.5.3.8.3c.3 0 .6-.1.8-.3c.2-.2.3-.4.3-.7c0-.3-.1-.5-.3-.7c-.2-.2-.5-.3-.8-.3c-.3 0-.6.1-.8.3c-.2.2-.3.4-.3.7zm1.5 4.6h6v1.3h-7.6V8.3h1.6v1.8zM41.4.5h1.5v11.1h-1.5V6.1h-1v5H39V.7h1.4v4.1h1V.5zm-6.1 2.6s.03 4.7 0 4.7c.6 0 1.1 0 1.5-.1c.5 0 1-.1 1.6-.2l.1 1.3l-2 .3h-2.7V1.8h4.1v1.3h-2.6zM52 .5h1.6v11.1H52V.5zm-7 1h5.3v7.5H45V1.5zm3.7 1.3h-2.2v4.9h2.2V2.8zm16.2.4l-.5 1.2c-1-.1-1.8-.3-2.5-.6c-.6-.4-1.1-.8-1.5-1.3c-.4.5-.9.9-1.5 1.3c-.7.3-1.5.5-2.5.6l-.5-1.2c.6 0 1.2-.1 1.6-.3c.5-.2.9-.3 1.2-.6c.3-.2.5-.4.7-.7c.1-.3.2-.5.2-.8v-.2h1.6s.02.2 0 .2c0 .3.1.5.3.8c.1.3.3.5.6.7c.3.3.7.4 1.2.6c.4.2 1 .3 1.6.3zm.5 2.9h-4.2v.7h3v2.9h-6.1v.6h6.4v1.2h-7.9V8.6h6v-.6h-6V6.8h3v-.7h-4.2V4.9h10v1.2zm9.8-2.2h1.3v1.3h-1.3v3.6h-1.6V.5h1.6v3.4zm-2.9 1.4l-1.5-.2c0-.5.1-1 .1-1.4c.1-.4.1-.8.1-1.1h-4.1V1.3h5.7s-.05.73 0 .7c0 .4-.1.9-.1 1.4c0 .6-.1 1.2-.2 1.9zm.7.4l.1 1.2c-.5.1-1.1.1-1.7.2c-.6.1-1.2.1-1.8.1c-.6.1-1.1.1-1.7.1h-1.5c-.02.03-.2-1.2-.2-1.2c0 0 1.01-.03 1 0h1.1c-.04-.04 0-2.2 0-2.2h1.5v2.1c.6 0 1.1-.1 1.6-.1c.6 0 1.1-.1 1.6-.2zm-3.6 2.4v2h6.2v1.3h-7.8V8.1h1.6zm20.9-3.4v1.3h-1.6v5.6h-1.6v-11h1.6v4.1h1.6zm-5-1.9s.03 4.8 0 4.8c.2 0 .5 0 .7-.1h.6l.1 1.1l-1.7.3c-.6 0-1.2.1-1.8.1c-.5 0-1.1 0-1.6.1h-1.5c-.04-.03-.2-1.3-.2-1.3h1.2v-5h-.9V1.6h6.1v1.2h-1zm-2.6 0s-.03 4.94 0 4.9h1.1V2.8h-1.1zM100 6.2v1.3h-7.8V1.3h7.7v1.3h-6.1v1.2h5.8v1.2h-5.8v1.2h6.2zM91 9h10v1.3h-10V9zM109.7.5h1.6v11.1h-1.6V5.2h-3V3.9h3V.5zm-5.6 1.2s.04 6 0 6c.7 0 1.4-.1 2.1-.1l2.2-.3l.2 1.3c-.9.2-1.8.3-2.6.3c-.8.1-1.7.1-2.5.1c0 .02-.9 0-.9 0V1.7h1.5zM120.6.5h1.6v6h-1.6v-6zm-.8 4.5l-.8 1.2c-.6-.2-1.2-.4-1.6-.8c-.4-.4-.8-.8-1-1.3c-.3.6-.6 1-1.1 1.4c-.4.4-1 .7-1.6.9l-.8-1.2c.5-.2.9-.3 1.2-.6c.3-.2.6-.5.8-.8c.3-.3.4-.6.5-.9c.1-.3.2-.7.2-1c-.03-.02 0-1 0-1h1.6s-.02.98 0 1c0 .3 0 .6.1 1c.1.3.3.6.5.8c.2.3.5.6.8.8c.3.2.7.4 1.2.5zm.8 3v-1h1.6v4.5h-7.4V7h1.6v1h4.2zm0 2.2v-1h-4.2v1h4.2z" stroke="none" fill="#fff"/></g></svg>