<?xml version="1.0" standalone="no"?><!DOCTYPE svg PUBLIC "-//W3C//DTD SVG 1.1//EN" "http://www.w3.org/Graphics/SVG/1.1/DTD/svg11.dtd"><svg xmlns="http://www.w3.org/2000/svg" version="1.1" width="199.3px" height="23.3px" viewBox="0 -2 199.3 23.3" style="top:-2px"><desc>해양 폐기물 수거량 (단위: 톤)</desc><defs/><g id="Polygon112613"><path d="m7.4.6h1v9.2h-1V5.2h-1v4.1h-1V.7h1v3.7h1V.6zM3.3.8v1.3h1.7v.8H.5v-.8h1.7V.8h1.1zm-.5 2.6c.3 0 .5.1.8.2c.2.1.4.2.6.4c.2.2.3.4.4.7c.1.2.2.5.2.9c0 .3-.1.6-.2.8c-.1.3-.2.5-.4.7c-.2.2-.4.3-.6.4c-.3.1-.5.2-.8.2c-.3 0-.6-.1-.8-.2c-.3-.1-.5-.2-.7-.4c-.2-.2-.3-.4-.4-.7c-.1-.2-.1-.5-.1-.8c0-.4 0-.7.1-.9c.1-.3.2-.5.4-.7c.2-.2.4-.3.7-.4c.2-.1.5-.2.8-.2zm0 3.4c.3 0 .5-.1.7-.3c.2-.2.3-.6.3-.9c0-.4-.1-.7-.3-1c-.2-.2-.4-.3-.7-.3c-.3 0-.6.1-.8.3c-.2.3-.3.6-.3 1c0 .3.1.7.3.9c.2.2.5.3.8.3zm15.4-4.1h-1.3v1.1h1.3v.9h-1.3v1.3h-1.1V.5h1.1v1.3h1.3v.9zm-3.5.6c0 .3 0 .6-.2.9c-.1.2-.3.5-.5.7c-.2.2-.5.3-.8.4c-.3.1-.6.2-.9.2c-.4 0-.7-.1-1-.2c-.3-.1-.6-.2-.8-.4c-.2-.2-.4-.5-.5-.7c-.1-.3-.2-.6-.2-.9c0-.4.1-.6.2-.9c.1-.3.3-.5.5-.7c.2-.2.5-.4.8-.5c.3-.1.6-.1 1-.1c.3 0 .6 0 .9.1c.3.1.6.3.8.5c.2.2.4.4.5.7c.2.3.2.5.2.9zm-3.9 0c0 .4.2.7.4.9c.3.3.7.4 1.1.4c.4 0 .7-.1 1-.4c.3-.2.4-.5.4-.9c0-.4-.1-.8-.4-1c-.3-.2-.6-.3-1-.3c-.4 0-.8.1-1.1.3c-.2.3-.4.6-.4 1zm3.1 2.9c.5 0 .9.1 1.3.1c.4.1.7.2 1 .4c.2.1.4.3.6.6c.1.2.2.4.2.7c0 .3-.1.5-.2.7c-.2.3-.4.4-.6.6c-.3.1-.6.3-1 .3c-.4.1-.8.2-1.3.2c-.4 0-.9-.1-1.3-.2c-.3 0-.7-.2-.9-.3c-.3-.2-.5-.3-.6-.6c-.2-.2-.2-.4-.2-.7c0-.3 0-.5.2-.7c.1-.3.3-.5.6-.6c.2-.2.6-.3.9-.4c.4 0 .9-.1 1.3-.1zm0 2.7c.7 0 1.2-.1 1.5-.2c.4-.2.6-.4.6-.7c0-.3-.2-.5-.6-.7c-.3-.2-.8-.2-1.5-.2c-.6 0-1.1 0-1.5.2c-.3.2-.5.4-.5.7c0 .3.2.5.5.7c.4.1.9.2 1.5.2zm14-8.4h1v9.3h-1V.5zm-1.8 2.6V.8h1v8.5h-1V5.9H25v-.9h1.1v-1H25v-.9h1.1zm-1.5-.6s-.05 4.12 0 4.1h.4c-.02-.02.4-.1.4-.1c0 0 .06.8.1.8c-.4.1-.8.1-1.2.2h-1.2c-.4.1-.7.1-1.1.1h-1c-.02 0-.1-.9-.1-.9h.8V2.5h-.7v-.9h4.2v.9h-.6zm-1.9 0v4.2h.9V2.5h-.9zm14-1.9h1v9.2h-1V.6zm-6 .9s4.33.02 4.3 0c0 .7 0 1.4-.2 2c-.1.6-.4 1.2-.7 1.8c-.4.5-.8 1-1.3 1.5c-.6.5-1.2.9-2 1.3l-.6-.8c1.2-.6 2.1-1.3 2.7-2.1c.6-.8 1-1.8 1-2.8c.05-.02-3.2 0-3.2 0v-.9zM46.6.8v2.9h-6.2V.8h6.2zm-1.1 2.1V1.7h-4.1v1.2h4.1zm2.2 2.3H44v.7h2.6v2.2h-5.2v.8h5.5v.8h-6.6V7.4h5.3v-.7h-5.3v-.8h2.6v-.7h-3.6v-.9h8.4v.9zm10.8-1.3l-.4.9c-.7-.1-1.4-.4-2-.7c-.6-.4-1-.9-1.3-1.4c-.4.6-.8 1-1.4 1.4c-.6.3-1.3.6-2 .7l-.5-.9c.5 0 1-.1 1.3-.3c.4-.2.8-.4 1.1-.6c.3-.2.5-.5.6-.8c.2-.3.3-.6.3-.9v-.5h1.1v.5c0 .3.1.6.2.9c.2.3.4.6.7.8c.3.2.7.4 1.1.6c.4.2.8.3 1.2.3zm.4 1.8v.8h-3.7v3.3h-1V6.5h-3.6v-.8h8.3zM66.3.6h1.1v9.2h-1.1V5h-1.9v-.8h1.9V.6zm-6.2.9s4.29.02 4.3 0c0 .7-.1 1.3-.2 2c-.1.6-.4 1.2-.7 1.7c-.3.6-.7 1.1-1.3 1.6c-.5.5-1.1.9-1.9 1.3l-.6-.8c.6-.3 1.1-.7 1.6-1c.4-.4.8-.7 1.1-1.1c.2-.4.5-.9.6-1.3c.2-.5.3-1 .3-1.5c.02-.02-3.2 0-3.2 0v-.9zm17.3 1.3h-1.3v1h1.3v.9h-1.3v1.4h-1V.5h1v1.4h1.3v.9zm-3.1 1.7l.1.8c-.3.1-.7.2-1 .2c-.3 0-.7.1-1 .1h-2.3c-.05.04-.8 0-.8 0V2.9h3.1v-1h-3.1v-.8h4.2v2.6h-3.2s.04 1.08 0 1.1h1.1c.4 0 .7 0 1-.1c.4 0 .7 0 1-.1c.3 0 .6-.1.9-.1zm-1.1 1.8c.9 0 1.7.2 2.2.5c.6.3.8.7.8 1.2c0 .6-.2 1-.8 1.3c-.5.3-1.3.5-2.2.5c-1 0-1.8-.2-2.3-.5c-.5-.3-.8-.7-.8-1.3c0-.5.3-.9.8-1.2c.5-.3 1.3-.5 2.3-.5zm0 2.7c.6 0 1.1-.1 1.5-.3c.3-.1.5-.3.5-.7c0-.2-.2-.5-.5-.6c-.4-.2-.9-.2-1.5-.2c-.7 0-1.2 0-1.6.2c-.3.1-.5.4-.5.6c0 .4.2.6.5.7c.4.2.9.3 1.6.3zm9.6 1.1l-.7.4c-.5-.8-.9-1.6-1.1-2.5c-.3-.8-.4-1.8-.4-2.8c0-1 .1-1.9.4-2.8c.2-.8.6-1.6 1.1-2.4l.7.3c-.4.8-.8 1.6-1 2.4c-.2.8-.3 1.6-.3 2.5c0 .9.1 1.8.3 2.6c.2.8.6 1.6 1 2.3zm8-6.9h1.3v.8h-1.3v3.2h-1V.5h1v2.7zm-1.9 1.3l.1.8c-.3.1-.6.1-.9.2c-.3 0-.6.1-.9.1h-2.5c.04.04-.7 0-.7 0V1.3h4.1v.9H85s.05 2.57 0 2.6h1.2c.4 0 .7-.1 1-.1c.3 0 .6 0 .9-.1c.2 0 .5-.1.8-.1zm-2.9 2v2.2h5.2v.9H85V6.5h1zM99.4.6h1v9.2h-1V.6zm-3.6 4.2c-.3 0-.7 0-1-.1c-.2-.1-.5-.3-.7-.4c-.2-.2-.4-.4-.5-.6c-.1-.3-.2-.5-.2-.8c0-.3.1-.6.2-.8c.1-.2.3-.4.5-.6c.2-.2.5-.3.7-.4c.3-.1.7-.2 1-.2c.3 0 .7.1 1 .2c.2.1.5.2.7.4c.2.2.4.4.5.6c.1.2.2.5.2.8c0 .3-.1.5-.2.8c-.1.2-.3.4-.5.6c-.2.1-.5.3-.7.4c-.3.1-.7.1-1 .1zm0-3c-.4 0-.7.1-1 .3c-.2.2-.4.5-.4.8c0 .3.2.6.4.8c.3.2.6.2 1 .2c.4 0 .7 0 1-.2c.2-.2.4-.5.4-.8c0-.3-.2-.6-.4-.8c-.3-.2-.6-.3-1-.3zm3 3.4v.7c-.4.1-.8.2-1.2.2c-.4.1-.8.1-1.2.2c-.03-.05 0 3.2 0 3.2h-1.1s.02-3.19 0-3.2h-1.2c-.4.1-.8.1-1.2.1l-.1-.9h1.4c.4 0 .9 0 1.5-.1c.5 0 1 0 1.5-.1c.6 0 1.1-.1 1.6-.1zm4.6-2.3v1.3h-1.2V2.9h1.2zm0 4.2v1.3h-1.2V7.1h1.2zm7.8-1.4h3.6v.8h-8.3v-.8h3.6v-.8h-2.5v-4h6.3v.8h-5.3v.8h5v.8h-5v.8h5.3v.8h-2.7v.8zm-2.6 1.4v1.6h5.4v.9h-6.4V7.1h1zm7.8 3.4l-.8-.4c.5-.7.8-1.5 1-2.3c.2-.8.3-1.7.3-2.6c0-.9-.1-1.7-.3-2.5c-.2-.8-.5-1.6-1-2.4l.8-.3c.5.8.8 1.6 1.1 2.4c.3.9.4 1.8.4 2.8c0 1-.1 2-.4 2.8c-.3.9-.6 1.7-1.1 2.5z" stroke="none" fill="#949596"/></g></svg>