<?xml version="1.0" standalone="no"?><!DOCTYPE svg PUBLIC "-//W3C//DTD SVG 1.1//EN" "http://www.w3.org/Graphics/SVG/1.1/DTD/svg11.dtd"><svg xmlns="http://www.w3.org/2000/svg" version="1.1" width="409.3px" height="26.8px" viewBox="0 -3 409.3 26.8" style="top:-3px"><desc>미래자동차학교</desc><defs/><g id="Polygon122272"><path d="m11.7.9h1.8v15.4h-1.8V.9zm-10 1.5h7.2v10.1H1.7V2.4zm5.5 1.4H3.4v7.3h3.8V3.8zM27.8.9h1.7v15.4h-1.7v-8H26v7.2h-1.6V1.2h1.6v5.7h1.8v-6zm-9.2 7.2s-.02 3.17 0 3.2c.8 0 1.6-.1 2.4-.1c.7-.1 1.5-.2 2.4-.3l.2 1.4c-1.1.2-2 .3-2.9.3c-.9.1-1.8.1-2.8.1c.03.02-1 0-1 0v-6h4V3.9h-4V2.5h5.7v5.6h-4zM46.3 7v1.4h-2.4v7.9h-1.8V.9h1.8v6.1h2.4zm-9-3.1s.05 1.47 0 1.5c0 .6.1 1.2.3 1.8c.2.6.5 1.2.8 1.8c.3.5.7 1 1.2 1.5c.5.4 1 .8 1.6 1.1l-1 1.4c-.8-.5-1.6-1-2.2-1.8c-.7-.8-1.1-1.7-1.5-2.7c-.3 1.1-.8 2-1.5 2.9c-.6.9-1.4 1.5-2.3 1.9l-1-1.3c.6-.3 1.1-.7 1.6-1.2c.5-.5.9-1 1.2-1.6c.4-.6.6-1.2.8-1.9c.2-.6.3-1.3.3-1.9V3.9h-3.4V2.4h8.4v1.5h-3.3zm18.1 4.4h6v1.5H47.5V8.3h6.1V6.8h-4.3V1.6h10.4v1.4H51v2.4h8.8v1.4h-4.4v1.5zm-1 2.4c1.7 0 3 .2 3.9.7c1 .5 1.4 1.2 1.4 2.1c0 .9-.4 1.6-1.3 2.1c-1 .4-2.3.7-4 .7c-.8 0-1.5-.1-2.2-.2c-.6-.1-1.2-.3-1.6-.5c-.5-.3-.8-.6-1.1-.9c-.2-.4-.4-.8-.4-1.2c0-.5.2-.9.4-1.2c.3-.3.6-.6 1.1-.9c.4-.2 1-.4 1.6-.5c.7-.1 1.4-.2 2.2-.2zm0 4.2c1.2 0 2-.1 2.6-.3c.6-.3 1-.6 1-1.1c0-.5-.4-.9-1-1.1c-.6-.2-1.4-.4-2.6-.4c-1.1 0-2 .2-2.6.4c-.6.2-.9.6-.9 1.1c0 .5.3.8.9 1.1c.6.2 1.5.3 2.6.3zm23-7.8v1.4H75v7.8h-1.8V.9h1.8v6.2h2.4zm-9-2.2s-.01.9 0 .9c0 .6.1 1.2.2 1.8c.2.6.4 1.1.8 1.6c.3.6.6 1 1.1 1.5c.4.4.9.8 1.5 1l-1 1.4c-.8-.4-1.5-1-2.1-1.7c-.6-.8-1-1.6-1.4-2.5c-.3 1-.8 1.9-1.4 2.7c-.6.8-1.4 1.4-2.3 1.8l-.9-1.4c.6-.3 1.1-.6 1.5-1.1c.5-.4.9-.9 1.2-1.5c.4-.5.6-1.1.8-1.7c.2-.7.2-1.3.2-1.9c.04 0 0-.9 0-.9h-3.3V3.5h3.3V1.2h1.8v2.3h3.2v1.4h-3.2zm19.3-2.5v1.4h-9V2.4h3.6V.8h1.8v1.6h3.6zM92.8 5v1.5h-2.2v4h-1.7V.9h1.7v4.1h2.2zm-5.9 2.3c0 .4-.1.8-.3 1.1c-.1.4-.4.6-.7.9l-1.2.6c-.5.1-1 .2-1.5.2c-.6 0-1.1-.1-1.5-.2c-.5-.2-.9-.4-1.2-.6c-.3-.3-.6-.5-.8-.9c-.2-.3-.2-.7-.2-1.1c0-.4 0-.8.2-1.2c.2-.3.5-.6.8-.9c.3-.2.7-.4 1.2-.5c.4-.2.9-.2 1.5-.2c.5 0 1 0 1.5.2c.4.1.8.3 1.2.5c.3.3.6.6.7.9c.2.4.3.8.3 1.2zm-5.8 0c0 .4.2.8.6 1c.4.3.9.4 1.5.4c.6 0 1.1-.1 1.5-.4c.3-.2.5-.6.5-1c0-.5-.2-.9-.5-1.1c-.4-.3-.9-.4-1.5-.4c-.6 0-1.1.1-1.5.4c-.4.2-.6.6-.6 1.1zm-.6 5.4v-1.4h10.1v5h-1.7v-3.6h-8.4zM104.9 4c-.03-.04 0-.2 0-.2h-9.3V2.3h11s.02 1.66 0 1.7v3c-.1.6-.1 1.2-.2 1.8l-.3 2.1l-1.8-.2c.3-1.4.5-2.6.5-3.7c0-1.1.1-2.1.1-3zm-2 8.8h5.2v1.5H94.2v-1.5h3.2V7.9h1.7v4.9h2.1V7.9h1.7v4.9z" stroke="none" fill="#111111"/></g></svg>