<?xml version="1.0" standalone="no"?><!DOCTYPE svg PUBLIC "-//W3C//DTD SVG 1.1//EN" "http://www.w3.org/Graphics/SVG/1.1/DTD/svg11.dtd"><svg xmlns="http://www.w3.org/2000/svg" version="1.1" width="390px" height="72.3px" viewBox="0 -2 390 72.3" style="top:-2px"><desc>1998년부터 24년 넘게 진행해온 소아암 연구 지원 캠페인이다. 현대자동차 미국판매 법인(HMA)이 현대자동차 딜러와 함께 참여하고 있다. 2021년에는 총 1,300만 달러를 기부해 2021년 말 기준 누적...</desc><defs/><g id="Polygon117898"><path d="m1.3 60.1l-.3-.7c.5 0 .9-.1 1.2-.2c.4-.1.7-.2 1-.4c.3-.1.6-.3.7-.5c.2-.2.3-.4.3-.7H1.4v-.7h2.9v-.9h.8v.9h2.9v.7H5.1c.1.3.1.5.3.7c.2.2.4.4.7.5c.3.2.6.3 1 .4c.4.1.8.2 1.2.2l-.2.7c-.4 0-.8-.1-1.1-.2c-.4-.1-.7-.2-1-.3c-.3-.2-.5-.3-.8-.5c-.2-.2-.4-.4-.5-.6c-.2.2-.3.4-.6.6c-.2.2-.5.3-.8.5l-.9.3c-.4.1-.7.2-1.1.2zm3.8.7h3.7v.7H.5v-.7h3.8v-1.1h.8v1.1zm-.4 1.3c1 0 1.8.2 2.3.4c.5.3.8.7.8 1.2c0 .5-.3.8-.8 1.1c-.5.3-1.3.4-2.3.4c-1 0-1.8-.1-2.4-.4c-.5-.3-.8-.6-.8-1.1c0-.5.3-.9.8-1.2c.6-.2 1.4-.4 2.4-.4zm0 2.4c.7 0 1.3 0 1.7-.2c.4-.1.6-.4.6-.6c0-.3-.2-.5-.6-.7c-.4-.2-1-.2-1.7-.2c-.8 0-1.3 0-1.7.2c-.4.2-.6.4-.6.7c0 .2.2.5.6.6c.4.2.9.2 1.7.2zm10.5-.8h1.4v.7h-4v-.7h1.6s.05-5.55 0-5.5c0-.1.1-.1.1-.2l-1.4 1.3l-.5-.6l2-1.8h.8v6.8zm9.2-7.6h.8v5.3h-.8v-2.3s-1.9-.02-1.9 0c0 .3-.1.5-.3.7c-.1.3-.2.5-.5.6c-.2.2-.4.3-.7.4c-.2.1-.5.2-.8.2c-.4 0-.7-.1-1-.2c-.3-.1-.5-.3-.7-.5c-.2-.2-.4-.4-.5-.7c-.1-.2-.2-.5-.2-.9c0-.3.1-.6.2-.8c.1-.3.3-.5.5-.7c.2-.2.4-.4.7-.5c.3-.1.6-.1 1-.1c.3 0 .6 0 .8.1c.3.1.5.2.7.4c.2.1.4.3.5.5c.2.3.3.5.3.8h1.9v-2.3zm-4.2 4.1c.2 0 .4 0 .6-.1c.2 0 .4-.1.5-.3c.1-.1.2-.3.3-.5c.1-.1.1-.3.1-.6c0-.2 0-.4-.1-.6c-.1-.1-.2-.3-.3-.4c-.1-.1-.3-.2-.5-.3c-.2-.1-.4-.1-.6-.1c-.2 0-.5 0-.6.1c-.2.1-.4.2-.5.3c-.2.1-.3.3-.4.4c0 .2-.1.4-.1.6c0 .3.1.5.1.6c.1.2.2.4.4.5c.1.2.3.3.5.3c.1.1.4.1.6.1zm-1.1 2.4v-.7h6.1v3.3h-.8v-2.6h-5.3zm14.7-3.8c0 .9-.5 1.4-1.3 1.7c.5.2.9.4 1.1.7c.3.3.4.7.4 1.2c0 .4-.1.7-.2.9c-.1.3-.3.5-.5.7c-.2.2-.5.4-.8.5c-.3.1-.7.1-1.1.1c-.3 0-.7 0-1-.1c-.3-.1-.6-.3-.8-.5c-.3-.2-.4-.4-.6-.7c-.1-.2-.2-.5-.2-.9c0-.5.2-.9.4-1.2c.3-.3.7-.5 1.1-.7c-.4-.1-.7-.3-.9-.6c-.2-.3-.3-.7-.3-1.1c0-.3.1-.6.2-.8c.1-.2.2-.4.4-.6c.2-.2.5-.4.8-.5c.3-.1.6-.1.9-.1c.4 0 .7 0 1 .1c.3.1.5.3.7.5c.2.2.4.4.5.6c.1.2.2.5.2.8zm-2.4-1.3c-.4 0-.8.1-1 .4c-.2.2-.4.6-.4.9c0 .2.1.4.1.5c.1.2.1.3.3.5c.1.1.2.2.4.3c.2 0 .4.1.6.1c.3 0 .5-.1.7-.1c.1-.1.3-.2.4-.3c.1-.2.2-.3.2-.5c.1-.1.1-.3.1-.5c0-.3-.1-.7-.3-.9c-.3-.3-.6-.4-1.1-.4zm0 6.3c.5 0 .9-.1 1.2-.3c.3-.3.4-.7.4-1.1c0-.2 0-.5-.1-.7c-.1-.1-.2-.3-.4-.4c-.1-.1-.3-.2-.5-.3c-.2 0-.4-.1-.6-.1c-.2 0-.4.1-.6.1c-.2.1-.3.2-.5.3c-.1.1-.3.3-.3.4c-.1.2-.2.5-.2.7c0 .4.2.8.5 1.1c.2.2.6.3 1.1.3zm3.1 1.4l.3-2.1h1l-.7 2.1h-.6zm3.8-7.4s-.36 1.94-.4 1.9c.4 0 .7-.1 1.1-.1c.4 0 .8.1 1.1.2c.3.1.5.3.7.5c.2.2.4.4.5.7c.1.3.1.6.1.9c0 .4 0 .8-.2 1.1c-.1.3-.3.6-.5.8c-.3.2-.6.4-.9.5c-.3.2-.7.2-1.1.2c-.4 0-.8-.1-1.2-.2c-.4-.2-.7-.4-.9-.6l.5-.7c.2.2.5.4.8.5c.3.1.6.2.9.2c.2 0 .5 0 .7-.1c.2-.1.4-.2.5-.4c.2-.1.3-.3.4-.5c.1-.2.1-.5.1-.8c0-.4-.1-.8-.4-1.1c-.3-.3-.7-.4-1.3-.4c-.2 0-.4 0-.6.1c-.2 0-.4.1-.6.1c.02.04-.6-.1-.6-.1l.6-3.6h3.6v.9h-2.9zm9.4 2.9c0 .7-.1 1.2-.2 1.7c-.2.5-.4.9-.6 1.2c-.3.4-.6.6-.9.7c-.3.2-.7.3-1.1.3c-.4 0-.7-.1-1.1-.3c-.3-.1-.6-.3-.8-.7c-.3-.3-.5-.7-.6-1.2c-.1-.5-.2-1-.2-1.7c0-.7.1-1.2.2-1.7c.1-.5.3-.9.6-1.2c.2-.3.5-.6.8-.7c.4-.2.7-.3 1.1-.3c.4 0 .8.1 1.1.3c.3.1.6.4.9.7c.2.3.4.7.6 1.2c.1.5.2 1 .2 1.7zm-1 0c0-.6 0-1.1-.1-1.5c-.1-.4-.2-.7-.4-.9c-.2-.3-.4-.4-.6-.5c-.2-.1-.4-.2-.7-.2c-.2 0-.4.1-.7.2c-.2.1-.4.2-.5.5c-.2.2-.3.5-.4.9c-.1.4-.2.9-.2 1.5c0 .6.1 1.1.2 1.5c.1.4.2.7.4.9c.1.3.3.5.5.6c.3.1.5.1.7.1c.3 0 .5 0 .7-.1c.2-.1.4-.3.6-.6c.2-.2.3-.5.4-.9c.1-.4.1-.9.1-1.5zm6.8 0c0 .7 0 1.2-.2 1.7c-.1.5-.3.9-.5 1.2c-.3.4-.6.6-.9.7c-.3.2-.7.3-1.1.3c-.4 0-.7-.1-1.1-.3c-.3-.1-.6-.3-.8-.7c-.3-.3-.5-.7-.6-1.2c-.2-.5-.2-1-.2-1.7c0-.7 0-1.2.2-1.7c.1-.5.3-.9.6-1.2c.2-.3.5-.6.8-.7c.4-.2.7-.3 1.1-.3c.4 0 .8.1 1.1.3c.3.1.6.4.9.7c.2.3.4.7.5 1.2c.2.5.2 1 .2 1.7zm-.9 0c0-.6 0-1.1-.1-1.5c-.1-.4-.3-.7-.4-.9c-.2-.3-.4-.4-.6-.5c-.2-.1-.5-.2-.7-.2c-.2 0-.5.1-.7.2c-.2.1-.4.2-.5.5c-.2.2-.3.5-.4.9c-.1.4-.2.9-.2 1.5c0 .6.1 1.1.2 1.5c.1.4.2.7.4.9c.1.3.3.5.5.6c.2.1.5.1.7.1c.2 0 .5 0 .7-.1c.2-.1.4-.3.6-.6c.1-.2.3-.5.4-.9c.1-.4.1-.9.1-1.5zm8.7-1.9h1.3v.7h-1.3v3.2h-.9V56h.9v2.8zm-2.6-1.9v4.2h-4.2v-4.2h4.2zm-.8 3.5v-2.9h-2.5v2.9h2.5zm-1.5 1.7v2.2h5.3v.7h-6.1v-2.9h.8zM72.5 58h1.4v.7h-1.4v1.9h-.8V56h.8v2zm-1.8 1.3l.1.7c-.3 0-.6.1-.9.1c-.3.1-.7.1-1 .1c-.3.1-.7.1-1.1.1h-2v-3.7h4.1v.6h-3.2s-.04 2.43 0 2.4h2.2c.3-.1.6-.1.9-.1c.3-.1.6-.1.9-.2zm-3.1 4.1v1h5.3v.7h-6.2v-2.4h5v-.9h-5v-.7h5.8v2.3h-4.9zM81.3 56h.8v9.2h-.8v-5h-1.8v-.6h1.8V56zm-5.5 4.1s-.04 2.2 0 2.2h1.1c.3 0 .6 0 1-.1h.9c.3-.1.6-.1 1-.2v.7c-.3.1-.6.1-1 .1c-.3.1-.6.1-1 .1c-.3.1-.6.1-1 .1h-1.9v-3.6h3.3v-1.8h-3.3v-.7h4.1v3.2h-3.2zm10.5 5.5l-.6.3c-.5-.8-.9-1.6-1.1-2.4c-.3-.8-.4-1.8-.4-2.8c0-1 .1-1.9.4-2.8c.2-.8.6-1.6 1.1-2.4l.6.3c-.5.7-.8 1.5-1 2.3c-.2.9-.3 1.7-.3 2.6c0 .9.1 1.8.3 2.6c.2.8.5 1.6 1 2.3zm9.2-7.5h-1.4v1.3h1.4v.7h-1.4v1.4h-.8v-5.4h.8v1.3h1.4v.7zm-3.5.7c0 .3-.1.6-.2.8c-.1.3-.3.5-.5.7c-.2.2-.5.4-.8.5c-.2.1-.6.1-.9.1c-.4 0-.7 0-1-.1c-.3-.1-.5-.3-.7-.5c-.2-.2-.4-.4-.5-.7c-.1-.2-.2-.5-.2-.8c0-.4.1-.7.2-.9c.1-.3.3-.5.5-.7c.2-.2.4-.3.7-.5c.3-.1.6-.1 1-.1c.3 0 .7 0 .9.1c.3.2.6.3.8.5c.2.2.4.4.5.7c.1.2.2.5.2.9zm-4 0c0 .2.1.4.1.5c.1.2.2.4.4.5c.1.1.3.2.5.3c.1.1.4.1.6.1c.2 0 .4 0 .6-.1c.2-.1.4-.2.5-.3c.2-.1.3-.3.3-.5c.1-.1.2-.3.2-.5c0-.3-.1-.5-.2-.6c0-.2-.1-.4-.3-.5c-.1-.1-.3-.2-.5-.3c-.2-.1-.4-.1-.6-.1c-.2 0-.5 0-.6.1c-.2.1-.4.2-.5.3c-.2.1-.3.3-.4.5c0 .1-.1.3-.1.6zm.2 3.8v-.7h5.9v3.3h-.8v-2.6h-5.1zm12.2 1h2.9v.8h-5v-.6s2.57-2.5 2.6-2.5c.2-.2.3-.4.5-.6c.2-.2.3-.4.4-.6c.2-.1.3-.3.3-.5c.1-.2.1-.4.1-.7c0-.4-.1-.7-.4-.9c-.2-.3-.6-.4-1-.4c-.2 0-.4.1-.5.1c-.2.1-.4.2-.5.3c-.2.2-.3.3-.3.5c-.1.2-.1.4-.1.6l-1-.2l.3-.9c.2-.2.3-.4.6-.6c.2-.2.4-.3.7-.4c.3-.1.6-.2.9-.2c.3 0 .6.1.9.2c.3.1.5.2.7.4c.2.2.4.4.5.6c.1.3.2.6.2.9c0 .3-.1.6-.2.8c0 .2-.2.5-.3.7c-.1.2-.3.4-.5.6c-.2.2-.4.5-.6.7l-2.1 2c.2 0 .3 0 .4-.1h.5zm3.4 1.6l.4-2.1h.9l-.6 2.1h-.7zm7.3-4.5c0 .7 0 1.2-.2 1.7c-.1.5-.3.9-.5 1.2c-.3.4-.6.6-.9.7c-.3.2-.7.3-1.1.3c-.4 0-.7-.1-1.1-.3c-.3-.1-.6-.3-.8-.7c-.3-.3-.5-.7-.6-1.2c-.2-.5-.2-1-.2-1.7c0-.7 0-1.2.2-1.7c.1-.5.3-.9.6-1.2c.2-.3.5-.6.8-.7c.4-.2.7-.3 1.1-.3c.4 0 .8.1 1.1.3c.3.1.6.4.9.7c.2.3.4.7.5 1.2c.2.5.2 1 .2 1.7zm-.9 0c0-.6 0-1.1-.1-1.5c-.1-.4-.3-.7-.4-.9c-.2-.3-.4-.4-.6-.5c-.2-.1-.5-.2-.7-.2c-.2 0-.5.1-.7.2c-.2.1-.4.2-.5.5c-.2.2-.3.5-.4.9c-.1.4-.2.9-.2 1.5c0 .6.1 1.1.2 1.5c.1.4.2.7.4.9c.1.3.3.5.5.6c.2.1.5.1.7.1c.2 0 .5 0 .7-.1c.2-.1.4-.3.6-.6c.1-.2.3-.5.4-.9c.1-.4.1-.9.1-1.5zm2.7-1.6l-1-.1c.1-.4.2-.7.3-.9c.2-.3.4-.5.6-.7c.2-.2.4-.3.7-.4c.3-.1.6-.2.9-.2c.3 0 .6.1.9.2c.3.1.5.2.7.4c.2.1.3.4.5.6c.1.2.1.5.1.8c0 .5-.1.8-.3 1.1c-.3.3-.6.5-1 .6c1 .3 1.5.9 1.5 1.8c0 .4-.1.7-.2 1c-.1.2-.3.5-.6.7c-.2.2-.4.3-.8.4c-.3.1-.6.2-.9.2c-.4 0-.8-.1-1.1-.2c-.2-.1-.5-.2-.7-.4c-.2-.2-.3-.4-.5-.6c-.1-.3-.2-.5-.3-.8l.8-.3c.1.1.1.2.2.4c.2.3.4.6.6.8c.2.2.6.3.9.3c.3 0 .5-.1.7-.2c.2-.1.4-.2.5-.3c.2-.1.3-.3.3-.5c.1-.1.1-.3.1-.5v-.5c-.1-.2-.2-.3-.3-.5c-.2-.1-.4-.2-.6-.2c-.3-.1-.6-.2-1-.2v-.6c.3 0 .6-.1.8-.1c.3-.1.4-.2.6-.3c.1-.1.2-.3.3-.4c.1-.2.1-.4.1-.6c0-.4-.1-.7-.4-.9c-.2-.2-.6-.3-.9-.3c-.3 0-.5 0-.6.1c-.2 0-.4.1-.5.3c-.1.1-.2.3-.3.4c-.1.2-.1.4-.1.6zm6.5-1.3s-.36 1.94-.4 1.9c.4 0 .7-.1 1.1-.1c.4 0 .8.1 1.1.2c.3.1.5.3.7.5c.2.2.4.4.5.7c.1.3.1.6.1.9c0 .4 0 .8-.2 1.1c-.1.3-.3.6-.5.8c-.3.2-.6.4-.9.5c-.3.2-.7.2-1.1.2c-.4 0-.8-.1-1.2-.2c-.4-.2-.7-.4-.9-.6l.5-.7c.2.2.5.4.8.5c.3.1.6.2.9.2c.2 0 .5 0 .7-.1c.2-.1.4-.2.5-.4c.2-.1.3-.3.4-.5c.1-.2.1-.5.1-.8c0-.4-.1-.8-.4-1.1c-.3-.3-.7-.4-1.3-.4c-.2 0-.4 0-.6.1c-.2 0-.4.1-.6.1c.02.04-.6-.1-.6-.1l.6-3.6h3.6v.9h-2.9zm10.8-1.7h.8v5.3h-.8v-2.3s-1.86-.02-1.9 0c0 .3-.1.5-.2.7c-.1.3-.3.5-.5.6c-.2.2-.5.3-.7.4c-.3.1-.6.2-.9.2c-.3 0-.6-.1-.9-.2c-.3-.1-.6-.3-.8-.5c-.2-.2-.3-.4-.5-.7c-.1-.2-.1-.5-.1-.9c0-.3 0-.6.1-.8c.2-.3.3-.5.5-.7c.2-.2.5-.4.8-.5c.3-.1.6-.1.9-.1c.3 0 .6 0 .9.1c.2.1.5.2.7.4c.2.1.3.3.5.5c.1.3.2.5.2.8h1.9v-2.3zm-4.2 4.1c.2 0 .4 0 .6-.1c.2 0 .4-.1.5-.3c.2-.1.3-.3.4-.5c0-.1.1-.3.1-.6c0-.2-.1-.4-.1-.6c-.1-.1-.2-.3-.4-.4c-.1-.1-.3-.2-.5-.3c-.2-.1-.4-.1-.6-.1c-.2 0-.4 0-.6.1c-.2.1-.4.2-.5.3c-.1.1-.3.3-.3.4c-.1.2-.2.4-.2.6c0 .3.1.5.2.6c0 .2.2.4.3.5c.1.2.3.3.5.3c.2.1.4.1.6.1zm-1.1 2.4v-.7h6.1v3.3h-.8v-2.6h-5.3zm14.7-1.2h1.8V56h.9v7h-.9v-.9h-1.8v-.7zm-1.9-1.8c-.3 0-.6 0-.9-.1c-.3-.1-.5-.2-.7-.3c-.2-.2-.4-.3-.5-.5c-.1-.2-.2-.5-.2-.7c0-.2.1-.5.2-.7c.1-.2.3-.3.5-.5c.2-.1.4-.2.7-.3c.3-.1.6-.1.9-.1c.3 0 .6 0 .9.1c.3.1.5.2.7.3c.2.2.4.3.5.5c.1.2.2.5.2.7c0 .2-.1.5-.2.7c-.1.2-.3.3-.5.5c-.2.1-.4.2-.7.3c-.3.1-.6.1-.9.1zm0-2.6c-.4 0-.8.1-1.1.3c-.2.2-.4.4-.4.7c0 .3.2.5.4.7c.3.2.7.3 1.1.3c.4 0 .8-.1 1.1-.3c.2-.2.4-.4.4-.7c0-.3-.2-.5-.4-.7c-.3-.2-.7-.3-1.1-.3zm-.3 5.7s-.03-1.78 0-1.8c-.5 0-.9.1-1.3.1h-1.3l-.1-.7h1.4c.5 0 1 0 1.5-.1h1.5c.5-.1 1-.1 1.5-.2l.1.6c-.4.1-.8.1-1.2.2c-.5 0-.9 0-1.3.1c.01-.02 0 1.8 0 1.8h-.8zm-.5 1.6h5.6v.7H136v-2.7h.9v2zm7.5 1.5l-.6-.2c.5-.8.8-1.6 1-2.4c.2-.8.4-1.7.4-2.5c0-.9-.2-1.8-.4-2.6c-.2-.8-.5-1.6-1-2.4l.6-.2c.5.7.9 1.5 1.1 2.4c.3.8.4 1.7.4 2.8c0 1-.1 1.9-.4 2.7c-.2.9-.6 1.7-1.1 2.4zm9.2-8.2v-.7h-5.4v-.6h6.2v1.9h-5.3v.8h5.5v.6h-6.3v-2h5.3zm-6.4 2.7h8.3v.6h-8.3v-.6zm1.8 3.3v.9h5.7v.6h-6.5V63h5.4v-.7h-5.4v-.6h6.3v1.9H149zm16.6-5.6h1.3v.7h-1.3v1.9h-.9V56h.9v2zm-1.9 1.3l.2.7c-.4 0-.7.1-1 .1c-.3.1-.6.1-1 .1c-.3.1-.7.1-1 .1h-2v-3.7h4v.6h-3.2v2.4h2.2c.3-.1.7-.1.9-.1c.3-.1.6-.1.9-.2zm-3.1 4.1v1h5.3v.7h-6.1v-2.4h4.9v-.9h-5v-.7h5.9v2.3h-5zm13.7-1.9v-2.8h-2v-.7h2v-1.9h.9v5.4h-.9zm-1.3-1.1l-.4.6c-.6-.2-1-.4-1.4-.8c-.3-.3-.6-.7-.8-1.2c-.2.5-.5 1-.9 1.4c-.4.4-.9.7-1.4.9l-.5-.7c.4-.1.7-.3 1-.5c.3-.2.5-.4.7-.7c.2-.3.4-.6.5-.9c.1-.3.1-.7.1-1c.04 0 0-.9 0-.9h.9s-.02.87 0 .9c0 .3 0 .6.1.9c.1.3.3.6.5.8c.2.3.4.5.7.7c.3.2.6.4.9.5zm-.8 1.3c.4 0 .8.1 1.2.1c.4.1.7.2 1 .4c.2.1.4.3.6.5c.1.2.2.5.2.8c0 .2-.1.5-.2.7c-.2.2-.4.4-.6.5c-.3.2-.6.3-1 .4c-.4 0-.8.1-1.2.1c-.5 0-.9-.1-1.3-.1c-.4-.1-.7-.2-1-.4c-.2-.1-.4-.3-.6-.5c-.1-.2-.2-.5-.2-.7c0-.3.1-.6.2-.8c.2-.2.4-.4.6-.5c.3-.2.6-.3 1-.4c.4 0 .8-.1 1.3-.1zm0 2.8c.7 0 1.2-.1 1.6-.3c.4-.2.6-.4.6-.7c0-.4-.2-.7-.6-.8c-.4-.2-.9-.3-1.6-.3c-.7 0-1.3.1-1.7.3c-.4.1-.6.4-.6.8c0 .3.2.5.6.7c.4.2 1 .3 1.7.3zm10.4-5.3v2.4h-.8v-5.4h.8v2.4h1.1v-2.5h.8v5.6h-.8v-2.5h-1.1zm-1.2-2.1v.7h-4.6v-.7h1.9v-1h.8v1h1.9zm-2.3 4.2c-.3 0-.5 0-.8-.1c-.2 0-.4-.1-.6-.3c-.2-.1-.3-.3-.4-.5c-.1-.2-.2-.4-.2-.6c0-.3.1-.5.2-.7c.1-.2.2-.3.4-.5l.6-.3c.3 0 .5-.1.8-.1c.3 0 .5.1.8.1l.6.3c.2.2.3.3.4.5c.1.2.1.4.1.7c0 .2 0 .4-.1.6c-.1.2-.2.4-.4.5c-.2.2-.4.3-.6.3c-.3.1-.5.1-.8.1zm0-2.5c-.4 0-.7.1-.9.3c-.2.2-.3.4-.3.7c0 .3.1.5.3.7c.2.1.5.2.9.2c.4 0 .7-.1.9-.2c.2-.2.3-.4.3-.7c0-.3-.1-.5-.3-.7c-.2-.2-.5-.3-.9-.3zm4.3 3.2s.02.29 0 .3c0 .2.1.4.1.7c.1.2.2.4.4.6c.2.2.4.3.6.5c.2.1.5.3.8.4l-.4.6c-.5-.2-.9-.4-1.2-.7c-.3-.3-.5-.6-.7-1c-.1.4-.3.7-.6 1c-.3.3-.6.6-1.1.8c-.4-.2-.8-.4-1.1-.7c-.2-.3-.4-.7-.6-1.1c-.1.4-.4.7-.7 1c-.3.3-.7.5-1.1.7l-.4-.6c.3-.1.5-.3.8-.4c.2-.2.4-.4.5-.6c.2-.2.3-.4.4-.6c.1-.2.1-.4.1-.6c.03-.01 0-.3 0-.3h.8s.04.29 0 .3c0 .4.1.8.3 1.1c.3.4.6.7 1 1c.2-.2.4-.3.6-.5c.1-.2.3-.3.4-.5c.1-.2.2-.4.2-.6c.1-.2.1-.3.1-.5v-.3h.8zm11.1-2.3v.6H193v4.9h-.8V56h.8v3.7h1.5zm-7.3-2.1s.02 4.61 0 4.6h2.2c.3-.1.7-.1 1-.1c.3-.1.6-.1.9-.2l.1.7c-.3.1-.7.1-1 .2c-.3 0-.7 0-1 .1h-2.3c.01.03-.7 0-.7 0v-6h4.2v.7h-3.4zm7.9 7v-1h.9v1h-.9z" stroke="none" fill="#111111"/></g><g id="Polygon117897"><path d="m2.6 45.1h3v.8H.5v-.6s2.62-2.5 2.6-2.5l.6-.6c.1-.2.3-.4.4-.6c.1-.1.2-.3.3-.5c0-.2.1-.4.1-.7c0-.4-.2-.7-.4-.9c-.3-.3-.6-.4-1-.4c-.2 0-.4.1-.6.1c-.2.1-.3.2-.5.3c-.1.2-.2.3-.3.5c-.1.2-.1.4-.1.6l-.9-.2c0-.3.1-.6.3-.9c.1-.2.3-.4.5-.6c.2-.2.5-.3.8-.4c.2-.1.5-.2.9-.2c.3 0 .6.1.8.2c.3.1.6.2.8.4c.2.2.3.4.4.6c.2.3.2.6.2.9c0 .3 0 .6-.1.8c-.1.2-.2.5-.3.7c-.2.2-.4.4-.5.6c-.2.2-.4.5-.6.7l-2.1 2c.1 0 .3 0 .4-.1h.4zm9.1-2.9c0 .7-.1 1.2-.2 1.7c-.2.5-.4.9-.6 1.2c-.3.4-.6.6-.9.7c-.3.2-.7.3-1.1.3c-.4 0-.7-.1-1-.3c-.4-.1-.7-.3-.9-.7c-.3-.3-.5-.7-.6-1.2c-.1-.5-.2-1-.2-1.7c0-.7.1-1.2.2-1.7c.1-.5.3-.9.6-1.2c.2-.3.5-.6.9-.7c.3-.2.6-.3 1-.3c.4 0 .8.1 1.1.3c.3.1.6.4.9.7c.2.3.4.7.6 1.2c.1.5.2 1 .2 1.7zm-1 0c0-.6 0-1.1-.1-1.5c-.1-.4-.2-.7-.4-.9c-.2-.3-.4-.4-.6-.5c-.2-.1-.4-.2-.7-.2c-.2 0-.4.1-.6.2c-.3.1-.5.2-.6.5c-.2.2-.3.5-.4.9c-.1.4-.2.9-.2 1.5c0 .6.1 1.1.2 1.5c.1.4.2.7.4.9c.1.3.3.5.6.6c.2.1.4.1.6.1c.3 0 .5 0 .7-.1c.2-.1.4-.3.6-.6c.2-.2.3-.5.4-.9c.1-.4.1-.9.1-1.5zm3.7 2.9h2.9v.8h-5v-.6s2.57-2.5 2.6-2.5c.2-.2.4-.4.5-.6c.2-.2.3-.4.4-.6c.2-.1.3-.3.3-.5c.1-.2.1-.4.1-.7c0-.4-.1-.7-.4-.9c-.2-.3-.6-.4-.9-.4c-.3 0-.5.1-.6.1c-.2.1-.4.2-.5.3c-.1.2-.3.3-.3.5c-.1.2-.1.4-.1.6l-1-.2l.3-.9l.6-.6c.2-.2.4-.3.7-.4c.3-.1.6-.2.9-.2c.3 0 .6.1.9.2c.3.1.5.2.7.4c.2.2.4.4.5.6c.1.3.2.6.2.9c0 .3-.1.6-.2.8c0 .2-.1.5-.3.7c-.1.2-.3.4-.5.6c-.2.2-.4.5-.6.7l-2.1 2c.2 0 .3 0 .4-.1h.5zm7.1.1h1.5v.7h-4v-.7h1.6v-5.7c.02.04-1.3 1.3-1.3 1.3l-.5-.6l2-1.8h.7v6.8zm9.2-.9v-3.1h-2.5v-.7h2.5v-1.1h-2.5v-.7h2.5v-1.1h.9v6.7h-.9zm-1.5-2.4l.1.7c-.7.2-1.4.3-2.1.3c-.6 0-1.3.1-1.9.1c-.03-.03-.7 0-.7 0v-4.8h.8v4.1c.6 0 1.3-.1 1.9-.1c.6-.1 1.2-.1 1.9-.3zm-2.6 3.9h5.2v.7h-6.1v-2.8h.9v2.1zm13.6-8.3h.8v9.2h-.8v-9.2zm-1.8 3.6v-3.4h.8v8.5h-.8v-4.4s-1.17-.02-1.2 0c0 .4-.1.8-.1 1.2c-.1.3-.3.7-.4.9c-.2.3-.4.4-.6.6c-.3.1-.5.2-.8.2c-.3 0-.6-.1-.8-.2c-.3-.2-.5-.4-.6-.7c-.2-.3-.3-.6-.4-1c-.1-.4-.2-.8-.2-1.3c0-.5.1-1 .2-1.3c.1-.4.2-.8.4-1c.1-.3.3-.5.6-.7c.2-.1.5-.2.8-.2c.3 0 .5.1.7.2c.3.1.5.3.6.6c.2.2.3.5.4.8c.1.4.2.8.2 1.2h1.2zm-3.1 2.8c.4 0 .6-.2.9-.6c.2-.5.3-1.1.3-1.8c0-.4-.1-.7-.1-1c-.1-.3-.1-.6-.3-.8c-.1-.2-.2-.3-.3-.5c-.2-.1-.3-.1-.5-.1c-.4 0-.7.2-.9.6c-.2.5-.3 1-.3 1.8c0 .7.1 1.3.3 1.8c.2.4.5.6.9.6zm14.4-3.6v.7h-6.2v-3.1h.8v2.4h5.4zm-7.3 1.9h8.3v.7h-8.3v-.7zm1.9 1.6v2h5.5v.7h-6.3v-2.7h.8zm10.1-2.2l-.2-.7c.4 0 .8-.1 1.2-.2c.3-.1.7-.2 1-.4c.2-.1.5-.3.6-.5c.2-.2.3-.4.3-.7h-2.8v-.7h2.9v-.9h.8v.9h2.9v.7h-2.8c0 .3.1.5.2.7c.2.2.4.4.7.5c.3.2.7.3 1 .4c.4.1.8.2 1.3.2l-.3.7c-.4 0-.7-.1-1.1-.2l-1-.3c-.3-.2-.5-.3-.7-.5c-.3-.2-.5-.4-.6-.6c-.1.2-.3.4-.6.6c-.2.2-.4.3-.7.5l-1 .3c-.3.1-.7.2-1.1.2zm3.8.7h3.7v.7h-8.2v-.7h3.7v-1.1h.8v1.1zm-.4 1.3c1 0 1.8.2 2.3.4c.6.3.8.7.8 1.2c0 .5-.2.8-.8 1.1c-.5.3-1.3.4-2.3.4c-1 0-1.8-.1-2.3-.4c-.6-.3-.8-.6-.8-1.1c0-.5.2-.9.8-1.2c.5-.2 1.3-.4 2.3-.4zm0 2.4c.7 0 1.3 0 1.7-.2c.4-.1.6-.4.6-.6c0-.3-.2-.5-.6-.7c-.4-.2-1-.2-1.7-.2c-.7 0-1.3 0-1.7.2c-.4.2-.6.4-.6.7c0 .2.2.5.6.6c.4.2 1 .2 1.7.2zm10.5-.8h1.4v.7h-4v-.7h1.7s-.03-5.55 0-5.5v-.2c-.02.04-1.4 1.3-1.4 1.3l-.5-.6l2-1.8h.8v6.8zm2.2 1.5l.3-2.1h1l-.7 2.1h-.6zm3.1-6.1l-.9-.1c.1-.4.1-.7.3-.9c.1-.3.3-.5.5-.7c.2-.2.5-.3.8-.4c.2-.1.5-.2.9-.2c.3 0 .6.1.9.2c.2.1.5.2.7.4c.2.1.3.4.4.6c.1.2.2.5.2.8c0 .5-.1.8-.4 1.1c-.2.3-.5.5-.9.6c1 .3 1.4.9 1.4 1.8c0 .4 0 .7-.1 1c-.2.2-.4.5-.6.7c-.2.2-.5.3-.8.4c-.3.1-.6.2-1 .2c-.4 0-.7-.1-1-.2c-.3-.1-.5-.2-.7-.4c-.2-.2-.4-.4-.5-.6c-.1-.3-.2-.5-.3-.8l.8-.3c0 .1.1.2.2.4c.1.3.3.6.6.8c.2.2.5.3.9.3c.3 0 .5-.1.7-.2c.2-.1.4-.2.5-.3c.1-.1.2-.3.3-.5c.1-.1.1-.3.1-.5c0-.2 0-.3-.1-.5c0-.2-.1-.3-.3-.5c-.1-.1-.3-.2-.6-.2c-.2-.1-.5-.2-.9-.2v-.6c.3 0 .6-.1.8-.1l.6-.3c.1-.1.2-.3.3-.4v-.6c0-.4-.1-.7-.3-.9c-.3-.2-.6-.3-1-.3c-.2 0-.4 0-.6.1c-.2 0-.3.1-.4.3c-.2.1-.3.3-.4.4c0 .2-.1.4-.1.6zm10.1 1.6c0 .7-.1 1.2-.3 1.7c-.1.5-.3.9-.5 1.2c-.3.4-.6.6-.9.7c-.3.2-.7.3-1.1.3c-.4 0-.7-.1-1.1-.3c-.3-.1-.6-.3-.8-.7c-.3-.3-.5-.7-.6-1.2c-.2-.5-.2-1-.2-1.7c0-.7 0-1.2.2-1.7c.1-.5.3-.9.6-1.2c.2-.3.5-.6.8-.7c.4-.2.7-.3 1.1-.3c.4 0 .8.1 1.1.3c.3.1.6.4.9.7c.2.3.4.7.5 1.2c.2.5.3 1 .3 1.7zm-1 0c0-.6 0-1.1-.1-1.5c-.1-.4-.3-.7-.4-.9c-.2-.3-.4-.4-.6-.5c-.2-.1-.4-.2-.7-.2c-.2 0-.4.1-.7.2c-.2.1-.4.2-.5.5c-.2.2-.3.5-.4.9c-.1.4-.2.9-.2 1.5c0 .6.1 1.1.2 1.5c.1.4.2.7.4.9c.1.3.3.5.5.6c.3.1.5.1.7.1c.3 0 .5 0 .7-.1c.2-.1.4-.3.6-.6c.1-.2.3-.5.4-.9c.1-.4.1-.9.1-1.5zm6.8 0c0 .7 0 1.2-.2 1.7c-.1.5-.3.9-.6 1.2c-.2.4-.5.6-.8.7c-.4.2-.7.3-1.1.3c-.4 0-.8-.1-1.1-.3c-.3-.1-.6-.3-.9-.7c-.2-.3-.4-.7-.5-1.2c-.2-.5-.3-1-.3-1.7c0-.7.1-1.2.3-1.7c.1-.5.3-.9.5-1.2c.3-.3.6-.6.9-.7c.3-.2.7-.3 1.1-.3c.4 0 .7.1 1.1.3c.3.1.6.4.8.7c.3.3.5.7.6 1.2c.2.5.2 1 .2 1.7zm-.9 0c0-.6-.1-1.1-.2-1.5c-.1-.4-.2-.7-.3-.9c-.2-.3-.4-.4-.6-.5c-.2-.1-.5-.2-.7-.2c-.2 0-.5.1-.7.2c-.2.1-.4.2-.6.5c-.1.2-.3.5-.4.9c-.1.4-.1.9-.1 1.5c0 .6 0 1.1.1 1.5c.1.4.3.7.4.9c.2.3.4.5.6.6c.2.1.5.1.7.1c.2 0 .5 0 .7-.1c.2-.1.4-.3.6-.6c.1-.2.2-.5.3-.9c.1-.4.2-.9.2-1.5zm8.6-1.9h1.4v.7h-1.4v3.2h-.8v-6.7h.8v2.8zm-2.5-1.9v4.2h-4.2v-4.2h4.2zm-.8 3.5V39h-2.6v2.9h2.6zm-1.5 1.7v2.2h5.3v.7h-6.1v-2.9h.8zm16.1-4.1h1.4v.7h-1.4v1.9h-.8v-4.6h.8v2zm-1.8 1.3l.1.7c-.3 0-.6.1-.9.1c-.3.1-.7.1-1 .1c-.3.1-.7.1-1.1.1h-2v-3.7h4.1v.6h-3.3s.04 2.43 0 2.4h2.3c.3-.1.6-.1.9-.1c.3-.1.6-.1.9-.2zm-3.2 4.1v1h5.3v.7h-6.1v-2.4h5v-.9h-5v-.7h5.8v2.3h-5zm13.8-7.4h.8v9.2h-.8v-5h-1.8v-.6h1.8v-3.6zm-5.5 4.1s-.05 2.2 0 2.2h1c.4 0 .7 0 1-.1h1c.3-.1.6-.1.9-.2l.1.7c-.3.1-.7.1-1 .1c-.3.1-.6.1-1 .1c-.3.1-.7.1-1 .1h-1.9v-3.6h3.3v-1.8h-3.3v-.7h4.1v3.2h-3.2zm14.4-2.5v-.7h-5.4v-.6h6.2v1.9h-5.3v.8h5.5v.6h-6.4v-2h5.4zm-6.4 2.7h8.3v.6h-8.3v-.6zm1.8 3.3v.9h5.7v.6h-6.5v-2.1h5.4v-.7h-5.4v-.6h6.2v1.9h-5.4zm16.1-7.6h.8v9.2h-.8v-9.2zm-6.1 1s4.25.03 4.3 0c0 .7-.1 1.3-.3 1.9c-.1.7-.4 1.2-.7 1.8c-.4.5-.8 1-1.4 1.5c-.5.5-1.1.9-1.9 1.3l-.4-.7c1.2-.6 2.1-1.3 2.7-2.2c.7-.8 1-1.8 1.1-2.9h-3.4v-.7zm15.9-.6v4h-6.3v-4h.9v1.3h4.5v-1.3h.9zm-.9 3.3v-1.4h-4.5v1.4h4.5zm1.9 1.8v.6h-3.8v3.1h-.8v-3.1h-3.7v-.6h8.3zm7.8-5.5h.8v9.2h-.8v-4.6h-1.1v4.1h-.8v-8.5h.8v3.7h1.1v-3.9zm-4.2.3v1.3h1.8v.7h-4.5v-.7h1.8v-1.3h.9zm-.4 2.6c.2 0 .5 0 .7.1c.3.2.5.3.7.5c.1.2.3.4.4.6c.1.3.1.6.1.9c0 .3 0 .6-.1.8c-.1.3-.3.5-.4.7c-.2.2-.4.3-.7.4c-.2.1-.5.2-.7.2c-.3 0-.6-.1-.8-.2c-.3-.1-.5-.2-.6-.4c-.2-.2-.4-.4-.5-.7c-.1-.2-.1-.5-.1-.8c0-.3 0-.6.1-.9c.1-.2.3-.4.5-.6c.1-.2.3-.3.6-.5c.2-.1.5-.1.8-.1zm0 3.5c.3 0 .6-.2.8-.4c.3-.3.4-.6.4-1c0-.2-.1-.4-.1-.6c-.1-.1-.2-.3-.3-.4c-.1-.1-.2-.2-.4-.3c-.1-.1-.3-.1-.4-.1c-.4 0-.7.1-.9.4c-.3.2-.4.6-.4 1c0 .4.2.7.4 1c.2.2.5.4.9.4zm11 1.2h3v.8h-5.1v-.6s2.63-2.5 2.6-2.5l.6-.6c.1-.2.3-.4.4-.6c.1-.1.2-.3.3-.5c.1-.2.1-.4.1-.7c0-.4-.2-.7-.4-.9c-.3-.3-.6-.4-1-.4c-.2 0-.4.1-.6.1c-.2.1-.3.2-.5.3c-.1.2-.2.3-.3.5c0 .2-.1.4-.1.6l-.9-.2c0-.3.1-.6.3-.9c.1-.2.3-.4.5-.6c.2-.2.5-.3.8-.4c.2-.1.5-.2.9-.2c.3 0 .6.1.9.2c.2.1.5.2.7.4c.2.2.3.4.5.6c.1.3.1.6.1.9c0 .3 0 .6-.1.8c-.1.2-.2.5-.3.7c-.2.2-.3.4-.5.6c-.2.2-.4.5-.6.7l-2.1 2c.1 0 .3 0 .4-.1h.4zm9.1-2.9c0 .7-.1 1.2-.2 1.7c-.2.5-.4.9-.6 1.2c-.3.4-.5.6-.9.7c-.3.2-.7.3-1.1.3c-.3 0-.7-.1-1-.3c-.4-.1-.7-.3-.9-.7c-.3-.3-.5-.7-.6-1.2c-.1-.5-.2-1-.2-1.7c0-.7.1-1.2.2-1.7c.1-.5.3-.9.6-1.2c.2-.3.5-.6.9-.7c.3-.2.7-.3 1-.3c.4 0 .8.1 1.1.3c.4.1.6.4.9.7c.2.3.4.7.6 1.2c.1.5.2 1 .2 1.7zm-1 0c0-.6 0-1.1-.1-1.5c-.1-.4-.2-.7-.4-.9c-.2-.3-.4-.4-.6-.5c-.2-.1-.4-.2-.7-.2c-.2 0-.4.1-.6.2c-.3.1-.4.2-.6.5c-.2.2-.3.5-.4.9c-.1.4-.2.9-.2 1.5c0 .6.1 1.1.2 1.5c.1.4.2.7.4.9c.2.3.3.5.6.6c.2.1.4.1.6.1c.3 0 .5 0 .7-.1c.2-.1.4-.3.6-.6c.2-.2.3-.5.4-.9c.1-.4.1-.9.1-1.5zm3.7 2.9h2.9v.8h-5v-.6s2.58-2.5 2.6-2.5c.2-.2.4-.4.5-.6c.2-.2.3-.4.5-.6c.1-.1.2-.3.2-.5c.1-.2.1-.4.1-.7c0-.4-.1-.7-.4-.9c-.2-.3-.6-.4-.9-.4c-.3 0-.4.1-.6.1c-.2.1-.4.2-.5.3c-.1.2-.2.3-.3.5c-.1.2-.1.4-.1.6l-.9-.2c0-.3.1-.6.2-.9l.6-.6c.2-.2.4-.3.7-.4c.3-.1.6-.2.9-.2c.3 0 .6.1.9.2c.3.1.5.2.7.4c.2.2.4.4.5.6c.1.3.2.6.2.9c0 .3-.1.6-.1.8c-.1.2-.2.5-.4.7c-.1.2-.3.4-.5.6c-.2.2-.4.5-.6.7l-2.1 2c.2 0 .3 0 .5-.1h.4zm7.1.1h1.5v.7h-4v-.7h1.6s.02-5.55 0-5.5v-.2c.03.04-1.3 1.3-1.3 1.3l-.5-.6l2-1.8h.7v6.8zm9.2-.9v-3.1h-2.5v-.7h2.5v-1.1h-2.5v-.7h2.5v-1.1h.9v6.7h-.9zm-1.5-2.4l.1.7c-.7.2-1.4.3-2 .3c-.7 0-1.4.1-2 .1c-.03-.03-.7 0-.7 0v-4.8h.8s.02 4.06 0 4.1c.7 0 1.3-.1 1.9-.1c.6-.1 1.2-.1 1.9-.3zm-2.6 3.9h5.2v.7h-6.1v-2.8h.9v2.1zm15.8-6.3h1.4v.7h-1.4v2h-.8v-4.6h.8v1.9zm-2.5-1.4v3.6h-4.2v-3.6h4.2zm-.8 3v-2.4h-2.6v2.4h2.6zm-1.7 3.8v1h5.3v.7h-6.1v-2.3h5v-1h-5v-.7h5.8v2.3h-5zm15.8-7.4h.9v9.2h-.9v-9.2zm-6.1 1s4.3.03 4.3 0c0 .7-.1 1.3-.2 1.9c-.2.7-.4 1.2-.8 1.8c-.3.5-.8 1-1.3 1.5c-.5.5-1.2.9-2 1.3l-.4-.7c1.2-.6 2.2-1.3 2.8-2.2c.6-.8 1-1.8 1-2.9h-3.4v-.7zm9.5 3.1l-.3-.7c.4 0 .7-.1 1.1-.3c.4-.1.7-.3 1-.5c.3-.2.5-.4.7-.6c.2-.3.3-.5.3-.8c-.05-.02 0 0 0 0h-2.9v-.7h6.8v.7h-2.9s.03-.02 0 0c0 .3.1.5.3.8c.2.2.4.4.7.6c.3.2.6.4 1 .5c.3.2.7.3 1.1.3l-.3.7l-1.1-.3c-.3-.1-.6-.2-.9-.4c-.3-.2-.6-.4-.8-.6c-.2-.2-.4-.5-.5-.7c-.1.2-.3.5-.5.7c-.3.2-.5.4-.8.6c-.3.2-.6.3-1 .4l-1 .3zm-.9.7h8.3v.6h-3.6v1.9h-.9v-1.9h-3.8v-.6zm1.9 1.6v1.9h5.5v.7h-6.3v-2.6h.8zm16.8-3.3v.7h-6.3V38h.8v2.6h5.5zm.9 2.1v.7h-3.7v3.3h-.9v-3.3h-3.7v-.7h8.3zm7.6-5.2h.8v5.5h-.8v-2.4h-1.8v-.7h1.8v-2.4zm-1.3 4.5l-.4.7c-.5-.2-1-.5-1.4-.9c-.3-.3-.6-.7-.8-1.2c-.2.5-.5 1-.9 1.4c-.4.4-.9.7-1.4.9l-.5-.7c.4-.1.7-.3 1-.5c.2-.2.5-.4.7-.7c.2-.2.3-.5.5-.8c.1-.3.1-.7.1-1c.03.01 0-.4 0-.4h-2v-.6h4.9v.6h-2s-.04.41 0 .4c0 .3 0 .6.1.9c.1.3.3.5.5.8c.2.2.4.5.7.6c.3.2.6.4.9.5zm-4 2.2v-.7h6.1v3.2h-.8v-2.5h-5.3zm16.5-6.7h.9v9.2h-.9v-9.2zm-6.1 1s4.28.03 4.3 0c0 .7-.1 1.3-.3 1.9c-.1.7-.4 1.2-.7 1.8c-.4.5-.8 1-1.3 1.5c-.6.5-1.2.9-2 1.3l-.4-.7c1.2-.6 2.1-1.3 2.8-2.2c.6-.8.9-1.8 1-2.9h-3.4v-.7zm15.9-.6v4h-6.2v-4h.8v1.3h4.5v-1.3h.9zm-.9 3.3v-1.4h-4.5v1.4h4.5zM265 43v.6h-3.7v3.1h-.9v-3.1h-3.7v-.6h8.3zm7.9-1.6h1.3v.7h-8.3v-.7h6.2c.1-.6.2-1.1.2-1.5v-1.2H267v-.7h6.1s.04.7 0 .7v1.2c0 .4-.1.9-.2 1.5zm-6 5.2v-3.3h6.3v3.3h-6.3zm.8-2.6v1.9h4.6V44h-4.6z" stroke="none" fill="#111111"/></g><g id="Polygon117896"><path d="m5.7 20.2v.6H.6v-.6h2.1V19h.9v1.2h2.1zm0 1.3h1.5v-2.4h.9v6.9h-.9v-1.9H5.7v-.7h1.5v-1.2H5.7v-.7zm-.5 1.6c0 .2 0 .5-.1.7c-.1.2-.3.4-.5.5c-.1.2-.4.3-.6.4c-.3.1-.5.1-.8.1c-.4 0-.6 0-.9-.1c-.2-.1-.5-.2-.6-.4c-.2-.1-.4-.3-.5-.5c-.1-.2-.1-.5-.1-.7c0-.3 0-.5.1-.7c.1-.2.3-.4.5-.6c.1-.1.4-.3.6-.3c.3-.1.5-.2.9-.2c.3 0 .5.1.8.2c.2 0 .5.2.6.3c.2.2.4.4.5.6c.1.2.1.4.1.7zm-3.3 0c0 .3.1.6.3.8c.3.2.6.3 1 .3c.3 0 .6-.1.9-.3c.2-.2.3-.5.3-.8c0-.3-.1-.6-.3-.8c-.3-.2-.6-.3-.9-.3c-.4 0-.7.1-1 .3c-.2.2-.3.5-.3.8zM3 27.3h5.3v.7H2.2v-2.6h.8v1.9zM16.7 19h.8v9.2h-.8v-4.8h-1.3v4.3h-.8v-8.5h.8v3.5h1.3V19zm-5.8 1.8s-.03 4.44 0 4.4h1.6c.5-.1 1-.1 1.5-.2v.7c-.2 0-.5.1-.8.1c-.2 0-.5.1-.8.1h-1.8c.05.04-.6 0-.6 0v-5.7h3.5v.6h-2.6zm16.5 1.9v.7h-1.5v4.8h-.8v-9.1h.8v3.6h1.5zm-5.4-2s-.02 1.14 0 1.1c0 .4 0 .8.2 1.1c.1.4.3.8.5 1.1c.2.3.4.6.7.9c.3.3.6.5.9.6l-.4.7c-.5-.2-1-.6-1.4-1.1c-.4-.5-.7-1.1-.9-1.7c-.1.3-.3.7-.4 1c-.2.3-.4.6-.6.8c-.2.3-.4.5-.6.7c-.3.2-.5.4-.8.5l-.5-.6c.4-.2.7-.4 1-.7c.3-.3.5-.6.7-1c.3-.3.4-.7.6-1.1c.1-.4.2-.8.2-1.2c-.05.04 0-1.1 0-1.1h-2.1v-.7h4.9v.7h-2zm10.6 2.9h3.8v.6h-8.3v-.6h3.7v-1.1h-2.7v-3h6.2v.6H30v1.7h5.4v.7h-2.8v1.1zm-.4 1.3c1 0 1.8.1 2.3.4c.6.3.8.7.8 1.2c0 .6-.2 1-.8 1.3c-.5.2-1.3.4-2.3.4c-1 0-1.7-.2-2.3-.4c-.5-.3-.8-.7-.8-1.3c0-.5.3-.9.8-1.2c.6-.3 1.3-.4 2.3-.4zm0 2.6c.7 0 1.3 0 1.7-.2c.4-.2.6-.4.6-.8c0-.3-.2-.5-.6-.7c-.4-.2-1-.3-1.7-.3c-.7 0-1.3.1-1.7.3c-.4.2-.6.4-.6.7c0 .4.2.6.6.8c.4.2 1 .2 1.7.2zm13.6-4.7v.7h-1.5v4.7h-.8V19h.8v3.8h1.5zm-5.5-1.5s.02.71 0 .7c0 .4.1.7.2 1.1c.1.4.2.7.4 1c.2.3.5.6.7.9c.3.2.6.5.9.6l-.4.7c-.5-.3-1-.6-1.3-1.1c-.4-.5-.7-1-.9-1.6c-.2.6-.5 1.2-.9 1.7c-.4.5-.8.9-1.4 1.1l-.4-.6l.9-.6c.3-.3.5-.6.7-.9c.2-.4.4-.7.5-1.1c.1-.4.2-.8.2-1.2v-.7h-2.1v-.7h2.1v-1.4h.8v1.4h2.1v.7h-2.1zM55.2 19h.8v9.2h-.8V19zm-6.1.9h4.2v6h-4.2v-6zm3.3.7h-2.5v4.6h2.5v-4.6zM66 23.4h-3.7v1.7h2.7v3.1h-.9v-2.4h-5.5v-.7h2.8v-1.7h-3.7v-.7s6.16.04 6.2 0c.1-.5.2-1 .2-1.4v-1.1c.01-.05-5.3 0-5.3 0v-.7h6.1s.03.64 0 .6v1.2c0 .4-.1.9-.2 1.4c.01.04 1.3 0 1.3 0v.7zm8-1.6h1.3v.7H74v3.3h-.9V19h.9v2.8zm-2.9 1.8c.5 0 1-.1 1.4-.1v.6c-.4.1-.9.1-1.4.2c-.5 0-.9 0-1.4.1H67l-.1-.7s.87.02.9 0h.3c-.04.01 0-3.1 0-3.1h-.9v-.7h4.9v.7h-1v3s.04-.01 0 0zm-2.2-3s-.02 3.09 0 3.1h.7c.2 0 .5 0 .7-.1c.04.04 0-3 0-3h-1.4zm.2 4.6v2.1h5.3v.7h-6.1v-2.8h.8zM83 19h.8v9.2h-.8v-4.9h-1.2v4.4h-.8v-8.5h.8v3.5h1.2V19zm-6.6 6.7v-5.6h3.5v5.6h-3.5zm.8-4.9v4.3h1.9v-4.3h-1.9zM94 19.1h.9v4.9h-.9v-2h-2.1v1.7h-4.1v-4.2h.8v1.4h2.5v-1.4h.8v1.8h2.1v-2.2zM91.1 23v-1.4h-2.5v1.4h2.5zm2.9 2.6v-1.1h.8v3.6H89v-3.6h.8v1.1h4.2zm0 1.8v-1.2h-4.2v1.2h4.2zm10-8.3v6.6h-.8v-6.6h.8zm-2.5 2.8c0 .4-.1.7-.2.9c-.1.3-.3.6-.5.8c-.2.2-.5.3-.8.4c-.3.1-.6.2-.9.2c-.3 0-.7-.1-1-.2c-.2-.1-.5-.2-.7-.4c-.2-.2-.4-.5-.5-.8c-.1-.2-.2-.5-.2-.9c0-.3.1-.6.2-.9c.1-.3.3-.5.5-.7c.2-.2.5-.3.7-.5c.3-.1.7-.1 1-.1c.3 0 .6 0 .9.1c.3.2.6.3.8.5c.2.2.4.4.5.7c.1.3.2.6.2.9zm-4 0c0 .3.1.5.1.6c.1.2.2.4.4.5c.1.2.3.3.5.4c.2 0 .4.1.6.1c.2 0 .4-.1.6-.1c.2-.1.4-.2.5-.4c.2-.1.3-.3.4-.5c0-.1.1-.3.1-.6c0-.2-.1-.4-.1-.6c-.1-.2-.2-.3-.4-.5c-.1-.1-.3-.2-.5-.3c-.2-.1-.4-.1-.6-.1c-.2 0-.4 0-.6.1c-.2.1-.4.2-.5.3c-.2.2-.3.3-.4.5c0 .2-.1.4-.1.6zm1.5 5.4h5.3v.7h-6.2v-3h.9v2.3zm9.2 1.3l-.6.3c-.5-.8-.9-1.6-1.1-2.4c-.3-.8-.4-1.8-.4-2.8c0-1 .1-1.9.4-2.8c.2-.8.6-1.6 1.1-2.4l.6.3c-.5.7-.8 1.5-1 2.3c-.2.9-.3 1.7-.3 2.6c0 .9.1 1.8.3 2.6c.2.8.5 1.6 1 2.3zm1.2-1.2V20h1v3.1h3.4V20h1v7.4h-1v-3.5h-3.4v3.5h-1zm7.2 0V20h1.2s1.41 3.96 1.4 4c.1.2.2.5.3.7c.1.3.1.6.2.8h.1c.1-.2.2-.5.2-.8c.1-.2.2-.5.3-.7c0-.04 1.4-4 1.4-4h1.2v7.4h-.9s-.02-4.11 0-4.1v-1.1c0-.4.1-.8.1-1.1c0-.01 0 0 0 0l-.6 1.7l-1.4 3.9h-.7l-1.4-3.9l-.6-1.7s-.03-.01 0 0v1.1c0 .2.1.4.1.6v.5c-.02-.01 0 4.1 0 4.1h-.9zm12.2 0l-.7-2.2h-2.7l-.7 2.2h-1l2.6-7.4h1l2.5 7.4h-1zm-3.2-3h2.3s-.36-1.15-.4-1.1c-.1-.5-.2-.9-.3-1.3c-.2-.4-.3-.8-.4-1.3h-.1c-.1.5-.2.9-.3 1.3c-.1.4-.3.8-.4 1.3c0-.05-.4 1.1-.4 1.1zm5.1 4.4l-.6-.2c.5-.8.8-1.6 1-2.4c.2-.8.3-1.7.3-2.5c0-.9-.1-1.8-.3-2.6c-.2-.8-.5-1.6-1-2.4l.6-.2c.5.7.8 1.5 1.1 2.4c.3.8.4 1.7.4 2.8c0 1-.1 1.9-.4 2.7c-.3.9-.6 1.7-1.1 2.4zm9.4-9.8h.8v9.2h-.8V19zm-4 .7c.4 0 .7.1 1 .3c.2.1.5.3.7.6c.2.3.4.6.5 1c.1.4.1.8.1 1.3c0 .5 0 1-.1 1.4c-.1.3-.3.7-.5 1c-.2.2-.5.5-.7.6c-.3.2-.6.2-1 .2c-.3 0-.6 0-.9-.2c-.3-.1-.6-.4-.8-.6c-.2-.3-.3-.7-.4-1c-.1-.4-.2-.9-.2-1.4c0-.5.1-.9.2-1.3c.1-.4.2-.7.4-1c.2-.3.5-.5.8-.6c.3-.2.6-.3.9-.3zm0 .8c-.2 0-.4.1-.6.2c-.2.1-.3.3-.5.5c-.1.2-.2.4-.3.7c-.1.3-.1.7-.1 1c0 .4 0 .7.1 1c.1.3.2.6.3.8c.2.2.3.4.5.5c.2.1.4.2.6.2c.2 0 .4-.1.6-.2c.2-.1.4-.3.5-.5c.1-.2.3-.5.3-.8c.1-.3.1-.6.1-1c0-.3 0-.7-.1-1c0-.3-.2-.5-.3-.7c-.1-.2-.3-.4-.5-.5c-.2-.1-.4-.2-.6-.2zm13.8-.3v.6h-5.2v-.6h2.2V19h.9v1.2h2.1zm0 1.3h1.5v-2.4h.9v6.9h-.9v-1.9h-1.5v-.7h1.5v-1.2h-1.5v-.7zm-.5 1.6c0 .2-.1.5-.2.7c-.1.2-.2.4-.4.5c-.2.2-.4.3-.6.4c-.3.1-.6.1-.9.1c-.3 0-.6 0-.8-.1c-.3-.1-.5-.2-.7-.4c-.1-.1-.3-.3-.4-.5c-.1-.2-.1-.5-.1-.7c0-.3 0-.5.1-.7c.1-.2.3-.4.4-.6c.2-.1.4-.3.7-.3c.2-.1.5-.2.8-.2c.3 0 .6.1.9.2c.2 0 .4.2.6.3c.2.2.3.4.4.6c.1.2.2.4.2.7zm-3.3 0c0 .3.1.6.3.8c.2.2.5.3.9.3c.4 0 .7-.1 1-.3c.2-.2.3-.5.3-.8c0-.3-.1-.6-.3-.8c-.3-.2-.6-.3-1-.3c-.4 0-.7.1-.9.3c-.2.2-.3.5-.3.8zm1.1 4.2h5.3v.7h-6.1v-2.6h.8v1.9zm13.7-8.3h.8v9.2h-.8v-4.8h-1.3v4.3h-.8v-8.5h.8v3.5h1.3V19zm-5.9 1.8s.05 4.44 0 4.4h1.7c.5-.1.9-.1 1.4-.2l.1.7c-.3 0-.5.1-.8.1c-.2 0-.5.1-.8.1h-1.8c.03.04-.6 0-.6 0v-5.7h3.4v.6H155zm16.6 1.9v.7h-1.5v4.8h-.8v-9.1h.8v3.6h1.5zm-5.4-2s-.04 1.14 0 1.1c0 .4 0 .8.1 1.1c.2.4.3.8.5 1.1c.3.3.5.6.8.9c.3.3.6.5.9.6l-.5.7c-.5-.2-.9-.6-1.3-1.1c-.4-.5-.7-1.1-1-1.7l-.3 1c-.2.3-.4.6-.6.8c-.2.3-.4.5-.6.7c-.3.2-.5.4-.8.5l-.5-.6c.4-.2.7-.4 1-.7c.2-.3.5-.6.7-1c.2-.3.4-.7.5-1.1c.2-.4.2-.8.2-1.2c.03.04 0-1.1 0-1.1h-2.1v-.7h5v.7h-2zm10.6 2.9h3.7v.6h-8.2v-.6h3.7v-1.1h-2.7v-3h6.2v.6h-5.4v1.7h5.5v.7h-2.8v1.1zm-.4 1.3c1 0 1.7.1 2.3.4c.5.3.8.7.8 1.2c0 .6-.3 1-.8 1.3c-.6.2-1.3.4-2.3.4c-1 0-1.7-.2-2.3-.4c-.6-.3-.8-.7-.8-1.3c0-.5.2-.9.8-1.2c.6-.3 1.3-.4 2.3-.4zm0 2.6c.7 0 1.3 0 1.7-.2c.4-.2.6-.4.6-.8c0-.3-.2-.5-.6-.7c-.4-.2-1-.3-1.7-.3c-.7 0-1.3.1-1.7.3c-.4.2-.6.4-.6.7c0 .4.2.6.6.8c.4.2 1 .2 1.7.2zm13.6-4.7v.7h-1.5v4.7h-.9V19h.9v3.8h1.5zm-5.5-1.5v.7c0 .4.1.7.2 1.1c.1.4.2.7.4 1c.2.3.4.6.7.9c.3.2.6.5.9.6l-.4.7c-.6-.3-1-.6-1.4-1.1c-.3-.5-.6-1-.8-1.6c-.2.6-.5 1.2-.9 1.7c-.4.5-.8.9-1.4 1.1l-.4-.6l.9-.6c.3-.3.5-.6.7-.9c.2-.4.4-.7.5-1.1c.1-.4.2-.8.2-1.2c-.03.01 0-.7 0-.7h-2.1v-.7h2.1v-1.4h.8v1.4h2v.7h-2zm15.7-2.2v4.6h-.8v-4.6h.8zm-1.8 3.2l.1.6c-.3.1-.6.1-1 .2c-.3 0-.6.1-1 .1H194c0 .04-.8 0-.8 0v-3.6h4.4v.6h-3.5s-.02 2.38 0 2.4h1.3c.4 0 .7-.1 1.1-.1c.3 0 .7 0 1-.1c.3 0 .6-.1.9-.1zm-3.3 5.2h5.4v.6h-6.2v-2.3h5.1v-1h-5.1v-.6h5.9v2.2h-5.1v1.1zm13.5-8.5h.8v9.2h-.8v-5h-1.8v-.6h1.8V19zm-5.6 4.1s.04 2.2 0 2.2h1.1c.4 0 .7 0 1-.1h1c.3-.1.6-.1.9-.2l.1.7c-.3.1-.7.1-1 .1c-.3.1-.6.1-1 .1c-.3.1-.7.1-1 .1h-1.9v-3.6h3.3v-1.8h-3.3v-.7h4.1v3.2H203zm16.5-.3v.7h-1.4v4.7h-.8V19h.8v3.8h1.4zm-5.3 1.1v1.6c.4-.1.9-.1 1.3-.1c.4-.1.8-.1 1.2-.1v.6c-.4 0-.9.1-1.4.2c-.5 0-1 0-1.5.1h-2.7l-.1-.7h2.4v-1.6c-.3 0-.6-.1-.8-.2c-.3-.1-.5-.3-.7-.5c-.2-.2-.3-.4-.4-.6c-.1-.3-.1-.5-.1-.8c0-.3 0-.6.1-.9c.2-.3.3-.5.5-.7c.3-.2.5-.3.8-.4c.3-.1.6-.2 1-.2c.3 0 .7.1 1 .2c.3.1.5.2.7.4c.2.2.4.4.5.7c.1.3.2.6.2.9c0 .3 0 .5-.1.8c-.1.2-.3.4-.5.6c-.1.2-.3.3-.6.5c-.2.1-.5.2-.8.2zm-2-2.1c0 .4.1.8.4 1c.3.3.7.4 1.2.4c.5 0 .8-.1 1.1-.4c.3-.2.5-.6.5-1c0-.2 0-.4-.1-.6c-.1-.2-.2-.3-.4-.5c-.1-.1-.3-.2-.5-.3c-.2 0-.4-.1-.6-.1c-.2 0-.5.1-.7.1c-.2.1-.3.2-.5.3c-.1.2-.2.3-.3.5c-.1.2-.1.4-.1.6zm15.5-1.8v.7h-5.4v-.7h2.3v-1h.9v1h2.2zm3.1 1.5v.7h-1.4v2.3h-.8v-5.4h.8v2.4h1.4zm-3.6 1.3c0 .2 0 .4-.1.6c-.1.2-.3.4-.5.6c-.2.1-.4.2-.7.3c-.2.1-.5.1-.9.1c-.3 0-.6 0-.9-.1l-.6-.3c-.2-.2-.4-.4-.5-.6c-.1-.2-.1-.4-.1-.6c0-.3 0-.5.1-.7c.1-.2.3-.4.5-.5c.2-.2.4-.3.6-.3c.3-.1.6-.2.9-.2c.4 0 .7.1.9.2c.3 0 .5.1.7.3c.2.1.4.3.5.5c.1.2.1.4.1.7zm-3.5 0c0 .3.1.5.3.7c.3.2.6.3 1 .3c.5 0 .8-.1 1.1-.3c.2-.2.3-.4.3-.7c0-.3-.1-.6-.3-.8c-.3-.1-.6-.2-1.1-.2c-.4 0-.7.1-1 .2c-.2.2-.3.5-.3.8zm0 5.3v-3h5.7v3h-5.7zm.8-2.4v1.7h4.1v-1.7h-4.1zm14-6.7h.8v9.2h-.8V19zm-1.7 3.6v-3.3h.8v8.4h-.8v-4.4h-1.3c-.1.6-.2 1.2-.4 1.7c-.2.6-.5 1.1-.9 1.6l-.7-.4c.4-.4.6-.8.8-1.3c.2-.4.3-.9.4-1.3c.2-.5.2-1 .3-1.4v-1.4c.04.02-1 0-1 0v-.7s1.76.03 1.8 0c0 .4 0 .8-.1 1.2c0 .5 0 .9-.1 1.3c.04.03 1.2 0 1.2 0zm-5.1-2.5s2.04.03 2 0v1.5c-.1.5-.1 1-.2 1.5c-.2.5-.3 1-.5 1.5c-.2.5-.5 1-.8 1.4l-.7-.3c.3-.4.5-.8.7-1.2c.2-.4.4-.8.5-1.2c.1-.4.2-.8.2-1.2c.1-.4.1-.9.1-1.3c.03.02-1.3 0-1.3 0v-.7zm16.4 3.4l-.4.6c-.5-.2-1-.4-1.4-.7c-.3-.4-.6-.7-.8-1.2c-.2.5-.5.9-.9 1.3c-.4.3-.9.6-1.4.8l-.4-.7c.3-.1.6-.2.9-.4c.3-.2.5-.4.7-.6c.2-.3.4-.5.5-.8c.1-.3.1-.6.1-.9c.04.03 0-.1 0-.1h-2v-.7h2V19h.9v1.1h2v.7h-2s-.02.13 0 .1c0 .3 0 .6.1.8c.1.3.3.5.5.8c.2.2.4.4.7.5c.3.2.6.4.9.5zm3.1-2.1v.6h-1.3v2.5h-.9V19h.9v2.4h1.3zm-7.1 6.7v-3.2h5.8v3.2h-5.8zm.8-2.6v1.9h4.1v-1.9h-4.1zm13.7-6.5h.9v9.2h-.9v-3.5s-2.24-.04-2.2 0c-.2.4-.5.8-.8 1c-.4.3-.8.4-1.2.4c-.3 0-.7 0-.9-.2c-.3-.1-.6-.4-.8-.6c-.2-.3-.3-.7-.4-1c-.1-.4-.2-.9-.2-1.4c0-.5.1-.9.2-1.3c.1-.4.2-.7.4-1c.2-.3.5-.5.8-.6c.2-.2.6-.3.9-.3c.4 0 .8.2 1.1.4c.3.2.6.6.8 1h2.3V19zm-4.2 6.4c.2 0 .4-.1.6-.2c.2-.1.3-.3.5-.5c.1-.2.2-.5.3-.8c0-.3.1-.6.1-1c0-.3-.1-.7-.1-1c-.1-.3-.2-.5-.3-.7c-.2-.2-.3-.4-.5-.5c-.2-.1-.4-.2-.6-.2c-.2 0-.4.1-.6.2c-.2.1-.4.3-.5.5c-.1.2-.2.4-.3.7c-.1.3-.1.7-.1 1c0 .4 0 .7.1 1c.1.3.2.6.3.8c.1.2.3.4.5.5c.2.1.4.2.6.2zm2.3-2.5c0 .5-.1.8-.1 1.1c-.04-.02 2 0 2 0v-2.2s-2.07-.03-2.1 0c.1.2.1.3.1.5c0 .2.1.4.1.6zm13-.1v.7h-1.5v4.7h-.9v-9.1h.9v3.7h1.5zm-5.5-3.6v1.3h2.3v.7h-5.4v-.7h2.3v-1.3h.8zm-.4 2.7c.3 0 .6.1.9.2c.3.1.5.2.7.4c.2.2.4.4.5.7c.1.3.1.5.1.8c0 .4 0 .6-.1.9c-.1.3-.3.5-.5.7c-.2.2-.4.3-.7.4c-.3.1-.6.1-.9.1c-.3 0-.6 0-.9-.1c-.3-.1-.5-.2-.7-.4c-.2-.2-.3-.4-.4-.7c-.2-.3-.2-.5-.2-.9c0-.3 0-.5.2-.8c.1-.3.2-.5.4-.7c.2-.2.4-.3.7-.4c.3-.1.6-.2.9-.2zm0 3.6c.2 0 .4-.1.6-.2c.2 0 .3-.1.4-.2c.2-.2.3-.3.3-.5c.1-.2.1-.3.1-.6c0-.2 0-.3-.1-.5c0-.2-.1-.3-.3-.5c-.1-.1-.2-.2-.4-.3c-.2 0-.4-.1-.6-.1c-.2 0-.4.1-.6.1c-.1.1-.3.2-.4.3c-.1.2-.2.3-.3.5c-.1.2-.1.3-.1.5c0 .3 0 .4.1.6c.1.2.2.3.3.5c.1.1.3.2.4.2c.2.1.4.2.6.2zm13-4.6c-.04-.03 0-.3 0-.3h-5.6v-.6h6.4s-.01.87 0 .9v1.8c-.1.4-.1.7-.2 1.1c0 .4-.1.8-.2 1.3l-.8-.1c.2-.9.3-1.6.3-2.3c0-.7.1-1.3.1-1.8zm-2.4 5.3h4.2v.7h-8.3v-.7h3.2v-3.3h.9v3.3zm14.7-7.1v5.2h-.9v-5.2h.9zm-4.9 4.7c-.4 0-.7 0-1-.1c-.3-.1-.5-.3-.8-.4c-.2-.2-.3-.5-.4-.7c-.2-.3-.2-.6-.2-.9c0-.3 0-.6.2-.9c.1-.2.2-.4.4-.6c.3-.2.5-.4.8-.5c.3-.1.6-.1 1-.1c.3 0 .6 0 .9.1c.3.1.6.3.8.5c.2.2.3.4.5.6c.1.3.1.6.1.9c0 .3 0 .6-.1.9c-.2.2-.3.5-.5.7c-.2.1-.5.3-.8.4c-.3.1-.6.1-.9.1zm0-3.5c-.3 0-.5 0-.7.1c-.2.1-.3.2-.5.3c-.1.1-.2.3-.3.4c-.1.2-.1.4-.1.6c0 .2 0 .4.1.6c.1.2.2.3.3.4c.2.2.3.3.5.3c.2.1.4.2.7.2c.2 0 .4-.1.6-.2c.2 0 .3-.1.5-.3c.1-.1.2-.2.3-.4c.1-.2.1-.4.1-.6c0-.2 0-.4-.1-.6c-.1-.1-.2-.3-.3-.4c-.2-.1-.3-.2-.5-.3c-.2-.1-.4-.1-.6-.1zm3.8 4.4s.05.46 0 .5c0 .2.1.4.2.7l.3.6l.6.6c.2.1.5.2.8.3l-.4.7c-.5-.2-.9-.4-1.2-.7c-.3-.3-.5-.7-.7-1.1c-.1.4-.3.8-.6 1.1c-.3.3-.6.6-1.1.7c-.4-.1-.8-.4-1.1-.7c-.2-.3-.4-.6-.6-1c-.1.3-.4.7-.7 1c-.3.3-.6.5-1.1.7l-.4-.7c.3-.1.6-.2.8-.4c.2-.1.4-.3.6-.5c.1-.2.2-.4.3-.7c.1-.2.1-.4.1-.6c.04-.04 0-.5 0-.5h.9s-.05.46 0 .5c0 .4.1.8.3 1.2c.2.4.5.7.9.9c.2-.1.4-.3.6-.4c.2-.2.3-.4.4-.6c.1-.2.2-.4.2-.6c.1-.2.1-.4.1-.5c.03-.04 0-.5 0-.5h.8zm11.3-2v.6h-1.5v4.9h-.9V19h.9v3.7h1.5zm-7.3-2.1s-.04 4.61 0 4.6h2.1c.4-.1.7-.1 1-.1c.3-.1.7-.1 1-.2l.1.7c-.4.1-.7.1-1 .2c-.4 0-.7 0-1.1.1h-2.2c-.05.03-.8 0-.8 0v-6h4.3v.7H292zm7.8 7v-1h.9v1h-.9z" stroke="none" fill="#111111"/></g><g id="Polygon117895"><path d="m3.9 8.2h1.5v.7H1.3v-.7h1.7V2.5c0 .04-1.4 1.3-1.4 1.3l-.5-.6l2.1-1.8h.7v6.8zm3.4.7S9.6 5.97 9.6 6c.1-.2.2-.3.3-.4c0-.1.1-.2.1-.2c-.4.3-.9.5-1.4.5c-.3 0-.6-.1-.9-.2c-.2-.1-.5-.2-.6-.4c-.2-.2-.4-.4-.5-.7c-.1-.3-.2-.6-.2-.9c0-.4.1-.7.2-1c.1-.2.3-.5.5-.7c.3-.2.5-.4.8-.5c.3-.2.7-.2 1.1-.2c.3 0 .7 0 1 .2c.3.1.5.3.7.5c.2.2.4.4.5.7c.1.4.2.7.2 1.1c0 .4-.1.8-.2 1.2c-.2.3-.4.7-.7 1.1L8.4 8.9H7.3zm.1-5.3c0 .5.1.9.4 1.1c.2.3.6.4 1.1.4c.2 0 .5 0 .7-.1c.2-.1.3-.2.5-.3c.1-.2.2-.3.3-.5c0-.2.1-.4.1-.6c0-.2-.1-.4-.1-.6c-.1-.2-.2-.4-.4-.5c-.1-.1-.3-.2-.4-.3c-.2-.1-.4-.1-.7-.1c-.4 0-.8.1-1.1.4c-.3.3-.4.7-.4 1.1zm5.7 5.3s2.37-2.93 2.4-2.9c.1-.2.2-.3.2-.4c.1-.1.1-.2.2-.2c-.4.3-.9.5-1.5.5c-.2 0-.5-.1-.8-.2c-.3-.1-.5-.2-.7-.4c-.2-.2-.3-.4-.4-.7c-.2-.3-.2-.6-.2-.9c0-.4.1-.7.2-1c.1-.2.3-.5.5-.7c.2-.2.5-.4.8-.5c.3-.2.7-.2 1-.2c.4 0 .7 0 1 .2c.3.1.6.3.8.5c.2.2.4.4.5.7c.1.4.2.7.2 1.1c0 .4-.1.8-.3 1.2c-.1.3-.3.7-.6 1.1c-.03.01-2.1 2.8-2.1 2.8h-1.2zm.1-5.3c0 .5.2.9.4 1.1c.3.3.7.4 1.1.4c.3 0 .5 0 .7-.1c.2-.1.4-.2.5-.3c.2-.2.3-.3.4-.5c0-.2.1-.4.1-.6c0-.2-.1-.4-.2-.6c0-.2-.1-.4-.3-.5c-.1-.1-.3-.2-.5-.3c-.2-.1-.4-.1-.6-.1c-.5 0-.8.1-1.1.4c-.3.3-.5.7-.5 1.1zm9.8-.3c0 .9-.4 1.4-1.2 1.7c.4.2.8.4 1.1.7c.2.3.3.7.3 1.2c0 .4 0 .7-.2.9c-.1.3-.3.5-.5.7c-.2.2-.5.4-.8.5c-.3.1-.7.1-1 .1c-.4 0-.8 0-1.1-.1c-.3-.1-.6-.3-.8-.5c-.2-.2-.4-.4-.5-.7c-.2-.2-.2-.5-.2-.9c0-.5.1-.9.4-1.2c.2-.3.6-.5 1.1-.7c-.4-.1-.7-.3-.9-.6c-.2-.3-.4-.7-.4-1.1c0-.3.1-.6.2-.8c.1-.2.3-.4.5-.6c.2-.2.4-.4.7-.5c.3-.1.6-.1 1-.1c.3 0 .6 0 .9.1c.3.1.5.3.7.5c.2.2.4.4.5.6c.1.2.2.5.2.8zM20.7 2c-.5 0-.9.1-1.1.4c-.2.2-.3.6-.3.9v.5c.1.2.2.3.3.5c.1.1.2.2.4.3c.2 0 .4.1.7.1c.2 0 .4-.1.6-.1c.2-.1.3-.2.4-.3c.1-.2.2-.3.3-.5v-.5c0-.3-.1-.7-.3-.9c-.2-.3-.6-.4-1-.4zm0 6.3c.5 0 .9-.1 1.1-.3c.3-.3.4-.7.4-1.1c0-.2 0-.5-.1-.7c-.1-.1-.2-.3-.3-.4c-.2-.1-.3-.2-.5-.3c-.2 0-.4-.1-.6-.1c-.2 0-.4.1-.6.1l-.6.3c-.1.1-.2.3-.3.4c-.1.2-.1.5-.1.7c0 .4.1.8.4 1.1c.3.2.7.3 1.2.3zm10-1V4.2h-2.5v-.7h2.5V2.4h-2.5v-.7h2.5V.6h.9v6.7h-.9zm-1.5-2.4l.1.7c-.7.2-1.4.3-2.1.3c-.6 0-1.3.1-1.9.1c-.03-.03-.7 0-.7 0V1.2h.8v4.1c.6 0 1.3-.1 1.9-.1c.6-.1 1.2-.1 1.9-.3zm-2.6 3.9h5.2v.7h-6.1V6.7h.9v2.1zM40.5.9v4h-6.2v-4h.8v1.3h4.5V.9h.9zm-.9 3.3V2.8h-4.5v1.4h4.5zM41.5 6v.6h-3.7v3.1h-.9V6.6h-3.7v-.6h8.3zM49.1.5h.8v9.2h-.8v-5h-1.9v-.7h1.9V.5zm-5.4 4.1s-.04 2.21 0 2.2h2.1c.3-.1.6-.1.9-.1c.3-.1.6-.1.9-.2l.1.7c-.3.1-.7.1-1 .2h-.9c-.4.1-.7.1-1.1.1h-1.9V1.4h4.3v.7h-3.4v1.8h3v.7h-3zm12 3.5h3v.8h-5v-.6s2.54-2.5 2.5-2.5l.6-.6c.2-.2.3-.4.4-.6c.1-.1.2-.3.3-.5c.1-.2.1-.4.1-.7c0-.4-.2-.7-.4-.9c-.3-.3-.6-.4-1-.4c-.2 0-.4.1-.6.1c-.2.1-.3.2-.4.3c-.2.2-.3.3-.4.5c0 .2-.1.4-.1.6l-.9-.2l.3-.9c.1-.2.3-.4.5-.6c.3-.2.5-.3.8-.4c.3-.1.6-.2.9-.2c.3 0 .6.1.9.2c.2.1.5.2.7.4c.2.2.3.4.5.6c.1.3.1.6.1.9c0 .3 0 .6-.1.8c-.1.2-.2.5-.3.7c-.2.2-.3.4-.5.6c-.2.2-.4.5-.6.7l-2.1 2c.1 0 .3 0 .4-.1h.4zm8.1-1.9h1.1v.7h-1.1v2h-.8v-2h-3.8v-.6l3.7-4.9h.9v4.8zm-3.6 0h2.8s-.05-3.11 0-3.1v-.6c-.01-.04-2.8 3.7-2.8 3.7zm11.9 1.1V4.2h-2.6v-.7h2.6V2.4h-2.6v-.7h2.6V.6h.8v6.7h-.8zm-1.5-2.4l.1.7c-.7.2-1.4.3-2.1.3c-.6 0-1.3.1-2 .1c.04-.03-.7 0-.7 0V1.2h.9s-.02 4.06 0 4.1c.6 0 1.2-.1 1.8-.1c.7-.1 1.3-.1 2-.3zm-2.7 3.9h5.3v.7h-6.1V6.7h.8v2.1zM83.4.5h.8v5.3h-.8V2.9h-2.6v-.6h2.6V.5zM82 4.2l.1.7c-.4 0-.7.1-1.1.1c-.3.1-.6.1-1 .2h-2.1c0 .03-.7 0-.7 0V1.1h.8s.04 3.42 0 3.4c.7 0 1.4 0 2-.1c.7 0 1.3-.1 2-.2zm-3.7 5.4V6.3h5.9v3.3h-5.9zm.8-2.7v2h4.3v-2h-4.3zM92.8.5h.8v9.2h-.8V.5zm-1.9 3.8V.8h.8v8.4h-.8V5s-1.85-.04-1.9 0c-.2.5-.6 1-1 1.4c-.5.5-1 .9-1.6 1.3l-.5-.6c1-.6 1.7-1.3 2.2-2.1c.5-.8.8-1.6.9-2.6h-2.7v-.7h3.5c0 .5-.1.9-.1 1.3c-.1.5-.2.9-.4 1.3c.04-.02 1.6 0 1.6 0zM104.6.6v6.6h-.8V.6h.8zm-1.9 4.7l-.4.6c-.5-.1-1-.4-1.4-.8c-.4-.3-.7-.8-.9-1.2c-.2.5-.5.9-.9 1.3c-.4.4-.9.7-1.4.9l-.5-.6c.4-.2.7-.3 1-.5c.3-.2.5-.5.7-.7c.2-.3.4-.6.5-.9c.1-.3.2-.6.2-.9c-.05-.02 0-.5 0-.5h-2.1v-.7h5v.7h-2.1v.5c0 .3.1.6.2.9c.1.3.2.5.5.8c.2.2.4.4.7.6c.3.2.6.4.9.5zm-3.1 3.5h5.3v.7h-6.2V6.6h.9v2.2zM112 3.7v2.3h-.7V.7h.7v2.3h1.2V.5h.8v5.8h-.8V3.7H112zm-1.1-2.1v.7h-4.7v-.7h2v-1h.8v1h1.9zm-.4 2.7c0 .3 0 .5-.1.7c-.1.2-.2.3-.4.5l-.6.3c-.3.1-.5.1-.8.1c-.3 0-.6 0-.8-.1c-.3-.1-.5-.2-.6-.3c-.2-.2-.3-.3-.4-.5c-.1-.2-.2-.4-.2-.7c0-.2.1-.4.2-.6c.1-.2.2-.4.4-.5c.1-.1.3-.2.6-.3c.2-.1.5-.1.8-.1c.3 0 .5 0 .8.1l.6.3c.2.1.3.3.4.5c.1.2.1.4.1.6zm-3.1 0c0 .3.1.6.3.7c.2.2.5.3.9.3c.3 0 .6-.1.9-.3c.2-.1.3-.4.3-.7c0-.3-.1-.5-.3-.6c-.3-.2-.6-.3-.9-.3c-.4 0-.7.1-.9.3c-.2.1-.3.3-.3.6zm3.6 2.2c1 0 1.7.1 2.2.4c.6.3.9.7.9 1.2c0 .5-.3.9-.9 1.2c-.5.2-1.2.4-2.2.4c-.9 0-1.7-.2-2.2-.4c-.6-.3-.9-.7-.9-1.2c0-.5.3-.9.9-1.2c.5-.3 1.3-.4 2.2-.4zm0 2.5c.7 0 1.3 0 1.6-.2c.4-.2.6-.4.6-.7c0-.3-.2-.6-.6-.7c-.3-.2-.9-.3-1.6-.3c-.7 0-1.2.1-1.6.3c-.4.1-.6.4-.6.7c0 .3.2.5.6.7c.4.2.9.2 1.6.2zM122.4.5h.8v9.2h-.8V5.1h-1.2v4.1h-.7V.7h.7v3.7h1.2V.5zm-4.3.3v1.3h1.9v.7h-4.5v-.7h1.8V.8h.8zm-.4 2.6c.3 0 .6 0 .8.1c.3.2.5.3.6.5c.2.2.3.4.4.6c.1.3.2.6.2.9c0 .3-.1.6-.2.8c-.1.3-.2.5-.4.7c-.1.2-.3.3-.6.4c-.2.1-.5.2-.8.2c-.2 0-.5-.1-.7-.2c-.3-.1-.5-.2-.7-.4c-.1-.2-.3-.4-.4-.7c-.1-.2-.1-.5-.1-.8c0-.3 0-.6.1-.9c.1-.2.3-.4.4-.6c.2-.2.4-.3.7-.5c.2-.1.5-.1.7-.1zm0 3.5c.4 0 .7-.2.9-.4c.2-.3.4-.6.4-1c0-.2-.1-.4-.1-.6c-.1-.1-.2-.3-.3-.4c-.1-.1-.2-.2-.4-.3c-.1-.1-.3-.1-.5-.1c-.3 0-.6.1-.8.4c-.3.2-.4.6-.4 1c0 .4.1.7.4 1c.2.2.5.4.8.4zm11.5-1.5h3.7v.7h-8.2v-.7h3.7s-.02-.95 0-1c-.5 0-.8 0-1.2-.1c-.3-.1-.6-.2-.9-.4c-.2-.1-.4-.3-.5-.5c-.2-.3-.2-.5-.2-.8c0-.2 0-.5.2-.7c.1-.2.4-.4.6-.6c.3-.2.7-.3 1.1-.4c.4 0 .8-.1 1.3-.1c.5 0 .9.1 1.3.1c.4.1.8.2 1 .4c.3.2.5.4.7.6c.1.2.2.5.2.7c0 .3-.1.5-.2.8c-.1.2-.3.4-.6.5c-.2.2-.5.3-.8.4c-.4.1-.8.1-1.2.1v1zm-2.8-2.8c0 .4.2.7.7.9c.4.2 1 .3 1.7.3c.7 0 1.3-.1 1.7-.3c.4-.2.6-.5.6-.9c0-.3-.2-.6-.6-.8c-.4-.2-1-.3-1.7-.3c-.7 0-1.3.1-1.7.3c-.5.2-.7.5-.7.8zm.2 4.2v2h5.4v.7h-6.3V6.8h.9zM143.8 5l-.3.7l-1.1-.3c-.3-.2-.7-.4-1-.6c-.3-.2-.5-.5-.8-.7l-.6-.9c-.1.3-.3.6-.6.9c-.2.2-.5.5-.8.7c-.3.2-.6.4-1 .6c-.3.1-.6.2-1 .3l-.3-.7c.4-.1.8-.2 1.1-.4c.4-.2.8-.4 1.1-.7c.3-.3.6-.6.8-.9c.2-.4.3-.8.3-1.1v-.7h.9s-.04.66 0 .7c0 .3.1.7.3 1.1c.2.3.4.6.7.9c.4.3.7.5 1.1.7c.4.2.8.3 1.2.4zm-3.4 2.8h3.8v.7h-8.3v-.7h3.7V5.6h.8v2.2zm13.2-3.6v.7h-1.5v4.8h-.8V.6h.8v3.6h1.5zm-6.1-3c.4 0 .7.1 1 .3c.2.1.5.3.7.6c.2.3.3.6.5 1c.1.4.1.8.1 1.3c0 .5 0 1-.1 1.4c-.2.3-.3.7-.5 1c-.2.2-.5.5-.7.6c-.3.2-.6.2-1 .2c-.3 0-.6 0-.9-.2c-.3-.1-.5-.4-.7-.6c-.2-.3-.4-.7-.5-1c-.1-.4-.2-.9-.2-1.4c0-.5.1-.9.2-1.3c.1-.4.3-.7.5-1c.2-.3.4-.5.7-.6c.3-.2.6-.3.9-.3zm0 5.7c.2 0 .5-.1.6-.2c.2-.1.4-.3.5-.5c.1-.2.2-.5.3-.8c.1-.3.1-.6.1-1c0-.3 0-.7-.1-1c-.1-.3-.2-.5-.3-.7c-.1-.2-.3-.4-.5-.5c-.1-.1-.4-.2-.6-.2c-.2 0-.4.1-.6.2c-.2.1-.3.3-.5.5c-.1.2-.2.4-.3.7c0 .3-.1.7-.1 1c0 .4.1.7.1 1c.1.3.2.6.3.8c.2.2.3.4.5.5c.2.1.4.2.6.2zm15.2-4.1v.7h-1.3v2.3h-.9V.6h.9v2.2h1.3zm-3.5.4c0 .4 0 .7-.2.9c-.1.3-.2.5-.5.7c-.2.2-.4.3-.7.4c-.3.1-.6.2-1 .2c-.3 0-.6-.1-.9-.2c-.3-.1-.6-.2-.8-.4c-.2-.2-.4-.4-.5-.7c-.1-.2-.2-.5-.2-.9c0-.3.1-.6.2-.8c.1-.3.3-.5.5-.7c.2-.2.5-.3.8-.5c.3-.1.6-.1.9-.1c.4 0 .7 0 1 .1c.3.2.5.3.7.5c.3.2.4.4.5.7c.2.2.2.5.2.8zm-3.9 0c0 .3 0 .4.1.6c.1.2.2.4.3.5c.1.1.3.2.5.3c.2.1.4.1.6.1c.3 0 .5 0 .7-.1c.2-.1.3-.2.5-.3c.1-.1.2-.3.3-.5c.1-.2.1-.3.1-.6c0-.2 0-.4-.1-.5c-.1-.2-.2-.4-.3-.5c-.2-.1-.3-.2-.5-.3c-.2-.1-.4-.1-.7-.1c-.2 0-.4 0-.6.1c-.2.1-.4.2-.5.3c-.1.1-.2.3-.3.5c-.1.1-.1.3-.1.5zm.3 6.4V6.3h5.8v3.3h-5.8zm.8-2.7v2h4.1v-2h-4.1zm15.8-2.1s-2.29.04-2.3 0c-.2.3-.5.5-.8.7c-.3.1-.7.2-1.1.2c-.3 0-.6 0-.9-.2c-.3-.1-.5-.2-.7-.4c-.3-.2-.4-.5-.5-.8c-.2-.2-.2-.5-.2-.9c0-.3 0-.6.2-.9c.1-.3.2-.5.5-.7c.2-.2.4-.4.7-.5c.3-.1.6-.2.9-.2c.4 0 .8.1 1.1.3c.3.1.6.3.8.6c0-.02 2.3 0 2.3 0V.6h.9v6.7h-.9V4.8zm-5.7-1.4c0 .2 0 .5.1.6c.1.2.2.4.3.5c.2.2.3.3.5.4c.2 0 .4.1.6.1c.3 0 .5-.1.7-.1c.1-.1.3-.2.4-.4c.2-.1.3-.3.4-.5c0-.1.1-.4.1-.6c0-.2-.1-.4-.1-.6c-.1-.2-.2-.4-.4-.5c-.1-.1-.3-.2-.4-.3c-.2-.1-.4-.1-.7-.1c-.2 0-.4 0-.6.1c-.2.1-.3.2-.5.3c-.1.1-.2.3-.3.5c-.1.2-.1.4-.1.6zm5.7-.7s-1.94-.05-1.9 0c0 .2.1.4.1.7c0 .3-.1.5-.1.8c-.04-.03 1.9 0 1.9 0V2.7zm-4.1 6.1h5.2v.7h-6.1V6.6h.9v2.2zM183 5.1v.7h-3.7v3.9h-.9V5.8h-3.7v-.7s6.09-.03 6.1 0c.1-.7.2-1.3.2-1.8c.1-.5.1-.9.1-1.4c-.02.03 0-.1 0-.1h-5.3v-.7h6.1v2.2c-.1.5-.1 1.1-.3 1.8c.04-.03 1.4 0 1.4 0zm9.6-4.5h.9v9.1h-.9V.6zm-3.4 1.6s.04 1.14 0 1.1c0 .4.1.8.2 1.2c.2.4.3.7.6 1.1c.2.3.4.6.7.8c.3.3.7.5 1 .6l-.5.7c-.5-.2-1-.6-1.4-1.1c-.4-.5-.8-1.1-1-1.7c-.1.3-.2.7-.4 1c-.1.3-.3.6-.5.8c-.2.3-.5.5-.7.7c-.2.2-.5.4-.7.5l-.5-.6c.3-.2.6-.4.9-.7c.3-.3.6-.6.8-.9c.2-.4.4-.8.5-1.2c.1-.4.2-.8.2-1.2V2.2h-2.1v-.7h5.1v.7h-2.2zm10.7 3.7h1.9V.5h.8v7h-.8v-.9h-1.9v-.7zm-1.8-1.8c-.4 0-.7 0-.9-.1c-.3-.1-.5-.2-.7-.3c-.2-.2-.4-.3-.5-.5c-.1-.2-.2-.5-.2-.7c0-.2.1-.5.2-.7c.1-.2.3-.3.5-.5c.2-.1.4-.2.7-.3c.2-.1.5-.1.9-.1c.3 0 .6 0 .9.1c.3.1.5.2.7.3c.2.2.4.3.5.5c.1.2.1.5.1.7c0 .2 0 .5-.1.7c-.1.2-.3.3-.5.5c-.2.1-.4.2-.7.3c-.3.1-.6.1-.9.1zm0-2.6c-.5 0-.8.1-1.1.3c-.2.2-.4.4-.4.7c0 .3.2.5.4.7c.3.2.6.3 1.1.3c.4 0 .8-.1 1-.3c.3-.2.4-.4.4-.7c0-.3-.1-.5-.4-.7c-.2-.2-.6-.3-1-.3zm-.3 5.7s-.04-1.78 0-1.8c-.5 0-.9.1-1.4.1h-1.2l-.1-.7h1.4c.5 0 1 0 1.5-.1h1.5c.5-.1 1-.1 1.5-.2l.1.6c-.4.1-.8.1-1.3.2c-.4 0-.8 0-1.2.1c-.01-.02 0 1.8 0 1.8h-.8zm-.6 1.6h5.7v.7h-6.5V6.8h.8v2zM213.3.5h.8v5.4h-.8V3.5h-1.2v2.4h-.8V.7h.8v2.2h1.2V.5zm-6.4.7s3.59-.05 3.6 0c0 1.1-.3 2-.9 2.9c-.5.8-1.4 1.5-2.7 2l-.4-.6c.7-.3 1.2-.6 1.7-.9c.4-.3.7-.7 1-1.2c-.04.04-2.6.3-2.6.3l-.1-.7s2.95-.17 2.9-.2c.1-.1.1-.3.2-.5v-.5c.05.04-2.7 0-2.7 0v-.6zm1.2 8.4V6.4h6v3.2h-6zm.8-2.6v1.9h4.4V7h-4.4zM222.6.6h.8v9.1h-.8V.6zM220.8 4V.8h.8v8.4h-.8V4.8h-1.2v-.8h1.2zm-1.7-1.6v4.2h.5c.2 0 .3-.1.5-.1v.6c-.3.1-.7.2-1.1.2c-.4 0-.8.1-1.2.1h-2.2c-.01.04-.1-.7-.1-.7c0 0 .68.04.7 0h.2c.03.03 0-4.3 0-4.3h-.7v-.7h4.2v.7h-.8zm-1.9 0v4.3h1.1c.04-.03 0-4.3 0-4.3h-1.1zM232.3.6v6.6h-.9V.6h.9zm-2.5 2.8c0 .4-.1.7-.2.9c-.1.3-.3.6-.5.8c-.2.2-.5.3-.8.4c-.3.1-.6.2-.9.2c-.4 0-.7-.1-1-.2c-.3-.1-.5-.2-.7-.4c-.2-.2-.4-.5-.5-.8c-.2-.2-.2-.5-.2-.9c0-.3 0-.6.2-.9c.1-.3.3-.5.5-.7c.2-.2.4-.3.7-.5c.3-.1.6-.1 1-.1c.3 0 .6 0 .9.1c.3.2.6.3.8.5c.2.2.4.4.5.7c.1.3.2.6.2.9zm-4 0c0 .3 0 .5.1.6c.1.2.2.4.4.5c.1.2.3.3.4.4c.2 0 .4.1.7.1c.2 0 .4-.1.6-.1c.2-.1.4-.2.5-.4c.1-.1.3-.3.3-.5c.1-.1.1-.3.1-.6c0-.2 0-.4-.1-.6c0-.2-.2-.3-.3-.5c-.1-.1-.3-.2-.5-.3c-.2-.1-.4-.1-.6-.1c-.3 0-.5 0-.7.1c-.1.1-.3.2-.4.3c-.2.2-.3.3-.4.5c-.1.2-.1.4-.1.6zm1.4 5.4h5.4v.7h-6.2v-3h.8v2.3zM240.6.5h.8v9.2h-.8V.5zm-4 .7c.4 0 .7.1 1 .3c.2.1.5.3.7.6c.2.3.4.6.5 1c.1.4.1.8.1 1.3c0 .5 0 1-.1 1.4c-.1.3-.3.7-.5 1c-.2.2-.5.5-.7.6c-.3.2-.6.2-1 .2c-.3 0-.6 0-.9-.2c-.3-.1-.6-.4-.8-.6c-.2-.3-.3-.7-.4-1c-.1-.4-.2-.9-.2-1.4c0-.5.1-.9.2-1.3c.1-.4.2-.7.4-1c.2-.3.5-.5.8-.6c.3-.2.6-.3.9-.3zm0 .8c-.2 0-.4.1-.6.2c-.2.1-.3.3-.5.5c-.1.2-.2.4-.3.7c-.1.3-.1.7-.1 1c0 .4 0 .7.1 1c.1.3.2.6.3.8c.2.2.3.4.5.5c.2.1.4.2.6.2c.2 0 .4-.1.6-.2c.2-.1.4-.3.5-.5c.1-.2.3-.5.3-.8c.1-.3.1-.6.1-1c0-.3 0-.7-.1-1c0-.3-.2-.5-.3-.7c-.1-.2-.3-.4-.5-.5c-.2-.1-.4-.2-.6-.2zm15.1 2.2v.6h-1.5v4.9h-.9V.5h.9v3.7h1.5zm-7.3-2.1s-.04 4.61 0 4.6h2.1c.4-.1.7-.1 1-.1c.3-.1.7-.1 1-.2l.1.7c-.4.1-.7.1-1 .2c-.4 0-.7 0-1.1.1h-2.3c.05.03-.7 0-.7 0v-6h4.3v.7h-3.4zm7.8 7v-1h.9v1h-.9z" stroke="none" fill="#111111"/></g></svg>