<?xml version="1.0" standalone="no"?><!DOCTYPE svg PUBLIC "-//W3C//DTD SVG 1.1//EN" "http://www.w3.org/Graphics/SVG/1.1/DTD/svg11.dtd"><svg xmlns="http://www.w3.org/2000/svg" version="1.1" width="409.3px" height="26.8px" viewBox="0 -3 409.3 26.8" style="top:-3px"><desc>로보카폴리 교통안전 캠페인</desc><defs/><g id="Polygon119410"><path d="m8.7 13h6.1v1.5H.9V13h6v-2.6H2.6V5.5h8.8V3.4H2.5V2h10.6v4.9H4.3v2.1h9.2v1.4H8.7v2.6zm15.5 0h6.1v1.4H16.4V13h6.1V9.9H18v-8h1.7v2.6h7.3V1.9h1.7v8h-4.5v3.1zm-4.5-7.1v2.5h7.3V5.9h-7.3zM46.2 7v1.4h-2.3v7.9h-1.8V.9h1.8v6.1h2.3zM32.9 2.4s7 .05 7 0c0 1.2-.1 2.3-.3 3.4c-.2 1-.6 2.1-1.1 3c-.5 1-1.2 1.9-2.1 2.7c-.9.9-2 1.7-3.4 2.4l-1-1.4c1.4-.7 2.5-1.4 3.3-2.2c.8-.8 1.5-1.7 1.9-2.6c.03-.03-4.8.4-4.8.4l-.3-1.5s5.66-.33 5.7-.3c.2-.8.3-1.6.4-2.4c-.04-.02-5.3 0-5.3 0V2.4zm22.4 5.3h6.1v1.4H47.5V7.7h6.1V6.4h-4.8V5.1h2.1V2.6h-2.1V1.3h11.3v1.3H58v2.5h2v1.3h-4.7v1.3zm-2.6-5.1v2.5h3.5V2.6h-3.5zm-1.8 11v1.2h9.2v1.3H49.2v-3.7h8.8v-1h-8.8v-1.3h10.5v3.5h-8.8zM74 .9h1.8v15.4H74V.9zM65.7 8s.02 3.2 0 3.2c1.2 0 2.4-.1 3.5-.1c1.1-.1 2.3-.2 3.5-.4l.2 1.4c-.7.1-1.3.2-1.9.3c-.6.1-1.3.1-1.9.2h-3.8c-.04.05-1.3 0-1.3 0v-6h5.3V3.7h-5.4V2.3h7.2v5.7h-5.4zM93 4c.04-.04 0-.2 0-.2h-9.3V2.3h11.1s-.01 1.66 0 1.7v1.4c0 .6 0 1.1-.1 1.6c0 .6-.1 1.2-.1 1.8c-.1.7-.2 1.4-.4 2.1l-1.7-.2c.3-1.4.4-2.6.5-3.7v-3zm-1.9 8.8h5.1v1.5H82.4v-1.5h3.2V7.9h1.7v4.9h2.1V7.9h1.7v4.9zm14.6-3.9h6.1v1.5H97.9V8.9h6.1V7.7h-4.3V1.3h10.4v1.4h-8.7v1.1h8.4v1.4h-8.4v1.1h8.8v1.4h-4.5v1.2zm-.9 2.4c1.8 0 3.1.2 4 .6c.9.4 1.3 1.1 1.3 1.9c0 .8-.4 1.4-1.3 1.8c-.9.5-2.2.7-4 .7c-1.7 0-3-.2-3.9-.7c-.9-.4-1.4-1-1.4-1.8c0-.8.5-1.5 1.4-1.9c.9-.4 2.2-.6 3.9-.6zm-3.5 2.5c0 .8 1.2 1.2 3.5 1.2c2.4 0 3.6-.4 3.6-1.2c0-.8-1.2-1.2-3.6-1.2c-2.3 0-3.5.4-3.5 1.2zm24.2-8.3h2.1v1.4h-2.1v5.3h-1.8V.9h1.8v4.6zm-3.7.3c0 .5-.1 1-.3 1.5c-.2.5-.5.9-.8 1.2c-.4.4-.8.6-1.3.8c-.5.2-1.1.3-1.7.3c-.5 0-1.1-.1-1.6-.3c-.5-.2-.9-.4-1.3-.8c-.3-.3-.6-.7-.8-1.2c-.2-.5-.3-1-.3-1.5c0-.6.1-1.1.3-1.6c.2-.4.5-.8.8-1.2c.4-.3.8-.6 1.3-.8c.5-.2 1.1-.2 1.6-.2c.6 0 1.2 0 1.7.2c.5.2.9.5 1.3.8c.3.4.6.8.8 1.2c.2.5.3 1 .3 1.6zm-6.4 0c0 .3 0 .7.2.9c.1.3.2.6.5.8c.2.2.4.3.7.4c.3.2.6.2.9.2c.4 0 .7 0 1-.2c.3-.1.5-.2.7-.4c.2-.2.4-.5.5-.8c.2-.2.2-.6.2-.9c0-.4 0-.7-.2-1c-.1-.3-.3-.5-.5-.7c-.2-.2-.4-.4-.7-.5c-.3-.1-.6-.1-1-.1c-.3 0-.6 0-.9.1c-.3.1-.5.3-.7.5c-.3.2-.4.4-.5.7c-.2.3-.2.6-.2 1zm2.1 5.2v3.6h8.6v1.4h-10.4v-5h1.8zm19.7-6h2.8V.9h1.7v11.3H140V6.5h-2.8V5zm1 3.6l-.9 1.4c-.9-.3-1.6-.7-2.2-1.3c-.6-.6-1.1-1.3-1.4-2c-.3.8-.8 1.6-1.5 2.2c-.6.6-1.4 1.1-2.3 1.4l-.9-1.4c.6-.2 1.1-.4 1.6-.8c.5-.3.9-.7 1.2-1.2c.3-.4.6-.9.7-1.4c.2-.5.3-1 .3-1.5v-.5h-3.3V2.1h8.3v1.4h-3.2s-.05.51 0 .5c0 .5 0 1 .2 1.4c.2.5.4.9.7 1.3c.3.4.7.8 1.1 1.1c.5.3 1 .6 1.6.8zm-4.6 6h8.5v1.4h-10.3v-4.8h1.8v3.4zm26-13.7h1.7v9h-1.7V6.1h-1.7v3.7h-1.6V1.2h1.6v3.5h1.7V.9zm-10.5 1s6.01.02 6 0c0 1-.1 1.9-.3 2.7c-.2.8-.6 1.6-1.1 2.3c-.4.7-1.1 1.3-1.8 1.9c-.8.6-1.7 1.1-2.7 1.5l-.8-1.3c1-.4 1.8-.8 2.4-1.3c.7-.5 1.2-1.1 1.6-1.7l-3.8.4l-.2-1.4l4.7-.3c0-.2.1-.4.1-.7c.1-.2.1-.4.1-.7c.04.03-4.2 0-4.2 0V1.9zm2 14.2v-5.5h10.2v5.5h-10.2zm1.7-4.1v2.7h6.8V12h-6.8zM175.4.9h1.7v15.4h-1.7V.9zm-3 5.7V1.3h1.6v14.2h-1.6V8.2h-1.8V6.6h1.8zm-2.6-2.4s.05 6.77 0 6.8c.3-.1.5-.1.8-.1c.2 0 .4-.1.7-.1l.1 1.3c-.6.1-1.2.2-1.9.3c-.7 0-1.4.1-2 .1c-.7.1-1.3.1-1.9.1h-1.7l-.2-1.4h1.4v-7H164V2.8h7v1.4h-1.2zm-3.1 0v6.9h1.5c.05-.03 0-6.9 0-6.9h-1.5zM192.1.9v11.2h-1.8V.9h1.8zm-4.3 4.9c0 .5-.1 1-.3 1.5c-.2.5-.4.9-.8 1.2c-.4.4-.8.6-1.3.8c-.5.2-1 .3-1.6.3c-.6 0-1.1-.1-1.6-.3c-.5-.2-1-.4-1.3-.8c-.4-.3-.7-.7-.9-1.2c-.2-.5-.3-1-.3-1.5c0-.6.1-1.1.3-1.6c.2-.4.5-.9.9-1.2c.3-.3.8-.6 1.3-.8c.5-.2 1-.3 1.6-.3c.6 0 1.1.1 1.6.3c.5.2.9.5 1.3.8c.4.3.6.8.8 1.2c.2.5.3 1 .3 1.6zm-6.4 0c0 .7.2 1.2.7 1.7c.4.4 1 .6 1.7.6c.3 0 .6 0 .9-.2c.3-.1.6-.2.8-.4c.2-.2.4-.5.5-.8c.1-.3.1-.6.1-.9c0-.4 0-.7-.1-1c-.1-.3-.3-.5-.5-.7c-.2-.2-.5-.4-.8-.5c-.3-.1-.6-.1-.9-.1c-.7 0-1.3.2-1.7.6c-.5.4-.7 1-.7 1.7zm2.4 8.8h8.7v1.4H182v-5.1h1.8v3.7z" stroke="none" fill="#111111"/></g></svg>