<?xml version="1.0" standalone="no"?><!DOCTYPE svg PUBLIC "-//W3C//DTD SVG 1.1//EN" "http://www.w3.org/Graphics/SVG/1.1/DTD/svg11.dtd"><svg xmlns="http://www.w3.org/2000/svg" version="1.1" width="409.3px" height="26.8px" viewBox="0 -3 409.3 26.8" style="top:-3px"><desc>Re:Style</desc><defs/><g id="Polygon114169"><path d="m10.7 15H8.5L5.6 9.9h-2v5.1h-2V2.4s4.15.05 4.1 0c.7 0 1.3.1 1.8.2c.6.2 1.1.4 1.5.6c.4.3.7.7.9 1.2c.3.4.4 1 .4 1.7c0 1-.3 1.8-.7 2.3c-.5.6-1.2 1-1.9 1.3c-.05-.04 3 5.3 3 5.3zM3.6 4v4.3s1.91.03 1.9 0c.9 0 1.6-.2 2.1-.5c.5-.4.7-1 .7-1.7c0-.8-.2-1.3-.7-1.6c-.5-.3-1.2-.5-2.1-.5c.01.03-1.9 0-1.9 0zm12.8 11.2c-.6 0-1.2-.1-1.8-.4c-.5-.2-1-.5-1.4-.9c-.4-.4-.8-.9-1-1.5c-.2-.6-.4-1.3-.4-2.1c0-.8.2-1.5.4-2.1c.2-.6.6-1.1 1-1.5c.4-.4.8-.8 1.3-1c.5-.2 1.1-.3 1.6-.3c.6 0 1.2.1 1.7.3c.4.2.8.5 1.1.9c.4.4.6.8.8 1.4c.1.5.2 1.1.2 1.8v.6c0 .1 0 .3-.1.4h-6c0 .9.3 1.6.9 2.1c.5.5 1.1.8 2 .8c.4 0 .8-.1 1.1-.2c.4-.1.7-.3 1.1-.5l.7 1.2c-.5.3-.9.5-1.5.7c-.5.2-1.1.3-1.7.3zm-2.6-5.7h4.4c0-.9-.1-1.5-.5-1.9c-.4-.5-.9-.7-1.6-.7c-.2 0-.5.1-.8.2c-.3.1-.5.2-.7.5c-.2.2-.4.4-.6.8c-.1.3-.2.6-.2 1.1zm10-4.6v2.1h-2V4.9h2zm0 7v2.1h-2v-2.1h2zm6.3 3.3c-.8 0-1.6-.2-2.4-.5c-.8-.3-1.4-.8-2-1.4l1.1-1.3c.5.4 1 .8 1.6 1.1c.6.2 1.2.4 1.8.4c.7 0 1.3-.2 1.7-.5c.4-.3.6-.8.6-1.3c0-.3 0-.5-.1-.7c-.1-.2-.2-.4-.4-.5c-.2-.2-.4-.3-.7-.4c-.2-.2-.5-.3-.8-.4l-1.7-.8c-.3-.1-.6-.2-.9-.4c-.3-.2-.6-.4-.8-.7c-.3-.3-.5-.6-.6-.9c-.2-.4-.3-.8-.3-1.2c0-.5.1-1 .4-1.4c.2-.4.4-.8.8-1.1c.4-.3.8-.6 1.3-.7c.5-.2 1.1-.3 1.7-.3c.7 0 1.4.2 2.1.4c.6.3 1.2.7 1.7 1.2L33.1 5c-.4-.3-.8-.6-1.2-.8c-.5-.2-1-.3-1.5-.3c-.7 0-1.2.2-1.6.5c-.4.2-.5.6-.5 1.1c0 .3 0 .5.1.7c.2.2.3.4.5.5c.2.2.4.3.6.4c.3.1.5.2.8.3l1.7.8c.4.1.7.3 1 .5c.3.2.6.4.8.7c.3.3.4.6.6.9c.1.4.1.8.1 1.2c0 .5-.1 1-.3 1.5c-.2.4-.5.8-.8 1.1c-.4.3-.9.6-1.4.8c-.6.2-1.2.3-1.9.3zm9.7 0c-.5 0-1-.1-1.3-.3c-.4-.1-.7-.3-.9-.6c-.2-.3-.4-.6-.5-1.1c-.1-.4-.1-.8-.1-1.3c-.04 0 0-4.7 0-4.7h-1.4V5.7l1.4-.1l.3-2.6h1.6v2.6h2.4v1.6h-2.4v4.7c0 .6.1 1 .3 1.3c.2.3.6.4 1.1.4c.1 0 .3 0 .5-.1c.2 0 .3 0 .5-.1l.3 1.4c-.2.1-.5.2-.8.3c-.3 0-.7.1-1 .1zm11.1-9.6l-4.6 13.3h-1.9l1.4-4l-3.7-9.3h2l1.7 4.8c.1.4.3.9.4 1.3c.2.5.3.9.4 1.4c.05-.04.1 0 .1 0l.8-2.7L49 5.6h1.9zm1.5 9.4V1.4h1.9V15h-1.9zm8.5.2c-.6 0-1.2-.1-1.8-.4c-.5-.2-1-.5-1.4-.9c-.4-.4-.8-.9-1-1.5c-.2-.6-.3-1.3-.3-2.1c0-.8.1-1.5.3-2.1c.2-.6.6-1.1 1-1.5c.4-.4.8-.8 1.3-1c.5-.2 1.1-.3 1.6-.3c.6 0 1.2.1 1.7.3c.4.2.8.5 1.2.9c.3.4.5.8.7 1.4c.1.5.2 1.1.2 1.8v.6c0 .1 0 .3-.1.4h-6c.1.9.4 1.6.9 2.1c.5.5 1.1.8 2 .8c.4 0 .8-.1 1.1-.2c.4-.1.8-.3 1.1-.5l.7 1.2c-.5.3-.9.5-1.5.7c-.5.2-1.1.3-1.7.3zm-2.6-5.7h4.4c0-.9-.1-1.5-.5-1.9c-.3-.5-.9-.7-1.5-.7c-.3 0-.6.1-.9.2c-.2.1-.5.2-.7.5c-.2.2-.4.4-.6.8c-.1.3-.2.6-.2 1.1z" stroke="none" fill="#111111"/></g></svg>