<?xml version="1.0" standalone="no"?><!DOCTYPE svg PUBLIC "-//W3C//DTD SVG 1.1//EN" "http://www.w3.org/Graphics/SVG/1.1/DTD/svg11.dtd"><svg xmlns="http://www.w3.org/2000/svg" version="1.1" width="409.3px" height="26.8px" viewBox="0 -3 409.3 26.8" style="top:-3px"><desc>해양생태계 복원 및 업사이클링</desc><defs/><g id="Polygon112502"><path d="m12.3.9h1.6v15.4h-1.6V8.7h-1.7v6.9H9V1.2h1.6v6.1h1.7V.9zm-6.8.5v2h2.8v1.4H.8V3.4h2.9v-2h1.8zm-.9 4.3c.5 0 .9.1 1.4.3c.4.1.7.4 1 .7c.3.3.5.7.7 1.1c.2.4.2.9.2 1.5c0 .5 0 1-.2 1.4c-.2.5-.4.8-.7 1.1c-.3.4-.6.6-1 .8c-.5.1-.9.2-1.4.2c-.5 0-.9-.1-1.3-.2c-.4-.2-.8-.4-1.1-.8c-.3-.3-.5-.6-.7-1.1c-.1-.4-.2-.9-.2-1.4c0-.6.1-1.1.2-1.5c.2-.4.4-.8.7-1.1c.3-.3.7-.6 1.1-.7c.4-.2.8-.3 1.3-.3zm0 5.7c.5 0 1-.2 1.3-.6c.3-.4.5-.9.5-1.5c0-.7-.2-1.2-.5-1.6c-.3-.4-.8-.6-1.3-.6c-.5 0-.9.2-1.3.6c-.3.4-.5.9-.5 1.6c0 .6.2 1.1.5 1.5c.4.4.8.6 1.3.6zm25.9-6.9h-2.1v1.8h2.1v1.5h-2.1v2.1h-1.7v-9h1.7v2.1h2.1v1.5zm-5.7 1c0 .5-.1 1-.3 1.4c-.2.5-.5.9-.9 1.2c-.3.3-.8.6-1.3.8c-.5.1-1 .2-1.6.2c-.6 0-1.1-.1-1.6-.2c-.5-.2-1-.5-1.3-.8c-.4-.3-.7-.7-.9-1.2c-.2-.4-.3-.9-.3-1.4c0-.6.1-1.1.3-1.5c.2-.5.5-.9.9-1.2c.3-.3.8-.6 1.3-.7c.5-.2 1-.3 1.6-.3c.6 0 1.1.1 1.6.3c.5.1 1 .4 1.3.7c.4.3.7.7.9 1.2c.2.4.3.9.3 1.5zm-6.5 0c0 .6.2 1.2.7 1.6c.4.4 1 .6 1.7.6c.7 0 1.2-.2 1.7-.6c.4-.4.7-1 .7-1.6c0-.7-.3-1.3-.7-1.6c-.5-.4-1-.6-1.7-.6c-.7 0-1.3.2-1.7.6c-.5.4-.7.9-.7 1.6zm5.2 4.9c.8 0 1.5 0 2.1.2c.6.1 1.2.3 1.6.6c.4.2.8.5 1 .9c.3.3.4.8.4 1.2c0 .5-.1.9-.4 1.3c-.2.3-.6.6-1 .9c-.4.2-1 .4-1.6.6c-.6.1-1.3.2-2.1.2c-.8 0-1.5-.1-2.2-.2c-.6-.2-1.1-.4-1.6-.6c-.4-.3-.8-.6-1-.9c-.2-.4-.4-.8-.4-1.3c0-.4.2-.9.4-1.2c.2-.4.6-.7 1-.9c.5-.3 1-.5 1.6-.6c.7-.2 1.4-.2 2.2-.2zm0 4.5c1.1 0 1.9-.2 2.5-.4c.6-.3.8-.7.8-1.2c0-.5-.2-.9-.8-1.1c-.6-.3-1.4-.4-2.5-.4c-1.1 0-2 .1-2.6.4c-.5.2-.8.6-.8 1.1c0 .5.3.9.8 1.2c.6.2 1.5.4 2.6.4zm18.2-8.6v3.6H40V1.2h1.7v3.7h1.6v-4h1.7v9.5h-1.7V6.3h-1.6zm-2 1.7l-1 1.3c-.6-.3-1.2-.7-1.7-1.2c-.5-.4-.9-1-1.1-1.6c-.3.7-.7 1.3-1.2 1.9c-.5.6-1.1 1-1.9 1.3l-.9-1.3c.5-.2 1-.5 1.3-.9c.4-.3.8-.7 1-1.1c.3-.4.5-.8.6-1.3c.1-.4.2-.9.2-1.3V1.9h1.7v1.9c0 .4 0 .8.2 1.2c.1.5.3.8.5 1.2c.3.4.6.7 1 1c.3.3.8.6 1.3.8zm.1 2.6c.9 0 1.6.1 2.2.2c.7.2 1.2.4 1.6.6c.5.2.8.5 1.1.9c.2.3.3.7.3 1.2c0 .4-.1.8-.3 1.1c-.3.4-.6.7-1.1.9c-.4.3-.9.4-1.6.6c-.6.1-1.3.2-2.2.2c-.7 0-1.5-.1-2.1-.2c-.7-.2-1.2-.3-1.7-.6c-.4-.2-.7-.5-1-.9c-.2-.3-.4-.7-.4-1.1c0-.5.2-.9.4-1.2c.3-.4.6-.7 1-.9c.5-.2 1-.4 1.7-.6c.6-.1 1.4-.2 2.1-.2zm0 4.3c1.1 0 2-.1 2.6-.3c.6-.3.9-.7.9-1.1c0-.5-.3-.9-.9-1.1c-.6-.3-1.5-.4-2.6-.4c-1.1 0-1.9.1-2.5.4c-.6.2-.9.6-.9 1.1c0 .4.3.8.9 1.1c.6.2 1.4.3 2.5.3zM59 .9h1.6v15.4H59V8.4h-1.7v7.1h-1.7V1.2h1.7v5.8h1.7V.9zM49.8 8s-.04 3.15 0 3.2c.5 0 .9-.1 1.3-.1h1.2c.4-.1.8-.1 1.2-.1c.4-.1.7-.1 1.1-.2l.2 1.4c-.5.1-.9.2-1.3.2c-.4.1-.9.1-1.3.1c-.5.1-.9.1-1.4.1h-2.7v-10h6.1v1.4h-4.4v2.6h4.1v1.4h-4.1zM74.5.9h1.7v15.4h-1.7V.9zm-3.1 4.2V1.3h1.7v14.2h-1.7v-5.1h-2.5V8.9h2.5V6.5s-2.21-.01-2.2 0c-.4 1.3-1 2.5-1.8 3.6c-.8 1.1-2 2.1-3.4 2.9l-1-1.2c1.6-1 2.8-2.1 3.6-3.3c.8-1.3 1.2-2.7 1.3-4.3c.03.02-4.2 0-4.2 0V2.8h6c0 .4 0 .8-.1 1.2c0 .3 0 .7-.1 1.1c0-.03 1.9 0 1.9 0zm18.8 3.6h6.1v1.4h-14V8.7h6.1V7.1h-4.3V1.3h1.8v1.6h6.8V1.3h1.8v5.8h-4.3v1.6zm-4.3-4.5v1.5h6.8V4.2h-6.8zm-2 8.6v-1.4h10.6v4.9h-1.7v-3.5h-8.9zm22-2.9h3v-9h1.7v11.7h-1.7v-1.4h-3V9.9zm-3.1-3c-.5 0-1.1-.1-1.5-.2c-.5-.1-.9-.3-1.2-.5c-.4-.3-.6-.6-.8-.9c-.2-.3-.3-.7-.3-1.1c0-.4.1-.8.3-1.1c.2-.3.4-.6.8-.9c.3-.2.7-.4 1.2-.5c.4-.1 1-.2 1.5-.2c.6 0 1.1.1 1.6.2c.4.1.8.3 1.2.5c.3.3.5.6.7.9c.2.3.3.7.3 1.1c0 .4-.1.8-.3 1.1c-.2.3-.4.6-.7.9c-.4.2-.8.4-1.2.5c-.5.1-1 .2-1.6.2zm0-4.1c-.6 0-1.1.1-1.5.4c-.4.2-.6.6-.6 1c0 .4.2.8.6 1c.4.3.9.4 1.5.4c.7 0 1.2-.1 1.6-.4c.3-.2.5-.6.5-1c0-.4-.2-.8-.5-1c-.4-.3-.9-.4-1.6-.4zm-.7 9.3s.02-2.87 0-2.9c-.7.1-1.4.1-2.1.1h-1.9l-.3-1.4h2.3c.8 0 1.6-.1 2.5-.1c.8 0 1.7-.1 2.6-.1l2.5-.3l.1 1.3l-1.9.3c-.7 0-1.4.1-2 .1c-.03.03 0 3 0 3h-1.8zm-.4 2.5h9.3v1.4H99.9v-4.6h1.8v3.2zM129.8.9v8.8h-1.7V.9h1.7zm-4.5 1v6.3H118V1.9h7.3zm-1.7 5V3.3h-3.9v3.6h3.9zm6.5 5.1s-4.35-.03-4.4 0c.1.3.2.6.5.9c.2.3.6.6 1 .9c.4.3 1 .5 1.5.7c.6.2 1.3.3 2 .4l-.6 1.3c-1.2-.1-2.3-.4-3.2-.9c-.9-.4-1.6-1-2.1-1.7c-.4.7-1.1 1.3-2 1.7c-1 .5-2 .8-3.3.9l-.6-1.3c.8-.1 1.4-.2 2-.4c.6-.2 1.1-.4 1.6-.7c.4-.3.8-.5 1-.9c.3-.3.4-.6.4-.9c.05-.03-4.4 0-4.4 0v-1.4h4.4V9.2h1.8v1.4h4.4v1.4zM147.4.9h1.8v8.2h-1.8V5.9s-2.8-.02-2.8 0c-.1.4-.2.8-.5 1.2c-.2.3-.5.6-.8.9c-.3.2-.7.4-1.2.6c-.4.1-.9.2-1.4.2c-.6 0-1.1-.1-1.6-.3c-.5-.1-.9-.4-1.3-.7c-.3-.3-.6-.7-.8-1.2c-.2-.4-.3-.9-.3-1.4c0-.5.1-1 .3-1.5c.2-.4.5-.8.8-1.1c.4-.3.8-.6 1.3-.7c.5-.2 1-.3 1.6-.3c.5 0 1 .1 1.4.2c.4.1.8.3 1.2.6c.3.2.6.5.8.9c.3.3.4.7.5 1.2c0-.05 2.8 0 2.8 0V.9zm-6.7 6.4c.3 0 .6 0 .9-.1c.3-.1.5-.3.7-.5c.2-.1.4-.4.5-.6c.1-.3.2-.6.2-.9c0-.7-.2-1.2-.6-1.6c-.5-.4-1-.6-1.7-.6c-.7 0-1.2.2-1.7.6c-.4.4-.6.9-.6 1.6c0 .6.2 1.2.6 1.5c.5.4 1 .6 1.7.6zm6.8 4.3V9.9h1.7v6.2h-10V9.9h1.7v1.7h6.6zm0 3.1V13h-6.6v1.7h6.6zM166.3 7v1.4h-2.4v7.9h-1.7V.9h1.7v6.1h2.4zm-8.9-4.8v2.5c0 .7.1 1.4.3 2c.1.7.4 1.3.7 1.9c.3.6.7 1.2 1.2 1.6c.4.5 1 .9 1.5 1.2l-1 1.4c-.9-.5-1.6-1.1-2.2-1.9c-.6-.7-1-1.6-1.4-2.7c-.3 1.1-.8 2-1.4 2.9c-.6.8-1.4 1.5-2.3 1.9l-1-1.4c.6-.3 1.1-.7 1.6-1.2c.5-.4.9-1 1.2-1.6c.3-.6.6-1.3.8-2c.2-.7.3-1.4.3-2.1c-.05.01 0-2.5 0-2.5h1.7zm21-1.3h1.8v15.4h-1.8V.9zM172 2c.6 0 1.1.2 1.6.4c.5.3.9.6 1.3 1.1c.3.5.6 1 .8 1.7c.2.7.3 1.4.3 2.2c0 .9-.1 1.6-.3 2.3c-.2.7-.5 1.2-.8 1.7c-.4.5-.8.8-1.3 1.1c-.5.2-1 .4-1.6.4c-.5 0-1.1-.2-1.5-.4c-.5-.3-.9-.6-1.3-1.1c-.3-.5-.6-1-.8-1.7c-.2-.7-.3-1.4-.3-2.3c0-.8.1-1.5.3-2.2c.2-.7.5-1.2.8-1.7c.4-.5.8-.8 1.3-1.1c.4-.2 1-.4 1.5-.4zm0 1.6c-.6 0-1.2.4-1.6 1c-.4.7-.6 1.6-.6 2.8c0 1.3.2 2.2.6 2.9c.4.7 1 1 1.6 1c.7 0 1.3-.3 1.7-1c.4-.7.6-1.6.6-2.9c0-1.2-.2-2.1-.6-2.8c-.4-.6-1-1-1.7-1zM195 7c-.01.04 2 0 2 0v1.4h-13.8V7s10.04.04 10 0c.1-.3.2-.5.2-.8c0-.3.1-.6.1-.8c-.01-.01-8.8.4-8.8.4l-.2-1.4s9.08-.25 9.1-.3V2.9h-8.7V1.6h10.4v3.1L195 7zm-8.5 6.4v1.3h9.5v1.4h-11.2v-3.9h8.9V11h-9V9.6h10.7v3.8h-8.9zM211.3.9v9.4h-1.7V.9h1.7zM208 7.6l.2 1.4l-1.8.3c-.5.1-1.1.1-1.7.1c-.6.1-1.2.1-1.9.1h-3.3V5h5.2V3.3h-5.3V1.9h7.1v4.4h-5.3s.01 1.78 0 1.8c.7 0 1.3 0 1.9-.1h1.7c.5-.1 1-.1 1.6-.2c.5 0 1-.1 1.6-.2zm-1.8 3c.8 0 1.6.1 2.2.2c.7.1 1.2.3 1.7.6c.4.2.8.5 1 .9c.2.3.3.7.3 1.1c0 .5-.1.9-.3 1.2c-.2.4-.6.7-1 .9c-.5.3-1 .5-1.7.6c-.6.1-1.4.2-2.2.2c-.8 0-1.5-.1-2.1-.2c-.7-.1-1.2-.3-1.7-.6c-.4-.2-.7-.5-1-.9c-.2-.3-.3-.7-.3-1.2c0-.4.1-.8.3-1.1c.3-.4.6-.7 1-.9c.5-.3 1-.5 1.7-.6c.6-.1 1.3-.2 2.1-.2zm0 4.3c1.2 0 2-.1 2.6-.4c.6-.2.9-.6.9-1.1c0-.4-.3-.8-.9-1c-.6-.3-1.4-.4-2.6-.4c-1.1 0-1.9.1-2.5.4c-.6.2-.9.6-.9 1c0 .5.3.9.9 1.1c.6.3 1.4.4 2.5.4z" stroke="none" fill="#111111"/></g></svg>