<?xml version="1.0" standalone="no"?><!DOCTYPE svg PUBLIC "-//W3C//DTD SVG 1.1//EN" "http://www.w3.org/Graphics/SVG/1.1/DTD/svg11.dtd"><svg xmlns="http://www.w3.org/2000/svg" version="1.1" width="221px" height="17.3px" viewBox="0 -2 221 17.3" style="top:-2px"><desc>hyundaihopeonwheels.org</desc><defs/><g id="Polygon118444"><path d="m.9 8.9V.8h1v2.2s-.06 1.18-.1 1.2c.3-.3.6-.5.9-.7c.2-.2.6-.2 1-.2c.6 0 1 .1 1.3.5c.2.4.4.9.4 1.6c-.03.03 0 3.5 0 3.5h-1s.04-3.35 0-3.4c0-.5 0-.9-.2-1.1c-.2-.2-.4-.3-.8-.3c-.3 0-.6 0-.8.2c-.2.1-.4.3-.7.6c-.03.02 0 4 0 4h-1zm7.5 2.4h-.9l.9-2.4l-2.3-5.5h1s1.13 3.02 1.1 3c.1.3.2.5.3.8c.1.3.2.5.3.8c.1-.3.2-.5.2-.8c.1-.3.2-.5.3-.8c-.02.02 1-3 1-3h.9l-2.8 7.9zm5.2-2.2c-.6 0-1-.2-1.2-.6c-.3-.3-.4-.9-.4-1.6c-.04.01 0-3.5 0-3.5h.9s-.01 3.39 0 3.4c0 .5.1.9.2 1.1c.2.2.5.4.8.4c.3 0 .6-.1.8-.3c.2-.1.5-.3.7-.7c.03.02 0-3.9 0-3.9h1v5.5h-.8l-.1-.8s-.02-.03 0 0c-.3.3-.5.5-.8.7c-.3.2-.7.3-1.1.3zm4.4-.2V3.4h.8l.1.8s0-.01 0 0c.3-.3.5-.5.8-.7c.3-.2.7-.2 1.1-.2c.6 0 1 .1 1.3.5c.2.4.4.9.4 1.6c-.05.03 0 3.5 0 3.5h-1s.02-3.35 0-3.4c0-.5-.1-.9-.2-1.1c-.2-.2-.5-.3-.8-.3c-.3 0-.6 0-.8.2c-.2.1-.5.3-.7.6c-.05.02 0 4 0 4h-1zm7.9.2c-.3 0-.6-.1-.9-.2c-.3-.2-.5-.3-.7-.6c-.2-.2-.4-.5-.5-.9c-.1-.4-.1-.8-.1-1.2c0-.5 0-.9.2-1.2c.1-.4.3-.7.5-1c.2-.2.5-.4.7-.5c.3-.2.6-.2 1-.2c.3 0 .6 0 .8.1c.2.1.5.3.7.5V.8h.9v8.1h-.8l-.1-.6s.02-.02 0 0c-.2.2-.4.4-.7.5c-.3.2-.6.3-1 .3zm.2-.8c.3 0 .5-.1.8-.2c.2-.1.4-.3.7-.6V4.6c-.3-.2-.5-.3-.7-.4c-.2-.1-.5-.2-.7-.2c-.2 0-.4.1-.6.2c-.2.1-.4.2-.5.4c-.2.2-.3.4-.4.7c0 .3-.1.5-.1.9c0 .6.1 1.2.4 1.5c.3.4.7.6 1.1.6zm5.3.8c-.2 0-.4-.1-.6-.1c-.2-.1-.4-.2-.5-.4c-.2-.1-.3-.3-.4-.5c0-.2-.1-.4-.1-.7c0-.7.3-1.2.9-1.5c.6-.3 1.4-.5 2.5-.5v-.5c-.1-.2-.1-.3-.2-.4c-.1-.2-.2-.3-.4-.4c-.1 0-.3-.1-.5-.1c-.3 0-.7.1-.9.2c-.3.1-.6.2-.8.4l-.4-.7c.3-.2.6-.3 1-.4c.4-.2.8-.2 1.2-.2c.4 0 .7 0 .9.1c.3.1.5.3.6.5c.2.2.3.4.3.7c.1.3.2.6.2.9c-.04.03 0 3.4 0 3.4h-.8l-.1-.6s-.02.04 0 0c-.3.3-.6.4-.9.6c-.3.1-.6.2-1 .2zm.3-.8c.3 0 .5 0 .8-.1c.2-.1.5-.3.7-.5V6c-.5.1-.9.1-1.2.2c-.3.1-.6.1-.8.2l-.4.4c0 .2-.1.4-.1.6c0 .3.1.5.3.7c.2.1.4.2.7.2zm4.8-7v1h-.9v-1h.9zm0 7.6h-1V3.4h1v5.5zm1.5 0V.8h.9v2.2s-.03 1.18 0 1.2c.2-.3.5-.5.8-.7c.3-.2.6-.2 1-.2c.6 0 1 .1 1.3.5c.3.4.4.9.4 1.6v3.5h-.9s-.03-3.35 0-3.4c0-.5-.1-.9-.3-1.1c-.1-.2-.4-.3-.8-.3c-.3 0-.5 0-.7.2c-.3.1-.5.3-.8.6v4h-.9zm8.1.2c-.3 0-.7-.1-1-.2c-.3-.2-.5-.3-.8-.6c-.2-.2-.4-.5-.5-.9c-.2-.4-.3-.8-.3-1.2c0-.5.1-.9.3-1.3c.1-.3.3-.6.5-.9c.3-.2.5-.4.8-.6c.3-.1.7-.1 1-.1c.4 0 .7 0 1 .1c.3.2.6.4.8.6l.6.9c.1.4.2.8.2 1.3c0 .4-.1.8-.2 1.2c-.2.4-.4.7-.6.9c-.2.3-.5.4-.8.6c-.3.1-.6.2-1 .2zm0-.8c.3 0 .5-.1.7-.2c.2-.1.3-.2.5-.4c.1-.2.2-.4.3-.7c.1-.2.1-.5.1-.8c0-.3 0-.6-.1-.9c-.1-.3-.2-.5-.3-.7c-.2-.2-.3-.3-.5-.4c-.2-.1-.4-.2-.7-.2c-.2 0-.4.1-.6.2c-.2.1-.4.2-.5.4c-.2.2-.3.4-.4.7c0 .3-.1.6-.1.9c0 .3.1.6.1.8c.1.3.2.5.4.7c.1.2.3.3.5.4c.2.1.4.2.6.2zm3.8 3V3.4h.8l.1.6s.02.03 0 0c.3-.2.5-.4.8-.5c.3-.2.7-.2 1-.2c.3 0 .7 0 .9.2c.3.1.5.3.7.5c.2.3.3.6.4.9c.1.4.2.8.2 1.2c0 .5-.1.9-.2 1.2c-.1.4-.3.7-.5 1c-.3.2-.5.4-.8.6c-.3.1-.6.2-.9.2c-.3 0-.5-.1-.8-.2c-.2-.1-.5-.3-.8-.5c.05.03.1 1 .1 1v1.9h-1zm2.3-3c.5 0 .9-.2 1.2-.6c.3-.4.4-.9.4-1.6c0-.3 0-.6-.1-.8c0-.3-.1-.5-.2-.7c-.1-.2-.3-.3-.5-.4c-.2-.1-.4-.2-.6-.2c-.3 0-.5.1-.8.2c-.2.2-.5.4-.7.6v2.9c.2.2.5.4.7.5c.2.1.4.1.6.1zm6.1.8c-.4 0-.7-.1-1-.2c-.4-.2-.6-.3-.9-.6c-.2-.2-.4-.5-.6-.9c-.1-.4-.2-.8-.2-1.2c0-.5.1-.9.2-1.2c.2-.4.4-.7.6-1c.2-.2.5-.4.8-.5c.3-.2.6-.2.9-.2c.4 0 .7 0 1 .1c.2.2.5.3.7.6c.2.2.3.5.4.8c.1.3.1.7.1 1.1v.5h-3.7c0 .6.2 1.1.5 1.4c.3.3.8.5 1.3.5c.3 0 .5 0 .7-.1c.3-.1.5-.2.7-.3l.3.6c-.2.2-.5.3-.8.4c-.3.1-.6.2-1 .2zm-1.7-3.4h2.9c0-.6-.1-1-.3-1.3c-.3-.3-.6-.4-1.1-.4c-.1 0-.3 0-.5.1c-.2.1-.4.2-.5.4c-.1.1-.3.3-.4.5c-.1.2-.1.5-.1.7zm7.1 3.4c-.4 0-.7-.1-1-.2c-.3-.2-.6-.3-.8-.6c-.3-.2-.5-.5-.6-.9c-.1-.4-.2-.8-.2-1.2c0-.5.1-.9.2-1.3c.1-.3.3-.6.6-.9c.2-.2.5-.4.8-.6c.3-.1.6-.1 1-.1c.3 0 .6 0 .9.1l.9.6c.2.3.4.6.5.9c.2.4.2.8.2 1.3c0 .4 0 .8-.2 1.2c-.1.4-.3.7-.5.9c-.3.3-.6.4-.9.6c-.3.1-.6.2-.9.2zm0-.8c.2 0 .4-.1.6-.2c.2-.1.4-.2.5-.4c.2-.2.3-.4.4-.7c0-.2.1-.5.1-.8c0-.3-.1-.6-.1-.9c-.1-.3-.2-.5-.4-.7c-.1-.2-.3-.3-.5-.4c-.2-.1-.4-.2-.6-.2c-.3 0-.5.1-.7.2c-.2.1-.4.2-.5.4c-.1.2-.2.4-.3.7c-.1.3-.1.6-.1.9c0 .3 0 .6.1.8c.1.3.2.5.3.7c.1.2.3.3.5.4c.2.1.4.2.7.2zm3.8.6V3.4h.7l.1.8h.1c.2-.3.5-.5.8-.7c.3-.2.6-.2 1-.2c.6 0 1 .1 1.3.5c.3.4.4.9.4 1.6v3.5h-.9s-.02-3.35 0-3.4c0-.5-.1-.9-.3-1.1c-.1-.2-.4-.3-.8-.3c-.3 0-.5 0-.7.2c-.3.1-.5.3-.8.6v4h-.9zm6.9 0l-1.6-5.5h1s.82 3.2.8 3.2c.1.3.1.5.2.8c0 .2.1.5.1.7h.1c.1-.2.1-.5.2-.7c0-.3.1-.5.2-.8c-.02 0 .8-3.2.8-3.2h.9l.9 3.2c.1.3.1.5.2.8c.1.2.1.5.2.7c.1-.2.2-.5.2-.7c.1-.3.1-.5.2-.8c-.02 0 .8-3.2.8-3.2h.9L79 8.9h-1.1s-.84-2.95-.8-3c-.1-.2-.2-.5-.2-.7c-.1-.3-.1-.6-.2-.8h-.1c0 .2-.1.5-.1.8c-.1.2-.2.5-.2.8c-.05-.03-.8 2.9-.8 2.9h-1.1zm7.1 0V.8h.9v2.2s-.02 1.18 0 1.2c.2-.3.5-.5.8-.7c.3-.2.6-.2 1-.2c.6 0 1.1.1 1.3.5c.3.4.4.9.4 1.6v3.5h-.9s-.01-3.35 0-3.4c0-.5-.1-.9-.3-1.1c-.1-.2-.4-.3-.8-.3c-.3 0-.5 0-.7.2c-.2.1-.5.3-.8.6v4h-.9zm8.2.2c-.4 0-.7-.1-1-.2c-.4-.2-.6-.3-.9-.6c-.2-.2-.4-.5-.5-.9c-.2-.4-.2-.8-.2-1.2c0-.5 0-.9.2-1.2c.1-.4.3-.7.5-1c.3-.2.5-.4.8-.5c.3-.2.6-.2 1-.2c.3 0 .6 0 .9.1c.3.2.5.3.7.6c.2.2.3.5.4.8c.1.3.2.7.2 1.1c0 .1 0 .2-.1.2v.3H88c0 .6.2 1.1.5 1.4c.4.3.8.5 1.3.5c.3 0 .5 0 .8-.1l.6-.3l.3.6c-.2.2-.5.3-.8.4c-.3.1-.6.2-1 .2zM88 5.7h2.9c0-.6-.1-1-.3-1.3c-.3-.3-.6-.4-1-.4c-.2 0-.4 0-.6.1c-.2.1-.3.2-.5.4c-.1.1-.2.3-.3.5c-.1.2-.2.5-.2.7zm7.2 3.4c-.4 0-.8-.1-1.1-.2c-.3-.2-.6-.3-.8-.6c-.3-.2-.4-.5-.6-.9c-.1-.4-.2-.8-.2-1.2c0-.5.1-.9.2-1.2c.2-.4.3-.7.6-1c.2-.2.5-.4.8-.5c.3-.2.6-.2.9-.2c.4 0 .7 0 .9.1c.3.2.5.3.7.6c.2.2.4.5.5.8c.1.3.1.7.1 1.1v.5h-3.8c.1.6.2 1.1.6 1.4c.3.3.7.5 1.3.5c.2 0 .5 0 .7-.1c.2-.1.4-.2.7-.3l.3.6c-.3.2-.5.3-.8.4c-.3.1-.7.2-1 .2zm-1.8-3.4h3c0-.6-.1-1-.4-1.3c-.2-.3-.6-.4-1-.4c-.2 0-.4 0-.6.1c-.1.1-.3.2-.4.4c-.2.1-.3.3-.4.5c-.1.2-.2.5-.2.7zm5.9 3.2h-.9V.8h.9v8.1zm3.1.2c-.4 0-.8-.1-1.1-.3c-.4-.1-.7-.3-1-.5l.5-.6c.2.2.5.3.7.5c.3.1.6.1.9.1c.4 0 .7 0 .8-.2c.2-.2.3-.4.3-.6c0-.2 0-.3-.1-.4l-.3-.3c-.1 0-.2-.1-.4-.2c-.1 0-.3-.1-.4-.2c-.2 0-.4-.1-.6-.2l-.6-.3c-.1-.2-.3-.3-.4-.5c0-.1-.1-.3-.1-.6c0-.2 0-.4.1-.6c.1-.2.2-.3.4-.5l.6-.3c.2-.1.5-.1.8-.1c.4 0 .7 0 1 .1c.3.2.5.3.7.5l-.4.6c-.2-.2-.4-.3-.6-.4c-.2-.1-.4-.1-.7-.1c-.3 0-.6.1-.8.2c-.1.2-.2.4-.2.6c0 .1 0 .2.1.3l.3.3c.1 0 .2.1.4.2c.1 0 .3.1.4.1l.6.3l.6.3c.1.1.3.3.4.5c.1.1.1.4.1.6c0 .2 0 .5-.1.7c-.1.2-.2.3-.4.5l-.6.3c-.3.1-.6.2-.9.2zm2.6 0v-1h.9v1h-.9zm4.8 0c-.3 0-.7-.1-1-.2c-.3-.2-.5-.3-.8-.6c-.2-.2-.4-.5-.5-.9c-.2-.4-.3-.8-.3-1.2c0-.5.1-.9.3-1.3c.1-.3.3-.6.5-.9c.3-.2.5-.4.8-.6c.3-.1.7-.1 1-.1c.4 0 .7 0 1 .1c.3.2.6.4.8.6l.6.9c.1.4.2.8.2 1.3c0 .4-.1.8-.2 1.2c-.2.4-.4.7-.6.9c-.2.3-.5.4-.8.6c-.3.1-.6.2-1 .2zm0-.8c.2 0 .5-.1.7-.2c.2-.1.3-.2.5-.4c.1-.2.2-.4.3-.7c.1-.2.1-.5.1-.8c0-.3 0-.6-.1-.9c-.1-.3-.2-.5-.3-.7c-.2-.2-.3-.3-.5-.4c-.2-.1-.5-.2-.7-.2c-.2 0-.4.1-.6.2c-.2.1-.4.2-.5.4c-.2.2-.3.4-.4.7c-.1.3-.1.6-.1.9c0 .3 0 .6.1.8c.1.3.2.5.4.7c.1.2.3.3.5.4c.2.1.4.2.6.2zm3.8.6V3.4h.8l.1 1s.01.01 0 0c.2-.3.4-.6.7-.8c.3-.2.6-.3.9-.3h.3c.1 0 .2 0 .3.1l-.2.8c-.1 0-.2-.1-.3-.1h-.2c-.1 0-.3 0-.4.1c-.1 0-.3.1-.4.2c-.1.1-.2.2-.3.4c-.1.1-.2.3-.3.6c-.04-.02 0 3.5 0 3.5h-1zm5.7 2.6c-.4 0-.7 0-1-.1c-.3-.1-.5-.2-.7-.3c-.2-.1-.4-.3-.5-.5c-.1-.2-.1-.4-.1-.6c0-.2 0-.5.2-.7c.1-.2.3-.4.6-.6c-.2-.1-.3-.2-.4-.4c-.1-.1-.1-.3-.1-.5c0-.2 0-.4.2-.6c.1-.2.3-.3.4-.4v-.1c-.2-.1-.4-.3-.5-.6c-.1-.2-.2-.5-.2-.9c0-.3 0-.5.1-.8c.2-.2.3-.4.5-.6c.2-.2.4-.3.7-.4c.2-.1.5-.1.8-.1h.4c.1 0 .2.1.3.1h2v.7h-1.2c.2.1.3.3.4.5c0 .2.1.4.1.7c0 .2-.1.5-.2.7c-.1.3-.2.5-.4.7c-.2.1-.4.3-.7.3c-.2.1-.5.2-.7.2c-.3 0-.6-.1-.9-.2c-.1.1-.2.2-.2.3c-.1.1-.1.2-.1.3c0 .2 0 .4.2.5c.1.1.4.2.7.2h1.1c.7 0 1.2.1 1.5.3c.3.2.5.5.5 1c0 .2-.1.5-.2.7l-.6.6c-.2.2-.5.3-.9.4c-.3.1-.7.2-1.1.2zm0-5h.4c.1-.1.3-.2.4-.3c.1-.1.2-.3.2-.4c.1-.2.1-.4.1-.6c0-.4-.1-.7-.3-.9c-.2-.2-.5-.4-.8-.4c-.4 0-.6.2-.9.4c-.2.2-.3.5-.3.9c0 .2 0 .4.1.6c0 .1.1.3.2.4c.1.1.3.2.4.3h.5zm.1 4.4c.3 0 .5-.1.7-.1l.6-.3c.1-.1.2-.2.3-.4c.1-.1.2-.2.2-.4c0-.2-.1-.4-.3-.5c-.2-.1-.5-.2-.9-.2h-1.3c-.1 0-.2 0-.4-.1c-.1.2-.3.3-.4.5c-.1.1-.1.3-.1.5c0 .3.1.5.4.7c.3.2.7.3 1.2.3z" stroke="none" fill="#111111"/></g></svg>