<?xml version="1.0" standalone="no"?><!DOCTYPE svg PUBLIC "-//W3C//DTD SVG 1.1//EN" "http://www.w3.org/Graphics/SVG/1.1/DTD/svg11.dtd"><svg xmlns="http://www.w3.org/2000/svg" version="1.1" width="390px" height="91.3px" viewBox="0 -2 390 91.3" style="top:-2px"><desc>2019년 시작한 리스타일 캠페인으로, 친환경 패션 디자이너들과의 컬래버레이션을 통해 차량 폐기물을 업사이클링한 소재로 패션 아이템을 선보이고 있다. 2021년에는 아이오닉 5에 적용한 친환경 소재들을 활용해 ...</desc><defs/><g id="Polygon114222"><path d="m8.4 79l-.3.7l-1.1-.3l-.9-.6c-.3-.2-.6-.5-.9-.7c-.2-.3-.4-.6-.5-.9l-.6.9c-.3.2-.6.5-.9.7l-.9.6l-1.1.3l-.3-.7c.4-.1.8-.2 1.2-.4c.4-.2.7-.4 1-.7c.4-.3.6-.6.8-.9c.2-.4.3-.8.3-1.1v-.7h.9v.7c0 .3.1.7.3 1.1c.2.3.4.6.8.9c.3.3.6.5 1 .7c.4.2.8.3 1.2.4zm-3.3 2.8h3.7v.7H.5v-.7h3.7v-2.2h.9v2.2zm11.3-7.3h.8v9.2h-.8v-9.2zm-6.2.8h.9v2.4h2.6v-2.4h.8v6.2h-4.3v-6.2zm.9 3.1v2.4h2.6v-2.4h-2.6zm16.3-.2v.7h-1.5v4.8h-.8v-9.1h.8v3.6h1.5zm-5.4-2s-.02 1.14 0 1.1c0 .4 0 .8.2 1.1c.1.4.3.8.5 1.1c.2.3.4.6.7.9c.3.3.6.5.9.6l-.4.7c-.5-.2-1-.6-1.4-1.1c-.4-.5-.7-1.1-.9-1.7c-.1.3-.3.7-.4 1c-.2.3-.4.6-.6.8c-.2.3-.4.5-.6.7c-.3.2-.5.4-.8.5l-.5-.6c.4-.2.7-.4 1-.7c.3-.3.5-.6.7-1c.3-.3.4-.7.6-1.1c.1-.4.2-.8.2-1.2c-.05.04 0-1.1 0-1.1h-2.1v-.7h4.9v.7h-2zm14.6 2.1v.6h-1.5v4.8h-.8v-9.2h.8v3.8h1.5zm-8-2.8s4.15.02 4.2 0c0 .7-.1 1.3-.3 1.9c-.1.6-.4 1.2-.7 1.8c-.4.5-.8 1-1.3 1.5c-.5.5-1.2.9-1.9 1.3l-.5-.7c1.2-.6 2.1-1.3 2.8-2.2c.6-.8.9-1.8 1-2.9c.03.01-3.3 0-3.3 0v-.7zm17.4-.9h.9v4.9h-.9v-2.1s-1.82.01-1.8 0c-.1.6-.4 1-.8 1.3c-.4.3-.9.5-1.6.5c-.3 0-.6 0-.9-.2c-.3-.1-.5-.2-.7-.4c-.3-.2-.4-.4-.5-.7c-.2-.2-.2-.5-.2-.8c0-.3 0-.6.2-.9c.1-.2.2-.5.5-.6c.2-.2.4-.4.7-.5c.3-.1.6-.1.9-.1c.3 0 .6 0 .9.1c.3.1.5.2.7.4c.2.1.4.3.5.5c.1.2.2.5.3.7c-.03.02 1.8 0 1.8 0v-2.1zm-4.2 3.9c.3 0 .5 0 .7-.1c.2-.1.3-.2.5-.3c.1-.1.2-.3.3-.4c.1-.2.1-.4.1-.6c0-.2 0-.4-.1-.6c-.1-.2-.2-.3-.3-.4c-.2-.2-.3-.3-.5-.3c-.2-.1-.4-.1-.7-.1c-.2 0-.4 0-.6.1c-.2 0-.3.1-.5.3c-.1.1-.2.2-.3.4c-.1.2-.1.4-.1.6c0 .2 0 .4.1.6c.1.1.2.3.3.4c.2.1.3.2.5.3c.2.1.4.1.6.1zm4.2 2.6v-1.2h.9v3.7H41v-3.7h.9v1.2h4.1zm0 1.8v-1.2h-4.1v1.2h4.1zm11.1-4.6v.6h-1.5v4.8h-.9v-9.1h.9v3.7h1.5zm-5.5-3s-.01 1.68 0 1.7c0 .4.1.8.2 1.2c.1.4.3.7.5 1.1c.2.3.4.7.7.9c.3.3.6.5.9.7l-.5.7c-.5-.3-.9-.7-1.3-1.2c-.4-.5-.7-1-.9-1.7c-.2.7-.5 1.3-.9 1.8c-.4.5-.9 1-1.4 1.2l-.5-.6c.3-.2.6-.4.9-.7c.3-.3.6-.6.8-1c.2-.4.4-.8.5-1.2c.1-.4.2-.8.2-1.2c-.03-.02 0-1.7 0-1.7h.8zm12.8-.8h.8v9.2h-.8v-9.2zm-4 .7c.3 0 .6.1.9.3c.3.1.5.3.7.6c.2.3.4.6.5 1c.1.4.2.8.2 1.3c0 .5-.1 1-.2 1.4c-.1.3-.3.7-.5 1c-.2.2-.4.5-.7.6c-.3.2-.6.2-.9.2c-.4 0-.7 0-1-.2c-.3-.1-.5-.4-.7-.6c-.2-.3-.4-.7-.5-1c-.1-.4-.2-.9-.2-1.4c0-.5.1-.9.2-1.3c.1-.4.3-.7.5-1c.2-.3.4-.5.7-.6c.3-.2.6-.3 1-.3zm0 .8c-.3 0-.5.1-.7.2c-.1.1-.3.3-.4.5c-.2.2-.3.4-.4.7c0 .3-.1.7-.1 1c0 .4.1.7.1 1c.1.3.2.6.4.8c.1.2.3.4.4.5c.2.1.4.2.7.2c.2 0 .4-.1.6-.2c.2-.1.3-.3.5-.5c.1-.2.2-.5.3-.8c0-.3.1-.6.1-1c0-.3-.1-.7-.1-1c-.1-.3-.2-.5-.3-.7c-.2-.2-.3-.4-.5-.5c-.2-.1-.4-.2-.6-.2zm13.5 2.3c0-.02 1.2 0 1.2 0v.7h-8.2v-.7s6.15-.02 6.2 0c0-.2 0-.4.1-.6v-.6c.04.02-5.4.3-5.4.3l-.1-.7s5.58-.17 5.6-.2v-.9h-5.4v-.6h6.2v1.8c0 .5-.1.9-.2 1.5zM68.7 82v.9h5.8v.7h-6.6v-2.3h5.4v-.8h-5.4v-.7h6.3v2.2h-5.5zm14.9-7.5v5.7h-.9v-5.7h.9zm-2 4.1l.1.7c-.4.1-.7.1-1.1.2c-.3 0-.7 0-1 .1h-3.1V77h3.3v-1.2h-3.3v-.7h4.2v2.5h-3.3s-.04 1.33 0 1.3h2.2c.3 0 .6-.1 1-.1c.3 0 .7-.1 1-.2zm-1.1 1.8c.5 0 .9 0 1.3.1c.4.1.7.2 1 .3c.3.1.5.3.6.5c.1.2.2.5.2.7c0 .5-.3 1-.8 1.2c-.6.3-1.3.5-2.3.5c-.9 0-1.7-.2-2.2-.5c-.5-.2-.8-.7-.8-1.2c0-.5.2-.9.8-1.2c.5-.3 1.3-.4 2.2-.4zm0 2.6c.8 0 1.3-.1 1.7-.2c.4-.2.6-.5.6-.8c0-.3-.2-.5-.6-.7c-.4-.2-.9-.3-1.7-.3c-.7 0-1.2.1-1.6.3c-.4.2-.6.4-.6.7c0 .3.2.6.6.8c.4.1.9.2 1.6.2zm8.9-5.1c-1 0-1.8-.2-2.4-.4c-.6-.3-.8-.7-.8-1.2c0-.5.2-.9.8-1.2c.6-.3 1.4-.4 2.4-.4c1 0 1.8.1 2.3.4c.6.3.9.7.9 1.2c0 .5-.3.9-.9 1.2c-.5.2-1.3.4-2.3.4zm0-2.6c-.8 0-1.4.1-1.8.3c-.4.1-.6.4-.6.7c0 .3.2.5.6.7c.4.2 1 .2 1.8.2c.7 0 1.3 0 1.7-.2c.4-.2.6-.4.6-.7c0-.3-.2-.6-.6-.7c-.4-.2-1-.3-1.7-.3zm-4.2 3.2h8.3v.7h-8.3v-.7zm1.9 3.5v.9h5.6v.7h-6.4v-2.2h5.3v-.8h-5.4v-.7h6.3v2.1h-5.4zm14-2.6h3.7v.7h-8.3v-.7h3.7v-.9h-2.6v-3.7h6.2v.7h-5.4v.8h5.1v.6h-5.1v.9h5.4v.7h-2.7v.9zm-.5 1.4c1.1 0 1.8.1 2.4.3c.5.3.8.6.8 1.1c0 .5-.3.9-.8 1.1c-.6.3-1.3.4-2.4.4c-1 0-1.8-.1-2.3-.4c-.5-.2-.8-.6-.8-1.1c0-.5.3-.8.8-1.1c.5-.2 1.3-.3 2.3-.3zm0 2.2c.8 0 1.3 0 1.7-.2c.4-.1.6-.3.6-.6c0-.3-.2-.5-.6-.6c-.4-.2-.9-.2-1.7-.2c-.7 0-1.3 0-1.7.2c-.4.1-.6.3-.6.6c0 .3.2.5.6.6c.4.2 1 .2 1.7.2zm12-8.5h.8v9.2h-.8v-4.6h-1.1v4.1h-.8v-8.5h.8v3.7h1.1v-3.9zm-4.2.3v1.3h1.8v.7h-4.5v-.7h1.8v-1.3h.9zm-.5 2.6c.3 0 .6 0 .8.1c.3.2.5.3.6.5c.2.2.4.4.5.6c.1.3.1.6.1.9c0 .3 0 .6-.1.8c-.1.3-.3.5-.5.7c-.1.2-.3.3-.6.4c-.2.1-.5.2-.8.2c-.2 0-.5-.1-.7-.2c-.3-.1-.5-.2-.7-.4c-.1-.2-.3-.4-.4-.7c-.1-.2-.1-.5-.1-.8c0-.3 0-.6.1-.9c.1-.2.3-.4.4-.6c.2-.2.4-.3.7-.5c.2-.1.5-.1.7-.1zm0 3.5c.4 0 .7-.2.9-.4c.2-.3.4-.6.4-1c0-.2-.1-.4-.1-.6c-.1-.1-.2-.3-.3-.4c-.1-.1-.2-.2-.4-.3c-.1-.1-.3-.1-.5-.1c-.3 0-.6.1-.8.4c-.3.2-.4.6-.4 1c0 .4.1.7.4 1c.2.2.5.4.8.4zm16.1-3.5h1.4v.7H124v3.2h-.8v-6.8h.8v2.9zm-1.9 1.6l.1.7c-.3 0-.6.1-.9.1c-.3 0-.6.1-.9.1h-2.3c-.05.02-.7 0-.7 0v-4.6h4.1v.6h-3.3v1.3h3.2v.7h-3.2v1.4c.4 0 .8-.1 1.2-.1h1c.3 0 .6 0 .9-.1c.3 0 .5-.1.8-.1zm-2.9 1.7v2.1h5.2v.7h-6v-2.8h.8zm12.7-3v2.2h-.8v-5.2h.8v2.3h1.1v-2.4h.8v5.6h-.8v-2.5h-1.1zm-1.2 1.1l-.4.7c-.5-.2-.8-.4-1.1-.8c-.4-.3-.6-.6-.8-1c-.1.4-.4.8-.7 1.2c-.3.4-.7.6-1.1.8l-.5-.6c.3-.1.6-.3.8-.5c.3-.2.5-.5.6-.7c.2-.2.3-.5.4-.8c.1-.2.1-.5.1-.8c.04.05 0-1.2 0-1.2h.8s.05 1.25 0 1.2c0 .3.1.5.2.8c.1.2.2.5.3.7l.6.6c.2.2.5.3.8.4zm.1 1.6c.5 0 .9 0 1.3.1c.4.1.7.2 1 .3c.2.2.4.3.6.5c.1.2.2.5.2.7c0 .3-.1.5-.2.7c-.2.2-.4.4-.6.5c-.3.2-.6.3-1 .4c-.4 0-.8.1-1.3.1c-.4 0-.9-.1-1.2-.1c-.4-.1-.7-.2-1-.4c-.3-.1-.5-.3-.6-.5c-.2-.2-.2-.4-.2-.7c0-.2 0-.5.2-.7c.1-.2.3-.3.6-.5c.3-.1.6-.2 1-.3c.3-.1.8-.1 1.2-.1zm0 2.6c.7 0 1.3 0 1.7-.2c.4-.2.6-.4.6-.8c0-.3-.2-.5-.6-.7c-.4-.2-1-.3-1.7-.3c-.7 0-1.2.1-1.6.3c-.4.2-.6.4-.6.7c0 .4.2.6.6.8c.4.2.9.2 1.6.2zm9.9-7.3v.6h-5.4v-.6h2.3v-1.1h.8v1.1h2.3zm1.7 1.9h1.4v.7h-1.4v3.1h-.8v-6.8h.8v3zm-2.2.9c0 .3 0 .5-.1.7c-.1.3-.3.4-.5.6c-.2.1-.4.2-.7.3c-.3.1-.5.1-.9.1c-.3 0-.6 0-.9-.1c-.2-.1-.5-.2-.6-.3c-.2-.2-.4-.3-.5-.6c-.1-.2-.2-.4-.2-.7c0-.2.1-.5.2-.7c.1-.2.3-.3.5-.5c.1-.1.4-.3.6-.3c.3-.1.6-.2.9-.2c.4 0 .6.1.9.2c.3 0 .5.2.7.3c.2.2.4.3.5.5c.1.2.1.5.1.7zm-3.6 0c0 .4.2.6.4.8c.3.2.6.3 1 .3c.4 0 .8-.1 1-.3c.3-.2.4-.4.4-.8c0-.3-.1-.5-.4-.7c-.2-.2-.6-.3-1-.3c-.4 0-.7.1-1 .3c-.2.2-.4.4-.4.7zm.9 2.4v1.9h5.3v.7h-6.1v-2.6h.8zm15.7-6.4h.9v9.2h-.9v-9.2zm-5.3 4.2s.03 2.09 0 2.1c.8 0 1.5 0 2.2-.1c.7 0 1.5-.1 2.3-.2l.1.7c-.5 0-.9.1-1.2.1c-.4.1-.8.1-1.2.1c-.4 0-.7.1-1.1.1h-1.9V78h3.4v-1.9h-3.4v-.7h4.2v3.3h-3.4zm15.7.4l-.3.7c-.4 0-.7-.2-1.1-.3c-.3-.2-.7-.4-1-.6c-.3-.2-.5-.5-.8-.8c-.2-.3-.4-.6-.5-.9l-.6.9c-.3.3-.5.6-.8.8c-.3.2-.7.4-1 .6c-.4.1-.7.3-1 .3l-.4-.7c.4 0 .8-.2 1.2-.4c.4-.2.7-.4 1-.7c.4-.3.6-.6.8-1c.2-.3.3-.7.3-1.1c.02-.01 0-.7 0-.7h.9v.7c0 .4.1.7.3 1.1c.2.4.4.7.8 1c.3.3.6.5 1 .7c.4.2.8.4 1.2.4zm-7.9 2.7h8.3v.7h-8.3v-.7zm17.8-3.6v.7H172v4.8h-.9v-9.2h.9v3.7h1.5zm-7.3.4s-.04 2.2 0 2.2h1.1c.3 0 .7 0 1-.1c.3 0 .7 0 1-.1c.3 0 .6 0 1-.1v.7c-.3 0-.6.1-1 .1c-.3.1-.6.1-1 .1c-.3 0-.7.1-1.1.1h-1.9v-6.1h4.3v.7h-3.4v1.8h3.2v.7h-3.2zm15.4-4.1v4.7h-.8v-4.7h.8zm-2.6 2.4c0 .3 0 .6-.1.8c-.2.3-.3.5-.5.7c-.2.1-.5.3-.8.4c-.3.1-.6.1-.9.1c-.4 0-.7 0-1-.1c-.3-.1-.5-.3-.7-.4c-.2-.2-.4-.4-.5-.7c-.1-.2-.2-.5-.2-.8c0-.3.1-.6.2-.8c.1-.3.3-.5.5-.7c.2-.1.4-.3.7-.4c.3-.1.6-.1 1-.1c.3 0 .6 0 .9.1c.3.1.6.3.8.4c.2.2.3.4.5.7c.1.2.1.5.1.8zm-3.9 0c0 .2.1.4.1.5c.1.2.2.4.4.5c.1.1.3.2.5.3c.1 0 .3.1.6.1c.2 0 .4-.1.6-.1c.2-.1.3-.2.5-.3c.1-.1.2-.3.3-.5c.1-.1.1-.3.1-.5c0-.2 0-.4-.1-.5c-.1-.2-.2-.3-.3-.5c-.2-.1-.3-.2-.5-.2c-.2-.1-.4-.1-.6-.1c-.3 0-.5 0-.6.1c-.2 0-.4.1-.5.2c-.2.2-.3.3-.4.5c0 .1-.1.3-.1.5zm1.4 6h5.4v.7h-6.2v-2.3h5.1v-1h-5.1v-.6h5.9v2.2h-5.1v1zm15.6-3.6v-1.9h-2v-.7h2v-2.2h.8v4.8h-.8zM186 75h4.1c0 1.1-.4 2.1-1 2.9c-.7.7-1.8 1.3-3.2 1.7l-.3-.7c.8-.2 1.4-.4 1.9-.7c.5-.3.9-.7 1.2-1.1c-.03.04-3 .3-3 .3l-.1-.7s3.4-.15 3.4-.2c0-.1.1-.2.1-.4c.1-.1.1-.3.1-.4c0-.05-3.2 0-3.2 0v-.7zm1.9 7.9h5.3v.7H187v-2.3h5.1v-.9H187v-.7h5.9v2.2h-5v1zm13.6-8.3h.8v5.6h-.8v-5.6zm-1.8 5.6v-2.6h-1.2v-.7h1.2v-2.2h.8v5.5h-.8zm-.8-1.3l.1.6c-.3.1-.6.1-.9.2c-.2 0-.5 0-.8.1H195v-2.6h2.4v-1.3h-2.5v-.7h3.3v2.6h-2.4s-.03 1.34 0 1.3h1.6c.2 0 .5-.1.7-.1c.3 0 .5-.1.8-.1zm-2.8 2.5v-.7h6.2v3h-.9v-2.3h-5.3zm14.3 0v-2.9h-1.8v-.7h1.8v-1.2h-1.8v-.7h1.8v-1.4h.9v6.9h-.9zm-1.3-2.1l-.5.7c-.5-.2-.9-.5-1.3-.9c-.4-.4-.7-.8-.9-1.4c-.2.6-.4 1.1-.8 1.5c-.4.4-.9.7-1.4 1l-.5-.7c.4-.1.7-.3 1-.5c.2-.3.5-.5.7-.8c.2-.3.3-.6.5-.9c.1-.4.1-.7.1-1.1c.02.02 0-1.1 0-1.1h.9s-.04 1.12 0 1.1c0 .4 0 .7.1 1c.1.3.3.6.5.9c.2.3.4.5.7.7c.2.2.5.4.9.5zm-2.9 3.5h5.3v.7h-6.1v-2.8h.8v2.1zm15.8-8.3h.8v9.2h-.8v-9.2zm-1.9 3.3v-3.1h.8v8.5h-.8v-4.7h-1.5v-.7h1.5zm-2.4-1.5s-.03.82 0 .8c0 .4 0 .8.1 1.2c.1.4.2.8.4 1.1c.1.3.3.7.6.9c.2.3.5.5.8.7l-.5.6c-.4-.2-.8-.6-1.1-1.1c-.3-.4-.6-.9-.7-1.5c-.2.6-.4 1.2-.7 1.7c-.4.5-.8.9-1.2 1.2l-.5-.7c.3-.2.6-.4.8-.7c.3-.3.5-.6.7-1c.1-.3.2-.7.3-1.1c.1-.4.2-.9.2-1.3c-.04.02 0-.8 0-.8h-1.8v-.7h4.2v.7h-1.6zm8.6 1.1v-1.9h-1.4v-.7h6.8v.7h-1.4v1.9h1.3v.7H225v-.7h1.3zm3.1 0v-1.9h-2.2v1.9h2.2zm3 2.2h-3.7v1.1h2.7v2.9h-6.2v-2.9h2.7v-1.1h-3.7v-.6h8.2v.6zm-1.8 3.3v-1.5H226v1.5h4.6zm6.9-5c-1 0-1.8-.2-2.4-.4c-.6-.3-.8-.7-.8-1.2c0-.5.2-.9.8-1.2c.6-.3 1.4-.4 2.4-.4c1 0 1.8.1 2.3.4c.6.3.9.7.9 1.2c0 .5-.3.9-.9 1.2c-.5.2-1.3.4-2.3.4zm0-2.6c-.8 0-1.4.1-1.8.3c-.4.1-.6.4-.6.7c0 .3.2.5.6.7c.4.2 1 .2 1.8.2c.7 0 1.3 0 1.7-.2c.4-.2.6-.4.6-.7c0-.3-.2-.6-.6-.7c-.4-.2-1-.3-1.7-.3zm-4.2 3.2h8.3v.7h-8.3v-.7zm1.9 3.5v.9h5.6v.7h-6.4v-2.2h5.3v-.8h-5.4v-.7h6.3v2.1h-5.4zm16.1-7.5h.8v5.6h-.8v-5.6zm-1.1 4.5l-.4.7c-.5-.2-1-.5-1.4-.8c-.4-.4-.7-.8-.9-1.3c-.2.5-.5 1-.9 1.4c-.4.4-.9.6-1.4.8l-.5-.6c.4-.1.7-.3 1-.5c.3-.2.5-.4.7-.7c.2-.3.4-.5.5-.8c.1-.3.1-.7.1-1c.04.02 0-.3 0-.3h-2v-.7h5v.7h-2.1v.3c0 .3.1.6.2.9c.1.3.2.6.4.8c.2.3.5.5.8.7c.3.1.6.3.9.4zm-4.2 2.2v-.6h6.1v3.1h-.8v-2.5H246zm14.5-6.6h.8v4.9h-.8v-2.1h-1.8v-.6h1.8v-2.2zm-1.3 4.2l-.4.7c-.5-.2-1-.5-1.4-.9c-.4-.3-.6-.7-.9-1.2c-.1.5-.4 1-.8 1.4c-.4.4-.9.7-1.4.9l-.5-.7c.4-.1.7-.3.9-.5c.3-.2.6-.4.8-.7c.2-.2.3-.5.5-.8c.1-.3.1-.7.1-1c.02.01 0-.2 0-.2h-2v-.7h4.9v.7h-2s-.04.21 0 .2c0 .3 0 .6.1.9c.1.3.3.5.5.8c.2.2.4.4.7.6c.2.2.5.4.9.5zm1.3 2.3V80h.8v3.6h-5.8V80h.8v1.1h4.2zm0 1.8v-1.2h-4.2v1.2h4.2zm9.9-3.8l-.4.7c-.5-.2-1-.4-1.4-.8c-.4-.3-.6-.7-.8-1.1c-.2.4-.5.9-.9 1.2c-.4.4-.9.7-1.4.8l-.4-.6c.3-.1.6-.3.9-.5c.3-.1.5-.4.7-.6c.2-.2.4-.5.5-.8c.1-.3.1-.6.1-.9c.03.02 0-.2 0-.2h-2v-.6h2v-1.2h.9v1.2h2v.6h-2s-.03.22 0 .2c0 .3 0 .6.1.9c.1.2.3.5.5.7c.2.2.4.4.7.6c.3.2.6.3.9.4zm3.1-2.1v.7h-1.4v2.4h-.8v-5.5h.8v2.4h1.4zm-7.3 4.3v-.7h5.9v3.1h-.8v-2.4h-5.1zm14.3-2.2h2v.6h-8.3v-.6h2.1s-.03-1.32 0-1.3c-.8-.3-1.2-.8-1.2-1.4c0-.3.1-.5.3-.7c.1-.2.3-.4.6-.5c.3-.2.6-.3 1-.4c.4-.1.9-.1 1.4-.1c.5 0 .9 0 1.3.1c.4.1.7.2 1 .4c.3.1.5.3.6.5c.2.2.3.4.3.7c0 .3-.1.6-.3.8c-.2.2-.5.4-.8.6c-.04-.03 0 1.3 0 1.3zm-4.5-2.7c0 .3.2.6.6.8c.4.2 1 .3 1.8.3c.7 0 1.3-.1 1.7-.3c.4-.2.6-.5.6-.8c0-.3-.2-.6-.6-.8c-.4-.2-1-.2-1.7-.2c-.8 0-1.4 0-1.8.2c-.4.2-.6.5-.6.8zm1.1 1.6c-.01 0 0 1.1 0 1.1h2.5s.03-1.1 0-1.1c-.1 0-.3.1-.6.1h-1.3c-.2 0-.4-.1-.6-.1zm1.3 2.4c.9 0 1.7.2 2.3.4c.5.3.8.7.8 1.3c0 .5-.3.9-.8 1.2c-.6.2-1.4.4-2.3.4c-1 0-1.8-.2-2.3-.4c-.6-.3-.9-.7-.9-1.2c0-.6.3-1 .9-1.3c.5-.2 1.3-.4 2.3-.4zm0 2.6c.7 0 1.2 0 1.6-.2c.4-.2.6-.4.6-.7c0-.4-.2-.6-.6-.8c-.4-.1-.9-.2-1.6-.2c-.8 0-1.3.1-1.7.2c-.4.2-.6.4-.6.8c0 .3.2.5.6.7c.4.2.9.2 1.7.2zm12-8.5h.8v9.2h-.8v-4.6h-1.2v4.1h-.8v-8.5h.8v3.7h1.2v-3.9zm-4.3.3v1.3h1.8v.7h-4.5v-.7h1.9v-1.3h.8zm-.4 2.6c.3 0 .5 0 .8.1c.2.2.4.3.6.5c.1.2.3.4.4.6c.1.3.1.6.1.9c0 .3 0 .6-.1.8c-.1.3-.3.5-.4.7c-.2.2-.4.3-.6.4c-.3.1-.5.2-.8.2c-.3 0-.6-.1-.8-.2c-.3-.1-.5-.2-.6-.4c-.2-.2-.3-.4-.4-.7c-.1-.2-.2-.5-.2-.8c0-.3.1-.6.2-.9c.1-.2.2-.4.4-.6c.1-.2.3-.3.6-.5c.2-.1.5-.1.8-.1zm0 3.5c.3 0 .6-.2.8-.4c.3-.3.4-.6.4-1c0-.2 0-.4-.1-.6c-.1-.1-.2-.3-.3-.4l-.3-.3c-.2-.1-.4-.1-.5-.1c-.4 0-.7.1-.9.4c-.2.2-.3.6-.3 1c0 .4.1.7.3 1c.2.2.5.4.9.4zm13.5-2.3h3.7v.7h-8.2v-.7h3.7v-.9h-2.6v-3h.8v.9h4.4v-.9h.9v3h-2.7v.9zm-2.6-2.4v.9h4.4v-.9h-4.4zm-.1 5.9v.8h5.7v.7h-6.5v-2.2h5.4v-.7h-5.4v-.7h6.2v2.1h-5.4zm17.3-4.1l-.3.7l-1.1-.3c-.3-.1-.7-.3-.9-.4c-.3-.2-.6-.4-.8-.7c-.3-.2-.5-.5-.6-.7c-.2.2-.4.5-.6.7c-.2.3-.5.5-.8.7c-.3.1-.6.3-1 .4l-1 .3l-.3-.7c.4 0 .8-.1 1.2-.3c.4-.2.7-.4 1-.6c.3-.2.6-.5.8-.8c.1-.3.2-.6.2-.9c.03-.02 0-.5 0-.5h.9v.5c0 .3.1.6.3.9c.2.3.4.6.7.8c.3.2.7.4 1.1.6c.4.2.8.3 1.2.3zm.4 1.7v.7h-3.7v3.3h-.9v-3.3h-3.7v-.7h8.3zm10.5-5.1v5.2h-.8v-5.2h.8zm-4.9 4.7c-.4 0-.7 0-1-.1c-.3-.1-.5-.3-.7-.4c-.2-.2-.4-.5-.5-.7c-.1-.3-.2-.6-.2-.9c0-.3.1-.6.2-.9c.1-.2.3-.4.5-.6c.2-.2.4-.4.7-.5c.3-.1.6-.1 1-.1c.3 0 .6 0 .9.1c.3.1.6.3.8.5c.2.2.4.4.5.6c.1.3.2.6.2.9c0 .3-.1.6-.2.9c-.1.2-.3.5-.5.7c-.2.1-.5.3-.8.4c-.3.1-.6.1-.9.1zm0-3.5c-.2 0-.5 0-.6.1c-.2.1-.4.2-.5.3c-.2.1-.3.3-.4.4c0 .2-.1.4-.1.6c0 .2.1.4.1.6c.1.2.2.3.4.4c.1.2.3.3.5.3c.1.1.4.2.6.2c.2 0 .4-.1.6-.2c.2 0 .4-.1.5-.3c.2-.1.3-.2.3-.4c.1-.2.2-.4.2-.6c0-.2-.1-.4-.2-.6c0-.1-.1-.3-.3-.4c-.1-.1-.3-.2-.5-.3c-.2-.1-.4-.1-.6-.1zm3.9 4.4s-.02.46 0 .5c0 .2 0 .4.1.7c.1.2.2.4.4.6c.1.2.3.4.5.6c.3.1.5.2.8.3l-.4.7c-.5-.2-.8-.4-1.1-.7c-.4-.3-.6-.7-.7-1.1c-.2.4-.4.8-.7 1.1c-.3.3-.6.6-1 .7c-.5-.1-.8-.4-1.1-.7c-.3-.3-.5-.6-.6-1c-.2.3-.4.7-.7 1c-.3.3-.7.5-1.1.7l-.5-.7c.3-.1.6-.2.8-.4c.2-.1.4-.3.6-.5c.1-.2.3-.4.4-.7c0-.2.1-.4.1-.6c-.03-.04 0-.5 0-.5h.8s-.02.46 0 .5c0 .4.1.8.3 1.2c.2.4.5.7.9.9c.3-.1.5-.3.6-.4c.2-.2.3-.4.4-.6l.3-.6c0-.2.1-.4.1-.5c-.04-.04 0-.5 0-.5h.8zm7.2 1.6h3.8v.7h-8.3v-.7h3.7v-2.3h-2.7v-4.2h6.2v.7h-5.3v2.8h5.4v.7h-2.8v2.3zm9.2-2.2h3.7v.7h-8.3v-.7h3.8v-1h-2.7v-2.2h5.4v-1h-5.4v-.6h6.2v2.2h-5.4v1h5.6v.6h-2.9v1zm-3.6 2v-.6h6.3v2.6h-.8v-2h-5.5zm16.1-3.9v2.4h-.8v-5.4h.8v2.4h1.1v-2.5h.8v5.6h-.8v-2.5h-1.1zm-1.2-2.1v.7h-4.6v-.7h1.9v-1h.8v1h1.9zm-2.3 4.2c-.3 0-.6 0-.8-.1c-.2 0-.4-.1-.6-.3c-.2-.1-.3-.3-.4-.5c-.1-.2-.2-.4-.2-.6c0-.3.1-.5.2-.7c.1-.2.2-.3.4-.5l.6-.3c.2 0 .5-.1.8-.1c.3 0 .5.1.8.1l.6.3c.2.2.3.3.4.5c.1.2.1.4.1.7c0 .2 0 .4-.1.6c-.1.2-.2.4-.4.5c-.2.2-.4.3-.6.3c-.3.1-.5.1-.8.1zm0-2.5c-.4 0-.7.1-.9.3c-.2.2-.3.4-.3.7c0 .3.1.5.3.7c.2.1.5.2.9.2c.4 0 .7-.1.9-.2c.2-.2.3-.4.3-.7c0-.3-.1-.5-.3-.7c-.2-.2-.5-.3-.9-.3zm4.3 3.2v.3c0 .2 0 .4.1.7c.1.2.2.4.4.6c.2.2.3.3.6.5c.2.1.5.3.7.4l-.3.6c-.5-.2-.9-.4-1.2-.7c-.3-.3-.6-.6-.7-1c-.1.4-.4.7-.6 1c-.3.3-.7.6-1.1.8c-.4-.2-.8-.4-1.1-.7c-.2-.3-.4-.7-.6-1.1c-.1.4-.4.7-.7 1c-.3.3-.7.5-1.1.7l-.4-.6c.3-.1.5-.3.8-.4c.2-.2.4-.4.5-.6c.2-.2.3-.4.4-.6c.1-.2.1-.4.1-.6c.03-.01 0-.3 0-.3h.8s.03.29 0 .3c0 .4.1.8.3 1.1c.3.4.6.7 1 1c.2-.2.4-.3.6-.5c.1-.2.3-.3.4-.5c.1-.2.1-.4.2-.6c.1-.2.1-.3.1-.5c-.02-.01 0-.3 0-.3h.8zm11.1-2.3v.6H363v4.9h-.8v-9.2h.8v3.7h1.5zm-7.3-2.1v4.6h2.2c.3-.1.6-.1 1-.1c.3-.1.6-.1.9-.2l.1.7c-.3.1-.7.1-1 .2c-.3 0-.7 0-1 .1h-2.3c0 .03-.7 0-.7 0v-6h4.2v.7h-3.4zm7.9 7v-1h.9v1h-.9z" stroke="none" fill="#111111"/></g><g id="Polygon114221"><path d="m7.6 58h1.4v.7H7.6v2.1h-.8v-4.7h.8v1.9zm-2.4-1.6v4H.9v-4h.8v1.3h2.6v-1.3h.9zm-.9 3.3v-1.3H1.7v1.3h2.6zm-1.6 3.7v1h5.3v.7H1.9v-2.3h4.9v-.9h-5v-.7h5.8v2.2H2.7zm13 0h2.3v.7H9.7v-.7h2.3v-2.2h-1.5v-.7h1.4v-2.9h-1.4v-.7h6.7v.7h-1.4v2.9h1.4v.7h-1.5v2.2zm-3-5.8v2.9h2.3v-2.9h-2.3zm.2 3.6v2.2h1.9v-2.2h-1.9zM25.8 56h.9v9.2h-.9v-4.6h-1.1v4.1h-.8v-8.5h.8v3.7h1.1V56zm-4.2.3v1.3h1.8v.7h-4.5v-.7h1.8v-1.3h.9zm-.4 2.6c.3 0 .5 0 .8.1c.2.2.4.3.6.5c.1.2.3.4.4.6c.1.3.1.6.1.9c0 .3 0 .6-.1.8c-.1.3-.3.5-.4.7c-.2.2-.4.3-.6.4c-.3.1-.5.2-.8.2c-.3 0-.6-.1-.8-.2c-.3-.1-.5-.2-.6-.4c-.2-.2-.3-.4-.4-.7c-.1-.2-.2-.5-.2-.8c0-.3.1-.6.2-.9c.1-.2.2-.4.4-.6c.1-.2.3-.3.6-.5c.2-.1.5-.1.8-.1zm0 3.5c.3 0 .6-.2.8-.4c.3-.3.4-.6.4-1c0-.2-.1-.4-.1-.6c-.1-.1-.2-.3-.3-.4l-.3-.3c-.2-.1-.4-.1-.5-.1c-.4 0-.7.1-.9.4c-.2.2-.3.6-.3 1c0 .4.1.7.3 1c.2.2.5.4.9.4zm17.4-2.5v.7h-1.4v4.6h-.8V56h.8v3.9h1.4zm-2.9-2.7v.6h-5.5v-.6h2.3v-1.1h.9v1.1h2.3zm-2.3 4.5v1c.4 0 .8-.1 1.2-.1c.4 0 .8-.1 1.2-.1l.1.6c-.5.1-1 .1-1.5.2c-.5 0-1 .1-1.5.1c-.5 0-1 0-1.4.1h-1.3l-.1-.7c.3 0 .7 0 1.1-.1h1.3v-1c-.5 0-.9-.2-1.2-.5c-.3-.3-.5-.7-.5-1.2c0-.2 0-.4.2-.6c.1-.3.2-.4.4-.6c.2-.1.4-.2.7-.3c.2-.1.5-.1.9-.1c.3 0 .6 0 .8.1c.3.1.5.2.7.3c.2.2.4.3.5.6c.1.2.1.4.1.6c0 .5-.1.9-.5 1.2c-.3.3-.7.5-1.2.5zM31.6 60c0 .4.1.6.4.8c.2.2.5.3 1 .3c.4 0 .7-.1.9-.3c.3-.2.4-.4.4-.8c0-.3-.1-.5-.4-.7c-.2-.2-.5-.3-.9-.3c-.5 0-.8.1-1 .3c-.3.2-.4.4-.4.7zm14.7-4h.8v9.2h-.8V56zm-1.8 3.3v-3.1h.8v8.5h-.8V60H43v-.7h1.5zM42 57.8s.02.82 0 .8c0 .4.1.8.2 1.2c0 .4.2.8.3 1.1c.2.3.4.7.6.9c.3.3.6.5.9.7l-.5.6c-.5-.2-.9-.6-1.2-1.1c-.3-.4-.5-.9-.7-1.5c-.1.6-.4 1.2-.7 1.7c-.3.5-.7.9-1.2 1.2l-.5-.7c.3-.2.6-.4.9-.7c.2-.3.4-.6.6-1c.2-.3.3-.7.4-1.1c.1-.4.1-.9.1-1.3c.02.02 0-.8 0-.8h-1.7v-.7h4.2v.7H42zm12.9-.2v-.7h-5.3v-.6h6.2v1.9h-5.4v.8h5.5v.6h-6.3v-2h5.3zm-6.4 2.7h8.3v.6h-8.3v-.6zm1.9 3.3v.9h5.7v.6h-6.6V63h5.5v-.7h-5.5v-.6h6.3v1.9h-5.4zm13.9-.3h3.8v.7h-8.3v-.7h3.7v-2.2h-2.7v-4.3h6.3v4.3h-2.8v2.2zm-2.7-5.8v2.9h4.6v-2.9h-4.6zm14.5.7h1.3v.7h-1.3v2.4h-.9V56h.9v2.2zm-4.6 2.7c-.3 0-.6-.1-.9-.2c-.3-.1-.6-.2-.8-.4c-.2-.2-.4-.4-.5-.7c-.1-.3-.2-.5-.2-.9c0-.3.1-.6.2-.8c.1-.3.3-.5.5-.7c.2-.2.5-.4.8-.5c.3-.1.6-.1.9-.1c.4 0 .7 0 1 .1c.3.1.5.3.7.5c.2.2.4.4.5.7c.1.2.2.5.2.8c0 .4-.1.6-.2.9c-.1.3-.3.5-.5.7c-.2.2-.4.3-.7.4c-.3.1-.6.2-1 .2zm0-3.6c-.2 0-.4 0-.6.1c-.2.1-.4.2-.5.3c-.1.1-.3.3-.3.4c-.1.2-.1.4-.1.6c0 .2 0 .4.1.6c0 .2.2.4.3.5c.1.1.3.2.5.3c.2 0 .4.1.6.1c.2 0 .5-.1.6-.1c.2-.1.4-.2.5-.3c.2-.1.3-.3.4-.5c.1-.2.1-.4.1-.6c0-.2 0-.4-.1-.6c-.1-.1-.2-.3-.4-.4c-.1-.1-.3-.2-.5-.3c-.1-.1-.4-.1-.6-.1zm3.8 4.4s.05.45 0 .5c0 .2.1.4.2.7l.3.6l.6.6c.2.1.5.3.8.4l-.4.6c-.5-.2-.9-.4-1.2-.7c-.3-.3-.5-.7-.7-1.1c-.1.4-.3.8-.6 1.1c-.3.3-.6.6-1.1.8c-.4-.2-.8-.5-1-.8c-.3-.3-.5-.6-.6-1c-.2.3-.4.7-.8 1c-.3.3-.6.5-1.1.7l-.4-.6c.3-.1.6-.3.8-.5c.2-.1.4-.3.6-.5c.1-.2.3-.4.3-.7c.1-.2.2-.4.2-.6c-.05-.05 0-.5 0-.5h.8s-.04.45 0 .5c0 .4.1.8.3 1.2c.2.4.5.7.9.9c.2-.1.4-.2.6-.4c.2-.2.3-.4.4-.6c.1-.2.2-.4.2-.6c.1-.2.1-.4.1-.5c.03-.05 0-.5 0-.5h.8zm11.4-2v.6h-1.5v4.9h-.9V56h.9v3.7h1.5zm-7.3-2.1s-.03 4.61 0 4.6h2.1c.4-.1.7-.1 1-.1c.3-.1.7-.1 1-.2l.1.7c-.4.1-.7.1-1 .2c-.4 0-.7 0-1.1.1h-2.2c-.05.03-.8 0-.8 0v-6h4.3v.7h-3.4zm7.8 7v-1h.9v1h-.9zm12-4.3v.7h-3.3v-4.1h3.2v.7h-2.4v2.7h2.5zm-3.8-.3l.1.7c-.5.1-1 .2-1.4.2c-.4 0-.9.1-1.3.1c-.03-.04-.5 0-.5 0v-4.1h3v.7h-2.2v2.7c.4 0 .8-.1 1.1-.1c.4 0 .8-.1 1.2-.2zm.7 3.3h3.7v.7h-8.3v-.7h3.8v-1.9h.8v1.9zm10.1-6.1v.6h-5.4v-.6h2.2v-1.1h.9v1.1h2.3zm1.6 1.9h1.4v.7h-1.4v3.1h-.8v-6.8h.8v3zm-2.2.9c0 .3 0 .5-.1.7c-.1.3-.3.4-.5.6c-.2.1-.4.2-.7.3c-.2.1-.5.1-.9.1c-.3 0-.6 0-.8-.1c-.3-.1-.5-.2-.7-.3c-.2-.2-.4-.3-.5-.6c-.1-.2-.1-.4-.1-.7c0-.2 0-.5.1-.7c.1-.2.3-.3.5-.5c.2-.1.4-.3.7-.3c.2-.1.5-.2.8-.2c.4 0 .7.1.9.2c.3 0 .5.2.7.3c.2.2.4.3.5.5c.1.2.1.5.1.7zm-3.5 0c0 .4.1.6.3.8c.3.2.6.3 1 .3c.5 0 .8-.1 1.1-.3c.2-.2.3-.4.3-.8c0-.3-.1-.5-.3-.7c-.3-.2-.6-.3-1.1-.3c-.4 0-.7.1-1 .3c-.2.2-.3.4-.3.7zm.9 2.4v1.9h5.2v.7h-6.1v-2.6h.9zm16-3c.01.05 1.3 0 1.3 0v.7H112v-.7s6.18.05 6.2 0c.1-.5.1-.9.2-1.3v-1H113v-.7h6.2s.02.61 0 .6v1.1c0 .4-.1.8-.2 1.3zm-5.2 3.9v1.1h5.7v.7H113v-2.4h5.4v-1H113v-.7h6.2v2.3h-5.4zm11.9.1h3.8v.7h-8.3v-.7h3.7v-1.7h-2.7v-2.9h5.4v-1.4h-5.4v-.7h6.2v2.8H123v1.5h5.7v.7h-3v1.7zm9.2-4.6v1.6h-4.1v-3.9h.8v1.3h2.5v-1.3h.8v1.6h2.1v-2h.9v4.7h-.9v-2h-2.1zm-.8 1v-1.4h-2.5v1.4h2.5zm-1.3 4.6h5.4v.7H132v-2.3h5v-.9h-5v-.6h5.9v2.1h-5.1v1zm16-8v4h-6.2v-4h.9v1.3h4.5v-1.3h.8zm-.8 3.3v-1.4h-4.5v1.4h4.5zm1.9 1.8v.6h-3.8v3.1h-.8v-3.1h-3.7v-.6h8.3zm7.6-5.5h.8v9.2h-.8V56zm-5.3 4.1s-.01 2.2 0 2.2h1.2c.3 0 .7 0 1-.1h1c.3-.1.7-.1 1-.2l.1.7c-.4 0-.7.1-1.1.1c-.3.1-.6.1-1 .1c-.3 0-.7.1-1.1.1h-1.9v-6.1h4.4v.7h-3.6v1.8h3.3v.7h-3.3zm8.5-.3l5.7-.3v-.7c.01-.01 0-1.1 0-1.1H161v-.7h6.2s.03 1.09 0 1.1v2c0 .4-.1.8-.1 1.2c-.1.4-.2.8-.3 1.3l-.8-.1c.1-.5.2-.9.2-1.3c.1-.3.1-.7.2-1.1c-.04.04-5.6.3-5.6.3l-.1-.6zm-.7 3.4h8.2v.7H160v-.7zm11.6 2.4l-.6.3c-.4-.8-.8-1.6-1.1-2.4c-.2-.8-.4-1.8-.4-2.8c0-1 .2-1.9.4-2.8c.3-.8.7-1.6 1.1-2.4l.6.3c-.4.7-.8 1.5-1 2.3c-.2.9-.3 1.7-.3 2.6c0 .9.1 1.8.3 2.6c.2.8.6 1.6 1 2.3zm9.3-5.9v.7h-1.5v4.8h-.8v-9.1h.8v3.6h1.5zm-4.3-2s.02 4.4 0 4.4c.3 0 .5 0 .7-.1h.7l.1.6c-.5.1-1 .1-1.5.2c-.5 0-1 0-1.5.1h-2.7c-.02.03-.1-.7-.1-.7c0 0 .87.02.9 0h.3v-4.5h-1v-.7h5.1v.7h-1zm-2.3 0v4.5h1.5v-4.5h-1.5zm13.9-1.7h.9v9.2h-.9V56zm-5.3 4.2s.04 2.09 0 2.1c.8 0 1.5 0 2.2-.1c.7 0 1.5-.1 2.3-.2l.1.7c-.4 0-.8.1-1.2.1c-.4.1-.8.1-1.2.1c-.3 0-.7.1-1.1.1h-1.9v-3.5h3.4v-1.9h-3.4v-.7h4.2v3.3h-3.4zm16.9-4.2h.8v9.2h-.8V56zm-1.8 3.3v-3h.7v8.4h-.7V60h-1.2v-.7h1.2zm-4.1.9s.04 2.04 0 2h1.6c.5 0 1-.1 1.6-.2l.1.7c-.6.1-1.2.2-1.8.2h-1.7c.04.05-.6 0-.6 0v-3.3h2.5v-1.9h-2.5v-.6h3.3v3.1h-2.5zm15.1-.4c.03-.02 1.3 0 1.3 0v.7H202v-.7s6.18-.02 6.2 0c0-.2.1-.4.1-.6c0-.2 0-.4.1-.6c-.04.02-5.5.3-5.5.3l-.1-.7s5.61-.17 5.6-.2v-.2c.02.01 0-.7 0-.7h-5.3v-.6h6.1s.04.67 0 .7v1.1c0 .5-.1.9-.2 1.5zm-5.2 3.7v.9h5.8v.7H203v-2.3h5.5v-.8H203v-.7h6.3v2.2h-5.5zm14.4-7.5h.8v9.2h-.8V56zm-1.9 3.3v-3h.8v8.4h-.8V60h-1.1v-.7h1.1zm-4 .9v2h1.6c.5 0 1-.1 1.6-.2l.1.7c-.7.1-1.3.2-1.8.2h-1.7c0 .05-.6 0-.6 0v-3.3h2.4v-1.9h-2.4v-.6h3.2v3.1h-2.4zm14.8-4.2h.8v9.2h-.8v-5h-2c0 .5-.1.9-.2 1.2c-.1.4-.3.7-.5.9c-.2.3-.4.5-.7.6c-.3.2-.6.2-.9.2c-.3 0-.6 0-.9-.2c-.3-.1-.5-.4-.7-.6c-.2-.3-.4-.7-.5-1c-.1-.4-.2-.9-.2-1.4c0-.5.1-.9.2-1.3c.1-.4.3-.7.5-1c.2-.3.4-.5.7-.6c.3-.2.6-.3.9-.3c.3 0 .6.1.9.2c.2.2.5.4.7.6c.2.2.3.5.4.9c.2.3.2.7.3 1.1c-.02.03 2 0 2 0V56zm-4.3 6.4c.2 0 .4-.1.6-.2c.2-.1.4-.3.5-.5c.1-.2.2-.5.3-.8c.1-.3.1-.6.1-1c0-.3 0-.7-.1-1c-.1-.3-.2-.5-.3-.7c-.1-.2-.3-.4-.5-.5c-.2-.1-.4-.2-.6-.2c-.2 0-.4.1-.6.2c-.2.1-.3.3-.5.5c-.1.2-.2.4-.3.7c0 .3-.1.7-.1 1c0 .4.1.7.1 1c.1.3.2.6.3.8c.2.2.3.4.5.5c.2.1.4.2.6.2zm6.3 3.4l3.1-10h.7l-3.1 10h-.7zM240 56h.9v9.2h-.9v-5.4h-2.1v-.7h2.1V56zm-3.5.8s.05 1.67 0 1.7c0 .4.1.8.2 1.2c.2.4.3.8.5 1.1c.2.4.5.7.8 1c.3.3.6.5.9.6l-.5.7c-.5-.3-.9-.7-1.3-1.2c-.5-.5-.8-1.1-1-1.7c-.2.7-.5 1.3-.9 1.8c-.4.6-.8 1-1.3 1.3l-.6-.7c.4-.2.7-.4 1-.7c.3-.3.5-.6.7-1c.2-.4.4-.7.5-1.2c.1-.4.2-.8.2-1.2c.01-.03 0-1.7 0-1.7h.8zm10.2 2.5c-1.1 0-1.8-.1-2.4-.4c-.6-.3-.9-.6-.9-1.2c0-.5.3-.9.9-1.1c.6-.3 1.3-.5 2.4-.5c1 0 1.8.2 2.3.5c.6.2.9.6.9 1.1c0 .6-.3.9-.9 1.2c-.5.3-1.3.4-2.3.4zm0-2.5c-.8 0-1.4.1-1.8.2c-.4.2-.6.4-.6.7c0 .3.2.6.6.7c.4.2 1 .3 1.8.3c.7 0 1.3-.1 1.7-.3c.4-.1.6-.4.6-.7c0-.3-.2-.5-.6-.7c-.4-.1-1-.2-1.7-.2zm4.1 3.8h-3.7v.8h2.6v2.1h-5.3v.9h5.6v.7h-6.5v-2.2h5.4v-.8h-5.4v-.7h2.7v-.8h-3.7v-.7h8.3v.7zm10.2-4.3v3.7h-6.1v-3.7h.8v1.2h4.5v-1.2h.8zm-.8 3v-1.2h-4.5v1.2h4.5zm-6.4 1.6h8.3v.6h-3.7v1.8h-.8v-1.8h-3.8v-.6zm1.9 1.6v1.8h5.4v.7h-6.3v-2.5h.9zm14-6.5h.8v9.2h-.8V60H267v-.6h2.7V56zm-5.4 1.6s-.04 4.64 0 4.6h2.1c.3 0 .6-.1.9-.1c.3 0 .6-.1.9-.2l.1.7c-.3.1-.7.2-1 .2c-.3 0-.6.1-.9.1h-2.3c.03.05-.7 0-.7 0v-6h4.2v.7h-3.3zm16.3.4h-1.4v1.1h1.4v.7h-1.4v1.3h-.8v-5h.8v1.2h1.4v.7zm-3.1 2.2l-.5.6c-.5-.2-.9-.4-1.3-.8c-.4-.4-.7-.8-.9-1.2c-.2.5-.5.9-.8 1.3c-.4.4-.9.7-1.4.9l-.5-.6c.4-.1.7-.3 1-.5l.7-.7c.2-.3.3-.6.4-.9c.1-.3.2-.6.2-1c-.01.04 0-.9 0-.9h.8s.03.93 0 .9c0 .3.1.6.2.9c.1.3.3.6.4.8c.2.3.5.5.8.7c.2.2.5.3.9.5zm.9 2.4v-1.1h.8v3.6h-5.7v-3.6h.8v1.1h4.1zm0 1.8v-1.1h-4.1v1.1h4.1zm3.4 1.4l-.6-.2c.5-.8.8-1.6 1-2.4c.2-.8.3-1.7.3-2.5c0-.9-.1-1.8-.3-2.6c-.2-.8-.5-1.6-1-2.4l.6-.2c.5.7.8 1.5 1.1 2.4c.3.8.4 1.7.4 2.8c0 1-.1 1.9-.4 2.7c-.3.9-.6 1.7-1.1 2.4zm11.3-6v.7h-1.5v4.7h-.8V56h.8v3.8h1.5zm-5.4 1.1v1.6c.4-.1.9-.1 1.3-.1c.4-.1.8-.1 1.2-.1l.1.6c-.5 0-1 .1-1.5.2c-.5 0-1 0-1.5.1h-2.7l-.1-.7h2.4v-1.6c-.3 0-.6-.1-.8-.2c-.3-.1-.5-.3-.7-.5c-.1-.2-.3-.4-.4-.6c-.1-.3-.1-.5-.1-.8c0-.3 0-.6.2-.9c.1-.3.2-.5.5-.7c.2-.2.4-.3.7-.4c.3-.1.6-.2 1-.2c.3 0 .7.1 1 .2c.3.1.5.2.7.4c.2.2.4.4.5.7c.2.3.2.6.2.9c0 .3 0 .5-.1.8c-.1.2-.3.4-.4.6c-.2.2-.4.3-.7.5c-.2.1-.5.2-.8.2zm-2-2.1c0 .4.1.8.4 1c.3.3.7.4 1.2.4c.5 0 .9-.1 1.2-.4c.3-.2.4-.6.4-1c0-.2 0-.4-.1-.6c-.1-.2-.2-.3-.3-.5c-.2-.1-.4-.2-.5-.3c-.2 0-.5-.1-.7-.1c-.2 0-.5.1-.7.1c-.1.1-.3.2-.5.3c-.1.2-.2.3-.3.5c-.1.2-.1.4-.1.6zm14.7-2.8h.8v9.2h-.8V56zm-3.7.7c.4 0 .7.1 1 .2c.3.1.6.2.8.4c.2.2.4.4.5.7c.1.3.2.5.2.9c0 .3-.1.6-.2.8c-.1.3-.3.5-.5.7c-.2.2-.5.4-.8.5c-.3.1-.6.1-1 .1c-.3 0-.7 0-1-.1c-.3-.1-.5-.3-.7-.5c-.3-.2-.4-.4-.5-.7c-.2-.2-.2-.5-.2-.8c0-.4 0-.6.2-.9c.1-.3.2-.5.5-.7c.2-.2.4-.3.7-.4c.3-.1.7-.2 1-.2zm0 .7c-.2 0-.4.1-.6.1l-.6.3c-.1.2-.2.3-.3.5c-.1.2-.1.3-.1.6c0 .2 0 .4.1.5c.1.2.2.4.3.5l.6.3c.2.1.4.1.6.1c.3 0 .5 0 .7-.1c.2-.1.3-.2.5-.3c.1-.1.2-.3.3-.5c.1-.1.1-.3.1-.5c0-.3 0-.4-.1-.6c-.1-.2-.2-.3-.3-.5c-.2-.1-.3-.2-.5-.3c-.2 0-.4-.1-.7-.1zm-2.8 5.8l-.1-.7h1.4c.4 0 .9 0 1.5-.1h1.5c.5-.1 1.1-.1 1.6-.2v.6c-.5.1-1 .2-1.5.2c-.6.1-1.1.1-1.6.1c-.5.1-1 .1-1.5.1h-1.3zm16.3-6.2v.6H305v-.6h2.2v-1.1h.8v1.1h2.2zm1.5-.9h.8v5.3h-.8v-.8h-1.5v-.6h1.5v-1.1h-1.5v-.7h1.5v-2.1zm-2 3.6c0 .3-.1.5-.2.7c-.1.2-.2.4-.4.5c-.2.2-.4.3-.6.4c-.3 0-.6.1-.9.1c-.3 0-.6-.1-.8-.1c-.3-.1-.5-.2-.7-.4c-.2-.1-.3-.3-.4-.5c-.1-.2-.1-.4-.1-.7c0-.2 0-.4.1-.6c.1-.2.2-.4.4-.6c.2-.1.4-.2.7-.3c.2-.1.5-.1.8-.1c.3 0 .6 0 .9.1l.6.3c.2.2.3.4.4.6c.1.2.2.4.2.6zm-3.4 0c0 .3.2.6.4.8c.2.2.5.2.9.2c.4 0 .7 0 1-.2c.2-.2.3-.5.3-.8c0-.3-.1-.5-.3-.7c-.3-.2-.6-.3-1-.3c-.4 0-.7.1-.9.3c-.2.2-.4.4-.4.7zm5.4 3.1v-.9h.8v3.2h-5.9v-3.2h.8v.9h4.3zm0 1.6v-1h-4.3v1h4.3zm9.2-8.3h.8v4.9h-.8v-2.1H319c-.1.6-.3 1-.7 1.3c-.4.3-1 .5-1.6.5c-.4 0-.7 0-1-.2c-.2-.1-.5-.2-.7-.4c-.2-.2-.4-.4-.5-.7c-.1-.2-.2-.5-.2-.8c0-.3.1-.6.2-.9c.1-.2.3-.5.5-.6c.2-.2.5-.4.7-.5c.3-.1.6-.1 1-.1c.3 0 .6 0 .8.1c.3.1.5.2.7.4c.3.1.4.3.6.5c.1.2.2.5.2.7c.01.02 1.9 0 1.9 0v-2.1zm-4.2 3.9c.2 0 .4 0 .6-.1c.2-.1.4-.2.5-.3c.1-.1.3-.3.3-.4c.1-.2.1-.4.1-.6c0-.2 0-.4-.1-.6c0-.2-.2-.3-.3-.4c-.1-.2-.3-.3-.5-.3c-.2-.1-.4-.1-.6-.1c-.2 0-.4 0-.6.1c-.2 0-.4.1-.5.3c-.2.1-.3.2-.4.4c0 .2-.1.4-.1.6c0 .2.1.4.1.6c.1.1.2.3.4.4c.1.1.3.2.5.3c.2.1.4.1.6.1zm4.2 2.6v-1.2h.8v3.7h-5.8v-3.7h.8v1.2h4.2zm0 1.8v-1.2h-4.2v1.2h4.2zm6.6-5c-1 0-1.8-.2-2.4-.4c-.5-.3-.8-.7-.8-1.2c0-.5.3-.9.8-1.2c.6-.3 1.4-.4 2.4-.4c1 0 1.8.1 2.4.4c.5.3.8.7.8 1.2c0 .5-.3.9-.8 1.2c-.6.2-1.4.4-2.4.4zm0-2.6c-.8 0-1.3.1-1.7.3c-.5.1-.7.4-.7.7c0 .3.2.5.7.7c.4.2.9.2 1.7.2c.8 0 1.3 0 1.7-.2c.5-.2.7-.4.7-.7c0-.3-.2-.6-.7-.7c-.4-.2-.9-.3-1.7-.3zm-4.1 3.2h8.2v.7h-8.2v-.7zm1.8 3.5v.9h5.7v.7h-6.5v-2.2h5.4v-.8h-5.4v-.7h6.2v2.1h-5.4zm10.3-2.6l-.3-.7c.4-.1.8-.2 1.1-.3c.4-.1.8-.3 1.1-.5c.3-.2.5-.5.7-.7c.2-.3.2-.6.2-.9c.04.05-2.9 0-2.9 0v-.6h3v-1.1h.8v1.1h2.9v.6s-2.91.05-2.9 0c0 .3.1.6.3.9c.1.2.4.5.7.7c.3.2.6.4 1 .5l1.2.3l-.3.7l-1.1-.3c-.3-.1-.6-.2-.9-.4c-.3-.2-.5-.3-.8-.5c-.2-.3-.4-.5-.5-.7c-.2.2-.4.4-.6.7c-.2.2-.5.3-.8.5c-.3.2-.6.3-.9.4l-1 .3zm7.4.7v.7h-3.7v2.9h-.8v-2.9h-3.8v-.7h8.3zm8.4-5.5v6.6h-.8v-6.6h.8zm-1.9 4.7l-.4.6c-.5-.1-1-.4-1.4-.8c-.4-.3-.7-.8-.9-1.2c-.2.5-.5.9-.9 1.3c-.4.4-.9.7-1.4.9l-.5-.6c.4-.2.7-.3 1-.5c.3-.2.5-.5.7-.7c.2-.3.4-.6.5-.9c.1-.3.1-.6.1-.9c.05-.02 0-.5 0-.5h-2v-.7h5v.7h-2.1v.5c0 .3.1.6.2.9c.1.3.2.5.4.8c.3.2.5.4.8.6c.3.2.6.4.9.5zm-3.1 3.5h5.3v.7h-6.2v-2.9h.9v2.2zm6.4.9l.3-2.1h.9l-.6 2.1h-.6zm10.8-9.2h.8v9.2h-.8V60h-2.6v-.6h2.6V56zm-5.4 1.6v4.6h2.1c.3 0 .6-.1.9-.1c.3 0 .6-.1.9-.2l.1.7c-.3.1-.6.2-1 .2c-.3 0-.6.1-.9.1H358c-.04.05-.7 0-.7 0v-6h4.1v.7h-3.3zm17.1.5h1.3v.7h-1.3v1.9h-.9V56h.9v2.1zm-2.6-1.5v3.8h-4.2v-3.8h4.2zm-.8 3.1v-2.4h-2.6v2.4h2.6zm2.4 1.1v.8h1.9v.7h-4.6v-.7h1.9v-.8h.8zm-4.4.7s.03 2.76 0 2.8c.3-.1.6-.1.9-.1c.3-.1.6-.1 1-.2l.1.6c-.4.2-.9.3-1.3.3c-.4 0-.7.1-1 .1c-.05-.04-.5 0-.5 0v-3.5h.8zm4 1.1c.2 0 .4 0 .6.1c.3.1.4.1.6.3c.1.1.2.2.3.4c.1.1.2.3.2.5c0 .4-.2.7-.5.9c-.3.3-.7.4-1.2.4c-.5 0-.9-.1-1.3-.4c-.3-.2-.4-.5-.4-.9c0-.2 0-.4.1-.5c.1-.2.2-.3.4-.4c.1-.2.3-.2.5-.3c.2-.1.4-.1.7-.1zm0 2c.3 0 .5-.1.7-.2c.1-.1.2-.3.2-.5c0-.2-.1-.4-.2-.5c-.2-.1-.4-.2-.7-.2c-.3 0-.5.1-.7.2c-.2.1-.3.3-.3.5c0 .2.1.4.3.5c.2.1.4.2.7.2zm7.6-4.6c-.5 0-1 0-1.4-.1c-.4-.1-.7-.2-1-.4c-.3-.1-.5-.3-.6-.6c-.2-.2-.2-.4-.2-.7c0-.3 0-.6.2-.8c.1-.2.3-.4.6-.6c.3-.1.6-.2 1-.3c.4-.1.9-.1 1.4-.1c.5 0 .9 0 1.3.1c.4.1.7.2 1 .3c.3.2.5.4.7.6c.1.2.2.5.2.8c0 .3-.1.5-.2.7c-.2.3-.4.5-.7.6c-.3.2-.6.3-1 .4c-.4.1-.8.1-1.3.1zm0-3c-.8 0-1.3.1-1.8.3c-.4.2-.6.5-.6.9c0 .3.2.6.6.8c.5.2 1 .3 1.8.3c.7 0 1.3-.1 1.7-.3c.4-.2.6-.5.6-.8c0-.4-.2-.7-.6-.9c-.4-.2-1-.3-1.7-.3zm-4.2 3.9h8.3v.6h-8.3v-.6zm1.9 1.4v2h5.5v.7h-6.3v-2.7h.8z" stroke="none" fill="#111111"/></g><g id="Polygon114220"><path d="m2.6 45.1h3v.8H.5v-.6s2.62-2.5 2.6-2.5l.6-.6c.1-.2.3-.4.4-.6c.1-.1.2-.3.3-.5c0-.2.1-.4.1-.7c0-.4-.2-.7-.4-.9c-.3-.3-.6-.4-1-.4c-.2 0-.4.1-.6.1c-.2.1-.3.2-.5.3c-.1.2-.2.3-.3.5c-.1.2-.1.4-.1.6l-.9-.2c0-.3.1-.6.3-.9c.1-.2.3-.4.5-.6c.2-.2.5-.3.8-.4c.2-.1.5-.2.9-.2c.3 0 .6.1.8.2c.3.1.6.2.8.4c.2.2.3.4.4.6c.2.3.2.6.2.9c0 .3 0 .6-.1.8c-.1.2-.2.5-.3.7c-.2.2-.4.4-.5.6c-.2.2-.4.5-.6.7l-2.1 2c.1 0 .3 0 .4-.1h.4zm9.1-2.9c0 .7-.1 1.2-.2 1.7c-.2.5-.4.9-.6 1.2c-.3.4-.6.6-.9.7c-.3.2-.7.3-1.1.3c-.4 0-.7-.1-1-.3c-.4-.1-.7-.3-.9-.7c-.3-.3-.5-.7-.6-1.2c-.1-.5-.2-1-.2-1.7c0-.7.1-1.2.2-1.7c.1-.5.3-.9.6-1.2c.2-.3.5-.6.9-.7c.3-.2.6-.3 1-.3c.4 0 .8.1 1.1.3c.3.1.6.4.9.7c.2.3.4.7.6 1.2c.1.5.2 1 .2 1.7zm-1 0c0-.6 0-1.1-.1-1.5c-.1-.4-.2-.7-.4-.9c-.2-.3-.4-.4-.6-.5c-.2-.1-.4-.2-.7-.2c-.2 0-.4.1-.6.2c-.3.1-.5.2-.6.5c-.2.2-.3.5-.4.9c-.1.4-.2.9-.2 1.5c0 .6.1 1.1.2 1.5c.1.4.2.7.4.9c.1.3.3.5.6.6c.2.1.4.1.6.1c.3 0 .5 0 .7-.1c.2-.1.4-.3.6-.6c.2-.2.3-.5.4-.9c.1-.4.1-.9.1-1.5zm3.7 2.9h2.9v.8h-5v-.6s2.57-2.5 2.6-2.5c.2-.2.4-.4.5-.6c.2-.2.3-.4.4-.6c.2-.1.3-.3.3-.5c.1-.2.1-.4.1-.7c0-.4-.1-.7-.4-.9c-.2-.3-.6-.4-.9-.4c-.3 0-.5.1-.6.1c-.2.1-.4.2-.5.3c-.1.2-.3.3-.3.5c-.1.2-.1.4-.1.6l-1-.2l.3-.9l.6-.6c.2-.2.4-.3.7-.4c.3-.1.6-.2.9-.2c.3 0 .6.1.9.2c.3.1.5.2.7.4c.2.2.4.4.5.6c.1.3.2.6.2.9c0 .3-.1.6-.2.8c0 .2-.1.5-.3.7c-.1.2-.3.4-.5.6c-.2.2-.4.5-.6.7l-2.1 2c.2 0 .3 0 .4-.1h.5zm7.1.1h1.5v.7h-4v-.7h1.6v-5.7c.02.04-1.3 1.3-1.3 1.3l-.5-.6l2-1.8h.7v6.8zm9.2-.9v-3.1h-2.5v-.7h2.5v-1.1h-2.5v-.7h2.5v-1.1h.9v6.7h-.9zm-1.5-2.4l.1.7c-.7.2-1.4.3-2.1.3c-.6 0-1.3.1-1.9.1c-.03-.03-.7 0-.7 0v-4.8h.8v4.1c.6 0 1.3-.1 1.9-.1c.6-.1 1.2-.1 1.9-.3zm-2.6 3.9h5.2v.7h-6.1v-2.8h.9v2.1zm13.6-8.3h.8v9.2h-.8v-9.2zm-1.8 3.6v-3.4h.8v8.5h-.8v-4.4s-1.17-.02-1.2 0c0 .4-.1.8-.1 1.2c-.1.3-.3.7-.4.9c-.2.3-.4.4-.6.6c-.3.1-.5.2-.8.2c-.3 0-.6-.1-.8-.2c-.3-.2-.5-.4-.6-.7c-.2-.3-.3-.6-.4-1c-.1-.4-.2-.8-.2-1.3c0-.5.1-1 .2-1.3c.1-.4.2-.8.4-1c.1-.3.3-.5.6-.7c.2-.1.5-.2.8-.2c.3 0 .5.1.7.2c.3.1.5.3.6.6c.2.2.3.5.4.8c.1.4.2.8.2 1.2h1.2zm-3.1 2.8c.4 0 .6-.2.9-.6c.2-.5.3-1.1.3-1.8c0-.4-.1-.7-.1-1c-.1-.3-.1-.6-.3-.8c-.1-.2-.2-.3-.3-.5c-.2-.1-.3-.1-.5-.1c-.4 0-.7.2-.9.6c-.2.5-.3 1-.3 1.8c0 .7.1 1.3.3 1.8c.2.4.5.6.9.6zm14.4-3.6v.7h-6.2v-3.1h.8v2.4h5.4zm-7.3 1.9h8.3v.7h-8.3v-.7zm1.9 1.6v2h5.5v.7h-6.3v-2.7h.8zm17.9-2.6v.7h-1.5v4.8h-.8v-9.1h.8v3.6h1.5zm-6.1-3c.3 0 .6.1.9.3c.3.1.5.3.8.6c.2.3.3.6.4 1c.1.4.2.8.2 1.3c0 .5-.1 1-.2 1.4c-.1.3-.2.7-.4 1c-.3.2-.5.5-.8.6c-.3.2-.6.2-.9.2c-.3 0-.7 0-.9-.2c-.3-.1-.6-.4-.8-.6c-.2-.3-.3-.7-.4-1c-.1-.4-.2-.9-.2-1.4c0-.5.1-.9.2-1.3c.1-.4.2-.7.4-1c.2-.3.5-.5.8-.6c.2-.2.6-.3.9-.3zm0 5.7c.2 0 .4-.1.6-.2c.2-.1.3-.3.5-.5c.1-.2.2-.5.3-.8c.1-.3.1-.6.1-1c0-.3 0-.7-.1-1c-.1-.3-.2-.5-.3-.7c-.2-.2-.3-.4-.5-.5c-.2-.1-.4-.2-.6-.2c-.2 0-.4.1-.6.2c-.2.1-.4.3-.5.5c-.1.2-.2.4-.3.7c-.1.3-.1.7-.1 1c0 .4 0 .7.1 1c.1.3.2.6.3.8c.1.2.3.4.5.5c.2.1.4.2.6.2zm13.4-6.4h.8v9.2h-.8v-9.2zm-4 .7c.3 0 .7.1.9.3c.3.1.6.3.8.6c.2.3.3.6.5 1c.1.4.1.8.1 1.3c0 .5 0 1-.1 1.4c-.2.3-.3.7-.5 1c-.2.2-.5.5-.8.6c-.2.2-.6.2-.9.2c-.3 0-.6 0-.9-.2c-.3-.1-.6-.4-.8-.6c-.2-.3-.3-.7-.4-1c-.2-.4-.2-.9-.2-1.4c0-.5 0-.9.2-1.3c.1-.4.2-.7.4-1c.2-.3.5-.5.8-.6c.3-.2.6-.3.9-.3zm0 .8c-.2 0-.4.1-.6.2c-.2.1-.4.3-.5.5c-.1.2-.2.4-.3.7c-.1.3-.1.7-.1 1c0 .4 0 .7.1 1c.1.3.2.6.3.8c.1.2.3.4.5.5c.2.1.4.2.6.2c.2 0 .4-.1.6-.2c.2-.1.4-.3.5-.5c.1-.2.2-.5.3-.8c.1-.3.1-.6.1-1c0-.3 0-.7-.1-1c-.1-.3-.2-.5-.3-.7c-.1-.2-.3-.4-.5-.5c-.2-.1-.4-.2-.6-.2zm11.1 5.8h3.7v.7H72v-.7h3.7s.03-1.88 0-1.9c-.4 0-.8-.1-1.1-.2c-.4-.1-.7-.3-1-.5c-.2-.2-.4-.5-.6-.7c-.1-.3-.2-.6-.2-1c0-.3.1-.7.3-1c.1-.2.4-.5.7-.7c.3-.2.6-.4 1-.5c.4-.1.9-.2 1.4-.2c.4 0 .9.1 1.3.2c.4.1.7.3 1 .5c.3.2.6.5.7.7c.2.3.3.7.3 1c0 .4-.1.7-.2 1c-.2.2-.4.5-.6.7c-.3.2-.6.4-.9.5c-.4.1-.8.2-1.2.2c-.02.02 0 1.9 0 1.9zm-3-4.3c0 .3.1.5.2.8c.1.2.3.3.5.5c.3.2.5.3.8.4c.4 0 .7.1 1.1.1c.3 0 .7-.1 1-.1c.3-.1.5-.2.8-.4c.2-.2.4-.3.5-.5c.1-.3.2-.5.2-.8c0-.2-.1-.5-.2-.7c-.1-.2-.3-.4-.5-.5c-.3-.2-.5-.3-.8-.4c-.3-.1-.7-.1-1-.1c-.4 0-.7 0-1.1.1c-.3.1-.5.2-.8.4c-.2.1-.4.3-.5.5c-.1.2-.2.5-.2.7zm14.3-2.9h.8v5.2h-.8v-5.2zm-1 3.4l.1.7l-2.3.3c-.7.1-1.5.1-2.2.1h-.7v-4h.8v3.3c.7 0 1.4 0 2.1-.1c.7 0 1.4-.2 2.2-.3zm-4.3 3v-.7h6.1v3.4h-.8V44h-5.3zm11.6-4.7s-.33 1.94-.3 1.9c.3 0 .7-.1 1-.1c.4 0 .8.1 1.1.2c.3.1.5.3.7.5c.3.2.4.4.5.7c.1.3.2.6.2.9c0 .4-.1.8-.2 1.1c-.2.3-.4.6-.6.8c-.3.2-.5.4-.9.5c-.3.2-.7.2-1 .2c-.5 0-.9-.1-1.3-.2l-.9-.6l.5-.7c.3.2.5.4.8.5c.3.1.6.2.9.2c.3 0 .5 0 .7-.1c.2-.1.4-.2.6-.4c.1-.1.2-.3.3-.5c.1-.2.2-.5.2-.8c0-.4-.2-.8-.5-1.1c-.3-.3-.7-.4-1.2-.4c-.2 0-.4 0-.6.1c-.2 0-.4.1-.7.1c.04.04-.6-.1-.6-.1l.7-3.6h3.5v.9h-2.9zm11.1-1.8h.8v9.2h-.8v-9.2zm-1.8 3.6v-3.4h.8v8.5h-.8v-4.4s-1.15-.02-1.2 0c0 .4 0 .8-.1 1.2c-.1.3-.3.7-.4.9c-.2.3-.4.4-.6.6c-.3.1-.5.2-.8.2c-.3 0-.6-.1-.8-.2c-.2-.2-.4-.4-.6-.7c-.2-.3-.3-.6-.4-1c-.1-.4-.2-.8-.2-1.3c0-.5.1-1 .2-1.3c.1-.4.2-.8.4-1c.2-.3.4-.5.6-.7c.2-.1.5-.2.8-.2c.3 0 .5.1.8.2c.2.1.4.3.5.6c.2.2.4.5.5.8c.1.4.1.8.1 1.2h1.2zm-3.1 2.8c.4 0 .7-.2.9-.6c.2-.5.3-1.1.3-1.8c0-.4 0-.7-.1-1c-.1-.3-.1-.6-.2-.8c-.1-.2-.3-.3-.4-.5c-.2-.1-.3-.1-.5-.1c-.4 0-.6.2-.9.6c-.2.5-.3 1-.3 1.8c0 .7.1 1.3.3 1.8c.3.4.5.6.9.6zm15.9-6.4h.8v5.5h-.8v-2.4h-1.8v-.7h1.8v-2.4zM115 42l-.4.7c-.5-.2-1-.5-1.4-.9c-.3-.3-.6-.7-.8-1.2c-.2.5-.5 1-.9 1.4c-.4.4-.9.7-1.4.9l-.5-.7c.4-.1.7-.3 1-.5c.2-.2.5-.4.7-.7c.2-.2.4-.5.5-.8c.1-.3.1-.7.1-1c.03.01 0-.4 0-.4h-2v-.6h4.9v.6h-2s-.03.41 0 .4c0 .3 0 .6.1.9c.1.3.3.5.5.8c.2.2.4.5.7.6c.3.2.6.4.9.5zm-4 2.2v-.7h6.1v3.2h-.8v-2.5H111zm14-2.1h2.1v.6h-8.3v-.6h2s.02-1.32 0-1.3c-.7-.3-1.1-.8-1.1-1.4c0-.3.1-.5.2-.7c.2-.2.4-.4.7-.5c.2-.2.6-.3 1-.4c.4-.1.8-.1 1.3-.1c.5 0 1 0 1.4.1c.3.1.7.2 1 .4c.2.1.4.3.6.5c.1.2.2.4.2.7c0 .3-.1.6-.3.8c-.2.2-.4.4-.8.6v1.3zm-4.4-2.7c0 .3.2.6.6.8c.4.2 1 .3 1.7.3c.8 0 1.3-.1 1.7-.3c.5-.2.7-.5.7-.8c0-.3-.2-.6-.7-.8c-.4-.2-.9-.2-1.7-.2c-.7 0-1.3 0-1.7.2c-.4.2-.6.5-.6.8zm1 1.6c.04 0 0 1.1 0 1.1h2.6s-.02-1.1 0-1.1c-.2 0-.4.1-.6.1h-1.4c-.2 0-.4-.1-.6-.1zm1.3 2.4c1 0 1.8.2 2.3.4c.6.3.8.7.8 1.3c0 .5-.2.9-.8 1.2c-.5.2-1.3.4-2.3.4c-1 0-1.7-.2-2.3-.4c-.5-.3-.8-.7-.8-1.2c0-.6.3-1 .8-1.3c.6-.2 1.3-.4 2.3-.4zm0 2.6c.7 0 1.3 0 1.7-.2c.4-.2.6-.4.6-.7c0-.4-.2-.6-.6-.8c-.4-.1-1-.2-1.7-.2c-.7 0-1.3.1-1.7.2c-.4.2-.6.4-.6.8c0 .3.2.5.6.7c.4.2 1 .2 1.7.2zm10.5-7.3v.6H128v-.6h2.3v-1.1h.8v1.1h2.3zm1.7 1.9h1.3v.7h-1.3v3.1h-.9v-6.8h.9v3zm-2.2.9c0 .3-.1.5-.2.7c-.1.3-.2.4-.4.6c-.2.1-.5.2-.7.3c-.3.1-.6.1-.9.1c-.3 0-.6 0-.9-.1c-.3-.1-.5-.2-.7-.3c-.2-.2-.3-.3-.4-.6c-.1-.2-.2-.4-.2-.7c0-.2.1-.5.2-.7c.1-.2.2-.3.4-.5c.2-.1.4-.3.7-.3c.3-.1.6-.2.9-.2c.3 0 .6.1.9.2c.2 0 .5.2.7.3c.2.2.3.3.4.5c.1.2.2.5.2.7zm-3.6 0c0 .4.1.6.4.8c.2.2.6.3 1 .3c.4 0 .7-.1 1-.3c.2-.2.4-.4.4-.8c0-.3-.2-.5-.4-.7c-.3-.2-.6-.3-1-.3c-.4 0-.8.1-1 .3c-.3.2-.4.4-.4.7zm.9 2.4v1.9h5.3v.7h-6.1v-2.6h.8zm16.5-6.3v6.7h-.8v-6.7h.8zm-1.9 4.8l-.3.6c-.6-.1-1-.4-1.4-.7c-.4-.4-.8-.8-1-1.3c-.2.5-.5 1-.9 1.4c-.4.3-.8.6-1.4.8l-.4-.7c.4-.1.7-.2.9-.4c.3-.2.6-.4.8-.7c.2-.2.3-.5.4-.8c.2-.3.2-.6.2-.9v-.3h-2.1v-.6h2.1v-1.2h.8v1.2h2.1v.6h-2.1s.03.27 0 .3c0 .3.1.6.2.8c.1.3.3.6.5.8c.2.3.4.5.7.6c.3.2.6.4.9.5zm-3.1 3.4h5.3v.7h-6.2v-2.8h.9v2.1zm12.1-7.4v.7h-5.2v-.7h2.2v-.9h.8v.9h2.2zm1.7 2.3h1.3v.7h-1.3v3.3h-.8v-7.2h.8v3.2zm-1.4 2l.1.6c-.5 0-1 .1-1.5.2c-.5 0-1 .1-1.5.1h-1.5c-.4 0-.8.1-1.3.1v-.7h1.1c.4 0 .8 0 1.3-.1v-.7c-.5 0-1-.2-1.3-.4c-.3-.2-.4-.6-.4-1c0-.2 0-.4.1-.5c.1-.2.3-.4.5-.5c.1-.1.4-.2.6-.3c.3 0 .6-.1.9-.1c.3 0 .6.1.9.1c.2.1.5.2.7.3c.1.1.3.3.4.5c.1.1.1.3.1.5c0 .4-.1.8-.4 1c-.3.2-.7.4-1.3.4v.7c.5 0 .9-.1 1.3-.1c.4 0 .8-.1 1.2-.1zm-4.2-1.9c0 .3.1.5.3.6c.3.2.6.3 1 .3c.4 0 .7-.1 1-.3c.2-.1.4-.3.4-.6c0-.2-.2-.4-.4-.5c-.3-.2-.6-.3-1-.3c-.4 0-.7.1-1 .3c-.2.1-.3.3-.3.5zm.6 3.4v1.6h5.3v.7h-6.1v-2.3h.8zm13.8-4.3H162c-.6 1.5-1.9 2.5-4 3.1l-.3-.6c1.1-.4 2-.8 2.6-1.4c.7-.6 1-1.3 1.1-2.1h-3.2v-.7s4.1.03 4.1 0v.5c0 .2-.1.4-.1.5c0 .02 2.1 0 2.1 0v-1.6h.8v5.4h-.8v-1.2h-2.4v-.7h2.4v-1.2zm-2.2 3.2c.5 0 .9.1 1.3.1c.4.1.7.2.9.4c.3.1.5.3.6.5c.2.3.3.5.3.8c0 .3-.1.5-.3.7c-.1.2-.3.4-.6.6c-.2.1-.5.2-.9.3c-.4.1-.8.1-1.3.1c-.4 0-.9 0-1.2-.1c-.4-.1-.7-.2-1-.3l-.6-.6c-.1-.2-.2-.4-.2-.7c0-.3.1-.5.2-.8c.2-.2.4-.4.6-.5c.3-.2.6-.3 1-.4c.3 0 .8-.1 1.2-.1zm0 2.9c.7 0 1.2-.1 1.6-.3c.4-.2.6-.5.6-.8c0-.4-.2-.6-.6-.8c-.4-.2-.9-.3-1.6-.3c-.7 0-1.2.1-1.6.3c-.4.2-.6.4-.6.8c0 .3.2.6.6.8c.4.2.9.3 1.6.3zm14.6-4l-.3.7l-1.1-.3l-.9-.6c-.3-.2-.6-.5-.9-.7c-.2-.3-.4-.6-.5-.9l-.6.9c-.3.2-.6.5-.9.7l-.9.6l-1.1.3l-.3-.7c.4-.1.8-.2 1.2-.4c.4-.2.7-.4 1-.7c.4-.3.6-.6.8-.9c.2-.4.3-.8.3-1.1v-.7h.9v.7c0 .3.1.7.3 1.1c.2.3.4.6.8.9c.3.3.6.5 1 .7c.4.2.8.3 1.2.4zm-3.3 2.8h3.7v.7h-8.3v-.7h3.7v-2.2h.9v2.2zm11.6-7.3h.8v9.2h-.8v-4.8h-1.2v4.3h-.8v-8.5h.8v3.5h1.2v-3.7zm-4.3 1.8s.02.72 0 .7c0 .4.1.8.1 1.2c.1.4.2.8.4 1.1l.6.9c.3.3.6.5.9.6l-.5.7c-.5-.3-.8-.6-1.2-1c-.3-.4-.5-.9-.7-1.5c-.3 1.3-.9 2.2-1.9 2.8l-.5-.6c.4-.2.6-.4.9-.7c.2-.3.4-.6.6-1c.2-.3.3-.7.4-1.2c.1-.4.1-.8.1-1.3c.02.02 0-.7 0-.7h-1.8v-.7h4.3v.7h-1.7zm13.8.6v.7h-6.2v-2.8h6.1v.7h-5.3v1.4h5.4zm-7.3 1.5h8.3v.6h-8.3v-.6zM189 45v.9h5.7v.7h-6.5v-2.2h5.4v-.9h-5.4v-.7h6.2v2.2H189zm11.5-4.1c-1 0-1.8-.2-2.4-.4c-.5-.3-.8-.7-.8-1.2c0-.5.3-.9.8-1.2c.6-.3 1.4-.4 2.4-.4c1 0 1.8.1 2.4.4c.5.3.8.7.8 1.2c0 .5-.3.9-.8 1.2c-.6.2-1.4.4-2.4.4zm0-2.6c-.8 0-1.3.1-1.7.3c-.4.1-.6.4-.6.7c0 .3.2.5.6.7c.4.2.9.2 1.7.2c.8 0 1.4 0 1.8-.2c.4-.2.6-.4.6-.7c0-.3-.2-.6-.6-.7c-.4-.2-1-.3-1.8-.3zm-4.1 3.2h8.3v.7h-8.3v-.7zm1.8 3.5v.9h5.7v.7h-6.5v-2.2h5.4v-.8h-5.4v-.7h6.2v2.1h-5.4zm14.9-6.8v.6h-5.3v-.6h2.2v-.8h.9v.8h2.2zm1.6 1.7h1.4v.7h-1.4v2.3h-.8v-5.4h.8v2.4zm-1.3 1.9v.6c-.5.1-1 .1-1.5.2c-.5 0-1 .1-1.5.1h-2.7l-.1-.6h2.4v-.6c-.5 0-.9-.1-1.2-.3c-.3-.3-.5-.5-.5-.9c0-.4.2-.7.6-.9c.4-.2.9-.3 1.6-.3c.6 0 1.1.1 1.5.3c.4.2.6.5.6.9c0 .4-.2.6-.5.8c-.3.2-.7.4-1.2.4v.5h1.2c.5-.1.9-.1 1.3-.2zm-4.3-1.5c0 .2.1.4.4.5c.2.1.5.2 1 .2c.4 0 .7-.1.9-.2c.3-.1.4-.3.4-.5c0-.2-.1-.3-.4-.5c-.2-.1-.5-.1-.9-.1c-.5 0-.8 0-1 .1c-.3.2-.4.3-.4.5zm.5 4.9v.8h5.5v.6h-6.3v-2h5.1v-.7h-5.1v-.6h5.9v1.9h-5.1zm13.5-3.1h2v.6h-8.3v-.6h2.1s-.04-1.32 0-1.3c-.8-.3-1.2-.8-1.2-1.4c0-.3.1-.5.3-.7c.1-.2.3-.4.6-.5c.3-.2.6-.3 1-.4c.4-.1.9-.1 1.4-.1c.4 0 .9 0 1.3.1c.4.1.7.2 1 .4c.3.1.5.3.6.5c.2.2.3.4.3.7c0 .3-.1.6-.3.8c-.2.2-.5.4-.8.6c-.05-.03 0 1.3 0 1.3zm-4.5-2.7c0 .3.2.6.6.8c.4.2 1 .3 1.8.3c.7 0 1.3-.1 1.7-.3c.4-.2.6-.5.6-.8c0-.3-.2-.6-.6-.8c-.4-.2-1-.2-1.7-.2c-.8 0-1.4 0-1.8.2c-.4.2-.6.5-.6.8zm1.1 1.6c-.01 0 0 1.1 0 1.1h2.5s.03-1.1 0-1.1c-.2 0-.3.1-.6.1h-1.3c-.2 0-.4-.1-.6-.1zm1.3 2.4c.9 0 1.7.2 2.3.4c.5.3.8.7.8 1.3c0 .5-.3.9-.8 1.2c-.6.2-1.4.4-2.3.4c-1 0-1.8-.2-2.4-.4c-.5-.3-.8-.7-.8-1.2c0-.6.3-1 .8-1.3c.6-.2 1.4-.4 2.4-.4zm0 2.6c.7 0 1.2 0 1.6-.2c.4-.2.6-.4.6-.7c0-.4-.2-.6-.6-.8c-.4-.1-.9-.2-1.6-.2c-.8 0-1.3.1-1.7.2c-.4.2-.6.4-.6.8c0 .3.2.5.6.7c.4.2.9.2 1.7.2zm11.9-8.5h.9v9.2h-.9v-4.6h-1.1v4.1h-.8v-8.5h.8v3.7h1.1v-3.9zm-4.2.3v1.3h1.8v.7H226v-.7h1.8v-1.3h.9zm-.4 2.6c.3 0 .5 0 .8.1c.2.2.4.3.6.5c.1.2.3.4.4.6c.1.3.1.6.1.9c0 .3 0 .6-.1.8c-.1.3-.3.5-.4.7c-.2.2-.4.3-.6.4c-.3.1-.5.2-.8.2c-.3 0-.6-.1-.8-.2c-.3-.1-.5-.2-.6-.4c-.2-.2-.3-.4-.4-.7c-.1-.2-.2-.5-.2-.8c0-.3.1-.6.2-.9c.1-.2.2-.4.4-.6c.1-.2.3-.3.6-.5c.2-.1.5-.1.8-.1zm0 3.5c.3 0 .6-.2.8-.4c.3-.3.4-.6.4-1c0-.2-.1-.4-.1-.6c-.1-.1-.2-.3-.3-.4l-.3-.3c-.2-.1-.4-.1-.5-.1c-.4 0-.7.1-.9.4c-.2.2-.3.6-.3 1c0 .4.1.7.3 1c.2.2.5.4.9.4zm15.7.4v-2.6h-1.6v-.7h1.6v-1h-1.6v-.7h1.6v-1.7h.8v6.7h-.8zm-1.4-2.3l.1.7c-.4 0-.9.1-1.4.1c-.4.1-.9.1-1.4.1c-.4 0-.9.1-1.3.1h-1.2c-.02-.03-.1-.7-.1-.7c0 0 .85-.03.8 0h.3c.04-.04 0-3.3 0-3.3h-.9v-.7h4.9v.7h-1s.04 3.15 0 3.2c.2-.1.4-.1.6-.1c.3 0 .4 0 .6-.1zm-3.3-3s-.05 3.25 0 3.3c.2-.1.4-.1.6-.1h.7c.03 0 0-3.2 0-3.2h-1.3zm.5 6.8h5.2v.7h-6.1v-2.7h.9v2zm13.7-5.5h1.4v.7h-1.4v3.3h-.8v-6.8h.8v2.8zm-2.1.1c0 .4-.1.7-.2 1c-.1.2-.3.5-.5.7c-.2.2-.5.3-.8.4c-.2.1-.6.2-.9.2c-.3 0-.7-.1-.9-.2c-.3-.1-.6-.2-.8-.4c-.2-.2-.4-.5-.5-.7c-.1-.3-.2-.6-.2-1c0-.3.1-.6.2-.9c.1-.3.3-.5.5-.7c.2-.2.5-.3.8-.5c.2-.1.6-.1.9-.1c.3 0 .7 0 .9.1c.3.2.6.3.8.5c.2.2.4.4.5.7c.1.3.2.6.2.9zm-4 0c0 .3.1.5.1.7c.1.1.2.3.4.4c.1.2.3.3.5.4c.2 0 .4.1.6.1c.2 0 .4-.1.6-.1c.2-.1.4-.2.5-.4c.2-.1.3-.3.4-.4c0-.2.1-.4.1-.7c0-.2-.1-.4-.1-.6c-.1-.2-.2-.3-.4-.5c-.1-.1-.3-.2-.5-.3c-.2-.1-.4-.1-.6-.1c-.2 0-.4 0-.6.1c-.2.1-.4.2-.5.3c-.2.2-.3.3-.4.5c0 .2-.1.4-.1.6zm1.3 3.2v2.2h5.2v.7h-6.1v-2.9h.9zm15.5-2.3v.7h-1.5v4.7h-.9v-9.1h.9v3.7h1.5zm-5.5-3.6v1.3h2.3v.7h-5.4v-.7h2.3v-1.3h.8zm-.4 2.7c.3 0 .6.1.9.2c.3.1.5.2.7.4c.2.2.4.4.5.7c.1.3.1.5.1.8c0 .4 0 .6-.1.9c-.1.3-.3.5-.5.7c-.2.2-.4.3-.7.4c-.3.1-.6.1-.9.1c-.3 0-.6 0-.9-.1c-.3-.1-.5-.2-.7-.4c-.2-.2-.3-.4-.4-.7c-.2-.3-.2-.5-.2-.9c0-.3 0-.5.2-.8c.1-.3.2-.5.4-.7c.2-.2.4-.3.7-.4c.3-.1.6-.2.9-.2zm0 3.6c.2 0 .4-.1.6-.2c.2 0 .3-.1.4-.2c.2-.2.3-.3.3-.5c.1-.2.1-.3.1-.6c0-.2 0-.3-.1-.5c0-.2-.1-.3-.3-.5c-.1-.1-.2-.2-.4-.3c-.2 0-.4-.1-.6-.1c-.2 0-.4.1-.6.1c-.1.1-.3.2-.4.3c-.1.2-.2.3-.3.5c-.1.2-.1.3-.1.5c0 .3 0 .4.1.6c.1.2.2.3.3.5c.1.1.3.2.4.2c.2.1.4.2.6.2zm11.1-2.2v.8h-4.2v-4.3h4.2v.9h2.1v-1.6h.8v6.6h-.8v-2.4h-2.1zm-.8.1V39H266v2.9h2.6zm2.9-2.1h-2.1v1.3h2.1v-1.3zm-4.2 6h5.3v.7h-6.1v-2.9h.8v2.2zm13.4-8.3h.8v9.2h-.8v-5.4h-2.1v-.7h2.1v-3.1zm-3.5.8s-.02 1.67 0 1.7c0 .4 0 .8.2 1.2c.1.4.3.8.5 1.1c.2.4.4.7.7 1c.3.3.6.5 1 .6l-.5.7c-.5-.3-1-.7-1.4-1.2c-.4-.5-.7-1.1-.9-1.7c-.2.7-.5 1.3-.9 1.8c-.4.6-.9 1-1.4 1.3l-.5-.7c.3-.2.6-.4.9-.7c.3-.3.5-.6.8-1c.2-.4.3-.7.5-1.2c.1-.4.1-.8.1-1.2c.05-.03 0-1.7 0-1.7h.9zm10.5 6.5h3.8v.7h-8.3v-.7h3.7v-2.3h-2.7v-4.2h6.2v.7H285v2.8h5.5v.7h-2.8v2.3zm14.6-2.7l-.4.7c-.3 0-.7-.2-1-.3c-.3-.2-.7-.4-1-.6c-.3-.2-.6-.5-.8-.8l-.6-.9c-.1.3-.3.6-.5.9c-.3.3-.6.6-.9.8l-.9.6c-.4.1-.7.3-1.1.3l-.3-.7c.4 0 .8-.2 1.2-.4c.4-.2.7-.4 1-.7c.3-.3.6-.6.8-1c.2-.3.3-.7.3-1.1v-.7h.9s-.03.69 0 .7c0 .4.1.7.3 1.1c.2.4.4.7.7 1c.4.3.7.5 1.1.7c.4.2.8.4 1.2.4zm-7.9 2.7h8.3v.7h-8.3v-.7zm17.7-3.6v.7h-1.5v4.8h-.8v-9.2h.8v3.7h1.5zm-7.3.4s.04 2.2 0 2.2h1.2c.3 0 .7 0 1-.1c.3 0 .6 0 1-.1c.3 0 .6 0 .9-.1l.1.7c-.3 0-.7.1-1 .1c-.3.1-.7.1-1 .1c-.4 0-.7.1-1.1.1H304v-6.1h4.3v.7h-3.5v1.8h3.3v.7h-3.3zm15.5-4.1v4.7h-.8v-4.7h.8zm-2.6 2.4c0 .3 0 .6-.2.8c-.1.3-.2.5-.5.7c-.2.1-.4.3-.7.4c-.3.1-.6.1-.9.1c-.4 0-.7 0-1-.1c-.3-.1-.5-.3-.7-.4c-.2-.2-.4-.4-.5-.7c-.1-.2-.2-.5-.2-.8c0-.3.1-.6.2-.8c.1-.3.3-.5.5-.7c.2-.1.4-.3.7-.4c.3-.1.6-.1 1-.1c.3 0 .6 0 .9.1c.3.1.5.3.7.4c.3.2.4.4.5.7c.2.2.2.5.2.8zm-3.9 0c0 .2 0 .4.1.5c.1.2.2.4.3.5c.2.1.3.2.5.3c.2 0 .4.1.7.1c.2 0 .4-.1.6-.1c.2-.1.3-.2.5-.3c.1-.1.2-.3.3-.5c.1-.1.1-.3.1-.5c0-.2 0-.4-.1-.5c-.1-.2-.2-.3-.3-.5c-.2-.1-.3-.2-.5-.2c-.2-.1-.4-.1-.6-.1c-.3 0-.5 0-.7.1c-.2 0-.3.1-.5.2c-.1.2-.2.3-.3.5c-.1.1-.1.3-.1.5zm1.4 6h5.4v.7h-6.2v-2.3h5.1v-1h-5.1v-.6h5.9v2.2h-5.1v1zm13.4-8.4h.9v9.2h-.9v-9.2zm-5.3 4.2s.03 2.09 0 2.1c.8 0 1.5 0 2.2-.1c.7 0 1.5-.1 2.3-.2l.1.7c-.5 0-.9.1-1.2.1c-.4.1-.8.1-1.2.1c-.4 0-.7.1-1.1.1h-1.9V41h3.4v-1.9h-3.4v-.7h4.2v3.3h-3.4zm14.5-4.2h.8v9.2h-.8v-9.2zm-3.4.8s-.01 1.68 0 1.7c0 .4 0 .8.2 1.2c.1.4.3.8.5 1.2c.2.3.5.6.8.9c.3.3.6.5.9.6l-.5.7c-.5-.2-1-.6-1.4-1.1c-.4-.5-.7-1.1-.9-1.8c-.2.7-.5 1.3-1 1.9c-.4.5-.9.9-1.4 1.2l-.5-.7c.3-.2.7-.4.9-.7c.3-.2.6-.6.8-.9c.3-.4.4-.8.6-1.2c.1-.5.2-.9.2-1.3c-.04-.02 0-1.7 0-1.7h.8zm11.3.4v.6h-5.3v-.6h2.2v-1.1h.9v1.1h2.2zm1.7 1.9h1.4v.7h-1.4v3.1h-.8v-6.8h.8v3zm-2.2.9c0 .3 0 .5-.1.7c-.1.3-.3.4-.5.6c-.2.1-.4.2-.7.3c-.2.1-.5.1-.9.1c-.3 0-.6 0-.8-.1c-.3-.1-.5-.2-.7-.3c-.2-.2-.4-.3-.5-.6c-.1-.2-.1-.4-.1-.7c0-.2 0-.5.1-.7c.1-.2.3-.3.5-.5c.2-.1.4-.3.7-.3c.2-.1.5-.2.8-.2c.4 0 .7.1.9.2c.3 0 .5.2.7.3c.2.2.4.3.5.5c.1.2.1.5.1.7zm-3.5 0c0 .4.1.6.3.8c.3.2.6.3 1 .3c.5 0 .8-.1 1.1-.3c.2-.2.3-.4.3-.8c0-.3-.1-.5-.3-.7c-.3-.2-.6-.3-1.1-.3c-.4 0-.7.1-1 .3c-.2.2-.3.4-.3.7zm.9 2.4v1.9h5.2v.7h-6.1v-2.6h.9zm15.6-6.4h.9v9.2h-.9v-9.2zm-5.2 1.6v4.6h2.3c.3-.1.7-.1 1-.1c.3-.1.6-.1 1-.2l.1.7c-.4.1-.7.1-1.1.2c-.3 0-.7 0-1 .1h-2.4c.01.04-.7 0-.7 0v-6h4.3v.7H353zm16.3 2.1v.7h-1.5v4.8h-.8v-9.1h.8v3.6h1.5zm-5.5-2s.04 1.14 0 1.1c0 .4.1.8.2 1.1c.1.4.3.8.5 1.1c.2.3.5.6.8.9c.3.3.6.5.9.6l-.5.7c-.5-.2-.9-.6-1.3-1.1c-.5-.5-.8-1.1-1-1.7c-.1.3-.2.7-.4 1c-.1.3-.3.6-.5.8c-.2.3-.4.5-.7.7c-.2.2-.4.4-.7.5l-.5-.6c.3-.2.6-.4.9-.7c.3-.3.6-.6.8-1c.2-.3.4-.7.5-1.1c.2-.4.2-.8.2-1.2c.02.04 0-1.1 0-1.1h-2.1v-.7h5v.7h-2.1zm13.6-1.6v6.6h-.8v-6.6h.8zm-2.5 2.8c0 .4 0 .7-.2.9c-.1.3-.2.6-.5.8c-.2.2-.4.3-.7.4c-.3.1-.6.2-1 .2c-.3 0-.6-.1-.9-.2c-.3-.1-.6-.2-.8-.4c-.2-.2-.3-.5-.5-.8c-.1-.2-.1-.5-.1-.9c0-.3 0-.6.1-.9c.2-.3.3-.5.5-.7c.2-.2.5-.3.8-.5c.3-.1.6-.1.9-.1c.4 0 .7 0 1 .1c.3.2.5.3.7.5c.3.2.4.4.5.7c.2.3.2.6.2.9zm-3.9 0c0 .3 0 .5.1.6c.1.2.2.4.3.5c.2.2.3.3.5.4c.2 0 .4.1.6.1c.3 0 .5-.1.7-.1c.2-.1.3-.2.5-.4c.1-.1.2-.3.3-.5c.1-.1.1-.3.1-.6c0-.2 0-.4-.1-.6c-.1-.2-.2-.3-.3-.5c-.2-.1-.3-.2-.5-.3c-.2-.1-.4-.1-.7-.1c-.2 0-.4 0-.6.1c-.2.1-.3.2-.5.3c-.1.2-.2.3-.3.5c-.1.2-.1.4-.1.6zm1.4 5.4h5.3v.7h-6.1v-3h.8v2.3zm10.9-4.9c-1.1 0-1.8-.2-2.4-.4c-.6-.3-.9-.7-.9-1.2c0-.5.3-.9.9-1.2c.6-.3 1.3-.4 2.4-.4c1 0 1.7.1 2.3.4c.6.3.9.7.9 1.2c0 .5-.3.9-.9 1.2c-.6.2-1.3.4-2.3.4zm0-2.6c-.8 0-1.4.1-1.8.3c-.4.1-.6.4-.6.7c0 .3.2.5.6.7c.4.2 1 .2 1.8.2c.7 0 1.3 0 1.7-.2c.4-.2.6-.4.6-.7c0-.3-.2-.6-.6-.7c-.4-.2-1-.3-1.7-.3zm-4.2 3.2h8.3v.7h-8.3v-.7zM381 45v.9h5.6v.7h-6.5v-2.2h5.4v-.8h-5.4v-.7h6.2v2.1H381z" stroke="none" fill="#111111"/></g><g id="Polygon114219"><path d="m7.5 19.1h.9v9.1h-.9v-9.1zm-1.7 2.5v-2.3h.8v8.4h-.8v-3.4H4.6v-.7h1.2v-1.3H4.6v-.7h1.2zm-1.7-.7s-.04 4.25 0 4.3c.1-.1.3-.1.4-.1h.5v.6c-.3 0-.7.1-1.1.1c-.4.1-.8.1-1.2.1H1.6c-.4.1-.8.1-1.1.1c.03-.04-.1-.7-.1-.7c0 0 .73-.04.7 0h.3c-.01-.05 0-4.4 0-4.4h-.8v-.7h4.2v.7h-.7zm-1.9 0s-.05 4.34 0 4.3h1.1v-4.3H2.2zM16.4 19h.8v9.2h-.8V19zm-6.1 1s4.25.03 4.2 0c0 .7 0 1.3-.2 1.9c-.1.7-.4 1.2-.7 1.8c-.4.5-.8 1-1.4 1.5c-.5.5-1.1.9-1.9 1.3l-.5-.7c1.3-.6 2.2-1.3 2.8-2.2c.7-.8 1-1.8 1.1-2.9h-3.4v-.7zm15.8-.7v2.8H20v-2.8h6.1zm-.8 2.2V20h-4.5v1.5h4.5zm1.9 2.1h-3.8v.9h2.7v2h-5.4v.9h5.7v.7h-6.5v-2.2h5.4v-.8h-5.4v-.6h2.7v-.9h-3.7v-.7h8.3v.7zm5-1.2c-1 0-1.8-.2-2.3-.4c-.6-.3-.9-.7-.9-1.2c0-.5.3-.9.9-1.2c.5-.3 1.3-.4 2.3-.4c1 0 1.8.1 2.4.4c.5.3.8.7.8 1.2c0 .5-.3.9-.8 1.2c-.6.2-1.4.4-2.4.4zm0-2.6c-.8 0-1.3.1-1.7.3c-.4.1-.6.4-.6.7c0 .3.2.5.6.7c.4.2.9.2 1.7.2c.8 0 1.4 0 1.8-.2c.4-.2.6-.4.6-.7c0-.3-.2-.6-.6-.7c-.4-.2-1-.3-1.8-.3zM28.1 23h8.3v.7h-8.3v-.7zm1.8 3.5v.9h5.7v.7h-6.5v-2.2h5.4v-.8h-5.4v-.7h6.2v2.1h-5.4zM46 19.1h.9v4.9h-.9v-2.1s-1.82.01-1.8 0c-.1.6-.4 1-.8 1.3c-.4.3-.9.5-1.6.5c-.3 0-.6 0-.9-.2c-.3-.1-.5-.2-.7-.4c-.3-.2-.4-.4-.5-.7c-.2-.2-.2-.5-.2-.8c0-.3 0-.6.2-.9c.1-.2.2-.5.5-.6c.2-.2.4-.4.7-.5c.3-.1.6-.1.9-.1c.3 0 .6 0 .9.1c.3.1.5.2.7.4c.2.1.4.3.5.5c.1.2.2.5.3.7c-.03.02 1.8 0 1.8 0v-2.1zM41.8 23c.3 0 .5 0 .7-.1c.2-.1.3-.2.5-.3c.1-.1.2-.3.3-.4c.1-.2.1-.4.1-.6c0-.2 0-.4-.1-.6c-.1-.2-.2-.3-.3-.4c-.2-.2-.3-.3-.5-.3c-.2-.1-.4-.1-.7-.1c-.2 0-.4 0-.6.1c-.2 0-.3.1-.5.3c-.1.1-.2.2-.3.4c-.1.2-.1.4-.1.6c0 .2 0 .4.1.6c.1.1.2.3.3.4c.2.1.3.2.5.3c.2.1.4.1.6.1zm4.2 2.6v-1.2h.9v3.7H41v-3.7h.9v1.2h4.1zm0 1.8v-1.2h-4.1v1.2h4.1zm11.1-4.6v.6h-1.5v4.8h-.9v-9.1h.9v3.7h1.5zm-5.5-3s-.01 1.68 0 1.7c0 .4.1.8.2 1.2c.1.4.3.7.5 1.1c.2.3.4.7.7.9c.3.3.6.5.9.7l-.5.7c-.5-.3-.9-.7-1.3-1.2c-.4-.5-.7-1-.9-1.7c-.2.7-.5 1.3-.9 1.8c-.4.5-.9 1-1.4 1.2l-.5-.6c.3-.2.6-.4.9-.7c.3-.3.6-.6.8-1c.2-.4.4-.8.5-1.2c.1-.4.2-.8.2-1.2c-.03-.02 0-1.7 0-1.7h.8zm12.8-.8h.8v9.2h-.8V19zm-4 .7c.3 0 .6.1.9.3c.3.1.5.3.7.6c.2.3.4.6.5 1c.1.4.2.8.2 1.3c0 .5-.1 1-.2 1.4c-.1.3-.3.7-.5 1c-.2.2-.4.5-.7.6c-.3.2-.6.2-.9.2c-.4 0-.7 0-1-.2c-.3-.1-.5-.4-.7-.6c-.2-.3-.4-.7-.5-1c-.1-.4-.2-.9-.2-1.4c0-.5.1-.9.2-1.3c.1-.4.3-.7.5-1c.2-.3.4-.5.7-.6c.3-.2.6-.3 1-.3zm0 .8c-.3 0-.5.1-.7.2c-.1.1-.3.3-.4.5c-.2.2-.3.4-.4.7c0 .3-.1.7-.1 1c0 .4.1.7.1 1c.1.3.2.6.4.8c.1.2.3.4.4.5c.2.1.4.2.7.2c.2 0 .4-.1.6-.2c.2-.1.3-.3.5-.5c.1-.2.2-.5.3-.8c0-.3.1-.6.1-1c0-.3-.1-.7-.1-1c-.1-.3-.2-.5-.3-.7c-.2-.2-.3-.4-.5-.5c-.2-.1-.4-.2-.6-.2zm13.5 2.3c0-.02 1.2 0 1.2 0v.7h-8.2v-.7s6.15-.02 6.2 0c0-.2 0-.4.1-.6v-.6c.04.02-5.4.3-5.4.3l-.1-.7s5.58-.17 5.6-.2v-.9h-5.4v-.6h6.2v1.8c0 .5-.1.9-.2 1.5zm-5.2 3.7v.9h5.8v.7h-6.6v-2.3h5.4v-.8h-5.4v-.7h6.3v2.2h-5.5zM83.6 19v5.7h-.9V19h.9zm-2 4.1l.1.7c-.4.1-.7.1-1.1.2c-.3 0-.7 0-1 .1h-3.1v-2.6h3.3v-1.2h-3.3v-.7h4.2v2.5h-3.3s-.04 1.33 0 1.3h2.2c.3 0 .6-.1 1-.1c.3 0 .7-.1 1-.2zm-1.1 1.8c.5 0 .9 0 1.3.1c.4.1.7.2 1 .3c.3.1.5.3.6.5c.1.2.2.5.2.7c0 .5-.3 1-.8 1.2c-.6.3-1.3.5-2.3.5c-.9 0-1.7-.2-2.2-.5c-.5-.2-.8-.7-.8-1.2c0-.5.2-.9.8-1.2c.5-.3 1.3-.4 2.2-.4zm0 2.6c.8 0 1.3-.1 1.7-.2c.4-.2.6-.5.6-.8c0-.3-.2-.5-.6-.7c-.4-.2-.9-.3-1.7-.3c-.7 0-1.2.1-1.6.3c-.4.2-.6.4-.6.7c0 .3.2.6.6.8c.4.1.9.2 1.6.2zm10.2-7.3v.6h-5.4v-.6h2.2v-1.1h.9v1.1h2.3zm1.6 1.9h1.4v.7h-1.4v3.1h-.8v-6.8h.8v3zm-2.1.9c0 .3-.1.5-.2.7c-.1.3-.3.4-.4.6c-.2.1-.5.2-.7.3c-.3.1-.6.1-.9.1c-.4 0-.7 0-.9-.1c-.3-.1-.5-.2-.7-.3c-.2-.2-.4-.3-.5-.6c-.1-.2-.1-.4-.1-.7c0-.2 0-.5.1-.7c.1-.2.3-.3.5-.5c.2-.1.4-.3.7-.3c.2-.1.5-.2.9-.2c.3 0 .6.1.9.2c.2 0 .5.2.7.3c.1.2.3.3.4.5c.1.2.2.5.2.7zm-3.6 0c0 .4.1.6.3.8c.3.2.6.3 1.1.3c.4 0 .7-.1 1-.3c.2-.2.4-.4.4-.8c0-.3-.2-.5-.4-.7c-.3-.2-.6-.3-1-.3c-.5 0-.8.1-1.1.3c-.2.2-.3.4-.3.7zm.9 2.4v1.9h5.2v.7h-6.1v-2.6h.9zm16.9-1.9l-.4.7l-1-.3c-.3-.2-.7-.4-1-.6c-.3-.2-.6-.5-.8-.7l-.6-.9c-.1.3-.3.6-.6.9c-.2.2-.5.5-.8.7c-.3.2-.6.4-1 .6l-1 .3l-.4-.7c.4-.1.8-.2 1.2-.4c.4-.2.8-.4 1.1-.7c.3-.3.6-.6.8-.9c.2-.4.3-.8.3-1.1c-.03-.04 0-.7 0-.7h.9s-.05.66 0 .7c0 .3 0 .7.2 1.1c.2.3.5.6.8.9c.3.3.7.5 1.1.7c.4.2.8.3 1.2.4zm-3.4 2.8h3.8v.7h-8.3v-.7h3.7v-2.2h.8v2.2zm11.7-7.3h.8v9.2h-.8v-4.8h-1.2v4.3h-.8v-8.5h.8v3.5h1.2V19zm-4.3 1.8s-.02.72 0 .7c0 .4 0 .8.1 1.2c.1.4.2.8.4 1.1c.1.3.3.6.6.9c.2.3.5.5.8.6l-.4.7c-.5-.3-.9-.6-1.2-1c-.3-.4-.5-.9-.7-1.5c-.3 1.3-1 2.2-1.9 2.8l-.5-.6c.3-.2.6-.4.9-.7c.2-.3.4-.6.6-1c.1-.3.3-.7.4-1.2c0-.4.1-.8.1-1.3c-.02.02 0-.7 0-.7h-1.8v-.7h4.2v.7h-1.6zm11 5.6h3.8v.7h-8.3v-.7h3.7v-1.7h-2.7v-2.9h5.4v-1.4h-5.4v-.7h6.2v2.8h-5.4v1.5h5.6v.7h-2.9v1.7zm13.7-7.3h.8v9.1h-.8v-4.8h-1.2v4.3h-.8v-8.5h.8v3.5h1.2v-3.6zm-3.4 1.8s-.04 4.21 0 4.2c.3 0 .6 0 .9-.1l.1.6c-.4.1-.8.2-1.2.2c-.4 0-.8.1-1.2.1h-2.2c.02.04-.1-.7-.1-.7c0 0 .73.04.7 0h.3v-4.3h-.8v-.7h4.2v.7h-.7zm-1.9 0s-.05 4.31 0 4.3h1.1v-4.3h-1.1zm14.2 5V23h-1.9v-.7h1.9v-1.2h-1.9v-.7h1.9V19h.8v6.9h-.8zm-1.4-2.1l-.4.7c-.5-.2-1-.5-1.3-.9c-.4-.4-.7-.8-.9-1.4c-.2.6-.5 1.1-.9 1.5c-.3.4-.8.7-1.3 1l-.5-.7c.4-.1.7-.3.9-.5c.3-.3.6-.5.8-.8c.2-.3.3-.6.4-.9c.1-.4.2-.7.2-1.1v-1.1h.8s.03 1.12 0 1.1c0 .4.1.7.2 1c.1.3.2.6.4.9c.2.3.5.5.7.7c.3.2.6.4.9.5zm-2.8 3.5h5.3v.7H137v-2.8h.8v2.1zm17.3-4.6v.7h-1.5v4.8h-.8v-9.1h.8v3.6h1.5zm-6.1-3c.3 0 .7.1.9.3c.3.1.5.3.8.6c.2.3.3.6.4 1c.1.4.2.8.2 1.3c0 .5-.1 1-.2 1.4c-.1.3-.2.7-.4 1c-.3.2-.5.5-.8.6c-.2.2-.6.2-.9.2c-.3 0-.7 0-.9-.2c-.3-.1-.6-.4-.8-.6c-.2-.3-.3-.7-.4-1c-.1-.4-.2-.9-.2-1.4c0-.5.1-.9.2-1.3c.1-.4.2-.7.4-1c.2-.3.5-.5.8-.6c.2-.2.6-.3.9-.3zm0 5.7c.2 0 .4-.1.6-.2c.2-.1.3-.3.5-.5c.1-.2.2-.5.3-.8c.1-.3.1-.6.1-1c0-.3 0-.7-.1-1c-.1-.3-.2-.5-.3-.7c-.2-.2-.3-.4-.5-.5c-.2-.1-.4-.2-.6-.2c-.2 0-.4.1-.6.2c-.2.1-.4.3-.5.5c-.1.2-.2.4-.3.7c-.1.3-.1.7-.1 1c0 .4 0 .7.1 1c.1.3.2.6.3.8c.1.2.3.4.5.5c.2.1.4.2.6.2zm13.4-6.4h.8v9.2h-.8V19zm-4 .7c.3 0 .7.1.9.3c.3.1.6.3.8.6c.2.3.3.6.5 1c.1.4.1.8.1 1.3c0 .5 0 1-.1 1.4c-.2.3-.3.7-.5 1c-.2.2-.5.5-.8.6c-.2.2-.6.2-.9.2c-.3 0-.6 0-.9-.2c-.3-.1-.6-.4-.8-.6c-.2-.3-.3-.7-.4-1c-.2-.4-.2-.9-.2-1.4c0-.5 0-.9.2-1.3c.1-.4.2-.7.4-1c.2-.3.5-.5.8-.6c.3-.2.6-.3.9-.3zm0 .8c-.2 0-.4.1-.6.2c-.2.1-.4.3-.5.5c-.1.2-.2.4-.3.7c-.1.3-.1.7-.1 1c0 .4 0 .7.1 1c.1.3.2.6.3.8c.1.2.3.4.5.5c.2.1.4.2.6.2c.2 0 .4-.1.6-.2c.2-.1.4-.3.5-.5c.1-.2.2-.5.3-.8c.1-.3.1-.6.1-1c0-.3 0-.7-.1-1c-.1-.3-.2-.5-.3-.7c-.1-.2-.3-.4-.5-.5c-.2-.1-.4-.2-.6-.2zm13.4-1.5h.8v5.5h-.8V19zm-1.7 5.5V22h-1.2v-.7h1.2v-2.1h.8v5.3h-.8zm-.9-1.4l.1.7c-.3 0-.5 0-.8.1c-.2 0-.5 0-.7.1h-2.5v-4.4h3.5v.7h-2.7v1.1h2.3v.7h-2.3s.05 1.22 0 1.2h1.7c.3 0 .5-.1.7-.1c.2 0 .5-.1.7-.1zm-2.6 5V25h6v3.1h-6zm.9-2.4v1.7h4.3v-1.7h-4.3zm10.7-3.3c-1 0-1.8-.2-2.3-.4c-.6-.3-.9-.7-.9-1.2c0-.5.3-.9.9-1.2c.5-.3 1.3-.4 2.3-.4c1 0 1.8.1 2.4.4c.6.3.8.7.8 1.2c0 .5-.2.9-.8 1.2c-.6.2-1.4.4-2.4.4zm0-2.6c-.7 0-1.3.1-1.7.3c-.4.1-.6.4-.6.7c0 .3.2.5.6.7c.4.2 1 .2 1.7.2c.8 0 1.4 0 1.8-.2c.4-.2.6-.4.6-.7c0-.3-.2-.6-.6-.7c-.4-.2-1-.3-1.8-.3zm-4.1 3.2h8.3v.7h-8.3v-.7zm1.8 3.5v.9h5.7v.7h-6.5v-2.2h5.4v-.8h-5.4v-.7h6.2v2.1h-5.4zm16.2-.6v-4h-2v-.7h2v-2.1h.8v6.8h-.8zm-1.4-2.2l-.4.7c-.5-.2-1-.5-1.4-.9c-.3-.4-.6-.8-.8-1.3c-.2.5-.5 1-.9 1.4c-.4.4-.9.8-1.4 1l-.4-.7c.3-.1.6-.3.9-.5c.3-.2.5-.5.7-.7c.2-.3.4-.6.5-1c.1-.3.2-.6.2-1c-.04.02 0-1.1 0-1.1h.8v1.2c0 .3 0 .6.2.9c.1.3.2.6.4.8c.2.3.4.5.7.7c.3.2.6.4.9.5zm-2.8 3.6h5.2v.7H187v-2.9h.9v2.2zm11.2-1h3.7v.7h-8.3v-.7h3.8v-1.9h-2.8v-4.7h.8v1.6h4.7v-1.6h.8v4.7h-2.7v1.9zm-2.8-4.3v1.7h4.7V22h-4.7zm14.1-3h.8v9.2h-.8V19zm-4 .7c.3 0 .6.1.9.3c.3.1.6.3.8.6c.2.3.3.6.4 1c.2.4.2.8.2 1.3c0 .5 0 1-.2 1.4c-.1.3-.2.7-.4 1c-.2.2-.5.5-.8.6c-.3.2-.6.2-.9.2c-.4 0-.7 0-1-.2c-.2-.1-.5-.4-.7-.6c-.2-.3-.4-.7-.5-1c-.1-.4-.1-.9-.1-1.4c0-.5 0-.9.1-1.3c.1-.4.3-.7.5-1c.2-.3.5-.5.7-.6c.3-.2.6-.3 1-.3zm0 .8c-.2 0-.4.1-.6.2c-.2.1-.4.3-.5.5c-.2.2-.3.4-.3.7c-.1.3-.1.7-.1 1c0 .4 0 .7.1 1c0 .3.1.6.3.8c.1.2.3.4.5.5c.2.1.4.2.6.2c.2 0 .4-.1.6-.2c.2-.1.3-.3.5-.5c.1-.2.2-.5.3-.8c.1-.3.1-.6.1-1c0-.3 0-.7-.1-1c-.1-.3-.2-.5-.3-.7c-.2-.2-.3-.4-.5-.5c-.2-.1-.4-.2-.6-.2zm13 .4c-.04-.03 0-.3 0-.3h-5.6v-.6h6.4v2.7c-.1.4-.1.7-.1 1.1c-.1.4-.2.8-.2 1.3l-.9-.1c.2-.9.3-1.6.3-2.3c0-.7.1-1.3.1-1.8zm-2.4 5.3h4.2v.7h-8.3v-.7h3.2v-3.3h.9v3.3zm14.7-7.1v5.2h-.9v-5.2h.9zm-4.9 4.7c-.4 0-.7 0-1-.1c-.3-.1-.5-.3-.7-.4c-.3-.2-.4-.5-.5-.7c-.2-.3-.2-.6-.2-.9c0-.3 0-.6.2-.9c.1-.2.2-.4.5-.6c.2-.2.4-.4.7-.5c.3-.1.6-.1 1-.1c.3 0 .6 0 .9.1c.3.1.6.3.8.5c.2.2.4.4.5.6c.1.3.2.6.2.9c0 .3-.1.6-.2.9c-.1.2-.3.5-.5.7c-.2.1-.5.3-.8.4c-.3.1-.6.1-.9.1zm0-3.5c-.3 0-.5 0-.7.1c-.2.1-.3.2-.5.3c-.1.1-.2.3-.3.4c-.1.2-.1.4-.1.6c0 .2 0 .4.1.6c.1.2.2.3.3.4c.2.2.3.3.5.3c.2.1.4.2.7.2c.2 0 .4-.1.6-.2c.2 0 .3-.1.5-.3c.1-.1.2-.2.3-.4c.1-.2.1-.4.1-.6c0-.2 0-.4-.1-.6c-.1-.1-.2-.3-.3-.4c-.2-.1-.3-.2-.5-.3c-.2-.1-.4-.1-.6-.1zm3.9 4.4s-.05.46 0 .5c0 .2 0 .4.1.7l.3.6l.6.6c.2.1.5.2.8.3l-.4.7c-.5-.2-.9-.4-1.2-.7c-.3-.3-.5-.7-.7-1.1c-.1.4-.3.8-.6 1.1c-.3.3-.6.6-1.1.7c-.4-.1-.8-.4-1-.7c-.3-.3-.5-.6-.7-1c-.1.3-.4.7-.7 1c-.3.3-.6.5-1.1.7l-.4-.7c.3-.1.6-.2.8-.4c.2-.1.4-.3.6-.5c.1-.2.2-.4.3-.7c.1-.2.1-.4.1-.6c.05-.04 0-.5 0-.5h.9s-.04.46 0 .5c0 .4.1.8.3 1.2c.2.4.5.7.9.9c.2-.1.4-.3.6-.4c.2-.2.3-.4.4-.6l.3-.6v-.5c.04-.04 0-.5 0-.5h.9zm11.2-2v.6h-1.5v4.9h-.9V19h.9v3.7h1.5zm-7.3-2.1s-.03 4.61 0 4.6h2.1c.4-.1.7-.1 1-.1c.3-.1.7-.1 1-.2l.1.7c-.4.1-.7.1-1 .2c-.4 0-.7 0-1.1.1h-2.2c-.04.03-.8 0-.8 0v-6h4.3v.7h-3.4zm7.8 7v-1h.9v1h-.9z" stroke="none" fill="#111111"/></g><g id="Polygon114218"><path d="m2.6 8.1h3v.8H.5v-.6s2.62-2.5 2.6-2.5l.6-.6c.1-.2.3-.4.4-.6c.1-.1.2-.3.3-.5c0-.2.1-.4.1-.7c0-.4-.2-.7-.4-.9c-.3-.3-.6-.4-1-.4c-.2 0-.4.1-.6.1c-.2.1-.3.2-.5.3c-.1.2-.2.3-.3.5c-.1.2-.1.4-.1.6l-.9-.2c0-.3.1-.6.3-.9c.1-.2.3-.4.5-.6c.2-.2.5-.3.8-.4c.2-.1.5-.2.9-.2c.3 0 .6.1.8.2c.3.1.6.2.8.4c.2.2.3.4.4.6c.2.3.2.6.2.9c0 .3 0 .6-.1.8c-.1.2-.2.5-.3.7c-.2.2-.4.4-.5.6c-.2.2-.4.5-.6.7l-2.1 2c.1 0 .3 0 .4-.1h.4zm9.1-2.9c0 .7-.1 1.2-.2 1.7c-.2.5-.4.9-.6 1.2c-.3.4-.6.6-.9.7c-.3.2-.7.3-1.1.3c-.4 0-.7-.1-1-.3c-.4-.1-.7-.3-.9-.7c-.3-.3-.5-.7-.6-1.2c-.1-.5-.2-1-.2-1.7c0-.7.1-1.2.2-1.7c.1-.5.3-.9.6-1.2c.2-.3.5-.6.9-.7c.3-.2.6-.3 1-.3c.4 0 .8.1 1.1.3c.3.1.6.4.9.7c.2.3.4.7.6 1.2c.1.5.2 1 .2 1.7zm-1 0c0-.6 0-1.1-.1-1.5c-.1-.4-.2-.7-.4-.9c-.2-.3-.4-.4-.6-.5c-.2-.1-.4-.2-.7-.2c-.2 0-.4.1-.6.2c-.3.1-.5.2-.6.5c-.2.2-.3.5-.4.9c-.1.4-.2.9-.2 1.5c0 .6.1 1.1.2 1.5c.1.4.2.7.4.9c.1.3.3.5.6.6c.2.1.4.1.6.1c.3 0 .5 0 .7-.1c.2-.1.4-.3.6-.6c.2-.2.3-.5.4-.9c.1-.4.1-.9.1-1.5zm4.9 3h1.5v.7h-4v-.7h1.6s.04-5.55 0-5.5v-.2c.05.04-1.3 1.3-1.3 1.3l-.5-.6l2-1.8h.7v6.8zm3.4.7s2.35-2.93 2.3-2.9c.2-.2.2-.3.3-.4c.1-.1.1-.2.2-.2c-.4.3-.9.5-1.5.5c-.3 0-.6-.1-.8-.2c-.3-.1-.5-.2-.7-.4c-.2-.2-.3-.4-.5-.7c-.1-.3-.1-.6-.1-.9c0-.4 0-.7.2-1c.1-.2.3-.5.5-.7c.2-.2.5-.4.8-.5c.3-.2.6-.2 1-.2c.4 0 .7 0 1 .2c.3.1.6.3.8.5c.2.2.4.4.5.7c.1.4.1.7.1 1.1c0 .4 0 .8-.2 1.2c-.1.3-.4.7-.7 1.1c.05.01-2 2.8-2 2.8H19zm.1-5.3c0 .5.1.9.4 1.1c.3.3.7.4 1.1.4c.3 0 .5 0 .7-.1c.2-.1.4-.2.5-.3c.2-.2.3-.3.3-.5c.1-.2.1-.4.1-.6c0-.2 0-.4-.1-.6c-.1-.2-.2-.4-.3-.5c-.1-.1-.3-.2-.5-.3c-.2-.1-.4-.1-.6-.1c-.5 0-.9.1-1.2.4c-.2.3-.4.7-.4 1.1zm11.6 3.7V4.2h-2.5v-.7h2.5V2.4h-2.5v-.7h2.5V.6h.9v6.7h-.9zm-1.5-2.4l.1.7c-.7.2-1.4.3-2.1.3c-.6 0-1.3.1-1.9.1c-.03-.03-.7 0-.7 0V1.2h.8v4.1c.6 0 1.3-.1 1.9-.1c.6-.1 1.2-.1 1.9-.3zm-2.6 3.9h5.2v.7h-6.1V6.7h.9v2.1zM42 .5h.8v9.2h-.8V.5zm-3.5.8s.05 1.68 0 1.7c0 .4.1.8.2 1.2c.2.4.3.8.6 1.2c.2.3.4.6.7.9c.3.3.7.5 1 .6l-.5.7c-.5-.2-1-.6-1.4-1.1c-.4-.5-.7-1.1-1-1.8c-.2.7-.5 1.3-.9 1.9c-.4.5-.9.9-1.4 1.2l-.5-.7c.3-.2.6-.4.9-.7c.3-.2.6-.6.8-.9c.2-.4.4-.8.5-1.2c.2-.5.2-.9.2-1.3c.02-.02 0-1.7 0-1.7h.8zm14.4 1.6v.7h-1.3v2.5h-.9V.6h.9v2.3h1.3zM49.8 5l-.4.7c-.5-.2-1-.5-1.4-.8c-.3-.4-.6-.8-.8-1.3c-.2.5-.5 1-.9 1.4c-.4.4-.9.7-1.4.9l-.5-.7c.4-.1.7-.3 1-.5c.3-.2.5-.4.7-.7c.2-.2.4-.5.5-.8c.1-.3.1-.7.1-1c.04.02 0-.3 0-.3h-2v-.7h4.9v.7h-2s-.03.31 0 .3c0 .3 0 .6.1.9c.1.3.3.6.5.8c.2.2.4.5.7.7c.3.1.6.3.9.4zm-4.2 2.2v-.7h6v3.2h-.9V7.2h-5.1zm13.5-5.5v.6h-5.4v-.6h2.3V.6h.8v1.1h2.3zm1.7 1.9h1.3v.7h-1.3v3.1h-.9V.6h.9v3zm-2.2.9c0 .3-.1.5-.2.7c-.1.3-.2.4-.4.6c-.2.1-.5.2-.7.3c-.3.1-.6.1-.9.1c-.3 0-.6 0-.9-.1c-.3-.1-.5-.2-.7-.3c-.2-.2-.3-.3-.4-.6c-.1-.2-.2-.4-.2-.7c0-.2.1-.5.2-.7c.1-.2.2-.3.4-.5c.2-.1.4-.3.7-.3c.3-.1.6-.2.9-.2c.3 0 .6.1.9.2c.2 0 .5.2.7.3c.2.2.3.3.4.5c.1.2.2.5.2.7zm-3.6 0c0 .4.1.6.4.8c.2.2.6.3 1 .3c.4 0 .7-.1 1-.3c.3-.2.4-.4.4-.8c0-.3-.1-.5-.4-.7c-.3-.2-.6-.3-1-.3c-.4 0-.8.1-1 .3c-.3.2-.4.4-.4.7zm.9 2.4v1.9h5.3v.7h-6.1V6.9h.8zM71.6.5h.8v9.2h-.8V.5zm-5.3 4.2v2.1c.7 0 1.5 0 2.2-.1c.7 0 1.4-.1 2.2-.2l.1.7c-.4 0-.8.1-1.2.1c-.4.1-.7.1-1.1.1c-.4 0-.8.1-1.1.1h-1.9V4h3.3V2.1h-3.4v-.7h4.3v3.3h-3.4zm15.7.4l-.4.7c-.3 0-.7-.2-1-.3c-.4-.2-.7-.4-1-.6c-.3-.2-.6-.5-.8-.8c-.3-.3-.4-.6-.6-.9c-.1.3-.3.6-.6.9c-.2.3-.5.6-.8.8l-.9.6c-.4.1-.7.3-1.1.3l-.4-.7c.5 0 .8-.2 1.2-.4c.4-.2.8-.4 1.1-.7c.3-.3.6-.6.8-1c.2-.3.3-.7.3-1.1c-.03-.01 0-.7 0-.7h.9s-.05.69 0 .7c0 .4.1.7.2 1.1c.2.4.5.7.8 1c.3.3.7.5 1.1.7c.4.2.8.4 1.2.4zm-7.9 2.7h8.3v.7h-8.3v-.7zm17.7-3.6v.7h-1.5v4.8h-.8V.5h.8v3.7h1.5zm-7.3.4s.02 2.2 0 2.2h1.2c.3 0 .6 0 1-.1c.3 0 .6 0 .9-.1c.4 0 .7 0 1-.1l.1.7c-.3 0-.7.1-1 .1c-.3.1-.7.1-1 .1c-.4 0-.7.1-1.1.1h-1.9V1.4h4.2v.7h-3.4v1.8h3.2v.7h-3.2zM100 .5v4.7h-.9V.5h.9zm-2.6 2.4c0 .3-.1.6-.2.8c-.1.3-.3.5-.5.7c-.2.1-.4.3-.7.4c-.3.1-.6.1-1 .1c-.3 0-.6 0-.9-.1c-.3-.1-.5-.3-.8-.4c-.2-.2-.3-.4-.4-.7c-.2-.2-.2-.5-.2-.8c0-.3 0-.6.2-.8c.1-.3.2-.5.4-.7c.3-.1.5-.3.8-.4c.3-.1.6-.1.9-.1c.4 0 .7 0 1 .1c.3.1.5.3.7.4c.2.2.4.4.5.7c.1.2.2.5.2.8zm-3.9 0c0 .2 0 .4.1.5c.1.2.2.4.3.5c.2.1.3.2.5.3c.2 0 .4.1.6.1c.3 0 .5-.1.7-.1c.1-.1.3-.2.4-.3c.2-.1.3-.3.4-.5c0-.1.1-.3.1-.5c0-.2-.1-.4-.1-.5c-.1-.2-.2-.3-.4-.5c-.1-.1-.3-.2-.4-.2c-.2-.1-.4-.1-.7-.1c-.2 0-.4 0-.6.1c-.2 0-.3.1-.5.2c-.1.2-.2.3-.3.5c-.1.1-.1.3-.1.5zm1.4 6h5.4v.7h-6.2V7.3h5v-1H94v-.6h6v2.2h-5.1v1zM110.6.5h.8v5.4h-.8V3.5h-1.2v2.4h-.8V.7h.8v2.2h1.2V.5zm-6.4.7s3.59-.05 3.6 0c0 1.1-.3 2-.8 2.9c-.6.8-1.5 1.5-2.8 2l-.4-.6c.7-.3 1.2-.6 1.7-.9c.4-.3.7-.7 1-1.2c-.03.04-2.6.3-2.6.3l-.1-.7s2.95-.17 3-.2c0-.1.1-.3.1-.5c0-.1 0-.3.1-.5c-.04.04-2.8 0-2.8 0v-.6zm1.2 8.4V6.4h6v3.2h-6zm.9-2.6v1.9h4.3V7h-4.3zM119.9.6h.8v9.1h-.8V.6zM118.1 4V.8h.8v8.4h-.8V4.8h-1.2v-.8h1.2zm-1.7-1.6v4.2h.5c.2 0 .3-.1.5-.1v.6c-.3.1-.7.2-1.1.2c-.4 0-.8.1-1.2.1h-2.2c-.01.04-.1-.7-.1-.7c0 0 .68.04.7 0h.2c.04.03 0-4.3 0-4.3h-.7v-.7h4.2v.7h-.8zm-1.9 0v4.3h1.1c.05-.03 0-4.3 0-4.3h-1.1zM129.6.6v6.6h-.8V.6h.8zm-2.5 2.8c0 .4-.1.7-.2.9c-.1.3-.3.6-.5.8c-.2.2-.5.3-.8.4c-.3.1-.6.2-.9.2c-.4 0-.7-.1-1-.2c-.3-.1-.5-.2-.7-.4c-.2-.2-.4-.5-.5-.8c-.1-.2-.2-.5-.2-.9c0-.3.1-.6.2-.9c.1-.3.3-.5.5-.7c.2-.2.4-.3.7-.5c.3-.1.6-.1 1-.1c.3 0 .6 0 .9.1c.3.2.6.3.8.5c.2.2.4.4.5.7c.1.3.2.6.2.9zm-4 0c0 .3.1.5.1.6c.1.2.2.4.4.5c.1.2.3.3.5.4c.1 0 .3.1.6.1c.2 0 .4-.1.6-.1c.2-.1.4-.2.5-.4c.1-.1.3-.3.3-.5c.1-.1.2-.3.2-.6c0-.2-.1-.4-.2-.6c0-.2-.2-.3-.3-.5c-.1-.1-.3-.2-.5-.3c-.2-.1-.4-.1-.6-.1c-.3 0-.5 0-.6.1c-.2.1-.4.2-.5.3c-.2.2-.3.3-.4.5c0 .2-.1.4-.1.6zm1.4 5.4h5.4v.7h-6.2v-3h.8v2.3zm10.9-7.7c.5 0 .9.1 1.3.2c.4.1.8.3 1.1.5c.3.2.5.5.7.8c.1.3.2.7.2 1c0 .4-.1.8-.2 1.1c-.2.3-.4.6-.7.8c-.3.2-.7.4-1.1.5c-.4.1-.8.2-1.3.2c-.5 0-.9-.1-1.3-.2c-.4-.1-.8-.3-1.1-.5c-.3-.2-.5-.5-.7-.8c-.1-.3-.2-.7-.2-1.1c0-.3.1-.7.2-1c.2-.3.4-.6.7-.8c.3-.2.7-.4 1.1-.5c.4-.1.8-.2 1.3-.2zm0 .7c-.4 0-.7 0-1 .1c-.3.1-.6.2-.8.4c-.2.2-.4.4-.5.6c-.2.2-.2.5-.2.7c0 .3 0 .6.2.8c.1.2.3.4.5.6c.2.1.5.3.8.4c.3 0 .6.1 1 .1c.4 0 .7-.1 1-.1c.3-.1.6-.3.8-.4c.2-.2.4-.4.5-.6c.2-.2.2-.5.2-.8c0-.2 0-.5-.2-.7c-.1-.2-.3-.4-.5-.6c-.2-.2-.5-.3-.8-.4c-.3-.1-.6-.1-1-.1zm-4.1 6h8.3v.7h-8.3v-.7zm13.7.1h3.7v.7h-8.3v-.7h3.8V6.2h-2.7V3.3h5.4V1.9h-5.4v-.7h6.2v2.8h-5.4v1.5h5.6v.7H145v1.7zm4.3 1.8l.4-2.1h.9l-.6 2.1h-.7zM160.9.6v6.7h-.8V.6h.8zm-1.8 4.8l-.4.6c-.6-.1-1-.4-1.4-.7c-.4-.4-.7-.8-1-1.3c-.2.5-.4 1-.8 1.4c-.4.3-.9.6-1.5.8l-.4-.7c.4-.1.7-.2 1-.4c.2-.2.5-.4.7-.7c.2-.2.3-.5.4-.8c.2-.3.2-.6.2-.9c.02-.03 0-.3 0-.3h-2.1v-.6h2.1V.6h.9v1.2h2v.6h-2.1s.04.27 0 .3c0 .3.1.6.2.8c.1.3.3.6.5.8c.2.3.4.5.7.6c.3.2.6.4 1 .5zm-3.2 3.4h5.3v.7H155V6.7h.9v2.1zM168 1.4v.7h-5.2v-.7h2.2v-.9h.8v.9h2.2zm1.7 2.3h1.3v.7h-1.3v3.3h-.8V.5h.8v3.2zm-1.4 2l.1.6c-.5 0-1 .1-1.5.2c-.5 0-1 .1-1.5.1H164c-.5 0-.9.1-1.3.1l-.1-.7h1.1c.4 0 .9 0 1.3-.1v-.7c-.5 0-.9-.2-1.3-.4c-.3-.2-.4-.6-.4-1c0-.2 0-.4.1-.5c.1-.2.3-.4.5-.5l.6-.3c.3 0 .6-.1.9-.1c.3 0 .6.1.9.1c.3.1.5.2.7.3c.2.1.3.3.4.5c.1.1.2.3.2.5c0 .4-.2.8-.5 1c-.3.2-.7.4-1.3.4v.7c.5 0 .9-.1 1.3-.1c.4 0 .8-.1 1.2-.1zm-4.2-1.9c0 .3.1.5.3.6c.3.2.6.3 1 .3c.4 0 .8-.1 1-.3c.2-.1.4-.3.4-.6c0-.2-.2-.4-.4-.5c-.2-.2-.6-.3-1-.3c-.4 0-.7.1-1 .3c-.2.1-.3.3-.3.5zm.6 3.4v1.6h5.3v.7h-6.1V7.2h.8zm13.8-4.3h-2.3c-.6 1.5-1.9 2.5-4 3.1l-.3-.6c1.1-.4 2-.8 2.6-1.4c.7-.6 1-1.3 1.1-2.1h-3.2v-.7s4.11.03 4.1 0v.5c0 .2-.1.4-.1.5c.01.02 2.1 0 2.1 0V.6h.8v5.4h-.8V4.8h-2.4v-.7h2.4V2.9zm-2.2 3.2c.5 0 .9.1 1.3.1c.4.1.7.2.9.4c.3.1.5.3.7.5c.1.3.2.5.2.8c0 .3-.1.5-.2.7c-.2.2-.4.4-.7.6c-.2.1-.5.2-.9.3c-.4.1-.8.1-1.3.1c-.4 0-.8 0-1.2-.1c-.4-.1-.7-.2-1-.3l-.6-.6c-.1-.2-.2-.4-.2-.7c0-.3.1-.5.2-.8c.2-.2.4-.4.6-.5c.3-.2.6-.3 1-.4c.4 0 .8-.1 1.2-.1zm0 2.9c.7 0 1.3-.1 1.6-.3c.4-.2.6-.5.6-.8c0-.4-.2-.6-.6-.8c-.3-.2-.9-.3-1.6-.3c-.6 0-1.2.1-1.6.3c-.4.2-.6.4-.6.8c0 .3.2.6.6.8c.4.2 1 .3 1.6.3zM190 .6h.8v9.1h-.8V4.9h-1.2v4.3h-.8V.7h.8v3.5h1.2V.6zm-3.4 1.8v4.2c.3 0 .6 0 .9-.1l.1.6c-.4.1-.7.2-1.2.2c-.4 0-.8.1-1.2.1H183c.05.04 0-.7 0-.7c0 0 .66.04.7 0h.2c.02.03 0-4.3 0-4.3h-.8v-.7h4.3v.7h-.8zm-1.9 0s-.02 4.31 0 4.3h1.1c.02-.04 0-4.3 0-4.3h-1.1zm14.2 5V4.5h-1.8v-.7h1.8V2.6h-1.8v-.7h1.8V.5h.9v6.9h-.9zm-1.3-2.1l-.5.7c-.5-.2-.9-.5-1.3-.9c-.4-.4-.7-.8-.9-1.4c-.1.6-.4 1.1-.8 1.5c-.4.4-.9.7-1.4 1l-.5-.7c.4-.1.7-.3 1-.5c.3-.3.5-.5.7-.8c.2-.3.4-.6.5-.9c.1-.4.1-.7.1-1.1c.02.02 0-1.1 0-1.1h.9s-.04 1.12 0 1.1c0 .4 0 .7.1 1c.1.3.3.6.5.9c.2.3.4.5.7.7c.2.2.5.4.9.5zm-2.9 3.5h5.3v.7h-6.1V6.7h.8v2.1zM210.1.5h.9v9.2h-.9V.5zm-5.2 1.6v4.6h2.3c.3-.1.7-.1 1-.1c.3-.1.6-.1 1-.2l.1.7c-.4.1-.7.1-1.1.2c-.3 0-.6 0-1 .1h-2.4c.01.04-.7 0-.7 0v-6h4.3v.7h-3.5zm16.3 2.1v.7h-1.5v4.8h-.8V.6h.8v3.6h1.5zm-5.5-2s.05 1.14 0 1.1c0 .4.1.8.2 1.1c.2.4.3.8.5 1.1c.3.3.5.6.8.9c.3.3.6.5.9.6l-.5.7c-.5-.2-.9-.6-1.3-1.1c-.4-.5-.8-1.1-1-1.7c-.1.3-.2.7-.4 1c-.1.3-.3.6-.5.8c-.2.3-.4.5-.7.7c-.2.2-.4.4-.7.5l-.5-.6c.3-.2.7-.4.9-.7c.3-.3.6-.6.8-1c.2-.3.4-.7.5-1.1c.2-.4.2-.8.2-1.2c.02.04 0-1.1 0-1.1h-2.1v-.7h5v.7h-2.1zM228.5.5h.8v9.2h-.8V.5zm-4 .7c.4 0 .7.1.9.3c.3.1.6.3.8.6c.2.3.3.6.5 1c.1.4.1.8.1 1.3c0 .5 0 1-.1 1.4c-.2.3-.3.7-.5 1c-.2.2-.5.5-.8.6c-.2.2-.5.2-.9.2c-.3 0-.6 0-.9-.2c-.3-.1-.6-.4-.8-.6c-.2-.3-.3-.7-.4-1c-.2-.4-.2-.9-.2-1.4c0-.5 0-.9.2-1.3c.1-.4.2-.7.4-1c.2-.3.5-.5.8-.6c.3-.2.6-.3.9-.3zm0 .8c-.2 0-.4.1-.6.2c-.2.1-.4.3-.5.5c-.1.2-.2.4-.3.7c-.1.3-.1.7-.1 1c0 .4 0 .7.1 1c.1.3.2.6.3.8c.1.2.3.4.5.5c.2.1.4.2.6.2c.2 0 .4-.1.6-.2c.2-.1.4-.3.5-.5c.1-.2.2-.5.3-.8c.1-.3.1-.6.1-1c0-.3 0-.7-.1-1c-.1-.3-.2-.5-.3-.7c-.1-.2-.3-.4-.5-.5c-.2-.1-.4-.2-.6-.2zM237.7.5h.9v9.2h-.9V4.3h-2.8v-.7h2.8V.5zm-5.3 1.1s-.03 5.19 0 5.2c.6 0 1.3 0 1.9-.1c.7-.1 1.3-.1 2-.3l.1.7c-.7.2-1.4.3-2.1.3c-.6.1-1.3.1-2.1.1h-.7V1.6h.9zm15.1 1.3v.7h-6.2V.8h6.1v.7h-5.3v1.4h5.4zm-7.3 1.5h8.3v.6h-8.3v-.6zM242 8v.9h5.7v.7h-6.5V7.4h5.4v-.9h-5.4v-.7h6.2v2.2H242zm15.9-3.6v.7h-1.5v4.6h-.8V.5h.8v3.9h1.5zm-3.7 1.3l-.9-.1c.2-.8.2-1.4.3-2V2.2c0 .02-3.8 0-3.8 0v-.7h4.6s.02.54 0 .5v1.5c0 .6-.1 1.3-.2 2.2zm-2.1-1.5s-.04 2.75 0 2.7h1.5c.5-.1.9-.1 1.4-.2l.1.6c-.5.1-1 .2-1.5.2c-.5.1-1 .1-1.5.1c-.5.1-.9.1-1.4.1h-1.3l-.1-.7h1.9c.04-.03 0-2.8 0-2.8h.9zM265.2.5h.8v9.2h-.8V.5zm-3.7.7c.4 0 .7.1 1 .2c.3.1.6.2.8.4c.2.2.4.4.5.7c.1.3.2.5.2.9c0 .3-.1.6-.2.8c-.1.3-.3.5-.5.7c-.2.2-.5.4-.8.5c-.3.1-.6.1-1 .1c-.3 0-.6 0-.9-.1c-.3-.1-.6-.3-.8-.5c-.2-.2-.4-.4-.5-.7c-.1-.2-.2-.5-.2-.8c0-.4.1-.6.2-.9c.1-.3.3-.5.5-.7c.2-.2.5-.3.8-.4c.3-.1.6-.2.9-.2zm0 .7c-.2 0-.4.1-.6.1c-.2.1-.4.2-.5.3c-.2.2-.3.3-.4.5c-.1.2-.1.3-.1.6c0 .2 0 .4.1.5c.1.2.2.4.4.5c.1.1.3.2.5.3c.2.1.4.1.6.1c.3 0 .5 0 .7-.1c.2-.1.4-.2.5-.3c.2-.1.3-.3.3-.5c.1-.1.2-.3.2-.5c0-.3-.1-.4-.2-.6c0-.2-.1-.3-.3-.5c-.1-.1-.3-.2-.5-.3c-.2 0-.4-.1-.7-.1zm-2.8 5.8l-.1-.7h1.4c.5 0 1 0 1.5-.1h1.5c.6-.1 1.1-.1 1.6-.2l.1.6c-.6.1-1.1.2-1.6.2c-.5.1-1.1.1-1.6.1c-.5.1-1 .1-1.4.1h-1.4zm17.8-2.4V3.4h-1.9v-.7h1.9V.5h.9v4.8h-.9zm-6-4.3h4c0 1.1-.3 2.1-1 2.9c-.7.7-1.7 1.3-3.1 1.7l-.3-.7c.7-.2 1.4-.4 1.9-.7c.5-.3.8-.7 1.1-1.1c.03.04-2.9.3-2.9.3l-.1-.7s3.36-.15 3.4-.2c0-.1.1-.2.1-.4c0-.1.1-.3.1-.4c-.04-.05-3.2 0-3.2 0v-.7zm1.8 7.9h5.4v.7h-6.2V7.3h5v-.9h-5v-.7h5.9v2.2h-5.1v1zM286 .5h.8v9.2h-.8V4.8h-1.3v4.4h-.8V.7h.8v3.5h1.3V.5zm-5.9 4.3s.02 2 0 2c.5 0 1.1 0 1.6-.1c.5 0 1 0 1.6-.2v.7c-.6.2-1.2.2-1.7.3h-2.3V4.1h2.6V2.2h-2.6v-.7h3.4v3.3h-2.6zM294.9.5h.8v9.2h-.8V4.6h-2.2v2.8h-4.1V1.3h.8v2.3h2.5V1.3h.8v2.6h2.2V.5zm-3 6.2V4.3h-2.5v2.4h2.5zM304.3.5h.8v9.2h-.8V.5zm-1.8 3.3v-3h.8v8.4h-.8V4.5h-1.1v-.7h1.1zm-4 .9s-.02 2.04 0 2h1.5c.5 0 1.1-.1 1.7-.2l.1.7c-.7.1-1.3.2-1.8.2h-1.7c-.02.05-.6 0-.6 0V4.1h2.4V2.2h-2.5v-.6h3.3v3.1h-2.4zM313.2.5h.8v9.2h-.8V.5zm-4 .7c.4 0 .7.1 1 .3c.2.1.5.3.7.6c.2.3.3.6.5 1c.1.4.1.8.1 1.3c0 .5 0 1-.1 1.4c-.2.3-.3.7-.5 1c-.2.2-.5.5-.7.6c-.3.2-.6.2-1 .2c-.3 0-.6 0-.9-.2c-.3-.1-.6-.4-.8-.6c-.2-.3-.3-.7-.4-1c-.2-.4-.2-.9-.2-1.4c0-.5 0-.9.2-1.3c.1-.4.2-.7.4-1c.2-.3.5-.5.8-.6c.3-.2.6-.3.9-.3zm0 .8c-.2 0-.4.1-.6.2c-.2.1-.4.3-.5.5c-.1.2-.2.4-.3.7c-.1.3-.1.7-.1 1c0 .4 0 .7.1 1c.1.3.2.6.3.8c.1.2.3.4.5.5c.2.1.4.2.6.2c.2 0 .4-.1.6-.2c.2-.1.4-.3.5-.5c.1-.2.2-.5.3-.8c.1-.3.1-.6.1-1c0-.3 0-.7-.1-1c-.1-.3-.2-.5-.3-.7c-.1-.2-.3-.4-.5-.5c-.2-.1-.4-.2-.6-.2zm13.2 5.4V4.5h-1.8v-.7h1.8V2.6h-1.8v-.7h1.8V.5h.9v6.9h-.9zm-1.3-2.1l-.5.7c-.5-.2-.9-.5-1.3-.9c-.4-.4-.7-.8-.9-1.4c-.1.6-.4 1.1-.8 1.5c-.4.4-.9.7-1.4 1l-.5-.7c.4-.1.7-.3 1-.5c.3-.3.5-.5.7-.8c.2-.3.4-.6.5-.9c.1-.4.1-.7.1-1.1c.02.02 0-1.1 0-1.1h.9s-.04 1.12 0 1.1c0 .4 0 .7.1 1c.1.3.3.6.5.9c.2.3.4.5.7.7c.2.2.5.4.9.5zm-2.9 3.5h5.3v.7h-6.1V6.7h.8v2.1zM329 3.9c-1 0-1.8-.2-2.3-.4c-.6-.3-.9-.7-.9-1.2c0-.5.3-.9.9-1.2c.5-.3 1.3-.4 2.3-.4c1 0 1.8.1 2.4.4c.6.3.9.7.9 1.2c0 .5-.3.9-.9 1.2c-.6.2-1.4.4-2.4.4zm0-2.6c-.7 0-1.3.1-1.7.3c-.4.1-.6.4-.6.7c0 .3.2.5.6.7c.4.2 1 .2 1.7.2c.8 0 1.4 0 1.8-.2c.4-.2.6-.4.6-.7c0-.3-.2-.6-.6-.7c-.4-.2-1-.3-1.8-.3zm-4.1 3.2h8.3v.7h-8.3v-.7zm1.8 3.5v.9h5.7v.7h-6.5V7.4h5.4v-.8h-5.4v-.7h6.2v2.1h-5.4zm14-2.6h3.7v.7h-8.2v-.7h3.7v-.9h-2.6V.8h6.1v.7h-5.3v.8h5.1v.6h-5.1v.9h5.4v.7h-2.8v.9zm-.4 1.4c1 0 1.8.1 2.3.3c.6.3.8.6.8 1.1c0 .5-.2.9-.8 1.1c-.5.3-1.3.4-2.3.4c-1 0-1.8-.1-2.3-.4c-.6-.2-.8-.6-.8-1.1c0-.5.2-.8.8-1.1c.5-.2 1.3-.3 2.3-.3zm0 2.2c.7 0 1.3 0 1.7-.2c.4-.1.6-.3.6-.6c0-.3-.2-.5-.6-.6c-.4-.2-1-.2-1.7-.2c-.7 0-1.3 0-1.7.2c-.4.1-.6.3-.6.6c0 .3.2.5.6.6c.4.2 1 .2 1.7.2zm12-8.5h.8v9.2h-.8V5.1h-1.2v4.1h-.8V.7h.8v3.7h1.2V.5zm-4.3.3v1.3h1.9v.7h-4.6v-.7h1.9V.8h.8zm-.4 2.6c.3 0 .6 0 .8.1c.2.2.4.3.6.5c.2.2.3.4.4.6c.1.3.2.6.2.9c0 .3-.1.6-.2.8c-.1.3-.2.5-.4.7c-.2.2-.4.3-.6.4c-.2.1-.5.2-.8.2c-.3 0-.5-.1-.8-.2c-.2-.1-.4-.2-.6-.4c-.2-.2-.3-.4-.4-.7c-.1-.2-.1-.5-.1-.8c0-.3 0-.6.1-.9c.1-.2.2-.4.4-.6c.2-.2.4-.3.6-.5c.3-.1.5-.1.8-.1zm0 3.5c.4 0 .7-.2.9-.4c.2-.3.3-.6.3-1c0-.2 0-.4-.1-.6c0-.1-.1-.3-.2-.4c-.1-.1-.2-.2-.4-.3c-.1-.1-.3-.1-.5-.1c-.4 0-.6.1-.9.4c-.2.2-.3.6-.3 1c0 .4.1.7.3 1c.3.2.6.4.9.4zm17.6-2.6v.7h-1.6v4.7h-.8V.5h.8v3.8h1.6zm-5.5-1.5s-.03.71 0 .7c0 .4 0 .7.1 1.1c.1.4.3.7.5 1c.2.3.4.6.7.9c.3.2.6.5.9.6l-.5.7c-.5-.3-.9-.6-1.3-1.1c-.4-.5-.6-1-.8-1.6c-.2.6-.5 1.2-.9 1.7c-.4.5-.9.9-1.4 1.1l-.5-.6c.4-.2.7-.4 1-.6c.2-.3.5-.6.7-.9c.2-.4.4-.7.5-1.1c.1-.4.1-.8.1-1.2c.04.01 0-.7 0-.7h-2v-.7h2V.7h.9v1.4h2v.7h-2zm14.5-.1h-1.3v1.2h1.3v.7h-1.3v1.5h-.8V.6h.8v1.4h1.3v.7zm-3 1.9l.1.6c-.4.1-.8.2-1.1.2c-.3 0-.7.1-1 .1h-2.3c.01.04-.7 0-.7 0V2.9h3.3V1.8h-3.3v-.7h4.1v2.5H367v1.3c.4 0 .8 0 1.1-.1h1.1c.3 0 .6-.1 1-.1c.3 0 .6-.1 1-.1zM370 6.3c.4 0 .9.1 1.2.2c.4 0 .7.1 1 .3c.2.1.4.3.6.5c.1.2.2.5.2.7c0 .3-.1.5-.2.7c-.2.2-.4.4-.6.5c-.3.2-.6.3-1 .4c-.3 0-.8.1-1.2.1c-1 0-1.7-.2-2.2-.5c-.6-.2-.8-.7-.8-1.2c0-.5.2-.9.8-1.2c.5-.3 1.2-.5 2.2-.5zm0 2.7c.7 0 1.2-.1 1.6-.2c.4-.2.6-.5.6-.8c0-.3-.2-.6-.6-.7c-.4-.2-.9-.3-1.6-.3c-.7 0-1.3.1-1.6.3c-.4.1-.6.4-.6.7c0 .3.2.6.6.8c.3.1.9.2 1.6.2z" stroke="none" fill="#111111"/></g></svg>