<?xml version="1.0" standalone="no"?><!DOCTYPE svg PUBLIC "-//W3C//DTD SVG 1.1//EN" "http://www.w3.org/Graphics/SVG/1.1/DTD/svg11.dtd"><svg xmlns="http://www.w3.org/2000/svg" version="1.1" width="41.1px" height="27.8px" viewBox="0 -1 41.1 27.8" style="top:-1px"><desc>Swipe</desc><defs/><g id="Polygon121211"><path d="m11.2 15.2c-.4 0-.8-.1-1.1-.3c-.4-.1-.7-.3-1-.6l.6-.6c.2.2.4.3.7.5c.3.1.6.2.8.2c.4 0 .7-.1.9-.3c.2-.1.3-.3.3-.6c0-.1-.1-.2-.1-.3c-.1-.1-.1-.2-.2-.3c-.1 0-.2-.1-.3-.2c-.1 0-.3-.1-.4-.1l-.8-.4c-.1 0-.3-.1-.4-.2c-.2-.1-.3-.2-.4-.3c-.1-.1-.2-.3-.3-.5c-.1-.1-.1-.3-.1-.5c0-.3 0-.5.1-.7c.1-.2.3-.3.4-.5c.2-.1.4-.2.7-.3c.2-.1.5-.1.7-.1c.4 0 .7 0 1 .2c.3.1.6.3.8.5l-.5.6c-.2-.2-.4-.3-.6-.4c-.2-.1-.4-.1-.7-.1c-.3 0-.5 0-.7.2c-.2.1-.3.3-.3.5c0 .2.1.3.1.3c.1.1.2.2.2.3c.1.1.2.1.3.2c.2 0 .3.1.4.1l.8.4c.2 0 .3.1.5.2c.1.1.3.2.4.3c.1.2.2.3.2.5c.1.1.1.3.1.5c0 .3 0 .5-.1.7c-.1.2-.3.4-.5.6c-.1.1-.4.2-.6.3c-.3.1-.6.2-.9.2zm3.6-.1l-1.2-5.9h.9l.6 3l.3 1.9s.03.02 0 0c.1-.3.2-.6.2-.9c.1-.3.2-.6.2-1c.03.03.8-3 .8-3h.8s.78 3.03.8 3c0 .3.1.7.2 1c0 .3.1.6.2.9c.1-.3.1-.6.2-.9c0-.3.1-.7.1-1c.01.03.6-3 .6-3h.9l-1.2 5.9h-1.1s-.83-3.32-.8-3.3c-.1-.3-.1-.5-.2-.7c0-.2-.1-.4-.1-.7c-.1.3-.1.5-.2.7c0 .2-.1.4-.1.7c-.02-.02-.8 3.3-.8 3.3h-1.1zm6.3 0V9.2h.9v5.9h-.9zm2.2 0V9.2s1.8-.03 1.8 0c.3 0 .6 0 .9.1c.3 0 .5.1.7.3c.2.1.4.3.5.5c.1.2.1.5.1.8c0 .4 0 .6-.1.9c-.1.2-.3.4-.5.6c-.2.1-.4.2-.7.3c-.3.1-.6.1-.9.1c.03.02-.9 0-.9 0v2.3h-.9zm.9-3s.84-.02.8 0c.5 0 .9-.1 1.1-.3c.2-.2.3-.5.3-.9c0-.3-.1-.6-.3-.8c-.3-.1-.6-.2-1.1-.2h-.8v2.2zm4.1 3V9.2h3.4v.7h-2.5v1.7h2.1v.8h-2.1v1.9h2.6v.8h-3.5z" stroke="none" fill="#cccccc"/></g></svg>