<?xml version="1.0" standalone="no"?><!DOCTYPE svg PUBLIC "-//W3C//DTD SVG 1.1//EN" "http://www.w3.org/Graphics/SVG/1.1/DTD/svg11.dtd"><svg xmlns="http://www.w3.org/2000/svg" version="1.1" width="221px" height="17.3px" viewBox="0 -2 221 17.3" style="top:-2px"><desc>forTomorrow.org</desc><defs/><g id="Polygon121154"><path d="m3.6.9l-.2.7c-.2-.1-.4-.2-.6-.2c-.5 0-.8.4-.8 1.1c.02.02 0 .9 0 .9h1.2v.8H2v4.7h-.9V4.2h-.8v-.8h.8s-.01-.89 0-.9c0-.6.1-1 .4-1.3c.2-.4.7-.5 1.2-.5h.5c.1.1.3.1.4.2zm2.6 8.2c-.3 0-.7-.1-1-.2c-.3-.2-.6-.3-.8-.6c-.2-.2-.4-.5-.6-.9c-.1-.4-.2-.8-.2-1.2c0-.5.1-.9.2-1.3l.6-.9c.2-.2.5-.4.8-.6c.3-.1.7-.1 1-.1c.3 0 .7 0 1 .1c.3.2.6.4.8.6l.6.9c.1.4.2.8.2 1.3c0 .4-.1.8-.2 1.2c-.2.4-.4.7-.6.9c-.2.3-.5.4-.8.6c-.3.1-.7.2-1 .2zm0-.8c.2 0 .5-.1.7-.2c.2-.1.3-.2.5-.4c.1-.2.2-.4.3-.7c.1-.2.1-.5.1-.8c0-.3 0-.6-.1-.9c-.1-.3-.2-.5-.3-.7c-.2-.2-.3-.3-.5-.4c-.2-.1-.5-.2-.7-.2c-.2 0-.5.1-.7.2c-.1.1-.3.2-.5.4c-.1.2-.2.4-.3.7c-.1.3-.1.6-.1.9c0 .3 0 .6.1.8c.1.3.2.5.3.7c.2.2.4.3.5.4c.2.1.5.2.7.2zm3.8.6V3.4h.8l.1 1s0 .01 0 0c.2-.3.4-.6.7-.8c.3-.2.6-.3.9-.3h.3c.1 0 .2 0 .3.1l-.2.8c-.1 0-.2-.1-.3-.1h-.2c-.2 0-.3 0-.4.1c-.1 0-.3.1-.4.2c-.1.1-.2.2-.3.4c-.2.1-.3.3-.3.6c-.05-.02 0 3.5 0 3.5h-1zm5.4 0V2.3h-2.2v-.8h5.4v.8h-2.2v6.6h-1zm6.4.2c-.3 0-.6-.1-.9-.2c-.3-.2-.6-.3-.9-.6c-.2-.2-.4-.5-.5-.9c-.2-.4-.2-.8-.2-1.2c0-.5 0-.9.2-1.3c.1-.3.3-.6.5-.9l.9-.6c.3-.1.6-.1.9-.1c.4 0 .7 0 1 .1c.3.2.6.4.8.6c.3.3.5.6.6.9c.1.4.2.8.2 1.3c0 .4-.1.8-.2 1.2c-.1.4-.3.7-.6.9c-.2.3-.5.4-.8.6c-.3.1-.6.2-1 .2zm0-.8c.3 0 .5-.1.7-.2c.2-.1.4-.2.5-.4c.1-.2.3-.4.3-.7c.1-.2.1-.5.1-.8c0-.3 0-.6-.1-.9c0-.3-.2-.5-.3-.7c-.1-.2-.3-.3-.5-.4c-.2-.1-.4-.2-.7-.2c-.2 0-.4.1-.6.2c-.2.1-.4.2-.5.4c-.2.2-.3.4-.3.7c-.1.3-.2.6-.2.9c0 .3.1.6.2.8c0 .3.1.5.3.7c.1.2.3.3.5.4c.2.1.4.2.6.2zm3.9.6V3.4h.7l.1.8s.04 0 0 0c.3-.3.5-.5.8-.7c.3-.2.6-.2 1-.2c.4 0 .7 0 1 .2c.2.2.4.5.5.8c.3-.3.6-.6.9-.8c.3-.1.6-.2.9-.2c.6 0 1 .1 1.3.5c.3.4.4.9.4 1.6v3.5h-.9s-.03-3.35 0-3.4c0-.5-.1-.9-.3-1.1c-.1-.2-.4-.3-.8-.3c-.4 0-.8.3-1.4.8c.05.02 0 4 0 4h-.9s.02-3.35 0-3.4c0-.5-.1-.9-.2-1.1c-.2-.2-.5-.3-.8-.3c-.4 0-.9.3-1.4.8v4h-.9zm11.4.2c-.4 0-.7-.1-1-.2c-.3-.2-.6-.3-.8-.6c-.3-.2-.5-.5-.6-.9c-.1-.4-.2-.8-.2-1.2c0-.5.1-.9.2-1.3c.1-.3.3-.6.6-.9c.2-.2.5-.4.8-.6c.3-.1.6-.1 1-.1c.3 0 .6 0 .9.1l.9.6c.2.3.4.6.5.9c.2.4.2.8.2 1.3c0 .4 0 .8-.2 1.2c-.1.4-.3.7-.5.9c-.3.3-.6.4-.9.6c-.3.1-.6.2-.9.2zm0-.8c.2 0 .4-.1.6-.2c.2-.1.4-.2.5-.4c.2-.2.3-.4.4-.7c0-.2.1-.5.1-.8c0-.3-.1-.6-.1-.9c-.1-.3-.2-.5-.4-.7c-.1-.2-.3-.3-.5-.4c-.2-.1-.4-.2-.6-.2c-.3 0-.5.1-.7.2c-.2.1-.4.2-.5.4c-.1.2-.2.4-.3.7c-.1.3-.1.6-.1.9c0 .3 0 .6.1.8c.1.3.2.5.3.7c.1.2.3.3.5.4c.2.1.4.2.7.2zm3.8.6V3.4h.7l.1 1h.1c.2-.3.4-.6.7-.8c.2-.2.5-.3.8-.3h.4s.1 0 .2.1l-.2.8s-.1-.1-.2-.1h-.3c-.1 0-.2 0-.4.1c-.1 0-.2.1-.3.2c-.2.1-.3.2-.4.4c-.1.1-.2.3-.3.6v3.5h-.9zm3.7 0V3.4h.8l.1 1s.01.01 0 0c.2-.3.4-.6.7-.8c.3-.2.6-.3.9-.3h.3c.1 0 .2 0 .3.1l-.2.8c-.1 0-.2-.1-.3-.1h-.2c-.1 0-.3 0-.4.1c-.1 0-.3.1-.4.2c-.1.1-.2.2-.3.4c-.1.1-.2.3-.3.6c-.04-.02 0 3.5 0 3.5h-1zm5.9.2c-.3 0-.6-.1-.9-.2c-.3-.2-.6-.3-.9-.6c-.2-.2-.4-.5-.5-.9c-.2-.4-.2-.8-.2-1.2c0-.5 0-.9.2-1.3c.1-.3.3-.6.5-.9l.9-.6c.3-.1.6-.1.9-.1c.4 0 .7 0 1 .1c.3.2.6.4.8.6c.3.3.5.6.6.9c.1.4.2.8.2 1.3c0 .4-.1.8-.2 1.2c-.1.4-.3.7-.6.9c-.2.3-.5.4-.8.6c-.3.1-.6.2-1 .2zm0-.8c.3 0 .5-.1.7-.2c.2-.1.4-.2.5-.4c.1-.2.3-.4.3-.7c.1-.2.2-.5.2-.8c0-.3-.1-.6-.2-.9c0-.3-.2-.5-.3-.7c-.1-.2-.3-.3-.5-.4c-.2-.1-.4-.2-.7-.2c-.2 0-.4.1-.6.2c-.2.1-.4.2-.5.4c-.2.2-.3.4-.3.7c-.1.3-.2.6-.2.9c0 .3.1.6.2.8c0 .3.1.5.3.7c.1.2.3.3.5.4c.2.1.4.2.6.2zm4.7.6l-1.5-5.5h1s.78 3.2.8 3.2c0 .3.1.5.1.8c.1.2.1.5.2.7h.1c0-.2.1-.5.1-.7c.1-.3.2-.5.2-.8c.03 0 .9-3.2.9-3.2h.9s.86 3.2.9 3.2c0 .3.1.5.2.8c0 .2.1.5.2.7c.1-.2.1-.5.2-.7c0-.3.1-.5.1-.8c.04 0 .9-3.2.9-3.2h.8l-1.5 5.5h-1.1l-.8-3c-.1-.2-.1-.5-.2-.7c0-.3-.1-.6-.2-.8c-.1.2-.1.5-.2.8c-.1.2-.1.5-.2.8l-.8 2.9h-1.1zm6.6.2v-1h1v1h-1zm4.8 0c-.3 0-.6-.1-.9-.2c-.3-.2-.6-.3-.9-.6c-.2-.2-.4-.5-.5-.9c-.2-.4-.2-.8-.2-1.2c0-.5 0-.9.2-1.3c.1-.3.3-.6.5-.9l.9-.6c.3-.1.6-.1.9-.1c.4 0 .7 0 1 .1c.3.2.6.4.8.6c.3.3.5.6.6.9c.1.4.2.8.2 1.3c0 .4-.1.8-.2 1.2c-.1.4-.3.7-.6.9c-.2.3-.5.4-.8.6c-.3.1-.6.2-1 .2zm0-.8c.3 0 .5-.1.7-.2c.2-.1.4-.2.5-.4c.1-.2.3-.4.3-.7c.1-.2.1-.5.1-.8c0-.3 0-.6-.1-.9c0-.3-.2-.5-.3-.7c-.1-.2-.3-.3-.5-.4c-.2-.1-.4-.2-.7-.2c-.2 0-.4.1-.6.2c-.2.1-.4.2-.5.4c-.2.2-.3.4-.3.7c-.1.3-.2.6-.2.9c0 .3.1.6.2.8c0 .3.1.5.3.7c.1.2.3.3.5.4c.2.1.4.2.6.2zm3.9.6V3.4h.7l.1 1s.04.01 0 0c.2-.3.5-.6.7-.8c.3-.2.6-.3.9-.3h.3c.1 0 .2 0 .3.1l-.2.8c-.1 0-.2-.1-.2-.1h-.3c-.1 0-.2 0-.4.1c-.1 0-.2.1-.3.2c-.2.1-.3.2-.4.4c-.1.1-.2.3-.3.6v3.5h-.9zm5.6 2.6c-.4 0-.7 0-1-.1c-.2-.1-.5-.2-.7-.3c-.2-.1-.3-.3-.4-.5c-.2-.2-.2-.4-.2-.6c0-.2.1-.5.2-.7l.6-.6c-.1-.1-.3-.2-.4-.4c-.1-.1-.1-.3-.1-.5c0-.2.1-.4.2-.6c.1-.2.3-.3.4-.4v-.1c-.2-.1-.3-.3-.5-.6c-.1-.2-.2-.5-.2-.9c0-.3.1-.5.2-.8c.1-.2.2-.4.4-.6c.2-.2.4-.3.7-.4c.2-.1.5-.1.8-.1h.4c.1 0 .3.1.4.1h1.9v.7s-1.15.01-1.1 0c.1.1.2.3.3.5c.1.2.1.4.1.7c0 .2-.1.5-.2.7c-.1.3-.2.5-.4.7c-.2.1-.4.3-.6.3c-.3.1-.5.2-.8.2c-.3 0-.6-.1-.8-.2l-.3.3c-.1.1-.1.2-.1.3c0 .2.1.4.2.5c.1.1.4.2.8.2h1c.7 0 1.2.1 1.5.3c.3.2.5.5.5 1c0 .2-.1.5-.2.7c-.1.2-.3.4-.6.6c-.2.2-.5.3-.9.4c-.3.1-.7.2-1.1.2zm0-5h.4c.2-.1.3-.2.4-.3c.1-.1.2-.3.3-.4c0-.2.1-.4.1-.6c0-.4-.2-.7-.4-.9c-.2-.2-.5-.4-.8-.4c-.3 0-.6.2-.9.4c-.2.2-.3.5-.3.9c0 .2 0 .4.1.6c.1.1.1.3.2.4c.2.1.3.2.4.3h.5zm.1 4.4c.3 0 .5-.1.7-.1c.3-.1.4-.2.6-.3c.1-.1.3-.2.3-.4c.1-.1.2-.2.2-.4c0-.2-.1-.4-.3-.5c-.2-.1-.5-.2-.9-.2h-1.3c-.1 0-.2 0-.3-.1c-.2.2-.4.3-.5.5c-.1.1-.1.3-.1.5c0 .3.1.5.4.7c.3.2.7.3 1.2.3z" stroke="none" fill="#111111"/></g></svg>