<?xml version="1.0" standalone="no"?><!DOCTYPE svg PUBLIC "-//W3C//DTD SVG 1.1//EN" "http://www.w3.org/Graphics/SVG/1.1/DTD/svg11.dtd"><svg xmlns="http://www.w3.org/2000/svg" version="1.1" width="199.3px" height="23.3px" viewBox="0 -2 199.3 23.3" style="top:-2px"><desc>누적 식재 수 (단위: 그루)</desc><defs/><g id="Polygon111412"><path d="m7.9 3.5v.9H1.6V1h1v2.5h5.3zm1 2.1v.9H5.2v3.3H4.1V6.5H.5v-.9h8.4zM16.3.5h1v5.5h-1V3.7h-1.6v-.8h1.6V.5zm-1.1 4.4l-.5.8c-.6-.1-1-.4-1.4-.7c-.3-.4-.6-.8-.8-1.2c-.2.5-.5.9-.9 1.3c-.4.4-.8.6-1.4.8l-.5-.8c.4-.1.7-.3.9-.5c.3-.2.6-.4.8-.7c.2-.3.3-.5.4-.8c.1-.3.2-.6.2-.9c-.05-.05 0-.2 0-.2h-2v-.9h4.9v.9H13s.02.14 0 .1c0 .3.1.6.2.9c.1.3.2.5.4.8c.2.2.4.4.7.6c.2.2.5.4.9.5zm-4.1 2.5v-.9h6.2v3.3h-1V7.4h-5.2zM27.5.5h1v5.6h-1V.5zm-.9 4.2l-.6.9c-.5-.2-1-.5-1.3-.8c-.4-.4-.7-.8-.9-1.3c-.2.6-.5 1-.9 1.4c-.4.3-.8.6-1.4.8l-.5-.8c.3-.1.7-.3.9-.5c.3-.2.6-.5.8-.7c.2-.3.3-.6.4-.9c.1-.3.1-.6.1-.9c.05-.03 0-.9 0-.9h1.1s.02.87 0 .9c0 .3.1.6.2.9c.1.3.2.5.4.8c.2.2.4.5.7.7c.3.2.6.3 1 .4zm-4.3 2.7v-.9h6.2v3.3h-1V7.4h-5.2zM37 .5h1v9.3h-1V5h-1v4.3h-1V.7h1v3.5h1V.5zm-4.1 1.9s.05.54 0 .5c0 .5.1.9.2 1.2c0 .4.1.8.3 1.1c.2.4.4.7.6.9c.2.3.5.5.9.7l-.6.8c-.5-.2-.9-.5-1.2-1c-.2-.4-.5-.8-.6-1.3c-.2.6-.4 1.1-.7 1.5c-.3.5-.7.9-1.1 1.1l-.7-.8c.3-.2.6-.4.9-.7c.2-.3.4-.6.6-1c.1-.3.2-.7.3-1.1c.1-.5.1-.9.1-1.4c.03.04 0-.5 0-.5h-1.6v-.8h4.2v.8h-1.6zm16.5 1.5l-.4.9c-.8-.1-1.5-.4-2.1-.7c-.6-.4-1-.9-1.3-1.4c-.3.6-.8 1-1.4 1.4c-.6.3-1.2.6-2 .7l-.4-.9c.4 0 .9-.1 1.3-.3c.4-.2.7-.4 1-.6c.3-.2.5-.5.7-.8c.1-.3.2-.6.2-.9v-.5h1.1s.02.54 0 .5c0 .3.1.6.3.9c.1.3.4.6.6.8c.3.2.7.4 1.1.6c.4.2.8.3 1.3.3zm.3 1.8v.8h-3.6v3.3H45V6.5h-3.6v-.8h8.3zm5.6 4.4l-.8.4c-.4-.8-.8-1.6-1.1-2.5c-.2-.8-.4-1.8-.4-2.8c0-1 .2-1.9.4-2.8c.3-.8.7-1.6 1.1-2.4l.8.3c-.5.8-.8 1.6-1 2.4c-.2.8-.3 1.6-.3 2.5c0 .9.1 1.8.3 2.6c.2.8.5 1.6 1 2.3zm8-6.9h1.3v.8h-1.3v3.2h-1.1V.5h1.1v2.7zm-1.9 1.3l.1.8c-.3.1-.6.1-.9.2c-.3 0-.6.1-1 .1h-2.4c0 .04-.7 0-.7 0V1.3h4.1v.9h-3.1v2.6h1.2c.3 0 .7-.1 1-.1c.3 0 .6 0 .8-.1c.3 0 .6-.1.9-.1zm-2.9 2v2.2h5.1v.9h-6.2V6.5h1.1zM71.8.6h1.1v9.2h-1.1V.6zm-3.5 4.2c-.4 0-.7 0-1-.1c-.3-.1-.5-.3-.7-.4c-.3-.2-.4-.4-.5-.6c-.2-.3-.2-.5-.2-.8c0-.3 0-.6.2-.8c.1-.2.2-.4.5-.6c.2-.2.4-.3.7-.4c.3-.1.6-.2 1-.2c.3 0 .6.1.9.2c.3.1.6.2.8.4c.2.2.3.4.5.6c.1.2.1.5.1.8c0 .3 0 .5-.1.8c-.2.2-.3.4-.5.6c-.2.1-.5.3-.8.4c-.3.1-.6.1-.9.1zm0-3c-.4 0-.8.1-1 .3c-.3.2-.4.5-.4.8c0 .3.1.6.4.8c.2.2.6.2 1 .2c.4 0 .7 0 .9-.2c.3-.2.4-.5.4-.8c0-.3-.1-.6-.4-.8c-.2-.2-.5-.3-.9-.3zm2.9 3.4l.1.7c-.4.1-.8.2-1.2.2c-.5.1-.9.1-1.3.2c.03-.05 0 3.2 0 3.2h-1s-.02-3.19 0-3.2h-1.3c-.4.1-.8.1-1.1.1l-.1-.9h1.3c.5 0 1 0 1.5-.1c.5 0 1.1 0 1.6-.1c.5 0 1-.1 1.5-.1zm4.7-2.3v1.3h-1.2V2.9h1.2zm0 4.2v1.3h-1.2V7.1h1.2zm9.3-4.6v-.2h-5.3v-.8h6.4s-.05.96 0 1c0 .3-.1.6-.1.9v1c0 .4 0 .8-.1 1.2c0 .4-.1.8-.2 1.3l-1.1-.1c.1-.4.2-.9.2-1.3c.1-.4.1-.7.2-1.1V2.5zM79 7.6h8.3v.9H79v-.9zm15.5-5v-.9h-5.4v-.8h6.4v2.5h-5.3v1h5.5v.9h-6.5V2.6h5.3zm2 3.5v.9h-3.6v2.8h-1.1V7h-3.6v-.9h8.3zm1.5 4.4l-.7-.4c.4-.7.8-1.5 1-2.3c.2-.8.3-1.7.3-2.6c0-.9-.1-1.7-.3-2.5c-.2-.8-.6-1.6-1-2.4L98 0c.5.8.9 1.6 1.1 2.4c.3.9.4 1.8.4 2.8c0 1-.1 2-.4 2.8c-.2.9-.6 1.7-1.1 2.5z" stroke="none" fill="#949596"/></g></svg>