<?xml version="1.0" standalone="no"?><!DOCTYPE svg PUBLIC "-//W3C//DTD SVG 1.1//EN" "http://www.w3.org/Graphics/SVG/1.1/DTD/svg11.dtd"><svg xmlns="http://www.w3.org/2000/svg" version="1.1" width="162px" height="19.6px" viewBox="0 -2 162 19.6" style="top:-2px"><desc>현대드림센터</desc><defs/><g id="Polygon110565"><path d="m6.6 1.7v1.2h-6V1.7h2.3V.5h1.6v1.2h2.1zM8.2 9V6.9H6.7V5.7h1.5V4.5H6.7V3.3h1.5V.5h1.6v8.5H8.2zm-2-3.5c0 .3 0 .6-.2.9c-.1.2-.3.5-.5.7c-.2.2-.5.3-.8.4c-.3.1-.7.2-1 .2c-.4 0-.8-.1-1.1-.2c-.3-.1-.6-.2-.8-.4c-.2-.2-.4-.5-.5-.7c-.2-.3-.2-.6-.2-.9c0-.3 0-.6.2-.9c.1-.2.3-.5.5-.7c.2-.2.5-.3.8-.4c.3-.1.7-.2 1.1-.2c.3 0 .7.1 1 .2c.3.1.6.2.8.4c.2.2.4.5.5.7c.2.3.2.6.2.9zm-3.6 0c0 .3.1.5.3.7c.2.2.4.3.8.3c.3 0 .5-.1.7-.3c.3-.2.4-.4.4-.7c0-.3-.1-.5-.4-.7c-.2-.2-.4-.3-.7-.3c-.4 0-.6.1-.8.3c-.2.2-.3.4-.3.7zM4 10.1h6v1.3H2.5V8.3h1.5v1.8zM19.5.5h1.5v11.1h-1.5V6.1h-1v5H17V.7h1.5v4.1h1V.5zm-6.1 2.6s-.03 4.7 0 4.7c.5 0 1 0 1.5-.1c.5 0 1-.1 1.5-.2l.1 1.3c-.7.1-1.3.2-1.9.3h-2.8V1.8h4.1v1.3h-2.5zm18 2.5v1.3h-7.8V1.5h7.7v1.2h-6.1v2.9h6.2zM22.5 9h10v1.3h-10V9zM41 .6h1.6v6.5H41V.6zm-.9 4.6l.2 1.2c-.4.1-.8.1-1.2.2c-.4 0-.8 0-1.2.1H35c-.01.03-1 0-1 0V3.3h3.5v-.9H34V1.2h5.1v3.3h-3.5s-.02.96 0 1c.4 0 .9 0 1.3-.1h1.1c.4 0 .7-.1 1.1-.1c.3 0 .7-.1 1-.1zm-4.8 6.3V7.6h7.3v3.9h-7.3zm1.5-2.7v1.4h4.3V8.8h-4.3zM53.9.5v8.3h-1.5V.5h1.5zm-3.8 8V4.3h-1.3V3.1h1.3V.7h1.5v7.8h-1.5zm-.3-2.6L49 7.1c-.5-.2-.8-.4-1.1-.8c-.3-.3-.6-.7-.7-1.1c-.2.5-.5.9-.8 1.3c-.3.4-.8.7-1.2.9l-.9-1.2c.4-.2.7-.4 1-.7c.2-.2.4-.5.6-.8c.2-.3.3-.7.4-1c0-.3.1-.7.1-1c-.02 0 0-1.4 0-1.4h1.5s.02 1.4 0 1.4c0 .3 0 .6.1 1c.1.3.2.6.3.8c.2.3.4.6.6.8l.9.6zM48 10.1h6.1v1.3h-7.7V7.8h1.6v2.3zM63.1.5h1.6v11.1h-1.6V5.7h-1.9V4.4h1.9V.5zm-5.6 5.3v2h2.1c.6-.1 1.3-.1 1.9-.3l.2 1.3c-.4.1-.8.1-1.2.2c-.4 0-.8 0-1.1.1h-2.6c.02.01-.9 0-.9 0V1.5h5.1v1.2h-3.5v1.8h3.2v1.3h-3.2z" stroke="none" fill="#fff"/></g></svg>