<?xml version="1.0" standalone="no"?><!DOCTYPE svg PUBLIC "-//W3C//DTD SVG 1.1//EN" "http://www.w3.org/Graphics/SVG/1.1/DTD/svg11.dtd"><svg xmlns="http://www.w3.org/2000/svg" version="1.1" width="162px" height="19.6px" viewBox="0 -2 162 19.6" style="top:-2px"><desc>Re:Style</desc><defs/><g id="Polygon110489"><path d="m7.9 10.6h-2L4.1 7.2H2.9v3.4H1.1V1.7s3.09-.02 3.1 0c.5 0 .9 0 1.3.1c.4.1.8.2 1.1.5c.3.2.5.4.7.8c.1.3.2.8.2 1.3c0 .6-.1 1.2-.4 1.6c-.3.4-.8.7-1.3.9c.03.02 2.1 3.7 2.1 3.7zm-5-7.5v2.7h1.1c.6 0 1-.1 1.3-.4c.3-.2.5-.6.5-1c0-.5-.2-.8-.5-1c-.3-.2-.7-.3-1.3-.3c.02-.02-1.1 0-1.1 0zm9.1 7.6c-.5 0-.9-.1-1.3-.2c-.4-.2-.8-.4-1.1-.7c-.3-.3-.5-.7-.7-1.1c-.2-.4-.2-.9-.2-1.5c0-.5 0-1 .2-1.5c.2-.4.4-.8.7-1.1c.3-.3.6-.5 1-.7c.4-.1.8-.2 1.2-.2c.4 0 .9.1 1.2.2c.3.2.6.4.9.7c.2.3.4.6.5 1c.1.4.2.8.2 1.3v.5c0 .1-.1.2-.1.3h-4.1c0 .5.2 1 .6 1.2c.3.3.7.5 1.2.5c.3 0 .6-.1.8-.1c.3-.1.5-.2.7-.4l.6 1.1c-.3.2-.7.4-1.1.5c-.4.2-.8.2-1.2.2zm-1.7-4.2h2.8c0-.4-.1-.8-.3-1.1c-.2-.2-.6-.4-1-.4c-.4 0-.7.2-.9.4c-.3.3-.5.6-.6 1.1zm7.3-3.2v1.7h-1.7V3.3h1.7zm0 4.9v1.7h-1.7V8.2h1.7zm4.6 2.5c-.6 0-1.2-.1-1.8-.3c-.5-.2-1-.6-1.5-1L20 8.2c.3.3.6.5 1 .7c.4.2.8.3 1.2.3c.5 0 .8-.1 1.1-.3c.2-.2.3-.4.3-.7c0-.2 0-.3-.1-.4c0-.2-.1-.3-.2-.3c-.2-.1-.3-.2-.5-.3c-.1-.1-.3-.1-.5-.2l-1.2-.5c-.2-.1-.4-.2-.7-.4c-.2-.1-.4-.3-.5-.5c-.2-.2-.3-.4-.4-.7c-.1-.2-.2-.5-.2-.8c0-.4.1-.7.2-1c.2-.3.4-.6.7-.8c.2-.3.6-.5.9-.6c.4-.1.8-.2 1.3-.2c.5 0 1 .1 1.5.3c.5.2.9.5 1.3.9l-.9 1.1c-.3-.3-.6-.4-.9-.6c-.3-.1-.7-.2-1-.2c-.4 0-.7.1-1 .3c-.2.1-.3.4-.3.7c0 .1 0 .3.1.4l.3.3c.1.1.3.1.4.2c.2.1.4.2.6.2l1.2.5c.5.3.9.5 1.3.9c.3.4.4.9.4 1.5c0 .4 0 .7-.2 1.1c-.1.3-.3.6-.6.8c-.3.3-.6.5-1.1.6c-.4.2-.8.2-1.3.2zm7.1 0c-.4 0-.8 0-1.1-.2c-.2-.1-.5-.2-.6-.5c-.2-.2-.3-.4-.4-.8c-.1-.3-.1-.6-.1-1c-.04.01 0-3 0-3h-1V3.9l1-.1l.2-1.8h1.5v1.8h1.7v1.4h-1.7s.02 3.01 0 3c0 .8.3 1.1.9 1.1h.4c.1 0 .2-.1.3-.1l.3 1.3c-.2 0-.4.1-.6.2h-.8zm5.9.1l-.8 2.5h-1.7l.9-2.7L31 3.8h1.8s1.04 3.16 1 3.2l.3.9c.1.3.2.6.3 1h.1c0-.4.1-.7.2-1c.1-.3.2-.6.2-.9c.04-.04 1-3.2 1-3.2h1.7l-2.4 7zm5.2-.2h-1.8V1h1.8v9.6zm4.9.1c-.5 0-.9-.1-1.4-.2c-.4-.2-.7-.4-1-.7c-.3-.3-.6-.7-.7-1.1c-.2-.4-.3-.9-.3-1.5c0-.5.1-1 .3-1.5c.2-.4.4-.8.7-1.1c.3-.3.6-.5 1-.7c.4-.1.7-.2 1.1-.2c.5 0 .9.1 1.3.2c.3.2.6.4.8.7c.3.3.5.6.6 1c.1.4.2.8.2 1.3c0 .1-.1.3-.1.5v.3h-4.2c.1.5.3 1 .6 1.2c.4.3.8.5 1.3.5c.3 0 .5-.1.8-.1c.2-.1.5-.2.7-.4l.6 1.1c-.3.2-.7.4-1.1.5c-.4.2-.8.2-1.2.2zm-1.7-4.2h2.7c0-.4-.1-.8-.3-1.1c-.2-.2-.5-.4-.9-.4c-.4 0-.7.2-1 .4c-.3.3-.4.6-.5 1.1z" stroke="none" fill="#fff"/></g></svg>