<?xml version="1.0" standalone="no"?><!DOCTYPE svg PUBLIC "-//W3C//DTD SVG 1.1//EN" "http://www.w3.org/Graphics/SVG/1.1/DTD/svg11.dtd"><svg xmlns="http://www.w3.org/2000/svg" version="1.1" width="390px" height="109.3px" viewBox="0 -2 390 109.3" style="top:-2px"><desc>중국의 황사 발원 지역인 내몽고 지역의 마른 알칼리성(소금) 호수를 초지로 복원하는 글로벌 생태 프로젝트다. 2021년부터 중국녹화기금회와 함께 내몽고 우란차뿌 차이오중치의 사막화된 호수 및 주변 퇴화된 초원 ...</desc><defs/><g id="Polygon118608"><path d="m5.1 97.1v.8H1v-4.3h.8v1.5h2.5v-1.5h.8v.9h2.1v-1.4h.9v5.5h-.9v-1.5H5.1zm2.1-1.9H5.1v1.2h2.1v-1.2zm-2.9 2v-1.5H1.8v1.5h2.5zm.7 1.6c1 0 1.7.1 2.3.4c.5.3.8.7.8 1.3c0 .5-.3.9-.8 1.2c-.6.3-1.3.5-2.3.5c-.4 0-.8-.1-1.2-.1c-.4-.1-.7-.2-1-.4c-.2-.1-.4-.3-.6-.5c-.1-.2-.2-.5-.2-.7c0-.3.1-.5.2-.7c.2-.3.4-.4.6-.6c.3-.1.6-.2 1-.3c.4-.1.8-.1 1.2-.1zm0 2.7c.7 0 1.3-.1 1.7-.2c.4-.2.6-.5.6-.8c0-.4-.2-.6-.6-.8c-.4-.2-1-.3-1.7-.3c-.7 0-1.2.1-1.6.3c-.4.2-.6.4-.6.8c0 .3.2.6.6.8c.4.1.9.2 1.6.2zm10.5-5.3v2.3h-.8v-5.3h.8v2.3h1.1V93h.8v5.8h-.8v-2.6h-1.1zm-1.2-2.1v.7H9.7v-.7h1.9v-1h.8v1h1.9zm-.3 2.7c0 .3-.1.5-.2.7c-.1.2-.2.3-.4.5l-.6.3c-.2.1-.5.1-.8.1c-.3 0-.5 0-.8-.1l-.6-.3c-.2-.2-.3-.3-.4-.5c-.1-.2-.2-.4-.2-.7c0-.2.1-.4.2-.6c.1-.2.2-.4.4-.5l.6-.3c.3-.1.5-.1.8-.1c.3 0 .6 0 .8.1l.6.3c.2.1.3.3.4.5c.1.2.2.4.2.6zm-3.2 0c0 .3.1.6.3.7c.2.2.5.3.9.3c.4 0 .7-.1.9-.3c.2-.1.3-.4.3-.7c0-.3-.1-.5-.3-.6c-.2-.2-.5-.3-.9-.3c-.4 0-.7.1-.9.3c-.2.1-.3.3-.3.6zm3.6 2.2c1 0 1.7.1 2.3.4c.5.3.8.7.8 1.2c0 .5-.3.9-.8 1.2c-.6.2-1.3.4-2.3.4c-.9 0-1.7-.2-2.2-.4c-.6-.3-.8-.7-.8-1.2c0-.5.2-.9.8-1.2c.5-.3 1.3-.4 2.2-.4zm0 2.5c.7 0 1.3 0 1.7-.2c.4-.2.6-.4.6-.7c0-.3-.2-.6-.6-.7c-.4-.2-1-.3-1.7-.3c-.7 0-1.2.1-1.6.3c-.4.1-.6.4-.6.7c0 .3.2.5.6.7c.4.2.9.2 1.6.2zm9.9-7.6v.6h-5.4v-.6h2.3v-1h.8v1h2.3zm1.7 1.3h1.4v.7H26v2.2h-.8V93h.8v2.2zm-2.2 1.2c0 .5-.2.9-.6 1.1c-.4.3-.9.4-1.6.4c-.3 0-.6 0-.9-.1c-.2 0-.5-.1-.7-.3l-.4-.4c-.1-.2-.2-.4-.2-.7c0-.2.1-.4.2-.6c.1-.2.3-.3.4-.5c.2-.1.5-.2.7-.3c.3 0 .6-.1.9-.1c.7 0 1.2.2 1.6.4c.4.3.6.7.6 1.1zm-3.6 0c0 .3.2.5.4.7c.3.1.6.2 1 .2c.5 0 .8-.1 1-.2c.3-.2.4-.4.4-.7c0-.3-.1-.5-.4-.6c-.2-.2-.5-.3-1-.3c-.4 0-.7.1-1 .3c-.2.1-.4.3-.4.6zm.8 4.2v.8h5.3v.7h-6.1V100h5v-.8h-5v-.7h5.8v2.1h-5zM37.1 93h.8v9.2h-.8V93zm-1.8 2.6v-2.3h.8v8.4h-.8v-3.1h-1.7v-.7h1.7v-1.6s-1.51-.04-1.5 0c-.2.7-.6 1.5-1.1 2.1c-.5.7-1.2 1.3-2.1 1.8l-.4-.6c1-.6 1.7-1.3 2.2-2.1c.5-.8.8-1.6.8-2.6h-2.6v-.7h3.5c0 .5-.1.9-.2 1.4h1.4zm9.7-1.7v.6h-5.3v-.6h2.2v-.9h.9v.9h2.2zm1-.8h.8v6.1h-.8v-6.1zm-.7 4.8v.6c-.5.1-1 .2-1.5.2c-.5.1-1 .1-1.5.1c-.5.1-1 .1-1.5.1h-1.3l-.1-.7h2.5v-.6c-.5-.1-.9-.2-1.2-.5c-.3-.2-.5-.5-.5-.9c0-.2.1-.4.2-.6c.1-.1.2-.3.4-.4c.2-.1.4-.2.7-.3c.2 0 .5-.1.9-.1c.3 0 .6.1.9.1c.2.1.5.2.6.3c.2.1.4.3.5.4c.1.2.1.4.1.6c0 .4-.1.7-.4.9c-.3.3-.8.4-1.3.5v.6c.4-.1.8-.1 1.2-.1c.4-.1.9-.1 1.3-.2zM41 96.2c0 .3.1.4.4.6c.2.1.5.2 1 .2c.4 0 .7-.1 1-.2c.2-.2.3-.3.3-.6c0-.2-.1-.4-.3-.6c-.3-.1-.6-.2-1-.2c-.5 0-.8.1-1 .2c-.3.2-.4.4-.4.6zm-.3 4.1v-.7h6.1v2.6h-.8v-1.9h-5.3zM55.2 93h.8v9.2h-.8V93zm-4 .7c.3 0 .6.1.9.3c.3.1.6.3.8.6c.2.3.3.6.4 1c.2.4.2.8.2 1.3c0 .5 0 1-.2 1.4c-.1.3-.2.7-.4 1c-.2.2-.5.5-.8.6c-.3.2-.6.2-.9.2c-.4 0-.7 0-1-.2c-.2-.1-.5-.4-.7-.6c-.2-.3-.4-.7-.5-1c-.1-.4-.1-.9-.1-1.4c0-.5 0-.9.1-1.3c.1-.4.3-.7.5-1c.2-.3.5-.5.7-.6c.3-.2.6-.3 1-.3zm0 .8c-.2 0-.4.1-.6.2c-.2.1-.4.3-.5.5c-.2.2-.3.4-.3.7c-.1.3-.1.7-.1 1c0 .4 0 .7.1 1c0 .3.1.6.3.8c.1.2.3.4.5.5c.2.1.4.2.6.2c.2 0 .4-.1.6-.2c.2-.1.3-.3.5-.5c.1-.2.2-.5.3-.8c.1-.3.1-.6.1-1c0-.3 0-.7-.1-1c-.1-.3-.2-.5-.3-.7c-.2-.2-.3-.4-.5-.5c-.2-.1-.4-.2-.6-.2zm15 2.2v.6h-1.5v4.9h-.8V93h.8v3.7h1.5zm-7.3-2.1s.03 4.61 0 4.6h2.2c.3-.1.7-.1 1-.1c.3-.1.6-.1.9-.2l.1.7c-.3.1-.6.1-1 .2c-.3 0-.7 0-1 .1h-2.3c.01.03-.7 0-.7 0v-6h4.2v.7h-3.4zm7.9 7v-1h.9v1h-.9z" stroke="none" fill="#111111"/></g><g id="Polygon118607"><path d="m8.3 75.3v.6H1v-.6h3.3v-.9h.8v.9h3.2zm-6.6 2.3c0-.5.3-.8.8-1c.5-.2 1.2-.3 2.2-.3c.9 0 1.7.1 2.2.3c.5.2.7.5.7 1c0 .4-.2.7-.7.9c-.5.2-1.3.3-2.2.3c-1 0-1.7-.1-2.2-.3c-.5-.2-.8-.5-.8-.9zm5 0c0-.3-.1-.4-.5-.6c-.3-.1-.8-.1-1.5-.1c-1.4 0-2.1.2-2.1.7c0 .4.7.7 2.1.7c.7 0 1.2-.1 1.5-.2c.4-.1.5-.3.5-.5zM.5 79.4h8.3v.7H.5v-.7zm6.4 2v-.8h.9v3H1.6v-3h.8v.8h4.5zm0 1.5v-.9H2.4v.9h4.5zM17.6 78l-.4.7l-1-.3c-.3-.1-.7-.3-1-.4c-.3-.2-.5-.4-.8-.7c-.2-.2-.4-.5-.5-.7c-.2.2-.4.5-.6.7c-.2.3-.5.5-.8.7c-.3.1-.6.3-1 .4l-1 .3l-.4-.7c.5 0 .9-.1 1.3-.3c.4-.2.7-.4 1-.6c.3-.2.6-.5.7-.8c.2-.3.3-.6.3-.9c.02-.02 0-.5 0-.5h.9v.5c0 .3.1.6.3.9c.2.3.4.6.7.8c.3.2.7.4 1.1.6c.4.2.8.3 1.2.3zm.4 1.7v.7h-3.7v3.3h-.9v-3.3H9.7v-.7h8.3zm9.4-3H26v1.2h1.4v.7H26v1.5h-.8v-5.5h.8v1.4h1.4v.7zm-3.1 1.9l.1.6c-.4.1-.7.2-1.1.2c-.3 0-.7.1-1 .1H20c.02.04-.7 0-.7 0v-2.6h3.3v-1.1h-3.3v-.7h4.1v2.5h-3.3s.02 1.26 0 1.3c.4 0 .8 0 1.2-.1h1c.3 0 .6-.1 1-.1c.3 0 .6-.1 1-.1zm-1.2 1.7c.4 0 .9.1 1.2.2c.4 0 .7.1 1 .3c.2.1.4.3.6.5c.1.2.2.5.2.7c0 .3-.1.5-.2.7c-.2.2-.4.4-.6.5c-.3.2-.6.3-1 .4c-.3 0-.8.1-1.2.1c-.9 0-1.7-.2-2.2-.5c-.6-.2-.8-.7-.8-1.2c0-.5.2-.9.8-1.2c.5-.3 1.3-.5 2.2-.5zm0 2.7c.7 0 1.2-.1 1.6-.2c.4-.2.6-.5.6-.8c0-.3-.2-.6-.6-.7c-.4-.2-.9-.3-1.6-.3c-.7 0-1.3.1-1.6.3c-.4.1-.6.4-.6.7c0 .3.2.6.6.8c.3.1.9.2 1.6.2zm9.1-5.1c-1 0-1.8-.2-2.3-.4c-.6-.3-.9-.7-.9-1.2c0-.5.3-.9.9-1.2c.5-.3 1.3-.4 2.3-.4c1 0 1.8.1 2.4.4c.5.3.8.7.8 1.2c0 .5-.3.9-.8 1.2c-.6.2-1.4.4-2.4.4zm0-2.6c-.8 0-1.3.1-1.7.3c-.4.1-.6.4-.6.7c0 .3.2.5.6.7c.4.2.9.2 1.7.2c.8 0 1.4 0 1.8-.2c.4-.2.6-.4.6-.7c0-.3-.2-.6-.6-.7c-.4-.2-1-.3-1.8-.3zm-4.1 3.2h8.3v.7h-8.3v-.7zm1.8 3.5v.9h5.7v.7h-6.5v-2.2h5.4v-.8h-5.4v-.7h6.2v2.1h-5.4zm10.2-3.3l-.3-.7c.5 0 .9-.1 1.3-.2c.3-.1.7-.3 1-.4c.2-.2.5-.4.6-.6c.2-.2.3-.4.3-.7c.02.02-2.8 0-2.8 0v-.6h2.9v-1h.8v1h2.9v.6s-2.87.02-2.9 0c.1.3.1.5.3.7c.2.2.4.4.7.6c.3.1.6.3 1 .4c.4.1.8.2 1.2.2l-.2.7c-.4-.1-.8-.2-1.1-.2c-.4-.1-.7-.2-1-.4c-.3-.1-.5-.3-.8-.4c-.2-.2-.4-.4-.5-.7c-.2.3-.3.5-.6.7c-.2.1-.5.3-.8.4c-.3.2-.6.3-.9.4c-.4 0-.7.1-1.1.2zm-.8.5h8.3v.6h-8.3v-.6zm1 2.3v-.7h6.3v2.9h-.8v-2.2h-5.5zm13.1-4.6h1.8v-2.3h.9v5.4h-.9v-2.4h-1.8v-.7zm.5 2.1l-.4.7c-.5-.2-1-.5-1.3-.9c-.4-.3-.7-.7-.9-1.2c-.2.5-.5 1-.9 1.4c-.4.4-.9.7-1.4.9l-.4-.6c.3-.2.6-.3.9-.5c.3-.3.5-.5.7-.8c.2-.2.4-.5.5-.8c.1-.4.2-.7.2-1c-.04 0 0-.3 0-.3h-2.1v-.7h4.9v.7h-2v.3c0 .3 0 .6.2.9c.1.3.2.5.4.8c.2.2.4.4.7.6c.3.2.6.4.9.5zm-.9 1.3c.5 0 .9 0 1.3.1c.4.1.7.2 1 .3l.6.6c.1.2.2.4.2.7c0 .3-.1.5-.2.7c-.2.2-.4.4-.6.5c-.3.2-.6.3-1 .4c-.4.1-.8.1-1.3.1c-.4 0-.9 0-1.2-.1c-.4-.1-.7-.2-1-.4c-.3-.1-.5-.3-.6-.5c-.1-.2-.2-.4-.2-.7c0-.3.1-.5.2-.7c.1-.2.3-.4.6-.6c.3-.1.6-.2 1-.3c.3-.1.8-.1 1.2-.1zm0 2.7c.7 0 1.3-.1 1.7-.2c.4-.2.6-.5.6-.8c0-.3-.2-.6-.6-.8c-.4-.2-1-.3-1.7-.3c-.7 0-1.2.1-1.6.3c-.4.2-.6.5-.6.8c0 .3.2.6.6.8c.4.1.9.2 1.6.2zm13.2-4.7v.7h-1.5v4.7h-.8v-9.1h.8v3.7h1.5zm-5.4-3.6v1.3h2.2v.7h-5.3v-.7h2.3v-1.3h.8zm-.4 2.7c.3 0 .6.1.9.2c.3.1.5.2.7.4c.2.2.3.4.5.7c.1.3.1.5.1.8c0 .4 0 .6-.1.9c-.2.3-.3.5-.5.7c-.2.2-.4.3-.7.4c-.3.1-.6.1-.9.1c-.3 0-.6 0-.9-.1c-.3-.1-.5-.2-.7-.4c-.2-.2-.4-.4-.5-.7c-.1-.3-.1-.5-.1-.9c0-.3 0-.5.1-.8c.1-.3.3-.5.5-.7c.2-.2.4-.3.7-.4c.3-.1.6-.2.9-.2zm0 3.6c.2 0 .4-.1.6-.2c.1 0 .3-.1.4-.2c.1-.2.2-.3.3-.5c.1-.2.1-.3.1-.6c0-.2 0-.3-.1-.5c-.1-.2-.2-.3-.3-.5c-.1-.1-.3-.2-.4-.3c-.2 0-.4-.1-.6-.1c-.2 0-.4.1-.6.1c-.2.1-.3.2-.4.3c-.2.2-.3.3-.3.5c-.1.2-.1.3-.1.5c0 .3 0 .4.1.6c0 .2.1.3.3.5c.1.1.2.2.4.2c.2.1.4.2.6.2zm13.8-3.7v.7H68v-3.1h.8v2.4h5.4zm-7.3 1.9h8.3v.7h-8.3v-.7zm1.9 1.6v2h5.5v.7h-6.4v-2.7h.9zm16-2s-2.28.04-2.3 0c-.2.3-.5.5-.8.7c-.3.1-.7.2-1.1.2c-.3 0-.6 0-.9-.2c-.3-.1-.5-.2-.7-.4c-.3-.2-.4-.5-.5-.8c-.2-.2-.2-.5-.2-.9c0-.3 0-.6.2-.9c.1-.3.2-.5.5-.7c.2-.2.4-.4.7-.5c.3-.1.6-.2.9-.2c.4 0 .8.1 1.1.3c.3.1.6.3.8.6c.01-.02 2.3 0 2.3 0v-1.4h.9v6.7h-.9v-2.5zm-5.7-1.4c0 .2 0 .5.1.6c.1.2.2.4.3.5c.2.2.3.3.5.4c.2 0 .4.1.6.1c.3 0 .5-.1.7-.1c.1-.1.3-.2.4-.4c.2-.1.3-.3.4-.5c.1-.1.1-.4.1-.6c0-.2 0-.4-.1-.6c-.1-.2-.2-.4-.4-.5c-.1-.1-.3-.2-.4-.3c-.2-.1-.4-.1-.7-.1c-.2 0-.4 0-.6.1c-.2.1-.3.2-.5.3c-.1.1-.2.3-.3.5c-.1.2-.1.4-.1.6zm5.7-.7s-1.94-.05-1.9 0c0 .2.1.4.1.7c0 .3-.1.5-.1.8c-.04-.03 1.9 0 1.9 0v-1.5zm-4.1 6.1h5.2v.7h-6.1v-2.9h.9v2.2zm14.9-3.7v.7h-3.7v3.9h-.9v-3.9h-3.7v-.7s6.1-.03 6.1 0c.1-.7.2-1.3.3-1.8v-1.5h-5.3v-.7h6.1v2.2c0 .5-.1 1.1-.3 1.8c.05-.03 1.4 0 1.4 0zm7.3-3v-.7h-5.4v-.6h6.2v1.9h-5.3v.8h5.5v.6h-6.3v-2h5.3zm-6.4 2.7h8.3v.6h-8.3v-.6zm1.8 3.3v.9h5.7v.6h-6.5v-2.1h5.4v-.7h-5.4v-.6h6.3v1.9h-5.5zm17-7.5v6.6h-.9v-6.6h.9zm-1.9 4.7l-.5.6c-.5-.1-1-.4-1.3-.8c-.4-.3-.8-.8-1-1.2c-.2.5-.5.9-.9 1.3c-.4.4-.8.7-1.4.9l-.4-.6c.3-.2.6-.3.9-.5c.3-.2.6-.5.8-.7c.2-.3.3-.6.4-.9c.1-.3.2-.6.2-.9v-.5h-2.1v-.7h5v.7h-2s-.04.48 0 .5c0 .3 0 .6.1.9c.1.3.3.5.5.8c.2.2.4.4.7.6c.3.2.6.4 1 .5zm-3.2 3.5h5.3v.7h-6.1v-2.9h.8v2.2zm12.5-5.1v2.3h-.8v-5.3h.8v2.3h1.2v-2.5h.8v5.8h-.8v-2.6h-1.2zm-1.2-2.1v.7h-4.6v-.7h1.9v-1h.8v1h1.9zm-.3 2.7c0 .3-.1.5-.2.7c-.1.2-.2.3-.4.5c-.1.1-.3.2-.6.3c-.2.1-.5.1-.8.1c-.3 0-.5 0-.8-.1l-.6-.3c-.2-.2-.3-.3-.4-.5c-.1-.2-.1-.4-.1-.7c0-.2 0-.4.1-.6c.1-.2.2-.4.4-.5l.6-.3c.3-.1.5-.1.8-.1c.3 0 .6 0 .8.1c.3.1.5.2.6.3c.2.1.3.3.4.5c.1.2.2.4.2.6zm-3.2 0c0 .3.1.6.4.7c.2.2.5.3.8.3c.4 0 .7-.1.9-.3c.2-.1.3-.4.3-.7c0-.3-.1-.5-.3-.6c-.2-.2-.5-.3-.9-.3c-.3 0-.6.1-.8.3c-.3.1-.4.3-.4.6zm3.7 2.2c.9 0 1.7.1 2.2.4c.5.3.8.7.8 1.2c0 .5-.3.9-.8 1.2c-.5.2-1.3.4-2.2.4c-1 0-1.7-.2-2.3-.4c-.5-.3-.8-.7-.8-1.2c0-.5.3-.9.8-1.2c.6-.3 1.3-.4 2.3-.4zm0 2.5c.7 0 1.2 0 1.6-.2c.4-.2.6-.4.6-.7c0-.3-.2-.6-.6-.7c-.4-.2-.9-.3-1.6-.3c-.7 0-1.3.1-1.7.3c-.4.1-.6.4-.6.7c0 .3.2.5.6.7c.4.2 1 .2 1.7.2zm13-4.7v.7h-1.5v4.7h-.9v-9.1h.9v3.7h1.5zm-5.5-3.6v1.3h2.3v.7h-5.4v-.7h2.3v-1.3h.8zm-.4 2.7c.3 0 .6.1.9.2c.3.1.5.2.7.4c.2.2.4.4.5.7c.1.3.1.5.1.8c0 .4 0 .6-.1.9c-.1.3-.3.5-.5.7c-.2.2-.4.3-.7.4c-.3.1-.6.1-.9.1c-.3 0-.6 0-.9-.1c-.3-.1-.5-.2-.7-.4c-.2-.2-.3-.4-.4-.7c-.2-.3-.2-.5-.2-.9c0-.3 0-.5.2-.8c.1-.3.2-.5.4-.7c.2-.2.4-.3.7-.4c.3-.1.6-.2.9-.2zm0 3.6c.2 0 .4-.1.6-.2c.2 0 .3-.1.4-.2c.2-.2.3-.3.3-.5c.1-.2.1-.3.1-.6c0-.2 0-.3-.1-.5c0-.2-.1-.3-.3-.5c-.1-.1-.2-.2-.4-.3c-.2 0-.4-.1-.6-.1c-.2 0-.4.1-.6.1c-.1.1-.3.2-.4.3c-.1.2-.2.3-.3.5c-.1.2-.1.3-.1.5c0 .3 0 .4.1.6c.1.2.2.3.3.5c.1.1.3.2.4.2c.2.1.4.2.6.2zm13.8-3.7v.7h-6.2v-3.1h.9v2.4h5.3zm-7.3 1.9h8.3v.7h-8.3v-.7zm1.9 1.6v2h5.5v.7h-6.3v-2.7h.8zm14.8-5.1v.6h-5.4v-.6h2.3v-1.1h.8v1.1h2.3zm1.7 1.9h1.3v.7h-1.3v3.1h-.9v-6.8h.9v3zm-2.2.9c0 .3-.1.5-.2.7c-.1.3-.2.4-.4.6c-.2.1-.5.2-.7.3c-.3.1-.6.1-.9.1c-.3 0-.6 0-.9-.1c-.3-.1-.5-.2-.7-.3c-.2-.2-.3-.3-.4-.6c-.1-.2-.2-.4-.2-.7c0-.2.1-.5.2-.7c.1-.2.2-.3.4-.5c.2-.1.4-.3.7-.3c.3-.1.6-.2.9-.2c.3 0 .6.1.9.2c.2 0 .5.2.7.3c.2.2.3.3.4.5c.1.2.2.5.2.7zm-3.6 0c0 .4.1.6.4.8c.2.2.6.3 1 .3c.4 0 .7-.1 1-.3c.3-.2.4-.4.4-.8c0-.3-.1-.5-.4-.7c-.3-.2-.6-.3-1-.3c-.4 0-.8.1-1 .3c-.3.2-.4.4-.4.7zm.9 2.4v1.9h5.3v.7H148v-2.6h.8zm13.6.4v-2.6h-1.5v-.7h1.5v-1h-1.5v-.7h1.5v-1.7h.9v6.7h-.9zm-1.3-2.3l.1.7c-.5 0-.9.1-1.4.1c-.5.1-.9.1-1.4.1c-.4 0-.9.1-1.3.1h-1.2c-.03-.03-.1-.7-.1-.7c0 0 .83-.03.8 0h.3c.03-.04 0-3.3 0-3.3h-.9v-.7h4.8v.7h-.9s.03 3.15 0 3.2c.2-.1.4-.1.6-.1c.2 0 .4 0 .6-.1zm-3.4-3s.03 3.25 0 3.3c.3-.1.5-.1.7-.1h.7V76h-1.4zm.6 6.8h5.2v.7h-6.1v-2.7h.9v2zm6.3.9l.4-2.1h.9l-.6 2.1h-.7zm10.5-7.9c.02-.02 0-.1 0-.1h-5.4v-.7h6.2s.05.78 0 .8v1.1c0 .4-.1.8-.2 1.3l-.8-.1c.1-.5.2-.9.2-1.2v-1.1zm-2.1 3h4v.7h-8.3v-.7h3.4V77h.9v1.8zm-.2 1.5c.5 0 1 .1 1.3.1c.4.1.8.2 1.1.4c.2.1.4.3.6.5c.1.2.2.4.2.7c0 .3-.1.5-.2.7c-.2.2-.4.4-.6.5c-.3.2-.7.3-1.1.4c-.3 0-.8.1-1.3.1c-.5 0-.9-.1-1.3-.1c-.4-.1-.7-.2-1-.4c-.3-.1-.5-.3-.6-.5c-.2-.2-.3-.4-.3-.7c0-.3.1-.5.3-.7c.1-.2.3-.4.6-.5c.3-.2.6-.3 1-.4c.4 0 .8-.1 1.3-.1zm0 2.7c.7 0 1.3-.1 1.7-.2c.5-.2.7-.5.7-.8c0-.3-.2-.6-.7-.8c-.4-.1-1-.2-1.7-.2c-.7 0-1.3.1-1.7.2c-.4.2-.6.5-.6.8c0 .3.2.6.6.8c.4.1 1 .2 1.7.2zm11.8-8.4h.8v5.4h-.8v-5.4zm-4.1.5c.4 0 .7 0 1 .1c.3.2.5.3.7.5c.2.2.4.4.5.7c.1.2.2.5.2.9c0 .3-.1.6-.2.8c-.1.3-.3.5-.5.7c-.2.2-.4.4-.7.5c-.3.1-.6.1-1 .1c-.3 0-.7 0-1-.1c-.2-.1-.5-.3-.7-.5c-.2-.2-.4-.4-.5-.7c-.1-.2-.2-.5-.2-.8c0-.4.1-.7.2-.9c.1-.3.3-.5.5-.7c.2-.2.5-.3.7-.5c.3-.1.7-.1 1-.1zm0 .7c-.2 0-.4 0-.6.1c-.2.1-.4.2-.5.3c-.2.1-.3.3-.3.5c-.1.1-.2.3-.2.6c0 .2.1.4.2.5c0 .2.1.4.3.5c.1.1.3.2.5.3c.2.1.4.1.6.1c.2 0 .4 0 .6-.1c.2-.1.4-.2.5-.3c.2-.1.3-.3.4-.5c0-.1.1-.3.1-.5c0-.3-.1-.5-.1-.6c-.1-.2-.2-.4-.4-.5c-.1-.1-.3-.2-.5-.3c-.2-.1-.4-.1-.6-.1zm-1.2 4.7h6.1v3.2h-.8v-2.5h-5.3v-.7zm15.6-3.1l-.3.7c-.4-.1-.7-.2-1-.3c-.4-.1-.7-.2-1-.4c-.3-.2-.6-.4-.8-.6c-.2-.2-.4-.4-.6-.7c-.1.3-.3.5-.5.7c-.3.2-.5.4-.8.6c-.3.2-.6.3-1 .4l-1 .3l-.3-.7c.4 0 .8-.1 1.2-.3c.3-.1.7-.3 1-.5c.3-.2.5-.5.7-.7c.2-.3.3-.6.3-.9v-.4h.9s-.04.45 0 .5c0 .2 0 .5.2.8c.2.2.5.5.8.7c.3.2.6.4 1 .5c.4.2.8.3 1.2.3zm.5 2h-3.8v1.1h2.9v.7h-1.4v1.7h1.4v.6h-6.6v-.6h1.5v-1.7H188v-.7h2.8v-1.1h-3.7v-.6h8.3v.6zm-3.2 3.5v-1.7h-2v1.7h2zm6.9-3l-.4-.6c.4-.1.8-.2 1.2-.4c.4-.2.8-.4 1.1-.7c.3-.3.6-.6.8-.9c.2-.3.3-.7.3-1c-.04-.05 0-.2 0-.2H199v-.7h7v.7h-3.1s.03.15 0 .2c0 .3.1.7.3 1c.2.3.5.6.8.9c.3.3.7.5 1.1.7c.4.1.8.3 1.2.3l-.4.7l-1-.3c-.4-.2-.7-.3-1-.6c-.3-.2-.6-.4-.8-.7c-.3-.2-.5-.5-.6-.8c-.1.3-.3.6-.6.9c-.2.2-.5.5-.8.7c-.3.2-.6.4-1 .5c-.3.2-.7.3-1 .3zm3.8 1.9h3.8v.7h-8.4v-.7h3.8v-2.2h.8v2.2zm11.3-1.8v-2.8h-2v-.7h2v-1.9h.9v5.4h-.9zm-1.3-1.1l-.5.6c-.5-.2-.9-.4-1.3-.8c-.3-.3-.6-.7-.8-1.2c-.2.5-.5 1-.9 1.4c-.4.4-.9.7-1.4.9l-.5-.7c.4-.1.7-.3 1-.5c.3-.2.5-.4.7-.7c.2-.3.4-.6.5-.9c.1-.3.1-.7.1-1c.03 0 0-.9 0-.9h.9s-.03.87 0 .9c0 .3 0 .6.1.9c.1.3.3.6.5.8c.2.3.4.5.7.7c.3.2.6.4.9.5zm-.9 1.3c.5 0 .9.1 1.3.1c.4.1.7.2 1 .4c.2.1.4.3.6.5c.1.2.2.5.2.8c0 .2-.1.5-.2.7c-.2.2-.4.4-.6.5c-.3.2-.6.3-1 .4c-.4 0-.8.1-1.3.1c-.4 0-.8-.1-1.2-.1c-.4-.1-.7-.2-1-.4c-.2-.1-.4-.3-.6-.5c-.1-.2-.2-.5-.2-.7c0-.3.1-.6.2-.8c.2-.2.4-.4.6-.5c.3-.2.6-.3 1-.4c.4 0 .8-.1 1.2-.1zm0 2.8c.7 0 1.3-.1 1.7-.3c.4-.2.6-.4.6-.7c0-.4-.2-.7-.6-.8c-.4-.2-1-.3-1.7-.3c-.7 0-1.2.1-1.6.3c-.4.1-.6.4-.6.8c0 .3.2.5.6.7c.4.2.9.3 1.6.3zm13.2-4.6v.7h-1.5v4.6h-.8v-9.2h.8v3.9h1.5zm-3.7 1.3l-.9-.1c.2-.8.3-1.4.3-2v-1.4c.02.02-3.8 0-3.8 0v-.7h4.6s.04.54 0 .5v1.5c0 .6-.1 1.3-.2 2.2zm-2.1-1.5s-.02 2.75 0 2.7h1.5c.5-.1 1-.1 1.4-.2l.1.6c-.5.1-1 .2-1.5.2c-.5.1-1 .1-1.5.1c-.4.1-.9.1-1.4.1h-1.3l-.1-.7h2c-.05-.03 0-2.8 0-2.8h.8zm9.4.8l-.3-.7c.4 0 .8-.1 1.1-.3c.4-.1.8-.3 1.1-.6c.3-.2.5-.4.7-.7c.2-.3.2-.6.2-.9c.04.04 0 0 0 0h-2.8v-.7h6.6v.7h-2.8s-.03.04 0 0c0 .3.1.6.2.9c.2.3.5.5.8.7c.3.3.6.5 1 .6c.4.2.8.3 1.2.3l-.4.7l-1-.3c-.3-.1-.7-.3-1-.4c-.2-.2-.5-.4-.7-.7c-.3-.2-.5-.4-.6-.7c-.1.3-.3.5-.6.7c-.2.3-.4.5-.7.7c-.3.1-.6.3-1 .4l-1 .3zm7.4.8l.1.6h-3.8v3.3h-.8v-3.3H228v-.6h8.2zm8.5-5.2v6.5h-.9v-6.5h.9zm-2.8.7v4.3h-4.3v-4.3h4.3zm-.8 3.6V76h-2.7v2.9h2.7zm-1.5 3.8h5.3v.7h-6.1v-2.9h.8v2.2zm16.7-3.7l-.4.7c-.3-.1-.6-.2-1-.3c-.3-.2-.7-.4-1-.6c-.3-.2-.5-.5-.8-.7l-.6-.9c-.1.3-.3.6-.6.9c-.2.2-.5.5-.8.7c-.3.2-.6.4-1 .6l-1 .3l-.4-.7c.4-.1.8-.2 1.2-.4c.4-.2.8-.4 1.1-.7c.3-.3.6-.6.8-.9c.2-.4.3-.8.3-1.1c-.02-.04 0-.7 0-.7h.9s-.04.66 0 .7c0 .3.1.7.3 1.1c.2.3.4.6.7.9c.3.3.7.5 1.1.7c.4.2.8.3 1.2.4zm-3.4 2.8h3.8v.7h-8.3v-.7h3.7v-2.2h.8v2.2zm12-4.5v.7h-6.3v-3.1h6.2v.7h-5.3v1.7h5.4zm-7.3 1.7h8.3v.7h-8.3v-.7zm.9 2.4v-.6h6.4v2.9h-.9v-2.3h-5.5zm9-3.1l-.3-.6c.4-.1.8-.1 1.2-.3c.4-.1.7-.2 1-.4c.3-.2.5-.4.7-.6c.2-.2.3-.5.3-.7c-.03-.02-2.9 0-2.9 0v-.7h6.8v.7s-2.85-.02-2.8 0c0 .2.1.5.2.7c.2.2.4.4.7.6c.3.2.6.3 1 .4c.4.2.8.2 1.2.3l-.3.6c-.4 0-.8-.1-1.1-.2c-.4-.1-.7-.2-1-.4c-.3-.1-.5-.3-.8-.5c-.2-.2-.4-.5-.5-.7c-.1.2-.3.5-.5.7c-.3.2-.5.4-.8.5c-.3.2-.6.3-1 .4c-.3.1-.7.2-1.1.2zm-.7.6h8.2v.7h-8.2v-.7zm4.1 1.5c1 0 1.7.1 2.3.4c.6.3.8.7.8 1.2c0 .6-.2 1-.8 1.3c-.6.2-1.3.4-2.3.4c-1 0-1.8-.2-2.3-.4c-.6-.3-.8-.7-.8-1.3c0-.5.2-.9.8-1.2c.5-.3 1.3-.4 2.3-.4zm0 2.6c.7 0 1.3-.1 1.7-.2c.4-.2.6-.5.6-.8c0-.3-.2-.6-.6-.7c-.4-.2-1-.3-1.7-.3c-.7 0-1.3.1-1.7.3c-.4.1-.6.4-.6.7c0 .3.2.6.6.8c.4.1 1 .2 1.7.2zm12-8.5h.8v9.2h-.8v-4.8h-1.3v4.3h-.8v-8.5h.8v3.5h1.3v-3.7zm-5.8 1.8v4.4h1.6c.5-.1 1-.1 1.5-.2l.1.7c-.3 0-.6.1-.8.1c-.3 0-.6.1-.8.1h-1.8c-.02.04-.6 0-.6 0v-5.7h3.4v.6h-2.6zm16.6 2v.6h-1.5v4.8h-.9v-9.1h.9v3.7h1.5zm-5.5-3v1.7c0 .4.1.8.2 1.2c.1.4.3.7.5 1.1c.2.3.4.7.7.9c.3.3.6.5.9.7l-.5.7c-.5-.3-.9-.7-1.3-1.2c-.4-.5-.7-1-.9-1.7c-.2.7-.5 1.3-.9 1.8c-.4.5-.9 1-1.4 1.2l-.5-.6c.3-.2.7-.4.9-.7c.3-.3.6-.6.8-1c.2-.4.4-.8.5-1.2c.1-.4.2-.8.2-1.2c-.03-.02 0-1.7 0-1.7h.8zm12.8-.7h.8v4.9h-.8v-2.1h-1.9c0 .6-.3 1-.7 1.3c-.4.3-1 .5-1.6.5c-.3 0-.6 0-.9-.2c-.3-.1-.6-.2-.8-.4c-.2-.2-.4-.4-.5-.7c-.1-.2-.1-.5-.1-.8c0-.3 0-.6.1-.9c.1-.2.3-.5.5-.6c.2-.2.5-.4.8-.5c.3-.1.6-.1.9-.1c.3 0 .6 0 .9.1c.2.1.5.2.7.4c.2.1.3.3.5.5c.1.2.2.5.2.7c.03.02 1.9 0 1.9 0v-2.1zm-4.2 3.9c.2 0 .4 0 .6-.1c.2-.1.4-.2.5-.3c.2-.1.3-.3.4-.4c0-.2.1-.4.1-.6c0-.2-.1-.4-.1-.6c-.1-.2-.2-.3-.4-.4c-.1-.2-.3-.3-.5-.3c-.2-.1-.4-.1-.6-.1c-.2 0-.4 0-.6.1c-.2 0-.4.1-.5.3c-.1.1-.3.2-.3.4c-.1.2-.2.4-.2.6c0 .2.1.4.2.6c0 .1.2.3.3.4c.1.1.3.2.5.3c.2.1.4.1.6.1zm4.2 2.6v-1.2h.8v3.7H296v-3.7h.8v1.2h4.2zm0 1.8v-1.2h-4.2v1.2h4.2zm5 1.2l-.6.3c-.5-.8-.8-1.6-1.1-2.4c-.3-.8-.4-1.8-.4-2.8c0-1 .1-1.9.4-2.8c.3-.8.6-1.6 1.1-2.4l.6.3c-.5.7-.8 1.5-1 2.3c-.2.9-.3 1.7-.3 2.6c0 .9.1 1.8.3 2.6c.2.8.5 1.6 1 2.3zm8.2-9.5v6.7h-.8v-6.7h.8zm-1.8 4.8l-.4.6c-.6-.1-1-.4-1.4-.7c-.4-.4-.7-.8-.9-1.3c-.2.5-.5 1-.9 1.4c-.4.3-.9.6-1.5.8l-.4-.7c.4-.1.7-.2 1-.4c.2-.2.5-.4.7-.7c.2-.2.3-.5.5-.8c.1-.3.1-.6.1-.9c.02-.03 0-.3 0-.3h-2.1v-.6h2.1v-1.2h.9v1.2h2v.6H310s.05.27 0 .3c0 .3.1.6.2.8c.1.3.3.6.5.8c.2.3.4.5.7.6c.3.2.6.4 1 .5zm-3.2 3.4h5.3v.7h-6.1v-2.8h.8v2.1zm12.1-7.4v.7h-5.2v-.7h2.2v-.9h.8v.9h2.2zm1.7 2.3h1.3v.7H323v3.3h-.8v-7.2h.8v3.2zm-1.4 2l.1.6c-.5 0-1 .1-1.5.2c-.5 0-1 .1-1.5.1h-1.4c-.5 0-.9.1-1.3.1l-.1-.7h1.1c.4 0 .9 0 1.3-.1v-.7c-.5 0-.9-.2-1.2-.4c-.4-.2-.5-.6-.5-1c0-.2 0-.4.1-.5c.1-.2.3-.4.5-.5c.2-.1.4-.2.7-.3c.2 0 .5-.1.8-.1c.3 0 .6.1.9.1c.3.1.5.2.7.3c.2.1.3.3.4.5c.1.1.2.3.2.5c0 .4-.2.8-.5 1c-.3.2-.7.4-1.3.4v.7c.5 0 .9-.1 1.3-.1c.4 0 .8-.1 1.2-.1zm-4.2-1.9c0 .3.1.5.3.6c.3.2.6.3 1 .3c.4 0 .8-.1 1-.3c.2-.1.4-.3.4-.6c0-.2-.2-.4-.4-.5c-.2-.2-.6-.3-1-.3c-.4 0-.7.1-1 .3c-.2.1-.3.3-.3.5zm.7 3.4v1.6h5.2v.7h-6.1v-2.3h.9zm13.7-4.3h-2.3c-.6 1.5-1.9 2.5-3.9 3.1l-.4-.6c1.1-.4 2-.8 2.6-1.4c.7-.6 1-1.3 1.1-2.1h-3.2v-.7s4.12.03 4.1 0v.5c0 .2-.1.4-.1.5c.01.02 2.1 0 2.1 0v-1.6h.8v5.4h-.8v-1.2h-2.4v-.7h2.4v-1.2zm-2.2 3.2c.5 0 .9.1 1.3.1c.4.1.7.2 1 .4c.2.1.4.3.6.5c.1.3.2.5.2.8c0 .3-.1.5-.2.7l-.6.6c-.3.1-.6.2-1 .3c-.4.1-.8.1-1.3.1c-.4 0-.8 0-1.2-.1c-.4-.1-.7-.2-1-.3l-.6-.6c-.1-.2-.2-.4-.2-.7c0-.3.1-.5.2-.8c.2-.2.4-.4.6-.5c.3-.2.6-.3 1-.4c.4 0 .8-.1 1.2-.1zm0 2.9c.7 0 1.3-.1 1.7-.3c.3-.2.5-.5.5-.8c0-.4-.2-.6-.5-.8c-.4-.2-1-.3-1.7-.3c-.6 0-1.2.1-1.6.3c-.4.2-.6.4-.6.8c0 .3.2.6.6.8c.4.2 1 .3 1.6.3zm14.3-8.4v6.5h-.9v-6.5h.9zm-2.8.7v4.3h-4.3v-4.3h4.3zm-.8 3.6V76h-2.7v2.9h2.7zm-1.5 3.8h5.3v.7H338v-2.9h.8v2.2zm15.2-5.8v.7h-1.4v2.5h-.8v-5.5h.8v2.3h1.4zm-3.9-1.8v4.3h-4.2v-4.3h.8v1.4h2.6v-1.4h.8zm-.8 3.7v-1.6h-2.6v1.6h2.6zm-2.6 2.4v-.6h5.9v3.1h-.8v-2.5h-5.1zm8.5 3.1l-.6-.2c.5-.8.8-1.6 1-2.4c.2-.8.3-1.7.3-2.5c0-.9-.1-1.8-.3-2.6c-.2-.8-.5-1.6-1-2.4l.6-.2c.5.7.8 1.5 1.1 2.4c.3.8.4 1.7.4 2.8c0 1-.1 1.9-.4 2.7c-.3.9-.6 1.7-1.1 2.4zm6.9-6.4c-1 0-1.8-.2-2.4-.4c-.5-.3-.8-.7-.8-1.2c0-.5.3-.9.8-1.2c.6-.3 1.4-.4 2.4-.4c1 0 1.8.1 2.3.4c.6.3.9.7.9 1.2c0 .5-.3.9-.9 1.2c-.5.2-1.3.4-2.3.4zm0-2.6c-.8 0-1.4.1-1.8.3c-.4.1-.6.4-.6.7c0 .3.2.5.6.7c.4.2 1 .2 1.8.2c.7 0 1.3 0 1.7-.2c.4-.2.6-.4.6-.7c0-.3-.2-.6-.6-.7c-.4-.2-1-.3-1.7-.3zm-4.2 3.2h8.3v.7h-8.3v-.7zm1.9 3.5v.9h5.6v.7H359v-2.2h5.3v-.8h-5.4v-.7h6.3v2.1h-5.4z" stroke="none" fill="#111111"/></g><g id="Polygon118606"><path d="m7.2 56h.8v9.2h-.8V56zM4 61.1v1.5c.4 0 .9-.1 1.3-.1c.4 0 .9-.1 1.3-.2v.7c-.5.1-1 .1-1.5.2c-.6 0-1.1.1-1.6.1H2c-.4.1-.9.1-1.3.1l-.1-.7h1.2c.5 0 .9-.1 1.4-.1c-.03.03 0-1.5 0-1.5H1.3v-4.2h4.7v.6H2.1v1.1h3.7v.7H2.1v1.1h3.9v.7h-2zm14.2-1.2v.7h-1.4v4.6h-.9V56h.9v3.9h1.4zm-3-2.7v.6H9.8v-.6h2.3v-1.1h.8v1.1h2.3zm-2.3 4.5v1c.4 0 .9-.1 1.3-.1c.4 0 .8-.1 1.2-.1v.6c-.4.1-.9.1-1.5.2c-.5 0-1 .1-1.4.1c-.5 0-1 0-1.5.1H9.7l-.1-.7c.4 0 .8 0 1.2-.1h1.3v-1c-.5 0-1-.2-1.3-.5c-.3-.3-.4-.7-.4-1.2c0-.2 0-.4.1-.6c.1-.3.3-.4.5-.6c.1-.1.4-.2.6-.3c.3-.1.6-.1.9-.1c.3 0 .6 0 .9.1c.3.1.5.2.7.3c.2.2.3.3.4.6c.1.2.2.4.2.6c0 .5-.2.9-.5 1.2c-.3.3-.7.5-1.3.5zM11.1 60c0 .4.2.6.4.8c.3.2.6.3 1 .3c.4 0 .8-.1 1-.3c.3-.2.4-.4.4-.8c0-.3-.1-.5-.4-.7c-.2-.2-.6-.3-1-.3c-.4 0-.7.1-1 .3c-.2.2-.4.4-.4.7zm15.3-4v6.9h-.8V56h.8zm-1.6 4.8l.1.6c-.5.1-1 .1-1.5.2c-.5 0-1 0-1.5.1h-2.8l-.2-.7h2.6c.02.01 0-1.3 0-1.3h-1.7v-3.1h4.3v.7h-3.5v1.7h3.6v.7h-1.8s-.04 1.28 0 1.3c.4 0 .8-.1 1.2-.1c.4 0 .8-.1 1.2-.1zm-3.5 3.5h5.4v.7h-6.2v-2.6h.8v1.9zm9.6-2.7l-.3-.7c.5 0 .9-.2 1.3-.3c.4-.2.7-.4 1-.6c.3-.3.6-.5.7-.8c.2-.4.3-.7.3-1c-.02-.04-3 0-3 0v-.7h3v-1.3h.8v1.3h3v.7s-2.97-.04-3 0c0 .3.1.6.3 1c.2.3.4.5.7.8c.3.2.6.4 1 .6c.4.1.9.3 1.3.3l-.3.7c-.4-.1-.8-.2-1.1-.3c-.3-.1-.7-.3-.9-.5c-.3-.1-.6-.3-.8-.6c-.3-.2-.4-.5-.6-.7c-.1.2-.3.5-.5.7c-.3.3-.5.5-.8.6c-.3.2-.6.4-1 .5c-.3.1-.7.2-1.1.3zm3.8 1.7h3.8v.7h-8.3v-.7h3.7v-2h.8v2zm9.4-1.9h1.9V56h.8v7h-.8v-.9h-1.9v-.7zm-1.8-1.8c-.4 0-.7 0-.9-.1c-.3-.1-.6-.2-.8-.3c-.2-.2-.3-.3-.4-.5c-.1-.2-.2-.5-.2-.7c0-.2.1-.5.2-.7c.1-.2.2-.3.4-.5c.2-.1.5-.2.8-.3c.2-.1.5-.1.9-.1c.3 0 .6 0 .9.1c.3.1.5.2.7.3c.2.2.4.3.5.5c.1.2.1.5.1.7c0 .2 0 .5-.1.7c-.1.2-.3.3-.5.5c-.2.1-.4.2-.7.3c-.3.1-.6.1-.9.1zm0-2.6c-.5 0-.8.1-1.1.3c-.3.2-.4.4-.4.7c0 .3.1.5.4.7c.3.2.6.3 1.1.3c.4 0 .8-.1 1-.3c.3-.2.4-.4.4-.7c0-.3-.1-.5-.4-.7c-.2-.2-.6-.3-1-.3zm-.4 5.7s.04-1.78 0-1.8c-.4 0-.9.1-1.3.1h-1.2l-.1-.7h1.4c.4 0 .9 0 1.4-.1h1.6c.5-.1 1-.1 1.5-.2l.1.6c-.5.1-.9.1-1.3.2c-.4 0-.8 0-1.2.1c-.02-.02 0 1.8 0 1.8h-.9zm-.5 1.6h5.7v.7h-6.5v-2.7h.8v2zm15.9-8.2h.8v9.1h-.8v-9.1zm-3.4 1.6s-.03 1.14 0 1.1c0 .4 0 .8.2 1.2c.1.4.3.7.5 1.1c.2.3.5.6.8.8c.3.3.6.5.9.6l-.5.7c-.5-.2-1-.6-1.4-1.1c-.4-.5-.7-1.1-1-1.7l-.3 1c-.2.3-.4.6-.6.8c-.2.3-.4.5-.7.7c-.2.2-.5.4-.7.5l-.5-.6c.3-.2.6-.4.9-.7c.3-.3.6-.6.8-.9c.2-.4.4-.8.5-1.2c.2-.4.2-.8.2-1.2c.03.04 0-1.1 0-1.1h-2.1v-.7h5.1v.7h-2.1zm12.6-1.6l.8-.1v5.4h-.8v-1.3s-2.34.02-2.3 0c-.3.3-.5.5-.8.6c-.4.2-.7.3-1.1.3c-.4 0-.7-.1-1-.2c-.3-.1-.5-.3-.7-.5c-.2-.2-.4-.4-.5-.7c-.1-.2-.2-.5-.2-.9c0-.3.1-.6.2-.8c.1-.3.3-.5.5-.7c.2-.2.4-.4.7-.5c.3-.1.6-.1 1-.1c.4 0 .7 0 1.1.2c.3.1.6.3.8.6h2.3v-1.3zm-4.2 4.1c.2 0 .4 0 .6-.1c.2 0 .3-.1.5-.3c.1-.1.2-.3.3-.5c.1-.1.1-.3.1-.6c0-.2 0-.4-.1-.6c-.1-.1-.2-.3-.3-.4c-.2-.1-.3-.2-.5-.3c-.2-.1-.4-.1-.6-.1c-.3 0-.5 0-.6.1c-.2.1-.4.2-.5.3c-.2.1-.3.3-.4.4c0 .2-.1.4-.1.6c0 .3.1.5.1.6c.1.2.2.4.4.5c.1.2.3.3.5.3c.1.1.3.1.6.1zm2.3-1.5c0 .3 0 .6-.1.7c.02.04 2 0 2 0v-1.3s-1.98-.04-2 0c.1.1.1.4.1.6zm-3.4 3.9v-.7h6.1v3.3h-.8v-2.6h-5.3zm11.9-3.2c-1 0-1.8-.2-2.4-.4c-.5-.3-.8-.7-.8-1.2c0-.5.3-.9.8-1.2c.6-.3 1.4-.4 2.4-.4c1 0 1.8.1 2.4.4c.5.3.8.7.8 1.2c0 .5-.3.9-.8 1.2c-.6.2-1.4.4-2.4.4zm0-2.6c-.8 0-1.4.1-1.8.3c-.4.1-.6.4-.6.7c0 .3.2.5.6.7c.4.2 1 .2 1.8.2c.8 0 1.3 0 1.7-.2c.4-.2.6-.4.6-.7c0-.3-.2-.6-.6-.7c-.4-.2-.9-.3-1.7-.3zM69 60h8.2v.7H69v-.7zm1.8 3.5v.9h5.6v.7H70v-2.2h5.3v-.8H70v-.7h6.2v2.1h-5.4zM87.2 56h.8v9.2h-.8v-4.8h-1.3v4.3h-.8v-8.5h.8v3.5h1.3V56zm-5.8 1.8s-.02 4.44 0 4.4h1.6c.5-.1 1-.1 1.5-.2v.7c-.2 0-.5.1-.8.1c-.2 0-.5.1-.8.1h-1.7c-.05.04-.7 0-.7 0v-5.7h3.5v.6h-2.6zm15.1.6h1.4v.7h-1.4v2.5h-.8v-5.5h.8v2.3zm-1.8 1.9l-.5.7c-.4-.2-.9-.5-1.3-.8c-.3-.4-.6-.8-.8-1.3c-.2.6-.5 1-.9 1.4c-.4.4-.9.7-1.4 1l-.4-.7c.3-.1.6-.3.9-.5c.3-.2.5-.5.7-.7c.2-.3.4-.6.5-.9c.1-.4.1-.7.1-1.1c.04.05 0-.9 0-.9h.9s-.03 1.02 0 1c0 .3 0 .6.1.9c.1.3.3.6.5.8c.2.3.4.5.7.7c.3.2.6.3.9.4zm-1.1 1.5c.5 0 .9.1 1.2.2c.4 0 .7.1 1 .3c.3.1.5.3.6.5c.1.2.2.5.2.7c0 .3-.1.5-.2.7c-.1.2-.3.4-.6.5c-.3.2-.6.3-1 .4c-.3 0-.7.1-1.2.1c-.9 0-1.7-.2-2.2-.5c-.6-.2-.8-.7-.8-1.2c0-.2 0-.5.2-.7c.1-.2.3-.4.6-.5c.2-.2.6-.3.9-.3c.4-.1.8-.2 1.3-.2zm0 2.7c.7 0 1.2-.1 1.6-.2c.4-.2.6-.5.6-.8c0-.3-.2-.6-.6-.7c-.4-.2-.9-.3-1.6-.3c-.7 0-1.2.1-1.6.3c-.4.1-.6.4-.6.7c0 .3.2.6.6.8c.4.1.9.2 1.6.2zm9.1-7.9c.5 0 .9.1 1.3.2c.4.1.8.3 1.1.5c.3.2.5.5.7.8c.2.3.2.7.2 1c0 .4 0 .8-.2 1.1c-.2.3-.4.6-.7.8c-.3.2-.7.4-1.1.5c-.4.1-.8.2-1.3.2c-.5 0-.9-.1-1.3-.2c-.4-.1-.8-.3-1.1-.5c-.3-.2-.5-.5-.7-.8c-.1-.3-.2-.7-.2-1.1c0-.3.1-.7.2-1c.2-.3.4-.6.7-.8c.3-.2.7-.4 1.1-.5c.4-.1.8-.2 1.3-.2zm0 .7c-.3 0-.7 0-1 .1c-.3.1-.6.2-.8.4c-.2.2-.4.4-.5.6c-.2.2-.2.5-.2.7c0 .3 0 .6.2.8c.1.2.3.4.5.6c.2.1.5.3.8.4c.3 0 .7.1 1 .1c.4 0 .7-.1 1-.1c.3-.1.6-.3.8-.4c.2-.2.4-.4.5-.6c.2-.2.2-.5.2-.8c0-.2 0-.5-.2-.7c-.1-.2-.3-.4-.5-.6c-.2-.2-.5-.3-.8-.4c-.3-.1-.6-.1-1-.1zm-4.1 6h8.3v.7h-8.3v-.7zm13.7.1h3.8v.7h-8.3v-.7h3.7v-1.7h-2.7v-2.9h5.4v-1.4h-5.4v-.7h6.2v2.8h-5.4v1.5h5.6v.7h-2.9v1.7zm11.9-6.2v.6H119v-.6h2.2V56h.9v1.2h2.1zm0 1.3h1.5v-2.4h.9v6.9h-.9v-1.9h-1.5v-.7h1.5v-1.2h-1.5v-.7zm-.5 1.6c0 .2 0 .5-.1.7c-.1.2-.3.4-.5.5c-.2.2-.4.3-.6.4c-.3.1-.6.1-.9.1c-.3 0-.6 0-.8-.1c-.3-.1-.5-.2-.7-.4c-.1-.1-.3-.3-.4-.5c-.1-.2-.1-.5-.1-.7c0-.3 0-.5.1-.7c.1-.2.3-.4.4-.6c.2-.1.4-.3.7-.3c.2-.1.5-.2.8-.2c.3 0 .6.1.9.2c.2 0 .4.2.6.3c.2.2.4.4.5.6c.1.2.1.4.1.7zm-3.3 0c0 .3.1.6.3.8c.2.2.5.3.9.3c.4 0 .7-.1 1-.3c.2-.2.3-.5.3-.8c0-.3-.1-.6-.3-.8c-.3-.2-.6-.3-1-.3c-.4 0-.7.1-.9.3c-.2.2-.3.5-.3.8zm1.1 4.2h5.3v.7h-6.1v-2.6h.8v1.9zm13.7-8.3h.8v9.2h-.8v-4.8h-1.3v4.3h-.8v-8.5h.8v3.5h1.3V56zm-5.8 1.8s-.04 4.44 0 4.4h1.6c.5-.1 1-.1 1.4-.2l.1.7c-.3 0-.5.1-.8.1c-.2 0-.5.1-.8.1h-1.8c.03.04-.6 0-.6 0v-5.7h3.4v.6h-2.5zm14.3.1c.03.03 0-.2 0-.2h-5.4v-.7h6.3s-.05.93 0 .9c0 .3 0 .6-.1.9v1.1c0 .3-.1.7-.1 1.1c0 .4-.1.9-.2 1.4l-.8-.1c.1-.9.3-1.8.3-2.5v-1.9zm-6.3 5.3h8.3v.7h-8.3v-.7zm16.7-7.1v6.7h-.9v-6.7h.9zm-2 4.4l.1.7c-.4 0-.7.1-1.1.1c-.3.1-.6.1-1 .1c-.4 0-.7.1-1.1.1h-2v-2.8h3.3v-1.3H147v-.7h4.2v2.6h-3.3s-.04 1.5 0 1.5h1.1c.4 0 .8 0 1.1-.1h1c.3-.1.7-.1 1-.2zm-3.2 3.8h5.4v.7h-6.2v-2.7h.8v2zm7.7-4.2l-.4-.7c.5 0 .8-.1 1.2-.3c.4-.1.7-.3 1-.5c.3-.2.5-.4.7-.6c.2-.3.2-.5.2-.8c.04-.02 0 0 0 0h-2.8v-.7h6.8v.7h-2.9s.03-.02 0 0c0 .3.1.5.3.8c.1.2.4.4.7.6c.2.2.6.4 1 .5c.3.2.7.3 1.1.3l-.3.7c-.4-.1-.7-.1-1.1-.3c-.3-.1-.6-.2-.9-.4c-.3-.2-.6-.4-.8-.6c-.2-.2-.4-.5-.5-.7c-.1.2-.3.5-.5.7c-.3.2-.5.4-.8.6c-.3.2-.6.3-1 .4c-.3.2-.7.2-1 .3zm3.7.9h3.7v.7h-8.3v-.7h3.8v-1.5h.8v1.5zm-2.7 1.4v1.9h5.5v.7h-6.3v-2.6h.8zm10.5-3.3l-.9-.1c0-.4.1-.7.3-.9c.1-.3.3-.5.5-.7c.2-.2.5-.3.7-.4c.3-.1.6-.2.9-.2c.4 0 .7.1.9.2c.3.1.5.2.7.4c.2.1.4.4.5.6c.1.2.2.5.2.8c0 .5-.2.8-.4 1.1c-.2.3-.5.5-1 .6c1 .3 1.5.9 1.5 1.8c0 .4 0 .7-.2 1c-.1.2-.3.5-.5.7c-.2.2-.5.3-.8.4c-.3.1-.7.2-1 .2c-.4 0-.7-.1-1-.2c-.3-.1-.5-.2-.7-.4c-.2-.2-.4-.4-.5-.6c-.2-.3-.3-.5-.3-.8l.8-.3c0 .1.1.2.1.4c.2.3.4.6.6.8c.3.2.6.3 1 .3c.3 0 .5-.1.7-.2c.2-.1.4-.2.5-.3c.1-.1.2-.3.3-.5c.1-.1.1-.3.1-.5c0-.2 0-.3-.1-.5c0-.2-.1-.3-.3-.5c-.1-.1-.3-.2-.6-.2c-.2-.1-.6-.2-1-.2v-.6c.4 0 .6-.1.9-.1c.2-.1.4-.2.5-.3c.2-.1.3-.3.3-.4c.1-.2.1-.4.1-.6c0-.4-.1-.7-.3-.9c-.3-.2-.6-.3-1-.3c-.2 0-.4 0-.6.1c-.2 0-.3.1-.5.3c-.1.1-.2.3-.3.4c0 .2-.1.4-.1.6zm13.3.7v.7h-1.5v4.7h-.8V56h.8v3.8h1.5zm-5.5-1.5s.04.71 0 .7c0 .4.1.7.2 1.1c.1.4.3.7.5 1c.2.3.4.6.7.9c.2.2.5.5.9.6l-.5.7c-.5-.3-1-.6-1.3-1.1c-.4-.5-.7-1-.9-1.6c-.2.6-.5 1.2-.9 1.7c-.3.5-.8.9-1.3 1.1l-.5-.6l.9-.6c.3-.3.5-.6.8-.9c.2-.4.3-.7.4-1.1c.2-.4.2-.8.2-1.2v-.7H173v-.7h2.1v-1.4h.8v1.4h2.1v.7h-2.1zm16.8 1.5v.6h-1.5v4.8h-.9v-9.1h.9v3.7h1.5zm-5.5-3s.01 1.68 0 1.7c0 .4.1.8.2 1.2c.1.4.3.7.5 1.1c.2.3.5.7.7.9c.3.3.6.5.9.7l-.5.7c-.5-.3-.9-.7-1.3-1.2c-.4-.5-.7-1-.9-1.7c-.2.7-.5 1.3-.9 1.8c-.4.5-.9 1-1.4 1.2l-.5-.6c.4-.2.7-.4 1-.7c.2-.3.5-.6.7-1c.2-.4.4-.8.5-1.2c.1-.4.2-.8.2-1.2c-.02-.02 0-1.7 0-1.7h.8zm12.8-.7h.9v4.9h-.9v-2.1s-1.85.01-1.8 0c-.1.6-.4 1-.8 1.3c-.4.3-.9.5-1.6.5c-.3 0-.6 0-.9-.2c-.3-.1-.6-.2-.8-.4c-.2-.2-.3-.4-.5-.7c-.1-.2-.1-.5-.1-.8c0-.3 0-.6.1-.9c.2-.2.3-.5.5-.6c.2-.2.5-.4.8-.5c.3-.1.6-.1.9-.1c.3 0 .6 0 .9.1c.2.1.5.2.7.4c.2.1.4.3.5.5c.1.2.2.5.2.7c.04.02 1.9 0 1.9 0v-2.1zm-4.2 3.9c.2 0 .5 0 .6-.1c.2-.1.4-.2.5-.3c.2-.1.3-.3.4-.4c0-.2.1-.4.1-.6c0-.2-.1-.4-.1-.6c-.1-.2-.2-.3-.4-.4c-.1-.2-.3-.3-.5-.3c-.1-.1-.4-.1-.6-.1c-.2 0-.4 0-.6.1c-.2 0-.4.1-.5.3c-.1.1-.2.2-.3.4c-.1.2-.1.4-.1.6c0 .2 0 .4.1.6c.1.1.2.3.3.4c.1.1.3.2.5.3c.2.1.4.1.6.1zm4.2 2.6v-1.2h.9v3.7H195v-3.7h.8v1.2h4.2zm0 1.8v-1.2h-4.2v1.2h4.2zm6.6-5c-1 0-1.8-.2-2.3-.4c-.6-.3-.9-.7-.9-1.2c0-.5.3-.9.9-1.2c.5-.3 1.3-.4 2.3-.4c1 0 1.8.1 2.4.4c.6.3.8.7.8 1.2c0 .5-.2.9-.8 1.2c-.6.2-1.4.4-2.4.4zm0-2.6c-.7 0-1.3.1-1.7.3c-.4.1-.6.4-.6.7c0 .3.2.5.6.7c.4.2 1 .2 1.7.2c.8 0 1.4 0 1.8-.2c.4-.2.6-.4.6-.7c0-.3-.2-.6-.6-.7c-.4-.2-1-.3-1.8-.3zm-4.1 3.2h8.3v.7h-8.3v-.7zm1.8 3.5v.9h5.7v.7h-6.5v-2.2h5.4v-.8h-5.4v-.7h6.2v2.1h-5.4zm16.1-7.5h.8v9.2h-.8V56zm-3.4.8v1.7c0 .4.1.8.2 1.2c.1.4.3.8.5 1.2c.2.3.5.6.8.9c.3.3.6.5 1 .6l-.5.7c-.6-.2-1-.6-1.5-1.1c-.4-.5-.7-1.1-.9-1.8c-.2.7-.5 1.3-.9 1.9c-.5.5-.9.9-1.5 1.2l-.5-.7c.4-.2.7-.4 1-.7c.3-.2.5-.6.8-.9c.2-.4.4-.8.5-1.2c.1-.5.2-.9.2-1.3c-.02-.02 0-1.7 0-1.7h.8zm14.4 1.6v.7H230v2.5h-.8v-5.5h.8v2.3h1.4zm-3.1 2.1l-.5.7c-.5-.2-.9-.5-1.3-.8c-.4-.4-.7-.8-.9-1.3c-.2.5-.5 1-.9 1.4c-.4.4-.8.7-1.4.9l-.4-.7c.3-.1.7-.3.9-.5c.3-.2.6-.4.8-.7c.2-.2.3-.5.4-.8c.1-.3.2-.7.2-1v-.3h-2.1v-.7h5v.7H226s.03.31 0 .3c0 .3.1.6.2.9c.1.3.2.6.4.8l.7.7c.3.1.6.3 1 .4zm-4.2 2.2v-.7h5.9v3.2h-.8v-2.5h-5.1zm13.8-3.5v2.4h-.8v-5.4h.8v2.4h1.1v-2.5h.8v5.6h-.8v-2.5h-1.1zm-1.2-2.1v.7h-4.6v-.7h1.9v-1h.8v1h1.9zm-2.3 4.2c-.3 0-.5 0-.8-.1c-.2 0-.4-.1-.6-.3c-.2-.1-.3-.3-.4-.5c-.1-.2-.2-.4-.2-.6c0-.3.1-.5.2-.7c.1-.2.2-.3.4-.5l.6-.3c.3 0 .5-.1.8-.1c.3 0 .6.1.8.1l.6.3c.2.2.3.3.4.5c.1.2.2.4.2.7c0 .2-.1.4-.2.6c-.1.2-.2.4-.4.5c-.2.2-.4.3-.6.3c-.2.1-.5.1-.8.1zm0-2.5c-.4 0-.7.1-.9.3c-.2.2-.3.4-.3.7c0 .3.1.5.3.7c.2.1.5.2.9.2c.4 0 .7-.1.9-.2c.2-.2.3-.4.3-.7c0-.3-.1-.5-.3-.7c-.2-.2-.5-.3-.9-.3zm4.3 3.2s.02.29 0 .3c0 .2.1.4.1.7c.1.2.2.4.4.6c.2.2.4.3.6.5c.2.1.5.3.8.4l-.4.6c-.5-.2-.9-.4-1.2-.7c-.3-.3-.5-.6-.7-1c-.1.4-.3.7-.6 1c-.3.3-.6.6-1.1.8c-.4-.2-.8-.4-1.1-.7c-.2-.3-.4-.7-.6-1.1c-.1.4-.4.7-.7 1c-.3.3-.7.5-1.1.7l-.4-.6c.3-.1.5-.3.8-.4c.2-.2.4-.4.5-.6c.2-.2.3-.4.4-.6c.1-.2.1-.4.1-.6c.04-.01 0-.3 0-.3h.8s.04.29 0 .3c0 .4.1.8.4 1.1c.2.4.5.7.9 1c.2-.2.4-.3.6-.5c.1-.2.3-.3.4-.5c.1-.2.2-.4.2-.6c.1-.2.1-.3.1-.5v-.3h.8zm11.1-2.3v.6h-1.5v4.9h-.8V56h.8v3.7h1.5zm-7.3-2.1s.02 4.61 0 4.6h2.2c.3-.1.7-.1 1-.1c.3-.1.6-.1.9-.2l.1.7c-.3.1-.6.1-1 .2c-.3 0-.7 0-1 .1h-2.3c.01.03-.7 0-.7 0v-6h4.2v.7h-3.4zm7.9 7v-1h.9v1h-.9zm5.4-5.5l-.9-.1c0-.4.1-.7.3-.9c.1-.3.3-.5.5-.7c.2-.2.5-.3.7-.4c.3-.1.6-.2.9-.2c.4 0 .7.1.9.2c.3.1.5.2.7.4c.2.1.4.4.5.6c.1.2.2.5.2.8c0 .5-.2.8-.4 1.1c-.2.3-.5.5-1 .6c1 .3 1.5.9 1.5 1.8c0 .4 0 .7-.2 1c-.1.2-.3.5-.5.7c-.2.2-.5.3-.8.4c-.3.1-.7.2-1 .2c-.4 0-.7-.1-1-.2c-.3-.1-.5-.2-.7-.4c-.2-.2-.4-.4-.5-.6c-.2-.3-.3-.5-.3-.8l.8-.3c0 .1.1.2.1.4c.2.3.4.6.6.8c.3.2.6.3 1 .3c.3 0 .5-.1.7-.2c.2-.1.4-.2.5-.3c.1-.1.2-.3.3-.5c.1-.1.1-.3.1-.5c0-.2 0-.3-.1-.5c0-.2-.1-.3-.3-.5c-.1-.1-.3-.2-.6-.2c-.2-.1-.6-.2-1-.2v-.6c.4 0 .6-.1.9-.1c.2-.1.4-.2.5-.3c.2-.1.3-.3.3-.4c.1-.2.1-.4.1-.6c0-.4-.1-.7-.3-.9c-.3-.2-.6-.3-1-.3c-.2 0-.4 0-.6.1c-.2 0-.3.1-.5.3c-.1.1-.2.3-.3.4c0 .2-.1.4-.1.6zm13.3.7v.7h-1.5v4.7h-.8V56h.8v3.8h1.5zm-5.5-1.5s.04.71 0 .7c0 .4.1.7.2 1.1c.1.4.3.7.5 1c.1.3.4.6.7.9c.2.2.5.5.9.6l-.5.7c-.5-.3-1-.6-1.3-1.1c-.4-.5-.7-1-.9-1.6c-.2.6-.5 1.2-.9 1.7c-.3.5-.8.9-1.3 1.1l-.5-.6l.9-.6c.3-.3.5-.6.8-.9c.2-.4.3-.7.4-1.1c.2-.4.2-.8.2-1.2v-.7h-2.1v-.7h2.1v-1.4h.8v1.4h2.1v.7h-2.1zm16.8 1.5v.6h-1.5v4.8h-.9v-9.1h.9v3.7h1.5zm-5.5-3s.01 1.68 0 1.7c0 .4.1.8.2 1.2c.1.4.3.7.5 1.1c.2.3.4.7.7.9c.3.3.6.5.9.7l-.5.7c-.5-.3-.9-.7-1.3-1.2c-.4-.5-.7-1-.9-1.7c-.2.7-.5 1.3-.9 1.8c-.4.5-.9 1-1.4 1.2l-.5-.6c.4-.2.7-.4.9-.7c.3-.3.6-.6.8-1c.2-.4.4-.8.5-1.2c.1-.4.2-.8.2-1.2c-.02-.02 0-1.7 0-1.7h.8zm12.8-.7h.9v4.9h-.9v-2.1s-1.85.01-1.8 0c-.1.6-.4 1-.8 1.3c-.4.3-.9.5-1.6.5c-.3 0-.6 0-.9-.2c-.3-.1-.6-.2-.8-.4c-.2-.2-.3-.4-.5-.7c-.1-.2-.1-.5-.1-.8c0-.3 0-.6.1-.9c.2-.2.3-.5.5-.6c.2-.2.5-.4.8-.5c.3-.1.6-.1.9-.1c.3 0 .6 0 .9.1c.2.1.5.2.7.4c.2.1.4.3.5.5c.1.2.2.5.2.7c.04.02 1.9 0 1.9 0v-2.1zm-4.2 3.9c.2 0 .5 0 .6-.1c.2-.1.4-.2.5-.3c.2-.1.3-.3.4-.4c0-.2.1-.4.1-.6c0-.2-.1-.4-.1-.6c-.1-.2-.2-.3-.4-.4c-.1-.2-.3-.3-.5-.3c-.1-.1-.4-.1-.6-.1c-.2 0-.4 0-.6.1c-.2 0-.4.1-.5.3c-.1.1-.2.2-.3.4c-.1.2-.1.4-.1.6c0 .2 0 .4.1.6c.1.1.2.3.3.4c.1.1.3.2.5.3c.2.1.4.1.6.1zm4.2 2.6v-1.2h.9v3.7h-5.9v-3.7h.8v1.2h4.2zm0 1.8v-1.2h-4.2v1.2h4.2zm9.5-8.4h.8v9.2h-.8V56zm-1.8 3.6v-3.4h.8v8.5h-.8v-4.4s-1.19-.02-1.2 0c0 .4-.1.8-.2 1.2c-.1.3-.2.7-.4.9c-.1.3-.3.4-.6.6c-.2.1-.5.2-.7.2c-.3 0-.6-.1-.8-.2c-.3-.2-.5-.4-.7-.7c-.1-.3-.3-.6-.4-1c0-.4-.1-.8-.1-1.3c0-.5.1-1 .1-1.3c.1-.4.3-.8.4-1c.2-.3.4-.5.7-.7c.2-.1.5-.2.8-.2c.2 0 .5.1.7.2c.2.1.4.3.6.6c.2.2.3.5.4.8c.1.4.2.8.2 1.2h1.2zm-3.1 2.8c.3 0 .6-.2.8-.6c.2-.5.4-1.1.4-1.8c0-.4-.1-.7-.1-1c-.1-.3-.2-.6-.3-.8c-.1-.2-.2-.3-.3-.5c-.2-.1-.4-.1-.5-.1c-.4 0-.7.2-.9.6c-.2.5-.3 1-.3 1.8c0 .7.1 1.3.3 1.8c.2.4.5.6.9.6zm13.8-6.4h.8v9.2h-.8v-5.4H304v-.7h2.1V56zm-3.5.8s-.02 1.67 0 1.7c0 .4 0 .8.2 1.2c.1.4.3.8.5 1.1c.2.4.4.7.7 1c.3.3.6.5.9.6l-.4.7c-.6-.3-1-.7-1.4-1.2c-.4-.5-.7-1.1-.9-1.7c-.2.7-.5 1.3-.9 1.8c-.4.6-.9 1-1.4 1.3l-.5-.7c.3-.2.6-.4.9-.7c.3-.3.5-.6.8-1c.2-.4.3-.7.5-1.2c.1-.4.1-.8.1-1.2c.05-.03 0-1.7 0-1.7h.9zm13.3 2v.7h-6.2v-3.1h.8v2.4h5.4zm-7.4 1.9h8.3v.7h-8.3v-.7zm1.9 1.6v2h5.5v.7h-6.3v-2.7h.8zm10.2-.7l-.3-.7c.4 0 .8-.2 1.2-.3c.4-.2.8-.4 1.1-.6c.3-.3.5-.5.7-.8c.2-.4.2-.7.2-1c.04-.04-2.9 0-2.9 0v-.7h2.9v-1.3h.9v1.3h2.9v.7s-2.91-.04-2.9 0c0 .3.1.6.2 1c.2.3.5.5.8.8c.2.2.6.4 1 .6c.4.1.8.3 1.3.3l-.4.7l-1-.3c-.4-.1-.7-.3-1-.5c-.3-.1-.5-.3-.8-.6c-.2-.2-.4-.5-.5-.7c-.2.2-.4.5-.6.7c-.2.3-.5.5-.8.6c-.3.2-.6.4-.9.5l-1.1.3zm3.8 1.7h3.7v.7h-8.3v-.7h3.7v-2h.9v2zm9.4-1.9h1.9V56h.8v7h-.8v-.9h-1.9v-.7zm-1.9-1.8c-.3 0-.6 0-.9-.1c-.3-.1-.5-.2-.7-.3c-.2-.2-.4-.3-.5-.5c-.1-.2-.1-.5-.1-.7c0-.2 0-.5.1-.7c.1-.2.3-.3.5-.5c.2-.1.4-.2.7-.3c.3-.1.6-.1.9-.1c.4 0 .7 0 .9.1c.3.1.6.2.8.3c.2.2.3.3.4.5c.1.2.2.5.2.7c0 .2-.1.5-.2.7c-.1.2-.2.3-.4.5c-.2.1-.5.2-.8.3c-.2.1-.5.1-.9.1zm0-2.6c-.4 0-.8.1-1 .3c-.3.2-.4.4-.4.7c0 .3.1.5.4.7c.2.2.6.3 1 .3c.5 0 .8-.1 1.1-.3c.3-.2.4-.4.4-.7c0-.3-.1-.5-.4-.7c-.3-.2-.6-.3-1.1-.3zm-.3 5.7v-1.8c-.5 0-.9.1-1.3.1h-1.2l-.2-.7h1.4c.5 0 1 0 1.5-.1h1.5c.6-.1 1.1-.1 1.5-.2l.1.6c-.4.1-.8.1-1.2.2c-.4 0-.8 0-1.3.1c.04-.02 0 1.8 0 1.8h-.8zm-.5 1.6h5.6v.7h-6.4v-2.7h.8v2zm13.7-8.3h.8v9.2h-.8V56zm-3.7.7c.4 0 .7.1 1 .2c.3.1.6.2.8.4c.2.2.4.4.5.7c.1.3.2.5.2.9c0 .3-.1.6-.2.8c-.1.3-.3.5-.5.7c-.2.2-.5.4-.8.5c-.3.1-.6.1-1 .1c-.3 0-.6 0-.9-.1c-.3-.1-.6-.3-.8-.5c-.2-.2-.4-.4-.5-.7c-.1-.2-.2-.5-.2-.8c0-.4.1-.6.2-.9c.1-.3.3-.5.5-.7c.2-.2.5-.3.8-.4c.3-.1.6-.2.9-.2zm0 .7c-.2 0-.4.1-.6.1c-.2.1-.4.2-.5.3c-.2.2-.3.3-.4.5c0 .2-.1.3-.1.6c0 .2.1.4.1.5c.1.2.2.4.4.5c.1.1.3.2.5.3c.2.1.4.1.6.1c.3 0 .5 0 .7-.1c.2-.1.4-.2.5-.3c.2-.1.3-.3.4-.5c0-.1.1-.3.1-.5c0-.3-.1-.4-.1-.6c-.1-.2-.2-.3-.4-.5c-.1-.1-.3-.2-.5-.3c-.2 0-.4-.1-.7-.1zm-2.8 5.8l-.1-.7h1.4c.5 0 1 0 1.5-.1h1.6c.5-.1 1-.1 1.5-.2l.1.6c-.5.1-1.1.2-1.6.2c-.5.1-1 .1-1.5.1c-.6.1-1 .1-1.5.1h-1.4zm18.2-4.3h1.4v.7h-1.4v3.2h-.8V56h.8v2.9zm-1.9 1.6l.1.7c-.3 0-.6.1-.9.1c-.3 0-.6.1-.9.1h-2.3c-.05.02-.7 0-.7 0v-4.6h4.1v.6h-3.3v1.3h3.2v.7h-3.2v1.4c.4 0 .8-.1 1.2-.1h1c.3 0 .6 0 .9-.1c.3 0 .5-.1.8-.1zm-2.9 1.7v2.1h5.2v.7h-6.1v-2.8h.9zm14.8-1.7l-.3.7l-1.1-.3c-.3-.2-.7-.4-1-.6c-.3-.2-.5-.5-.8-.7l-.6-.9c-.1.3-.3.6-.6.9c-.2.2-.5.5-.8.7c-.3.2-.6.4-1 .6c-.3.1-.6.2-1 .3l-.3-.7c.4-.1.8-.2 1.2-.4c.4-.2.7-.4 1-.7c.3-.3.6-.6.8-.9c.2-.4.3-.8.3-1.1v-.7h.9s-.03.66 0 .7c0 .3.1.7.3 1.1c.2.3.4.6.7.9c.4.3.7.5 1.1.7c.4.2.8.3 1.2.4zm-3.4 2.8h3.8v.7h-8.3v-.7h3.7v-2.2h.8v2.2z" stroke="none" fill="#111111"/></g><g id="Polygon118605"><path d="m2.6 45.1h3v.8H.5v-.6s2.62-2.5 2.6-2.5l.6-.6c.1-.2.3-.4.4-.6c.1-.1.2-.3.3-.5c0-.2.1-.4.1-.7c0-.4-.2-.7-.4-.9c-.3-.3-.6-.4-1-.4c-.2 0-.4.1-.6.1c-.2.1-.3.2-.5.3c-.1.2-.2.3-.3.5c-.1.2-.1.4-.1.6l-.9-.2c0-.3.1-.6.3-.9c.1-.2.3-.4.5-.6c.2-.2.5-.3.8-.4c.2-.1.5-.2.9-.2c.3 0 .6.1.8.2c.3.1.6.2.8.4c.2.2.3.4.4.6c.2.3.2.6.2.9c0 .3 0 .6-.1.8c-.1.2-.2.5-.3.7c-.2.2-.4.4-.5.6c-.2.2-.4.5-.6.7l-2.1 2c.1 0 .3 0 .4-.1h.4zm9.1-2.9c0 .7-.1 1.2-.2 1.7c-.2.5-.4.9-.6 1.2c-.3.4-.6.6-.9.7c-.3.2-.7.3-1.1.3c-.4 0-.7-.1-1-.3c-.4-.1-.7-.3-.9-.7c-.3-.3-.5-.7-.6-1.2c-.1-.5-.2-1-.2-1.7c0-.7.1-1.2.2-1.7c.1-.5.3-.9.6-1.2c.2-.3.5-.6.9-.7c.3-.2.6-.3 1-.3c.4 0 .8.1 1.1.3c.3.1.6.4.9.7c.2.3.4.7.6 1.2c.1.5.2 1 .2 1.7zm-1 0c0-.6 0-1.1-.1-1.5c-.1-.4-.2-.7-.4-.9c-.2-.3-.4-.4-.6-.5c-.2-.1-.4-.2-.7-.2c-.2 0-.4.1-.6.2c-.3.1-.5.2-.6.5c-.2.2-.3.5-.4.9c-.1.4-.2.9-.2 1.5c0 .6.1 1.1.2 1.5c.1.4.2.7.4.9c.1.3.3.5.6.6c.2.1.4.1.6.1c.3 0 .5 0 .7-.1c.2-.1.4-.3.6-.6c.2-.2.3-.5.4-.9c.1-.4.1-.9.1-1.5zm3.7 2.9h2.9v.8h-5v-.6s2.57-2.5 2.6-2.5c.2-.2.4-.4.5-.6c.2-.2.3-.4.4-.6c.2-.1.3-.3.3-.5c.1-.2.1-.4.1-.7c0-.4-.1-.7-.4-.9c-.2-.3-.6-.4-.9-.4c-.3 0-.5.1-.6.1c-.2.1-.4.2-.5.3c-.1.2-.3.3-.3.5c-.1.2-.1.4-.1.6l-1-.2l.3-.9l.6-.6c.2-.2.4-.3.7-.4c.3-.1.6-.2.9-.2c.3 0 .6.1.9.2c.3.1.5.2.7.4c.2.2.4.4.5.6c.1.3.2.6.2.9c0 .3-.1.6-.2.8c0 .2-.1.5-.3.7c-.1.2-.3.4-.5.6c-.2.2-.4.5-.6.7l-2.1 2c.2 0 .3 0 .4-.1h.5zm7.1.1h1.5v.7h-4v-.7h1.6v-5.7c.02.04-1.3 1.3-1.3 1.3l-.5-.6l2-1.8h.7v6.8zm9.2-.9v-3.1h-2.5v-.7h2.5v-1.1h-2.5v-.7h2.5v-1.1h.9v6.7h-.9zm-1.5-2.4l.1.7c-.7.2-1.4.3-2.1.3c-.6 0-1.3.1-1.9.1c-.03-.03-.7 0-.7 0v-4.8h.8v4.1c.6 0 1.3-.1 1.9-.1c.6-.1 1.2-.1 1.9-.3zm-2.6 3.9h5.2v.7h-6.1v-2.8h.9v2.1zm13.9-7.9v4h-6.2v-4h.8v1.3h4.5v-1.3h.9zm-.9 3.3v-1.4h-4.5v1.4h4.5zm1.9 1.8v.6h-3.7v3.1h-.9v-3.1h-3.7v-.6h8.3zm7.6-5.5h.8v9.2h-.8v-5h-1.9v-.7h1.9v-3.5zm-5.4 4.1s-.04 2.21 0 2.2h2.1c.3-.1.6-.1.9-.1c.3-.1.6-.1.9-.2l.1.7c-.3.1-.7.1-1 .2h-.9c-.4.1-.7.1-1.1.1h-1.9v-6.1h4.3v.7h-3.4v1.8h3v.7h-3zm10.7-.3l-.3-.7c.4 0 .8-.1 1.2-.2c.4-.1.7-.3 1-.5c.3-.1.5-.3.7-.6c.1-.2.2-.4.3-.7c-.04.03-2.9 0-2.9 0v-.6h6.8v.6s-2.86.03-2.9 0c.1.3.2.5.3.7c.2.3.4.5.7.6c.3.2.6.4 1 .5c.4.1.8.2 1.2.2l-.3.7c-.4-.1-.8-.2-1.1-.3c-.4-.1-.7-.2-1-.3c-.3-.2-.5-.4-.8-.6c-.2-.2-.4-.4-.5-.7c-.1.3-.3.5-.5.7c-.3.2-.5.4-.8.6c-.3.1-.6.2-1 .3c-.3.1-.7.2-1.1.3zm7.5 1.2h-3.7s.02.98 0 1c.9 0 1.6.2 2 .4c.5.3.7.7.7 1.2c0 .5-.2.9-.8 1.2c-.5.2-1.3.4-2.3.4c-1 0-1.7-.2-2.3-.4c-.6-.3-.8-.7-.8-1.2c0-.5.2-.9.7-1.2c.4-.2 1.1-.4 2-.4c-.03-.02 0-1 0-1h-3.7v-.7h8.2v.7zm-1.8 2.6c0-.3-.2-.6-.6-.7c-.4-.2-1-.3-1.7-.3c-.7 0-1.3.1-1.7.3c-.4.1-.6.4-.6.7c0 .3.2.5.6.7c.4.2 1 .2 1.7.2c.7 0 1.3 0 1.7-.2c.4-.2.6-.4.6-.7zm11-3.2h-3.7v1.7h2.7v3.1h-.8v-2.4h-5.6v-.7h2.9v-1.7h-3.8v-.7s6.2.04 6.2 0c.1-.5.2-1 .2-1.4v-1.1c.05-.05-5.3 0-5.3 0v-.7h6.2s-.03.64 0 .6c0 .4 0 .8-.1 1.2c0 .4 0 .9-.2 1.4c.05.04 1.3 0 1.3 0v.7zm5.5.1h3.7v.7H72v-.7h3.7v-1.2h-2.6v-3.1h.9v2.4h5.4v.7h-2.8v1.2zM73 44.3v-.7h6.3v3.1h-.9v-2.4H73zm16.7-2.9v.7h-1.5v4.6h-.8v-9.2h.8v3.9h1.5zm-3-2.7v.6h-5.4v-.6h2.3v-1.1h.8v1.1h2.3zm-2.3 4.5v1c.4 0 .8-.1 1.3-.1c.4 0 .8-.1 1.2-.1v.6c-.5.1-1 .1-1.5.2c-.5 0-1 .1-1.5.1c-.5 0-.9 0-1.4.1h-1.3l-.1-.7c.4 0 .8 0 1.2-.1h1.3v-1c-.6 0-1-.2-1.3-.5c-.3-.3-.5-.7-.5-1.2c0-.2.1-.4.2-.6c.1-.3.2-.4.4-.6c.2-.1.5-.2.7-.3c.3-.1.6-.1.9-.1c.3 0 .6 0 .9.1c.2.1.5.2.7.3c.1.2.3.3.4.6c.1.2.2.4.2.6c0 .5-.2.9-.5 1.2c-.3.3-.8.5-1.3.5zm-1.8-1.7c0 .4.2.6.4.8c.3.2.6.3 1 .3c.4 0 .7-.1 1-.3c.2-.2.4-.4.4-.8c0-.3-.2-.5-.4-.7c-.3-.2-.6-.3-1-.3c-.4 0-.7.1-1 .3c-.2.2-.4.4-.4.7zm14.5-4h.8v9.2h-.8v-9.2zm-6.2 1s4.31.03 4.3 0c0 .7-.1 1.3-.2 1.9c-.2.7-.4 1.2-.8 1.8c-.3.5-.8 1-1.3 1.5c-.5.5-1.2.9-1.9 1.3l-.5-.7c1.2-.6 2.2-1.3 2.8-2.2c.6-.8 1-1.8 1.1-2.9h-3.5v-.7zm15.6 2.9h1.4v.7h-8.3v-.7h6.1c.1-.6.2-1.1.2-1.5c.1-.4.1-.8.1-1.2h-5.4v-.7h6.2v1.9c-.1.4-.1.9-.3 1.5zm-5.9 5.2v-3.3h6.2v3.3h-6.2zm.8-2.6v1.9h4.6V44h-4.6zm13.1-5.3v.6H109v-.6h2.4v-1.1h.8v1.1h2.3zm.9-1.1h.8v9.1h-.8v-9.1zm-3.2 5.6v1c.4 0 .9-.1 1.3-.1c.4 0 .9-.1 1.3-.1v.6c-.5.1-1 .1-1.5.2c-.5 0-1 .1-1.6.1h-1.4c-.5.1-1 .1-1.4.1l-.1-.7c.4 0 .8-.1 1.2-.1h1.4v-1c-.6 0-1-.2-1.4-.5c-.3-.3-.4-.7-.4-1.2c0-.2 0-.4.1-.6c.1-.3.3-.4.5-.6c.2-.1.4-.2.7-.3c.2-.1.5-.1.9-.1c.3 0 .6 0 .9.1c.2.1.5.2.7.3c.2.2.3.3.4.6c.1.2.2.4.2.6c0 .5-.2.9-.5 1.2c-.3.3-.8.5-1.3.5zm-1.8-1.7c0 .4.1.6.3.8c.3.2.6.3 1.1.3c.4 0 .7-.1 1-.3c.2-.2.4-.4.4-.8c0-.3-.2-.5-.4-.7c-.3-.2-.6-.3-1-.3c-.5 0-.8.1-1.1.3c-.2.2-.3.4-.3.7zm16-.2v.7H125v4.7h-.9v-9.2h.9v3.8h1.4zm-5.3 1.1v1.6c.4-.1.8-.1 1.2-.1c.4-.1.8-.1 1.2-.1l.1.6c-.5 0-1 .1-1.5.2c-.5 0-1 0-1.4.1h-2.8l-.1-.7h2.4v-1.6c-.3 0-.5-.1-.8-.2c-.2-.1-.4-.3-.6-.5c-.2-.2-.3-.4-.4-.6c-.1-.3-.2-.5-.2-.8c0-.3.1-.6.2-.9c.1-.3.3-.5.5-.7c.2-.2.5-.3.8-.4c.3-.1.6-.2 1-.2c.3 0 .6.1.9.2c.3.1.6.2.8.4c.2.2.4.4.5.7c.1.3.2.6.2.9c0 .3-.1.5-.2.8c-.1.2-.2.4-.4.6c-.2.2-.4.3-.6.5c-.3.1-.5.2-.8.2zm-2.1-2.1c0 .4.2.8.5 1c.3.3.7.4 1.2.4c.4 0 .8-.1 1.1-.4c.3-.2.5-.6.5-1c0-.2-.1-.4-.2-.6c0-.2-.1-.3-.3-.5c-.1-.1-.3-.2-.5-.3c-.2 0-.4-.1-.6-.1c-.3 0-.5.1-.7.1c-.2.1-.4.2-.5.3c-.2.2-.3.3-.3.5c-.1.2-.2.4-.2.6zm15.6-1.8v.7h-5.4v-.7h2.3v-1h.8v1h2.3zm3 1.5v.7h-1.3v2.3h-.9v-5.4h.9v2.4h1.3zm-3.5 1.3c0 .2-.1.4-.2.6c-.1.2-.2.4-.4.6c-.2.1-.4.2-.7.3c-.3.1-.6.1-.9.1c-.3 0-.6 0-.9-.1c-.3-.1-.5-.2-.7-.3c-.2-.2-.3-.4-.4-.6c-.1-.2-.2-.4-.2-.6c0-.3.1-.5.2-.7c.1-.2.2-.4.4-.5c.2-.2.4-.3.7-.3c.3-.1.6-.2.9-.2c.3 0 .6.1.9.2c.3 0 .5.1.7.3c.2.1.3.3.4.5c.1.2.2.4.2.7zm-3.6 0c0 .3.1.5.4.7c.2.2.6.3 1 .3c.4 0 .8-.1 1-.3c.3-.2.4-.4.4-.7c0-.3-.1-.6-.4-.8c-.2-.1-.6-.2-1-.2c-.4 0-.8.1-1 .2c-.3.2-.4.5-.4.8zm0 5.3v-3h5.8v3h-5.8zm.9-2.4v1.7h4.1v-1.7h-4.1zm14-6.7h.8v9.2h-.8v-9.2zm-1.7 3.6v-3.3h.8v8.4h-.8v-4.4h-1.3c-.1.6-.3 1.2-.5 1.7c-.2.6-.5 1.1-.8 1.6l-.7-.4c.3-.4.6-.8.8-1.3c.2-.4.3-.9.4-1.3c.1-.5.2-1 .2-1.4c.1-.5.1-1 .1-1.4c0 .02-1 0-1 0v-.7s1.73.03 1.7 0v1.2c0 .5 0 .9-.1 1.3c0 .03 1.2 0 1.2 0zm-5.1-2.5s2.01.03 2 0c0 .5 0 1-.1 1.5c0 .5-.1 1-.2 1.5c-.1.5-.3 1-.5 1.5c-.2.5-.4 1-.8 1.4l-.6-.3c.3-.4.5-.8.7-1.2c.2-.4.3-.8.4-1.2c.2-.4.2-.8.3-1.2c0-.4.1-.9.1-1.3c-.01.02-1.3 0-1.3 0v-.7zm18-1.1h.8v9.2h-.8V42h-1.3v4.2h-.8v-8.5h.8v3.6h1.3v-3.8zm-5.7 1.2v4.9c.5 0 .9 0 1.4-.1c.5 0 1-.1 1.5-.2l.1.7c-.6.1-1.2.2-1.7.3h-2.1v-5.6h.8zm12.5 3.3h3.7v.7h-8.3v-.7h3.7v-1h-2.6v-3.1h6.1v3.1h-2.6v1zm-2.7-3.4v1.7h4.5v-1.7h-4.5zm2.2 4.8c1 0 1.8.2 2.4.4c.5.3.8.7.8 1.3c0 .5-.3.9-.9 1.2c-.5.2-1.3.4-2.3.4c-.9 0-1.7-.2-2.3-.4c-.5-.3-.8-.7-.8-1.2c0-.6.3-1 .8-1.2c.6-.3 1.4-.5 2.3-.5zm0 2.6c.8 0 1.3 0 1.7-.2c.4-.2.6-.4.6-.7c0-.4-.2-.6-.6-.8c-.4-.1-.9-.2-1.7-.2c-.7 0-1.3.1-1.7.2c-.4.2-.6.4-.6.8c0 .3.2.5.6.7c.4.2 1 .2 1.7.2zm11.5-6.6c.04-.03 0-.3 0-.3h-5.5v-.6h6.4s-.02.87 0 .9v.8c0 .4 0 .7-.1 1c0 .4 0 .7-.1 1.1c0 .4-.1.8-.2 1.3l-.8-.1c.2-.9.3-1.6.3-2.3v-1.8zm-2.4 5.3h4.3v.7H168v-.7h3.2v-3.3h.8v3.3zm11.4-2.8c-.5 0-.9 0-1.3-.1c-.4-.1-.8-.3-1-.4c-.3-.2-.5-.4-.7-.7c-.2-.2-.2-.5-.2-.8c0-.3 0-.6.2-.8c.2-.3.4-.5.7-.6c.2-.2.6-.4 1-.4c.4-.1.8-.2 1.3-.2c.4 0 .9.1 1.3.2c.4 0 .7.2 1 .4c.3.1.5.3.6.6c.2.2.3.5.3.8c0 .3-.1.6-.3.8c-.1.3-.3.5-.6.7c-.3.1-.6.3-1 .4c-.4.1-.9.1-1.3.1zm0-3.3c-.4 0-.7 0-1 .1c-.3 0-.5.1-.7.2c-.2.2-.4.3-.5.5c-.1.1-.2.3-.2.5c0 .2.1.4.2.6c.1.1.3.3.5.4c.2.1.4.2.7.3h1.9c.3-.1.6-.2.8-.3c.2-.1.3-.3.4-.4c.2-.2.2-.4.2-.6c0-.2 0-.4-.2-.5c-.1-.2-.2-.3-.4-.5c-.2-.1-.5-.2-.8-.2c-.3-.1-.6-.1-.9-.1zm4.1 4.2v.7h-3.7v3.2h-.9v-3.2h-3.7v-.7h8.3zm8-2.4h1.4v.6h-1.4v3.3h-.8v-6.8h.8v2.9zm-1.7 1.5l.1.7c-.4 0-.7.1-1.1.1c-.3.1-.6.1-1 .1c-.3 0-.7 0-1.1.1h-1.2c.05-.04-.7 0-.7 0v-2.8h3.3v-1.3h-3.3v-.7h4.1v2.7h-3.3s.05 1.38 0 1.4h1.2c.3 0 .7-.1 1-.1c.3 0 .7 0 1-.1c.3 0 .7-.1 1-.1zm-3.1 1.9v2h5.2v.7h-6v-2.7h.8zm15.5-2.5v.7h-1.6v4.7h-.8v-9.2h.8v3.8h1.6zm-5.5-1.5s-.04.71 0 .7c0 .4 0 .7.1 1.1c.1.4.3.7.5 1c.2.3.4.6.7.9c.3.2.6.5.9.6l-.5.7c-.5-.3-.9-.6-1.3-1.1c-.4-.5-.6-1-.8-1.6c-.2.6-.5 1.2-.9 1.7c-.4.5-.9.9-1.4 1.1l-.5-.6c.4-.2.7-.4.9-.6c.3-.3.6-.6.8-.9c.2-.4.3-.7.5-1.1c.1-.4.1-.8.1-1.2c.04.01 0-.7 0-.7h-2v-.7h2v-1.4h.9v1.4h2v.7h-2zm13.6-1.9v4h-3v-4h.8v1.3h1.4v-1.3h.8zm-3.7 0v4h-3.1v-4h.8v1.3h1.5v-1.3h.8zm2.9 3.3v-1.3h-1.4v1.3h1.4zm-3.7 0v-1.3h-1.5v1.3h1.5zm5.3 1.7v.7h-3.8v3.1h-.8v-3.1h-3.7v-.7h8.3zm11.5-1.6v.7h-1.5v4.7h-.9v-9.2h.9v3.8h1.5zm-5.5-1.5v.7c0 .4.1.7.2 1.1c.1.4.2.7.4 1c.2.3.4.6.7.9c.3.2.6.5.9.6l-.4.7c-.6-.3-1-.6-1.4-1.1c-.3-.5-.6-1-.8-1.6c-.2.6-.5 1.2-.9 1.7c-.4.5-.8.9-1.4 1.1l-.4-.6l.9-.6c.3-.3.5-.6.7-.9c.2-.4.4-.7.5-1.1c.1-.4.2-.8.2-1.2c-.02.01 0-.7 0-.7h-2.1v-.7h2.1v-1.4h.8v1.4h2v.7h-2zm12.8-2.3h.8v9.2h-.8v-9.2zm-4 .7c.3 0 .6.1.9.3c.3.1.6.3.8.6c.2.3.3.6.4 1c.2.4.2.8.2 1.3c0 .5 0 1-.2 1.4c-.1.3-.2.7-.4 1c-.2.2-.5.5-.8.6c-.3.2-.6.2-.9.2c-.4 0-.7 0-1-.2c-.2-.1-.5-.4-.7-.6c-.2-.3-.4-.7-.5-1c-.1-.4-.1-.9-.1-1.4c0-.5 0-.9.1-1.3c.1-.4.3-.7.5-1c.2-.3.5-.5.7-.6c.3-.2.6-.3 1-.3zm0 .8c-.2 0-.4.1-.6.2c-.2.1-.4.3-.5.5c-.2.2-.3.4-.3.7c-.1.3-.1.7-.1 1c0 .4 0 .7.1 1c0 .3.1.6.3.8c.1.2.3.4.5.5c.2.1.4.2.6.2c.2 0 .4-.1.6-.2c.2-.1.3-.3.5-.5c.1-.2.2-.5.3-.8c.1-.3.1-.6.1-1c0-.3 0-.7-.1-1c-.1-.3-.2-.5-.3-.7c-.2-.2-.3-.4-.5-.5c-.2-.1-.4-.2-.6-.2zm11.1 5.8h3.7v.7h-8.3v-.7h3.7s.02-1.88 0-1.9c-.4 0-.8-.1-1.2-.2c-.3-.1-.6-.3-.9-.5c-.2-.2-.4-.5-.6-.7c-.1-.3-.2-.6-.2-1c0-.3.1-.7.3-1c.1-.2.4-.5.7-.7c.2-.2.6-.4 1-.5c.4-.1.9-.2 1.3-.2c.5 0 1 .1 1.4.2c.4.1.7.3 1 .5c.3.2.6.5.7.7c.2.3.3.7.3 1c0 .4-.1.7-.3 1c-.1.2-.3.5-.6.7c-.2.2-.5.4-.9.5c-.3.1-.7.2-1.1.2c-.04.02 0 1.9 0 1.9zm-3-4.3c0 .3.1.5.2.8c.1.2.3.3.5.5c.3.2.5.3.8.4c.3 0 .7.1 1 .1c.4 0 .7-.1 1.1-.1c.3-.1.5-.2.8-.4c.2-.2.4-.3.5-.5c.1-.3.2-.5.2-.8c0-.2-.1-.5-.2-.7c-.1-.2-.3-.4-.5-.5c-.3-.2-.5-.3-.8-.4c-.4-.1-.7-.1-1.1-.1c-.3 0-.7 0-1 .1c-.3.1-.5.2-.8.4c-.2.1-.4.3-.5.5c-.1.2-.2.5-.2.7zm8.3.8l-.2-.7c.4 0 .7-.1 1.1-.2c.4-.1.7-.3 1-.5c.3-.1.5-.3.7-.6c.2-.2.3-.4.3-.7c-.02.03-2.9 0-2.9 0v-.6h6.8v.6s-2.83.03-2.8 0c0 .3.1.5.3.7c.1.3.4.5.7.6c.2.2.6.4.9.5c.4.1.8.2 1.2.2l-.3.7l-1.1-.3l-1-.3c-.2-.2-.5-.4-.7-.6c-.3-.2-.4-.4-.6-.7c-.1.3-.3.5-.5.7c-.2.2-.5.4-.8.6c-.3.1-.6.2-1 .3c-.3.1-.7.2-1.1.3zm7.6 1.2h-3.8s.04.98 0 1c.9 0 1.6.2 2.1.4c.4.3.6.7.6 1.2c0 .5-.2.9-.8 1.2c-.5.2-1.3.4-2.3.4c-1 0-1.7-.2-2.3-.4c-.5-.3-.8-.7-.8-1.2c0-.5.2-.9.7-1.2c.4-.2 1.1-.4 2-.4v-1h-3.7v-.7h8.3v.7zm-1.9 2.6c0-.3-.2-.6-.6-.7c-.4-.2-1-.3-1.7-.3c-.7 0-1.3.1-1.7.3c-.4.1-.6.4-.6.7c0 .3.2.5.6.7c.4.2 1 .2 1.7.2c.7 0 1.3 0 1.7-.2c.4-.2.6-.4.6-.7zm9.4-7.6h.9v9.2h-.9v-9.2zm-3.3 2.3s.03.7 0 .7c0 .4.1.8.2 1.1c.1.4.3.7.5 1.1c.2.3.5.6.8.8c.3.3.6.5.9.6l-.4.7c-.6-.3-1-.6-1.4-1.1c-.4-.5-.8-1-1-1.6c-.2.6-.5 1.2-.9 1.7c-.4.5-.9.9-1.4 1.1l-.5-.6c.4-.2.7-.4 1-.7c.3-.2.5-.5.7-.9c.2-.3.4-.6.5-1c.1-.4.2-.8.2-1.2v-.7h-2.1v-.7h2.1v-1.4h.8v1.4h2.1v.7h-2.1zm12.5-2.3h.8v9.2h-.8v-9.2zm-3.7.7c.4 0 .7.1 1 .2c.3.1.6.2.8.4c.2.2.4.4.5.7c.1.3.2.5.2.9c0 .3-.1.6-.2.8c-.1.3-.3.5-.5.7c-.2.2-.5.4-.8.5c-.3.1-.6.1-1 .1c-.3 0-.7 0-1-.1c-.3-.1-.5-.3-.7-.5c-.3-.2-.4-.4-.6-.7c-.1-.2-.1-.5-.1-.8c0-.4 0-.6.1-.9c.2-.3.3-.5.6-.7c.2-.2.4-.3.7-.4c.3-.1.7-.2 1-.2zm0 .7c-.2 0-.4.1-.6.1l-.6.3c-.1.2-.2.3-.3.5c-.1.2-.1.3-.1.6c0 .2 0 .4.1.5c.1.2.2.4.3.5l.6.3c.2.1.4.1.6.1c.3 0 .5 0 .7-.1c.2-.1.3-.2.5-.3c.1-.1.2-.3.3-.5c.1-.1.1-.3.1-.5c0-.3 0-.4-.1-.6c-.1-.2-.2-.3-.3-.5c-.2-.1-.3-.2-.5-.3c-.2 0-.4-.1-.7-.1zm-2.8 5.8l-.1-.7h1.4c.4 0 .9 0 1.5-.1h1.5c.5-.1 1.1-.1 1.6-.2v.6c-.5.1-1 .2-1.5.2c-.6.1-1.1.1-1.6.1c-.5.1-1 .1-1.5.1h-1.3zm19.7-3.4v.6h-1.6v4.8h-.8v-9.1h.8v3.7h1.6zm-5.5-3s-.02 1.68 0 1.7c0 .4 0 .8.2 1.2c.1.4.2.7.5 1.1c.2.3.4.7.7.9c.3.3.6.5.9.7l-.5.7c-.5-.3-.9-.7-1.3-1.2c-.4-.5-.7-1-.9-1.7c-.2.7-.5 1.3-.9 1.8c-.4.5-.9 1-1.4 1.2l-.5-.6c.3-.2.6-.4.9-.7c.3-.3.6-.6.8-1c.2-.4.3-.8.5-1.2c.1-.4.1-.8.1-1.2c.05-.02 0-1.7 0-1.7h.9zm14.5 1.6v.7h-1.3v2.4h-.9v-5.4h.9v2.3h1.3zm-3.8-1.7v4.1h-4.2v-4.1h4.2zm-.9 3.4v-2.7h-2.5v2.7h2.5zm-2.6 2.5v-.7h6v3.3h-.9v-2.6h-5.1zm16.5-2.7v.7h-1.4v4.6h-.8v-9.2h.8v3.9h1.4zm-2.9-2.7v.6h-5.5v-.6h2.3v-1.1h.9v1.1h2.3zm-2.3 4.5v1c.4 0 .8-.1 1.2-.1c.4 0 .8-.1 1.2-.1l.1.6c-.5.1-1 .1-1.5.2c-.5 0-1 .1-1.5.1c-.5 0-1 0-1.4.1h-1.3l-.1-.7c.3 0 .7 0 1.1-.1h1.3v-1c-.5 0-.9-.2-1.2-.5c-.3-.3-.5-.7-.5-1.2c0-.2 0-.4.2-.6c.1-.3.2-.4.4-.6c.2-.1.4-.2.7-.3c.2-.1.5-.1.9-.1c.3 0 .6 0 .8.1c.3.1.5.2.7.3c.2.2.4.3.5.6c.1.2.1.4.1.6c0 .5-.1.9-.5 1.2c-.3.3-.7.5-1.2.5zm-1.8-1.7c0 .4.1.6.4.8c.2.2.6.3 1 .3c.4 0 .7-.1.9-.3c.3-.2.4-.4.4-.8c0-.3-.1-.5-.4-.7c-.2-.2-.5-.3-.9-.3c-.4 0-.8.1-1 .3c-.3.2-.4.4-.4.7zm15.2-4v6.9h-.8v-6.9h.8zm-1.5 4.8v.6c-.5.1-1 .1-1.5.2c-.5 0-1 0-1.5.1h-2.8l-.1-.7h2.6c-.03.01 0-1.3 0-1.3h-1.8v-3.1h4.4v.7h-3.6v1.7h3.6v.7h-1.8v1.3c.4 0 .8-.1 1.3-.1c.4 0 .8-.1 1.2-.1zm-3.5 3.5h5.3v.7h-6.2v-2.6h.9v1.9zm16.6-6.9v.7h-7.4v-.7h3.3v-1.2h.9v1.2h3.2zm-3.2 6h3.7v.7H314v-.7h3.7s.03-1.25 0-1.2c-.8-.1-1.4-.3-1.9-.6c-.4-.3-.7-.7-.7-1.2c0-.3.1-.5.2-.7l.6-.6c.3-.1.6-.2 1-.3c.4-.1.8-.1 1.2-.1c.5 0 .9 0 1.3.1c.3.1.7.2.9.3c.3.2.5.4.6.6c.2.2.2.4.2.7c0 .5-.2.9-.7 1.2c-.4.3-1 .5-1.8.6c-.03-.05 0 1.2 0 1.2zm-2.6-3c0 .4.2.6.6.8c.3.2.9.3 1.5.3c.7 0 1.2-.1 1.6-.3c.4-.2.6-.4.6-.8c0-.3-.2-.6-.6-.8c-.4-.2-.9-.3-1.6-.3c-.6 0-1.2.1-1.5.3c-.4.2-.6.5-.6.8zm15.1-.9l-.4.7l-1-.3c-.4-.1-.7-.3-1-.4c-.3-.2-.6-.4-.8-.7c-.2-.2-.4-.5-.6-.7c-.1.2-.3.5-.5.7c-.3.3-.5.5-.8.7c-.3.1-.7.3-1 .4l-1 .3l-.4-.7c.4 0 .8-.1 1.2-.3c.4-.2.8-.4 1.1-.6c.3-.2.5-.5.7-.8c.2-.3.3-.6.3-.9v-.5h.9s-.03.48 0 .5c0 .3.1.6.2.9c.2.3.5.6.8.8c.3.2.7.4 1 .6c.4.2.8.3 1.3.3zm.4 1.7v.7h-3.8v3.3h-.8v-3.3h-3.7v-.7h8.3zm10.4-5.2v5.3h-.8v-5.3h.8zm-2.7.6v3.8h-4.3v-3.8h4.3zm-.8 3.1v-2.4h-2.7v2.4h2.7zm3.8 2.9s-2.73-.04-2.7 0c0 .2.1.4.2.6c.2.2.4.4.7.6c.3.2.6.3 1 .5c.3.1.7.2 1.1.2l-.3.7l-1-.3l-.9-.3c-.3-.2-.5-.3-.7-.5c-.2-.2-.4-.4-.5-.6l-.6.6c-.2.2-.4.3-.7.5l-.9.3c-.4.1-.7.2-1 .3l-.3-.7c.4 0 .8-.1 1.1-.2c.4-.2.7-.3 1-.5c.3-.2.5-.4.7-.6c.1-.2.2-.4.2-.6c.02-.04-2.7 0-2.7 0v-.7h2.7v-.9h.9v.9h2.7v.7zm4.3-2.1l-.3-.7c.4 0 .8-.1 1.2-.3c.4-.1.7-.3 1-.6c.3-.2.5-.4.7-.7c.2-.3.3-.6.3-.9c-.02.04 0 0 0 0h-2.9v-.7h6.7v.7h-2.9s.01.04 0 0c0 .3.1.6.3.9c.2.3.4.5.7.7c.3.3.6.5 1 .6c.4.2.8.3 1.2.3l-.3.7l-1.1-.3c-.3-.1-.6-.3-.9-.4c-.3-.2-.6-.4-.8-.7c-.2-.2-.4-.4-.6-.7c-.1.3-.3.5-.5.7c-.2.3-.5.5-.8.7c-.3.1-.6.3-.9.4l-1.1.3zm7.5.8v.6h-3.8v3.3h-.8v-3.3h-3.7v-.6h8.3zm5.5-.9v.9h-4.2v-4.6h.9v1.6h2.4v-1.6h.9v1h2.1v-1.6h.8v6.7h-.8v-2.4h-2.1zm2.1-2h-2.1v1.3h2.1v-1.3zm-3 2.2v-1.7h-2.4v1.7h2.4zm-1.2 3.7h5.2v.7h-6.1v-2.8h.9v2.1z" stroke="none" fill="#111111"/></g><g id="Polygon118604"><path d="m7.6 22.4c-.03.05 1.2 0 1.2 0v.7H.5v-.7s6.23.05 6.2 0c.1-.5.2-.9.2-1.3v-1H1.6v-.7h6.2s-.03.61 0 .6c0 .3 0 .7-.1 1.1c0 .4 0 .8-.1 1.3zm-5.2 3.9v1.1h5.6v.7H1.6v-2.4h5.4v-1H1.5v-.7h6.3v2.3H2.4zm11.9.1h3.7v.7H9.7v-.7h3.7v-1.7h-2.6v-2.9h5.4v-1.4h-5.5v-.7h6.3v2.8h-5.4v1.5h5.6v.7h-2.9v1.7zm9.2-4.6v1.6h-4.1v-3.9h.8v1.3h2.5v-1.3h.8v1.6h2.1v-2h.8v4.7h-.8v-2h-2.1zm-.8 1v-1.4h-2.5v1.4h2.5zm-1.3 4.6h5.4v.7h-6.2v-2.3h5v-.9h-5.1v-.6h5.9v2.1h-5v1zm14.5-5.2v2.2h-.8v-5.2h.8v2.3h1.2v-2.4h.8v5.6h-.8v-2.5h-1.2zm-1.2 1.1l-.4.7c-.4-.2-.8-.4-1.1-.8c-.3-.3-.5-.6-.7-1c-.2.4-.4.8-.7 1.2c-.3.4-.7.6-1.2.8l-.4-.6c.3-.1.5-.3.8-.5c.2-.2.4-.5.6-.7c.1-.2.3-.5.3-.8c.1-.2.2-.5.2-.8c-.02.05 0-1.2 0-1.2h.8s-.02 1.25 0 1.2c0 .3 0 .5.1.8c.1.2.2.5.4.7c.1.2.3.4.6.6c.2.2.4.3.7.4zm.2 1.6c.4 0 .9 0 1.2.1c.4.1.7.2 1 .3c.3.2.5.3.6.5c.2.2.2.5.2.7c0 .3 0 .5-.2.7c-.1.2-.3.4-.6.5c-.3.2-.6.3-1 .4c-.3 0-.8.1-1.2.1c-.5 0-.9-.1-1.3-.1c-.4-.1-.7-.2-1-.4c-.2-.1-.4-.3-.6-.5c-.1-.2-.2-.4-.2-.7c0-.2.1-.5.2-.7c.2-.2.4-.3.6-.5c.3-.1.6-.2 1-.3c.4-.1.8-.1 1.3-.1zm0 2.6c.7 0 1.2 0 1.6-.2c.4-.2.6-.4.6-.8c0-.3-.2-.5-.6-.7c-.4-.2-.9-.3-1.6-.3c-.7 0-1.3.1-1.7.3c-.4.2-.6.4-.6.7c0 .4.2.6.6.8c.4.2 1 .2 1.7.2zM46.3 19h.8v9.2h-.8v-4.8h-1.2v4.3h-.8v-8.5h.8v3.5h1.2V19zm-5.8 4.2v2h1.7c.3 0 .5-.1.7-.1c.3 0 .5-.1.7-.1l.1.7c-.2 0-.5.1-.8.1c-.2 0-.5.1-.7.1h-1.9c0 .03-.6 0-.6 0v-5.8h3.6v.7h-2.8v1.7h2.7v.7h-2.7zm12.3.6v-3.2h-1.5v-.6h6.8v.6h-1.4v3.2h1.4v.7h-6.7v-.7h1.4zm3.1 0v-3.2h-2.3v3.2h2.3zm-5.3 2.5h8.3v.7h-8.3v-.7zm13.7.1h3.8v.7h-8.3v-.7h3.7v-1.7h-2.7v-2.9h5.4v-1.4h-5.4v-.7h6.3v2.8h-5.5v1.5h5.7v.7h-3v1.7zm11.6-7.3h.8v5.5h-.8v-5.5zm-3.2 2.3h1.4v-2.2h.8v5.4h-.8v-2.5h-1.4v-.7zm.7 2.2l-.4.6c-.4-.2-.8-.4-1-.7c-.3-.4-.6-.7-.7-1.1c-.2.4-.4.8-.7 1.2c-.3.3-.7.6-1.2.8l-.4-.6c.3-.2.6-.3.8-.5c.2-.2.4-.5.6-.7c.1-.3.2-.5.3-.8c.1-.3.2-.5.2-.8c-.04-.01 0-.5 0-.5h-1.7v-.7h4v.7h-1.5s-.04.48 0 .5c0 .2 0 .5.1.7c.1.3.2.5.3.8l.6.6c.2.2.5.3.7.5zm-2.9 2.1v-.7h6.2v3.2h-.9v-2.5h-5.3zm15-1.7v.7h-6.3v-4.9h6.2v.7H80v1.4h5.2v.6H80v1.5h5.5zm-7.4 2.3h8.3v.7h-8.3v-.7zm17.8-3.6v.6h-1.5v4.9h-.9V19h.9v3.7h1.5zm-7.4-2.1s.05 4.61 0 4.6h2.2c.4-.1.7-.1 1-.1c.3-.1.6-.1 1-.2l.1.7c-.4.1-.7.1-1.1.2c-.3 0-.6 0-1 .1h-2.3c.03.03-.7 0-.7 0v-6h4.3v.7h-3.5zm7.9 7v-1h.9v1h-.9z" stroke="none" fill="#111111"/></g><g id="Polygon118603"><path d="m1.3 4.3L1 3.6c.4 0 .8-.1 1.2-.2c.3-.1.7-.3 1-.5c.2-.1.5-.3.6-.6c.2-.2.3-.4.3-.7c.04.03-2.8 0-2.8 0v-.6h6.8v.6s-2.88.03-2.9 0c0 .3.1.5.3.7c.2.3.4.5.7.6c.3.2.6.4 1 .5c.4.1.8.2 1.2.2l-.3.7c-.4-.1-.8-.2-1.1-.3c-.4-.1-.7-.2-1-.3c-.3-.2-.6-.4-.8-.6c-.2-.2-.4-.4-.5-.7c-.1.3-.3.5-.5.7c-.3.2-.5.4-.8.6c-.3.1-.6.2-1 .3l-1.1.3zm7.5 1.2H5.1v1c.9 0 1.5.2 2 .4c.5.3.7.7.7 1.2c0 .5-.3.9-.8 1.2c-.6.2-1.3.4-2.3.4c-1 0-1.8-.2-2.3-.4c-.6-.3-.9-.7-.9-1.2c0-.5.3-.9.7-1.2c.5-.2 1.2-.4 2.1-.4c-.05-.02 0-1 0-1H.5v-.7h8.3v.7zM7 8.1c0-.3-.2-.6-.6-.7c-.4-.2-1-.3-1.7-.3c-.7 0-1.3.1-1.7.3c-.4.1-.6.4-.6.7c0 .3.2.5.6.7c.4.2 1 .2 1.7.2c.7 0 1.3 0 1.7-.2c.4-.2.6-.4.6-.7zm11-3.2h-3.7v1.7h2.7v3.1h-.8V7.3h-5.6v-.7h2.8V4.9H9.7v-.7s6.18.04 6.2 0c.1-.5.2-1 .2-1.4V1.7c.03-.05-5.3 0-5.3 0v-.7h6.2s-.05.64 0 .6c0 .4-.1.8-.1 1.2c0 .4-.1.9-.2 1.4c.03.04 1.3 0 1.3 0v.7zM25.5.5h.9v9.2h-.9V.5zm-3.6.7c.3 0 .7.1 1 .2c.3.1.5.2.7.4c.2.2.4.4.5.7c.2.3.2.5.2.9c0 .3 0 .6-.2.8c-.1.3-.3.5-.5.7c-.2.2-.4.4-.7.5c-.3.1-.7.1-1 .1c-.4 0-.7 0-1-.1c-.3-.1-.6-.3-.8-.5c-.2-.2-.4-.4-.5-.7c-.1-.2-.2-.5-.2-.8c0-.4.1-.6.2-.9c.1-.3.3-.5.5-.7c.2-.2.5-.3.8-.4c.3-.1.6-.2 1-.2zm0 .7c-.3 0-.5.1-.7.1c-.2.1-.4.2-.5.3c-.1.2-.3.3-.3.5c-.1.2-.2.3-.2.6c0 .2.1.4.2.5c0 .2.2.4.3.5c.1.1.3.2.5.3c.2.1.4.1.7.1c.2 0 .4 0 .6-.1c.2-.1.4-.2.5-.3c.2-.1.3-.3.4-.5c.1-.1.1-.3.1-.5c0-.3 0-.4-.1-.6c-.1-.2-.2-.3-.4-.5c-.1-.1-.3-.2-.5-.3c-.2 0-.4-.1-.6-.1zm-2.8 5.8L19 7h1.3c.5 0 1 0 1.5-.1h1.6c.5-.1 1-.1 1.5-.2l.1.6c-.5.1-1 .2-1.6.2c-.5.1-1 .1-1.5.1c-.5.1-1 .1-1.5.1h-1.3zm16.5-6.4v.7h-5.3v-.7h2.3v-.8h.8v.8h2.2zm1.7 2h1.3v.7h-1.3v2.8h-.9V.6h.9v2.7zm-1.4 2.1v.6c-.5.1-1 .1-1.5.2c-.5 0-1 .1-1.5.1h-2.7l-.1-.6h1.2c.4 0 .8 0 1.3-.1v-.7c-.6 0-1-.2-1.3-.4c-.3-.2-.5-.5-.5-.9c0-.4.2-.7.6-.9c.4-.2.9-.4 1.6-.4c.6 0 1.1.1 1.5.4c.4.2.6.5.6.9c0 .4-.1.7-.5.9c-.3.2-.7.4-1.2.4v.7c.4 0 .8 0 1.3-.1c.4 0 .8-.1 1.2-.1zm-4.3-1.8c0 .3.2.4.4.6c.2.1.6.2 1 .2c.4 0 .7-.1 1-.2c.2-.2.3-.3.3-.6c0-.2-.1-.4-.3-.5c-.3-.1-.6-.2-1-.2c-.4 0-.8.1-1 .2c-.2.1-.4.3-.4.5zm2.7 3.3c1 0 1.7.1 2.3.3c.5.3.7.6.7 1.1c0 .4-.2.8-.7 1c-.6.3-1.3.4-2.3.4c-.9 0-1.7-.1-2.2-.4c-.5-.2-.8-.6-.8-1c0-.5.3-.8.8-1.1c.5-.2 1.3-.3 2.2-.3zm0 2.2c.7 0 1.3-.1 1.6-.2c.4-.2.6-.4.6-.6c0-.3-.2-.5-.6-.6c-.3-.1-.9-.2-1.6-.2c-.7 0-1.2.1-1.6.2c-.3.1-.5.3-.5.6c0 .2.2.4.5.6c.4.1.9.2 1.6.2zm13.6-4.8v.6h-1.5v4.8h-.9V.6h.9v3.7h1.5zm-5.5-3s.01 1.68 0 1.7c0 .4.1.8.2 1.2c.1.4.3.7.5 1.1c.2.3.5.7.7.9c.3.3.6.5.9.7l-.5.7c-.5-.3-.9-.7-1.3-1.2c-.4-.5-.7-1-.9-1.7c-.2.7-.5 1.3-.9 1.8c-.4.5-.9 1-1.4 1.2l-.5-.6c.4-.2.7-.4 1-.7c.2-.3.5-.6.7-1c.2-.4.4-.8.5-1.2c.1-.4.2-.8.2-1.2c-.01-.02 0-1.7 0-1.7h.8zm15.3 1.2h1.4v.7h-1.4v2.1h-.8V.6h.8v1.9zM55.2.9v4H51v-4h.8v1.3h2.6V.9h.8zm-.8 3.3V2.9h-2.6v1.3h2.6zm-1.7 3.7v1h5.3v.7h-6.1V7.3h5v-.9h-5v-.7h5.8v2.2h-5zm11.9-2h1.8V.5h.9v7h-.9v-.9h-1.8v-.7zm-1.9-1.8c-.3 0-.6 0-.9-.1c-.3-.1-.5-.2-.7-.3c-.2-.2-.4-.3-.5-.5c-.1-.2-.1-.5-.1-.7c0-.2 0-.5.1-.7c.1-.2.3-.3.5-.5c.2-.1.4-.2.7-.3c.3-.1.6-.1.9-.1c.3 0 .6 0 .9.1c.3.1.5.2.7.3c.2.2.4.3.5.5c.1.2.2.5.2.7c0 .2-.1.5-.2.7c-.1.2-.3.3-.5.5c-.2.1-.4.2-.7.3c-.3.1-.6.1-.9.1zm0-2.6c-.4 0-.8.1-1 .3c-.3.2-.4.4-.4.7c0 .3.1.5.4.7c.2.2.6.3 1 .3c.4 0 .8-.1 1.1-.3c.2-.2.4-.4.4-.7c0-.3-.2-.5-.4-.7c-.3-.2-.7-.3-1.1-.3zm-.3 5.7s-.02-1.78 0-1.8c-.5 0-.9.1-1.3.1h-1.3l-.1-.7h1.4c.5 0 1 0 1.5-.1h1.5c.5-.1 1-.1 1.5-.2l.1.6c-.4.1-.8.1-1.2.2c-.5 0-.9 0-1.3.1c.02-.02 0 1.8 0 1.8h-.8zm-.5 1.6h5.6v.7H61V6.8h.9v2zM77.7.6h.8v9.1h-.8V.6zm-3.4 1.6s.01 1.14 0 1.1c0 .4.1.8.2 1.2c.1.4.3.7.5 1.1c.2.3.5.6.8.8c.3.3.6.5 1 .6l-.5.7c-.5-.2-1-.6-1.4-1.1c-.5-.5-.8-1.1-1-1.7c-.1.3-.2.7-.4 1c-.2.3-.4.6-.6.8c-.2.3-.4.5-.6.7c-.3.2-.5.4-.8.5l-.5-.6c.4-.2.7-.4 1-.7c.3-.3.5-.6.8-.9c.2-.4.3-.8.5-1.2c.1-.4.2-.8.2-1.2c-.03.04 0-1.1 0-1.1h-2.2v-.7h5.2v.7h-2.2zM86.9.6l.9-.1v5.4h-.9V4.6s-2.3.02-2.3 0c-.2.3-.5.5-.8.6c-.3.2-.7.3-1.1.3c-.3 0-.6-.1-.9-.2c-.3-.1-.6-.3-.8-.5c-.2-.2-.3-.4-.5-.7c-.1-.2-.1-.5-.1-.9c0-.3 0-.6.1-.8c.2-.3.3-.5.5-.7c.2-.2.5-.4.8-.5c.3-.1.6-.1.9-.1c.4 0 .8 0 1.1.2c.3.1.6.3.8.6h2.3V.6zm-4.2 4.1c.2 0 .4 0 .6-.1c.2 0 .4-.1.5-.3c.2-.1.3-.3.4-.5c0-.1.1-.3.1-.6c0-.2-.1-.4-.1-.6c-.1-.1-.2-.3-.4-.4c-.1-.1-.3-.2-.5-.3c-.2-.1-.4-.1-.6-.1c-.2 0-.4 0-.6.1c-.2.1-.4.2-.5.3c-.1.1-.2.3-.3.4c-.1.2-.1.4-.1.6c0 .3 0 .5.1.6c.1.2.2.4.3.5c.1.2.3.3.5.3c.2.1.4.1.6.1zm2.4-1.5c0 .3-.1.6-.1.7c-.03.04 1.9 0 1.9 0V2.6s-1.93-.04-1.9 0c0 .1.1.4.1.6zm-3.5 3.9v-.7h6.2v3.3h-.9V7.1h-5.3zM96.9.6v6.6h-.8V.6h.8zm-2.5 2.8c0 .4-.1.7-.2.9c-.1.3-.3.6-.5.8c-.2.2-.5.3-.8.4c-.3.1-.6.2-.9.2c-.3 0-.7-.1-1-.2c-.2-.1-.5-.2-.7-.4c-.2-.2-.4-.5-.5-.8c-.1-.2-.2-.5-.2-.9c0-.3.1-.6.2-.9c.1-.3.3-.5.5-.7c.2-.2.5-.3.7-.5c.3-.1.7-.1 1-.1c.3 0 .6 0 .9.1c.3.2.6.3.8.5c.2.2.4.4.5.7c.1.3.2.6.2.9zm-4 0c0 .3.1.5.2.6c0 .2.1.4.3.5c.1.2.3.3.5.4c.2 0 .4.1.6.1c.2 0 .4-.1.6-.1c.2-.1.4-.2.5-.4c.2-.1.3-.3.4-.5c0-.1.1-.3.1-.6c0-.2-.1-.4-.1-.6c-.1-.2-.2-.3-.4-.5c-.1-.1-.3-.2-.5-.3c-.2-.1-.4-.1-.6-.1c-.2 0-.4 0-.6.1c-.2.1-.4.2-.5.3c-.2.2-.3.3-.3.5c-.1.2-.2.4-.2.6zm1.5 5.4h5.3v.7H91v-3h.9v2.3zM107.6.5h.8v9.2h-.8V5h-1.3v4.2h-.8V.7h.8v3.6h1.3V.5zm-5.7 1.2s.05 4.89 0 4.9c.5 0 1 0 1.4-.1c.5 0 1-.1 1.6-.2l.1.7c-.7.1-1.2.2-1.8.3h-2.1V1.7h.8zM114.4 5h3.7v.7h-8.3v-.7h3.8v-1h-2.7V.9h6.2v3.1h-2.7v1zm-2.7-3.4v1.7h4.5V1.6h-4.5zm2.3 4.8c1 0 1.8.2 2.3.4c.5.3.8.7.8 1.3c0 .5-.3.9-.8 1.2c-.6.2-1.3.4-2.3.4c-1 0-1.8-.2-2.3-.4c-.6-.3-.9-.7-.9-1.2c0-.6.3-1 .9-1.2c.5-.3 1.3-.5 2.3-.5zm0 2.6c.7 0 1.3 0 1.7-.2c.4-.2.6-.4.6-.7c0-.4-.2-.6-.6-.8c-.4-.1-1-.2-1.7-.2c-.8 0-1.3.1-1.7.2c-.4.2-.6.4-.6.8c0 .3.2.5.6.7c.4.2.9.2 1.7.2zm11.5-6.6c-.02-.03 0-.3 0-.3h-5.6v-.6h6.4s.02.87 0 .9v1.8c0 .4-.1.7-.1 1.1c-.1.4-.1.8-.2 1.3l-.9-.1c.2-.9.3-1.6.3-2.3c.1-.7.1-1.3.1-1.8zm-2.4 5.3h4.2v.7H119v-.7h3.2V4.4h.9v3.3zM136.9.6h.9v9.1h-.9V.6zm-3.4 1.6s.05 1.14 0 1.1c0 .4.1.8.2 1.2c.2.4.3.7.6 1.1c.2.3.4.6.7.8c.3.3.7.5 1 .6l-.5.7c-.5-.2-1-.6-1.4-1.1c-.4-.5-.8-1.1-1-1.7c-.1.3-.2.7-.4 1c-.1.3-.3.6-.5.8c-.2.3-.4.5-.7.7c-.2.2-.5.4-.7.5l-.5-.6c.3-.2.6-.4.9-.7c.3-.3.6-.6.8-.9c.2-.4.4-.8.5-1.2c.1-.4.2-.8.2-1.2c.01.04 0-1.1 0-1.1h-2.1v-.7h5.1v.7h-2.2zM146.2.6l.8-.1v5.4h-.8V4.6s-2.36.02-2.4 0c-.2.3-.4.5-.8.6c-.3.2-.6.3-1 .3c-.4 0-.7-.1-1-.2c-.3-.1-.5-.3-.7-.5c-.2-.2-.4-.4-.5-.7c-.1-.2-.2-.5-.2-.9c0-.3.1-.6.2-.8c.1-.3.3-.5.5-.7c.2-.2.4-.4.7-.5c.3-.1.6-.1 1-.1c.4 0 .7 0 1 .2c.4.1.6.3.9.6h2.3V.6zM142 4.7c.2 0 .4 0 .6-.1c.2 0 .3-.1.5-.3c.1-.1.2-.3.3-.5c.1-.1.1-.3.1-.6c0-.2 0-.4-.1-.6c-.1-.1-.2-.3-.3-.4c-.2-.1-.3-.2-.5-.3c-.2-.1-.4-.1-.6-.1c-.3 0-.5 0-.7.1c-.2.1-.3.2-.5.3c-.1.1-.2.3-.3.4c-.1.2-.1.4-.1.6c0 .3 0 .5.1.6c.1.2.2.4.3.5c.2.2.3.3.5.3c.2.1.4.1.7.1zm2.3-1.5c0 .3 0 .6-.1.7c.01.04 2 0 2 0V2.6s-1.99-.04-2 0c.1.1.1.4.1.6zm-3.4 3.9v-.7h6.1v3.3h-.8V7.1h-5.3zM155.3.5h.8v9.2h-.8V.5zm-3.7.7c.4 0 .7.1 1 .2c.3.1.6.2.8.4c.2.2.4.4.5.7c.1.3.2.5.2.9c0 .3-.1.6-.2.8c-.1.3-.3.5-.5.7c-.2.2-.5.4-.8.5c-.3.1-.6.1-1 .1c-.3 0-.7 0-1-.1c-.3-.1-.5-.3-.7-.5c-.3-.2-.4-.4-.6-.7c-.1-.2-.1-.5-.1-.8c0-.4 0-.6.1-.9c.2-.3.3-.5.6-.7c.2-.2.4-.3.7-.4c.3-.1.7-.2 1-.2zm0 .7c-.2 0-.4.1-.6.1l-.6.3c-.1.2-.2.3-.3.5c-.1.2-.1.3-.1.6c0 .2 0 .4.1.5c.1.2.2.4.3.5l.6.3c.2.1.4.1.6.1c.3 0 .5 0 .7-.1c.2-.1.3-.2.5-.3c.1-.1.2-.3.3-.5c.1-.1.1-.3.1-.5c0-.3 0-.4-.1-.6c-.1-.2-.2-.3-.3-.5c-.2-.1-.3-.2-.5-.3c-.2 0-.4-.1-.7-.1zm-2.8 5.8l-.1-.7h1.4c.4 0 .9 0 1.5-.1h1.5c.5-.1 1.1-.1 1.6-.2v.6c-.5.1-1 .2-1.5.2c-.6.1-1.1.1-1.6.1c-.5.1-1 .1-1.5.1h-1.3zm19.7-3.5v.7h-1.6v4.8h-.8V.6h.8v3.6h1.6zm-8.2 3.2V1.5h4.2v5.9h-4.2zm.8-5.3v4.6h2.5V2.1h-2.5zm14.4.4v-1h-5.4v-.7h6.2v2.3H171v1h5.5v.7h-6.4V2.5h5.4zm-6.4 3.1h8.3v.7h-8.3v-.7zM171 7v1.8h5.5v.7h-6.3V7h.8zm16.4-4.5h1.4v.7h-1.4v2h-.8V.5h.8v2zm-2.2.4c0 .3 0 .6-.1.8c-.2.3-.3.5-.5.7c-.2.2-.5.3-.8.4c-.3.1-.6.1-.9.1c-.4 0-.7 0-1-.1c-.3-.1-.5-.2-.7-.4c-.2-.2-.4-.4-.5-.7c-.1-.2-.2-.5-.2-.8c0-.3.1-.6.2-.8c.1-.3.3-.5.5-.7c.2-.1.4-.3.7-.4c.3-.1.6-.1 1-.1c.3 0 .6 0 .9.1c.3.1.6.3.8.4c.2.2.3.4.5.7c.1.2.1.5.1.8zm-3.9 0c0 .2.1.4.2.6c0 .1.1.3.3.4c.1.1.3.2.5.3c.1 0 .4.1.6.1c.2 0 .4-.1.6-.1c.2-.1.4-.2.5-.3c.1-.1.2-.3.3-.4c.1-.2.1-.4.1-.6c0-.2 0-.4-.1-.5c-.1-.2-.2-.4-.3-.5c-.1-.1-.3-.2-.5-.3c-.2 0-.4-.1-.6-.1c-.2 0-.5.1-.6.1c-.2.1-.4.2-.5.3c-.2.1-.3.3-.3.5c-.1.1-.2.3-.2.5zm1.2 5v1h5.3v.7h-6.1V7.3h4.9v-1h-5v-.7h5.8v2.3h-4.9zm14.1-5.3h1.4v.7h-1.4v2h-.8V.5h.8v2.1zM190.1.9s4.07.04 4.1 0c0 1.2-.4 2.2-1.1 2.9c-.6.8-1.7 1.4-3.1 1.8l-.3-.7c.7-.2 1.3-.4 1.8-.7c.5-.3.9-.7 1.2-1.1c.02.01-2.9.2-2.9.2l-.2-.6l3.5-.2c.1-.3.2-.6.2-.9h-3.2v-.7zm1.6 7v1h5.3v.7h-6.2V7.3h5v-.9h-5v-.7h5.8v2.2h-4.9zM205.4.5h.8v9.2h-.8V.5zm-5.3 4.2s-.03 2.09 0 2.1c.7 0 1.4 0 2.2-.1c.7 0 1.4-.1 2.2-.2l.1.7c-.4 0-.8.1-1.2.1c-.4.1-.8.1-1.1.1c-.4 0-.8.1-1.2.1h-1.9V4h3.4V2.1h-3.4v-.7h4.2v3.3h-3.3zM214.6 6V3.2h-2v-.7h2V.6h.8v5.4h-.8zm-1.3-1.1l-.5.6c-.5-.2-.9-.4-1.3-.8c-.4-.3-.7-.7-.9-1.2c-.2.5-.5 1-.9 1.4c-.4.4-.8.7-1.4.9l-.4-.7c.3-.1.6-.3.9-.5c.3-.2.6-.4.8-.7c.2-.3.3-.6.4-.9c.1-.3.2-.7.2-1c-.01 0 0-.9 0-.9h.8s.03.87 0 .9c0 .3.1.6.2.9c.1.3.2.6.4.8c.2.3.5.5.7.7c.3.2.6.4 1 .5zm-.9 1.3c.5 0 .9.1 1.3.1c.3.1.7.2.9.4c.3.1.5.3.6.5c.2.2.2.5.2.8c0 .2 0 .5-.2.7c-.1.2-.3.4-.6.5c-.2.2-.6.3-.9.4c-.4 0-.8.1-1.3.1c-.5 0-.9-.1-1.3-.1c-.3-.1-.7-.2-.9-.4c-.3-.1-.5-.3-.6-.5c-.2-.2-.2-.5-.2-.7c0-.3 0-.6.2-.8c.1-.2.3-.4.6-.5c.2-.2.6-.3.9-.4c.4 0 .8-.1 1.3-.1zm0 2.8c.7 0 1.2-.1 1.6-.3c.4-.2.6-.4.6-.7c0-.4-.2-.7-.6-.8c-.4-.2-.9-.3-1.6-.3c-.7 0-1.2.1-1.6.3c-.4.1-.6.4-.6.8c0 .3.2.5.6.7c.4.2.9.3 1.6.3zm7.1 1.1l-.5.3c-.5-.8-.9-1.6-1.1-2.4c-.3-.8-.4-1.8-.4-2.8c0-1 .1-1.9.4-2.8c.2-.8.6-1.6 1.1-2.4l.5.3c-.4.7-.7 1.5-.9 2.3c-.3.9-.4 1.7-.4 2.6c0 .9.1 1.8.4 2.6c.2.8.5 1.6.9 2.3zm8.7-5.1l-.4.7c-.3-.1-.6-.2-1-.3c-.3-.2-.7-.4-1-.6c-.3-.2-.5-.5-.8-.7l-.6-.9c-.1.3-.3.6-.6.9c-.2.2-.5.5-.8.7c-.3.2-.6.4-1 .6l-1 .3l-.4-.7c.4-.1.8-.2 1.2-.4c.4-.2.8-.4 1.1-.7c.3-.3.6-.6.8-.9c.2-.4.3-.8.3-1.1c-.02-.04 0-.7 0-.7h.9s-.04.66 0 .7c0 .3.1.7.3 1.1c.2.3.4.6.7.9c.3.3.7.5 1.1.7c.4.2.8.3 1.2.4zm-3.4 2.8h3.8v.7h-8.3v-.7h3.7V5.6h.8v2.2zm11.7-3.4h1.3v.7h-8.3v-.7h6.1c.2-.6.2-1.1.3-1.5V1.7h-5.4v-.7h6.2s.02.7 0 .7v1.2c0 .4-.1.9-.2 1.5zm-6 5.2V6.3h6.3v3.3h-6.3zm.8-2.6v1.9h4.6V7h-4.6zm7.8 3.3l-.5-.2c.4-.8.7-1.6 1-2.4c.2-.8.3-1.7.3-2.5c0-.9-.1-1.8-.3-2.6c-.3-.8-.6-1.6-1-2.4l.5-.2c.5.7.9 1.5 1.1 2.4c.3.8.4 1.7.4 2.8c0 1-.1 1.9-.4 2.7c-.2.9-.6 1.7-1.1 2.4zm12.7-8.4v.7h-7.4v-.7h3.3V.7h.9v1.2h3.2zm-3.2 6h3.7v.7H244v-.7h3.7s.02-1.25 0-1.2c-.8-.1-1.4-.3-1.9-.6c-.4-.3-.7-.7-.7-1.2c0-.3.1-.5.2-.7l.6-.6c.3-.1.6-.2 1-.3c.4-.1.8-.1 1.2-.1c.5 0 .9 0 1.3.1l.9.3c.3.2.5.4.6.6c.1.2.2.4.2.7c0 .5-.2.9-.7 1.2c-.4.3-1 .5-1.8.6c-.05-.05 0 1.2 0 1.2zm-2.6-3c0 .4.2.6.5.8c.4.2 1 .3 1.6.3c.7 0 1.2-.1 1.6-.3c.4-.2.6-.4.6-.8c0-.3-.2-.6-.6-.8c-.4-.2-.9-.3-1.6-.3c-.6 0-1.2.1-1.6.3c-.3.2-.5.5-.5.8zm15-.9l-.3.7c-.4-.1-.7-.2-1-.3c-.4-.1-.7-.3-1-.4c-.3-.2-.6-.4-.8-.7c-.2-.2-.4-.5-.6-.7c-.1.2-.3.5-.6.7c-.2.3-.5.5-.8.7c-.3.1-.6.3-.9.4l-1.1.3l-.3-.7c.4 0 .8-.1 1.2-.3c.4-.2.8-.4 1.1-.6c.3-.2.5-.5.7-.8c.2-.3.3-.6.3-.9c-.02-.02 0-.5 0-.5h.9s-.05.48 0 .5c0 .3 0 .6.2.9c.2.3.5.6.8.8c.3.2.6.4 1 .6c.4.2.8.3 1.2.3zm.4 1.7l.1.7h-3.8v3.3h-.8V6.4h-3.7v-.7h8.2zm7.4-3.6v-.7h-5.4v-.6h6.2v1.9h-5.4v.8h5.5v.6h-6.3v-2h5.4zm-6.4 2.7h8.2v.6h-8.2v-.6zm1.8 3.3v.9h5.7v.6h-6.5V7.5h5.4v-.7h-5.5v-.6h6.3v1.9h-5.4zm10.2-2l-.3-.7c.4 0 .8-.2 1.2-.3c.4-.2.8-.4 1.1-.6c.3-.3.5-.5.7-.8c.2-.4.2-.7.2-1c.04-.04-2.9 0-2.9 0v-.7h2.9V.7h.9v1.3h2.9v.7s-2.92-.04-2.9 0c0 .3.1.6.2 1c.2.3.5.5.7.8c.3.2.7.4 1.1.6c.4.1.8.3 1.2.3l-.3.7l-1-.3c-.4-.1-.7-.3-1-.5c-.3-.1-.5-.3-.8-.6c-.2-.2-.4-.5-.5-.7c-.2.2-.4.5-.6.7c-.2.3-.5.5-.8.6c-.3.2-.6.4-.9.5l-1.1.3zm3.8 1.7h3.7v.7h-8.3v-.7h3.7v-2h.9v2zM289.4.6h.9v9.1h-.9V.6zm-3.3 1.6s-.04 1.14 0 1.1c0 .4 0 .8.2 1.2c.1.4.3.7.5 1.1c.2.3.5.6.8.8c.3.3.6.5.9.6l-.5.7c-.5-.2-1-.6-1.4-1.1c-.4-.5-.7-1.1-1-1.7c-.1.3-.2.7-.4 1c-.1.3-.3.6-.5.8c-.2.3-.4.5-.7.7c-.2.2-.5.4-.7.5l-.5-.6c.3-.2.6-.4.9-.7c.3-.3.6-.6.8-.9c.2-.4.4-.8.5-1.2c.2-.4.2-.8.2-1.2c.02.04 0-1.1 0-1.1h-2.1v-.7h5.1v.7h-2.1zm10.4 5.7h3.8v.7H292v-.7h3.7V6.2H293V3.3h5.4V1.9H293v-.7h6.2v2.8h-5.4v1.5h5.7v.7h-3v1.7zm11.3-2.6h3.7v.6h-8.3v-.6h3.8V4.2h-2.7V.8h.9v1h4.4v-1h.8v3.4h-2.6v1.1zm-2.6-2.9v1.1h4.4V2.4h-4.4zm-1 5.1v-.7h6.3v2.9h-.8V7.5h-5.5zm13-1.6h1.9V.5h.8v7h-.8v-.9h-1.9v-.7zm-1.9-1.8c-.3 0-.6 0-.9-.1c-.2-.1-.5-.2-.7-.3c-.2-.2-.3-.3-.4-.5c-.2-.2-.2-.5-.2-.7c0-.2 0-.5.2-.7c.1-.2.2-.3.4-.5c.2-.1.5-.2.7-.3c.3-.1.6-.1.9-.1c.4 0 .7 0 1 .1c.2.1.5.2.7.3c.2.2.3.3.4.5c.1.2.2.5.2.7c0 .2-.1.5-.2.7c-.1.2-.2.3-.4.5c-.2.1-.5.2-.7.3c-.3.1-.6.1-1 .1zm0-2.6c-.4 0-.7.1-1 .3c-.3.2-.4.4-.4.7c0 .3.1.5.4.7c.3.2.6.3 1 .3c.5 0 .8-.1 1.1-.3c.3-.2.4-.4.4-.7c0-.3-.1-.5-.4-.7c-.3-.2-.6-.3-1.1-.3zm-.3 5.7s.02-1.78 0-1.8c-.4 0-.9.1-1.3.1h-1.2l-.1-.7h1.3c.5 0 1 0 1.5-.1h1.6c.5-.1 1-.1 1.5-.2v.6c-.4.1-.8.1-1.2.2c-.4 0-.8 0-1.2.1c-.05-.02 0 1.8 0 1.8h-.9zm-.5 1.6h5.6v.7h-6.4V6.8h.8v2zm15.6-4.5v.7h-1.5v4.7h-.8V.6h.8v3.7h1.5zM324.7.7v1.3h2.2v.7h-5.4v-.7h2.3V.7h.9zm-.4 2.7c.3 0 .6.1.9.2c.2.1.5.2.7.4c.2.2.3.4.4.7c.2.3.2.5.2.8c0 .4 0 .6-.2.9c-.1.3-.2.5-.4.7c-.2.2-.5.3-.7.4c-.3.1-.6.1-.9.1c-.3 0-.6 0-.9-.1c-.3-.1-.5-.2-.7-.4c-.2-.2-.4-.4-.5-.7c-.1-.3-.1-.5-.1-.9c0-.3 0-.5.1-.8c.1-.3.3-.5.5-.7c.2-.2.4-.3.7-.4c.3-.1.6-.2.9-.2zm0 3.6c.2 0 .4-.1.6-.2c.1 0 .3-.1.4-.2c.1-.2.2-.3.3-.5c.1-.2.1-.3.1-.6c0-.2 0-.3-.1-.5c-.1-.2-.2-.3-.3-.5c-.1-.1-.3-.2-.4-.3c-.2 0-.4-.1-.6-.1c-.2 0-.4.1-.6.1c-.2.1-.3.2-.4.3c-.2.2-.3.3-.3.5c-.1.2-.2.3-.2.5c0 .3.1.4.2.6c0 .2.1.3.3.5c.1.1.2.2.4.2c.2.1.4.2.6.2zm13.8-3.7v.7h-6.2V.9h.8v2.4h5.4zm-7.3 1.9h8.3v.7h-8.3v-.7zm1.9 1.6v2h5.5v.7h-6.4V6.8h.9z" stroke="none" fill="#111111"/></g></svg>