<?xml version="1.0" standalone="no"?><!DOCTYPE svg PUBLIC "-//W3C//DTD SVG 1.1//EN" "http://www.w3.org/Graphics/SVG/1.1/DTD/svg11.dtd"><svg xmlns="http://www.w3.org/2000/svg" version="1.1" width="199.3px" height="23.3px" viewBox="0 -2 199.3 23.3" style="top:-2px"><desc>프로젝트 해시태그 팀별 지원금 (단위: 만 원)</desc><defs/><g id="Polygon113667"><path d="m2.6 5.3v-3H1.2v-.9h6.9v.9H6.8v3h1.3v.8H1.2v-.8h1.4zm3.1 0v-3H3.6v3h2.1zM.5 7.8h8.4v.8H.5v-.8zm13.9 0h3.6v.9H9.7v-.9h3.6V6.2h-2.6V3.3h5.3V2h-5.3v-.8h6.4v2.9h-5.4v1.3h5.6v.8h-2.9v1.6zM25.7.6h1v5.6h-1V.6zm-3 2.3h1.2V.7h1v5.4h-1V3.7h-1.2v-.8zm.7 2.1l-.5.8c-.4-.1-.8-.4-1.1-.7c-.2-.3-.5-.6-.6-.9c-.2.4-.4.7-.7 1.1c-.3.3-.7.5-1.1.7l-.6-.8c.3-.1.6-.3.8-.5c.3-.2.4-.4.6-.6c.2-.3.3-.5.3-.8c.1-.3.2-.5.2-.8c-.05.01 0-.4 0-.4h-1.6v-.8h4.1v.8h-1.5v.4c0 .3 0 .5.1.8c.1.2.2.4.3.7c.2.2.3.4.6.6c.2.2.4.3.7.4zm-3 2.4v-.9h6.3v3.3h-1.1V7.4h-5.2zm15.1-2v.9h-6.4v-5h6.3v.8h-5.2v1.2h5v.9h-5v1.2h5.3zm-7.4 2.4h8.3v.8h-8.3v-.8zM46.2.6h1v9.2h-1V5.2h-1v4.1h-1V.7h1v3.7h1V.6zm-4.1.2v1.3h1.7v.8h-4.5v-.8h1.7V.8h1.1zm-.5 2.6c.3 0 .5.1.8.2c.2.1.4.2.6.4c.2.2.3.4.4.7c.1.2.2.5.2.9c0 .3-.1.6-.2.8c-.1.3-.2.5-.4.7c-.2.2-.4.3-.6.4c-.3.1-.5.2-.8.2c-.3 0-.6-.1-.8-.2c-.3-.1-.5-.2-.7-.4c-.2-.2-.3-.4-.4-.7c-.1-.2-.1-.5-.1-.8c0-.4 0-.7.1-.9c.1-.3.2-.5.4-.7c.2-.2.4-.3.7-.4c.2-.1.5-.2.8-.2zm0 3.4c.3 0 .5-.1.7-.3c.2-.2.3-.6.3-.9c0-.4-.1-.7-.3-1c-.2-.2-.4-.3-.7-.3c-.3 0-.6.1-.8.3c-.2.3-.3.6-.3 1c0 .3.1.7.3.9c.2.2.5.3.8.3zM55 .5h1.1v9.3H55V.5zm-3.1.8v1.5c0 .5.1.9.2 1.3c.1.4.2.8.4 1.1c.3.4.5.7.8 1c.3.3.6.5 1 .7l-.6.8c-.6-.3-1-.6-1.4-1.1c-.4-.5-.7-1-.9-1.7c-.2.7-.5 1.3-.9 1.8c-.4.5-.9.9-1.5 1.2l-.6-.9c.4-.1.7-.4 1-.7c.3-.2.6-.6.8-1c.2-.3.4-.7.5-1.2c.1-.4.1-.8.1-1.3c.05.03 0-1.5 0-1.5h1.1zM64.5.6h1v9.2h-1V5h-1v4.3h-1V.7h1v3.5h1V.6zM59 4.8s.02 1.89 0 1.9h.8c.3 0 .5 0 .8-.1h.7c.2 0 .4-.1.6-.1l.1.8c-.2.1-.5.1-.7.2h-1.7c-.3.1-.6.1-1 .1c.03-.04-.6 0-.6 0v-6h3.7v.8H59v1.6h2.5v.8H59zm14.1-2.3c-.03-.04 0-.2 0-.2h-5.4v-.8h6.4s.02.96 0 1v1.9c0 .4-.1.8-.1 1.2c-.1.4-.1.8-.2 1.3l-1.1-.1c.1-.4.2-.9.2-1.3c.1-.4.1-.7.1-1.1c.1-.3.1-.7.1-1v-.9zm-6.2 5.1h8.3v.9h-8.3v-.9zm17.8-7h1v5.4h-1V.6zm-1 3.9l.1.8c-.3 0-.6.1-.9.1c-.4.1-.7.1-1 .1h-2.5c.01.04-.8 0-.8 0V1.1h4.4v.8h-3.3v1h3.1v.8h-3.1s-.02 1 0 1h2.2c.3-.1.6-.1.9-.1c.3-.1.6-.1.9-.1zm-4 5.1V6.5h6v3.1h-6zm1-2.3v1.5h4V7.3h-4zm11.3-3v.7h-4.3v-4h1.1v1.2h2.1V1h1.1v.8h1.9V.6h1v4.7h-1v-1H92zm1.9-1.7H92v.9h1.9v-.9zm-3 1.6V3h-2.1v1.2h2.1zM90 8.8h5.2v.8h-6.3V7.3h5v-.7h-5v-.9h6v2.3H90v.8zM105.1.6h1v9.2h-1V.6zM102 2.3s-.04.91 0 .9c0 .4 0 .8.1 1.2c.1.3.3.7.5 1c.2.4.5.6.8.9c.3.3.6.5.9.6l-.5.9c-.6-.3-1-.6-1.4-1.1c-.4-.5-.7-1-1-1.6c-.2.6-.5 1.2-.9 1.7c-.4.6-.8.9-1.4 1.2l-.6-.8c.4-.2.7-.4 1-.7c.3-.3.5-.6.7-1c.3-.3.4-.7.5-1.1c.1-.4.2-.8.2-1.2v-.9h-2.1v-.8h5.2v.8h-2zM112.5 6h1.8V.5h1.1v7h-1.1v-.8h-1.8v-.7zm-1.8-1.9c-.4 0-.7 0-.9-.1c-.3-.1-.6-.2-.8-.3c-.2-.1-.3-.3-.4-.5c-.1-.2-.2-.4-.2-.7c0-.2.1-.4.2-.6c.1-.2.2-.4.4-.6c.2-.1.5-.2.8-.3c.2-.1.5-.1.9-.1c.3 0 .6 0 .9.1c.3.1.5.2.7.3c.2.2.4.4.5.6c.1.2.2.4.2.6c0 .3-.1.5-.2.7c-.1.2-.3.4-.5.5c-.2.1-.4.2-.7.3c-.3.1-.6.1-.9.1zm0-2.4c-.4 0-.7 0-1 .2c-.2.2-.3.4-.3.6c0 .3.1.5.3.6c.3.2.6.3 1 .3c.4 0 .7-.1.9-.3c.2-.1.4-.3.4-.6c0-.2-.2-.4-.4-.6c-.2-.2-.5-.2-.9-.2zm-.4 5.6s-.04-1.76 0-1.8c-.5.1-.9.1-1.3.1h-1.2l-.1-.9h2.8c.6 0 1.1-.1 1.6-.1c.5 0 1-.1 1.5-.1l.1.7c-.4.1-.8.1-1.2.2c-.4 0-.8.1-1.2.1c.01-.02 0 1.8 0 1.8h-1zm-.3 1.4h5.6v.9h-6.7V6.9h1.1v1.8zm14-4.3c-.01-.04 1.3 0 1.3 0v.8h-8.4v-.8s6.04-.04 6 0c.2-.6.2-1 .3-1.4V1.9c0-.04-5.2 0-5.2 0v-.9h6.2s.03.71 0 .7v1.2c0 .4-.1.9-.2 1.5zm-6.1 5.2V6.3h6.3v3.3h-6.3zm1.1-2.4v1.6h4.2V7.2H119zm11.8 2.9l-.7.4c-.5-.8-.9-1.6-1.1-2.5c-.3-.8-.4-1.8-.4-2.8c0-1 .1-1.9.4-2.8c.2-.8.6-1.6 1.1-2.4l.7.3c-.4.8-.8 1.6-1 2.4c-.2.8-.3 1.6-.3 2.5c0 .9.1 1.8.3 2.6c.2.8.6 1.6 1 2.3zm8-6.9h1.3v.8h-1.3v3.2h-1.1V.5h1.1v2.7zm-1.9 1.3l.1.8c-.3.1-.6.1-.9.2c-.3 0-.6.1-1 .1h-2.4c.02.04-.7 0-.7 0V1.3h4.1v.9H133s.03 2.57 0 2.6h1.2c.4 0 .7-.1 1-.1c.3 0 .6 0 .8-.1c.3 0 .6-.1.9-.1zm-2.9 2v2.2h5.2v.9H133V6.5h1zM147.3.6h1.1v9.2h-1.1V.6zm-3.5 4.2c-.4 0-.7 0-1-.1c-.3-.1-.5-.3-.7-.4c-.2-.2-.4-.4-.5-.6c-.1-.3-.2-.5-.2-.8c0-.3.1-.6.2-.8c.1-.2.3-.4.5-.6c.2-.2.4-.3.7-.4c.3-.1.6-.2 1-.2c.3 0 .6.1.9.2c.3.1.6.2.8.4c.2.2.4.4.5.6c.1.2.2.5.2.8c0 .3-.1.5-.2.8c-.1.2-.3.4-.5.6c-.2.1-.5.3-.8.4c-.3.1-.6.1-.9.1zm0-3c-.4 0-.8.1-1 .3c-.3.2-.4.5-.4.8c0 .3.1.6.4.8c.2.2.6.2 1 .2c.4 0 .7 0 1-.2c.2-.2.3-.5.3-.8c0-.3-.1-.6-.3-.8c-.3-.2-.6-.3-1-.3zm2.9 3.4l.1.7c-.4.1-.8.2-1.2.2c-.4.1-.8.1-1.3.2c.05-.05 0 3.2 0 3.2h-1V6.3H142c-.3.1-.7.1-1.1.1l-.1-.9h1.3c.5 0 1 0 1.5-.1c.6 0 1.1 0 1.6-.1c.5 0 1.1-.1 1.5-.1zm4.7-2.3v1.3h-1.2V2.9h1.2zm0 4.2v1.3h-1.2V7.1h1.2zm10.3-3.8h1.3v.9h-1.3v3.1h-1.1V.5h1.1v2.8zm-2.6-2v4.4h-4.3V1.3h4.3zm-1 3.5V2.2h-2.2v2.6h2.2zm-1.2 1.8v2.1h5.2v.9h-6.2v-3h1zm13.6-.6h1.8V.5h1.1v7h-1.1v-.8h-1.8v-.7zm-1.8-1.9c-.3 0-.6 0-.9-.1c-.3-.1-.5-.2-.7-.3c-.2-.1-.4-.3-.5-.5c-.1-.2-.2-.4-.2-.7c0-.2.1-.4.2-.6c.1-.2.3-.4.5-.6c.2-.1.4-.2.7-.3c.3-.1.6-.1.9-.1c.3 0 .7 0 .9.1c.3.1.6.2.7.3c.2.2.4.4.5.6c.1.2.2.4.2.6c0 .3-.1.5-.2.7c-.1.2-.3.4-.5.5c-.1.1-.4.2-.7.3c-.2.1-.6.1-.9.1zm0-2.4c-.4 0-.7 0-.9.2c-.3.2-.4.4-.4.6c0 .3.1.5.4.6c.2.2.5.3.9.3c.4 0 .7-.1.9-.3c.3-.1.4-.3.4-.6c0-.2-.1-.4-.4-.6c-.2-.2-.5-.2-.9-.2zm-.4 5.6s-.01-1.76 0-1.8c-.5.1-.9.1-1.3.1h-1.1l-.2-.9h2.9c.5 0 1-.1 1.5-.1c.5 0 1-.1 1.5-.1l.1.7c-.4.1-.8.1-1.2.2c-.4 0-.8.1-1.2.1c.04-.02 0 1.8 0 1.8h-1zm-.3 1.4h5.6v.9H167V6.9h1v1.8zm7.6 1.8l-.7-.4c.4-.7.8-1.5 1-2.3c.2-.8.3-1.7.3-2.6c0-.9-.1-1.7-.3-2.5c-.2-.8-.6-1.6-1-2.4l.7-.3c.5.8.9 1.6 1.1 2.4c.3.9.4 1.8.4 2.8c0 1-.1 2-.4 2.8c-.2.9-.6 1.7-1.1 2.5z" stroke="none" fill="#949596"/></g></svg>