<?xml version="1.0" standalone="no"?><!DOCTYPE svg PUBLIC "-//W3C//DTD SVG 1.1//EN" "http://www.w3.org/Graphics/SVG/1.1/DTD/svg11.dtd"><svg xmlns="http://www.w3.org/2000/svg" version="1.1" width="121px" height="28.3px" viewBox="0 -4 121 28.3" style="top:-4px"><desc>스텝 01@스타트A</desc><defs/><g id="Polygon57635"><path d="m12 9.3c0-3.6 2.6-6.4 6.2-6.4c2.4 0 4.4 1.3 5.4 3.2l-1.3.9c-.8-1.5-2.2-2.5-4.1-2.5c-2.7 0-4.5 2.1-4.5 4.8c0 2.7 1.8 4.8 4.5 4.8c1.9 0 3.3-1 4.1-2.5l1.3.8c-1 2-3 3.2-5.4 3.2c-3.6 0-6.2-2.8-6.2-6.3zm12.8-6.7h1.6v12.8h-1.6V2.6zm3.6 3.8h1.6v9h-1.6v-9zm-.1-4h1.8v1.9h-1.8V2.4zm3.1 8.5c0-2.6 1.8-4.7 4.6-4.7c1.8 0 3.2.8 4 2.3l-1.2.8c-.6-1-1.5-1.6-2.7-1.6c-1.8 0-3.1 1.2-3.1 3.2c0 2 1.3 3.2 3.1 3.2c1.2 0 2.1-.6 2.7-1.6l1.2.8c-.8 1.4-2.2 2.3-4 2.3c-2.8 0-4.6-2.1-4.6-4.7zm9.8-8.3h1.6v8L47 6.4h1.9v.1l-3.6 3.6l4.1 5.2v.1h-1.9l-3.2-4.2l-1.5 1.5v2.7h-1.6V2.6zm13.1 9.6c.02.03 0-4.5 0-4.5h-1.5V6.4h1.6V4h1.5v2.4h2.3v1.3h-2.3s.04 4.59 0 4.6c0 1.3.6 1.8 2 1.8h.3s-.04 1.32 0 1.3c-.2.1-.5.1-.8.1c-2 0-3.1-1-3.1-3.3zm4.5-1.3c0-2.6 1.7-4.7 4.6-4.7c2.9 0 4.7 2.1 4.7 4.7c0 2.6-1.8 4.7-4.7 4.7c-2.9 0-4.6-2.1-4.6-4.7zm7.6 0c0-2-1.3-3.2-3-3.2c-1.7 0-3 1.2-3 3.2c0 2 1.3 3.2 3 3.2c1.7 0 3-1.2 3-3.2zm5.8 1.9l1.2-1.1c.7 1.2 1.9 2.4 3.9 2.4c1.8 0 2.8-1.1 2.8-2.3c0-1.1-.9-1.7-2.4-1.9l-1.1-.2c-2.1-.3-3.4-1.5-3.4-3.3c0-1.9 1.5-3.5 4.2-3.5c1.8 0 3.3.9 4.1 2.1l-1.1 1.1c-.8-1.1-1.9-1.6-3.1-1.6c-1.5 0-2.4.8-2.4 1.8c0 1 .7 1.6 1.9 1.7l1.2.2c2.4.4 3.8 1.6 3.8 3.6c0 2.2-1.8 3.8-4.5 3.8c-2.7 0-4.3-1.5-5.1-2.8zm11.5-.6c.02.03 0-4.5 0-4.5h-1.5V6.4h1.6V4h1.5v2.4h2.3v1.3h-2.3s.04 4.59 0 4.6c0 1.3.6 1.8 2 1.8h.3s-.05 1.32 0 1.3c-.2.1-.5.1-.8.1c-2 0-3.1-1-3.1-3.3zm11.8 1.9c-.7.9-1.8 1.5-3 1.5c-2.6 0-4.4-1.9-4.4-4.7c0-2.8 1.8-4.7 4.4-4.7c1.2 0 2.3.6 3 1.5c.04-.04 0-1.3 0-1.3h1.7v9h-1.7s.04-1.28 0-1.3zm0-1.6V9.3c-.4-1-1.5-1.6-2.7-1.6c-1.7 0-3.1 1.2-3.1 3.2c0 2 1.4 3.2 3.1 3.2c1.2 0 2.3-.6 2.7-1.6zm3.6-6.1h1.6s.03 1.53 0 1.5c.5-1 1.5-1.7 2.9-1.7c-.03-.02.2 0 .2 0c0 0-.03 1.55 0 1.6c-1.5 0-2.6.6-3.1 2c.03-.02 0 5.6 0 5.6h-1.6v-9zm6.3 5.8c-.03.03 0-4.5 0-4.5h-1.6V6.4h1.6V4h1.6v2.4h2.2v1.3H107v4.6c0 1.3.6 1.8 1.9 1.8h.3v1.3c-.2.1-.5.1-.7.1c-2.1 0-3.1-1-3.1-3.3z" stroke="none" fill="#000"/></g></svg>