<?xml version="1.0" standalone="no"?><!DOCTYPE svg PUBLIC "-//W3C//DTD SVG 1.1//EN" "http://www.w3.org/Graphics/SVG/1.1/DTD/svg11.dtd"><svg xmlns="http://www.w3.org/2000/svg" version="1.1" width="284.2px" height="74.1px" viewBox="0 -5 284.2 74.1" style="top:-5px"><desc>스텝 04-4@2타이틀</desc><defs/><g id="Polygon59642"><path d="m1.3 26.2h2.4v12.2H1.3V26.2zm4.2 2.9h2.3s.03 1.33 0 1.3c.5-.8 1.5-1.5 3-1.5c2.4 0 3.5 1.7 3.5 4v5.5H12v-5.2c0-1.5-.7-2.3-2-2.3c-1.2 0-1.9.8-2.2 1.7c.03-.03 0 5.8 0 5.8H5.5v-9.3zm11 5.8V31h-1.6v-1.9h1.7v-2.3h2.2v2.3h2.1v1.9h-2.1s-.03 3.96 0 4c0 1.2.5 1.6 1.7 1.6c-.02-.04.4 0 .4 0c0 0 .02 1.8 0 1.8c-.3.1-.7.1-1 .1c-2.3 0-3.4-1.1-3.4-3.6zm4.9-1.1c0-2.9 2-4.9 4.7-4.9c2.7 0 4.4 1.9 4.4 4.6c0 .3 0 .7-.1 1.1h-6.7c.2 1.2 1.1 2.1 2.7 2.1c1.1 0 2.1-.7 2.6-1.4l1.3 1.5c-.9 1-2.2 1.8-4 1.8c-3 0-4.9-2.1-4.9-4.8zm2.3-1.1h4.6c-.2-1.2-1-1.9-2.2-1.9c-1.2 0-2.1.7-2.4 1.9zm7.9-3.6h2.3v1.5c.5-1 1.4-1.7 2.7-1.7h.2s.03 2.19 0 2.2c-1.3 0-2.5.4-2.9 1.8v5.5h-2.3v-9.3zm6 0h2.3v9.3h-2.3v-9.3zm-.1-3.9h2.4v2.4h-2.4v-2.4zm3.5 8.6c0-2.6 1.7-4.9 4.9-4.9c3.2 0 4.9 2.3 4.9 4.9c0 2.5-1.7 4.9-4.9 4.9c-3.2 0-4.9-2.4-4.9-4.9zm2.3 0c0 1.7 1.1 2.8 2.6 2.8c1.5 0 2.6-1.1 2.6-2.8c0-1.7-1.1-2.9-2.6-2.9c-1.5 0-2.6 1.2-2.6 2.9zm8.6-4.7h2.3s-.02 1.47 0 1.5c.5-1 1.4-1.7 2.6-1.7h.3s.01 2.19 0 2.2c-1.4 0-2.5.4-2.9 1.8c-.02-.01 0 5.5 0 5.5h-2.3v-9.3zm9.5-2.9h2.4v10.1h5.9v2.1h-8.3V26.2zm9.1 2.9h2.3v9.3h-2.3v-9.3zm0-3.9h2.3v2.4h-2.3v-2.4zm3.4 8.1c0-2.6 1.7-4.4 4.3-4.4c1.1 0 2.1.5 2.8 1.3c-.04.01 0-1.1 0-1.1h2.2s.05 7.72 0 7.7c0 3.4-2.3 4.9-4.8 4.9c-2.3 0-3.6-.8-4.3-1.8l1.4-1.5c.6.8 1.4 1.4 2.8 1.4c1.3 0 2.7-.8 2.7-2.8v-.5c-.7.7-1.7 1.3-2.8 1.3c-2.6 0-4.3-1.8-4.3-4.5zm7.1 1.2v-2.3c-.5-.8-1.3-1.3-2.3-1.3c-1.5 0-2.5 1-2.5 2.4c0 1.5 1 2.5 2.5 2.5c1 0 1.8-.5 2.3-1.3zm3.8-8.9h2.3s.02 4.83 0 4.8c.5-.8 1.5-1.5 3-1.5c2.4 0 3.5 1.7 3.5 4c-.02.05 0 5.5 0 5.5h-2.3v-5.2c0-1.5-.7-2.3-2.1-2.3c-1.2 0-1.9.9-2.1 1.7c.02-.03 0 5.8 0 5.8h-2.3V25.6zm10.8 9.3c.05-.05 0-3.9 0-3.9h-1.5v-1.9h1.6v-2.3h2.2v2.3h2.2v1.9h-2.2s.04 3.96 0 4c0 1.2.6 1.6 1.7 1.6c.05-.04.5 0 .5 0c0 0-.02 1.8 0 1.8c-.3.1-.7.1-1 .1c-2.3 0-3.5-1.1-3.5-3.6zm4.7 1.9l1.2-1.4c.6.8 1.7 1.4 2.8 1.4c1 0 1.7-.4 1.7-1.1c0-.6-.6-.9-1.5-1l-.8-.1c-1.7-.3-2.8-1.3-2.8-2.8c0-1.6 1.4-2.9 3.7-2.9c1.5 0 2.6.6 3.3 1.4l-1.2 1.5c-.6-.7-1.3-1-2.2-1c-.8 0-1.3.4-1.3.9c0 .5.4.7 1 .8l.9.1c2.1.4 3.1 1.4 3.1 3c0 1.6-1.4 3.1-4 3.1c-1.7 0-3.1-.9-3.9-1.9z" stroke="none" fill="#fff"/></g><g id="Polygon59641"><path d="m1.3 2.2h2.4v10.1h5.9v2.1H1.3V2.2zm9.4 0h8.6v2H13v3h5.4v2H13v3.1h6.3v2.1h-8.6V2.2zm10.1 0s4.96-.04 5 0c3.5 0 6 2.1 6 6.1c0 3.9-2.5 6.1-6 6.1h-5V2.2zm2.3 2v8.2s2.53-.03 2.5 0c2.4 0 3.8-1.5 3.8-4.1c0-2.7-1.4-4.1-3.8-4.1c.03-.01-2.5 0-2.5 0z" stroke="none" fill="#fff"/></g></svg>