<?xml version="1.0" standalone="no"?><!DOCTYPE svg PUBLIC "-//W3C//DTD SVG 1.1//EN" "http://www.w3.org/Graphics/SVG/1.1/DTD/svg11.dtd"><svg xmlns="http://www.w3.org/2000/svg" version="1.1" width="364px" height="74.1px" viewBox="0 -5 364 74.1" style="top:-5px"><desc>스텝 02-1@2타이틀</desc><defs/><g id="Polygon58038"><path d="m3.1 28.8L.8 30l-.8-1.8l3.7-2h1.7v12.2H3.1v-9.6zM16.8 32c0 4.2-2.2 6.7-5.7 6.7c-1.9 0-3.3-1-4.1-2.2l1.5-1.4c.6.9 1.5 1.4 2.6 1.4c1.8 0 3-1.1 3.3-3.3c-.8.8-1.8 1.3-3.2 1.3c-2.3 0-4.3-1.6-4.3-4.2c0-2.6 2.2-4.4 4.8-4.4c3.3 0 5.1 2.6 5.1 6.1zm-7.5-1.8c0 1.2.9 2.2 2.4 2.2c1.4 0 2.3-1 2.3-2.2c0-1.2-.9-2.2-2.3-2.2c-1.5 0-2.4 1-2.4 2.2zm8.6 1.8h5.3v1.9h-5.3V32zm6.8-2.9h2.3v9.3h-2.3v-9.3zm-.1-3.9h2.4v2.4h-2.4v-2.4zm4 3.9h2.3v1.3c.5-.8 1.5-1.5 2.9-1.5c2.4 0 3.5 1.7 3.5 4c.05.05 0 5.5 0 5.5h-2.2s-.04-5.2 0-5.2c0-1.5-.7-2.3-2.1-2.3c-1.1 0-1.9.8-2.1 1.7v5.8h-2.3v-9.3zm9.7 4.7c0-2.6 1.8-4.9 4.9-4.9c1.8 0 3.2.9 4.1 2.3l-1.6 1.3c-.5-.9-1.3-1.6-2.4-1.6c-1.6 0-2.6 1.1-2.6 2.9c0 1.7 1 2.8 2.6 2.8c1.1 0 1.9-.6 2.4-1.5l1.6 1.2c-.9 1.5-2.3 2.3-4.1 2.3c-3.1 0-4.9-2.3-4.9-4.8zm9.9-8.2h2.3v4.8c.5-.8 1.5-1.5 2.9-1.5c2.5 0 3.6 1.7 3.6 4c-.03.05 0 5.5 0 5.5h-2.3s-.02-5.2 0-5.2c0-1.5-.7-2.3-2.1-2.3c-1.2 0-1.9.9-2.1 1.7v5.8h-2.3V25.6zM62.6 31h-1.5v-1.9h1.5s-.02-.51 0-.5c0-1.8 1-3.1 3.2-3.1h.9v1.9s-.41-.03-.4 0c-.9 0-1.4.3-1.4 1.2c-.03.01 0 .5 0 .5h1.8v1.9h-1.8v7.4h-2.3V31zm4.2 2.8c0-2.6 1.7-4.9 4.9-4.9c3.2 0 4.9 2.3 4.9 4.9c0 2.5-1.7 4.9-4.9 4.9c-3.2 0-4.9-2.4-4.9-4.9zm2.3 0c0 1.7 1.1 2.8 2.6 2.8c1.5 0 2.6-1.1 2.6-2.8c0-1.7-1.1-2.9-2.6-2.9c-1.5 0-2.6 1.2-2.6 2.9zm8.6-4.7h2.3s-.03 1.47 0 1.5c.5-1 1.4-1.7 2.6-1.7h.3s.01 2.19 0 2.2c-1.4 0-2.5.4-2.9 1.8c-.03-.01 0 5.5 0 5.5h-2.3v-9.3zm5.2 4.2c0-2.6 1.6-4.4 4.2-4.4c1.2 0 2.2.5 2.8 1.3c.01.01 0-1.1 0-1.1h2.3v7.7c0 3.4-2.4 4.9-4.9 4.9c-2.2 0-3.5-.8-4.2-1.8l1.3-1.5c.6.8 1.4 1.4 2.8 1.4c1.4 0 2.7-.8 2.7-2.8v-.5c-.6.7-1.6 1.3-2.8 1.3c-2.6 0-4.2-1.8-4.2-4.5zm7 1.2v-2.3c-.4-.8-1.2-1.3-2.2-1.3c-1.6 0-2.5 1-2.5 2.4c0 1.5.9 2.5 2.5 2.5c1 0 1.8-.5 2.2-1.3zm3.4-.7c0-2.9 1.9-4.9 4.6-4.9c2.7 0 4.5 1.9 4.5 4.6c0 .3-.1.7-.1 1.1h-6.7c.2 1.2 1.1 2.1 2.7 2.1c1.1 0 2.1-.7 2.6-1.4l1.3 1.5c-.9 1-2.3 1.8-4 1.8c-3 0-4.9-2.1-4.9-4.8zm2.3-1.1h4.5c-.1-1.2-.9-1.9-2.2-1.9c-1.2 0-2 .7-2.3 1.9zm14.7 4.6c-.6.8-1.7 1.3-2.9 1.3c-2.5 0-4.4-1.9-4.4-4.8c0-3 1.9-4.9 4.4-4.9c1.2 0 2.3.5 2.9 1.3c.04.01 0-4.6 0-4.6h2.3v12.8h-2.3s.04-1.06 0-1.1zm0-2.1v-2.8c-.4-.9-1.3-1.5-2.4-1.5c-1.5 0-2.6 1.1-2.6 2.9c0 1.8 1.1 2.8 2.6 2.8c1.1 0 2-.5 2.4-1.4zm6.3-6.1h2.4l1.9 6.2l2.1-6.2h2.4l2.1 6.2l1.9-6.2h2.4l-3 9.3h-2.3l-2.3-6.4l-2.3 6.4h-2.3l-3-9.3zm15.9-3.5h2.2s.05 4.83 0 4.8c.5-.8 1.5-1.5 3-1.5c2.4 0 3.5 1.7 3.5 4v5.5h-2.3s.02-5.2 0-5.2c0-1.5-.7-2.3-2-2.3c-1.3 0-2 .9-2.2 1.7c.05-.03 0 5.8 0 5.8h-2.2V25.6zm9.7 8.2c0-2.9 2-4.9 4.7-4.9c2.7 0 4.4 1.9 4.4 4.6c0 .3 0 .7-.1 1.1h-6.7c.3 1.2 1.1 2.1 2.7 2.1c1.2 0 2.1-.7 2.6-1.4l1.3 1.5c-.9 1-2.2 1.8-4 1.8c-3 0-4.9-2.1-4.9-4.8zm2.4-1.1h4.5c-.2-1.2-1-1.9-2.2-1.9c-1.2 0-2 .7-2.3 1.9zm7.3 1.1c0-2.9 2-4.9 4.7-4.9c2.7 0 4.4 1.9 4.4 4.6c0 .3 0 .7-.1 1.1h-6.7c.3 1.2 1.1 2.1 2.7 2.1c1.2 0 2.1-.7 2.6-1.4l1.3 1.5c-.9 1-2.2 1.8-4 1.8c-3 0-4.9-2.1-4.9-4.8zm2.4-1.1h4.5c-.2-1.2-1-1.9-2.2-1.9c-1.2 0-2 .7-2.3 1.9zm7.8-7.1h2.3v12.8h-2.3V25.6zm3.2 11.2l1.2-1.4c.6.8 1.7 1.4 2.8 1.4c.9 0 1.6-.4 1.6-1.1c0-.6-.5-.9-1.4-1l-.8-.1c-1.8-.3-2.8-1.3-2.8-2.8c0-1.6 1.4-2.9 3.7-2.9c1.5 0 2.6.6 3.3 1.4l-1.3 1.5c-.5-.7-1.3-1-2.1-1c-.9 0-1.3.4-1.3.9c0 .5.3.7 1 .8l.8.1c2.2.4 3.2 1.4 3.2 3c0 1.6-1.4 3.1-4 3.1c-1.8 0-3.1-.9-3.9-1.9zm11.7-1.7c0-1.8 1.1-2.9 2.9-3.6c-.6-.7-.9-1.4-.9-2.3c0-1.7 1.4-3.3 3.6-3.3c2 0 3.5 1.4 3.5 3.1c0 1.6-1.2 2.6-2.8 3.2c-.03-.05 1.8 1.9 1.8 1.9l2.2-2.5l1.5 1.3l-2.4 2.7l2.6 2.7v.1h-3s-1.14-1.28-1.1-1.3c-1.1 1-2.4 1.6-3.9 1.6c-2.5 0-4-1.6-4-3.6zm6.6.6l-2.5-2.8c-1.1.4-1.9 1-1.9 2c0 1.1.8 1.8 1.9 1.8c.9 0 1.8-.4 2.5-1zm-1.6-4.9c1.4-.4 1.9-1 1.9-1.8c0-.5-.5-1.2-1.3-1.2c-1 0-1.4.7-1.4 1.3c0 .6.3 1 .8 1.7zm10.1 5.1l1.6-1.5c.7 1.1 1.9 2.1 3.7 2.1c1.5 0 2.3-.7 2.3-1.7c0-.7-.5-1.3-2-1.5l-1-.2c-2.2-.3-3.6-1.6-3.6-3.5c0-2 1.7-3.7 4.4-3.7c1.9 0 3.4.8 4.3 2l-1.5 1.5c-.7-.9-1.8-1.4-2.9-1.4c-1.2 0-1.9.7-1.9 1.4c0 .7.5 1.2 1.6 1.4l1 .2c2.6.3 4 1.6 4 3.7c0 2.3-1.9 4-4.7 4c-2.8 0-4.4-1.5-5.3-2.8zm11.2-6.8h2.3v9.3h-2.3v-9.3zm-.1-3.9h2.4v2.4h-2.4v-2.4zm10.9 12.1c-.7.8-1.7 1.3-2.9 1.3c-2.6 0-4.5-1.9-4.5-4.8c0-3 1.9-4.9 4.5-4.9c1.2 0 2.2.5 2.9 1.3c-.05.01 0-4.6 0-4.6h2.2v12.8h-2.2s-.05-1.06 0-1.1zm0-2.1v-2.8c-.5-.9-1.4-1.5-2.4-1.5c-1.5 0-2.7 1.1-2.7 2.9c0 1.8 1.2 2.8 2.7 2.8c1 0 1.9-.5 2.4-1.4zm3.4-1.4c0-2.9 1.9-4.9 4.6-4.9c2.7 0 4.5 1.9 4.5 4.6c0 .3-.1.7-.1 1.1h-6.7c.2 1.2 1.1 2.1 2.7 2.1c1.1 0 2.1-.7 2.6-1.4l1.3 1.5c-.9 1-2.3 1.8-4 1.8c-3 0-4.9-2.1-4.9-4.8zm2.3-1.1h4.5c-.1-1.2-.9-1.9-2.2-1.9c-1.2 0-2 .7-2.3 1.9zm10.4 3.2l1.5-1.5c.7 1.1 1.9 2.1 3.7 2.1c1.5 0 2.3-.7 2.3-1.7c0-.7-.5-1.3-1.9-1.5l-1.1-.2c-2.2-.3-3.6-1.6-3.6-3.5c0-2 1.7-3.7 4.4-3.7c1.9 0 3.4.8 4.3 2l-1.5 1.5c-.7-.9-1.7-1.4-2.8-1.4c-1.3 0-2 .7-2 1.4c0 .7.5 1.2 1.6 1.4l1.1.2c2.5.3 4 1.6 4 3.7c0 2.3-2 4-4.8 4c-2.8 0-4.4-1.5-5.2-2.8zm11.1-6.8h2.3v9.3h-2.3v-9.3zm-.1-3.9h2.4v2.4h-2.4v-2.4zm4 .4h2.3v12.8h-2.3V25.6zm3.9 0h2.3v12.8h-2.3V25.6zm7.5.6h3.2l3.6 9.2l3.7-9.2h3.1v12.2h-2.3v-8.7l-3.4 8.7h-2.1l-3.4-8.7v8.7h-2.4V26.2zm14.9 7.6c0-2.6 1.7-4.9 5-4.9c3.2 0 4.9 2.3 4.9 4.9c0 2.5-1.7 4.9-4.9 4.9c-3.3 0-5-2.4-5-4.9zm2.4 0c0 1.7 1.1 2.8 2.6 2.8c1.5 0 2.5-1.1 2.5-2.8c0-1.7-1-2.9-2.5-2.9c-1.5 0-2.6 1.2-2.6 2.9zm8.6-8.2h2.3v12.8h-2.3V25.6zm10.7 11.7c-.6.8-1.6 1.3-2.8 1.3c-2.6 0-4.5-1.9-4.5-4.8c0-3 1.9-4.9 4.5-4.9c1.2 0 2.2.5 2.8 1.3c.05.01 0-4.6 0-4.6h2.3v12.8h-2.3s.05-1.06 0-1.1zm0-2.1v-2.8c-.4-.9-1.3-1.5-2.3-1.5c-1.5 0-2.7 1.1-2.7 2.9c0 1.8 1.2 2.8 2.7 2.8c1 0 1.9-.5 2.3-1.4zm4-6.1h2.3v9.3h-2.3v-9.3zm-.1-3.9h2.4v2.4h-2.4v-2.4zm4 3.9h2.3s-.02 1.33 0 1.3c.5-.8 1.5-1.5 2.9-1.5c2.4 0 3.5 1.7 3.5 4c.05.05 0 5.5 0 5.5h-2.2s-.04-5.2 0-5.2c0-1.5-.7-2.3-2.1-2.3c-1.1 0-1.9.8-2.1 1.7c-.02-.03 0 5.8 0 5.8h-2.3v-9.3zm9.8 4.2c0-2.6 1.6-4.4 4.2-4.4c1.2 0 2.1.5 2.8 1.3c-.01.01 0-1.1 0-1.1h2.3s-.02 7.72 0 7.7c0 3.4-2.4 4.9-4.9 4.9c-2.3 0-3.6-.8-4.3-1.8l1.4-1.5c.6.8 1.4 1.4 2.8 1.4c1.3 0 2.7-.8 2.7-2.8v-.5c-.7.7-1.6 1.3-2.8 1.3c-2.6 0-4.2-1.8-4.2-4.5zm7 1.2v-2.3c-.4-.8-1.3-1.3-2.3-1.3c-1.5 0-2.4 1-2.4 2.4c0 1.5.9 2.5 2.4 2.5c1 0 1.9-.5 2.3-1.3zm3.1 2.3l1.2-1.4c.6.8 1.7 1.4 2.8 1.4c1 0 1.7-.4 1.7-1.1c0-.6-.6-.9-1.5-1l-.8-.1c-1.7-.3-2.8-1.3-2.8-2.8c0-1.6 1.4-2.9 3.7-2.9c1.5 0 2.6.6 3.3 1.4l-1.2 1.5c-.6-.7-1.3-1-2.2-1c-.8 0-1.3.4-1.3.9c0 .5.4.7 1 .8l.9.1c2.1.4 3.1 1.4 3.1 3c0 1.6-1.4 3.1-4 3.1c-1.8 0-3.1-.9-3.9-1.9z" stroke="none" fill="#fff"/></g><g id="Polygon58037"><path d="m1.3 2.2h2.1l6.6 8.3V2.2h2.4v12.2h-2.1L3.7 6v8.4H1.3V2.2zM14.1 8h5.3v1.9h-5.3V8zm7-5.8h8.7v2h-6.3v3h5.4v2h-5.4v3.1h6.3v2.1h-8.7V2.2zM30 14.3l3.3-4.7l-3-4.4v-.1h2.5l2 3.1l2.1-3.1h2.5v.1l-3 4.4l3.3 4.7v.1h-2.6l-2.3-3.3l-2.2 3.3H30v-.1zm9.2-4.5c0-2.6 1.7-4.9 4.8-4.9c1.9 0 3.2.9 4.1 2.3l-1.6 1.3c-.5-.9-1.3-1.6-2.4-1.6c-1.6 0-2.6 1.1-2.6 2.9c0 1.7 1 2.8 2.6 2.8c1.1 0 1.9-.6 2.4-1.5l1.6 1.2c-.9 1.5-2.2 2.3-4.1 2.3c-3.1 0-4.8-2.3-4.8-4.8zM49 1.6h2.3v12.8H49V1.6zm12.6 12.8h-2.3s.03-1.3 0-1.3c-.5.8-1.5 1.5-2.9 1.5c-2.4 0-3.5-1.6-3.5-4c-.04-.02 0-5.5 0-5.5h2.3s-.05 5.23 0 5.2c0 1.5.7 2.3 2 2.3c1.1 0 1.9-.8 2.1-1.6c.03-.04 0-5.9 0-5.9h2.3v9.3zm.8-1.6l1.3-1.4c.6.8 1.6 1.4 2.7 1.4c1 0 1.7-.4 1.7-1.1c0-.6-.5-.9-1.4-1l-.8-.1c-1.8-.3-2.8-1.3-2.8-2.8c0-1.6 1.4-2.9 3.7-2.9c1.4 0 2.6.6 3.2 1.4l-1.2 1.5c-.6-.7-1.3-1-2.1-1c-.9 0-1.3.4-1.3.9c0 .5.3.7 1 .8l.8.1c2.2.4 3.2 1.4 3.2 3c0 1.6-1.4 3.1-4.1 3.1c-1.7 0-3-.9-3.9-1.9zm9.1-7.7h2.2v9.3h-2.2V5.1zm-.1-3.9h2.4v2.4h-2.4V1.2zm3 3.9h2.4l2.5 6.5l2.5-6.5h2.4l-3.8 9.3h-2.3l-3.7-9.3zM84 9.8c0-2.9 1.9-4.9 4.6-4.9c2.7 0 4.5 1.9 4.5 4.6c0 .3-.1.7-.1 1.1h-6.7c.2 1.2 1.1 2.1 2.7 2.1c1.1 0 2.1-.7 2.6-1.4l1.3 1.5c-.9 1-2.3 1.8-4 1.8c-3 0-4.9-2.1-4.9-4.8zm2.3-1.1h4.5c-.1-1.2-.9-1.9-2.2-1.9c-1.2 0-2 .7-2.3 1.9zm11.5-6.5h2.3v5h6.1v-5h2.3v12.2h-2.3V9.2h-6.1v5.2h-2.3V2.2zm12.6 2.9h2.3v9.3h-2.3V5.1zm-.1-3.9h2.4v2.4h-2.4V1.2zm3.5 8.1c0-2.6 1.6-4.4 4.2-4.4c1.2 0 2.2.5 2.8 1.3c.03.01 0-1.1 0-1.1h2.3s.02 7.72 0 7.7c0 3.4-2.3 4.9-4.8 4.9c-2.3 0-3.6-.8-4.3-1.8l1.4-1.5c.6.8 1.4 1.4 2.7 1.4c1.4 0 2.7-.8 2.7-2.8v-.5c-.6.7-1.6 1.3-2.8 1.3c-2.6 0-4.2-1.8-4.2-4.5zm7 1.2V8.2c-.4-.8-1.2-1.3-2.2-1.3c-1.5 0-2.5 1-2.5 2.4c0 1.5 1 2.5 2.5 2.5c1 0 1.8-.5 2.2-1.3zm3.9-8.9h2.3v4.8c.5-.8 1.5-1.5 2.9-1.5c2.4 0 3.5 1.7 3.5 4c.05.05 0 5.5 0 5.5h-2.2s-.04-5.2 0-5.2c0-1.5-.7-2.3-2.1-2.3c-1.2 0-1.9.9-2.1 1.7v5.8h-2.3V1.6zM134.9 8h5.2v1.9h-5.2V8zm6.7-2.9h2.3s-.01 1.13 0 1.1c.7-.7 1.7-1.3 2.9-1.3c2.6 0 4.5 1.9 4.5 4.9c0 2.9-1.9 4.8-4.5 4.8c-1.2 0-2.2-.5-2.9-1.3v4.2h-2.3V5.1zm7.3 4.7c0-1.8-1.1-2.9-2.6-2.9c-1 0-2 .6-2.4 1.5v2.8c.4.9 1.4 1.4 2.4 1.4c1.5 0 2.6-1 2.6-2.8zm3 0c0-2.9 1.9-4.9 4.6-4.9c2.7 0 4.5 1.9 4.5 4.6c0 .3-.1.7-.1 1.1h-6.7c.2 1.2 1.1 2.1 2.7 2.1c1.1 0 2.1-.7 2.6-1.4l1.3 1.5c-.9 1-2.3 1.8-4 1.8c-3 0-4.9-2.1-4.9-4.8zm2.3-1.1h4.5c-.1-1.2-.9-1.9-2.2-1.9c-1.2 0-2 .7-2.3 1.9zm7.9-3.6h2.3s-.05 1.47 0 1.5c.5-1 1.4-1.7 2.6-1.7h.3s-.01 2.19 0 2.2c-1.4 0-2.5.4-2.9 1.8c-.05-.01 0 5.5 0 5.5h-2.3V5.1zm6.7 1.9h-1.4V5.1h1.4v-.5c0-1.8 1.1-3.1 3.2-3.1h.9v1.9s-.39-.03-.4 0c-.9 0-1.4.3-1.4 1.2v.5h1.8v1.9h-1.8v7.4h-2.3V7zm4.2 2.8c0-2.6 1.7-4.9 4.9-4.9c3.2 0 4.9 2.3 4.9 4.9c0 2.5-1.7 4.9-4.9 4.9c-3.2 0-4.9-2.4-4.9-4.9zm2.3 0c0 1.7 1.1 2.8 2.6 2.8c1.5 0 2.6-1.1 2.6-2.8c0-1.7-1.1-2.9-2.6-2.9c-1.5 0-2.6 1.2-2.6 2.9zm8.6-4.7h2.3v1.5c.5-1 1.4-1.7 2.7-1.7h.2s.02 2.19 0 2.2c-1.3 0-2.5.4-2.9 1.8v5.5h-2.3V5.1zm18.6 4.1c0-1.5-.6-2.3-2-2.3c-1.1 0-1.8.8-2 1.7c-.04-.03 0 5.8 0 5.8h-2.3s-.02-5.2 0-5.2c0-1.5-.7-2.3-2-2.3c-1.1 0-1.8.8-2.1 1.7c.05-.03 0 5.8 0 5.8h-2.2V5.1h2.2s.05 1.33 0 1.3c.6-.8 1.5-1.5 2.9-1.5c1.5 0 2.5.7 3 1.8c.7-1.1 1.7-1.8 3.3-1.8c2.4 0 3.5 1.7 3.5 4c-.02.05 0 5.5 0 5.5h-2.3V9.2zm10.7 4.1c-.7.8-1.7 1.3-2.9 1.3c-2.6 0-4.5-1.9-4.5-4.8c0-3 1.9-4.9 4.5-4.9c1.2 0 2.2.5 2.9 1.3c-.05.01 0-1.1 0-1.1h2.2v9.3h-2.2s-.05-1.06 0-1.1zm0-2.1V8.4c-.5-.9-1.4-1.5-2.4-1.5c-1.5 0-2.7 1.1-2.7 2.9c0 1.8 1.2 2.8 2.7 2.8c1 0 1.9-.5 2.4-1.4zm3.9-6.1h2.3s-.04 1.33 0 1.3c.5-.8 1.5-1.5 2.9-1.5c2.4 0 3.5 1.7 3.5 4c.02.05 0 5.5 0 5.5h-2.3s.04-5.2 0-5.2c0-1.5-.7-2.3-2-2.3c-1.1 0-1.9.8-2.1 1.7c-.04-.03 0 5.8 0 5.8h-2.3V5.1zm9.7 4.7c0-2.6 1.8-4.9 4.8-4.9c1.9 0 3.3.9 4.2 2.3l-1.7 1.3c-.5-.9-1.2-1.6-2.3-1.6c-1.6 0-2.7 1.1-2.7 2.9c0 1.7 1.1 2.8 2.7 2.8c1.1 0 1.8-.6 2.3-1.5l1.7 1.2c-.9 1.5-2.3 2.3-4.2 2.3c-3 0-4.8-2.3-4.8-4.8zm9.4 0c0-2.9 2-4.9 4.7-4.9c2.7 0 4.4 1.9 4.4 4.6c0 .3 0 .7-.1 1.1h-6.7c.2 1.2 1.1 2.1 2.7 2.1c1.1 0 2.1-.7 2.6-1.4l1.3 1.5c-.9 1-2.2 1.8-4 1.8c-3 0-4.9-2.1-4.9-4.8zm2.3-1.1h4.5c-.1-1.2-.9-1.9-2.1-1.9c-1.2 0-2.1.7-2.4 1.9zM250 2.2s5.04-.04 5 0c2.5 0 4 1.2 4 3.2c0 1-.5 1.9-1.4 2.5c1.4.4 2.4 1.4 2.4 3c0 2.2-1.6 3.5-4.4 3.5H250V2.2zm5.5 10.3c1.4 0 2-.7 2-1.7c0-1-.6-1.7-2-1.7c-.03.04-3.2 0-3.2 0v3.4s3.17-.04 3.2 0zm-.8-5.3c1.4 0 1.9-.6 1.9-1.5c0-1-.5-1.6-1.9-1.6h-2.4v3.1h2.4zm6.3-2.1h2.3s.02 1.47 0 1.5c.6-1 1.5-1.7 2.7-1.7h.3s-.05 2.19 0 2.2c-1.4 0-2.5.4-3 1.8c.02-.01 0 5.5 0 5.5H261V5.1zm12.5 8.2c-.7.8-1.7 1.3-2.9 1.3c-2.5 0-4.4-1.9-4.4-4.8c0-3 1.9-4.9 4.4-4.9c1.2 0 2.2.5 2.9 1.3c.02.01 0-1.1 0-1.1h2.3v9.3h-2.3s.02-1.06 0-1.1zm0-2.1V8.4c-.4-.9-1.3-1.5-2.4-1.5c-1.5 0-2.6 1.1-2.6 2.9c0 1.8 1.1 2.8 2.6 2.8c1.1 0 2-.5 2.4-1.4zm3.9-9.6h2.3v7.5l3.6-4h2.6v.1l-3.5 3.9l3.9 5.2v.1h-2.7l-2.6-3.7l-1.3 1.3v2.4h-2.3V1.6zm8.8 8.2c0-2.9 1.9-4.9 4.6-4.9c2.7 0 4.5 1.9 4.5 4.6c0 .3-.1.7-.1 1.1h-6.7c.2 1.2 1.1 2.1 2.7 2.1c1.1 0 2.1-.7 2.6-1.4l1.3 1.5c-.9 1-2.3 1.8-4 1.8c-3.1 0-4.9-2.1-4.9-4.8zm2.3-1.1h4.5c-.1-1.2-.9-1.9-2.2-1.9c-1.2 0-2 .7-2.3 1.9zm7.1 4.1l1.2-1.4c.6.8 1.7 1.4 2.8 1.4c1 0 1.7-.4 1.7-1.1c0-.6-.6-.9-1.5-1l-.8-.1c-1.7-.3-2.8-1.3-2.8-2.8c0-1.6 1.4-2.9 3.7-2.9c1.5 0 2.6.6 3.3 1.4L302 7.8c-.6-.7-1.3-1-2.2-1c-.8 0-1.3.4-1.3.9c0 .5.4.7 1 .8l.9.1c2.1.4 3.1 1.4 3.1 3c0 1.6-1.4 3.1-4 3.1c-1.7 0-3.1-.9-3.9-1.9zm10.1 2.4h-1.2v-2.7h2.7v2.4l-1.2 3h-1.4l1.1-2.7z" stroke="none" fill="#fff"/></g></svg>