<?xml version="1.0" standalone="no"?><!DOCTYPE svg PUBLIC "-//W3C//DTD SVG 1.1//EN" "http://www.w3.org/Graphics/SVG/1.1/DTD/svg11.dtd"><svg xmlns="http://www.w3.org/2000/svg" version="1.1" width="366.5px" height="62.3px" viewBox="0 -5 366.5 62.3" style="top:-5px"><desc>스텝 06-1@3이미지</desc><defs/><g id="Polygon61231"><path d="m7.7 50.2C3.6 50.2.4 47 .4 42.9c0-4.1 3.2-7.3 7.3-7.3c4.1 0 7.3 3.2 7.3 7.3c0 4.1-3.2 7.3-7.3 7.3zm0-13.5c-3.5 0-6.2 2.7-6.2 6.2c0 3.5 2.7 6.2 6.2 6.2c3.6 0 6.2-2.7 6.2-6.2c0-3.5-2.6-6.2-6.2-6.2zm-3.2 9.6C5.7 44 9.4 43 9.4 40.9c0-1-.6-1.6-1.7-1.6c-.9 0-1.5.5-1.8 1.4L4.6 40c.3-1 1.3-2.1 3.1-2.1c2.1 0 3.3 1.2 3.3 2.9c0 2.8-3.5 3.9-4.4 5.3c.04-.02 4.5 0 4.5 0v1.3H4.5s.04-1.12 0-1.1zm15.1-10.1s4.95-.04 5 0c3.5 0 6 2.1 6 6.1c0 3.9-2.5 6.1-6 6.1h-5V36.2zm2.3 2v8.2s2.53-.03 2.5 0c2.3 0 3.8-1.5 3.8-4.1c0-2.7-1.5-4.1-3.8-4.1c.03-.01-2.5 0-2.5 0zm9.9.9h2.3s.03 1.47 0 1.5c.6-1 1.5-1.7 2.7-1.7h.3s-.04 2.19 0 2.2c-1.4 0-2.5.4-3 1.8c.03-.01 0 5.5 0 5.5h-2.3v-9.3zm6 0h2.3v9.3h-2.3v-9.3zm0-3.9h2.3v2.4h-2.3v-2.4zm2.9 3.9h2.5l2.4 6.5l2.5-6.5h2.4l-3.7 9.3h-2.3l-3.8-9.3zm9.6 4.7c0-2.9 2-4.9 4.7-4.9c2.7 0 4.4 1.9 4.4 4.6c0 .3 0 .7-.1 1.1h-6.7c.2 1.2 1.1 2.1 2.7 2.1c1.1 0 2.1-.7 2.6-1.4l1.3 1.5c-.9 1-2.2 1.8-4 1.8c-3 0-4.9-2.1-4.9-4.8zm2.3-1.1h4.6c-.2-1.2-1-1.9-2.2-1.9c-1.2 0-2 .7-2.4 1.9zm7.8-.7h5.3v1.9h-5.3V42zm19.4 1.2c0-1.5-.6-2.3-2-2.3c-1.1 0-1.8.8-2 1.7c-.04-.03 0 5.8 0 5.8h-2.3s-.03-5.2 0-5.2c0-1.5-.7-2.3-2-2.3c-1.1 0-1.8.8-2.1 1.7c.04-.03 0 5.8 0 5.8h-2.2v-9.3h2.2s.04 1.33 0 1.3c.5-.8 1.5-1.5 2.9-1.5c1.5 0 2.5.7 3 1.8c.7-1.1 1.7-1.8 3.3-1.8c2.4 0 3.5 1.7 3.5 4c-.02.05 0 5.5 0 5.5h-2.3v-5.2zm3.3.6c0-2.6 1.7-4.9 4.9-4.9c3.2 0 4.9 2.3 4.9 4.9c0 2.5-1.7 4.9-4.9 4.9c-3.2 0-4.9-2.4-4.9-4.9zm2.3 0c0 1.7 1.1 2.8 2.6 2.8c1.5 0 2.6-1.1 2.6-2.8c0-1.7-1.1-2.9-2.6-2.9c-1.5 0-2.6 1.2-2.6 2.9zm15.5 3.5c-.7.8-1.7 1.3-2.9 1.3c-2.6 0-4.5-1.9-4.5-4.8c0-3 1.9-4.9 4.5-4.9c1.2 0 2.2.5 2.9 1.3c-.05.01 0-4.6 0-4.6h2.2v12.8h-2.2s-.05-1.06 0-1.1zm0-2.1v-2.8c-.5-.9-1.4-1.5-2.4-1.5c-1.5 0-2.7 1.1-2.7 2.9c0 1.8 1.2 2.8 2.7 2.8c1 0 1.9-.5 2.4-1.4zm3.4-1.4c0-2.9 1.9-4.9 4.6-4.9c2.7 0 4.5 1.9 4.5 4.6c0 .3-.1.7-.1 1.1h-6.7c.2 1.2 1.1 2.1 2.7 2.1c1.1 0 2.1-.7 2.6-1.4l1.3 1.5c-.9 1-2.3 1.8-4 1.8c-3 0-4.9-2.1-4.9-4.8zm2.3-1.1h4.5c-.1-1.2-.9-1.9-2.2-1.9c-1.2 0-2 .7-2.3 1.9z" stroke="none" fill="#fff"/></g><g id="Polygon61230"><path d="m7.7 16.2C3.6 16.2.4 13 .4 8.9c0-4.1 3.2-7.3 7.3-7.3c4.1 0 7.3 3.2 7.3 7.3c0 4.1-3.2 7.3-7.3 7.3zm0-13.5c-3.5 0-6.2 2.7-6.2 6.2c0 3.5 2.7 6.2 6.2 6.2c3.6 0 6.2-2.7 6.2-6.2c0-3.5-2.6-6.2-6.2-6.2zm-.4 3.2L5.3 7l-.6-1.3l2.9-1.6h1.3v9.6H7.3V5.9zm12.3-3.7s4.95-.04 5 0c3.5 0 6 2.1 6 6.1c0 3.9-2.5 6.1-6 6.1h-5V2.2zm2.3 2v8.2s2.53-.03 2.5 0c2.3 0 3.8-1.5 3.8-4.1c0-2.7-1.5-4.1-3.8-4.1c.03-.01-2.5 0-2.5 0zm9.9.9h2.3s.03 1.47 0 1.5c.6-1 1.5-1.7 2.7-1.7h.3s-.04 2.19 0 2.2c-1.4 0-2.5.4-3 1.8c.03-.01 0 5.5 0 5.5h-2.3V5.1zm6 0h2.3v9.3h-2.3V5.1zm0-3.9h2.3v2.4h-2.3V1.2zm2.9 3.9h2.5l2.4 6.5l2.5-6.5h2.4l-3.7 9.3h-2.3l-3.8-9.3zm10.5 0h2.2v9.3h-2.2V5.1zm-.1-3.9h2.4v2.4h-2.4V1.2zm4 3.9h2.3s-.04 1.33 0 1.3c.5-.8 1.5-1.5 2.9-1.5c2.4 0 3.5 1.7 3.5 4c.03.05 0 5.5 0 5.5h-2.3s.04-5.2 0-5.2c0-1.5-.7-2.3-2-2.3c-1.1 0-1.9.8-2.1 1.7c-.04-.03 0 5.8 0 5.8h-2.3V5.1zm9.7 4.2c0-2.6 1.7-4.4 4.3-4.4c1.2 0 2.1.5 2.8 1.3c-.03.01 0-1.1 0-1.1h2.3s-.04 7.72 0 7.7c0 3.4-2.4 4.9-4.9 4.9c-2.3 0-3.6-.8-4.3-1.8l1.4-1.5c.6.8 1.4 1.4 2.8 1.4c1.3 0 2.7-.8 2.7-2.8v-.5c-.7.7-1.6 1.3-2.8 1.3c-2.6 0-4.3-1.8-4.3-4.5zm7.1 1.2V8.2c-.4-.8-1.3-1.3-2.3-1.3c-1.5 0-2.4 1-2.4 2.4c0 1.5.9 2.5 2.4 2.5c1 0 1.9-.5 2.3-1.3zm7.4-8.3s4.85-.04 4.8 0c2.6 0 4.4 1.2 4.4 3.8c0 2.6-1.8 3.8-4.4 3.8c.05.03-2.4 0-2.4 0v4.6h-2.4V2.2zm4.6 5.6c1.3 0 2.2-.5 2.2-1.8c0-1.3-.9-1.8-2.2-1.8c-.04.01-2.2 0-2.2 0v3.6s2.16-.02 2.2 0zm4.8 2c0-2.9 2-4.9 4.7-4.9c2.7 0 4.5 1.9 4.5 4.6c0 .3-.1.7-.1 1.1H91c.3 1.2 1.1 2.1 2.7 2.1c1.2 0 2.1-.7 2.7-1.4l1.2 1.5c-.8 1-2.2 1.8-4 1.8c-3 0-4.9-2.1-4.9-4.8zm2.4-1.1h4.5c-.1-1.2-1-1.9-2.2-1.9c-1.2 0-2 .7-2.3 1.9zm7.8-3.6h2.3s.03 1.47 0 1.5c.6-1 1.5-1.7 2.7-1.7h.3s-.04 2.19 0 2.2c-1.4 0-2.5.4-3 1.8c.03-.01 0 5.5 0 5.5h-2.3V5.1zm6.8 1.9h-1.5V5.1h1.5s-.02-.51 0-.5c0-1.8 1-3.1 3.2-3.1h.9c-.02.01 0 1.9 0 1.9c0 0-.42-.03-.4 0c-.9 0-1.4.3-1.4 1.2c-.04.01 0 .5 0 .5h1.8v1.9H108v7.4h-2.3V7zm4.2 2.8c0-2.6 1.6-4.9 4.9-4.9c3.2 0 4.9 2.3 4.9 4.9c0 2.5-1.7 4.9-4.9 4.9c-3.3 0-4.9-2.4-4.9-4.9zm2.3 0c0 1.7 1.1 2.8 2.6 2.8c1.5 0 2.6-1.1 2.6-2.8c0-1.7-1.1-2.9-2.6-2.9c-1.5 0-2.6 1.2-2.6 2.9zm8.6-4.7h2.3s-.04 1.47 0 1.5c.5-1 1.4-1.7 2.6-1.7h.3v2.2c-1.4 0-2.5.4-2.9 1.8c-.04-.01 0 5.5 0 5.5h-2.3V5.1zm18.6 4.1c0-1.5-.6-2.3-2-2.3c-1.2 0-1.8.8-2.1 1.7c.04-.03 0 5.8 0 5.8h-2.2s-.05-5.2 0-5.2c0-1.5-.7-2.3-2-2.3c-1.2 0-1.8.8-2.1 1.7c.02-.03 0 5.8 0 5.8h-2.3V5.1h2.3s.02 1.33 0 1.3c.5-.8 1.4-1.5 2.9-1.5c1.5 0 2.5.7 3 1.8c.7-1.1 1.7-1.8 3.3-1.8c2.4 0 3.5 1.7 3.5 4c-.04.05 0 5.5 0 5.5h-2.3s-.03-5.2 0-5.2zm10.6 4.1c-.7.8-1.7 1.3-2.9 1.3c-2.5 0-4.4-1.9-4.4-4.8c0-3 1.9-4.9 4.4-4.9c1.2 0 2.2.5 2.9 1.3c.03.01 0-1.1 0-1.1h2.3v9.3H150s.03-1.06 0-1.1zm0-2.1V8.4c-.4-.9-1.3-1.5-2.4-1.5c-1.5 0-2.6 1.1-2.6 2.9c0 1.8 1.1 2.8 2.6 2.8c1.1 0 2-.5 2.4-1.4zm4-6.1h2.2s.04 1.33 0 1.3c.5-.8 1.5-1.5 3-1.5c2.4 0 3.5 1.7 3.5 4v5.5h-2.3V9.2c0-1.5-.7-2.3-2-2.3c-1.2 0-1.9.8-2.2 1.7c.04-.03 0 5.8 0 5.8H154V5.1zm9.7 4.7c0-2.6 1.7-4.9 4.8-4.9c1.9 0 3.2.9 4.1 2.3L171 8.5c-.5-.9-1.3-1.6-2.4-1.6c-1.5 0-2.6 1.1-2.6 2.9c0 1.7 1.1 2.8 2.6 2.8c1.1 0 1.9-.6 2.4-1.5l1.6 1.2c-.9 1.5-2.2 2.3-4.1 2.3c-3.1 0-4.8-2.3-4.8-4.8zm9.4 0c0-2.9 1.9-4.9 4.6-4.9c2.7 0 4.5 1.9 4.5 4.6c0 .3-.1.7-.1 1.1h-6.7c.2 1.2 1.1 2.1 2.7 2.1c1.1 0 2.1-.7 2.6-1.4l1.3 1.5c-.9 1-2.3 1.8-4 1.8c-3 0-4.9-2.1-4.9-4.8zm2.3-1.1h4.5c-.1-1.2-.9-1.9-2.2-1.9c-1.2 0-2 .7-2.3 1.9z" stroke="none" fill="#fff"/></g></svg>