<?xml version="1.0" standalone="no"?><!DOCTYPE svg PUBLIC "-//W3C//DTD SVG 1.1//EN" "http://www.w3.org/Graphics/SVG/1.1/DTD/svg11.dtd"><svg xmlns="http://www.w3.org/2000/svg" version="1.1" width="158.3px" height="48.8px" viewBox="0 -6 158.3 48.8" style="top:-6px"><desc>총 참여인원 (단위: 명)</desc><defs/><g id="Polygon109178"><path d="m3.9 37.1l-.9.4c-.6-.9-1.1-1.9-1.4-3c-.3-1.1-.5-2.2-.5-3.5c0-1.2.2-2.4.5-3.4c.3-1.1.8-2.1 1.4-3.1l.9.4c-.5.9-.9 1.9-1.2 2.9c-.3 1.1-.4 2.1-.4 3.2c0 1.1.1 2.2.4 3.2c.3 1 .7 2 1.2 2.9zm10.2-8.6h1.6v1h-1.6v4h-1.3v-8.3h1.3v3.3zm-2.4 1.6l.1 1c-.4.1-.7.2-1.1.2c-.4.1-.8.1-1.2.2h-3c0 .03-.9 0-.9 0v-5.4h5.1v1.1H6.9s-.02 3.25 0 3.3c.5 0 1-.1 1.5-.1h1.2c.3 0 .7-.1 1-.1c.4-.1.7-.1 1.1-.2zm-3.6 2.6v2.7h6.4v1.1H6.8v-3.8h1.3zm16.8-7.5h1.3v11.5h-1.3V25.2zm-4.4 5.3c-.5 0-.8-.1-1.2-.2c-.4-.1-.7-.3-.9-.5c-.3-.2-.5-.4-.7-.7c-.1-.3-.2-.7-.2-1c0-.4.1-.7.2-1c.2-.3.4-.5.7-.7c.2-.3.5-.4.9-.5c.4-.2.7-.2 1.2-.2c.4 0 .8 0 1.2.2c.3.1.6.2.9.5c.3.2.5.4.6.7c.2.3.2.6.2 1c0 .3 0 .7-.2 1c-.1.3-.3.5-.6.7c-.3.2-.6.4-.9.5c-.4.1-.8.2-1.2.2zm0-3.7c-.5 0-.9.1-1.3.3c-.3.3-.4.6-.4 1c0 .4.1.7.4 1c.4.2.8.3 1.3.3c.5 0 .9-.1 1.2-.3c.3-.3.5-.6.5-1c0-.4-.2-.7-.5-1c-.3-.2-.7-.3-1.2-.3zm3.7 4.1l.1 1c-.5.1-1.1.2-1.6.2c-.5.1-1 .2-1.5.2v4h-1.3s-.02-3.93 0-3.9h-3l-.2-1.1h3.6c.7 0 1.3-.1 2-.1l1.9-.3zm5.9-2.7v1.5h-1.5v-1.5h1.5zm0 5.2v1.6h-1.5v-1.6h1.5zm10.1-3.1v.9h-5.3V26h5.3v1h2.4v-1.8h1.3v6.8h-1.3v-1.7h-2.4zm-1.2-.1v-3.1h-2.8v3.1h2.8zm3.6-2.2h-2.4v1.2h2.4V28zm-2.5 4.3c.6 0 1.2 0 1.6.1c.5.1.9.3 1.3.5c.3.1.6.4.7.6c.2.3.3.6.3 1c0 .3-.1.6-.3.9c-.1.3-.4.5-.7.7c-.4.2-.8.3-1.3.4c-.4.1-1 .2-1.6.2c-.6 0-1.1-.1-1.6-.2c-.5-.1-.9-.2-1.2-.4c-.3-.2-.6-.4-.8-.7c-.2-.3-.2-.6-.2-.9c0-.4 0-.7.2-1c.2-.2.5-.5.8-.6c.3-.2.7-.4 1.2-.5c.5-.1 1-.1 1.6-.1zm0 3.4c.8 0 1.5-.1 1.9-.3c.5-.3.7-.5.7-.9c0-.4-.2-.7-.7-.9c-.4-.2-1.1-.3-1.9-.3c-.8 0-1.4.1-1.9.3c-.4.2-.6.5-.6.9c0 .4.2.6.6.9c.5.2 1.1.3 1.9.3zm6.8 1.8l-.9-.4c.6-.9 1-1.9 1.2-2.9c.3-1 .4-2.1.4-3.2c0-1.1-.1-2.1-.4-3.2c-.2-1-.6-2-1.2-2.9l.9-.4c.6 1 1.1 2 1.4 3.1c.3 1 .5 2.2.5 3.4c0 1.3-.2 2.4-.5 3.5c-.3 1.1-.8 2.1-1.4 3z" stroke="none" fill="#fff"/></g><g id="Polygon109177"><path d="m2 7.8l-.7-1.6c.9-.1 1.6-.2 2.2-.3c.6-.2 1.1-.3 1.6-.5c.4-.2.7-.5.9-.7c.3-.3.4-.5.5-.8c-.01.03-4.4 0-4.4 0V2.2h4.6V.8h2.2v1.4h4.6v1.7s-4.4.03-4.4 0c.1.3.2.5.4.8c.3.2.6.5 1 .7c.5.2 1 .3 1.6.5c.6.1 1.3.2 2.2.3l-.7 1.6c-1.5-.1-2.7-.3-3.7-.7c-.9-.4-1.6-.9-2.1-1.5c-.5.6-1.2 1.1-2.2 1.5c-.9.4-2.1.6-3.6.7zm6.9.8h6v1.8H.7V8.6h6V7.1h2.2v1.5zm-1.1 2.5c1.7 0 3 .2 4 .7c.9.5 1.4 1.1 1.4 2c0 .8-.5 1.5-1.4 2c-1 .4-2.3.6-4 .6c-1.8 0-3.1-.2-4-.6c-1-.5-1.5-1.2-1.5-2c0-.9.5-1.5 1.4-2c.9-.5 2.3-.7 4.1-.7zm-3.2 2.7c0 .6 1.1 1 3.2 1c2.1 0 3.1-.4 3.1-1c0-.4-.2-.7-.8-.8c-.5-.2-1.3-.2-2.3-.2c-1.1 0-1.9 0-2.4.2c-.5.1-.8.4-.8.8zm24.8-6l-1 1.8c-.9-.3-1.6-.6-2.2-1.1c-.6-.4-1.1-1-1.5-1.6c-.3.7-.8 1.3-1.4 1.8c-.6.5-1.4.9-2.3 1.1l-1.1-1.7c.7-.2 1.2-.4 1.6-.7c.5-.3.9-.6 1.2-.9c.3-.4.5-.8.6-1.2c.2-.4.3-.8.3-1.2c-.04-.02-3.1 0-3.1 0V2.3h3.1V.7h2.2v1.6h3.1v1.8s-3.09-.02-3.1 0c0 .4.1.7.3 1.1c.1.4.3.8.6 1.1c.3.3.7.6 1.1.9c.5.3 1 .5 1.6.6zm5.1-3.4v1.9h-2.1v3.6h-2.3V.8h2.3v3.6h2.1zM22.2 16.2v-5.6h10.2v5.6H22.2zm2.2-3.9v2.2h5.8v-2.2h-5.8zM46.5.7h2.3v15.8h-2.3v-5.9s-3.18.04-3.2 0c-.3.8-.8 1.4-1.4 1.8c-.6.4-1.2.7-2 .6c-.6 0-1.1-.1-1.6-.4c-.5-.2-.9-.6-1.3-1.1c-.4-.5-.6-1.1-.8-1.7c-.2-.7-.3-1.5-.3-2.4c0-.8.1-1.6.3-2.3c.2-.7.4-1.3.8-1.7c.4-.5.8-.9 1.3-1.2c.5-.2 1-.3 1.6-.3c.7 0 1.4.1 1.9.5c.6.4 1 .9 1.4 1.6c-.02-.04 3.3 0 3.3 0V.7zM39.9 11c.6 0 1-.3 1.4-.9c.4-.6.5-1.5.5-2.7c0-1.1-.1-2-.5-2.6c-.4-.6-.8-.9-1.4-.9c-.6 0-1 .3-1.4.9c-.3.6-.5 1.5-.5 2.6c0 1.2.2 2.1.5 2.7c.4.6.8.9 1.4.9zm4-3.6c0 .5 0 1-.1 1.4c.04.02 2.7 0 2.7 0v-3s-2.71-.04-2.7 0c.1.5.1 1 .1 1.6zM64.2.8V12h-2.3V.8h2.3zm-4.3 4.9c0 .6-.1 1.1-.3 1.6c-.2.5-.5.9-.9 1.3c-.4.3-.9.6-1.4.8c-.5.2-1 .3-1.6.3c-.6 0-1.2-.1-1.7-.3c-.5-.2-1-.5-1.4-.8c-.4-.4-.7-.8-.9-1.3c-.2-.5-.3-1-.3-1.6c0-.5.1-1.1.3-1.6c.2-.4.5-.9.9-1.2c.4-.4.9-.6 1.4-.8c.5-.2 1.1-.3 1.7-.3c.6 0 1.1.1 1.6.3c.5.2 1 .4 1.4.8c.4.3.7.8.9 1.2c.2.5.3 1.1.3 1.6zm-6.3 0c0 .7.2 1.2.6 1.5c.4.4.9.6 1.5.6c.5 0 1-.2 1.4-.6c.4-.3.6-.8.6-1.5c0-.6-.2-1.1-.6-1.5c-.4-.3-.9-.5-1.4-.5c-.6 0-1.1.2-1.5.5c-.4.4-.6.9-.6 1.5zm2.4 8.7h8.6v1.8H53.8v-5.3h2.2v3.5zm18.7-4.5h3V.8h2.2v11.8h-2.2v-1.2h-3V9.9zm-3-3c-.6 0-1.1-.1-1.6-.2c-.5-.2-.9-.3-1.2-.6c-.4-.2-.6-.5-.8-.9c-.2-.3-.3-.7-.3-1.1c0-.4.1-.8.3-1.2c.2-.3.4-.6.8-.8c.3-.3.7-.5 1.2-.6c.5-.1 1-.2 1.6-.2c.6 0 1.1.1 1.6.2c.4.1.9.3 1.2.6c.3.2.6.5.8.8c.2.4.3.8.3 1.2c0 .4-.1.8-.3 1.1c-.2.4-.5.7-.8.9c-.3.3-.8.4-1.2.6c-.5.1-1 .2-1.6.2zm0-4c-.5 0-1 .1-1.3.3c-.3.2-.5.5-.5.9c0 .4.2.7.5.9c.3.2.8.3 1.3.3c.5 0 1-.1 1.3-.3c.3-.2.5-.5.5-.9c0-.4-.2-.7-.5-.9c-.3-.2-.8-.3-1.3-.3zm-.8 11.5h9.3v1.8H68.6v-4.7h2.2V9.4c-.7 0-1.4.1-2 .1h-1.9l-.2-1.8h2.3c.8 0 1.6 0 2.5-.1c.8 0 1.7-.1 2.6-.1l2.5-.3l.2 1.6l-1.9.3c-.6.1-1.2.1-1.9.2c.03-.03 0 2.9 0 2.9h-2.1v2.2z" stroke="none" fill="#fff"/></g></svg>