<?xml version="1.0" standalone="no"?><!DOCTYPE svg PUBLIC "-//W3C//DTD SVG 1.1//EN" "http://www.w3.org/Graphics/SVG/1.1/DTD/svg11.dtd"><svg xmlns="http://www.w3.org/2000/svg" version="1.1" width="363px" height="76.1px" viewBox="0 -7 363 76.1" style="top:-7px"><desc>225</desc><defs/><g id="Polygon109428"><path d="m303.6 39.1v4.9h-25v-3.2s12.47-12.5 12.5-12.5c.8-.9 1.7-1.7 2.4-2.6c.8-.9 1.5-1.8 2.2-2.8c.6-1.2 1.1-2.4 1.4-3.7c.3-1.4.3-2.6 0-3.8c-.2-1.1-.8-2.1-1.7-2.9c-.9-.8-2.3-1.1-4-1.1c-1 0-1.9.1-2.8.5c-.8.3-1.5.8-2.1 1.4c-.6.6-1.1 1.3-1.4 2.2c-.3.8-.4 1.7-.3 2.7l-5.5-1c.4-3.3 1.8-5.9 3.9-7.8c2.2-1.8 5-2.7 8.5-2.7c1.5 0 3 .2 4.4.6c1.3.5 2.5 1.1 3.5 2c1.1.9 1.9 2 2.5 3.3c.6 1.3.9 2.8.9 4.5c0 1.4-.2 2.7-.7 3.9c-.4 1.2-1 2.3-1.7 3.4c-.7 1.1-1.5 2.1-2.4 3.1c-.9.9-1.8 1.9-2.8 2.8l-9.4 9.5c.8-.2 1.6-.4 2.4-.5c.8-.1 1.6-.2 2.4-.2h12.8zm28.3 0v4.9h-25v-3.2s12.47-12.5 12.5-12.5c.8-.9 1.7-1.7 2.4-2.6c.8-.9 1.5-1.8 2.2-2.8c.6-1.2 1.1-2.4 1.4-3.7c.3-1.4.3-2.6 0-3.8c-.2-1.1-.8-2.1-1.7-2.9c-.9-.8-2.3-1.1-4-1.1c-1 0-1.9.1-2.8.5c-.8.3-1.5.8-2.1 1.4c-.6.6-1.1 1.3-1.4 2.2c-.3.8-.4 1.7-.3 2.7l-5.5-1c.4-3.3 1.8-5.9 3.9-7.8c2.2-1.8 5-2.7 8.5-2.7c1.5 0 3 .2 4.4.6c1.3.5 2.5 1.1 3.5 2c1.1.9 1.9 2 2.5 3.3c.6 1.3.9 2.8.9 4.5c0 1.4-.2 2.7-.7 3.9c-.4 1.2-1 2.3-1.7 3.4c-.7 1.1-1.5 2.1-2.4 3.1c-.9.9-1.8 1.9-2.8 2.8l-9.4 9.5c.8-.2 1.6-.4 2.4-.5c.8-.1 1.6-.2 2.4-.2h12.8zm5.9 2.7c-.8-.5-1.5-1-2.1-1.5l2.9-4c1 1 2.3 1.8 3.7 2.4c1.4.7 2.8 1 4.3 1c1.2 0 2.3-.2 3.3-.6c.9-.4 1.7-1 2.4-1.7c.6-.7 1.1-1.6 1.5-2.6c.3-1 .5-2 .5-3.1c0-2.3-.7-4.1-2-5.2c-1.4-1.2-3.2-1.8-5.5-1.8c-1 0-1.9.1-2.9.3c-.9.2-1.9.4-2.8.7c.02-.05-3.4-1-3.4-1l3-17.6h17.9v5h-14s-1.53 8.6-1.5 8.6c1.6-.4 3.3-.5 4.9-.5c1.7 0 3.2.2 4.7.7c1.4.5 2.6 1.2 3.7 2.1c1.1 1 1.9 2.1 2.5 3.5c.6 1.4.9 3 .9 4.9c0 1.9-.3 3.7-1 5.3c-.7 1.6-1.6 3-2.8 4.1c-1.2 1.1-2.6 2-4.3 2.7c-1.7.6-3.5.9-5.4.9c-1.5 0-3-.2-4.5-.6c-1.5-.5-2.9-1.1-4-2z" stroke="none" fill="#fff"/></g></svg>