<?xml version="1.0" standalone="no"?><!DOCTYPE svg PUBLIC "-//W3C//DTD SVG 1.1//EN" "http://www.w3.org/Graphics/SVG/1.1/DTD/svg11.dtd"><svg xmlns="http://www.w3.org/2000/svg" version="1.1" width="363px" height="76.1px" viewBox="0 -7 363 76.1" style="top:-7px"><desc>1,168</desc><defs/><g id="Polygon109328"><path d="m252.6 15.4v-1.2c.02-.05-6 5-6 5l-3-3.7l10-8.5h4.5v32.2h6.9v4.8h-20.1v-4.8h7.7V15.4s-.03 0 0 0zM268 48.1l1.9-10.4h5.9l-3.2 10.4H268zm22.1-32.7c0-.4 0-.8.1-1.2c-.03-.05-6 5-6 5l-3.1-3.7l10-8.5h4.5v32.2h7v4.8h-20.2v-4.8h7.7V15.4s.02 0 0 0zm31.4-8.3h6.8s-12.48 15.45-12.5 15.5c1.8-1 3.6-1.5 5.6-1.5c1.7 0 3.2.3 4.5.8c1.4.6 2.5 1.3 3.5 2.3c.9 1 1.7 2.2 2.2 3.5c.5 1.4.8 2.9.8 4.5c0 1.8-.4 3.4-1 4.9c-.7 1.5-1.6 2.8-2.8 3.9c-1.1 1.1-2.5 1.9-4.1 2.5c-1.5.6-3.2.9-5 .9c-1.9 0-3.7-.3-5.2-.9c-1.6-.6-2.9-1.5-4-2.6c-1-1.1-1.9-2.4-2.5-4c-.5-1.6-.8-3.4-.8-5.3c0-2 .4-4 1.3-5.9c.9-1.9 1.9-3.6 3.1-5.1c-.03-.05 10.1-13.5 10.1-13.5zm-2.1 32.8c1 0 2-.2 2.9-.6c.9-.3 1.7-.8 2.4-1.5c.6-.6 1.2-1.4 1.6-2.3c.4-.9.6-1.8.6-2.9c0-2.2-.7-4-2-5.3c-1.4-1.3-3.1-2-5.3-2c-1.1 0-2 .2-2.9.6c-.9.3-1.7.8-2.4 1.5c-.6.6-1.1 1.3-1.5 2.2c-.3.9-.5 1.8-.5 2.9c0 2.1.6 3.9 1.8 5.3c1.2 1.4 3 2.1 5.3 2.1zm34.2-15.2c2.2.7 3.9 1.8 5.1 3.3c1.1 1.5 1.7 3.4 1.7 5.7c0 1.8-.3 3.4-1 4.8c-.7 1.3-1.7 2.4-2.9 3.3c-1.1.9-2.5 1.5-4 2c-1.5.4-3.1.6-4.7.6c-1.7 0-3.4-.2-4.9-.6c-1.5-.5-2.9-1.1-4-2c-1.2-.9-2.1-2.1-2.8-3.4c-.6-1.3-1-2.9-1-4.7c0-2.3.6-4.2 1.8-5.7c1.2-1.5 2.9-2.6 5.1-3.3c-1.9-.7-3.3-1.8-4.2-3.2c-1-1.4-1.4-3.1-1.4-5c0-1.6.3-3 .9-4.2c.6-1.2 1.5-2.3 2.5-3.1c1.1-.8 2.3-1.5 3.7-1.9c1.4-.4 2.8-.6 4.3-.6c1.4 0 2.9.2 4.2.6c1.4.4 2.6 1.1 3.7 1.9c1 .8 1.9 1.9 2.5 3.1c.6 1.2 1 2.6 1 4.2c0 1.9-.5 3.6-1.4 5c-1 1.4-2.4 2.5-4.2 3.2zm-5.8-13.8c-1.8 0-3.3.5-4.4 1.5c-1.1 1-1.7 2.4-1.7 4.2c0 1.9.5 3.4 1.6 4.5c1.1 1 2.6 1.6 4.5 1.6c1.8 0 3.3-.6 4.4-1.6c1.1-1.1 1.6-2.6 1.6-4.5c0-1.9-.6-3.3-1.7-4.3c-1.2-1-2.6-1.4-4.3-1.4zm0 29.2c.9 0 1.8-.2 2.7-.4c.8-.3 1.6-.7 2.2-1.3c.6-.5 1.1-1.2 1.5-2c.4-.8.6-1.7.6-2.8c0-2.2-.7-3.8-2-4.9c-1.4-1.1-3-1.6-5-1.6c-2 0-3.7.5-5 1.6c-1.4 1.1-2 2.7-2 4.9c0 2 .6 3.6 1.9 4.8c1.4 1.1 3 1.7 5.1 1.7z" stroke="none" fill="#fff"/></g></svg>