<?xml version="1.0" standalone="no"?>
<!DOCTYPE svg PUBLIC "-//W3C//DTD SVG 1.1//EN" "http://www.w3.org/Graphics/SVG/1.1/DTD/svg11.dtd">
<svg xmlns="http://www.w3.org/2000/svg" version="1.1" width="170px" height="36.5px" viewBox="0 -1 170 36.5" style="top:-1px">
  <desc>텍스트 B</desc>
  <defs/>
  <g id="Polygon934">
    <path d="M 19.6 20.7 L 18.2 20.7 L 18.2 9.3 L 19.8 9.3 L 25.7 18.5 L 25.7 9.3 L 27.1 9.3 L 27.1 20.7 L 25.6 20.7 L 19.6 11.3 L 19.6 20.7 Z M 31.4 14.8 C 31.4 13.7 31.6 12.7 32 11.8 C 32.5 10.9 33.1 10.3 33.9 9.8 C 34.7 9.3 35.6 9 36.6 9 C 37.7 9 38.6 9.3 39.4 9.8 C 40.2 10.3 40.8 10.9 41.2 11.8 C 41.7 12.7 41.9 13.7 41.9 14.8 C 41.9 14.8 41.9 15.1 41.9 15.1 C 41.9 16.2 41.7 17.2 41.2 18.1 C 40.8 19 40.2 19.6 39.4 20.1 C 38.6 20.6 37.7 20.9 36.6 20.9 C 35.6 20.9 34.7 20.6 33.9 20.1 C 33.1 19.6 32.5 19 32 18.1 C 31.6 17.2 31.4 16.2 31.4 15.1 C 31.4 15.1 31.4 14.8 31.4 14.8 Z M 32.8 15.1 C 32.8 16 33 16.8 33.3 17.5 C 33.6 18.2 34 18.8 34.6 19.2 C 35.2 19.6 35.9 19.8 36.6 19.8 C 37.4 19.8 38 19.6 38.6 19.2 C 39.2 18.8 39.6 18.2 39.9 17.5 C 40.3 16.8 40.4 16 40.4 15.1 C 40.4 15.1 40.4 14.8 40.4 14.8 C 40.4 13.9 40.3 13.1 39.9 12.4 C 39.6 11.7 39.2 11.1 38.6 10.7 C 38 10.4 37.4 10.2 36.6 10.2 C 35.9 10.2 35.2 10.4 34.6 10.7 C 34 11.1 33.6 11.7 33.3 12.4 C 33 13.1 32.8 13.9 32.8 14.8 C 32.8 14.8 32.8 15.1 32.8 15.1 Z M 46.1 9.3 L 47.4 9.3 C 47.4 9.3 47.45 16.44 47.4 16.4 C 47.4 17.5 47.7 18.3 48.2 18.9 C 48.8 19.5 49.5 19.7 50.5 19.7 C 51.5 19.7 52.3 19.5 52.8 18.9 C 53.3 18.3 53.5 17.5 53.5 16.4 C 53.54 16.44 53.5 9.3 53.5 9.3 L 54.8 9.3 C 54.8 9.3 54.84 16.5 54.8 16.5 C 54.8 17.4 54.7 18.1 54.3 18.8 C 54 19.4 53.5 19.9 52.8 20.3 C 52.1 20.7 51.4 20.9 50.4 20.9 C 49.5 20.9 48.8 20.7 48.1 20.3 C 47.4 19.9 46.9 19.4 46.6 18.8 C 46.2 18.1 46.1 17.4 46.1 16.5 C 46.05 16.5 46.1 9.3 46.1 9.3 Z M 58.9 14.8 C 58.9 13.7 59.1 12.7 59.6 11.8 C 60 11 60.7 10.3 61.5 9.8 C 62.3 9.3 63.3 9 64.4 9 C 65.1 9 65.8 9.2 66.5 9.5 C 67.2 9.7 67.8 10.1 68.2 10.5 C 68.2 10.5 68.2 12.2 68.2 12.2 C 67.8 11.5 67.2 11.1 66.5 10.7 C 65.9 10.3 65.1 10.2 64.4 10.2 C 63.6 10.2 62.9 10.4 62.3 10.8 C 61.7 11.2 61.2 11.7 60.9 12.5 C 60.5 13.2 60.4 13.9 60.4 14.8 C 60.4 14.8 60.4 15 60.4 15 C 60.4 15.9 60.5 16.7 60.9 17.4 C 61.2 18.2 61.7 18.7 62.2 19.1 C 62.8 19.6 63.5 19.8 64.2 19.8 C 65 19.8 65.6 19.6 66.2 19.2 C 66.7 18.9 67.1 18.4 67.4 17.8 C 67.7 17.1 67.9 16.4 67.9 15.6 C 67.88 15.6 64.4 15.6 64.4 15.6 L 64.4 14.5 L 69.3 14.5 C 69.3 14.5 69.26 15.63 69.3 15.6 C 69.3 16.6 69.1 17.5 68.7 18.3 C 68.2 19.1 67.7 19.7 66.9 20.2 C 66.1 20.7 65.3 20.9 64.2 20.9 C 63.2 20.9 62.3 20.6 61.5 20.1 C 60.7 19.6 60 19 59.6 18.1 C 59.1 17.2 58.9 16.2 58.9 15 C 58.9 15 58.9 14.8 58.9 14.8 Z M 73.3 20.7 L 71.9 20.7 L 76.2 9.3 L 77.6 9.3 L 81.9 20.7 L 80.4 20.7 L 79.2 17.4 L 74.5 17.4 L 73.3 20.7 Z M 76.8 11 L 74.9 16.2 L 78.8 16.2 L 76.8 11 Z M 87.1 10.4 L 83.6 10.4 L 83.6 9.3 L 92 9.3 L 92 10.4 L 88.5 10.4 L 88.5 20.7 L 87.1 20.7 L 87.1 10.4 Z M 107.9 14.7 C 108.5 14.9 109 15.2 109.5 15.7 C 109.9 16.1 110.1 16.7 110.1 17.4 C 110.1 17.4 110.1 17.6 110.1 17.6 C 110.1 18.2 109.9 18.8 109.6 19.2 C 109.3 19.7 108.8 20.1 108.3 20.3 C 107.7 20.5 107.1 20.7 106.4 20.7 C 106.4 20.66 102.2 20.7 102.2 20.7 L 102.2 9.3 C 102.2 9.3 106.19 9.26 106.2 9.3 C 106.9 9.3 107.4 9.4 108 9.6 C 108.5 9.9 108.9 10.2 109.2 10.7 C 109.5 11.1 109.6 11.6 109.6 12.2 C 109.6 12.2 109.6 12.3 109.6 12.3 C 109.6 12.9 109.4 13.4 109.1 13.8 C 108.8 14.2 108.4 14.5 107.9 14.7 C 107.9 14.7 107.9 14.7 107.9 14.7 Z M 103.5 10.4 L 103.5 14.2 C 103.5 14.2 105.99 14.22 106 14.2 C 106.6 14.2 107.2 14.1 107.6 13.7 C 108 13.4 108.2 12.9 108.2 12.4 C 108.2 12.4 108.2 12.2 108.2 12.2 C 108.2 11.7 108 11.3 107.6 10.9 C 107.2 10.6 106.6 10.4 106 10.4 C 105.99 10.4 103.5 10.4 103.5 10.4 Z M 108.6 17.4 C 108.6 16.7 108.4 16.3 107.9 15.9 C 107.5 15.5 106.9 15.4 106.2 15.4 C 106.2 15.36 103.5 15.4 103.5 15.4 L 103.5 19.5 C 103.5 19.5 106.2 19.52 106.2 19.5 C 106.9 19.5 107.5 19.3 107.9 19 C 108.4 18.7 108.6 18.2 108.6 17.6 C 108.6 17.6 108.6 17.4 108.6 17.4 Z M 121.1 20.7 L 114.2 20.7 L 114.2 9.3 L 121 9.3 L 121 10.4 L 115.6 10.4 L 115.6 14.2 L 120.2 14.2 L 120.2 15.4 L 115.6 15.4 L 115.6 19.5 L 121.1 19.5 L 121.1 20.7 Z M 126.8 20.7 L 125.4 20.7 L 125.4 9.3 L 126.8 9.3 L 126.8 20.7 Z M 130.9 14.8 C 130.9 13.7 131.1 12.7 131.6 11.8 C 132 11 132.7 10.3 133.5 9.8 C 134.3 9.3 135.3 9 136.4 9 C 137.1 9 137.8 9.2 138.5 9.5 C 139.2 9.7 139.8 10.1 140.2 10.5 C 140.2 10.5 140.2 12.2 140.2 12.2 C 139.8 11.5 139.2 11.1 138.5 10.7 C 137.9 10.3 137.1 10.2 136.4 10.2 C 135.6 10.2 134.9 10.4 134.3 10.8 C 133.7 11.2 133.2 11.7 132.9 12.5 C 132.5 13.2 132.4 13.9 132.4 14.8 C 132.4 14.8 132.4 15 132.4 15 C 132.4 15.9 132.5 16.7 132.9 17.4 C 133.2 18.2 133.7 18.7 134.2 19.1 C 134.8 19.6 135.5 19.8 136.2 19.8 C 137 19.8 137.6 19.6 138.2 19.2 C 138.7 18.9 139.1 18.4 139.4 17.8 C 139.7 17.1 139.9 16.4 139.9 15.6 C 139.88 15.6 136.4 15.6 136.4 15.6 L 136.4 14.5 L 141.3 14.5 C 141.3 14.5 141.26 15.63 141.3 15.6 C 141.3 16.6 141.1 17.5 140.6 18.3 C 140.2 19.1 139.7 19.7 138.9 20.2 C 138.1 20.7 137.3 20.9 136.2 20.9 C 135.2 20.9 134.3 20.6 133.5 20.1 C 132.7 19.6 132 19 131.6 18.1 C 131.1 17.2 130.9 16.2 130.9 15 C 130.9 15 130.9 14.8 130.9 14.8 Z M 152.2 20.7 L 145.3 20.7 L 145.3 9.3 L 152.1 9.3 L 152.1 10.4 L 146.7 10.4 L 146.7 14.2 L 151.3 14.2 L 151.3 15.4 L 146.7 15.4 L 146.7 19.5 L 152.2 19.5 L 152.2 20.7 Z " stroke="none" fill="#fff"/>
  </g>
</svg>