<?xml version="1.0" encoding="utf-8"?>
<!-- Generator: Adobe Illustrator 27.5.0, SVG Export Plug-In . SVG Version: 6.00 Build 0)  -->
<svg version="1.1" id="레이어_1" xmlns="http://www.w3.org/2000/svg" xmlns:xlink="http://www.w3.org/1999/xlink" x="0px"
	 y="0px" viewBox="0 0 640 1085" style="enable-background:new 0 0 640 1085;" xml:space="preserve">
<style type="text/css">
	.st0{fill:none;}
	.st1{fill:#FFFFFF;}
</style>
<rect class="st0" width="44" height="41.4"/>
<rect y="812" class="st0" width="640" height="168"/>
<rect x="1042.6" y="812" class="st0" width="640" height="168"/>
<g>
	<path class="st1" d="M1079.1,912.2h-14v-6.6h35.9v6.6h-13.8v39h-8.1V912.2z"/>
	<path class="st1" d="M1105.9,951.2v-46h7.7v17.9c1.2-1.6,2.6-2.9,4.4-4c1.8-1.1,3.8-1.6,6-1.6c3.6,0,6.5,1.1,8.5,3.2
		c2,2.1,3,5.1,3,9.1v21.4h-7.7v-21.4c0-4.2-1.7-6.2-5-6.2c-2,0-3.8,0.8-5.5,2.2c-1.7,1.5-3,3.3-3.6,5.4v20L1105.9,951.2
		L1105.9,951.2z"/>
	<path class="st1" d="M1140.5,934.2c0-3.2,0.6-6,1.9-8.6c1.3-2.5,3.1-4.5,5.5-5.9c2.3-1.4,5-2.1,8.1-2.1c4.8,0,8.4,1.5,11.1,4.5
		c2.6,3,3.9,7.2,3.9,12.5v3h-22.9c0.3,2.8,1.2,4.9,2.8,6.4s3.8,2.2,6.5,2.2c2.1,0,4.1-0.4,5.9-1.1c1.8-0.8,3.6-2,5.4-3.8v7.4
		c-1.4,1.1-3.2,2-5.2,2.6s-4.2,0.9-6.4,0.9c-3.5,0-6.5-0.7-9-2.1c-2.5-1.4-4.4-3.4-5.7-5.9s-1.9-5.4-1.9-8.7V934.2z M1163.3,931.7
		c0-2.6-0.7-4.6-2-6.1c-1.3-1.5-3.1-2.2-5.4-2.2c-2.1,0-3.9,0.8-5.3,2.3c-1.5,1.5-2.3,3.5-2.4,6H1163.3z"/>
	<path class="st1" d="M1200.8,951.2h-8.1v-45.6h8.1v19.7l19.3-19.7h10.3l-22.3,22.2l23.3,23.4h-11.7l-19-20.1L1200.8,951.2
		L1200.8,951.2z"/>
	<path class="st1" d="M1243.4,913.5h-7.7v-8.2h7.7V913.5z M1243.4,951.2h-7.7v-32.8h7.7V951.2z"/>
	<path class="st1" d="M1251.3,935.7c1.2-1.4,2.8-2.4,4.7-3.2c2-0.7,4.3-1.3,7.1-1.8l6.9-1.1c-0.4-4.3-3-6.4-7.9-6.4
		c-1.8,0-3.7,0.5-5.5,1.5c-1.8,1-3.3,2.3-4.5,4v-7.5c3.1-2.5,7-3.8,11.6-3.8c4.2,0,7.5,1.1,10.2,3.4c2.6,2.2,3.9,5.6,3.9,10.2v20.1
		h-6.5l-0.7-3.8c-1.6,1.6-3.3,2.7-5,3.5c-1.7,0.8-3.7,1.2-6,1.2c-3.3,0-5.9-0.9-7.7-2.7c-1.9-1.8-2.8-4.3-2.8-7.4
		C1249.2,939.6,1249.9,937.5,1251.3,935.7z M1258,944.8c0.8,0.8,1.8,1.1,3.1,1.1c2,0,3.8-0.6,5.4-1.8c1.7-1.2,2.9-2.7,3.7-4.4v-4.6
		l-3.9,0.7c-2.7,0.4-4.6,0.9-5.8,1.3c-1.1,0.5-2,1-2.6,1.6c-0.8,0.8-1.1,1.7-1.1,2.9C1256.9,943,1257.2,944,1258,944.8z"/>
	<path class="st1" d="M1330.4,951.2h-29.1v-45.6h28.8v6.6h-20.7v12.2h17.3v6.6h-17.3v13.5h21V951.2L1330.4,951.2z"/>
	<path class="st1" d="M1350.3,951.2l-16.7-45.6h9.1l12.7,36.2l12.7-36.2h8l-16.6,45.6L1350.3,951.2L1350.3,951.2z"/>
	<path class="st1" d="M1379.9,938.9c1.4,2,3.2,3.6,5.2,4.8c2.1,1.1,4.4,1.7,6.9,1.7c1.8,0,3.4-0.4,4.8-1.2c1.4-0.8,2.5-1.8,3.2-3.1
		c0.8-1.3,1.1-2.8,1.1-4.4c0-2.4-0.8-4.2-2.2-5.6s-3.4-2.1-5.5-2.1c-1.4,0-2.7,0.3-3.9,0.8s-2,1.1-2.5,1.8h-5.4l2.2-25.3h24.1v6.7
		h-16.7l-0.9,11c0.5-0.4,1.2-0.7,2.3-1c1.1-0.3,2.2-0.5,3.5-0.5c2.6,0,4.9,0.5,7,1.6c2.1,1.1,3.8,2.7,5,4.9c1.2,2.1,1.8,4.7,1.8,7.7
		c0,3.2-0.8,5.9-2.3,8.2c-1.6,2.3-3.7,4-6.3,5.2s-5.6,1.8-8.8,1.8c-4.9,0-9.1-1.3-12.4-4v-9H1379.9z"/>
</g>
<g>
	<path class="st1" d="M1070.8,875.1h-3.2v-25.8h15.5v2.6h-12.3v9h10.4v2.6h-10.4V875.1z"/>
	<path class="st1" d="M1089.5,853.5h-3v-3.8h3V853.5z M1089.5,875.1h-3v-18.6h3V875.1z"/>
	<path class="st1" d="M1094.4,875.1v-18.6h2.7l0.2,3.2c0.5-1.2,1.3-2.1,2.2-2.7c0.9-0.7,2.1-1,3.3-1c0.3,0,0.6,0,1,0.1
		c0.3,0,0.6,0.1,0.7,0.2v2.7c-0.5-0.2-1.1-0.3-1.9-0.3c-1.2,0-2.3,0.4-3.2,1.2c-1,0.8-1.7,1.9-2.1,3.2v12.1h-2.9V875.1z"/>
	<path class="st1" d="M1106.5,870.4c1.5,1.9,3.5,2.8,5.9,2.8c1.2,0,2.2-0.3,2.9-0.8c0.7-0.5,1.1-1.2,1.1-2.1c0-0.7-0.2-1.2-0.6-1.7
		s-1.1-0.9-2.2-1.3l-2.5-1c-1.5-0.6-2.6-1.4-3.4-2.2c-0.7-0.8-1.1-1.9-1.1-3.1c0-0.9,0.2-1.7,0.7-2.5s1.2-1.4,2.1-1.8
		c0.9-0.5,2.1-0.7,3.4-0.7c1.1,0,2.2,0.2,3.2,0.6c1,0.4,1.8,0.9,2.5,1.5v3.2c-0.8-1-1.7-1.7-2.7-2.1c-1-0.5-2-0.7-3-0.7
		c-1.1,0-1.9,0.2-2.5,0.7s-0.8,1.1-0.8,1.8c0,0.6,0.2,1.1,0.7,1.5c0.4,0.4,1.2,0.8,2.2,1.2l2.4,1c1.5,0.6,2.7,1.4,3.4,2.3
		c0.7,0.9,1.1,2,1.1,3.2c0,1.7-0.7,3-2,4c-1.3,1-3,1.5-5,1.5c-1.3,0-2.4-0.2-3.4-0.6c-1-0.4-1.8-0.9-2.5-1.4L1106.5,870.4
		L1106.5,870.4z"/>
	<path class="st1" d="M1124.9,858.9h-4.1v-2.4h4.1v-5.6h3v5.6h4.1v2.4h-4.1V875h-3V858.9z"/>
	<path class="st1" d="M1141.1,858.9v-2.4h3.7v-1.8c0-1.1,0.2-2.2,0.6-3.1c0.4-1,1.1-1.7,2-2.3s1.9-0.9,3.2-0.9
		c0.9,0,1.7,0.2,2.3,0.5v2.7c-0.5-0.5-1.2-0.7-2.1-0.7s-1.7,0.3-2.2,1c-0.5,0.6-0.8,1.6-0.8,2.9v1.8h4.4v2.4h-4.4v16.1h-3V859h-3.7
		V858.9z"/>
	<path class="st1" d="M1153.8,865.5c0-1.9,0.4-3.5,1.1-5s1.8-2.6,3.1-3.4c1.3-0.8,2.8-1.2,4.5-1.2s3.2,0.4,4.5,1.2s2.3,1.9,3.1,3.4
		c0.7,1.5,1.1,3.1,1.1,5v0.6c0,1.9-0.4,3.5-1.1,4.9c-0.7,1.4-1.8,2.6-3.1,3.3c-1.3,0.8-2.8,1.2-4.5,1.2s-3.2-0.4-4.5-1.2
		s-2.4-1.9-3.1-3.3c-0.7-1.4-1.1-3.1-1.1-4.9V865.5z M1157,866.1c0,2.2,0.5,3.9,1.5,5.2s2.4,1.9,4.1,1.9c1.7,0,3.1-0.6,4.1-1.9
		s1.5-3,1.5-5.2v-0.6c0-2.2-0.5-3.9-1.5-5.2s-2.4-2-4.1-2c-1.7,0-3.1,0.7-4.1,2s-1.5,3-1.5,5.2V866.1z"/>
	<path class="st1" d="M1174.9,875.1v-18.6h2.7l0.2,3.2c0.5-1.2,1.3-2.1,2.2-2.7c0.9-0.7,2.1-1,3.3-1c0.3,0,0.6,0,1,0.1
		c0.3,0,0.6,0.1,0.7,0.2v2.7c-0.5-0.2-1.1-0.3-1.9-0.3c-1.2,0-2.3,0.4-3.2,1.2c-1,0.8-1.7,1.9-2.1,3.2v12.1h-2.9V875.1z"/>
	<path class="st1" d="M1212.4,875.1h-15.6v-25.8h15.4v2.6H1200v8.7h10.4v2.6H1200v9.4h12.4V875.1L1212.4,875.1z"/>
	<path class="st1" d="M1221.4,875.1l-7.1-18.6h3.2l5.6,15.4l5.7-15.4h2.9l-7.1,18.6H1221.4z"/>
	<path class="st1" d="M1233.1,865.4c0-1.8,0.4-3.4,1.1-4.8c0.7-1.4,1.7-2.5,2.9-3.3c1.3-0.8,2.7-1.2,4.3-1.2c2.5,0,4.4,0.8,5.9,2.5
		c1.4,1.6,2.1,4,2.1,7.1v1.2h-13.3c0.1,1.9,0.7,3.4,1.7,4.6c1,1.2,2.3,1.8,4,1.8c2.6,0,4.8-0.9,6.6-2.8v3c-0.8,0.7-1.7,1.2-2.8,1.6
		c-1.1,0.4-2.3,0.6-3.8,0.6c-1.8,0-3.4-0.4-4.7-1.2c-1.3-0.8-2.3-1.9-3-3.3c-0.7-1.4-1-3.1-1-4.9V865.4z M1246.5,864.4
		c0-2-0.5-3.5-1.4-4.5c-0.9-1-2.1-1.5-3.6-1.5c-1,0-1.8,0.2-2.6,0.7c-0.8,0.5-1.4,1.2-1.9,2.1c-0.5,0.9-0.8,2-0.8,3.2H1246.5z"/>
	<path class="st1" d="M1253.1,875.1v-18.6h2.7l0.2,3.2c0.5-1.2,1.3-2.1,2.2-2.7c0.9-0.7,2.1-1,3.3-1c0.3,0,0.6,0,1,0.1
		c0.3,0,0.6,0.1,0.7,0.2v2.7c-0.5-0.2-1.1-0.3-1.9-0.3c-1.2,0-2.3,0.4-3.2,1.2c-1,0.8-1.7,1.9-2.1,3.2v12.1h-2.9V875.1z"/>
	<path class="st1" d="M1271.7,875l-7.3-18.5h3.3l5.7,14.9l5.7-14.9h3.1l-10.4,26h-3.2L1271.7,875z"/>
	<path class="st1" d="M1283.4,865.5c0-1.9,0.4-3.5,1.1-5c0.7-1.5,1.8-2.6,3.1-3.4c1.3-0.8,2.8-1.2,4.5-1.2c1.7,0,3.2,0.4,4.5,1.2
		c1.3,0.8,2.3,1.9,3.1,3.4c0.7,1.5,1.1,3.1,1.1,5v0.6c0,1.9-0.4,3.5-1.1,4.9c-0.7,1.4-1.8,2.6-3.1,3.3c-1.3,0.8-2.8,1.2-4.5,1.2
		c-1.7,0-3.2-0.4-4.5-1.2c-1.3-0.8-2.4-1.9-3.1-3.3c-0.7-1.4-1.1-3.1-1.1-4.9V865.5L1283.4,865.5z M1286.6,866.1
		c0,2.2,0.5,3.9,1.5,5.2s2.4,1.9,4.1,1.9c1.7,0,3.1-0.6,4.1-1.9s1.5-3,1.5-5.2v-0.6c0-2.2-0.5-3.9-1.5-5.2s-2.4-2-4.1-2
		c-1.7,0-3.1,0.7-4.1,2s-1.5,3-1.5,5.2V866.1z"/>
	<path class="st1" d="M1304.5,875.1v-18.6h2.7l0.2,3.7c0.7-1.2,1.6-2.2,2.7-3c1.1-0.8,2.4-1.2,3.9-1.2c1.9,0,3.5,0.6,4.5,1.8
		c1.1,1.2,1.6,2.9,1.6,5.1v12.2h-3v-12c0-1.5-0.3-2.7-0.8-3.5s-1.5-1.2-2.7-1.2c-0.8,0-1.7,0.3-2.5,0.8c-0.9,0.5-1.6,1.2-2.2,2.1
		c-0.6,0.9-1.1,1.8-1.3,2.8V875h-3.1V875.1z"/>
	<path class="st1" d="M1323.4,865.4c0-1.8,0.4-3.4,1.1-4.8c0.7-1.4,1.7-2.5,2.9-3.3c1.3-0.8,2.7-1.2,4.3-1.2c2.5,0,4.4,0.8,5.9,2.5
		c1.4,1.6,2.1,4,2.1,7.1v1.2h-13.3c0.1,1.9,0.7,3.4,1.7,4.6c1,1.2,2.3,1.8,4,1.8c2.6,0,4.8-0.9,6.6-2.8v3c-0.8,0.7-1.7,1.2-2.8,1.6
		c-1.1,0.4-2.3,0.6-3.8,0.6c-1.8,0-3.4-0.4-4.7-1.2c-1.3-0.8-2.3-1.9-3-3.3c-0.7-1.4-1-3.1-1-4.9V865.4L1323.4,865.4z M1336.7,864.4
		c0-2-0.5-3.5-1.4-4.5s-2.1-1.5-3.6-1.5c-1,0-1.8,0.2-2.6,0.7c-0.8,0.5-1.4,1.2-1.9,2.1c-0.5,0.9-0.8,2-0.8,3.2H1336.7z"/>
</g>
<rect x="-1002.9" y="782.5" class="st0" width="504" height="100.9"/>
<text transform="matrix(1 0 0 1 -1002.8914 815.5126)"><tspan x="0" y="0" class="st1" style="font-family:'KiaSignatureBold'; font-size:40px;">The Kia EV5,</tspan><tspan x="0" y="59" class="st1" style="font-family:'KiaSignatureRegular'; font-size:34px;">accelerates the EV Revolution</tspan></text>
<g>
	<path class="st1" d="M32.1,857.1h-9.3v-4.4h24v4.4h-9.2v26h-5.4V857.1z"/>
	<path class="st1" d="M49.9,883.1v-30.6h5.2v12c0.8-1.1,1.8-2,3-2.7c1.2-0.7,2.5-1.1,4-1.1c2.4,0,4.3,0.7,5.7,2.1c1.3,1.4,2,3.4,2,6
		v14.3h-5.2v-14.3c0-2.8-1.1-4.2-3.4-4.2c-1.3,0-2.5,0.5-3.7,1.5s-2,2.2-2.4,3.6v13.3H49.9z"/>
	<path class="st1" d="M72.9,871.8c0-2.1,0.4-4,1.3-5.7c0.9-1.7,2.1-3,3.6-4s3.4-1.4,5.4-1.4c3.2,0,5.6,1,7.4,3
		c1.7,2,2.6,4.8,2.6,8.3v2H78c0.2,1.8,0.8,3.3,1.9,4.3c1.1,1,2.5,1.5,4.3,1.5c1.4,0,2.7-0.3,4-0.8c1.2-0.5,2.4-1.4,3.6-2.6v4.9
		c-1,0.7-2.1,1.3-3.5,1.7c-1.3,0.4-2.8,0.6-4.3,0.6c-2.3,0-4.4-0.5-6-1.4c-1.7-0.9-2.9-2.3-3.8-3.9c-0.9-1.7-1.3-3.6-1.3-5.8V871.8z
		 M88.1,870.1c0-1.7-0.4-3.1-1.3-4.1s-2.1-1.5-3.6-1.5c-1.4,0-2.6,0.5-3.5,1.5c-1,1-1.5,2.3-1.6,4H88.1z"/>
	<path class="st1" d="M113.1,883.1h-5.4v-30.4h5.4v13.2l12.9-13.2h6.9L118,867.5l15.5,15.6h-7.8l-12.6-13.4V883.1z"/>
	<path class="st1" d="M141.5,858h-5.2v-5.5h5.2V858z M141.5,883.1h-5.2v-21.8h5.2V883.1z"/>
	<path class="st1" d="M146.8,872.8c0.8-0.9,1.9-1.6,3.2-2.1c1.3-0.5,2.9-0.9,4.8-1.2l4.6-0.7c-0.2-2.9-2-4.3-5.3-4.3
		c-1.2,0-2.4,0.3-3.7,1c-1.2,0.7-2.2,1.6-3,2.7v-5c2.1-1.7,4.7-2.5,7.8-2.5c2.8,0,5,0.7,6.8,2.2c1.7,1.5,2.6,3.8,2.6,6.8v13.4h-4.3
		l-0.5-2.5c-1.1,1-2.2,1.8-3.4,2.3c-1.1,0.5-2.5,0.8-4,0.8c-2.2,0-3.9-0.6-5.1-1.8c-1.2-1.2-1.9-2.8-1.9-4.9
		C145.3,875.4,145.8,874,146.8,872.8z M151.2,878.9c0.5,0.5,1.2,0.8,2.1,0.8c1.3,0,2.5-0.4,3.6-1.2c1.1-0.8,1.9-1.8,2.5-2.9v-3
		l-2.6,0.4c-1.8,0.3-3.1,0.6-3.8,0.9c-0.7,0.3-1.3,0.7-1.8,1.1c-0.5,0.5-0.8,1.1-0.8,1.9C150.4,877.7,150.7,878.4,151.2,878.9z"/>
	<path class="st1" d="M199.4,883.1H180v-30.4h19.2v4.4h-13.8v8.2h11.6v4.4h-11.6v9h14V883.1z"/>
	<path class="st1" d="M212.6,883.1l-11.1-30.4h6l8.4,24.2l8.5-24.2h5.3l-11.1,30.4H212.6z"/>
	<path class="st1" d="M232.3,874.9c0.9,1.4,2.1,2.4,3.5,3.2c1.4,0.8,2.9,1.1,4.6,1.1c1.2,0,2.3-0.3,3.2-0.8c0.9-0.5,1.7-1.2,2.2-2.1
		c0.5-0.9,0.8-1.9,0.8-2.9c0-1.6-0.5-2.8-1.5-3.7s-2.2-1.4-3.7-1.4c-0.9,0-1.8,0.2-2.6,0.5c-0.8,0.4-1.4,0.8-1.7,1.2h-3.6l1.4-16.9
		h16v4.4h-11.1l-0.6,7.4c0.3-0.2,0.8-0.5,1.5-0.7c0.7-0.2,1.5-0.3,2.3-0.3c1.7,0,3.3,0.4,4.7,1.1s2.5,1.8,3.3,3.2
		c0.8,1.4,1.2,3.1,1.2,5.1c0,2.1-0.5,3.9-1.6,5.4c-1,1.5-2.4,2.7-4.2,3.5c-1.8,0.8-3.7,1.2-5.9,1.2c-3.3,0-6-0.9-8.3-2.7V874.9z"/>
	<path class="st1" d="M258.3,889.1h-3.6l2.1-12.2h6L258.3,889.1z"/>
	<path class="st1" d="M24.2,933.9c0.5-0.7,1.3-1.3,2.4-1.8c1.1-0.4,2.5-0.8,4.4-1.2l4.6-0.8c0-1.6-0.5-2.8-1.3-3.7
		c-0.8-0.8-2-1.2-3.7-1.2c-1.2,0-2.3,0.3-3.3,0.8c-1.1,0.5-1.9,1.3-2.7,2.2v-3c0.7-0.7,1.6-1.2,2.7-1.7c1.1-0.5,2.3-0.7,3.6-0.7
		c2.4,0,4.2,0.6,5.6,1.8s2,3,2,5.3v12h-2.3l-0.5-2.9c-0.9,1.1-1.9,1.9-3,2.5s-2.4,0.9-3.8,0.9c-1.7,0-3.1-0.5-4.1-1.4
		s-1.5-2.3-1.5-4C23.2,935.9,23.6,934.8,24.2,933.9z M27.1,939.3c0.6,0.5,1.4,0.8,2.3,0.8c1.2,0,2.3-0.4,3.5-1.1
		c1.2-0.7,2.1-1.7,2.7-3v-3.6l-3.1,0.6c-1.7,0.3-3,0.6-3.8,0.8c-0.9,0.3-1.5,0.7-1.9,1.2c-0.4,0.5-0.6,1.1-0.6,1.9
		C26.3,938,26.5,938.8,27.1,939.3z"/>
	<path class="st1" d="M42,932.4c0-1.8,0.4-3.4,1.2-4.8c0.8-1.4,1.8-2.6,3.2-3.4c1.4-0.8,3-1.2,4.7-1.2c1,0,2,0.2,3,0.6
		s1.8,0.9,2.5,1.5v3.2c-0.7-0.9-1.6-1.6-2.5-2.1c-0.9-0.5-1.9-0.7-3-0.7c-1.1,0-2.1,0.3-3,0.9c-0.9,0.6-1.6,1.4-2.1,2.5
		c-0.5,1.1-0.8,2.3-0.8,3.6v0.6c0,1.4,0.3,2.6,0.8,3.7c0.5,1.1,1.3,1.9,2.2,2.5c0.9,0.6,1.9,0.9,3,0.9c2.1,0,3.9-0.9,5.5-2.8v3.1
		c-0.7,0.6-1.5,1.1-2.5,1.5c-1,0.4-2,0.6-3,0.6c-1.7,0-3.3-0.4-4.7-1.2c-1.4-0.8-2.5-2-3.2-3.4c-0.8-1.4-1.2-3.1-1.2-4.9V932.4z"/>
	<path class="st1" d="M59,932.4c0-1.8,0.4-3.4,1.2-4.8c0.8-1.4,1.8-2.6,3.2-3.4c1.4-0.8,3-1.2,4.7-1.2c1,0,2,0.2,3,0.6
		s1.8,0.9,2.5,1.5v3.2c-0.7-0.9-1.6-1.6-2.5-2.1c-0.9-0.5-1.9-0.7-3-0.7c-1.1,0-2.1,0.3-3,0.9c-0.9,0.6-1.6,1.4-2.1,2.5
		c-0.5,1.1-0.8,2.3-0.8,3.6v0.6c0,1.4,0.3,2.6,0.8,3.7c0.5,1.1,1.3,1.9,2.2,2.5c0.9,0.6,1.9,0.9,3,0.9c2.1,0,3.9-0.9,5.5-2.8v3.1
		c-0.7,0.6-1.5,1.1-2.5,1.5c-1,0.4-2,0.6-3,0.6c-1.7,0-3.3-0.4-4.7-1.2c-1.4-0.8-2.5-2-3.2-3.4c-0.8-1.4-1.2-3.1-1.2-4.9V932.4z"/>
	<path class="st1" d="M75.9,932.3c0-1.8,0.4-3.4,1.1-4.8c0.7-1.4,1.7-2.5,2.9-3.3c1.3-0.8,2.7-1.2,4.3-1.2c2.5,0,4.4,0.8,5.9,2.5
		c1.4,1.6,2.1,4,2.1,7.1v1.2H78.9c0.1,1.9,0.7,3.4,1.7,4.6c1,1.2,2.3,1.8,4,1.8c2.6,0,4.8-0.9,6.6-2.8v3c-0.8,0.7-1.7,1.2-2.8,1.6
		c-1.1,0.4-2.3,0.6-3.8,0.6c-1.8,0-3.4-0.4-4.7-1.2c-1.3-0.8-2.3-1.9-3-3.3c-0.7-1.4-1-3.1-1-4.9V932.3z M89.2,931.4
		c0-2-0.5-3.5-1.4-4.5c-0.9-1-2.1-1.5-3.6-1.5c-1,0-1.8,0.2-2.6,0.7c-0.8,0.5-1.4,1.2-1.9,2.1c-0.5,0.9-0.8,2-0.8,3.2H89.2z"/>
	<path class="st1" d="M98.8,942.1h-3v-26h3V942.1z"/>
	<path class="st1" d="M102.3,932.3c0-1.8,0.4-3.4,1.1-4.8c0.7-1.4,1.7-2.5,2.9-3.3c1.3-0.8,2.7-1.2,4.3-1.2c2.5,0,4.4,0.8,5.9,2.5
		c1.4,1.6,2.1,4,2.1,7.1v1.2h-13.3c0.1,1.9,0.7,3.4,1.7,4.6c1,1.2,2.3,1.8,4,1.8c2.6,0,4.8-0.9,6.6-2.8v3c-0.8,0.7-1.7,1.2-2.8,1.6
		c-1.1,0.4-2.3,0.6-3.8,0.6c-1.8,0-3.4-0.4-4.7-1.2c-1.3-0.8-2.3-1.9-3-3.3c-0.7-1.4-1-3.1-1-4.9V932.3z M115.7,931.4
		c0-2-0.5-3.5-1.4-4.5c-0.9-1-2.1-1.5-3.6-1.5c-1,0-1.8,0.2-2.6,0.7c-0.8,0.5-1.4,1.2-1.9,2.1c-0.5,0.9-0.8,2-0.8,3.2H115.7z"/>
	<path class="st1" d="M122.3,942.1v-18.6h2.7l0.2,3.2c0.5-1.2,1.3-2.1,2.2-2.7c0.9-0.7,2.1-1,3.3-1c0.3,0,0.6,0,1,0.1
		c0.3,0,0.6,0.1,0.7,0.2v2.7c-0.5-0.2-1.1-0.3-1.9-0.3c-1.2,0-2.3,0.4-3.2,1.2c-1,0.8-1.7,1.9-2.1,3.2v12.1H122.3z"/>
	<path class="st1" d="M134.8,933.9c0.5-0.7,1.3-1.3,2.4-1.8c1.1-0.4,2.5-0.8,4.4-1.2l4.6-0.8c0-1.6-0.5-2.8-1.3-3.7
		c-0.8-0.8-2-1.2-3.7-1.2c-1.2,0-2.3,0.3-3.3,0.8c-1.1,0.5-1.9,1.3-2.7,2.2v-3c0.7-0.7,1.6-1.2,2.7-1.7c1.1-0.5,2.3-0.7,3.6-0.7
		c2.4,0,4.2,0.6,5.6,1.8s2,3,2,5.3v12h-2.3l-0.5-2.9c-0.9,1.1-1.9,1.9-3,2.5s-2.4,0.9-3.8,0.9c-1.7,0-3.1-0.5-4.1-1.4
		s-1.5-2.3-1.5-4C133.8,935.9,134.1,934.8,134.8,933.9z M137.7,939.3c0.6,0.5,1.4,0.8,2.3,0.8c1.2,0,2.3-0.4,3.5-1.1
		c1.2-0.7,2.1-1.7,2.7-3v-3.6l-3.1,0.6c-1.7,0.3-3,0.6-3.8,0.8c-0.9,0.3-1.5,0.7-1.9,1.2c-0.4,0.5-0.6,1.1-0.6,1.9
		C136.8,938,137.1,938.8,137.7,939.3z"/>
	<path class="st1" d="M155.7,925.9h-4.1v-2.4h4.1v-5.6h3v5.6h4.1v2.4h-4.1v16.2h-3V925.9z"/>
	<path class="st1" d="M164,932.3c0-1.8,0.4-3.4,1.1-4.8c0.7-1.4,1.7-2.5,2.9-3.3c1.3-0.8,2.7-1.2,4.3-1.2c2.5,0,4.4,0.8,5.9,2.5
		c1.4,1.6,2.1,4,2.1,7.1v1.2H167c0.1,1.9,0.7,3.4,1.7,4.6c1,1.2,2.3,1.8,4,1.8c2.6,0,4.8-0.9,6.6-2.8v3c-0.8,0.7-1.7,1.2-2.8,1.6
		c-1.1,0.4-2.3,0.6-3.8,0.6c-1.8,0-3.4-0.4-4.7-1.2c-1.3-0.8-2.3-1.9-3-3.3c-0.7-1.4-1-3.1-1-4.9V932.3z M177.3,931.4
		c0-2-0.5-3.5-1.4-4.5c-0.9-1-2.1-1.5-3.6-1.5c-1,0-1.8,0.2-2.6,0.7c-0.8,0.5-1.4,1.2-1.9,2.1c-0.5,0.9-0.8,2-0.8,3.2H177.3z"/>
	<path class="st1" d="M183.2,937.4c1.5,1.9,3.5,2.8,5.9,2.8c1.2,0,2.2-0.3,2.9-0.8c0.7-0.5,1.1-1.2,1.1-2.1c0-0.7-0.2-1.2-0.6-1.7
		s-1.1-0.9-2.2-1.3l-2.5-1c-1.5-0.6-2.6-1.4-3.4-2.2c-0.7-0.8-1.1-1.9-1.1-3.1c0-0.9,0.2-1.7,0.7-2.5c0.5-0.8,1.2-1.4,2.1-1.8
		c0.9-0.5,2.1-0.7,3.4-0.7c1.1,0,2.2,0.2,3.2,0.6c1,0.4,1.8,0.9,2.5,1.5v3.2c-0.8-1-1.7-1.7-2.7-2.1c-1-0.5-2-0.7-3-0.7
		c-1.1,0-1.9,0.2-2.5,0.7c-0.6,0.5-0.8,1.1-0.8,1.8c0,0.6,0.2,1.1,0.7,1.5c0.4,0.4,1.2,0.8,2.2,1.2l2.4,1c1.5,0.6,2.7,1.4,3.4,2.3
		c0.7,0.9,1.1,2,1.1,3.2c0,1.7-0.7,3-2,4c-1.3,1-3,1.5-5,1.5c-1.3,0-2.4-0.2-3.4-0.6c-1-0.4-1.8-0.9-2.5-1.4V937.4z"/>
	<path class="st1" d="M210.3,925.9h-4.1v-2.4h4.1v-5.6h3v5.6h4.1v2.4h-4.1v16.2h-3V925.9z"/>
	<path class="st1" d="M220,942.1v-26h3v11.2c0.7-1.2,1.6-2.1,2.7-3c1.1-0.8,2.4-1.2,3.8-1.2c2,0,3.5,0.6,4.5,1.8s1.6,2.9,1.6,5.1
		v12.2h-3v-12c0-1.5-0.3-2.7-0.8-3.5s-1.5-1.2-2.7-1.2c-0.8,0-1.7,0.3-2.5,0.8c-0.9,0.5-1.6,1.2-2.2,2.1s-1.1,1.8-1.3,2.8v11H220z"
		/>
	<path class="st1" d="M238.9,932.3c0-1.8,0.4-3.4,1.1-4.8c0.7-1.4,1.7-2.5,2.9-3.3c1.3-0.8,2.7-1.2,4.3-1.2c2.5,0,4.4,0.8,5.9,2.5
		c1.4,1.6,2.1,4,2.1,7.1v1.2h-13.3c0.1,1.9,0.7,3.4,1.7,4.6c1,1.2,2.3,1.8,4,1.8c2.6,0,4.8-0.9,6.6-2.8v3c-0.8,0.7-1.7,1.2-2.8,1.6
		c-1.1,0.4-2.3,0.6-3.8,0.6c-1.8,0-3.4-0.4-4.7-1.2c-1.3-0.8-2.3-1.9-3-3.3c-0.7-1.4-1-3.1-1-4.9V932.3z M252.2,931.4
		c0-2-0.5-3.5-1.4-4.5c-0.9-1-2.1-1.5-3.6-1.5c-1,0-1.8,0.2-2.6,0.7c-0.8,0.5-1.4,1.2-1.9,2.1c-0.5,0.9-0.8,2-0.8,3.2H252.2z"/>
	<path class="st1" d="M283.4,942.1h-15.6v-25.8h15.4v2.6H271v8.7h10.4v2.6H271v9.4h12.4V942.1z"/>
	<path class="st1" d="M295.1,942.1l-9.7-25.8h3.4l8.1,22l7.9-22h3.2l-9.5,25.8H295.1z"/>
	<path class="st1" d="M319.8,942.1v-25.8h9.4c1.7,0,3.2,0.3,4.5,0.9c1.3,0.6,2.3,1.5,3,2.5c0.7,1.1,1.1,2.3,1.1,3.7v0.5
		c0,1.9-0.7,3.5-2,4.8c-1.3,1.3-3.1,2-5.3,2.3l8.6,11h-4l-8.3-10.9H323v10.9H319.8z M328.8,928.6c1.8,0,3.2-0.4,4.2-1.3
		c1-0.8,1.5-2,1.5-3.4v-0.5c0-1.4-0.5-2.5-1.5-3.4c-1-0.8-2.4-1.3-4.2-1.3H323v9.8H328.8z"/>
	<path class="st1" d="M340.2,932.3c0-1.8,0.4-3.4,1.1-4.8c0.7-1.4,1.7-2.5,2.9-3.3c1.3-0.8,2.7-1.2,4.3-1.2c2.5,0,4.4,0.8,5.9,2.5
		c1.4,1.6,2.1,4,2.1,7.1v1.2h-13.3c0.1,1.9,0.7,3.4,1.7,4.6c1,1.2,2.3,1.8,4,1.8c2.6,0,4.8-0.9,6.6-2.8v3c-0.8,0.7-1.7,1.2-2.8,1.6
		s-2.3,0.6-3.8,0.6c-1.8,0-3.4-0.4-4.7-1.2c-1.3-0.8-2.3-1.9-3-3.3c-0.7-1.4-1-3.1-1-4.9V932.3z M353.6,931.4c0-2-0.5-3.5-1.4-4.5
		c-0.9-1-2.1-1.5-3.6-1.5c-1,0-1.8,0.2-2.6,0.7c-0.8,0.5-1.4,1.2-1.9,2.1c-0.5,0.9-0.8,2-0.8,3.2H353.6z"/>
	<path class="st1" d="M365.1,942.1l-7.1-18.6h3.2l5.6,15.4l5.7-15.4h2.9l-7.1,18.6H365.1z"/>
	<path class="st1" d="M376.8,932.5c0-1.9,0.4-3.5,1.1-5c0.7-1.5,1.8-2.6,3.1-3.4c1.3-0.8,2.8-1.2,4.5-1.2c1.7,0,3.2,0.4,4.5,1.2
		c1.3,0.8,2.3,1.9,3.1,3.4c0.7,1.5,1.1,3.1,1.1,5v0.6c0,1.9-0.4,3.5-1.1,4.9c-0.7,1.4-1.8,2.6-3.1,3.3c-1.3,0.8-2.8,1.2-4.5,1.2
		c-1.7,0-3.2-0.4-4.5-1.2c-1.3-0.8-2.4-1.9-3.1-3.3c-0.7-1.4-1.1-3.1-1.1-4.9V932.5z M379.9,933.1c0,2.2,0.5,3.9,1.5,5.2
		c1,1.3,2.4,1.9,4.1,1.9c1.7,0,3.1-0.6,4.1-1.9c1-1.3,1.5-3,1.5-5.2v-0.6c0-2.2-0.5-3.9-1.5-5.2c-1-1.3-2.4-2-4.1-2
		c-1.7,0-3.1,0.7-4.1,2c-1,1.3-1.5,3-1.5,5.2V933.1z"/>
	<path class="st1" d="M400.8,942.1h-3v-26h3V942.1z"/>
	<path class="st1" d="M405.4,923.5h3v12c0,1.5,0.3,2.7,0.8,3.5s1.5,1.2,2.7,1.2c0.9,0,1.7-0.3,2.6-0.8c0.8-0.5,1.6-1.2,2.2-2.1
		c0.6-0.9,1.1-1.8,1.3-2.8v-10.9h3v18.6h-2.8l-0.2-3.7c-0.7,1.2-1.6,2.2-2.7,3s-2.4,1.2-3.9,1.2c-1.9,0-3.4-0.6-4.5-1.8
		c-1-1.2-1.6-2.9-1.6-5.1V923.5z"/>
	<path class="st1" d="M427.7,925.9h-4.1v-2.4h4.1v-5.6h3v5.6h4.1v2.4h-4.1v16.2h-3V925.9z"/>
	<path class="st1" d="M440.4,920.4h-3v-3.8h3V920.4z M440.4,942.1h-3v-18.6h3V942.1z"/>
	<path class="st1" d="M444,932.5c0-1.9,0.4-3.5,1.1-5c0.7-1.5,1.8-2.6,3.1-3.4c1.3-0.8,2.8-1.2,4.5-1.2c1.7,0,3.2,0.4,4.5,1.2
		c1.3,0.8,2.3,1.9,3.1,3.4c0.7,1.5,1.1,3.1,1.1,5v0.6c0,1.9-0.4,3.5-1.1,4.9c-0.7,1.4-1.8,2.6-3.1,3.3c-1.3,0.8-2.8,1.2-4.5,1.2
		c-1.7,0-3.2-0.4-4.5-1.2c-1.3-0.8-2.4-1.9-3.1-3.3c-0.7-1.4-1.1-3.1-1.1-4.9V932.5z M447.1,933.1c0,2.2,0.5,3.9,1.5,5.2
		c1,1.3,2.4,1.9,4.1,1.9c1.7,0,3.1-0.6,4.1-1.9c1-1.3,1.5-3,1.5-5.2v-0.6c0-2.2-0.5-3.9-1.5-5.2c-1-1.3-2.4-2-4.1-2
		c-1.7,0-3.1,0.7-4.1,2c-1,1.3-1.5,3-1.5,5.2V933.1z"/>
	<path class="st1" d="M465,942.1v-18.6h2.7l0.2,3.7c0.7-1.2,1.6-2.2,2.7-3c1.1-0.8,2.4-1.2,3.9-1.2c1.9,0,3.5,0.6,4.5,1.8
		s1.6,2.9,1.6,5.1v12.2h-3v-12c0-1.5-0.3-2.7-0.8-3.5s-1.5-1.2-2.7-1.2c-0.8,0-1.7,0.3-2.5,0.8c-0.9,0.5-1.6,1.2-2.2,2.1
		c-0.6,0.9-1.1,1.8-1.3,2.8v10.9H465z"/>
</g>
</svg>
