<?xml version="1.0" encoding="utf-8"?>
<!-- Generator: Adobe Illustrator 27.5.0, SVG Export Plug-In . SVG Version: 6.00 Build 0)  -->
<svg version="1.1" id="레이어_1" xmlns="http://www.w3.org/2000/svg" xmlns:xlink="http://www.w3.org/1999/xlink" x="0px"
	 y="0px" viewBox="0 0 640 1085" style="enable-background:new 0 0 640 1085;" xml:space="preserve">
<style type="text/css">
	.st0{fill:none;}
	.st1{fill:#FFFFFF;}
</style>
<rect y="412.4" class="st0" width="640" height="260.3"/>
<rect class="st0" width="44" height="41.4"/>
<g>
	<path class="st1" d="M30,448.4h-8v-2.6h19v2.6h-7.9v23.3H30V448.4z"/>
	<path class="st1" d="M44.3,471.7v-26h3v11.2c0.7-1.2,1.6-2.1,2.7-3c1.1-0.8,2.4-1.2,3.8-1.2c2,0,3.5,0.6,4.5,1.8s1.6,2.9,1.6,5.1
		v12.2h-3v-12c0-1.5-0.3-2.7-0.8-3.5c-0.5-0.8-1.5-1.2-2.7-1.2c-0.8,0-1.7,0.3-2.5,0.8c-0.9,0.5-1.6,1.2-2.2,2.1s-1.1,1.8-1.3,2.8
		v11H44.3z"/>
	<path class="st1" d="M63.2,462c0-1.8,0.4-3.4,1.1-4.8c0.7-1.4,1.7-2.5,2.9-3.3c1.3-0.8,2.7-1.2,4.3-1.2c2.5,0,4.4,0.8,5.9,2.5
		c1.4,1.6,2.1,4,2.1,7.1v1.2H66.2c0.1,1.9,0.7,3.4,1.7,4.6c1,1.2,2.3,1.8,4,1.8c2.6,0,4.8-0.9,6.6-2.8v3c-0.8,0.7-1.7,1.2-2.8,1.6
		c-1.1,0.4-2.3,0.6-3.8,0.6c-1.8,0-3.4-0.4-4.7-1.2c-1.3-0.8-2.3-1.9-3-3.3s-1-3.1-1-4.9V462z M76.5,461.1c0-2-0.5-3.5-1.4-4.5
		c-0.9-1-2.1-1.5-3.6-1.5c-1,0-1.8,0.2-2.6,0.7c-0.8,0.5-1.4,1.2-1.9,2.1c-0.5,0.9-0.8,2-0.8,3.2H76.5z"/>
	<path class="st1" d="M91.7,457.2c0.7-1.5,1.7-2.6,2.9-3.4c1.2-0.8,2.6-1.2,4.2-1.2c1.2,0,2.3,0.3,3.3,0.9c1.1,0.6,1.9,1.4,2.6,2.4
		v-10.2h3v26H105l-0.2-2.9c-0.7,1-1.5,1.8-2.6,2.5c-1.1,0.6-2.2,0.9-3.4,0.9c-1.5,0-2.9-0.4-4.2-1.2c-1.2-0.8-2.2-1.9-2.9-3.4
		c-0.7-1.5-1.1-3.2-1.1-5.2C90.6,460.4,91,458.7,91.7,457.2z M94.5,466.3c0.5,1.1,1.1,2,2,2.6c0.8,0.6,1.8,0.9,2.8,0.9
		c1.2,0,2.2-0.4,3.2-1.3c1-0.8,1.8-1.9,2.2-3.1v-6.1c-0.5-1.3-1.2-2.3-2.2-3.1c-1-0.8-2.1-1.2-3.2-1.2c-1,0-2,0.3-2.8,0.9
		c-0.8,0.6-1.5,1.5-2,2.6s-0.7,2.4-0.7,3.9C93.8,463.9,94,465.2,94.5,466.3z"/>
	<path class="st1" d="M112.4,463.6c0.5-0.7,1.3-1.3,2.4-1.8c1.1-0.4,2.5-0.8,4.4-1.2l4.6-0.8c0-1.6-0.5-2.8-1.3-3.7
		c-0.8-0.8-2-1.2-3.7-1.2c-1.2,0-2.3,0.3-3.3,0.8c-1.1,0.5-1.9,1.3-2.7,2.2v-3c0.7-0.7,1.6-1.2,2.7-1.7c1.1-0.5,2.3-0.7,3.6-0.7
		c2.4,0,4.2,0.6,5.6,1.8c1.4,1.2,2,3,2,5.3v12h-2.3l-0.5-2.9c-0.9,1.1-1.9,1.9-3,2.5c-1.2,0.6-2.4,0.9-3.8,0.9
		c-1.7,0-3.1-0.5-4.1-1.4s-1.5-2.3-1.5-4C111.3,465.6,111.7,464.5,112.4,463.6z M115.2,469c0.6,0.5,1.4,0.8,2.3,0.8
		c1.2,0,2.3-0.4,3.5-1.1c1.2-0.7,2.1-1.7,2.7-3v-3.6l-3.1,0.6c-1.7,0.3-3,0.6-3.8,0.8c-0.9,0.3-1.5,0.7-1.9,1.2
		c-0.4,0.5-0.6,1.1-0.6,1.9C114.4,467.7,114.7,468.4,115.2,469z"/>
	<path class="st1" d="M134.7,471.7l-5.4-18.6h3.1l4.1,15.3l4-15.3h3.8l4.1,15.2l4.2-15.2h2.8l-5.3,18.6h-3.6l-4.1-15.3l-4.1,15.3
		L134.7,471.7z"/>
	<path class="st1" d="M158.2,471.7v-18.6h2.7l0.2,3.7c0.7-1.2,1.6-2.2,2.7-3c1.1-0.8,2.4-1.2,3.9-1.2c1.9,0,3.5,0.6,4.5,1.8
		c1.1,1.2,1.6,2.9,1.6,5.1v12.2h-3v-12c0-1.5-0.3-2.7-0.8-3.5c-0.5-0.8-1.5-1.2-2.7-1.2c-0.8,0-1.7,0.3-2.5,0.8
		c-0.9,0.5-1.6,1.2-2.2,2.1c-0.6,0.9-1.1,1.8-1.3,2.8v10.9H158.2z"/>
	<path class="st1" d="M185.9,462.1c0-1.9,0.4-3.5,1.1-5c0.7-1.5,1.8-2.6,3.1-3.4c1.3-0.8,2.8-1.2,4.5-1.2c1.7,0,3.2,0.4,4.5,1.2
		c1.3,0.8,2.3,1.9,3.1,3.4c0.7,1.5,1.1,3.1,1.1,5v0.6c0,1.9-0.4,3.5-1.1,4.9c-0.7,1.4-1.8,2.6-3.1,3.3c-1.3,0.8-2.8,1.2-4.5,1.2
		c-1.7,0-3.2-0.4-4.5-1.2c-1.3-0.8-2.4-1.9-3.1-3.3c-0.7-1.4-1.1-3.1-1.1-4.9V462.1z M189,462.7c0,2.2,0.5,3.9,1.5,5.2
		c1,1.3,2.4,1.9,4.1,1.9c1.7,0,3.1-0.6,4.1-1.9s1.5-3,1.5-5.2v-0.6c0-2.2-0.5-3.9-1.5-5.2c-1-1.3-2.4-2-4.1-2c-1.7,0-3.1,0.7-4.1,2
		c-1,1.3-1.5,3-1.5,5.2V462.7z"/>
	<path class="st1" d="M204.6,455.5v-2.4h3.7v-1.8c0-1.1,0.2-2.2,0.6-3.1c0.4-1,1.1-1.7,2-2.3s1.9-0.9,3.2-0.9c0.9,0,1.7,0.2,2.3,0.5
		v2.7c-0.5-0.5-1.2-0.7-2.1-0.7c-0.9,0-1.7,0.3-2.2,1c-0.5,0.6-0.8,1.6-0.8,2.9v1.8h4.4v2.4h-4.4v16.1h-3v-16.1H204.6z"/>
</g>
<g>
	<path class="st1" d="M25.6,510.6h-4.1v-2.4h4.1v-5.6h3v5.6h4.1v2.4h-4.1v16.1h-3V510.6z"/>
	<path class="st1" d="M35.3,526.7v-26h3v11.2c0.7-1.2,1.6-2.1,2.7-3c1.1-0.8,2.4-1.2,3.8-1.2c2,0,3.5,0.6,4.5,1.8s1.6,2.9,1.6,5.1
		v12.2h-3v-12c0-1.5-0.3-2.7-0.8-3.5c-0.5-0.8-1.5-1.2-2.7-1.2c-0.8,0-1.7,0.3-2.5,0.8c-0.9,0.5-1.6,1.2-2.2,2.1s-1.1,1.8-1.3,2.8
		v11H35.3z"/>
	<path class="st1" d="M54.1,517c0-1.8,0.4-3.4,1.1-4.8c0.7-1.4,1.7-2.5,2.9-3.3c1.3-0.8,2.7-1.2,4.3-1.2c2.5,0,4.4,0.8,5.9,2.5
		c1.4,1.6,2.1,4,2.1,7.1v1.2H57.1c0.1,1.9,0.7,3.4,1.7,4.6c1,1.2,2.3,1.8,4,1.8c2.6,0,4.8-0.9,6.6-2.8v3c-0.8,0.7-1.7,1.2-2.8,1.6
		c-1.1,0.4-2.3,0.6-3.8,0.6c-1.8,0-3.4-0.4-4.7-1.2c-1.3-0.8-2.3-1.9-3-3.3s-1-3.1-1-4.9V517z M67.5,516.1c0-2-0.5-3.5-1.4-4.5
		c-0.9-1-2.1-1.5-3.6-1.5c-1,0-1.8,0.2-2.6,0.7c-0.8,0.5-1.4,1.2-1.9,2.1c-0.5,0.9-0.8,2-0.8,3.2H67.5z"/>
	<path class="st1" d="M82.5,520.5c0.8,1.3,1.9,2.3,3.2,3.1s2.7,1.2,4.2,1.2c1.1,0,2.1-0.2,2.9-0.6c0.8-0.4,1.4-1,1.8-1.6
		c0.4-0.7,0.6-1.4,0.6-2.1c0-1-0.3-1.9-1-2.7c-0.6-0.7-1.6-1.5-2.9-2.2l-3.7-1.9c-1.5-0.8-2.7-1.7-3.6-2.8c-0.9-1-1.3-2.3-1.3-3.9
		c0-1.2,0.3-2.3,0.9-3.3c0.6-1,1.5-1.8,2.7-2.3c1.2-0.6,2.5-0.8,4.1-0.8c1.3,0,2.5,0.3,3.8,0.8c1.3,0.5,2.3,1.2,3.2,2.1v3.7
		c-0.9-1.2-2-2.2-3.3-3c-1.3-0.7-2.5-1.1-3.8-1.1c-1.3,0-2.4,0.4-3.2,1.1c-0.8,0.7-1.2,1.6-1.2,2.7c0,0.9,0.3,1.6,0.9,2.2
		c0.6,0.6,1.5,1.3,2.9,2l3.6,1.9c1.7,0.9,3,1.9,3.9,3.1c0.8,1.2,1.3,2.6,1.3,4.2c0,1.4-0.3,2.6-1,3.7c-0.7,1.1-1.7,1.9-3,2.5
		c-1.3,0.6-2.8,0.9-4.6,0.9c-1.6,0-3.1-0.3-4.4-0.8c-1.3-0.6-2.3-1.2-3-2V520.5z"/>
	<path class="st1" d="M102.5,500.9h3.2v16.3c0,2.3,0.6,4.2,1.8,5.5c1.2,1.3,2.9,2,5.2,2c2.2,0,3.9-0.7,5.1-2
		c1.2-1.3,1.8-3.2,1.8-5.5v-16.3h3v16.4c0,1.9-0.4,3.6-1.2,5.1c-0.8,1.5-1.9,2.7-3.4,3.5c-1.5,0.8-3.3,1.3-5.4,1.3
		c-2.1,0-3.8-0.4-5.4-1.3c-1.5-0.9-2.7-2-3.4-3.5c-0.8-1.5-1.2-3.2-1.2-5.1V500.9z"/>
	<path class="st1" d="M135,526.7l-9.7-25.8h3.4l8.1,22l7.9-22h3.2l-9.5,25.8H135z"/>
	<path class="st1" d="M175.3,526.7h-15.6v-25.8h15.4v2.6h-12.2v8.7h10.4v2.6h-10.4v9.4h12.4V526.7z"/>
	<path class="st1" d="M187,526.7l-9.7-25.8h3.4l8.1,22l7.9-22h3.2l-9.5,25.8H187z"/>
</g>
<g>
	<path class="st1" d="M22.4,572c0-1.8,0.4-3.4,1.1-4.8c0.7-1.4,1.7-2.5,2.9-3.3c1.3-0.8,2.7-1.2,4.3-1.2c2.5,0,4.4,0.8,5.9,2.5
		c1.4,1.6,2.1,4,2.1,7.1v1.2H25.4c0.1,1.9,0.7,3.4,1.7,4.6c1,1.2,2.3,1.8,4,1.8c2.6,0,4.8-0.9,6.6-2.8v3c-0.8,0.7-1.7,1.2-2.8,1.6
		c-1.1,0.4-2.3,0.6-3.8,0.6c-1.8,0-3.4-0.4-4.7-1.2c-1.3-0.8-2.3-1.9-3-3.3s-1-3.1-1-4.9V572z M35.8,571.1c0-2-0.5-3.5-1.4-4.5
		c-0.9-1-2.1-1.5-3.6-1.5c-1,0-1.8,0.2-2.6,0.7c-0.8,0.5-1.4,1.2-1.9,2.1c-0.5,0.9-0.8,2-0.8,3.2H35.8z"/>
	<path class="st1" d="M47.2,581.7l-7.1-18.6h3.2l5.6,15.4l5.7-15.4h2.9l-7.1,18.6H47.2z"/>
	<path class="st1" d="M59,572c0-1.8,0.4-3.4,1.1-4.8c0.7-1.4,1.7-2.5,2.9-3.3c1.3-0.8,2.7-1.2,4.3-1.2c2.5,0,4.4,0.8,5.9,2.5
		c1.4,1.6,2.1,4,2.1,7.1v1.2H62c0.1,1.9,0.7,3.4,1.7,4.6c1,1.2,2.3,1.8,4,1.8c2.6,0,4.8-0.9,6.6-2.8v3c-0.8,0.7-1.7,1.2-2.8,1.6
		c-1.1,0.4-2.3,0.6-3.8,0.6c-1.8,0-3.4-0.4-4.7-1.2c-1.3-0.8-2.3-1.9-3-3.3s-1-3.1-1-4.9V572z M72.3,571.1c0-2-0.5-3.5-1.4-4.5
		c-0.9-1-2.1-1.5-3.6-1.5c-1,0-1.8,0.2-2.6,0.7c-0.8,0.5-1.4,1.2-1.9,2.1c-0.5,0.9-0.8,2-0.8,3.2H72.3z"/>
	<path class="st1" d="M78.9,581.7v-18.6h2.7l0.2,3.2c0.5-1.2,1.3-2.1,2.2-2.7c0.9-0.7,2.1-1,3.3-1c0.3,0,0.6,0,1,0.1
		c0.3,0,0.6,0.1,0.7,0.2v2.7c-0.5-0.2-1.1-0.3-1.9-0.3c-1.2,0-2.3,0.4-3.2,1.2c-1,0.8-1.7,1.9-2.1,3.2v12.1H78.9z"/>
	<path class="st1" d="M97.6,581.7l-7.3-18.5h3.3l5.7,14.9l5.7-14.9h3.1l-10.4,26h-3.2L97.6,581.7z"/>
	<path class="st1" d="M109.3,572.2c0-1.9,0.4-3.5,1.1-5c0.7-1.5,1.8-2.6,3.1-3.4c1.3-0.8,2.8-1.2,4.5-1.2c1.7,0,3.2,0.4,4.5,1.2
		c1.3,0.8,2.3,1.9,3.1,3.4c0.7,1.5,1.1,3.1,1.1,5v0.6c0,1.9-0.4,3.5-1.1,4.9c-0.7,1.4-1.8,2.6-3.1,3.3c-1.3,0.8-2.8,1.2-4.5,1.2
		c-1.7,0-3.2-0.4-4.5-1.2c-1.3-0.8-2.4-1.9-3.1-3.3c-0.7-1.4-1.1-3.1-1.1-4.9V572.2z M112.4,572.7c0,2.2,0.5,3.9,1.5,5.2
		c1,1.3,2.4,1.9,4.1,1.9c1.7,0,3.1-0.6,4.1-1.9s1.5-3,1.5-5.2v-0.6c0-2.2-0.5-3.9-1.5-5.2c-1-1.3-2.4-2-4.1-2c-1.7,0-3.1,0.7-4.1,2
		c-1,1.3-1.5,3-1.5,5.2V572.7z"/>
	<path class="st1" d="M130.3,581.7v-18.6h2.7l0.2,3.7c0.7-1.2,1.6-2.2,2.7-3c1.1-0.8,2.4-1.2,3.9-1.2c1.9,0,3.5,0.6,4.5,1.8
		c1.1,1.2,1.6,2.9,1.6,5.1v12.2h-3v-12c0-1.5-0.3-2.7-0.8-3.5c-0.5-0.8-1.5-1.2-2.7-1.2c-0.8,0-1.7,0.3-2.5,0.8
		c-0.9,0.5-1.6,1.2-2.2,2.1c-0.6,0.9-1.1,1.8-1.3,2.8v10.9H130.3z"/>
	<path class="st1" d="M149.1,572c0-1.8,0.4-3.4,1.1-4.8c0.7-1.4,1.7-2.5,2.9-3.3c1.3-0.8,2.7-1.2,4.3-1.2c2.5,0,4.4,0.8,5.9,2.5
		c1.4,1.6,2.1,4,2.1,7.1v1.2h-13.3c0.1,1.9,0.7,3.4,1.7,4.6c1,1.2,2.3,1.8,4,1.8c2.6,0,4.8-0.9,6.6-2.8v3c-0.8,0.7-1.7,1.2-2.8,1.6
		c-1.1,0.4-2.3,0.6-3.8,0.6c-1.8,0-3.4-0.4-4.7-1.2c-1.3-0.8-2.3-1.9-3-3.3s-1-3.1-1-4.9V572z M162.5,571.1c0-2-0.5-3.5-1.4-4.5
		c-0.9-1-2.1-1.5-3.6-1.5c-1,0-1.8,0.2-2.6,0.7c-0.8,0.5-1.4,1.2-1.9,2.1c-0.5,0.9-0.8,2-0.8,3.2H162.5z"/>
	<path class="st1" d="M177.9,581.7v-26h3v11.2c0.7-1.2,1.6-2.1,2.7-3c1.1-0.8,2.4-1.2,3.8-1.2c2,0,3.5,0.6,4.5,1.8s1.6,2.9,1.6,5.1
		v12.2h-3v-12c0-1.5-0.3-2.7-0.8-3.5c-0.5-0.8-1.5-1.2-2.7-1.2c-0.8,0-1.7,0.3-2.5,0.8c-0.9,0.5-1.6,1.2-2.2,2.1s-1.1,1.8-1.3,2.8
		v11H177.9z"/>
	<path class="st1" d="M197.9,573.6c0.5-0.7,1.3-1.3,2.4-1.8c1.1-0.4,2.5-0.8,4.4-1.2l4.6-0.8c0-1.6-0.5-2.8-1.3-3.7
		c-0.8-0.8-2-1.2-3.7-1.2c-1.2,0-2.3,0.3-3.3,0.8c-1.1,0.5-1.9,1.3-2.7,2.2v-3c0.7-0.7,1.6-1.2,2.7-1.7c1.1-0.5,2.3-0.7,3.6-0.7
		c2.4,0,4.2,0.6,5.6,1.8c1.4,1.2,2,3,2,5.3v12h-2.3l-0.5-2.9c-0.9,1.1-1.9,1.9-3,2.5c-1.2,0.6-2.4,0.9-3.8,0.9
		c-1.7,0-3.1-0.5-4.1-1.4s-1.5-2.3-1.5-4C196.8,575.6,197.2,574.5,197.9,573.6z M200.8,579c0.6,0.5,1.4,0.8,2.3,0.8
		c1.2,0,2.3-0.4,3.5-1.1c1.2-0.7,2.1-1.7,2.7-3v-3.6l-3.1,0.6c-1.7,0.3-3,0.6-3.8,0.8c-0.9,0.3-1.5,0.7-1.9,1.2
		c-0.4,0.5-0.6,1.1-0.6,1.9C199.9,577.7,200.2,578.5,200.8,579z"/>
	<path class="st1" d="M216.2,577c1.5,1.9,3.5,2.8,5.9,2.8c1.2,0,2.2-0.3,2.9-0.8c0.7-0.5,1.1-1.2,1.1-2.1c0-0.7-0.2-1.2-0.6-1.7
		c-0.4-0.5-1.1-0.9-2.2-1.3l-2.5-1c-1.5-0.6-2.6-1.4-3.4-2.2c-0.7-0.8-1.1-1.9-1.1-3.1c0-0.9,0.2-1.7,0.7-2.5
		c0.5-0.8,1.2-1.4,2.1-1.8c0.9-0.5,2.1-0.7,3.4-0.7c1.1,0,2.2,0.2,3.2,0.6c1,0.4,1.8,0.9,2.5,1.5v3.2c-0.8-1-1.7-1.7-2.7-2.1
		c-1-0.5-2-0.7-3-0.7c-1.1,0-1.9,0.2-2.5,0.7c-0.6,0.5-0.8,1.1-0.8,1.8c0,0.6,0.2,1.1,0.7,1.5c0.4,0.4,1.2,0.8,2.2,1.2l2.4,1
		c1.5,0.6,2.7,1.4,3.4,2.3c0.7,0.9,1.1,2,1.1,3.2c0,1.7-0.7,3-2,4c-1.3,1-3,1.5-5,1.5c-1.3,0-2.4-0.2-3.4-0.6
		c-1-0.4-1.8-0.9-2.5-1.4V577z"/>
</g>
<g>
	<path class="st1" d="M23.5,622.3c0.7-1.5,1.7-2.6,2.9-3.4c1.2-0.8,2.6-1.2,4.2-1.2c1.2,0,2.3,0.3,3.3,0.9c1.1,0.6,1.9,1.4,2.6,2.4
		v-10.2h3v26h-2.7l-0.2-2.9c-0.7,1-1.5,1.8-2.6,2.5c-1.1,0.6-2.2,0.9-3.4,0.9c-1.5,0-2.9-0.4-4.2-1.2c-1.2-0.8-2.2-1.9-2.9-3.4
		c-0.7-1.5-1.1-3.2-1.1-5.2C22.5,625.5,22.8,623.8,23.5,622.3z M26.3,631.4c0.5,1.1,1.1,2,2,2.6c0.8,0.6,1.8,0.9,2.8,0.9
		c1.2,0,2.2-0.4,3.2-1.3c1-0.8,1.8-1.9,2.2-3.1v-6.1c-0.5-1.3-1.2-2.3-2.2-3.1c-1-0.8-2.1-1.2-3.2-1.2c-1,0-2,0.3-2.8,0.9
		c-0.8,0.6-1.5,1.5-2,2.6s-0.7,2.4-0.7,3.9C25.6,628.9,25.8,630.3,26.3,631.4z"/>
	<path class="st1" d="M44.5,636.7v-18.6h2.7l0.2,3.2c0.5-1.2,1.3-2.1,2.2-2.7c0.9-0.7,2.1-1,3.3-1c0.3,0,0.6,0,1,0.1
		c0.3,0,0.6,0.1,0.7,0.2v2.7c-0.5-0.2-1.1-0.3-1.9-0.3c-1.2,0-2.3,0.4-3.2,1.2c-1,0.8-1.7,1.9-2.1,3.2v12.1H44.5z"/>
	<path class="st1" d="M56,627c0-1.8,0.4-3.4,1.1-4.8c0.7-1.4,1.7-2.5,2.9-3.3c1.3-0.8,2.7-1.2,4.3-1.2c2.5,0,4.4,0.8,5.9,2.5
		c1.4,1.6,2.1,4,2.1,7.1v1.2H59c0.1,1.9,0.7,3.4,1.7,4.6c1,1.2,2.3,1.8,4,1.8c2.6,0,4.8-0.9,6.6-2.8v3c-0.8,0.7-1.7,1.2-2.8,1.6
		c-1.1,0.4-2.3,0.6-3.8,0.6c-1.8,0-3.4-0.4-4.7-1.2c-1.3-0.8-2.3-1.9-3-3.3s-1-3.1-1-4.9V627z M69.3,626.1c0-2-0.5-3.5-1.4-4.5
		c-0.9-1-2.1-1.5-3.6-1.5c-1,0-1.8,0.2-2.6,0.7c-0.8,0.5-1.4,1.2-1.9,2.1c-0.5,0.9-0.8,2-0.8,3.2H69.3z"/>
	<path class="st1" d="M75.6,628.6c0.5-0.7,1.3-1.3,2.4-1.8c1.1-0.4,2.5-0.8,4.4-1.2l4.6-0.8c0-1.6-0.5-2.8-1.3-3.7
		c-0.8-0.8-2-1.2-3.7-1.2c-1.2,0-2.3,0.3-3.3,0.8c-1.1,0.5-1.9,1.3-2.7,2.2v-3c0.7-0.7,1.6-1.2,2.7-1.7c1.1-0.5,2.3-0.7,3.6-0.7
		c2.4,0,4.2,0.6,5.6,1.8c1.4,1.2,2,3,2,5.3v12h-2.3l-0.5-2.9c-0.9,1.1-1.9,1.9-3,2.5c-1.2,0.6-2.4,0.9-3.8,0.9
		c-1.7,0-3.1-0.5-4.1-1.4s-1.5-2.3-1.5-4C74.6,630.6,75,629.5,75.6,628.6z M78.5,634c0.6,0.5,1.4,0.8,2.3,0.8c1.2,0,2.3-0.4,3.5-1.1
		c1.2-0.7,2.1-1.7,2.7-3v-3.6l-3.1,0.6c-1.7,0.3-3,0.6-3.8,0.8c-0.9,0.3-1.5,0.7-1.9,1.2c-0.4,0.5-0.6,1.1-0.6,1.9
		C77.6,632.7,77.9,633.5,78.5,634z"/>
	<path class="st1" d="M94.7,636.7v-18.6h2.7l0.2,3.4c0.7-1.2,1.6-2.1,2.6-2.8c1-0.7,2.2-1.1,3.5-1.1c1.3,0,2.4,0.4,3.3,1.1
		c0.9,0.7,1.5,1.7,1.8,3c0.7-1.2,1.6-2.2,2.7-3c1.1-0.7,2.3-1.1,3.6-1.1c1.7,0,3,0.6,4,1.7c1,1.1,1.5,2.7,1.5,4.8v12.6h-3v-12.4
		c0-1.5-0.2-2.6-0.7-3.3c-0.5-0.7-1.3-1.1-2.4-1.1c-0.7,0-1.4,0.2-2.2,0.7c-0.7,0.5-1.4,1.1-2,1.8c-0.6,0.8-1,1.6-1.2,2.4v11.7h-3
		v-12.4c0-1.5-0.2-2.5-0.7-3.2c-0.5-0.7-1.3-1-2.4-1c-0.7,0-1.4,0.2-2.1,0.7c-0.7,0.5-1.4,1.1-2,1.8c-0.6,0.8-1,1.6-1.3,2.5v11.7
		H94.7z"/>
	<path class="st1" d="M124,627c0-1.8,0.4-3.4,1.1-4.8c0.7-1.4,1.7-2.5,2.9-3.3c1.3-0.8,2.7-1.2,4.3-1.2c2.5,0,4.4,0.8,5.9,2.5
		c1.4,1.6,2.1,4,2.1,7.1v1.2H127c0.1,1.9,0.7,3.4,1.7,4.6c1,1.2,2.3,1.8,4,1.8c2.6,0,4.8-0.9,6.6-2.8v3c-0.8,0.7-1.7,1.2-2.8,1.6
		c-1.1,0.4-2.3,0.6-3.8,0.6c-1.8,0-3.4-0.4-4.7-1.2c-1.3-0.8-2.3-1.9-3-3.3s-1-3.1-1-4.9V627z M137.3,626.1c0-2-0.5-3.5-1.4-4.5
		c-0.9-1-2.1-1.5-3.6-1.5c-1,0-1.8,0.2-2.6,0.7c-0.8,0.5-1.4,1.2-1.9,2.1c-0.5,0.9-0.8,2-0.8,3.2H137.3z"/>
	<path class="st1" d="M143.7,622.3c0.7-1.5,1.7-2.6,2.9-3.4c1.2-0.8,2.6-1.2,4.2-1.2c1.2,0,2.3,0.3,3.3,0.9c1.1,0.6,1.9,1.4,2.6,2.4
		v-10.2h3v26H157l-0.2-2.9c-0.7,1-1.5,1.8-2.6,2.5c-1.1,0.6-2.2,0.9-3.4,0.9c-1.5,0-2.9-0.4-4.2-1.2c-1.2-0.8-2.2-1.9-2.9-3.4
		c-0.7-1.5-1.1-3.2-1.1-5.2C142.6,625.5,143,623.8,143.7,622.3z M146.5,631.4c0.5,1.1,1.1,2,2,2.6c0.8,0.6,1.8,0.9,2.8,0.9
		c1.2,0,2.2-0.4,3.2-1.3c1-0.8,1.8-1.9,2.2-3.1v-6.1c-0.5-1.3-1.2-2.3-2.2-3.1c-1-0.8-2.1-1.2-3.2-1.2c-1,0-2,0.3-2.8,0.9
		c-0.8,0.6-1.5,1.5-2,2.6s-0.7,2.4-0.7,3.9C145.7,628.9,146,630.3,146.5,631.4z"/>
	<path class="st1" d="M172.2,627.2c0-1.9,0.4-3.5,1.1-5c0.7-1.5,1.8-2.6,3.1-3.4c1.3-0.8,2.8-1.2,4.5-1.2c1.7,0,3.2,0.4,4.5,1.2
		c1.3,0.8,2.3,1.9,3.1,3.4c0.7,1.5,1.1,3.1,1.1,5v0.6c0,1.9-0.4,3.5-1.1,4.9c-0.7,1.4-1.8,2.6-3.1,3.3c-1.3,0.8-2.8,1.2-4.5,1.2
		c-1.7,0-3.2-0.4-4.5-1.2c-1.3-0.8-2.4-1.9-3.1-3.3c-0.7-1.4-1.1-3.1-1.1-4.9V627.2z M175.3,627.8c0,2.2,0.5,3.9,1.5,5.2
		c1,1.3,2.4,1.9,4.1,1.9c1.7,0,3.1-0.6,4.1-1.9s1.5-3,1.5-5.2v-0.6c0-2.2-0.5-3.9-1.5-5.2c-1-1.3-2.4-2-4.1-2c-1.7,0-3.1,0.7-4.1,2
		c-1,1.3-1.5,3-1.5,5.2V627.8z"/>
	<path class="st1" d="M190.9,620.6v-2.4h3.7v-1.8c0-1.1,0.2-2.2,0.6-3.1c0.4-1,1.1-1.7,2-2.3s1.9-0.9,3.2-0.9c0.9,0,1.7,0.2,2.3,0.5
		v2.7c-0.5-0.5-1.2-0.7-2.1-0.7c-0.9,0-1.7,0.3-2.2,1c-0.5,0.6-0.8,1.6-0.8,2.9v1.8h4.4v2.4h-4.4v16.1h-3v-16.1H190.9z"/>
	<path class="st1" d="M206.9,636.7H203v-4.4h3.9V636.7z"/>
</g>
</svg>
