<?xml version="1.0" encoding="utf-8"?>
<!-- Generator: Adobe Illustrator 27.5.0, SVG Export Plug-In . SVG Version: 6.00 Build 0)  -->
<svg version="1.1" id="레이어_1" xmlns="http://www.w3.org/2000/svg" xmlns:xlink="http://www.w3.org/1999/xlink" x="0px"
	 y="0px" viewBox="0 0 640 1085" style="enable-background:new 0 0 640 1085;" xml:space="preserve">
<style type="text/css">
	.st0{fill:none;}
	.st1{fill:#FFFFFF;}
</style>
<rect y="768.7" class="st0" width="640" height="260.3"/>
<rect class="st0" width="44" height="41.4"/>
<g>
	<path class="st1" d="M133.8,859.8h-8v-2.6h19v2.6h-7.9V883h-3.1V859.8z"/>
	<path class="st1" d="M148.4,883v-26h3v11.2c0.7-1.2,1.6-2.1,2.7-3c1.1-0.8,2.4-1.2,3.8-1.2c2,0,3.5,0.6,4.5,1.8
		c1,1.2,1.6,2.9,1.6,5.1V883h-3v-12c0-1.5-0.3-2.7-0.8-3.5s-1.5-1.2-2.7-1.2c-0.8,0-1.7,0.3-2.5,0.8c-0.9,0.5-1.6,1.2-2.2,2.1
		s-1.1,1.8-1.3,2.8v11H148.4z"/>
	<path class="st1" d="M167.6,873.3c0-1.8,0.4-3.4,1.1-4.8c0.7-1.4,1.7-2.5,2.9-3.3c1.3-0.8,2.7-1.2,4.3-1.2c2.5,0,4.4,0.8,5.9,2.5
		c1.4,1.6,2.1,4,2.1,7.1v1.2h-13.3c0.1,1.9,0.7,3.4,1.7,4.6c1,1.2,2.3,1.8,4,1.8c2.6,0,4.8-0.9,6.6-2.8v3c-0.8,0.7-1.7,1.2-2.8,1.6
		c-1.1,0.4-2.3,0.6-3.8,0.6c-1.8,0-3.4-0.4-4.7-1.2c-1.3-0.8-2.3-1.9-3-3.3s-1-3.1-1-4.9V873.3z M180.9,872.4c0-2-0.5-3.5-1.4-4.5
		c-0.9-1-2.1-1.5-3.6-1.5c-1,0-1.8,0.2-2.6,0.7c-0.8,0.5-1.4,1.2-1.9,2.1c-0.5,0.9-0.8,2-0.8,3.2H180.9z"/>
	<path class="st1" d="M196.8,868.6c0.7-1.5,1.7-2.6,2.9-3.4c1.2-0.8,2.6-1.2,4.2-1.2c1.2,0,2.3,0.3,3.3,0.9c1.1,0.6,1.9,1.4,2.6,2.4
		V857h3v26h-2.7l-0.2-2.9c-0.7,1-1.5,1.8-2.6,2.5c-1.1,0.6-2.2,0.9-3.4,0.9c-1.5,0-2.9-0.4-4.2-1.2c-1.2-0.8-2.2-1.9-2.9-3.4
		c-0.7-1.5-1.1-3.2-1.1-5.2C195.8,871.8,196.1,870.1,196.8,868.6z M199.6,877.7c0.5,1.1,1.1,2,2,2.6c0.8,0.6,1.8,0.9,2.8,0.9
		c1.2,0,2.2-0.4,3.2-1.3c1-0.8,1.8-1.9,2.2-3.1v-6.1c-0.5-1.3-1.2-2.3-2.2-3.1c-1-0.8-2.1-1.2-3.2-1.2c-1,0-2,0.3-2.8,0.9
		c-0.8,0.6-1.5,1.5-2,2.6c-0.5,1.1-0.7,2.4-0.7,3.9C198.9,875.2,199.1,876.6,199.6,877.7z"/>
	<path class="st1" d="M217.8,874.9c0.5-0.7,1.3-1.3,2.4-1.8c1.1-0.4,2.5-0.8,4.4-1.2l4.6-0.8c0-1.6-0.5-2.8-1.3-3.7
		c-0.8-0.8-2-1.2-3.7-1.2c-1.2,0-2.3,0.3-3.3,0.8c-1.1,0.5-1.9,1.3-2.7,2.2v-3c0.7-0.7,1.6-1.2,2.7-1.7c1.1-0.5,2.3-0.7,3.6-0.7
		c2.4,0,4.2,0.6,5.6,1.8c1.4,1.2,2,3,2,5.3v12h-2.3l-0.5-2.9c-0.9,1.1-1.9,1.9-3,2.5s-2.4,0.9-3.8,0.9c-1.7,0-3.1-0.5-4.1-1.4
		c-1-1-1.5-2.3-1.5-4C216.8,876.9,217.2,875.8,217.8,874.9z M220.7,880.3c0.6,0.5,1.4,0.8,2.3,0.8c1.2,0,2.3-0.4,3.5-1.1
		c1.2-0.7,2.1-1.7,2.7-3v-3.6l-3.1,0.6c-1.7,0.3-3,0.6-3.8,0.8c-0.9,0.3-1.5,0.7-1.9,1.2c-0.4,0.5-0.6,1.1-0.6,1.9
		C219.9,879,220.1,879.8,220.7,880.3z"/>
	<path class="st1" d="M240.5,883.1l-5.4-18.6h3.1l4.1,15.3l4-15.3h3.8l4.1,15.2l4.2-15.2h2.8l-5.3,18.6h-3.6l-4.1-15.3l-4.1,15.3
		L240.5,883.1z"/>
	<path class="st1" d="M264.4,883v-18.6h2.7l0.2,3.7c0.7-1.2,1.6-2.2,2.7-3s2.4-1.2,3.9-1.2c1.9,0,3.5,0.6,4.5,1.8
		c1.1,1.2,1.6,2.9,1.6,5.1V883h-3v-12c0-1.5-0.3-2.7-0.8-3.5s-1.5-1.2-2.7-1.2c-0.8,0-1.7,0.3-2.5,0.8c-0.9,0.5-1.6,1.2-2.2,2.1
		c-0.6,0.9-1.1,1.8-1.3,2.8V883H264.4z"/>
	<path class="st1" d="M292.8,873.5c0-1.9,0.4-3.5,1.1-5c0.7-1.4,1.8-2.6,3.1-3.4c1.3-0.8,2.8-1.2,4.5-1.2c1.7,0,3.2,0.4,4.5,1.2
		c1.3,0.8,2.3,1.9,3.1,3.4c0.7,1.5,1.1,3.1,1.1,5v0.6c0,1.9-0.4,3.5-1.1,4.9c-0.7,1.4-1.8,2.6-3.1,3.3c-1.3,0.8-2.8,1.2-4.5,1.2
		c-1.7,0-3.2-0.4-4.5-1.2c-1.3-0.8-2.4-1.9-3.1-3.3c-0.7-1.4-1.1-3.1-1.1-4.9V873.5z M295.9,874.1c0,2.2,0.5,3.9,1.5,5.2
		c1,1.3,2.4,1.9,4.1,1.9c1.7,0,3.1-0.6,4.1-1.9c1-1.3,1.5-3,1.5-5.2v-0.6c0-2.2-0.5-3.9-1.5-5.2s-2.4-2-4.1-2c-1.7,0-3.1,0.7-4.1,2
		c-1,1.3-1.5,3-1.5,5.2V874.1z"/>
	<path class="st1" d="M311.9,866.9v-2.4h3.7v-1.8c0-1.1,0.2-2.2,0.6-3.1c0.4-1,1.1-1.7,2-2.3s1.9-0.9,3.2-0.9c0.9,0,1.7,0.2,2.3,0.5
		v2.7c-0.5-0.5-1.2-0.7-2.1-0.7c-0.9,0-1.7,0.3-2.2,1c-0.5,0.6-0.8,1.6-0.8,2.9v1.8h4.4v2.4h-4.4V883h-3v-16.1H311.9z"/>
	<path class="st1" d="M337.7,866.9h-4.1v-2.4h4.1v-5.6h3v5.6h4.1v2.4h-4.1V883h-3V866.9z"/>
	<path class="st1" d="M347.7,883v-26h3v11.2c0.7-1.2,1.6-2.1,2.7-3s2.4-1.2,3.8-1.2c2,0,3.5,0.6,4.5,1.8c1,1.2,1.6,2.9,1.6,5.1V883
		h-3v-12c0-1.5-0.3-2.7-0.8-3.5s-1.5-1.2-2.7-1.2c-0.8,0-1.7,0.3-2.5,0.8c-0.9,0.5-1.6,1.2-2.2,2.1c-0.6,0.9-1.1,1.8-1.3,2.8v11
		H347.7z"/>
	<path class="st1" d="M366.9,873.3c0-1.8,0.4-3.4,1.1-4.8c0.7-1.4,1.7-2.5,2.9-3.3s2.7-1.2,4.3-1.2c2.5,0,4.4,0.8,5.9,2.5
		c1.4,1.6,2.1,4,2.1,7.1v1.2h-13.3c0.1,1.9,0.7,3.4,1.7,4.6c1,1.2,2.3,1.8,4,1.8c2.6,0,4.8-0.9,6.6-2.8v3c-0.8,0.7-1.7,1.2-2.8,1.6
		c-1.1,0.4-2.3,0.6-3.8,0.6c-1.8,0-3.4-0.4-4.7-1.2c-1.3-0.8-2.3-1.9-3-3.3s-1-3.1-1-4.9V873.3z M380.3,872.4c0-2-0.5-3.5-1.4-4.5
		c-0.9-1-2.1-1.5-3.6-1.5c-1,0-1.8,0.2-2.6,0.7c-0.8,0.5-1.4,1.2-1.9,2.1c-0.5,0.9-0.8,2-0.8,3.2H380.3z"/>
	<path class="st1" d="M395.9,876.8c0.8,1.3,1.9,2.3,3.2,3.1c1.3,0.8,2.7,1.2,4.2,1.2c1.1,0,2.1-0.2,2.9-0.6s1.4-1,1.8-1.6
		c0.4-0.7,0.6-1.4,0.6-2.1c0-1-0.3-1.9-1-2.7c-0.6-0.7-1.6-1.5-2.9-2.2l-3.7-1.9c-1.5-0.8-2.7-1.7-3.6-2.8c-0.9-1-1.3-2.3-1.3-3.9
		c0-1.2,0.3-2.3,0.9-3.3c0.6-1,1.5-1.8,2.7-2.3c1.2-0.6,2.5-0.8,4.1-0.8c1.3,0,2.5,0.3,3.8,0.8c1.3,0.5,2.3,1.2,3.2,2.1v3.7
		c-0.9-1.2-2-2.2-3.3-3s-2.5-1.1-3.8-1.1c-1.3,0-2.4,0.4-3.2,1.1c-0.8,0.7-1.2,1.6-1.2,2.7c0,0.9,0.3,1.6,0.8,2.2s1.5,1.3,2.9,2
		l3.6,1.9c1.7,0.9,3,1.9,3.9,3.1c0.8,1.2,1.3,2.6,1.3,4.2c0,1.4-0.3,2.6-1,3.7s-1.7,1.9-3,2.5c-1.3,0.6-2.8,0.9-4.6,0.9
		c-1.6,0-3.1-0.3-4.4-0.8c-1.3-0.6-2.3-1.2-3-2V876.8z"/>
	<path class="st1" d="M416.3,857.2h3.2v16.3c0,2.3,0.6,4.2,1.8,5.5c1.2,1.3,2.9,2,5.2,2c2.2,0,3.9-0.7,5.1-2
		c1.2-1.3,1.8-3.2,1.8-5.5v-16.3h3v16.4c0,1.9-0.4,3.6-1.2,5.1s-1.9,2.7-3.4,3.5c-1.5,0.8-3.3,1.3-5.4,1.3c-2.1,0-3.8-0.4-5.4-1.3
		c-1.5-0.9-2.7-2-3.4-3.5s-1.2-3.2-1.2-5.1V857.2z"/>
	<path class="st1" d="M449.1,883l-9.7-25.8h3.4l8.1,22l7.9-22h3.2l-9.5,25.8H449.1z"/>
	<path class="st1" d="M490.2,883h-15.6v-25.8H490v2.6h-12.2v8.7h10.4v2.6h-10.4v9.4h12.4V883z"/>
	<path class="st1" d="M502.2,883l-9.7-25.8h3.4l8.1,22l7.9-22h3.2l-9.5,25.8H502.2z"/>
</g>
<g>
	<path class="st1" d="M114.8,928.3c0-1.8,0.4-3.4,1.1-4.8c0.7-1.4,1.7-2.5,2.9-3.3c1.3-0.8,2.7-1.2,4.3-1.2c2.5,0,4.4,0.8,5.9,2.5
		c1.4,1.6,2.1,4,2.1,7.1v1.2h-13.3c0.1,1.9,0.7,3.4,1.7,4.6c1,1.2,2.3,1.8,4,1.8c2.6,0,4.8-0.9,6.6-2.8v3c-0.8,0.7-1.7,1.2-2.8,1.6
		c-1.1,0.4-2.3,0.6-3.8,0.6c-1.8,0-3.4-0.4-4.7-1.2c-1.3-0.8-2.3-1.9-3-3.3s-1-3.1-1-4.9V928.3z M128.2,927.4c0-2-0.5-3.5-1.4-4.5
		s-2.1-1.5-3.6-1.5c-1,0-1.8,0.2-2.6,0.7c-0.8,0.5-1.4,1.2-1.9,2.1c-0.5,0.9-0.8,2-0.8,3.2H128.2z"/>
	<path class="st1" d="M140,938.1l-7.1-18.6h3.2l5.6,15.4l5.7-15.4h2.9l-7.1,18.6H140z"/>
	<path class="st1" d="M152.1,928.3c0-1.8,0.4-3.4,1.1-4.8c0.7-1.4,1.7-2.5,2.9-3.3c1.3-0.8,2.7-1.2,4.3-1.2c2.5,0,4.4,0.8,5.9,2.5
		c1.4,1.6,2.1,4,2.1,7.1v1.2h-13.3c0.1,1.9,0.7,3.4,1.7,4.6c1,1.2,2.3,1.8,4,1.8c2.6,0,4.8-0.9,6.6-2.8v3c-0.8,0.7-1.7,1.2-2.8,1.6
		c-1.1,0.4-2.3,0.6-3.8,0.6c-1.8,0-3.4-0.4-4.7-1.2c-1.3-0.8-2.3-1.9-3-3.3s-1-3.1-1-4.9V928.3z M165.5,927.4c0-2-0.5-3.5-1.4-4.5
		s-2.1-1.5-3.6-1.5c-1,0-1.8,0.2-2.6,0.7c-0.8,0.5-1.4,1.2-1.9,2.1c-0.5,0.9-0.8,2-0.8,3.2H165.5z"/>
	<path class="st1" d="M172.4,938.1v-18.6h2.7l0.2,3.2c0.5-1.2,1.3-2.1,2.2-2.7c0.9-0.7,2.1-1,3.3-1c0.3,0,0.6,0,1,0.1
		c0.3,0,0.6,0.1,0.7,0.2v2.7c-0.5-0.2-1.1-0.3-1.9-0.3c-1.2,0-2.3,0.4-3.2,1.2c-1,0.8-1.7,1.9-2.1,3.2v12.1H172.4z"/>
	<path class="st1" d="M191.4,938l-7.3-18.5h3.3l5.7,14.9l5.7-14.9h3.1l-10.4,26h-3.2L191.4,938z"/>
	<path class="st1" d="M203.4,928.5c0-1.9,0.4-3.5,1.1-5c0.7-1.5,1.8-2.6,3.1-3.4c1.3-0.8,2.8-1.2,4.5-1.2c1.7,0,3.2,0.4,4.5,1.2
		c1.3,0.8,2.3,1.9,3.1,3.4c0.7,1.4,1.1,3.1,1.1,5v0.6c0,1.9-0.4,3.5-1.1,4.9c-0.7,1.4-1.8,2.6-3.1,3.3c-1.3,0.8-2.8,1.2-4.5,1.2
		c-1.7,0-3.2-0.4-4.5-1.2c-1.3-0.8-2.4-1.9-3.1-3.3c-0.7-1.4-1.1-3.1-1.1-4.9V928.5z M206.5,929.1c0,2.2,0.5,3.9,1.5,5.2
		c1,1.3,2.4,1.9,4.1,1.9c1.7,0,3.1-0.6,4.1-1.9c1-1.3,1.5-3,1.5-5.2v-0.6c0-2.2-0.5-3.9-1.5-5.2c-1-1.3-2.4-2-4.1-2
		c-1.7,0-3.1,0.7-4.1,2c-1,1.3-1.5,3-1.5,5.2V929.1z"/>
	<path class="st1" d="M224.7,938.1v-18.6h2.7l0.2,3.7c0.7-1.2,1.6-2.2,2.7-3c1.1-0.8,2.4-1.2,3.9-1.2c1.9,0,3.5,0.6,4.5,1.8
		c1.1,1.2,1.6,2.9,1.6,5.1v12.2h-3v-12c0-1.5-0.3-2.7-0.8-3.5c-0.5-0.8-1.5-1.2-2.7-1.2c-0.8,0-1.7,0.3-2.5,0.8
		c-0.9,0.5-1.6,1.2-2.2,2.1s-1.1,1.8-1.3,2.8v10.9H224.7z"/>
	<path class="st1" d="M244,928.3c0-1.8,0.4-3.4,1.1-4.8c0.7-1.4,1.7-2.5,2.9-3.3c1.3-0.8,2.7-1.2,4.3-1.2c2.5,0,4.4,0.8,5.9,2.5
		c1.4,1.6,2.1,4,2.1,7.1v1.2H247c0.1,1.9,0.7,3.4,1.7,4.6c1,1.2,2.3,1.8,4,1.8c2.6,0,4.8-0.9,6.6-2.8v3c-0.8,0.7-1.7,1.2-2.8,1.6
		c-1.1,0.4-2.3,0.6-3.8,0.6c-1.8,0-3.4-0.4-4.7-1.2c-1.3-0.8-2.3-1.9-3-3.3s-1-3.1-1-4.9V928.3z M257.3,927.4c0-2-0.5-3.5-1.4-4.5
		s-2.1-1.5-3.6-1.5c-1,0-1.8,0.2-2.6,0.7c-0.8,0.5-1.4,1.2-1.9,2.1c-0.5,0.9-0.8,2-0.8,3.2H257.3z"/>
	<path class="st1" d="M273.4,938.1v-26h3v11.2c0.7-1.2,1.6-2.1,2.7-3c1.1-0.8,2.4-1.2,3.8-1.2c2,0,3.5,0.6,4.5,1.8
		c1,1.2,1.6,2.9,1.6,5.1v12.2h-3v-12c0-1.5-0.3-2.7-0.8-3.5c-0.5-0.8-1.5-1.2-2.7-1.2c-0.8,0-1.7,0.3-2.5,0.8
		c-0.9,0.5-1.6,1.2-2.2,2.1s-1.1,1.8-1.3,2.8v11.1H273.4z"/>
	<path class="st1" d="M293.7,929.9c0.5-0.7,1.3-1.3,2.4-1.8c1.1-0.4,2.5-0.8,4.4-1.2l4.6-0.8c0-1.6-0.5-2.8-1.3-3.7
		c-0.8-0.8-2-1.2-3.7-1.2c-1.2,0-2.3,0.3-3.3,0.8c-1.1,0.5-1.9,1.3-2.7,2.2v-3c0.7-0.7,1.6-1.2,2.7-1.7c1.1-0.5,2.3-0.7,3.6-0.7
		c2.4,0,4.2,0.6,5.6,1.8s2,3,2,5.3v12h-2.3l-0.5-2.9c-0.9,1.1-1.9,1.9-3,2.5c-1.2,0.6-2.4,0.9-3.8,0.9c-1.7,0-3.1-0.5-4.1-1.4
		c-1-1-1.5-2.3-1.5-4C292.7,931.9,293,930.8,293.7,929.9z M296.6,935.3c0.6,0.5,1.4,0.8,2.3,0.8c1.2,0,2.3-0.4,3.5-1.1
		c1.2-0.7,2.1-1.7,2.7-3v-3.6l-3.1,0.6c-1.7,0.3-3,0.6-3.8,0.8c-0.9,0.3-1.5,0.7-1.9,1.2c-0.4,0.5-0.6,1.1-0.6,1.9
		C295.7,934,296,934.8,296.6,935.3z"/>
	<path class="st1" d="M312.4,933.4c1.5,1.9,3.5,2.8,5.9,2.8c1.2,0,2.2-0.3,2.9-0.8c0.7-0.5,1.1-1.2,1.1-2.1c0-0.7-0.2-1.2-0.6-1.7
		c-0.4-0.5-1.1-0.9-2.2-1.3l-2.5-1c-1.5-0.6-2.6-1.4-3.4-2.2c-0.7-0.8-1.1-1.9-1.1-3.1c0-0.9,0.2-1.7,0.7-2.5
		c0.5-0.8,1.2-1.4,2.1-1.8c0.9-0.5,2.1-0.7,3.4-0.7c1.1,0,2.2,0.2,3.2,0.6c1,0.4,1.8,0.9,2.5,1.5v3.2c-0.8-1-1.7-1.7-2.7-2.1
		c-1-0.5-2-0.7-3-0.7c-1.1,0-1.9,0.2-2.5,0.7c-0.6,0.5-0.8,1.1-0.8,1.8c0,0.6,0.2,1.1,0.7,1.5s1.2,0.8,2.2,1.2l2.4,1
		c1.5,0.6,2.7,1.4,3.4,2.3s1.1,2,1.1,3.2c0,1.7-0.7,3-2,4c-1.3,1-3,1.5-5,1.5c-1.3,0-2.4-0.2-3.4-0.6c-1-0.4-1.8-0.9-2.5-1.4V933.4z
		"/>
	<path class="st1" d="M338.2,923.6c0.7-1.5,1.7-2.6,2.9-3.4c1.2-0.8,2.6-1.2,4.2-1.2c1.2,0,2.3,0.3,3.3,0.9c1.1,0.6,1.9,1.4,2.6,2.4
		V912h3v26h-2.7l-0.2-2.9c-0.7,1-1.5,1.8-2.6,2.5s-2.2,0.9-3.4,0.9c-1.5,0-2.9-0.4-4.2-1.2c-1.2-0.8-2.2-1.9-2.9-3.4
		c-0.7-1.5-1.1-3.2-1.1-5.2C337.1,926.8,337.5,925.1,338.2,923.6z M341,932.7c0.5,1.1,1.1,2,2,2.6c0.8,0.6,1.8,0.9,2.8,0.9
		c1.2,0,2.2-0.4,3.2-1.3c1-0.8,1.8-1.9,2.2-3.1v-6.1c-0.5-1.3-1.2-2.3-2.2-3.1s-2.1-1.2-3.2-1.2c-1,0-2,0.3-2.8,0.9
		c-0.8,0.6-1.5,1.5-2,2.6c-0.5,1.1-0.7,2.4-0.7,3.9C340.2,930.3,340.5,931.6,341,932.7z"/>
	<path class="st1" d="M359.5,938.1v-18.6h2.7l0.2,3.2c0.5-1.2,1.3-2.1,2.2-2.7c0.9-0.7,2.1-1,3.3-1c0.3,0,0.6,0,1,0.1
		s0.6,0.1,0.7,0.2v2.7c-0.5-0.2-1.1-0.3-1.9-0.3c-1.2,0-2.3,0.4-3.2,1.2s-1.7,1.9-2.1,3.2v12.1H359.5z"/>
	<path class="st1" d="M371.3,928.3c0-1.8,0.4-3.4,1.1-4.8c0.7-1.4,1.7-2.5,2.9-3.3c1.3-0.8,2.7-1.2,4.3-1.2c2.5,0,4.4,0.8,5.9,2.5
		c1.4,1.6,2.1,4,2.1,7.1v1.2h-13.3c0.1,1.9,0.7,3.4,1.7,4.6c1,1.2,2.3,1.8,4,1.8c2.6,0,4.8-0.9,6.6-2.8v3c-0.8,0.7-1.7,1.2-2.8,1.6
		s-2.3,0.6-3.8,0.6c-1.8,0-3.4-0.4-4.7-1.2c-1.3-0.8-2.3-1.9-3-3.3s-1-3.1-1-4.9V928.3z M384.6,927.4c0-2-0.5-3.5-1.4-4.5
		c-0.9-1-2.1-1.5-3.6-1.5c-1,0-1.8,0.2-2.6,0.7c-0.8,0.5-1.4,1.2-1.9,2.1c-0.5,0.9-0.8,2-0.8,3.2H384.6z"/>
	<path class="st1" d="M391.3,929.9c0.5-0.7,1.3-1.3,2.4-1.8c1.1-0.4,2.5-0.8,4.4-1.2l4.6-0.8c0-1.6-0.5-2.8-1.3-3.7
		c-0.8-0.8-2-1.2-3.7-1.2c-1.2,0-2.3,0.3-3.3,0.8c-1.1,0.5-1.9,1.3-2.7,2.2v-3c0.7-0.7,1.6-1.2,2.7-1.7c1.1-0.5,2.3-0.7,3.6-0.7
		c2.4,0,4.2,0.6,5.6,1.8c1.4,1.2,2,3,2,5.3v12h-2.3l-0.5-2.9c-0.9,1.1-1.9,1.9-3,2.5c-1.2,0.6-2.4,0.9-3.8,0.9
		c-1.7,0-3.1-0.5-4.1-1.4c-1-1-1.5-2.3-1.5-4C390.3,931.9,390.6,930.8,391.3,929.9z M394.2,935.3c0.6,0.5,1.4,0.8,2.3,0.8
		c1.2,0,2.3-0.4,3.5-1.1c1.2-0.7,2.1-1.7,2.7-3v-3.6l-3.1,0.6c-1.7,0.3-3,0.6-3.8,0.8s-1.5,0.7-1.9,1.2c-0.4,0.5-0.6,1.1-0.6,1.9
		C393.3,934,393.6,934.8,394.2,935.3z"/>
	<path class="st1" d="M410.8,938.1v-18.6h2.7l0.2,3.4c0.7-1.2,1.6-2.1,2.6-2.8c1-0.7,2.2-1.1,3.5-1.1c1.3,0,2.4,0.4,3.3,1.1
		c0.9,0.7,1.5,1.7,1.8,3c0.7-1.2,1.6-2.2,2.7-3c1.1-0.7,2.3-1.1,3.6-1.1c1.7,0,3,0.6,4,1.7s1.5,2.7,1.5,4.8v12.6h-3v-12.4
		c0-1.5-0.2-2.6-0.7-3.3c-0.5-0.7-1.3-1.1-2.4-1.1c-0.7,0-1.4,0.2-2.2,0.7c-0.7,0.5-1.4,1.1-2,1.8c-0.6,0.8-1,1.6-1.2,2.4v11.7h-3
		v-12.4c0-1.5-0.2-2.5-0.7-3.2c-0.5-0.7-1.3-1-2.4-1c-0.7,0-1.4,0.2-2.1,0.7c-0.7,0.5-1.4,1.1-2,1.8s-1,1.6-1.3,2.5v11.7H410.8z"/>
	<path class="st1" d="M440.3,928.3c0-1.8,0.4-3.4,1.1-4.8c0.7-1.4,1.7-2.5,2.9-3.3c1.3-0.8,2.7-1.2,4.3-1.2c2.5,0,4.4,0.8,5.9,2.5
		c1.4,1.6,2.1,4,2.1,7.1v1.2h-13.3c0.1,1.9,0.7,3.4,1.7,4.6c1,1.2,2.3,1.8,4,1.8c2.6,0,4.8-0.9,6.6-2.8v3c-0.8,0.7-1.7,1.2-2.8,1.6
		s-2.3,0.6-3.8,0.6c-1.8,0-3.4-0.4-4.7-1.2c-1.3-0.8-2.3-1.9-3-3.3s-1-3.1-1-4.9V928.3z M453.7,927.4c0-2-0.5-3.5-1.4-4.5
		c-0.9-1-2.1-1.5-3.6-1.5c-1,0-1.8,0.2-2.6,0.7c-0.8,0.5-1.4,1.2-1.9,2.1c-0.5,0.9-0.8,2-0.8,3.2H453.7z"/>
	<path class="st1" d="M460.4,923.6c0.7-1.5,1.7-2.6,2.9-3.4c1.2-0.8,2.6-1.2,4.2-1.2c1.2,0,2.3,0.3,3.3,0.9c1.1,0.6,1.9,1.4,2.6,2.4
		V912h3v26h-2.7l-0.2-2.9c-0.7,1-1.5,1.8-2.6,2.5s-2.2,0.9-3.4,0.9c-1.5,0-2.9-0.4-4.2-1.2c-1.2-0.8-2.2-1.9-2.9-3.4
		c-0.7-1.5-1.1-3.2-1.1-5.2C459.3,926.8,459.7,925.1,460.4,923.6z M463.2,932.7c0.5,1.1,1.1,2,2,2.6c0.8,0.6,1.8,0.9,2.8,0.9
		c1.2,0,2.2-0.4,3.2-1.3c1-0.8,1.8-1.9,2.2-3.1v-6.1c-0.5-1.3-1.2-2.3-2.2-3.1s-2.1-1.2-3.2-1.2c-1,0-2,0.3-2.8,0.9
		c-0.8,0.6-1.5,1.5-2,2.6c-0.5,1.1-0.7,2.4-0.7,3.9C462.4,930.3,462.7,931.6,463.2,932.7z"/>
	<path class="st1" d="M489.5,928.5c0-1.9,0.4-3.5,1.1-5c0.7-1.5,1.8-2.6,3.1-3.4c1.3-0.8,2.8-1.2,4.5-1.2c1.7,0,3.2,0.4,4.5,1.2
		c1.3,0.8,2.3,1.9,3.1,3.4c0.7,1.4,1.1,3.1,1.1,5v0.6c0,1.9-0.4,3.5-1.1,4.9s-1.8,2.6-3.1,3.3c-1.3,0.8-2.8,1.2-4.5,1.2
		c-1.7,0-3.2-0.4-4.5-1.2s-2.4-1.9-3.1-3.3c-0.7-1.4-1.1-3.1-1.1-4.9V928.5z M492.7,929.1c0,2.2,0.5,3.9,1.5,5.2
		c1,1.3,2.4,1.9,4.1,1.9c1.7,0,3.1-0.6,4.1-1.9c1-1.3,1.5-3,1.5-5.2v-0.6c0-2.2-0.5-3.9-1.5-5.2c-1-1.3-2.4-2-4.1-2
		c-1.7,0-3.1,0.7-4.1,2c-1,1.3-1.5,3-1.5,5.2V929.1z"/>
	<path class="st1" d="M508.6,921.9v-2.4h3.7v-1.8c0-1.1,0.2-2.2,0.6-3.1c0.4-1,1.1-1.7,2-2.3c0.9-0.6,1.9-0.9,3.2-0.9
		c0.9,0,1.7,0.2,2.3,0.5v2.7c-0.5-0.5-1.2-0.7-2.1-0.7c-0.9,0-1.7,0.3-2.2,1c-0.5,0.6-0.8,1.6-0.8,2.9v1.8h4.4v2.4h-4.4v16.2h-3
		v-16.2H508.6z"/>
	<path class="st1" d="M525,938.1h-3.9v-4.4h3.9V938.1z"/>
</g>
</svg>
