<?xml version="1.0" encoding="utf-8"?>
<!-- Generator: Adobe Illustrator 27.5.0, SVG Export Plug-In . SVG Version: 6.00 Build 0)  -->
<svg version="1.1" id="레이어_1" xmlns="http://www.w3.org/2000/svg" xmlns:xlink="http://www.w3.org/1999/xlink" x="0px"
	 y="0px" viewBox="0 0 640 1085" style="enable-background:new 0 0 640 1085;" xml:space="preserve">
<style type="text/css">
	.st0{fill:none;}
	.st1{fill:#FFFFFF;}
</style>
<rect class="st0" width="44" height="41.4"/>
<rect y="812" class="st0" width="640" height="168"/>
<g>
	<path class="st1" d="M36.5,912.2h-14v-6.6h35.9v6.6H44.6v39h-8.1V912.2z"/>
	<path class="st1" d="M63.3,951.2v-46H71v17.9c1.2-1.6,2.6-2.9,4.4-4c1.8-1.1,3.8-1.6,6-1.6c3.6,0,6.5,1.1,8.5,3.2
		c2,2.1,3,5.1,3,9.1v21.4h-7.7v-21.4c0-4.2-1.7-6.2-5-6.2c-2,0-3.8,0.8-5.5,2.2c-1.7,1.5-3,3.3-3.6,5.4v20H63.3z"/>
	<path class="st1" d="M97.9,934.2c0-3.2,0.6-6,1.9-8.6c1.3-2.5,3.1-4.5,5.5-5.9c2.3-1.4,5-2.1,8.1-2.1c4.8,0,8.4,1.5,11.1,4.5
		c2.6,3,3.9,7.2,3.9,12.5v3h-22.9c0.3,2.8,1.2,4.9,2.8,6.4c1.6,1.5,3.8,2.2,6.5,2.2c2.1,0,4.1-0.4,5.9-1.1c1.8-0.8,3.6-2,5.4-3.8
		v7.4c-1.4,1.1-3.2,2-5.2,2.6c-2,0.6-4.2,0.9-6.4,0.9c-3.5,0-6.5-0.7-9-2.1c-2.5-1.4-4.4-3.4-5.7-5.9c-1.3-2.5-1.9-5.4-1.9-8.7
		V934.2z M120.7,931.7c0-2.6-0.7-4.6-2-6.1c-1.3-1.5-3.1-2.2-5.4-2.2c-2.1,0-3.9,0.8-5.3,2.3c-1.5,1.5-2.3,3.5-2.4,6H120.7z"/>
	<path class="st1" d="M158.2,951.2h-8.1v-45.6h8.1v19.7l19.3-19.7h10.3l-22.3,22.2l23.3,23.4h-11.7l-19-20.1V951.2z"/>
	<path class="st1" d="M200.8,913.5h-7.7v-8.2h7.7V913.5z M200.8,951.2h-7.7v-32.8h7.7V951.2z"/>
	<path class="st1" d="M208.7,935.7c1.2-1.4,2.8-2.4,4.7-3.2c2-0.7,4.3-1.3,7.1-1.8l6.9-1.1c-0.4-4.3-3-6.4-7.9-6.4
		c-1.8,0-3.7,0.5-5.5,1.5c-1.8,1-3.3,2.3-4.5,4v-7.5c3.1-2.5,7-3.8,11.6-3.8c4.2,0,7.5,1.1,10.2,3.4c2.6,2.2,3.9,5.6,3.9,10.2v20.1
		h-6.5l-0.7-3.8c-1.6,1.6-3.3,2.7-5,3.5c-1.7,0.8-3.7,1.2-6,1.2c-3.3,0-5.9-0.9-7.7-2.7c-1.9-1.8-2.8-4.3-2.8-7.4
		C206.6,939.6,207.3,937.5,208.7,935.7z M215.4,944.8c0.8,0.8,1.8,1.1,3.1,1.1c2,0,3.8-0.6,5.4-1.8c1.7-1.2,2.9-2.7,3.7-4.4v-4.6
		l-3.9,0.7c-2.7,0.4-4.6,0.9-5.8,1.3c-1.1,0.5-2,1-2.6,1.6c-0.8,0.8-1.1,1.7-1.1,2.9C214.3,943,214.6,944,215.4,944.8z"/>
	<path class="st1" d="M287.8,951.2h-29.1v-45.6h28.8v6.6h-20.7v12.2h17.3v6.6h-17.3v13.5h21V951.2z"/>
	<path class="st1" d="M307.7,951.2L291,905.6h9.1l12.7,36.2l12.7-36.2h8l-16.6,45.6H307.7z"/>
	<path class="st1" d="M337.3,938.9c1.4,2,3.2,3.6,5.2,4.8c2.1,1.1,4.4,1.7,6.9,1.7c1.8,0,3.4-0.4,4.8-1.2c1.4-0.8,2.5-1.8,3.2-3.1
		c0.8-1.3,1.1-2.8,1.1-4.4c0-2.4-0.8-4.2-2.2-5.6s-3.4-2.1-5.5-2.1c-1.4,0-2.7,0.3-3.9,0.8s-2,1.1-2.5,1.8H339l2.2-25.3h24.1v6.7
		h-16.7l-0.9,11c0.5-0.4,1.2-0.7,2.3-1c1.1-0.3,2.2-0.5,3.5-0.5c2.6,0,4.9,0.5,7,1.6c2.1,1.1,3.8,2.7,5,4.9c1.2,2.1,1.8,4.7,1.8,7.7
		c0,3.2-0.8,5.9-2.3,8.2c-1.6,2.3-3.7,4-6.3,5.2s-5.6,1.8-8.8,1.8c-4.9,0-9.1-1.3-12.4-4V938.9z"/>
</g>
<g>
	<path class="st1" d="M28.2,875.1h-3.2v-25.8h15.5v2.6H28.2v9h10.4v2.6H28.2V875.1z"/>
	<path class="st1" d="M46.9,853.5h-3v-3.8h3V853.5z M46.9,875.1h-3v-18.6h3V875.1z"/>
	<path class="st1" d="M51.8,875.1v-18.6h2.7l0.2,3.2c0.5-1.2,1.3-2.1,2.2-2.7c0.9-0.7,2.1-1,3.3-1c0.3,0,0.6,0,1,0.1
		c0.3,0,0.6,0.1,0.7,0.2v2.7c-0.5-0.2-1.1-0.3-1.9-0.3c-1.2,0-2.3,0.4-3.2,1.2c-1,0.8-1.7,1.9-2.1,3.2v12.1H51.8z"/>
	<path class="st1" d="M63.9,870.4c1.5,1.9,3.5,2.8,5.9,2.8c1.2,0,2.2-0.3,2.9-0.8c0.7-0.5,1.1-1.2,1.1-2.1c0-0.7-0.2-1.2-0.6-1.7
		c-0.4-0.5-1.1-0.9-2.2-1.3l-2.5-1c-1.5-0.6-2.6-1.4-3.4-2.2c-0.7-0.8-1.1-1.9-1.1-3.1c0-0.9,0.2-1.7,0.7-2.5
		c0.5-0.8,1.2-1.4,2.1-1.8c0.9-0.5,2.1-0.7,3.4-0.7c1.1,0,2.2,0.2,3.2,0.6c1,0.4,1.8,0.9,2.5,1.5v3.2c-0.8-1-1.7-1.7-2.7-2.1
		c-1-0.5-2-0.7-3-0.7c-1.1,0-1.9,0.2-2.5,0.7c-0.6,0.5-0.8,1.1-0.8,1.8c0,0.6,0.2,1.1,0.7,1.5c0.4,0.4,1.2,0.8,2.2,1.2l2.4,1
		c1.5,0.6,2.7,1.4,3.4,2.3c0.7,0.9,1.1,2,1.1,3.2c0,1.7-0.7,3-2,4c-1.3,1-3,1.5-5,1.5c-1.3,0-2.4-0.2-3.4-0.6
		c-1-0.4-1.8-0.9-2.5-1.4V870.4z"/>
	<path class="st1" d="M82.3,858.9h-4.1v-2.4h4.1v-5.6h3v5.6h4.1v2.4h-4.1v16.1h-3V858.9z"/>
	<path class="st1" d="M98.5,858.9v-2.4h3.7v-1.8c0-1.1,0.2-2.2,0.6-3.1c0.4-1,1.1-1.7,2-2.3s1.9-0.9,3.2-0.9c0.9,0,1.7,0.2,2.3,0.5
		v2.7c-0.5-0.5-1.2-0.7-2.1-0.7c-0.9,0-1.7,0.3-2.2,1c-0.5,0.6-0.8,1.6-0.8,2.9v1.8h4.4v2.4h-4.4v16.1h-3v-16.1H98.5z"/>
	<path class="st1" d="M111.2,865.5c0-1.9,0.4-3.5,1.1-5c0.7-1.5,1.8-2.6,3.1-3.4c1.3-0.8,2.8-1.2,4.5-1.2c1.7,0,3.2,0.4,4.5,1.2
		c1.3,0.8,2.3,1.9,3.1,3.4c0.7,1.5,1.1,3.1,1.1,5v0.6c0,1.9-0.4,3.5-1.1,4.9c-0.7,1.4-1.8,2.6-3.1,3.3c-1.3,0.8-2.8,1.2-4.5,1.2
		c-1.7,0-3.2-0.4-4.5-1.2c-1.3-0.8-2.4-1.9-3.1-3.3c-0.7-1.4-1.1-3.1-1.1-4.9V865.5z M114.4,866.1c0,2.2,0.5,3.9,1.5,5.2
		c1,1.3,2.4,1.9,4.1,1.9c1.7,0,3.1-0.6,4.1-1.9s1.5-3,1.5-5.2v-0.6c0-2.2-0.5-3.9-1.5-5.2c-1-1.3-2.4-2-4.1-2c-1.7,0-3.1,0.7-4.1,2
		c-1,1.3-1.5,3-1.5,5.2V866.1z"/>
	<path class="st1" d="M132.3,875.1v-18.6h2.7l0.2,3.2c0.5-1.2,1.3-2.1,2.2-2.7c0.9-0.7,2.1-1,3.3-1c0.3,0,0.6,0,1,0.1
		c0.3,0,0.6,0.1,0.7,0.2v2.7c-0.5-0.2-1.1-0.3-1.9-0.3c-1.2,0-2.3,0.4-3.2,1.2c-1,0.8-1.7,1.9-2.1,3.2v12.1H132.3z"/>
	<path class="st1" d="M169.8,875.1h-15.6v-25.8h15.4v2.6h-12.2v8.7h10.4v2.6h-10.4v9.4h12.4V875.1z"/>
	<path class="st1" d="M178.8,875.1l-7.1-18.6h3.2l5.6,15.4l5.7-15.4h2.9l-7.1,18.6H178.8z"/>
	<path class="st1" d="M190.5,865.4c0-1.8,0.4-3.4,1.1-4.8c0.7-1.4,1.7-2.5,2.9-3.3c1.3-0.8,2.7-1.2,4.3-1.2c2.5,0,4.4,0.8,5.9,2.5
		c1.4,1.6,2.1,4,2.1,7.1v1.2h-13.3c0.1,1.9,0.7,3.4,1.7,4.6c1,1.2,2.3,1.8,4,1.8c2.6,0,4.8-0.9,6.6-2.8v3c-0.8,0.7-1.7,1.2-2.8,1.6
		c-1.1,0.4-2.3,0.6-3.8,0.6c-1.8,0-3.4-0.4-4.7-1.2c-1.3-0.8-2.3-1.9-3-3.3s-1-3.1-1-4.9V865.4z M203.9,864.4c0-2-0.5-3.5-1.4-4.5
		c-0.9-1-2.1-1.5-3.6-1.5c-1,0-1.8,0.2-2.6,0.7c-0.8,0.5-1.4,1.2-1.9,2.1c-0.5,0.9-0.8,2-0.8,3.2H203.9z"/>
	<path class="st1" d="M210.5,875.1v-18.6h2.7l0.2,3.2c0.5-1.2,1.3-2.1,2.2-2.7c0.9-0.7,2.1-1,3.3-1c0.3,0,0.6,0,1,0.1
		c0.3,0,0.6,0.1,0.7,0.2v2.7c-0.5-0.2-1.1-0.3-1.9-0.3c-1.2,0-2.3,0.4-3.2,1.2c-1,0.8-1.7,1.9-2.1,3.2v12.1H210.5z"/>
	<path class="st1" d="M229.1,875l-7.3-18.5h3.3l5.7,14.9l5.7-14.9h3.1l-10.4,26H226L229.1,875z"/>
	<path class="st1" d="M240.8,865.5c0-1.9,0.4-3.5,1.1-5c0.7-1.5,1.8-2.6,3.1-3.4c1.3-0.8,2.8-1.2,4.5-1.2c1.7,0,3.2,0.4,4.5,1.2
		c1.3,0.8,2.3,1.9,3.1,3.4c0.7,1.5,1.1,3.1,1.1,5v0.6c0,1.9-0.4,3.5-1.1,4.9c-0.7,1.4-1.8,2.6-3.1,3.3c-1.3,0.8-2.8,1.2-4.5,1.2
		c-1.7,0-3.2-0.4-4.5-1.2c-1.3-0.8-2.4-1.9-3.1-3.3c-0.7-1.4-1.1-3.1-1.1-4.9V865.5z M244,866.1c0,2.2,0.5,3.9,1.5,5.2
		c1,1.3,2.4,1.9,4.1,1.9c1.7,0,3.1-0.6,4.1-1.9s1.5-3,1.5-5.2v-0.6c0-2.2-0.5-3.9-1.5-5.2c-1-1.3-2.4-2-4.1-2c-1.7,0-3.1,0.7-4.1,2
		c-1,1.3-1.5,3-1.5,5.2V866.1z"/>
	<path class="st1" d="M261.9,875.1v-18.6h2.7l0.2,3.7c0.7-1.2,1.6-2.2,2.7-3c1.1-0.8,2.4-1.2,3.9-1.2c1.9,0,3.5,0.6,4.5,1.8
		c1.1,1.2,1.6,2.9,1.6,5.1v12.2h-3v-12c0-1.5-0.3-2.7-0.8-3.5c-0.5-0.8-1.5-1.2-2.7-1.2c-0.8,0-1.7,0.3-2.5,0.8
		c-0.9,0.5-1.6,1.2-2.2,2.1c-0.6,0.9-1.1,1.8-1.3,2.8v10.9H261.9z"/>
	<path class="st1" d="M280.8,865.4c0-1.8,0.4-3.4,1.1-4.8c0.7-1.4,1.7-2.5,2.9-3.3c1.3-0.8,2.7-1.2,4.3-1.2c2.5,0,4.4,0.8,5.9,2.5
		c1.4,1.6,2.1,4,2.1,7.1v1.2h-13.3c0.1,1.9,0.7,3.4,1.7,4.6c1,1.2,2.3,1.8,4,1.8c2.6,0,4.8-0.9,6.6-2.8v3c-0.8,0.7-1.7,1.2-2.8,1.6
		c-1.1,0.4-2.3,0.6-3.8,0.6c-1.8,0-3.4-0.4-4.7-1.2c-1.3-0.8-2.3-1.9-3-3.3s-1-3.1-1-4.9V865.4z M294.1,864.4c0-2-0.5-3.5-1.4-4.5
		c-0.9-1-2.1-1.5-3.6-1.5c-1,0-1.8,0.2-2.6,0.7c-0.8,0.5-1.4,1.2-1.9,2.1c-0.5,0.9-0.8,2-0.8,3.2H294.1z"/>
</g>
</svg>
