<?xml version="1.0" encoding="utf-8"?>
<!-- Generator: Adobe Illustrator 27.5.0, SVG Export Plug-In . SVG Version: 6.00 Build 0)  -->
<svg version="1.1" id="레이어_1" xmlns="http://www.w3.org/2000/svg" xmlns:xlink="http://www.w3.org/1999/xlink" x="0px"
	 y="0px" viewBox="0 0 640 1085" style="enable-background:new 0 0 640 1085;" xml:space="preserve">
<style type="text/css">
	.st0{fill:none;}
	.st1{fill:#FFFFFF;}
</style>
<rect class="st0" width="44" height="41.4"/>
<rect y="812" class="st0" width="640" height="132"/>
<g>
	<path class="st1" d="M39.1,857.1H21.9V849h44.3v8.1H49.1v48.1h-10V857.1z"/>
	<path class="st1" d="M72.2,905.2v-56.7h9.5v22.1c1.4-2,3.3-3.6,5.5-5c2.2-1.3,4.7-2,7.4-2c4.5,0,8,1.3,10.5,3.9
		c2.5,2.6,3.7,6.3,3.7,11.2v26.4h-9.5v-26.4c0-5.1-2.1-7.7-6.2-7.7c-2.4,0-4.7,0.9-6.8,2.8c-2.1,1.8-3.6,4.1-4.5,6.7v24.6H72.2z"/>
	<path class="st1" d="M114.7,884.2c0-3.9,0.8-7.4,2.4-10.5c1.6-3.1,3.8-5.6,6.7-7.3c2.9-1.8,6.2-2.6,10-2.6c5.9,0,10.4,1.9,13.7,5.6
		c3.2,3.7,4.8,8.8,4.8,15.4v3.7h-28.2c0.3,3.4,1.5,6,3.5,7.9c2,1.8,4.6,2.8,8,2.8c2.6,0,5.1-0.5,7.3-1.4c2.3-0.9,4.5-2.5,6.7-4.7
		v9.1c-1.8,1.4-3.9,2.5-6.4,3.2c-2.5,0.8-5.1,1.1-8,1.1c-4.3,0-8.1-0.9-11.1-2.6c-3.1-1.8-5.4-4.2-7-7.3c-1.6-3.1-2.4-6.7-2.4-10.7
		V884.2z M142.8,881.1c0-3.2-0.8-5.7-2.5-7.5c-1.7-1.8-3.9-2.7-6.6-2.7c-2.6,0-4.7,0.9-6.5,2.8c-1.8,1.9-2.8,4.3-3,7.4H142.8z"/>
	<path class="st1" d="M189.2,905.2h-10V849h10v24.3L213,849h12.7l-27.5,27.4l28.7,28.9h-14.4l-23.4-24.8V905.2z"/>
	<path class="st1" d="M241.8,858.7h-9.5v-10.1h9.5V858.7z M241.8,905.2h-9.5v-40.4h9.5V905.2z"/>
	<path class="st1" d="M251.5,886.1c1.5-1.7,3.4-3,5.8-3.9c2.4-0.9,5.4-1.6,8.8-2.2l8.5-1.3c-0.4-5.3-3.7-7.9-9.8-7.9
		c-2.3,0-4.5,0.6-6.8,1.8c-2.2,1.2-4.1,2.9-5.6,5v-9.2c3.8-3.1,8.6-4.7,14.4-4.7c5.1,0,9.3,1.4,12.5,4.1c3.2,2.8,4.8,7,4.8,12.6
		v24.8h-8l-0.9-4.7c-2,1.9-4.1,3.4-6.2,4.3c-2.1,1-4.6,1.4-7.4,1.4c-4,0-7.2-1.1-9.5-3.3c-2.3-2.2-3.4-5.3-3.4-9.1
		C248.9,890.9,249.8,888.3,251.5,886.1z M259.8,897.3c1,0.9,2.3,1.4,3.9,1.4c2.4,0,4.6-0.7,6.7-2.2c2-1.5,3.6-3.3,4.6-5.4v-5.6
		l-4.8,0.8c-3.4,0.5-5.7,1.1-7.1,1.7c-1.4,0.6-2.5,1.2-3.3,2c-0.9,0.9-1.4,2.1-1.4,3.6C258.4,895.1,258.8,896.4,259.8,897.3z"/>
	<path class="st1" d="M348.9,905.2H313V849h35.5v8.1H323v15.1h21.4v8.1H323V897h25.9V905.2z"/>
	<path class="st1" d="M373.5,905.2L352.9,849h11.2l15.6,44.7l15.7-44.7h9.8l-20.5,56.2H373.5z"/>
	<path class="st1" d="M410,890c1.7,2.5,3.9,4.5,6.5,5.9s5.4,2.1,8.5,2.1c2.2,0,4.2-0.5,5.9-1.4s3.1-2.3,4-3.9
		c0.9-1.6,1.4-3.4,1.4-5.4c0-2.9-0.9-5.2-2.8-6.9c-1.9-1.7-4.1-2.6-6.8-2.6c-1.7,0-3.3,0.3-4.8,1c-1.5,0.7-2.5,1.4-3.1,2.2h-6.6
		l2.7-31.2h29.7v8.2h-20.6l-1.1,13.6c0.6-0.4,1.5-0.9,2.8-1.2c1.3-0.4,2.7-0.6,4.3-0.6c3.2,0,6,0.7,8.6,2c2.6,1.4,4.6,3.4,6.1,6
		c1.5,2.6,2.2,5.8,2.2,9.4c0,3.9-1,7.3-2.9,10.1c-1.9,2.8-4.5,5-7.8,6.4c-3.3,1.5-6.9,2.2-10.9,2.2c-6.1,0-11.2-1.7-15.3-5V890z"/>
</g>
</svg>
