<?xml version="1.0" encoding="utf-8"?>
<!-- Generator: Adobe Illustrator 27.5.0, SVG Export Plug-In . SVG Version: 6.00 Build 0)  -->
<svg version="1.1" id="레이어_1" xmlns="http://www.w3.org/2000/svg" xmlns:xlink="http://www.w3.org/1999/xlink" x="0px"
	 y="0px" viewBox="0 0 640 1085" style="enable-background:new 0 0 640 1085;" xml:space="preserve">
<style type="text/css">
	.st0{fill:none;}
	.st1{fill:#FFFFFF;}
</style>
<rect class="st0" width="44" height="41.4"/>
<rect y="482.2" class="st0" width="640" height="177"/>
<g>
	<path class="st1" d="M253.8,511.2H248v-1.9h14v1.9h-5.8v17.1h-2.3V511.2z"/>
	<path class="st1" d="M264.3,528.3v-19.2h2.2v8.2c0.5-0.8,1.2-1.6,2-2.2c0.8-0.6,1.8-0.9,2.8-0.9c1.4,0,2.6,0.4,3.3,1.3
		c0.8,0.9,1.1,2.1,1.1,3.8v9h-2.2v-8.8c0-1.1-0.2-2-0.6-2.6c-0.4-0.6-1.1-0.9-2-0.9c-0.6,0-1.2,0.2-1.9,0.6s-1.2,0.9-1.7,1.5
		c-0.5,0.6-0.8,1.3-1,2v8.1H264.3z"/>
	<path class="st1" d="M278.2,521.2c0-1.3,0.3-2.5,0.8-3.5c0.5-1,1.2-1.9,2.2-2.5c0.9-0.6,2-0.9,3.2-0.9c1.8,0,3.3,0.6,4.3,1.8
		c1,1.2,1.6,2.9,1.6,5.2v0.9h-9.8c0.1,1.4,0.5,2.5,1.2,3.4c0.7,0.9,1.7,1.3,3,1.3c1.9,0,3.5-0.7,4.8-2.1v2.2c-0.6,0.5-1.3,0.9-2,1.2
		c-0.8,0.3-1.7,0.4-2.8,0.4c-1.3,0-2.5-0.3-3.4-0.9c-1-0.6-1.7-1.4-2.2-2.5c-0.5-1.1-0.8-2.3-0.8-3.6V521.2z M288,520.5
		c0-1.5-0.4-2.6-1-3.3c-0.7-0.8-1.5-1.1-2.6-1.1c-0.7,0-1.3,0.2-1.9,0.6c-0.6,0.4-1,0.9-1.4,1.5c-0.4,0.7-0.6,1.5-0.6,2.3H288z"/>
	<path class="st1" d="M301.8,528.3h-2.3v-19h2.3v8.6l8.8-8.6h3l-9.5,9.3l9.9,9.7h-3.3l-8.8-8.8V528.3z"/>
	<path class="st1" d="M318,512.4h-2.2v-2.8h2.2V512.4z M318,528.3h-2.2v-13.7h2.2V528.3z"/>
	<path class="st1" d="M321.4,522.3c0.4-0.6,1-1,1.8-1.3c0.8-0.3,1.9-0.6,3.2-0.8l3.4-0.6c0-1.2-0.3-2.1-0.9-2.7s-1.5-0.9-2.7-0.9
		c-0.9,0-1.7,0.2-2.5,0.6c-0.8,0.4-1.4,0.9-2,1.6V516c0.5-0.5,1.2-0.9,2-1.2c0.8-0.3,1.7-0.5,2.7-0.5c1.7,0,3.1,0.4,4.1,1.3
		s1.5,2.2,1.5,3.9v8.8h-1.7l-0.4-2.1c-0.6,0.8-1.4,1.4-2.2,1.8c-0.9,0.4-1.8,0.7-2.8,0.7c-1.3,0-2.3-0.3-3-1
		c-0.8-0.7-1.1-1.7-1.1-2.9C320.7,523.8,320.9,523,321.4,522.3z M323.5,526.3c0.4,0.4,1,0.6,1.7,0.6c0.9,0,1.7-0.3,2.6-0.8
		s1.5-1.3,2-2.2v-2.6l-2.3,0.4c-1.2,0.2-2.2,0.4-2.8,0.6c-0.6,0.2-1.1,0.5-1.4,0.9c-0.3,0.4-0.5,0.8-0.5,1.4
		C322.9,525.3,323.1,525.9,323.5,526.3z"/>
	<path class="st1" d="M353.6,528.3h-11.5v-19h11.3v1.9h-9v6.4h7.6v1.9h-7.6v6.9h9.2V528.3z"/>
	<path class="st1" d="M362.2,528.3l-7.1-19h2.5l5.9,16.2l5.8-16.2h2.3l-7,19H362.2z"/>
	<path class="st1" d="M373.4,523.8c0.6,0.9,1.3,1.7,2.1,2.2c0.9,0.5,1.8,0.8,2.8,0.8c0.9,0,1.6-0.2,2.3-0.6s1.2-0.9,1.6-1.5
		c0.4-0.7,0.5-1.4,0.5-2.2c0-0.8-0.2-1.5-0.5-2.1s-0.8-1.1-1.4-1.4c-0.6-0.3-1.2-0.5-1.8-0.5c-0.8,0-1.4,0.1-2,0.4
		c-0.6,0.3-1,0.6-1.3,1h-1.6l0.9-10.2h9.4v1.9h-7.3l-0.5,5.9c0.8-0.6,1.8-0.9,3-0.9c1,0,1.9,0.2,2.8,0.7c0.9,0.5,1.5,1.2,2,2.1
		c0.5,0.9,0.8,1.9,0.8,3.1c0,1.3-0.3,2.4-0.9,3.3c-0.6,0.9-1.4,1.6-2.4,2.1c-1,0.5-2.2,0.7-3.5,0.7c-1.1,0-2.1-0.2-2.9-0.6
		c-0.9-0.4-1.5-0.8-2-1.4V523.8z"/>
	<path class="st1" d="M391.1,528.3h-2.9v-3.2h2.9V528.3z M391.1,517.9h-2.8v-3.2h2.8V517.9z"/>
</g>
<g>
	<path class="st1" d="M154.8,567.3c0.4-0.6,1-1,1.8-1.3c0.8-0.3,1.9-0.6,3.2-0.8l3.4-0.6c0-1.2-0.3-2.1-0.9-2.7s-1.5-0.9-2.7-0.9
		c-0.9,0-1.7,0.2-2.5,0.6c-0.8,0.4-1.4,0.9-2,1.6V561c0.5-0.5,1.2-0.9,2-1.2c0.8-0.3,1.7-0.5,2.7-0.5c1.7,0,3.1,0.4,4.1,1.3
		s1.5,2.2,1.5,3.9v8.8h-1.7l-0.4-2.1c-0.6,0.8-1.4,1.4-2.2,1.8c-0.9,0.4-1.8,0.7-2.8,0.7c-1.3,0-2.3-0.3-3-1s-1.1-1.7-1.1-2.9
		C154,568.8,154.3,568,154.8,567.3z M156.9,571.3c0.4,0.4,1,0.6,1.7,0.6c0.9,0,1.7-0.3,2.6-0.8s1.5-1.3,2-2.2v-2.6l-2.3,0.4
		c-1.2,0.2-2.2,0.4-2.8,0.6s-1.1,0.5-1.4,0.9c-0.3,0.4-0.5,0.8-0.5,1.4C156.3,570.3,156.5,570.9,156.9,571.3z"/>
	<path class="st1" d="M174.4,566.2c0-1.3,0.3-2.5,0.8-3.6s1.4-1.9,2.4-2.5c1-0.6,2.2-0.9,3.5-0.9c0.8,0,1.5,0.1,2.2,0.4
		c0.7,0.3,1.3,0.6,1.8,1.1v2.3c-0.5-0.7-1.1-1.2-1.8-1.5c-0.7-0.4-1.4-0.5-2.2-0.5c-0.8,0-1.6,0.2-2.2,0.7s-1.2,1-1.6,1.8
		c-0.4,0.8-0.6,1.7-0.6,2.7v0.4c0,1,0.2,1.9,0.6,2.7c0.4,0.8,0.9,1.4,1.6,1.8c0.7,0.4,1.4,0.7,2.2,0.7c1.5,0,2.9-0.7,4-2v2.3
		c-0.5,0.5-1.1,0.8-1.8,1.1c-0.7,0.3-1.5,0.4-2.2,0.4c-1.3,0-2.4-0.3-3.4-0.9c-1-0.6-1.8-1.4-2.4-2.5s-0.8-2.3-0.8-3.6V566.2z"/>
	<path class="st1" d="M186.8,566.3c0-1.4,0.3-2.6,0.8-3.6c0.5-1.1,1.3-1.9,2.3-2.5c1-0.6,2.1-0.9,3.3-0.9c1.2,0,2.4,0.3,3.3,0.9
		c1,0.6,1.7,1.4,2.3,2.5c0.5,1.1,0.8,2.3,0.8,3.6v0.4c0,1.4-0.3,2.6-0.8,3.6c-0.5,1.1-1.3,1.9-2.3,2.5s-2.1,0.9-3.3,0.9
		c-1.2,0-2.3-0.3-3.3-0.9s-1.7-1.4-2.3-2.5c-0.5-1.1-0.8-2.3-0.8-3.6V566.3z M189.1,566.7c0,1.6,0.4,2.8,1.1,3.8
		c0.7,1,1.7,1.4,3,1.4c1.3,0,2.3-0.5,3-1.4s1.1-2.2,1.1-3.8v-0.4c0-1.6-0.4-2.9-1.1-3.8c-0.7-1-1.7-1.4-3-1.4c-1.3,0-2.3,0.5-3,1.4
		c-0.7,1-1.1,2.2-1.1,3.8V566.7z"/>
	<path class="st1" d="M202.3,573.3v-13.7h2l0.1,2.5c0.5-0.9,1.1-1.5,1.9-2.1c0.7-0.5,1.6-0.8,2.6-0.8c1,0,1.8,0.3,2.5,0.8
		c0.7,0.5,1.1,1.3,1.4,2.2c0.5-0.9,1.2-1.6,2-2.2c0.8-0.5,1.7-0.8,2.7-0.8c1.2,0,2.2,0.4,3,1.2c0.7,0.8,1.1,2,1.1,3.5v9.3h-2.2v-9.1
		c0-1.1-0.2-1.9-0.5-2.4s-0.9-0.8-1.8-0.8c-0.5,0-1,0.2-1.6,0.5c-0.6,0.3-1,0.8-1.5,1.4c-0.4,0.6-0.7,1.2-0.9,1.8v8.6h-2.2v-9.2
		c0-1.1-0.2-1.9-0.5-2.4c-0.4-0.5-0.9-0.8-1.8-0.8c-0.5,0-1,0.2-1.6,0.5c-0.5,0.3-1,0.8-1.5,1.3s-0.7,1.2-0.9,1.8v8.6H202.3z"/>
	<path class="st1" d="M224.8,578.8v-19.2h2l0.2,2.2c0.5-0.8,1.1-1.4,1.9-1.9c0.8-0.5,1.6-0.7,2.5-0.7c1.1,0,2.2,0.3,3.1,0.9
		c0.9,0.6,1.6,1.4,2.1,2.5c0.5,1.1,0.8,2.3,0.8,3.8c0,1.4-0.3,2.7-0.8,3.8c-0.5,1.1-1.2,1.9-2.1,2.5c-0.9,0.6-1.9,0.9-3.1,0.9
		c-0.9,0-1.7-0.2-2.5-0.7s-1.4-1-1.9-1.8v7.5H224.8z M227,568.7c0.3,0.9,0.9,1.7,1.6,2.3c0.8,0.6,1.5,0.9,2.4,0.9
		c0.8,0,1.5-0.2,2.1-0.7c0.6-0.4,1.1-1.1,1.5-1.9c0.4-0.8,0.5-1.8,0.5-2.9c0-1.1-0.2-2.1-0.5-2.9c-0.4-0.8-0.8-1.4-1.5-1.9
		c-0.6-0.4-1.3-0.7-2.1-0.7c-0.9,0-1.7,0.3-2.4,0.9s-1.3,1.4-1.6,2.3V568.7z"/>
	<path class="st1" d="M239.8,567.3c0.4-0.6,1-1,1.8-1.3c0.8-0.3,1.9-0.6,3.2-0.8l3.4-0.6c0-1.2-0.3-2.1-0.9-2.7s-1.5-0.9-2.7-0.9
		c-0.9,0-1.7,0.2-2.5,0.6c-0.8,0.4-1.4,0.9-2,1.6V561c0.5-0.5,1.2-0.9,2-1.2c0.8-0.3,1.7-0.5,2.7-0.5c1.7,0,3.1,0.4,4.1,1.3
		s1.5,2.2,1.5,3.9v8.8h-1.7l-0.4-2.1c-0.6,0.8-1.4,1.4-2.2,1.8c-0.9,0.4-1.8,0.7-2.8,0.7c-1.3,0-2.3-0.3-3-1s-1.1-1.7-1.1-2.9
		C239,568.8,239.3,568,239.8,567.3z M241.9,571.3c0.4,0.4,1,0.6,1.7,0.6c0.9,0,1.7-0.3,2.6-0.8s1.5-1.3,2-2.2v-2.6l-2.3,0.4
		c-1.2,0.2-2.2,0.4-2.8,0.6s-1.1,0.5-1.4,0.9c-0.3,0.4-0.5,0.8-0.5,1.4C241.3,570.3,241.5,570.9,241.9,571.3z"/>
	<path class="st1" d="M252.9,566.2c0-1.3,0.3-2.5,0.8-3.6s1.4-1.9,2.4-2.5c1-0.6,2.2-0.9,3.5-0.9c0.8,0,1.5,0.1,2.2,0.4
		c0.7,0.3,1.3,0.6,1.8,1.1v2.3c-0.5-0.7-1.1-1.2-1.8-1.5c-0.7-0.4-1.4-0.5-2.2-0.5c-0.8,0-1.6,0.2-2.2,0.7s-1.2,1-1.6,1.8
		c-0.4,0.8-0.6,1.7-0.6,2.7v0.4c0,1,0.2,1.9,0.6,2.7c0.4,0.8,0.9,1.4,1.6,1.8c0.7,0.4,1.4,0.7,2.2,0.7c1.5,0,2.9-0.7,4-2v2.3
		c-0.5,0.5-1.1,0.8-1.8,1.1c-0.7,0.3-1.5,0.4-2.2,0.4c-1.3,0-2.4-0.3-3.4-0.9c-1-0.6-1.8-1.4-2.4-2.5s-0.8-2.3-0.8-3.6V566.2z"/>
	<path class="st1" d="M268.1,561.4h-3v-1.8h3v-4.1h2.2v4.1h3v1.8h-3v11.9h-2.2V561.4z"/>
	<path class="st1" d="M281.4,568.7c0.6,0.9,1.4,1.7,2.3,2.2s2,0.8,3.1,0.8c0.8,0,1.5-0.2,2.1-0.5c0.6-0.3,1-0.7,1.3-1.2
		s0.5-1,0.5-1.6c0-0.8-0.2-1.4-0.7-2c-0.5-0.5-1.2-1.1-2.1-1.6l-2.7-1.4c-1.1-0.6-2-1.3-2.6-2.1c-0.6-0.8-0.9-1.7-0.9-2.8
		c0-0.9,0.2-1.7,0.7-2.4c0.5-0.7,1.1-1.3,2-1.7c0.9-0.4,1.9-0.6,3-0.6c0.9,0,1.9,0.2,2.8,0.6c0.9,0.4,1.7,0.9,2.4,1.5v2.8
		c-0.7-0.9-1.5-1.6-2.4-2.2c-0.9-0.5-1.8-0.8-2.8-0.8c-1,0-1.8,0.3-2.4,0.8c-0.6,0.5-0.9,1.2-0.9,2c0,0.6,0.2,1.2,0.6,1.6
		c0.4,0.5,1.1,1,2.1,1.5l2.6,1.4c1.3,0.7,2.2,1.4,2.8,2.3c0.6,0.8,0.9,1.9,0.9,3.1c0,1-0.3,1.9-0.8,2.7c-0.5,0.8-1.2,1.4-2.2,1.9
		c-1,0.4-2.1,0.7-3.4,0.7c-1.2,0-2.3-0.2-3.2-0.6c-1-0.4-1.7-0.9-2.2-1.5V568.7z"/>
	<path class="st1" d="M296.1,554.3h2.3v12c0,1.7,0.4,3.1,1.3,4c0.9,1,2.1,1.5,3.8,1.5c1.6,0,2.9-0.5,3.7-1.5c0.9-1,1.3-2.3,1.3-4
		v-12h2.2v12.1c0,1.4-0.3,2.7-0.9,3.8c-0.6,1.1-1.4,2-2.5,2.6s-2.4,0.9-3.9,0.9s-2.8-0.3-3.9-0.9s-1.9-1.5-2.5-2.6
		c-0.6-1.1-0.9-2.4-0.9-3.8V554.3z"/>
	<path class="st1" d="M320,573.3l-7.1-19h2.5l5.9,16.2l5.8-16.2h2.3l-7,19H320z"/>
	<path class="st1" d="M349.7,573.3h-11.5v-19h11.3v1.9h-9v6.4h7.6v1.9h-7.6v6.9h9.2V573.3z"/>
	<path class="st1" d="M358.3,573.3l-7.1-19h2.5l5.9,16.2l5.8-16.2h2.3l-7,19H358.3z"/>
	<path class="st1" d="M376.2,562.7c0.5-1.1,1.2-1.9,2.2-2.5c0.9-0.6,1.9-0.9,3.1-0.9c0.9,0,1.7,0.2,2.5,0.7c0.8,0.4,1.4,1,1.9,1.7
		v-7.5h2.2v19.2h-2l-0.2-2.1c-0.5,0.8-1.1,1.4-1.9,1.8c-0.8,0.5-1.6,0.7-2.5,0.7c-1.1,0-2.2-0.3-3.1-0.9c-0.9-0.6-1.6-1.4-2.2-2.5
		s-0.8-2.4-0.8-3.8C375.4,565,375.6,563.8,376.2,562.7z M378.2,569.4c0.3,0.8,0.8,1.5,1.4,1.9c0.6,0.4,1.3,0.7,2.1,0.7
		c0.9,0,1.6-0.3,2.4-0.9c0.7-0.6,1.3-1.4,1.6-2.3v-4.5c-0.4-0.9-0.9-1.7-1.6-2.3c-0.7-0.6-1.5-0.9-2.4-0.9c-0.8,0-1.5,0.2-2.1,0.7
		c-0.6,0.4-1.1,1.1-1.5,1.9s-0.5,1.8-0.5,2.9C377.7,567.6,377.9,568.5,378.2,569.4z"/>
	<path class="st1" d="M390.6,566.2c0-1.3,0.3-2.5,0.8-3.5s1.2-1.9,2.2-2.5c0.9-0.6,2-0.9,3.2-0.9c1.8,0,3.3,0.6,4.3,1.8
		c1,1.2,1.6,2.9,1.6,5.2v0.9h-9.8c0.1,1.4,0.5,2.5,1.2,3.4s1.7,1.3,3,1.3c1.9,0,3.5-0.7,4.8-2.1v2.2c-0.6,0.5-1.3,0.9-2,1.2
		c-0.8,0.3-1.7,0.4-2.8,0.4c-1.3,0-2.5-0.3-3.4-0.9c-1-0.6-1.7-1.4-2.2-2.5c-0.5-1.1-0.8-2.3-0.8-3.6V566.2z M400.4,565.5
		c0-1.5-0.4-2.6-1-3.3c-0.7-0.8-1.5-1.1-2.6-1.1c-0.7,0-1.3,0.2-1.9,0.6c-0.6,0.4-1,0.9-1.4,1.5s-0.6,1.5-0.6,2.3H400.4z"/>
	<path class="st1" d="M407.4,573.3h-2.2v-19.2h2.2V573.3z"/>
	<path class="st1" d="M413.2,557.4H411v-2.8h2.2V557.4z M413.2,573.3H411v-13.7h2.2V573.3z"/>
	<path class="st1" d="M420.4,573.3l-5.2-13.7h2.4l4.1,11.3l4.2-11.3h2.2l-5.2,13.7H420.4z"/>
	<path class="st1" d="M429.1,566.2c0-1.3,0.3-2.5,0.8-3.5s1.2-1.9,2.2-2.5c0.9-0.6,2-0.9,3.2-0.9c1.8,0,3.3,0.6,4.3,1.8
		c1,1.2,1.6,2.9,1.6,5.2v0.9h-9.8c0.1,1.4,0.5,2.5,1.2,3.4s1.7,1.3,3,1.3c1.9,0,3.5-0.7,4.8-2.1v2.2c-0.6,0.5-1.3,0.9-2,1.2
		c-0.8,0.3-1.7,0.4-2.8,0.4c-1.3,0-2.5-0.3-3.4-0.9c-1-0.6-1.7-1.4-2.2-2.5c-0.5-1.1-0.8-2.3-0.8-3.6V566.2z M438.9,565.5
		c0-1.5-0.4-2.6-1-3.3c-0.7-0.8-1.5-1.1-2.6-1.1c-0.7,0-1.3,0.2-1.9,0.6c-0.6,0.4-1,0.9-1.4,1.5s-0.6,1.5-0.6,2.3H438.9z"/>
	<path class="st1" d="M443.7,573.3v-13.7h2l0.2,2.4c0.4-0.8,0.9-1.5,1.6-2c0.7-0.5,1.5-0.7,2.5-0.7c0.2,0,0.5,0,0.7,0.1
		s0.4,0.1,0.5,0.1v1.9c-0.4-0.1-0.8-0.2-1.4-0.2c-0.9,0-1.7,0.3-2.4,0.9c-0.7,0.6-1.2,1.4-1.5,2.3v8.9H443.7z"/>
	<path class="st1" d="M455.4,557.4h-2.2v-2.8h2.2V557.4z M455.4,573.3h-2.2v-13.7h2.2V573.3z"/>
	<path class="st1" d="M459,573.3v-13.7h2l0.2,2.8c0.5-0.9,1.2-1.6,2-2.2s1.8-0.9,2.9-0.9c1.4,0,2.5,0.4,3.3,1.3
		c0.8,0.9,1.2,2.1,1.2,3.8v9h-2.2v-8.8c0-1.1-0.2-2-0.6-2.6c-0.4-0.6-1.1-0.9-2-0.9c-0.6,0-1.2,0.2-1.9,0.6s-1.2,0.9-1.7,1.6
		c-0.5,0.6-0.8,1.3-1,2v8H459z"/>
	<path class="st1" d="M473.6,562.5c0.5-1,1.2-1.8,2.1-2.4c0.9-0.6,1.9-0.8,3.1-0.8c0.9,0,1.7,0.2,2.5,0.7c0.8,0.4,1.4,1,1.9,1.8
		l0.2-2.1h2v13.2c0,1.2-0.3,2.3-0.8,3.3s-1.3,1.7-2.3,2.2c-1,0.5-2.2,0.8-3.6,0.8c-0.9,0-1.7-0.1-2.4-0.3c-0.7-0.2-1.4-0.5-2-1v-2.2
		c1.3,1,2.7,1.6,4.4,1.6c1.4,0,2.5-0.4,3.3-1.2c0.8-0.8,1.2-1.9,1.2-3.3v-2.1c-0.5,0.7-1.1,1.3-1.9,1.7c-0.8,0.4-1.6,0.7-2.4,0.7
		c-1.2,0-2.2-0.3-3.1-0.8c-0.9-0.6-1.6-1.4-2.1-2.4c-0.5-1-0.8-2.2-0.8-3.6C472.9,564.7,473.1,563.5,473.6,562.5z M475.7,568.9
		c0.4,0.8,0.8,1.4,1.5,1.8s1.3,0.6,2,0.6c0.8,0,1.6-0.3,2.3-0.9c0.7-0.6,1.3-1.3,1.6-2.3v-3.9c-0.4-0.9-0.9-1.7-1.6-2.3
		s-1.5-0.9-2.4-0.9c-0.7,0-1.4,0.2-2,0.6c-0.6,0.4-1.1,1-1.4,1.8c-0.4,0.8-0.5,1.7-0.5,2.7S475.3,568.1,475.7,568.9z"/>
</g>
<g>
	<path class="st1" d="M200,606.4h-3v-1.8h3v-4.1h2.2v4.1h3v1.8h-3v11.9H200V606.4z"/>
	<path class="st1" d="M207.1,618.3v-19.2h2.2v8.2c0.5-0.8,1.2-1.6,2-2.2c0.8-0.6,1.8-0.9,2.8-0.9c1.4,0,2.6,0.4,3.3,1.3
		c0.8,0.9,1.1,2.1,1.1,3.8v9h-2.2v-8.8c0-1.1-0.2-2-0.6-2.6c-0.4-0.6-1.1-0.9-2-0.9c-0.6,0-1.2,0.2-1.9,0.6s-1.2,0.9-1.7,1.5
		c-0.5,0.6-0.8,1.3-1,2v8.1H207.1z"/>
	<path class="st1" d="M221,611.2c0-1.3,0.3-2.5,0.8-3.5c0.5-1,1.2-1.9,2.2-2.5c0.9-0.6,2-0.9,3.2-0.9c1.8,0,3.3,0.6,4.3,1.8
		c1,1.2,1.6,2.9,1.6,5.2v0.9h-9.8c0.1,1.4,0.5,2.5,1.2,3.4c0.7,0.9,1.7,1.3,3,1.3c1.9,0,3.5-0.7,4.8-2.1v2.2c-0.6,0.5-1.3,0.9-2,1.2
		c-0.8,0.3-1.7,0.4-2.8,0.4c-1.3,0-2.5-0.3-3.4-0.9c-1-0.6-1.7-1.4-2.2-2.5c-0.5-1.1-0.8-2.3-0.8-3.6V611.2z M230.8,610.5
		c0-1.5-0.4-2.6-1-3.3c-0.7-0.8-1.5-1.1-2.6-1.1c-0.7,0-1.3,0.2-1.9,0.6c-0.6,0.4-1,0.9-1.4,1.5c-0.4,0.7-0.6,1.5-0.6,2.3H230.8z"/>
	<path class="st1" d="M240.4,606.4v-1.8h2.8v-1.3c0-0.8,0.2-1.6,0.5-2.3c0.3-0.7,0.8-1.3,1.4-1.7c0.6-0.4,1.4-0.6,2.4-0.6
		c0.6,0,1.2,0.1,1.7,0.4v2c-0.4-0.4-0.9-0.5-1.6-0.5c-0.7,0-1.2,0.2-1.6,0.7c-0.4,0.5-0.6,1.2-0.6,2.1v1.3h3.2v1.8h-3.2v11.9h-2.2
		v-11.9H240.4z"/>
	<path class="st1" d="M250.8,604.7h2.2v8.8c0,1.1,0.2,2,0.6,2.6c0.4,0.6,1.1,0.9,2,0.9c0.6,0,1.3-0.2,1.9-0.6s1.2-0.9,1.6-1.5
		c0.5-0.6,0.8-1.3,1-2.1v-8.1h2.2v13.7h-2l-0.2-2.8c-0.5,0.9-1.2,1.6-2,2.2c-0.8,0.6-1.8,0.9-2.9,0.9c-1.4,0-2.5-0.4-3.3-1.3
		c-0.8-0.9-1.2-2.1-1.2-3.8V604.7z"/>
	<path class="st1" d="M267.2,606.4h-3v-1.8h3v-4.1h2.2v4.1h3v1.8h-3v11.9h-2.2V606.4z"/>
	<path class="st1" d="M274.2,604.7h2.2v8.8c0,1.1,0.2,2,0.6,2.6c0.4,0.6,1.1,0.9,2,0.9c0.6,0,1.3-0.2,1.9-0.6s1.2-0.9,1.6-1.5
		c0.5-0.6,0.8-1.3,1-2.1v-8.1h2.2v13.7h-2l-0.2-2.8c-0.5,0.9-1.2,1.6-2,2.2c-0.8,0.6-1.8,0.9-2.9,0.9c-1.4,0-2.5-0.4-3.3-1.3
		c-0.8-0.9-1.2-2.1-1.2-3.8V604.7z"/>
	<path class="st1" d="M289.3,618.3v-13.7h2l0.2,2.4c0.4-0.8,0.9-1.5,1.6-2c0.7-0.5,1.5-0.7,2.5-0.7c0.2,0,0.5,0,0.7,0.1
		s0.4,0.1,0.5,0.1v1.9c-0.4-0.1-0.8-0.2-1.4-0.2c-0.9,0-1.7,0.3-2.4,0.9c-0.7,0.6-1.2,1.4-1.5,2.3v8.9H289.3z"/>
	<path class="st1" d="M297.7,611.2c0-1.3,0.3-2.5,0.8-3.5c0.5-1,1.2-1.9,2.2-2.5c0.9-0.6,2-0.9,3.2-0.9c1.8,0,3.3,0.6,4.3,1.8
		c1,1.2,1.6,2.9,1.6,5.2v0.9h-9.8c0.1,1.4,0.5,2.5,1.2,3.4c0.7,0.9,1.7,1.3,3,1.3c1.9,0,3.5-0.7,4.8-2.1v2.2c-0.6,0.5-1.3,0.9-2,1.2
		c-0.8,0.3-1.7,0.4-2.8,0.4c-1.3,0-2.5-0.3-3.4-0.9c-1-0.6-1.7-1.4-2.2-2.5c-0.5-1.1-0.8-2.3-0.8-3.6V611.2z M307.5,610.5
		c0-1.5-0.4-2.6-1-3.3c-0.7-0.8-1.5-1.1-2.6-1.1c-0.7,0-1.3,0.2-1.9,0.6c-0.6,0.4-1,0.9-1.4,1.5c-0.4,0.7-0.6,1.5-0.6,2.3H307.5z"/>
	<path class="st1" d="M317.9,611.3c0-1.4,0.3-2.6,0.8-3.6c0.5-1.1,1.3-1.9,2.3-2.5c1-0.6,2.1-0.9,3.3-0.9c1.2,0,2.4,0.3,3.3,0.9
		c1,0.6,1.7,1.4,2.3,2.5c0.5,1.1,0.8,2.3,0.8,3.6v0.4c0,1.4-0.3,2.6-0.8,3.6c-0.5,1.1-1.3,1.9-2.3,2.5s-2.1,0.9-3.3,0.9
		c-1.2,0-2.3-0.3-3.3-0.9c-1-0.6-1.7-1.4-2.3-2.5c-0.5-1.1-0.8-2.3-0.8-3.6V611.3z M320.2,611.7c0,1.6,0.4,2.8,1.1,3.8
		s1.7,1.4,3,1.4c1.3,0,2.3-0.5,3-1.4s1.1-2.2,1.1-3.8v-0.4c0-1.6-0.4-2.9-1.1-3.8c-0.7-1-1.7-1.4-3-1.4c-1.3,0-2.3,0.5-3,1.4
		c-0.7,1-1.1,2.2-1.1,3.8V611.7z"/>
	<path class="st1" d="M331.7,606.4v-1.8h2.8v-1.3c0-0.8,0.2-1.6,0.5-2.3c0.3-0.7,0.8-1.3,1.4-1.7s1.4-0.6,2.4-0.6
		c0.7,0,1.2,0.1,1.7,0.4v2c-0.4-0.4-0.9-0.5-1.5-0.5c-0.7,0-1.2,0.2-1.6,0.7c-0.4,0.5-0.6,1.2-0.6,2.1v1.3h3.2v1.8h-3.2v11.9h-2.2
		v-11.9H331.7z"/>
	<path class="st1" d="M348.8,618.3v-13.7h2l0.1,2.5c0.5-0.9,1.1-1.5,1.9-2.1c0.7-0.5,1.6-0.8,2.6-0.8c1,0,1.8,0.3,2.4,0.8
		c0.7,0.5,1.1,1.3,1.4,2.2c0.5-0.9,1.2-1.6,2-2.2c0.8-0.5,1.7-0.8,2.7-0.8c1.2,0,2.2,0.4,3,1.2s1.1,2,1.1,3.5v9.3h-2.2v-9.1
		c0-1.1-0.2-1.9-0.5-2.4s-0.9-0.8-1.8-0.8c-0.5,0-1,0.2-1.6,0.5c-0.5,0.3-1,0.8-1.5,1.4s-0.7,1.2-0.9,1.8v8.6h-2.2v-9.2
		c0-1.1-0.2-1.9-0.5-2.4c-0.4-0.5-0.9-0.8-1.8-0.8c-0.5,0-1,0.2-1.6,0.5c-0.5,0.3-1,0.8-1.5,1.3s-0.7,1.2-0.9,1.8v8.6H348.8z"/>
	<path class="st1" d="M370.3,611.3c0-1.4,0.3-2.6,0.8-3.6c0.5-1.1,1.3-1.9,2.3-2.5c1-0.6,2.1-0.9,3.3-0.9c1.2,0,2.4,0.3,3.3,0.9
		c1,0.6,1.7,1.4,2.3,2.5c0.5,1.1,0.8,2.3,0.8,3.6v0.4c0,1.4-0.3,2.6-0.8,3.6c-0.5,1.1-1.3,1.9-2.3,2.5s-2.1,0.9-3.3,0.9
		c-1.2,0-2.3-0.3-3.3-0.9c-1-0.6-1.7-1.4-2.3-2.5c-0.5-1.1-0.8-2.3-0.8-3.6V611.3z M372.6,611.7c0,1.6,0.4,2.8,1.1,3.8
		s1.7,1.4,3,1.4c1.3,0,2.3-0.5,3-1.4s1.1-2.2,1.1-3.8v-0.4c0-1.6-0.4-2.9-1.1-3.8c-0.7-1-1.7-1.4-3-1.4c-1.3,0-2.3,0.5-3,1.4
		c-0.7,1-1.1,2.2-1.1,3.8V611.7z"/>
	<path class="st1" d="M385.8,618.3v-19.2h2.2v7.5c0.5-0.7,1.1-1.3,1.9-1.7c0.8-0.4,1.6-0.7,2.5-0.7c1.1,0,2.2,0.3,3.1,0.9
		c0.9,0.6,1.6,1.4,2.1,2.5c0.5,1.1,0.8,2.3,0.8,3.8c0,1.4-0.3,2.7-0.8,3.8s-1.2,1.9-2.1,2.5c-0.9,0.6-1.9,0.9-3.1,0.9
		c-0.9,0-1.7-0.2-2.5-0.7c-0.8-0.5-1.4-1.1-1.9-1.8l-0.2,2.1H385.8z M388,613.7c0.3,0.9,0.9,1.7,1.6,2.3c0.7,0.6,1.5,0.9,2.4,0.9
		c0.8,0,1.5-0.2,2.1-0.7c0.6-0.4,1.1-1.1,1.5-1.9c0.4-0.8,0.5-1.8,0.5-2.9c0-1.1-0.2-2.1-0.5-2.9s-0.8-1.4-1.5-1.9
		c-0.6-0.4-1.3-0.7-2.1-0.7c-0.8,0-1.6,0.3-2.4,0.9c-0.7,0.6-1.3,1.4-1.6,2.3V613.7z"/>
	<path class="st1" d="M403.2,602.4H401v-2.8h2.2V602.4z M403.2,618.3H401v-13.7h2.2V618.3z"/>
	<path class="st1" d="M409,618.3h-2.2v-19.2h2.2V618.3z"/>
	<path class="st1" d="M414.8,602.4h-2.2v-2.8h2.2V602.4z M414.8,618.3h-2.2v-13.7h2.2V618.3z"/>
	<path class="st1" d="M419.8,606.4h-3v-1.8h3v-4.1h2.2v4.1h3v1.8h-3v11.9h-2.2V606.4z"/>
	<path class="st1" d="M431.2,618.3l-5.4-13.6h2.4l4.2,10.9l4.2-10.9h2.3l-7.6,19.2h-2.3L431.2,618.3z"/>
	<path class="st1" d="M442,618.3h-2.9v-3.2h2.9V618.3z"/>
</g>
</svg>
