<?xml version="1.0" standalone="no"?><!DOCTYPE svg PUBLIC "-//W3C//DTD SVG 1.1//EN" "http://www.w3.org/Graphics/SVG/1.1/DTD/svg11.dtd"><svg xmlns="http://www.w3.org/2000/svg" version="1.1" width="467px" height="31px" viewBox="0 -4 467 31" style="top:-4px"><desc>올바른 실천으로 올바른 변화를 이끌어 나갑니다</desc><defs/><g id="Polygon109586"><path d="m15.2 4.9c0 .6-.1 1.2-.4 1.7c-.3.6-.6 1.1-1.1 1.5c-.5.4-1 .7-1.6.9c-.3.1-.5.2-.8.3v.8h7.7v2H1.1v-2h7.7s-.04-.83 0-.8c-.3-.1-.5-.2-.8-.3c-.6-.2-1.2-.5-1.6-.9c-.5-.4-.9-.9-1.2-1.5c-.2-.5-.4-1.1-.4-1.7c0-.6.2-1.2.4-1.7c.3-.6.7-1.1 1.2-1.5c.4-.4 1-.7 1.6-1c.7-.2 1.3-.3 2-.3c.7 0 1.4.1 2 .3c.7.3 1.2.6 1.7 1c.5.4.8.9 1.1 1.5c.3.5.4 1.1.4 1.7zm-2.5 0c0-.7-.2-1.3-.8-1.8c-.5-.5-1.1-.7-1.9-.7c-.7 0-1.3.2-1.9.7c-.5.5-.8 1.1-.8 1.8c0 .7.3 1.3.8 1.8c.6.5 1.2.7 1.9.7c.8 0 1.4-.2 1.9-.7c.6-.5.8-1.1.8-1.8zM17 21.1H3.3v-4.9h11v-1.1h-11v-1.9h13.5v4.8h-11v1.2H17v1.9zm13.8-4.8h-9.4V1.7h2.5v4.4h4.4V1.7h2.5v14.6zM28.3 14V8.3h-4.4v5.7h4.4zm7.5-13v6.5h3.1v2.4h-3.1v11.2h-2.5V1h2.5zm19.8 9.9H42V5.1h11V3.5h-11V1.4h13.5v5.8h-11v1.6h11.1v2.1zm-15.8 1.6h17.9v2.2H39.8v-2.2zm16 8.6H42.1v-4.9h2.6v2.7h11.1v2.2zM81.9 1v10.3h-2.5V1h2.5zm.2 20.1H69.2v-5.4h10.2v-1.4H69.2v-2h12.7v5.3H71.7v1.5h10.4v2zm-9.6-18c0 1.5.4 2.8 1.3 3.8c.8.9 1.9 1.7 3.5 2.4L75.9 11c-1.6-.6-3-1.6-4.1-2.9c-.2-.2-.4-.4-.5-.6c-.2.2-.4.5-.6.8c-1.1 1.2-2.5 2.2-4.1 2.9L65 9.6c1.5-.7 2.8-1.5 3.7-2.5c.8-1 1.3-2.3 1.3-4c-.03.01 0-1.7 0-1.7h2.5v1.7zM101.2 1v15h-2.4V9.1h-3.4V6.8h3.4V1h2.4zm.6 20.1h-13v-6.2h2.6v3.9h10.4v2.3zM92 5.2s-.05.6 0 .6c0 1.1.4 2.1 1.2 3.2c.9 1 2 2 3.6 2.8l-1.5 1.8c-1.5-.8-2.8-1.8-3.9-3.1c-.3-.3-.5-.6-.7-.9c-.1.3-.3.5-.5.7c-1.1 1.5-2.5 2.6-4 3.5l-1.6-1.7c1.6-1 2.8-2 3.6-3.1c.8-1.1 1.2-2.2 1.2-3.2c.02 0 0-.6 0-.6H85V2.9h4.4V.7h2.6v2.2h4.3v2.3H92zm27.3 2.4c0 .8-.1 1.6-.5 2.3c-.3.7-.7 1.4-1.3 1.9c-.6.6-1.3 1-2 1.3c-.8.3-1.6.5-2.5.5c-.9 0-1.7-.2-2.5-.5c-.7-.3-1.4-.7-2-1.3c-.6-.5-1-1.2-1.3-1.9c-.4-.7-.5-1.5-.5-2.3c0-.8.1-1.6.5-2.3c.3-.8.7-1.4 1.3-1.9c.6-.6 1.3-1 2-1.3c.8-.3 1.6-.5 2.5-.5c.9 0 1.7.2 2.5.5c.7.3 1.4.7 2 1.3c.6.5 1 1.1 1.3 1.9c.4.7.5 1.5.5 2.3zm-2.5 0c0-.5-.1-1-.3-1.4c-.2-.5-.5-.9-.8-1.2c-.3-.4-.8-.6-1.2-.8c-.5-.2-1-.3-1.5-.3c-.5 0-1 .1-1.5.3c-.5.2-.9.4-1.2.8c-.4.3-.6.7-.8 1.2c-.2.4-.3.9-.3 1.4c0 .5.1 1 .3 1.4c.2.5.4.9.8 1.2c.3.3.7.6 1.2.8c.5.2 1 .3 1.5.3c.5 0 1-.1 1.5-.3c.4-.2.9-.5 1.2-.8c.3-.3.6-.7.8-1.2c.2-.4.3-.9.3-1.4zm5.1 8.7v2.3h-17.8v-2.3h17.8zm17.3-2.6h-5.6v3.1h7.7v2.2h-17.9v-2.2h7.7v-3.1h-5.5v-7h11V4.1h-11V1.9h13.5v7h-11v2.6h11.1v2.2zm23.9-8.8c0 .6-.2 1.2-.4 1.7c-.3.6-.7 1.1-1.2 1.5c-.4.4-1 .7-1.6.9c-.3.1-.5.2-.8.3c.04-.03 0 .8 0 .8h7.7v2h-17.9v-2h7.7v-.8c-.3-.1-.5-.2-.7-.3c-.7-.2-1.2-.5-1.7-.9c-.5-.4-.8-.9-1.1-1.5c-.3-.5-.4-1.1-.4-1.7c0-.6.1-1.2.4-1.7c.3-.6.6-1.1 1.1-1.5c.5-.4 1-.7 1.7-1c.6-.2 1.3-.3 2-.3c.7 0 1.3.1 2 .3c.6.3 1.2.6 1.6 1c.5.4.9.9 1.2 1.5c.2.5.4 1.1.4 1.7zm-2.5 0c0-.7-.3-1.3-.8-1.8c-.6-.5-1.2-.7-1.9-.7c-.8 0-1.4.2-1.9.7c-.6.5-.8 1.1-.8 1.8c0 .7.2 1.3.8 1.8c.5.5 1.1.7 1.9.7c.7 0 1.3-.2 1.9-.7c.5-.5.8-1.1.8-1.8zm4.2 16.2h-13.7v-4.9h11v-1.1h-11v-1.9h13.5v4.8h-11v1.2h11.2v1.9zm13.8-4.8h-9.3V1.7h2.4v4.4h4.5V1.7h2.4v14.6zm-2.4-2.3V8.3h-4.5v5.7h4.5zm7.5-13v6.5h3v2.4h-3v11.2h-2.5V1h2.5zm19.8 9.9h-13.6V5.1h11V3.5h-11V1.4h13.4v5.8h-11v1.6h11.2v2.1zm-15.8 1.6h17.8v2.2h-17.8v-2.2zm16 8.6H190v-4.9h2.6v2.7h11.1v2.2zm20.2-8.1h-9.4V1.6h2.5v3.3h4.5V1.6h2.4v2h3.3V1h2.5v14.7h-2.5v-5.2h-3.3v2.5zm0-7.3v2.7h3.3V5.7h-3.3zm-2.4 5.1V7H217v3.8h4.5zm8.8 10.3h-13v-6.2h2.5v4h10.5v2.2zm7.4-18.4v-2h2.6v2h4.5v2h-2.2s-.02.06 0 .1c.4.4.8.9 1.1 1.5c.2.5.4 1.1.4 1.8c0 .6-.2 1.2-.4 1.8c-.3.6-.7 1.1-1.1 1.5c-.5.4-1 .8-1.6 1c-.3.1-.5.2-.8.3v2.5c2 0 3.9-.1 5.7-.3c.04 0 0-13.9 0-13.9h2.5v7.3h2.8v2.4h-2.8v10.4h-2.5s.04-4.03 0-4c-1.8.2-3.9.3-6.2.3h-7.5v-2.2h5.6s-.03-2.53 0-2.5c-.3-.1-.6-.2-.8-.3c-.6-.2-1.2-.6-1.6-1c-.5-.4-.9-.9-1.1-1.5c-.3-.6-.4-1.2-.4-1.8c0-.7.1-1.3.4-1.8c.2-.6.6-1.1 1.1-1.5c-.04-.04 0-.1 0-.1H233v-2h4.7zm3.9 5.3c0-.7-.2-1.3-.8-1.9c-.5-.5-1.1-.7-1.8-.7c-.8 0-1.4.2-1.9.7c-.5.6-.8 1.2-.8 1.9c0 .7.3 1.3.8 1.9c.5.5 1.1.7 1.9.7c.7 0 1.3-.2 1.8-.7c.6-.6.8-1.2.8-1.9zm26.1 1.2h-13.6V4.4h11V3.2h-11V1.3h13.5v4.8h-11v1.2h11.1v1.9zm-15.8 1.1h17.9v1.9h-17.9v-1.9zm15.9 10.8h-13.7v-4.8h11v-1.1h-11v-1.8h13.5v4.7h-11v1.1h11.2v1.9zm21.4-13.3c0 .8-.2 1.6-.5 2.2c-.3.7-.7 1.3-1.3 1.8c-.5.6-1.1 1-1.9 1.3c-.7.3-1.4.4-2.3.4c-.8 0-1.5-.1-2.3-.4c-.7-.3-1.3-.7-1.8-1.3c-.6-.5-1-1.1-1.3-1.8c-.3-.6-.5-1.4-.5-2.2c0-.7.2-1.5.5-2.2c.3-.6.7-1.2 1.3-1.8c.5-.5 1.1-.9 1.8-1.2c.8-.3 1.5-.4 2.3-.4c.9 0 1.6.1 2.3.4c.8.3 1.4.7 1.9 1.2c.6.6 1 1.2 1.3 1.8c.3.7.5 1.5.5 2.2zm-2.5 0c0-.4-.1-.9-.3-1.3c-.2-.4-.4-.8-.7-1.1c-.3-.3-.7-.5-1.1-.7c-.4-.2-.9-.3-1.4-.3c-.4 0-.9.1-1.3.3c-.4.2-.8.4-1.1.7c-.3.3-.5.7-.7 1.1c-.2.4-.3.9-.3 1.3c0 .5.1 1 .3 1.4c.2.4.4.8.7 1.1c.3.3.7.5 1.1.7c.4.2.9.3 1.3.3c.5 0 1-.1 1.4-.3c.4-.2.8-.4 1.1-.7c.3-.3.5-.7.7-1.1c.2-.4.3-.9.3-1.4zm4.9-6.8h2.5v20.1h-2.5V1zm17.9 7.4c.5-1.6.8-3.1.8-4.6c-.03.02 0-.2 0-.2h-3.9V1.4h6.3s-.02 1.66 0 1.7c0 2.1-.3 3.8-.8 5.3h2.8v2.1h-17.9V8.4h5c.5-1.4.8-2.9.8-4.5c-.04.01 0-.3 0-.3h-4.5V1.4h6.9s-.05 1.68 0 1.7c0 2.1-.3 3.8-.8 5.3h5.3zm3.2 12.7H299v-5.6h11v-1.4h-11v-2h13.5v5.4h-11v1.5h11.2v2.1zM327.6 9c0 .3-.2.7-.3 1c-.3.7-.8 1.3-1.3 1.8c-.5.6-1.2 1-1.9 1.3c-.7.3-1.5.4-2.3.4c-.8 0-1.6-.1-2.3-.4c-.7-.3-1.3-.7-1.9-1.3c-.5-.5-.9-1.1-1.2-1.8c-.4-.6-.5-1.4-.5-2.2c0-.7.1-1.5.5-2.2c.3-.6.7-1.2 1.2-1.8c.6-.5 1.2-.9 1.9-1.2c.7-.3 1.5-.4 2.3-.4c.8 0 1.6.1 2.3.4c.7.3 1.4.7 1.9 1.2c.5.6 1 1.2 1.3 1.8l.3 1.1c.03-.03 2.8 0 2.8 0V1h2.5v20.1h-2.5V9s-2.77-.03-2.8 0zm-2.3-1.2c0-.4-.1-.9-.3-1.3c-.2-.4-.4-.8-.7-1.1c-.4-.3-.7-.5-1.2-.7c-.4-.2-.8-.3-1.3-.3c-.5 0-.9.1-1.3.3c-.4.2-.8.4-1.1.7c-.3.3-.6.7-.8 1.1c-.1.4-.2.9-.2 1.3c0 .5.1 1 .2 1.4c.2.4.5.8.8 1.1c.3.3.7.5 1.1.7c.4.2.8.3 1.3.3c.5 0 .9-.1 1.3-.3c.5-.2.8-.4 1.2-.7c.3-.3.5-.7.7-1.1c.2-.4.3-.9.3-1.4zm17.6 7.8V1.8h2.4v11.5s3.1.04 3.1 0c2.1 0 4.1-.2 6.1-.6c-.03.02 0-11.7 0-11.7h2.5v6.4h3v2.3h-3v11.4h-2.5s-.03-6.1 0-6.1c-1.9.4-3.9.6-6.1.6h-5.5zM376.5 1v4.4h2.8v2.2h-2.8v4.3H374V1h2.5zm0 20.1h-12.6v-8.3h2.4v1.7h7.8v-1.7h2.4v8.3zm-2.4-2.2v-2.3h-7.8v2.3h7.8zm-3-17.1c0 3-1 5.3-3 7.2c-1.8 1.6-3.8 2.7-6.2 3.2l-1.2-1.8c2.2-.6 4-1.5 5.3-2.6c1.3-1.2 2.1-2.5 2.3-3.8c0-.02-6.2 0-6.2 0V1.8h9zM382 15.6V1.8h2.5v11.5s3.6.04 3.6 0c2.1 0 4.2-.1 6.3-.4c.05-.02 0-11.9 0-11.9h2.5v20.1h-2.5s.05-5.94 0-5.9c-1.9.2-4.1.4-6.5.4H382zm19 .3v-14h8.7v2.2h-6.3v9.6s2.52-.01 2.5 0c2.1 0 4.3-.2 6.7-.6c.04-.04 0-12.1 0-12.1h2.5v6.5h3.1v2.4h-3.1v11.2h-2.5s.04-5.78 0-5.8c-2.2.4-4.5.6-6.7.6c-.04.04-4.9 0-4.9 0z" stroke="none" fill="#fff"/></g></svg>