<?xml version="1.0" standalone="no"?><!DOCTYPE svg PUBLIC "-//W3C//DTD SVG 1.1//EN" "http://www.w3.org/Graphics/SVG/1.1/DTD/svg11.dtd"><svg xmlns="http://www.w3.org/2000/svg" version="1.1" width="232px" height="124.3px" viewBox="0 -2 232 124.3" style="top:-2px"><desc>다양성&amp;포용성 증진 인권 보호&amp;존중 기업문화 혁신 인재 성장경험 확장 안전보건 내재화</desc><defs/><g id="Polygon111653"><path d="m7.3 77.3h1.3v.7H7.3v3.3h-.8v-6.8h.8v2.8zm-2.2.1c0 .4 0 .7-.1 1c-.2.2-.3.5-.5.7c-.3.2-.5.3-.8.4c-.3.1-.6.2-1 .2c-.3 0-.6-.1-.9-.2c-.3-.1-.5-.2-.8-.4c-.2-.2-.3-.5-.5-.7c-.1-.3-.1-.6-.1-1c0-.3 0-.6.1-.9c.2-.3.3-.5.5-.7c.3-.2.5-.3.8-.5c.3-.1.6-.1.9-.1c.4 0 .7 0 1 .1c.3.2.5.3.8.5c.2.2.3.4.5.7c.1.3.1.6.1.9zm-3.9 0c0 .3 0 .5.1.7c.1.1.2.3.3.4c.2.2.3.3.5.4c.2 0 .4.1.6.1c.3 0 .5-.1.7-.1c.2-.1.3-.2.5-.4c.1-.1.2-.3.3-.4c.1-.2.1-.4.1-.7c0-.2 0-.4-.1-.6c-.1-.2-.2-.3-.3-.5c-.2-.1-.3-.2-.5-.3c-.2-.1-.4-.1-.7-.1c-.2 0-.4 0-.6.1c-.2.1-.3.2-.5.3c-.1.2-.2.3-.3.5c-.1.2-.1.4-.1.6zm1.2 3.2v2.2h5.3v.7H1.6v-2.9h.8zm11.8-3.5h1.9v-2.5h.8v6.7h-.8v-3.5h-1.9v-.7zm.6 2.1l-.5.7c-.5-.2-.9-.5-1.3-.8c-.4-.4-.7-.8-.9-1.3c-.2.5-.5 1-.9 1.4c-.4.4-.8.7-1.4.9l-.4-.7c.3-.1.7-.3.9-.5c.3-.2.6-.4.8-.7c.2-.2.3-.5.4-.8c.1-.3.2-.6.2-1v-.4h-2v-.7h4.9v.7h-2.1s.04.42 0 .4c0 .3.1.6.2.9c.1.3.3.5.5.8c.2.2.4.5.7.7c.2.2.5.3.9.4zm-2.9 3.6h5.3v.7h-6.1v-2.8h.8v2.1zm11.2-1h3.7v.7h-8.3v-.7h3.8v-1.9h-2.8v-4.7h.9v1.6h4.6v-1.6h.8v4.7h-2.7v1.9zm-2.7-4.3v1.7h4.6v-1.7h-4.6zm12-.1h2v-2.8h.9v6.7h-.9V78h-2v-.6zm-4.1-2.1s4.18-.05 4.2 0c0 .5-.1 1.1-.3 1.6c-.2.5-.5 1-.9 1.4c-.3.4-.8.8-1.3 1.1c-.5.4-1.1.6-1.8.9l-.3-.7c.5-.2 1-.4 1.4-.6c.4-.3.8-.6 1.1-.9c.4-.3.6-.6.8-1c.2-.4.3-.8.4-1.2c-.02.04-3.3 0-3.3 0v-.6zm2 7.5h5.2v.7h-6v-2.9h.8v2.2zm15.6-8.3h.9v9.2h-.9V79h-1.2v4.2h-.8v-8.5h.8v3.6h1.2v-3.8zm-5.6 1.2s-.03 4.89 0 4.9c.4 0 .9 0 1.4-.1c.4 0 1-.1 1.5-.2l.1.7c-.6.1-1.2.2-1.7.3h-2.2v-5.6h.9zm14.9-1.2h.8v9.2h-.8v-4.8H54v4.3h-.8v-8.5h.8v3.5h1.2v-3.7zm-4.3 1.8s-.03.72 0 .7c0 .4 0 .8.1 1.2c.1.4.2.8.4 1.1c.1.3.3.6.6.9c.2.3.5.5.8.6l-.5.7c-.4-.3-.8-.6-1.1-1c-.3-.4-.6-.9-.7-1.5c-.3 1.3-1 2.2-1.9 2.8l-.5-.6c.3-.2.6-.4.8-.7c.3-.3.5-.6.7-1c.1-.3.3-.7.3-1.2c.1-.4.2-.8.2-1.3c-.03.02 0-.7 0-.7h-1.8v-.7h4.2v.7h-1.6zm14.9 2.1v.7h-1.4v4.6h-.8v-9.2h.8v3.9h1.4zm-2.9-2.7v.6h-5.5v-.6h2.3v-1.1h.9v1.1h2.3zm-2.3 4.5v1c.4 0 .8-.1 1.2-.1c.4 0 .8-.1 1.2-.1l.1.6c-.5.1-1 .1-1.5.2c-.5 0-1 .1-1.5.1c-.5 0-1 0-1.4.1h-1.3l-.2-.7c.4 0 .8 0 1.2-.1h1.3v-1c-.5 0-.9-.2-1.2-.5c-.4-.3-.5-.7-.5-1.2c0-.2 0-.4.1-.6c.1-.3.3-.4.5-.6c.2-.1.4-.2.7-.3c.2-.1.5-.1.8-.1c.4 0 .7 0 .9.1c.3.1.5.2.7.3c.2.2.3.3.4.6c.2.2.2.4.2.6c0 .5-.2.9-.5 1.2c-.3.3-.7.5-1.2.5zm-1.8-1.7c0 .4.1.6.4.8c.2.2.5.3.9.3c.5 0 .8-.1 1-.3c.3-.2.4-.4.4-.8c0-.3-.1-.5-.4-.7c-.2-.2-.5-.3-1-.3c-.4 0-.7.1-.9.3c-.3.2-.4.4-.4.7z" stroke="none" fill="#fff"/></g><g id="Polygon111652"><path d="m7.5 56.1v6.6h-.8v-6.6h.8zM5 58.9c0 .4-.1.7-.2.9c-.1.3-.3.6-.5.8c-.2.2-.5.3-.8.4c-.3.1-.6.2-.9.2c-.3 0-.7-.1-1-.2c-.2-.1-.5-.2-.7-.4c-.2-.2-.4-.5-.5-.8c-.1-.2-.2-.5-.2-.9c0-.3.1-.6.2-.9c.1-.3.3-.5.5-.7c.2-.2.5-.3.7-.5c.3-.1.7-.1 1-.1c.3 0 .6 0 .9.1c.3.2.6.3.8.5c.2.2.4.4.5.7c.1.3.2.6.2.9zm-4 0c0 .3.1.5.1.6c.1.2.2.4.4.5c.1.2.3.3.5.4c.2 0 .4.1.6.1c.2 0 .4-.1.6-.1c.2-.1.4-.2.5-.4c.2-.1.3-.3.4-.5c0-.1.1-.3.1-.6c0-.2-.1-.4-.1-.6c-.1-.2-.2-.3-.4-.5c-.1-.1-.3-.2-.5-.3c-.2-.1-.4-.1-.6-.1c-.2 0-.4 0-.6.1c-.2.1-.4.2-.5.3c-.2.2-.3.3-.4.5c0 .2-.1.4-.1.6zm1.5 5.4h5.3v.7H1.6v-3h.9v2.3zM16.2 56h.8v9.2h-.8v-4.8H15v4.3h-.8v-8.5h.8v3.5h1.2V56zm-4.3 1.8s-.02.72 0 .7c0 .4 0 .8.1 1.2c.1.4.2.8.4 1.1c.1.3.3.6.6.9c.2.3.5.5.8.6l-.4.7c-.5-.3-.9-.6-1.2-1c-.3-.4-.5-.9-.7-1.5c-.3 1.3-1 2.2-1.9 2.8l-.5-.6c.3-.2.6-.4.9-.7c.2-.3.4-.6.6-1c.1-.3.3-.7.4-1.2c0-.4.1-.8.1-1.3c-.02.02 0-.7 0-.7H9.3v-.7h4.2v.7h-1.6zm15.2 3.7v-2.8h-2v-.7h2v-1.9h.9v5.4h-.9zm-1.3-1.1l-.4.6c-.6-.2-1-.4-1.4-.8c-.3-.3-.6-.7-.8-1.2c-.2.5-.5 1-.9 1.4c-.4.4-.9.7-1.4.9l-.5-.7c.4-.1.7-.3 1-.5c.3-.2.5-.4.7-.7c.2-.3.4-.6.5-.9c.1-.3.1-.7.1-1c.05 0 0-.9 0-.9h.9s-.02.87 0 .9c0 .3 0 .6.1.9c.1.3.3.6.5.8c.2.3.4.5.7.7c.3.2.6.4.9.5zm-.8 1.3c.4 0 .9.1 1.2.1c.4.1.7.2 1 .4c.2.1.5.3.6.5c.1.2.2.5.2.8c0 .2-.1.5-.2.7c-.1.2-.4.4-.6.5c-.3.2-.6.3-1 .4c-.3 0-.8.1-1.2.1c-.5 0-.9-.1-1.3-.1c-.4-.1-.7-.2-1-.4c-.2-.1-.4-.3-.6-.5c-.1-.2-.2-.5-.2-.7c0-.3.1-.6.2-.8c.2-.2.4-.4.6-.5c.3-.2.6-.3 1-.4c.4 0 .8-.1 1.3-.1zm0 2.8c.7 0 1.2-.1 1.6-.3c.4-.2.6-.4.6-.7c0-.4-.2-.7-.6-.8c-.4-.2-.9-.3-1.6-.3c-.7 0-1.3.1-1.7.3c-.4.1-.6.4-.6.8c0 .3.2.5.6.7c.4.2 1 .3 1.7.3zm11.7-6.1h1.4v.7h-1.4v2.5h-.8v-5.5h.8v2.3zm-1.8 2.1l-.4.6c-.5-.1-1-.4-1.3-.7c-.4-.4-.7-.8-.9-1.2c-.2.5-.5.9-.9 1.3c-.4.4-.8.7-1.4.9l-.4-.7c.3-.1.6-.3.9-.5c.3-.2.5-.4.7-.6c.2-.3.4-.6.5-.9c.1-.3.2-.6.2-.9c-.02-.05 0-.4 0-.4h-2.1v-.7h4.9v.7h-2v.4c0 .3.1.5.2.8c.1.3.2.6.4.8c.2.2.4.4.7.6c.3.2.6.4.9.5zm-1.1 1.3c.5 0 .9 0 1.3.1l.9.3c.3.2.5.4.6.6c.2.2.2.4.2.7c0 .3 0 .5-.2.7c-.1.2-.3.4-.6.5c-.3.2-.6.3-.9.4c-.4 0-.8.1-1.3.1c-.9 0-1.7-.2-2.2-.5c-.5-.3-.8-.7-.8-1.2c0-.5.3-1 .8-1.3c.5-.2 1.3-.4 2.2-.4zm0 2.7c.7 0 1.2-.1 1.6-.3c.4-.1.6-.4.6-.7c0-.3-.2-.6-.6-.8c-.4-.1-.9-.2-1.6-.2c-.7 0-1.2.1-1.6.2c-.4.2-.6.5-.6.8c0 .3.2.6.6.7c.4.2.9.3 1.6.3zm11.7-6.1h-2.3c-.6 1.5-1.9 2.5-3.9 3.1l-.4-.6c1.1-.4 2-.8 2.6-1.4c.7-.6 1-1.3 1.1-2.1h-3.2v-.7s4.12.03 4.1 0v.5c0 .2 0 .4-.1.5c.02.02 2.1 0 2.1 0v-1.6h.8v5.4h-.8v-1.2h-2.4v-.7h2.4v-1.2zm-2.1 3.2c.4 0 .8.1 1.2.1c.4.1.7.2 1 .4c.2.1.4.3.6.5c.1.3.2.5.2.8c0 .3-.1.5-.2.7l-.6.6c-.3.1-.6.2-1 .3c-.4.1-.8.1-1.2.1c-.5 0-.9 0-1.3-.1c-.4-.1-.7-.2-1-.3l-.6-.6c-.1-.2-.2-.4-.2-.7c0-.3.1-.5.2-.8c.2-.2.4-.4.6-.5c.3-.2.6-.3 1-.4c.4 0 .8-.1 1.3-.1zm0 2.9c.6 0 1.2-.1 1.6-.3c.4-.2.6-.5.6-.8c0-.4-.2-.6-.6-.8c-.4-.2-1-.3-1.6-.3c-.7 0-1.3.1-1.7.3c-.4.2-.6.4-.6.8c0 .3.2.6.6.8c.4.2 1 .3 1.7.3zm9.9-7.5v.7H48v-.7h2.2v-1.1h.9v1.1h2.2zm1.4-.9h.8v5.5h-.8v-2.1h-1.5v-.7h1.5v-2.7zm-1.9 3.7c0 .2-.1.4-.2.6c-.1.2-.3.4-.4.6c-.2.1-.5.2-.7.3c-.3.1-.6.1-.9.1c-.3 0-.6 0-.8-.1c-.3-.1-.5-.2-.7-.3c-.2-.2-.3-.4-.4-.6c-.1-.2-.2-.4-.2-.6c0-.3.1-.5.2-.7c.1-.2.2-.4.4-.5c.2-.2.4-.3.7-.3c.2-.1.5-.2.8-.2c.3 0 .6.1.9.2c.2 0 .5.1.7.3c.1.1.3.3.4.5c.1.2.2.4.2.7zm-3.5 0c0 .3.1.5.4.7c.2.2.6.3.9.3c.4 0 .7-.1 1-.3c.2-.2.4-.4.4-.7c0-.3-.2-.6-.4-.8c-.3-.1-.6-.2-1-.2c-.3 0-.7.1-.9.2c-.3.2-.4.5-.4.8zm.3 5.3v-3h5.9v3h-5.9zm.8-2.4v1.7h4.3v-1.7h-4.3zm14.3-5.8v.6h-5.3v-.6h2.2v-.9h.9v.9h2.2zm3 1.9v.7h-1.4v2.7h-.8v-6.1h.8v2.7h1.4zM65 61v.6c-.5 0-1 .1-1.5.2c-.5 0-1 0-1.5.1h-2.7l-.1-.7h2.4v-.7c-.5 0-.9-.1-1.2-.4c-.3-.2-.5-.5-.5-.9c0-.4.2-.8.6-1c.4-.2.9-.4 1.6-.4c.6 0 1.1.2 1.5.4c.4.2.6.6.6 1c0 .4-.2.7-.5.9c-.3.3-.7.4-1.2.4v.7c.4 0 .8-.1 1.2-.1c.4 0 .8-.1 1.3-.1zm-4.3-1.8c0 .2.1.4.4.6c.2.1.5.2 1 .2c.4 0 .7-.1.9-.2c.3-.2.4-.4.4-.6c0-.2-.1-.4-.4-.6c-.2-.1-.5-.2-.9-.2c-.5 0-.8.1-1 .2c-.3.2-.4.4-.4.6zm-.4 4.1v-.7h6v2.6h-.8v-1.9h-5.2zm15.2-4.9h1.4v.7h-1.4v2.5h-.8v-5.5h.8v2.3zm-1.8 2.1l-.4.6c-.5-.1-1-.4-1.3-.7c-.4-.4-.7-.8-.9-1.2c-.2.5-.5.9-.9 1.3c-.4.4-.8.7-1.4.9l-.4-.7c.3-.1.6-.3.9-.5c.3-.2.5-.4.7-.6c.2-.3.4-.6.5-.9c.1-.3.2-.6.2-.9c-.02-.05 0-.4 0-.4h-2.1v-.7h4.9v.7h-2v.4c0 .3.1.5.2.8c.1.3.2.6.4.8c.2.2.4.4.7.6c.3.2.6.4.9.5zm-1.1 1.3c.5 0 .9 0 1.3.1c.3.1.7.2.9.3c.3.2.5.4.6.6c.2.2.2.4.2.7c0 .3 0 .5-.2.7c-.1.2-.3.4-.6.5c-.2.2-.6.3-.9.4c-.4 0-.8.1-1.3.1c-.9 0-1.7-.2-2.2-.5c-.5-.3-.8-.7-.8-1.2c0-.5.3-1 .8-1.3c.5-.2 1.3-.4 2.2-.4zm0 2.7c.7 0 1.2-.1 1.6-.3c.4-.1.6-.4.6-.7c0-.3-.2-.6-.6-.8c-.4-.1-.9-.2-1.6-.2c-.7 0-1.2.1-1.6.2c-.4.2-.6.5-.6.8c0 .3.2.6.6.7c.4.2.9.3 1.6.3z" stroke="none" fill="#fff"/></g><g id="Polygon111651"><path d="m6.1 37.5h.9v9.2h-.9v-9.2zm-6.1 1s4.3.03 4.3 0c0 .7-.1 1.3-.2 1.9c-.2.7-.4 1.2-.8 1.8c-.3.5-.8 1-1.3 1.5c-.5.5-1.2.9-2 1.3l-.4-.7c1.2-.6 2.2-1.3 2.8-2.2c.6-.8 1-1.8 1.1-2.9H0v-.7zm15.3-.9h.9v4.9h-.9v-2.1s-1.81.01-1.8 0c-.1.6-.3 1-.8 1.3c-.4.3-.9.5-1.5.5c-.4 0-.7 0-1-.2c-.3-.1-.5-.2-.7-.4c-.2-.2-.4-.4-.5-.7c-.1-.2-.2-.5-.2-.8c0-.3.1-.6.2-.9c.1-.2.3-.5.5-.6c.2-.2.4-.4.7-.5c.3-.1.6-.1 1-.1c.3 0 .5 0 .8.1c.3.1.5.2.7.4c.2.1.4.3.5.5c.2.2.2.5.3.7c-.02.02 1.8 0 1.8 0v-2.1zm-4.1 3.9c.2 0 .4 0 .6-.1c.2-.1.3-.2.5-.3c.1-.1.2-.3.3-.4c.1-.2.1-.4.1-.6c0-.2 0-.4-.1-.6c-.1-.2-.2-.3-.3-.4c-.2-.2-.3-.3-.5-.3c-.2-.1-.4-.1-.6-.1c-.3 0-.5 0-.7.1c-.2 0-.3.1-.5.3c-.1.1-.2.2-.3.4c-.1.2-.1.4-.1.6c0 .2 0 .4.1.6c.1.1.2.3.3.4c.2.1.3.2.5.3c.2.1.4.1.7.1zm4.2 2.6v-1.2h.8v3.7h-5.9v-3.7h.9v1.2h4.2zm0 1.8v-1.2h-4.2v1.2h4.2zM25 38v3.2h-6.1V38h6.1zm-.8 2.5v-1.9h-4.5v1.9h4.5zm-6.4 1.7h8.3v.7h-3.6v1.8h-.9v-1.8h-3.8v-.7zm1.9 1.7v1.9h5.5v.7h-6.3v-2.6h.8zm15.8-2.5v.7h-1.4v4.6h-.9v-9.2h.9v3.9h1.4zm-3-2.7v.6h-5.4v-.6h2.3v-1.1h.8v1.1h2.3zm-2.3 4.5v1c.4 0 .9-.1 1.3-.1c.4 0 .8-.1 1.2-.1v.6c-.5.1-.9.1-1.5.2c-.5 0-1 .1-1.4.1c-.5 0-1 0-1.5.1H27l-.1-.7c.4 0 .8 0 1.2-.1h1.3v-1c-.5 0-1-.2-1.3-.5c-.3-.3-.5-.7-.5-1.2c0-.2.1-.4.2-.6c.1-.3.3-.4.5-.6c.1-.1.4-.2.6-.3c.3-.1.6-.1.9-.1c.3 0 .6 0 .9.1c.3.1.5.2.7.3c.2.2.3.3.4.6c.1.2.2.4.2.6c0 .5-.2.9-.5 1.2c-.3.3-.7.5-1.3.5zm-1.8-1.7c0 .4.2.6.4.8c.3.2.6.3 1 .3c.4 0 .7-.1 1-.3c.3-.2.4-.4.4-.8c0-.3-.1-.5-.4-.7c-.3-.2-.6-.3-1-.3c-.4 0-.7.1-1 .3c-.2.2-.4.4-.4.7zm15-3v.7h-5.1v-.7h2.2v-1h.8v1h2.1zm1.6-.9h.8v5.8h-.8v-1.2h-1.6v-.7h1.6v-1h-1.6v-.7h1.6v-2.2zm-2 3.8c0 .2-.1.4-.2.7c-.1.2-.2.4-.4.5c-.2.2-.4.3-.7.4c-.2 0-.5.1-.8.1c-.3 0-.6-.1-.8-.1c-.3-.1-.5-.2-.7-.4c-.2-.1-.3-.3-.4-.5c-.1-.3-.2-.5-.2-.7c0-.3.1-.5.2-.7c.1-.2.2-.4.4-.6c.2-.1.4-.2.7-.3c.2-.1.5-.1.8-.1c.3 0 .6 0 .8.1c.3.1.5.2.7.3c.2.2.3.4.4.6c.1.2.2.4.2.7zm-3.4 0c0 .3.1.6.4.7c.2.2.5.3.9.3c.4 0 .7-.1.9-.3c.3-.1.4-.4.4-.7c0-.4-.1-.6-.4-.8c-.2-.2-.5-.3-.9-.3c-.4 0-.7.1-.9.3c-.3.2-.4.4-.4.8zm.1 3.1v-.6h6.1v2.8h-.8v-2.2h-5.3zm15.3-7v6.8h-.9v-6.8h.9zm-2 4.6l-.5.7c-.5-.2-1-.5-1.3-.9c-.4-.4-.7-.9-.9-1.4c-.2.6-.5 1-.9 1.5c-.4.4-.9.7-1.4.9l-.5-.6c.4-.2.7-.3 1-.6c.3-.2.5-.4.7-.7c.2-.3.4-.6.5-1c.1-.3.1-.7.1-1c.04-.02 0-.9 0-.9h.9s-.02.88 0 .9c0 .3 0 .7.1 1c.2.3.3.6.5.9l.7.7c.3.2.6.4 1 .5zm-3.1 3.7h5.3v.7h-6.1v-2.9h.8v2.2z" stroke="none" fill="#fff"/></g><g id="Polygon111650"><path d="m7.5 19.1v6.6h-.8v-6.6h.8zM5 21.9c0 .4-.1.7-.2.9c-.1.3-.3.6-.5.8c-.2.2-.5.3-.8.4c-.3.1-.6.2-.9.2c-.3 0-.7-.1-1-.2c-.2-.1-.5-.2-.7-.4c-.2-.2-.4-.5-.5-.8c-.1-.2-.2-.5-.2-.9c0-.3.1-.6.2-.9c.1-.3.3-.5.5-.7c.2-.2.5-.3.7-.5c.3-.1.7-.1 1-.1c.3 0 .6 0 .9.1c.3.2.6.3.8.5c.2.2.4.4.5.7c.1.3.2.6.2.9zm-4 0c0 .3.1.5.1.6c.1.2.2.4.4.5c.1.2.3.3.5.4c.2 0 .4.1.6.1c.2 0 .4-.1.6-.1c.2-.1.4-.2.5-.4c.2-.1.3-.3.4-.5c0-.1.1-.3.1-.6c0-.2-.1-.4-.1-.6c-.1-.2-.2-.3-.4-.5c-.1-.1-.3-.2-.5-.3c-.2-.1-.4-.1-.6-.1c-.2 0-.4 0-.6.1c-.2.1-.4.2-.5.3c-.2.2-.3.3-.4.5c0 .2-.1.4-.1.6zm1.5 5.4h5.3v.7H1.6v-3h.9v2.3zM13.9 24h2v-4.9h.8v6.9h-.8v-1.3h-2v-.7zm-2.2 1.4v-2.1H9.2l-.1-.6c.6 0 1.3-.1 1.9-.1c.7 0 1.4 0 2.2-.1c.1-.5.1-.9.1-1.3c.1-.4.1-.7.1-.9c-.01-.03-3.5 0-3.5 0v-.7h4.3v1.4c0 .4-.1.9-.2 1.5c.2 0 .4-.1.5-.1h.5l.1.6c-.4 0-.8.1-1.3.1c-.4.1-.8.1-1.3.2c.03-.05 0 2.1 0 2.1h-.8zm-.4 1.9h5.6v.7h-6.4v-2.8h.8v2.1zm13.7-1h3.7v.7h-8.3v-.7h3.8v-1.9h-2.8v-4.7h.8v1.6h4.7v-1.6h.8v4.7H25v1.9zM22.2 22v1.7h4.7V22h-4.7zm15.3-1.6v.7H30v-.7h3.3v-1.2h.9v1.2h3.3zm-3.3 6h3.7v.7h-8.3v-.7h3.7s.04-1.25 0-1.2c-.8-.1-1.4-.3-1.9-.6c-.4-.3-.6-.7-.6-1.2c0-.3 0-.5.2-.7c.1-.2.3-.4.6-.6c.2-.1.5-.2.9-.3c.4-.1.8-.1 1.3-.1c.4 0 .8 0 1.2.1c.4.1.7.2.9.3c.3.2.5.4.6.6c.2.2.2.4.2.7c0 .5-.2.9-.6 1.2c-.5.3-1.1.5-1.9.6c-.02-.05 0 1.2 0 1.2zm-2.6-3c0 .4.2.6.6.8c.4.2.9.3 1.6.3c.6 0 1.1-.1 1.5-.3c.4-.2.6-.4.6-.8c0-.3-.2-.6-.6-.8c-.4-.2-.9-.3-1.5-.3c-.7 0-1.2.1-1.6.3c-.4.2-.6.5-.6.8zm12 2.6c-.05-.03 1.3 1.4 1.3 1.4h-1s-.78-.9-.8-.9c-.3.3-.6.5-1 .7c-.4.1-.8.2-1.3.2c-.7 0-1.2-.1-1.6-.5c-.4-.3-.6-.8-.6-1.4v-.1c0-.4.1-.8.4-1.2c.2-.4.6-.6 1.1-.9h-.1c-.1-.3-.3-.5-.5-.7c-.1-.3-.2-.6-.2-.9c0-1.1.5-1.6 1.6-1.7h.1c.2 0 .4.1.6.1c.2.1.4.2.5.3c.1.1.3.3.3.5c.1.2.2.4.2.6c0 .3-.1.5-.1.7c-.1.2-.2.3-.3.5c-.2.2-.3.3-.5.4c-.2.2-.3.3-.5.4l1.9 2l.3-.6c.1-.3.2-.6.3-1.1h.8c-.1.6-.3 1-.4 1.3c-.2.4-.4.7-.5.9zM41 20.7h-.1c-.3 0-.5.1-.7.3c-.1.1-.2.3-.2.6c0 .2 0 .4.1.5c.1.2.2.4.5.7l.1.2c.1-.1.3-.2.4-.3c.1-.1.3-.2.4-.3c.1-.1.2-.2.2-.4c.1-.1.1-.3.1-.5c0-.2-.1-.4-.2-.6c-.2-.1-.4-.2-.6-.2zm1.6 5.3l-2-2.1c-.2.1-.4.2-.5.3c-.2.1-.3.2-.4.3c-.1.2-.2.3-.3.5c0 .2-.1.3-.1.5c0 .2.1.4.2.5c0 .1.1.3.3.4c.1.1.3.2.4.2c.2.1.4.1.6.1c.4 0 .7-.1 1-.2c.3-.1.6-.3.8-.5zm3.5-2.9l-.3-.7c.4 0 .8-.1 1.2-.3c.4-.1.7-.3 1-.5c.3-.2.5-.4.7-.6c.1-.3.2-.5.2-.8c.01-.02 0 0 0 0h-2.8v-.7h6.7v.7H50s-.01-.02 0 0c0 .3.1.5.2.8c.2.2.4.4.7.6c.3.2.6.4 1 .5c.4.2.8.3 1.2.3l-.3.7c-.4-.1-.7-.1-1.1-.3c-.3-.1-.7-.2-1-.4c-.2-.2-.5-.4-.7-.6c-.3-.2-.4-.5-.6-.7c-.1.2-.2.5-.5.7c-.2.2-.5.4-.7.6c-.3.2-.7.3-1 .4c-.4.2-.7.2-1.1.3zm3.8.9h3.7v.7h-8.3v-.7h3.7v-1.5h.9v1.5zm-2.7 1.4v1.9h5.5v.7h-6.3v-2.6h.8zm8.1-2.6l-.3-.7c.4 0 .7-.1 1.1-.2c.4-.1.7-.3 1-.5c.3-.1.5-.3.7-.6c.2-.2.3-.4.3-.7c-.01.03-2.8 0-2.8 0v-.6h6.7v.6s-2.83.03-2.8 0c0 .3.1.5.3.7c.1.3.4.5.7.6c.2.2.6.4.9.5c.4.1.8.2 1.2.2l-.3.7l-1.1-.3c-.3-.1-.7-.2-.9-.3c-.3-.2-.6-.4-.8-.6c-.3-.2-.4-.4-.6-.7c-.1.3-.3.5-.5.7c-.2.2-.5.4-.8.6c-.3.1-.6.2-1 .3l-1 .3zm7.5 1.2H59s.05.98 0 1c.9 0 1.6.2 2.1.4c.4.3.7.7.7 1.2c0 .5-.3.9-.9 1.2c-.5.2-1.3.4-2.3.4c-.9 0-1.7-.2-2.3-.4c-.5-.3-.8-.7-.8-1.2c0-.5.2-.9.7-1.2c.5-.2 1.1-.4 2-.4v-1h-3.7v-.7h8.3v.7zm-1.9 2.6c0-.3-.2-.6-.6-.7c-.4-.2-1-.3-1.7-.3c-.7 0-1.3.1-1.7.3c-.4.1-.6.4-.6.7c0 .3.2.5.6.7c.4.2 1 .2 1.7.2c.7 0 1.3 0 1.7-.2c.4-.2.6-.4.6-.7z" stroke="none" fill="#fff"/></g><g id="Polygon111649"><path d="m8.8 4.2v.6H7.3v4.9h-.8V.5h.8v3.7h1.5zM1.5 2.1v4.6h2.2c.3-.1.6-.1.9-.1c.4-.1.7-.1 1-.2l.1.7c-.3.1-.7.1-1 .2c-.4 0-.7 0-1 .1H1.4c-.03.03-.8 0-.8 0v-6h4.3v.7H1.5zm16.4.5h-1.4v1.3h1.4v.6h-1.4v1.5h-.8V.6h.8v1.3h1.4v.7zm-3.5.6c0 .4-.1.6-.2.9c-.1.3-.3.5-.5.7c-.2.2-.5.3-.7.4c-.3.1-.7.2-1 .2c-.3 0-.7-.1-1-.2c-.2-.1-.5-.2-.7-.4c-.2-.2-.4-.4-.5-.7c-.1-.3-.2-.5-.2-.9c0-.3.1-.6.2-.8c.1-.3.3-.5.5-.7c.2-.2.5-.3.7-.5c.3-.1.7-.1 1-.1c.3 0 .7 0 1 .1c.2.2.5.3.7.5c.2.2.4.4.5.7c.1.2.2.5.2.8zm-4 0c0 .2.1.4.1.6c.1.2.2.4.4.5c.1.1.3.2.5.3c.2.1.4.1.6.1c.2 0 .4 0 .6-.1c.2-.1.4-.2.5-.3c.2-.1.3-.3.4-.5c0-.2.1-.4.1-.6c0-.2-.1-.4-.1-.6c-.1-.1-.2-.3-.4-.4c-.1-.1-.3-.2-.5-.3c-.2-.1-.4-.1-.6-.1c-.2 0-.4 0-.6.1c-.2.1-.4.2-.5.3c-.2.1-.3.3-.4.4c0 .2-.1.4-.1.6zm3.2 3.1c.5 0 .9 0 1.3.1c.4 0 .7.2.9.3c.3.1.5.3.6.5c.2.2.2.5.2.8c0 .2 0 .5-.2.7c-.1.2-.3.4-.6.5c-.2.2-.5.3-.9.4c-.4 0-.8.1-1.3.1c-.4 0-.8-.1-1.2-.1c-.4-.1-.7-.2-1-.4c-.2-.1-.4-.3-.6-.5c-.1-.2-.2-.5-.2-.7c0-.3.1-.6.2-.8c.2-.2.4-.4.6-.5c.3-.1.6-.3 1-.3c.4-.1.8-.1 1.2-.1zm0 2.7c.7 0 1.2-.1 1.6-.3c.4-.2.6-.4.6-.7c0-.4-.2-.6-.6-.8c-.4-.2-.9-.3-1.6-.3c-.6 0-1.2.1-1.6.3c-.4.2-.5.4-.5.8c0 .3.1.5.5.7c.4.2 1 .3 1.6.3zm11.7-3V3.2h-2v-.7h2V.6h.9v5.4h-.9zM24 4.9l-.5.6c-.5-.2-.9-.4-1.3-.8c-.4-.3-.6-.7-.8-1.2c-.2.5-.5 1-.9 1.4c-.4.4-.9.7-1.4.9l-.5-.7c.4-.1.7-.3 1-.5c.3-.2.5-.4.7-.7c.2-.3.4-.6.5-.9c.1-.3.1-.7.1-1c.03 0 0-.9 0-.9h.9s-.04.87 0 .9c0 .3 0 .6.1.9c.1.3.3.6.5.8c.2.3.4.5.7.7c.2.2.6.4.9.5zm-.9 1.3c.5 0 .9.1 1.3.1c.4.1.7.2 1 .4c.2.1.4.3.6.5c.1.2.2.5.2.8c0 .2-.1.5-.2.7c-.2.2-.4.4-.6.5c-.3.2-.6.3-1 .4c-.4 0-.8.1-1.3.1c-.4 0-.9-.1-1.2-.1c-.4-.1-.7-.2-1-.4c-.2-.1-.5-.3-.6-.5c-.1-.2-.2-.5-.2-.7c0-.3.1-.6.2-.8c.1-.2.4-.4.6-.5c.3-.2.6-.3 1-.4c.3 0 .8-.1 1.2-.1zm0 2.8c.7 0 1.3-.1 1.7-.3c.4-.2.6-.4.6-.7c0-.4-.2-.7-.6-.8c-.4-.2-1-.3-1.7-.3c-.7 0-1.2.1-1.6.3c-.4.1-.6.4-.6.8c0 .3.2.5.6.7c.4.2.9.3 1.6.3zm9.5-1.5l1.3 1.4h-1s-.78-.9-.8-.9c-.3.3-.6.5-1 .7c-.4.1-.8.2-1.3.2c-.7 0-1.2-.1-1.6-.5c-.4-.3-.6-.8-.6-1.4v-.1c0-.4.1-.8.4-1.2c.2-.4.6-.6 1.1-.9h-.1c-.1-.3-.3-.5-.5-.7c-.1-.3-.2-.6-.2-.9c0-1.1.5-1.6 1.6-1.7h.1c.2 0 .4.1.6.1c.2.1.4.2.5.3c.1.1.3.3.3.5c.1.2.2.4.2.6c0 .3-.1.5-.1.7c-.1.2-.2.3-.3.5c-.2.2-.3.3-.5.4c-.2.2-.3.3-.5.4l1.9 2l.3-.6c.1-.3.2-.6.3-1.1h.8c-.1.6-.3 1-.4 1.3c-.2.4-.4.7-.5.9zM30 2.2h-.1c-.3 0-.5.1-.7.3c-.1.1-.2.3-.2.6c0 .2 0 .4.1.5c.1.2.2.4.5.7l.1.2c.1-.1.3-.2.4-.3c.1-.1.3-.2.4-.3c.1-.1.2-.2.2-.4c.1-.1.1-.3.1-.5c0-.2-.1-.4-.2-.6c-.2-.1-.4-.2-.6-.2zm1.6 5.3l-2-2.1c-.2.1-.4.2-.5.3c-.2.1-.3.2-.4.3c-.1.2-.2.3-.3.5c0 .2-.1.3-.1.5c0 .2.1.4.2.5c0 .1.1.3.3.4c.1.1.3.2.4.2c.2.1.4.1.6.1c.4 0 .7-.1 1-.2c.3-.1.6-.3.8-.5zm7.3.4h3.7v.6h-8.3v-.6h3.7V5.8h-2.9v-.7h1.4v-3H35v-.7h6.8v.7h-1.4v3h1.4v.7h-2.9v2.1zm-1.6-5.8v3h2.3v-3h-2.3zm12.4 3h2.1v.6h-8.3v-.6h2s.03-1.32 0-1.3c-.7-.3-1.1-.8-1.1-1.4c0-.3.1-.5.2-.7c.2-.2.4-.4.7-.5c.3-.2.6-.3 1-.4c.4-.1.8-.1 1.3-.1c.5 0 1 0 1.4.1c.4.1.7.2 1 .4c.2.1.5.3.6.5c.2.2.2.4.2.7c0 .3-.1.6-.3.8c-.2.2-.4.4-.8.6c.02-.03 0 1.3 0 1.3zm-4.4-2.7c0 .3.2.6.6.8c.4.2 1 .3 1.7.3c.8 0 1.3-.1 1.8-.3c.4-.2.6-.5.6-.8c0-.3-.2-.6-.6-.8c-.5-.2-1-.2-1.8-.2c-.7 0-1.3 0-1.7.2c-.4.2-.6.5-.6.8zM46.4 4c-.04 0 0 1.1 0 1.1h2.5V4c-.2 0-.4.1-.6.1H47c-.3 0-.5-.1-.6-.1zm1.2 2.4c1 0 1.8.2 2.3.4c.6.3.9.7.9 1.3c0 .5-.3.9-.9 1.2c-.5.2-1.3.4-2.3.4c-1 0-1.7-.2-2.3-.4c-.5-.3-.8-.7-.8-1.2c0-.6.3-1 .8-1.3c.6-.2 1.3-.4 2.3-.4zm0 2.6c.7 0 1.3 0 1.7-.2c.4-.2.6-.4.6-.7c0-.4-.2-.6-.6-.8c-.4-.1-1-.2-1.7-.2c-.7 0-1.3.1-1.7.2c-.4.2-.6.4-.6.8c0 .3.2.5.6.7c.4.2 1 .2 1.7.2zm11.8-3V3.2h-2v-.7h2V.6h.8v5.4h-.8zM58 4.9l-.4.6c-.5-.2-1-.4-1.3-.8c-.4-.3-.7-.7-.9-1.2c-.2.5-.5 1-.9 1.4c-.4.4-.9.7-1.4.9l-.4-.7c.3-.1.6-.3.9-.5c.3-.2.5-.4.7-.7c.2-.3.4-.6.5-.9c.1-.3.2-.7.2-1c-.03 0 0-.9 0-.9h.8s.01.87 0 .9c0 .3.1.6.2.9c.1.3.2.6.4.8c.2.3.4.5.7.7c.3.2.6.4.9.5zm-.8 1.3c.5 0 .9.1 1.3.1c.3.1.6.2.9.4c.3.1.5.3.6.5c.2.2.2.5.2.8c0 .2 0 .5-.2.7c-.1.2-.3.4-.6.5c-.3.2-.6.3-.9.4c-.4 0-.8.1-1.3.1c-.5 0-.9-.1-1.3-.1c-.4-.1-.7-.2-.9-.4c-.3-.1-.5-.3-.6-.5c-.2-.2-.3-.5-.3-.7c0-.3.1-.6.3-.8c.1-.2.3-.4.6-.5c.2-.2.5-.3.9-.4c.4 0 .8-.1 1.3-.1zm0 2.8c.7 0 1.2-.1 1.6-.3c.4-.2.6-.4.6-.7c0-.4-.2-.7-.6-.8c-.4-.2-.9-.3-1.6-.3c-.7 0-1.3.1-1.6.3c-.4.1-.6.4-.6.8c0 .3.2.5.6.7c.3.2.9.3 1.6.3zm7.5-4.7l-.3-.6c.4-.1.8-.1 1.2-.3c.3-.1.7-.2 1-.4c.2-.2.5-.4.7-.6c.1-.2.2-.5.2-.7c.03-.02-2.8 0-2.8 0v-.7h6.8v.7s-2.89-.02-2.9 0c0 .2.1.5.3.7c.2.2.4.4.7.6c.3.2.6.3 1 .4c.4.2.7.2 1.1.3l-.3.6c-.3 0-.7-.1-1-.2c-.4-.1-.7-.2-1-.4c-.3-.1-.6-.3-.8-.5c-.2-.2-.4-.5-.5-.7c-.2.2-.3.5-.6.7c-.2.2-.5.4-.7.5c-.3.2-.7.3-1 .4c-.4.1-.7.2-1.1.2zm-.8.6h8.3v.7h-8.3v-.7zm4.2 1.5c.9 0 1.7.1 2.3.4c.5.3.8.7.8 1.2c0 .6-.3 1-.8 1.3c-.6.2-1.4.4-2.3.4c-1 0-1.8-.2-2.3-.4c-.6-.3-.9-.7-.9-1.3c0-.5.3-.9.9-1.2c.5-.3 1.3-.4 2.3-.4zm0 2.6c.7 0 1.2-.1 1.6-.2c.4-.2.6-.5.6-.8c0-.3-.2-.6-.6-.7c-.4-.2-.9-.3-1.6-.3c-.8 0-1.3.1-1.7.3c-.4.1-.6.4-.6.7c0 .3.2.6.6.8c.4.1.9.2 1.7.2zM80.6.6v6.6h-.8V.6h.8zm-1.9 4.7l-.4.6c-.5-.1-1-.4-1.4-.8c-.4-.3-.7-.8-.9-1.2c-.2.5-.5.9-.9 1.3c-.4.4-.9.7-1.4.9l-.5-.6c.4-.2.7-.3 1-.5c.3-.2.5-.5.7-.7c.2-.3.4-.6.5-.9c.1-.3.1-.6.1-.9c.05-.02 0-.5 0-.5h-2v-.7h5v.7h-2.1v.5c0 .3.1.6.2.9c.1.3.2.5.4.8c.3.2.5.4.8.6c.3.2.6.4.9.5zm-3.1 3.5h5.3v.7h-6.2V6.6h.9v2.2z" stroke="none" fill="#fff"/></g></svg>